# fff002f9_00149_0046f3e7
o fff002f9_00149_0046f3e7
v 5.441391 5.810143 0.008556
v 5.442535 -14.983070 0.008251
v 1.609650 8.369469 0.000324
v 5.551224 8.287560 0.008381
v 5.490845 8.369469 0.008564
v 0.081314 -30.377846 0.003307
v 0.182846 -30.501259 0.011829
v 2.098419 5.810143 -0.003193
v 1.689697 6.570274 -0.003475
v 2.142776 5.886925 -0.000904
v 1.666046 8.296989 0.000538
v 1.609650 6.540947 -0.003796
v 2.071823 -15.166542 -0.002644
v 1.623978 -14.465462 -0.005260
v -2.494019 -12.730370 -0.009731
v -5.020569 -12.719414 -0.011814
v -5.019943 -13.773933 -0.011242
v -2.024567 -13.172966 -0.008915
v -0.109436 -32.552528 -0.001171
v -0.003433 -32.552528 -0.001171
v 2.132797 -15.042091 -0.002438
v 1.553040 -8.751335 -0.002682
v 1.456512 -8.640099 -0.005886
v 1.525574 -14.611732 -0.005596
v -5.019882 -13.859215 -0.011196
v -1.932373 -13.199623 -0.008816
v -2.464859 -12.683266 -0.009686
v -5.020569 14.300484 -0.011814
v -2.024567 13.846931 -0.008915
v -2.494019 14.289528 -0.009731
v -5.019943 13.245964 -0.011242
v -5.019882 13.160683 -0.011196
v -2.464859 14.336632 -0.009686
v -5.020584 14.336632 -0.011829
v -1.932373 13.820274 -0.008816
v 5.558456 29.234093 0.008564
v 5.430878 29.162926 0.008564
v -1.396042 31.746300 -0.005566
v -5.005936 -15.462685 -0.010197
v -1.652557 -15.462685 -0.006779
v -1.652557 -12.382988 -0.007755
v -1.808350 11.683067 -0.008862
v -1.652557 -15.462685 -0.006779
v -1.652557 -15.462685 -0.006779
v -1.652557 -15.462685 -0.006779
v -5.010315 -15.277016 -0.010509
v -5.020081 -12.417107 -0.011829
v -1.813782 -15.277016 -0.007206
v -1.808441 -12.982597 -0.008389
v 6.145645 29.075401 0.008564
v 6.144165 -32.552528 -0.001171
v -2.075958 13.726723 -0.008923
v -5.019775 11.683067 -0.011227
v -5.019791 11.808800 -0.011211
v -1.948914 11.808800 -0.008961
v -1.808319 11.808800 -0.008862
v -1.808334 11.683067 -0.008862
v -4.881485 -32.552177 -0.001209
v -2.039459 32.539879 -0.008121
v 5.521286 -31.788857 0.008564
v 5.404739 -31.665443 0.008564
v -5.072037 32.552849 -0.011822
v 2.119965 32.278770 0.001324
v 6.145630 5.816856 0.008564
v 5.452179 -8.683022 0.008564
v 6.132629 -11.631325 0.008564
v 5.543060 -14.877357 0.008564
v 5.352203 -8.567543 0.008320
v 6.145645 32.360481 0.008564
v -1.943756 32.539879 -0.008121
v -1.354614 31.817467 -0.005024
v 5.505264 5.871666 0.008358
v -5.017303 -8.328804 -0.011822
v -5.020584 -12.683266 -0.011829
v -2.039460 32.539906 -0.008121
v -1.354615 31.817493 -0.005024
v -1.943757 32.539906 -0.008121
v -4.945544 -23.755648 -0.005835
v -5.018521 1.529228 -0.011529
v -5.046841 23.632473 -0.011825
vt 0.250000 0.250000
vt 0.250000 0.250000
vt 0.250000 0.250000
vt 0.250000 0.250000
vt 0.250000 0.250000
vt 0.250000 0.250000
vt 0.250000 0.250000
vt 0.250000 0.250000
vt 0.250000 0.250000
vt 0.250000 0.250000
vt 0.250000 0.250000
vt 0.250000 0.250000
vt 0.250000 0.250000
vt 0.250000 0.250000
vt 0.250000 0.250000
vt 0.250000 0.250000
vt 0.250000 0.250000
vt 0.250000 0.250000
vt 0.250000 0.250000
vt 0.250000 0.250000
vt 0.250000 0.250000
vt 0.250000 0.250000
vt 0.250000 0.250000
vt 0.250000 0.250000
vt 0.250000 0.250000
vt 0.250000 0.250000
vt 0.250000 0.250000
vt 0.250000 0.250000
vt 0.250000 0.250000
vt 0.250000 0.250000
vt 0.250000 0.250000
vt 0.250000 0.250000
vt 0.250000 0.250000
vt 0.250000 0.250000
vt 0.250000 0.250000
vt 0.250000 0.250000
vt 0.250000 0.250000
vt 0.250000 0.250000
vt 0.250000 0.250000
vt 0.250000 0.250000
vt 0.250000 0.250000
vt 0.250000 0.250000
vt 0.250000 0.250000
vt 0.250000 0.250000
vt 0.250000 0.250000
vt 0.250000 0.250000
vt 0.250000 0.250000
vt 0.250000 0.250000
vt 0.250000 0.250000
vt 0.250000 0.250000
vt 0.250000 0.250000
vt 0.250000 0.250000
vt 0.250000 0.250000
vt 0.250000 0.250000
vt 0.250000 0.250000
vt 0.250000 0.250000
vt 0.250000 0.250000
vt 0.250000 0.250000
vt 0.250000 0.250000
vt 0.250000 0.250000
vt 0.250000 0.250000
vt 0.250000 0.250000
vt 0.250000 0.250000
vt 0.250000 0.250000
vt 0.250000 0.250000
vt 0.250000 0.250000
vt 0.250000 0.250000
vt 0.250000 0.250000
vt 0.250000 0.250000
vt 0.250000 0.250000
vt 0.250000 0.250000
vt 0.250000 0.250000
vt 0.250000 0.250000
vt 0.250000 0.250000
vt 0.250000 0.250000
vt 0.250000 0.250000
vt 0.250000 0.250000
vt 0.250000 0.250000
vt 0.250000 0.250000
vt 0.250000 0.250000
vt 0.250000 0.250000
vt 0.250000 0.250000
vt 0.250000 0.250000
vt 0.250000 0.250000
vt 0.250000 0.250000
vt 0.250000 0.250000
vt 0.250000 0.250000
vt 0.250000 0.250000
vt 0.250000 0.250000
vt 0.250000 0.250000
vt 0.250000 0.250000
vt 0.250000 0.250000
vt 0.250000 0.250000
vt 0.250000 0.250000
vt 0.250000 0.250000
vt 0.250000 0.250000
vt 0.250000 0.250000
vt 0.250000 0.250000
vt 0.250000 0.250000
vt 0.250000 0.250000
vt 0.250000 0.250000
vt 0.250000 0.250000
vt 0.250000 0.250000
vt 0.250000 0.250000
vt 0.250000 0.250000
vt 0.250000 0.250000
vt 0.250000 0.250000
vt 0.250000 0.250000
vt 0.250000 0.250000
vt 0.250000 0.250000
vt 0.250000 0.250000
vt 0.250000 0.250000
vt 0.250000 0.250000
vt 0.250000 0.250000
vt 0.250000 0.250000
vt 0.250000 0.250000
vt 0.250000 0.250000
vt 0.250000 0.250000
vt 0.250000 0.250000
vt 0.250000 0.250000
vt 0.250000 0.250000
vt 0.250000 0.250000
vt 0.250000 0.250000
vt 0.250000 0.250000
vt 0.250000 0.250000
vt 0.250000 0.250000
vt 0.250000 0.250000
vt 0.250000 0.250000
vt 0.250000 0.250000
vt 0.250000 0.250000
vt 0.250000 0.250000
vt 0.250000 0.250000
vt 0.250000 0.250000
vn -0.001052 0.002600 0.999996
vn -0.003020 0.000277 0.999995
vn -0.004234 -0.000969 0.999991
vn -0.000681 -0.000545 1.000000
vn -0.000059 -0.001332 0.999999
vn -0.008101 0.008509 0.999931
vn -0.023302 0.032402 0.999203
vn -0.006292 -0.006913 0.999956
vn -0.006125 -0.002335 0.999979
vn -0.011067 -0.014418 0.999835
vn -0.004152 -0.000621 0.999991
vn -0.002495 -0.000914 0.999996
vn -0.003724 0.001071 0.999993
vn -0.004081 0.000340 0.999992
vn -0.001068 0.000239 0.999999
vn -0.000851 0.000502 1.000000
vn -0.000886 0.000539 0.999999
vn -0.000876 0.000720 0.999999
vn -0.000004 -0.002059 0.999998
vn -0.001356 -0.004022 0.999991
vn -0.003977 0.000320 0.999992
vn -0.015475 0.008520 0.999844
vn -0.005642 0.003419 0.999978
vn -0.002496 0.000588 0.999997
vn -0.000948 0.000552 0.999999
vn -0.002607 0.000349 0.999997
vn -0.001258 -0.001992 0.999997
vn -0.000851 0.000502 1.000000
vn -0.000876 0.000720 0.999999
vn -0.001068 0.000239 0.999999
vn -0.000886 0.000539 1.000000
vn -0.000820 0.000226 1.000000
vn -0.001330 -0.000070 0.999999
vn -0.000831 0.000204 1.000000
vn -0.001736 0.000058 0.999999
vn -0.000568 0.000361 1.000000
vn -0.001095 0.000721 0.999999
vn -0.004385 -0.001814 0.999989
vn -0.001019 0.001095 0.999999
vn -0.000580 0.000133 1.000000
vn -0.001423 0.000078 0.999999
vn -0.000254 -0.707023 0.707191
vn 0.000000 0.000000 0.000000
vn -0.001329 0.000731 0.999999
vn -0.000484 0.000417 1.000000
vn -0.001027 0.001059 0.999999
vn -0.001114 0.000085 0.999999
vn -0.001561 0.000798 0.999999
vn -0.004190 0.000022 0.999991
vn 0.000000 0.000000 1.000000
vn 0.005476 -0.006928 0.999961
vn -0.000747 -0.000007 1.000000
vn -0.000736 -0.000076 1.000000
vn -0.000746 -0.000076 1.000000
vn -0.000723 -0.000045 1.000000
vn -0.001183 -0.000069 0.999999
vn -0.000931 -0.000121 1.000000
vn -0.000942 -0.000263 1.000000
vn -0.002262 -0.000159 0.999997
vn 0.004677 -0.006154 0.999970
vn 0.000165 0.000551 1.000000
vn -0.001186 -0.000053 0.999999
vn -0.001868 0.000426 0.999998
vn -0.000321 -0.000002 1.000000
vn -0.001423 -0.000113 0.999999
vn 0.000148 -0.000004 1.000000
vn -0.001592 0.000005 0.999999
vn -0.002906 -0.000020 0.999996
vn -0.001589 0.000298 0.999999
vn -0.002162 0.002525 0.999995
vn -0.004341 -0.001491 0.999989
vn -0.000767 0.000620 1.000000
vn -0.000953 -0.000049 1.000000
vn -0.001006 0.000089 1.000000
vn 0.000000 0.004288 0.999991
vn 0.000000 0.004288 0.999991
vn 0.000000 0.004288 0.999991
vn -0.001019 0.000518 0.999999
vn -0.000736 -0.000030 1.000000
vn -0.000839 -0.000003 1.000000
g fff002f9_00149_0046f3e7_e1
f 49/13/49 27/90/27 26/75/26
f 49/13/49 26/75/26 48/1/48
f 33/99/33 80/133/80 34/82/34
f 26/75/26 25/89/25 48/12/48
f 48/12/48 25/89/25 46/11/46
f 79/132/79 73/117/73 57/25/57
f 45/10/45 44/9/44 43/8/43
f 13/74/13 24/73/24 58/72/58
f 44/6/44 78/131/78 58/72/58
f 57/25/57 73/117/73 12/51/12
f 24/73/24 45/10/45 58/72/58
f 11/50/11 10/71/10 72/49/72
f 42/24/42 56/23/56 55/22/55
f 47/21/47 74/116/74 41/20/41
f 35/102/35 56/19/56 12/51/12
f 76/129/76 77/130/77 75/128/75
f 8/47/8 1/91/1 72/40/72
f 11/50/11 9/28/9 10/71/10
f 56/18/56 42/24/42 57/25/57
f 42/24/42 55/22/55 54/17/54
f 42/24/42 53/16/53 57/25/57
f 53/16/53 79/132/79 57/25/57
f 12/41/12 9/48/9 11/40/11
f 56/23/56 35/102/35 55/22/55
f 40/7/40 44/9/44 45/10/45
f 56/19/56 57/25/57 12/51/12
f 71/126/71 63/70/63 70/125/70
f 9/48/9 8/47/8 10/69/10
f 45/10/45 43/8/43 58/72/58
f 48/12/48 46/11/46 44/6/44
f 44/6/44 39/5/39 78/131/78
f 44/6/44 46/11/46 39/5/39
f 38/27/38 37/124/37 71/123/71
f 69/127/69 63/68/63 36/122/36
f 10/69/10 8/47/8 72/40/72
f 68/115/68 23/67/23 22/66/22
f 7/34/7 61/114/61 6/33/6
f 55/22/55 35/102/35 52/15/52
f 21/65/21 13/74/13 67/64/67
f 3/45/3 11/50/11 4/42/4
f 5/46/5 4/63/4 37/121/37
f 72/29/72 64/30/64 4/63/4
f 7/62/7 20/88/20 51/61/51
f 55/22/55 52/15/52 54/17/54
f 3/45/3 5/44/5 37/124/37
f 40/7/40 23/67/23 41/4/41
f 35/26/35 37/70/37 38/120/38
f 71/123/71 36/122/36 63/68/63
f 60/43/60 61/87/61 7/86/7
f 51/61/51 60/43/60 7/86/7
f 11/50/11 72/49/72 4/42/4
f 6/32/6 19/60/19 20/59/20
f 60/85/60 51/84/51 66/101/66
f 61/83/61 60/85/60 67/100/67
f 3/45/3 4/42/4 5/44/5
f 35/27/35 3/45/3 37/124/37
f 33/99/33 62/58/62 80/133/80
f 41/3/41 49/13/49 48/1/48
f 26/75/26 18/81/18 17/80/17
f 6/33/6 2/114/2 58/79/58
f 33/98/33 59/57/59 62/58/62
f 12/41/12 3/39/3 35/92/35
f 6/78/6 61/83/61 2/113/2
f 69/121/69 36/119/36 50/56/50
f 73/112/73 47/21/47 23/67/23
f 1/97/1 65/111/65 72/96/72
f 16/77/16 15/76/15 74/116/74
f 16/77/16 18/81/18 15/76/15
f 42/24/42 54/17/54 53/16/53
f 41/14/41 27/90/27 49/13/49
f 24/73/24 21/65/21 14/55/14
f 71/123/71 37/124/37 36/122/36
f 47/21/47 41/20/41 23/67/23
f 26/75/26 27/90/27 18/81/18
f 23/67/23 24/73/24 14/55/14
f 60/85/60 66/101/66 67/100/67
f 61/83/61 67/100/67 2/113/2
f 44/9/44 41/4/41 48/1/48
f 12/41/12 11/40/11 3/39/3
f 2/114/2 13/110/13 58/79/58
f 24/73/24 13/74/13 21/65/21
f 68/109/68 1/38/1 8/47/8
f 72/96/72 66/108/66 64/95/64
f 6/32/6 20/59/20 7/31/7
f 65/111/65 66/108/66 72/96/72
f 58/37/58 19/60/19 6/32/6
f 8/36/8 73/117/73 23/54/23
f 23/67/23 14/55/14 22/66/22
f 35/102/35 32/94/32 52/15/52
f 24/73/24 40/7/40 45/10/45
f 41/20/41 74/116/74 27/90/27
f 37/121/37 4/63/4 36/119/36
f 38/120/38 71/126/71 59/57/59
f 43/8/43 44/2/44 58/72/58
f 22/66/22 14/55/14 65/53/65
f 52/15/52 32/94/32 54/17/54
f 65/107/65 67/106/67 66/105/66
f 65/53/65 21/65/21 67/64/67
f 12/51/12 73/117/73 8/36/8
f 8/47/8 9/48/9 12/41/12
f 24/73/24 23/67/23 40/7/40
f 8/36/8 23/54/23 68/103/68
f 30/76/30 33/90/33 34/116/34
f 68/115/68 22/66/22 65/53/65
f 1/35/1 68/104/68 65/111/65
f 35/75/35 33/90/33 29/81/29
f 25/89/25 26/75/26 17/80/17
f 17/80/17 18/81/18 16/77/16
f 35/75/35 29/81/29 31/80/31
f 4/63/4 64/30/64 36/119/36
f 14/55/14 21/65/21 65/53/65
f 15/76/15 27/90/27 74/116/74
f 31/80/31 29/81/29 28/77/28
f 29/81/29 33/90/33 30/76/30
f 64/30/64 50/52/50 36/119/36
f 28/77/28 29/81/29 30/76/30
f 28/77/28 30/76/30 34/116/34
f 67/64/67 13/74/13 2/72/2
f 18/81/18 27/90/27 15/76/15
f 32/89/32 35/75/35 31/80/31
f 38/118/38 59/57/59 35/93/35
f 35/93/35 59/57/59 33/98/33
