# fff002f9_00153_00479d2f
o fff002f9_00153_00479d2f
v -0.199661 -0.043949 0.202856
v -0.199661 -0.043949 0.262228
v -0.390700 -0.044071 0.262228
v -0.390700 -0.044071 0.202856
v 0.875045 0.026852 1.146095
v 0.938764 0.026852 1.225528
v 0.875045 0.026852 -1.456150
v 0.938764 0.026852 -1.535583
v -0.473934 0.026730 -1.456150
v -0.473934 0.026730 1.146095
v -0.560259 0.026730 1.225528
v -0.560259 0.026730 -1.535583
v 0.847163 -0.021122 1.126219
v -0.446053 -0.021244 1.126219
v -0.446053 -0.021244 -1.436274
v 0.847163 -0.021122 -1.436274
v -0.199661 0.032711 0.262228
v -0.390700 -0.009525 0.262228
v -0.390700 -0.009525 0.202856
v -0.199661 0.032711 0.202856
vt 0.832367 -576554.187500
vt 0.832367 -572048.000000
vt 0.832367 -330020.656250
vt 0.832367 -333441.093750
vt 0.832367 -333440.062500
vt 0.832367 2.499807
vt 0.832367 2.451498
vt 0.832367 -141962929766400.000000
vt 0.832367 7729764106240.000000
vt 0.832367 7729421221888.000000
vt 0.996507 2.279037
vt 0.996507 5.073792
vt 0.996507 5.073792
vt 0.832367 4.213737
vt 0.832367 4.198217
vt 0.832367 4.733162
vt 0.832367 1.970297
vt 0.832367 2.026212
vt 0.832367 1.286299
vt 0.996507 4.063308
vt 0.996507 4.063308
vt 0.996507 3.528366
vt 0.996507 -1.073175
vt 0.996507 -1.073175
vt 0.996507 -0.538223
vt 1.022135 0.901017
vt 1.022135 0.901017
vt 0.996507 4.344246
vt 0.996507 4.344246
vt 0.996507 3.673073
vt 0.996507 2.368946
vt 0.996507 2.368946
vt 0.996507 3.040123
vt 3.929752 18.513245
vt 7.906464 30.717798
vt 203.133331 -0.798742
vt -39.279640 -6.374900
vt 4.742653 36.732933
vt 7.905161 30.699301
vt 204.109955 -0.817237
vt 204.050812 -0.817237
vt 0.832367 1.905359
vt 0.832367 1.916560
vt 1.022135 0.793374
vt 1.022135 0.797823
vt 3.929550 18.513262
vt 0.996507 1.607826
vt 0.996507 1.607828
vt 0.996507 4.402649
vt 0.832367 -141962929766400.000000
vt 0.832367 5522908512256.000000
vt 0.832367 5524987838464.000000
vn 0.706963 0.000000 -0.707250
vn 0.706963 0.000000 0.707250
vn -0.707251 0.000000 0.706963
vn -0.707251 0.000000 -0.706963
vn -0.179119 0.969358 -0.168111
vn -0.000046 1.000000 0.000037
vn -0.179123 0.969358 0.168107
vn -0.000051 1.000000 -0.000036
vn 0.179043 0.969357 0.168199
vn 0.179039 0.969357 -0.168204
vn -0.000043 1.000000 -0.000041
vn -0.000039 1.000000 0.000042
vn -0.396720 0.796198 -0.456818
vn 0.396653 0.796228 -0.456823
vn 0.396653 0.796228 0.456823
vn -0.396720 0.796197 0.456818
vn 0.515872 0.642383 0.566763
vn -0.629727 0.505709 0.589663
vn -0.629727 0.505709 -0.589664
vn 0.515872 0.642383 -0.566763
g fff002f9_00153_00479d2f_e13
f 13/25/13 14/24/14 10/23/10
f 10/22/10 5/21/5 13/20/13
g fff002f9_00153_00479d2f_e8
f 3/41/3 2/40/2 17/36/17
f 17/36/17 18/37/18 3/41/3
f 15/45/15 16/27/16 7/26/7
f 9/44/9 15/45/15 7/26/7
g fff002f9_00153_00479d2f_e10
f 9/49/9 10/13/10 14/12/14
f 14/11/14 15/47/15 9/48/9
f 5/33/5 7/32/7 16/31/16
f 16/30/16 13/29/13 5/28/5
f 4/34/4 3/41/3 18/37/18
f 18/37/18 19/38/19 4/34/4
f 2/40/2 1/35/1 20/39/20
f 20/39/20 17/36/17 2/40/2
f 1/35/1 4/34/4 19/38/19
f 19/38/19 20/39/20 1/35/1
g fff002f9_00153_00479d2f_e9
f 16/35/16 15/46/15 14/41/14
f 14/41/14 13/40/13 16/35/16
f 20/39/20 19/38/19 18/37/18
f 18/37/18 17/36/17 20/39/20
f 12/52/12 11/10/11 10/9/10
f 10/8/10 9/50/9 12/51/12
f 9/43/9 7/7/7 8/6/8
f 12/42/12 9/43/9 8/6/8
f 6/5/6 8/4/8 7/3/7
f 7/3/7 5/2/5 6/1/6
f 11/19/11 6/18/6 5/17/5
f 5/16/5 10/15/10 11/14/11
