# fff06058_00098_0023e844
o fff06058_00098_0023e844
v -1.557494 -0.289291 0.340413
v 1.099003 -0.289291 0.340413
v -1.557494 0.258316 0.340413
v 1.099003 0.258316 0.340413
v -1.557494 -0.289291 0.389657
v 1.099003 -0.289291 0.389657
v -1.557494 0.258316 0.389657
v 1.099003 0.258316 0.389657
v -1.515368 -0.258949 0.000385
v -1.448472 -0.258949 0.000385
v -1.515368 0.228059 0.000385
v -1.448472 0.228059 0.000385
v -1.502827 -0.212846 0.341641
v -1.461017 -0.212846 0.341641
v -1.502827 0.181942 0.341641
v -1.461017 0.181942 0.341641
v -1.481926 -0.216792 0.030358
v -1.481926 0.185890 0.030358
v -1.481926 -0.177598 0.311668
v -1.481926 0.146684 0.311668
v 0.973590 -0.258949 0.000385
v 1.040485 -0.258949 0.000385
v 0.973590 0.228059 0.000385
v 1.040485 0.228059 0.000385
v 0.986131 -0.212846 0.341641
v 1.027940 -0.212846 0.341641
v 0.986131 0.181942 0.341641
v 1.027940 0.181942 0.341641
v 1.007032 -0.216792 0.030358
v 1.007032 0.185890 0.030358
v 1.007032 -0.177598 0.311668
v 1.007032 0.146684 0.311668
vt -0.556524 0.262744
vt -0.556524 0.994325
vt 0.443476 0.994325
vt 0.443476 0.262743
vt -0.539536 0.051448
vt 0.460464 0.051448
vt 0.460464 0.058515
vt -0.539536 0.058515
vt 0.514262 0.075867
vt -0.485738 0.075867
vt -0.455911 0.188835
vt 0.275670 0.188835
vt 0.282737 0.188835
vt 0.275670 0.168521
vt -0.455911 0.168521
vt 0.282737 0.168521
vt 1.651791 1.688344
vt 1.651791 1.688344
vt 1.672635 1.688344
vt 1.672635 1.688344
vt 1.655698 1.794675
vt 1.668726 1.794675
vt 1.668726 1.794675
vt 1.655698 1.794675
vt 1.662211 1.697683
vt 1.662211 1.697683
vt 1.653261 1.688344
vt 1.653261 1.688344
vt 1.674105 1.688344
vt 1.674105 1.688344
vt 1.657169 1.794675
vt 1.670196 1.794675
vt 1.670196 1.794675
vt 1.657169 1.794675
vt 1.663681 1.697683
vt 1.663681 1.697683
vt 1.193868 1.147522
vt 1.193868 1.147522
vt 1.193868 1.346213
vt 1.204710 1.162408
vt 1.204710 1.331323
vt 1.193868 1.346213
vt 1.317315 1.128051
vt 1.306473 1.145855
vt 1.317315 1.128051
vt 1.317315 1.365689
vt 1.306473 1.347880
vt 1.317315 1.365689
vt 1.204710 1.162408
vt 1.204710 1.331323
vt 1.193868 1.346213
vt 1.193868 1.147522
vt 1.193868 1.147522
vt 1.193868 1.346213
vt 1.317315 1.128051
vt 1.306473 1.145855
vt 1.317315 1.128051
vt 1.317315 1.365689
vt 1.306473 1.347880
vt 1.317315 1.365689
vt 1.700849 1.267847
vt 1.712004 1.277187
vt 1.723163 1.267847
vn -0.707107 -0.707107 0.000000
vn 0.707107 -0.707107 0.000000
vn -0.707107 0.707107 0.000000
vn 0.707107 0.707107 0.000000
vn -0.577350 -0.577350 0.577350
vn 0.577350 -0.577350 0.577350
vn -0.577350 0.577350 0.577350
vn 0.577350 0.577350 0.577350
vn -0.730118 -0.535095 0.424972
vn 0.726501 -0.529279 0.438247
vn -0.726515 0.529375 0.438108
vn 0.730102 0.535062 0.425040
vn -0.689687 -0.461885 0.557669
vn 0.694892 -0.463733 0.549615
vn -0.694851 0.463744 0.549657
vn 0.689705 0.461849 0.557676
vn 0.011683 0.669996 0.742272
vn -0.011981 -0.669917 0.742339
vn 0.010087 0.572434 -0.819889
vn -0.010325 -0.572312 -0.819971
vn -0.730118 -0.535095 0.424972
vn 0.726501 -0.529279 0.438247
vn -0.726515 0.529375 0.438108
vn 0.730103 0.535062 0.425039
vn -0.689687 -0.461885 0.557669
vn 0.694892 -0.463733 0.549615
vn -0.694852 0.463743 0.549657
vn 0.689704 0.461850 0.557677
vn 0.011683 0.669996 0.742272
vn -0.011981 -0.669917 0.742339
vn 0.010088 0.572434 -0.819889
vn -0.010325 -0.572312 -0.819971
g fff06058_00098_0023e844_e0
f 5/11/5 7/12/7 3/13/3
f 3/13/3 1/11/1 5/11/5
f 7/5/7 8/6/8 4/7/4
f 4/7/4 3/8/3 7/5/7
f 8/14/8 6/15/6 2/15/2
f 2/15/2 4/16/4 8/14/8
f 6/9/6 5/10/5 1/10/1
f 1/10/1 2/9/2 6/9/6
f 8/3/8 7/2/7 5/1/5
f 5/1/5 6/4/6 8/3/8
g fff06058_00098_0023e844_e1
f 32/50/32 30/59/30 24/60/24
f 24/60/24 28/51/28 32/50/32
f 13/37/13 14/38/14 16/39/16
f 16/23/16 15/24/15 13/21/13
f 9/17/9 10/20/10 14/22/14
f 14/22/14 13/21/13 9/17/9
f 19/40/19 20/41/20 16/39/16
f 16/39/16 14/38/14 19/40/19
f 12/19/12 11/18/11 15/24/15
f 15/24/15 16/23/16 12/19/12
f 20/41/20 19/40/19 13/37/13
f 13/37/13 15/42/15 20/41/20
f 11/61/11 9/61/9 17/62/17
f 17/62/17 18/62/18 11/61/11
f 9/43/9 13/37/13 19/40/19
f 19/40/19 17/44/17 9/43/9
f 10/20/10 12/19/12 18/26/18
f 18/26/18 17/25/17 10/20/10
f 14/38/14 10/45/10 17/44/17
f 17/44/17 19/40/19 14/38/14
f 15/42/15 11/46/11 18/47/18
f 18/47/18 20/41/20 15/42/15
f 12/48/12 16/39/16 20/41/20
f 20/41/20 18/47/18 12/48/12
f 30/59/30 32/50/32 27/54/27
f 27/54/27 23/58/23 30/59/30
f 25/31/25 26/32/26 28/33/28
f 28/33/28 27/34/27 25/31/25
f 21/27/21 22/30/22 26/32/26
f 26/32/26 25/31/25 21/27/21
f 31/49/31 32/50/32 28/51/28
f 28/51/28 26/52/26 31/49/31
f 24/29/24 23/28/23 27/34/27
f 27/34/27 28/33/28 24/29/24
f 32/50/32 31/49/31 25/53/25
f 25/53/25 27/54/27 32/50/32
f 23/28/23 21/27/21 29/35/29
f 29/35/29 30/36/30 23/28/23
f 21/55/21 25/53/25 31/49/31
f 31/49/31 29/56/29 21/55/21
f 22/63/22 24/63/24 30/62/30
f 30/62/30 29/62/29 22/63/22
f 26/52/26 22/57/22 29/56/29
f 29/56/29 31/49/31 26/52/26
