# fff002f9_00173_004a40ef
o fff002f9_00173_004a40ef
v 2.224130 1.127326 0.209128
v 0.421454 1.127311 0.209128
v 2.224130 -0.890654 0.208316
v 0.421448 -0.890686 -0.621246
v 0.421448 -0.890686 0.209941
v 0.421447 1.127289 -0.621246
v 2.224130 0.762671 0.209128
v 0.791203 0.762659 0.209128
v 2.224130 -0.561552 0.208316
v 0.791199 -0.502375 0.209941
v 2.224130 0.744629 0.135833
v 0.852577 0.744618 0.135833
v 2.224130 -0.520439 0.135020
v 0.852573 -0.461260 0.136645
v 0.421448 -0.890686 0.176916
v 0.421447 1.127291 0.177116
v 2.224130 1.127327 -0.621246
v 0.421454 1.127312 -0.621246
v 2.224130 1.127326 0.176100
v 0.421454 1.127311 0.176100
vt -0.471070 2.038232
vt 0.762377 1.838863
vt 0.790978 1.910040
vt 0.649279 1.909765
vt 0.633468 1.839731
vt -1.925446 -2.841797
vt 0.990241 3.619497
vt -0.659279 1.759895
vt -0.509356 1.943703
vt -1.870275 -2.659520
vt -1.885978 -2.716589
vt -0.426185 2.001564
vt -0.510397 1.945235
vt 1.245220 5.098547
vt 1.245220 5.458491
vt 0.804532 5.458482
vt 0.804524 5.098547
vt 0.999986 1.000017
vt 1.999985 1.000033
vt 1.999985 1.163115
vt 1.205097 1.192440
vt 1.999985 2.000017
vt 0.999989 2.000009
vt 1.205099 1.819311
vt 1.999985 1.819317
vt 1.318790 0.999987
vt 1.318790 1.999987
vt 1.799303 0.999987
vt 1.799303 1.999987
vn -0.000006 0.707109 0.707105
vn -0.577145 0.577475 0.577431
vn 0.000901 0.000000 1.000000
vn -1.000000 -0.000000 -0.000000
vn -0.706902 -0.000154 0.707311
vn -1.000000 -0.000000 0.000000
vn 0.000005 -0.616838 0.787090
vn 0.178031 -0.144045 0.973425
vn 0.021323 0.495327 0.868445
vn 0.154045 0.136317 0.978615
vn 0.000005 -0.617097 0.786887
vn 0.326176 -0.529244 0.783269
vn 0.021942 0.514807 0.857025
vn 0.340478 0.398521 0.851619
vn -1.000000 0.000001 0.000001
vn -1.000000 -0.000000 0.000104
vn -0.000008 1.000000 0.000002
vn -0.000008 1.000000 0.000002
vn -0.000008 1.000000 0.000001
vn -0.000008 1.000000 0.000001
g fff002f9_00173_004a40ef_e8
f 12/11/12 11/10/11 7/6/7
f 5/18/5 3/19/3 9/20/9
f 13/12/13 14/13/14 10/9/10
f 10/9/10 9/7/9 13/12/13
f 7/6/7 8/8/8 12/11/12
f 9/20/9 10/21/10 5/18/5
f 17/29/17 18/28/18 19/27/19
f 15/3/15 16/4/16 6/5/6
f 20/26/20 19/27/19 18/28/18
f 15/3/15 6/5/6 4/2/4
f 10/21/10 8/24/8 2/23/2
f 16/1/16 15/1/15 2/1/2
f 2/23/2 5/18/5 10/21/10
f 5/1/5 2/1/2 15/1/15
f 14/13/14 12/11/12 8/8/8
f 8/8/8 10/9/10 14/13/14
f 1/22/1 2/23/2 8/24/8
f 8/24/8 7/25/7 1/22/1
f 19/1/19 2/1/2 1/1/1
f 2/1/2 19/1/19 20/1/20
g fff002f9_00173_004a40ef_e0
f 13/14/13 11/15/11 12/16/12
f 14/17/14 13/14/13 12/16/12
