# fff08519_00031_000b0318
o fff08519_00031_000b0318
v 0.696566 0.000000 -0.070643
v 0.627584 0.302229 -0.070643
v 0.434302 0.544597 -0.070643
v 0.155001 0.679102 -0.070643
v -0.155000 0.679102 -0.070643
v -0.434302 0.544597 -0.070643
v -0.627584 0.302229 -0.070643
v -0.696566 0.000000 -0.070643
v -0.627584 -0.302228 -0.070643
v -0.434302 -0.544597 -0.070643
v -0.155000 -0.679101 -0.070643
v 0.155001 -0.679101 -0.070643
v 0.434302 -0.544597 -0.070643
v 0.627584 -0.302228 -0.070643
v 0.734554 0.000000 0.150301
v 0.661810 0.318711 0.150301
v 0.457987 0.574297 0.150301
v 0.163453 0.716137 0.150301
v -0.163454 0.716137 0.150301
v -0.457987 0.574297 0.150301
v -0.661810 0.318711 0.150301
v -0.734554 0.000000 0.150301
v -0.661810 -0.318711 0.150301
v -0.457987 -0.574297 0.150301
v -0.163454 -0.716137 0.150301
v 0.163454 -0.716137 0.150301
v 0.457987 -0.574297 0.150301
v 0.661810 -0.318710 0.150301
v 0.696566 0.000000 0.371245
v 0.627584 0.302229 0.371245
v 0.434302 0.544597 0.371245
v 0.155001 0.679102 0.371245
v -0.155000 0.679102 0.371245
v -0.434302 0.544597 0.371245
v -0.627584 0.302229 0.371245
v -0.696566 0.000000 0.371245
v -0.627584 -0.302228 0.371245
v -0.434302 -0.544597 0.371245
v -0.155000 -0.679101 0.371245
v 0.155001 -0.679101 0.371245
v 0.434302 -0.544597 0.371245
v 0.627584 -0.302228 0.371245
v 0.372430 -0.000005 0.004361
v 0.335548 0.161583 0.004361
v 0.232209 0.291166 0.004361
v 0.082879 0.363080 0.004361
v -0.082864 0.363080 0.004361
v -0.232193 0.291166 0.004361
v -0.335533 0.161583 0.004361
v -0.372414 -0.000005 0.004361
v -0.335533 -0.161592 0.004361
v -0.232193 -0.291176 0.004361
v -0.082864 -0.363089 0.004361
v 0.082880 -0.363089 0.004361
v 0.232209 -0.291176 0.004361
v 0.335548 -0.161592 0.004361
v 0.398038 0.000000 0.371245
v 0.358620 0.172702 0.371245
v 0.248173 0.311198 0.371245
v 0.088572 0.388058 0.371245
v -0.088572 0.388058 0.371245
v -0.248172 0.311198 0.371245
v -0.358619 0.172702 0.371245
v -0.398038 0.000000 0.371245
v -0.358619 -0.172702 0.371245
v -0.248172 -0.311198 0.371245
v -0.088572 -0.388058 0.371245
v 0.088572 -0.388058 0.371245
v 0.248173 -0.311198 0.371245
v 0.358620 -0.172702 0.371245
v -0.082008 -0.359319 0.299469
v -0.229780 -0.288140 0.299469
v 0.082014 -0.359312 0.299469
v 0.229807 -0.288164 0.299469
v 0.332084 -0.159922 0.299469
v 0.368569 -0.000000 0.299469
v 0.332055 0.159907 0.299469
v 0.229845 0.288212 0.299469
v 0.082030 0.359378 0.299469
v -0.081992 0.359246 0.299469
v -0.229753 0.288105 0.299469
v -0.331856 0.159815 0.299469
v -0.368406 -0.000000 0.299469
v -0.331930 -0.159851 0.299469
v 0.506507 0.115588 0.309812
v 0.332302 0.416530 0.309812
v 0.118688 0.519401 0.309812
v -0.225213 0.467966 0.309812
v -0.506224 0.115588 0.309812
v -0.405933 -0.323819 0.309812
v 0.000141 -0.519374 0.309812
v 0.406215 -0.323819 0.309812
v -2.981005 1.460010 -0.589408
v -2.908762 1.757337 -0.639185
v -2.887436 2.014635 -0.810776
v -2.921253 2.180941 -1.070198
v -3.003513 2.223318 -1.366066
v -3.117924 2.133371 -1.639782
v -3.241822 1.928917 -1.837131
v -3.350675 1.650447 -1.919029
v -3.422918 1.353120 -1.869252
v -3.444243 1.095822 -1.697661
v -3.410429 0.929515 -1.438240
v -3.328169 0.887138 -1.142371
v -3.213758 0.977086 -0.868655
v -3.089857 1.181540 -0.671305
v -3.173402 1.514878 -0.488255
v -3.097219 1.828421 -0.540747
v -3.074732 2.099750 -0.721695
v -3.110391 2.275126 -0.995264
v -3.197137 2.319814 -1.307268
v -3.317787 2.224962 -1.595911
v -3.448446 2.009356 -1.804026
v -3.563233 1.715702 -1.890389
v -3.639416 1.402158 -1.837897
v -3.661905 1.130829 -1.656948
v -3.626245 0.955452 -1.383379
v -3.539498 0.910765 -1.071374
v -3.418849 1.005618 -0.782732
v -3.288190 1.221223 -0.574619
v -3.385960 1.580131 -0.459614
v -3.313719 1.877459 -0.509391
v -3.292392 2.134757 -0.680983
v -3.326207 2.301065 -0.940404
v -3.408470 2.343441 -1.236272
v -3.522878 2.253494 -1.509988
v -3.646780 2.049039 -1.707338
v -3.755630 1.770571 -1.789235
v -3.827873 1.473241 -1.739458
v -3.849198 1.215944 -1.567867
v -3.815384 1.049637 -1.308446
v -3.733122 1.007261 -1.012578
v -3.618712 1.097208 -0.738861
v -3.494812 1.301663 -0.541512
v -3.135752 1.524703 -0.876738
v -3.097127 1.683671 -0.903351
v -3.085726 1.821236 -0.995093
v -3.103804 1.910151 -1.133793
v -3.147784 1.932810 -1.291981
v -3.208956 1.884719 -1.438324
v -3.275200 1.775406 -1.543839
v -3.333398 1.626520 -1.587624
v -3.372023 1.467553 -1.561012
v -3.383423 1.329988 -1.469269
v -3.365344 1.241071 -1.330569
v -3.321363 1.218414 -1.172382
v -3.260195 1.266506 -1.026039
v -3.193950 1.375818 -0.920524
v -3.465177 1.620941 -0.744533
v -3.423893 1.790842 -0.772977
v -3.411709 1.937870 -0.871029
v -3.431032 2.032901 -1.019269
v -3.478035 2.057116 -1.188336
v -3.543414 2.005718 -1.344746
v -3.614217 1.888885 -1.457518
v -3.676415 1.729761 -1.504316
v -3.717699 1.559860 -1.475873
v -3.729884 1.412832 -1.377821
v -3.710558 1.317801 -1.229580
v -3.663555 1.293584 -1.060511
v -3.598178 1.344983 -0.904101
v -3.527376 1.461814 -0.791330
v -3.634429 1.324768 -1.242872
v -3.652318 1.412772 -1.380124
v -3.590904 1.302353 -1.086325
v -3.530372 1.349924 -0.941490
v -3.464809 1.458105 -0.837060
v -3.407217 1.605456 -0.793741
v -3.368997 1.762774 -0.820092
v -3.357679 1.898966 -0.910824
v -3.375582 1.986965 -1.048120
v -3.419145 2.009259 -1.204671
v -3.479667 1.961689 -1.349476
v -3.545199 1.853440 -1.453743
v -3.602776 1.706198 -1.497118
v -3.640988 1.548942 -1.470800
v -3.345464 1.699521 -0.652911
v -3.301527 2.010005 -0.803181
v -3.327391 2.137199 -1.001591
v -3.434056 2.135213 -1.332547
v -3.614195 1.837959 -1.619475
v -3.719229 1.405677 -1.547104
v -3.670064 1.163884 -1.169935
v -3.503722 1.294658 -0.771980
vt 1.169864 0.629956
vt -0.600823 3.137895
vt -0.600823 -1.177087
vt 1.169864 1.556875
vt -0.600823 2.802988
vt 1.169864 1.484932
vt -0.600823 2.475049
vt 1.169864 1.414486
vt -0.600823 2.150579
vt 1.169864 1.344785
vt -0.600823 1.823671
vt 1.169864 1.274561
vt -0.600823 1.490098
vt 1.169864 1.202905
vt -0.600823 1.150506
vt 1.169864 1.129956
vt -0.600823 0.810300
vt 1.169864 1.056875
vt -0.600823 0.475392
vt 1.169864 0.984932
vt -0.600823 0.147454
vt 1.169864 0.914486
vt -0.600823 -0.177017
vt 1.169864 0.844785
vt -0.600823 -0.503923
vt 1.169864 0.774561
vt -0.600823 -0.837494
vt 1.169864 0.702905
vt -0.014511 3.260618
vt -0.014511 -1.054362
vt -0.014511 2.925711
vt -0.014511 2.597773
vt -0.014511 2.273303
vt -0.014511 1.946396
vt -0.014511 1.612823
vt -0.014511 1.273231
vt -0.014511 0.933027
vt -0.014511 0.598118
vt -0.014511 0.270180
vt -0.014511 -0.054291
vt -0.014511 -0.381197
vt -0.014511 -0.714768
vt -0.600823 3.137895
vt -0.600823 -1.177087
vt -0.600823 2.802988
vt -0.600823 2.475049
vt -0.600823 2.150579
vt -0.600823 1.823671
vt -0.600823 1.490098
vt -0.600823 1.150506
vt -0.600823 0.810300
vt -0.600823 0.475392
vt -0.600823 0.147454
vt -0.600823 -0.177017
vt -0.600823 -0.503923
vt -0.834203 -0.837494
vt 1.075144 0.629956
vt 1.075144 1.556875
vt 1.075144 1.484932
vt 1.075144 1.414487
vt 1.075144 1.344786
vt 1.075144 1.274561
vt 1.075144 1.202905
vt 1.075144 1.129956
vt 1.075144 1.056875
vt 1.075144 0.984932
vt 1.075144 0.914486
vt 1.075144 0.844785
vt 1.075144 0.774561
vt 1.075144 0.702905
vt 1.075144 0.629956
vt 1.075144 1.556875
vt 1.075144 1.484932
vt 1.075144 1.414487
vt 1.075144 1.344785
vt 1.075144 1.274561
vt 1.075144 1.202905
vt 1.075144 1.129956
vt 1.075144 1.056875
vt 1.075144 0.984932
vt 1.075144 0.914486
vt 1.075144 0.844786
vt 1.075144 0.774561
vt 1.075144 0.702905
vt 1.169864 0.629956
vt 1.169864 1.556876
vt 1.169864 1.129956
vt 1.169864 1.484934
vt 1.169864 1.202906
vt 1.169864 1.414488
vt 1.169864 1.344787
vt 1.169864 1.274562
vt 1.169864 1.056874
vt 1.169864 0.984931
vt 1.169864 0.914485
vt 1.169864 0.702905
vt 1.169864 0.844784
vt 1.169864 0.774560
vt -0.600823 -1.517291
vt 1.169864 0.556875
vt -0.014511 -1.394567
vt -0.600823 -1.517291
vt 1.075144 0.556875
vt 1.075144 0.556875
vt 1.169864 0.556876
vt -0.912819 -1.183801
vt -0.912819 -1.524006
vt -0.912819 3.131180
vt -0.912819 2.796273
vt -0.912819 2.468335
vt -0.912819 2.143864
vt -0.912819 1.816956
vt -0.912819 1.483384
vt -0.912819 1.143791
vt -0.912819 0.803585
vt -0.912819 0.468677
vt -0.912819 0.140739
vt -0.912819 -0.183732
vt -0.912819 -0.510639
vt -0.912819 -0.844209
vt 1.075779 0.627252
vt 1.075779 0.554170
vt 1.074367 0.698415
vt 1.076370 1.556524
vt 1.076370 1.484581
vt 1.076022 1.416492
vt 1.074804 1.348719
vt 1.072957 1.279721
vt 1.070847 1.208366
vt 1.068892 1.134633
vt 1.067479 1.059766
vt 1.066889 0.985467
vt 1.067239 0.912661
vt 1.068457 0.841030
vt 1.070304 0.769581
vt -0.834203 -1.517291
vt -0.834203 -1.177087
vt -0.834203 2.802988
vt -0.834203 3.137895
vt -0.834203 2.475049
vt -0.834203 2.150579
vt -0.834203 1.823671
vt -0.834203 1.490098
vt -0.834203 1.150506
vt -0.834203 0.810300
vt -0.834203 0.475392
vt -0.834203 0.147454
vt -0.834203 -0.177017
vt -0.834203 -0.503923
vt -0.600823 -1.177087
vt -0.600823 -1.177087
vt -0.600823 3.137895
vt -0.600823 2.802988
vt -0.600823 2.802988
vt -0.600823 2.475049
vt -0.600823 2.475049
vt -0.600823 2.150579
vt -0.600823 2.150579
vt -0.600823 1.823671
vt -0.600823 1.823671
vt -0.600823 1.490098
vt -0.600823 1.490098
vt -0.600823 1.150506
vt -0.600823 1.150506
vt -0.600823 0.810300
vt -0.600823 0.810300
vt -0.600823 0.475392
vt -0.600823 0.475392
vt -0.600823 0.147454
vt -0.600823 0.147454
vt -0.600823 -0.177017
vt -0.600823 -0.177017
vt -0.600823 -0.503923
vt -0.600823 -0.503923
vt -0.600823 -0.837494
vt -0.600823 -0.837494
vt -0.600823 1.490098
vt -0.600823 -1.177087
vt -0.600823 -1.177087
vt -0.600823 -0.837494
vt -0.600823 -0.837494
vt -0.600823 -0.837494
vt -0.600823 -0.503923
vt -0.600823 -0.503923
vt -0.600823 -1.517291
vt -0.600823 2.802988
vt -0.600823 2.802988
vt -0.600823 2.475049
vt -0.600823 2.475049
vt -0.600823 2.150579
vt -0.600823 2.150579
vt -0.600823 1.823671
vt -0.600823 1.823671
vt -0.600823 1.490098
vt -0.600823 1.150506
vt -0.600823 1.150506
vt -0.600823 0.810300
vt -0.600823 0.810300
vt -0.600823 0.475392
vt -0.600823 0.475392
vt -0.600823 0.147454
vt -0.600823 0.147454
vt -0.600823 -0.177017
vt -0.600823 -0.177017
vt -0.912819 -1.183801
vt -0.834203 -1.517291
vt -0.834203 -1.177087
vt -0.912819 -1.524006
vt -0.912819 3.131180
vt -0.834203 2.802988
vt -0.834203 3.137895
vt -0.912819 2.796273
vt -0.834203 2.475049
vt -0.912819 2.468335
vt -0.834203 2.150579
vt -0.912819 2.143864
vt -0.834203 1.823671
vt -0.912819 1.816956
vt -0.834203 1.490098
vt -0.912819 1.483384
vt -0.834203 1.150506
vt -0.912819 1.143791
vt -0.834203 0.810300
vt -0.912819 0.803585
vt -0.834203 0.475392
vt -0.912819 0.468677
vt -0.834203 0.147454
vt -0.912819 0.140739
vt -0.834203 -0.177017
vt -0.912819 -0.183732
vt -0.834203 -0.503923
vt -0.912819 -0.510639
vt -0.834203 -0.837494
vt -0.912819 -0.844209
vt -0.600823 -1.177087
vt -0.014511 -1.394567
vt -0.014511 -1.054362
vt -0.600823 -1.177087
vt -0.600823 -1.517291
vt -0.600823 3.137895
vt -0.014511 2.925711
vt -0.014511 3.260618
vt -0.600823 3.137895
vt -0.600823 2.802988
vt -0.600823 2.802988
vt -0.014511 2.597773
vt -0.600823 2.802988
vt -0.600823 2.475049
vt -0.600823 2.475049
vt -0.014511 2.273303
vt -0.600823 2.475049
vt -0.600823 2.150579
vt -0.600823 2.150579
vt -0.014511 1.946396
vt -0.600823 2.150579
vt -0.600823 1.823671
vt -0.600823 1.823671
vt -0.014511 1.612823
vt -0.600823 1.823671
vt -0.600823 1.490098
vt -0.600823 1.490098
vt -0.014511 1.273231
vt -0.600823 1.490098
vt -0.600823 1.150506
vt -0.600823 1.150506
vt -0.014511 0.933027
vt -0.600823 1.150506
vt -0.600823 0.810300
vt -0.600823 0.810300
vt -0.014511 0.598118
vt -0.600823 0.810300
vt -0.600823 0.475392
vt -0.600823 0.475392
vt -0.014511 0.270180
vt -0.600823 0.475392
vt -0.600823 0.147454
vt -0.600823 0.147454
vt -0.014511 -0.054291
vt -0.600823 0.147454
vt -0.600823 -0.177017
vt -0.600823 -0.177017
vt -0.014511 -0.381197
vt -0.600823 -0.177017
vt -0.600823 -0.503923
vt -0.600823 -0.503923
vt -0.014511 -0.714768
vt -0.600823 -0.503923
vt -0.600823 -0.837494
vt -0.600823 -0.837494
vt -0.600823 -0.837494
vt -0.600823 -1.177087
vt 1.067239 0.912661
vt 1.075144 0.984932
vt 1.066889 0.985467
vt 1.075144 0.914486
vt 1.075144 0.844786
vt 1.070304 0.769581
vt 1.075144 0.774561
vt 1.075144 1.056875
vt 1.067479 1.059766
vt 1.075144 1.129956
vt 1.068892 1.134633
vt 1.068457 0.841030
vt 1.075144 1.202905
vt 1.070847 1.208366
vt 1.075144 1.274561
vt 1.072957 1.279721
vt -0.600823 1.490098
vt 1.075144 1.344785
vt 1.074804 1.348719
vt 1.075144 1.414487
vt 1.076022 1.416492
vt 1.075144 1.484932
vt 1.076370 1.484581
vt 1.075144 1.556875
vt 1.076370 1.556524
vt 1.074367 0.698415
vt 1.075779 0.627252
vt 1.075144 0.629956
vt 1.075144 0.702905
vt 1.075779 0.554170
vt 1.075144 0.556875
vt -0.600823 -1.177087
vt -0.600823 -1.177087
vt -0.600823 -0.837494
vt -0.600823 -0.837494
vt -0.600823 -0.837494
vt -0.600823 -0.503923
vt -0.600823 -0.503923
vt 1.169864 0.629956
vt 1.169864 0.556875
vt 1.169864 1.556875
vt 1.169864 1.484932
vt 1.169864 1.414486
vt 1.169864 1.344785
vt 1.169864 1.274561
vt 1.169864 1.202905
vt 1.169864 1.129956
vt 1.169864 1.056875
vt 1.169864 0.984932
vt 1.169864 0.914486
vt 1.169864 0.844785
vt 1.169864 0.774561
vt 1.169864 0.702905
vt 1.169864 0.629956
vt 1.075144 0.556875
vt 1.169864 0.556876
vt 1.075144 1.129956
vt 1.075144 1.056875
vt 1.169864 1.129956
vt 1.169864 1.556876
vt 1.075144 1.484932
vt 1.169864 1.484934
vt 1.075144 1.202905
vt 1.169864 1.202906
vt 1.075144 1.414487
vt 1.169864 1.414488
vt 1.169864 1.344787
vt 1.075144 1.274561
vt 1.169864 1.274562
vt 1.075144 1.344786
vt 1.075144 0.984932
vt 1.169864 1.056874
vt 1.075144 1.556875
vt 1.169864 0.984931
vt 1.075144 0.629956
vt 1.075144 0.914486
vt 1.169864 0.914485
vt 1.075144 0.702905
vt 1.169864 0.702905
vt 1.075144 0.844785
vt 1.169864 0.844784
vt 1.075144 0.774561
vt 1.169864 0.774560
vt -0.600823 -1.517291
vt -0.600823 -1.177087
vt -0.600823 -1.517291
vt -0.600823 2.802988
vt -0.600823 3.137895
vt -0.600823 2.802988
vt -0.600823 2.475049
vt -0.600823 2.802988
vt -0.600823 2.475049
vt -0.600823 2.150579
vt -0.600823 2.475049
vt -0.600823 2.150579
vt -0.600823 1.823671
vt -0.600823 2.150579
vt -0.600823 1.823671
vt -0.600823 1.490098
vt -0.600823 1.823671
vt -0.600823 1.150506
vt -0.600823 1.490098
vt -0.600823 1.150506
vt -0.600823 0.810300
vt -0.600823 1.150506
vt -0.600823 0.810300
vt -0.600823 0.475392
vt -0.600823 0.810300
vt -0.600823 0.475392
vt -0.600823 0.147454
vt -0.600823 0.475392
vt -0.600823 0.147454
vt -0.600823 -0.177017
vt -0.600823 0.147454
vt -0.600823 -0.177017
vt -0.600823 -0.503923
vt -0.600823 -0.177017
vn 0.985539 0.000000 -0.169447
vn 0.887940 0.427609 -0.169447
vn 0.614474 0.770526 -0.169447
vn 0.219303 0.960830 -0.169447
vn -0.219303 0.960830 -0.169447
vn -0.614474 0.770526 -0.169448
vn -0.887940 0.427610 -0.169448
vn -0.985539 0.000000 -0.169448
vn -0.887940 -0.427609 -0.169448
vn -0.614474 -0.770526 -0.169448
vn -0.219303 -0.960830 -0.169448
vn 0.219303 -0.960830 -0.169447
vn 0.614474 -0.770525 -0.169447
vn 0.887940 -0.427609 -0.169447
vn 1.000000 0.000000 0.000000
vn 0.900969 0.433884 0.000000
vn 0.623490 0.781832 -0.000000
vn 0.222521 0.974928 -0.000000
vn -0.222521 0.974928 0.000000
vn -0.623490 0.781832 0.000000
vn -0.900969 0.433884 0.000000
vn -1.000000 0.000000 0.000000
vn -0.900969 -0.433884 -0.000000
vn -0.623490 -0.781831 0.000000
vn -0.222521 -0.974928 0.000000
vn 0.222521 -0.974928 -0.000000
vn 0.623490 -0.781831 -0.000000
vn 0.900969 -0.433883 0.000000
vn 0.692250 0.000000 0.721658
vn 0.623695 0.300356 0.721658
vn 0.431611 0.541222 0.721658
vn 0.154040 0.674893 0.721658
vn -0.154040 0.674893 0.721659
vn -0.431610 0.541222 0.721659
vn -0.623695 0.300356 0.721659
vn -0.692249 0.000000 0.721659
vn -0.623695 -0.300356 0.721659
vn -0.431610 -0.541222 0.721659
vn -0.154040 -0.674893 0.721659
vn 0.154040 -0.674893 0.721658
vn 0.431611 -0.541222 0.721658
vn 0.623695 -0.300356 0.721658
vn -0.921119 0.047405 0.386383
vn -0.807626 -0.391973 0.440564
vn -0.551964 -0.692201 0.464967
vn -0.162894 -0.886464 0.433183
vn 0.158829 -0.908702 0.386050
vn 0.611554 -0.690747 0.385837
vn 0.809569 -0.442466 0.385775
vn 0.921406 0.047426 0.385696
vn 0.850736 0.357044 0.385704
vn 0.537413 0.749888 0.385817
vn 0.251285 0.887663 0.385889
vn -0.251164 0.887602 0.386109
vn -0.537262 0.749804 0.386191
vn -0.850467 0.356985 0.386352
vn -0.497195 -0.000016 0.867639
vn -0.447877 -0.215706 0.867685
vn -0.310224 -0.388874 0.867490
vn -0.110674 -0.484979 0.867494
vn 0.110698 -0.484388 0.867821
vn 0.309759 -0.388447 0.867847
vn 0.447108 -0.215136 0.868223
vn 0.496349 -0.000073 0.868123
vn 0.447282 0.215388 0.868070
vn 0.309951 0.388463 0.867772
vn 0.110637 0.484655 0.867680
vn -0.110622 0.484648 0.867686
vn -0.309986 0.388751 0.867630
vn -0.448009 0.215757 0.867604
vn 0.205865 0.901818 0.379926
vn 0.576991 0.722930 0.380070
vn -0.205844 0.901818 0.379938
vn -0.576746 0.723327 0.379688
vn -0.833512 0.401401 0.379650
vn -0.925058 -0.000057 0.379827
vn -0.833448 -0.401345 0.379851
vn -0.577159 -0.723331 0.379051
vn -0.205747 -0.902053 0.379431
vn 0.206131 -0.901425 0.380712
vn 0.576559 -0.722873 0.380833
vn 0.832719 -0.400548 0.382283
vn 0.924337 -0.000218 0.381578
vn 0.832951 0.401004 0.381297
vn -0.908192 -0.152637 0.389729
vn -0.592851 -0.671927 0.443894
vn -0.137596 -0.875094 0.463980
vn 0.430592 -0.806640 0.404873
vn 0.904032 -0.206371 0.374350
vn 0.724947 0.578182 0.374376
vn -0.000085 0.927175 0.374629
vn -0.724842 0.577963 0.374917
vn 0.416804 -0.180783 0.890838
vn 0.519018 0.239891 0.820410
vn 0.549187 0.603930 0.577636
vn 0.501343 0.839230 0.210590
vn 0.384958 0.899186 -0.208019
vn 0.223083 0.771924 -0.595287
vn 0.047785 0.482651 -0.874509
vn -0.106227 0.088657 -0.990382
vn -0.208441 -0.332017 -0.919955
vn -0.238613 -0.696055 -0.677179
vn -0.190771 -0.931355 -0.310136
vn -0.074387 -0.991312 0.108478
vn 0.087487 -0.864049 0.495746
vn 0.262788 -0.574778 0.774966
vn 0.265354 -0.136698 0.954411
vn 0.369067 0.290151 0.882951
vn 0.399679 0.659529 0.636614
vn 0.351136 0.898282 0.264183
vn 0.233041 0.959119 -0.160568
vn 0.068793 0.829991 -0.553519
vn -0.109084 0.536471 -0.836839
vn -0.265353 0.136696 -0.954412
vn -0.369067 -0.290150 -0.882951
vn -0.399681 -0.659529 -0.636613
vn -0.351134 -0.898283 -0.264183
vn -0.233040 -0.959119 0.160572
vn -0.068789 -0.829990 0.553520
vn 0.109083 -0.536472 0.836838
vn -0.477650 0.101544 0.872662
vn -0.405863 0.397033 0.823189
vn -0.384666 0.652734 0.652664
vn -0.418266 0.818014 0.394851
vn -0.500028 0.860121 0.100816
vn -0.613722 0.770736 -0.171207
vn -0.736857 0.567549 -0.367329
vn -0.845035 0.290801 -0.448721
vn -0.916829 -0.004680 -0.399253
vn -0.938022 -0.260383 -0.228727
vn -0.904416 -0.425658 0.029091
vn -0.822666 -0.467774 0.323123
vn -0.708961 -0.378389 0.595144
vn -0.585831 -0.175197 0.791270
vn -0.584312 0.276106 -0.763116
vn -0.735487 -0.143223 -0.662228
vn -0.779956 -0.457530 -0.427007
vn -0.705784 -0.704409 -0.075344
vn -0.583879 -0.782388 0.216688
vn -0.398257 -0.636708 0.660298
vn -0.271275 -0.427279 0.862463
vn -0.094754 0.024075 0.995210
vn -0.020751 0.328667 0.944218
vn 0.013699 0.745749 0.666086
vn -0.021016 0.916124 0.400344
vn -0.154563 0.984809 -0.079137
vn -0.271841 0.892675 -0.359490
vn -0.472785 0.561342 -0.679242
vn -0.927058 0.303806 -0.219692
vn -0.978634 0.091618 -0.184072
vn -0.993810 -0.092218 -0.061942
vn -0.969656 -0.211049 0.123396
vn -0.911039 -0.240649 0.334808
vn -0.829494 -0.176452 0.529909
vn -0.741470 -0.030036 0.670313
vn -0.663879 0.168066 0.728710
vn -0.612307 0.380011 0.693305
vn -0.596620 0.563565 0.571349
vn -0.620594 0.682425 0.386212
vn -0.679328 0.712655 0.175034
vn -0.760906 0.648543 -0.020349
vn -0.849332 0.502617 -0.161279
vn -0.023357 0.934194 0.355999
vn 0.021386 0.713097 0.700739
vn -0.132631 0.990477 -0.036939
vn -0.284296 0.871084 -0.400485
vn -0.448838 0.599506 -0.662674
vn -0.593549 0.229647 -0.771338
vn -0.689490 -0.165131 -0.705220
vn -0.717215 -0.507108 -0.477958
vn -0.672550 -0.728027 -0.132865
vn -0.564264 -0.783363 0.260668
vn -0.412580 -0.663887 0.623724
vn -0.249361 -0.391473 0.885758
vn -0.104473 -0.022835 0.994266
vn -0.008268 0.371778 0.928285
vn -0.643880 0.084694 -0.760424
vn -0.765421 -0.438355 -0.471143
vn -0.723890 -0.688663 -0.041541
vn -0.498442 -0.717196 0.487017
vn -0.165007 -0.218400 0.961808
vn 0.022502 0.553438 0.832587
vn -0.065559 0.985063 0.159228
vn -0.362766 0.751559 -0.550962
g fff08519_00031_000b0318_e0
f 118/278/118 133/407/133 132/408/132
f 117/274/117 118/278/118 132/406/132
f 117/274/117 132/404/132 131/405/131
f 116/270/116 117/274/117 131/403/131
f 116/270/116 131/401/131 130/402/130
f 115/266/115 116/270/116 130/400/130
f 115/266/115 130/398/130 129/399/129
f 114/262/114 115/266/115 129/397/129
f 114/262/114 129/395/129 128/396/128
f 113/258/113 114/262/114 128/394/128
f 113/258/113 128/392/128 127/393/127
f 112/254/112 127/390/127 126/391/126
f 111/250/111 112/254/112 126/389/126
f 111/250/111 126/387/126 125/388/125
f 110/246/110 111/250/111 125/386/125
f 110/246/110 125/384/125 124/385/124
f 109/241/109 110/246/110 124/383/124
f 109/241/109 124/381/124 123/382/123
f 108/242/108 109/241/109 123/380/123
f 108/242/108 123/378/123 122/379/122
f 107/237/107 108/236/108 122/377/122
f 107/237/107 122/375/122 121/376/121
f 159/367/159 160/371/160 163/368/163
f 167/370/167 149/366/149 168/345/168
f 158/362/158 159/367/159 164/365/164
f 166/374/166 162/369/162 167/370/167
f 160/371/160 161/373/161 165/372/165
f 165/372/165 161/373/161 166/374/166
f 1/150/1 16/101/16 15/30/15
f 1/151/1 2/99/2 16/101/16
f 2/152/2 17/31/17 16/29/16
f 2/2/2 3/153/3 17/31/17
f 3/154/3 18/32/18 17/31/17
f 3/5/3 4/155/4 18/32/18
f 4/156/4 19/33/19 18/32/18
f 4/7/4 5/157/5 19/33/19
f 5/158/5 20/34/20 19/33/19
f 5/9/5 6/159/6 20/34/20
f 6/160/6 21/35/21 20/34/20
f 6/11/6 7/161/7 21/35/21
f 7/162/7 22/36/22 21/35/21
f 7/13/7 8/163/8 22/36/22
f 8/164/8 23/37/23 22/36/22
f 8/15/8 9/165/9 23/37/23
f 9/166/9 24/38/24 23/37/23
f 9/17/9 10/167/10 24/38/24
f 10/168/10 25/39/25 24/38/24
f 10/19/10 11/169/11 25/39/25
f 11/170/11 26/40/26 25/39/25
f 11/21/11 12/171/12 26/40/26
f 12/172/12 27/41/27 26/40/26
f 12/23/12 13/173/13 27/41/27
f 13/174/13 28/42/28 27/41/27
f 13/25/13 14/175/14 28/42/28
f 14/176/14 15/30/15 28/42/28
f 14/27/14 1/3/1 15/30/15
f 91/133/91 52/80/52 90/132/90
f 52/80/52 91/133/91 53/81/53
f 54/82/54 92/135/92 55/83/55
f 51/79/51 90/132/90 52/80/52
f 90/131/90 50/78/50 89/130/89
f 50/78/50 90/131/90 51/79/51
f 92/135/92 54/82/54 91/134/91
f 49/77/49 89/130/89 50/78/50
f 89/129/89 48/76/48 88/128/88
f 48/76/48 89/129/89 49/77/49
f 53/81/53 91/134/91 54/82/54
f 20/34/20 21/35/21 35/177/35
f 47/75/47 88/128/88 48/76/48
f 88/127/88 46/74/46 87/126/87
f 46/74/46 88/127/88 47/75/47
f 87/126/87 45/73/45 86/125/86
f 45/73/45 87/126/87 46/74/46
f 86/125/86 44/72/44 85/124/85
f 44/72/44 86/125/86 45/73/45
f 92/123/92 85/121/85 43/71/43
f 43/71/43 56/84/56 92/123/92
f 55/83/55 92/123/92 56/84/56
f 43/71/43 85/122/85 44/104/44
f 28/42/28 15/30/15 29/178/29
f 28/42/28 29/179/29 42/180/42
f 27/41/27 28/42/28 42/181/42
f 27/41/27 42/182/42 41/183/41
f 26/40/26 27/41/27 41/184/41
f 29/137/29 30/136/30 57/106/57
f 30/136/30 58/107/58 57/106/57
f 30/139/30 31/138/31 58/108/58
f 31/138/31 59/109/59 58/108/58
f 31/138/31 32/140/32 59/109/59
f 32/140/32 60/110/60 59/109/59
f 32/140/32 33/141/33 60/110/60
f 33/141/33 61/111/61 60/110/60
f 33/141/33 34/142/34 61/111/61
f 34/142/34 62/112/62 61/111/61
f 34/142/34 35/143/35 62/112/62
f 35/143/35 63/113/63 62/112/62
f 35/143/35 36/144/36 63/113/63
f 36/144/36 64/114/64 63/113/63
f 36/144/36 37/145/37 64/114/64
f 37/145/37 65/115/65 64/114/64
f 37/145/37 38/146/38 65/115/65
f 38/146/38 66/116/66 65/115/65
f 38/146/38 39/147/39 66/116/66
f 39/147/39 67/117/67 66/116/66
f 39/147/39 40/148/40 67/117/67
f 40/148/40 68/118/68 67/117/67
f 40/148/40 41/149/41 68/118/68
f 41/149/41 69/119/69 68/118/68
f 41/149/41 42/56/42 69/119/69
f 42/56/42 70/120/70 69/119/69
f 70/120/70 42/56/42 29/137/29
f 57/106/57 70/120/70 29/137/29
f 161/373/161 162/369/162 166/374/166
f 163/368/163 160/371/160 165/372/165
f 162/369/162 149/366/149 167/370/167
f 164/365/164 159/367/159 163/368/163
f 149/366/149 150/346/150 168/345/168
f 176/363/176 158/362/158 164/365/164
f 150/364/150 151/352/151 169/351/169
f 175/350/175 157/349/157 176/363/176
f 151/352/151 152/356/152 170/353/170
f 174/355/174 156/348/156 175/350/175
f 152/356/152 153/361/153 171/357/171
f 173/360/173 155/354/155 174/355/174
f 153/361/153 154/359/154 172/358/172
f 157/349/157 158/362/158 176/363/176
f 154/359/154 155/354/155 173/360/173
f 171/357/171 153/361/153 172/358/172
f 172/358/172 154/359/154 173/360/173
f 170/353/170 152/356/152 171/357/171
f 155/354/155 156/348/156 174/355/174
f 169/351/169 151/352/151 170/353/170
f 156/348/156 157/349/157 175/350/175
f 168/345/168 150/346/150 169/347/169
f 149/205/149 162/234/162 121/207/121
f 162/234/162 134/233/134 121/207/121
f 134/233/134 162/234/162 161/232/161
f 133/231/133 134/233/134 161/232/161
f 133/231/133 161/232/161 160/230/160
f 132/229/132 133/231/133 160/230/160
f 76/85/76 58/103/58 77/105/77
f 64/64/64 65/65/65 83/87/83
f 77/86/77 59/59/59 78/88/78
f 63/63/63 64/64/64 82/89/82
f 78/88/78 60/60/60 79/90/79
f 80/91/80 62/62/62 81/92/81
f 79/90/79 61/61/61 80/91/80
f 62/62/62 63/63/63 81/92/81
f 65/65/65 66/66/66 84/93/84
f 61/61/61 62/62/62 80/91/80
f 81/92/81 63/63/63 82/89/82
f 60/60/60 61/61/61 79/90/79
f 82/89/82 64/64/64 83/87/83
f 59/59/59 60/60/60 78/88/78
f 83/87/83 65/65/65 84/93/84
f 58/58/58 59/59/59 77/86/77
f 84/93/84 66/66/66 72/94/72
f 57/57/57 58/103/58 76/85/76
f 72/94/72 67/67/67 71/95/71
f 70/70/70 57/57/57 75/96/75
f 71/95/71 68/68/68 73/97/73
f 69/69/69 70/70/70 74/98/74
f 73/97/73 69/69/69 74/98/74
f 68/68/68 69/69/69 73/97/73
f 74/98/74 70/70/70 75/96/75
f 66/66/66 67/67/67 72/94/72
f 75/96/75 57/57/57 76/85/76
f 67/67/67 68/68/68 71/95/71
f 15/30/15 30/185/30 29/44/29
f 15/30/15 16/101/16 30/102/30
f 16/29/16 31/186/31 30/43/30
f 16/29/16 17/31/17 31/187/31
f 17/31/17 32/188/32 31/45/31
f 17/31/17 18/32/18 32/189/32
f 18/32/18 33/190/33 32/46/32
f 18/32/18 19/33/19 33/191/33
f 19/33/19 34/192/34 33/47/33
f 19/33/19 20/34/20 34/193/34
f 20/34/20 35/194/35 34/48/34
f 21/35/21 36/195/36 35/49/35
f 21/35/21 22/36/22 36/196/36
f 22/36/22 37/197/37 36/50/36
f 22/36/22 23/37/23 37/198/37
f 23/37/23 38/199/38 37/51/37
f 23/37/23 24/38/24 38/200/38
f 24/38/24 39/201/39 38/52/38
f 24/38/24 25/39/25 39/202/39
f 25/39/25 40/203/40 39/53/39
f 25/39/25 26/40/26 40/204/40
f 26/40/26 41/55/41 40/54/40
f 132/229/132 160/230/160 159/228/159
f 131/227/131 132/229/132 159/228/159
f 131/227/131 159/228/159 158/226/158
f 130/225/130 131/227/131 158/226/158
f 130/225/130 158/226/158 157/224/157
f 129/223/129 130/225/130 157/224/157
f 129/223/129 157/224/157 156/222/156
f 128/221/128 129/223/129 156/222/156
f 128/221/128 156/222/156 155/220/155
f 127/219/127 128/221/128 155/220/155
f 127/219/127 155/220/155 154/218/154
f 126/217/126 127/219/127 154/218/154
f 126/217/126 154/218/154 153/216/153
f 125/215/125 126/217/126 153/216/153
f 125/215/125 153/216/153 152/214/152
f 124/213/124 125/215/125 152/214/152
f 124/213/124 152/214/152 151/212/151
f 123/210/123 124/213/124 151/212/151
f 123/210/123 151/212/151 150/209/150
f 122/211/122 123/210/123 150/209/150
f 122/206/122 150/208/150 149/205/149
f 121/207/121 122/206/122 149/205/149
f 118/278/118 119/282/119 133/329/133
f 119/282/119 134/327/134 133/328/133
f 119/282/119 120/286/120 134/326/134
f 120/286/120 121/324/121 134/325/134
f 120/286/120 107/237/107 121/323/121
f 135/319/135 177/321/177 136/322/136
f 93/235/93 108/236/108 107/237/107
f 93/238/93 94/239/94 108/236/108
f 94/240/94 109/241/109 108/242/108
f 94/243/94 95/244/95 109/241/109
f 95/245/95 110/246/110 109/241/109
f 95/247/95 96/248/96 110/246/110
f 96/249/96 111/250/111 110/246/110
f 96/251/96 97/252/97 111/250/111
f 97/253/97 112/254/112 111/250/111
f 97/255/97 98/256/98 112/254/112
f 98/257/98 113/258/113 112/254/112
f 98/259/98 99/260/99 113/258/113
f 99/261/99 114/262/114 113/258/113
f 99/263/99 100/264/100 114/262/114
f 100/265/100 115/266/115 114/262/114
f 100/267/100 101/268/101 115/266/115
f 101/269/101 116/270/116 115/266/115
f 101/271/101 102/272/102 116/270/116
f 102/273/102 117/274/117 116/270/116
f 102/275/102 103/276/103 117/274/117
f 103/277/103 118/278/118 117/274/117
f 103/279/103 104/280/104 118/278/118
f 104/281/104 119/282/119 118/278/118
f 104/283/104 105/284/105 119/282/119
f 105/285/105 120/286/120 119/282/119
f 105/287/105 106/288/106 120/286/120
f 106/289/106 107/237/107 120/286/120
f 106/290/106 93/291/93 107/237/107
f 183/292/183 144/293/144 182/294/182
f 144/293/144 183/292/183 145/295/145
f 146/296/146 184/297/184 147/298/147
f 143/299/143 182/294/182 144/293/144
f 182/300/182 142/301/142 181/302/181
f 142/301/142 182/300/182 143/299/143
f 184/297/184 146/296/146 183/303/183
f 141/304/141 181/302/181 142/301/142
f 181/305/181 140/306/140 180/307/180
f 140/306/140 181/305/181 141/304/141
f 145/295/145 183/303/183 146/296/146
f 112/254/112 113/258/113 127/308/127
f 139/309/139 180/307/180 140/306/140
f 180/310/180 138/311/138 179/312/179
f 138/311/138 180/310/180 139/309/139
f 179/312/179 137/313/137 178/314/178
f 137/313/137 179/312/179 138/311/138
f 178/314/178 136/315/136 177/316/177
f 136/315/136 178/314/178 137/313/137
f 184/317/184 177/318/177 135/319/135
f 135/319/135 148/320/148 184/317/184
f 147/298/147 184/317/184 148/320/148
