# fff02c13_00211_006bbe4b
o fff02c13_00211_006bbe4b
v 0.287338 0.233709 -0.304986
v 0.245130 0.291805 -0.304986
v 0.176836 0.269614 -0.304986
v 0.176836 0.197804 -0.304986
v 0.245130 0.175613 -0.304986
v 0.287338 -0.307853 0.230908
v 0.245130 -0.307853 0.288996
v 0.176836 -0.307853 0.266810
v 0.176836 -0.307853 0.195001
v 0.245130 -0.307853 0.172807
v 0.221297 0.233710 -0.430434
v 0.190438 0.291806 -0.394506
v 0.145189 0.269615 -0.347233
v 0.145189 0.197805 -0.347233
v 0.190438 0.175614 -0.394506
v 0.085763 0.233710 -0.463297
v 0.085766 0.291806 -0.421081
v 0.085763 0.269615 -0.352791
v 0.085763 0.197805 -0.352791
v 0.085766 0.175614 -0.421081
v -0.322139 0.233710 -0.463297
v -0.322136 0.291806 -0.421080
v -0.322139 0.269615 -0.352791
v -0.322139 0.197805 -0.352791
v -0.322136 0.175614 -0.421080
v 0.221297 -0.433457 0.230902
v 0.190438 -0.397529 0.288996
v 0.145189 -0.350253 0.266810
v 0.145189 -0.350253 0.195001
v 0.190438 -0.397529 0.172807
v 0.085763 -0.472786 0.230902
v 0.085766 -0.430569 0.288996
v 0.085763 -0.362278 0.266810
v 0.085763 -0.362278 0.195001
v 0.085766 -0.430569 0.172807
v -0.322138 -0.472786 0.230902
v -0.322136 -0.430569 0.288996
v -0.322139 -0.362278 0.266810
v -0.322139 -0.362278 0.195001
v -0.322136 -0.430569 0.172807
v 0.245130 0.291805 0.147635
v 0.176836 0.269614 0.147635
v 0.176836 0.197804 0.147635
v 0.245130 0.175613 0.147635
v 0.287338 0.233709 0.147635
v 0.287338 0.145448 0.230908
v 0.245130 0.145231 0.289003
v 0.176836 0.145317 0.266810
v 0.176836 0.145586 0.195001
v 0.245130 0.145665 0.172814
v 0.245130 0.167172 0.165229
v 0.287338 0.207350 0.208092
v 0.245130 0.245054 0.242400
v 0.178491 0.238874 0.236787
v 0.176836 0.178813 0.175802
v 0.219755 0.144777 0.184016
v 0.219758 0.173115 0.242104
v 0.219755 0.237114 0.233112
v 0.219755 0.248336 0.169459
v 0.219758 0.191276 0.139117
v -0.322138 0.144777 0.184016
v -0.322135 0.173115 0.242104
v -0.322138 0.237114 0.233112
v -0.322139 0.248336 0.169459
v -0.322135 0.191276 0.139117
vt -16.487104 -5.258822
vt -6.677148 3.257323
vt -4.958290 2.698832
vt -15.282536 -5.053386
vt -2.077682 -0.762867
vt -0.158755 -0.343976
vt 0.193624 -0.342264
vt 0.393624 -0.342264
vt 0.606376 -0.342264
vt 0.806376 -0.342264
vt 1.180302 -0.342264
vt -0.180307 1.405922
vt 0.193618 1.405920
vt 0.393618 1.405920
vt 0.606376 1.405911
vt 0.806375 1.405911
vt 1.184683 1.399627
vt -4.183246 -1.465893
vt -9.310826 4.113057
vt -4.902747 -1.680784
vt 1.915099 1.122254
vt 1.774677 0.488843
vt 0.659274 3.719851
vt -10.749413 4.580478
vt -6.875811 -2.321871
vt 4.862201 2.079826
vt 3.235044 0.963345
vt 0.339067 4.526442
vt -5.502368 2.875609
vt -6.988889 -2.115401
vt -0.652716 0.287920
vt -4.692934 -1.612611
vt 0.196273 0.474643
vt 0.393624 0.474854
vt 0.606376 0.474854
vt 0.806376 0.474854
vt 1.180302 0.474854
vt 0.121904 0.493266
vt -0.180307 0.587590
vt 0.193624 0.587980
vt 0.393666 0.587806
vt 0.606376 0.587345
vt 0.844154 0.734667
vt 1.180284 0.575864
vt 0.813299 0.477525
vt 1.189216 0.486405
vt 0.077935 0.537395
vt 0.196273 0.529048
vt 0.300950 0.533773
vt 0.629796 0.661760
vn 0.973422 -0.005300 -0.228959
vn 0.377220 0.919045 -0.114284
vn -0.297739 0.948247 0.110359
vn -0.306329 -0.942753 0.131832
vn 0.383835 -0.914027 -0.131243
vn 0.973478 -0.228723 -0.005228
vn 0.377163 -0.114124 0.919089
vn -0.297804 0.110087 0.948258
vn -0.306388 0.131361 -0.942799
vn 0.383760 -0.130994 -0.914095
vn 0.614463 -0.005289 -0.788928
vn 0.223730 0.919409 -0.323469
vn -0.161161 0.803417 0.573191
vn -0.156943 -0.786728 0.597016
vn 0.246513 -0.914372 -0.321178
vn 0.115229 0.001032 -0.993338
vn 0.053433 0.937942 -0.342652
vn -0.037690 0.596073 0.802045
vn -0.049281 -0.589546 0.806230
vn 0.045874 -0.936906 -0.346557
vn -0.000000 -0.000000 -1.000000
vn -0.000000 0.951073 -0.308965
vn -0.000000 0.587768 0.809030
vn 0.000000 -0.587768 0.809029
vn 0.000000 -0.951073 -0.308965
vn 0.630898 -0.775855 -0.003978
vn 0.230086 -0.310596 0.922275
vn -0.210182 0.565762 0.797331
vn -0.212634 0.579921 -0.786434
vn 0.252702 -0.304777 -0.918288
vn 0.137094 -0.990556 0.002183
vn 0.065411 -0.352041 0.933696
vn -0.080611 0.791752 0.605500
vn -0.089492 0.794618 -0.600478
vn 0.056647 -0.353117 -0.933863
vn 0.000000 -1.000000 0.000001
vn 0.000000 -0.308989 0.951066
vn -0.000000 0.809011 0.587793
vn -0.000000 0.809041 -0.587753
vn 0.000000 -0.308942 -0.951081
vn 0.298186 0.936603 0.184012
vn -0.304816 0.938096 0.164507
vn -0.284040 -0.924137 -0.255524
vn 0.336287 -0.915339 -0.221507
vn 0.996024 0.078437 0.042227
vn 0.997635 0.024438 0.064251
vn 0.295204 0.169125 0.940346
vn -0.305203 0.153814 0.939783
vn -0.300049 -0.235526 -0.924391
vn 0.345582 -0.185425 -0.919886
vn 0.396385 -0.601234 -0.693827
vn 0.984098 0.128785 0.122336
vn 0.340707 0.662354 0.667238
vn -0.197101 0.685073 0.701303
vn -0.246216 -0.650653 -0.718352
vn 0.000000 -0.984810 -0.173634
vn 0.000000 -0.469454 0.882957
vn -0.000000 0.694646 0.719351
vn -0.000000 0.898792 -0.438376
vn -0.000000 -0.139128 -0.990274
vn -0.000000 -0.984810 -0.173633
vn 0.000000 -0.469452 0.882958
vn -0.000000 0.694662 0.719336
vn -0.000000 0.898801 -0.438357
vn -0.000000 -0.139127 -0.990275
g fff02c13_00211_006bbe4b_e0
f 18/26/18 19/27/19 14/22/14
f 65/30/65 56/23/56 61/28/61
f 56/23/56 65/30/65 60/25/60
f 61/28/61 57/24/57 62/29/62
f 57/24/57 61/28/61 56/23/56
f 24/32/24 25/30/25 20/25/20
f 20/25/20 19/27/19 24/32/24
f 23/31/23 24/32/24 19/27/19
f 19/27/19 18/26/18 23/31/23
f 4/9/4 44/36/44 43/35/43
f 44/36/44 51/45/51 43/35/43
f 34/27/34 30/20/30 35/25/35
f 34/27/34 38/31/38 33/26/33
f 38/31/38 34/27/34 39/32/39
f 51/45/51 55/50/55 43/35/43
f 50/43/50 55/50/55 51/45/51
f 49/42/49 10/16/10 9/15/9
f 4/9/4 5/10/5 44/36/44
f 50/43/50 49/42/49 55/50/55
f 50/43/50 10/16/10 49/42/49
f 30/20/30 34/27/34 29/22/29
f 33/26/33 29/22/29 34/27/34
f 29/22/29 33/26/33 28/21/28
f 35/25/35 39/32/39 34/27/34
f 39/32/39 35/25/35 40/30/40
f 29/22/29 10/5/10 30/20/30
f 10/5/10 29/22/29 9/4/9
f 14/22/14 13/21/13 18/26/18
f 5/5/5 4/4/4 14/22/14
f 14/22/14 15/20/15 5/5/5
f 15/20/15 14/22/14 19/27/19
f 19/27/19 20/25/20 15/20/15
g fff02c13_00211_006bbe4b_e1
f 50/43/50 6/17/6 10/16/10
f 5/10/5 1/11/1 45/37/45
f 1/1/1 5/5/5 15/20/15
f 15/20/15 11/18/11 1/1/1
f 52/46/52 51/45/51 44/36/44
f 46/44/46 51/45/51 52/46/52
f 11/18/11 15/20/15 20/25/20
f 20/25/20 16/23/16 11/18/11
f 16/23/16 20/25/20 25/30/25
f 25/30/25 21/28/21 16/23/16
f 6/1/6 30/20/30 10/5/10
f 30/20/30 6/1/6 26/18/26
f 46/44/46 50/43/50 51/45/51
f 46/44/46 6/17/6 50/43/50
f 26/18/26 35/25/35 30/20/30
f 35/25/35 26/18/26 31/23/31
f 31/23/31 40/30/40 35/25/35
f 40/30/40 31/23/31 36/28/36
f 45/37/45 52/46/52 44/36/44
f 5/10/5 45/37/45 44/36/44
f 22/29/22 23/31/23 18/26/18
f 33/26/33 37/29/37 32/24/32
f 47/40/47 8/14/8 7/13/7
f 2/7/2 3/8/3 42/34/42
f 32/24/32 28/21/28 33/26/33
f 3/3/3 2/2/2 12/19/12
f 12/19/12 13/21/13 3/3/3
f 54/49/54 53/48/53 41/33/41
f 48/41/48 8/14/8 47/40/47
f 28/21/28 32/24/32 27/19/27
f 42/34/42 54/49/54 41/33/41
f 2/7/2 42/34/42 41/33/41
f 13/21/13 12/19/12 17/24/17
f 17/24/17 18/26/18 13/21/13
f 48/41/48 47/40/47 54/49/54
f 54/49/54 47/40/47 53/48/53
f 27/19/27 8/3/8 28/21/28
f 18/26/18 17/24/17 22/29/22
f 37/29/37 33/26/33 38/31/38
f 8/3/8 27/19/27 7/2/7
f 58/26/58 62/29/62 57/24/57
f 62/29/62 58/26/58 63/31/63
f 64/32/64 60/25/60 65/30/65
f 60/25/60 64/32/64 59/27/59
g fff02c13_00211_006bbe4b_e2
f 46/39/46 7/13/7 6/12/6
f 1/6/1 2/7/2 41/33/41
f 2/2/2 1/1/1 11/18/11
f 11/18/11 12/19/12 2/2/2
f 47/40/47 52/47/52 53/48/53
f 53/48/53 52/47/52 45/38/45
f 12/19/12 11/18/11 16/23/16
f 16/23/16 17/24/17 12/19/12
f 47/40/47 46/39/46 52/47/52
f 47/40/47 7/13/7 46/39/46
f 17/24/17 16/23/16 21/28/21
f 21/28/21 22/29/22 17/24/17
f 1/6/1 41/33/41 45/38/45
f 41/33/41 53/48/53 45/38/45
f 7/2/7 26/18/26 6/1/6
f 26/18/26 7/2/7 27/19/27
f 27/19/27 31/23/31 26/18/26
f 31/23/31 27/19/27 32/24/32
f 32/24/32 36/28/36 31/23/31
f 36/28/36 32/24/32 37/29/37
f 63/31/63 59/27/59 64/32/64
f 59/27/59 63/31/63 58/26/58
