# fff05e8c_00000_00004c3e
o fff05e8c_00000_00004c3e
v -0.425860 0.454180 0.000000
v -0.425860 -0.454180 0.000000
v 0.425867 0.454180 0.000000
v 0.425867 -0.454180 0.000000
v -0.425860 -0.047295 0.455988
v 0.425867 -0.047295 0.455988
v 0.425867 -0.047295 0.000000
v -0.425860 -0.047295 0.000000
v 0.425867 -0.047295 0.000000
v -0.425860 -0.047295 0.000000
v -0.469504 0.656932 -0.011645
v -0.469504 -0.636863 -0.011645
v 0.469514 0.656932 -0.011645
v 0.469514 -0.636863 -0.011645
v 0.469514 -0.057328 -0.011645
v -0.469504 -0.057328 -0.011645
vt 1.976579 1.991297
vt 1.976568 1.120676
vt 1.088206 1.120676
vt 1.088216 1.991297
vt 1.976579 1.554325
vt 1.088216 1.554325
vt 1.976568 1.512145
vt 1.088206 1.512145
vn 0.000000 0.000000 -1.000000
vn 0.000000 0.000000 -1.000000
vn 0.000000 0.000000 -1.000000
vn 0.000000 0.000000 -1.000000
vn 0.000000 1.000000 0.000000
vn 0.000000 1.000000 0.000000
vn 0.000000 1.000000 0.000000
vn 0.000000 1.000000 0.000000
vn 0.000000 0.000000 -1.000000
vn 0.000000 0.000000 -1.000000
vn 0.000000 0.000000 -1.000000
vn 0.000000 0.000000 -1.000000
vn 0.000000 0.000000 -1.000000
vn 0.000000 0.000000 -1.000000
vn 0.000000 0.000000 -1.000000
vn 0.000000 0.000000 -1.000000
g fff05e8c_00000_00004c3e_e1
f 10/8/10 9/7/9 2/3/2
f 10/8/10 1/4/1 3/1/3
f 7/5/7 8/6/8 6/1/6
f 8/6/8 5/4/5 6/1/6
f 9/7/9 4/2/4 2/3/2
f 9/7/9 10/8/10 3/1/3
g fff05e8c_00000_00004c3e_e5
f 16/8/16 15/7/15 12/3/12
f 16/8/16 11/4/11 13/1/13
f 15/7/15 14/2/14 12/3/12
f 15/7/15 16/8/16 13/1/13
