# fff08f90_00179_0065cd6c
o fff08f90_00179_0065cd6c
v -1.752141 8.145372 -0.784838
v -1.752141 8.145372 0.060321
v -1.792913 8.102160 -0.784838
v -1.792913 8.102160 0.060321
v -1.792913 8.188585 0.060321
v -1.833684 8.145372 -0.784838
v -1.792913 8.188585 -0.784838
v -1.833684 8.145372 0.060321
v -7.324821 3.323891 -0.791232
v 3.004178 7.311064 0.138695
v -1.723392 8.246117 -0.861990
v -1.723392 8.246117 -0.760214
v -1.723392 3.318764 -0.861990
v -1.723392 3.318764 -0.760214
v -1.860245 8.103008 -0.841790
v -1.860374 3.318764 -0.760214
v -1.860245 3.318764 -0.861990
v -1.860245 8.103008 -0.760214
v -1.697552 16.384037 0.138695
v -7.324818 -35.265121 -0.791232
v -4.787572 8.162951 -0.784838
v -4.787572 8.162951 0.060321
v -1.806068 3.329943 -0.784838
v -1.806068 3.329943 0.060321
v -4.828344 8.206163 0.060321
v -4.828344 8.206163 -0.784838
v -1.855385 3.370714 -0.784838
v -1.855385 3.370714 0.060321
v -1.756508 3.370714 0.060321
v -1.806068 3.411486 -0.784838
v -1.756508 3.370714 -0.784838
v -1.806068 3.411486 0.060321
v -4.869115 8.162951 0.060321
v -4.828344 8.119738 -0.784838
v -4.869115 8.162951 -0.784838
v -4.828344 8.119738 0.060321
v 13.064407 -20.390579 -0.794796
v 3.478508 -26.828213 -0.782980
v -0.265962 -26.029932 -0.794129
v 10.733795 -26.228687 -0.797908
v 13.708174 -24.642366 -0.798429
v 15.088003 -22.954865 -0.797239
v 16.512268 -17.078831 -0.797500
v -3.106730 -24.644089 -0.794256
v -4.741461 -22.456474 -0.791232
v 7.588616 -35.265121 -0.798846
v -4.741463 3.323891 -0.791232
v 4.684236 -18.499664 0.138695
v 4.684236 -18.499664 11.775665
v 5.703798 -18.633942 0.138695
v 6.723390 -18.499664 0.138695
v 7.412407 -18.239489 0.138695
v -7.324821 -1.383776 1.865068
v 3.734072 -18.106110 11.775665
v 3.734072 -18.106110 0.138695
v -7.324821 -5.742174 1.865068
v 3.004178 7.311064 7.908734
v 2.954020 -11.925303 0.138695
v 2.918032 -17.479889 0.138695
v 2.918032 -17.479889 7.908734
v -4.741462 -10.335851 -0.791232
v -1.696438 16.385014 7.907680
v 3.478509 -35.265121 -0.793861
v -7.324821 -1.383776 0.138695
v -7.324821 -5.742174 0.138695
v -15.106728 8.246154 -5.227474
v -4.832191 8.246117 -0.760214
v 2.932141 -17.503185 -0.791232
v 3.734072 -18.105619 -0.791232
v 4.684236 -18.499174 -0.791232
v 7.412407 -18.239000 -0.791232
v 6.723390 -18.499174 -0.791232
v 5.703798 -18.633451 -0.791232
v 2.954020 -11.924815 -0.791232
v 2.918032 -17.479399 -0.791232
v 2.993835 7.307943 -0.791232
v -11.254738 -1.383776 -0.791230
v -7.324819 -5.742213 -0.791232
v -11.254751 -5.742213 -0.791230
v -7.324806 -1.383776 -0.791232
v 5.703798 -18.633942 11.775665
v 6.723390 -18.499664 11.775665
v 7.412407 -18.239489 11.775665
v 2.932141 -17.503185 11.775665
v 2.932141 -17.503185 0.138695
v -7.325281 -13.853991 1.687679
v -7.325281 -9.936487 1.687679
v -11.254753 -5.742174 1.865070
v -11.254753 -1.383776 1.865070
v 2.954020 -11.925303 7.908734
v -4.832191 8.103008 -0.841790
v -15.106728 8.103008 -5.311430
v -15.106728 8.103008 -5.227474
v -4.832191 8.103008 -0.760214
v -11.254753 -1.383776 0.138697
v -7.324806 -1.383776 -0.791232
v -11.254738 -1.383776 -0.791230
v -11.254753 -5.742174 -0.791230
v -11.254753 -5.742174 0.138697
v -1.771022 8.232243 -1.874051
v -4.823364 8.232170 -1.874051
v -7.324821 -5.742174 -0.791232
v -7.325281 -9.936487 0.138695
v -7.325281 -13.853991 0.138695
v 3.297330 13.979551 1.627586
v 3.297330 10.871153 1.627586
v -7.830133 -13.853991 1.687679
v -7.830133 -9.936487 1.687679
v 3.186734 10.871153 1.625572
v 3.297330 13.979551 -0.733681
v 2.918032 -17.479399 -0.791232
v -2.045057 -13.853991 -0.791232
v -2.045057 -17.228180 -0.791232
v 18.898186 -35.265121 -0.801837
v 13.064409 -16.806528 -0.791232
v 7.588615 -27.118347 -0.797110
v 18.898186 -16.937307 -0.801837
v -7.324821 3.323891 7.908734
v 2.918032 -17.479889 0.138695
v -7.324820 -35.265121 7.908734
v -7.324821 -9.558580 7.908734
v -4.741462 -13.431871 -0.791232
v -7.325279 -13.431871 -0.791232
v -7.830131 -9.936487 -0.791232
v -7.830133 -9.936487 0.138695
v -1.792003 3.396023 -1.874051
v -7.830133 -13.853991 0.138695
v -7.830131 -13.853991 -0.791232
v -7.324821 3.323891 0.138695
v -7.324821 3.323891 -0.791232
v -7.325279 -9.936510 -0.791232
v -7.324820 -35.265121 0.138695
v -4.823315 16.342358 -0.785685
v 3.297330 14.042784 1.625572
v 3.297330 14.042784 -0.800210
v 3.297330 10.807920 1.625572
v 3.297330 10.807920 -0.800210
v 3.313688 10.807920 -0.800210
v 3.313687 14.042784 -0.800210
v 3.313687 14.042784 1.625572
v 3.313688 10.807920 1.625572
v 3.186734 10.675352 -0.800210
v 3.186734 14.146299 -0.800210
v 3.186734 10.675352 1.822715
v 3.186734 14.146299 1.822715
v 3.186734 13.979551 1.625572
v 3.186734 10.871153 -0.735695
v 3.297330 10.871153 -0.733681
v 3.186734 13.979551 -0.735695
v -2.003964 -20.447758 -0.795118
v -0.263458 -22.225647 -0.796196
v 1.529346 -23.600525 -0.796161
v 3.519600 -24.650866 -0.793817
v 7.588615 -24.650866 -0.796690
v -2.045058 -4.660387 -0.791232
v -2.045057 -9.936510 -0.791232
v -4.741462 -13.853991 -0.791232
v -4.741462 -9.936510 -0.791232
v -2.045059 3.323891 -0.791232
v 4.032088 -27.400139 -0.784787
v -7.830131 -10.335852 -0.791232
v -7.325279 -10.335852 -0.791232
v -7.830131 -13.431871 -0.791232
v -7.325267 -13.853991 -0.791232
v 5.766079 14.071592 -0.781974
v 5.766079 10.710508 -0.781974
v 3.279996 10.658751 -0.789312
v 3.279996 14.153379 -0.789312
v 5.625942 14.146299 1.897727
v 5.625943 10.642637 1.897727
v 3.300748 10.642637 1.897727
v 5.625943 10.642637 1.897727
v 3.300748 14.146299 1.897727
v 5.625942 14.146299 1.897727
v 5.625942 14.146299 0.140953
v 3.300748 14.146299 0.140953
v 5.625943 10.642637 -0.800210
v 5.191861 11.237120 -0.800210
v 5.625942 14.146299 -0.800210
v 5.191861 13.545225 -0.800210
v 13.494415 -20.369566 -0.815064
v 9.720501 -23.674717 -0.796813
v 11.550865 -22.342175 -0.796896
v 7.588615 -28.284237 -0.797359
v 10.039498 -28.223478 -0.798115
v 7.108635 -27.855099 -0.795848
v 7.108636 -35.265121 -0.798548
v 4.032089 -35.265121 -0.796870
v 3.478508 -35.265121 0.138695
v 3.342252 10.664122 1.173181
v 5.606167 10.664122 1.173181
v -14.172230 8.221813 -4.479874
v 5.605923 14.124571 0.835880
v 3.342252 10.664122 0.835880
v 5.606167 10.664122 0.993412
v 3.342252 10.664122 0.993412
v 3.342252 14.124571 0.835880
v -14.172230 8.221813 -4.408051
v -14.172230 8.109509 -4.408051
v -15.130819 17.095755 -0.126481
v 5.625943 10.642637 -0.800210
v 5.625942 14.146299 -0.800210
v 5.625943 10.642637 0.140953
v 3.300748 10.642637 0.140953
v 5.625943 10.642637 0.140953
v 3.300504 10.642637 -0.800210
v 5.625942 14.146299 -0.800210
v 3.300503 14.146299 -0.800210
v 5.625942 14.146299 0.140953
v 3.478508 -35.265121 7.908734
v -4.844429 17.123980 -0.126482
v -4.844429 17.114515 7.904517
v -15.130768 16.326069 -0.126481
v -15.130777 16.331789 -5.289839
v -15.130768 16.326069 -1.157832
v 3.342252 14.124571 1.173181
v 5.605923 14.124571 1.173181
v 5.605923 14.124571 1.173181
v 5.606167 10.664122 1.173181
v 5.605923 14.124571 0.993412
v 5.606167 10.664122 0.993412
v 5.606167 10.664122 0.835880
v 5.606167 10.664122 0.835880
v 3.342252 14.124571 0.993412
v 5.605923 14.124571 0.993412
v 5.605923 14.124571 0.835880
v 5.625943 10.642637 -0.800210
v 3.300504 11.237120 -0.800210
v 3.300503 13.545225 -0.800210
v 3.300503 14.146299 -0.800210
v 5.625943 10.642637 -0.800210
v 3.297330 11.172911 -0.526627
v 3.297330 13.678038 -0.526627
v 3.297330 13.678038 0.999341
v 3.297330 11.172911 0.999341
v 3.331466 14.123940 -0.791232
v 2.993808 10.687075 -0.791232
v 2.993773 14.123940 -0.791232
v 3.300504 11.237120 -0.800210
v 3.300504 10.642637 -0.800210
v 3.321389 14.123940 1.806525
v 3.330376 14.123940 0.138642
v 2.992684 14.123940 0.138642
v 2.999163 10.687075 0.138672
v 2.983697 14.123940 1.806525
v 2.989151 10.687075 1.806525
v 2.993777 14.124063 -0.791232
v 3.004732 14.123940 -0.791232
v 2.960609 -9.082872 -0.791232
v 2.991518 -5.173619 -0.791232
v 2.967317 -5.173619 -0.791232
v 3.233000 -5.173619 1.671759
v 2.993803 -5.173619 1.671759
v 2.970079 -5.173619 0.138695
v 2.994280 -5.173619 0.138695
v 2.969603 -5.173619 1.671759
v 2.961819 -9.082872 0.138695
v 2.961813 -9.082872 1.671759
v 3.004732 14.123940 0.138642
v 3.004732 14.123938 1.806525
v 3.254153 14.124063 -0.791232
v 3.254156 10.687010 -0.791232
v 2.993780 10.687010 -0.791232
v 3.230714 -5.173619 -0.791232
v 2.975429 -1.334703 -0.791232
v 3.233477 -5.173619 0.138695
v 2.983981 -1.334703 7.908734
v 2.980807 -1.334703 0.138695
v -4.823315 16.342360 -0.126482
v -1.696675 16.379154 -0.795798
v -4.823346 16.173313 7.904517
v -1.693622 16.173311 -0.785685
v -4.823315 16.173311 -0.785685
v -1.693653 16.173313 7.904517
v -1.698108 16.169407 0.138695
v -4.823315 16.173313 0.164720
v 3.224892 -17.737017 0.808292
v 2.923296 -17.511292 0.808292
v 2.909066 -17.487505 0.139366
v 2.909189 -16.717100 0.808292
v 2.909188 -17.487993 0.808292
v -4.823317 16.354765 0.644438
v 3.224770 -17.736528 0.139366
v 2.923174 -17.511292 0.139366
v 2.909067 -16.716612 0.139366
v 2.921468 16.377090 7.908612
v 2.953181 16.375526 7.908496
v 2.962049 16.369940 -0.799815
v 2.988550 16.375494 0.138623
v 2.993753 16.375496 -0.791232
v 2.956838 16.377058 0.138585
v -1.789775 3.386387 0.059772
v -1.790994 8.159718 0.059773
v -1.790994 8.159718 -0.762509
v -1.789775 3.386387 -0.762510
v -1.750151 3.302402 0.017669
v -1.749667 8.221313 0.017671
v -1.861906 3.302402 0.017669
v -1.861971 8.109009 0.017671
v -9.719116 16.270597 -0.743962
v -9.719116 16.270597 -0.328982
v -9.292465 16.270597 -0.328982
v -9.292465 16.270597 -0.743962
v -1.861906 3.302402 0.089492
v -1.750151 3.302402 0.089492
v -1.861971 8.109009 0.089494
v -1.749667 8.221313 0.089494
v -1.793140 3.395996 -0.787095
v -1.772011 8.232220 -0.785885
v -4.823365 8.232147 -0.780539
v -14.204605 8.160217 -4.437771
v -14.204605 8.160217 -5.241345
v -4.826498 8.160217 0.059775
v -4.826498 8.160217 -0.762508
v -14.172230 8.109509 -4.479874
v -4.840414 8.109509 0.017672
v -4.840414 8.221813 0.017672
v -4.840414 8.221813 0.089495
v -4.840414 8.109509 0.089495
v -14.172218 8.221794 -4.479874
v -14.172218 8.221794 -4.408051
v -14.172218 8.109489 -4.408051
v -15.105812 8.221794 -4.479874
v -15.105808 8.109499 -4.479874
v -15.105812 8.221794 -4.408051
v -15.105808 8.109499 -4.408051
v -14.249292 8.162931 -5.298481
v -14.249292 8.162931 -4.453322
v -14.167749 8.162931 -4.453322
v -14.167749 8.162931 -5.298481
v -14.208521 8.206144 -5.298481
v -14.208521 8.206144 -4.453322
v -14.208521 8.119719 -5.298481
v -14.208521 8.119719 -4.453322
v -14.213959 16.332409 -5.289839
v -14.213959 8.103008 -5.310796
v -14.213959 8.103008 -5.227474
v -14.213959 8.246117 -5.227474
v -14.213959 8.235259 -5.246629
v -15.030258 8.160217 -4.437771
v -15.030258 8.160217 -5.241345
v -15.048014 8.162931 -5.298481
v -15.048014 8.162931 -4.453322
v -14.966471 8.162931 -4.453322
v -14.966471 8.162931 -5.298481
v -15.007242 8.206144 -5.298481
v -15.007242 8.206144 -4.453322
v -15.007242 8.119719 -5.298481
v -15.007242 8.119719 -4.453322
v -15.106728 8.246191 -5.311430
v -1.771022 8.232243 -1.874051
v -12.633736 8.235367 -5.293468
v -1.772011 8.232220 -0.785885
v -14.209272 8.235356 -5.291178
v 4.032088 -24.704346 -0.794640
v 7.115210 -24.704346 -0.796459
v -2.202881 -10.335851 -0.791232
v -2.202881 -13.431870 -0.791232
v -0.731018 16.382566 2.992905
v 1.962158 16.378838 2.992905
v -0.731018 16.382217 5.517474
v 1.962158 16.378784 5.517474
vt 1.255447 0.253290
vt -0.693514 0.253290
vt -0.693514 1.486276
vt 1.255447 1.486276
vt 2.003380 1.107498
vt 2.003380 1.387735
vt 2.003380 2.771629
vt 2.003380 2.368481
vt 2.003380 2.368481
vt -6.017051 2.003304
vt -1.009131 2.009444
vt -1.009131 0.946541
vt 0.002918 0.562743
vt 0.007356 0.564119
vt -45.585533 -36.410210
vt -41.769905 -33.317871
vt 1.542297 1.387735
vt 1.542297 1.107498
vt 1.542297 2.771629
vt 1.542297 2.368481
vt 0.994282 1.403719
vt 0.994339 2.003416
vt -6.948930 -5.089492
vt 0.045403 0.582649
vt 0.052234 0.586410
vt 0.049836 0.584021
vt 2.040132 1.253373
vt 2.044406 1.253372
vt 2.213187 1.253373
vt 2.414684 1.253373
vt 2.989961 1.253375
vt 2.630900 1.253373
vt 2.847121 1.253373
vt -3.297378 1.049742
vt 2.726289 -8.226648
vt 2.726287 -8.226639
vt 2.838371 -8.226656
vt 2.838371 -6.884493
vt 1.963782 2.649503
vt 1.464041 -2.581841
vt 1.084811 2.901942
vt 1.082773 4.346822
vt 1.201366 4.593420
vt 0.393352 0.408389
vt 0.393352 0.408389
vt 0.393352 0.408389
vt 2.943857 11.571800
vt 1.963528 2.832225
vt -2.186280 1.347697
vt -1.757042 1.347692
vt 2.152652 -7.029114
vt 2.726288 -7.029114
vt 2.152696 -8.093918
vt -0.492779 1.250734
vt 2.814717 1.880779
vt 2.660562 1.880395
vt 1.435154 1.250734
vt -4.992473 2.005690
vt -1.961035 2.009444
vt -1.961036 0.946541
vt -4.992473 0.942786
vt -6.017051 0.940401
vt -0.004430 0.560477
vt -51.601021 -41.285194
vt 0.004634 0.563275
vt 0.007356 0.564119
vt -44.105309 -35.210579
vt -41.769905 -33.317871
vt 1.999556 1.404985
vt 1.999990 2.003835
vt 1.659253 1.404985
vt 1.659342 2.003836
vt 1.633136 1.404352
vt 1.633366 2.003626
vt -11.737172 -8.970336
vt -4.242037 -2.894994
vt 0.047121 0.583184
vt 0.052234 0.586410
vt 0.049836 0.584021
vt 1.391868 1.000000
vt 1.519335 1.000000
vt -3.297810 1.250653
vt 1.881870 1.049769
vt -2.555555 1.250554
vt -1.895563 1.049775
vt -2.555555 1.049757
vt 2.726287 -6.884528
vt 2.838371 -6.884493
vt 2.876064 2.482650
vt 2.980259 1.508324
vt 1.081115 0.754632
vt 3.055784 -2.477541
vt 1.510575 -2.578792
vt 1.000139 5.667892
vt 2.875336 2.484695
vt 2.792734 0.965869
vt 1.963698 1.166960
vt 1.051500 -6.086919
vt 1.519335 2.000000
vt 1.519335 1.357953
vt 1.391868 2.000000
vt 1.399808 2.000000
vt 1.391868 1.357953
vt -2.186280 1.160615
vt -1.756923 1.160285
vt 1.841652 2.033845
vt -1.267078 2.032156
vt -1.267078 1.160612
vt 1.131820 1.160613
vt 1.830539 1.160613
vt 1.131820 2.032157
vt 1.830537 2.032157
vt 2.726288 -8.089823
vt 2.726288 -8.089831
vt 2.838371 -7.029114
vt 0.000401 -15.889060
vt -0.082330 -15.888972
vt -0.085051 -14.808386
vt -0.002318 -14.808474
vt 2.040207 1.050491
vt 2.019052 1.049769
vt 5.203761 1.049769
vt -17.003075 1.982551
vt -17.009279 0.940708
vt -49716252672.000000 0.000000
vt 9356.657227 0.000000
vt 9382.966797 0.000000
vt 9382.928711 0.000000
vt 11256434688.000000 0.000000
vt 0.700423 0.000000
vt 0.700347 0.000000
vt 0.597634 0.000000
vt 1.002197 1.000000
vt 1.002197 2.000000
vt 1.999648 2.000000
vt 1.999648 1.000000
vt 0.038057 0.580386
vt 1.396005 1.000000
vt 1.323859 1.049770
vt 1.323858 1.250729
vt 0.556274 1.049785
vt 0.556275 1.250735
vt 2.213187 1.052409
vt 0.556284 1.049770
vt 0.556285 1.250720
vt 2.414685 1.052408
vt 2.989961 1.052410
vt 2.847121 1.052409
vt 2.630900 1.052409
vt 0.393352 0.408389
vt 0.393352 0.408389
vt 0.393352 0.408389
vt 0.393352 0.408389
vt 0.942981 4.476139
vt 0.393352 0.408389
vt 0.393352 0.408389
vt 0.393352 0.408389
vt -5.459852 5.380464
vt 0.393352 0.408389
vt 1.069332 -1.967523
vt 0.393352 0.408389
vt 0.393352 0.408389
vt 0.282447 1.332564
vt 0.282447 1.160605
vt 0.282523 1.332572
vt 0.282530 1.160613
vt 0.282523 1.160612
vt 0.282531 1.332573
vt 0.774272 1.160613
vt 0.774273 1.332573
vt 1.396416 1.357953
vt 1.473104 1.162300
vt 1.473104 2.033844
vt 1.611621 1.162300
vt 1.611621 2.033844
vt 1.750142 1.162300
vt 1.841652 1.162299
vt 1.750142 2.033844
vt 1.233149 2.033844
vt 1.233149 1.162300
vt 1.344016 2.033844
vt 1.344016 1.162300
vt 2.838371 -8.089831
vt 9485.971680 0.000000
vt 9485.934570 0.000000
vt 55067648000.000000 0.000000
vt 0.700127 0.000000
vt 0.700051 0.000000
vt 0.597338 0.000000
vt 2.040132 1.052408
vt 2.044455 1.052412
vt 0.556183 1.250891
vt 0.556182 1.049940
vt -0.197822 1.250714
vt -0.197823 1.049771
vt 0.393352 0.408389
vt 0.393352 0.408389
vt -0.188896 2.032156
vt -0.193959 1.160613
vt -0.389546 2.032157
vt -0.389547 1.160613
vt 1.235663 2.033844
vt 1.235887 1.162299
vt 3.260327 1.160613
vt 3.260325 2.032157
vt 0.843468 1.160613
vt 0.808309 2.032158
vt -1.350868 -3.332175
vt -1.350869 -2.671677
vt -0.350869 -2.671676
vt -0.350870 -3.372730
vt 4.190875 0.000000
vt 2.704231 0.000000
vt 2.750826 0.000000
vt -0.586497 -19.518997
vt -0.586497 -14.956256
vt -0.586497 -14.956256
vt 1.405617 -4.183156
vt 1.405616 -4.110968
vt 1.405617 -4.218962
vt 1.405616 -4.110968
vt -0.492874 1.049770
vt 1.434690 1.049770
vt 11256434688.000000 0.000000
vt 0.700423 0.000000
vt 0.700347 0.000000
vt 0.597634 0.000000
vt 0.003262 0.562850
vt 0.045747 0.582756
vt -244357939200.000000 0.000000
vt 9459.660156 0.000000
vt 9356.657227 0.000000
vt -49716252672.000000 0.000000
vt 9382.928711 0.000000
vt 9382.966797 0.000000
vt 0.393352 0.408389
vt 0.393352 0.408389
vt 3.260327 1.160613
vt 3.260325 2.032157
vt 5.203761 1.049769
vt 5.203264 1.250734
vt 3.231483 0.916078
vt 3.196194 0.916078
vt 3.196227 1.969447
vt 3.231484 1.999990
vt 2.430595 1.969447
vt -0.216327 1.969447
vt -0.216327 1.999990
vt 2.430596 1.999990
vt 2.886102 2.169807
vt 2.886102 2.142834
vt 2.174630 2.142834
vt 2.174630 2.169807
vt 3.012619 1.843976
vt -0.285051 0.664966
vt -0.285051 0.691939
vt 2.814919 1.837196
vt 2.228433 1.613303
vt 2.830372 1.843219
vt 2.660562 1.842656
vt 0.393352 0.408389
vt 0.393352 0.408389
vt 0.393352 0.408389
vt 0.393352 0.408389
vt -6.219619 6.816107
vt 0.393352 0.408389
vt 0.393352 0.408389
vt 0.393352 0.408389
vt -7.998365 12.695366
vt -5.340844 5.718344
vt 0.393352 0.408389
vt 0.393352 0.408389
vt 0.393352 0.408389
vt -5.918858 -0.162613
vt -7.694336 3.357024
vt 1.958231 6.210704
vt 1.964392 1.277660
vt 1.940666 -2.508895
vt 0.453446 1.160613
vt 0.048188 1.160613
vt 0.048188 1.354256
vt 0.453446 1.354256
vt 0.191529 1.250734
vt 0.825067 1.250734
vt 1.539279 0.032234
vt -0.977337 0.032234
vt -0.977337 1.992272
vt -0.143307 1.277122
vt -0.132719 1.098419
vt 0.513146 1.263000
vt 0.490744 1.098400
vt 0.513116 1.262780
vt 0.490714 1.098180
vt 0.516046 1.284310
vt 0.490714 1.098180
vt -0.143293 1.276884
vt -0.132705 1.098180
vt -0.132705 1.098180
vt -0.144678 1.300258
vt 5.396558 5.521621
vt 3.055784 0.391177
vt 5.391980 6.888044
vt 0.691342 0.961940
vt 3.060632 -0.974451
vt 0.048188 1.160613
vt 1.218027 1.334358
vt 0.843751 1.334359
vt 0.453446 1.354256
vt 0.048188 1.354256
vt 0.453446 1.160613
vt 0.191529 1.250738
vt 0.191443 1.049770
vt 0.191443 1.049773
vt 0.824990 1.049770
vt 0.825067 1.250737
vt 0.824989 1.049770
vt 1.669690 1.603556
vt 2.788387 1.603556
vt 2.788387 1.537423
vt 1.669690 1.538060
vt 0.999996 1.999985
vt 1.999996 1.999987
vt 2.015427 1.047238
vt 0.975653 1.047236
vt 1.539278 1.992272
vt 2.003380 1.387735
vt 2.361740 1.334358
vt 2.361740 1.160613
vt 0.819626 1.160613
vt 1.988490 1.160613
vt 1.988490 1.334358
vt 1.542297 2.368481
vt 1.542297 1.387735
vt 2.877629 2.309477
vt 1.751748 2.020033
vt 1.362558 2.020032
vt 1.679156 2.020032
vt 1.362507 2.020032
vt 1.751527 2.020032
vt 1.678953 2.020033
vt 1.362318 2.020032
vt 1.362245 2.020033
vt -2.428866 1.160600
vt -2.428118 1.160615
vt -2.428866 2.032145
vt 1.218027 1.160613
vt -2.428122 2.032140
vt 3.220397 1.049769
vt 3.220082 1.250734
vt 1.397469 1.250734
vt 1.397402 1.049770
vt 3.802092 1.250733
vt 3.802518 1.049769
vt 1.589318 0.882804
vt 1.454284 1.828174
vt 1.414771 0.936437
vt 1.451334 0.805224
vt 1.495239 0.882804
vt 1.453928 0.936437
vt 1.587588 1.827951
vt 1.416876 1.827900
vt 1.415486 0.917075
vt -3.673646 1.049749
vt -3.675447 1.250639
vt -3.674876 1.049733
vt -3.674229 1.250634
vt 2.018697 1.250734
vt 1.669689 1.085559
vt 1.197911 1.841814
vt 1.584934 1.042796
vt 1.197915 1.042796
vt 1.584930 1.841813
vt 1.584380 1.145039
vt 1.197914 1.130180
vt 1.510831 2.368481
vt 1.510826 1.387735
vt 1.510831 1.107498
vt 1.510837 1.387735
vt 1.510831 2.771629
vt 1.510837 2.368482
vt 1.881965 1.250734
vt -1.896173 1.250700
vt 2.349671 1.401577
vt 1.692528 1.468717
vt 2.348325 1.471326
vt 1.692532 1.398095
vt -5.340844 5.718344
vt -3.241113 -5.996376
vt -6.080942 -5.789495
vt 0.691342 0.961940
vt 1.362557 2.020033
vt 1.751748 2.020033
vt 1.362245 2.020033
vt 1.751527 2.020032
vt 0.691342 0.961940
vt 1.362558 2.020032
vt 1.751748 2.020033
vt 1.362245 2.020033
vt 1.751527 2.020032
vt 1.667041 2.000000
vt 1.327997 1.999893
vt 3.012618 1.881797
vt 1.454638 0.805567
vt 1.415486 0.805567
vt 1.448666 0.973531
vt 1.670021 1.000000
vt 1.327980 1.000462
vt 1.327916 1.128443
vt 1.669638 1.128430
vt 5.203264 1.250734
vt -51.601021 -41.285194
vt -11.737172 -8.970336
vt 0.038057 0.580386
vt -49.154755 -39.302177
vt -9.290916 -6.987322
vt 0.040663 0.581608
vt -49.154755 -39.302177
vt -9.290917 -6.987321
vt 0.597634 0.000000
vt 0.700347 0.000000
vt 0.700423 0.000000
vt 11256434688.000000 0.000000
vt 9382.928711 0.000000
vt 9382.966797 0.000000
vt 9356.657227 0.000000
vt -49716252672.000000 0.000000
vt 0.040820 0.581682
vt -0.001666 0.561774
vt 1.735266 1.112047
vt -0.216068 0.706414
vt -0.146718 1.969447
vt -0.220366 0.730804
vt -0.150845 1.999990
vt 2.106504 1.586567
vt -17.977425 1.982408
vt -17.983629 0.940564
vt 9382.966797 0.000000
vt 9382.928711 0.000000
vt -49716252672.000000 0.000000
vt 9356.657227 0.000000
vt 0.700347 0.000000
vt 0.597634 0.000000
vt 11256434688.000000 0.000000
vt 0.700423 0.000000
vt -0.285051 0.664966
vt -0.285051 0.691939
vt 2.141294 1.591019
vt 0.393352 0.408389
vt -0.349595 -3.609568
vt 0.393352 0.408389
vt -1.345688 -3.597820
vt 1.137290 1.223824
vt 1.568406 -8.083221
vt 1.133373 2.714612
vt 1.565395 -7.046339
vt 1.398878 1.448601
vt 1.596609 1.448602
vt 1.398878 1.731783
vt 1.596609 1.731784
vn 1.000000 -0.000001 0.000000
vn 1.000000 0.000001 0.000000
vn -0.000001 -1.000000 0.000000
vn 0.000001 -1.000000 0.000000
vn -0.000001 1.000000 0.000000
vn -1.000000 0.000001 0.000000
vn 0.000001 1.000000 0.000000
vn -1.000000 -0.000001 0.000000
vn 0.000000 -0.000000 1.000000
vn -0.999988 0.000255 0.004800
vn 1.000000 0.000000 0.000000
vn 0.707107 0.000000 0.707106
vn 1.000000 0.000000 0.000000
vn 0.707106 0.000000 0.707107
vn -0.708054 -0.706158 0.000000
vn -0.707564 0.000019 0.706650
vn -0.999999 0.000027 -0.001260
vn -0.301511 -0.301511 0.904534
vn 0.705629 -0.708574 0.003327
vn 0.577421 0.577386 0.577244
vn 1.000000 -0.000001 0.000000
vn 1.000000 0.000001 0.000000
vn -0.001212 -0.999999 0.000000
vn -0.001212 -0.999999 0.000000
vn -0.000001 1.000000 0.000000
vn 0.000001 1.000000 0.000000
vn -1.000000 0.000001 0.000000
vn -1.000000 -0.000001 0.000000
vn 1.000000 0.000001 0.000000
vn -0.001212 0.999999 0.000000
vn 1.000000 -0.000001 0.000000
vn -0.001212 0.999999 0.000000
vn -1.000000 -0.000001 0.000000
vn -0.000001 -1.000000 0.000000
vn -1.000000 0.000001 0.000000
vn 0.000001 -1.000000 0.000000
vn 0.047129 -0.000993 0.998888
vn 0.001983 0.002383 0.999995
vn -0.000592 0.000615 1.000000
vn 0.000294 -0.000238 1.000000
vn 0.000035 -0.000421 1.000000
vn -0.000325 0.001089 0.999999
vn 0.000183 -0.001732 0.999999
vn 0.000852 0.000037 1.000000
vn 0.000754 -0.000178 1.000000
vn 0.000497 -0.000279 1.000000
vn -0.000000 -0.000000 1.000000
vn -0.258830 -0.965923 -0.000255
vn -0.258835 -0.965922 0.000000
vn -0.000002 -1.000000 -0.000264
vn 0.243519 -0.969896 -0.000255
vn 0.353258 -0.935526 -0.000246
vn 0.904534 -0.301511 -0.301511
vn -0.495735 -0.868474 0.000000
vn -0.495682 -0.868504 -0.000178
vn 0.948679 -0.000056 -0.316241
vn -0.999999 -0.001358 -0.000125
vn -0.999990 0.004526 0.000066
vn -0.999979 0.006479 0.000002
vn -0.934940 -0.354805 0.000000
vn -0.000000 0.000000 1.000000
vn 0.707448 -0.706765 -0.000149
vn 0.002087 0.446534 0.894764
vn 0.707105 -0.707108 0.000005
vn 1.000000 -0.000110 0.000000
vn -0.707216 0.000000 0.706998
vn -0.220375 0.000000 0.975415
vn -0.744620 -0.667489 -0.000102
vn -0.495584 -0.868560 -0.000458
vn -0.258846 -0.965918 -0.000509
vn 0.353257 -0.935526 -0.000492
vn 0.243532 -0.969893 -0.000511
vn -0.000002 -1.000000 -0.000527
vn -0.999990 0.004398 0.000002
vn -0.999979 0.006479 0.000003
vn -0.999938 0.001063 0.011118
vn 0.000000 -0.000000 1.000000
vn 0.000000 0.000000 1.000000
vn 0.000000 -0.000000 1.000000
vn 0.000000 -0.000000 1.000000
vn -0.000002 -1.000000 0.000000
vn 0.243524 -0.969895 0.000000
vn 0.353258 -0.935526 0.000000
vn -0.602271 -0.798292 0.000000
vn -0.741639 -0.670799 -0.000068
vn 0.904521 0.301515 -0.301547
vn 0.904505 -0.301566 -0.301544
vn 0.707107 0.000000 -0.707107
vn 0.577350 -0.577350 -0.577350
vn -0.999990 0.004536 0.000091
vn 0.000000 -1.000000 0.000000
vn -0.707267 -0.706947 0.000000
vn -0.577350 -0.577350 0.577350
vn -0.165423 -0.660705 0.732191
vn 0.707109 -0.707105 0.000006
vn 0.707112 -0.707102 0.000012
vn 0.707103 -0.707111 0.000010
vn 1.000000 -0.000004 0.000000
vn 1.000000 -0.000002 0.000001
vn -0.999990 0.004338 -0.000909
vn -0.000162 -1.000000 -0.000040
vn 1.000000 -0.000110 0.000000
vn 0.707071 -0.707143 0.000009
vn 0.707098 0.707116 0.000005
vn 0.000000 -1.000000 0.000000
vn 0.000000 1.000000 0.000000
vn 0.000000 0.707107 -0.707107
vn 0.000000 -0.707107 -0.707107
vn -0.947579 0.319521 -0.000000
vn -0.012801 -0.711170 0.702903
vn -0.859999 -0.510296 -0.000005
vn 0.000000 0.000000 1.000000
vn 0.000354 -0.000183 1.000000
vn 0.000391 -0.000183 1.000000
vn 0.004995 -0.006086 0.999969
vn 0.001605 -0.000187 0.999999
vn 0.001605 -0.000252 0.999999
vn 1.000000 0.000000 0.000000
vn -0.855366 -0.518024 -0.000137
vn 0.707101 0.707113 -0.000009
vn 1.000000 -0.000021 -0.000049
vn -0.000000 0.000000 1.000000
vn -0.000000 -0.000000 1.000000
vn -0.000032 -0.707117 0.707096
vn -0.000007 -1.000000 0.000008
vn -0.999990 0.004365 -0.001027
vn 0.000000 1.000000 0.000000
vn -0.000000 0.707107 0.707106
vn 1.000000 0.000000 0.000000
vn 1.000000 0.000000 0.000002
vn 0.301498 -0.301545 0.904527
vn 0.707099 0.707114 0.000001
vn -0.613458 -0.789728 -0.000187
vn -1.000000 -0.000000 0.000000
vn -1.000000 -0.000000 -0.000000
vn -1.000000 -0.000000 -0.000000
vn -1.000000 -0.000000 0.000000
vn -1.000000 -0.000000 0.000000
vn -1.000000 -0.000000 0.000000
vn -1.000000 -0.000000 0.000000
vn -1.000000 -0.000000 0.000000
vn -1.000000 -0.000000 0.000000
vn -1.000000 -0.000000 -0.000000
vn -1.000000 -0.000000 -0.000000
vn -1.000000 -0.000000 0.000000
vn -0.947579 -0.319521 0.000000
vn -0.906479 0.296855 0.300287
vn -0.012801 0.711170 0.702904
vn -0.906479 -0.296855 0.300287
vn 0.001729 -0.000688 0.999998
vn 0.000469 0.000251 1.000000
vn -0.000135 0.000891 1.000000
vn 0.000422 0.003611 0.999993
vn 0.000453 -0.000078 1.000000
vn 0.000000 0.000000 1.000000
vn 0.000000 0.000000 1.000000
vn -0.000000 -0.000000 1.000000
vn -0.000000 0.000000 1.000000
vn 0.000000 0.000000 1.000000
vn 0.003349 0.000913 0.999994
vn 0.000000 0.000000 1.000000
vn -0.000000 0.000000 1.000000
vn -0.000000 0.000000 1.000000
vn 0.301511 0.301514 0.904533
vn -0.002952 -0.000000 0.999996
vn -0.002952 -0.000000 0.999996
vn -0.002952 -0.000000 0.999996
vn -0.002952 -0.000000 0.999996
vn -1.000000 -0.000000 0.000000
vn -1.000000 -0.000000 0.000000
vn 0.000000 1.000000 0.000000
vn 0.000000 1.000000 0.000000
vn 0.000000 -1.000000 0.000000
vn 0.000000 -1.000000 0.000000
vn -1.000000 -0.000000 0.000000
vn 0.000000 -1.000000 0.000000
vn 0.000000 0.000000 1.000000
vn 0.000000 0.000000 1.000000
vn 0.000000 0.000000 1.000000
vn 0.000000 0.000000 1.000000
vn 0.010650 0.001244 0.999943
vn 0.000275 -0.000337 1.000000
vn 0.000579 0.001947 0.999998
vn 0.001635 -0.000213 0.999999
vn 0.000292 -0.000203 1.000000
vn 0.002859 0.000207 0.999996
vn 0.000939 -0.000811 0.999999
vn 0.002991 -0.001536 0.999994
vn 0.000000 1.000000 0.000000
vn 0.000000 1.000000 0.000000
vn 0.000000 1.000000 0.000000
vn 0.000000 1.000000 0.000000
vn -1.000000 -0.000071 0.000000
vn 0.000000 1.000000 0.000000
vn 0.000000 1.000000 0.000000
vn 0.000000 1.000000 0.000000
vn 0.000000 -1.000000 0.000000
vn -0.266525 0.789398 0.553005
vn -0.174005 -0.916171 0.361045
vn 0.000000 0.000000 1.000000
vn -1.000000 -0.000000 0.000000
vn -1.000000 -0.000000 0.000000
vn -1.000000 -0.000000 0.000000
vn 0.000000 1.000000 0.000000
vn 0.000000 1.000000 0.000000
vn 0.000000 1.000000 0.000000
vn 0.000000 -1.000000 0.000000
vn 0.000000 -1.000000 0.000000
vn 0.000000 -1.000000 0.000000
vn 0.000000 1.000000 0.000000
vn -0.701070 -0.019100 0.712837
vn -0.999741 -0.022735 -0.000528
vn 0.001118 -0.707446 0.706766
vn 0.000676 -0.999999 -0.001384
vn 0.001536 -0.999999 -0.000615
vn 0.000000 -1.000000 0.000000
vn 0.000000 -1.000000 0.000000
vn -1.000000 -0.000071 0.000000
vn -1.000000 -0.000071 0.000000
vn -1.000000 -0.000071 0.000000
vn -1.000000 -0.000071 0.000000
vn -1.000000 -0.000071 0.000000
vn 0.000000 1.000000 0.000000
vn 0.000000 -1.000000 0.000000
vn 0.000000 -1.000000 0.000000
vn 0.000000 -1.000000 0.000000
vn 0.000000 1.000000 0.000000
vn 0.000000 0.000000 1.000000
vn 0.000000 0.000000 1.000000
vn 0.000000 0.000000 1.000000
vn 0.000000 0.000000 1.000000
vn -1.000000 -0.000000 0.000000
vn -1.000000 -0.000000 -0.000000
vn -1.000000 -0.000000 0.000000
vn -1.000000 -0.000000 -0.000000
vn 0.000000 -1.000000 0.000000
vn -0.999977 -0.001233 0.006676
vn -0.706353 -0.707858 -0.001607
vn 0.000000 0.000000 1.000000
vn 0.000000 0.000000 1.000000
vn 0.000006 -1.000000 0.000000
vn 0.000000 -1.000000 -0.000001
vn -0.705979 -0.708229 -0.002316
vn -0.999999 -0.001486 -0.000122
vn -0.948577 -0.316516 -0.004422
vn -0.999991 -0.003566 -0.002358
vn 0.000000 0.000000 1.000000
vn 0.000000 -1.000000 0.000000
vn -0.999996 0.002658 0.001039
vn 0.000000 -1.000000 0.000000
vn -0.708518 -0.705689 0.002105
vn 0.000000 -1.000000 0.000000
vn 0.000000 -1.000000 0.000000
vn -0.707622 -0.706590 0.001092
vn 0.000000 -1.000000 0.000000
vn -0.949485 -0.313811 0.000146
vn -0.999996 0.002744 0.000649
vn -0.999997 0.002424 -0.000146
vn 0.000000 -1.000000 -0.000001
vn -0.000042 -1.000000 -0.000000
vn 0.000000 0.000000 1.000000
vn 0.000000 0.000000 1.000000
vn 0.000000 0.000000 1.000000
vn 0.000000 -1.000000 0.000000
vn -0.999980 0.002678 0.005752
vn 0.000000 -1.000000 0.000000
vn -0.999996 0.002627 0.000459
vn -0.999992 0.002754 0.003005
vn -0.903487 -0.309411 0.296609
vn 0.701200 -0.712950 0.004599
vn -0.699272 -0.714855 -0.000388
vn 0.724318 -0.689463 -0.001921
vn -0.707467 -0.706746 -0.000545
vn 0.715240 -0.698878 -0.000328
vn 0.704833 -0.709373 0.000606
vn -0.707493 -0.706721 0.000135
vn -0.598927 -0.800803 -0.000082
vn -0.740962 -0.671547 -0.000052
vn -0.964390 -0.264485 0.000171
vn -1.000000 0.000001 0.000182
vn -0.963134 -0.269024 -0.000021
vn -0.999905 -0.013751 0.000030
vn -0.598367 -0.801222 -0.000476
vn -0.743731 -0.668479 -0.000065
vn -1.000000 0.000001 0.000182
vn -0.025319 -0.999680 -0.000061
vn -0.721353 -0.692565 -0.001856
vn 0.077016 -0.996998 0.007990
vn -0.723864 -0.689934 -0.003409
vn -0.575506 -0.817792 0.002860
vn -0.024292 -0.999703 0.001770
vn 1.000000 0.000255 0.000000
vn 0.707139 -0.707075 0.000000
vn 0.707139 -0.707075 0.000000
vn 1.000000 0.000255 0.000000
vn 0.707072 -0.707141 0.000000
vn 0.707199 0.707015 0.000000
vn -0.707102 -0.707112 0.000000
vn -0.707161 -0.707052 0.000000
vn 0.000000 -1.000000 0.000000
vn 0.000000 -1.000000 0.000000
vn 0.000000 -1.000000 0.000000
vn 0.000000 -1.000000 0.000000
vn -0.577346 -0.577354 0.577351
vn 0.577319 -0.577376 0.577355
vn -0.301566 -0.301520 0.904513
vn 0.577424 0.577273 0.577354
vn -0.999990 0.004369 -0.001046
vn -0.999990 0.004343 -0.000928
vn -0.000121 -1.000000 -0.000021
vn 0.000000 -1.000000 0.000000
vn 0.000000 -1.000000 0.000000
vn -0.000096 -1.000000 0.000000
vn -0.000072 -1.000000 0.000000
vn 0.000006 -1.000000 0.000000
vn -0.000073 -1.000000 0.000000
vn 0.000071 1.000000 0.000000
vn -0.167181 0.660279 0.732176
vn -0.167294 -0.660227 0.732198
vn 0.000000 1.000000 0.000000
vn 0.000000 0.707107 0.707107
vn 0.000000 0.000000 1.000000
vn -0.707119 0.707095 0.000000
vn -0.707091 -0.707122 0.000000
vn -0.577361 0.577341 0.577348
vn -0.577334 -0.577360 0.577357
vn -1.000000 0.000001 0.000000
vn -1.000000 -0.000001 0.000000
vn 1.000000 0.000001 0.000000
vn 1.000000 -0.000001 0.000000
vn 0.000001 1.000000 0.000000
vn -0.000001 1.000000 0.000000
vn -0.000001 -1.000000 0.000000
vn 0.000001 -1.000000 0.000000
vn 0.001148 -0.999999 -0.001280
vn 0.000000 -1.000000 0.000000
vn -0.143166 -0.760235 0.633677
vn -0.220372 0.000000 0.975416
vn -0.000007 -0.999998 -0.001843
vn 0.000000 -1.000000 0.000000
vn 0.000000 -1.000000 0.000000
vn -1.000000 0.000001 0.000000
vn -1.000000 -0.000001 0.000000
vn 1.000000 0.000001 0.000000
vn 1.000000 -0.000001 0.000000
vn 0.000001 1.000000 0.000000
vn -0.000001 1.000000 0.000000
vn -0.000001 -1.000000 0.000000
vn 0.000001 -1.000000 0.000000
vn -1.000000 0.000000 0.000000
vn 0.000024 -1.000000 -0.000021
vn 0.000038 -0.999999 -0.001033
vn 0.000024 -1.000000 -0.000021
vn 0.000003 -0.999998 -0.002183
vn 0.002156 0.002804 0.999994
vn 0.000526 0.000193 1.000000
vn 0.000000 0.000000 1.000000
vn 0.000000 0.000000 1.000000
vn -0.001744 -0.999998 0.000046
vn -0.001659 -0.999999 0.000017
vn -0.002553 -0.999997 0.000034
vn -0.001531 -0.999999 -0.000094
g fff08f90_00179_0065cd6c_e32
f 295/62/295 294/12/294 293/11/293
f 293/11/293 292/10/292 295/62/295
f 314/61/314 294/60/294 293/59/293
f 293/59/293 313/58/313 314/61/314
f 312/124/312 314/61/314 313/58/313
f 313/58/313 311/123/311 312/124/312
f 341/436/341 312/124/312 311/123/311
f 311/123/311 340/435/340 341/436/341
g fff08f90_00179_0065cd6c_e7
f 299/16/299 298/15/298 304/23/304
f 304/23/304 306/25/306 299/16/299
f 305/24/305 297/14/297 307/26/307
f 297/14/297 305/24/305 296/13/296
f 297/68/297 317/67/317 318/76/318
f 318/76/318 307/78/307 297/68/297
f 319/77/319 299/66/299 306/79/306
f 299/66/299 319/77/319 316/65/316
f 198/75/198 318/76/318 317/67/317
f 317/67/317 192/64/192 198/75/198
f 199/137/199 316/65/316 319/77/319
f 316/65/316 199/137/199 315/63/315
f 36/235/36 35/234/35 34/233/34
f 35/234/35 36/235/36 33/232/33
f 8/132/8 7/131/7 6/130/6
f 7/131/7 8/132/8 5/129/5
f 6/128/6 4/127/4 8/126/8
f 4/127/4 6/128/6 3/125/3
f 32/189/32 31/188/31 30/187/30
f 31/188/31 32/189/32 29/186/29
f 30/185/30 28/184/28 32/231/32
f 28/184/28 30/185/30 27/230/27
f 304/229/304 296/13/296 305/24/305
f 296/13/296 304/229/304 298/228/298
f 33/227/33 26/226/26 35/225/35
f 26/226/26 33/227/33 25/224/25
f 146/303/146 109/303/109 145/303/145
f 144/303/144 145/303/145 109/303/109
f 145/299/145 143/298/143 149/297/149
f 149/297/149 146/296/146 145/299/145
f 147/303/147 143/303/143 142/303/142
f 143/303/143 147/303/147 149/303/149
f 142/295/142 144/294/144 147/293/147
f 109/292/109 147/293/147 144/294/144
f 325/415/325 321/412/321 320/411/320
f 320/411/320 323/414/323 325/415/325
f 334/424/334 327/423/327 333/426/333
f 327/423/327 334/424/334 328/425/328
f 326/418/326 325/415/325 323/414/323
f 323/414/323 324/417/324 326/418/326
f 331/420/331 328/419/328 332/422/332
f 328/419/328 331/420/331 327/421/327
f 324/428/324 315/63/315 199/137/199
f 199/137/199 326/427/326 324/428/324
f 349/437/349 342/438/342 348/439/348
f 342/438/342 349/437/349 343/440/343
f 346/441/346 343/442/343 347/443/347
f 343/442/343 346/441/346 342/444/342
g fff08f90_00179_0065cd6c_e41
f 226/380/226 225/20/225 224/19/224
f 224/19/224 197/379/197 226/380/226
f 196/18/196 195/17/195 223/378/223
f 223/378/223 194/377/194 196/18/196
f 222/376/222 221/333/221 220/332/220
f 220/332/220 193/375/193 222/376/222
g fff08f90_00179_0065cd6c_e10
f 303/136/303 302/135/302 301/134/301
f 301/134/301 300/133/300 303/136/303
g fff08f90_00179_0065cd6c_e50
f 281/74/281 280/22/280 279/73/279
f 285/21/285 279/73/279 280/22/280
f 278/72/278 284/71/284 277/70/277
f 278/72/278 281/74/281 279/73/279
f 284/71/284 278/72/278 279/73/279
f 284/71/284 283/69/283 277/70/277
g fff08f90_00179_0065cd6c_e8
f 325/415/325 326/416/326 321/412/321
f 322/413/322 321/412/321 326/416/326
f 307/26/307 306/25/306 305/24/305
f 304/23/304 305/24/305 306/25/306
f 306/79/306 307/78/307 319/77/319
f 318/76/318 319/77/319 307/78/307
f 319/77/319 318/76/318 199/137/199
f 198/75/198 199/137/199 318/76/318
f 149/303/149 148/303/148 110/303/110
f 148/303/148 149/303/149 147/303/147
g fff08f90_00179_0065cd6c_e3
f 213/386/213 211/385/211 200/384/200
f 213/386/213 269/383/269 211/385/211
f 238/34/238 289/364/289 290/365/290
f 237/86/237 76/85/76 10/382/10
f 244/84/244 237/86/237 10/382/10
f 59/410/59 58/381/58 75/122/75
f 74/83/74 75/122/75 58/381/58
f 10/382/10 76/85/76 265/195/265
f 265/195/265 268/194/268 10/382/10
f 289/364/289 238/34/238 243/82/243
f 51/33/51 50/32/50 73/149/73
f 72/148/72 71/147/71 51/33/51
f 52/31/52 51/33/51 71/147/71
f 73/149/73 72/148/72 51/33/51
f 50/32/50 48/30/48 70/146/70
f 70/146/70 73/149/73 50/32/50
f 265/195/265 254/145/254 268/194/268
f 251/144/251 254/145/254 265/195/265
f 48/30/48 55/29/55 69/143/69
f 69/143/69 70/146/70 48/30/48
f 264/193/264 266/192/266 255/142/255
f 255/142/255 250/141/250 264/193/264
f 85/28/85 68/191/68 55/29/55
f 85/28/85 119/27/119 111/190/111
f 250/141/250 255/142/255 254/145/254
f 254/145/254 251/144/251 250/141/250
f 68/191/68 85/28/85 111/190/111
f 68/191/68 69/143/69 55/29/55
f 257/140/257 249/139/249 58/381/58
f 249/139/249 74/83/74 58/381/58
f 338/433/338 337/431/337 67/249/67
f 337/431/337 94/246/94 67/249/67
f 337/431/337 66/248/66 93/247/93
f 66/248/66 337/431/337 338/433/338
f 12/245/12 67/249/67 94/246/94
f 94/246/94 18/244/18 12/245/12
f 12/245/12 16/243/16 14/242/14
f 16/243/16 12/245/12 18/244/18
f 259/171/259 248/138/248 236/81/236
f 236/81/236 242/100/242 259/171/259
f 259/171/259 238/80/238 248/138/248
f 238/80/238 259/171/259 243/103/243
g fff08f90_00179_0065cd6c_e0
f 156/91/156 61/277/61 357/452/357
f 356/450/356 186/150/186 154/159/154
f 153/152/153 160/151/160 355/448/355
f 116/45/116 186/150/186 184/236/184
f 186/150/186 116/45/116 154/159/154
f 184/236/184 186/150/186 46/266/46
f 38/261/38 160/151/160 153/152/153
f 186/261/186 187/196/187 46/267/46
f 164/89/164 157/48/157 123/334/123
f 157/48/157 122/39/122 123/334/123
f 163/115/163 128/38/128 123/52/123
f 160/151/160 38/261/38 63/266/63
f 160/261/160 63/268/63 188/197/188
f 131/90/131 61/40/61 158/93/158
f 162/114/162 131/35/131 124/37/124
f 123/52/123 128/88/128 164/87/164
f 162/113/162 61/53/61 131/36/131
f 161/183/161 162/114/162 124/37/124
f 156/91/156 158/97/158 61/277/61
f 112/41/112 358/454/358 122/39/122
f 157/48/157 112/41/112 122/39/122
g fff08f90_00179_0065cd6c_e47
f 159/98/159 47/278/47 158/97/158
f 47/278/47 9/96/9 80/277/80
f 185/237/185 184/236/184 46/266/46
f 45/276/45 157/48/157 164/95/164
f 45/276/45 20/47/20 44/94/44
f 117/275/117 43/274/43 42/265/42
f 80/304/80 158/93/158 47/92/47
f 183/162/183 41/264/41 42/263/42
f 41/264/41 182/161/182 40/262/40
f 20/46/20 39/273/39 44/272/44
f 156/91/156 155/160/155 158/97/158
f 116/45/116 40/262/40 154/159/154
f 39/273/39 20/46/20 63/271/63
f 181/158/181 42/265/42 43/274/43
f 39/273/39 38/44/38 153/157/153
f 44/272/44 39/273/39 152/156/152
f 115/270/115 181/158/181 43/274/43
f 180/303/180 231/303/231 179/303/179
f 231/303/231 180/303/180 178/303/178
f 230/342/230 229/341/229 180/340/180
f 180/340/180 179/339/179 230/342/230
f 229/341/229 228/338/228 178/337/178
f 178/337/178 180/340/180 229/341/229
f 240/336/240 177/335/177 239/338/239
f 178/337/178 228/338/228 231/335/231
f 209/399/209 208/342/208 207/339/207
f 208/342/208 209/399/209 176/398/176
f 227/335/227 206/336/206 205/397/205
f 204/396/204 205/397/205 206/336/206
f 203/395/203 202/303/202 201/303/201
f 202/303/202 203/395/203 175/395/175
f 174/394/174 176/398/176 209/399/209
f 176/398/176 174/394/174 173/393/173
f 205/397/205 204/396/204 172/392/172
f 171/391/171 172/392/172 204/396/204
f 170/390/170 175/395/175 203/395/203
f 175/395/175 170/390/170 169/390/169
f 117/275/117 42/265/42 114/269/114
f 181/155/181 183/162/183 42/263/42
f 152/156/152 39/273/39 153/157/153
f 41/264/41 114/46/114 42/263/42
f 114/46/114 185/237/185 46/266/46
f 41/264/41 183/162/183 182/161/182
f 151/154/151 150/43/150 44/94/44
f 114/46/114 41/264/41 185/237/185
f 44/272/44 152/156/152 151/153/151
f 113/42/113 157/48/157 45/276/45
f 41/264/41 40/262/40 185/237/185
f 39/273/39 63/271/63 38/44/38
f 155/160/155 159/98/159 158/97/158
f 20/47/20 45/276/45 164/95/164
f 181/389/181 115/388/115 37/387/37
f 113/42/113 112/41/112 157/48/157
f 79/302/79 78/301/78 77/300/77
f 150/43/150 113/42/113 45/276/45
f 154/159/154 40/262/40 182/161/182
f 150/43/150 45/276/45 44/94/44
f 80/304/80 78/301/78 158/93/158
f 78/301/78 131/90/131 158/93/158
f 80/304/80 77/300/77 78/301/78
f 40/262/40 116/45/116 184/236/184
f 40/262/40 184/236/184 185/237/185
g fff08f90_00179_0065cd6c_e19
f 60/112/60 90/111/90 59/110/59
f 58/109/58 59/110/59 90/111/90
f 10/108/10 57/107/57 246/50/246
f 287/347/287 246/50/246 57/107/57
f 99/310/99 89/309/89 88/308/88
f 121/207/121 87/307/87 56/282/56
f 103/206/103 56/282/56 87/307/87
f 120/205/120 132/204/132 86/306/86
f 120/205/120 86/306/86 121/207/121
f 86/306/86 132/204/132 104/346/104
f 85/203/85 55/182/55 54/181/54
f 85/203/85 84/202/84 119/180/119
f 129/201/129 118/200/118 53/281/53
f 87/307/87 121/207/121 86/306/86
f 84/202/84 85/203/85 54/181/54
f 84/202/84 60/179/60 119/180/119
f 53/281/53 56/282/56 88/308/88
f 88/308/88 89/309/89 53/281/53
f 268/199/268 57/107/57 10/108/10
f 57/107/57 268/199/268 267/198/267
f 95/305/95 89/309/89 99/310/99
f 129/201/129 53/281/53 64/280/64
f 83/106/83 82/178/82 52/177/52
f 51/176/51 52/177/52 82/178/82
f 82/178/82 81/175/81 50/174/50
f 50/174/50 51/176/51 82/178/82
f 81/175/81 49/173/49 48/172/48
f 48/172/48 50/174/50 81/175/81
f 49/173/49 54/181/54 55/182/55
f 55/182/55 48/172/48 49/173/49
f 62/401/62 19/408/19 359/456/359
f 291/409/291 286/400/286 360/457/360
f 286/345/286 289/344/289 287/347/287
f 289/344/289 286/345/286 291/343/291
f 53/281/53 118/200/118 56/282/56
f 65/279/65 56/282/56 103/206/103
f 56/282/56 118/200/118 121/207/121
f 245/49/245 287/347/287 289/344/289
f 10/108/10 246/50/246 244/105/244
f 246/50/246 287/347/287 245/49/245
f 243/104/243 245/49/245 289/344/289
f 243/103/243 260/102/260 245/101/245
f 260/102/260 243/103/243 259/171/259
f 242/100/242 241/99/241 260/102/260
f 260/102/260 259/171/259 242/100/242
f 258/170/258 58/109/58 90/111/90
f 258/170/258 257/169/257 58/109/58
f 267/198/267 268/199/268 256/168/256
f 256/168/256 258/170/258 90/111/90
f 255/167/255 256/168/256 254/166/254
f 256/168/256 255/167/255 253/165/253
f 266/164/266 253/165/253 255/167/255
f 253/165/253 266/164/266 252/163/252
f 268/199/268 254/166/254 256/168/256
f 267/198/267 256/168/256 90/111/90
f 132/204/132 120/205/120 210/239/210
f 210/239/210 189/238/189 132/204/132
f 359/456/359 19/408/19 360/457/360
f 62/401/62 359/456/359 361/458/361
f 360/457/360 286/400/286 362/459/362
f 291/409/291 360/457/360 19/408/19
f 361/458/361 362/459/362 286/400/286
f 62/401/62 361/458/361 286/400/286
g fff08f90_00179_0065cd6c_e52
f 356/451/356 355/449/355 186/208/186
f 355/449/355 160/211/160 186/208/186
f 186/208/186 160/211/160 187/209/187
f 160/211/160 188/210/188 187/209/187
f 162/113/162 122/51/122 61/53/61
f 122/51/122 358/455/358 357/453/357
f 162/114/162 163/115/163 123/52/123
f 123/52/123 122/51/122 162/113/162
f 122/51/122 357/453/357 61/53/61
f 163/115/163 162/114/162 161/183/161
f 247/116/247 263/119/263 262/118/262
f 262/118/262 261/117/261 247/116/247
g fff08f90_00179_0065cd6c_e2
f 282/405/282 276/362/276 271/361/271
f 212/360/212 282/405/282 271/361/271
f 272/404/272 270/403/270 19/359/19
f 269/358/269 276/362/276 282/405/282
f 133/357/133 273/404/273 276/362/276
f 276/362/276 269/358/269 133/357/133
f 19/359/19 275/356/275 272/404/272
f 275/356/275 19/359/19 62/355/62
f 62/355/62 274/361/274 275/356/275
f 212/360/212 211/354/211 282/405/282
f 269/358/269 282/405/282 211/354/211
f 104/367/104 164/120/164 128/353/128
f 128/353/128 127/352/127 104/367/104
f 95/311/95 97/313/97 96/312/96
f 96/312/96 64/283/64 95/311/95
f 308/55/308 309/402/309 126/257/126
f 91/252/91 94/253/94 336/430/336
f 126/257/126 309/402/309 100/254/100
f 93/256/93 336/430/336 337/432/337
f 18/221/18 17/220/17 16/219/16
f 17/220/17 18/221/18 15/218/15
f 14/217/14 13/216/13 12/215/12
f 11/214/11 12/213/12 13/212/13
f 91/252/91 15/251/15 18/250/18
f 18/250/18 94/253/94 91/252/91
f 131/351/131 103/350/103 125/349/125
f 125/349/125 124/348/124 131/351/131
f 336/430/336 93/256/93 92/255/92
f 337/432/337 336/430/336 94/253/94
f 66/446/66 92/255/92 93/256/93
f 92/255/92 66/446/66 350/445/350
f 215/320/215 335/429/335 133/319/133
f 133/319/133 269/318/269 215/320/215
f 269/318/269 213/317/213 215/320/215
f 215/320/215 214/368/214 335/429/335
g fff08f90_00179_0065cd6c_e1
f 276/374/276 275/373/275 274/372/274
f 273/371/273 272/370/272 275/373/275
f 275/373/275 276/374/276 273/371/273
f 274/372/274 271/369/271 276/374/276
f 352/258/352 101/260/101 339/434/339
f 189/241/189 63/240/63 20/122/20
f 20/122/20 132/410/132 189/241/189
f 132/410/132 20/122/20 104/367/104
f 104/367/104 20/122/20 164/121/164
f 103/57/103 131/223/131 102/316/102
f 102/316/102 65/284/65 103/57/103
f 291/366/291 290/365/290 289/364/289
f 291/409/291 19/408/19 270/407/270
f 288/406/288 291/409/291 270/407/270
f 290/365/290 291/366/291 288/363/288
f 101/260/101 351/259/351 310/56/310
f 351/259/351 353/55/353 310/56/310
f 352/258/352 339/434/339 354/447/354
f 101/260/101 310/56/310 339/434/339
f 99/315/99 98/314/98 97/313/97
f 64/283/64 96/312/96 130/222/130
f 130/222/130 129/54/129 64/283/64
f 97/313/97 95/311/95 99/315/99
g fff08f90_00179_0065cd6c_e44
f 168/324/168 167/323/167 166/322/166
f 166/322/166 165/321/165 168/324/168
g fff08f90_00179_0065cd6c_e49
f 235/4/235 234/3/234 233/2/233
f 233/2/233 232/1/232 235/4/235
f 141/325/141 140/287/140 139/286/139
f 139/286/139 138/285/138 141/325/141
f 137/285/137 136/325/136 235/4/235
f 235/4/235 232/1/232 137/285/137
f 135/286/135 137/285/137 232/1/232
f 232/1/232 233/2/233 135/286/135
f 134/287/134 135/286/135 233/2/233
f 233/2/233 234/3/234 134/287/134
f 136/325/136 134/287/134 234/3/234
f 234/3/234 235/4/235 136/325/136
g fff08f90_00179_0065cd6c_e15
f 219/326/219 220/332/220 221/333/221
f 220/332/220 219/326/219 218/9/218
f 217/8/217 224/19/224 225/20/225
f 224/19/224 217/8/217 216/7/216
f 195/17/195 196/18/196 191/6/191
f 190/5/190 191/6/191 196/18/196
g fff08f90_00179_0065cd6c_e9
f 2/132/2 3/131/3 1/130/1
f 3/131/3 2/132/2 4/129/4
f 5/127/5 1/128/1 7/125/7
f 1/128/1 5/127/5 2/126/2
f 24/189/24 27/188/27 23/187/23
f 27/188/27 24/189/24 28/186/28
f 29/184/29 23/185/23 31/230/31
f 23/185/23 29/184/29 24/231/24
f 22/227/22 34/226/34 21/225/21
f 34/226/34 22/227/22 36/224/36
f 25/235/25 21/234/21 26/233/26
f 21/234/21 25/235/25 22/232/22
f 147/293/147 109/292/109 148/291/148
f 106/290/106 148/291/148 109/292/109
f 110/289/110 105/288/105 146/296/146
f 146/296/146 149/297/149 110/289/110
f 329/419/329 333/420/333 330/421/330
f 333/420/333 329/419/329 334/422/334
f 332/424/332 330/423/330 331/426/331
f 330/423/330 332/424/332 329/425/329
f 344/442/344 348/441/348 345/444/345
f 348/441/348 344/442/344 349/443/349
f 347/437/347 345/438/345 346/439/346
f 345/438/345 347/437/347 344/440/344
g fff08f90_00179_0065cd6c_e20
f 108/331/108 125/330/125 103/329/103
f 103/329/103 87/307/87 108/331/108
f 64/280/64 53/281/53 89/309/89
f 89/309/89 95/305/95 64/280/64
f 127/328/127 107/327/107 86/306/86
f 86/306/86 104/346/104 127/328/127
f 87/307/87 86/306/86 107/327/107
f 107/327/107 108/331/108 87/307/87
