# fff02c13_00076_0020ed2e
o fff02c13_00076_0020ed2e
v 28.376011 11.134008 0.021072
v 22.398788 11.134058 0.021072
v 22.398788 15.605944 0.021072
v 28.376011 15.617014 0.021072
v 28.704456 11.241316 -0.014203
v 21.873463 11.241344 -0.014203
v 21.873463 15.370741 -0.014203
v 28.704456 15.381862 -0.014203
v 28.277439 11.844307 -0.014203
v 22.299961 11.869447 -0.014203
v 22.301252 14.854553 -0.014203
v 28.275337 14.858912 -0.014203
v -5.826273 -41.830322 6.050681
v -14.438554 -41.830322 6.050681
v -14.438554 -41.830322 -0.245106
v -5.826273 -41.830322 -0.260730
v 28.277439 11.844307 -0.014203
v 22.299961 11.869447 -0.014203
v 22.301252 14.854553 -0.014203
v 28.275337 14.858912 -0.014203
v 2.295199 -5.520881 4.423415
v -2.257995 -5.487251 4.423415
v -2.257995 -5.487251 0.525009
v 2.295199 -5.520881 0.515335
v 1.850850 -5.602176 3.781260
v -1.670261 -5.585552 4.140251
v -1.670261 -5.585552 3.980707
v 1.850850 -5.602176 3.621320
v 2.111781 -5.602175 3.683250
v 1.998699 -5.602175 3.570156
v 2.216156 -5.602175 3.467815
v 2.056234 -5.602175 3.467807
v 1.488864 -5.602175 0.997859
v 1.340981 -5.602175 1.058709
v 1.312652 -5.602175 0.729044
v 1.204917 -5.602175 0.847220
v 0.994896 -5.602175 0.584095
v 0.967780 -5.602175 0.741691
v -1.798530 -5.602175 1.031190
v -1.718262 -5.602175 1.169503
v -2.026681 -5.602175 1.213917
v -1.886979 -5.602175 1.291749
v -2.118038 -5.602175 1.481439
v -1.958262 -5.602175 1.488208
v -2.145403 -5.585556 3.748826
v -1.987000 -5.585556 3.729785
v -1.980075 -5.585556 4.019298
v -1.894752 -5.585556 3.884493
v -2.145403 -5.585556 3.748826
v -1.987000 -5.585556 3.729785
v -3.187180 1.055862 2.350117
v -2.934982 1.055862 2.350117
v -3.187180 0.711716 2.350117
v -2.934982 0.711716 2.350117
v -3.187180 1.055862 2.434315
v -2.934982 1.055862 2.434315
v -3.187180 0.711716 2.434315
v -2.934982 0.711716 2.434315
v 27.787144 14.015183 8.297372
v 23.233948 14.048813 8.297372
v 23.233948 14.048813 4.398965
v 27.787144 14.015183 4.389291
v 27.342793 13.933887 7.655216
v 23.821682 13.950512 8.014207
v 23.821682 13.950512 7.854663
v 27.342793 13.933887 7.495276
v 27.603725 13.933889 7.557206
v 27.490643 13.933889 7.444113
v 27.708099 13.933889 7.341771
v 27.548178 13.933889 7.341763
v 26.980808 13.933889 4.871815
v 26.832924 13.933889 4.932665
v 26.804594 13.933889 4.603001
v 26.696859 13.933889 4.721176
v 26.486839 13.933889 4.458052
v 26.459723 13.933889 4.615648
v 23.693413 13.933889 4.905147
v 23.773682 13.933889 5.043459
v 23.465261 13.933889 5.087873
v 23.604963 13.933889 5.165705
v 23.373905 13.933889 5.355395
v 23.533682 13.933889 5.362164
v 23.346540 13.950508 7.622782
v 23.504944 13.950508 7.603742
v 23.511868 13.950508 7.893254
v 23.597191 13.950508 7.758450
v 23.346540 13.950508 7.622782
v 23.504944 13.950508 7.603742
vt 1.000272 1.000003
vt 2.000000 1.004802
vt 1.999729 2.000003
vt 1.000000 1.997673
vt 1.374376 1.237261
vt 1.460594 1.592869
vt 1.460594 1.592869
vt 1.460594 1.592869
vt 1.460594 1.592869
vt 1.460594 1.592869
vt 1.460594 1.592869
vt 1.460594 1.592869
vt 1.460594 1.592869
vt 1.460594 1.592869
vt 1.460594 1.592869
vt 1.460594 1.592869
vt 1.460594 1.592869
vt 1.460594 1.592869
vt 1.460594 1.592869
vn 0.000000 0.000000 1.000000
vn 0.000000 0.000000 1.000000
vn 0.000000 0.000000 1.000000
vn 0.000000 0.000000 1.000000
vn 0.000000 0.000000 1.000000
vn 0.000000 0.000000 1.000000
vn 0.000000 0.000000 1.000000
vn 0.000000 0.000000 1.000000
vn 0.000000 0.000000 1.000000
vn 0.000000 0.000000 1.000000
vn 0.000000 0.000000 1.000000
vn 0.000000 0.000000 1.000000
vn 0.000000 1.000000 0.000000
vn 0.000000 1.000000 0.000000
vn 0.000000 1.000000 0.000000
vn 0.000000 1.000000 0.000000
vn 0.000000 0.000000 1.000000
vn 0.000000 0.000000 1.000000
vn 0.000000 0.000000 1.000000
vn 0.000000 0.000000 1.000000
vn 0.007386 0.999973 0.000000
vn 0.007386 0.999973 0.000000
vn 0.007386 0.999973 0.000000
vn 0.007386 0.999973 0.000000
vn 0.002735 0.999996 0.000001
vn 0.002594 0.999997 -0.000001
vn 0.002156 0.999998 0.000000
vn 0.002051 0.999998 0.000000
vn -0.000002 1.000000 0.000002
vn -0.000003 1.000000 0.000001
vn 0.000000 1.000000 0.000000
vn 0.000000 1.000000 0.000000
vn 0.000000 1.000000 0.000000
vn 0.000000 1.000000 0.000000
vn 0.000000 1.000000 0.000000
vn 0.000000 1.000000 0.000000
vn 0.000000 1.000000 0.000000
vn 0.000000 1.000000 0.000000
vn 0.000000 1.000000 0.000000
vn 0.000000 1.000000 0.000000
vn 0.000000 1.000000 0.000000
vn 0.000000 1.000000 0.000000
vn 0.000141 0.999992 -0.004040
vn 0.000145 0.999994 -0.003411
vn -0.000882 0.999973 -0.007340
vn -0.000832 0.999973 -0.007343
vn -0.000005 1.000000 -0.000003
vn -0.000005 1.000000 -0.000002
vn 0.000000 1.000000 0.000000
vn 0.000000 1.000000 0.000000
vn -0.707107 0.707107 0.000000
vn 0.707107 0.707107 0.000000
vn -0.707107 -0.707107 0.000000
vn 0.707107 -0.707107 0.000000
vn -0.577350 0.577350 0.577350
vn 0.577350 0.577350 0.577350
vn -0.577350 -0.577350 0.577350
vn 0.577350 -0.577350 0.577350
vn 0.007386 0.999973 0.000000
vn 0.007386 0.999973 0.000000
vn 0.007386 0.999973 0.000000
vn 0.007386 0.999973 0.000000
vn 0.002734 0.999996 0.000001
vn 0.002594 0.999997 -0.000001
vn 0.002155 0.999998 0.000000
vn 0.002049 0.999998 0.000000
vn -0.000003 1.000000 0.000003
vn -0.000004 1.000000 0.000002
vn 0.000000 1.000000 0.000000
vn 0.000000 1.000000 0.000000
vn 0.000000 1.000000 0.000000
vn 0.000000 1.000000 0.000000
vn 0.000000 1.000000 0.000000
vn 0.000000 1.000000 0.000000
vn 0.000000 1.000000 0.000000
vn 0.000000 1.000000 0.000000
vn 0.000000 1.000000 0.000000
vn 0.000000 1.000000 0.000000
vn 0.000000 1.000000 0.000000
vn 0.000000 1.000000 0.000000
vn 0.000141 0.999992 -0.004039
vn 0.000144 0.999994 -0.003411
vn -0.000882 0.999973 -0.007340
vn -0.000832 0.999973 -0.007343
vn -0.000005 1.000000 -0.000003
vn -0.000005 1.000000 -0.000002
vn 0.000000 1.000000 0.000000
vn 0.000000 1.000000 0.000000
g fff02c13_00076_0020ed2e_e8
f 4/1/4 3/2/3 2/3/2
f 4/1/4 2/3/2 1/4/1
f 8/5/8 17/5/17 5/5/5
f 17/5/17 6/5/6 5/5/5
f 8/5/8 20/5/20 17/5/17
f 19/5/19 7/5/7 18/5/18
f 17/5/17 18/5/18 6/5/6
f 18/5/18 7/5/7 6/5/6
f 16/1/16 15/2/15 14/3/14
f 16/1/16 14/3/14 13/4/13
f 12/5/12 11/5/11 10/5/10
f 12/5/12 10/5/10 9/5/9
f 8/5/8 7/5/7 19/5/19
f 8/5/8 19/5/19 20/5/20
g fff02c13_00076_0020ed2e_e12
f 24/1/24 22/3/22 21/4/21
f 24/1/24 23/2/23 22/3/22
f 28/6/28 26/6/26 25/6/25
f 28/6/28 27/6/27 26/6/26
f 25/6/25 30/7/30 28/6/28
f 30/7/30 25/6/25 29/7/29
f 29/7/29 32/8/32 30/7/30
f 32/8/32 29/7/29 31/8/31
f 31/8/31 34/9/34 32/8/32
f 34/9/34 31/8/31 33/9/33
f 33/9/33 36/10/36 34/9/34
f 36/10/36 33/9/33 35/10/35
f 35/10/35 38/11/38 36/10/36
f 38/11/38 35/10/35 37/11/37
f 37/11/37 40/12/40 38/11/38
f 40/12/40 37/11/37 39/12/39
f 39/12/39 42/13/42 40/12/40
f 42/13/42 39/12/39 41/13/41
f 41/13/41 44/14/44 42/13/42
f 44/14/44 41/13/41 43/14/43
f 43/14/43 46/15/46 44/14/44
f 46/15/46 43/14/43 45/15/45
f 48/16/48 26/6/26 27/6/27
f 26/6/26 48/16/48 47/16/47
f 50/17/50 47/16/47 48/16/48
f 47/16/47 50/17/50 49/17/49
f 55/18/55 58/19/58 56/18/56
f 58/19/58 55/18/55 57/19/57
f 52/13/52 51/13/51 55/18/55
f 55/18/55 56/18/56 52/13/52
f 51/13/51 53/14/53 57/19/57
f 57/19/57 55/18/55 51/13/51
f 54/14/54 52/13/52 56/18/56
f 56/18/56 58/19/58 54/14/54
f 53/14/53 54/14/54 58/19/58
f 58/19/58 57/19/57 53/14/53
f 62/1/62 60/3/60 59/4/59
f 62/1/62 61/2/61 60/3/60
f 66/6/66 64/6/64 63/6/63
f 66/6/66 65/6/65 64/6/64
f 63/6/63 68/7/68 66/6/66
f 68/7/68 63/6/63 67/7/67
f 67/7/67 70/8/70 68/7/68
f 70/8/70 67/7/67 69/8/69
f 69/8/69 72/9/72 70/8/70
f 72/9/72 69/8/69 71/9/71
f 71/9/71 74/10/74 72/9/72
f 74/10/74 71/9/71 73/10/73
f 73/10/73 76/11/76 74/10/74
f 76/11/76 73/10/73 75/11/75
f 75/11/75 78/12/78 76/11/76
f 78/12/78 75/11/75 77/12/77
f 77/12/77 80/13/80 78/12/78
f 80/13/80 77/12/77 79/13/79
f 79/13/79 82/14/82 80/13/80
f 82/14/82 79/13/79 81/14/81
f 81/14/81 84/15/84 82/14/82
f 84/15/84 81/14/81 83/15/83
f 86/16/86 64/6/64 65/6/65
f 64/6/64 86/16/86 85/16/85
f 88/17/88 85/16/85 86/16/86
f 85/16/85 88/17/88 87/17/87
