# fff089d2_00073_001ff814
o fff089d2_00073_001ff814
v 6.168750 -0.719737 0.005554
v 5.360759 0.961654 0.052734
v -5.043136 -0.782116 0.037227
v -5.962762 -0.156641 0.053211
v 1.156752 2.307866 0.063289
v 0.658521 0.098108 0.039791
v 3.284860 -1.942495 0.000378
v -0.363751 -2.138042 0.035495
v -0.291182 -2.145334 0.011971
v 2.991799 0.278032 0.045341
v 3.204310 -1.934523 -0.000671
v 0.663137 0.113521 -0.062809
v -0.294089 -2.147116 -0.088238
v 3.269353 -1.939673 -0.107368
v 3.004488 0.292619 -0.062809
v 4.253658 3.308773 0.052734
v 3.152436 2.324944 0.045807
v 3.145648 2.319284 -0.062790
v 1.486689 1.099822 0.039764
v 1.639269 0.424839 0.039989
v 2.518562 1.443953 0.045311
v 2.743094 0.522888 0.046478
v 1.490575 1.108142 -0.062840
v 1.636235 0.424149 -0.060219
v 2.530627 1.451360 -0.062840
v 4.240122 3.304265 -0.062790
v 0.438403 3.964364 0.042557
v 5.968557 0.359151 0.039761
v 6.369900 -0.472527 -0.007195
v 7.068787 0.431919 0.045307
v 7.292831 -0.375203 -0.000706
v 5.972443 0.367470 -0.062843
v 6.366866 -0.473217 -0.107403
v 7.080852 0.439325 -0.062843
v 15.819629 1.859813 -0.042641
v 15.425843 -2.471502 -0.042416
v 19.210733 1.831680 -0.008392
v 19.846127 -1.657581 -0.007225
v 15.826695 1.860472 -0.145245
v 19.224813 1.831837 -0.116543
v 15.801672 1.898098 -0.042416
v 17.874996 2.828341 -0.008392
v 18.012012 1.922004 -0.007225
v 17.889076 2.828341 -0.116543
v 18.719454 5.210815 -0.013939
v 18.877878 1.902134 -0.013714
v 20.978046 6.894384 -0.008392
v 22.463081 1.555861 -0.007225
v 18.726522 5.210815 -0.116543
v 18.874903 1.902211 -0.113922
v 20.992126 6.895765 -0.116543
v 19.311596 2.013371 -0.013056
v 19.346930 1.090069 -0.012748
v 21.160355 6.981525 -0.039005
v 21.734512 4.767576 -0.038780
v 22.841860 7.576344 -0.033459
v 23.262375 5.506378 -0.032291
v 21.163919 6.982345 -0.141609
v 21.732922 4.767748 -0.138988
v 19.281670 1.009298 -0.039005
v 19.986795 -2.316082 -0.038780
v 22.066294 1.416671 -0.033459
v 22.648001 -1.604979 -0.032291
v 19.285015 1.009610 -0.141609
v 19.985384 -2.315763 -0.138988
v 22.072962 1.416746 -0.141609
v 19.160006 1.027776 -0.007954
v 21.548962 4.672145 -0.007992
v 15.682345 -2.462424 -0.039005
v 14.712893 -5.622380 -0.038780
v 17.778860 -2.088845 -0.033459
v 16.649591 -5.636286 -0.032291
v 15.685690 -2.463681 -0.141609
v 17.785364 -2.091631 -0.141609
v 16.030802 4.624630 -0.042641
v 16.727125 3.991886 -0.008392
v 16.843597 3.453177 -0.007225
v 16.039824 4.625779 -0.145245
v 16.739132 3.984662 -0.116543
v 16.635706 3.184022 -0.140015
v 16.630083 3.176769 -0.035622
v 16.642450 3.192780 -0.033977
v 15.904931 3.380045 -0.042641
v 18.775785 3.963062 -0.013855
v 18.782661 3.959034 -0.115551
v 16.330912 4.374335 -0.138117
v 16.347589 4.351239 -0.032835
v 16.196745 3.309571 -0.040758
v 16.435907 1.818117 -0.041107
v 16.478262 1.774327 -0.145883
v 16.483280 1.774571 -0.042661
v 16.345877 -2.296196 -0.038821
v 16.395098 -2.328830 -0.141609
v 16.409044 -2.324251 -0.038322
v 21.232403 5.904325 -0.008214
v 2.734349 0.527934 -0.060219
v 19.302757 1.995905 -0.113922
v 19.335285 1.070372 -0.113922
v 22.445250 1.536426 -0.113922
v 22.646198 -1.589638 -0.138988
v 23.257742 5.506927 -0.138988
v 17.294704 -3.455723 -0.033118
v 15.161222 -3.988710 -0.038920
vt 1.490163 1.268131
vt 1.489949 1.268379
vt 1.341524 1.439809
vt 1.341524 1.439809
vt 2.675082 1.542440
vt 2.622730 1.070595
vt 2.643186 1.202413
vt 2.638342 1.513730
vt 2.079633 1.185299
vt 2.146239 1.632418
vt 2.400731 1.155934
vt 2.387055 1.174451
vt 2.387061 1.174456
vt 2.392781 1.125990
vt 2.389116 1.156997
vt 2.405275 1.123617
vt 2.401205 1.152587
vt 2.538823 1.102392
vt 2.525144 1.145206
vt 1.341650 1.439664
vt 1.341650 1.439664
vt 2.633174 1.459341
vt 2.637003 1.484577
vt 2.637060 1.530226
vt 2.661538 1.544744
vt 1.342558 1.438615
vt 1.342610 1.438555
vt 1.342601 1.438566
vt 1.342656 1.438502
vt 1.342647 1.438512
vt 1.342657 1.438501
vt 1.342648 1.438511
vt 2.477489 1.576058
vt 2.422772 1.120841
vt 2.425177 1.120459
vt 2.530289 1.129112
vt 2.529833 1.130536
vt 1.341547 1.439783
vt 1.341549 1.439780
vt 2.426229 1.153736
vt 2.467448 1.113739
vt 2.471583 1.113082
vt 2.466458 1.114320
vt 2.405242 1.124108
vt 2.435841 1.139955
vt 2.435486 1.142459
vt 2.409606 1.140221
vt 1.396952 1.375790
vt 1.397427 1.375241
vt 1.397693 1.374934
vt 1.341555 1.439773
vt 1.341558 1.439770
vt 2.436352 1.152863
vt 2.431064 1.141697
vt 2.416533 1.143599
vt 2.418544 1.121981
vt 2.418468 1.121617
vt 2.406409 1.155445
vt 2.410880 1.149058
vt 2.421509 1.121042
vt 1.341534 1.439798
vt 1.341535 1.439797
vt 2.411409 1.155014
vt 2.410385 1.153936
vt 2.411199 1.148942
vt 2.418949 1.121449
vt 1.341538 1.439793
vt 1.341539 1.439792
vt 2.416049 1.154613
vt 2.436858 1.139583
vt 2.427263 1.120127
vt 2.429988 1.129254
vt 2.527234 1.138670
vt 1.411131 1.359414
vt 1.410803 1.359793
vt 2.434376 1.142889
vt 1.410247 1.360435
vt 2.501575 1.137254
vt 1.490601 1.267625
vt 1.490601 1.267625
vt 1.490014 1.268303
vt 1.490014 1.268303
vt 1.490014 1.268303
vt 1.490014 1.268303
vt 1.490014 1.268303
vt 1.490014 1.268303
vt 1.490103 1.268201
vt 1.490103 1.268201
vt 1.490181 1.268111
vt 1.490181 1.268111
vt 2.529135 1.132722
vt 2.468744 1.127954
vt 2.425652 1.133912
vt 2.433450 1.132672
vn 0.008390 -0.024019 0.999676
vn -0.002690 -0.013762 0.999902
vn 0.003281 -0.015017 0.999882
vn 0.002898 -0.012461 0.999918
vn -0.003270 0.003573 0.999988
vn -0.474270 0.598861 0.645317
vn -0.733923 -0.033575 0.678402
vn -0.001311 -0.005803 0.999982
vn -0.751948 0.311110 0.581192
vn -0.053662 0.673141 0.737564
vn 0.001740 -0.017724 0.999841
vn -0.550851 0.828627 0.099702
vn -0.920793 0.389553 0.019706
vn -0.989584 -0.032170 0.140314
vn -0.076547 0.989191 0.125065
vn -0.489944 0.543606 0.681504
vn -0.704394 0.314265 0.636449
vn -0.926644 0.373971 0.038433
vn -0.720130 0.376397 0.582871
vn -0.468536 -0.656536 0.591130
vn -0.237484 0.701258 0.672190
vn 0.062032 -0.740058 0.669676
vn -0.847354 0.530915 0.010957
vn -0.594886 -0.803604 0.018193
vn -0.316152 0.948171 0.031921
vn -0.665789 0.744663 0.046918
vn -0.004997 0.010348 0.999934
vn -0.726492 0.377004 0.574524
vn -0.565350 -0.315841 0.761987
vn -0.046322 0.642041 0.765270
vn -0.001149 -0.057087 0.998369
vn -0.847836 0.530146 0.010881
vn -0.900202 -0.434858 0.023129
vn -0.066072 0.995891 0.061926
vn 0.090927 0.689519 0.718538
vn -0.003620 0.000959 0.999993
vn -0.024015 0.750940 0.659934
vn -0.010873 -0.000329 0.999941
vn 0.131070 0.991254 0.015387
vn -0.020918 0.999780 -0.001273
vn -0.002658 -0.000430 0.999996
vn 0.153558 0.609441 0.777818
vn -0.021020 -0.001907 0.999777
vn 0.268776 0.962472 0.037509
vn -0.731996 0.339286 0.590819
vn -0.487341 -0.656286 0.576010
vn -0.504920 0.675606 0.537226
vn 0.092902 -0.631462 0.769822
vn -0.897730 0.436195 -0.061759
vn -0.616805 -0.786965 0.015377
vn -0.596182 0.800070 -0.066747
vn -0.188970 -0.257746 0.947553
vn -0.495136 -0.574131 0.652084
vn -0.678546 -0.174345 0.713568
vn -0.339958 -0.749143 0.568518
vn -0.003481 -0.000522 0.999994
vn 0.280384 -0.586515 0.759859
vn -0.967917 -0.248732 -0.035616
vn -0.426596 -0.904433 0.004077
vn -0.681903 0.465633 0.564087
vn -0.421828 -0.700752 0.575333
vn -0.104605 0.705488 0.700959
vn 0.190432 -0.718201 0.669270
vn -0.814018 0.580310 -0.024779
vn -0.526348 -0.850259 0.004067
vn -0.144726 0.989439 -0.008081
vn -0.013372 -0.001456 0.999910
vn -0.002089 -0.000315 0.999998
vn -0.112700 0.588858 0.800341
vn -0.003157 0.001149 0.999994
vn -0.145919 0.838239 0.525417
vn -0.003341 0.001368 0.999994
vn -0.186716 0.982247 -0.018128
vn -0.169092 0.984984 -0.034837
vn 0.525728 0.628906 0.572789
vn 0.313603 0.390101 0.865722
vn -0.095929 -0.024606 0.995084
vn 0.651357 0.755918 0.065739
vn 0.686603 0.726391 0.030531
vn 0.270689 0.959234 0.081222
vn 0.059937 0.256865 0.964587
vn -0.047160 -0.037388 0.998187
vn -0.009391 -0.002291 0.999953
vn -0.729881 -0.032856 0.682784
vn -0.996840 -0.044757 -0.065626
vn 0.666414 0.743341 0.057761
vn 0.450180 0.518160 0.727219
vn -0.011229 -0.002923 0.999933
vn -0.012918 -0.002305 0.999914
vn 0.056090 0.998418 -0.003906
vn 0.030969 0.691987 0.721246
vn -0.006328 0.001157 0.999979
vn -0.178279 0.983786 -0.019531
vn -0.128520 0.705530 0.696929
vn -0.002174 -0.000378 0.999998
vn 0.088972 -0.994723 -0.051094
vn -0.606950 -0.776084 0.171189
vn -0.612091 -0.760453 0.216923
vn 0.145816 -0.977251 0.154006
vn 0.256095 -0.956653 -0.138675
vn 0.435324 -0.899980 -0.022977
vn -0.003399 0.001627 0.999993
vn -0.002811 0.001103 0.999995
g fff089d2_00073_001ff814_e6
f 22/18/22 19/17/19 20/16/20
f 1/7/1 2/22/2 7/6/7
f 10/19/10 6/11/6 11/18/11
f 8/14/8 5/15/5 3/9/3
f 21/19/21 19/11/19 22/18/22
f 30/19/30 28/11/28 31/18/31
f 11/18/11 6/17/6 9/16/9
f 31/18/31 28/17/28 29/16/29
f 3/9/3 5/12/5 4/10/4
f 2/8/2 17/23/17 7/7/7
f 17/24/17 2/5/2 16/25/16
f 5/13/5 27/33/27 4/10/4
f 91/65/91 35/17/35 36/16/36
f 38/18/38 91/65/91 92/66/92
f 88/59/88 83/17/83 41/16/41
f 92/66/92 91/65/91 36/16/36
f 52/34/52 84/47/84 46/16/46
f 47/19/47 45/11/45 95/73/95
f 68/37/68 84/46/84 48/18/48
f 48/18/48 84/45/84 52/72/52
f 56/19/56 55/76/55 57/78/57
f 56/19/56 54/11/54 55/76/55
f 63/18/63 60/17/60 61/16/61
f 62/19/62 60/11/60 63/18/63
f 95/73/95 45/11/45 68/37/68
f 68/37/68 45/11/45 84/46/84
f 94/70/94 69/17/69 103/93/103
f 72/18/72 102/92/102 70/71/70
f 43/18/43 88/59/88 89/60/89
f 81/41/81 82/43/82 88/57/88
f 42/19/42 81/40/81 43/18/43
f 71/19/71 94/69/94 102/91/102
f 87/55/87 75/17/75 83/44/83
f 67/36/67 91/64/91 38/18/38
f 48/18/48 52/72/52 53/35/53
f 76/19/76 87/53/87 77/18/77
f 37/19/37 91/63/91 67/36/67
f 77/18/77 87/54/87 82/42/82
f 81/40/81 88/58/88 43/18/43
f 82/43/82 87/55/87 88/56/88
f 89/60/89 88/59/88 41/16/41
f 88/56/88 87/55/87 83/44/83
f 102/92/102 94/70/94 103/94/103
f 102/92/102 103/94/103 70/71/70
g fff089d2_00073_001ff814_e7
f 19/3/19 23/4/23 24/1/24
f 24/1/24 20/2/20 19/3/19
f 10/20/10 15/21/15 6/3/6
f 12/4/12 6/3/6 15/21/15
f 18/30/18 17/29/17 26/32/26
f 16/31/16 26/32/26 17/29/17
f 17/27/17 18/28/18 14/1/14
f 14/1/14 7/2/7 17/26/17
f 6/3/6 12/4/12 13/1/13
f 13/1/13 9/2/9 6/3/6
f 55/2/55 59/1/59 101/90/101
f 101/90/101 57/89/57 55/2/55
f 21/20/21 25/21/25 19/3/19
f 23/4/23 19/3/19 25/21/25
f 28/3/28 32/4/32 33/1/33
f 33/1/33 29/2/29 28/3/28
f 30/20/30 34/21/34 28/3/28
f 32/4/32 28/3/28 34/21/34
f 39/4/39 35/3/35 90/61/90
f 71/20/71 74/21/74 94/68/94
f 99/86/99 48/85/48 53/83/53
f 46/2/46 50/1/50 97/82/97
f 42/20/42 44/21/44 81/39/81
f 80/38/80 81/39/81 44/21/44
f 53/83/53 98/84/98 99/86/99
f 98/84/98 53/83/53 52/81/52
f 49/4/49 45/3/45 51/21/51
f 47/20/47 51/21/51 45/3/45
f 45/3/45 49/4/49 84/49/84
f 84/49/84 85/50/85 50/1/50
f 100/88/100 63/87/63 61/2/61
f 61/2/61 65/1/65 100/88/100
f 54/3/54 58/4/58 59/74/59
f 59/75/59 55/77/55 54/3/54
f 64/4/64 60/3/60 66/21/66
f 62/20/62 66/21/66 60/3/60
f 60/3/60 64/4/64 65/1/65
f 65/1/65 61/2/61 60/3/60
f 73/4/73 69/3/69 93/67/93
f 93/67/93 94/68/94 74/21/74
f 96/80/96 22/79/22 20/2/20
f 20/2/20 24/1/24 96/80/96
f 78/4/78 75/3/75 86/51/86
f 90/61/90 91/62/91 40/21/40
f 52/81/52 97/82/97 98/84/98
f 93/67/93 69/3/69 94/68/94
f 97/82/97 52/81/52 46/2/46
f 50/1/50 46/2/46 84/48/84
f 84/49/84 49/4/49 85/50/85
f 86/51/86 75/3/75 87/52/87
f 76/20/76 79/21/79 87/52/87
f 86/51/86 87/52/87 79/21/79
f 37/20/37 40/21/40 91/62/91
f 90/61/90 35/3/35 91/62/91
