# fff00ec6_00073_001cd897
o fff00ec6_00073_001cd897
v 0.352006 -3.664928 -0.978088
v -0.263646 -3.664928 -0.978088
v -0.263646 -3.664928 0.978088
v 0.352006 -3.664928 0.978088
v -0.263646 -3.530003 -0.978088
v -0.263646 -3.530003 0.978088
v 0.352006 -3.530003 -0.978088
v 0.352006 -3.530003 0.978088
v 0.263646 -0.191643 -0.978088
v -0.352006 -0.191643 -0.978088
v -0.352006 -0.191643 0.978088
v 0.263646 -0.191643 0.978088
v -0.352006 -0.056717 -0.978088
v -0.352006 -0.056717 0.978088
v 0.263646 -0.056717 -0.978088
v 0.263646 -0.056717 0.978088
v 0.270385 3.530003 -0.978088
v -0.345267 3.530003 -0.978088
v -0.345267 3.530003 0.978088
v 0.270385 3.530003 0.978088
v -0.345267 3.664928 -0.978088
v -0.345267 3.664928 0.978088
v 0.270385 3.664928 -0.978088
v 0.270385 3.664928 0.978088
vt 1.000000 0.000000
vt 1.000000 0.000000
vt 1.000000 0.000000
vt 1.000000 0.000000
vt 1.000000 0.000000
vt 1.000000 0.000000
vt 1.000000 0.000000
vt 1.000000 0.000000
vn 0.000000 -1.000000 0.000000
vn -0.707107 -0.707107 0.000000
vn -0.707107 -0.707107 0.000000
vn 0.000000 -1.000000 0.000000
vn -0.707107 0.707107 0.000000
vn -0.707107 0.707107 0.000000
vn 0.000000 1.000000 0.000000
vn 0.000000 1.000000 0.000000
vn 0.707107 -0.707107 0.000000
vn -0.707107 -0.707107 0.000000
vn -0.707107 -0.707107 0.000000
vn 0.707107 -0.707107 0.000000
vn -0.707107 0.707107 0.000000
vn -0.707107 0.707107 0.000000
vn 0.707107 0.707107 0.000000
vn 0.707107 0.707107 0.000000
vn 0.707107 -0.707107 0.000000
vn -0.707107 -0.707107 0.000000
vn -0.707107 -0.707107 0.000000
vn 0.707107 -0.707107 0.000000
vn -1.000000 0.000000 0.000000
vn -1.000000 0.000000 0.000000
vn 1.000000 0.000000 0.000000
vn 1.000000 0.000000 0.000000
g fff00ec6_00073_001cd897_e13
f 4/4/4 3/2/3 2/1/2
f 1/3/1 4/4/4 2/1/2
f 6/6/6 2/1/2 3/2/3
f 2/1/2 6/6/6 5/5/5
f 8/8/8 5/5/5 6/6/6
f 5/5/5 8/8/8 7/7/7
f 12/4/12 11/2/11 10/1/10
f 9/3/9 12/4/12 10/1/10
f 14/6/14 10/1/10 11/2/11
f 10/1/10 14/6/14 13/5/13
f 16/8/16 13/5/13 14/6/14
f 13/5/13 16/8/16 15/7/15
f 20/4/20 19/2/19 18/1/18
f 17/3/17 20/4/20 18/1/18
f 22/6/22 18/1/18 19/2/19
f 18/1/18 22/6/22 21/5/21
f 17/1/17 23/1/23 20/1/20
f 24/1/24 20/1/20 23/1/23
f 15/1/15 12/1/12 9/1/9
f 12/1/12 15/1/15 16/1/16
