# fff03fcd_00028_001cdac5
o fff03fcd_00028_001cdac5
v 0.664413 -0.735290 0.000000
v 0.504223 0.545589 0.000000
v -0.610371 -0.780974 0.000000
v -0.528221 0.477479 0.000000
v 0.664413 -0.735290 1.978821
v 0.504223 0.545589 1.978821
v -0.610371 -0.780974 1.978821
v -0.528221 0.477479 1.978821
vt 0.000000 0.000000
vt 1.000000 0.000000
vt 0.000000 1.000000
vt 1.000000 1.000000
vt 0.000000 0.000000
vt 1.000000 0.000000
vt 0.000000 1.000000
vt 1.000000 1.000000
vt 0.000000 0.000000
vt 1.000000 0.000000
vt 0.000000 1.000000
vt 1.000000 1.000000
vn 0.761431 -0.648246 0.000000
vn 0.636732 0.771085 0.000000
vn -0.717412 -0.696649 0.000000
vn -0.707350 0.706863 0.000000
vn 0.624123 -0.531349 0.572834
vn 0.518469 0.627869 0.580491
vn -0.588348 -0.571320 0.572224
vn -0.573911 0.573515 0.584557
g fff03fcd_00028_001cdac5_e0
f 3/1/3 1/2/1 5/4/5
f 5/4/5 7/3/7 3/1/3
f 5/9/5 6/10/6 8/12/8
f 8/12/8 7/11/7 5/9/5
f 1/5/1 2/6/2 6/8/6
f 6/8/6 5/7/5 1/5/1
f 2/1/2 4/2/4 8/4/8
f 8/4/8 6/3/6 2/1/2
f 4/5/4 3/6/3 7/8/7
f 7/8/7 8/7/8 4/5/4
