# fff02c13_00093_0030d468
o fff02c13_00093_0030d468
v -0.190699 0.674705 1.067541
v -0.190699 0.299660 1.067541
v -0.190695 0.674705 1.274507
v -0.190695 0.299660 1.274507
v -0.290701 0.674705 1.067541
v -0.290701 0.299660 1.067541
v -0.290697 0.674705 1.274507
v -0.290697 0.299660 1.274507
v 0.295664 -0.674705 -0.900530
v 0.295664 -0.674705 -1.274507
v 0.094004 -0.674705 -0.900530
v 0.094004 -0.674705 -1.274507
v 0.295664 -0.651817 -0.900530
v 0.295664 -0.651817 -1.274507
v 0.094004 -0.651817 -0.900530
v 0.094004 -0.651821 -1.274507
v 0.241617 -0.646465 -1.115682
v 0.196436 -0.646465 -1.201612
v 0.149088 -0.646465 -1.115682
v 0.151270 -0.646465 -1.069916
v 0.196436 -0.646465 -0.983986
v 0.243799 -0.646465 -1.069916
v -0.290697 0.645088 1.097424
v -0.290697 0.329277 1.097424
v -0.290697 0.645088 1.244624
v -0.290697 0.329277 1.244624
v -0.291403 0.476829 1.109854
v -0.291403 0.382820 1.109854
v -0.291403 0.476829 1.232194
v -0.291399 0.382820 1.232194
v -0.295664 0.600487 1.223585
v -0.295664 0.555305 1.114524
v -0.295664 0.507957 1.223585
v 0.295664 -0.651817 -0.900530
v 0.295664 -0.651817 -1.274507
v 0.094004 -0.651817 -0.900530
v 0.094004 -0.651821 -1.274507
v 0.295664 -0.674705 -0.900530
v 0.094004 -0.674705 -0.900530
v 0.295664 -0.651817 -0.900530
v 0.094004 -0.651817 -0.900530
vt -0.647777 0.733508
vt -1.049294 0.733508
vt -0.585982 0.755260
vt -1.089481 0.739094
vt -0.585982 0.755260
vt -0.916727 0.521472
vt -1.089481 0.739094
vt -0.916727 0.521472
vt -0.916727 0.521472
vt -0.585982 0.755260
vt -1.049294 0.733508
vt -1.089481 0.739094
vt -0.647777 0.733508
vt -0.585982 0.755260
vt -0.585982 0.755260
vt -0.750741 0.730303
vt -0.750741 0.752054
vt -0.750741 0.735889
vt -0.750741 0.730303
vt -0.726632 0.000000
vt -0.434590 1.016166
vt -0.726632 1.000000
vt -0.434590 0.000000
vn 0.000001 1.000000 -0.000000
vn 0.000000 -1.000000 0.000000
vn 0.000000 0.707102 0.707111
vn 0.000000 -0.707103 0.707111
vn -0.707130 0.707083 0.000052
vn -0.707129 -0.707084 0.000047
vn -0.577350 0.577350 0.577351
vn -0.577348 -0.577349 0.577353
vn 1.000000 0.000000 0.000000
vn 1.000000 0.000000 0.000000
vn -1.000000 0.000000 0.000000
vn -1.000000 0.000000 0.000000
vn 1.000000 0.000000 0.000000
vn 1.000000 0.000000 0.000000
vn -1.000000 0.000000 0.000000
vn -1.000000 0.000000 0.000000
vn 0.000000 1.000000 0.000000
vn 0.000000 1.000000 0.000000
vn 0.000000 1.000000 0.000000
vn 0.000000 1.000000 0.000000
vn 0.000000 1.000000 0.000000
vn 0.000000 1.000000 0.000000
vn -1.000000 -0.000039 0.000054
vn -1.000000 0.000048 0.000048
vn -1.000000 -0.000000 0.000000
vn -1.000000 0.000010 0.000006
vn -1.000000 -0.000016 0.000018
vn -1.000000 0.000001 0.000031
vn -1.000000 -0.000039 0.000000
vn -1.000000 -0.000022 0.000013
vn -1.000000 0.000000 0.000001
vn -1.000000 0.000000 0.000001
vn -1.000000 0.000000 0.000001
vn -0.000006 1.000000 -0.000007
vn -0.000019 1.000000 0.000000
vn 0.000000 1.000000 -0.000010
vn -0.000013 1.000000 -0.000003
vn 0.000000 0.000000 1.000000
vn 0.000000 0.000000 1.000000
vn 0.000000 0.000000 1.000000
vn 0.000000 0.000000 1.000000
g fff02c13_00093_0030d468_e7
f 31/6/31 32/8/32 33/9/33
f 27/20/27 28/23/28 30/21/30
f 27/20/27 30/21/30 29/22/29
g fff02c13_00093_0030d468_e2
f 5/6/5 7/7/7 3/4/3
f 3/4/3 1/2/1 5/6/5
f 2/8/2 4/3/4 8/9/8
f 8/9/8 6/8/6 2/8/2
g fff02c13_00093_0030d468_e1
f 40/6/40 41/7/41 39/4/39
f 39/4/39 38/2/38 40/6/40
f 34/6/34 35/8/35 37/9/37
f 34/6/34 37/10/37 36/7/36
f 5/6/5 6/8/6 24/13/24
f 6/13/6 8/9/8 26/14/26
f 26/14/26 24/13/24 6/13/6
f 7/7/7 8/10/8 4/5/4
f 4/5/4 3/7/3 7/7/7
f 24/13/24 23/11/23 5/6/5
f 25/12/25 26/15/26 8/10/8
f 8/10/8 7/12/7 25/12/25
f 23/11/23 25/12/25 7/7/7
f 7/7/7 5/6/5 23/11/23
f 14/8/14 13/6/13 9/2/9
f 9/2/9 10/1/10 14/8/14
f 15/7/15 16/10/16 12/5/12
f 12/5/12 11/7/11 15/7/15
g fff02c13_00093_0030d468_e6
f 23/16/23 24/19/24 26/17/26
f 23/16/23 26/17/26 25/18/25
g fff02c13_00093_0030d468_e3
f 17/6/17 18/8/18 19/9/19
f 20/6/20 21/8/21 22/9/22
