# fff02e9d_00011_0005e00e
o fff02e9d_00011_0005e00e
v -11.875580 0.686279 0.750000
v -11.875580 0.686279 -0.750000
v -14.403351 4.008606 -0.750000
v -14.403351 4.008606 0.750000
v -31.207703 3.930450 0.750000
v -31.207703 3.930450 -0.750000
v -28.244843 -3.982880 -0.750000
v -28.244843 -3.982880 0.750000
v -23.189056 -10.627319 -0.750000
v -23.189056 -10.627319 0.750000
v -16.544708 -15.682892 -0.750000
v -16.544708 -15.682892 0.750000
v -16.372528 -15.781555 0.750000
v -16.372528 -15.781555 -0.750000
v -8.835114 -18.876404 -0.750000
v -8.835114 -18.876404 0.750000
v -0.561737 -20.000000 -0.750000
v -0.561737 -20.000000 0.750000
v 7.711578 -18.876526 -0.750000
v 7.711578 -18.876526 0.750000
v 15.421173 -15.683105 -0.749998
v 15.421173 -15.683105 0.750002
v 22.065460 -10.627319 -0.749998
v 22.065460 -10.627319 0.750002
v 27.121429 -3.982849 -0.749998
v 27.121429 -3.982849 0.750002
v 30.314728 3.726715 -0.749998
v 30.314728 3.726715 0.750002
v 31.438263 12.000000 -0.749998
v 31.438263 12.000000 0.750002
v 31.438263 20.000000 -0.749998
v 31.438263 20.000000 0.750002
v 15.438324 20.000000 -0.749998
v 15.438324 20.000000 0.750002
v 15.438324 12.000000 -0.749998
v 15.438324 12.000000 0.750002
v 14.876495 7.863373 -0.749998
v 14.876495 7.863373 0.750002
v -0.561859 -4.000000 0.749999
v -0.561859 -4.000000 -0.750001
v -4.698334 -3.438232 -0.750001
v -4.698334 -3.438232 0.749999
v 3.574982 -3.438263 0.749998
v 3.574982 -3.438263 -0.750002
vt -2.924530 1.442490
vt -2.924530 2.044694
vt 5.924530 1.442490
vt 5.924530 1.726513
vt -2.924530 1.843960
vt -2.924530 2.446164
vt -2.924530 2.245429
vt -2.924530 2.847634
vt -2.924530 2.646899
vt -2.924530 3.249104
vt -2.924530 3.048369
vt -2.924530 3.650573
vt -2.924530 3.449838
vt -2.924530 4.052043
vt -2.924530 3.851308
vt -2.924530 4.453513
vt -2.924530 4.252778
vt -2.924530 4.854982
vt -2.924530 4.654248
vt -2.924530 5.256452
vt -2.924530 4.654248
vt -2.924530 5.256452
vt -2.924530 5.055717
vt -2.924530 5.657921
vt -2.924530 5.457186
vt -2.924530 6.059390
vt 5.924530 1.915862
vt 5.924530 1.631839
vn -0.795839 -0.605509 0.000000
vn -0.795839 -0.605509 0.000000
vn -0.795839 -0.605509 0.000000
vn -0.795839 -0.605509 0.000000
vn 0.936510 0.350642 0.000000
vn 0.936510 0.350642 0.000000
vn 0.875489 0.483239 0.000000
vn 0.875489 0.483239 0.000000
vn 0.707102 0.707112 0.000000
vn 0.707102 0.707112 0.000000
vn 0.605529 0.795824 0.000000
vn 0.605529 0.795824 0.000000
vn 0.379827 0.925058 0.000000
vn 0.379827 0.925058 0.000000
vn 0.259299 0.965797 0.000000
vn 0.259299 0.965797 0.000000
vn 0.000007 1.000000 0.000000
vn 0.000007 1.000000 0.000000
vn -0.260784 0.965397 0.000000
vn -0.260784 0.965397 0.000000
vn -0.498248 0.867034 0.000000
vn -0.498248 0.867035 0.000000
vn -0.707105 0.707108 0.000000
vn -0.707105 0.707108 0.000000
vn -0.867036 0.498245 0.000000
vn -0.867036 0.498245 0.000000
vn -0.965398 0.260782 0.000000
vn -0.965398 0.260782 0.000000
vn -0.997724 0.067437 0.000000
vn -0.997724 0.067437 0.000000
vn -0.707107 -0.707107 0.000000
vn -0.707107 -0.707107 0.000000
vn 0.707107 -0.707107 0.000000
vn 0.707107 -0.707107 0.000000
vn 0.997723 -0.067445 0.000000
vn 0.997723 -0.067445 0.000000
vn 0.990902 -0.134582 0.000000
vn 0.990902 -0.134582 0.000000
vn -0.000010 -1.000000 0.000000
vn -0.000010 -1.000000 0.000000
vn -0.134573 -0.990904 0.000000
vn -0.134573 -0.990904 0.000000
vn 0.134554 -0.990906 0.000000
vn 0.134554 -0.990906 0.000000
g fff02e9d_00011_0005e00e_e20
f 4/2/4 3/1/3 2/3/2
f 2/3/2 1/4/1 4/2/4
f 8/2/8 7/1/7 6/3/6
f 6/3/6 5/4/5 8/2/8
f 7/1/7 8/2/8 10/6/10
f 10/6/10 9/5/9 7/1/7
f 9/5/9 10/6/10 12/8/12
f 12/8/12 11/7/11 9/5/9
f 16/2/16 15/1/15 14/3/14
f 14/3/14 13/4/13 16/2/16
f 15/1/15 16/2/16 18/6/18
f 18/6/18 17/5/17 15/1/15
f 17/5/17 18/6/18 20/8/20
f 20/8/20 19/7/19 17/5/17
f 19/7/19 20/8/20 22/10/22
f 22/10/22 21/9/21 19/7/19
f 21/9/21 22/10/22 24/12/24
f 24/12/24 23/11/23 21/9/21
f 23/11/23 24/12/24 26/14/26
f 26/14/26 25/13/25 23/11/23
f 25/13/25 26/14/26 28/16/28
f 28/16/28 27/15/27 25/13/25
f 27/15/27 28/16/28 30/18/30
f 30/18/30 29/17/29 27/15/27
f 29/17/29 30/18/30 32/20/32
f 32/20/32 31/19/31 29/17/29
f 31/19/31 32/20/32 34/22/34
f 34/22/34 33/21/33 31/19/31
f 33/21/33 34/22/34 36/24/36
f 36/24/36 35/23/35 33/21/33
f 35/23/35 36/24/36 38/26/38
f 38/26/38 37/25/37 35/23/35
f 42/2/42 41/1/41 40/3/40
f 40/3/40 39/4/39 42/2/42
f 39/4/39 40/3/40 44/28/44
f 44/28/44 43/27/43 39/4/39
