# fff015c3_00141_00d490a6
o fff015c3_00141_00d490a6
v 0.269304 0.417786 0.229181
v -0.271858 0.417786 0.229181
v 0.269304 -0.407542 0.229181
v -0.271858 -0.407542 0.229181
v 0.269304 0.417786 0.297252
v -0.271858 0.417786 0.297252
v 0.269304 -0.407542 0.297252
v -0.271858 -0.407542 0.297252
v -0.298862 -0.374192 0.230455
v 0.297241 -0.374192 0.230455
v -0.298862 -0.442842 0.230455
v 0.297241 -0.442843 0.230455
v 0.297241 -0.408519 0.267120
v -0.298863 -0.408518 0.267120
v -0.325904 -0.374194 0.206869
v -0.325904 -0.442841 0.206869
v -0.363968 -0.408515 0.206863
v 0.329384 -0.374196 0.206869
v 0.329384 -0.442843 0.206869
v 0.367449 -0.408515 0.206863
v -0.327313 -0.397240 0.074660
v -0.327313 -0.424947 0.088030
v -0.310223 -0.463199 0.194207
v -0.310223 -0.358959 0.214358
v -0.360884 -0.397210 0.074660
v -0.360884 -0.424947 0.088030
v -0.377973 -0.463199 0.194207
v -0.377973 -0.358959 0.214358
v 0.357505 -0.397269 0.074660
v 0.357505 -0.424976 0.088030
v 0.374594 -0.463257 0.194207
v 0.374594 -0.358988 0.214358
v 0.323903 -0.397269 0.074660
v 0.323903 -0.424976 0.088030
v 0.306844 -0.463257 0.194207
v 0.306844 -0.358988 0.214358
v -0.000908 -0.428368 1.159041
v 0.054396 -0.428368 1.210105
v -0.000908 0.440671 1.159041
v 0.054396 0.440671 1.210105
v -0.056548 -0.428368 1.210450
v -0.001278 -0.428368 1.261513
v -0.056548 0.440671 1.210450
v -0.001278 0.440671 1.261513
v -0.218624 -0.267174 0.297253
v -0.218622 -0.267174 1.180617
v -0.218621 -0.407424 0.297253
v -0.218621 -0.407424 1.180617
v -0.271861 -0.337290 1.180617
v -0.271861 -0.337290 0.297253
v -0.198601 -0.267179 1.252087
v -0.198601 -0.407428 1.252087
v -0.236245 -0.337296 1.299360
v -0.138290 -0.267179 1.281000
v -0.138290 -0.407428 1.281000
v -0.138288 -0.337296 1.347854
v 0.135730 -0.267179 1.281000
v 0.135730 -0.407428 1.281000
v 0.135728 -0.337296 1.347854
v 0.216061 -0.267174 0.297253
v 0.216061 -0.267174 1.180617
v 0.216062 -0.407424 0.297253
v 0.216062 -0.407424 1.180617
v 0.269300 -0.337292 1.180617
v 0.269300 -0.337292 0.297253
v 0.196041 -0.267179 1.252087
v 0.196040 -0.407428 1.252087
v 0.233685 -0.337296 1.299360
v -0.218624 -0.267176 0.297253
v 0.216069 -0.407426 0.297253
v -0.000908 -0.412178 0.278715
v 0.054396 -0.412178 0.332750
v -0.000908 0.429506 0.278715
v 0.054396 0.429506 0.332750
v -0.056548 -0.412178 0.333115
v -0.001278 -0.412178 0.387149
v -0.056548 0.429506 0.333115
v -0.001278 0.429506 0.387149
v -0.218624 -0.041360 0.297253
v -0.218622 -0.041360 1.180617
v -0.218621 -0.181609 0.297253
v -0.218621 -0.181609 1.180617
v -0.271861 -0.111475 1.180617
v -0.271861 -0.111475 0.297253
v -0.198601 -0.041364 1.252087
v -0.198601 -0.181614 1.252087
v -0.236245 -0.111482 1.299360
v -0.138290 -0.041364 1.281000
v -0.138290 -0.181614 1.281000
v -0.138288 -0.111482 1.347854
v 0.135730 -0.041364 1.281000
v 0.135730 -0.181614 1.281000
v 0.135728 -0.111482 1.347854
v 0.216061 -0.041360 0.297253
v 0.216061 -0.041360 1.180617
v 0.216062 -0.181609 0.297253
v 0.216062 -0.181609 1.180617
v 0.269300 -0.111478 1.180617
v 0.269300 -0.111478 0.297253
v 0.196041 -0.041364 1.252087
v 0.196040 -0.181614 1.252087
v 0.233685 -0.111482 1.299360
v -0.218624 -0.041362 0.297253
v 0.216069 -0.181611 0.297253
v -0.218624 0.186086 0.297253
v -0.218622 0.186086 1.180617
v -0.218621 0.045836 0.297253
v -0.218621 0.045836 1.180617
v -0.271861 0.115970 1.180617
v -0.271861 0.115970 0.297253
v -0.198601 0.186081 1.252087
v -0.198601 0.045832 1.252087
v -0.236245 0.115963 1.299360
v -0.138290 0.186081 1.281000
v -0.138290 0.045832 1.281000
v -0.138288 0.115963 1.347854
v 0.135730 0.186081 1.281000
v 0.135730 0.045832 1.281000
v 0.135728 0.115963 1.347854
v 0.216061 0.186086 0.297253
v 0.216061 0.186086 1.180617
v 0.216062 0.045836 0.297253
v 0.216062 0.045836 1.180617
v 0.269300 0.115968 1.180617
v 0.269300 0.115968 0.297253
v 0.196041 0.186081 1.252087
v 0.196040 0.045832 1.252087
v 0.233685 0.115963 1.299360
v -0.218624 0.186083 0.297253
v 0.216069 0.045834 0.297253
v -0.218624 0.417629 0.297253
v -0.218622 0.417629 1.180617
v -0.218621 0.277379 0.297253
v -0.218621 0.277379 1.180617
v -0.271861 0.347513 1.180617
v -0.271861 0.347513 0.297253
v -0.198601 0.417624 1.252087
v -0.198601 0.277375 1.252087
v -0.236245 0.347506 1.299360
v -0.138290 0.417624 1.281000
v -0.138290 0.277375 1.281000
v -0.138288 0.347506 1.347854
v 0.135730 0.417624 1.281000
v 0.135730 0.277375 1.281000
v 0.135728 0.347506 1.347854
v 0.216061 0.417629 0.297253
v 0.216061 0.417629 1.180617
v 0.216062 0.277379 0.297253
v 0.216062 0.277379 1.180617
v 0.269300 0.347511 1.180617
v 0.269300 0.347511 0.297253
v 0.196041 0.417624 1.252087
v 0.196040 0.277375 1.252087
v 0.233685 0.347506 1.299360
v -0.218624 0.417627 0.297253
v 0.216069 0.277377 0.297253
v 0.269304 0.417786 0.297252
v -0.271858 0.417786 0.297252
v 0.269304 -0.407542 0.297252
v -0.271858 -0.407542 0.297252
v 0.336335 -0.474329 0.001824
v 0.336335 -0.343589 0.001824
v 0.336335 -0.343589 0.144081
v 0.336335 -0.474329 0.144081
v 0.350208 -0.474329 0.001824
v 0.350208 -0.343589 0.001824
v 0.350208 -0.343589 0.144081
v 0.350208 -0.474329 0.144081
v -0.353341 -0.482232 0.001824
v -0.353341 -0.351492 0.001824
v -0.353341 -0.351492 0.144081
v -0.353341 -0.482232 0.144081
v -0.339468 -0.482232 0.001824
v -0.339468 -0.351492 0.001824
v -0.339468 -0.351492 0.144081
v -0.339468 -0.482232 0.144081
v -0.298862 0.453483 0.230455
v 0.297241 0.453483 0.230455
v -0.298862 0.384833 0.230455
v 0.297241 0.384832 0.230455
v 0.297241 0.419156 0.267120
v -0.298863 0.419157 0.267120
v -0.325904 0.453481 0.206869
v -0.325904 0.384834 0.206869
v -0.363968 0.419159 0.206863
v 0.329384 0.453478 0.206869
v 0.329384 0.384832 0.206869
v 0.367449 0.419159 0.206863
v -0.327313 0.430435 0.074660
v -0.327313 0.402727 0.088030
v -0.310223 0.364476 0.194207
v -0.310223 0.468716 0.214358
v -0.360884 0.430464 0.074660
v -0.360884 0.402727 0.088030
v -0.377973 0.364476 0.194207
v -0.377973 0.468716 0.214358
v 0.357505 0.430406 0.074660
v 0.357505 0.402698 0.088030
v 0.374594 0.364417 0.194207
v 0.374594 0.468687 0.214358
v 0.323903 0.430406 0.074660
v 0.323903 0.402698 0.088030
v 0.306844 0.364417 0.194207
v 0.306844 0.468687 0.214358
v 0.336335 0.353346 0.001824
v 0.336335 0.484085 0.001824
v 0.336335 0.484085 0.144081
v 0.336335 0.353346 0.144081
v 0.350208 0.353346 0.001824
v 0.350208 0.484085 0.001824
v 0.350208 0.484085 0.144081
v 0.350208 0.353346 0.144081
v -0.353341 0.345442 0.001824
v -0.353341 0.476182 0.001824
v -0.353341 0.476182 0.144081
v -0.353341 0.345442 0.144081
v -0.339468 0.345442 0.001824
v -0.339468 0.476182 0.001824
v -0.339468 0.476182 0.144081
v -0.339468 0.345442 0.144081
vt 0.784110 0.087893
vt 1.617599 1.138179
vt 0.794065 2.033099
vt 0.794065 2.033099
vt 0.000000 2.033099
vt 1.000000 2.033099
vt 0.676076 0.174936
vt 0.731615 0.164048
vt 0.784110 0.087893
vt -0.000012 0.000318
vt 0.999988 0.000048
vt 0.999988 0.999777
vt -0.000012 1.000048
vt 0.007805 2.968580
vt 0.099563 2.986608
vt 0.375971 2.986608
vt 1.631819 2.986608
vt 1.999982 2.030016
vt 1.999982 2.968580
vt 1.908228 2.986608
vt 0.007797 2.030016
vt 0.003393 2.028998
vt 0.003393 2.968580
vt 0.095351 2.986608
vt 0.372369 2.986608
vt 1.630988 2.986608
vt 1.999967 2.968580
vt 1.908006 2.986608
vt 2.000000 2.028998
vt 1.785725 1.974960
vt 1.644335 1.104395
vt 1.810471 1.104395
vt 1.868775 1.974960
vt 1.944441 1.929649
vt 1.883901 1.860584
vt 1.877413 1.787013
vt 1.877413 1.787013
vt 1.877413 1.787013
vt 1.873196 1.860584
vt 1.873196 1.860584
vt 1.873196 1.860584
vt 1.877413 1.787013
vt 1.877413 1.787013
vt 1.877413 1.787013
vt 1.873196 1.860584
vt 1.873196 1.860584
vt 1.873196 1.860584
vt 1.873196 1.860584
vt 1.873196 1.860584
vt 1.873196 1.860584
vt 1.873196 1.860584
vt 1.873196 1.860584
vt 1.873196 1.860584
vt 1.877413 1.787013
vt 1.877413 1.787013
vt 1.877413 1.787013
vt 1.877413 1.787013
vt 1.877413 1.787013
vt 1.877413 1.787013
vt 1.877413 1.787013
vt 1.877413 1.787013
vt 1.877413 1.787013
vt 1.877413 1.787013
vt 1.877413 1.787013
vt 1.877413 1.787013
vt 1.877413 1.787013
vt 1.877413 1.787013
vt 1.877413 1.787013
vt 1.873196 1.860584
vt 1.873196 1.860584
vt 1.873196 1.860584
vt 1.873196 1.860584
vt 1.873196 1.860584
vt 1.873196 1.860584
vt 1.877413 1.787013
vt 1.877413 1.787013
vt 1.877413 1.787013
vt 1.877413 1.787013
vt 1.877413 1.787013
vt 1.877413 1.787013
vt 1.873196 1.860584
vt 1.873196 1.860584
vt 1.873196 1.860584
vt 1.873196 1.860584
vt 1.873196 1.860584
vt 1.873196 1.860584
vt 1.877413 1.787013
vt 1.877413 1.787013
vt 1.877413 1.787013
vt 1.877413 1.787013
vt 1.877413 1.787013
vt 1.877413 1.787013
vt 1.877413 1.787013
vt 1.877413 1.787013
vt 1.877413 1.787013
vt 1.877413 1.787013
vt 1.877413 1.787013
vt 1.877413 1.787013
vt 1.877413 1.787013
vt 1.877413 1.787013
vt 1.877413 1.787013
vt 1.873196 1.860584
vt 1.873196 1.860584
vt 1.873196 1.860584
vt 1.873196 1.860584
vt 1.873196 1.860584
vt 1.873196 1.860584
vt 1.873196 1.860584
vt 1.873196 1.860584
vt 1.873196 1.860584
vt 1.877413 1.787013
vt 1.877413 1.787013
vt 1.877413 1.787013
vt 1.873196 1.860584
vt 1.873196 1.860584
vt 1.873196 1.860584
vt 1.877413 1.787013
vt 1.877413 1.787013
vt 1.877413 1.787013
vt 1.877413 1.787013
vt 1.877413 1.787013
vt 1.877413 1.787013
vt 1.873196 1.860584
vt 1.873196 1.860584
vt 1.873196 1.860584
vt 1.873196 1.860584
vt 1.873196 1.860584
vt 1.873196 1.860584
vt 1.877413 1.787013
vt 1.877413 1.787013
vt 1.877413 1.787013
vt 1.877413 1.787013
vt 1.877413 1.787013
vt 1.877413 1.787013
vt 1.873196 1.860584
vt 1.873196 1.860584
vt 1.873196 1.860584
vt 1.873196 1.860584
vt 1.873196 1.860584
vt 1.873196 1.860584
vt 1.877413 1.787013
vt 1.877413 1.787013
vt 1.877413 1.787013
vt 1.877413 1.787013
vt 1.877413 1.787013
vt 1.877413 1.787013
vt 1.877413 1.787013
vt 1.877413 1.787013
vt 1.877413 1.787013
vt 1.877413 1.787013
vt 1.877413 1.787013
vt 1.877413 1.787013
vt 1.877413 1.787013
vt 1.877413 1.787013
vt 1.877413 1.787013
vt 0.765389 0.875320
vt 0.552358 1.909059
vt 0.936903 0.924717
vt 0.578934 0.883094
vt 0.699006 2.829024
vt 0.999988 0.999777
vt -0.000012 1.000048
vt -0.000012 0.000318
vt 0.999988 0.000048
vt 0.864088 0.087893
vt 0.790563 2.254536
vt 1.000000 2.021952
vt 0.000000 2.021952
vt 0.794065 2.021952
vt 0.688300 0.107730
vt 0.526078 0.069048
vt 0.844586 0.161325
vt 0.864088 0.087893
vt 0.864088 0.087893
vt 0.864088 0.087893
vt 0.864088 0.087893
vt 0.864088 0.087893
vt 0.864088 0.087893
vt 0.864088 0.087893
vt 0.864088 0.087893
vt 0.864088 0.087893
vt 0.864088 0.087893
vt 0.864088 0.087893
vt 0.864088 0.087893
vt 0.864088 0.087893
vt 0.864088 0.087893
vt 0.864088 0.087893
vt 0.864088 0.087893
vt 0.864088 0.087893
vn 0.707107 0.707107 0.000000
vn -0.707107 0.707107 0.000000
vn 0.707107 -0.707107 0.000000
vn -0.707107 -0.707107 0.000000
vn 0.707107 0.707107 0.000000
vn -0.707107 0.707107 0.000000
vn 0.707107 -0.707107 0.000000
vn -0.707107 -0.707107 0.000000
vn -0.315727 0.687880 0.653557
vn 0.258941 0.705098 0.660141
vn -0.315745 -0.687881 0.653548
vn 0.258885 -0.705136 0.660123
vn 0.292104 -0.000015 0.956387
vn -0.317230 -0.000015 0.948348
vn -0.531208 0.589038 0.608977
vn -0.531224 -0.588969 0.609029
vn -0.670480 0.000018 0.741928
vn 0.505748 0.605339 0.614641
vn 0.505776 -0.605300 0.614657
vn 0.651284 0.000043 0.758834
vn 0.992881 -0.051767 -0.107276
vn 0.992269 -0.023809 -0.121798
vn 0.718636 -0.131983 0.682746
vn 0.615710 -0.157823 0.772005
vn 0.992880 0.051724 0.107299
vn 0.992268 0.023775 0.121815
vn 0.617389 -0.149307 0.772359
vn 0.538628 -0.152666 0.828597
vn 0.992881 -0.051767 -0.107276
vn 0.992269 -0.023806 -0.121799
vn 0.718551 -0.131965 0.682839
vn 0.615729 -0.157780 0.771999
vn 0.992906 0.051677 0.107088
vn 0.992296 0.023764 0.121586
vn 0.617416 -0.149262 0.772346
vn 0.538655 -0.152635 0.828585
vn -0.790746 -0.612144 0.000134
vn 0.000016 -0.542652 0.839958
vn -0.790746 0.612144 0.000134
vn 0.000016 0.542652 0.839958
vn -0.819340 -0.573307 0.000016
vn -0.000107 -0.581638 0.813448
vn -0.819340 0.573307 0.000016
vn -0.000107 0.581638 0.813448
vn -0.796440 0.604717 0.000001
vn -0.473514 0.877843 0.071948
vn -0.444618 -0.895720 -0.000000
vn -0.473578 -0.877811 0.071908
vn -0.990468 0.000064 0.137746
vn -1.000000 0.000053 0.000001
vn -0.404135 0.861834 0.306459
vn -0.404188 -0.861820 0.306428
vn -0.748818 0.000033 0.662776
vn -0.109917 0.894799 0.432728
vn -0.109927 -0.894775 0.432774
vn -0.206352 0.000045 0.978478
vn 0.109917 0.894799 0.432728
vn 0.109927 -0.894775 0.432774
vn 0.206353 0.000044 0.978478
vn 0.444564 0.895747 0.000000
vn 0.473516 0.877842 0.071945
vn 0.796498 -0.604641 0.000000
vn 0.473574 -0.877813 0.071911
vn 0.990468 0.000054 0.137745
vn 1.000000 0.000050 0.000000
vn 0.404139 0.861833 0.306457
vn 0.404182 -0.861822 0.306430
vn 0.748819 0.000035 0.662775
vn -0.000004 1.000000 -0.000001
vn -0.000004 -1.000000 0.000001
vn 0.000000 -1.000000 0.000000
vn 0.000000 -1.000000 0.000000
vn 0.000000 1.000000 0.000000
vn 0.000000 1.000000 0.000000
vn 0.000000 -1.000000 0.000000
vn 0.000000 -1.000000 0.000000
vn 0.000000 1.000000 0.000000
vn 0.000000 1.000000 0.000000
vn -0.796440 0.604717 0.000001
vn -0.473514 0.877843 0.071948
vn -0.444618 -0.895720 -0.000000
vn -0.473578 -0.877811 0.071908
vn -0.990468 0.000063 0.137746
vn -1.000000 0.000052 0.000001
vn -0.404135 0.861834 0.306460
vn -0.404188 -0.861820 0.306428
vn -0.748818 0.000033 0.662776
vn -0.109917 0.894799 0.432728
vn -0.109927 -0.894775 0.432774
vn -0.206352 0.000045 0.978478
vn 0.109917 0.894799 0.432728
vn 0.109927 -0.894775 0.432774
vn 0.206353 0.000044 0.978478
vn 0.444564 0.895747 0.000000
vn 0.473515 0.877842 0.071945
vn 0.796498 -0.604641 0.000000
vn 0.473574 -0.877813 0.071911
vn 0.990468 0.000053 0.137745
vn 1.000000 0.000050 0.000000
vn 0.404139 0.861833 0.306457
vn 0.404182 -0.861822 0.306430
vn 0.748819 0.000035 0.662775
vn -0.000004 1.000000 -0.000001
vn -0.000004 -1.000000 0.000001
vn -0.796441 0.604716 0.000001
vn -0.473514 0.877843 0.071948
vn -0.444618 -0.895721 -0.000000
vn -0.473578 -0.877811 0.071908
vn -0.990468 0.000063 0.137746
vn -1.000000 0.000052 0.000001
vn -0.404135 0.861834 0.306460
vn -0.404188 -0.861820 0.306428
vn -0.748818 0.000033 0.662776
vn -0.109917 0.894799 0.432728
vn -0.109927 -0.894775 0.432774
vn -0.206352 0.000045 0.978478
vn 0.109917 0.894799 0.432728
vn 0.109927 -0.894775 0.432774
vn 0.206353 0.000045 0.978478
vn 0.444564 0.895747 0.000000
vn 0.473516 0.877842 0.071945
vn 0.796498 -0.604642 -0.000000
vn 0.473574 -0.877813 0.071911
vn 0.990468 0.000053 0.137745
vn 1.000000 0.000050 0.000000
vn 0.404139 0.861833 0.306457
vn 0.404182 -0.861822 0.306430
vn 0.748819 0.000035 0.662775
vn -0.000004 1.000000 -0.000001
vn -0.000004 -1.000000 0.000001
vn -0.796441 0.604717 0.000001
vn -0.473514 0.877843 0.071948
vn -0.444618 -0.895720 0.000000
vn -0.473578 -0.877812 0.071908
vn -0.990468 0.000063 0.137746
vn -1.000000 0.000052 0.000001
vn -0.404135 0.861834 0.306460
vn -0.404188 -0.861820 0.306428
vn -0.748818 0.000033 0.662776
vn -0.109917 0.894799 0.432728
vn -0.109927 -0.894775 0.432774
vn -0.206352 0.000045 0.978478
vn 0.109917 0.894799 0.432728
vn 0.109927 -0.894775 0.432774
vn 0.206353 0.000045 0.978478
vn 0.444564 0.895747 0.000000
vn 0.473515 0.877842 0.071945
vn 0.796498 -0.604641 0.000000
vn 0.473574 -0.877813 0.071911
vn 0.990468 0.000054 0.137745
vn 1.000000 0.000050 0.000000
vn 0.404139 0.861833 0.306457
vn 0.404182 -0.861822 0.306430
vn 0.748819 0.000035 0.662775
vn -0.000004 1.000000 -0.000001
vn -0.000004 -1.000000 0.000001
vn 0.000000 0.000000 1.000000
vn 0.000000 0.000000 1.000000
vn 0.000000 0.000000 1.000000
vn 0.000000 0.000000 1.000000
vn -1.000000 0.000000 0.000000
vn -1.000000 0.000000 0.000000
vn -1.000000 0.000000 0.000000
vn -1.000000 0.000000 0.000000
vn -1.000000 0.000000 0.000000
vn -1.000000 0.000000 0.000000
vn -1.000000 0.000000 0.000000
vn -1.000000 0.000000 0.000000
vn -1.000000 0.000000 0.000000
vn -1.000000 0.000000 0.000000
vn -1.000000 0.000000 0.000000
vn -1.000000 0.000000 0.000000
vn -1.000000 0.000000 0.000000
vn -1.000000 0.000000 0.000000
vn -1.000000 0.000000 0.000000
vn -1.000000 0.000000 0.000000
vn -0.315727 0.687881 0.653557
vn 0.258941 0.705098 0.660141
vn -0.315745 -0.687881 0.653548
vn 0.258885 -0.705136 0.660123
vn 0.292104 -0.000015 0.956387
vn -0.317230 -0.000015 0.948349
vn -0.531208 0.589038 0.608977
vn -0.531224 -0.588969 0.609029
vn -0.670480 0.000018 0.741928
vn 0.505748 0.605338 0.614642
vn 0.505776 -0.605300 0.614657
vn 0.651284 0.000043 0.758834
vn 0.992881 -0.051767 -0.107276
vn 0.992269 -0.023809 -0.121798
vn 0.718636 -0.131983 0.682747
vn 0.615710 -0.157823 0.772005
vn 0.992881 0.051724 0.107299
vn 0.992268 0.023775 0.121815
vn 0.617389 -0.149307 0.772359
vn 0.538628 -0.152666 0.828597
vn 0.992881 -0.051767 -0.107276
vn 0.992269 -0.023806 -0.121799
vn 0.718551 -0.131965 0.682839
vn 0.615729 -0.157780 0.771999
vn 0.992906 0.051676 0.107088
vn 0.992296 0.023764 0.121586
vn 0.617416 -0.149262 0.772346
vn 0.538655 -0.152635 0.828585
vn -1.000000 0.000000 0.000000
vn -1.000000 0.000000 0.000000
vn -1.000000 0.000000 0.000000
vn -1.000000 0.000000 0.000000
vn -1.000000 0.000000 0.000000
vn -1.000000 0.000000 0.000000
vn -1.000000 0.000000 0.000000
vn -1.000000 0.000000 0.000000
vn -1.000000 0.000000 0.000000
vn -1.000000 0.000000 0.000000
vn -1.000000 0.000000 0.000000
vn -1.000000 0.000000 0.000000
vn -1.000000 0.000000 0.000000
vn -1.000000 0.000000 0.000000
vn -1.000000 0.000000 0.000000
vn -1.000000 0.000000 0.000000
g fff015c3_00141_00d490a6_e5
f 176/12/176 175/13/175 174/10/174
f 174/10/174 173/11/173 176/12/176
f 172/12/172 171/13/171 170/10/170
f 170/10/170 169/11/169 172/12/172
f 168/12/168 167/13/167 166/10/166
f 166/10/166 165/11/165 168/12/168
f 164/12/164 163/13/163 162/10/162
f 162/10/162 161/11/161 164/12/164
f 220/161/220 219/162/219 218/163/218
f 218/163/218 217/164/217 220/161/220
f 216/161/216 215/162/215 214/163/214
f 214/163/214 213/164/213 216/161/216
f 212/161/212 211/162/211 210/163/210
f 210/163/210 209/164/209 212/161/212
f 208/161/208 207/162/207 206/163/206
f 206/163/206 205/164/205 208/161/208
g fff015c3_00141_00d490a6_e0
f 46/14/46 61/19/61 69/21/69
f 61/19/61 60/18/60 69/21/69
f 1/169/1 2/169/2 6/167/6
f 80/14/80 85/15/85 95/19/95
f 6/167/6 5/168/5 1/169/1
f 147/19/147 146/18/146 155/21/155
f 132/14/132 147/19/147 155/21/155
f 51/15/51 66/20/66 61/19/61
f 137/15/137 152/20/152 147/19/147
f 54/16/54 57/17/57 66/20/66
f 140/16/140 143/17/143 152/20/152
f 51/15/51 54/16/54 66/20/66
f 85/15/85 88/16/88 100/20/100
f 106/14/106 121/19/121 129/21/129
f 88/16/88 91/17/91 100/20/100
f 121/19/121 120/18/120 129/21/129
f 85/15/85 100/20/100 95/19/95
f 132/14/132 137/15/137 147/19/147
f 95/19/95 94/18/94 103/21/103
f 80/14/80 95/19/95 103/21/103
f 111/15/111 126/20/126 121/19/121
f 114/16/114 117/17/117 126/20/126
f 46/14/46 51/15/51 61/19/61
f 111/15/111 114/16/114 126/20/126
f 137/15/137 140/16/140 152/20/152
f 106/14/106 111/15/111 121/19/121
g fff015c3_00141_00d490a6_e1
f 41/158/41 42/158/42 44/158/44
f 44/158/44 43/158/43 41/158/41
f 71/166/71 72/166/72 76/166/76
f 76/166/76 75/166/75 71/166/71
f 39/159/39 37/159/37 41/159/41
f 41/159/41 43/159/43 39/159/39
f 38/156/38 40/156/40 44/156/44
f 44/156/44 42/156/42 38/156/38
f 77/166/77 78/166/78 74/166/74
f 74/166/74 73/166/73 77/166/77
f 40/160/40 39/160/39 43/160/43
f 43/160/43 44/160/44 40/160/40
f 37/160/37 38/160/38 42/160/42
f 42/160/42 41/160/41 37/160/37
f 83/30/83 84/31/84 81/31/81
f 109/30/109 110/31/110 107/31/107
f 133/31/133 134/30/134 135/30/135
f 49/30/49 50/31/50 47/31/47
f 96/31/96 98/30/98 97/30/97
f 98/30/98 96/31/96 99/31/99
f 47/31/47 48/30/48 49/30/49
f 64/30/64 62/31/62 65/31/65
f 62/31/62 64/30/64 63/30/63
f 81/31/81 82/30/82 83/30/83
f 122/31/122 124/30/124 123/30/123
f 124/30/124 122/31/122 125/31/125
f 107/31/107 108/30/108 109/30/109
f 150/30/150 148/31/148 151/31/151
f 148/31/148 150/30/150 149/30/149
f 135/30/135 136/31/136 133/31/133
f 181/8/181 187/8/187 188/8/188
f 185/8/185 184/8/184 179/8/179
f 179/8/179 180/8/180 181/8/181
f 181/8/181 182/8/182 179/8/179
f 151/32/151 147/33/147 150/33/150
f 147/33/147 151/32/151 146/32/146
f 106/33/106 105/32/105 110/32/110
f 110/32/110 109/33/109 106/33/106
f 80/33/80 79/32/79 84/32/84
f 84/32/84 83/33/83 80/33/80
f 121/33/121 125/32/125 120/32/120
f 125/32/125 121/33/121 124/33/124
f 65/32/65 61/33/61 64/33/64
f 61/33/61 65/32/65 60/32/60
f 50/32/50 49/33/49 46/33/46
f 46/33/46 45/32/45 50/32/50
f 95/33/95 99/32/99 94/32/94
f 99/32/99 95/33/95 98/33/98
f 136/32/136 135/33/135 132/33/132
f 132/33/132 131/32/131 136/32/136
f 23/172/23 24/172/24 27/172/27
f 36/172/36 35/172/35 32/172/32
f 187/8/187 181/8/181 180/8/180
f 204/172/204 203/172/203 200/172/200
f 102/35/102 95/35/95 100/35/100
f 100/34/100 93/34/93 102/34/102
f 54/34/54 56/34/56 59/34/59
f 140/34/140 142/34/142 145/34/145
f 128/35/128 121/35/121 126/35/126
f 126/34/126 119/34/119 128/34/128
f 147/35/147 154/35/154 150/35/150
f 119/34/119 126/34/126 117/34/117
f 31/172/31 32/172/32 35/172/35
f 179/8/179 182/8/182 185/8/185
f 106/35/106 109/35/109 113/35/113
f 113/35/113 111/35/111 106/35/106
f 111/34/111 113/34/113 116/34/116
f 116/34/116 114/34/114 111/34/111
f 152/34/152 145/34/145 154/34/154
f 154/35/154 147/35/147 152/35/152
f 93/34/93 100/34/100 91/34/91
f 191/172/191 192/172/192 195/172/195
f 196/172/196 195/172/195 192/172/192
f 80/35/80 83/35/83 87/35/87
f 87/35/87 85/35/85 80/35/80
f 85/34/85 87/34/87 90/34/90
f 90/34/90 88/34/88 85/34/85
f 88/34/88 90/34/90 93/34/93
f 93/34/93 91/34/91 88/34/88
f 61/35/61 68/35/68 64/35/64
f 68/35/68 61/35/61 66/35/66
f 119/34/119 117/34/117 114/34/114
f 28/172/28 27/172/27 24/172/24
f 11/9/11 14/9/14 17/9/17
f 19/1/19 13/1/13 12/1/12
f 13/9/13 14/9/14 11/9/11
f 59/34/59 57/34/57 54/34/54
f 11/9/11 12/9/12 13/9/13
f 56/34/56 54/34/54 51/34/51
f 51/34/51 53/34/53 56/34/56
f 53/35/53 51/35/51 46/35/46
f 46/35/46 49/35/49 53/35/53
f 13/1/13 19/1/19 20/1/20
f 145/34/145 152/34/152 143/34/143
f 59/34/59 66/34/66 57/34/57
f 132/35/132 135/35/135 139/35/139
f 139/35/139 137/35/137 132/35/132
f 95/35/95 102/35/102 98/35/98
f 66/34/66 59/34/59 68/34/68
f 121/35/121 128/35/128 124/35/124
f 145/34/145 143/34/143 140/34/140
f 114/34/114 116/34/116 119/34/119
f 142/34/142 140/34/140 137/34/137
f 137/34/137 139/34/139 142/34/142
f 55/36/55 59/37/59 56/38/56
f 199/172/199 200/172/200 203/172/203
f 97/39/97 98/40/98 102/41/102
f 141/42/141 145/43/145 142/44/142
f 17/9/17 16/9/16 11/9/11
f 123/45/123 124/46/124 128/47/128
f 177/187/177 185/188/185 182/189/182
f 134/48/134 139/49/139 135/50/135
f 102/51/102 101/52/101 97/53/97
f 93/54/93 89/55/89 92/56/92
f 185/184/185 177/185/177 183/186/183
f 90/57/90 86/58/86 89/59/89
f 86/60/86 90/61/90 87/62/87
f 182/181/182 181/182/181 178/183/178
f 178/178/178 177/179/177 182/180/182
f 93/63/93 92/64/92 101/65/101
f 101/66/101 102/67/102 93/68/93
f 178/176/178 181/177/181 186/165/186
f 139/69/139 134/70/134 138/71/138
f 128/72/128 127/73/127 123/74/123
f 119/75/119 115/76/115 118/77/118
f 142/78/142 138/79/138 141/80/141
f 48/81/48 53/82/53 49/83/49
f 53/84/53 48/85/48 52/86/52
f 67/87/67 68/88/68 59/89/59
f 59/90/59 58/91/58 67/92/67
f 188/173/188 186/174/186 181/175/181
f 9/8/9 17/8/17 14/8/14
f 52/93/52 56/94/56 53/95/53
f 56/96/56 52/97/52 55/98/55
f 17/8/17 9/8/9 15/8/15
f 59/99/59 55/100/55 58/101/58
f 68/102/68 67/103/67 63/104/63
f 87/105/87 82/106/82 86/107/86
f 82/108/82 87/109/87 83/110/83
f 145/111/145 141/112/141 144/113/144
f 63/114/63 64/115/64 68/116/68
f 116/117/116 112/118/112 115/119/115
f 112/120/112 116/121/116 113/122/113
f 154/123/154 153/124/153 149/125/149
f 149/126/149 150/127/150 154/128/154
f 119/129/119 118/130/118 127/131/127
f 127/132/127 128/133/128 119/134/119
f 113/135/113 108/136/108 112/137/112
f 108/138/108 113/139/113 109/140/109
f 89/141/89 93/142/93 90/143/90
f 153/144/153 154/145/154 145/146/145
f 145/147/145 144/148/144 153/149/153
f 115/150/115 119/151/119 116/152/116
f 138/153/138 142/154/142 139/155/139
f 37/157/37 38/157/38 39/157/39
f 40/157/40 39/157/39 38/157/38
f 160/7/160 159/7/159 157/7/157
f 157/7/157 158/7/158 160/7/160
f 3/2/3 1/2/1 5/2/5
f 8/2/8 6/2/6 2/2/2
f 2/2/2 4/2/4 8/2/8
f 5/2/5 7/2/7 3/2/3
f 28/170/28 27/170/27 26/170/26
f 26/170/26 25/170/25 28/170/28
f 24/171/24 23/171/23 22/171/22
f 22/171/22 21/171/21 24/171/24
f 36/171/36 35/171/35 34/171/34
f 34/171/34 33/171/33 36/171/36
f 30/170/30 29/170/29 32/170/32
f 32/170/32 31/170/31 30/170/30
f 196/170/196 195/170/195 194/170/194
f 194/170/194 193/170/193 196/170/196
f 192/171/192 191/171/191 190/171/190
f 190/171/190 189/171/189 192/171/192
f 204/171/204 203/171/203 202/171/202
f 202/171/202 201/171/201 204/171/204
f 198/170/198 197/170/197 200/170/200
f 200/170/200 199/170/199 198/170/198
f 20/8/20 18/8/18 13/8/13
f 10/8/10 13/8/13 18/8/18
f 10/8/10 9/8/9 14/8/14
f 14/8/14 13/8/13 10/8/10
g fff015c3_00141_00d490a6_e6
f 97/27/97 101/28/101 82/23/82
f 82/23/82 81/22/81 104/29/104
f 97/27/97 82/23/82 104/29/104
f 67/28/67 58/26/58 52/24/52
f 58/26/58 55/25/55 52/24/52
f 67/28/67 52/24/52 48/23/48
f 101/28/101 86/24/86 82/23/82
f 92/26/92 89/25/89 86/24/86
f 101/28/101 92/26/92 86/24/86
f 63/27/63 48/23/48 70/29/70
f 48/23/48 47/22/47 70/29/70
f 63/27/63 67/28/67 48/23/48
f 123/27/123 127/28/127 108/23/108
f 108/23/108 107/22/107 130/29/130
f 123/27/123 108/23/108 130/29/130
f 153/28/153 144/26/144 138/24/138
f 144/26/144 141/25/141 138/24/138
f 153/28/153 138/24/138 134/23/134
f 127/28/127 112/24/112 108/23/108
f 118/26/118 115/25/115 112/24/112
f 127/28/127 118/26/118 112/24/112
f 149/27/149 134/23/134 156/29/156
f 134/23/134 133/22/133 156/29/156
f 149/27/149 153/28/153 134/23/134
f 7/6/7 8/5/8 4/3/4
f 4/3/4 3/4/3 7/6/7
