# fff0ade4_00197_002d08fd
o fff0ade4_00197_002d08fd
v 0.464689 2.320115 0.248432
v 0.464688 -1.543757 0.248432
v 0.464688 -1.543757 0.300476
v 0.464689 2.320117 0.300476
v -0.457925 -1.543757 0.300476
v -0.457924 2.320117 0.300476
v -0.464689 1.812648 0.248432
v -0.464689 1.812648 -0.251303
v -0.460920 2.252036 -0.251303
v -0.460920 2.252036 0.248432
v -0.460920 2.239665 -0.251303
v -0.460920 2.239665 -0.300476
v -0.464689 1.825023 -0.300476
v -0.464689 1.825023 -0.251303
v 0.407664 1.825023 -0.251303
v 0.407664 2.239669 -0.251303
v 0.407664 2.239669 -0.300476
v 0.407664 1.825023 -0.300476
v 0.425628 1.812648 -0.251303
v 0.425631 2.252036 -0.251303
v 0.425628 1.812648 0.248432
v 0.425631 2.252036 0.248432
v 0.431882 1.844401 -0.074278
v 0.431883 2.220288 -0.074278
v 0.431944 2.220289 -0.107257
v 0.431943 1.844401 -0.107257
v 0.431943 1.844401 0.063023
v 0.431944 2.220289 0.063023
v 0.431883 2.220288 0.030428
v 0.431882 1.844401 0.030428
v 0.429014 1.844401 0.200312
v 0.429014 2.220290 0.200312
v 0.431944 2.220289 0.168080
v 0.431943 1.844401 0.168080
v 0.431882 1.844401 -0.213563
v 0.431883 2.220288 -0.213563
v 0.427701 1.831962 -0.231400
v 0.427702 2.232729 -0.231400
v 0.427702 2.232729 0.215279
v 0.427701 1.831962 0.215279
v -0.457924 0.952926 0.300476
v 0.464689 0.885880 0.300476
v 0.464689 0.891311 0.248432
v -0.457925 -0.533691 0.300476
v 0.464689 -0.533691 0.300476
v 0.464689 -0.533691 0.248432
v -0.464689 0.055170 0.248432
v -0.464689 0.055170 -0.251303
v -0.460920 0.494559 -0.251303
v -0.460920 0.494559 0.248432
v -0.460920 0.482188 -0.251303
v -0.460920 0.482188 -0.300476
v -0.464689 0.067545 -0.300476
v -0.464689 0.067545 -0.251303
v 0.407664 0.067545 -0.251303
v 0.407664 0.482191 -0.251303
v 0.407664 0.482191 -0.300476
v 0.407664 0.067545 -0.300476
v 0.425628 0.055170 -0.251303
v 0.425631 0.494559 -0.251303
v 0.425628 0.055170 0.248432
v 0.425631 0.494559 0.248432
v 0.431881 0.086924 -0.074278
v 0.431883 0.462811 -0.074278
v 0.431944 0.462812 -0.107257
v 0.431943 0.086924 -0.107257
v 0.431943 0.086924 0.063023
v 0.431944 0.462812 0.063023
v 0.431883 0.462811 0.030428
v 0.431881 0.086924 0.030428
v 0.429013 0.086924 0.200312
v 0.429013 0.462813 0.200312
v 0.431944 0.462812 0.168080
v 0.431943 0.086924 0.168080
v 0.431881 0.086924 -0.213563
v 0.431883 0.462811 -0.213563
v 0.427701 0.074484 -0.231400
v 0.427702 0.475251 -0.231400
v 0.427702 0.475251 0.215279
v 0.427701 0.074484 0.215279
v -0.464689 -1.534894 0.248432
v -0.464689 -1.534894 -0.251303
v -0.460920 -1.448223 -0.251303
v -0.460920 -1.448223 0.248432
v -0.460920 -1.450663 -0.251303
v -0.460920 -1.450663 -0.300476
v -0.464689 -1.532453 -0.300476
v -0.464689 -1.532453 -0.251303
v 0.407664 -1.532453 -0.251303
v 0.407664 -1.450662 -0.251303
v 0.407664 -1.450662 -0.300476
v 0.407664 -1.532453 -0.300476
v 0.425627 -1.534894 -0.251303
v 0.425631 -1.448223 -0.251303
v 0.425627 -1.534894 0.248432
v 0.425631 -1.448223 0.248432
v 0.464688 -1.104706 0.300476
v 0.464688 -1.113447 0.248432
v -0.457925 -1.066816 0.300476
v 0.039918 -1.040674 0.300476
v 0.039918 -0.583382 0.300476
v 0.464689 1.116592 0.300476
v 0.464689 1.116592 0.248432
v 0.464689 1.660843 0.300476
v 0.464689 1.660843 0.248432
v -0.457924 1.660843 0.300476
v -0.457924 1.116592 0.300476
v 0.050955 1.630281 0.300476
v 0.050955 1.163624 0.300476
v -1.492853 2.320115 0.248432
v -1.492853 -1.543757 0.248432
v -1.492853 -1.543757 0.300476
v -1.492853 2.320117 0.300476
v -0.570240 -1.543757 0.300476
v -0.570240 2.320117 0.300476
v -0.563476 1.812648 0.248432
v -0.563476 1.812648 -0.251303
v -0.567245 2.252036 -0.251303
v -0.567245 2.252036 0.248432
v -0.567245 2.239665 -0.251303
v -0.567245 2.239665 -0.300476
v -0.563476 1.825023 -0.300476
v -0.563476 1.825023 -0.251303
v -1.435828 1.825023 -0.251303
v -1.435828 2.239669 -0.251303
v -1.435828 2.239669 -0.300476
v -1.435828 1.825023 -0.300476
v -1.453792 1.812648 -0.251303
v -1.453796 2.252036 -0.251303
v -1.453792 1.812648 0.248432
v -1.453796 2.252036 0.248432
v -1.460046 1.844402 -0.074278
v -1.460048 2.220289 -0.074278
v -1.460108 2.220289 -0.107257
v -1.460107 1.844402 -0.107257
v -1.460107 1.844402 0.063023
v -1.460108 2.220289 0.063023
v -1.460048 2.220289 0.030428
v -1.460046 1.844402 0.030428
v -1.457178 1.844402 0.200312
v -1.457178 2.220290 0.200312
v -1.460108 2.220289 0.168080
v -1.460107 1.844402 0.168080
v -1.460046 1.844402 -0.213563
v -1.460048 2.220289 -0.213563
v -1.455865 1.831962 -0.231400
v -1.455866 2.232729 -0.231400
v -1.455866 2.232729 0.215279
v -1.455865 1.831962 0.215279
v -0.570240 0.952926 0.300476
v -1.492853 0.885880 0.300476
v -1.492853 0.891311 0.248432
v -0.570240 -0.533691 0.300476
v -1.492853 -0.533691 0.300476
v -1.492853 -0.533691 0.248432
v -0.563475 0.055171 0.248432
v -0.563475 0.055171 -0.251303
v -0.567245 0.494559 -0.251303
v -0.567245 0.494559 0.248432
v -0.567245 0.482188 -0.251303
v -0.567245 0.482188 -0.300476
v -0.563475 0.067545 -0.300476
v -0.563475 0.067545 -0.251303
v -1.435828 0.067545 -0.251303
v -1.435828 0.482192 -0.251303
v -1.435828 0.482192 -0.300476
v -1.435828 0.067545 -0.300476
v -1.453792 0.055171 -0.251303
v -1.453796 0.494559 -0.251303
v -1.453792 0.055171 0.248432
v -1.453796 0.494559 0.248432
v -1.460046 0.086924 -0.074278
v -1.460048 0.462811 -0.074278
v -1.460108 0.462812 -0.107257
v -1.460107 0.086924 -0.107257
v -1.460107 0.086924 0.063023
v -1.460108 0.462812 0.063023
v -1.460048 0.462811 0.030428
v -1.460046 0.086924 0.030428
v -1.457178 0.086924 0.200312
v -1.457178 0.462813 0.200312
v -1.460108 0.462812 0.168080
v -1.460107 0.086924 0.168080
v -1.460046 0.086924 -0.213563
v -1.460048 0.462811 -0.213563
v -1.455865 0.074484 -0.231400
v -1.455866 0.475252 -0.231400
v -1.455866 0.475252 0.215279
v -1.455865 0.074484 0.215279
v -0.563475 -1.534894 0.248432
v -0.563475 -1.534894 -0.251303
v -0.567245 -1.448223 -0.251303
v -0.567245 -1.448223 0.248432
v -0.567245 -1.450663 -0.251303
v -0.567245 -1.450663 -0.300476
v -0.563475 -1.532453 -0.300476
v -0.563475 -1.532453 -0.251303
v -1.435828 -1.532453 -0.251303
v -1.435828 -1.450662 -0.251303
v -1.435828 -1.450662 -0.300476
v -1.435828 -1.532453 -0.300476
v -1.453792 -1.534894 -0.251303
v -1.453796 -1.448223 -0.251303
v -1.453792 -1.534894 0.248432
v -1.453796 -1.448223 0.248432
v -1.492853 -1.104705 0.300476
v -1.492853 -1.113447 0.248432
v -0.570240 -1.066816 0.300476
v -1.196805 -1.040697 0.300476
v -1.196805 -0.583406 0.300476
v -1.492853 1.088193 0.300476
v -1.492853 1.088193 0.248432
v -1.492853 1.688885 0.300476
v -1.492853 1.688885 0.248432
v -0.570240 1.688885 0.300476
v -0.570240 1.088193 0.300476
v -1.002515 1.654150 0.300476
v -1.002515 1.139098 0.300476
v -0.457925 -1.542964 0.204875
v -0.457924 2.320910 0.204875
v -0.457924 0.953719 0.204875
v -0.457925 -0.532898 0.204875
v -0.457925 -1.066023 0.204875
v -0.457924 1.661636 0.204875
v -0.457924 1.117386 0.204875
v -0.570240 -1.542964 0.204875
v -0.570240 2.320911 0.204875
v -0.570240 0.953719 0.204875
v -0.570240 -0.532898 0.204875
v -0.570240 -1.066023 0.204875
v -0.570240 1.689761 0.204875
v -0.570240 1.089069 0.204875
vt -1.481064 0.029965
vt -2.481063 0.029963
vt -2.481063 1.457567
vt -1.481064 1.457567
vt -71.539085 -12.554886
vt -71.539085 -12.889912
vt -67.277451 -12.132637
vt -67.277451 25.108587
vt 9.863883 1.000000
vt 0.735152 0.000004
vt 6.510856 1.308563
vt -4.167561 0.260614
vt 6.167570 -0.000534
vt 6.167570 -0.643517
vt 5.167546 1.004220
vt 5.167569 -0.718577
vt 11.610520 0.890166
vt 12.610532 0.985057
vt 12.610538 -0.015844
vt 11.610532 -0.014942
vt 11.610139 1.000904
vt 12.610124 1.000950
vt 12.611712 -0.002948
vt 11.610124 0.000949
vt 11.610104 1.000994
vt 12.610088 1.001044
vt 12.611639 -0.003147
vt 11.610088 0.001044
vt 244.177383 43.211697
vt 9.039304 1.000000
vt 5.167549 0.804662
vt 6.167570 -0.070905
vt 1.367267 0.143217
vt -3.141060 0.342382
vt 5.167547 0.930169
vt 6.167570 -0.026163
vt 0.965364 0.052161
vt -3.796444 0.290176
vt 6.167570 -0.013684
vt 0.853270 0.026765
vt -3.972118 0.276182
vt 5.167547 0.963935
vt 5.959240 0.182945
vt 6.073907 0.067850
vt 2.477644 0.394788
vt 6.167570 -0.194518
vt -1.187937 0.497962
vt 3.609835 0.651300
vt 6.167570 -0.320560
vt 0.518009 0.633852
vt 5.167560 -0.025451
vt 5.167554 0.467471
vt 5.918498 -0.124286
vt 6.058667 -0.163810
vt 9.863883 1.000000
vt 9.039304 1.000000
vt -67.277451 25.108587
vt -67.277451 -12.132637
vt 244.177383 43.211697
vt -3.796444 0.290176
vt -3.141060 0.342382
vt 1.367267 0.143217
vt 2.477644 0.394788
vt -1.187937 0.497962
vt 0.518009 0.633852
vt 5.167546 1.004220
vt 6.510856 1.308563
vt -4.167561 0.260614
vt 0.853270 0.026765
vt 0.735152 0.000004
vt -3.972118 0.276182
vt 0.965364 0.052161
vt 3.609835 0.651300
vt 5.167569 -0.718577
vt 5.167560 -0.025451
vt 6.167570 -0.643517
vt 5.167547 0.963935
vt 5.959240 0.182945
vt 5.167547 0.930169
vt 6.167570 -0.320560
vt 6.167570 -0.070905
vt 5.167549 0.804662
vt 6.167570 -0.026163
vt 6.167570 -0.000534
vt 6.073907 0.067850
vt 6.167570 -0.013684
vt 6.167570 -0.194518
vt 6.058667 -0.163810
vt 5.167554 0.467471
vt 5.918498 -0.124286
vt -1.481064 1.457567
vt -2.481063 1.457567
vt -2.481063 0.029963
vt -1.481064 0.029965
vt -71.539085 -12.554886
vt -71.539085 -12.889912
vt 12.610124 1.000950
vt 11.610139 1.000904
vt 11.610124 0.000949
vt 12.611712 -0.002948
vt 12.610088 1.001044
vt 11.610104 1.000994
vt 11.610088 0.001044
vt 12.611639 -0.003147
vt 12.610532 0.985057
vt 11.610520 0.890166
vt 11.610532 -0.014942
vt 12.610538 -0.015844
vt 5.167546 1.004220
vt 5.167547 0.963935
vt 5.167569 -0.718577
vt 5.167560 -0.025451
vt 5.167549 0.804662
vt 5.167547 0.930169
vt 5.167554 0.467471
vt 5.167546 1.004220
vt 5.167547 0.963935
vt 5.167569 -0.718577
vt 5.167560 -0.025451
vt 5.167549 0.804662
vt 5.167547 0.930169
vt 5.167554 0.467471
vn 1.000000 0.000000 -0.000009
vn 1.000000 -0.000000 0.000000
vn 0.707107 -0.000000 0.707107
vn 0.707102 0.000000 0.707112
vn -0.705231 0.000000 0.708977
vn -0.708967 0.000000 0.705241
vn 0.000000 -1.000000 0.000000
vn 0.000000 -1.000000 0.000000
vn 0.000000 1.000000 0.000000
vn 0.000000 1.000000 0.000000
vn -0.000004 1.000000 0.000000
vn -0.000004 1.000000 0.000000
vn 0.000000 -1.000000 0.000000
vn 0.000000 -1.000000 0.000000
vn 0.707107 -0.707107 0.000000
vn 0.707105 0.707108 0.000000
vn 0.707105 0.707108 0.000000
vn 0.707107 -0.707107 0.000000
vn 0.707104 -0.707110 0.000000
vn 0.707110 0.707104 0.000000
vn 0.707104 -0.707110 0.000000
vn 0.707110 0.707104 0.000000
vn 1.000000 -0.000005 0.000931
vn 1.000000 -0.000004 0.000917
vn 1.000000 -0.000003 0.000632
vn 1.000000 -0.000005 0.000642
vn 1.000000 -0.000003 -0.000942
vn 1.000000 -0.000004 -0.000928
vn 1.000000 -0.000005 -0.000927
vn 1.000000 -0.000004 -0.000941
vn 0.995896 0.000000 0.090509
vn 0.995893 -0.000002 0.090536
vn 0.998973 -0.000003 0.045316
vn 0.998973 -0.000001 0.045302
vn 1.000000 -0.000005 -0.000578
vn 1.000000 -0.000003 -0.000570
vn 1.000000 -0.000002 0.000000
vn 1.000000 -0.000002 0.000000
vn 1.000000 -0.000002 0.000000
vn 1.000000 -0.000002 0.000000
vn -0.707107 0.000000 0.707107
vn 0.707107 -0.000000 0.707106
vn 1.000000 -0.000000 -0.000001
vn -0.707107 0.000000 0.707107
vn 0.707107 -0.000000 0.707107
vn 1.000000 -0.000000 -0.000000
vn 0.000000 -1.000000 0.000000
vn 0.000000 -1.000000 0.000000
vn 0.000000 1.000000 0.000000
vn 0.000000 1.000000 0.000000
vn -0.000004 1.000000 0.000000
vn -0.000004 1.000000 0.000000
vn 0.000000 -1.000000 0.000000
vn 0.000000 -1.000000 0.000000
vn 0.707107 -0.707107 0.000000
vn 0.707105 0.707108 0.000000
vn 0.707105 0.707108 0.000000
vn 0.707107 -0.707107 0.000000
vn 0.707104 -0.707110 0.000000
vn 0.707110 0.707104 0.000000
vn 0.707104 -0.707110 0.000000
vn 0.707110 0.707104 0.000000
vn 1.000000 -0.000005 0.000931
vn 1.000000 -0.000004 0.000917
vn 1.000000 -0.000003 0.000632
vn 1.000000 -0.000005 0.000642
vn 1.000000 -0.000003 -0.000942
vn 1.000000 -0.000004 -0.000928
vn 1.000000 -0.000005 -0.000927
vn 1.000000 -0.000004 -0.000941
vn 0.995896 0.000000 0.090509
vn 0.995893 -0.000002 0.090536
vn 0.998973 -0.000003 0.045316
vn 0.998973 -0.000001 0.045302
vn 1.000000 -0.000005 -0.000578
vn 1.000000 -0.000003 -0.000570
vn 1.000000 -0.000002 0.000000
vn 1.000000 -0.000002 0.000000
vn 1.000000 -0.000002 0.000000
vn 1.000000 -0.000002 0.000000
vn 0.000000 -1.000000 0.000000
vn 0.000000 -1.000000 0.000000
vn 0.000000 1.000000 0.000000
vn 0.000000 1.000000 0.000000
vn -0.000001 1.000000 0.000000
vn -0.000001 1.000000 0.000000
vn 0.000000 -1.000000 0.000000
vn 0.000000 -1.000000 0.000000
vn 0.707107 -0.707107 0.000000
vn 0.707106 0.707107 0.000000
vn 0.707106 0.707107 0.000000
vn 0.707107 -0.707107 0.000000
vn 0.707091 -0.707122 0.000000
vn 0.707122 0.707091 0.000000
vn 0.707091 -0.707122 0.000000
vn 0.707122 0.707091 0.000000
vn 0.707107 -0.000000 0.707107
vn 1.000000 -0.000000 0.000000
vn -0.707107 0.000000 0.707107
vn 0.000000 0.000000 1.000000
vn 0.000000 0.000000 1.000000
vn 0.707108 -0.000000 0.707106
vn 1.000000 0.000000 -0.000003
vn 0.707108 -0.000000 0.707105
vn 1.000000 -0.000000 -0.000004
vn -0.707107 0.000000 0.707107
vn -0.707107 0.000000 0.707107
vn 0.000000 0.000000 1.000000
vn 0.000000 0.000000 1.000000
vn -1.000000 0.000000 -0.000009
vn -1.000000 0.000000 0.000000
vn -0.707107 0.000000 0.707107
vn -0.707102 -0.000000 0.707112
vn 0.705231 0.000000 0.708977
vn 0.708968 0.000000 0.705241
vn 0.000000 -1.000000 0.000000
vn 0.000000 -1.000000 0.000000
vn 0.000000 1.000000 0.000000
vn 0.000000 1.000000 0.000000
vn 0.000004 1.000000 0.000000
vn 0.000004 1.000000 0.000000
vn 0.000000 -1.000000 0.000000
vn 0.000000 -1.000000 0.000000
vn -0.707107 -0.707107 0.000000
vn -0.707105 0.707108 0.000000
vn -0.707105 0.707108 0.000000
vn -0.707107 -0.707107 0.000000
vn -0.707104 -0.707110 0.000000
vn -0.707110 0.707104 0.000000
vn -0.707104 -0.707110 0.000000
vn -0.707110 0.707104 0.000000
vn -1.000000 -0.000005 0.000931
vn -1.000000 -0.000004 0.000917
vn -1.000000 -0.000003 0.000632
vn -1.000000 -0.000005 0.000642
vn -1.000000 -0.000003 -0.000942
vn -1.000000 -0.000004 -0.000928
vn -1.000000 -0.000005 -0.000927
vn -1.000000 -0.000004 -0.000941
vn -0.995896 0.000000 0.090509
vn -0.995893 -0.000002 0.090536
vn -0.998973 -0.000003 0.045316
vn -0.998973 -0.000001 0.045302
vn -1.000000 -0.000005 -0.000578
vn -1.000000 -0.000003 -0.000570
vn -1.000000 -0.000002 0.000000
vn -1.000000 -0.000002 0.000000
vn -1.000000 -0.000002 0.000000
vn -1.000000 -0.000002 0.000000
vn 0.707107 0.000000 0.707107
vn -0.707108 -0.000000 0.707106
vn -1.000000 0.000000 -0.000002
vn 0.707107 0.000000 0.707107
vn -0.707107 -0.000000 0.707107
vn -1.000000 -0.000000 -0.000000
vn 0.000000 -1.000000 0.000000
vn 0.000000 -1.000000 0.000000
vn 0.000000 1.000000 0.000000
vn 0.000000 1.000000 0.000000
vn 0.000004 1.000000 0.000000
vn 0.000004 1.000000 0.000000
vn 0.000000 -1.000000 0.000000
vn 0.000000 -1.000000 0.000000
vn -0.707107 -0.707107 0.000000
vn -0.707105 0.707109 0.000000
vn -0.707106 0.707108 0.000000
vn -0.707107 -0.707107 0.000000
vn -0.707104 -0.707110 0.000000
vn -0.707110 0.707104 0.000000
vn -0.707104 -0.707110 0.000000
vn -0.707110 0.707104 0.000000
vn -1.000000 -0.000005 0.000931
vn -1.000000 -0.000004 0.000917
vn -1.000000 -0.000003 0.000632
vn -1.000000 -0.000005 0.000642
vn -1.000000 -0.000003 -0.000942
vn -1.000000 -0.000004 -0.000928
vn -1.000000 -0.000005 -0.000927
vn -1.000000 -0.000004 -0.000941
vn -0.995896 0.000000 0.090509
vn -0.995893 -0.000002 0.090536
vn -0.998973 -0.000003 0.045316
vn -0.998973 -0.000001 0.045302
vn -1.000000 -0.000005 -0.000578
vn -1.000000 -0.000003 -0.000570
vn -1.000000 -0.000002 0.000000
vn -1.000000 -0.000002 0.000000
vn -1.000000 -0.000002 0.000000
vn -1.000000 -0.000002 0.000000
vn 0.000000 -1.000000 0.000000
vn 0.000000 -1.000000 0.000000
vn 0.000000 1.000000 0.000000
vn 0.000000 1.000000 0.000000
vn 0.000001 1.000000 0.000000
vn 0.000001 1.000000 0.000000
vn 0.000000 -1.000000 0.000000
vn 0.000000 -1.000000 0.000000
vn -0.707107 -0.707107 0.000000
vn -0.707106 0.707107 0.000000
vn -0.707107 0.707107 0.000000
vn -0.707107 -0.707107 0.000000
vn -0.707091 -0.707122 0.000000
vn -0.707122 0.707091 0.000000
vn -0.707091 -0.707122 0.000000
vn -0.707122 0.707091 0.000000
vn -0.707107 -0.000000 0.707107
vn -1.000000 -0.000000 0.000000
vn 0.707107 0.000000 0.707107
vn 0.000000 0.000000 1.000000
vn 0.000000 0.000000 1.000000
vn -0.707107 -0.000000 0.707106
vn -1.000000 -0.000000 -0.000002
vn -0.707108 -0.000000 0.707105
vn -1.000000 -0.000000 -0.000005
vn 0.707107 0.000000 0.707107
vn 0.707107 0.000000 0.707107
vn 0.000000 0.000000 1.000000
vn 0.000000 0.000000 1.000000
vn -1.000000 0.000000 0.000000
vn -1.000000 0.000000 0.000000
vn -1.000000 0.000000 0.000000
vn -1.000000 0.000000 0.000000
vn -1.000000 0.000000 0.000000
vn -1.000000 0.000000 0.000000
vn -1.000000 0.000000 0.000000
vn 1.000000 0.000000 0.000000
vn 1.000000 0.000000 0.000000
vn 1.000000 0.000000 0.000000
vn 1.000000 0.000000 0.000000
vn 1.000000 0.000000 0.000000
vn 1.000000 0.000000 0.000000
vn 1.000000 0.000000 0.000000
g fff0ade4_00197_002d08fd_e6
f 73/9/73 74/30/74 68/30/68
f 34/8/34 27/7/27 28/29/28
f 33/9/33 34/30/34 28/30/28
f 30/8/30 23/7/23 24/29/24
f 29/9/29 30/30/30 24/30/24
f 21/8/21 19/7/19 20/29/20
f 26/8/26 35/7/35 36/29/36
f 22/9/22 21/30/21 20/30/20
f 25/9/25 26/30/26 36/30/36
f 70/8/70 63/7/63 64/29/64
f 69/9/69 70/30/70 64/30/64
f 61/8/61 59/7/59 60/29/60
f 66/8/66 75/7/75 76/29/76
f 62/9/62 61/30/61 60/30/60
f 46/38/46 43/34/43 42/33/42
f 102/45/102 43/34/43 103/47/103
f 105/50/105 1/15/1 4/11/4
f 2/12/2 97/40/97 3/10/3
f 97/40/97 98/41/98 45/37/45
f 45/37/45 46/38/46 42/33/42
f 65/9/65 66/30/66 76/30/76
f 95/8/95 93/7/93 94/29/94
f 74/8/74 67/7/67 68/29/68
f 96/9/96 95/30/95 94/30/94
f 2/12/2 98/41/98 97/40/97
f 98/41/98 46/38/46 45/37/45
f 42/33/42 43/34/43 102/45/102
f 104/48/104 103/47/103 105/50/105
f 102/45/102 103/47/103 104/48/104
f 104/48/104 105/50/105 4/11/4
f 182/55/182 177/56/177 183/56/183
f 143/57/143 137/59/137 136/58/136
f 142/55/142 137/56/137 143/56/143
f 139/57/139 133/59/133 132/58/132
f 138/55/138 133/56/133 139/56/139
f 130/57/130 129/59/129 128/58/128
f 135/57/135 145/59/145 144/58/144
f 131/55/131 129/56/129 130/56/130
f 134/55/134 145/56/145 135/56/135
f 179/57/179 173/59/173 172/58/172
f 178/55/178 173/56/173 179/56/179
f 170/57/170 169/59/169 168/58/168
f 175/57/175 185/59/185 184/58/184
f 171/55/171 169/56/169 170/56/170
f 155/60/155 151/62/151 152/61/152
f 211/63/211 212/64/212 152/61/152
f 214/65/214 113/67/113 110/66/110
f 111/68/111 112/70/112 206/69/206
f 206/69/206 154/72/154 207/71/207
f 154/72/154 151/62/151 155/60/155
f 174/55/174 185/56/185 175/56/175
f 204/57/204 203/59/203 202/58/202
f 183/57/183 177/59/177 176/58/176
f 205/55/205 203/56/203 204/56/204
f 111/68/111 206/69/206 207/71/207
f 207/71/207 154/72/154 155/60/155
f 151/62/151 211/63/211 152/61/152
f 213/73/213 214/65/214 212/64/212
f 211/63/211 213/73/213 212/64/212
f 213/73/213 113/67/113 214/65/214
f 230/117/230 208/77/208 114/66/114
f 114/66/114 226/116/226 230/117/230
f 215/75/215 231/119/231 115/74/115
f 227/118/227 115/74/115 231/119/231
f 150/82/150 153/79/153 229/121/229
f 229/121/229 228/120/228 150/82/150
f 150/82/150 232/122/232 216/89/216
f 232/122/232 150/82/150 228/120/228
f 153/79/153 208/77/208 230/117/230
f 230/117/230 229/121/229 153/79/153
f 216/89/216 232/122/232 215/75/215
f 231/119/231 215/75/215 232/122/232
f 223/110/223 5/15/5 99/42/99
f 5/15/5 223/110/223 219/109/219
f 106/51/106 6/16/6 224/112/224
f 220/111/220 224/112/224 6/16/6
f 41/31/41 222/114/222 44/35/44
f 222/114/222 41/31/41 221/113/221
f 41/31/41 107/52/107 225/115/225
f 225/115/225 221/113/221 41/31/41
f 44/35/44 223/110/223 99/42/99
f 223/110/223 44/35/44 222/114/222
f 107/52/107 106/51/106 225/115/225
f 224/112/224 225/115/225 106/51/106
g fff0ade4_00197_002d08fd_e12
f 6/16/6 106/51/106 4/14/4
f 99/42/99 100/43/100 44/35/44
f 106/51/106 104/49/104 4/14/4
f 44/35/44 42/32/42 41/31/41
f 45/36/45 42/32/42 44/35/44
f 3/13/3 99/42/99 5/15/5
f 101/44/101 45/36/45 44/35/44
f 3/13/3 97/39/97 99/42/99
f 99/42/99 97/39/97 100/43/100
f 97/39/97 45/36/45 101/44/101
f 100/43/100 101/44/101 44/35/44
f 97/39/97 101/44/101 100/43/100
f 41/31/41 42/32/42 102/46/102
f 109/54/109 102/46/102 104/49/104
f 107/52/107 41/31/41 102/46/102
f 106/51/106 108/53/108 104/49/104
f 107/52/107 102/46/102 109/54/109
f 106/51/106 107/52/107 108/53/108
f 108/53/108 109/54/109 104/49/104
f 107/52/107 109/54/109 108/53/108
f 115/74/115 113/76/113 215/75/215
f 208/77/208 153/79/153 209/78/209
f 215/75/215 113/76/113 213/80/213
f 153/79/153 150/82/150 151/81/151
f 154/83/154 153/79/153 151/81/151
f 112/84/112 114/66/114 208/77/208
f 210/85/210 153/79/153 154/83/154
f 112/84/112 208/77/208 206/86/206
f 208/77/208 209/78/209 206/86/206
f 206/86/206 210/85/210 154/83/154
f 209/78/209 153/79/153 210/85/210
f 206/86/206 209/78/209 210/85/210
f 150/82/150 211/87/211 151/81/151
f 218/88/218 213/80/213 211/87/211
f 216/89/216 211/87/211 150/82/150
f 215/75/215 213/80/213 217/90/217
f 216/89/216 218/88/218 211/87/211
f 215/75/215 217/90/217 216/89/216
f 217/90/217 213/80/213 218/88/218
f 216/89/216 217/90/217 218/88/218
g fff0ade4_00197_002d08fd_e13
f 55/4/55 54/3/54 53/2/53
f 53/2/53 58/1/58 55/4/55
f 57/2/57 52/1/52 51/4/51
f 51/4/51 56/3/56 57/2/57
f 11/4/11 16/3/16 17/2/17
f 17/2/17 12/1/12 11/4/11
f 13/2/13 18/1/18 15/4/15
f 15/4/15 14/3/14 13/2/13
f 85/4/85 90/3/90 91/2/91
f 91/2/91 86/1/86 85/4/85
f 87/2/87 92/1/92 89/4/89
f 89/4/89 88/3/88 87/2/87
f 164/91/164 162/93/162 163/92/163
f 162/93/162 164/91/164 167/94/167
f 166/93/166 160/91/160 161/94/161
f 160/91/160 166/93/166 165/92/165
f 120/91/120 126/93/126 125/92/125
f 126/93/126 120/91/120 121/94/121
f 122/93/122 124/91/124 127/94/127
f 124/91/124 122/93/122 123/92/123
f 194/91/194 200/93/200 199/92/199
f 200/93/200 194/91/194 195/94/195
f 196/93/196 198/91/198 201/94/201
f 198/91/198 196/93/196 197/92/197
g fff0ade4_00197_002d08fd_e11
f 79/9/79 80/30/80 78/30/78
f 80/8/80 77/7/77 78/29/78
f 40/8/40 37/7/37 38/29/38
f 39/9/39 40/30/40 38/30/38
f 82/2/82 93/1/93 95/4/95
f 95/4/95 81/3/81 82/2/82
f 56/5/56 55/8/55 58/7/58
f 58/7/58 57/6/57 56/5/56
f 16/5/16 15/8/15 18/7/18
f 18/7/18 17/6/17 16/5/16
f 28/22/28 27/21/27 30/24/30
f 30/24/30 29/23/29 28/22/28
f 32/26/32 31/25/31 34/28/34
f 34/28/34 33/27/33 32/26/32
f 94/2/94 83/1/83 84/4/84
f 84/4/84 96/3/96 94/2/94
f 60/2/60 49/1/49 50/4/50
f 50/4/50 62/3/62 60/2/60
f 64/18/64 63/17/63 66/20/66
f 66/20/66 65/19/65 64/18/64
f 74/28/74 73/27/73 72/26/72
f 72/26/72 71/25/71 74/28/74
f 70/24/70 69/23/69 68/22/68
f 68/22/68 67/21/67 70/24/70
f 26/20/26 25/19/25 24/18/24
f 24/18/24 23/17/23 26/20/26
f 90/5/90 89/8/89 92/7/92
f 92/7/92 91/6/91 90/5/90
f 20/2/20 9/1/9 10/4/10
f 10/4/10 22/3/22 20/2/20
f 188/55/188 187/56/187 189/56/189
f 189/57/189 187/59/187 186/58/186
f 149/57/149 147/59/147 146/58/146
f 148/55/148 147/56/147 149/56/149
f 191/93/191 204/91/204 202/94/202
f 204/91/204 191/93/191 190/92/190
f 165/95/165 167/58/167 164/57/164
f 167/58/167 165/95/165 166/96/166
f 125/95/125 127/58/127 124/57/124
f 127/58/127 125/95/125 126/96/126
f 137/97/137 139/99/139 136/98/136
f 139/99/139 137/97/137 138/100/138
f 141/101/141 143/103/143 140/102/140
f 143/103/143 141/101/141 142/104/142
f 203/93/203 193/91/193 192/94/192
f 193/91/193 203/93/203 205/92/205
f 169/93/169 159/91/159 158/94/158
f 159/91/159 169/93/169 171/92/171
f 173/105/173 175/107/175 172/106/172
f 175/107/175 173/105/173 174/108/174
f 183/103/183 181/101/181 182/104/182
f 181/101/181 183/103/183 180/102/180
f 179/99/179 177/97/177 178/100/178
f 177/97/177 179/99/179 176/98/176
f 135/107/135 133/105/133 134/108/134
f 133/105/133 135/107/135 132/106/132
f 199/95/199 201/58/201 198/57/198
f 201/58/201 199/95/199 200/96/200
f 129/93/129 119/91/119 118/94/118
f 119/91/119 129/93/129 131/92/131
g fff0ade4_00197_002d08fd_e0
f 21/4/21 7/3/7 8/2/8
f 8/2/8 19/1/19 21/4/21
f 48/2/48 59/1/59 61/4/61
f 61/4/61 47/3/47 48/2/48
f 130/91/130 117/93/117 116/92/116
f 117/93/117 130/91/130 128/94/128
f 157/93/157 170/91/170 168/94/168
f 170/91/170 157/93/157 156/92/156
