# fff06058_00136_002dc3a6
o fff06058_00136_002dc3a6
v 4.417830 0.401383 0.296319
v 4.417829 0.401383 -2.177880
v 4.417830 -0.007316 0.296319
v 4.192524 -0.007309 -2.177880
v 4.192488 -0.007308 0.296319
v 4.417829 -0.007324 -2.177880
v -2.375807 0.009994 0.492103
v 11.756427 0.429412 0.280128
v 11.967824 0.009994 0.492103
v -2.164469 0.429381 0.280128
v -2.164469 0.429381 -2.489038
v -2.164469 -0.098283 0.280128
v -2.375870 -0.098283 -2.489038
v -2.375807 -0.098283 0.492103
v -2.164469 -0.098283 -2.489038
v 11.756427 -0.098191 0.280128
v 11.967824 -0.098191 0.492103
v -2.188028 0.137878 -0.771173
v 11.865286 0.137879 -0.771173
v -2.188028 0.118713 -0.724969
v 11.865286 0.118714 -0.724969
v -2.188028 -0.324432 -0.820184
v 11.865286 -0.305282 -0.866387
v -2.188028 -0.305283 -0.866387
v 11.865286 -0.324432 -0.820184
v -2.188028 0.137878 -1.172448
v 11.865286 0.137879 -1.172448
v -2.188028 0.118713 -1.126245
v 11.865286 0.118714 -1.126245
v -2.188028 -0.324432 -1.221459
v 11.865286 -0.305282 -1.267663
v -2.188028 -0.305283 -1.267663
v 11.865286 -0.324432 -1.221459
v -2.188028 0.137878 -1.972161
v 11.865286 0.137879 -1.972161
v -2.188028 0.118713 -1.925958
v 11.865286 0.118714 -1.925958
v -2.188028 -0.324432 -2.021173
v 11.865286 -0.305282 -2.067376
v -2.188028 -0.305283 -2.067376
v 11.865286 -0.324432 -2.021173
v -2.188028 0.137878 -1.572198
v 11.865286 0.137879 -1.572198
v -2.188028 0.118713 -1.525994
v 11.865286 0.118714 -1.525994
v -2.188028 -0.324432 -1.621209
v 11.865286 -0.305282 -1.667413
v -2.188028 -0.305283 -1.667413
v 11.865286 -0.324432 -1.621209
v -2.188028 0.137878 0.031287
v 11.865286 0.137879 0.031287
v -2.188028 0.118713 0.077491
v 11.865286 0.118714 0.077491
v -2.188028 -0.324432 -0.017724
v 11.865286 -0.305282 -0.063928
v -2.188028 -0.305283 -0.063928
v 11.865286 -0.324432 -0.017724
v -2.188028 0.137878 -0.368463
v 11.865286 0.137879 -0.368463
v -2.188028 0.118713 -0.322259
v 11.865286 0.118714 -0.322259
v -2.188028 -0.324432 -0.417474
v 11.865286 -0.305282 -0.463677
v -2.188028 -0.305283 -0.463677
v 11.865286 -0.324432 -0.417474
v 9.400923 0.401383 0.296319
v 9.400921 0.401383 -2.177880
v 9.400923 -0.007316 0.296319
v 9.175616 -0.007308 -2.177880
v 9.175580 -0.007308 0.296319
v 9.400921 -0.007324 -2.177880
v 6.971754 0.209488 2.521539
v 6.971753 0.209488 -2.521539
v 6.971754 -0.429405 2.521539
v 6.746448 -0.429397 -2.521539
v 6.746411 -0.429396 2.521539
v 6.971753 -0.429412 -2.521539
v 1.058059 0.401383 0.296319
v 1.058057 0.401383 -2.177880
v 1.058059 -0.007316 0.296319
v 0.832752 -0.007309 -2.177880
v 0.832716 -0.007308 0.296319
v 1.058057 -0.007324 -2.177880
v -11.967764 0.009994 0.492103
v -5.621365 0.429412 0.280128
v -5.409966 0.009994 0.492103
v -11.756426 0.429381 0.280128
v -11.756426 0.429381 -2.489038
v -11.756426 -0.098283 0.280128
v -11.967825 -0.098283 -2.489038
v -11.967764 -0.098283 0.492103
v -11.756426 -0.098283 -2.489038
v -11.779985 0.137878 -0.771173
v -5.512505 0.137879 -0.771173
v -11.779985 0.118713 -0.724969
v -5.512505 0.118714 -0.724969
v -11.779985 -0.324432 -0.820184
v -5.512505 -0.305282 -0.866387
v -11.779985 -0.305283 -0.866387
v -5.512505 -0.324432 -0.820184
v -11.779985 0.137878 -1.172448
v -5.512505 0.137879 -1.172448
v -11.779985 0.118713 -1.126245
v -5.512505 0.118714 -1.126245
v -11.779985 -0.324432 -1.221459
v -5.512505 -0.305282 -1.267663
v -11.779985 -0.305283 -1.267663
v -5.512505 -0.324432 -1.221459
v -11.779985 0.137878 -1.972161
v -5.512505 0.137879 -1.972161
v -11.779985 0.118713 -1.925958
v -5.512505 0.118714 -1.925958
v -11.779985 -0.324432 -2.021173
v -5.512505 -0.305282 -2.067376
v -11.779985 -0.305283 -2.067376
v -5.512505 -0.324432 -2.021173
v -11.779985 0.137878 -1.572198
v -5.512505 0.137879 -1.572198
v -11.779985 0.118713 -1.525994
v -5.512505 0.118714 -1.525994
v -11.779985 -0.324432 -1.621209
v -5.512505 -0.305282 -1.667413
v -11.779985 -0.305283 -1.667413
v -5.512505 -0.324432 -1.621209
v -11.779985 0.137878 0.031287
v -5.512505 0.137879 0.031287
v -11.779985 0.118713 0.077491
v -5.512505 0.118714 0.077491
v -11.779985 -0.324432 -0.017724
v -5.512505 -0.305282 -0.063928
v -11.779985 -0.305283 -0.063928
v -5.512505 -0.324432 -0.017724
v -11.779985 0.137878 -0.368463
v -5.512505 0.137879 -0.368463
v -11.779985 0.118713 -0.322259
v -5.512505 0.118714 -0.322259
v -11.779985 -0.324432 -0.417474
v -5.512505 -0.305282 -0.463677
v -11.779985 -0.305283 -0.463677
v -5.512505 -0.324432 -0.417474
v -8.533897 0.401383 0.296319
v -8.533899 0.401383 -2.177880
v -8.533897 -0.007316 0.296319
v -8.759204 -0.007309 -2.177880
v -8.759240 -0.007308 0.296319
v -8.533899 -0.007324 -2.177880
v -5.617535 -0.098297 0.280112
v -5.406132 -0.098297 -2.489053
v -5.406193 -0.098297 0.492087
v -5.617535 -0.098297 -2.489053
v -5.409208 0.009979 -2.489053
vt 0.684596 0.393692
vt 0.684597 0.171968
vt 0.787391 0.171968
vt 0.787390 0.393692
vt 1.686074 0.867505
vt 1.686074 0.600978
vt 1.686074 0.867504
vt 1.686074 0.600978
vt 1.679620 1.098849
vt 1.755210 1.098849
vt 1.755210 1.423305
vt 1.645035 0.800136
vt 1.645035 0.640799
vt 1.645035 0.809749
vt 1.645035 0.640799
vt 1.645011 0.800136
vt 1.645011 0.809749
vt 1.299206 1.310920
vt 1.200726 1.310920
vt 1.299237 1.310920
vt 1.200726 1.310920
vt 1.679620 1.423305
vt 1.259387 1.726438
vt 1.199023 1.726438
vt 1.259357 1.726438
vt 1.199023 1.726438
vt 1.638963 0.615855
vt 1.638963 0.882382
vt 0.320745 0.393692
vt 0.320746 0.171968
vt 0.217952 0.171968
vt 0.217951 0.393692
vt 0.306191 0.830059
vt 0.306192 0.608335
vt 0.203398 0.608335
vt 0.203397 0.830059
vt 1.638963 0.615855
vt 1.638963 0.882382
vt 0.306191 0.830059
vt 0.306192 0.608335
vt 0.203398 0.608335
vt 0.203397 0.830059
vt 0.320745 0.393692
vt 0.217952 0.171968
vt 0.320746 0.171968
vt 0.217951 0.393692
vt 1.638963 0.615855
vt 1.638963 0.882382
vt 0.306191 0.830059
vt 0.306192 0.608335
vt 0.203398 0.608335
vt 0.203397 0.830059
vt 0.320745 0.393692
vt 0.217952 0.171968
vt 0.320746 0.171968
vt 0.217951 0.393692
vt 1.244118 1.215588
vt 1.244118 1.218320
vt 1.244118 1.210723
vt 1.244118 1.207992
vt 1.244118 1.191868
vt 1.244118 1.187002
vt 1.244118 1.184271
vt 1.244118 1.160640
vt 1.244118 1.168237
vt 1.244118 1.163372
vt 1.244118 1.170968
vt 1.244118 1.136997
vt 1.244118 1.144594
vt 1.244118 1.139728
vt 1.244118 1.147325
vt 1.244118 1.231797
vt 1.244118 1.239394
vt 1.244118 1.234529
vt 1.244118 1.242125
vt 1.244118 1.255428
vt 1.244118 1.263024
vt 1.244118 1.258159
vt 1.244118 1.265756
vt 1.686074 0.600978
vt 1.686074 0.867504
vt 1.686074 0.600978
vt 1.686074 0.867505
vt 0.787390 0.393692
vt 0.787391 0.171968
vt 0.684597 0.171968
vt 0.684596 0.393692
vt 0.684596 0.393692
vn 1.000000 0.000000 -0.000001
vn 1.000000 0.000000 -0.000001
vn 0.707094 -0.707119 0.000002
vn -0.000068 -1.000000 0.000000
vn -0.000040 -1.000000 0.000003
vn 0.707083 -0.707131 -0.000000
vn 0.000000 0.000000 1.000000
vn 0.000000 0.000000 -1.000000
vn 0.000000 0.000000 1.000000
vn 0.707107 0.000000 -0.707107
vn 1.000000 0.000000 0.000000
vn 0.301514 -0.904534 -0.301508
vn 0.000000 -1.000000 0.000000
vn 0.000002 -0.707114 0.707099
vn 0.707107 -0.707107 0.000000
vn 0.000005 -0.831899 -0.554927
vn 0.000003 -0.447831 0.894118
vn -0.000000 0.210060 -0.977688
vn 0.662490 0.157350 -0.732358
vn 0.000000 -0.210067 0.977687
vn 0.744627 -0.140216 0.652587
vn 0.000000 -0.885551 0.464543
vn 0.587486 -0.375928 -0.716616
vn 0.000000 -0.464546 -0.885549
vn 0.568413 -0.728580 0.382202
vn -0.000000 0.210060 -0.977688
vn 0.662490 0.157350 -0.732358
vn 0.000000 -0.210067 0.977687
vn 0.744627 -0.140216 0.652587
vn 0.000000 -0.885551 0.464543
vn 0.587486 -0.375928 -0.716616
vn 0.000000 -0.464546 -0.885549
vn 0.568413 -0.728580 0.382202
vn -0.000000 0.210060 -0.977688
vn 0.662490 0.157350 -0.732358
vn 0.000000 -0.210067 0.977687
vn 0.744627 -0.140216 0.652587
vn 0.000000 -0.885551 0.464543
vn 0.587486 -0.375928 -0.716616
vn 0.000000 -0.464546 -0.885549
vn 0.568413 -0.728580 0.382202
vn -0.000000 0.210060 -0.977688
vn 0.662490 0.157350 -0.732358
vn 0.000000 -0.210067 0.977687
vn 0.744627 -0.140216 0.652587
vn 0.000000 -0.885551 0.464543
vn 0.587486 -0.375928 -0.716616
vn 0.000000 -0.464546 -0.885549
vn 0.568413 -0.728580 0.382202
vn -0.000000 0.210060 -0.977688
vn 0.662490 0.157350 -0.732358
vn 0.000000 -0.210067 0.977687
vn 0.744627 -0.140216 0.652587
vn 0.000000 -0.885551 0.464543
vn 0.587486 -0.375928 -0.716616
vn 0.000000 -0.464546 -0.885549
vn 0.568413 -0.728580 0.382202
vn -0.000000 0.210060 -0.977688
vn 0.662490 0.157350 -0.732358
vn 0.000000 -0.210067 0.977687
vn 0.744627 -0.140216 0.652587
vn 0.000000 -0.885551 0.464543
vn 0.587486 -0.375928 -0.716616
vn 0.000000 -0.464546 -0.885549
vn 0.568413 -0.728580 0.382202
vn 1.000000 0.000000 -0.000001
vn 1.000000 0.000000 -0.000001
vn 0.707094 -0.707119 0.000002
vn -0.000068 -1.000000 0.000000
vn -0.000040 -1.000000 0.000003
vn 0.707083 -0.707131 -0.000000
vn 1.000000 0.000000 -0.000000
vn 1.000000 0.000000 -0.000000
vn 0.707094 -0.707120 0.000001
vn -0.000068 -1.000000 0.000000
vn -0.000039 -1.000000 0.000001
vn 0.707083 -0.707131 0.000000
vn 1.000000 0.000000 -0.000001
vn 1.000000 0.000000 -0.000001
vn 0.707094 -0.707119 0.000002
vn -0.000068 -1.000000 0.000000
vn -0.000040 -1.000000 0.000003
vn 0.707082 -0.707131 -0.000000
vn 0.000002 -0.000001 1.000000
vn -0.000002 0.000027 -1.000000
vn 0.698764 0.024249 0.714941
vn 0.707106 0.000000 -0.707108
vn 1.000000 0.000000 0.000000
vn 0.301510 -0.904534 -0.301513
vn 0.000000 -1.000000 0.000000
vn 0.000001 -0.707111 0.707102
vn 0.707107 -0.707107 0.000000
vn -0.000000 0.210060 -0.977688
vn 0.662490 0.157350 -0.732358
vn 0.000000 -0.210067 0.977687
vn 0.744627 -0.140216 0.652587
vn 0.000000 -0.885550 0.464543
vn 0.587487 -0.375928 -0.716616
vn 0.000000 -0.464547 -0.885549
vn 0.568413 -0.728581 0.382201
vn -0.000000 0.210060 -0.977688
vn 0.662490 0.157350 -0.732358
vn 0.000000 -0.210067 0.977687
vn 0.744627 -0.140216 0.652587
vn 0.000000 -0.885550 0.464543
vn 0.587487 -0.375928 -0.716616
vn 0.000000 -0.464547 -0.885549
vn 0.568413 -0.728581 0.382201
vn -0.000000 0.210060 -0.977688
vn 0.662490 0.157350 -0.732358
vn 0.000000 -0.210067 0.977687
vn 0.744627 -0.140216 0.652587
vn 0.000000 -0.885550 0.464543
vn 0.587487 -0.375928 -0.716616
vn 0.000000 -0.464547 -0.885549
vn 0.568413 -0.728580 0.382201
vn -0.000000 0.210060 -0.977688
vn 0.662490 0.157350 -0.732358
vn 0.000000 -0.210067 0.977687
vn 0.744627 -0.140216 0.652587
vn 0.000000 -0.885550 0.464543
vn 0.587487 -0.375928 -0.716616
vn 0.000000 -0.464547 -0.885549
vn 0.568413 -0.728580 0.382201
vn -0.000000 0.210060 -0.977688
vn 0.662490 0.157350 -0.732358
vn 0.000000 -0.210067 0.977687
vn 0.744627 -0.140216 0.652587
vn 0.000000 -0.885550 0.464543
vn 0.587487 -0.375928 -0.716616
vn 0.000000 -0.464547 -0.885549
vn 0.568413 -0.728580 0.382201
vn -0.000000 0.210060 -0.977688
vn 0.662490 0.157350 -0.732358
vn 0.000000 -0.210067 0.977687
vn 0.744627 -0.140216 0.652587
vn 0.000000 -0.885550 0.464543
vn 0.587487 -0.375928 -0.716616
vn 0.000000 -0.464547 -0.885549
vn 0.568413 -0.728580 0.382201
vn 1.000000 0.000000 -0.000001
vn 1.000000 0.000000 -0.000001
vn 0.707094 -0.707119 0.000002
vn -0.000068 -1.000000 0.000000
vn -0.000040 -1.000000 0.000003
vn 0.707083 -0.707131 -0.000000
vn -0.000002 -0.949120 -0.314913
vn 0.717083 -0.696988 0.000015
vn 0.588164 -0.568146 0.575563
vn 0.000000 -1.000000 0.000000
vn 0.999592 0.028551 0.000026
g fff06058_00136_002dc3a6_e1
f 6/8/6 5/7/5 4/6/4
f 5/7/5 6/8/6 3/5/3
f 3/4/3 6/3/6 2/2/2
f 2/2/2 1/1/1 3/4/3
f 47/64/47 43/65/43 49/66/49
f 59/54/59 64/53/64 58/56/58
f 63/72/63 59/73/59 65/74/65
f 37/71/37 41/70/41 35/69/35
f 15/15/15 14/14/14 13/13/13
f 14/14/14 15/15/15 12/12/12
f 16/16/16 14/14/14 12/12/12
f 14/14/14 16/16/16 17/17/17
f 12/11/12 15/10/15 11/9/11
f 11/9/11 10/22/10 12/11/12
f 67/86/67 66/87/66 68/84/68
f 68/84/68 71/85/71 67/86/67
f 70/81/70 71/80/71 68/83/68
f 71/80/71 70/81/70 69/82/69
f 8/21/8 12/20/12 10/19/10
f 12/20/12 8/21/8 16/18/16
f 39/68/39 35/69/35 41/70/41
f 45/67/45 49/66/49 43/65/43
f 7/26/7 17/25/17 9/24/9
f 17/25/17 7/26/7 14/23/14
f 25/27/25 24/28/24 23/27/23
f 24/28/24 25/27/25 22/28/22
f 22/33/22 25/34/25 21/35/21
f 21/35/21 20/36/20 22/33/22
f 24/29/24 19/31/19 23/30/23
f 19/31/19 24/29/24 18/32/18
f 64/53/64 59/54/59 63/55/63
f 51/54/51 56/53/56 50/56/50
f 19/57/19 21/58/21 25/59/25
f 25/59/25 23/60/23 19/57/19
f 33/27/33 32/28/32 31/27/31
f 32/28/32 33/27/33 30/28/30
f 30/33/30 33/34/33 29/35/29
f 29/35/29 28/36/28 30/33/30
f 32/29/32 27/31/27 31/30/31
f 27/31/27 32/29/32 26/32/26
f 56/53/56 51/54/51 55/55/55
f 53/51/53 52/52/52 54/49/54
f 54/49/54 57/50/57 53/51/53
f 33/62/33 31/63/31 27/61/27
f 41/37/41 40/38/40 39/37/39
f 40/38/40 41/37/41 38/38/38
f 38/39/38 41/40/41 37/41/37
f 37/41/37 36/42/36 38/39/38
f 40/43/40 35/44/35 39/45/39
f 35/44/35 40/43/40 34/46/34
f 43/31/43 48/29/48 42/32/42
f 48/29/48 43/31/43 47/30/47
f 45/35/45 44/36/44 46/33/46
f 46/33/46 49/34/49 45/35/45
f 48/28/48 49/27/49 46/28/46
f 49/27/49 48/28/48 47/27/47
f 56/48/56 57/47/57 54/48/54
f 57/47/57 56/48/56 55/47/55
f 61/51/61 60/52/60 62/49/62
f 53/79/53 57/78/57 51/77/51
f 55/76/55 51/77/51 57/78/57
f 61/75/61 65/74/65 59/73/59
f 65/47/65 64/48/64 63/47/63
f 64/48/64 65/47/65 62/48/62
f 62/49/62 65/50/65 61/51/61
f 73/86/73 72/87/72 74/84/74
f 74/84/74 77/85/77 73/86/73
f 76/81/76 77/80/77 74/83/74
f 77/80/77 76/81/76 75/82/75
f 83/8/83 82/7/82 81/6/81
f 82/7/82 83/8/83 80/5/80
f 80/4/80 83/3/83 79/2/79
f 79/2/79 78/1/78 80/4/80
f 27/57/27 29/58/29 33/59/33
f 146/8/146 145/7/145 144/6/144
f 137/49/137 140/50/140 136/51/136
f 139/48/139 140/47/140 137/48/137
f 140/47/140 139/48/139 138/47/138
f 122/64/122 118/65/118 124/66/124
f 134/54/134 139/53/139 133/56/133
f 138/72/138 134/73/134 140/74/140
f 112/71/112 116/70/116 110/69/110
f 92/15/92 91/14/91 90/13/90
f 91/14/91 92/15/92 89/12/89
f 147/16/147 91/14/91 89/12/89
f 91/14/91 147/16/147 149/17/149
f 89/11/89 92/10/92 88/9/88
f 88/9/88 87/22/87 89/11/89
f 102/57/102 104/58/104 108/59/108
f 142/2/142 141/1/141 143/4/143
f 143/4/143 146/3/146 142/2/142
f 145/7/145 146/8/146 143/5/143
f 85/21/85 89/20/89 87/19/87
f 89/20/89 85/21/85 147/18/147
f 114/68/114 110/69/110 116/70/116
f 120/67/120 124/66/124 118/65/118
f 84/26/84 149/25/149 86/24/86
f 149/25/149 84/26/84 91/23/91
f 100/27/100 99/28/99 98/27/98
f 99/28/99 100/27/100 97/28/97
f 97/33/97 100/34/100 96/35/96
f 96/35/96 95/36/95 97/33/97
f 99/29/99 94/31/94 98/30/98
f 94/31/94 99/29/99 93/32/93
f 139/53/139 134/54/134 138/55/138
f 126/54/126 131/53/131 125/56/125
f 94/57/94 96/58/96 100/59/100
f 100/59/100 98/60/98 94/57/94
f 108/27/108 107/28/107 106/27/106
f 107/28/107 108/27/108 105/28/105
f 105/33/105 108/34/108 104/35/104
f 104/35/104 103/36/103 105/33/105
f 107/29/107 102/31/102 106/30/106
f 102/31/102 107/29/107 101/32/101
f 131/53/131 126/54/126 130/55/130
f 128/51/128 127/52/127 129/49/129
f 129/49/129 132/50/132 128/51/128
f 108/62/108 106/63/106 102/61/102
f 116/37/116 115/38/115 114/37/114
f 115/38/115 116/37/116 113/38/113
f 113/39/113 116/40/116 112/41/112
f 112/41/112 111/42/111 113/39/113
f 115/43/115 110/44/110 114/45/114
f 110/44/110 115/43/115 109/46/109
f 118/31/118 123/29/123 117/32/117
f 123/29/123 118/31/118 122/30/122
f 120/35/120 119/36/119 121/33/121
f 121/33/121 124/34/124 120/35/120
f 123/28/123 124/27/124 121/28/121
f 124/27/124 123/28/123 122/27/122
f 131/48/131 132/47/132 129/48/129
f 132/47/132 131/48/131 130/47/130
f 136/51/136 135/52/135 137/49/137
f 128/79/128 132/78/132 126/77/126
f 130/76/130 126/77/126 132/78/132
f 136/75/136 140/74/140 134/73/134
f 150/15/150 148/13/148 149/14/149
f 149/14/149 147/12/147 150/15/150
f 149/1/149 151/88/151 86/1/86
f 149/1/149 148/1/148 151/88/151
