# fff04996_00001_0000377e
o fff04996_00001_0000377e
v -33.840790 -25.375530 -0.001191
v -33.840790 -34.014805 -0.001191
v -33.853600 -37.990578 -0.001191
v -30.347691 -24.920042 -0.001191
v -27.727867 -37.537338 -0.001191
v -26.982113 -23.850433 -0.001191
v -20.840088 -35.230907 -0.001190
v -24.214918 -22.505791 -0.001191
v -17.322517 -33.309551 -0.001190
v -15.127331 -25.445702 -0.001191
v -18.081299 -22.718197 -0.001190
v -11.765427 -28.563427 -0.001191
v -11.954784 -21.809429 -0.001191
v -15.944492 -19.378963 -0.001191
v -9.867622 -17.429695 -0.001191
v -25.948105 -11.119225 -0.001191
v -32.094238 -16.508512 -0.001191
v -28.861176 -15.116041 -0.001191
v -24.076670 -15.927485 -0.001191
v -27.780848 -19.228973 -0.001191
v -31.220964 -20.714277 -0.001191
v -8.471401 -12.786697 -0.001190
v -27.527426 -14.087853 -0.001191
v -24.464806 -16.842007 -0.001191
v -30.545807 -16.063276 -0.001191
v -32.052975 -12.116009 0.748809
v -32.957047 -12.116009 0.748809
v -33.840790 -25.375530 3.132656
v -30.347691 -24.920042 3.132656
v -26.982113 -23.850433 3.132656
v -24.214918 -22.505791 3.132656
v -18.081299 -22.718197 3.132656
v -15.944492 -19.378963 3.132656
v -24.076670 -15.927485 3.132656
v -27.780848 -19.228973 3.132656
v -31.220964 -20.714277 3.132656
v -24.464806 -16.842007 3.132656
v -33.840744 -34.014782 6.035007
v -26.481411 -12.467590 -0.001191
v -25.484932 -9.619314 -0.001191
v -32.052979 -12.467590 0.731438
v -28.861176 -15.116041 3.132655
v -27.527426 -14.087853 3.132655
v -30.545807 -16.063276 3.132655
v -26.481411 -12.467590 3.132655
v -32.052975 -12.467590 3.169628
v -25.948105 -11.119225 3.132656
v -26.481411 -12.467590 3.132656
v -25.484932 -9.619314 3.132656
v -19.125420 -39.169270 3.132655
v -14.832714 -36.819080 3.132655
v -33.853600 -37.990578 3.132655
v -27.727867 -37.537338 3.132655
v -20.840088 -35.230907 3.132655
v -17.322517 -33.309551 3.132655
v -15.127331 -25.445702 3.132655
v -11.765427 -28.563427 3.132655
v -11.954784 -21.809429 3.132655
v -9.867622 -17.429695 3.132655
v -8.471401 -12.786697 3.132655
v -24.214918 -22.505791 -0.001191
v -27.780848 -19.228973 -0.001191
v -24.464806 -16.842007 -0.001191
v -19.125420 -39.169270 -0.001190
v -14.832714 -36.819080 -0.001190
v -12.655397 -12.013186 3.132655
v -12.332733 -9.909586 3.132655
v -12.255360 -8.009384 3.132655
v -8.119095 -10.272835 3.132655
v -8.003132 -7.983150 3.132655
v -12.255356 0.004520 3.132655
v -8.003128 -3.849377 3.132655
v 2.133789 -3.849377 3.132655
v 2.133789 0.004520 3.132655
v -12.655397 -12.013186 -0.001190
v -12.332733 -9.909586 -0.001190
v -12.255360 -8.009384 -0.001190
v -8.119095 -10.272835 -0.001190
v -8.003132 -7.983150 -0.001190
v -12.255356 0.004520 -0.001190
v -8.003128 -3.849377 -0.001190
v 2.133789 -3.849377 -0.001190
v 2.133789 0.004520 -0.001190
v -33.837482 -20.927059 3.132656
v -33.837482 -20.927059 -0.001191
v -28.704826 -19.870825 3.132656
v -28.704826 -19.870825 -0.001191
v -31.299393 -14.265433 0.365124
v -32.525642 -14.312261 0.373809
v -21.433109 -19.627895 -0.001191
v -21.433109 -19.627895 3.132656
v -19.731947 -17.771482 -0.001191
v -19.731947 -17.771482 3.132656
v -33.840744 -25.375507 2.430466
v -33.840790 -25.375530 -0.001191
v -33.840744 -26.778347 6.035007
v -33.840790 -34.014805 -0.001191
v -34.913055 -34.014805 -0.001191
v -34.913044 -38.030052 -0.001191
v -34.913055 -34.014805 6.035007
v -34.913044 -38.030052 3.132655
v -28.049103 -19.520897 3.132656
v -28.044916 -19.518663 -0.001191
v -17.337257 -18.787842 3.132656
v -17.209608 -18.811583 -0.001191
v -14.476934 -24.605305 3.132655
v -14.478954 -24.607912 -0.001191
v -17.439941 -21.985439 3.132656
v -17.460846 -22.009300 -0.001190
v -34.901642 -12.116009 0.748809
v -31.220964 -20.714277 -0.001191
v -32.094238 -16.508512 -0.001191
v -32.957047 -12.116009 0.748809
v -33.837482 -20.927059 -0.001191
v -33.837482 -20.927059 3.132656
v -34.901642 -14.308426 0.373810
v -32.525642 -14.312261 0.373809
v -34.901642 -20.868816 3.132656
v -34.901642 -20.868816 -0.001191
v -34.901642 -16.501720 -0.001191
v -34.344681 -14.309302 0.373809
v -34.282955 -16.503176 -0.001191
v -34.231743 -12.116009 0.748809
vt 0.000000 0.000000
vt 0.000000 0.000000
vt 0.000000 0.000000
vt 0.000000 0.000000
vt 0.000000 0.000000
vt 0.000000 0.000000
vt 0.000000 0.000000
vt 0.000000 0.000000
vt 0.000000 0.000000
vt 0.000000 0.000000
vt 0.000000 0.000000
vt 0.000000 0.000000
vt 0.000000 0.000000
vt 0.000000 0.000000
vt 0.000000 0.000000
vt 0.000000 0.000000
vt 0.000000 0.000000
vt 0.000000 0.000000
vt 0.000000 0.000000
vt 0.000000 0.000000
vt 0.000000 0.000000
vt 0.000000 0.000000
vt 0.000000 0.000000
vt 0.000000 0.000000
vt 0.000000 0.000000
vt 0.000000 0.000000
vt 0.000000 0.000000
vt 0.000000 0.000000
vt 0.000000 0.000000
vt 0.000000 0.000000
vt 0.000000 0.000000
vt 0.000000 0.000000
vt 0.000000 0.000000
vt 0.000000 0.000000
vt 0.000000 0.000000
vt 0.000000 0.000000
vt 0.000000 0.000000
vt 0.000000 0.000000
vt 0.000000 0.000000
vt 0.000000 0.000000
vt 0.000000 0.000000
vt 0.000000 0.000000
vt 0.000000 0.000000
vt 0.000000 0.000000
vt 0.000000 0.000000
vt 0.000000 0.000000
vt 0.000000 0.000000
vt 0.000000 0.000000
vt 0.000000 0.000000
vt 0.000000 0.000000
vt 0.000000 0.000000
vt 0.000000 0.000000
vt 0.000000 0.000000
vt 0.000000 0.000000
vt 0.000000 0.000000
vt 0.000000 0.000000
vt 0.000000 0.000000
vt 0.000000 0.000000
vt 0.000000 0.000000
vt 0.000000 0.000000
vt 0.000000 0.000000
vt 0.000000 0.000000
vt 0.000000 0.000000
vt 0.000000 0.000000
vt 0.000000 0.000000
vt 0.000000 0.000000
vt 0.000000 0.000000
vt 0.000000 0.000000
vt 0.000000 0.000000
vt 0.000000 0.000000
vt 0.000000 0.000000
vt 0.000000 0.000000
vt 0.000000 0.000000
vt 0.000000 0.000000
vt 0.000000 0.000000
vt 0.000000 0.000000
vt 0.000000 0.000000
vt 0.000000 0.000000
vt 0.000000 0.000000
vt 0.000000 0.000000
vt 0.000000 0.000000
vt 0.000000 0.000000
vt 0.000000 0.000000
vt 0.000000 0.000000
vt 0.000000 0.000000
vt 0.000000 0.000000
vt 0.000000 0.000000
vt 0.000000 0.000000
vt 0.000000 0.000000
vt 0.000000 0.000000
vt 0.000000 0.000000
vt 0.000000 0.000000
vt 0.000000 0.000000
vt 0.000000 0.000000
vt 0.000000 0.000000
vt 0.000000 0.000000
vt 0.000000 0.000000
vt 0.000000 0.000000
vt 0.000000 0.000000
vt 0.000000 0.000000
vt 0.000000 0.000000
vt 0.000000 0.000000
vt 0.000000 0.000000
vt 0.000000 0.000000
vt 0.000000 0.000000
vt 0.000000 0.000000
vt 0.000000 0.000000
vt 0.000000 0.000000
vt 0.000000 0.000000
vt 0.000000 0.000000
vt 0.000000 0.000000
vt 0.000000 0.000000
vt 0.000000 0.000000
vt 0.000000 0.000000
vt 0.000000 0.000000
vt 0.000000 0.000000
vt 0.000000 0.000000
vt 0.000000 0.000000
vt 0.000000 0.000000
vt 0.000000 0.000000
vt 0.000000 0.000000
vt 0.000000 0.000000
vt 0.000000 0.000000
vt 0.000000 0.000000
vt 0.000000 0.000000
vt 0.000000 0.000000
vt 0.000000 0.000000
vt 0.000000 0.000000
vt 0.000000 0.000000
vt 0.000000 0.000000
vt 0.000000 0.000000
vt 0.000000 0.000000
vt 0.000000 0.000000
vt 0.000000 0.000000
vt 0.000000 0.000000
vt 0.000000 0.000000
vt 0.000000 0.000000
vt 0.000000 0.000000
vt 0.000000 0.000000
vt 0.000000 0.000000
vt 0.000000 0.000000
vt 0.000000 0.000000
vt 0.000000 0.000000
vt 0.000000 0.000000
vt 0.000000 0.000000
vt 0.000000 0.000000
vt 0.000000 0.000000
vt 0.000000 0.000000
vt 0.000000 0.000000
vt 0.000000 0.000000
vt 0.000000 0.000000
vt 0.000000 0.000000
vt 0.000000 0.000000
vt 0.000000 0.000000
vt 0.000000 0.000000
vt 0.000000 0.000000
vt 0.000000 0.000000
vt 0.000000 0.000000
vt 0.000000 0.000000
vt 0.000000 0.000000
vt 0.000000 0.000000
vt 0.000000 0.000000
vt 0.000000 0.000000
vt 0.000000 0.000000
vt 0.000000 0.000000
vt 0.000000 0.000000
vt 0.000000 0.000000
vt 0.000000 0.000000
vt 0.000000 0.000000
vt 0.000000 0.000000
vt 0.000000 0.000000
vt 0.000000 0.000000
vt 0.000000 0.000000
vt 0.000000 0.000000
vt 0.000000 0.000000
vt 0.000000 0.000000
vt 0.000000 0.000000
vt 0.000000 0.000000
vt 0.000000 0.000000
vt 0.000000 0.000000
vt 0.000000 0.000000
vt 0.000000 0.000000
vn 0.087737 -0.672850 0.734558
vn 0.173594 -0.311428 0.934279
vn -0.039485 0.710083 0.703010
vn 0.148811 -0.669584 0.727677
vn -0.144550 0.718663 0.680168
vn 0.255976 -0.640847 0.723734
vn 0.182007 0.409185 0.894115
vn 0.149836 -0.308355 0.939397
vn -0.444983 0.055217 0.893835
vn -0.446709 -0.036810 0.893922
vn 0.022457 -0.419350 0.907547
vn -0.820442 0.016773 0.571484
vn -0.612551 0.409541 0.676061
vn 0.379225 0.123996 0.916959
vn -0.674934 0.260550 0.690346
vn 0.658692 -0.231578 0.715889
vn 0.021818 -0.075879 0.996878
vn 0.380770 -0.575533 0.723724
vn -0.159751 0.395343 0.904535
vn -0.313766 0.286200 0.905340
vn -0.182141 0.888059 0.422109
vn -0.706745 0.154836 0.690316
vn 0.489027 -0.449817 0.747340
vn -0.591155 -0.127933 0.796347
vn -0.086023 -0.407059 0.909342
vn 0.000000 -0.049348 0.998782
vn -0.023584 -0.159647 0.986892
vn 0.129302 -0.991605 0.000000
vn 0.216950 -0.976183 0.000000
vn 0.370937 -0.928658 0.000000
vn 0.989444 -0.144913 0.000000
vn 0.053469 -0.998570 0.000000
vn 0.948046 0.318131 -0.000768
vn -0.374651 0.927166 0.000000
vn -0.042213 0.999109 0.000000
vn -0.200918 0.979608 0.000000
vn -0.977375 -0.211516 0.000000
vn 0.707117 -0.707097 -0.000003
vn 0.607912 -0.312595 0.729882
vn 0.419855 -0.695042 0.583642
vn -0.435587 -0.309600 0.845229
vn 0.551768 -0.833997 0.000000
vn 0.735997 -0.676985 0.000000
vn -0.328021 -0.944670 0.000000
vn 0.840135 -0.542377 0.000000
vn -0.922258 -0.386574 0.000001
vn 0.943395 -0.331671 0.000000
vn 0.929906 -0.367797 0.000000
vn 0.517056 -0.855951 0.000000
vn 0.916871 0.399184 0.000000
vn -0.815598 -0.578619 0.000000
vn -0.055520 0.998458 0.000000
vn -0.197188 0.980366 0.000000
vn 0.406412 0.913690 0.000000
vn -0.992389 0.123143 0.000000
vn -0.996622 -0.082124 0.000000
vn -0.999791 0.020440 0.000000
vn -0.831306 0.555814 0.000000
vn -0.932900 0.360135 0.000000
vn -0.976832 0.214008 0.000000
vn 0.605481 0.658902 0.446363
vn 0.510398 0.555431 0.656498
vn 0.000000 0.000000 1.000000
vn 0.667217 0.290490 0.685884
vn -0.598410 -0.424536 0.679466
vn 0.578642 -0.815581 -0.000000
vn 0.995352 -0.096299 -0.000000
vn 0.999793 -0.020347 0.000000
vn -0.995498 0.094778 0.000000
vn -0.999680 0.025299 0.000000
vn 0.707107 -0.707107 0.000000
vn -0.707106 0.707107 0.000000
vn 0.000000 1.000000 0.000000
vn 0.000000 -1.000000 0.000000
vn 0.242071 -0.341193 0.908289
vn 0.690886 -0.066842 0.719867
vn 0.702323 -0.014293 0.711715
vn -0.713582 0.067938 0.697270
vn -0.712484 0.018031 0.701457
vn 0.577350 -0.577350 0.577350
vn -0.301511 0.301512 0.904534
vn 0.000000 0.707107 0.707107
vn 0.000000 -0.707107 0.707107
vn -0.081055 0.996710 0.000000
vn -0.081055 0.996710 0.000000
vn -0.395695 0.918382 -0.000000
vn -0.286847 0.665753 0.688833
vn 0.007074 -0.188124 0.982120
vn 0.020249 -0.171371 0.984999
vn -0.479004 -0.520402 0.706921
vn -0.677235 -0.735766 0.000000
vn 0.273359 0.653380 0.705953
vn 0.388533 0.921432 0.002432
vn 1.000000 -0.000048 -0.000019
vn 1.000000 -0.000007 -0.000009
vn 1.000000 -0.000004 -0.000008
vn 1.000000 0.000000 -0.000008
vn 0.000000 -0.707107 0.707106
vn -0.026642 0.715042 0.698574
vn 0.000019 -1.000000 0.000003
vn -0.037234 0.999307 0.000000
vn -0.612258 0.790658 -0.000020
vn -0.455400 0.585469 0.670698
vn 0.393107 0.919474 0.005856
vn 0.278824 0.643361 0.712982
vn -0.767215 0.641390 -0.000022
vn -0.535888 0.447942 0.715662
vn 0.814285 -0.580465 -0.001010
vn 0.556116 -0.397929 0.729648
vn -0.000041 -0.168540 0.985695
vn 0.000000 0.000000 1.000000
vn -0.000154 -0.073780 0.997275
vn 0.000000 -0.168310 0.985734
vn 0.025312 0.462469 0.886274
vn 0.054649 0.998506 0.000000
vn -0.000264 -0.168563 0.985691
vn -0.000234 -0.168399 0.985719
vn 0.054649 0.998506 0.000000
vn 0.037977 0.693871 0.719098
vn -0.000189 -0.084680 0.996408
vn -0.000279 -0.168514 0.985699
vn -0.000203 -0.084554 0.996419
vn -0.000061 -0.168463 0.985708
g fff04996_00001_0000377e_e5
f 17/43/17 25/47/25 89/138/89
f 27/45/27 41/67/41 26/48/26
f 27/45/27 89/44/89 88/137/88
f 27/45/27 88/137/88 41/67/41
f 89/138/89 25/47/25 88/42/88
f 110/169/110 116/168/116 121/178/121
f 116/172/116 120/177/120 121/179/121
f 110/169/110 121/178/121 123/182/123
f 122/181/122 112/168/112 121/179/121
f 123/182/123 121/178/121 117/173/117
f 121/179/121 112/168/112 117/166/117
f 120/177/120 122/181/122 121/179/121
f 123/182/123 117/173/117 113/167/113
g fff04996_00001_0000377e_e14
f 7/11/7 5/8/5 53/81/53
f 53/81/53 54/82/54 7/11/7
f 35/33/35 31/52/31 61/92/61
f 61/92/61 62/94/62 35/33/35
f 109/161/109 14/23/14 33/55/33
f 109/161/109 108/160/108 11/19/11
f 106/158/106 107/159/107 56/85/56
f 87/133/87 21/34/21 36/60/36
f 103/155/103 86/132/86 102/154/102
f 106/158/106 58/86/58 13/22/13
f 85/131/85 84/130/84 21/2/21
f 58/86/58 59/87/59 15/25/15
f 105/157/105 93/142/93 104/156/104
f 64/95/64 7/96/7 54/11/54
f 15/25/15 13/22/13 58/86/58
f 102/154/102 35/59/35 20/33/20
f 84/130/84 36/61/36 21/2/21
f 92/141/92 93/142/93 105/157/105
f 54/11/54 50/80/50 64/95/64
f 105/157/105 104/156/104 14/21/14
f 87/133/87 86/132/86 103/155/103
f 74/112/74 71/108/71 80/126/80
f 52/78/52 53/81/53 5/8/5
f 103/155/103 102/154/102 20/33/20
f 92/141/92 19/31/19 34/57/34
f 72/77/72 73/111/73 82/129/82
f 107/159/107 106/158/106 13/22/13
f 107/159/107 10/18/10 56/85/56
f 86/132/86 87/133/87 36/60/36
f 37/58/37 34/57/34 19/31/19
f 19/31/19 24/32/24 37/58/37
f 108/160/108 109/161/109 33/55/33
f 59/87/59 60/88/60 22/37/22
f 22/37/22 15/25/15 59/87/59
f 55/83/55 57/84/57 12/20/12
f 3/5/3 99/152/99 101/153/101
f 80/126/80 83/127/83 74/112/74
f 12/20/12 9/16/9 55/83/55
f 5/8/5 3/5/3 52/78/52
f 104/156/104 33/56/33 14/21/14
f 93/142/93 92/141/92 34/57/34
f 101/153/101 52/78/52 3/5/3
f 82/129/82 81/128/81 72/77/72
f 108/160/108 32/54/32 11/19/11
f 118/174/118 114/170/114 119/175/119
f 115/171/115 114/170/114 118/174/118
g fff04996_00001_0000377e_e13
f 68/103/68 67/101/67 76/118/76
f 96/143/96 95/144/95 94/146/94
f 96/63/96 38/62/38 2/41/2
f 76/118/76 77/119/77 68/103/68
f 66/136/66 75/135/75 67/100/67
f 75/135/75 76/117/76 67/100/67
f 78/115/78 22/114/22 60/91/60
f 95/147/95 96/148/96 97/145/97
f 71/109/71 68/102/68 77/120/77
f 77/120/77 80/121/80 71/109/71
f 60/91/60 69/104/69 78/115/78
f 81/125/81 79/124/79 70/106/70
f 70/106/70 72/110/72 81/125/81
f 79/123/79 78/122/78 69/105/69
f 69/105/69 70/107/70 79/123/79
g fff04996_00001_0000377e_e0
g fff04996_00001_0000377e_e0
f 18/30/18 24/39/24 23/38/23
f 77/119/77 78/122/78 79/123/79
f 25/46/25 21/34/21 87/133/87
f 107/159/107 11/19/11 10/18/10
f 81/128/81 83/127/83 80/126/80
f 92/141/92 105/157/105 75/24/75
f 18/30/18 20/33/20 24/39/24
f 15/36/15 75/113/75 14/37/14
f 81/121/81 77/120/77 79/106/79
f 25/46/25 103/155/103 20/33/20
f 81/128/81 82/129/82 83/127/83
f 16/28/16 39/27/39 19/31/19
f 17/29/17 21/34/21 25/46/25
f 11/19/11 9/20/9 10/18/10
f 8/13/8 6/15/6 9/20/9
f 25/46/25 20/33/20 18/30/18
f 39/27/39 24/32/24 19/31/19
f 75/116/75 22/114/22 78/115/78
f 81/125/81 80/121/80 77/124/77
f 7/99/7 65/97/65 9/98/9
f 64/95/64 65/97/65 7/96/7
f 105/157/105 14/21/14 75/24/75
f 2/4/2 3/5/3 5/8/5
f 23/38/23 24/32/24 39/27/39
f 40/76/40 16/40/16 19/35/19
f 6/7/6 5/8/5 7/11/7
f 1/3/1 2/4/2 4/6/4
f 4/4/4 5/8/5 6/7/6
f 40/28/40 19/31/19 92/141/92
f 22/24/22 75/21/75 15/26/15
f 8/13/8 11/19/11 90/139/90
f 4/6/4 2/4/2 5/12/5
f 6/10/6 7/11/7 9/16/9
f 15/25/15 14/23/14 13/22/13
f 13/22/13 109/161/109 11/19/11
f 61/92/61 63/93/63 62/94/62
f 11/19/11 8/13/8 9/20/9
f 10/14/10 9/16/9 12/20/12
f 77/119/77 76/118/76 78/105/78
f 76/117/76 75/135/75 78/115/78
f 25/46/25 87/133/87 103/155/103
f 8/13/8 90/139/90 24/17/24
f 40/28/40 92/141/92 75/24/75
f 3/5/3 2/4/2 99/152/99
f 98/151/98 99/152/99 2/4/2
f 13/22/13 11/19/11 107/159/107
f 13/22/13 14/23/14 109/161/109
f 122/164/122 114/170/114 111/162/111
f 120/164/120 119/175/119 114/170/114
f 122/180/122 111/165/111 112/163/112
f 120/176/120 114/165/114 122/180/122
g fff04996_00001_0000377e_e0
