# fff0120b_00072_00176081
o fff0120b_00072_00176081
v -0.290670 0.161914 -0.204729
v -0.726246 0.159463 -0.204725
v -0.290643 0.157107 -0.318109
v -0.726218 0.154657 -0.318113
v -0.290643 0.157123 -0.317746
v -0.726219 0.154672 -0.317742
v -0.290614 0.151935 -0.440273
v -0.726189 0.149484 -0.440273
v -0.290614 0.151935 -0.440273
v -0.726189 0.149484 -0.440273
v -0.290584 0.146594 -0.566751
v -0.726159 0.144144 -0.566754
vt 1.158117 2.015870
vt 1.776910 1.547597
vt 1.776869 2.015689
vt 1.158168 1.547783
vt 1.328643 2.513585
vt 2.008245 2.051467
vt 2.008189 2.512546
vt 1.328709 2.052519
vt 1.246506 2.015870
vt 1.865299 1.547597
vt 1.865258 2.015689
vt 1.246557 1.547783
vn 0.005621 -0.999087 0.042355
vn 0.005620 -0.999087 0.042353
vn 0.005621 -0.999087 0.042355
vn 0.005620 -0.999087 0.042352
vn 0.005621 -0.999089 0.042304
vn 0.005621 -0.999089 0.042303
vn 0.005621 -0.999089 0.042304
vn 0.005621 -0.999089 0.042303
vn 0.005621 -0.999094 0.042188
vn 0.005620 -0.999094 0.042187
vn 0.005621 -0.999094 0.042188
vn 0.005620 -0.999094 0.042187
g fff0120b_00072_00176081_e9
f 2/5/2 3/6/3 1/7/1
f 2/5/2 4/8/4 3/6/3
f 10/1/10 11/2/11 9/3/9
f 10/1/10 12/4/12 11/2/11
g fff0120b_00072_00176081_e10
f 6/9/6 8/12/8 7/10/7
f 6/9/6 7/10/7 5/11/5
