# fff08519_00224_003e92b2
o fff08519_00224_003e92b2
v -1.424589 -2.401703 0.080812
v -1.492968 5.613972 -0.146706
v -5.806314 5.071093 -0.230538
v 1.865204 -2.401703 0.395282
v 1.865204 5.884640 -0.220480
v 5.154997 -2.401703 0.379976
v 8.444792 -2.401703 0.379976
v 7.531900 2.263016 0.486408
v 5.154997 5.884640 -0.220480
v 6.843884 -5.310182 0.050739
v 4.616305 -5.061498 -0.011256
v 3.398447 -4.619294 -0.078873
v 1.743885 -4.265278 -0.100374
v -0.024578 -4.639784 -0.166061
v -1.791231 -4.573911 -0.286747
v -3.001105 -4.034957 -0.371682
v -4.264156 -2.749505 -0.387788
v -5.328341 -0.067020 -0.415128
v -6.682785 2.494125 -0.445480
v -8.010613 4.205524 -0.410738
v 7.665106 -3.818212 0.219628
v 4.925242 -3.536119 0.213114
v 3.491820 -3.401089 0.177245
v 1.809594 -3.255919 0.168086
v 0.158383 -3.422895 0.058422
v -2.099519 -3.100923 -0.112907
v -4.252453 0.561783 -0.214125
v -6.934956 4.627906 -0.322803
v -2.993452 -1.580109 -0.154934
v 1.865204 4.284586 -0.101579
v 5.154997 2.230378 0.044320
vt 1.030417 0.859367
vt 0.991995 0.941348
vt 0.988962 0.860312
vt 0.908122 0.940691
vt 0.906050 0.861759
vt 0.950539 0.942293
vt 0.947505 0.861280
vt 1.020621 0.905906
vt 0.853570 0.936438
vt 1.009179 0.830584
vt 0.981199 0.833590
vt 0.966015 0.838212
vt 0.945294 0.842156
vt 0.922872 0.838863
vt 0.900634 0.839843
vt 0.885585 0.845394
vt 0.870140 0.858441
vt 0.857712 0.885228
vt 0.841581 0.910893
vt 0.825475 0.928246
vt 1.020074 0.845349
vt 0.985651 0.848915
vt 0.967637 0.850609
vt 0.946492 0.852514
vt 0.925623 0.851175
vt 0.897289 0.854753
vt 0.871500 0.891433
vt 0.839185 0.932244
vt 0.886581 0.869983
vt 0.949953 0.926650
vt 0.990657 0.905611
vn -0.117601 -0.079479 0.989875
vn -0.016274 0.046731 0.998775
vn -0.058656 -0.003507 0.998272
vn -0.034200 -0.087756 0.995555
vn 0.008243 0.073601 0.997254
vn -0.007093 -0.037496 0.999272
vn -0.032148 -0.031304 0.998993
vn -0.182695 -0.011329 0.983104
vn -0.049819 0.072184 0.996146
vn -0.022878 -0.115631 0.993029
vn -0.071055 -0.131056 0.988825
vn -0.058091 -0.188126 0.980426
vn -0.022267 -0.255617 0.966522
vn -0.061553 -0.175631 0.982530
vn -0.093455 -0.135961 0.986296
vn -0.140067 -0.136499 0.980688
vn -0.139718 -0.070017 0.987713
vn -0.150500 -0.057969 0.986909
vn -0.136526 -0.071873 0.988026
vn -0.056343 -0.063942 0.996362
vn -0.007171 -0.113727 0.993486
vn -0.039270 -0.141308 0.989186
vn -0.021015 -0.201565 0.979250
vn -0.031275 -0.242957 0.969533
vn -0.077965 -0.175823 0.981330
vn -0.132621 -0.122119 0.983615
vn -0.149522 -0.054696 0.987244
vn -0.078188 -0.047253 0.995818
vn -0.163008 -0.068617 0.984236
vn 0.009077 0.073941 0.997221
vn -0.073643 0.052321 0.995911
g fff08519_00224_003e92b2_e0
f 7/1/7 31/31/31 6/3/6
f 2/4/2 1/5/1 4/7/4
f 6/3/6 30/30/30 4/7/4
f 9/2/9 31/31/31 8/8/8
f 5/6/5 30/30/30 31/31/31
f 4/7/4 30/30/30 2/4/2
f 27/27/27 19/19/19 18/18/18
f 4/7/4 1/5/1 25/25/25
f 29/29/29 17/17/17 26/26/26
f 28/28/28 19/19/19 27/27/27
f 18/18/18 17/17/17 27/27/27
f 14/14/14 25/25/25 26/26/26
f 12/12/12 23/23/23 24/24/24
f 4/7/4 25/25/25 24/24/24
f 10/10/10 21/21/21 22/22/22
f 6/3/6 23/23/23 22/22/22
f 29/29/29 26/26/26 1/5/1
f 7/1/7 6/3/6 21/21/21
f 14/14/14 26/26/26 15/15/15
f 6/3/6 4/7/4 23/23/23
f 3/9/3 1/5/1 2/4/2
f 21/21/21 6/3/6 22/22/22
f 10/10/10 22/22/22 11/11/11
f 22/22/22 12/12/12 11/11/11
f 23/23/23 4/7/4 24/24/24
f 22/22/22 23/23/23 12/12/12
f 12/12/12 24/24/24 13/13/13
f 24/24/24 14/14/14 13/13/13
f 25/25/25 1/5/1 26/26/26
f 24/24/24 25/25/25 14/14/14
f 17/17/17 16/16/16 26/26/26
f 26/26/26 16/16/16 15/15/15
f 27/27/27 1/5/1 3/9/3
f 28/28/28 27/27/27 3/9/3
f 20/20/20 19/19/19 28/28/28
f 27/27/27 17/17/17 29/29/29
f 27/27/27 29/29/29 1/5/1
f 6/3/6 31/31/31 30/30/30
f 30/30/30 5/6/5 2/4/2
f 7/1/7 8/8/8 31/31/31
f 5/6/5 31/31/31 9/2/9
