# fff0a81b_00595_00cee1ea
o fff0a81b_00595_00cee1ea
v 1.497631 -20.114906 -362.806885
v 1.497631 -13.743935 -362.806885
v 1.497631 -15.545204 -362.806885
v 1.497631 -13.743935 39.296074
v 1.497631 18.274879 -362.806885
v 1.497631 20.154747 46.224602
v 1.497631 20.154747 -362.806885
v 1.497631 18.274879 39.296074
v 1.497631 -22.496468 -362.806885
v 1.497631 -22.496468 46.224602
v 1.497631 -15.545204 39.296074
v 1.497631 -20.114906 39.296074
v 1.497631 5.964783 46.224602
v 1.497631 5.964470 -362.806885
v 1.497631 -7.168983 -362.806885
v 1.497631 -8.830727 -362.806885
v 1.497631 -0.904884 -362.806885
v 1.497631 -2.630104 -362.806885
v 1.497631 4.266716 -362.806885
v 1.497631 11.171989 39.296074
v 1.497631 12.815361 39.296074
v 1.497631 12.815361 -362.806885
v 1.497631 11.171989 -362.806885
v 1.497631 5.964783 39.296074
v 1.497631 -8.830727 39.296074
v 1.497631 -7.168983 39.296074
v 1.497631 -0.904884 39.296074
v 1.497631 4.266724 39.296074
v 1.497631 -2.630104 39.296074
v 0.708874 -20.114601 39.296104
v 0.708874 -15.544899 39.296104
v 0.708874 -15.544899 -362.806885
v 0.708874 -20.114601 -362.806885
v 0.708874 -13.743629 39.296104
v 0.708874 -8.830421 39.296104
v 0.708874 -8.830421 -362.806885
v 0.708874 -13.743629 -362.806885
v 0.708874 -7.168678 39.296104
v 0.708874 -2.629799 39.296104
v 0.708874 -2.629799 -362.806885
v 0.708874 -7.168678 -362.806885
v 0.708874 -0.904579 39.296074
v 0.708874 4.267021 39.296074
v 0.708874 -0.904579 -362.806885
v 0.708874 5.964775 39.296074
v 0.708874 4.267021 -362.806885
v 0.708874 11.172295 39.296074
v 0.708874 11.172295 -362.806885
v 0.708874 5.964775 -362.806885
v 0.708874 18.275185 -362.806885
v 0.708874 12.815666 39.296074
v 0.708874 18.275185 39.296074
v 0.708874 12.815666 -362.806885
v -8.528736 -22.496468 -362.806885
v -8.528736 -22.496468 46.224609
v 1.309391 -22.496468 46.224602
v 1.097547 -22.496468 -362.806885
v 1.497631 4.266724 46.224602
v 0.708874 4.267021 22.038160
v 1.497631 4.266722 22.038160
v 1.497631 5.964711 22.038160
v 0.708874 -0.904579 22.038160
v 1.497631 -0.904884 22.038160
v 1.497631 -2.630104 22.038160
v 0.708874 -2.629799 22.038160
v 0.708874 -7.168678 22.038160
v 1.497631 -7.168983 22.038160
v 1.497631 -8.830727 22.038160
v 0.708874 -8.830421 22.038160
v 0.708874 -13.743629 22.038160
v 1.497631 -13.743935 22.038160
v 1.497631 -15.545204 22.038160
v 0.708874 -15.544899 22.038160
v 0.708874 -20.114601 22.038160
v 1.497631 -20.114906 22.038160
v 1.497631 -22.496468 22.038160
v 1.245837 -22.496468 22.038160
v 1.497631 5.964706 20.833700
v 0.708874 4.267021 20.833700
v 1.497631 4.266722 20.833700
v 0.708874 -0.904579 20.833700
v 1.497631 -0.904884 20.833700
v 1.497631 -2.630104 20.833700
v 0.708874 -2.629799 20.833700
v 0.708874 -7.168678 20.833700
v 1.497631 -7.168983 20.833700
v 1.480085 -8.830720 20.833700
v 0.708874 -8.830421 20.833700
v 0.708874 -13.743629 20.833700
v 1.497631 -13.743935 20.833700
v 1.480151 -15.545197 20.833700
v 0.708874 -15.544899 20.833700
v 0.708874 -20.114601 20.833700
v 1.497631 -20.114906 20.833700
v 1.497631 -22.496468 20.833700
v 1.242676 -22.496468 20.833700
v -8.528736 -22.496468 20.854300
v 1.497631 -15.545204 -362.806885
v 1.497631 18.274879 -362.806885
v 1.497631 18.274879 39.296074
v 1.497631 -15.545204 39.296074
v 1.497631 -8.830727 -362.806885
v 1.497631 -2.630104 -362.806885
v 1.497631 4.266716 -362.806885
v 1.497631 11.171989 39.296074
v 1.497631 11.171989 -362.806885
v 1.497631 -8.830727 39.296074
v 1.497631 4.266724 39.296074
v 1.497631 -2.630104 39.296074
v 0.708874 -15.544899 39.296104
v 0.708874 -15.544899 -362.806885
v 0.708874 -8.830421 39.296104
v 0.708874 -8.830421 -362.806885
v 0.708874 -2.629799 39.296104
v 0.708874 -2.629799 -362.806885
v 0.708874 4.267021 39.296074
v 0.708874 4.267021 -362.806885
v 0.708874 11.172295 39.296074
v 0.708874 11.172295 -362.806885
v 0.708874 18.275185 -362.806885
v 0.708874 18.275185 39.296074
v 0.708874 4.267021 22.038160
v 1.497631 4.266722 22.038160
v 1.497631 -2.630104 22.038160
v 0.708874 -2.629799 22.038160
v 1.497631 -8.830727 22.038160
v 0.708874 -8.830421 22.038160
v 1.497631 -15.545204 22.038160
v 0.708874 -15.544899 22.038160
v 0.708874 4.267021 20.833700
v 1.497631 4.266722 20.833700
v 1.497631 -2.630104 20.833700
v 0.708874 -2.629799 20.833700
v 1.480085 -8.830720 20.833700
v 0.708874 -8.830421 20.833700
v 1.480151 -15.545197 20.833700
v 0.708874 -15.544899 20.833700
v 1.497631 -13.743935 22.064392
v 1.497631 -20.114906 22.064392
v 1.497631 5.964783 22.064392
v 1.497631 -7.168983 22.064392
v 1.497631 -0.904884 22.064392
v 0.708874 -20.114601 22.064423
v 0.708874 -13.743629 22.064423
v 0.708874 -7.168678 22.064423
v 0.708874 -0.904579 22.064392
v 0.708874 5.964775 22.064392
vt 1.000000 1.000000
vt 1.000000 0.021824
vt 0.000000 0.021966
vt 0.000000 0.933044
vt 0.000000 1.000000
vt 0.383558 1.000000
vt 0.955769 0.022068
vt 0.955067 0.976968
vt 0.042224 0.981444
vt 0.560307 3.748302
vt 0.582627 3.594602
vt 0.288056 6959.186035
vt 0.246324 7411.172852
vt 0.632500 3.251157
vt 0.671647 2804.716797
vt 0.654968 3.096438
vt 0.408758 5651.930176
vt 0.373450 6034.332031
vt 0.713486 2.693458
vt 0.734558 2.548354
vt 0.546868 4156.135254
vt 0.506372 4594.723145
vt 0.806866 2.050416
vt 0.634484 3207.212646
vt 0.784555 2.204057
vt 0.869697 1.617736
vt 0.891780 1.465664
vt 0.813039 1273.378052
vt 0.777879 1654.169800
vt 0.500013 4.163510
vt 0.560307 3.748302
vt 0.246324 7411.172852
vt 0.146703 8490.109375
vt 0.582627 3.594602
vt 0.632500 3.251157
vt 0.373450 6034.332031
vt 0.288056 6959.186035
vt 0.654968 3.096438
vt 0.713486 2.693458
vt 0.506372 4594.723145
vt 0.408758 5651.930176
vt 0.734558 2.548354
vt 0.786893 0.977792
vt 0.672665 0.978352
vt 0.197883 0.980681
vt 0.312199 0.980120
vt 0.357518 0.979898
vt 0.508435 0.979158
vt 0.622880 0.978597
vt 0.462401 0.979384
vt 0.147306 0.980929
vt 0.784555 2.204057
vt 0.634484 3207.212646
vt 0.546868 4156.135254
vt 0.777879 1654.169800
vt 0.806866 2.050416
vt 0.869697 1.617736
vt 0.671647 2804.716797
vt 0.835717 0.977553
vt 0.560307 3.748302
vt 0.869697 1.617736
vt 0.869697 1.617736
vt 0.784555 2.204057
vt 0.784555 2.204057
vt 0.713486 2.693458
vt 0.713486 2.693458
vt 0.632500 3.251157
vt 0.632500 3.251157
vt 0.560307 3.748302
vt 0.999997 1.928455
vt 1.999997 1.000113
vt 1.999996 1.928561
vt 0.999997 1.000007
vt 1.981222 1.928559
vt 1.960093 1.000109
vt 0.357095 1.000000
vt 0.749346 754.150269
vt 0.749902 742.261536
vt 0.775875 644.395020
vt 0.689155 1007.312012
vt 0.689655 996.242310
vt 0.663949 1101.013794
vt 0.663483 1111.344971
vt 0.595171 1375.027466
vt 0.596424 1346.267334
vt 0.570778 1440.245483
vt 0.570584 1444.743286
vt 0.512198 1666.614136
vt 0.512536 1658.625122
vt 0.485993 1756.958008
vt 0.485753 1762.613037
vt 0.415756 2027.881104
vt 0.000000 0.021966
vt 0.000000 0.657453
vt 1.999996 1.647716
vt 1.974883 1.650021
vt 0.773571 692.152222
vt 0.746677 811.149536
vt 0.747470 794.199097
vt 0.685938 1078.508301
vt 0.686582 1064.261353
vt 0.660432 1178.990601
vt 0.660138 1185.514404
vt 0.591355 1462.575806
vt 0.592533 1435.545166
vt 0.566388 1542.439453
vt 0.566033 1550.718262
vt 0.507740 1771.867920
vt 0.507713 1772.503784
vt 0.480681 1882.263550
vt 0.480575 1884.779541
vt 0.409743 2172.305420
vt 0.000000 0.021966
vt 0.000000 0.643798
vt 1.999996 1.633801
vt 1.974568 1.636167
vt 0.999997 1.632758
vt 0.632500 3.251157
vt 0.632500 3.251157
vt 0.560307 3.748302
vt 0.560307 3.748302
vt 0.869697 1.617736
vt 0.869697 1.617736
vt 0.713486 2.693458
vt 0.713486 2.693458
vt 0.784555 2.204057
vt 0.784555 2.204057
vn 1.000000 0.000000 0.000000
vn 1.000000 0.000000 0.000000
vn 1.000000 -0.000029 0.000000
vn 0.904571 0.301496 -0.301415
vn 1.000000 0.000000 0.000000
vn 1.000000 0.000000 0.000000
vn 1.000000 0.000000 0.000000
vn 1.000000 0.000000 0.000000
vn 0.707107 -0.707107 0.000000
vn 0.707107 -0.707106 0.000000
vn 0.948659 0.000000 -0.316302
vn 0.904571 0.301496 -0.301414
vn 1.000000 0.000000 0.000000
vn 1.000000 0.000000 0.000000
vn 1.000000 0.000000 0.000000
vn 1.000000 -0.000029 0.000000
vn 1.000000 0.000000 0.000000
vn 1.000000 0.000000 0.000000
vn 1.000000 0.000000 0.000000
vn 0.948660 0.000000 -0.316298
vn 1.000000 0.000000 0.000000
vn 1.000000 0.000000 0.000000
vn 1.000000 0.000000 0.000000
vn 0.904533 0.301512 -0.301514
vn 0.948659 0.000000 -0.316302
vn 0.904571 0.301496 -0.301415
vn 0.577547 0.577323 -0.577181
vn 0.948661 0.000000 -0.316296
vn 0.948659 0.000000 -0.316302
vn 0.577442 0.577226 -0.577383
vn 0.707180 0.000000 -0.707033
vn 1.000000 0.000000 0.000000
vn 1.000000 0.000000 0.000000
vn 0.577442 0.577226 -0.577383
vn 0.707180 0.000000 -0.707033
vn 1.000000 0.000000 0.000000
vn 1.000000 0.000000 0.000000
vn 0.577442 0.577226 -0.577383
vn 0.707180 0.000000 -0.707033
vn 1.000000 0.000000 0.000000
vn 1.000000 0.000000 0.000000
vn 0.577452 0.577228 -0.577371
vn 0.707192 0.000000 -0.707022
vn 1.000000 0.000000 0.000000
vn 0.577348 0.577353 -0.577350
vn 1.000000 0.000000 0.000000
vn 0.707194 0.000000 -0.707020
vn 1.000000 0.000000 0.000000
vn 1.000000 0.000000 0.000000
vn 1.000000 0.000000 0.000000
vn 1.000000 0.000000 0.000000
vn 1.000000 0.000000 0.000000
vn 1.000000 0.000000 0.000000
vn 0.000000 -1.000000 0.000000
vn 0.000000 -1.000000 0.000000
vn 0.000000 -1.000000 0.000000
vn 0.000000 -1.000000 0.000000
vn 1.000000 0.000000 0.000000
vn 1.000000 0.000000 0.000000
vn 1.000000 0.000000 0.000000
vn 1.000000 0.000000 0.000000
vn 1.000000 0.000000 0.000000
vn 1.000000 0.000000 0.000000
vn 1.000000 0.000000 0.000000
vn 1.000000 0.000000 0.000000
vn 1.000000 0.000000 0.000000
vn 1.000000 0.000000 0.000000
vn 0.999985 -0.003171 -0.004375
vn 1.000000 0.000000 0.000000
vn 1.000000 0.000000 0.000000
vn 0.999992 -0.003031 -0.002723
vn 0.999974 0.000000 -0.007256
vn 1.000000 0.000000 0.000000
vn 1.000000 0.000000 0.000000
vn 1.000000 0.000000 0.000000
vn 0.707107 -0.707107 0.000000
vn 0.000000 -1.000000 0.000000
vn 1.000000 0.000000 0.000000
vn 1.000000 0.000000 0.000000
vn 1.000000 0.000000 0.000000
vn 1.000000 0.000000 0.000000
vn 1.000000 0.000000 0.000000
vn 1.000000 0.000000 0.000000
vn 1.000000 0.000000 0.000000
vn 1.000000 0.000000 0.000000
vn 0.999969 -0.007372 -0.002885
vn 0.999918 -0.010558 -0.007259
vn 1.000000 0.000000 0.000000
vn 1.000000 0.000000 0.000000
vn 0.999953 -0.009689 0.000023
vn 0.999968 -0.006673 -0.004510
vn 1.000000 0.000000 0.000000
vn 1.000000 0.000000 0.000000
vn 1.000000 0.000000 0.000000
vn 0.707108 -0.707106 0.000000
vn 0.000000 -1.000000 0.000000
vn 0.000000 -1.000000 0.000000
vn -0.000387 -1.000000 -0.000000
vn -0.000387 -1.000000 0.000000
vn -0.000387 -1.000000 0.000000
vn -0.000387 -1.000000 0.000000
vn -0.000387 -1.000000 -0.000000
vn -0.000387 -1.000000 0.000000
vn -0.000387 -1.000000 0.000000
vn -0.000387 -1.000000 0.000000
vn -0.000387 -1.000000 0.000000
vn -0.000387 -1.000000 0.000000
vn -0.000377 -1.000000 0.000000
vn -0.000387 -1.000000 0.000000
vn -0.000387 -1.000000 0.000000
vn -0.000387 -1.000000 -0.000000
vn -0.000387 -1.000000 0.000000
vn -0.000387 -1.000000 -0.000000
vn -0.000387 -1.000000 0.000000
vn -0.000387 -1.000000 0.000000
vn -0.000377 -1.000000 0.000000
vn -0.000387 -1.000000 0.000000
vn -0.000387 -1.000000 0.000000
vn -0.000387 -1.000000 0.000000
vn -0.000387 -1.000000 0.000000
vn -0.000387 -1.000000 0.000000
vn -0.000380 -1.000000 0.000000
vn -0.000380 -1.000000 0.000000
vn -0.000387 -1.000000 0.000000
vn -0.000387 -1.000000 0.000000
vn -0.000387 -1.000000 0.000000
vn -0.000387 -1.000000 0.000000
vn -0.000387 -1.000000 0.000000
vn -0.000387 -1.000000 0.000000
vn -0.000380 -1.000000 0.000000
vn -0.000380 -1.000000 0.000000
vn -0.000387 -1.000000 0.000000
vn -0.000387 -1.000000 0.000000
vn -0.000387 -1.000000 0.000000
vn -0.000387 -1.000000 0.000000
vn -0.000387 -1.000000 0.000000
vn -0.000387 -1.000000 0.000000
vn 0.000387 1.000000 0.000000
vn 0.000387 1.000000 0.000000
vn -0.000010 1.000000 0.000000
vn 0.000387 1.000000 0.000000
vn 0.000387 1.000000 0.000000
vn 0.000387 1.000000 0.000000
vn 0.000387 1.000000 0.000000
vn 0.000387 1.000000 0.000000
vn 0.000387 1.000000 0.000000
vn -0.000010 1.000000 0.000000
g fff0a81b_00595_00cee1ea_e16
f 4/45/4 10/5/10 11/51/11
f 11/51/11 10/5/10 12/9/12
f 94/9/94 95/114/95 9/3/9
f 8/8/8 7/2/7 6/1/6
f 58/76/58 10/5/10 28/49/28
f 7/2/7 8/8/8 5/7/5
f 28/49/28 29/50/29 27/48/27
f 28/49/28 10/5/10 29/50/29
f 29/50/29 10/5/10 26/47/26
f 26/47/26 10/5/10 25/46/25
f 25/46/25 10/5/10 4/45/4
f 24/44/24 13/6/13 28/49/28
f 24/44/24 6/1/6 13/6/13
f 23/29/23 22/28/22 21/27/21
f 20/26/20 23/29/23 21/27/21
f 78/97/78 19/24/19 14/15/14
f 64/82/64 83/102/83 82/101/82
f 83/102/83 18/22/18 17/21/17
f 68/86/68 87/106/87 86/105/86
f 86/105/86 16/18/16 15/17/15
f 3/13/3 2/12/2 90/109/90
f 72/90/72 91/110/91 71/89/71
f 8/8/8 6/1/6 21/59/21
f 21/59/21 6/1/6 20/43/20
f 20/43/20 6/1/6 24/44/24
f 9/3/9 1/3/1 94/113/94
f 13/6/13 58/76/58 28/49/28
f 28/25/28 60/78/60 24/23/24
f 64/82/64 63/81/63 27/20/27
f 29/19/29 64/82/64 27/20/27
f 68/86/68 67/85/67 26/16/26
f 25/14/25 68/86/68 26/16/26
f 72/90/72 71/89/71 4/11/4
f 11/10/11 72/90/72 4/11/4
f 76/3/76 75/93/75 12/3/12
f 12/9/12 10/4/10 76/94/76
f 64/82/64 82/101/82 63/81/63
f 82/101/82 83/102/83 17/21/17
f 68/86/68 86/105/86 67/85/67
f 91/110/91 90/109/90 71/89/71
f 95/3/95 94/113/94 75/93/75
f 75/9/75 76/94/76 95/114/95
g fff0a81b_00595_00cee1ea_e17
f 56/74/56 77/96/77 76/95/76
f 57/75/57 95/115/95 96/116/96
f 45/62/45 47/57/47 20/26/20
f 20/26/20 24/61/24 45/62/45
f 80/99/80 19/24/19 78/97/78
f 136/110/136 137/111/137 111/32/111
f 122/77/122 123/78/123 116/52/116
f 104/24/104 130/98/130 117/53/117
f 118/57/118 119/55/119 106/29/106
f 106/29/106 105/26/105 118/57/118
f 134/106/134 135/107/135 113/36/113
f 129/91/129 128/90/128 110/31/110
f 132/102/132 133/103/133 115/40/115
f 125/83/125 124/82/124 114/39/114
f 127/87/127 126/86/126 112/35/112
f 121/57/121 120/55/120 99/29/99
f 99/29/99 100/26/100 121/57/121
f 30/69/30 31/31/31 11/10/11
f 11/10/11 12/60/12 30/69/30
f 34/68/34 35/35/35 25/14/25
f 25/14/25 4/67/4 34/68/34
f 38/66/38 39/39/39 29/19/29
f 29/19/29 26/65/26 38/66/38
f 42/64/42 43/52/43 28/25/28
f 28/25/28 27/63/27 42/64/42
f 55/70/55 77/96/77 56/74/56
f 57/75/57 96/116/96 54/73/54
f 131/99/131 130/98/130 104/24/104
f 123/78/123 108/25/108 116/52/116
f 60/78/60 61/79/61 24/23/24
f 124/82/124 109/19/109 114/39/114
f 132/102/132 115/40/115 103/22/103
f 126/86/126 107/14/107 112/35/112
f 134/106/134 113/36/113 102/18/102
f 128/90/128 101/10/101 110/31/110
f 136/110/136 111/32/111 98/13/98
f 56/74/56 76/95/76 10/72/10
f 9/71/9 95/115/95 57/75/57
f 97/117/97 54/73/54 96/116/96
f 60/78/60 78/97/78 61/79/61
f 123/78/123 122/77/122 130/98/130
f 60/78/60 80/99/80 78/97/78
f 123/78/123 130/98/130 131/99/131
f 124/82/124 133/103/133 132/102/132
f 124/82/124 125/83/125 133/103/133
f 126/86/126 127/87/127 134/106/134
f 86/105/86 87/106/87 16/18/16
f 134/106/134 127/87/127 135/107/135
f 128/90/128 129/91/129 136/110/136
f 90/109/90 91/110/91 3/13/3
f 136/110/136 129/91/129 137/111/137
f 95/115/95 76/95/76 77/96/77
f 96/116/96 95/115/95 77/96/77
f 97/117/97 77/96/77 55/70/55
f 77/96/77 97/117/97 96/116/96
f 144/119/144 34/68/34 4/67/4
f 4/67/4 138/118/138 144/119/144
f 143/121/143 30/69/30 12/60/12
f 12/60/12 139/120/139 143/121/143
f 147/123/147 45/62/45 24/61/24
f 24/61/24 140/122/140 147/123/147
f 145/125/145 38/66/38 26/65/26
f 26/65/26 141/124/141 145/125/145
f 146/127/146 42/64/42 27/63/27
f 27/63/27 142/126/142 146/127/146
g fff0a81b_00595_00cee1ea_e46
f 53/58/53 52/57/52 51/56/51
f 53/58/53 50/55/50 52/57/52
f 49/58/49 48/55/48 47/57/47
f 49/58/49 47/57/47 45/56/45
f 42/42/42 59/77/59 43/52/43
f 62/80/62 59/77/59 42/42/42
f 38/38/38 65/83/65 39/39/39
f 66/84/66 65/83/65 38/38/38
f 70/88/70 69/87/69 35/35/35
f 70/88/70 35/35/35 34/34/34
f 30/30/30 73/91/73 31/31/31
f 74/92/74 73/91/73 30/30/30
f 62/80/62 81/100/81 79/98/79
f 44/54/44 46/53/46 81/100/81
f 66/84/66 85/104/85 84/103/84
f 41/41/41 40/40/40 85/104/85
f 37/37/37 36/36/36 88/107/88
f 37/37/37 88/107/88 89/108/89
f 74/92/74 93/112/93 92/111/92
f 33/33/33 32/32/32 93/112/93
f 62/80/62 79/98/79 59/77/59
f 81/100/81 46/53/46 79/98/79
f 66/84/66 84/103/84 65/83/65
f 85/104/85 40/40/40 84/103/84
f 70/88/70 88/107/88 69/87/69
f 89/108/89 88/107/88 70/88/70
f 74/92/74 92/111/92 73/91/73
f 93/112/93 32/32/32 92/111/92
