# fff0ac53_00042_001180df
o fff0ac53_00042_001180df
v 1.458290 -0.029951 0.024772
v 0.144367 -0.045897 3.064778
v 1.317650 -0.045897 3.064778
v 1.458290 -0.029951 3.177803
v 0.000405 -0.029951 3.177803
v 1.317650 -0.045897 0.394424
v 0.144367 -0.045897 0.394424
v 1.317489 0.033363 0.394424
v 1.444133 0.033363 -0.000801
v 1.444133 0.033363 3.177788
v 1.317489 0.033363 3.064778
v 0.144205 0.033363 0.394424
v 0.144206 0.033363 3.064778
v 0.000405 0.033363 3.177788
v 0.000405 0.033363 -0.000801
v 1.317489 -0.045897 2.081309
v 0.144205 -0.045897 2.081309
v 1.317489 0.033363 1.995772
v 1.317489 0.033363 2.081309
v 0.144205 0.033363 2.081309
v 0.144205 0.033363 1.995772
v 1.444146 0.025146 -0.000801
v 0.144367 -0.045897 2.261562
v 1.317650 -0.045897 3.064777
v 0.144367 -0.045897 3.064777
v 1.317650 -0.045897 2.261562
v 0.144367 -0.045897 2.061006
v 1.317650 -0.045897 2.061006
v 0.144367 -0.045897 1.684936
v 1.317650 -0.045897 1.996998
v 0.144367 -0.045897 1.996998
v 1.317650 -0.045897 1.684936
v 0.144367 -0.045897 0.394424
v 1.317650 -0.045897 0.394424
v 0.000401 -0.025146 -0.000801
v 1.458289 -0.160301 -0.000801
v 0.000401 -0.160301 -0.000801
v 1.458289 -0.025146 -0.000801
v 0.000405 0.025146 -0.000801
v 0.000405 0.160301 -0.000801
v 1.458293 0.160301 -0.000801
v 1.096708 -0.042648 1.151585
v 1.194994 -0.042648 1.151585
v 0.000409 0.043108 0.131332
v 0.000409 0.043108 -0.000801
v 1.444135 0.043108 -0.000801
v 1.444135 0.043108 0.131332
v 1.194994 -0.042648 0.783487
v 1.096708 -0.042648 0.783487
v 0.328970 -0.013080 1.939699
v 1.107118 -0.013080 1.424576
v 1.107122 -0.013080 1.939699
v 0.328970 -0.013080 1.424576
v 1.429977 -0.029951 0.024772
v 2.743900 -0.045897 3.064778
v 1.570617 -0.045897 3.064778
v 1.429977 -0.029951 3.177803
v 2.887862 -0.029951 3.177803
v 1.570617 -0.045897 0.394424
v 2.743900 -0.045897 0.394424
v 1.570778 0.033363 0.394424
v 1.444133 0.033363 -0.000801
v 1.444133 0.033363 3.177788
v 1.570778 0.033363 3.064778
v 2.744062 0.033363 0.394424
v 2.744061 0.033363 3.064778
v 2.887862 0.033363 3.177788
v 2.887862 0.033363 -0.000801
v 1.570778 -0.045897 2.081309
v 2.744062 -0.045897 2.081309
v 1.570778 0.033363 1.995772
v 1.570778 0.033363 2.081309
v 2.744062 0.033363 2.081309
v 2.744062 0.033363 1.995772
v 1.444121 0.025146 -0.000801
v 2.743900 -0.045897 2.261562
v 1.570617 -0.045897 3.064777
v 2.743900 -0.045897 3.064777
v 1.570617 -0.045897 2.261562
v 2.743900 -0.045897 2.061006
v 1.570617 -0.045897 2.061006
v 2.743900 -0.045897 1.684936
v 1.570617 -0.045897 1.996998
v 2.743900 -0.045897 1.996998
v 1.570617 -0.045897 1.684936
v 2.743900 -0.045897 0.394424
v 1.570617 -0.045897 0.394424
v 2.887866 -0.025147 -0.000801
v 1.429978 -0.160301 -0.000801
v 2.887866 -0.160301 -0.000801
v 1.429978 -0.025147 -0.000801
v 2.887862 0.025146 -0.000801
v 2.887862 0.160301 -0.000801
v 1.429973 0.160301 -0.000801
v 1.791558 -0.042648 1.151585
v 1.693273 -0.042648 1.151585
v 2.887858 0.043108 0.131332
v 2.887858 0.043108 -0.000801
v 1.444132 0.043108 -0.000801
v 1.444132 0.043108 0.131332
v 1.693273 -0.042648 0.783487
v 1.791558 -0.042648 0.783487
v 1.756533 -0.013080 1.939699
v 2.534682 -0.013080 1.424576
v 2.534685 -0.013080 1.939699
v 1.756533 -0.013080 1.424576
vt 1.488842 1.704702
vt 1.304852 1.500000
vt 1.304852 1.500000
vt 1.529794 1.500000
vt 1.287851 1.727872
vt 1.287851 1.727872
vt 1.287851 1.727872
vt 1.287851 1.727872
vt 1.287851 1.727872
vt 1.488842 1.704702
vt 1.287851 1.727872
vt 1.529794 1.500000
vt 1.488842 1.704702
vt 1.488842 1.704702
vt 1.529794 1.500000
vt 0.000000 0.000000
vt 1.962693 1.995919
vt 1.039906 1.995321
vt 1.962693 1.024071
vt 1.287851 1.727872
vt 1.287851 1.727872
vt 1.287851 1.727872
vt 1.488842 1.704702
vt 0.000000 0.000000
vt 0.000000 0.000000
vt 1.039906 1.023472
vn 0.975903 0.218204 0.000000
vn 0.706648 0.001437 -0.707564
vn -0.707563 -0.001439 -0.706649
vn 0.739864 0.165585 0.652061
vn -0.000000 0.000241 1.000000
vn -0.707563 -0.001439 0.706649
vn 0.706645 0.001446 0.707566
vn -0.301642 0.904316 0.302034
vn 0.537182 0.843466 0.000000
vn 0.504897 0.630319 0.589726
vn -0.301642 0.904316 -0.302034
vn 0.301378 0.904753 0.300986
vn 0.301379 0.904752 -0.300990
vn -0.000000 0.707192 0.707022
vn 0.000000 1.000000 0.000000
vn 0.000000 -0.000006 1.000000
vn 0.000000 -0.000006 1.000000
vn 0.000000 1.000000 0.000000
vn 0.000000 0.707105 0.707109
vn 0.000000 0.707105 0.707109
vn 0.000000 1.000000 0.000000
vn 0.000000 0.000000 1.000000
vn 0.000000 1.000000 0.000000
vn 0.000000 1.000000 0.000000
vn 0.000000 1.000000 0.000000
vn 0.000000 1.000000 0.000000
vn 0.000000 1.000000 0.000000
vn 0.000000 1.000000 0.000000
vn 0.000000 1.000000 0.000000
vn 0.000000 1.000000 0.000000
vn 0.000000 1.000000 0.000000
vn 0.000000 1.000000 0.000000
vn 0.000000 1.000000 0.000000
vn 0.000000 1.000000 0.000000
vn 0.000000 0.000000 1.000000
vn 0.000000 0.000000 1.000000
vn 0.000000 0.000000 1.000000
vn 0.000000 0.000000 1.000000
vn 0.000000 0.000000 1.000000
vn 0.000000 0.000000 1.000000
vn 0.000000 0.000000 1.000000
vn 0.000000 1.000000 0.000000
vn 0.000000 1.000000 0.000000
vn 0.000000 1.000000 0.000000
vn 0.000000 1.000000 0.000000
vn 0.000000 1.000000 0.000000
vn 0.000000 1.000000 0.000000
vn 0.000000 1.000000 0.000000
vn 0.000000 1.000000 0.000000
vn 0.000000 1.000000 0.000000
vn 0.000000 1.000000 -0.000000
vn 0.000000 1.000000 -0.000000
vn 0.000000 1.000000 -0.000000
vn -0.975903 0.218206 0.000000
vn -0.706648 0.001437 -0.707563
vn 0.707562 -0.001439 -0.706649
vn -0.739864 0.165586 0.652061
vn 0.000000 0.000241 1.000000
vn 0.707564 -0.001439 0.706648
vn -0.706644 0.001445 0.707567
vn 0.301642 0.904316 0.302033
vn -0.537182 0.843467 0.000000
vn -0.504897 0.630319 0.589726
vn 0.301643 0.904316 -0.302033
vn -0.301379 0.904753 0.300987
vn -0.301379 0.904752 -0.300990
vn 0.000000 0.707192 0.707022
vn 0.000000 1.000000 0.000000
vn 0.000000 -0.000006 1.000000
vn 0.000000 -0.000006 1.000000
vn 0.000000 1.000000 0.000000
vn 0.000000 0.707105 0.707109
vn 0.000000 0.707105 0.707109
vn 0.000000 1.000000 0.000000
vn 0.000000 0.000000 1.000000
vn 0.000000 1.000000 0.000000
vn 0.000000 1.000000 0.000000
vn 0.000000 1.000000 0.000000
vn 0.000000 1.000000 0.000000
vn 0.000000 1.000000 0.000000
vn 0.000000 1.000000 0.000000
vn 0.000000 1.000000 0.000000
vn 0.000000 1.000000 0.000000
vn 0.000000 1.000000 0.000000
vn 0.000000 1.000000 0.000000
vn 0.000000 1.000000 0.000000
vn 0.000000 1.000000 0.000000
vn 0.000000 0.000000 1.000000
vn 0.000000 0.000000 1.000000
vn 0.000000 0.000000 1.000000
vn 0.000000 0.000000 1.000000
vn 0.000000 0.000000 1.000000
vn 0.000000 0.000000 1.000000
vn 0.000000 0.000000 1.000000
vn 0.000000 1.000000 0.000000
vn 0.000000 1.000000 0.000000
vn 0.000000 1.000000 0.000000
vn 0.000000 1.000000 0.000000
vn 0.000000 1.000000 0.000000
vn 0.000000 1.000000 0.000000
vn 0.000000 1.000000 0.000000
vn 0.000000 1.000000 0.000000
vn 0.000000 1.000000 0.000000
vn 0.000000 1.000000 -0.000000
vn 0.000000 1.000000 -0.000000
vn 0.000000 1.000000 -0.000000
g fff0ac53_00042_001180df_e46
f 53/19/53 52/18/52 51/26/51
f 50/17/50 52/18/52 53/19/53
f 106/19/106 105/18/105 104/26/104
f 103/17/103 105/18/105 106/19/106
g fff0ac53_00042_001180df_e14
f 22/7/22 41/8/41 40/6/40
f 40/6/40 39/5/39 22/7/22
f 38/7/38 37/6/37 36/8/36
f 37/6/37 38/7/38 35/5/35
f 75/7/75 93/6/93 94/8/94
f 93/6/93 75/7/75 92/5/92
f 91/7/91 89/8/89 90/6/90
f 90/6/90 88/5/88 91/7/91
g fff0ac53_00042_001180df_e10
f 3/21/3 2/1/2 13/13/13
f 13/13/13 11/11/11 3/21/3
f 6/3/6 3/21/3 11/11/11
f 11/11/11 8/2/8 6/3/6
f 12/12/12 13/13/13 2/1/2
f 2/1/2 7/4/7 12/12/12
f 1/20/1 10/9/10 4/22/4
f 10/9/10 1/20/1 9/8/9
f 45/6/45 44/5/44 47/7/47
f 47/7/47 46/8/46 45/6/45
f 56/21/56 66/13/66 55/1/55
f 66/13/66 56/21/56 64/11/64
f 59/3/59 64/11/64 56/21/56
f 64/11/64 59/3/59 61/2/61
f 65/12/65 55/1/55 66/13/66
f 55/1/55 65/12/65 60/4/60
f 54/20/54 57/22/57 63/9/63
f 63/9/63 62/8/62 54/20/54
f 98/6/98 100/7/100 97/5/97
f 100/7/100 98/6/98 99/8/99
g fff0ac53_00042_001180df_e9
f 7/4/7 6/3/6 8/2/8
f 8/2/8 12/12/12 7/4/7
f 10/9/10 14/10/14 5/23/5
f 5/23/5 4/22/4 10/9/10
f 17/4/17 16/3/16 19/2/19
f 19/2/19 20/12/20 17/4/17
f 60/4/60 61/2/61 59/3/59
f 61/2/61 60/4/60 65/12/65
f 63/9/63 58/23/58 67/10/67
f 58/23/58 63/9/63 57/22/57
f 70/4/70 72/2/72 69/3/69
f 72/2/72 70/4/70 73/12/73
g fff0ac53_00042_001180df_e11
f 15/15/15 14/14/14 13/13/13
f 13/13/13 12/12/12 15/15/15
f 11/11/11 13/13/13 14/10/14
f 14/10/14 10/9/10 11/11/11
f 11/11/11 10/9/10 9/8/9
f 9/8/9 8/7/8 11/11/11
f 8/7/8 9/8/9 15/6/15
f 15/6/15 12/5/12 8/7/8
f 21/6/21 20/5/20 19/7/19
f 19/7/19 18/8/18 21/6/21
f 68/15/68 66/13/66 67/14/67
f 66/13/66 68/15/68 65/12/65
f 64/11/64 67/10/67 66/13/66
f 67/10/67 64/11/64 63/9/63
f 64/11/64 62/8/62 63/9/63
f 62/8/62 64/11/64 61/7/61
f 61/7/61 68/6/68 62/8/62
f 68/6/68 61/7/61 65/5/65
f 74/6/74 72/7/72 73/5/73
f 72/7/72 74/6/74 71/8/71
g fff0ac53_00042_001180df_e13
f 28/16/28 27/16/27 26/25/26
f 25/16/25 24/16/24 23/24/23
f 26/25/26 27/16/27 23/24/23
f 23/24/23 24/16/24 26/25/26
f 81/16/81 79/25/79 80/16/80
f 78/16/78 76/24/76 77/16/77
f 79/25/79 76/24/76 80/16/80
f 76/24/76 79/25/79 77/16/77
g fff0ac53_00042_001180df_e40
f 34/16/34 33/16/33 32/25/32
f 31/16/31 30/16/30 29/24/29
f 32/25/32 33/16/33 29/24/29
f 29/24/29 30/16/30 32/25/32
f 43/25/43 49/16/49 42/24/42
f 48/16/48 49/16/49 43/25/43
f 87/16/87 85/25/85 86/16/86
f 84/16/84 82/24/82 83/16/83
f 85/25/85 82/24/82 86/16/86
f 82/24/82 85/25/85 83/16/83
f 96/25/96 95/24/95 102/16/102
f 101/16/101 96/25/96 102/16/102
