# fff02c13_00312_0090a0f9
o fff02c13_00312_0090a0f9
v 0.966620 -0.539958 0.322145
v 0.966613 0.460037 0.322145
v 0.862888 -0.539964 0.322145
v 0.862882 0.460045 0.322145
v 0.966620 -0.539958 0.387592
v 0.966613 0.460037 0.387592
v 0.862888 -0.539964 0.387592
v 0.862882 0.460045 0.387592
v 0.866297 -0.523309 0.322145
v 0.866294 0.443389 0.322145
v -0.863794 -0.522216 0.322145
v -0.863798 0.444497 0.322145
v 0.866297 -0.523309 0.375175
v 0.866294 0.443389 0.375175
v -0.863794 -0.522216 0.375175
v -0.863798 0.444497 0.375175
v 0.843392 -0.464064 0.375175
v 0.843391 0.384146 0.375175
v -0.840907 -0.462958 0.375175
v -0.840892 0.385253 0.375175
v 0.775565 0.567744 0.026727
v 0.775560 0.850344 0.026727
v -0.651373 0.568831 0.026727
v -0.651362 0.851416 0.026727
v 0.853037 0.493149 0.026727
v 0.853029 0.924937 0.026727
v -0.728613 0.494255 0.026727
v -0.728621 0.926043 0.026727
v 0.853037 0.493149 -0.384954
v 0.853029 0.924937 -0.384954
v 0.853032 0.572558 -0.053563
v 0.853019 0.845529 -0.053563
v 0.853032 0.572558 -0.338784
v 0.853019 0.845529 -0.338784
v 0.741897 0.924940 -0.027223
v 0.741897 0.924940 -0.384954
v 0.741884 0.572560 -0.009389
v 0.741887 0.845531 -0.009389
v 0.741884 0.572560 -0.338784
v 0.741887 0.845531 -0.338784
v 0.749824 0.493146 -0.027223
v 0.749824 0.493146 -0.384954
v 0.796019 0.905557 -0.009515
v -0.671813 0.906634 -0.009515
v 0.796019 0.905557 -0.070548
v -0.671813 0.906634 -0.070548
v 0.918124 0.026658 0.146910
v -0.927601 0.027752 0.146910
v 0.918124 0.026658 0.326104
v -0.927601 0.027752 0.326104
v 0.918146 -0.112033 0.146910
v -0.927610 -0.110939 0.146910
v 0.918146 -0.112033 0.326104
v -0.927610 -0.110939 0.326104
v -0.728613 0.494270 -0.384954
v -0.728621 0.926059 -0.384954
v -0.728618 0.573679 -0.053563
v -0.728616 0.846650 -0.053563
v -0.728618 0.573679 -0.338784
v -0.728616 0.846650 -0.338784
v -0.619243 0.926059 -0.027223
v -0.619243 0.926059 -0.384954
v -0.619241 0.573679 -0.009389
v -0.619254 0.846650 -0.009389
v -0.619241 0.573679 -0.338784
v -0.619254 0.846650 -0.338784
v -0.619236 0.494271 -0.027223
v -0.619236 0.494271 -0.384954
v 0.795407 0.599759 -0.009515
v -0.672410 0.600851 -0.009515
v 0.795407 0.599759 -0.070548
v -0.672410 0.600851 -0.070548
v 0.963607 0.046904 -0.387592
v 0.874524 0.046908 -0.387592
v 0.963607 0.046904 0.336199
v 0.874524 0.046908 0.336199
v 0.963622 -0.132254 -0.387592
v 0.874523 -0.132235 -0.387592
v 0.963622 -0.132254 0.336199
v 0.874523 -0.132235 0.336199
v 0.904083 0.083751 -0.387592
v 0.935032 0.065885 -0.387592
v 0.935041 0.101638 -0.387592
v 0.904083 0.083751 0.322144
v 0.935032 0.065885 0.322144
v 0.935041 0.101638 0.322144
v 0.904104 -0.168375 -0.387592
v 0.935052 -0.186257 -0.387592
v 0.935047 -0.150505 -0.387592
v 0.904104 -0.168375 0.322144
v 0.935052 -0.186257 0.322144
v 0.935047 -0.150505 0.322144
v 0.992109 -0.337505 -0.387592
v 0.992106 0.257572 -0.387592
v 0.837396 -0.337501 -0.387592
v 0.837408 0.257576 -0.387592
v 0.992109 -0.337505 -0.326323
v 0.992106 0.257572 -0.326323
v 0.837396 -0.337501 -0.326323
v 0.837408 0.257576 -0.326323
v 0.918538 0.229592 -0.327162
v 0.877715 0.188779 -0.327162
v 0.918528 0.147971 -0.327162
v 0.959351 0.188784 -0.327162
v 0.918548 0.188774 -0.304416
v 0.918516 -0.228488 -0.327162
v 0.877708 -0.269302 -0.327162
v 0.918521 -0.310124 -0.327162
v 0.959345 -0.269296 -0.327162
v 0.918511 -0.269306 -0.304416
v 0.796669 0.674752 -0.339624
v 0.756285 0.634369 -0.339624
v 0.796668 0.593970 -0.339624
v 0.837052 0.634368 -0.339624
v 0.796661 0.634361 -0.316878
v 0.796659 0.818248 -0.339624
v 0.756260 0.777850 -0.339624
v 0.796643 0.737466 -0.339624
v 0.837042 0.777849 -0.339624
v 0.796651 0.777857 -0.316878
v -0.697265 0.755696 -0.339624
v -0.729178 0.723779 -0.339624
v -0.697277 0.691866 -0.339624
v -0.665349 0.723783 -0.339624
v -0.697255 0.723774 -0.316878
v -0.696677 0.824487 -0.339624
v -0.728590 0.792572 -0.339624
v -0.696674 0.760659 -0.339624
v -0.664761 0.792575 -0.339624
v -0.696668 0.792581 -0.316878
v -0.856994 -0.538878 0.322145
v -0.856986 0.461117 0.322145
v -0.960726 -0.538884 0.322145
v -0.960718 0.461125 0.322145
v -0.856994 -0.538878 0.387592
v -0.856986 0.461117 0.387592
v -0.960726 -0.538884 0.387592
v -0.960718 0.461125 0.387592
v 0.773951 -0.851460 0.026727
v 0.773946 -0.568876 0.026727
v -0.652972 -0.850373 0.026727
v -0.652976 -0.567789 0.026727
v 0.851407 -0.926056 0.026727
v 0.851415 -0.494268 0.026727
v -0.730242 -0.924950 0.026727
v -0.730235 -0.493177 0.026727
v 0.851407 -0.926056 -0.384954
v 0.851415 -0.494268 -0.384954
v 0.851403 -0.846648 -0.053563
v 0.851420 -0.573676 -0.053563
v 0.851403 -0.846648 -0.338784
v 0.851420 -0.573676 -0.338784
v 0.740267 -0.494265 -0.027223
v 0.740267 -0.494265 -0.384954
v 0.740270 -0.846645 -0.009389
v 0.740272 -0.573673 -0.009389
v 0.740270 -0.846645 -0.338784
v 0.740272 -0.573673 -0.338784
v 0.748195 -0.926059 -0.027223
v 0.748195 -0.926059 -0.384954
v 0.794390 -0.513648 -0.009515
v -0.673427 -0.512572 -0.009515
v 0.794390 -0.513648 -0.070548
v -0.673427 -0.512571 -0.070548
v -0.730242 -0.924935 -0.384954
v -0.730235 -0.493146 -0.384954
v -0.730232 -0.845526 -0.053563
v -0.730230 -0.572555 -0.053563
v -0.730232 -0.845526 -0.338784
v -0.730230 -0.572555 -0.338784
v -0.620858 -0.493146 -0.027223
v -0.620858 -0.493146 -0.384954
v -0.620870 -0.845526 -0.009389
v -0.620853 -0.572554 -0.009389
v -0.620870 -0.845526 -0.338784
v -0.620853 -0.572554 -0.338784
v -0.620865 -0.924934 -0.027223
v -0.620865 -0.924934 -0.384954
v 0.794406 -0.905106 -0.009515
v -0.673411 -0.904015 -0.009515
v 0.794406 -0.905106 -0.070548
v -0.673411 -0.904015 -0.070548
v 0.795055 -0.744453 -0.339624
v 0.754656 -0.784851 -0.339624
v 0.795054 -0.825235 -0.339624
v 0.835438 -0.784852 -0.339624
v 0.795062 -0.784844 -0.316878
v 0.795030 -0.600956 -0.339624
v 0.754646 -0.641355 -0.339624
v 0.795044 -0.681738 -0.339624
v 0.835428 -0.641355 -0.339624
v 0.795037 -0.641347 -0.316878
v -0.698281 -0.749171 -0.339624
v -0.730209 -0.781086 -0.339624
v -0.698278 -0.812999 -0.339624
v -0.666364 -0.781099 -0.339624
v -0.698287 -0.781093 -0.316878
v -0.698291 -0.594717 -0.339624
v -0.730204 -0.626633 -0.339624
v -0.698288 -0.658546 -0.339624
v -0.666375 -0.626630 -0.339624
v -0.698297 -0.626624 -0.316878
v -0.865910 0.047607 -0.387592
v -0.954993 0.047626 -0.387592
v -0.865910 0.047607 0.336199
v -0.954993 0.047626 0.336199
v -0.865880 -0.131535 -0.387592
v -0.954979 -0.131532 -0.387592
v -0.865880 -0.131535 0.336199
v -0.954979 -0.131532 0.336199
v -0.925434 0.084470 -0.387592
v -0.894470 0.066589 -0.387592
v -0.894460 0.102340 -0.387592
v -0.925434 0.084470 0.322144
v -0.894470 0.066589 0.322144
v -0.894460 0.102340 0.322144
v -0.925414 -0.167657 -0.387592
v -0.894465 -0.185539 -0.387592
v -0.894456 -0.149786 -0.387592
v -0.925414 -0.167657 0.322144
v -0.894465 -0.185539 0.322144
v -0.894456 -0.149786 0.322144
v -0.837408 -0.336786 -0.387592
v -0.837412 0.258291 -0.387592
v -0.992106 -0.336798 -0.387592
v -0.992109 0.258294 -0.387592
v -0.837408 -0.336786 -0.326323
v -0.837412 0.258291 -0.326323
v -0.992106 -0.336798 -0.326323
v -0.992109 0.258294 -0.326323
v -0.910979 0.230311 -0.327162
v -0.951787 0.189498 -0.327162
v -0.910974 0.148674 -0.327162
v -0.870166 0.189488 -0.327162
v -0.910969 0.189493 -0.304416
v -0.910986 -0.227769 -0.327162
v -0.951810 -0.268598 -0.327162
v -0.910996 -0.309406 -0.327162
v -0.870173 -0.268593 -0.327162
v -0.910991 -0.268587 -0.304416
vt -0.054262 -0.649590
vt -0.054261 0.350409
vt -0.198618 -0.649590
vt -0.198617 0.350410
vt 0.343296 0.116052
vt 0.343296 1.116052
vt 0.136714 0.116052
vt 0.136714 1.116052
vt 0.320526 2.850830
vt -0.909961 0.574872
vt -0.909961 -3.474686
vt 1.758500 0.574872
vt 1.758500 -3.474686
vt 0.320527 5.982583
vt 0.154183 5.945388
vt 0.154182 2.813636
vt 0.154182 5.945388
vt 0.320526 5.908193
vt 0.154182 2.888026
vt 0.320526 2.850830
vt -0.434194 -0.698474
vt -0.434194 1.786700
vt -0.298012 1.786700
vt -0.298012 -0.698474
vt -0.434194 1.786700
vt -0.434194 -0.698474
vt -0.298012 -0.698474
vt -0.298012 1.786700
vt -0.909961 1.562385
vt -0.909961 -1.495772
vt 1.758500 -1.495795
vt 1.758500 1.562364
vt 0.000000 0.000000
vt 0.333333 0.000000
vt 0.666667 0.000000
vt 1.000000 0.000000
vt 0.000000 1.000000
vt 0.333333 1.000000
vt 0.666667 1.000000
vt 1.000000 1.000000
vt 0.984646 0.021000
vt 0.984646 1.021000
vt 0.770587 1.021000
vt 0.770587 0.021000
vt 0.770587 0.021000
vt 0.770587 1.021000
vt 0.984646 1.020999
vt 0.984646 0.021000
vt 0.450157 0.950157
vt 0.049843 0.549843
vt 0.450157 0.049843
vt 0.950157 0.450157
vt 0.450157 0.450157
vt 0.759466 0.578279
vt 0.759466 -0.209327
vt 0.985794 -0.209327
vt 0.985794 0.578279
vt 0.985777 -0.209327
vt 0.759449 0.578279
vt 0.985777 0.578279
vt 0.759449 -0.209327
vt 0.736398 0.744267
vt 0.508529 0.744267
vt 0.508529 -0.255733
vt 0.736398 -0.255733
vt 0.736378 -0.255733
vt 0.508510 -0.255733
vt 0.736378 0.744267
vt 0.508510 0.744267
vt 0.711411 -0.118487
vt 0.534085 -0.118487
vt 0.534085 0.104379
vt 0.711411 0.104379
vt 0.534085 -0.118486
vt 0.711411 -0.118486
vt 0.711411 0.104379
vt 0.534085 0.104379
vt 0.729985 0.008749
vt 0.511166 0.008749
vt 0.511166 0.082033
vt 0.729985 0.082033
vt 0.511166 0.008749
vt 0.729985 0.008749
vt 0.729985 0.082033
vt 0.511166 0.082033
vt 0.671919 -0.863429
vt 0.671919 1.341262
vt 0.523428 1.251386
vt 0.523428 -0.775986
vt 0.523428 -0.626737
vt 0.523428 1.411441
vt 0.671919 1.490510
vt 0.671919 -0.714178
vt 0.764194 -0.109331
vt 0.764194 -0.606457
vt 0.980324 -0.665047
vt 0.980324 0.025309
vt 0.980371 -0.111305
vt 0.764245 -0.667022
vt 0.980371 -0.608432
vt 0.764245 0.023334
vt 0.764194 -0.109331
vt 0.980324 -0.665047
vt 0.764194 -0.606457
vt 0.980274 0.025309
vt 0.980371 -0.111305
vt 0.980371 -0.608432
vt 0.764245 -0.667022
vt 0.764194 0.023334
vt 0.764529 0.391034
vt 0.954228 0.391034
vt 0.764529 -0.368136
vt 0.954228 -0.446007
vt 0.764529 0.391034
vt 0.954228 0.391034
vt 0.764529 -0.446007
vt 0.954228 -0.368136
vt 0.764194 0.023334
vt 0.764194 -0.606457
vt 0.980338 0.023334
vt 0.980338 -0.547868
vt 0.980339 -0.665047
vt 0.980339 -0.035256
vt 0.764225 -0.606457
vt 0.764225 -0.035256
vt 0.941099 1.474505
vt 0.941099 2.070137
vt 0.778282 1.960601
vt 0.778282 1.584044
vt 0.941099 1.097968
vt 0.778282 1.584044
vt 0.941099 1.693606
vt 0.778282 1.207480
vt 0.793301 1.538982
vt 0.949517 1.052889
vt 0.949517 1.429445
vt 0.793301 0.943350
vt -0.224900 -0.227592
vt -0.224900 0.953348
vt -0.131098 -0.050142
vt -0.131098 0.646038
vt 0.784962 0.098564
vt 0.784962 0.694203
vt 0.944339 0.208102
vt 0.944339 0.584666
vt 0.784962 1.043200
vt 0.944339 0.557091
vt 0.944339 0.933656
vt 0.784962 0.447562
vt -0.050685 -0.649590
vt -0.050685 0.350410
vt -0.198616 0.350410
vt -0.198618 -0.649590
vt -0.434194 -0.698474
vt -0.298012 1.786700
vt -0.434194 1.786700
vt -0.298012 -0.698474
vt -0.301021 -1.625510
vt -0.301021 -0.426910
vt -0.399856 -0.426910
vt -0.399856 -1.625510
vt -0.281314 -1.714087
vt -0.281314 -0.368663
vt -0.485246 -0.368662
vt -0.485246 -1.714087
vt -0.301021 -1.625508
vt -0.399856 -0.426907
vt -0.301021 -0.426907
vt -0.399856 -1.625508
vt -0.485246 -1.714084
vt -0.485246 -0.368659
vt -0.281314 -1.714084
vt -0.281314 -0.368660
vt 0.514946 -0.192030
vt 0.514946 -0.996129
vt 0.730622 -0.996129
vt 0.730622 -0.262573
vt 0.730625 -0.927886
vt 0.730625 -0.262573
vt 0.514950 -0.348853
vt 0.514950 -0.927886
vt 0.730621 -0.192030
vt 0.520768 -0.996129
vt 0.730621 -0.996129
vt 0.520768 -0.262573
vt 0.520768 -0.927886
vt 0.730621 -0.348853
vt 0.520768 -0.262573
vt 0.730621 -0.927886
vt 0.514950 -0.996129
vt 0.514950 -0.192030
vt 0.704693 -0.262573
vt 0.704693 -0.996129
vt 0.730621 -0.996129
vt 0.520768 -0.262573
vt 0.730621 -0.192030
vt 0.520768 -0.996129
vt 0.520768 -0.262573
vt 0.730621 -0.348853
vt 0.520768 -0.927886
vt 0.730621 -0.927886
vt 0.730622 -0.927886
vt 0.514946 -0.348853
vt 0.730622 -0.262573
vt 0.514946 -0.927886
vt 0.361013 0.173968
vt 0.361411 1.375196
vt 0.209175 1.434900
vt 0.208742 0.114099
vt 0.159401 -0.271165
vt 0.312113 0.989768
vt 0.159799 0.930063
vt 0.311680 -0.331034
vt 0.344398 0.997749
vt 0.221208 0.646715
vt 0.344396 0.720028
vt 0.221210 1.071058
vt 0.221210 1.071058
vt 0.221208 0.793336
vt 0.344058 0.720007
vt 0.344058 1.144350
vt 0.130758 2.233551
vt 0.130758 1.648725
vt 0.376784 1.648725
vt 0.376784 2.233551
vt 0.332000 0.724745
vt 0.332002 0.993015
vt 0.221208 0.724752
vt 0.221210 0.993023
vt 0.344058 0.798026
vt 0.236256 1.066289
vt 0.236256 0.798018
vt 0.344058 1.066297
vt 0.343296 0.116052
vt 0.343296 1.116052
vt 0.136714 1.116052
vt 0.136714 0.116052
vt -0.050685 -0.649590
vt -0.050685 0.350410
vt -0.198616 0.350410
vt -0.198618 -0.649590
vt 0.711411 -0.118487
vt 0.534085 -0.118487
vt 0.534085 0.104379
vt 0.711411 0.104379
vt -0.198618 -0.649590
vt -0.198617 0.350410
vt -0.054261 0.350409
vt -0.054262 -0.649590
vt 0.534085 -0.118486
vt 0.711411 -0.118486
vt 0.711411 0.104379
vt 0.534085 0.104379
vt -0.800495 -1.201025
vt -0.800494 0.670402
vt -0.849788 0.801127
vt -0.849788 -1.331750
vt -0.800495 -1.277218
vt -0.800494 0.855659
vt -0.849788 0.724934
vt -0.849788 -1.146493
vn 0.707132 -0.707082 0.000000
vn 0.707132 0.707081 0.000000
vn -0.707082 -0.707132 0.000000
vn -0.707081 0.707132 0.000000
vn 0.577369 -0.577328 0.577354
vn 0.577369 0.577327 0.577355
vn -0.577331 -0.577372 0.577347
vn -0.577332 0.577373 0.577345
vn -0.000631 -1.000000 0.000000
vn 0.000641 1.000000 0.000000
vn -0.000631 -1.000000 0.000000
vn 0.000641 1.000000 0.000000
vn -0.000447 -0.707250 0.706963
vn 0.000453 0.706962 0.707252
vn -0.000446 -0.706963 0.707250
vn 0.000453 0.707252 0.706962
vn 0.000000 0.000000 1.000000
vn 0.000000 0.000000 1.000000
vn 0.000000 0.000000 1.000000
vn 0.000000 0.000000 1.000000
vn 0.000000 0.000000 1.000000
vn 0.000000 0.000000 1.000000
vn 0.000000 0.000000 1.000000
vn 0.000000 0.000000 1.000000
vn 0.577281 -0.577390 0.577380
vn 0.577445 0.577293 0.577312
vn -0.577386 -0.577358 0.577307
vn -0.577300 0.577359 0.577392
vn 0.707136 -0.707077 0.000019
vn 0.707144 0.707070 0.000060
vn 0.924064 0.382237 -0.000026
vn 0.924060 -0.382249 -0.000081
vn 0.904522 0.301555 0.301504
vn 0.904485 -0.301539 0.301632
vn -0.355040 0.934851 -0.000716
vn -0.709213 0.704954 -0.007561
vn -0.785771 0.618518 0.000000
vn -0.749510 -0.661992 0.000000
vn -0.934784 0.273540 0.226616
vn -0.907208 -0.311256 0.283008
vn -0.342677 -0.939453 0.000830
vn -0.682185 -0.730506 -0.031391
vn 0.000733 1.000000 0.000000
vn 0.000733 1.000000 0.000000
vn 0.000733 1.000000 0.000000
vn 0.000733 1.000000 0.000000
vn 0.000593 1.000000 0.000000
vn 0.000593 1.000000 0.000000
vn 0.000593 1.000000 0.000000
vn 0.000593 1.000000 0.000000
vn -0.000592 -1.000000 0.000000
vn -0.000592 -1.000000 0.000000
vn -0.000592 -1.000000 0.000000
vn -0.000592 -1.000000 0.000000
vn -0.707091 -0.707123 -0.000022
vn -0.707116 0.707097 0.000044
vn -0.923706 0.383101 0.000016
vn -0.923681 -0.383163 -0.000030
vn -0.904557 0.301497 0.301456
vn -0.904515 -0.301539 0.301540
vn 0.355738 0.934585 0.001042
vn 0.707126 0.707088 0.000083
vn 0.750946 0.660364 0.000000
vn 0.750937 -0.660374 0.000000
vn 0.904519 0.301556 0.301511
vn 0.904487 -0.301538 0.301626
vn 0.355110 -0.934824 -0.000898
vn 0.707128 -0.707086 0.000019
vn -0.000744 -1.000000 -0.000000
vn -0.000744 -1.000000 -0.000000
vn -0.000744 -1.000000 -0.000000
vn -0.000744 -1.000000 0.000000
vn 0.707091 0.707122 0.000000
vn -0.707092 0.707121 0.000000
vn 0.707091 0.707122 0.000000
vn -0.707092 0.707121 0.000000
vn 0.707062 -0.707152 0.000000
vn -0.707182 -0.707032 0.000000
vn 0.707062 -0.707152 0.000000
vn -0.707182 -0.707032 0.000000
vn -1.000000 -0.000168 0.000000
vn 0.499896 -0.866086 0.000000
vn 0.499987 0.866033 0.000000
vn -1.000000 -0.000169 0.000000
vn 0.499895 -0.866086 0.000000
vn 0.499986 0.866033 0.000000
vn -1.000000 0.000106 0.000000
vn 0.499921 -0.866071 0.000000
vn 0.499880 0.866095 0.000000
vn -1.000000 0.000106 0.000000
vn 0.499922 -0.866070 0.000000
vn 0.499881 0.866094 0.000000
vn 0.707100 -0.707114 0.000000
vn 0.707113 0.707100 0.000000
vn -0.707123 -0.707091 0.000000
vn -0.707091 0.707123 0.000000
vn 0.577346 -0.577357 0.577349
vn 0.577355 0.577344 0.577352
vn -0.577363 -0.577337 0.577350
vn -0.577337 0.577363 0.577350
vn -0.000019 0.486776 0.873527
vn -0.486639 0.000027 0.873603
vn -0.000071 -0.486915 0.873450
vn 0.486915 0.000019 0.873450
vn 0.000221 -0.000111 1.000000
vn -0.000043 0.486776 0.873527
vn -0.486912 0.000023 0.873451
vn 0.000022 -0.486780 0.873525
vn 0.486637 0.000089 0.873604
vn -0.000180 -0.000044 1.000000
vn 0.000030 0.490698 0.871330
vn -0.490839 0.000064 0.871251
vn 0.000018 -0.490698 0.871330
vn 0.490700 0.000052 0.871329
vn -0.000112 -0.000042 1.000000
vn 0.000063 0.490698 0.871330
vn -0.490700 -0.000014 0.871329
vn -0.000063 -0.490698 0.871330
vn 0.490698 -0.000094 0.871330
vn -0.000002 0.000039 1.000000
vn -0.000063 0.580312 0.814394
vn -0.580308 0.000052 0.814397
vn -0.000176 -0.580485 0.814271
vn 0.580494 0.000010 0.814265
vn 0.000205 -0.000140 1.000000
vn -0.000060 0.580497 0.814263
vn -0.580310 -0.000060 0.814396
vn -0.000005 -0.580313 0.814394
vn 0.580492 -0.000006 0.814266
vn 0.000148 0.000149 1.000000
vn 0.707127 -0.707087 0.000000
vn 0.707137 0.707076 0.000000
vn -0.707087 -0.707126 0.000000
vn -0.707076 0.707137 0.000000
vn 0.577364 -0.577332 0.577354
vn 0.577373 0.577323 0.577354
vn -0.577336 -0.577368 0.577346
vn -0.577327 0.577377 0.577346
vn 0.000000 0.000000 1.000000
vn 0.000000 0.000000 1.000000
vn 0.000000 0.000000 1.000000
vn 0.000000 0.000000 1.000000
vn 0.577274 -0.577398 0.577379
vn 0.577419 0.577298 0.577334
vn -0.577427 -0.577333 0.577291
vn -0.577320 0.577325 0.577406
vn 0.707123 -0.707090 0.000027
vn 0.707103 0.707110 -0.000033
vn 0.924070 0.382223 -0.000024
vn 0.924076 -0.382209 0.000057
vn 0.904509 0.301491 0.301607
vn 0.904555 -0.301506 0.301453
vn -0.355067 0.934841 -0.000704
vn -0.709258 0.704909 -0.007483
vn -0.785715 0.618589 0.000000
vn -0.749427 -0.662087 0.000000
vn -0.934734 0.273593 0.226760
vn -0.907145 -0.311310 0.283151
vn -0.342704 -0.939443 0.000830
vn -0.682234 -0.730463 -0.031317
vn 0.000733 1.000000 0.000000
vn 0.000734 1.000000 0.000008
vn 0.000733 1.000000 0.000000
vn 0.000734 1.000000 0.000008
vn -0.707137 -0.707076 0.000041
vn -0.707104 0.707109 0.000085
vn -0.923666 0.383198 -0.000048
vn -0.923684 -0.383156 -0.000030
vn -0.904490 0.301552 0.301601
vn -0.904509 -0.301521 0.301576
vn 0.355666 0.934612 0.001193
vn 0.707076 0.707138 0.000011
vn 0.750960 0.660348 0.000000
vn 0.750996 -0.660307 0.000000
vn 0.904503 0.301495 0.301621
vn 0.904558 -0.301503 0.301446
vn 0.355110 -0.934824 -0.000899
vn 0.707117 -0.707097 0.000030
vn -0.000744 -1.000000 -0.000008
vn -0.000743 -1.000000 -0.000000
vn -0.000744 -1.000000 -0.000008
vn -0.000743 -1.000000 0.000000
vn 0.000016 0.490698 0.871330
vn -0.490557 -0.000053 0.871409
vn 0.000006 -0.490698 0.871330
vn 0.490839 -0.000063 0.871251
vn 0.000184 0.000042 1.000000
vn -0.000055 0.490698 0.871330
vn -0.490698 -0.000092 0.871330
vn 0.000055 -0.490698 0.871330
vn 0.490698 -0.000028 0.871330
vn 0.000000 0.000043 1.000000
vn 0.000110 0.580307 0.814398
vn -0.580307 0.000009 0.814398
vn 0.000059 -0.580502 0.814259
vn 0.580307 -0.000110 0.814398
vn -0.000054 -0.000104 1.000000
vn 0.000008 0.580497 0.814263
vn -0.580491 -0.000058 0.814267
vn 0.000060 -0.580307 0.814398
vn 0.580310 -0.000006 0.814396
vn -0.000148 0.000152 1.000000
vn 0.707124 0.707090 0.000000
vn -0.707060 0.707153 0.000000
vn 0.707124 0.707090 0.000000
vn -0.707060 0.707153 0.000000
vn 0.707152 -0.707061 0.000000
vn -0.707091 -0.707123 0.000000
vn 0.707152 -0.707061 0.000000
vn -0.707091 -0.707123 0.000000
vn -1.000000 0.000192 0.000000
vn 0.499836 -0.866120 0.000000
vn 0.500245 0.865884 0.000000
vn -1.000000 0.000190 0.000000
vn 0.499837 -0.866120 0.000000
vn 0.500244 0.865884 0.000000
vn -1.000000 0.000195 0.000000
vn 0.499741 -0.866175 0.000000
vn 0.500148 0.865940 0.000000
vn -1.000000 0.000196 0.000000
vn 0.499743 -0.866174 0.000000
vn 0.500148 0.865940 0.000000
vn 0.707136 -0.707078 0.000000
vn 0.707114 0.707100 0.000000
vn -0.707078 -0.707136 0.000000
vn -0.707100 0.707114 0.000000
vn 0.577372 -0.577325 0.577354
vn 0.577355 0.577344 0.577352
vn -0.577328 -0.577376 0.577346
vn -0.577346 0.577357 0.577349
vn -0.000022 0.486776 0.873527
vn -0.486776 0.000025 0.873527
vn -0.000027 -0.486771 0.873529
vn 0.486915 -0.000026 0.873450
vn 0.000112 0.000003 1.000000
vn 0.000026 0.486776 0.873527
vn -0.486776 -0.000055 0.873527
vn -0.000025 -0.486771 0.873529
vn 0.486771 -0.000060 0.873529
vn -0.000003 0.000045 1.000000
g fff02c13_00312_0090a0f9_e0
f 20/20/20 18/18/18 14/15/14
f 14/15/14 16/16/16 20/20/20
f 5/5/5 6/6/6 8/8/8
f 8/8/8 7/7/7 5/5/5
f 17/17/17 19/19/19 15/9/15
f 15/9/15 13/14/13 17/17/17
f 18/254/18 17/255/17 13/256/13
f 13/256/13 14/257/14 18/254/18
f 138/252/138 136/253/136 132/250/132
f 132/250/132 134/251/134 138/252/138
f 16/258/16 15/259/15 19/260/19
f 19/260/19 20/261/20 16/258/16
f 21/214/21 26/215/26 22/216/22
f 26/215/26 21/214/21 25/217/25
f 21/206/21 23/207/23 27/208/27
f 27/208/27 25/209/25 21/206/21
f 22/210/22 28/211/28 24/212/24
f 28/211/28 22/210/22 26/213/26
f 23/218/23 24/219/24 28/220/28
f 28/220/28 27/221/27 23/218/23
f 97/222/97 98/223/98 100/224/100
f 100/224/100 99/225/99 97/222/97
f 162/158/162 161/159/161 163/160/163
f 163/160/163 164/161/164 162/158/162
f 40/226/40 39/227/39 34/228/34
f 33/229/33 34/228/34 39/227/39
f 60/230/60 65/231/65 66/232/66
f 65/231/65 60/230/60 59/233/59
f 134/248/134 133/249/133 137/246/137
f 137/246/137 138/247/138 134/248/134
f 135/244/135 137/245/137 133/242/133
f 133/242/133 131/243/131 135/244/135
f 136/240/136 135/241/135 131/238/131
f 131/238/131 132/239/132 136/240/136
f 138/236/138 137/237/137 135/234/135
f 135/234/135 136/235/136 138/236/138
f 146/86/146 144/87/144 153/88/153
f 153/88/153 171/89/171 146/86/146
f 100/84/100 98/85/98 94/82/94
f 94/82/94 96/83/96 100/84/100
f 144/174/144 148/175/148 154/176/154
f 154/176/154 153/177/153 144/174/144
f 1/150/1 2/151/2 6/152/6
f 6/152/6 5/153/5 1/150/1
f 157/178/157 155/179/155 149/180/149
f 149/180/149 151/181/151 157/178/157
f 3/70/3 1/71/1 5/72/5
f 5/72/5 7/73/7 3/70/3
f 7/3/7 8/4/8 4/2/4
f 4/2/4 3/1/3 7/3/7
f 11/154/11 9/22/9 13/155/13
f 13/23/13 15/24/15 11/21/11
f 79/69/79 80/68/80 77/67/77
f 78/66/78 77/67/77 80/68/80
f 32/94/32 34/95/34 30/96/30
f 30/96/30 26/97/26 32/94/32
f 26/126/26 25/127/25 31/128/31
f 31/128/31 32/129/32 26/126/26
f 31/98/31 29/99/29 33/100/33
f 29/99/29 31/98/31 25/101/25
f 66/147/66 68/146/68 62/149/62
f 68/146/68 66/147/66 65/148/65
f 59/145/59 60/144/60 55/143/55
f 56/142/56 55/143/55 60/144/60
f 58/102/58 56/103/56 60/104/60
f 56/103/56 58/102/58 28/105/28
f 28/130/28 57/131/57 27/132/27
f 57/131/57 28/130/28 58/133/58
f 57/106/57 59/107/59 55/108/55
f 55/108/55 27/109/27 57/106/57
f 38/110/38 35/111/35 40/112/40
f 36/113/36 40/112/40 35/111/35
f 41/114/41 37/115/37 42/116/42
f 39/117/39 42/116/42 37/115/37
f 67/118/67 68/119/68 63/120/63
f 65/121/65 63/120/63 68/119/68
f 62/122/62 61/123/61 66/124/66
f 64/125/64 66/124/66 61/123/61
f 73/54/73 75/55/75 79/56/79
f 79/56/79 77/57/77 73/54/73
f 80/58/80 74/59/74 78/60/78
f 74/59/74 80/58/80 76/61/76
f 93/41/93 94/42/94 98/43/98
f 98/43/98 97/44/97 93/41/93
f 95/78/95 93/79/93 97/80/97
f 97/80/97 99/81/99 95/78/95
f 99/45/99 100/46/100 96/47/96
f 96/47/96 95/48/95 99/45/99
f 146/182/146 172/183/172 166/184/166
f 172/183/172 146/182/146 171/185/171
f 175/186/175 167/187/167 173/188/173
f 167/187/167 175/186/175 169/189/169
f 180/166/180 181/167/181 179/168/179
f 181/167/181 180/166/180 182/169/182
f 39/141/39 40/140/40 42/139/42
f 36/138/36 42/139/42 40/140/40
f 34/135/34 29/134/29 30/137/30
f 29/134/29 34/135/34 33/136/33
f 147/190/147 143/191/143 159/192/159
f 159/192/159 160/193/160 147/190/147
f 177/90/177 159/91/159 143/92/143
f 143/92/143 145/93/145 177/90/177
f 73/64/73 74/65/74 76/62/76
f 76/62/76 75/63/75 73/64/73
f 53/173/53 54/172/54 51/171/51
f 52/170/52 51/171/51 54/172/54
f 32/203/32 40/202/40 34/205/34
f 40/202/40 32/203/32 38/204/38
f 60/201/60 66/200/66 58/199/58
f 64/198/64 58/199/58 66/200/66
f 67/195/67 55/194/55 68/197/68
f 55/194/55 67/195/67 27/196/27
f 25/92/25 27/93/27 67/90/67
f 67/90/67 41/91/41 25/92/25
f 41/192/41 42/193/42 29/190/29
f 29/190/29 25/191/25 41/192/41
f 71/167/71 70/166/70 72/169/72
f 70/166/70 71/167/71 69/168/69
f 57/187/57 65/186/65 59/189/59
f 65/186/65 57/187/57 63/188/63
f 62/183/62 28/182/28 61/185/61
f 28/182/28 62/183/62 56/184/56
f 31/180/31 33/181/33 39/178/39
f 39/178/39 37/179/37 31/180/31
f 36/176/36 35/177/35 26/174/26
f 26/174/26 30/175/30 36/176/36
f 35/88/35 61/89/61 28/86/28
f 28/86/28 26/87/26 35/88/35
f 47/164/47 48/165/48 50/162/50
f 50/162/50 49/163/49 47/164/47
f 2/74/2 4/75/4 8/76/8
f 8/76/8 6/77/6 2/74/2
f 10/156/10 12/26/12 16/157/16
f 16/27/16 14/28/14 10/25/10
f 45/160/45 46/161/46 44/158/44
f 44/158/44 43/159/43 45/160/45
f 139/214/139 144/215/144 140/216/140
f 144/215/144 139/214/139 143/217/143
f 139/206/139 141/207/141 145/208/145
f 145/208/145 143/209/143 139/206/139
f 140/210/140 146/211/146 142/212/142
f 146/211/146 140/210/140 144/213/144
f 141/218/141 142/219/142 146/220/146
f 146/220/146 145/221/145 141/218/141
f 158/226/158 157/227/157 152/228/152
f 151/229/151 152/228/152 157/227/157
f 170/230/170 175/231/175 176/232/176
f 175/231/175 170/230/170 169/233/169
f 150/94/150 152/95/152 148/96/148
f 148/96/148 144/97/144 150/94/150
f 144/126/144 143/127/143 149/128/149
f 149/128/149 150/129/150 144/126/144
f 149/98/149 147/99/147 151/100/151
f 147/99/147 149/98/149 143/101/143
f 176/147/176 178/146/178 172/149/172
f 178/146/178 176/147/176 175/148/175
f 169/145/169 170/144/170 165/143/165
f 166/142/166 165/143/165 170/144/170
f 168/102/168 166/103/166 170/104/170
f 166/103/166 168/102/168 146/105/146
f 146/130/146 167/131/167 145/132/145
f 167/131/167 146/130/146 168/133/168
f 167/106/167 169/107/169 165/108/165
f 165/108/165 145/109/145 167/106/167
f 156/110/156 153/111/153 158/112/158
f 154/113/154 158/112/158 153/111/153
f 159/114/159 155/115/155 160/116/160
f 157/117/157 160/116/160 155/115/155
f 177/118/177 178/119/178 173/120/173
f 175/121/175 173/120/173 178/119/178
f 172/122/172 171/123/171 176/124/176
f 174/125/174 176/124/176 171/123/171
f 157/141/157 158/140/158 160/139/160
f 154/138/154 160/139/160 158/140/158
f 152/135/152 147/134/147 148/137/148
f 147/134/147 152/135/152 151/136/151
f 150/203/150 158/202/158 152/205/152
f 158/202/158 150/203/150 156/204/156
f 170/201/170 176/200/176 168/199/168
f 174/198/174 168/199/168 176/200/176
f 177/195/177 165/194/165 178/197/178
f 165/194/165 177/195/177 145/196/145
f 227/222/227 228/223/228 230/224/230
f 230/224/230 229/225/229 227/222/227
f 230/84/230 228/85/228 224/82/224
f 224/82/224 226/83/226 230/84/230
f 209/69/209 210/68/210 207/67/207
f 208/66/208 207/67/207 210/68/210
f 203/54/203 205/55/205 209/56/209
f 209/56/209 207/57/207 203/54/203
f 210/58/210 204/59/204 208/60/208
f 204/59/204 210/58/210 206/61/206
f 223/41/223 224/42/224 228/43/228
f 228/43/228 227/44/227 223/41/223
f 225/78/225 223/79/223 227/80/227
f 227/80/227 229/81/229 225/78/225
f 229/45/229 230/46/230 226/47/226
f 226/47/226 225/48/225 229/45/229
f 203/64/203 204/65/204 206/62/206
f 206/62/206 205/63/205 203/64/203
g fff02c13_00312_0090a0f9_e1
f 17/10/17 18/11/18 20/13/20
f 20/13/20 19/12/19 17/10/17
g fff02c13_00312_0090a0f9_e4
f 21/29/21 22/30/22 24/31/24
f 24/31/24 23/32/23 21/29/21
f 139/29/139 140/30/140 142/31/142
f 142/31/142 141/32/141 139/29/139
g fff02c13_00312_0090a0f9_e5
f 82/34/82 86/39/86 85/38/85
f 81/33/81 82/34/82 85/38/85
f 81/33/81 85/38/85 84/37/84
f 83/35/83 81/36/81 84/40/84
f 83/35/83 84/40/84 86/39/86
f 82/34/82 83/35/83 86/39/86
f 88/34/88 92/39/92 91/38/91
f 87/33/87 88/34/88 91/38/91
f 87/33/87 91/38/91 90/37/90
f 89/35/89 87/36/87 90/40/90
f 89/35/89 90/40/90 92/39/92
f 88/34/88 89/35/89 92/39/92
f 202/53/202 198/49/198 199/50/199
f 202/53/202 199/50/199 200/51/200
f 202/53/202 200/51/200 201/52/201
f 202/53/202 201/52/201 198/49/198
f 197/53/197 193/49/193 194/50/194
f 197/53/197 194/50/194 195/51/195
f 197/53/197 195/51/195 196/52/196
f 197/53/197 196/52/196 193/49/193
f 192/53/192 188/49/188 189/50/189
f 192/53/192 189/50/189 190/51/190
f 192/53/192 190/51/190 191/52/191
f 192/53/192 191/52/191 188/49/188
f 105/53/105 104/52/104 101/49/101
f 105/53/105 103/51/103 104/52/104
f 105/53/105 102/50/102 103/51/103
f 105/53/105 101/49/101 102/50/102
f 110/53/110 109/52/109 106/49/106
f 110/53/110 108/51/108 109/52/109
f 110/53/110 107/50/107 108/51/108
f 110/53/110 106/49/106 107/50/107
f 187/53/187 183/49/183 184/50/184
f 187/53/187 184/50/184 185/51/185
f 187/53/187 185/51/185 186/52/186
f 187/53/187 186/52/186 183/49/183
f 130/53/130 126/49/126 127/50/127
f 130/53/130 127/50/127 128/51/128
f 130/53/130 128/51/128 129/52/129
f 130/53/130 129/52/129 126/49/126
f 115/53/115 114/52/114 111/49/111
f 115/53/115 113/51/113 114/52/114
f 115/53/115 112/50/112 113/51/113
f 115/53/115 111/49/111 112/50/112
f 120/53/120 119/52/119 116/49/116
f 120/53/120 118/51/118 119/52/119
f 120/53/120 117/50/117 118/51/118
f 120/53/120 116/49/116 117/50/117
f 125/53/125 124/52/124 121/49/121
f 125/53/125 123/51/123 124/52/124
f 125/53/125 122/50/122 123/51/123
f 125/53/125 121/49/121 122/50/122
f 212/34/212 216/39/216 215/38/215
f 211/33/211 212/34/212 215/38/215
f 211/33/211 215/38/215 214/37/214
f 213/35/213 211/36/211 214/40/214
f 213/35/213 214/40/214 216/39/216
f 212/34/212 213/35/213 216/39/216
f 218/34/218 222/39/222 221/38/221
f 217/33/217 218/34/218 221/38/221
f 217/33/217 221/38/221 220/37/220
f 219/35/219 217/36/217 220/40/220
f 219/35/219 220/40/220 222/39/222
f 218/34/218 219/35/219 222/39/222
f 235/53/235 234/52/234 231/49/231
f 235/53/235 233/51/233 234/52/234
f 235/53/235 232/50/232 233/51/233
f 235/53/235 231/49/231 232/50/232
f 240/53/240 239/52/239 236/49/236
f 240/53/240 238/51/238 239/52/239
f 240/53/240 237/50/237 238/51/238
f 240/53/240 236/49/236 237/50/237
