# fff06058_00038_0011767c
o fff06058_00038_0011767c
v 0.039385 -3.721236 -1.243156
v 0.223020 -3.721236 -1.243156
v 0.039385 3.721235 -1.243156
v 0.223020 3.721235 -1.243156
v 0.039385 -3.721236 -1.163025
v 0.223020 -3.721236 -1.163025
v 0.039385 3.721235 -1.163025
v 0.223020 3.721235 -1.163025
v 0.132700 -3.721236 -1.084427
v 0.132700 3.721235 -1.084427
v 0.193492 -1.189376 -1.229848
v 0.131206 -1.189376 -1.398127
v 0.193492 1.169984 -1.229848
v 0.131206 1.169984 -1.398127
v 0.128182 1.116150 -1.097112
v 0.139061 1.077423 -1.097112
v 0.128182 1.116150 1.398127
v 0.139061 1.077423 1.398127
v 0.136009 -1.205871 -1.097112
v 0.131233 -1.245819 -1.097112
v 0.136009 -1.205871 1.398127
v 0.131233 -1.245819 1.398127
v 0.193492 -3.624892 -1.229848
v 0.131206 -3.624892 -1.398127
v 0.193492 -1.265532 -1.229848
v 0.131206 -1.265532 -1.398127
v 0.136039 -3.512756 -1.097112
v 0.131263 -3.552734 -1.097112
v 0.136039 -3.512756 1.398127
v 0.131263 -3.552734 1.398127
v 0.060329 -3.592716 -1.229848
v 0.060329 -3.592716 -1.398127
v 0.202082 -3.592716 -1.229848
v 0.202082 -3.592716 -1.398127
v 0.060329 3.638528 -1.229848
v 0.060329 3.638528 -1.398127
v 0.202082 3.638528 -1.229848
v 0.202082 3.638528 -1.398127
v 0.193493 1.284598 -1.229848
v 0.131206 1.284598 -1.398127
v 0.193493 3.643957 -1.229848
v 0.131206 3.643957 -1.398127
v 0.136010 3.589020 -1.097112
v 0.131234 3.549072 -1.097112
v 0.136010 3.589020 1.398127
v 0.131234 3.549072 1.398127
v -5.125440 -3.721235 -1.243156
v -4.941805 -3.721235 -1.243156
v -5.125440 3.721236 -1.243156
v -4.941805 3.721236 -1.243156
v -5.125440 -3.721235 -1.163025
v -4.941805 -3.721235 -1.163025
v -5.125440 3.721236 -1.163025
v -4.941805 3.721236 -1.163025
v -5.032125 -3.721235 -1.084427
v -5.032125 3.721236 -1.084427
v -4.971333 -1.189375 -1.229848
v -5.033619 -1.189375 -1.398127
v -4.971333 1.169985 -1.229848
v -5.033619 1.169985 -1.398127
v -5.036644 1.116150 -1.097112
v -5.025764 1.077424 -1.097112
v -5.036644 1.116150 1.398127
v -5.025764 1.077424 1.398127
v -5.028816 -1.205871 -1.097112
v -5.033592 -1.245818 -1.097112
v -5.028816 -1.205871 1.398127
v -5.033592 -1.245818 1.398127
v -4.971333 -3.624891 -1.229848
v -5.033619 -3.624891 -1.398127
v -4.971333 -1.265532 -1.229848
v -5.033619 -1.265532 -1.398127
v -5.028786 -3.512755 -1.097112
v -5.033562 -3.552733 -1.097112
v -5.028786 -3.512755 1.398127
v -5.033562 -3.552733 1.398127
v -5.104496 -3.592716 -1.229848
v -5.104496 -3.592716 -1.398127
v -4.962743 -3.592716 -1.229848
v -4.962743 -3.592716 -1.398127
v -5.104496 3.638529 -1.229848
v -5.104496 3.638529 -1.398127
v -4.962743 3.638529 -1.229848
v -4.962743 3.638529 -1.398127
v -4.971333 1.284598 -1.229848
v -5.033619 1.284598 -1.398127
v -4.971333 3.643958 -1.229848
v -5.033619 3.643958 -1.398127
v -5.028815 3.589020 -1.097112
v -5.033591 3.549073 -1.097112
v -5.028815 3.589020 1.398127
v -5.033591 3.549073 1.398127
v 4.941805 -3.721236 -1.243156
v 5.125440 -3.721236 -1.243156
v 4.941805 3.721235 -1.243156
v 5.125440 3.721235 -1.243156
v 4.941805 -3.721236 -1.163025
v 5.125440 -3.721236 -1.163025
v 4.941805 3.721235 -1.163025
v 5.125440 3.721235 -1.163025
v 5.035120 -3.721236 -1.084427
v 5.035120 3.721235 -1.084427
v 5.095912 -1.189376 -1.229848
v 5.033626 -1.189376 -1.398127
v 5.095912 1.169983 -1.229848
v 5.033626 1.169983 -1.398127
v 5.030602 1.116149 -1.097112
v 5.041481 1.077422 -1.097112
v 5.030602 1.116149 1.398127
v 5.041481 1.077422 1.398127
v 5.038429 -1.205872 -1.097112
v 5.033653 -1.245819 -1.097112
v 5.038429 -1.205872 1.398127
v 5.033653 -1.245819 1.398127
v 5.095912 -3.624892 -1.229848
v 5.033626 -3.624892 -1.398127
v 5.095912 -1.265533 -1.229848
v 5.033626 -1.265533 -1.398127
v 5.038459 -3.512757 -1.097112
v 5.033683 -3.552735 -1.097112
v 5.038459 -3.512757 1.398127
v 5.033683 -3.552735 1.398127
v 4.962749 -3.592717 -1.229848
v 4.962749 -3.592717 -1.398127
v 5.104502 -3.592717 -1.229848
v 5.104502 -3.592717 -1.398127
v 4.962749 3.638527 -1.229848
v 4.962749 3.638527 -1.398127
v 5.104502 3.638527 -1.229848
v 5.104502 3.638527 -1.398127
v 5.095912 1.284597 -1.229848
v 5.033626 1.284597 -1.398127
v 5.095912 3.643957 -1.229848
v 5.033626 3.643957 -1.398127
v 5.038429 3.589019 -1.097112
v 5.033653 3.549072 -1.097112
v 5.038429 3.589019 1.398127
v 5.033653 3.549072 1.398127
vt 0.652941 0.655883
vt 0.758823 0.655883
vt 0.652941 0.761765
vt 0.758823 0.761765
vt 0.968651 0.059733
vt 0.968651 0.954937
vt -0.031349 0.059733
vt -0.031349 0.954937
vt 0.968651 0.954937
vt -0.031349 0.954937
vt -0.031349 0.059733
vt 0.968651 0.059733
vt 0.123053 0.187606
vt 0.148713 0.187606
vt 0.148713 0.276471
vt 0.123053 0.276471
vt 1.181045 1.153116
vt 1.289544 1.200462
vt 1.289544 1.153116
vt 1.289544 1.153117
vt 1.289544 1.200462
vt 1.181045 1.200462
vt 1.181045 1.200462
vt 1.236179 1.246900
vt 1.181045 1.153117
vt 1.236179 1.246900
vt 1.729375 1.343914
vt 1.729375 1.343914
vt 1.729375 1.129570
vt 1.729375 1.129571
vt 1.376515 1.838759
vt 1.200072 1.637672
vt 1.200072 1.637673
vt 1.376515 1.838760
vn -0.577350 -0.577350 -0.577350
vn 0.577350 -0.577350 -0.577350
vn -0.577350 0.577350 -0.577350
vn 0.577350 0.577350 -0.577350
vn -0.708985 -0.623356 0.329800
vn 0.710688 -0.624637 0.323652
vn -0.708985 0.623356 0.329800
vn 0.710688 0.624637 0.323652
vn 0.006530 -0.585923 0.810340
vn 0.006529 0.585923 0.810340
vn -0.937820 0.000000 0.347122
vn -0.937820 0.000000 0.347122
vn -0.937820 0.000000 0.347122
vn -0.937820 0.000000 0.347122
vn 0.962731 0.270460 0.000000
vn 0.962731 0.270460 0.000000
vn 0.962731 0.270460 0.000000
vn 0.962731 0.270460 0.000000
vn 0.992929 -0.118712 0.000000
vn 0.992929 -0.118712 0.000000
vn 0.992929 -0.118712 0.000000
vn 0.992929 -0.118712 0.000000
vn -0.937820 0.000000 0.347122
vn -0.937820 0.000000 0.347122
vn -0.937820 0.000000 0.347122
vn -0.937820 0.000000 0.347122
vn 0.992940 -0.118622 0.000000
vn 0.992939 -0.118622 0.000000
vn 0.992939 -0.118622 0.000000
vn 0.992940 -0.118622 0.000000
vn 0.000000 1.000000 0.000000
vn 0.000000 1.000000 0.000000
vn 0.000000 1.000000 0.000000
vn 0.000000 1.000000 0.000000
vn 0.000000 1.000000 0.000000
vn 0.000000 1.000000 0.000000
vn 0.000000 1.000000 0.000000
vn 0.000000 1.000000 0.000000
vn -0.937820 0.000000 0.347122
vn -0.937820 0.000000 0.347122
vn -0.937820 0.000000 0.347122
vn -0.937820 0.000000 0.347122
vn 0.992929 -0.118712 0.000000
vn 0.992929 -0.118712 0.000000
vn 0.992929 -0.118712 0.000000
vn 0.992929 -0.118712 0.000000
vn -0.577350 -0.577350 -0.577350
vn 0.577350 -0.577350 -0.577350
vn -0.577350 0.577350 -0.577350
vn 0.577350 0.577350 -0.577350
vn -0.708985 -0.623356 0.329800
vn 0.710688 -0.624637 0.323652
vn -0.708985 0.623356 0.329800
vn 0.710688 0.624637 0.323652
vn 0.006530 -0.585923 0.810340
vn 0.006530 0.585923 0.810340
vn -0.937820 0.000000 0.347122
vn -0.937820 0.000000 0.347122
vn -0.937820 0.000000 0.347122
vn -0.937820 0.000000 0.347122
vn 0.962731 0.270460 0.000000
vn 0.962731 0.270460 0.000000
vn 0.962731 0.270460 0.000000
vn 0.962731 0.270460 0.000000
vn 0.992929 -0.118712 0.000000
vn 0.992929 -0.118712 0.000000
vn 0.992929 -0.118712 0.000000
vn 0.992929 -0.118712 0.000000
vn -0.937820 0.000000 0.347122
vn -0.937820 0.000000 0.347122
vn -0.937820 0.000000 0.347122
vn -0.937820 0.000000 0.347122
vn 0.992940 -0.118622 0.000000
vn 0.992939 -0.118622 0.000000
vn 0.992939 -0.118622 0.000000
vn 0.992940 -0.118622 0.000000
vn 0.000000 1.000000 0.000000
vn 0.000000 1.000000 0.000000
vn 0.000000 1.000000 0.000000
vn 0.000000 1.000000 0.000000
vn 0.000000 1.000000 0.000000
vn 0.000000 1.000000 0.000000
vn 0.000000 1.000000 0.000000
vn 0.000000 1.000000 0.000000
vn -0.937820 0.000000 0.347122
vn -0.937820 0.000000 0.347122
vn -0.937820 0.000000 0.347122
vn -0.937820 0.000000 0.347122
vn 0.992929 -0.118712 0.000000
vn 0.992929 -0.118712 0.000000
vn 0.992929 -0.118712 0.000000
vn 0.992929 -0.118712 0.000000
vn -0.577350 -0.577350 -0.577350
vn 0.577350 -0.577350 -0.577350
vn -0.577350 0.577350 -0.577350
vn 0.577350 0.577350 -0.577350
vn -0.708985 -0.623356 0.329800
vn 0.710688 -0.624637 0.323652
vn -0.708985 0.623356 0.329800
vn 0.710688 0.624637 0.323652
vn 0.006530 -0.585923 0.810340
vn 0.006530 0.585923 0.810340
vn -0.937820 0.000000 0.347122
vn -0.937820 0.000000 0.347122
vn -0.937820 0.000000 0.347122
vn -0.937820 0.000000 0.347122
vn 0.962731 0.270460 0.000000
vn 0.962731 0.270460 0.000000
vn 0.962731 0.270460 0.000000
vn 0.962731 0.270460 0.000000
vn 0.992929 -0.118712 0.000000
vn 0.992929 -0.118712 0.000000
vn 0.992929 -0.118712 0.000000
vn 0.992929 -0.118712 0.000000
vn -0.937820 0.000000 0.347122
vn -0.937820 0.000000 0.347122
vn -0.937820 0.000000 0.347122
vn -0.937820 0.000000 0.347122
vn 0.992940 -0.118622 0.000000
vn 0.992939 -0.118622 0.000000
vn 0.992939 -0.118622 0.000000
vn 0.992940 -0.118622 0.000000
vn 0.000000 1.000000 0.000000
vn 0.000000 1.000000 0.000000
vn 0.000000 1.000000 0.000000
vn 0.000000 1.000000 0.000000
vn 0.000000 1.000000 0.000000
vn 0.000000 1.000000 0.000000
vn 0.000000 1.000000 0.000000
vn 0.000000 1.000000 0.000000
vn -0.937820 0.000000 0.347122
vn -0.937820 0.000000 0.347122
vn -0.937820 0.000000 0.347122
vn -0.937820 0.000000 0.347122
vn 0.992929 -0.118712 0.000000
vn 0.992929 -0.118712 0.000000
vn 0.992929 -0.118712 0.000000
vn 0.992929 -0.118712 0.000000
g fff06058_00038_0011767c_e0
f 3/1/3 1/2/1 5/4/5
f 5/4/5 7/3/7 3/1/3
f 9/26/9 5/22/5 6/21/6
f 2/20/2 5/22/5 1/25/1
f 10/24/10 8/18/8 7/23/7
f 3/17/3 7/23/7 8/18/8
f 2/20/2 6/21/6 5/22/5
f 3/17/3 8/18/8 4/19/4
f 1/6/1 3/8/3 4/7/4
f 4/7/4 2/5/2 1/6/1
f 10/27/10 9/28/9 8/29/8
f 10/31/10 7/32/7 5/33/5
f 9/34/9 10/31/10 5/33/5
f 9/28/9 6/30/6 8/29/8
f 2/1/2 4/2/4 8/4/8
f 8/4/8 6/3/6 2/1/2
f 44/13/44 43/14/43 45/15/45
f 45/15/45 46/16/46 44/13/44
f 21/15/21 22/16/22 20/13/20
f 20/13/20 19/14/19 21/15/21
f 16/13/16 15/14/15 17/15/17
f 17/15/17 18/16/18 16/13/16
f 28/13/28 27/14/27 29/15/29
f 29/15/29 30/16/30 28/13/28
f 49/1/49 47/2/47 51/4/51
f 51/4/51 53/3/53 49/1/49
f 55/26/55 51/22/51 52/21/52
f 48/20/48 51/22/51 47/25/47
f 56/24/56 54/18/54 53/23/53
f 49/17/49 53/23/53 54/18/54
f 48/20/48 52/21/52 51/22/51
f 49/17/49 54/18/54 50/19/50
f 47/6/47 49/8/49 50/7/50
f 50/7/50 48/5/48 47/6/47
f 56/27/56 55/28/55 54/29/54
f 56/31/56 53/32/53 51/33/51
f 55/34/55 56/31/56 51/33/51
f 55/28/55 52/30/52 54/29/54
f 48/1/48 50/2/50 54/4/54
f 54/4/54 52/3/52 48/1/48
f 90/13/90 89/14/89 91/15/91
f 91/15/91 92/16/92 90/13/90
f 67/15/67 68/16/68 66/13/66
f 66/13/66 65/14/65 67/15/67
f 62/13/62 61/14/61 63/15/63
f 63/15/63 64/16/64 62/13/62
f 74/13/74 73/14/73 75/15/75
f 75/15/75 76/16/76 74/13/74
f 95/1/95 93/2/93 97/4/97
f 97/4/97 99/3/99 95/1/95
f 101/26/101 97/22/97 98/21/98
f 94/20/94 97/22/97 93/25/93
f 102/24/102 100/18/100 99/23/99
f 95/17/95 99/23/99 100/18/100
f 94/20/94 98/21/98 97/22/97
f 95/17/95 100/18/100 96/19/96
f 93/6/93 95/8/95 96/7/96
f 96/7/96 94/5/94 93/6/93
f 102/27/102 101/28/101 100/29/100
f 102/31/102 99/32/99 97/33/97
f 101/34/101 102/31/102 97/33/97
f 101/28/101 98/30/98 100/29/100
f 94/1/94 96/2/96 100/4/100
f 100/4/100 98/3/98 94/1/94
f 136/13/136 135/14/135 137/15/137
f 137/15/137 138/16/138 136/13/136
f 113/15/113 114/16/114 112/13/112
f 112/13/112 111/14/111 113/15/113
f 108/13/108 107/14/107 109/15/109
f 109/15/109 110/16/110 108/13/108
f 120/13/120 119/14/119 121/15/121
f 121/15/121 122/16/122 120/13/120
g fff06058_00038_0011767c_e1
f 42/7/42 40/5/40 39/6/39
f 39/6/39 41/8/41 42/7/42
f 26/7/26 24/5/24 23/6/23
f 23/6/23 25/8/25 26/7/26
f 14/7/14 12/5/12 11/6/11
f 11/6/11 13/8/13 14/7/14
f 31/9/31 33/10/33 34/11/34
f 34/11/34 32/12/32 31/9/31
f 38/11/38 36/12/36 35/9/35
f 35/9/35 37/10/37 38/11/38
f 88/7/88 86/5/86 85/6/85
f 85/6/85 87/8/87 88/7/88
f 72/7/72 70/5/70 69/6/69
f 69/6/69 71/8/71 72/7/72
f 60/7/60 58/5/58 57/6/57
f 57/6/57 59/8/59 60/7/60
f 77/9/77 79/10/79 80/11/80
f 80/11/80 78/12/78 77/9/77
f 84/11/84 82/12/82 81/9/81
f 81/9/81 83/10/83 84/11/84
f 134/7/134 132/5/132 131/6/131
f 131/6/131 133/8/133 134/7/134
f 118/7/118 116/5/116 115/6/115
f 115/6/115 117/8/117 118/7/118
f 106/7/106 104/5/104 103/6/103
f 103/6/103 105/8/105 106/7/106
f 123/9/123 125/10/125 126/11/126
f 126/11/126 124/12/124 123/9/123
f 130/11/130 128/12/128 127/9/127
f 127/9/127 129/10/129 130/11/130
