# fff0305e_00124_004725a7
o fff0305e_00124_004725a7
v -6.572403 -16.644142 109.579239
v -6.529312 -16.644142 115.997955
v -6.572403 -16.644142 109.579239
v -6.178787 -16.644142 105.906487
v -5.807495 -16.644142 110.628349
v -5.689255 -16.644142 114.124130
v -5.661667 -18.458359 114.064606
v -5.781143 -18.402901 111.037079
v 5.098175 -18.514061 118.330124
v -6.572403 -18.339668 109.524887
v -6.572403 -18.644142 109.515129
v -0.658789 -16.644142 118.330124
v -6.178787 -18.456352 116.330109
v -0.700929 -16.866077 118.330124
v -0.706120 -16.893414 118.330124
v 3.276809 -13.659464 107.948784
v -5.777527 -18.644142 111.093147
v -6.178787 -18.644142 105.906487
v -5.658844 -18.644142 114.058517
v 7.465057 -13.736183 118.329987
v 6.731293 -16.037384 118.330124
v 5.031281 -18.419481 118.330124
v 3.854385 -16.755322 118.330124
v -6.168427 -17.054792 116.358643
v -5.882690 -18.223515 116.483444
v -0.918079 -18.009712 118.330116
v -2.098648 -16.935579 118.330124
v -0.983466 -18.354073 118.330116
v -1.006540 -18.475590 118.330109
v -2.178787 -18.341074 118.330116
v -1.009450 -18.490915 118.330109
v -2.178787 -18.486485 118.330109
v -6.082703 -18.384626 116.402084
v 8.864807 -18.087597 118.330124
v -1.038543 -18.644142 118.330109
v 11.529709 -16.818972 119.323257
v -0.461655 -37.932945 66.904358
v 17.784912 -38.177841 67.614647
v 14.917801 -28.855984 81.432693
v 17.940475 -25.670151 81.106804
v 15.797195 -23.010822 85.117859
v 26.732712 -33.432201 67.641327
v 13.267105 -24.904549 85.586014
v 11.666016 -7.232996 119.268028
v 9.322617 -18.644142 118.330124
v 3.965378 -20.270012 107.420609
v 18.590622 -43.220638 59.620010
v 7.322617 -13.698265 118.330124
v 14.485458 -24.072075 85.707840
v -6.177383 -16.644142 105.906487
v -6.177383 -18.644142 105.906487
v 23.665482 -52.455231 41.307495
v 40.655624 -46.875725 41.307495
v 30.400864 -37.752785 60.790329
v 5.143585 -18.644142 118.330124
v -2.140728 -17.758537 118.449280
v -2.099319 -17.614655 118.449280
v 2.685059 -17.614655 118.363976
v 2.685059 -17.758537 118.363976
v -14.139404 -17.614662 118.188477
v 6.572617 -15.894142 107.420616
v 4.554947 -7.073769 111.201912
v 3.588128 -17.614655 118.363976
v 3.571548 -17.758537 118.363976
v 4.211441 -13.639862 105.605392
v 19.809875 -21.286308 85.764099
v -2.521042 -32.081039 78.035034
v -3.134918 -27.389702 85.764099
v 14.906479 -16.975960 107.420616
v -6.006561 -21.484734 101.804665
v 5.156998 -7.073769 113.601799
v 3.181543 -6.824062 107.760300
v 4.715224 -7.847773 105.732307
v -22.620544 -17.614662 118.285210
v -14.139404 -17.758545 118.188477
v 9.321213 -5.082352 118.330124
v 7.259247 -3.391975 118.220978
v 7.870087 -3.391968 118.330048
v 14.000839 -4.404671 107.420616
v 18.618729 -3.874527 101.182838
v 19.725754 -3.692474 97.479340
v 30.033371 -2.755280 85.764099
v 69.417679 1.995300 41.307495
v 58.742111 -28.839897 41.307510
v 9.105225 -5.094683 118.330116
v 8.011856 -27.090137 85.764099
v 4.619797 -55.346451 41.307495
v 0.472222 -10.406382 106.042450
v 3.571692 -9.850080 106.042450
v -0.216852 -10.162023 106.042450
v 3.695261 -8.868258 106.042450
v -0.883115 -9.947006 110.345856
v 0.058780 -10.990223 107.441338
v -0.907063 -9.437136 107.442268
v -0.678766 -8.742880 109.791870
v -5.685913 -16.864498 114.116898
v -6.572403 -16.894436 109.571213
v -5.803253 -16.927807 110.694267
v -6.529312 -16.753172 115.997955
v 2.246648 -10.311600 109.533371
v 4.048079 -8.515581 107.440346
v 3.897928 -10.965927 107.437927
v 0.472222 -10.406382 105.049637
v -0.216852 -9.240468 105.049637
v 0.883180 -9.572647 110.455734
v -1.914166 -9.365171 109.842316
v 3.784616 -10.578341 106.953209
v 3.877614 -8.685972 106.764969
v 3.844638 -10.108389 107.064194
v 2.386861 -9.592048 109.414856
v 3.069702 -8.742880 108.954498
v -7.059341 -18.644142 105.097366
v -7.059341 -16.644142 105.097366
v 15.902771 -18.914757 97.679489
v 16.691544 -18.291374 100.811554
v 4.532270 -10.791622 105.686157
v 4.153250 -8.483692 107.820496
v 3.716478 -11.388390 107.868309
v 1.306689 -8.742880 109.348343
v 3.564062 -8.934204 107.827911
v -1.672450 -10.534468 108.366714
v -1.604258 -10.362929 109.849159
v 4.202785 -8.683434 105.719208
v -1.879965 -9.224082 108.365143
v 7.538208 -13.426869 118.321373
v 7.309753 -11.483626 118.309929
v 7.491608 -11.406655 118.330002
v -6.570999 -18.339668 109.524887
v -6.177383 -18.314156 105.906487
v -6.177383 -18.644142 105.906487
v -6.177383 -18.314156 105.906487
v -6.177383 -18.456352 116.330109
v -6.177383 -18.644142 116.330109
v -5.660263 -18.458359 114.064606
v -5.779739 -18.402901 111.037079
v 7.598969 -13.374391 118.325920
v -6.178787 -18.644142 116.330109
v -6.529312 -16.644142 115.997955
v -2.178787 -16.644142 118.330124
v 9.266205 -18.508080 118.330124
v -2.178787 -18.644142 118.330109
v 6.571213 -15.894142 118.330124
v 3.762299 -16.644142 118.330124
v 11.411682 -11.086105 118.635750
v 11.810669 -10.750504 118.859695
v 11.197754 -10.851562 119.179848
v 11.456421 -10.768143 119.294952
v 11.633362 -11.024963 118.733376
v 11.529358 -10.752182 119.326645
v 9.321213 -11.964005 118.330124
v 11.671631 -10.713531 119.330109
v 10.884735 -11.307402 118.558708
v 10.920120 -11.398500 118.985085
v 11.481628 -11.595779 119.215103
v 11.821213 -6.919857 119.330109
v 11.680847 -11.547852 119.302139
v 12.006104 -11.472824 118.969139
v 11.821213 -16.792328 119.330109
v 11.961487 -10.937790 118.352768
v 11.813843 -10.975494 118.762970
v 11.734924 -11.534866 119.325790
v 11.693909 -11.008255 118.760056
v 11.841675 -11.509476 119.328354
vt -0.011526 1.471579
vt 1.608378 1.983715
vt 1.611746 1.986670
vt 1.638868 2.003612
vt 6.861165 1.869384
vt 1.401165 1.965236
vt 1.392336 1.573048
vt 1.442085 1.991003
vt 1.516979 1.991143
vt 1.559731 1.991224
vt 1.344328 1.002627
vt 1.401165 1.831343
vt 1.569686 1.914455
vt 1.608801 1.914455
vt 0.838707 1.741806
vt 1.579232 1.741806
vt 1.620863 1.990012
vt 1.392142 1.820933
vt 1.405270 1.897974
vt 1.734462 1.722951
vt 1.844192 1.572625
vt 1.664622 1.573244
vt 2.249401 1.001347
vt 1.915904 1.002815
vt 1.625810 1.726103
vt 1.636727 1.766323
vt 1.635850 2.002825
vt 1.624475 1.851126
vt 1.635850 2.002825
vt 1.406484 1.936067
vt 1.619758 1.989702
vt 1.497498 1.851057
vt 1.123212 1.739984
vt 1.410302 1.831258
vt 1.399413 1.858631
vt 1.516172 1.991122
vt 1.516298 1.991125
vt 1.516424 1.991127
vt 1.466478 1.990967
vt 1.465042 1.990975
vt 1.464767 1.990974
vt 1.457550 1.991015
vt 1.544161 1.850919
vt 6.786774 1.440765
vt 1.722306 1.770509
vt 1.507736 1.573249
vt 2.796222 1.910315
vt 1.397138 1.877689
vt 1.401279 1.820847
vt 1.517380 1.991148
vt 1.517421 1.991149
vt 1.517378 1.991148
vt 1.454641 1.991010
vt 1.672642 1.850568
vt 1.453869 1.991015
vt 1.453825 1.991026
vt 1.453740 1.991015
vt 1.453748 1.991025
vt 6.213624 1.897314
vt 2.796222 1.910315
vt 6.420416 1.888394
vt 1.405131 1.878334
vt 1.414337 1.936740
vt 1.409316 1.965159
vt 1.404202 1.878259
vt 1.412848 1.892776
vt 1.408762 1.965164
vt 1.398529 1.877801
vt 1.402672 1.831329
vt 1.402023 1.965228
vt 1.407304 1.936137
vt 1.406335 1.897244
vt 1.413216 1.833810
vt 6.584675 1.881310
vt 1.283046 1.862591
vt 6.522552 1.454425
vt 6.445892 1.887295
vt 2.796222 1.910315
vt 2.796222 1.910315
vt 1.283046 1.862591
vt 1.283046 1.862591
vt 1.283046 1.862591
vt 1.283046 1.862591
vt 1.283046 1.862591
vt 6.414425 1.460016
vt 6.371565 1.462232
vt 1.283046 1.862591
vt 2.796222 1.910315
vt 1.377183 1.473981
vt 127.536987 1.585018
vt 11.892128 1.444500
vt 11.892128 1.444500
vt 1.408734 1.777833
vt 1.367336 1.333846
vt 101.830956 1.589062
vt 102.068527 1.594533
vt 127.321144 1.580405
vt 105.782745 1.590746
vt 105.812210 1.595448
vt 36.663536 1.444498
vt 1.554617 1.340014
vt 1.568736 1.513491
vt 1.587533 1.573247
vt 1.621017 1.517538
vt 1.609475 1.573246
vt 1.672305 1.340652
vt 1.564691 1.003048
vt 1.764541 1.002740
vt 1.691593 1.252273
vt 1.570749 1.573247
vt 1.537227 1.236881
vt 1.512000 1.991031
vt 1.544161 1.991053
vt 1.401165 1.965236
vt 1.410302 1.965150
vt 1.442085 1.991003
vt 1.510853 1.991112
vt 1.565284 1.991263
vt 1.571887 1.989435
vt 1.574062 1.990002
vt 1.517478 1.991151
vt 1.559731 1.991224
vt 1.638868 2.003612
vt 1.566139 1.991362
vt 1.590249 1.990936
vt 1.593766 2.004037
vt 1.561866 1.990973
vt 1.451222 1.990917
vt 1.617956 2.002100
vt 1.617959 2.002102
vt 1.405270 1.897974
vt 1.621688 1.990640
vt 1.624475 1.851126
vt 1.406484 1.936067
vt 1.614859 2.002532
vt 1.616384 2.003135
vt 1.615515 2.002848
vt 1.610968 2.000674
vt 1.622523 1.998159
vt 1.614092 2.002092
vt 1.618784 2.002481
vt 1.614889 2.000750
vt 1.616533 2.003541
vt 1.621398 2.003114
vt 1.616384 2.003135
vt 1.617004 2.003417
vt 1.621556 2.003436
vt 1.622912 1.991697
vt 1.617666 2.004074
vt 1.617634 2.003803
vt 1.571057 1.914455
vt 1.101480 1.514748
vt 1.997989 1.954082
vt 1.997989 1.514687
vt 1.406275 1.878427
vt 1.410302 1.831258
vt 1.414100 1.891917
vt 1.415310 1.936823
vt 0.914157 1.954082
vt 1.605745 1.998220
vt 1.609233 1.999180
vt 1.610277 2.016669
vt 1.617796 2.003615
vt 1.617898 2.003856
vt 0.049193 1.514776
vt 0.091148 1.514771
vt 1.283046 1.862591
vt 1.283046 1.862591
vt -0.007708 1.954082
vt 0.190318 1.954082
vt 1.512527 1.514713
vt 2.796222 1.910315
vt 1.283046 1.862591
vt 1.283046 1.862591
vt 1.283046 1.862591
vt 1.283046 1.862591
vt 1.402672 1.831329
vt 1.517123 1.991137
vt 1.621279 1.990335
vt 1.407304 1.936137
vt 1.406335 1.897244
vt 1.398529 1.877801
vt 1.763242 1.954082
vt 1.283046 1.862591
vt 1.283046 1.862591
vt 1.283046 1.862591
vt 1.283046 1.862591
vt 1.402023 1.965228
vt 1.636263 1.768495
vt 1.685713 1.769652
vt 1.442805 1.990996
vt 1.559790 1.991217
vt 1.283046 1.862591
vt -0.011526 1.471579
vt 0.049441 1.486021
vt 1.283046 1.862591
vt 1.283046 1.862591
vt 0.194205 1.514771
vt -0.007708 1.514776
vt 1.283046 1.862591
vt 2.796222 1.910315
vt 2.796222 1.910315
vt 1.563164 1.990977
vt 1.545145 1.991062
vt 1.516871 1.991132
vt 1.512434 1.991038
vt 1.283046 1.862591
vt 1.413414 1.968287
vt 1.408300 1.968200
vt 1.450695 1.990932
vt 1.443470 1.990990
vt 1.404053 1.966297
vt 1.593682 2.003376
vt 1.559572 1.992054
vt 1.591042 2.002725
vn -0.994300 0.003417 -0.106561
vn -0.912480 -0.000028 -0.409120
vn -0.823112 0.000369 0.567879
vn -0.994153 0.000344 -0.107984
vn -0.929065 0.070306 0.363174
vn -0.980256 -0.008381 -0.197557
vn -0.992133 -0.036315 -0.119809
vn -0.964846 0.045587 0.258834
vn -0.000001 -0.000001 1.000000
vn -0.993096 0.018724 0.115797
vn -0.787578 -0.600488 0.138326
vn 0.000000 0.000000 1.000000
vn -0.895384 -0.089894 0.436127
vn 0.000000 0.000000 1.000000
vn 0.000000 -0.000003 1.000000
vn -0.984661 -0.075605 -0.157248
vn -0.870770 -0.449731 0.198754
vn -0.192821 -0.939553 0.282950
vn -0.883281 -0.465346 -0.057160
vn 0.007561 0.004640 0.999961
vn 0.000023 0.000013 1.000000
vn -0.000001 -0.000001 1.000000
vn -0.000000 -0.000001 1.000000
vn -0.559048 0.116796 0.820868
vn -0.421044 0.036858 0.906291
vn -0.000000 -0.000003 1.000000
vn -0.202644 -0.021497 0.979017
vn -0.000001 -0.000031 1.000000
vn -0.000001 -0.000031 1.000000
vn -0.232934 0.006595 0.972470
vn -0.000001 0.000000 1.000000
vn -0.228229 0.000591 0.973607
vn -0.500547 -0.091955 0.860812
vn -0.111825 -0.042295 0.992827
vn -0.000001 -0.652914 0.757432
vn -0.128163 -0.230033 0.964707
vn -0.009688 -0.852488 0.522657
vn -0.015695 -0.849673 0.527076
vn 0.188483 -0.767078 0.613241
vn 0.251880 -0.753100 0.607780
vn 0.427319 -0.811177 0.399237
vn 0.557984 -0.565069 0.607742
vn 0.387665 -0.790331 0.474440
vn -0.389146 0.010375 0.921118
vn 0.149896 -0.755676 0.637562
vn 0.077767 -0.977286 0.197141
vn 0.015709 -0.846864 0.531578
vn -0.507156 0.205774 0.836929
vn 0.590514 -0.764230 0.259316
vn -0.676024 0.000000 0.736880
vn -0.676024 0.000000 0.736880
vn 0.132052 -0.869881 0.475257
vn 0.577593 -0.579216 0.575236
vn 0.588665 -0.521291 0.617842
vn -0.000001 -0.652915 0.757431
vn 0.017674 -0.005086 0.999831
vn 0.017676 -0.005004 0.999831
vn 0.008914 0.000000 0.999960
vn 0.008912 -0.000049 0.999960
vn 0.011405 0.000000 0.999935
vn -0.571020 -0.786783 -0.234325
vn -0.945861 -0.231185 0.227819
vn 0.000000 0.000000 1.000000
vn 0.000000 0.000000 1.000000
vn -0.882219 -0.328178 -0.337622
vn 0.563130 -0.652024 0.507690
vn 0.054433 -0.871002 0.488254
vn 0.024241 -0.901988 0.431080
vn 0.813065 -0.526364 0.248729
vn -0.097142 -0.910170 0.402684
vn -0.944525 -0.113826 0.308085
vn -0.863110 -0.504665 0.018813
vn -0.964959 0.153195 -0.213037
vn 0.011405 0.000000 0.999935
vn 0.011405 0.000000 0.999935
vn 0.204210 0.667514 0.716047
vn -0.509016 0.006285 0.860734
vn -0.121618 0.006717 0.992554
vn 0.927321 0.066087 0.368387
vn 0.894429 -0.130579 0.427722
vn 0.868701 -0.171865 0.464564
vn 0.742703 -0.360266 0.564447
vn 0.710140 -0.277849 0.646916
vn 0.664322 -0.384151 0.641174
vn -0.088125 0.074408 0.993326
vn 0.152938 -0.869552 0.469562
vn 0.067266 -0.854750 0.514663
vn -0.174696 -0.925323 -0.336541
vn 0.708167 -0.514352 -0.483675
vn -0.783326 -0.153145 -0.602451
vn 0.572368 0.767699 -0.288154
vn -0.147934 -0.348364 0.925612
vn -0.285738 -0.947297 -0.144853
vn -0.579242 0.450861 -0.679119
vn -0.035970 0.656357 0.753592
vn -0.981274 -0.008462 -0.192432
vn -0.969714 -0.007827 0.244116
vn -0.953288 0.032277 0.300332
vn -0.979266 -0.047169 0.197012
vn 0.415289 -0.515484 0.749541
vn 0.724800 0.686951 0.052563
vn 0.676932 -0.736013 -0.006891
vn -0.483283 -0.875464 0.000000
vn -0.786057 0.317599 0.530325
vn 0.230687 0.130197 0.964278
vn -0.797411 0.348032 0.492960
vn 0.640318 -0.540749 -0.545512
vn 0.626477 0.699001 -0.344855
vn 0.966230 -0.064493 -0.249481
vn 0.418886 0.087072 0.903854
vn 0.514613 0.553012 0.655249
vn -0.676024 0.000000 0.736880
vn -0.676024 0.000000 0.736880
vn 0.655129 -0.709861 0.258658
vn 0.771331 -0.616050 0.159786
vn -0.943634 -0.008797 -0.330874
vn -0.974070 0.192578 0.118749
vn -0.994565 0.093608 -0.045576
vn 0.177509 0.826408 0.534360
vn -0.911556 0.398792 0.100149
vn -0.687265 -0.693198 -0.217126
vn -0.412134 -0.803327 0.429898
vn -0.943358 0.269982 -0.192835
vn -0.797530 0.492664 -0.348179
vn -0.462835 0.258840 0.847812
vn -0.622799 -0.048964 0.780848
vn -0.053697 -0.000386 0.998557
vn -0.892352 -0.000781 0.451340
vn -0.994094 0.000000 -0.108525
vn -0.994092 0.000185 -0.108540
vn -0.864799 -0.000309 0.502117
vn -0.974925 0.000000 -0.222535
vn -0.974925 -0.000008 -0.222535
vn -0.995517 -0.004504 -0.094473
vn -0.954341 0.059123 0.292811
vn -0.031649 0.006043 0.999481
vn -0.729380 -0.590989 0.344583
vn -0.601919 0.147385 0.784839
vn -0.258388 -0.056205 0.964405
vn -0.148423 -0.101804 0.983670
vn -0.192768 -0.623671 0.757545
vn -0.257837 0.288168 0.922214
vn -0.121926 0.303477 0.945006
vn -0.124621 -0.140782 0.982166
vn 0.959467 -0.014821 0.281431
vn -0.171791 -0.494128 0.852247
vn -0.224573 -0.520743 0.823646
vn -0.333616 -0.230127 0.914190
vn -0.088150 -0.506142 0.857934
vn -0.194748 0.005708 0.980837
vn 0.530338 -0.364848 0.765263
vn -0.173873 0.072114 0.982124
vn -0.368386 0.583303 0.723913
vn -0.371115 0.331364 0.867451
vn 0.478017 0.327553 0.814990
vn -0.445698 0.353318 0.822508
vn 0.915921 0.228119 0.330228
vn 0.580746 -0.388545 0.715379
vn 0.038632 0.953797 -0.297957
vn 0.797025 0.064302 0.600514
vn -0.263687 0.358320 0.895587
vn -0.167571 -0.198957 0.965576
vn 0.423359 0.370509 0.826735
g fff0305e_00124_004725a7_e58
f 142/202/142 118/88/118 143/201/143
f 95/176/95 124/87/124 106/200/106
f 117/61/117 73/86/73 123/85/123
f 143/201/143 118/88/118 16/47/16
f 122/84/122 124/186/124 121/83/121
f 106/175/106 124/82/124 122/81/122
f 121/80/121 94/174/94 93/200/93
f 92/173/92 122/84/122 121/83/121
f 48/47/48 117/79/117 120/78/120
f 106/175/106 122/81/122 92/200/92
f 120/77/120 123/85/123 116/76/116
f 117/61/117 123/85/123 120/77/120
f 110/207/110 111/187/111 119/75/119
f 48/47/48 120/78/120 118/88/118
f 120/77/120 116/76/116 118/74/118
f 111/187/111 101/185/101 119/75/119
f 62/47/62 72/60/72 117/79/117
f 62/47/62 117/79/117 48/47/48
f 125/172/125 62/47/62 48/47/48
f 91/171/91 90/154/90 94/153/94
f 89/152/89 91/171/91 108/16/108
f 93/170/93 90/199/90 88/198/88
f 94/169/94 90/199/90 93/170/93
f 107/15/107 108/16/108 109/33/109
f 95/168/95 119/75/119 101/185/101
f 88/198/88 89/152/89 107/15/107
f 93/170/93 88/198/88 107/15/107
f 108/16/108 91/171/91 94/153/94
f 93/186/93 102/186/102 100/184/100
f 121/80/121 124/82/124 94/174/94
f 92/174/92 93/186/93 100/184/100
f 89/152/89 108/16/108 107/15/107
f 92/173/92 121/83/121 93/174/93
f 101/183/101 108/16/108 94/153/94
f 105/197/105 92/174/92 100/184/100
f 111/187/111 110/207/110 102/186/102
f 124/168/124 101/185/101 94/167/94
f 106/196/106 119/75/119 95/168/95
f 95/176/95 101/175/101 124/87/124
f 104/195/104 88/166/88 90/165/90
f 88/194/88 104/194/104 103/194/103
f 91/1/91 104/1/104 90/1/90
f 88/1/88 103/1/103 89/1/89
f 100/184/100 110/207/110 119/75/119
f 106/196/106 105/193/105 119/75/119
f 106/200/106 92/174/92 105/197/105
f 105/193/105 100/184/100 119/75/119
f 93/170/93 107/15/107 102/159/102
f 118/74/118 116/76/116 65/44/65
f 118/74/118 65/44/65 16/5/16
f 48/47/48 118/88/118 142/202/142
f 72/59/72 73/86/73 117/61/117
f 71/47/71 62/47/62 125/172/125
f 77/14/77 71/151/71 126/13/126
f 126/13/126 71/151/71 125/13/125
g fff0305e_00124_004725a7_e22
f 75/92/75 60/91/60 74/100/74
f 59/99/59 58/98/58 57/97/57
f 56/90/56 59/99/59 57/97/57
f 58/98/58 59/99/59 64/96/64
f 58/98/58 64/96/64 63/95/63
g fff0305e_00124_004725a7_e34
f 37/94/37 87/11/87 47/111/47
f 163/164/163 162/150/162 161/163/161
f 160/149/160 159/148/159 151/147/151
f 160/149/160 162/150/162 163/164/163
f 86/46/86 46/32/46 70/93/70
f 158/126/158 157/162/157 163/164/163
f 36/215/36 161/146/161 156/145/156
f 45/10/45 55/9/55 46/32/46
f 150/125/150 85/31/85 136/124/136
f 35/58/35 46/32/46 55/9/55
f 34/214/34 150/125/150 136/124/136
f 19/30/19 46/32/46 141/8/141
f 158/126/158 36/213/36 140/192/140
f 151/147/151 155/123/155 149/144/149
f 148/143/148 147/130/147 146/142/146
f 163/164/163 157/162/157 160/149/160
f 146/142/146 44/29/44 150/125/150
f 45/10/45 46/32/46 69/28/69
f 147/129/147 149/141/149 44/27/44
f 36/215/36 154/140/154 153/161/153
f 86/46/86 70/93/70 68/7/68
f 18/73/18 70/93/70 46/32/46
f 115/26/115 69/28/69 46/32/46
f 114/25/114 86/46/86 43/110/43
f 151/147/151 145/139/145 155/123/155
f 86/46/86 68/7/68 67/89/67
f 54/109/54 53/108/53 84/24/84
f 87/11/87 52/107/52 47/111/47
f 42/106/42 54/109/54 84/24/84
f 144/138/144 146/142/146 152/160/152
f 33/212/33 141/116/141 32/191/32
f 31/57/31 141/116/141 35/56/35
f 84/24/84 83/23/83 66/22/66
f 82/21/82 66/22/66 83/23/83
f 115/26/115 81/20/81 80/45/80
f 114/25/114 82/21/82 81/20/81
f 86/46/86 114/25/114 46/32/46
f 135/72/135 19/30/19 134/71/134
f 79/190/79 69/189/69 115/26/115
f 162/137/162 149/141/149 147/129/147
f 154/140/154 156/136/156 144/138/144
f 160/149/160 149/144/149 162/150/162
f 134/71/134 133/6/133 132/70/132
f 151/147/151 149/144/149 160/149/160
f 156/136/156 148/143/148 144/138/144
f 115/26/115 46/32/46 114/25/114
f 115/26/115 114/25/114 81/20/81
f 148/135/148 162/137/162 147/129/147
f 17/19/17 46/32/46 19/30/19
f 156/145/156 161/146/161 148/135/148
f 30/211/30 32/191/32 29/55/29
f 161/146/161 162/137/162 148/135/148
f 163/164/163 161/163/161 36/213/36
f 65/44/65 61/43/61 16/5/16
f 158/126/158 163/164/163 36/213/36
f 69/28/69 79/54/79 155/4/155
f 159/148/159 145/139/145 151/147/151
f 30/211/30 29/55/29 28/53/28
f 36/215/36 156/136/156 154/140/154
f 147/130/147 44/29/44 146/142/146
f 36/215/36 34/214/34 140/192/140
f 158/126/158 140/192/140 45/122/45
f 27/210/27 30/211/30 26/42/26
f 27/210/27 26/42/26 15/41/15
f 139/128/139 27/210/27 14/40/14
f 66/22/66 82/21/82 114/25/114
f 36/215/36 150/125/150 34/214/34
f 36/215/36 153/161/153 150/125/150
f 25/209/25 24/208/24 33/212/33
f 27/210/27 24/208/24 25/209/25
f 30/211/30 27/210/27 25/209/25
f 32/191/32 30/211/30 25/209/25
f 139/128/139 24/208/24 27/210/27
f 25/209/25 33/212/33 32/191/32
f 24/208/24 138/115/138 33/212/33
f 13/188/13 141/116/141 33/212/33
f 139/128/139 138/115/138 24/208/24
f 139/128/139 14/40/14 12/39/12
f 28/52/28 26/38/26 30/121/30
f 31/51/31 29/50/29 32/121/32
f 15/37/15 14/36/14 27/121/27
f 32/191/32 141/116/141 31/57/31
f 131/69/131 113/49/113 51/12/51
f 112/18/112 51/12/51 113/49/113
f 137/114/137 141/116/141 13/188/13
f 18/73/18 46/32/46 11/48/11
f 130/12/130 10/35/10 129/69/129
f 11/48/11 46/32/46 17/19/17
f 128/68/128 17/19/17 135/72/135
f 50/34/50 113/49/113 131/69/131
f 11/48/11 17/19/17 128/68/128
f 17/19/17 19/30/19 135/72/135
f 19/30/19 133/6/133 134/71/134
f 67/89/67 37/94/37 86/46/86
f 114/25/114 41/105/41 66/22/66
f 40/104/40 66/22/66 41/105/41
f 114/25/114 43/110/43 49/103/49
f 42/106/42 66/22/66 40/104/40
f 39/102/39 43/110/43 86/46/86
f 38/101/38 39/102/39 86/46/86
f 37/94/37 47/111/47 38/101/38
f 66/22/66 42/106/42 84/24/84
f 37/94/37 38/101/38 86/46/86
f 114/25/114 49/103/49 41/105/41
f 85/31/85 78/3/78 127/120/127
f 126/119/126 127/120/127 78/3/78
f 127/120/127 126/119/126 125/118/125
f 44/27/44 155/123/155 85/17/85
f 78/3/78 77/2/77 126/119/126
f 85/31/85 127/120/127 136/124/136
f 125/118/125 136/124/136 127/120/127
f 111/187/111 102/186/102 101/185/101
f 100/184/100 102/186/102 110/207/110
f 109/33/109 101/183/101 102/159/102
f 109/33/109 108/16/108 101/183/101
f 107/15/107 109/33/109 102/159/102
f 12/39/12 14/40/14 143/117/143
f 140/192/140 55/121/55 45/122/45
f 142/113/142 143/112/143 23/206/23
f 33/212/33 138/115/138 99/67/99
f 98/66/98 97/65/97 10/182/10
f 140/192/140 34/214/34 22/205/22
f 33/212/33 99/67/99 13/188/13
f 9/117/9 35/56/35 55/121/55
f 141/8/141 46/32/46 35/58/35
f 15/37/15 143/112/143 14/36/14
f 28/52/28 23/206/23 26/38/26
f 22/205/22 23/206/23 28/52/28
f 19/134/19 141/116/141 137/114/137
f 69/133/69 158/126/158 45/122/45
f 22/205/22 34/214/34 21/204/21
f 8/181/8 19/134/19 7/180/7
f 144/138/144 148/143/148 146/142/146
f 152/160/152 146/142/146 150/125/150
f 145/139/145 69/133/69 155/123/155
f 7/180/7 137/114/137 13/188/13
f 7/180/7 99/64/99 96/63/96
f 159/148/159 69/133/69 145/139/145
f 149/141/149 155/123/155 44/27/44
f 80/45/80 79/190/79 115/26/115
f 157/162/157 159/148/159 160/149/160
f 79/179/79 76/132/76 155/123/155
f 157/162/157 69/133/69 159/148/159
f 153/161/153 144/138/144 152/160/152
f 6/158/6 5/157/5 96/63/96
f 97/62/97 4/156/4 10/182/10
f 130/12/130 11/48/11 10/35/10
f 5/157/5 3/155/3 98/66/98
f 10/182/10 17/131/17 8/181/8
f 140/192/140 9/178/9 55/121/55
f 9/117/9 31/57/31 35/56/35
f 10/182/10 4/156/4 131/177/131
f 17/131/17 19/134/19 8/181/8
f 8/181/8 98/66/98 10/182/10
f 19/134/19 137/114/137 7/180/7
f 7/180/7 96/63/96 98/66/98
f 2/115/2 6/158/6 96/63/96
f 85/17/85 155/123/155 76/132/76
f 99/64/99 2/115/2 96/63/96
f 48/127/48 142/113/142 21/204/21
f 1/155/1 4/156/4 97/62/97
f 153/161/153 152/160/152 150/125/150
f 136/124/136 125/118/125 48/127/48
f 154/140/154 144/138/144 153/161/153
f 13/188/13 99/64/99 7/180/7
f 96/63/96 5/157/5 98/66/98
f 158/126/158 69/133/69 157/162/157
f 7/180/7 98/66/98 8/181/8
f 34/214/34 136/124/136 20/203/20
f 150/125/150 44/29/44 85/31/85
f 20/203/20 48/127/48 21/204/21
f 98/66/98 3/155/3 97/65/97
f 28/53/28 29/55/29 22/117/22
f 48/127/48 20/203/20 136/124/136
f 140/192/140 22/205/22 9/178/9
f 9/178/9 22/205/22 31/51/31
f 21/204/21 142/113/142 23/206/23
f 15/41/15 26/42/26 23/117/23
f 22/205/22 21/204/21 23/206/23
f 31/51/31 22/205/22 29/50/29
f 34/214/34 20/203/20 21/204/21
f 23/206/23 143/112/143 15/37/15
