# fff0ade4_00296_0045675b
o fff0ade4_00296_0045675b
v -4.302592 -0.000278 2.485819
v 0.089767 -0.000278 0.232849
v -0.035098 -0.000278 1.919970
v -3.859237 -0.000278 -2.513666
v 0.409811 -0.000278 1.554625
v 0.409811 -0.000278 -2.096284
v 0.409811 -0.000278 0.232849
v 0.563433 -0.000278 -1.637460
v -0.021981 -0.000278 -2.513666
v 1.537353 -0.000278 -2.513666
v 1.542470 -0.000278 -2.165807
v 2.189889 -0.000278 0.232849
v 2.220219 -0.000278 2.510736
v -1.161883 -0.000278 -2.513666
v -1.186955 -0.000278 -0.859924
v -1.268381 -0.000278 2.491569
v -0.561243 -0.000278 2.496208
v -4.302592 -0.000278 0.230127
v -1.166124 -0.000278 -2.049114
v -3.859237 -0.000278 -1.986926
v -0.030211 -0.000278 -2.074386
v -2.617280 -0.000278 2.489012
v -3.109083 -0.000278 -2.513666
v -3.139053 -0.000278 -2.003303
v -5.982828 -6.034402 1.868835
v -6.430452 -3.429411 0.240417
v -6.333850 -3.991601 1.657349
v -6.199520 -4.773325 -0.155762
v -6.146049 -5.084626 2.114075
v -5.883685 -6.611470 0.160828
v -6.271911 -4.352096 -2.692322
v -6.458699 -3.265057 -1.239380
v -5.980523 -6.047851 -1.917053
vt 0.000000 0.000000
vt 0.000000 0.000000
vt 0.000000 0.000000
vt 0.000000 0.000000
vt 0.000000 0.000000
vt 0.000000 0.000000
vt 0.000000 0.000000
vt 0.000000 0.000000
vt 0.000000 0.000000
vt 0.000000 0.000000
vt 0.000000 0.000000
vt 0.000000 0.000000
vt 0.000000 0.000000
vt 0.000000 0.000000
vt 0.000000 0.000000
vt 0.000000 0.000000
vt 0.000000 0.000000
vt 0.000000 0.000000
vt 0.000000 0.000000
vt 0.000000 0.000000
vt 0.000000 0.000000
vt 0.000000 0.000000
vt 0.000000 0.000000
vt 0.000000 0.000000
vt 0.000000 0.000000
vt 0.000000 0.000000
vt 0.000000 0.000000
vt 0.000000 0.000000
vt 0.000000 0.000000
vt 0.000000 0.000000
vt 0.000000 0.000000
vt 0.000000 0.000000
vt 0.000000 0.000000
vt 0.000000 0.000000
vt 0.000000 0.000000
vt 0.000000 0.000000
vt 0.000000 0.000000
vt 0.000000 0.000000
vt 0.000000 0.000000
vt 0.000000 0.000000
vt 0.000000 0.000000
vt 0.000000 0.000000
vt 0.000000 0.000000
vt 0.000000 0.000000
vt 0.000000 0.000000
vt 0.000000 0.000000
vt 0.000000 0.000000
vn 0.000000 -1.000000 0.000000
vn 0.000000 -1.000000 0.000000
vn 0.000000 -1.000000 0.000000
vn 0.000000 -1.000000 0.000000
vn 0.000000 -1.000000 0.000000
vn 0.000000 -1.000000 0.000000
vn 0.000000 -1.000000 0.000000
vn 0.000000 -1.000000 0.000000
vn 0.000000 -1.000000 0.000000
vn 0.000000 -1.000000 0.000000
vn 0.000000 -1.000000 0.000000
vn 0.000000 -1.000000 0.000000
vn 0.000000 -1.000000 0.000000
vn 0.000000 -1.000000 0.000000
vn 0.000000 -1.000000 0.000000
vn 0.000000 -1.000000 0.000000
vn 0.000000 -1.000000 0.000000
vn 0.000000 -1.000000 0.000000
vn 0.000000 -1.000000 0.000000
vn 0.000000 -1.000000 0.000000
vn 0.000000 -1.000000 0.000000
vn 0.000000 -1.000000 0.000000
vn 0.000000 -1.000000 0.000000
vn 0.000000 -1.000000 0.000000
vn 0.985555 0.169356 0.000004
vn 0.985555 0.169354 -0.000001
vn 0.985557 0.169344 0.000005
vn 0.985556 0.169349 -0.000000
vn 0.985555 0.169355 0.000010
vn 0.985558 0.169341 -0.000002
vn 0.985556 0.169352 -0.000004
vn 0.985555 0.169354 -0.000003
vn 0.985557 0.169347 -0.000001
g fff0ade4_00296_0045675b_e3
f 2/5/2 3/6/3 15/34/15
f 24/34/24 18/39/18 20/42/20
f 6/20/6 8/23/8 7/11/7
f 5/31/5 13/1/13 3/4/3
f 2/17/2 21/43/21 6/20/6
f 15/33/15 19/40/19 21/41/21
f 21/43/21 9/14/9 6/20/6
f 24/9/24 23/45/23 19/40/19
f 17/38/17 3/7/3 13/3/13
f 7/8/7 11/27/11 12/28/12
f 15/34/15 3/6/3 17/35/17
f 15/34/15 1/13/1 18/39/18
f 9/14/9 11/26/11 6/20/6
f 2/16/2 7/22/7 5/18/5
f 9/14/9 10/24/10 11/25/11
f 5/18/5 7/10/7 12/29/12
f 2/16/2 5/18/5 3/15/3
f 13/15/13 5/18/5 12/30/12
f 22/44/22 1/13/1 15/34/15
f 2/17/2 6/20/6 7/21/7
f 7/8/7 8/19/8 11/27/11
f 15/33/15 21/41/21 2/2/2
f 6/20/6 11/26/11 8/23/8
f 14/32/14 9/37/9 19/40/19
f 16/36/16 15/7/15 17/38/17
f 23/34/23 24/46/24 4/12/4
f 24/47/24 19/40/19 15/33/15
f 19/40/19 9/37/9 21/41/21
f 16/35/16 22/44/22 15/34/15
f 23/45/23 14/32/14 19/40/19
f 24/46/24 20/42/20 4/12/4
f 18/9/18 24/47/24 15/33/15
f 26/5/26 27/6/27 28/34/28
f 28/33/28 31/40/31 32/41/32
f 30/9/30 33/47/33 28/33/28
f 29/36/29 28/7/28 27/38/27
f 28/34/28 25/13/25 30/39/30
f 29/44/29 25/13/25 28/34/28
f 28/33/28 32/41/32 26/2/26
f 33/47/33 31/40/31 28/33/28
