# fff0030f_00032_000c2c1a
o fff0030f_00032_000c2c1a
v 0.588989 0.090271 0.206303
v 0.588989 0.090271 -0.304825
v 0.675314 0.090271 -0.304825
v 0.675314 0.090271 0.206303
v 0.675314 0.132507 -0.304825
v 0.675314 0.132507 0.206303
v 0.588989 0.132507 0.206303
v 0.588989 0.132507 -0.304825
v 2.311523 0.147766 0.242164
v 2.247805 0.147766 -0.277462
v 2.311523 0.147766 -0.356895
v -2.543314 0.147645 -0.277462
v -2.629638 0.147645 0.242164
v -2.629638 0.147645 -0.356895
v -2.543314 0.099671 -0.277462
v 2.247805 0.099793 -0.277462
v -0.991943 0.090272 0.206303
v -0.991943 0.090272 -0.304825
v -0.905619 0.090272 -0.304825
v -0.905619 0.090272 0.206303
v -4.391356 0.028626 -0.608677
v -3.013916 0.028749 -1.811553
v -3.127665 0.028749 -0.608677
v -3.013916 0.028749 0.448497
v -0.905619 0.132508 -0.304825
v -0.905619 0.132508 0.206303
v -0.991943 0.132508 0.206303
v -0.991943 0.132508 -0.304825
v 2.247805 0.147766 0.162731
v -2.543314 0.147645 0.162731
v 2.247805 0.099793 0.162731
v -2.543314 0.099671 0.162731
v -4.132134 0.125428 -0.926034
v -4.132134 -0.020264 -0.926034
v -4.132134 0.125428 -0.848870
v -4.132134 -0.020264 -0.848870
v -4.455700 -0.020264 -0.848870
v -4.455700 -0.020264 -0.926034
v -4.455700 0.054871 -0.926034
v -4.455700 0.054871 -0.848870
v -4.527709 0.028626 -1.811553
v -4.527709 0.028626 0.448497
v -4.391356 0.028626 0.315538
v -3.127665 0.028749 0.315538
v -4.391356 -0.019347 -0.608677
v -3.127665 -0.019225 -0.608677
v -3.127665 -0.019225 0.315538
v -4.391356 -0.019347 0.315538
v 2.311523 0.060608 0.242164
v -2.629638 0.060486 0.242164
v 2.311523 0.060608 -0.356895
v -2.629638 0.060486 -0.356895
vt 0.832367 -257028.984375
vt 0.832367 -257028.984375
vt 0.832367 -7.809645
vt 0.832367 -7.814074
vt 0.832367 -7.181369
vt 0.832367 -18.768391
vt 0.832367 -18.766376
vt 0.832367 -21.400103
vt 0.832367 -24.784777
vt 0.832367 -24.782913
vt 0.832367 -22.217392
vt 0.832367 293488927950503936.000000
vt 0.832367 293488927950503936.000000
vt 0.832367 21522.513672
vt 0.832367 21721.251953
vt 0.832367 21720.650391
vt 1.022135 -4.586448
vt 1.022135 -4.586457
vt 1.022135 -4.586457
vt 1.022135 -4.078398
vt 0.996507 5.802041
vt 0.996507 5.802041
vt 0.996507 6.406017
vt 0.996507 6.405951
vt 0.996507 6.405951
vt 0.996507 5.801984
vt 0.832367 -21.267891
vt 0.832367 -21.269911
vt 0.832367 -18.636183
vt 0.832367 -21.041056
vt 0.832367 -21.042925
vt 0.832367 -23.608454
vt 1.022135 -4.078390
vt 1.022135 -4.078390
vt 0.996507 -21.126015
vt 0.996507 -21.126015
vt 0.996507 -23.759727
vt 0.996507 -23.759649
vt 0.996507 -23.759649
vt 0.996507 -21.125952
vt 0.996507 4.854209
vt 0.996507 4.854209
vt 0.996507 4.265345
vt 0.996507 4.265378
vt 0.996507 4.265378
vt 0.996507 4.854252
vt 1.516936 4.095397
vt 1.516936 4.095397
vt 0.832367 -21.177238
vt 0.832367 -23.742767
vt 0.832367 -21.177238
vt 0.832367 -23.742767
vt 0.832367 -7.181369
vt 0.832367 -7.814074
vt 0.832367 21721.251953
vt 0.832367 21720.650391
vt 0.832367 -22.396801
vt 0.832367 -24.962330
vt 0.832367 4.246107
vt 0.832367 3.247559
vt 11.866295 4.660821
vt 1.611363 4.660823
vn -1.000000 0.000000 0.000000
vn -1.000000 0.000000 0.000000
vn 1.000000 0.000000 0.000000
vn 1.000000 0.000000 0.000000
vn 0.707107 0.707107 0.000000
vn 0.707107 0.707107 0.000000
vn -0.707107 0.707107 0.000000
vn -0.707107 0.707107 0.000000
vn 0.577346 0.577354 0.577351
vn -0.301523 0.904535 0.301498
vn 0.577346 0.577353 -0.577351
vn 0.301499 0.904533 0.301528
vn -0.577354 0.577347 0.577349
vn -0.577354 0.577347 -0.577350
vn 0.577344 0.577358 0.577349
vn -0.577357 0.577342 0.577352
vn -1.000000 0.000000 0.000000
vn -1.000000 0.000000 0.000000
vn 1.000000 0.000000 0.000000
vn 1.000000 0.000000 0.000000
vn 0.301484 0.904536 0.301531
vn -0.000084 1.000000 -0.000000
vn -0.301541 0.904531 0.301489
vn -0.000044 1.000000 0.000038
vn 0.707107 0.707107 0.000000
vn 0.707107 0.707107 0.000000
vn -0.707107 0.707107 0.000000
vn -0.707107 0.707107 0.000000
vn -0.301522 0.904535 -0.301498
vn 0.301499 0.904532 -0.301528
vn -0.577357 0.577342 -0.577352
vn 0.577344 0.577358 -0.577349
vn 0.627274 0.778799 0.000000
vn 1.000000 0.000000 0.000000
vn 0.516743 0.641568 0.566892
vn 0.707107 0.000000 0.707107
vn -0.707107 0.000000 0.707107
vn -1.000000 0.000000 0.000000
vn -0.778799 0.627274 0.000000
vn -0.629096 0.506697 0.589488
vn -0.000075 1.000000 0.000009
vn -0.000047 1.000000 -0.000039
vn 0.301465 0.904529 -0.301573
vn -0.301548 0.904537 -0.301466
vn 0.577325 0.577381 0.577345
vn -0.577376 0.577320 0.577355
vn -0.577376 0.577320 -0.577355
vn 0.577325 0.577381 -0.577345
vn 0.707101 0.000000 0.707112
vn -0.707112 0.000000 0.707101
vn 0.707101 0.000000 -0.707113
vn -0.707113 0.000000 -0.707101
g fff0030f_00032_000c2c1a_e2
f 33/29/33 39/28/39 40/27/40
f 40/32/40 35/31/35 33/30/33
g fff0030f_00032_000c2c1a_e1
f 35/1/35 34/1/34 33/1/33
f 34/1/34 35/1/35 36/1/36
g fff0030f_00032_000c2c1a_e0
f 37/50/37 36/49/36 35/31/35
f 35/31/35 40/32/40 37/50/37
g fff0030f_00032_000c2c1a_e7
f 31/40/31 32/39/32 30/38/30
f 30/37/30 29/36/29 31/35/31
f 10/20/10 12/19/12 15/18/15
f 15/17/15 16/34/16 10/33/10
f 52/56/52 50/55/50 13/15/13
f 13/15/13 14/16/14 52/56/52
f 51/54/51 9/5/9 49/53/49
f 9/5/9 51/54/51 11/4/11
f 47/40/47 48/39/48 43/38/43
f 43/37/43 44/36/44 47/35/47
f 23/20/23 21/19/21 45/18/45
f 45/17/45 46/34/46 23/33/23
f 40/1/40 39/1/39 38/1/38
f 38/1/38 37/1/37 40/1/40
f 50/52/50 49/51/49 9/31/9
f 9/31/9 13/32/13 50/52/50
g fff0030f_00032_000c2c1a_e9
f 12/26/12 30/25/30 32/24/32
f 32/23/32 15/22/15 12/21/12
f 29/46/29 10/45/10 16/44/16
f 16/43/16 31/42/31 29/41/29
f 5/26/5 6/25/6 4/24/4
f 4/23/4 3/22/3 5/21/5
f 7/15/7 8/16/8 2/60/2
f 2/60/2 1/59/1 7/15/7
f 25/26/25 26/25/26 20/24/20
f 20/23/20 19/22/19 25/21/25
f 27/15/27 28/16/28 18/60/18
f 18/60/18 17/59/17 27/15/27
f 11/11/11 52/58/52 14/10/14
f 52/58/52 11/11/11 51/57/51
f 46/43/46 47/42/47 44/41/44
f 44/46/44 23/45/23 46/44/46
f 48/23/48 45/22/45 21/21/21
f 21/26/21 43/25/43 48/24/48
g fff0030f_00032_000c2c1a_e8
f 14/16/14 13/15/13 30/14/30
f 30/13/30 12/12/12 14/16/14
f 11/11/11 14/10/14 12/9/12
f 12/8/12 10/7/10 11/6/11
f 9/5/9 11/4/11 10/3/10
f 10/3/10 29/2/29 9/1/9
f 13/32/13 9/31/9 29/30/29
f 29/29/29 30/28/30 13/27/13
f 8/16/8 7/15/7 6/14/6
f 6/13/6 5/12/5 8/16/8
f 28/16/28 27/15/27 26/14/26
f 26/13/26 25/12/25 28/16/28
f 44/29/44 43/28/43 42/27/42
f 42/32/42 24/31/24 44/30/44
f 23/3/23 44/2/44 24/1/24
f 24/5/24 22/4/22 23/3/23
f 21/8/21 23/7/23 22/6/22
f 22/11/22 41/10/41 21/9/21
f 43/13/43 21/12/21 41/16/41
f 41/16/41 42/15/42 43/14/43
g fff0030f_00032_000c2c1a_e10
f 16/48/16 15/47/15 32/62/32
f 32/62/32 31/61/31 16/48/16
f 48/62/48 47/61/47 46/48/46
f 46/48/46 45/47/45 48/62/48
