# fff07975_00205_0055db27
o fff07975_00205_0055db27
v 0.128828 0.011068 -4.655694
v 0.093183 0.087874 -4.655694
v 0.016377 0.123520 -4.655694
v -0.060429 0.087874 -4.655694
v -0.096075 0.011068 -4.655694
v -0.060429 -0.065737 -4.655694
v 0.016377 -0.101383 -4.655694
v 0.093183 -0.065737 -4.655694
v 0.128828 0.011068 7.077823
v 0.093183 0.087874 7.077823
v 0.016377 0.123520 7.077823
v -0.060429 0.087874 7.077823
v -0.096075 0.011068 7.077823
v -0.060429 -0.065737 7.077823
v 0.016377 -0.101383 7.077823
v 0.093183 -0.065737 7.077823
v -1.228104 0.114806 5.448635
v -1.096022 0.114806 5.448635
v -1.162063 0.229193 5.448635
v -1.294146 0.229193 5.448635
v -1.360187 0.114806 5.448635
v -1.294146 0.000419 5.448635
v -1.162063 0.000419 5.448635
v -1.104860 0.114806 5.536864
v -1.166482 0.221538 5.536864
v -1.289726 0.221538 5.536864
v -1.351348 0.114806 5.536864
v -1.289726 0.008074 5.536864
v -1.166482 0.008074 5.536864
v -1.143047 0.114806 5.578685
v -1.185574 0.188466 5.578685
v -1.270629 0.188466 5.578685
v -1.313156 0.114806 5.578685
v -1.270629 0.041147 5.578685
v -1.185574 0.041147 5.578685
v -1.153432 0.114806 5.645855
v -1.190766 0.179472 5.645855
v -1.265436 0.179472 5.645855
v -1.302770 0.114806 5.645855
v -1.265436 0.050141 5.645855
v -1.190766 0.050141 5.645855
v -1.228101 0.114806 5.686870
v -1.465357 0.077673 5.166624
v 1.539572 0.077673 4.993056
v -1.465357 0.170652 5.166624
v 1.539572 0.170652 4.993056
v -1.457793 0.077673 5.315083
v 1.547136 0.077673 5.141516
v -1.457793 0.170652 5.315083
v 1.547136 0.170652 5.141516
v -1.205355 0.087035 6.553484
v 1.287137 0.087035 6.553484
v -1.205355 0.161290 6.553484
v 1.287137 0.161290 6.553484
v -1.205355 0.087035 6.679613
v 1.287137 0.087035 6.679613
v -1.205355 0.161290 6.679613
v 1.287137 0.161290 6.679613
v 0.019566 0.098702 6.005873
v 0.495646 0.095395 6.565158
v 0.019566 0.156022 6.007867
v 0.495646 0.152930 6.565158
v 0.019566 0.092304 6.125657
v 0.443765 0.095395 6.626914
v 0.019566 0.149624 6.127651
v 0.443765 0.152930 6.626914
v -0.456513 0.095395 6.565158
v -0.456513 0.152930 6.565158
v -0.404633 0.095395 6.626914
v -0.404633 0.152930 6.626914
v 0.019566 0.098702 4.175662
v 0.902245 0.095395 5.129456
v 0.019566 0.156022 4.177656
v 0.902245 0.152930 5.129456
v 0.019566 0.092304 4.314249
v 0.850365 0.095395 5.191210
v 0.019566 0.149624 4.316243
v 0.850365 0.152930 5.191210
v -0.729495 0.095395 5.152566
v -0.729495 0.152930 5.152566
v -0.677614 0.095395 5.214322
v -0.677614 0.152930 5.214322
v -1.229368 0.096161 5.178987
v -1.240959 0.117698 5.178987
v -1.191888 0.122281 5.178987
v -1.212849 0.143819 5.178987
v -1.220587 0.105722 5.463482
v -1.250919 0.126929 5.463482
v -1.201848 0.131104 5.463482
v -1.222809 0.152311 5.463482
v 0.016365 -0.305308 3.581251
v 0.240452 -0.305308 3.581251
v 0.169419 -0.152254 3.581251
v 0.016365 -0.081221 3.581251
v -0.136689 -0.152254 3.581251
v -0.207722 -0.305308 3.581251
v -0.136689 -0.458362 3.581251
v 0.016365 -0.529395 3.581251
v 0.169419 -0.458362 3.581251
v 0.240452 -0.305308 3.642527
v 0.169419 -0.152254 3.642527
v 0.016365 -0.081221 3.642527
v -0.136689 -0.152254 3.642527
v -0.207722 -0.305308 3.642527
v -0.136689 -0.458362 3.642527
v 0.016365 -0.529395 3.642527
v 0.169419 -0.458362 3.642527
v 0.729382 0.153535 4.943056
v 0.610125 0.151974 4.938199
v 0.615373 0.094521 4.943161
v 0.734375 0.096024 4.948061
v -0.522362 0.152194 5.014331
v -0.628111 0.153348 5.020615
v -0.630370 0.095833 5.023291
v -0.524784 0.094718 5.017015
v 0.299399 0.151805 6.457002
v 0.300186 0.094349 6.457253
v 0.408507 0.096001 6.462790
v 0.407991 0.153499 6.462551
v -0.277586 0.151940 6.477385
v -0.378821 0.153435 6.474213
v -0.379375 0.095931 6.474539
v -0.278360 0.094475 6.477704
v -1.223520 0.102529 5.392646
v -1.198598 0.128225 5.395133
v -1.219620 0.149592 5.397079
v -1.247652 0.123901 5.394586
v 0.512183 0.096161 5.007198
v 0.500592 0.117698 5.007198
v 0.549663 0.122281 5.007198
v 0.528702 0.143819 5.007198
v 0.559380 0.102529 5.373415
v 0.584303 0.128225 5.375902
v 0.563280 0.149592 5.377849
v 0.535248 0.123901 5.375356
v 0.411992 0.114806 6.754960
v 0.544074 0.114806 6.754960
v 0.478033 0.229193 6.754960
v 0.345951 0.229193 6.754960
v 0.279910 0.114806 6.754960
v 0.345951 0.000419 6.754960
v 0.478033 0.000419 6.754960
v 0.535236 0.114806 6.834809
v 0.473614 0.221538 6.834809
v 0.350370 0.221538 6.834809
v 0.288748 0.114806 6.834809
v 0.350370 0.008074 6.834809
v 0.473614 0.008074 6.834809
v 0.497049 0.114806 6.876628
v 0.454522 0.188466 6.876628
v 0.369467 0.188466 6.876628
v 0.326940 0.114806 6.876628
v 0.369467 0.041147 6.876628
v 0.454522 0.041147 6.876628
v 0.486665 0.114806 6.943799
v 0.449330 0.179472 6.943799
v 0.374660 0.179472 6.943799
v 0.337326 0.114806 6.943799
v 0.374660 0.050141 6.943799
v 0.449330 0.050141 6.943799
v 0.411995 0.114806 6.984814
v 0.410728 0.096161 6.476931
v 0.399137 0.117698 6.476931
v 0.448209 0.122281 6.476931
v 0.427247 0.143819 6.476931
v 0.419509 0.105722 6.769807
v 0.389177 0.126929 6.769807
v 0.438249 0.131104 6.769807
v 0.417287 0.152311 6.769807
v 0.416576 0.102529 6.690590
v 0.441498 0.128225 6.693076
v 0.420476 0.149592 6.695023
v 0.392444 0.123901 6.692529
v 1.046258 0.114806 6.808863
v 1.177208 0.114806 6.791590
v 1.111733 0.229193 6.800225
v 0.980784 0.229193 6.817499
v 0.915311 0.114806 6.826135
v 0.980784 0.000419 6.817499
v 1.111733 0.000419 6.800225
v 1.176831 0.114806 6.887055
v 1.115738 0.221538 6.895113
v 0.993553 0.221538 6.911231
v 0.932459 0.114806 6.919289
v 0.993553 0.008074 6.911231
v 1.115738 0.008074 6.895113
v 1.142843 0.114806 6.921396
v 1.100681 0.188466 6.926958
v 1.016358 0.188466 6.938081
v 0.974194 0.114806 6.943643
v 1.016358 0.041147 6.938081
v 1.100681 0.041147 6.926958
v 1.141330 0.114806 6.989347
v 1.104317 0.179472 6.994230
v 1.030288 0.179472 7.003995
v 0.993273 0.114806 7.008878
v 1.030288 0.050141 7.003995
v 1.104317 0.050141 6.994230
v 1.072668 0.114806 7.039776
v 1.004993 0.096161 6.536421
v 0.993500 0.117698 6.537937
v 1.042153 0.122281 6.531519
v 1.021369 0.143819 6.534260
v 1.055652 0.105722 6.822599
v 1.025581 0.126929 6.826566
v 1.074231 0.131104 6.820148
v 1.053450 0.152311 6.822890
v 1.038733 0.102529 6.747480
v 1.063765 0.128225 6.746685
v 1.043177 0.149592 6.751365
v 1.015061 0.123901 6.752558
v 0.113763 0.072428 4.242702
v 0.072603 0.113588 4.185552
v 0.016377 0.128653 4.121365
v -0.039849 0.113588 4.185552
v -0.081009 0.072428 4.242702
v 0.113763 0.072428 4.375370
v 0.072603 0.113588 4.293881
v 0.016377 0.128653 4.293881
v -0.039849 0.113588 4.293881
v -0.081009 0.072428 4.375370
v 0.113763 0.072428 5.008660
v 0.072603 0.113588 5.008660
v 0.016377 0.128653 5.008660
v -0.039849 0.113588 5.008660
v -0.081009 0.072428 5.008660
v 0.113763 0.072428 5.133215
v 0.072603 0.113588 5.133215
v 0.016377 0.128653 5.133215
v -0.039849 0.113588 5.133215
v -0.081009 0.072428 5.133215
v 0.113763 0.072428 6.464106
v 0.072603 0.113588 6.464106
v 0.016377 0.128653 6.464106
v -0.039849 0.113588 6.464106
v -0.081009 0.072428 6.464106
v 0.113763 0.072428 6.588661
v 0.072603 0.113588 6.588661
v 0.016377 0.128653 6.588661
v -0.039849 0.113588 6.588661
v -0.081009 0.072428 6.588661
v 0.113763 0.072428 6.039797
v 0.072603 0.113588 5.982648
v 0.016377 0.128653 5.918460
v -0.039849 0.113588 5.982648
v -0.081009 0.072428 6.039797
v 0.113763 0.072428 6.172465
v 0.072603 0.113588 6.090975
v 0.016377 0.128653 6.090975
v -0.039849 0.113588 6.090975
v -0.081009 0.072428 6.172465
v 0.240452 -0.305308 4.234544
v 0.169419 -0.152254 4.234544
v 0.016365 -0.081221 4.234544
v -0.136689 -0.152254 4.234544
v -0.207722 -0.305308 4.234544
v -0.136689 -0.458362 4.234544
v 0.016365 -0.529395 4.234544
v 0.169419 -0.458362 4.234544
v 0.240452 -0.305308 4.254888
v 0.169419 -0.152254 4.254888
v 0.016365 -0.081221 4.254888
v -0.136689 -0.152254 4.254888
v -0.207722 -0.305308 4.254888
v -0.136689 -0.458362 4.254888
v 0.016365 -0.529395 4.254888
v 0.169419 -0.458362 4.254888
v 0.240452 -0.305308 4.330434
v 0.169419 -0.152254 4.330434
v 0.016365 -0.081221 4.330434
v -0.136689 -0.152254 4.330434
v -0.207722 -0.305308 4.330434
v -0.136689 -0.458362 4.330434
v 0.016365 -0.529395 4.330434
v 0.169419 -0.458362 4.330434
v 0.151586 0.150149 4.455281
v 0.215998 0.155334 4.389469
v 0.216735 0.097963 4.388716
v 0.152394 0.092798 4.454456
v -0.098796 0.150185 4.468712
v -0.160469 0.155279 4.411974
v -0.161150 0.097904 4.411346
v -0.099545 0.092832 4.468023
vt 0.727435 0.256319
vt -0.925668 2.918347
vt -0.925668 2.671602
vt -0.925668 2.424856
vt -0.925669 2.178111
vt -0.925669 1.931366
vt -0.925669 1.684621
vt -0.925668 1.437876
vt -0.925668 1.191131
vt -0.925668 0.944385
vt -0.925669 0.697640
vt -0.925669 0.450895
vt -0.925669 0.204150
vt -0.925669 -0.042596
vt 2.765843 2.918347
vt 2.765843 2.671601
vt 2.765843 2.424856
vt 2.765843 2.178111
vt 2.765843 1.931366
vt 2.765843 1.684621
vt 2.765843 1.437876
vt 2.765843 1.191130
vt 2.765843 0.944385
vt 2.765843 0.697640
vt 2.765843 0.450895
vt 2.765843 0.204149
vt 2.765843 -0.042596
vt 0.702857 0.133296
vt 0.758118 0.684255
vt 0.323142 0.733497
vt 0.734218 0.605880
vt 0.245761 0.704275
vt 0.000000 0.000000
vt 0.304320 0.349477
vt 0.715098 0.614719
vt 0.318362 0.772457
vt 0.502518 0.755062
vt 0.762136 0.250057
vt 0.245088 0.754912
vt 0.910691 0.896529
vt 0.797397 0.740750
vt 0.712426 0.754912
vt 0.695680 0.281742
vt 0.289268 0.770941
vt 0.319373 0.718258
vt 0.762136 0.250057
vt 0.719462 0.756039
vt 0.245088 0.754912
vt 0.719462 0.756039
vt 0.245088 0.754912
vt 0.328122 0.240496
vt 0.762136 0.250057
vt 0.700910 0.304697
vt 0.719462 0.756039
vt 0.719462 0.756039
vt 0.762136 0.250057
vt 0.762136 0.250057
vt 0.245088 0.754912
vt 0.245088 0.754912
vt 0.679273 0.305638
vt 0.712426 0.754912
vt 0.712426 0.754912
vt 0.289268 0.770941
vt 0.289268 0.770941
vt 0.695680 0.281742
vt 0.695680 0.281742
vt 0.755061 0.168459
vt 0.712426 0.754912
vt 0.712426 0.754912
vt 0.695680 0.281742
vt 0.695680 0.281742
vt 0.289268 0.770941
vt 0.289268 0.770941
vt 0.728410 0.339532
vt 0.672078 0.251442
vt 0.672078 0.251442
vt 0.672078 0.251442
vt 0.318362 0.772457
vt 0.318362 0.772457
vt 0.715098 0.614719
vt 0.715098 0.614719
vt 0.672078 0.251442
vt 0.742583 0.276537
vt 0.758118 0.684255
vt 0.758118 0.684255
vt 0.758118 0.684255
vt 0.758118 0.684255
vt 0.758118 0.684255
vt 0.758118 0.684255
vt 0.758118 0.684255
vt 0.758118 0.684255
vt 0.758118 0.684255
vt 0.758118 0.684255
vt 0.758118 0.684255
vt 0.758118 0.684255
vt 0.758118 0.684255
vt 0.758118 0.684255
vt 0.758118 0.684255
vt 0.758118 0.684255
vt 0.758118 0.684255
vt 0.758118 0.684255
vt 0.758118 0.684255
vt 0.758118 0.684255
vt 0.758118 0.684255
vt 0.758118 0.684255
vt 0.758118 0.684255
vt 0.758118 0.684255
vt 0.758118 0.684255
vt 0.758118 0.684255
vt 0.758118 0.684255
vt 0.758118 0.684255
vt 0.758118 0.684255
vt 0.758118 0.684255
vt 0.758118 0.684255
vt 0.758118 0.684255
vt 0.758118 0.684255
vt 0.758118 0.684255
vt 0.758118 0.684255
vt 0.810697 0.153680
vt 0.810697 0.153680
vt 0.810697 0.153680
vt 0.810697 0.153680
vt 0.810697 0.153680
vt 0.810697 0.153680
vt 1.612284 2.221338
vt 3.643495 1.745572
vt 3.176467 1.633682
vt 1.290035 1.405385
vt 3.728810 1.714909
vt 3.728810 1.714909
vt 3.728810 1.714909
vt 3.728810 1.714909
vt 3.728810 1.714909
vt 3.728810 1.714909
vt 3.728810 1.714909
vt 3.728810 1.714909
vt 3.728810 1.714909
vt 3.728810 1.714909
vt 3.728810 1.714909
vt 3.728810 1.714909
vt 3.500333 1.635182
vt 3.500333 1.635182
vt 3.500333 1.635182
vt 3.500333 1.635182
vt 3.500333 1.635182
vt 3.500333 1.635182
vt 3.500333 1.635182
vt 3.500333 1.635182
vt 3.500333 1.635182
vt 3.500333 1.635182
vt 3.500333 1.635182
vt 3.500333 1.635182
vt 3.482342 1.627685
vt 3.482342 1.627685
vt 3.482342 1.627685
vt 3.482342 1.627685
vt 3.482342 1.627685
vt 3.482342 1.627685
vt 3.482342 1.627685
vt 3.482342 1.627685
vt 3.482342 1.627685
vt 3.482342 1.627685
vt 3.482342 1.627685
vt 3.482342 1.627685
vt 0.719462 0.756039
vt 0.719462 0.756039
vt 0.762136 0.250057
vt 0.762136 0.250057
vt 0.328122 0.240496
vt 0.328122 0.240496
vt 0.245088 0.754912
vt 0.245088 0.754912
vt 0.719462 0.756039
vt 0.719462 0.756039
vt 0.762136 0.250057
vt 0.762136 0.250057
vt 0.328122 0.240496
vt 0.328122 0.240496
vt 0.245088 0.754912
vt 0.245088 0.754912
vt 0.502518 0.755062
vt 0.502518 0.755062
vt 0.502518 0.755062
vt 0.502518 0.755062
vt 0.502518 0.755062
vt 0.502518 0.755062
vt 0.502518 0.755062
vt 0.502518 0.755062
vt 0.502518 0.755062
vt 0.502518 0.755062
vt 0.502518 0.755062
vt 0.716093 0.280493
vt 0.716093 0.280493
vt 0.716093 0.280493
vt 0.716093 0.280493
vt 0.716093 0.280493
vt 0.716093 0.280493
vt 0.716093 0.280493
vt 0.716093 0.280493
vt 0.716093 0.280493
vt 0.716093 0.280493
vt 0.716093 0.280493
vt 0.716093 0.280493
vt 0.716093 0.280493
vt 0.716093 0.280493
vt 0.716093 0.280493
vt 0.716093 0.280493
vt 0.716093 0.280493
vt 0.716093 0.280493
vt 0.716093 0.280493
vt 0.716093 0.280493
vt 0.716093 0.280493
vt 0.716093 0.280493
vt 0.716093 0.280493
vt 0.716093 0.280493
vt 0.716093 0.280493
vt 0.716093 0.280493
vt 0.716093 0.280493
vt 0.716093 0.280493
vt 0.716093 0.280493
vt 0.716093 0.280493
vt 0.716093 0.280493
vt 0.716093 0.280493
vt 0.716093 0.280493
vt 0.716093 0.280493
vt 0.716093 0.280493
vt 0.716093 0.280493
vn 1.000000 0.000000 0.000000
vn 0.707107 0.707107 0.000000
vn -0.000000 1.000000 0.000000
vn -0.707107 0.707107 0.000000
vn -1.000000 -0.000000 0.000000
vn -0.707107 -0.707107 0.000000
vn -0.000000 -1.000000 0.000000
vn 0.707107 -0.707107 0.000000
vn 1.000000 -0.000000 0.000000
vn 0.707107 0.707107 0.000000
vn 0.000000 1.000000 0.000000
vn -0.707107 0.707107 0.000000
vn -1.000000 0.000000 0.000000
vn -0.707107 -0.707107 0.000000
vn -0.000001 -1.000000 0.000000
vn 0.707106 -0.707107 0.000000
vn 0.000000 0.000000 -1.000000
vn 0.820061 -0.000001 -0.572276
vn 0.410030 0.710194 -0.572277
vn -0.410032 0.710194 -0.572275
vn -0.820062 -0.000000 -0.572275
vn -0.410032 -0.710194 -0.572275
vn 0.410030 -0.710194 -0.572276
vn 0.927267 -0.000001 0.374400
vn 0.463630 0.803037 0.374405
vn -0.463632 0.803029 0.374419
vn -0.927256 -0.000000 0.374427
vn -0.463632 -0.803028 0.374421
vn 0.463630 -0.803036 0.374407
vn 0.881195 0.000001 0.472753
vn 0.440601 0.763128 0.472763
vn -0.440582 0.763126 0.472785
vn -0.881172 0.000001 0.472797
vn -0.440582 -0.763125 0.472787
vn 0.440601 -0.763127 0.472766
vn 0.856963 0.000001 0.515379
vn 0.428481 0.742150 0.515380
vn -0.428479 0.742150 0.515383
vn -0.856959 0.000000 0.515384
vn -0.428479 -0.742150 0.515383
vn 0.428481 -0.742150 0.515381
vn -0.000000 0.000000 1.000000
vn -0.607647 -0.577708 -0.544994
vn 0.545331 -0.576994 -0.608023
vn -0.607647 0.577708 -0.544994
vn 0.545331 0.576994 -0.608023
vn -0.545331 -0.576994 0.608023
vn 0.607647 -0.577708 0.544994
vn -0.545331 0.576994 0.608023
vn 0.607647 0.577708 0.544994
vn -0.577350 -0.577350 -0.577350
vn 0.577350 -0.577350 -0.577350
vn -0.577350 0.577350 -0.577350
vn 0.577350 0.577350 -0.577350
vn -0.577350 -0.577350 0.577350
vn 0.577350 -0.577350 0.577350
vn -0.577350 0.577350 0.577350
vn 0.577350 0.577350 0.577350
vn -0.000014 -0.543020 -0.839720
vn 0.507427 -0.743057 -0.436330
vn 0.000000 0.597272 -0.802039
vn 0.507863 0.743104 -0.435742
vn -0.000002 -0.943173 0.332302
vn -0.569788 -0.666259 0.481083
vn -0.000006 0.899832 0.436237
vn -0.571062 0.666541 0.479178
vn -0.507427 -0.743058 -0.436329
vn -0.507988 0.743076 -0.435645
vn 0.569679 -0.666223 0.481262
vn 0.571040 0.666544 0.479200
vn -0.037909 -0.543789 -0.838365
vn 0.496891 -0.734368 -0.462389
vn -0.038225 0.594429 -0.803239
vn 0.497075 0.734393 -0.462151
vn 0.012287 -0.940064 0.340777
vn -0.532600 -0.680529 0.503207
vn 0.025096 0.900921 0.433258
vn -0.533090 0.680607 0.502582
vn -0.521699 -0.752175 -0.402570
vn -0.521956 0.752192 -0.402206
vn 0.598260 -0.654319 0.462549
vn 0.598859 0.654435 0.461608
vn -0.178171 -0.806294 -0.564043
vn -0.786649 0.122840 -0.605057
vn 0.826076 -0.088312 -0.556596
vn 0.032328 0.808019 -0.588270
vn 0.183063 -0.982415 0.036713
vn -0.999562 -0.024736 -0.016245
vn 0.997461 0.070154 0.012266
vn 0.007670 0.999125 -0.041120
vn 0.000000 0.000000 -1.000000
vn 0.781827 -0.000000 -0.623495
vn 0.544905 0.544905 -0.637305
vn -0.000000 0.781827 -0.623495
vn -0.544904 0.544905 -0.637305
vn -0.781827 0.000000 -0.623495
vn -0.544905 -0.544904 -0.637305
vn -0.000000 -0.781827 -0.623495
vn 0.544904 -0.544905 -0.637305
vn 1.000000 -0.000000 0.000000
vn 0.707107 0.707107 0.000000
vn 0.000000 1.000000 0.000000
vn -0.707107 0.707107 0.000000
vn -1.000000 0.000000 0.000000
vn -0.707107 -0.707106 0.000000
vn -0.000001 -1.000000 0.000000
vn 0.707107 -0.707107 0.000000
vn 0.512562 0.716296 -0.473497
vn -0.519798 0.698977 0.491164
vn -0.506450 -0.716674 0.479465
vn 0.524088 -0.700202 -0.484819
vn 0.564263 0.701211 0.435787
vn -0.555780 0.714204 -0.425466
vn -0.565044 -0.702203 -0.433170
vn 0.553310 -0.714512 0.428161
vn -0.547464 0.698444 0.460933
vn -0.531229 -0.718619 0.448757
vn 0.543816 -0.700140 -0.462676
vn 0.530742 0.717907 -0.450469
vn 0.546667 0.699459 0.460339
vn -0.531570 0.716697 -0.451419
vn -0.543018 -0.700987 -0.462330
vn 0.532205 -0.717259 0.449774
vn 0.052109 -0.998007 0.035603
vn 0.999577 -0.006688 0.028288
vn 0.032572 0.998916 -0.033268
vn -0.999663 -0.005679 -0.025335
vn -0.225540 -0.799908 -0.556129
vn -0.820151 0.125934 -0.558116
vn 0.793315 -0.085833 -0.602730
vn -0.013326 0.811860 -0.583701
vn 0.100897 -0.994888 0.004296
vn 0.992704 0.051800 -0.108885
vn 0.064201 0.997692 -0.022112
vn -0.993074 0.044586 0.108706
vn 0.000000 0.000000 -1.000000
vn 0.822804 -0.000000 -0.568326
vn 0.411401 0.712569 -0.568326
vn -0.411402 0.712569 -0.568325
vn -0.822805 -0.000000 -0.568324
vn -0.411402 -0.712569 -0.568325
vn 0.411401 -0.712569 -0.568326
vn 0.925279 -0.000000 0.379288
vn 0.462636 0.801314 0.379294
vn -0.462638 0.801306 0.379308
vn -0.925267 -0.000000 0.379316
vn -0.462637 -0.801306 0.379310
vn 0.462635 -0.801313 0.379296
vn 0.881190 0.000001 0.472762
vn 0.440598 0.763125 0.472772
vn -0.440580 0.763122 0.472794
vn -0.881167 0.000001 0.472806
vn -0.440580 -0.763121 0.472796
vn 0.440598 -0.763123 0.472775
vn 0.856964 0.000000 0.515377
vn 0.428483 0.742151 0.515378
vn -0.428480 0.742151 0.515381
vn -0.856960 -0.000000 0.515382
vn -0.428480 -0.742151 0.515381
vn 0.428483 -0.742151 0.515378
vn 0.000000 0.000000 1.000000
vn -0.178173 -0.806294 -0.564043
vn -0.786648 0.122842 -0.605057
vn 0.826076 -0.088314 -0.556596
vn 0.032329 0.808019 -0.588269
vn 0.180764 -0.982975 0.032937
vn -0.999508 -0.028517 -0.013049
vn 0.997497 0.070028 0.009779
vn 0.009933 0.999287 -0.036435
vn 0.051566 -0.998111 0.033406
vn 0.999658 -0.005633 0.025549
vn 0.031150 0.999031 -0.031079
vn -0.999726 -0.004551 -0.022940
vn -0.130773 0.000000 -0.991412
vn 0.749052 -0.000001 -0.662511
vn 0.342114 0.708965 -0.616706
vn -0.471165 0.708390 -0.525535
vn -0.877137 -0.000005 -0.480240
vn -0.471169 -0.708389 -0.525532
vn 0.342115 -0.708965 -0.616706
vn 0.942903 -0.000002 0.333068
vn 0.495841 0.779741 0.382291
vn -0.399492 0.780274 0.481226
vn -0.847446 -0.000005 0.530882
vn -0.399496 -0.780271 0.481227
vn 0.495842 -0.779739 0.382292
vn 0.890474 -0.000001 0.455035
vn 0.482357 0.713009 0.508871
vn -0.333873 0.713018 0.616550
vn -0.742012 -0.000003 0.670387
vn -0.333877 -0.713016 0.616550
vn 0.482359 -0.713007 0.508872
vn 0.917002 -0.000001 0.398883
vn 0.492201 0.742149 0.454920
vn -0.357403 0.742153 0.566985
vn -0.782205 0.000001 0.623021
vn -0.357402 -0.742153 0.566986
vn 0.492202 -0.742149 0.454920
vn 0.130787 0.000000 0.991410
vn -0.250391 -0.806297 -0.535900
vn -0.859034 0.122824 -0.496965
vn 0.746204 -0.088301 -0.659835
vn -0.044898 0.808012 -0.587452
vn 0.205237 -0.978701 -0.004616
vn -0.984962 -0.028330 0.170431
vn 0.982548 0.068898 -0.172779
vn 0.027586 0.998739 -0.041936
vn 0.045486 -0.998592 0.027285
vn 0.991283 -0.005135 -0.131646
vn 0.013155 0.999290 -0.035316
vn -0.990945 -0.005287 0.134161
vn 0.707107 0.707107 0.000000
vn 0.379765 0.925083 0.000000
vn -0.000000 1.000000 0.000000
vn -0.379766 0.925083 0.000000
vn -0.707107 0.707107 0.000000
vn 0.707107 0.707107 0.000000
vn 0.552831 0.833293 0.000000
vn 0.000000 1.000000 0.000000
vn -0.552831 0.833293 0.000000
vn -0.707107 0.707107 0.000000
vn 0.707106 0.707107 0.000000
vn 0.500000 0.866025 0.000000
vn 0.000000 1.000000 0.000000
vn -0.500000 0.866025 0.000000
vn -0.707107 0.707107 0.000000
vn 0.707107 0.707107 0.000000
vn 0.500000 0.866025 0.000000
vn 0.000000 1.000000 0.000000
vn -0.500000 0.866025 0.000000
vn -0.707107 0.707107 0.000000
vn 0.707107 0.707107 0.000000
vn 0.500000 0.866025 0.000000
vn -0.000000 1.000000 0.000000
vn -0.500000 0.866025 0.000000
vn -0.707107 0.707107 0.000000
vn 0.707107 0.707107 0.000000
vn 0.500000 0.866025 0.000000
vn 0.000000 1.000000 0.000000
vn -0.500000 0.866025 0.000000
vn -0.707107 0.707107 0.000000
vn 0.707106 0.707107 0.000000
vn 0.379766 0.925082 0.000000
vn 0.000000 1.000000 0.000000
vn -0.379766 0.925083 0.000000
vn -0.707107 0.707107 0.000000
vn 0.707107 0.707107 0.000000
vn 0.552832 0.833293 0.000000
vn -0.000000 1.000000 0.000000
vn -0.552832 0.833293 0.000000
vn -0.707107 0.707107 0.000000
vn 1.000000 -0.000000 0.000000
vn 0.707107 0.707107 0.000000
vn -0.000000 1.000000 0.000000
vn -0.707107 0.707107 0.000000
vn -1.000000 0.000000 0.000000
vn -0.707107 -0.707106 0.000000
vn -0.000001 -1.000000 0.000000
vn 0.707107 -0.707107 0.000000
vn 1.000000 -0.000000 0.000000
vn 0.707107 0.707107 0.000000
vn 0.000000 1.000000 0.000000
vn -0.707107 0.707107 0.000000
vn -1.000000 0.000000 0.000000
vn -0.707107 -0.707106 0.000000
vn -0.000001 -1.000000 0.000000
vn 0.707107 -0.707107 0.000000
vn 1.000000 -0.000000 0.000000
vn 0.707107 0.707107 0.000000
vn 0.000000 1.000000 0.000000
vn -0.707107 0.707107 0.000000
vn -1.000000 0.000000 0.000000
vn -0.707107 -0.707106 0.000000
vn -0.000001 -1.000000 0.000000
vn 0.707107 -0.707107 0.000000
vn -0.532215 0.679969 0.504369
vn 0.498933 0.733559 -0.461471
vn 0.537024 -0.680922 -0.497946
vn -0.492414 -0.733890 0.467904
vn 0.580055 0.679245 0.449625
vn -0.538602 0.734436 -0.412930
vn -0.581372 -0.680141 -0.446558
vn 0.535737 -0.734708 0.416162
g fff07975_00205_0055db27_e0
f 8/13/8 1/14/1 9/27/9
f 8/13/8 9/27/9 16/26/16
f 3/5/3 12/19/12 11/18/11
f 1/2/1 2/3/2 10/16/10
f 7/11/7 8/12/8 16/25/16
f 7/11/7 16/25/16 15/24/15
f 6/10/6 7/11/7 15/24/15
f 6/10/6 15/24/15 14/23/14
f 3/5/3 4/6/4 12/19/12
f 1/2/1 10/16/10 9/15/9
f 5/8/5 6/9/6 14/22/14
f 5/8/5 14/22/14 13/21/13
f 4/7/4 5/8/5 13/21/13
f 4/7/4 13/21/13 12/20/12
f 2/4/2 11/18/11 10/17/10
f 2/4/2 3/5/3 11/18/11
g fff07975_00205_0055db27_e1
f 43/38/43 45/38/45 46/38/46
f 46/38/46 44/38/44 43/38/43
f 47/45/47 48/45/48 50/45/50
f 50/45/50 49/45/49 47/45/47
f 43/192/43 44/193/44 48/194/48
f 48/195/48 47/196/47 43/197/43
f 44/34/44 46/34/46 50/34/50
f 50/34/50 48/34/48 44/34/44
f 46/40/46 45/40/45 49/40/49
f 49/40/49 50/40/50 46/40/46
f 45/34/45 43/34/43 47/34/47
f 47/34/47 49/34/49 45/34/45
f 51/74/51 53/74/53 54/74/54
f 54/67/54 52/67/52 51/67/51
f 55/45/55 56/45/56 58/45/58
f 58/45/58 57/45/57 55/45/55
f 51/198/51 52/199/52 56/200/56
f 56/201/56 55/202/55 51/203/51
f 52/34/52 54/34/54 58/34/58
f 58/34/58 56/34/56 52/34/52
f 54/41/54 53/41/53 57/41/57
f 57/41/57 58/41/58 54/41/54
f 53/34/53 51/34/51 55/34/55
f 55/34/55 57/34/57 53/34/53
f 59/43/59 61/43/61 119/66/119
f 62/67/62 60/67/60 118/67/118
f 117/67/117 64/67/64 66/67/66
f 116/63/116 65/44/65 63/44/63
f 118/67/118 60/67/60 64/67/64
f 117/204/117 63/205/63 59/206/59
f 119/61/119 61/42/61 65/42/65
f 65/42/65 116/62/116 119/61/119
f 59/43/59 121/70/121 61/43/61
f 68/74/68 122/74/122 67/74/67
f 123/72/123 70/44/70 69/44/69
f 120/73/120 63/44/63 65/44/65
f 122/74/122 69/74/69 67/74/67
f 123/207/123 59/208/59 63/209/63
f 121/69/121 65/42/65 61/42/61
f 120/74/120 68/74/68 70/74/70
f 283/179/283 280/180/280 112/59/112
f 108/46/108 111/52/111 278/168/278
f 109/53/109 110/53/110 78/53/78
f 282/210/282 283/211/283 115/212/115
f 110/53/110 111/53/111 76/53/76
f 281/175/281 282/176/282 113/56/113
f 280/173/280 281/174/281 113/55/113
f 108/53/108 109/53/109 74/53/74
f 279/171/279 109/48/109 276/172/276
f 80/60/80 114/60/114 79/60/79
f 115/60/115 82/60/82 81/60/81
f 278/213/278 110/214/110 279/215/279
f 114/60/114 81/60/81 79/60/79
f 108/46/108 278/168/278 277/167/277
f 276/165/276 108/47/108 277/166/277
f 112/60/112 80/60/80 82/60/82
f 111/53/111 108/53/108 74/53/74
f 109/49/109 108/47/108 276/165/276
f 110/50/110 109/48/109 279/171/279
f 109/53/109 78/53/78 74/53/74
f 110/53/110 76/53/76 78/53/78
f 111/216/111 110/217/110 278/218/278
f 74/53/74 72/53/72 111/53/111
f 111/53/111 72/53/72 76/53/76
f 113/60/113 80/60/80 112/60/112
f 112/54/112 280/173/280 113/55/113
f 282/176/282 114/57/114 113/56/113
f 80/60/80 113/60/113 114/60/114
f 115/60/115 81/60/81 114/60/114
f 114/219/114 282/220/282 115/221/115
f 112/60/112 82/60/82 115/60/115
f 115/58/115 283/179/283 112/59/112
f 119/67/119 116/67/116 62/67/62
f 116/67/116 66/67/66 62/67/62
f 117/64/117 116/63/116 63/44/63
f 116/67/116 117/67/117 66/67/66
f 118/222/118 117/223/117 59/224/59
f 117/67/117 118/67/118 64/67/64
f 62/67/62 118/67/118 119/67/119
f 59/43/59 119/66/119 118/65/118
f 121/74/121 68/74/68 120/74/120
f 120/68/120 65/42/65 121/69/121
f 59/43/59 122/71/122 121/70/121
f 68/74/68 121/74/121 122/74/122
f 123/74/123 69/74/69 122/74/122
f 122/225/122 59/226/59 123/227/123
f 120/74/120 70/74/70 123/74/123
f 123/72/123 63/44/63 120/73/120
f 213/125/213 214/125/214 219/125/219
f 213/125/213 219/125/219 218/125/218
f 212/125/212 213/125/213 218/125/218
f 212/125/212 218/125/218 217/125/217
f 224/125/224 230/125/230 229/125/229
f 224/125/224 225/125/225 230/125/230
f 225/125/225 231/125/231 230/125/230
f 225/125/225 226/125/226 231/125/231
f 215/125/215 216/125/216 221/125/221
f 215/125/215 221/125/221 220/125/220
f 214/125/214 215/125/215 220/125/220
f 214/125/214 220/125/220 219/125/219
f 223/125/223 224/125/224 229/125/229
f 223/125/223 229/125/229 228/125/228
f 222/125/222 223/125/223 228/125/228
f 222/125/222 228/125/228 227/125/227
f 234/125/234 240/125/240 239/125/239
f 234/125/234 235/125/235 240/125/240
f 235/125/235 241/125/241 240/125/240
f 235/125/235 236/125/236 241/125/241
f 233/125/233 234/125/234 239/125/239
f 233/125/233 239/125/239 238/125/238
f 232/125/232 233/125/233 238/125/238
f 232/125/232 238/125/238 237/125/237
f 243/125/243 244/125/244 249/125/249
f 243/125/243 249/125/249 248/125/248
f 242/125/242 243/125/243 248/125/248
f 242/125/242 248/125/248 247/125/247
f 245/125/245 246/125/246 251/125/251
f 245/125/245 251/125/251 250/125/250
f 244/125/244 245/125/245 250/125/250
f 244/125/244 250/125/250 249/125/249
g fff07975_00205_0055db27_e2
f 83/75/83 127/82/127 84/75/84
f 88/83/88 124/83/124 87/83/87
f 125/83/125 90/83/90 89/83/89
f 126/79/126 85/36/85 86/36/86
f 124/83/124 89/83/89 87/83/87
f 125/77/125 83/75/83 85/75/85
f 127/81/127 86/35/86 84/35/84
f 126/83/126 88/83/88 90/83/90
f 85/33/85 83/33/83 86/33/86
f 84/33/84 86/33/86 83/33/83
f 17/28/17 19/28/19 18/28/18
f 17/28/17 20/28/20 19/28/19
f 17/28/17 21/28/21 20/28/20
f 17/28/17 22/28/22 21/28/21
f 17/28/17 23/28/23 22/28/22
f 17/28/17 18/28/18 23/28/23
f 41/32/41 36/32/36 42/32/42
f 40/32/40 41/32/41 42/32/42
f 39/32/39 40/32/40 42/32/42
f 38/32/38 39/32/39 42/32/42
f 37/32/37 38/32/38 42/32/42
f 36/32/36 37/32/37 42/32/42
f 18/84/18 25/85/25 24/86/24
f 18/87/18 19/88/19 25/89/25
f 19/90/19 26/91/26 25/92/25
f 19/93/19 20/94/20 26/95/26
f 20/96/20 27/97/27 26/98/26
f 20/99/20 21/100/21 27/101/27
f 21/102/21 28/103/28 27/104/27
f 21/105/21 22/106/22 28/107/28
f 22/108/22 29/109/29 28/110/28
f 22/111/22 23/112/23 29/113/29
f 23/114/23 24/115/24 29/116/29
f 23/117/23 18/118/18 24/29/24
f 24/30/24 31/30/31 30/30/30
f 24/30/24 25/30/25 31/30/31
f 25/30/25 32/30/32 31/30/31
f 25/30/25 26/30/26 32/30/32
f 26/30/26 33/30/33 32/30/32
f 26/30/26 27/30/27 33/30/33
f 27/30/27 34/30/34 33/30/33
f 27/30/27 28/30/28 34/30/34
f 28/30/28 35/30/35 34/30/34
f 28/30/28 29/30/29 35/30/35
f 29/30/29 30/30/30 35/30/35
f 29/30/29 24/30/24 30/30/30
f 30/31/30 37/31/37 36/31/36
f 30/31/30 31/31/31 37/31/37
f 31/31/31 38/31/38 37/31/37
f 31/31/31 32/31/32 38/31/38
f 32/31/32 39/31/39 38/31/38
f 32/31/32 33/31/33 39/31/39
f 33/31/33 40/31/40 39/31/39
f 33/31/33 34/31/34 40/31/40
f 34/31/34 41/31/41 40/31/40
f 34/31/34 35/31/35 41/31/41
f 35/31/35 36/31/36 41/31/41
f 35/31/35 30/31/30 36/31/36
f 125/83/125 89/83/89 124/83/124
f 124/76/124 83/75/83 125/77/125
f 126/83/126 90/83/90 125/83/125
f 125/78/125 85/36/85 126/79/126
f 127/83/127 88/83/88 126/83/126
f 126/80/126 86/35/86 127/81/127
f 83/75/83 124/76/124 127/82/127
f 88/83/88 127/83/127 124/83/124
f 128/75/128 135/82/135 129/75/129
f 134/79/134 130/36/130 131/36/131
f 133/77/133 128/75/128 130/75/130
f 135/81/135 131/35/131 129/35/129
f 132/76/132 128/75/128 133/77/133
f 133/78/133 130/36/130 134/79/134
f 134/80/134 131/35/131 135/81/135
f 128/75/128 132/76/132 135/82/135
f 130/119/130 128/120/128 131/121/131
f 129/122/129 131/123/131 128/124/128
f 162/75/162 173/82/173 163/75/163
f 167/83/167 170/83/170 166/83/166
f 171/83/171 169/83/169 168/83/168
f 172/79/172 164/36/164 165/36/165
f 170/83/170 168/83/168 166/83/166
f 171/77/171 162/75/162 164/75/164
f 173/81/173 165/35/165 163/35/163
f 172/83/172 167/83/167 169/83/169
f 164/33/164 162/33/162 165/33/165
f 163/33/163 165/33/165 162/33/162
f 136/28/136 138/28/138 137/28/137
f 136/28/136 139/28/139 138/28/138
f 136/28/136 140/28/140 139/28/139
f 136/28/136 141/28/141 140/28/140
f 136/28/136 142/28/142 141/28/141
f 136/28/136 137/28/137 142/28/142
f 160/32/160 155/32/155 161/32/161
f 159/32/159 160/32/160 161/32/161
f 158/32/158 159/32/159 161/32/161
f 157/32/157 158/32/158 161/32/161
f 156/32/156 157/32/157 161/32/161
f 155/32/155 156/32/156 161/32/161
f 137/84/137 144/85/144 143/86/143
f 137/87/137 138/88/138 144/89/144
f 138/90/138 145/91/145 144/92/144
f 138/93/138 139/94/139 145/95/145
f 139/96/139 146/97/146 145/98/145
f 139/99/139 140/100/140 146/101/146
f 140/102/140 147/103/147 146/104/146
f 140/105/140 141/106/141 147/107/147
f 141/108/141 148/109/148 147/110/147
f 141/111/141 142/112/142 148/113/148
f 142/114/142 143/115/143 148/116/148
f 142/117/142 137/118/137 143/29/143
f 143/30/143 150/30/150 149/30/149
f 143/30/143 144/30/144 150/30/150
f 144/30/144 151/30/151 150/30/150
f 144/30/144 145/30/145 151/30/151
f 145/30/145 152/30/152 151/30/151
f 145/30/145 146/30/146 152/30/152
f 146/30/146 153/30/153 152/30/152
f 146/30/146 147/30/147 153/30/153
f 147/30/147 154/30/154 153/30/153
f 147/30/147 148/30/148 154/30/154
f 148/30/148 149/30/149 154/30/154
f 148/30/148 143/30/143 149/30/149
f 149/31/149 156/31/156 155/31/155
f 149/31/149 150/31/150 156/31/156
f 150/31/150 157/31/157 156/31/156
f 150/31/150 151/31/151 157/31/157
f 151/31/151 158/31/158 157/31/157
f 151/31/151 152/31/152 158/31/158
f 152/31/152 159/31/159 158/31/158
f 152/31/152 153/31/153 159/31/159
f 153/31/153 160/31/160 159/31/159
f 153/31/153 154/31/154 160/31/160
f 154/31/154 155/31/155 160/31/160
f 154/31/154 149/31/149 155/31/155
f 171/83/171 168/83/168 170/83/170
f 170/76/170 162/75/162 171/77/171
f 172/83/172 169/83/169 171/83/171
f 171/78/171 164/36/164 172/79/172
f 173/83/173 167/83/167 172/83/172
f 172/80/172 165/35/165 173/81/173
f 162/75/162 170/76/170 173/82/173
f 167/83/167 173/83/173 170/83/170
f 200/75/200 211/82/211 201/75/201
f 205/83/205 208/83/208 204/83/204
f 209/83/209 207/83/207 206/83/206
f 210/79/210 202/36/202 203/36/203
f 208/83/208 206/83/206 204/83/204
f 209/77/209 200/75/200 202/75/202
f 211/81/211 203/35/203 201/35/201
f 210/83/210 205/83/205 207/83/207
f 202/33/202 200/33/200 203/33/203
f 201/33/201 203/33/203 200/33/200
f 174/28/174 176/28/176 175/28/175
f 174/28/174 177/28/177 176/28/176
f 174/28/174 178/28/178 177/28/177
f 174/28/174 179/28/179 178/28/178
f 174/28/174 180/28/180 179/28/179
f 174/28/174 175/28/175 180/28/180
f 198/32/198 193/32/193 199/32/199
f 197/32/197 198/32/198 199/32/199
f 196/32/196 197/32/197 199/32/199
f 195/32/195 196/32/196 199/32/199
f 194/32/194 195/32/195 199/32/199
f 193/32/193 194/32/194 199/32/199
f 175/84/175 182/85/182 181/86/181
f 175/87/175 176/88/176 182/89/182
f 176/90/176 183/91/183 182/92/182
f 176/93/176 177/94/177 183/95/183
f 177/96/177 184/97/184 183/98/183
f 177/99/177 178/100/178 184/101/184
f 178/102/178 185/103/185 184/104/184
f 178/105/178 179/106/179 185/107/185
f 179/108/179 186/109/186 185/110/185
f 179/111/179 180/112/180 186/113/186
f 180/114/180 181/115/181 186/116/186
f 180/117/180 175/118/175 181/29/181
f 181/30/181 188/30/188 187/30/187
f 181/30/181 182/30/182 188/30/188
f 182/30/182 189/30/189 188/30/188
f 182/30/182 183/30/183 189/30/189
f 183/30/183 190/30/190 189/30/189
f 183/30/183 184/30/184 190/30/190
f 184/30/184 191/30/191 190/30/190
f 184/30/184 185/30/185 191/30/191
f 185/30/185 192/30/192 191/30/191
f 185/30/185 186/30/186 192/30/192
f 186/30/186 187/30/187 192/30/192
f 186/30/186 181/30/181 187/30/187
f 187/31/187 194/31/194 193/31/193
f 187/31/187 188/31/188 194/31/194
f 188/31/188 195/31/195 194/31/194
f 188/31/188 189/31/189 195/31/195
f 189/31/189 196/31/196 195/31/195
f 189/31/189 190/31/190 196/31/196
f 190/31/190 197/31/197 196/31/196
f 190/31/190 191/31/191 197/31/197
f 191/31/191 198/31/198 197/31/197
f 191/31/191 192/31/192 198/31/198
f 192/31/192 193/31/193 198/31/198
f 192/31/192 187/31/187 193/31/193
f 209/83/209 206/83/206 208/83/208
f 208/76/208 200/75/200 209/77/209
f 210/83/210 207/83/207 209/83/209
f 209/78/209 202/36/202 210/79/210
f 211/83/211 205/83/205 210/83/210
f 210/80/210 203/35/203 211/81/211
f 200/75/200 208/76/208 211/82/211
f 205/83/205 211/83/211 208/83/208
f 91/1/91 93/1/93 92/1/92
f 263/147/263 264/148/264 272/149/272
f 91/1/91 94/1/94 93/1/93
f 91/1/91 95/1/95 94/1/94
f 264/159/264 265/160/265 273/161/273
f 91/1/91 96/1/96 95/1/95
f 91/1/91 97/1/97 96/1/96
f 276/187/276 277/188/277 77/189/77
f 91/1/91 98/1/98 97/1/97
f 91/1/91 99/1/99 98/1/98
f 99/128/99 92/128/92 100/128/100
f 99/128/99 100/128/100 107/128/107
f 283/178/283 71/51/71 75/51/75
f 91/1/91 92/1/92 99/1/99
f 71/38/71 281/175/281 73/38/73
f 276/172/276 77/39/77 75/39/75
f 98/128/98 99/128/99 107/128/107
f 98/128/98 107/128/107 106/128/106
f 97/128/97 98/128/98 106/128/106
f 97/128/97 106/128/106 105/128/105
f 281/184/281 77/185/77 73/186/73
f 278/169/278 279/170/279 71/51/71
f 96/128/96 97/128/97 105/128/105
f 96/128/96 105/128/105 104/128/104
f 95/128/95 96/128/96 104/128/104
f 95/128/95 104/128/104 103/128/103
f 92/128/92 101/128/101 100/128/100
f 92/128/92 93/128/93 101/128/101
f 274/127/274 273/127/273 265/127/265
f 275/127/275 274/127/274 266/127/266
f 93/128/93 102/128/102 101/128/101
f 93/128/93 94/128/94 102/128/102
f 94/128/94 103/128/103 102/128/102
f 94/128/94 95/128/95 103/128/103
f 71/38/71 282/176/282 281/175/281
f 272/150/272 271/151/271 263/152/263
f 100/153/100 259/154/259 107/155/107
f 259/156/259 100/157/100 252/158/252
f 100/141/100 101/142/101 253/143/253
f 253/144/253 252/145/252 100/146/100
f 271/138/271 270/139/270 262/140/262
f 262/135/262 263/136/263 271/137/271
f 101/129/101 102/130/102 254/131/254
f 254/132/254 253/133/253 101/134/101
f 102/135/102 103/136/103 255/137/255
f 255/138/255 254/139/254 102/140/102
f 273/162/273 272/163/272 264/164/264
f 265/127/265 266/127/266 274/127/274
f 103/147/103 104/148/104 256/149/256
f 256/150/256 255/151/255 103/152/103
f 104/159/104 105/160/105 257/161/257
f 257/162/257 256/163/256 104/164/104
f 71/38/71 277/167/277 278/168/278
f 280/190/280 77/37/77 281/191/281
f 105/127/105 106/127/106 258/127/258
f 258/127/258 257/127/257 105/127/105
f 106/127/106 107/127/107 259/127/259
f 259/127/259 258/127/258 106/127/106
f 71/38/71 73/38/73 277/167/277
f 277/181/277 73/182/73 77/183/77
f 252/126/252 267/126/267 259/126/259
f 267/126/267 252/126/252 260/126/260
f 252/126/252 253/126/253 261/126/261
f 261/126/261 260/126/260 252/126/252
f 270/132/270 269/133/269 261/134/261
f 261/129/261 262/130/262 270/131/270
f 253/126/253 254/126/254 262/126/262
f 262/126/262 261/126/261 253/126/253
f 254/126/254 255/126/255 263/126/263
f 263/126/263 262/126/262 254/126/254
f 283/179/283 75/39/75 280/180/280
f 266/127/266 267/127/267 275/127/275
f 255/126/255 256/126/256 264/126/264
f 264/126/264 263/126/263 255/126/255
f 256/126/256 257/126/257 265/126/265
f 265/126/265 264/126/264 256/126/256
f 279/171/279 276/172/276 75/39/75
f 282/177/282 71/51/71 283/178/283
f 257/126/257 258/126/258 266/126/266
f 266/126/266 265/126/265 257/126/257
f 258/126/258 259/126/259 267/126/267
f 267/126/267 266/126/266 258/126/258
f 279/170/279 75/51/75 71/51/71
f 280/180/280 75/39/75 77/39/77
f 260/153/260 275/154/275 267/155/267
f 275/156/275 260/157/260 268/158/268
f 260/141/260 261/142/261 269/143/269
f 269/144/269 268/145/268 260/146/260
