# fff02c13_00295_0089c359
o fff02c13_00295_0089c359
v 0.978204 -1.128510 -4.252157
v 0.978204 -0.858170 -4.252157
v 0.978204 -1.128510 -4.252157
v 0.978204 -1.128510 -3.502157
v 1.217190 -1.128510 -3.502417
v 1.217190 -1.128510 -4.268893
v 0.978204 -0.858170 -3.502157
v 0.978204 -0.858170 -3.502157
v 0.978204 -1.128510 -3.502157
v 1.217190 -1.128510 -3.502417
v 0.978204 -1.128510 -3.502157
v 1.217190 -0.858170 -3.502601
v 1.217190 -1.128510 -4.268893
v 1.217190 -0.858170 -4.269076
v 1.040006 -1.040996 -3.516507
v 1.040006 -0.859343 -3.516507
v 1.040006 -1.040996 -3.516507
v 1.040006 -1.040996 4.269076
v 1.155388 -1.040996 4.268880
v 1.155388 -1.040996 -3.529181
v 1.040006 -0.859343 4.269076
v 1.040006 -1.040996 4.269076
v 1.155388 -1.040996 4.268880
v 1.155388 -0.859343 4.268741
v 1.155388 -1.040996 -3.529181
v 1.155388 -0.859343 -3.529320
v 1.217190 -1.128510 -3.502417
v 1.217190 -0.858170 -3.502601
v 1.013585 -1.079303 -2.888874
v 1.013585 -0.858170 -2.888874
v 1.013585 -1.079303 -2.888874
v 1.013585 -1.079303 -2.515635
v 1.181808 -1.079303 -2.515763
v 1.181808 -1.079303 -2.888874
v 1.013585 -0.858170 -2.515635
v 1.013585 -0.858170 -2.515635
v 1.013585 -1.079303 -2.515635
v 1.181808 -1.079303 -2.515763
v 1.013585 -1.079303 -2.515635
v 1.181808 -0.858170 -2.515853
v 1.181808 -1.079303 -2.888874
v 1.181808 -0.858170 -2.888874
v 1.181808 -1.079303 -2.515763
v 1.181808 -0.858170 -2.515853
v -1.221027 -1.005028 -2.767787
v -1.221027 -1.005028 -2.587258
v 1.019568 -1.005028 -2.587320
v 1.019568 -1.005028 -2.771815
v -1.221027 -0.858170 -2.587258
v 1.019568 -1.005028 -2.587320
v -1.221027 -1.005028 -2.587258
v 1.019568 -0.858170 -2.587364
v -1.221027 -0.862251 -2.767787
v 1.019568 -0.862251 -2.771815
v -1.221027 -1.005028 -2.767787
v 1.019568 -1.005028 -2.771815
v 1.013585 -0.858173 -1.234920
v 1.181808 -0.858173 -1.234920
v 1.013585 -1.079303 -1.234920
v 1.181808 -1.079303 -1.234920
v 0.600029 -1.073414 -2.356491
v 0.360315 -1.073839 -2.358714
v 0.593113 1.052800 -2.397343
v 0.357193 1.052800 -2.399544
v 0.600443 -1.073429 -2.401020
v 0.360498 -1.073854 -2.403245
v 0.592699 1.052800 -2.352814
v 0.357233 1.052800 -2.355011
v 0.310730 -1.073927 -2.359173
v 0.071014 -1.074352 -2.361396
v 0.307381 1.052127 -2.404402
v 0.067896 1.051702 -2.406623
v 0.311142 -1.073941 -2.403703
v 0.071198 -1.074367 -2.405928
v 0.306967 1.052141 -2.359873
v 0.067944 1.051717 -2.362090
v 0.017445 -1.074448 -2.361893
v -0.222271 -1.074872 -2.364116
v 0.014093 1.051607 -2.407122
v -0.225389 1.051182 -2.409343
v 0.017857 -1.074461 -2.406422
v -0.222088 -1.074886 -2.408648
v 0.013681 1.051620 -2.362592
v -0.225342 1.051197 -2.364809
v -0.279064 -1.074973 -2.364643
v -0.518778 -1.075397 -2.366866
v -0.282413 1.051081 -2.409871
v -0.521898 1.050656 -2.412092
v -0.278650 -1.074987 -2.409172
v -0.518595 -1.075412 -2.411397
v -0.282825 1.051095 -2.365342
v -0.521851 1.050671 -2.367559
v -0.572350 -1.075493 -2.367362
v -0.812063 -1.075918 -2.369586
v -0.575699 1.050561 -2.412591
v -0.815184 1.050137 -2.414812
v -0.571938 -1.075507 -2.411892
v -0.811882 -1.075932 -2.414117
v -0.576113 1.050575 -2.368062
v -0.815136 1.050151 -2.370279
v 0.409977 -0.957597 -2.454135
v 0.561823 -0.957733 -2.452727
v 0.413143 1.050488 -2.411813
v 0.564846 1.050219 -2.410407
v 0.409382 -1.059849 -2.398062
v 0.561375 -1.060118 -2.396652
v 0.413322 0.932384 -2.453514
v 0.564730 0.931850 -2.452110
v 0.411196 -0.957114 -2.585486
v 0.561729 -0.957380 -2.584090
v 0.410986 -1.075526 -2.585526
v 0.561520 -1.075793 -2.584129
v 0.307199 1.052142 -2.359870
v 0.067715 1.051717 -2.362091
v 0.310961 -1.073925 -2.359171
v 0.071016 -1.074351 -2.361396
v 0.013912 1.051622 -2.362590
v -0.225571 1.051198 -2.364811
v 0.017675 -1.074446 -2.361891
v -0.222269 -1.074871 -2.364116
v -0.282595 1.051096 -2.365340
v -0.522079 1.050672 -2.367561
v -0.278831 -1.074972 -2.364640
v -0.518776 -1.075397 -2.366865
v -0.575880 1.050577 -2.368059
v -0.815365 1.050152 -2.370281
v -0.572119 -1.075491 -2.367360
v -0.812063 -1.075917 -2.369585
v 0.411194 -0.957114 -2.585486
v 0.410986 -1.075526 -2.585526
v 0.561729 -0.957380 -2.584090
v 0.561520 -1.075793 -2.584129
v -0.177454 -0.957597 -2.454135
v -0.025606 -0.957733 -2.452727
v -0.174286 1.050488 -2.411813
v -0.022585 1.050219 -2.410407
v -0.178049 -1.075581 -2.412513
v -0.026056 -1.075850 -2.411103
v -0.174109 0.932384 -2.453514
v -0.022701 0.931850 -2.452110
v -0.176235 -0.957114 -2.585486
v -0.025702 -0.957380 -2.584090
v -0.176445 -1.075526 -2.585526
v -0.025909 -1.075793 -2.584129
v -0.176235 -0.957114 -2.585486
v -0.176445 -1.075526 -2.585526
v -0.025702 -0.957380 -2.584090
v -0.025909 -1.075793 -2.584129
v -0.767433 -0.957597 -2.454135
v -0.615585 -0.957733 -2.452727
v -0.764265 1.050488 -2.411813
v -0.612564 1.050219 -2.410407
v -0.768028 -1.075581 -2.412513
v -0.616035 -1.075850 -2.411103
v -0.764088 0.932384 -2.453514
v -0.612680 0.931850 -2.452110
v -0.766214 -0.957114 -2.585486
v -0.615681 -0.957380 -2.584090
v -0.766424 -1.075526 -2.585526
v -0.615889 -1.075793 -2.584129
v 1.013585 -1.079303 -1.234920
v 1.013585 -0.858170 -1.234920
v 1.013585 -1.079303 -1.234920
v 1.013585 -1.079303 -0.861686
v 1.181808 -1.079303 -0.861814
v 1.181808 -1.079303 -1.234920
v 1.013585 -0.858170 -0.861686
v 1.013585 -1.079303 -0.861686
v 1.181808 -1.079303 -1.234920
v 1.181808 -0.858170 -1.234920
v 1.181808 -1.079303 -0.861814
v 1.181808 -0.858170 -0.861904
v -1.221027 -1.005028 -1.113838
v -1.221027 -1.005028 -0.933309
v 1.019568 -1.005028 -0.933372
v 1.019568 -1.005028 -1.117867
v -1.221027 -0.858170 -0.933309
v 1.019568 -1.005028 -0.933372
v -1.221027 -1.005028 -0.933309
v 1.019568 -0.858170 -0.933416
v -1.221027 -0.862251 -1.113838
v 1.019568 -0.862251 -1.117867
v -1.221027 -1.005028 -1.113838
v 1.019568 -1.005028 -1.117867
v 0.600029 -1.073414 -0.702542
v 0.360315 -1.073839 -0.704765
v 0.593113 1.052800 -0.743394
v 0.357193 1.052800 -0.745595
v 0.600443 -1.073429 -0.747071
v 0.360498 -1.073854 -0.749296
v 0.592699 1.052800 -0.698866
v 0.357233 1.052800 -0.701062
v 0.310730 -1.073927 -0.705225
v 0.071014 -1.074352 -0.707448
v 0.307381 1.052127 -0.750453
v 0.067896 1.051702 -0.752674
v 0.311142 -1.073941 -0.749754
v 0.071198 -1.074367 -0.751979
v 0.306967 1.052141 -0.705924
v 0.067944 1.051717 -0.708141
v 0.017445 -1.074448 -0.707945
v -0.222271 -1.074872 -0.710168
v 0.014093 1.051607 -0.753173
v -0.225389 1.051182 -0.755394
v 0.017857 -1.074461 -0.752474
v -0.222088 -1.074886 -0.754699
v 0.013681 1.051620 -0.708644
v -0.225342 1.051197 -0.710860
v -0.279064 -1.074973 -0.710694
v -0.518778 -1.075397 -0.712917
v -0.282413 1.051081 -0.755922
v -0.521898 1.050656 -0.758144
v -0.278650 -1.074987 -0.755223
v -0.518595 -1.075412 -0.757448
v -0.282825 1.051095 -0.711393
v -0.521851 1.050671 -0.713610
v -0.572350 -1.075493 -0.713414
v -0.812063 -1.075918 -0.715637
v -0.575699 1.050561 -0.758642
v -0.815184 1.050137 -0.760863
v -0.571938 -1.075507 -0.757943
v -0.811882 -1.075932 -0.760168
v -0.576113 1.050575 -0.714113
v -0.815136 1.050151 -0.716330
v 0.409977 -0.957597 -0.800187
v 0.561823 -0.957733 -0.798779
v 0.413143 1.050488 -0.757865
v 0.564846 1.050219 -0.756458
v 0.409382 -1.075581 -0.758564
v 0.561375 -1.075850 -0.757155
v 0.413322 0.932384 -0.799565
v 0.564730 0.931850 -0.798161
v 0.411196 -0.957114 -0.931538
v 0.561729 -0.957380 -0.930142
v 0.410986 -1.075526 -0.931577
v 0.561520 -1.075793 -0.930181
v -0.703238 0.954771 -0.724787
v -0.667828 1.006483 -0.724442
v -0.660116 0.962296 -0.724385
v -0.710947 0.998958 -0.724844
v -0.126997 0.957540 -0.715039
v -0.083145 1.002317 -0.714619
v -0.083225 0.957462 -0.714633
v -0.126919 1.002395 -0.715025
v 0.471989 0.956478 -0.709485
v 0.515841 1.001255 -0.709064
v 0.515762 0.956400 -0.709079
v 0.472069 1.001332 -0.709470
v 0.593113 1.052800 -0.743394
v 0.357193 1.052800 -0.745595
v 0.600443 -1.073429 -0.747071
v 0.360498 -1.073854 -0.749296
v 0.307381 1.052127 -0.750453
v 0.067896 1.051702 -0.752674
v 0.311142 -1.073941 -0.749754
v 0.071198 -1.074367 -0.751979
v 0.014093 1.051607 -0.753173
v -0.225389 1.051182 -0.755394
v 0.017857 -1.074461 -0.752474
v -0.222088 -1.074886 -0.754699
v -0.282413 1.051081 -0.755922
v -0.521898 1.050656 -0.758144
v -0.278650 -1.074987 -0.755223
v -0.518595 -1.075412 -0.757448
v -0.575699 1.050561 -0.758642
v -0.815184 1.050137 -0.760863
v -0.571938 -1.075507 -0.757943
v -0.811882 -1.075932 -0.760168
v 0.411289 -0.957467 -0.800175
v 0.414194 0.932117 -0.799557
v 0.411194 -0.957114 -0.931538
v 0.410986 -1.075526 -0.931577
v 0.561823 -0.957733 -0.798779
v 0.564730 0.931850 -0.798161
v 0.561729 -0.957380 -0.930142
v 0.561520 -1.075793 -0.930181
v -0.177454 -0.957597 -0.800187
v -0.025606 -0.957733 -0.798779
v -0.174286 1.050488 -0.757865
v -0.022585 1.050219 -0.756458
v -0.178049 -1.075581 -0.758564
v -0.026056 -1.075850 -0.757155
v -0.174109 0.932384 -0.799565
v -0.022701 0.931850 -0.798161
v -0.176235 -0.957114 -0.931538
v -0.025702 -0.957380 -0.930142
v -0.176445 -1.075526 -0.931577
v -0.025909 -1.075793 -0.930181
v -0.176142 -0.957467 -0.800175
v -0.173235 0.932117 -0.799557
v -0.176235 -0.957114 -0.931538
v -0.176445 -1.075526 -0.931577
v -0.025606 -0.957733 -0.798779
v -0.022701 0.931850 -0.798161
v -0.025702 -0.957380 -0.930142
v -0.025909 -1.075793 -0.930181
v -0.767433 -0.957597 -0.800187
v -0.615585 -0.957733 -0.798779
v -0.764265 1.050488 -0.757865
v -0.612564 1.050219 -0.756458
v -0.768028 -1.075581 -0.758564
v -0.616035 -1.075850 -0.757155
v -0.764088 0.932384 -0.799565
v -0.612680 0.931850 -0.798161
v -0.766214 -0.957114 -0.931538
v -0.615681 -0.957380 -0.930142
v -0.766424 -1.075526 -0.931577
v -0.615889 -1.075793 -0.930181
v -0.766121 -0.957467 -0.800175
v -0.763214 0.932117 -0.799557
v -0.766214 -0.957114 -0.931538
v -0.766424 -1.075526 -0.931577
v -0.615585 -0.957733 -0.798779
v -0.612680 0.931850 -0.798161
v -0.615681 -0.957380 -0.930142
v -0.615889 -1.075793 -0.930181
v 0.596268 1.052661 -2.357189
v 0.356783 1.052236 -2.359411
v 0.600029 -1.073407 -2.356490
v 0.360085 -1.073833 -2.358715
v 1.221027 -0.970215 -3.739254
v 1.221027 -0.910400 -3.679471
v 1.221027 -1.027039 -3.682427
v 1.221027 -0.967224 -3.622644
v 1.221027 -0.970215 -4.113122
v 1.221027 -0.910400 -4.053339
v 1.221027 -1.027039 -4.056295
v 1.221027 -0.967224 -3.996512
v 0.972334 -0.970215 -3.739297
v 0.972334 -0.910400 -3.679515
v 0.972334 -1.027039 -3.682471
v 0.972334 -0.967224 -3.622688
v 0.972334 -0.970215 -4.113122
v 0.972334 -0.910400 -4.053339
v 0.972334 -1.027039 -4.056295
v 0.972334 -0.967224 -3.996512
v 1.182137 -0.970215 -2.760708
v 1.182137 -0.910400 -2.700926
v 1.182137 -1.027039 -2.703881
v 1.182137 -0.967224 -2.644098
v 1.182137 -0.970215 -1.124781
v 1.182137 -0.910400 -1.064999
v 1.182137 -1.027039 -1.067955
v 1.182137 -0.967224 -1.008172
v -0.388930 -0.845093 -2.364105
v -0.160018 -0.845093 -2.364105
v -0.388934 0.656418 -2.364105
v -0.160022 0.656418 -2.364105
v -0.388930 -0.845093 -2.114643
v -0.160018 -0.845093 -2.114643
v -0.388934 0.656418 -2.114643
v -0.160022 0.656418 -2.114643
v 1.013585 -0.858173 0.318028
v 1.181808 -0.858173 0.309792
v 1.013585 -1.079303 0.318028
v 1.181808 -1.079303 0.309792
v 1.013585 -1.079303 0.318028
v 1.013585 -0.858170 0.318028
v 1.013585 -1.079303 0.318028
v 1.013585 -1.079303 0.687135
v 1.181808 -1.079303 0.687006
v 1.181808 -1.079303 0.309792
v 1.013585 -0.858170 0.687135
v 1.013585 -1.079303 0.687135
v 1.181808 -1.079303 0.309792
v 1.181808 -0.858170 0.309702
v 1.181808 -1.079303 0.687006
v 1.181808 -0.858170 0.686916
v -1.221027 -1.005028 0.434982
v -1.221027 -1.005028 0.615511
v 1.019568 -1.005028 0.615449
v 1.019568 -1.005028 0.430954
v -1.221027 -0.858170 0.615511
v 1.019568 -1.005028 0.615449
v -1.221027 -1.005028 0.615511
v 1.019568 -0.858170 0.615405
v -1.221027 -0.862251 0.434982
v 1.019568 -0.862251 0.430954
v -1.221027 -1.005028 0.434982
v 1.019568 -1.005028 0.430954
v 0.600029 -1.073414 0.846279
v 0.360315 -1.073839 0.844056
v 0.593113 1.052800 0.805427
v 0.357193 1.052800 0.803225
v 0.600443 -1.073429 0.801750
v 0.360498 -1.073854 0.799524
v 0.592699 1.052800 0.849955
v 0.357233 1.052800 0.847759
v 0.310730 -1.073927 0.843596
v 0.071014 -1.074352 0.841373
v 0.307381 1.052127 0.798368
v 0.067896 1.051702 0.796146
v 0.311142 -1.073941 0.799067
v 0.071198 -1.074367 0.796842
v 0.306967 1.052141 0.842896
v 0.067944 1.051717 0.840680
v 0.017445 -1.074448 0.840876
v -0.222271 -1.074872 0.838653
v 0.014093 1.051607 0.795647
v -0.225389 1.051182 0.793427
v 0.017857 -1.074461 0.796347
v -0.222088 -1.074886 0.794122
v 0.013681 1.051620 0.840177
v -0.225342 1.051197 0.837960
v -0.279064 -1.074973 0.838127
v -0.518778 -1.075397 0.835904
v -0.282413 1.051081 0.792898
v -0.521898 1.050656 0.790677
v -0.278650 -1.074987 0.793597
v -0.518595 -1.075412 0.791372
v -0.282825 1.051095 0.837427
v -0.521851 1.050671 0.835210
v -0.572350 -1.075493 0.835407
v -0.812063 -1.075918 0.833184
v -0.575699 1.050561 0.790178
v -0.815184 1.050137 0.787957
v -0.571938 -1.075507 0.790878
v -0.811882 -1.075932 0.788652
v -0.576113 1.050575 0.834707
v -0.815136 1.050151 0.832491
v 0.409977 -0.957597 0.748634
v 0.561823 -0.957733 0.750042
v 0.413143 1.050488 0.790956
v 0.564846 1.050219 0.792363
v 0.409382 -1.075581 0.790257
v 0.561375 -1.075850 0.791666
v 0.413322 0.932384 0.749256
v 0.564730 0.931850 0.750659
v 0.411196 -0.957114 0.617283
v 0.561729 -0.957380 0.618679
v 0.410986 -1.075526 0.617244
v 0.561520 -1.075793 0.618640
v -0.703238 0.954771 0.824034
v -0.667828 1.006483 0.824378
v -0.660116 0.962296 0.824436
v -0.710947 0.998958 0.823976
v -0.126997 0.957540 0.833781
v -0.083145 1.002317 0.834202
v -0.083225 0.957462 0.834187
v -0.126919 1.002395 0.833796
v 0.471989 0.956478 0.839336
v 0.515841 1.001255 0.839756
v 0.515762 0.956400 0.839742
v 0.472069 1.001332 0.839351
v 0.593113 1.052800 0.805427
v 0.357193 1.052800 0.803225
v 0.600443 -1.073429 0.801750
v 0.360498 -1.073854 0.799524
v 0.307381 1.052127 0.798368
v 0.067896 1.051702 0.796146
v 0.311142 -1.073941 0.799067
v 0.071198 -1.074367 0.796842
v 0.014093 1.051607 0.795647
v -0.225389 1.051182 0.793427
v 0.017857 -1.074461 0.796347
v -0.222088 -1.074886 0.794122
v -0.282413 1.051081 0.792898
v -0.521898 1.050656 0.790677
v -0.278650 -1.074987 0.793597
v -0.518595 -1.075412 0.791372
v -0.575699 1.050561 0.790178
v -0.815184 1.050137 0.787957
v -0.571938 -1.075507 0.790878
v -0.811882 -1.075932 0.788652
v 0.411289 -0.957467 0.748646
v 0.414194 0.932117 0.749264
v 0.411194 -0.957114 0.617283
v 0.410986 -1.075526 0.617244
v 0.561823 -0.957733 0.750042
v 0.564730 0.931850 0.750659
v 0.561729 -0.957380 0.618679
v 0.561520 -1.075793 0.618640
v -0.177454 -0.957597 0.748634
v -0.025606 -0.957733 0.750042
v -0.174286 1.050488 0.790956
v -0.022585 1.050219 0.792363
v -0.178049 -1.075581 0.790257
v -0.026056 -1.075850 0.791666
v -0.174109 0.932384 0.749256
v -0.022701 0.931850 0.750659
v -0.176235 -0.957114 0.617283
v -0.025702 -0.957380 0.618679
v -0.176445 -1.075526 0.617244
v -0.025909 -1.075793 0.618640
v -0.176142 -0.957467 0.748646
v -0.173235 0.932117 0.749264
v -0.176235 -0.957114 0.617283
v -0.176445 -1.075526 0.617244
v -0.025606 -0.957733 0.750042
v -0.022701 0.931850 0.750659
v -0.025702 -0.957380 0.618679
v -0.025909 -1.075793 0.618640
v -0.767433 -0.957597 0.748634
v -0.615585 -0.957733 0.750042
v -0.764265 1.050488 0.790956
v -0.612564 1.050219 0.792363
v -0.768028 -1.075581 0.790257
v -0.616035 -1.075850 0.791666
v -0.764088 0.932384 0.749256
v -0.612680 0.931850 0.750659
v -0.766214 -0.957114 0.617283
v -0.615681 -0.957380 0.618679
v -0.766424 -1.075526 0.617244
v -0.615889 -1.075793 0.618640
v -0.766121 -0.957467 0.748646
v -0.763214 0.932117 0.749264
v -0.766214 -0.957114 0.617283
v -0.766424 -1.075526 0.617244
v -0.615585 -0.957733 0.750042
v -0.612680 0.931850 0.750659
v -0.615681 -0.957380 0.618679
v -0.615889 -1.075793 0.618640
v 1.182137 -0.970215 0.424039
v 1.182137 -0.910400 0.483822
v 1.182137 -1.027039 0.480866
v 1.182137 -0.967224 0.540649
v -0.718160 -0.940292 -0.361383
v -0.951618 -0.865372 -0.746453
v -0.645397 0.112396 -0.736403
v -0.645397 0.112396 -0.050941
v -0.951618 -0.865372 -0.050941
v -0.601189 -0.976913 -0.047819
v -0.408549 0.044647 -0.047819
v -0.291580 0.007996 -0.047819
v -0.366638 -1.048599 -0.746453
v -0.060406 -0.070816 -0.746453
v -0.366638 -1.048599 -0.050941
v -0.060406 -0.070816 -0.050941
v -0.265424 -0.733551 -0.333372
v -0.225080 -0.604721 -0.361382
v -0.601189 -0.976913 -0.384026
v -0.813824 -0.420792 -0.457758
v -0.773456 -0.291916 -0.457758
v -0.718160 -0.940292 -0.047819
v -0.225080 -0.604721 -0.046434
v -0.265424 -0.733551 -0.046434
v -0.813824 -0.420792 -0.046434
v -0.773456 -0.291916 -0.046434
v -0.408800 0.043839 -0.361383
v -0.645383 0.112427 -0.736403
v -0.645383 0.112427 -0.050941
v -0.060405 -0.070816 -0.746453
v -0.060405 -0.070816 -0.050941
v -0.291832 0.007187 -0.384026
v 0.547862 0.486511 -2.209681
v 0.508748 0.244461 -2.368229
v -0.503850 0.400848 -2.358178
v -0.503850 0.400848 -1.899238
v 0.508748 0.244461 -1.899238
v 0.566559 0.607651 -1.896116
v -0.472316 0.645172 -1.896116
v -0.453604 0.766296 -1.896116
v 0.602314 0.850281 -2.368229
v -0.410285 1.006668 -2.368229
v 0.602314 0.850281 -1.899238
v -0.410285 1.006668 -1.899238
v 0.275671 0.903183 -2.181669
v 0.142253 0.923782 -2.209679
v 0.566559 0.607651 -2.232323
v 0.048555 0.314148 -2.306055
v -0.084923 0.334763 -2.306055
v 0.547862 0.486511 -1.896116
v 0.142253 0.923782 -1.894731
v 0.275671 0.903183 -1.894731
v 0.048555 0.314148 -1.894731
v -0.084923 0.334763 -1.894731
v -0.471479 0.645035 -2.209681
v -0.503881 0.400848 -2.358178
v -0.503881 0.400848 -1.899238
v -0.410285 1.006668 -2.368229
v -0.410285 1.006668 -1.899238
v -0.452767 0.766174 -2.232323
v -0.382751 -0.136456 1.047185
v -0.743965 -0.206223 0.809285
v -1.046070 1.301176 0.824366
v -1.046070 1.301176 1.512997
v -0.743965 -0.206223 1.512997
v -0.202426 -0.100304 1.517683
v -0.685552 1.382818 1.517683
v -0.505214 1.418935 1.517683
v 0.157898 -0.025497 0.809285
v -0.144189 1.481938 0.809285
v 0.157898 -0.025497 1.512997
v -0.144189 1.481938 1.512997
v 0.063915 0.462029 1.089216
v 0.024107 0.660655 1.047187
v -0.202426 -0.100304 1.013210
v -0.883218 0.478132 0.902576
v -0.923039 0.676863 0.902576
v -0.382751 -0.136456 1.517683
v 0.024107 0.660655 1.519760
v 0.063915 0.462029 1.519760
v -0.883218 0.478132 1.519760
v -0.923039 0.676863 1.519760
v -0.685301 1.381585 1.047185
v -0.504963 1.417702 1.013210
v 0.324998 -1.007614 -0.653126
v 0.166121 -1.019424 -0.756147
v 0.112107 -0.355881 -0.749616
v 0.112107 -0.355881 -0.451409
v 0.166121 -1.019424 -0.451409
v 0.404367 -1.001160 -0.449379
v 0.271279 -0.338928 -0.449379
v 0.350671 -0.332458 -0.449379
v 0.563121 -0.987122 -0.756147
v 0.509120 -0.323547 -0.756147
v 0.563121 -0.987122 -0.451409
v 0.509120 -0.323547 -0.451409
v 0.547251 -0.772705 -0.634925
v 0.540141 -0.685257 -0.653125
v 0.404367 -1.001160 -0.667839
v 0.140692 -0.718079 -0.715748
v 0.133577 -0.630600 -0.715748
v 0.324998 -1.007614 -0.449379
v 0.540141 -0.685257 -0.448480
v 0.547251 -0.772705 -0.448480
v 0.140692 -0.718079 -0.448480
v 0.133577 -0.630600 -0.448480
v 0.271334 -0.339462 -0.653126
v 0.350716 -0.333008 -0.667839
v 0.429339 -1.032939 0.468865
v 0.429339 -1.032939 0.580597
v 0.639819 -1.032939 0.580558
v 0.639819 -1.032939 0.466372
v -0.603998 -1.032939 -1.072526
v -0.603998 -1.032939 -0.960794
v -0.393518 -1.032939 -0.960832
v -0.393518 -1.032939 -1.075019
v 0.199358 -1.017283 -2.726852
v 0.199358 -1.017283 -2.615121
v 0.409838 -1.017283 -2.615159
v 0.409838 -1.017283 -2.729346
v 1.155388 -0.859343 0.323279
v 1.155388 -1.040996 0.323279
v 1.040006 -1.040996 0.323279
v 1.155388 -1.040996 0.323279
v 1.040006 -1.040996 0.323279
v 1.040005 -0.859343 0.323279
v 1.155388 -0.859343 0.151780
v 1.155388 -1.040996 0.151780
v 1.040006 -1.040996 0.151780
v 1.155388 -1.040996 0.151780
v 1.040006 -1.040996 0.151780
v 1.040005 -0.859343 0.151780
v 1.155388 -0.859343 -1.219554
v 1.155388 -1.040996 -1.219554
v 1.040005 -1.040996 -1.219554
v 1.155388 -1.040996 -1.219554
v 1.040005 -1.040996 -1.219554
v 1.040005 -0.859343 -1.219554
v 1.155388 -0.859343 -1.369687
v 1.155388 -1.040996 -1.369687
v 1.040005 -1.040996 -1.369687
v 1.155388 -1.040996 -1.369687
v 1.040005 -1.040996 -1.369687
v 1.040005 -0.859343 -1.369687
v 1.155388 -0.859343 -2.875491
v 1.155388 -1.040996 -2.875491
v 1.040005 -1.040996 -2.875491
v 1.155388 -1.040996 -2.875491
v 1.040005 -1.040996 -2.875491
v 1.040005 -0.859343 -2.875491
v 1.155388 -0.859343 -3.004005
v 1.155388 -1.040996 -3.004005
v 1.040005 -1.040996 -3.004005
v 1.155388 -1.040996 -3.004005
v 1.040005 -1.040996 -3.004005
v 1.040006 -0.859343 -3.004005
v 1.155388 -0.859343 -2.875491
v 1.155388 -1.040996 -2.875491
v 1.040005 -1.040996 -2.875491
v 1.155388 -1.040996 -2.875491
v 1.040005 -1.040996 -2.875491
v 1.040005 -0.859343 -2.875491
v 1.155388 -0.859343 -1.219554
v 1.155388 -1.040996 -1.219554
v 1.040005 -1.040996 -1.219554
v 1.155388 -1.040996 -1.219554
v 1.040005 -1.040996 -1.219554
v 1.040005 -0.859343 -1.219554
v 1.155388 -0.859343 0.323279
v 1.155388 -1.040996 0.323279
v 1.040006 -1.040996 0.323279
v 1.155388 -1.040996 0.323279
v 1.040006 -1.040996 0.323279
v 1.040005 -0.859343 0.323279
v 0.978204 0.858170 -4.252157
v 0.978204 1.128510 -4.252157
v 0.978204 0.858170 -4.252157
v 0.978204 0.858170 -3.502157
v 1.217190 0.858170 -3.502417
v 1.217190 0.858170 -4.268893
v 0.978204 1.128510 -3.502157
v 0.978204 1.128510 -3.502157
v 0.978204 0.858170 -3.502157
v 1.217190 0.858170 -3.502417
v 0.978204 0.858170 -3.502157
v 1.217190 1.128510 -3.502601
v 1.217190 0.858170 -4.268893
v 1.217190 1.128510 -4.269076
v 1.040006 0.945683 -3.516507
v 1.040006 1.127337 -3.516507
v 1.040006 0.945683 -3.516507
v 1.040006 0.945683 4.269076
v 1.155388 0.945683 4.268880
v 1.155388 0.945683 -3.529181
v 1.040006 1.127337 4.269076
v 1.040006 0.945683 4.269076
v 1.155388 0.945683 4.268880
v 1.155388 1.127337 4.268741
v 1.155388 0.945683 -3.529181
v 1.155388 1.127337 -3.529320
v 1.217190 0.858170 -3.502417
v 1.217190 1.128510 -3.502601
v 1.013585 0.907376 -2.888874
v 1.013585 1.128510 -2.888874
v 1.013585 0.907376 -2.888874
v 1.013585 0.907376 -2.515635
v 1.181808 0.907376 -2.515763
v 1.181808 0.907376 -2.888874
v 1.013585 1.128510 -2.515635
v 1.013585 1.128510 -2.515635
v 1.013585 0.907376 -2.515635
v 1.181808 0.907376 -2.515763
v 1.013585 0.907376 -2.515635
v 1.181808 1.128510 -2.515853
v 1.181808 0.907376 -2.888874
v 1.181808 1.128510 -2.888874
v 1.181808 0.907376 -2.515763
v 1.181808 1.128510 -2.515853
v -1.221027 0.981651 -2.767787
v -1.221027 0.981651 -2.587258
v 1.019568 0.981651 -2.587320
v 1.019568 0.981651 -2.771815
v -1.221027 1.128510 -2.587258
v 1.019568 0.981651 -2.587320
v -1.221027 0.981651 -2.587258
v 1.019568 1.128510 -2.587364
v -1.221027 1.124428 -2.767787
v 1.019568 1.124428 -2.771815
v -1.221027 0.981651 -2.767787
v 1.019568 0.981651 -2.771815
v 1.013585 1.128506 -1.234920
v 1.181808 1.128506 -1.234920
v 1.013585 0.907376 -1.234920
v 1.181808 0.907376 -1.234920
v 1.013585 0.907376 -1.234920
v 1.013585 1.128510 -1.234920
v 1.013585 0.907376 -1.234920
v 1.013585 0.907376 -0.861686
v 1.181808 0.907376 -0.861814
v 1.181808 0.907376 -1.234920
v 1.013585 1.128510 -0.861686
v 1.013585 0.907376 -0.861686
v 1.181808 0.907376 -1.234920
v 1.181808 1.128510 -1.234920
v 1.181808 0.907376 -0.861814
v 1.181808 1.128510 -0.861904
v -1.221027 0.981651 -1.113838
v -1.221027 0.981651 -0.933309
v 1.019568 0.981651 -0.933372
v 1.019568 0.981651 -1.117867
v -1.221027 1.128510 -0.933309
v 1.019568 0.981651 -0.933372
v -1.221027 0.981651 -0.933309
v 1.019568 1.128510 -0.933416
v -1.221027 1.124428 -1.113838
v 1.019568 1.124428 -1.117867
v -1.221027 0.981651 -1.113838
v 1.019568 0.981651 -1.117867
v 1.221027 1.016464 -3.739254
v 1.221027 1.076279 -3.679471
v 1.221027 0.959641 -3.682427
v 1.221027 1.019455 -3.622644
v 1.221027 1.016464 -4.113122
v 1.221027 1.076279 -4.053339
v 1.221027 0.959641 -4.056295
v 1.221027 1.019455 -3.996512
v 0.972334 1.016464 -3.739297
v 0.972334 1.076279 -3.679515
v 0.972334 0.959641 -3.682471
v 0.972334 1.019455 -3.622688
v 0.972334 1.016464 -4.113122
v 0.972334 1.076279 -4.053339
v 0.972334 0.959641 -4.056295
v 0.972334 1.019455 -3.996512
v 1.182137 1.016464 -2.760708
v 1.182137 1.076279 -2.700926
v 1.182137 0.959641 -2.703881
v 1.182137 1.019455 -2.644098
v 1.182137 1.016464 -1.124781
v 1.182137 1.076279 -1.064999
v 1.182137 0.959641 -1.067955
v 1.182137 1.019455 -1.008172
v 1.013585 1.128506 0.318028
v 1.181808 1.128506 0.309792
v 1.013585 0.907376 0.318028
v 1.181808 0.907376 0.309792
v 1.013585 0.907376 0.318028
v 1.013585 1.128510 0.318028
v 1.013585 0.907376 0.318028
v 1.013585 0.907376 0.687135
v 1.181808 0.907376 0.687006
v 1.181808 0.907376 0.309792
v 1.013585 1.128510 0.687135
v 1.013585 0.907376 0.687135
v 1.181808 0.907376 0.309792
v 1.181808 1.128510 0.309702
v 1.181808 0.907376 0.687006
v 1.181808 1.128510 0.686916
v -1.221027 0.981651 0.434982
v -1.221027 0.981651 0.615511
v 1.019568 0.981651 0.615449
v 1.019568 0.981651 0.430954
v -1.221027 1.128510 0.615511
v 1.019568 0.981651 0.615449
v -1.221027 0.981651 0.615511
v 1.019568 1.128510 0.615405
v -1.221027 1.124428 0.434982
v 1.019568 1.124428 0.430954
v -1.221027 0.981651 0.434982
v 1.019568 0.981651 0.430954
v 1.182137 1.016464 0.424039
v 1.182137 1.076279 0.483822
v 1.182137 0.959641 0.480866
v 1.182137 1.019455 0.540649
v 1.155388 1.127337 0.323279
v 1.155388 0.945683 0.323279
v 1.040006 0.945683 0.323279
v 1.155388 0.945683 0.323279
v 1.040006 0.945683 0.323279
v 1.040005 1.127337 0.323279
v 1.155388 1.127337 0.151780
v 1.155388 0.945683 0.151780
v 1.040006 0.945683 0.151780
v 1.155388 0.945683 0.151780
v 1.040006 0.945683 0.151780
v 1.040005 1.127337 0.151780
v 1.155388 1.127336 -1.219554
v 1.155388 0.945683 -1.219554
v 1.040005 0.945683 -1.219554
v 1.155388 0.945683 -1.219554
v 1.040005 0.945683 -1.219554
v 1.040005 1.127337 -1.219554
v 1.155388 1.127336 -1.369687
v 1.155388 0.945683 -1.369687
v 1.040005 0.945683 -1.369687
v 1.155388 0.945683 -1.369687
v 1.040005 0.945683 -1.369687
v 1.040005 1.127337 -1.369687
v 1.155388 1.127336 -2.875491
v 1.155388 0.945683 -2.875491
v 1.040005 0.945683 -2.875491
v 1.155388 0.945683 -2.875491
v 1.040005 0.945683 -2.875491
v 1.040005 1.127337 -2.875491
v 1.155388 1.127336 -3.004005
v 1.155388 0.945683 -3.004005
v 1.040005 0.945683 -3.004005
v 1.155388 0.945683 -3.004005
v 1.040005 0.945683 -3.004005
v 1.040006 1.127337 -3.004005
v 1.155388 1.127336 -2.875491
v 1.155388 0.945683 -2.875491
v 1.040005 0.945683 -2.875491
v 1.155388 0.945683 -2.875491
v 1.040005 0.945683 -2.875491
v 1.040005 1.127337 -2.875491
v 1.155388 1.127336 -1.219554
v 1.155388 0.945683 -1.219554
v 1.040005 0.945683 -1.219554
v 1.155388 0.945683 -1.219554
v 1.040005 0.945683 -1.219554
v 1.040005 1.127337 -1.219554
v 1.155388 1.127337 0.323279
v 1.155388 0.945683 0.323279
v 1.040006 0.945683 0.323279
v 1.155388 0.945683 0.323279
v 1.040006 0.945683 0.323279
v 1.040005 1.127337 0.323279
v 1.155388 -0.911819 -1.115975
v 1.155388 -0.982193 -1.186345
v 1.155388 1.033417 -2.623518
v 1.155388 0.963043 -2.693887
v 1.155388 0.994446 -1.115975
v 1.155388 1.064819 -1.186345
v 1.155388 -0.950790 -2.623518
v 1.155388 -0.880417 -2.693887
v 1.155388 -0.911819 2.143812
v 1.155388 -0.982193 2.073442
v 1.155388 1.033417 0.636270
v 1.155388 0.963043 0.565900
v 1.155388 0.994446 2.143812
v 1.155388 1.064819 2.073442
v 1.155388 -0.950790 0.636270
v 1.155388 -0.880417 0.565900
v 1.160543 0.034566 -1.952191
v 1.160543 0.073054 -1.913724
v 1.160543 -0.001998 -1.915626
v 1.160543 0.036490 -1.877158
v 1.155388 -0.911819 0.527468
v 1.155388 -0.982193 0.457098
v 1.155388 1.033417 -0.980074
v 1.155388 0.963043 -1.050444
v 1.155388 0.994446 0.527468
v 1.155388 1.064819 0.457098
v 1.155388 -0.950790 -0.980074
v 1.155388 -0.880417 -1.050444
v 1.160543 0.034566 -0.308748
v 1.160543 0.073054 -0.270281
v 1.160543 -0.001998 -0.272182
v 1.160543 0.036490 -0.233715
v 0.311836 -0.019058 -2.363722
v 0.527909 -0.048218 -2.363722
v 0.178514 -1.006790 -2.363722
v 0.394588 -1.035950 -2.363722
v 0.311836 -0.019058 -1.972612
v 0.527909 -0.048218 -1.972612
v 0.178514 -1.006790 -1.972612
v 0.394588 -1.035950 -1.972612
v 0.057335 -0.019058 -2.363722
v 0.273408 -0.048218 -2.363722
v -0.075987 -1.006790 -2.363722
v 0.140086 -1.035950 -2.363722
v 0.057335 -0.019058 -1.972612
v 0.273408 -0.048218 -1.972612
v -0.075987 -1.006790 -1.972612
v 0.140086 -1.035950 -1.972612
v -0.700840 -1.152649 -2.364105
v -0.471928 -1.152649 -2.364105
v -0.700844 0.348862 -2.364105
v -0.471931 0.348862 -2.364105
v -0.700840 -1.152649 -2.114643
v -0.471928 -1.152649 -2.114643
v -0.700844 0.348862 -2.114643
v -0.471931 0.348862 -2.114643
v -0.819604 -1.068848 -2.114935
v -0.604365 -1.146774 -2.114935
v -0.308446 0.342987 -2.114935
v -0.093207 0.265060 -2.114935
v -0.819604 -1.068848 -1.865473
v -0.604365 -1.146774 -1.865473
v -0.308446 0.342987 -1.865473
v -0.093207 0.265060 -1.865473
v 0.448596 -0.002518 -0.653126
v 0.308940 -0.079193 -0.756147
v -0.015512 0.502136 -0.749616
v -0.015512 0.502136 -0.451409
v 0.308940 -0.079193 -0.451409
v 0.518134 0.036285 -0.449379
v 0.122280 0.583603 -0.449379
v 0.191832 0.622437 -0.449379
v 0.656754 0.114929 -0.756147
v 0.332302 0.696274 -0.756147
v 0.656754 0.114929 -0.451409
v 0.332302 0.696274 -0.451409
v 0.553352 0.303421 -0.634925
v 0.510601 0.380051 -0.653125
v 0.518134 0.036285 -0.667839
v 0.160773 0.184448 -0.715748
v 0.118004 0.261093 -0.715748
v 0.448596 -0.002518 -0.449379
v 0.510601 0.380051 -0.448480
v 0.553352 0.303421 -0.448480
v 0.160773 0.184448 -0.448480
v 0.118004 0.261093 -0.448480
v 0.122551 0.583145 -0.653126
v 0.192100 0.621948 -0.667839
v 0.339821 -0.560562 -0.368247
v 0.181734 -0.580353 -0.471268
v 0.094445 0.079636 -0.464737
v 0.094445 0.079636 -0.166529
v 0.181734 -0.580353 -0.166529
v 0.418765 -0.550125 -0.164500
v 0.252564 0.104568 -0.164500
v 0.331533 0.115036 -0.164500
v 0.576614 -0.528122 -0.471268
v 0.489331 0.131882 -0.471268
v 0.576614 -0.528122 -0.166529
v 0.489331 0.131882 -0.166529
v 0.549984 -0.314789 -0.350045
v 0.538494 -0.227798 -0.368246
v 0.418765 -0.550125 -0.382959
v 0.141196 -0.280655 -0.430869
v 0.129695 -0.193649 -0.430869
v 0.339821 -0.560562 -0.164500
v 0.538494 -0.227798 -0.163600
v 0.549984 -0.314789 -0.163600
v 0.141196 -0.280655 -0.163600
v 0.129695 -0.193649 -0.163600
v 0.252648 0.104050 -0.368247
v 0.331603 0.114471 -0.382959
v 0.280614 -0.705521 0.804923
v 0.288930 -0.923386 0.804923
v -0.715350 -0.743500 0.804923
v -0.707035 -0.961380 0.804923
v 0.280614 -0.705521 1.196033
v 0.288930 -0.923386 1.196033
v -0.715350 -0.743500 1.196033
v -0.707035 -0.961380 1.196033
v 0.280614 -0.402954 0.804923
v 0.288930 -0.620819 0.804923
v -0.715350 -0.440933 0.804923
v -0.707035 -0.658813 0.804923
v 0.280614 -0.402954 1.196033
v 0.288930 -0.620819 1.196033
v -0.715350 -0.440933 1.196033
v -0.707035 -0.658813 1.196033
v 0.388024 0.316772 0.804923
v 0.605657 0.303726 0.804923
v 0.328359 -0.678131 0.804923
v 0.546008 -0.691177 0.804923
v 0.388024 0.316772 1.196033
v 0.605657 0.303726 1.196033
v 0.328359 -0.678131 1.196033
v 0.546008 -0.691177 1.196033
v -0.388930 -0.845093 -2.364105
v -0.160018 -0.845093 -2.364105
v -0.388930 -0.845093 -2.114643
v -0.160018 -0.845093 -2.114643
v 0.178514 -1.006790 -2.363722
v 0.394588 -1.035950 -2.363722
v 0.178514 -1.006790 -1.972612
v 0.394588 -1.035950 -1.972612
v -0.075987 -1.006790 -2.363722
v 0.140086 -1.035950 -2.363722
v -0.075987 -1.006790 -1.972612
v 0.140086 -1.035950 -1.972612
v -0.700840 -1.152649 -2.364105
v -0.471928 -1.152649 -2.364105
v -0.700840 -1.152649 -2.114643
v -0.471928 -1.152649 -2.114643
v -0.819604 -1.068848 -2.114935
v -0.604365 -1.146774 -2.114935
v -0.819604 -1.068848 -1.865473
v -0.604365 -1.146774 -1.865473
v -0.388930 -0.845093 -2.114643
v -0.160018 -0.845093 -2.114643
v -0.388934 0.656418 -2.114643
v -0.160022 0.656418 -2.114643
v 0.311836 -0.019058 -1.972612
v 0.527909 -0.048218 -1.972612
v 0.178514 -1.006790 -1.972612
v 0.394588 -1.035950 -1.972612
v 0.057335 -0.019058 -1.972612
v 0.273408 -0.048218 -1.972612
v -0.075987 -1.006790 -1.972612
v 0.140086 -1.035950 -1.972612
v -0.819604 -1.068848 -1.865473
v -0.604365 -1.146774 -1.865473
v -0.308446 0.342987 -1.865473
v -0.093207 0.265060 -1.865473
vt 0.192248 1.799369
vt -0.112522 1.934547
vt 0.644810 2.401012
vt 0.644810 2.401012
vt 0.644810 2.401012
vt 0.000000 0.000000
vt 1.000000 0.000000
vt 0.000000 1.000000
vt 1.000000 1.000000
vt 0.000000 0.000000
vt 1.000000 0.000000
vt 0.000000 1.000000
vt 1.000000 1.000000
vt 0.000000 0.000000
vt 1.000000 0.000000
vt 0.000000 1.000000
vt 1.000000 1.000000
vt 0.098547 0.000000
vt 0.901009 0.000000
vt 1.164783 1.099773
vt 0.760583 1.103218
vt 0.761196 -0.180280
vt 1.659788 1.095554
vt 1.255589 1.098999
vt 1.256202 -0.184498
vt 0.169334 1.108257
vt -0.234252 -0.171795
vt 0.170725 -0.175247
vt 1.661179 -0.187950
vt 0.664340 1.104038
vt 0.260754 -0.176014
vt 0.665730 -0.179466
vt -0.318944 1.112419
vt -0.722530 -0.167634
vt -0.317553 -0.171086
vt -0.723143 1.115864
vt 1.166173 -0.183731
vt -0.234865 1.111702
vt 0.260140 1.107483
vt 0.000085 0.001647
vt 0.901094 0.001638
vt 1.000159 0.000052
vt -0.002680 1.494882
vt -0.002680 1.403726
vt -0.002680 1.452912
vt -0.002680 1.251423
vt 0.995010 1.403726
vt 0.995008 1.450762
vt 0.995006 1.436608
vt -2.970056 1.436608
vt -2.970055 1.425844
vt 0.995007 1.425844
vt -0.995594 1.403726
vt -0.995594 1.450762
vt 1.987921 1.403726
vt 1.987921 1.450762
vt 1.991465 0.201948
vt 0.995007 0.155346
vt 0.995007 0.201948
vt 1.991466 0.155346
vt -0.069202 0.155346
vt -4.062359 0.004448
vt -4.062359 0.155346
vt -0.069202 0.004448
vt -0.002680 0.201948
vt -0.999138 0.155346
vt -0.999139 0.201948
vt -0.002680 0.155346
vt -0.069202 0.248787
vt -4.062359 0.200825
vt -0.069202 0.200825
vt -4.062359 0.248787
vt -0.901829 0.177260
vt 5.054686 0.187926
vt 5.054686 0.177260
vt -0.901829 0.187926
vt 3.962382 1.494882
vt 3.962382 1.251423
vt 3.962382 1.403726
vt 3.962382 1.454815
vt 1.432275 0.926235
vt 0.790278 0.462825
vt 0.638177 0.913181
vt 0.809254 0.913181
vt 0.809254 0.626776
vt 0.638177 0.626776
vt 0.270618 0.993031
vt 0.442434 0.993031
vt 0.977618 0.462825
vt 0.834283 0.462825
vt 0.834283 0.462825
vt 0.977618 0.462825
vt 0.670101 0.054124
vt 0.670101 0.475087
vt 0.792801 0.475087
vt 0.792801 0.475087
vt 1.432275 0.602756
vt 1.322535 0.926235
vt 1.322535 0.602756
vt 0.677628 0.041862
vt 0.790278 0.041862
vt 0.677628 0.041862
vt 0.270618 0.515294
vt 0.442434 0.993031
vt 0.442434 0.515294
vt 0.270618 0.515294
vt 0.792801 0.054124
vt 0.670101 0.054124
vt 1.322535 0.926235
vt 1.432275 0.602756
vt 0.677628 0.462825
vt 0.790278 0.462825
vt 1.632784 1.438801
vt 1.523045 1.115321
vt 1.523045 1.438801
vt 1.632784 1.115321
vt 1.776297 1.773848
vt 1.665578 1.774116
vt 1.776297 1.627530
vt 1.665578 1.627797
vt 0.027630 0.019372
vt 0.027630 0.019372
vt 0.027630 0.485395
vt 0.465328 0.485395
vt 0.465328 0.485395
vt 0.465328 0.019372
vt 0.192248 1.799369
vt 0.192248 1.799369
vt -0.112522 1.934547
vt -0.112522 1.934547
vt 0.192248 1.799369
vt 0.192248 1.799369
vt 0.192248 1.799369
vt 0.192248 1.799369
vt -0.112522 1.934547
vt -0.112522 1.934547
vt 0.192248 1.799369
vt 0.192248 1.799369
vt 0.192248 1.799369
vt 0.192248 1.799369
vt -0.112522 1.934547
vt -0.112522 1.934547
vt 0.192248 1.799369
vt 0.192248 1.799369
vt 0.192248 1.799369
vt 0.192248 1.799369
vt -0.112522 1.934547
vt -0.112522 1.934547
vt 0.192248 1.799369
vt 0.192248 1.799369
vt 0.192248 1.799369
vt 0.192248 1.799369
vt -0.112522 1.934547
vt -0.112522 1.934547
vt 0.192248 1.799369
vt 0.192248 1.799369
vt 0.192248 1.799369
vt 0.192248 1.799369
vt -0.112522 1.934547
vt -0.112522 1.934547
vt 0.192248 1.799369
vt 0.192248 1.799369
vn -1.000000 0.000000 0.000000
vn -1.000000 0.000000 0.000000
vn 0.000000 -1.000000 0.000000
vn 0.000000 -1.000000 0.000000
vn 0.000000 -1.000000 0.000000
vn 0.000000 -1.000000 0.000000
vn 0.001856 0.000000 0.999998
vn -1.000000 0.000000 0.000000
vn -1.000000 0.000000 0.000000
vn 0.001087 0.000679 0.999999
vn 0.001441 0.000366 0.999999
vn 0.001502 0.000313 0.999999
vn 1.000000 0.000000 0.000000
vn 1.000000 0.000000 0.000000
vn -1.000000 0.000000 -0.000002
vn -1.000000 0.000001 -0.000001
vn 0.000000 -1.000000 0.000000
vn 0.000000 -1.000000 0.000000
vn 0.000000 -1.000000 0.000000
vn 0.000000 -1.000000 0.000000
vn -1.000000 0.000000 0.000000
vn -1.000000 -0.000000 0.000000
vn 1.000000 0.000000 0.000000
vn 1.000000 0.000000 0.000000
vn 1.000000 0.000000 0.000000
vn 1.000000 0.000000 0.000000
vn 1.000000 0.000000 0.000000
vn 1.000000 0.000000 0.000000
vn -1.000000 0.000000 0.000000
vn -1.000000 0.000000 0.000000
vn 0.000000 -1.000000 0.000000
vn 0.000000 -1.000000 0.000000
vn 0.000000 -1.000000 0.000000
vn 0.000000 -1.000000 0.000000
vn 0.001297 0.000000 0.999999
vn -1.000000 0.000000 0.000000
vn -1.000000 0.000000 0.000000
vn 0.000761 0.000408 1.000000
vn 0.000983 0.000239 1.000000
vn 0.001075 0.000169 0.999999
vn 1.000000 0.000000 0.000000
vn 1.000000 0.000000 0.000000
vn 1.000000 0.000000 0.000000
vn 1.000000 0.000000 0.000000
vn 0.000000 -1.000000 0.000000
vn 0.000000 -1.000000 0.000000
vn 0.000000 -1.000000 0.000000
vn 0.000000 -1.000000 0.000000
vn 0.000048 0.000000 1.000000
vn 0.000028 0.000300 1.000000
vn 0.000047 0.000013 1.000000
vn 0.000029 0.000288 1.000000
vn -0.001798 0.000000 -0.999998
vn -0.001798 0.000000 -0.999998
vn -0.001798 0.000000 -0.999998
vn -0.001798 0.000000 -0.999998
vn 0.000000 0.000000 -1.000000
vn 0.000000 0.000000 -1.000000
vn 0.000000 0.000000 -1.000000
vn 0.000000 0.000000 -1.000000
vn 0.709375 -0.704799 0.006820
vn -0.705272 -0.708932 -0.002665
vn 0.706250 0.707933 0.006565
vn -0.710354 0.703844 0.000639
vn 0.708446 -0.705732 0.006812
vn -0.706661 -0.707547 -0.002624
vn 0.705475 0.708705 0.006557
vn -0.704961 0.709246 0.000587
vn 0.708330 -0.705849 0.006766
vn -0.704800 -0.709401 -0.002670
vn 0.705828 0.708355 0.006341
vn -0.710611 0.703585 0.000521
vn 0.708327 -0.705852 0.006765
vn -0.707128 -0.707081 -0.002633
vn 0.705818 0.708364 0.006339
vn -0.705956 0.708255 0.000465
vn 0.708329 -0.705850 0.006766
vn -0.704803 -0.709398 -0.002670
vn 0.705819 0.708364 0.006310
vn -0.710611 0.703585 0.000528
vn 0.708326 -0.705853 0.006765
vn -0.707126 -0.707082 -0.002633
vn 0.705828 0.708355 0.006310
vn -0.705957 0.708255 0.000472
vn 0.708321 -0.705858 0.006804
vn -0.704805 -0.709396 -0.002663
vn 0.705818 0.708365 0.006310
vn -0.710612 0.703584 0.000528
vn 0.708333 -0.705846 0.006803
vn -0.707123 -0.707085 -0.002625
vn 0.705828 0.708355 0.006311
vn -0.705958 0.708254 0.000472
vn 0.708331 -0.705848 0.006773
vn -0.704792 -0.709409 -0.002640
vn 0.705828 0.708355 0.006341
vn -0.710612 0.703584 0.000528
vn 0.708323 -0.705855 0.006773
vn -0.707135 -0.707074 -0.002602
vn 0.705818 0.708365 0.006340
vn -0.705958 0.708254 0.000473
vn -0.948252 0.317452 -0.006457
vn 0.949991 0.312254 0.003931
vn -0.224120 0.006750 0.974538
vn 0.215755 0.006009 0.976429
vn -0.723901 -0.684915 0.082814
vn 0.723601 -0.687696 0.058957
vn -0.999957 0.001723 -0.009160
vn 0.999997 -0.001632 0.001878
vn -0.705253 0.708943 -0.004261
vn 0.705577 0.708632 0.001401
vn -0.689317 -0.722422 0.054297
vn 0.683680 -0.727253 0.060700
vn -0.009275 0.000312 0.999957
vn -0.009275 0.000312 0.999957
vn -0.009273 0.000313 0.999957
vn -0.009273 0.000313 0.999957
vn -0.009273 0.000313 0.999957
vn -0.009273 0.000313 0.999957
vn -0.009274 0.000312 0.999957
vn -0.009274 0.000312 0.999957
vn -0.009275 0.000312 0.999957
vn -0.009275 0.000312 0.999957
vn -0.009273 0.000313 0.999957
vn -0.009273 0.000313 0.999957
vn -0.009275 0.000312 0.999957
vn -0.009275 0.000312 0.999957
vn -0.009274 0.000313 0.999957
vn -0.009274 0.000313 0.999957
vn 0.009273 0.000314 -0.999957
vn 0.009274 0.000313 -0.999957
vn 0.009274 0.000313 -0.999957
vn 0.009275 0.000312 -0.999957
vn -0.948187 0.317621 -0.007629
vn 0.949947 0.312377 0.004719
vn -0.220074 0.000069 0.975483
vn 0.201831 -0.000650 0.979420
vn -0.583699 -0.576508 0.571782
vn 0.573159 -0.578420 0.580448
vn -0.999955 0.001773 -0.009275
vn 0.999997 -0.001633 0.001880
vn -0.705253 0.708943 -0.004261
vn 0.705568 0.708641 0.001391
vn -0.708327 -0.705851 -0.006790
vn 0.703674 -0.710523 -0.000231
vn 0.009273 0.000314 -0.999957
vn 0.009274 0.000313 -0.999957
vn 0.009274 0.000313 -0.999957
vn 0.009275 0.000312 -0.999957
vn -0.948187 0.317621 -0.007629
vn 0.949947 0.312377 0.004719
vn -0.220074 0.000069 0.975483
vn 0.201831 -0.000650 0.979420
vn -0.583699 -0.576508 0.571782
vn 0.573159 -0.578420 0.580448
vn -0.999955 0.001773 -0.009275
vn 0.999997 -0.001633 0.001880
vn -0.705253 0.708943 -0.004261
vn 0.705568 0.708641 0.001391
vn -0.708327 -0.705851 -0.006790
vn 0.703674 -0.710523 -0.000231
vn -1.000000 0.000000 0.000000
vn -1.000000 0.000000 0.000000
vn 0.000000 -1.000000 0.000000
vn 0.000000 -1.000000 0.000000
vn 0.000000 -1.000000 0.000000
vn 0.000000 -1.000000 0.000000
vn -1.000000 0.000000 0.000000
vn -1.000000 0.000000 0.000000
vn 1.000000 0.000000 0.000000
vn 1.000000 0.000000 0.000000
vn 1.000000 0.000000 0.000000
vn 1.000000 0.000000 0.000000
vn 0.000000 -1.000000 0.000000
vn 0.000000 -1.000000 0.000000
vn 0.000000 -1.000000 0.000000
vn 0.000000 -1.000000 0.000000
vn 0.000048 0.000000 1.000000
vn 0.000028 0.000300 1.000000
vn 0.000047 0.000013 1.000000
vn 0.000029 0.000288 1.000000
vn -0.001798 0.000000 -0.999998
vn -0.001798 0.000000 -0.999998
vn -0.001798 0.000000 -0.999998
vn -0.001798 0.000000 -0.999998
vn 0.709375 -0.704799 0.006820
vn -0.705272 -0.708932 -0.002665
vn 0.706250 0.707933 0.006565
vn -0.710354 0.703844 0.000639
vn 0.708446 -0.705732 0.006812
vn -0.706661 -0.707547 -0.002624
vn 0.705475 0.708705 0.006557
vn -0.704961 0.709246 0.000587
vn 0.708330 -0.705849 0.006766
vn -0.704800 -0.709401 -0.002670
vn 0.705828 0.708355 0.006341
vn -0.710611 0.703585 0.000521
vn 0.708327 -0.705852 0.006765
vn -0.707128 -0.707081 -0.002633
vn 0.705818 0.708364 0.006339
vn -0.705956 0.708255 0.000465
vn 0.708329 -0.705850 0.006766
vn -0.704803 -0.709398 -0.002670
vn 0.705819 0.708364 0.006310
vn -0.710611 0.703585 0.000528
vn 0.708326 -0.705853 0.006765
vn -0.707126 -0.707082 -0.002633
vn 0.705828 0.708355 0.006310
vn -0.705957 0.708255 0.000472
vn 0.708321 -0.705858 0.006804
vn -0.704805 -0.709396 -0.002663
vn 0.705818 0.708365 0.006310
vn -0.710612 0.703584 0.000528
vn 0.708333 -0.705846 0.006803
vn -0.707123 -0.707085 -0.002625
vn 0.705828 0.708355 0.006311
vn -0.705958 0.708254 0.000472
vn 0.708331 -0.705848 0.006773
vn -0.704792 -0.709409 -0.002640
vn 0.705828 0.708355 0.006341
vn -0.710612 0.703584 0.000528
vn 0.708323 -0.705855 0.006773
vn -0.707135 -0.707074 -0.002602
vn 0.705818 0.708365 0.006340
vn -0.705958 0.708254 0.000473
vn -0.948187 0.317621 -0.007629
vn 0.949946 0.312380 0.004691
vn -0.220076 0.000068 0.975483
vn 0.201831 -0.000650 0.979420
vn -0.583699 -0.576508 0.571782
vn 0.573165 -0.578417 0.580444
vn -0.999955 0.001772 -0.009318
vn 0.999997 -0.001633 0.001880
vn -0.705253 0.708943 -0.004261
vn 0.705577 0.708632 0.001401
vn -0.708327 -0.705851 -0.006790
vn 0.703671 -0.710526 -0.000229
vn -0.009272 -0.000317 0.999957
vn -0.009272 -0.000318 0.999957
vn -0.009272 -0.000318 0.999957
vn -0.009272 -0.000318 0.999957
vn -0.009271 -0.000308 0.999957
vn -0.009276 -0.000313 0.999957
vn -0.009273 -0.000310 0.999957
vn -0.009273 -0.000311 0.999957
vn -0.009270 -0.000313 0.999957
vn -0.009271 -0.000313 0.999957
vn -0.009271 -0.000313 0.999957
vn -0.009271 -0.000313 0.999957
vn 0.009330 0.001761 -0.999955
vn 0.009326 0.001761 -0.999955
vn 0.009275 0.001755 -0.999955
vn 0.009271 0.001755 -0.999955
vn 0.009275 -0.000312 -0.999957
vn 0.009275 -0.000312 -0.999957
vn 0.009273 -0.000313 -0.999957
vn 0.009273 -0.000313 -0.999957
vn 0.009273 -0.000313 -0.999957
vn 0.009273 -0.000313 -0.999957
vn 0.009274 -0.000312 -0.999957
vn 0.009274 -0.000312 -0.999957
vn 0.009275 -0.000312 -0.999957
vn 0.009275 -0.000312 -0.999957
vn 0.009273 -0.000313 -0.999957
vn 0.009273 -0.000313 -0.999957
vn 0.009275 -0.000312 -0.999957
vn 0.009275 -0.000312 -0.999957
vn 0.009274 -0.000313 -0.999957
vn 0.009274 -0.000313 -0.999957
vn 0.009273 0.000313 -0.999957
vn 0.009273 0.000313 -0.999957
vn 0.009273 0.000314 -0.999957
vn 0.009274 0.000313 -0.999957
vn 0.009273 0.000313 -0.999957
vn 0.009273 0.000313 -0.999957
vn 0.009274 0.000313 -0.999957
vn 0.009275 0.000312 -0.999957
vn -0.948187 0.317621 -0.007629
vn 0.949947 0.312377 0.004719
vn -0.220074 0.000069 0.975483
vn 0.201831 -0.000650 0.979420
vn -0.583699 -0.576508 0.571782
vn 0.573159 -0.578420 0.580448
vn -0.999955 0.001773 -0.009275
vn 0.999997 -0.001633 0.001880
vn -0.705253 0.708943 -0.004261
vn 0.705568 0.708641 0.001391
vn -0.708327 -0.705851 -0.006790
vn 0.703674 -0.710523 -0.000231
vn 0.009273 0.000313 -0.999957
vn 0.009273 0.000313 -0.999957
vn 0.009273 0.000314 -0.999957
vn 0.009274 0.000313 -0.999957
vn 0.009273 0.000313 -0.999957
vn 0.009273 0.000313 -0.999957
vn 0.009274 0.000313 -0.999957
vn 0.009275 0.000312 -0.999957
vn -0.948187 0.317621 -0.007629
vn 0.949947 0.312377 0.004719
vn -0.220074 0.000069 0.975483
vn 0.201831 -0.000650 0.979420
vn -0.583699 -0.576508 0.571782
vn 0.573159 -0.578420 0.580448
vn -0.999955 0.001773 -0.009275
vn 0.999997 -0.001633 0.001880
vn -0.705253 0.708943 -0.004261
vn 0.705568 0.708641 0.001391
vn -0.708327 -0.705851 -0.006790
vn 0.703674 -0.710523 -0.000231
vn 0.009273 0.000313 -0.999957
vn 0.009273 0.000313 -0.999957
vn 0.009273 0.000314 -0.999957
vn 0.009274 0.000313 -0.999957
vn 0.009273 0.000313 -0.999957
vn 0.009273 0.000313 -0.999957
vn 0.009274 0.000313 -0.999957
vn 0.009275 0.000312 -0.999957
vn -0.009275 0.000312 0.999957
vn -0.009275 0.000312 0.999957
vn -0.009273 0.000313 0.999957
vn -0.009273 0.000313 0.999957
vn 1.000000 0.000000 0.000000
vn 1.000000 0.000000 0.000000
vn 1.000000 0.000000 0.000000
vn 1.000000 0.000000 0.000000
vn 1.000000 0.000000 0.000000
vn 1.000000 0.000000 0.000000
vn 1.000000 0.000000 0.000000
vn 1.000000 0.000000 0.000000
vn -1.000000 0.000000 0.000000
vn -1.000000 0.000000 0.000000
vn -1.000000 0.000000 0.000000
vn -1.000000 0.000000 0.000000
vn -1.000000 0.000000 0.000000
vn -1.000000 0.000000 0.000000
vn -1.000000 0.000000 0.000000
vn -1.000000 0.000000 0.000000
vn 1.000000 0.000000 0.000000
vn 1.000000 0.000000 0.000000
vn 1.000000 0.000000 0.000000
vn 1.000000 0.000000 0.000000
vn 1.000000 0.000000 0.000000
vn 1.000000 0.000000 0.000000
vn 1.000000 0.000000 0.000000
vn 1.000000 0.000000 0.000000
vn -1.000000 -0.000003 0.000000
vn 1.000000 0.000003 0.000000
vn -0.707108 0.707106 0.000000
vn 0.707106 0.707108 0.000000
vn -1.000000 -0.000003 0.000000
vn 1.000000 0.000003 0.000000
vn -0.707108 0.707106 0.000000
vn 0.707106 0.707108 0.000000
vn -0.048904 0.000000 -0.998804
vn -0.048904 0.000000 -0.998803
vn -0.048904 0.000000 -0.998803
vn -0.048904 0.000000 -0.998804
vn -1.000000 0.000000 0.000000
vn -1.000000 0.000000 0.000000
vn 0.000000 -1.000000 0.000000
vn 0.000000 -1.000000 0.000000
vn 0.000000 -1.000000 0.000000
vn 0.000000 -1.000000 0.000000
vn -1.000000 0.000000 0.000000
vn -1.000000 0.000000 0.000000
vn 1.000000 0.000000 0.000000
vn 1.000000 0.000000 0.000000
vn 1.000000 0.000000 0.000000
vn 1.000000 0.000000 0.000000
vn 0.000000 -1.000000 0.000000
vn 0.000000 -1.000000 0.000000
vn 0.000000 -1.000000 0.000000
vn 0.000000 -1.000000 0.000000
vn 0.000048 0.000000 1.000000
vn 0.000028 0.000300 1.000000
vn 0.000047 0.000013 1.000000
vn 0.000029 0.000288 1.000000
vn -0.001798 0.000000 -0.999998
vn -0.001798 0.000000 -0.999998
vn -0.001798 0.000000 -0.999998
vn -0.001798 0.000000 -0.999998
vn 0.709375 -0.704799 0.006820
vn -0.705272 -0.708932 -0.002665
vn 0.706250 0.707933 0.006565
vn -0.710354 0.703844 0.000639
vn 0.708446 -0.705732 0.006812
vn -0.706661 -0.707547 -0.002624
vn 0.705475 0.708705 0.006557
vn -0.704961 0.709246 0.000587
vn 0.708330 -0.705849 0.006766
vn -0.704800 -0.709401 -0.002670
vn 0.705828 0.708355 0.006341
vn -0.710611 0.703585 0.000521
vn 0.708327 -0.705852 0.006765
vn -0.707128 -0.707081 -0.002633
vn 0.705818 0.708364 0.006339
vn -0.705956 0.708255 0.000465
vn 0.708329 -0.705850 0.006766
vn -0.704803 -0.709398 -0.002670
vn 0.705819 0.708364 0.006310
vn -0.710611 0.703585 0.000528
vn 0.708326 -0.705853 0.006765
vn -0.707126 -0.707082 -0.002633
vn 0.705828 0.708355 0.006310
vn -0.705957 0.708255 0.000472
vn 0.708321 -0.705858 0.006804
vn -0.704805 -0.709396 -0.002663
vn 0.705818 0.708365 0.006310
vn -0.710612 0.703584 0.000528
vn 0.708333 -0.705846 0.006803
vn -0.707123 -0.707085 -0.002625
vn 0.705828 0.708355 0.006311
vn -0.705958 0.708254 0.000472
vn 0.708331 -0.705848 0.006773
vn -0.704792 -0.709409 -0.002640
vn 0.705828 0.708355 0.006341
vn -0.710612 0.703584 0.000528
vn 0.708323 -0.705855 0.006773
vn -0.707135 -0.707074 -0.002602
vn 0.705818 0.708365 0.006340
vn -0.705958 0.708254 0.000473
vn -0.948187 0.317621 -0.007629
vn 0.949946 0.312380 0.004691
vn -0.220076 0.000068 0.975483
vn 0.201831 -0.000650 0.979420
vn -0.583699 -0.576508 0.571782
vn 0.573165 -0.578417 0.580444
vn -0.999955 0.001772 -0.009318
vn 0.999997 -0.001633 0.001880
vn -0.705253 0.708943 -0.004261
vn 0.705577 0.708632 0.001401
vn -0.708327 -0.705851 -0.006790
vn 0.703671 -0.710526 -0.000229
vn -0.009272 -0.000317 0.999957
vn -0.009272 -0.000318 0.999957
vn -0.009272 -0.000318 0.999957
vn -0.009272 -0.000318 0.999957
vn -0.009271 -0.000308 0.999957
vn -0.009276 -0.000313 0.999957
vn -0.009273 -0.000310 0.999957
vn -0.009273 -0.000311 0.999957
vn -0.009270 -0.000313 0.999957
vn -0.009271 -0.000313 0.999957
vn -0.009271 -0.000313 0.999957
vn -0.009271 -0.000313 0.999957
vn 0.009330 0.001761 -0.999955
vn 0.009326 0.001761 -0.999955
vn 0.009275 0.001755 -0.999955
vn 0.009271 0.001755 -0.999955
vn 0.009275 -0.000312 -0.999957
vn 0.009275 -0.000312 -0.999957
vn 0.009273 -0.000313 -0.999957
vn 0.009273 -0.000313 -0.999957
vn 0.009273 -0.000313 -0.999957
vn 0.009273 -0.000313 -0.999957
vn 0.009274 -0.000312 -0.999957
vn 0.009274 -0.000312 -0.999957
vn 0.009275 -0.000312 -0.999957
vn 0.009275 -0.000312 -0.999957
vn 0.009273 -0.000313 -0.999957
vn 0.009273 -0.000313 -0.999957
vn 0.009275 -0.000312 -0.999957
vn 0.009275 -0.000312 -0.999957
vn 0.009274 -0.000313 -0.999957
vn 0.009274 -0.000313 -0.999957
vn 0.009273 0.000313 -0.999957
vn 0.009273 0.000313 -0.999957
vn 0.009273 0.000314 -0.999957
vn 0.009274 0.000313 -0.999957
vn 0.009273 0.000313 -0.999957
vn 0.009273 0.000313 -0.999957
vn 0.009274 0.000313 -0.999957
vn 0.009275 0.000312 -0.999957
vn -0.948187 0.317621 -0.007629
vn 0.949947 0.312377 0.004719
vn -0.220074 0.000069 0.975483
vn 0.201831 -0.000650 0.979420
vn -0.583699 -0.576508 0.571782
vn 0.573159 -0.578420 0.580448
vn -0.999955 0.001773 -0.009275
vn 0.999997 -0.001633 0.001880
vn -0.705253 0.708943 -0.004261
vn 0.705568 0.708641 0.001391
vn -0.708327 -0.705851 -0.006790
vn 0.703674 -0.710523 -0.000231
vn 0.009273 0.000313 -0.999957
vn 0.009273 0.000313 -0.999957
vn 0.009273 0.000314 -0.999957
vn 0.009274 0.000313 -0.999957
vn 0.009273 0.000313 -0.999957
vn 0.009273 0.000313 -0.999957
vn 0.009274 0.000313 -0.999957
vn 0.009275 0.000312 -0.999957
vn -0.948187 0.317621 -0.007629
vn 0.949947 0.312377 0.004719
vn -0.220074 0.000069 0.975483
vn 0.201831 -0.000650 0.979420
vn -0.583699 -0.576507 0.571782
vn 0.573159 -0.578420 0.580448
vn -0.999955 0.001773 -0.009275
vn 0.999997 -0.001633 0.001880
vn -0.705253 0.708943 -0.004261
vn 0.705568 0.708641 0.001391
vn -0.708327 -0.705851 -0.006790
vn 0.703674 -0.710523 -0.000231
vn 0.009273 0.000313 -0.999957
vn 0.009273 0.000313 -0.999957
vn 0.009273 0.000314 -0.999957
vn 0.009274 0.000313 -0.999957
vn 0.009273 0.000313 -0.999957
vn 0.009273 0.000313 -0.999957
vn 0.009274 0.000313 -0.999957
vn 0.009275 0.000312 -0.999957
vn 1.000000 0.000000 0.000000
vn 1.000000 0.000000 0.000000
vn 1.000000 0.000000 0.000000
vn 1.000000 0.000000 0.000000
vn -0.298778 -0.954323 0.000000
vn -0.884672 -0.466214 0.000000
vn -0.954294 0.298869 0.000000
vn -0.674789 0.211333 0.707106
vn -0.723519 -0.378397 0.577352
vn -0.211190 -0.674559 0.707368
vn 0.211565 0.675445 0.706409
vn 0.211760 0.675804 0.706007
vn 0.463438 -0.886129 0.000000
vn 0.954292 -0.298874 0.000000
vn 0.378396 -0.723522 0.577349
vn 0.674787 -0.211336 0.707107
vn 0.954301 -0.298848 0.000000
vn 0.954301 -0.298848 0.000000
vn -0.298778 -0.954323 0.000000
vn -0.954281 0.298912 0.000000
vn -0.954281 0.298912 0.000000
vn -0.211345 -0.675056 0.706847
vn 0.630298 -0.197383 0.750842
vn 0.722378 -0.226219 0.653449
vn -0.630315 0.197435 0.750815
vn -0.722366 0.226269 0.653445
vn 0.298536 0.954394 -0.002700
vn 0.298925 0.954277 0.000000
vn 0.298925 0.954277 0.000000
vn 0.298925 0.954277 0.000000
vn 0.298925 0.954277 0.000000
vn 0.298655 0.954357 -0.002654
vn 0.988298 -0.152539 0.000000
vn 0.593417 -0.804895 0.000000
vn -0.152632 -0.988283 0.000000
vn -0.107927 -0.698822 0.707106
vn 0.482462 -0.658708 0.577350
vn 0.698579 -0.107822 0.707363
vn -0.699503 0.107983 0.706424
vn -0.699921 0.108131 0.705988
vn 0.806750 0.590893 0.000000
vn 0.152632 0.988283 0.000000
vn 0.658709 0.482462 0.577350
vn 0.107927 0.698821 0.707108
vn 0.152590 0.988290 0.000000
vn 0.152590 0.988290 0.000000
vn 0.988297 -0.152539 0.000000
vn -0.152632 -0.988283 0.000000
vn -0.152632 -0.988283 0.000000
vn 0.699088 -0.107901 0.706848
vn 0.100782 0.652744 0.750845
vn 0.115506 0.748106 0.653449
vn -0.100815 -0.652769 0.750819
vn -0.115540 -0.748114 0.653434
vn -0.988352 0.152162 -0.002704
vn -0.988275 0.152684 0.000000
vn -0.988275 0.152684 0.000000
vn -0.988275 0.152684 0.000000
vn -0.988275 0.152684 0.000000
vn -0.988332 0.152292 -0.002656
vn 0.196572 -0.980489 0.000000
vn -0.551768 -0.833998 0.000000
vn -0.980502 -0.196507 0.000000
vn -0.693317 -0.138951 0.707109
vn -0.452647 -0.679541 0.577351
vn 0.138947 -0.693060 0.707362
vn -0.139068 0.693995 0.706422
vn -0.139072 0.694411 0.706011
vn 0.832261 -0.554384 0.000000
vn 0.980505 0.196492 0.000000
vn 0.679538 -0.452653 0.577350
vn 0.693328 0.138942 0.707101
vn 0.980502 0.196509 0.000000
vn 0.980502 0.196509 0.000000
vn 0.196572 -0.980489 0.000000
vn -0.980510 -0.196471 0.000000
vn -0.980510 -0.196471 0.000000
vn 0.139048 -0.693561 0.706852
vn 0.647602 0.129790 0.750843
vn 0.742206 0.148751 0.653455
vn -0.647638 -0.129772 0.750816
vn -0.742229 -0.148725 0.653435
vn -0.196858 0.980428 -0.002675
vn -0.196736 0.980453 -0.002630
vn 0.081055 -0.996710 0.000000
vn -0.645028 -0.764159 0.000000
vn -0.996703 -0.081134 0.000000
vn -0.704767 -0.057370 0.707115
vn -0.528614 -0.622280 0.577352
vn 0.057296 -0.704552 0.707335
vn -0.057531 0.705393 0.706478
vn -0.057526 0.705924 0.705947
vn 0.762127 -0.647427 0.000000
vn 0.996705 0.081110 0.000000
vn 0.622274 -0.528623 0.577350
vn 0.704791 0.057355 0.707093
vn 0.996711 0.081039 0.000000
vn 0.996711 0.081039 0.000000
vn 0.081055 -0.996710 0.000000
vn -0.996709 -0.081065 0.000000
vn -0.996709 -0.081065 0.000000
vn 0.057332 -0.705000 0.706886
vn 0.658338 0.053527 0.750817
vn 0.754451 0.061342 0.653484
vn -0.658346 -0.053545 0.750808
vn -0.754472 -0.061363 0.653457
vn -0.081527 0.996668 -0.002635
vn -0.081450 0.996674 -0.002606
vn 0.000000 -1.000000 0.000000
vn 0.000000 -1.000000 0.000000
vn 0.000000 -1.000000 0.000000
vn 0.000000 -1.000000 0.000000
vn 0.000000 -1.000000 0.000000
vn 0.000000 -1.000000 0.000000
vn 0.000000 -1.000000 0.000000
vn 0.000000 -1.000000 0.000000
vn 0.000000 -1.000000 0.000000
vn 0.000000 -1.000000 0.000000
vn 0.000000 -1.000000 0.000000
vn 0.000000 -1.000000 0.000000
vn 1.000000 0.000000 0.000000
vn 1.000000 0.000000 0.000000
vn 0.000000 -1.000000 0.000000
vn 0.000000 -1.000000 0.000000
vn -1.000000 -0.000005 0.000000
vn -1.000000 -0.000005 0.000000
vn 1.000000 0.000000 0.000000
vn 1.000000 0.000000 0.000000
vn 0.000000 -1.000000 0.000000
vn 0.000000 -1.000000 0.000000
vn -1.000000 -0.000005 0.000000
vn -1.000000 -0.000005 -0.000000
vn 1.000000 0.000000 0.000000
vn 1.000000 0.000000 0.000000
vn 0.000000 -1.000000 0.000000
vn 0.000000 -1.000000 0.000000
vn -1.000000 0.000000 0.000001
vn -1.000000 -0.000000 0.000001
vn 1.000000 0.000000 0.000000
vn 1.000000 0.000000 0.000000
vn 0.000000 -1.000000 0.000000
vn 0.000000 -1.000000 0.000000
vn -1.000000 0.000000 0.000000
vn -1.000000 0.000000 0.000000
vn 1.000000 0.000000 0.000000
vn 1.000000 0.000000 0.000000
vn 0.000000 -1.000000 0.000000
vn 0.000000 -1.000000 0.000000
vn -1.000000 0.000000 0.000000
vn -1.000000 0.000000 0.000000
vn 1.000000 0.000000 0.000000
vn 1.000000 0.000000 0.000000
vn 0.000000 -1.000000 0.000000
vn 0.000000 -1.000000 0.000000
vn -1.000000 0.000005 -0.000000
vn -1.000000 0.000004 -0.000002
vn 1.000000 0.000000 0.000000
vn 1.000000 0.000000 0.000000
vn 0.000000 -1.000000 0.000000
vn 0.000000 -1.000000 0.000000
vn -1.000000 0.000003 -0.000003
vn -1.000000 0.000000 -0.000007
vn 1.000000 0.000000 0.000000
vn 1.000000 0.000000 0.000000
vn 0.000000 -1.000000 0.000000
vn 0.000000 -1.000000 0.000000
vn -1.000000 0.000000 0.000000
vn -1.000000 0.000000 0.000000
vn 1.000000 0.000000 0.000000
vn 1.000000 0.000000 0.000000
vn 0.000000 -1.000000 0.000000
vn 0.000000 -1.000000 0.000000
vn -1.000000 -0.000005 0.000000
vn -1.000000 -0.000005 0.000000
vn -1.000000 0.000000 0.000000
vn -1.000000 0.000000 0.000000
vn 0.000000 -1.000000 0.000000
vn 0.000000 -1.000000 0.000000
vn 0.000000 -1.000000 0.000000
vn 0.000000 -1.000000 0.000000
vn 0.001856 0.000000 0.999998
vn -1.000000 0.000000 0.000000
vn -1.000000 0.000000 0.000000
vn 0.001087 0.000679 0.999999
vn 0.001441 0.000366 0.999999
vn 0.001502 0.000313 0.999999
vn 1.000000 0.000000 0.000000
vn 1.000000 0.000000 0.000000
vn -1.000000 0.000000 -0.000002
vn -1.000000 0.000001 -0.000001
vn 0.000000 -1.000000 0.000000
vn 0.000000 -1.000000 0.000000
vn 0.000000 -1.000000 0.000000
vn 0.000000 -1.000000 0.000000
vn -1.000000 0.000000 0.000000
vn -1.000000 -0.000000 0.000000
vn 1.000000 0.000000 0.000000
vn 1.000000 0.000000 0.000000
vn 1.000000 0.000000 0.000000
vn 1.000000 0.000000 0.000000
vn 1.000000 0.000000 0.000000
vn 1.000000 0.000000 0.000000
vn -1.000000 0.000000 0.000000
vn -1.000000 0.000000 0.000000
vn 0.000000 -1.000000 0.000000
vn 0.000000 -1.000000 0.000000
vn 0.000000 -1.000000 0.000000
vn 0.000000 -1.000000 0.000000
vn 0.001297 0.000000 0.999999
vn -1.000000 0.000000 0.000000
vn -1.000000 0.000000 0.000000
vn 0.000761 0.000408 1.000000
vn 0.000983 0.000239 1.000000
vn 0.001075 0.000169 0.999999
vn 1.000000 0.000000 0.000000
vn 1.000000 0.000000 0.000000
vn 1.000000 0.000000 0.000000
vn 1.000000 0.000000 0.000000
vn 0.000000 -1.000000 0.000000
vn 0.000000 -1.000000 0.000000
vn 0.000000 -1.000000 0.000000
vn 0.000000 -1.000000 0.000000
vn 0.000048 0.000000 1.000000
vn 0.000028 0.000300 1.000000
vn 0.000047 0.000013 1.000000
vn 0.000029 0.000288 1.000000
vn -0.001798 0.000000 -0.999998
vn -0.001798 0.000000 -0.999998
vn -0.001798 0.000000 -0.999998
vn -0.001798 0.000000 -0.999998
vn 0.000000 0.000000 -1.000000
vn 0.000000 0.000000 -1.000000
vn 0.000000 0.000000 -1.000000
vn 0.000000 0.000000 -1.000000
vn -1.000000 0.000000 0.000000
vn -1.000000 0.000000 0.000000
vn 0.000000 -1.000000 0.000000
vn 0.000000 -1.000000 0.000000
vn 0.000000 -1.000000 0.000000
vn 0.000000 -1.000000 0.000000
vn -1.000000 0.000000 0.000000
vn -1.000000 0.000000 0.000000
vn 1.000000 0.000000 0.000000
vn 1.000000 0.000000 0.000000
vn 1.000000 0.000000 0.000000
vn 1.000000 0.000000 0.000000
vn 0.000000 -1.000000 0.000000
vn 0.000000 -1.000000 0.000000
vn 0.000000 -1.000000 0.000000
vn 0.000000 -1.000000 0.000000
vn 0.000048 0.000000 1.000000
vn 0.000028 0.000300 1.000000
vn 0.000047 0.000013 1.000000
vn 0.000029 0.000288 1.000000
vn -0.001798 0.000000 -0.999998
vn -0.001798 0.000000 -0.999998
vn -0.001798 0.000000 -0.999998
vn -0.001798 0.000000 -0.999998
vn 1.000000 0.000000 0.000000
vn 1.000000 0.000000 0.000000
vn 1.000000 0.000000 0.000000
vn 1.000000 0.000000 0.000000
vn 1.000000 0.000000 0.000000
vn 1.000000 0.000000 0.000000
vn 1.000000 0.000000 0.000000
vn 1.000000 0.000000 0.000000
vn -1.000000 0.000000 0.000000
vn -1.000000 0.000000 0.000000
vn -1.000000 0.000000 0.000000
vn -1.000000 0.000000 0.000000
vn -1.000000 0.000000 0.000000
vn -1.000000 0.000000 0.000000
vn -1.000000 0.000000 0.000000
vn -1.000000 0.000000 0.000000
vn 1.000000 0.000000 0.000000
vn 1.000000 0.000000 0.000000
vn 1.000000 0.000000 0.000000
vn 1.000000 0.000000 0.000000
vn 1.000000 0.000000 0.000000
vn 1.000000 0.000000 0.000000
vn 1.000000 0.000000 0.000000
vn 1.000000 0.000000 0.000000
vn -0.048904 0.000000 -0.998804
vn -0.048904 0.000000 -0.998803
vn -0.048904 0.000000 -0.998803
vn -0.048904 0.000000 -0.998804
vn -1.000000 0.000000 0.000000
vn -1.000000 0.000000 0.000000
vn 0.000000 -1.000000 0.000000
vn 0.000000 -1.000000 0.000000
vn 0.000000 -1.000000 0.000000
vn 0.000000 -1.000000 0.000000
vn -1.000000 0.000000 0.000000
vn -1.000000 0.000000 0.000000
vn 1.000000 0.000000 0.000000
vn 1.000000 0.000000 0.000000
vn 1.000000 0.000000 0.000000
vn 1.000000 0.000000 0.000000
vn 0.000000 -1.000000 0.000000
vn 0.000000 -1.000000 0.000000
vn 0.000000 -1.000000 0.000000
vn 0.000000 -1.000000 0.000000
vn 0.000048 0.000000 1.000000
vn 0.000028 0.000300 1.000000
vn 0.000047 0.000013 1.000000
vn 0.000029 0.000288 1.000000
vn -0.001798 0.000000 -0.999998
vn -0.001798 0.000000 -0.999998
vn -0.001798 0.000000 -0.999998
vn -0.001798 0.000000 -0.999998
vn 1.000000 0.000000 0.000000
vn 1.000000 0.000000 0.000000
vn 1.000000 0.000000 0.000000
vn 1.000000 0.000000 0.000000
vn 1.000000 0.000000 0.000000
vn 1.000000 0.000000 0.000000
vn 0.000000 -1.000000 0.000000
vn 0.000000 -1.000000 0.000000
vn -1.000000 -0.000005 0.000000
vn -1.000000 -0.000005 0.000000
vn 1.000000 0.000000 0.000000
vn 1.000000 0.000000 0.000000
vn 0.000000 -1.000000 0.000000
vn 0.000000 -1.000000 0.000000
vn -1.000000 -0.000005 0.000000
vn -1.000000 -0.000005 0.000000
vn 1.000000 0.000000 0.000000
vn 1.000000 0.000000 0.000000
vn 0.000000 -1.000000 0.000000
vn 0.000000 -1.000000 0.000000
vn -1.000000 0.000000 0.000001
vn -1.000000 -0.000000 0.000001
vn 1.000000 0.000000 0.000000
vn 1.000000 0.000000 0.000000
vn 0.000000 -1.000000 0.000000
vn 0.000000 -1.000000 0.000000
vn -1.000000 0.000000 0.000000
vn -1.000000 0.000000 0.000000
vn 1.000000 0.000000 0.000000
vn 1.000000 0.000000 0.000000
vn 0.000000 -1.000000 0.000000
vn 0.000000 -1.000000 0.000000
vn -1.000000 0.000000 0.000000
vn -1.000000 0.000000 0.000000
vn 1.000000 0.000000 0.000000
vn 1.000000 0.000000 0.000000
vn 0.000000 -1.000000 0.000000
vn 0.000000 -1.000000 0.000000
vn -1.000000 0.000005 -0.000000
vn -1.000000 0.000004 -0.000002
vn 1.000000 0.000000 0.000000
vn 1.000000 0.000000 0.000000
vn 0.000000 -1.000000 0.000000
vn 0.000000 -1.000000 0.000000
vn -1.000000 0.000003 -0.000003
vn -1.000000 0.000000 -0.000007
vn 1.000000 0.000000 0.000000
vn 1.000000 0.000000 0.000000
vn 0.000000 -1.000000 0.000000
vn 0.000000 -1.000000 0.000000
vn -1.000000 0.000000 0.000000
vn -1.000000 0.000000 0.000000
vn 1.000000 0.000000 0.000000
vn 1.000000 0.000000 0.000000
vn 0.000000 -1.000000 0.000000
vn 0.000000 -1.000000 0.000000
vn -1.000000 -0.000005 0.000000
vn -1.000000 -0.000005 0.000000
vn 1.000000 0.000000 0.000000
vn 1.000000 0.000000 0.000000
vn 1.000000 0.000000 0.000000
vn 1.000000 0.000000 0.000000
vn 1.000000 0.000000 0.000000
vn 1.000000 0.000000 0.000000
vn 1.000000 0.000000 0.000000
vn 1.000000 0.000000 0.000000
vn 1.000000 0.000000 0.000000
vn 1.000000 0.000000 0.000000
vn 1.000000 0.000000 0.000000
vn 1.000000 0.000000 0.000000
vn 1.000000 0.000000 0.000000
vn 1.000000 0.000000 0.000000
vn 1.000000 0.000000 0.000000
vn 1.000000 0.000000 0.000000
vn 1.000000 0.000000 0.000000
vn 1.000000 0.000000 0.000000
vn 1.000000 0.000000 0.000000
vn 1.000000 0.000000 0.000000
vn 1.000000 0.000000 0.000000
vn 1.000000 0.000000 0.000000
vn 1.000000 0.000000 0.000000
vn 1.000000 0.000000 0.000000
vn 1.000000 0.000000 0.000000
vn 1.000000 0.000000 0.000000
vn 1.000000 0.000000 0.000000
vn 1.000000 0.000000 0.000000
vn 1.000000 0.000000 0.000000
vn 1.000000 0.000000 0.000000
vn 1.000000 0.000000 0.000000
vn 1.000000 0.000000 0.000000
vn -0.606176 0.795330 0.000000
vn 0.795330 0.606176 0.000000
vn -0.991013 0.133765 0.000000
vn 0.991013 -0.133765 0.000000
vn -0.606176 0.795330 0.000000
vn 0.795330 0.606176 0.000000
vn -0.991013 0.133765 0.000000
vn 0.991013 -0.133765 0.000000
vn -0.606176 0.795330 0.000000
vn 0.795330 0.606176 0.000000
vn -0.991013 0.133765 0.000000
vn 0.991013 -0.133765 0.000000
vn -0.606176 0.795330 0.000000
vn 0.795330 0.606176 0.000000
vn -0.991013 0.133765 0.000000
vn 0.991013 -0.133765 0.000000
vn -1.000000 -0.000003 0.000000
vn 1.000000 0.000003 0.000000
vn -0.707108 0.707106 0.000000
vn 0.707106 0.707108 0.000000
vn -0.707106 -0.000002 0.707107
vn 0.707107 0.000002 0.707106
vn -0.577351 0.577350 0.577350
vn 0.577349 0.577351 0.577350
vn -0.940271 0.340427 0.000000
vn 0.940271 -0.340427 0.000000
vn -0.424156 0.905589 0.000000
vn 0.905589 0.424156 0.000000
vn -0.940271 0.340427 0.000000
vn 0.940271 -0.340427 0.000000
vn -0.424156 0.905589 0.000000
vn 0.905589 0.424156 0.000000
vn 0.487286 -0.873242 0.000000
vn -0.269823 -0.962910 0.000000
vn -0.873205 -0.487353 0.000000
vn -0.617442 -0.344607 0.707115
vn -0.222771 -0.785519 0.577350
vn 0.344452 -0.617276 0.707336
vn -0.345037 0.617916 0.706491
vn -0.345290 0.618423 0.705923
vn 0.962058 -0.272843 0.000000
vn 0.873210 0.487343 0.000000
vn 0.785517 -0.222775 0.577351
vn 0.617462 0.344609 0.707096
vn 0.873286 0.487208 0.000000
vn 0.873286 0.487208 0.000000
vn 0.487286 -0.873242 0.000000
vn -0.873244 -0.487283 0.000000
vn -0.873244 -0.487283 0.000000
vn 0.344671 -0.617667 0.706887
vn 0.576830 0.321814 0.750802
vn 0.661013 0.368780 0.653500
vn -0.576795 -0.321860 0.750809
vn -0.661009 -0.368853 0.653463
vn -0.487645 0.873038 -0.002612
vn -0.487608 0.873059 -0.002597
vn 0.131067 -0.991373 0.000000
vn -0.605795 -0.795621 0.000000
vn -0.991367 -0.131117 0.000000
vn -0.700992 -0.092712 0.707117
vn -0.496662 -0.648069 0.577350
vn 0.092648 -0.700774 0.707342
vn -0.092983 0.701571 0.706507
vn -0.093077 0.702192 0.705878
vn 0.793716 -0.608289 0.000000
vn 0.991369 0.131105 0.000000
vn 0.648065 -0.496665 0.577352
vn 0.701017 0.092707 0.707093
vn 0.991389 0.130950 0.000000
vn 0.991389 0.130950 0.000000
vn 0.131067 -0.991373 0.000000
vn -0.991376 -0.131050 0.000000
vn -0.991376 -0.131050 0.000000
vn 0.092708 -0.701231 0.706881
vn 0.654842 0.086497 0.750800
vn 0.750409 0.099120 0.653500
vn -0.654820 -0.086561 0.750812
vn -0.750431 -0.099200 0.653462
vn -0.131333 0.991335 -0.002578
vn -0.131350 0.991333 -0.002585
vn 0.679636 0.733550 0.000000
vn 0.733555 -0.679630 0.000000
vn -0.733548 0.679637 0.000000
vn -0.679632 -0.733553 0.000000
vn 0.554919 0.598940 0.577352
vn 0.598946 -0.554916 0.577349
vn -0.598940 0.554923 0.577349
vn -0.554917 -0.598943 0.577351
vn 0.679636 0.733550 0.000000
vn 0.733555 -0.679630 0.000000
vn -0.733548 0.679637 0.000000
vn -0.679632 -0.733553 0.000000
vn 0.554919 0.598940 0.577352
vn 0.598946 -0.554916 0.577349
vn -0.598940 0.554923 0.577349
vn -0.554917 -0.598943 0.577351
vn -0.663518 0.748160 0.000000
vn 0.748155 0.663524 0.000000
vn -0.748159 -0.663520 0.000000
vn 0.663526 -0.748154 0.000000
vn -0.541760 0.610870 0.577351
vn 0.610866 0.541765 0.577350
vn -0.610870 -0.541762 0.577349
vn 0.541766 -0.610864 0.577351
vn 0.000000 -1.000000 0.000000
vn 0.000000 -1.000000 0.000000
vn 0.000000 -1.000000 0.000000
vn 0.000000 -1.000000 0.000000
vn -0.133740 -0.991016 0.000000
vn -0.133740 -0.991017 0.000000
vn -0.133740 -0.991017 0.000000
vn -0.133740 -0.991016 0.000000
vn -0.133740 -0.991016 0.000000
vn -0.133740 -0.991017 0.000000
vn -0.133740 -0.991017 0.000000
vn -0.133740 -0.991016 0.000000
vn 0.000000 -1.000000 0.000000
vn 0.000000 -1.000000 0.000000
vn 0.000000 -1.000000 0.000000
vn 0.000000 -1.000000 0.000000
vn -0.340423 -0.940273 0.000000
vn -0.340423 -0.940273 0.000000
vn -0.340423 -0.940273 0.000000
vn -0.340423 -0.940273 0.000000
vn 0.000000 0.000000 1.000000
vn 0.000000 0.000000 1.000000
vn 0.000000 0.000000 1.000000
vn 0.000000 0.000000 1.000000
vn 0.000000 0.000000 1.000000
vn 0.000000 0.000000 1.000000
vn 0.000000 0.000000 1.000000
vn 0.000000 0.000000 1.000000
vn 0.000000 0.000000 1.000000
vn 0.000000 0.000000 1.000000
vn 0.000000 0.000000 1.000000
vn 0.000000 0.000000 1.000000
vn 0.000000 0.000000 1.000000
vn 0.000000 0.000000 1.000000
vn 0.000000 0.000000 1.000000
vn 0.000000 0.000000 1.000000
g fff02c13_00295_0089c359_e21
f 665/159/665 17/2/17 20/2/20
f 636/130/636 19/2/19 18/2/18
f 23/1/23 633/127/633 24/1/24
f 15/1/15 667/161/667 16/1/16
f 22/1/22 21/1/21 638/132/638
f 26/1/26 664/158/664 25/1/25
f 622/3/622 621/3/621 624/3/624
f 624/3/624 623/3/623 622/3/622
f 626/3/626 625/3/625 628/3/628
f 628/3/628 627/3/627 626/3/626
f 630/3/630 629/3/629 632/3/632
f 632/3/632 631/3/631 630/3/630
f 23/1/23 634/128/634 633/127/633
f 639/133/639 681/127/681 682/128/682
f 684/130/684 683/129/683 642/136/642
f 635/129/635 636/130/636 18/2/18
f 685/131/685 686/132/686 644/138/644
f 22/1/22 638/132/638 637/131/637
f 640/134/640 639/133/639 682/128/682
f 645/139/645 639/133/639 640/134/640
f 642/136/642 641/135/641 648/142/648
f 642/136/642 683/129/683 641/135/641
f 643/137/643 644/138/644 650/144/650
f 685/131/685 644/138/644 643/137/643
f 646/140/646 645/139/645 640/134/640
f 651/145/651 675/139/675 676/140/676
f 678/142/678 677/141/677 654/148/654
f 648/142/648 641/135/641 647/141/647
f 679/143/679 680/144/680 656/150/656
f 643/137/643 650/144/650 649/143/649
f 652/146/652 651/145/651 676/140/676
f 657/151/657 651/145/651 652/146/652
f 654/148/654 653/147/653 660/154/660
f 654/148/654 677/141/677 653/147/653
f 655/149/655 656/150/656 662/156/662
f 679/143/679 656/150/656 655/149/655
f 658/152/658 657/151/657 652/146/652
f 663/157/663 669/151/669 670/152/670
f 672/154/672 671/153/671 666/160/666
f 660/154/660 653/147/653 659/153/659
f 673/155/673 674/156/674 668/162/668
f 655/149/655 662/156/662 661/155/661
f 664/158/664 663/157/663 670/152/670
f 26/1/26 663/157/663 664/158/664
f 666/160/666 665/159/665 20/2/20
f 666/160/666 671/153/671 665/159/665
f 667/161/667 668/162/668 16/1/16
f 673/155/673 668/162/668 667/161/667
f 859/159/859 703/2/703 706/2/706
f 830/130/830 705/2/705 704/2/704
f 709/1/709 827/127/827 710/1/710
f 701/1/701 861/161/861 702/1/702
f 708/1/708 707/1/707 832/132/832
f 712/1/712 858/158/858 711/1/711
f 709/1/709 828/128/828 827/127/827
f 833/133/833 875/127/875 876/128/876
f 878/130/878 877/129/877 836/136/836
f 829/129/829 830/130/830 704/2/704
f 879/131/879 880/132/880 838/138/838
f 708/1/708 832/132/832 831/131/831
f 834/134/834 833/133/833 876/128/876
f 839/139/839 833/133/833 834/134/834
f 836/136/836 835/135/835 842/142/842
f 836/136/836 877/129/877 835/135/835
f 837/137/837 838/138/838 844/144/844
f 879/131/879 838/138/838 837/137/837
f 840/140/840 839/139/839 834/134/834
f 845/145/845 869/139/869 870/140/870
f 872/142/872 871/141/871 848/148/848
f 842/142/842 835/135/835 841/141/841
f 873/143/873 874/144/874 850/150/850
f 837/137/837 844/144/844 843/143/843
f 846/146/846 845/145/845 870/140/870
f 851/151/851 845/145/845 846/146/846
f 848/148/848 847/147/847 854/154/854
f 848/148/848 871/141/871 847/147/847
f 849/149/849 850/150/850 856/156/856
f 873/143/873 850/150/850 849/149/849
f 852/152/852 851/151/851 846/146/846
f 857/157/857 863/151/863 864/152/864
f 866/154/866 865/153/865 860/160/860
f 854/154/854 847/147/847 853/153/853
f 867/155/867 868/156/868 862/162/862
f 849/149/849 856/156/856 855/155/855
f 858/158/858 857/157/857 864/152/864
f 712/1/712 857/157/857 858/158/858
f 860/160/860 859/159/859 706/2/706
f 860/160/860 865/153/865 859/159/859
f 861/161/861 862/162/862 702/1/702
f 867/155/867 862/162/862 861/161/861
f 883/151/883 881/145/881 882/146/882
f 884/152/884 883/151/883 882/146/882
f 887/151/887 886/146/886 885/145/885
f 888/152/888 886/146/886 887/151/887
f 910/3/910 911/3/911 909/3/909
f 911/3/911 910/3/910 912/3/912
f 908/152/908 906/146/906 907/151/907
f 907/151/907 906/146/906 905/145/905
f 891/151/891 889/145/889 890/146/890
f 892/152/892 891/151/891 890/146/890
f 895/151/895 894/146/894 893/145/893
f 896/152/896 894/146/894 895/151/895
f 899/3/899 898/3/898 900/3/900
f 898/3/898 899/3/899 897/3/897
f 903/151/903 901/145/901 902/146/902
f 904/152/904 903/151/903 902/146/902
g fff02c13_00295_0089c359_e18
f 12/3/12 11/3/11 10/3/10
f 9/3/9 8/3/8 2/3/2
f 1/3/1 9/3/9 2/3/2
f 12/3/12 7/3/7 11/3/11
f 6/3/6 5/3/5 4/3/4
f 4/3/4 3/3/3 6/3/6
f 27/3/27 14/3/14 28/3/28
f 14/3/14 27/3/27 13/3/13
f 40/3/40 39/3/39 38/3/38
f 37/3/37 36/3/36 30/3/30
f 29/3/29 37/3/37 30/3/30
f 40/3/40 35/3/35 39/3/39
f 34/3/34 33/3/33 32/3/32
f 32/3/32 31/3/31 34/3/34
f 43/3/43 42/3/42 44/3/44
f 42/3/42 43/3/43 41/3/41
f 52/3/52 51/3/51 50/3/50
f 46/3/46 45/3/45 48/3/48
f 48/3/48 47/3/47 46/3/46
f 52/3/52 49/3/49 51/3/51
f 54/4/54 56/3/56 55/3/55
f 55/3/55 53/4/53 54/4/54
f 58/5/58 60/3/60 59/3/59
f 59/3/59 57/5/57 58/5/58
f 168/3/168 167/3/167 162/3/162
f 161/3/161 168/3/168 162/3/162
f 166/3/166 165/3/165 164/3/164
f 164/3/164 163/3/163 166/3/166
f 171/3/171 170/3/170 172/3/172
f 170/3/170 171/3/171 169/3/169
f 180/3/180 179/3/179 178/3/178
f 174/3/174 173/3/173 176/3/176
f 176/3/176 175/3/175 174/3/174
f 180/3/180 177/3/177 179/3/179
f 182/4/182 184/3/184 183/3/183
f 183/3/183 181/4/181 182/4/182
f 323/3/323 322/3/322 324/3/324
f 322/3/322 323/3/323 321/3/321
f 327/3/327 326/3/326 328/3/328
f 326/3/326 327/3/327 325/3/325
f 331/3/331 332/3/332 330/3/330
f 330/3/330 329/3/329 331/3/331
f 335/3/335 336/3/336 334/3/334
f 334/3/334 333/3/333 335/3/335
f 339/3/339 338/3/338 340/3/340
f 338/3/338 339/3/339 337/3/337
f 343/3/343 342/3/342 344/3/344
f 342/3/342 343/3/343 341/3/341
f 354/5/354 356/3/356 355/3/355
f 355/3/355 353/5/353 354/5/354
f 364/3/364 363/3/363 358/3/358
f 357/3/357 364/3/364 358/3/358
f 362/3/362 361/3/361 360/3/360
f 360/3/360 359/3/359 362/3/362
f 367/3/367 366/3/366 368/3/368
f 366/3/366 367/3/367 365/3/365
f 376/3/376 375/3/375 374/3/374
f 370/3/370 369/3/369 372/3/372
f 372/3/372 371/3/371 370/3/370
f 376/3/376 373/3/373 375/3/375
f 378/4/378 380/3/380 379/3/379
f 379/3/379 377/4/377 378/4/378
f 515/3/515 514/3/514 516/3/516
f 514/3/514 515/3/515 513/3/513
f 698/3/698 697/3/697 696/3/696
f 695/3/695 694/3/694 688/3/688
f 687/3/687 695/3/695 688/3/688
f 698/3/698 693/3/693 697/3/697
f 692/3/692 691/3/691 690/3/690
f 690/3/690 689/3/689 692/3/692
f 713/3/713 700/3/700 714/3/714
f 700/3/700 713/3/713 699/3/699
f 726/3/726 725/3/725 724/3/724
f 723/3/723 722/3/722 716/3/716
f 715/3/715 723/3/723 716/3/716
f 726/3/726 721/3/721 725/3/725
f 720/3/720 719/3/719 718/3/718
f 718/3/718 717/3/717 720/3/720
f 729/3/729 728/3/728 730/3/730
f 728/3/728 729/3/729 727/3/727
f 738/3/738 737/3/737 736/3/736
f 732/3/732 731/3/731 734/3/734
f 734/3/734 733/3/733 732/3/732
f 738/3/738 735/3/735 737/3/737
f 740/4/740 742/3/742 741/3/741
f 741/3/741 739/4/739 740/4/740
f 744/5/744 746/3/746 745/3/745
f 745/3/745 743/5/743 744/5/744
f 754/3/754 753/3/753 748/3/748
f 747/3/747 754/3/754 748/3/748
f 752/3/752 751/3/751 750/3/750
f 750/3/750 749/3/749 752/3/752
f 757/3/757 756/3/756 758/3/758
f 756/3/756 757/3/757 755/3/755
f 766/3/766 765/3/765 764/3/764
f 760/3/760 759/3/759 762/3/762
f 762/3/762 761/3/761 760/3/760
f 766/3/766 763/3/763 765/3/765
f 768/4/768 770/3/770 769/3/769
f 769/3/769 767/4/767 768/4/768
f 773/3/773 772/3/772 774/3/774
f 772/3/772 773/3/773 771/3/771
f 777/3/777 776/3/776 778/3/778
f 776/3/776 777/3/777 775/3/775
f 781/3/781 782/3/782 780/3/780
f 780/3/780 779/3/779 781/3/781
f 785/3/785 786/3/786 784/3/784
f 784/3/784 783/3/783 785/3/785
f 789/3/789 788/3/788 790/3/790
f 788/3/788 789/3/789 787/3/787
f 793/3/793 792/3/792 794/3/794
f 792/3/792 793/3/793 791/3/791
f 796/5/796 798/3/798 797/3/797
f 797/3/797 795/5/795 796/5/796
f 806/3/806 805/3/805 800/3/800
f 799/3/799 806/3/806 800/3/800
f 804/3/804 803/3/803 802/3/802
f 802/3/802 801/3/801 804/3/804
f 809/3/809 808/3/808 810/3/810
f 808/3/808 809/3/809 807/3/807
f 818/3/818 817/3/817 816/3/816
f 812/3/812 811/3/811 814/3/814
f 814/3/814 813/3/813 812/3/812
f 818/3/818 815/3/815 817/3/817
f 820/4/820 822/3/822 821/3/821
f 821/3/821 819/4/819 820/4/820
f 825/3/825 824/3/824 826/3/826
f 824/3/824 825/3/825 823/3/823
g fff02c13_00295_0089c359_e7
f 160/10/160 153/13/153 159/11/159
f 153/13/153 160/10/160 154/12/154
f 144/10/144 137/13/137 143/11/143
f 137/13/137 144/10/144 138/12/138
f 105/13/105 112/10/112 106/12/106
f 112/10/112 105/13/105 111/11/111
f 90/6/90 85/6/85 86/6/86
f 85/6/85 90/6/90 89/6/89
f 98/6/98 93/6/93 94/6/94
f 93/6/93 98/6/98 97/6/97
f 82/6/82 77/6/77 78/6/78
f 77/6/77 82/6/82 81/6/81
f 61/6/61 66/6/66 65/6/65
f 66/6/66 61/6/61 62/6/62
f 74/6/74 69/6/69 70/6/70
f 69/6/69 74/6/74 73/6/73
g fff02c13_00295_0089c359_e9
f 96/6/96 100/6/100 99/6/99
f 99/6/99 95/6/95 96/6/96
f 497/13/497 504/10/504 498/12/498
f 496/17/496 495/16/495 497/14/497
f 497/14/497 498/15/498 496/17/496
f 110/6/110 102/8/102 112/7/112
f 484/10/484 477/13/477 483/11/483
f 80/6/80 84/6/84 83/6/83
f 101/9/101 111/6/111 105/8/105
f 111/6/111 101/9/101 109/7/109
f 83/6/83 79/6/79 80/6/80
f 477/13/477 484/10/484 478/12/478
f 476/17/476 475/16/475 477/14/477
f 88/6/88 92/6/92 91/6/91
f 106/9/106 112/7/112 102/8/102
f 91/6/91 87/6/87 88/6/88
f 477/14/477 478/15/478 476/17/476
f 450/26/450 451/27/451 452/28/452
f 103/8/103 107/18/107 105/9/105
f 108/19/108 106/8/106 102/6/102
f 106/8/106 108/19/108 104/9/104
f 107/18/107 101/7/101 105/9/105
f 67/6/67 63/6/63 64/6/64
f 64/6/64 68/6/68 67/6/67
f 72/6/72 76/6/76 75/6/75
f 75/6/75 71/6/71 72/6/72
f 462/23/462 463/25/463 464/29/464
f 432/10/432 425/13/425 431/11/431
f 311/40/311 315/6/315 312/42/312
f 316/7/316 312/42/312 315/6/315
f 132/7/132 130/42/130 131/6/131
f 129/40/129 131/6/131 130/42/130
f 142/6/142 134/8/134 144/7/144
f 133/9/133 143/6/143 137/8/137
f 143/6/143 133/9/133 141/7/141
f 138/9/138 144/7/144 134/8/134
f 135/8/135 139/18/139 137/9/137
f 140/19/140 138/8/138 134/6/134
f 138/8/138 140/19/140 136/9/136
f 139/18/139 133/7/133 137/9/137
f 310/41/310 313/6/313 309/40/309
f 313/6/313 310/41/310 314/19/314
f 148/7/148 146/42/146 147/6/147
f 145/40/145 147/6/147 146/42/146
f 158/6/158 150/8/150 160/7/160
f 149/9/149 159/6/159 153/8/153
f 159/6/159 149/9/149 157/7/157
f 154/9/154 160/7/160 150/8/150
f 151/8/151 155/18/155 153/9/153
f 156/19/156 154/8/154 150/6/150
f 154/8/154 156/19/156 152/9/152
f 155/18/155 149/7/149 153/9/153
f 303/18/303 297/7/297 301/9/301
f 302/8/302 304/19/304 300/9/300
f 304/19/304 302/8/302 298/6/298
f 299/8/299 303/18/303 301/9/301
f 220/6/220 224/6/224 223/6/223
f 223/6/223 219/6/219 220/6/220
f 214/6/214 209/6/209 210/6/210
f 209/6/209 214/6/214 213/6/213
f 222/6/222 217/6/217 218/6/218
f 234/6/234 226/8/226 236/7/236
f 217/6/217 222/6/222 221/6/221
f 204/6/204 208/6/208 207/6/207
f 225/9/225 235/6/235 229/8/229
f 235/6/235 225/9/225 233/7/233
f 207/6/207 203/6/203 204/6/204
f 206/6/206 201/6/201 202/6/202
f 201/6/201 206/6/206 205/6/205
f 212/6/212 216/6/216 215/6/215
f 230/9/230 236/7/236 226/8/226
f 215/6/215 211/6/211 212/6/212
f 185/6/185 190/6/190 189/6/189
f 190/6/190 185/6/185 186/6/186
f 227/8/227 231/18/231 229/9/229
f 232/19/232 230/8/230 226/6/226
f 230/8/230 232/19/232 228/9/228
f 231/18/231 225/7/225 229/9/229
f 191/6/191 187/6/187 188/6/188
f 188/6/188 192/6/192 191/6/191
f 196/6/196 200/6/200 199/6/199
f 199/6/199 195/6/195 196/6/196
f 198/6/198 193/6/193 194/6/194
f 193/6/193 198/6/198 197/6/197
f 273/6/273 270/41/270 274/19/274
f 270/41/270 273/6/273 269/40/269
f 276/7/276 272/42/272 275/6/275
f 271/40/271 275/6/275 272/42/272
f 286/6/286 278/8/278 288/7/288
f 277/9/277 287/6/287 281/8/281
f 287/6/287 277/9/277 285/7/285
f 282/9/282 288/7/288 278/8/278
f 279/8/279 283/18/283 281/9/281
f 284/19/284 282/8/282 278/6/278
f 282/8/282 284/19/284 280/9/280
f 283/18/283 277/7/277 281/9/281
f 293/6/293 290/41/290 294/19/294
f 290/41/290 293/6/293 289/40/289
f 296/7/296 292/42/292 295/6/295
f 291/40/291 295/6/295 292/42/292
f 306/6/306 298/8/298 308/7/308
f 297/9/297 307/6/307 301/8/301
f 307/6/307 297/9/297 305/7/305
f 302/9/302 308/7/308 298/8/298
f 507/40/507 511/6/511 508/42/508
f 512/7/512 508/42/508 511/6/511
f 506/41/506 509/6/509 505/40/505
f 509/6/509 506/41/506 510/19/510
f 499/18/499 493/7/493 497/9/497
f 498/8/498 500/19/500 496/9/496
f 500/19/500 498/8/498 494/6/494
f 495/8/495 499/18/499 497/9/497
f 416/6/416 420/6/420 419/6/419
f 419/6/419 415/6/415 416/6/416
f 410/6/410 405/6/405 406/6/406
f 405/6/405 410/6/410 409/6/409
f 418/6/418 413/6/413 414/6/414
f 430/6/430 422/8/422 432/7/432
f 413/6/413 418/6/418 417/6/417
f 400/6/400 404/6/404 403/6/403
f 421/9/421 431/6/431 425/8/425
f 431/6/431 421/9/421 429/7/429
f 403/6/403 399/6/399 400/6/400
f 402/6/402 397/6/397 398/6/398
f 397/6/397 402/6/402 401/6/401
f 408/6/408 412/6/412 411/6/411
f 426/9/426 432/7/432 422/8/422
f 411/6/411 407/6/407 408/6/408
f 381/6/381 386/6/386 385/6/385
f 386/6/386 381/6/381 382/6/382
f 423/8/423 427/18/427 425/9/425
f 428/19/428 426/8/426 422/6/422
f 426/8/426 428/19/428 424/9/424
f 427/18/427 421/7/421 425/9/425
f 387/6/387 383/6/383 384/6/384
f 384/6/384 388/6/388 387/6/387
f 392/6/392 396/6/396 395/6/395
f 395/6/395 391/6/391 392/6/392
f 394/6/394 389/6/389 390/6/390
f 389/6/389 394/6/394 393/6/393
f 469/6/469 466/41/466 470/19/470
f 466/41/466 469/6/469 465/40/465
f 472/7/472 468/42/468 471/6/471
f 467/40/467 471/6/471 468/42/468
f 482/6/482 474/8/474 484/7/484
f 473/9/473 483/6/483 477/8/477
f 483/6/483 473/9/473 481/7/481
f 478/9/478 484/7/484 474/8/474
f 475/8/475 479/18/479 477/9/477
f 480/19/480 478/8/478 474/6/474
f 478/8/478 480/19/480 476/9/476
f 479/18/479 473/7/473 477/9/477
f 489/6/489 486/41/486 490/19/490
f 486/41/486 489/6/489 485/40/485
f 492/7/492 488/42/488 491/6/491
f 487/40/487 491/6/491 488/42/488
f 502/6/502 494/8/494 504/7/504
f 493/9/493 503/6/503 497/8/497
f 503/6/503 493/9/493 501/7/501
f 498/9/498 504/7/504 494/8/494
f 114/26/114 115/27/115 113/38/113
f 318/26/318 320/28/320 319/27/319
f 104/17/104 103/16/103 105/14/105
f 122/20/122 124/37/124 123/22/123
f 308/10/308 301/13/301 307/11/307
f 118/30/118 119/31/119 117/39/117
f 122/20/122 123/22/123 121/21/121
f 318/26/318 319/27/319 317/38/317
f 118/30/118 120/32/120 119/31/119
f 126/23/126 127/25/127 125/24/125
f 126/23/126 128/29/128 127/25/127
f 114/26/114 116/28/116 115/27/115
f 137/14/137 138/15/138 136/17/136
f 136/17/136 135/16/135 137/14/137
f 153/14/153 154/15/154 152/17/152
f 152/17/152 151/16/151 153/14/153
f 254/26/254 253/38/253 255/27/255
f 229/14/229 230/15/230 228/17/228
f 228/17/228 227/16/227 229/14/229
f 262/20/262 263/22/263 264/37/264
f 229/13/229 236/10/236 230/12/230
f 250/33/250 249/36/249 251/34/251
f 258/30/258 257/39/257 259/31/259
f 262/20/262 261/21/261 263/22/263
f 250/33/250 251/34/251 252/35/252
f 258/30/258 259/31/259 260/32/260
f 266/23/266 265/24/265 267/25/267
f 236/10/236 229/13/229 235/11/235
f 266/23/266 267/25/267 268/29/268
f 254/26/254 255/27/255 256/28/256
f 281/14/281 282/15/282 280/17/280
f 280/17/280 279/16/279 281/14/281
f 281/13/281 288/10/288 282/12/282
f 288/10/288 281/13/281 287/11/287
f 301/14/301 302/15/302 300/17/300
f 300/17/300 299/16/299 301/14/301
f 301/13/301 308/10/308 302/12/302
f 504/10/504 497/13/497 503/11/503
f 450/26/450 449/38/449 451/27/451
f 425/14/425 426/15/426 424/17/424
f 424/17/424 423/16/423 425/14/425
f 458/20/458 459/22/459 460/37/460
f 425/13/425 432/10/432 426/12/426
f 446/33/446 445/36/445 447/34/447
f 454/30/454 453/39/453 455/31/455
f 458/20/458 457/21/457 459/22/459
f 446/33/446 447/34/447 448/35/448
f 454/30/454 455/31/455 456/32/456
f 462/23/462 461/24/461 463/25/463
g fff02c13_00295_0089c359_e10
f 83/18/83 77/7/77 81/9/81
f 79/8/79 83/18/83 81/9/81
f 306/6/306 305/6/305 298/6/298
f 297/6/297 298/6/298 305/6/305
f 286/6/286 285/6/285 278/6/278
f 277/6/277 278/6/278 285/6/285
f 219/8/219 223/18/223 221/9/221
f 224/19/224 222/8/222 218/6/218
f 84/19/84 82/8/82 78/6/78
f 91/18/91 85/7/85 89/9/89
f 87/8/87 91/18/91 89/9/89
f 92/19/92 90/8/90 86/6/86
f 101/6/101 102/6/102 109/6/109
f 110/6/110 109/6/109 102/6/102
f 82/8/82 84/19/84 80/9/80
f 99/18/99 93/7/93 97/9/97
f 66/8/66 68/19/68 64/9/64
f 74/8/74 76/19/76 72/9/72
f 76/19/76 74/8/74 70/6/70
f 71/8/71 75/18/75 73/9/73
f 98/8/98 100/19/100 96/9/96
f 68/19/68 66/8/66 62/6/62
f 63/8/63 67/18/67 65/9/65
f 75/18/75 69/7/69 73/9/73
f 90/8/90 92/19/92 88/9/88
f 67/18/67 61/7/61 65/9/65
f 100/19/100 98/8/98 94/6/94
f 95/8/95 99/18/99 97/9/97
f 133/6/133 134/6/134 141/6/141
f 142/6/142 141/6/141 134/6/134
f 149/6/149 150/6/150 157/6/157
f 158/6/158 157/6/157 150/6/150
f 207/18/207 201/7/201 205/9/205
f 203/8/203 207/18/207 205/9/205
f 246/8/246 248/18/248 247/9/247
f 248/18/248 245/7/245 247/9/247
f 242/8/242 244/18/244 243/9/243
f 244/18/244 241/7/241 243/9/243
f 238/8/238 240/18/240 239/9/239
f 240/18/240 237/7/237 239/9/239
f 208/19/208 206/8/206 202/6/202
f 215/18/215 209/7/209 213/9/213
f 211/8/211 215/18/215 213/9/213
f 216/19/216 214/8/214 210/6/210
f 225/6/225 226/6/226 233/6/233
f 234/6/234 233/6/233 226/6/226
f 206/8/206 208/19/208 204/9/204
f 223/18/223 217/7/217 221/9/221
f 190/8/190 192/19/192 188/9/188
f 198/8/198 200/19/200 196/9/196
f 200/19/200 198/8/198 194/6/194
f 195/8/195 199/18/199 197/9/197
f 222/8/222 224/19/224 220/9/220
f 192/19/192 190/8/190 186/6/186
f 187/8/187 191/18/191 189/9/189
f 199/18/199 193/7/193 197/9/197
f 214/8/214 216/19/216 212/9/212
f 191/18/191 185/7/185 189/9/189
f 502/6/502 501/6/501 494/6/494
f 493/6/493 494/6/494 501/6/501
f 482/6/482 481/6/481 474/6/474
f 473/6/473 474/6/474 481/6/481
f 415/8/415 419/18/419 417/9/417
f 420/19/420 418/8/418 414/6/414
f 403/18/403 397/7/397 401/9/401
f 399/8/399 403/18/403 401/9/401
f 442/8/442 444/18/444 443/9/443
f 444/18/444 441/7/441 443/9/443
f 438/8/438 440/18/440 439/9/439
f 440/18/440 437/7/437 439/9/439
f 434/8/434 436/18/436 435/9/435
f 436/18/436 433/7/433 435/9/435
f 404/19/404 402/8/402 398/6/398
f 411/18/411 405/7/405 409/9/409
f 407/8/407 411/18/411 409/9/409
f 412/19/412 410/8/410 406/6/406
f 421/6/421 422/6/422 429/6/429
f 430/6/430 429/6/429 422/6/422
f 402/8/402 404/19/404 400/9/400
f 419/18/419 413/7/413 417/9/417
f 386/8/386 388/19/388 384/9/384
f 394/8/394 396/19/396 392/9/392
f 396/19/396 394/8/394 390/6/390
f 391/8/391 395/18/395 393/9/393
f 418/8/418 420/19/420 416/9/416
f 388/19/388 386/8/386 382/6/382
f 383/8/383 387/18/387 385/9/385
f 395/18/395 389/7/389 393/9/393
f 410/8/410 412/19/412 408/9/408
f 387/18/387 381/7/381 385/9/385
g fff02c13_00295_0089c359_e44
f 1023/57/1023 1022/58/1022 1024/59/1024
f 1022/58/1022 1023/57/1023 1021/60/1021
f 920/61/920 914/62/914 918/63/918
f 914/62/914 920/61/920 916/64/916
f 918/65/918 913/66/913 917/67/917
f 913/66/913 918/65/918 914/68/914
f 1044/69/1044 1041/70/1041 1043/71/1043
f 1041/70/1041 1044/69/1044 1042/72/1042
f 915/73/915 917/74/917 913/75/913
f 917/74/917 915/73/915 919/76/919
f 1027/57/1027 1026/58/1026 1028/59/1028
f 1026/58/1026 1027/57/1027 1025/60/1025
f 928/61/928 922/62/922 926/63/926
f 922/62/922 928/61/928 924/64/924
f 926/65/926 921/66/921 925/67/925
f 921/66/921 926/65/926 922/68/922
f 1048/69/1048 1045/70/1045 1047/71/1047
f 1045/70/1045 1048/69/1048 1046/72/1046
f 923/73/923 925/74/925 921/75/921
f 925/74/925 923/73/923 927/76/927
g fff02c13_00295_0089c359_e45
f 943/56/943 944/48/944 940/47/940
f 940/47/940 939/55/939 943/56/943
f 944/79/944 942/44/942 938/46/938
f 938/46/938 940/78/940 944/79/944
f 1036/45/1036 1035/54/1035 1033/53/1033
f 1033/53/1033 1034/44/1034 1036/45/1036
f 1052/77/1052 1051/80/1051 1049/45/1049
f 1049/45/1049 1050/43/1050 1052/77/1052
f 349/49/349 351/50/351 347/51/347
f 347/51/347 345/52/345 349/49/349
f 1037/45/1037 1038/43/1038 1040/77/1040
f 1040/77/1040 1039/80/1039 1037/45/1037
f 1017/53/1017 1018/44/1018 1020/45/1020
f 1020/45/1020 1019/54/1019 1017/53/1017
f 346/46/346 348/78/348 352/79/352
f 352/79/352 350/44/350 346/46/346
f 348/47/348 347/55/347 351/56/351
f 351/56/351 352/48/352 348/47/348
f 933/49/933 935/50/935 931/51/931
f 931/51/931 929/52/929 933/49/933
f 933/45/933 934/43/934 936/77/936
f 936/77/936 935/80/935 933/45/933
f 1029/53/1029 1030/44/1030 1032/45/1032
f 1032/45/1032 1031/54/1031 1029/53/1029
f 930/46/930 932/78/932 936/79/936
f 936/79/936 934/44/934 930/46/930
f 932/47/932 931/55/931 935/56/935
f 935/56/935 936/48/936 932/47/932
f 941/49/941 943/50/943 939/51/939
f 939/51/939 937/52/937 941/49/941
f 999/57/999 996/58/996 1000/59/1000
f 996/58/996 999/57/999 995/60/995
f 1000/61/1000 994/62/994 998/63/998
f 994/62/994 1000/61/1000 996/64/996
f 998/65/998 993/66/993 997/67/997
f 993/66/993 998/65/998 994/68/994
f 1000/69/1000 997/70/997 999/71/999
f 997/70/997 1000/69/1000 998/72/998
f 995/73/995 997/74/997 993/75/993
f 997/74/997 995/73/995 999/76/999
f 1007/57/1007 1004/58/1004 1008/59/1008
f 1004/58/1004 1007/57/1007 1003/60/1003
f 1008/61/1008 1002/62/1002 1006/63/1006
f 1002/62/1002 1008/61/1008 1004/64/1004
f 1006/65/1006 1001/66/1001 1005/67/1005
f 1001/66/1001 1006/65/1006 1002/68/1002
f 1008/69/1008 1005/70/1005 1007/71/1007
f 1005/70/1005 1008/69/1008 1006/72/1006
f 1003/73/1003 1005/74/1005 1001/75/1001
f 1005/74/1005 1003/73/1003 1007/76/1007
f 1015/57/1015 1012/58/1012 1016/59/1016
f 1012/58/1012 1015/57/1015 1011/60/1011
f 1016/61/1016 1010/62/1010 1014/63/1014
f 1010/62/1010 1016/61/1016 1012/64/1012
f 1014/65/1014 1009/66/1009 1013/67/1013
f 1009/66/1009 1014/65/1014 1010/68/1010
f 1016/69/1016 1013/70/1013 1015/71/1015
f 1013/70/1013 1016/69/1016 1014/72/1014
f 1011/73/1011 1013/74/1013 1009/75/1009
f 1013/74/1013 1011/73/1011 1015/76/1015
g fff02c13_00295_0089c359_e39
f 611/116/611 614/115/614 597/114/597
f 614/115/614 611/116/611 602/113/602
f 607/124/607 601/123/601 598/122/598
f 598/121/598 605/126/605 607/125/607
f 613/92/613 612/91/612 617/90/617
f 617/90/617 618/89/618 613/92/613
f 601/106/601 607/105/607 608/104/608
f 608/88/608 600/87/600 601/103/601
f 599/86/599 598/85/598 601/84/601
f 601/84/601 600/83/600 599/86/599
f 614/102/614 602/101/602 604/82/604
f 604/112/604 603/111/603 614/100/614
f 605/120/605 606/119/606 607/118/607
f 608/117/608 607/118/607 606/119/606
f 610/110/610 616/109/616 609/99/609
f 616/98/616 610/97/610 615/81/615
f 616/108/616 615/107/615 618/96/618
f 618/95/618 617/94/617 616/93/616
f 620/116/620 619/114/619 603/115/603
f 603/115/603 604/113/604 620/116/620
f 587/116/587 590/115/590 573/114/573
f 590/115/590 587/116/587 578/113/578
f 583/124/583 577/123/577 574/122/574
f 574/121/574 581/126/581 583/125/583
f 589/92/589 588/91/588 593/90/593
f 593/90/593 594/89/594 589/92/589
f 561/92/561 560/91/560 565/90/565
f 565/90/565 566/89/566 561/92/561
f 577/106/577 583/105/583 584/104/584
f 584/88/584 576/87/576 577/103/577
f 575/86/575 574/85/574 577/84/577
f 577/84/577 576/83/576 575/86/575
f 590/102/590 578/101/578 580/82/580
f 580/112/580 579/111/579 590/100/590
f 581/120/581 582/119/582 583/118/583
f 584/117/584 583/118/583 582/119/582
f 586/110/586 592/109/592 585/99/585
f 592/98/592 586/97/586 591/81/591
f 592/108/592 591/107/591 594/96/594
f 594/95/594 593/94/593 592/93/592
f 596/116/596 595/114/595 579/115/579
f 579/115/579 580/113/580 596/116/596
f 559/116/559 562/115/562 545/114/545
f 562/115/562 559/116/559 550/113/550
f 555/124/555 549/123/549 546/122/546
f 546/121/546 553/126/553 555/125/555
f 540/121/540 543/125/543 542/126/542
f 543/124/543 540/122/540 541/123/541
f 523/115/523 524/113/524 544/116/544
f 544/116/544 539/114/539 523/115/523
f 538/95/538 537/94/537 536/93/536
f 536/108/536 535/107/535 538/96/538
f 536/98/536 530/97/530 535/81/535
f 530/110/530 536/109/536 529/99/529
f 528/117/528 527/118/527 526/119/526
f 525/120/525 526/119/526 527/118/527
f 524/112/524 523/111/523 534/100/534
f 534/102/534 522/101/522 524/82/524
f 521/84/521 520/83/520 519/86/519
f 519/86/519 518/85/518 521/84/521
f 528/88/528 520/87/520 521/103/521
f 521/106/521 527/105/527 528/104/528
f 537/90/537 538/89/538 533/92/533
f 533/92/533 532/91/532 537/90/537
f 518/121/518 525/126/525 527/125/527
f 527/124/527 521/123/521 518/122/518
f 534/115/534 531/116/531 522/113/522
f 531/116/531 534/115/534 517/114/517
f 568/121/568 571/125/571 570/126/570
f 571/124/571 568/122/568 569/123/569
f 551/115/551 552/113/552 572/116/572
f 572/116/572 567/114/567 551/115/551
f 566/95/566 565/94/565 564/93/564
f 564/108/564 563/107/563 566/96/566
f 564/98/564 558/97/558 563/81/563
f 558/110/558 564/109/564 557/99/557
f 556/117/556 555/118/555 554/119/554
f 553/120/553 554/119/554 555/118/555
f 552/112/552 551/111/551 562/100/562
f 562/102/562 550/101/550 552/82/552
f 549/84/549 548/83/548 547/86/547
f 547/86/547 546/85/546 549/84/549
f 556/88/556 548/87/548 549/103/549
f 549/106/549 555/105/555 556/104/556
f 959/116/959 962/115/962 945/114/945
f 962/115/962 959/116/959 950/113/950
f 955/124/955 949/123/949 946/122/946
f 946/121/946 953/126/953 955/125/955
f 961/92/961 960/91/960 965/90/965
f 965/90/965 966/89/966 961/92/961
f 949/106/949 955/105/955 956/104/956
f 956/88/956 948/87/948 949/103/949
f 947/86/947 946/85/946 949/84/949
f 949/84/949 948/83/948 947/86/947
f 962/102/962 950/101/950 952/82/952
f 952/112/952 951/111/951 962/100/962
f 953/120/953 954/119/954 955/118/955
f 956/117/956 955/118/955 954/119/954
f 958/110/958 964/109/964 957/99/957
f 964/98/964 958/97/958 963/81/963
f 964/108/964 963/107/963 966/96/966
f 966/95/966 965/94/965 964/93/964
f 968/116/968 967/114/967 951/115/951
f 951/115/951 952/113/952 968/116/968
f 983/116/983 986/115/986 969/114/969
f 986/115/986 983/116/983 974/113/974
f 979/124/979 973/123/973 970/122/970
f 970/121/970 977/126/977 979/125/979
f 985/92/985 984/91/984 989/90/989
f 989/90/989 990/89/990 985/92/985
f 973/106/973 979/105/979 980/104/980
f 980/88/980 972/87/972 973/103/973
f 971/86/971 970/85/970 973/84/973
f 973/84/973 972/83/972 971/86/971
f 986/102/986 974/101/974 976/82/976
f 976/112/976 975/111/975 986/100/986
f 977/120/977 978/119/978 979/118/979
f 980/117/980 979/118/979 978/119/978
f 982/110/982 988/109/988 981/99/981
f 988/98/988 982/97/982 987/81/987
f 988/108/988 987/107/987 990/96/990
f 990/95/990 989/94/989 988/93/988
f 992/116/992 991/114/991 975/115/975
f 975/115/975 976/113/976 992/116/992
