# fff0a81b_00241_005fe914
o fff0a81b_00241_005fe914
v 0.233873 0.237558 0.648942
v 0.104173 0.348929 0.648942
v -0.199219 -0.267583 0.648942
v -0.328919 -0.156211 0.648942
v 0.233873 0.237558 0.673952
v 0.104173 0.348929 0.673952
v -0.199219 -0.267583 0.673952
v -0.328919 -0.156211 0.673952
v -0.289057 -0.171736 -0.623669
v -0.289057 -0.171736 0.666776
v -0.265363 -0.144100 -0.623669
v -0.265363 -0.144100 0.666776
v -0.300148 -0.138254 0.666776
v -0.300148 -0.138254 -0.623669
v 0.104150 0.286885 -0.623669
v 0.104150 0.286885 0.666776
v 0.127845 0.314521 -0.623669
v 0.127845 0.314521 0.666776
v 0.093060 0.320366 0.666776
v 0.093060 0.320366 -0.623669
v 0.345544 0.076522 -0.631136
v 0.047715 0.331902 -0.631136
v 0.374376 0.110150 -0.631136
v 0.076547 0.365530 -0.631136
v 0.062131 0.348716 -0.602108
v 0.359960 0.093336 -0.602108
v 0.352787 0.091427 -0.762051
v 0.281479 0.152564 -0.762051
v 0.281479 0.152564 -0.659829
v 0.352787 0.091427 -0.659829
v 0.360459 0.100376 -0.762051
v 0.289151 0.161513 -0.762051
v 0.289151 0.161513 -0.659829
v 0.360459 0.100376 -0.659829
v 0.320960 0.112726 -0.729871
v 0.307384 0.124366 -0.721244
v 0.281729 0.132370 -0.652734
v 0.332787 0.088594 -0.639732
v 0.334550 0.128576 -0.729871
v 0.320974 0.140216 -0.721244
v 0.309144 0.164346 -0.652734
v 0.360203 0.120570 -0.639732
v 0.131498 0.281282 -0.762051
v 0.060190 0.342419 -0.762051
v 0.060190 0.342419 -0.659829
v 0.131498 0.281282 -0.659829
v 0.139170 0.290231 -0.762051
v 0.067862 0.351368 -0.762051
v 0.067862 0.351368 -0.659829
v 0.139170 0.290231 -0.659829
v 0.099671 0.302581 -0.729871
v 0.086095 0.314220 -0.721244
v 0.060440 0.322224 -0.652734
v 0.111498 0.278448 -0.639732
v 0.113261 0.318431 -0.729871
v 0.099685 0.330071 -0.721244
v 0.087855 0.354201 -0.652734
v 0.138914 0.310425 -0.639732
v 0.561949 0.196320 -0.762051
v 0.108218 0.585335 -0.762051
v -0.108218 -0.585335 -0.762051
v -0.561949 -0.196320 -0.762051
v -0.098816 -0.379410 -0.762051
v 0.350250 0.158748 -0.762051
v 0.066650 0.364582 -0.762051
v -0.359172 -0.143423 -0.762051
v 0.337241 0.149011 -0.053429
v 0.104252 0.348878 -0.053429
v -0.095851 -0.356130 -0.053429
v -0.328840 -0.156262 -0.053429
v 0.337241 0.149011 -0.028419
v 0.104252 0.348878 -0.028419
v -0.095851 -0.356130 -0.028419
v -0.328840 -0.156262 -0.028419
v -0.048378 -0.383913 -0.631136
v -0.346207 -0.128533 -0.631136
v -0.019546 -0.350284 -0.631136
v -0.317375 -0.094905 -0.631136
v -0.331791 -0.111719 -0.602108
v -0.033962 -0.367099 -0.602108
v -0.041135 -0.369007 -0.762051
v -0.112443 -0.307870 -0.762051
v -0.112443 -0.307870 -0.659829
v -0.041135 -0.369007 -0.659829
v -0.033463 -0.360059 -0.762051
v -0.104771 -0.298922 -0.762051
v -0.104771 -0.298922 -0.659829
v -0.033463 -0.360059 -0.659829
v -0.072962 -0.347709 -0.729871
v -0.086538 -0.336069 -0.721244
v -0.112193 -0.328065 -0.652734
v -0.061135 -0.371841 -0.639732
v -0.059372 -0.331858 -0.729871
v -0.072948 -0.320219 -0.721244
v -0.084778 -0.296089 -0.652734
v -0.033719 -0.339865 -0.639732
v -0.262424 -0.179153 -0.762051
v -0.333732 -0.118016 -0.762051
v -0.333732 -0.118016 -0.659829
v -0.262424 -0.179153 -0.659829
v -0.254752 -0.170204 -0.762051
v -0.326060 -0.109067 -0.762051
v -0.326060 -0.109067 -0.659829
v -0.254752 -0.170204 -0.659829
v -0.294251 -0.157854 -0.729871
v -0.307827 -0.146214 -0.721244
v -0.333482 -0.138211 -0.652734
v -0.282424 -0.181986 -0.639732
v -0.280661 -0.142004 -0.729871
v -0.294237 -0.130364 -0.721244
v -0.306067 -0.106234 -0.652734
v -0.255008 -0.150010 -0.639732
v 0.058328 -0.090548 -0.030402
v -0.129883 0.070940 -0.030402
v -0.084338 -0.256947 -0.030402
v -0.272548 -0.095459 -0.030402
v 0.058328 -0.090548 0.185515
v -0.129883 0.070940 0.185515
v -0.084338 -0.256947 0.185515
v -0.272548 -0.095459 0.185515
v -0.063715 -0.232873 0.155053
v -0.065491 -0.234943 -0.002468
v 0.037750 -0.114528 -0.002468
v 0.037750 -0.114528 0.155053
v 0.029973 -0.106298 0.155052
v 0.029973 -0.106297 -0.002468
v -0.073912 -0.227480 -0.002468
v -0.073912 -0.227480 0.155052
v 0.058328 -0.090548 -0.030402
v -0.129883 0.070940 -0.030402
v -0.084338 -0.256947 -0.030402
v -0.272548 -0.095459 -0.030402
v 0.058328 -0.090548 0.185515
v -0.129883 0.070940 0.185515
v -0.084338 -0.256947 0.185515
v -0.272548 -0.095459 0.185515
v 0.058328 -0.090548 0.185515
v -0.129883 0.070940 0.185515
v -0.084338 -0.256947 0.185515
v -0.272548 -0.095459 0.185515
v -0.006551 -0.031120 0.156861
v -0.108531 0.056407 0.156861
v -0.006551 -0.031120 0.165445
v -0.108531 0.056407 0.165445
v -0.006551 -0.031120 0.142638
v -0.108531 0.056407 0.142638
v -0.006551 -0.031120 0.151222
v -0.108531 0.056407 0.151222
v -0.006551 -0.031120 0.128714
v -0.108531 0.056407 0.128714
v -0.006551 -0.031120 0.137298
v -0.108531 0.056407 0.137298
v -0.006551 -0.031120 0.114936
v -0.108531 0.056407 0.114936
v -0.006551 -0.031120 0.123520
v -0.108531 0.056407 0.123520
v -0.063715 -0.232873 0.155053
v -0.065491 -0.234943 -0.002468
v 0.037750 -0.114528 -0.002468
v 0.037750 -0.114528 0.155053
v -0.072202 -0.225653 0.155053
v -0.073978 -0.227724 -0.002468
v 0.029262 -0.107309 -0.002468
v 0.029262 -0.107309 0.155053
v -0.151024 -0.200767 0.156861
v -0.253004 -0.113240 0.156861
v -0.151024 -0.200767 0.165445
v -0.253004 -0.113240 0.165445
v -0.151024 -0.200767 0.142638
v -0.253004 -0.113240 0.142638
v -0.151024 -0.200767 0.151222
v -0.253004 -0.113240 0.151222
v -0.151024 -0.200767 0.128714
v -0.253004 -0.113240 0.128714
v -0.151024 -0.200767 0.137298
v -0.253004 -0.113240 0.137298
v -0.151024 -0.200767 0.114936
v -0.253004 -0.113240 0.114936
v -0.151024 -0.200767 0.123520
v -0.253004 -0.113240 0.123520
v -0.062398 -0.233879 0.175859
v -0.062573 -0.234083 0.164994
v -0.052401 -0.222218 0.164994
v -0.052401 -0.222218 0.175859
v -0.047896 -0.216994 0.175859
v -0.048071 -0.217198 0.164994
v -0.037899 -0.205333 0.164994
v -0.037899 -0.205333 0.175859
v 0.166970 0.183648 0.671910
v 0.066062 0.270286 0.671910
v -0.157314 -0.194619 0.671910
v -0.258223 -0.107980 0.671910
v 0.166970 0.183648 0.762051
v 0.066062 0.270286 0.762051
v -0.157314 -0.194619 0.762051
v -0.258223 -0.107980 0.762051
v 0.166970 0.183648 0.671910
v 0.066062 0.270286 0.671910
v -0.157314 -0.194619 0.671910
v -0.258223 -0.107980 0.671910
v 0.166970 0.183648 0.762051
v 0.066062 0.270286 0.762051
v -0.157314 -0.194619 0.762051
v -0.258223 -0.107980 0.762051
v 0.166970 0.183648 0.762051
v 0.066062 0.270286 0.762051
v -0.157314 -0.194619 0.762051
v -0.258223 -0.107980 0.762051
v 0.133047 0.216535 0.733397
v 0.078377 0.263500 0.733397
v 0.133047 0.216535 0.741981
v 0.078377 0.263500 0.741981
v 0.133047 0.216535 0.719174
v 0.078377 0.263500 0.719174
v 0.133047 0.216535 0.727758
v 0.078377 0.263500 0.727758
v 0.133047 0.216535 0.705251
v 0.078377 0.263500 0.705251
v 0.133047 0.216535 0.713835
v 0.078377 0.263500 0.713835
v 0.133047 0.216535 0.691473
v 0.078377 0.263500 0.691473
v 0.133047 0.216535 0.700057
v 0.078377 0.263500 0.700057
v -0.193306 -0.164755 0.733397
v -0.247976 -0.117790 0.733397
v -0.193306 -0.164755 0.741981
v -0.247976 -0.117790 0.741981
v -0.193306 -0.164755 0.719174
v -0.247976 -0.117790 0.719174
v -0.193306 -0.164755 0.727758
v -0.247976 -0.117790 0.727758
v -0.193306 -0.164755 0.705251
v -0.247976 -0.117790 0.705251
v -0.193306 -0.164755 0.713835
v -0.247976 -0.117790 0.713835
v -0.193306 -0.164755 0.691473
v -0.247976 -0.117790 0.691473
v -0.193306 -0.164755 0.700057
v -0.247976 -0.117790 0.700057
v -0.135952 -0.171055 0.752395
v -0.136127 -0.171259 0.741530
v -0.125955 -0.159394 0.741530
v -0.125955 -0.159394 0.752395
v -0.121457 -0.154164 0.752395
v -0.121632 -0.154368 0.741530
v -0.111460 -0.142504 0.741530
v -0.111460 -0.142504 0.752395
v -0.135952 -0.171059 0.727412
v -0.136127 -0.171263 0.692697
v 0.150602 0.163172 0.692697
v 0.150602 0.163172 0.727412
v -0.132099 -0.168496 0.722609
v -0.132270 -0.168696 0.697500
v 0.148647 0.158961 0.697500
v 0.148647 0.158961 0.722609
v -0.123852 -0.160738 0.714660
v -0.123855 -0.160742 0.705449
v -0.117953 -0.153856 0.705449
v -0.117953 -0.153856 0.714660
v -0.110961 -0.145789 0.714660
v -0.110964 -0.145793 0.705449
v -0.105062 -0.138907 0.705449
v -0.105062 -0.138907 0.714660
v -0.098497 -0.131156 0.714660
v -0.098501 -0.131160 0.705449
v -0.092599 -0.124274 0.705449
v -0.092599 -0.124274 0.714660
v -0.085606 -0.116206 0.714660
v -0.085610 -0.116211 0.705449
v -0.079708 -0.109324 0.705449
v -0.079708 -0.109324 0.714660
v 0.097928 0.098153 0.714660
v 0.097924 0.098148 0.705449
v 0.103826 0.105035 0.705449
v 0.103826 0.105035 0.714660
v 0.110819 0.113102 0.714660
v 0.110815 0.113098 0.705449
v 0.116717 0.119984 0.705449
v 0.116717 0.119984 0.714660
v 0.123282 0.127735 0.714660
v 0.123279 0.127731 0.705449
v 0.129181 0.134617 0.705449
v 0.129181 0.134617 0.714660
v 0.136173 0.142684 0.714660
v 0.136170 0.142680 0.705449
v 0.142072 0.149566 0.705449
v 0.142072 0.149566 0.714660
v 0.140779 0.151788 0.752395
v 0.140604 0.151584 0.741530
v 0.150776 0.163448 0.741530
v 0.150776 0.163448 0.752395
v 0.157569 0.197100 -0.030402
v -0.002426 0.010569 -0.030402
v 0.157569 0.197100 0.039267
v -0.002426 0.010569 0.039267
v 0.157569 0.197100 -0.030402
v 0.054173 0.285914 -0.030402
v -0.002426 0.010569 -0.030402
v -0.105821 0.099383 -0.030402
v 0.157569 0.197100 0.039267
v 0.054173 0.285914 0.039267
v -0.002426 0.010569 0.039267
v -0.105821 0.099383 0.039267
v 0.157569 0.197100 0.039267
v 0.054173 0.285914 0.039267
v -0.002426 0.010569 0.039267
v -0.105821 0.099383 0.039267
v 0.019514 0.033638 0.029611
v 0.019339 0.033434 0.011882
v 0.038709 0.056058 0.011882
v 0.038709 0.056058 0.029611
v 0.043214 0.061282 0.029611
v 0.043039 0.061078 0.011882
v 0.062508 0.083765 0.011882
v 0.062508 0.083765 0.029611
v 0.071889 0.094759 0.029611
v 0.071714 0.094555 0.011882
v 0.147884 0.183397 0.011882
v 0.147884 0.183397 0.029611
v -0.230372 -0.080077 0.708018
v -0.258171 -0.056149 0.694859
v -0.230372 -0.080077 0.716602
v -0.262781 -0.052197 0.700930
v -0.269560 -0.046380 0.667671
v -0.276078 -0.040792 0.667671
v -0.242557 -0.021987 0.556238
v -0.249075 -0.016399 0.556238
v -0.242458 -0.021887 0.416260
v -0.248976 -0.016299 0.416260
v -0.268322 -0.025544 0.262156
v -0.274750 -0.020034 0.263567
v -0.291805 -0.020717 0.141127
v -0.298232 -0.015206 0.142538
v -0.297660 -0.022263 0.077580
v -0.303951 -0.016869 0.075342
v -0.274454 -0.042164 0.032051
v -0.279057 -0.038218 0.025972
v -0.239985 -0.071707 0.017647
v -0.242245 -0.069770 0.009592
v -0.224837 -0.073941 0.716602
v -0.257246 -0.046061 0.700930
v -0.270543 -0.034656 0.667671
v -0.243540 -0.010263 0.556238
v -0.243441 -0.010163 0.416260
v -0.269215 -0.013898 0.263567
v -0.292697 -0.009070 0.142538
v -0.298416 -0.010733 0.075342
v -0.273522 -0.032082 0.025972
v -0.236710 -0.063634 0.009592
v -0.213983 -0.060977 0.708018
v -0.241781 -0.037049 0.694859
v -0.213983 -0.060977 0.716602
v -0.246391 -0.033098 0.700930
v -0.253171 -0.027280 0.667671
v -0.259689 -0.021692 0.667671
v -0.253100 -0.034349 0.556238
v -0.259618 -0.028760 0.556238
v -0.253100 -0.034349 0.416260
v -0.259618 -0.028760 0.416260
v -0.262785 -0.019063 0.229168
v -0.269212 -0.013553 0.230579
v -0.278681 -0.005421 0.141127
v -0.285108 0.000090 0.142538
v -0.281270 -0.003164 0.077580
v -0.287561 0.002230 0.075342
v -0.258064 -0.023065 0.032051
v -0.262667 -0.019118 0.025972
v -0.223596 -0.052608 0.017647
v -0.225855 -0.050671 0.009592
v -0.208448 -0.054841 0.716602
v -0.240856 -0.026962 0.700930
v -0.254153 -0.015556 0.667671
v -0.254082 -0.022624 0.556238
v -0.254082 -0.022624 0.416260
v -0.263677 -0.007417 0.230579
v -0.279573 0.006226 0.142538
v -0.282026 0.008366 0.075342
v -0.257132 -0.012982 0.025972
v -0.220320 -0.044535 0.009592
v 0.029972 -0.106297 0.079601
v 0.029971 -0.106296 0.067738
v -0.020439 -0.165169 0.079601
v -0.017328 -0.161574 0.067738
v -0.026800 -0.172607 0.040177
v -0.026823 -0.172587 0.062510
v -0.040765 -0.188863 0.125889
v -0.041295 -0.189496 0.101740
v -0.051670 -0.201602 0.079601
v -0.048231 -0.197586 0.067738
v -0.073912 -0.227480 0.079601
v -0.073912 -0.227480 0.067738
v -0.076732 -0.225345 -0.002468
v 0.026508 -0.104930 -0.002468
v -0.076753 -0.225326 0.155052
v 0.026496 -0.104926 0.155052
vt -0.196770 -1.078993
vt 1.000000 0.000000
vt -1.261024 1.000000
vt -0.261025 1.000000
vt -7.482336 0.000000
vt -6.482336 0.000000
vt -7.482336 1.000000
vt -6.482336 1.000000
vt -4.049905 1.260219
vt -3.049904 1.260219
vt -4.049904 2.260219
vt -3.049904 2.260220
vt 0.000000 0.500000
vt 1.000000 0.500000
vt -0.000012 0.000318
vt 0.999988 0.000048
vt 0.999988 0.999777
vt -0.000012 1.000048
vt 0.225271 0.842221
vt 0.241892 0.161533
vt 0.861939 0.189047
vt 0.848832 0.832808
vt -1.104985 0.855649
vt 0.143595 0.143595
vt 0.881145 0.123989
vt 0.853359 0.853359
vt 0.156040 0.855649
vt 0.143595 0.143595
vt 0.853359 0.853359
vt 0.881145 0.123989
vt 0.638694 0.650949
vt 0.852474 0.647062
vt 0.852474 0.647062
vt 0.852474 0.647062
vt 0.852474 0.647062
vt 0.852474 0.647062
vt 0.852474 0.647062
vt 1.000000 -62.733738
vt 1.000000 -57.107944
vt 1.000000 -63.629406
vt 1.000000 -62.628761
vt 1.000000 -62.738655
vt 1.000000 -61.739319
vt 1.000000 -61.960018
vt 1.000000 -62.776215
vt 1.000000 -61.883087
vt 1.000000 -60.883087
vt 1.000000 -67.902626
vt 1.000000 -61.471161
vt 1.000000 -53.092964
vt 1.000000 -54.117626
vt 1.000000 -18.991236
vt 1.000000 -21.394876
vt -11.432899 1.000000
vt -10.432835 1.000000
vt 1.000000 1.000000
vt 1.000000 1.000000
vt 1.000000 1.000000
vt 1.000000 1.000000
vt 1.000000 1.000000
vt 1.000000 1.000000
vt 1.000000 1.000000
vt 1.000000 1.000000
vt 0.150290 0.526637
vt 0.149542 0.483864
vt 0.296477 0.538599
vt 0.279616 0.495034
vt 0.349881 0.394677
vt 0.340029 0.470025
vt 0.401768 0.692455
vt 0.418388 0.612479
vt 0.513392 0.543640
vt 0.513637 0.465259
vt 0.866396 0.511154
vt 0.868659 0.451732
vt 0.986248 0.451515
vt 0.986230 0.556045
vt 0.433976 0.556068
vt 0.433971 0.451538
vn 0.997093 0.076188 0.000000
vn -0.076188 0.997093 0.000000
vn 0.076188 -0.997093 0.000000
vn -0.997093 -0.076188 0.000000
vn 0.814095 0.062205 0.577390
vn -0.062210 0.814152 0.577310
vn 0.062210 -0.814151 0.577310
vn -0.814095 -0.062205 0.577390
vn -0.193224 -0.981155 0.000000
vn -0.193223 -0.981155 0.000000
vn 0.940133 0.340809 0.000000
vn 0.940132 0.340811 0.000000
vn -0.759204 0.650853 0.000000
vn -0.759203 0.650855 0.000000
vn -0.193224 -0.981155 0.000000
vn -0.193224 -0.981155 0.000000
vn 0.940133 0.340808 0.000000
vn 0.940132 0.340810 0.000000
vn -0.759204 0.650853 0.000000
vn -0.759202 0.650855 0.000000
vn -0.063286 -0.849629 0.523571
vn -0.830024 -0.192226 0.523555
vn 0.830024 0.192226 0.523555
vn 0.063286 0.849629 0.523570
vn -0.428600 0.367500 0.825376
vn 0.428600 -0.367499 0.825377
vn -0.650890 -0.759172 0.000000
vn -0.650891 -0.759172 0.000000
vn -0.650890 -0.759172 0.000000
vn -0.650891 -0.759172 0.000000
vn -0.650890 -0.759172 0.000000
vn -0.650890 -0.759172 0.000000
vn -0.650890 -0.759172 0.000000
vn -0.650890 -0.759172 0.000000
vn -0.684459 -0.721681 -0.103404
vn -0.663621 -0.738797 -0.117410
vn -0.567087 -0.458118 0.684500
vn -0.519647 -0.363796 0.773058
vn -0.608728 -0.786615 0.103372
vn -0.628820 -0.768641 0.117374
vn -0.516254 -0.373179 0.770856
vn -0.467493 -0.310589 0.827638
vn -0.650890 -0.759172 0.000000
vn -0.650890 -0.759172 0.000000
vn -0.650890 -0.759172 0.000000
vn -0.650890 -0.759172 0.000000
vn -0.650890 -0.759172 0.000000
vn -0.650890 -0.759172 0.000000
vn -0.650890 -0.759172 0.000000
vn -0.650890 -0.759172 0.000000
vn -0.684459 -0.721681 -0.103405
vn -0.663621 -0.738798 -0.117410
vn -0.567087 -0.458119 0.684499
vn -0.519647 -0.363796 0.773058
vn -0.608728 -0.786616 0.103372
vn -0.628819 -0.768641 0.117374
vn -0.516254 -0.373179 0.770856
vn -0.467493 -0.310589 0.827638
vn 0.000000 0.000000 1.000000
vn 0.000000 0.000000 1.000000
vn 0.000000 0.000000 1.000000
vn 0.000000 0.000000 1.000000
vn 0.000000 0.000000 1.000000
vn 0.000000 0.000000 1.000000
vn 0.000000 0.000000 1.000000
vn 0.000000 0.000000 1.000000
vn 0.997075 0.076431 0.000000
vn -0.076431 0.997075 0.000000
vn 0.076431 -0.997075 0.000000
vn -0.997075 -0.076431 0.000000
vn 0.814098 0.062405 0.577365
vn -0.062406 0.814118 0.577336
vn 0.062406 -0.814118 0.577336
vn -0.814098 -0.062405 0.577365
vn -0.063286 -0.849629 0.523570
vn -0.830023 -0.192225 0.523556
vn 0.830024 0.192226 0.523554
vn 0.063287 0.849629 0.523570
vn -0.428599 0.367500 0.825376
vn 0.428600 -0.367499 0.825376
vn -0.650890 -0.759172 0.000000
vn -0.650890 -0.759172 0.000000
vn -0.650890 -0.759172 0.000000
vn -0.650890 -0.759172 0.000000
vn -0.650890 -0.759172 0.000000
vn -0.650890 -0.759172 0.000000
vn -0.650890 -0.759172 0.000000
vn -0.650890 -0.759172 0.000000
vn -0.684459 -0.721681 -0.103404
vn -0.663622 -0.738797 -0.117410
vn -0.567087 -0.458118 0.684500
vn -0.519647 -0.363796 0.773058
vn -0.608728 -0.786616 0.103372
vn -0.628819 -0.768641 0.117374
vn -0.516254 -0.373179 0.770856
vn -0.467493 -0.310589 0.827638
vn -0.650890 -0.759172 0.000000
vn -0.650890 -0.759172 0.000000
vn -0.650890 -0.759172 0.000000
vn -0.650890 -0.759172 0.000000
vn -0.650890 -0.759172 0.000000
vn -0.650890 -0.759172 0.000000
vn -0.650890 -0.759172 0.000000
vn -0.650890 -0.759172 0.000000
vn -0.684458 -0.721682 -0.103404
vn -0.663621 -0.738798 -0.117410
vn -0.567087 -0.458118 0.684500
vn -0.519647 -0.363796 0.773058
vn -0.608728 -0.786615 0.103372
vn -0.628820 -0.768641 0.117374
vn -0.516254 -0.373180 0.770856
vn -0.467493 -0.310589 0.827638
vn 0.759017 -0.651071 0.000230
vn -0.759172 0.650891 0.000000
vn 0.759332 -0.650704 0.000241
vn -0.759172 0.650891 0.000000
vn 0.759025 -0.651062 -0.000224
vn -0.759172 0.650891 0.000000
vn 0.759319 -0.650719 -0.000224
vn -0.759172 0.650891 0.000000
vn 0.759314 -0.650724 -0.000232
vn 0.759331 -0.650705 0.000247
vn 0.759032 -0.651054 0.000256
vn 0.759029 -0.651057 -0.000231
vn 0.759439 -0.650579 0.000293
vn 0.759564 -0.650432 -0.000475
vn 0.758859 -0.651255 -0.000515
vn 0.758878 -0.651233 0.000524
vn 0.651175 0.758927 0.000000
vn 0.651175 0.758927 0.000000
vn -0.651176 -0.758927 0.000000
vn -0.651176 -0.758927 0.000000
vn 0.651175 0.758927 0.000000
vn 0.651175 0.758927 0.000000
vn -0.651176 -0.758927 0.000000
vn -0.651176 -0.758927 0.000000
vn 0.000000 0.000000 1.000000
vn 0.000000 0.000000 1.000000
vn 0.000000 0.000000 1.000000
vn 0.000000 0.000000 1.000000
vn 0.651289 0.758830 0.000000
vn 0.651289 0.758830 0.000000
vn 0.651289 0.758830 0.000000
vn 0.651289 0.758830 0.000000
vn 0.651289 0.758830 0.000000
vn 0.651289 0.758830 0.000000
vn 0.651289 0.758830 0.000000
vn 0.651289 0.758830 0.000000
vn 0.651289 0.758830 0.000000
vn 0.651289 0.758830 0.000000
vn 0.651289 0.758830 0.000000
vn 0.651289 0.758830 0.000000
vn 0.651289 0.758830 0.000000
vn 0.651289 0.758830 0.000000
vn 0.651289 0.758830 0.000000
vn 0.651289 0.758830 0.000000
vn 0.647838 0.761581 -0.017313
vn 0.461546 0.542583 0.701840
vn -0.458726 -0.539267 0.706230
vn -0.647933 -0.761698 0.000000
vn 0.647838 0.761581 -0.017313
vn 0.462670 0.543905 0.700075
vn -0.457592 -0.537935 0.707980
vn -0.647933 -0.761698 0.000000
vn -0.651289 -0.758830 0.000000
vn -0.651289 -0.758830 0.000000
vn -0.651289 -0.758830 0.000000
vn -0.651289 -0.758830 0.000000
vn -0.651289 -0.758830 0.000000
vn -0.651289 -0.758830 0.000000
vn -0.651289 -0.758830 0.000000
vn -0.651289 -0.758830 0.000000
vn -0.651289 -0.758830 0.000000
vn -0.651289 -0.758830 0.000000
vn -0.651289 -0.758830 0.000000
vn -0.651289 -0.758830 0.000000
vn -0.651289 -0.758830 0.000000
vn -0.651289 -0.758830 0.000000
vn -0.651289 -0.758830 0.000000
vn -0.651289 -0.758830 0.000000
vn 0.759172 -0.650890 -0.000000
vn 0.759172 -0.650890 -0.000000
vn 0.759172 -0.650890 0.000000
vn 0.759172 -0.650890 -0.000000
vn 0.759172 -0.650890 -0.000001
vn 0.759172 -0.650890 -0.000001
vn 0.759172 -0.650890 0.000000
vn 0.759172 -0.650890 -0.000000
vn 0.759201 -0.650856 0.000000
vn -0.759201 0.650856 0.000000
vn 0.759201 -0.650856 0.000000
vn -0.759201 0.650856 0.000000
vn 0.759201 -0.650856 0.000000
vn -0.759201 0.650856 0.000000
vn 0.759201 -0.650856 0.000000
vn -0.759201 0.650856 0.000000
vn 0.651422 0.758716 0.000000
vn 0.651422 0.758716 0.000000
vn -0.651422 -0.758716 0.000000
vn -0.651422 -0.758716 0.000000
vn 0.651422 0.758716 0.000000
vn 0.651422 0.758716 0.000000
vn -0.651422 -0.758716 0.000000
vn -0.651422 -0.758716 0.000000
vn 0.000000 0.000000 1.000000
vn 0.000000 0.000000 1.000000
vn 0.000000 0.000000 1.000000
vn 0.000000 0.000000 1.000000
vn 0.651634 0.758534 0.000000
vn 0.651634 0.758534 0.000000
vn 0.651634 0.758534 0.000000
vn 0.651634 0.758534 0.000000
vn 0.651634 0.758534 0.000000
vn 0.651634 0.758534 0.000000
vn 0.651634 0.758534 0.000000
vn 0.651634 0.758534 0.000000
vn 0.651634 0.758534 0.000000
vn 0.651634 0.758534 0.000000
vn 0.651634 0.758534 0.000000
vn 0.651634 0.758534 0.000000
vn 0.651634 0.758534 0.000000
vn 0.651634 0.758534 0.000000
vn 0.651634 0.758534 0.000000
vn 0.651634 0.758534 0.000000
vn -0.651634 -0.758534 0.000000
vn -0.651634 -0.758534 0.000000
vn -0.651634 -0.758534 0.000000
vn -0.651634 -0.758534 0.000000
vn -0.651634 -0.758534 0.000000
vn -0.651634 -0.758534 0.000000
vn -0.651634 -0.758534 0.000000
vn -0.651634 -0.758534 0.000000
vn -0.651634 -0.758534 0.000000
vn -0.651634 -0.758534 0.000000
vn -0.651634 -0.758534 0.000000
vn -0.651634 -0.758534 0.000000
vn -0.651634 -0.758534 0.000000
vn -0.651634 -0.758534 0.000000
vn -0.651634 -0.758534 0.000000
vn -0.651634 -0.758534 0.000000
vn 0.759170 -0.650892 0.000003
vn 0.759171 -0.650891 0.000002
vn 0.759172 -0.650890 0.000000
vn 0.759171 -0.650891 0.000001
vn 0.759170 -0.650892 0.000003
vn 0.759171 -0.650891 0.000002
vn 0.759172 -0.650890 0.000000
vn 0.759171 -0.650891 0.000001
vn 0.759178 -0.650883 -0.000000
vn 0.759178 -0.650883 -0.000000
vn 0.759178 -0.650883 0.000000
vn 0.759178 -0.650883 -0.000000
vn 0.759178 -0.650883 -0.000001
vn 0.759178 -0.650883 -0.000001
vn 0.759178 -0.650883 0.000000
vn 0.759178 -0.650883 -0.000000
vn 0.759283 -0.650761 0.000001
vn 0.759283 -0.650760 0.000001
vn 0.759283 -0.650760 0.000000
vn 0.759283 -0.650760 0.000001
vn 0.759283 -0.650761 -0.000000
vn 0.759283 -0.650761 -0.000000
vn 0.759283 -0.650761 0.000000
vn 0.759283 -0.650761 -0.000000
vn 0.759282 -0.650761 -0.000000
vn 0.759282 -0.650761 -0.000000
vn 0.759282 -0.650761 0.000000
vn 0.759282 -0.650761 -0.000000
vn 0.759283 -0.650761 -0.000000
vn 0.759283 -0.650761 -0.000000
vn 0.759283 -0.650761 0.000000
vn 0.759283 -0.650761 -0.000000
vn 0.759283 -0.650761 -0.000001
vn 0.759283 -0.650761 -0.000000
vn 0.759282 -0.650761 0.000000
vn 0.759283 -0.650761 -0.000000
vn 0.759283 -0.650761 -0.000000
vn 0.759283 -0.650761 -0.000000
vn 0.759283 -0.650761 0.000000
vn 0.759283 -0.650761 -0.000000
vn 0.759282 -0.650762 -0.000000
vn 0.759282 -0.650762 -0.000000
vn 0.759282 -0.650762 0.000000
vn 0.759282 -0.650762 -0.000000
vn 0.759283 -0.650761 0.000001
vn 0.759283 -0.650760 0.000000
vn 0.759283 -0.650760 0.000000
vn 0.759283 -0.650761 0.000000
vn 0.759171 -0.650891 0.000001
vn 0.759172 -0.650890 0.000001
vn 0.759172 -0.650890 0.000000
vn 0.759172 -0.650890 0.000000
vn 0.759034 -0.651051 0.000000
vn 0.759034 -0.651051 0.000000
vn 0.759034 -0.651051 0.000000
vn 0.759034 -0.651051 0.000000
vn 0.651592 0.758570 0.000000
vn 0.651592 0.758570 0.000000
vn -0.651592 -0.758570 0.000000
vn -0.651592 -0.758570 0.000000
vn 0.651592 0.758570 0.000000
vn 0.651592 0.758570 0.000000
vn -0.651592 -0.758570 0.000000
vn -0.651592 -0.758570 0.000000
vn 0.000000 0.000000 1.000000
vn 0.000000 0.000000 1.000000
vn 0.000000 0.000000 1.000000
vn 0.000000 0.000000 1.000000
vn 0.759613 -0.650375 -0.000011
vn 0.759611 -0.650377 -0.000007
vn 0.759609 -0.650380 0.000000
vn 0.759610 -0.650379 -0.000004
vn 0.758865 -0.651248 0.000007
vn 0.758866 -0.651247 0.000004
vn 0.758868 -0.651245 0.000000
vn 0.758867 -0.651246 0.000002
vn 0.759169 -0.650894 -0.000000
vn 0.759169 -0.650894 -0.000000
vn 0.759169 -0.650894 0.000000
vn 0.759169 -0.650894 -0.000000
vn 0.652133 0.758105 0.000142
vn 0.651450 0.758691 0.000834
vn 0.601768 0.278787 -0.748434
vn 0.345416 0.899585 -0.267274
vn 0.644802 0.752090 0.136349
vn -0.077754 0.951469 0.297761
vn 0.643069 0.750062 0.154497
vn -0.115424 0.989033 0.092143
vn 0.649387 0.758014 -0.060914
vn -0.067516 0.997699 -0.006130
vn 0.633271 0.766330 -0.108194
vn -0.057108 0.998173 0.019718
vn 0.639065 0.764655 -0.083058
vn -0.084647 0.996275 0.016457
vn 0.658486 0.751549 -0.039617
vn -0.109595 0.967134 -0.229434
vn 0.650849 0.759207 0.000011
vn 0.068828 0.796099 -0.601240
vn 0.650778 0.759268 0.000024
vn 0.291696 0.686248 -0.666316
vn 0.255644 -0.230613 -0.938863
vn -0.545009 0.491638 -0.679159
vn -0.727338 0.656118 0.201218
vn -0.742443 0.669745 -0.014819
vn -0.741524 0.668916 0.051893
vn -0.735602 0.663574 0.136229
vn -0.737935 0.665679 0.111006
vn -0.716878 0.646684 -0.260550
vn -0.450044 0.405978 -0.795388
vn -0.237733 0.214455 -0.947361
vn 0.652132 0.758106 0.000142
vn 0.651449 0.758692 0.000838
vn 0.601768 0.278789 -0.748433
vn 0.345414 0.899586 -0.267271
vn 0.650743 0.759013 -0.020791
vn -0.128659 0.981227 0.143666
vn 0.650704 0.758967 -0.023529
vn -0.050343 0.998230 -0.031657
vn 0.650875 0.759059 0.013827
vn -0.044875 0.998110 0.041985
vn 0.652600 0.757574 0.013980
vn -0.038424 0.991896 0.121103
vn 0.650928 0.759140 0.000266
vn -0.085382 0.991234 0.100825
vn 0.650875 0.759185 0.000196
vn -0.126045 0.971752 -0.199525
vn 0.650851 0.759205 0.000015
vn 0.068830 0.796099 -0.601239
vn 0.650778 0.759268 0.000024
vn 0.291696 0.686248 -0.666316
vn 0.255645 -0.230611 -0.938863
vn -0.545009 0.491638 -0.679159
vn -0.723652 0.652794 0.224026
vn -0.742348 0.669660 -0.021779
vn -0.741709 0.669084 0.046846
vn -0.732598 0.660864 0.162969
vn -0.735143 0.663153 0.140684
vn -0.715574 0.645507 -0.266973
vn -0.450044 0.405978 -0.795388
vn -0.237733 0.214455 -0.947361
vn 0.759579 -0.650415 -0.000017
vn 0.759813 -0.650141 0.000021
vn 0.758984 -0.651110 -0.000121
vn 0.759576 -0.650418 -0.000357
vn 0.759164 -0.650899 -0.000717
vn 0.758514 -0.651657 -0.000492
vn 0.759122 -0.650948 0.000644
vn 0.758988 -0.651105 0.000075
vn 0.758604 -0.651552 0.000160
vn 0.758825 -0.651295 -0.000043
vn 0.758374 -0.651820 0.000000
vn 0.758534 -0.651633 0.000000
vn 0.759172 -0.650891 0.000175
vn 0.759138 -0.650930 0.000123
vn 0.759138 -0.650929 0.000124
vn 0.759105 -0.650968 0.000072
g fff0a81b_00241_005fe914_e2
f 5/9/5 6/10/6 8/12/8
f 8/12/8 7/11/7 5/9/5
f 71/9/71 72/10/72 74/12/74
f 74/12/74 73/11/73 71/9/71
g fff0a81b_00241_005fe914_e7
f 96/1/96 95/1/95 92/1/92
f 91/1/91 92/1/92 95/1/95
f 53/1/53 54/1/54 57/1/57
f 58/1/58 57/1/57 54/1/54
f 19/13/19 17/8/17 20/14/20
f 17/8/17 19/13/19 18/7/18
f 79/13/79 80/14/80 77/8/77
f 77/8/77 78/7/78 79/13/79
f 112/1/112 111/1/111 108/1/108
f 107/1/107 108/1/108 111/1/111
f 42/1/42 41/1/41 38/1/38
f 37/1/37 38/1/38 41/1/41
f 11/8/11 13/13/13 12/7/12
f 13/13/13 11/8/11 14/14/14
f 23/8/23 24/7/24 25/13/25
f 25/13/25 26/14/26 23/8/23
g fff0a81b_00241_005fe914_e8
f 80/14/80 79/13/79 76/5/76
f 76/5/76 75/6/75 80/14/80
f 20/14/20 16/5/16 19/13/19
f 16/5/16 20/14/20 15/6/15
f 10/5/10 14/14/14 9/6/9
f 14/14/14 10/5/10 13/13/13
f 26/14/26 25/13/25 22/5/22
f 22/5/22 21/6/21 26/14/26
g fff0a81b_00241_005fe914_e9
f 42/17/42 41/18/41 40/15/40
f 40/15/40 39/16/39 42/17/42
f 38/17/38 37/18/37 36/15/36
f 36/15/36 35/16/35 38/17/38
f 52/15/52 51/16/51 54/17/54
f 54/17/54 53/18/53 52/15/52
f 56/15/56 55/16/55 58/17/58
f 58/17/58 57/18/57 56/15/56
f 96/17/96 95/18/95 94/15/94
f 94/15/94 93/16/93 96/17/96
f 92/17/92 91/18/91 90/15/90
f 90/15/90 89/16/89 92/17/92
f 106/15/106 105/16/105 108/17/108
f 108/17/108 107/18/107 106/15/106
f 110/15/110 109/16/109 112/17/112
f 112/17/112 111/18/111 110/15/110
g fff0a81b_00241_005fe914_e3
f 3/1/3 1/2/1 5/4/5
f 5/4/5 7/3/7 3/1/3
f 2/1/2 4/2/4 8/4/8
f 8/4/8 6/3/6 2/1/2
f 69/1/69 67/2/67 71/4/71
f 71/4/71 73/3/73 69/1/69
f 68/1/68 70/2/70 74/4/74
f 74/4/74 72/3/72 68/1/68
g fff0a81b_00241_005fe914_e4
f 1/5/1 2/6/2 6/8/6
f 6/8/6 5/7/5 1/5/1
f 7/8/7 8/7/8 4/5/4
f 4/5/4 3/6/3 7/8/7
f 67/5/67 68/6/68 72/8/72
f 72/8/72 71/7/71 67/5/67
f 73/8/73 74/7/74 70/5/70
f 70/5/70 69/6/69 73/8/73
g fff0a81b_00241_005fe914_e5
f 50/17/50 49/18/49 48/15/48
f 48/15/48 47/16/47 50/17/50
f 46/17/46 45/18/45 44/15/44
f 44/15/44 43/16/43 46/17/46
f 28/15/28 27/16/27 30/17/30
f 30/17/30 29/18/29 28/15/28
f 32/15/32 31/16/31 34/17/34
f 34/17/34 33/18/33 32/15/32
f 104/17/104 103/18/103 102/15/102
f 102/15/102 101/16/101 104/17/104
f 100/17/100 99/18/99 98/15/98
f 98/15/98 97/16/97 100/17/100
f 82/15/82 81/16/81 84/17/84
f 84/17/84 83/18/83 82/15/82
f 86/15/86 85/16/85 88/17/88
f 88/17/88 87/18/87 86/15/86
g fff0a81b_00241_005fe914_e0
f 59/9/59 60/10/60 64/20/64
f 62/12/62 61/11/61 63/19/63
f 63/19/63 61/11/61 59/9/59
f 64/20/64 63/19/63 59/9/59
f 64/20/64 60/10/60 65/21/65
f 63/19/63 66/22/66 62/12/62
f 65/21/65 60/10/60 62/12/62
f 66/22/66 65/21/65 62/12/62
f 63/19/63 64/20/64 66/22/66
f 64/20/64 65/21/65 66/22/66
f 141/5/141 142/6/142 144/8/144
f 144/8/144 143/7/143 141/5/141
f 145/5/145 146/6/146 148/8/148
f 148/8/148 147/7/147 145/5/145
f 149/5/149 150/6/150 152/8/152
f 152/8/152 151/7/151 149/5/149
f 153/5/153 154/6/154 156/8/156
f 156/8/156 155/7/155 153/5/153
f 165/5/165 168/8/168 166/6/166
f 168/8/168 165/5/165 167/7/167
f 169/5/169 172/8/172 170/6/170
f 172/8/172 169/5/169 171/7/171
f 173/5/173 176/8/176 174/6/174
f 176/8/176 173/5/173 175/7/175
f 177/5/177 180/8/180 178/6/178
f 180/8/180 177/5/177 179/7/179
f 209/5/209 210/6/210 212/8/212
f 212/8/212 211/7/211 209/5/209
f 213/5/213 214/6/214 216/8/216
f 216/8/216 215/7/215 213/5/213
f 217/5/217 218/6/218 220/8/220
f 220/8/220 219/7/219 217/5/217
f 221/5/221 222/6/222 224/8/224
f 224/8/224 223/7/223 221/5/221
f 225/5/225 228/8/228 226/6/226
f 228/8/228 225/5/225 227/7/227
f 229/5/229 232/8/232 230/6/230
f 232/8/232 229/5/229 231/7/231
f 233/5/233 236/8/236 234/6/234
f 236/8/236 233/5/233 235/7/235
f 237/5/237 240/8/240 238/6/238
f 240/8/240 237/5/237 239/7/239
f 252/31/252 249/31/249 250/31/250
f 250/31/250 251/31/251 252/31/252
f 256/31/256 253/31/253 254/31/254
f 254/31/254 255/31/255 256/31/256
f 260/31/260 257/31/257 258/31/258
f 258/31/258 259/31/259 260/31/260
f 264/31/264 261/31/261 262/31/262
f 262/31/262 263/31/263 264/31/264
f 268/31/268 265/31/265 266/31/266
f 266/31/266 267/31/267 268/31/268
f 272/31/272 269/31/269 270/31/270
f 270/31/270 271/31/271 272/31/272
f 276/31/276 273/31/273 274/31/274
f 274/31/274 275/31/275 276/31/276
f 280/31/280 277/31/277 278/31/278
f 278/31/278 279/31/279 280/31/280
f 284/31/284 281/31/281 282/31/282
f 282/31/282 283/31/283 284/31/284
f 288/31/288 285/31/285 286/31/286
f 286/31/286 287/31/287 288/31/288
f 320/32/320 317/33/317 318/34/318
f 318/35/318 319/36/319 320/37/320
g fff0a81b_00241_005fe914_e10
f 78/1/78 76/1/76 79/1/79
f 24/1/24 22/1/22 25/1/25
f 17/1/17 18/1/18 16/1/16
f 16/1/16 15/1/15 17/1/17
f 10/1/10 9/1/9 11/1/11
f 11/1/11 12/1/12 10/1/10
f 115/1/115 113/2/113 122/24/122
f 117/4/117 119/3/119 121/23/121
f 121/23/121 119/3/119 115/1/115
f 122/24/122 121/23/121 115/1/115
f 122/24/122 113/2/113 123/25/123
f 117/4/117 121/23/121 124/26/124
f 123/25/123 113/2/113 117/4/117
f 124/26/124 123/25/123 117/4/117
f 159/25/159 160/26/160 164/29/164
f 164/29/164 163/30/163 159/25/159
f 162/28/162 161/27/161 157/23/157
f 157/23/157 158/24/158 162/28/162
f 158/24/158 159/25/159 163/30/163
f 163/30/163 162/28/162 158/24/158
f 135/8/135 136/7/136 132/5/132
f 132/5/132 131/6/131 135/8/135
f 129/5/129 130/6/130 134/8/134
f 134/8/134 133/7/133 129/5/129
f 137/9/137 138/10/138 140/12/140
f 140/12/140 139/11/139 137/9/137
f 203/8/203 204/7/204 200/5/200
f 193/4/193 195/3/195 189/23/189
f 189/23/189 195/3/195 191/1/191
f 200/5/200 199/6/199 203/8/203
f 197/5/197 198/6/198 202/8/202
f 202/8/202 201/7/201 197/5/197
f 205/9/205 206/10/206 208/12/208
f 208/12/208 207/11/207 205/9/205
f 308/12/308 307/11/307 305/9/305
f 295/4/295 296/3/296 293/23/293
f 293/23/293 296/3/296 294/1/294
f 305/9/305 306/10/306 308/12/308
f 302/8/302 301/7/301 297/5/297
f 297/5/297 298/6/298 302/8/302
f 300/5/300 299/6/299 303/8/303
f 303/8/303 304/7/304 300/5/300
g fff0a81b_00241_005fe914_e11
f 21/1/21 23/1/23 26/1/26
f 75/1/75 77/1/77 80/1/80
f 114/1/114 116/2/116 120/4/120
f 120/4/120 118/3/118 114/1/114
f 190/1/190 192/2/192 196/4/196
f 196/4/196 194/3/194 190/1/190
g fff0a81b_00241_005fe914_e12
f 383/66/383 381/64/381 125/27/125
f 127/30/127 385/68/385 390/73/390
f 128/29/128 387/70/387 125/27/125
f 386/69/386 383/66/383 387/70/387
f 384/67/384 126/28/126 382/65/382
f 389/72/389 387/70/387 128/29/128
f 387/70/387 383/66/383 125/27/125
f 391/74/391 389/72/389 128/29/128
f 385/68/385 126/28/126 384/67/384
f 127/30/127 126/28/126 385/68/385
f 385/68/385 388/71/388 390/73/390
f 127/30/127 390/73/390 392/75/392
g fff0a81b_00241_005fe914_e1
f 184/31/184 181/31/181 182/31/182
f 182/31/182 183/31/183 184/31/184
f 188/32/188 185/33/185 186/34/186
f 186/35/186 187/36/187 188/37/188
f 244/31/244 241/31/241 242/31/242
f 242/31/242 243/31/243 244/31/244
f 248/32/248 245/33/245 246/34/246
f 246/35/246 247/36/247 248/37/248
f 292/31/292 289/31/289 290/31/290
f 290/31/290 291/31/291 292/31/292
f 312/31/312 309/31/309 310/31/310
f 310/31/310 311/31/311 312/31/312
f 316/32/316 313/33/313 314/34/314
f 314/35/314 315/36/315 316/37/316
g fff0a81b_00241_005fe914_e6
f 321/5/321 322/6/322 324/8/324
f 324/8/324 323/7/323 321/5/321
f 322/6/322 326/39/326 324/8/324
f 326/39/326 322/6/322 325/38/325
f 325/38/325 328/41/328 326/39/326
f 328/41/328 325/38/325 327/40/327
f 327/40/327 330/43/330 328/41/328
f 330/43/330 327/40/327 329/42/329
f 329/42/329 332/45/332 330/43/330
f 332/45/332 329/42/329 331/44/331
f 331/44/331 334/47/334 332/45/332
f 334/47/334 331/44/331 333/46/333
f 333/46/333 336/49/336 334/47/334
f 336/49/336 333/46/333 335/48/335
f 335/48/335 338/51/338 336/49/336
f 338/51/338 335/48/335 337/50/337
f 337/50/337 340/53/340 338/51/338
f 340/53/340 337/50/337 339/52/339
f 323/7/323 324/8/324 342/55/342
f 342/55/342 341/54/341 323/7/323
f 324/8/324 343/56/343 326/39/326
f 343/56/343 324/8/324 342/55/342
f 326/39/326 344/57/344 328/41/328
f 344/57/344 326/39/326 343/56/343
f 328/41/328 345/58/345 330/43/330
f 345/58/345 328/41/328 344/57/344
f 330/43/330 346/59/346 332/45/332
f 346/59/346 330/43/330 345/58/345
f 332/45/332 347/60/347 334/47/334
f 347/60/347 332/45/332 346/59/346
f 334/47/334 348/61/348 336/49/336
f 348/61/348 334/47/334 347/60/347
f 336/49/336 349/62/349 338/51/338
f 349/62/349 336/49/336 348/61/348
f 338/51/338 350/63/350 340/53/340
f 350/63/350 338/51/338 349/62/349
f 351/5/351 352/6/352 354/8/354
f 354/8/354 353/7/353 351/5/351
f 352/6/352 356/39/356 354/8/354
f 356/39/356 352/6/352 355/38/355
f 355/38/355 358/41/358 356/39/356
f 358/41/358 355/38/355 357/40/357
f 357/40/357 360/43/360 358/41/358
f 360/43/360 357/40/357 359/42/359
f 359/42/359 362/45/362 360/43/360
f 362/45/362 359/42/359 361/44/361
f 361/44/361 364/47/364 362/45/362
f 364/47/364 361/44/361 363/46/363
f 363/46/363 366/49/366 364/47/364
f 366/49/366 363/46/363 365/48/365
f 365/48/365 368/51/368 366/49/366
f 368/51/368 365/48/365 367/50/367
f 367/50/367 370/53/370 368/51/368
f 370/53/370 367/50/367 369/52/369
f 353/7/353 354/8/354 372/55/372
f 372/55/372 371/54/371 353/7/353
f 354/8/354 373/56/373 356/39/356
f 373/56/373 354/8/354 372/55/372
f 356/39/356 374/57/374 358/41/358
f 374/57/374 356/39/356 373/56/373
f 358/41/358 375/58/375 360/43/360
f 375/58/375 358/41/358 374/57/374
f 360/43/360 376/59/376 362/45/362
f 376/59/376 360/43/360 375/58/375
f 362/45/362 377/60/377 364/47/364
f 377/60/377 362/45/362 376/59/376
f 364/47/364 378/61/378 366/49/366
f 378/61/378 364/47/364 377/60/377
f 366/49/366 379/62/379 368/51/368
f 379/62/379 366/49/366 378/61/378
f 368/51/368 380/63/380 370/53/370
f 380/63/380 368/51/368 379/62/379
g fff0a81b_00241_005fe914_e13
f 394/76/394 396/77/396 395/78/395
f 394/76/394 395/78/395 393/79/393
