# fff0ade4_00187_002b427b
o fff0ade4_00187_002b427b
v 3.023893 -20.956436 -0.217762
v 3.023893 -12.021133 -0.217762
v -3.834747 -12.021134 -0.217762
v 0.276459 -20.027069 -0.217762
v 3.023893 -20.027069 -0.217762
v -3.834747 -14.151993 -0.217762
v -0.749182 -20.027069 -0.217762
v -3.834748 -20.956436 -0.217762
v 2.598520 -20.027069 -0.217762
v 2.013494 -12.404887 -0.217762
v -3.834748 -20.085220 -0.217762
v 18.810699 -0.645402 -0.222137
v 18.108948 -4.328309 -0.222137
v -2.525008 -20.027069 -0.217762
v -2.400956 -14.151993 -0.217762
v -2.129089 -13.452627 -0.217762
v -2.129089 -12.431726 -0.217762
v 8.328705 -13.584824 -0.205009
v 8.328705 -12.039288 -0.205009
v 6.324688 -13.584824 -0.205009
v 6.324688 -12.039913 -0.205009
v 18.108948 -4.029027 -0.222137
v -3.409546 -0.645400 -0.222137
v -3.140198 -4.330413 -0.222137
v 17.713348 -4.328309 -0.222137
v 17.713348 -4.030244 -0.222137
v 18.133820 -0.645402 -0.222137
v 17.713348 -2.861504 -0.222137
v 18.108948 -2.842695 -0.222137
v 18.803131 -4.328309 -0.222137
v 18.803131 -4.029027 -0.222137
v 18.803131 -2.842695 -0.222137
v 7.121978 -0.364563 -0.222149
v 6.087523 -0.845902 -0.222149
v 7.569579 -2.791825 -0.222149
v 8.604613 -2.343583 -0.222149
v 8.322478 -1.309831 -0.222149
v 6.473570 -2.195969 -0.222149
v 7.215240 -1.130830 -0.222145
v 6.576476 -1.396012 -0.222145
v 7.502013 -2.489518 -0.222145
v 8.238921 -2.170350 -0.222145
v 8.095672 -1.456269 -0.222145
v 6.746489 -2.035660 -0.222145
v 15.378594 -4.328309 -0.222137
v 15.366820 -4.035437 -0.222137
v 14.021269 -1.769365 -0.222141
v 11.010203 -4.330415 -0.222137
v 10.978902 -4.095579 -0.222137
v 12.398161 -1.553544 -0.222141
v 13.808805 -2.502534 -0.222137
v 14.487614 -4.050973 -0.222137
v 14.516920 -4.328309 -0.222137
v 12.722898 -2.462937 -0.222137
v 11.756044 -4.328308 -0.222137
v 11.780039 -4.081422 -0.222137
v 6.545044 -13.407151 -0.205009
v 8.135864 -13.364598 -0.205009
v 6.545044 -12.288995 -0.205009
v 8.135864 -12.267276 -0.205009
v 6.151196 -2.551691 -0.222148
v 6.389788 -4.133657 -0.222137
v 6.392365 -4.330414 -0.222137
v 5.455451 -1.328521 -0.222147
v 3.270385 -0.279373 -0.222145
v 2.071519 -4.138114 -0.222137
v 2.039778 -4.330413 -0.222137
v 4.217529 -4.114934 -0.222131
v 4.208740 -4.330414 -0.222131
v 4.895984 -2.526131 -0.222137
v 3.601562 -1.353760 -0.222137
v 1.887287 -1.912059 -0.222140
v 2.824358 -2.751977 -0.222134
v 17.713318 -4.754517 -0.222137
v 15.378564 -4.754517 -0.222137
v 14.516890 -4.754517 -0.222137
v 11.756014 -4.754516 -0.222137
v 18.109129 -17.761017 -0.222137
v 17.713530 -17.761017 -0.222137
v 18.803312 -17.761017 -0.222137
v 17.713499 -18.181778 -0.222137
v 15.378745 -18.181778 -0.222137
v 14.517071 -18.181778 -0.222137
v 11.756195 -18.181776 -0.222137
v 18.108952 -4.754517 -0.222137
v 18.803137 -5.817276 -0.222137
v 18.803141 -6.258586 -0.222137
v 18.108957 -6.277152 -0.222137
v 17.713327 -6.311869 -0.222137
v 17.713326 -6.311870 -0.222137
v 15.378580 -6.492928 -0.222137
v 11.756042 -6.762001 -0.222137
v 18.108953 -5.904328 -0.222137
v 17.713324 -5.929310 -0.222137
v 11.756036 -6.232889 -0.222137
v 15.378574 -6.052933 -0.222137
v 17.713322 -5.929311 -0.222137
v 12.836670 -14.571279 -0.222137
v 12.692505 -18.181778 -0.222137
v 12.692505 -14.712633 -0.222137
v 12.836670 -18.181778 -0.222137
v 11.756104 -13.546084 -0.222137
v 11.756112 -13.674553 -0.222137
v -4.000793 -0.645400 -0.222137
v -4.000793 -4.330413 -0.222137
v -3.140198 -2.960052 -0.222137
v -4.000793 -2.960052 -0.222137
v 18.809204 2.295576 -0.222137
v -3.411041 2.295579 -0.222137
v 18.132324 2.295576 -0.222137
v 7.202270 2.295578 -0.222149
v -4.002288 2.295579 -0.222137
v -0.635934 -20.956436 -0.217762
v -1.564180 -20.956436 -0.217762
v 3.023893 -15.299454 -0.217762
v 3.023893 -14.427594 -0.217762
v 1.977209 -15.859209 -0.217762
v 1.988546 -14.897675 -0.217762
v -3.002324 -12.021133 -0.217762
v 13.653228 -2.939043 -0.216213
v 13.976989 -2.615266 -0.216213
v 13.339538 -2.625352 -0.216209
v 13.663299 -2.301576 -0.216209
v 14.738360 -2.288643 -0.216213
v 14.397841 -2.878438 -0.216213
v 15.309764 -2.618561 -0.216209
v 14.969246 -3.208356 -0.216209
v 14.690764 -1.763991 -0.216213
v 14.329679 -1.913560 -0.216213
v 14.835662 -2.113817 -0.216209
v 14.474577 -2.263386 -0.216209
v 14.274566 -3.389879 -0.216213
v 14.714355 -2.816728 -0.216213
v 13.719298 -2.963792 -0.216209
v 14.159087 -2.390642 -0.216209
v 14.266387 -1.736495 -0.216213
v 13.675509 -1.814289 -0.216213
v 14.357020 -2.479964 -0.216209
v 13.766143 -2.557758 -0.216209
v 12.770293 -2.349550 -0.216213
v 12.683532 -2.688661 -0.216213
v 13.503264 -2.553483 -0.216209
v 13.416533 -2.892595 -0.216209
v 14.899290 -2.703798 -0.216213
v 15.029570 -2.378923 -0.216213
v 14.199186 -2.405931 -0.216209
v 14.329466 -2.081041 -0.216209
v 13.701842 -2.382982 -0.206104
v 13.701842 -2.838930 -0.206104
v 14.143583 -2.382997 -0.206100
v 14.143583 -2.838945 -0.206100
v 15.238769 -1.961446 -0.216213
v 15.146664 -2.305140 -0.216213
v 15.571737 -2.050685 -0.216209
v 15.479655 -2.394368 -0.216209
v 13.357537 -2.364309 -0.216213
v 13.628732 -2.572382 -0.216213
v 13.559125 -2.101588 -0.216209
v 13.830320 -2.309675 -0.216209
v 14.235597 -1.304706 -0.216213
v 13.974721 -1.273356 -0.216213
v 14.155648 -1.870178 -0.216209
v 13.894773 -1.838863 -0.216209
v 14.428129 -3.412202 -0.216213
v 13.798919 -3.151552 -0.216213
v 14.175596 -4.021760 -0.216209
v 13.546386 -3.761140 -0.216209
vt 0.900949 22.394215
vt -7.355382 14.006049
vt -8.228928 22.330952
vt -8.832569 22.330929
vt -8.832569 22.330929
vt -4.933571 22.330969
vt -3.478018 22.330908
vt -8.228947 22.330952
vt -8.830829 13.604512
vt -4.933599 22.331930
vt 0.900951 15.919864
vt 0.900956 13.625010
vt -3.477951 22.328821
vt 0.900953 22.399965
vt 22.154188 19.494650
vt 21.158213 23.504564
vt 0.900972 23.342810
vt -0.957797 22.330360
vt -0.957776 22.330093
vt -1.133836 15.917299
vt -8.832443 23.342762
vt -8.830834 13.604506
vt 0.900945 15.924316
vt -7.398579 14.040269
vt -1.519644 15.173010
vt -1.519638 14.066941
vt -0.280181 13.622526
vt 21.158218 23.178709
vt -9.358349 19.495277
vt -8.767416 23.501190
vt -8.910221 23.493711
vt 20.596796 23.504564
vt 20.596804 23.180029
vt 21.193592 19.494650
vt 20.596832 21.907518
vt 21.158247 21.887041
vt 22.143318 23.504564
vt 22.143324 23.178709
vt 22.143353 21.887041
vt 22.434118 19.494665
vt 5.683066 19.494673
vt 4.302336 20.248636
vt 6.282901 21.897400
vt 7.829025 21.522699
vt 7.428654 20.397163
vt 4.804744 21.361980
vt 5.666152 19.859447
vt 4.683763 20.215590
vt 7.037532 20.569323
vt 5.192062 21.187439
vt 6.264840 21.685234
vt 7.309341 21.334028
vt 17.283415 23.504562
vt 17.266716 23.185680
vt 13.504062 21.498182
vt 11.083987 23.506851
vt 11.039575 23.251158
vt 13.194088 21.498182
vt 13.504062 21.810797
vt 16.018984 23.202597
vt 16.060566 23.504562
vt 13.194088 21.810797
vt 12.142455 23.504560
vt 12.176515 23.235744
vt -13.492673 15.300117
vt -16.334564 15.297693
vt -13.485915 13.613821
vt -13.804380 15.105921
vt -13.492655 15.300121
vt -16.327818 13.610682
vt -16.060137 15.057538
vt -16.334564 15.297687
vt -13.485932 13.613811
vt -13.799505 13.885423
vt -16.055347 13.859776
vt -16.327820 13.610686
vt 4.188339 21.570190
vt 4.531624 23.242710
vt 4.522533 23.343040
vt 4.530556 23.506847
vt 3.103754 20.765383
vt 0.057040 20.023403
vt -0.296415 23.272982
vt -0.469847 23.311441
vt -1.666165 23.507673
vt 2.566323 21.732878
vt 1.403508 23.180975
vt 1.444961 23.261101
vt 1.431651 23.506845
vt -0.481696 23.540165
vt 0.532739 20.811401
vt -2.035653 23.077431
vt -0.467402 23.344467
vt -0.642415 21.780016
vt -0.439631 22.063671
vt 20.596756 23.968630
vt 17.283371 23.968630
vt 16.060522 23.968630
vt 12.142395 23.968594
vt 21.157715 38.130051
vt 22.142820 38.130054
vt 20.597055 38.130054
vt 20.597010 38.588940
vt 17.283627 38.588943
vt 16.060780 38.588940
vt 12.142653 38.588905
vt 21.158194 23.968616
vt 22.143244 25.125738
vt 22.143225 25.606234
vt 21.158115 25.626450
vt 20.596779 25.664263
vt 20.596771 25.664362
vt 17.283384 25.861502
vt 12.142435 26.154451
vt 21.158136 25.220531
vt 20.596725 25.247746
vt 12.142431 25.578329
vt 17.283379 25.382414
vt 20.596764 25.247803
vt 13.676021 34.657616
vt 13.471427 38.588913
vt 13.471425 34.811527
vt 13.676020 38.588917
vt 12.142524 33.541321
vt 12.142534 33.681206
vt -10.219179 19.494637
vt -10.300975 23.504442
vt -8.957596 22.015985
vt -10.219485 22.014790
vt -8.910223 23.493711
vt -8.957601 22.015985
vt -10.219485 22.014790
vt 22.152065 16.292517
vt 21.191469 16.292517
vt -9.348495 16.293791
vt 5.692921 16.294804
vt -10.221032 16.292501
vt -3.638629 23.342825
vt -2.321294 23.342823
vt -8.831541 17.177860
vt -8.831351 16.227539
vt -7.265440 17.756273
vt -7.276066 16.706144
vt 13.015999 20.989727
vt 13.674409 21.640457
vt 13.674409 20.989727
vt 13.015999 21.640457
vt 13.390233 21.219034
vt 13.700207 21.531649
vt 13.700207 21.219034
vt 13.390233 21.531649
vt 13.020615 21.024652
vt 13.362451 21.448807
vt 13.362451 21.024652
vt 13.020615 21.448807
vt 13.004704 20.438822
vt 13.155357 20.745075
vt 13.155357 20.438822
vt 13.004704 20.745075
vn 0.000000 0.000000 1.000000
vn 0.000000 0.000000 1.000000
vn 0.000000 0.000000 1.000000
vn 0.000000 0.000000 1.000000
vn 0.000000 0.000000 1.000000
vn 0.000000 0.000000 1.000000
vn 0.000000 0.000000 1.000000
vn 0.000000 0.000000 1.000000
vn 0.000000 0.000000 1.000000
vn 0.000000 0.000000 1.000000
vn 0.000000 0.000000 1.000000
vn 0.000000 0.000000 1.000000
vn 0.000000 0.000000 1.000000
vn 0.000000 0.000000 1.000000
vn 0.000000 0.000000 1.000000
vn 0.000000 0.000000 1.000000
vn 0.000000 0.000000 1.000000
vn 0.000000 0.000000 1.000000
vn 0.000000 0.000000 1.000000
vn 0.000000 0.000000 1.000000
vn 0.000000 0.000000 1.000000
vn 0.000000 0.000000 1.000000
vn 0.000001 0.000000 1.000000
vn 0.000000 0.000000 1.000000
vn 0.000000 0.000000 1.000000
vn 0.000000 0.000000 1.000000
vn -0.000000 0.000000 1.000000
vn -0.000000 0.000000 1.000000
vn 0.000000 0.000000 1.000000
vn 0.000000 0.000000 1.000000
vn 0.000000 0.000000 1.000000
vn 0.000000 0.000000 1.000000
vn -0.000000 0.000001 1.000000
vn -0.000000 0.000001 1.000000
vn -0.000002 0.000002 1.000000
vn 0.000000 0.000003 1.000000
vn 0.000003 0.000002 1.000000
vn -0.000002 -0.000002 1.000000
vn 0.000001 0.000004 1.000000
vn -0.000005 0.000000 1.000000
vn -0.000001 -0.000008 1.000000
vn 0.000006 -0.000003 1.000000
vn 0.000006 0.000007 1.000000
vn -0.000006 -0.000005 1.000000
vn 0.000000 0.000000 1.000000
vn -0.000000 0.000001 1.000000
vn 0.000000 0.000002 1.000000
vn 0.000000 0.000000 1.000000
vn -0.000000 0.000001 1.000000
vn -0.000001 0.000003 1.000000
vn 0.000001 0.000003 1.000000
vn 0.000000 0.000000 1.000000
vn 0.000000 0.000000 1.000000
vn -0.000001 0.000002 1.000000
vn 0.000000 0.000000 1.000000
vn 0.000000 0.000000 1.000000
vn 0.000000 0.000000 1.000000
vn 0.000000 0.000000 1.000000
vn 0.000000 0.000000 1.000000
vn 0.000000 0.000000 1.000000
vn 0.000005 0.000005 1.000000
vn 0.000002 0.000003 1.000000
vn 0.000001 0.000000 1.000000
vn 0.000004 0.000003 1.000000
vn 0.000001 0.000002 1.000000
vn -0.000002 0.000000 1.000000
vn -0.000001 0.000000 1.000000
vn 0.000000 0.000001 1.000000
vn -0.000000 0.000000 1.000000
vn 0.000005 0.000004 1.000000
vn 0.000000 0.000006 1.000000
vn -0.000002 0.000003 1.000000
vn -0.000003 0.000002 1.000000
vn 0.000000 0.000000 1.000000
vn 0.000000 0.000000 1.000000
vn 0.000000 0.000000 1.000000
vn 0.000000 0.000000 1.000000
vn 0.000000 0.000000 1.000000
vn 0.000000 0.000000 1.000000
vn 0.000000 0.000000 1.000000
vn 0.000000 0.000000 1.000000
vn 0.000000 0.000000 1.000000
vn 0.000000 0.000000 1.000000
vn 0.000000 0.000000 1.000000
vn 0.000000 0.000000 1.000000
vn 0.000000 0.000000 1.000000
vn 0.000000 0.000000 1.000000
vn 0.000000 0.000000 1.000000
vn 0.000000 0.000000 1.000000
vn 0.000000 0.000000 1.000000
vn 0.000000 0.000000 1.000000
vn 0.000000 0.000000 1.000000
vn 0.000000 0.000000 1.000000
vn 0.000000 0.000000 1.000000
vn 0.000000 0.000000 1.000000
vn 0.000000 0.000000 1.000000
vn 0.000000 0.000000 1.000000
vn 0.000000 0.000000 1.000000
vn 0.000000 0.000000 1.000000
vn 0.000000 0.000000 1.000000
vn 0.000000 0.000000 1.000000
vn 0.000000 0.000000 1.000000
vn 0.000000 0.000000 1.000000
vn 0.000000 0.000000 1.000000
vn 0.000000 0.000000 1.000000
vn 0.000001 0.000000 1.000000
vn 0.000000 0.000000 1.000000
vn 0.000000 0.000000 1.000000
vn 0.000001 0.000000 1.000000
vn -0.000000 0.000000 1.000000
vn -0.000000 -0.000000 1.000000
vn 0.000000 0.000000 1.000000
vn 0.000000 0.000000 1.000000
vn 0.000000 0.000000 1.000000
vn 0.000000 0.000000 1.000000
vn 0.000000 0.000000 1.000000
vn 0.000000 0.000000 1.000000
vn 0.000000 0.000000 1.000000
vn 0.000000 0.000000 1.000000
vn 0.000006 -0.000006 1.000000
vn 0.000006 -0.000006 1.000000
vn 0.000006 -0.000006 1.000000
vn 0.000006 -0.000006 1.000000
vn -0.000005 0.000003 1.000000
vn -0.000005 0.000003 1.000000
vn -0.000005 0.000003 1.000000
vn -0.000005 0.000003 1.000000
vn -0.000004 0.000009 1.000000
vn -0.000004 0.000009 1.000000
vn -0.000004 0.000009 1.000000
vn -0.000004 0.000009 1.000000
vn 0.000004 -0.000003 1.000000
vn 0.000004 -0.000003 1.000000
vn 0.000004 -0.000003 1.000000
vn 0.000004 -0.000003 1.000000
vn -0.000001 0.000005 1.000000
vn -0.000001 0.000005 1.000000
vn -0.000001 0.000005 1.000000
vn -0.000001 0.000005 1.000000
vn -0.000005 0.000001 1.000000
vn -0.000005 0.000001 1.000000
vn -0.000005 0.000001 1.000000
vn -0.000005 0.000001 1.000000
vn 0.000005 -0.000002 1.000000
vn 0.000005 -0.000002 1.000000
vn 0.000005 -0.000002 1.000000
vn 0.000005 -0.000002 1.000000
vn -0.000009 0.000000 1.000000
vn -0.000009 0.000000 1.000000
vn -0.000009 0.000000 1.000000
vn -0.000009 0.000000 1.000000
vn -0.000011 0.000003 1.000000
vn -0.000011 0.000003 1.000000
vn -0.000011 0.000003 1.000000
vn -0.000011 0.000003 1.000000
vn -0.000007 -0.000009 1.000000
vn -0.000007 -0.000009 1.000000
vn -0.000007 -0.000009 1.000000
vn -0.000007 -0.000009 1.000000
vn 0.000001 0.000007 1.000000
vn 0.000001 0.000007 1.000000
vn 0.000001 0.000007 1.000000
vn 0.000001 0.000007 1.000000
vn 0.000002 0.000005 1.000000
vn 0.000002 0.000005 1.000000
vn 0.000002 0.000005 1.000000
vn 0.000002 0.000005 1.000000
g fff0ade4_00187_002b427b_e0
f 96/118/96 76/98/76 95/117/95
f 85/107/85 94/116/94 93/115/93
f 94/116/94 89/111/89 93/115/93
f 50/58/50 111/136/111 33/41/33
f 86/108/86 93/115/93 87/109/87
f 114/139/114 113/138/113 7/7/7
f 61/77/61 64/81/64 70/86/70
f 15/20/15 10/24/10 16/25/16
f 85/107/85 93/115/93 86/108/86
f 111/136/111 23/29/23 65/82/65
f 113/138/113 4/6/4 7/7/7
f 91/113/91 96/118/96 92/114/92
f 103/125/103 84/106/84 100/122/100
f 96/118/96 95/117/95 92/114/92
f 98/120/98 102/124/102 100/122/100
f 117/142/117 116/141/116 118/143/118
f 73/95/73 66/83/66 68/92/68
f 69/90/69 68/93/68 66/84/66
f 97/119/97 74/96/74 96/118/96
f 111/136/111 47/55/47 110/134/110
f 4/10/4 118/143/118 7/13/7
f 70/86/70 68/87/68 62/78/62
f 6/23/6 17/26/17 3/12/3
f 15/20/15 14/19/14 7/13/7
f 90/112/90 97/119/97 91/113/91
f 23/29/23 107/129/107 106/128/106
f 91/113/91 82/104/82 81/103/81
f 98/120/98 99/121/99 101/123/101
f 53/61/53 77/99/77 76/98/76
f 118/143/118 10/2/10 7/13/7
f 7/13/7 10/24/10 15/20/15
f 9/8/9 117/142/117 4/10/4
f 5/5/5 115/140/115 9/8/9
f 118/143/118 116/141/116 10/2/10
f 1/21/1 5/4/5 9/3/9
f 77/99/77 53/61/53 55/63/55
f 117/142/117 115/140/115 116/141/116
f 93/115/93 89/111/89 88/110/88
f 79/102/79 88/110/88 89/111/89
f 88/110/88 80/101/80 87/109/87
f 26/33/26 29/36/29 28/35/28
f 93/115/93 88/110/88 87/109/87
f 26/33/26 45/53/45 25/32/25
f 45/53/45 76/98/76 75/97/75
f 86/108/86 13/16/13 85/107/85
f 32/39/32 12/40/12 29/36/29
f 79/102/79 78/100/78 88/110/88
f 31/38/31 32/39/32 22/28/22
f 116/141/116 2/9/2 10/2/10
f 113/138/113 1/21/1 4/6/4
f 68/92/68 70/86/70 73/95/73
f 62/78/62 50/58/50 35/43/35
f 29/36/29 22/28/22 32/39/32
f 72/94/72 73/95/73 65/82/65
f 62/78/62 61/77/61 70/86/70
f 13/16/13 30/37/30 31/38/31
f 78/100/78 80/101/80 88/110/88
f 110/134/110 27/34/27 12/15/12
f 85/107/85 74/96/74 94/116/94
f 24/30/24 66/83/66 72/94/72
f 62/78/62 49/57/49 50/58/50
f 76/98/76 45/53/45 53/61/53
f 14/19/14 6/11/6 11/14/11
f 112/137/112 104/126/104 23/29/23
f 1/21/1 9/3/9 4/6/4
f 65/82/65 34/42/34 111/136/111
f 98/120/98 101/123/101 83/105/83
f 31/38/31 22/28/22 13/16/13
f 95/117/95 76/98/76 77/99/77
f 91/113/91 83/105/83 82/104/82
f 96/118/96 75/97/75 76/98/76
f 90/112/90 91/113/91 81/103/81
f 96/118/96 74/96/74 75/97/75
f 22/28/22 29/36/29 26/33/26
f 71/91/71 70/86/70 64/81/64
f 28/35/28 29/36/29 27/34/27
f 46/54/46 26/33/26 28/35/28
f 73/95/73 71/91/71 65/82/65
f 25/32/25 13/16/13 22/28/22
f 102/124/102 103/125/103 100/122/100
f 25/32/25 75/97/75 74/96/74
f 74/96/74 85/107/85 13/16/13
f 13/16/13 25/32/25 74/96/74
f 75/97/75 25/32/25 45/53/45
f 97/119/97 96/118/96 91/113/91
f 30/37/30 13/16/13 86/108/86
f 24/30/24 72/94/72 65/82/65
f 23/29/23 111/136/111 109/135/109
f 12/15/12 108/133/108 110/134/110
f 8/17/8 14/18/14 11/1/11
f 14/18/14 8/17/8 7/7/7
f 23/29/23 109/135/109 112/137/112
f 63/80/63 62/79/62 68/88/68
f 15/20/15 6/11/6 14/19/14
f 98/120/98 100/122/100 99/121/99
f 17/26/17 10/24/10 119/27/119
f 92/114/92 102/124/102 98/120/98
f 8/17/8 114/139/114 7/7/7
f 24/30/24 65/82/65 106/128/106
f 66/84/66 24/31/24 67/85/67
f 106/131/106 105/127/105 24/130/24
f 117/142/117 118/143/118 4/10/4
f 9/8/9 115/140/115 117/142/117
f 10/24/10 2/22/2 119/27/119
f 16/25/16 17/26/17 6/23/6
f 16/25/16 6/23/6 15/20/15
f 17/26/17 119/27/119 3/12/3
f 16/25/16 10/24/10 17/26/17
f 64/81/64 65/82/65 71/91/71
f 64/81/64 61/77/61 34/42/34
f 100/122/100 84/106/84 99/121/99
f 29/36/29 12/15/12 27/34/27
f 91/113/91 98/120/98 83/105/83
f 106/128/106 65/82/65 23/29/23
f 92/114/92 98/120/98 91/113/91
f 62/78/62 35/43/35 61/77/61
f 26/33/26 25/32/25 22/28/22
f 111/136/111 50/58/50 47/55/47
f 49/57/49 62/79/62 48/56/48
f 35/43/35 50/58/50 36/44/36
f 34/42/34 33/41/33 111/136/111
f 62/79/62 63/80/63 48/56/48
f 40/48/40 44/50/44 39/47/39
f 33/41/33 37/45/37 50/58/50
f 41/43/41 43/49/43 39/47/39
f 37/45/37 36/44/36 50/58/50
f 41/51/41 42/52/42 43/49/43
f 105/127/105 106/131/106 107/132/107
f 44/50/44 41/51/41 39/47/39
f 33/41/33 34/42/34 40/48/40
f 40/48/40 39/47/39 33/41/33
f 37/45/37 33/41/33 39/47/39
f 39/47/39 43/49/43 37/45/37
f 34/42/34 38/46/38 44/50/44
f 44/50/44 40/48/40 34/42/34
f 35/43/35 36/44/36 42/52/42
f 42/52/42 41/51/41 35/43/35
f 38/46/38 35/43/35 41/51/41
f 41/51/41 44/50/44 38/46/38
f 36/44/36 37/45/37 43/49/43
f 43/49/43 42/52/42 36/44/36
f 26/33/26 46/54/46 45/53/45
f 61/77/61 35/43/35 38/46/38
f 47/55/47 46/54/46 28/35/28
f 51/59/51 46/54/46 47/55/47
f 110/134/110 47/55/47 27/34/27
f 52/60/52 53/61/53 45/53/45
f 46/54/46 52/60/52 45/53/45
f 73/95/73 72/94/72 66/83/66
f 52/60/52 46/54/46 51/59/51
f 27/34/27 47/55/47 28/35/28
f 50/58/50 51/59/51 47/55/47
f 49/57/49 54/62/54 50/58/50
f 56/64/56 49/57/49 55/63/55
f 49/57/49 56/64/56 54/62/54
f 49/57/49 48/56/48 55/63/55
f 54/62/54 51/59/51 50/58/50
f 54/62/54 52/60/52 51/59/51
f 56/64/56 55/63/55 53/61/53
f 52/60/52 56/64/56 53/61/53
f 56/64/56 52/60/52 54/62/54
f 58/71/58 18/66/18 19/76/19
f 64/81/64 34/42/34 65/82/65
f 59/74/59 20/65/20 57/68/57
f 21/67/21 59/74/59 19/70/19
f 61/77/61 38/46/38 34/42/34
f 20/69/20 58/71/58 57/68/57
f 60/75/60 57/68/57 58/71/58
f 68/88/68 69/89/69 63/80/63
f 20/69/20 18/72/18 58/71/58
f 73/95/73 70/86/70 71/91/71
f 66/84/66 67/85/67 69/90/69
f 21/73/21 20/65/20 59/74/59
f 59/74/59 60/75/60 19/70/19
f 59/74/59 57/68/57 60/75/60
f 107/129/107 23/29/23 104/126/104
f 58/71/58 19/76/19 60/75/60
g fff0ade4_00187_002b427b_e0
g fff0ade4_00187_002b427b_e0
