# fff0030f_00025_000b510c
o fff0030f_00025_000b510c
v 0.102076 -0.070896 -2.217819
v 0.102249 -0.177719 -2.856344
v 0.279826 -0.000159 -2.856344
v 0.152344 -0.050262 -2.217819
v 0.173083 -0.000204 -2.217819
v 0.227797 -0.125707 -2.856344
v 0.152356 0.049848 -2.217819
v 0.227833 0.125407 -2.856344
v 0.102074 0.070505 -2.217819
v 0.102249 0.177418 -2.856344
v 0.052082 0.049787 -2.217819
v -0.023299 0.125407 -2.856344
v 0.031397 -0.000203 -2.217819
v 0.052091 -0.050198 -2.217819
v -0.023299 -0.125726 -2.856344
v -0.075328 -0.000141 -2.856344
v 0.102356 -0.295369 0.865567
v -0.106604 -0.208826 0.865567
v 0.102356 0.295579 0.865567
v -0.106604 0.209064 0.865567
v -0.193147 0.000105 0.865567
v 0.102292 0.168661 0.727503
v -0.017123 0.119207 0.727503
v 0.102292 -0.169069 0.727503
v -0.017123 -0.119623 0.727503
v -0.066592 -0.000208 0.727503
v 0.092148 0.067053 0.557419
v 0.044731 0.047257 0.557419
v 0.025369 -0.000170 0.557419
v 0.092150 -0.066629 0.557419
v 0.045108 -0.047221 0.557419
v 0.092590 0.000073 1.334052
v 0.607788 0.244995 -2.837620
v 0.584473 -0.189514 -2.797588
v 0.274048 -0.446228 -2.775291
v -0.127197 -0.407715 -2.856651
v -0.383789 -0.097290 -2.855968
v -0.345459 0.303711 -2.855495
v 0.092627 -0.279620 1.085377
v -0.105192 -0.197692 1.085377
v 0.092627 0.279819 1.085377
v -0.187120 0.000099 1.085377
v -0.105192 0.197917 1.085377
v 0.092590 -0.509243 1.116828
v -0.267375 -0.360128 1.116828
v -0.416514 -0.000014 1.116828
v -0.267375 0.360033 1.116828
v 0.092590 0.509194 1.116828
v 2.250977 1.639648 -2.897545
v 2.098511 1.822205 -2.926453
v 3.086060 2.472168 -2.896675
v 3.208862 1.678833 -2.866898
v 2.328247 2.774292 -2.926453
v 2.929077 1.838928 -2.866898
v 2.080933 2.095947 -2.926453
v 2.412231 2.463440 -2.926453
v 2.511475 1.553589 -2.897545
v 0.461426 0.410889 -2.837246
v -0.034912 0.560303 -2.855503
v 0.093509 0.067526 0.007580
v 0.045718 0.047597 0.007580
v 0.026172 -0.000174 0.007580
v 0.046046 -0.047621 0.007580
v 0.093512 -0.067215 0.007580
v 3.139771 2.517151 -2.896675
v 2.201172 2.913635 -2.926453
v 3.312500 1.528809 -2.866898
v 1.965210 1.896484 -2.926453
v 1.916992 2.078430 -2.926453
v 2.313232 2.525208 -2.926453
v 2.280518 1.506348 -2.897545
v 2.460449 1.392822 -2.897545
v 2.964844 1.735352 -2.866898
v 0.452556 -0.360128 1.116828
v 0.601694 -0.000014 1.116828
v 0.452556 0.360033 1.116828
v 0.115967 0.051697 -2.856342
vt 15.676634 7.286277
vt -84268.656250 -175384.218750
vt 15263960.000000 6322548.000000
vt 8588364.000000 -15351249.000000
vt -4438289408.000000 -2728673536.000000
vt -354518.968750 1126353.125000
vt -13043.989258 -426071.875000
vt 959988.812500 28.133636
vt 7121424.000000 533455.125000
vt 11025354.000000 827511.562500
vt 148451.390625 5628.079590
vt 25212.988281 1.894325
vt -38688.253906 -6.104747
vt 1.774798 -1.040580
vt -306494.500000 -20748.175781
vt -1497549.500000 2678776.750000
vt -35191.445312 -26609.671875
vt -5205.384766 -46390.031250
vt 8190280.000000 613964.687500
vt -27454362.000000 -2070305.500000
vt 40861732.000000 3104138.250000
vt 5192360.000000 387120.000000
vt -4016009.000000 -197877.140625
vt 9970883.000000 748085.375000
vt -59214320.000000 -4477087.500000
vt -68936.625000 -4296.304199
vt -87938.296875 -12.269802
vt 23151.662109 1.989526
vt 29807.183594 2.860672
vt -498212.750000 -18462.429688
vt -1197288.375000 -10127.753906
vt 5208891.500000 389397.125000
vt -27621014.000000 -2082928.250000
vt 15996062.000000 1203222.250000
vt -380120128.000000 -28787188.000000
vt 6970791.500000 522109.062500
vt 6965675.000000 521723.625000
vt 9569487.000000 717851.000000
vt 9345159.000000 700953.812500
vt 15236985.000000 1145579.750000
vt -49774796.000000 -3764201.250000
vt 6438516.000000 482016.343750
vt 615460.125000 43405.390625
vt -322248.218750 -27225.767578
vt 6816834.000000 510512.437500
vt -0.661777 0.097264
vt -0.419655 0.097264
vt 0.164568 0.097264
vt 0.748851 0.097264
vt 1.467984 0.130589
vt 1.293315 -0.196962
vt 1.173091 -0.196962
vt 1.293315 -0.196962
vt 1.873843 -0.196962
vt 1.583539 -0.196962
vt 1.902565 2.854042
vt 1.795416 2.854042
vt 1.536655 2.854042
vt 1.536591 3.144330
vt 1.277940 2.854042
vt 1.170759 2.854042
vt 0.677324 1.789317
vt 0.647710 1.789317
vt 0.575916 1.789317
vt 1.335580 2.812004
vt 1.536571 2.812004
vt 1.394428 2.812004
vt 0.164441 0.641954
vt 0.720967 0.646259
vt 0.718091 0.646289
vt 0.990771 0.097264
vt 0.948565 0.643893
vt 1.583678 0.130589
vt 1.699395 0.130589
vt 1.994027 -0.196962
vt 1.583578 -0.196962
vt 1.873796 -0.196962
vt 0.575500 2.137169
vt 0.256651 2.137169
vt 0.124644 2.137169
vt -0.617395 0.619996
vt 0.318305 1.981314
vt 0.473347 1.789317
vt 0.393762 1.981314
vt 1.017631 0.644463
vt 0.503550 1.789317
vt 0.575974 1.981314
vt -0.626139 0.618279
vt -0.394838 0.630470
vt -0.393471 0.630297
vt 0.162811 0.642116
vt 1.737567 2.812004
vt 1.678696 2.812004
vt 1.026342 2.137169
vt 0.894295 2.137169
vt 0.256651 2.137169
vt 0.575500 2.137169
vt 0.575974 1.981314
vt 0.393762 1.981314
vt 0.393762 1.981314
vt 0.256651 2.137169
vt 0.575500 2.137169
vt 0.833632 1.981314
vt 0.758187 1.981314
vt -0.621426 0.769359
vt -0.390089 0.769359
vt 0.164184 0.769359
vt 0.940912 0.769359
vt 0.714081 0.769359
vt 0.833632 1.981314
vt 0.758187 1.981314
vt 0.758187 1.981314
vt 1.026342 2.137169
vt 0.894295 2.137169
vt 0.758187 1.981314
vt 0.575974 1.981314
vt 0.575974 1.981314
vt 0.894295 2.137169
vt 0.393762 1.981314
vt 0.318305 1.981314
vt 0.318305 1.981314
vt 0.647710 1.789317
vt 0.758187 1.981314
vt 0.833632 1.981314
vt 0.758187 1.981314
vt 0.575916 1.789317
vt 0.575974 1.981314
vt 0.473347 1.789317
vt 0.393762 1.981314
vt 0.503550 1.789317
vt 0.393762 1.981314
vt 0.575974 1.981314
vt 0.503550 1.789317
vt 0.647710 1.789317
vt 0.575916 1.789317
vt 1.468123 0.130589
vt 1.583677 0.130589
vt 1.583677 0.130589
vt 1.583677 0.130589
vt 1.699243 0.130589
vt 1.699243 0.130589
vt 1.699243 0.130589
vt 1.747092 0.130589
vt 1.747092 0.130589
vt 1.467984 0.130589
vt 1.747092 0.130589
vt 1.699395 0.130589
vt 1.583678 0.130589
vt 1.699395 0.130589
vt 1.583678 0.130589
vt 1.467984 0.130589
vt 1.420233 0.130589
vt 1.420233 0.130589
vt 1.420233 0.130589
vt 1.468123 0.130589
vt 1.468123 0.130589
vn -0.134258 -0.984714 0.110963
vn 0.000039 -0.986316 0.164868
vn 0.986313 -0.000125 0.164885
vn 0.696366 -0.698431 0.165133
vn 0.986315 -0.000107 0.164873
vn 0.697398 -0.697473 0.164824
vn 0.696415 0.698422 0.164963
vn 0.697364 0.697445 0.165085
vn -0.134248 0.984736 0.110786
vn 0.000010 0.986269 0.165144
vn -0.704614 0.704623 0.083820
vn -0.697346 0.697495 0.164951
vn -0.996529 -0.000072 0.083251
vn -0.704433 -0.704796 0.083891
vn -0.697361 -0.697506 0.164843
vn -0.986320 0.000079 0.164843
vn -0.365647 -0.882890 -0.294631
vn -0.667739 -0.673789 -0.316437
vn -0.365441 0.882654 -0.295591
vn -0.667420 0.673770 -0.317151
vn -0.946429 0.000108 -0.322911
vn -0.312954 0.755746 -0.575246
vn -0.564153 0.567857 -0.599391
vn -0.312858 -0.755786 -0.575245
vn -0.563738 -0.568239 -0.599420
vn -0.804045 -0.000375 -0.594568
vn -0.371683 0.891588 -0.258692
vn -0.687472 0.674880 -0.268177
vn -0.965047 -0.004427 -0.262041
vn -0.368256 -0.892577 -0.260180
vn -0.682786 -0.679254 -0.269104
vn 0.000000 0.000084 1.000000
vn -0.021588 0.026394 0.999419
vn -0.062061 0.120781 0.990737
vn -0.118127 0.122892 0.985365
vn -0.094694 0.049452 0.994277
vn 0.001129 -0.001278 0.999999
vn 0.001123 -0.001304 0.999999
vn -0.275293 -0.664698 -0.694543
vn -0.481981 -0.475697 -0.735804
vn -0.275279 0.664827 -0.694426
vn -0.672765 0.000002 -0.739856
vn -0.481975 0.475781 -0.735753
vn -0.044022 -0.728703 0.683414
vn -0.702792 -0.702851 -0.109925
vn -0.993939 -0.000019 -0.109930
vn -0.702858 0.702785 -0.109929
vn -0.044077 0.728878 0.683223
vn 0.021959 0.140246 0.989873
vn -0.042210 0.046886 0.998008
vn -0.026772 0.032823 0.999103
vn 0.025241 0.025937 0.999345
vn -0.031267 -0.017014 0.999366
vn -0.012092 0.042540 0.999022
vn -0.015737 0.007376 0.999849
vn -0.085358 -0.013831 0.996254
vn -0.048619 0.023156 0.998549
vn -0.014327 -0.004083 0.999889
vn -0.018163 -0.007038 0.999810
vn -0.384894 0.922961 -0.000185
vn -0.709556 0.704648 -0.001083
vn -0.999990 -0.004137 -0.001917
vn -0.705364 -0.708844 -0.000915
vn -0.381571 -0.924340 0.000037
vn -0.024624 0.029356 0.999266
vn -0.025008 -0.022807 0.999427
vn 0.029214 0.020181 0.999370
vn 0.000000 0.000000 1.000000
vn 0.000000 0.000000 1.000000
vn 0.000000 0.000000 1.000000
vn 0.000000 0.000000 1.000000
vn -0.026035 0.008263 0.999627
vn -0.026357 -0.006523 0.999631
vn 0.277437 -0.277446 0.919811
vn 0.392447 -0.000001 0.919775
vn 0.277536 0.277505 0.919764
vn -0.048961 0.039204 0.998031
g fff0030f_00025_000b510c_e0
f 19/7/19 20/6/20 43/18/43
f 43/18/43 41/17/41 19/7/19
f 20/6/20 21/5/21 42/16/42
f 42/16/42 43/18/43 20/6/20
f 40/4/40 42/16/42 21/5/21
f 21/5/21 18/3/18 40/4/40
f 39/2/39 40/4/40 18/3/18
f 18/3/18 17/1/17 39/2/39
g fff0030f_00025_000b510c_e1
f 65/33/65 66/34/66 53/22/53
f 59/31/59 38/30/38 77/15/77
f 53/22/53 51/20/51 65/33/65
f 37/29/37 77/14/77 38/28/38
f 65/33/65 52/21/52 67/35/67
f 36/27/36 77/13/77 37/29/37
f 52/21/52 65/33/65 51/20/51
f 35/26/35 77/12/77 36/27/36
f 66/34/66 70/38/70 56/24/56
f 34/25/34 77/11/77 35/26/35
f 56/24/56 53/22/53 66/34/66
f 33/24/33 77/10/77 34/25/34
f 67/35/67 54/25/54 73/41/73
f 58/23/58 77/9/77 33/24/33
f 54/25/54 67/35/67 52/21/52
f 59/31/59 77/8/77 58/23/58
f 57/10/57 56/24/56 55/9/55
f 56/24/56 57/10/57 54/25/54
f 54/25/54 53/22/53 56/24/56
f 53/22/53 54/25/54 52/21/52
f 52/21/52 51/20/51 53/22/53
f 57/10/57 55/9/55 50/45/50
f 50/45/50 49/19/49 57/10/57
f 58/44/58 49/42/49 50/32/50
f 58/44/58 33/43/33 49/42/49
f 57/10/57 73/41/73 54/25/54
f 73/41/73 57/10/57 72/40/72
f 57/10/57 49/19/49 71/39/71
f 71/39/71 72/40/72 57/10/57
f 55/9/55 56/24/56 70/38/70
f 70/38/70 69/37/69 55/9/55
f 55/9/55 68/36/68 50/45/50
f 68/36/68 55/9/55 69/37/69
g fff0030f_00025_000b510c_e2
f 48/61/48 47/60/47 32/59/32
f 47/60/47 46/58/46 32/59/32
f 46/58/46 45/57/45 32/59/32
f 45/57/45 44/56/44 32/59/32
f 16/55/16 15/54/15 14/141/14
f 16/55/16 14/140/14 13/139/13
f 12/53/12 16/55/16 13/138/13
f 12/53/12 13/137/13 11/136/11
f 10/52/10 12/53/12 11/156/11
f 10/52/10 11/155/11 9/154/9
f 8/51/8 10/52/10 9/153/9
f 8/51/8 9/152/9 7/151/7
f 6/77/6 5/150/5 4/149/4
f 6/77/6 3/76/3 5/148/5
f 2/75/2 6/77/6 4/147/4
f 2/75/2 4/74/4 1/146/1
f 3/76/3 7/145/7 5/73/5
f 15/54/15 2/75/2 1/144/1
f 3/76/3 8/51/8 7/50/7
f 15/54/15 1/143/1 14/142/14
f 64/72/64 14/49/14 1/71/1
f 31/109/31 63/70/63 30/108/30
f 63/69/63 13/48/13 14/49/14
f 29/107/29 62/68/62 31/109/31
f 46/58/46 47/60/47 43/67/43
f 43/67/43 42/66/42 46/58/46
f 47/60/47 48/61/48 41/65/41
f 41/65/41 43/67/43 47/60/47
f 45/57/45 46/58/46 42/66/42
f 42/66/42 40/93/40 45/57/45
f 44/56/44 45/57/45 40/93/40
f 40/93/40 39/92/39 44/56/44
f 62/91/62 11/47/11 13/48/13
f 28/106/28 61/90/61 29/107/29
f 61/89/61 9/46/9 11/47/11
f 27/105/27 60/88/60 28/106/28
f 26/87/26 28/86/28 29/64/29
f 63/70/63 64/85/64 30/108/30
f 25/104/25 29/135/29 31/63/31
f 62/68/62 63/70/63 31/109/31
f 24/103/24 31/134/31 30/62/30
f 61/90/61 62/68/62 29/107/29
f 23/84/23 27/83/27 28/133/28
f 60/88/60 61/90/61 28/106/28
f 63/69/63 14/49/14 64/72/64
f 26/132/26 23/131/23 28/130/28
f 62/91/62 13/48/13 63/69/63
f 23/129/23 22/82/22 27/128/27
f 61/89/61 11/47/11 62/91/62
f 25/125/25 26/127/26 29/126/29
f 60/81/60 9/46/9 61/89/61
f 24/124/24 25/123/25 31/122/31
f 21/102/21 20/101/20 23/100/23
f 23/99/23 26/98/26 21/97/21
f 20/96/20 19/80/19 22/121/22
f 22/120/22 23/119/23 20/79/20
f 18/118/18 21/78/21 26/117/26
f 26/116/26 25/115/25 18/114/18
f 17/113/17 18/95/18 25/112/25
f 25/111/25 24/110/24 17/94/17
f 48/61/48 32/59/32 76/60/76
f 76/60/76 32/59/32 75/58/75
f 75/58/75 32/59/32 74/57/74
f 74/57/74 32/59/32 44/56/44
