# fff08f90_00021_0014979d
o fff08f90_00021_0014979d
v 1.096619 -0.053711 0.050813
v 3.461548 -4.477539 0.631201
v -2.755127 -2.126221 -0.161989
v -2.993286 -4.142334 -0.161989
v 2.205427 -4.039118 0.106155
v 2.800947 -6.522760 0.106155
v -1.117754 -4.401423 0.078809
v 3.664717 -3.598200 0.106155
v 4.298052 -6.277678 0.106155
v 0.341719 -3.960505 0.078809
v 0.834700 -7.493708 0.106155
v -0.892900 -5.612848 -0.401453
v 3.562605 -5.562067 0.106155
vt 3.692172 0.982497
vt 3.692172 0.982497
vt 3.692172 0.982497
vt 3.692172 0.982497
vn -0.107340 0.055709 0.992660
vn -0.118278 0.066750 0.990734
vn -0.058894 0.006957 0.998240
vn -0.092008 0.040253 0.994944
vn -0.008019 -0.001923 0.999966
vn -0.008019 -0.001923 0.999966
vn -0.008019 -0.001923 0.999966
vn -0.008022 -0.001896 0.999966
vn -0.008022 -0.001896 0.999966
vn -0.008022 -0.001896 0.999966
vn -0.113535 0.160337 0.980511
vn -0.113535 0.160337 0.980511
vn -0.113535 0.160337 0.980511
g fff08f90_00021_0014979d_e1
f 13/4/13 12/4/12 11/4/11
f 10/4/10 9/4/9 8/4/8
f 7/4/7 6/4/6 5/4/5
f 4/3/4 1/1/1 3/2/3
f 2/4/2 1/1/1 4/3/4
