# fff07975_00312_0082e12e
o fff07975_00312_0082e12e
v 0.000000 0.000000 1.231331
v 0.000000 0.029526 1.201807
v 0.000000 0.000000 1.172282
v 0.000000 -0.029526 1.201807
v 0.161974 0.000000 1.178704
v 0.144621 0.029526 1.154818
v 0.127258 0.000000 1.130932
v 0.144621 -0.029526 1.154818
v 0.262077 0.000000 1.040923
v 0.233992 0.029526 1.031800
v 0.205917 0.000000 1.022676
v 0.233992 -0.029526 1.031800
v 0.262077 0.000000 0.879741
v 0.233992 0.029526 0.879741
v 0.205917 0.000000 0.879741
v 0.233992 -0.029526 0.879741
v -0.262077 0.000000 -1.075323
v -0.233992 0.029526 -1.075323
v -0.205917 0.000000 -1.075323
v -0.233992 -0.029526 -1.075323
v -0.262077 0.000000 1.040923
v -0.233992 0.029526 1.031800
v -0.205917 0.000000 1.022676
v -0.233992 -0.029526 1.031800
v -0.161974 0.000000 1.178704
v -0.144620 0.029526 1.154818
v -0.127258 0.000000 1.130932
v -0.144620 -0.029526 1.154818
v 0.184966 -0.049023 0.896151
v 0.284966 -0.049023 0.896151
v 0.184966 0.050977 0.896151
v 0.284966 0.050977 0.896151
v -0.284001 -0.049023 -0.970003
v -0.184001 -0.049023 -0.970003
v -0.284001 0.050977 -0.970003
v -0.184001 0.050977 -0.970003
v 0.000000 -0.591553 1.231331
v 0.000000 -0.562027 1.201807
v 0.000000 -0.591553 1.172282
v 0.000000 -0.621079 1.201807
v 0.161974 -0.591553 1.178704
v 0.144621 -0.562027 1.154818
v 0.127258 -0.591553 1.130932
v 0.144621 -0.621079 1.154818
v 0.262077 -0.591553 1.040923
v 0.233992 -0.562027 1.031800
v 0.205917 -0.591553 1.022676
v 0.233992 -0.621079 1.031800
v 0.262077 -0.591553 0.879741
v 0.233992 -0.562027 0.879741
v 0.205917 -0.591553 0.879741
v 0.233992 -0.621079 0.879741
v -0.262077 -0.591553 -1.075323
v -0.233992 -0.562027 -1.075323
v -0.205917 -0.591553 -1.075323
v -0.233992 -0.621079 -1.075323
v -0.262077 -0.591553 1.040923
v -0.233992 -0.562027 1.031800
v -0.205917 -0.591553 1.022676
v -0.233992 -0.621079 1.031800
v -0.161974 -0.591553 1.178704
v -0.144620 -0.562027 1.154818
v -0.127258 -0.591553 1.130932
v -0.144620 -0.621079 1.154818
v 0.184966 -0.640576 0.896151
v 0.284966 -0.640576 0.896151
v 0.184966 -0.540576 0.896151
v 0.284966 -0.540576 0.896151
v -0.284001 -0.640576 -0.970003
v -0.184001 -0.640576 -0.970003
v -0.284001 -0.540576 -0.970003
v -0.184001 -0.540576 -0.970003
v -0.262077 0.000000 0.467196
v -0.233993 0.000000 0.496737
v -0.205916 0.000000 0.467196
v -0.233993 0.000000 0.437655
v -0.262077 -0.591553 0.467196
v -0.233993 -0.591553 0.496737
v -0.205916 -0.591553 0.467196
v -0.233993 -0.591553 0.437655
v -0.262077 0.000000 -0.025340
v -0.233993 0.000000 0.004201
v -0.205916 0.000000 -0.025340
v -0.233993 0.000000 -0.054881
v -0.262077 -0.591553 -0.025340
v -0.233993 -0.591553 0.004201
v -0.205916 -0.591553 -0.025340
v -0.233993 -0.591553 -0.054881
v -0.262077 0.000000 -0.483454
v -0.233993 0.000000 -0.453913
v -0.205916 0.000000 -0.483454
v -0.233993 0.000000 -0.512995
v -0.262077 -0.591553 -0.483454
v -0.233993 -0.591553 -0.453913
v -0.205916 -0.591553 -0.483454
v -0.233993 -0.591553 -0.512995
vt 0.700000 0.000000
vt 0.700000 0.250000
vt 0.700000 0.500000
vt 0.700000 0.750000
vt 0.700000 1.000000
vt 0.800000 0.000000
vt 0.800000 0.250000
vt 0.800000 0.500000
vt 0.800000 0.750000
vt 0.800000 1.000000
vt 0.000000 0.000000
vt 1.000000 0.000000
vt 0.000000 1.000000
vt 1.000000 1.000000
vt 1.733861 1.391380
vt 1.733861 1.395383
vt 1.770591 1.388249
vt 1.766656 1.385011
vt 1.719601 1.877917
vt 1.748459 1.872312
vt 1.733861 1.391380
vt 1.766656 1.385011
vt 1.793292 1.369573
vt 1.786923 1.368336
vt 1.766297 1.857637
vt 1.786923 1.368336
vt 1.793292 1.082707
vt 1.786923 1.082707
vt 1.766297 1.573246
vt 1.786923 1.082707
vt 1.680799 1.368336
vt 1.674430 1.369573
vt 1.697131 1.388249
vt 1.701066 1.385011
vt 1.672906 1.857637
vt 1.690743 1.872312
vt 1.680799 1.368336
vt 1.701066 1.385011
vt 1.674430 1.347724
vt 1.680799 1.347724
vt 1.672906 1.838262
vt 1.680799 1.347724
vt 1.733861 1.391380
vt 1.733861 1.395383
vt 1.770591 1.388249
vt 1.766656 1.385011
vt 1.733861 1.391380
vt 1.766656 1.385011
vt 1.793291 1.369573
vt 1.786923 1.368336
vt 1.786923 1.368336
vt 1.793291 1.082707
vt 1.786923 1.082707
vt 1.786923 1.082707
vt 1.680799 1.368336
vt 1.674430 1.369573
vt 1.697131 1.388249
vt 1.701066 1.385011
vt 1.680799 1.368336
vt 1.701066 1.385011
vt 1.674430 1.347724
vt 1.680799 1.347724
vt 1.680799 1.347724
vt 1.719601 1.881919
vt 1.752396 1.875550
vt 1.772663 1.858874
vt 1.772663 1.573246
vt 1.666540 1.858874
vt 1.686806 1.875550
vt 1.666539 1.838262
vn 0.000001 0.000000 1.000000
vn 0.000004 0.990309 0.138882
vn -0.000001 -0.000000 -1.000000
vn -0.000003 -0.990309 0.138882
vn 0.587787 -0.000003 0.809016
vn 0.081644 0.990303 0.112405
vn -0.587750 -0.000008 -0.809042
vn 0.081661 -0.990303 0.112389
vn 0.951060 -0.000003 0.309005
vn 0.132023 0.990319 0.042885
vn -0.951057 -0.000010 -0.309014
vn 0.132012 -0.990319 0.042902
vn 1.000000 -0.000000 0.000000
vn -0.000079 1.000000 0.000000
vn -1.000000 -0.000000 0.000000
vn -0.000080 -1.000000 0.000000
vn -1.000000 -0.000000 0.000000
vn 0.000080 1.000000 0.000000
vn 1.000000 -0.000000 0.000000
vn 0.000081 -1.000000 0.000000
vn -0.951060 0.000003 0.309006
vn -0.132011 0.990319 0.042902
vn 0.951057 0.000011 -0.309016
vn -0.132022 -0.990319 0.042885
vn -0.587785 0.000003 0.809017
vn -0.081659 0.990304 0.112387
vn 0.587749 0.000007 -0.809043
vn -0.081643 -0.990303 0.112403
vn 0.000000 0.000000 1.000000
vn 0.000000 0.000000 1.000000
vn 0.000000 0.000000 1.000000
vn 0.000000 0.000000 1.000000
vn 0.000000 0.000000 1.000000
vn 0.000000 0.000000 1.000000
vn 0.000000 0.000000 1.000000
vn 0.000000 0.000000 1.000000
vn 0.000001 0.000000 1.000000
vn 0.000004 0.990309 0.138882
vn -0.000001 -0.000000 -1.000000
vn -0.000003 -0.990309 0.138882
vn 0.587787 -0.000003 0.809016
vn 0.081644 0.990303 0.112405
vn -0.587750 -0.000008 -0.809042
vn 0.081661 -0.990303 0.112389
vn 0.951060 -0.000003 0.309005
vn 0.132023 0.990319 0.042885
vn -0.951057 -0.000010 -0.309014
vn 0.132012 -0.990319 0.042902
vn 1.000000 -0.000000 0.000000
vn -0.000079 1.000000 0.000000
vn -1.000000 -0.000000 0.000000
vn -0.000080 -1.000000 0.000000
vn -1.000000 -0.000000 0.000000
vn 0.000080 1.000000 0.000000
vn 1.000000 -0.000000 0.000000
vn 0.000081 -1.000000 0.000000
vn -0.951060 0.000003 0.309006
vn -0.132011 0.990319 0.042902
vn 0.951057 0.000011 -0.309016
vn -0.132022 -0.990319 0.042885
vn -0.587785 0.000003 0.809017
vn -0.081659 0.990304 0.112387
vn 0.587749 0.000007 -0.809043
vn -0.081643 -0.990303 0.112403
vn 0.000000 0.000000 1.000000
vn 0.000000 0.000000 1.000000
vn 0.000000 0.000000 1.000000
vn 0.000000 0.000000 1.000000
vn 0.000000 0.000000 1.000000
vn 0.000000 0.000000 1.000000
vn 0.000000 0.000000 1.000000
vn 0.000000 0.000000 1.000000
vn -1.000000 0.000000 -0.000000
vn 0.000076 0.000000 1.000000
vn 1.000000 0.000000 0.000000
vn 0.000076 0.000000 -1.000000
vn -1.000000 0.000000 -0.000000
vn 0.000076 0.000000 1.000000
vn 1.000000 0.000000 0.000000
vn 0.000076 0.000000 -1.000000
vn -1.000000 0.000000 -0.000000
vn 0.000076 0.000000 1.000000
vn 1.000000 0.000000 0.000000
vn 0.000076 0.000000 -1.000000
vn -1.000000 0.000000 -0.000000
vn 0.000076 0.000000 1.000000
vn 1.000000 0.000000 0.000000
vn 0.000076 0.000000 -1.000000
vn -1.000000 0.000000 -0.000000
vn 0.000076 0.000000 1.000000
vn 1.000000 0.000000 0.000000
vn 0.000076 0.000000 -1.000000
vn -1.000000 0.000000 -0.000000
vn 0.000076 0.000000 1.000000
vn 1.000000 0.000000 0.000000
vn 0.000076 0.000000 -1.000000
g fff07975_00312_0082e12e_e3
f 4/15/4 1/16/1 25/17/25
f 28/18/28 4/15/4 25/17/25
f 3/19/3 4/64/4 28/65/28
f 27/20/27 3/19/3 28/65/28
f 2/64/2 3/19/3 27/20/27
f 26/65/26 2/64/2 27/20/27
f 1/16/1 2/21/2 26/22/26
f 25/17/25 1/16/1 26/22/26
f 28/18/28 25/17/25 21/23/21
f 24/24/24 28/18/28 21/23/21
f 27/20/27 28/65/28 24/66/24
f 23/25/23 27/20/27 24/66/24
f 26/65/26 27/20/27 23/25/23
f 22/66/22 26/65/26 23/25/23
f 25/17/25 26/22/26 22/26/22
f 21/23/21 25/17/25 22/26/22
f 24/24/24 21/23/21 17/27/17
f 20/28/20 24/24/24 17/27/17
f 23/25/23 24/66/24 20/67/20
f 19/29/19 23/25/23 20/67/20
f 22/66/22 23/25/23 19/29/19
f 18/67/18 22/66/22 19/29/19
f 21/23/21 22/26/22 18/30/18
f 17/27/17 21/23/21 18/30/18
f 12/31/12 9/32/9 5/33/5
f 8/34/8 12/31/12 5/33/5
f 11/35/11 12/68/12 8/69/8
f 7/36/7 11/35/11 8/69/8
f 10/68/10 11/35/11 7/36/7
f 6/69/6 10/68/10 7/36/7
f 9/32/9 10/37/10 6/38/6
f 5/33/5 9/32/9 6/38/6
f 8/34/8 5/33/5 1/16/1
f 4/15/4 8/34/8 1/16/1
f 7/36/7 8/69/8 4/64/4
f 3/19/3 7/36/7 4/64/4
f 6/69/6 7/36/7 3/19/3
f 2/64/2 6/69/6 3/19/3
f 5/33/5 6/38/6 2/21/2
f 1/16/1 5/33/5 2/21/2
f 9/32/9 13/39/13 10/37/10
f 13/39/13 14/40/14 10/37/10
f 10/68/10 14/70/14 11/35/11
f 14/70/14 15/41/15 11/35/11
f 11/35/11 15/41/15 12/68/12
f 15/41/15 16/70/16 12/68/12
f 12/31/12 16/42/16 9/32/9
f 16/42/16 13/39/13 9/32/9
f 40/43/40 37/44/37 61/45/61
f 64/46/64 40/43/40 61/45/61
f 39/19/39 40/64/40 64/65/64
f 63/20/63 39/19/39 64/65/64
f 38/64/38 39/19/39 63/20/63
f 62/65/62 38/64/38 63/20/63
f 37/44/37 38/47/38 62/48/62
f 61/45/61 37/44/37 62/48/62
f 64/46/64 61/45/61 57/49/57
f 60/50/60 64/46/64 57/49/57
f 63/20/63 64/65/64 60/66/60
f 59/25/59 63/20/63 60/66/60
f 62/65/62 63/20/63 59/25/59
f 58/66/58 62/65/62 59/25/59
f 61/45/61 62/48/62 58/51/58
f 57/49/57 61/45/61 58/51/58
f 60/50/60 57/49/57 53/52/53
f 56/53/56 60/50/60 53/52/53
f 59/25/59 60/66/60 56/67/56
f 55/29/55 59/25/59 56/67/56
f 58/66/58 59/25/59 55/29/55
f 54/67/54 58/66/58 55/29/55
f 57/49/57 58/51/58 54/54/54
f 53/52/53 57/49/57 54/54/54
f 48/55/48 45/56/45 41/57/41
f 44/58/44 48/55/48 41/57/41
f 47/35/47 48/68/48 44/69/44
f 43/36/43 47/35/47 44/69/44
f 46/68/46 47/35/47 43/36/43
f 42/69/42 46/68/46 43/36/43
f 45/56/45 46/59/46 42/60/42
f 41/57/41 45/56/45 42/60/42
f 44/58/44 41/57/41 37/44/37
f 40/43/40 44/58/44 37/44/37
f 43/36/43 44/69/44 40/64/40
f 39/19/39 43/36/43 40/64/40
f 42/69/42 43/36/43 39/19/39
f 38/64/38 42/69/42 39/19/39
f 41/57/41 42/60/42 38/47/38
f 37/44/37 41/57/41 38/47/38
f 45/56/45 49/61/49 46/59/46
f 49/61/49 50/62/50 46/59/46
f 46/68/46 50/70/50 47/35/47
f 50/70/50 51/41/51 47/35/47
f 47/35/47 51/41/51 48/68/48
f 51/41/51 52/70/52 48/68/48
f 48/55/48 52/63/52 45/56/45
f 52/63/52 49/61/49 45/56/45
f 80/9/80 77/10/77 73/5/73
f 76/4/76 80/9/80 73/5/73
f 79/8/79 80/9/80 76/4/76
f 75/3/75 79/8/79 76/4/76
f 78/7/78 79/8/79 75/3/75
f 74/2/74 78/7/78 75/3/75
f 77/6/77 78/7/78 74/2/74
f 73/1/73 77/6/77 74/2/74
f 88/9/88 85/10/85 81/5/81
f 84/4/84 88/9/88 81/5/81
f 87/8/87 88/9/88 84/4/84
f 83/3/83 87/8/87 84/4/84
f 86/7/86 87/8/87 83/3/83
f 82/2/82 86/7/86 83/3/83
f 85/6/85 86/7/86 82/2/82
f 81/1/81 85/6/85 82/2/82
f 96/9/96 93/10/93 89/5/89
f 92/4/92 96/9/96 89/5/89
f 95/8/95 96/9/96 92/4/92
f 91/3/91 95/8/95 92/4/92
f 94/7/94 95/8/95 91/3/91
f 90/2/90 94/7/94 91/3/91
f 93/6/93 94/7/94 90/2/90
f 89/1/89 93/6/93 90/2/90
g fff07975_00312_0082e12e_e4
f 32/14/32 31/13/31 29/11/29
f 29/11/29 30/12/30 32/14/32
f 36/14/36 35/13/35 33/11/33
f 33/11/33 34/12/34 36/14/36
f 68/14/68 67/13/67 65/11/65
f 65/11/65 66/12/66 68/14/68
f 72/14/72 71/13/71 69/11/69
f 69/11/69 70/12/70 72/14/72
