# fff0ac53_00330_006e1011
o fff0ac53_00330_006e1011
v -5.017975 -1.784042 0.262939
v 5.018356 -1.784042 0.262939
v -5.017975 1.783989 0.262939
v 5.018356 1.783989 0.262939
v -5.017975 -1.784042 0.737091
v 5.018356 -1.784042 0.737091
v -5.017975 1.783989 0.737091
v 5.018356 1.783989 0.737091
v -4.760223 1.673279 0.449722
v -4.623688 1.673279 0.449722
v -4.760223 1.673279 2.900955
v -4.623688 1.673279 2.900955
v -4.760223 1.526894 0.449722
v -4.760223 1.673279 0.449722
v -4.760223 1.526894 2.900955
v -4.760223 1.673279 2.900955
v -0.060120 1.673279 0.449722
v 0.076401 1.673279 0.449722
v -0.060120 1.673279 2.900955
v 0.076401 1.673279 2.900955
v -0.060120 1.526894 0.449722
v -0.060120 1.673279 0.449722
v -0.060120 1.526894 2.900955
v -0.060120 1.673279 2.900955
v 4.621704 1.673279 0.449722
v 4.758224 1.673279 0.449722
v 4.621704 1.673279 2.900955
v 4.758224 1.673279 2.900955
v 4.621704 1.526894 0.449722
v 4.621704 1.673279 0.449722
v 4.621704 1.526894 2.900955
v 4.621704 1.673279 2.900955
v -4.760162 -1.533020 0.449722
v -4.623627 -1.533020 0.449722
v -4.760162 -1.533020 2.900955
v -4.623627 -1.533020 2.900955
v -4.760162 -1.679405 0.449722
v -4.760162 -1.533020 0.449722
v -4.760162 -1.679405 2.900955
v -4.760162 -1.533020 2.900955
v -0.060059 -1.533020 0.449722
v 0.076462 -1.533020 0.449722
v -0.060059 -1.533020 2.900955
v 0.076462 -1.533020 2.900955
v -0.060059 -1.679405 0.449722
v -0.060059 -1.533020 0.449722
v -0.060059 -1.679405 2.900955
v -0.060059 -1.533020 2.900955
v 4.621765 -1.533020 0.449722
v 4.758286 -1.533020 0.449722
v 4.621765 -1.533020 2.900955
v 4.758286 -1.533020 2.900955
v 4.621765 -1.679405 0.449722
v 4.621765 -1.533020 0.449722
v 4.621765 -1.679405 2.900955
v 4.621765 -1.533020 2.900955
v -4.898682 1.747452 2.728912
v -4.898682 1.449417 2.728912
v 4.964859 1.747452 2.728928
v 4.964859 1.449417 2.728928
v -4.898682 1.747452 2.875305
v -4.898682 1.747452 2.728912
v 4.964859 1.747452 2.875305
v 4.964859 1.747452 2.728928
v -4.898682 1.449417 2.875305
v -4.898682 1.449417 2.728912
v -4.898682 1.747452 2.875305
v -4.898682 1.747452 2.728912
v -4.898682 -1.403229 2.728912
v -4.898682 -1.701263 2.728912
v 4.964859 -1.403229 2.728928
v 4.964859 -1.701263 2.728928
v -4.898682 -1.403229 2.875305
v -4.898682 -1.403229 2.728912
v 4.964859 -1.403229 2.875305
v 4.964859 -1.403229 2.728928
v -4.898682 -1.701263 2.875305
v -4.898682 -1.701263 2.728912
v -4.898682 -1.403229 2.875305
v -4.898682 -1.403229 2.728912
v 4.669388 -1.701431 2.728912
v 4.967422 -1.701431 2.728912
v 4.669388 1.737076 2.728928
v 4.967422 1.737076 2.728928
v 4.669388 -1.701431 2.875305
v 4.669388 -1.701431 2.728912
v 4.669388 1.737076 2.875305
v 4.669388 1.737076 2.728928
v 4.967422 -1.701431 2.875305
v 4.967422 -1.701431 2.728912
v 4.669388 -1.701431 2.875305
v 4.669388 -1.701431 2.728912
v -4.736389 1.642616 1.678482
v -4.736389 1.538757 1.678482
v 4.677109 1.642616 1.678497
v 4.677109 1.538757 1.678497
v -4.736389 1.642616 1.810165
v -4.736389 1.642616 1.678482
v 4.677109 1.642616 1.810165
v 4.677109 1.642616 1.678497
v -4.736389 -1.561806 1.678482
v -4.736389 -1.665665 1.678482
v 4.677109 -1.561806 1.678497
v 4.677109 -1.665665 1.678497
v -4.736389 -1.561806 1.810165
v -4.736389 -1.561806 1.678482
v 4.677109 -1.561806 1.810165
v 4.677109 -1.561806 1.678497
v 4.636490 -1.654930 1.678482
v 4.740341 -1.654930 1.678482
v 4.636490 1.652748 1.678497
v 4.740341 1.652756 1.678497
v 4.636490 -1.654930 1.810165
v 4.636490 -1.654930 1.678482
v 4.636490 1.652748 1.810165
v 4.636490 1.652748 1.678497
v -5.017975 -1.784042 0.262939
v 5.018356 -1.784042 0.262939
v -5.017975 1.783989 0.262939
v 5.018356 1.783989 0.262939
v -4.689056 1.578201 0.399551
v -4.689056 1.578201 2.850784
v 4.617203 1.578201 0.399551
v 4.617203 1.578201 2.850784
v -4.689056 -1.559990 0.399551
v -4.689056 -1.559990 2.850784
v 4.617203 -1.559990 0.399551
v 4.617203 -1.559990 2.850784
v 4.712463 -1.544991 0.399551
v 4.712463 -1.544991 2.850784
v 4.712463 1.566345 0.399551
v 4.712463 1.566345 2.850784
v -4.898682 1.344177 0.010696
v -4.898682 1.046143 0.010696
v 4.964859 1.344177 0.010727
v 4.964859 1.046143 0.010727
v -4.898682 1.344177 0.301239
v -4.898682 1.344177 0.010696
v 4.964859 1.344177 0.301239
v 4.964859 1.344177 0.010727
v -4.898682 1.046143 0.301239
v -4.898682 1.046143 0.010696
v -4.898682 1.344177 0.301239
v -4.898682 1.344177 0.010696
v -4.898682 -1.031883 0.010696
v -4.898682 -1.329918 0.010696
v 4.964859 -1.031883 0.010727
v 4.964859 -1.329918 0.010727
v -4.898682 -1.031883 0.301239
v -4.898682 -1.031883 0.010696
v 4.964859 -1.031883 0.301239
v 4.964859 -1.031883 0.010727
v -4.898682 -1.329918 0.301239
v -4.898682 -1.329918 0.010696
v -4.898682 -1.031883 0.301239
v -4.898682 -1.031883 0.010696
v -4.826172 1.722725 2.841797
v -4.587830 1.722725 2.841797
v -4.826172 1.722725 3.814224
v -4.587830 1.722725 3.814224
v -4.826172 1.508499 2.841797
v -4.826172 1.722725 2.841797
v -4.826172 1.508499 3.814224
v -4.826172 1.722725 3.814224
v -4.754791 1.666771 3.796234
v -4.657227 1.666771 3.796234
v -4.754791 1.666771 14.451752
v -4.657227 1.666771 14.451752
v -4.754791 1.560486 3.796234
v -4.754791 1.666771 3.796234
v -4.754791 1.560486 14.451752
v -4.754791 1.666771 14.451752
v -4.826172 -1.446281 2.841797
v -4.587830 -1.446281 2.841797
v -4.826172 -1.446281 3.814224
v -4.587830 -1.446281 3.814224
v -4.826172 -1.660507 2.841797
v -4.826172 -1.446281 2.841797
v -4.826172 -1.660507 3.814224
v -4.826172 -1.446281 3.814224
v -4.754791 -1.502235 3.796234
v -4.657227 -1.502235 3.796234
v -4.754791 -1.502235 14.451752
v -4.657227 -1.502235 14.451752
v -4.754791 -1.608521 3.796234
v -4.754791 -1.502235 3.796234
v -4.754791 -1.608521 14.451752
v -4.754791 -1.502235 14.451752
v 4.572311 1.722725 2.841797
v 4.810669 1.722725 2.841797
v 4.572311 1.722725 3.814224
v 4.810669 1.722725 3.814224
v 4.572311 1.508499 2.841797
v 4.572311 1.722725 2.841797
v 4.572311 1.508499 3.814224
v 4.572311 1.722725 3.814224
v 4.643707 1.666771 3.796234
v 4.741272 1.666771 3.796234
v 4.643707 1.666771 14.451752
v 4.741272 1.666771 14.451752
v 4.643707 1.560486 3.796234
v 4.643707 1.666771 3.796234
v 4.643707 1.560486 14.451752
v 4.643707 1.666771 14.451752
v 4.572311 -1.446281 2.841797
v 4.810669 -1.446281 2.841797
v 4.572311 -1.446281 3.814224
v 4.810669 -1.446281 3.814224
v 4.572311 -1.660507 2.841797
v 4.572311 -1.446281 2.841797
v 4.572311 -1.660507 3.814224
v 4.572311 -1.446281 3.814224
v 4.643707 -1.502235 3.796234
v 4.741272 -1.502235 3.796234
v 4.643707 -1.502235 14.451752
v 4.741272 -1.502235 14.451752
v 4.643707 -1.608521 3.796234
v 4.643707 -1.502235 3.796234
v 4.643707 -1.608521 14.451752
v 4.643707 -1.502235 14.451752
v -5.017975 -1.784042 0.262939
v -5.017975 1.783989 0.262939
v -5.017975 -1.784042 0.737091
v -5.017975 1.783989 0.737091
vt 2.837896 1.365234
vt 4.278984 1.365234
vt 3.072535 5.712160
vt 4.278984 5.712234
vt -37.258392 1.365234
vt -36.543755 1.365234
vt -37.258392 5.712295
vt -36.543755 5.712234
vt 0.000000 0.000000
vt 1.000000 0.000000
vt 0.000000 1.000000
vt 1.000000 1.000000
vt -16.583239 0.000000
vt -18.567951 0.000000
vt -0.871970 -2.155313
vt 0.789941 3.261946
vt -0.871970 3.269427
vt 0.789941 -2.162795
vt -0.871970 -2.155313
vt -0.316347 3.266926
vt -0.871970 3.269427
vt -0.316347 -2.157814
vn 0.000000 -1.000000 0.000000
vn 0.707107 -0.707107 0.000000
vn 0.000000 1.000000 0.000000
vn 0.707107 0.707107 0.000000
vn 0.000000 -1.000000 0.000000
vn 0.707107 -0.707107 0.000000
vn 0.000000 1.000000 0.000000
vn 0.707107 0.707107 0.000000
vn 0.000000 1.000000 0.000000
vn 0.000000 1.000000 0.000000
vn 0.000000 1.000000 0.000000
vn 0.000000 1.000000 0.000000
vn -1.000000 0.000000 0.000000
vn -1.000000 0.000000 0.000000
vn -1.000000 0.000000 0.000000
vn -1.000000 0.000000 0.000000
vn 0.000000 1.000000 0.000000
vn 0.000000 1.000000 0.000000
vn 0.000000 1.000000 0.000000
vn 0.000000 1.000000 0.000000
vn -1.000000 0.000000 0.000000
vn -1.000000 0.000000 0.000000
vn -1.000000 0.000000 0.000000
vn -1.000000 0.000000 0.000000
vn 0.000000 1.000000 0.000000
vn 0.000000 1.000000 0.000000
vn 0.000000 1.000000 0.000000
vn 0.000000 1.000000 0.000000
vn -1.000000 0.000000 0.000000
vn -1.000000 0.000000 0.000000
vn -1.000000 0.000000 0.000000
vn -1.000000 0.000000 0.000000
vn 0.000000 1.000000 0.000000
vn 0.000000 1.000000 0.000000
vn 0.000000 1.000000 0.000000
vn 0.000000 1.000000 0.000000
vn -1.000000 0.000000 0.000000
vn -1.000000 0.000000 0.000000
vn -1.000000 0.000000 0.000000
vn -1.000000 0.000000 0.000000
vn 0.000000 1.000000 0.000000
vn 0.000000 1.000000 0.000000
vn 0.000000 1.000000 0.000000
vn 0.000000 1.000000 0.000000
vn -1.000000 0.000000 0.000000
vn -1.000000 0.000000 0.000000
vn -1.000000 0.000000 0.000000
vn -1.000000 0.000000 0.000000
vn 0.000000 1.000000 0.000000
vn 0.000000 1.000000 0.000000
vn 0.000000 1.000000 0.000000
vn 0.000000 1.000000 0.000000
vn -1.000000 0.000000 0.000000
vn -1.000000 0.000000 0.000000
vn -1.000000 0.000000 0.000000
vn -1.000000 0.000000 0.000000
vn 0.000002 0.000000 -1.000000
vn 0.000002 0.000000 -1.000000
vn 0.000002 0.000000 -1.000000
vn 0.000002 0.000000 -1.000000
vn 0.000000 1.000000 0.000000
vn 0.000000 1.000000 0.000000
vn 0.000000 1.000000 0.000000
vn 0.000000 1.000000 0.000000
vn -1.000000 0.000000 0.000000
vn -1.000000 0.000000 0.000000
vn -1.000000 0.000000 0.000000
vn -1.000000 0.000000 0.000000
vn 0.000002 0.000000 -1.000000
vn 0.000002 0.000000 -1.000000
vn 0.000002 0.000000 -1.000000
vn 0.000002 0.000000 -1.000000
vn 0.000000 1.000000 0.000000
vn 0.000000 1.000000 0.000000
vn 0.000000 1.000000 0.000000
vn 0.000000 1.000000 0.000000
vn -1.000000 0.000000 0.000000
vn -1.000000 0.000000 0.000000
vn -1.000000 0.000000 0.000000
vn -1.000000 0.000000 0.000000
vn 0.000000 0.000004 -1.000000
vn 0.000000 0.000004 -1.000000
vn 0.000000 0.000004 -1.000000
vn 0.000000 0.000004 -1.000000
vn -1.000000 0.000000 0.000000
vn -1.000000 0.000000 0.000000
vn -1.000000 0.000000 0.000000
vn -1.000000 0.000000 0.000000
vn 0.000000 -1.000000 0.000000
vn 0.000000 -1.000000 0.000000
vn 0.000000 -1.000000 0.000000
vn 0.000000 -1.000000 0.000000
vn 0.000002 0.000000 -1.000000
vn 0.000002 0.000000 -1.000000
vn 0.000002 0.000000 -1.000000
vn 0.000002 0.000000 -1.000000
vn 0.000000 1.000000 0.000000
vn 0.000000 1.000000 0.000000
vn 0.000000 1.000000 0.000000
vn 0.000000 1.000000 0.000000
vn 0.000002 0.000000 -1.000000
vn 0.000002 0.000000 -1.000000
vn 0.000002 0.000000 -1.000000
vn 0.000002 0.000000 -1.000000
vn 0.000000 1.000000 0.000000
vn 0.000000 1.000000 0.000000
vn 0.000000 1.000000 0.000000
vn 0.000000 1.000000 0.000000
vn 0.000000 0.000005 -1.000000
vn -0.000000 0.000005 -1.000000
vn -0.000000 0.000005 -1.000000
vn -0.000000 0.000005 -1.000000
vn -1.000000 0.000000 0.000000
vn -1.000000 0.000000 0.000000
vn -1.000000 0.000000 0.000000
vn -1.000000 0.000000 0.000000
vn 0.000000 0.000000 -1.000000
vn 0.000000 0.000000 -1.000000
vn 0.000000 0.000000 -1.000000
vn 0.000000 0.000000 -1.000000
vn 0.000000 1.000000 0.000000
vn 0.000000 1.000000 0.000000
vn 0.000000 1.000000 0.000000
vn 0.000000 1.000000 0.000000
vn 0.000000 1.000000 0.000000
vn 0.000000 1.000000 0.000000
vn 0.000000 1.000000 0.000000
vn 0.000000 1.000000 0.000000
vn -1.000000 0.000000 0.000000
vn -1.000000 0.000000 0.000000
vn -1.000000 0.000000 0.000000
vn -1.000000 0.000000 0.000000
vn 0.000003 0.000000 -1.000000
vn 0.000003 0.000000 -1.000000
vn 0.000003 0.000000 -1.000000
vn 0.000003 0.000000 -1.000000
vn 0.000000 1.000000 0.000000
vn 0.000000 1.000000 0.000000
vn 0.000000 1.000000 0.000000
vn 0.000000 1.000000 0.000000
vn -1.000000 0.000000 0.000000
vn -1.000000 0.000000 0.000000
vn -1.000000 0.000000 0.000000
vn -1.000000 0.000000 0.000000
vn 0.000003 0.000000 -1.000000
vn 0.000003 0.000000 -1.000000
vn 0.000003 0.000000 -1.000000
vn 0.000003 0.000000 -1.000000
vn 0.000000 1.000000 0.000000
vn 0.000000 1.000000 0.000000
vn 0.000000 1.000000 0.000000
vn 0.000000 1.000000 0.000000
vn -1.000000 0.000000 0.000000
vn -1.000000 0.000000 0.000000
vn -1.000000 0.000000 0.000000
vn -1.000000 0.000000 0.000000
vn 0.000000 1.000000 0.000000
vn 0.000000 1.000000 0.000000
vn 0.000000 1.000000 0.000000
vn 0.000000 1.000000 0.000000
vn -1.000000 0.000000 0.000000
vn -1.000000 0.000000 0.000000
vn -1.000000 0.000000 0.000000
vn -1.000000 0.000000 0.000000
vn 0.000000 1.000000 0.000000
vn 0.000000 1.000000 0.000000
vn 0.000000 1.000000 0.000000
vn 0.000000 1.000000 0.000000
vn -1.000000 0.000000 0.000000
vn -1.000000 0.000000 0.000000
vn -1.000000 0.000000 0.000000
vn -1.000000 0.000000 0.000000
vn 0.000000 1.000000 0.000000
vn 0.000000 1.000000 0.000000
vn 0.000000 1.000000 0.000000
vn 0.000000 1.000000 0.000000
vn -1.000000 0.000000 0.000000
vn -1.000000 0.000000 0.000000
vn -1.000000 0.000000 0.000000
vn -1.000000 0.000000 0.000000
vn 0.000000 1.000000 0.000000
vn 0.000000 1.000000 0.000000
vn 0.000000 1.000000 0.000000
vn 0.000000 1.000000 0.000000
vn -1.000000 0.000000 0.000000
vn -1.000000 0.000000 0.000000
vn -1.000000 0.000000 0.000000
vn -1.000000 0.000000 0.000000
vn 0.000000 1.000000 0.000000
vn 0.000000 1.000000 0.000000
vn 0.000000 1.000000 0.000000
vn 0.000000 1.000000 0.000000
vn -1.000000 0.000000 0.000000
vn -1.000000 0.000000 0.000000
vn -1.000000 0.000000 0.000000
vn -1.000000 0.000000 0.000000
vn 0.000000 1.000000 0.000000
vn 0.000000 1.000000 0.000000
vn 0.000000 1.000000 0.000000
vn 0.000000 1.000000 0.000000
vn -1.000000 0.000000 0.000000
vn -1.000000 0.000000 0.000000
vn -1.000000 0.000000 0.000000
vn -1.000000 0.000000 0.000000
vn 0.000000 1.000000 0.000000
vn 0.000000 1.000000 0.000000
vn 0.000000 1.000000 0.000000
vn 0.000000 1.000000 0.000000
vn -1.000000 0.000000 0.000000
vn -1.000000 0.000000 0.000000
vn -1.000000 0.000000 0.000000
vn -1.000000 0.000000 0.000000
vn 0.000000 1.000000 0.000000
vn 0.000000 1.000000 0.000000
vn 0.000000 1.000000 0.000000
vn 0.000000 1.000000 0.000000
vn -1.000000 0.000000 0.000000
vn -1.000000 0.000000 0.000000
vn -1.000000 0.000000 0.000000
vn -1.000000 0.000000 0.000000
vn -1.000000 0.000000 0.000000
vn -1.000000 0.000000 0.000000
vn -1.000000 0.000000 0.000000
vn -1.000000 0.000000 0.000000
g fff0ac53_00330_006e1011_e6
f 211/4/211 212/3/212 210/1/210
f 210/1/210 209/2/209 211/4/211
f 207/8/207 208/7/208 206/5/206
f 206/5/206 205/6/205 207/8/207
f 195/4/195 196/3/196 194/1/194
f 194/1/194 193/2/193 195/4/195
f 191/8/191 192/7/192 190/5/190
f 190/5/190 189/6/189 191/8/191
f 179/4/179 180/3/180 178/1/178
f 178/1/178 177/2/177 179/4/179
f 175/8/175 176/7/176 174/5/174
f 174/5/174 173/6/173 175/8/175
f 163/4/163 164/3/164 162/1/162
f 162/1/162 161/2/161 163/4/163
f 159/8/159 160/7/160 158/5/158
f 158/5/158 157/6/157 159/8/159
f 90/14/90 89/13/89 91/2/91
f 91/2/91 92/1/92 90/14/90
f 78/14/78 77/13/77 79/2/79
f 79/2/79 80/1/80 78/14/78
f 66/14/66 65/13/65 67/2/67
f 67/2/67 68/1/68 66/14/66
g fff0ac53_00330_006e1011_e13
f 222/1/222 221/2/221 223/4/223
f 223/4/223 224/3/224 222/1/222
f 10/5/10 9/6/9 11/8/11
f 11/8/11 12/7/12 10/5/10
f 14/1/14 13/2/13 15/4/15
f 15/4/15 16/3/16 14/1/14
f 1/5/1 2/6/2 6/8/6
f 6/8/6 5/7/5 1/5/1
f 2/1/2 4/2/4 8/4/8
f 8/4/8 6/3/6 2/1/2
f 18/5/18 17/6/17 19/8/19
f 19/8/19 20/7/20 18/5/18
f 22/1/22 21/2/21 23/4/23
f 23/4/23 24/3/24 22/1/22
f 26/5/26 25/6/25 27/8/27
f 27/8/27 28/7/28 26/5/26
f 30/1/30 29/2/29 31/4/31
f 31/4/31 32/3/32 30/1/30
f 34/5/34 33/6/33 35/8/35
f 35/8/35 36/7/36 34/5/34
f 38/1/38 37/2/37 39/4/39
f 39/4/39 40/3/40 38/1/38
f 42/5/42 41/6/41 43/8/43
f 43/8/43 44/7/44 42/5/42
f 46/1/46 45/2/45 47/4/47
f 47/4/47 48/3/48 46/1/46
f 50/5/50 49/6/49 51/8/51
f 51/8/51 52/7/52 50/5/50
f 54/1/54 53/2/53 55/4/55
f 55/4/55 56/3/56 54/1/54
f 58/5/58 57/6/57 59/8/59
f 59/8/59 60/7/60 58/5/58
f 62/1/62 61/2/61 63/4/63
f 63/4/63 64/3/64 62/1/62
f 70/5/70 69/6/69 71/8/71
f 71/8/71 72/7/72 70/5/70
f 74/1/74 73/2/73 75/4/75
f 75/4/75 76/3/76 74/1/74
f 82/5/82 81/6/81 83/8/83
f 83/8/83 84/7/84 82/5/82
f 86/1/86 85/2/85 87/4/87
f 87/4/87 88/3/88 86/1/86
f 94/5/94 93/6/93 95/8/95
f 95/8/95 96/7/96 94/5/94
f 98/1/98 97/2/97 99/4/99
f 99/4/99 100/3/100 98/1/98
f 102/5/102 101/6/101 103/8/103
f 103/8/103 104/7/104 102/5/102
f 106/1/106 105/2/105 107/4/107
f 107/4/107 108/3/108 106/1/106
f 110/5/110 109/6/109 111/8/111
f 111/8/111 112/7/112 110/5/110
f 114/1/114 113/2/113 115/4/115
f 115/4/115 116/3/116 114/1/114
f 134/5/134 133/6/133 135/8/135
f 135/8/135 136/7/136 134/5/134
f 138/1/138 137/2/137 139/4/139
f 139/4/139 140/3/140 138/1/138
f 143/2/143 144/1/144 142/14/142
f 142/14/142 141/13/141 143/2/143
f 146/5/146 145/6/145 147/8/147
f 147/8/147 148/7/148 146/5/146
f 150/1/150 149/2/149 151/4/151
f 151/4/151 152/3/152 150/1/150
f 155/2/155 156/1/156 154/14/154
f 154/14/154 153/13/153 155/2/155
f 4/5/4 3/6/3 7/8/7
f 7/8/7 8/7/8 4/5/4
f 120/11/120 118/9/118 117/10/117
f 117/10/117 119/12/119 120/11/120
g fff0ac53_00330_006e1011_e11
f 123/15/123 122/16/122 124/17/124
f 122/16/122 123/15/123 121/18/121
f 127/15/127 126/16/126 128/17/128
f 126/16/126 127/15/127 125/18/125
f 131/19/131 130/20/130 132/21/132
f 130/20/130 131/19/131 129/22/129
g fff0ac53_00330_006e1011_e0
f 166/5/166 165/6/165 167/8/167
f 167/8/167 168/7/168 166/5/166
f 170/1/170 169/2/169 171/4/171
f 171/4/171 172/3/172 170/1/170
f 182/5/182 181/6/181 183/8/183
f 183/8/183 184/7/184 182/5/182
f 186/1/186 185/2/185 187/4/187
f 187/4/187 188/3/188 186/1/186
f 198/5/198 197/6/197 199/8/199
f 199/8/199 200/7/200 198/5/198
f 202/1/202 201/2/201 203/4/203
f 203/4/203 204/3/204 202/1/202
f 214/5/214 213/6/213 215/8/215
f 215/8/215 216/7/216 214/5/214
f 218/1/218 217/2/217 219/4/219
f 219/4/219 220/3/220 218/1/218
