# fff0305e_00106_003884a9
o fff0305e_00106_003884a9
v -8.897819 -2.024768 0.966997
v -7.886579 -1.914575 0.632266
v -6.875360 -1.804384 0.407495
v -5.864098 -1.694189 0.287684
v -4.852816 -1.583991 0.240865
v -3.841527 -1.473793 0.248282
v -2.830216 -1.363592 0.313545
v -1.818865 -1.253386 0.559567
v -0.807467 -1.143177 0.966984
v -8.897254 -2.024706 1.086211
v -7.886014 -1.914514 0.706405
v -6.874794 -1.804323 0.481365
v -5.863533 -1.694127 0.361438
v -4.852251 -1.583930 0.314604
v -3.840962 -1.473731 0.322034
v -2.829651 -1.363530 0.387403
v -1.818300 -1.253325 0.633679
v 0.181440 -1.035417 0.645298
v 1.172036 -0.927474 0.289854
v 2.170855 -0.818634 0.132067
v 3.175406 -0.709169 0.079272
v 4.187208 -0.598915 0.046243
v 5.204744 -0.488036 0.085987
v 6.230501 -0.376261 0.230371
v 7.264875 -0.263547 0.484318
v -0.790771 -1.141357 1.006457
v 0.191330 -1.034339 0.720972
v 1.181927 -0.926395 0.365260
v 2.180714 -0.817560 0.207358
v 3.185265 -0.708095 0.154548
v 4.197067 -0.597841 0.121531
v 5.214634 -0.486959 0.161381
v 6.240393 -0.375183 0.306019
v 7.274705 -0.262476 0.559597
v -7.274705 -10.799749 0.910522
v -6.263465 -10.689557 0.634887
v -5.252246 -10.579366 0.410116
v -4.240984 -10.469171 0.269283
v -3.229702 -10.358973 0.222464
v -2.218413 -10.248775 0.261829
v -1.207102 -10.138574 0.381650
v -0.195751 -10.028368 0.575818
v -7.274140 -10.799688 1.029736
v -6.262900 -10.689495 0.695404
v -5.251681 -10.579305 0.470364
v -4.240419 -10.469109 0.350437
v -3.229137 -10.358912 0.303603
v -2.217848 -10.248713 0.350437
v -1.206538 -10.138512 0.470364
v -0.195186 -10.028307 0.695404
v 0.822513 -9.917410 1.065508
v 1.804554 -9.810399 0.698678
v 2.795150 -9.702456 0.394897
v 3.793968 -9.593616 0.195750
v 4.798519 -9.484151 0.069370
v 5.810322 -9.373897 0.036341
v 6.827858 -9.263018 0.076085
v 7.853615 -9.151243 0.173896
v 8.887989 -9.038528 0.427843
v 0.832343 -9.916339 1.184312
v 1.814444 -9.809320 0.771305
v 2.805040 -9.701377 0.467255
v 3.803827 -9.592542 0.267993
v 4.808378 -9.483077 0.141598
v 5.820181 -9.372823 0.108581
v 6.837748 -9.261940 0.148432
v 7.863506 -9.150165 0.293069
v 8.897819 -9.037457 0.546647
vt 0.000000 0.000000
vt 0.125000 0.000000
vt 0.250000 0.000000
vt 0.375000 0.000000
vt 0.500000 0.000000
vt 0.625000 0.000000
vt 0.750000 0.000000
vt 0.875000 0.000000
vt 1.000000 0.000000
vt 0.000000 1.000000
vt 0.125000 1.000000
vt 0.250000 1.000000
vt 0.375000 1.000000
vt 0.500000 1.000000
vt 0.625000 1.000000
vt 0.750000 1.000000
vt 0.875000 1.000000
vt 1.000000 1.000000
vn 0.108327 -0.994115 -0.000000
vn 0.108327 -0.994115 -0.000001
vn 0.108327 -0.994115 -0.000001
vn 0.108328 -0.994115 0.000005
vn 0.108327 -0.994115 -0.000001
vn 0.108327 -0.994115 -0.000000
vn 0.108327 -0.994115 -0.000000
vn 0.108327 -0.994115 -0.000001
vn 0.108326 -0.994115 0.000006
vn 0.108327 -0.994115 -0.000000
vn 0.108327 -0.994115 -0.000001
vn 0.108327 -0.994115 -0.000001
vn 0.108328 -0.994115 0.000005
vn 0.108327 -0.994115 -0.000001
vn 0.108327 -0.994115 -0.000000
vn 0.108327 -0.994115 -0.000000
vn 0.108327 -0.994115 -0.000001
vn 0.108329 -0.994115 0.000005
vn 0.108328 -0.994115 0.000005
vn 0.108327 -0.994115 -0.000000
vn 0.108327 -0.994115 -0.000000
vn 0.108327 -0.994115 -0.000000
vn 0.108327 -0.994115 0.000000
vn 0.108327 -0.994115 0.000003
vn 0.108327 -0.994115 -0.000002
vn 0.108327 -0.994115 0.000006
vn 0.108329 -0.994115 0.000005
vn 0.108328 -0.994115 0.000005
vn 0.108327 -0.994115 -0.000000
vn 0.108327 -0.994115 -0.000000
vn 0.108327 -0.994115 -0.000000
vn 0.108327 -0.994115 0.000000
vn 0.108327 -0.994115 0.000003
vn 0.108327 -0.994115 -0.000002
vn 0.108325 -0.994116 -0.000004
vn 0.108329 -0.994115 0.000006
vn 0.108325 -0.994116 -0.000009
vn 0.108328 -0.994115 0.000004
vn 0.108327 -0.994115 -0.000006
vn 0.108327 -0.994115 0.000005
vn 0.108327 -0.994115 0.000005
vn 0.108328 -0.994115 -0.000004
vn 0.108325 -0.994116 -0.000004
vn 0.108329 -0.994115 0.000007
vn 0.108325 -0.994116 -0.000009
vn 0.108328 -0.994115 0.000004
vn 0.108327 -0.994115 -0.000006
vn 0.108327 -0.994115 0.000005
vn 0.108327 -0.994115 0.000005
vn 0.108328 -0.994115 -0.000004
vn 0.108327 -0.994115 -0.000001
vn 0.108331 -0.994115 0.000011
vn 0.108330 -0.994115 0.000011
vn 0.108326 -0.994115 -0.000006
vn 0.108327 -0.994115 -0.000007
vn 0.108327 -0.994115 -0.000007
vn 0.108327 -0.994115 -0.000000
vn 0.108326 -0.994115 0.000006
vn 0.108327 -0.994115 -0.000001
vn 0.108327 -0.994115 -0.000001
vn 0.108332 -0.994115 0.000012
vn 0.108330 -0.994115 0.000011
vn 0.108326 -0.994115 -0.000007
vn 0.108327 -0.994115 -0.000007
vn 0.108327 -0.994115 -0.000007
vn 0.108327 -0.994115 0.000000
vn 0.108326 -0.994115 0.000006
vn 0.108327 -0.994115 -0.000001
g fff0305e_00106_003884a9_e0
f 2/2/2 10/10/10 1/1/1
f 11/11/11 10/10/10 2/2/2
f 3/3/3 11/11/11 2/2/2
f 12/12/12 11/11/11 3/3/3
f 4/4/4 12/12/12 3/3/3
f 13/13/13 12/12/12 4/4/4
f 5/5/5 13/13/13 4/4/4
f 14/14/14 13/13/13 5/5/5
f 6/6/6 14/14/14 5/5/5
f 15/15/15 14/14/14 6/6/6
f 7/7/7 15/15/15 6/6/6
f 16/16/16 15/15/15 7/7/7
f 8/8/8 16/16/16 7/7/7
f 17/17/17 16/16/16 8/8/8
f 9/9/9 17/17/17 8/8/8
f 26/18/26 17/17/17 9/9/9
f 34/18/34 33/17/33 25/9/25
f 25/9/25 33/17/33 24/8/24
f 33/17/33 32/16/32 24/8/24
f 24/8/24 32/16/32 23/7/23
f 32/16/32 31/15/31 23/7/23
f 23/7/23 31/15/31 22/6/22
f 31/15/31 30/14/30 22/6/22
f 22/6/22 30/14/30 21/5/21
f 36/2/36 43/10/43 35/1/35
f 44/11/44 43/10/43 36/2/36
f 30/14/30 29/13/29 21/5/21
f 21/5/21 29/13/29 20/4/20
f 29/13/29 28/12/28 20/4/20
f 20/4/20 28/12/28 19/3/19
f 28/12/28 27/11/27 19/3/19
f 19/3/19 27/11/27 18/2/18
f 51/9/51 50/17/50 42/8/42
f 60/18/60 50/17/50 51/9/51
f 37/3/37 44/11/44 36/2/36
f 45/12/45 44/11/44 37/3/37
f 38/4/38 45/12/45 37/3/37
f 46/13/46 45/12/45 38/4/38
f 39/5/39 46/13/46 38/4/38
f 47/14/47 46/13/46 39/5/39
f 40/6/40 47/14/47 39/5/39
f 48/15/48 47/14/47 40/6/40
f 41/7/41 48/15/48 40/6/40
f 49/16/49 48/15/48 41/7/41
f 42/8/42 49/16/49 41/7/41
f 50/17/50 49/16/49 42/8/42
f 27/11/27 26/10/26 18/2/18
f 18/2/18 26/10/26 9/1/9
f 52/2/52 60/10/60 51/1/51
f 61/11/61 60/10/60 52/2/52
f 53/3/53 61/11/61 52/2/52
f 62/12/62 61/11/61 53/3/53
f 54/4/54 62/12/62 53/3/53
f 63/13/63 62/12/62 54/4/54
f 55/5/55 63/13/63 54/4/54
f 64/14/64 63/13/63 55/5/55
f 56/6/56 64/14/64 55/5/55
f 65/15/65 64/14/64 56/6/56
f 57/7/57 65/15/65 56/6/56
f 66/16/66 65/15/65 57/7/57
f 58/8/58 66/16/66 57/7/57
f 67/17/67 66/16/66 58/8/58
f 59/9/59 67/17/67 58/8/58
f 68/18/68 67/17/67 59/9/59
