# fff02c13_00123_0038ddc9
o fff02c13_00123_0038ddc9
v -0.243236 -0.035269 0.388928
v -0.245151 -0.016955 0.370781
v -0.242625 0.001285 0.388928
v -0.240694 -0.017021 0.407074
v 0.281554 -0.044661 0.321638
v 0.279226 -0.025827 0.300029
v 0.282197 -0.007051 0.321629
v 0.284541 -0.025910 0.343238
v -0.261129 -0.038364 0.362210
v -0.278279 -0.016369 0.349208
v -0.260469 0.005164 0.362151
v -0.243302 -0.016856 0.375153
v 0.158349 -0.045478 -0.203060
v 0.141199 -0.023475 -0.216063
v 0.159010 -0.001959 -0.203120
v 0.176176 -0.023962 -0.190118
v 0.290318 -0.038207 0.309371
v 0.274753 -0.021239 0.302599
v 0.287661 -0.004740 0.314314
v 0.303226 -0.021709 0.321085
v 0.570680 0.008935 -0.132247
v 0.555874 0.025211 -0.127775
v 0.573090 0.041057 -0.133664
v 0.609622 0.025046 -0.148189
v 0.288750 -0.014298 0.306742
v 0.275826 -0.034188 0.303177
v 0.291441 -0.046716 0.316392
v 0.304382 -0.026826 0.319957
v 0.563120 -0.083625 -0.141272
v 0.557492 -0.099322 -0.135053
v 0.566702 -0.115193 -0.140963
v 0.593636 -0.096219 -0.152922
v 0.142173 -0.023195 -0.194065
v 0.158960 -0.002190 -0.194948
v 0.159983 -0.021527 -0.177464
v 0.169334 -0.022159 -0.187817
v 0.169037 -0.006197 -0.204142
v 0.164299 0.009724 -0.188498
v 0.164563 -0.006230 -0.172176
v 0.158267 -0.044133 -0.190142
v 0.167992 -0.016048 -0.185240
v 0.165682 -0.035105 -0.197601
v 0.160449 -0.046759 -0.178675
v 0.162760 -0.027702 -0.166316
v -0.210537 -0.039297 0.501432
v -0.189557 -0.017871 0.494476
v -0.209810 0.004223 0.501432
v -0.230807 -0.017194 0.508388
v -0.223633 0.095558 0.500822
v -0.212585 0.106224 0.480626
v -0.193329 0.124756 0.495987
v -0.204346 0.114067 0.522627
v -0.250000 0.112846 0.490328
v -0.325405 0.096642 0.503784
v -0.320635 0.108717 0.484009
v -0.323028 0.126362 0.499174
v -0.327832 0.111061 0.520582
v -0.395128 0.098334 0.462123
v -0.377483 0.109748 0.453284
v -0.390061 0.126890 0.460725
v -0.407442 0.112356 0.470076
v -0.415910 0.099688 0.398763
v -0.398050 0.110260 0.402892
v -0.411371 0.126247 0.400546
v -0.430733 0.112802 0.396418
v -0.372399 0.101330 0.346095
v -0.366671 0.110194 0.360064
v -0.371293 0.123341 0.349775
v -0.377780 0.112101 0.334813
v -0.310401 0.100455 0.330134
v -0.304706 0.109245 0.343966
v -0.309295 0.122252 0.333779
v -0.315699 0.111110 0.318965
v -0.226822 -0.121475 0.500826
v -0.216217 -0.132538 0.480630
v -0.197647 -0.151733 0.495991
v -0.208252 -0.140686 0.522631
v -0.329053 -0.121656 0.503788
v -0.324679 -0.133895 0.484013
v -0.327650 -0.151458 0.499178
v -0.331958 -0.136016 0.520586
v -0.398776 -0.121037 0.462128
v -0.381560 -0.133037 0.453289
v -0.394666 -0.149766 0.460729
v -0.411552 -0.134663 0.470080
v -0.419607 -0.121730 0.398767
v -0.402127 -0.132872 0.402896
v -0.415959 -0.148404 0.400549
v -0.434859 -0.134341 0.396422
v -0.376179 -0.124800 0.346099
v -0.370748 -0.133846 0.360068
v -0.375783 -0.146836 0.349779
v -0.381923 -0.135381 0.334817
v -0.314181 -0.125980 0.330139
v -0.308800 -0.134943 0.343969
v -0.313818 -0.147802 0.333783
v -0.319842 -0.136454 0.318969
v 0.155675 -0.041822 -0.204864
v 0.173733 -0.023847 -0.209177
v 0.156303 -0.005285 -0.204864
v 0.138228 -0.023261 -0.200551
v 0.304960 -0.044471 0.409964
v 0.323034 -0.026512 0.405651
v 0.305570 -0.007934 0.409964
v 0.287529 -0.025910 0.414278
v 0.370947 -0.045000 0.530981
v 0.386595 -0.026983 0.521087
v 0.371525 -0.008454 0.530953
v 0.355860 -0.026471 0.540847
v -0.267071 0.047582 0.239315
v -0.286499 0.049379 0.272766
v -0.258537 -0.016724 0.266270
v -0.280623 0.012847 0.291198
v -0.314115 -0.015816 0.285048
v -0.306670 0.018073 0.247859
v -0.277916 0.048146 0.206905
v -0.305828 0.077272 0.213788
v -0.330440 0.048996 0.222080
v -0.472502 0.027588 -0.137324
v -0.454312 0.049574 -0.149359
v -0.471924 0.069778 -0.136562
v -0.490164 0.049640 -0.125320
v -0.268623 -0.062909 0.239315
v -0.288530 -0.077253 0.272766
v -0.281597 -0.045553 0.291198
v -0.308073 -0.049877 0.247859
v -0.280045 -0.080909 0.206905
v -0.308899 -0.109119 0.213788
v -0.332585 -0.080034 0.224143
v -0.473938 -0.057429 -0.137324
v -0.456474 -0.080018 -0.149359
v -0.474730 -0.099603 -0.136562
v -0.492310 -0.078830 -0.125320
v -0.466601 0.045530 -0.111512
v -0.466667 0.045571 -0.138040
v -0.480368 0.045753 -0.122741
v -0.468301 -0.073680 -0.111682
v -0.468334 -0.073638 -0.138210
v -0.482051 -0.073481 -0.122911
v 0.150294 0.082447 -0.195532
v 0.168154 0.098483 -0.210650
v 0.183637 0.083297 -0.191149
v 0.165827 0.068334 -0.182930
v 0.164044 -0.023170 -0.206733
v 0.179676 -0.022642 -0.192048
v 0.164143 -0.021684 -0.178292
v 0.152704 0.081993 -0.026765
v 0.168270 0.097864 -0.034804
v 0.181706 0.083264 -0.021967
v 0.166206 0.068466 -0.010497
v 0.153794 0.132981 -0.024370
v 0.167989 0.132816 -0.036084
v 0.182020 0.132618 -0.024198
v 0.167857 0.132783 -0.012892
v 0.118206 0.208556 -0.053403
v 0.131411 0.208350 -0.067444
v 0.194020 0.207541 -0.012681
v 0.175483 0.207797 0.007029
v 0.117116 0.130357 -0.053351
v 0.133854 0.130117 -0.071125
v 0.197981 0.129267 -0.017978
v 0.174377 0.129606 0.007081
v 0.176506 -0.127111 -0.186970
v 0.160957 -0.143205 -0.171858
v 0.147554 -0.128035 -0.191364
v 0.163054 -0.113031 -0.199577
v 0.149304 -0.022056 -0.190460
v 0.164902 -0.022311 -0.190476
v 0.178058 -0.126723 -0.355746
v 0.160644 -0.142561 -0.347703
v 0.145540 -0.127953 -0.360536
v 0.162905 -0.113179 -0.372011
v 0.179181 -0.177761 -0.358146
v 0.161023 -0.177522 -0.346424
v 0.142998 -0.177249 -0.358300
v 0.161188 -0.177497 -0.369616
v 0.096516 -0.245231 -0.379314
v 0.107047 -0.247451 -0.395289
v 0.177959 -0.249168 -0.351808
v 0.163120 -0.246073 -0.329382
v 0.102541 -0.167560 -0.386087
v 0.115911 -0.170374 -0.406311
v 0.188061 -0.172363 -0.364669
v 0.169145 -0.168385 -0.336156
v 0.057644 0.049706 -0.256314
v 0.120368 0.048889 -0.309111
v 0.202356 0.047742 -0.309227
v 0.265229 0.046776 -0.256608
v 0.279573 0.046479 -0.175875
v 0.238686 0.046950 -0.104805
v 0.161667 0.047990 -0.076651
v 0.161535 0.048146 -0.196525
v 0.084599 0.049120 -0.104587
v 0.043514 0.049789 -0.175542
v -0.325405 0.096642 0.503784
v -0.320635 0.108717 0.484009
v -0.323028 0.126362 0.499174
v -0.329053 -0.121656 0.503788
v -0.324679 -0.133895 0.484013
v -0.327650 -0.151458 0.499178
v -0.331958 -0.136016 0.520586
v -0.381560 -0.133037 0.453289
v 0.304960 -0.044471 0.409964
v 0.323034 -0.026512 0.405651
v 0.305570 -0.007934 0.409964
v 0.287529 -0.025910 0.414278
v 0.423500 -0.092937 0.540893
v 0.421073 -0.068359 0.501604
v 0.425596 0.036374 0.540875
v 0.224284 -0.024857 0.528232
v 0.290590 -0.004801 0.537167
v 0.291349 -0.047768 0.537173
v 0.286249 -0.001962 0.516934
v 0.288774 -0.050945 0.517356
v 0.225802 -0.017470 0.512022
v 0.228674 -0.033481 0.513300
v 0.226793 -0.016859 0.523755
v 0.228278 -0.033737 0.524264
v 0.218325 -0.024782 0.517947
v 0.398410 0.045675 0.506547
v 0.395654 -0.100076 0.505599
v 0.452040 0.005177 0.526509
v 0.453674 -0.060362 0.524278
v 0.353661 0.017037 0.542078
v 0.350343 0.029012 0.511227
v 0.354090 -0.071718 0.542140
v 0.352951 -0.084090 0.510401
v 0.422444 0.012687 0.501605
v -0.483185 -0.032845 -0.125781
v -0.482720 -0.033327 0.221394
v -0.364007 -0.034980 0.200289
v -0.259675 -0.036365 0.139855
v -0.182319 -0.037302 0.047382
v -0.141248 -0.037731 -0.065977
v -0.141409 -0.037544 -0.186550
v -0.182802 -0.036802 -0.299793
v -0.260426 -0.035596 -0.392047
v -0.364936 -0.034024 -0.452186
v -0.483685 -0.032318 -0.472955
v -0.602381 -0.030683 -0.451851
v -0.706695 -0.029299 -0.391417
v -0.784068 -0.028343 -0.298943
v -0.825158 -0.027905 -0.185584
v -0.824961 -0.028102 -0.065011
v -0.783568 -0.028852 0.048231
v -0.705962 -0.030067 0.140486
v -0.601469 -0.031630 0.200624
v -0.386749 -0.034725 0.147784
v -0.482783 -0.033263 0.161305
v -0.580010 -0.031789 0.146784
v -0.673466 -0.030397 0.097617
v -0.734608 -0.029489 0.009283
v -0.763842 -0.029074 -0.077463
v -0.760303 -0.028971 -0.172684
v -0.726551 -0.029620 -0.268389
v -0.661141 -0.030360 -0.333110
v -0.577677 -0.031450 -0.382426
v -0.483521 -0.032491 -0.407053
v -0.396898 -0.033624 -0.386450
v -0.305125 -0.034729 -0.341708
v -0.243292 -0.035780 -0.258745
v -0.209499 -0.036511 -0.173195
v -0.202531 -0.036856 -0.076695
v -0.233394 -0.036803 0.020999
v -0.305907 -0.035910 0.098548
v 0.559158 -0.032845 -0.125781
v 0.559623 -0.033327 0.221394
v 0.678336 -0.034980 0.200289
v 0.782668 -0.036365 0.139855
v 0.860024 -0.037302 0.047382
v 0.901095 -0.037731 -0.065977
v 0.900935 -0.037544 -0.186550
v 0.859541 -0.036802 -0.299793
v 0.781918 -0.035596 -0.392047
v 0.677407 -0.034024 -0.452186
v 0.558658 -0.032318 -0.472955
v 0.439963 -0.030683 -0.451851
v 0.335649 -0.029299 -0.391417
v 0.258275 -0.028343 -0.298943
v 0.217185 -0.027905 -0.185584
v 0.217382 -0.028102 -0.065011
v 0.258775 -0.028852 0.048231
v 0.336381 -0.030067 0.140486
v 0.440874 -0.031630 0.200624
v 0.655594 -0.034725 0.147784
v 0.559560 -0.033263 0.161305
v 0.462333 -0.031789 0.146784
v 0.368878 -0.030397 0.097617
v 0.307735 -0.029489 0.009283
v 0.278501 -0.029074 -0.077463
v 0.282040 -0.028971 -0.172684
v 0.315793 -0.029620 -0.268389
v 0.381203 -0.030360 -0.333110
v 0.464666 -0.031450 -0.382426
v 0.558822 -0.032491 -0.407053
v 0.645445 -0.033624 -0.386450
v 0.737218 -0.034729 -0.341708
v 0.799052 -0.035780 -0.258745
v 0.832844 -0.036511 -0.173195
v 0.839812 -0.036856 -0.076695
v 0.808949 -0.036803 0.020999
v 0.736436 -0.035910 0.098548
vt 0.995054 -0.274392
vt 0.995054 -0.150613
vt 0.995054 -0.150613
vt 0.995054 -0.013333
vt 0.005102 -0.150613
vt 0.005102 -0.273873
vt 0.005102 -0.150613
vt 0.005102 -0.013333
vt 0.991367 0.727973
vt 0.991367 0.843539
vt 0.991367 0.843539
vt 0.991367 0.977605
vt 0.027529 0.843539
vt 0.027529 0.727973
vt 0.027529 0.843539
vt 0.027529 0.977605
vt 0.660638 0.723541
vt 0.660638 0.863953
vt 0.660638 0.863953
vt 0.660638 0.991712
vt 0.042797 0.723541
vt 0.042797 0.863953
vt 0.042797 0.991712
vt 0.042797 0.863953
vt 0.660638 0.863953
vt 0.660638 0.723541
vt 0.660638 0.863953
vt 0.660638 0.991712
vt 0.042797 0.723541
vt 0.042797 0.723541
vt 0.042797 0.991712
vt 0.042797 0.723541
vt 0.894791 0.000220
vt 0.791273 -0.140453
vt 0.791273 0.000220
vt 0.894791 -0.140453
vt 0.791273 -0.140453
vt 0.791273 -0.278816
vt 0.894791 -0.140453
vt 0.894791 -0.140453
vt 0.008619 0.000220
vt 0.008619 -0.140453
vt 0.008619 -0.278816
vt 0.791273 -0.278816
vt 0.791273 -0.140453
vt 0.791273 -0.140453
vt 0.791273 0.000220
vt 0.008619 -0.278816
vt 0.008619 -0.140453
vt 0.008619 0.000220
vt 0.008619 -0.140453
vt 0.008619 -0.140453
vt 0.471901 0.440434
vt 0.471901 0.569275
vt 0.471901 0.569275
vt 0.471901 0.706366
vt 0.005637 0.440434
vt 0.005637 0.569275
vt 0.104475 0.569275
vt 0.104475 0.440434
vt 0.005637 0.706366
vt 0.104475 0.706366
vt 0.005637 0.569275
vt 0.104475 0.569275
vt 0.237187 0.569275
vt 0.237187 0.440434
vt 0.237187 0.706366
vt 0.237187 0.569275
vt 0.351268 0.569275
vt 0.351268 0.440434
vt 0.351268 0.706366
vt 0.351268 0.569275
vt 0.471901 0.440434
vt 0.471901 0.569275
vt 0.471901 0.569275
vt 0.471901 0.706366
vt 0.005637 0.440434
vt 0.104475 0.569275
vt 0.005637 0.569275
vt 0.104475 0.440434
vt 0.104475 0.706366
vt 0.005637 0.706366
vt 0.005637 0.569275
vt 0.104475 0.569275
vt 0.237187 0.569275
vt 0.237187 0.440434
vt 0.237187 0.706366
vt 0.237187 0.569275
vt 0.351268 0.569275
vt 0.351268 0.440434
vt 0.351268 0.706366
vt 0.351268 0.569275
vt 0.117472 0.729888
vt 0.412417 0.879090
vt 0.412417 0.729888
vt 0.412417 0.992465
vt 0.412417 0.879090
vt 0.904926 0.879090
vt 0.904926 0.729888
vt 0.904926 0.992465
vt 0.904926 0.879090
vt 0.412417 0.879090
vt 0.412417 0.729888
vt 0.412417 0.992465
vt 0.412417 0.879090
vt 0.904926 0.879090
vt 0.904926 0.729888
vt 0.904926 0.992465
vt 0.904926 0.879090
vt -0.475603 0.710446
vt -0.475603 0.850661
vt -0.475603 0.850661
vt -0.475603 0.999212
vt 0.995255 0.850661
vt 0.995255 0.718782
vt 0.995255 0.850661
vt 0.995255 0.999212
vt 0.891742 0.853694
vt 0.455648 0.715744
vt 0.891742 0.715744
vt 0.455648 0.853694
vt 0.008746 0.853694
vt 0.455648 0.853694
vt 0.455648 0.715744
vt 0.008746 0.715744
vt 0.455648 0.853694
vt 0.008746 0.853694
vt 0.455648 0.988080
vt 0.008746 0.988080
vt 0.007617 0.337825
vt 0.007617 0.241439
vt 0.235973 0.241439
vt 0.235973 0.337825
vt 0.007617 0.423237
vt 0.235973 0.423237
vt 0.007617 0.337825
vt 0.235973 0.337825
vt 0.007118 0.873753
vt 0.998942 0.770756
vt 0.998942 0.868185
vt 0.007118 0.776249
vt 0.998942 0.866885
vt 0.007118 0.872280
vt 0.998942 0.964313
vt 0.007118 0.969784
vt 0.112857 0.641231
vt 0.129214 0.675043
vt 0.055907 0.601074
vt 0.042997 0.553441
vt 0.099505 0.581402
vt 0.199577 0.582237
vt 0.220004 0.656657
vt 0.175691 0.560653
vt 0.135968 0.474262
vt 0.110590 0.529104
vt 0.194975 0.479029
vt 0.224747 0.562527
vt 0.320846 0.549577
vt 0.260838 0.502554
vt 0.089089 0.461564
vt 0.141599 0.458318
vt 0.313237 0.506945
vt 0.202033 0.470451
vt 0.309911 0.608258
vt 0.306936 0.576368
vt 0.419130 0.555351
vt 0.413141 0.534270
vt 0.208847 0.629428
vt 0.428748 0.520738
vt 0.416826 0.489344
vt 0.414038 0.514043
vt 0.414892 0.496101
vt 0.315961 0.612363
vt 0.414764 0.550236
vt 0.348690 0.508631
vt 0.000000 0.500000
vt 0.500000 1.000000
vt 0.500000 0.000000
vt 1.000000 0.500000
vt 0.000000 0.500000
vt 0.500000 1.000000
vt 0.500000 0.000000
vt 1.000000 0.500000
vt 0.017268 0.844857
vt 0.503250 0.844857
vt 0.072021 0.949624
vt 0.502296 0.944741
vt 0.504540 0.750534
vt 0.501963 0.844857
vt 0.233119 0.949624
vt 0.200892 0.736117
vt 0.200892 0.844857
vt 0.072021 0.736117
vt 0.233119 0.844857
vt 0.200892 0.949624
vt 0.233119 0.736117
vt 0.502677 0.946086
vt 0.233119 0.844857
vt 0.503503 0.844857
vt 0.233119 0.949624
vt 0.142475 0.736117
vt 0.072021 0.844857
vt 0.161332 0.949624
vt 0.233119 0.844857
vt 0.017268 0.844857
vt 0.504924 0.751891
vt 0.502465 0.844857
vt 0.200892 0.844857
vt 0.233119 0.844857
vt 0.233119 0.736117
vt 0.142750 0.736117
vt 0.072021 0.844857
vt 0.161607 0.949624
vt 0.236936 0.311399
vt 0.236936 0.230099
vt 0.236936 0.311399
vt 0.236936 0.421723
vt 0.012537 0.311399
vt 0.012537 0.230099
vt 0.012537 0.311399
vt 0.012537 0.421723
vt 0.236936 0.311399
vt 0.236936 0.230099
vt 0.236936 0.421723
vt 0.236936 0.311399
vt 0.473139 0.311399
vt 0.473139 0.230099
vt 0.473139 0.421723
vt 0.473139 0.311399
vt 0.236936 0.311399
vt 0.236936 0.421723
vt 0.236936 0.311399
vt 0.236936 0.311399
vt 0.236936 0.230099
vt 0.473139 0.311399
vt 0.473139 0.421723
vt 0.473139 0.311399
vt 0.473139 0.230099
vt 0.236936 0.311399
vt 0.236936 0.421723
vt 0.236936 0.230099
vt 0.236936 0.311399
vt 0.012537 0.311399
vt 0.012537 0.421723
vt 0.012537 0.230099
vt 0.012537 0.311399
vt 0.428229 0.659477
vt 0.302598 0.664027
vt 0.302598 0.659053
vt 0.428229 0.666459
vt 0.434907 0.475568
vt 0.232422 0.566360
vt 0.309276 0.475144
vt 0.309276 0.481441
vt 0.232441 0.571463
vt 0.434907 0.484445
vt 0.437416 0.475394
vt 0.279119 0.474805
vt 0.279240 0.474884
vt 0.437586 0.475505
vt 0.434957 0.660411
vt 0.276660 0.659822
vt 0.237017 0.567684
vt 0.276813 0.659922
vt 0.237147 0.568317
vt 0.435174 0.660552
vt 10.996657 1.484582
vt 10.996078 1.999989
vt 10.653930 1.878939
vt 10.472301 1.573365
vt 10.536016 1.226250
vt 10.815325 1.000011
vt 10.974772 0.997178
vt 0.604091 1.230783
vt 0.529677 1.574800
vt 0.651348 1.860260
vt -0.006442 0.193772
vt 1.003021 1.484582
vt 1.004754 0.967822
vt 0.604091 1.230783
vt 1.003021 1.484582
vt 0.529677 1.574800
vt 1.003021 1.484582
vt 0.651348 1.860260
vt 1.003021 1.484582
vt 1.002995 1.999989
vt 10.996657 1.484582
vt 10.750802 1.037164
vt 0.880081 0.217886
vt 0.860165 0.018569
vt 0.868922 0.217583
vt 0.875632 0.015441
vt 0.839934 0.216794
vt 0.789522 0.032850
vt 0.783226 0.215252
vt 0.710775 0.048771
vt 0.699039 0.212962
vt 0.639662 0.063148
vt 0.670248 0.212179
vt 0.654686 0.060110
vt 0.682920 0.212523
vt 0.736147 0.043641
vt 0.779142 0.215141
vt 0.815226 0.027654
vt 0.887495 0.218088
vt 0.865213 0.017548
vt 0.905088 0.708882
vt 0.829045 0.708882
vt 0.742641 0.708882
vt 0.656276 0.708882
vt 0.583062 0.321494
vt 0.657261 0.321494
vt 0.740967 0.321494
vt 0.817975 0.321494
vt 0.736535 1.695317
vt 0.823584 1.695317
vt 0.900088 1.695317
vt 0.956811 1.695317
vt 0.991805 0.708882
vt 0.991687 0.708882
vt 0.961570 0.708882
vt 0.580376 0.708882
vt 0.524077 0.708882
vt 0.485434 1.695317
vt 0.485579 1.695317
vt 0.515931 1.695317
vt 0.572838 1.695317
vt 0.649459 1.695317
vt 0.822917 1.318003
vt 0.738740 1.318003
vt 0.653518 1.318003
vt 0.571602 1.318003
vt 0.518009 1.318003
vt 0.492384 1.318003
vt 0.494905 0.321494
vt 0.524911 0.321494
vt 0.893525 0.321494
vt 0.939352 0.321494
vt 0.978335 0.321494
vt 0.984387 1.318003
vt 0.957336 1.318003
vt 0.893777 1.318003
vt 0.822917 1.318003
vt 0.736535 1.695317
vt 0.823584 1.695317
vt 0.822917 1.318003
vt 0.900088 1.695317
vt 0.738740 1.318003
vt 0.736535 1.695317
vt 0.822917 1.318003
vt 0.738740 1.318003
vt 0.649459 1.695317
vt 0.653518 1.318003
vt 0.572838 1.695317
vt 0.649459 1.695317
vt 0.653518 1.318003
vt 0.571602 1.318003
vt 0.515931 1.695317
vt 0.572838 1.695317
vt 0.571602 1.318003
vt 0.518009 1.318003
vt 0.485579 1.695317
vt 0.515931 1.695317
vt 0.518009 1.318003
vt 0.492384 1.318003
vt 0.485434 1.695317
vt 0.485579 1.695317
vt 0.492384 1.318003
vt 0.494905 0.321494
vt 0.494180 0.708882
vt 0.495487 1.318003
vt 0.991805 0.708882
vt 0.984387 1.318003
vt 0.956811 1.695317
vt 0.986929 1.695317
vt 0.990768 0.321494
vt 0.957336 1.318003
vt 0.900088 1.695317
vt 0.956811 1.695317
vt 0.957336 1.318003
vt 0.893777 1.318003
vt 0.900088 1.695317
vn -0.020081 -0.999790 0.004198
vn -0.130995 0.003540 -0.991377
vn 0.013357 0.999910 0.001429
vn 0.123294 -0.002994 0.992366
vn -0.020247 -0.999795 -0.000416
vn -0.131045 0.002951 -0.991372
vn 0.013209 0.999908 -0.003021
vn 0.123189 -0.003237 0.992378
vn -0.015309 -0.999882 0.001217
vn -0.802920 0.010979 -0.595986
vn 0.014836 0.999889 -0.001575
vn 0.802914 -0.011569 0.595982
vn -0.015080 -0.999885 0.001386
vn -0.802925 0.011293 -0.595973
vn 0.015066 0.999885 -0.001404
vn 0.802929 -0.011256 0.595968
vn 0.042632 -0.995306 -0.086881
vn -0.840507 0.045869 -0.539855
vn -0.035403 0.995826 0.084124
vn 0.841177 0.019967 0.540392
vn 0.116194 -0.989314 -0.088070
vn -0.835688 0.188221 0.515944
vn 0.120651 0.987674 -0.099716
vn 0.914139 0.019911 -0.404913
vn -0.113462 0.966323 -0.230970
vn -0.838581 -0.244379 -0.486889
vn 0.124971 -0.966664 0.223480
vn 0.852399 0.180665 0.490689
vn 0.100767 0.994516 -0.027984
vn -0.919491 -0.186329 0.346148
vn 0.162070 -0.979430 -0.120206
vn 0.904100 0.025669 -0.426550
vn -0.683517 0.092420 0.724060
vn -0.610394 0.513218 0.603346
vn -0.683498 0.093826 0.723898
vn 0.066884 -0.997670 0.013433
vn 0.123836 0.039289 -0.991525
vn -0.068005 0.997681 -0.002695
vn -0.128815 0.042402 0.990762
vn -0.622008 -0.346541 0.702151
vn 0.172847 0.965432 -0.195101
vn 0.046650 -0.245646 -0.968236
vn -0.179164 -0.956935 0.228419
vn -0.059570 0.195213 0.978950
vn -0.006241 -0.999501 0.030963
vn 0.957296 -0.015375 -0.288700
vn 0.027658 0.999140 0.030888
vn -0.936494 0.015156 0.350356
vn -0.774803 -0.625100 0.094499
vn -0.002706 0.126587 -0.991952
vn 0.695881 0.685508 -0.214075
vn 0.342355 0.325878 0.881247
vn -0.002886 -0.248124 -0.968724
vn -0.145557 -0.971413 0.187536
vn 0.476859 -0.168420 -0.862694
vn -0.004794 0.999943 0.009537
vn -0.268336 0.032318 0.962783
vn -0.194221 -0.969036 0.152474
vn 0.706593 -0.186527 -0.682593
vn -0.018426 0.999230 0.034644
vn -0.797685 0.052247 0.600807
vn -0.263422 -0.961818 -0.074267
vn 0.970321 -0.217968 0.104718
vn -0.070585 0.996856 -0.035988
vn -0.978702 0.053307 -0.198245
vn -0.118877 -0.978668 -0.167563
vn 0.580464 -0.192649 0.791169
vn -0.000053 0.999907 -0.013639
vn -0.510435 0.049901 -0.858467
vn 0.543102 -0.796586 -0.265501
vn 0.805277 -0.134664 0.577403
vn 0.586327 0.805868 -0.082440
vn 0.253902 0.043050 -0.966271
vn -0.693858 0.698740 0.174136
vn 0.079249 -0.093346 -0.992475
vn 0.683803 -0.699347 -0.208152
vn 0.336843 -0.329261 0.882113
vn -0.113443 0.975628 0.187832
vn 0.283459 0.837102 -0.467881
vn -0.248571 -0.884717 0.394320
vn -0.524770 -0.046548 0.849971
vn -0.161949 0.974984 0.152246
vn 0.716934 0.215799 -0.662900
vn -0.051252 -0.998099 0.034242
vn -0.798984 -0.025995 0.600790
vn -0.231314 0.970043 -0.074239
vn 0.976947 0.186067 0.104664
vn -0.103398 -0.993991 -0.035935
vn -0.979936 -0.020958 -0.198208
vn -0.086304 0.982103 -0.167406
vn 0.586465 0.173720 0.791126
vn -0.032888 -0.999372 -0.013218
vn -0.511954 -0.032806 -0.858386
vn 0.569633 0.777785 -0.265649
vn 0.809087 0.108133 0.577655
vn 0.559093 -0.825024 -0.082162
vn 0.252189 -0.051487 -0.966307
vn -0.016650 -0.999861 -0.000291
vn 0.971617 -0.016283 -0.235999
vn 0.017142 0.999853 0.000172
vn -0.971615 0.016421 0.235998
vn -0.122244 -0.990646 0.060641
vn 0.876805 -0.016190 -0.480574
vn -0.090129 0.994616 0.051142
vn -0.878968 0.012287 0.476722
vn -0.044587 -0.998849 0.017691
vn 0.876711 -0.011895 -0.480870
vn -0.014265 0.999849 0.009904
vn -0.879016 0.014837 0.476561
vn 0.969047 0.213275 -0.124345
vn 0.112041 0.683681 0.721129
vn 0.892373 -0.014436 -0.451067
vn 0.188969 0.837737 0.512336
vn -0.937912 0.010727 0.346706
vn -0.096338 -0.688462 -0.718846
vn 0.921222 -0.082277 -0.380239
vn 0.030579 0.990729 0.132365
vn -0.861881 0.241514 0.445907
vn 0.043728 -0.997092 -0.062418
vn 0.896151 0.008119 -0.443675
vn 0.050456 0.998053 -0.036675
vn -0.917013 0.029619 0.397756
vn 0.921178 0.029731 -0.388004
vn 0.155426 -0.721324 0.674933
vn 0.148913 -0.864393 0.480259
vn -0.166822 0.705344 -0.688956
vn 0.953412 -0.024630 -0.300665
vn 0.054739 -0.981344 0.184301
vn -0.858581 -0.218412 0.463825
vn 0.072626 0.994881 -0.070267
vn 0.895325 -0.041408 -0.443485
vn 0.021590 -0.999320 -0.029892
vn -0.917867 -0.002139 0.396883
vn 0.429669 -0.007504 0.902955
vn 0.355493 -0.003973 -0.934671
vn -0.996862 0.013903 0.077929
vn 0.428714 -0.007124 0.903412
vn 0.356344 -0.003531 -0.934348
vn -0.996892 0.014022 0.077519
vn -0.956367 0.203114 -0.210016
vn 0.047451 0.695372 -0.717081
vn 0.981976 0.150389 -0.114484
vn -0.133087 -0.587114 0.798489
vn -0.030673 -0.043848 -0.998567
vn 0.995091 0.098952 -0.001604
vn 0.015002 0.193852 0.980916
vn -0.977950 -0.136658 0.157920
vn 0.110162 0.615064 -0.780744
vn 0.942991 -0.179827 0.280055
vn -0.049040 -0.696499 0.715880
vn -0.999676 -0.025436 0.000683
vn 0.002167 -0.044494 -0.999007
vn 0.999832 -0.018103 -0.002698
vn -0.020942 0.004435 0.999771
vn -0.806011 0.591900 0.001030
vn -0.048019 0.595717 -0.801758
vn 0.809834 0.586316 -0.020054
vn 0.009537 0.574747 0.818276
vn -0.822278 -0.569084 0.001655
vn -0.036494 -0.560984 -0.827022
vn 0.825487 -0.559436 -0.074855
vn -0.006759 -0.573828 0.818948
vn 0.961289 -0.176459 0.211625
vn -0.043289 -0.690818 0.721732
vn -0.984140 -0.146494 0.100041
vn 0.158021 0.555998 -0.816024
vn -0.996295 0.034357 0.078847
vn 0.016957 0.998587 -0.050352
vn 0.973489 0.160351 -0.163117
vn -0.119968 -0.609401 0.783734
vn -0.939307 0.203963 -0.275865
vn 0.055210 0.700740 -0.711277
vn 0.997999 0.062659 -0.008524
vn -0.007524 0.055217 0.998446
vn -0.998780 0.047528 0.013383
vn 0.030678 0.005312 -0.999515
vn -0.844324 -0.502335 0.186487
vn -0.244800 -0.646148 -0.722887
vn 0.737270 -0.669075 -0.093654
vn 0.097566 -0.511611 0.853660
vn -0.754602 0.650605 0.085373
vn -0.132099 0.503121 -0.854060
vn 0.847753 0.466168 -0.252985
vn 0.185799 0.629807 0.754203
vn 0.014190 0.999898 0.001430
vn 0.014099 0.999900 0.001441
vn 0.014041 0.999900 0.001498
vn 0.014000 0.999901 0.001362
vn 0.013897 0.999903 0.001288
vn 0.013928 0.999902 0.001330
vn 0.014087 0.999900 0.001292
vn 0.014063 0.999900 0.001362
vn 0.014168 0.999899 0.001264
vn 0.014154 0.999899 0.001347
vn 0.048071 -0.989102 0.139166
vn 0.071678 -0.229196 -0.970738
vn -0.022993 0.998487 -0.049957
vn -0.001771 0.986463 0.163976
vn 0.153645 -0.212958 -0.964905
vn 0.089089 -0.962352 -0.256791
vn -0.017176 -0.011308 0.999789
vn 0.355807 -0.644543 -0.676731
vn -0.017348 -0.999849 -0.000083
vn 0.971613 -0.016692 -0.235987
vn 0.016416 0.999865 0.000310
vn -0.971624 0.016048 0.235987
vn 0.393222 -0.716027 0.576786
vn 0.313048 -0.214540 -0.925189
vn 0.423437 0.695568 0.580419
vn -0.611431 -0.000139 0.791298
vn -0.253417 0.579140 0.774839
vn -0.269337 -0.576042 0.771772
vn -0.258931 0.738644 -0.622382
vn -0.293372 -0.733270 -0.613390
vn -0.427226 0.567013 -0.704254
vn -0.356403 -0.656102 -0.665212
vn -0.460639 0.801934 0.380412
vn -0.464085 -0.795432 0.389761
vn -0.988130 -0.038308 -0.148768
vn -0.014291 0.859106 -0.511598
vn -0.045846 -0.842636 -0.536528
vn 0.968922 0.236038 0.073999
vn 0.970807 -0.239758 0.007094
vn -0.196540 0.535429 0.821394
vn -0.354113 0.777522 -0.519677
vn -0.216013 -0.536056 0.816078
vn -0.376878 -0.759241 -0.530581
vn 0.337247 0.221384 -0.915016
vn 0.013697 0.999905 0.001411
vn 0.014457 0.999895 0.000695
vn 0.013274 0.999911 -0.000891
vn 0.011691 0.999930 -0.001738
vn 0.010529 0.999945 0.000311
vn 0.014278 0.999897 0.001731
vn 0.015863 0.999873 0.001509
vn 0.017121 0.999853 -0.000164
vn 0.015973 0.999870 -0.001975
vn 0.013983 0.999902 0.001076
vn 0.013470 0.999904 0.003263
vn 0.015528 0.999864 0.005554
vn 0.016971 0.999841 0.005418
vn 0.019387 0.999806 0.003437
vn 0.016090 0.999869 0.001804
vn 0.015692 0.999876 0.000892
vn 0.013782 0.999904 0.001328
vn 0.013305 0.999909 0.002363
vn 0.014011 0.999899 0.002354
vn 0.014370 0.999897 0.000090
vn 0.014986 0.999887 0.001369
vn 0.014351 0.999895 0.002084
vn 0.013646 0.999906 0.001663
vn 0.013937 0.999903 0.000696
vn 0.014931 0.999888 0.000722
vn 0.015602 0.999878 0.000881
vn 0.017144 0.999852 0.001771
vn 0.014819 0.999885 0.003274
vn 0.013815 0.999900 0.003153
vn 0.012424 0.999921 0.001799
vn 0.012994 0.999916 0.000363
vn 0.014432 0.999895 -0.000931
vn 0.015396 0.999880 0.001563
vn 0.014665 0.999890 0.002418
vn 0.013448 0.999906 0.002567
vn 0.011576 0.999932 0.001479
vn 0.013349 0.999911 -0.000456
vn 0.013697 0.999905 0.001411
vn 0.014457 0.999895 0.000695
vn 0.013274 0.999911 -0.000891
vn 0.011691 0.999930 -0.001738
vn 0.010529 0.999945 0.000311
vn 0.014278 0.999897 0.001731
vn 0.015863 0.999873 0.001509
vn 0.017121 0.999853 -0.000164
vn 0.015973 0.999870 -0.001975
vn 0.013983 0.999902 0.001076
vn 0.013470 0.999904 0.003263
vn 0.015528 0.999864 0.005554
vn 0.016971 0.999841 0.005418
vn 0.019387 0.999806 0.003437
vn 0.016090 0.999869 0.001804
vn 0.015692 0.999876 0.000892
vn 0.013782 0.999904 0.001328
vn 0.013305 0.999909 0.002363
vn 0.014011 0.999899 0.002354
vn 0.014370 0.999897 0.000090
vn 0.014986 0.999887 0.001369
vn 0.014351 0.999895 0.002084
vn 0.013646 0.999906 0.001663
vn 0.013937 0.999903 0.000696
vn 0.014931 0.999888 0.000722
vn 0.015602 0.999878 0.000881
vn 0.017144 0.999852 0.001771
vn 0.014819 0.999885 0.003274
vn 0.013815 0.999900 0.003153
vn 0.012424 0.999921 0.001799
vn 0.012994 0.999916 0.000363
vn 0.014432 0.999895 -0.000931
vn 0.015396 0.999880 0.001563
vn 0.014665 0.999890 0.002418
vn 0.013448 0.999906 0.002567
vn 0.011576 0.999932 0.001479
vn 0.013349 0.999911 -0.000456
g fff02c13_00123_0038ddc9_e0
f 142/220/142 143/221/143 146/217/146
f 142/220/142 146/217/146 145/216/145
f 141/219/141 142/220/142 145/216/145
f 141/219/141 145/216/145 144/215/144
f 132/207/132 129/200/129 133/197/133
f 160/255/160 159/252/159 155/249/155
f 155/249/155 156/248/156 160/255/160
f 143/221/143 167/214/167 146/217/146
f 1/2/1 6/6/6 5/5/5
f 1/2/1 2/1/2 6/6/6
f 2/1/2 7/7/7 6/6/6
f 2/1/2 3/3/3 7/7/7
f 3/3/3 8/8/8 7/7/7
f 3/3/3 4/4/4 8/8/8
f 4/4/4 5/5/5 8/8/8
f 4/4/4 1/2/1 5/5/5
f 148/223/148 149/225/149 142/220/142
f 142/220/142 141/219/141 148/223/148
f 150/224/150 147/222/147 140/218/140
f 140/218/140 143/221/143 150/224/150
f 164/236/164 169/239/169 163/235/163
f 118/203/118 111/202/111 117/194/117
f 162/251/162 161/256/161 157/250/157
f 157/250/157 158/247/158 162/251/162
f 9/10/9 14/14/14 13/13/13
f 9/10/9 10/9/10 14/14/14
f 10/9/10 15/15/15 14/14/14
f 10/9/10 11/11/11 15/15/15
f 11/11/11 16/16/16 15/15/15
f 11/11/11 12/12/12 16/16/16
f 12/12/12 13/13/13 16/16/16
f 12/12/12 9/10/9 13/13/13
f 182/264/182 177/263/177 181/262/181
f 150/224/150 149/225/149 153/229/153
f 127/210/127 130/199/130 126/198/126
f 130/199/130 127/210/127 131/206/131
f 116/196/116 121/189/121 117/194/117
f 115/192/115 126/195/126 114/186/114
f 118/190/118 117/194/117 121/189/121
f 127/210/127 123/211/123 128/209/128
f 139/182/139 137/180/137 134/176/134
f 143/221/143 140/218/140 167/214/167
f 159/252/159 162/251/162 158/247/158
f 128/209/128 132/207/132 127/210/127
f 131/206/131 127/210/127 132/207/132
f 207/146/207 209/150/209 224/151/224
f 129/200/129 132/207/132 128/209/128
f 169/239/169 176/245/176 172/241/172
f 17/18/17 18/17/18 22/21/22
f 22/21/22 21/22/21 17/18/17
f 20/20/20 17/18/17 21/22/21
f 21/22/21 24/23/24 20/20/20
f 18/17/18 19/19/19 23/24/23
f 23/24/23 22/21/22 18/17/18
f 19/19/19 20/20/20 24/23/24
f 24/23/24 23/24/23 19/19/19
f 153/229/153 154/228/154 150/224/150
f 177/263/177 180/257/180 184/261/184
f 184/261/184 181/262/181 177/263/177
f 178/265/178 183/266/183 179/260/179
f 126/191/126 115/192/115 112/193/112
f 121/189/121 122/187/122 118/190/118
f 157/250/157 160/255/160 156/248/156
f 162/251/162 159/253/159 161/256/161
f 122/187/122 119/185/119 115/204/115
f 119/185/119 120/188/120 116/196/116
f 116/196/116 115/204/115 119/185/119
f 124/212/124 128/209/128 123/211/123
f 134/176/134 136/178/136 139/182/139
f 129/213/129 128/209/128 124/212/124
f 158/247/158 155/249/155 159/252/159
f 115/204/115 118/190/118 122/187/122
f 25/25/25 30/29/30 26/26/26
f 30/29/30 25/25/25 29/30/29
f 28/28/28 29/30/29 25/25/25
f 29/30/29 28/28/28 32/31/32
f 26/26/26 31/32/31 27/27/27
f 31/32/31 26/26/26 30/29/30
f 27/27/27 32/31/32 28/28/28
f 32/31/32 27/27/27 31/32/31
f 126/208/126 112/193/112 123/211/123
f 163/235/163 172/241/172 166/238/166
f 33/39/33 35/33/35 34/40/34
f 152/227/152 153/229/153 149/225/149
f 30/41/30 43/37/43 31/42/31
f 43/37/43 30/41/30 44/35/44
f 31/42/31 42/38/42 32/43/32
f 42/38/42 31/42/31 43/37/43
f 137/180/137 138/181/138 135/177/135
f 141/219/141 140/218/140 147/222/147
f 147/222/147 148/223/148 141/219/141
f 135/177/135 134/176/134 137/180/137
f 175/246/175 172/241/172 176/245/176
f 207/146/207 223/148/223 222/149/222
f 176/245/176 169/239/169 173/243/173
f 172/241/172 175/246/175 171/242/171
f 36/45/36 37/44/37 24/48/24
f 24/48/24 21/49/21 36/45/36
f 39/47/39 36/45/36 21/49/21
f 21/49/21 22/50/22 39/47/39
f 37/44/37 38/46/38 23/51/23
f 23/51/23 24/48/24 37/44/37
f 38/46/38 39/47/39 22/50/22
f 22/50/22 23/51/23 38/46/38
f 183/266/183 178/265/178 182/264/182
f 166/238/166 144/234/144 145/232/145
f 33/39/33 40/36/40 35/33/35
f 123/211/123 112/193/112 124/212/124
f 29/52/29 44/35/44 30/41/30
f 44/35/44 29/52/29 41/34/41
f 32/43/32 41/34/41 29/52/29
f 41/34/41 32/43/32 42/38/42
f 124/212/124 112/193/112 125/205/125
f 177/263/177 182/264/182 178/265/178
f 151/226/151 152/227/152 148/223/148
f 148/223/148 147/222/147 151/226/151
f 149/225/149 150/224/150 143/221/143
f 143/221/143 142/220/142 149/225/149
f 174/244/174 171/242/171 175/246/175
f 171/242/171 174/244/174 170/240/170
f 126/198/126 123/211/123 127/210/127
f 165/237/165 167/233/167 144/234/144
f 125/111/125 46/115/46 45/114/45
f 125/111/125 112/110/112 46/115/46
f 112/110/112 47/116/47 46/115/46
f 112/110/112 113/112/113 47/116/47
f 113/112/113 48/117/48 47/116/47
f 113/112/113 114/113/114 48/117/48
f 114/113/114 45/114/45 48/117/48
f 114/113/114 125/111/125 45/114/45
f 179/260/179 184/261/184 180/257/180
f 49/118/49 50/120/50 75/119/75
f 50/120/50 51/121/51 75/119/75
f 160/254/160 161/256/161 159/253/159
f 184/261/184 179/260/179 183/266/183
f 126/198/126 133/197/133 129/200/129
f 133/197/133 126/198/126 130/199/130
f 182/264/182 181/262/181 183/266/183
f 71/53/71 70/54/70 72/55/72
f 73/56/73 72/55/72 70/54/70
f 124/212/124 114/186/114 129/213/129
f 149/225/149 148/223/148 152/227/152
f 140/218/140 141/219/141 144/215/144
f 49/94/49 53/95/53 50/93/50
f 160/255/160 157/250/157 161/256/161
f 140/218/140 144/215/144 167/214/167
f 51/97/51 50/93/50 53/95/53
f 111/202/111 114/186/114 113/184/113
f 112/193/112 111/202/111 113/184/113
f 118/203/118 115/192/115 114/186/114
f 53/95/53 49/94/49 195/98/195
f 195/98/195 196/99/196 53/95/53
f 49/94/49 52/96/52 57/100/57
f 57/100/57 195/98/195 49/94/49
f 51/97/51 53/95/53 196/99/196
f 196/99/196 197/101/197 51/97/51
f 52/96/52 51/97/51 197/101/197
f 197/101/197 57/100/57 52/96/52
f 55/57/55 54/58/54 58/59/58
f 58/59/58 59/60/59 55/57/55
f 54/58/54 57/61/57 61/62/61
f 61/62/61 58/59/58 54/58/54
f 56/63/56 55/57/55 59/60/59
f 59/60/59 60/64/60 56/63/56
f 57/61/57 56/63/56 60/64/60
f 60/64/60 61/62/61 57/61/57
f 59/60/59 58/59/58 62/65/62
f 62/65/62 63/66/63 59/60/59
f 58/59/58 61/62/61 65/67/65
f 65/67/65 62/65/62 58/59/58
f 60/64/60 59/60/59 63/66/63
f 63/66/63 64/68/64 60/64/60
f 61/62/61 60/64/60 64/68/64
f 64/68/64 65/67/65 61/62/61
f 63/66/63 62/65/62 66/69/66
f 66/69/66 67/70/67 63/66/63
f 62/65/62 65/67/65 69/71/69
f 69/71/69 66/69/66 62/65/62
f 64/68/64 63/66/63 67/70/67
f 67/70/67 68/72/68 64/68/64
f 65/67/65 64/68/64 68/72/68
f 68/72/68 69/71/69 65/67/65
f 67/70/67 66/69/66 70/54/70
f 70/54/70 71/53/71 67/70/67
f 66/69/66 69/71/69 73/56/73
f 73/56/73 70/54/70 66/69/66
f 68/72/68 67/70/67 71/53/71
f 71/53/71 72/55/72 68/72/68
f 69/71/69 68/72/68 72/55/72
f 72/55/72 73/56/73 69/71/69
f 74/122/74 49/123/49 75/124/75
f 184/261/184 183/266/183 181/262/181
f 121/189/121 116/196/116 120/188/120
f 75/125/75 51/126/51 76/127/76
f 76/127/76 51/126/51 52/128/52
f 76/127/76 52/128/52 77/129/77
f 77/129/77 52/128/52 49/123/49
f 77/129/77 49/123/49 74/122/74
f 95/73/95 96/74/96 94/75/94
f 97/76/97 94/75/94 96/74/96
f 129/213/129 114/186/114 126/208/126
f 124/212/124 125/205/125 114/186/114
f 136/178/136 135/179/135 138/183/138
f 154/228/154 151/226/151 147/222/147
f 180/257/180 177/258/177 178/259/178
f 138/183/138 139/182/139 136/178/136
f 147/222/147 150/224/150 154/228/154
f 158/247/158 157/250/157 156/248/156
f 158/247/158 156/248/156 155/249/155
f 180/257/180 178/259/178 179/260/179
f 75/103/75 198/106/198 74/102/74
f 198/106/198 75/103/75 199/107/199
f 74/102/74 201/108/201 77/104/77
f 201/108/201 74/102/74 198/106/198
f 76/105/76 199/107/199 75/103/75
f 199/107/199 76/105/76 200/109/200
f 77/104/77 200/109/200 76/105/76
f 200/109/200 77/104/77 201/108/201
f 79/77/79 82/78/82 78/79/78
f 82/78/82 79/77/79 83/80/83
f 78/79/78 85/81/85 81/82/81
f 85/81/85 78/79/78 82/78/82
f 200/83/200 202/80/202 199/77/199
f 83/80/83 80/83/80 84/84/84
f 81/82/81 84/84/84 80/83/80
f 84/84/84 81/82/81 85/81/85
f 83/80/83 86/85/86 82/78/82
f 86/85/86 83/80/83 87/86/87
f 82/78/82 89/87/89 85/81/85
f 89/87/89 82/78/82 86/85/86
f 84/84/84 87/86/87 83/80/83
f 87/86/87 84/84/84 88/88/88
f 85/81/85 88/88/88 84/84/84
f 88/88/88 85/81/85 89/87/89
f 87/86/87 90/89/90 86/85/86
f 90/89/90 87/86/87 91/90/91
f 86/85/86 93/91/93 89/87/89
f 93/91/93 86/85/86 90/89/90
f 88/88/88 91/90/91 87/86/87
f 91/90/91 88/88/88 92/92/92
f 89/87/89 92/92/92 88/88/88
f 92/92/92 89/87/89 93/91/93
f 91/90/91 94/75/94 90/89/90
f 94/75/94 91/90/91 95/73/95
f 90/89/90 97/76/97 93/91/93
f 97/76/97 90/89/90 94/75/94
f 92/92/92 95/73/95 91/90/91
f 95/73/95 92/92/92 96/74/96
f 93/91/93 96/74/96 92/92/92
f 96/74/96 93/91/93 97/76/97
f 110/201/110 117/194/117 111/202/111
f 117/194/117 110/201/110 116/196/116
f 208/155/208 221/154/221 228/160/228
f 115/204/115 116/196/116 110/201/110
f 173/243/173 170/240/170 174/244/174
f 222/149/222 220/161/220 209/150/209
f 228/160/228 221/154/221 220/161/220
f 170/240/170 173/243/173 169/239/169
f 98/138/98 204/139/204 203/140/203
f 98/138/98 99/141/99 204/139/204
f 99/141/99 205/142/205 204/139/204
f 99/141/99 100/143/100 205/142/205
f 100/143/100 206/144/206 205/142/205
f 100/143/100 101/145/101 206/144/206
f 101/145/101 203/140/203 206/144/206
f 101/145/101 98/138/98 203/140/203
f 102/130/102 103/131/103 107/132/107
f 107/132/107 106/133/106 102/130/102
f 105/134/105 102/130/102 106/133/106
f 106/133/106 109/135/109 105/134/105
f 103/131/103 104/136/104 108/137/108
f 108/137/108 107/132/107 103/131/103
f 104/136/104 105/134/105 109/135/109
f 109/135/109 108/137/108 104/136/104
f 164/236/164 167/233/167 165/237/165
f 164/236/164 146/231/146 167/233/167
f 163/235/163 146/231/146 164/236/164
f 163/235/163 145/232/145 146/231/146
f 110/201/110 111/202/111 112/193/112
f 115/192/115 110/201/110 112/193/112
f 111/202/111 118/203/118 114/186/114
f 168/230/168 146/231/146 145/232/145
f 227/157/227 221/153/221 207/147/207
f 212/173/212 214/158/214 226/152/226
f 207/146/207 224/151/224 226/168/226
f 172/241/172 163/235/163 169/239/169
f 225/163/225 209/150/209 220/161/220
f 225/163/225 220/161/220 221/156/221
f 211/165/211 224/151/224 213/162/213
f 212/164/212 224/151/224 211/165/211
f 208/155/208 223/148/223 221/153/221
f 222/149/222 223/148/223 208/155/208
f 222/149/222 228/160/228 220/161/220
f 207/146/207 222/149/222 209/150/209
f 226/152/226 227/157/227 207/147/207
f 171/242/171 166/238/166 172/241/172
f 223/148/223 207/147/207 221/153/221
f 221/156/221 227/159/227 225/163/225
f 208/155/208 228/160/228 222/149/222
f 213/162/213 227/159/227 214/175/214
f 210/166/210 217/167/217 219/169/219
f 166/238/166 171/242/171 165/237/165
f 210/166/210 219/169/219 218/174/218
f 212/173/212 218/174/218 216/171/216
f 218/174/218 219/169/219 216/171/216
f 170/240/170 165/237/165 171/242/171
f 219/169/219 215/172/215 216/170/216
f 217/167/217 211/165/211 215/172/215
f 212/173/212 216/171/216 214/158/214
f 213/162/213 214/175/214 215/172/215
f 211/165/211 213/162/213 215/172/215
f 215/172/215 214/175/214 216/170/216
f 212/173/212 210/166/210 218/174/218
f 165/237/165 170/240/170 164/236/164
f 165/237/165 144/234/144 166/238/166
f 219/169/219 217/167/217 215/172/215
f 213/162/213 224/151/224 225/163/225
f 226/168/226 224/151/224 212/164/212
f 210/166/210 211/165/211 217/167/217
f 212/164/212 211/165/211 210/166/210
f 226/152/226 214/158/214 227/157/227
f 224/151/224 209/150/209 225/163/225
f 169/239/169 164/236/164 170/240/170
f 213/162/213 225/163/225 227/159/227
f 166/238/166 145/232/145 163/235/163
g fff02c13_00123_0038ddc9_e1
f 265/342/265 232/317/232 264/341/264
f 265/381/265 248/329/248 232/382/232
f 264/380/264 233/318/233 263/340/263
f 264/377/264 232/378/232 233/379/233
f 263/376/263 234/319/234 262/339/262
f 263/373/263 233/374/233 234/375/234
f 262/339/262 235/320/235 261/338/261
f 262/339/262 234/372/234 235/320/235
f 261/338/261 236/321/236 260/337/260
f 261/338/261 235/320/235 236/321/236
f 260/337/260 237/307/237 259/314/259
f 260/337/260 236/321/236 237/307/237
f 259/314/259 238/308/238 258/313/258
f 259/314/259 237/307/237 238/308/238
f 258/313/258 239/309/239 257/312/257
f 258/313/258 238/308/238 239/309/239
f 257/312/257 240/310/240 256/311/256
f 257/312/257 239/309/239 240/310/240
f 229/277/229 249/290/249 248/289/248
f 229/277/229 248/289/248 265/306/265
f 229/277/229 265/306/265 264/305/264
f 229/277/229 264/305/264 263/304/263
f 229/277/229 263/304/263 262/303/262
f 229/277/229 262/303/262 261/302/261
f 229/277/229 261/302/261 260/301/260
f 229/277/229 260/301/260 259/300/259
f 229/277/229 259/300/259 258/299/258
f 229/277/229 258/299/258 257/298/257
f 229/277/229 257/298/257 256/297/256
f 229/277/229 256/297/256 255/296/255
f 229/277/229 255/296/255 254/295/254
f 229/277/229 254/295/254 253/294/253
f 229/277/229 253/294/253 252/293/252
f 229/277/229 252/293/252 251/292/251
f 229/277/229 251/292/251 250/291/250
f 229/277/229 250/291/250 249/290/249
f 248/343/248 230/344/230 231/345/231
f 248/346/248 231/316/231 232/347/232
f 249/348/249 230/349/230 248/350/248
f 249/351/249 247/352/247 230/315/230
f 250/353/250 246/354/246 247/355/247
f 250/356/250 247/328/247 249/330/249
f 251/357/251 245/358/245 246/359/246
f 251/360/251 246/327/246 250/331/250
f 252/361/252 244/362/244 245/363/245
f 252/364/252 245/326/245 251/332/251
f 253/365/253 243/366/243 244/367/244
f 253/368/253 244/325/244 252/333/252
f 254/369/254 242/323/242 243/370/243
f 254/371/254 243/324/243 253/334/253
f 255/336/255 241/322/241 242/323/242
f 255/336/255 242/323/242 254/335/254
f 256/311/256 240/310/240 241/322/241
f 256/311/256 241/322/241 255/336/255
f 302/342/302 269/317/269 301/341/301
f 302/381/302 285/329/285 269/382/269
f 301/380/301 270/318/270 300/340/300
f 301/377/301 269/378/269 270/379/270
f 300/376/300 271/319/271 299/339/299
f 300/373/300 270/374/270 271/375/271
f 299/339/299 272/320/272 298/338/298
f 299/339/299 271/372/271 272/320/272
f 298/338/298 273/321/273 297/337/297
f 298/338/298 272/320/272 273/321/273
f 297/337/297 274/307/274 296/314/296
f 297/337/297 273/321/273 274/307/274
f 296/314/296 275/308/275 295/313/295
f 296/314/296 274/307/274 275/308/275
f 295/313/295 276/309/276 294/312/294
f 295/313/295 275/308/275 276/309/276
f 294/312/294 277/310/277 293/311/293
f 294/312/294 276/309/276 277/310/277
f 266/277/266 286/290/286 285/289/285
f 266/277/266 285/289/285 302/306/302
f 266/277/266 302/306/302 301/305/301
f 266/277/266 301/305/301 300/304/300
f 266/277/266 300/304/300 299/303/299
f 266/277/266 299/303/299 298/302/298
f 266/277/266 298/302/298 297/301/297
f 266/277/266 297/301/297 296/300/296
f 266/277/266 296/300/296 295/299/295
f 266/277/266 295/299/295 294/298/294
f 266/277/266 294/298/294 293/297/293
f 266/277/266 293/297/293 292/296/292
f 266/277/266 292/296/292 291/295/291
f 266/277/266 291/295/291 290/294/290
f 266/277/266 290/294/290 289/293/289
f 266/277/266 289/293/289 288/292/288
f 266/277/266 288/292/288 287/291/287
f 266/277/266 287/291/287 286/290/286
f 285/343/285 267/344/267 268/345/268
f 285/346/285 268/316/268 269/347/269
f 286/348/286 267/349/267 285/350/285
f 286/351/286 284/352/284 267/315/267
f 287/353/287 283/354/283 284/355/284
f 287/356/287 284/328/284 286/330/286
f 288/357/288 282/358/282 283/359/283
f 288/360/288 283/327/283 287/331/287
f 289/361/289 281/362/281 282/363/282
f 289/364/289 282/326/282 288/332/288
f 290/365/290 280/366/280 281/367/281
f 290/368/290 281/325/281 289/333/289
f 291/369/291 279/323/279 280/370/280
f 291/371/291 280/324/280 290/334/290
f 292/336/292 278/322/278 279/323/279
f 292/336/292 279/323/279 291/335/291
f 293/311/293 277/310/277 278/322/278
f 293/311/293 278/322/278 292/336/292
g fff02c13_00123_0038ddc9_e2
f 192/285/192 193/276/193 191/286/191
f 192/267/192 191/268/191 190/269/190
f 192/283/192 194/275/194 193/284/193
f 192/267/192 190/269/190 189/270/189
f 192/281/192 185/274/185 194/282/194
f 192/267/192 189/270/189 188/271/188
f 192/278/192 186/279/186 185/280/185
f 192/267/192 188/271/188 187/272/187
f 192/287/192 187/288/187 186/273/186
