# fff0aa7b_00196_004bf258
o fff0aa7b_00196_004bf258
v 0.610908 0.893080 0.268560
v -0.163673 -0.789940 -0.028119
v 0.610908 -0.110295 0.285075
v 0.578310 -0.821005 0.264802
v -0.163341 0.787865 -0.039307
v -0.583061 -0.715685 -0.205506
v -0.583061 0.714315 -0.215782
v -2.622696 2.599024 -0.509477
v -2.766618 2.056236 -0.509442
v -2.048517 2.420375 -0.509435
v -2.178509 1.928324 -0.509431
v -3.002517 -0.696919 -0.495690
v -2.936136 -1.249809 -0.495708
v -2.278206 -0.663813 -0.495711
v -2.217532 -1.164842 -0.495723
v -4.664546 1.420239 -0.509571
v -4.808468 0.877451 -0.509535
v -4.090367 1.241590 -0.509528
v -4.220359 0.749539 -0.509524
vt 1.000008 1.991667
vt 1.994875 1.402565
vt 1.585595 1.991667
vt 1.994875 1.991667
vt 1.000008 1.412184
vt 1.994875 1.000008
vt 1.000008 1.014109
vt 1.715501 1.014109
vt 1.994875 1.014761
vt 1.715501 1.485946
vt 1.994875 1.491079
vt 1.215235 1.236357
vt 1.494609 1.237010
vt 1.215235 1.938108
vt 1.443517 1.943241
vt 1.023307 1.014109
vt 1.994875 1.014761
vt 1.023307 1.961830
vt 1.994875 1.966963
vn -0.371242 0.015281 0.928410
vn -0.380984 0.002728 0.924577
vn -0.374455 0.004312 0.927235
vn -0.367536 -0.009669 0.929959
vn -0.381212 0.009259 0.924441
vn -0.388554 0.006616 0.921402
vn -0.388570 0.006621 0.921396
vn -0.000050 0.000078 1.000000
vn -0.000035 0.000049 1.000000
vn -0.000033 0.000044 1.000000
vn -0.000017 0.000013 1.000000
vn 0.000030 -0.000030 1.000000
vn 0.000027 -0.000026 1.000000
vn 0.000026 -0.000025 1.000000
vn 0.000023 -0.000021 1.000000
vn -0.000050 0.000078 1.000000
vn -0.000035 0.000049 1.000000
vn -0.000033 0.000044 1.000000
vn -0.000017 0.000013 1.000000
g fff0aa7b_00196_004bf258_e1
f 7/7/7 6/6/6 5/5/5
f 4/4/4 3/3/3 2/2/2
f 3/3/3 1/1/1 5/5/5
f 2/2/2 3/3/3 5/5/5
f 6/6/6 2/2/2 5/5/5
g fff0aa7b_00196_004bf258_e2
f 11/8/11 10/9/10 9/10/9
f 10/9/10 8/11/8 9/10/9
f 15/12/15 14/13/14 13/14/13
f 14/13/14 12/15/12 13/14/13
g fff0aa7b_00196_004bf258_e3
f 19/16/19 18/17/18 17/18/17
f 18/17/18 16/19/16 17/18/17
