# fff02c13_00075_00205ff6
o fff02c13_00075_00205ff6
v 2.443563 -0.144935 -0.165553
v 2.474884 -0.255111 -0.083811
v 2.550508 -0.300753 -0.083811
v 2.626132 -0.255111 -0.132751
v 2.657483 -0.144935 -0.083811
v 2.626132 -0.034758 -0.083811
v 2.550508 0.002341 -0.056010
v 2.474884 -0.034758 -0.064613
v 2.407992 -0.144935 -0.307646
v 2.449734 -0.291715 -0.307646
v 2.550508 -0.352523 -0.307646
v 2.651253 -0.291715 -0.307646
v 2.692995 -0.144935 -0.307646
v 2.651253 0.001846 -0.307646
v 2.550508 0.062639 -0.307646
v 2.449734 0.001846 -0.307646
v 2.675239 -0.144935 -0.244833
v 2.638693 -0.016456 -0.244833
v 2.550508 0.032490 -0.244833
v 2.462309 -0.016456 -0.244833
v 2.425778 -0.144935 -0.244833
v 2.462309 -0.273413 -0.244833
v 2.550508 -0.326638 -0.244833
v 2.638693 -0.273413 -0.244833
v 2.347251 -0.143710 -0.290346
v 2.406807 -0.353132 -0.290346
v 2.550589 -0.439892 -0.290346
v 2.694329 -0.353132 -0.290346
v 2.753885 -0.143710 -0.290346
v 2.694329 0.065712 -0.290346
v 2.550589 0.152450 -0.290346
v 2.406807 0.065712 -0.290346
v 2.684808 -0.143716 -0.290346
v 2.645479 -0.005452 -0.290346
v 2.550578 0.047221 -0.290346
v 2.455662 -0.005452 -0.290346
v 2.416348 -0.143716 -0.290346
v 2.455662 -0.281979 -0.290346
v 2.550578 -0.339258 -0.290346
v 2.645479 -0.281979 -0.290346
v 2.550508 -0.044854 -0.056010
v 2.550508 -0.255365 -0.083811
v 2.595947 -0.221922 -0.132751
v 2.626132 -0.143290 -0.083811
v 2.510455 -0.066405 -0.064613
v 2.474884 -0.143290 -0.165553
v 2.510455 -0.221922 -0.083811
v 2.595947 -0.066405 -0.083811
v 2.550508 -0.044854 -0.275541
v 2.550508 -0.255365 -0.275541
v 2.595947 -0.221922 -0.275541
v 2.626132 -0.143290 -0.275541
v 2.510455 -0.066405 -0.275541
v 2.474884 -0.143290 -0.275541
v 2.510455 -0.221922 -0.275541
v 2.595947 -0.066405 -0.275541
v 1.909040 -0.033885 -0.250777
v 1.836560 -0.296329 -0.253050
v 1.976456 -0.074390 -0.267939
v 1.926098 -0.256697 -0.269524
v 1.892012 -0.019302 -0.266697
v 1.812778 -0.306240 -0.269159
v 1.900803 -0.023959 -0.291296
v 1.824014 -0.301976 -0.293686
v 1.942515 -0.238403 -0.292387
v 1.977126 -0.078290 -0.296307
v 1.734998 -0.014320 -0.291274
v 1.775692 -0.298909 -0.291274
v 1.984902 0.055003 -0.291274
v 1.984902 -0.229529 -0.291274
v 1.880297 -0.101694 -0.271381
v 2.107886 -0.034680 -0.291274
v 2.067883 -0.185479 -0.291274
v 1.675354 -0.100127 -0.291274
v 1.883951 0.007585 -0.291274
v 1.734998 -0.014320 -0.271381
v 1.775692 -0.298909 -0.271381
v 1.984902 0.055003 -0.271381
v 1.984902 -0.229529 -0.271381
v 2.107886 -0.034680 -0.271381
v 2.067883 -0.185479 -0.271381
v 1.675354 -0.100127 -0.271381
v 1.883951 0.007585 -0.271381
v 2.091173 -0.062819 -0.238188
v 2.121679 -0.171322 -0.243282
v 2.176928 -0.025793 -0.209306
v 2.176928 -0.155792 -0.228749
v 2.230866 -0.064129 -0.233081
v 2.213314 -0.133888 -0.237645
v 2.070856 -0.103309 -0.254931
v 2.102002 -0.049618 -0.189811
v 2.088787 -0.065395 -0.229886
v 2.119322 -0.173883 -0.234940
v 2.182662 -0.028355 -0.192116
v 2.182662 -0.158368 -0.211559
v 2.236600 -0.066705 -0.215891
v 2.219077 -0.136464 -0.220455
v 2.068498 -0.105885 -0.246590
v 2.107736 -0.052195 -0.172621
v 2.132252 -0.172968 -0.204885
v 2.129522 -0.169208 -0.222906
v 2.495961 -0.032629 -0.163909
v 2.524285 -0.032629 -0.114839
v 2.580979 -0.032629 -0.114839
v 2.609348 -0.032629 -0.163907
v 2.580979 -0.023031 -0.213028
v 2.524285 -0.023031 -0.213029
v 2.495961 0.052859 -0.163909
v 2.524285 0.052859 -0.114839
v 2.580979 0.052859 -0.114839
v 2.609348 0.052859 -0.163907
v 2.580979 0.052859 -0.213028
v 2.524285 0.052859 -0.213029
v 2.635364 -0.029998 -0.161556
v 2.593819 -0.029998 -0.233513
v 2.510730 -0.029998 -0.233513
v 2.469185 -0.029998 -0.161556
v 2.510730 -0.026243 -0.089599
v 2.593819 -0.026243 -0.089599
v 2.635364 0.045934 -0.161556
v 2.593819 0.045934 -0.233513
v 2.510730 0.045934 -0.233513
v 2.469185 0.045934 -0.161556
v 2.510730 0.045934 -0.089599
v 2.593819 0.045934 -0.089599
v 2.552274 0.045934 -0.161556
v 2.495961 0.112304 -0.181673
v 2.524285 0.143873 -0.144055
v 2.580979 0.143873 -0.144055
v 2.609348 0.112304 -0.181672
v 2.580979 0.080736 -0.219298
v 2.524285 0.080736 -0.219254
v 2.495961 0.155664 -0.222612
v 2.524285 0.198173 -0.198079
v 2.580979 0.198173 -0.198079
v 2.609348 0.155664 -0.222612
v 2.580979 0.113132 -0.247196
v 2.524285 0.113132 -0.247196
v 2.495961 0.167231 -0.327789
v 2.524285 0.216340 -0.327749
v 2.580979 0.216340 -0.327748
v 2.609348 0.167231 -0.327788
v 2.580979 0.118121 -0.327749
v 2.524285 0.118121 -0.327749
v 2.551697 -0.010742 -0.089599
v 2.553415 -0.012896 -0.213027
v 2.347448 -0.116327 -0.315331
v 2.404007 -0.212979 -0.291356
v 2.495424 -0.179710 -0.175486
v 2.476630 -0.069321 -0.151489
v 2.420071 0.027354 -0.175486
v 2.361633 0.045565 -0.233410
v 2.328655 -0.005915 -0.291356
v 2.075614 -0.215261 -0.265030
v 2.210256 -0.444988 -0.207944
v 2.344897 -0.476959 -0.070216
v 2.427409 -0.365966 0.067511
v 2.382797 -0.103462 0.124537
v 2.248245 0.126288 0.067511
v 2.123179 0.132306 -0.070216
v 2.031092 0.047243 -0.207944
v 2.142180 -0.191997 -0.233566
v 2.231376 -0.352207 -0.179529
v 2.321450 -0.365116 -0.083860
v 2.382216 -0.297281 0.011811
v 2.351251 -0.114962 0.051474
v 2.257732 0.044648 0.011811
v 2.165107 0.064538 -0.083860
v 2.115394 -0.008757 -0.196550
v 2.435732 -0.038670 -0.230371
v 2.426828 -0.399347 -0.157123
v 2.500614 -0.305671 -0.036259
v 2.461551 -0.075339 0.013778
v 2.343421 0.126265 -0.036259
v 2.243323 0.131389 -0.164715
v 2.152802 0.056886 -0.278040
v 2.191955 -0.173445 -0.328069
v 2.310040 -0.375027 -0.278040
v 2.264220 0.123424 0.048478
v 2.394521 -0.099189 0.103725
v 2.143539 0.127496 -0.084975
v 2.061430 0.049615 -0.225284
v 2.216923 -0.439484 -0.216407
v 2.357426 -0.460112 -0.084975
v 2.441818 -0.356391 0.049768
v 2.071363 -0.213359 -0.292088
v 2.218534 -0.464498 -0.229686
v 2.366689 -0.502331 -0.079160
v 2.455958 -0.378093 0.071425
v 2.407184 -0.091157 0.133761
v 2.260058 0.160138 0.071425
v 2.123224 0.166604 -0.079160
v 2.022679 0.073599 -0.229686
v 2.277465 0.156984 0.050644
v 2.420026 -0.086481 0.111038
v 2.143629 0.166582 -0.095277
v 2.047424 0.073151 -0.241166
v 2.094631 -0.204902 -0.301591
v 2.237193 -0.448232 -0.241166
v 2.380426 -0.483918 -0.095277
v 2.471664 -0.367644 0.052052
v 2.188688 0.056797 -0.100253
v 2.275809 0.039815 -0.009630
v 2.364362 -0.111382 0.027894
v 2.390002 -0.265623 -0.012000
v 2.333711 -0.333995 -0.102436
v 2.248559 -0.317103 -0.194643
v 2.162243 -0.184923 -0.228419
v 2.132890 -0.012224 -0.190889
v 2.242205 -0.323099 -0.192208
v 2.155173 -0.186713 -0.228435
v 2.126804 -0.014149 -0.189875
v 2.184348 0.056416 -0.096707
v 2.273706 0.039301 -0.003570
v 2.362930 -0.111114 0.035020
v 2.389599 -0.269471 -0.006375
v 2.330758 -0.338693 -0.098755
v 2.191149 0.105302 -0.227550
v 2.092439 0.100939 -0.160041
v 2.084921 0.134789 -0.174174
v 2.060490 0.135036 -0.159267
v 2.064920 0.102237 -0.142695
v 2.128594 0.034491 -0.134679
v 2.210166 0.064202 -0.031231
v 2.182334 0.144969 0.006226
v 2.188777 0.181818 0.003517
v 2.209227 0.180117 -0.016451
v 2.201978 0.140808 -0.012045
v 2.294200 0.142799 -0.096851
v 2.304223 -0.019093 0.040188
v 2.325835 0.014892 0.113894
v 2.349372 0.032969 0.122739
v 2.364004 0.036750 0.098436
v 2.337156 0.021805 0.090822
v 2.413762 0.040464 -0.004680
v 2.027601 -0.049834 -0.271438
v 2.033732 -0.060685 -0.244057
v 2.117362 -0.081044 -0.221594
v 2.053241 -0.043726 -0.282377
v 2.061788 -0.052116 -0.258093
v 2.162601 -0.033949 -0.316254
v 2.177591 -0.280635 -0.208291
v 2.126535 -0.332720 -0.250977
v 2.128549 -0.341982 -0.277492
v 2.153428 -0.332451 -0.287855
v 2.144121 -0.328670 -0.259455
v 2.252765 -0.288354 -0.318969
v 2.499227 -0.193872 -0.004466
v 2.431168 -0.234188 0.090676
v 2.461059 -0.233405 0.095863
v 2.445711 -0.241572 0.118657
v 2.417118 -0.241616 0.111538
v 2.375549 -0.210741 0.041914
v 2.359485 -0.346009 -0.031231
v 2.396535 -0.443579 0.006226
v 2.423785 -0.463849 0.003517
v 2.439715 -0.448277 -0.015673
v 2.411167 -0.429305 -0.011323
v 2.480479 -0.369009 -0.096851
v 2.377428 -0.406551 -0.227550
v 2.289591 -0.474208 -0.155208
v 2.312948 -0.491838 -0.174174
v 2.295453 -0.510564 -0.159267
v 2.279165 -0.486289 -0.142695
v 2.277867 -0.375699 -0.134679
v 2.365212 -0.312136 -0.050196
v 2.366957 -0.307662 -0.055109
v 2.287801 -0.340327 -0.147780
v 2.292678 -0.334711 -0.150999
v 2.195668 -0.260522 -0.215846
v 2.202694 -0.256450 -0.217125
v 2.135082 -0.098339 -0.214626
v 2.141928 -0.096392 -0.215158
v 2.382082 -0.192664 0.020017
v 2.383021 -0.190829 0.013324
v 2.150385 0.029278 -0.145487
v 2.155844 0.030508 -0.147875
v 2.227528 0.057356 -0.047655
v 2.230839 0.057826 -0.052735
v 2.321227 -0.030615 0.021485
v 2.323061 -0.030481 0.014570
v 2.633869 0.156357 -0.322557
v 2.592344 0.228332 -0.322557
v 2.509250 0.228332 -0.322557
v 2.467726 0.156357 -0.322557
v 2.509250 0.084405 -0.318821
v 2.592344 0.084405 -0.318821
v 2.633869 0.156357 -0.246645
v 2.592344 0.228332 -0.246645
v 2.509250 0.228332 -0.246645
v 2.467726 0.156357 -0.246645
v 2.509250 0.084405 -0.246645
v 2.592344 0.084405 -0.246645
v 2.550820 0.156357 -0.246645
v 2.689695 0.156007 -0.290769
v 2.620272 0.276336 -0.290769
v 2.481353 0.276336 -0.290769
v 2.411930 0.156007 -0.290769
v 2.481353 0.035714 -0.290769
v 2.620272 0.035714 -0.290769
v 2.550850 0.156007 -0.290769
v 2.144627 -0.187525 -0.235939
vt 0.900000 0.500000
vt 0.000000 0.000000
vt 0.125000 0.000000
vt 0.375000 0.000000
vt 0.500000 0.000000
vt 0.625000 0.000000
vt 0.750000 0.000000
vt 0.875000 0.000000
vt 1.000000 0.000000
vt 0.000000 1.000000
vt 0.125000 1.000000
vt 0.250000 1.000000
vt 0.375000 1.000000
vt 0.500000 1.000000
vt 0.625000 1.000000
vt 0.750000 1.000000
vt 0.875000 1.000000
vt 1.000000 0.500000
vt 0.853553 0.853553
vt 0.500000 1.000000
vt 0.146447 0.853553
vt 0.000000 0.500000
vt 0.146447 0.146447
vt 0.500000 0.000000
vt 0.853553 0.146447
vt 0.900000 0.500000
vt 0.782843 0.782843
vt 0.500000 0.900000
vt 0.217157 0.782843
vt 0.100000 0.500000
vt 0.217157 0.217157
vt 0.500000 0.100000
vt 0.782843 0.217157
vt 0.000000 1.000000
vt 0.125000 1.000000
vt 0.250000 1.000000
vt 0.375000 1.000000
vt 0.500000 1.000000
vt 0.625000 1.000000
vt 0.750000 1.000000
vt 0.875000 1.000000
vt 0.250000 0.500000
vt 0.187500 0.500000
vt 0.062500 0.500000
vt 0.937500 0.500000
vt 0.812500 0.500000
vt 0.687500 0.500000
vt 0.562500 0.500000
vt 0.500000 0.500000
vt 0.250000 0.500000
vt 0.312500 0.500000
vt 0.375000 0.500000
vt 0.437500 0.500000
vt 0.500000 0.500000
vt 0.562500 0.500000
vt 0.625000 0.500000
vt 0.687500 0.500000
vt 0.750000 0.500000
vt 0.812500 0.500000
vt 0.875000 0.500000
vt 0.937500 0.500000
vt 0.000000 0.500000
vt 0.062500 0.500000
vt 0.187500 0.500000
vt 0.900000 0.500000
vt 0.458051 0.664409
vt 0.500000 1.000000
vt 0.066987 0.750000
vt 0.066987 0.250000
vt 0.500000 0.000000
vt 0.933013 0.250000
vt 0.933013 0.750000
vt 0.500000 0.500000
vt 0.000000 0.000000
vt 0.166667 0.000000
vt 0.333333 0.000000
vt 0.500000 0.000000
vt 0.666667 0.000000
vt 0.833333 0.000000
vt 1.000000 0.000000
vt 0.000000 1.000000
vt 0.166667 1.000000
vt 0.333333 1.000000
vt 0.500000 1.000000
vt 0.666667 1.000000
vt 0.833333 1.000000
vt 1.000000 1.000000
vt 0.625000 0.750000
vt 0.593750 0.750000
vt 0.531250 0.750000
vt 0.468750 0.750000
vt 0.656250 0.750000
vt 0.750000 0.750000
vt 0.781250 0.750000
vt 0.875000 0.750000
vt 0.031250 0.750000
vt 0.156250 0.750000
vt 0.187500 0.750000
vt 0.250000 0.750000
vt 0.281250 0.750000
vt 0.375000 0.750000
vt 0.406250 0.750000
vt 0.328125 0.875000
vt 0.000000 1.000000
vt 0.125000 1.000000
vt 0.875000 1.000000
vt 0.250000 1.000000
vt 0.375000 1.000000
vt 0.500000 1.000000
vt 0.625000 1.000000
vt 0.750000 1.000000
vt 0.625000 0.750000
vt 0.531250 0.750000
vt 0.406250 0.750000
vt 0.375000 0.875000
vt 0.750000 0.750000
vt 0.781250 0.750000
vt 0.875000 0.750000
vt 0.000000 0.750000
vt 0.031250 0.750000
vt 0.156250 0.750000
vt 0.250000 0.750000
vt 0.500000 1.000000
vt 0.933013 0.750000
vt 0.066987 0.750000
vt 0.066987 0.250000
vt 0.500000 0.000000
vt 0.933013 0.250000
vt 0.500000 1.000000
vt 0.066987 0.750000
vt 0.933013 0.750000
vt 0.066987 0.250000
vt 0.500000 0.000000
vt 0.933013 0.250000
vt 0.500000 1.000000
vt 0.066987 0.750000
vt 0.933013 0.750000
vt 0.066987 0.250000
vt 0.500000 0.000000
vt 0.933013 0.250000
vt 0.900000 0.500000
vt 0.900000 0.500000
vt 0.900000 0.500000
vt 0.900000 0.500000
vt 0.900000 0.500000
vt 0.900000 0.500000
vt 0.900000 0.500000
vt 0.900000 0.500000
vt 0.900000 0.500000
vt 0.900000 0.500000
vt 0.900000 0.500000
vt 0.900000 0.500000
vt 0.900000 0.500000
vt 0.900000 0.500000
vt 0.900000 0.500000
vt 0.900000 0.500000
vt 0.748841 0.000000
vt 0.747682 0.000000
vt 0.781250 0.750000
vt 0.718750 0.750000
vt 0.656250 0.750000
vt 0.593750 0.750000
vt 0.500000 0.750000
vt 0.531250 0.750000
vt 0.479026 0.582205
vt 0.312500 0.750000
vt 0.250000 0.750000
vt 0.218750 0.750000
vt 0.156250 0.750000
vt 0.093750 0.750000
vt 0.031250 0.750000
vt 0.968750 0.750000
vt 0.906250 0.750000
vt 0.843750 0.750000
vt 0.140625 0.875000
vt 0.109375 0.875000
vt 0.046875 0.875000
vt 0.984375 0.875000
vt 0.921875 0.875000
vt 0.859375 0.875000
vt 0.828125 0.875000
vt 0.734375 0.875000
vt 0.671875 0.875000
vt 0.609375 0.875000
vt 0.546875 0.875000
vt 0.500000 0.875000
vt 0.479026 0.707205
vt 0.343750 0.875000
vt 0.281250 0.875000
vt 0.234375 0.875000
vt 0.171875 0.875000
vt 0.876777 0.676777
vt 0.900000 0.500000
vt 0.900000 0.500000
vt 0.900000 0.500000
vt 0.900000 0.500000
vt 0.900000 0.500000
vt 0.900000 0.500000
vt 0.900000 0.500000
vt 0.900000 0.500000
vt 0.900000 0.500000
vt 0.900000 0.500000
vt 0.900000 0.500000
vt 0.900000 0.500000
vt 0.900000 0.500000
vt 0.900000 0.500000
vt 0.900000 0.500000
vt 0.900000 0.500000
vt 0.900000 0.500000
vt 0.900000 0.500000
vt 0.900000 0.500000
vt 0.900000 0.500000
vt 0.900000 0.500000
vt 0.825498 0.679865
vt 0.803028 0.734111
vt 0.927674 0.674610
vt 0.940396 0.500000
vt 1.000000 0.500000
vt 0.927674 0.674610
vt 0.940396 0.500000
vt 0.853553 0.853553
vt 0.782843 0.782843
vt 0.900000 0.500000
vt 0.825498 0.679865
vt 0.803028 0.734111
vt 0.811374 0.811374
vt 0.810525 0.810525
vt 0.809050 0.809050
vt 0.781250 0.500000
vt 0.828125 0.250000
vt 0.812500 0.000000
vt 0.781250 0.625000
vt 0.765625 0.750000
vt 0.765625 0.750000
vt 0.765625 0.875000
vt 0.765625 0.875000
vt 0.812500 1.000000
vt 0.812500 1.000000
vt 0.676777 0.073223
vt 0.676777 0.123223
vt 0.641421 0.158579
vt 0.812500 1.000000
vt 0.833365 0.166539
vt 0.358579 0.158579
vt 0.687500 1.000000
vt 0.358579 0.108579
vt 0.687500 1.000000
vt 0.687500 1.000000
vt 0.687500 1.000000
vt 0.640625 0.875000
vt 0.640625 0.875000
vt 0.640625 0.750000
vt 0.656250 0.500000
vt 0.656250 0.625000
vt 0.687500 0.250000
vt 0.687500 0.000000
vt 0.163205 0.347409
vt 0.567436 1.000000
vt 0.118823 0.356722
vt 0.557692 1.000000
vt 0.558573 1.000000
vt 0.554948 1.000000
vt 0.542543 0.886552
vt 0.542543 0.886552
vt 0.561618 0.750000
vt 0.546948 0.624418
vt 0.531482 0.500000
vt 0.932011 1.000000
vt 0.933590 1.000000
vt 0.917470 0.300754
vt 0.929556 1.000000
vt 0.927975 1.000000
vt 0.889363 0.885094
vt 0.889363 0.885094
vt 0.888252 0.750000
vt 0.903274 0.636904
vt 0.902000 0.500000
vt 0.948785 0.204860
vt 0.842636 0.638489
vt 0.061204 1.000000
vt 0.882316 0.634611
vt 0.056400 1.000000
vt 0.059665 1.000000
vt 0.056793 1.000000
vt 0.014550 0.883604
vt 0.014550 0.883604
vt 0.014504 0.750000
vt 0.033568 0.615730
vt 0.032379 0.500000
vt 0.406250 0.625000
vt 0.390625 0.750000
vt 0.390625 0.812500
vt 0.421875 0.875000
vt 0.390625 0.875000
vt 0.437500 1.000000
vt 0.437500 1.000000
vt 0.073223 0.676777
vt 0.437500 1.000000
vt 0.108579 0.641421
vt 0.158579 0.641421
vt 0.479026 0.832205
vt 0.358579 0.841421
vt 0.312500 1.000000
vt 0.323223 0.876777
vt 0.323223 0.926777
vt 0.312500 1.000000
vt 0.312500 1.000000
vt 0.312500 1.000000
vt 0.289062 0.937500
vt 0.257812 0.937500
vt 0.265625 0.750000
vt 0.281250 0.625000
vt 0.218750 0.500000
vt 0.203125 0.625000
vt 0.171875 0.750000
vt 0.171875 0.750000
vt 0.156250 0.875000
vt 0.187500 1.000000
vt 0.187500 1.000000
vt 0.676777 0.926777
vt 0.187500 1.000000
vt 0.641421 0.891421
vt 0.641421 0.841421
vt 0.187500 1.000000
vt 0.296875 0.937500
vt 0.312500 0.875000
vt 0.296875 0.812500
vt 0.281250 0.750000
vt 0.179688 0.937500
vt 0.203125 0.875000
vt 0.179688 0.812500
vt 0.187500 0.750000
vt 0.054688 0.937500
vt 0.078125 0.875000
vt 0.070312 0.812500
vt 0.062500 0.750000
vt 0.929688 0.937500
vt 0.953125 0.875000
vt 0.945312 0.812500
vt 0.937500 0.750000
vt 0.479026 0.769705
vt 0.489513 0.791102
vt 0.489513 0.666102
vt 0.489513 0.728602
vt 0.851562 0.937500
vt 0.843750 0.875000
vt 0.820312 0.812500
vt 0.812500 0.750000
vt 0.679688 0.937500
vt 0.703125 0.875000
vt 0.695312 0.812500
vt 0.687500 0.750000
vt 0.554688 0.937500
vt 0.578125 0.875000
vt 0.570312 0.812500
vt 0.562500 0.750000
vt 0.995964 1.000000
vt 0.900000 0.500000
vt 0.900000 0.500000
vn -0.833824 0.037525 0.550754
vn -0.647853 -0.262242 0.715203
vn 0.153557 -0.686317 0.710907
vn 0.665830 -0.480068 0.571143
vn 0.678926 -0.120802 0.724200
vn 0.676085 0.422272 0.603817
vn 0.050395 0.690173 0.721887
vn -0.687496 0.240823 0.685093
vn -0.962176 0.000013 0.272429
vn -0.739937 -0.591442 0.320453
vn 0.000050 -0.924572 0.381007
vn 0.739980 -0.591475 0.320292
vn 0.962291 -0.000000 0.272021
vn 0.730532 0.596940 0.331641
vn 0.008396 0.906122 0.422933
vn -0.739898 0.591475 0.320481
vn 0.980949 0.000008 0.194268
vn 0.767742 0.597640 0.231083
vn 0.009660 0.953002 0.302811
vn -0.777006 0.582046 0.239758
vn -0.972864 0.013586 0.230977
vn -0.779008 -0.583637 0.229161
vn 0.006521 -0.956691 0.291034
vn 0.770852 -0.586417 0.248800
vn -0.000001 0.000000 1.000000
vn -0.000001 -0.000000 1.000000
vn 0.000000 -0.000001 1.000000
vn 0.000001 -0.000000 1.000000
vn 0.000001 0.000000 1.000000
vn 0.000001 0.000000 1.000000
vn 0.000000 0.000001 1.000000
vn -0.000001 0.000000 1.000000
vn 0.000001 -0.000000 1.000000
vn 0.000001 0.000000 1.000000
vn 0.000000 0.000001 1.000000
vn -0.000001 0.000000 1.000000
vn -0.000001 0.000000 1.000000
vn -0.000001 -0.000000 1.000000
vn 0.000000 -0.000001 1.000000
vn 0.000001 -0.000000 1.000000
vn 0.102470 -0.522845 0.846246
vn 0.435561 0.414731 0.798927
vn -0.657590 0.452830 0.602096
vn -0.566054 -0.203304 0.798906
vn 0.080197 -0.701931 0.707716
vn 0.813452 -0.053981 0.579122
vn 0.220998 0.623969 0.749548
vn -0.333330 -0.613909 0.715547
vn 0.019945 -0.785738 0.618238
vn 0.024683 0.806243 0.591069
vn -0.605009 0.461289 0.648981
vn -0.773331 -0.002930 0.633996
vn 0.558030 -0.525356 0.642343
vn 0.781129 -0.003319 0.624361
vn 0.597990 0.454555 0.660142
vn -0.565963 -0.528334 0.632889
vn 0.107418 0.575203 0.810927
vn -0.389858 0.099761 0.915455
vn 0.798050 0.313473 0.514637
vn 0.426634 -0.125634 0.895656
vn -0.418573 0.876574 0.237520
vn -0.950628 0.261062 0.167791
vn -0.163529 0.959609 -0.228931
vn -0.895891 0.250537 -0.366894
vn 0.882159 -0.242714 0.403590
vn 0.949953 0.311722 -0.020439
vn -0.526680 0.850064 0.000000
vn -0.381635 -0.924313 0.000000
vn 0.095326 0.995446 0.000000
vn 0.393206 -0.919450 0.000000
vn 0.000000 0.000000 1.000000
vn 0.942517 0.334159 0.000000
vn 0.783175 -0.621802 0.000000
vn -0.997552 0.069931 0.000000
vn -0.288413 0.957506 0.000000
vn -0.410021 0.661775 0.627644
vn -0.309384 -0.749322 0.585490
vn 0.075652 0.790007 0.608413
vn 0.285084 -0.666624 0.688723
vn 0.754441 0.267479 0.599394
vn 0.610016 -0.484322 0.627147
vn -0.791987 0.055520 0.608008
vn -0.193511 0.642440 0.741502
vn -0.838060 0.540691 -0.072859
vn -0.423740 -0.815870 -0.393448
vn 0.172312 0.981035 0.088768
vn 0.341442 -0.905759 -0.251034
vn 0.895116 0.374035 -0.242624
vn 0.743419 -0.578430 -0.335779
vn -0.894674 0.430318 -0.119939
vn -0.839326 0.431328 0.330889
vn -0.862083 0.503704 0.055630
vn -0.375686 -0.926381 0.026037
vn 0.329426 0.671205 0.664050
vn 0.432343 -0.761002 0.483689
vn 0.902580 0.214409 0.373334
vn 0.775123 -0.537440 0.332179
vn -0.940588 0.088561 0.327796
vn -0.417885 0.341558 0.841849
vn -0.212787 -0.808574 0.548571
vn 0.611056 -0.751304 -0.249304
vn -0.999464 0.000000 0.032738
vn -0.500042 0.000000 0.866001
vn 0.499735 0.000000 0.866178
vn 0.999462 0.000000 0.032782
vn 0.584841 -0.000015 -0.811148
vn -0.581954 0.000000 -0.813222
vn -0.998735 0.016660 0.047453
vn -0.478022 0.132624 0.868278
vn 0.476852 0.131490 0.869093
vn 0.998939 0.015775 0.043262
vn 0.514295 -0.096737 -0.852140
vn -0.509376 -0.103393 -0.854310
vn 0.999965 0.000000 -0.008421
vn 0.499997 0.000000 -0.866027
vn -0.499997 0.000000 -0.866027
vn -0.999965 0.000000 -0.008421
vn -0.570043 0.000000 0.821615
vn 0.568308 0.000000 0.822816
vn 0.792406 0.609993 -0.000000
vn 0.396201 0.609995 -0.686244
vn -0.396201 0.609995 -0.686244
vn -0.792406 0.609993 -0.000000
vn -0.396201 0.609995 0.686244
vn 0.396201 0.609995 0.686244
vn 0.000000 1.000000 0.000000
vn -0.996754 0.032285 0.073755
vn -0.469719 0.461827 0.752383
vn 0.467004 0.462174 0.753858
vn 0.997395 0.028351 0.066324
vn 0.535284 -0.376309 -0.756216
vn -0.527200 -0.374123 -0.762950
vn -0.993800 0.101236 0.045956
vn -0.461721 0.791779 0.399874
vn 0.461716 0.793351 0.396753
vn 0.993608 0.104637 0.042356
vn 0.564681 -0.744354 -0.356474
vn -0.566430 -0.737544 -0.367676
vn -0.999535 0.028337 0.011287
vn -0.475254 0.872112 0.116424
vn 0.478229 0.869741 0.121853
vn 0.999161 0.039359 0.011347
vn 0.501348 -0.862919 -0.063406
vn -0.508287 -0.859541 -0.053238
vn 0.000000 0.000000 1.000000
vn -0.000018 -0.000040 -1.000000
vn 0.099372 0.019267 -0.994864
vn 0.196014 -0.134001 -0.971402
vn 0.984503 0.146729 0.096044
vn 0.984503 0.146729 0.096044
vn 0.619594 0.755471 -0.212995
vn 0.315983 0.786462 -0.530690
vn 0.087242 0.453780 -0.886833
vn -0.818926 0.307776 0.484391
vn -0.774226 -0.403265 0.487803
vn -0.659705 -0.406830 0.631884
vn -0.565054 -0.323809 0.758855
vn -0.601766 -0.226389 0.765915
vn -0.653657 -0.123105 0.746711
vn -0.752255 -0.161377 0.638804
vn -0.801198 -0.223781 0.554982
vn -0.516665 0.330640 0.789769
vn -0.525822 0.160378 0.835338
vn -0.793889 0.216234 0.568316
vn -0.960058 0.003821 0.279774
vn -0.932771 -0.353862 -0.068703
vn -0.704127 -0.677340 0.213110
vn -0.427532 -0.725924 0.538749
vn -0.498183 -0.432735 0.751368
vn -0.734281 -0.360476 0.575229
vn 0.533083 -0.826049 -0.182937
vn 0.881732 -0.287911 0.373706
vn 0.736943 0.268445 0.620365
vn 0.520562 0.838376 0.161684
vn 0.085288 0.931194 -0.354405
vn -0.201830 0.569889 -0.796549
vn 0.104594 0.020761 -0.994298
vn 0.023057 -0.568538 -0.822334
vn 0.356320 0.860129 0.364985
vn 0.734533 0.270696 0.622242
vn -0.154016 0.976264 -0.152272
vn -0.452039 0.580185 -0.677530
vn -0.050230 -0.660355 -0.749272
vn 0.523291 -0.832761 -0.180765
vn 0.852411 -0.352084 0.386565
vn -0.865527 -0.056720 -0.497641
vn -0.450934 -0.806893 -0.381554
vn 0.100655 -0.977438 0.185699
vn 0.353517 -0.487414 0.798407
vn 0.344736 0.116281 0.931470
vn -0.042002 0.691668 0.720993
vn -0.602198 0.756145 0.256129
vn -0.856372 0.414348 -0.308128
vn 0.481791 0.830278 0.280206
vn 0.805812 0.283290 0.520014
vn -0.136057 0.974298 -0.179534
vn -0.348223 0.553878 -0.756281
vn -0.293117 -0.234922 -0.926765
vn 0.010982 -0.587605 -0.809073
vn 0.620932 -0.724716 -0.298715
vn 0.815839 -0.339488 0.468139
vn 0.032030 -0.965601 0.258048
vn -0.512575 -0.838230 -0.186113
vn -0.914421 -0.319110 -0.249004
vn -0.984952 0.171972 0.017160
vn -0.710945 0.581937 0.394850
vn -0.273100 0.460630 0.844533
vn 0.000664 0.006014 0.999982
vn 0.202787 -0.551967 0.808833
vn -0.183870 0.480192 0.857676
vn -0.265628 -0.041496 0.963182
vn -0.248809 -0.441044 0.862308
vn 0.023619 -0.965749 0.258400
vn -0.547420 -0.796269 -0.257461
vn -0.855321 -0.329213 -0.400057
vn -0.986045 0.149349 -0.073551
vn -0.716736 0.568958 0.403208
vn -0.021750 0.848791 -0.528281
vn -0.272702 0.899797 -0.340587
vn -0.240519 0.883362 -0.402270
vn -0.724429 0.688238 0.039115
vn -0.779777 -0.172631 0.601786
vn -0.347722 -0.712727 0.609188
vn -0.534965 -0.758287 0.372577
vn -0.740163 -0.128242 0.660086
vn -0.423192 0.796752 0.431387
vn 0.076828 0.996924 -0.015532
vn 0.007492 0.999402 0.033750
vn 0.251226 0.956817 -0.146240
vn -0.861212 -0.504139 0.064481
vn -0.625597 -0.185623 0.757742
vn 0.226157 0.345952 0.910588
vn 0.692548 0.522156 0.497725
vn 0.618768 0.518058 0.590544
vn 0.698358 0.578846 0.420991
vn -0.908866 0.108677 -0.402681
vn -0.828762 -0.195694 0.524268
vn -0.571342 -0.274028 0.773613
vn -0.427690 0.275271 -0.860992
vn -0.517261 0.261032 -0.815048
vn -0.074345 0.311343 -0.947385
vn -0.335955 0.129246 0.932968
vn -0.809820 -0.326918 0.487152
vn -0.684636 -0.522647 -0.508050
vn -0.235484 -0.364469 -0.900949
vn -0.234700 -0.507690 -0.828955
vn 0.069484 -0.272263 -0.959711
vn 0.814295 0.020618 0.580085
vn 0.810243 0.014879 0.585906
vn 0.823234 0.022075 0.567273
vn 0.376184 -0.140857 0.915775
vn -0.580494 -0.262195 0.770896
vn -0.984024 -0.161125 0.075730
vn -0.872624 0.102692 0.477475
vn -0.599636 -0.400692 0.692735
vn 0.259579 -0.826774 0.499062
vn 0.753583 -0.652594 0.078959
vn 0.717428 -0.691818 0.081759
vn 0.720947 -0.686589 0.093975
vn 0.299662 -0.841157 -0.450176
vn 0.285946 -0.848127 -0.445999
vn 0.356985 -0.759403 -0.543938
vn -0.136935 -0.987001 -0.084132
vn -0.694430 -0.445228 0.565278
vn -0.707860 0.163181 0.687246
vn -0.881248 0.408424 0.237889
vn -0.866649 0.453986 0.206921
vn -0.545969 0.561648 0.621667
vn -0.531994 0.599289 0.598193
vn 0.019728 0.287509 0.957575
vn -0.047712 0.228022 0.972486
vn -0.248995 -0.240769 0.938100
vn 0.110925 -0.196442 0.974221
vn -0.959145 -0.099257 -0.264932
vn -0.972374 -0.098954 -0.211417
vn 0.189023 -0.849501 0.492562
vn 0.185795 -0.839453 0.510685
vn -0.188418 -0.981856 -0.021368
vn -0.175766 -0.984395 0.008485
vn -0.793820 -0.516653 -0.320812
vn -0.793631 -0.540044 -0.280184
vn 0.999966 0.008307 0.000000
vn 0.500134 0.865948 0.000000
vn -0.500136 0.865947 0.000000
vn -0.999965 0.008307 0.000000
vn -0.507114 -0.861879 0.000000
vn 0.507113 -0.861880 0.000000
vn 0.792379 -0.000053 0.610029
vn 0.396318 0.686197 0.609972
vn -0.396319 0.686197 0.609972
vn -0.792378 -0.000053 0.610030
vn -0.396269 -0.686217 0.609981
vn 0.396268 -0.686217 0.609981
vn 0.000000 0.000000 1.000000
vn 0.000000 0.000000 1.000000
vn 0.000000 0.000000 1.000000
vn 0.000000 0.000000 1.000000
vn 0.000000 0.000000 1.000000
vn 0.000000 0.000000 1.000000
vn 0.000000 0.000000 1.000000
vn 0.000000 0.000000 1.000000
vn -0.601046 0.334843 0.725689
g fff02c13_00075_00205ff6_e0
f 7/1/7 6/1/6 18/143/18
f 8/1/8 7/1/7 19/145/19
f 8/1/8 19/145/19 20/146/20
f 7/1/7 18/143/18 19/144/19
f 15/65/15 16/65/16 20/146/20
f 20/146/20 19/145/19 15/65/15
f 228/252/228 229/254/229 175/57/175
f 179/88/179 174/56/174 229/253/229
f 228/252/228 179/88/179 229/254/229
f 181/92/181 228/252/228 175/57/175
f 181/93/181 175/58/175 218/229/218
f 46/198/46 2/1/2 47/199/47
f 14/65/14 15/65/15 19/144/19
f 2/1/2 46/198/46 1/1/1
f 19/144/19 18/143/18 14/65/14
f 42/194/42 2/1/2 3/1/3
f 8/1/8 45/197/45 7/1/7
f 7/1/7 45/197/45 41/193/41
f 182/94/182 219/233/219 218/232/218
f 219/233/219 181/93/181 218/232/218
f 44/196/44 4/1/4 5/1/5
f 4/1/4 43/195/43 3/1/3
f 182/94/182 218/232/218 176/59/176
f 44/196/44 6/1/6 48/201/48
f 6/1/6 44/196/44 5/1/5
f 8/1/8 46/198/46 45/197/45
f 4/1/4 44/196/44 43/195/43
f 6/1/6 41/193/41 48/202/48
f 47/200/47 2/1/2 42/194/42
f 6/1/6 7/1/7 41/193/41
f 46/198/46 8/1/8 1/1/1
f 43/195/43 42/194/42 3/1/3
g fff02c13_00075_00205ff6_e2
f 234/265/234 174/55/174 179/89/179
f 180/102/180 248/290/248 173/53/173
f 170/43/170 269/332/269 206/168/206
f 170/46/170 202/159/202 277/348/277
f 229/255/229 151/6/151 152/256/152
f 182/95/182 176/60/176 241/276/241
f 240/275/240 182/95/182 241/276/241
f 246/287/246 247/288/247 178/63/178
f 170/42/170 267/328/267 205/166/205
f 170/47/170 203/161/203 279/352/279
f 170/45/170 209/173/209 273/340/273
f 175/58/175 153/231/153 218/243/218
f 170/44/170 271/336/271 207/170/207
f 175/58/175 152/7/152 153/231/153
f 170/43/170 207/169/207 269/332/269
f 170/45/170 273/340/273 208/172/208
f 185/101/185 172/52/172 248/290/248
f 170/48/170 204/164/204 281/356/281
f 170/44/170 208/171/208 271/336/271
f 205/165/205 275/343/275 170/49/170
f 180/90/180 173/54/173 235/266/235
f 17/142/17 14/65/14 18/143/18
f 17/142/17 18/143/18 6/1/6
f 180/90/180 235/266/235 234/265/234
f 22/150/22 21/149/21 9/65/9
f 235/266/235 174/55/174 234/265/234
f 5/1/5 24/155/24 17/156/17
f 12/65/12 13/65/13 17/141/17
f 13/65/13 14/65/14 17/142/17
f 9/65/9 10/65/10 22/150/22
f 6/1/6 5/1/5 17/141/17
f 1/1/1 20/147/20 21/148/21
f 170/42/170 206/167/206 267/328/267
f 16/65/16 9/65/9 21/148/21
f 21/148/21 20/147/20 16/65/16
f 2/1/2 1/1/1 21/149/21
f 180/102/180 249/291/249 248/290/248
f 1/1/1 8/1/8 20/147/20
f 249/291/249 185/101/185 248/290/248
f 170/47/170 279/352/279 202/160/202
f 170/48/170 281/356/281 203/162/203
f 2/1/2 21/149/21 22/150/22
f 5/1/5 4/1/4 24/155/24
f 174/56/174 151/6/151 229/255/229
f 175/57/175 229/253/229 152/7/152
f 176/59/176 218/230/218 153/8/153
f 275/343/275 204/163/204 170/49/170
f 183/96/183 246/287/246 178/63/178
f 170/46/170 277/348/277 209/174/209
f 17/156/17 24/155/24 12/65/12
g fff02c13_00075_00205ff6_e3
f 44/196/44 48/201/48 56/210/56
f 56/210/56 52/209/52 44/196/44
f 45/197/45 46/198/46 54/211/54
f 54/211/54 53/205/53 45/197/45
f 46/198/46 47/199/47 55/212/55
f 55/212/55 54/211/54 46/198/46
f 48/202/48 41/193/41 49/203/49
f 49/203/49 56/204/56 48/202/48
f 41/193/41 45/197/45 53/205/53
f 53/205/53 49/203/49 41/193/41
f 42/194/42 43/195/43 51/207/51
f 51/207/51 50/206/50 42/194/42
f 258/311/258 259/312/259 172/51/172
f 184/98/184 260/314/260 171/50/171
f 188/107/188 200/122/200 257/310/257
f 188/107/188 257/309/257 256/308/256
f 47/200/47 42/194/42 50/206/50
f 50/206/50 55/208/55 47/200/47
f 43/195/43 44/196/44 52/209/52
f 187/105/187 262/317/262 263/318/263
f 52/209/52 51/207/51 43/195/43
f 204/164/204 215/185/215 280/355/280
f 209/173/209 272/339/272 273/340/273
f 3/1/3 22/151/22 23/152/23
f 187/105/187 199/121/199 262/316/262
f 176/60/176 153/8/153 147/278/147
f 178/63/178 247/289/247 148/3/148
f 206/167/206 266/327/266 267/328/267
f 172/52/172 149/4/149 150/5/150
f 207/170/207 271/335/271 270/334/270
f 208/171/208 211/177/211 271/335/271
f 271/335/271 211/177/211 270/334/270
f 216/187/216 274/344/274 275/343/275
f 203/161/203 214/183/214 278/351/278
f 209/173/209 212/179/212 272/339/272
f 177/62/177 147/2/147 148/3/148
f 241/277/241 176/60/176 147/278/147
f 247/289/247 177/62/177 148/3/148
f 206/168/206 268/330/268 217/190/217
f 23/152/23 22/151/22 10/65/10
f 10/65/10 11/65/11 23/152/23
f 11/65/11 12/65/12 24/154/24
f 183/97/183 178/64/178 260/313/260
f 184/99/184 171/50/171 259/312/259
f 273/340/273 272/339/272 208/172/208
f 208/172/208 272/338/272 211/178/211
f 281/356/281 280/355/280 203/162/203
f 277/348/277 202/159/202 276/347/276
f 203/161/203 278/351/278 279/352/279
f 279/352/279 278/351/278 202/160/202
f 202/160/202 278/350/278 213/182/213
f 207/170/207 270/334/270 210/176/210
f 216/187/216 275/343/275 205/165/205
f 269/332/269 268/331/268 206/168/206
f 205/166/205 266/326/266 216/188/216
f 267/328/267 266/327/266 205/166/205
f 274/342/274 215/186/215 204/163/204
f 203/162/203 280/354/280 214/184/214
f 274/344/274 204/163/204 275/343/275
f 207/169/207 268/331/268 269/332/269
f 263/318/263 262/317/262 188/107/188
f 261/315/261 183/97/183 260/314/260
f 184/98/184 261/315/261 260/314/260
f 257/309/257 201/103/201 256/308/256
f 256/308/256 201/103/201 189/108/189
f 207/169/207 210/175/210 268/331/268
f 24/154/24 23/153/23 11/65/11
f 4/1/4 3/1/3 23/153/23
f 4/1/4 23/153/23 24/154/24
f 3/1/3 2/1/2 22/151/22
f 177/61/177 241/277/241 147/9/147
f 206/167/206 217/189/217 266/327/266
f 174/55/174 235/267/235 151/6/151
f 262/317/262 200/98/200 188/107/188
f 209/174/209 277/348/277 276/347/276
f 204/164/204 280/355/280 281/356/281
f 209/174/209 276/347/276 212/180/212
f 276/346/276 202/159/202 213/181/213
f 185/100/185 258/311/258 172/51/172
f 258/311/258 184/99/184 259/312/259
g fff02c13_00075_00205ff6_e4
f 53/205/53 55/199/55 49/203/49
f 54/211/54 55/212/55 53/205/53
f 56/204/56 49/203/49 50/194/50
f 52/209/52 56/210/56 51/207/51
f 56/201/56 50/206/50 51/207/51
f 49/203/49 55/208/55 50/206/50
g fff02c13_00075_00205ff6_e5
f 103/75/103 110/83/110 109/82/109
f 103/75/103 104/76/104 110/83/110
f 115/75/115 116/76/116 122/83/122
f 135/132/135 134/130/134 128/125/128
f 128/125/128 129/126/129 135/132/135
f 115/75/115 122/83/122 121/82/121
f 126/73/126 120/67/120 121/68/121
f 126/73/126 121/68/121 122/69/122
f 126/73/126 122/69/122 123/70/123
f 109/68/109 110/69/110 129/126/129
f 126/73/126 123/70/123 124/71/124
f 126/73/126 124/71/124 125/72/125
f 126/73/126 125/72/125 120/67/120
f 129/126/129 128/125/128 109/68/109
f 134/130/134 135/132/135 141/138/141
f 141/138/141 140/136/140 134/130/134
f 114/74/114 121/82/121 120/81/120
f 114/74/114 115/75/115 121/82/121
f 283/75/283 284/76/284 290/83/290
f 283/75/283 290/83/290 289/82/289
f 294/73/294 288/67/288 289/68/289
f 294/73/294 289/68/289 290/69/290
f 294/73/294 290/69/290 291/70/291
f 294/73/294 291/70/291 292/71/292
f 294/73/294 292/71/292 293/72/293
f 294/73/294 293/72/293 288/67/288
f 282/74/282 289/82/289 288/81/288
f 282/74/282 283/75/283 289/82/289
g fff02c13_00075_00205ff6_e6
f 59/26/59 58/19/58 60/27/60
f 59/26/59 57/18/57 58/19/58
f 224/244/224 160/24/160 168/32/168
f 167/31/167 225/246/225 224/244/224
f 167/31/167 159/23/159 225/246/225
f 242/279/242 155/19/155 163/27/163
f 192/111/192 196/116/196 220/234/220
f 168/32/168 222/240/222 223/241/223
f 191/110/191 227/250/227 226/249/226
f 191/110/191 194/112/194 227/251/227
f 192/111/192 220/234/220 221/236/221
f 221/235/221 197/94/197 193/106/193
f 286/78/286 287/157/287 293/86/293
f 286/78/286 293/86/293 292/85/292
f 146/158/146 107/79/107 113/86/113
f 145/157/145 119/79/119 125/86/125
f 105/77/105 112/85/112 111/84/111
f 105/77/105 106/78/106 112/85/112
f 111/70/111 112/71/112 131/128/131
f 131/128/131 130/127/130 111/70/111
f 136/133/136 137/134/137 143/140/143
f 143/140/143 142/139/142 136/133/136
f 130/127/130 131/128/131 137/134/137
f 137/134/137 136/133/136 130/127/130
f 107/79/107 108/87/108 113/86/113
f 107/79/107 102/80/102 108/87/108
f 113/72/113 108/67/108 127/123/127
f 127/123/127 132/124/132 113/72/113
f 132/124/132 127/123/127 133/129/133
f 133/129/133 138/131/138 132/124/132
f 138/131/138 133/129/133 139/135/139
f 139/135/139 144/137/144 138/131/138
f 118/78/118 125/86/125 124/85/124
f 118/78/118 145/157/145 125/86/125
f 222/240/222 161/25/161 169/33/169
f 168/32/168 160/24/160 222/239/222
f 106/78/106 113/86/113 112/85/112
f 106/78/106 146/158/146 113/86/113
f 225/246/225 160/24/160 224/244/224
f 112/71/112 113/72/113 132/124/132
f 231/259/231 159/23/159 230/257/230
f 132/124/132 131/128/131 112/71/112
f 166/30/166 158/22/158 231/259/231
f 252/299/252 158/22/158 166/30/166
f 165/29/165 157/21/157 252/297/252
f 221/236/221 220/234/220 197/117/197
f 137/134/137 138/131/138 144/137/144
f 144/137/144 143/140/143 137/134/137
f 162/26/162 243/281/243 242/279/242
f 223/241/223 222/240/222 169/33/169
f 163/27/163 264/322/264 265/323/265
f 254/304/254 156/20/156 255/305/255
f 264/322/264 156/20/156 164/28/164
f 163/27/163 155/19/155 264/320/264
f 131/128/131 132/124/132 138/131/138
f 243/281/243 155/19/155 242/279/242
f 162/26/162 154/18/154 243/281/243
f 138/131/138 137/134/137 131/128/131
f 265/323/265 264/322/264 164/28/164
f 254/302/254 157/21/157 165/29/165
f 253/300/253 252/299/252 166/30/166
f 164/28/164 156/20/156 254/304/254
f 165/29/165 252/299/252 253/300/253
f 254/304/254 255/305/255 157/21/157
f 169/33/169 161/25/161 237/270/237
f 166/30/166 231/259/231 230/257/230
f 230/257/230 159/23/159 167/31/167
f 227/250/227 196/92/196 226/249/226
f 226/249/226 196/92/196 192/111/192
g fff02c13_00075_00205ff6_e7
f 66/177/66 59/34/59 65/176/65
f 65/176/65 59/34/59 60/35/60
f 58/11/58 57/10/57 61/104/61
f 61/104/61 62/105/62 58/11/58
f 57/1/57 59/1/59 63/1/63
f 63/1/63 61/1/61 57/1/57
f 66/213/66 63/1/63 59/1/59
f 61/104/61 64/96/64 62/105/62
f 61/104/61 63/119/63 64/120/64
f 213/181/213 223/242/223 276/345/276
f 214/184/214 280/353/280 230/258/230
f 210/191/210 163/35/163 265/329/265
f 268/330/268 265/329/265 217/190/217
f 266/326/266 254/325/254 216/188/216
f 251/294/251 250/292/250 195/114/195
f 251/293/251 195/91/195 190/109/190
f 285/77/285 292/85/292 291/84/291
f 285/77/285 286/78/286 292/85/292
f 284/76/284 285/77/285 291/84/291
f 211/177/211 162/34/162 270/333/270
f 189/108/189 201/115/201 250/292/250
f 210/176/210 242/280/242 163/35/163
f 216/188/216 254/303/254 165/37/165
f 215/185/215 166/38/166 280/353/280
f 212/180/212 276/345/276 169/41/169
f 193/106/193 239/274/239 236/268/236
f 190/109/190 195/113/195 233/264/233
f 189/108/189 250/292/250 251/294/251
f 217/190/217 265/324/265 164/36/164
f 186/104/186 198/119/198 245/286/245
f 186/104/186 245/285/245 244/284/244
f 287/79/287 288/87/288 293/86/293
f 287/79/287 282/80/282 288/87/288
f 284/76/284 291/84/291 290/83/290
f 130/127/130 129/126/129 110/69/110
f 110/69/110 111/70/111 130/127/130
f 128/125/128 127/123/127 108/67/108
f 102/74/102 109/82/109 108/81/108
f 127/123/127 128/125/128 134/130/134
f 134/130/134 133/129/133 127/123/127
f 142/139/142 141/138/141 135/132/135
f 108/67/108 109/68/109 128/125/128
f 102/74/102 103/75/103 109/82/109
f 116/76/116 123/84/123 122/83/122
f 104/76/104 111/84/111 110/83/110
f 104/76/104 105/77/105 111/84/111
f 119/79/119 114/80/114 120/87/120
f 117/77/117 124/85/124 123/84/123
f 117/77/117 118/78/118 124/85/124
f 140/136/140 139/135/139 133/129/133
f 133/129/133 134/130/134 140/136/140
f 135/132/135 136/133/136 142/139/142
f 116/76/116 117/77/117 123/84/123
f 136/133/136 135/132/135 129/126/129
f 129/126/129 130/127/130 136/133/136
f 119/79/119 120/87/120 125/86/125
f 193/106/193 197/118/197 239/273/239
f 190/109/190 233/263/233 232/262/232
f 245/285/245 199/96/199 244/284/244
f 253/301/253 166/38/166 215/186/215
f 244/284/244 199/96/199 187/105/187
f 210/191/210 265/329/265 268/330/268
f 217/189/217 164/36/164 254/325/254
f 214/183/214 167/39/167 278/349/278
f 165/66/165 253/301/253 274/341/274
f 270/333/270 162/34/162 242/280/242
f 280/353/280 166/38/166 230/258/230
f 278/349/278 167/39/167 224/245/224
f 165/66/165 274/341/274 216/187/216
f 213/181/213 168/40/168 223/242/223
f 213/182/213 278/349/278 224/245/224
f 274/341/274 253/301/253 215/186/215
f 210/176/210 270/333/270 242/280/242
f 217/189/217 254/325/254 266/326/266
f 233/263/233 194/89/194 232/262/232
f 232/262/232 194/89/194 191/110/191
f 214/184/214 230/258/230 167/39/167
f 276/345/276 223/242/223 169/41/169
f 213/182/213 224/245/224 168/40/168
f 222/238/222 160/16/160 192/111/192
f 221/237/221 193/106/193 161/17/161
f 244/283/244 187/105/187 155/11/155
f 243/282/243 154/10/154 186/104/186
f 264/321/264 155/11/155 263/319/263
f 156/12/156 264/321/264 263/319/263
f 255/306/255 156/12/156 188/107/188
f 256/307/256 189/108/189 157/13/157
f 252/298/252 157/13/157 251/296/251
f 263/318/263 188/107/188 156/12/156
f 231/260/231 158/14/158 190/109/190
f 231/261/231 191/110/191 159/15/159
f 225/247/225 159/15/159 191/110/191
f 226/248/226 192/111/192 160/16/160
f 192/111/192 221/237/221 222/238/222
f 222/238/222 221/237/221 161/17/161
f 263/319/263 155/11/155 187/105/187
f 157/13/157 255/306/255 256/307/256
f 158/14/158 252/298/252 251/296/251
f 256/307/256 255/306/255 188/107/188
f 251/296/251 157/13/157 189/108/189
f 251/295/251 190/109/190 158/14/158
f 244/283/244 243/282/243 186/104/186
f 155/11/155 243/282/243 244/283/244
f 236/269/236 161/17/161 193/106/193
f 237/271/237 161/17/161 236/269/236
f 190/109/190 232/262/232 231/261/231
f 232/262/232 191/110/191 231/261/231
f 226/248/226 225/247/225 191/110/191
f 160/16/160 225/247/225 226/248/226
f 272/337/272 169/41/169 238/272/238
f 154/1/154 162/358/162 186/1/186
f 211/178/211 238/272/238 302/357/302
f 212/179/212 169/41/169 272/337/272
f 211/178/211 272/337/272 238/272/238
f 162/358/162 302/359/302 186/1/186
f 162/358/162 211/1/211 302/359/302
g fff02c13_00075_00205ff6_e11
f 301/73/301 295/67/295 296/68/296
f 301/73/301 296/68/296 297/69/297
f 301/73/301 300/72/300 295/67/295
f 301/73/301 299/71/299 300/72/300
f 301/73/301 298/70/298 299/71/299
f 301/73/301 297/69/297 298/70/298
f 39/152/39 38/151/38 26/65/26
f 26/65/26 27/65/27 39/152/39
f 27/65/27 28/65/28 40/154/40
f 40/154/40 39/153/39 27/65/27
f 33/142/33 30/65/30 34/143/34
f 38/150/38 37/149/37 25/65/25
f 28/65/28 29/65/29 33/141/33
f 29/65/29 30/65/30 33/142/33
f 25/65/25 26/65/26 38/150/38
f 32/65/32 25/65/25 37/148/37
f 35/144/35 34/143/34 30/65/30
f 30/65/30 31/65/31 35/144/35
f 36/146/36 35/145/35 31/65/31
f 31/65/31 32/65/32 36/146/36
f 33/156/33 40/155/40 28/65/28
f 37/148/37 36/147/36 32/65/32
g fff02c13_00075_00205ff6_e9
f 96/224/96 97/225/97 89/215/89
f 89/215/89 88/214/88 96/224/96
f 97/225/97 95/222/95 87/27/87
f 87/27/87 89/215/89 97/225/97
f 71/192/71 77/221/77 79/222/79
f 71/192/71 76/218/76 82/219/82
f 78/223/78 71/192/71 80/224/80
f 83/220/83 76/218/76 71/192/71
f 81/225/81 71/192/71 79/222/79
f 80/224/80 71/192/71 81/225/81
f 71/192/71 82/219/82 77/221/77
f 78/223/78 83/220/83 71/192/71
f 67/18/67 74/216/74 82/219/82
f 82/219/82 76/218/76 67/18/67
f 75/217/75 67/18/67 76/218/76
f 76/218/76 83/220/83 75/217/75
f 68/19/68 70/27/70 79/222/79
f 79/222/79 77/221/77 68/19/68
f 74/216/74 68/19/68 77/221/77
f 77/221/77 82/219/82 74/216/74
f 72/214/72 69/26/69 78/223/78
f 78/223/78 80/224/80 72/214/72
f 69/26/69 75/217/75 83/220/83
f 83/220/83 78/223/78 69/26/69
f 70/27/70 73/215/73 81/225/81
f 81/225/81 79/222/79 70/27/70
f 73/215/73 72/214/72 80/224/80
f 80/224/80 81/225/81 73/215/73
f 99/192/99 93/221/93 100/226/100
f 99/192/99 92/218/92 98/219/98
f 94/223/94 99/192/99 96/224/96
f 101/228/101 87/27/87 100/227/100
f 97/225/97 99/192/99 95/222/95
f 96/224/96 99/192/99 97/225/97
f 99/192/99 98/219/98 93/221/93
f 100/227/100 87/27/87 95/222/95
f 84/18/84 90/216/90 98/219/98
f 98/219/98 92/218/92 84/18/84
f 91/217/91 84/18/84 92/218/92
f 92/218/92 99/220/99 91/217/91
f 85/19/85 101/228/101 100/227/100
f 100/226/100 93/221/93 85/19/85
f 90/216/90 85/19/85 93/221/93
f 99/192/99 100/226/100 95/222/95
f 88/214/88 86/26/86 94/223/94
f 94/223/94 96/224/96 88/214/88
f 86/26/86 91/217/91 99/220/99
f 99/220/99 94/223/94 86/26/86
