# fff01765_00061_0033e5cc
o fff01765_00061_0033e5cc
v 1.992707 -0.014135 0.547085
v 1.918081 -0.117721 11.537862
v -0.063439 -0.097337 11.538057
v -2.001258 -0.089008 11.538103
v -0.045868 -0.034517 4.767825
v -0.040284 -0.011122 1.581260
v -2.043853 0.014805 0.578541
v -2.036616 -0.005065 2.548837
v -0.035133 -0.031043 3.637634
v 1.991117 -0.034198 2.532528
vt 3.977387 3.008157
vt 3.978327 4.001887
vt 3.487311 4.001880
vt 3.021826 4.001873
vt 3.486934 3.500941
vt 3.486966 3.108267
vt 3.021196 3.000067
vt 3.021772 3.144391
vt 3.488868 3.326895
vt 3.979663 3.144245
vn -0.007054 -0.999934 -0.009063
vn -0.010254 -0.999904 -0.009314
vn -0.007288 -0.999930 -0.009297
vn -0.004317 -0.999948 -0.009295
vn -0.007261 -0.999937 -0.008521
vn -0.007251 -0.999927 -0.009668
vn -0.007494 -0.999931 -0.009036
vn -0.003762 -0.999944 -0.009897
vn -0.007084 -0.999966 -0.004348
vn -0.010747 -0.999893 -0.009936
g fff01765_00061_0033e5cc_e8
f 7/7/7 9/9/9 5/5/5
f 4/4/4 5/5/5 3/3/3
f 2/2/2 3/3/3 5/5/5
f 1/1/1 10/10/10 5/5/5
f 8/8/8 5/5/5 4/4/4
f 1/1/1 5/5/5 9/9/9
f 7/7/7 5/5/5 8/8/8
f 7/7/7 6/6/6 9/9/9
f 1/1/1 9/9/9 6/6/6
f 10/10/10 2/2/2 5/5/5
