# fff0a81b_00164_004a32e4
o fff0a81b_00164_004a32e4
v 6.998609 11.905585 2.197584
v 7.003788 -7.814551 2.201085
v 6.998609 11.905585 1.609430
v 7.003788 -7.814551 1.612931
v 12.956226 -12.057861 2.318772
v 12.956226 -12.057861 2.426553
v 12.956226 -11.954910 2.426553
v 12.956226 -11.954910 2.318772
v 7.041676 -7.913864 2.318772
v 6.942616 -7.820190 2.318772
v 7.041676 -7.913864 2.426553
v 6.942616 -7.820190 2.426553
v -0.679516 -7.913864 2.318780
v -0.679516 -7.820190 2.318780
v -0.679516 -7.913864 2.426560
v -0.679516 -7.820190 2.426560
v 6.942616 12.057861 2.426553
v 7.044788 12.057861 2.426553
v 7.044788 12.057861 2.318772
v -8.810925 -7.922791 0.541654
v -8.716137 -7.829849 0.541654
v -8.810925 -7.922791 0.649434
v -8.716137 -7.829849 0.649434
v -8.810925 -7.694168 0.541654
v -8.716137 -7.789291 0.541654
v -8.810925 -7.694168 0.649434
v -8.716137 -7.789291 0.649434
v -8.528759 -7.694168 0.541654
v -8.528759 -7.789291 0.541654
v -8.528759 -7.694168 0.649434
v -8.528759 -7.789291 0.649434
v -0.871532 -7.701920 -1.496364
v -0.871532 -7.797043 -1.496364
v -0.871532 -7.701920 -1.388583
v -0.871532 -7.797043 -1.388583
v -0.679516 -12.057861 2.318772
v -0.679516 -12.057861 2.426553
v -0.679516 -11.954910 2.426553
v -0.679516 -11.954910 2.318772
v -8.719372 -12.057861 0.499211
v -8.719372 -12.057861 0.606992
v -8.719372 -11.954910 0.606992
v -8.719372 -11.954910 0.499211
v -12.940319 -12.057861 0.499211
v -12.940319 -12.057861 0.606992
v -12.844250 -11.954910 0.606992
v -12.844250 -11.954910 0.499211
v -12.940319 -3.740997 0.499211
v -12.940319 -3.740997 0.606992
v -12.844250 -3.841064 0.606992
v -12.844250 -3.841064 0.499211
v -8.528759 -3.740997 0.499211
v -8.528759 -3.740997 0.606992
v -8.528759 -3.841064 0.606992
v -8.528759 -3.841064 0.499211
v -0.871532 -3.740997 -1.525096
v -0.871532 -3.740997 -1.417315
v -0.871532 -3.841064 -1.417315
v -0.871532 -3.841064 -1.525096
v 6.941126 3.260875 2.418466
v 6.941126 3.322665 2.418466
v 7.018873 3.260875 2.418466
v 7.018873 3.322665 2.418466
v 6.941126 3.322665 1.399667
v 7.018873 3.322665 1.399667
v 7.018873 3.258933 1.399667
v 6.941126 3.258933 1.399667
v 6.941126 -7.882680 2.418466
v 6.941126 -7.820889 2.418466
v 7.018873 -7.882680 2.418466
v 7.018873 -7.820889 2.418466
v 6.941126 -7.820889 1.399667
v 7.018873 -7.820889 1.399667
v 7.018873 -7.884622 1.399667
v 6.941126 -7.884622 1.399667
v 6.941126 11.907268 2.418466
v 7.018873 11.907268 2.418466
v 7.018873 11.969058 2.418466
v 7.018873 11.969058 1.399667
v 7.018873 11.905326 1.399667
v 6.941126 11.905326 1.399667
v 6.941126 -3.793126 2.418466
v 6.941126 -3.731336 2.418466
v 7.018873 -3.793126 2.418466
v 7.018873 -3.731336 2.418466
v 6.941126 -3.731336 1.399667
v 7.018873 -3.731336 1.399667
v 7.018873 -3.795068 1.399667
v 6.941126 -3.795068 1.399667
v 6.941126 -0.411229 2.418466
v 6.941126 -0.349439 2.418466
v 7.018873 -0.411229 2.418466
v 7.018873 -0.349439 2.418466
v 6.941126 -0.349439 1.399667
v 7.018873 -0.349439 1.399667
v 7.018873 -0.413171 1.399667
v 6.941126 -0.413171 1.399667
v 6.941126 6.923289 2.418466
v 6.941126 6.985080 2.418466
v 7.018873 6.923289 2.418466
v 7.018873 6.985080 2.418466
v 6.941126 6.985080 1.399667
v 7.018873 6.985080 1.399667
v 7.018873 6.921348 1.399667
v 6.941126 6.921348 1.399667
v -0.692236 -7.907170 2.418466
v -0.692236 -7.845380 2.418466
v -0.614489 -7.907170 2.418466
v -0.614489 -7.845380 2.418466
v -0.692236 -7.845380 1.399667
v -0.614489 -7.845380 1.399667
v -0.614489 -7.909112 1.399667
v -0.692236 -7.909112 1.399667
v -4.311743 -7.907170 1.582084
v -4.311743 -7.845380 1.582084
v -4.233995 -7.907170 1.582084
v -4.233995 -7.845380 1.582084
v -4.311743 -7.845380 0.563285
v -4.233995 -7.845380 0.563285
v -4.233995 -7.909112 0.563285
v -4.311743 -7.909112 0.563285
v -8.751867 -7.919606 0.574071
v -8.751867 -7.857816 0.574071
v -8.674120 -7.919606 0.574071
v -8.674120 -7.857816 0.574071
v -8.751867 -7.857816 -0.444728
v -8.674120 -7.857816 -0.444728
v -8.674120 -7.921548 -0.444728
v -8.751867 -7.921548 -0.444728
v -8.751867 -7.770162 0.574071
v -8.751867 -7.708371 0.574071
v -8.674120 -7.770162 0.574071
v -8.674120 -7.708371 0.574071
v -8.751867 -7.708371 -0.444728
v -8.674120 -7.708371 -0.444728
v -8.674120 -7.772103 -0.444728
v -8.751867 -7.772103 -0.444728
v -8.751867 -3.822515 0.574071
v -8.751867 -3.760724 0.574071
v -8.674120 -3.822515 0.574071
v -8.674120 -3.760724 0.574071
v -8.751867 -3.760724 -0.444728
v -8.674120 -3.760724 -0.444728
v -8.674120 -3.824456 -0.444728
v -8.751867 -3.824456 -0.444728
v -12.941135 -3.822515 0.574071
v -12.941135 -3.760724 0.574071
v -12.863392 -3.822515 0.574071
v -12.863392 -3.760724 0.574071
v -12.941135 -3.760724 -0.444728
v -12.863392 -3.760724 -0.444728
v -12.863392 -3.824456 -0.444728
v -12.941135 -3.824456 -0.444728
v -4.833715 -3.822515 -0.441726
v -4.833715 -3.760724 -0.441726
v -4.755968 -3.822515 -0.441726
v -4.755968 -3.760724 -0.441726
v -4.833715 -3.760724 -1.460525
v -4.755968 -3.760724 -1.460525
v -4.755968 -3.824456 -1.460525
v -4.833715 -3.824456 -1.460525
v -0.993078 -3.822515 -1.407762
v -0.993078 -3.760724 -1.407762
v -0.915331 -3.822515 -1.407762
v -0.915331 -3.760724 -1.407762
v -0.993078 -3.760724 -2.426560
v -0.915331 -3.760724 -2.426560
v -0.915331 -3.824456 -2.426560
v -0.993078 -3.824456 -2.426560
v -0.993078 -7.797429 -1.390162
v -0.993078 -7.735639 -1.390162
v -0.915331 -7.797429 -1.390162
v -0.915331 -7.735639 -1.390162
v -0.993078 -7.735639 -2.408961
v -0.915331 -7.735639 -2.408961
v -0.915331 -7.799371 -2.408961
v -0.993078 -7.799371 -2.408961
v 6.960042 11.905585 2.197584
v 6.965221 -7.814551 2.201085
v 6.960042 11.905585 1.609430
v 6.965221 -7.814551 1.612931
v 6.956348 -7.874405 2.197585
v -0.613781 -7.892410 2.201085
v 6.956348 -7.874405 1.609431
v -0.613781 -7.892410 1.612931
v 6.956348 -7.835892 2.197585
v -0.613781 -7.853836 2.201085
v 6.956348 -7.835892 1.609431
v -0.613781 -7.853836 1.612931
v 6.995106 -7.681807 2.176528
v 6.995106 -7.681807 2.114745
v 6.995106 -7.869438 2.114745
v 6.995106 -7.869438 2.178481
v 6.995106 -7.681807 1.704970
v 6.995106 -7.681807 1.643188
v 6.995106 -7.869438 1.643188
v 6.995106 -7.869438 1.706923
v 6.995106 -3.664549 2.176528
v 6.995106 -3.664549 2.114745
v 6.995106 -3.852180 2.114745
v 6.995106 -3.852180 2.178481
v 6.995106 -3.664549 1.704970
v 6.995106 -3.664549 1.643188
v 6.995106 -3.852180 1.643188
v 6.995106 -3.852180 1.706923
v 6.995106 -0.288069 2.176528
v 6.995106 -0.288069 2.114745
v 6.995106 -0.475700 2.114745
v 6.995106 -0.475700 2.178481
v 6.995106 -0.288069 1.704970
v 6.995106 -0.288069 1.643188
v 6.995106 -0.475700 1.643188
v 6.995106 -0.475700 1.706923
v 6.995106 3.391024 2.176528
v 6.995106 3.391024 2.114745
v 6.995106 3.203392 2.114745
v 6.995106 3.203392 2.178481
v 6.995106 3.391024 1.704970
v 6.995106 3.391024 1.643188
v 6.995106 3.203392 1.643188
v 6.995106 3.203392 1.706923
v 6.995106 7.043779 2.176528
v 6.995106 7.043779 2.114745
v 6.995106 6.856148 2.114745
v 6.995106 6.856148 2.178481
v 6.995106 7.043779 1.704970
v 6.995106 7.043779 1.643188
v 6.995106 6.856148 1.643188
v 6.995106 6.856148 1.706923
v 6.995106 11.938723 2.176528
v 6.995106 11.938723 2.114745
v 6.995106 11.751091 2.114745
v 6.995106 11.751091 2.178481
v 6.995106 11.938723 1.704970
v 6.995106 11.938723 1.643188
v 6.995106 11.751091 1.643188
v 6.995106 11.751091 1.706923
v 6.995472 -7.850327 2.176528
v 6.995472 -7.850327 2.114745
v 6.807850 -7.850327 2.114745
v 6.807850 -7.850327 2.178481
v 6.995472 -7.850327 1.704970
v 6.995472 -7.850327 1.643188
v 6.807850 -7.850327 1.643188
v 6.807850 -7.850327 1.706923
v -0.477734 -7.869995 2.176528
v -0.477734 -7.869995 2.114745
v -0.665356 -7.869995 2.114745
v -0.665356 -7.869995 2.178481
v -0.477734 -7.869995 1.704970
v -0.477734 -7.869995 1.643188
v -0.665356 -7.869995 1.643188
v -0.665356 -7.891251 1.706923
v -0.687328 -7.895660 2.197585
v -8.665478 -7.913116 0.345378
v -0.687328 -7.895660 1.609431
v -8.665478 -7.913116 -0.242776
v -0.687328 -7.857147 2.197585
v -8.665478 -7.874542 0.345378
v -0.687328 -7.857147 1.609431
v -8.665478 -7.874542 -0.242776
v -0.658886 -7.871582 2.176528
v -0.658886 -7.871582 2.114745
v -0.846508 -7.871582 2.066377
v -0.846508 -7.871582 2.130113
v -0.658886 -7.871582 1.704970
v -0.658886 -7.871582 1.643188
v -0.846508 -7.871582 1.594819
v -0.846508 -7.871582 1.658555
v -4.176708 -7.875916 1.366370
v -4.176708 -7.875916 1.304587
v -4.364330 -7.872711 1.255160
v -4.364330 -7.872711 1.318896
v -4.176708 -7.875916 0.894813
v -4.176708 -7.875916 0.833030
v -4.364330 -7.872711 0.783603
v -4.364330 -7.872711 0.847339
v -8.501354 -7.895279 0.357726
v -8.501354 -7.895279 0.295943
v -8.688976 -7.895279 0.246516
v -8.688976 -7.895279 0.310252
v -8.501354 -7.895279 -0.113832
v -8.501354 -7.895279 -0.175614
v -8.688976 -7.895279 -0.225041
v -8.688976 -7.895279 -0.161305
v -8.748425 -3.811493 0.354609
v -12.859020 -3.818771 0.358109
v -8.748425 -3.811493 -0.233544
v -12.859020 -3.818771 -0.230044
v -8.748425 -3.772980 0.354609
v -12.859020 -3.780197 0.358109
v -8.748425 -3.772980 -0.233544
v -12.859020 -3.780197 -0.230044
v -12.711926 -3.798935 0.333550
v -12.711926 -3.798935 0.271768
v -12.899548 -3.798935 0.271768
v -12.899548 -3.798935 0.335504
v -12.711926 -3.798935 -0.138007
v -12.711926 -3.798935 -0.199790
v -12.899548 -3.798935 -0.199790
v -12.899548 -3.798935 -0.136054
v -8.709057 -3.798935 0.333550
v -8.709057 -3.798935 0.271768
v -8.896679 -3.798935 0.271768
v -8.896679 -3.798935 0.335504
v -8.709057 -3.798935 -0.138007
v -8.709057 -3.798935 -0.199790
v -8.896679 -3.798935 -0.199790
v -8.896679 -3.798935 -0.136054
v -8.532360 -3.798935 0.283330
v -8.532360 -3.798935 0.221547
v -8.719982 -3.798935 0.271768
v -8.719982 -3.798935 0.335504
v -8.532360 -3.798935 -0.188228
v -8.532360 -3.798935 -0.250010
v -8.719982 -3.798935 -0.199790
v -8.719982 -3.798935 -0.136054
v -0.990368 -3.809601 -1.538882
v -8.680981 -3.816879 0.358109
v -0.990368 -3.809601 -2.127036
v -8.680981 -3.816879 -0.230044
v -0.990368 -3.771088 -1.538882
v -8.680981 -3.778305 0.358109
v -0.990368 -3.771088 -2.127036
v -8.680981 -3.778305 -0.230044
v -4.696545 -3.798935 -0.649922
v -4.696545 -3.798935 -0.711705
v -4.884167 -3.798935 -0.661485
v -4.884167 -3.798935 -0.597749
v -4.696545 -3.798935 -1.121480
v -4.696545 -3.798935 -1.183263
v -4.884167 -3.798935 -1.133042
v -4.884167 -3.798935 -1.069306
v -0.928967 -3.798935 -1.587537
v -0.928967 -3.798935 -1.649320
v -1.116589 -3.798935 -1.604409
v -1.116589 -3.798935 -1.540673
v -0.928967 -3.798935 -2.059094
v -0.928967 -3.798935 -2.120877
v -1.116589 -3.798935 -2.075967
v -1.116589 -3.798935 -2.012231
v 6.919261 -0.288071 1.516055
v 7.065630 -0.288071 1.516055
v 7.065630 -0.475693 1.516055
v 6.919261 -0.475693 1.516055
v 6.919261 3.386032 1.516055
v 7.065630 3.386032 1.516055
v 7.065630 3.198410 1.516055
v 6.919261 3.198410 1.516055
v 6.919261 7.045181 1.516055
v 7.065630 7.045181 1.516055
v 7.065630 6.857559 1.516055
v 6.919261 6.857559 1.516055
v 6.919261 12.015884 1.516055
v 7.065630 12.015884 1.516055
v 7.065630 11.828262 1.516055
v 6.919261 11.828262 1.516055
v 6.919261 -3.680603 1.516055
v 7.065630 -3.680603 1.516055
v 7.065630 -3.868225 1.516055
v 6.919261 -3.868225 1.516055
v 6.912730 -7.753860 1.516055
v 7.059099 -7.753860 1.516055
v 7.059099 -7.941483 1.516055
v 6.912730 -7.941483 1.516055
v -0.731129 -7.801132 1.516055
v -0.584761 -7.801132 1.516055
v -0.584761 -7.988754 1.516055
v -0.731129 -7.988754 1.516055
v -4.353382 -7.801132 0.649413
v -4.207014 -7.801132 0.685344
v -4.207014 -7.988754 0.685344
v -4.353382 -7.988754 0.649413
v -8.792225 -7.801132 -0.384408
v -8.645857 -7.801132 -0.384408
v -8.645857 -7.988754 -0.384408
v -8.792225 -7.988754 -0.384408
v -8.776112 -7.666779 -0.382281
v -8.629744 -7.666779 -0.421302
v -8.629744 -7.797409 -0.421302
v -8.776112 -7.797409 -0.382281
v -1.021984 -7.678467 -2.371377
v -0.880627 -7.678467 -2.409257
v -0.880627 -7.866089 -2.409257
v -1.021984 -7.866089 -2.371377
v -1.021984 -3.708420 -2.362117
v -0.880627 -3.708420 -2.399997
v -0.880627 -3.896042 -2.399997
v -1.021984 -3.896042 -2.362117
v -4.864758 -3.708420 -1.381200
v -4.723400 -3.708420 -1.419080
v -4.723400 -3.896042 -1.419080
v -4.864758 -3.896042 -1.381200
v -8.792225 -3.706085 -0.400027
v -8.645857 -3.706085 -0.400027
v -8.645857 -3.893707 -0.400027
v -8.792225 -3.893707 -0.400027
v -12.956226 -3.706085 -0.400027
v -12.809856 -3.706085 -0.400027
v -12.809856 -3.893707 -0.400027
v -12.956226 -3.893707 -0.400027
v 12.956226 -12.030075 2.306473
v 12.956226 -12.030075 2.149671
v -0.685986 -12.030075 2.306473
v -0.685986 -12.030075 2.149671
v -8.719128 -12.030075 0.496719
v -8.719128 -12.030075 0.339918
v -12.919567 -12.030075 0.496719
v -12.919567 -12.030075 0.339918
v -12.919567 -3.822983 0.496719
v -12.919567 -3.822983 0.339918
v -0.963696 -7.776703 -1.464338
v -0.963696 -7.776703 -1.621140
v -6.756054 -7.776703 0.071182
v -7.018688 -7.776703 0.008553
v 6.477406 -3.741013 -1.525096
v 6.477406 -3.741013 -1.417315
v 6.477406 -3.841080 -1.417315
v 6.477406 -3.841080 -1.525096
v 6.337305 -3.822515 -1.458865
v 6.337305 -3.760724 -1.458865
v 6.415052 -3.822515 -1.458865
v 6.415052 -3.760724 -1.458865
v 6.337305 -3.760724 -2.477664
v 6.415052 -3.760724 -2.477664
v 6.415052 -3.824456 -2.477664
v 6.337305 -3.824456 -2.477664
v 3.057278 -3.822515 -1.458865
v 3.057278 -3.760724 -1.458865
v 3.135021 -3.822515 -1.458865
v 3.135021 -3.760724 -1.458865
v 3.057278 -3.760724 -2.477664
v 3.135021 -3.760724 -2.477664
v 3.135021 -3.824456 -2.477664
v 3.057278 -3.824456 -2.477664
v 6.340748 -3.811493 -1.678327
v 3.139393 -3.818771 -1.674827
v 6.340748 -3.811493 -2.266480
v 3.139393 -3.818771 -2.262980
v 6.340748 -3.772980 -1.678327
v 3.139393 -3.780197 -1.674827
v 6.340748 -3.772980 -2.266480
v 3.139393 -3.780197 -2.262980
v 3.286488 -3.798935 -1.699386
v 3.286488 -3.798935 -1.761168
v 3.098866 -3.798935 -1.761168
v 3.098866 -3.798935 -1.697433
v 3.286488 -3.798935 -2.170943
v 3.286488 -3.798935 -2.232726
v 3.098866 -3.798935 -2.232726
v 3.098866 -3.798935 -2.168990
v 6.380116 -3.798935 -1.699386
v 6.380116 -3.798935 -1.761168
v 6.192493 -3.798935 -1.761168
v 6.192493 -3.798935 -1.697433
v 6.380116 -3.798935 -2.170943
v 6.380116 -3.798935 -2.232726
v 6.192493 -3.798935 -2.232726
v 6.192493 -3.798935 -2.168990
v 6.296947 -3.706085 -2.432963
v 6.443316 -3.706085 -2.432963
v 6.443316 -3.893707 -2.432963
v 6.296947 -3.893707 -2.432963
v 3.022167 -3.706085 -2.432963
v 3.188557 -3.706085 -2.432963
v 3.188557 -3.893707 -2.432963
v 3.022167 -3.893707 -2.432963
v 3.057606 -3.811493 -1.678327
v -0.914928 -3.818771 -1.674827
v 3.057606 -3.811493 -2.266480
v -0.914928 -3.818771 -2.262980
v 3.057606 -3.772980 -1.678327
v -0.914928 -3.780197 -1.674827
v 3.057606 -3.772980 -2.266480
v -0.914928 -3.780197 -2.262980
v -0.767834 -3.798935 -1.699386
v -0.767834 -3.798935 -1.761168
v -0.955456 -3.798935 -1.761168
v -0.955456 -3.798935 -1.697433
v -0.767834 -3.798935 -2.170943
v -0.767834 -3.798935 -2.232726
v -0.955456 -3.798935 -2.232726
v -0.955456 -3.798935 -2.168990
v 3.096973 -3.798935 -1.699386
v 3.096973 -3.798935 -1.761168
v 2.909351 -3.798935 -1.761168
v 2.909351 -3.798935 -1.697433
v 3.096973 -3.798935 -2.170943
v 3.096973 -3.798935 -2.232726
v 2.909351 -3.798935 -2.232726
v 2.909351 -3.798935 -2.168990
vt 0.000000 0.000000
vt 0.000000 0.000000
vt 0.000000 0.000000
vt 0.000000 0.000000
vt 0.000000 0.000000
vt 0.000000 0.000000
vt 0.000000 0.000000
vt 0.000000 0.000000
vt 0.000000 0.000000
vt 0.000000 0.000000
vt 0.000000 0.000000
vt 0.000000 0.000000
vt 0.000000 0.000000
vt 0.000000 0.000000
vt 0.000000 0.000000
vt 0.000000 0.000000
vt 0.000000 0.000000
vt 0.000000 0.000000
vt 0.000000 0.000000
vt 0.000000 0.000000
vt 0.000000 0.000000
vt 0.000000 0.000000
vt 0.000000 0.000000
vt 0.000000 0.000000
vt 0.000000 0.000000
vt 0.000000 0.000000
vt 0.000000 0.000000
vt 0.000000 0.000000
vt 0.000000 0.000000
vt 0.000000 0.000000
vt 0.000000 0.000000
vt 0.000000 0.000000
vt 0.000000 0.000000
vt 0.000000 0.000000
vt 0.000000 0.000000
vt 0.000000 0.000000
vt 0.000000 0.000000
vt 0.000000 0.000000
vt 0.000000 0.000000
vt 0.000000 0.000000
vt 0.000000 0.000000
vt 0.000000 0.000000
vt 0.000000 0.000000
vt 0.000000 0.000000
vt 0.000000 0.000000
vt 0.000000 0.000000
vt 0.000000 0.000000
vt 0.000000 0.000000
vt 0.000000 0.000000
vt 0.000000 0.000000
vt 0.000000 0.000000
vt 0.000000 0.000000
vt 0.000000 0.000000
vt 0.000000 0.000000
vt 0.000000 0.000000
vt 0.000000 0.000000
vt 0.000000 0.000000
vt 0.000000 0.000000
vt 0.000000 0.000000
vt 0.000000 0.000000
vt 0.000000 0.000000
vt 0.000000 0.000000
vt 0.000000 0.000000
vt 0.000000 0.000000
vt 0.000000 0.000000
vt 0.000000 0.000000
vt 0.000000 0.000000
vn 0.577450 -0.577131 0.577469
vn 0.577250 0.577569 0.577231
vn 0.577291 -0.577307 -0.577453
vn 0.577410 0.577394 -0.577247
vn 0.000000 -1.000000 0.000000
vn 0.000000 -0.707107 0.707107
vn 0.000000 0.707107 0.707107
vn 0.000000 1.000000 0.000000
vn 0.669224 -0.669327 -0.322708
vn -0.000001 0.550175 -0.835050
vn 0.577301 -0.577390 0.577360
vn 0.000000 0.316228 0.948683
vn 0.073609 -0.731954 -0.677366
vn 0.072643 0.732245 -0.677156
vn -0.078964 -0.683355 0.725803
vn -0.079610 0.683576 0.725524
vn 0.000000 0.000000 1.000000
vn 0.707142 -0.000110 0.707071
vn 1.000000 -0.000156 0.000000
vn -0.540770 -0.588712 -0.600821
vn 0.405047 0.166555 -0.898998
vn -0.611790 -0.569704 0.548772
vn 0.206172 0.436592 0.875717
vn -0.577350 0.577350 -0.577350
vn 0.301511 -0.301511 -0.904534
vn -0.577350 0.577350 0.577350
vn 0.301511 -0.301511 0.904534
vn -0.087149 0.737628 -0.669559
vn -0.088031 -0.737367 -0.669732
vn 0.095476 0.679141 0.727772
vn 0.094943 -0.678953 0.728017
vn 0.503089 0.564609 -0.654308
vn 0.502664 -0.565173 -0.654147
vn 0.639129 0.591930 0.491054
vn 0.638514 -0.592623 0.491017
vn 0.000000 -1.000000 0.000000
vn -0.081122 -0.682944 0.725952
vn -0.081122 0.682944 0.725952
vn 0.000000 1.000000 0.000000
vn 0.000000 -1.000000 0.000000
vn -0.075545 -0.732979 0.676044
vn -0.075545 0.732979 0.676044
vn 0.000000 1.000000 0.000000
vn 0.000000 -1.000000 0.000000
vn 0.000000 -0.707107 0.707107
vn 0.301511 0.301511 0.904534
vn 0.707107 0.707107 0.000000
vn 0.000000 1.000000 0.000000
vn 0.000000 0.707107 0.707107
vn 0.301511 -0.301511 0.904534
vn 0.707107 -0.707107 0.000000
vn 0.000000 1.000000 0.000000
vn 0.094580 0.679219 0.727816
vn 0.094580 -0.679219 0.727816
vn 0.000000 -1.000000 0.000000
vn 0.000001 0.878129 -0.478423
vn 0.087059 0.737296 0.669937
vn 0.087058 -0.737296 0.669937
vn -0.000001 -0.878129 -0.478424
vn 0.000000 -0.999998 0.001906
vn 0.000000 1.000000 0.000000
vn 0.707535 -0.706677 0.001347
vn 0.707107 0.707107 0.000000
vn 0.000000 1.000000 0.000000
vn 0.707107 0.707107 0.000000
vn 0.706678 -0.707534 0.001348
vn 0.000000 -0.999998 0.001906
vn 0.000000 -0.999998 0.001906
vn 0.000000 1.000000 0.000000
vn 0.707535 -0.706677 0.001347
vn 0.707107 0.707107 0.000000
vn 0.000000 1.000000 0.000000
vn 0.707107 0.707107 0.000000
vn 0.706678 -0.707534 0.001348
vn 0.000000 -0.999998 0.001906
vn 0.000000 -0.999998 0.001906
vn 0.707535 -0.706677 0.001347
vn 1.000000 0.000000 0.000000
vn 1.000000 0.000000 0.000000
vn 0.706678 -0.707534 0.001348
vn 0.000000 -0.999998 0.001906
vn 0.000000 -0.999998 0.001906
vn 0.000000 1.000000 0.000000
vn 0.707535 -0.706677 0.001347
vn 0.707107 0.707107 0.000000
vn 0.000000 1.000000 0.000000
vn 0.707107 0.707107 0.000000
vn 0.706678 -0.707534 0.001348
vn 0.000000 -0.999998 0.001906
vn 0.000000 -0.999998 0.001906
vn 0.000000 1.000000 0.000000
vn 0.707535 -0.706677 0.001347
vn 0.707107 0.707107 0.000000
vn 0.000000 1.000000 0.000000
vn 0.707107 0.707107 0.000000
vn 0.706678 -0.707534 0.001348
vn 0.000000 -0.999998 0.001906
vn 0.000000 -0.999998 0.001906
vn 0.000000 1.000000 0.000000
vn 0.707535 -0.706677 0.001347
vn 0.707107 0.707107 0.000000
vn 0.000000 1.000000 0.000000
vn 0.707107 0.707107 0.000000
vn 0.706678 -0.707534 0.001348
vn 0.000000 -0.999998 0.001906
vn 0.000000 -0.999998 0.001906
vn 0.000000 1.000000 0.000000
vn 0.707535 -0.706677 0.001347
vn 0.707107 0.707107 0.000000
vn 0.000000 1.000000 0.000000
vn 0.707107 0.707107 0.000000
vn 0.706678 -0.707534 0.001348
vn 0.000000 -0.999998 0.001906
vn 0.000000 -0.999998 0.001906
vn 0.000000 1.000000 0.000000
vn 0.707535 -0.706677 0.001347
vn 0.707107 0.707107 0.000000
vn 0.000000 1.000000 0.000000
vn 0.707107 0.707107 0.000000
vn 0.706678 -0.707534 0.001348
vn 0.000000 -0.999998 0.001906
vn 0.000000 -0.999998 0.001906
vn 0.000000 1.000000 0.000000
vn 0.707535 -0.706677 0.001347
vn 0.707107 0.707107 0.000000
vn 0.000000 1.000000 0.000000
vn 0.707107 0.707107 0.000000
vn 0.706678 -0.707534 0.001348
vn 0.000000 -0.999998 0.001906
vn 0.000000 -0.999998 0.001906
vn 0.000000 1.000000 0.000000
vn 0.707535 -0.706677 0.001347
vn 0.707107 0.707107 0.000000
vn 0.000000 1.000000 0.000000
vn 0.707107 0.707107 0.000000
vn 0.706678 -0.707534 0.001348
vn 0.000000 -0.999998 0.001906
vn 0.000000 -0.999998 0.001906
vn 0.000000 1.000000 0.000000
vn 0.707535 -0.706677 0.001347
vn 0.707107 0.707107 0.000000
vn 0.000000 1.000000 0.000000
vn 0.707107 0.707107 0.000000
vn 0.706678 -0.707534 0.001348
vn 0.000000 -0.999998 0.001906
vn 0.000000 -0.999998 0.001906
vn 0.000000 1.000000 0.000000
vn 0.707535 -0.706677 0.001347
vn 0.707107 0.707106 0.000000
vn 0.000000 1.000000 0.000000
vn 0.707107 0.707107 0.000000
vn 0.706678 -0.707534 0.001348
vn 0.000000 -0.999998 0.001906
vn 0.000000 -0.999998 0.001906
vn 0.000000 1.000000 0.000000
vn 0.707535 -0.706677 0.001347
vn 0.707107 0.707107 0.000000
vn 0.000000 1.000000 0.000000
vn 0.707107 0.707107 0.000000
vn 0.706678 -0.707534 0.001348
vn 0.000000 -0.999998 0.001906
vn 0.000000 -0.999998 0.001906
vn 0.000000 1.000000 0.000000
vn 0.707535 -0.706677 0.001347
vn 0.707107 0.707107 0.000000
vn 0.000000 1.000000 0.000000
vn 0.707107 0.707107 0.000000
vn 0.706678 -0.707534 0.001348
vn 0.000000 -0.999998 0.001906
vn 0.000000 -0.999998 0.001906
vn 0.000000 1.000000 0.000000
vn 0.707535 -0.706677 0.001347
vn 0.707107 0.707107 0.000000
vn 0.000000 1.000000 0.000000
vn 0.707107 0.707107 0.000000
vn 0.706678 -0.707534 0.001348
vn 0.000000 -0.999998 0.001906
vn 0.000000 -0.707096 0.707118
vn 0.000000 0.707118 0.707096
vn 0.000000 -0.707229 -0.706984
vn 0.000000 0.706984 -0.707229
vn -0.575909 -0.577718 0.578421
vn 0.578789 -0.576979 0.576280
vn -0.576378 -0.577312 -0.578359
vn 0.578323 -0.577385 -0.576342
vn -0.578317 0.577383 0.576349
vn 0.576384 0.577313 0.578352
vn -0.578786 0.576980 -0.576282
vn 0.575912 0.577717 -0.578419
vn 1.000000 0.000000 0.000000
vn 1.000000 0.000000 0.000000
vn 1.000000 0.000000 0.000000
vn 1.000000 0.000000 0.000000
vn 1.000000 0.000000 0.000000
vn 1.000000 0.000000 0.000000
vn 1.000000 0.000000 0.000000
vn 1.000000 0.000000 0.000000
vn 1.000000 0.000000 0.000000
vn 1.000000 0.000000 0.000000
vn 1.000000 0.000000 0.000000
vn 1.000000 0.000000 0.000000
vn 1.000000 0.000000 0.000000
vn 1.000000 0.000000 0.000000
vn 1.000000 0.000000 0.000000
vn 1.000000 0.000000 0.000000
vn 1.000000 0.000000 0.000000
vn 1.000000 0.000000 0.000000
vn 1.000000 0.000000 0.000000
vn 1.000000 0.000000 0.000000
vn 1.000000 0.000000 0.000000
vn 1.000000 0.000000 0.000000
vn 1.000000 0.000000 0.000000
vn 1.000000 0.000000 0.000000
vn 1.000000 0.000000 0.000000
vn 1.000000 0.000000 0.000000
vn 1.000000 0.000000 0.000000
vn 1.000000 0.000000 0.000000
vn 1.000000 0.000000 0.000000
vn 1.000000 0.000000 0.000000
vn 1.000000 0.000000 0.000000
vn 1.000000 0.000000 0.000000
vn 1.000000 0.000000 0.000000
vn 1.000000 0.000000 0.000000
vn 1.000000 0.000000 0.000000
vn 1.000000 0.000000 0.000000
vn 1.000000 0.000000 0.000000
vn 1.000000 0.000000 0.000000
vn 1.000000 0.000000 0.000000
vn 1.000000 0.000000 0.000000
vn 1.000000 0.000000 0.000000
vn 1.000000 0.000000 0.000000
vn 1.000000 0.000000 0.000000
vn 1.000000 0.000000 0.000000
vn 1.000000 0.000000 0.000000
vn 1.000000 0.000000 0.000000
vn 1.000000 0.000000 0.000000
vn 1.000000 0.000000 0.000000
vn 0.000000 -1.000000 0.000000
vn 0.000000 -1.000000 0.000000
vn 0.000000 -1.000000 0.000000
vn 0.000000 -1.000000 0.000000
vn 0.000000 -1.000000 0.000000
vn 0.000000 -1.000000 0.000000
vn 0.000000 -1.000000 0.000000
vn 0.000000 -1.000000 0.000000
vn 0.000000 -1.000000 0.000000
vn 0.000000 -1.000000 0.000000
vn 0.000000 -1.000000 0.000000
vn 0.000000 -1.000000 0.000000
vn 0.022678 -0.997368 -0.068870
vn 0.000000 -1.000000 0.000000
vn 0.083615 -0.963604 -0.253922
vn 0.103616 -0.943532 -0.314661
vn -0.686531 -0.479207 0.546842
vn 0.459170 -0.677062 0.575109
vn -0.456125 -0.677481 -0.577035
vn 0.688013 -0.479020 -0.545140
vn -0.688010 0.479018 0.545146
vn 0.456132 0.677482 0.577028
vn -0.459165 0.677063 -0.575112
vn 0.686534 0.479206 -0.546839
vn 0.000000 -1.000000 0.000000
vn 0.000000 -1.000000 0.000000
vn 0.000000 -1.000000 0.000000
vn 0.000000 -1.000000 0.000000
vn 0.000000 -1.000000 0.000000
vn 0.000000 -1.000000 0.000000
vn 0.000000 -1.000000 0.000000
vn 0.000000 -1.000000 0.000000
vn -0.017076 -0.999854 0.000000
vn -0.017076 -0.999854 0.000000
vn -0.017076 -0.999854 0.000000
vn -0.017076 -0.999854 0.000000
vn -0.017076 -0.999854 0.000000
vn -0.017076 -0.999854 0.000000
vn -0.017076 -0.999854 0.000000
vn -0.017076 -0.999854 0.000000
vn 0.000000 -1.000000 0.000000
vn 0.000000 -1.000000 0.000000
vn 0.000000 -1.000000 0.000000
vn 0.000000 -1.000000 0.000000
vn 0.000000 -1.000000 0.000000
vn 0.000000 -1.000000 0.000000
vn 0.000000 -1.000000 0.000000
vn 0.000000 -1.000000 0.000000
vn -0.576018 -0.577846 0.578185
vn 0.578679 -0.576853 0.576516
vn -0.576885 -0.577101 -0.578064
vn 0.577817 -0.577597 -0.576636
vn -0.577810 0.577599 0.576640
vn 0.576892 0.577099 0.578060
vn -0.578670 0.576852 -0.576526
vn 0.576028 0.577847 -0.578174
vn 0.000000 -1.000000 0.000000
vn 0.000000 -1.000000 0.000000
vn 0.000000 -1.000000 0.000000
vn 0.000000 -1.000000 0.000000
vn 0.000000 -1.000000 0.000000
vn 0.000000 -1.000000 0.000000
vn 0.000000 -1.000000 0.000000
vn 0.000000 -1.000000 0.000000
vn 0.000000 -1.000000 0.000000
vn 0.000000 -1.000000 0.000000
vn 0.000000 -1.000000 0.000000
vn 0.000000 -1.000000 0.000000
vn 0.000000 -1.000000 0.000000
vn 0.000000 -1.000000 0.000000
vn 0.000000 -1.000000 0.000000
vn 0.000000 -1.000000 0.000000
vn 0.000000 -1.000000 0.000000
vn 0.000000 -1.000000 0.000000
vn 0.000000 -1.000000 0.000000
vn 0.000000 -1.000000 0.000000
vn 0.000000 -1.000000 0.000000
vn 0.000000 -1.000000 0.000000
vn 0.000000 -1.000000 0.000000
vn 0.000000 -1.000000 0.000000
vn -0.449612 -0.683320 0.575259
vn 0.693773 -0.473300 0.542831
vn -0.693150 -0.473379 -0.543559
vn 0.450950 -0.683136 -0.574430
vn -0.450943 0.683136 0.574435
vn 0.693153 0.473380 0.543554
vn -0.693771 0.473302 -0.542832
vn 0.449616 0.683318 -0.575258
vn 0.000000 -1.000000 0.000000
vn 0.000000 -1.000000 0.000000
vn 0.000000 -1.000000 0.000000
vn 0.000000 -1.000000 0.000000
vn 0.000000 -1.000000 0.000000
vn 0.000000 -1.000000 0.000000
vn 0.000000 -1.000000 0.000000
vn 0.000000 -1.000000 0.000000
vn 0.000000 -1.000000 0.000000
vn 0.000000 -1.000000 0.000000
vn 0.000000 -1.000000 0.000000
vn 0.000000 -1.000000 0.000000
vn 0.000000 -1.000000 0.000000
vn 0.000000 -1.000000 0.000000
vn 0.000000 -1.000000 0.000000
vn 0.000000 -1.000000 0.000000
vn 0.000000 0.000000 1.000000
vn 0.000000 0.000000 1.000000
vn 0.000000 0.000000 1.000000
vn 0.000000 0.000000 1.000000
vn 0.000000 0.000000 1.000000
vn 0.000000 0.000000 1.000000
vn 0.000000 0.000000 1.000000
vn 0.000000 0.000000 1.000000
vn 0.000000 0.000000 1.000000
vn 0.000000 0.000000 1.000000
vn 0.000000 0.000000 1.000000
vn 0.000000 0.000000 1.000000
vn 0.000000 0.000000 1.000000
vn 0.000000 0.000000 1.000000
vn 0.000000 0.000000 1.000000
vn 0.000000 0.000000 1.000000
vn 0.000000 0.000000 1.000000
vn 0.000000 0.000000 1.000000
vn 0.000000 0.000000 1.000000
vn 0.000000 0.000000 1.000000
vn 0.000000 0.000000 1.000000
vn 0.000000 0.000000 1.000000
vn 0.000000 0.000000 1.000000
vn 0.000000 0.000000 1.000000
vn 0.000000 0.000000 1.000000
vn 0.000000 0.000000 1.000000
vn 0.000000 0.000000 1.000000
vn 0.000000 0.000000 1.000000
vn -0.238403 0.000000 0.971166
vn -0.238403 0.000000 0.971166
vn -0.238403 0.000000 0.971166
vn -0.238403 0.000000 0.971166
vn 0.000000 0.000000 1.000000
vn 0.000000 0.000000 1.000000
vn 0.000000 0.000000 1.000000
vn 0.000000 0.000000 1.000000
vn 0.257595 0.000000 0.966253
vn 0.257595 0.000000 0.966253
vn 0.257595 0.000000 0.966253
vn 0.257595 0.000000 0.966253
vn 0.258840 0.000000 0.965920
vn 0.258840 0.000000 0.965920
vn 0.258840 0.000000 0.965920
vn 0.258840 0.000000 0.965920
vn 0.258840 0.000000 0.965920
vn 0.258840 0.000000 0.965920
vn 0.258840 0.000000 0.965920
vn 0.258840 0.000000 0.965920
vn 0.258840 0.000000 0.965920
vn 0.258840 0.000000 0.965920
vn 0.258840 0.000000 0.965920
vn 0.258840 0.000000 0.965920
vn 0.000000 0.000000 1.000000
vn 0.000000 0.000000 1.000000
vn 0.000000 0.000000 1.000000
vn 0.000000 0.000000 1.000000
vn 0.000000 0.000000 1.000000
vn 0.000000 0.000000 1.000000
vn 0.000000 0.000000 1.000000
vn 0.000000 0.000000 1.000000
vn 0.000000 1.000000 0.000000
vn 0.000000 1.000000 0.000000
vn 0.000000 1.000000 0.000000
vn 0.000000 1.000000 0.000000
vn 0.000000 1.000000 0.000000
vn 0.000000 1.000000 0.000000
vn 0.707107 0.707107 0.000000
vn 0.707107 0.707107 0.000000
vn 1.000000 0.000000 0.000000
vn 1.000000 0.000000 0.000000
vn 0.000000 1.000000 0.000000
vn 0.000000 1.000000 0.000000
vn 0.000000 1.000000 0.000000
vn 0.000000 1.000000 0.000000
vn 0.577351 0.577350 -0.577350
vn 0.577351 0.577350 0.577350
vn 0.577350 -0.577351 0.577350
vn 0.577350 -0.577351 -0.577350
vn 0.000000 -0.999998 0.001906
vn 0.000000 1.000000 0.000000
vn 0.707535 -0.706677 0.001347
vn 0.707107 0.707107 0.000000
vn 0.000000 1.000000 0.000000
vn 0.707107 0.707107 0.000000
vn 0.706678 -0.707534 0.001348
vn 0.000000 -0.999998 0.001906
vn 0.000000 -0.999998 0.001906
vn 0.000000 1.000000 0.000000
vn 0.707535 -0.706677 0.001347
vn 0.707107 0.707106 0.000000
vn 0.000000 1.000000 0.000000
vn 0.707107 0.707107 0.000000
vn 0.706678 -0.707534 0.001348
vn 0.000000 -0.999998 0.001906
vn -0.575639 -0.577985 0.578423
vn 0.579057 -0.576712 0.576278
vn -0.576753 -0.577029 -0.578268
vn 0.577950 -0.577668 -0.576432
vn -0.577941 0.577670 0.576439
vn 0.576762 0.577027 0.578261
vn -0.579046 0.576713 -0.576288
vn 0.575649 0.577985 -0.578413
vn 0.000000 -1.000000 0.000000
vn 0.000000 -1.000000 0.000000
vn 0.000000 -1.000000 0.000000
vn 0.000000 -1.000000 0.000000
vn 0.000000 -1.000000 0.000000
vn 0.000000 -1.000000 0.000000
vn 0.000000 -1.000000 0.000000
vn 0.000000 -1.000000 0.000000
vn 0.000000 -1.000000 0.000000
vn 0.000000 -1.000000 0.000000
vn 0.000000 -1.000000 0.000000
vn 0.000000 -1.000000 0.000000
vn 0.000000 -1.000000 0.000000
vn 0.000000 -1.000000 0.000000
vn 0.000000 -1.000000 0.000000
vn 0.000000 -1.000000 0.000000
vn 0.000000 0.000000 1.000000
vn 0.000000 0.000000 1.000000
vn 0.000000 0.000000 1.000000
vn 0.000000 0.000000 1.000000
vn 0.000000 0.000000 1.000000
vn 0.000000 0.000000 1.000000
vn 0.000000 0.000000 1.000000
vn 0.000000 0.000000 1.000000
vn -0.575972 -0.577863 0.578214
vn 0.578725 -0.576836 0.576487
vn -0.576869 -0.577092 -0.578089
vn 0.577833 -0.577606 -0.576611
vn -0.577826 0.577608 0.576616
vn 0.576876 0.577090 0.578084
vn -0.578717 0.576836 -0.576496
vn 0.575981 0.577863 -0.578205
vn 0.000000 -1.000000 0.000000
vn 0.000000 -1.000000 0.000000
vn 0.000000 -1.000000 0.000000
vn 0.000000 -1.000000 0.000000
vn 0.000000 -1.000000 0.000000
vn 0.000000 -1.000000 0.000000
vn 0.000000 -1.000000 0.000000
vn 0.000000 -1.000000 0.000000
vn 0.000000 -1.000000 0.000000
vn 0.000000 -1.000000 0.000000
vn 0.000000 -1.000000 0.000000
vn 0.000000 -1.000000 0.000000
vn 0.000000 -1.000000 0.000000
vn 0.000000 -1.000000 0.000000
vn 0.000000 -1.000000 0.000000
vn 0.000000 -1.000000 0.000000
g fff0a81b_00164_004a32e4_e0
f 400/14/400 398/7/398 401/15/401
f 399/8/399 398/7/398 400/14/400
f 396/14/396 394/7/394 397/15/397
f 395/8/395 394/7/394 396/14/396
f 392/14/392 390/7/390 393/15/393
f 391/8/391 390/7/390 392/14/392
f 388/14/388 386/7/386 389/15/389
f 387/8/387 386/7/386 388/14/388
f 127/14/127 124/7/124 128/15/128
f 125/8/125 124/7/124 127/14/127
f 119/14/119 116/7/116 120/15/120
f 117/8/117 116/7/116 119/14/119
f 31/28/31 30/26/30 26/22/26
f 26/22/26 27/24/27 31/28/31
f 27/24/27 26/22/26 22/18/22
f 22/18/22 23/20/23 27/24/27
f 12/8/12 11/7/11 17/14/17
f 17/14/17 11/7/11 18/15/18
f 16/12/16 15/10/15 11/7/11
f 11/7/11 12/8/12 16/12/16
f 6/14/6 7/15/7 38/35/38
f 38/35/38 37/34/37 6/14/6
f 37/34/37 38/35/38 42/39/42
f 42/39/42 41/38/41 37/34/37
f 41/38/41 42/39/42 46/43/46
f 46/43/46 45/42/45 41/38/41
f 45/42/45 46/43/46 50/47/50
f 50/47/50 49/46/49 45/42/45
f 49/46/49 50/47/50 54/51/54
f 54/51/54 53/50/53 49/46/49
f 53/50/53 54/51/54 58/55/58
f 58/55/58 57/54/57 53/50/53
f 384/14/384 382/7/382 385/15/385
f 383/8/383 382/7/382 384/14/384
f 380/14/380 378/7/378 381/15/381
f 379/8/379 378/7/378 380/14/380
f 376/14/376 374/7/374 377/15/377
f 375/8/375 374/7/374 376/14/376
f 372/14/372 370/7/370 373/15/373
f 371/8/371 370/7/370 372/14/372
f 368/14/368 366/7/366 369/15/369
f 367/8/367 366/7/366 368/14/368
f 23/20/23 22/18/22 15/10/15
f 15/10/15 16/12/16 23/20/23
f 111/14/111 108/7/108 112/15/112
f 109/8/109 108/7/108 111/14/111
f 30/26/30 31/28/31 35/32/35
f 35/32/35 34/30/34 30/26/30
f 141/8/141 140/7/140 143/14/143
f 143/14/143 140/7/140 144/15/144
f 135/14/135 132/7/132 136/15/136
f 133/8/133 132/7/132 135/14/135
f 167/14/167 164/7/164 168/15/168
f 165/8/165 164/7/164 167/14/167
f 159/14/159 156/7/156 160/15/160
f 157/8/157 156/7/156 159/14/159
f 151/14/151 148/7/148 152/15/152
f 149/8/149 148/7/148 151/14/151
f 173/8/173 172/7/172 175/14/175
f 175/14/175 172/7/172 176/15/176
f 343/8/343 342/7/342 344/14/344
f 344/14/344 342/7/342 345/15/345
f 347/8/347 346/7/346 348/14/348
f 348/14/348 346/7/346 349/15/349
f 351/8/351 350/7/350 352/14/352
f 352/14/352 350/7/350 353/15/353
f 355/8/355 354/7/354 356/14/356
f 356/14/356 354/7/354 357/15/357
f 359/8/359 358/7/358 360/14/360
f 360/14/360 358/7/358 361/15/361
f 363/8/363 362/7/362 364/14/364
f 364/14/364 362/7/362 365/15/365
f 466/14/466 464/7/464 467/15/467
f 465/8/465 464/7/464 466/14/466
f 462/14/462 460/7/460 463/15/463
f 461/8/461 460/7/460 462/14/462
f 423/8/423 422/7/422 425/14/425
f 425/14/425 422/7/422 426/15/426
f 433/14/433 430/7/430 434/15/434
f 431/8/431 430/7/430 433/14/433
f 57/1/57 58/1/58 418/67/418
f 418/67/418 417/67/417 57/1/57
g fff0a81b_00164_004a32e4_e1
f 271/8/271 270/7/270 272/14/272
f 272/14/272 270/7/270 273/15/273
f 275/8/275 274/7/274 276/14/276
f 276/14/276 274/7/274 277/15/277
f 295/8/295 294/7/294 296/14/296
f 296/14/296 294/7/294 297/15/297
f 299/8/299 298/7/298 300/14/300
f 300/14/300 298/7/298 301/15/301
f 303/8/303 302/7/302 304/14/304
f 304/14/304 302/7/302 305/15/305
f 307/8/307 306/7/306 308/14/308
f 308/14/308 306/7/306 309/15/309
f 236/14/236 234/7/234 237/15/237
f 235/8/235 234/7/234 236/14/236
f 232/14/232 230/7/230 233/15/233
f 231/8/231 230/7/230 232/14/232
f 228/14/228 226/7/226 229/15/229
f 227/8/227 226/7/226 228/14/228
f 224/14/224 222/7/222 225/15/225
f 223/8/223 222/7/222 224/14/224
f 212/14/212 210/7/210 213/15/213
f 211/8/211 210/7/210 212/14/212
f 208/14/208 206/7/206 209/15/209
f 207/8/207 206/7/206 208/14/208
f 215/8/215 214/7/214 216/14/216
f 216/14/216 214/7/214 217/15/217
f 219/8/219 218/7/218 220/14/220
f 220/14/220 218/7/218 221/15/221
f 204/14/204 202/7/202 205/15/205
f 203/8/203 202/7/202 204/14/204
f 200/14/200 198/7/198 201/15/201
f 199/8/199 198/7/198 200/14/200
f 196/14/196 194/7/194 197/15/197
f 195/8/195 194/7/194 196/14/196
f 192/14/192 190/7/190 193/15/193
f 191/8/191 190/7/190 192/14/192
f 417/67/417 419/67/419 416/67/416
f 419/67/419 417/67/417 418/67/418
f 176/15/176 172/7/172 170/1/170
f 177/16/177 176/15/176 170/1/170
f 34/30/34 35/32/35 33/31/33
f 33/31/33 32/29/32 34/30/34
f 66/15/66 62/7/62 60/1/60
f 14/11/14 16/12/16 12/8/12
f 12/8/12 10/3/10 14/11/14
f 67/16/67 66/15/66 60/1/60
f 13/9/13 14/11/14 10/3/10
f 174/13/174 171/3/171 173/8/173
f 175/14/175 174/13/174 173/8/173
f 10/3/10 9/1/9 13/9/13
f 267/8/267 266/7/266 268/14/268
f 268/14/268 266/7/266 269/15/269
f 14/11/14 13/9/13 20/17/20
f 20/17/20 21/19/21 14/11/14
f 16/12/16 14/11/14 21/19/21
f 21/19/21 23/20/23 16/12/16
f 135/14/135 134/13/134 133/8/133
f 134/13/134 131/3/131 133/8/133
f 20/17/20 22/18/22 26/22/26
f 26/22/26 24/21/24 20/17/20
f 21/19/21 20/17/20 24/21/24
f 24/21/24 25/23/25 21/19/21
f 23/20/23 21/19/21 25/23/25
f 25/23/25 27/24/27 23/20/23
f 137/16/137 136/15/136 130/1/130
f 136/15/136 132/7/132 130/1/130
f 24/21/24 26/22/26 30/26/30
f 30/26/30 28/25/28 24/21/24
f 25/23/25 24/21/24 28/25/28
f 28/25/28 29/27/29 25/23/25
f 27/24/27 25/23/25 29/27/29
f 29/27/29 31/28/31 27/24/27
f 127/14/127 126/13/126 125/8/125
f 126/13/126 123/3/123 125/8/125
f 28/25/28 30/26/30 34/30/34
f 34/30/34 32/29/32 28/25/28
f 29/27/29 28/25/28 32/29/32
f 32/29/32 33/31/33 29/27/29
f 31/28/31 29/27/29 33/31/33
f 33/31/33 35/32/35 31/28/31
f 129/16/129 128/15/128 122/1/122
f 128/15/128 124/7/124 122/1/122
f 5/13/5 6/14/6 37/34/37
f 37/34/37 36/33/36 5/13/5
f 36/33/36 37/34/37 41/38/41
f 41/38/41 40/37/40 36/33/36
f 40/37/40 41/38/41 45/42/45
f 45/42/45 44/41/44 40/37/40
f 119/14/119 118/13/118 117/8/117
f 118/13/118 115/3/115 117/8/117
f 48/45/48 49/46/49 53/50/53
f 53/50/53 52/49/52 48/45/48
f 52/49/52 53/50/53 57/54/57
f 57/54/57 56/53/56 52/49/52
f 64/13/64 61/3/61 63/8/63
f 65/14/65 64/13/64 63/8/63
f 74/15/74 70/7/70 68/1/68
f 75/16/75 74/15/74 68/1/68
f 72/13/72 69/3/69 71/8/71
f 73/14/73 72/13/72 71/8/71
f 80/15/80 77/7/77 76/1/76
f 81/16/81 80/15/80 76/1/76
f 168/15/168 164/7/164 162/1/162
f 169/16/169 168/15/168 162/1/162
f 166/13/166 163/3/163 165/8/165
f 167/14/167 166/13/166 165/8/165
f 160/15/160 156/7/156 154/1/154
f 161/16/161 160/15/160 154/1/154
f 158/13/158 155/3/155 157/8/157
f 159/14/159 158/13/158 157/8/157
f 152/15/152 148/7/148 146/1/146
f 153/16/153 152/15/152 146/1/146
f 150/13/150 147/3/147 149/8/149
f 151/14/151 150/13/150 149/8/149
f 279/8/279 278/7/278 280/14/280
f 280/14/280 278/7/278 281/15/281
f 283/8/283 282/7/282 284/14/284
f 284/14/284 282/7/282 285/15/285
f 144/15/144 140/7/140 138/1/138
f 145/16/145 144/15/144 138/1/138
f 248/14/248 246/7/246 249/15/249
f 251/8/251 250/7/250 252/14/252
f 252/14/252 250/7/250 253/15/253
f 263/8/263 262/7/262 264/14/264
f 247/8/247 246/7/246 248/14/248
f 264/14/264 262/7/262 265/15/265
f 340/14/340 338/7/338 341/15/341
f 339/8/339 338/7/338 340/14/340
f 336/14/336 334/7/334 337/15/337
f 335/8/335 334/7/334 336/14/336
f 244/14/244 242/7/242 245/15/245
f 243/8/243 242/7/242 244/14/244
f 240/14/240 238/7/238 241/15/241
f 239/8/239 238/7/238 240/14/240
f 332/14/332 330/7/330 333/15/333
f 331/8/331 330/7/330 332/14/332
f 328/14/328 326/7/326 329/15/329
f 327/8/327 326/7/326 328/14/328
f 316/14/316 314/7/314 317/15/317
f 315/8/315 314/7/314 316/14/316
f 312/14/312 310/7/310 313/15/313
f 311/8/311 310/7/310 312/14/312
f 88/15/88 84/7/84 82/1/82
f 89/16/89 88/15/88 82/1/82
f 86/13/86 83/3/83 85/8/85
f 87/14/87 86/13/86 85/8/85
f 96/15/96 92/7/92 90/1/90
f 97/16/97 96/15/96 90/1/90
f 94/13/94 91/3/91 93/8/93
f 95/14/95 94/13/94 93/8/93
f 104/15/104 100/7/100 98/1/98
f 105/16/105 104/15/104 98/1/98
f 102/13/102 99/3/99 101/8/101
f 103/14/103 102/13/102 101/8/101
f 112/15/112 108/7/108 106/1/106
f 113/16/113 112/15/112 106/1/106
f 110/13/110 107/3/107 109/8/109
f 111/14/111 110/13/110 109/8/109
f 120/15/120 116/7/116 114/1/114
f 121/16/121 120/15/120 114/1/114
f 143/14/143 142/13/142 141/8/141
f 142/13/142 139/3/139 141/8/141
f 56/1/56 57/1/57 417/67/417
f 417/67/417 416/67/416 56/1/56
f 59/1/59 56/1/56 416/67/416
f 416/67/416 419/67/419 59/1/59
f 490/14/490 488/7/488 491/15/491
f 489/8/489 488/7/488 490/14/490
f 58/1/58 59/1/59 419/67/419
f 419/67/419 418/67/418 58/1/58
f 445/8/445 444/7/444 446/14/446
f 446/14/446 444/7/444 447/15/447
f 449/8/449 448/7/448 450/14/450
f 450/14/450 448/7/448 451/15/451
f 453/8/453 452/7/452 454/14/454
f 454/14/454 452/7/452 455/15/455
f 457/8/457 456/7/456 458/14/458
f 458/14/458 456/7/456 459/15/459
f 434/15/434 430/7/430 428/1/428
f 435/16/435 434/15/434 428/1/428
f 432/13/432 429/3/429 431/8/431
f 433/14/433 432/13/432 431/8/431
f 426/15/426 422/7/422 420/1/420
f 427/16/427 426/15/426 420/1/420
f 425/14/425 424/13/424 423/8/423
f 424/13/424 421/3/421 423/8/423
f 477/8/477 476/7/476 478/14/478
f 478/14/478 476/7/476 479/15/479
f 481/8/481 480/7/480 482/14/482
f 482/14/482 480/7/480 483/15/483
f 485/8/485 484/7/484 486/14/486
f 486/14/486 484/7/484 487/15/487
g fff0a81b_00164_004a32e4_e7
f 22/18/22 20/17/20 13/9/13
f 13/9/13 15/10/15 22/18/22
f 79/14/79 77/7/77 80/15/80
f 78/8/78 77/7/77 79/14/79
f 87/14/87 84/7/84 88/15/88
f 85/8/85 84/7/84 87/14/87
f 103/14/103 100/7/100 104/15/104
f 101/8/101 100/7/100 103/14/103
f 15/10/15 13/9/13 9/1/9
f 9/1/9 11/7/11 15/10/15
f 7/15/7 8/16/8 39/36/39
f 39/36/39 38/35/38 7/15/7
f 38/35/38 39/36/39 43/40/43
f 43/40/43 42/39/42 38/35/38
f 42/39/42 43/40/43 47/44/47
f 47/44/47 46/43/46 42/39/42
f 46/43/46 47/44/47 51/48/51
f 51/48/51 50/47/50 46/43/46
f 50/47/50 51/48/51 55/52/55
f 55/52/55 54/51/54 50/47/50
f 54/51/54 55/52/55 59/56/59
f 59/56/59 58/55/58 54/51/54
f 93/8/93 92/7/92 95/14/95
f 95/14/95 92/7/92 96/15/96
f 73/14/73 70/7/70 74/15/74
f 71/8/71 70/7/70 73/14/73
f 65/14/65 62/7/62 66/15/66
f 63/8/63 62/7/62 65/14/65
f 18/15/18 11/7/11 9/1/9
f 19/16/19 18/15/18 9/1/9
g fff0a81b_00164_004a32e4_e2
f 4/1/4 3/1/3 2/1/2
f 1/1/1 2/1/2 3/1/3
f 325/60/325 322/57/322 324/59/324
f 322/57/322 325/60/325 323/58/323
f 254/1/254 255/1/255 256/1/256
f 257/1/257 256/1/256 255/1/255
f 258/57/258 261/60/261 259/58/259
f 261/60/261 258/57/258 260/59/260
f 182/1/182 183/1/183 184/1/184
f 185/1/185 184/1/184 183/1/183
f 186/57/186 189/60/189 187/58/187
f 189/60/189 186/57/186 188/59/188
f 289/1/289 288/1/288 287/1/287
f 286/1/286 287/1/287 288/1/288
f 290/57/290 293/60/293 291/58/291
f 293/60/293 290/57/290 292/59/292
f 321/1/321 320/1/320 319/1/319
f 318/1/318 319/1/319 320/1/320
f 439/1/439 438/1/438 437/1/437
f 436/1/436 437/1/437 438/1/438
f 440/57/440 443/60/443 441/58/441
f 443/60/443 440/57/440 442/59/442
f 471/1/471 470/1/470 469/1/469
f 468/1/468 469/1/469 470/1/470
f 472/57/472 475/60/475 473/58/473
f 475/60/475 472/57/472 474/59/474
g fff0a81b_00164_004a32e4_e8
f 1/2/1 179/58/179 2/4/2
f 179/58/179 1/2/1 178/57/178
f 180/59/180 4/6/4 181/60/181
f 4/6/4 180/59/180 3/5/3
f 178/57/178 180/59/180 3/5/3
f 3/5/3 1/2/1 178/57/178
f 2/4/2 4/6/4 181/60/181
f 181/60/181 179/58/179 2/4/2
f 189/60/189 187/58/187 183/4/183
f 183/4/183 185/6/185 189/60/189
f 184/5/184 182/2/182 186/57/186
f 186/57/186 188/59/188 184/5/184
f 185/6/185 188/59/188 184/5/184
f 188/59/188 185/6/185 189/60/189
f 187/58/187 182/2/182 186/57/186
f 182/2/182 187/58/187 183/4/183
f 321/6/321 324/59/324 320/5/320
f 324/59/324 321/6/321 325/60/325
f 323/58/323 318/2/318 322/57/322
f 318/2/318 323/58/323 319/4/319
f 293/60/293 291/58/291 287/4/287
f 287/4/287 289/6/289 293/60/293
f 288/5/288 286/2/286 290/57/290
f 290/57/290 292/59/292 288/5/288
f 319/4/319 321/6/321 325/60/325
f 325/60/325 323/58/323 319/4/319
f 254/2/254 259/58/259 255/4/255
f 259/58/259 254/2/254 258/57/258
f 289/6/289 292/59/292 288/5/288
f 292/59/292 289/6/289 293/60/293
f 320/5/320 318/2/318 322/57/322
f 322/57/322 324/59/324 320/5/320
f 260/59/260 257/6/257 261/60/261
f 257/6/257 260/59/260 256/5/256
f 258/57/258 260/59/260 256/5/256
f 256/5/256 254/2/254 258/57/258
f 255/4/255 257/6/257 261/60/261
f 261/60/261 259/58/259 255/4/255
f 286/2/286 291/58/291 287/4/287
f 291/58/291 286/2/286 290/57/290
f 443/60/443 441/58/441 437/4/437
f 437/4/437 439/6/439 443/60/443
f 438/5/438 436/2/436 440/57/440
f 440/57/440 442/59/442 438/5/438
f 439/6/439 442/59/442 438/5/438
f 442/59/442 439/6/439 443/60/443
f 436/2/436 441/58/441 437/4/437
f 441/58/441 436/2/436 440/57/440
f 475/60/475 473/58/473 469/4/469
f 469/4/469 471/6/471 475/60/475
f 470/5/470 468/2/468 472/57/472
f 472/57/472 474/59/474 470/5/470
f 471/6/471 474/59/474 470/5/470
f 474/59/474 471/6/471 475/60/475
f 468/2/468 473/58/473 469/4/469
f 473/58/473 468/2/468 472/57/472
g fff0a81b_00164_004a32e4_e10
f 402/15/402 403/16/403 405/36/405
f 405/36/405 404/35/404 402/15/402
f 404/35/404 405/36/405 407/62/407
f 407/62/407 406/61/406 404/35/404
f 406/61/406 407/62/407 409/64/409
f 409/64/409 408/63/408 406/61/406
f 408/63/408 409/64/409 411/66/411
f 411/66/411 410/65/410 408/63/408
f 412/35/412 413/36/413 415/62/415
f 415/62/415 414/61/414 412/35/412
