# fff0af14_00429_00e0b036
o fff0af14_00429_00e0b036
v -1.987549 0.220062 0.377933
v 1.464157 6.547653 0.377933
v -1.987549 6.547668 0.377933
v 1.182777 0.452637 0.377933
v -1.703407 0.452637 0.377933
v 1.197441 0.835403 0.377933
v 1.197441 6.280777 0.377933
v 1.464157 0.240631 0.377933
v 1.450531 0.549301 0.377933
v 1.464157 0.533890 0.377933
v -1.703415 6.280777 0.377933
v 0.294449 1.499603 0.377933
v 0.584045 1.556854 0.377933
v 0.722191 6.280777 0.377933
v 0.398987 6.547653 0.377933
v 0.392746 6.280777 0.377933
v 0.722786 6.547653 0.377933
v -1.648308 -6.547684 -0.377933
v 1.614716 -0.220093 -0.377933
v -1.648308 -0.220078 -0.377933
v 1.706169 -6.315109 -0.377933
v -1.364166 -6.315109 -0.377933
v 1.347992 -0.486969 -0.377933
v 1.987556 -6.527115 -0.377933
v -1.364174 -0.486969 -0.377933
v 0.589798 -5.239517 -0.377933
v -1.364166 -3.524353 -0.377933
v 1.339958 -3.692413 -0.377933
v 1.614716 -3.457703 -0.377933
v 1.711479 -3.692413 -0.377933
v 1.987556 -3.457703 -0.377933
vt 1.382911 -0.390383
vt 1.626253 0.850647
vt 1.618548 -0.390383
vt 1.382571 3.216288
vt 1.612504 3.171465
vt 1.382571 -0.268657
vt 1.612504 -0.268657
vt 1.382911 3.043342
vt 1.384161 -0.390383
vt 1.619558 -0.992574
vt -1.245877 1.000798
vt -1.251287 1.000793
vt -1.287473 1.000784
vt -1.685232 1.000690
vt 1.618548 3.043370
vt 1.398033 3.299348
vt 1.618768 2.161512
vt 1.379399 1.812962
vt 1.623510 1.689399
vt 1.383091 2.547866
vt -1.685073 1.000688
vt -1.647814 1.000697
vt -1.638911 1.000699
vt -1.674066 1.000691
vt -1.635301 1.000702
vt 1.381090 1.007091
vt 1.382571 0.131902
vt 1.618548 2.817857
vt 1.409302 3.110793
vt 1.612504 0.275643
vt 1.394953 2.867869
vt 1.382911 2.883683
vt -1.598998 1.000711
vt -1.598086 1.000711
vt 1.612504 0.513374
vt 1.382571 0.409566
vt -1.248639 1.000795
vt -1.598694 1.000711
vt -1.674066 1.000691
vt -1.685153 1.000689
vt -1.641879 1.000698
vt -1.287473 1.000784
vt 1.619558 -0.992574
vt 1.383091 2.547866
vt 1.383536 -0.390383
vt 1.402127 2.989331
vt 1.382571 0.409566
vt 1.612504 3.171465
vt 1.382571 3.216288
vt 1.612504 0.513374
vt 1.379399 1.812962
vt 1.626253 0.850647
vt 1.381090 1.007091
vt 1.618548 -0.390383
vt 1.618548 2.817857
vt 1.623510 1.689399
vt 1.618768 2.161512
vt 1.383604 1.140908
vt 1.618548 1.276877
vt 1.389755 1.360673
vt -1.685153 1.000689
vt 1.618548 1.655601
vt 1.392769 1.757359
vn 0.000000 0.000000 1.000000
vn 0.000000 0.000000 1.000000
vn 0.000000 0.000000 1.000000
vn 0.000000 0.000000 1.000000
vn 0.000000 0.000000 1.000000
vn 0.000000 0.000000 1.000000
vn 0.000000 0.000000 1.000000
vn 0.000000 0.000000 1.000000
vn 0.000000 0.000000 1.000000
vn 0.000000 0.000000 1.000000
vn 0.000000 0.000000 1.000000
vn 0.000000 0.000000 1.000000
vn 0.000000 0.000000 1.000000
vn 0.000000 0.000000 1.000000
vn 0.000000 0.000000 1.000000
vn 0.000000 0.000000 1.000000
vn 0.000000 0.000000 1.000000
vn 0.000000 0.000000 1.000000
vn 0.000000 0.000000 1.000000
vn 0.000000 0.000000 1.000000
vn 0.000000 0.000000 1.000000
vn 0.000000 0.000000 1.000000
vn 0.000000 0.000000 1.000000
vn 0.000000 0.000000 1.000000
vn 0.000000 0.000000 1.000000
vn 0.000000 0.000000 1.000000
vn 0.000000 0.000000 1.000000
vn 0.000000 0.000000 1.000000
vn 0.000000 0.000000 1.000000
vn 0.000000 0.000000 1.000000
vn 0.000000 0.000000 1.000000
g fff0af14_00429_00e0b036_e5
f 5/12/5 16/33/16 11/11/11
f 14/25/14 13/24/13 7/14/7
f 12/23/12 6/21/6 13/24/13
f 16/34/16 12/23/12 14/25/14
f 5/13/5 12/23/12 16/34/16
f 12/23/12 13/24/13 14/25/14
f 13/24/13 6/21/6 7/14/7
f 4/22/4 6/21/6 12/23/12
f 5/13/5 4/22/4 12/23/12
f 22/37/22 26/38/26 27/37/27
f 26/39/26 21/40/21 30/61/30
f 22/42/22 21/41/21 26/41/26
f 27/42/27 26/41/26 23/38/23
f 27/37/27 23/38/23 25/37/25
f 26/39/26 28/40/28 23/40/23
f 26/39/26 30/61/30 28/40/28
g fff0af14_00429_00e0b036_e3
f 3/10/3 5/20/5 11/9/11
f 10/32/10 9/31/9 8/8/8
f 2/7/2 17/30/17 7/6/7
f 16/36/16 3/5/3 11/4/11
f 15/35/15 16/36/16 14/27/14
f 5/18/5 8/2/8 4/26/4
f 15/35/15 3/5/3 16/36/16
f 9/29/9 7/3/7 6/28/6
f 8/16/8 6/28/6 4/15/4
f 1/19/1 8/2/8 5/18/5
f 3/10/3 1/17/1 5/20/5
f 8/16/8 9/29/9 6/28/6
f 2/1/2 7/3/7 9/31/9
f 17/30/17 15/35/15 14/27/14
f 17/30/17 14/27/14 7/6/7
f 2/1/2 9/31/9 10/32/10
f 20/43/20 22/44/22 27/58/27
f 20/43/20 18/57/18 22/44/22
f 18/56/18 24/52/24 22/51/22
f 23/47/23 20/48/20 25/49/25
f 19/45/19 23/54/23 29/60/29
f 22/51/22 24/52/24 21/53/21
f 19/50/19 20/48/20 23/47/23
f 24/46/24 30/62/30 21/55/21
f 20/43/20 27/58/27 25/45/25
f 28/59/28 31/63/31 29/60/29
f 29/60/29 23/54/23 28/59/28
f 24/46/24 31/63/31 30/62/30
f 30/62/30 31/63/31 28/59/28
