# fff03910_00032_0014a6ec
o fff03910_00032_0014a6ec
v 12.740074 -458.509583 0.670813
v -1.904381 181.363068 -0.368567
v 2.024513 -690.866089 -0.368567
v 7.876961 -487.206299 -0.368567
v 9.655586 -51.131268 -0.368567
v 298.132843 -513.832214 -0.368567
v 343.334686 240.606934 -0.368567
v 38.415199 -472.290161 0.817087
v 318.822601 -82.817108 -0.368567
v 311.293762 9.350800 -0.368567
v 287.417267 -746.188721 -0.368567
v 57.282837 -722.822754 -0.368567
v 27.699654 -704.646729 -0.368567
v 67.998383 -490.466187 -0.368567
v 308.796021 30.343933 -0.368567
v 307.339355 46.783875 -0.368567
v 73.503677 27.594730 -0.368567
vt 1.000000 0.900000
vt 1.000000 0.900000
vt 1.000000 0.900000
vt 24.698879 2.846512
vt 24.149712 2.151542
vt 16.710339 1.799520
vt 18.382418 8.521605
vt 17.676252 3.101520
vt 2.012711 3.228896
vt 1.914379 8.764673
vt -4.419343 9.585993
vt 1.438666 8.738265
vt -2.628917 1.455117
vt 17.126907 2.404724
vt 4.397915 1.727405
vt 5.355572 9.008854
vt 2.569909 8.831544
vt 25.404297 8.268927
vt 1.000000 0.900000
vn -0.014809 -0.000749 0.999890
vn -0.000000 -0.000000 1.000000
vn 0.000000 0.000000 1.000000
vn -0.132195 -0.012051 0.991150
vn 0.000045 0.001295 0.999999
vn 0.000000 0.000000 1.000000
vn -0.000000 -0.000000 1.000000
vn 0.009419 -0.005429 0.999941
vn 0.000800 0.000557 1.000000
vn 0.000000 0.000000 1.000000
vn 0.000000 0.000000 1.000000
vn 0.000686 -0.001822 0.999998
vn -0.003564 -0.003496 0.999987
vn 0.020138 -0.005067 0.999784
vn 0.000000 0.000000 1.000000
vn -0.000000 -0.000000 1.000000
vn 0.000000 0.000000 1.000000
g fff03910_00032_0014a6ec_e3
f 9/16/9 5/15/5 8/14/8
f 2/13/2 16/12/16 7/11/7
f 15/10/15 16/12/16 17/9/17
f 9/16/9 14/8/14 6/7/6
f 8/14/8 14/8/14 9/16/9
f 5/15/5 1/6/1 8/14/8
f 1/6/1 13/5/13 8/14/8
f 13/3/13 1/19/1 4/1/4
f 8/14/8 12/4/12 14/8/14
f 12/4/12 8/14/8 13/5/13
f 6/7/6 14/8/14 12/4/12
f 12/4/12 11/18/11 6/7/6
f 5/15/5 9/16/9 10/17/10
f 2/13/2 17/9/17 16/12/16
f 17/9/17 10/17/10 15/10/15
f 17/9/17 2/13/2 5/15/5
f 10/17/10 17/9/17 5/15/5
f 13/3/13 4/1/4 3/2/3
