# fff02c13_00102_00329cac
o fff02c13_00102_00329cac
v 0.067376 0.012219 -0.015047
v 0.004842 0.017923 -0.017214
v 0.059703 0.010764 -0.024456
v 0.058789 -0.001537 0.027020
v 0.025001 -0.006926 0.028636
v 0.087007 0.001147 0.016910
v 0.108103 0.001913 -0.001949
v 0.028427 -0.015300 -0.005259
v -0.020898 -0.013165 0.016549
v -0.056570 -0.011971 -0.022055
v 0.116260 0.002898 -0.022233
v -0.100744 -0.006198 -0.012777
v -0.059043 -0.008546 -0.008932
v -0.060482 -0.012650 -0.000658
v -0.116260 -0.003462 0.013477
v -0.077256 -0.010597 -0.002942
v -0.012552 -0.004599 0.004723
v 0.105638 0.012502 -0.023412
v 0.096457 0.011404 -0.029549
v 0.096694 -0.005072 -0.028899
v 0.074694 0.002407 -0.038263
v 0.060579 0.006303 0.016400
v -0.011042 -0.010059 -0.038246
v -0.010751 -0.002776 -0.028446
v 0.053777 -0.006182 0.038263
v 0.025001 -0.006926 0.028636
v 0.024689 -0.011349 0.037618
v 0.058789 -0.001537 0.027020
v 0.106674 0.003513 -0.030049
v 0.081169 0.014020 -0.027158
v 0.059703 0.010764 -0.024456
v -0.085462 -0.006670 -0.011545
v -0.072171 -0.010325 -0.023092
v -0.107219 -0.003227 -0.035993
v 0.022634 -0.010150 0.037048
v 0.025001 -0.006926 0.028636
v -0.023933 -0.017923 0.024122
v -0.020898 -0.013165 0.016549
v -0.060482 -0.012650 -0.000658
v -0.059610 -0.013095 0.002765
v 0.038002 0.008232 -0.028475
v 0.067376 0.012219 -0.015047
v 0.058258 0.010312 -0.012552
v -0.041042 -0.013744 0.007793
v 0.100403 0.001708 0.006309
v 0.100313 0.008284 -0.004818
v 0.086966 0.014680 -0.017076
v 0.094684 0.014549 -0.026106
v 0.085958 0.006235 0.011107
v 0.059262 0.007977 0.002635
v 0.051059 0.005934 -0.034667
v 0.076543 0.014754 -0.011880
v 0.080846 0.012079 0.000281
v 0.098632 0.007125 -0.002501
v 0.094196 0.014721 -0.015805
vt -0.368639 0.272201
vt -0.193394 0.272201
vt -0.356065 0.352691
vt 0.921843 0.448671
vt 0.595410 3.915434
vt 0.450755 0.177752
vt 0.394470 0.645731
vt 0.236095 0.649556
vt 0.497139 0.751471
vt 0.083421 0.434619
vt 0.003078 0.532252
vt 0.443385 0.172365
vt 0.002978 0.532125
vt 0.002978 0.532125
vt 0.002978 0.532125
vt 0.450755 0.177752
vt 0.400576 0.055496
vt 0.455376 3.842778
vt 0.598375 3.840097
vt 0.598375 3.764716
vt 0.238995 0.661510
vt 0.851428 0.629043
vt 0.993012 0.484640
vt 0.002978 0.603260
vt 0.432400 0.332001
vt 0.400576 0.450891
vt 0.371330 0.661510
vt 0.002978 0.532125
vt 0.002978 0.532125
vt 0.002978 0.532125
vt 0.432400 0.332001
vt 0.432400 0.332001
vt 0.993012 0.629043
vt 0.400576 0.054200
vt 0.439469 0.180436
vt 0.400576 0.450891
vt 0.424173 0.210896
vt 0.437777 0.268865
vt 0.005355 0.481711
vt 0.005355 0.481711
vt 0.005355 0.481711
vt 0.005355 0.481711
vt 0.636948 0.317559
vt 0.780119 0.317348
vt 0.775336 0.646459
vt 0.632514 0.646459
vt 0.775336 0.421298
vt 0.632514 0.421298
vt 0.775336 0.646459
vt 0.007968 0.009813
vt 0.007968 0.306254
vt 0.381380 0.306254
vt 0.381380 0.009813
vt 0.804707 0.454428
vt 0.626225 0.615061
vt 0.804707 0.615061
vt 0.626225 0.454428
vt 0.497913 3.847559
vt 0.595410 3.840097
vt 0.005032 0.577190
vt 0.005032 0.577190
vt 0.005355 0.481711
vt 0.005355 0.481711
vt 0.005355 0.481711
vt 0.697977 0.137538
vt 0.636972 0.177556
vt 0.632514 0.646459
vt 0.310394 0.450891
vt 0.332224 0.263168
vt -0.298792 0.404254
vt 0.005032 0.577190
vt 0.005355 0.481711
vt 0.005355 0.481711
vt 0.632514 0.535879
vt 1.458516 0.996934
vt 2.309630 1.078170
vt 2.297723 1.631226
vt 1.479859 2.116153
vt 0.907522 1.392407
vt 2.325231 0.570235
vn 0.096282 0.968812 -0.228328
vn 0.053944 0.883702 -0.464931
vn 0.085509 0.952139 -0.293462
vn -0.009951 0.805271 0.592824
vn -0.191507 0.884189 0.426069
vn 0.249926 0.754418 0.606951
vn 0.826317 -0.178563 0.534150
vn 0.050502 -0.975228 -0.215358
vn -0.213427 0.856589 0.469791
vn -0.105520 0.925837 -0.362892
vn 0.982807 -0.117318 -0.142572
vn 0.029431 0.999418 0.017232
vn -0.065360 0.991753 0.110249
vn -0.092754 0.898361 0.429353
vn 0.137816 0.989533 0.042792
vn 0.126563 0.942427 0.309536
vn -0.188179 0.944101 0.270669
vn 0.490021 0.852699 -0.181066
vn 0.213804 0.607133 -0.765295
vn 0.288824 -0.732446 -0.616526
vn 0.082694 0.031646 -0.996072
vn -0.020477 0.923934 0.382004
vn -0.223487 -0.248171 -0.942584
vn -0.192400 0.932050 -0.307026
vn -0.172944 0.935121 0.309256
vn -0.121479 0.892160 0.435078
vn -0.133098 0.903247 0.407958
vn -0.160358 0.926127 0.341429
vn 0.505545 -0.023687 -0.862475
vn -0.045798 0.933589 -0.355407
vn -0.180468 0.973500 -0.140463
vn 0.148607 0.986938 0.062211
vn 0.135941 0.976661 -0.166290
vn 0.124843 0.991766 0.028553
vn -0.235227 0.927840 0.289448
vn -0.235595 0.921289 0.309389
vn -0.214856 0.877749 0.428246
vn -0.228871 0.862950 0.450483
vn -0.000304 0.991636 0.129066
vn -0.005807 0.988816 0.149026
vn 0.021793 0.788619 -0.614496
vn -0.140480 0.986847 0.079987
vn -0.179003 0.979718 0.090059
vn -0.066425 0.949447 0.306820
vn 0.554680 0.572132 0.604148
vn 0.377324 0.861123 0.340726
vn 0.007933 0.994506 0.104377
vn 0.112225 0.944313 -0.309320
vn 0.198708 0.865032 0.460690
vn -0.104519 0.980225 0.168033
vn -0.116572 0.755024 -0.645251
vn 0.046060 0.978919 0.198989
vn 0.162855 0.943058 0.290035
vn 0.303299 0.867537 0.394195
vn 0.204426 0.924579 0.321502
g fff02c13_00102_00329cac_e1
f 24/24/24 51/24/51 23/24/23
f 50/38/50 22/38/22 49/38/49
f 21/11/21 20/11/20 23/11/23
f 23/24/23 51/24/51 21/24/21
f 19/24/19 21/24/21 51/24/51
f 48/37/48 18/37/18 19/37/19
f 50/38/50 49/38/49 47/38/47
f 47/69/47 18/36/18 48/68/48
f 46/10/46 49/10/49 45/10/45
f 47/35/47 49/35/49 46/35/46
f 18/36/18 47/69/47 46/34/46
f 40/49/40 44/74/44 39/67/39
f 38/48/38 44/74/44 37/47/37
f 36/46/36 38/48/38 37/47/37
f 37/47/37 35/45/35 36/46/36
f 34/44/34 32/66/32 33/43/33
f 3/3/3 2/2/2 1/1/1
f 32/23/32 15/22/15 16/33/16
f 42/32/42 50/31/50 47/32/47
f 31/30/31 24/28/24 43/29/43
f 14/27/14 13/21/13 32/21/32
f 32/21/32 16/27/16 14/27/14
f 32/66/32 34/44/34 12/65/12
f 11/26/11 18/36/18 46/34/46
f 43/25/43 50/25/50 42/25/42
f 33/64/33 32/72/32 13/73/13
f 33/63/33 13/42/13 10/62/10
f 14/27/14 17/21/17 13/21/13
f 17/21/17 14/27/14 9/27/9
f 10/24/10 24/24/24 23/24/23
f 23/11/23 8/11/8 10/11/10
f 10/41/10 13/39/13 24/40/24
f 42/20/42 48/18/48 30/19/30
f 44/74/44 40/49/40 37/47/37
f 11/26/11 46/34/46 7/17/7
f 29/16/29 19/16/19 18/16/18
f 49/35/49 6/35/6 45/35/45
f 5/9/5 17/21/17 9/27/9
f 30/24/30 19/24/19 51/24/51
f 42/37/42 47/37/47 48/37/48
f 43/15/43 42/13/42 31/14/31
f 29/24/29 21/24/21 19/24/19
f 31/24/31 30/24/30 51/24/51
f 49/38/49 22/38/22 6/38/6
f 20/11/20 11/11/11 7/11/7
f 4/12/4 6/12/6 22/12/22
f 27/56/27 25/54/25 28/57/28
f 24/24/24 31/24/31 51/24/51
f 22/8/22 17/21/17 5/9/5
f 5/9/5 4/7/4 22/8/22
f 8/11/8 23/11/23 20/11/20
f 42/71/42 30/60/30 31/61/31
f 7/10/7 46/10/46 45/10/45
f 45/6/45 20/11/20 7/11/7
f 30/59/30 48/58/48 19/5/19
f 15/22/15 32/23/32 12/4/12
f 20/11/20 29/16/29 11/11/11
f 20/11/20 21/11/21 29/16/29
f 29/16/29 18/16/18 11/16/11
f 28/57/28 26/55/26 27/56/27
f 41/70/41 2/2/2 3/3/3
g fff02c13_00102_00329cac_e3
f 55/53/55 53/51/53 54/52/54
f 52/50/52 53/51/53 55/53/55
g fff02c13_00102_00329cac_e2
f 17/75/17 50/76/50 43/77/43
f 24/78/24 13/79/13 17/75/17
f 17/75/17 22/80/22 50/76/50
f 43/77/43 24/78/24 17/75/17
