# fff022ca_00002_000467ad
o fff022ca_00002_000467ad
v 0.758064 -4.016335 -2.432762
v -7.181416 5.312622 -2.726812
v -3.086536 -3.029308 -2.514312
v -7.385216 3.008739 -2.592288
v 4.848442 16.638290 -3.203781
v 11.012119 3.768253 -3.203781
v 1.849346 -8.572317 -1.820685
v -1.681007 10.761551 -3.078129
v 3.276218 16.034752 -3.203781
v -4.084778 -5.801544 -1.472726
v 3.568840 18.841003 -3.277510
v 0.857750 -4.455276 -2.632678
v 11.184147 3.285912 -3.466929
v -3.036617 15.168324 -3.029766
v -7.403736 11.717556 -2.741609
v -10.203533 8.201283 -2.620965
v -4.830086 7.594597 -2.811569
v -7.718182 4.079144 -2.645895
v -5.987873 6.043968 -2.768301
v 0.148304 11.919170 -3.078129
v 8.422436 17.615910 -3.203781
v -3.061291 10.499302 -2.913214
v -4.176792 9.594913 -2.865485
v 1.958721 15.125542 -3.175663
v 1.378757 13.372383 -3.124990
v 1.640106 15.417046 -3.278237
v 0.907421 13.676308 -3.230689
v 5.715439 -2.391848 -2.602349
v -3.136772 10.907955 -3.132159
v -1.886658 11.320599 -3.148221
v -0.153328 12.386459 -3.192160
v -4.524609 9.946781 -3.073322
v 5.366756 -1.837475 -2.386924
v -7.683136 -20.753643 0.262505
v 1.363796 -12.650673 -1.344742
v -0.276402 -15.214384 -1.062021
v -1.543888 -10.880934 -0.705203
v 9.216698 -7.311573 -2.190372
v 3.139660 16.366779 -3.362323
v 8.339542 -10.056034 -1.986401
v 12.468037 -4.178654 -3.580391
v 4.761177 16.946095 -3.362323
v 8.319088 17.927757 -3.555498
v -7.475803 5.625988 -2.932949
v -8.151211 4.180252 -2.834890
v -7.760242 2.829201 -2.715355
v -5.280552 7.959217 -3.029895
v -6.307938 6.431919 -2.980480
v 3.568840 18.841003 3.580391
v -3.036617 15.168324 3.580390
v -7.403736 11.717556 3.580391
v -10.203533 8.201284 3.580391
v -5.809006 -0.081581 -2.558529
v -1.662731 -5.603519 -1.846902
v 0.594120 -7.124857 -1.860547
v -12.468037 4.438992 -2.215146
v -6.143452 -0.334314 -2.667948
v -8.450809 -0.691957 -1.900568
v 0.818233 -6.889616 -2.148272
v 8.003719 -4.950579 -2.749024
v 2.246353 -8.500851 -2.008674
v -3.196808 -3.408972 -2.697483
v -1.528000 -5.300421 -2.237053
v -6.020481 -5.056194 -1.950787
v 7.606327 20.753643 3.580390
v -7.683132 -20.753643 3.580391
v -4.084774 -5.801544 3.580391
v -3.257004 -8.817051 3.580391
v -1.543892 -10.880934 3.580391
v -8.450809 -0.691959 3.580391
v -6.020481 -5.056194 3.580391
v -12.468037 4.438995 3.580391
v -1.897480 -13.701595 3.580391
v -1.897480 -13.701595 -0.485644
v -3.257000 -8.817051 -0.983698
v 7.606327 20.753643 -3.519371
v 2.094666 -12.519096 -1.585500
v 2.572285 -10.603759 -1.781781
v 11.129101 -4.676268 -3.158935
v -4.343555 -16.683083 -0.442408
v 2.209217 -10.654991 -1.622766
v 11.861631 -0.652998 -3.628188
v -10.576004 6.312252 -2.666232
v -10.866867 3.147205 -2.194341
v -10.246658 1.731281 -2.146955
v -7.955765 0.051086 -2.192089
v -7.764740 0.268608 -2.320189
v -9.988983 1.981457 -2.353889
v -10.746071 3.145382 -2.286353
v -11.261070 4.671627 -2.389429
v -10.888474 4.665390 -2.596128
v -5.647118 -3.725689 -2.094705
v -5.371292 -3.547176 -2.299382
v -3.778488 -5.411743 -1.892584
v -3.682259 -5.080402 -2.133103
v 0.173184 9.739982 -3.203781
vt 3.422501 2.461418
vt 3.422501 2.461418
vt 3.422501 2.461418
vt 3.422501 2.461418
vt 3.422501 2.461418
vt 3.422501 2.461418
vt 6.721075 -1.766545
vt 8.209101 -0.251863
vt 0.116784 -3.731931
vt -1.921626 -4.009153
vt 1.802499 -4.104403
vt 0.961124 -4.284607
vt 2.450085 -3.355361
vt 0.653745 1.530399
vt 0.735561 -4.011850
vt 0.950030 -2.500439
vt 3.422501 2.461418
vt 3.422501 2.461418
vt 3.422501 2.461418
vt 3.422501 2.461418
vt 3.422501 2.461418
vt 3.422501 2.461418
vt 3.422501 2.461418
vt 3.422501 2.461418
vt 3.422501 2.461418
vt 8.357770 -1.118609
vt 8.931166 -0.022805
vt 8.877397 -0.619667
vt 3.359650 -2.887850
vt 0.923165 0.177231
vt 5.231024 -2.787396
vt 5.986384 -2.623019
vt 3.422501 2.461418
vt 3.422501 2.461418
vt 3.422501 2.461418
vt 3.422501 2.461418
vt 3.422501 2.461418
vt 3.422501 2.461418
vt 3.422501 2.461418
vt 3.422501 2.461418
vt 3.422501 2.461418
vt 3.422501 2.461418
vt 3.422501 2.461418
vt 0.026123 0.284484
vt 0.063013 0.433450
vt 0.501486 -0.476166
vt 0.501486 0.077351
vt 0.460897 -1.063097
vt 2.873848 -0.490952
vt 1.962657 -0.178834
vt 0.501486 -3.097183
vt 0.501486 -0.755073
vt 0.045196 -0.472516
vt 0.501486 -1.298684
vt 0.501486 -1.973095
vt 0.501486 -2.799974
vt 0.501486 -1.819665
vt 0.501486 -1.568905
vt -0.017031 -1.567475
vt 0.501486 -2.200553
vt 0.501486 -2.452286
vt -0.017031 -2.480231
vt 0.501486 -2.636461
vt -0.017031 -2.964072
vt 3.422501 2.461418
vt 3.422501 2.461418
vt 3.422501 2.461418
vt 3.422501 2.461418
vt 3.422501 2.461418
vt 3.422501 2.461418
vt 3.422501 2.461418
vt 0.012940 0.860848
vt 8.654280 -2.556742
vt 0.072794 0.628577
vt 4.231868 -1.962256
vt 3.422501 2.461418
vt 0.501486 -1.059260
vt 0.319185 1.447601
vt 0.130322 -2.766156
vt 0.189431 -2.189823
vt 3.422501 2.461418
vt 3.422501 2.461418
vt 3.422501 2.461418
vt 3.422501 2.461418
vt 3.422501 2.461418
vt 3.422501 2.461418
vt 3.422501 2.461418
vt 3.422501 2.461418
vt 3.422501 2.461418
vt 8.398200 1.671002
vt 3.422501 2.461418
vt 0.043424 0.675273
vt 0.023510 0.351713
vt 3.422501 2.461418
vt 3.422501 2.461418
vt 0.217000 -2.670848
vt 3.422501 2.461418
vt 3.422501 2.461418
vt 3.422501 2.461418
vt 3.422501 2.461418
vt 3.422501 2.461418
vt 3.422501 2.461418
vt 3.422501 2.461418
vt 3.422501 2.461418
vt 3.422501 2.461418
vt 3.422501 2.461418
vt 0.460897 -1.487935
vt 1.010235 -1.549641
vt 0.460897 -1.985737
vt 1.010235 -3.208229
vt 0.460897 -3.271632
vt 0.460897 -2.884929
vt -0.017031 -2.964072
vt -0.017031 -3.321353
vt -0.017031 -2.964072
vt 0.131502 1.527078
vt 0.460897 -4.228004
vt 0.460897 -3.688148
vt -0.017031 -3.966507
vt 0.501486 -3.974354
vt -0.017031 -2.964072
vt 0.501486 -3.309620
vt 1.010235 -4.158542
vt 1.010235 -4.866797
vt 0.105076 -5.036818
vt 1.010235 -2.280849
vt 0.006985 -5.479548
vt 0.102871 -5.286387
vt 0.045196 -0.472516
vt 0.045196 0.060066
vt -0.017031 -1.567475
vt -0.017031 -2.480231
vt 0.063013 0.433450
vt -0.017031 -3.966507
vt 0.043424 0.675273
vt 0.019425 0.409328
vt 0.012940 0.530213
vt 0.012940 0.860848
vt 0.026123 0.284484
vt 0.033190 0.737578
vt 0.019467 0.408549
vt 0.033258 0.737164
vt 0.045196 0.059399
vt -0.017031 -3.570312
vt 0.022483 0.352332
vt 0.062735 0.433986
vt 0.012929 0.860919
vt 0.043387 0.675503
vt -0.017031 -4.180065
vt -5.474735 -4.365225
vt 0.012663 0.530749
vt 0.019419 0.409441
vt 0.022503 0.351957
vt 0.026143 0.284109
vt -5.474735 -4.365225
vt -5.474735 -4.365225
vt -0.017031 -3.321353
vt 0.033178 0.737649
vt 0.022553 0.351022
vt -0.017031 -4.180065
vt -0.017031 -3.675731
vt -5.474735 -4.365225
vt 0.024629 0.789694
vt 3.422501 2.461418
vt -0.048624 -2.041383
vt 1.169724 -2.018861
vt 0.024668 0.789455
vt 1.416099 0.008382
vt 3.422501 2.461418
vt 3.422501 2.461418
vt 0.881066 -2.986446
vt 0.590785 -2.353729
vt 0.102273 -3.203149
vt 0.242660 -3.854653
vt 0.369615 -3.704302
vt 0.676751 -1.814380
vt 0.501486 -3.713157
vt 0.717125 -1.829713
vt 0.395740 -3.626111
vt 0.742818 -1.761932
vt 0.892383 -1.445261
vt 0.186947 -3.878650
vt 0.321488 -3.261614
vt 0.762548 -1.521819
vt 0.730413 -1.461280
vt 0.701361 -2.792506
vt 0.771586 -2.811805
vt 2.363812 1.822337
vt 0.460897 -3.091534
vt 1.857897 1.516939
vt 4.113636 -1.316053
vn 0.002536 -0.211738 0.977323
vn -0.182429 0.215398 0.959335
vn -0.133776 -0.194419 0.971754
vn -0.138371 -0.017356 0.990228
vn -0.073474 0.223233 0.971992
vn 0.164123 -0.085314 0.982744
vn 0.308441 0.236161 0.921462
vn 0.045879 0.056680 0.997338
vn -0.081888 0.198597 0.976654
vn 0.418083 0.719017 0.555176
vn 0.353390 -0.640601 0.681723
vn 0.046516 -0.055371 0.997382
vn 0.350481 -0.201379 0.914664
vn 0.428010 -0.601609 0.674443
vn 0.554945 -0.519878 0.649433
vn 0.625268 -0.411121 0.663339
vn -0.117423 0.101621 0.987869
vn -0.237850 0.053365 0.969835
vn -0.107961 0.156977 0.981683
vn -0.009197 0.041333 0.999103
vn -0.087164 0.385541 0.918565
vn -0.058093 0.183184 0.981361
vn -0.144720 0.145039 0.978785
vn -0.098796 0.105781 0.989469
vn 0.002009 0.018466 0.999828
vn -0.037473 0.075308 0.996456
vn -0.060597 0.062298 0.996216
vn 0.130379 -0.105322 0.985854
vn -0.064561 0.187090 0.980219
vn 0.012459 0.076292 0.997008
vn -0.048358 0.078542 0.995737
vn -0.062415 0.095901 0.993432
vn 0.062944 -0.002120 0.998015
vn 0.777328 -0.614062 0.136711
vn 0.265759 0.012977 0.963952
vn 0.232203 -0.087694 0.968706
vn 0.658541 0.257650 0.707064
vn 0.031222 0.192663 0.980768
vn -0.049550 0.157780 0.986230
vn 0.017262 0.079207 0.996709
vn 0.278997 0.060979 0.958354
vn -0.049900 0.208517 0.976745
vn -0.054889 0.387420 0.920268
vn -0.064402 0.126939 0.989818
vn -0.071912 0.091563 0.993199
vn -0.054779 0.038468 0.997757
vn -0.129443 0.084232 0.988003
vn -0.108220 0.150933 0.982603
vn 0.457270 -0.889328 0.000000
vn 0.554765 -0.832007 0.000000
vn 0.705788 -0.708423 0.000000
vn 0.821290 -0.570511 0.000000
vn -0.106534 -0.057866 0.992624
vn 0.202619 0.535090 0.820137
vn 0.310904 0.379208 0.871516
vn 0.832005 0.083450 0.548455
vn 0.038188 0.026130 0.998929
vn 0.656848 0.465945 0.592829
vn 0.230140 0.338851 0.912259
vn 0.069501 0.136559 0.988191
vn 0.175662 0.180894 0.967688
vn -0.017685 -0.008798 0.999805
vn 0.155736 0.468933 0.869395
vn 0.497583 0.612620 0.614091
vn 0.428113 -0.903725 0.000000
vn 0.773108 -0.634274 -0.000001
vn 0.741446 0.671012 -0.000001
vn 0.886833 0.462089 0.000000
vn 0.959930 0.280240 0.000001
vn 0.833061 0.553181 0.000000
vn 0.655710 0.755013 -0.000000
vn 0.998127 0.061181 -0.000000
vn 0.918752 -0.394835 0.000000
vn 0.695377 -0.271487 0.665392
vn 0.690587 0.432855 0.579418
vn 0.352488 -0.660217 0.663224
vn 0.220620 0.044833 0.974329
vn 0.184692 0.093619 0.978327
vn 0.161147 0.127240 0.978694
vn 0.609590 -0.400198 0.684282
vn 0.329997 0.061737 0.941961
vn 0.212627 0.022386 0.976877
vn 0.180188 -0.035272 0.983000
vn 0.306817 0.173035 0.935907
vn 0.473866 0.407959 0.780398
vn 0.272617 0.249386 0.929240
vn 0.256977 0.211054 0.943090
vn 0.275531 0.216158 0.936674
vn 0.404798 0.236198 0.883373
vn 0.271020 0.120306 0.955026
vn 0.314092 0.093557 0.944771
vn 0.239640 0.223662 0.944748
vn 0.289274 0.292403 0.911494
vn 0.119151 0.603377 0.788504
vn 0.185532 0.434042 0.881581
vn 0.044745 0.005193 0.998985
g fff022ca_00002_000467ad_e14
f 80/163/80 74/140/74 73/158/73
f 52/115/52 72/157/72 56/114/56
f 71/156/71 64/155/64 70/162/70
f 69/154/69 37/139/37 68/153/68
f 34/138/34 80/163/80 73/158/73
f 68/152/68 10/137/10 67/151/67
f 10/137/10 68/152/68 75/136/75
f 58/150/58 70/162/70 64/155/64
f 70/161/70 56/114/56 72/157/72
f 37/135/37 73/158/73 74/140/74
f 56/134/56 70/160/70 58/149/58
f 73/158/73 37/135/37 69/148/69
f 73/158/73 66/147/66 34/138/34
f 14/59/14 11/53/11 49/129/49
f 71/146/71 67/151/67 10/137/10
f 10/137/10 64/133/64 71/146/71
f 75/145/75 68/153/68 37/139/37
f 51/132/51 14/59/14 50/131/50
f 76/143/76 65/130/65 11/53/11
f 51/132/51 52/113/52 16/64/16
f 56/114/56 16/121/16 52/115/52
f 14/59/14 51/132/51 15/62/15
f 16/64/16 15/62/15 51/132/51
f 49/129/49 50/131/50 14/59/14
f 65/130/65 49/129/49 11/53/11
g fff022ca_00002_000467ad_e23
f 61/95/61 81/164/81 78/170/78
f 81/164/81 35/69/35 78/170/78
f 78/170/78 35/69/35 77/169/77
f 7/4/7 81/164/81 61/95/61
f 3/106/3 62/105/62 12/104/12
f 57/103/57 53/102/53 46/101/46
f 53/102/53 4/100/4 46/101/46
f 4/100/4 18/99/18 45/98/45
f 4/100/4 45/98/45 46/101/46
f 3/106/3 53/102/53 57/103/57
f 57/103/57 62/105/62 3/106/3
f 59/89/59 7/88/7 61/97/61
f 55/87/55 63/86/63 54/85/54
f 63/86/63 55/87/55 59/89/59
f 55/87/55 7/88/7 59/89/59
f 24/43/24 27/42/27 25/41/25
f 6/71/6 33/5/33 13/3/13
f 13/3/13 33/5/33 28/2/28
f 22/40/22 30/39/30 29/25/29
f 28/2/28 33/5/33 12/1/12
f 23/24/23 22/40/22 29/25/29
f 47/38/47 23/24/23 32/23/32
f 45/22/45 18/37/18 2/21/2
f 33/5/33 1/6/1 12/1/12
f 3/70/3 12/1/12 1/6/1
f 19/20/19 17/36/17 48/35/48
f 17/36/17 23/24/23 47/38/47
f 2/21/2 19/20/19 44/19/44
f 24/43/24 26/34/26 27/42/27
f 48/35/48 17/36/17 47/38/47
f 44/19/44 19/20/19 48/35/48
f 45/22/45 2/21/2 44/19/44
f 23/24/23 29/25/29 32/23/32
f 9/84/9 26/68/26 24/67/24
f 42/83/42 39/66/39 9/84/9
f 21/82/21 42/83/42 5/65/5
f 5/65/5 42/83/42 9/84/9
f 94/188/94 54/91/54 63/94/63
f 9/84/9 39/66/39 26/68/26
f 21/82/21 43/81/43 42/83/42
f 25/41/25 27/42/27 20/33/20
f 20/33/20 31/18/31 8/17/8
f 27/42/27 31/18/31 20/33/20
f 22/40/22 8/17/8 30/39/30
f 31/18/31 30/39/30 8/17/8
g fff022ca_00002_000467ad_e7
f 25/13/25 9/12/9 24/11/24
f 23/32/23 8/75/8 22/31/22
f 75/159/75 37/44/37 55/93/55
f 74/142/74 36/76/36 35/92/35
f 10/76/10 75/141/75 54/91/54
f 37/92/37 7/76/7 55/74/55
f 54/91/54 75/159/75 55/93/55
f 35/50/35 81/168/81 37/73/37
f 81/168/81 7/30/7 37/73/37
f 80/167/80 36/76/36 74/142/74
f 35/50/35 37/73/37 74/49/74
f 34/72/34 36/76/36 80/167/80
f 96/191/96 9/166/9 25/13/25
f 6/71/6 21/10/21 5/9/5
f 20/29/20 96/191/96 25/13/25
f 19/8/19 18/28/18 4/27/4
f 19/8/19 3/70/3 17/7/17
f 17/7/17 8/75/8 23/32/23
f 96/191/96 6/71/6 9/166/9
f 53/90/53 3/70/3 19/8/19
f 4/27/4 53/90/53 19/8/19
f 19/8/19 2/26/2 18/28/18
f 9/165/9 6/71/6 5/9/5
f 3/70/3 8/75/8 17/7/17
f 3/70/3 6/71/6 96/191/96
f 1/6/1 6/71/6 3/70/3
f 33/5/33 6/71/6 1/6/1
f 8/75/8 96/191/96 20/29/20
f 3/70/3 96/191/96 8/75/8
g fff022ca_00002_000467ad_e0
f 16/64/16 48/63/48 15/62/15
f 95/189/95 63/111/63 62/110/62
f 47/61/47 32/60/32 15/62/15
f 32/60/32 14/59/14 15/62/15
f 61/128/61 60/96/60 59/127/59
f 86/176/86 93/187/93 87/178/87
f 31/58/31 14/59/14 30/57/30
f 91/185/91 45/48/45 83/107/83
f 44/56/44 48/63/48 16/64/16
f 29/55/29 30/57/30 14/59/14
f 60/96/60 13/80/13 28/79/28
f 60/125/60 28/124/28 12/123/12
f 56/144/56 90/183/90 83/173/83
f 15/62/15 48/63/48 47/61/47
f 27/54/27 14/59/14 31/58/31
f 43/47/43 11/53/11 42/46/42
f 60/96/60 82/172/82 13/80/13
f 86/177/86 87/122/87 85/175/85
f 12/123/12 62/110/62 63/118/63
f 12/123/12 63/118/63 59/117/59
f 78/170/78 77/169/77 40/78/40
f 39/52/39 14/59/14 26/77/26
f 61/95/61 78/170/78 40/78/40
f 26/77/26 14/59/14 27/54/27
f 60/96/60 79/171/79 82/172/82
f 58/109/58 64/112/64 92/186/92
f 64/112/64 94/189/94 92/186/92
f 38/15/38 60/96/60 61/128/61
f 10/76/10 54/91/54 94/188/94
f 32/60/32 29/55/29 14/59/14
f 42/46/42 11/53/11 39/52/39
f 76/143/76 11/53/11 43/47/43
f 11/53/11 14/59/14 39/52/39
f 59/117/59 60/125/60 12/123/12
f 79/171/79 60/96/60 38/15/38
f 61/116/61 40/78/40 38/14/38
f 45/51/45 44/56/44 16/64/16
f 79/171/79 41/16/41 82/172/82
f 83/173/83 45/122/45 16/121/16
f 56/144/56 83/173/83 16/121/16
f 89/182/89 46/122/46 45/119/45
f 58/120/58 85/175/85 56/119/56
f 88/179/88 46/122/46 89/182/89
f 56/119/56 85/175/85 84/174/84
f 58/109/58 92/186/92 86/176/86
f 58/120/58 86/177/86 85/175/85
f 87/178/87 57/126/57 46/108/46
f 88/180/88 87/178/87 46/108/46
f 85/175/85 88/179/88 84/174/84
f 85/176/85 87/178/87 88/180/88
f 90/184/90 91/185/91 83/107/83
f 84/174/84 88/179/88 89/182/89
f 56/144/56 84/122/84 90/183/90
f 84/108/84 89/181/89 90/184/90
f 89/181/89 45/48/45 91/185/91
f 90/184/90 89/181/89 91/185/91
f 92/186/92 95/189/95 93/187/93
f 86/176/86 92/186/92 93/187/93
f 93/187/93 62/110/62 57/126/57
f 87/178/87 93/187/93 57/126/57
f 94/188/94 63/94/63 95/190/95
f 10/76/10 94/188/94 64/45/64
f 93/187/93 95/189/95 62/110/62
f 94/188/94 95/190/95 92/45/92
