# fff017fc_00002_0004edd5
o fff017fc_00002_0004edd5
v 14.830837 21.676245 -2.493888
v -10.314377 -14.723368 -2.493888
v -10.273193 -22.149637 -2.493888
v 10.830841 13.950012 -2.496487
v -6.712185 9.396822 -2.493991
v -8.394081 3.415155 -2.493836
v 9.630527 21.236513 -2.494121
v 14.830822 21.066710 -2.493884
v 9.686104 20.603495 -2.494121
v -10.438221 -6.817427 -2.493888
v 2.628083 -26.589151 -2.493888
v -1.410576 -22.251085 -2.493888
v -1.507056 -25.894043 -2.493888
v 2.628083 -14.641218 -2.493888
v -4.067986 0.464600 -2.493946
v -4.067986 -3.531965 -2.493946
v -6.169163 -3.531969 -2.493888
v 15.044369 13.950012 -2.496487
v -5.999607 9.007566 -2.495932
v 0.550717 16.615450 -2.496210
v 5.872952 19.368532 -2.494121
v -6.169163 -14.641218 -2.493888
v -6.169163 -22.225142 -2.493888
v 7.712597 0.464621 -2.493935
v 10.830841 3.983038 -2.494756
v -9.195667 3.509985 -2.493958
v 5.666157 19.986406 -2.494121
v 0.108887 17.040419 -2.494033
v -9.592802 -6.635684 -2.493888
v -9.524444 -14.659149 -2.493888
v -9.487875 -21.325562 -2.493888
v -4.821877 -19.264055 -2.493888
v -6.124096 -21.325562 -2.493888
v 0.188661 -20.578943 -2.493888
v -0.697723 -26.654335 -2.493888
v 14.271130 13.950012 -2.496487
v 9.993095 14.605042 -2.496696
v 10.173042 4.686104 -2.494673
v 7.061329 1.253479 -2.494192
v -4.594559 1.253479 -2.494268
v -4.067986 -2.748108 -2.493946
v -6.952873 -2.748108 -2.494062
v -6.952874 -15.432312 -2.493888
v 1.820809 -15.432312 -2.493888
v 1.820808 -26.589149 -2.493888
v 3.204735 18.156851 -2.495147
v 2.896717 18.756847 -2.494076
v 14.226620 18.137939 -2.493888
v 15.044369 18.137939 -2.493888
v -2.745226 13.497566 -2.496082
v -3.311528 13.898417 -2.494016
v -9.435925 -2.937331 -2.493867
v -10.153538 -2.740688 -2.493920
v 15.035404 17.381739 -2.493888
v 11.591759 14.605042 -2.496605
v 11.591759 13.950012 -2.496487
v -4.067986 -0.302856 -2.493946
v -4.594559 -0.302856 -2.494110
v 2.617959 -17.595137 -2.493888
v 1.820809 -17.218689 -2.493888
v 1.336106 -17.019835 -2.493888
v 1.820808 -21.424690 -2.493888
v 2.624305 -22.952166 -2.493888
v -1.266870 -15.432312 -2.493888
v 0.181707 -16.970661 -2.493888
v 1.066007 -17.304089 -2.493888
v 1.820809 -17.585045 -2.493888
v 1.820808 -20.988268 -2.493888
v 0.150599 -20.847496 -2.493888
v -2.908049 -15.942392 -2.493888
v 1.539237 -17.490816 -2.493888
v 1.444233 -21.004562 -2.493888
v -2.236064 -19.927235 -2.493888
v -6.952874 -14.326270 -2.493904
v -9.535574 -13.009150 -2.493888
v -6.169163 -14.497759 -2.493888
v -6.952874 -14.119490 -2.493912
v -9.540136 -12.699530 -2.493888
v -0.697723 -21.325562 -2.493888
v 10.001358 12.633439 -2.496328
v -3.185607 1.253479 -2.494259
v -3.960918 0.464621 -2.493945
v 10.832047 12.710776 -2.496357
v 10.619756 4.504761 -2.494691
v 7.294985 0.719421 -2.494121
v -3.104058 0.719422 -2.494110
v 2.791543 3.582337 -2.494934
v 7.821016 8.871442 -2.495232
v -4.203047 8.413895 -2.495770
v 2.922410 15.925223 -2.495986
vt 0.114582 1.000000
vt 0.114593 1.000000
vt 0.114593 1.000000
vt 0.114593 1.000000
vt 0.114593 1.000000
vt -0.860023 -0.920174
vt -0.860023 -0.920174
vt -0.860023 -0.920174
vt -0.860023 -0.920174
vt -0.860023 -0.920174
vt 0.114582 1.000000
vt -0.254520 1.891279
vt 0.026235 1.213334
vt 0.114582 1.000000
vt -0.860023 -0.920174
vt -0.860023 -0.920174
vt 0.114582 1.000000
vt 0.114593 1.000000
vt 0.114593 1.000000
vt 0.114593 1.000000
vt 0.114582 1.000000
vt 0.114582 1.000000
vt 0.114582 1.000000
vt 0.114582 1.000000
vt 0.114582 1.000000
vt 0.114582 1.000000
vt 0.114582 1.000000
vt 0.114582 1.000000
vt -0.194103 1.745387
vt 0.131326 0.959570
vt 0.114582 1.000000
vt 0.157121 0.897281
vt 0.114582 1.000000
vt 0.114620 0.999909
vt -0.066330 1.436854
vt 0.037411 1.186348
vt -0.039761 1.372696
vt 0.114593 1.000000
vt 0.122026 0.982026
vt 0.114593 1.000000
vt 0.114593 1.000000
vt 0.114593 1.000000
vt -0.860023 -0.920174
vt -0.860023 -0.920174
vt -0.860023 -0.920174
vt 0.114593 1.000000
vt -0.860023 -0.920174
vt -0.860023 -0.920174
vt -0.860023 -0.920174
vt -0.860023 -0.920174
vt 0.114582 1.000000
vt 0.114582 1.000000
vt 0.114582 1.000000
vt 0.114582 1.000000
vt 0.114582 1.000000
vt -0.143780 1.623871
vt 0.043173 1.172433
vt -0.025274 1.337715
vt 0.114593 1.000000
vt 0.114593 1.000000
vt -0.860023 -0.920174
vt -0.860023 -0.920174
vt -0.860023 -0.920174
vt -0.860023 -0.920174
vt -0.860023 -0.920174
vt 0.114582 1.000000
vt 0.114582 1.000000
vt 0.114582 1.000000
vt 0.114582 1.000000
vt 0.114582 1.000000
vt 0.114600 0.999958
vt 0.114582 1.000000
vt -0.033355 1.357226
vt 0.054846 1.144248
vt 0.114582 1.000000
vt 0.114582 1.000000
vt 0.114582 1.000000
vt 0.114582 1.000000
vt -0.111056 1.544853
vt -0.068365 1.441766
vt -0.860023 -0.920174
vt -0.860023 -0.920174
vt -0.860023 -0.920174
vt -0.860023 -0.920174
vt -0.860023 -0.920174
vt -0.860023 -0.920174
vt -0.860023 -0.920174
vt -0.860023 -0.920174
vt -0.860023 -0.920174
vt -0.860023 -0.920174
vt -0.860023 -0.920174
vt -0.860023 -0.920174
vt -0.860023 -0.920174
vt -0.860023 -0.920174
vt -0.860023 -0.920174
vt -0.860023 -0.920174
vt -0.860023 -0.920174
vt -0.860023 -0.920174
vt -0.860023 -0.920174
vt -0.860023 -0.920174
vt -0.860023 -0.920174
vt -0.860023 -0.920174
vt -0.860023 -0.920174
vt -0.860023 -0.920174
vt -0.860023 -0.920174
vt -0.860023 -0.920174
vt 0.114593 1.000000
vt 0.041831 1.175675
vt 0.114593 1.000000
vt 0.114593 1.000000
vt 0.114593 1.000000
vt 0.048224 1.160236
vt 0.114593 1.000000
vt -0.860023 -0.920174
vt -0.860023 -0.920174
vt 0.114582 1.000000
vt 0.114582 1.000000
vt 0.114582 1.000000
vt 0.114582 1.000000
vt -0.008763 1.297845
vt 0.114585 0.999995
vt 0.114582 1.000000
vt 0.006385 1.261266
vt 0.114606 0.999943
vt 0.114582 1.000000
vt 0.114582 1.000000
vt 0.114582 1.000000
vt 0.013990 1.242901
vt -0.033595 1.357806
vt 0.114582 1.000000
vt 0.114582 1.000000
vt 0.114582 1.000000
vt 0.114582 1.000000
vt 0.114582 1.000000
vt 0.093082 1.051919
vt -0.012559 1.307010
vt -0.008557 1.297347
vt 0.114592 0.999977
vt 0.114580 1.000006
vt 0.114612 0.999929
vt 0.114578 1.000011
vn -0.000045 0.000006 1.000000
vn 0.000000 0.000000 1.000000
vn 0.000000 0.000000 1.000000
vn -0.000055 0.000198 1.000000
vn 0.002081 -0.000996 0.999997
vn 0.000060 0.000081 1.000000
vn -0.000024 -0.000002 1.000000
vn -0.000042 0.000006 1.000000
vn -0.000030 -0.000169 1.000000
vn -0.000001 0.000003 1.000000
vn 0.000000 0.000000 1.000000
vn 0.000000 0.000000 1.000000
vn 0.000000 0.000000 1.000000
vn 0.000000 0.000000 1.000000
vn -0.000334 0.000185 1.000000
vn 0.000028 0.000000 1.000000
vn -0.000116 0.000083 1.000000
vn -0.000086 -0.000637 1.000000
vn 0.001168 -0.000470 0.999999
vn 0.001003 -0.001651 0.999998
vn 0.000018 -0.000237 1.000000
vn -0.000009 0.000004 1.000000
vn 0.000000 0.000000 1.000000
vn -0.000153 0.000426 1.000000
vn 0.000353 0.000019 1.000000
vn -0.000144 0.000040 1.000000
vn 0.000007 0.000002 1.000000
vn 0.001998 -0.002845 0.999994
vn 0.000031 0.000001 1.000000
vn 0.000002 0.000001 1.000000
vn 0.000000 0.000000 1.000000
vn 0.000000 0.000000 1.000000
vn 0.000000 0.000000 1.000000
vn 0.000000 0.000000 1.000000
vn 0.000000 0.000000 1.000000
vn -0.000082 -0.000560 1.000000
vn 0.000306 -0.000030 1.000000
vn 0.000073 0.000151 1.000000
vn -0.000018 0.000150 1.000000
vn 0.000049 0.000198 1.000000
vn -0.000032 0.000046 1.000000
vn 0.000005 0.000023 1.000000
vn -0.000001 0.000005 1.000000
vn 0.000000 0.000000 1.000000
vn 0.000000 0.000000 1.000000
vn 0.000224 -0.000992 1.000000
vn 0.000571 -0.001365 0.999999
vn -0.000176 -0.000275 1.000000
vn 0.000000 -0.000001 1.000000
vn 0.001148 -0.001012 0.999999
vn 0.002266 -0.001991 0.999995
vn -0.000001 -0.000003 1.000000
vn -0.000067 0.000009 1.000000
vn -0.000523 -0.000559 1.000000
vn -0.000105 -0.000191 1.000000
vn 0.000000 0.000180 1.000000
vn -0.000343 0.000040 1.000000
vn -0.000118 0.000041 1.000000
vn 0.000000 0.000000 1.000000
vn 0.000000 0.000000 1.000000
vn 0.000000 0.000000 1.000000
vn 0.000000 0.000000 1.000000
vn 0.000000 0.000000 1.000000
vn 0.000000 0.000000 1.000000
vn 0.000000 0.000000 1.000000
vn 0.000000 0.000000 1.000000
vn 0.000000 0.000000 1.000000
vn 0.000000 0.000000 1.000000
vn 0.000000 0.000000 1.000000
vn 0.000000 0.000000 1.000000
vn 0.000000 0.000000 1.000000
vn 0.000000 0.000000 1.000000
vn 0.000000 0.000000 1.000000
vn -0.000000 0.000024 1.000000
vn 0.000004 0.000000 1.000000
vn -0.000023 0.000003 1.000000
vn -0.000003 0.000022 1.000000
vn 0.000009 0.000004 1.000000
vn 0.000000 0.000000 1.000000
vn 0.000105 0.000130 1.000000
vn 0.000019 0.000269 1.000000
vn 0.000012 0.000409 1.000000
vn 0.000026 0.000151 1.000000
vn 0.000407 0.000141 1.000000
vn -0.000050 0.000430 1.000000
vn 0.000028 0.000452 1.000000
vn -0.000030 0.000198 1.000000
vn 0.000054 0.000161 1.000000
vn -0.000036 0.000140 1.000000
vn -0.000103 -0.000144 1.000000
g fff017fc_00002_0004edd5_e2
f 32/48/32 70/87/70 43/47/43
f 36/51/36 48/68/48 55/77/55
f 78/40/78 77/111/77 42/38/42
f 52/73/52 42/58/42 6/12/6
f 42/58/42 41/57/41 58/80/58
f 6/12/6 58/80/58 40/56/40
f 9/24/9 21/1/21 37/52/37
f 31/42/31 33/46/33 43/60/43
f 39/121/39 87/138/87 81/124/81
f 6/12/6 40/56/40 19/34/19
f 29/39/29 78/112/78 42/58/42
f 31/42/31 43/60/43 30/41/30
f 33/45/33 32/44/32 43/61/43
f 39/121/39 88/139/88 87/138/87
f 90/141/90 20/25/20 50/71/50
f 90/141/90 46/66/46 20/25/20
f 75/40/75 74/107/74 77/111/77
f 34/49/34 72/104/72 66/91/66
f 58/1/58 41/1/41 57/1/57
f 69/44/69 33/114/33 79/115/79
f 60/82/60 44/64/44 61/84/61
f 6/12/6 42/58/42 58/80/58
f 35/50/35 62/98/62 79/15/79
f 9/24/9 48/68/48 8/23/8
f 81/124/81 89/140/89 19/34/19
f 90/141/90 21/1/21 46/66/46
f 80/52/80 21/1/21 90/117/90
f 56/78/56 36/51/36 55/77/55
f 8/1/8 48/69/48 49/70/49
f 40/119/40 81/122/81 19/34/19
f 29/39/29 42/58/42 52/73/52
f 48/68/48 9/24/9 55/77/55
f 9/24/9 37/52/37 55/77/55
f 45/65/45 62/105/62 35/50/35
f 70/102/70 44/63/44 64/87/64
f 66/91/66 60/82/60 61/84/61
f 71/103/71 60/82/60 66/91/66
f 34/48/34 66/92/66 65/90/65
f 70/101/70 64/62/64 43/44/43
f 70/102/70 61/83/61 44/63/44
f 34/49/34 69/97/69 72/104/72
f 65/90/65 61/83/61 70/102/70
f 62/105/62 68/96/68 72/104/72
f 34/63/34 65/89/65 73/94/73
f 68/96/68 67/93/67 72/104/72
f 69/97/69 62/105/62 72/104/72
f 73/106/73 70/101/70 32/44/32
f 65/90/65 66/92/66 61/83/61
f 66/91/66 72/104/72 71/103/71
f 67/93/67 60/82/60 71/103/71
f 79/50/79 62/105/62 69/97/69
f 72/104/72 67/93/67 71/103/71
f 78/112/78 75/108/75 77/58/77
f 65/89/65 70/101/70 73/106/73
f 30/40/30 43/59/43 74/107/74
f 75/108/75 30/13/30 74/58/74
f 80/126/80 37/1/37 21/139/21
f 69/98/69 34/49/34 73/15/73
f 32/16/32 69/48/69 73/95/73
f 69/48/69 32/16/32 33/15/33
f 89/140/89 50/71/50 19/34/19
f 89/140/89 90/141/90 50/71/50
f 38/118/38 88/139/88 39/121/39
f 88/139/88 38/118/38 80/126/80
f 87/138/87 89/140/89 81/124/81
f 90/141/90 88/139/88 80/1/80
g fff017fc_00002_0004edd5_e3
f 36/1/36 18/1/18 48/69/48
f 78/113/78 2/4/2 75/109/75
f 4/76/4 56/78/56 55/77/55
f 79/116/79 12/1/12 35/1/35
f 88/139/88 90/141/90 87/138/87
f 18/1/18 54/75/54 48/69/48
f 80/127/80 38/54/38 84/133/84
f 10/5/10 2/4/2 29/38/29
f 81/123/81 82/129/82 86/136/86
f 14/10/14 43/62/43 64/88/64
f 87/138/87 90/141/90 89/140/89
f 46/66/46 28/21/28 20/25/20
f 9/24/9 8/23/8 7/22/7
f 27/14/27 9/24/9 7/22/7
f 84/132/84 38/53/38 85/134/85
f 52/73/52 6/12/6 26/35/26
f 6/12/6 19/34/19 5/33/5
f 6/12/6 5/33/5 26/35/26
f 10/32/10 29/39/29 53/74/53
f 84/132/84 85/134/85 24/11/24
f 57/79/57 15/29/15 40/56/40
f 50/71/50 51/72/51 5/33/5
f 77/111/77 17/3/17 42/38/42
f 4/125/4 80/117/80 83/130/83
f 47/67/47 21/1/21 27/14/27
f 9/24/9 27/14/27 21/1/21
f 53/74/53 29/39/29 52/73/52
f 23/20/23 31/42/31 3/19/3
f 35/50/35 12/15/12 13/6/13
f 19/34/19 50/71/50 5/33/5
f 3/19/3 30/41/30 2/18/2
f 25/28/25 84/132/84 24/11/24
f 7/22/7 8/23/8 1/17/1
f 17/13/17 41/57/41 42/58/42
f 80/28/80 4/27/4 37/1/37
f 54/75/54 49/70/49 48/69/48
f 82/129/82 24/36/24 86/137/86
f 15/37/15 82/129/82 81/123/81
f 29/38/29 2/4/2 78/113/78
f 76/110/76 17/3/17 77/111/77
f 3/19/3 31/42/31 30/41/30
f 58/80/58 57/79/57 40/56/40
f 17/13/17 16/30/16 41/57/41
f 79/115/79 33/114/33 12/8/12
f 14/10/14 22/9/22 43/62/43
f 23/43/23 12/8/12 33/114/33
f 23/20/23 33/46/33 31/42/31
f 28/21/28 46/66/46 47/67/47
f 74/107/74 76/110/76 77/111/77
f 81/128/81 86/137/86 85/135/85
f 37/52/37 4/76/4 55/77/55
f 60/82/60 59/81/59 44/64/44
f 21/1/21 47/67/47 46/66/46
f 67/93/67 68/96/68 63/99/63
f 50/71/50 20/25/20 51/72/51
f 20/25/20 28/26/28 51/72/51
f 53/74/53 52/73/52 26/35/26
f 59/81/59 14/10/14 44/64/44
f 11/7/11 62/85/62 45/65/45
f 11/7/11 63/86/63 62/85/62
f 67/93/67 59/100/59 60/82/60
f 14/10/14 64/88/64 44/63/44
f 62/85/62 63/86/63 68/96/68
f 43/59/43 22/2/22 74/107/74
f 75/109/75 2/4/2 30/40/30
f 38/53/38 39/55/39 85/134/85
f 22/2/22 76/110/76 74/107/74
f 67/93/67 63/99/63 59/100/59
f 83/131/83 84/133/84 25/31/25
f 40/120/40 15/37/15 81/123/81
f 86/137/86 24/36/24 85/135/85
f 83/131/83 80/127/80 84/133/84
f 81/128/81 85/135/85 39/34/39
