# fff05ca9_00096_00372c0e
o fff05ca9_00096_00372c0e
v 3.822154 -4.644653 -0.043986
v 1.233286 1.557977 -0.042370
v -4.676388 -1.848331 0.058931
v -4.324409 -5.068374 -0.006761
v -3.383392 -6.221251 -0.034001
v -2.692100 0.406376 -0.022743
v -4.761541 -3.228391 -0.006746
v -2.586228 -7.636811 0.061075
v -0.595326 -6.619010 0.026780
v 0.486895 -6.284608 -0.017460
v 1.705505 1.071071 -0.031248
v 3.070242 -2.244868 0.005893
v 3.573472 -3.287794 -0.023528
v 1.215185 -0.223694 -0.018288
v -3.815935 -0.586414 -0.062430
v 2.376370 -1.260652 -0.056762
v 4.046341 -4.467135 -0.078132
v 1.429096 1.879365 -0.042371
v -4.923284 -1.585303 0.058928
v -4.708613 -5.231233 -0.006760
v -3.664320 -6.590207 -0.034001
v -3.014587 0.671247 -0.022744
v -5.144910 -3.067888 -0.006750
v -3.001459 -7.998823 0.082443
v 2.040129 1.117288 -0.031248
v 3.430271 -2.232158 0.005893
v 3.969288 -3.368693 -0.023528
v 1.456210 0.004360 -0.018287
v -4.138172 -0.456647 -0.062434
v 2.667485 -1.153131 -0.056762
v -3.672223 -3.920225 -0.006725
v -3.091121 -3.912042 -0.001941
v -2.351808 -4.304583 -0.001935
v -0.901312 -3.971996 0.130701
v -3.007166 -3.564943 0.023167
v -2.210675 -3.979619 0.023171
v -0.679342 -3.720867 0.155810
v -2.589260 0.432555 0.061857
v -1.705378 1.925934 0.039045
v -3.547454 1.074667 -0.029334
v -2.519057 2.444288 0.011232
v 5.298672 -11.421251 -0.053966
v -1.986916 -11.033986 0.086998
v -0.643069 -12.526884 0.115453
v 1.018230 -12.596826 -0.054601
v 2.451926 -12.367856 -0.024839
v 4.432934 -6.207666 -0.035788
v 6.055129 -9.684281 -0.053955
v 6.103378 -10.540373 -0.053975
v 4.643223 -7.331856 -0.068586
v 5.585124 -8.688292 -0.081209
v 5.634453 -11.516962 -0.053961
v -3.001890 -9.510386 0.070611
v -2.283422 -11.208205 0.068043
v -0.798993 -12.881567 0.115452
v 1.078907 -12.948047 -0.054602
v 2.588186 -12.718839 -0.024843
v 4.701844 -6.003220 -0.035787
v 6.286248 -9.491580 -0.053951
v 6.673860 -10.671086 -0.053973
v 4.920177 -7.149123 -0.146892
v 5.783480 -8.449618 -0.081209
v -2.708944 -8.977278 0.003937
v -1.763036 -9.346559 -0.021037
v 0.270296 -9.902684 -0.038850
v 1.573218 -9.557425 0.013865
v -1.805718 -8.613112 0.001566
v 0.288542 -9.171659 -0.036860
v 1.688607 -8.870889 -0.013441
vt 2.238466 0.611535
vt -0.141022 0.801060
vt -0.131637 -0.295802
vt 1.216843 -0.065229
vt 0.470966 -0.192764
vt 1.567640 0.053445
vt 2.067060 0.380353
vt 1.518349 0.668892
vt 0.905644 0.717694
vt 0.477836 0.751768
vt -0.133734 -0.050666
vt -0.137684 0.410923
vt -0.139370 0.608057
vt -0.135761 0.186166
vt 1.427256 0.005953
vt 0.880151 -0.125432
vt -0.136759 0.302806
vt -3.764244 0.010667
vt -3.382736 0.010667
vt -1.407434 0.010667
vt 0.501973 0.010667
vt -1.807411 0.010667
vt 1.152100 0.010667
vt 2.460683 0.010667
vt 0.768006 -0.002934
vt 3.472157 0.010667
vt 3.860850 0.010667
vt 2.792601 0.010667
vt 4.359999 0.010667
vt -2.214788 0.010667
vt -3.046350 0.010667
vt -2.652917 0.010667
vt -3.662432 0.212010
vt -1.305622 0.212010
vt 1.253912 0.212010
vt 3.573969 0.246608
vt 4.461812 0.212010
vt 0.297202 0.212010
vt 2.894413 0.212010
vt 3.962662 0.212010
vt -1.705599 0.212010
vt -2.944538 0.212010
vt -3.280923 0.212010
vt -2.112976 0.212010
vt 2.562495 0.212010
vt 0.869818 0.198409
vt -2.551105 0.212010
vt 4.686758 0.212010
vt 4.774612 0.010667
vt 1.635491 0.154176
vt 0.949449 0.281832
vt 0.834473 0.336981
vt 0.520490 0.401797
vt 0.873537 0.275140
vt 0.724235 0.333102
vt 0.436034 0.389077
vt 0.497897 0.489006
vt 0.017267 0.534397
vt 0.004454 0.249427
vt 0.497769 0.249427
vt 2.238466 0.611535
vt -0.141022 0.801060
vt -0.131637 -0.295802
vt 1.216843 -0.065229
vt 0.470966 -0.192764
vt 1.518349 0.668892
vt 0.905644 0.717694
vt 0.477836 0.751768
vt -0.133734 -0.050666
vt -0.137684 0.410923
vt -0.139370 0.608057
vt -0.135761 0.186166
vt 1.427256 0.005953
vt 0.870505 -0.124448
vt -0.136759 0.302806
vt -3.764244 0.010667
vt -3.382736 0.010667
vt -4.737105 0.010667
vt -1.407434 0.010667
vt -1.807411 0.010667
vt 3.231018 0.010667
vt -6.034396 0.043549
vt -5.290658 0.043549
vt -2.214788 0.010667
vt -3.046350 0.010667
vt -2.652917 0.010667
vt -3.662432 0.212010
vt -1.305622 0.212010
vt 3.332830 0.212010
vt -5.932583 0.244892
vt -5.188844 0.244892
vt -4.635293 0.212010
vt -1.705599 0.212010
vt -2.944538 0.212010
vt -3.280923 0.212010
vt -2.112976 0.212010
vt -2.551105 0.212010
vt 3.737001 0.212010
vt 3.824856 0.010667
vt 1.635491 0.154176
vt 0.949449 0.281832
vt 0.834473 0.336981
vt 0.520490 0.401797
vt 0.873537 0.275140
vt 0.724235 0.333102
vt 0.436034 0.389077
vt -0.152942 0.221872
vt 0.958065 0.000926
vt 0.054749 -0.017805
vt 0.569183 0.325962
vt 0.536477 0.070068
vt 0.965801 0.196381
vt -0.443661 0.014139
vt 0.569183 0.325962
vt 0.958065 0.000926
vt -0.443661 0.014139
vt -0.369056 0.223305
vn 0.053261 0.008680 0.998543
vn -0.001608 0.005789 0.999982
vn -0.007881 0.004054 0.999961
vn 0.007307 -0.010632 0.999917
vn -0.051225 0.005946 0.998669
vn -0.004387 -0.013830 0.999895
vn -0.075464 -0.025233 0.996829
vn 0.013558 0.001764 0.999906
vn 0.025963 -0.016698 0.999524
vn 0.036807 -0.019575 0.999131
vn -0.004865 0.015617 0.999866
vn 0.010945 0.025512 0.999615
vn 0.010763 -0.021993 0.999700
vn 0.008180 -0.001340 0.999966
vn -0.003572 0.042100 0.999107
vn 0.003089 0.022525 0.999741
vn 0.148087 0.003210 0.988969
vn -0.004359 0.002657 0.999987
vn 0.030313 0.026136 0.999199
vn 0.004228 -0.007834 0.999960
vn -0.035784 0.027245 0.998988
vn -0.008735 -0.010852 0.999903
vn -0.011362 -0.027119 0.999568
vn 0.031562 0.017393 0.999350
vn -0.003786 0.013747 0.999898
vn -0.000069 0.001930 0.999998
vn 0.008662 -0.021821 0.999724
vn -0.002838 0.003612 0.999989
vn 0.016410 0.034332 0.999276
vn -0.006033 0.022587 0.999727
vn 0.004304 -0.025592 0.999663
vn -0.017018 -0.039060 0.999092
vn -0.045790 -0.007690 0.998922
vn -0.023250 -0.035495 0.999099
vn -0.006614 -0.031797 0.999472
vn -0.041371 -0.010676 0.999087
vn -0.009878 0.014028 0.999853
vn -0.056985 0.027103 0.998007
vn -0.017747 0.025772 0.999510
vn -0.076264 0.027743 0.996702
vn -0.039446 0.026513 0.998870
vn 0.007872 -0.000123 0.999969
vn -0.005411 0.016380 0.999851
vn 0.032388 -0.005286 0.999461
vn 0.062456 -0.089726 0.994006
vn -0.018417 0.036327 0.999170
vn -0.048891 -0.050010 0.997551
vn 0.003309 0.010233 0.999942
vn 0.006535 -0.001543 0.999977
vn 0.093636 0.037607 0.994896
vn 0.002257 0.015833 0.999872
vn 0.000916 0.003267 0.999994
vn 0.108747 0.044423 0.993076
vn -0.051616 -0.020781 0.998451
vn 0.035947 -0.018580 0.999181
vn 0.036143 0.002492 0.999344
vn -0.004286 -0.001046 0.999990
vn 0.028306 -0.025673 0.999269
vn -0.009394 0.011244 0.999893
vn -0.000006 -0.000005 1.000000
vn 0.203934 0.075020 0.976106
vn 0.007866 0.015473 0.999849
vn 0.174949 -0.024632 0.984269
vn 0.027254 0.016712 0.999489
vn -0.022252 0.038728 0.999002
vn -0.005847 0.033339 0.999427
vn 0.018447 -0.031694 0.999327
vn -0.008828 -0.010044 0.999911
vn 0.003981 0.015839 0.999867
g fff05ca9_00096_00372c0e_e0
f 47/93/47 61/84/61 58/80/58
f 8/114/8 24/111/24 53/115/53
f 27/19/27 13/43/13 1/33/1
f 1/33/1 17/18/17 27/19/27
f 14/44/14 30/32/30 28/30/28
f 30/32/30 14/44/14 16/47/16
f 2/34/2 22/21/22 6/38/6
f 22/21/22 2/34/2 18/20/18
f 11/41/11 25/22/25 2/34/2
f 18/20/18 2/34/2 25/22/25
f 8/110/8 53/108/53 63/112/63
f 53/116/53 43/107/43 63/117/63
f 3/35/3 15/46/15 29/25/29
f 29/25/29 19/23/19 3/35/3
f 44/98/44 43/89/43 55/99/55
f 54/81/54 55/99/55 43/89/43
f 7/39/7 23/28/23 4/36/4
f 20/26/20 4/36/4 23/28/23
f 8/48/8 5/37/5 24/49/24
f 21/29/21 24/49/24 5/37/5
f 4/40/4 20/27/20 5/37/5
f 21/29/21 5/37/5 20/27/20
f 15/46/15 6/38/6 29/25/29
f 22/21/22 29/25/29 6/38/6
f 3/45/3 19/24/19 7/39/7
f 23/28/23 7/39/7 19/24/19
f 12/42/12 26/31/26 30/32/30
f 30/32/30 16/47/16 12/42/12
f 38/59/38 39/60/39 41/57/41
f 41/57/41 40/58/40 38/59/38
f 28/30/28 11/41/11 14/44/14
f 11/41/11 28/30/28 25/22/25
f 27/19/27 12/42/12 13/43/13
f 12/42/12 27/19/27 26/31/26
f 50/96/50 62/86/62 61/84/61
f 62/86/62 50/96/50 51/97/51
f 60/77/60 49/95/49 42/87/42
f 42/87/42 52/76/52 60/77/60
f 57/78/57 42/87/42 46/92/46
f 42/87/42 57/78/57 52/76/52
f 48/94/48 59/85/59 62/86/62
f 62/86/62 51/97/51 48/94/48
f 47/93/47 58/80/58 1/88/1
f 17/79/17 1/88/1 58/80/58
f 45/91/45 56/83/56 57/78/57
f 57/78/57 46/92/46 45/91/45
f 48/94/48 60/77/60 59/85/59
f 60/77/60 48/94/48 49/95/49
f 43/107/43 53/113/53 54/109/54
f 61/84/61 47/93/47 50/96/50
f 44/90/44 55/82/55 56/83/56
f 56/83/56 45/91/45 44/90/44
g fff05ca9_00096_00372c0e_e1
f 13/13/13 8/8/8 9/9/9
f 64/101/64 68/105/68 67/104/67
f 15/16/15 3/4/3 14/14/14
f 3/4/3 31/50/31 35/54/35
f 69/106/69 48/70/48 51/75/51
f 34/53/34 8/8/8 13/13/13
f 5/1/5 8/8/8 32/51/32
f 13/13/13 9/9/9 10/10/10
f 13/13/13 10/10/10 1/2/1
f 6/5/6 14/14/14 2/3/2
f 2/3/2 14/14/14 11/11/11
f 33/52/33 8/8/8 34/53/34
f 32/51/32 8/8/8 33/52/33
f 7/6/7 4/7/4 3/15/3
f 6/5/6 15/16/15 14/14/14
f 31/50/31 5/1/5 32/51/32
f 3/15/3 4/7/4 31/50/31
f 31/50/31 4/7/4 5/1/5
f 35/54/35 16/17/16 14/14/14
f 3/4/3 35/54/35 14/14/14
f 36/55/36 37/56/37 16/17/16
f 36/55/36 16/17/16 35/54/35
f 34/53/34 13/13/13 12/12/12
f 37/56/37 12/12/12 16/17/16
f 32/51/32 36/55/36 35/54/35
f 31/50/31 32/51/32 35/54/35
f 33/52/33 34/53/34 36/55/36
f 33/52/33 36/55/36 32/51/32
f 36/55/36 34/53/34 37/56/37
f 34/53/34 12/12/12 37/56/37
f 49/71/49 44/66/44 45/67/45
f 8/73/8 63/100/63 67/104/67
f 10/74/10 9/64/9 69/106/69
f 9/64/9 8/73/8 67/104/67
f 68/105/68 66/103/66 69/106/69
f 66/103/66 44/66/44 49/71/49
f 43/61/43 44/66/44 63/100/63
f 49/71/49 45/67/45 46/68/46
f 49/71/49 46/68/46 42/62/42
f 10/65/10 69/72/69 1/63/1
f 1/63/1 50/72/50 47/69/47
f 65/102/65 44/66/44 66/103/66
f 64/101/64 44/66/44 65/102/65
f 63/100/63 64/101/64 67/104/67
f 66/103/66 48/70/48 69/106/69
f 63/100/63 44/66/44 64/101/64
f 65/102/65 66/103/66 68/105/68
f 65/102/65 68/105/68 64/101/64
f 9/64/9 67/104/67 68/105/68
f 69/106/69 9/64/9 68/105/68
f 50/72/50 69/106/69 51/75/51
f 1/74/1 69/106/69 50/72/50
f 66/103/66 49/71/49 48/70/48
