# fff0a81b_00227_005c7324
o fff0a81b_00227_005c7324
v -0.966217 -0.020015 -0.078819
v -0.793610 -0.015254 -0.078819
v 0.966217 -0.020015 2.517433
v 0.610443 -0.025386 0.753204
v 0.610443 -0.025386 0.711540
v 0.564911 -0.025386 0.711540
v -0.536163 -0.025386 0.025261
v -0.581635 -0.025386 0.025261
v -0.536163 -0.025386 -0.016396
v -0.581635 -0.025386 -0.016396
v 0.610443 -0.025386 0.025261
v 0.564972 -0.025386 0.025261
v 0.610443 -0.025386 -0.016396
v 0.564972 -0.025386 -0.016396
v 0.668549 -0.014522 0.799652
v 0.517731 -0.014522 0.799652
v 0.659210 0.061040 -2.369133
v 0.659210 0.061040 -0.081413
v -0.793549 -0.015254 -2.517433
v -0.793610 -0.015254 -0.081413
v -0.639130 0.061040 -0.081413
v 0.813629 -0.073970 -0.081413
v 0.659210 -0.073970 -0.081413
v -0.793610 -0.073970 -0.081413
v -0.639130 -0.073970 -0.081413
v 0.966156 -0.020015 -0.078819
v 0.804413 -0.020015 -0.078819
v -0.536163 -0.025386 0.753204
v -0.581696 -0.025386 0.753204
v -0.536163 -0.025386 0.711540
v 0.564911 -0.025386 0.753204
v 0.509491 -0.014522 -0.171936
v 0.668549 -0.014522 -0.082680
v -0.478912 -0.014522 -0.166901
v -0.654633 -0.014522 -0.082680
v -0.639130 0.061040 -2.369133
v 0.813690 -0.015254 -2.517433
v 0.659210 -0.073970 -2.369133
v 0.813690 -0.073970 -2.517433
v -0.639130 -0.073970 -2.369133
v -0.793549 -0.073970 -2.517433
v -0.170929 -0.023799 -1.711739
v -0.170929 -0.023799 -1.602280
v -0.654633 -0.014522 -2.376511
v 0.668610 -0.014522 -2.376511
v -0.504181 -0.014522 -2.247139
v 0.534576 -0.014522 -2.242813
v 0.314545 -0.023738 -1.097809
v 0.607025 -0.074763 -1.097809
v 0.314545 -0.023738 -1.170815
v 0.607025 -0.023799 -1.170815
v 0.607025 -0.074763 -1.170815
v 0.607025 -0.023799 -1.097809
v 0.194977 -0.023799 -1.602280
v 0.194916 -0.023799 -1.711739
v -0.536163 -0.025386 -0.913437
v -0.581696 -0.025386 -0.871773
v 0.610443 -0.025386 -0.913437
v 0.610443 -0.025386 -0.871773
v 0.564911 -0.025386 -0.913437
v 0.564911 -0.025386 -0.871773
v -0.487274 -0.014522 -0.959885
v -0.654633 -0.014522 -0.959885
v -0.536163 -0.025386 -0.871773
v -0.581696 -0.025386 -0.913437
v -0.536163 -0.025386 -0.185493
v -0.536163 -0.025386 -0.143837
v -0.581635 -0.025386 -0.185493
v -0.581635 -0.025386 -0.143837
v 0.610443 -0.025386 -0.185493
v 0.610443 -0.025386 -0.143837
v 0.564972 -0.025386 -0.185493
v 0.564972 -0.025386 -0.143837
v 0.668549 -0.014522 -0.959885
v 0.517731 -0.014522 -0.959885
v 0.659210 0.061040 2.208900
v 0.659210 0.061040 -0.078819
v -0.793610 -0.015254 -0.078819
v -0.639130 0.061040 2.208900
v 0.813629 -0.073970 -0.078819
v 0.659210 -0.073970 -0.078819
v -0.793610 -0.073970 -0.078819
v 0.509491 -0.014522 0.011703
v -0.478912 -0.014522 0.006668
v 0.668549 -0.014522 -0.077553
v -0.654633 -0.014522 -0.077553
v -0.793549 -0.015254 2.357201
v 0.813690 -0.015254 2.357201
v 0.659210 -0.073970 2.208900
v -0.639130 -0.073970 2.208900
v -0.639130 -0.073970 -0.078819
v -0.793549 -0.015254 2.357201
v -0.966156 -0.020015 2.517433
v -0.654633 -0.014522 2.216282
v 0.668610 -0.014522 2.216282
v -0.504181 -0.014522 2.086906
v 0.534576 -0.014522 2.082581
v 0.314545 -0.023738 0.937576
v 0.607025 -0.074763 0.937576
v 0.314545 -0.023738 1.010582
v 0.607025 -0.074763 1.010582
v 0.607025 -0.023799 1.010582
v 0.607025 -0.023799 0.937576
v 0.813690 -0.073970 2.357201
v -0.793549 -0.073970 2.357201
v 0.804474 -0.020015 2.347771
v -0.170929 -0.023799 1.551510
v 0.194977 -0.023799 1.442051
v -0.170929 -0.023799 1.442051
v 0.194916 -0.023799 1.551510
v -0.581696 -0.025386 0.711540
v -0.487274 -0.014522 0.799652
v -0.654633 -0.014522 0.799652
v 1.088012 -2.908081 -0.078819
v 0.915405 -2.912842 -0.078819
v -0.844361 -2.908081 2.517433
v -0.488648 -2.902710 0.753204
v -0.488648 -2.902710 0.711540
v -0.443116 -2.902710 0.711540
v 0.657959 -2.902710 0.025261
v 0.703491 -2.902710 0.025261
v 0.657959 -2.902710 -0.016396
v 0.703491 -2.902710 -0.016396
v -0.488648 -2.902710 0.025261
v -0.443116 -2.902710 0.025261
v -0.488648 -2.902710 -0.016396
v -0.443116 -2.902710 -0.016396
v -0.546753 -2.913574 0.799652
v -0.395874 -2.913574 0.799652
v -0.537354 -2.989136 -2.369133
v -0.537354 -2.989136 -0.081413
v 0.915405 -2.912842 -2.517433
v 0.760986 -2.989136 -0.081413
v -0.691773 -2.912842 -0.081413
v -0.691773 -2.854126 -0.081413
v -0.537354 -2.854126 -0.081413
v 0.915405 -2.854126 -0.081413
v 0.760986 -2.854126 -0.081413
v -0.844361 -2.908081 -0.078819
v -0.682617 -2.908081 -0.078819
v 0.657959 -2.902710 0.753204
v 0.703491 -2.902710 0.753204
v 0.657959 -2.902710 0.711540
v -0.443116 -2.902710 0.753204
v -0.387696 -2.913574 -0.171936
v -0.546753 -2.913574 -0.082680
v 0.600708 -2.913574 -0.166901
v 0.776489 -2.913574 -0.082680
v 0.760986 -2.989136 -2.369133
v -0.691895 -2.912842 -2.517433
v -0.537354 -2.854126 -2.369133
v -0.691895 -2.854126 -2.517433
v 0.760986 -2.854126 -2.369133
v 0.915405 -2.854126 -2.517433
v 0.292724 -2.904297 -1.711739
v 0.292724 -2.904297 -1.602280
v 0.776489 -2.913574 -2.376511
v -0.546753 -2.913574 -2.376511
v 0.625976 -2.913574 -2.247139
v -0.412720 -2.913574 -2.242813
v -0.192749 -2.904358 -1.097809
v -0.485230 -2.853333 -1.097809
v -0.192749 -2.904358 -1.170815
v -0.485230 -2.904297 -1.170815
v -0.485230 -2.853333 -1.170815
v -0.485230 -2.904297 -1.097809
v -0.073120 -2.904297 -1.602280
v -0.073120 -2.904297 -1.711739
v 0.657959 -2.902710 -0.913437
v 0.703491 -2.902710 -0.871773
v -0.488648 -2.902710 -0.913437
v -0.488648 -2.902710 -0.871773
v -0.443116 -2.902710 -0.913437
v -0.443116 -2.902710 -0.871773
v 0.609131 -2.913574 -0.959885
v 0.776489 -2.913574 -0.959885
v 0.657959 -2.902710 -0.871773
v 0.703491 -2.902710 -0.913437
v 0.657959 -2.902710 -0.185493
v 0.657959 -2.902710 -0.143837
v 0.703491 -2.902710 -0.185493
v 0.703491 -2.902710 -0.143837
v -0.488648 -2.902710 -0.185493
v -0.488648 -2.902710 -0.143837
v -0.443116 -2.902710 -0.185493
v -0.443116 -2.902710 -0.143837
v -0.546753 -2.913574 -0.959885
v -0.395874 -2.913574 -0.959885
v -0.537354 -2.989136 2.208900
v 0.760986 -2.989136 2.208900
v -0.691773 -2.912842 -0.078819
v -0.691773 -2.854126 -0.078819
v -0.537354 -2.854126 -0.078819
v 0.915405 -2.854126 -0.078819
v -0.387696 -2.913574 0.011703
v 0.600708 -2.913574 0.006668
v -0.546753 -2.913574 -0.077553
v 0.776489 -2.913574 -0.077553
v 0.915405 -2.912842 2.357201
v 0.760986 -2.989136 -0.078819
v -0.691895 -2.912842 2.357201
v -0.537354 -2.854126 2.208900
v 0.760986 -2.854126 2.208900
v 0.760986 -2.854126 -0.078819
v 0.915405 -2.912842 2.357201
v 1.088012 -2.908081 2.517433
v 0.776489 -2.913574 2.216282
v -0.546753 -2.913574 2.216282
v 0.625976 -2.913574 2.086906
v -0.412720 -2.913574 2.082581
v -0.192749 -2.904358 0.937576
v -0.485230 -2.853333 0.937576
v -0.192749 -2.904358 1.010582
v -0.485230 -2.853333 1.010582
v -0.485230 -2.904297 1.010582
v -0.485230 -2.904297 0.937576
v -0.691895 -2.854126 2.357201
v 0.915405 -2.854126 2.357201
v -0.682617 -2.908081 2.347771
v 0.292724 -2.904297 1.551510
v -0.073120 -2.904297 1.442051
v 0.292724 -2.904297 1.442051
v -0.073120 -2.904297 1.551510
v 0.703491 -2.902710 0.711540
v 0.609131 -2.913574 0.799652
v 0.776489 -2.913574 0.799652
v -0.971466 -3.412662 -0.078840
v -0.798859 -3.407901 -0.078840
v 0.960968 -3.412662 2.517412
v 0.605194 -3.418033 0.753183
v 0.605194 -3.418033 0.711519
v 0.559662 -3.418033 0.711519
v -0.541413 -3.418033 0.025240
v -0.586884 -3.418033 0.025240
v -0.541413 -3.418033 -0.016417
v -0.586884 -3.418033 -0.016417
v 0.605194 -3.418033 0.025240
v 0.559723 -3.418033 0.025240
v 0.605194 -3.418033 -0.016417
v 0.559723 -3.418033 -0.016417
v 0.663299 -3.407169 0.799631
v 0.512481 -3.407169 0.799631
v 0.960907 -3.412662 -0.078840
v 0.799163 -3.412662 -0.078840
v -0.541413 -3.418033 0.753183
v -0.586945 -3.418033 0.753183
v -0.541413 -3.418033 0.711519
v 0.559662 -3.418033 0.753183
v 0.653961 -3.331607 2.208879
v 0.653961 -3.331607 -0.078840
v -0.798859 -3.407901 -0.078840
v -0.644379 -3.331607 2.208879
v 0.808380 -3.466617 -0.078840
v 0.653961 -3.466617 -0.078840
v -0.798859 -3.466617 -0.078840
v 0.504242 -3.407169 0.011683
v -0.484162 -3.407169 0.006647
v 0.663299 -3.407169 -0.077574
v -0.659882 -3.407169 -0.077574
v -0.798798 -3.407901 2.357180
v 0.808441 -3.407901 2.357180
v 0.653961 -3.466617 2.208879
v -0.644379 -3.466617 2.208879
v -0.644379 -3.466617 -0.078840
v -0.798798 -3.407901 2.357180
v -0.971405 -3.412662 2.517412
v -0.659882 -3.407169 2.216261
v 0.663360 -3.407169 2.216261
v -0.509430 -3.407169 2.086885
v 0.529327 -3.407169 2.082560
v 0.309295 -3.416385 0.937555
v 0.601776 -3.467410 0.937555
v 0.309295 -3.416385 1.010561
v 0.601776 -3.467410 1.010561
v 0.601776 -3.416446 1.010561
v 0.808441 -3.466617 2.357180
v -0.798798 -3.466617 2.357180
v 0.799224 -3.412662 2.347750
v -0.176178 -3.416446 1.551489
v 0.189727 -3.416446 1.442030
v -0.176178 -3.416446 1.442030
v 0.189666 -3.416446 1.551489
v -0.586945 -3.418033 0.711519
v -0.492523 -3.407169 0.799631
v -0.659882 -3.407169 0.799631
vt 0.000000 1.000000
vt 0.000000 1.000000
vt 0.000000 1.000000
vt 0.000000 1.000000
vt 0.000000 1.000000
vt 0.000000 1.000000
vt 0.000000 1.000000
vt 0.000000 1.000000
vt 0.000000 1.000000
vt 0.000000 1.000000
vt 0.000000 1.000000
vt 0.000000 1.000000
vt 0.000000 1.000000
vt 0.000000 1.000000
vt 0.000000 1.000000
vt 0.000000 0.000000
vt 0.000000 1.000000
vt 0.000000 1.000000
vt 0.000000 1.000000
vt 0.000000 1.000000
vt 0.000000 1.000000
vt 0.000000 1.000000
vt 0.000000 1.000000
vt 0.000000 1.000000
vt 0.000000 1.000000
vt 0.000000 0.000000
vt 0.000000 0.000000
vt 0.000000 0.000000
vt 0.000000 0.000000
vt 0.000000 0.000000
vt 0.000000 0.000000
vt 0.000000 0.000000
vt 0.000000 0.000000
vn 0.027571 -0.999620 -0.000001
vn 0.027571 -0.999620 -0.000001
vn 0.000000 -1.000000 0.000000
vn 0.000000 -1.000000 0.000000
vn 0.000000 -1.000000 0.000000
vn 0.000000 -1.000000 0.000000
vn 0.000000 -1.000000 0.000000
vn 0.000000 -1.000000 0.000000
vn 0.000000 -1.000000 0.000000
vn 0.000000 -1.000000 0.000000
vn 0.000000 -1.000000 0.000000
vn 0.000000 -1.000000 0.000000
vn 0.000000 -1.000000 0.000000
vn 0.000000 -1.000000 0.000000
vn 0.000000 -1.000000 0.000000
vn 0.000000 -1.000000 0.000000
vn -0.707107 0.000000 0.707107
vn -1.000000 0.000000 0.000000
vn -0.707098 0.000000 -0.707116
vn -1.000000 0.000000 -0.000025
vn 1.000000 0.000000 0.000000
vn 0.000000 -1.000000 0.000000
vn -0.707107 -0.707107 0.000000
vn -0.707112 -0.707101 -0.000018
vn 0.707107 -0.707107 0.000000
vn 0.000000 -1.000000 0.000000
vn 0.000000 -1.000000 0.000000
vn 0.000000 -1.000000 0.000000
vn 0.000000 -1.000000 0.000000
vn 0.000000 -1.000000 0.000000
vn 0.000000 -1.000000 0.000000
vn 0.000000 -1.000000 0.000000
vn 0.000000 -1.000000 0.000000
vn 0.000000 -1.000000 0.000000
vn 0.000000 -1.000000 0.000000
vn 0.707107 0.000000 0.707107
vn 0.000000 0.000000 -1.000000
vn -0.301511 -0.904534 0.301511
vn 0.000000 -0.707101 -0.707112
vn 0.301511 -0.904534 0.301511
vn -0.577342 -0.577352 -0.577357
vn 0.000000 -1.000000 0.000000
vn 0.000000 -1.000000 0.000000
vn 0.000000 -1.000000 0.000000
vn 0.000000 -1.000000 0.000000
vn 0.000000 -1.000000 0.000000
vn 0.000000 -1.000000 0.000000
vn -0.171862 -0.985121 0.000000
vn 0.643482 -0.765461 0.000000
vn -0.170835 -0.979234 -0.109167
vn 0.707060 0.000000 -0.707154
vn 0.529245 -0.629569 -0.568808
vn 1.000000 0.000000 0.000000
vn 0.000000 -1.000000 0.000000
vn 0.000000 -1.000000 0.000000
vn 0.000000 -1.000000 0.000000
vn 0.000000 -1.000000 0.000000
vn 0.000000 -1.000000 0.000000
vn 0.000000 -1.000000 0.000000
vn 0.000000 -1.000000 0.000000
vn 0.000000 -1.000000 0.000000
vn 0.000000 -1.000000 0.000000
vn 0.000000 -1.000000 0.000000
vn 0.000000 -1.000000 0.000000
vn 0.000000 -1.000000 0.000000
vn 0.000000 -1.000000 0.000000
vn 0.000000 -1.000000 0.000000
vn 0.000000 -1.000000 0.000000
vn 0.000000 -1.000000 0.000000
vn 0.000000 -1.000000 0.000000
vn 0.000000 -1.000000 0.000000
vn 0.000000 -1.000000 0.000000
vn 0.000000 -1.000000 0.000000
vn 0.000000 -1.000000 0.000000
vn 0.000000 -1.000000 0.000000
vn -0.707107 0.000000 -0.707107
vn -1.000000 0.000000 0.000000
vn -1.000000 0.000000 0.000025
vn 0.000000 0.000000 -1.000000
vn 0.000000 -1.000000 0.000000
vn -0.707107 -0.707107 0.000000
vn -0.707113 -0.707101 0.000018
vn 0.000000 -1.000000 0.000000
vn 0.000000 -1.000000 0.000000
vn 0.000000 -1.000000 0.000000
vn 0.000000 -1.000000 0.000000
vn -0.707098 0.000000 0.707116
vn 0.000000 0.000000 1.000000
vn -0.301511 -0.904534 -0.301511
vn 0.000000 -0.948683 -0.316228
vn 0.000000 -1.000000 0.000000
vn 0.011941 -0.999787 -0.016842
vn 0.013121 -0.999819 -0.013764
vn 0.000000 -1.000000 0.000000
vn 0.000000 -1.000000 0.000000
vn 0.000000 -1.000000 0.000000
vn 0.000000 -1.000000 0.000000
vn -0.171862 -0.985121 0.000000
vn 0.643482 -0.765461 0.000000
vn -0.170835 -0.979234 0.109167
vn 0.529245 -0.629569 0.568807
vn 0.707060 0.000000 0.707154
vn 1.000000 0.000000 0.000000
vn 0.000000 -0.707101 0.707113
vn -0.577342 -0.577352 0.577357
vn -0.000060 -1.000000 -0.000631
vn 0.000000 -1.000000 0.000000
vn 0.000000 -1.000000 0.000000
vn 0.000000 -1.000000 0.000000
vn 0.000000 -1.000000 0.000000
vn 0.000000 -1.000000 0.000000
vn 0.000000 -1.000000 0.000000
vn 0.000000 -1.000000 0.000000
vn -0.027571 0.999620 0.000000
vn -0.027571 0.999620 0.000000
vn 0.000000 1.000000 0.000000
vn 0.000000 1.000000 0.000000
vn 0.000000 1.000000 0.000000
vn 0.000000 1.000000 0.000000
vn 0.000000 1.000000 0.000000
vn 0.000000 1.000000 0.000000
vn 0.000000 1.000000 0.000000
vn 0.000000 1.000000 0.000000
vn 0.000000 1.000000 0.000000
vn 0.000000 1.000000 0.000000
vn 0.000000 1.000000 0.000000
vn 0.000000 1.000000 0.000000
vn 0.000000 1.000000 0.000000
vn 0.000000 1.000000 0.000000
vn 0.707107 0.000000 0.707107
vn 1.000000 0.000000 0.000000
vn 0.000000 0.000000 -1.000000
vn -1.000000 0.000000 0.000000
vn -1.000000 0.000000 0.000050
vn -0.707096 0.707118 0.000035
vn 0.707107 0.707107 0.000000
vn 0.000000 1.000000 0.000000
vn -0.707107 0.707107 0.000000
vn 0.000000 1.000000 0.000000
vn 0.000000 1.000000 0.000000
vn 0.000000 1.000000 0.000000
vn 0.000000 1.000000 0.000000
vn 0.000000 1.000000 0.000000
vn 0.000000 1.000000 0.000000
vn 0.000000 1.000000 0.000000
vn 0.000000 1.000000 0.000000
vn 0.000000 1.000000 0.000000
vn 0.000000 1.000000 0.000000
vn -0.707107 0.000000 0.707107
vn -0.707125 0.000000 -0.707089
vn 0.301511 0.904534 0.301511
vn -0.577366 0.577348 -0.577337
vn -0.301511 0.904534 0.301511
vn 0.000000 0.707107 -0.707106
vn 0.000000 1.000000 0.000000
vn 0.000000 1.000000 0.000000
vn 0.000000 1.000000 0.000000
vn 0.000000 1.000000 0.000000
vn 0.000000 1.000000 0.000000
vn 0.000000 1.000000 0.000000
vn 0.171862 0.985121 0.000000
vn -0.643482 0.765461 0.000000
vn 0.170835 0.979234 -0.109167
vn -0.707060 0.000000 -0.707154
vn -0.529245 0.629569 -0.568808
vn -1.000000 0.000000 0.000000
vn 0.000000 1.000000 0.000000
vn 0.000000 1.000000 0.000000
vn 0.000000 1.000000 0.000000
vn 0.000000 1.000000 0.000000
vn 0.000000 1.000000 0.000000
vn 0.000000 1.000000 0.000000
vn 0.000000 1.000000 0.000000
vn 0.000000 1.000000 0.000000
vn 0.000000 1.000000 0.000000
vn 0.000000 1.000000 0.000000
vn 0.000000 1.000000 0.000000
vn 0.000000 1.000000 0.000000
vn 0.000000 1.000000 0.000000
vn 0.000000 1.000000 0.000000
vn 0.000000 1.000000 0.000000
vn 0.000000 1.000000 0.000000
vn 0.000000 1.000000 0.000000
vn 0.000000 1.000000 0.000000
vn 0.000000 1.000000 0.000000
vn 0.000000 1.000000 0.000000
vn 0.000000 1.000000 0.000000
vn 0.000000 1.000000 0.000000
vn 0.000000 0.000000 -1.000000
vn -0.707107 0.000000 -0.707107
vn -1.000000 0.000000 -0.000050
vn -0.707095 0.707118 -0.000035
vn 0.000000 1.000000 0.000000
vn 0.000000 1.000000 0.000000
vn 0.000000 1.000000 0.000000
vn 0.000000 1.000000 0.000000
vn 0.000000 1.000000 0.000000
vn 0.000000 1.000000 0.000000
vn 0.000000 0.000000 1.000000
vn -1.000000 0.000000 0.000000
vn -0.707124 0.000000 0.707089
vn 0.000000 0.948683 -0.316228
vn -0.301511 0.904534 -0.301511
vn -0.707107 0.707107 0.000000
vn -0.011941 0.999787 -0.016842
vn -0.013122 0.999819 -0.013764
vn 0.000000 1.000000 0.000000
vn 0.000000 1.000000 0.000000
vn 0.000000 1.000000 0.000000
vn 0.000000 1.000000 0.000000
vn 0.171862 0.985121 0.000000
vn -0.643482 0.765461 0.000000
vn 0.170835 0.979234 0.109167
vn -0.529245 0.629569 0.568807
vn -0.707060 0.000000 0.707154
vn -1.000000 0.000000 0.000000
vn -0.577366 0.577348 0.577337
vn 0.000000 0.707107 0.707107
vn 0.000060 1.000000 -0.000631
vn 0.000000 1.000000 0.000000
vn 0.000000 1.000000 0.000000
vn 0.000000 1.000000 0.000000
vn 0.000000 1.000000 0.000000
vn 0.000000 1.000000 0.000000
vn 0.000000 1.000000 0.000000
vn 0.000000 1.000000 0.000000
vn 0.027571 -0.999620 -0.000001
vn 0.027571 -0.999620 -0.000001
vn 0.000000 -1.000000 0.000000
vn 0.000000 -1.000000 0.000000
vn 0.000000 -1.000000 0.000000
vn 0.000000 -1.000000 0.000000
vn 0.000000 -1.000000 0.000000
vn 0.000000 -1.000000 0.000000
vn 0.000000 -1.000000 0.000000
vn 0.000000 -1.000000 0.000000
vn 0.000000 -1.000000 0.000000
vn 0.000000 -1.000000 0.000000
vn 0.000000 -1.000000 0.000000
vn 0.000000 -1.000000 0.000000
vn 0.000000 -1.000000 0.000000
vn 0.000000 -1.000000 0.000000
vn 0.000000 -1.000000 0.000000
vn 0.000000 -1.000000 0.000000
vn 0.000000 -1.000000 0.000000
vn 0.000000 -1.000000 0.000000
vn 0.000000 -1.000000 0.000000
vn 0.000000 -1.000000 0.000000
vn -0.707107 0.000000 -0.707107
vn -1.000000 0.000000 0.000000
vn -1.000000 0.000000 0.000025
vn 0.000000 0.000000 -1.000000
vn 0.000000 -1.000000 0.000000
vn -0.707107 -0.707107 0.000000
vn -0.707113 -0.707101 0.000018
vn 0.000000 -1.000000 0.000000
vn 0.000000 -1.000000 0.000000
vn 0.000000 -1.000000 0.000000
vn 0.000000 -1.000000 0.000000
vn -0.707098 0.000000 0.707115
vn 0.000000 0.000000 1.000000
vn -0.301511 -0.904534 -0.301511
vn 0.000000 -0.948683 -0.316228
vn 0.000000 -1.000000 0.000000
vn 0.011941 -0.999787 -0.016842
vn 0.013121 -0.999819 -0.013764
vn 0.000000 -1.000000 0.000000
vn 0.000000 -1.000000 0.000000
vn 0.000000 -1.000000 0.000000
vn 0.000000 -1.000000 0.000000
vn -0.171862 -0.985121 0.000000
vn -0.171862 -0.985121 0.000000
vn -0.170835 -0.979234 0.109167
vn -0.128377 -0.735867 0.664846
vn 0.000000 0.000000 1.000000
vn 0.000000 -0.707101 0.707113
vn -0.577342 -0.577352 0.577357
vn -0.000060 -1.000000 -0.000631
vn 0.000000 -1.000000 0.000000
vn 0.000000 -1.000000 0.000000
vn 0.000000 -1.000000 0.000000
vn 0.000000 -1.000000 0.000000
vn 0.000000 -1.000000 0.000000
vn 0.000000 -1.000000 0.000000
vn 0.000000 -1.000000 0.000000
g fff0a81b_00227_005c7324_e0
f 87/4/87 104/21/104 88/7/88
f 104/21/104 87/4/87 105/12/105
f 19/4/19 37/7/37 39/21/39
f 39/21/39 41/12/41 19/4/19
f 199/4/199 217/21/217 201/7/201
f 217/21/217 199/4/199 218/12/218
f 132/4/132 150/7/150 152/21/152
f 152/21/152 154/12/154 132/4/132
f 260/4/260 276/21/276 261/7/261
f 276/21/276 260/4/260 277/12/277
g fff0a81b_00227_005c7324_e3
f 86/16/86 85/16/85 84/27/84
f 84/27/84 85/16/85 83/26/83
f 76/1/76 90/11/90 79/5/79
f 90/11/90 76/1/76 89/13/89
f 16/30/16 85/16/85 15/29/15
f 112/33/112 83/26/83 16/30/16
f 86/16/86 84/27/84 112/33/112
f 112/33/112 113/28/113 86/16/86
f 83/26/83 85/16/85 16/30/16
f 84/27/84 83/26/83 112/33/112
f 35/16/35 34/27/34 33/16/33
f 34/27/34 32/26/32 33/16/33
f 17/1/17 36/5/36 40/11/40
f 40/11/40 38/13/38 17/1/17
f 75/30/75 74/29/74 33/16/33
f 62/33/62 75/30/75 32/26/32
f 35/16/35 62/33/62 34/27/34
f 62/33/62 35/16/35 63/28/63
f 32/26/32 75/30/75 33/16/33
f 34/27/34 62/33/62 32/26/32
f 198/16/198 197/16/197 196/27/196
f 196/27/196 197/16/197 195/26/195
f 189/1/189 203/11/203 190/5/190
f 203/11/203 189/1/189 202/13/202
f 129/30/129 197/16/197 128/29/128
f 225/33/225 195/26/195 129/30/129
f 198/16/198 196/27/196 225/33/225
f 225/33/225 226/28/226 198/16/198
f 195/26/195 197/16/197 129/30/129
f 196/27/196 195/26/195 225/33/225
f 148/16/148 147/27/147 146/16/146
f 147/27/147 145/26/145 146/16/146
f 130/1/130 149/5/149 153/11/153
f 153/11/153 151/13/151 130/1/130
f 188/30/188 187/29/187 146/16/146
f 175/33/175 188/30/188 145/26/145
f 148/16/148 175/33/175 147/27/147
f 175/33/175 148/16/148 176/28/176
f 145/26/145 188/30/188 146/16/146
f 147/27/147 175/33/175 145/26/145
f 259/16/259 258/16/258 257/27/257
f 257/27/257 258/16/258 256/26/256
f 249/1/249 263/11/263 252/5/252
f 263/11/263 249/1/249 262/13/262
f 242/30/242 258/16/258 241/29/241
f 284/33/284 256/26/256 242/30/242
f 259/16/259 257/27/257 284/33/284
f 284/33/284 285/28/285 259/16/259
f 256/26/256 258/16/258 242/30/242
f 257/27/257 256/26/256 284/33/284
g fff0a81b_00227_005c7324_e2
f 101/20/101 98/17/98 99/18/99
f 101/20/101 100/19/100 98/17/98
f 250/2/250 262/13/262 249/1/249
f 262/13/262 250/2/250 254/22/254
f 260/4/260 255/9/255 277/12/277
f 255/9/255 260/4/260 251/3/251
f 82/9/82 87/4/87 78/3/78
f 87/4/87 82/9/82 105/12/105
f 89/13/89 77/2/77 81/22/81
f 77/2/77 89/13/89 76/1/76
f 52/20/52 49/18/49 48/17/48
f 52/20/52 48/17/48 50/19/50
f 274/20/274 273/19/273 271/17/271
f 274/20/274 271/17/271 272/18/272
f 21/6/21 40/11/40 36/5/36
f 40/11/40 21/6/21 25/10/25
f 24/9/24 20/3/20 19/4/19
f 19/4/19 41/12/41 24/9/24
f 38/13/38 23/22/23 18/2/18
f 18/2/18 17/1/17 38/13/38
f 214/20/214 211/17/211 212/18/212
f 214/20/214 213/19/213 211/17/211
f 192/14/192 191/8/191 201/7/201
f 201/7/201 217/21/217 192/14/192
f 200/6/200 190/5/190 203/11/203
f 203/11/203 204/10/204 200/6/200
f 131/2/131 130/1/130 151/13/151
f 151/13/151 136/22/136 131/2/131
f 153/11/153 133/6/133 138/10/138
f 133/6/133 153/11/153 149/5/149
f 165/20/165 162/18/162 161/17/161
f 165/20/165 161/17/161 163/19/163
f 135/14/135 150/7/150 134/8/134
f 150/7/150 135/14/135 152/21/152
g fff0a81b_00227_005c7324_e1
f 105/12/105 91/10/91 90/11/90
f 91/10/91 105/12/105 82/9/82
f 104/21/104 89/13/89 81/22/81
f 81/22/81 80/14/80 104/21/104
f 89/13/89 105/12/105 90/11/90
f 105/12/105 89/13/89 104/21/104
f 103/23/103 102/25/102 101/20/101
f 100/19/100 101/20/101 102/25/102
f 101/20/101 99/18/99 103/23/103
f 41/12/41 40/11/40 25/10/25
f 25/10/25 24/9/24 41/12/41
f 39/21/39 23/22/23 38/13/38
f 23/22/23 39/21/39 22/14/22
f 38/13/38 40/11/40 41/12/41
f 41/12/41 39/21/39 38/13/38
f 53/23/53 52/20/52 51/25/51
f 50/19/50 51/25/51 52/20/52
f 52/20/52 53/23/53 49/18/49
f 218/12/218 204/10/204 203/11/203
f 204/10/204 218/12/218 194/9/194
f 217/21/217 202/13/202 193/22/193
f 193/22/193 192/14/192 217/21/217
f 202/13/202 218/12/218 203/11/203
f 218/12/218 202/13/202 217/21/217
f 216/23/216 215/25/215 214/20/214
f 213/19/213 214/20/214 215/25/215
f 214/20/214 212/18/212 216/23/216
f 154/12/154 153/11/153 138/10/138
f 138/10/138 137/9/137 154/12/154
f 152/21/152 136/22/136 151/13/151
f 136/22/136 152/21/152 135/14/135
f 151/13/151 153/11/153 154/12/154
f 154/12/154 152/21/152 151/13/151
f 166/23/166 165/20/165 164/25/164
f 163/19/163 164/25/164 165/20/165
f 165/20/165 166/23/166 162/18/162
f 277/12/277 264/10/264 263/11/263
f 264/10/264 277/12/277 255/9/255
f 276/21/276 262/13/262 254/22/254
f 254/22/254 253/14/253 276/21/276
f 262/13/262 277/12/277 263/11/263
f 277/12/277 262/13/262 276/21/276
f 273/19/273 274/20/274 275/25/275
g fff0a81b_00227_005c7324_e4
f 110/25/110 109/24/109 108/23/108
f 110/25/110 107/15/107 109/24/109
f 27/22/27 26/14/26 3/21/3
f 3/21/3 106/13/106 27/22/27
f 93/12/93 106/13/106 3/21/3
f 106/13/106 93/12/93 92/11/92
f 93/12/93 2/10/2 92/11/92
f 2/10/2 93/12/93 1/9/1
f 55/25/55 54/23/54 43/24/43
f 55/25/55 43/24/43 42/15/42
f 223/25/223 222/24/222 221/23/221
f 223/25/223 220/15/220 222/24/222
f 140/22/140 139/14/139 116/21/116
f 116/21/116 219/13/219 140/22/140
f 206/12/206 219/13/219 116/21/116
f 219/13/219 206/12/206 205/11/205
f 206/12/206 115/10/115 205/11/205
f 115/10/115 206/12/206 114/9/114
f 168/25/168 167/23/167 156/24/156
f 168/25/168 156/24/156 155/15/155
f 282/25/282 281/24/281 280/23/280
f 282/25/282 279/15/279 281/24/281
f 244/22/244 243/14/243 229/21/229
f 229/21/229 278/13/278 244/22/244
f 266/12/266 278/13/278 229/21/229
f 278/13/278 266/12/266 265/11/265
f 266/12/266 228/10/228 265/11/265
f 228/10/228 266/12/266 227/9/227
g fff0a81b_00227_005c7324_e5
f 97/32/97 96/31/96 16/30/16
f 15/29/15 97/32/97 16/30/16
f 95/16/95 94/16/94 96/31/96
f 96/31/96 94/16/94 113/28/113
f 113/28/113 112/33/112 96/31/96
f 16/30/16 96/31/96 112/33/112
f 95/16/95 97/32/97 15/29/15
f 95/16/95 96/31/96 97/32/97
f 14/27/14 13/26/13 12/33/12
f 12/33/12 13/26/13 11/30/11
f 10/27/10 9/26/9 8/33/8
f 8/33/8 9/26/9 7/30/7
f 6/27/6 5/26/5 31/33/31
f 31/33/31 5/26/5 4/30/4
f 111/27/111 30/26/30 29/33/29
f 29/33/29 30/26/30 28/30/28
f 47/32/47 75/30/75 46/31/46
f 74/29/74 75/30/75 47/32/47
f 45/16/45 46/31/46 44/16/44
f 46/31/46 63/28/63 44/16/44
f 63/28/63 46/31/46 62/33/62
f 75/30/75 62/33/62 46/31/46
f 45/16/45 74/29/74 47/32/47
f 45/16/45 47/32/47 46/31/46
f 73/27/73 72/33/72 71/26/71
f 72/33/72 70/30/70 71/26/71
f 69/27/69 68/33/68 67/26/67
f 68/33/68 66/30/66 67/26/67
f 61/27/61 60/33/60 59/26/59
f 60/33/60 58/30/58 59/26/59
f 57/27/57 65/33/65 64/26/64
f 65/33/65 56/30/56 64/26/64
f 210/32/210 209/31/209 129/30/129
f 128/29/128 210/32/210 129/30/129
f 208/16/208 207/16/207 209/31/209
f 209/31/209 207/16/207 226/28/226
f 226/28/226 225/33/225 209/31/209
f 129/30/129 209/31/209 225/33/225
f 208/16/208 210/32/210 128/29/128
f 208/16/208 209/31/209 210/32/210
f 127/27/127 126/26/126 125/33/125
f 125/33/125 126/26/126 124/30/124
f 123/27/123 122/26/122 121/33/121
f 121/33/121 122/26/122 120/30/120
f 119/27/119 118/26/118 144/33/144
f 144/33/144 118/26/118 117/30/117
f 224/27/224 143/26/143 142/33/142
f 142/33/142 143/26/143 141/30/141
f 160/32/160 188/30/188 159/31/159
f 187/29/187 188/30/188 160/32/160
f 158/16/158 159/31/159 157/16/157
f 159/31/159 176/28/176 157/16/157
f 176/28/176 159/31/159 175/33/175
f 188/30/188 175/33/175 159/31/159
f 158/16/158 187/29/187 160/32/160
f 158/16/158 160/32/160 159/31/159
f 186/27/186 185/33/185 184/26/184
f 185/33/185 183/30/183 184/26/184
f 182/27/182 181/33/181 180/26/180
f 181/33/181 179/30/179 180/26/180
f 174/27/174 173/33/173 172/26/172
f 173/33/173 171/30/171 172/26/172
f 170/27/170 178/33/178 177/26/177
f 178/33/178 169/30/169 177/26/177
f 270/32/270 269/31/269 242/30/242
f 241/29/241 270/32/270 242/30/242
f 268/16/268 267/16/267 269/31/269
f 269/31/269 267/16/267 285/28/285
f 285/28/285 284/33/284 269/31/269
f 242/30/242 269/31/269 284/33/284
f 268/16/268 270/32/270 241/29/241
f 268/16/268 269/31/269 270/32/270
f 240/27/240 239/26/239 238/33/238
f 238/33/238 239/26/239 237/30/237
f 236/27/236 235/26/235 234/33/234
f 234/33/234 235/26/235 233/30/233
f 232/27/232 231/26/231 248/33/248
f 248/33/248 231/26/231 230/30/230
f 283/27/283 247/26/247 246/33/246
f 246/33/246 247/26/247 245/30/245
