# fff06920_00033_0009e21e
o fff06920_00033_0009e21e
v -24.486938 14.963863 33.290886
v -24.501312 14.963863 6.403788
v -24.497589 -4.408775 33.556053
v -24.506386 -4.414603 8.837317
v -24.504421 5.021320 24.169594
v -24.503117 -4.412436 22.325047
v -24.495850 14.963863 21.014744
v -24.502262 -4.411870 25.848263
v -24.504467 5.111210 26.196514
v -24.494738 14.963863 23.985151
v -24.492867 14.963863 28.990494
v -24.503513 5.137768 28.627647
v -24.501713 -4.411507 28.115112
vt 0.519011 0.506943
vt 0.519011 0.506943
vt 0.519011 0.506943
vt 0.519011 0.506943
vt 0.519011 0.506943
vt 0.519011 0.506943
vt 0.519011 0.506943
vt 0.519011 0.506943
vt 0.519011 0.506943
vt 0.519011 0.506943
vt 0.519011 0.506943
vt 0.519011 0.506943
vt 0.519011 0.506943
vt 0.519011 0.506943
vn -0.999998 0.000903 0.001652
vn -1.000000 0.000513 0.000112
vn -0.999999 0.000012 0.001225
vn -1.000000 0.000114 0.000058
vn -1.000000 0.000319 0.000065
vn -1.000000 -0.000186 0.000242
vn -1.000000 0.001004 0.000350
vn -1.000000 -0.000200 0.000237
vn -1.000000 0.000382 0.000211
vn -0.999999 0.001071 0.000374
vn -0.999999 0.001051 0.000888
vn -0.999999 0.000471 0.001164
vn -1.000000 -0.000215 0.000491
g fff06920_00033_0009e21e_e5
f 1/1/1 12/12/12 3/3/3
f 9/1/9 10/10/10 7/7/7
f 9/9/9 7/2/7 5/5/5
f 9/9/9 5/5/5 8/8/8
f 8/8/8 5/5/5 6/6/6
f 1/1/1 11/11/11 12/12/12
f 5/1/5 7/7/7 2/4/2
f 5/5/5 2/2/2 4/4/4
f 6/6/6 5/5/5 4/4/4
f 3/3/3 12/13/12 13/14/13
f 11/11/11 10/2/10 9/9/9
f 13/14/13 12/13/12 8/8/8
f 12/12/12 11/11/11 9/9/9
f 12/13/12 9/9/9 8/8/8
