# fff0716c_00064_0037beec
o fff0716c_00064_0037beec
v 0.450000 0.000000 0.000000
v 0.415746 0.172208 0.000000
v 0.318198 0.318198 0.000000
v 0.172208 0.415746 0.000000
v -0.000000 0.450000 0.000000
v -0.172208 0.415746 0.000000
v -0.318198 0.318198 0.000000
v -0.415746 0.172208 0.000000
v -0.450000 0.000000 0.000000
v -0.415746 -0.172207 0.000000
v -0.318198 -0.318198 0.000000
v -0.172208 -0.415746 0.000000
v 0.000000 -0.450000 0.000000
v 0.172208 -0.415746 0.000000
v 0.318198 -0.318198 0.000000
v 0.415746 -0.172207 0.000000
v 0.450000 0.000000 0.750000
v 0.415746 0.172208 0.750000
v 0.318198 0.318198 0.750000
v 0.172208 0.415746 0.750000
v -0.000000 0.450000 0.750000
v -0.172208 0.415746 0.750000
v -0.318198 0.318198 0.750000
v -0.415746 0.172208 0.750000
v -0.450000 0.000000 0.750000
v -0.415746 -0.172207 0.750000
v -0.318198 -0.318198 0.750000
v -0.172208 -0.415746 0.750000
v 0.000000 -0.450000 0.750000
v 0.172208 -0.415746 0.750000
v 0.318198 -0.318198 0.750000
v 0.415746 -0.172207 0.750000
v 0.450004 0.000004 0.757562
v 0.415750 0.172212 0.757562
v 0.318202 0.318202 0.757562
v 0.172212 0.415750 0.757562
v 0.000004 0.450004 0.757562
v -0.172203 0.415750 0.757562
v -0.318194 0.318202 0.757562
v -0.415742 0.172212 0.757562
v -0.449996 0.000004 0.757562
v -0.415742 -0.172203 0.757562
v -0.318194 -0.318194 0.757562
v -0.172203 -0.415742 0.757562
v 0.000004 -0.449996 0.757562
v 0.172212 -0.415742 0.757562
v 0.318202 -0.318194 0.757562
v 0.415750 -0.172203 0.757562
v 0.418719 0.000003 0.757562
v 0.386847 0.160239 0.757562
v 0.296081 0.296080 0.757562
v 0.160240 0.386846 0.757562
v 0.000004 0.418718 0.757562
v -0.160231 0.386846 0.757562
v -0.296072 0.296080 0.757562
v -0.386838 0.160239 0.757562
v -0.418710 0.000003 0.757562
v -0.386838 -0.160232 0.757562
v -0.296072 -0.296073 0.757562
v -0.160231 -0.386839 0.757562
v 0.000004 -0.418711 0.757562
v 0.160240 -0.386839 0.757562
v 0.296081 -0.296073 0.757562
v 0.386847 -0.160232 0.757562
v -0.174358 0.420944 0.003707
v -0.322174 0.322177 0.003707
v -0.420941 0.174361 0.003707
v -0.455624 0.000000 0.003707
v -0.420941 -0.174360 0.003707
v -0.322174 -0.322176 0.003707
v -0.174358 -0.420944 0.003707
v 0.000003 -0.455626 0.003707
v -0.174358 0.420944 0.119617
v -0.322174 0.322177 0.119617
v -0.420941 0.174361 0.119617
v -0.455624 0.000000 0.119617
v -0.420941 -0.174360 0.119617
v -0.322174 -0.322176 0.119617
v -0.174358 -0.420944 0.119617
v 0.000003 -0.455626 0.119617
v 0.174364 0.420944 0.003707
v 0.322179 0.322177 0.003707
v 0.420947 0.174361 0.003707
v 0.455629 0.000000 0.003707
v 0.420947 -0.174360 0.003707
v 0.322179 -0.322176 0.003707
v 0.174364 -0.420944 0.003707
v 0.174364 0.420944 0.119617
v 0.322179 0.322177 0.119617
v 0.420947 0.174361 0.119617
v 0.455629 0.000000 0.119617
v 0.420947 -0.174360 0.119617
v 0.322179 -0.322176 0.119617
v 0.174364 -0.420944 0.119617
v 0.000003 0.455626 0.003707
v 0.000003 0.455626 0.119617
v 0.000000 0.000000 0.750000
v 0.000000 -0.450000 0.375000
v 0.172208 -0.415746 0.375000
v 0.318198 -0.318198 0.375000
v 0.415746 -0.172207 0.375000
v 0.450000 0.000000 0.375000
v 0.415746 0.172208 0.375000
v 0.318198 0.318198 0.375000
v 0.172208 0.415746 0.375000
v -0.000000 0.450000 0.375000
v -0.172208 0.415746 0.375000
v -0.318198 0.318198 0.375000
v -0.415746 0.172208 0.375000
v -0.450000 0.000000 0.375000
v -0.415746 -0.172207 0.375000
v -0.318198 -0.318198 0.375000
v -0.172208 -0.415746 0.375000
v -0.163784 -0.422394 0.598488
v -0.000001 -0.454973 0.598488
v 0.163782 -0.422394 0.598488
v -0.000001 -0.454973 0.268013
v 0.163782 -0.422394 0.268013
v -0.163784 -0.422394 0.268013
vt 0.308658 0.961940
vt 0.146447 0.853553
vt 0.038060 0.691342
vt 0.000000 0.500000
vt 0.038060 0.308658
vt 0.146447 0.146447
vt 0.308658 0.038060
vt 0.500000 0.000000
vt 0.691342 0.038060
vt 0.853553 0.146446
vt 0.961940 0.308658
vt 1.000000 0.500000
vt 0.961940 0.691342
vt 0.853553 0.853554
vt 0.691342 0.961940
vt 0.500000 0.500000
vt 0.199439 0.011083
vt 0.238042 0.011083
vt 0.276645 0.011083
vt 0.315248 0.011083
vt 0.353851 0.011083
vt 0.392454 0.011083
vt 0.431057 0.011083
vt 0.469660 0.011083
vt 0.508262 0.011083
vt 0.546865 0.011083
vt 0.585468 0.011083
vt 0.624071 0.011083
vt 0.654129 0.011083
vt 0.692732 0.011083
vt 0.731335 0.011083
vt 0.769938 0.011083
vt 0.808541 0.011083
vt 0.189073 1.007624
vt 0.228006 1.007624
vt 0.266939 1.007624
vt 0.305872 1.007624
vt 0.344805 1.007624
vt 0.383738 1.007624
vt 0.422671 1.007624
vt 0.461603 1.007624
vt 0.500536 1.007624
vt 0.539469 1.007624
vt 0.578402 1.007624
vt 0.617335 1.007624
vt 0.647722 1.007624
vt 0.686655 1.007624
vt 0.725588 1.007624
vt 0.764521 1.007624
vt 0.803453 1.007624
vt 1.170471 1.407674
vt 1.170471 0.078995
vt 1.170471 2.736354
vt 1.170471 3.862755
vt 1.170471 2.736353
vt 1.170471 1.407674
vt 1.170471 0.078993
vt 1.170471 3.862755
vt 1.170471 2.736354
vt 1.170471 1.407674
vt 1.170471 0.078994
vt 1.170471 -1.047406
vt 1.170471 0.078993
vt 1.170471 1.407674
vt 1.170471 2.736355
vt 1.170471 -1.047406
vt 1.814900 1.407674
vt 1.814900 2.736354
vt 1.814900 3.862755
vt 1.814900 -1.047406
vt 1.814900 0.078995
vt 1.814900 3.862755
vt 1.814900 2.736354
vt 1.814900 1.407674
vt 1.814900 0.078994
vt 1.814900 -1.047406
vt 1.814900 3.862755
vt 1.814900 2.736353
vt 1.814900 1.407674
vt 1.814900 0.078993
vt 1.814900 -1.047407
vt 1.170471 3.862755
vt 1.170471 -1.047407
vt 1.814900 -1.047408
vt 1.814900 0.078993
vt 1.814900 1.407674
vt 1.814900 2.736355
vt 1.814900 3.862755
vt 1.170471 -1.047408
vt 1.170471 3.862755
vt 1.761024 0.226293
vt 1.761024 0.674888
vt 1.761024 1.134281
vt 1.761024 1.593673
vt 1.761024 2.038205
vt 1.170285 0.226293
vt 1.170285 0.674888
vt 1.170285 1.134281
vt 1.170285 1.593673
vt 1.170285 2.038205
vt 1.761024 -0.381322
vt 1.170285 -0.381322
vt 1.761024 2.635172
vt 1.761024 3.274375
vt 1.170285 2.635172
vt 1.170285 3.274375
vt 0.500000 0.250000
vt 0.650925 0.509353
vt 0.689693 0.509353
vt 0.728461 0.509353
vt 0.767229 0.509353
vt 0.805997 0.509353
vt 0.194256 0.509353
vt 0.233024 0.509353
vt 0.271792 0.509353
vt 0.310560 0.509353
vt 0.349328 0.509353
vt 0.388096 0.509353
vt 0.426864 0.509353
vt 0.465631 0.509353
vt 0.504399 0.509353
vt 0.543167 0.509353
vt 0.581935 0.509353
vt 0.620703 0.509353
vt 1.000008 1.007145
vt 1.498662 1.992846
vt 1.000008 1.999995
vt 1.498662 0.999995
vt 2.000008 1.006234
vt 2.000008 1.999084
vn 1.000000 0.000000 0.000000
vn 0.923880 0.382683 0.000000
vn 0.707107 0.707107 0.000000
vn 0.382683 0.923880 0.000000
vn 0.000000 1.000000 0.000000
vn -0.382684 0.923879 0.000000
vn -0.707107 0.707107 0.000000
vn -0.923879 0.382684 0.000000
vn -1.000000 0.000000 0.000000
vn -0.923880 -0.382683 0.000000
vn -0.707107 -0.707107 0.000000
vn -0.382683 -0.923880 0.000000
vn 0.000000 -1.000000 0.000000
vn 0.382684 -0.923879 0.000000
vn 0.707107 -0.707106 0.000000
vn 0.923880 -0.382683 0.000000
vn 0.746203 0.000000 0.665719
vn 0.689401 0.285559 0.665719
vn 0.527645 0.527645 0.665719
vn 0.285559 0.689401 0.665719
vn 0.000000 0.746203 0.665719
vn -0.285559 0.689401 0.665719
vn -0.527645 0.527645 0.665719
vn -0.689401 0.285559 0.665719
vn -0.746203 0.000000 0.665719
vn -0.689401 -0.285559 0.665719
vn -0.527645 -0.527645 0.665719
vn -0.285559 -0.689401 0.665719
vn 0.000000 -0.746203 0.665719
vn 0.285559 -0.689401 0.665719
vn 0.527645 -0.527645 0.665719
vn 0.689401 -0.285559 0.665719
vn 0.000000 0.000000 1.000000
vn 0.000000 0.000000 1.000000
vn 0.000000 0.000000 1.000000
vn 0.000000 0.000000 1.000000
vn 0.000000 0.000000 1.000000
vn 0.000000 0.000000 1.000000
vn 0.000000 0.000000 1.000000
vn 0.000000 0.000000 1.000000
vn 0.000000 0.000000 1.000000
vn 0.000000 0.000000 1.000000
vn 0.000000 0.000000 1.000000
vn 0.000000 0.000000 1.000000
vn 0.000000 0.000000 1.000000
vn 0.000000 0.000000 1.000000
vn 0.000000 0.000000 1.000000
vn 0.000000 0.000000 1.000000
vn 0.000000 0.000000 1.000000
vn 0.000000 0.000000 1.000000
vn 0.000000 0.000000 1.000000
vn 0.000000 0.000000 1.000000
vn 0.000000 0.000000 1.000000
vn 0.000000 0.000000 1.000000
vn 0.000000 0.000000 1.000000
vn 0.000000 0.000000 1.000000
vn 0.000000 0.000000 1.000000
vn 0.000000 0.000000 1.000000
vn 0.000000 0.000000 1.000000
vn 0.000000 0.000000 1.000000
vn 0.000000 0.000000 1.000000
vn 0.000000 0.000000 1.000000
vn 0.000000 0.000000 1.000000
vn 0.000000 0.000000 1.000000
vn -0.382684 0.923879 0.000000
vn -0.707107 0.707107 0.000000
vn -0.923880 0.382684 0.000000
vn -1.000000 0.000000 0.000000
vn -0.923880 -0.382683 0.000000
vn -0.707107 -0.707106 0.000000
vn -0.382684 -0.923879 0.000000
vn 0.000000 -1.000000 0.000000
vn -0.382684 0.923880 0.000000
vn -0.707107 0.707107 0.000000
vn -0.923880 0.382683 0.000000
vn -1.000000 0.000000 0.000000
vn -0.923880 -0.382683 0.000000
vn -0.707107 -0.707106 0.000000
vn -0.382684 -0.923879 0.000000
vn 0.000000 -1.000000 0.000000
vn 0.382684 0.923879 0.000000
vn 0.707107 0.707107 0.000000
vn 0.923880 0.382683 0.000000
vn 1.000000 0.000000 0.000000
vn 0.923880 -0.382683 0.000000
vn 0.707107 -0.707107 0.000000
vn 0.382684 -0.923879 0.000000
vn 0.382683 0.923880 0.000000
vn 0.707107 0.707107 0.000000
vn 0.923880 0.382683 0.000000
vn 1.000000 0.000000 0.000000
vn 0.923880 -0.382683 0.000000
vn 0.707107 -0.707107 0.000000
vn 0.382684 -0.923880 0.000000
vn 0.000000 1.000000 0.000000
vn 0.000000 1.000000 0.000000
vn 0.000000 0.000000 1.000000
vn 0.000000 -1.000000 0.000000
vn 0.382684 -0.923879 0.000000
vn 0.707107 -0.707107 0.000000
vn 0.923880 -0.382683 0.000000
vn 1.000000 0.000000 0.000000
vn 0.923879 0.382683 0.000000
vn 0.707107 0.707107 0.000000
vn 0.382683 0.923880 0.000000
vn 0.000000 1.000000 0.000000
vn -0.382684 0.923880 0.000000
vn -0.707107 0.707107 0.000000
vn -0.923880 0.382684 0.000000
vn -1.000000 0.000000 0.000000
vn -0.923880 -0.382683 0.000000
vn -0.707107 -0.707107 0.000000
vn -0.382683 -0.923880 0.000000
vn -0.195090 -0.980785 0.000000
vn 0.000000 -1.000000 0.000000
vn 0.195090 -0.980785 0.000000
vn 0.000000 -1.000000 0.000000
vn 0.195090 -0.980785 0.000000
vn -0.195090 -0.980785 0.000000
g fff0716c_00064_0037beec_e0
f 97/107/97 24/7/24 25/8/25
f 97/107/97 25/8/25 26/9/26
f 97/107/97 18/1/18 19/2/19
f 17/16/17 97/107/97 32/15/32
f 32/15/32 97/107/97 31/14/31
f 97/107/97 19/2/19 20/3/20
f 97/107/97 20/3/20 21/4/21
f 97/107/97 21/4/21 22/5/22
f 97/107/97 22/5/22 23/6/23
f 97/107/97 23/6/23 24/7/24
f 17/16/17 18/1/18 97/107/97
f 27/10/27 97/107/97 26/9/26
f 28/11/28 97/107/97 27/10/27
f 29/12/29 97/107/97 28/11/28
f 30/13/30 97/107/97 29/12/29
f 31/14/31 97/107/97 30/13/30
g fff0716c_00064_0037beec_e7
f 59/62/59 58/61/58 42/75/42
f 42/75/42 43/76/43 59/62/59
f 60/63/60 59/89/59 43/84/43
f 43/84/43 44/85/44 60/63/60
f 61/64/61 60/63/60 44/85/44
f 44/85/44 45/86/45 61/64/61
f 62/65/62 61/64/61 45/86/45
f 45/86/45 46/87/46 62/65/62
f 63/90/63 62/65/62 46/87/46
f 46/87/46 47/88/47 63/90/63
f 64/52/64 63/66/63 47/70/47
f 47/70/47 48/71/48 64/52/64
f 49/51/49 64/52/64 48/71/48
f 48/71/48 33/67/33 49/51/49
f 50/53/50 49/51/49 33/67/33
f 33/67/33 34/68/34 50/53/50
f 51/54/51 50/53/50 34/68/34
f 34/68/34 35/69/35 51/54/51
f 52/55/52 51/82/51 35/77/35
f 35/77/35 36/78/36 52/55/52
f 53/56/53 52/55/52 36/78/36
f 36/78/36 37/79/37 53/56/53
f 54/57/54 53/56/53 37/79/37
f 37/79/37 38/80/38 54/57/54
f 55/83/55 54/57/54 38/80/38
f 38/80/38 39/81/39 55/83/55
f 56/59/56 55/58/55 39/72/39
f 39/72/39 40/73/40 56/59/56
f 57/60/57 56/59/56 40/73/40
f 58/61/58 57/60/57 41/74/41
f 41/74/41 42/75/42 58/61/58
f 40/73/40 41/74/41 57/60/57
f 65/101/65 74/96/74 73/102/73
f 65/101/65 66/91/66 74/96/74
f 71/103/71 72/104/72 80/106/80
f 71/103/71 80/106/80 79/105/79
f 70/95/70 71/103/71 79/105/79
f 70/95/70 79/105/79 78/100/78
f 69/94/69 70/95/70 78/100/78
f 69/94/69 78/100/78 77/99/77
f 68/93/68 69/94/69 77/99/77
f 68/93/68 77/99/77 76/98/76
f 67/92/67 68/93/68 76/98/76
f 67/92/67 76/98/76 75/97/75
f 66/91/66 67/92/67 75/97/75
f 66/91/66 75/97/75 74/96/74
f 81/101/81 88/102/88 89/96/89
f 81/101/81 89/96/89 82/91/82
f 87/103/87 80/106/80 72/104/72
f 87/103/87 94/105/94 80/106/80
f 86/95/86 94/105/94 87/103/87
f 86/95/86 93/100/93 94/105/94
f 85/94/85 93/100/93 86/95/86
f 85/94/85 92/99/92 93/100/93
f 84/93/84 92/99/92 85/94/85
f 84/93/84 91/98/91 92/99/92
f 83/92/83 91/98/91 84/93/84
f 83/92/83 90/97/90 91/98/91
f 82/91/82 90/97/90 83/92/83
f 82/91/82 89/96/89 90/97/90
f 65/103/65 96/106/96 95/104/95
f 65/103/65 73/105/73 96/106/96
f 81/103/81 95/104/95 96/106/96
f 81/103/81 96/106/96 88/105/88
g fff0716c_00064_0037beec_e0
g fff0716c_00064_0037beec_e0
g fff0716c_00064_0037beec_e0
