# fff03928_00006_0002bf6e
o fff03928_00006_0002bf6e
v -0.038093 0.735440 0.425577
v 0.991836 0.049907 0.605048
v 0.910710 -1.689152 0.675545
v -4.185756 3.513633 0.279646
v -4.325133 -0.282592 0.009003
v 1.084754 -3.064227 -0.768481
v -0.710680 -0.599936 1.077106
v -1.982457 -0.698995 0.351199
v -3.982687 -3.466531 -0.031948
v -1.201579 -0.590247 0.731381
v 0.937603 0.063326 0.422112
v 0.111375 0.589961 0.527500
v 1.814923 1.143993 0.025798
v 0.967126 -2.330507 -0.122899
v 0.888036 -3.521587 -0.944611
v 0.652862 -2.012331 -0.107637
v 0.123536 3.186707 -0.046103
v -0.152431 0.523654 0.667806
v -0.530142 -0.848618 1.027048
v 0.475025 0.096431 0.643162
v 0.578975 1.595878 0.312602
v -4.083916 2.759754 0.457806
v -4.368138 1.146555 0.007931
v 0.473307 -1.534551 0.824597
v 0.711699 -0.055186 1.011830
v -0.154849 0.350263 0.843622
v 0.948456 -3.049582 -0.500010
v 0.424231 -3.412724 -0.527613
v 1.114403 -2.192127 -0.311848
v 0.752030 -2.951946 -0.181414
v 0.193124 -3.296433 -0.399494
v -0.022485 -2.143122 0.228940
v -0.076563 -2.096032 0.399074
v -0.434189 -1.454688 0.951004
v -0.325399 -1.994425 0.744989
v 1.151918 0.104149 0.230021
v 1.815054 1.143947 -0.172408
v 0.123681 3.190982 -0.244308
v 0.861678 0.068187 0.551219
v -4.150749 3.745210 0.078932
v -0.145026 3.340978 -0.093147
v -0.592312 0.238305 0.579695
v 0.426722 -1.955777 0.093476
v 0.227786 -2.719000 0.030772
vt 1.109344 1.201733
vt 1.119041 1.191388
vt 1.115310 1.746637
vt 1.152081 1.736637
vt 1.138191 1.677670
vt 1.102016 1.788710
vt 1.000000 0.001091
vt 0.486796 0.027854
vt 1.159036 1.747618
vt 1.104923 1.831288
vt 1.126625 1.852233
vt 1.112518 1.780332
vt 1.162465 1.679716
vt 1.101225 1.699689
vt 1.127343 1.735970
vt 1.142218 1.651769
vt 1.066548 1.832938
vt 1.108276 1.758439
vt 1.098111 1.784082
vt 1.114488 1.718112
vt 1.157719 1.687318
vt 1.154484 1.745945
vt 1.139876 1.805067
vt 0.464915 0.208034
vt 1.000000 0.208827
vt 1.138237 1.688948
vt 1.547816 0.208827
vt 1.535747 0.001091
vt 1.000000 0.001091
vt 1.022352 1.539433
vt 1.107189 1.172811
vt 1.118656 1.155642
vt 1.734828 0.018640
vt 1.764700 0.227974
vt 1.476395 0.018640
vt 2.051502 0.018640
vt 2.046162 0.232813
vt 1.532635 0.227974
vt 1.112928 1.181806
vt 1.125786 1.160186
vt 0.741553 0.734838
vt 0.772455 0.989457
vt 1.127759 1.182896
vt 1.141681 1.170314
vt 0.060429 0.121884
vt -0.513204 0.027854
vt 0.079291 0.027854
vt -0.325388 0.208034
vt 0.757325 0.864789
vt 0.999274 0.126076
vt 2.152757 0.026039
vt 2.158801 0.181825
vt 1.025505 0.019951
vt 2.620492 0.031955
vt 2.622881 0.205592
vt 1.103496 1.702844
vt 3.045599 0.205592
vt 3.011383 0.031955
vt 2.696000 0.031955
vt 1.925020 0.001091
vt 1.535747 0.001091
vt 1.926824 0.208827
vt 2.779114 0.112760
vt 1.121259 1.189228
vt 2.046162 0.232813
vt 2.051502 0.018640
vt 2.655395 0.108060
vt 1.122965 1.179427
vn -0.000176 0.791982 0.610545
vn 0.691622 0.422850 0.585540
vn 0.273792 -0.403850 0.872893
vn 0.096614 0.457281 0.884059
vn -0.235158 -0.014864 0.971843
vn 0.806363 -0.404518 0.431444
vn -0.173818 0.089164 0.980733
vn -0.256979 0.552910 0.792624
vn -0.144521 -0.224431 0.963714
vn -0.127310 0.103427 0.986456
vn 0.759762 -0.397096 0.514855
vn -0.009212 0.177739 0.984035
vn 0.888144 0.049090 0.456936
vn 0.513901 -0.006126 0.857828
vn 0.538037 -0.613427 0.578121
vn 0.430232 -0.035696 0.902012
vn 0.489482 0.651640 0.579459
vn -0.243306 0.736028 0.631716
vn 0.015898 -0.091832 0.995648
vn 0.179117 0.216877 0.959626
vn 0.201243 0.233958 0.951191
vn 0.003057 0.058377 0.998290
vn -0.166490 -0.094131 0.981540
vn 0.153437 -0.342394 0.926943
vn 0.367460 0.264909 0.891513
vn -0.237861 0.512988 0.824782
vn 0.699859 -0.483855 0.525435
vn 0.285366 -0.672859 0.682515
vn 0.777241 0.035296 0.628213
vn 0.431019 -0.450685 0.781733
vn 0.087060 -0.613342 0.785005
vn 0.777906 -0.189667 0.599074
vn 0.344759 -0.718577 0.603977
vn -0.035718 -0.208307 0.977411
vn 0.174635 -0.637564 0.750343
vn 0.675583 -0.151605 0.721529
vn 0.992213 0.116106 0.045078
vn 0.664103 0.747465 0.016212
vn 0.442173 0.045691 0.895765
vn 0.097544 0.643371 0.759314
vn 0.190095 0.578843 0.792972
vn -0.480511 0.531667 0.697453
vn 0.517830 -0.203244 0.830990
vn 0.238673 -0.381036 0.893223
g fff03928_00006_0002bf6e_e5
f 34/42/34 35/49/35 24/24/24
f 17/13/17 21/21/21 13/16/13
f 39/56/39 11/14/11 13/16/13
f 23/23/23 12/15/12 22/22/22
f 44/68/44 43/64/43 32/43/32
f 9/5/9 33/3/33 35/26/35
f 31/40/31 30/39/30 44/68/44
f 10/12/10 5/11/5 8/10/8
f 44/46/44 33/45/33 9/48/9
f 5/17/5 9/41/9 34/42/34
f 33/45/33 44/46/44 32/47/32
f 44/68/44 30/39/30 16/2/16
f 14/1/14 16/2/16 30/39/30
f 26/30/26 25/25/25 18/18/18
f 20/20/20 39/56/39 13/16/13
f 34/42/34 9/41/9 35/49/35
f 22/22/22 21/21/21 4/9/4
f 5/17/5 34/42/34 19/19/19
f 5/26/5 7/3/7 8/4/8
f 5/17/5 19/19/19 7/6/7
f 7/6/7 19/19/19 26/30/26
f 12/15/12 20/20/20 21/21/21
f 21/21/21 17/13/17 4/9/4
f 21/21/21 20/20/20 13/16/13
f 9/44/9 31/40/31 44/68/44
f 12/15/12 21/21/21 22/22/22
f 10/12/10 12/15/12 23/23/23
f 5/11/5 10/12/10 23/23/23
f 34/42/34 24/24/24 19/19/19
f 7/6/7 26/30/26 18/18/18
f 24/24/24 25/25/25 26/30/26
f 19/19/19 24/24/24 26/30/26
f 28/32/28 30/39/30 31/40/31
f 14/1/14 30/39/30 27/31/27
f 28/32/28 27/31/27 30/39/30
f 44/68/44 16/2/16 43/64/43
f 35/49/35 33/41/33 24/24/24
g fff03928_00006_0002bf6e_e6
f 24/24/24 3/8/3 25/25/25
f 25/25/25 3/8/3 2/7/2
f 18/27/18 25/25/25 1/28/1
f 25/25/25 2/29/2 1/28/1
f 6/33/6 27/34/27 15/35/15
f 29/36/29 27/34/27 6/33/6
f 14/37/14 27/34/27 29/36/29
f 27/34/27 28/38/28 15/35/15
f 33/45/33 3/8/3 24/24/24
f 7/62/7 18/27/18 42/60/42
f 3/8/3 33/45/33 32/47/32
f 42/60/42 18/27/18 1/61/1
f 11/50/11 37/51/37 13/52/13
f 37/51/37 11/50/11 36/53/36
f 13/52/13 38/54/38 17/55/17
f 38/54/38 13/52/13 37/51/37
f 14/65/14 29/66/29 16/67/16
f 7/62/7 42/60/42 8/63/8
f 41/59/41 17/55/17 38/54/38
f 41/59/41 40/58/40 4/57/4
f 17/55/17 41/59/41 4/57/4
