# fff08f90_00025_0014d29e
o fff08f90_00025_0014d29e
v 0.985085 7.891564 9.366497
v 2.495003 7.070031 9.366497
v -5.548981 7.847701 9.366497
v -2.272255 -8.535155 9.366497
v -0.682991 -8.361083 9.366497
v 0.985085 -7.887560 9.366497
v 2.495003 -7.066028 9.366497
v -7.059860 -7.019644 9.366497
v -3.926857 -8.356933 9.366497
v 5.564919 3.285226 9.366497
v 4.782028 4.756120 9.366497
v 3.738037 6.051766 9.366497
v 6.214081 0.002002 9.366497
v 6.043388 -1.687947 9.366497
v 5.564919 -3.281221 9.366497
v 4.782028 -4.752117 9.366497
v -2.272255 8.539162 9.366497
v -0.682991 8.365089 9.366497
v -7.059860 7.023648 9.366497
v -3.926857 8.360939 9.366497
v 6.043388 1.691953 9.366497
v 1.156677 -8.334276 9.137249
v 2.751579 -7.466506 9.137249
v -7.341057 -7.417512 9.137249
v -5.745140 -8.287945 9.137249
v 6.679977 -0.000668 9.137249
v 5.994278 -3.468680 9.137249
v 6.499680 -1.785732 9.137249
v 4.064575 -6.390929 9.137249
v 5.167320 -5.022362 9.137249
v -2.283997 9.016987 9.137249
v 1.156677 8.332941 9.137249
v -0.605286 8.833117 9.137249
v 2.751579 7.465169 9.137249
v -7.341057 7.416176 9.137249
v -5.745140 8.286609 9.137249
v -4.031723 8.828733 9.137249
v -2.283997 -9.018320 9.137249
v -0.605286 -8.834451 9.137249
v -5.548981 -7.843697 9.366497
v -4.031723 -8.830067 9.137249
v 5.994278 3.467345 9.137249
v 4.064575 6.389594 9.137249
v 5.167320 5.021025 9.137249
v 6.499680 1.784398 9.137249
v 3.738037 -6.047762 9.366497
v -8.269547 -6.023551 9.366497
v -8.618828 -6.365355 9.137249
v -8.269577 6.027555 9.366497
v -8.618858 6.364019 9.137249
v 1.156677 -8.334276 0.010934
v 3.408077 -6.928718 0.010934
v -6.543098 -7.852728 0.010934
v 6.679977 -0.000668 0.010934
v 6.246979 -2.627206 0.010934
v 5.167320 -5.022362 0.010934
v -1.444641 8.925053 0.010934
v 1.156677 8.332941 0.010934
v 3.408077 6.927382 0.010934
v -6.543098 7.851392 0.010934
v -4.031723 8.828733 0.010934
v -1.444641 -8.926386 0.010934
v -4.031723 -8.830067 0.010934
v 6.246979 2.625872 0.010934
v 5.167320 5.021025 0.010934
v -8.618828 -6.365355 0.010934
v -8.618858 6.364019 0.010934
v 1.100990 -8.211745 -18.514654
v -5.705974 -8.178508 -18.514654
v 6.679977 -0.000668 -18.514654
v 5.887093 -3.425591 -18.514654
v 4.064575 -6.390929 -18.514654
v -2.283997 9.016987 -18.514654
v 1.100990 8.210409 -18.514654
v -5.705974 8.177173 -18.514654
v -2.283997 -9.018320 -18.514654
v 5.887093 3.424256 -18.514654
v 4.064575 6.389594 -18.514654
v -8.618828 -6.365355 -18.514654
v -8.618858 6.364019 -18.514654
v -9.331772 4.739469 9.366497
v -9.681053 5.075933 9.137249
v -9.681053 5.075933 0.010934
v -9.681053 5.075933 -18.514656
v -9.331726 -4.735597 9.366497
v -9.805145 -4.856935 9.137249
v -9.805145 -4.856935 0.010934
v -9.805145 -4.856935 -18.514656
vt 4.070707 3.640804
vt 4.122635 3.647978
vt 4.122635 3.856641
vt 4.070707 3.850481
vt 4.070707 4.046478
vt 4.122635 4.051502
vt 4.070707 2.716739
vt 4.122635 2.504356
vt 4.122635 2.723870
vt 4.070707 2.498410
vt 4.070707 3.201878
vt 4.122635 2.964989
vt 4.122635 3.210110
vt 4.070707 2.957031
vt 4.122635 3.429652
vt 4.070707 3.421748
vt 4.070707 -0.311996
vt 4.122635 -0.527510
vt 4.122635 -0.318943
vt 4.070707 -0.521669
vt 4.070707 -0.717667
vt 4.122635 -0.722307
vt 4.070707 0.612058
vt 4.122635 0.604597
vt 4.122635 0.823995
vt 4.070707 0.830382
vt 4.070707 0.126924
vt 4.122635 0.118667
vt 4.122635 0.363626
vt 4.070707 0.371768
vt 4.122635 -0.100738
vt 4.070707 -0.092942
vt 4.070707 2.281718
vt 4.122635 2.286210
vt 4.122635 2.076499
vt 4.070707 1.872870
vt 4.122635 1.874186
vt 4.070707 2.073584
vt 4.122635 1.656624
vt 4.070707 1.656972
vt 4.122635 1.453979
vt 4.070707 1.455919
vt 4.122635 1.042049
vt 4.070707 1.047072
vt 4.122635 1.251702
vt 4.070707 1.255207
vt 4.070707 4.211782
vt 4.122635 4.215783
vt 4.070707 -0.882970
vt 4.122635 -0.886554
vt 2.003486 3.201878
vt 2.003486 2.957031
vt 2.003486 2.716739
vt 2.003486 2.498410
vt 2.003486 3.850481
vt 2.003486 4.046478
vt 2.003486 4.211782
vt 2.003486 3.640804
vt 2.003486 1.872870
vt 2.003486 1.656972
vt 2.003486 1.455919
vt 2.003486 2.073584
vt 2.003486 2.281718
vt 2.003486 0.126924
vt 2.003486 -0.092942
vt 2.003486 -0.311996
vt 2.003486 0.371768
vt 2.003486 0.612058
vt 2.003486 0.830382
vt 2.003486 -0.521669
vt 2.003486 -0.717667
vt 2.003486 -0.882970
vt 2.003486 3.421748
vt 2.003486 1.255207
vt 2.003486 1.047072
vt -2.192787 3.201878
vt -2.192787 2.716739
vt -2.192787 2.498410
vt -2.192787 4.046478
vt -2.192787 4.211782
vt -2.192787 3.640804
vt -2.192787 1.872870
vt -2.192787 1.656972
vt -2.192787 1.455919
vt -2.192787 2.281718
vt -2.192787 0.126924
vt -2.192787 -0.092942
vt -2.192787 -0.311996
vt -2.192787 0.612058
vt -2.192787 0.830382
vt -2.192787 -0.717667
vt -2.192787 -0.882970
vt -2.192787 3.421748
vt -2.192787 1.047072
vt 4.124672 -0.888924
vt 4.072745 -0.885340
vt 2.003486 -0.884876
vt -2.192787 -0.884102
vt 4.120649 4.218312
vt 4.068722 4.214311
vt 2.003486 4.214537
vt -2.192787 4.213662
vn 0.165119 0.403288 0.900052
vn 0.244647 0.362817 0.899173
vn -0.168361 0.396195 0.902598
vn 0.001123 -0.428689 0.903451
vn 0.083332 -0.423238 0.902178
vn 0.163848 -0.399859 0.901813
vn 0.242931 -0.359993 0.900771
vn -0.237927 -0.353179 0.904796
vn -0.087541 -0.418588 0.903947
vn 0.408065 0.167627 0.897432
vn 0.367666 0.242246 0.897852
vn 0.311804 0.308458 0.898683
vn 0.441504 0.000159 0.897259
vn 0.432588 -0.085583 0.897520
vn 0.406752 -0.166781 0.898185
vn 0.365948 -0.240826 0.898935
vn 0.001140 0.432588 0.901591
vn 0.084037 0.427039 0.900319
vn -0.239576 0.355920 0.903285
vn -0.088256 0.422320 0.902140
vn 0.433305 0.086024 0.897132
vn 0.324870 -0.795920 0.510853
vn 0.475854 -0.713662 0.514051
vn -0.477943 -0.707044 0.521210
vn -0.334912 -0.785481 0.520435
vn 0.861717 -0.000077 0.507389
vn 0.792884 -0.326642 0.514431
vn 0.843968 -0.164358 0.510593
vn 0.608079 -0.603705 0.515538
vn 0.714465 -0.472287 0.516222
vn 0.000386 0.856450 0.516229
vn 0.325291 0.796801 0.509209
vn 0.166813 0.840467 0.515547
vn 0.476420 0.714361 0.512555
vn -0.478491 0.707721 0.519786
vn -0.335346 0.786349 0.518843
vn -0.175804 0.836815 0.518491
vn 0.000391 -0.855399 0.517969
vn 0.166596 -0.839432 0.517301
vn -0.167074 -0.392873 0.904288
vn -0.175559 -0.835812 0.520190
vn 0.793325 0.326675 0.513731
vn 0.608696 0.604169 0.514266
vn 0.715036 0.472524 0.515213
vn 0.844206 0.164260 0.510230
vn 0.309962 -0.306324 0.900050
vn -0.304995 -0.299386 0.904072
vn -0.610573 -0.597035 0.520336
vn -0.301780 0.302693 0.904050
vn -0.603603 0.603702 0.520775
vn 0.381079 -0.924535 -0.003629
vn 0.639040 -0.769088 -0.011456
vn -0.476376 -0.879220 -0.006141
vn 0.999985 -0.000000 -0.005430
vn 0.958346 -0.285533 -0.006704
vn 0.831377 -0.555541 -0.013691
vn 0.091459 0.995738 -0.011875
vn 0.381080 0.924535 -0.003629
vn 0.639040 0.769088 -0.011456
vn -0.476373 0.879222 -0.006141
vn -0.197935 0.980110 -0.014360
vn 0.091459 -0.995738 -0.011875
vn -0.197935 -0.980110 -0.014360
vn 0.958346 0.285533 -0.006704
vn 0.831377 0.555541 -0.013691
vn -0.692516 -0.721398 -0.002721
vn -0.684117 0.729367 -0.002716
vn 0.382277 -0.924028 -0.006118
vn -0.381241 -0.924475 0.000969
vn 1.000000 -0.000000 0.000000
vn 0.923416 -0.383773 0.004630
vn 0.711786 -0.702379 0.004834
vn -0.010136 0.999934 0.005421
vn 0.382277 0.924027 -0.006118
vn -0.381239 0.924476 0.000969
vn -0.010136 -0.999934 0.005421
vn 0.923416 0.383773 0.004631
vn 0.711786 0.702379 0.004834
vn -0.669395 -0.742895 -0.004146
vn -0.660751 0.750594 -0.004138
vn -0.330514 0.272552 0.903591
vn -0.646282 0.532944 0.546159
vn -0.771513 0.636213 0.000000
vn -0.771513 0.636213 0.000000
vn -0.354928 -0.292711 0.887889
vn -0.698980 -0.554979 0.451026
vn -0.786032 -0.618186 0.000000
vn -0.786032 -0.618186 0.000000
g fff08f90_00025_0014d29e_e7
f 41/1/41 9/2/9 40/3/40
f 40/3/40 25/4/25 41/1/41
f 24/5/24 40/3/40 8/6/8
f 40/3/40 24/5/24 25/4/25
f 23/7/23 46/8/46 7/9/7
f 46/8/46 23/7/23 29/10/29
f 39/11/39 6/12/6 5/13/5
f 6/12/6 39/11/39 22/14/22
f 23/7/23 7/9/7 6/12/6
f 6/12/6 22/14/22 23/7/23
f 41/1/41 4/15/4 9/2/9
f 4/15/4 41/1/41 38/16/38
f 39/11/39 5/13/5 4/15/4
f 4/15/4 38/16/38 39/11/39
f 37/17/37 3/18/3 20/19/20
f 3/18/3 37/17/37 36/20/36
f 35/21/35 19/22/19 3/18/3
f 3/18/3 36/20/36 35/21/35
f 34/23/34 2/24/2 12/25/12
f 12/25/12 43/26/43 34/23/34
f 33/27/33 18/28/18 1/29/1
f 1/29/1 32/30/32 33/27/33
f 34/23/34 1/29/1 2/24/2
f 1/29/1 34/23/34 32/30/32
f 33/27/33 17/31/17 18/28/18
f 17/31/17 33/27/33 31/32/31
f 37/17/37 20/19/20 17/31/17
f 17/31/17 31/32/31 37/17/37
f 30/33/30 16/34/16 46/8/46
f 46/8/46 29/10/29 30/33/30
f 15/35/15 28/36/28 14/37/14
f 28/36/28 15/35/15 27/38/27
f 30/33/30 15/35/15 16/34/16
f 15/35/15 30/33/30 27/38/27
f 14/37/14 28/36/28 13/39/13
f 26/40/26 13/39/13 28/36/28
f 21/41/21 13/39/13 45/42/45
f 26/40/26 45/42/45 13/39/13
f 12/25/12 11/43/11 44/44/44
f 44/44/44 43/26/43 12/25/12
f 10/45/10 21/41/21 45/42/45
f 45/42/45 42/46/42 10/45/10
f 11/43/11 10/45/10 44/44/44
f 42/46/42 44/44/44 10/45/10
f 8/6/8 48/47/48 24/5/24
f 48/47/48 8/6/8 47/48/47
f 19/22/19 35/21/35 50/49/50
f 50/49/50 49/50/49 19/22/19
f 62/51/62 22/14/22 39/11/39
f 22/14/22 62/51/62 51/52/51
f 52/53/52 23/7/23 22/14/22
f 22/14/22 51/52/51 52/53/52
f 52/54/52 29/10/29 23/7/23
f 59/68/59 78/90/78 74/89/74
f 53/55/53 25/4/25 24/5/24
f 80/92/80 67/72/67 60/71/60
f 66/57/66 24/5/24 48/47/48
f 24/5/24 66/57/66 53/56/53
f 63/58/63 41/1/41 25/4/25
f 25/4/25 53/55/53 63/58/63
f 28/36/28 55/59/55 26/40/26
f 54/60/54 26/40/26 55/59/55
f 45/42/45 26/40/26 64/61/64
f 54/60/54 64/61/64 26/40/26
f 27/38/27 55/59/55 28/36/28
f 62/73/62 69/81/69 76/93/76
f 56/63/56 27/38/27 30/33/30
f 27/38/27 56/63/56 55/62/55
f 56/63/56 30/33/30 29/10/29
f 29/10/29 52/54/52 56/63/56
f 57/64/57 31/32/31 33/27/33
f 77/94/77 78/90/78 59/69/59
f 61/66/61 37/17/37 31/32/31
f 31/32/31 57/65/57 61/66/61
f 57/64/57 33/27/33 32/30/32
f 32/30/32 58/67/58 57/64/57
f 59/68/59 32/30/32 34/23/34
f 32/30/32 59/68/59 58/67/58
f 59/69/59 34/23/34 43/26/43
f 74/89/74 58/67/58 59/68/59
f 60/70/60 35/21/35 36/20/36
f 74/86/74 57/64/57 58/67/58
f 67/72/67 50/49/50 35/21/35
f 35/21/35 60/71/60 67/72/67
f 61/66/61 36/20/36 37/17/37
f 36/20/36 61/66/61 60/70/60
f 63/58/63 38/16/38 41/1/41
f 38/16/38 63/58/63 62/73/62
f 62/51/62 39/11/39 38/16/38
f 60/71/60 75/91/75 80/92/80
f 42/46/42 45/42/45 64/61/64
f 62/73/62 76/93/76 68/76/68
f 44/44/44 42/46/42 65/75/65
f 64/74/64 65/75/65 42/46/42
f 43/26/43 44/44/44 65/75/65
f 65/75/65 59/69/59 43/26/43
f 68/76/68 51/52/51 62/51/62
f 57/65/57 74/86/74 73/87/73
f 68/77/68 52/53/52 51/52/51
f 59/69/59 65/75/65 77/94/77
f 75/88/75 60/70/60 61/66/61
f 52/53/52 68/77/68 72/78/72
f 65/75/65 64/74/64 77/94/77
f 52/54/52 72/78/72 71/85/71
f 79/80/79 53/56/53 66/57/66
f 53/56/53 79/80/79 69/79/69
f 69/81/69 63/58/63 53/55/53
f 71/85/71 56/63/56 52/54/52
f 55/59/55 71/82/71 54/60/54
f 70/83/70 54/60/54 71/82/71
f 64/61/64 54/60/54 77/84/77
f 70/83/70 77/84/77 54/60/54
f 69/81/69 62/73/62 63/58/63
f 57/65/57 73/87/73 75/88/75
f 71/85/71 55/62/55 56/63/56
f 75/88/75 61/66/61 57/65/57
f 49/50/49 50/49/50 82/96/82
f 82/96/82 81/95/81 49/50/49
f 50/49/50 67/72/67 83/97/83
f 83/97/83 82/96/82 50/49/50
f 67/72/67 80/92/80 84/98/84
f 84/98/84 83/97/83 67/72/67
f 47/48/47 86/100/86 48/47/48
f 86/100/86 47/48/47 85/99/85
f 48/47/48 87/101/87 66/57/66
f 87/101/87 48/47/48 86/100/86
f 66/57/66 88/102/88 79/80/79
f 88/102/88 66/57/66 87/101/87
