# fff03910_00002_00021ec8
o fff03910_00002_00021ec8
v -2.431304 3.175356 -1.730813
v -2.802451 3.324114 1.166846
v -3.607581 3.883814 1.362609
v -2.909286 3.884203 1.440986
v -2.474319 3.066378 -1.682405
v -3.658111 3.220896 -1.812768
v -3.894698 3.331980 1.330146
v 6.694283 3.716005 1.352447
v 2.570642 3.039537 -1.750848
v -1.961036 3.324389 0.994582
v 5.168557 3.098925 0.968619
v 6.850465 3.206057 1.276275
v 7.253655 3.186411 1.196006
v 6.241792 3.781282 1.684905
v -1.121039 3.232035 1.337752
v -3.087348 3.199495 1.137214
v -3.313415 3.383654 1.355338
v 2.248986 3.168322 1.096480
v 2.521401 3.000406 -1.692407
v 7.068276 3.291086 -1.719605
v 4.804261 3.144121 -1.753465
v -0.979796 3.101709 1.335616
v -1.180129 3.166117 -1.712174
v 4.083520 3.869539 1.698829
v 4.096642 3.867579 1.701026
v 4.934724 2.903276 -1.724908
v 5.397927 2.961107 0.996779
v 6.657525 3.112551 1.299552
v 6.634133 3.051615 1.229026
v 6.969781 3.032076 1.154387
v 4.931619 3.085360 0.966887
v 5.535142 3.152788 1.410224
v 3.846742 3.470415 1.623099
v 6.845483 2.932611 -1.727715
v 6.228982 3.222902 1.377288
v 5.471040 3.040499 1.069694
v 6.078538 3.308764 1.564124
v 5.389810 3.203173 1.405227
v 4.825448 3.948305 1.721137
v -2.335341 3.860956 1.420997
v -1.735816 3.281046 -1.753083
v 5.107629 3.156099 1.103019
v -1.713363 3.408915 1.597526
v -1.084563 3.423357 1.626174
v -2.085746 3.242807 1.083190
v 4.759980 3.194246 -1.670190
v 5.191087 3.092470 1.156455
v 5.060060 3.186205 1.315475
v 4.551713 3.522226 1.639503
v 2.938546 2.931971 -1.597657
v -2.600608 3.223680 1.162177
v 5.990029 3.826479 1.775870
v 5.920045 3.832933 1.772590
v 2.622140 3.959246 1.680587
v 1.105943 3.777834 -1.801621
v 0.884919 3.452417 1.766334
v 0.410493 3.220942 1.423896
v 2.339028 3.969683 1.629348
v 0.960984 3.703447 -1.740487
v -1.986960 3.359255 -2.020120
v -2.668868 3.866243 1.362807
v -1.821692 3.097239 -1.701135
v -1.654891 3.897917 -1.960549
v -1.570708 3.850649 1.601066
v -1.382056 3.847643 1.653144
v -0.731498 3.804697 1.551345
v -0.850242 3.827341 1.635802
v 0.835931 3.331400 1.226287
v -1.862060 3.263468 1.217742
v -2.390685 3.248140 1.277083
v 0.300332 3.188280 1.254592
v -0.886764 3.019526 -1.930985
v -1.631766 3.921026 -1.755387
v -1.232657 3.994162 -1.828729
v -1.219520 3.214281 -1.756013
v -3.455138 3.350641 1.355582
v -3.232032 3.287813 1.272590
v -3.240325 3.429850 1.373778
v 2.912393 3.081644 1.115584
v -2.018409 5.358274 -1.912545
v -2.500861 4.355051 1.020514
v -1.988532 5.469366 -1.891656
v -3.342911 4.904295 -1.979226
v -3.584105 4.406610 1.173591
v 2.621446 4.992350 -1.899125
v -1.693389 4.253725 0.863723
v 5.247941 4.550890 0.796477
v 6.875878 4.120165 1.176833
v 7.266755 4.091799 1.100997
v -0.787269 4.367891 1.184127
v -2.737862 4.770491 0.957389
v -3.025809 4.376101 1.212134
v 2.301286 4.462038 0.915549
v 2.291885 5.174887 -1.851126
v 7.132562 4.707125 -1.876016
v 4.905137 4.812532 -1.950608
v -0.571692 4.457888 1.154960
v -0.811979 5.195459 -1.810960
v 5.068337 5.042284 -1.977777
v 5.495065 4.650263 0.796409
v 6.708611 4.227404 1.173415
v 6.698335 4.269930 1.089446
v 7.037538 4.239138 1.016402
v 5.020097 4.623735 0.783340
v 5.601937 4.506861 1.251220
v 4.113183 4.546877 1.500091
v 6.955491 5.061258 -1.969102
v 6.272965 4.258821 1.259635
v 5.555375 4.562479 0.889930
v 6.112023 4.271341 1.455230
v 5.449342 4.476870 1.255370
v -1.294995 5.226534 -1.835050
v 5.178460 4.523989 0.940772
v -1.465156 4.295977 1.473029
v -0.857886 4.246668 1.511718
v -1.754592 4.364229 0.928031
v 4.853219 4.753687 -1.854554
v 5.271882 4.584101 0.979560
v 5.126939 4.539850 1.154616
v 4.580941 4.434862 1.531356
v 3.235712 5.218912 -2.167287
v -2.238311 4.437410 0.993773
v 1.146478 4.860636 -1.936791
v 0.901612 4.454973 1.640395
v 0.447495 4.502115 1.263206
v 1.010041 5.113596 -1.891541
v -1.314831 5.066805 -2.457357
v -1.380797 5.153818 -1.890840
v -1.225087 5.175943 -2.037588
v 0.862679 4.445055 1.086905
v -1.540160 4.360209 1.066443
v -2.041999 4.424639 1.114074
v 0.338403 4.472666 1.093131
v -0.466688 5.290014 -2.047487
v -1.202664 5.202311 -1.832654
v -0.745543 5.036966 -2.269662
v -0.881964 5.153589 -1.843667
v -3.141273 4.418940 1.202384
v -2.888007 4.444803 1.109076
v -2.984374 4.330156 1.242370
v 2.997163 4.435404 0.924148
v -7.846694 3.632524 -0.314706
v -3.097472 5.271666 -1.893808
v -6.416915 4.513430 -0.125741
v -8.064704 4.120630 -0.381585
v -8.422614 4.095209 -0.583192
v -7.508574 3.580347 0.135276
v -3.640098 4.497873 0.877219
v -7.368979 4.482317 -3.282479
v -5.263648 4.953356 -2.579499
v -5.436080 3.603045 0.803115
v -5.449409 3.602755 0.801230
v -5.438804 5.165552 -2.568292
v -6.665679 4.610964 -0.157342
v -7.907935 4.235750 -0.288369
v -7.876441 4.309793 -0.340882
v -8.172690 4.292986 -0.515733
v -6.196784 4.560663 -0.050645
v -6.880965 4.338526 0.168120
v -5.265388 4.038721 0.849624
v -7.223868 4.865511 -3.181046
v -7.508780 4.176554 -0.090798
v -6.741111 4.511431 -0.120347
v -7.407043 4.084391 0.123839
v -6.733970 4.310770 0.204192
v -6.160666 3.612886 0.601470
v -6.388923 4.444895 0.014129
v -5.237464 4.897463 -2.492333
v -6.494658 4.486696 0.044768
v -6.401473 4.388506 0.226195
v -5.958556 4.081079 0.657050
v -3.507437 5.300108 -1.854853
v -7.291053 3.557558 0.296134
v -7.223289 3.561731 0.314574
v -4.016402 3.579294 1.224479
v -4.283652 4.485140 0.693755
v -2.901710 4.098284 -2.181298
v -6.172668 3.110895 -0.468316
v -7.890540 3.239710 -0.581048
v -8.239799 3.223879 -0.773622
v -3.360068 3.059313 0.530448
v -7.121856 3.114519 -3.601602
v -4.992248 3.340258 -2.975602
v -5.094832 3.096888 -3.077592
v -6.385993 2.978655 -0.557504
v -7.712935 3.159273 -0.542611
v -7.670676 3.132524 -0.622994
v -7.972785 3.125956 -0.796266
v -5.941749 3.074205 -0.416108
v -6.646865 3.031343 -0.147630
v -5.280295 2.968637 0.534064
v -6.863051 2.808489 -3.670907
v -7.324180 3.176874 -0.326348
v -6.486312 3.040987 -0.479165
v -7.228721 3.156473 -0.092271
v -6.510573 3.081682 -0.092042
v -6.155089 3.124140 -0.307435
v -4.982780 3.389887 -2.862321
v -6.243011 3.045969 -0.306977
v -6.166968 3.082010 -0.091279
v -5.785674 3.202448 0.448333
v -3.428985 3.577471 -2.326020
v -4.019897 2.984964 0.320342
v 13.072684 3.716005 1.352447
v 6.661958 3.039537 -1.750848
v 10.700747 3.098925 0.968619
v 13.315488 3.206057 1.276275
v 13.942298 3.186411 1.196006
v 12.369227 3.781282 1.684905
v 6.161904 3.168322 1.096480
v 6.585408 3.000406 -1.692407
v 16.025499 3.291086 -1.719649
v 10.134404 3.144121 -1.753465
v 9.013921 3.869539 1.698829
v 9.034320 3.867579 1.701026
v 10.337224 2.903276 -1.724908
v 11.057334 2.961107 0.996779
v 13.015538 3.112551 1.299552
v 12.979173 3.051615 1.229026
v 13.500979 3.032076 1.154387
v 10.332398 3.085360 0.966887
v 11.270652 3.152788 1.410224
v 8.645818 3.470415 1.623099
v 15.679138 2.932611 -1.727759
v 12.349313 3.222902 1.377288
v 11.170997 3.040499 1.069694
v 12.115430 3.308764 1.564124
v 11.044713 3.203173 1.405227
v 10.167342 3.948305 1.721137
v 10.606027 3.156099 1.103019
v 10.065564 3.194246 -1.670190
v 10.735772 3.092470 1.156455
v 10.532073 3.186205 1.315475
v 9.741786 3.522226 1.639503
v 7.233912 2.931971 -1.597657
v 11.977832 3.826479 1.775870
v 11.869031 3.832933 1.772590
v 6.742019 3.959246 1.680587
v 6.301885 3.969683 1.629348
v 7.193254 3.081644 1.115584
v 6.740939 4.271029 -1.899125
v 10.824159 4.550890 0.796477
v 13.354997 4.120165 1.176833
v 13.962665 4.091799 1.100997
v 6.243211 4.462038 0.915549
v 6.673879 4.318308 -1.851144
v 16.125441 4.707125 -1.876059
v 10.291226 4.812532 -1.950608
v 10.544944 5.188860 -1.977777
v 11.208346 4.650263 0.796409
v 13.094958 4.227404 1.173415
v 13.078982 4.269930 1.089446
v 13.606315 4.239138 1.016402
v 10.469947 4.623735 0.783340
v 11.374492 4.506861 1.251220
v 9.060035 4.546877 1.500091
v 15.850161 5.207834 -1.969145
v 12.417693 4.258821 1.259635
v 11.302104 4.562479 0.889930
v 12.167485 4.271341 1.455230
v 11.137263 4.476870 1.255370
v 10.716144 4.523989 0.940772
v 10.210515 4.753687 -1.854554
v 10.861381 4.584101 0.979560
v 10.636046 4.539850 1.154616
v 9.787225 4.434862 1.531356
v 7.696059 4.497591 -1.797158
v 7.325038 4.435404 0.924148
v -3.733954 3.617510 1.265021
v -2.866691 4.050631 -2.127435
vt 0.251012 0.211241
vt 0.251012 0.211241
vt 0.251012 0.211241
vt 0.251012 0.211241
vt 0.251012 0.211241
vt 0.251012 0.211241
vt 0.251012 0.211241
vt 0.251012 0.211241
vt 0.251012 0.211241
vt 0.251012 0.211241
vt 0.251012 0.211241
vt 0.251012 0.211241
vt 0.251012 0.211241
vt 0.251012 0.211241
vt 0.251012 0.211241
vn 0.381588 -0.916620 0.119152
vn 0.011187 -0.760443 0.649308
vn -0.644773 0.271919 0.714373
vn 0.173034 0.077815 0.981837
vn 0.632854 -0.754646 0.173220
vn -0.840544 -0.541671 -0.008887
vn -0.772594 -0.374441 0.512731
vn 0.361907 0.091691 0.927694
vn 0.150729 -0.974575 0.165785
vn 0.176956 -0.968723 -0.173962
vn -0.220471 -0.945433 0.239893
vn 0.160236 -0.288167 0.944079
vn 0.734856 -0.434197 0.521018
vn 0.389522 0.065004 0.918720
vn -0.183203 -0.838402 0.513340
vn 0.134563 -0.932539 0.335059
vn 0.136141 -0.555925 0.820008
vn -0.751463 -0.580137 0.314236
vn 0.321309 -0.945275 0.056709
vn 0.950874 -0.306159 -0.045877
vn -0.569794 -0.769414 0.288680
vn -0.266669 -0.761458 0.590821
vn -0.468167 -0.883638 -0.001754
vn -0.030311 0.002419 0.999538
vn -0.007846 0.095739 0.995376
vn -0.542705 -0.835238 0.088595
vn -0.231097 -0.756941 0.611257
vn 0.358993 -0.897335 0.256736
vn -0.074545 -0.697366 0.712828
vn 0.237358 -0.884436 0.401788
vn -0.158437 -0.957245 0.242032
vn 0.075164 -0.861191 0.502693
vn 0.037210 -0.700959 0.712230
vn 0.473315 -0.880780 0.014102
vn 0.166071 -0.666590 0.726690
vn 0.078129 -0.960260 -0.267950
vn 0.119635 -0.560928 0.819175
vn -0.154174 -0.637475 0.754888
vn 0.068026 0.113557 0.991200
vn -0.270044 0.203176 0.941167
vn 0.741186 -0.428646 -0.516630
vn -0.066896 -0.966203 0.248950
vn -0.130929 -0.531062 0.837156
vn 0.369149 -0.528263 0.764635
vn 0.184228 -0.981190 -0.057672
vn -0.248029 -0.945444 0.211227
vn -0.498370 -0.842390 0.204955
vn -0.137765 -0.911495 0.387554
vn -0.048855 -0.608663 0.791923
vn -0.210949 -0.959832 0.184994
vn -0.248332 -0.916298 0.314213
vn 0.221885 0.107638 0.969114
vn -0.035975 0.111023 0.993167
vn -0.175487 0.195102 0.964956
vn -0.108048 -0.982077 -0.154432
vn 0.154261 -0.555150 0.817320
vn 0.127056 -0.937650 0.323527
vn -0.136239 0.163152 0.977149
vn 0.387499 -0.917364 -0.091041
vn -0.282811 -0.959137 -0.008661
vn 0.084844 0.108363 0.990484
vn 0.598156 -0.793668 0.110908
vn 0.148805 -0.332708 -0.931216
vn -0.241034 0.197698 0.950167
vn -0.072475 0.141777 0.987242
vn 0.135605 0.059920 0.988949
vn 0.406569 0.006775 0.913595
vn 0.250865 -0.963919 0.089028
vn 0.052779 -0.997224 0.052529
vn -0.169545 -0.743511 0.646874
vn 0.160919 -0.986799 0.018256
vn -0.014719 -0.998187 0.058363
vn -0.201674 0.947221 0.249200
vn -0.240105 -0.928798 -0.282283
vn -0.910627 -0.342094 -0.231796
vn -0.008201 -0.492421 0.870319
vn 0.148145 -0.685636 0.712711
vn 0.220786 -0.367824 0.903304
vn 0.074644 -0.941965 0.327309
vn 0.838726 0.428918 0.335513
vn 0.146598 0.678395 0.719923
vn 0.699443 0.629506 0.338380
vn -0.418046 0.884573 0.206803
vn -0.691189 0.534169 0.486746
vn 0.080462 0.968367 0.236202
vn 0.472240 0.880729 -0.036142
vn -0.006429 0.974546 0.224097
vn 0.204197 0.492129 0.846234
vn 0.749606 0.418301 0.512947
vn -0.099011 0.877232 0.469745
vn 0.228353 0.804430 0.548405
vn 0.190503 0.662001 0.724889
vn -0.697994 0.659716 0.278531
vn 0.159967 0.965492 0.205513
vn 0.955171 0.292817 0.043665
vn -0.744838 0.653658 0.133971
vn -0.157348 0.828800 0.536966
vn -0.273228 0.937899 0.213757
vn -0.408397 0.888539 0.209069
vn -0.062346 0.828405 0.556650
vn 0.492160 0.865728 0.091065
vn 0.060245 0.763829 0.642600
vn 0.306997 0.860964 0.405578
vn 0.139764 0.975674 0.168897
vn 0.251832 0.912279 0.322999
vn 0.001882 0.791617 0.611015
vn 0.411107 0.884364 0.221114
vn 0.355459 0.787582 0.503352
vn 0.285914 0.832173 -0.475122
vn 0.232502 0.702107 0.673044
vn -0.017691 0.784136 0.620337
vn -0.296494 0.954526 0.031179
vn 0.150192 0.983097 0.104704
vn -0.072819 0.721990 0.688061
vn 0.504845 0.568307 0.649738
vn 0.408123 0.910520 -0.066253
vn -0.312688 0.947528 0.066460
vn -0.339088 0.940734 0.006251
vn 0.111499 0.974389 0.195280
vn 0.110337 0.733476 0.670700
vn -0.038620 0.985579 0.164751
vn -0.111360 0.940710 0.320412
vn 0.361402 0.918550 0.160167
vn 0.094922 0.759556 0.643478
vn -0.018535 0.999221 0.034851
vn 0.537583 0.815808 0.213219
vn 0.358588 0.896456 0.260348
vn -0.316187 0.948624 -0.011767
vn -0.455435 0.814004 -0.360523
vn 0.144681 0.982260 0.119302
vn 0.128287 0.966871 -0.220687
vn -0.095297 0.918543 0.383663
vn 0.016528 0.999227 0.035685
vn 0.007341 0.968194 0.250091
vn 0.986727 0.015906 0.161606
vn -0.310530 0.940041 0.141044
vn -0.924925 0.343398 -0.163071
vn -0.015928 0.776745 0.629614
vn 0.221965 0.469885 0.854365
vn 0.259468 0.492492 0.830739
vn -0.133364 0.936416 0.324559
vn -0.596168 -0.288391 0.749276
vn 0.869815 0.311057 0.382970
vn -0.038540 0.916974 0.397082
vn -0.482028 0.108859 0.869367
vn -0.922791 0.236920 0.303853
vn -0.624329 -0.264798 0.734912
vn 0.559627 0.589306 0.582697
vn -0.934359 0.171124 -0.312553
vn 0.330449 0.784607 0.524591
vn -0.265049 -0.203668 0.942480
vn -0.278676 -0.238484 0.930304
vn 0.328541 0.879172 0.345133
vn -0.103411 0.675354 0.730208
vn -0.577854 0.784876 0.223728
vn -0.269147 0.578759 0.769804
vn -0.504266 0.766514 0.397707
vn -0.068970 0.915558 0.396228
vn -0.377705 0.750882 0.541771
vn -0.241315 0.528935 0.813631
vn -0.610371 0.790951 -0.042930
vn -0.493124 0.512229 0.703171
vn -0.171308 0.969625 -0.174590
vn -0.457396 0.400919 0.793759
vn -0.195872 0.524886 0.828329
vn -0.348276 -0.266989 0.898566
vn -0.188993 0.913970 0.359082
vn 0.036345 0.924740 0.378860
vn 0.251341 0.861348 0.441483
vn -0.144737 0.850674 0.505376
vn -0.221758 0.490506 0.842750
vn 0.001349 0.926750 0.375677
vn -0.474152 -0.290616 0.831097
vn -0.238840 -0.261046 0.935313
vn -0.112412 -0.275071 0.954830
vn -0.263397 0.880406 0.394344
vn 0.195371 -0.974696 -0.108616
vn 0.119650 -0.986816 0.108989
vn -0.350417 -0.644265 0.679802
vn -0.776966 -0.596775 0.200457
vn 0.697878 -0.650764 0.299120
vn -0.854321 -0.428896 -0.293571
vn 0.779321 -0.553923 0.292964
vn 0.485083 -0.843202 0.231745
vn 0.046982 -0.888880 0.455724
vn -0.328530 -0.930286 -0.163204
vn -0.105235 -0.856894 0.504636
vn -0.248722 -0.949234 0.192594
vn 0.122933 -0.988516 0.087880
vn -0.163137 -0.978423 0.126783
vn -0.246205 -0.920607 0.303094
vn -0.287522 -0.957627 -0.016784
vn -0.336497 -0.899975 0.277156
vn 0.025725 -0.778287 -0.627381
vn -0.287075 -0.825917 0.485231
vn -0.021872 -0.862113 0.506244
vn 0.009659 -0.998486 -0.054152
vn 0.546435 -0.830636 0.107021
vn 0.489616 -0.871839 0.013153
vn 0.050047 -0.997993 0.038795
vn -0.283531 -0.869862 0.403670
vn 0.452287 -0.882364 0.129887
vn 0.038915 -0.999042 0.020025
vn 0.216747 0.103370 0.970740
vn 0.139260 -0.979367 0.146446
vn -0.163462 -0.960534 0.225064
vn 0.105091 -0.289171 0.951491
vn 0.498737 -0.471147 0.727517
vn 0.276232 0.076864 0.958012
vn -0.772390 -0.557716 0.303918
vn 0.466060 -0.876088 0.123521
vn 0.775059 -0.271022 0.570816
vn -0.484868 -0.836130 0.256493
vn -0.018992 -0.005062 0.999807
vn -0.003838 0.125233 0.992120
vn -0.463871 -0.879163 0.109072
vn -0.152534 -0.752103 0.641151
vn 0.263365 -0.928612 0.261379
vn -0.055063 -0.704900 0.707166
vn 0.103598 -0.875783 0.471457
vn -0.104338 -0.967099 0.232018
vn 0.062599 -0.861736 0.503481
vn 0.028900 -0.708981 0.704635
vn 0.461651 -0.802190 0.378642
vn 0.128035 -0.673632 0.727892
vn 0.062082 -0.960529 -0.271162
vn 0.062894 -0.579761 0.812355
vn -0.107389 -0.640348 0.760541
vn 0.065711 0.106367 0.992153
vn -0.032795 -0.963557 0.265486
vn -0.170731 -0.960641 0.219135
vn -0.399980 -0.886481 0.232737
vn -0.075077 -0.911981 0.403305
vn -0.056711 -0.623301 0.779923
vn -0.155262 -0.966565 0.204072
vn 0.168202 0.112142 0.979353
vn -0.023153 0.110928 0.993559
vn -0.112873 0.205297 0.972169
vn -0.533209 0.190882 0.824168
vn 0.045982 -0.937243 0.345631
vn 0.129093 0.991105 0.032343
vn -0.028523 0.976093 0.215475
vn 0.131435 0.498068 0.857119
vn 0.479847 0.468384 0.741865
vn -0.756604 0.639620 0.135783
vn 0.565648 0.823403 0.045274
vn 0.727995 0.287892 0.622207
vn -0.689191 0.704099 0.171056
vn -0.422995 0.869010 0.256705
vn -0.041932 0.795941 0.603921
vn 0.355285 0.931147 0.082079
vn 0.020725 0.752412 0.658366
vn 0.166478 0.835495 0.523672
vn -0.079338 0.972071 0.220872
vn 0.188747 0.932529 0.307837
vn 0.023147 0.836235 0.547882
vn 0.428177 0.718475 0.548140
vn 0.256099 0.812261 0.524067
vn 0.202068 0.845691 -0.493938
vn 0.156021 0.735601 0.659203
vn -0.020517 0.783297 0.621309
vn 0.116606 0.985074 0.126617
vn -0.348041 0.934039 0.080243
vn -0.272823 0.962021 0.009156
vn 0.050305 0.981083 0.186939
vn 0.041564 0.794894 0.605323
vn -0.177957 0.981307 0.073267
vn -0.068377 0.980008 0.186838
vn 0.371161 -0.167812 0.913279
vn -0.421969 -0.821016 -0.384546
g fff03910_00002_00021ec8_e4
f 246/4/246 239/4/239 245/4/245
f 267/4/267 256/4/256 266/4/266
f 260/4/260 258/4/258 259/4/259
f 267/4/267 266/4/266 265/4/265
f 267/4/267 254/4/254 263/4/263
f 267/4/267 265/4/265 254/4/254
f 260/4/260 264/4/264 255/4/255
f 227/1/227 222/1/222 232/1/232
f 235/1/235 231/1/231 221/1/221
f 260/4/260 259/4/259 264/4/264
f 224/1/224 220/1/220 219/1/219
f 218/1/218 225/1/225 226/1/226
f 219/1/219 217/1/217 216/1/216
f 219/1/219 216/1/216 224/1/224
f 227/1/227 232/1/232 226/1/226
f 235/1/235 221/1/221 233/1/233
f 251/4/251 259/4/259 258/4/258
f 211/1/211 210/1/210 239/1/239
f 235/1/235 234/1/234 223/1/223
f 257/4/257 252/4/252 253/4/253
f 227/1/227 226/1/226 225/1/225
f 235/1/235 233/1/233 234/1/234
f 252/4/252 257/4/257 249/4/249
f 252/4/252 249/4/249 250/4/250
f 212/1/212 247/1/247 208/1/208
f 244/1/244 208/1/208 247/1/247
f 270/13/270 269/13/269 181/13/181
f 202/13/202 191/13/191 201/13/201
f 195/13/195 193/13/193 194/13/194
f 202/13/202 201/13/201 200/13/200
f 202/13/202 189/13/189 198/13/198
f 202/13/202 200/13/200 189/13/189
f 195/13/195 199/13/199 190/13/190
f 164/12/164 159/12/159 169/12/169
f 172/12/172 168/12/168 158/12/158
f 195/13/195 194/13/194 199/13/199
f 161/12/161 157/12/157 156/12/156
f 155/12/155 162/12/162 163/12/163
f 156/12/156 154/12/154 153/12/153
f 156/12/156 153/12/153 161/12/161
f 164/12/164 169/12/169 163/12/163
f 172/12/172 158/12/158 170/12/170
f 186/13/186 194/13/194 193/13/193
f 83/12/83 148/12/148 269/12/269
f 172/12/172 171/12/171 160/12/160
f 192/13/192 187/13/187 188/13/188
f 164/12/164 163/12/163 162/12/162
f 172/12/172 170/12/170 171/12/171
f 187/13/187 192/13/192 184/13/184
f 187/13/187 184/13/184 185/13/185
f 149/12/149 182/12/182 146/12/146
f 180/12/180 146/12/146 182/12/182
f 94/4/94 58/4/58 93/4/93
f 121/4/121 106/4/106 120/4/120
f 130/4/130 94/4/94 123/4/123
f 67/4/67 66/4/66 90/4/90
f 110/4/110 108/4/108 109/4/109
f 124/4/124 58/4/58 130/4/130
f 97/4/97 125/4/125 133/4/133
f 98/4/98 97/4/97 133/4/133
f 121/4/121 120/4/120 119/4/119
f 90/4/90 115/4/115 67/4/67
f 132/4/132 131/4/131 122/4/122
f 122/4/122 131/4/131 116/4/116
f 121/4/121 104/4/104 117/4/117
f 98/4/98 133/4/133 134/4/134
f 121/4/121 119/4/119 104/4/104
f 110/4/110 118/4/118 105/4/105
f 134/4/134 133/4/133 126/4/126
f 84/4/84 138/6/138 139/5/139
f 82/4/82 83/4/83 91/4/91
f 37/1/37 32/1/32 47/1/47
f 50/1/50 46/1/46 31/1/31
f 51/1/51 45/1/45 69/1/69
f 15/1/15 67/1/67 44/1/44
f 67/1/67 15/1/15 66/1/66
f 110/4/110 109/4/109 118/4/118
f 34/1/34 30/1/30 29/1/29
f 28/1/28 35/1/35 36/1/36
f 91/4/91 83/4/83 84/4/84
f 16/1/16 77/2/77 7/1/7
f 29/1/29 27/1/27 26/1/26
f 29/1/29 26/1/26 34/1/34
f 58/1/58 68/1/68 19/1/19
f 16/1/16 7/1/7 6/1/6
f 37/1/37 47/1/47 36/1/36
f 50/1/50 31/1/31 48/1/48
f 23/1/23 71/1/71 22/1/22
f 101/4/101 109/4/109 108/4/108
f 19/1/19 18/1/18 58/1/58
f 50/1/50 49/1/49 33/1/33
f 68/1/68 55/1/55 19/1/19
f 107/4/107 102/4/102 103/4/103
f 37/1/37 36/1/36 35/1/35
f 56/1/56 68/1/68 58/1/58
f 22/1/22 71/1/71 57/1/57
f 58/4/58 94/4/94 130/4/130
f 50/1/50 48/1/48 49/1/49
f 102/4/102 107/4/107 99/4/99
f 70/1/70 51/1/51 69/1/69
f 102/4/102 99/4/99 100/4/100
f 91/4/91 84/4/84 139/5/139
f 23/1/23 72/1/72 71/1/71
f 20/1/20 95/1/95 13/1/13
f 89/1/89 13/1/13 95/1/95
f 72/1/72 59/1/59 71/1/71
f 7/1/7 77/2/77 76/3/76
f 5/1/5 16/1/16 6/1/6
g fff03910_00002_00021ec8_e3
f 245/4/245 268/8/268 241/4/241
f 254/4/254 242/4/242 248/4/248
f 254/4/254 265/4/265 262/4/262
f 246/4/246 245/4/245 241/4/241
f 206/1/206 230/1/230 221/1/221
f 230/1/230 228/1/228 233/1/233
f 211/1/211 205/1/205 210/1/210
f 210/1/210 205/1/205 240/7/240
f 221/1/221 213/1/213 206/1/206
f 221/1/221 231/1/231 213/1/213
f 262/4/262 265/4/265 261/4/261
f 254/4/254 248/4/248 263/4/263
f 221/1/221 230/1/230 233/1/233
f 242/4/242 254/4/254 262/4/262
f 181/13/181 203/15/203 177/13/177
f 189/13/189 178/13/178 183/13/183
f 189/13/189 200/13/200 197/13/197
f 270/13/270 181/13/181 177/13/177
f 144/12/144 167/12/167 158/12/158
f 167/12/167 165/12/165 170/12/170
f 83/12/83 143/12/143 148/12/148
f 148/12/148 143/12/143 176/14/176
f 158/12/158 150/12/150 144/12/144
f 158/12/158 168/12/168 150/12/150
f 197/13/197 200/13/200 196/13/196
f 189/13/189 183/13/183 198/13/198
f 158/12/158 167/12/167 170/12/170
f 178/13/178 189/13/189 197/13/197
f 126/4/126 133/4/133 130/4/130
f 114/4/114 115/4/115 132/4/132
f 93/4/93 141/8/141 85/4/85
f 104/4/104 87/4/87 96/4/96
f 130/4/130 123/4/123 126/4/126
f 124/4/124 130/4/130 125/4/125
f 132/4/132 115/4/115 131/4/131
f 104/4/104 119/4/119 113/4/113
f 86/4/86 137/4/137 136/4/136
f 133/4/133 125/4/125 130/4/130
f 94/4/94 93/4/93 85/4/85
f 112/4/112 129/4/129 128/4/128
f 11/1/11 42/1/42 31/1/31
f 42/1/42 38/1/38 48/1/48
f 19/1/19 9/1/9 18/1/18
f 18/1/18 9/1/9 79/7/79
f 31/1/31 21/1/21 11/1/11
f 31/1/31 46/1/46 21/1/21
f 59/1/59 68/1/68 71/1/71
f 43/1/43 70/1/70 69/1/69
f 113/4/113 119/4/119 111/4/111
f 104/4/104 96/4/96 117/4/117
f 68/1/68 59/1/59 55/1/55
f 56/1/56 57/1/57 68/1/68
f 43/1/43 69/1/69 44/1/44
f 31/1/31 42/1/42 48/1/48
f 10/1/10 74/1/74 75/1/75
f 71/1/71 68/1/68 57/1/57
f 87/4/87 104/4/104 113/4/113
f 41/1/41 62/1/62 63/1/63
g fff03910_00002_00021ec8_e1
f 250/4/250 243/4/243 252/4/252
f 252/4/252 244/4/244 253/4/253
f 268/8/268 238/4/238 256/4/256
f 245/4/245 238/4/238 268/8/268
f 243/4/243 250/4/250 242/4/242
f 266/4/266 229/4/229 261/4/261
f 258/4/258 243/4/243 251/4/251
f 204/4/204 260/4/260 209/4/209
f 243/4/243 258/4/258 204/4/204
f 265/4/265 266/4/266 261/4/261
f 229/4/229 237/4/237 261/4/261
f 260/4/260 204/4/204 258/4/258
f 236/4/236 209/4/209 261/4/261
f 244/4/244 252/4/252 243/4/243
f 236/4/236 261/4/261 237/4/237
f 256/4/256 229/4/229 266/4/266
f 256/4/256 214/4/214 229/4/229
f 209/4/209 255/4/255 261/4/261
f 255/4/255 209/4/209 260/4/260
f 245/4/245 239/4/239 238/4/238
f 238/4/238 215/4/215 256/4/256
f 236/1/236 237/1/237 228/1/228
f 236/1/236 228/1/228 209/1/209
f 208/1/208 207/1/207 219/1/219
f 217/1/217 219/1/219 207/1/207
f 219/1/219 220/1/220 208/1/208
f 238/1/238 223/1/223 215/1/215
f 210/1/210 240/7/240 223/1/223
f 207/1/207 206/1/206 217/1/217
f 234/1/234 228/1/228 229/1/229
f 225/1/225 218/1/218 207/1/207
f 204/1/204 209/1/209 227/1/227
f 207/1/207 204/1/204 225/1/225
f 233/1/233 228/1/228 234/1/234
f 229/1/229 228/1/228 237/1/237
f 227/1/227 225/1/225 204/1/204
f 207/1/207 208/1/208 204/1/204
f 208/1/208 244/1/244 204/1/204
f 243/1/243 204/1/204 244/1/244
f 223/1/223 234/1/234 229/1/229
f 223/1/223 229/1/229 214/1/214
f 209/1/209 228/1/228 222/1/222
f 222/1/222 227/1/227 209/1/209
f 210/1/210 238/1/238 239/1/239
f 238/1/238 210/1/210 223/1/223
f 185/13/185 179/13/179 187/13/187
f 187/13/187 180/13/180 188/13/188
f 203/15/203 175/13/175 191/13/191
f 181/13/181 175/13/175 203/15/203
f 179/13/179 185/13/185 178/13/178
f 201/13/201 166/13/166 196/13/196
f 193/13/193 179/13/179 186/13/186
f 142/13/142 195/13/195 147/13/147
f 179/13/179 193/13/193 142/13/142
f 200/13/200 201/13/201 196/13/196
f 166/13/166 174/13/174 196/13/196
f 195/13/195 142/13/142 193/13/193
f 173/13/173 147/13/147 196/13/196
f 180/13/180 187/13/187 179/13/179
f 173/13/173 196/13/196 174/13/174
f 191/13/191 166/13/166 201/13/201
f 191/13/191 151/13/151 166/13/166
f 147/13/147 190/13/190 196/13/196
f 190/13/190 147/13/147 195/13/195
f 181/13/181 269/13/269 175/13/175
f 175/13/175 152/13/152 191/13/191
f 173/12/173 174/12/174 165/12/165
f 173/12/173 165/12/165 147/12/147
f 146/12/146 145/12/145 156/12/156
f 154/12/154 156/12/156 145/12/145
f 156/12/156 157/12/157 146/12/146
f 175/12/175 160/12/160 152/12/152
f 148/12/148 176/14/176 160/12/160
f 145/12/145 144/12/144 154/12/154
f 171/12/171 165/12/165 166/12/166
f 162/12/162 155/12/155 145/12/145
f 142/12/142 147/12/147 164/12/164
f 145/12/145 142/12/142 162/12/162
f 170/12/170 165/12/165 171/12/171
f 166/12/166 165/12/165 174/12/174
f 164/12/164 162/12/162 142/12/142
f 145/12/145 146/12/146 142/12/142
f 146/12/146 180/12/180 142/12/142
f 179/12/179 142/12/142 180/12/180
f 160/12/160 171/12/171 166/12/166
f 160/12/160 166/12/166 151/12/151
f 147/12/147 165/12/165 159/12/159
f 159/12/159 164/12/164 147/12/147
f 148/12/148 175/12/175 269/12/269
f 175/12/175 148/12/148 160/12/160
f 100/4/100 88/4/88 102/4/102
f 102/4/102 89/4/89 103/4/103
f 141/8/141 54/4/54 106/4/106
f 93/4/93 54/4/54 141/8/141
f 88/4/88 100/4/100 87/4/87
f 120/4/120 39/4/39 111/4/111
f 108/4/108 88/4/88 101/4/101
f 8/4/8 110/4/110 14/4/14
f 88/4/88 108/4/108 8/4/8
f 119/4/119 120/4/120 111/4/111
f 39/4/39 53/4/53 111/4/111
f 40/4/40 114/4/114 132/4/132
f 139/5/139 92/4/92 140/10/140
f 139/5/139 138/6/138 92/4/92
f 138/6/138 140/10/140 92/4/92
f 138/6/138 4/4/4 140/10/140
f 125/4/125 97/4/97 90/4/90
f 90/4/90 124/4/124 125/4/125
f 90/4/90 66/4/66 124/4/124
f 67/4/67 114/4/114 65/4/65
f 110/4/110 8/4/8 108/4/108
f 52/4/52 14/4/14 111/4/111
f 89/4/89 102/4/102 88/4/88
f 40/4/40 132/4/132 81/4/81
f 52/4/52 111/4/111 53/4/53
f 106/4/106 39/4/39 120/4/120
f 106/4/106 24/4/24 39/4/39
f 114/4/114 67/4/67 115/4/115
f 14/4/14 105/4/105 111/4/111
f 105/4/105 14/4/14 110/4/110
f 93/4/93 58/4/58 54/4/54
f 54/4/54 25/4/25 106/4/106
f 84/4/84 4/4/4 138/6/138
f 4/4/4 84/4/84 3/4/3
f 56/4/56 124/4/124 66/4/66
f 114/4/114 64/4/64 65/4/65
f 64/1/64 40/1/40 43/1/43
f 52/1/52 53/1/53 38/1/38
f 40/1/40 2/1/2 70/1/70
f 52/1/52 38/1/38 14/1/14
f 40/1/40 70/1/70 43/1/43
f 40/1/40 61/1/61 2/1/2
f 13/1/13 12/1/12 29/1/29
f 27/1/27 29/1/29 12/1/12
f 29/1/29 30/1/30 13/1/13
f 54/1/54 33/1/33 25/1/25
f 18/1/18 79/7/79 33/1/33
f 12/1/12 11/1/11 27/1/27
f 49/1/49 38/1/38 39/1/39
f 35/1/35 28/1/28 12/1/12
f 8/1/8 14/1/14 37/1/37
f 12/1/12 8/1/8 35/1/35
f 48/1/48 38/1/38 49/1/49
f 39/1/39 38/1/38 53/1/53
f 64/4/64 114/4/114 40/4/40
f 77/2/77 78/9/78 17/1/17
f 77/2/77 17/1/17 76/3/76
f 76/3/76 17/1/17 78/9/78
f 76/3/76 78/9/78 4/1/4
f 57/1/57 15/1/15 22/1/22
f 15/1/15 57/1/57 56/1/56
f 15/1/15 56/1/56 66/1/66
f 67/1/67 65/1/65 43/1/43
f 37/1/37 35/1/35 8/1/8
f 12/1/12 13/1/13 8/1/8
f 40/4/40 81/4/81 61/4/61
f 13/1/13 89/1/89 8/1/8
f 88/1/88 8/1/8 89/1/89
f 33/1/33 49/1/49 39/1/39
f 33/1/33 39/1/39 24/1/24
f 43/1/43 44/1/44 67/1/67
f 14/1/14 38/1/38 32/1/32
f 32/1/32 37/1/37 14/1/14
f 18/1/18 54/1/54 58/1/58
f 54/1/54 18/1/18 33/1/33
f 7/1/7 76/3/76 4/1/4
f 4/1/4 3/1/3 7/1/7
f 58/1/58 124/1/124 56/1/56
f 43/1/43 65/1/65 64/1/64
g fff03910_00002_00021ec8_e6
f 251/4/251 242/4/242 259/4/259
f 242/4/242 251/4/251 243/4/243
f 235/1/235 213/1/213 231/1/231
f 218/1/218 226/1/226 206/1/206
f 206/1/206 207/1/207 218/1/218
f 186/13/186 178/13/178 194/13/194
f 178/13/178 186/13/186 179/13/179
f 172/12/172 150/12/150 168/12/168
f 155/12/155 163/12/163 144/12/144
f 144/12/144 145/12/145 155/12/155
f 83/11/83 6/11/6 3/11/3
f 6/1/6 7/1/7 3/1/3
f 83/4/83 3/4/3 84/4/84
f 4/4/4 61/4/61 81/4/81
f 101/4/101 87/4/87 109/4/109
f 137/4/137 86/4/86 98/4/98
f 87/4/87 101/4/101 88/4/88
f 50/1/50 21/1/21 46/1/46
f 75/1/75 23/1/23 10/1/10
f 28/1/28 36/1/36 11/1/11
f 11/1/11 12/1/12 28/1/28
f 4/1/4 2/1/2 61/1/61
g fff03910_00002_00021ec8_e5
f 249/4/249 242/4/242 250/4/250
f 253/4/253 247/4/247 257/4/257
f 242/4/242 249/4/249 248/4/248
f 262/4/262 259/4/259 242/4/242
f 241/4/241 256/4/256 267/4/267
f 264/4/264 261/4/261 255/4/255
f 264/4/264 259/4/259 262/4/262
f 268/8/268 256/4/256 241/4/241
f 247/4/247 253/4/253 244/4/244
f 230/1/230 232/1/232 228/1/228
f 220/1/220 224/1/224 212/1/212
f 216/1/216 217/1/217 206/1/206
f 206/1/206 213/1/213 216/1/216
f 230/1/230 206/1/206 226/1/226
f 205/1/205 235/1/235 223/1/223
f 262/4/262 261/4/261 264/4/264
f 232/1/232 222/1/222 228/1/228
f 232/1/232 230/1/230 226/1/226
f 240/7/240 205/1/205 223/1/223
f 212/1/212 208/1/208 220/1/220
f 184/13/184 178/13/178 185/13/185
f 188/13/188 182/13/182 192/13/192
f 178/13/178 184/13/184 183/13/183
f 197/13/197 194/13/194 178/13/178
f 177/13/177 191/13/191 202/13/202
f 199/13/199 196/13/196 190/13/190
f 199/13/199 194/13/194 197/13/197
f 203/15/203 191/13/191 177/13/177
f 182/13/182 188/13/188 180/13/180
f 167/12/167 169/12/169 165/12/165
f 157/12/157 161/12/161 149/12/149
f 153/12/153 154/12/154 144/12/144
f 144/12/144 150/12/150 153/12/153
f 167/12/167 144/12/144 163/12/163
f 143/12/143 172/12/172 160/12/160
f 197/13/197 196/13/196 199/13/199
f 169/12/169 159/12/159 165/12/165
f 169/12/169 167/12/167 163/12/163
f 176/14/176 143/12/143 160/12/160
f 149/12/149 146/12/146 157/12/157
f 91/4/91 80/4/80 82/4/82
f 80/4/80 91/4/91 81/4/81
f 99/4/99 87/4/87 100/4/100
f 103/4/103 95/4/95 107/4/107
f 80/4/80 122/4/122 128/4/128
f 139/5/139 140/10/140 4/4/4
f 86/4/86 116/4/116 131/4/131
f 87/4/87 99/4/99 96/4/96
f 135/4/135 116/4/116 86/4/86
f 113/4/113 109/4/109 87/4/87
f 112/4/112 116/4/116 135/4/135
f 90/4/90 131/4/131 115/4/115
f 131/4/131 90/4/90 86/4/86
f 85/4/85 106/4/106 121/4/121
f 139/5/139 81/4/81 91/4/91
f 122/4/122 116/4/116 112/4/112
f 127/4/127 135/4/135 86/4/86
f 118/4/118 111/4/111 105/4/105
f 118/4/118 109/4/109 113/4/113
f 98/4/98 90/4/90 97/4/97
f 90/4/90 98/4/98 86/4/86
f 141/8/141 106/4/106 85/4/85
f 132/4/132 122/4/122 81/4/81
f 81/4/81 122/4/122 80/4/80
f 95/4/95 103/4/103 89/4/89
f 4/4/4 81/4/81 139/5/139
f 42/1/42 47/1/47 38/1/38
f 30/1/30 34/1/34 20/1/20
f 10/1/10 60/1/60 74/1/74
f 62/1/62 41/1/41 51/1/51
f 1/1/1 62/1/62 51/1/51
f 60/1/60 10/1/10 73/1/73
f 16/1/16 5/1/5 1/1/1
f 1/1/1 2/1/2 16/1/16
f 26/1/26 27/1/27 11/1/11
f 86/4/86 136/4/136 127/4/127
f 128/4/128 122/4/122 112/4/112
f 77/2/77 4/1/4 78/9/78
f 10/1/10 69/1/69 45/1/45
f 11/1/11 21/1/21 26/1/26
f 73/1/73 10/1/10 45/1/45
f 42/1/42 11/1/11 36/1/36
f 41/1/41 73/1/73 45/1/45
f 15/1/15 44/1/44 69/1/69
f 69/1/69 10/1/10 15/1/15
f 9/1/9 50/1/50 33/1/33
f 77/2/77 16/1/16 2/1/2
f 51/1/51 41/1/41 45/1/45
f 113/4/113 111/4/111 118/4/118
f 47/1/47 32/1/32 38/1/38
f 47/1/47 42/1/42 36/1/36
f 23/1/23 22/1/22 15/1/15
f 15/1/15 10/1/10 23/1/23
f 79/7/79 9/1/9 33/1/33
f 70/1/70 2/1/2 51/1/51
f 2/1/2 1/1/1 51/1/51
f 20/1/20 13/1/13 30/1/30
f 4/1/4 77/2/77 2/1/2
