# fff0b525_00076_00113804
o fff0b525_00076_00113804
v -10.140146 1.237785 -4.544531
v -9.373573 1.237785 -4.544531
v -9.373573 1.237785 -0.945599
v -10.140146 1.237785 -0.945599
v -5.533297 1.237785 -4.544531
v -6.300291 1.237785 -4.544531
v -6.300291 1.237785 -0.945599
v -5.533297 1.237785 -0.945599
v -2.989428 1.237785 -4.544531
v -2.222855 1.237785 -4.544531
v -2.222855 1.237785 -0.945599
v -2.989428 1.237785 -0.945599
v -0.335884 1.109283 -4.544531
v -0.335884 1.109283 -0.945599
v -2.174755 1.109284 -4.544531
v -2.174755 1.109284 -0.945599
v -2.174755 1.109284 -3.370022
v -0.335884 1.109283 -3.370022
v -2.222855 1.237785 -3.370022
v -2.989428 1.237785 -3.370022
v -5.533297 1.237785 -3.370022
v -6.300291 1.237785 -3.370022
v -9.373573 1.237785 -3.370022
v -10.140146 1.237785 -3.370022
v 8.099275 1.237785 -4.544531
v 7.332282 1.237785 -4.544531
v 7.332282 1.237785 -0.945599
v 8.099275 1.237785 -0.945599
v 12.808294 1.237784 -4.544531
v 12.808294 1.237784 -0.945599
v 7.332282 1.111625 -4.544531
v 7.332282 1.111625 -0.945599
v 2.116760 1.111627 -4.544531
v 2.116760 1.111627 -0.945599
v 12.808294 1.237784 -3.370022
v 8.099275 1.237785 -3.370022
v 7.332282 1.237785 -3.370022
v 7.332282 1.111625 -3.370022
v 2.116760 1.111627 -3.370022
v -11.245037 1.308332 -1.066716
v 12.808294 1.308334 -1.066716
v 12.808294 1.090075 -1.066716
v -11.245037 1.308332 1.744292
v 13.451008 1.308334 1.744292
v 12.808294 1.308334 -4.544531
v 12.808294 1.090075 -4.544531
v 2.116760 1.111627 -1.510299
v 7.332284 1.111625 -1.510299
v 7.332284 1.237785 -1.510299
v 8.099275 1.237785 -1.510299
v 12.808294 1.237784 -1.438590
v -0.335884 1.109283 -1.510299
v -2.174755 1.109284 -1.510299
v -2.222855 1.237785 -1.510299
v -2.989428 1.237785 -1.510299
v -5.533297 1.237785 -1.510299
v -6.300291 1.237785 -1.510299
v -9.373573 1.237785 -1.510299
v -10.140146 1.237785 -1.510299
v 3.638881 1.111627 -4.544531
v 4.233149 1.111626 -3.370022
v 7.332282 1.216709 -4.544531
v 7.332282 1.219694 -3.370022
v 7.332284 1.227893 -1.510299
v 7.094089 1.111625 -4.544531
v 7.078544 1.111625 -3.370022
v 12.808294 1.296584 -4.544531
v 12.808294 1.296584 -1.066716
v 13.515097 1.308334 -4.544531
v 12.674953 1.308334 1.744292
v 10.725391 1.308334 -1.066716
v 9.147717 1.308334 1.744292
v 3.510827 1.111627 -4.544531
v 4.089907 1.111626 -3.370022
v 3.005667 1.308335 -1.066716
v 1.724668 1.308336 1.744292
v 1.346185 1.109283 -4.544531
v 1.346185 1.109283 -0.945599
v 1.346185 1.109283 -3.370022
v 1.346183 1.109283 -1.510299
v 2.092709 1.231763 -4.544504
v 1.325716 1.231763 -4.544504
v 1.325716 1.231763 -0.945572
v 2.092709 1.231763 -0.945572
v 1.325716 1.105604 -4.544504
v 1.325716 1.105604 -0.945572
v 2.092709 1.231763 -3.369996
v 1.325716 1.231763 -3.369996
v 1.325716 1.105604 -3.369996
v 1.325718 1.105604 -1.510272
v 1.325718 1.231763 -1.510272
v 2.092709 1.231763 -1.510272
v 1.325716 1.210687 -4.544504
v 1.325716 1.213672 -3.369996
v 1.325718 1.221871 -1.510272
v 5.620354 1.111626 -0.945599
v 5.286623 1.111626 -1.226646
v 5.437711 1.111626 -1.269676
v 7.332282 1.111625 -4.544531
v 7.332282 1.111625 -0.945599
v 7.332282 1.111625 -3.370022
v 7.092687 1.111625 -1.269676
v 7.220695 1.111625 -1.226646
v 7.214698 1.111625 -3.370022
v 7.200088 1.111625 -4.544531
v 5.307053 1.308335 -1.066716
v 5.530812 1.308335 -1.066716
v 6.329367 1.308335 -0.457724
v 6.297244 1.308335 -0.256202
v 6.862996 1.308335 -1.066716
v 7.137029 1.308335 -1.066716
v 4.171611 1.111627 -4.544531
v 4.325027 1.111627 -4.544531
v 4.374136 1.111627 -3.370022
v 4.768184 1.111626 -2.384743
v 7.003317 1.111625 -2.413103
v 7.084383 1.111625 -2.502888
v 4.878626 1.111626 -3.370022
v 5.047080 1.111626 -4.544531
v 4.655029 1.111626 -2.290751
v 7.882077 1.237785 -4.544531
v 7.731103 1.237785 -4.544531
v 7.824018 1.237785 -3.370022
v 7.693783 1.237785 -3.370022
v 7.805879 1.237785 -1.658584
v 7.716258 1.237785 -1.744502
v 7.613833 1.237785 -1.510299
v 7.441274 1.237785 -1.510299
v 7.332283 1.237785 -1.275414
v 7.332284 1.237785 -1.435183
v 12.121442 1.308334 1.744292
v 12.145043 1.308334 -1.066716
v 12.171812 1.094498 -1.066716
v 12.146482 1.296844 -1.066716
v 12.152858 1.237784 -0.945599
v 12.157599 1.237785 -1.532569
v 12.173213 1.237785 -3.370022
v 12.183074 1.237784 -4.544531
v 11.917236 1.308334 1.744292
v 11.913612 1.308334 -1.066716
v 11.936360 1.098133 -1.066716
v 11.914836 1.297036 -1.066716
v 11.921404 1.237785 -0.945599
v 11.920675 1.237785 -1.604278
v 11.918279 1.237785 -3.370022
v 11.916764 1.237785 -4.544531
v 12.808294 1.237784 -1.567708
v 12.160053 1.237785 -1.681396
v 11.920195 1.237785 -1.883510
v 12.154706 1.237784 -1.253122
v 12.808294 1.237784 -1.166306
v 12.808294 1.237784 -1.056496
v 12.153872 1.237784 -1.086528
v 11.914958 1.308334 -0.022690
v 12.138047 1.308334 -0.233392
v 12.755108 1.308334 0.054536
v 12.600695 1.308334 -0.240935
v 13.451008 1.308334 0.052278
v 13.466204 1.308334 -1.037593
v 12.729383 1.237784 -1.594703
v 12.955987 1.308334 -1.060178
v 4.369254 1.111626 -2.869699
v 4.839798 1.111626 -2.217623
v -1.839728 1.109284 -4.544531
v -1.113851 1.109284 -3.370022
v -0.733179 1.109284 -2.734869
v -1.734160 1.109284 -4.544531
v -0.954115 1.109284 -3.370022
v -0.705710 1.109284 -2.996002
v 0.994262 1.109283 -4.544531
v -0.040359 1.109283 -3.370022
v -0.335884 1.109283 -3.083441
vt 17.393177 -4.385581
vt 17.393173 21.988615
vt 11.669069 -4.385580
vt 11.669069 22.414640
vt 11.669069 -3.293584
vt 11.669069 22.414640
vt 11.669069 -4.385580
vt 11.669070 22.414633
vt 11.669069 -4.385580
vt 11.669069 22.414640
vt 11.669069 -4.385580
vt 11.669069 22.414633
vt 11.669069 4.321082
vt 11.669069 4.321081
vt 17.393173 4.321083
vt 11.669068 4.321084
vt 11.669069 32.588806
vt 11.669069 -4.385580
vt 11.669069 4.321083
vt 11.669069 4.321083
vt 11.669068 21.988615
vt 17.393173 3.895065
vt 11.669069 3.895065
vt 11.669060 21.988615
vt 17.393164 21.988615
vt 17.393173 3.895065
vt 11.669069 3.895065
vt 11.669069 4.321083
vt 11.669069 22.414639
vt 11.669069 22.414639
vt 11.669069 4.321083
vt 13.244159 5.788566
vt 13.244159 42.762959
vt 16.045271 23.882139
vt 11.669069 4.321083
vt 11.669069 -4.385576
vt 11.669069 -4.385580
vt 11.669069 32.588802
vt 11.669069 32.588802
vt 17.393173 32.588802
vt 11.669069 -4.385580
vt 11.669069 -4.385580
vt 11.669069 -4.385580
vt 11.669068 -4.385580
vt 0.533905 -0.122249
vt 0.330546 -0.122249
vt 8.007240 -0.122249
vt 0.330546 1.000000
vt 8.004066 1.000000
vt 0.669591 0.462306
vt -7.004067 1.466095
vt 0.474236 -0.015848
vt 0.474236 -0.015847
vt 0.474236 1.667685
vt 0.474236 1.789067
vt -0.603412 0.000000
vt -2.763581 0.000000
vt -2.763581 0.850517
vt -0.603412 0.850517
vt 11.669069 18.200266
vt 11.669069 18.200264
vt 11.669069 18.200264
vt 11.669069 17.774240
vt 17.393173 17.774240
vt 11.669069 -4.385579
vt 13.896598 10.002954
vt 12.097991 35.359394
vt 11.669069 18.200258
vt 11.669069 18.200260
vt 11.669068 17.774240
vt 17.393173 17.774240
vt 11.669069 29.818220
vt 11.669069 -4.385579
vt 17.393173 17.774242
vt 11.669068 17.774240
vt 11.669069 18.200266
vt 11.669069 18.200264
vt 11.669068 17.774240
vt 17.393173 17.774240
vt 11.669069 -4.385580
vt 11.669069 4.321083
vt 11.669069 18.200266
vt 11.669069 -4.385580
vt 11.669069 4.321083
vt 11.669069 18.200264
vt 11.669069 -4.385576
vt 11.669069 4.321083
vt 11.669069 18.347580
vt 11.669069 -1.044754
vt 11.669069 -1.278621
vt 11.669069 -1.043347
vt 11.669069 12.167226
vt 11.669069 8.326050
vt -0.615829 0.000000
vt -0.608692 0.850517
vt -7.004067 0.468539
vt 0.474236 -0.015848
vt 0.434515 -0.122249
vt 7.631160 -0.122249
vt 7.435161 -0.122249
vt 7.381522 -0.122249
vt 7.653996 1.000000
vt 7.401809 1.000000
vt 7.313321 1.000000
vt 6.591301 -0.122249
vt 6.464531 1.000000
vt 11.669069 -4.385580
vt 11.669069 3.768024
vt 11.669069 22.414639
vt 6.309098 -0.122249
vt 6.059629 1.000000
vt 11.669069 18.330025
vt 11.669069 18.355009
vt 11.669069 16.481903
vt 11.669069 18.480942
vt 11.669069 16.959524
vt 11.669069 17.460848
vt 11.669069 20.218582
vt 11.669069 17.413376
vt 11.669069 19.433805
vt 11.669069 4.321083
vt 11.669069 -4.385576
vt 6.931354 -0.122249
vt 6.981528 -0.122249
vt 7.109873 0.005247
vt 7.087422 0.039853
vt 7.178252 -0.122249
vt 7.218337 -0.122249
vt 11.669069 -4.385579
vt 11.669069 -4.385579
vt 11.669069 4.321083
vt 11.669069 4.321083
vt 11.669069 10.831852
vt 11.669069 10.719332
vt 11.669069 11.429100
vt 11.669069 10.884411
vt 11.669069 4.321083
vt 11.669069 -4.385578
vt 11.669069 18.862823
vt 15.772221 -4.385581
vt 14.645489 -4.385581
vt 15.338923 3.895065
vt 15.338923 4.321083
vt 14.366967 3.895065
vt 14.366966 4.321083
vt 15.203539 16.667583
vt 14.534695 16.026373
vt 13.935896 17.774240
vt 12.482473 17.774240
vt 11.669065 19.527197
vt 11.669069 19.953220
vt 11.669067 18.334831
vt 11.669069 18.760855
vt 7.956014 1.000000
vt 7.903559 -0.122249
vt -6.848583 1.445756
vt -6.834833 0.468402
vt 11.669069 6.814623
vt 11.669069 10.226050
vt 11.669069 -1.434573
vt 11.669069 -1.623419
vt 11.669069 -1.402679
vt 7.918855 1.000000
vt 7.826945 -0.122249
vt -6.720771 1.429037
vt -6.709086 0.468300
vt 11.669069 5.669089
vt 11.669069 8.703679
vt 11.669069 -1.742882
vt 11.669069 -1.931814
vt 11.669069 -1.749083
vt 11.669069 -1.065941
vt 11.669069 -1.464252
vt 11.669069 -1.780797
vt 11.669069 8.144281
vt 11.669069 9.481831
vt 11.669069 9.080389
vt 11.669069 7.544521
vt 7.861081 0.294561
vt 7.919109 0.210442
vt 0.474236 1.716102
vt 8.005974 0.325392
vt 0.474236 1.703343
vt 8.006308 0.207430
vt 5.630301 1.215360
vt 0.474236 -0.015848
vt 11.669069 -1.166383
vt 0.474236 1.289751
vt 11.669069 7.173031
vt 11.669069 16.837118
vt 11.669069 -4.385580
vt 11.669069 4.321081
vt 11.669069 9.061251
vt 11.669069 -4.385580
vt 11.669069 4.321081
vt 11.669069 7.112405
vt 16.195574 32.588802
vt 12.437929 31.059118
vt 11.735166 33.015747
vt 11.669069 6.459845
vn 0.000000 1.000000 0.000000
vn 0.000000 1.000000 0.000000
vn 0.000000 1.000000 0.000000
vn 0.000000 1.000000 0.000000
vn 0.000000 1.000000 0.000000
vn 0.000000 1.000000 0.000000
vn 0.000000 1.000000 0.000000
vn 0.000000 1.000000 0.000000
vn 0.000000 1.000000 0.000000
vn 0.000000 1.000000 0.000000
vn 0.000000 1.000000 0.000000
vn 0.000000 1.000000 0.000000
vn 0.000000 1.000000 0.000000
vn 0.000000 1.000000 -0.000000
vn 0.000000 1.000000 0.000000
vn 0.000000 1.000000 0.000000
vn 0.000000 1.000000 0.000000
vn 0.000000 1.000000 -0.000000
vn 0.000000 1.000000 0.000000
vn 0.000000 1.000000 0.000000
vn 0.000000 1.000000 0.000000
vn 0.000000 1.000000 0.000000
vn 0.000000 1.000000 0.000000
vn 0.000000 1.000000 0.000000
vn 0.000000 1.000000 0.000000
vn -0.707107 0.707107 0.000000
vn -0.707108 0.707106 -0.000002
vn 0.000000 1.000000 -0.000000
vn 0.000000 1.000000 -0.000000
vn 0.000000 1.000000 0.000000
vn -1.000000 0.000000 0.000000
vn -1.000000 0.000000 -0.000003
vn -0.000000 1.000000 0.000000
vn 0.000000 1.000000 -0.000000
vn 0.000000 1.000000 0.000000
vn 0.000000 1.000000 -0.000000
vn -0.707107 0.707106 0.000000
vn -1.000000 0.000000 0.000001
vn 0.000000 1.000000 0.000000
vn -0.000000 0.999985 -0.005455
vn -0.316225 0.948684 -0.000000
vn -0.708672 0.000000 -0.705538
vn -0.000000 1.000000 0.000000
vn 0.000000 1.000000 0.000000
vn -0.707110 0.707104 0.000000
vn -1.000000 0.000000 0.000000
vn 0.000000 1.000000 0.000000
vn -1.000000 0.000000 -0.000001
vn -0.707107 0.707107 0.000000
vn 0.000000 1.000000 0.000000
vn 0.000000 1.000000 -0.000000
vn 0.000000 1.000000 0.000000
vn 0.000000 1.000000 0.000000
vn 0.000000 1.000000 0.000000
vn 0.000000 1.000000 0.000000
vn 0.000000 1.000000 0.000000
vn 0.000000 1.000000 0.000000
vn 0.000000 1.000000 0.000000
vn 0.000000 1.000000 0.000000
vn 0.000000 1.000000 0.000000
vn -0.000000 1.000000 0.000000
vn -1.000000 0.000000 0.000000
vn -1.000000 0.000000 0.000001
vn -1.000000 0.000001 -0.000000
vn 0.000000 1.000000 -0.000000
vn 0.000000 1.000000 0.000000
vn -1.000000 0.000000 0.000000
vn -0.894383 0.000000 -0.447301
vn -0.000000 1.000000 -0.000000
vn -0.000000 1.000000 -0.000000
vn 0.000000 1.000000 -0.000000
vn 0.000000 1.000000 0.000000
vn 0.000000 1.000000 0.000000
vn 0.000000 1.000000 0.000000
vn -0.000000 1.000000 -0.000000
vn -0.000000 1.000000 -0.000000
vn 0.000000 1.000000 -0.000000
vn 0.000000 1.000000 -0.000000
vn 0.000000 1.000000 0.000000
vn 0.000000 1.000000 -0.000000
vn 0.000000 1.000000 0.000000
vn -0.707107 0.707107 0.000000
vn -0.707107 0.707106 -0.000002
vn 0.000000 1.000000 0.000000
vn -1.000000 0.000000 0.000000
vn -1.000000 0.000000 -0.000003
vn 0.000000 1.000000 0.000000
vn -0.707107 0.707106 0.000000
vn -1.000000 0.000000 0.000001
vn -1.000000 0.000000 -0.000001
vn -0.707106 0.707107 -0.000001
vn 0.000000 1.000000 0.000000
vn -1.000000 0.000000 0.000000
vn -1.000000 0.000000 0.000001
vn -1.000000 0.000000 -0.000001
vn 0.000000 1.000000 -0.000000
vn 0.000000 1.000000 0.000000
vn 0.000000 1.000000 0.000001
vn 0.000000 1.000000 0.000000
vn 0.000000 1.000000 -0.000000
vn 0.000000 1.000000 0.000000
vn 0.000000 1.000000 -0.000000
vn 0.000000 1.000000 -0.000000
vn 0.000000 1.000000 0.000000
vn 0.000000 1.000000 0.000000
vn 0.000000 1.000000 0.000000
vn 0.000000 1.000000 -0.000000
vn 0.000000 1.000000 0.000000
vn 0.000000 1.000000 0.000000
vn 0.000000 1.000000 0.000000
vn 0.000000 1.000000 -0.000000
vn 0.000000 1.000000 0.000000
vn 0.000000 1.000000 0.000000
vn -0.000000 1.000000 0.000000
vn 0.000000 1.000000 0.000000
vn 0.000000 1.000000 0.000000
vn 0.000000 1.000000 0.000000
vn 0.000000 1.000000 0.000000
vn 0.000000 1.000000 -0.000000
vn 0.000000 1.000000 0.000000
vn 0.000000 1.000000 0.000000
vn 0.000000 1.000000 0.000000
vn 0.000000 1.000000 0.000000
vn 0.000000 1.000000 0.000000
vn 0.000000 1.000000 0.000000
vn 0.000000 1.000000 0.000000
vn 0.000000 1.000000 0.000000
vn 0.000000 1.000000 0.000000
vn -0.707087 0.707126 -0.000003
vn -0.707099 0.707115 -0.000002
vn 0.000000 1.000000 -0.000000
vn 0.000000 1.000000 -0.000000
vn 0.000000 0.000000 -1.000000
vn 0.000000 0.000000 -1.000000
vn 0.000000 1.000000 0.000000
vn 0.000000 1.000000 0.000000
vn 0.000000 1.000000 -0.000000
vn 0.000000 1.000000 -0.000000
vn 0.000000 1.000000 -0.000000
vn 0.000000 1.000000 -0.000000
vn 0.000000 0.000000 -1.000000
vn 0.000000 0.000000 -1.000000
vn 0.000000 1.000000 0.000000
vn 0.000000 1.000000 0.000000
vn 0.000000 1.000000 -0.000000
vn 0.000000 1.000000 -0.000000
vn 0.000000 1.000000 0.000000
vn 0.000000 1.000000 0.000000
vn 0.000000 1.000000 0.000000
vn 0.000000 1.000000 0.000000
vn 0.000000 1.000000 0.000000
vn 0.000000 1.000000 0.000000
vn 0.000000 1.000000 0.000000
vn 0.000000 1.000000 -0.000000
vn -0.000000 1.000000 -0.000000
vn -0.000000 1.000000 -0.000000
vn 0.000000 1.000000 -0.000000
vn -0.000000 1.000000 -0.000000
vn -0.000001 1.000000 -0.000000
vn 0.000000 1.000000 -0.000000
vn -0.000000 1.000000 -0.000000
vn -0.000000 1.000000 0.000000
vn 0.000000 1.000000 -0.000000
vn 0.000001 1.000000 -0.000000
vn 0.000001 1.000000 -0.000000
vn 0.000000 1.000000 0.000000
vn 0.000001 1.000000 -0.000000
vn 0.000001 1.000000 -0.000000
vn 0.000000 1.000000 -0.000000
vn 0.000000 1.000000 -0.000000
vn 0.000000 1.000000 -0.000000
vn 0.000001 1.000000 0.000000
g fff0b525_00076_00113804_e15
f 141/165/141 40/50/40 142/166/142
f 42/51/42 133/156/133 134/157/134
f 42/51/42 134/157/134 68/96/68
f 133/156/133 141/165/141 142/166/142
f 133/156/133 142/166/142 134/157/134
g fff0b525_00076_00113804_e12
f 124/144/124 126/147/126 123/142/123
f 83/24/83 92/64/92 91/63/91
f 92/64/92 87/26/87 91/63/91
f 27/24/27 28/25/28 50/64/50
f 3/21/3 59/79/59 4/2/4
f 83/24/83 84/25/84 92/64/92
f 129/150/129 128/149/128 130/152/130
f 130/152/130 128/149/128 49/63/49
f 7/21/7 8/2/8 56/74/56
f 54/70/54 19/23/19 20/22/20
f 127/148/127 125/146/125 128/149/128
f 57/75/57 21/22/21 22/23/22
f 3/21/3 58/78/58 59/79/59
f 91/63/91 87/26/87 88/27/88
f 59/79/59 58/78/58 24/22/24
f 56/74/56 21/22/21 57/75/57
f 58/78/58 23/23/23 24/22/24
f 7/21/7 56/74/56 57/75/57
f 129/150/129 127/148/127 128/149/128
f 11/21/11 55/71/55 12/2/12
f 50/64/50 36/26/36 125/146/125
f 27/24/27 127/148/127 129/150/129
f 11/21/11 54/70/54 55/71/55
f 55/71/55 54/70/54 20/22/20
f 49/63/49 124/144/124 37/27/37
f 49/63/49 128/149/128 124/144/124
f 125/146/125 36/26/36 123/142/123
f 128/149/128 125/146/125 126/147/126
f 126/147/126 125/146/125 123/142/123
f 128/149/128 126/147/126 124/144/124
f 27/24/27 50/64/50 127/148/127
f 50/64/50 125/146/125 127/148/127
g fff0b525_00076_00113804_e13
f 67/94/67 41/59/41 45/56/45
f 41/59/41 67/94/67 68/95/68
f 63/84/63 48/61/48 64/85/64
f 129/151/129 64/85/64 27/29/27
f 38/31/38 48/61/48 63/84/63
f 64/85/64 49/62/49 37/28/37
f 130/153/130 64/85/64 129/151/129
f 49/62/49 64/85/64 130/153/130
f 68/95/68 46/57/46 42/58/42
f 46/57/46 68/95/68 67/94/67
f 63/84/63 64/85/64 37/28/37
f 48/61/48 32/30/32 64/85/64
f 64/85/64 32/30/32 27/29/27
f 95/85/95 86/30/86 83/29/83
f 90/61/90 86/30/86 95/85/95
f 94/84/94 90/61/90 95/85/95
f 91/62/91 95/85/95 83/29/83
f 89/31/89 90/61/90 94/84/94
f 95/85/95 91/62/91 88/28/88
f 94/84/94 95/85/95 88/28/88
g fff0b525_00076_00113804_e11
f 106/123/106 109/126/109 107/124/107
f 69/97/69 45/53/45 161/188/161
f 157/183/157 156/181/156 161/188/161
f 132/155/132 157/184/157 41/47/41
f 40/46/40 43/48/43 76/111/76
f 96/88/96 100/116/100 103/119/103
f 171/198/171 18/38/18 172/199/172
f 147/172/147 35/90/35 160/187/160
f 143/167/143 144/168/144 28/36/28
f 120/139/120 114/131/114 162/189/162
f 78/32/78 80/66/80 14/33/14
f 108/125/108 110/127/110 107/124/107
f 168/195/168 169/196/169 18/14/18
f 75/110/75 40/46/40 76/111/76
f 169/196/169 172/200/172 18/14/18
f 57/76/57 3/10/3 7/6/7
f 97/113/97 47/82/47 34/109/34
f 52/68/52 16/12/16 14/8/14
f 20/17/20 21/18/21 56/73/56
f 12/8/12 55/72/55 8/5/8
f 23/20/23 58/77/58 22/19/22
f 79/34/79 172/199/172 52/67/52
f 96/88/96 97/115/97 34/109/34
f 66/87/66 115/116/115 117/136/117
f 162/189/162 74/108/74 47/82/47
f 96/88/96 103/119/103 97/115/97
f 76/106/76 72/104/72 109/126/109
f 98/112/98 120/139/120 97/113/97
f 102/118/102 98/116/98 97/114/97
f 161/188/161 41/54/41 157/183/157
f 144/169/144 149/174/149 50/65/50
f 72/104/72 71/101/71 109/126/109
f 161/188/161 45/53/45 41/54/41
f 80/66/80 52/67/52 14/33/14
f 79/34/79 52/67/52 80/66/80
f 53/69/53 16/12/16 52/68/52
f 169/196/169 166/193/166 172/200/172
f 55/72/55 56/73/56 8/5/8
f 20/17/20 56/73/56 55/72/55
f 58/77/58 3/10/3 57/76/57
f 58/77/58 57/76/57 22/19/22
f 79/34/79 171/198/171 172/199/172
f 166/193/166 52/68/52 172/200/172
f 108/125/108 111/128/111 110/127/110
f 109/126/109 108/125/108 107/124/107
f 108/125/108 109/126/109 111/128/111
f 75/105/75 109/126/109 106/123/106
f 139/163/139 71/99/71 72/102/72
f 111/101/111 109/103/109 71/100/71
f 39/35/39 47/60/47 74/108/74
f 66/87/66 117/136/117 104/121/104
f 145/170/145 36/37/36 50/65/50
f 61/81/61 74/108/74 162/189/162
f 100/61/100 104/121/104 103/120/103
f 97/115/97 103/119/103 102/117/102
f 103/120/103 104/121/104 117/136/117
f 104/121/104 100/61/100 101/31/101
f 76/106/76 109/126/109 75/105/75
f 66/87/66 118/137/118 115/133/115
f 114/131/114 61/132/61 162/189/162
f 97/113/97 120/139/120 47/82/47
f 117/87/117 115/133/115 120/134/120
f 120/139/120 162/189/162 47/82/47
f 98/87/98 116/134/116 163/190/163
f 116/135/116 98/116/98 102/118/102
f 103/120/103 116/135/116 102/118/102
f 117/136/117 120/116/120 116/135/116
f 103/120/103 117/136/117 116/135/116
f 118/137/118 114/131/114 115/133/115
f 136/160/136 160/187/160 148/173/148
f 159/186/159 161/188/161 158/52/158
f 115/133/115 114/131/114 120/134/120
f 69/97/69 161/188/161 159/186/159
f 155/180/155 140/164/140 154/179/154
f 154/179/154 70/49/70 156/182/156
f 30/93/30 153/178/153 135/158/135
f 150/175/150 151/176/151 136/159/136
f 144/169/144 148/173/148 149/174/149
f 144/169/144 50/65/50 28/36/28
f 136/160/136 51/91/51 160/187/160
f 136/160/136 148/173/148 144/169/144
f 154/179/154 71/99/71 139/163/139
f 154/179/154 139/163/139 131/154/131
f 135/158/135 153/178/153 143/167/143
f 143/167/143 153/178/153 150/175/150
f 51/91/51 147/172/147 160/187/160
f 148/173/148 35/90/35 137/161/137
f 148/173/148 137/161/137 149/174/149
f 149/174/149 145/170/145 50/65/50
f 149/174/149 137/161/137 145/170/145
f 153/178/153 152/177/152 150/175/150
f 150/175/150 136/159/136 144/168/144
f 151/176/151 51/92/51 136/159/136
f 152/177/152 151/176/151 150/175/150
f 30/93/30 152/177/152 153/178/153
f 143/167/143 150/175/150 144/168/144
f 140/164/140 71/99/71 154/179/154
f 70/49/70 154/179/154 131/154/131
f 132/155/132 140/164/140 155/180/155
f 155/180/155 154/179/154 156/182/156
f 70/55/70 158/52/158 156/181/156
f 157/184/157 155/180/155 156/182/156
f 156/181/156 158/52/158 161/188/161
f 132/155/132 155/180/155 157/184/157
f 158/185/158 70/98/70 44/45/44
f 160/187/160 35/90/35 148/173/148
f 163/190/163 116/134/116 120/112/120
f 98/87/98 163/190/163 120/112/120
f 17/13/17 166/193/166 165/192/165
f 17/13/17 53/69/53 166/193/166
f 53/69/53 52/68/52 166/193/166
f 165/192/165 169/196/169 168/195/168
f 165/192/165 166/193/166 169/196/169
g fff0b525_00076_00113804_e1
f 29/89/29 137/161/137 35/90/35
f 171/198/171 79/34/79 77/40/77
f 73/107/73 74/108/74 60/80/60
f 104/121/104 99/36/99 105/122/105
f 25/41/25 36/37/36 146/171/146
f 13/39/13 18/38/18 170/197/170
f 22/19/22 6/5/6 23/20/23
f 21/18/21 20/17/20 9/4/9
f 18/14/18 13/7/13 168/195/168
f 74/108/74 61/81/61 60/80/60
f 170/197/170 171/198/171 77/40/77
f 23/20/23 6/5/6 2/9/2
f 17/13/17 164/191/164 15/11/15
f 5/3/5 21/18/21 9/4/9
f 170/197/170 18/38/18 171/198/171
f 39/35/39 74/108/74 73/107/73
f 61/81/61 112/129/112 60/80/60
f 39/35/39 73/107/73 33/42/33
f 113/130/113 61/132/61 114/131/114
f 66/87/66 105/122/105 65/86/65
f 101/31/101 99/36/99 104/121/104
f 66/87/66 104/121/104 105/122/105
f 112/129/112 61/132/61 113/130/113
f 146/171/146 36/37/36 145/170/145
f 118/137/118 66/87/66 65/86/65
f 119/138/119 114/131/114 118/137/118
f 119/138/119 118/137/118 65/86/65
f 113/130/113 114/131/114 119/138/119
f 29/89/29 138/162/138 137/161/137
f 138/162/138 145/170/145 137/161/137
f 138/162/138 146/171/146 145/170/145
f 17/13/17 165/192/165 164/191/164
f 165/192/165 167/194/167 164/191/164
f 165/192/165 168/195/168 167/194/167
f 168/195/168 13/7/13 167/194/167
g fff0b525_00076_00113804_e3
f 81/1/81 88/16/88 87/15/87
f 124/145/124 121/140/121 122/141/122
f 81/1/81 82/44/82 88/16/88
f 25/1/25 123/143/123 36/15/36
f 25/1/25 121/140/121 123/143/123
f 1/1/1 24/15/24 23/16/23
f 9/1/9 19/16/19 10/44/10
f 123/143/123 121/140/121 124/145/124
f 5/1/5 22/16/22 21/15/21
f 9/1/9 20/15/20 19/16/19
f 5/1/5 6/44/6 22/16/22
f 1/1/1 23/16/23 2/44/2
f 122/141/122 26/44/26 37/16/37
f 124/145/124 122/141/122 37/16/37
g fff0b525_00076_00113804_e14
f 37/28/37 26/43/26 63/84/63
f 38/31/38 63/84/63 62/83/62
f 89/31/89 93/83/93 85/36/85
f 63/84/63 26/43/26 62/83/62
f 94/84/94 82/43/82 93/83/93
f 38/31/38 62/83/62 31/36/31
f 88/28/88 82/43/82 94/84/94
f 89/31/89 94/84/94 93/83/93
