# fff0af14_00001_0005a665
o fff0af14_00001_0005a665
v 1.001787 -4.836667 -0.534964
v 1.001787 -4.836667 0.303236
v 0.946724 -4.836667 0.303236
v 1.001787 -4.796466 0.303236
v 0.946724 -4.796466 -0.534964
v 1.001787 -4.796466 -0.534964
v 0.946724 -4.836667 -0.534964
v 0.946724 -4.796466 0.303236
v 1.001787 -1.073575 -0.534964
v 1.001787 -1.073575 0.303236
v 0.946724 -1.073575 0.303236
v 1.001787 -1.033374 0.303236
v 0.946724 -1.033374 -0.534964
v 1.001787 -1.033374 -0.534964
v 0.946724 -1.073575 -0.534964
v 0.946724 -1.033374 0.303236
v 1.001787 1.075831 -0.534964
v 1.001787 1.075831 0.303236
v 0.946724 1.075831 0.303236
v 1.001787 1.116033 0.303236
v 0.946724 1.116033 -0.534964
v 1.001787 1.116033 -0.534964
v 0.946724 1.075831 -0.534964
v 0.946724 1.116033 0.303236
v 0.982603 7.835495 -0.072933
v 0.982603 7.835495 -0.040072
v 0.951539 7.799003 -0.040072
v 1.013587 7.835495 0.295126
v 1.013587 7.835495 0.340750
v 0.921302 7.750427 0.340750
v -21.223509 -4.800536 -0.040072
v -21.223509 -4.832274 -0.040072
v -21.223509 -4.832274 -0.072933
v -21.223509 -4.800536 -0.072933
v -21.223509 -4.770064 0.340751
v -21.223509 -4.851476 0.340750
v -21.223509 -4.851476 0.295126
v -21.223509 -4.770064 0.295126
v 0.951539 -4.808472 -0.040072
v 0.951539 -4.808472 -0.072933
v 0.982602 -4.832275 -0.072933
v 0.982602 -4.832275 -0.040072
v 0.921301 -4.770065 0.340750
v 0.921301 -4.770065 0.295126
v 1.013587 -4.851477 0.295126
v 1.013587 -4.851477 0.340750
v -0.798216 -4.820432 -0.534964
v -0.798216 -4.820432 0.303236
v -0.853279 -4.820432 0.303236
v -0.798216 -4.780231 0.303236
v -0.853279 -4.780231 -0.534964
v -0.798216 -4.780231 -0.534964
v -0.853279 -4.820432 -0.534964
v -0.853279 -4.780231 0.303236
v -2.696059 -4.820432 -0.534964
v -2.696059 -4.820432 0.303236
v -2.751122 -4.820432 0.303236
v -2.696059 -4.780231 0.303236
v -2.751122 -4.780231 -0.534964
v -2.696059 -4.780231 -0.534964
v -2.751122 -4.820432 -0.534964
v -2.751122 -4.780231 0.303236
v 1.001787 -2.939137 -0.534964
v 1.001787 -2.939137 0.303236
v 0.946724 -2.939137 0.303236
v 1.001787 -2.898936 0.303236
v 0.946724 -2.898936 -0.534964
v 1.001787 -2.898936 -0.534964
v 0.946724 -2.939137 -0.534964
v 0.946724 -2.898936 0.303236
v 1.001788 3.158679 -0.534964
v 1.001788 3.158679 0.303236
v 0.946724 3.158679 0.303236
v 1.001788 3.198880 0.303236
v 0.946724 3.198880 -0.534964
v 1.001788 3.198880 -0.534964
v 0.946724 3.158679 -0.534964
v 0.946724 3.198880 0.303236
v 1.001788 4.992442 -0.534964
v 1.001788 4.992442 0.303236
v 0.946724 4.992442 0.303236
v 1.001788 5.032643 0.303236
v 0.946724 5.032643 -0.534964
v 1.001788 5.032643 -0.534964
v 0.946724 4.992442 -0.534964
v 0.946724 5.032643 0.303236
v 1.001788 6.759585 -0.534964
v 1.001788 6.759585 0.303236
v 0.946724 6.759585 0.303236
v 1.001788 6.799787 0.303236
v 0.946724 6.799787 -0.534964
v 1.001788 6.799787 -0.534964
v 0.946724 6.759585 -0.534964
v 0.946724 6.799787 0.303236
v -12.705519 7.835495 -0.072933
v -12.705519 7.835495 -0.040072
v -12.705519 7.799004 -0.040072
v -12.705519 7.835495 0.295126
v -12.705519 7.835495 0.340750
v -12.705519 7.750427 0.340750
v 0.951539 7.799003 -0.074152
v 0.921302 7.750427 0.306670
v -12.705519 7.799004 -0.074152
v -12.705519 7.750427 0.306670
v 0.486437 7.792575 -0.534964
v 0.486437 7.792575 0.303236
v 0.431374 7.792575 0.303236
v 0.486437 7.832776 0.303236
v 0.431374 7.832776 -0.534964
v 0.486437 7.832776 -0.534964
v 0.431374 7.792575 -0.534964
v 0.431374 7.832776 0.303236
v -10.339903 -4.820431 -0.534964
v -10.339903 -4.820431 0.303236
v -10.394966 -4.820431 0.303236
v -10.339903 -4.780230 0.303236
v -10.394966 -4.780230 -0.534964
v -10.339903 -4.780230 -0.534964
v -10.394966 -4.820431 -0.534964
v -10.394966 -4.780230 0.303236
v -12.492750 -4.820431 -0.534964
v -12.492750 -4.820431 0.303236
v -12.547813 -4.820431 0.303236
v -12.492750 -4.780230 0.303236
v -12.547813 -4.780230 -0.534964
v -12.492750 -4.780230 -0.534964
v -12.547813 -4.820431 -0.534964
v -12.547813 -4.780230 0.303236
v -14.895857 -4.820431 -0.534964
v -14.895857 -4.820431 0.303236
v -14.950920 -4.820431 0.303236
v -14.895857 -4.780230 0.303236
v -14.950920 -4.780230 -0.534964
v -14.895857 -4.780230 -0.534964
v -14.950920 -4.820431 -0.534964
v -14.950920 -4.780230 0.303236
v -17.130018 -4.820431 -0.534964
v -17.130018 -4.820431 0.303236
v -17.185081 -4.820431 0.303236
v -17.130018 -4.780230 0.303236
v -17.185081 -4.780230 -0.534964
v -17.130018 -4.780230 -0.534964
v -17.185081 -4.820431 -0.534964
v -17.185081 -4.780230 0.303236
v -19.405378 -4.820431 -0.534964
v -19.405378 -4.820431 0.303236
v -19.460442 -4.820431 0.303236
v -19.405378 -4.780230 0.303236
v -19.460442 -4.780230 -0.534964
v -19.405378 -4.780230 -0.534964
v -19.460442 -4.820431 -0.534964
v -19.460442 -4.780230 0.303236
v -20.829374 -4.820431 -0.534964
v -20.829374 -4.820431 0.303236
v -20.884438 -4.820431 0.303236
v -20.829374 -4.780230 0.303236
v -20.884438 -4.780230 -0.534964
v -20.829374 -4.780230 -0.534964
v -20.884438 -4.820431 -0.534964
v -20.884438 -4.780230 0.303236
v -5.350163 7.792575 -0.534964
v -5.350163 7.792575 0.303236
v -5.405227 7.792575 0.303236
v -5.350163 7.832777 0.303236
v -5.405227 7.832777 -0.534964
v -5.350163 7.832777 -0.534964
v -5.405227 7.792575 -0.534964
v -5.405227 7.832777 0.303236
v -7.500081 7.792575 -0.534964
v -7.500081 7.792575 0.303236
v -7.555144 7.792575 0.303236
v -7.500081 7.832777 0.303236
v -7.555144 7.832777 -0.534964
v -7.500081 7.832777 -0.534964
v -7.555144 7.792575 -0.534964
v -7.555144 7.832777 0.303236
v -9.794545 7.792575 -0.534964
v -9.794545 7.792575 0.303236
v -9.849608 7.792575 0.303236
v -9.794545 7.832777 0.303236
v -9.849608 7.832777 -0.534964
v -9.794545 7.832777 -0.534964
v -9.849608 7.792575 -0.534964
v -9.849608 7.832777 0.303236
v -11.917043 7.792575 -0.534964
v -11.917043 7.792575 0.303236
v -11.972106 7.792575 0.303236
v -11.917043 7.832777 0.303236
v -11.972106 7.832777 -0.534964
v -11.917043 7.832777 -0.534964
v -11.972106 7.792575 -0.534964
v -11.972106 7.832777 0.303236
v -25.321758 -4.618190 4.077363
v -25.321758 -4.618190 4.824542
v -25.376822 -4.618190 4.824542
v -25.321758 -4.577989 4.824542
v -25.376822 -4.577989 4.077363
v -25.321758 -4.577989 4.077363
v -25.376822 -4.618190 4.077363
v -25.376822 -4.577989 4.824542
v -25.321758 -0.732478 4.077363
v -25.321758 -0.732478 4.824542
v -25.376822 -0.732478 4.824542
v -25.321758 -0.692277 4.824542
v -25.376822 -0.692277 4.077363
v -25.321758 -0.692277 4.077363
v -25.376822 -0.732478 4.077363
v -25.376822 -0.692277 4.824542
v -25.321758 1.416928 4.077363
v -25.321758 1.416928 4.824542
v -25.376822 1.416928 4.824542
v -25.321758 1.457129 4.824542
v -25.376822 1.457129 4.077363
v -25.321758 1.457129 4.077363
v -25.376822 1.416928 4.077363
v -25.376822 1.457129 4.824542
v -25.340942 9.483346 4.448373
v -25.340942 9.483346 4.481235
v -25.372005 9.446855 4.481235
v -25.309958 9.483346 4.816432
v -25.309958 9.483346 4.862056
v -25.402243 9.398278 4.862056
v -30.226742 -4.582060 4.481234
v -30.261028 -4.613798 4.481235
v -30.261028 -4.613798 4.448373
v -30.226742 -4.582060 4.448373
v -30.181616 -4.551588 4.862057
v -30.269985 -4.633000 4.862056
v -30.295895 -4.633000 4.816432
v -30.181616 -4.551588 4.816432
v -25.372007 -4.589995 4.481235
v -25.372007 -4.589995 4.448373
v -25.340942 -4.613799 4.448373
v -25.340942 -4.613799 4.481235
v -25.402245 -4.551589 4.862056
v -25.402245 -4.551589 4.816432
v -25.309959 -4.633000 4.816432
v -25.309959 -4.633000 4.862056
v -28.144253 -4.601955 4.077363
v -28.144253 -4.601955 4.824542
v -28.199316 -4.601955 4.824542
v -28.144253 -4.561754 4.824542
v -28.199316 -4.561754 4.077363
v -28.144253 -4.561754 4.077363
v -28.199316 -4.601955 4.077363
v -28.199316 -4.561754 4.824542
v -25.321758 -2.598041 4.077363
v -25.321758 -2.598041 4.824542
v -25.376822 -2.598041 4.824542
v -25.321758 -2.557839 4.824542
v -25.376822 -2.557839 4.077363
v -25.321758 -2.557839 4.077363
v -25.376822 -2.598041 4.077363
v -25.376822 -2.557839 4.824542
v -25.321758 3.499776 4.077363
v -25.321758 3.499776 4.824542
v -25.376822 3.499776 4.824542
v -25.321758 3.539977 4.824542
v -25.376822 3.539977 4.077363
v -25.321758 3.539977 4.077363
v -25.376822 3.499776 4.077363
v -25.376822 3.539977 4.824542
v -25.321758 5.844845 4.077363
v -25.321758 5.844845 4.824542
v -25.376822 5.844845 4.824542
v -25.321758 5.885046 4.824542
v -25.376822 5.885046 4.077363
v -25.321758 5.885046 4.077363
v -25.376822 5.844845 4.077363
v -25.376822 5.885046 4.824542
v -25.321758 8.167286 4.077363
v -25.321758 8.167286 4.824542
v -25.376822 8.167286 4.824542
v -25.321758 8.207487 4.824542
v -25.376822 8.207487 4.077363
v -25.321758 8.207487 4.077363
v -25.376822 8.167286 4.077363
v -25.376822 8.207487 4.824542
v -37.150188 9.483346 4.448373
v -37.150188 9.483346 4.481235
v -37.098827 9.446855 4.481235
v -37.150188 9.483346 4.816432
v -37.150188 9.483346 4.862056
v -37.070751 9.398278 4.862056
v -25.372005 9.446855 4.447154
v -25.402243 9.398278 4.827976
v -37.098827 9.446855 4.447154
v -37.070751 9.398278 4.827976
v -27.117641 9.440426 4.077363
v -27.117641 9.440426 4.824542
v -27.172705 9.440426 4.824542
v -27.117641 9.480627 4.824542
v -27.172705 9.480627 4.077363
v -27.117641 9.480627 4.077363
v -27.172705 9.440426 4.077363
v -27.172705 9.480627 4.824542
v -29.951687 -4.601955 4.077363
v -29.951687 -4.601955 4.824542
v -30.006752 -4.601955 4.824542
v -29.951687 -4.561754 4.824542
v -30.006752 -4.561754 4.077363
v -29.951687 -4.561754 4.077363
v -30.006752 -4.601955 4.077363
v -30.006752 -4.561754 4.824542
v -31.772327 9.440427 4.077363
v -31.772327 9.440427 4.824542
v -31.827389 9.440427 4.824542
v -31.772327 9.480628 4.824542
v -31.827389 9.480628 4.077363
v -31.772327 9.480628 4.077363
v -31.827389 9.440427 4.077363
v -31.827389 9.480628 4.824542
v -36.218906 9.440427 4.077363
v -36.218906 9.440427 4.824542
v -36.273968 9.440427 4.824542
v -36.218906 9.480628 4.824542
v -36.273968 9.480628 4.077363
v -36.218906 9.480628 4.077363
v -36.273968 9.440427 4.077363
v -36.273968 9.480628 4.824542
v -25.321758 9.432812 4.077363
v -25.321758 9.432812 4.824542
v -25.376822 9.432812 4.824542
v -25.321758 9.473013 4.824542
v -25.376822 9.473013 4.077363
v -25.321758 9.473013 4.077363
v -25.376822 9.432812 4.077363
v -25.376822 9.473013 4.824542
v -29.183208 9.440426 4.077363
v -29.183208 9.440426 4.824542
v -29.238272 9.440426 4.824542
v -29.183208 9.480627 4.824542
v -29.238272 9.480627 4.077363
v -29.183208 9.480627 4.077363
v -29.238272 9.440426 4.077363
v -29.238272 9.480627 4.824542
v -37.150188 -7.986105 4.481235
v -37.098827 -7.938467 4.481235
v -37.150188 -7.994978 4.862056
v -37.070751 -7.907278 4.862056
v -37.098827 -7.938467 4.447154
v -37.070751 -7.907278 4.827976
v -26.772213 -4.601970 4.077363
v -26.772213 -4.601970 4.824542
v -26.827276 -4.601970 4.824542
v -26.772213 -4.561769 4.824542
v -26.827276 -4.561769 4.077363
v -26.772213 -4.561769 4.077363
v -26.827276 -4.601970 4.077363
v -26.827276 -4.561769 4.824542
v -30.226757 -1.874380 4.481233
v -30.261044 -1.906119 4.481234
v -30.226757 -1.874380 4.448372
v -30.181639 -1.843909 4.862056
v -30.270008 -1.925320 4.862055
v -30.181639 -1.843909 4.816431
v -30.206844 -2.083141 4.077363
v -30.206844 -2.083141 4.824542
v -30.261908 -2.083141 4.824542
v -30.206844 -2.042940 4.824542
v -30.261908 -2.042940 4.077363
v -30.206844 -2.042940 4.077363
v -30.261908 -2.083141 4.077363
v -30.261908 -2.042940 4.824542
v -30.206844 -3.402950 4.077363
v -30.206844 -3.402950 4.824542
v -30.261908 -3.402950 4.824542
v -30.206844 -3.362749 4.824542
v -30.261908 -3.362749 4.077363
v -30.206844 -3.362749 4.077363
v -30.261908 -3.402950 4.077363
v -30.261908 -3.362749 4.824542
v -32.195335 -7.986105 4.481235
v -32.238869 -7.938468 4.481235
v -32.160976 -7.994978 4.862056
v -32.272243 -7.907279 4.862056
v -32.204510 -7.938468 4.447154
v -32.272243 -7.907279 4.827976
v -37.150188 -7.986097 4.448208
v -37.150188 -7.994970 4.829030
v -32.195335 -7.986098 4.448208
v -32.160976 -7.994971 4.829030
v -32.195335 -1.721046 4.481235
v -32.238869 -1.721046 4.481235
v -32.160976 -1.721046 4.862056
v -32.272243 -1.721046 4.862056
v -32.195335 -1.721046 4.448208
v -32.160976 -1.721046 4.829030
v -32.185757 -1.932292 4.077363
v -32.185757 -1.932292 4.824542
v -32.240818 -1.932292 4.824542
v -32.185757 -1.892091 4.824542
v -32.240818 -1.892091 4.077363
v -32.185757 -1.892091 4.077363
v -32.240818 -1.932292 4.077363
v -32.240818 -1.892091 4.824542
v -32.185757 -3.606883 4.077363
v -32.185757 -3.606883 4.824542
v -32.240818 -3.606883 4.824542
v -32.185757 -3.566682 4.824542
v -32.240818 -3.566682 4.077363
v -32.185757 -3.566682 4.077363
v -32.240818 -3.606883 4.077363
v -32.240818 -3.566682 4.824542
v -32.185757 -5.238894 4.077363
v -32.185757 -5.238894 4.824542
v -32.240818 -5.238894 4.824542
v -32.185757 -5.198693 4.824542
v -32.240818 -5.198693 4.077363
v -32.185757 -5.198693 4.077363
v -32.240818 -5.238894 4.077363
v -32.240818 -5.198693 4.824542
v -32.185757 -6.853831 4.077363
v -32.185757 -6.853831 4.824542
v -32.240818 -6.853831 4.824542
v -32.185757 -6.813630 4.824542
v -32.240818 -6.813630 4.077363
v -32.185757 -6.813630 4.077363
v -32.240818 -6.853831 4.077363
v -32.240818 -6.813630 4.824542
v -32.185757 -7.962939 4.077363
v -32.185757 -7.962939 4.824542
v -32.240818 -7.962939 4.824542
v -32.185757 -7.922738 4.824542
v -32.240818 -7.922738 4.077363
v -32.185757 -7.922738 4.077363
v -32.240818 -7.962939 4.077363
v -32.240818 -7.922738 4.824542
v -34.687038 -7.992312 4.077363
v -34.687038 -7.992312 4.824542
v -34.742100 -7.992312 4.824542
v -34.687038 -7.952111 4.824542
v -34.742100 -7.952111 4.077363
v -34.687038 -7.952111 4.077363
v -34.742100 -7.992312 4.077363
v -34.742100 -7.952111 4.824542
v -37.033489 -7.992312 4.077363
v -37.033489 -7.992312 4.824542
v -37.088551 -7.992312 4.824542
v -37.033489 -7.952111 4.824542
v -37.088551 -7.952111 4.077363
v -37.033489 -7.952111 4.077363
v -37.088551 -7.992312 4.077363
v -37.088551 -7.952111 4.824542
v -37.096447 -6.426021 4.077363
v -37.096447 -6.426021 4.824542
v -37.151508 -6.426021 4.824542
v -37.096447 -6.385819 4.824542
v -37.151508 -6.385819 4.077363
v -37.096447 -6.385819 4.077363
v -37.151508 -6.426021 4.077363
v -37.151508 -6.385819 4.824542
v -37.096447 -4.730937 4.077363
v -37.096447 -4.730937 4.824542
v -37.151508 -4.730937 4.824542
v -37.096447 -4.690736 4.824542
v -37.151508 -4.690736 4.077363
v -37.096447 -4.690736 4.077363
v -37.151508 -4.730937 4.077363
v -37.151508 -4.690736 4.824542
v -37.096447 -3.064860 4.077363
v -37.096447 -3.064860 4.824542
v -37.151508 -3.064860 4.824542
v -37.096447 -3.024659 4.824542
v -37.151508 -3.024659 4.077363
v -37.096447 -3.024659 4.077363
v -37.151508 -3.064860 4.077363
v -37.151508 -3.024659 4.824542
v -37.096447 -1.379184 4.077363
v -37.096447 -1.379184 4.824542
v -37.151508 -1.379184 4.824542
v -37.096447 -1.338983 4.824542
v -37.151508 -1.338983 4.077363
v -37.096447 -1.338983 4.077363
v -37.151508 -1.379184 4.077363
v -37.151508 -1.338983 4.824542
v -37.096447 0.472241 4.077363
v -37.096447 0.472241 4.824542
v -37.151508 0.472241 4.824542
v -37.096447 0.512442 4.824542
v -37.151508 0.512442 4.077363
v -37.096447 0.512442 4.077363
v -37.151508 0.472241 4.077363
v -37.151508 0.512442 4.824542
v -37.096447 2.388707 4.077363
v -37.096447 2.388707 4.824542
v -37.151508 2.388707 4.824542
v -37.096447 2.428908 4.824542
v -37.151508 2.428908 4.077363
v -37.096447 2.428908 4.077363
v -37.151508 2.388707 4.077363
v -37.151508 2.428908 4.824542
v -37.096447 4.551449 4.077363
v -37.096447 4.551449 4.824542
v -37.151508 4.551449 4.824542
v -37.096447 4.591650 4.824542
v -37.151508 4.591650 4.077363
v -37.096447 4.591650 4.077363
v -37.151508 4.551449 4.077363
v -37.151508 4.591650 4.824542
v -37.096447 6.836376 4.077363
v -37.096447 6.836376 4.824542
v -37.151508 6.836376 4.824542
v -37.096447 6.876577 4.824542
v -37.151508 6.876577 4.077363
v -37.096447 6.876577 4.077363
v -37.151508 6.836376 4.077363
v -37.151508 6.876577 4.824542
v -37.096447 9.182453 4.077363
v -37.096447 9.182453 4.824542
v -37.151508 9.182453 4.824542
v -37.096447 9.222654 4.824542
v -37.151508 9.222654 4.077363
v -37.096447 9.222654 4.077363
v -37.151508 9.182453 4.077363
v -37.151508 9.222654 4.824542
v -25.376820 1.416928 4.249810
v -25.376822 1.457129 4.249810
v -25.321758 1.457129 4.249810
v -25.321758 1.416928 4.249810
v -25.321758 -0.692277 4.249810
v -25.376822 -0.692277 4.249810
v -25.376820 -0.732478 4.249810
v -25.321758 -0.732478 4.249810
v -31.827389 9.440427 4.249810
v -31.827389 9.480628 4.249810
v -31.772327 9.480628 4.249810
v -31.772327 9.440427 4.249810
v -25.321758 -4.577989 4.249810
v -25.376822 -4.577989 4.249810
v -25.376820 -4.618190 4.249810
v -25.321758 -4.618190 4.249810
v -28.199318 -4.561754 4.249810
v -28.199316 -4.601955 4.249810
v -28.144253 -4.601955 4.249810
v -28.144253 -4.561754 4.249810
v -25.321758 -2.557839 4.249810
v -25.376822 -2.557839 4.249810
v -25.376820 -2.598041 4.249810
v -25.321758 -2.598041 4.249810
v -25.376820 3.499776 4.249810
v -25.376822 3.539977 4.249810
v -25.321758 3.539977 4.249810
v -25.321758 3.499776 4.249810
v -25.376820 5.844845 4.249810
v -25.376822 5.885046 4.249810
v -25.321758 5.885046 4.249810
v -25.321758 5.844845 4.249810
v -25.376820 8.167286 4.249810
v -25.376822 8.207487 4.249810
v -25.321758 8.207487 4.249810
v -25.321758 8.167286 4.249810
v -27.172703 9.440426 4.249810
v -27.172705 9.480627 4.249810
v -27.117641 9.480627 4.249810
v -27.117641 9.440426 4.249810
v -30.006752 -4.601955 4.249810
v -30.006752 -4.561754 4.249810
v -29.951687 -4.561754 4.249810
v -29.951687 -4.601955 4.249810
v -36.218906 9.480628 4.249810
v -36.273968 9.480628 4.249810
v -36.273968 9.440427 4.249810
v -36.218906 9.440427 4.249810
v -25.376820 9.432812 4.249810
v -25.376822 9.473013 4.249810
v -25.321758 9.473013 4.249810
v -25.321758 9.432812 4.249810
v -29.238272 9.440426 4.249810
v -29.238272 9.480627 4.249810
v -29.183208 9.480627 4.249810
v -29.183208 9.440426 4.249810
v -26.827276 -4.561769 4.249810
v -26.827276 -4.601970 4.249810
v -26.772213 -4.601970 4.249810
v -26.772213 -4.561769 4.249810
v -30.261908 -2.042940 4.249810
v -30.261908 -2.083141 4.249810
v -30.206844 -2.083141 4.249810
v -30.206844 -2.042940 4.249810
v -30.261908 -3.362749 4.249810
v -30.261908 -3.402950 4.249810
v -30.206844 -3.402950 4.249810
v -30.206844 -3.362749 4.249810
v -32.240818 -1.892091 4.249810
v -32.240818 -1.932292 4.249810
v -32.185757 -1.932292 4.249810
v -32.185757 -1.892091 4.249810
v -32.240818 -3.566682 4.249810
v -32.240818 -3.606884 4.249810
v -32.185757 -3.606883 4.249810
v -32.185757 -3.566682 4.249810
v -32.240818 -5.198693 4.249810
v -32.240818 -5.238894 4.249810
v -32.185757 -5.238894 4.249810
v -32.185757 -5.198693 4.249810
v -32.240818 -6.813630 4.249810
v -32.240818 -6.853831 4.249810
v -32.185757 -6.853831 4.249810
v -32.185757 -6.813630 4.249810
v -32.240818 -7.922738 4.249810
v -32.240818 -7.962939 4.249810
v -32.185757 -7.962939 4.249810
v -32.185757 -7.922738 4.249810
v -34.742100 -7.952111 4.249810
v -34.742100 -7.992312 4.249810
v -34.687038 -7.992312 4.249810
v -34.687038 -7.952111 4.249810
v -37.088551 -7.952111 4.249810
v -37.088551 -7.992312 4.249810
v -37.033489 -7.992312 4.249810
v -37.033489 -7.952111 4.249810
v -37.151508 -6.385819 4.249810
v -37.151508 -6.426021 4.249810
v -37.096447 -6.426021 4.249810
v -37.096447 -6.385819 4.249810
v -37.151508 -4.690736 4.249810
v -37.151508 -4.730937 4.249810
v -37.096447 -4.730937 4.249810
v -37.096447 -4.690736 4.249810
v -37.151508 -3.024659 4.249810
v -37.151508 -3.064860 4.249810
v -37.096447 -3.064860 4.249810
v -37.096447 -3.024659 4.249810
v -37.151508 -1.338983 4.249810
v -37.151508 -1.379184 4.249810
v -37.096447 -1.379184 4.249810
v -37.096447 -1.338983 4.249810
v -37.151508 0.512442 4.249810
v -37.151508 0.472241 4.249810
v -37.096447 0.472241 4.249810
v -37.096447 0.512442 4.249810
v -37.151508 2.428908 4.249810
v -37.151508 2.388707 4.249810
v -37.096447 2.388707 4.249810
v -37.096447 2.428908 4.249810
v -37.151508 4.591650 4.249810
v -37.151508 4.551449 4.249810
v -37.096447 4.551449 4.249810
v -37.096447 4.591650 4.249810
v -37.151508 6.876577 4.249810
v -37.151508 6.836376 4.249810
v -37.096447 6.836376 4.249810
v -37.096447 6.876577 4.249810
v -37.151508 9.222654 4.249810
v -37.151508 9.182453 4.249810
v -37.096447 9.182453 4.249810
v -37.096447 9.222654 4.249810
vt nan nan
vt nan nan
vt nan nan
vt nan nan
vt nan nan
vt nan nan
vt nan nan
vt nan nan
vt nan nan
vt nan nan
vt nan nan
vt nan nan
vt nan nan
vt nan nan
vt nan nan
vt nan nan
vt nan nan
vt nan nan
vt nan nan
vt nan nan
vt nan nan
vt nan nan
vt nan nan
vt nan nan
vt nan nan
vt nan nan
vt nan nan
vt nan nan
vt nan nan
vt nan nan
vt nan nan
vt nan nan
vt nan nan
vt nan nan
vt nan nan
vt nan nan
vt nan nan
vt nan nan
vt nan nan
vt nan nan
vt nan nan
vt nan nan
vt nan nan
vt nan nan
vt nan nan
vt nan nan
vt nan nan
vt nan nan
vt nan nan
vt nan nan
vt nan nan
vt nan nan
vt nan nan
vt nan nan
vt nan nan
vt nan nan
vt nan nan
vt nan nan
vt nan nan
vt nan nan
vt nan nan
vt nan nan
vt nan nan
vt nan nan
vt nan nan
vt nan nan
vt nan nan
vt nan nan
vt nan nan
vt nan nan
vt nan nan
vt nan nan
vt nan nan
vt nan nan
vt nan nan
vt nan nan
vt nan nan
vt nan nan
vt nan nan
vt nan nan
vt nan nan
vt nan nan
vt nan nan
vt nan nan
vt nan nan
vt nan nan
vt nan nan
vt nan nan
vt nan nan
vt nan nan
vt nan nan
vt nan nan
vt nan nan
vt nan nan
vt nan nan
vt nan nan
vt nan nan
vt nan nan
vt nan nan
vt nan nan
vt nan nan
vt nan nan
vt nan nan
vt nan nan
vt nan nan
vt nan nan
vt nan nan
vt nan nan
vt nan nan
vt nan nan
vt nan nan
vt nan nan
vt nan nan
vt nan nan
vt nan nan
vt nan nan
vt nan nan
vt nan nan
vt nan nan
vt nan nan
vt nan nan
vt nan nan
vt nan nan
vt nan nan
vt nan nan
vt nan nan
vt nan nan
vt nan nan
vt nan nan
vt nan nan
vt nan nan
vt nan nan
vt nan nan
vt nan nan
vt nan nan
vt nan nan
vt nan nan
vt nan nan
vt nan nan
vt nan nan
vt nan nan
vt nan nan
vt nan nan
vt nan nan
vt nan nan
vt nan nan
vt nan nan
vt nan nan
vt nan nan
vt nan nan
vt nan nan
vt nan nan
vt nan nan
vt nan nan
vt nan nan
vt nan nan
vt nan nan
vt nan nan
vt nan nan
vt nan nan
vt nan nan
vt nan nan
vt nan nan
vt nan nan
vt nan nan
vt nan nan
vt nan nan
vt nan nan
vt nan nan
vt nan nan
vt nan nan
vt nan nan
vt nan nan
vt nan nan
vt nan nan
vt nan nan
vt nan nan
vt nan nan
vt nan nan
vt nan nan
vt nan nan
vt nan nan
vt nan nan
vt nan nan
vt nan nan
vt nan nan
vt nan nan
vt nan nan
vt nan nan
vt nan nan
vt nan nan
vt nan nan
vt nan nan
vt nan nan
vt nan nan
vt nan nan
vt nan nan
vt nan nan
vt nan nan
vt nan nan
vt nan nan
vt nan nan
vt nan nan
vt nan nan
vt nan nan
vt nan nan
vt nan nan
vt nan nan
vt nan nan
vt nan nan
vt nan nan
vt nan nan
vt nan nan
vt nan nan
vt nan nan
vt nan nan
vt nan nan
vt nan nan
vt nan nan
vt nan nan
vt nan nan
vt nan nan
vt nan nan
vt nan nan
vt nan nan
vt nan nan
vt nan nan
vt nan nan
vt nan nan
vt nan nan
vt nan nan
vt nan nan
vt nan nan
vt nan nan
vt nan nan
vt nan nan
vt nan nan
vt nan nan
vt nan nan
vt nan nan
vt nan nan
vt nan nan
vt nan nan
vt nan nan
vt nan nan
vt nan nan
vt nan nan
vt nan nan
vt nan nan
vt nan nan
vt nan nan
vt nan nan
vt nan nan
vt nan nan
vt nan nan
vt nan nan
vt nan nan
vt nan nan
vt nan nan
vt nan nan
vt nan nan
vt nan nan
vt nan nan
vt nan nan
vt nan nan
vt nan nan
vt nan nan
vt nan nan
vt nan nan
vt nan nan
vt nan nan
vt nan nan
vt nan nan
vt nan nan
vt nan nan
vt nan nan
vt nan nan
vt nan nan
vt nan nan
vt nan nan
vt nan nan
vt nan nan
vt nan nan
vt nan nan
vt nan nan
vt nan nan
vt nan nan
vt nan nan
vt nan nan
vt nan nan
vt nan nan
vt nan nan
vt nan nan
vt nan nan
vt nan nan
vt nan nan
vt nan nan
vt nan nan
vt nan nan
vt nan nan
vt nan nan
vt nan nan
vt nan nan
vt nan nan
vt nan nan
vt nan nan
vt nan nan
vt nan nan
vt nan nan
vt nan nan
vt nan nan
vt nan nan
vt nan nan
vt nan nan
vt nan nan
vt nan nan
vt nan nan
vt nan nan
vt nan nan
vt nan nan
vt nan nan
vt nan nan
vt nan nan
vt nan nan
vt nan nan
vt nan nan
vt nan nan
vt nan nan
vt nan nan
vt nan nan
vt nan nan
vt nan nan
vn 0.707107 -0.707107 0.000000
vn 0.707107 -0.707107 0.000000
vn -0.707107 -0.707107 0.000000
vn 0.707107 0.707107 0.000000
vn -0.707107 0.707107 0.000000
vn 0.707107 0.707107 0.000000
vn -0.707107 -0.707107 0.000000
vn -0.707107 0.707107 0.000000
vn 0.707107 -0.707107 0.000000
vn 0.707107 -0.707107 0.000000
vn -0.707107 -0.707107 0.000000
vn 0.707107 0.707107 0.000000
vn -0.707107 0.707107 0.000000
vn 0.707107 0.707107 0.000000
vn -0.707107 -0.707107 0.000000
vn -0.707107 0.707107 0.000000
vn 0.707107 -0.707107 0.000000
vn 0.707107 -0.707107 0.000000
vn -0.707107 -0.707107 0.000000
vn 0.707107 0.707107 0.000000
vn -0.707107 0.707107 0.000000
vn 0.707107 0.707107 0.000000
vn -0.707107 -0.707107 0.000000
vn -0.707107 0.707107 0.000000
vn 0.707107 0.707107 0.000000
vn 0.577356 0.577352 0.577344
vn -0.000000 -0.316227 0.948684
vn 0.707106 0.707107 -0.000002
vn 0.577353 0.577349 0.577349
vn -0.000000 -0.316227 0.948684
vn 0.000253 0.707197 0.707016
vn -0.000000 -0.707098 0.707116
vn -0.000000 -1.000000 0.000000
vn 0.000358 1.000000 0.000000
vn 0.000000 0.707101 0.707112
vn -0.000000 -0.707110 0.707104
vn -0.000000 -1.000000 0.000000
vn 0.000000 1.000000 0.000000
vn 0.000110 0.316207 0.948690
vn 0.000358 1.000000 0.000000
vn 0.707110 -0.707103 0.000000
vn 0.577354 -0.577354 0.577343
vn 0.000000 0.316231 0.948682
vn 0.000000 1.000000 0.000000
vn 0.707102 -0.707111 -0.000002
vn 0.577352 -0.577351 0.577347
vn 0.707107 -0.707107 0.000000
vn 0.707107 -0.707107 0.000000
vn -0.707107 -0.707107 0.000000
vn 0.707107 0.707107 0.000000
vn -0.707107 0.707107 0.000000
vn 0.707107 0.707107 0.000000
vn -0.707107 -0.707107 0.000000
vn -0.707107 0.707107 0.000000
vn 0.707107 -0.707107 0.000000
vn 0.707107 -0.707107 0.000000
vn -0.707107 -0.707107 0.000000
vn 0.707107 0.707107 0.000000
vn -0.707107 0.707107 0.000000
vn 0.707107 0.707107 0.000000
vn -0.707107 -0.707107 0.000000
vn -0.707107 0.707107 0.000000
vn 0.707107 -0.707107 0.000000
vn 0.707107 -0.707107 0.000000
vn -0.707107 -0.707107 0.000000
vn 0.707107 0.707107 0.000000
vn -0.707107 0.707107 0.000000
vn 0.707107 0.707107 0.000000
vn -0.707107 -0.707107 0.000000
vn -0.707107 0.707107 0.000000
vn 0.707107 -0.707107 0.000000
vn 0.707107 -0.707107 0.000000
vn -0.707107 -0.707107 0.000000
vn 0.707107 0.707107 0.000000
vn -0.707107 0.707107 0.000000
vn 0.707107 0.707107 0.000000
vn -0.707107 -0.707107 0.000000
vn -0.707107 0.707107 0.000000
vn 0.707107 -0.707107 0.000000
vn 0.707107 -0.707107 0.000000
vn -0.707107 -0.707107 0.000000
vn 0.707107 0.707107 0.000000
vn -0.707107 0.707107 0.000000
vn 0.707107 0.707107 0.000000
vn -0.707107 -0.707107 0.000000
vn -0.707107 0.707107 0.000000
vn 0.707107 -0.707107 0.000000
vn 0.707107 -0.707107 0.000000
vn -0.707107 -0.707107 0.000000
vn 0.707107 0.707107 0.000000
vn -0.707107 0.707107 0.000000
vn 0.707107 0.707107 0.000000
vn -0.707107 -0.707107 0.000000
vn -0.707107 0.707107 0.000000
vn 0.000000 1.000000 0.000000
vn 0.000000 0.707107 0.707107
vn -0.000000 -0.707102 0.707112
vn 0.000000 1.000000 0.000000
vn 0.000000 0.707107 0.707107
vn -0.000000 -0.707107 0.707107
vn -0.000000 -1.000000 0.000000
vn -0.000000 -1.000000 0.000000
vn -0.000000 -1.000000 0.000000
vn -0.000000 -1.000000 0.000000
vn 0.707107 -0.707107 0.000000
vn 0.707107 -0.707107 0.000000
vn -0.707107 -0.707107 0.000000
vn 0.707107 0.707107 0.000000
vn -0.707107 0.707107 0.000000
vn 0.707107 0.707107 0.000000
vn -0.707107 -0.707107 0.000000
vn -0.707107 0.707107 0.000000
vn 0.707107 -0.707107 0.000000
vn 0.707107 -0.707107 0.000000
vn -0.707107 -0.707107 0.000000
vn 0.707107 0.707107 0.000000
vn -0.707107 0.707107 0.000000
vn 0.707107 0.707107 0.000000
vn -0.707107 -0.707107 0.000000
vn -0.707107 0.707107 0.000000
vn 0.707107 -0.707107 0.000000
vn 0.707107 -0.707107 0.000000
vn -0.707107 -0.707107 0.000000
vn 0.707107 0.707107 0.000000
vn -0.707107 0.707107 0.000000
vn 0.707107 0.707107 0.000000
vn -0.707107 -0.707107 0.000000
vn -0.707107 0.707107 0.000000
vn 0.707107 -0.707107 0.000000
vn 0.707107 -0.707107 0.000000
vn -0.707107 -0.707107 0.000000
vn 0.707107 0.707107 0.000000
vn -0.707107 0.707107 0.000000
vn 0.707107 0.707107 0.000000
vn -0.707107 -0.707107 0.000000
vn -0.707107 0.707107 0.000000
vn 0.707107 -0.707107 0.000000
vn 0.707107 -0.707107 0.000000
vn -0.707107 -0.707107 0.000000
vn 0.707107 0.707107 0.000000
vn -0.707107 0.707107 0.000000
vn 0.707107 0.707107 0.000000
vn -0.707107 -0.707107 0.000000
vn -0.707107 0.707107 0.000000
vn 0.707107 -0.707107 0.000000
vn 0.707107 -0.707107 0.000000
vn -0.707107 -0.707107 0.000000
vn 0.707107 0.707107 0.000000
vn -0.707107 0.707107 0.000000
vn 0.707107 0.707107 0.000000
vn -0.707107 -0.707107 0.000000
vn -0.707107 0.707107 0.000000
vn 0.707107 -0.707107 0.000000
vn 0.707107 -0.707107 0.000000
vn -0.707107 -0.707107 0.000000
vn 0.707107 0.707107 0.000000
vn -0.707107 0.707107 0.000000
vn 0.707107 0.707107 0.000000
vn -0.707107 -0.707107 0.000000
vn -0.707107 0.707107 0.000000
vn 0.707107 -0.707107 0.000000
vn 0.707107 -0.707107 0.000000
vn -0.707107 -0.707107 0.000000
vn 0.707107 0.707107 0.000000
vn -0.707107 0.707107 0.000000
vn 0.707107 0.707107 0.000000
vn -0.707107 -0.707107 0.000000
vn -0.707107 0.707107 0.000000
vn 0.707107 -0.707107 0.000000
vn 0.707107 -0.707107 0.000000
vn -0.707107 -0.707107 0.000000
vn 0.707107 0.707107 0.000000
vn -0.707107 0.707107 0.000000
vn 0.707107 0.707107 0.000000
vn -0.707107 -0.707107 0.000000
vn -0.707107 0.707107 0.000000
vn 0.707107 -0.707107 0.000000
vn 0.707107 -0.707107 0.000000
vn -0.707107 -0.707107 0.000000
vn 0.707107 0.707107 0.000000
vn -0.707107 0.707107 0.000000
vn 0.707107 0.707107 0.000000
vn -0.707107 -0.707107 0.000000
vn -0.707107 0.707107 0.000000
vn 0.707107 -0.707107 0.000000
vn 0.707107 -0.707107 0.000000
vn -0.707107 -0.707107 0.000000
vn 0.707107 0.707107 0.000000
vn -0.707107 0.707107 0.000000
vn 0.707107 0.707107 0.000000
vn -0.707107 -0.707107 0.000000
vn -0.707107 0.707107 0.000000
vn 0.707107 -0.707107 0.000000
vn 0.707107 -0.707106 0.000000
vn -0.707108 -0.707106 -0.000002
vn 0.707107 0.707107 0.000000
vn -0.707107 0.707107 0.000000
vn 0.707107 0.707107 0.000000
vn -0.707107 -0.707107 0.000001
vn -0.707108 0.707106 -0.000002
vn 0.707107 -0.707107 0.000000
vn 0.707107 -0.707106 0.000000
vn -0.707108 -0.707106 -0.000002
vn 0.707107 0.707107 0.000000
vn -0.707107 0.707107 0.000000
vn 0.707107 0.707107 0.000000
vn -0.707107 -0.707107 0.000001
vn -0.707108 0.707106 -0.000002
vn 0.707107 -0.707107 0.000000
vn 0.707107 -0.707106 0.000000
vn -0.707108 -0.707106 -0.000002
vn 0.707107 0.707107 0.000000
vn -0.707107 0.707107 0.000000
vn 0.707107 0.707107 0.000000
vn -0.707107 -0.707107 0.000001
vn -0.707108 0.707106 -0.000002
vn 0.707107 0.707107 0.000000
vn 0.577350 0.577354 0.577347
vn 0.000000 -0.316228 0.948683
vn 0.707107 0.707107 0.000000
vn 0.577352 0.577348 0.577351
vn 0.000000 -0.316228 0.948683
vn 0.302050 0.301559 0.904338
vn 0.000005 -0.707105 0.707108
vn -0.000000 -1.000000 0.000000
vn 0.707682 0.706531 0.000000
vn 0.301509 0.301513 0.904534
vn -0.000002 -0.799015 0.601311
vn -0.000000 -1.000000 0.000000
vn 0.707104 0.707110 0.000000
vn 0.000517 0.316129 0.948716
vn 0.001634 0.999999 0.000000
vn 0.707109 -0.707105 0.000000
vn 0.577349 -0.577349 0.577353
vn 0.000000 0.316227 0.948684
vn 0.000000 1.000000 0.000000
vn 0.707105 -0.707108 0.000000
vn 0.577351 -0.577351 0.577350
vn 0.707107 -0.707107 0.000000
vn 0.707107 -0.707106 0.000000
vn -0.707107 -0.707107 0.000000
vn 0.707107 0.707107 0.000000
vn -0.707104 0.707109 -0.000008
vn 0.707107 0.707107 0.000000
vn -0.707104 -0.707109 -0.000007
vn -0.707107 0.707107 0.000000
vn 0.707107 -0.707107 0.000000
vn 0.707107 -0.707106 0.000000
vn -0.707108 -0.707106 -0.000002
vn 0.707107 0.707107 0.000000
vn -0.707107 0.707107 0.000000
vn 0.707107 0.707107 0.000000
vn -0.707107 -0.707107 0.000001
vn -0.707108 0.707106 -0.000002
vn 0.707107 -0.707107 0.000000
vn 0.707107 -0.707106 0.000000
vn -0.707108 -0.707106 -0.000002
vn 0.707107 0.707107 0.000000
vn -0.707107 0.707107 0.000000
vn 0.707107 0.707107 0.000000
vn -0.707107 -0.707107 0.000001
vn -0.707108 0.707106 -0.000002
vn 0.707107 -0.707107 0.000000
vn 0.707107 -0.707106 0.000000
vn -0.707108 -0.707106 -0.000002
vn 0.707107 0.707107 0.000000
vn -0.707107 0.707107 0.000000
vn 0.707107 0.707107 0.000000
vn -0.707107 -0.707107 0.000001
vn -0.707108 0.707106 -0.000002
vn 0.707107 -0.707107 0.000000
vn 0.707107 -0.707106 0.000000
vn -0.707108 -0.707106 -0.000002
vn 0.707107 0.707107 0.000000
vn -0.707107 0.707107 0.000000
vn 0.707107 0.707107 0.000000
vn -0.707107 -0.707107 0.000001
vn -0.707108 0.707106 -0.000002
vn 0.000000 1.000000 0.000000
vn 0.000000 0.707116 0.707098
vn 0.301510 -0.301510 0.904535
vn 0.000000 1.000000 0.000000
vn 0.000000 0.707104 0.707110
vn 0.301512 -0.301512 0.904534
vn 0.000000 -1.000000 0.000000
vn 0.000000 -1.000000 0.000000
vn 0.707107 -0.707107 0.000000
vn 0.707107 -0.707107 0.000000
vn 0.707107 -0.707107 0.000000
vn 0.707107 -0.707106 0.000000
vn -0.707108 -0.707106 -0.000002
vn 0.707107 0.707107 0.000000
vn -0.707107 0.707107 0.000000
vn 0.707107 0.707107 0.000000
vn -0.707107 -0.707107 0.000001
vn -0.707108 0.707106 -0.000002
vn 0.707107 -0.707107 0.000000
vn 0.707107 -0.707107 0.000000
vn -0.707107 -0.707107 0.000000
vn 0.707107 0.707107 0.000000
vn -0.707107 0.707107 0.000000
vn 0.707107 0.707107 0.000000
vn -0.707107 -0.707107 0.000000
vn -0.707107 0.707106 0.000000
vn 0.707107 -0.707107 0.000000
vn 0.707107 -0.707106 0.000000
vn -0.707107 -0.707107 0.000000
vn 0.707107 0.707107 0.000000
vn -0.707107 0.707107 0.000000
vn 0.707107 0.707107 0.000000
vn -0.707107 -0.707107 0.000000
vn -0.707107 0.707107 0.000000
vn 0.707107 -0.707107 0.000000
vn 0.707107 -0.707106 0.000000
vn -0.707107 -0.707107 0.000000
vn 0.707107 0.707107 0.000000
vn -0.707107 0.707107 0.000000
vn 0.707107 0.707107 0.000000
vn -0.707107 -0.707107 0.000000
vn -0.707107 0.707107 0.000000
vn 0.707107 -0.707107 0.000000
vn 0.707107 -0.707106 0.000000
vn -0.707108 -0.707106 -0.000002
vn 0.707107 0.707107 0.000000
vn -0.707107 0.707107 0.000000
vn 0.707107 0.707107 0.000000
vn -0.707107 -0.707107 0.000001
vn -0.707108 0.707106 -0.000002
vn 0.707107 -0.707107 0.000000
vn 0.707107 -0.707106 0.000000
vn -0.707107 -0.707107 0.000000
vn 0.707107 0.707107 0.000000
vn -0.707107 0.707107 0.000000
vn 0.707107 0.707107 0.000000
vn -0.707107 -0.707107 0.000000
vn -0.707107 0.707107 0.000000
vn -0.000000 -0.707188 0.707025
vn 0.301509 0.301512 0.904535
vn -0.000000 -0.707188 0.707025
vn 0.301512 0.301512 0.904534
vn 0.707107 0.707107 0.000000
vn 0.707107 0.707107 0.000000
vn 0.707107 -0.707107 0.000000
vn 0.707107 -0.707106 0.000000
vn -0.707107 -0.707107 0.000000
vn 0.707107 0.707107 0.000000
vn -0.707107 0.707107 0.000000
vn 0.707107 0.707107 0.000000
vn -0.707107 -0.707107 0.000000
vn -0.707107 0.707107 0.000000
vn 0.885559 0.000005 0.464527
vn 0.000014 0.000000 1.000000
vn 1.000000 0.000006 0.000000
vn 0.885004 0.000008 0.465583
vn -0.000006 0.000000 1.000000
vn 1.000000 0.000008 0.000000
vn 0.707107 -0.707107 0.000000
vn 0.707107 -0.707106 0.000000
vn -0.707107 -0.707107 0.000000
vn 0.707107 0.707107 0.000000
vn -0.707107 0.707107 0.000000
vn 0.707107 0.707107 0.000000
vn -0.707107 -0.707107 0.000000
vn -0.707107 0.707107 0.000000
vn 0.707107 -0.707107 0.000000
vn 0.707107 -0.707106 0.000000
vn -0.707107 -0.707107 0.000000
vn 0.707107 0.707107 0.000000
vn -0.707107 0.707107 0.000000
vn 0.707107 0.707107 0.000000
vn -0.707107 -0.707107 0.000000
vn -0.707107 0.707107 0.000000
vn 0.577333 -0.577426 0.577292
vn 0.000000 0.447831 0.894118
vn 0.577338 -0.577423 0.577290
vn 0.000000 0.316228 0.948683
vn 0.000000 1.000000 0.000000
vn 0.000000 1.000000 0.000000
vn -0.000000 -1.000000 -0.000231
vn -0.000000 -1.000000 -0.000231
vn 0.707159 -0.707055 -0.000163
vn 0.707159 -0.707055 -0.000163
vn 0.707107 0.000000 0.707107
vn 0.000000 0.000000 1.000000
vn 0.707107 0.000000 0.707107
vn 0.000000 0.000000 1.000000
vn 1.000000 0.000000 0.000000
vn 1.000000 0.000000 0.000000
vn 0.707107 -0.707107 0.000000
vn 0.707107 -0.707106 0.000000
vn -0.707107 -0.707107 0.000000
vn 0.707107 0.707107 0.000000
vn -0.707107 0.707107 0.000000
vn 0.707107 0.707107 0.000000
vn -0.707107 -0.707107 0.000000
vn -0.707107 0.707107 0.000000
vn 0.707106 -0.707107 0.000001
vn 0.707107 -0.707106 0.000000
vn -0.707107 -0.707107 0.000000
vn 0.707107 0.707107 0.000000
vn -0.707106 0.707107 0.000001
vn 0.707106 0.707107 0.000001
vn -0.707106 -0.707107 0.000001
vn -0.707107 0.707107 -0.000000
vn 0.707107 -0.707107 0.000000
vn 0.707107 -0.707106 0.000000
vn -0.707107 -0.707107 0.000000
vn 0.707107 0.707107 0.000000
vn -0.707107 0.707107 0.000000
vn 0.707107 0.707107 0.000000
vn -0.707107 -0.707107 0.000000
vn -0.707107 0.707107 0.000000
vn 0.707107 -0.707107 0.000000
vn 0.707107 -0.707106 0.000000
vn -0.707107 -0.707107 0.000000
vn 0.707107 0.707107 0.000000
vn -0.707107 0.707107 0.000000
vn 0.707107 0.707107 0.000000
vn -0.707107 -0.707107 0.000000
vn -0.707107 0.707107 0.000000
vn 0.707107 -0.707107 0.000000
vn 0.707107 -0.707106 0.000000
vn -0.707107 -0.707107 0.000000
vn 0.707107 0.707107 0.000000
vn -0.707107 0.707107 0.000000
vn 0.707107 0.707107 0.000000
vn -0.707107 -0.707107 0.000000
vn -0.707107 0.707107 0.000000
vn 0.707107 -0.707107 0.000000
vn 0.707107 -0.707106 0.000000
vn -0.707107 -0.707107 0.000000
vn 0.707107 0.707107 0.000000
vn -0.707107 0.707107 0.000000
vn 0.707107 0.707107 0.000000
vn -0.707107 -0.707107 0.000000
vn -0.707107 0.707107 0.000000
vn 0.707107 -0.707107 0.000000
vn 0.707107 -0.707106 0.000000
vn -0.707107 -0.707107 0.000000
vn 0.707107 0.707107 0.000000
vn -0.707107 0.707107 0.000000
vn 0.707107 0.707107 0.000000
vn -0.707107 -0.707107 0.000000
vn -0.707107 0.707107 0.000000
vn 0.707107 -0.707107 0.000000
vn 0.707107 -0.707106 0.000000
vn -0.707107 -0.707107 0.000000
vn 0.707107 0.707107 0.000000
vn -0.707107 0.707107 0.000000
vn 0.707107 0.707107 0.000000
vn -0.707107 -0.707107 0.000000
vn -0.707107 0.707107 0.000000
vn 0.707107 -0.707107 0.000000
vn 0.707107 -0.707106 0.000000
vn -0.707107 -0.707107 0.000000
vn 0.707107 0.707107 0.000000
vn -0.707107 0.707107 0.000000
vn 0.707107 0.707107 0.000000
vn -0.707107 -0.707107 0.000000
vn -0.707107 0.707107 0.000000
vn 0.707107 -0.707107 0.000000
vn 0.707107 -0.707106 0.000000
vn -0.707107 -0.707107 0.000000
vn 0.707107 0.707107 0.000000
vn -0.707107 0.707107 0.000000
vn 0.707107 0.707107 0.000000
vn -0.707107 -0.707107 0.000000
vn -0.707107 0.707107 0.000000
vn 0.707107 -0.707107 0.000000
vn 0.707107 -0.707106 -0.000000
vn -0.707107 -0.707107 0.000000
vn 0.707107 0.707107 0.000000
vn -0.707107 0.707107 0.000000
vn 0.707107 0.707107 0.000000
vn -0.707107 -0.707107 0.000000
vn -0.707107 0.707107 0.000000
vn 0.707107 -0.707107 0.000000
vn 0.707107 -0.707106 0.000000
vn -0.707107 -0.707107 0.000000
vn 0.707107 0.707107 0.000000
vn -0.707107 0.707107 0.000000
vn 0.707107 0.707107 0.000000
vn -0.707107 -0.707107 0.000000
vn -0.707107 0.707107 0.000000
vn 0.707107 -0.707107 0.000000
vn 0.707107 -0.707106 0.000000
vn -0.707107 -0.707107 0.000000
vn 0.707107 0.707107 0.000000
vn -0.707107 0.707107 0.000000
vn 0.707107 0.707107 0.000000
vn -0.707107 -0.707107 0.000000
vn -0.707107 0.707107 0.000000
vn 0.707107 -0.707107 0.000000
vn 0.707107 -0.707106 0.000000
vn -0.707107 -0.707107 0.000000
vn 0.707107 0.707107 0.000000
vn -0.707107 0.707107 0.000000
vn 0.707107 0.707107 0.000000
vn -0.707107 -0.707107 0.000000
vn -0.707107 0.707107 0.000000
vn 0.707107 -0.707107 0.000000
vn 0.707107 -0.707106 0.000000
vn -0.707107 -0.707107 0.000000
vn 0.707107 0.707107 0.000000
vn -0.707107 0.707107 0.000000
vn 0.707107 0.707107 0.000000
vn -0.707107 -0.707107 0.000000
vn -0.707107 0.707107 0.000000
vn 0.707107 -0.707107 0.000000
vn 0.707107 -0.707106 0.000000
vn -0.707107 -0.707107 0.000000
vn 0.707107 0.707107 0.000000
vn -0.707107 0.707107 0.000000
vn 0.707107 0.707107 0.000000
vn -0.707107 -0.707107 0.000000
vn -0.707107 0.707107 0.000000
vn -0.707089 -0.707125 0.000004
vn -0.707122 0.707091 0.000003
vn 0.707107 0.707107 0.000000
vn 0.707107 -0.707107 0.000000
vn 0.707106 0.707107 -0.000000
vn -0.707123 0.707091 0.000003
vn -0.707089 -0.707125 0.000004
vn 0.707107 -0.707107 0.000000
vn -0.707107 -0.707107 0.000000
vn -0.707107 0.707107 0.000000
vn 0.707107 0.707107 0.000000
vn 0.707107 -0.707107 0.000000
vn 0.707107 0.707107 0.000000
vn -0.707122 0.707091 0.000003
vn -0.707089 -0.707125 0.000004
vn 0.707107 -0.707107 0.000000
vn -0.707124 0.707090 0.000001
vn -0.707090 -0.707123 0.000001
vn 0.707107 -0.707107 0.000000
vn 0.707107 0.707107 0.000000
vn 0.707107 0.707107 0.000000
vn -0.707122 0.707091 0.000003
vn -0.707089 -0.707125 0.000004
vn 0.707107 -0.707107 0.000000
vn -0.707089 -0.707125 0.000004
vn -0.707122 0.707091 0.000003
vn 0.707107 0.707107 0.000000
vn 0.707107 -0.707107 0.000000
vn -0.707089 -0.707125 0.000004
vn -0.707122 0.707091 0.000003
vn 0.707107 0.707107 0.000000
vn 0.707107 -0.707107 0.000000
vn -0.707089 -0.707125 0.000004
vn -0.707122 0.707091 0.000003
vn 0.707107 0.707107 0.000000
vn 0.707107 -0.707107 0.000000
vn -0.707089 -0.707125 0.000004
vn -0.707122 0.707091 0.000003
vn 0.707107 0.707107 0.000000
vn 0.707107 -0.707107 0.000000
vn -0.707107 -0.707107 0.000000
vn -0.707107 0.707107 0.000000
vn 0.707107 0.707107 0.000000
vn 0.707107 -0.707107 0.000000
vn 0.707107 0.707107 0.000000
vn -0.707107 0.707107 0.000000
vn -0.707107 -0.707107 0.000000
vn 0.707107 -0.707107 0.000000
vn -0.707089 -0.707125 0.000004
vn -0.707122 0.707091 0.000003
vn 0.707107 0.707107 0.000000
vn 0.707107 -0.707107 0.000000
vn -0.707107 -0.707107 0.000000
vn -0.707107 0.707107 0.000000
vn 0.707107 0.707107 0.000000
vn 0.707107 -0.707107 0.000000
vn -0.707107 0.707107 0.000000
vn -0.707107 -0.707107 0.000000
vn 0.707107 -0.707107 0.000000
vn 0.707107 0.707107 0.000000
vn -0.707107 0.707107 0.000000
vn -0.707107 -0.707107 0.000000
vn 0.707107 -0.707107 0.000000
vn 0.707107 0.707107 0.000000
vn -0.707107 0.707107 0.000000
vn -0.707107 -0.707107 0.000000
vn 0.707107 -0.707107 0.000000
vn 0.707107 0.707107 0.000000
vn -0.707107 0.707107 0.000000
vn -0.707107 -0.707107 0.000000
vn 0.707107 -0.707107 0.000000
vn 0.707107 0.707107 0.000000
vn -0.707108 0.707105 -0.000000
vn -0.707103 -0.707110 -0.000001
vn 0.707110 -0.707104 -0.000000
vn 0.707105 0.707108 -0.000000
vn -0.707107 0.707107 0.000000
vn -0.707107 -0.707107 0.000000
vn 0.707107 -0.707107 0.000000
vn 0.707107 0.707107 0.000000
vn -0.707107 0.707107 0.000000
vn -0.707107 -0.707107 0.000000
vn 0.707107 -0.707107 0.000000
vn 0.707107 0.707107 0.000000
vn -0.707107 0.707107 0.000000
vn -0.707107 -0.707107 0.000000
vn 0.707107 -0.707107 0.000000
vn 0.707107 0.707107 0.000000
vn -0.707107 0.707107 0.000000
vn -0.707107 -0.707107 0.000000
vn 0.707107 -0.707107 0.000000
vn 0.707107 0.707107 0.000000
vn -0.707107 0.707107 0.000000
vn -0.707107 -0.707107 0.000000
vn 0.707107 -0.707107 0.000000
vn 0.707107 0.707107 0.000000
vn -0.707107 0.707107 0.000000
vn -0.707107 -0.707107 0.000000
vn 0.707107 -0.707107 0.000000
vn 0.707107 0.707107 0.000000
vn -0.707107 0.707107 0.000000
vn -0.707107 -0.707107 0.000000
vn 0.707107 -0.707107 0.000000
vn 0.707107 0.707107 0.000000
vn -0.707107 0.707107 0.000000
vn -0.707107 -0.707107 0.000000
vn 0.707107 -0.707107 0.000000
vn 0.707107 0.707107 0.000000
vn -0.707107 0.707107 0.000000
vn -0.707106 -0.707108 -0.000000
vn 0.707107 -0.707106 -0.000000
vn 0.707107 0.707107 0.000000
vn -0.707107 0.707107 0.000000
vn -0.707107 -0.707107 0.000000
vn 0.707107 -0.707107 0.000000
vn 0.707107 0.707107 0.000000
vn -0.707107 0.707107 0.000000
vn -0.707107 -0.707107 0.000000
vn 0.707107 -0.707107 0.000000
vn 0.707107 0.707107 0.000000
vn -0.707107 0.707107 0.000000
vn -0.707107 -0.707107 0.000000
vn 0.707107 -0.707107 0.000000
vn 0.707107 0.707107 0.000000
vn -0.707107 0.707107 0.000000
vn -0.707107 -0.707107 0.000000
vn 0.707107 -0.707107 0.000000
vn 0.707107 0.707107 0.000000
vn -0.707107 0.707107 0.000000
vn -0.707107 -0.707107 0.000000
vn 0.707107 -0.707107 0.000000
vn 0.707107 0.707107 0.000000
g fff0af14_00001_0005a665_e2
f 22/2/22 20/4/20 18/5/18
f 23/6/23 19/7/19 24/3/24
f 18/5/18 17/8/17 22/2/22
f 24/3/24 21/1/21 23/6/23
f 22/2/22 21/1/21 24/3/24
f 24/3/24 20/4/20 22/2/22
f 34/22/34 31/17/31 40/31/40
f 61/6/61 57/7/57 62/3/62
f 44/37/44 35/23/35 43/36/43
f 16/3/16 12/4/12 14/2/14
f 14/2/14 13/1/13 16/3/16
f 16/3/16 13/1/13 15/6/15
f 56/5/56 55/8/55 60/2/60
f 10/5/10 9/8/9 14/2/14
f 15/6/15 11/7/11 16/3/16
f 14/2/14 12/4/12 10/5/10
f 38/28/38 35/23/35 44/37/44
f 8/3/8 4/4/4 6/2/6
f 6/2/6 5/1/5 8/3/8
f 8/3/8 5/1/5 7/6/7
f 60/2/60 58/4/58 56/5/56
f 2/5/2 1/8/1 6/2/6
f 7/6/7 3/7/3 8/3/8
f 6/2/6 4/4/4 2/5/2
f 62/3/62 58/4/58 60/2/60
f 60/2/60 59/1/59 62/3/62
f 62/3/62 59/1/59 61/6/61
f 40/31/40 31/17/31 39/30/39
f 54/3/54 51/1/51 53/6/53
f 52/2/52 51/1/51 54/3/54
f 54/3/54 50/4/50 52/2/52
f 52/2/52 50/4/50 48/5/48
f 48/5/48 47/8/47 52/2/52
f 53/6/53 49/7/49 54/3/54
f 70/3/70 66/4/66 68/2/68
f 68/2/68 67/1/67 70/3/70
f 70/3/70 67/1/67 69/6/69
f 64/5/64 63/8/63 68/2/68
f 69/6/69 65/7/65 70/3/70
f 68/2/68 66/4/66 64/5/64
f 76/2/76 74/4/74 72/5/72
f 77/6/77 73/7/73 78/3/78
f 72/5/72 71/8/71 76/2/76
f 78/3/78 75/1/75 77/6/77
f 76/2/76 75/1/75 78/3/78
f 78/3/78 74/4/74 76/2/76
f 84/2/84 82/4/82 80/5/80
f 85/6/85 81/7/81 86/3/86
f 80/5/80 79/8/79 84/2/84
f 86/3/86 83/1/83 85/6/85
f 84/2/84 83/1/83 86/3/86
f 86/3/86 82/4/82 84/2/84
f 92/2/92 90/4/90 88/5/88
f 93/6/93 89/7/89 94/3/94
f 88/5/88 87/8/87 92/2/92
f 94/3/94 91/1/91 93/6/93
f 92/2/92 91/1/91 94/3/94
f 94/3/94 90/4/90 92/2/92
f 110/2/110 108/4/108 106/5/106
f 111/6/111 107/7/107 112/3/112
f 106/5/106 105/8/105 110/2/110
f 112/3/112 109/1/109 111/6/111
f 110/2/110 109/1/109 112/3/112
f 112/3/112 108/4/108 110/2/110
f 119/6/119 115/7/115 120/3/120
f 114/5/114 113/8/113 118/2/118
f 118/2/118 116/4/116 114/5/114
f 120/3/120 116/4/116 118/2/118
f 118/2/118 117/1/117 120/3/120
f 120/3/120 117/1/117 119/6/119
f 127/6/127 123/7/123 128/3/128
f 122/5/122 121/8/121 126/2/126
f 126/2/126 124/4/124 122/5/122
f 128/3/128 124/4/124 126/2/126
f 126/2/126 125/1/125 128/3/128
f 128/3/128 125/1/125 127/6/127
f 135/6/135 131/7/131 136/3/136
f 130/5/130 129/8/129 134/2/134
f 134/2/134 132/4/132 130/5/130
f 136/3/136 132/4/132 134/2/134
f 134/2/134 133/1/133 136/3/136
f 136/3/136 133/1/133 135/6/135
f 143/6/143 139/7/139 144/3/144
f 138/5/138 137/8/137 142/2/142
f 142/2/142 140/4/140 138/5/138
f 144/3/144 140/4/140 142/2/142
f 142/2/142 141/1/141 144/3/144
f 144/3/144 141/1/141 143/6/143
f 151/6/151 147/7/147 152/3/152
f 146/5/146 145/8/145 150/2/150
f 150/2/150 148/4/148 146/5/146
f 152/3/152 148/4/148 150/2/150
f 150/2/150 149/1/149 152/3/152
f 152/3/152 149/1/149 151/6/151
f 159/6/159 155/7/155 160/3/160
f 154/5/154 153/8/153 158/2/158
f 158/2/158 156/4/156 154/5/154
f 160/3/160 156/4/156 158/2/158
f 158/2/158 157/1/157 160/3/160
f 160/3/160 157/1/157 159/6/159
f 166/2/166 164/4/164 162/5/162
f 167/6/167 163/7/163 168/3/168
f 162/5/162 161/8/161 166/2/166
f 168/3/168 165/1/165 167/6/167
f 166/2/166 165/1/165 168/3/168
f 168/3/168 164/4/164 166/2/166
f 174/2/174 172/4/172 170/5/170
f 175/6/175 171/7/171 176/3/176
f 170/5/170 169/8/169 174/2/174
f 176/3/176 173/1/173 175/6/175
f 174/2/174 173/1/173 176/3/176
f 176/3/176 172/4/172 174/2/174
f 182/2/182 180/4/180 178/5/178
f 183/6/183 179/7/179 184/3/184
f 178/5/178 177/8/177 182/2/182
f 184/3/184 181/1/181 183/6/183
f 182/2/182 181/1/181 184/3/184
f 184/3/184 180/4/180 182/2/182
f 190/2/190 188/4/188 186/5/186
f 191/6/191 187/7/187 192/3/192
f 186/5/186 185/8/185 190/2/190
f 192/3/192 189/1/189 191/6/191
f 190/2/190 189/1/189 192/3/192
f 192/3/192 188/4/188 190/2/190
f 519/137/519 212/54/212 210/55/210
f 517/135/517 211/57/211 216/58/216
f 520/138/520 209/59/209 214/53/214
f 518/136/518 213/60/213 215/56/215
f 214/53/214 213/60/213 518/136/518
f 216/58/216 212/54/212 519/137/519
f 226/61/226 223/62/223 232/63/232
f 527/149/527 308/54/308 306/55/306
f 236/64/236 227/65/227 235/66/235
f 208/58/208 204/54/204 521/141/521
f 206/53/206 205/60/205 522/142/522
f 522/142/522 205/60/205 207/56/207
f 525/147/525 307/57/307 312/58/312
f 524/146/524 201/59/201 206/53/206
f 523/143/523 203/57/203 208/58/208
f 521/141/521 204/54/204 202/55/202
f 230/67/230 227/65/227 236/64/236
f 200/58/200 196/54/196 529/153/529
f 198/53/198 197/60/197 530/154/530
f 530/154/530 197/60/197 199/56/199
f 528/150/528 305/59/305 310/53/310
f 532/158/532 193/59/193 198/53/198
f 531/155/531 195/57/195 200/58/200
f 529/153/529 196/54/196 194/55/194
f 526/148/526 309/60/309 311/56/311
f 310/53/310 309/60/309 526/148/526
f 312/58/312 308/54/308 527/149/527
f 232/63/232 223/62/223 231/68/231
f 533/159/533 243/60/243 245/56/245
f 244/53/244 243/60/243 533/159/533
f 246/58/246 242/54/242 536/164/536
f 536/164/536 242/54/242 240/55/240
f 535/163/535 239/59/239 244/53/244
f 534/160/534 241/57/241 246/58/246
f 254/58/254 250/54/250 537/165/537
f 252/53/252 251/60/251 538/166/538
f 538/166/538 251/60/251 253/56/253
f 540/170/540 247/59/247 252/53/252
f 539/167/539 249/57/249 254/58/254
f 537/165/537 250/54/250 248/55/248
f 543/173/543 258/54/258 256/55/256
f 541/171/541 257/57/257 262/58/262
f 544/174/544 255/59/255 260/53/260
f 542/172/542 259/60/259 261/56/261
f 260/53/260 259/60/259 542/172/542
f 262/58/262 258/54/258 543/173/543
f 547/179/547 266/54/266 264/55/264
f 545/177/545 265/57/265 270/58/270
f 548/180/548 263/59/263 268/53/268
f 546/178/546 267/60/267 269/56/269
f 268/53/268 267/60/267 546/178/546
f 270/58/270 266/54/266 547/179/547
f 551/185/551 274/54/274 272/55/272
f 549/183/549 273/57/273 278/58/278
f 552/186/552 271/59/271 276/53/276
f 550/184/550 275/60/275 277/56/277
f 276/53/276 275/60/275 550/184/550
f 278/58/278 274/54/274 551/185/551
f 555/191/555 292/54/292 290/55/290
f 553/189/553 291/57/291 296/58/296
f 556/192/556 289/59/289 294/53/294
f 554/190/554 293/60/293 295/56/295
f 294/53/294 293/60/293 554/190/554
f 296/58/296 292/54/292 555/191/555
f 557/195/557 299/57/299 304/58/304
f 560/198/560 297/59/297 302/53/302
f 559/197/559 300/54/300 298/55/298
f 304/58/304 300/54/300 559/197/559
f 302/53/302 301/60/301 558/196/558
f 558/196/558 301/60/301 303/56/303
f 320/58/320 316/54/316 561/201/561
f 318/53/318 317/60/317 562/202/562
f 562/202/562 317/60/317 319/56/319
f 564/206/564 313/59/313 318/53/318
f 563/203/563 315/57/315 320/58/320
f 561/201/561 316/54/316 314/55/314
f 567/209/567 324/54/324 322/55/322
f 565/207/565 323/57/323 328/58/328
f 568/210/568 321/59/321 326/53/326
f 566/208/566 325/60/325 327/56/327
f 326/53/326 325/60/325 566/208/566
f 328/58/328 324/54/324 567/209/567
f 571/215/571 332/54/332 330/55/330
f 569/213/569 331/57/331 336/58/336
f 572/216/572 329/59/329 334/53/334
f 570/214/570 333/60/333 335/56/335
f 334/53/334 333/60/333 570/214/570
f 336/58/336 332/54/332 571/215/571
f 573/219/573 347/60/347 349/56/349
f 348/53/348 347/60/347 573/219/573
f 350/58/350 346/54/346 576/224/576
f 576/224/576 346/54/346 344/55/344
f 575/223/575 343/59/343 348/53/348
f 574/220/574 345/57/345 350/58/350
f 223/62/223 226/61/226 353/112/353
f 353/112/353 351/111/351 223/62/223
f 227/65/227 230/67/230 356/116/356
f 356/116/356 354/115/354 227/65/227
f 577/225/577 361/60/361 363/56/363
f 362/53/362 361/60/361 577/225/577
f 364/58/364 360/54/360 580/230/580
f 580/230/580 360/54/360 358/55/358
f 579/229/579 357/59/357 362/53/362
f 578/226/578 359/57/359 364/58/364
f 581/231/581 369/60/369 371/56/371
f 370/53/370 369/60/369 581/231/581
f 372/58/372 368/54/368 584/236/584
f 584/236/584 368/54/368 366/55/366
f 583/235/583 365/59/365 370/53/370
f 582/232/582 367/57/367 372/58/372
f 373/119/373 337/105/337 381/126/381
f 379/125/379 381/126/381 337/105/337
f 375/122/375 339/108/339 382/128/382
f 380/127/380 382/128/382 339/108/339
f 381/126/381 387/130/387 373/119/373
f 383/129/383 373/119/373 387/130/387
f 382/128/382 388/133/388 375/122/375
f 385/132/385 375/122/375 388/133/388
f 585/237/585 393/60/393 395/56/395
f 394/53/394 393/60/393 585/237/585
f 396/58/396 392/54/392 588/242/588
f 588/242/588 392/54/392 390/55/390
f 587/241/587 389/59/389 394/53/394
f 586/238/586 391/57/391 396/58/396
f 589/243/589 401/60/401 403/56/403
f 402/53/402 401/60/401 589/243/589
f 404/58/404 400/54/400 592/248/592
f 592/248/592 400/54/400 398/55/398
f 591/247/591 397/59/397 402/53/402
f 590/244/590 399/57/399 404/58/404
f 593/249/593 409/60/409 411/56/411
f 410/53/410 409/60/409 593/249/593
f 412/58/412 408/54/408 596/254/596
f 596/254/596 408/54/408 406/55/406
f 595/253/595 405/59/405 410/53/410
f 594/250/594 407/57/407 412/58/412
f 597/255/597 417/60/417 419/56/419
f 418/53/418 417/60/417 597/255/597
f 420/58/420 416/54/416 600/260/600
f 600/260/600 416/54/416 414/55/414
f 599/259/599 413/59/413 418/53/418
f 598/256/598 415/57/415 420/58/420
f 601/261/601 425/60/425 427/56/427
f 426/53/426 425/60/425 601/261/601
f 428/58/428 424/54/424 604/266/604
f 604/266/604 424/54/424 422/55/422
f 603/265/603 421/59/421 426/53/426
f 602/262/602 423/57/423 428/58/428
f 605/267/605 433/60/433 435/56/435
f 434/53/434 433/60/433 605/267/605
f 436/58/436 432/54/432 608/272/608
f 608/272/608 432/54/432 430/55/430
f 607/271/607 429/59/429 434/53/434
f 606/268/606 431/57/431 436/58/436
f 609/273/609 441/60/441 443/56/443
f 442/53/442 441/60/441 609/273/609
f 444/58/444 440/54/440 612/278/612
f 612/278/612 440/54/440 438/55/438
f 611/277/611 437/59/437 442/53/442
f 610/274/610 439/57/439 444/58/444
f 613/279/613 449/60/449 451/56/451
f 450/53/450 449/60/449 613/279/613
f 452/58/452 448/54/448 616/284/616
f 616/284/616 448/54/448 446/55/446
f 615/283/615 445/59/445 450/53/450
f 614/280/614 447/57/447 452/58/452
f 617/285/617 457/60/457 459/56/459
f 458/53/458 457/60/457 617/285/617
f 460/58/460 456/54/456 620/290/620
f 620/290/620 456/54/456 454/55/454
f 619/289/619 453/59/453 458/53/458
f 618/286/618 455/57/455 460/58/460
f 621/291/621 465/60/465 467/56/467
f 466/53/466 465/60/465 621/291/621
f 468/58/468 464/54/464 624/296/624
f 624/296/624 464/54/464 462/55/462
f 623/295/623 461/59/461 466/53/466
f 622/292/622 463/57/463 468/58/468
f 625/297/625 473/60/473 475/56/475
f 474/53/474 473/60/473 625/297/625
f 476/58/476 472/54/472 628/302/628
f 628/302/628 472/54/472 470/55/470
f 627/301/627 469/59/469 474/53/474
f 626/298/626 471/57/471 476/58/476
f 629/303/629 481/60/481 483/56/483
f 482/53/482 481/60/481 629/303/629
f 484/58/484 480/54/480 632/308/632
f 632/308/632 480/54/480 478/55/478
f 631/307/631 477/59/477 482/53/482
f 630/304/630 479/57/479 484/58/484
f 633/309/633 489/60/489 491/56/491
f 490/53/490 489/60/489 633/309/633
f 492/58/492 488/54/488 636/314/636
f 636/314/636 488/54/488 486/55/486
f 635/313/635 485/59/485 490/53/490
f 634/310/634 487/57/487 492/58/492
f 637/315/637 497/60/497 499/56/499
f 498/53/498 497/60/497 637/315/637
f 500/58/500 496/54/496 640/320/640
f 640/320/640 496/54/496 494/55/494
f 639/319/639 493/59/493 498/53/498
f 638/316/638 495/57/495 500/58/500
f 641/321/641 505/60/505 507/56/507
f 506/53/506 505/60/505 641/321/641
f 508/58/508 504/54/504 644/326/644
f 644/326/644 504/54/504 502/55/502
f 643/325/643 501/59/501 506/53/506
f 642/322/642 503/57/503 508/58/508
f 645/327/645 513/60/513 515/56/515
f 514/53/514 513/60/513 645/327/645
f 516/58/516 512/54/512 648/332/648
f 648/332/648 512/54/512 510/55/510
f 647/331/647 509/59/509 514/53/514
f 646/328/646 511/57/511 516/58/516
f 518/136/518 517/135/517 216/58/216
f 517/135/517 518/136/518 215/56/215
f 214/53/214 518/136/518 519/137/519
f 216/58/216 519/137/519 518/136/518
f 520/138/520 519/137/519 210/55/210
f 519/137/519 520/138/520 214/53/214
f 208/58/208 521/141/521 522/142/522
f 206/53/206 522/142/522 521/141/521
f 523/143/523 522/142/522 207/56/207
f 522/142/522 523/143/523 208/58/208
f 521/141/521 524/146/524 206/53/206
f 524/146/524 521/141/521 202/55/202
f 526/148/526 525/147/525 312/58/312
f 525/147/525 526/148/526 311/56/311
f 310/53/310 526/148/526 527/149/527
f 312/58/312 527/149/527 526/148/526
f 528/150/528 527/149/527 306/55/306
f 527/149/527 528/150/528 310/53/310
f 200/58/200 529/153/529 530/154/530
f 198/53/198 530/154/530 529/153/529
f 531/155/531 530/154/530 199/56/199
f 530/154/530 531/155/531 200/58/200
f 529/153/529 532/158/532 198/53/198
f 532/158/532 529/153/529 194/55/194
f 534/160/534 533/159/533 245/56/245
f 533/159/533 534/160/534 246/58/246
f 536/164/536 535/163/535 244/53/244
f 535/163/535 536/164/536 240/55/240
f 246/58/246 536/164/536 533/159/533
f 244/53/244 533/159/533 536/164/536
f 254/58/254 537/165/537 538/166/538
f 252/53/252 538/166/538 537/165/537
f 539/167/539 538/166/538 253/56/253
f 538/166/538 539/167/539 254/58/254
f 537/165/537 540/170/540 252/53/252
f 540/170/540 537/165/537 248/55/248
f 542/172/542 541/171/541 262/58/262
f 541/171/541 542/172/542 261/56/261
f 260/53/260 542/172/542 543/173/543
f 262/58/262 543/173/543 542/172/542
f 544/174/544 543/173/543 256/55/256
f 543/173/543 544/174/544 260/53/260
f 546/178/546 545/177/545 270/58/270
f 545/177/545 546/178/546 269/56/269
f 268/53/268 546/178/546 547/179/547
f 270/58/270 547/179/547 546/178/546
f 548/180/548 547/179/547 264/55/264
f 547/179/547 548/180/548 268/53/268
f 550/184/550 549/183/549 278/58/278
f 549/183/549 550/184/550 277/56/277
f 276/53/276 550/184/550 551/185/551
f 278/58/278 551/185/551 550/184/550
f 552/186/552 551/185/551 272/55/272
f 551/185/551 552/186/552 276/53/276
f 554/190/554 553/189/553 296/58/296
f 553/189/553 554/190/554 295/56/295
f 294/53/294 554/190/554 555/191/555
f 296/58/296 555/191/555 554/190/554
f 556/192/556 555/191/555 290/55/290
f 555/191/555 556/192/556 294/53/294
f 558/196/558 557/195/557 304/58/304
f 557/195/557 558/196/558 303/56/303
f 302/53/302 558/196/558 559/197/559
f 304/58/304 559/197/559 558/196/558
f 560/198/560 559/197/559 298/55/298
f 559/197/559 560/198/560 302/53/302
f 320/58/320 561/201/561 562/202/562
f 318/53/318 562/202/562 561/201/561
f 563/203/563 562/202/562 319/56/319
f 562/202/562 563/203/563 320/58/320
f 561/201/561 564/206/564 318/53/318
f 564/206/564 561/201/561 314/55/314
f 566/208/566 565/207/565 328/58/328
f 565/207/565 566/208/566 327/56/327
f 326/53/326 566/208/566 567/209/567
f 328/58/328 567/209/567 566/208/566
f 568/210/568 567/209/567 322/55/322
f 567/209/567 568/210/568 326/53/326
f 570/214/570 569/213/569 336/58/336
f 569/213/569 570/214/570 335/56/335
f 334/53/334 570/214/570 571/215/571
f 336/58/336 571/215/571 570/214/570
f 572/216/572 571/215/571 330/55/330
f 571/215/571 572/216/572 334/53/334
f 574/220/574 573/219/573 349/56/349
f 573/219/573 574/220/574 350/58/350
f 576/224/576 575/223/575 348/53/348
f 575/223/575 576/224/576 344/55/344
f 350/58/350 576/224/576 573/219/573
f 348/53/348 573/219/573 576/224/576
f 578/226/578 577/225/577 363/56/363
f 577/225/577 578/226/578 364/58/364
f 580/230/580 579/229/579 362/53/362
f 579/229/579 580/230/580 358/55/358
f 364/58/364 580/230/580 577/225/577
f 362/53/362 577/225/577 580/230/580
f 582/232/582 581/231/581 371/56/371
f 581/231/581 582/232/582 372/58/372
f 584/236/584 583/235/583 370/53/370
f 583/235/583 584/236/584 366/55/366
f 372/58/372 584/236/584 581/231/581
f 370/53/370 581/231/581 584/236/584
f 586/238/586 585/237/585 395/56/395
f 585/237/585 586/238/586 396/58/396
f 588/242/588 587/241/587 394/53/394
f 587/241/587 588/242/588 390/55/390
f 396/58/396 588/242/588 585/237/585
f 394/53/394 585/237/585 588/242/588
f 590/244/590 589/243/589 403/56/403
f 589/243/589 590/244/590 404/58/404
f 592/248/592 591/247/591 402/53/402
f 591/247/591 592/248/592 398/55/398
f 404/58/404 592/248/592 589/243/589
f 402/53/402 589/243/589 592/248/592
f 594/250/594 593/249/593 411/56/411
f 593/249/593 594/250/594 412/58/412
f 596/254/596 595/253/595 410/53/410
f 595/253/595 596/254/596 406/55/406
f 412/58/412 596/254/596 593/249/593
f 410/53/410 593/249/593 596/254/596
f 598/256/598 597/255/597 419/56/419
f 597/255/597 598/256/598 420/58/420
f 600/260/600 599/259/599 418/53/418
f 599/259/599 600/260/600 414/55/414
f 420/58/420 600/260/600 597/255/597
f 418/53/418 597/255/597 600/260/600
f 602/262/602 601/261/601 427/56/427
f 601/261/601 602/262/602 428/58/428
f 604/266/604 603/265/603 426/53/426
f 603/265/603 604/266/604 422/55/422
f 428/58/428 604/266/604 601/261/601
f 426/53/426 601/261/601 604/266/604
f 606/268/606 605/267/605 435/56/435
f 605/267/605 606/268/606 436/58/436
f 608/272/608 607/271/607 434/53/434
f 607/271/607 608/272/608 430/55/430
f 436/58/436 608/272/608 605/267/605
f 434/53/434 605/267/605 608/272/608
f 610/274/610 609/273/609 443/56/443
f 609/273/609 610/274/610 444/58/444
f 612/278/612 611/277/611 442/53/442
f 611/277/611 612/278/612 438/55/438
f 444/58/444 612/278/612 609/273/609
f 442/53/442 609/273/609 612/278/612
f 614/280/614 613/279/613 451/56/451
f 613/279/613 614/280/614 452/58/452
f 616/284/616 615/283/615 450/53/450
f 615/283/615 616/284/616 446/55/446
f 452/58/452 616/284/616 613/279/613
f 450/53/450 613/279/613 616/284/616
f 618/286/618 617/285/617 459/56/459
f 617/285/617 618/286/618 460/58/460
f 620/290/620 619/289/619 458/53/458
f 619/289/619 620/290/620 454/55/454
f 460/58/460 620/290/620 617/285/617
f 458/53/458 617/285/617 620/290/620
f 622/292/622 621/291/621 467/56/467
f 621/291/621 622/292/622 468/58/468
f 624/296/624 623/295/623 466/53/466
f 623/295/623 624/296/624 462/55/462
f 468/58/468 624/296/624 621/291/621
f 466/53/466 621/291/621 624/296/624
f 626/298/626 625/297/625 475/56/475
f 625/297/625 626/298/626 476/58/476
f 628/302/628 627/301/627 474/53/474
f 627/301/627 628/302/628 470/55/470
f 476/58/476 628/302/628 625/297/625
f 474/53/474 625/297/625 628/302/628
f 630/304/630 629/303/629 483/56/483
f 629/303/629 630/304/630 484/58/484
f 632/308/632 631/307/631 482/53/482
f 631/307/631 632/308/632 478/55/478
f 484/58/484 632/308/632 629/303/629
f 482/53/482 629/303/629 632/308/632
f 634/310/634 633/309/633 491/56/491
f 633/309/633 634/310/634 492/58/492
f 636/314/636 635/313/635 490/53/490
f 635/313/635 636/314/636 486/55/486
f 492/58/492 636/314/636 633/309/633
f 490/53/490 633/309/633 636/314/636
f 638/316/638 637/315/637 499/56/499
f 637/315/637 638/316/638 500/58/500
f 640/320/640 639/319/639 498/53/498
f 639/319/639 640/320/640 494/55/494
f 500/58/500 640/320/640 637/315/637
f 498/53/498 637/315/637 640/320/640
f 642/322/642 641/321/641 507/56/507
f 641/321/641 642/322/642 508/58/508
f 644/326/644 643/325/643 506/53/506
f 643/325/643 644/326/644 502/55/502
f 508/58/508 644/326/644 641/321/641
f 506/53/506 641/321/641 644/326/644
f 646/328/646 645/327/645 515/56/515
f 645/327/645 646/328/646 516/58/516
f 648/332/648 647/331/647 514/53/514
f 647/331/647 648/332/648 510/55/510
f 516/58/516 648/332/648 645/327/645
f 514/53/514 645/327/645 648/332/648
g fff0af14_00001_0005a665_e3
f 46/39/46 37/27/37 45/38/45
f 46/39/46 45/38/45 29/14/29
f 9/8/9 10/8/10 15/8/15
f 11/8/11 15/8/15 10/8/10
f 1/8/1 2/8/2 7/8/7
f 3/8/3 7/8/7 2/8/2
f 42/33/42 33/21/33 41/32/41
f 42/33/42 41/32/41 26/10/26
f 36/26/36 37/27/37 46/39/46
f 32/20/32 33/21/33 42/33/42
f 57/8/57 61/8/61 56/8/56
f 55/8/55 56/8/56 61/8/61
f 41/32/41 25/9/25 26/10/26
f 45/38/45 28/13/28 29/14/29
f 19/8/19 23/8/23 18/8/18
f 17/8/17 18/8/18 23/8/23
f 47/8/47 48/8/48 53/8/53
f 49/8/49 53/8/53 48/8/48
f 63/8/63 64/8/64 69/8/69
f 65/8/65 69/8/69 64/8/64
f 73/8/73 77/8/77 72/8/72
f 71/8/71 72/8/72 77/8/77
f 81/8/81 85/8/85 80/8/80
f 79/8/79 80/8/80 85/8/85
f 89/8/89 93/8/93 88/8/88
f 87/8/87 88/8/88 93/8/93
f 96/42/96 26/10/26 25/9/25
f 25/9/25 95/41/95 96/42/96
f 99/46/99 29/14/29 28/13/28
f 28/13/28 98/45/98 99/46/99
f 27/12/27 97/44/97 103/50/103
f 103/50/103 101/49/101 27/12/27
f 30/16/30 100/48/100 104/52/104
f 104/52/104 102/51/102 30/16/30
f 107/8/107 111/8/111 106/8/106
f 105/8/105 106/8/106 111/8/111
f 115/8/115 119/8/119 114/8/114
f 113/8/113 114/8/114 119/8/119
f 123/8/123 127/8/127 122/8/122
f 121/8/121 122/8/122 127/8/127
f 131/8/131 135/8/135 130/8/130
f 129/8/129 130/8/130 135/8/135
f 139/8/139 143/8/143 138/8/138
f 137/8/137 138/8/138 143/8/143
f 147/8/147 151/8/151 146/8/146
f 145/8/145 146/8/146 151/8/151
f 155/8/155 159/8/159 154/8/154
f 153/8/153 154/8/154 159/8/159
f 163/8/163 167/8/167 162/8/162
f 161/8/161 162/8/162 167/8/167
f 171/8/171 175/8/175 170/8/170
f 169/8/169 170/8/170 175/8/175
f 179/8/179 183/8/183 178/8/178
f 177/8/177 178/8/178 183/8/183
f 187/8/187 191/8/191 186/8/186
f 185/8/185 186/8/186 191/8/191
f 238/69/238 229/70/229 237/71/237
f 238/69/238 237/71/237 221/72/221
f 201/59/201 524/145/524 207/59/207
f 203/59/203 523/144/523 202/59/202
f 193/59/193 532/157/532 199/59/199
f 195/59/195 531/156/531 194/59/194
f 234/73/234 225/74/225 233/75/233
f 234/73/234 233/75/233 218/76/218
f 228/77/228 229/70/229 238/69/238
f 224/78/224 225/74/225 234/73/234
f 305/59/305 528/151/528 311/59/311
f 307/59/307 525/152/525 306/59/306
f 233/75/233 217/79/217 218/76/218
f 237/71/237 220/80/220 221/72/221
f 211/59/211 517/140/517 210/59/210
f 209/59/209 520/139/520 215/59/215
f 239/59/239 535/162/535 245/59/245
f 241/59/241 534/161/534 240/59/240
f 247/59/247 540/169/540 253/59/253
f 249/59/249 539/168/539 248/59/248
f 257/59/257 541/176/541 256/59/256
f 255/59/255 544/175/544 261/59/261
f 265/59/265 545/182/545 264/59/264
f 263/59/263 548/181/548 269/59/269
f 273/59/273 549/188/549 272/59/272
f 271/59/271 552/187/552 277/59/277
f 280/81/280 218/76/218 217/79/217
f 217/79/217 279/82/279 280/81/280
f 283/83/283 221/72/221 220/80/220
f 220/80/220 282/84/282 283/83/283
f 219/85/219 281/86/281 287/87/287
f 287/87/287 285/88/285 219/85/219
f 222/89/222 284/90/284 288/91/288
f 288/91/288 286/92/286 222/89/222
f 291/59/291 553/194/553 290/59/290
f 289/59/289 556/193/556 295/59/295
f 299/59/299 557/200/557 298/59/298
f 297/59/297 560/199/560 303/59/303
f 284/90/284 340/109/340 342/110/342
f 342/110/342 288/91/288 284/90/284
f 281/86/281 338/106/338 341/107/341
f 341/107/341 287/87/287 281/86/281
f 313/59/313 564/205/564 319/59/319
f 315/59/315 563/204/563 314/59/314
f 323/59/323 565/212/565 322/59/322
f 321/59/321 568/211/568 327/59/327
f 331/59/331 569/218/569 330/59/330
f 329/59/329 572/217/572 335/59/335
f 343/59/343 575/222/575 349/59/349
f 345/59/345 574/221/574 344/59/344
f 357/59/357 579/228/579 363/59/363
f 359/59/359 578/227/578 358/59/358
f 365/59/365 583/234/583 371/59/371
f 367/59/367 582/233/582 366/59/366
f 377/121/377 341/107/341 338/106/338
f 338/106/338 374/120/374 377/121/377
f 378/124/378 342/110/342 340/109/340
f 340/109/340 376/123/376 378/124/378
f 389/59/389 587/240/587 395/59/395
f 391/59/391 586/239/586 390/59/390
f 397/59/397 591/246/591 403/59/403
f 399/59/399 590/245/590 398/59/398
f 405/59/405 595/252/595 411/59/411
f 407/59/407 594/251/594 406/59/406
f 413/59/413 599/258/599 419/59/419
f 415/59/415 598/257/598 414/59/414
f 421/59/421 603/264/603 427/59/427
f 423/59/423 602/263/602 422/59/422
f 429/59/429 607/270/607 435/59/435
f 431/59/431 606/269/606 430/59/430
f 437/59/437 611/276/611 443/59/443
f 439/59/439 610/275/610 438/59/438
f 445/59/445 615/282/615 451/59/451
f 447/59/447 614/281/614 446/59/446
f 453/59/453 619/288/619 459/59/459
f 455/59/455 618/287/618 454/59/454
f 461/59/461 623/294/623 467/59/467
f 463/59/463 622/293/622 462/59/462
f 469/59/469 627/300/627 475/59/475
f 471/59/471 626/299/626 470/59/470
f 477/59/477 631/306/631 483/59/483
f 479/59/479 630/305/630 478/59/478
f 485/59/485 635/312/635 491/59/491
f 487/59/487 634/311/634 486/59/486
f 493/59/493 639/318/639 499/59/499
f 495/59/495 638/317/638 494/59/494
f 501/59/501 643/324/643 507/59/507
f 503/59/503 642/323/642 502/59/502
f 509/59/509 647/330/647 515/59/515
f 511/59/511 646/329/646 510/59/510
f 520/139/520 517/140/517 215/59/215
f 517/140/517 520/139/520 210/59/210
f 523/144/523 524/145/524 202/59/202
f 524/145/524 523/144/523 207/59/207
f 528/151/528 525/152/525 311/59/311
f 525/152/525 528/151/528 306/59/306
f 531/156/531 532/157/532 194/59/194
f 532/157/532 531/156/531 199/59/199
f 534/161/534 535/162/535 240/59/240
f 535/162/535 534/161/534 245/59/245
f 539/168/539 540/169/540 248/59/248
f 540/169/540 539/168/539 253/59/253
f 544/175/544 541/176/541 261/59/261
f 541/176/541 544/175/544 256/59/256
f 548/181/548 545/182/545 269/59/269
f 545/182/545 548/181/548 264/59/264
f 552/187/552 549/188/549 277/59/277
f 549/188/549 552/187/552 272/59/272
f 556/193/556 553/194/553 295/59/295
f 553/194/553 556/193/556 290/59/290
f 560/199/560 557/200/557 303/59/303
f 557/200/557 560/199/560 298/59/298
f 563/204/563 564/205/564 314/59/314
f 564/205/564 563/204/563 319/59/319
f 568/211/568 565/212/565 327/59/327
f 565/212/565 568/211/568 322/59/322
f 572/217/572 569/218/569 335/59/335
f 569/218/569 572/217/572 330/59/330
f 574/221/574 575/222/575 344/59/344
f 575/222/575 574/221/574 349/59/349
f 578/227/578 579/228/579 358/59/358
f 579/228/579 578/227/578 363/59/363
f 582/233/582 583/234/583 366/59/366
f 583/234/583 582/233/582 371/59/371
f 586/239/586 587/240/587 390/59/390
f 587/240/587 586/239/586 395/59/395
f 590/245/590 591/246/591 398/59/398
f 591/246/591 590/245/590 403/59/403
f 594/251/594 595/252/595 406/59/406
f 595/252/595 594/251/594 411/59/411
f 598/257/598 599/258/599 414/59/414
f 599/258/599 598/257/598 419/59/419
f 602/263/602 603/264/603 422/59/422
f 603/264/603 602/263/602 427/59/427
f 606/269/606 607/270/607 430/59/430
f 607/270/607 606/269/606 435/59/435
f 610/275/610 611/276/611 438/59/438
f 611/276/611 610/275/610 443/59/443
f 614/281/614 615/282/615 446/59/446
f 615/282/615 614/281/614 451/59/451
f 618/287/618 619/288/619 454/59/454
f 619/288/619 618/287/618 459/59/459
f 622/293/622 623/294/623 462/59/462
f 623/294/623 622/293/622 467/59/467
f 626/299/626 627/300/627 470/59/470
f 627/300/627 626/299/626 475/59/475
f 630/305/630 631/306/631 478/59/478
f 631/306/631 630/305/630 483/59/483
f 634/311/634 635/312/635 486/59/486
f 635/312/635 634/311/634 491/59/491
f 638/317/638 639/318/639 494/59/494
f 639/318/639 638/317/638 499/59/499
f 642/323/642 643/324/643 502/59/502
f 643/324/643 642/323/642 507/59/507
f 646/329/646 647/330/647 510/59/510
f 647/330/647 646/329/646 515/59/515
g fff0af14_00001_0005a665_e1
f 43/35/43 36/25/36 46/40/46
f 43/35/43 46/40/46 30/16/30
f 39/29/39 32/19/32 42/34/42
f 39/29/39 42/34/42 27/12/27
f 35/24/35 36/25/36 43/35/43
f 46/40/46 29/15/29 30/16/30
f 31/18/31 32/19/32 39/29/39
f 42/34/42 26/11/26 27/12/27
f 97/44/97 27/12/27 26/11/26
f 26/11/26 96/43/96 97/44/97
f 100/48/100 30/16/30 29/15/29
f 29/15/29 99/47/99 100/48/100
f 235/93/235 228/94/228 238/95/238
f 235/93/235 238/95/238 222/89/222
f 231/96/231 224/97/224 234/98/234
f 231/96/231 234/98/234 219/85/219
f 227/99/227 228/94/228 235/93/235
f 238/95/238 221/100/221 222/89/222
f 223/101/223 224/97/224 231/96/231
f 234/98/234 218/102/218 219/85/219
f 281/86/281 219/85/219 218/102/218
f 218/102/218 280/103/280 281/86/281
f 284/90/284 222/89/222 221/100/221
f 221/100/221 283/104/283 284/90/284
f 338/106/338 281/86/281 280/103/280
f 280/103/280 337/105/337 338/106/338
f 340/109/340 284/90/284 283/104/283
f 283/104/283 339/108/339 340/109/340
f 224/97/224 223/101/223 352/114/352
f 351/113/351 352/114/352 223/101/223
f 228/94/228 227/99/227 355/118/355
f 354/117/354 355/118/355 227/99/227
f 374/120/374 338/106/338 337/105/337
f 337/105/337 373/119/373 374/120/374
f 376/123/376 340/109/340 339/108/339
f 339/108/339 375/122/375 376/123/376
f 384/131/384 374/120/374 373/119/373
f 373/119/373 383/129/383 384/131/384
f 386/134/386 376/123/376 375/122/375
f 375/122/375 385/132/385 386/134/386
