# fff0aa7b_00281_006de745
o fff0aa7b_00281_006de745
v -12.680162 0.000000 -2.594421
v 12.680162 0.000000 -2.594421
v -12.680162 -0.000000 2.594421
v 12.680162 0.000000 2.594421
v -13.345338 -0.088013 -10.747211
v 33.832840 -0.088017 -10.747211
v -13.345338 -0.088013 10.746340
v 33.832840 -0.088017 10.746340
v -13.345344 -29.816525 -10.747211
v 33.832836 -29.816528 -10.747211
v -13.345344 -29.816525 10.746340
v 33.832836 -29.816528 10.746340
vt 0.283106 1.673275
vt 0.134034 1.675033
vt 0.283107 1.773524
vt 0.232036 1.739782
vt 0.283106 1.673275
vt 0.134034 1.675033
vt 0.283107 1.773524
vt 0.232036 1.739782
vn -0.000000 1.000000 0.000000
vn 0.000000 1.000000 0.000000
vn -0.000000 1.000000 0.000000
vn 0.000000 1.000000 0.000000
vn 0.000000 0.000000 1.000000
vn -0.707107 0.000000 0.707107
vn 0.000000 0.000000 -1.000000
vn -0.707107 0.000000 -0.707107
vn 0.000000 0.707107 0.707107
vn -0.577350 0.577350 0.577350
vn 0.000000 0.707107 -0.707107
vn -0.577350 0.577350 -0.577350
g fff0aa7b_00281_006de745_e3
f 12/8/12 11/7/11 7/3/7
f 7/3/7 8/4/8 12/8/12
f 12/8/12 10/6/10 9/5/9
f 11/7/11 12/8/12 9/5/9
f 6/2/6 5/1/5 9/5/9
f 9/5/9 10/6/10 6/2/6
f 6/2/6 10/6/10 8/4/8
f 12/8/12 8/4/8 10/6/10
g fff0aa7b_00281_006de745_e4
f 4/4/4 2/2/2 1/1/1
f 3/3/3 4/4/4 1/1/1
