# fff0a81b_00223_005bb1aa
o fff0a81b_00223_005bb1aa
v 24.955780 3.978314 2.033140
v -34.998383 3.978314 2.033140
v 34.998383 -3.970196 2.033140
v 24.955780 -3.970196 2.033140
v -34.998383 -3.970196 2.033140
v 34.998383 3.978314 2.033140
v -34.998383 3.978344 -2.033140
v 34.998383 -3.970166 -2.033140
v 34.998383 -3.970186 0.617760
v 24.955780 -3.970187 0.617760
v 24.955780 -3.970166 -2.033140
v -34.998383 -3.970166 -2.033140
v 34.998383 3.978344 -2.033140
v 24.955780 3.978344 -2.033140
v 21.816193 3.978314 2.033140
v 21.816193 3.978323 0.617760
v 34.998383 3.978322 0.617760
v -34.998383 -3.970187 0.788639
v -34.998383 3.978326 0.617760
v 24.955780 3.978333 -0.644215
v 24.955780 3.978323 0.617760
v 21.816193 3.978333 -0.644215
v 0.406586 3.978317 1.736612
v -34.998383 3.978319 1.736612
v 21.816193 3.978316 1.736612
v 34.998383 -3.970194 1.736612
v 24.955780 -3.970195 1.736612
v -34.998383 -3.970194 1.736612
v 24.955780 3.978317 1.736612
v 34.998383 3.978316 1.736612
v 0.406586 3.978324 0.617760
v 21.686722 3.978344 -2.033140
v -34.998383 -3.970168 -1.623850
v 0.406586 3.978314 2.033140
v 0.406586 -3.970195 1.736612
v 0.406586 -3.970196 2.033140
v 0.406586 -3.970166 -2.033140
v 0.406586 -3.970187 0.687729
v 0.406586 3.978344 -2.033140
v 6.514130 -3.970195 1.736612
v 6.514130 -3.970196 2.033140
v 6.514130 -3.970166 -2.033140
v 6.514130 3.978344 -2.033140
v 6.514130 -3.970187 0.670038
v 6.514130 3.978314 2.033140
v 6.514130 3.978317 1.736612
v 6.514130 3.978324 0.617760
v 0.279633 -3.970196 2.033140
v 0.279633 -3.970195 1.736612
v -2.979584 -3.970195 1.736612
v -2.979584 -3.970196 2.033140
v 0.279633 -3.970187 0.688061
v -2.979584 -3.970187 0.697374
v -2.979584 -3.970177 -0.638088
v 0.279633 -3.970176 -0.638088
v -3.193262 -3.970166 -2.033140
vt 0.000000 0.000000
vt 0.000000 0.000000
vt 0.000000 0.000000
vt 0.000000 0.000000
vt 0.000000 0.000000
vt 0.000000 0.000000
vt 0.000000 0.000000
vt 0.000000 0.000000
vt 0.000000 0.000000
vt 0.000000 0.000000
vt 0.000000 0.000000
vt 0.000000 0.000000
vt 0.000000 0.000000
vt 0.000000 0.000000
vt 0.000000 0.000000
vt 0.000000 0.000000
vt 0.000000 0.000000
vt 0.000000 0.000000
vt 0.000000 0.000000
vt 0.000000 0.000000
vt 0.000000 0.000000
vt 0.000000 0.000000
vt 0.000000 0.000000
vt 0.000000 0.000000
vt 0.000000 0.000000
vt 0.000000 0.000000
vt 0.000000 0.000000
vt 0.000000 0.000000
vt 0.000000 0.000000
vt 0.000000 0.000000
vt 0.000000 0.000000
vt 0.000000 0.000000
vt 0.000000 0.000000
vt 0.000000 0.000000
vt 0.000000 0.000000
vt 0.000000 0.000000
vt 0.000000 0.000000
vt 0.000000 0.000000
vt 0.000000 0.000000
vt 0.000000 0.000000
vt 0.000000 0.000000
vt 0.000000 0.000000
vt 0.000000 0.000000
vt 0.000000 0.000000
vt 0.000000 0.000000
vt 0.000000 0.000000
vt 0.000000 0.000000
vt 0.000000 0.000000
vt 0.000000 0.000000
vt 0.000000 0.000000
vt 0.000000 0.000000
vt 0.000000 0.000000
vt 0.000000 0.000000
vt 0.000000 0.000000
vt 0.000000 0.000000
vt 0.000000 0.000000
vt 0.000000 0.000000
vt 0.000000 0.000000
vt 0.000000 0.000000
vt 0.000000 0.000000
vt 0.000000 0.000000
vt 0.000000 0.000000
vt 0.000000 0.000000
vt 0.000000 0.000000
vt 0.000000 0.000000
vt 0.000000 0.000000
vt 0.000000 0.000000
vt 0.000000 0.000000
vt 0.000000 0.000000
vt 0.000000 0.000000
vt 0.000000 0.000000
vt 0.000000 0.000000
vt 0.000000 0.000000
vt 0.000000 0.000000
vt 0.000000 0.000000
vt 0.000000 0.000000
vt 0.000000 0.000000
vt 0.000000 0.000000
vn -0.000000 -1.000000 -0.000010
vn 0.000000 -1.000000 -0.000016
vn 0.000000 1.000000 0.000009
vn -0.000000 1.000000 0.000006
vn 0.000000 1.000000 0.000007
vn 0.000000 -1.000000 -0.000008
vn 0.000000 -0.707109 0.707105
vn -0.000000 0.707104 0.707110
vn -0.000000 1.000000 0.000007
vn -0.000000 1.000000 0.000007
vn 0.000000 0.707104 0.707109
vn 0.000000 0.707105 0.707109
vn -0.000000 -0.707110 0.707104
vn -0.000000 -0.707110 0.707104
vn -0.000000 -1.000000 -0.000008
vn -0.000000 -1.000000 -0.000007
vn -0.000000 -1.000000 -0.000007
vn 0.000000 1.000000 0.000008
vn -0.000000 -1.000000 -0.000007
vn -0.000000 -1.000000 -0.000008
vn -0.000000 -1.000000 -0.000007
vn -0.000000 -1.000000 -0.000008
vn -0.000000 -1.000000 -0.000009
vn -0.000000 -1.000000 -0.000011
vn -0.000000 -1.000000 -0.000007
vn -0.000000 1.000000 0.000008
vn -0.000000 1.000000 0.000007
vn 0.000000 1.000000 0.000007
vn -0.000000 -1.000000 -0.000008
vn -0.000000 -1.000000 -0.000007
vn -0.000000 -1.000000 -0.000007
vn 0.000000 -0.707110 0.707104
vn 0.000000 1.000000 0.000007
vn -0.000000 -1.000000 -0.000011
vn 0.000000 1.000000 0.000007
vn 0.000000 1.000000 0.000006
vn 0.000000 0.707104 0.707110
vn 0.000000 1.000000 0.000007
vn -0.000000 -0.707110 0.707104
vn 0.000000 1.000000 0.000007
vn 0.000000 1.000000 0.000006
vn 0.000000 0.707104 0.707110
vn -0.000000 -0.707109 0.707104
vn 0.000000 1.000000 0.000007
vn -0.000000 -1.000000 -0.000010
vn -0.000000 -1.000000 -0.000008
vn -0.000000 -1.000000 -0.000007
vn 0.000000 1.000000 0.000006
vn 0.000000 1.000000 0.000007
vn 0.000000 1.000000 0.000007
vn 0.000000 1.000000 0.000006
vn 0.000000 1.000000 0.000008
vn 0.000000 1.000000 0.000007
vn 0.000000 1.000000 0.000008
vn 0.000002 1.000000 0.000008
vn 0.000000 0.707104 0.707110
g fff0a81b_00223_005bb1aa_e5
f 39/69/39 19/33/19 7/32/7
f 37/76/37 56/77/56 54/50/54
f 22/59/22 32/70/32 14/61/14
f 43/41/43 22/59/22 47/39/47
f 12/28/12 33/27/33 56/77/56
f 43/29/43 47/25/47 31/68/31
f 10/58/10 8/18/8 11/60/11
f 54/50/54 18/26/18 53/49/53
f 21/57/21 20/56/20 13/5/13
f 43/41/43 32/70/32 22/59/22
f 10/58/10 9/17/9 8/18/8
f 37/76/37 54/50/54 55/51/55
f 55/51/55 52/48/52 38/75/38
f 42/40/42 10/58/10 11/60/11
f 39/69/39 43/29/43 31/68/31
f 20/56/20 22/59/22 14/61/14
f 20/56/20 14/61/14 13/6/13
f 44/38/44 10/58/10 42/40/42
f 21/57/21 13/5/13 17/4/17
f 38/75/38 44/16/44 37/76/37
f 37/76/37 55/51/55 38/75/38
f 47/39/47 22/59/22 16/55/16
f 44/16/44 42/15/42 37/76/37
f 54/50/54 56/77/56 18/26/18
f 39/69/39 31/68/31 19/33/19
f 56/77/56 33/27/33 18/26/18
g fff0a81b_00223_005bb1aa_e6
f 2/30/2 24/31/24 34/63/34
f 1/52/1 29/67/29 30/2/30
f 28/24/28 51/45/51 50/44/50
f 40/37/40 4/53/4 27/66/27
f 47/39/47 25/65/25 46/46/46
f 26/13/26 9/17/9 27/66/27
f 16/55/16 25/65/25 47/39/47
f 19/33/19 23/64/23 24/31/24
f 1/52/1 30/2/30 6/3/6
f 46/46/46 15/54/15 45/47/45
f 28/24/28 5/23/5 51/45/51
f 29/67/29 17/4/17 30/2/30
f 18/26/18 50/44/50 53/49/53
f 18/26/18 28/24/28 50/44/50
f 49/43/49 48/42/48 36/74/36
f 52/48/52 49/43/49 35/73/35
f 26/13/26 27/66/27 4/53/4
f 44/38/44 27/66/27 10/58/10
f 9/17/9 10/58/10 27/66/27
f 41/12/41 40/11/40 35/73/35
f 40/37/40 27/66/27 44/38/44
f 29/67/29 21/57/21 17/4/17
f 40/11/40 44/16/44 38/75/38
f 25/65/25 15/54/15 46/46/46
f 31/68/31 46/22/46 23/64/23
f 31/68/31 23/64/23 19/33/19
f 23/64/23 45/21/45 34/63/34
f 24/31/24 23/64/23 34/63/34
f 35/73/35 49/43/49 36/74/36
f 36/74/36 41/12/41 35/73/35
f 38/75/38 52/48/52 35/73/35
f 35/73/35 40/11/40 38/75/38
f 3/14/3 26/13/26 4/53/4
f 23/64/23 46/22/46 45/21/45
f 41/36/41 4/53/4 40/37/40
f 31/68/31 47/25/47 46/22/46
g fff0a81b_00223_005bb1aa_e19
f 11/1/11 43/35/43 42/34/42
f 14/1/14 11/1/11 13/9/13
f 11/1/11 14/1/14 32/62/32
f 13/9/13 11/1/11 8/10/8
f 11/1/11 32/62/32 43/35/43
f 7/20/7 37/71/37 39/72/39
f 42/8/42 39/72/39 37/71/37
f 12/19/12 56/78/56 7/20/7
f 43/7/43 39/72/39 42/8/42
f 56/78/56 37/71/37 7/20/7
