# fff0a81b_00460_00a2ef66
o fff0a81b_00460_00a2ef66
v -0.780228 6.212534 -0.113642
v 0.141147 6.212534 -0.113642
v -0.780228 6.829878 -0.113642
v 0.141147 6.829878 -0.113642
v -0.780228 6.212534 -0.042511
v 0.141147 6.212534 -0.042511
v -0.780228 6.829878 -0.042511
v 0.141147 6.829878 -0.042511
v -0.792298 6.195119 0.028242
v 0.153218 6.195119 0.028242
v -0.792298 6.847296 0.028242
v 0.153218 6.847296 0.028242
v -0.780228 6.212534 0.051314
v 0.141147 6.212534 0.051314
v -0.780228 6.829878 0.051314
v 0.141147 6.829878 0.051314
v -0.752518 6.233785 0.028242
v 0.113438 6.233785 0.028242
v -0.752518 6.808627 0.028242
v 0.113438 6.808627 0.028242
v -0.773115 6.283711 -0.046494
v -0.773115 6.762802 -0.046494
v -0.773115 6.283711 0.033943
v -0.773115 6.762802 0.033943
v -0.774860 6.217569 -0.048839
v -0.774860 6.285542 -0.048839
v -0.774860 6.217569 0.032079
v -0.774860 6.285542 0.032079
v -0.718307 6.217569 -0.048839
v -0.718307 6.217569 0.032079
v -0.774860 6.826051 -0.048839
v -0.774860 6.758079 -0.048839
v -0.774860 6.826051 0.032079
v -0.774860 6.758079 0.032079
v -0.718307 6.826051 -0.048839
v -0.718307 6.826051 0.032079
v 0.076977 6.217562 -0.046494
v -0.718307 6.217562 -0.046494
v 0.076977 6.217562 0.033943
v -0.718307 6.217562 0.033943
v 0.133529 6.217569 -0.048839
v 0.133529 6.285542 -0.048839
v 0.133529 6.217569 0.032079
v 0.133529 6.285542 0.032079
v 0.076976 6.217569 -0.048839
v 0.076976 6.217569 0.032079
v 0.133529 6.826051 -0.048839
v 0.133529 6.758079 -0.048839
v 0.133529 6.826051 0.032079
v 0.133529 6.758079 0.032079
v 0.076976 6.826051 -0.048839
v 0.076976 6.826051 0.032079
v 0.076977 6.826058 -0.046494
v -0.718307 6.826058 -0.046494
v 0.076977 6.826058 0.033943
v -0.718307 6.826058 0.033943
v -0.773115 6.283711 -0.046494
v -0.773115 6.762802 -0.046494
v -0.773115 6.283711 0.033943
v -0.773115 6.762802 0.033943
v 0.133529 6.283718 -0.046494
v 0.133529 6.762795 -0.046494
v 0.133529 6.283718 0.033943
v 0.133529 6.762795 0.033943
v -0.774860 6.222309 -0.048839
v -0.774860 6.222309 0.032079
v -0.718307 6.222309 -0.048839
v -0.718307 6.222309 0.032079
v -0.774860 6.821311 -0.048839
v -0.774860 6.821311 0.032079
v -0.718307 6.821311 -0.048839
v -0.718307 6.821311 0.032079
v 0.133529 6.221333 -0.048839
v 0.133529 6.285549 -0.048839
v 0.133529 6.221333 0.032079
v 0.133529 6.285549 0.032079
v 0.076976 6.221333 -0.048839
v 0.076976 6.221333 0.032079
v 0.133529 6.822288 -0.048839
v 0.133529 6.758071 -0.048839
v 0.133529 6.822288 0.032079
v 0.133529 6.758071 0.032079
v 0.076976 6.822288 -0.048839
v 0.076976 6.822288 0.032079
v -0.723315 6.269690 -0.042511
v 0.084235 6.269690 -0.042511
v -0.723315 6.772721 -0.042511
v 0.084235 6.772721 -0.042511
v -0.795624 5.416466 -0.113642
v 0.110992 5.251945 -0.113642
v -0.685394 6.023888 -0.113642
v 0.221222 5.859367 -0.113642
v -0.795624 5.416466 -0.042511
v 0.110992 5.251945 -0.042511
v -0.685394 6.023888 -0.042511
v 0.221222 5.859367 -0.042511
v -0.810577 5.401482 0.028242
v 0.119781 5.232628 0.028242
v -0.694183 6.043175 0.028242
v 0.236175 5.874321 0.028242
v -0.795624 5.416466 0.051314
v 0.110992 5.251945 0.051314
v -0.685394 6.023888 0.051314
v 0.221222 5.859367 0.051314
v -0.764557 5.432426 0.028242
v 0.087494 5.277794 0.028242
v -0.661896 5.998009 0.028242
v 0.190155 5.843376 0.028242
v -0.775848 5.485222 -0.046495
v -0.690338 5.956627 -0.046495
v -0.775848 5.485222 0.033943
v -0.690338 5.956627 0.033943
v -0.789398 5.420464 -0.048839
v -0.777313 5.487328 -0.048839
v -0.789398 5.420464 0.032078
v -0.777313 5.487328 0.032078
v -0.733734 5.410362 -0.048839
v -0.733734 5.410362 0.032078
v -0.680756 6.019157 -0.048839
v -0.692902 5.952263 -0.048839
v -0.680756 6.019157 0.032078
v -0.692902 5.952263 0.032078
v -0.625092 6.009056 -0.048839
v -0.625092 6.009056 0.032078
v 0.048737 5.268333 -0.046495
v -0.733734 5.410332 -0.046495
v 0.048737 5.268333 0.033943
v -0.733734 5.410332 0.033943
v 0.104340 5.258263 -0.048839
v 0.116486 5.325127 -0.048839
v 0.104340 5.258263 0.032078
v 0.116486 5.325127 0.032078
v 0.048737 5.268364 -0.048839
v 0.048737 5.268364 0.032078
v 0.213043 5.856956 -0.048839
v 0.200897 5.790062 -0.048839
v 0.213043 5.856956 0.032078
v 0.200897 5.790062 0.032078
v 0.157379 5.867027 -0.048839
v 0.157379 5.867027 0.032078
v 0.157440 5.867058 -0.046495
v -0.625092 6.009087 -0.046495
v 0.157440 5.867058 0.033943
v -0.625092 6.009087 0.033943
v -0.775848 5.485222 -0.046495
v -0.690338 5.956627 -0.046495
v -0.775848 5.485222 0.033943
v -0.690338 5.956627 0.033943
v 0.116180 5.323326 -0.046495
v 0.201752 5.794731 -0.046495
v 0.116180 5.323326 0.033943
v 0.201752 5.794731 0.033943
v -0.788605 5.425133 -0.048839
v -0.788605 5.425133 0.032078
v -0.732880 5.415031 -0.048839
v -0.732880 5.415031 0.032078
v -0.681610 6.014488 -0.048839
v -0.681610 6.014488 0.032078
v -0.625946 6.004387 -0.048839
v -0.625946 6.004387 0.032078
v 0.105011 5.261955 -0.048839
v 0.116486 5.325127 -0.048839
v 0.105011 5.261955 0.032078
v 0.116486 5.325127 0.032078
v 0.049408 5.272057 -0.048839
v 0.049408 5.272057 0.032078
v 0.212372 5.853233 -0.048839
v 0.200897 5.790062 -0.048839
v 0.212372 5.853233 0.032078
v 0.200897 5.790062 0.032078
v 0.156708 5.863335 -0.048839
v 0.156708 5.863335 0.032078
v -0.729401 5.462517 -0.042511
v 0.065216 5.318321 -0.042511
v -0.639557 5.957481 -0.042511
v 0.155060 5.813286 -0.042511
v -0.815994 -3.484395 -0.113642
v 0.105381 -3.484395 -0.113642
v -0.815994 -2.867051 -0.113642
v 0.105381 -2.867051 -0.113642
v -0.815994 -3.484395 -0.042511
v 0.105381 -3.484395 -0.042511
v -0.815994 -2.867051 -0.042511
v 0.105381 -2.867051 -0.042511
v -0.828065 -3.501809 0.028242
v 0.117451 -3.501809 0.028242
v -0.828065 -2.849632 0.028242
v 0.117451 -2.849632 0.028242
v -0.815994 -3.484395 0.051314
v 0.105381 -3.484395 0.051314
v -0.815994 -2.867051 0.051314
v 0.105381 -2.867051 0.051314
v -0.788285 -3.463143 0.028242
v 0.077671 -3.463143 0.028242
v -0.788285 -2.888302 0.028242
v 0.077671 -2.888302 0.028242
v -0.808882 -3.413218 -0.046494
v -0.808882 -2.934127 -0.046494
v -0.808882 -3.413218 0.033943
v -0.808882 -2.934127 0.033943
v -0.810627 -3.479360 -0.048839
v -0.810627 -3.411387 -0.048839
v -0.810627 -3.479360 0.032079
v -0.810627 -3.411387 0.032079
v -0.754074 -3.479360 -0.048839
v -0.754074 -3.479360 0.032079
v -0.810627 -2.870878 -0.048839
v -0.810627 -2.938850 -0.048839
v -0.810627 -2.870878 0.032079
v -0.810627 -2.938850 0.032079
v -0.754074 -2.870878 -0.048839
v -0.754074 -2.870878 0.032079
v 0.041210 -3.479366 -0.046494
v -0.754074 -3.479366 -0.046494
v 0.041210 -3.479366 0.033943
v -0.754074 -3.479366 0.033943
v 0.097763 -3.479360 -0.048839
v 0.097763 -3.411387 -0.048839
v 0.097763 -3.479360 0.032079
v 0.097763 -3.411387 0.032079
v 0.041210 -3.479360 -0.048839
v 0.041210 -3.479360 0.032079
v 0.097763 -2.870878 -0.048839
v 0.097763 -2.938850 -0.048839
v 0.097763 -2.870878 0.032079
v 0.097763 -2.938850 0.032079
v 0.041210 -2.870878 -0.048839
v 0.041210 -2.870878 0.032079
v 0.041210 -2.870871 -0.046494
v -0.754074 -2.870871 -0.046494
v 0.041210 -2.870871 0.033943
v -0.754074 -2.870871 0.033943
v -0.808882 -3.413218 -0.046494
v -0.808882 -2.934127 -0.046494
v -0.808882 -3.413218 0.033943
v -0.808882 -2.934127 0.033943
v 0.097763 -3.413211 -0.046494
v 0.097763 -2.934134 -0.046494
v 0.097763 -3.413211 0.033943
v 0.097763 -2.934134 0.033943
v -0.810627 -3.474620 -0.048839
v -0.810627 -3.474620 0.032079
v -0.754074 -3.474620 -0.048839
v -0.754074 -3.474620 0.032079
v -0.810627 -2.875618 -0.048839
v -0.810627 -2.875618 0.032079
v -0.754074 -2.875618 -0.048839
v -0.754074 -2.875618 0.032079
v 0.097763 -3.475596 -0.048839
v 0.097763 -3.411380 -0.048839
v 0.097763 -3.475596 0.032079
v 0.097763 -3.411380 0.032079
v 0.041210 -3.475596 -0.048839
v 0.041210 -3.475596 0.032079
v 0.097763 -2.874641 -0.048839
v 0.097763 -2.938858 -0.048839
v 0.097763 -2.874641 0.032079
v 0.097763 -2.938858 0.032079
v 0.041210 -2.874641 -0.048839
v 0.041210 -2.874641 0.032079
v -0.759082 -3.427238 -0.042511
v 0.048468 -3.427238 -0.042511
v -0.759082 -2.924208 -0.042511
v 0.048468 -2.924208 -0.042511
v 1.358612 -4.499457 -0.051314
v 1.385834 -3.639197 -0.051314
v 0.775970 -4.480628 -0.051314
v 0.803253 -3.620368 -0.051314
v 1.358612 -4.499457 0.019817
v 1.385834 -3.639197 0.019817
v 0.775970 -4.480628 0.019817
v 0.803253 -3.620368 0.019817
v 1.374664 -4.511268 0.090570
v 1.402618 -3.628455 0.090570
v 0.759186 -4.491401 0.090570
v 0.787140 -3.608558 0.090570
v 1.358612 -4.499457 0.113642
v 1.385834 -3.639197 0.113642
v 0.775970 -4.480628 0.113642
v 0.803253 -3.620368 0.113642
v 1.339386 -4.472877 0.090570
v 1.364959 -3.664374 0.090570
v 0.796905 -4.455420 0.090570
v 0.822479 -3.646888 0.090570
v 1.291656 -4.490607 0.015834
v 0.839447 -4.475989 0.015834
v 1.291656 -4.490607 0.096271
v 0.839447 -4.475989 0.096271
v 1.354034 -4.494239 0.013489
v 1.289886 -4.492164 0.013489
v 1.354034 -4.494239 0.094407
v 1.289886 -4.492164 0.094407
v 1.355682 -4.441413 0.013489
v 1.355682 -4.441413 0.094407
v 0.779755 -4.475715 0.013489
v 0.843902 -4.477790 0.013489
v 0.779755 -4.475715 0.094407
v 0.843902 -4.477790 0.094407
v 0.781402 -4.422889 0.013489
v 0.781402 -4.422889 0.094407
v 1.379242 -3.698920 0.015834
v 1.355682 -4.441413 0.015834
v 1.379242 -3.698920 0.096271
v 1.355682 -4.441413 0.096271
v 1.380890 -3.646155 0.013489
v 1.316742 -3.644080 0.013489
v 1.380890 -3.646155 0.094407
v 1.316742 -3.644080 0.094407
v 1.379181 -3.698920 0.013489
v 1.379181 -3.698920 0.094407
v 0.806610 -3.627601 0.013489
v 0.870758 -3.629676 0.013489
v 0.806610 -3.627601 0.094407
v 0.870758 -3.629676 0.094407
v 0.804962 -3.680366 0.013489
v 0.804962 -3.680366 0.094407
v 0.804962 -3.680366 0.015834
v 0.781402 -4.422889 0.015834
v 0.804962 -3.680366 0.096271
v 0.781402 -4.422889 0.096271
v 1.291656 -4.490607 0.015834
v 0.839447 -4.475989 0.015834
v 1.291656 -4.490607 0.096271
v 0.839447 -4.475989 0.096271
v 1.318451 -3.644141 0.015834
v 0.866302 -3.629523 0.015834
v 1.318451 -3.644141 0.096271
v 0.866302 -3.629523 0.096271
v 1.349518 -4.494117 0.013489
v 1.349518 -4.494117 0.094407
v 1.351227 -4.441291 0.013489
v 1.351227 -4.441291 0.094407
v 0.784271 -4.475867 0.013489
v 0.784271 -4.475867 0.094407
v 0.785858 -4.423041 0.013489
v 0.785858 -4.423041 0.094407
v 1.377289 -3.646033 0.013489
v 1.316742 -3.644080 0.013489
v 1.377289 -3.646033 0.094407
v 1.316742 -3.644080 0.094407
v 1.375702 -3.698829 0.013489
v 1.375702 -3.698829 0.094407
v 0.810211 -3.627723 0.013489
v 0.870758 -3.629676 0.013489
v 0.810211 -3.627723 0.094407
v 0.870758 -3.629676 0.094407
v 0.808502 -3.680488 0.013489
v 0.808502 -3.680488 0.094407
v 1.306366 -4.444526 0.019817
v 1.330169 -3.690528 0.019817
v 0.831634 -4.429175 0.019817
v 0.855499 -3.675239 0.019817
v -1.381744 -6.174902 -0.113642
v -0.730255 -6.826422 -0.113642
v -0.945221 -5.738379 -0.113642
v -0.293732 -6.389898 -0.113642
v -1.381744 -6.174902 -0.042511
v -0.730255 -6.826422 -0.042511
v -0.945221 -5.738379 -0.042511
v -0.293732 -6.389898 -0.042511
v -1.402618 -6.178686 0.028242
v -0.734039 -6.847296 0.028242
v -0.941437 -5.717505 0.028242
v -0.272858 -6.386114 0.028242
v -1.381744 -6.174902 0.051314
v -0.730255 -6.826422 0.051314
v -0.945221 -5.738379 0.051314
v -0.293732 -6.389898 0.051314
v -1.347137 -6.179480 0.028242
v -0.734833 -6.791815 0.028242
v -0.940704 -5.773016 0.028242
v -0.328339 -6.385351 0.028242
v -1.326385 -6.129614 -0.046495
v -0.987640 -5.790869 -0.046495
v -1.326385 -6.129614 0.033943
v -0.987640 -5.790869 0.033943
v -1.374420 -6.175146 -0.048839
v -1.326324 -6.127081 -0.048839
v -1.374420 -6.175146 0.032078
v -1.326324 -6.127081 0.032078
v -1.334381 -6.215155 -0.048839
v -1.334381 -6.215155 0.032078
v -0.944183 -5.744879 -0.048839
v -0.992218 -5.792944 -0.048839
v -0.944183 -5.744879 0.032078
v -0.992218 -5.792944 0.032078
v -0.904144 -5.784887 -0.048839
v -0.904144 -5.784887 0.032078
v -0.772064 -6.777533 -0.046495
v -1.334442 -6.215155 -0.046495
v -0.772064 -6.777533 0.033943
v -1.334442 -6.215155 0.033943
v -0.732086 -6.817450 -0.048839
v -0.684052 -6.769415 -0.048839
v -0.732086 -6.817450 0.032078
v -0.684052 -6.769415 0.032078
v -0.772064 -6.777502 -0.048839
v -0.772064 -6.777502 0.032078
v -0.301849 -6.387213 -0.048839
v -0.349884 -6.435278 -0.048839
v -0.301849 -6.387213 0.032078
v -0.349884 -6.435278 0.032078
v -0.341827 -6.347265 -0.048839
v -0.341827 -6.347265 0.032078
v -0.341766 -6.347235 -0.046495
v -0.904144 -5.784887 -0.046495
v -0.341766 -6.347235 0.033943
v -0.904144 -5.784887 0.033943
v -1.326385 -6.129614 -0.046495
v -0.987640 -5.790869 -0.046495
v -1.326385 -6.129614 0.033943
v -0.987640 -5.790869 0.033943
v -0.685333 -6.770697 -0.046495
v -0.346527 -6.431921 -0.046495
v -0.685333 -6.770697 0.033943
v -0.346527 -6.431921 0.033943
v -1.371063 -6.171789 -0.048839
v -1.371063 -6.171789 0.032078
v -1.331024 -6.211798 -0.048839
v -1.331024 -6.211798 0.032078
v -0.947479 -5.748236 -0.048839
v -0.947479 -5.748236 0.032078
v -0.907501 -5.788244 -0.048839
v -0.907501 -5.788244 0.032078
v -0.729401 -6.814795 -0.048839
v -0.684052 -6.769415 -0.048839
v -0.729401 -6.814795 0.032078
v -0.684052 -6.769415 0.032078
v -0.769379 -6.774847 -0.048839
v -0.769379 -6.774847 0.032078
v -0.304474 -6.389868 -0.048839
v -0.349884 -6.435278 -0.048839
v -0.304474 -6.389868 0.032078
v -0.349884 -6.435278 0.032078
v -0.344452 -6.349920 -0.048839
v -0.344452 -6.349920 0.032078
v -1.301056 -6.174749 -0.042511
v -0.730072 -6.745764 -0.042511
v -0.945404 -5.819067 -0.042511
v -0.374359 -6.390081 -0.042511
vt 11.407961 -1.892996
vt 12.311678 -1.892996
vt 11.407961 -0.755415
vt 12.311678 -0.755416
vt -0.421806 -1.664054
vt 0.578194 -1.664054
vt -0.421806 -0.664054
vt 0.578194 -0.664054
vt 0.421806 10.477212
vt 1.421806 10.477212
vt 0.421806 11.477212
vt 1.421806 11.477212
vt 0.000000 10.690031
vt -4.829971 1.000000
vt 4.862801 0.000000
vt -3.829978 1.000000
vt -140.827362 -2.729154
vt -130.771301 -2.729152
vt -130.771301 -1.040739
vt -140.827347 -1.040633
vt -1.606380 -1.664055
vt -1.606380 -0.526474
vt -13.154267 -2.729121
vt 3.664037 -2.729117
vt 3.664037 -1.040705
vt -13.154270 -1.040709
vt -8.456535 0.000000
vt 7.568215 0.000000
vt -8.456535 1.000000
vt -7.456531 1.000000
vt -4.757347 7.270791
vt 4.214273 7.270791
vt 4.214273 7.893701
vt -4.757346 7.893702
vn -0.577350 -0.577350 -0.577350
vn 0.577350 -0.577350 -0.577350
vn -0.577350 0.577350 -0.577350
vn 0.577350 0.577350 -0.577350
vn -0.577350 -0.577350 0.577350
vn 0.577350 -0.577350 0.577350
vn -0.577350 0.577350 0.577350
vn 0.577350 0.577350 0.577350
vn -0.503002 -0.542635 0.672708
vn 0.503001 -0.542634 0.672710
vn -0.502957 0.542614 0.672759
vn 0.502957 0.542613 0.672760
vn -0.321463 -0.243394 0.915107
vn 0.321461 -0.243394 0.915108
vn -0.321472 0.243345 0.915117
vn 0.321470 0.243345 0.915118
vn 0.350884 0.439962 0.826628
vn -0.350885 0.439962 0.826628
vn 0.350884 -0.439962 0.826628
vn -0.350885 -0.439962 0.826628
vn -1.000000 0.000000 0.000000
vn -1.000000 0.000000 0.000000
vn -1.000000 0.000000 0.000000
vn -1.000000 0.000000 0.000000
vn -0.707107 -0.707107 0.000000
vn -1.000000 0.000000 0.000000
vn -0.707107 -0.707107 0.000000
vn -1.000000 0.000000 0.000000
vn 0.000000 -1.000000 0.000000
vn 0.000000 -1.000000 0.000000
vn -0.707107 0.707107 0.000000
vn -1.000000 0.000000 0.000000
vn -0.707107 0.707107 0.000000
vn -1.000000 0.000000 0.000000
vn 0.000000 1.000000 0.000000
vn 0.000000 1.000000 0.000000
vn 0.000000 -1.000000 0.000000
vn 0.000000 -1.000000 0.000000
vn 0.000000 -1.000000 0.000000
vn 0.000000 -1.000000 0.000000
vn 0.707107 -0.707107 0.000000
vn 1.000000 0.000000 0.000000
vn 0.707107 -0.707107 0.000000
vn 1.000000 0.000000 0.000000
vn 0.000000 -1.000000 0.000000
vn 0.000000 -1.000000 0.000000
vn 0.707107 0.707107 0.000000
vn 1.000000 0.000000 0.000000
vn 0.707107 0.707107 0.000000
vn 1.000000 0.000000 0.000000
vn 0.000000 1.000000 0.000000
vn 0.000000 1.000000 0.000000
vn 0.000000 1.000000 0.000000
vn 0.000000 1.000000 0.000000
vn 0.000000 1.000000 0.000000
vn 0.000000 1.000000 0.000000
vn -1.000000 0.000000 0.000000
vn -1.000000 0.000000 0.000000
vn -1.000000 0.000000 0.000000
vn -1.000000 0.000000 0.000000
vn -1.000000 0.000000 0.000000
vn -1.000000 0.000000 0.000000
vn -1.000000 0.000000 0.000000
vn -1.000000 0.000000 0.000000
vn 0.000000 1.000000 0.000000
vn 0.000000 1.000000 0.000000
vn 0.000000 1.000000 0.000000
vn 0.000000 1.000000 0.000000
vn 0.000000 -1.000000 0.000000
vn 0.000000 -1.000000 0.000000
vn 0.000000 -1.000000 0.000000
vn 0.000000 -1.000000 0.000000
vn -0.707106 0.707107 0.000000
vn -1.000000 0.000001 0.000000
vn -0.707106 0.707107 0.000000
vn -1.000000 0.000001 0.000000
vn 0.000000 1.000000 0.000000
vn 0.000000 1.000000 0.000000
vn -0.707106 -0.707107 0.000000
vn -1.000000 -0.000001 0.000000
vn -0.707106 -0.707107 0.000000
vn -1.000000 -0.000001 0.000000
vn 0.000000 -1.000000 0.000000
vn 0.000000 -1.000000 0.000000
vn 0.000000 0.000000 1.000000
vn 0.000000 0.000000 1.000000
vn 0.000000 0.000000 1.000000
vn 0.000000 0.000000 1.000000
vn -0.671160 -0.464985 -0.577350
vn 0.464985 -0.671160 -0.577350
vn -0.464985 0.671160 -0.577350
vn 0.671160 0.464985 -0.577350
vn -0.671160 -0.464985 0.577350
vn 0.464985 -0.671160 0.577350
vn -0.464985 0.671160 0.577351
vn 0.671160 0.464985 0.577350
vn -0.591956 -0.444472 0.672334
vn 0.397771 -0.623249 0.673305
vn -0.398086 0.623543 0.672846
vn 0.592301 0.444518 0.671999
vn -0.360237 -0.181998 0.914935
vn 0.272490 -0.296631 0.915292
vn -0.272513 0.297050 0.915149
vn 0.360222 0.182410 0.914859
vn 0.423710 0.370253 0.826669
vn -0.266330 0.495729 0.826632
vn 0.266383 -0.495307 0.826868
vn -0.423723 -0.369803 0.826864
vn -0.983943 0.178482 0.000000
vn -0.983943 0.178482 0.000000
vn -0.983943 0.178482 0.000000
vn -0.983943 0.178482 0.000000
vn -0.821799 -0.569778 0.000000
vn -0.984056 0.177858 0.000000
vn -0.821799 -0.569778 0.000000
vn -0.984056 0.177858 0.000000
vn -0.178553 -0.983930 0.000000
vn -0.178553 -0.983930 0.000000
vn -0.569448 0.822028 0.000000
vn -0.983913 0.178648 0.000000
vn -0.569448 0.822028 0.000000
vn -0.983913 0.178648 0.000000
vn 0.178553 0.983930 0.000000
vn 0.178553 0.983930 0.000000
vn -0.178558 -0.983930 0.000000
vn -0.178558 -0.983930 0.000000
vn -0.178558 -0.983930 0.000000
vn -0.178558 -0.983930 0.000000
vn 0.569336 -0.822105 0.000000
vn 0.983899 -0.178727 0.000000
vn 0.569336 -0.822105 0.000000
vn 0.983899 -0.178727 0.000000
vn -0.178743 -0.983896 0.000000
vn -0.178743 -0.983896 0.000000
vn 0.821876 0.569666 0.000000
vn 0.983913 -0.178648 0.000000
vn 0.821876 0.569666 0.000000
vn 0.983913 -0.178648 0.000000
vn 0.178031 0.984025 0.000000
vn 0.178031 0.984025 0.000000
vn 0.178582 0.983925 0.000000
vn 0.178582 0.983925 0.000000
vn 0.178582 0.983925 0.000000
vn 0.178582 0.983925 0.000000
vn -0.983943 0.178482 0.000000
vn -0.983943 0.178482 0.000000
vn -0.983943 0.178482 0.000000
vn -0.983943 0.178482 0.000000
vn -0.983921 0.178605 0.000000
vn -0.983921 0.178605 0.000000
vn -0.983921 0.178605 0.000000
vn -0.983921 0.178605 0.000000
vn 0.178364 0.983965 0.000000
vn 0.178364 0.983965 0.000000
vn 0.178364 0.983965 0.000000
vn 0.178364 0.983965 0.000000
vn -0.178553 -0.983930 0.000000
vn -0.178553 -0.983930 0.000000
vn -0.178553 -0.983930 0.000000
vn -0.178553 -0.983930 0.000000
vn -0.569339 0.822103 0.000000
vn -0.983900 0.178718 0.000000
vn -0.569339 0.822103 0.000000
vn -0.983900 0.178718 0.000000
vn 0.178743 0.983896 0.000000
vn 0.178743 0.983896 0.000000
vn -0.822048 -0.569419 0.000000
vn -0.983900 0.178718 0.000000
vn -0.822048 -0.569419 0.000000
vn -0.983900 0.178718 0.000000
vn -0.178553 -0.983930 0.000000
vn -0.178553 -0.983930 0.000000
vn 0.000000 0.000000 1.000000
vn 0.000000 0.000000 1.000000
vn 0.000000 0.000000 1.000000
vn 0.000000 0.000000 1.000000
vn -0.577350 -0.577350 -0.577350
vn 0.577350 -0.577350 -0.577350
vn -0.577350 0.577350 -0.577350
vn 0.577350 0.577350 -0.577350
vn -0.577350 -0.577350 0.577350
vn 0.577350 -0.577350 0.577350
vn -0.577350 0.577350 0.577350
vn 0.577350 0.577350 0.577350
vn -0.503007 -0.542638 0.672702
vn 0.503007 -0.542637 0.672703
vn -0.502952 0.542611 0.672765
vn 0.502951 0.542610 0.672766
vn -0.321463 -0.243400 0.915105
vn 0.321462 -0.243400 0.915106
vn -0.321472 0.243338 0.915119
vn 0.321470 0.243339 0.915119
vn 0.350884 0.439956 0.826631
vn -0.350885 0.439955 0.826631
vn 0.350883 -0.439969 0.826625
vn -0.350884 -0.439969 0.826624
vn -1.000000 0.000000 0.000000
vn -1.000000 0.000000 0.000000
vn -1.000000 0.000000 0.000000
vn -1.000000 0.000000 0.000000
vn -0.707107 -0.707107 0.000000
vn -1.000000 0.000000 0.000000
vn -0.707107 -0.707107 0.000000
vn -1.000000 0.000000 0.000000
vn 0.000000 -1.000000 0.000000
vn 0.000000 -1.000000 0.000000
vn -0.707107 0.707107 0.000000
vn -1.000000 0.000000 0.000000
vn -0.707107 0.707107 0.000000
vn -1.000000 0.000000 0.000000
vn 0.000000 1.000000 0.000000
vn 0.000000 1.000000 0.000000
vn 0.000000 -1.000000 0.000000
vn 0.000000 -1.000000 0.000000
vn 0.000000 -1.000000 0.000000
vn 0.000000 -1.000000 0.000000
vn 0.707107 -0.707107 0.000000
vn 1.000000 0.000000 0.000000
vn 0.707107 -0.707107 0.000000
vn 1.000000 0.000000 0.000000
vn 0.000000 -1.000000 0.000000
vn 0.000000 -1.000000 0.000000
vn 0.707107 0.707107 0.000000
vn 1.000000 0.000000 0.000000
vn 0.707107 0.707107 0.000000
vn 1.000000 0.000000 0.000000
vn 0.000000 1.000000 0.000000
vn 0.000000 1.000000 0.000000
vn 0.000000 1.000000 0.000000
vn 0.000000 1.000000 0.000000
vn 0.000000 1.000000 0.000000
vn 0.000000 1.000000 0.000000
vn -1.000000 0.000000 0.000000
vn -1.000000 0.000000 0.000000
vn -1.000000 0.000000 0.000000
vn -1.000000 0.000000 0.000000
vn -1.000000 0.000000 0.000000
vn -1.000000 0.000000 0.000000
vn -1.000000 0.000000 0.000000
vn -1.000000 0.000000 0.000000
vn 0.000000 1.000000 0.000000
vn 0.000000 1.000000 0.000000
vn 0.000000 1.000000 0.000000
vn 0.000000 1.000000 0.000000
vn 0.000000 -1.000000 0.000000
vn 0.000000 -1.000000 0.000000
vn 0.000000 -1.000000 0.000000
vn 0.000000 -1.000000 0.000000
vn -0.707106 0.707107 0.000000
vn -1.000000 0.000001 0.000000
vn -0.707106 0.707107 0.000000
vn -1.000000 0.000001 0.000000
vn 0.000000 1.000000 0.000000
vn 0.000000 1.000000 0.000000
vn -0.707106 -0.707107 0.000000
vn -1.000000 -0.000001 0.000000
vn -0.707106 -0.707107 0.000000
vn -1.000000 -0.000001 0.000000
vn 0.000000 -1.000000 0.000000
vn 0.000000 -1.000000 0.000000
vn 0.000000 0.000000 1.000000
vn 0.000000 0.000000 1.000000
vn 0.000000 0.000000 1.000000
vn 0.000000 0.000000 1.000000
vn 0.558618 -0.595528 -0.577315
vn 0.595492 0.558583 -0.577386
vn -0.595513 -0.558564 -0.577382
vn -0.558594 0.595547 -0.577318
vn 0.558618 -0.595528 0.577315
vn 0.595492 0.558583 0.577386
vn -0.595513 -0.558564 0.577382
vn -0.558594 0.595547 0.577319
vn 0.540645 -0.534398 0.649709
vn 0.573829 0.498688 0.649639
vn -0.573473 -0.498638 0.649991
vn -0.540339 0.533707 0.650531
vn 0.238447 -0.334536 0.911717
vn 0.258725 0.318625 0.911888
vn -0.258944 -0.318327 0.911930
vn -0.237404 0.334652 0.911947
vn -0.442922 0.383212 0.810536
vn -0.466364 -0.355603 0.809970
vn 0.465517 0.355323 0.810580
vn 0.442833 -0.383904 0.810257
vn -0.032309 -0.999478 0.000000
vn -0.032309 -0.999478 0.000000
vn -0.032309 -0.999478 0.000000
vn -0.032309 -0.999478 0.000000
vn 0.684295 -0.729206 0.000000
vn -0.032333 -0.999477 0.000000
vn 0.684295 -0.729206 0.000000
vn -0.032333 -0.999477 0.000000
vn 0.999514 -0.031181 0.000000
vn 0.999514 -0.031181 0.000000
vn -0.729206 -0.684295 0.000000
vn -0.032333 -0.999477 0.000000
vn -0.729206 -0.684295 0.000000
vn -0.032333 -0.999477 0.000000
vn -0.999514 0.031181 0.000000
vn -0.999514 0.031181 0.000000
vn 0.999497 -0.031714 0.000000
vn 0.999497 -0.031714 0.000000
vn 0.999497 -0.031714 0.000000
vn 0.999497 -0.031714 0.000000
vn 0.729613 0.683860 0.000000
vn 0.032333 0.999477 0.000000
vn 0.729613 0.683860 0.000000
vn 0.032333 0.999477 0.000000
vn 0.999476 -0.032372 0.000000
vn 0.999476 -0.032372 0.000000
vn -0.684281 0.729218 0.000000
vn 0.032333 0.999477 0.000000
vn -0.684281 0.729218 0.000000
vn 0.032333 0.999477 0.000000
vn -0.999513 0.031217 0.000000
vn -0.999513 0.031217 0.000000
vn -0.999497 0.031713 0.000000
vn -0.999497 0.031713 0.000000
vn -0.999497 0.031713 0.000000
vn -0.999497 0.031713 0.000000
vn -0.032309 -0.999478 0.000000
vn -0.032309 -0.999478 0.000000
vn -0.032309 -0.999478 0.000000
vn -0.032309 -0.999478 0.000000
vn -0.032313 -0.999478 0.000000
vn -0.032313 -0.999478 0.000000
vn -0.032313 -0.999478 0.000000
vn -0.032313 -0.999478 0.000000
vn -0.999477 0.032334 0.000000
vn -0.999477 0.032334 0.000000
vn -0.999477 0.032334 0.000000
vn -0.999477 0.032334 0.000000
vn 0.999549 -0.030027 0.000000
vn 0.999549 -0.030027 0.000000
vn 0.999549 -0.030027 0.000000
vn 0.999549 -0.030027 0.000000
vn -0.728785 -0.684743 0.000000
vn -0.032241 -0.999480 0.000000
vn -0.728785 -0.684743 0.000000
vn -0.032241 -0.999480 0.000000
vn -0.999549 0.030044 0.000000
vn -0.999549 0.030044 0.000000
vn 0.683894 -0.729582 0.000000
vn -0.032241 -0.999480 0.000000
vn 0.683894 -0.729582 0.000000
vn -0.032241 -0.999480 0.000000
vn 0.999476 -0.032372 0.000000
vn 0.999476 -0.032372 0.000000
vn 0.000000 0.000000 1.000000
vn 0.000000 0.000000 1.000000
vn 0.000000 0.000000 1.000000
vn 0.000000 0.000000 1.000000
vn -0.816496 0.000010 -0.577352
vn -0.000010 -0.816497 -0.577349
vn 0.000010 0.816497 -0.577349
vn 0.816496 -0.000010 -0.577351
vn -0.816496 0.000010 0.577351
vn -0.000010 -0.816498 0.577349
vn 0.000010 0.816497 0.577349
vn 0.816496 -0.000010 0.577352
vn -0.738968 -0.028021 0.673158
vn -0.028034 -0.738966 0.673159
vn 0.028035 0.738966 0.673159
vn 0.738968 0.028021 0.673158
vn -0.399069 0.055242 0.915255
vn 0.055229 -0.399070 0.915256
vn -0.055325 0.399168 0.915207
vn 0.399066 -0.055296 0.915254
vn 0.559383 0.063151 0.826500
vn 0.063195 0.559381 0.826499
vn -0.062266 -0.558919 0.826881
vn -0.559313 -0.062757 0.826577
vn -0.707107 0.707107 0.000000
vn -0.707107 0.707107 0.000000
vn -0.707107 0.707107 0.000000
vn -0.707107 0.707107 0.000000
vn -1.000000 -0.000032 0.000000
vn -0.706882 0.707331 0.000000
vn -1.000000 -0.000032 0.000000
vn -0.706882 0.707331 0.000000
vn -0.706837 -0.707376 0.000000
vn -0.706837 -0.707376 0.000000
vn -0.000350 1.000000 0.000000
vn -0.707332 0.706882 0.000000
vn -0.000350 1.000000 0.000000
vn -0.707332 0.706882 0.000000
vn 0.706837 0.707376 0.000000
vn 0.706837 0.707376 0.000000
vn -0.707107 -0.707107 0.000000
vn -0.707107 -0.707107 0.000000
vn -0.707107 -0.707107 0.000000
vn -0.707107 -0.707107 0.000000
vn 0.000191 -1.000000 0.000000
vn 0.707107 -0.707107 0.000000
vn 0.000191 -1.000000 0.000000
vn 0.707107 -0.707107 0.000000
vn -0.706837 -0.707376 0.000000
vn -0.706837 -0.707376 0.000000
vn 1.000000 0.000350 0.000000
vn 0.707331 -0.706882 0.000000
vn 1.000000 0.000350 0.000000
vn 0.707331 -0.706882 0.000000
vn 0.706837 0.707377 0.000000
vn 0.706837 0.707377 0.000000
vn 0.707088 0.707126 0.000000
vn 0.707088 0.707126 0.000000
vn 0.707088 0.707126 0.000000
vn 0.707088 0.707126 0.000000
vn -0.707107 0.707107 0.000000
vn -0.707107 0.707107 0.000000
vn -0.707107 0.707107 0.000000
vn -0.707107 0.707107 0.000000
vn -0.707075 0.707139 0.000000
vn -0.707075 0.707139 0.000000
vn -0.707075 0.707139 0.000000
vn -0.707075 0.707139 0.000000
vn 0.706837 0.707376 0.000000
vn 0.706837 0.707376 0.000000
vn 0.706837 0.707376 0.000000
vn 0.706837 0.707376 0.000000
vn -0.707377 -0.706837 0.000000
vn -0.707377 -0.706837 0.000000
vn -0.707377 -0.706837 0.000000
vn -0.707377 -0.706837 0.000000
vn -0.000359 1.000000 0.000000
vn -0.707345 0.706869 0.000000
vn -0.000359 1.000000 0.000000
vn -0.707345 0.706869 0.000000
vn 0.706837 0.707376 0.000000
vn 0.706837 0.707376 0.000000
vn -1.000000 -0.000191 0.000000
vn -0.707107 0.707107 0.000000
vn -1.000000 -0.000191 0.000000
vn -0.707107 0.707107 0.000000
vn -0.706837 -0.707377 0.000000
vn -0.706837 -0.707377 0.000000
vn 0.000000 0.000000 1.000000
vn 0.000000 0.000000 1.000000
vn 0.000000 0.000000 1.000000
vn 0.000000 0.000000 1.000000
g fff0a81b_00460_00a2ef66_e0
f 1/10/1 3/12/3 4/11/4
f 4/11/4 2/9/2 1/10/1
f 87/29/87 88/30/88 8/12/8
f 8/12/8 7/11/7 87/29/87
f 19/14/19 20/16/20 16/12/16
f 16/12/16 15/11/15 19/14/19
f 15/11/15 13/9/13 17/13/17
f 17/13/17 19/14/19 15/11/15
f 13/9/13 14/10/14 18/15/18
f 18/15/18 17/13/17 13/9/13
f 14/10/14 16/12/16 20/16/20
f 20/16/20 18/15/18 14/10/14
f 5/9/5 6/10/6 86/28/86
f 86/28/86 85/27/85 5/9/5
f 7/11/7 5/9/5 85/27/85
f 85/27/85 87/29/87 7/11/7
f 6/10/6 8/12/8 88/30/88
f 88/30/88 86/28/86 6/10/6
f 89/10/89 91/12/91 92/11/92
f 92/11/92 90/9/90 89/10/89
f 175/29/175 176/30/176 96/12/96
f 96/12/96 95/11/95 175/29/175
f 107/14/107 108/16/108 104/12/104
f 104/12/104 103/11/103 107/14/107
f 103/11/103 101/9/101 105/13/105
f 105/13/105 107/14/107 103/11/103
f 101/9/101 102/10/102 106/15/106
f 106/15/106 105/13/105 101/9/101
f 102/10/102 104/12/104 108/16/108
f 108/16/108 106/15/106 102/10/102
f 93/9/93 94/10/94 174/28/174
f 174/28/174 173/27/173 93/9/93
f 95/11/95 93/9/93 173/27/173
f 173/27/173 175/29/175 95/11/95
f 94/10/94 96/12/96 176/30/176
f 176/30/176 174/28/174 94/10/94
f 177/10/177 179/12/179 180/11/180
f 180/11/180 178/9/178 177/10/177
f 263/29/263 264/30/264 184/12/184
f 184/12/184 183/11/183 263/29/263
f 195/14/195 196/16/196 192/12/192
f 192/12/192 191/11/191 195/14/195
f 191/11/191 189/9/189 193/13/193
f 193/13/193 195/14/195 191/11/191
f 189/9/189 190/10/190 194/15/194
f 194/15/194 193/13/193 189/9/189
f 190/10/190 192/12/192 196/16/196
f 196/16/196 194/15/194 190/10/190
f 181/9/181 182/10/182 262/28/262
f 262/28/262 261/27/261 181/9/181
f 183/11/183 181/9/181 261/27/261
f 261/27/261 263/29/263 183/11/183
f 182/10/182 184/12/184 264/30/264
f 264/30/264 262/28/262 182/10/182
f 265/10/265 267/12/267 268/11/268
f 268/11/268 266/9/266 265/10/265
f 351/29/351 352/30/352 272/12/272
f 272/12/272 271/11/271 351/29/351
f 283/14/283 284/16/284 280/12/280
f 280/12/280 279/11/279 283/14/283
f 279/11/279 277/9/277 281/13/281
f 281/13/281 283/14/283 279/11/279
f 277/9/277 278/10/278 282/15/282
f 282/15/282 281/13/281 277/9/277
f 278/10/278 280/12/280 284/16/284
f 284/16/284 282/15/282 278/10/278
f 269/9/269 270/10/270 350/28/350
f 350/28/350 349/27/349 269/9/269
f 271/11/271 269/9/269 349/27/349
f 349/27/349 351/29/351 271/11/271
f 270/10/270 272/12/272 352/30/352
f 352/30/352 350/28/350 270/10/270
f 353/10/353 355/12/355 356/11/356
f 356/11/356 354/9/354 353/10/353
f 439/29/439 440/30/440 360/12/360
f 360/12/360 359/11/359 439/29/439
f 371/14/371 372/16/372 368/12/368
f 368/12/368 367/11/367 371/14/371
f 367/11/367 365/9/365 369/13/369
f 369/13/369 371/14/371 367/11/367
f 365/9/365 366/10/366 370/15/370
f 370/15/370 369/13/369 365/9/365
f 366/10/366 368/12/368 372/16/372
f 372/16/372 370/15/370 366/10/366
f 357/9/357 358/10/358 438/28/438
f 438/28/438 437/27/437 357/9/357
f 359/11/359 357/9/357 437/27/437
f 437/27/437 439/29/439 359/11/359
f 358/10/358 360/12/360 440/30/440
f 440/30/440 438/28/438 358/10/358
g fff0a81b_00460_00a2ef66_e1
f 2/1/2 4/2/4 8/4/8
f 8/4/8 6/3/6 2/1/2
f 3/1/3 1/2/1 5/4/5
f 5/4/5 7/3/7 3/1/3
f 10/1/10 12/2/12 16/4/16
f 16/4/16 14/3/14 10/1/10
f 11/1/11 9/2/9 13/4/13
f 13/4/13 15/3/15 11/1/11
f 26/1/26 25/2/25 27/4/27
f 27/4/27 28/3/28 26/1/26
f 32/1/32 33/4/33 31/2/31
f 33/4/33 32/1/32 34/3/34
f 42/1/42 43/4/43 41/2/41
f 43/4/43 42/1/42 44/3/44
f 48/1/48 47/2/47 49/4/49
f 49/4/49 50/3/50 48/1/48
f 74/1/74 73/2/73 75/4/75
f 75/4/75 76/3/76 74/1/74
f 80/1/80 81/4/81 79/2/79
f 81/4/81 80/1/80 82/3/82
f 90/1/90 92/2/92 96/4/96
f 96/4/96 94/3/94 90/1/90
f 91/1/91 89/2/89 93/4/93
f 93/4/93 95/3/95 91/1/91
f 98/1/98 100/2/100 104/4/104
f 104/4/104 102/3/102 98/1/98
f 99/1/99 97/2/97 101/4/101
f 101/4/101 103/3/103 99/1/99
f 114/1/114 113/2/113 115/4/115
f 115/4/115 116/3/116 114/1/114
f 120/1/120 121/4/121 119/2/119
f 121/4/121 120/1/120 122/3/122
f 130/1/130 131/4/131 129/2/129
f 131/4/131 130/1/130 132/3/132
f 136/1/136 135/2/135 137/4/137
f 137/4/137 138/3/138 136/1/136
f 162/1/162 161/2/161 163/4/163
f 163/4/163 164/3/164 162/1/162
f 168/1/168 169/4/169 167/2/167
f 169/4/169 168/1/168 170/3/170
f 178/1/178 180/2/180 184/4/184
f 184/4/184 182/3/182 178/1/178
f 179/1/179 177/2/177 181/4/181
f 181/4/181 183/3/183 179/1/179
f 186/1/186 188/2/188 192/4/192
f 192/4/192 190/3/190 186/1/186
f 187/1/187 185/2/185 189/4/189
f 189/4/189 191/3/191 187/1/187
f 202/1/202 201/2/201 203/4/203
f 203/4/203 204/3/204 202/1/202
f 208/1/208 209/4/209 207/2/207
f 209/4/209 208/1/208 210/3/210
f 218/1/218 219/4/219 217/2/217
f 219/4/219 218/1/218 220/3/220
f 224/1/224 223/2/223 225/4/225
f 225/4/225 226/3/226 224/1/224
f 250/1/250 249/2/249 251/4/251
f 251/4/251 252/3/252 250/1/250
f 256/1/256 257/4/257 255/2/255
f 257/4/257 256/1/256 258/3/258
f 266/1/266 268/2/268 272/4/272
f 272/4/272 270/3/270 266/1/266
f 267/1/267 265/2/265 269/4/269
f 269/4/269 271/3/271 267/1/267
f 274/1/274 276/2/276 280/4/280
f 280/4/280 278/3/278 274/1/274
f 275/1/275 273/2/273 277/4/277
f 277/4/277 279/3/279 275/1/275
f 290/1/290 289/2/289 291/4/291
f 291/4/291 292/3/292 290/1/290
f 296/1/296 297/4/297 295/2/295
f 297/4/297 296/1/296 298/3/298
f 306/1/306 307/4/307 305/2/305
f 307/4/307 306/1/306 308/3/308
f 312/1/312 311/2/311 313/4/313
f 313/4/313 314/3/314 312/1/312
f 338/1/338 337/2/337 339/4/339
f 339/4/339 340/3/340 338/1/338
f 344/1/344 345/4/345 343/2/343
f 345/4/345 344/1/344 346/3/346
f 354/1/354 356/2/356 360/4/360
f 360/4/360 358/3/358 354/1/354
f 355/1/355 353/2/353 357/4/357
f 357/4/357 359/3/359 355/1/355
f 362/1/362 364/2/364 368/4/368
f 368/4/368 366/3/366 362/1/362
f 363/1/363 361/2/361 365/4/365
f 365/4/365 367/3/367 363/1/363
f 378/1/378 377/2/377 379/4/379
f 379/4/379 380/3/380 378/1/378
f 384/1/384 385/4/385 383/2/383
f 385/4/385 384/1/384 386/3/386
f 394/1/394 395/4/395 393/2/393
f 395/4/395 394/1/394 396/3/396
f 400/1/400 399/2/399 401/4/401
f 401/4/401 402/3/402 400/1/400
f 426/1/426 425/2/425 427/4/427
f 427/4/427 428/3/428 426/1/426
f 432/1/432 433/4/433 431/2/431
f 433/4/433 432/1/432 434/3/434
g fff0a81b_00460_00a2ef66_e2
f 1/5/1 2/6/2 6/8/6
f 6/8/6 5/7/5 1/5/1
f 7/8/7 8/7/8 4/5/4
f 4/5/4 3/6/3 7/8/7
f 9/5/9 10/6/10 14/8/14
f 14/8/14 13/7/13 9/5/9
f 15/8/15 16/7/16 12/5/12
f 12/5/12 11/6/11 15/8/15
f 25/2/25 30/22/30 27/4/27
f 30/22/30 25/2/25 29/21/29
f 31/2/31 33/4/33 36/22/36
f 36/22/36 35/21/35 31/2/31
f 41/2/41 43/4/43 46/22/46
f 46/22/46 45/21/45 41/2/41
f 47/2/47 52/22/52 49/4/49
f 52/22/52 47/2/47 51/21/51
f 65/2/65 66/4/66 68/22/68
f 68/22/68 67/21/67 65/2/65
f 69/2/69 72/22/72 70/4/70
f 72/22/72 69/2/69 71/21/71
f 73/2/73 78/22/78 75/4/75
f 78/22/78 73/2/73 77/21/77
f 79/2/79 81/4/81 84/22/84
f 84/22/84 83/21/83 79/2/79
f 89/5/89 90/6/90 94/8/94
f 94/8/94 93/7/93 89/5/89
f 95/8/95 96/7/96 92/5/92
f 92/5/92 91/6/91 95/8/95
f 97/5/97 98/6/98 102/8/102
f 102/8/102 101/7/101 97/5/97
f 103/8/103 104/7/104 100/5/100
f 100/5/100 99/6/99 103/8/103
f 113/2/113 118/22/118 115/4/115
f 118/22/118 113/2/113 117/21/117
f 119/2/119 121/4/121 124/22/124
f 124/22/124 123/21/123 119/2/119
f 129/2/129 131/4/131 134/22/134
f 134/22/134 133/21/133 129/2/129
f 135/2/135 140/22/140 137/4/137
f 140/22/140 135/2/135 139/21/139
f 153/2/153 154/4/154 156/22/156
f 156/22/156 155/21/155 153/2/153
f 157/2/157 160/22/160 158/4/158
f 160/22/160 157/2/157 159/21/159
f 161/2/161 166/22/166 163/4/163
f 166/22/166 161/2/161 165/21/165
f 167/2/167 169/4/169 172/22/172
f 172/22/172 171/21/171 167/2/167
f 177/5/177 178/6/178 182/8/182
f 182/8/182 181/7/181 177/5/177
f 183/8/183 184/7/184 180/5/180
f 180/5/180 179/6/179 183/8/183
f 185/5/185 186/6/186 190/8/190
f 190/8/190 189/7/189 185/5/185
f 191/8/191 192/7/192 188/5/188
f 188/5/188 187/6/187 191/8/191
f 201/2/201 206/22/206 203/4/203
f 206/22/206 201/2/201 205/21/205
f 207/2/207 209/4/209 212/22/212
f 212/22/212 211/21/211 207/2/207
f 217/2/217 219/4/219 222/22/222
f 222/22/222 221/21/221 217/2/217
f 223/2/223 228/22/228 225/4/225
f 228/22/228 223/2/223 227/21/227
f 241/2/241 242/4/242 244/22/244
f 244/22/244 243/21/243 241/2/241
f 245/2/245 248/22/248 246/4/246
f 248/22/248 245/2/245 247/21/247
f 249/2/249 254/22/254 251/4/251
f 254/22/254 249/2/249 253/21/253
f 255/2/255 257/4/257 260/22/260
f 260/22/260 259/21/259 255/2/255
f 265/5/265 266/6/266 270/8/270
f 270/8/270 269/7/269 265/5/265
f 271/8/271 272/7/272 268/5/268
f 268/5/268 267/6/267 271/8/271
f 273/5/273 274/6/274 278/8/278
f 278/8/278 277/7/277 273/5/273
f 279/8/279 280/7/280 276/5/276
f 276/5/276 275/6/275 279/8/279
f 289/2/289 294/22/294 291/4/291
f 294/22/294 289/2/289 293/21/293
f 295/2/295 297/4/297 300/22/300
f 300/22/300 299/21/299 295/2/295
f 305/2/305 307/4/307 310/22/310
f 310/22/310 309/21/309 305/2/305
f 311/2/311 316/22/316 313/4/313
f 316/22/316 311/2/311 315/21/315
f 329/2/329 330/4/330 332/22/332
f 332/22/332 331/21/331 329/2/329
f 333/2/333 336/22/336 334/4/334
f 336/22/336 333/2/333 335/21/335
f 337/2/337 342/22/342 339/4/339
f 342/22/342 337/2/337 341/21/341
f 343/2/343 345/4/345 348/22/348
f 348/22/348 347/21/347 343/2/343
f 353/5/353 354/6/354 358/8/358
f 358/8/358 357/7/357 353/5/353
f 359/8/359 360/7/360 356/5/356
f 356/5/356 355/6/355 359/8/359
f 361/5/361 362/6/362 366/8/366
f 366/8/366 365/7/365 361/5/361
f 367/8/367 368/7/368 364/5/364
f 364/5/364 363/6/363 367/8/367
f 377/2/377 382/22/382 379/4/379
f 382/22/382 377/2/377 381/21/381
f 383/2/383 385/4/385 388/22/388
f 388/22/388 387/21/387 383/2/383
f 393/2/393 395/4/395 398/22/398
f 398/22/398 397/21/397 393/2/393
f 399/2/399 404/22/404 401/4/401
f 404/22/404 399/2/399 403/21/403
f 417/2/417 418/4/418 420/22/420
f 420/22/420 419/21/419 417/2/417
f 421/2/421 424/22/424 422/4/422
f 424/22/424 421/2/421 423/21/423
f 425/2/425 430/22/430 427/4/427
f 430/22/430 425/2/425 429/21/429
f 431/2/431 433/4/433 436/22/436
f 436/22/436 435/21/435 431/2/431
g fff0a81b_00460_00a2ef66_e3
f 22/17/22 21/18/21 23/19/23
f 23/19/23 24/20/24 22/17/22
f 38/23/38 37/24/37 39/25/39
f 39/25/39 40/26/40 38/23/38
f 54/23/54 55/25/55 53/24/53
f 55/25/55 54/23/54 56/26/56
f 58/17/58 57/18/57 59/19/59
f 59/19/59 60/20/60 58/17/58
f 62/17/62 61/18/61 63/19/63
f 63/19/63 64/20/64 62/17/62
f 110/17/110 109/18/109 111/19/111
f 111/19/111 112/20/112 110/17/110
f 126/23/126 125/24/125 127/25/127
f 127/25/127 128/26/128 126/23/126
f 142/23/142 143/25/143 141/24/141
f 143/25/143 142/23/142 144/26/144
f 146/17/146 145/18/145 147/19/147
f 147/19/147 148/20/148 146/17/146
f 150/17/150 149/18/149 151/19/151
f 151/19/151 152/20/152 150/17/150
f 198/17/198 197/18/197 199/19/199
f 199/19/199 200/20/200 198/17/198
f 214/23/214 213/24/213 215/25/215
f 215/25/215 216/26/216 214/23/214
f 230/23/230 231/25/231 229/24/229
f 231/25/231 230/23/230 232/26/232
f 234/17/234 233/18/233 235/19/235
f 235/19/235 236/20/236 234/17/234
f 238/17/238 237/18/237 239/19/239
f 239/19/239 240/20/240 238/17/238
f 286/17/286 285/18/285 287/19/287
f 287/19/287 288/20/288 286/17/286
f 302/23/302 301/24/301 303/25/303
f 303/25/303 304/26/304 302/23/302
f 318/23/318 319/25/319 317/24/317
f 319/25/319 318/23/318 320/26/320
f 322/17/322 321/18/321 323/19/323
f 323/19/323 324/20/324 322/17/322
f 326/17/326 325/18/325 327/19/327
f 327/19/327 328/20/328 326/17/326
f 374/17/374 373/18/373 375/19/375
f 375/19/375 376/20/376 374/17/374
f 390/23/390 389/24/389 391/25/391
f 391/25/391 392/26/392 390/23/390
f 406/23/406 407/25/407 405/24/405
f 407/25/407 406/23/406 408/26/408
f 410/17/410 409/18/409 411/19/411
f 411/19/411 412/20/412 410/17/410
f 414/17/414 413/18/413 415/19/415
f 415/19/415 416/20/416 414/17/414
g fff0a81b_00460_00a2ef66_e4
f 85/31/85 86/32/86 88/33/88
f 88/33/88 87/34/87 85/31/85
f 173/31/173 174/32/174 176/33/176
f 176/33/176 175/34/175 173/31/173
f 261/31/261 262/32/262 264/33/264
f 264/33/264 263/34/263 261/31/261
f 349/31/349 350/32/350 352/33/352
f 352/33/352 351/34/351 349/31/349
f 437/31/437 438/32/438 440/33/440
f 440/33/440 439/34/439 437/31/437
