# fff02c13_00017_000e5966
o fff02c13_00017_000e5966
v 0.298599 -0.034119 -0.291978
v 0.284714 -0.038315 -0.290504
v -0.545894 0.016911 0.348402
v 0.276199 -0.048569 -0.286487
v 0.298370 -0.056961 -0.290272
v -0.357040 -0.071602 0.486086
v -0.392670 -0.087509 0.430501
v -0.417343 -0.108444 0.348293
v -0.342834 -0.041725 0.516929
v 0.104370 -0.006500 -0.251993
v 0.113953 -0.027107 -0.250186
v 0.133575 -0.012009 -0.267423
v 0.122131 0.015945 -0.260572
v 0.223526 -0.024063 -0.245216
v 0.236877 -0.023926 -0.242857
v 0.243301 -0.006271 -0.252366
v 0.243637 0.008316 -0.259995
v 0.228455 0.002548 -0.271319
v 0.304657 -0.034103 -0.292403
v 0.222137 -0.044586 -0.302768
v 0.236145 -0.044434 -0.302440
v 0.243958 -0.027061 -0.308401
v 0.228409 -0.024033 -0.319426
v 0.312012 -0.048103 -0.290756
v 0.216721 -0.030502 -0.308336
v 0.075821 -0.011703 -0.276521
v 0.084885 -0.025940 -0.278489
v 0.093414 -0.023392 -0.294223
v 0.094467 -0.007889 -0.296275
v 0.083237 -0.000031 -0.292222
v -0.291275 -0.035233 0.213974
v 0.352463 -0.016975 -0.072859
v 0.317551 -0.152245 -0.079158
v -0.443588 -0.039764 0.074917
v -0.443436 -0.042038 0.075305
v -0.541962 0.030716 0.362962
v -0.722427 0.029724 0.188244
v -0.541092 0.018929 0.372078
v -0.597809 0.030685 0.248921
v -0.543718 -0.004160 0.374356
v -0.442917 -0.050606 0.076766
v -0.294601 0.034081 0.170418
v -0.410202 0.033234 0.105444
v -0.551697 -0.004143 0.353888
v -0.491455 -0.195160 0.046805
v -0.437415 -0.121695 -0.000395
v 0.416977 0.015114 0.188315
v -0.651230 -0.114166 0.172402
v -0.091629 -0.061104 -0.115799
v 0.304413 -0.005814 -0.142013
v 0.078247 0.001251 -0.188739
v 0.200134 -0.044609 -0.178888
v 0.048752 -0.113136 -0.150338
v 0.281845 -0.122261 -0.420175
v 0.238571 -0.100227 -0.416255
v 0.229767 -0.065498 -0.416291
v 0.308701 -0.052338 -0.412994
v 0.330032 -0.097809 -0.413321
v 0.300751 -0.105713 -0.392310
v 0.261429 -0.087456 -0.390049
v 0.272736 -0.054283 -0.391220
v 0.314178 -0.056023 -0.395672
v 0.329193 -0.087105 -0.381260
v -0.104797 -0.025558 -0.420819
v -0.136169 -0.043121 -0.418843
v -0.153458 -0.027992 -0.417655
v -0.155457 -0.006111 -0.417438
v -0.123276 0.016075 -0.419440
v -0.103195 -0.001450 -0.411792
v -0.103348 -0.022789 -0.398914
v -0.120651 -0.030006 -0.395710
v -0.136246 -0.021080 -0.398421
v -0.132095 -0.001511 -0.402112
v -0.107773 0.010788 -0.395728
v -0.099396 0.001175 -0.395320
v 0.405548 0.041039 0.179570
v 0.493164 0.026283 -0.003855
v -0.738693 0.029892 0.118202
v 0.148804 -0.016388 -0.172181
v -0.045868 0.038109 -0.161223
v 0.327332 0.041687 -0.128259
v 0.555283 0.013725 -0.111971
v 0.347992 0.039474 0.391604
v 0.407455 -0.005699 0.171866
v 0.508377 -0.002922 -0.080629
v 0.472275 0.022774 0.049234
v 0.078064 -0.014221 -0.293343
v 0.104523 -0.006783 -0.224557
v 0.216751 -0.007919 -0.264823
v 0.230377 -0.035454 -0.319477
v 0.130798 -0.028679 -0.224078
v 0.284744 -0.014595 -0.201230
v 0.283493 -0.040474 -0.154615
v 0.233185 -0.075165 -0.143065
v 0.269669 -0.095100 -0.135644
v 0.252228 -0.034546 -0.158438
v 0.304138 -0.074249 -0.138644
v -0.157715 -0.025238 -0.085207
v -0.118301 -0.081047 -0.090379
v -0.098206 -0.011665 -0.113680
v -0.144577 -0.076469 -0.083561
v -0.136627 -0.007446 -0.098685
v -0.619324 -0.168068 0.040621
v 0.288467 -0.026169 -0.146965
v 0.231491 -0.074158 -0.127895
v 0.271378 -0.097473 -0.125719
v 0.239380 -0.037048 -0.153970
v -0.198975 -0.024811 -0.015782
v 0.033768 -0.216217 -0.069218
v 0.109863 0.040092 -0.253316
v 0.304184 0.041748 -0.190722
v 0.378860 0.041916 -0.067099
v -0.148895 -0.083061 -0.065687
v 0.489548 0.042809 -0.020399
v 0.542557 0.043549 -0.066041
v 0.168701 -0.045525 -0.215523
v 0.498459 0.043213 -0.088063
v 0.420807 0.040771 0.270062
v 0.551346 0.043991 -0.142204
v 0.219574 -0.047119 -0.209797
v 0.173050 -0.036926 -0.173370
v -0.399399 -0.269600 0.386664
v -0.399048 -0.193130 0.432576
v -0.437592 -0.279724 0.326064
v 0.482803 0.042404 0.050765
v -0.349472 -0.265427 0.345343
v 0.461273 0.042221 0.044250
v -0.456146 -0.251244 0.358025
v -0.325180 -0.212593 0.402657
v -0.462219 -0.197670 0.401192
v 0.211212 0.041290 -0.291781
v -0.350800 -0.115814 0.443506
v 0.496643 0.042763 0.004204
v -0.388641 -0.282219 0.321016
v -0.376862 -0.302666 0.390540
v -0.440033 -0.296257 0.395099
v -0.361053 -0.240837 0.455248
v -0.433945 -0.230553 0.455310
v -0.367798 -0.118515 0.476852
v -0.428177 -0.110237 0.471946
v 0.408127 -0.058975 0.176494
v 0.391068 -0.064972 0.084049
v 0.344223 -0.077057 -0.061934
v -0.523270 -0.087662 0.361100
v 0.324738 -0.062927 0.381061
v 0.316437 -0.180954 0.192214
v 0.302017 -0.192329 0.058511
v 0.312973 -0.075813 -0.125968
v 0.216507 -0.035416 -0.172950
v 0.098114 0.039848 -0.225313
v 0.221024 -0.076057 0.450065
v 0.252426 0.041595 -0.269976
v 0.207947 -0.245857 0.216716
v 0.175247 -0.275490 0.063797
v 0.178650 -0.226196 -0.068024
v 0.153412 -0.102524 -0.155934
v -0.100708 -0.065353 0.406216
v -0.106613 -0.190445 0.180277
v -0.114761 -0.214516 0.036041
v -0.104630 -0.159920 -0.073713
v -0.209366 -0.035652 0.354031
v -0.197372 -0.110115 0.156278
v -0.182098 -0.128120 0.004308
v -0.635101 0.031509 -0.007162
v -0.500565 -0.059753 -0.069159
v -0.272400 -0.019318 0.370427
v -0.346985 -0.062759 0.066127
v -0.568314 0.032494 -0.075094
v -0.560425 -0.167244 -0.008475
v -0.444077 -0.154167 0.200704
v -0.443283 -0.073883 0.468776
v -0.362564 -0.053497 0.512550
v 0.418015 0.041733 0.057487
v -0.425171 -0.218918 0.748297
v -0.433197 -0.221222 0.650594
v -0.418289 -0.197853 0.658370
v 0.072006 0.036346 0.471728
v 0.418137 0.041405 0.126784
v -0.385757 -0.210869 0.658385
v -0.406616 -0.233063 0.648564
v -0.409851 -0.206551 0.555333
v -0.358414 -0.183189 0.574639
v -0.438736 -0.185738 0.572488
v -0.417953 -0.163940 0.595729
v -0.377533 -0.164139 0.592185
v -0.380310 -0.203583 0.558828
v -0.422256 -0.138084 0.484151
v -0.352432 -0.108124 0.528868
v -0.456757 -0.129753 0.514476
v -0.432693 -0.109474 0.552678
v 0.078964 0.039520 -0.195170
v 0.219727 0.037819 0.471597
v -0.384354 -0.099426 0.566428
v -0.371124 -0.132233 0.493818
v -0.528824 -0.132462 0.208005
v -0.458054 -0.018867 0.545459
v -0.392273 -0.022591 0.565078
v -0.099792 0.034790 0.436339
v -0.467285 -0.041252 0.490851
v -0.460175 0.030693 0.544364
v -0.444489 -0.036766 0.531730
v -0.570679 -0.203568 0.107298
v -0.137573 0.036949 -0.108810
v -0.204849 0.033943 0.392793
v -0.672363 -0.143616 0.091884
v -0.479599 -0.106163 0.355913
v -0.596649 -0.162895 0.173778
v -0.207809 0.036118 -0.027111
v 0.066437 -0.083374 0.445511
v -0.342026 0.031967 0.523990
v -0.559631 -0.089508 0.219016
v -0.395584 0.031212 0.570618
v -0.281769 0.033043 0.421799
v -0.391113 -0.039162 0.545176
v -0.478149 0.030708 0.501211
v -0.324310 0.034248 0.071542
v -0.477249 -0.041748 0.485991
v -0.437103 -0.082047 0.432162
v 0.054840 -0.238808 0.215485
v 0.037582 -0.269806 0.070869
v -0.399368 -0.060776 -0.030619
v -0.377579 0.034180 -0.029294
v 0.297073 0.118423 -0.291269
v 0.283112 0.122322 -0.289757
v 0.274384 0.132370 -0.285646
v 0.296402 0.141243 -0.289350
v -0.359116 0.135559 0.472843
v -0.395065 0.151268 0.431612
v -0.476242 0.218742 0.201971
v -0.420151 0.172470 0.349599
v -0.344299 0.105690 0.517614
v 0.103439 0.086563 -0.251560
v 0.112610 0.107338 -0.249561
v 0.132523 0.092789 -0.266936
v 0.121643 0.064552 -0.260346
v 0.222214 0.106438 -0.244608
v 0.235580 0.106544 -0.242251
v 0.242355 0.089111 -0.251922
v 0.242981 0.074600 -0.259686
v 0.227676 0.080170 -0.270959
v 0.303131 0.118530 -0.291693
v 0.220413 0.127464 -0.301968
v 0.234421 0.127586 -0.301640
v 0.242584 0.110428 -0.307761
v 0.227097 0.107193 -0.318816
v 0.310196 0.132660 -0.289915
v 0.215271 0.113319 -0.307667
v 0.074799 0.091423 -0.276041
v 0.083572 0.105850 -0.277875
v 0.092133 0.103615 -0.293633
v 0.093506 0.088158 -0.295828
v 0.082443 0.080040 -0.291850
v -0.292664 0.103043 0.214617
v 0.351288 0.100319 -0.072314
v 0.313675 0.234924 -0.077357
v -0.514969 0.225189 -0.015510
v -0.498383 0.251991 0.102176
v 0.416458 0.067101 0.188557
v -0.654114 0.175156 0.173748
v -0.093613 0.135963 -0.114883
v 0.303467 0.088852 -0.141573
v 0.145432 0.097710 -0.179691
v 0.171860 0.118965 -0.178190
v 0.198425 0.125893 -0.178095
v 0.045715 0.191116 -0.148923
v 0.278549 0.207397 -0.418642
v 0.235718 0.184471 -0.414931
v 0.227615 0.149574 -0.415292
v 0.306808 0.137970 -0.412109
v 0.327209 0.183853 -0.412011
v 0.297791 0.190979 -0.390930
v 0.258835 0.171921 -0.388843
v 0.270798 0.138992 -0.390322
v 0.312195 0.141602 -0.394753
v 0.326599 0.172836 -0.380051
v -0.106094 0.103004 -0.420222
v -0.137802 0.119919 -0.418085
v -0.154785 0.104431 -0.417040
v -0.156342 0.082512 -0.417026
v -0.123718 0.060997 -0.419232
v -0.104004 0.078850 -0.411419
v -0.104584 0.100060 -0.398343
v -0.122025 0.106903 -0.395073
v -0.137436 0.097687 -0.397869
v -0.132904 0.078239 -0.401741
v -0.108322 0.066376 -0.395469
v -0.100143 0.076141 -0.394971
v 0.492844 0.059242 -0.003702
v 0.554688 0.074043 -0.111691
v 0.406525 0.087868 0.172301
v 0.507462 0.089462 -0.080199
v 0.471878 0.061836 0.049415
v 0.076981 0.094139 -0.292839
v 0.103592 0.086586 -0.224123
v 0.215759 0.090340 -0.264366
v 0.228836 0.118645 -0.318760
v 0.129425 0.109001 -0.223437
v 0.086594 0.074127 -0.191079
v 0.283615 0.097786 -0.200707
v 0.281860 0.123192 -0.153854
v 0.230881 0.156769 -0.141987
v 0.266953 0.177361 -0.134377
v 0.250717 0.116684 -0.157734
v 0.301819 0.157227 -0.137567
v -0.158951 0.098503 -0.084631
v -0.120667 0.155136 -0.089280
v -0.099182 0.086388 -0.113224
v -0.146835 0.149971 -0.082509
v -0.137527 0.081261 -0.098272
v -0.623322 0.230904 0.042477
v 0.287125 0.108925 -0.146337
v 0.229187 0.155586 -0.126827
v 0.268616 0.179672 -0.124430
v 0.237823 0.118889 -0.153245
v -0.200195 0.097107 -0.015216
v 0.028671 0.293114 -0.066849
v -0.151291 0.156303 -0.064573
v 0.166977 0.126518 -0.214723
v 0.217819 0.129082 -0.208978
v -0.405426 0.333595 0.389469
v -0.403549 0.256721 0.434668
v -0.443817 0.343506 0.328963
v -0.355438 0.330795 0.348116
v -0.461792 0.314369 0.360656
v -0.330078 0.277931 0.404938
v -0.466797 0.260284 0.403322
v -0.353760 0.180283 0.444883
v -0.394928 0.347031 0.323942
v -0.383545 0.367058 0.393655
v -0.446579 0.359352 0.398148
v -0.366516 0.304962 0.457786
v -0.439178 0.293221 0.457746
v -0.370804 0.182327 0.478251
v -0.431000 0.172897 0.473263
v 0.406128 0.141106 0.177425
v 0.388947 0.147621 0.085038
v 0.341843 0.160126 -0.060832
v -0.525650 0.149452 0.362203
v 0.322708 0.141487 0.382012
v 0.312012 0.261078 0.194270
v 0.297363 0.273399 0.060677
v 0.310623 0.158852 -0.124877
v 0.214981 0.116974 -0.172242
v 0.218735 0.151901 0.451125
v 0.202255 0.323570 0.219364
v 0.168961 0.353958 0.066725
v 0.173325 0.305977 -0.065549
v 0.150558 0.182648 -0.154608
v -0.102707 0.135178 0.407149
v -0.111130 0.262222 0.182382
v -0.119781 0.287468 0.038375
v -0.108566 0.234108 -0.071881
v -0.210770 0.103798 0.354679
v -0.200272 0.180321 0.157629
v -0.185364 0.200043 0.005835
v -0.550200 0.044236 0.348597
v -0.549530 0.068116 0.354210
v -0.503106 0.126687 -0.068295
v -0.273453 0.086060 0.370917
v -0.348907 0.130821 0.067027
v -0.539215 0.060219 0.370916
v -0.396942 0.211189 0.210623
v -0.425644 0.211876 0.104267
v -0.346985 0.172531 0.325572
v -0.564407 0.231720 -0.006619
v -0.541321 0.042244 0.372186
v -0.445389 0.136276 0.469753
v -0.447418 0.095726 0.532272
v -0.393158 0.099342 0.546607
v -0.430145 0.279037 0.750612
v -0.438232 0.282089 0.652935
v -0.422852 0.258957 0.660495
v -0.390579 0.272614 0.660633
v -0.411896 0.294479 0.651017
v -0.414612 0.268776 0.557543
v -0.362701 0.246269 0.576637
v -0.443054 0.247238 0.574502
v -0.421844 0.225639 0.597541
v -0.381439 0.226685 0.594002
v -0.385010 0.266365 0.561013
v -0.425644 0.200737 0.485727
v -0.355225 0.171768 0.530169
v -0.459976 0.191444 0.515970
v -0.435501 0.171295 0.553984
v -0.386963 0.162079 0.567644
v -0.374405 0.195816 0.495343
v -0.532104 0.195557 0.209531
v -0.459045 0.080269 0.545920
v -0.393341 0.085129 0.565579
v -0.361343 0.113640 0.512233
v -0.439713 0.114372 0.457526
v -0.575378 0.266747 0.109485
v -0.675858 0.204918 0.093505
v -0.482346 0.168869 0.357192
v -0.600525 0.224953 0.175581
v 0.064041 0.156166 0.446625
v -0.562042 0.151894 0.220139
v -0.380219 0.120155 0.480347
v -0.478699 0.103310 0.486666
v -0.439377 0.144897 0.433217
v 0.049316 0.313469 0.218054
v 0.031433 0.345459 0.073730
v -0.401260 0.128693 -0.029738
v -0.104324 0.005440 -0.268464
v -0.098740 -0.018768 -0.268105
v -0.117538 -0.033188 -0.268314
v -0.127319 -0.024345 -0.268622
v -0.125076 -0.004135 -0.268800
v -0.105164 0.069878 -0.269202
v -0.098984 0.093941 -0.269339
v -0.119163 0.105805 -0.269900
v -0.127716 0.097374 -0.269992
v -0.122757 0.077133 -0.269659
vt 0.096249 0.968076
vt 0.115577 0.944251
vt 0.114945 0.973899
vt 0.095966 0.951106
vt 0.122661 0.958987
vt 0.952398 0.449067
vt 0.875935 0.405605
vt 0.824848 0.426413
vt 0.661067 0.715729
vt 0.956571 0.541910
vt 0.642482 0.630261
vt 0.877481 0.497417
vt 0.865851 0.375836
vt 0.596151 0.498412
vt 0.915143 0.361764
vt 0.963930 0.322012
vt 0.799795 0.365901
vt 0.579416 0.990004
vt 0.636465 0.726200
vt 0.752464 0.705118
vt 0.750928 0.674662
vt 0.746928 0.463991
vt 0.769057 0.499407
vt 0.841894 0.687288
vt 0.666297 0.316298
vt 0.908351 0.616823
vt 0.719865 0.570437
vt 0.688122 0.544572
vt 0.757591 0.609572
vt 0.429359 0.932582
vt 0.525758 0.888520
vt 0.854838 0.576749
vt 0.718571 0.997261
vt 0.472334 0.898424
vt 0.401348 0.980142
vt 0.529048 0.926413
vt 0.814571 0.298928
vt 0.643258 0.991938
vt 0.805314 0.537472
vt 0.534575 0.481388
vt 0.541501 0.988744
vt 0.582940 0.943049
vt 0.717077 0.920083
vt 0.706653 0.439106
vt 0.649755 0.940145
vt 0.307557 0.829193
vt 0.292761 0.744872
vt 0.484892 0.725553
vt 0.350822 0.984822
vt 0.533570 0.912526
vt 0.402261 0.693840
vt 0.941324 0.362730
vt 0.800160 0.637175
vt 0.643074 0.415071
vt 0.583711 0.917963
vt 0.745364 0.215937
vt 0.653492 0.915968
vt 0.303425 0.978576
vt 0.396003 0.970352
vt 0.981061 0.406713
vt 0.689378 0.629444
vt 0.717788 0.168023
vt 0.387283 0.720006
vt 0.946899 0.416036
vt 0.351602 0.741426
vt 0.400795 0.871374
vt 0.315381 0.663166
vt 0.440578 0.850362
vt 0.338272 0.824606
vt 0.008439 0.795121
vt 0.285923 0.828564
vt 0.377888 0.804918
vt 0.424256 0.784687
vt 0.469160 0.747383
vt 0.515953 0.819294
vt 0.000918 0.713758
vt 0.450133 0.768596
vt 0.486775 0.885549
vt 0.070061 0.745711
vt 0.075693 0.693821
vt 0.146699 0.695935
vt 0.068704 0.797934
vt 0.318567 0.745718
vt 0.143293 0.755049
vt 0.220774 0.828110
vt 0.257324 0.785300
vt 0.294377 0.908417
vt 0.144452 0.706994
vt 0.870552 0.868056
vt 0.075771 0.710598
vt 0.982157 0.359052
vt 0.098210 0.629736
vt 0.976887 0.328961
vt 0.768591 0.260819
vt 0.592957 0.658156
vt 0.820274 0.124249
vt 0.604442 0.609198
vt 0.707518 0.901354
vt 0.559984 0.845582
vt 0.473101 0.467112
vt 0.578258 0.279301
vt 0.642583 0.216178
vt 0.547313 0.283066
vt 0.592297 0.750169
vt 0.593451 0.561540
vt 0.541558 0.691657
vt 0.579738 0.215606
vt 0.998200 0.466152
vt 0.556710 0.112120
vt 0.537936 0.498124
vt 0.526733 0.195850
vt 0.358606 0.621260
vt 0.469011 0.363963
vt 0.477384 0.285794
vt 0.393310 0.005558
vt 0.365520 0.653241
vt 0.400837 0.474338
vt 0.415377 0.377021
vt 0.414162 0.291360
vt 0.400661 0.152640
vt 0.248690 0.006954
vt 0.282568 0.543060
vt 0.266286 0.450934
vt 0.278353 0.365731
vt 0.279131 0.274525
vt 0.285230 0.122542
vt 0.097462 0.464296
vt 0.186473 0.434833
vt 0.218088 0.369064
vt 0.217727 0.274530
vt 0.181613 0.161546
vt 0.019089 0.188369
vt 0.608938 0.795887
vt 0.511832 0.785566
vt 0.115006 0.368608
vt 0.123768 0.265369
vt 0.105462 0.191232
vt 0.015766 0.337989
vt 0.222140 0.570165
vt 0.485217 0.592449
vt 0.489698 0.410378
vt 0.474053 0.448734
vt 0.525912 0.437415
vt 0.228358 0.455457
vt 0.257796 0.464622
vt 0.169767 0.547608
vt 0.817520 0.836628
vt 0.103418 0.594456
vt 0.816883 0.826782
vt 0.866741 0.880333
vt 0.169210 0.581215
vt 0.868219 0.798133
vt 0.209925 0.700252
vt 0.885123 0.818145
vt 0.207801 0.752815
vt 0.203699 0.716730
vt 0.255628 0.641014
vt 0.246323 0.682469
vt 0.206978 0.794901
vt 0.251077 0.740509
vt 0.816710 0.794534
vt 0.937051 0.750966
vt 0.937016 0.802163
vt 0.075902 0.826275
vt 0.885425 0.732152
vt 0.152245 0.849728
vt 0.815829 0.885408
vt 0.886803 0.916595
vt 0.203836 0.646154
vt 0.870143 0.757535
vt 0.937203 0.850487
vt 0.137408 0.638410
vt 0.816806 0.757532
vt 0.521988 0.576513
vt 0.502992 0.432466
vt 0.521023 0.605929
vt 0.450697 0.485186
vt 0.535544 0.549335
vt 0.191470 0.436245
vt 0.215472 0.539024
vt 0.218928 0.453363
vt 0.225764 0.480875
vt 0.140015 0.476822
vt 0.235688 0.580306
vt 0.059255 0.433960
vt 0.019335 0.431691
vt 0.399305 0.618514
vt 0.288784 0.661667
vt 0.085852 0.464971
vt 0.275337 0.612258
vt 0.056570 0.444843
vt 0.020360 0.443297
vt 0.328643 0.650867
vt 0.334186 0.556675
vt 0.112423 0.135521
vt 0.029392 0.141991
vt 0.149708 0.043778
vt 0.069490 0.144185
vt 0.069182 0.276191
vt 0.104302 0.250368
vt 0.141173 0.196416
vt 0.789574 0.357775
vt 0.779249 0.337891
vt 0.104800 0.340678
vt 0.118066 0.365196
vt 0.756249 0.357844
vt 0.718326 0.332748
vt 0.937812 0.886270
vt 0.886125 0.842839
vt 0.816457 0.985039
vt 0.817044 0.952352
vt 0.817100 0.919745
vt 0.766014 0.943742
vt 0.766043 0.922863
vt 0.889149 0.967010
vt 0.939174 0.965261
vt 0.940364 0.995887
vt 0.997975 0.761860
vt 0.996950 0.994924
vt 0.997006 0.799876
vt 0.998263 0.826564
vt 0.997434 0.889247
vt 0.998659 0.965389
vt 0.121573 0.303631
vt 0.784376 0.367480
vt 0.792894 0.284926
vt 0.869406 0.867874
vt 0.766987 0.310007
vt 0.756459 0.380437
vt 0.756345 0.292567
vt 0.737026 0.294512
vt 0.141249 0.805879
vt 0.868621 0.962814
vt 0.126773 0.201030
vt 0.435469 0.944380
vt 0.362114 0.897481
vt 0.888493 0.998709
vt 0.232475 0.605558
vt 0.333575 0.909718
vt 0.479774 0.837871
vt 0.864133 0.994493
vt 0.765835 0.856757
vt 0.765949 0.827840
vt 0.765914 0.796515
vt 0.765893 0.893537
vt 0.765848 0.762531
vt 0.036252 0.581620
vt 0.765691 0.968691
vt 0.125696 0.491462
vt 0.539294 0.443303
vt 0.139430 0.480135
vt 0.540940 0.441825
vt 0.185696 0.536351
vt 0.596688 0.378754
vt 0.959790 0.405196
vt 0.604439 0.609201
vt 0.647604 0.513756
vt 0.632521 0.516547
vt 0.540388 0.599184
vt 0.550559 0.687301
vt 0.667514 0.474728
vt 0.708788 0.439488
vt 0.703228 0.438776
vt 0.361992 0.469445
vt 0.360297 0.517190
vt 0.478366 0.473682
vt 0.360862 0.582479
vt 0.478366 0.541770
vt 0.096249 0.968076
vt 0.133811 0.949593
vt 0.115577 0.944251
vt 0.122661 0.958987
vt 0.920197 0.752853
vt 0.918772 0.800791
vt 0.918608 0.818556
vt 0.918607 0.864909
vt 0.918514 0.896406
vt 0.889724 0.967037
vt 0.911289 0.983333
vt 0.081939 0.904594
vt 0.125998 0.907291
vt 0.081181 0.944990
vt 0.103099 0.906753
vt 0.079871 0.943356
vt 0.113562 0.923088
vt 0.080200 0.925309
vt 0.096350 0.941347
vt 0.187765 0.931430
vt 0.090087 0.905982
vt 0.113222 0.929304
vt 0.100687 0.933077
vt 0.176056 0.931357
vt 0.122354 0.907007
vt 0.117491 0.907224
vt 0.070273 0.942715
vt 0.068919 0.943305
vt 0.080072 0.940999
vt 0.060372 0.921223
vt 0.065158 0.904507
vt 0.119103 0.918081
vt 0.118870 0.930465
vt 0.117557 0.933953
vt 0.124453 0.928795
vt 0.115881 0.919489
vt 0.126459 0.919241
vt 0.116398 0.934584
vt 0.119268 0.934639
vt 0.129320 0.925732
vt 0.133545 0.918670
vt 0.135032 0.918063
vt 0.122310 0.919705
vt 0.127082 0.928387
vt 0.173904 0.936933
vt 0.176775 0.936988
vt 0.176810 0.927671
vt 0.181035 0.920610
vt 0.176234 0.921907
vt 0.174572 0.930327
vt 0.162608 0.919858
vt 0.162375 0.932242
vt 0.161062 0.935730
vt 0.167958 0.930571
vt 0.165921 0.921532
vt 0.169963 0.921017
vt 0.502321 0.276133
vt 0.166083 0.428333
vt 0.199544 0.400881
vt 0.367841 0.001963
vt 0.353053 0.135439
vt 0.354458 0.282983
vt 0.350144 0.376221
vt 0.339086 0.461330
vt 0.304396 0.548817
vt 0.698350 0.360018
vt 0.696449 0.374510
vt 0.695296 0.339622
vt 0.705283 0.357433
vt 0.705283 0.357433
vt 0.696449 0.374510
vt 0.554126 0.766961
vt 0.586118 0.819052
vt 0.574844 0.124369
vt 0.826096 0.885904
vt 0.826228 0.926538
vt 0.827065 0.919780
vt 0.826387 0.972023
vt 0.826143 0.986530
vt 0.827122 0.757691
vt 0.827040 0.795528
vt 0.825779 0.821402
vt 0.826766 0.852533
vt 0.825780 0.885889
vt 0.825775 0.926201
vt 0.826571 0.919778
vt 0.825797 0.970781
vt 0.825626 0.986450
vt 0.826571 0.757683
vt 0.826656 0.795491
vt 0.825519 0.821560
vt 0.826482 0.852044
vt 0.872624 0.855853
vt 0.871989 0.849712
vt 0.861364 0.875110
vt 0.857306 0.878556
vt 0.847506 0.939219
vt 0.845848 0.982176
vt 0.842213 0.993920
vt 0.871750 0.795857
vt 0.872689 0.855474
vt 0.872288 0.847969
vt 0.860985 0.875451
vt 0.856737 0.879059
vt 0.846272 0.943237
vt 0.844798 0.983068
vt 0.841526 0.993902
vt 0.871866 0.795782
vt 0.469310 0.568941
vn -0.118083 0.989089 -0.088082
vn -0.544287 0.833634 -0.093846
vn -0.937208 0.228152 0.263794
vn -0.984703 -0.159146 -0.070939
vn 0.143924 -0.980683 0.132463
vn 0.900860 -0.430793 0.053565
vn 0.443890 -0.676449 -0.587690
vn 0.227121 -0.950912 0.210195
vn 0.676699 -0.453956 0.579657
vn -0.863295 0.213887 0.457138
vn -0.348676 -0.926363 0.142394
vn 0.136236 -0.444012 -0.885603
vn -0.536106 0.283986 -0.794948
vn -0.166991 -0.937934 -0.303964
vn 0.512026 -0.821414 -0.251212
vn 0.910403 -0.294987 -0.290084
vn 0.834282 -0.149009 -0.530820
vn -0.036860 0.278920 -0.959607
vn 0.502242 0.864489 -0.020305
vn -0.525938 -0.843883 -0.106070
vn 0.511703 -0.854854 -0.085933
vn 0.904381 0.075328 -0.420026
vn -0.132249 0.466283 -0.874694
vn 0.982774 -0.126663 0.134580
vn -0.926796 0.022347 -0.374900
vn -0.922210 0.117655 0.368355
vn -0.431575 -0.894185 0.119066
vn 0.192036 -0.680804 -0.706844
vn 0.364982 0.186003 -0.912245
vn -0.469384 0.745246 -0.473590
vn 0.109519 -0.987115 -0.116662
vn 0.826299 -0.264335 -0.497351
vn 0.649878 -0.584780 -0.485480
vn 0.745119 -0.063132 -0.663937
vn 0.748362 -0.066146 -0.659984
vn -0.929522 -0.011025 0.368602
vn -0.795922 -0.010781 0.605303
vn -0.973919 0.129189 0.186528
vn -0.688981 -0.010259 0.724707
vn -0.937630 0.227236 0.263086
vn 0.749292 -0.067015 -0.658841
vn 0.093913 0.005087 -0.995567
vn 0.748349 -0.066134 -0.659999
vn -0.878915 0.331580 0.342876
vn 0.317701 -0.906301 -0.278720
vn 0.497438 -0.656934 -0.566563
vn 0.833772 -0.486844 -0.260400
vn -0.599520 -0.480066 0.640401
vn 0.110820 -0.588380 -0.800954
vn 0.683705 -0.615907 -0.391415
vn -0.415011 -0.357346 -0.836702
vn -0.019779 -0.917210 0.397913
vn -0.186033 -0.451063 -0.872888
vn -0.094504 -0.820978 0.563085
vn -0.544563 -0.458439 0.702343
vn -0.639253 -0.002714 0.768991
vn 0.550146 0.835060 0.003669
vn 0.855052 -0.488983 0.172574
vn 0.141021 -0.907284 0.396168
vn -0.652255 -0.411873 0.636337
vn -0.603183 0.774552 0.190364
vn 0.627586 0.775013 -0.074104
vn 0.924304 -0.309339 0.223542
vn 0.777568 -0.628799 0.000734
vn -0.161356 -0.818587 0.551252
vn -0.631434 -0.344438 0.694733
vn -0.650740 0.284888 0.703830
vn -0.188803 0.918448 0.347572
vn 0.896700 0.355666 -0.263497
vn 0.808980 -0.587439 0.021606
vn 0.021192 -0.975980 0.216828
vn -0.802132 -0.324347 0.501381
vn -0.659981 0.622855 0.420092
vn 0.280691 0.959346 -0.029458
vn 0.943155 0.310296 -0.119061
vn 0.580242 0.009564 -0.814388
vn -0.018712 -0.977049 0.212192
vn -0.983426 -0.008993 -0.181086
vn -0.336019 -0.795239 -0.504664
vn -0.392266 0.000826 -0.919852
vn 0.837352 0.010897 -0.546556
vn 0.723491 -0.634552 -0.271854
vn 0.730505 0.004086 0.682895
vn 0.994277 0.017426 -0.105402
vn -0.353531 -0.928315 -0.115095
vn 0.062640 -0.994019 -0.089454
vn -0.754023 -0.194423 -0.627414
vn -0.831095 -0.453657 -0.321677
vn -0.595351 -0.433403 -0.676550
vn 0.056126 -0.428919 -0.901598
vn -0.347126 -0.937736 -0.012465
vn 0.708940 -0.627334 -0.322269
vn 0.586788 0.683212 -0.434628
vn -0.906796 -0.365146 -0.210690
vn -0.030109 -0.971516 -0.235052
vn -0.432420 0.893293 0.122640
vn 0.831406 -0.386158 -0.399558
vn -0.914264 0.187950 -0.358881
vn -0.317008 -0.608092 -0.727825
vn -0.122068 0.364361 -0.923223
vn -0.775768 -0.468679 -0.422521
vn -0.714298 0.449068 -0.536765
vn -0.580200 -0.647233 -0.494426
vn 0.323376 0.779709 -0.536173
vn -0.082034 -0.680032 -0.728579
vn -0.100502 -0.861244 -0.498155
vn 0.106910 0.368053 -0.923638
vn -0.865363 -0.242528 -0.438551
vn -0.197029 -0.782231 -0.591011
vn -0.775994 -0.004916 -0.630721
vn 0.899818 0.011039 -0.436127
vn 0.897786 0.011026 -0.440294
vn -0.823171 -0.330329 -0.461815
vn -0.983900 -0.008789 -0.178505
vn 0.885491 0.006592 0.464609
vn -0.213993 -0.951857 -0.219488
vn -0.894635 -0.006785 -0.446746
vn 0.943150 0.007869 0.332275
vn 0.339250 0.007750 -0.940664
vn 0.217692 -0.968759 -0.118807
vn -0.195567 -0.837172 -0.510780
vn 0.033795 0.800013 -0.599031
vn 0.096549 0.317511 -0.943327
vn -0.377063 -0.072861 -0.923317
vn 0.960303 0.008376 0.278832
vn 0.657940 0.189966 -0.728717
vn -0.918612 -0.007412 -0.395090
vn -0.655671 0.398267 -0.641466
vn 0.871752 0.233945 -0.430486
vn -0.780402 0.376096 -0.499524
vn 0.114193 0.005799 -0.993442
vn 0.890571 0.170919 -0.421509
vn 0.906021 0.006953 0.423175
vn 0.133873 -0.039333 -0.990218
vn 0.359262 -0.913144 0.192612
vn -0.556034 -0.788529 0.262769
vn 0.463777 -0.436213 0.771122
vn -0.533838 -0.321655 0.782019
vn 0.442036 -0.191716 0.876270
vn -0.884201 -0.430615 -0.180996
vn 0.918622 -0.391724 0.051828
vn 0.896873 -0.411752 -0.161492
vn 0.899782 -0.264018 -0.347399
vn -0.720302 -0.588104 0.367829
vn 0.662626 -0.474947 0.579096
vn 0.679621 -0.711330 0.179237
vn 0.681930 -0.722430 -0.114307
vn 0.781949 -0.185394 -0.595134
vn 0.224523 -0.948350 0.224103
vn -0.865298 -0.006304 -0.501218
vn 0.258824 -0.510532 0.819980
vn 0.698605 0.010257 -0.715434
vn 0.257371 -0.901588 0.347707
vn 0.224083 -0.969057 -0.103515
vn 0.202096 -0.790305 -0.578425
vn 0.179590 -0.432620 -0.883508
vn -0.354785 -0.609924 0.708605
vn -0.511867 -0.807795 0.292334
vn -0.540781 -0.831530 -0.126939
vn -0.434268 -0.582120 -0.687421
vn -0.303395 -0.798481 0.519980
vn -0.702856 -0.709563 0.050135
vn -0.856962 -0.446221 -0.257883
vn -0.732458 -0.004160 -0.680800
vn 0.071074 -0.303819 -0.950075
vn 0.335256 -0.865414 0.372373
vn 0.825257 -0.470204 -0.312824
vn -0.403234 -0.000142 -0.915097
vn -0.229044 -0.660827 -0.714736
vn 0.277604 -0.932244 0.232072
vn -0.788234 -0.535084 -0.303927
vn 0.701874 -0.368856 0.609358
vn 0.984741 0.010660 -0.173698
vn -0.151103 -0.042675 0.987596
vn -0.922954 -0.383558 0.032241
vn -0.358272 0.859374 0.364853
vn -0.102786 -0.005650 0.994687
vn 0.999141 0.009770 0.040277
vn 0.901793 0.024501 0.431472
vn 0.170242 -0.985266 -0.016380
vn -0.243912 -0.841326 -0.482366
vn 0.967542 -0.238149 0.084538
vn -0.961878 -0.273306 0.009751
vn -0.489281 0.599796 0.633127
vn 0.544764 0.517999 0.659477
vn 0.473388 -0.782042 -0.405358
vn -0.214773 -0.571694 -0.791858
vn 0.988524 0.047365 0.143449
vn -0.942913 -0.314454 -0.109700
vn -0.649168 0.252720 0.717435
vn -0.603034 0.024498 -0.797339
vn 0.267400 -0.001807 0.963584
vn 0.302836 0.411025 0.859854
vn 0.587543 -0.415028 -0.694654
vn -0.292655 -0.776938 0.557423
vn -0.624555 -0.360940 0.692570
vn 0.181699 -0.400812 0.897962
vn -0.306150 -0.007490 0.951954
vn -0.577259 0.250970 0.777037
vn -0.711265 -0.010386 0.702847
vn -0.549082 -0.388231 0.740126
vn -0.177645 -0.974628 0.136172
vn -0.612700 -0.002606 -0.790311
vn -0.095373 -0.005604 0.995426
vn -0.811572 -0.566275 -0.143819
vn -0.175578 -0.936735 0.302821
vn -0.303279 -0.713873 0.631195
vn -0.841866 -0.005682 -0.539656
vn -0.122729 -0.570657 0.811966
vn 0.765247 0.004614 0.643720
vn -0.620301 -0.443619 0.646861
vn 0.179521 -0.002804 0.983750
vn 0.758312 0.004520 0.651877
vn 0.191405 -0.385787 0.902515
vn -0.922816 -0.011020 0.385084
vn 0.927130 0.010974 -0.374579
vn -0.873508 -0.337861 0.350476
vn -0.557874 -0.829152 0.035815
vn -0.190281 -0.895595 0.402123
vn -0.205978 -0.977316 -0.049265
vn 0.599365 -0.367342 -0.711212
vn 0.682539 0.010382 -0.730776
vn -0.098445 -0.990370 -0.097344
vn -0.527247 -0.843614 -0.101615
vn -0.987739 0.139839 -0.069406
vn 0.124909 0.982013 0.141593
vn 0.502833 0.625627 0.596447
vn 0.217442 0.821473 -0.527163
vn -0.074853 0.918585 0.388071
vn 0.005300 0.964894 0.262585
vn 0.623218 0.549635 0.556328
vn -0.858863 -0.235142 0.455042
vn -0.367069 0.917879 0.150855
vn 0.127264 0.454713 -0.881499
vn -0.530469 -0.287216 -0.797565
vn -0.185780 0.937164 -0.295313
vn 0.495552 0.833743 -0.243519
vn 0.904292 0.315801 -0.287272
vn 0.831024 0.170473 -0.529470
vn -0.031315 -0.270690 -0.962157
vn 0.519386 -0.854071 -0.028293
vn -0.542508 0.834266 -0.098418
vn 0.494429 0.865707 -0.078049
vn 0.905641 -0.053218 -0.420693
vn -0.122808 -0.460665 -0.879037
vn 0.980066 0.144953 0.135866
vn -0.926110 -0.037525 -0.375384
vn -0.919603 -0.139363 0.367299
vn -0.449175 0.884322 0.127346
vn 0.178103 0.691028 -0.700542
vn 0.368738 -0.169986 -0.913858
vn -0.454407 -0.750116 -0.480460
vn 0.164433 0.972778 -0.163295
vn 0.820883 0.285431 -0.494651
vn 0.638019 0.602139 -0.479958
vn 0.219323 0.756691 -0.615887
vn 0.298366 0.953405 -0.044681
vn 0.823872 0.505792 -0.255752
vn -0.608898 0.461980 0.644839
vn 0.099048 0.599299 -0.794374
vn 0.671192 0.633119 -0.385568
vn -0.399433 0.805199 -0.438301
vn -0.163191 0.877362 -0.451226
vn -0.053568 0.863654 0.501230
vn -0.196296 0.455643 -0.868249
vn -0.110811 0.813739 0.570570
vn -0.553564 0.440846 0.706556
vn -0.639085 -0.017266 0.768943
vn 0.567105 -0.823637 -0.003660
vn 0.845125 0.504383 0.177092
vn 0.123145 0.906278 0.404345
vn -0.660249 0.392916 0.640069
vn -0.587651 -0.788120 0.183123
vn 0.642837 -0.761700 -0.081079
vn 0.918069 0.325491 0.226283
vn 0.764805 0.644228 0.006534
vn -0.177635 0.810052 0.558804
vn -0.638199 0.325136 0.697846
vn -0.644931 -0.304484 0.700966
vn -0.170154 -0.925372 0.338725
vn 0.903600 -0.334810 -0.267225
vn 0.796257 0.604359 0.026920
vn -0.001157 0.972176 0.234250
vn -0.805118 0.304116 0.509213
vn -0.647952 -0.639298 0.414073
vn 0.300568 -0.952874 -0.041106
vn 0.948676 -0.290778 -0.124346
vn -0.037864 0.974398 0.221620
vn 0.710781 0.651244 -0.265840
vn 0.994419 0.003456 -0.105448
vn -0.371907 0.922145 -0.106462
vn 0.042545 0.995861 -0.080314
vn -0.758004 0.185053 -0.625448
vn -0.857751 0.469729 -0.208850
vn -0.603863 0.427666 -0.672645
vn 0.047620 0.438188 -0.897621
vn -0.387148 0.921593 0.027967
vn -0.517793 0.426074 -0.741857
vn 0.696214 0.644387 -0.316310
vn 0.600236 -0.667261 -0.440998
vn -0.913656 0.349248 -0.207985
vn -0.049547 0.972893 -0.225885
vn -0.414652 -0.902793 0.114141
vn 0.823494 0.406332 -0.395919
vn -0.909926 -0.203604 -0.361359
vn -0.331291 0.604812 -0.724188
vn -0.113896 -0.360733 -0.925689
vn -0.783646 0.455915 -0.421950
vn -0.705882 -0.458156 -0.540206
vn -0.593065 0.640073 -0.488446
vn 0.338929 -0.768017 -0.543394
vn -0.095329 0.684830 -0.722441
vn -0.117563 0.863617 -0.490250
vn 0.143075 -0.337435 -0.930412
vn -0.869974 0.229795 -0.436278
vn -0.212689 0.783612 -0.583709
vn -0.829335 0.318414 -0.459147
vn -0.235253 0.949189 -0.209034
vn 0.199840 0.973510 -0.111095
vn 0.049714 -0.793612 -0.606390
vn 0.102817 -0.306729 -0.946227
vn -0.378489 0.073796 -0.922659
vn 0.661400 -0.170160 -0.730476
vn -0.647577 -0.405349 -0.645241
vn 0.876245 -0.212471 -0.432493
vn -0.772779 -0.386903 -0.503110
vn 0.901808 -0.121052 -0.414836
vn 0.132924 0.051249 -0.989800
vn 0.341061 0.918283 0.201083
vn -0.571609 0.774835 0.269990
vn 0.454956 0.438193 0.775243
vn -0.540091 0.303630 0.784927
vn 0.434352 0.060363 0.898719
vn -0.602774 0.044057 0.796694
vn 0.910610 0.409516 0.055550
vn 0.888446 0.431082 -0.157583
vn 0.894294 0.285187 -0.344829
vn -0.731883 0.570138 0.373216
vn 0.653049 0.482655 0.583585
vn 0.665277 0.723085 0.185889
vn 0.667351 0.736940 -0.107522
vn 0.778037 0.206566 -0.593287
vn 0.204181 0.953605 0.221242
vn 0.248606 0.507956 0.824728
vn 0.239331 0.903285 0.356086
vn 0.204681 0.974258 -0.094482
vn 0.186199 0.799543 -0.571017
vn 0.167802 0.468984 -0.867120
vn -0.366823 0.596098 0.714219
vn -0.527885 0.794644 0.299797
vn -0.557350 0.821672 -0.119234
vn -0.445895 0.579697 -0.682004
vn -0.319188 0.787401 0.527369
vn -0.716517 0.695237 0.057000
vn -0.865552 0.431774 -0.253754
vn -0.935989 -0.055440 0.347637
vn -0.899527 0.017870 0.436499
vn 0.048970 0.276618 -0.959732
vn 0.401790 0.818877 0.409884
vn 0.803387 0.495501 -0.330223
vn -0.813212 0.135256 0.566032
vn 0.432826 0.899353 0.061854
vn 0.577243 0.785634 -0.222643
vn 0.484646 0.863173 0.141603
vn -0.292694 0.696673 -0.654963
vn -0.893489 0.027927 0.448216
vn -0.543019 0.268420 0.795664
vn -0.525645 0.429465 0.734342
vn 0.147271 0.426081 0.892618
vn -0.151824 0.030439 0.987939
vn -0.930518 0.364498 0.035752
vn -0.340934 -0.869788 0.356696
vn 0.902140 -0.010435 0.431316
vn 0.150338 0.988608 -0.007234
vn -0.260784 0.840726 -0.474522
vn 0.962590 0.256678 0.086817
vn -0.967149 0.253915 0.012268
vn -0.477187 -0.615242 0.627511
vn 0.555017 -0.513189 0.654670
vn 0.457560 0.795100 -0.398063
vn -0.230835 0.529726 -0.816153
vn 0.996638 -0.055932 0.059868
vn -0.948663 0.290217 -0.125750
vn -0.643687 -0.262739 0.718773
vn 0.310778 -0.398021 0.863131
vn 0.603548 0.376240 -0.702975
vn -0.338811 0.748342 0.570256
vn -0.622066 0.354472 0.698129
vn 0.171164 0.417245 0.892530
vn 0.777065 0.605114 0.173225
vn -0.743740 -0.610137 -0.273098
vn -0.163161 0.979929 0.114529
vn -0.822759 0.551234 -0.138593
vn -0.194219 0.930179 0.311522
vn -0.317400 0.701779 0.637780
vn -0.134041 0.560513 0.817226
vn -0.629023 0.425065 0.650884
vn 0.502002 0.836943 0.217990
vn -0.884635 0.329851 0.329574
vn -0.574329 0.817465 0.043548
vn -0.208118 0.887830 0.410419
vn -0.225455 0.973424 -0.040194
vn 0.602744 0.413933 -0.682172
vn 0.440934 0.897196 0.024842
vn 0.947121 -0.314540 -0.063451
vn -0.016841 -0.986286 -0.164183
vn -0.935085 -0.341507 -0.094815
vn -0.794885 0.606485 -0.018259
vn 0.446774 -0.894502 0.016080
vn 0.934264 0.350901 -0.063398
vn -0.103215 0.983912 -0.145819
vn -0.962987 0.256380 -0.083222
vn -0.736142 -0.676579 -0.018329
g fff02c13_00017_000e5966_e0
f 1/275/1 61/171/61 2/276/2
f 2/276/2 96/209/96 1/275/1
f 61/171/61 4/277/4 2/276/2
f 61/171/61 60/208/60 4/277/4
f 95/215/95 4/277/4 5/278/5
f 60/208/60 5/278/5 4/277/4
f 97/237/97 5/278/5 24/279/24
f 59/216/59 24/279/24 5/278/5
f 196/42/196 200/18/200 215/41/215
f 156/122/156 155/123/155 53/333/53
f 78/20/78 164/9/164 103/11/103
f 160/117/160 49/194/49 109/332/109
f 151/126/151 209/329/209 219/330/219
f 73/161/73 72/173/72 407/348/407
f 206/8/206 218/7/218 217/6/217
f 202/28/202 170/22/170 195/23/195
f 99/227/99 406/365/406 405/364/405
f 337/135/337 341/129/341 336/136/336
f 405/363/405 49/150/49 99/227/99
f 405/344/405 70/212/70 75/167/75
f 151/126/151 192/121/192 177/328/177
f 80/116/80 203/187/203 307/112/307
f 100/89/100 49/150/49 405/362/405
f 205/21/205 48/53/48 37/24/37
f 13/300/13 10/301/10 88/291/88
f 11/302/11 91/287/91 10/301/10
f 30/319/30 87/292/87 26/320/26
f 11/302/11 12/303/12 89/290/89
f 87/292/87 27/321/27 26/320/26
f 131/289/131 12/303/12 13/304/13
f 372/65/372 377/69/377 378/72/378
f 231/43/231 369/57/369 389/45/389
f 27/321/27 87/292/87 28/322/28
f 87/292/87 30/324/30 29/323/29
f 29/323/29 28/322/28 87/292/87
f 96/209/96 93/154/93 1/275/1
f 63/162/63 19/274/19 24/273/24
f 20/313/20 25/318/25 90/288/90
f 15/307/15 120/282/120 14/306/14
f 92/285/92 15/307/15 16/308/16
f 90/288/90 21/314/21 20/313/20
f 23/316/23 22/315/22 90/288/90
f 22/315/22 21/314/21 90/288/90
f 17/309/17 152/281/152 111/293/111
f 111/293/111 16/308/16 17/309/17
f 211/32/211 144/12/144 36/10/36
f 382/240/382 379/73/379 385/68/385
f 18/311/18 89/290/89 131/289/131
f 217/6/217 215/108/215 36/10/36
f 48/53/48 211/32/211 39/26/39
f 39/26/39 37/24/37 48/53/48
f 14/306/14 89/312/89 25/318/25
f 25/318/25 20/313/20 14/306/14
f 15/307/15 14/306/14 20/313/20
f 20/313/20 21/314/21 15/307/15
f 369/57/369 231/43/231 390/98/390
f 231/16/231 398/91/398 390/93/390
f 16/308/16 15/307/15 21/314/21
f 21/314/21 22/315/22 16/308/16
f 17/309/17 16/308/16 22/315/22
f 22/315/22 23/316/23 17/309/17
f 18/310/18 17/309/17 23/316/23
f 36/10/36 144/12/144 217/6/217
f 36/10/36 39/26/39 211/32/211
f 386/75/386 376/77/376 382/240/382
f 89/312/89 18/311/18 23/317/23
f 23/317/23 25/318/25 89/312/89
f 376/77/376 386/75/386 380/74/380
f 37/24/37 78/20/78 205/21/205
f 10/301/10 13/300/13 30/319/30
f 30/319/30 26/320/26 10/301/10
f 11/302/11 10/301/10 26/320/26
f 401/330/401 351/118/351 350/119/350
f 329/159/329 325/166/325 323/85/323
f 26/320/26 27/321/27 11/302/11
f 93/154/93 24/273/24 19/274/19
f 31/54/31 170/44/170 45/261/45
f 12/303/12 11/302/11 27/321/27
f 27/321/27 28/322/28 12/303/12
f 13/304/13 12/303/12 28/322/28
f 28/322/28 29/323/29 13/304/13
f 1/275/1 93/154/93 19/274/19
f 29/323/29 30/324/30 13/305/13
f 353/111/353 349/120/349 354/114/354
f 42/254/42 208/110/208 108/250/108
f 100/89/100 405/362/405 404/361/404
f 329/159/329 323/85/323 328/86/328
f 351/118/351 401/330/401 402/331/402
f 260/194/260 316/332/316 265/333/265
f 46/259/46 169/95/169 165/104/165
f 165/104/165 168/19/168 358/133/358
f 45/261/45 167/14/167 31/54/31
f 46/259/46 167/14/167 45/261/45
f 227/70/227 334/79/334 367/76/367
f 297/287/297 263/296/263 318/284/318
f 198/115/198 209/329/209 177/328/177
f 217/6/217 218/7/218 171/64/171
f 375/46/375 374/47/374 380/71/380
f 290/198/290 178/132/178 335/137/335
f 256/259/256 365/256/365 392/257/392
f 263/249/263 254/326/254 343/127/343
f 54/223/54 58/219/58 63/217/63
f 63/217/63 59/216/59 54/223/54
f 215/41/215 388/42/388 399/36/399
f 61/171/61 62/163/62 57/220/57
f 55/222/55 54/223/54 59/216/59
f 59/216/59 60/208/60 55/222/55
f 56/221/56 55/222/55 60/208/60
f 368/30/368 383/236/383 399/59/399
f 60/208/60 61/171/61 56/221/56
f 58/218/58 57/220/57 62/163/62
f 62/163/62 63/162/63 58/218/58
f 59/216/59 63/217/63 24/279/24
f 97/237/97 95/215/95 5/278/5
f 377/69/377 372/65/372 371/83/371
f 62/163/62 61/171/61 1/275/1
f 1/275/1 19/274/19 62/163/62
f 60/208/60 59/216/59 5/278/5
f 95/215/95 94/168/94 4/277/4
f 2/276/2 4/277/4 94/168/94
f 94/168/94 96/209/96 2/276/2
f 391/49/391 383/236/383 381/239/381
f 388/42/388 369/57/369 368/55/368
f 63/162/63 62/163/62 19/274/19
f 93/154/93 97/165/97 24/273/24
f 383/236/383 368/30/368 384/66/384
f 173/138/173 112/185/112 254/326/254
f 366/272/366 361/270/361 357/271/357
f 364/25/364 227/94/227 231/56/231
f 164/9/164 365/95/365 168/19/168
f 160/117/160 220/331/220 159/118/159
f 349/120/349 353/111/353 204/109/204
f 66/248/66 65/213/65 71/211/71
f 71/211/71 72/210/72 66/248/66
f 64/214/64 69/245/69 75/167/75
f 369/57/369 388/42/388 389/45/389
f 75/167/75 70/212/70 64/214/64
f 65/213/65 64/214/64 70/212/70
f 70/212/70 71/211/71 65/213/65
f 67/244/67 66/246/66 72/173/72
f 72/173/72 73/161/73 67/244/67
f 3/1/3 44/4/44 40/2/40
f 68/243/68 67/244/67 73/161/73
f 73/161/73 74/149/74 68/243/68
f 68/243/68 74/149/74 75/147/75
f 75/147/75 69/242/69 68/243/68
f 72/210/72 71/211/71 406/346/406
f 217/6/217 144/12/144 206/8/206
f 355/113/355 315/143/315 354/114/354
f 347/123/347 316/332/316 346/124/346
f 71/211/71 70/212/70 405/345/405
f 3/1/3 40/5/40 38/3/38
f 99/227/99 101/233/101 406/365/406
f 380/71/380 381/239/381 375/46/375
f 80/193/80 51/190/51 53/333/53
f 383/236/383 391/49/391 399/59/399
f 350/119/350 354/114/354 349/120/349
f 74/149/74 73/161/73 404/350/404
f 102/152/102 100/89/100 404/361/404
f 353/111/353 354/114/354 253/103/253
f 18/310/18 152/281/152 17/309/17
f 111/293/111 92/285/92 16/308/16
f 216/99/216 403/340/403 360/134/360
f 212/38/212 388/42/388 200/18/200
f 32/139/32 107/139/107 121/122/121
f 259/29/259 395/27/395 393/61/393
f 156/122/156 51/190/51 79/184/79
f 386/87/386 391/49/391 381/239/381
f 52/189/52 149/127/149 121/249/121
f 50/191/50 81/192/81 112/186/112
f 207/27/207 195/23/195 211/39/211
f 379/73/379 373/63/373 372/65/372
f 400/90/400 367/76/367 334/79/334
f 53/333/53 51/190/51 156/122/156
f 83/197/83 145/131/145 118/195/118
f 141/137/141 145/131/145 146/130/146
f 296/288/296 245/317/245 247/318/247
f 141/137/141 47/200/47 118/199/118
f 195/23/195 206/8/206 144/12/144
f 86/334/86 77/203/77 133/202/133
f 320/169/320 325/151/325 321/172/321
f 391/49/391 386/87/386 398/58/398
f 118/199/118 47/200/47 86/205/86
f 86/205/86 125/204/125 118/199/118
f 127/224/127 86/205/86 47/200/47
f 47/200/47 76/201/76 127/224/127
f 77/203/77 82/228/82 115/226/115
f 115/226/115 133/202/133 77/203/77
f 127/335/127 114/225/114 77/203/77
f 92/285/92 120/282/120 15/307/15
f 320/169/320 326/81/326 324/153/324
f 114/225/114 117/229/117 85/206/85
f 85/206/85 77/203/77 114/225/114
f 115/230/115 82/228/82 119/231/119
f 119/231/119 82/228/82 85/206/85
f 85/206/85 117/207/117 119/231/119
f 379/73/379 372/65/372 378/72/378
f 153/125/153 219/330/219 220/331/220
f 84/234/84 47/200/47 141/137/141
f 219/330/219 153/125/153 151/126/151
f 47/200/47 84/234/84 76/201/76
f 82/228/82 77/203/77 85/206/85
f 334/79/334 227/70/227 333/82/333
f 91/287/91 79/297/79 51/286/51
f 51/286/51 88/291/88 91/287/91
f 80/193/80 298/190/298 191/188/191
f 150/283/150 13/300/13 88/291/88
f 326/81/326 320/169/320 321/172/321
f 125/336/125 86/337/86 133/202/133
f 14/306/14 120/282/120 116/284/116
f 116/284/116 89/290/89 14/306/14
f 325/166/325 329/159/329 331/232/331
f 86/338/86 127/339/127 77/203/77
f 50/298/50 92/285/92 111/293/111
f 111/293/111 81/299/81 50/298/50
f 92/189/92 50/191/50 149/127/149
f 230/17/230 400/7/400 228/13/228
f 13/300/13 150/283/150 110/294/110
f 13/304/13 110/294/110 131/289/131
f 131/289/131 89/290/89 12/303/12
f 331/232/331 330/155/330 332/84/332
f 10/301/10 91/287/91 88/291/88
f 143/135/143 104/251/104 32/326/32
f 211/39/211 48/29/48 207/27/207
f 191/280/191 150/283/150 88/291/88
f 385/68/385 390/78/390 382/240/382
f 88/291/88 51/286/51 191/280/191
f 148/128/148 106/144/106 95/181/95
f 390/78/390 385/68/385 369/34/369
f 95/181/95 97/179/97 148/128/148
f 107/139/107 104/146/104 93/253/93
f 93/253/93 96/180/96 107/139/107
f 106/144/106 105/145/105 94/182/94
f 94/182/94 95/181/95 106/144/106
f 105/145/105 107/139/107 96/180/96
f 96/180/96 94/182/94 105/145/105
f 104/251/104 148/128/148 97/179/97
f 97/179/97 93/183/93 104/251/104
f 113/141/113 108/250/108 98/252/98
f 98/252/98 101/175/101 113/141/113
f 195/23/195 207/27/207 202/28/202
f 173/138/173 254/326/254 337/135/337
f 160/142/160 113/141/113 101/175/101
f 101/175/101 99/177/99 160/142/160
f 108/250/108 203/140/203 102/174/102
f 102/174/102 98/178/98 108/250/108
f 392/28/392 393/61/393 395/27/395
f 100/176/100 102/174/102 203/140/203
f 338/12/338 387/23/387 397/39/397
f 336/136/336 178/132/178 173/138/173
f 121/249/121 107/326/107 156/251/156
f 32/139/32 104/146/104 107/139/107
f 156/122/156 79/184/79 121/139/121
f 346/124/346 341/129/341 347/123/347
f 197/45/197 9/43/9 212/33/212
f 345/125/345 340/130/340 346/124/346
f 160/142/160 163/113/163 113/141/113
f 287/147/287 409/360/409 286/149/286
f 253/103/253 363/14/363 362/54/362
f 149/127/149 50/191/50 32/326/32
f 52/295/52 120/282/120 92/285/92
f 92/285/92 149/298/149 52/295/52
f 121/296/121 116/284/116 120/282/120
f 120/282/120 52/295/52 121/296/121
f 121/296/121 79/297/79 91/287/91
f 91/287/91 116/284/116 121/296/121
f 156/122/156 105/145/105 155/123/155
f 155/123/155 105/145/105 33/327/33
f 156/122/156 107/139/107 105/145/105
f 89/290/89 116/284/116 91/287/91
f 91/287/91 11/302/11 89/290/89
f 163/113/163 108/250/108 113/141/113
f 124/158/124 122/169/122 134/157/134
f 347/123/347 255/327/255 312/145/312
f 306/112/306 352/117/352 260/194/260
f 319/282/319 263/296/263 264/295/264
f 322/160/322 329/159/329 328/86/328
f 227/70/227 327/164/327 333/82/333
f 228/92/228 327/148/327 227/247/227
f 295/290/295 297/287/297 318/284/318
f 355/113/355 317/141/317 315/143/315
f 297/287/297 295/290/295 233/302/233
f 348/122/348 312/145/312 314/139/314
f 322/158/322 328/157/328 320/169/320
f 348/122/348 347/123/347 312/145/312
f 330/155/330 322/160/322 324/156/324
f 406/365/406 101/233/101 407/366/407
f 6/70/6 139/82/139 132/164/132
f 7/92/7 6/247/6 132/148/132
f 263/296/263 297/287/297 262/297/262
f 136/155/136 128/156/128 124/160/124
f 382/240/382 398/31/398 386/75/386
f 398/31/398 382/240/382 390/78/390
f 124/160/124 134/86/134 135/159/135
f 135/159/135 136/155/136 124/160/124
f 135/159/135 134/86/134 126/85/126
f 122/169/122 124/158/124 128/153/128
f 122/169/122 126/238/126 134/157/134
f 130/88/130 128/156/128 136/155/136
f 136/155/136 138/84/138 130/88/130
f 136/155/136 135/159/135 137/232/137
f 137/232/137 138/84/138 136/155/136
f 135/159/135 126/85/126 129/166/129
f 384/66/384 369/34/369 385/68/385
f 129/166/129 137/232/137 135/159/135
f 130/81/130 123/172/123 122/169/122
f 122/169/122 128/153/128 130/81/130
f 129/151/129 126/238/126 122/169/122
f 122/169/122 123/172/123 129/151/129
f 218/90/218 130/88/130 138/84/138
f 138/84/138 140/79/140 218/90/218
f 138/84/138 137/232/137 139/82/139
f 139/82/139 140/79/140 138/84/138
f 132/164/132 139/82/139 137/232/137
f 137/232/137 129/166/129 132/164/132
f 218/80/218 7/92/7 123/172/123
f 123/172/123 130/81/130 218/80/218
f 123/172/123 7/92/7 132/148/132
f 132/148/132 129/151/129 123/172/123
f 218/90/218 140/79/140 171/76/171
f 254/326/254 112/185/112 261/191/261
f 140/79/140 139/82/139 6/70/6
f 377/69/377 384/66/384 378/72/378
f 161/111/161 204/109/204 213/342/213
f 409/359/409 413/358/413 285/161/285
f 166/107/166 31/103/31 161/111/161
f 31/103/31 42/254/42 108/250/108
f 342/128/342 255/327/255 337/135/337
f 101/233/101 98/241/98 407/366/407
f 350/119/350 355/113/355 354/114/354
f 142/136/142 173/138/173 178/132/178
f 178/132/178 141/137/141 142/136/142
f 155/123/155 154/124/154 109/332/109
f 173/138/173 142/136/142 143/135/143
f 84/198/84 141/137/141 178/132/178
f 178/132/178 76/196/76 84/198/84
f 144/12/144 211/39/211 195/23/195
f 103/11/103 205/61/205 78/20/78
f 142/136/142 141/137/141 146/130/146
f 145/131/145 141/137/141 118/195/118
f 148/128/148 143/135/143 33/327/33
f 33/327/33 143/135/143 147/129/147
f 142/136/142 146/130/146 147/129/147
f 151/126/151 145/131/145 83/197/83
f 253/103/253 315/143/315 42/254/42
f 192/121/192 151/126/151 83/197/83
f 376/77/376 374/51/374 373/63/373
f 313/144/313 255/327/255 342/128/342
f 145/131/145 151/126/151 153/125/153
f 153/125/153 146/130/146 145/131/145
f 147/129/147 146/130/146 154/124/154
f 153/125/153 154/124/154 146/130/146
f 154/124/154 155/123/155 147/129/147
f 155/123/155 33/327/33 147/129/147
f 106/144/106 148/128/148 33/327/33
f 148/128/148 104/251/104 143/135/143
f 173/138/173 143/135/143 32/326/32
f 131/289/131 152/281/152 18/310/18
f 90/288/90 25/318/25 23/317/23
f 151/126/151 177/328/177 209/329/209
f 198/115/198 157/120/157 209/329/209
f 347/123/347 341/129/341 255/327/255
f 342/128/342 337/135/337 311/251/311
f 158/119/158 219/330/219 209/329/209
f 209/329/209 157/120/157 158/119/158
f 159/118/159 220/331/220 219/330/219
f 219/330/219 158/119/158 159/118/159
f 154/124/154 220/331/220 109/332/109
f 160/117/160 109/332/109 220/331/220
f 49/194/49 53/333/53 109/332/109
f 155/123/155 109/332/109 53/333/53
f 373/63/373 370/67/370 372/65/372
f 49/194/49 100/112/100 80/116/80
f 80/193/80 191/188/191 51/190/51
f 53/333/53 49/194/49 80/193/80
f 204/109/204 157/120/157 198/115/198
f 178/132/178 290/198/290 76/196/76
f 131/289/131 240/310/240 152/281/152
f 157/120/157 204/109/204 161/111/161
f 158/119/158 157/120/157 162/114/162
f 161/111/161 162/114/162 157/120/157
f 163/113/163 159/118/159 158/119/158
f 158/119/158 162/114/162 163/113/163
f 159/118/159 163/113/163 160/142/160
f 143/135/143 142/136/142 147/129/147
f 285/161/285 413/358/413 412/357/412
f 99/112/99 49/194/49 160/117/160
f 359/107/359 353/111/353 253/103/253
f 80/116/80 100/112/100 203/187/203
f 284/210/284 412/356/412 411/355/411
f 351/118/351 352/142/352 355/113/355
f 374/51/374 376/77/376 380/74/380
f 352/117/352 402/331/402 316/332/316
f 220/331/220 154/124/154 153/125/153
f 161/111/161 31/103/31 162/114/162
f 163/113/163 162/114/162 108/250/108
f 31/103/31 108/250/108 162/114/162
f 336/136/336 341/129/341 340/130/340
f 341/129/341 346/124/346 340/130/340
f 283/211/283 411/355/411 410/354/410
f 108/250/108 208/110/208 203/377/203
f 409/352/409 287/167/287 410/353/410
f 210/62/210 9/56/9 213/102/213
f 216/100/216 42/325/42 167/40/167
f 31/103/31 167/40/167 42/325/42
f 329/159/329 322/160/322 330/155/330
f 166/101/166 213/102/213 9/56/9
f 330/155/330 326/88/326 332/84/332
f 320/169/320 328/157/328 323/238/323
f 371/83/371 375/46/375 377/69/377
f 320/169/320 324/153/324 322/158/322
f 255/327/255 341/129/341 337/135/337
f 166/25/166 170/44/170 31/54/31
f 215/41/215 217/36/217 196/42/196
f 121/249/121 149/127/149 32/326/32
f 46/259/46 45/261/45 169/256/169
f 378/72/378 385/68/385 379/73/379
f 75/147/75 74/149/74 404/351/404
f 353/111/353 213/342/213 204/109/204
f 165/104/165 169/95/169 168/19/168
f 46/259/46 165/104/165 221/340/221
f 326/88/326 330/155/330 324/156/324
f 165/104/165 358/133/358 222/341/222
f 216/99/216 221/340/221 222/341/222
f 327/148/327 321/172/321 325/151/325
f 373/63/373 379/73/379 376/77/376
f 166/25/166 9/56/9 6/94/6
f 402/331/402 345/125/345 346/124/346
f 173/138/173 32/326/32 112/185/112
f 32/326/32 50/191/50 112/185/112
f 404/350/404 73/161/73 408/349/408
f 173/138/173 337/135/337 336/136/336
f 166/25/166 6/94/6 7/37/7
f 7/37/7 8/17/8 166/25/166
f 170/44/170 166/25/166 8/17/8
f 330/155/330 331/232/331 329/159/329
f 169/97/169 45/261/45 202/28/202
f 202/28/202 103/11/103 169/97/169
f 178/132/178 336/136/336 335/137/335
f 9/56/9 210/62/210 212/96/212
f 169/95/169 103/11/103 164/9/164
f 164/9/164 168/19/168 169/95/169
f 375/46/375 371/83/371 374/47/374
f 367/64/367 398/52/398 227/15/227
f 73/161/73 407/348/407 408/349/408
f 346/124/346 316/332/316 402/331/402
f 170/22/170 202/28/202 45/261/45
f 364/25/364 228/37/228 227/94/227
f 369/34/369 384/66/384 368/30/368
f 171/64/171 140/60/140 217/6/217
f 387/23/387 230/17/230 229/22/229
f 356/269/356 366/272/366 357/271/357
f 230/17/230 387/23/387 394/8/394
f 365/95/365 164/9/164 310/11/310
f 260/194/260 80/116/80 307/112/307
f 392/28/392 365/97/365 310/11/310
f 336/136/336 340/130/340 335/137/335
f 231/56/231 212/96/212 210/62/210
f 201/235/201 199/35/199 217/59/217
f 176/65/176 175/83/175 174/67/174
f 179/63/179 176/65/176 174/67/174
f 180/51/180 179/63/179 174/67/174
f 175/83/175 180/47/180 174/67/174
f 183/69/183 175/83/175 176/65/176
f 176/65/176 184/72/184 183/69/183
f 185/73/185 184/72/184 176/65/176
f 182/77/182 179/63/179 180/51/180
f 180/51/180 186/74/186 182/77/182
f 179/63/179 182/77/182 185/73/185
f 185/73/185 176/65/176 179/63/179
f 181/46/181 180/47/180 175/83/175
f 175/83/175 183/69/183 181/46/181
f 181/46/181 186/71/186 180/47/180
f 190/66/190 189/236/189 183/69/183
f 183/69/183 184/72/184 190/66/190
f 189/236/189 187/239/187 181/46/181
f 181/46/181 183/69/183 189/236/189
f 193/68/193 190/66/190 184/72/184
f 184/72/184 185/73/185 193/68/193
f 194/75/194 188/240/188 182/77/182
f 182/77/182 186/74/186 194/75/194
f 188/240/188 193/68/193 185/73/185
f 185/73/185 182/77/182 188/240/188
f 187/239/187 194/87/194 186/71/186
f 186/71/186 181/46/181 187/239/187
f 201/30/201 217/59/217 189/236/189
f 189/236/189 190/66/190 201/30/201
f 140/49/140 187/239/187 189/236/189
f 189/236/189 217/59/217 140/49/140
f 214/34/214 201/30/201 190/66/190
f 190/66/190 193/68/193 214/34/214
f 6/31/6 172/78/172 188/240/188
f 188/240/188 194/75/194 6/31/6
f 172/78/172 214/34/214 193/68/193
f 193/68/193 188/240/188 172/78/172
f 140/49/140 6/58/6 194/87/194
f 194/87/194 187/239/187 140/49/140
f 388/42/388 212/38/212 389/45/389
f 72/210/72 406/346/406 407/347/407
f 214/57/214 197/45/197 196/42/196
f 196/42/196 201/55/201 214/57/214
f 229/44/229 230/17/230 364/25/364
f 9/16/9 172/93/172 6/91/6
f 214/57/214 172/98/172 9/43/9
f 9/43/9 197/45/197 214/57/214
f 228/37/228 364/25/364 230/17/230
f 196/42/196 217/36/217 199/50/199
f 199/50/199 201/55/201 196/42/196
f 385/68/385 378/72/378 384/66/384
f 375/46/375 383/236/383 377/69/377
f 196/42/196 197/45/197 212/38/212
f 212/38/212 200/18/200 196/42/196
f 48/29/48 205/61/205 207/27/207
f 8/17/8 206/8/206 195/23/195
f 195/23/195 170/22/170 8/17/8
f 205/61/205 103/11/103 202/28/202
f 202/28/202 207/27/207 205/61/205
f 8/17/8 7/13/7 218/7/218
f 218/7/218 206/8/206 8/17/8
f 106/144/106 33/327/33 105/145/105
f 46/259/46 221/340/221 167/134/167
f 216/99/216 167/134/167 221/340/221
f 165/104/165 222/341/222 221/340/221
f 161/111/161 213/342/213 166/107/166
f 223/275/223 224/276/224 273/171/273
f 224/276/224 223/275/223 303/209/303
f 273/171/273 224/276/224 225/277/225
f 273/171/273 225/277/225 272/208/272
f 302/215/302 226/278/226 225/277/225
f 272/208/272 225/277/225 226/278/226
f 304/237/304 246/279/246 226/278/226
f 271/216/271 226/278/226 246/279/246
f 388/42/388 215/41/215 200/18/200
f 348/122/348 265/333/265 347/123/347
f 78/20/78 310/11/310 164/9/164
f 352/117/352 316/332/316 260/194/260
f 344/126/344 401/330/401 396/329/396
f 285/161/285 412/357/412 284/173/284
f 394/8/394 399/6/399 400/7/400
f 392/28/392 387/23/387 229/22/229
f 306/227/306 410/372/410 411/373/411
f 345/125/345 339/131/339 340/130/340
f 308/233/308 412/374/412 305/241/305
f 410/353/410 287/167/287 282/212/282
f 344/126/344 177/328/177 192/121/192
f 71/211/71 405/345/405 406/346/406
f 307/89/307 410/370/410 260/150/260
f 393/21/393 37/24/37 259/53/259
f 235/300/235 294/291/294 232/301/232
f 233/302/233 232/301/232 297/287/297
f 252/319/252 248/320/248 293/292/293
f 233/302/233 295/290/295 234/303/234
f 293/292/293 248/320/248 249/321/249
f 131/289/131 235/304/235 234/303/234
f 309/152/309 413/376/413 409/369/409
f 359/101/359 231/56/231 213/102/213
f 249/321/249 250/322/250 293/292/293
f 293/292/293 251/323/251 252/324/252
f 251/323/251 293/292/293 250/322/250
f 303/209/303 223/275/223 300/154/300
f 275/162/275 246/273/246 241/274/241
f 242/313/242 296/288/296 247/318/247
f 237/307/237 236/306/236 319/282/319
f 299/285/299 238/308/238 237/307/237
f 296/288/296 242/313/242 243/314/243
f 245/316/245 296/288/296 244/315/244
f 244/315/244 296/288/296 243/314/243
f 239/309/239 111/293/111 152/281/152
f 111/293/111 239/309/239 238/308/238
f 397/32/397 36/10/36 338/12/338
f 381/239/381 380/71/380 386/87/386
f 240/311/240 131/289/131 295/290/295
f 399/6/399 36/10/36 215/108/215
f 259/53/259 39/26/39 397/32/397
f 39/26/39 259/53/259 37/24/37
f 236/306/236 247/318/247 295/312/295
f 247/318/247 236/306/236 242/313/242
f 237/307/237 242/313/242 236/306/236
f 242/313/242 237/307/237 243/314/243
f 305/170/305 413/376/413 309/152/309
f 253/103/253 42/325/42 360/40/360
f 238/308/238 243/314/243 237/307/237
f 243/314/243 238/308/238 244/315/244
f 239/309/239 244/315/244 238/308/238
f 244/315/244 239/309/239 245/316/245
f 240/310/240 245/316/245 239/309/239
f 36/10/36 399/6/399 338/12/338
f 36/10/36 397/32/397 39/26/39
f 384/66/384 377/69/377 383/236/383
f 295/312/295 245/317/245 240/311/240
f 245/317/245 295/312/295 247/318/247
f 379/73/379 382/240/382 376/77/376
f 37/24/37 393/21/393 78/20/78
f 232/301/232 252/319/252 235/300/235
f 252/319/252 232/301/232 248/320/248
f 233/302/233 248/320/248 232/301/232
f 392/257/392 229/263/229 257/261/257
f 265/333/265 80/193/80 260/194/260
f 248/320/248 233/302/233 249/321/249
f 300/154/300 241/274/241 246/273/246
f 362/54/362 257/258/257 229/262/229
f 234/303/234 249/321/249 233/302/233
f 249/321/249 234/303/234 250/322/250
f 235/304/235 250/322/250 234/303/234
f 250/322/250 235/304/235 251/323/251
f 223/275/223 241/274/241 300/154/300
f 251/323/251 235/305/235 252/324/252
f 210/62/210 213/102/213 231/56/231
f 42/254/42 315/143/315 208/110/208
f 404/343/404 405/344/405 75/167/75
f 364/25/364 359/101/359 253/103/253
f 257/261/257 256/259/256 392/257/392
f 231/56/231 359/101/359 364/25/364
f 256/260/256 358/104/358 365/95/365
f 313/144/313 312/145/312 255/327/255
f 257/258/257 362/54/362 363/14/363
f 256/105/256 257/258/257 363/14/363
f 321/172/321 400/80/400 326/81/326
f 263/296/263 319/282/319 318/284/318
f 198/115/198 177/328/177 396/329/396
f 399/6/399 367/64/367 400/7/400
f 256/106/256 403/340/403 358/104/358
f 339/131/339 118/195/118 335/137/335
f 358/104/358 168/19/168 365/95/365
f 333/82/333 332/84/332 334/79/334
f 266/223/266 275/217/275 270/219/270
f 275/217/275 266/223/266 271/216/271
f 393/61/393 392/28/392 310/11/310
f 273/171/273 269/220/269 274/163/274
f 267/222/267 271/216/271 266/223/266
f 271/216/271 267/222/267 272/208/272
f 268/221/268 272/208/272 267/222/267
f 315/143/315 203/377/203 208/110/208
f 272/208/272 268/221/268 273/171/273
f 270/218/270 274/163/274 269/220/269
f 274/163/274 270/218/270 275/162/275
f 271/216/271 246/279/246 275/217/275
f 304/237/304 226/278/226 302/215/302
f 412/374/412 413/375/413 305/241/305
f 274/163/274 223/275/223 273/171/273
f 223/275/223 274/163/274 241/274/241
f 272/208/272 226/278/226 271/216/271
f 302/215/302 225/277/225 301/168/301
f 224/276/224 301/168/301 225/277/225
f 301/168/301 224/276/224 303/209/303
f 383/236/383 375/46/375 381/239/381
f 411/373/411 412/374/412 308/233/308
f 275/162/275 241/274/241 274/163/274
f 300/154/300 246/273/246 304/165/304
f 253/103/253 354/114/354 315/143/315
f 321/172/321 327/148/327 228/92/228
f 216/99/216 222/341/222 403/340/403
f 347/123/347 265/333/265 316/332/316
f 360/134/360 256/106/256 363/48/363
f 352/117/352 351/118/351 402/331/402
f 399/50/399 388/42/388 368/55/368
f 278/248/278 283/211/283 277/213/277
f 283/211/283 278/248/278 284/210/284
f 276/214/276 287/167/287 281/245/281
f 364/25/364 253/103/253 362/54/362
f 287/167/287 276/214/276 282/212/282
f 277/213/277 282/212/282 276/214/276
f 282/212/282 277/213/277 283/211/283
f 279/244/279 284/173/284 278/246/278
f 284/173/284 279/244/279 285/161/285
f 410/371/410 306/227/306 260/150/260
f 280/243/280 285/161/285 279/244/279
f 285/161/285 280/243/280 286/149/286
f 280/243/280 287/147/287 286/149/286
f 287/147/287 280/243/280 281/242/281
f 284/210/284 411/355/411 283/211/283
f 399/6/399 394/8/394 338/12/338
f 364/25/364 362/54/362 229/44/229
f 192/121/192 83/197/83 344/126/344
f 283/211/283 410/354/410 282/212/282
f 372/65/372 370/67/370 371/83/371
f 306/227/306 411/373/411 308/233/308
f 307/89/307 409/369/409 410/370/410
f 80/193/80 265/333/265 298/190/298
f 367/64/367 399/6/399 391/60/391
f 216/100/216 360/40/360 42/325/42
f 286/149/286 409/359/409 285/161/285
f 309/152/309 409/369/409 307/89/307
f 363/14/363 253/103/253 360/40/360
f 240/310/240 239/309/239 152/281/152
f 111/293/111 238/308/238 299/285/299
f 332/84/332 333/82/333 331/232/331
f 102/152/102 404/361/404 408/368/408
f 254/139/254 263/122/263 314/139/314
f 374/51/374 370/67/370 373/63/373
f 348/122/348 262/184/262 298/190/298
f 98/170/98 102/152/102 408/368/408
f 264/189/264 263/249/263 343/127/343
f 261/191/261 112/186/112 81/192/81
f 395/27/395 397/39/397 387/23/387
f 331/232/331 327/164/327 325/166/325
f 400/80/400 321/172/321 228/92/228
f 265/333/265 348/122/348 298/190/298
f 83/197/83 118/195/118 339/131/339
f 335/137/335 340/130/340 339/131/339
f 198/115/198 396/329/396 349/120/349
f 335/137/335 118/199/118 258/200/258
f 387/23/387 338/12/338 394/8/394
f 292/334/292 133/202/133 288/203/288
f 325/151/325 320/169/320 323/238/323
f 344/126/344 396/329/396 177/328/177
f 118/199/118 292/205/292 258/200/258
f 292/205/292 118/199/118 125/204/125
f 127/224/127 258/200/258 292/205/292
f 258/200/258 127/224/127 76/201/76
f 288/203/288 115/226/115 289/228/289
f 115/226/115 288/203/288 133/202/133
f 127/335/127 288/203/288 114/225/114
f 299/285/299 237/307/237 319/282/319
f 332/84/332 400/90/400 334/79/334
f 114/225/114 291/206/291 117/229/117
f 291/206/291 114/225/114 288/203/288
f 115/230/115 119/231/119 289/228/289
f 119/231/119 291/206/291 289/228/289
f 291/206/291 119/231/119 117/207/117
f 371/83/371 370/67/370 374/47/374
f 345/125/345 402/331/402 401/330/401
f 290/234/290 335/137/335 258/200/258
f 401/330/401 344/126/344 345/125/345
f 258/200/258 76/201/76 290/234/290
f 289/228/289 291/206/291 288/203/288
f 327/164/327 331/232/331 333/82/333
f 297/287/297 298/286/298 262/297/262
f 298/286/298 297/287/297 294/291/294
f 398/52/398 367/64/367 391/255/391
f 150/283/150 294/291/294 235/300/235
f 400/90/400 332/84/332 326/88/326
f 125/336/125 133/202/133 292/337/292
f 236/306/236 318/284/318 319/282/319
f 318/284/318 236/306/236 295/290/295
f 400/7/400 230/17/230 394/8/394
f 292/338/292 288/203/288 127/339/127
f 261/298/261 111/293/111 299/285/299
f 111/293/111 261/298/261 81/299/81
f 299/189/299 343/127/343 261/191/261
f 231/16/231 227/15/227 398/52/398
f 235/300/235 110/294/110 150/283/150
f 235/304/235 131/289/131 110/294/110
f 131/289/131 234/303/234 295/290/295
f 204/109/204 198/115/198 349/120/349
f 232/301/232 294/291/294 297/287/297
f 337/135/337 254/326/254 311/251/311
f 397/39/397 395/27/395 259/29/259
f 191/280/191 294/291/294 150/283/150
f 355/113/355 350/119/350 351/118/351
f 294/291/294 191/280/191 298/286/298
f 342/128/342 302/181/302 313/144/313
f 407/366/407 98/241/98 408/367/408
f 302/181/302 342/128/342 304/179/304
f 314/139/314 300/253/300 311/146/311
f 300/253/300 314/139/314 303/180/303
f 313/144/313 301/182/301 312/145/312
f 301/182/301 313/144/313 302/181/302
f 312/145/312 303/180/303 314/139/314
f 303/180/303 312/145/312 301/182/301
f 311/251/311 304/179/304 342/128/342
f 304/179/304 311/251/311 300/183/300
f 317/141/317 305/252/305 315/143/315
f 305/252/305 317/141/317 308/175/308
f 387/23/387 392/28/392 395/27/395
f 350/119/350 396/329/396 401/330/401
f 352/142/352 308/175/308 317/141/317
f 308/175/308 352/142/352 306/177/306
f 315/143/315 309/174/309 203/140/203
f 309/174/309 315/143/315 305/178/305
f 256/106/256 360/134/360 403/340/403
f 307/176/307 203/140/203 309/174/309
f 310/11/310 78/20/78 393/61/393
f 344/126/344 83/197/83 339/131/339
f 263/249/263 348/251/348 314/326/314
f 254/139/254 314/139/314 311/146/311
f 348/122/348 263/139/263 262/184/262
f 339/131/339 345/125/345 344/126/344
f 389/45/389 212/33/212 231/43/231
f 396/329/396 350/119/350 349/120/349
f 352/142/352 317/141/317 355/113/355
f 353/111/353 359/107/359 213/342/213
f 358/104/358 403/340/403 222/341/222
f 343/127/343 254/326/254 261/191/261
f 264/295/264 299/285/299 319/282/319
f 299/285/299 264/295/264 343/298/343
g fff02c13_00017_000e5966_e1
f 34/267/34 43/268/43 35/265/35
f 35/265/35 43/266/43 41/264/41
