# fff02c13_00039_0014a65f
o fff02c13_00039_0014a65f
v -0.002948 -3.290161 -1.246204
v -0.005671 -3.290161 -0.451328
v -0.020730 0.143321 1.249508
v -0.020730 0.143321 -1.318663
v -0.020730 1.636434 1.249508
v -0.020730 1.636434 -1.318663
v -0.020730 -0.000818 1.249508
v -0.020730 -0.000818 -1.318663
v -0.020730 1.715483 1.249508
v -0.020730 1.715483 -1.318663
v -0.005671 3.276527 -0.451328
v -0.002948 3.276527 -1.246204
v -0.020730 -1.726057 1.249508
v -0.020730 -1.726057 -1.318663
v -0.020730 -1.647008 1.249508
v -0.020730 -1.647008 -1.318663
v -0.005671 3.276527 -0.711307
v -0.005671 -3.290161 -0.711307
v -0.005671 3.276527 -0.653836
v -0.005671 -3.290161 -0.653836
v 0.586797 -3.290161 -1.246340
v 0.586797 3.276527 -1.246340
v 0.586797 3.276527 -0.711307
v 0.586797 -3.290161 -0.711307
v 0.002498 3.276527 -0.711307
v 0.002498 -3.290161 -0.711307
v 0.377280 -0.084622 -1.169678
v -0.013408 -1.683597 -1.256230
v -0.013408 -1.683597 -0.721197
v 0.593896 -1.683597 -1.256230
v 0.593896 -1.683597 -0.721197
v -0.005671 3.276527 -1.303404
v -0.005671 -3.290161 -1.303404
v -0.013408 0.016458 -1.256230
v -0.013408 0.016458 -0.721197
v 0.593896 0.016458 -1.256230
v 0.593896 0.016458 -0.721197
v -0.013408 1.679366 -1.256230
v -0.013408 1.679366 -0.721197
v 0.593896 1.679366 -1.256230
v 0.593896 1.679366 -0.721197
v -0.002948 -3.290161 -0.397470
v -0.005671 -3.290161 0.397406
v -0.005671 3.276527 0.397406
v -0.002948 3.276527 -0.397470
v -0.005671 3.276527 0.137427
v -0.005671 -3.290161 0.137427
v -0.005671 3.276527 0.194898
v -0.005671 -3.290161 0.194898
v 0.586797 -3.290161 -0.397606
v 0.586797 3.276527 -0.397606
v 0.586797 3.276527 0.137427
v 0.586797 -3.290161 0.137427
v 0.002498 3.276527 0.137427
v 0.002498 -3.290161 0.137427
v 0.377280 -1.902122 -0.351059
v -0.013408 -1.683597 -0.407496
v -0.013408 -1.683597 0.127537
v 0.593896 -1.683597 -0.407496
v 0.593896 -1.683597 0.127537
v -0.005671 3.276527 -0.454670
v -0.005671 -3.290161 -0.454670
v -0.013408 0.016458 -0.407496
v -0.013408 0.016458 0.127537
v 0.593896 0.016458 -0.407496
v 0.593896 0.016458 0.127537
v -0.013408 1.679366 -0.407496
v -0.013408 1.679366 0.127537
v 0.593896 1.679366 -0.407496
v 0.593896 1.679366 0.127537
v -0.002948 -3.290161 0.453278
v -0.005671 -3.290161 1.248154
v -0.005671 3.276527 1.248154
v -0.002948 3.276527 0.453278
v -0.005671 3.276527 0.988175
v -0.005671 -3.290161 0.988175
v -0.005671 3.276527 1.045646
v -0.005671 -3.290161 1.045646
v 0.586797 -3.290161 0.453142
v 0.586797 3.276527 0.453142
v 0.590351 3.276527 0.995732
v 0.590351 -3.290161 0.995732
v 0.002498 3.276527 0.988175
v 0.002498 -3.290161 0.988175
v 0.377280 -0.084622 0.529804
v -0.013408 -1.683597 0.443252
v -0.013408 -1.683597 0.978285
v 0.593896 -1.683597 0.443252
v 0.593896 -1.683597 0.978285
v -0.005671 3.276527 0.396078
v -0.005671 -3.290161 0.396078
v -0.013408 0.016458 0.443252
v -0.013408 0.016458 0.978285
v 0.593896 0.016458 0.443252
v 0.593896 0.016458 0.978285
v -0.013408 1.679366 0.443252
v -0.013408 1.679366 0.978285
v 0.593896 1.679366 0.443252
v 0.593896 1.679366 0.978285
v 0.323934 1.987352 0.482588
v 0.304129 2.579356 -0.391281
v 0.314181 2.482445 -1.228177
v 0.334245 -0.502681 -0.272852
v 0.334245 -0.315090 -0.215035
v 0.334245 -0.213802 -0.406073
v 0.334245 -0.502681 -0.406073
v 0.226875 -0.411749 -0.272852
v 0.202674 -0.315090 -0.215035
v 0.202674 -0.213802 -0.406073
v 0.164441 -0.411749 -0.406073
v 0.334245 -2.611339 -1.002951
v 0.334245 -2.423748 -0.895361
v 0.334245 -2.322460 -1.250855
v 0.334245 -2.611339 -1.250855
v 0.226875 -2.520407 -1.002951
v 0.202674 -2.423748 -0.895361
v 0.202674 -2.322460 -1.250855
v 0.164441 -2.520407 -1.250855
v 0.334245 -2.297188 -1.114884
v 0.334245 -2.109597 -1.051788
v 0.334245 -2.008309 -1.260269
v 0.334245 -2.297188 -1.260269
v 0.226875 -2.206256 -1.114884
v 0.202674 -2.109597 -1.051788
v 0.202674 -2.008309 -1.260269
v 0.164441 -2.206256 -1.260269
v 0.366772 0.463268 -1.033094
v 0.366772 0.724394 -0.929031
v 0.366771 0.865386 -1.272874
v 0.366772 0.463268 -1.272874
v 0.217313 0.589846 -1.033094
v 0.183626 0.724394 -0.929031
v 0.183626 0.865386 -1.272873
v 0.130406 0.589846 -1.272873
v 0.366772 2.529945 -0.165238
v 0.366772 2.791071 -0.061175
v 0.366771 2.932063 -0.405018
v 0.366772 2.529945 -0.405018
v 0.217313 2.656523 -0.165238
v 0.183626 2.791071 -0.061175
v 0.183626 2.932063 -0.405017
v 0.130406 2.656523 -0.405017
v 0.320330 2.606739 0.591004
v 0.320330 2.762870 0.653225
v 0.320330 2.847171 0.447636
v 0.320330 2.606739 0.447636
v 0.230967 2.682421 0.591004
v 0.210824 2.762870 0.653225
v 0.210824 2.847171 0.447636
v 0.179003 2.682421 0.447636
v 0.468968 -0.583190 0.777627
v 0.468968 -0.275895 0.931353
v 0.468968 -0.109974 0.423416
v 0.468968 -0.583190 0.423416
v 0.293084 -0.434232 0.777627
v 0.253441 -0.275895 0.931353
v 0.253441 -0.109974 0.423416
v 0.190811 -0.434232 0.423416
v 0.021225 3.276527 0.996233
v 0.021225 -3.290161 0.996233
v -0.110552 0.024075 -1.285531
v -1.033817 -0.032008 -1.267431
v -0.110552 -1.591788 -1.285531
v -1.033817 -1.591788 -1.267431
v -0.189523 -1.507387 -1.282433
v -0.189523 -0.138254 -1.284755
v -0.110552 -1.736944 -1.285531
v -1.033817 -1.736944 -1.267431
v -0.110552 -3.296724 -1.285531
v -1.033817 -3.296724 -1.267431
v -0.189523 -3.134214 -1.282433
v -0.189523 -1.813813 -1.284755
v -0.110552 1.691068 -1.285531
v -1.033817 1.621633 -1.267431
v -0.110552 0.088630 -1.285531
v -1.033817 0.165563 -1.267431
v -0.189523 0.251140 -1.282433
v -0.189523 1.528738 -1.284755
v -0.110552 3.305129 -1.285531
v -1.033817 3.305129 -1.267431
v -0.110552 1.669242 -1.285531
v -1.033817 1.745349 -1.267431
v -0.189523 1.831752 -1.282433
v -0.189523 3.142800 -1.284755
v 0.587434 3.276527 0.798265
v 0.587434 -3.290161 0.798265
v 0.587434 3.276527 0.892885
v 0.587434 -3.290161 0.892885
v 0.576004 3.276527 -0.078226
v 0.576004 -3.290161 -0.078226
v 0.576004 3.276527 0.016394
v 0.576004 -3.290161 0.016394
v -0.016571 -0.425552 0.338957
v -0.016571 -0.193507 0.338957
v -0.016571 -0.193507 0.237913
v -0.016571 -0.425552 0.237913
v -0.016571 -0.425552 -0.506480
v -0.016571 -0.193507 -0.506480
v -0.016571 -0.193507 -0.607523
v -0.016571 -0.425552 -0.607523
v -0.016571 -0.950339 -0.506480
v -0.016571 -0.718294 -0.506480
v -0.016571 -0.718294 -0.607523
v -0.016571 -0.950339 -0.607523
v -0.016571 -2.218833 -0.514102
v -0.016571 -1.986787 -0.514102
v -0.016571 -1.986787 -0.615146
v -0.016571 -2.218833 -0.615146
v -0.016571 -2.824793 -0.514102
v -0.016571 -2.592748 -0.514102
v -0.016571 -2.592748 -0.615146
v -0.016571 -2.824793 -0.615146
v -0.016571 -2.089996 0.339281
v -0.016571 -1.857950 0.339281
v -0.016571 -1.857950 0.238238
v -0.016571 -2.089996 0.238238
v -0.016571 0.579815 0.339281
v -0.016571 0.811861 0.339281
v -0.016571 0.811861 0.238238
v -0.016571 0.579815 0.238238
v -0.016571 1.296485 0.339281
v -0.016571 1.528530 0.339281
v -0.016571 1.528530 0.238238
v -0.016571 1.296485 0.238238
v -0.016571 1.164433 -0.515909
v -0.016571 1.396478 -0.515909
v -0.016571 1.396478 -0.616953
v -0.016571 1.164433 -0.616953
v -0.016571 0.777711 -0.515909
v -0.016571 1.009757 -0.515909
v -0.016571 1.009757 -0.616953
v -0.016571 0.777711 -0.616953
v -0.016571 2.178200 -0.515909
v -0.016571 2.410245 -0.515909
v -0.016571 2.410245 -0.616953
v -0.016571 2.178200 -0.616953
v 0.574859 3.276527 -0.949628
v 0.574859 -3.290161 -0.949628
v 0.574859 3.276527 -0.855008
v 0.574859 -3.290161 -0.855008
vt 0.728408 0.275533
vt 0.857269 0.413300
vt 0.853012 0.275533
vt 0.848755 0.137767
vt 0.911058 0.137767
vt 0.908929 0.068883
vt 0.821861 0.275533
vt 0.818669 0.172208
vt 0.754238 0.103325
vt 0.872312 0.396079
vt 0.807882 0.327195
vt 0.940080 0.068883
vt 0.939016 0.034442
vt 0.846511 0.368494
vt 0.805905 0.340451
vt 0.852799 0.375217
vt 0.825593 0.356943
vt 0.728408 0.275533
vt 0.805905 0.340451
vt 0.807882 0.327195
vt 0.846511 0.368494
vt 0.756513 0.293803
vt 0.788052 0.314305
vt 0.788306 0.314470
vt 0.800842 0.322619
vt 0.801091 0.322781
vt 0.795381 0.319070
vt 0.796110 0.319543
vt 0.857269 0.413300
vt 0.872312 0.396079
vt 0.825593 0.356943
vt 0.852799 0.375217
vt 0.826465 0.251950
vt 0.823819 0.166312
vt 0.846366 0.269629
vn -0.885306 -0.009454 0.464912
vn -1.000000 0.000000 0.000000
vn -1.000000 0.000000 0.000000
vn -1.000000 0.000000 0.000000
vn -1.000000 0.000000 0.000000
vn -1.000000 0.000000 0.000000
vn -1.000000 0.000000 0.000000
vn -1.000000 0.000000 0.000000
vn -1.000000 0.000000 0.000000
vn -1.000000 0.000000 0.000000
vn -1.000000 -0.000000 0.000001
vn -0.885182 0.007600 0.465182
vn -1.000000 0.000000 0.000000
vn -1.000000 0.000000 0.000000
vn -1.000000 0.000000 0.000000
vn -1.000000 0.000000 0.000000
vn -1.000000 0.000000 -0.000004
vn -1.000000 -0.000000 -0.000000
vn -1.000000 -0.000000 -0.000001
vn -1.000000 -0.000000 0.000000
vn -0.701607 -0.015901 0.712387
vn -0.702040 0.012813 0.712022
vn -1.000000 0.000000 0.000000
vn -1.000000 0.000000 0.000000
vn -0.999948 0.000000 0.010181
vn -0.999948 0.000000 0.010181
vn 0.265510 0.026856 0.963734
vn 0.000000 -1.000000 0.000000
vn 0.000000 -1.000000 0.000000
vn 0.000000 -1.000000 0.000000
vn 0.000000 -1.000000 0.000000
vn -0.998869 0.000000 0.047547
vn -0.998869 0.000000 0.047547
vn 0.000000 -1.000000 0.000000
vn 0.000000 -1.000000 0.000000
vn 0.000000 -1.000000 0.000000
vn 0.000000 -1.000000 0.000000
vn 0.000000 -1.000000 0.000000
vn 0.000000 -1.000000 0.000000
vn 0.000000 -1.000000 0.000000
vn 0.000000 -1.000000 0.000000
vn -0.885846 -0.011793 0.463830
vn -1.000000 0.000000 0.000000
vn -1.000000 -0.000000 0.000001
vn -0.884372 0.002916 0.466774
vn -1.000000 0.000000 -0.000004
vn -1.000000 -0.000000 -0.000000
vn -1.000000 -0.000000 -0.000001
vn -1.000000 -0.000000 0.000000
vn -0.699463 -0.020994 0.714360
vn -0.705099 0.004806 0.709093
vn -1.000000 0.000000 0.000000
vn -1.000000 0.000000 0.000000
vn -0.999948 0.000000 0.010181
vn -0.999948 0.000000 0.010181
vn 0.080194 0.007364 0.996752
vn 0.000000 -1.000000 0.000000
vn 0.000000 -1.000000 0.000000
vn 0.000000 -1.000000 0.000000
vn 0.000000 -1.000000 0.000000
vn -0.998869 0.000000 0.047547
vn -0.998869 0.000000 0.047547
vn 0.000000 -1.000000 0.000000
vn 0.000000 -1.000000 0.000000
vn 0.000000 -1.000000 0.000000
vn 0.000000 -1.000000 0.000000
vn 0.000000 -1.000000 0.000000
vn 0.000000 -1.000000 0.000000
vn 0.000000 -1.000000 0.000000
vn 0.000000 -1.000000 0.000000
vn -0.885306 -0.009488 0.464912
vn -1.000000 0.000000 0.000000
vn -1.000000 -0.000000 0.000001
vn -0.885220 0.008438 0.465096
vn -1.000000 0.000000 -0.000004
vn -1.000000 -0.000000 -0.000000
vn -1.000000 -0.000000 -0.000001
vn -1.000000 -0.000000 0.000000
vn -0.699267 -0.015892 0.714684
vn -0.699581 0.014107 0.714414
vn -0.709729 0.000000 -0.704475
vn -0.709729 0.000000 -0.704475
vn -0.999948 0.000000 0.010181
vn -0.999948 0.000000 0.010181
vn 0.273544 0.027314 0.961472
vn 0.000000 -1.000000 0.000000
vn 0.000000 -1.000000 0.000000
vn 0.000000 -1.000000 0.000000
vn 0.000000 -1.000000 0.000000
vn -0.998869 0.000000 0.047547
vn -0.998869 0.000000 0.047547
vn 0.000000 -1.000000 0.000000
vn 0.000000 -1.000000 0.000000
vn 0.000000 -1.000000 0.000000
vn 0.000000 -1.000000 0.000000
vn 0.000000 -1.000000 0.000000
vn 0.000000 -1.000000 0.000000
vn 0.000000 -1.000000 0.000000
vn 0.000000 -1.000000 0.000000
vn 0.011035 0.002045 0.999937
vn 0.001097 0.001287 0.999999
vn 0.004825 0.002953 0.999984
vn -0.555091 -0.737483 0.384698
vn 0.000000 0.382182 0.924087
vn 0.000000 0.883501 0.468429
vn -0.561829 -0.820292 0.107096
vn -0.629368 -0.630434 0.454367
vn -0.568871 0.251308 0.783090
vn -0.509275 0.760344 0.403132
vn -0.863420 -0.443956 0.239602
vn -0.556267 -0.773015 0.304982
vn -0.000000 0.376718 0.926328
vn 0.000000 0.961725 0.274016
vn -0.530044 -0.844180 0.080081
vn -0.705357 -0.656115 0.268298
vn -0.583892 0.244957 0.773993
vn -0.571791 0.788998 0.224803
vn -0.888158 -0.443293 0.121104
vn -0.554841 -0.742292 0.375705
vn -0.000000 0.386691 0.922209
vn 0.000000 0.899465 0.436993
vn -0.557192 -0.823871 0.103799
vn -0.642971 -0.636759 0.425589
vn -0.571657 0.252979 0.780519
vn -0.520639 0.767942 0.373095
vn -0.868797 -0.444679 0.217835
vn -0.554642 -0.751996 0.356194
vn -0.000000 0.390538 0.920587
vn 0.000001 0.925237 0.379390
vn -0.548218 -0.830713 0.096812
vn -0.666554 -0.646280 0.371521
vn -0.576519 0.253827 0.776658
vn -0.540098 0.778681 0.319296
vn -0.877061 -0.445054 0.180804
vn -0.554642 -0.751996 0.356194
vn -0.000000 0.390538 0.920587
vn 0.000001 0.925237 0.379390
vn -0.548219 -0.830712 0.096812
vn -0.666554 -0.646280 0.371521
vn -0.576519 0.253828 0.776658
vn -0.540098 0.778681 0.319296
vn -0.877061 -0.445054 0.180804
vn -0.554642 -0.751996 0.356194
vn 0.000000 0.390537 0.920587
vn 0.000001 0.925237 0.379390
vn -0.548219 -0.830713 0.096812
vn -0.666554 -0.646280 0.371521
vn -0.576518 0.253828 0.776658
vn -0.540098 0.778681 0.319296
vn -0.877061 -0.445054 0.180804
vn -0.555245 -0.765277 0.325661
vn 0.000000 0.385369 0.922763
vn 0.000001 0.950570 0.310509
vn -0.536608 -0.839383 0.086535
vn -0.692551 -0.653900 0.304610
vn -0.581677 0.249958 0.774063
vn -0.561333 0.786683 0.256974
vn -0.884804 -0.444205 0.140728
vn -0.000880 0.000000 -1.000000
vn -0.000880 0.000000 -1.000000
vn 0.016877 -0.003433 0.999852
vn 0.019690 0.000404 0.999806
vn 0.028782 -0.008812 0.999547
vn 0.017882 -0.001165 0.999839
vn 0.027501 -0.005713 0.999605
vn 0.016079 -0.001009 0.999870
vn 0.014626 -0.004938 0.999881
vn 0.019606 0.000468 0.999808
vn 0.025173 -0.006342 0.999663
vn 0.017987 -0.001154 0.999838
vn 0.029275 -0.001878 0.999570
vn 0.016518 -0.003165 0.999859
vn 0.016899 -0.003444 0.999851
vn 0.019642 0.000450 0.999807
vn 0.024906 -0.006430 0.999669
vn 0.017877 -0.001107 0.999840
vn 0.029107 -0.002104 0.999574
vn 0.016115 -0.001003 0.999870
vn 0.016781 -0.003387 0.999853
vn 0.019680 0.000395 0.999806
vn 0.024911 -0.006440 0.999669
vn 0.017878 -0.001107 0.999840
vn 0.029065 -0.002134 0.999575
vn 0.016049 -0.000877 0.999871
vn -1.000000 0.000000 0.000000
vn -1.000000 0.000000 0.000000
vn -1.000000 0.000000 0.000000
vn -1.000000 0.000000 0.000000
vn -1.000000 0.000000 0.000000
vn -1.000000 0.000000 0.000000
vn -1.000000 0.000000 0.000000
vn -1.000000 0.000000 0.000000
vn -1.000000 0.000000 0.000000
vn -1.000000 -0.000000 0.000001
vn -1.000000 -0.000000 0.000001
vn -1.000000 -0.000000 0.000000
vn -1.000000 0.000000 0.000000
vn -1.000000 -0.000000 0.000001
vn -1.000000 -0.000000 0.000001
vn -1.000000 -0.000000 0.000000
vn -1.000000 0.000000 0.000000
vn -1.000000 -0.000000 0.000001
vn -1.000000 -0.000000 0.000001
vn -1.000000 -0.000000 0.000000
vn -1.000000 0.000000 0.000000
vn -1.000000 -0.000000 0.000001
vn -1.000000 -0.000000 0.000001
vn -1.000000 -0.000000 0.000000
vn -1.000000 0.000000 0.000000
vn -1.000000 -0.000000 0.000001
vn -1.000000 -0.000000 0.000001
vn -1.000000 -0.000000 0.000000
vn -1.000000 0.000000 0.000000
vn -1.000000 -0.000000 0.000001
vn -1.000000 -0.000000 0.000001
vn -1.000000 -0.000000 0.000000
vn -1.000000 0.000000 0.000000
vn -1.000000 -0.000000 0.000001
vn -1.000000 -0.000000 0.000001
vn -1.000000 -0.000000 0.000000
vn -1.000000 0.000000 0.000000
vn -1.000000 -0.000000 0.000001
vn -1.000000 -0.000000 0.000001
vn -1.000000 -0.000000 0.000000
vn -1.000000 0.000000 0.000000
vn -1.000000 -0.000000 0.000001
vn -1.000000 -0.000000 0.000001
vn -1.000000 -0.000000 0.000000
vn -1.000000 0.000000 0.000000
vn -1.000000 -0.000000 0.000001
vn -1.000000 -0.000000 0.000001
vn -1.000000 -0.000000 0.000000
vn -1.000000 0.000000 0.000000
vn -1.000000 -0.000000 0.000001
vn -1.000000 -0.000000 0.000001
vn -1.000000 -0.000000 0.000000
vn -1.000000 0.000000 0.000000
vn -1.000000 0.000000 0.000000
vn -1.000000 0.000000 0.000000
vn -1.000000 0.000000 0.000000
g fff02c13_00039_0014a65f_e2
f 7/7/7 3/3/3 4/4/4
f 8/9/8 7/8/7 4/4/4
f 6/6/6 5/5/5 9/12/9
f 6/6/6 9/12/9 10/13/10
f 14/6/14 13/5/13 15/12/15
f 14/6/14 15/12/15 16/13/16
g fff02c13_00039_0014a65f_e0
f 20/17/20 2/2/2 11/10/11
f 20/17/20 11/10/11 19/16/19
f 49/17/49 43/2/43 44/10/44
f 49/17/49 44/10/44 48/16/48
f 78/17/78 72/2/72 73/10/73
f 78/17/78 73/10/73 77/16/77
f 110/31/110 107/29/107 108/30/108
f 110/31/110 108/30/108 109/32/109
f 103/2/103 104/10/104 108/30/108
f 108/30/108 107/29/107 103/2/103
f 106/17/106 103/2/103 107/29/107
f 107/29/107 110/31/110 106/17/106
f 104/10/104 105/16/105 109/32/109
f 109/32/109 108/30/108 104/10/104
f 118/31/118 115/29/115 116/30/116
f 118/31/118 116/30/116 117/32/117
f 111/2/111 112/10/112 116/30/116
f 116/30/116 115/29/115 111/2/111
f 114/17/114 111/2/111 115/29/115
f 115/29/115 118/31/118 114/17/114
f 112/10/112 113/16/113 117/32/117
f 117/32/117 116/30/116 112/10/112
f 126/31/126 123/29/123 124/30/124
f 126/31/126 124/30/124 125/32/125
f 119/2/119 120/10/120 124/30/124
f 124/30/124 123/29/123 119/2/119
f 122/17/122 119/2/119 123/29/123
f 123/29/123 126/31/126 122/17/122
f 120/10/120 121/16/121 125/32/125
f 125/32/125 124/30/124 120/10/120
f 134/31/134 131/29/131 132/30/132
f 134/31/134 132/30/132 133/32/133
f 127/2/127 128/10/128 132/30/132
f 132/30/132 131/29/131 127/2/127
f 130/17/130 127/2/127 131/29/131
f 131/29/131 134/31/134 130/17/130
f 128/10/128 129/16/129 133/32/133
f 133/32/133 132/30/132 128/10/128
f 142/31/142 139/29/139 140/30/140
f 142/31/142 140/30/140 141/32/141
f 135/2/135 136/10/136 140/30/140
f 140/30/140 139/29/139 135/2/135
f 138/17/138 135/2/135 139/29/139
f 139/29/139 142/31/142 138/17/138
f 136/10/136 137/16/137 141/32/141
f 141/32/141 140/30/140 136/10/136
f 150/31/150 147/29/147 148/30/148
f 150/31/150 148/30/148 149/32/149
f 143/2/143 144/10/144 148/30/148
f 148/30/148 147/29/147 143/2/143
f 146/17/146 143/2/143 147/29/147
f 147/29/147 150/31/150 146/17/146
f 144/10/144 145/16/145 149/32/149
f 149/32/149 148/30/148 144/10/144
f 158/31/158 155/29/155 156/30/156
f 158/31/158 156/30/156 157/32/157
f 151/2/151 152/10/152 156/30/156
f 156/30/156 155/29/155 151/2/151
f 154/17/154 151/2/151 155/29/155
f 155/29/155 158/31/158 154/17/154
f 152/10/152 153/16/153 157/32/157
f 157/32/157 156/30/156 152/10/152
f 196/17/196 193/2/193 194/10/194
f 196/17/196 194/10/194 195/16/195
f 200/17/200 197/2/197 198/10/198
f 200/17/200 198/10/198 199/16/199
f 204/17/204 201/2/201 202/10/202
f 204/17/204 202/10/202 203/16/203
f 208/17/208 205/2/205 206/10/206
f 208/17/208 206/10/206 207/16/207
f 212/17/212 209/2/209 210/10/210
f 212/17/212 210/10/210 211/16/211
f 216/17/216 213/2/213 214/10/214
f 216/17/216 214/10/214 215/16/215
f 220/17/220 217/2/217 218/10/218
f 220/17/220 218/10/218 219/16/219
f 224/17/224 221/2/221 222/10/222
f 224/17/224 222/10/222 223/16/223
f 228/17/228 225/2/225 226/10/226
f 228/17/228 226/10/226 227/16/227
f 232/17/232 229/2/229 230/10/230
f 232/17/232 230/10/230 231/16/231
f 236/17/236 233/2/233 234/10/234
f 236/17/236 234/10/234 235/16/235
g fff02c13_00039_0014a65f_e1
f 18/15/18 19/16/19 17/14/17
f 18/15/18 20/17/20 19/16/19
f 33/15/33 12/16/12 32/14/32
f 33/15/33 1/17/1 12/16/12
f 47/15/47 48/16/48 46/14/46
f 47/15/47 49/17/49 48/16/48
f 62/15/62 45/16/45 61/14/61
f 62/15/62 42/17/42 45/16/45
f 76/15/76 77/16/77 75/14/75
f 76/15/76 78/17/78 77/16/77
f 91/15/91 74/16/74 90/14/90
f 91/15/91 71/17/71 74/16/74
g fff02c13_00039_0014a65f_e3
f 1/18/1 26/19/26 25/21/25
f 1/18/1 25/21/25 12/20/12
f 42/18/42 55/19/55 54/21/54
f 42/18/42 54/21/54 45/20/45
f 71/18/71 84/19/84 83/21/83
f 71/18/71 83/21/83 74/20/74
g fff02c13_00039_0014a65f_e4
f 30/20/30 31/21/31 29/14/29
f 29/14/29 28/11/28 30/20/30
f 36/20/36 37/21/37 35/14/35
f 35/14/35 34/11/34 36/20/36
f 40/20/40 41/21/41 39/14/39
f 39/14/39 38/11/38 40/20/40
f 59/20/59 60/21/60 58/14/58
f 58/14/58 57/11/57 59/20/59
f 65/20/65 66/21/66 64/14/64
f 64/14/64 63/11/63 65/20/65
f 69/20/69 70/21/70 68/14/68
f 68/14/68 67/11/67 69/20/69
f 88/20/88 89/21/89 87/14/87
f 87/14/87 86/11/86 88/20/88
f 94/20/94 95/21/95 93/14/93
f 93/14/93 92/11/92 94/20/94
f 98/20/98 99/21/99 97/14/97
f 97/14/97 96/11/96 98/20/98
g fff02c13_00039_0014a65f_e5
f 21/18/21 24/19/24 23/21/23
f 21/18/21 23/21/23 22/20/22
f 50/18/50 53/19/53 52/21/52
f 50/18/50 52/21/52 51/20/51
f 79/18/79 82/19/82 81/21/81
f 79/18/79 81/21/81 80/20/80
g fff02c13_00039_0014a65f_e6
f 12/11/12 1/1/1 102/27/102
f 102/27/102 22/20/22 12/11/12
f 27/22/27 1/1/1 21/18/21
f 21/18/21 22/20/22 102/28/102
f 45/11/45 42/1/42 101/25/101
f 101/25/101 51/20/51 45/11/45
f 56/22/56 42/1/42 50/18/50
f 50/18/50 51/20/51 101/26/101
f 74/11/74 71/1/71 100/24/100
f 100/23/100 80/20/80 74/11/74
f 85/22/85 71/1/71 79/18/79
f 79/18/79 80/20/80 100/23/100
f 100/24/100 71/1/71 85/22/85
f 79/18/79 100/23/100 85/22/85
f 101/25/101 42/1/42 56/22/56
f 50/18/50 101/26/101 56/22/56
f 102/27/102 1/1/1 27/22/27
f 21/18/21 102/28/102 27/22/27
g fff02c13_00039_0014a65f_e9
f 166/35/166 161/3/161 162/4/162
f 164/9/164 165/34/165 162/4/162
f 163/7/163 161/3/161 166/35/166
f 164/9/164 163/8/163 165/34/165
f 165/33/165 166/35/166 162/4/162
f 163/7/163 166/35/166 165/33/165
f 172/35/172 167/3/167 168/4/168
f 170/9/170 171/34/171 168/4/168
f 169/7/169 167/3/167 172/35/172
f 170/9/170 169/8/169 171/34/171
f 171/33/171 172/35/172 168/4/168
f 169/7/169 172/35/172 171/33/171
f 178/35/178 173/3/173 174/4/174
f 176/9/176 177/34/177 174/4/174
f 175/7/175 173/3/173 178/35/178
f 176/9/176 175/8/175 177/34/177
f 177/33/177 178/35/178 174/4/174
f 175/7/175 178/35/178 177/33/177
f 184/35/184 179/3/179 180/4/180
f 182/9/182 183/34/183 180/4/180
f 181/7/181 179/3/179 184/35/184
f 182/9/182 181/8/181 183/34/183
f 183/33/183 184/35/184 180/4/180
f 181/7/181 184/35/184 183/33/183
g fff02c13_00039_0014a65f_e8
f 82/18/82 160/19/160 159/21/159
f 82/18/82 159/21/159 81/20/81
f 186/18/186 188/19/188 187/21/187
f 186/18/186 187/21/187 185/20/185
f 190/18/190 192/19/192 191/21/191
f 190/18/190 191/21/191 189/20/189
f 238/18/238 240/19/240 239/21/239
f 238/18/238 239/21/239 237/20/237
