# fff0305e_00028_000eaea8
o fff0305e_00028_000eaea8
v 0.826501 -0.540495 0.047629
v -6.651103 -0.540131 0.258060
v -6.649140 1.415032 0.244405
v 0.828492 1.413222 0.033975
v 0.684916 -0.553906 -0.000336
v -6.867541 -0.553871 0.210095
v -6.865448 1.398416 0.196440
v 0.687040 1.395040 -0.013990
v 0.675544 1.395209 -0.001667
v -6.826077 1.396181 0.225430
v -6.969865 1.537420 0.227357
v 0.825475 1.533513 -0.008581
v 0.826667 -0.646336 0.028819
v -6.968674 -0.642430 0.264715
v -6.825030 -0.507435 0.258047
v 0.676593 -0.508408 0.030994
v 0.606837 -0.541413 0.001511
v -6.870767 -0.541049 0.211941
v -6.868804 1.414114 0.198287
v 0.608828 1.412304 -0.012144
v 0.647860 -0.540853 0.032951
v -6.829744 -0.540489 0.243381
v -6.827781 1.414674 0.229727
v 0.649851 1.412865 0.019296
vt 9.176718 3.634052
vt -29.240334 3.629629
vt -29.233282 5.088717
vt 9.183821 5.090843
vt 2.695085 2.520488
vt -9.677168 1.720750
vt -9.977919 1.015595
vt -9.738393 1.283318
vt 2.710856 1.216480
vt -9.940660 2.086367
vt 2.961999 0.643254
vt 3.019274 2.066334
vn 0.028130 0.006957 0.999580
vn 0.028131 0.006953 0.999580
vn 0.028131 0.006953 0.999580
vn 0.028130 0.006957 0.999580
vn 0.027851 0.006973 0.999588
vn 0.027854 0.006963 0.999588
vn 0.027854 0.006961 0.999588
vn 0.027852 0.006971 0.999588
vn 0.030257 0.017163 0.999395
vn 0.030248 0.017153 0.999395
vn 0.030247 0.017153 0.999395
vn 0.030257 0.017163 0.999395
vn 0.030254 0.017161 0.999395
vn 0.030264 0.017155 0.999395
vn 0.030265 0.017156 0.999395
vn 0.030254 0.017161 0.999395
vn 0.028130 0.006957 0.999580
vn 0.028131 0.006953 0.999580
vn 0.028131 0.006953 0.999580
vn 0.028130 0.006957 0.999580
vn 0.028130 0.006957 0.999580
vn 0.028131 0.006953 0.999580
vn 0.028131 0.006953 0.999580
vn 0.028130 0.006957 0.999580
g fff0305e_00028_000eaea8_e0
f 16/9/16 15/8/15 14/7/14
f 14/7/14 13/11/13 16/9/16
f 12/12/12 11/10/11 10/6/10
f 10/6/10 9/5/9 12/12/12
f 14/7/14 10/6/10 11/10/11
f 10/6/10 14/7/14 15/8/15
f 13/11/13 12/12/12 9/5/9
f 9/5/9 16/9/16 13/11/13
g fff0305e_00028_000eaea8_e4
f 4/4/4 3/3/3 2/2/2
f 2/2/2 1/1/1 4/4/4
f 20/4/20 19/3/19 18/2/18
f 18/2/18 17/1/17 20/4/20
f 24/4/24 23/3/23 22/2/22
f 22/2/22 21/1/21 24/4/24
g fff0305e_00028_000eaea8_e2
f 8/4/8 7/3/7 6/2/6
f 6/2/6 5/1/5 8/4/8
