# fff0af20_00086_002546ee
o fff0af20_00086_002546ee
v -6.732170 2.396441 0.104016
v -12.554085 2.395228 0.104016
v -6.734573 -1.783546 0.104016
v -12.594688 -1.754731 0.104016
v -6.732166 -1.744817 0.104016
v -12.554081 -1.746013 0.104016
v -6.734573 -5.869509 0.104016
v -12.594688 -5.841075 0.104016
v -6.732166 -5.890947 0.104016
v -12.554081 -5.892111 0.104016
v -6.734573 -9.904293 0.104016
v -12.594685 -9.876626 0.104016
v -0.247547 2.396442 0.104016
v -6.706505 2.395230 0.104016
v -0.250214 -1.783545 0.104016
v -6.751553 -1.754729 0.104016
v -0.247543 -1.744816 0.104016
v -6.706505 -1.746012 0.104016
v -0.250214 -5.869507 0.104016
v -6.751549 -5.841073 0.104016
v -0.247543 -5.890945 0.104016
v -6.706501 -5.892109 0.104016
v -0.250214 -9.904291 0.104016
v -6.751549 -9.876624 0.104016
v 6.230553 2.396444 0.104016
v 1.029072 2.395232 0.104016
v 6.228403 -1.783543 0.104016
v 0.992794 -1.754727 0.104016
v 6.230553 -1.744814 0.104016
v 1.029072 -1.746010 0.104016
v 6.228405 -5.869505 0.104016
v 0.992794 -5.841071 0.104016
v 6.230555 -5.890944 0.104016
v 1.029072 -5.892107 0.104016
v 6.228405 -9.904289 0.104016
v 0.992794 -9.876622 0.104016
v 12.431694 2.396446 0.104016
v 6.111952 2.395234 0.104016
v 12.429083 -1.783541 0.104016
v 6.067875 -1.754726 0.104016
v 12.431694 -1.744812 0.104016
v 6.111954 -1.746008 0.104016
v 12.429085 -5.869503 0.104016
v 6.067877 -5.841070 0.104016
v 12.431696 -5.890942 0.104016
v 6.111954 -5.892106 0.104016
v 12.429085 -9.904287 0.104016
v 6.067877 -9.876620 0.104016
v 19.362846 2.396448 0.104016
v 13.792042 2.395236 0.104016
v 19.360546 -1.783539 0.104016
v 13.753189 -1.754724 0.104016
v 19.362846 -1.744810 0.104016
v 13.792042 -1.746006 0.104016
v 19.360546 -5.869502 0.104016
v 13.753189 -5.841068 0.104016
v 19.362850 -5.890940 0.104016
v 13.792044 -5.892104 0.104016
v 19.360546 -9.904285 0.104016
v 13.753189 -9.876618 0.104016
v 25.787498 2.396450 0.104016
v 19.411812 2.395238 0.104016
v 25.784866 -1.783537 0.104016
v 19.367344 -1.754722 0.104016
v 25.787498 -1.744808 0.104016
v 19.411812 -1.746004 0.104016
v 25.784866 -5.869500 0.104016
v 19.367344 -5.841066 0.104016
v 25.787502 -5.890938 0.104016
v 19.411814 -5.892102 0.104016
v 25.784866 -9.904284 0.104016
v 19.367344 -9.876616 0.104016
v 32.233318 2.396452 0.104016
v 26.560890 2.395240 0.104016
v 32.230980 -1.783535 0.104016
v 26.521326 -1.754720 0.104016
v 32.233318 -1.744806 0.104016
v 26.560890 -1.746002 0.104016
v 32.230980 -5.869498 0.104016
v 26.521326 -5.841064 0.104016
v 32.233322 -5.890936 0.104016
v 26.560892 -5.892100 0.104016
v 32.230980 -9.904282 0.104016
v 26.521326 -9.876615 0.104016
v 38.368382 2.396454 0.104016
v 32.170597 2.395242 0.104016
v 38.365826 -1.783533 0.104016
v 32.127369 -1.754718 0.104016
v 38.368382 -1.744804 0.104016
v 32.170597 -1.746000 0.104016
v 38.365826 -5.869496 0.104016
v 32.127369 -5.841062 0.104016
v 38.368385 -5.890934 0.104016
v 32.170601 -5.892098 0.104016
v 38.365826 -9.904280 0.104016
v 32.127369 -9.876613 0.104016
v 46.814575 2.396456 0.104016
v 39.691387 2.395244 0.104016
v 46.811638 -1.783531 0.104016
v 39.641705 -1.754715 0.104016
v 46.814575 -1.744802 0.104016
v 39.691387 -1.745998 0.104016
v 46.811638 -5.869493 0.104016
v 39.641705 -5.841060 0.104016
v 46.814579 -5.890932 0.104016
v 39.691395 -5.892096 0.104016
v 46.811638 -9.904278 0.104016
v 39.641705 -9.876611 0.104016
v 46.814575 6.785670 0.104016
v 39.691387 6.784398 0.104016
v 46.811638 2.399908 0.104016
v 39.641705 2.430142 0.104016
v 46.814575 11.685873 0.104016
v 39.691387 11.684457 0.104016
v 46.811638 6.803604 0.104016
v 39.641705 6.837261 0.104016
v 53.715149 2.396458 0.104016
v 46.789707 2.395246 0.104016
v 53.712292 -1.783529 0.104016
v 46.741402 -1.754713 0.104016
v 53.715149 -1.744800 0.104016
v 46.789707 -1.745996 0.104016
v 53.712292 -5.869492 0.104016
v 46.741402 -5.841058 0.104016
v 53.715149 -5.890930 0.104016
v 46.789715 -5.892094 0.104016
v 53.712292 -9.904276 0.104016
v 46.741402 -9.876609 0.104016
v 53.715149 6.785672 0.104016
v 46.789707 6.784400 0.104016
v 53.712292 2.399910 0.104016
v 46.741402 2.430144 0.104016
v 53.715149 11.685875 0.104016
v 46.789707 11.684459 0.104016
v 53.712292 6.803606 0.104016
v 46.741402 6.837263 0.104016
v 59.625179 2.396461 0.104016
v 55.200077 2.395248 0.104016
v 59.623356 -1.783526 0.104016
v 55.169212 -1.754711 0.104016
v 59.625179 -1.744798 0.104016
v 55.200077 -1.745994 0.104016
v 59.623356 -5.869490 0.104016
v 55.169212 -5.841056 0.104016
v 59.625179 -5.890928 0.104016
v 55.200081 -5.892092 0.104016
v 59.623356 -9.512992 0.104016
v 55.169212 -9.876606 0.104016
v 59.625179 6.785674 0.104016
v 55.200077 6.784402 0.104016
v 59.623356 2.399913 0.104016
v 55.169212 2.430146 0.104016
v 59.625179 11.685878 0.104016
v 55.200077 11.684462 0.104016
v 59.623356 6.803608 0.104016
v 55.169212 6.837265 0.104016
v 63.722607 2.396462 0.104016
v 59.685394 2.395250 0.104016
v 63.720943 -1.783525 0.104016
v 59.657238 -1.754710 0.104016
v 63.722607 -1.744796 0.104016
v 59.685394 -1.745992 0.104016
v 63.720943 -5.869488 0.104016
v 59.657238 -5.841054 0.104016
v 63.722607 -5.890927 0.104016
v 59.685398 -5.892090 0.104016
v 63.720943 -8.751928 0.104016
v 59.657238 -9.485324 0.104016
v 63.722607 6.785676 0.104016
v 59.685394 6.784403 0.104016
v 63.720943 2.399914 0.104016
v 59.657238 2.430148 0.104016
v 63.722607 11.685879 0.104016
v 59.685394 11.684463 0.104016
v 63.720943 6.803609 0.104016
v 59.657238 6.837267 0.104016
v 67.747047 2.396463 0.104016
v 65.190544 2.395251 0.104016
v 67.745995 -1.783524 0.104016
v 65.172714 -1.754708 0.104016
v 67.747047 -1.744795 0.104016
v 65.190544 -1.745991 0.104016
v 67.775719 -5.892352 0.104026
v 65.172714 -5.841053 0.104016
v 67.776772 -5.913791 0.104026
v 65.190544 -5.892089 0.104016
v 65.172714 -9.876604 0.104016
v 67.747047 6.785677 0.104016
v 65.190544 6.784405 0.104016
v 67.745995 2.399915 0.104016
v 65.172714 2.430149 0.104016
v 67.747047 11.685880 0.104016
v 65.190544 11.684464 0.104016
v 67.745995 6.803611 0.104016
v 65.172714 6.837268 0.104016
v 70.871147 2.396464 0.104016
v 67.893661 2.395252 0.104016
v 70.869926 -1.783523 0.104016
v 67.872879 -1.754707 0.104016
v 70.871147 -1.744794 0.104016
v 67.893661 -1.745990 0.104016
v 67.902603 -5.863917 0.104026
v 70.871147 6.785678 0.104016
v 67.893661 6.784406 0.104016
v 70.869926 2.399916 0.104016
v 67.872879 2.430150 0.104016
v 70.871147 11.685881 0.104016
v 67.893661 11.684464 0.104016
v 70.869926 6.803612 0.104016
v 67.872879 6.837269 0.104016
v 59.625172 16.081812 0.104016
v 55.200069 16.083023 0.104016
v 59.623348 20.261799 0.104016
v 55.169205 20.232983 0.104016
v 59.625172 20.223070 0.104016
v 55.200069 20.224266 0.104016
v 59.623348 24.347761 0.104016
v 55.169205 24.319328 0.104016
v 59.625172 24.369200 0.104016
v 55.200073 24.370363 0.104016
v 59.623348 28.137123 0.104016
v 55.169205 28.422497 0.104016
v 59.625172 11.692597 0.104016
v 55.200069 11.693870 0.104016
v 59.623348 16.078360 0.104016
v 55.169205 16.048124 0.104016
v 63.722599 16.081810 0.104016
v 59.685387 16.083021 0.104016
v 63.720936 20.261797 0.104016
v 59.657230 20.232983 0.104016
v 63.722599 20.223068 0.104016
v 59.685387 20.224264 0.104016
v 63.720936 24.347759 0.104016
v 59.657230 24.319326 0.104016
v 63.722599 24.369198 0.104016
v 59.685390 24.370361 0.104016
v 63.720936 27.340399 0.104016
v 59.657230 28.041836 0.104016
v 63.722599 11.692595 0.104016
v 59.685387 11.693868 0.104016
v 63.720936 16.078358 0.104016
v 59.657230 16.048124 0.104016
v 67.747040 16.081808 0.104016
v 65.190536 16.083021 0.104016
v 67.745987 20.261795 0.104016
v 65.172707 20.232981 0.104016
v 67.747040 20.223066 0.104016
v 65.190536 20.224262 0.104016
v 67.775711 24.408916 0.104026
v 65.172707 24.319324 0.104016
v 67.776764 24.430355 0.104026
v 65.190536 24.370361 0.104016
v 65.172707 28.354876 0.104016
v 67.747040 11.692594 0.104016
v 65.190536 11.693866 0.104016
v 67.745987 16.078356 0.104016
v 65.172707 16.048122 0.104016
v 70.871140 16.081808 0.104016
v 67.893654 16.083019 0.104016
v 70.869919 20.300087 0.104016
v 67.872871 20.232979 0.104016
v 70.871140 20.261358 0.104016
v 67.893654 20.224262 0.104016
v 67.902596 24.380482 0.104026
v 70.871140 11.692594 0.104016
v 67.893654 11.693866 0.104016
v 70.869919 16.078356 0.104016
v 67.872871 16.048122 0.104016
v 46.814568 16.134367 0.104016
v 39.691380 16.135578 0.104016
v 46.811630 20.314354 0.104016
v 39.641697 20.285538 0.104016
v 46.814568 20.275625 0.104016
v 39.691380 20.276821 0.104016
v 46.811630 24.400316 0.104016
v 39.641697 24.371883 0.104016
v 46.814571 24.421755 0.104016
v 39.691387 24.422918 0.104016
v 46.811630 28.502720 0.104016
v 39.641697 28.475054 0.104016
v 46.814568 11.745153 0.104016
v 39.691380 11.746426 0.104016
v 46.811630 16.130915 0.104016
v 39.641697 16.100681 0.104016
v 53.715141 16.134365 0.104016
v 46.789700 16.135578 0.104016
v 53.712284 20.314352 0.104016
v 46.741394 20.285536 0.104016
v 53.715141 20.275623 0.104016
v 46.789700 20.276819 0.104016
v 53.712284 24.400314 0.104016
v 46.741394 24.371881 0.104016
v 53.715141 24.421753 0.104016
v 46.789707 24.422916 0.104016
v 53.712284 28.502718 0.104016
v 46.741394 28.475052 0.104016
v 53.715141 11.745152 0.104016
v 46.789700 11.746424 0.104016
v 53.712284 16.130913 0.104016
v 46.741394 16.100679 0.104016
v -6.732183 16.168715 0.104016
v -12.554098 16.169926 0.104016
v -6.734586 20.348701 0.104016
v -12.594702 20.319885 0.104016
v -6.732179 20.309973 0.104016
v -12.554094 20.311169 0.104016
v -6.734586 24.434664 0.104016
v -12.594702 24.406231 0.104016
v -6.732179 24.456102 0.104016
v -12.554094 24.457266 0.104016
v -6.734586 28.469448 0.104016
v -12.594698 28.441780 0.104016
v -0.247561 16.168713 0.104016
v -6.706518 16.169924 0.104016
v -0.250227 20.348700 0.104016
v -6.751565 20.319885 0.104016
v -0.247557 20.309971 0.104016
v -6.706518 20.311167 0.104016
v -0.250227 24.434662 0.104016
v -6.751562 24.406227 0.104016
v -0.247557 24.456100 0.104016
v -6.706514 24.457264 0.104016
v -0.250227 28.469446 0.104016
v -6.751562 28.441780 0.104016
v 6.230540 16.168711 0.104016
v 1.029058 16.169922 0.104016
v 6.228390 20.348698 0.104016
v 0.992781 20.319881 0.104016
v 6.230540 20.309969 0.104016
v 1.029058 20.311165 0.104016
v 6.228392 24.434660 0.104016
v 0.992781 24.406227 0.104016
v 6.230542 24.456099 0.104016
v 1.029058 24.457262 0.104016
v 6.228392 28.469444 0.104016
v 0.992781 28.441776 0.104016
v 12.431681 16.168709 0.104016
v 6.111939 16.169922 0.104016
v 12.429070 20.348696 0.104016
v 6.067862 20.319881 0.104016
v 12.431681 20.309967 0.104016
v 6.111941 20.311163 0.104016
v 12.429071 24.434658 0.104016
v 6.067864 24.406225 0.104016
v 12.431683 24.456097 0.104016
v 6.111941 24.457260 0.104016
v 12.429071 28.469442 0.104016
v 6.067864 28.441776 0.104016
v 19.362833 16.168707 0.104016
v 13.792028 16.169918 0.104016
v 19.360533 20.348694 0.104016
v 13.753176 20.319878 0.104016
v 19.362833 20.309965 0.104016
v 13.792028 20.311161 0.104016
v 19.360533 24.434656 0.104016
v 13.753176 24.406223 0.104016
v 19.362837 24.456095 0.104016
v 13.792030 24.457258 0.104016
v 19.360533 28.469440 0.104016
v 13.753176 28.441772 0.104016
v 25.787485 16.168705 0.104016
v 19.411798 16.169916 0.104016
v 25.784853 20.348692 0.104016
v 19.367331 20.319878 0.104016
v 25.787485 20.309963 0.104016
v 19.411798 20.311159 0.104016
v 25.784853 24.434654 0.104016
v 19.367331 24.406221 0.104016
v 25.787489 24.456093 0.104016
v 19.411800 24.457256 0.104016
v 25.784853 28.469439 0.104016
v 19.367331 28.441772 0.104016
v 32.233307 16.168703 0.104016
v 26.560877 16.169914 0.104016
v 32.230968 20.348690 0.104016
v 26.521313 20.319874 0.104016
v 32.233307 20.309961 0.104016
v 26.560877 20.311157 0.104016
v 32.230968 24.434652 0.104016
v 26.521313 24.406219 0.104016
v 32.233311 24.456091 0.104016
v 26.560879 24.457254 0.104016
v 32.230968 28.469437 0.104016
v 26.521313 28.441769 0.104016
v 38.368370 16.168701 0.104016
v 32.170586 16.169912 0.104016
v 38.365814 20.348688 0.104016
v 32.127357 20.319874 0.104016
v 38.368370 20.309959 0.104016
v 32.170586 20.311155 0.104016
v 38.365814 24.434650 0.104016
v 32.127357 24.406218 0.104016
v 38.368374 24.456089 0.104016
v 32.170589 24.457253 0.104016
v 38.365814 28.469435 0.104016
v 32.127357 28.441769 0.104016
v -13.748898 2.389243 0.087358
v -21.541378 2.398317 1.461383
v -13.744861 -1.790772 0.086640
v -21.588495 -1.751609 1.469690
v -13.770815 -1.772635 0.087358
v -21.563293 -1.763196 1.461383
v -13.766521 -5.901350 0.086640
v -21.516100 -5.862187 1.469690
v -13.791862 -5.944592 0.087358
v -21.466351 -5.934033 1.440575
v -13.787043 -9.961466 0.086640
v -21.511290 -9.601906 1.448882
v -21.447256 2.427063 1.383774
v -28.869678 2.434278 2.961441
v -21.444265 -1.752943 1.382398
v -28.915333 -1.715637 2.970428
v -21.469107 -1.734815 1.383803
v -28.891529 -1.727226 2.961471
v -21.465870 -5.863514 1.382428
v -28.936998 -5.826209 2.970460
v -21.564991 -5.877956 1.396127
v -28.987413 -5.870367 2.973794
v -21.561754 -9.633600 1.394752
v -29.032883 -9.377438 2.982784
v -13.748914 16.106781 0.087358
v -21.541395 16.097708 1.461383
v -13.744877 20.286797 0.086640
v -21.588512 20.247635 1.469690
v -13.770831 20.268661 0.087358
v -21.563311 20.259220 1.461383
v -13.766538 24.397375 0.086640
v -21.516117 24.358212 1.469690
v -13.791879 24.440617 0.087358
v -21.466368 24.430058 1.440575
v -13.787059 28.457491 0.086640
v -21.511307 28.097931 1.448882
v -21.447273 16.068962 1.383774
v -28.869696 16.061747 2.961441
v -21.444283 20.248968 1.382398
v -28.915350 20.211662 2.970428
v -21.469124 20.230841 1.383803
v -28.891546 20.223251 2.961471
v -21.465887 24.359539 1.382428
v -28.937016 24.322233 2.970460
v -21.565008 24.373981 1.396127
v -28.987431 24.366392 2.973794
v -21.561771 28.129625 1.394752
v -29.032900 27.873463 2.982784
vt 0.994094 2.002793
vt -0.003513 2.003365
vt 0.993627 2.998275
vt -0.010829 3.011105
vn 0.000000 0.000000 1.000000
vn 0.000000 0.000000 1.000000
vn 0.000000 0.000000 1.000000
vn 0.000000 0.000000 1.000000
vn 0.000000 0.000000 1.000000
vn 0.000000 0.000000 1.000000
vn 0.000000 0.000000 1.000000
vn 0.000000 0.000000 1.000000
vn 0.000000 0.000000 1.000000
vn 0.000000 0.000000 1.000000
vn 0.000000 0.000000 1.000000
vn 0.000000 0.000000 1.000000
vn 0.000000 0.000000 1.000000
vn 0.000000 0.000000 1.000000
vn 0.000000 0.000000 1.000000
vn 0.000000 0.000000 1.000000
vn 0.000000 0.000000 1.000000
vn 0.000000 0.000000 1.000000
vn 0.000000 0.000000 1.000000
vn 0.000000 0.000000 1.000000
vn 0.000000 0.000000 1.000000
vn 0.000000 0.000000 1.000000
vn 0.000000 0.000000 1.000000
vn 0.000000 0.000000 1.000000
vn 0.000000 0.000000 1.000000
vn 0.000000 0.000000 1.000000
vn 0.000000 0.000000 1.000000
vn 0.000000 0.000000 1.000000
vn 0.000000 0.000000 1.000000
vn 0.000000 0.000000 1.000000
vn 0.000000 0.000000 1.000000
vn 0.000000 0.000000 1.000000
vn 0.000000 0.000000 1.000000
vn 0.000000 0.000000 1.000000
vn 0.000000 0.000000 1.000000
vn 0.000000 0.000000 1.000000
vn 0.000000 0.000000 1.000000
vn 0.000000 0.000000 1.000000
vn 0.000000 0.000000 1.000000
vn 0.000000 0.000000 1.000000
vn 0.000000 0.000000 1.000000
vn 0.000000 0.000000 1.000000
vn 0.000000 0.000000 1.000000
vn 0.000000 0.000000 1.000000
vn 0.000000 0.000000 1.000000
vn 0.000000 0.000000 1.000000
vn 0.000000 0.000000 1.000000
vn 0.000000 0.000000 1.000000
vn 0.000000 0.000000 1.000000
vn 0.000000 0.000000 1.000000
vn 0.000000 0.000000 1.000000
vn 0.000000 0.000000 1.000000
vn 0.000000 0.000000 1.000000
vn 0.000000 0.000000 1.000000
vn 0.000000 0.000000 1.000000
vn 0.000000 0.000000 1.000000
vn 0.000000 0.000000 1.000000
vn 0.000000 0.000000 1.000000
vn 0.000000 0.000000 1.000000
vn 0.000000 0.000000 1.000000
vn 0.000000 0.000000 1.000000
vn 0.000000 0.000000 1.000000
vn 0.000000 0.000000 1.000000
vn 0.000000 0.000000 1.000000
vn 0.000000 0.000000 1.000000
vn 0.000000 0.000000 1.000000
vn 0.000000 0.000000 1.000000
vn 0.000000 0.000000 1.000000
vn 0.000000 0.000000 1.000000
vn 0.000000 0.000000 1.000000
vn 0.000000 0.000000 1.000000
vn 0.000000 0.000000 1.000000
vn 0.000000 0.000000 1.000000
vn 0.000000 0.000000 1.000000
vn 0.000000 0.000000 1.000000
vn 0.000000 0.000000 1.000000
vn 0.000000 0.000000 1.000000
vn 0.000000 0.000000 1.000000
vn 0.000000 0.000000 1.000000
vn 0.000000 0.000000 1.000000
vn 0.000000 0.000000 1.000000
vn 0.000000 0.000000 1.000000
vn 0.000000 0.000000 1.000000
vn 0.000000 0.000000 1.000000
vn 0.000000 0.000000 1.000000
vn 0.000000 0.000000 1.000000
vn 0.000000 0.000000 1.000000
vn 0.000000 0.000000 1.000000
vn 0.000000 0.000000 1.000000
vn 0.000000 0.000000 1.000000
vn 0.000000 0.000000 1.000000
vn 0.000000 0.000000 1.000000
vn 0.000000 0.000000 1.000000
vn 0.000000 0.000000 1.000000
vn 0.000000 0.000000 1.000000
vn 0.000000 0.000000 1.000000
vn 0.000000 0.000000 1.000000
vn 0.000000 0.000000 1.000000
vn 0.000000 0.000000 1.000000
vn 0.000000 0.000000 1.000000
vn 0.000000 0.000000 1.000000
vn 0.000000 0.000000 1.000000
vn 0.000000 0.000000 1.000000
vn 0.000000 0.000000 1.000000
vn 0.000000 0.000000 1.000000
vn 0.000000 0.000000 1.000000
vn 0.000000 0.000000 1.000000
vn 0.000000 0.000000 1.000000
vn 0.000000 0.000000 1.000000
vn 0.000000 0.000000 1.000000
vn 0.000000 0.000000 1.000000
vn 0.000000 0.000000 1.000000
vn 0.000000 0.000000 1.000000
vn 0.000000 0.000000 1.000000
vn 0.000000 0.000000 1.000000
vn 0.000000 0.000000 1.000000
vn 0.000000 0.000000 1.000000
vn 0.000000 0.000000 1.000000
vn 0.000000 0.000000 1.000000
vn 0.000000 0.000000 1.000000
vn 0.000000 0.000000 1.000000
vn 0.000000 0.000000 1.000000
vn 0.000000 0.000000 1.000000
vn 0.000000 0.000000 1.000000
vn 0.000000 0.000000 1.000000
vn 0.000000 0.000000 1.000000
vn 0.000000 0.000000 1.000000
vn 0.000000 0.000000 1.000000
vn 0.000000 0.000000 1.000000
vn 0.000000 0.000000 1.000000
vn 0.000000 0.000000 1.000000
vn 0.000000 0.000000 1.000000
vn 0.000000 0.000000 1.000000
vn 0.000000 0.000000 1.000000
vn 0.000000 0.000000 1.000000
vn 0.000000 0.000000 1.000000
vn 0.000000 0.000000 1.000000
vn 0.000000 0.000000 1.000000
vn 0.000000 0.000000 1.000000
vn 0.000000 0.000000 1.000000
vn 0.000000 0.000000 1.000000
vn 0.000000 0.000000 1.000000
vn 0.000000 0.000000 1.000000
vn 0.000000 0.000000 1.000000
vn 0.000000 0.000000 1.000000
vn 0.000000 0.000000 1.000000
vn 0.000000 0.000000 1.000000
vn 0.000000 0.000000 1.000000
vn 0.000000 0.000000 1.000000
vn 0.000000 0.000000 1.000000
vn 0.000000 0.000000 1.000000
vn 0.000000 0.000000 1.000000
vn 0.000000 0.000000 1.000000
vn 0.000000 0.000000 1.000000
vn 0.000000 0.000000 1.000000
vn 0.000000 0.000000 1.000000
vn 0.000000 0.000000 1.000000
vn 0.000000 0.000000 1.000000
vn 0.000000 0.000000 1.000000
vn 0.000000 0.000000 1.000000
vn 0.000000 0.000000 1.000000
vn 0.000000 0.000000 1.000000
vn 0.000000 0.000000 1.000000
vn 0.000000 0.000000 1.000000
vn 0.000000 0.000000 1.000000
vn 0.000000 0.000000 1.000000
vn 0.000000 0.000000 1.000000
vn 0.000000 0.000000 1.000000
vn 0.000000 0.000000 1.000000
vn 0.000000 0.000000 1.000000
vn 0.000000 0.000000 1.000000
vn 0.000000 0.000000 1.000000
vn 0.000000 0.000000 1.000000
vn 0.000000 0.000000 1.000000
vn 0.000000 0.000000 1.000000
vn 0.000000 0.000000 1.000000
vn 0.000000 0.000000 1.000000
vn 0.000000 0.000000 1.000000
vn 0.000000 0.000000 1.000000
vn 0.000000 0.000000 1.000000
vn -0.000000 0.000003 1.000000
vn -0.000001 0.000002 1.000000
vn -0.000003 0.000001 1.000000
vn -0.000004 0.000000 1.000000
vn -0.000004 0.000000 1.000000
vn -0.000004 0.000000 1.000000
vn -0.000004 0.000000 1.000000
vn 0.000000 0.000000 1.000000
vn 0.000000 0.000000 1.000000
vn 0.000000 0.000000 1.000000
vn 0.000000 0.000000 1.000000
vn 0.000000 0.000000 1.000000
vn 0.000000 0.000000 1.000000
vn 0.000000 0.000000 1.000000
vn 0.000000 0.000000 1.000000
vn 0.000000 0.000000 1.000000
vn 0.000000 0.000000 1.000000
vn 0.000000 0.000000 1.000000
vn 0.000000 0.000000 1.000000
vn -0.000000 0.000003 1.000000
vn -0.000000 0.000003 1.000000
vn -0.000000 0.000003 1.000000
vn 0.000000 0.000000 1.000000
vn 0.000000 0.000000 1.000000
vn 0.000000 0.000000 1.000000
vn 0.000000 0.000000 1.000000
vn 0.000000 0.000000 1.000000
vn 0.000000 0.000000 1.000000
vn 0.000000 0.000000 1.000000
vn 0.000000 0.000000 1.000000
vn 0.000000 0.000000 1.000000
vn 0.000000 0.000000 1.000000
vn 0.000000 0.000000 1.000000
vn 0.000000 0.000000 1.000000
vn 0.000000 0.000000 1.000000
vn 0.000000 0.000000 1.000000
vn 0.000000 0.000000 1.000000
vn 0.000000 0.000000 1.000000
vn 0.000000 0.000000 1.000000
vn 0.000000 0.000000 1.000000
vn 0.000000 0.000000 1.000000
vn 0.000000 0.000000 1.000000
vn 0.000000 0.000000 1.000000
vn 0.000000 0.000000 1.000000
vn 0.000000 0.000000 1.000000
vn 0.000000 0.000000 1.000000
vn 0.000000 0.000000 1.000000
vn 0.000000 0.000000 1.000000
vn 0.000000 0.000000 1.000000
vn 0.000000 0.000000 1.000000
vn 0.000000 0.000000 1.000000
vn 0.000000 0.000000 1.000000
vn 0.000000 0.000000 1.000000
vn 0.000000 0.000000 1.000000
vn 0.000000 0.000000 1.000000
vn 0.000000 0.000000 1.000000
vn 0.000000 0.000000 1.000000
vn 0.000000 0.000000 1.000000
vn 0.000000 0.000000 1.000000
vn 0.000000 0.000000 1.000000
vn 0.000000 0.000000 1.000000
vn 0.000000 0.000000 1.000000
vn 0.000000 0.000000 1.000000
vn 0.000000 0.000000 1.000000
vn 0.000000 0.000000 1.000000
vn 0.000000 0.000000 1.000000
vn -0.000000 -0.000003 1.000000
vn -0.000001 -0.000002 1.000000
vn -0.000003 -0.000001 1.000000
vn -0.000004 -0.000000 1.000000
vn -0.000004 -0.000000 1.000000
vn -0.000004 -0.000000 1.000000
vn -0.000004 -0.000000 1.000000
vn 0.000000 0.000000 1.000000
vn 0.000000 0.000000 1.000000
vn 0.000000 0.000000 1.000000
vn 0.000000 0.000000 1.000000
vn 0.000000 0.000000 1.000000
vn 0.000000 0.000000 1.000000
vn 0.000000 0.000000 1.000000
vn 0.000000 0.000000 1.000000
vn 0.000000 -0.000003 1.000000
vn 0.000000 -0.000003 1.000000
vn 0.000000 -0.000003 1.000000
vn 0.000000 0.000000 1.000000
vn 0.000000 0.000000 1.000000
vn 0.000000 0.000000 1.000000
vn 0.000000 0.000000 1.000000
vn 0.000000 0.000000 1.000000
vn 0.000000 0.000000 1.000000
vn 0.000000 0.000000 1.000000
vn 0.000000 0.000000 1.000000
vn 0.000000 0.000000 1.000000
vn 0.000000 0.000000 1.000000
vn 0.000000 0.000000 1.000000
vn 0.000000 0.000000 1.000000
vn 0.000000 0.000000 1.000000
vn 0.000000 0.000000 1.000000
vn 0.000000 0.000000 1.000000
vn 0.000000 0.000000 1.000000
vn 0.000000 0.000000 1.000000
vn 0.000000 0.000000 1.000000
vn 0.000000 0.000000 1.000000
vn 0.000000 0.000000 1.000000
vn 0.000000 0.000000 1.000000
vn 0.000000 0.000000 1.000000
vn 0.000000 0.000000 1.000000
vn 0.000000 0.000000 1.000000
vn 0.000000 0.000000 1.000000
vn 0.000000 0.000000 1.000000
vn 0.000000 0.000000 1.000000
vn 0.000000 0.000000 1.000000
vn 0.000000 0.000000 1.000000
vn 0.000000 0.000000 1.000000
vn 0.000000 0.000000 1.000000
vn 0.000000 0.000000 1.000000
vn 0.000000 0.000000 1.000000
vn 0.000000 0.000000 1.000000
vn 0.000000 0.000000 1.000000
vn 0.000000 0.000000 1.000000
vn 0.000000 0.000000 1.000000
vn 0.000000 0.000000 1.000000
vn 0.000000 0.000000 1.000000
vn 0.000000 0.000000 1.000000
vn 0.000000 0.000000 1.000000
vn 0.000000 0.000000 1.000000
vn 0.000000 0.000000 1.000000
vn 0.000000 0.000000 1.000000
vn 0.000000 0.000000 1.000000
vn 0.000000 0.000000 1.000000
vn 0.000000 0.000000 1.000000
vn 0.000000 0.000000 1.000000
vn 0.000000 0.000000 1.000000
vn 0.000000 0.000000 1.000000
vn 0.000000 0.000000 1.000000
vn 0.000000 0.000000 1.000000
vn 0.000000 0.000000 1.000000
vn 0.000000 0.000000 1.000000
vn 0.000000 0.000000 1.000000
vn 0.000000 0.000000 1.000000
vn 0.000000 0.000000 1.000000
vn 0.000000 0.000000 1.000000
vn 0.000000 0.000000 1.000000
vn 0.000000 0.000000 1.000000
vn 0.000000 0.000000 1.000000
vn 0.000000 0.000000 1.000000
vn 0.000000 0.000000 1.000000
vn 0.000000 0.000000 1.000000
vn 0.000000 0.000000 1.000000
vn 0.000000 0.000000 1.000000
vn 0.000000 0.000000 1.000000
vn 0.000000 0.000000 1.000000
vn 0.000000 0.000000 1.000000
vn 0.000000 0.000000 1.000000
vn 0.000000 0.000000 1.000000
vn 0.000000 0.000000 1.000000
vn 0.000000 0.000000 1.000000
vn 0.000000 0.000000 1.000000
vn 0.000000 0.000000 1.000000
vn 0.000000 0.000000 1.000000
vn 0.000000 0.000000 1.000000
vn 0.000000 0.000000 1.000000
vn 0.000000 0.000000 1.000000
vn 0.000000 0.000000 1.000000
vn 0.000000 0.000000 1.000000
vn 0.000000 0.000000 1.000000
vn 0.000000 0.000000 1.000000
vn 0.000000 0.000000 1.000000
vn 0.000000 0.000000 1.000000
vn 0.000000 0.000000 1.000000
vn 0.000000 0.000000 1.000000
vn 0.000000 0.000000 1.000000
vn 0.000000 0.000000 1.000000
vn 0.000000 0.000000 1.000000
vn 0.000000 0.000000 1.000000
vn 0.000000 0.000000 1.000000
vn 0.000000 0.000000 1.000000
vn 0.000000 0.000000 1.000000
vn 0.000000 0.000000 1.000000
vn 0.000000 0.000000 1.000000
vn 0.000000 0.000000 1.000000
vn 0.000000 0.000000 1.000000
vn 0.000000 0.000000 1.000000
vn 0.000000 0.000000 1.000000
vn 0.000000 0.000000 1.000000
vn 0.000000 0.000000 1.000000
vn 0.000000 0.000000 1.000000
vn 0.000000 0.000000 1.000000
vn 0.000000 0.000000 1.000000
vn 0.000000 0.000000 1.000000
vn 0.000000 0.000000 1.000000
vn 0.000000 0.000000 1.000000
vn 0.000000 0.000000 1.000000
vn 0.000000 0.000000 1.000000
vn 0.000000 0.000000 1.000000
vn 0.000000 0.000000 1.000000
vn 0.000000 0.000000 1.000000
vn 0.000000 0.000000 1.000000
vn 0.000000 0.000000 1.000000
vn 0.000000 0.000000 1.000000
vn 0.000000 0.000000 1.000000
vn 0.000000 0.000000 1.000000
vn 0.000000 0.000000 1.000000
vn 0.000000 0.000000 1.000000
vn 0.000000 0.000000 1.000000
vn 0.000000 0.000000 1.000000
vn 0.000000 0.000000 1.000000
vn 0.000000 0.000000 1.000000
vn 0.000000 0.000000 1.000000
vn 0.000000 0.000000 1.000000
vn 0.000000 0.000000 1.000000
vn 0.000000 0.000000 1.000000
vn 0.000000 0.000000 1.000000
vn 0.000000 0.000000 1.000000
vn 0.000000 0.000000 1.000000
vn 0.000000 0.000000 1.000000
vn 0.173648 -0.000001 0.984808
vn 0.173649 -0.000001 0.984808
vn 0.173649 -0.000001 0.984808
vn 0.173649 -0.000000 0.984808
vn 0.173648 0.000009 0.984808
vn 0.175075 0.002782 0.984551
vn 0.174277 0.001231 0.984696
vn 0.175710 0.004018 0.984434
vn 0.173648 0.000032 0.984808
vn 0.173673 0.000081 0.984803
vn 0.173658 0.000052 0.984806
vn 0.173684 0.000102 0.984801
vn 0.207909 -0.000173 0.978148
vn 0.207911 -0.000170 0.978148
vn 0.207910 -0.000172 0.978148
vn 0.207912 -0.000169 0.978148
vn 0.207909 -0.000163 0.978148
vn 0.207910 -0.000162 0.978148
vn 0.207910 -0.000162 0.978148
vn 0.207910 -0.000161 0.978148
vn 0.207909 -0.000179 0.978148
vn 0.207906 -0.000186 0.978149
vn 0.207908 -0.000182 0.978148
vn 0.207905 -0.000188 0.978149
vn 0.173648 0.000001 0.984808
vn 0.173649 0.000001 0.984808
vn 0.173648 0.000001 0.984808
vn 0.173649 0.000000 0.984808
vn 0.173648 -0.000009 0.984808
vn 0.175075 -0.002782 0.984551
vn 0.174277 -0.001231 0.984696
vn 0.175710 -0.004018 0.984434
vn 0.173648 -0.000032 0.984808
vn 0.173673 -0.000081 0.984803
vn 0.173658 -0.000052 0.984806
vn 0.173684 -0.000102 0.984802
vn 0.207909 0.000173 0.978148
vn 0.207911 0.000170 0.978148
vn 0.207910 0.000172 0.978148
vn 0.207912 0.000169 0.978148
vn 0.207909 0.000163 0.978148
vn 0.207910 0.000162 0.978148
vn 0.207910 0.000162 0.978148
vn 0.207910 0.000161 0.978148
vn 0.207909 0.000179 0.978148
vn 0.207906 0.000186 0.978149
vn 0.207908 0.000182 0.978148
vn 0.207905 0.000188 0.978149
g fff0af20_00086_002546ee_e32
f 3/3/3 2/2/2 4/4/4
f 2/2/2 3/3/3 1/1/1
f 7/3/7 6/2/6 8/4/8
f 6/2/6 7/3/7 5/1/5
f 11/3/11 10/2/10 12/4/12
f 10/2/10 11/3/11 9/1/9
f 15/3/15 14/2/14 16/4/16
f 14/2/14 15/3/15 13/1/13
f 19/3/19 18/2/18 20/4/20
f 18/2/18 19/3/19 17/1/17
f 23/3/23 22/2/22 24/4/24
f 22/2/22 23/3/23 21/1/21
f 27/3/27 26/2/26 28/4/28
f 26/2/26 27/3/27 25/1/25
f 31/3/31 30/2/30 32/4/32
f 30/2/30 31/3/31 29/1/29
f 35/3/35 34/2/34 36/4/36
f 34/2/34 35/3/35 33/1/33
f 39/3/39 38/2/38 40/4/40
f 38/2/38 39/3/39 37/1/37
f 43/3/43 42/2/42 44/4/44
f 42/2/42 43/3/43 41/1/41
f 47/3/47 46/2/46 48/4/48
f 46/2/46 47/3/47 45/1/45
f 51/3/51 50/2/50 52/4/52
f 50/2/50 51/3/51 49/1/49
f 55/3/55 54/2/54 56/4/56
f 54/2/54 55/3/55 53/1/53
f 59/3/59 58/2/58 60/4/60
f 58/2/58 59/3/59 57/1/57
f 63/3/63 62/2/62 64/4/64
f 62/2/62 63/3/63 61/1/61
f 67/3/67 66/2/66 68/4/68
f 66/2/66 67/3/67 65/1/65
f 71/3/71 70/2/70 72/4/72
f 70/2/70 71/3/71 69/1/69
f 75/3/75 74/2/74 76/4/76
f 74/2/74 75/3/75 73/1/73
f 79/3/79 78/2/78 80/4/80
f 78/2/78 79/3/79 77/1/77
f 83/3/83 82/2/82 84/4/84
f 82/2/82 83/3/83 81/1/81
f 87/3/87 86/2/86 88/4/88
f 86/2/86 87/3/87 85/1/85
f 91/3/91 90/2/90 92/4/92
f 90/2/90 91/3/91 89/1/89
f 95/3/95 94/2/94 96/4/96
f 94/2/94 95/3/95 93/1/93
f 99/3/99 98/2/98 100/4/100
f 98/2/98 99/3/99 97/1/97
f 103/3/103 102/2/102 104/4/104
f 102/2/102 103/3/103 101/1/101
f 107/3/107 106/2/106 108/4/108
f 106/2/106 107/3/107 105/1/105
f 111/3/111 110/2/110 112/4/112
f 110/2/110 111/3/111 109/1/109
f 115/3/115 114/2/114 116/4/116
f 114/2/114 115/3/115 113/1/113
f 119/3/119 118/2/118 120/4/120
f 118/2/118 119/3/119 117/1/117
f 123/3/123 122/2/122 124/4/124
f 122/2/122 123/3/123 121/1/121
f 127/3/127 126/2/126 128/4/128
f 126/2/126 127/3/127 125/1/125
f 131/3/131 130/2/130 132/4/132
f 130/2/130 131/3/131 129/1/129
f 135/3/135 134/2/134 136/4/136
f 134/2/134 135/3/135 133/1/133
f 139/3/139 138/2/138 140/4/140
f 138/2/138 139/3/139 137/1/137
f 143/3/143 142/2/142 144/4/144
f 142/2/142 143/3/143 141/1/141
f 147/3/147 146/2/146 148/4/148
f 146/2/146 147/3/147 145/1/145
f 151/3/151 150/2/150 152/4/152
f 150/2/150 151/3/151 149/1/149
f 155/3/155 154/2/154 156/4/156
f 154/2/154 155/3/155 153/1/153
f 159/3/159 158/2/158 160/4/160
f 158/2/158 159/3/159 157/1/157
f 163/3/163 162/2/162 164/4/164
f 162/2/162 163/3/163 161/1/161
f 167/3/167 166/2/166 168/4/168
f 166/2/166 167/3/167 165/1/165
f 171/3/171 170/2/170 172/4/172
f 170/2/170 171/3/171 169/1/169
f 175/3/175 174/2/174 176/4/176
f 174/2/174 175/3/175 173/1/173
f 179/3/179 178/2/178 180/4/180
f 178/2/178 179/3/179 177/1/177
f 183/3/183 182/2/182 184/4/184
f 182/2/182 183/3/183 181/1/181
f 209/3/209 208/2/208 210/4/210
f 186/2/186 187/4/187 185/1/185
f 190/3/190 189/2/189 191/4/191
f 189/2/189 190/3/190 188/1/188
f 194/3/194 193/2/193 195/4/195
f 193/2/193 194/3/194 192/1/192
f 198/3/198 197/2/197 199/4/199
f 197/2/197 198/3/198 196/1/196
f 208/2/208 209/3/209 207/1/207
f 201/2/201 202/4/202 200/1/200
f 205/3/205 204/2/204 206/4/206
f 204/2/204 205/3/205 203/1/203
f 213/3/213 214/4/214 212/2/212
f 212/2/212 211/1/211 213/3/213
f 217/3/217 218/4/218 216/2/216
f 216/2/216 215/1/215 217/3/217
f 221/3/221 222/4/222 220/2/220
f 220/2/220 219/1/219 221/3/221
f 225/3/225 226/4/226 224/2/224
f 224/2/224 223/1/223 225/3/225
f 229/3/229 230/4/230 228/2/228
f 228/2/228 227/1/227 229/3/229
f 233/3/233 234/4/234 232/2/232
f 232/2/232 231/1/231 233/3/233
f 237/3/237 238/4/238 236/2/236
f 236/2/236 235/1/235 237/3/237
f 241/3/241 242/4/242 240/2/240
f 240/2/240 239/1/239 241/3/241
f 245/3/245 246/4/246 244/2/244
f 244/2/244 243/1/243 245/3/245
f 249/3/249 250/4/250 248/2/248
f 248/2/248 247/1/247 249/3/249
f 252/2/252 251/1/251 253/4/253
f 256/3/256 257/4/257 255/2/255
f 255/2/255 254/1/254 256/3/256
f 260/3/260 261/4/261 259/2/259
f 259/2/259 258/1/258 260/3/260
f 263/2/263 262/1/262 264/4/264
f 267/3/267 268/4/268 266/2/266
f 266/2/266 265/1/265 267/3/267
f 271/3/271 272/4/272 270/2/270
f 270/2/270 269/1/269 271/3/271
f 275/3/275 276/4/276 274/2/274
f 274/2/274 273/1/273 275/3/275
f 279/3/279 280/4/280 278/2/278
f 278/2/278 277/1/277 279/3/279
f 283/3/283 284/4/284 282/2/282
f 282/2/282 281/1/281 283/3/283
f 287/3/287 288/4/288 286/2/286
f 286/2/286 285/1/285 287/3/287
f 291/3/291 292/4/292 290/2/290
f 290/2/290 289/1/289 291/3/291
f 295/3/295 296/4/296 294/2/294
f 294/2/294 293/1/293 295/3/295
f 299/3/299 300/4/300 298/2/298
f 298/2/298 297/1/297 299/3/299
f 303/3/303 304/4/304 302/2/302
f 302/2/302 301/1/301 303/3/303
f 307/3/307 308/4/308 306/2/306
f 306/2/306 305/1/305 307/3/307
f 311/3/311 312/4/312 310/2/310
f 310/2/310 309/1/309 311/3/311
f 315/3/315 316/4/316 314/2/314
f 314/2/314 313/1/313 315/3/315
f 319/3/319 320/4/320 318/2/318
f 318/2/318 317/1/317 319/3/319
f 323/3/323 324/4/324 322/2/322
f 322/2/322 321/1/321 323/3/323
f 327/3/327 328/4/328 326/2/326
f 326/2/326 325/1/325 327/3/327
f 331/3/331 332/4/332 330/2/330
f 330/2/330 329/1/329 331/3/331
f 335/3/335 336/4/336 334/2/334
f 334/2/334 333/1/333 335/3/335
f 339/3/339 340/4/340 338/2/338
f 338/2/338 337/1/337 339/3/339
f 343/3/343 344/4/344 342/2/342
f 342/2/342 341/1/341 343/3/343
f 347/3/347 348/4/348 346/2/346
f 346/2/346 345/1/345 347/3/347
f 351/3/351 352/4/352 350/2/350
f 350/2/350 349/1/349 351/3/351
f 355/3/355 356/4/356 354/2/354
f 354/2/354 353/1/353 355/3/355
f 359/3/359 360/4/360 358/2/358
f 358/2/358 357/1/357 359/3/359
f 363/3/363 364/4/364 362/2/362
f 362/2/362 361/1/361 363/3/363
f 367/3/367 368/4/368 366/2/366
f 366/2/366 365/1/365 367/3/367
f 371/3/371 372/4/372 370/2/370
f 370/2/370 369/1/369 371/3/371
f 375/3/375 376/4/376 374/2/374
f 374/2/374 373/1/373 375/3/375
f 379/3/379 380/4/380 378/2/378
f 378/2/378 377/1/377 379/3/379
f 383/3/383 384/4/384 382/2/382
f 382/2/382 381/1/381 383/3/383
f 387/3/387 388/4/388 386/2/386
f 386/2/386 385/1/385 387/3/387
f 391/3/391 392/4/392 390/2/390
f 390/2/390 389/1/389 391/3/391
f 395/3/395 396/4/396 394/2/394
f 394/2/394 393/1/393 395/3/395
f 399/3/399 398/2/398 400/4/400
f 398/2/398 399/3/399 397/1/397
f 403/3/403 402/2/402 404/4/404
f 402/2/402 403/3/403 401/1/401
f 407/3/407 406/2/406 408/4/408
f 406/2/406 407/3/407 405/1/405
f 411/3/411 410/2/410 412/4/412
f 410/2/410 411/3/411 409/1/409
f 415/3/415 414/2/414 416/4/416
f 414/2/414 415/3/415 413/1/413
f 419/3/419 418/2/418 420/4/420
f 418/2/418 419/3/419 417/1/417
f 423/3/423 424/4/424 422/2/422
f 422/2/422 421/1/421 423/3/423
f 427/3/427 428/4/428 426/2/426
f 426/2/426 425/1/425 427/3/427
f 431/3/431 432/4/432 430/2/430
f 430/2/430 429/1/429 431/3/431
f 435/3/435 436/4/436 434/2/434
f 434/2/434 433/1/433 435/3/435
f 439/3/439 440/4/440 438/2/438
f 438/2/438 437/1/437 439/3/439
f 443/3/443 444/4/444 442/2/442
f 442/2/442 441/1/441 443/3/443
