# fff08519_00070_0015ca2e
o fff08519_00070_0015ca2e
v -3.887260 4.738667 -1.288947
v -3.437092 4.934211 -1.333458
v -3.539036 4.366109 -1.334310
v -3.564383 4.601280 -1.115148
v -3.319164 4.783676 -1.349328
v -3.542615 4.469887 -1.161804
v -2.496483 6.522942 -1.497028
v -2.448086 6.725270 -1.546545
v -2.269729 6.548477 -1.506549
v -2.366311 6.635281 -1.430080
v -2.362489 6.727822 -1.548430
v -2.312112 6.602653 -1.441873
v 2.306479 -1.857673 -0.576565
v 2.293448 -1.759214 -0.619239
v 2.532281 -1.837356 -0.605876
v 2.391341 -1.728289 -0.529973
v 2.385093 -1.698243 -0.654613
v 2.496355 -1.774955 -0.514675
v 2.427856 -1.892993 -0.571730
v 1.592333 -6.008253 0.969887
v 1.572965 -5.903431 0.951940
v 1.816704 -5.965123 0.962479
v 1.663168 -5.888969 1.052745
v 1.660635 -5.829135 0.939209
v 1.770937 -5.930346 1.063461
v 1.715912 -6.034877 0.974434
v -2.412957 7.169259 -1.579398
v -2.281047 7.266727 -1.608525
v -2.267062 7.078019 -1.561048
v -2.283372 7.215263 -1.542382
v -2.229604 7.228077 -1.600409
v -2.280639 7.130080 -1.491460
v 2.798367 -2.610626 -0.385464
v 2.964265 -2.456133 -0.398151
v 3.000178 -2.705450 -0.296505
v 2.945522 -2.542666 -0.298015
v 3.036026 -2.498212 -0.363434
v 2.971396 -2.587297 -0.252553
v 2.563735 -2.522148 -0.389844
v 2.579330 -2.425860 -0.436422
v 2.789597 -2.557235 -0.393370
v 2.671771 -2.414075 -0.337310
v 2.686154 -2.390214 -0.462612
v 2.760273 -2.483280 -0.308683
v 2.671849 -2.584760 -0.370027
v 2.633490 -2.028739 -0.526182
v 2.742367 -1.954952 -0.570457
v 2.755363 -2.102050 -0.502562
v 2.742956 -1.986665 -0.508227
v 2.785391 -1.985847 -0.559765
v 2.747034 -2.048403 -0.453340
v 3.588359 -6.704079 1.264647
v 3.659338 -6.445197 1.153884
v 3.887260 -6.686561 1.227771
v 3.774423 -6.559216 1.375317
v 3.771904 -6.447772 1.143671
v 3.842318 -6.606846 1.350809
v 1.562377 -5.512236 0.840811
v 1.588379 -5.393944 0.773057
v 1.703972 -5.499465 0.816884
v 1.626738 -5.413387 0.828095
v 1.641980 -5.393286 0.766282
v 1.682594 -5.455931 0.871817
v -1.814324 6.602816 -1.454625
v -1.650869 6.738046 -1.513095
v -1.620667 6.484166 -1.480667
v -1.642463 6.600330 -1.357562
v -1.582168 6.687476 -1.521019
v -1.620216 6.543131 -1.380546
v 1.828923 -5.697148 0.851654
v 1.939026 -5.528259 0.823821
v 2.040068 -5.742965 0.854306
v 1.962849 -5.605812 0.886473
v 2.016392 -5.551986 0.825844
v 2.006184 -5.713350 0.930366
v 3.069621 -7.266727 1.530690
v 3.118016 -7.064399 1.473120
v 3.296374 -7.241193 1.519620
v 3.199791 -7.154388 1.608525
v 3.203614 -7.061848 1.470929
v 3.253991 -7.187016 1.594814
v 2.413584 -7.135557 1.479352
v 2.545495 -7.038089 1.450225
v 2.559479 -7.226797 1.497703
v 2.543169 -7.089552 1.516369
v 2.596938 -7.076738 1.458342
v 2.545903 -7.174736 1.567291
v -0.275763 -0.994489 -0.969929
v -0.479845 -0.744459 -1.024900
v -0.217085 -0.845530 -1.033973
v -0.386710 -0.754920 -0.970538
v -0.371353 -0.658529 -1.054831
v -0.275954 -0.782480 -0.944761
v -0.268510 -0.719289 -1.051360
vt 0.384243 1.002206
vt 0.601469 0.819239
vt 0.383891 1.000368
vt 0.385478 1.003850
vt 0.499580 1.042743
vt 0.384138 1.001230
vt 0.600194 0.818206
vt 0.600468 0.818757
vt 0.599584 0.820014
vt 0.600604 0.820260
vt 0.601200 0.819817
vt 0.498675 1.043418
vt 0.498885 1.044694
vt 0.500578 1.036538
vt 0.383773 1.000705
vt 0.499089 1.043109
vn -0.460712 0.146902 0.875308
vn 0.236652 0.467881 0.851518
vn 0.180142 -0.841217 0.509806
vn 0.055115 0.010680 0.998423
vn 0.667205 0.119794 0.735178
vn 0.154018 -0.655761 0.739091
vn -0.407941 -0.129573 0.903767
vn -0.333053 0.618480 0.711729
vn 0.693122 -0.260237 0.672204
vn -0.019891 0.300845 0.953466
vn 0.274073 0.778979 0.563982
vn 0.595197 -0.024902 0.803194
vn -0.400530 -0.066385 0.913876
vn -0.658047 0.525006 0.539762
vn 0.930530 0.000499 0.366216
vn -0.171718 0.598166 0.782758
vn 0.039300 0.988941 0.143010
vn 0.589610 0.260086 0.764666
vn 0.053825 -0.414164 0.908609
vn -0.438877 -0.322066 0.838845
vn -0.727583 0.324273 0.604541
vn 0.907302 -0.024800 0.419749
vn -0.262343 0.368747 0.891741
vn -0.054041 0.921605 0.384350
vn 0.525430 0.101372 0.844776
vn 0.043640 -0.623960 0.780237
vn -0.565947 0.226458 0.792730
vn 0.032614 0.788266 0.614470
vn 0.362105 -0.711114 0.602658
vn 0.082227 0.642555 0.761814
vn 0.665469 0.470617 0.579370
vn 0.180590 -0.246964 0.952048
vn -0.652275 0.234508 0.720793
vn -0.228784 0.757339 0.611633
vn 0.050714 -0.337326 0.940021
vn -0.315921 0.659197 0.682387
vn 0.342497 0.624918 0.701551
vn 0.099705 0.120971 0.987636
vn -0.499158 0.079562 0.862851
vn -0.565961 0.693781 0.445372
vn 0.859268 -0.198931 0.471259
vn -0.104818 0.663370 0.740914
vn 0.260395 0.958088 0.119424
vn 0.550475 0.154878 0.820360
vn -0.143771 -0.365254 0.919739
vn -0.525999 0.378721 0.761509
vn 0.065194 0.889328 0.452599
vn 0.388354 -0.589534 0.708259
vn 0.121401 0.773325 0.622278
vn 0.694482 0.562757 0.448329
vn 0.225680 -0.065670 0.971986
vn -0.499805 -0.103299 0.859956
vn -0.300880 0.775160 0.555515
vn 0.827450 -0.282526 0.485289
vn 0.024690 0.356521 0.933961
vn 0.370433 0.854796 0.363461
vn 0.675385 -0.090035 0.731948
vn -0.372627 0.078580 0.924648
vn -0.316100 0.803645 0.504217
vn 0.855978 -0.187594 0.481779
vn -0.153316 0.758025 0.633950
vn 0.345196 0.899664 0.267292
vn 0.516846 0.169886 0.839052
vn -0.529069 0.120292 0.840010
vn 0.163562 0.742976 0.649025
vn 0.472464 -0.760363 0.445675
vn 0.157593 0.176922 0.971526
vn 0.768926 0.434975 0.468561
vn 0.442275 -0.541851 0.714696
vn -0.477237 -0.011226 0.878703
vn -0.143370 0.594904 0.790907
vn 0.656955 -0.556028 0.509160
vn -0.071040 0.476388 0.876360
vn 0.420130 0.548781 0.722724
vn 0.297047 -0.346827 0.889648
vn -0.460708 -0.145192 0.875595
vn -0.351992 0.667476 0.656183
vn 0.744882 -0.266322 0.611738
vn -0.030536 0.309184 0.950512
vn 0.288574 0.813601 0.504755
vn 0.612021 -0.052685 0.789084
vn -0.565946 0.226458 0.792731
vn 0.032610 0.788273 0.614462
vn 0.362100 -0.711118 0.602656
vn 0.082228 0.642556 0.761814
vn 0.665468 0.470621 0.579368
vn 0.180596 -0.246966 0.952047
vn 0.218924 -0.151778 0.963865
vn -0.455317 0.300872 0.837952
vn 0.864257 0.113507 0.490078
vn -0.260743 0.315533 0.912388
vn 0.073489 0.649846 0.756505
vn 0.380765 0.344946 0.857922
vn 0.486473 0.664984 0.566692
g fff08519_00070_0015ca2e_e0
f 5/7/5 2/8/2 4/9/4
f 4/10/4 2/2/2 1/11/1
f 3/3/3 6/6/6 1/1/1
f 3/12/3 5/5/5 6/13/6
f 6/6/6 4/4/4 1/1/1
f 6/13/6 5/5/5 4/14/4
f 11/7/11 8/8/8 10/9/10
f 10/10/10 8/2/8 7/11/7
f 9/3/9 12/6/12 7/1/7
f 9/12/9 11/5/11 12/13/12
f 12/6/12 10/4/10 7/1/7
f 12/13/12 11/5/11 10/14/10
f 17/7/17 14/8/14 16/9/16
f 16/10/16 14/2/14 13/11/13
f 19/15/19 18/6/18 16/4/16
f 15/12/15 17/5/17 18/13/18
f 19/15/19 16/4/16 13/1/13
f 18/13/18 17/5/17 16/14/16
f 15/3/15 18/6/18 19/15/19
f 24/7/24 21/8/21 23/9/23
f 23/10/23 21/2/21 20/11/20
f 26/15/26 25/6/25 23/4/23
f 22/12/22 24/5/24 25/13/25
f 26/15/26 23/4/23 20/1/20
f 25/13/25 24/5/24 23/14/23
f 22/3/22 25/6/25 26/15/26
f 31/7/31 28/8/28 30/9/30
f 30/10/30 28/2/28 27/11/27
f 29/3/29 32/6/32 27/1/27
f 29/12/29 31/5/31 32/13/32
f 32/6/32 30/4/30 27/1/27
f 32/13/32 31/5/31 30/14/30
f 37/7/37 34/8/34 36/9/36
f 36/10/36 34/2/34 33/11/33
f 35/3/35 38/6/38 33/1/33
f 35/12/35 37/5/37 38/13/38
f 38/6/38 36/4/36 33/1/33
f 38/13/38 37/5/37 36/14/36
f 43/7/43 40/8/40 42/9/42
f 42/10/42 40/2/40 39/11/39
f 45/15/45 44/6/44 42/4/42
f 41/12/41 43/5/43 44/13/44
f 45/15/45 42/4/42 39/1/39
f 44/13/44 43/5/43 42/14/42
f 41/3/41 44/6/44 45/15/45
f 50/7/50 47/8/47 49/9/49
f 49/10/49 47/2/47 46/11/46
f 48/3/48 51/6/51 46/1/46
f 48/12/48 50/5/50 51/13/51
f 51/6/51 49/4/49 46/1/46
f 51/13/51 50/5/50 49/14/49
f 56/7/56 53/8/53 55/9/55
f 55/10/55 53/2/53 52/11/52
f 54/3/54 57/6/57 52/1/52
f 54/12/54 56/5/56 57/13/57
f 57/6/57 55/4/55 52/1/52
f 57/13/57 56/5/56 55/14/55
f 62/7/62 59/8/59 61/9/61
f 61/10/61 59/2/59 58/11/58
f 60/3/60 63/6/63 58/1/58
f 60/12/60 62/5/62 63/13/63
f 63/6/63 61/4/61 58/1/58
f 63/13/63 62/5/62 61/14/61
f 68/7/68 65/8/65 67/9/67
f 67/10/67 65/2/65 64/11/64
f 66/3/66 69/6/69 64/1/64
f 66/12/66 68/5/68 69/13/69
f 69/6/69 67/4/67 64/1/64
f 69/13/69 68/5/68 67/14/67
f 74/7/74 71/8/71 73/9/73
f 73/10/73 71/2/71 70/11/70
f 72/3/72 75/6/75 70/1/70
f 72/12/72 74/5/74 75/13/75
f 75/6/75 73/4/73 70/1/70
f 75/13/75 74/5/74 73/14/73
f 80/7/80 77/8/77 79/9/79
f 79/10/79 77/2/77 76/11/76
f 78/3/78 81/6/81 76/1/76
f 78/12/78 80/5/80 81/13/81
f 81/6/81 79/4/79 76/1/76
f 81/13/81 80/5/80 79/14/79
f 86/7/86 83/8/83 85/9/85
f 85/10/85 83/2/83 82/11/82
f 84/3/84 87/6/87 82/1/82
f 84/12/84 86/5/86 87/13/87
f 87/6/87 85/4/85 82/1/82
f 87/13/87 86/5/86 85/14/85
f 92/7/92 89/8/89 91/9/91
f 91/10/91 89/2/89 88/11/88
f 90/3/90 93/6/93 88/1/88
f 90/12/90 94/16/94 93/13/93
f 93/6/93 91/4/91 88/1/88
f 93/13/93 94/16/94 91/14/91
f 94/16/94 92/5/92 91/14/91
