# fff0ac53_00400_0089d163
o fff0ac53_00400_0089d163
v -12.025772 12.180733 -44.056530
v 2.657764 12.180733 -44.056530
v -14.650070 11.897980 21.774052
v 4.600277 11.897980 21.774052
v -14.650070 2.166290 21.774052
v 4.600277 2.166290 21.774052
v -14.650070 11.897980 -38.762432
v 4.600277 11.897980 -38.762432
v -14.810173 10.511047 -44.056530
v -14.810173 3.342651 -44.056530
v -14.650070 11.897980 21.774052
v -14.650070 2.166290 21.774052
v -14.650070 11.897980 -38.762432
v -14.650070 2.166290 -38.762432
v -14.650070 11.897980 21.774052
v 4.600277 11.897980 21.774052
v -13.947388 10.796356 22.786671
v -13.947388 3.727745 22.786671
v 3.795525 10.796371 22.786671
v 3.795525 3.727767 22.786671
v -13.947388 10.796356 21.718266
v -13.947388 3.727745 21.718266
v -13.947388 10.796356 22.786671
v 3.795525 10.796371 22.786671
v -13.947388 10.796356 21.718266
v 3.795525 10.796371 21.718266
v -13.947388 10.796356 22.786671
v -13.947388 3.727745 22.786671
v -12.025772 12.180733 18.309391
v 2.657764 12.180733 18.309391
v -14.810173 10.511047 18.309391
v -14.810173 3.342651 18.309391
v -12.587524 -2.644295 -1.582401
v 3.361897 -2.644295 -1.582401
v -12.587524 1.630760 -1.582401
v -12.587524 -2.644295 -1.582401
v -12.587524 1.630760 -39.694302
v -12.587524 -2.644295 -39.694302
v -12.587524 1.630760 -1.582401
v 3.361897 1.630760 -1.582401
v -12.149132 10.155861 24.072529
v -12.149132 5.008728 24.072529
v -9.979805 10.155876 24.072529
v -9.979805 5.008743 24.072529
v -12.149132 10.155861 22.331036
v -12.149132 5.008728 22.331036
v -12.149132 10.155861 24.072529
v -9.979805 10.155876 24.072529
v -12.149132 10.155861 22.331036
v -9.979805 10.155876 22.331036
v -12.149132 10.155861 24.072529
v -12.149132 5.008728 24.072529
v -8.840439 10.155861 24.072529
v -8.840439 5.008728 24.072529
v -6.671112 10.155876 24.072529
v -6.671112 5.008743 24.072529
v -8.840439 10.155861 22.331036
v -8.840439 5.008728 22.331036
v -8.840439 10.155861 24.072529
v -6.671112 10.155876 24.072529
v -8.840439 10.155861 22.331036
v -6.671112 10.155876 22.331036
v -8.840439 10.155861 24.072529
v -8.840439 5.008728 24.072529
v -5.668755 10.155861 24.072529
v -5.668755 5.008728 24.072529
v -3.499428 10.155876 24.072529
v -3.499428 5.008743 24.072529
v -5.668755 10.155861 22.331036
v -5.668755 5.008728 22.331036
v -5.668755 10.155861 24.072529
v -3.499428 10.155876 24.072529
v -5.668755 10.155861 22.331036
v -3.499428 10.155876 22.331036
v -5.668755 10.155861 24.072529
v -5.668755 5.008728 24.072529
v 27.652420 -3.892647 -1.591545
v 16.937523 -3.892624 -1.591545
v 27.652420 -3.892647 36.721176
v 16.937523 -3.892624 36.721176
v 23.854050 -3.892624 36.721176
v 23.854050 -3.892624 -1.591545
v 20.707016 -3.892624 36.721176
v 20.707016 -3.892624 -1.591545
v 14.728210 -6.733810 -1.591545
v 14.728210 -6.733810 36.721176
v 16.937523 -3.892647 -1.591545
v 16.937523 -3.892647 36.721176
v 15.900543 -5.226212 36.721176
v 15.877090 -5.256302 -1.591545
v 18.717255 -4.665459 39.338364
v 18.717255 -4.665459 40.313675
v 26.117020 -4.665459 39.338364
v 26.117020 -4.665459 40.313675
v 18.717255 -4.665459 39.338364
v 17.158539 -6.670029 39.338364
v 18.717255 -4.665459 40.313675
v 17.158539 -6.670029 40.313675
v 21.384933 -6.834183 40.025146
v 19.205872 -6.834183 40.025146
v 21.384933 -6.834183 41.062134
v 19.205872 -6.834183 41.062134
v 24.833160 -6.834183 39.909561
v 23.825226 -6.834183 39.909561
v 24.833160 -6.834183 40.946533
v 23.825226 -6.834183 40.946533
v 14.728210 -11.043198 -1.591545
v 14.728210 -11.043198 36.721176
v 27.652420 -3.892624 39.502701
v 16.937523 -3.892609 39.502701
v 14.728210 -6.733795 39.502701
v 16.937523 -3.892624 39.502701
v 14.728210 -11.043175 39.502701
v -12.047234 12.142654 21.774052
v 2.619476 12.142761 21.774052
v -12.047234 12.142654 19.570606
v 2.619476 12.142761 19.570606
v 3.840004 9.797829 14.303211
v 7.228653 9.797829 14.303211
v 7.228653 0.066139 14.303211
v 3.840004 9.797829 -21.922863
v 7.228653 9.797829 -21.922863
v -16.299866 16.431488 -8.635208
v 10.849602 19.054420 -8.635208
v 10.849602 34.895096 -84.586166
v -16.299866 19.054451 -8.635208
v 10.849602 34.895096 -8.635208
v -34.582626 34.895119 -84.586166
v -34.582619 16.431488 -24.441620
v -34.582619 16.431488 -8.635208
v -34.582626 34.895119 -8.635208
v -32.281395 30.765221 -30.848862
v -32.281395 17.140953 -14.917938
v -32.281395 30.765221 -14.917938
v -39.899460 30.765221 -30.848862
v -39.899460 17.140953 -30.848862
v -39.899460 17.140953 -14.917938
v -39.899460 30.765221 -14.917938
v -24.842781 18.824135 -6.033306
v -19.726570 18.824135 -6.033306
v -19.726570 18.824135 -10.399345
v -24.842781 18.824135 -10.399345
v -19.726562 16.757553 -6.033306
v -24.842781 16.757553 -10.399345
v -24.842781 16.757553 -6.033306
v -30.518776 18.527786 -8.231819
v -26.750549 18.527786 -8.231819
v -26.750549 18.527786 -12.597855
v -30.518776 18.527786 -12.597855
v -26.750549 14.242416 -8.231819
v -30.518776 14.242416 -12.597855
v -30.518776 14.242416 -8.231819
v 46.544266 4.838398 18.674799
v 57.979706 4.840908 18.674799
v 57.979706 1.619602 18.674799
v 57.979706 1.607578 21.163912
v 57.979706 0.684910 21.163912
v 57.979706 0.679523 22.523935
v 57.979706 -3.362667 22.949203
v 45.109215 0.674854 22.523935
v 45.104988 1.604725 21.163912
v 46.544655 1.617100 18.674799
v 46.544655 1.617100 17.283161
v 45.107224 0.680225 21.163912
v 45.110222 -3.367352 22.949203
v 45.104988 1.604725 21.163912
v 45.107224 0.680225 21.163912
v 45.109238 0.674854 22.949203
v 45.110222 -3.367352 22.949203
v 57.979706 1.453434 22.949203
v 45.109039 1.448765 22.949203
v 45.109230 0.674854 21.793526
v 57.979706 0.679538 21.793526
v 57.979706 1.453434 21.793526
v 45.109039 1.448765 21.793526
v 45.109039 1.448765 22.949203
v 45.109230 0.674854 21.793526
v 45.109039 1.448765 21.793526
v 45.109230 0.674854 22.949203
v 57.979706 1.453434 21.793526
v 45.109039 1.448765 21.793526
v 45.354065 1.236957 21.802092
v 45.354065 1.236957 21.071684
v 45.722771 1.236957 21.802092
v 45.722771 1.236957 21.071684
v 49.558144 1.236957 21.802092
v 49.558144 1.236957 21.071684
v 49.926857 1.236957 21.802092
v 49.926857 1.236957 21.071684
v 57.979706 4.840908 -18.583374
v 46.544250 4.838398 -18.563034
v 47.427040 5.157207 -18.563034
v 45.107948 -3.367352 -18.560150
v 45.104988 1.604725 -18.560150
v 46.544647 1.614170 -18.561676
v 46.544273 4.838398 -18.563034
v 46.544670 1.614170 -18.561676
v 45.104988 1.604725 -18.560150
v 57.979706 1.453434 22.949203
v 45.109039 1.448765 22.949203
v 46.791832 -0.864773 22.227615
v 50.826912 -0.864773 22.227615
v 46.791832 -2.659939 22.227615
v 46.791832 -0.864773 24.553909
v 50.826912 -0.864773 24.553909
v 46.791832 -2.659939 24.553909
v 50.826912 -2.659939 24.553909
v 44.860191 -0.023968 22.221825
v 44.861679 -1.528515 22.221825
v 44.860191 -0.023968 -15.048203
v 44.861679 -1.527996 -15.036346
v 54.702286 5.158664 16.984674
v 47.427040 5.157207 16.984674
v 54.702286 5.158664 -18.574905
v 45.104988 1.604725 17.146578
v 46.102577 4.838398 16.976486
v 46.102966 1.617100 16.976486
v 46.102951 1.614170 -18.561676
v 46.102585 4.838398 -18.563034
v 35.916626 -12.634105 -14.116730
v 61.771080 -12.634105 -14.116730
v 35.916626 -23.766933 -14.116730
v 35.916626 -12.634105 6.243401
v 61.771080 -12.634105 6.243401
v 35.916626 -23.766933 6.243401
v 62.553040 -23.766933 6.243401
v 35.916626 -23.766933 -14.116730
v 35.916626 -12.634105 -14.116730
v 35.916626 -12.634105 6.243401
v 35.916626 -23.766933 6.243401
v 35.916626 -12.634105 6.243401
v 62.553040 -12.634105 6.243401
v 55.696632 -12.033931 -14.116730
v 55.696632 -12.033931 3.693604
v 39.316788 -12.033931 -14.116730
v 39.316788 -12.033931 3.693604
v 35.416397 -14.698100 -14.116730
v 35.416397 -14.698100 3.693604
v 35.416397 -21.928875 -14.116730
v 35.416397 -21.928875 3.693604
v 37.799149 -13.521968 5.344673
v 58.090134 -13.521968 5.344673
v 37.799149 -21.991238 5.344673
v 37.799149 -13.521968 9.174576
v 58.090134 -13.521968 9.174576
v 37.799149 -21.991238 9.174576
v 58.703827 -21.991222 9.174576
v 37.799149 -21.991238 5.344673
v 37.799149 -13.521968 5.344673
v 37.799149 -13.521968 9.174576
v 37.799149 -21.991238 9.174576
v 37.799149 -13.521968 9.174576
v 58.703827 -13.521968 9.174576
v 50.988983 -55.525299 15.705551
v 83.110962 -55.526764 15.705551
v 50.988983 -55.525299 -16.293259
v 83.099304 -55.526764 -16.285172
v 53.232712 -55.102936 14.542587
v 56.596565 -55.104401 14.542587
v 53.232712 -55.102936 -14.235748
v 56.586540 -55.104401 -14.227661
v 58.795837 -55.102936 14.542587
v 73.865265 -55.104401 14.542587
v 58.795837 -55.102936 -14.235748
v 73.855240 -55.104401 -14.227661
v 50.988968 -66.002106 15.705551
v 83.110947 -66.003571 15.705551
v 54.824486 -56.990540 16.231880
v 82.502045 -56.990814 16.231880
v 54.824486 -56.990540 15.021915
v 82.490646 -56.990814 15.022705
v 51.198624 -58.832062 17.382687
v 56.269241 -58.832336 17.382687
v 51.198624 -58.832062 15.800159
v 56.267143 -58.832336 15.801201
v -11.635658 26.384476 -0.836266
v 2.356976 26.384476 -0.836266
v 2.356976 26.384476 -14.343132
v -11.635658 26.384476 -14.343132
v 2.356987 20.983711 -0.836266
v -11.635658 20.983711 -14.343132
v -11.635658 20.983711 -0.836266
v 7.777477 7.333076 7.758875
v 39.899460 7.331619 7.758875
v 7.777477 7.333076 -24.239929
v 39.887802 7.331619 -24.231842
v 8.511410 7.755440 4.953449
v 13.385067 7.753983 4.953449
v 8.511410 7.755440 -23.824890
v 13.375042 7.753983 -23.816803
v 7.777477 -3.143753 7.758875
v 39.899445 -3.145210 7.758875
v 7.777493 -3.143745 7.758875
v 7.777493 -3.143745 -24.239929
v 14.559479 7.755440 4.953449
v 33.445114 7.753983 4.953449
v 14.559479 7.755440 -23.824890
v 33.435104 7.753983 -23.816803
v 8.526268 6.528366 9.058945
v 38.401566 6.527237 9.058945
v 8.526268 6.528366 7.056274
v 38.390732 6.527237 7.056782
v 8.526268 -1.534668 9.058945
v 38.401566 -1.535789 9.058945
v 8.526283 -1.534668 9.058945
v 8.526283 -1.534668 7.056274
v 10.849602 19.054420 -6.696716
v 10.849602 34.895096 -6.696716
v 27.712341 19.054443 -6.696716
v 27.712341 34.895111 -6.696716
v -10.003983 23.713600 0.485512
v -7.518692 23.713600 0.485512
v -7.518692 23.713600 -2.803669
v -10.003983 23.713600 -2.803669
v -7.518684 20.887238 0.485512
v -10.003983 20.887238 -2.803669
v -10.003983 20.887238 0.485512
v 27.603683 -4.665459 -3.384468
v 27.603683 -4.665459 37.967453
v 29.536728 -4.665459 -3.384468
v 29.536728 -4.665459 37.967453
v 7.777477 7.333076 7.758875
v 7.777477 7.333076 -24.239929
v 21.478668 5.570335 10.844709
v 26.399719 5.569611 10.844709
v 21.478668 5.570335 8.842041
v 26.397934 5.569611 8.842546
v 21.478668 0.380981 10.844709
v 26.399719 0.380257 10.844709
v 21.478668 0.380981 10.844709
v 21.478668 0.380981 8.842041
v 10.898361 4.860580 10.519585
v 13.800552 4.860153 10.519585
v 10.898361 4.860580 8.516914
v 13.799492 4.860153 8.517420
v 10.898361 1.800171 10.519585
v 13.800552 1.799744 10.519585
v 10.898361 1.800171 10.519585
v 10.898361 1.800171 8.516914
v -45.430737 44.240421 26.876633
v -59.725113 44.244381 26.876633
v -45.430737 44.257195 23.404682
v -57.716969 44.260685 23.404682
v -57.716438 46.445892 23.404682
v -45.407986 46.442398 23.404682
v -47.571686 46.443848 23.404682
v -48.019371 44.258598 23.404682
v -48.016911 44.241867 26.876633
v -59.722603 42.954880 26.876633
v -59.719856 42.947346 28.773668
v -59.721222 37.309074 29.366859
v -33.258377 42.940834 28.773668
v -33.252480 44.237865 26.876633
v -35.260605 44.255150 23.404682
v -35.260075 46.440357 23.404682
v -35.260605 44.255150 21.463547
v -35.260342 45.334621 21.463547
v -34.316704 44.251064 21.463547
v -34.316395 45.334366 21.463547
v -34.316704 44.251064 21.463547
v -33.255589 42.948326 26.876633
v -33.259781 37.302540 29.366859
v -33.252480 44.237865 26.876633
v -35.260605 44.255150 23.404682
v -35.260075 46.440357 23.404682
v -35.260605 44.255150 21.463547
v -35.260342 45.334621 21.463547
v -34.316704 44.251064 21.463547
v -34.316395 45.334366 21.463547
v -33.255589 42.948326 26.876633
v -33.258396 42.940834 29.366859
v -33.259781 37.302540 29.366859
v -59.719551 44.026859 29.366859
v -33.258133 44.020306 29.366859
v -33.258385 42.940834 27.754845
v -59.719826 42.947346 27.754845
v -59.719551 44.026859 27.754845
v -33.258133 44.020306 27.754845
v -33.258133 44.020306 29.366859
v -33.258385 42.940834 27.754845
v -33.258133 44.020306 27.754845
v -33.258385 42.940834 29.366859
v -59.719551 44.026859 27.754845
v -33.258133 44.020306 27.754845
v -33.599907 43.724884 27.766796
v -33.599907 43.724884 26.747984
v -34.114197 43.724884 27.766796
v -34.114197 43.724884 26.747984
v -39.463985 43.724884 27.766796
v -39.463985 43.724884 26.747984
v -39.978275 43.724884 27.766796
v -39.978275 43.724884 26.747984
v -46.328171 43.724884 27.766796
v -46.328171 43.724884 26.747984
v -46.842461 43.724884 27.766796
v -46.842461 43.724884 26.747984
v -52.894104 43.724884 27.766796
v -52.894104 43.724884 26.747984
v -53.408394 43.724884 27.766796
v -53.408394 43.724884 26.747984
v -58.760597 43.724884 27.766796
v -58.760597 43.724884 26.747984
v -59.274872 43.724884 27.766796
v -59.274872 43.724884 26.747984
v -34.316395 45.334366 -28.534790
v -34.316704 44.251064 -28.534790
v -57.716438 46.445892 -28.581604
v -47.575367 46.443848 -28.565056
v -45.407986 46.442398 -28.553253
v -35.260075 46.440357 -28.536682
v -33.256599 37.302540 -28.532673
v -33.252480 44.237865 -28.532661
v -35.260342 45.334621 -28.536682
v -35.260075 46.440357 -28.536682
v -34.316704 44.251064 -28.534790
v -33.252480 44.237865 -28.532661
v -35.260342 45.334621 -28.536682
v -34.316395 45.334366 -28.534790
v -59.719551 44.026859 29.366859
v -33.258133 44.020306 29.366859
v -42.272488 46.674309 16.988832
v -36.186771 46.672264 16.988832
v -42.272488 46.674309 15.664629
v -36.186771 46.672264 15.664629
v -40.338993 46.673626 16.988832
v -40.338993 46.673668 15.664629
v -39.199364 46.673286 16.988832
v -39.199364 46.673286 15.664629
v -38.703514 40.793297 29.143017
v -44.331867 40.793297 29.143017
v -38.703514 38.289280 29.143017
v -38.703514 40.793297 30.673737
v -44.331867 40.793297 30.673737
v -38.703514 38.289280 30.673737
v -44.331867 38.289280 30.673737
v -35.996468 30.508965 -29.959538
v -44.073784 30.508965 -29.959538
v -35.996468 24.410645 -29.959538
v -35.996468 30.508965 -11.896896
v -44.073784 30.508965 -11.896896
v -35.996468 24.410645 -11.896896
v -44.073784 24.410645 -11.896896
v -32.911026 41.966076 28.352261
v -32.913101 39.867451 28.352261
v -32.911026 41.966076 -23.634014
v -32.913101 39.868176 -23.617466
v -36.302437 46.672264 0.183312
v -36.302437 46.672264 -1.140888
v -39.315022 46.673286 0.183312
v -39.315022 46.673286 -1.140888
v -42.330170 46.672264 -0.412352
v -42.330170 46.672264 -1.140888
v -43.334126 46.673286 -0.412352
v -43.334126 46.673286 -1.140888
v -37.122471 46.672180 13.434672
v -37.122471 46.672180 12.110469
v -41.087685 46.673161 13.434672
v -41.087685 46.673203 12.110469
v -35.120750 46.672180 6.021489
v -35.120750 46.672180 4.697289
v -37.272224 46.673161 6.021489
v -37.272224 46.673203 4.697289
v -39.060680 46.672180 6.021489
v -39.060680 46.672180 4.697289
v -41.212151 46.673161 6.021489
v -41.212151 46.673203 4.697289
v -42.079838 46.672180 6.021489
v -42.079838 46.672180 4.697289
v -43.171391 46.673161 6.021489
v -43.171391 46.673203 4.697289
v -36.143127 46.672180 4.180704
v -36.143127 46.672180 2.856503
v -40.108341 46.673161 4.180704
v -40.108341 46.673203 2.856503
v -38.217392 46.674179 20.653284
v -38.217392 46.674179 19.329086
v -36.283890 46.673542 20.653284
v -36.283890 46.673584 19.329086
v -34.367783 45.396259 9.782413
v -34.367783 45.396259 8.458212
v -35.459335 45.397282 9.782413
v -35.459335 45.397324 8.458212
v -32.845608 39.896740 3.577817
v -32.845608 39.896740 2.253616
v -32.844631 42.048191 3.577817
v -32.844631 42.048191 2.253616
v -32.845608 39.896740 22.132507
v -32.845608 39.896740 20.808311
v -32.844631 42.048191 22.132507
v -32.844631 42.048191 20.808311
v -32.846100 40.837524 14.631044
v -32.846100 40.837524 13.306842
v -32.845119 41.929043 14.631044
v -32.845119 41.929043 13.306842
v -12.025772 12.295052 7.588600
v -5.033997 12.295059 7.588600
v -12.025772 12.295052 8.736393
v -5.033997 12.295059 8.736393
v -11.198051 12.295052 2.941238
v -7.270500 12.295059 2.941238
v -11.198051 12.295052 4.089033
v -7.270500 12.295059 4.089033
v -10.588501 12.295052 -7.673424
v -5.033997 12.295059 -7.673424
v -10.588501 12.295052 -6.525631
v -5.033997 12.295059 -6.525631
v -2.705086 12.295052 -7.673424
v 1.473289 12.295059 -7.673424
v -2.705086 12.295052 -6.525631
v 1.473289 12.295059 -6.525631
v -11.348030 12.295052 -12.304302
v -5.768364 12.295059 -12.304302
v -11.348030 12.295052 -11.156506
v -5.768364 12.295059 -11.156506
v -14.963791 6.186279 -6.226810
v -14.963791 10.113853 -6.226810
v -14.963791 6.186279 -5.079020
v -14.963791 10.113853 -5.079020
v -14.884293 4.432792 -12.304302
v -14.884285 10.012474 -12.304302
v -14.884293 4.432792 -11.156506
v -14.884285 10.012474 -11.156506
v -14.963791 3.608299 12.012020
v -14.963791 7.535873 12.012020
v -14.963791 3.608299 13.159813
v -14.963791 7.535873 13.159813
v 8.511410 8.006615 2.155710
v 13.385067 8.005165 2.155710
v 8.511410 8.006615 1.510206
v 13.375042 8.005165 1.511461
v 14.559479 8.006615 -4.086891
v 25.684204 8.005135 -4.086891
v 14.559479 8.006615 -5.046642
v 25.674179 8.005135 -5.045048
v 17.564728 -3.712898 28.077057
v 17.564728 -3.712898 28.772125
v 20.295303 -3.712898 28.772125
v 20.295303 -3.712898 28.077057
v 17.564728 -3.712898 23.431259
v 17.564728 -3.712898 24.126320
v 20.295303 -3.712898 24.126320
v 20.295303 -3.712898 23.431259
v 24.034805 -3.712898 23.431259
v 24.034805 -3.712898 24.126320
v 26.765381 -3.712898 24.126320
v 26.765381 -3.712898 23.431259
v 17.564728 -3.712898 19.651234
v 17.564728 -3.712898 20.346298
v 20.295303 -3.712898 20.346298
v 20.295303 -3.712898 19.651234
v 18.497238 -3.712898 17.978680
v 18.497238 -3.712898 18.673748
v 20.295303 -3.712898 18.673748
v 20.295303 -3.712898 17.978680
v 17.564728 -3.712898 12.121880
v 17.564728 -3.712898 12.816944
v 20.295303 -3.712898 12.816944
v 20.295303 -3.712898 12.121880
v 17.564728 -3.712898 13.057365
v 17.564728 -3.712898 13.752434
v 19.422272 -3.712898 13.752434
v 19.422272 -3.712898 13.057365
v 24.780045 -3.712891 15.953964
v 24.780045 -3.712891 16.649029
v 26.765381 -3.712898 16.649029
v 26.765381 -3.712898 15.953964
v 27.712341 34.895111 -84.586166
v -30.279667 61.677906 -19.274258
v -30.279667 49.213066 -4.401365
v -53.470631 49.225883 -4.390697
v -53.470631 61.676571 -19.275574
v 19.048145 53.003983 -85.428223
v 19.048145 45.497372 -76.471413
v -51.896549 45.505081 -76.464989
v -51.896549 53.003185 -85.429039
v -20.014755 6.022982 -9.591177
v -20.014755 4.883730 -5.952118
v -24.571800 4.886858 -5.951151
v -24.571800 6.022646 -9.591316
v 14.995434 48.196663 -75.940353
v 14.995434 44.889885 -70.750557
v 8.843180 44.893265 -70.746841
v 8.843180 48.196323 -75.940826
v -18.935272 6.400435 -10.293370
v -18.935272 5.306420 -8.988000
v -35.469322 5.307541 -8.987063
v -35.469322 6.400321 -10.293487
v -12.350466 8.830227 -10.415322
v -38.811275 8.831885 -10.415322
v -12.352142 8.239542 -10.073504
v -38.812908 8.241201 -10.073504
v -12.350466 7.675621 -10.415322
v -38.811275 7.677279 -10.415322
v -12.352142 7.084937 -10.073504
v -38.812908 7.086597 -10.073504
v -59.360886 48.282864 -84.674934
v 20.259125 48.286972 -84.674934
v -59.355850 46.817905 -84.176987
v 20.264057 46.822021 -84.176987
v -59.360886 46.611294 -84.674934
v 20.259125 46.615402 -84.674934
v -59.355850 45.146336 -84.176987
v 20.264057 45.150452 -84.176987
v -59.360886 43.113556 -84.364449
v 20.259125 43.117661 -84.364449
v -59.355850 41.648598 -83.866501
v 20.264057 41.652714 -83.866501
v 49.847549 12.697055 -26.937386
v 49.847549 9.829899 -13.089233
v 34.223129 9.840840 -13.086594
v 34.223129 12.695867 -26.937813
v 50.734161 14.772194 -28.093550
v 50.734161 10.074074 -19.072493
v 40.542023 10.083229 -19.071211
v 40.542023 14.771217 -28.093763
v -10.770317 10.527709 22.604174
v -10.770256 10.608476 23.520611
v -11.869715 10.609264 23.520535
v -11.869741 10.527638 22.604174
v -33.024006 43.618355 29.129465
v -32.990341 43.699600 30.127810
v -34.096558 44.158726 30.127731
v -34.130558 44.076595 29.129465
v -41.007366 43.618355 29.129465
v -40.973701 43.699600 30.127810
v -42.079918 44.158726 30.127731
v -42.113918 44.076595 29.129465
v -49.329975 43.618355 29.129465
v -49.296310 43.699600 30.127810
v -50.402527 44.158726 30.127731
v -50.436527 44.076595 29.129465
v 2.707948 10.487656 22.773006
v 2.707963 10.564575 23.646168
v 1.660417 10.565308 23.646099
v 1.660447 10.487564 22.773006
v -4.084808 10.487656 22.773006
v -4.084793 10.564575 23.646168
v -5.132339 10.565308 23.646099
v -5.132309 10.487564 22.773006
v 9.776994 6.115775 9.002483
v 9.777009 6.192695 9.875645
v 8.729463 6.193427 9.875576
v 8.729493 6.115684 9.002483
v 15.207108 6.115775 9.002483
v 15.207124 6.192694 9.875645
v 14.159577 6.193427 9.875576
v 14.159608 6.115683 9.002483
v 6.275214 77.548241 -40.957745
v 6.275214 71.783554 -28.044174
v -9.349206 71.793686 -28.039253
v -9.349206 77.547165 -40.958416
v 87.226547 100.704468 -84.586166
v -71.220741 100.704491 -84.586166
v 94.541245 -21.713953 -84.586166
v -71.220757 -21.713928 -84.586166
v 0.517066 76.524429 -44.796295
v 0.517066 72.808853 -37.825130
v -8.210610 72.814301 -37.821999
v -8.210610 76.523865 -44.796715
v 94.541245 -21.713953 -14.274059
v -71.220757 -21.713928 -14.274059
v 63.285973 -21.713949 -14.274059
v 94.541245 -21.713953 -0.664455
v 63.285973 -21.713949 -0.664455
v 86.875206 -21.713953 -2.304637
v 80.255013 -21.713949 -2.304637
v 86.875206 -21.713953 2.967303
v 80.255013 -21.713949 2.967303
v -29.018637 51.535946 -16.202911
v -29.018637 50.377823 -10.609261
v -35.329769 50.382244 -10.608194
v -35.329769 51.535465 -16.203083
v -34.463188 74.740654 -41.147419
v -34.463188 72.816460 -36.837006
v -46.214794 72.819756 -36.835358
v -46.214794 74.740196 -41.147636
v -33.288109 74.700111 -40.245304
v -33.288109 72.277992 -36.443935
v -37.794453 72.280464 -36.441212
v -37.794453 74.699860 -40.245651
v -12.023728 70.690872 -40.376991
v -12.023728 69.454460 -37.607292
v -50.288029 69.456413 -37.606232
v -50.288029 70.690407 -40.377129
v 61.982735 8.076782 -20.008173
v 51.742241 8.076786 -20.008173
v 61.982735 8.076782 -13.679831
v 51.742241 8.076786 -13.679831
v -23.077793 70.690735 -40.377029
v -22.990746 69.455017 -37.606987
v -30.335764 70.690651 -40.377056
v -30.501812 69.455399 -37.606777
v 22.303959 21.900320 -5.529692
v 26.014740 21.900320 -5.529692
v 26.014740 21.900320 -9.030634
v 22.303959 21.900320 -9.030634
v 26.014751 19.073957 -5.529692
v 22.303959 19.073957 -9.030634
v 22.303959 19.073957 -5.529692
v -4.183243 12.295051 16.829945
v -4.183243 12.295051 17.499130
v 0.406044 12.295054 17.499130
v 0.406044 12.295054 16.829945
v -1.043422 12.295053 16.829945
v -1.069387 12.295053 17.499130
v -1.043422 12.295053 16.829945
v -1.069387 12.295053 17.499130
vt 0.085076 -21.122093
vt 1.056717 -21.122093
vt 0.467428 -0.114002
vt 1.056717 19.980103
vt 0.085076 19.980103
vt 0.475780 -3.265355
vt 2.026191 -21.122093
vt 4.090699 -21.122093
vt 4.090699 19.926254
vt 2.026191 19.926254
vt 0.467428 -0.114002
vt 0.475780 -3.265355
vt -0.156284 -17.884575
vt 3.236259 -17.884575
vt -0.156284 22.885485
vt 3.236259 22.885485
vt 0.457098 0.936558
vt 1.082475 22.885485
vt 1.082475 -17.884575
vt 1.998670 22.885485
vt 1.998670 -17.884575
vt -1.661614 -17.888926
vt -0.224907 -17.884579
vt -0.224881 22.885309
vt -1.661614 22.877256
vt -1.033807 22.877256
vt -1.023445 -17.890734
vt -0.824793 -17.882608
vt -0.836717 22.885437
vt 1.649621 32.951412
vt -0.049606 -25.482477
vt 1.649621 -25.482477
vt -0.049606 32.951412
vt 0.457098 0.936558
vt -0.812312 3.817589
vt -0.812306 3.761734
vt 1.097898 3.817589
vt 1.097897 3.761734
vt 1.696799 1.817108
vt 1.303197 1.818121
vt 1.303197 1.782417
vt 1.696799 1.781403
vt 0.054269 -17.884579
vt 0.054295 22.885307
vt 1.000000 1.824953
vt 1.293896 1.824953
vt 1.000000 1.869785
vt 1.829057 1.824953
vt 0.999999 1.869785
vt 1.537395 1.824953
vt 1.829057 1.869785
vt 2.000000 1.824953
vt 1.999999 1.869785
vt 1.909292 1.824953
vt 2.000000 1.869785
vt 2.000000 1.824953
vt 2.000000 1.869785
vt 1.829057 1.824953
vt 1.829057 1.869785
vt 30.651999 -10.145048
vt 30.415161 -17.283064
vt 30.651999 -17.283064
vt 30.415161 -10.145048
vt 0.475780 -3.265355
vt 0.467428 -0.114002
vt -170.186844 1.000000
vt -99.632301 -0.503549
vt -216.088242 1.000000
vt -2.837619 1.000000
vt -1.837618 1.000000
vt -1.837618 0.000000
vt -2.837618 0.000000
vt 1.508266 0.000000
vt 0.508266 0.000000
vt 0.508266 1.000000
vt 1.508266 1.000000
vt 1.773679 0.241006
vt -1.082988 0.290857
vt -4.330994 0.961699
vt -2.109297 0.290856
vt -2.109298 -0.422766
vt -3.109298 -0.422766
vt -95.286812 1.000000
vt -11.817280 1.000000
vt -22.998507 -0.503549
vt 21.169136 -0.503549
vt -16.792774 -1.742539
vt -17.792776 -1.742539
vt 2.742543 0.000004
vt 1.742541 -0.000000
vt 1.742541 0.999999
vt 2.742540 0.999999
vt -17.792776 -0.742542
vt -16.792774 -0.742541
vt -1.315441 2.797415
vt 4.009411 2.797415
vt 4.661549 2.797415
vt 0.645288 0.988429
vt 1.064059 1.555124
vt 1.064059 1.485988
vt 2.285394 1.555124
vt 6.475583 -27.195606
vt 4.680446 -14.209446
vt 4.028311 -14.210606
vt 4.028301 12.993846
vt 6.867514 -27.247120
vt 5.856381 -27.247288
vt 6.347950 -27.193676
vt 5.856378 -27.193676
vt -0.331532 12.725977
vt 3.031361 12.725977
vt -1.306687 2.797415
vt 0.363332 0.437545
vt 0.363332 0.985296
vt 0.229390 0.437545
vt 2.425574 1.000000
vt -1.940275 1.000000
vt -1.940275 0.437545
vt 2.425574 0.437545
vt 0.237836 1.001706
vt 1.000000 0.470416
vt 1.100566 -0.012111
vt 4.582003 3.995880
vt 4.502199 3.995880
vt 4.502199 2.961264
vt 4.582003 2.961264
vt -0.332587 -14.029228
vt 0.999999 1.000000
vt -0.000001 0.437545
vt 0.999999 0.437545
vt -0.000001 1.000000
vt 3.031361 -14.009798
vt 2.287315 1.485973
vt 1.100566 -0.012111
vt 0.415893 0.901445
vt 0.408095 0.677767
vt 0.421483 0.677633
vt 0.401311 0.911649
vt 0.415861 0.911504
vt 0.421483 0.901387
vt 0.000000 0.555834
vt 1.000000 0.555834
vt 0.000000 0.555834
vt 1.000000 0.555834
vt -1.184266 0.976210
vt -0.184266 0.976210
vt -1.184266 0.992870
vt -0.184266 0.992870
vt -1.184266 0.000000
vt -0.184266 0.000000
vt -1.184266 1.000000
vt -0.184266 1.000000
vt 0.992031 -14.031429
vt 1.691103 -14.038179
vt 1.691103 13.992968
vt 1.002434 13.997135
vt 0.645288 0.988429
vt 4.680445 12.890182
vt 4.009408 2.797415
vt 4.661549 2.797415
vt 5.856381 -14.247288
vt 6.475583 12.760978
vt 5.856378 12.722044
vt 6.867514 -14.159092
vt -1.968496 -3.140493
vt -1.968496 -3.229279
vt -1.886311 -3.140493
vt -1.886311 -3.229280
vt 0.000000 0.000000
vt 1.000000 0.000000
vt 0.000000 1.000000
vt 1.000000 1.000000
vt 0.049020 1.745042
vt 0.049020 1.884163
vt 0.098894 1.884163
vt 0.098894 1.745042
vt -0.170682 -5.117410
vt 2.001794 -5.117410
vt 2.001794 -0.171491
vt -0.170682 -0.171491
vt -0.170682 -3.200875
vt 2.001794 -3.200875
vt 0.000000 0.000000
vt 1.000000 1.000000
vt 1.000000 0.000000
vt 0.000000 1.000000
vt -1.909937 -3.214004
vt -1.969025 -3.125217
vt -1.909937 -3.125217
vt -1.969025 -3.214004
vt 0.014986 1.745042
vt 0.064261 1.884163
vt 0.014986 1.884163
vt 0.064261 1.745042
vt 2.001794 1.745042
vt -0.170682 1.745042
vt -0.416031 0.890181
vt 2.963299 0.890181
vt 2.963299 0.890181
vt -0.399594 0.890181
vt 3.503648 -1.031837
vt 4.457833 -1.035753
vt 4.457833 12.912261
vt 3.500796 12.912261
vt -1.409403 -1.031837
vt 2.875091 -1.035753
vt 2.875091 12.912261
vt -1.412254 12.912261
vt 2.963299 0.890181
vt -0.399594 0.890181
vt -0.416031 0.890181
vt 2.963299 0.890181
vt 2.963299 0.890181
vt -0.399594 0.890181
vt -0.416031 0.890181
vt 2.963299 0.890181
vt 2.963299 0.890181
vt -0.399594 0.890181
vt -0.391967 0.984717
vt -0.293888 0.984717
vt 2.963299 0.890181
vt -0.399594 0.890181
vt -1.103103 1.369370
vt -1.085635 1.365661
vt -1.085635 14.499942
vt -1.103155 14.499942
vt -0.399594 0.890181
vt 2.963299 0.890181
vt -1.193044 1.369370
vt -1.114609 1.365661
vt -1.114609 14.499942
vt -1.193096 14.499942
vt 0.665985 0.860357
vt 0.665985 0.865973
vt 0.608598 0.865301
vt 0.608598 0.859684
vt -0.391490 0.984717
vt -0.391967 0.984717
vt -0.293888 0.984717
vt -0.391490 0.984717
vt 0.665985 0.860357
vt 0.665985 0.865973
vt 0.608598 0.865301
vt 0.608598 0.859684
vt 2.963299 0.890181
vt -0.399594 0.890181
vt -0.399594 0.890181
vt 2.963299 0.890181
vt -1.082988 0.290857
vt -2.109298 -0.422766
vt -1.082988 0.290857
vt -2.109298 -0.422766
vt -0.812312 3.817589
vt -0.812306 3.761734
vt 1.097898 3.817589
vt 1.097897 3.761734
vt -0.391967 0.984717
vt -0.293888 0.984717
vt -0.391490 0.984717
vt 0.665985 0.860357
vt 0.665985 0.865973
vt 0.608598 0.865301
vt 0.608598 0.859684
vt 2.963299 0.890181
vt -0.399594 0.890181
vt -0.399594 0.890181
vt 2.963299 0.890181
vt -0.391967 0.984717
vt -0.293888 0.984717
vt -0.391490 0.984717
vt 0.665985 0.860357
vt 0.665985 0.865973
vt 0.608598 0.865301
vt 0.608598 0.859684
vt 2.963299 0.890181
vt -0.399594 0.890181
vt -0.399594 0.890181
vt 2.963299 0.890181
vt 1.000000 0.714962
vt 1.000000 0.709552
vt 1.000000 0.709572
vt 0.633090 13.050028
vt 4.028307 13.050026
vt 4.680445 14.939138
vt 0.645288 0.988429
vt 1.064059 1.555124
vt 1.064059 1.485988
vt 2.285394 1.555124
vt 6.104986 -15.225857
vt 6.104981 11.993700
vt 6.358612 -15.224827
vt 4.680446 -15.209446
vt 4.334819 -15.210606
vt 4.334816 11.993846
vt 6.104986 -15.225857
vt 5.856381 -15.247288
vt 0.137406 0.653882
vt 0.137406 0.545136
vt 0.325758 0.653882
vt 6.347950 12.034182
vt 6.347950 13.010817
vt 4.028307 11.993845
vt 6.358611 11.993700
vt 1.000000 0.714962
vt 6.602445 11.993700
vt 5.856378 13.010817
vt -0.331532 12.997135
vt -0.347969 -15.035595
vt 3.031361 12.997135
vt 0.633149 14.939137
vt 0.325722 0.545136
vt 0.363332 0.437545
vt 0.363332 0.985296
vt 0.229390 0.437545
vt 2.425574 1.000000
vt -1.940275 1.000000
vt -1.940275 0.437545
vt 2.425574 0.437545
vt 0.237836 1.001706
vt 1.000000 0.470416
vt 1.100566 -0.012111
vt 4.582003 3.995880
vt 4.502199 3.995880
vt 4.502199 2.961264
vt 4.582003 2.961264
vt 6.358611 -15.224825
vt 6.602446 -15.224825
vt -0.332587 -15.029228
vt 0.999999 1.000000
vt -0.000001 0.437545
vt 0.999999 0.437545
vt -0.000001 1.000000
vt 3.031361 -15.009798
vt 2.287315 1.485973
vt 3.031361 -15.034012
vt 1.100566 -0.012111
vt 0.415893 0.901445
vt 0.408095 0.677767
vt 0.421483 0.677633
vt 0.401311 0.911649
vt 0.415861 0.911504
vt 0.421483 0.901387
vt -0.332591 -8.194160
vt 1.684774 -7.473852
vt 1.684774 -8.187863
vt -0.331855 -7.472822
vt 0.308847 -7.473196
vt 0.308350 -8.192160
vt 0.686493 -7.473342
vt 0.686124 -8.191029
vt 0.000000 0.555834
vt 1.000000 0.555834
vt 0.000000 0.555834
vt 1.000000 0.555834
vt 0.000000 0.980228
vt 1.000000 0.980228
vt 0.000000 0.988087
vt 1.000000 0.988087
vt 0.000000 0.000000
vt 1.000000 0.000000
vt 0.000000 1.000000
vt 1.000000 1.000000
vt 0.992031 -15.031429
vt 1.691103 -15.038179
vt 1.691103 12.992968
vt 1.002434 12.997135
vt 0.686493 -7.473342
vt 1.684774 -7.473852
vt 0.686124 -8.191029
vt 1.684774 -8.187863
vt 1.015268 -7.796347
vt 1.347949 -7.796516
vt 1.015065 -8.191196
vt 1.347990 -8.188931
vt -4.285763 -11.350374
vt -2.971808 -11.351045
vt -4.286131 -12.153288
vt -2.980663 -12.153288
vt -3.684742 -11.350681
vt -2.971808 -11.351045
vt -3.685111 -12.132895
vt -2.980663 -12.132895
vt -3.684742 -11.350681
vt -2.971808 -11.351045
vt -3.685111 -12.132895
vt -2.980663 -12.132895
vt -3.333518 -11.350861
vt -2.971808 -11.351045
vt -3.333886 -12.132895
vt -2.980663 -12.132895
vt -4.285763 -11.350374
vt -2.971808 -11.351045
vt -4.286131 -12.153288
vt -2.980663 -12.153288
vt -0.332591 -8.194160
vt 0.308847 -7.473196
vt 0.308350 -8.192160
vt -0.331855 -7.472822
vt -3.333518 -11.350861
vt -3.333886 -12.132895
vt -2.971808 -11.351045
vt -2.980663 -12.132895
vt -3.684742 -11.350681
vt -3.685111 -12.132895
vt -2.971808 -11.351045
vt -2.980663 -12.132895
vt -3.684742 -11.350681
vt -3.685111 -12.132895
vt -2.971808 -11.351045
vt -2.980663 -12.132895
vt -3.333518 -11.350861
vt -3.333886 -12.132895
vt -2.971808 -11.351045
vt -2.980663 -12.132895
vt 2.026191 -8.316629
vt 3.009236 -7.065780
vt 3.009236 -8.316629
vt 2.026191 -7.065780
vt 2.793375 -8.316629
vt 3.345590 -7.065780
vt 3.345590 -8.316629
vt 2.793375 -7.065780
vt 1.563667 -8.316629
vt 2.344635 -7.065780
vt 2.344635 -8.316629
vt 1.563667 -7.065780
vt 1.338755 -8.316629
vt 1.926238 -7.065780
vt 1.926238 -8.316629
vt 1.338755 -7.065780
vt 13.348327 -8.316629
vt 12.563827 -7.065780
vt 12.563827 -8.316629
vt 13.348327 -7.065780
vt 2.793375 -8.316629
vt 3.345590 -7.065780
vt 3.345590 -8.316629
vt 2.793375 -7.065780
vt 13.348327 -8.316629
vt 12.563827 -7.065780
vt 12.563827 -8.316629
vt 13.348327 -7.065780
vt 2.793375 -8.316629
vt 3.345590 -7.065780
vt 3.345590 -8.316629
vt 2.793375 -7.065780
vt -1.656251 12.929051
vt -1.085635 12.928462
vt -1.085635 13.442612
vt -1.658005 13.442613
vt -1.887766 10.589234
vt -1.887059 9.936688
vt -1.114638 10.589234
vt -1.114609 9.935962
vt 2.367016 14.640186
vt 2.367016 13.482077
vt 2.997427 14.640186
vt 2.997427 13.482077
vt 2.139612 13.482077
vt 2.770023 13.482077
vt 2.770023 14.640186
vt 2.139612 14.640186
vt 2.580240 13.482077
vt 3.210652 13.482077
vt 3.210652 14.640186
vt 2.580240 14.640186
vt 1.773090 13.482077
vt 2.341969 13.482077
vt 2.341969 14.640186
vt 1.773090 14.640186
vt 2.361949 13.482077
vt 2.777071 13.482077
vt 2.777071 14.640186
vt 2.361949 14.640186
vt 2.139612 13.482077
vt 2.770023 13.482077
vt 2.770023 14.640186
vt 2.139612 14.640186
vt 2.341171 13.482077
vt 2.770023 13.482077
vt 2.770023 14.640186
vt 2.341171 14.640186
vt 3.101560 13.482077
vt 3.559917 13.482077
vt 3.559917 14.640186
vt 3.101560 14.640186
vt -2.109298 -0.422766
vt -2.109298 -0.422766
vt 0.549864 1.915853
vt 0.549861 1.057999
vt 0.941261 1.915853
vt 0.941249 1.057999
vt 0.549864 2.903599
vt 0.549861 -1.454098
vt 0.941261 2.903599
vt 0.941217 -1.454098
vt 0.549864 1.915853
vt 0.549861 1.057999
vt 0.941261 1.915853
vt 0.941249 1.057999
vt 0.549864 1.915853
vt 0.549861 1.057999
vt 0.941261 1.915853
vt 0.941249 1.057999
vt 0.549864 2.903599
vt 0.549862 -4.064841
vt 0.941261 2.903599
vt 0.941191 -4.064842
vt 0.515283 1.197618
vt 2.404301 1.113660
vt 2.404420 1.197383
vt 0.515165 1.113895
vt 0.515283 1.105031
vt 2.404301 1.022231
vt 2.404420 1.104799
vt 0.515165 1.022463
vt 0.313863 1.197621
vt 2.605865 1.197380
vt 2.605721 1.113657
vt 0.313721 1.113898
vt 0.313863 1.105033
vt 2.605865 1.104796
vt 2.605721 1.022228
vt 0.313721 1.022466
vt 2.602023 1.295558
vt 0.310021 1.295321
vt 0.310166 1.212753
vt 2.602166 1.212991
vt 0.549864 1.915853
vt 0.549861 1.057999
vt 0.941261 1.915853
vt 0.941249 1.057999
vt 0.549864 1.915853
vt 0.549861 1.057999
vt 0.941261 1.915853
vt 0.941249 1.057999
vt 0.549864 1.915853
vt 0.549861 1.057999
vt 0.941261 1.915853
vt 0.941249 1.057999
vt 0.549864 1.915853
vt 0.549861 1.057999
vt 0.941261 1.915853
vt 0.941249 1.057999
vt 0.549864 1.915853
vt 0.549861 1.057999
vt 0.941261 1.915853
vt 0.941249 1.057999
vt 0.549864 1.915853
vt 0.549861 1.057999
vt 0.941261 1.915853
vt 0.941249 1.057999
vt -1.837618 0.000000
vt -2.837618 0.000000
vt 0.549864 1.915853
vt 0.549861 1.057999
vt 0.941261 1.915853
vt 0.941249 1.057999
vt -1.837618 0.000000
vt -2.837618 0.000000
vt -1.988713 0.000000
vt -1.837618 0.000000
vt -1.988713 0.000000
vt -1.837618 0.000000
vt -1.988713 0.000000
vt -1.988713 0.000000
vt -1.837618 0.000000
vt 0.549864 1.915853
vt 0.549861 1.057999
vt 0.941261 1.915853
vt 0.941249 1.057999
vt 0.549837 -0.017156
vt 0.941225 -0.017156
vt 0.941261 1.915853
vt 0.549864 1.915853
vt 0.549864 1.915853
vt 0.549861 1.057999
vt 0.941261 1.915853
vt 0.941249 1.057999
vt 0.549672 -6.861097
vt 0.941060 -6.861097
vt 0.941287 2.934186
vt 0.549878 2.934186
vt -2.405748 0.000000
vt -2.639470 0.000000
vt -2.639470 0.000000
vt -2.405748 0.000000
vt 0.549818 0.104454
vt 0.941222 0.126737
vt 0.549779 -1.753515
vt 0.941177 -1.796022
vt -170.186844 1.000000
vt -95.286812 1.000000
vt -216.088242 1.000000
vt -11.817280 1.000000
vt 21.169136 -0.503549
vt -99.632301 -0.503549
vt -22.998507 -0.503549
vt 2.125825 -8.168139
vt 2.125825 -7.438868
vt 2.771080 -7.438868
vt 2.771080 -8.168139
vt 2.567284 -8.168139
vt 2.563634 -7.438868
vn 0.000000 1.000000 0.000000
vn 0.000000 1.000000 0.000000
vn 0.000000 1.000000 0.000000
vn 0.000000 1.000000 0.000000
vn 0.000000 0.000000 1.000000
vn 0.000000 0.000000 1.000000
vn 0.000000 1.000000 0.000000
vn 0.000000 1.000000 0.000000
vn -1.000000 0.000000 0.000000
vn -1.000000 0.000000 0.000000
vn -1.000000 0.000000 0.000000
vn -1.000000 0.000000 0.000000
vn -1.000000 0.000000 0.000000
vn -1.000000 0.000000 0.000000
vn 0.000000 0.000000 1.000000
vn 0.000000 0.000000 1.000000
vn -1.000000 0.000000 0.000000
vn -1.000000 0.000000 0.000000
vn 0.000000 0.000000 1.000000
vn 0.000000 0.000000 1.000000
vn -1.000000 0.000000 0.000000
vn -1.000000 0.000000 0.000000
vn -0.000001 1.000000 0.000000
vn -0.000001 1.000000 0.000000
vn -0.000001 1.000000 0.000000
vn -0.000001 1.000000 0.000000
vn 0.000000 0.000000 1.000000
vn 0.000000 0.000000 1.000000
vn 0.000000 1.000000 0.000000
vn 0.000000 1.000000 0.000000
vn -1.000000 0.000000 0.000000
vn -1.000000 0.000000 0.000000
vn 0.000000 0.000000 1.000000
vn 0.000000 0.000000 1.000000
vn -1.000000 0.000000 0.000000
vn -1.000000 0.000000 0.000000
vn -1.000000 0.000000 0.000000
vn -1.000000 0.000000 0.000000
vn 0.000000 0.000000 1.000000
vn 0.000000 0.000000 1.000000
vn -1.000000 0.000000 0.000000
vn -1.000000 0.000000 0.000000
vn 0.000000 0.000000 1.000000
vn 0.000000 0.000000 1.000000
vn -1.000000 0.000000 0.000000
vn -1.000000 0.000000 0.000000
vn -0.000007 1.000000 0.000000
vn -0.000007 1.000000 0.000000
vn -0.000007 1.000000 0.000000
vn -0.000007 1.000000 0.000000
vn 0.000000 0.000000 1.000000
vn 0.000000 0.000000 1.000000
vn -1.000000 0.000000 0.000000
vn -1.000000 0.000000 0.000000
vn 0.000000 0.000000 1.000000
vn 0.000000 0.000000 1.000000
vn -1.000000 0.000000 0.000000
vn -1.000000 0.000000 0.000000
vn -0.000007 1.000000 0.000000
vn -0.000007 1.000000 0.000000
vn -0.000007 1.000000 0.000000
vn -0.000007 1.000000 0.000000
vn 0.000000 0.000000 1.000000
vn 0.000000 0.000000 1.000000
vn -1.000000 0.000000 0.000000
vn -1.000000 0.000000 0.000000
vn 0.000000 0.000000 1.000000
vn 0.000000 0.000000 1.000000
vn -1.000000 0.000000 0.000000
vn -1.000000 0.000000 0.000000
vn -0.000007 1.000000 0.000000
vn -0.000007 1.000000 0.000000
vn -0.000007 1.000000 0.000000
vn -0.000007 1.000000 0.000000
vn 0.000000 0.000000 1.000000
vn 0.000000 0.000000 1.000000
vn 0.000006 1.000000 0.000000
vn 0.000000 1.000000 0.000000
vn 0.000006 1.000000 -0.000004
vn 0.000000 1.000000 -0.000003
vn 0.000002 1.000000 -0.000001
vn 0.000003 1.000000 0.000000
vn 0.000000 1.000000 -0.000002
vn 0.000000 1.000000 0.000000
vn -0.945893 0.324478 0.000000
vn -0.945890 0.324488 -0.000001
vn -0.789405 0.613872 0.000001
vn -0.789420 0.613853 -0.000003
vn -0.789417 0.613857 -0.000002
vn -0.789416 0.613858 0.000001
vn 0.000000 1.000000 0.000000
vn 0.000000 1.000000 0.000000
vn 0.000000 1.000000 0.000000
vn 0.000000 1.000000 0.000000
vn -0.789427 0.613844 0.000000
vn -0.789427 0.613844 0.000000
vn -0.789427 0.613844 0.000000
vn -0.789427 0.613844 0.000000
vn 0.000000 1.000000 0.000000
vn 0.000000 1.000000 0.000000
vn 0.000000 1.000000 0.000000
vn 0.000000 1.000000 0.000000
vn 0.000000 1.000000 0.000000
vn 0.000000 1.000000 0.000000
vn 0.000000 1.000000 0.000000
vn 0.000000 1.000000 0.000000
vn -1.000000 0.000000 0.000000
vn -1.000000 0.000000 0.000000
vn 0.000004 1.000000 -0.000006
vn 0.000001 1.000000 -0.000005
vn -0.945890 0.324488 -0.000003
vn -0.789419 0.613855 -0.000007
vn -1.000000 0.000000 0.000000
vn -0.000007 1.000000 0.000000
vn -0.000007 1.000000 0.000000
vn -0.000007 1.000000 0.000000
vn -0.000007 1.000000 0.000000
vn 0.000000 0.785948 0.618292
vn 0.000000 0.707107 0.707107
vn 0.000000 0.000000 1.000000
vn 0.000000 1.000000 0.000000
vn 0.000000 1.000000 0.000000
vn 0.000000 0.000000 1.000000
vn -0.707107 0.000000 0.707106
vn -0.000000 1.000000 0.000000
vn 0.000000 0.000000 1.000000
vn -0.577350 0.577350 0.577350
vn -0.186300 0.982493 0.000000
vn -1.000000 -0.000000 0.000000
vn -0.707107 -0.000000 0.707107
vn -0.577350 0.577350 0.577350
vn 0.000000 1.000000 0.000000
vn 0.000000 0.000000 1.000000
vn 0.000000 0.707107 0.707107
vn -0.707107 0.707107 0.000000
vn -1.000000 0.000000 0.000000
vn -0.707107 0.000000 0.707107
vn -0.577350 0.577350 0.577350
vn -0.577350 0.577350 0.577350
vn 0.000000 0.707106 0.707108
vn 0.000000 1.000000 0.000000
vn -0.707107 0.707107 0.000000
vn 0.000000 0.000000 1.000000
vn -1.000000 0.000000 0.000000
vn -0.707107 0.000000 0.707107
vn -0.577350 0.577350 0.577350
vn 0.000000 0.707107 0.707107
vn 0.000000 1.000000 0.000000
vn -0.707107 0.707107 0.000000
vn 0.000000 0.000000 1.000000
vn -1.000000 0.000000 0.000000
vn -0.707107 0.000000 0.707107
vn -0.577446 0.577250 0.577355
vn -0.000155 0.707156 0.707057
vn -0.000156 0.705347 0.708862
vn -0.000156 0.705446 0.708763
vn -0.000257 0.705623 0.708587
vn -0.000364 0.999992 0.003960
vn 0.000000 0.000000 1.000000
vn -0.000363 0.999992 0.003950
vn -0.002130 0.706457 0.707753
vn -0.305349 0.902789 0.302877
vn -0.710182 0.704019 -0.000001
vn -0.000256 0.704919 0.709288
vn 0.000000 0.000000 1.000000
vn -0.999997 -0.002418 0.000000
vn -0.999999 -0.001157 0.000299
vn -0.999999 -0.000243 0.001127
vn -1.000000 -0.000591 0.000338
vn -0.000363 1.000000 0.000000
vn -0.000363 1.000000 0.000000
vn 0.000000 0.000000 -1.000000
vn 0.000000 0.000000 -1.000000
vn -0.000363 1.000000 0.000000
vn -0.000363 1.000000 0.000000
vn -1.000000 -0.000246 0.000000
vn -1.000000 -0.000246 0.000000
vn -1.000000 -0.000246 0.000000
vn -1.000000 -0.000246 0.000000
vn 0.000000 0.000000 -1.000000
vn 0.000000 0.000000 -1.000000
vn 0.000000 1.000000 0.000000
vn 0.000000 1.000000 0.000000
vn 0.000000 1.000000 0.000000
vn 0.000000 1.000000 0.000000
vn 0.000000 1.000000 0.000000
vn 0.000000 1.000000 0.000000
vn 0.000000 1.000000 0.000000
vn 0.000000 1.000000 0.000000
vn -0.000219 1.000000 0.000000
vn -0.000219 1.000000 0.000000
vn -0.000200 1.000000 0.000000
vn -1.000000 -0.000603 0.000043
vn -1.000000 -0.000622 0.000042
vn -1.000000 -0.000116 0.000000
vn -1.000000 -0.000116 0.000000
vn -0.006561 0.999978 -0.000082
vn -0.006613 0.999978 -0.000080
vn 0.000000 0.000000 1.000000
vn 0.000000 0.000000 1.000000
vn -0.707107 0.707107 0.000000
vn 0.000000 1.000000 0.000000
vn -1.000000 0.000000 0.000000
vn -0.577350 0.577350 0.577350
vn 0.000000 0.707107 0.707107
vn -0.707107 0.000000 0.707107
vn 0.000000 0.000000 1.000000
vn -1.000000 -0.000989 -0.000000
vn -1.000000 -0.000989 -0.000000
vn -0.999999 -0.000989 0.000000
vn -1.000000 -0.000989 -0.000000
vn -0.000200 1.000000 0.000000
vn -0.000200 1.000000 0.000000
vn -0.000200 1.000000 0.000000
vn -0.008595 0.999963 0.000000
vn -1.000000 -0.000121 -0.000000
vn -1.000000 -0.000120 -0.000000
vn -1.000000 -0.000114 0.000000
vn -1.000000 -0.000114 0.000000
vn 0.000000 1.000000 0.000000
vn 0.000000 1.000000 0.000000
vn -1.000000 0.000000 0.000000
vn 0.000000 1.000000 0.000000
vn 0.000000 1.000000 0.000000
vn 0.000000 0.000000 1.000000
vn 0.000000 0.000000 1.000000
vn -1.000000 0.000000 0.000000
vn -1.000000 0.000000 0.000000
vn -1.000000 0.000000 0.000000
vn -1.000000 0.000000 0.000000
vn 0.000000 0.000000 1.000000
vn 0.000000 0.000000 1.000000
vn 0.000000 1.000000 0.000000
vn 0.000000 1.000000 0.000000
vn 0.000000 1.000000 0.000000
vn 0.000000 1.000000 0.000000
vn -1.000000 0.000000 0.000000
vn -1.000000 0.000000 0.000000
vn -1.000000 0.000000 0.000000
vn -1.000000 0.000000 0.000000
vn 0.000000 1.000000 0.000000
vn 0.000000 1.000000 0.000000
vn -1.000000 0.000000 0.000000
vn 0.000000 1.000000 0.000000
vn 0.000000 1.000000 0.000000
vn 0.000000 0.000000 1.000000
vn 0.000000 0.000000 1.000000
vn -1.000000 0.000000 0.000000
vn -1.000000 0.000000 0.000000
vn -1.000000 0.000000 0.000000
vn -1.000000 0.000000 0.000000
vn 0.000000 0.000000 1.000000
vn 0.000000 0.000000 1.000000
vn 0.000032 0.707117 0.707097
vn 0.000032 0.707015 0.707199
vn 0.000046 1.000000 0.000000
vn 0.000046 1.000000 -0.000000
vn 0.000436 1.000000 -0.000000
vn 0.000435 1.000000 -0.000000
vn 0.000437 1.000000 0.000000
vn 0.000437 1.000000 -0.000000
vn 0.000097 1.000000 -0.000000
vn 0.000097 1.000000 -0.000000
vn 0.000097 1.000000 0.000000
vn 0.000097 1.000000 -0.000000
vn 0.000000 0.000000 1.000000
vn 0.000000 0.000000 1.000000
vn 0.000010 1.000000 -0.000000
vn 0.000010 1.000000 -0.000000
vn 0.000010 1.000000 0.000000
vn 0.000010 1.000000 -0.000000
vn 0.000054 1.000000 -0.000000
vn 0.000054 1.000000 -0.000000
vn 0.000054 1.000000 0.000000
vn 0.000054 1.000000 -0.000000
vn -0.577350 0.577350 0.577350
vn 0.000000 0.707106 0.707107
vn 0.000000 1.000000 0.000000
vn -0.707107 0.707107 0.000000
vn 0.000000 0.000000 1.000000
vn -1.000000 0.000000 0.000000
vn -0.707107 0.000000 0.707107
vn 0.000032 0.707117 0.707097
vn 0.000032 0.707015 0.707199
vn 0.000045 1.000000 0.000000
vn 0.000045 1.000000 -0.000000
vn 0.000299 1.000000 -0.000000
vn 0.000299 1.000000 -0.000000
vn 0.000300 1.000000 0.000000
vn 0.000300 1.000000 -0.000000
vn 0.000000 0.000000 1.000000
vn 0.000000 0.000000 1.000000
vn -1.000000 -0.000001 0.000000
vn -1.000000 -0.000001 0.000000
vn 0.000077 1.000000 -0.000000
vn 0.000077 1.000000 -0.000000
vn 0.000077 1.000000 0.000000
vn 0.000077 1.000000 -0.000000
vn -0.577341 0.577361 0.577349
vn 0.000027 0.705877 0.708334
vn -0.707098 0.707116 0.000000
vn 0.000038 1.000000 -0.000000
vn 0.000000 0.000000 1.000000
vn 0.000000 0.000000 1.000000
vn -1.000000 -0.000002 0.000000
vn -1.000000 -0.000002 0.000000
vn -0.707107 0.000000 0.707106
vn -0.577350 0.577350 0.577350
vn 0.000000 0.000000 1.000000
vn -0.000001 0.707107 0.707107
vn -0.577350 0.577350 0.577350
vn 0.000000 0.707106 0.707107
vn 0.000000 1.000000 0.000000
vn -0.707107 0.707107 0.000000
vn 0.000000 0.000000 1.000000
vn -1.000000 0.000000 0.000000
vn -0.707107 0.000000 0.707107
vn 0.000000 1.000000 0.000000
vn 0.000000 1.000000 0.000000
vn 0.000000 1.000000 0.000000
vn 0.000000 1.000000 0.000000
vn -1.000000 -0.000001 0.000000
vn -1.000000 -0.000001 0.000000
vn -0.577312 0.577397 0.577343
vn 0.000104 0.706873 0.707341
vn -0.707078 0.707136 0.000000
vn 0.000147 1.000000 -0.000000
vn 0.000000 0.000000 1.000000
vn 0.000000 0.000000 1.000000
vn -1.000000 0.000000 0.000000
vn -1.000000 0.000000 0.000000
vn -0.577312 0.577397 0.577342
vn 0.000104 0.706954 0.707259
vn -0.707094 0.707120 0.000000
vn 0.000147 1.000000 -0.000000
vn 0.000000 0.000000 1.000000
vn 0.000000 0.000000 1.000000
vn -1.000000 0.000000 0.000000
vn -1.000000 0.000000 0.000000
vn 0.000271 0.705358 0.708851
vn 0.000119 0.553708 0.832711
vn 0.000267 0.705435 0.708774
vn 0.000172 0.798257 0.602316
vn 0.000143 0.707098 0.707116
vn 0.000308 0.707054 0.707160
vn 0.000308 0.707159 0.707054
vn 0.000267 0.705364 0.708845
vn 0.000271 0.705438 0.708771
vn 0.000175 0.704882 0.709325
vn 0.000248 0.999992 0.003970
vn 0.000000 0.000000 1.000000
vn 0.000246 0.999992 0.003950
vn 0.002166 0.706371 0.707838
vn 0.003376 0.947908 0.318525
vn 0.000142 0.707116 0.707097
vn 0.003057 0.706181 0.708024
vn 0.000191 0.707113 0.707100
vn 0.000000 0.000000 1.000000
vn 0.000191 0.707109 0.707104
vn 0.009697 0.999953 0.000155
vn 0.000174 0.704892 0.709314
vn 0.000000 0.000000 1.000000
vn 0.999997 -0.002411 0.000000
vn 1.000000 -0.000243 0.000000
vn 1.000000 -0.000242 0.000000
vn 1.000000 -0.000244 0.000000
vn 1.000000 -0.000242 0.000000
vn 1.000000 -0.000285 0.000000
vn 1.000000 -0.000285 0.000000
vn 0.999999 -0.001156 0.000299
vn 0.999999 -0.000246 0.001127
vn 1.000000 -0.000593 0.000338
vn 0.000248 1.000000 0.000000
vn 0.000248 1.000000 0.000000
vn 0.000000 0.000000 -1.000000
vn 0.000000 0.000000 -1.000000
vn 0.000248 1.000000 0.000000
vn 0.000248 1.000000 0.000000
vn 1.000000 -0.000233 0.000000
vn 1.000000 -0.000233 0.000000
vn 1.000000 -0.000233 0.000000
vn 1.000000 -0.000233 0.000000
vn 0.000000 0.000000 -1.000000
vn 0.000000 0.000000 -1.000000
vn 0.000000 1.000000 0.000000
vn 0.000000 1.000000 0.000000
vn 0.000000 1.000000 0.000000
vn 0.000000 1.000000 0.000000
vn 0.000000 1.000000 0.000000
vn 0.000000 1.000000 0.000000
vn 0.000000 1.000000 0.000000
vn 0.000000 1.000000 0.000000
vn 0.000000 1.000000 0.000000
vn 0.000000 1.000000 0.000000
vn 0.000000 1.000000 0.000000
vn 0.000000 1.000000 0.000000
vn 0.000000 1.000000 0.000000
vn 0.000000 1.000000 0.000000
vn 0.000000 1.000000 0.000000
vn 0.000000 1.000000 0.000000
vn 0.000000 1.000000 0.000000
vn 0.000000 1.000000 0.000000
vn 0.000000 1.000000 0.000000
vn 0.000000 1.000000 0.000000
vn 1.000000 -0.000285 0.000000
vn 1.000000 -0.000285 0.000000
vn 0.000202 1.000000 0.000000
vn 0.000435 1.000000 -0.000000
vn 0.000436 1.000000 -0.000000
vn 0.000201 1.000000 0.000000
vn 1.000000 -0.000602 0.000043
vn 1.000000 -0.000621 0.000042
vn 1.000000 -0.000241 0.000000
vn 1.000000 -0.000241 0.000000
vn 0.012401 0.999923 0.000000
vn 0.012401 0.999923 0.000000
vn 0.000271 1.000000 0.000000
vn 0.000271 1.000000 0.000000
vn 0.000000 0.000000 1.000000
vn 0.000000 0.000000 1.000000
vn 0.000353 1.000000 0.000000
vn 0.000339 1.000000 0.000000
vn 0.000345 1.000000 0.000012
vn 0.000339 1.000000 0.000000
vn 0.000340 1.000000 0.000020
vn 0.000331 1.000000 0.000032
vn 0.000339 1.000000 0.000000
vn 0.000339 1.000000 0.000000
vn 0.707107 0.707107 0.000000
vn 0.000000 1.000000 0.000000
vn 1.000000 0.000000 0.000000
vn 0.577350 0.577350 0.577350
vn 0.000000 0.707107 0.707107
vn 0.707107 0.000000 0.707107
vn 0.000000 0.000000 1.000000
vn 0.707107 0.707107 0.000000
vn 0.000000 1.000000 0.000000
vn 1.000000 0.000000 0.000000
vn 0.577350 0.577350 0.577350
vn 0.000000 0.707107 0.707107
vn 0.707107 0.000000 0.707107
vn 0.000000 0.000000 1.000000
vn 1.000000 -0.000989 -0.000000
vn 1.000000 -0.000989 -0.000000
vn 1.000000 -0.000989 0.000000
vn 1.000000 -0.000989 -0.000000
vn 0.000339 1.000000 0.000000
vn 0.000339 1.000000 0.000000
vn 0.000339 1.000000 0.000000
vn 0.000339 1.000000 0.000000
vn 0.001018 1.000000 0.000000
vn 0.001018 1.000000 0.000000
vn 0.001018 1.000000 0.000000
vn 0.001018 1.000000 0.000000
vn 0.000256 1.000000 0.000007
vn 0.000258 1.000000 0.000000
vn 0.000247 1.000000 0.000032
vn 0.000249 1.000000 0.000025
vn 0.000468 1.000000 0.000011
vn 0.000475 1.000000 0.000000
vn 0.000456 1.000000 0.000032
vn 0.000463 1.000000 0.000021
vn 0.000468 1.000000 0.000011
vn 0.000475 1.000000 0.000000
vn 0.000456 1.000000 0.000032
vn 0.000463 1.000000 0.000021
vn 0.000915 1.000000 0.000018
vn 0.000937 1.000000 0.000000
vn 0.000898 1.000000 0.000032
vn 0.000920 1.000000 0.000014
vn 0.000256 1.000000 0.000007
vn 0.000258 1.000000 0.000000
vn 0.000247 1.000000 0.000032
vn 0.000249 1.000000 0.000025
vn 0.000329 1.000000 0.000000
vn 0.000321 1.000000 0.000012
vn 0.000316 1.000000 0.000020
vn 0.000308 1.000000 0.000032
vn 0.000953 1.000000 0.000018
vn 0.000975 1.000000 0.000000
vn 0.000937 1.000000 0.000032
vn 0.000958 1.000000 0.000014
vn 1.000000 -0.000454 0.000000
vn 1.000000 -0.000454 0.000000
vn 1.000000 -0.000454 0.000000
vn 1.000000 -0.000454 0.000000
vn 1.000000 -0.000454 0.000000
vn 1.000000 -0.000454 0.000000
vn 1.000000 -0.000454 0.000000
vn 1.000000 -0.000454 0.000000
vn 1.000000 -0.000898 0.000000
vn 1.000000 -0.000898 0.000000
vn 1.000000 -0.000898 0.000000
vn 1.000000 -0.000898 0.000000
vn -0.000001 1.000000 0.000000
vn -0.000001 1.000000 0.000000
vn -0.000001 1.000000 0.000000
vn -0.000001 1.000000 0.000000
vn -0.000002 1.000000 0.000000
vn -0.000002 1.000000 0.000000
vn -0.000002 1.000000 0.000000
vn -0.000002 1.000000 0.000000
vn -0.000001 1.000000 0.000000
vn -0.000001 1.000000 0.000000
vn -0.000001 1.000000 0.000000
vn -0.000001 1.000000 0.000000
vn -0.000002 1.000000 0.000000
vn -0.000002 1.000000 0.000000
vn -0.000002 1.000000 0.000000
vn -0.000002 1.000000 0.000000
vn -0.000001 1.000000 0.000000
vn -0.000001 1.000000 0.000000
vn -0.000001 1.000000 0.000000
vn -0.000001 1.000000 0.000000
vn -1.000000 0.000000 0.000000
vn -1.000000 0.000000 0.000000
vn -1.000000 0.000000 0.000000
vn -1.000000 0.000000 0.000000
vn -1.000000 0.000001 0.000000
vn -1.000000 0.000001 0.000000
vn -1.000000 0.000001 0.000000
vn -1.000000 0.000001 0.000000
vn -1.000000 0.000000 0.000000
vn -1.000000 0.000000 0.000000
vn -1.000000 0.000000 0.000000
vn -1.000000 0.000000 0.000000
vn 0.000298 1.000000 -0.000000
vn 0.000297 1.000000 -0.000005
vn 0.000298 1.000000 0.000000
vn 0.000297 1.000000 -0.000004
vn 0.000133 1.000000 -0.000000
vn 0.000133 1.000000 -0.000001
vn 0.000133 1.000000 0.000000
vn 0.000133 1.000000 -0.000001
vn 0.000000 1.000000 0.000000
vn 0.000000 1.000000 0.000000
vn 0.000000 1.000000 0.000000
vn 0.000000 1.000000 0.000000
vn 0.000000 1.000000 0.000000
vn 0.000000 1.000000 0.000000
vn 0.000000 1.000000 0.000000
vn 0.000000 1.000000 0.000000
vn 0.000000 1.000000 0.000000
vn 0.000000 1.000000 0.000000
vn 0.000000 1.000000 0.000000
vn 0.000000 1.000000 0.000000
vn 0.000000 1.000000 0.000000
vn 0.000000 1.000000 0.000000
vn 0.000000 1.000000 0.000000
vn 0.000000 1.000000 0.000000
vn 0.000000 1.000000 0.000000
vn 0.000000 1.000000 0.000000
vn 0.000000 1.000000 0.000000
vn 0.000000 1.000000 0.000000
vn 0.000000 1.000000 0.000000
vn 0.000000 1.000000 0.000000
vn 0.000000 1.000000 0.000000
vn 0.000000 1.000000 0.000000
vn 0.000000 1.000000 0.000000
vn 0.000000 1.000000 0.000000
vn 0.000000 1.000000 0.000000
vn 0.000000 1.000000 0.000000
vn 0.000004 1.000000 0.000000
vn 0.000004 1.000000 0.000000
vn 0.000004 1.000000 0.000000
vn 0.000004 1.000000 0.000000
vn -0.000001 1.000000 0.000000
vn -0.000081 0.766425 0.642334
vn 0.000274 0.766697 0.642009
vn 0.000719 0.767038 0.641601
vn 0.000364 0.766766 0.641926
vn -0.000016 0.766425 0.642333
vn 0.000000 0.766489 0.642257
vn 0.000141 0.767039 0.641600
vn 0.000125 0.766975 0.641677
vn -0.000079 0.954327 0.298764
vn 0.000275 0.954453 0.298360
vn 0.000719 0.954611 0.297853
vn 0.000365 0.954485 0.298257
vn -0.000088 0.843354 0.537359
vn 0.000350 0.843589 0.536990
vn 0.000788 0.843823 0.536620
vn 0.000350 0.843589 0.536990
vn -0.000010 0.766426 0.642332
vn -0.000003 0.766466 0.642285
vn 0.000088 0.767038 0.641602
vn 0.000082 0.766998 0.641650
vn 0.000031 0.500863 0.865526
vn 0.000031 0.500864 0.865526
vn 0.000031 0.500863 0.865526
vn 0.000031 0.500864 0.865526
vn 0.000031 0.500864 0.865526
vn 0.000031 0.500865 0.865526
vn 0.000031 0.500864 0.865526
vn 0.000031 0.500865 0.865526
vn -0.000017 0.321823 0.946800
vn -0.000017 0.321824 0.946800
vn -0.000017 0.321823 0.946800
vn -0.000017 0.321824 0.946799
vn -0.000017 0.321823 0.946800
vn -0.000017 0.321824 0.946800
vn -0.000017 0.321823 0.946800
vn -0.000017 0.321824 0.946799
vn -0.000017 0.321823 0.946800
vn -0.000017 0.321825 0.946799
vn -0.000017 0.321823 0.946800
vn -0.000017 0.321825 0.946799
vn -0.000080 0.979232 0.202743
vn 0.000295 0.979316 0.202337
vn 0.000720 0.979411 0.201877
vn 0.000345 0.979327 0.202282
vn -0.000095 0.886928 0.461908
vn 0.000379 0.887147 0.461486
vn 0.000855 0.887367 0.461063
vn 0.000381 0.887148 0.461485
vn -0.000064 0.996139 -0.087791
vn 0.000284 0.996102 -0.088205
vn 0.000721 0.996056 -0.088725
vn 0.000373 0.996093 -0.088311
vn 0.381130 0.920348 -0.087750
vn 0.381441 0.920179 -0.088168
vn 0.381831 0.919967 -0.088693
vn 0.381520 0.920136 -0.088275
vn 0.381130 0.920348 -0.087750
vn 0.381441 0.920179 -0.088168
vn 0.381831 0.919967 -0.088693
vn 0.381520 0.920136 -0.088275
vn 0.381130 0.920348 -0.087750
vn 0.381441 0.920179 -0.088168
vn 0.381831 0.919967 -0.088693
vn 0.381520 0.920136 -0.088275
vn -0.000087 0.996142 -0.087753
vn 0.000263 0.996105 -0.088170
vn 0.000702 0.996059 -0.088693
vn 0.000352 0.996096 -0.088276
vn -0.000087 0.996142 -0.087753
vn 0.000263 0.996105 -0.088170
vn 0.000702 0.996059 -0.088693
vn 0.000352 0.996096 -0.088276
vn -0.000087 0.996142 -0.087753
vn 0.000263 0.996105 -0.088170
vn 0.000702 0.996059 -0.088693
vn 0.000352 0.996096 -0.088276
vn -0.000087 0.996142 -0.087753
vn 0.000263 0.996105 -0.088170
vn 0.000702 0.996059 -0.088693
vn 0.000352 0.996096 -0.088276
vn -0.000080 0.913146 0.407633
vn 0.000295 0.913315 0.407255
vn 0.000721 0.913506 0.406825
vn 0.000345 0.913337 0.407204
vn 0.000000 0.000000 1.000000
vn 0.000000 0.000000 1.000000
vn 0.000000 0.720665 0.693284
vn 0.000000 0.707107 0.707107
vn -0.000080 0.882478 0.470354
vn 0.000295 0.882672 0.469989
vn 0.000720 0.882893 0.469574
vn 0.000345 0.882699 0.469939
vn 0.000000 1.000000 0.000000
vn 0.000000 1.000000 0.000000
vn 0.000000 1.000000 0.000000
vn 0.000000 1.000000 0.000000
vn 0.000000 1.000000 0.000000
vn 0.000001 1.000000 0.000000
vn 0.000001 1.000000 0.000000
vn 0.000001 1.000000 0.000000
vn 0.000001 1.000000 0.000000
vn -0.000080 0.979232 0.202743
vn 0.000295 0.979316 0.202337
vn 0.000720 0.979411 0.201877
vn 0.000345 0.979327 0.202282
vn -0.000043 0.913146 0.407634
vn 0.000044 0.913234 0.407437
vn 0.000313 0.913507 0.406823
vn 0.000227 0.913419 0.407020
vn -0.000089 0.843353 0.537360
vn 0.000349 0.843588 0.536990
vn 0.000787 0.843823 0.536621
vn 0.000349 0.843588 0.536990
vn -0.000013 0.913145 0.407634
vn -0.000001 0.913163 0.407594
vn 0.000058 0.913507 0.406822
vn 0.000051 0.913489 0.406863
vn 0.000000 1.000000 0.000000
vn 0.000000 1.000000 0.000000
vn 0.000000 1.000000 0.000000
vn 0.000000 1.000000 0.000000
vn 0.000045 0.913232 0.407440
vn 0.000058 0.913250 0.407400
vn -0.000013 0.913320 0.407243
vn -0.000006 0.913337 0.407204
vn -0.577350 0.577350 0.577350
vn 0.000000 0.707106 0.707108
vn 0.000000 1.000000 0.000000
vn -0.707107 0.707107 0.000000
vn 0.000000 0.000000 1.000000
vn -1.000000 0.000000 0.000000
vn -0.707107 0.000000 0.707107
vn -0.000001 1.000000 -0.000000
vn -0.000001 1.000000 0.000000
vn -0.000001 1.000000 -0.000000
vn -0.000001 1.000000 0.000000
vn -0.000001 1.000000 -0.000000
vn -0.000001 1.000000 -0.000000
vn -0.000001 1.000000 -0.000000
vn -0.000001 1.000000 -0.000000
g fff0ac53_00400_0089d163_e0
f 18/3/18 21/3/21 22/3/22
f 18/3/18 17/3/17 21/3/21
f 42/11/42 45/11/45 46/11/46
f 42/11/42 41/11/41 45/11/45
f 54/11/54 57/11/57 58/11/58
f 54/11/54 53/11/53 57/11/57
f 66/11/66 69/11/69 70/11/70
f 66/11/66 65/11/65 69/11/69
f 342/285/342 354/285/354 345/285/345
f 400/312/400 399/313/399 398/314/398
f 155/95/155 162/96/162 161/97/161
f 175/118/175 170/116/170 174/119/174
f 170/116/170 175/118/175 171/117/171
f 156/112/156 155/95/155 161/97/161
f 163/102/163 162/108/162 153/109/153
f 161/97/161 162/96/162 163/159/163
f 209/156/209 208/155/208 211/153/211
f 196/107/196 163/102/163 153/109/153
f 157/98/157 156/157/156 164/98/164
f 167/135/167 166/140/166 194/137/194
f 185/113/185 183/115/183 184/114/184
f 184/114/184 183/115/183 182/120/182
f 168/139/168 167/135/167 169/138/169
f 161/97/161 163/159/163 215/160/215
f 164/125/164 158/123/158 157/126/157
f 169/138/169 167/135/167 193/136/193
f 403/313/403 401/319/401 402/314/402
f 211/153/211 208/155/208 210/154/210
f 172/121/172 180/121/180 173/121/173
f 180/121/180 172/121/172 181/121/181
f 189/113/189 187/115/187 188/114/188
f 340/285/340 361/285/361 353/285/353
f 176/128/176 178/130/178 177/129/177
f 177/129/177 179/131/179 176/128/176
f 342/282/342 353/284/353 354/283/354
f 212/110/212 192/132/192 213/111/213
f 396/312/396 395/313/395 394/314/394
f 214/127/214 192/132/192 212/110/212
f 156/98/156 161/98/161 164/98/164
f 204/144/204 203/141/203 206/143/206
f 153/99/153 154/101/154 191/100/191
f 203/141/203 204/144/204 201/142/201
f 158/123/158 164/125/164 160/124/160
f 201/145/201 205/148/205 202/146/202
f 198/103/198 163/105/163 197/104/197
f 195/106/195 163/102/163 196/107/196
f 167/135/167 194/137/194 193/136/193
f 188/114/188 187/115/187 186/120/186
f 191/100/191 154/101/154 190/133/190
f 205/148/205 201/145/201 204/147/204
f 215/158/215 163/105/163 198/103/198
f 219/161/219 217/162/217 216/163/216
f 218/164/218 217/162/217 219/161/219
f 429/355/429 430/356/430 433/358/433
f 433/358/433 432/357/432 429/355/429
f 431/351/431 429/352/429 432/354/432
f 432/354/432 434/353/434 431/351/431
f 391/313/391 389/319/389 390/314/390
f 348/285/348 349/285/349 340/285/340
f 342/285/342 345/285/345 347/285/347
f 388/312/388 387/313/387 386/314/386
f 345/285/345 354/285/354 355/285/355
f 387/313/387 385/319/385 386/314/386
f 409/328/409 345/307/345 410/333/410
f 409/287/409 408/334/408 346/288/346
f 348/310/348 347/282/347 341/284/341
f 392/312/392 391/313/391 390/314/390
f 372/340/372 411/338/411 370/337/370
f 439/354/439 441/353/441 438/351/438
f 348/299/348 342/298/342 347/311/347
f 370/337/370 412/339/412 363/342/363
f 438/351/438 436/352/436 439/354/439
f 340/297/340 342/298/342 348/299/348
f 395/313/395 393/319/393 394/314/394
f 359/279/359 356/281/356 358/280/358
f 257/197/257 256/198/256 254/199/254
f 255/200/255 257/197/257 254/199/254
f 261/201/261 260/202/260 258/203/258
f 259/204/259 261/201/261 258/203/258
f 265/205/265 264/206/264 262/207/262
f 263/208/263 265/205/265 262/207/262
f 271/211/271 270/212/270 268/213/268
f 269/214/269 271/211/271 268/213/268
f 275/215/275 274/216/274 272/217/272
f 273/218/273 275/215/275 272/217/272
f 286/219/286 285/220/285 283/220/283
f 284/237/284 286/219/286 283/220/283
f 290/223/290 289/224/289 287/225/287
f 288/226/288 290/223/290 287/225/287
f 296/232/296 298/229/298 295/231/295
f 298/229/298 297/230/297 295/231/295
f 294/233/294 293/234/293 322/235/322
f 322/235/322 323/236/323 294/233/294
f 302/238/302 301/239/301 299/239/299
f 300/240/300 302/238/302 299/239/299
f 306/241/306 305/242/305 299/243/299
f 299/243/299 301/244/301 306/241/306
f 327/257/327 326/258/326 324/258/324
f 325/259/325 327/257/327 324/258/324
f 331/260/331 330/261/330 324/262/324
f 324/262/324 326/263/326 331/260/331
f 335/268/335 334/269/334 332/269/332
f 333/270/333 335/268/335 332/269/332
f 339/271/339 338/272/338 332/273/332
f 332/273/332 334/274/334 339/271/339
f 408/308/408 407/335/407 344/309/344
f 378/317/378 377/318/377 373/315/373
f 373/315/373 374/316/374 378/317/378
f 340/310/340 353/284/353 342/282/342
f 367/290/367 365/306/365 364/301/364
f 353/284/353 360/294/360 354/283/354
f 444/366/444 446/363/446 443/365/443
f 414/296/414 365/306/365 367/290/367
f 347/285/347 346/285/346 343/285/343
f 406/327/406 369/303/369 368/305/368
f 356/281/356 359/279/359 357/304/357
f 418/291/418 357/290/357 359/303/359
f 371/341/371 372/340/372 370/337/370
f 353/284/353 416/292/416 360/294/360
f 361/324/361 349/325/349 350/322/350
f 356/302/356 354/283/354 360/294/360
f 367/290/367 364/301/364 366/300/366
f 404/312/404 403/313/403 402/314/402
f 375/320/375 376/320/376 383/320/383
f 383/320/383 384/320/384 375/320/375
f 399/313/399 397/319/397 398/314/398
f 446/363/446 445/364/445 443/365/443
f 379/329/379 380/330/380 381/331/381
f 380/330/380 379/329/379 382/332/382
f 436/355/436 437/356/437 440/358/440
f 345/307/345 355/309/355 410/333/410
f 440/358/440 439/357/439 436/355/436
f 347/282/347 343/283/343 341/284/341
f 348/285/348 341/285/341 349/285/349
f 349/285/349 361/285/361 340/285/340
f 345/286/345 409/287/409 346/288/346
f 417/289/417 357/290/357 418/291/418
f 350/322/350 352/323/352 361/324/361
f 346/307/346 408/308/408 344/309/344
f 416/292/416 415/293/415 360/294/360
f 413/295/413 414/296/414 367/290/367
f 370/337/370 411/338/411 412/339/412
f 347/285/347 345/285/345 346/285/346
f 405/326/405 369/303/369 406/327/406
f 346/285/346 344/285/344 343/285/343
g fff0ac53_00400_0089d163_e2
f 27/6/27 28/6/28 20/6/20
f 20/6/20 19/6/19 27/6/27
f 6/6/6 15/6/15 5/6/5
f 15/6/15 6/6/6 16/6/16
f 34/6/34 39/6/39 33/6/33
f 39/6/39 34/6/34 40/6/40
f 51/12/51 52/12/52 44/12/44
f 44/12/44 43/12/43 51/12/51
f 63/12/63 64/12/64 56/12/56
f 56/12/56 55/12/55 63/12/63
f 75/12/75 76/12/76 68/12/68
f 68/12/68 67/12/67 75/12/75
f 688/586/688 687/587/687 685/584/685
f 685/584/685 686/585/686 688/586/688
f 668/566/668 667/567/667 665/564/665
f 665/564/665 666/565/666 668/566/668
f 654/71/654 653/554/653 655/72/655
f 118/64/118 120/64/120 119/64/119
f 143/66/143 139/83/139 145/68/145
f 139/83/139 143/66/143 140/84/140
f 145/68/145 142/86/142 144/67/144
f 142/86/142 145/68/145 139/83/139
f 134/84/134 135/86/135 138/83/138
f 135/86/135 134/84/134 132/85/132
f 131/76/131 129/74/129 130/75/130
f 129/74/129 131/76/131 128/73/128
f 131/82/131 126/80/126 127/81/127
f 126/80/126 131/82/131 130/79/130
f 128/72/128 127/70/127 125/71/125
f 127/70/127 128/72/128 131/69/131
f 127/81/127 126/80/126 124/78/124
f 130/79/130 123/77/123 126/80/126
f 133/94/133 138/88/138 137/93/137
f 138/88/138 133/94/133 134/87/134
f 142/86/142 140/84/140 141/85/141
f 140/84/140 142/86/142 139/83/139
f 138/92/138 136/90/136 137/91/137
f 136/90/136 138/92/138 135/89/135
f 150/66/150 146/83/146 152/68/152
f 146/83/146 150/66/150 147/84/147
f 152/68/152 149/86/149 151/67/151
f 149/86/149 152/68/152 146/83/146
f 149/86/149 147/84/147 148/85/148
f 147/84/147 149/86/149 146/83/146
f 165/134/165 159/122/159 199/122/199
f 200/122/200 165/134/165 199/122/199
f 204/149/204 207/152/207 205/150/205
f 207/152/207 204/149/204 206/151/206
f 567/488/567 125/487/125 308/250/308
f 308/250/308 310/252/310 567/488/567
f 155/98/155 153/98/153 162/98/162
f 155/98/155 154/98/154 153/98/153
f 664/563/664 663/562/663 660/559/660
f 660/559/660 662/561/662 664/563/664
f 661/560/661 662/561/662 654/71/654
f 662/561/662 660/559/660 654/71/654
f 654/71/654 655/72/655 661/560/661
f 653/554/653 654/71/654 652/553/652
f 231/169/231 226/172/226 232/170/232
f 226/172/226 231/169/231 225/171/225
f 252/183/252 247/184/247 253/185/253
f 247/184/247 252/183/252 246/186/246
f 694/595/694 696/596/696 693/593/693
f 696/596/696 694/595/694 695/598/695
f 696/596/696 699/594/699 693/593/693
f 699/594/699 696/596/696 698/597/698
f 693/593/693 697/592/697 694/595/694
f 697/592/697 693/593/693 699/594/699
f 254/199/254 267/210/267 255/200/255
f 267/210/267 254/199/254 266/209/266
f 280/66/280 276/83/276 282/68/282
f 276/83/276 280/66/280 277/84/277
f 282/68/282 279/86/279 281/67/281
f 279/86/279 282/68/282 276/83/276
f 279/86/279 277/84/277 278/85/278
f 277/84/277 279/86/279 276/83/276
f 283/221/283 292/227/292 284/222/284
f 292/227/292 283/221/283 291/228/291
f 299/245/299 304/246/304 300/247/300
f 304/246/304 299/245/299 303/248/303
f 124/78/124 308/250/308 127/81/127
f 308/250/308 124/78/124 307/249/307
f 307/249/307 310/252/310 308/250/308
f 310/252/310 307/249/307 309/251/309
f 315/66/315 311/83/311 317/68/317
f 311/83/311 315/66/315 312/84/312
f 317/68/317 314/86/314 316/67/316
f 314/86/314 317/68/317 311/83/311
f 314/86/314 312/84/312 313/85/313
f 312/84/312 314/86/314 311/83/311
f 324/264/324 329/265/329 325/266/325
f 329/265/329 324/264/324 328/267/328
f 332/275/332 337/276/337 333/277/333
f 337/276/337 332/275/332 336/278/336
f 362/336/362 419/321/419 351/321/351
f 420/321/420 419/321/419 362/336/362
f 432/359/432 433/360/433 435/362/435
f 435/362/435 434/361/434 432/359/432
f 439/359/439 440/360/440 442/362/442
f 442/362/442 441/361/441 439/359/439
g fff0ac53_00400_0089d163_e3
f 10/1/10 31/4/31 9/2/9
f 10/1/10 32/5/32 31/4/31
f 1/7/1 30/9/30 2/8/2
f 1/7/1 29/10/29 30/9/30
f 11/3/11 14/3/14 12/3/12
f 11/3/11 13/3/13 14/3/14
f 4/3/4 7/3/7 3/3/3
f 4/3/4 8/3/8 7/3/7
f 23/3/23 24/3/24 26/3/26
f 23/3/23 26/3/26 25/3/25
f 35/3/35 38/3/38 36/3/36
f 35/3/35 37/3/37 38/3/38
f 47/11/47 48/11/48 50/11/50
f 47/11/47 50/11/50 49/11/49
f 59/11/59 60/11/60 62/11/62
f 59/11/59 62/11/62 61/11/61
f 71/11/71 72/11/72 74/11/74
f 71/11/71 74/11/74 73/11/73
f 321/253/321 320/254/320 319/255/319
f 320/254/320 318/256/318 319/255/319
f 241/192/241 245/191/245 242/194/242
f 245/191/245 241/192/241 244/193/244
f 243/188/243 250/187/250 249/190/249
f 250/187/250 248/188/248 251/189/251
f 238/181/238 237/182/237 239/179/239
f 239/179/239 240/180/240 238/181/238
f 234/177/234 233/178/233 235/195/235
f 235/195/235 236/196/236 234/177/234
f 220/175/220 224/173/224 221/176/221
f 224/173/224 220/175/220 223/174/223
f 222/165/222 229/168/229 228/166/228
f 229/168/229 227/165/227 230/167/230
f 119/65/119 122/65/122 121/65/121
f 119/65/119 121/65/121 118/65/118
f 115/60/115 117/63/117 116/61/116
f 115/60/115 116/61/116 114/62/114
f 86/52/86 108/56/108 113/57/113
f 113/57/113 111/55/111 86/52/86
f 86/52/86 111/53/111 89/54/89
f 109/49/109 83/50/83 110/51/110
f 80/48/80 110/51/110 83/50/83
f 89/54/89 112/59/112 88/58/88
f 79/45/79 81/46/81 109/47/109
f 108/44/108 85/43/85 107/43/107
f 112/59/112 89/54/89 111/53/111
f 88/25/88 87/22/87 89/26/89
f 94/35/94 93/36/93 92/37/92
f 90/28/90 85/23/85 86/24/86
f 89/29/89 90/28/90 86/24/86
f 81/18/81 79/15/79 77/13/77
f 103/41/103 104/42/104 106/39/106
f 89/26/89 87/22/87 90/27/90
f 93/36/93 91/38/91 92/37/92
f 98/34/98 97/34/97 95/17/95
f 81/46/81 83/50/83 109/49/109
f 95/17/95 96/17/96 98/34/98
f 106/39/106 105/40/105 103/41/103
f 83/20/83 84/21/84 80/16/80
f 99/41/99 100/42/100 102/39/102
f 84/21/84 78/14/78 80/16/80
f 102/39/102 101/40/101 99/41/99
f 82/19/82 81/18/81 77/13/77
f 85/43/85 108/44/108 86/44/86
g fff0ac53_00400_0089d163_e4
f 83/30/83 82/31/82 84/32/84
f 81/33/81 82/31/82 83/30/83
g fff0ac53_00400_0089d163_e1
f 423/343/423 425/347/425 426/348/426
f 421/346/421 425/347/425 423/343/423
f 427/349/427 422/344/422 428/350/428
f 428/350/428 422/344/422 424/345/424
f 475/398/475 477/396/477 476/395/476
f 476/395/476 477/396/477 478/397/478
f 474/393/474 471/392/471 472/394/472
f 473/391/473 471/392/471 474/393/474
f 449/367/449 447/368/447 450/369/450
f 450/369/450 447/368/447 448/370/448
f 453/371/453 451/372/451 454/373/454
f 454/373/454 451/372/451 452/374/452
f 457/375/457 455/376/455 458/377/458
f 458/377/458 455/376/455 456/378/456
f 461/379/461 459/380/459 462/381/462
f 462/381/462 459/380/459 460/382/460
f 465/383/465 463/384/463 466/385/466
f 466/385/466 463/384/463 464/386/464
f 469/387/469 467/388/467 470/389/470
f 470/389/470 467/388/467 468/390/468
f 481/399/481 479/401/479 482/400/482
f 482/400/482 479/401/479 480/402/480
f 485/403/485 483/405/483 486/404/486
f 486/404/486 483/405/483 484/406/484
f 489/407/489 487/409/487 490/408/490
f 490/408/490 487/409/487 488/410/488
f 493/411/493 491/413/491 494/412/494
f 494/412/494 491/413/491 492/414/492
g fff0ac53_00400_0089d163_e5
f 495/415/495 498/416/498 496/417/496
f 495/415/495 497/418/497 498/416/498
f 499/419/499 502/420/502 500/421/500
f 499/419/499 501/422/501 502/420/502
f 503/423/503 506/424/506 504/425/504
f 503/423/503 505/426/505 506/424/506
f 507/427/507 510/428/510 508/429/508
f 507/427/507 509/430/509 510/428/510
f 511/431/511 514/432/514 512/433/512
f 511/431/511 513/434/513 514/432/514
f 515/435/515 518/436/518 516/437/516
f 515/435/515 517/438/517 518/436/518
f 519/439/519 522/440/522 520/441/520
f 519/439/519 521/442/521 522/440/522
f 523/443/523 526/444/526 524/445/524
f 523/443/523 525/446/525 526/444/526
f 530/447/530 529/448/529 527/449/527
f 528/450/528 530/447/530 527/449/527
f 532/451/532 534/452/534 531/453/531
f 534/452/534 533/454/533 531/453/531
f 538/456/538 535/458/535 536/457/536
f 537/455/537 538/456/538 536/457/536
f 542/459/542 539/460/539 540/461/540
f 541/462/541 542/459/542 540/461/540
f 546/463/546 543/464/543 544/465/544
f 545/466/545 546/463/546 544/465/544
f 550/467/550 547/468/547 548/469/548
f 549/470/549 550/467/550 548/469/548
f 554/471/554 551/472/551 552/473/552
f 553/474/553 554/471/554 552/473/552
f 558/475/558 555/476/555 556/477/556
f 557/478/557 558/475/558 556/477/556
f 562/479/562 559/480/559 560/481/560
f 561/482/561 562/479/562 560/481/560
f 566/483/566 563/484/563 564/485/564
f 565/486/565 566/483/566 564/485/564
f 700/599/700 705/604/705 704/603/704
f 700/599/700 701/600/701 705/604/705
f 706/603/706 702/601/702 703/602/703
f 706/603/706 707/604/707 702/601/702
g fff0ac53_00400_0089d163_e6
f 568/489/568 571/490/571 569/491/569
f 571/490/571 570/492/570 569/491/569
f 572/493/572 575/494/575 573/495/573
f 575/494/575 574/496/574 573/495/573
f 672/569/672 671/571/671 670/570/670
f 669/568/669 672/569/672 670/570/670
f 659/556/659 658/558/658 657/557/657
f 656/555/656 659/556/659 657/557/657
f 576/497/576 579/498/579 577/499/577
f 579/498/579 578/500/578 577/499/577
f 580/501/580 583/502/583 581/503/581
f 583/502/583 582/504/582 581/503/581
f 584/505/584 587/506/587 585/507/585
f 587/506/587 586/508/586 585/507/585
f 651/550/651 650/552/650 649/551/649
f 648/549/648 651/550/651 649/551/649
f 608/529/608 611/530/611 609/531/609
f 611/530/611 610/532/610 609/531/609
f 615/534/615 614/536/614 613/535/613
f 612/533/612 615/534/615 613/535/613
f 647/546/647 646/548/646 645/547/645
f 644/545/644 647/546/647 645/547/645
f 643/542/643 642/544/642 641/543/641
f 640/541/640 643/542/643 641/543/641
f 684/580/684 683/581/683 692/591/692
f 691/590/691 684/580/684 692/591/692
f 681/583/681 689/588/689 682/582/682
f 689/588/689 690/589/690 682/582/682
f 631/538/631 630/540/630 629/539/629
f 628/537/628 631/538/631 629/539/629
f 627/538/627 626/540/626 625/539/625
f 624/537/624 627/538/627 625/539/625
f 639/538/639 638/540/638 637/539/637
f 636/537/636 639/538/639 637/539/637
f 616/537/616 619/538/619 617/539/617
f 619/538/619 618/540/618 617/539/617
f 635/538/635 634/540/634 633/539/633
f 632/537/632 635/538/635 633/539/633
f 620/537/620 623/538/623 621/539/621
f 623/538/623 622/540/622 621/539/621
f 676/572/676 675/573/675 674/574/674
f 673/575/673 676/572/676 674/574/674
f 677/576/677 680/577/680 678/578/678
f 680/577/680 679/579/679 678/578/678
g fff0ac53_00400_0089d163_e7
f 589/509/589 590/510/590 588/511/588
f 591/512/591 590/510/590 589/509/589
f 599/520/599 597/517/597 598/519/598
f 597/517/597 596/518/596 598/519/598
g fff0ac53_00400_0089d163_e8
f 593/513/593 594/514/594 592/515/592
f 595/516/595 594/514/594 593/513/593
f 607/528/607 605/525/605 606/527/606
f 605/525/605 604/526/604 606/527/606
f 601/521/601 600/522/600 602/523/602
f 603/524/603 601/521/601 602/523/602
