# fff02c13_00212_006bd97b
o fff02c13_00212_006bd97b
v 1.125107 -0.034520 -0.515141
v 1.125107 0.034521 -0.515141
v -1.125107 0.034521 -0.515141
v -1.125107 -0.034520 -0.515141
v -1.125107 0.034521 0.515141
v 1.125107 0.034521 0.515141
v 1.125107 -0.034520 0.515141
v -1.125107 -0.034520 0.515141
v 3.439827 -0.034520 -0.515141
v 3.439827 0.034521 -0.515141
v 1.189613 0.034521 -0.515141
v 1.189613 -0.034520 -0.515141
v 1.189613 0.034521 0.515141
v 3.439827 0.034521 0.515141
v 3.439827 -0.034520 0.515141
v 1.189613 -0.034520 0.515141
v 5.776199 -0.034520 -0.515141
v 5.776199 0.034521 -0.515141
v 3.525986 0.034521 -0.515141
v 3.525986 -0.034520 -0.515141
v 3.525986 0.034521 0.515141
v 5.776199 0.034521 0.515141
v 5.776199 -0.034520 0.515141
v 3.525986 -0.034520 0.515141
vt 0.001862 0.163286
vt 0.001862 0.163286
vt 0.001903 0.166850
vt 0.001903 0.168122
vt 0.001861 0.188361
vt 0.001861 0.188361
vt 0.001903 0.166850
vt 0.001903 0.168122
vt 2.000000 1.000000
vt 1.000000 2.000000
vt 2.000000 2.000000
vt 1.000000 1.000000
vn 0.707107 -0.707107 0.000000
vn 1.000000 0.000000 0.000000
vn -1.000000 0.000000 0.000000
vn -0.707107 -0.707107 0.000000
vn -0.707107 0.000000 0.707107
vn 0.707107 0.000000 0.707107
vn 0.577350 -0.577350 0.577350
vn -0.577350 -0.577350 0.577350
vn 0.707107 -0.707107 0.000000
vn 1.000000 0.000000 0.000000
vn -1.000000 0.000000 0.000000
vn -0.707107 -0.707107 0.000000
vn -0.707107 0.000000 0.707107
vn 0.707107 0.000000 0.707107
vn 0.577350 -0.577350 0.577350
vn -0.577350 -0.577350 0.577350
vn 0.707107 -0.707107 0.000000
vn 1.000000 0.000000 0.000000
vn -1.000000 0.000000 0.000000
vn -0.707107 -0.707107 0.000000
vn -0.707107 0.000000 0.707107
vn 0.707107 0.000000 0.707107
vn 0.577350 -0.577350 0.577350
vn -0.577350 -0.577350 0.577350
g fff02c13_00212_006bd97b_e4
f 4/12/4 7/11/7 8/10/8
f 1/9/1 7/11/7 4/12/4
f 12/12/12 15/11/15 16/10/16
f 9/9/9 15/11/15 12/12/12
f 20/12/20 23/11/23 24/10/24
f 17/9/17 23/11/23 20/12/20
g fff02c13_00212_006bd97b_e2
f 4/7/4 8/8/8 5/4/5
f 5/4/5 3/3/3 4/7/4
f 2/2/2 6/5/6 7/6/7
f 7/6/7 1/1/1 2/2/2
f 12/7/12 16/8/16 13/4/13
f 13/4/13 11/3/11 12/7/12
f 10/2/10 14/5/14 15/6/15
f 15/6/15 9/1/9 10/2/10
f 20/7/20 24/8/24 21/4/21
f 21/4/21 19/3/19 20/7/20
f 18/2/18 22/5/22 23/6/23
f 23/6/23 17/1/17 18/2/18
g fff02c13_00212_006bd97b_e0
f 8/8/8 7/6/7 6/5/6
f 6/5/6 5/4/5 8/8/8
f 16/8/16 15/6/15 14/5/14
f 14/5/14 13/4/13 16/8/16
f 24/8/24 23/6/23 22/5/22
f 22/5/22 21/4/21 24/8/24
