# fff01fcf_00006_000252e4
o fff01fcf_00006_000252e4
v 0.133754 -0.037383 0.001680
v 0.093077 0.060809 0.001680
v -0.005059 0.101486 0.001680
v 0.127836 -0.037383 0.027956
v 0.088893 0.056624 0.027956
v -0.005059 0.095568 0.027956
v 0.077746 -0.037383 0.033622
v 0.053474 0.021204 0.033622
v -0.005059 0.045476 0.033622
v 0.096858 -0.037384 0.232231
v 0.066984 0.034727 0.232231
v -0.005060 0.064602 0.232231
v 0.109605 -0.037384 0.246666
v 0.075997 0.043740 0.246666
v -0.005060 0.077348 0.246666
v 0.096858 -0.037384 0.268562
v 0.066984 0.034727 0.268562
v -0.005060 0.064602 0.268562
v 0.112858 -0.037384 0.592830
v 0.078293 0.046048 0.592830
v -0.005060 0.080612 0.592830
v 0.161917 -0.037384 0.593993
v 0.112983 0.080738 0.593993
v -0.005060 0.129672 0.593993
v 0.159509 -0.037384 0.621053
v 0.111280 0.079036 0.621053
v -0.005060 0.127265 0.621053
v 0.138178 -0.037384 0.630848
v 0.099217 0.067298 0.630848
v -0.005060 0.109972 0.630848
v 0.137939 -0.037384 0.646690
v 0.099238 0.067344 0.646690
v -0.005060 0.109994 0.646690
v 0.102267 -0.037384 0.651306
v 0.070804 0.038558 0.651306
v -0.005060 0.070020 0.651306
v -0.029216 -0.037384 0.829456
v 0.097387 -0.037384 0.707953
v 0.067354 0.035108 0.707953
v -0.005060 0.065140 0.707953
v 0.073190 -0.037384 0.751454
v 0.050245 0.017997 0.751454
v -0.005060 0.040942 0.751454
v 0.038995 -0.037384 0.766455
v 0.026066 -0.006185 0.766455
v -0.005060 0.006743 0.766455
v 0.038995 -0.037384 0.800955
v 0.026066 -0.006185 0.800955
v -0.005060 0.006743 0.800955
v 0.019095 -0.037384 0.800955
v 0.011997 -0.020259 0.800955
v -0.005060 -0.013161 0.800955
v 0.019095 -0.037384 0.829456
v 0.011997 -0.020259 0.829456
v -0.005060 -0.013161 0.829456
v -0.005965 -0.008297 0.524894
v -0.005965 -0.008297 0.337655
v -0.072135 -0.008297 0.365076
v -0.099554 -0.008297 0.431274
v -0.072135 -0.008297 0.497473
v -0.006081 0.154105 0.538914
v -0.006081 0.154105 0.323508
v -0.082205 0.154105 0.355054
v -0.113748 0.158369 0.431211
v -0.082205 0.154105 0.507369
v -0.006081 0.191265 0.530576
v -0.006081 0.191265 0.331847
v -0.076297 0.191265 0.360950
v -0.105398 0.191265 0.431211
v -0.076297 0.191265 0.501472
v -0.006081 0.210168 0.499687
v -0.006081 0.210168 0.362736
v -0.054470 0.210168 0.382792
v -0.074525 0.210168 0.431211
v -0.054470 0.210168 0.479630
v 0.093077 -0.135576 0.001680
v -0.005059 -0.176253 0.001680
v 0.088893 -0.131391 0.027956
v -0.005059 -0.170334 0.027956
v 0.053474 -0.095971 0.033622
v -0.005059 -0.120243 0.033622
v 0.066984 -0.109495 0.232231
v -0.005060 -0.139369 0.232231
v 0.075997 -0.118508 0.246666
v -0.005060 -0.152116 0.246666
v 0.066984 -0.109495 0.268562
v -0.005060 -0.139369 0.268562
v 0.078293 -0.120816 0.592830
v -0.005060 -0.155380 0.592830
v 0.112983 -0.155506 0.593993
v -0.005060 -0.204440 0.593993
v 0.111280 -0.153804 0.621053
v -0.005060 -0.202032 0.621053
v 0.099217 -0.142066 0.630848
v -0.005060 -0.184739 0.630848
v 0.099238 -0.142112 0.646690
v -0.005060 -0.184761 0.646690
v 0.070804 -0.113326 0.651306
v -0.005060 -0.144788 0.651306
v 0.067354 -0.109876 0.707953
v -0.005060 -0.139908 0.707953
v 0.050245 -0.092765 0.751454
v -0.005060 -0.115709 0.751454
v 0.026066 -0.068583 0.766455
v -0.005060 -0.081511 0.766455
v 0.026066 -0.068583 0.800955
v -0.005060 -0.081511 0.800955
v 0.011997 -0.054509 0.800955
v -0.005060 -0.061607 0.800955
v 0.011997 -0.054509 0.829456
v -0.005060 -0.061607 0.829456
v -0.143872 -0.037383 0.001680
v -0.103195 0.060809 0.001680
v -0.137954 -0.037383 0.027956
v -0.099011 0.056624 0.027956
v -0.087864 -0.037383 0.033622
v -0.063592 0.021204 0.033622
v -0.106978 -0.037384 0.232231
v -0.077103 0.034727 0.232231
v -0.119724 -0.037384 0.246666
v -0.086116 0.043740 0.246666
v -0.106978 -0.037384 0.268562
v -0.077103 0.034727 0.268562
v -0.122979 -0.037384 0.592830
v -0.088414 0.046048 0.592830
v -0.172037 -0.037384 0.593993
v -0.123103 0.080738 0.593993
v -0.169630 -0.037384 0.621053
v -0.121401 0.079036 0.621053
v -0.148299 -0.037384 0.630848
v -0.109338 0.067298 0.630848
v -0.148060 -0.037384 0.646690
v -0.109358 0.067344 0.646690
v -0.112387 -0.037384 0.651306
v -0.080925 0.038558 0.651306
v -0.107508 -0.037384 0.707953
v -0.077475 0.035108 0.707953
v -0.083311 -0.037384 0.751454
v -0.060366 0.017997 0.751454
v -0.049115 -0.037384 0.766455
v -0.036187 -0.006185 0.766455
v -0.049115 -0.037384 0.800955
v -0.036187 -0.006185 0.800955
v -0.029216 -0.037384 0.800955
v -0.022118 -0.020259 0.800955
v -0.029216 -0.037384 0.829456
v -0.022118 -0.020259 0.829456
v -0.103195 -0.135576 0.001680
v -0.099011 -0.131391 0.027956
v -0.063592 -0.095971 0.033622
v -0.077103 -0.109495 0.232231
v -0.086116 -0.118508 0.246666
v -0.077103 -0.109495 0.268562
v -0.088414 -0.120816 0.592830
v -0.123103 -0.155506 0.593993
v -0.121401 -0.153804 0.621053
v -0.109338 -0.142066 0.630848
v -0.109358 -0.142112 0.646690
v -0.080925 -0.113326 0.651306
v -0.077475 -0.109876 0.707953
v -0.060366 -0.092765 0.751454
v -0.036187 -0.068583 0.766455
v -0.036187 -0.068583 0.800955
v -0.022118 -0.054509 0.800955
v -0.022118 -0.054509 0.829456
v 0.060205 -0.008297 0.365076
v 0.087623 -0.008297 0.431274
v 0.060205 -0.008297 0.497473
v 0.070044 0.154105 0.355054
v 0.101587 0.154105 0.431211
v 0.070044 0.154105 0.507369
v 0.064135 0.191265 0.360950
v 0.093237 0.191265 0.431211
v 0.064135 0.191265 0.501472
v 0.042309 0.210168 0.382792
v 0.062363 0.210168 0.431211
v 0.042309 0.210168 0.479630
v -0.050848 -0.037267 0.501795
v -0.050848 -0.037267 0.360674
v -0.050848 -0.087137 0.381341
v -0.050848 -0.107804 0.431235
v -0.050848 -0.087137 0.481128
v -0.172638 -0.037267 0.501795
v -0.172638 -0.037267 0.360674
v -0.172638 -0.087137 0.381341
v -0.172638 -0.107804 0.431235
v -0.172638 -0.087137 0.481128
v -0.188201 -0.037267 0.481479
v -0.188201 -0.037267 0.380991
v -0.188201 -0.072770 0.395707
v -0.188201 -0.087486 0.431235
v -0.188201 -0.072770 0.466763
v -0.050848 0.012606 0.381341
v -0.050848 0.033270 0.431235
v -0.050848 0.012606 0.481128
v -0.172638 0.012606 0.381341
v -0.172638 0.033270 0.431235
v -0.172638 0.012606 0.481128
v -0.188201 -0.001760 0.395707
v -0.188201 0.012952 0.431235
v -0.188201 -0.001760 0.466763
v 0.067730 -0.037267 0.501795
v 0.067730 -0.037267 0.360674
v 0.067730 -0.087137 0.381341
v 0.067730 -0.107804 0.431235
v 0.067730 -0.087137 0.481128
v 0.171599 -0.037267 0.501795
v 0.171599 -0.037267 0.360674
v 0.171599 -0.087137 0.381341
v 0.171599 -0.107804 0.431235
v 0.171599 -0.087137 0.481128
v 0.187162 -0.037267 0.481479
v 0.187162 -0.037267 0.380991
v 0.187162 -0.072770 0.395707
v 0.187162 -0.087486 0.431235
v 0.187162 -0.072770 0.466763
v 0.067730 0.012606 0.381341
v 0.067730 0.033270 0.431235
v 0.067730 0.012606 0.481128
v 0.171599 0.012606 0.381341
v 0.171599 0.033270 0.431235
v 0.171599 0.012606 0.481128
v 0.187162 -0.001760 0.395707
v 0.187162 0.012952 0.431235
v 0.187162 -0.001760 0.466763
v 0.023763 0.243675 0.432569
v 0.018924 0.204784 0.432569
v 0.011883 0.204784 0.415581
v -0.005039 0.204784 0.408539
v 0.023763 0.243675 0.432569
v 0.015122 0.243675 0.411721
v -0.005645 0.243675 0.403079
v 0.011883 0.204784 0.449556
v -0.005039 0.204784 0.456598
v 0.015122 0.243675 0.453416
v -0.005645 0.243675 0.462057
v -0.029002 0.204784 0.432569
v -0.021961 0.204784 0.415581
v -0.035052 0.243675 0.432569
v -0.026411 0.243675 0.411721
v -0.021961 0.204784 0.449556
v -0.026411 0.243675 0.453416
v -0.006081 0.163941 0.536707
v -0.081028 0.161506 0.506194
v -0.111495 0.167245 0.431211
v -0.080807 0.162899 0.356449
v -0.006081 0.163744 0.325671
v 0.068732 0.162354 0.356363
v 0.100175 0.160389 0.431211
v 0.069074 0.160205 0.506401
v 0.164991 -0.037267 0.501795
v 0.164859 0.012606 0.481128
v 0.163484 0.033270 0.431235
v 0.163421 0.012606 0.381341
v 0.165254 -0.037267 0.360674
v 0.162831 -0.087137 0.381341
v 0.163721 -0.107804 0.431235
v 0.161645 -0.087137 0.481128
v -0.163143 0.012606 0.481128
v -0.162466 -0.037267 0.501795
v -0.164553 -0.087137 0.481128
v -0.164662 -0.107804 0.431235
v -0.161661 -0.087137 0.381341
v -0.165443 -0.037267 0.360674
v -0.164349 0.012606 0.381341
v -0.164069 0.033270 0.431235
v -0.005064 0.076599 0.253850
v 0.075798 0.043549 0.253029
v 0.109304 -0.037383 0.253067
v 0.075559 -0.118076 0.253610
v -0.005064 -0.151299 0.253965
v -0.085915 -0.118303 0.253057
v -0.118548 -0.037383 0.254587
v -0.085383 0.043006 0.254348
v 0.217518 -0.068832 0.431237
v 0.178627 -0.063993 0.431237
v 0.178627 -0.056952 0.414248
v 0.178627 -0.040030 0.407207
v 0.217518 -0.068832 0.431237
v 0.217518 -0.060191 0.410389
v 0.217518 -0.039425 0.401747
v 0.178627 -0.056952 0.448224
v 0.178627 -0.040030 0.455266
v 0.217518 -0.060191 0.452084
v 0.217518 -0.039425 0.460725
v 0.178627 -0.016067 0.431237
v 0.178627 -0.023108 0.414248
v 0.217518 -0.010017 0.431237
v 0.217518 -0.018657 0.410389
v 0.178627 -0.023108 0.448224
v 0.217518 -0.018657 0.452084
v -0.223415 -0.012761 0.431237
v -0.184524 -0.017601 0.431237
v -0.184524 -0.024641 0.414248
v -0.184524 -0.041563 0.407207
v -0.223415 -0.012761 0.431237
v -0.223415 -0.021403 0.410389
v -0.223415 -0.042169 0.401747
v -0.184524 -0.024641 0.448224
v -0.184524 -0.041563 0.455266
v -0.223415 -0.021403 0.452084
v -0.223415 -0.042169 0.460725
v -0.184524 -0.065526 0.431237
v -0.184524 -0.058485 0.414248
v -0.223415 -0.071577 0.431237
v -0.223415 -0.062937 0.410389
v -0.184524 -0.058485 0.448224
v -0.223415 -0.062937 0.452084
vt 0.500000 0.500000
vt 0.340233 -0.622464
vt 0.340233 -0.622464
vt 0.674496 -0.622464
vt 0.340233 -0.566875
vt 0.340233 -0.566875
vt 0.674496 -0.566875
vt 0.407499 -0.416230
vt 0.602555 -0.416230
vt 0.250000 0.583333
vt 0.375000 0.583333
vt 0.500000 0.583333
vt 0.250000 0.666667
vt 0.375000 0.666667
vt 0.500000 0.666667
vt 0.000000 0.500000
vt 0.146447 0.146447
vt 0.500000 0.000000
vt 0.000000 0.500000
vt 0.146447 0.146447
vt 0.500000 0.000000
vt 0.928120 0.072823
vt 0.927959 0.135028
vt 0.927798 0.197233
vt 0.927637 0.259439
vt 0.340233 -0.622464
vt 0.674496 -0.566875
vt 0.340233 -0.566875
vt 0.674496 -0.622464
vt 0.674496 -0.566875
vt 0.340233 -0.566875
vt 0.602555 -0.416230
vt 0.407499 -0.416230
vt 0.674496 -0.566875
vt 0.602555 -0.416230
vt -0.041411 0.998844
vt 1.010833 0.077645
vt 1.010833 0.999401
vt -0.041411 0.077645
vt 0.158530 0.282936
vt 0.003561 0.282019
vt 0.331838 0.282546
vt 0.163026 0.329577
vt 0.003561 0.328762
vt 0.331838 0.329230
vt 0.163026 0.893382
vt 0.003561 0.893382
vt 0.331838 0.893382
vt 0.446344 0.956855
vt 0.542302 0.959896
vt 0.517075 0.981979
vt 0.464390 0.980309
vt 0.948864 0.861472
vt 0.948864 0.264914
vt 0.752920 0.101562
vt 0.762711 1.013128
vt 0.440786 1.164459
vt 0.427970 -0.028700
vt -0.025157 1.188166
vt -0.026588 -0.057239
vt 0.542302 0.959896
vt 0.446344 0.956855
vt 0.517075 0.981979
vt 0.464390 0.980309
vt 0.390933 0.885819
vt 0.609331 0.913819
vt 0.391184 0.912001
vt 0.612269 0.887664
vt 0.598665 0.936845
vt 0.401254 0.935200
vt 0.591659 0.958033
vt 0.406608 0.956490
vt 0.635247 0.560027
vt 0.382618 0.558954
vt 0.390933 0.885819
vt 0.609331 0.913819
vt 0.391184 0.912001
vt 0.612269 0.887664
vt 0.598665 0.936845
vt 0.401254 0.935200
vt 0.406608 0.956490
vt 0.591659 0.958033
vt 0.635247 0.560027
vt 0.382618 0.558954
vt 0.345770 0.434056
vt 0.674276 0.434056
vt 0.635247 0.560027
vt 0.345770 0.434056
vt 0.345770 0.434056
vt 0.674276 0.434056
vt 0.635247 0.560027
vt 0.345770 0.434056
vt 0.474152 0.179812
vt 0.670474 0.133888
vt 0.670474 0.179812
vt 0.670474 0.006941
vt 0.670474 0.087963
vt 0.474152 0.087963
vt 0.670474 0.006941
vt 0.474152 0.087963
vt 0.682075 0.837545
vt 0.834359 0.837545
vt 0.682075 0.837545
vt 0.834359 0.837545
vt 0.986642 0.837545
vt 0.942039 0.944626
vt 0.942039 0.944626
vt 0.834359 0.988980
vt 0.675246 -0.732618
vt 0.675246 -0.622464
vt 0.340984 -0.622464
vt 0.675246 -0.622464
vt 0.675246 -0.566875
vt 0.340984 -0.566875
vt 0.675246 -0.622464
vt 0.340984 -0.566875
vt 0.340984 -0.622464
vt 0.675246 -0.622464
vt 0.675246 -0.566875
vt 0.340984 -0.566875
vt 0.675246 -0.622464
vt 0.340984 -0.566875
vt 0.340984 -0.622464
vt 0.675246 -0.566875
vt 0.607980 -0.416230
vt 0.412925 -0.416230
vt 0.675246 -0.566875
vt 0.412925 -0.416230
vt 0.340984 -0.566875
vt 0.675246 -0.566875
vt 0.607980 -0.416230
vt 0.412925 -0.416230
vt 0.675246 -0.566875
vt 0.412925 -0.416230
vt 0.340984 -0.566875
vt 0.674165 -0.622464
vt 0.674165 -0.566875
vt 0.674165 -0.622464
vt 0.674165 -0.622464
vt 0.674165 -0.566875
vt 0.674165 -0.622464
vt 0.674165 -0.566875
vt 0.606900 -0.416230
vt 0.411844 -0.416230
vt 0.674165 -0.566875
vt 0.411844 -0.416230
vt 0.674165 -0.566875
vt 0.606900 -0.416230
vt 0.411844 -0.416230
vt 0.674165 -0.566875
vt 0.411844 -0.416230
vt 0.339903 -0.566875
vt 0.339903 -0.566875
vt 0.339903 -0.622464
vt 0.339903 -0.566875
vt 0.339903 -0.566875
vt 0.339903 -0.622464
vt 0.339903 -0.566875
vt 0.339903 -0.566875
vt 0.671866 0.434056
vt 0.382389 0.560027
vt 0.343360 0.434056
vt 0.671866 0.434056
vt 0.635018 0.558954
vt 0.382389 0.560027
vt 0.671866 0.434056
vt 0.671866 0.434056
vt 0.635018 0.558954
vt 0.382389 0.560027
vt 0.343360 0.434056
vt 0.382389 0.560027
vt 0.671866 0.434056
vt 0.382389 0.560027
vt 0.343360 0.434056
vt 0.671866 0.434056
vt 0.635018 0.558954
vt 0.382389 0.560027
vt 0.671866 0.434056
vt 0.382389 0.560027
vt 0.343360 0.434056
vt 0.671866 0.434056
vt 0.635018 0.558954
vt 0.382389 0.560027
vt 0.747085 0.198025
vt 0.747184 0.261259
vt 0.678112 0.261377
vt 0.747085 0.198025
vt 0.678112 0.261377
vt 0.678014 0.198143
vt 0.746986 0.134792
vt 0.747085 0.198025
vt 0.678014 0.198143
vt 0.746986 0.134792
vt 0.678014 0.198143
vt 0.677915 0.134910
vt 0.746887 0.071558
vt 0.746986 0.134792
vt 0.677915 0.134910
vt 0.746887 0.071558
vt 0.677915 0.134910
vt 0.677816 0.071676
vt 0.746789 0.008325
vt 0.746887 0.071558
vt 0.677816 0.071676
vt 0.746789 0.008325
vt 0.677816 0.071676
vt 0.677717 0.008443
vt 0.927798 0.197233
vt 0.751043 0.259365
vt 0.927798 0.197233
vt 0.751043 0.259365
vt 0.751204 0.197159
vt 0.927959 0.135028
vt 0.751204 0.197159
vt 0.927959 0.135028
vt 0.751204 0.197159
vt 0.751365 0.134954
vt 0.928120 0.072823
vt 0.751365 0.134954
vt 0.928120 0.072823
vt 0.751365 0.134954
vt 0.751526 0.072749
vt 0.928280 0.010618
vt 0.751526 0.072749
vt 0.928280 0.010618
vt 0.751526 0.072749
vt 0.751687 0.010544
vt 0.881624 0.632485
vt 0.739397 0.689862
vt 0.739389 0.638233
vt 0.846743 0.592820
vt 0.944517 0.488816
vt 0.895675 0.488816
vt 0.884441 0.336697
vt 0.843926 0.373019
vt 0.739397 0.273686
vt 0.739389 0.327605
vt 0.739395 0.676195
vt 0.874677 0.624585
vt 0.931338 0.488816
vt 0.874853 0.345293
vt 0.739395 0.287672
vt 0.875447 0.344760
vt 0.936257 0.488816
vt 0.875898 0.625973
vt 0.762278 0.259369
vt 0.762662 0.197164
vt 0.762662 0.197164
vt 0.765161 0.134960
vt 0.765161 0.134960
vt 0.765429 0.072755
vt 0.765429 0.072755
vt 0.762473 0.010548
vt 0.766432 0.072755
vt 0.766432 0.072755
vt 0.764758 0.134960
vt 0.764758 0.134960
vt 0.768127 0.197166
vt 0.768127 0.197166
vt 0.764973 0.197165
vt 0.764973 0.197165
vt 0.765793 0.259371
vt 0.762928 0.197164
vt 0.762928 0.197164
vt 0.762930 0.134959
vt 0.762930 0.134959
vt 0.767443 0.072756
vt 0.767443 0.072756
vt 0.762119 0.010548
vt 0.763545 0.072754
vt 0.763545 0.072754
vt 0.763790 0.134959
vt 0.763790 0.134959
vt 0.331838 0.297854
vt 0.159840 0.296532
vt 0.003561 0.295725
vt 0.159956 0.297733
vt 0.331838 0.298091
vt 0.159846 0.296591
vt 0.003561 0.298872
vt 0.160103 0.299259
vn 0.975562 0.000000 0.219726
vn 0.689895 0.689759 0.219722
vn -0.000000 0.975561 0.219729
vn 0.733695 0.000000 0.679479
vn 0.518843 0.518726 0.679504
vn 0.000000 0.733720 0.679452
vn 0.685683 0.000000 0.727901
vn 0.485006 0.484822 0.727816
vn 0.000000 0.685602 0.727977
vn 0.903417 -0.000000 -0.428763
vn 0.638926 0.638714 -0.428739
vn -0.000000 0.903389 -0.428822
vn 0.952095 -0.000903 -0.305803
vn 0.672188 0.673619 -0.307247
vn 0.000085 0.960100 -0.279656
vn 0.941355 -0.000006 0.337419
vn 0.665812 0.665539 0.337272
vn 0.000819 0.939894 0.341464
vn 0.588157 -0.000000 -0.808747
vn 0.416023 0.415892 -0.808677
vn -0.000000 0.588031 -0.808839
vn 0.808094 0.000000 -0.589054
vn 0.571458 0.571325 -0.589087
vn -0.000000 0.808122 -0.589016
vn 0.853426 0.000000 0.521215
vn 0.616040 0.615687 0.491349
vn 0.000000 0.868783 0.495193
vn 0.794320 0.000000 0.607499
vn 0.587858 0.578951 0.565012
vn -0.000001 0.825985 0.563692
vn 0.798052 -0.000000 0.602588
vn 0.579623 0.561819 0.590252
vn 0.000001 0.804334 0.594177
vn 0.628594 0.000000 0.777734
vn 0.441272 0.437989 0.783227
vn -0.000000 0.621386 0.783505
vn 0.000000 0.000000 1.000000
vn 0.960268 0.000000 0.279080
vn 0.679144 0.678882 0.279075
vn -0.000000 0.960266 0.279087
vn 0.711915 0.000000 0.702266
vn 0.503525 0.503242 0.702289
vn -0.000000 0.711915 0.702265
vn 0.786019 0.000000 0.618202
vn 0.556140 0.555614 0.618063
vn -0.000000 0.785837 0.618433
vn 0.776401 0.000000 0.630239
vn 0.549158 0.548708 0.630353
vn -0.000000 0.776511 0.630104
vn 0.594293 0.000000 0.804249
vn 0.420816 0.420229 0.803941
vn -0.000000 0.593797 0.804615
vn 0.776414 0.000000 0.630223
vn 0.549279 0.548513 0.630417
vn -0.000000 0.776601 0.629993
vn 0.000177 -0.086014 0.996294
vn 0.000177 -0.086781 -0.996227
vn -0.704937 -0.086359 -0.703993
vn -0.996326 -0.085637 -0.000529
vn -0.704381 -0.086604 0.704519
vn -0.000085 0.064888 0.997893
vn -0.000086 0.064517 -0.997917
vn -0.705269 0.062479 -0.706182
vn -0.996544 0.083058 -0.000802
vn -0.704718 0.062673 0.706714
vn -0.000001 0.540702 0.841214
vn -0.000000 0.540686 -0.841224
vn -0.594835 0.540753 -0.594775
vn -0.834127 0.551568 -0.002343
vn -0.592931 0.541735 0.595783
vn 0.000000 0.943490 0.331402
vn 0.000000 0.943490 -0.331401
vn -0.234427 0.943476 -0.234301
vn -0.331494 0.943457 -0.000000
vn -0.234426 0.943476 0.234302
vn 0.689895 -0.689759 0.219722
vn 0.000000 -0.975561 0.219729
vn 0.518843 -0.518726 0.679504
vn 0.000000 -0.733720 0.679452
vn 0.485007 -0.484823 0.727815
vn 0.000001 -0.685603 0.727975
vn 0.638925 -0.638714 -0.428740
vn -0.000000 -0.903388 -0.428824
vn 0.677239 -0.677636 -0.286631
vn 0.000084 -0.961130 -0.276097
vn 0.665366 -0.664628 0.339937
vn -0.000293 -0.939808 0.341702
vn 0.416023 -0.415892 -0.808677
vn -0.000000 -0.588030 -0.808839
vn 0.571458 -0.571324 -0.589087
vn 0.000000 -0.808121 -0.589016
vn 0.616040 -0.615686 0.491350
vn 0.000000 -0.868783 0.495193
vn 0.587858 -0.578951 0.565012
vn -0.000001 -0.825985 0.563692
vn 0.579623 -0.561819 0.590252
vn 0.000001 -0.804335 0.594176
vn 0.441272 -0.437989 0.783227
vn 0.000000 -0.621386 0.783505
vn 0.679144 -0.678882 0.279075
vn 0.000000 -0.960266 0.279087
vn 0.503526 -0.503242 0.702289
vn 0.000000 -0.711915 0.702265
vn 0.556141 -0.555614 0.618063
vn -0.000000 -0.785837 0.618433
vn 0.549158 -0.548708 0.630353
vn -0.000000 -0.776511 0.630104
vn 0.420816 -0.420229 0.803941
vn -0.000000 -0.593797 0.804615
vn 0.549279 -0.548513 0.630417
vn -0.000000 -0.776601 0.629993
vn -0.975562 0.000000 0.219726
vn -0.689895 0.689759 0.219722
vn -0.733695 -0.000000 0.679479
vn -0.518843 0.518726 0.679504
vn -0.685685 0.000000 0.727898
vn -0.485007 0.484824 0.727815
vn -0.903416 -0.000000 -0.428766
vn -0.638926 0.638714 -0.428741
vn -0.965458 0.001552 -0.260555
vn -0.682174 0.681134 -0.265886
vn -0.938351 -0.000007 0.345685
vn -0.663869 0.663842 0.344371
vn -0.588155 -0.000000 -0.808748
vn -0.416023 0.415891 -0.808678
vn -0.808094 -0.000000 -0.589054
vn -0.571458 0.571325 -0.589087
vn -0.853426 -0.000000 0.521213
vn -0.616041 0.615687 0.491348
vn -0.794318 0.000000 0.607502
vn -0.587859 0.578949 0.565014
vn -0.798049 -0.000000 0.602593
vn -0.579621 0.561818 0.590255
vn -0.628594 -0.000000 0.777734
vn -0.441272 0.437989 0.783227
vn -0.960268 -0.000000 0.279080
vn -0.679144 0.678882 0.279075
vn -0.711915 -0.000000 0.702266
vn -0.503525 0.503242 0.702289
vn -0.786019 -0.000000 0.618202
vn -0.556140 0.555614 0.618063
vn -0.776401 -0.000000 0.630239
vn -0.549158 0.548708 0.630353
vn -0.594293 -0.000000 0.804249
vn -0.420816 0.420229 0.803941
vn -1.000000 0.000000 0.000000
vn -0.549279 0.548513 0.630418
vn -0.689895 -0.689759 0.219722
vn -0.518843 -0.518726 0.679504
vn -0.485008 -0.484824 0.727814
vn -0.638925 -0.638714 -0.428742
vn -0.672166 -0.674010 -0.306436
vn -0.664976 -0.665990 0.338030
vn -0.416023 -0.415891 -0.808678
vn -0.571458 -0.571324 -0.589088
vn -0.616041 -0.615687 0.491348
vn -0.587859 -0.578949 0.565014
vn -0.579620 -0.561818 0.590254
vn -0.441272 -0.437990 0.783227
vn -0.679144 -0.678882 0.279075
vn -0.503525 -0.503242 0.702289
vn -0.556140 -0.555614 0.618063
vn -0.549158 -0.548708 0.630353
vn -0.420816 -0.420229 0.803941
vn -0.549279 -0.548513 0.630418
vn 0.704682 -0.086154 -0.704273
vn 0.996324 -0.085668 0.000097
vn 0.704619 -0.085612 0.704403
vn 0.705626 0.064926 -0.705603
vn 0.997872 0.065206 -0.000047
vn 0.705663 0.065190 0.705542
vn 0.594835 0.540754 -0.594775
vn 0.841173 0.540767 0.000000
vn 0.594841 0.540761 0.594762
vn 0.234427 0.943476 -0.234301
vn 0.331494 0.943457 -0.000000
vn 0.234427 0.943476 0.234302
vn -0.000000 -0.000011 1.000000
vn -0.000000 -0.000011 -1.000000
vn 0.000000 -0.707164 -0.707050
vn 0.000000 -1.000000 -0.000000
vn 0.000000 -0.707163 0.707050
vn -0.404668 -0.000010 0.914464
vn -0.404678 -0.000010 -0.914459
vn -0.404694 -0.646667 -0.646564
vn -0.404694 -0.914452 -0.000002
vn -0.404687 -0.646671 0.646564
vn -0.921237 -0.000006 0.389001
vn -0.921233 -0.000008 -0.389012
vn -0.921255 -0.275069 -0.275003
vn -0.921257 -0.388955 -0.000005
vn -0.921258 -0.275070 0.274990
vn -0.000000 0.707175 -0.707039
vn -0.000000 1.000000 -0.000000
vn -0.000000 0.707175 0.707039
vn -0.404692 0.646678 -0.646554
vn -0.404697 0.914451 -0.000004
vn -0.404684 0.646681 0.646555
vn -0.921252 0.275083 -0.274999
vn -0.921261 0.388945 -0.000009
vn -0.921256 0.275079 0.274990
vn 0.000000 -0.000011 1.000000
vn 0.000000 -0.000011 -1.000000
vn 0.000000 -0.707164 -0.707050
vn 0.000000 -1.000000 -0.000000
vn 0.000000 -0.707163 0.707050
vn 0.404670 -0.000010 0.914463
vn 0.404680 -0.000010 -0.914458
vn 0.404695 -0.646666 -0.646564
vn 0.404696 -0.914451 -0.000002
vn 0.404689 -0.646671 0.646563
vn 0.921238 -0.000006 0.388999
vn 0.921234 -0.000008 -0.389010
vn 0.921256 -0.275067 -0.275001
vn 0.921258 -0.388953 -0.000005
vn 0.921259 -0.275068 0.274989
vn -0.000000 0.707175 -0.707039
vn -0.000000 1.000000 -0.000000
vn -0.000000 0.707175 0.707039
vn 0.404693 0.646678 -0.646553
vn 0.404699 0.914450 -0.000004
vn 0.404686 0.646681 0.646555
vn 0.921252 0.275082 -0.274998
vn 0.921262 0.388942 -0.000009
vn 0.921256 0.275077 0.274989
vn 0.000000 1.000000 0.000000
vn 0.992349 -0.123465 0.000017
vn 0.703802 -0.127963 -0.698776
vn 0.003935 -0.138955 -0.990291
vn 0.992349 -0.123465 0.000017
vn 0.574080 0.581663 -0.576281
vn -0.002931 0.576960 -0.816767
vn 0.703790 -0.127961 0.698789
vn 0.003936 -0.138952 0.990291
vn 0.574069 0.581667 0.576288
vn -0.002931 0.576961 0.816767
vn -0.988115 -0.153713 0.000017
vn -0.697779 -0.149371 -0.700566
vn -0.820606 0.571494 0.000014
vn -0.581148 0.573356 -0.577520
vn -0.697766 -0.149368 0.700579
vn -0.581138 0.573360 0.577527
vn -0.000001 0.218956 0.975735
vn -0.686579 0.219606 0.693096
vn -0.969748 0.244100 -0.002192
vn -0.687885 0.220367 -0.691558
vn -0.000000 0.218970 -0.975732
vn 0.689976 0.219166 -0.689855
vn 0.975667 0.219256 0.000000
vn 0.689986 0.219162 0.689846
vn -0.000000 -0.000011 1.000000
vn -0.000000 0.707175 0.707039
vn -0.000000 1.000000 -0.000000
vn -0.000000 0.707175 -0.707039
vn -0.000000 -0.000011 -1.000000
vn 0.000000 -0.707164 -0.707050
vn 0.000000 -1.000000 -0.000000
vn 0.000000 -0.707163 0.707050
vn -0.000000 0.707175 0.707039
vn -0.000000 -0.000011 1.000000
vn 0.000000 -0.707163 0.707050
vn 0.000000 -1.000000 -0.000000
vn 0.000000 -0.707164 -0.707050
vn -0.000000 -0.000011 -1.000000
vn -0.000000 0.707175 -0.707039
vn -0.000000 1.000000 -0.000000
vn 0.000326 0.932481 0.361220
vn 0.666903 0.668724 0.328708
vn 0.943708 -0.000876 0.330779
vn 0.661467 -0.661875 0.352680
vn -0.000290 -0.930804 0.365519
vn -0.666504 -0.668888 0.329182
vn -0.922550 0.001616 0.385873
vn -0.655225 0.654190 0.377778
vn 1.000000 0.000000 0.000000
vn -0.123465 -0.992349 0.000017
vn -0.127962 -0.703805 -0.698773
vn -0.138956 -0.003931 -0.990291
vn -0.123471 -0.992348 0.000017
vn 0.581663 -0.574079 -0.576282
vn 0.576959 0.002925 -0.816768
vn -0.127960 -0.703793 0.698786
vn -0.138953 -0.003931 0.990291
vn 0.581667 -0.574068 0.576289
vn 0.576960 0.002925 0.816767
vn -0.153734 0.988112 0.000017
vn -0.149389 0.697774 -0.700567
vn 0.571505 0.820599 0.000014
vn 0.573344 0.581166 -0.577515
vn -0.149387 0.697762 0.700579
vn 0.573347 0.581155 0.577523
vn -1.000000 0.000000 0.000000
vn 0.123468 0.992348 0.000017
vn 0.127962 0.703821 -0.698758
vn 0.138956 0.003930 -0.990291
vn 0.123492 0.992346 0.000017
vn -0.581661 0.574084 -0.576280
vn -0.576959 -0.002925 -0.816768
vn 0.127960 0.703809 0.698770
vn 0.138953 0.003930 0.990291
vn -0.581665 0.574073 0.576287
vn -0.576960 -0.002925 0.816767
vn 0.153740 -0.988111 0.000017
vn 0.149390 -0.697782 -0.700559
vn -0.571493 -0.820607 0.000014
vn -0.573342 -0.581164 -0.577518
vn 0.149387 -0.697770 0.700571
vn -0.573346 -0.581153 0.577525
g fff01fcf_00006_000252e4_e0
f 1/136/1 4/137/4 78/152/78
f 1/138/1 78/153/78 76/154/76
f 17/43/17 18/45/18 21/48/21
f 205/213/205 258/258/258 206/24/206
f 123/43/123 125/46/125 21/48/21
f 123/43/123 21/48/21 18/45/18
f 225/111/225 215/106/215 214/107/214
f 216/108/216 215/104/215 212/107/212
f 181/215/181 261/216/261 262/266/262
f 181/213/181 182/24/182 261/263/261
f 28/70/28 96/71/96 94/69/94
f 28/70/28 31/72/31 96/71/96
f 49/61/49 141/53/141 143/62/143
f 141/53/141 49/61/49 46/54/46
f 188/96/188 191/100/191 192/99/192
f 59/215/59 65/216/65 64/217/64
f 245/240/245 70/231/70 69/233/69
f 250/245/250 249/244/249 174/231/174
f 189/97/189 190/102/190 200/98/200
f 189/97/189 200/101/200 199/102/199
f 84/40/84 271/278/271 85/42/85
f 17/43/17 21/48/21 20/46/20
f 173/190/173 177/192/177 174/191/174
f 173/193/173 176/195/176 177/194/177
f 218/213/218 219/24/219 252/247/252
f 218/215/218 252/216/252 253/250/253
f 13/41/13 270/277/270 84/40/84
f 13/41/13 14/40/14 268/275/268
f 177/95/177 75/60/75 71/54/71
f 73/62/73 74/94/74 176/53/176
f 186/232/186 192/231/192 191/233/191
f 186/232/186 187/228/187 192/231/192
f 130/70/130 133/71/133 131/69/131
f 130/70/130 132/72/132 133/71/133
f 75/54/75 177/53/177 74/95/74
f 176/94/176 74/95/74 177/53/177
f 1/26/1 5/27/5 4/28/4
f 1/2/1 2/29/2 5/30/5
f 2/3/2 6/7/6 5/6/5
f 2/3/2 3/4/3 6/7/6
f 190/98/190 191/103/191 201/99/201
f 224/110/224 214/105/214 213/106/213
f 210/232/210 215/233/215 216/231/216
f 210/232/210 216/231/216 211/228/211
f 72/61/72 176/93/176 175/94/175
f 72/61/72 73/94/73 176/62/176
f 29/80/29 30/79/30 33/82/33
f 29/80/29 33/82/33 32/81/32
f 167/213/167 171/214/171 168/24/168
f 167/215/167 170/217/170 171/216/171
f 49/61/49 48/62/48 45/53/45
f 45/53/45 46/54/46 49/61/49
f 120/41/120 152/40/152 272/279/272
f 94/80/94 96/81/96 97/82/97
f 76/139/76 78/140/78 79/155/79
f 76/141/76 79/156/79 77/157/77
f 51/17/51 52/18/52 55/21/55
f 55/21/55 54/20/54 51/17/51
f 191/99/191 188/103/188 201/96/201
f 94/80/94 97/82/97 95/79/95
f 215/107/215 225/104/225 212/111/212
f 145/17/145 55/21/55 52/18/52
f 55/21/55 145/17/145 147/20/147
f 69/193/69 75/194/75 74/195/74
f 200/102/200 190/103/190 201/98/201
f 121/40/121 274/281/274 267/274/267
f 157/80/157 95/79/95 97/82/97
f 157/80/157 97/82/97 158/81/158
f 221/232/221 222/228/222 225/231/225
f 221/232/221 225/231/225 224/233/224
f 69/190/69 70/191/70 75/192/75
f 59/213/59 60/24/60 65/214/65
f 127/75/127 27/76/27 24/78/24
f 127/75/127 129/77/129 27/76/27
f 13/41/13 268/275/268 269/276/269
f 120/41/120 274/281/274 121/40/121
f 130/70/130 157/69/157 158/71/158
f 130/70/130 158/71/158 132/72/132
f 112/26/112 149/27/149 114/28/114
f 148/3/148 79/7/79 149/6/149
f 197/232/197 201/231/201 198/228/198
f 197/232/197 200/233/200 201/231/201
f 148/3/148 77/4/77 79/7/79
f 112/2/112 148/29/148 149/30/149
f 224/110/224 225/106/225 214/111/214
f 223/109/223 224/105/224 213/110/213
f 121/40/121 267/274/267 15/42/15
f 245/240/245 244/239/244 70/231/70
f 152/40/152 271/278/271 272/279/272
f 152/40/152 85/42/85 271/278/271
f 28/70/28 29/69/29 32/71/32
f 249/244/249 173/233/173 174/231/174
f 194/213/194 259/261/259 195/24/195
f 28/70/28 32/71/32 31/72/31
f 120/41/120 273/280/273 274/281/274
f 194/213/194 266/214/266 259/261/259
f 113/121/113 6/122/6 3/123/3
f 113/118/113 115/119/115 6/120/6
f 112/115/112 115/116/115 113/117/113
f 112/112/112 114/113/114 115/114/115
f 131/80/131 133/81/133 33/82/33
f 131/80/131 33/82/33 30/79/30
f 14/40/14 267/274/267 268/275/268
f 14/40/14 15/42/15 267/274/267
f 23/75/23 24/78/24 27/76/27
f 205/213/205 257/214/257 258/258/258
f 23/75/23 27/76/27 26/77/26
f 84/40/84 270/277/270 271/278/271
f 120/41/120 272/279/272 273/280/273
f 13/41/13 269/276/269 270/277/270
g fff01fcf_00006_000252e4_e1
f 138/55/138 141/53/141 139/56/139
f 141/53/141 138/55/138 140/54/140
f 45/54/45 44/53/44 41/56/41
f 41/56/41 42/55/42 45/54/45
f 116/36/116 150/39/150 151/37/151
f 116/36/116 151/37/151 118/38/118
f 42/55/42 41/56/41 38/57/38
f 38/57/38 39/58/39 42/55/42
f 136/58/136 139/56/139 137/57/137
f 139/56/139 136/58/136 138/55/138
f 39/58/39 38/57/38 34/59/34
f 34/59/34 35/60/35 39/58/39
f 134/59/134 159/60/159 160/58/160
f 160/58/160 136/57/136 134/59/134
f 116/36/116 118/38/118 119/37/119
f 116/36/116 119/37/119 117/39/117
f 136/57/136 160/58/160 161/55/161
f 161/55/161 138/56/138 136/57/136
f 7/36/7 8/39/8 11/37/11
f 7/36/7 11/37/11 10/38/10
f 138/56/138 161/55/161 162/54/162
f 162/54/162 140/53/140 138/56/138
f 104/54/104 41/56/41 44/53/44
f 41/56/41 104/54/104 102/55/102
f 134/60/134 137/57/137 135/59/135
f 137/57/137 134/60/134 136/58/136
f 102/55/102 38/57/38 41/56/41
f 38/57/38 102/55/102 100/58/100
f 7/36/7 10/38/10 82/37/82
f 7/36/7 82/37/82 80/39/80
f 100/58/100 34/59/34 38/57/38
f 34/59/34 100/58/100 98/60/98
g fff01fcf_00006_000252e4_e2
f 122/44/122 125/46/125 123/43/123
f 301/20/301 293/16/293 296/19/296
f 122/44/122 153/43/153 154/46/154
f 165/20/165 146/19/146 144/16/144
f 144/16/144 164/17/164 165/20/165
f 54/20/54 53/19/53 50/16/50
f 50/16/50 51/17/51 54/20/54
f 293/16/293 301/20/301 299/17/299
f 122/44/122 154/46/154 124/47/124
f 122/44/122 124/47/124 125/46/125
f 16/44/16 20/46/20 19/47/19
f 16/44/16 17/43/17 20/46/20
f 303/16/303 307/17/307 308/20/308
f 308/20/308 305/19/305 303/16/303
f 16/44/16 19/47/19 88/46/88
f 16/44/16 88/46/88 86/43/86
f 144/16/144 147/20/147 145/17/145
f 50/16/50 110/20/110 108/17/108
f 163/50/163 142/49/142 140/53/140
f 126/65/126 129/66/129 127/68/127
f 22/65/22 25/67/25 92/66/92
f 22/65/22 92/66/92 90/68/90
f 235/20/235 227/16/227 230/19/230
f 106/50/106 44/53/44 47/49/47
f 286/16/286 290/17/290 291/20/291
f 276/16/276 284/20/284 282/17/282
f 143/50/143 140/53/140 142/49/142
f 140/53/140 143/50/143 141/54/141
f 44/53/44 45/54/45 48/50/48
f 140/53/140 162/54/162 163/50/163
f 284/20/284 276/16/276 279/19/279
f 48/50/48 47/49/47 44/53/44
f 291/20/291 288/19/288 286/16/286
f 22/65/22 23/68/23 26/66/26
f 22/65/22 26/66/26 25/67/25
f 126/65/126 128/67/128 129/66/129
f 242/20/242 239/19/239 237/16/237
f 44/53/44 106/50/106 104/54/104
f 126/65/126 155/68/155 156/66/156
f 227/16/227 235/20/235 233/17/233
f 237/16/237 241/17/241 242/20/242
f 110/20/110 50/16/50 53/19/53
f 147/20/147 144/16/144 146/19/146
f 126/65/126 156/66/156 128/67/128
f 226/1/226 231/20/231 232/21/232
f 292/1/292 308/20/308 302/21/302
f 292/1/292 305/19/305 308/20/308
f 275/1/275 289/20/289 288/19/288
f 275/1/275 281/21/281 289/20/289
f 292/1/292 298/21/298 306/20/306
f 292/1/292 306/20/306 305/19/305
f 275/1/275 288/19/288 291/20/291
f 275/1/275 291/20/291 285/21/285
f 275/1/275 285/21/285 284/20/284
f 275/1/275 280/20/280 281/21/281
f 292/1/292 302/21/302 301/20/301
f 292/1/292 297/20/297 298/21/298
f 226/1/226 236/21/236 235/20/235
f 226/1/226 240/20/240 239/19/239
f 226/1/226 232/21/232 240/20/240
f 226/1/226 239/19/239 242/20/242
f 226/1/226 242/20/242 236/21/236
g fff01fcf_00006_000252e4_e3
f 274/281/274 123/43/123 18/45/18
f 273/280/273 122/44/122 123/43/123
f 273/280/273 153/43/153 122/44/122
f 273/280/273 272/279/272 153/43/153
f 272/279/272 87/45/87 153/43/153
f 272/279/272 271/278/271 87/45/87
f 270/277/270 86/43/86 87/45/87
f 269/276/269 16/44/16 86/43/86
f 269/276/269 17/43/17 16/44/16
f 268/275/268 18/45/18 17/43/17
f 269/276/269 268/275/268 17/43/17
f 268/275/268 267/274/267 18/45/18
f 274/281/274 273/280/273 123/43/123
f 267/274/267 274/281/274 18/45/18
f 271/278/271 270/277/270 87/45/87
f 270/277/270 269/276/269 86/43/86
f 132/92/132 159/73/159 134/74/134
f 132/89/132 158/90/158 159/91/159
f 158/88/158 99/83/99 159/84/159
f 158/85/158 97/86/97 99/87/99
f 133/178/133 36/179/36 33/180/33
f 133/181/133 135/182/135 36/183/36
f 32/85/32 33/86/33 36/87/36
f 32/88/32 36/83/36 35/84/35
f 31/89/31 32/90/32 35/91/35
f 31/92/31 35/73/35 34/74/34
f 132/163/132 134/164/134 135/165/135
f 132/160/132 135/161/135 133/162/133
f 96/166/96 99/169/99 97/170/97
f 96/167/96 98/168/98 99/171/99
f 31/172/31 98/173/98 96/174/96
f 31/175/31 34/176/34 98/177/98
f 47/49/47 48/50/48 51/51/51
f 51/51/51 50/52/50 47/49/47
f 48/62/48 49/61/49 52/63/52
f 52/63/52 51/64/51 48/62/48
f 129/77/129 30/79/30 27/76/27
f 129/77/129 131/80/131 30/79/30
f 128/67/128 131/69/131 129/66/129
f 128/67/128 130/70/130 131/69/131
f 156/77/156 93/76/93 95/79/95
f 156/77/156 95/79/95 157/80/157
f 128/67/128 156/66/156 157/69/157
f 128/67/128 157/69/157 130/70/130
f 164/51/164 144/52/144 142/49/142
f 142/49/142 163/50/163 164/51/164
f 25/67/25 29/69/29 28/70/28
f 25/67/25 26/66/26 29/69/29
f 26/77/26 30/79/30 29/80/29
f 26/77/26 27/76/27 30/79/30
f 47/49/47 108/51/108 106/50/106
f 108/51/108 47/49/47 50/52/50
f 106/62/106 109/63/109 107/61/107
f 109/63/109 106/62/106 108/64/108
f 109/63/109 164/64/164 163/62/163
f 163/62/163 107/61/107 109/63/109
f 25/67/25 28/70/28 94/69/94
f 25/67/25 94/69/94 92/66/92
f 92/77/92 94/80/94 95/79/95
f 92/77/92 95/79/95 93/76/93
f 142/49/142 145/51/145 143/50/143
f 145/51/145 142/49/142 144/52/144
f 143/62/143 52/63/52 49/61/49
f 52/63/52 143/62/143 145/64/145
f 37/1/37 53/19/53 54/20/54
f 37/1/37 54/20/54 55/21/55
f 37/1/37 165/20/165 111/21/111
f 37/1/37 110/20/110 53/19/53
f 37/1/37 111/21/111 110/20/110
f 37/1/37 55/21/55 147/20/147
f 182/210/182 260/211/260 261/264/261
f 182/208/182 178/25/178 260/262/260
f 168/208/168 61/209/61 56/25/56
f 168/210/168 171/212/171 61/211/61
f 195/208/195 260/262/260 178/25/178
f 195/208/195 259/209/259 260/262/260
f 206/208/206 258/209/258 251/246/251
f 219/210/219 251/211/251 252/248/252
f 219/208/219 202/25/202 251/246/251
f 206/208/206 251/246/251 202/25/202
f 60/208/60 56/25/56 61/209/61
f 60/210/60 61/211/61 65/212/65
f 236/21/236 233/17/233 235/20/235
f 233/17/233 236/21/236 234/18/234
f 236/21/236 242/20/242 241/17/241
f 241/17/241 234/18/234 236/21/236
f 290/17/290 283/18/283 285/21/285
f 285/21/285 282/17/282 284/20/284
f 282/17/282 285/21/285 283/18/283
f 285/21/285 291/20/291 290/17/290
f 307/17/307 300/18/300 302/21/302
f 302/21/302 308/20/308 307/17/307
f 299/17/299 302/21/302 300/18/300
f 302/21/302 299/17/299 301/20/301
f 187/228/187 188/230/188 192/231/192
f 187/228/187 183/229/183 188/230/188
f 211/228/211 212/230/212 207/229/207
f 211/228/211 216/231/216 212/230/212
f 198/228/198 188/230/188 183/229/183
f 198/228/198 201/231/201 188/230/188
f 244/239/244 243/238/243 66/230/66
f 222/228/222 212/230/212 225/231/225
f 222/228/222 207/229/207 212/230/212
f 244/239/244 66/230/66 70/231/70
f 250/245/250 174/231/174 66/230/66
f 243/238/243 250/245/250 66/230/66
f 174/184/174 71/186/71 66/185/66
f 174/187/174 177/189/177 71/188/71
f 70/184/70 66/185/66 71/186/71
f 70/187/70 71/188/71 75/189/75
f 115/133/115 9/134/9 6/135/6
f 115/130/115 117/131/117 9/132/9
f 114/31/114 150/32/150 116/33/116
f 114/5/114 149/34/149 150/35/150
f 114/127/114 117/128/117 115/129/115
f 114/124/114 116/125/116 117/126/117
f 4/31/4 8/32/8 7/33/7
f 4/5/4 5/34/5 8/35/8
f 5/6/5 9/9/9 8/8/8
f 5/6/5 6/7/6 9/9/9
f 78/150/78 81/151/81 79/159/79
f 78/147/78 80/148/80 81/149/81
f 4/145/4 80/146/80 78/158/78
f 149/6/149 79/7/79 81/9/81
f 149/6/149 81/9/81 150/8/150
f 4/142/4 7/143/7 80/144/80
g fff01fcf_00006_000252e4_e4
f 108/17/108 111/21/111 109/18/109
f 111/21/111 108/17/108 110/20/110
f 111/21/111 165/20/165 164/17/164
f 164/17/164 109/18/109 111/21/111
f 90/75/90 92/77/92 93/76/93
f 90/75/90 93/76/93 91/78/91
f 155/75/155 93/76/93 156/77/156
f 155/75/155 91/78/91 93/76/93
f 104/53/104 107/61/107 105/54/105
f 107/61/107 104/53/104 106/62/106
f 107/61/107 163/62/163 162/53/162
f 162/53/162 105/54/105 107/61/107
f 153/43/153 89/48/89 154/46/154
f 153/43/153 87/45/87 89/48/89
f 86/43/86 89/48/89 87/45/87
f 86/43/86 88/46/88 89/48/89
f 180/220/180 262/221/262 263/268/263
f 180/218/180 181/23/181 262/265/262
f 166/218/166 170/219/170 167/23/167
f 166/220/166 169/222/169 170/221/170
f 193/218/193 265/219/265 266/273/266
f 193/218/193 266/273/266 194/23/194
f 204/218/204 256/219/256 257/256/257
f 217/220/217 253/221/253 254/252/254
f 217/218/217 218/23/218 253/249/253
f 204/218/204 257/256/257 205/23/205
f 58/220/58 64/221/64 63/222/63
f 58/218/58 59/23/59 64/219/64
f 293/16/293 294/17/294 297/20/297
f 297/20/297 296/19/296 293/16/293
f 303/16/303 306/20/306 304/17/304
f 306/20/306 303/16/303 305/19/305
f 240/20/240 237/16/237 239/19/239
f 237/16/237 240/20/240 238/17/238
f 231/20/231 230/19/230 227/16/227
f 227/16/227 228/17/228 231/20/231
f 289/20/289 286/16/286 288/19/288
f 286/16/286 289/20/289 287/17/287
f 280/20/280 279/19/279 276/16/276
f 276/16/276 277/17/277 280/20/280
f 185/234/185 191/233/191 190/235/190
f 185/234/185 186/232/186 191/233/191
f 209/234/209 214/235/214 215/233/215
f 209/234/209 215/233/215 210/232/210
f 220/234/220 221/232/221 224/233/224
f 220/234/220 224/233/224 223/235/223
f 249/244/249 248/243/248 173/233/173
f 196/234/196 200/233/200 197/232/197
f 196/234/196 199/235/199 200/233/200
f 248/243/248 172/235/172 173/233/173
f 246/241/246 69/233/69 68/235/68
f 246/241/246 245/240/245 69/233/69
f 172/199/172 175/201/175 176/200/176
f 172/196/172 176/198/176 173/197/173
f 68/196/68 69/197/69 74/198/74
f 68/199/68 74/200/74 73/201/73
g fff01fcf_00006_000252e4_e5
f 154/11/154 89/12/89 91/15/91
f 154/11/154 91/15/91 155/14/155
f 124/10/124 154/11/154 155/14/155
f 124/10/124 155/14/155 126/13/126
f 19/10/19 23/14/23 22/13/22
f 19/10/19 20/11/20 23/14/23
f 20/11/20 24/15/24 23/14/23
f 20/11/20 21/12/21 24/15/24
f 19/10/19 22/13/22 90/14/90
f 19/10/19 90/14/90 88/11/88
f 88/11/88 90/14/90 91/15/91
f 88/11/88 91/15/91 89/12/89
f 124/10/124 126/13/126 127/14/127
f 124/10/124 127/14/127 125/11/125
f 125/11/125 127/14/127 24/15/24
f 125/11/125 24/15/24 21/12/21
f 10/38/10 14/40/14 13/41/13
f 10/38/10 11/37/11 14/40/14
f 11/37/11 15/42/15 14/40/14
f 11/37/11 12/38/12 15/42/15
f 151/37/151 83/38/83 85/42/85
f 151/37/151 85/42/85 152/40/152
f 118/38/118 151/37/151 152/40/152
f 118/38/118 152/40/152 120/41/120
f 10/38/10 13/41/13 84/40/84
f 10/38/10 84/40/84 82/37/82
f 82/37/82 84/40/84 85/42/85
f 82/37/82 85/42/85 83/38/83
f 118/38/118 120/41/120 121/40/121
f 118/38/118 121/40/121 119/37/119
f 119/37/119 121/40/121 15/42/15
f 119/37/119 15/42/15 12/38/12
f 228/17/228 229/18/229 232/21/232
f 232/21/232 231/20/231 228/17/228
f 238/17/238 232/21/232 229/18/229
f 232/21/232 238/17/238 240/20/240
f 281/21/281 287/17/287 289/20/289
f 281/21/281 280/20/280 277/17/277
f 277/17/277 278/18/278 281/21/281
f 287/17/287 281/21/281 278/18/278
f 294/17/294 295/18/295 298/21/298
f 298/21/298 297/20/297 294/17/294
f 298/21/298 304/17/304 306/20/306
f 304/17/304 298/21/298 295/18/295
f 179/225/179 263/226/263 264/269/264
f 179/223/179 180/22/180 263/267/263
f 57/223/57 169/224/169 166/22/166
f 57/225/57 62/227/62 169/226/169
f 203/223/203 256/254/256 204/22/204
f 179/223/179 264/224/264 265/271/265
f 179/223/179 265/271/265 193/22/193
f 203/225/203 254/226/254 255/253/255
f 203/223/203 217/22/217 254/251/254
f 203/223/203 255/224/255 256/254/256
f 57/223/57 58/22/58 63/224/63
f 57/225/57 63/226/63 62/227/62
f 256/225/256 255/253/255 209/226/209
f 257/220/257 256/255/256 210/221/210
f 258/215/258 257/257/257 211/216/211
f 251/210/251 258/259/258 207/211/207
f 252/208/252 251/246/251 207/209/207
f 253/213/253 252/247/252 222/214/222
f 252/248/252 207/211/207 222/212/222
f 254/218/254 253/249/253 221/219/221
f 253/250/253 222/216/222 221/217/221
f 255/223/255 254/251/254 220/224/220
f 254/252/254 221/221/221 220/222/220
f 255/253/255 208/227/208 209/226/209
f 255/253/255 220/226/220 208/227/208
f 256/255/256 209/222/209 210/221/210
f 257/257/257 210/217/210 211/216/211
f 258/259/258 211/212/211 207/211/207
f 260/210/260 259/260/259 183/211/183
f 259/215/259 266/272/266 198/216/198
f 266/220/266 265/270/265 197/221/197
f 265/225/265 264/269/264 196/226/196
f 65/228/65 61/229/61 243/238/243
f 65/228/65 243/238/243 244/239/244
f 64/232/64 65/228/65 244/239/244
f 64/232/64 244/239/244 245/240/245
f 63/234/63 64/232/64 245/240/245
f 63/234/63 245/240/245 246/241/246
f 62/236/62 63/234/63 246/241/246
f 62/236/62 246/241/246 247/242/247
f 171/228/171 243/238/243 61/229/61
f 170/232/170 250/245/250 171/228/171
f 62/236/62 248/243/248 169/234/169
f 169/234/169 249/244/249 170/232/170
f 171/228/171 250/245/250 243/238/243
f 62/236/62 247/242/247 248/243/248
f 169/234/169 248/243/248 249/244/249
f 170/232/170 249/244/249 250/245/250
f 266/272/266 197/217/197 198/216/198
f 265/270/265 196/222/196 197/221/197
f 264/269/264 184/227/184 196/226/196
f 264/269/264 185/226/185 184/227/184
f 263/268/263 186/221/186 185/222/185
f 264/223/264 263/267/263 185/224/185
f 262/266/262 187/216/187 186/217/186
f 263/218/263 262/265/262 186/219/186
f 261/264/261 183/211/183 187/212/187
f 262/213/262 261/263/261 187/214/187
f 259/260/259 198/212/198 183/211/183
f 261/208/261 260/262/260 183/209/183
f 208/236/208 214/235/214 209/234/209
f 208/236/208 213/237/213 214/235/214
f 184/236/184 190/235/190 189/237/189
f 184/236/184 185/234/185 190/235/190
f 184/236/184 199/235/199 196/234/196
f 184/236/184 189/237/189 199/235/199
f 208/236/208 223/235/223 213/237/213
f 208/236/208 220/234/220 223/235/223
f 248/243/248 247/242/247 172/235/172
f 247/242/247 67/237/67 172/235/172
f 247/242/247 68/235/68 67/237/67
f 247/242/247 246/241/246 68/235/68
f 67/205/67 72/207/72 175/206/175
f 67/202/67 175/204/175 172/203/172
f 67/202/67 68/203/68 73/204/73
f 67/205/67 73/206/73 72/207/72
g fff01fcf_00006_000252e4_e6
f 46/54/46 45/53/45 42/56/42
f 42/56/42 43/55/43 46/54/46
f 43/55/43 42/56/42 39/57/39
f 39/57/39 40/58/40 43/55/43
f 40/58/40 39/57/39 35/59/35
f 35/59/35 36/60/36 40/58/40
f 46/53/46 139/55/139 141/54/141
f 139/55/139 46/53/46 43/56/43
f 43/56/43 137/58/137 139/55/139
f 137/58/137 43/56/43 40/57/40
f 40/57/40 135/60/135 137/58/137
f 135/60/135 40/57/40 36/59/36
f 117/39/117 12/38/12 9/36/9
f 117/39/117 119/37/119 12/38/12
f 8/39/8 9/36/9 12/38/12
f 8/39/8 12/38/12 11/37/11
g fff01fcf_00006_000252e4_e7
f 159/59/159 99/60/99 101/58/101
f 101/58/101 160/57/160 159/59/159
f 160/57/160 101/58/101 103/55/103
f 103/55/103 161/56/161 160/57/160
f 105/54/105 102/56/102 104/53/104
f 102/56/102 105/54/105 103/55/103
f 103/55/103 100/57/100 102/56/102
f 100/57/100 103/55/103 101/58/101
f 101/58/101 98/59/98 100/57/100
f 98/59/98 101/58/101 99/60/99
f 105/54/105 162/53/162 161/56/161
f 161/56/161 103/55/103 105/54/105
f 150/39/150 81/36/81 83/38/83
f 150/39/150 83/38/83 151/37/151
f 80/39/80 82/37/82 83/38/83
f 80/39/80 83/38/83 81/36/81
