# fff0af20_00416_00a870fd
o fff0af20_00416_00a870fd
v -44.953812 -23.289740 1.849915
v -43.636131 -23.270422 1.879592
v -44.953186 -23.429316 1.104935
v -45.644630 -29.729959 27.004026
v -45.200325 -26.676691 1.504626
v -42.807297 -27.535349 26.940628
v -45.600533 -27.576956 26.957504
v -45.172081 -25.777124 1.564271
v -43.442451 -25.735525 1.547397
v -43.466190 -3.061727 0.797978
v -60.687233 -8.839155 0.714092
v -60.592876 -14.023888 0.715184
v -60.592876 -14.023888 0.565088
v -60.592869 -14.421973 0.562904
v -60.592869 -14.421973 0.714092
v -27.270985 -20.454350 0.348532
v -44.994026 -2.746024 0.775076
v -44.995918 -2.340994 -0.915771
v -45.003502 -2.340994 -5.095474
v -43.482246 -1.423392 -5.095474
v -45.003494 -1.423392 -5.095474
v -44.945786 -20.182234 0.721174
v -44.955215 -20.289148 0.288442
v -44.991768 -26.982729 4.583133
v -44.953812 -23.289740 1.849915
v -44.970032 -26.083158 4.642777
v -45.001045 -20.354273 -5.000092
v -45.001045 -20.354273 -2.106333
v -45.000534 -20.435282 0.331092
v -45.000549 -18.966436 -2.083722
v -45.000549 -18.966436 -5.000092
v -44.995682 -20.435282 0.826642
v -43.475471 -20.435282 0.870492
v -50.087906 -1.675441 0.670135
v -50.038609 -1.675421 0.525976
v -50.093151 -1.916713 0.560419
v -50.142811 -1.916733 0.670135
v -60.687195 -8.442951 0.715184
v -60.687195 -8.442951 0.425812
v -60.687233 -8.839155 0.425812
v -44.994865 -1.423392 0.775070
v -43.473663 -2.343454 -5.095474
v -43.461735 -2.345892 -0.915771
v -43.473663 -1.423392 0.775070
v -27.397583 -26.046129 4.625903
v -28.728592 -26.087729 4.642777
v -28.750328 -26.987299 4.583133
v -28.711746 -23.433886 1.104935
v -28.712372 -23.294310 1.849915
v -28.713776 -20.293718 0.288442
v -28.704346 -20.186804 0.689893
v -28.712372 -23.294310 1.849915
v -27.394691 -23.274992 1.879592
v -43.628075 -20.213717 0.765024
v -44.945786 -20.182234 0.721174
v -43.639023 -26.041559 4.625903
v -44.970032 -26.083158 4.642777
v -50.057579 14.023917 0.560089
v -43.470200 -18.968380 -2.083722
v -43.470200 -18.968380 -5.000092
v -49.913380 -20.081070 0.627198
v -68.716431 -20.294319 2.488237
v -68.704247 -3.114317 2.504174
v -77.281654 -14.419469 4.449734
v -69.216415 -3.114309 2.606165
v -50.524860 -20.081070 0.627198
v -50.524860 -20.081070 0.346182
v -69.228584 -20.294254 2.590259
v -69.265205 -20.294483 2.310794
v -69.250610 -3.114371 2.342798
v -50.439667 14.023917 0.295291
v -50.439667 14.023917 0.560089
v -43.470947 -20.437740 0.348654
v -28.728592 -26.087729 4.642777
v -28.704346 -20.186804 0.689893
v -27.386635 -20.218287 0.733743
v -77.299728 -8.446194 4.450826
v -77.339203 -8.842138 4.298546
v -77.299667 -8.842422 4.450821
v -77.281662 -14.021385 4.450826
v -77.237473 -19.985394 4.433196
v -77.339272 -14.419081 4.298546
v -77.237473 -20.325272 4.411924
v -77.339279 -14.020997 4.300730
v -60.886711 -19.988022 0.821746
v -77.340279 -19.965679 4.266099
v -60.886711 -19.968739 0.559190
v -77.339172 -8.445934 4.300730
v -77.340279 -20.305420 4.243740
v -60.886711 -20.327900 0.841505
v -60.886711 -20.308479 0.519222
v -50.232658 14.118473 0.504964
v -60.674431 -8.841272 0.756714
v -77.373375 -2.988914 4.450826
v -60.920895 -2.992533 0.810643
v -77.373375 -2.988914 4.300730
v -60.920895 -3.224115 -0.517998
v -60.920895 -2.992531 0.660547
v -60.886711 -14.425884 0.809551
v -60.886711 -14.425881 0.658363
v -77.373375 -3.220497 3.122185
v -77.373375 -3.220497 4.449734
v -60.920895 -3.224115 0.809551
v -60.886719 -14.027802 0.810643
v -60.886719 -14.027799 0.660547
v -60.886597 -8.450256 0.790924
v -60.886696 -8.449552 0.685160
v -77.376869 14.119466 4.347859
v -77.373375 -2.988914 4.347859
v -60.920895 -2.992533 0.714314
v -60.924400 14.119467 0.714314
v -50.228931 -1.767825 0.505666
v -68.716431 -20.294319 2.326797
v -36.302086 -20.008688 0.392597
v -36.296886 -4.366815 0.422088
v -28.790428 -20.454782 0.331092
v -28.785572 -20.454782 0.826642
v -27.265366 -20.454782 0.870492
v -45.000534 -20.435282 0.331092
v -44.995682 -20.435282 0.826642
v -43.475471 -20.435282 0.870492
v -35.621830 -20.008688 0.407349
v -35.621830 -20.008688 0.673612
v -35.616711 -4.366815 0.686886
v -35.616711 -4.366815 0.407349
v -49.913380 -20.081070 0.335175
v -49.900120 -2.123428 0.335175
v -68.704247 -3.114317 2.326797
v -33.082649 -4.940907 0.716130
v -33.082649 -4.940910 0.566034
v -36.296886 -4.366815 0.686886
v -36.302086 -20.008688 0.673612
v -27.231396 -26.637787 1.547397
v -27.395123 -26.341375 3.983951
v -27.392231 -23.570238 1.237639
v -27.384174 -20.513533 0.091791
v -50.061386 -1.596000 0.591852
v -50.252007 -1.933737 0.670135
v -50.203510 -1.933539 -0.650541
v -50.226978 -1.705227 0.528296
v -50.275124 -1.705439 0.670135
v -50.443474 -1.643015 0.319449
v -33.082649 -5.172491 0.715038
v -33.082649 -5.172494 0.563850
v -50.443459 -1.610927 0.591882
v -59.371647 -26.652603 1.583316
v -58.736492 -28.452429 26.976547
v -43.442017 -26.696489 1.547397
v -42.806862 -28.496313 26.940628
v -26.596241 -28.437611 26.940628
v -59.569469 -26.563782 3.748569
v -59.566578 -23.792645 1.002257
v -59.558521 -20.735939 -0.112311
v -43.626865 -20.681379 0.126047
v -43.634922 -23.738085 1.240615
v -43.637814 -26.509222 3.986926
v -61.576752 -29.730181 27.039946
v -61.132454 -26.676914 1.540545
v -60.885315 -23.429537 1.140855
v -60.885933 -23.289961 1.885834
v -59.568260 -23.270645 1.915511
v -61.104202 -25.777346 1.600190
v -59.374580 -25.735746 1.583316
v -58.739426 -27.535572 26.976547
v -61.532661 -27.577177 26.993423
v -49.900120 -2.123428 0.592861
v -50.494354 -2.133115 0.592880
v -50.511658 -2.163313 0.324165
v -60.902161 -26.083382 4.678697
v -60.923897 -26.982950 4.619052
v -60.885933 -23.289961 1.885834
v -60.887344 -20.289370 0.324361
v -60.877907 -20.182457 0.757093
v -59.410065 -20.356350 -4.964203
v -59.410065 -20.356350 -2.070445
v -59.405891 -5.502554 -0.879883
v -43.466938 -20.359192 -5.000092
v -43.466938 -20.359192 -2.106333
v -27.277113 -20.372910 -5.000336
v -27.277113 -20.372910 -2.106578
v -60.933167 -20.354494 -4.964172
v -60.933167 -20.354494 -2.070414
v -60.928993 -5.500699 -0.879852
v -60.932678 -18.966660 -4.964172
v -59.407829 -18.967070 -2.047818
v -60.932678 -18.966660 -2.047802
v -60.927101 -5.500699 0.810995
v -59.405201 -5.501627 0.833881
v -43.469387 -1.428311 -5.095474
v -43.460758 -1.428311 0.775070
v -27.279568 -1.442030 -5.095718
v -27.270935 -1.442030 0.774826
v -60.932663 -20.435503 0.367011
v -60.927803 -20.435503 0.862562
v -59.407600 -20.435503 0.906412
v -59.571152 -26.041782 4.661822
v -60.902161 -26.083382 4.678697
v -60.877907 -20.182457 0.757093
v -59.560204 -20.213940 0.800943
v -27.271605 -5.730684 -1.152815
v -59.404091 14.202257 0.810965
v -59.408005 -2.810811 -0.879883
v -28.786732 -5.664779 -1.147900
v -28.784916 -5.467827 0.707251
v -60.931107 -2.808956 -0.879852
v -59.407829 -18.967070 -4.964188
v -59.407314 -2.809883 0.833881
v -60.927193 14.204112 0.810995
v -59.406494 14.204112 0.856798
v -60.929214 -2.808956 0.810995
v -28.784174 -5.459822 0.782930
v -27.267334 -5.531156 0.727595
v -27.266457 -5.522529 0.809178
v -60.785820 -8.840340 0.610845
v -59.408581 -20.436432 0.384558
v -28.018831 -14.420393 0.528174
v -28.065487 -19.958366 0.523768
v -28.068573 -20.305462 0.544764
v -27.938988 -4.915105 0.565901
v -27.940916 -5.146697 0.563717
v -27.940170 -4.915121 0.715997
v -28.016678 -14.022306 0.680452
v -28.020035 -14.420393 0.679364
v -28.070751 -20.317524 0.806089
v -27.942116 -5.146713 0.714905
v -28.067806 -19.977669 0.795524
v -27.967278 -8.432623 0.394048
v -27.970615 -8.828828 0.394051
v -28.015493 -14.022306 0.530355
v -27.969566 -8.432625 0.683423
v -27.972904 -8.828829 0.682334
v -29.434521 -29.749460 27.004026
v -28.990219 -26.696192 1.504626
v -26.597191 -27.554850 26.940628
v -29.390427 -27.596457 26.957504
v -28.961971 -25.796625 1.564271
v -27.232346 -25.755026 1.547397
v -28.793394 -2.360496 -5.095474
v -27.272142 -1.442893 -5.095474
v -28.793390 -1.442893 -5.095474
v -28.790936 -20.373774 -5.000092
v -28.790936 -20.373774 -2.106333
v -28.790428 -20.454782 0.331092
v -27.270233 -18.984989 -2.083844
v -28.790443 -18.985937 -2.083722
v -28.790443 -18.985937 -5.000092
v -27.270233 -18.984989 -5.000214
v -28.785572 -20.454782 0.826642
v -27.265366 -20.454782 0.870492
v -27.266659 -2.765093 0.797855
v -28.783922 -2.765525 0.775076
v -28.784758 -1.442893 0.775070
v -27.273697 -2.360064 -5.095596
v -28.785810 -2.360496 -0.915771
v -27.271954 -2.359568 -0.916016
v -27.263556 -1.442893 0.775070
vt -693464.187500 -1821401.625000
vt 2.500307 -4.961646
vt 106.714172 -372.526672
vt -58.526852 210.872620
vt 172.406952 -604.514160
vt -9.855408 38.332245
vt 0.983578 0.509389
vt 0.995843 0.501905
vt 0.976210 0.517820
vt 0.967857 0.520896
vt 561.298767 1398.580566
vt 0.968100 0.520779
vt 0.961717 0.525126
vt 0.961469 0.525247
vt 0.971328 0.518569
vt 0.987150 0.505490
vt 0.981299 0.510059
vt 0.980135 0.512045
vt 0.973453 0.519939
vt 0.979538 0.512144
vt 0.996081 0.501792
vt -816.561646 -8142.445801
vt -107.158012 382.883118
vt -1256640.625000 -3300595.250000
vt -159512480.000000 -414031872.000000
vt 4419225.000000 11589744.000000
vt -690585.937500 -1813841.875000
vt -58.278187 209.993088
vt -3578625.000000 -9259244.000000
vt 0.971130 0.518655
vt 0.983559 0.509409
vt 0.971080 0.518689
vt -3465339.250000 -8966000.000000
vt -2.630194 -90.264809
vt 3.880980 -97.102234
vt 0.971377 0.518535
vt 0.980129 0.512055
vt 1.149360 1.448054
vt 20.494455 -67.969208
vt 3.926446 70.997101
vt -11.205965 -136.933258
vt 0.789702 0.530682
vt 0.985653 0.506836
vt -30.542585 1.207414
vt -77.423744 2.225367
vt 12.868467 -41.258854
vt 1.090677 -0.002915
vt 12.906190 -41.390980
vt 1.089519 0.001173
vt 0.963355 0.524020
vt 0.979363 0.512635
vt 0.983070 0.509771
vt 0.979802 0.511405
vt 0.971253 0.518626
vt 0.971214 0.518653
vt 0.970974 0.518768
vt 0.963107 0.524140
vt 0.979365 0.512629
vt 0.983082 0.509757
vt 1.091794 -0.006859
vt 12.832876 -41.134186
vt 0.983058 0.509784
vt 0.979361 0.512641
vt 0.971011 0.518742
vt 0.971290 0.518601
vt 0.971048 0.518717
vt 1.335464 -0.867532
vt 4.869367 -13.241712
vt 0.979357 0.513043
vt 0.979531 0.512973
vt 0.966441 0.521863
vt 0.980340 0.512872
vt 0.978903 0.513925
vt 173.625275 -608.774841
vt 124.112976 -433.928162
vt 0.966689 0.521743
vt 0.978960 0.513314
vt 0.979617 0.511924
vt 0.984563 0.508074
vt 1149330.875000 3004679.500000
vt -12.165806 0.810986
vt -14.313054 0.858106
vt 1124911.250000 2940969.500000
vt 10.886105 -0.323840
vt 18.070210 1.108889
vt 0.799154 -93.865982
vt 1.323793 -0.826309
vt 5.236205 -14.526534
vt 0.701305 -93.763229
vt 0.978924 0.513866
vt 0.980465 0.512730
vt 0.979136 0.513243
vt 11.791147 5.030915
vt -5.352616 -71.374969
vt 41320.316406 -893.144165
vt 41352.308594 -893.838745
vt 14.534558 -0.019404
vt 14.524698 1.005163
vt 1.309168 1.096716
vt 1.281503 -0.112483
vt 10.911629 1.111362
vt 11.491104 4.929897
vt -5.275648 -71.909027
vt 12.036951 2.969203
vt -89260.328125 -620002.937500
vt -43749.007812 -305407.093750
vt 0.963857 -5.814272
vt 1.123741 2.638090
vt 1.187474 -6.004185
vt 1.579528 2.506505
vt 18.080873 -0.185820
vt 10.920708 1.024719
vt 11.544994 -0.327046
vt 18.094057 1.290853
vt 10.824641 -1.843617
vt 10.903885 1.019200
vt 11.536206 -0.326428
vt 11.535920 -0.326408
vt 11.472028 -1.791211
vt 11.472352 -1.899487
vt -43761.929688 -305496.281250
vt -45158.937500 -315168.000000
vt 1.159322 1.047229
vt 1.302061 1.112347
vt 1.293189 -0.097742
vt 14.542199 -0.007924
vt 14.551066 1.202164
vt 19.123903 1.241228
vt 19.299358 -0.424700
vt 10.903622 1.018453
vt 11.531344 -0.379621
vt 19.385653 -0.361483
vt 27.644888 0.004904
vt 19.398836 1.115200
vt -466.459808 -1384.135010
vt -439.960114 2947.881592
vt -1469.136841 -4110.245117
vt 562.815430 5673.719238
vt 0.145215 1.048603
vt 0.145215 1.681140
vt 0.145215 1.681140
vt -0.308180 1.816335
vt 1.159322 1.799629
vt 1.159322 1.673429
vt 2.208235 1.798964
vt 2.255388 1.669614
vt 1.159322 1.673429
vt 2.255388 1.669614
vt 2.255388 1.043400
vt 0.142218 1.060781
vt 1.169624 1.059553
vt 1.166278 1.671047
vt 0.135012 1.675987
vt 1.165818 1.792015
vt 2.257900 1.056135
vt 2.263354 1.668604
vt 2.208836 1.792633
vt -0.316403 1.803764
vt -4.643722 20.051445
vt -4.640809 5.393749
vt 18.043125 20.050575
vt 9.110003 5.390645
vt 9.107077 20.051445
vt 18.046234 6.439929
vt -9523.921875 -24778.638672
vt -40419.992188 -296826.718750
vt -2.630598 -90.264381
vt 0.700974 -93.763069
vt -41654.089844 -300014.781250
vt -10.256763 -110.401634
vt -3.745994 -117.240128
vt -39995.601562 -295733.343750
vt -159522560.000000 -414058016.000000
vt 1.257478 0.487980
vt 0.149428 1.048805
vt 1.159197 1.047642
vt 2.255263 1.043814
vt 2.256031 1.056352
vt 1.170723 1.059669
vt 0.143317 1.060896
vt 0.144782 1.060827
vt 1.171509 1.059672
vt 2.259785 1.056253
vt 1.327265 1.870301
vt 1.062019 0.487980
vt 1.131806 1.870374
vt 17.724247 -0.415559
vt 17.838501 1.206393
vt 16.979868 1.109266
vt 16.975445 1.095188
vt 17.755476 -0.415741
vt 17.868130 1.207196
vt -3047151.000000 -7943378.500000
vt -2929719.500000 -7610233.500000
vt -2931988.250000 -7616003.000000
vt 0.979918 0.512128
vt 0.984100 0.508600
vn -0.026862 0.537283 0.842974
vn 0.749746 0.353950 0.559106
vn -0.999998 0.002164 -0.000201
vn -0.999673 0.020439 -0.015393
vn -0.999387 0.032276 -0.013549
vn 0.721998 0.691203 0.030932
vn -0.729953 0.682525 0.036447
vn -0.697322 0.715662 0.039621
vn 0.679026 0.733311 0.034324
vn 0.702040 0.002889 0.712131
vn 0.000909 -0.707952 0.706260
vn 0.000721 0.705885 0.708326
vn -0.000049 1.000000 -0.000000
vn 0.000049 -1.000000 0.000000
vn 0.000787 -0.707845 0.706367
vn 0.889679 -0.456553 -0.005482
vn -0.712250 0.001145 0.701926
vn -0.949704 -0.313147 0.001419
vn -0.708133 -0.706078 0.000747
vn 0.000000 1.000000 0.000000
vn -0.707434 0.706779 0.001040
vn -0.999765 0.009631 0.019407
vn -0.999831 0.008119 0.016501
vn -0.999647 0.023310 0.012726
vn -0.999997 0.002598 -0.000516
vn -0.999685 0.022126 0.011837
vn -1.000000 0.000357 0.000000
vn -1.000000 0.000356 0.000111
vn -0.999987 0.000241 0.004982
vn -0.947099 0.320943 0.000162
vn -0.706531 0.707682 0.000000
vn -0.713184 0.002110 0.700974
vn 0.694041 0.001776 0.719934
vn -0.016154 0.744747 0.667151
vn 0.052821 0.998441 0.018019
vn -0.066105 -0.997363 -0.029940
vn 0.005854 -0.674532 0.738222
vn 0.000465 0.705820 0.708391
vn -0.000316 1.000000 0.000000
vn 0.000316 -1.000000 -0.000000
vn -0.578543 0.578635 0.574865
vn 0.704678 -0.709526 -0.001543
vn 0.950566 -0.310521 -0.000748
vn 0.000000 0.710705 0.703490
vn 0.598436 0.563643 0.569368
vn -0.999685 0.022126 0.011837
vn -0.999647 0.023310 0.012726
vn -0.999998 0.002164 -0.000201
vn -0.999996 0.002604 -0.000520
vn -0.999806 0.008729 0.017672
vn -0.999732 0.010322 0.020734
vn -0.026863 0.540991 0.840600
vn 0.747977 0.357683 0.559101
vn 0.615034 0.268684 0.741311
vn -0.023836 0.342239 0.939311
vn 0.657680 0.529913 0.535396
vn -0.015783 0.704507 0.709522
vn 0.000000 0.002034 0.999998
vn 0.946946 0.321393 0.000470
vn 0.706727 0.707487 0.000000
vn 0.706509 0.000831 0.707703
vn 0.773188 -0.001135 0.634176
vn 0.773007 -0.001137 0.634396
vn 0.145708 -0.739185 0.657552
vn -0.582632 -0.000341 0.812736
vn -0.706842 0.001880 0.707369
vn -1.000000 0.000737 0.000000
vn -0.583224 -0.000326 0.812311
vn -0.991523 0.000600 0.129928
vn -0.991674 0.000583 0.128769
vn -1.000000 0.000243 0.000000
vn -0.707509 0.001609 0.706703
vn 0.891825 -0.452336 0.006258
vn -0.015783 0.704507 0.709522
vn -0.023617 0.350651 0.936208
vn 0.672818 0.258126 0.693316
vn 0.151805 0.715080 0.682361
vn -0.000290 -0.999998 -0.001791
vn 0.151594 -0.715563 0.681901
vn 0.146848 0.736696 0.660087
vn 0.149276 0.715863 0.682097
vn -0.000883 -0.999997 -0.002216
vn 0.121483 -0.821622 0.556937
vn 0.000887 0.999997 0.002231
vn 0.075343 0.724683 0.684951
vn 0.022877 0.994436 0.102831
vn 0.007571 0.997286 0.073238
vn 0.000602 0.999999 0.001592
vn -0.022618 -0.994443 -0.102813
vn 0.073749 -0.734827 0.674234
vn -0.006242 -0.998172 -0.060111
vn 0.019577 0.000049 0.999808
vn 0.151018 -0.720289 0.677036
vn 0.164135 0.650918 0.741192
vn 0.038011 0.716679 0.696366
vn 0.000220 1.000000 0.000000
vn 0.064736 -0.997903 0.000177
vn -0.064730 0.997903 -0.000164
vn 0.142450 -0.752519 0.642980
vn -0.000418 -1.000000 -0.000019
vn -0.000220 -1.000000 0.000000
vn 0.163221 -0.654361 0.738357
vn 0.120742 -0.741302 0.660221
vn 0.143546 0.750480 0.645116
vn 0.000418 1.000000 0.000019
vn 0.162611 0.665308 0.728644
vn 0.001684 0.999976 0.006662
vn 0.215654 0.000044 0.976470
vn 0.215654 0.000044 0.976470
vn 0.121851 0.000025 0.992548
vn 0.118196 0.000038 0.992990
vn 0.019534 0.000020 0.999809
vn 1.000000 -0.000709 0.000000
vn -1.000000 0.000332 0.000000
vn -1.000000 0.000332 0.000000
vn 0.000062 -1.000000 -0.000177
vn 0.000000 -1.000000 0.000000
vn 0.000235 -1.000000 -0.000663
vn -0.000352 -0.999999 0.000996
vn 0.000000 -1.000000 0.000000
vn -0.001328 -0.999992 0.003755
vn 1.000000 -0.000327 0.000000
vn 0.707224 -0.000831 0.706989
vn 0.706989 -0.000832 0.707224
vn 1.000000 -0.000327 0.000000
vn 1.000000 -0.000738 0.000000
vn 1.000000 -0.000738 0.000000
vn 1.000000 -0.000709 0.000000
vn 0.061931 0.678728 0.731773
vn 0.092560 0.995707 -0.000018
vn -0.706841 -0.000365 0.707372
vn -0.707373 -0.000365 0.706840
vn 0.999689 0.001076 -0.024929
vn 0.999994 0.001892 0.002962
vn 0.999993 0.000286 0.003701
vn 0.999990 -0.001023 0.004303
vn -0.000000 0.001969 0.999998
vn 0.101534 -0.703529 0.703376
vn 0.118806 -0.992907 0.004506
vn -0.142731 0.988625 -0.047411
vn -0.092649 0.713729 0.694267
vn -0.997530 0.069772 -0.008162
vn -0.067777 -0.725773 0.684588
vn -0.091923 -0.995766 0.000021
vn -0.693633 0.040111 0.719211
vn 0.999688 0.003199 -0.024778
vn 0.999688 0.003199 -0.024778
vn 0.999688 0.000452 -0.024973
vn 0.999688 0.000452 -0.024973
vn 0.999689 0.001076 -0.024929
vn 0.999999 0.000499 0.001557
vn 0.999997 -0.000599 0.002184
vn 0.999995 -0.001625 0.002771
vn 0.999994 -0.001536 0.003017
vn 0.999997 -0.000477 0.002242
vn 0.999999 0.000482 0.001540
vn -0.999673 0.020436 -0.015394
vn -0.999387 0.032285 -0.013547
vn -0.999998 0.002169 -0.000193
vn -0.026862 0.537283 0.842974
vn 0.749791 0.353993 0.559019
vn -0.697319 0.715665 0.039622
vn 0.678054 0.734206 0.034413
vn 0.721008 0.692232 0.031030
vn -0.729954 0.682524 0.036447
vn 0.483913 0.001316 0.875115
vn -0.695919 0.038195 0.717104
vn -0.997510 0.050933 0.048787
vn -0.999685 0.022126 0.011838
vn -0.999647 0.023311 0.012726
vn -0.999996 0.002605 -0.000507
vn -0.999831 0.008125 0.016517
vn -0.999765 0.009637 0.019423
vn 0.999999 -0.001609 0.000000
vn 0.999999 -0.001604 -0.000328
vn 1.000000 0.000326 -0.000403
vn 0.999997 0.002345 0.000000
vn 0.999997 0.002331 0.000853
vn 0.999988 -0.004957 0.000000
vn 0.999987 -0.004935 -0.001330
vn -1.000000 0.000352 0.000000
vn -1.000000 0.000350 0.000109
vn -0.999999 -0.000291 0.001119
vn -0.706885 0.707328 0.000000
vn 0.947193 0.320663 -0.000085
vn -0.946788 0.321859 0.000164
vn -0.712446 0.001460 0.701725
vn 0.702568 0.001962 0.711614
vn 0.999988 -0.004673 -0.001470
vn 0.999998 -0.001821 0.000076
vn 0.999979 0.006395 -0.001470
vn 0.999995 0.002743 -0.001837
vn -0.895046 -0.445950 0.004622
vn -0.581625 -0.578498 0.571885
vn 0.570053 -0.574442 0.587414
vn 0.626115 0.548537 0.554155
vn -0.015783 0.704507 0.709522
vn -0.023836 0.342239 0.939311
vn 0.647736 0.259483 0.716315
vn 0.999997 0.000146 -0.002402
vn 1.000000 -0.000190 -0.000403
vn 1.000000 0.000314 -0.000403
vn -1.000000 0.000246 0.000986
vn -0.999986 0.000207 0.005349
vn -0.999999 -0.000348 0.001119
vn 0.707775 0.706438 0.000000
vn 0.701661 -0.000272 0.712511
vn -0.092798 0.000011 0.995685
vn -0.029250 -0.000073 0.999572
vn -0.712260 -0.000683 0.701915
vn -0.709836 0.002496 0.704362
vn 0.999979 0.000010 -0.006444
vn 0.704966 0.002685 0.709236
vn -0.001151 -0.999984 -0.005494
vn 0.890680 -0.454631 -0.000065
vn 0.000049 -1.000000 0.000000
vn -0.000239 0.997487 0.070848
vn 0.000128 -0.998937 -0.046107
vn -0.005017 0.999987 0.000068
vn 0.005017 -0.999987 -0.000064
vn -0.003545 0.710230 0.703961
vn 0.000716 0.710065 0.704135
vn 0.000787 -0.708195 0.706017
vn 0.000677 -0.712480 0.701692
vn 0.003568 -0.707574 0.706630
vn 0.000366 0.696672 0.717390
vn -0.000316 1.000000 0.000004
vn 0.000316 -1.000000 -0.000001
vn -0.000049 1.000000 -0.000000
vn 0.000459 0.710098 0.704103
vn 0.000909 -0.708121 0.706091
vn -0.999673 0.020437 -0.015394
vn -0.999387 0.032281 -0.013548
vn 0.721774 0.691437 0.030954
vn -0.729954 0.682524 0.036447
vn -0.697320 0.715664 0.039622
vn 0.678805 0.733515 0.034344
vn -0.707295 -0.706918 0.001130
vn 0.000000 1.000000 0.000000
vn -0.707436 0.706777 0.001040
vn -1.000000 0.000355 0.000000
vn -1.000000 0.000353 0.000110
vn -0.999988 0.000241 0.004986
vn 0.948036 0.318161 -0.000569
vn -0.947167 0.320742 0.000161
vn -0.707184 0.707030 0.000000
vn 0.708675 0.705535 0.000000
vn -0.713182 0.002110 0.700976
vn 0.699834 0.002183 0.714302
vn 0.702393 0.005834 0.711765
vn -0.712369 0.001213 0.701804
vn -0.578818 0.578659 0.574564
vn 0.709157 -0.705050 -0.000885
vn -0.949596 -0.313472 0.001418
vn 0.950210 -0.311608 -0.001393
vn 0.000000 0.713367 0.700791
g fff0af20_00416_00a870fd_e30
f 5/110/5 4/109/4 8/108/8
f 7/107/7 8/108/8 4/109/4
f 3/154/3 26/153/26 25/152/25
f 57/153/57 2/151/2 1/152/1
f 57/153/57 56/150/56 2/151/2
f 24/158/24 26/153/26 3/154/3
f 25/152/25 23/157/23 3/154/3
f 22/156/22 23/157/23 25/152/25
f 2/151/2 55/156/55 1/152/1
f 2/151/2 54/155/54 55/156/55
f 233/110/233 232/109/232 236/108/236
f 235/107/235 236/108/236 232/109/232
f 53/151/53 76/155/76 75/156/75
f 53/151/53 75/156/75 52/152/52
f 51/156/51 50/157/50 49/152/49
f 49/152/49 50/157/50 48/154/48
f 47/158/47 46/153/46 48/154/48
f 74/153/74 45/150/45 53/151/53
f 74/153/74 53/151/53 52/152/52
f 48/154/48 46/153/46 49/152/49
f 161/123/161 199/149/199 198/148/198
f 161/123/161 198/148/198 160/147/160
f 173/146/173 172/145/172 171/144/171
f 171/144/171 172/145/172 159/143/159
f 170/142/170 169/141/169 159/143/159
f 197/140/197 196/139/196 161/123/161
f 197/140/197 161/123/161 160/147/160
f 159/143/159 169/141/169 171/144/171
f 158/110/158 157/109/157 162/108/162
f 165/107/165 162/108/162 157/109/157
f 76/155/76 53/151/53 136/183/136
f 135/182/135 136/183/136 53/151/53
f 134/181/134 53/151/53 45/150/45
f 53/151/53 134/181/134 135/182/135
f 156/180/156 2/151/2 56/150/56
f 2/151/2 156/180/156 155/179/155
f 54/155/54 2/151/2 154/178/154
f 155/179/155 154/178/154 2/151/2
f 199/149/199 161/123/161 153/177/153
f 152/176/152 153/177/153 161/123/161
f 151/175/151 161/123/161 196/139/196
f 161/123/161 151/175/151 152/176/152
f 150/174/150 237/186/237 234/185/234
f 237/186/237 150/174/150 133/184/133
f 149/174/149 9/186/9 6/185/6
f 9/186/9 149/174/149 148/184/148
f 147/174/147 163/186/163 164/185/164
f 163/186/163 147/174/147 146/184/146
g fff0af20_00416_00a870fd_e29
f 9/100/9 8/99/8 7/98/7
f 7/98/7 6/97/6 9/100/9
f 237/100/237 236/99/236 235/98/235
f 235/98/235 234/97/234 237/100/237
f 165/127/165 164/126/164 163/125/163
f 163/125/163 162/124/162 165/127/165
g fff0af20_00416_00a870fd_e28
f 17/85/17 29/116/29 32/101/32
f 30/118/30 28/84/28 29/116/29
f 204/192/204 245/131/245 243/130/243
f 254/129/254 203/191/203 251/128/251
f 251/85/251 204/190/204 211/189/211
f 245/118/245 242/84/242 243/116/243
f 242/84/242 245/118/245 246/119/246
f 246/119/246 241/115/241 242/84/242
f 28/84/28 30/118/30 31/119/31
f 31/119/31 27/115/27 28/84/28
f 17/128/17 30/131/30 29/130/29
f 18/129/18 30/131/30 17/128/17
f 187/114/187 186/113/186 193/112/193
f 183/111/183 186/113/186 187/114/187
f 187/85/187 193/116/193 194/101/194
f 186/118/186 182/84/182 193/116/193
f 182/84/182 186/118/186 184/119/184
f 184/119/184 181/115/181 182/84/182
f 187/114/187 210/134/210 183/111/183
f 205/132/205 183/111/183 210/134/210
f 207/134/207 202/132/202 201/133/201
f 43/129/43 10/128/10 59/131/59
f 212/188/212 16/130/16 244/131/244
f 255/129/255 250/128/250 200/187/200
f 244/118/244 16/116/16 180/84/180
f 180/84/180 247/119/247 244/118/244
f 247/119/247 180/84/180 179/115/179
f 59/118/59 73/116/73 178/84/178
f 178/84/178 60/119/60 59/118/59
f 60/119/60 178/84/178 177/115/177
f 10/128/10 73/130/73 59/131/59
f 188/114/188 215/112/215 185/113/185
f 176/111/176 188/114/188 185/113/185
f 185/118/185 215/116/215 175/84/175
f 175/84/175 206/119/206 185/118/185
f 206/119/206 175/84/175 174/115/174
f 188/114/188 176/111/176 207/134/207
f 202/132/202 207/134/207 176/111/176
f 200/187/200 250/128/250 212/188/212
f 200/187/200 212/188/212 244/131/244
f 211/189/211 204/190/204 248/101/248
f 204/190/204 243/116/243 248/101/248
f 203/191/203 245/131/245 204/192/204
f 203/191/203 204/192/204 251/128/251
g fff0af20_00416_00a870fd_e15
f 112/164/112 111/163/111 110/162/110
f 111/163/111 112/164/112 92/161/92
f 109/160/109 110/162/110 111/163/111
f 111/163/111 108/159/108 109/160/109
g fff0af20_00416_00a870fd_e3
f 32/105/32 33/106/33 17/29/17
f 44/83/44 41/80/41 10/33/10
f 41/80/41 17/29/17 10/33/10
f 60/120/60 31/119/31 30/118/30
f 85/49/85 81/40/81 90/48/90
f 90/48/90 224/6/224 85/49/85
f 30/118/30 59/117/59 60/120/60
f 256/83/256 252/80/252 250/33/250
f 213/195/213 250/33/250 251/29/251
f 248/105/248 249/106/249 211/193/211
f 252/80/252 251/29/251 250/33/250
f 247/120/247 246/119/246 245/118/245
f 245/118/245 244/117/244 247/120/247
f 103/61/103 138/88/138 95/60/95
f 103/61/103 94/40/94 102/39/102
f 129/75/129 34/24/34 143/74/143
f 104/47/104 80/40/80 99/46/99
f 138/88/138 141/87/141 95/60/95
f 123/11/123 131/26/131 132/22/132
f 37/68/37 141/87/141 138/88/138
f 210/138/210 209/137/209 208/136/208
f 209/137/209 210/138/210 207/135/207
f 187/29/187 207/135/207 210/138/210
f 207/135/207 187/29/187 188/33/188
f 106/60/106 77/40/77 93/61/93
f 99/46/99 80/40/80 64/39/64
f 145/94/145 142/93/142 168/102/168
f 95/60/95 94/40/94 103/61/103
f 37/68/37 34/67/34 141/87/141
f 33/106/33 10/33/10 17/29/17
f 231/28/231 38/24/38 11/23/11
f 129/75/129 143/74/143 225/5/225
f 72/41/72 145/94/145 137/86/137
f 223/4/223 12/24/12 15/23/15
f 145/94/145 168/102/168 167/103/167
f 143/74/143 34/24/34 37/23/37
f 167/103/167 137/86/137 145/94/145
f 166/89/166 137/86/137 167/103/167
f 61/34/61 166/89/166 167/103/167
f 61/34/61 167/103/167 66/38/66
f 72/41/72 137/86/137 58/35/58
f 90/48/90 81/40/81 83/39/83
f 93/61/93 77/40/77 79/39/79
f 65/41/65 62/34/62 63/35/63
f 62/34/62 65/41/65 68/38/68
f 131/26/131 123/11/123 124/25/124
f 186/118/186 185/117/185 206/120/206
f 195/106/195 188/33/188 187/29/187
f 194/105/194 195/106/195 187/29/187
f 206/120/206 184/119/184 186/118/186
f 210/134/210 208/133/208 205/132/205
f 211/193/211 213/195/213 251/29/251
f 211/193/211 249/106/249 213/195/213
f 129/75/129 225/5/225 221/3/221
f 224/6/224 226/2/226 85/49/85
f 222/1/222 12/24/12 223/4/223
f 230/27/230 38/24/38 231/28/231
g fff0af20_00416_00a870fd_e4
f 21/26/21 44/83/44 20/25/20
f 19/45/19 43/96/43 18/82/18
f 43/96/43 19/45/19 42/95/42
f 41/81/41 21/44/21 19/45/19
f 121/106/121 120/105/120 119/122/119
f 91/59/91 90/58/90 89/43/89
f 119/122/119 73/121/73 121/106/121
f 18/82/18 41/81/41 19/45/19
f 18/82/18 17/42/17 41/81/41
f 21/26/21 41/80/41 44/83/44
f 240/26/240 256/83/256 239/25/239
f 238/45/238 255/96/255 254/82/254
f 255/96/255 238/45/238 253/95/253
f 252/81/252 240/44/240 238/45/238
f 118/106/118 117/105/117 116/122/116
f 116/122/116 16/121/16 118/106/118
f 107/66/107 88/57/88 106/65/106
f 254/82/254 252/81/252 238/45/238
f 254/82/254 251/42/251 252/81/252
f 240/26/240 252/80/252 256/83/256
f 195/106/195 194/105/194 193/122/193
f 87/56/87 86/57/86 85/55/85
f 105/64/105 84/57/84 104/54/104
f 193/122/193 215/121/215 195/106/195
f 103/63/103 102/53/102 101/43/101
f 90/58/90 83/53/83 89/43/89
f 115/24/115 114/23/114 132/22/132
f 145/94/145 72/41/72 71/40/71
f 132/22/132 131/26/131 115/24/115
f 70/40/70 69/39/69 68/38/68
f 85/55/85 226/21/226 87/56/87
f 168/104/168 67/39/67 66/38/66
f 100/52/100 99/51/99 82/43/82
f 68/38/68 65/41/65 70/40/70
f 167/103/167 168/102/168 66/38/66
f 192/81/192 253/45/253 191/44/191
f 144/79/144 225/20/225 143/78/143
f 85/55/85 86/57/86 81/50/81
f 142/93/142 145/94/145 71/40/71
f 90/58/90 91/59/91 224/19/224
f 223/18/223 15/17/15 14/16/14
f 222/15/222 13/14/13 12/13/12
f 231/37/231 11/17/11 40/16/40
f 230/36/230 39/14/39 38/13/38
f 141/92/141 140/77/140 98/66/98
f 37/73/37 139/91/139 36/72/36
f 130/71/130 35/14/35 129/76/129
f 129/76/129 35/14/35 34/13/34
f 138/90/138 97/62/97 139/91/139
f 143/78/143 37/17/37 36/16/36
f 34/70/34 140/77/140 141/92/141
f 34/70/34 35/69/35 140/77/140
f 130/71/130 129/76/129 221/12/221
f 37/73/37 138/90/138 139/91/139
f 99/51/99 64/53/64 82/43/82
f 104/54/104 84/57/84 80/50/80
f 214/196/214 79/53/79 78/43/78
f 97/62/97 103/63/103 101/43/101
f 106/65/106 88/57/88 77/50/77
f 103/63/103 97/62/97 138/90/138
f 98/66/98 96/57/96 95/65/95
f 95/65/95 141/92/141 98/66/98
f 144/79/144 143/78/143 36/16/36
f 95/65/95 96/57/96 94/50/94
f 128/171/128 63/35/63 62/34/62
f 62/34/62 113/170/113 128/171/128
f 190/81/190 42/45/42 189/44/189
f 255/82/255 192/81/192 250/42/250
f 188/33/188 195/106/195 215/169/215
f 255/82/255 253/45/253 192/81/192
f 43/82/43 190/81/190 10/42/10
f 43/82/43 42/45/42 190/81/190
f 166/89/166 61/34/61 127/168/127
f 126/167/126 127/168/127 61/34/61
f 10/33/10 33/106/33 73/166/73
f 125/173/125 124/25/124 123/11/123
f 123/11/123 122/165/122 125/173/125
f 250/33/250 213/195/213 212/194/212
f 93/63/93 79/53/79 214/196/214
f 212/194/212 213/195/213 16/172/16
f 213/195/213 249/106/249 16/172/16
f 144/79/144 220/197/220 225/20/225
f 130/71/130 221/12/221 219/10/219
f 224/19/224 91/59/91 218/9/218
f 226/21/226 217/8/217 87/56/87
f 216/7/216 223/18/223 14/16/14
f 229/32/229 13/14/13 222/15/222
f 228/31/228 231/37/231 40/16/40
f 227/30/227 39/14/39 230/36/230
