# fff01765_00112_01055942
o fff01765_00112_01055942
v -0.086102 0.039906 0.006666
v -0.085885 -0.049275 0.008578
v -0.066386 -0.005295 0.609672
v -0.063895 -0.052272 0.608890
v -0.057422 -0.054677 0.563450
v -0.068099 0.046453 0.340308
v -0.069072 -0.045767 0.347108
v -0.025311 -0.000788 0.652027
v 0.000381 0.007331 0.640744
v 0.010231 0.020262 0.608174
v -0.044916 -0.004845 0.631970
v -0.042639 -0.046594 0.633591
v -0.025887 -0.037947 0.656864
v 0.086369 0.039189 0.006591
v 0.085999 -0.049285 0.008469
v 0.066746 -0.005430 0.609633
v 0.064255 -0.052276 0.608850
v 0.055111 0.019298 0.571517
v 0.057926 -0.054681 0.563413
v 0.067681 0.046755 0.344442
v 0.068974 -0.045776 0.347021
v 0.026088 -0.000830 0.650540
v 0.043427 -0.004284 0.633557
v 0.042889 -0.045824 0.634559
v 0.026668 -0.037951 0.656832
v -0.072698 -0.036604 -0.057889
v -0.000066 -0.038160 -0.060512
v -0.073640 0.027070 -0.050359
v -0.000054 0.032332 -0.052798
v 0.072396 -0.036613 -0.057981
v 0.073254 0.027062 -0.050451
v -0.009183 0.019767 -0.316717
v -0.010099 -0.041813 -0.313806
v -0.066518 -0.043320 -0.308027
v -0.008435 -0.074423 -0.519631
v -0.058740 -0.075059 -0.517162
v -0.069959 0.015615 -0.319149
v -0.009591 -0.011839 -0.503340
v -0.064092 -0.016043 -0.504167
v 0.097432 0.032154 -0.162539
v -0.001131 0.076548 -0.162673
v -0.098443 0.031713 -0.161100
v -0.097310 -0.061239 -0.166664
v -0.000825 -0.070888 -0.167843
v 0.096623 -0.061259 -0.166474
v 0.008737 0.019766 -0.316728
v 0.009649 -0.041814 -0.313820
v 0.066076 -0.043328 -0.308110
v 0.009817 -0.074424 -0.519642
v 0.058031 -0.075065 -0.517236
v 0.069509 0.015606 -0.319238
v 0.011000 -0.011840 -0.503352
v 0.063406 -0.016050 -0.504248
v -0.025323 0.011960 0.689479
v -0.025899 -0.024705 0.696193
v -0.025899 -0.024705 0.696193
v 0.026076 0.011958 0.689446
v 0.026656 -0.024708 0.696160
v 0.214574 -0.066793 0.377174
v 0.249219 -0.066673 0.416198
v 0.214375 -0.018300 0.381918
v 0.251489 -0.021133 0.413424
v 0.320218 -0.006254 0.173666
v 0.337526 -0.006246 0.174989
v 0.321622 0.025709 0.175931
v 0.338025 0.026174 0.177660
v 0.322808 0.075355 0.110203
v 0.335556 0.024421 0.019461
v 0.326400 0.025245 0.025230
v 0.315327 0.060360 0.100308
v 0.328263 0.066218 0.102353
v 0.318951 0.083885 0.090760
v 0.311077 0.069891 0.109828
v 0.339809 -0.023687 0.034488
v 0.353106 0.041809 0.082729
v 0.343888 0.046005 0.157839
v 0.338241 0.037795 0.019298
v 0.335021 0.044010 0.081785
v 0.349927 0.045866 0.126403
v 0.315015 0.035264 0.127063
v 0.337762 0.056932 0.118232
v 0.332606 0.022554 0.081159
v 0.308956 0.078363 0.090400
v 0.323806 0.016006 0.019692
v 0.327289 -0.022698 0.039593
v 0.328201 0.038781 0.025074
v 0.314469 0.044610 0.156253
v 0.317998 0.048598 0.117436
v 0.333824 0.024240 0.052631
v 0.333538 0.018460 0.053365
v 0.322201 0.001450 0.020128
v 0.333408 0.001937 0.015042
v 0.330323 0.061545 0.139640
v 0.321665 -0.027519 0.126515
v 0.346742 -0.027258 0.126160
v 0.329577 -0.025053 0.084270
v 0.312936 0.056406 0.138142
v 0.350840 -0.027009 0.084342
v 0.334522 0.039942 0.052784
v 0.347549 0.039216 0.051965
v 0.352740 0.021599 0.081608
v 0.346859 0.023732 0.052216
v 0.347522 0.016854 0.053755
v 0.334755 0.015042 0.014739
v 0.346592 -0.026590 0.059336
v 0.330127 -0.024556 0.058952
v 0.333408 0.001937 0.015043
v 0.313118 0.069033 0.088073
v 0.322834 0.075474 0.088995
v 0.324672 -0.011201 0.029797
v 0.324436 0.001945 0.030074
v 0.327427 -0.011695 0.040346
v 0.336380 -0.011914 0.023978
v 0.337040 0.001623 0.023663
v 0.332096 0.003794 0.053062
v 0.330879 -0.011623 0.054827
v 0.339958 -0.012607 0.034612
v 0.346035 -0.013596 0.054853
v 0.346584 0.001944 0.053151
v -0.021065 0.034971 0.537257
v -0.071159 0.032877 0.501455
v -0.070301 0.028887 0.537509
v -0.019749 0.039182 0.501599
v -0.040802 0.032532 0.537358
v -0.050716 0.031307 0.537409
v -0.042568 0.025845 0.547352
v -0.050083 0.025804 0.547369
v -0.057594 -0.040942 -0.608849
v -0.057125 -0.091555 -0.654665
v -0.030365 -0.035625 -0.610904
v -0.017391 -0.087230 -0.654805
v -0.086464 0.069503 -0.630038
v -0.086483 0.072862 -0.659041
v -0.040073 0.123035 -0.635035
v -0.040955 0.126817 -0.660512
v -0.048069 -0.080950 -0.611817
v -0.025837 -0.077248 -0.612507
v -0.026001 0.079000 -0.659243
v -0.025181 0.081839 -0.629643
v -0.011631 -0.040493 -0.656058
v -0.085403 0.119166 -0.660279
v -0.084827 0.115431 -0.634762
v -0.056149 -0.090627 -0.624699
v -0.017761 -0.086543 -0.624833
v -0.073574 -0.056655 -0.655587
v -0.011627 -0.034099 -0.630285
v -0.072453 -0.057938 -0.629702
v -0.014381 -0.029610 -0.651615
v -0.023533 0.008929 -0.626244
v -0.032242 0.012548 -0.614605
v -0.070965 0.013235 -0.615525
v -0.073071 -0.047511 -0.649335
v -0.080299 0.013347 -0.627083
v -0.048069 -0.080950 -0.611817
v -0.070965 0.013235 -0.615525
v -0.074978 0.010841 -0.655673
v -0.024815 0.005719 -0.656267
v 0.050854 -0.039898 -0.607881
v 0.052265 -0.091561 -0.654734
v 0.025566 -0.034578 -0.609903
v 0.012531 -0.087232 -0.654824
v 0.081654 0.069493 -0.630144
v 0.081635 0.072853 -0.659147
v 0.036125 0.123031 -0.635082
v 0.036110 0.126812 -0.660561
v 0.044128 -0.080956 -0.611875
v 0.021896 -0.077250 -0.612537
v 0.021152 0.078998 -0.659273
v 0.021233 0.081836 -0.629673
v 0.006775 -0.040495 -0.656070
v 0.080559 0.119156 -0.660384
v 0.080013 0.115421 -0.634866
v 0.052193 -0.090633 -0.624768
v 0.013805 -0.086545 -0.624853
v 0.068718 -0.056664 -0.655677
v 0.007671 -0.034100 -0.630297
v 0.068493 -0.057946 -0.629791
v 0.010399 -0.029612 -0.651631
v 0.019585 0.008926 -0.626272
v 0.028309 0.012545 -0.614643
v 0.067032 0.013227 -0.615612
v 0.069088 -0.047519 -0.649425
v 0.076351 0.013338 -0.627182
v 0.044128 -0.080956 -0.611875
v 0.067032 0.013227 -0.615612
v 0.070992 0.010832 -0.655765
v 0.020824 0.005716 -0.656296
v -0.057610 -0.039304 -0.586512
v -0.030376 -0.033987 -0.588567
v -0.048080 -0.079313 -0.589481
v -0.025848 -0.075611 -0.590170
v -0.048080 -0.079313 -0.589481
v 0.050842 -0.038261 -0.585545
v 0.025555 -0.032941 -0.587567
v 0.044117 -0.079319 -0.589539
v 0.021885 -0.075614 -0.590200
v 0.044117 -0.079319 -0.589539
v 0.353703 -0.024226 0.201020
v 0.343831 0.040653 0.206934
v 0.298459 -0.031827 0.178773
v 0.342797 -0.023104 0.226803
v 0.292325 0.042627 0.188596
v 0.334638 0.033377 0.231213
v 0.290986 0.035526 0.214525
v 0.326039 0.019860 0.227690
v 0.331719 -0.010716 0.224331
v 0.307736 0.020932 0.217893
v 0.311368 -0.015080 0.211536
v 0.295716 -0.029183 0.208091
v -0.010563 0.020568 0.607993
v -0.004264 0.046596 0.342252
v -0.020722 0.032814 0.537408
v -0.070816 0.030719 0.501606
v -0.069958 0.026731 0.537660
v -0.019405 0.037026 0.501750
v -0.040459 0.030376 0.537509
v -0.050373 0.029150 0.537560
v -0.055111 0.019299 0.571517
v -0.214576 -0.066788 0.377173
v -0.249217 -0.066667 0.416198
v -0.214374 -0.018295 0.381917
v -0.251487 -0.021127 0.413424
v -0.320227 -0.006248 0.173666
v -0.337535 -0.006239 0.174988
v -0.321627 0.025716 0.175930
v -0.338034 0.026182 0.177659
v -0.322815 0.075362 0.110202
v -0.335564 0.024429 0.019461
v -0.326409 0.025252 0.025230
v -0.315334 0.060367 0.100307
v -0.328270 0.066226 0.102353
v -0.318958 0.083892 0.090760
v -0.311085 0.069898 0.109828
v -0.339817 -0.023679 0.034487
v -0.353112 0.041817 0.082728
v -0.343898 0.046013 0.157838
v -0.338246 0.037803 0.019297
v -0.335027 0.044017 0.081785
v -0.349936 0.045874 0.126403
v -0.315024 0.035271 0.127062
v -0.337771 0.056941 0.118232
v -0.332612 0.022562 0.081159
v -0.308964 0.078371 0.090399
v -0.323815 0.016014 0.019692
v -0.327297 -0.022691 0.039592
v -0.328209 0.038788 0.025074
v -0.314479 0.044618 0.156252
v -0.318007 0.048606 0.117436
v -0.333832 0.024248 0.052631
v -0.333546 0.018467 0.053365
v -0.322205 0.001458 0.020127
v -0.333416 0.001945 0.015042
v -0.330329 0.061553 0.139640
v -0.321673 -0.027512 0.126515
v -0.346750 -0.027250 0.126160
v -0.329583 -0.025045 0.084270
v -0.312942 0.056414 0.138142
v -0.350846 -0.027001 0.084341
v -0.334526 0.039949 0.052783
v -0.347557 0.039224 0.051965
v -0.352746 0.021607 0.081607
v -0.346867 0.023740 0.052216
v -0.347527 0.016862 0.053754
v -0.334763 0.015050 0.014739
v -0.346600 -0.026582 0.059336
v -0.330132 -0.024548 0.058952
v -0.333416 0.001945 0.015042
v -0.313125 0.069040 0.088073
v -0.322841 0.075482 0.088994
v -0.324681 -0.011193 0.029796
v -0.324444 0.001952 0.030073
v -0.327431 -0.011688 0.040345
v -0.336388 -0.011907 0.023977
v -0.337048 0.001631 0.023663
v -0.332104 0.003802 0.053062
v -0.330887 -0.011616 0.054827
v -0.339966 -0.012599 0.034612
v -0.346043 -0.013587 0.054853
v -0.346592 0.001952 0.053150
v -0.353709 -0.024218 0.201020
v -0.343837 0.040660 0.206933
v -0.298469 -0.031820 0.178773
v -0.342807 -0.023096 0.226803
v -0.292335 0.042633 0.188595
v -0.334647 0.033385 0.231212
v -0.290992 0.035533 0.214524
v -0.326049 0.019868 0.227689
v -0.331729 -0.010708 0.224330
v -0.307746 0.020939 0.217893
v -0.311374 -0.015073 0.211536
v -0.295722 -0.029176 0.208090
v 0.024761 0.022300 0.596351
v -0.023430 0.022636 0.596997
v 0.058783 -0.035876 -0.593124
v 0.050146 -0.090334 -0.596130
v 0.016375 -0.029070 -0.594042
v 0.012133 -0.085451 -0.596202
v -0.021123 -0.029119 -0.594140
v -0.063451 -0.035915 -0.592968
v -0.054780 -0.090387 -0.596450
v -0.016728 -0.085470 -0.596396
v -0.045063 0.053116 -0.162465
v 0.051552 0.051961 -0.163113
vt 1.799582 0.770858
vt 1.795901 0.774854
vt 0.086767 0.617166
vt 0.070103 0.617611
vt 0.076444 0.622498
vt 0.085806 0.623160
vt 0.050503 0.634490
vt 0.043150 0.634921
vt 0.043103 0.634985
vt 0.048604 0.638447
vt 0.047964 0.631804
vt 0.047964 0.631804
vt 0.049856 0.634876
vt 0.044483 0.638408
vt 0.042798 0.637956
vt 0.423571 0.649323
vt 0.413382 0.653376
vt 0.423549 0.646345
vt 0.403766 0.647290
vt 2.126781 0.884320
vt 2.153408 0.817790
vt 2.151466 0.804147
vt 1.793379 0.772019
vt 0.188146 0.318477
vt 0.189235 0.318152
vt 1.793379 0.772018
vt 1.793382 0.772017
vt 1.793428 0.772022
vt 1.793425 0.772020
vt 0.187724 0.318369
vt 1.793382 0.772016
vt 0.189104 0.317969
vt 1.793428 0.772022
vt 1.793426 0.772020
vt 0.161762 0.342505
vt 0.162815 0.428405
vt 1.793370 0.772361
vt 1.793371 0.772115
vt 1.793391 0.772357
vt 1.793391 0.772115
vt 1.793475 0.772218
vt 1.793475 0.772445
vt 1.793305 0.772413
vt 1.792877 0.771382
vt 1.792836 0.771333
vt 1.793286 0.772492
vt 1.633820 0.387843
vt 1.636257 0.393494
vt 1.638919 0.399667
vt 0.341908 -0.349792
vt 0.350388 -0.351638
vt 0.019740 -0.351638
vt 0.342029 -0.444972
vt -0.319026 0.177429
vt -0.319026 0.177429
vt -0.319026 0.177429
vt 0.416928 -0.347993
vt 0.422218 -0.444972
vt 0.360407 -0.444972
vt 0.019740 -0.351638
vt 0.342029 -0.444972
vt 0.019740 -0.444972
vt -0.319026 0.177429
vt -0.319026 0.177429
vt -0.319026 0.177429
vt -0.319026 0.177429
vt -0.319026 0.177429
vt -0.319026 0.177429
vt 0.359966 -0.349839
vt 0.019740 -0.444972
vt 0.355956 -0.355142
vt 0.423587 -0.351638
vt 0.422179 -0.444972
vt 0.360407 -0.444972
vt -0.319026 0.177429
vt -0.319026 0.177429
vt -0.319026 0.177429
vt -0.319026 0.177429
vt 0.247952 -0.289885
vt 0.040453 -0.463197
vt -0.319026 0.177429
vt -0.319026 0.177429
vt -0.319026 0.177429
vt -0.319026 0.177429
vt -0.319026 0.177429
vt -0.319026 0.177429
vt -0.319026 0.177429
vt -0.319026 0.177429
vt 0.280210 0.066005
vt 0.280210 0.804909
vt 0.195275 -0.444128
vt 0.035196 -0.294588
vt 0.195275 -0.294588
vt 0.035196 -0.444128
vt 0.045157 -0.289885
vt 0.220329 -0.444382
vt -0.319026 0.177429
vt -0.319026 0.177429
vt -0.319026 0.177429
vt -0.319026 0.177429
vt -0.319026 0.177429
vt 0.289179 0.038366
vt 0.103401 0.793078
vt 0.048445 0.617248
vt 0.293699 0.617248
vt 0.043925 0.038366
vt 0.112729 0.076498
vt 0.290839 0.793078
vt 0.293904 0.066761
vt 0.072540 0.804909
vt 0.072540 0.066005
vt 0.361496 0.808585
vt 0.378638 0.808585
vt -0.319026 0.177429
vt 0.019279 0.808585
vt 0.462592 0.808585
vt 0.462572 0.808585
vt 0.298201 0.808585
vt 0.019279 0.808585
vt 0.183212 0.808585
vt 0.298317 0.808585
vt -0.319026 0.177429
vt -0.319026 0.177429
vt -0.319026 0.177429
vt -0.319026 0.177429
vt -0.319026 0.177429
vt 0.119950 0.461593
vt 0.160662 0.460646
vt 0.216433 0.634971
vt 0.216429 0.635389
vt 0.155760 0.640661
vt 0.116483 0.603372
vt 0.255471 0.542532
vt 0.256138 0.464980
vt 0.134322 0.547306
vt 0.132348 0.543798
vt 0.109785 0.525749
vt 0.194909 0.583048
vt 0.201829 0.572580
vt 0.182314 0.478500
vt 0.179208 0.530816
vt 0.205347 0.543155
vt 0.212358 0.547649
vt 0.199485 0.552483
vt 0.187739 0.559122
vt 0.182153 0.475318
vt 0.212916 0.552766
vt 0.137566 0.563013
vt 0.219010 0.540823
vt 0.194188 0.503747
vt 0.210894 0.534609
vt 0.196654 0.591244
vt 0.153420 0.602684
vt 0.194183 0.500859
vt 0.193581 0.478849
vt 0.206914 0.564646
vt 0.179731 0.523221
vt 0.224023 0.529178
vt 0.198125 0.564698
vt 0.207793 0.576075
vt 0.222260 0.530286
vt 0.197599 0.586563
vt 0.180219 0.604352
vt 0.181153 0.500306
vt 0.193323 0.475804
vt 0.135641 0.530235
vt 0.195900 0.531740
vt 0.181158 0.503547
vt 0.196899 0.524044
vt 0.216541 0.527853
vt 0.223380 0.542575
vt 0.215637 0.538351
vt 0.229005 0.531190
vt 0.206930 0.556213
vt 0.212108 0.568744
vt 0.218852 0.555754
vt 0.245229 -0.994725
vt 0.245229 0.009831
vt 0.698704 -0.994725
vt 0.253197 -0.994725
vt 0.994788 0.009831
vt 0.992425 -0.994725
vt 0.698704 -0.994725
vt 0.253197 -1.959621
vt 0.991625 -0.994725
vt 0.992978 -1.959621
vt 1.002378 0.009831
vt 0.245229 0.009831
vt 0.994788 0.009831
vt 0.698704 -0.994725
vt 0.813368 0.009831
vt 0.407715 -0.027743
vt 0.448377 0.974078
vt 0.404254 0.961220
vt 0.401362 1.780954
vt 1.000127 1.000717
vt 0.254237 0.880177
vt 0.252082 0.009831
vt 0.999833 0.087265
vt 1.000981 0.916528
vt 0.197820 0.080788
vt 0.194084 0.923289
vt 0.480521 0.950043
vt 0.451745 1.623551
vt 0.508245 -0.909498
vt 0.993255 0.085672
vt 0.991809 0.933711
vt 0.278348 0.079128
vt 0.619683 0.933711
vt 0.619683 0.084388
vt 0.279848 0.852850
vt 0.332421 0.933711
vt 0.332421 0.081828
vt 0.010546 0.956657
vt 0.124935 0.081118
vt 0.033247 0.087265
vt 0.508767 -0.001614
vt 0.478451 -0.005028
vt 0.414418 -0.962014
vt 0.125832 0.906572
vt 0.044586 0.632807
vt 0.395615 0.615250
vt 0.423199 0.640530
vt 1.799531 0.772694
vt 1.799538 0.774479
vt 1.793371 0.774773
vt 1.029925 1.526494
vt 1.796351 0.777238
vt 1.794473 0.772645
vt 1.795997 0.777784
vt 1.795183 0.771045
vt 1.793371 0.776262
vt 1.794460 0.774291
vt 1.796334 0.775169
vt 1.798395 0.773911
vt 1.798412 0.771364
vt 1.796046 0.774676
vt 1.793371 0.777734
vt 1.795187 0.774232
vt 1.798416 0.773982
vt 1.792863 0.776320
vt 1.792860 0.777876
vt 1.792860 0.776270
vt 1.792860 0.774607
vt 1.795868 0.777694
vt 1.795837 0.777635
vt 1.795898 0.774891
vt 1.792744 0.773268
vt 1.792744 0.774869
vt 1.793090 0.774710
vt 1.793090 0.773469
vt 1.793090 0.774710
vt 1.792744 0.774869
vt 1.792744 0.773268
vt 1.793090 0.773469
vt 1.792738 0.773683
vt 1.792738 0.772217
vt 1.793091 0.773604
vt 1.796385 0.773387
vt 1.796390 0.772464
vt 1.793091 0.772330
vt 1.795891 0.773466
vt 1.795933 0.772422
vt 1.792865 0.772130
vt 1.792860 0.770557
vt 1.795599 0.772291
vt 1.796170 0.770739
vt 1.792878 0.772331
vt 1.792860 0.774179
vt 1.795608 0.773867
vt 1.798097 0.775014
vt 1.797178 0.777403
vt 1.798125 0.777270
vt 1.796171 0.773830
vt 2.059456 0.772522
vt 1.796171 0.773830
vt 1.797177 0.774904
vt 1.795812 0.771619
vt 1.796094 0.771480
vt 1.796294 0.771844
vt 1.795914 0.771730
vt 1.796326 0.772701
vt 1.795761 0.773715
vt 1.796085 0.773845
vt 1.796325 0.773444
vt 1.817091 0.389900
vt 1.774106 0.193404
vt 1.751405 0.184126
vt 1.782331 0.216004
vt 1.770342 0.248730
vt 1.746866 0.189742
vt 1.799470 0.267589
vt 1.771562 0.244454
vt 1.806898 0.284808
vt 1.795576 0.306305
vt 1.773683 0.186519
vt 1.765956 0.245563
vt 1.803078 0.282755
vt 1.786634 0.293962
vt 1.772787 0.248436
vt 1.818395 0.125957
vt 1.798556 0.772384
vt 1.761813 0.691899
vt 1.555307 0.691902
vt 1.715467 0.699992
vt 1.555030 0.702696
vt 1.042773 0.438835
vt 1.207227 0.439408
vt 1.042583 0.444552
vt 1.203688 0.442002
vt 1.249656 0.437898
vt 1.252619 0.439588
vt 1.267965 0.439203
vt 1.388832 0.444908
vt 1.271510 0.437262
vt 1.780505 0.691171
vt 1.896547 0.718402
vt 1.896547 0.687380
vt 1.383179 0.447441
vt 1.761900 0.812256
vt 1.555463 0.808283
vt 1.715465 0.806893
vt 1.042718 0.453627
vt 1.207234 0.456264
vt 1.042583 0.452890
vt 1.203694 0.458175
vt 1.249667 0.453231
vt 1.252633 0.456473
vt 1.267979 0.456793
vt 1.388833 0.445330
vt 1.271523 0.453212
vt 1.780580 0.812022
vt 1.895144 0.785605
vt 1.896649 0.816740
vt 1.383180 0.448828
vt 1.796785 0.264000
vt 1.779584 0.213438
vt 1.793371 0.770697
vt 1.793376 0.772325
vt 1.793371 0.773991
vt 0.412269 0.653819
vt 0.047506 0.629391
vt 0.048607 0.635192
vt 0.404841 0.647970
vt 0.075559 0.622435
vt 0.084915 0.623097
vt 0.403071 0.648738
vt 0.043244 0.638075
vt 0.319543 -0.007053
vt 0.448173 -0.938446
vt 0.457786 1.811850
vt 0.324974 0.994349
vt 0.330436 1.814334
vt 0.324564 -0.940544
vt 0.458916 1.956548
vt 0.351571 1.029011
vt 0.357167 0.041548
vt 0.474629 -0.864277
vt 0.372517 -0.793902
vt 0.354232 1.930516
vt 1.865677 0.409872
vt 1.660483 0.429522
vt 1.818395 0.125957
vt 1.721217 0.260690
vt 1.846722 0.296052
vt 1.837201 0.238885
vt 1.846722 0.296052
vt 1.837201 0.238885
vt 0.143049 0.037948
vt 0.143049 0.037948
vt 0.143049 0.037948
vt 0.143049 0.037948
vt 0.143049 0.037948
vt 0.143049 0.037948
vt 0.143049 0.037948
vt 0.143049 0.037948
vt 0.143049 0.037948
vt 0.143049 0.037948
vt 0.143049 0.037948
vt 0.143049 0.037948
vt 0.143049 0.037948
vt 0.143049 0.037948
vt 0.143049 0.037948
vt 0.143049 0.037948
vt 0.143049 0.037948
vt 0.143049 0.037948
vt 0.143049 0.037948
vt 0.143049 0.037948
vt 0.143049 0.037948
vt 0.143049 0.037948
vt 0.143049 0.037948
vt 0.143049 0.037948
vt 0.143049 0.037948
vt 0.143049 0.037948
vt 0.143049 0.037948
vt 0.143049 0.037948
vt 0.143049 0.037948
vt 0.143049 0.037948
vt 0.143049 0.037948
vt 0.143049 0.037948
vt 0.143049 0.037948
vt 0.143049 0.037948
vt 0.143049 0.037948
vt 0.143049 0.037948
vt 0.143049 0.037948
vt 0.143049 0.037948
vt 0.143049 0.037948
vt 0.143049 0.037948
vt 0.143049 0.037948
vt 0.143049 0.037948
vt 0.143049 0.037948
vt 0.143049 0.037948
vt 0.143049 0.037948
vt 0.143049 0.037948
vt 0.143049 0.037948
vt 0.143049 0.037948
vt 0.143049 0.037948
vt 0.143049 0.037948
vt 0.143049 0.037948
vt 0.143049 0.037948
vt 0.143049 0.037948
vt 0.143049 0.037948
vt 0.143049 0.037948
vt 0.143049 0.037948
vt 0.143049 0.037948
vt 0.143049 0.037948
vt 0.143049 0.037948
vt 0.143049 0.037948
vt 0.143049 0.037948
vt 0.143049 0.037948
vt 0.143049 0.037948
vt 0.143049 0.037948
vt 0.143049 0.037948
vt 0.143049 0.037948
vt 0.143049 0.037948
vt 0.143049 0.037948
vt 0.143049 0.037948
vt 0.143049 0.037948
vt 0.188385 0.319232
vt 0.165383 0.427859
vt 0.188005 0.319195
vt 0.164626 0.343667
vt 0.189293 0.318661
vt 2.159634 0.818406
vt 0.189430 0.318840
vt 2.157648 0.805132
vt 1.793299 0.772376
vt 1.793373 0.771998
vt 1.793376 0.771996
vt 1.793376 0.771996
vt 1.793371 0.771997
vt 1.793296 0.772084
vt 1.799185 0.771243
vt 1.010698 1.464813
vt 0.423289 0.642023
vt 1.798404 0.772562
vt 1.795185 0.772543
vt 0.417252 0.648312
vt 0.043503 0.635926
vt 0.417433 0.648734
vt 1.796184 0.776715
vt 1.799533 0.773272
vt 1.799299 0.771132
vt 1.796162 0.775690
vt 1.045852 0.453677
vt 1.047401 0.453048
vt 1.045837 0.438846
vt 1.047102 0.444481
vt 1.715792 0.745524
vt 1.761613 0.744103
vt 1.555240 0.746755
vt 1.555017 0.758399
vt 1.761625 0.760470
vt 1.715799 0.762107
vt 1.779732 0.760080
vt 1.779719 0.743311
vt 1.792860 0.775508
vt 1.762984 0.218951
vt 1.792862 0.777143
vt 1.779527 0.270618
vn -0.998091 0.000238 0.061759
vn -0.074124 0.995445 0.059950
vn -0.016046 -0.998044 0.060428
vn -0.998163 -0.003555 0.060485
vn -0.457602 0.815337 0.354721
vn -0.721739 -0.049767 0.690374
vn -0.732296 -0.037298 0.679965
vn 0.129443 -0.989145 0.069541
vn -0.300912 0.108885 -0.947415
vn 0.016877 -0.998898 0.043793
vn -0.998397 0.015557 0.054418
vn -0.010740 0.999324 0.035152
vn -0.998470 0.013239 0.053679
vn -0.000064 -0.999894 -0.014550
vn -0.948659 0.021588 0.315562
vn -0.378979 0.925039 0.026020
vn 0.008831 0.984538 0.174950
vn 0.107180 0.951108 0.289665
vn -0.416955 0.838972 0.349677
vn -0.723827 -0.024089 0.689561
vn 0.032510 -0.983565 0.177603
vn -0.767683 0.011103 0.640733
vn 0.002303 -0.942819 0.333298
vn -0.943034 0.057276 0.327730
vn 0.998306 -0.001362 0.058166
vn 0.079762 0.994897 0.061786
vn 0.015940 -0.998054 0.060282
vn 0.998350 -0.004297 0.057266
vn 0.719535 -0.049835 0.692666
vn 0.464620 0.813448 0.349902
vn 0.734971 -0.032285 0.677330
vn -0.148821 -0.986262 0.071693
vn 0.603031 0.112873 -0.789692
vn 0.388293 0.882884 0.264091
vn 0.295832 0.109031 -0.948997
vn -0.017548 -0.998814 0.045410
vn 0.998388 0.017125 0.054105
vn 0.004288 0.999304 0.037056
vn 0.998506 0.013956 0.052834
vn -0.000070 -0.999894 -0.014545
vn 0.943523 0.031952 0.329762
vn 0.370277 0.928155 0.037716
vn 0.408804 0.844251 0.346582
vn 0.718408 -0.009195 0.695562
vn -0.028132 -0.982980 0.181547
vn 0.774666 0.033585 0.631478
vn 0.944919 0.068992 0.319951
vn 0.000142 -0.944885 0.327401
vn 0.689310 0.657223 -0.304813
vn -0.020449 -0.999444 0.026326
vn -0.999702 -0.019702 -0.014418
vn -0.000009 0.966996 -0.254794
vn 0.013519 -0.999609 0.024475
vn -0.013560 -0.999608 0.024480
vn -0.000589 0.108784 -0.994065
vn 0.670424 -0.718564 -0.184924
vn -0.072697 0.996407 -0.043461
vn -0.999826 -0.013242 -0.013129
vn 0.001088 -0.979888 -0.199547
vn -0.071790 0.996462 -0.043703
vn 0.072082 0.996440 -0.043733
vn -0.000652 0.024240 -0.999706
vn -0.691066 0.656051 -0.303356
vn 0.020420 -0.999445 0.026315
vn 0.999720 -0.018525 -0.014749
vn -0.671849 -0.717511 -0.183838
vn 0.073027 0.996382 -0.043482
vn 0.999839 -0.011890 -0.013424
vn -0.063678 0.992584 -0.103548
vn 0.999825 -0.012432 -0.014007
vn 0.033786 -0.995671 0.086589
vn 0.999837 -0.013747 -0.011662
vn 0.030036 -0.996499 0.078027
vn -0.997672 -0.064439 -0.022321
vn 0.019792 -0.988713 0.148508
vn 0.996766 0.034607 -0.072530
vn 0.036557 -0.987050 0.156190
vn -0.994598 -0.103522 -0.007561
vn -0.065214 0.992095 -0.107211
vn -0.998065 -0.058473 -0.021151
vn -0.071782 0.982240 -0.173355
vn 0.998158 0.035523 -0.049189
vn -0.085318 0.980043 -0.179548
vn -0.996262 -0.085801 -0.009950
vn 0.998003 -0.008750 0.062556
vn 0.396459 0.917971 -0.012250
vn -0.796254 -0.537983 -0.276685
vn -0.016978 0.998804 0.045848
vn 0.020696 -0.927432 -0.373418
vn -0.997598 -0.011638 0.068283
vn 0.795571 -0.539459 -0.275773
vn -0.372494 0.927862 -0.017914
vn -0.098337 -0.992386 0.074165
vn -0.997679 -0.016120 0.066149
vn 0.663611 0.674900 -0.322693
vn -0.000773 -0.996105 0.088173
vn 0.001250 0.956515 -0.291679
vn 0.097037 -0.992539 0.073830
vn 0.998051 -0.011226 0.061380
vn -0.669028 0.671046 -0.319528
vn 0.063690 0.992631 -0.103088
vn -0.999768 -0.012227 -0.017733
vn -0.033905 -0.995684 0.086393
vn -0.999783 -0.013862 -0.015566
vn -0.030066 -0.996494 0.078076
vn 0.997649 -0.064483 -0.023207
vn -0.020594 -0.988617 0.149041
vn -0.999407 0.022681 -0.025918
vn -0.037058 -0.986813 0.157566
vn 0.994391 -0.098751 -0.037868
vn 0.065442 0.992101 -0.107020
vn 0.998049 -0.058418 -0.022054
vn 0.074254 0.981678 -0.175486
vn -0.999058 0.032516 -0.028745
vn 0.087455 0.979410 -0.181957
vn 0.996222 -0.082225 -0.027945
vn -0.135980 0.976957 -0.164515
vn -0.999877 0.014731 -0.005334
vn -0.999877 0.014769 -0.005314
vn 0.000152 -0.947725 0.319088
vn 0.999877 0.014968 -0.004612
vn 0.129758 0.978323 -0.161390
vn 0.999878 0.014900 -0.004647
vn 0.000143 -0.947721 0.319099
vn 0.081723 -0.994454 -0.066201
vn -0.843764 0.040297 -0.535199
vn 0.047060 -0.998142 -0.038705
vn 0.815803 0.004226 0.578314
vn -0.843819 0.048828 -0.534403
vn -0.013527 0.988835 0.148401
vn 0.838990 -0.011501 0.544025
vn -0.012909 0.993426 0.113748
vn 0.000803 -0.996744 0.080625
vn -0.998531 -0.018626 -0.050882
vn 0.978257 -0.011591 0.207074
vn 0.030490 -0.991361 0.127565
vn -0.060917 0.897232 0.437338
vn -0.993944 0.014832 0.108883
vn 0.969692 -0.034871 0.241831
vn -0.072865 0.888893 0.452282
vn 0.825031 0.565060 0.005586
vn -0.386271 0.819577 0.423189
vn -0.079879 -0.996758 -0.009601
vn -0.511460 0.072732 -0.856224
vn 0.926832 -0.190059 -0.323821
vn -0.955779 0.130171 0.263708
vn -0.096159 -0.995311 -0.010443
vn -0.528227 0.060517 -0.846944
vn 0.426129 -0.693778 -0.580591
vn -0.932455 -0.352135 -0.080800
vn 0.842118 0.535802 -0.061262
vn 0.384488 -0.698119 -0.603986
vn 0.889511 0.456530 -0.018753
vn -0.062534 0.177268 -0.982174
vn -0.447967 0.782628 0.432226
vn -0.937269 -0.339705 -0.078280
vn -0.395906 0.821769 0.409822
vn -0.112783 -0.989986 -0.084900
vn -0.396819 0.038250 -0.917099
vn 0.964364 -0.009975 -0.264392
vn 0.120908 0.988599 -0.089741
vn 0.999070 -0.015879 -0.040088
vn 0.959951 0.198443 0.197772
vn -0.075705 0.719635 0.690214
vn 0.061313 0.996486 -0.057073
vn -0.490255 0.087860 -0.867139
vn 0.938026 -0.153047 -0.310940
vn 0.115755 0.989275 -0.089077
vn -0.962760 0.115487 -0.244451
vn 0.214919 0.831791 -0.511794
vn 0.949013 0.285921 0.132751
vn -0.984954 -0.053124 -0.164446
vn 0.263170 -0.548259 -0.793822
vn 0.718168 0.693615 0.055976
vn -0.975346 0.069008 -0.209614
vn 0.026820 -0.043693 -0.998685
vn -0.057139 0.201104 -0.977902
vn -0.924713 -0.371900 -0.081222
vn -0.430921 0.797350 0.422540
vn -0.412079 0.019842 -0.910932
vn 0.048532 0.995067 -0.086523
vn -0.959772 0.137694 0.244700
vn -0.115458 -0.989900 -0.082268
vn -0.372115 0.067960 -0.925696
vn -0.989388 0.002412 0.145279
vn -0.962785 0.102009 0.250277
vn 0.065223 0.996263 -0.056625
vn -0.506666 0.076183 -0.858770
vn -0.993602 -0.086535 0.072577
vn -0.120673 0.739666 0.662066
vn 0.483002 0.045170 -0.874453
vn -0.961271 -0.132653 -0.241580
vn -0.993927 0.056051 0.094699
vn -0.045250 -0.998427 -0.033117
vn 0.098445 0.987351 -0.124284
vn -0.988395 0.105567 0.109229
vn 0.059742 -0.997558 0.036167
vn -0.413778 0.018438 -0.910191
vn -0.970557 0.113433 0.212492
vn -0.412360 0.019610 -0.910810
vn 0.915311 -0.103053 -0.389341
vn -0.216942 0.799263 0.560460
vn 0.688954 0.716839 0.107165
vn -0.989306 -0.104153 -0.102110
vn -0.001391 -0.976561 0.215238
vn 0.989419 -0.042704 0.138656
vn 0.008404 -0.982598 0.185552
vn -0.988479 0.004052 -0.151306
vn -0.096781 -0.994335 -0.043948
vn -0.987009 -0.139246 -0.080154
vn -0.297496 0.814382 0.498276
vn -0.073574 -0.996929 -0.026808
vn 0.998700 -0.037407 -0.034622
vn 0.050577 0.993951 -0.097487
vn -0.994130 0.057923 0.091381
vn 0.063892 0.993240 -0.096908
vn 0.972334 -0.039621 -0.230209
vn 0.998246 -0.034545 -0.048077
vn 0.114920 0.032105 -0.992856
vn -0.041256 -0.998396 -0.038779
vn 0.968362 -0.064125 -0.241168
vn 0.116869 0.982455 -0.145343
vn 0.970588 -0.051104 -0.235262
vn -0.410542 0.021111 -0.911597
vn 0.064722 0.994196 -0.085936
vn 0.938237 -0.066087 -0.339624
vn -0.112486 -0.992799 -0.041197
vn 0.977367 -0.025483 -0.210012
vn -0.121295 -0.991292 -0.051257
vn -0.996218 0.060921 0.061950
vn 0.001539 -0.999998 0.001426
vn -0.052979 0.219294 -0.974219
vn 0.493911 -0.664796 -0.560445
vn -0.917694 -0.382942 -0.105799
vn -0.058093 0.196908 -0.978699
vn 0.450367 -0.667507 -0.592963
vn 0.900300 0.429933 -0.067948
vn -0.082035 -0.996161 -0.030542
vn -0.444525 0.010889 -0.895700
vn -0.967575 -0.022713 0.251560
vn -0.449045 0.006021 -0.893489
vn 0.018971 -0.999750 0.011831
vn -0.959677 0.086890 0.267340
vn -0.391175 0.045110 -0.919210
vn -0.083836 -0.996170 -0.024829
vn -0.969820 0.039878 0.240537
vn -0.449153 0.005904 -0.893435
vn -0.079657 -0.996095 -0.038072
vn 0.945367 -0.053562 -0.321577
vn -0.453337 0.001376 -0.891338
vn -0.036214 -0.999121 -0.021109
vn 0.943399 -0.057001 -0.326726
vn -0.987444 0.080750 0.135768
vn -0.989291 0.092503 0.112901
vn -0.081491 -0.996152 -0.032268
vn -0.415038 0.015806 -0.909666
vn 0.954368 -0.041566 -0.295728
vn 0.969434 -0.053602 -0.239425
vn 0.968395 -0.052057 -0.243927
vn -0.121305 0.986275 0.112009
vn -0.121280 0.986277 0.112019
vn -0.121271 0.986279 0.112013
vn -0.121291 0.986276 0.112017
vn -0.121291 0.986276 0.112017
vn -0.066703 0.855646 0.513245
vn -0.121280 0.986278 0.112018
vn -0.104694 0.867625 0.486072
vn -0.003325 0.831379 0.555695
vn -0.048061 0.849062 0.526103
vn -0.875362 -0.190239 0.444468
vn -0.120826 0.756327 0.642939
vn -0.493218 -0.869151 0.036235
vn -0.000634 -0.026721 -0.999643
vn -0.084448 0.704747 0.704415
vn 0.878390 0.099892 0.467389
vn 0.707248 -0.706422 0.027715
vn -0.000633 -0.026720 -0.999643
vn -0.996854 -0.077394 0.017080
vn -0.041276 0.173571 0.983956
vn -0.997862 -0.065291 -0.002924
vn -0.003439 -0.036976 -0.999310
vn 0.560304 0.822002 0.101839
vn -0.015094 0.124375 0.992120
vn 0.467244 0.878658 0.098202
vn -0.000632 -0.026719 -0.999643
vn 0.164654 -0.925043 0.342323
vn 0.680630 -0.544792 0.489842
vn 0.000099 -0.033931 -0.999424
vn 0.986976 0.154697 -0.044129
vn -0.030520 0.167883 0.985334
vn 0.986725 0.162198 0.008053
vn 0.999869 0.015669 -0.004036
vn -0.142625 0.368765 -0.918515
vn -0.000633 -0.026720 -0.999643
vn -0.000633 -0.026721 -0.999643
vn -0.720883 0.683081 0.117167
vn -0.792335 0.601747 0.100525
vn -0.022517 0.111408 0.993520
vn -0.465697 -0.801620 0.374876
vn 0.663751 -0.657455 0.356634
vn -0.968082 -0.248879 0.029610
vn -0.000634 -0.026720 -0.999643
vn -0.153185 0.563444 -0.811828
vn 0.942254 0.101663 0.319096
vn -0.912132 -0.245239 0.328440
vn -0.140834 0.343488 -0.928537
vn 0.960066 0.271479 -0.067616
vn -0.014489 -0.121264 -0.992514
vn 0.942455 0.109402 0.315926
vn -0.008573 0.160458 0.987005
vn 0.808085 0.059857 0.586017
vn -0.774271 -0.086250 0.626949
vn -0.152326 0.541741 -0.826628
vn -0.005629 -0.108153 -0.994118
vn -0.998948 -0.043737 -0.013771
vn -0.959506 -0.093249 0.265805
vn -0.870906 -0.254240 0.420577
vn -0.029424 0.179850 0.983254
vn -0.983774 -0.093748 -0.152972
vn -0.015439 -0.084114 -0.996337
vn -0.018432 -0.100156 -0.994801
vn 0.987481 0.146748 -0.057849
vn 0.128923 0.755375 0.642485
vn 0.870819 -0.160646 0.464614
vn 0.484405 -0.874601 0.020593
vn -0.000638 -0.026719 -0.999643
vn -0.894967 0.087794 0.437408
vn 0.094424 0.712956 0.694822
vn -0.713105 -0.699271 0.050012
vn -0.000636 -0.026721 -0.999643
vn 0.997471 -0.069176 0.016326
vn 0.043287 0.174307 0.983739
vn 0.998236 -0.059265 -0.003522
vn 0.002187 -0.036988 -0.999313
vn 0.016657 0.124265 0.992109
vn -0.546500 0.828289 0.123593
vn -0.475362 0.872579 0.112417
vn -0.000634 -0.026723 -0.999643
vn -0.164345 -0.925021 0.342529
vn -0.678094 -0.552421 0.484787
vn -0.987925 0.153909 -0.017762
vn -0.001365 -0.033912 -0.999424
vn -0.985749 0.164101 0.037004
vn 0.032232 0.167841 0.985287
vn 0.139025 0.360975 -0.922155
vn -0.998897 0.039835 0.024861
vn -0.000636 -0.026723 -0.999643
vn 0.721977 0.682309 0.114910
vn -0.000634 -0.026723 -0.999643
vn 0.793455 0.600463 0.099367
vn 0.024087 0.111472 0.993476
vn 0.471423 -0.801304 0.368337
vn -0.657919 -0.657944 0.366406
vn 0.149771 0.553868 -0.819023
vn -0.000637 -0.026721 -0.999643
vn 0.960821 -0.277119 -0.005378
vn -0.945346 0.104261 0.308949
vn 0.910823 -0.245986 0.331501
vn 0.013223 -0.121267 -0.992532
vn -0.951625 0.301550 -0.058973
vn 0.137138 0.334620 -0.932321
vn -0.942943 0.115174 0.312398
vn 0.010322 0.171058 0.985207
vn -0.808575 0.073347 0.583803
vn 0.769109 -0.083513 0.633638
vn 0.148818 0.531123 -0.834123
vn 0.996769 -0.074067 -0.031086
vn 0.004361 -0.108153 -0.994125
vn 0.960745 -0.085689 0.263868
vn 0.873939 -0.215837 0.435482
vn 0.030764 0.188953 0.981504
vn 0.014149 -0.084091 -0.996358
vn 0.984176 -0.086747 -0.154507
vn -0.988417 0.141089 -0.055902
vn 0.017131 -0.099938 -0.994846
vn -0.972383 -0.232815 0.016401
vn -0.196353 0.977900 -0.071812
vn 0.569499 -0.394474 -0.721153
vn -0.196367 0.977899 -0.071793
vn 0.994077 0.108427 -0.007438
vn -0.163904 -0.591827 -0.789225
vn 0.166011 -0.983481 0.072151
vn 0.813285 -0.580278 0.042940
vn -0.359867 0.246314 -0.899903
vn -0.972393 -0.232763 0.016508
vn 0.278567 0.396865 -0.874585
vn 0.210809 0.974922 -0.071320
vn 0.986579 -0.162814 0.012434
vn -0.510147 -0.507709 -0.694249
vn -0.996263 0.086097 -0.006820
vn 0.210800 0.974923 -0.071332
vn 0.191626 -0.692670 -0.695333
vn -0.166022 -0.983491 0.071993
vn -0.298130 0.372048 -0.879033
vn -0.810467 -0.584248 0.042397
vn 0.335496 0.242277 -0.910354
vn 0.986579 -0.162813 0.012437
vn -0.360579 0.605311 -0.709635
vn 0.101675 -0.991081 0.086146
vn 0.917561 0.104661 0.383573
vn -0.262094 -0.538171 -0.801049
vn -0.057963 0.962126 0.266371
vn 0.918971 0.103666 0.380455
vn 0.636301 0.555907 -0.534872
vn 0.093453 -0.991199 0.093758
vn -0.994344 -0.066267 -0.083001
vn 0.136483 -0.990483 -0.017757
vn 0.902378 0.098415 0.419558
vn -0.054418 0.963235 0.263092
vn -0.994816 -0.072561 -0.071243
vn 0.720248 -0.307933 -0.621628
vn -0.054935 0.962861 0.264349
vn 0.906276 0.091438 0.412679
vn -0.970009 -0.045473 -0.238777
vn -0.058185 0.963489 0.261348
vn -0.356348 -0.493763 -0.793230
vn 0.981411 0.093693 0.167491
vn -0.011324 0.993503 0.113237
vn -0.498451 0.458436 -0.735787
vn 0.977286 0.167251 0.130154
vn 0.244563 -0.967843 -0.058895
vn 0.669978 -0.411195 -0.618101
vn -0.947286 -0.039402 -0.317955
vn -0.002026 0.993654 0.112460
vn 0.551419 0.648067 -0.525306
vn -0.960686 -0.000837 -0.277635
vn 0.199020 -0.975539 -0.093351
vn -0.964509 -0.044630 -0.260250
vn 0.132086 -0.991184 -0.010345
vn -0.100967 0.950989 0.292276
vn -0.002480 0.999314 0.036938
vn -0.121280 0.986278 0.112011
vn -0.121290 0.986277 0.112010
vn -0.121250 0.986283 0.112000
vn -0.121290 0.986278 0.112005
vn -0.121312 0.986273 0.112024
vn -0.121333 0.986268 0.112047
vn -0.389742 0.881918 0.265182
vn -0.598068 0.107784 -0.794165
vn -0.081714 -0.994457 -0.066162
vn 0.843650 0.040737 -0.535346
vn -0.047127 -0.998137 -0.038742
vn -0.815512 0.004268 0.578725
vn 0.843809 0.048761 -0.534424
vn 0.013542 0.988860 0.148228
vn -0.838753 -0.011463 0.544392
vn 0.012823 0.993440 0.113631
vn -0.000829 -0.996744 0.080627
vn 0.998526 -0.018682 -0.050954
vn -0.978259 -0.011595 0.207061
vn -0.030514 -0.991360 0.127567
vn 0.060942 0.897238 0.437322
vn 0.993962 0.014768 0.108728
vn -0.969691 -0.034871 0.241833
vn 0.072899 0.888893 0.452278
vn -0.825001 0.565104 0.005586
vn 0.386270 0.819582 0.423179
vn 0.079799 -0.996765 -0.009611
vn 0.511534 0.072681 -0.856183
vn -0.926879 -0.189812 -0.323833
vn 0.955780 0.130167 0.263705
vn 0.096062 -0.995321 -0.010453
vn 0.528232 0.060516 -0.846941
vn -0.426146 -0.693763 -0.580597
vn 0.932444 -0.352162 -0.080811
vn -0.842095 0.535836 -0.061282
vn -0.384502 -0.698105 -0.603993
vn -0.889503 0.456545 -0.018742
vn 0.062538 0.177275 -0.982172
vn 0.447967 0.782628 0.432226
vn 0.937271 -0.339695 -0.078291
vn 0.395908 0.821774 0.409810
vn 0.112763 -0.989988 -0.084896
vn 0.396768 0.038190 -0.917124
vn -0.964364 -0.009975 -0.264391
vn -0.120885 0.988602 -0.089743
vn -0.999070 -0.015882 -0.040088
vn -0.959951 0.198459 0.197760
vn 0.075709 0.719634 0.690214
vn -0.061315 0.996485 -0.057073
vn 0.490412 0.087751 -0.867061
vn -0.938045 -0.152863 -0.310973
vn -0.115724 0.989278 -0.089087
vn 0.962775 0.115485 -0.244392
vn -0.214916 0.831770 -0.511830
vn -0.949010 0.285936 0.132740
vn 0.984956 -0.053139 -0.164434
vn -0.263177 -0.548249 -0.793827
vn -0.718122 0.693659 0.056020
vn 0.975350 0.068990 -0.209603
vn -0.026835 -0.043678 -0.998685
vn 0.057145 0.201106 -0.977901
vn 0.924712 -0.371900 -0.081222
vn 0.430921 0.797350 0.422540
vn 0.412028 0.019889 -0.910954
vn -0.048450 0.995072 -0.086514
vn 0.959727 0.137792 0.244823
vn 0.115426 -0.989903 -0.082276
vn 0.372128 0.067832 -0.925700
vn 0.989421 0.002085 0.145057
vn 0.962803 0.101932 0.250240
vn -0.065249 0.996261 -0.056621
vn 0.506757 0.076120 -0.858722
vn 0.993598 -0.086588 0.072563
vn 0.120669 0.739658 0.662076
vn -0.482996 0.045189 -0.874456
vn 0.961255 -0.132722 -0.241606
vn 0.993947 0.055844 0.094613
vn 0.045209 -0.998428 -0.033124
vn -0.098432 0.987353 -0.124281
vn 0.988399 0.105569 0.109190
vn -0.059715 -0.997561 0.036150
vn 0.413668 0.018534 -0.910239
vn 0.970453 0.113690 0.212828
vn 0.412299 0.019666 -0.910837
vn -0.915313 -0.103048 -0.389336
vn 0.216937 0.799261 0.560465
vn -0.688905 0.716881 0.107192
vn 0.989310 -0.104143 -0.102079
vn 0.001372 -0.976563 0.215226
vn -0.989424 -0.042711 0.138623
vn -0.008423 -0.982599 0.185549
vn 0.988480 0.004095 -0.151298
vn 0.096754 -0.994338 -0.043948
vn 0.986993 -0.139360 -0.080151
vn 0.297489 0.814379 0.498284
vn 0.073553 -0.996931 -0.026813
vn -0.998701 -0.037403 -0.034610
vn -0.050533 0.993953 -0.097490
vn 0.994147 0.057734 0.091313
vn -0.063846 0.993243 -0.096911
vn -0.972330 -0.039623 -0.230226
vn -0.998246 -0.034529 -0.048081
vn -0.114903 0.031678 -0.992871
vn 0.041223 -0.998397 -0.038786
vn -0.968363 -0.064094 -0.241173
vn -0.116867 0.982455 -0.145341
vn -0.970587 -0.050876 -0.235313
vn 0.410544 0.021114 -0.911596
vn -0.064656 0.994201 -0.085927
vn -0.938258 -0.066048 -0.339573
vn 0.112444 -0.992803 -0.041205
vn -0.977378 -0.025467 -0.209963
vn 0.121238 -0.991298 -0.051268
vn 0.996200 0.061145 0.062016
vn -0.001565 -0.999998 0.001442
vn 0.052988 0.219291 -0.974220
vn -0.493935 -0.664784 -0.560438
vn 0.917694 -0.382942 -0.105799
vn 0.058100 0.196910 -0.978699
vn -0.450386 -0.667496 -0.592961
vn -0.900293 0.429951 -0.067933
vn 0.082013 -0.996162 -0.030565
vn 0.444525 0.010889 -0.895700
vn 0.967660 -0.022708 0.251234
vn 0.449047 0.006019 -0.893488
vn -0.018989 -0.999750 0.011842
vn 0.959662 0.086998 0.267358
vn 0.391136 0.045037 -0.919230
vn 0.083809 -0.996172 -0.024867
vn 0.969828 0.039930 0.240498
vn 0.449155 0.005902 -0.893434
vn 0.079640 -0.996096 -0.038078
vn -0.945367 -0.053563 -0.321579
vn 0.453341 0.001372 -0.891336
vn 0.036160 -0.999124 -0.021077
vn -0.943411 -0.056956 -0.326697
vn 0.987442 0.080783 0.135763
vn 0.989264 0.092654 0.113013
vn 0.081469 -0.996153 -0.032289
vn 0.414934 0.015805 -0.909714
vn -0.954368 -0.041566 -0.295728
vn -0.969443 -0.053596 -0.239392
vn -0.968403 -0.051954 -0.243921
vn -0.917607 0.104679 0.383457
vn 0.360606 0.605338 -0.709598
vn -0.101707 -0.991078 0.086136
vn -0.919018 0.103683 0.380335
vn 0.262080 -0.538210 -0.801027
vn 0.057985 0.962125 0.266371
vn -0.093468 -0.991197 0.093763
vn -0.636311 0.555942 -0.534824
vn 0.994334 -0.066252 -0.083133
vn -0.136500 -0.990481 -0.017760
vn -0.902395 0.098421 0.419520
vn -0.720263 -0.307949 -0.621601
vn 0.054424 0.963238 0.263078
vn 0.994808 -0.072542 -0.071383
vn -0.906296 0.091445 0.412633
vn 0.054946 0.962861 0.264348
vn 0.969989 -0.045467 -0.238862
vn 0.058188 0.963492 0.261337
vn 0.356404 -0.493760 -0.793207
vn 0.011355 0.993504 0.113231
vn -0.981414 0.093693 0.167475
vn 0.498517 0.458421 -0.735752
vn -0.244540 -0.967849 -0.058893
vn -0.977287 0.167253 0.130136
vn -0.669953 -0.411223 -0.618108
vn 0.002047 0.993655 0.112453
vn 0.947324 -0.039323 -0.317854
vn -0.551461 0.648044 -0.525291
vn -0.199004 -0.975543 -0.093347
vn 0.960694 -0.000831 -0.277609
vn -0.132095 -0.991183 -0.010347
vn 0.964490 -0.044621 -0.260323
vn 0.177580 0.945620 0.272521
vn -0.172828 0.945591 0.275659
vn -0.593945 -0.320765 -0.737793
vn 0.990403 -0.126555 -0.055549
vn 0.159170 0.961777 -0.222822
vn -0.125183 -0.971651 0.200556
vn 0.985884 -0.152543 -0.069014
vn -0.220013 0.392981 -0.892838
vn 0.427257 -0.354991 -0.831524
vn 0.131883 0.968861 -0.209557
vn -0.994257 0.077627 -0.073672
vn -0.089527 -0.979427 0.180854
vn 0.285574 0.276657 -0.917556
vn -0.996540 0.058780 -0.058758
vn -0.131483 0.970145 -0.203790
vn -0.369860 -0.317186 -0.873268
vn 0.986558 0.082582 -0.141008
vn -0.160601 0.962949 -0.216650
vn -0.991171 -0.132413 -0.006777
vn 0.572380 -0.344287 -0.744209
vn 0.225928 0.400055 -0.888207
vn -0.987575 -0.155974 -0.019167
vn 0.125443 -0.972878 0.194352
vn -0.299033 0.296218 -0.907102
vn 0.088743 -0.980403 0.175881
vn 0.988949 0.069586 -0.130909
vn -0.430244 0.902075 -0.033941
vn 0.387197 -0.863717 -0.322600
vn 0.411447 0.911296 -0.015827
vn -0.382657 -0.862026 -0.332393
g fff01765_00112_01055942_e2
f 9/42/17 29/40/62 8/41/16
f 23/264/44 24/265/45 8/338/15
f 21/20/40 7/20/14 8/20/15
f 91/286/198 94/286/205 91/286/199
f 29/29/59 29/28/60 9/45/17
f 6/234/11 140/464/293 101/2/218
f 29/39/60 29/40/62 9/42/17
f 11/20/19 11/20/20 10/20/18
f 1/20/1 4/20/7 3/20/6
f 134/250/283 134/248/282 139/251/291
f 23/268/44 8/339/15 1/340/2
f 11/20/19 12/20/21 11/20/20
f 102/23/220 134/451/283 101/31/219
f 1/20/1 1/20/2 4/20/7
f 23/269/43 23/268/44 1/340/2
f 24/275/45 21/275/40 8/275/15
f 3/20/5 101/20/218 3/20/6
f 10/20/18 29/20/61 29/20/59
f 91/286/198 92/286/200 96/286/208
f 92/248/200 91/249/198 92/250/201
f 3/20/5 3/20/6 4/20/7
f 133/256/280 134/258/283 133/257/281
f 145/477/302 1/226/1 22/243/41
f 9/279/17 13/280/24 11/278/19
f 6/285/12 3/283/5 13/282/24
f 96/286/208 95/286/206 91/286/198
f 21/242/40 145/479/303 7/238/14
f 96/20/209 94/20/204 92/20/200
f 10/246/18 13/228/23 8/230/16
f 22/20/42 23/20/43 1/20/2
f 93/252/203 91/253/199 93/254/202
f 97/453/210 97/236/211 140/463/293
f 101/20/219 136/20/286 102/20/221
f 7/20/14 11/20/20 12/20/21
f 97/224/211 140/462/292 11/240/20
f 7/20/14 12/20/21 8/20/15
f 22/20/42 1/20/2 1/20/1
f 97/457/211 11/239/20 7/233/14
f 29/38/60 92/452/201 93/447/203
f 11/20/19 10/20/18 29/20/59
f 12/277/21 11/271/19 4/272/7
f 5/302/10 140/235/292 97/456/211
f 134/258/283 135/261/285 133/257/281
f 22/241/41 1/232/1 7/238/14
f 95/286/206 94/286/205 91/286/198
f 29/27/61 29/26/62 94/449/204
f 94/20/204 93/20/202 92/20/200
f 93/286/202 95/286/207 96/286/208
f 140/302/293 97/456/211 3/236/6
f 135/286/284 138/286/289 133/286/281
f 101/43/218 102/34/221 2/46/3
f 94/449/204 29/26/62 93/448/203
f 8/46/16 29/33/62 29/34/61
f 92/286/200 93/286/202 96/286/208
f 91/286/199 94/286/205 95/286/207
f 92/451/201 29/31/59 96/450/209
f 94/255/204 93/252/203 93/254/202
f 8/266/15 4/276/7 1/270/2
f 9/45/17 11/44/19 29/29/59
f 94/20/204 96/20/209 29/20/59
f 29/38/60 93/447/203 29/37/62
f 10/43/18 8/46/16 29/34/61
f 3/231/6 97/457/211 1/229/1
f 102/38/220 103/37/222 135/447/285
f 93/286/202 91/286/199 95/286/207
f 6/259/12 6/260/11 2/262/4
f 8/266/15 12/267/21 4/274/7
f 92/258/201 91/257/199 93/261/203
f 140/463/293 3/236/6 101/1/218
f 29/20/59 29/20/61 94/20/204
f 97/457/211 7/233/14 1/229/1
f 13/259/24 9/262/17 13/260/23
f 91/256/198 91/257/199 92/258/201
f 29/23/60 29/31/59 92/451/201
f 11/281/19 13/282/24 3/283/5
f 2/284/4 3/283/5 6/285/12
f 4/272/7 11/271/19 3/273/5
f 13/260/23 9/262/17 8/263/16
f 6/260/11 2/263/3 2/262/4
f 92/250/201 96/251/209 92/248/200
f 101/247/218 2/237/3 6/234/11
f 2/42/4 2/41/3 103/40/222
f 133/286/280 133/286/281 137/286/287
f 101/29/219 2/45/4 102/28/220
f 102/39/220 2/42/4 103/40/222
f 101/20/218 101/20/219 102/20/221
f 133/286/280 139/286/290 134/286/282
f 134/248/282 134/250/283 133/249/280
f 139/286/290 133/286/280 138/286/288
f 139/20/291 134/20/282 136/20/286
f 135/252/285 135/254/284 133/253/281
f 102/38/220 135/447/285 134/452/283
f 3/20/5 101/20/219 101/20/218
f 138/286/288 133/286/280 137/286/287
f 102/27/221 136/449/286 103/26/222
f 136/20/286 134/20/282 135/20/284
f 135/286/284 139/286/290 138/286/289
f 136/449/286 135/448/285 103/26/222
f 2/46/3 102/34/221 103/33/222
f 134/286/282 139/286/290 135/286/284
f 133/286/281 138/286/289 137/286/287
f 134/451/283 139/450/291 101/31/219
f 136/255/286 135/254/284 135/252/285
f 2/45/4 101/29/219 3/44/5
f 136/20/286 101/20/219 139/20/291
f 140/461/292 13/228/23 10/245/18
f 140/462/292 10/225/18 11/240/20
f 15/287/28 22/288/42 16/289/29
f 15/337/27 23/290/44 23/291/43
f 23/297/44 15/336/27 24/295/45
f 15/337/27 23/291/43 14/296/26
f 17/298/31 21/299/40 24/295/45
f 15/287/28 23/291/43 22/288/42
f 21/299/40 16/292/29 145/480/303
f 15/287/28 14/296/26 23/291/43
f 17/298/31 24/295/45 16/294/30
f 16/289/29 145/478/302 22/300/41
f 17/298/31 16/292/29 21/299/40
f 15/336/27 16/294/30 24/295/45
f 90/437/196 89/435/194 74/384/160
f 74/384/160 77/381/167 90/437/196
f 90/437/196 77/426/166 90/438/195
f 77/426/166 90/437/196 77/381/167
f 60/405/128 72/406/154 88/430/192
f 88/430/192 86/429/188 60/405/128
f 60/405/128 87/431/189 61/418/130
f 87/431/189 60/405/128 86/429/188
f 61/418/130 88/432/191 65/408/137
f 88/432/191 61/418/130 87/431/189
f 64/425/136 65/408/137 88/432/191
f 88/432/191 87/433/190 64/425/136
f 74/375/158 74/384/160 89/435/194
f 89/435/194 89/434/193 74/375/158
f 74/375/158 91/436/197 85/376/184
f 91/436/197 74/375/158 89/434/193
f 22/244/42 1/226/1 145/477/302
f 16/289/29 22/288/42 145/478/302
f 145/479/303 22/241/41 7/238/14
f 145/480/303 16/292/29 22/293/41
g fff01765_00112_01055942_e0
f 35/152/76 31/163/66 30/153/64
f 37/145/80 40/138/87 44/139/97
f 50/161/109 49/170/108 39/158/83
f 47/109/104 42/108/92 39/107/84
f 49/117/108 50/116/109 32/113/70
f 12/15/22 28/348/58 14/14/25
f 28/347/58 12/19/22 28/344/57
f 37/135/80 44/134/96 43/133/94
f 40/155/86 32/140/69 41/164/89
f 52/89/114 52/90/113 51/111/111
f 47/60/104 42/61/90 47/50/103
f 28/346/58 28/345/56 7/5/13
f 7/5/13 14/6/25 28/346/58
f 7/10/13 27/343/55 4/11/8
f 41/53/89 31/52/68 46/51/102
f 28/344/57 5/17/9 27/341/54
f 5/17/9 28/344/57 12/19/22
f 45/66/100 36/77/77 45/65/99
f 30/126/65 35/125/76 40/114/87
f 27/343/55 27/342/54 4/12/8
f 41/56/88 35/55/75 36/54/78
f 45/65/99 36/77/77 40/76/86
f 4/16/8 27/341/54 5/17/9
f 40/114/87 35/125/76 43/122/93
f 38/157/82 36/169/78 45/150/99
f 37/115/79 41/119/88 38/120/81
f 48/85/105 44/84/96 48/86/106
f 41/144/88 37/145/80 44/156/97
f 45/64/100 36/68/78 35/67/75
f 51/93/111 49/94/107 52/91/114
f 48/85/105 45/75/98 44/84/96
f 46/141/101 43/148/95 45/166/98
f 43/83/95 43/82/94 45/101/98
f 49/94/107 51/93/111 42/92/91
f 31/123/66 35/125/76 30/126/65
f 37/136/80 41/137/88 38/128/82
f 38/157/82 45/150/99 41/168/89
f 30/100/64 30/99/63 43/83/95
f 44/156/97 32/142/70 41/144/88
f 30/99/63 43/82/94 43/83/95
f 33/172/71 33/173/72 31/171/67
f 33/143/71 31/176/67 38/174/81
f 34/98/74 48/87/105 40/81/85
f 52/80/113 54/96/117 50/95/110
f 31/176/67 43/175/93 38/174/81
f 38/174/81 43/160/93 37/159/79
f 44/97/96 45/101/98 43/82/94
f 40/132/87 37/135/80 43/133/94
f 36/165/77 31/146/68 40/155/86
f 40/81/85 48/87/105 48/88/106
f 41/53/89 32/70/69 31/52/68
f 33/121/71 38/120/81 41/119/88
f 46/71/102 46/72/101 38/73/82
f 54/102/117 34/105/74 51/106/112
f 33/112/71 32/113/70 50/116/109
f 51/106/112 34/105/74 40/104/85
f 42/59/90 46/57/101 47/69/103
f 32/140/69 40/155/86 31/146/68
f 51/111/111 52/90/113 50/110/110
f 34/149/73 39/158/83 32/151/70
f 39/49/83 33/48/72 50/47/109
f 45/63/99 36/68/78 45/64/100
f 43/122/93 44/124/97 40/114/87
f 50/95/110 54/96/117 51/79/112
f 40/155/86 41/164/89 45/154/99
f 42/59/90 38/58/82 46/57/101
f 39/62/84 42/61/90 47/60/104
f 40/132/87 30/130/63 30/131/65
f 42/108/92 42/103/91 39/107/84
f 41/74/89 46/71/102 38/73/82
f 37/78/79 35/55/75 41/56/88
f 44/134/96 37/136/80 38/128/82
f 40/132/87 43/133/94 30/129/63
f 46/141/101 37/159/79 43/148/95
f 49/170/108 32/151/70 39/158/83
f 34/147/73 32/142/70 44/156/97
f 43/160/93 35/162/76 37/159/79
f 46/141/101 35/167/75 37/159/79
f 35/152/76 30/153/64 43/148/95
f 33/173/72 33/172/71 50/161/109
f 36/127/78 38/128/82 41/137/88
f 37/159/79 35/152/76 43/148/95
f 41/119/88 32/118/70 33/121/71
f 109/152/236 104/153/224 104/163/226
f 110/145/240 117/139/257 113/138/247
f 127/161/269 111/158/243 126/170/268
f 124/109/264 112/107/244 114/108/252
f 126/117/268 106/113/230 127/116/269
f 110/135/240 116/133/254 117/134/256
f 112/155/246 113/164/249 106/140/229
f 130/89/274 128/111/271 129/90/273
f 124/60/264 123/50/263 114/61/250
f 113/53/249 122/51/262 105/52/228
f 120/66/260 119/65/259 109/77/237
f 104/126/225 113/114/247 109/125/236
f 113/56/248 110/54/238 109/55/235
f 119/65/259 112/76/246 109/77/237
f 113/114/247 115/122/253 109/125/236
f 111/157/242 119/150/259 110/169/238
f 110/115/239 111/120/241 113/119/248
f 124/85/265 125/86/266 117/84/256
f 113/144/248 117/156/257 110/145/240
f 120/64/260 109/67/235 110/68/238
f 128/93/271 130/91/274 125/94/267
f 124/85/265 117/84/256 118/75/258
f 121/141/261 118/166/258 117/148/255
f 117/83/255 118/101/258 116/82/254
f 125/94/267 114/92/251 128/93/271
f 104/123/226 104/126/225 109/125/236
f 110/136/240 111/128/242 113/137/248
f 111/157/242 113/168/249 119/150/259
f 104/100/224 117/83/255 103/99/223
f 117/156/257 113/144/248 106/142/230
f 103/99/223 117/83/255 116/82/254
f 107/172/231 105/171/227 108/173/232
f 107/143/231 111/174/241 105/176/227
f 108/98/234 112/81/245 124/87/265
f 129/80/273 128/95/270 131/96/277
f 105/176/227 111/174/241 115/175/253
f 111/174/241 110/159/239 115/160/253
f 117/97/256 116/82/254 118/101/258
f 113/132/247 116/133/254 110/135/240
f 109/165/237 112/155/246 105/146/228
f 112/81/245 125/88/266 124/87/265
f 113/53/249 105/52/228 106/70/229
f 107/121/231 113/119/248 111/120/241
f 122/71/262 111/73/242 121/72/261
f 131/102/277 129/106/272 108/105/234
f 107/112/231 127/116/269 106/113/230
f 129/106/272 112/104/245 108/105/234
f 114/59/250 123/69/263 121/57/261
f 106/140/229 105/146/228 112/155/246
f 128/111/271 128/110/270 129/90/273
f 108/149/233 106/151/230 111/158/243
f 111/49/243 127/47/269 108/48/232
f 119/63/259 120/64/260 110/68/238
f 115/122/253 113/114/247 117/124/257
f 128/95/270 129/79/272 131/96/277
f 112/155/246 119/154/259 113/164/249
f 114/59/250 121/57/261 111/58/242
f 112/62/244 124/60/264 114/61/250
f 113/132/247 104/131/225 103/130/223
f 114/108/252 112/107/244 114/103/251
f 113/74/249 111/73/242 122/71/262
f 110/78/239 113/56/248 109/55/235
f 117/134/256 111/128/242 110/136/240
f 113/132/247 103/129/223 116/133/254
f 121/141/261 117/148/255 110/159/239
f 126/170/268 111/158/243 106/151/230
f 108/147/233 117/156/257 106/142/230
f 115/160/253 110/159/239 109/162/236
f 121/141/261 110/159/239 109/167/235
f 109/152/236 117/148/255 104/153/224
f 108/173/232 127/161/269 107/172/231
f 110/127/238 113/137/248 111/128/242
f 110/159/239 117/148/255 109/152/236
f 113/119/248 107/121/231 106/118/230
g fff01765_00112_01055942_e6
f 58/365/124 58/362/123 57/364/121
f 56/361/120 58/362/123 58/365/124
f 58/365/124 57/364/121 59/366/125
f 59/366/125 57/364/121 57/363/122
g fff01765_00112_01055942_e1
f 44/358/96 38/355/82 53/357/116
f 51/218/111 50/203/110 51/193/112
f 42/219/90 39/205/84 51/218/111
f 48/195/106 51/193/112 40/204/85
f 45/202/100 46/201/102 36/200/77
f 53/356/115 38/355/82 42/360/90
f 36/200/77 46/201/102 31/199/68
f 44/358/96 53/357/116 48/359/106
f 53/192/115 42/219/90 51/218/111
f 53/194/116 53/192/115 51/193/112
f 42/217/91 51/218/111 39/205/84
f 51/193/112 53/192/115 51/218/111
f 45/220/100 46/216/101 46/215/102
f 38/355/82 53/356/115 53/357/116
f 35/214/75 46/216/101 45/220/100
f 48/195/106 53/194/116 51/193/112
f 54/179/117 55/178/119 54/177/118
f 31/213/67 34/212/73 44/211/97
f 46/350/101 55/349/119 47/354/103
f 31/213/67 44/211/97 43/208/93
f 48/353/105 54/352/118 45/351/98
f 54/185/117 54/180/118 48/184/105
f 54/352/118 55/349/119 45/351/98
f 54/183/117 52/182/113 52/181/114
f 34/209/73 31/210/67 39/207/83
f 34/186/74 54/185/117 48/184/105
f 42/187/92 47/196/104 52/191/114
f 54/190/117 52/189/114 55/188/119
f 47/196/104 47/197/103 52/191/114
f 31/210/67 33/206/72 39/207/83
f 55/198/119 52/191/114 47/197/103
f 55/349/119 46/350/101 45/351/98
f 117/358/256 131/357/276 111/355/242
f 128/218/271 129/193/272 128/203/270
f 114/219/250 128/218/271 112/205/244
f 125/195/266 112/204/245 129/193/272
f 120/202/260 109/200/237 122/201/262
f 130/356/275 114/360/250 111/355/242
f 109/200/237 105/199/228 122/201/262
f 117/358/256 125/359/266 131/357/276
f 130/192/275 128/218/271 114/219/250
f 131/194/276 129/193/272 130/192/275
f 114/217/251 112/205/244 128/218/271
f 129/193/272 128/218/271 130/192/275
f 120/220/260 122/215/262 121/216/261
f 111/355/242 131/357/276 130/356/275
f 109/214/235 120/220/260 121/216/261
f 125/195/266 129/193/272 131/194/276
f 131/179/277 132/177/278 132/178/279
f 105/213/227 117/211/257 108/212/233
f 121/350/261 123/354/263 132/349/279
f 105/213/227 115/208/253 117/211/257
f 124/353/265 118/351/258 132/352/278
f 131/185/277 124/184/265 132/180/278
f 132/352/278 118/351/258 132/349/279
f 131/183/277 130/181/274 129/182/273
f 108/209/233 111/207/243 105/210/227
f 108/186/234 124/184/265 131/185/277
f 114/187/252 130/191/274 124/196/264
f 131/190/277 132/188/279 130/189/274
f 124/196/264 130/191/274 123/197/263
f 105/210/227 111/207/243 108/206/232
f 132/198/279 123/197/263 130/191/274
f 132/349/279 118/351/258 121/350/261
g fff01765_00112_01055942_e3
f 19/469/35 18/470/33 19/305/36
f 142/471/298 143/304/299 21/305/39
f 145/471/301 144/306/300 88/471/191
f 18/470/33 18/303/34 19/305/36
f 19/305/36 145/471/301 19/469/35
f 26/322/50 142/472/297 141/321/295
f 25/473/47 26/322/50 25/320/48
f 26/474/49 26/322/50 25/473/47
f 25/332/48 15/333/27 25/475/47
f 26/320/51 27/474/52 24/473/46
f 20/316/37 15/318/28 16/317/29
f 26/332/51 24/475/46 16/333/29
f 142/471/298 21/305/39 20/469/38
f 14/318/26 18/316/34 15/317/27
f 15/317/27 18/316/34 18/476/33
f 26/332/51 16/333/29 17/334/31
f 20/303/37 17/470/32 20/469/38
f 89/472/194 141/472/296 140/321/294
f 20/469/38 21/305/39 20/303/37
f 141/472/296 27/474/52 27/322/53
f 20/316/37 16/317/29 17/476/32
f 16/334/30 15/333/27 25/332/48
f 27/474/52 26/320/51 27/322/53
f 26/322/50 26/474/49 142/472/297
f 140/321/294 27/322/53 26/322/50
f 26/332/51 16/334/30 25/332/48
f 21/305/39 18/303/34 20/303/37
f 27/322/53 26/320/51 25/320/48
f 89/321/193 140/321/294 90/321/195
f 20/316/37 14/318/26 15/318/28
f 26/332/51 17/334/31 16/334/30
f 20/316/37 18/316/34 14/318/26
f 27/322/53 25/320/48 26/322/50
f 143/304/299 144/306/300 19/305/36
f 143/304/299 19/305/36 21/305/39
f 21/305/39 19/305/36 18/303/34
f 89/472/194 140/321/294 89/321/193
f 141/321/295 140/321/294 26/322/50
f 141/321/295 90/472/196 90/321/195
f 90/321/195 140/321/294 141/321/295
f 140/321/294 141/472/296 27/322/53
f 141/321/295 142/472/297 90/472/196
f 87/471/189 86/304/188 142/471/298
f 142/471/298 86/304/188 143/304/299
f 86/304/188 88/306/192 143/304/299
f 144/306/300 88/306/192 88/471/191
f 143/304/299 88/306/192 144/306/300
f 19/305/36 144/306/300 145/471/301
g fff01765_00112_01055942_e4
f 15/335/27 16/330/29 25/329/47
f 15/319/27 18/313/33 16/314/29
f 20/308/38 145/468/301 142/467/298
f 17/311/32 19/310/35 20/308/38
f 19/310/35 17/311/32 18/312/33
f 16/330/29 24/331/46 25/329/47
f 24/327/46 27/324/52 26/326/49
f 16/314/29 18/313/33 17/315/32
f 26/326/49 25/328/47 24/327/46
f 26/326/49 27/324/52 142/466/297
f 19/310/35 145/468/301 20/308/38
f 142/466/297 141/465/296 90/325/196
f 141/465/296 89/323/194 90/325/196
f 142/466/297 27/324/52 141/465/296
f 142/467/298 88/309/191 87/307/189
f 145/468/301 88/309/191 142/467/298
g fff01765_00112_01055942_e7
f 104/25/225 137/439/287 138/445/289
f 138/441/288 104/30/224 139/443/290
f 58/365/124 59/366/125 60/368/127
f 60/368/127 59/367/126 58/365/124
f 104/36/226 104/35/224 137/440/287
f 104/25/225 104/24/226 137/439/287
f 72/406/154 69/402/147 68/410/143
f 62/411/132 63/398/133 73/412/156
f 62/411/132 72/421/155 66/394/139
f 63/395/134 66/394/139 64/396/135
f 78/392/169 77/374/165 78/373/168
f 69/407/146 70/419/149 61/418/130
f 69/402/147 71/413/151 72/414/153
f 63/398/133 67/397/141 65/399/138
f 60/405/128 69/402/147 72/406/154
f 82/379/176 75/401/161 81/380/174
f 69/402/147 68/403/145 61/404/129
f 67/393/142 67/397/141 63/398/133
f 60/405/128 61/418/130 70/420/150
f 67/397/141 67/393/142 63/395/134
f 76/378/163 80/382/172 75/387/162
f 67/393/142 62/411/132 66/394/139
f 72/414/153 71/413/151 62/411/132
f 68/410/143 69/402/147 61/404/129
f 66/394/139 70/419/149 65/399/138
f 81/386/173 74/377/159 83/369/177
f 79/417/170 84/371/182 82/370/175
f 72/414/153 62/411/132 73/412/156
f 85/428/185 84/383/180 74/375/158
f 69/407/146 68/409/144 62/422/131
f 74/384/160 82/379/176 77/381/167
f 63/398/133 65/399/138 73/400/157
f 83/415/179 74/384/160 84/383/180
f 82/379/176 74/384/160 83/415/179
f 83/415/179 78/373/168 86/389/187
f 81/386/173 81/380/174 74/377/159
f 83/369/177 84/391/181 74/375/158
f 66/394/139 65/399/138 64/396/135
f 86/389/187 76/378/163 86/388/186
f 63/395/134 64/396/135 67/397/141
f 68/410/143 61/404/129 68/409/144
f 85/390/183 84/371/182 86/388/186
f 75/387/162 78/392/169 85/428/185
f 85/390/183 75/387/162 84/391/181
f 83/427/178 86/388/186 84/371/182
f 69/407/146 65/408/137 68/409/144
f 67/393/142 66/394/139 63/395/134
f 80/382/172 76/385/164 78/392/169
f 86/388/186 83/427/178 86/389/187
f 83/415/179 86/389/187 83/427/178
f 76/385/164 77/374/165 78/392/169
f 69/407/146 62/422/131 66/423/140
f 83/369/177 85/390/183 84/391/181
f 78/392/169 78/373/168 83/415/179
f 84/371/182 79/417/170 83/427/178
f 85/428/185 78/392/169 84/383/180
f 76/378/163 86/389/187 78/373/168
f 83/415/179 83/427/178 82/379/176
f 79/372/171 76/385/164 80/382/172
f 71/416/152 69/424/148 66/423/140
f 82/379/176 83/427/178 79/417/170
f 83/415/179 84/383/180 78/392/169
f 84/371/182 85/390/183 83/369/177
f 70/419/149 69/424/148 73/400/157
f 75/387/162 86/388/186 76/378/163
f 73/412/156 73/400/157 69/424/148
f 73/400/157 73/412/156 63/398/133
f 70/419/149 73/400/157 65/399/138
f 67/397/141 64/396/135 65/399/138
f 69/402/147 60/405/128 71/413/151
f 69/424/148 71/416/152 73/412/156
f 72/414/153 73/412/156 71/416/152
f 75/401/161 82/370/175 74/377/159
f 81/386/173 77/426/166 77/381/167
f 80/382/172 78/392/169 75/387/162
f 85/376/184 81/386/173 83/369/177
f 76/385/164 79/372/171 77/374/165
f 74/375/158 84/383/180 74/384/160
f 70/419/149 66/394/139 70/420/150
f 72/421/155 70/420/150 66/394/139
f 80/382/172 76/378/163 79/372/171
f 82/379/176 81/380/174 77/381/167
f 76/378/163 78/373/168 79/372/171
f 82/379/176 79/417/170 75/401/161
f 63/398/133 62/411/132 67/393/142
f 68/403/145 66/423/140 62/422/131
f 62/422/131 61/404/129 68/403/145
f 72/421/155 60/405/128 70/420/150
f 69/402/147 71/416/152 68/403/145
f 81/386/173 77/381/167 81/380/174
f 70/419/149 70/420/150 61/418/130
f 83/369/177 74/377/159 82/370/175
f 74/375/158 85/376/184 83/369/177
f 79/372/171 78/373/168 77/374/165
f 70/419/149 69/407/146 69/424/148
f 83/369/177 82/370/175 84/371/182
f 61/418/130 65/408/137 69/407/146
f 66/423/140 68/403/145 71/416/152
f 85/390/183 86/388/186 75/387/162
f 82/370/175 75/401/161 79/417/170
f 71/416/152 69/402/147 72/414/153
f 74/377/159 81/380/174 75/401/161
f 61/404/129 62/422/131 68/409/144
f 68/410/143 68/409/144 65/408/137
f 68/410/143 65/408/137 64/425/136
f 69/407/146 66/423/140 69/424/148
f 138/442/288 137/440/287 104/35/224
f 139/443/290 104/30/224 103/32/223
f 104/22/225 139/444/290 103/21/223
f 139/444/290 104/22/225 138/446/289
f 5/459/9 12/9/22 5/221/10
f 5/223/10 97/455/210 5/458/9
f 97/455/210 6/18/11 4/16/8
f 6/7/11 6/13/12 4/11/8
f 13/8/24 13/9/23 12/15/22
f 5/227/10 13/228/23 140/461/292
f 6/4/12 13/3/24 7/5/13
f 7/5/13 13/3/24 14/6/25
f 96/444/208 95/446/207 30/22/65
f 30/22/65 30/21/63 96/444/208
f 96/443/208 30/32/63 30/30/64
f 95/442/206 30/35/64 94/440/205
f 30/25/65 94/439/205 31/24/66
f 31/36/66 94/440/205 30/35/64
f 95/441/206 96/443/208 30/30/64
f 30/25/65 95/445/207 94/439/205
f 5/301/10 97/236/211 97/453/210
f 4/16/8 5/460/9 97/455/210
f 13/8/24 12/15/22 14/14/25
f 6/13/12 7/10/13 4/11/8
f 13/222/23 5/17/10 12/19/22
f 6/234/11 97/454/210 140/464/293
g fff01765_00112_01055942_e5
f 100/365/216 99/362/215 98/364/213
f 98/361/212 99/362/215 100/365/216
f 100/365/216 98/364/213 100/366/217
f 100/366/217 98/364/213 99/363/214
