# fff0a81b_00644_00e3d014
o fff0a81b_00644_00e3d014
v -0.112717 -2.479223 1.337675
v -0.150591 -2.527009 -0.688660
v 0.024319 -0.939868 1.112948
v -0.045752 -1.003259 -0.688660
v -0.132664 -0.953495 0.919176
v -0.123982 -0.720107 0.907356
v 0.019662 -0.715233 1.114766
v 0.125492 -0.220072 1.221049
v 0.005739 -0.199531 -0.688660
v 0.052096 -0.116440 0.964494
v -0.169848 -0.962641 -0.446828
v -0.026878 -0.720997 -0.688660
v -0.153587 -0.720818 -0.449962
v 0.005220 -2.473593 1.054655
v -0.061593 -2.152736 1.067995
v -0.099736 -2.086556 1.217462
v -0.027035 -2.491932 -0.420324
v -0.161946 -2.219826 -0.589097
v -0.061778 -2.207027 -0.335710
v 0.358723 0.961341 1.088222
v 0.221334 0.961341 -0.619570
v -0.084432 -2.222228 1.275262
v -0.071788 -2.566977 -0.734352
v 1.708328 -2.459053 1.346839
v 1.363065 -2.424493 1.261246
v 1.359392 -2.284360 0.989751
v 1.688527 -2.275705 1.054929
v 1.640009 -2.420055 -0.214928
v 1.368497 -2.426162 -0.209618
v 1.644708 -2.304450 -0.503773
v 1.426834 -2.308426 -0.490519
v 11.390750 -2.990083 1.328729
v 11.390750 -2.934084 1.048525
v 11.390750 -2.943804 -0.570971
v 0.127319 -2.390085 0.974801
v -0.078745 -2.406986 0.975475
v 0.123264 -2.243759 1.272325
v 0.087204 -2.425126 -0.295509
v -0.116588 -2.446734 -0.308319
v -0.112558 -2.324685 -0.484762
v 0.099209 -2.297460 -0.504314
v 0.067388 -2.297636 -0.637823
v 1.538783 -2.229753 -0.626528
v 1.104636 -2.341650 1.263670
v 11.362164 0.568932 1.337675
v 11.395727 0.619838 -0.688659
v 11.359814 -0.976506 1.112948
v 11.424093 -0.907249 -0.688659
v 11.515009 -0.949249 0.919176
v 11.526702 -1.182505 0.907356
v 11.384027 -1.199881 1.114766
v 11.321760 -1.702381 1.221050
v 11.442844 -1.712407 -0.688659
v 11.403907 -1.799222 0.964494
v 11.551256 -0.936897 -0.446828
v 11.429890 -1.190083 -0.688659
v 11.556133 -1.179218 -0.449962
v 11.245165 0.553045 1.054655
v 11.339691 0.239234 1.067995
v 11.383456 0.176630 1.217462
v 11.275699 0.574127 -0.420324
v 11.433809 0.314815 -0.589097
v 11.335138 0.293334 -0.335709
v 11.192382 -2.899625 1.088222
v 11.329247 -2.887650 -0.619570
v 10.118280 -2.831754 -0.555093
v 10.276402 -3.021591 1.049261
v 10.357300 -2.913884 1.330662
v 8.565270 -2.689173 -0.535661
v 9.053082 -2.861874 1.333102
v 8.780663 -2.756967 1.050248
v 8.712911 -2.779098 0.732187
vt -0.187419 0.076096
vt -0.181969 2.006502
vt 14.674170 0.044195
vt 14.664242 2.058278
vt 0.867605 2.014338
vt 0.822079 0.039140
vt 0.855548 1.740509
vt 1.029327 1.789523
vt 1.033822 2.016199
vt 1.389106 2.032894
vt 1.378853 0.046105
vt 1.472958 1.705937
vt 0.836258 0.296338
vt 1.029885 0.043629
vt 1.035315 0.292524
vt -0.173165 1.775731
vt 0.067666 1.780229
vt 0.087417 2.006751
vt -0.175614 0.286718
vt 0.068597 0.078590
vt 0.065284 0.289777
vt 2.253464 2.023081
vt 2.244818 0.109501
vt 13.231525 2.054044
vt 13.485588 2.054598
vt 13.484486 1.777690
vt 13.240849 1.785811
vt 13.244990 0.541614
vt 13.484358 0.536503
vt 13.245752 0.276550
vt 13.473007 0.279234
vt 6.044416 2.032220
vt 6.036848 1.858487
vt 6.033898 0.213291
vt 14.498163 1.778926
vt 14.667438 1.781634
vt 14.494392 2.054566
vt 14.484226 0.536655
vt 14.653975 0.524443
vt 14.656508 0.277491
vt 14.479933 0.257416
vt 14.485678 0.046254
vt 13.379251 0.046386
vt 13.694229 2.055052
vt 0.855548 1.740509
vt 0.087417 2.006751
vt 0.067666 1.780229
vt 1.029327 1.789523
vt 1.033822 2.016199
vt 0.867605 2.014338
vt -0.173165 1.775731
vt -0.181969 2.006502
vt 0.068597 0.078590
vt 0.065284 0.289777
vt -0.187419 0.076096
vt 1.035315 0.292524
vt 0.836258 0.296338
vt 1.472958 1.705937
vt 1.389106 2.032894
vt 2.253464 2.023081
vt 0.822079 0.039140
vt 1.378853 0.046105
vt 1.029885 0.043629
vt -0.175614 0.286718
vt 2.244818 0.109501
vt 6.971410 0.226737
vt 6.859062 1.845137
vt 6.820068 2.060653
vt 8.130942 0.241763
vt 7.779630 2.000689
vt 7.974864 1.845275
vt 8.009662 1.612787
vn 0.932722 0.131339 0.335826
vn 0.893818 0.196519 -0.403075
vn 0.790090 -0.076948 -0.608143
vn 0.884394 -0.051344 0.463908
vn 0.947340 -0.040944 -0.317600
vn 0.944341 -0.137711 -0.298758
vn 0.840709 -0.084653 -0.534830
vn 0.927925 -0.167381 -0.333075
vn 0.975687 -0.211308 0.058168
vn 0.952258 -0.225426 -0.205883
vn 0.978101 -0.022281 0.206936
vn 0.881812 -0.057025 0.468141
vn 0.970105 -0.139226 0.198778
vn 0.965645 0.193885 0.173026
vn 0.985336 0.110350 0.130137
vn 0.983796 0.051620 0.171702
vn 0.942421 0.200005 -0.268031
vn 0.940153 0.100935 -0.325459
vn 0.977970 0.112060 -0.176120
vn 0.958766 -0.259452 -0.115988
vn 0.976191 -0.213067 -0.040675
vn 0.029983 0.881458 -0.471309
vn -0.522149 0.720615 -0.456151
vn -0.007429 0.855661 0.517484
vn 0.108661 0.883949 0.454783
vn 0.015013 0.991451 0.129611
vn -0.010177 0.971314 0.237584
vn 0.021706 0.990059 0.138969
vn -0.006341 0.990516 0.137249
vn 0.035136 0.899454 0.435600
vn -0.012442 0.904866 0.425516
vn -0.053928 0.993213 0.103053
vn -0.041907 0.990307 0.132421
vn 0.087642 0.996134 -0.005979
vn -0.066301 0.964962 -0.253873
vn -0.079347 0.956182 -0.281816
vn 0.021664 0.917696 -0.396693
vn -0.071842 0.963744 0.256974
vn -0.117700 0.949876 0.289624
vn -0.151919 0.987581 -0.040046
vn -0.183508 0.969143 0.164578
vn -0.636111 0.752735 0.169567
vn 0.007487 0.870322 0.492426
vn 0.150476 0.930298 0.334520
vn -0.917725 -0.212138 0.335824
vn -0.873292 -0.273666 -0.403074
vn -0.793791 0.007798 -0.608140
vn -0.885504 -0.025932 0.463907
vn -0.947305 -0.041778 -0.317598
vn -0.952749 0.054883 -0.298761
vn -0.844883 0.011066 -0.534836
vn -0.938986 0.085865 -0.333066
vn -0.990391 0.125469 0.058169
vn -0.968282 0.141573 -0.205880
vn -0.976321 -0.063052 0.206935
vn -0.883425 -0.020044 0.468143
vn -0.978547 0.054148 0.198779
vn -0.945069 -0.277319 0.173026
vn -0.971969 -0.195810 0.130135
vn -0.975554 -0.137166 0.171695
vn -0.921406 -0.281375 -0.268029
vn -0.927779 -0.182489 -0.325459
vn -0.964482 -0.196866 -0.176117
vn -0.977730 0.174903 -0.115987
vn -0.991046 0.127176 -0.040674
vn 0.060172 0.995105 0.078397
vn 0.064388 0.989971 -0.125742
vn 0.101770 0.932973 -0.345259
vn 0.076650 0.993817 0.080325
vn 0.045126 0.948898 0.312339
vn 0.098417 0.991748 0.082159
vn 0.104771 0.994367 -0.016054
g fff0a81b_00644_00e3d014_e3
f 5/7/5 16/18/16 15/17/15
f 26/26/26 35/35/35 37/37/37
f 42/42/42 23/3/23 41/41/41
f 26/26/26 25/25/25 24/24/24
f 6/8/6 7/9/7 3/5/3
f 14/16/14 15/17/15 1/2/1
f 18/20/18 19/21/19 2/1/2
f 43/43/43 42/42/42 31/31/31
f 5/7/5 6/8/6 3/5/3
f 13/15/13 6/8/6 11/13/11
f 10/12/10 8/10/8 7/9/7
f 10/12/10 20/22/20 8/10/8
f 4/6/4 13/15/13 11/13/11
f 9/11/9 10/12/10 13/15/13
f 6/8/6 10/12/10 7/9/7
f 15/17/15 16/18/16 1/2/1
f 11/13/11 6/8/6 5/7/5
f 13/15/13 10/12/10 6/8/6
f 4/6/4 12/14/12 13/15/13
f 12/14/12 9/11/9 13/15/13
f 19/21/19 15/17/15 17/19/17
f 2/1/2 19/21/19 17/19/17
f 11/13/11 5/7/5 15/17/15
f 5/7/5 3/5/3 16/18/16
f 17/19/17 15/17/15 14/16/14
f 4/6/4 11/13/11 18/20/18
f 19/21/19 11/13/11 15/17/15
f 18/20/18 11/13/11 19/21/19
f 26/26/26 37/37/37 44/44/44
f 9/11/9 21/23/21 10/12/10
f 21/23/21 20/22/20 10/12/10
f 41/41/41 23/3/23 40/40/40
f 69/69/69 72/72/72 67/67/67
f 29/29/29 41/41/41 38/38/38
f 26/26/26 29/29/29 38/38/38
f 35/35/35 38/38/38 39/39/39
f 35/35/35 39/39/39 36/36/36
f 26/26/26 38/38/38 35/35/35
f 38/38/38 41/41/41 40/40/40
f 26/26/26 44/44/44 25/25/25
f 39/39/39 38/38/38 40/40/40
f 37/37/37 35/35/35 22/4/22
f 35/35/35 36/36/36 22/4/22
f 72/72/72 28/28/28 27/27/27
f 67/67/67 72/72/72 71/71/71
f 33/33/33 67/67/67 32/32/32
f 70/70/70 27/27/27 24/24/24
f 30/30/30 31/31/31 28/28/28
f 31/31/31 42/42/42 41/41/41
f 27/27/27 26/26/26 24/24/24
f 30/30/30 43/43/43 31/31/31
f 28/28/28 29/29/29 27/27/27
f 29/29/29 31/31/31 41/41/41
f 66/66/66 33/33/33 34/34/34
f 28/28/28 31/31/31 29/29/29
f 27/27/27 29/29/29 26/26/26
f 49/45/49 60/46/60 59/47/59
f 50/48/50 51/49/51 47/50/47
f 58/51/58 59/47/59 45/52/45
f 62/53/62 63/54/63 46/55/46
f 49/45/49 50/48/50 47/50/47
f 57/56/57 50/48/50 55/57/55
f 54/58/54 52/59/52 51/49/51
f 54/58/54 64/60/64 52/59/52
f 48/61/48 57/56/57 55/57/55
f 53/62/53 54/58/54 57/56/57
f 50/48/50 54/58/54 51/49/51
f 59/47/59 60/46/60 45/52/45
f 55/57/55 50/48/50 49/45/49
f 57/56/57 54/58/54 50/48/50
f 48/61/48 56/63/56 57/56/57
f 56/63/56 53/62/53 57/56/57
f 63/54/63 59/47/59 61/64/61
f 46/55/46 63/54/63 61/64/61
f 55/57/55 49/45/49 59/47/59
f 49/45/49 47/50/47 60/46/60
f 61/64/61 59/47/59 58/51/58
f 48/61/48 55/57/55 62/53/62
f 63/54/63 55/57/55 59/47/59
f 62/53/62 55/57/55 63/54/63
f 53/62/53 65/65/65 54/58/54
f 65/65/65 64/60/64 54/58/54
f 71/71/71 72/72/72 27/27/27
f 69/69/69 43/43/43 30/30/30
f 71/71/71 70/70/70 68/68/68
f 28/28/28 69/69/69 30/30/30
f 67/67/67 33/33/33 66/66/66
f 66/66/66 69/69/69 67/67/67
f 67/67/67 68/68/68 32/32/32
f 67/67/67 71/71/71 68/68/68
f 71/71/71 27/27/27 70/70/70
f 69/69/69 28/28/28 72/72/72
