# fff0aa7b_00317_007b6602
o fff0aa7b_00317_007b6602
v -0.417282 -1.144380 -0.106239
v -2.286118 1.453538 0.455830
v -2.383713 -1.453538 0.486008
v -2.440109 0.247853 0.503446
v -1.234299 -1.271729 0.130364
v -1.233566 1.403955 0.130106
v -0.405502 1.280620 -0.109585
v 0.439102 -0.425576 -0.494291
v 0.691910 -0.108865 -0.494291
v 0.842422 -0.357827 -0.494291
v 0.373856 -0.093972 -0.494291
v 1.987640 0.143748 -0.503446
v 2.181419 1.022561 -0.503446
v 2.440109 0.508851 -0.503446
v 1.584724 0.737451 -0.503446
vt 1.126033 0.320858
vt 1.083616 0.209290
vt 1.026775 0.268686
vt 1.190331 0.223811
vt 1.910647 0.933134
vt 1.010945 0.064038
vt 1.005870 0.943343
vt 1.935063 0.076235
vt 1.000008 1.014109
vt 1.000008 1.412184
vt 1.994875 1.000008
vt 1.994875 1.991667
vt 1.000008 1.991667
vt 1.585595 1.991667
vt 1.994875 1.402565
vn 0.278168 -0.000026 0.960532
vn 0.295627 -0.000030 0.955303
vn 0.295587 0.000007 0.955316
vn 0.295599 0.000000 0.955312
vn 0.287707 -0.000003 0.957718
vn 0.287379 0.000003 0.957817
vn 0.278071 0.000008 0.960561
vn 0.000000 0.000000 1.000000
vn 0.000000 0.000000 1.000000
vn 0.000000 0.000000 1.000000
vn 0.000000 0.000000 1.000000
vn 0.000000 0.000000 1.000000
vn 0.000000 0.000000 1.000000
vn 0.000000 0.000000 1.000000
vn 0.000000 0.000000 1.000000
g fff0aa7b_00317_007b6602_e2
f 11/4/11 10/3/10 9/2/9
f 11/4/11 8/1/8 10/3/10
g fff0aa7b_00317_007b6602_e3
f 15/8/15 14/7/14 13/6/13
f 15/8/15 12/5/12 14/7/14
g fff0aa7b_00317_007b6602_e1
f 7/11/7 6/15/6 5/10/5
f 6/15/6 4/14/4 5/10/5
f 4/14/4 3/13/3 5/10/5
f 2/12/2 4/14/4 6/15/6
f 1/9/1 7/11/7 5/10/5
