# fff00bd1_00028_001f491d
o fff00bd1_00028_001f491d
v -0.075257 0.051012 0.021716
v -0.075065 -0.042091 0.023843
v -0.066386 -0.004438 0.628235
v -0.063895 -0.051414 0.627453
v -0.057422 -0.053819 0.582013
v -0.068099 0.047311 0.358871
v -0.069072 -0.044910 0.365671
v -0.025311 0.000070 0.670591
v 0.000381 0.008189 0.659307
v 0.010231 0.021120 0.626737
v -0.044916 -0.003988 0.650533
v -0.042639 -0.045737 0.652154
v -0.025887 -0.037090 0.675427
v 0.076730 0.050380 0.021632
v 0.076404 -0.042099 0.023722
v 0.066746 -0.004573 0.628196
v 0.064255 -0.051419 0.627413
v 0.055111 0.020155 0.590080
v 0.057926 -0.053823 0.581976
v 0.067681 0.047613 0.363005
v 0.068974 -0.044918 0.365584
v 0.026088 0.000028 0.669103
v 0.043427 -0.003427 0.652120
v 0.042889 -0.044967 0.653122
v 0.026668 -0.037093 0.675395
v -0.076397 -0.027563 -0.349650
v -0.000256 -0.029186 -0.352279
v -0.077385 0.038695 -0.352406
v 0.038043 0.044546 -0.352635
v 0.075706 -0.027572 -0.349746
v 0.076605 0.038687 -0.342097
v 0.102020 0.038981 -0.351041
v -0.103324 0.039031 -0.370921
v -0.102137 -0.057683 -0.366254
v -0.000990 -0.067723 -0.367454
v 0.101172 -0.058210 -0.355151
v -0.025323 0.013385 0.720250
v -0.025899 -0.023281 0.726964
v -0.025899 -0.023281 0.726964
v 0.026076 0.013382 0.720217
v 0.026656 -0.023284 0.726931
v 0.214574 -0.065936 0.395737
v 0.249219 -0.065816 0.434761
v 0.214375 -0.017443 0.400481
v 0.251489 -0.020275 0.431987
v 0.320218 -0.005397 0.192229
v 0.337526 -0.005389 0.193552
v 0.321622 0.026566 0.194494
v 0.338025 0.027031 0.196223
v 0.322808 0.076212 0.128766
v 0.335556 0.025278 0.038024
v 0.326400 0.026102 0.043793
v 0.315327 0.061217 0.118871
v 0.328263 0.067076 0.120917
v 0.318951 0.084743 0.109323
v 0.311077 0.070748 0.128391
v 0.339809 -0.022829 0.053051
v 0.353106 0.042666 0.101292
v 0.343888 0.046863 0.176402
v 0.338241 0.038652 0.037861
v 0.335021 0.044867 0.100348
v 0.349927 0.046723 0.144966
v 0.315015 0.036121 0.145626
v 0.337762 0.057790 0.136795
v 0.332606 0.023412 0.099722
v 0.308956 0.079221 0.108963
v 0.323806 0.016864 0.038255
v 0.327289 -0.021841 0.058156
v 0.328201 0.039638 0.043637
v 0.314469 0.045467 0.174816
v 0.317998 0.049456 0.135999
v 0.333824 0.025097 0.071194
v 0.333538 0.019317 0.071928
v 0.322201 0.002307 0.038691
v 0.333408 0.002794 0.033605
v 0.330323 0.062403 0.158203
v 0.321665 -0.026662 0.145078
v 0.346742 -0.026401 0.144723
v 0.329577 -0.024195 0.102833
v 0.312936 0.057263 0.156705
v 0.350840 -0.026152 0.102905
v 0.334522 0.040799 0.071347
v 0.347549 0.040073 0.070528
v 0.352740 0.022457 0.100171
v 0.346859 0.024589 0.070780
v 0.347522 0.017711 0.072318
v 0.334755 0.015899 0.033302
v 0.346592 -0.025733 0.077899
v 0.330127 -0.023699 0.077515
v 0.333408 0.002794 0.033606
v 0.313118 0.069890 0.106636
v 0.322834 0.076332 0.107558
v 0.324672 -0.010343 0.048360
v 0.324436 0.002802 0.048637
v 0.327427 -0.010838 0.058909
v 0.336380 -0.011057 0.042541
v 0.337040 0.002481 0.042226
v 0.332096 0.004652 0.071625
v 0.330879 -0.010766 0.073390
v 0.339958 -0.011750 0.053175
v 0.346035 -0.012738 0.073416
v 0.346584 0.002801 0.071714
v 0.353703 -0.023369 0.219583
v 0.343831 0.041510 0.225497
v 0.302345 -0.030970 0.197336
v 0.342797 -0.022247 0.245366
v 0.296211 0.043484 0.207159
v 0.334638 0.034234 0.249776
v 0.290986 0.036383 0.233088
v 0.326039 0.020717 0.246253
v 0.331719 -0.009859 0.242894
v 0.307736 0.021789 0.236456
v 0.311368 -0.014223 0.230099
v 0.295716 -0.028325 0.226654
v -0.010563 0.021426 0.626556
v 0.015961 0.053465 0.360803
v -0.055111 0.020156 0.590080
v -0.214576 -0.065931 0.395736
v -0.249217 -0.065810 0.434761
v -0.214374 -0.017438 0.400480
v -0.251487 -0.020270 0.431987
v -0.320227 -0.005390 0.192229
v -0.337535 -0.005382 0.193551
v -0.321627 0.026574 0.194493
v -0.338034 0.027039 0.196222
v -0.322815 0.076220 0.128765
v -0.335564 0.025286 0.038024
v -0.326409 0.026109 0.043793
v -0.315334 0.061224 0.118870
v -0.328270 0.067083 0.120916
v -0.318958 0.084750 0.109323
v -0.311085 0.070755 0.128391
v -0.339817 -0.022821 0.053050
v -0.353112 0.042674 0.101291
v -0.343898 0.046870 0.176401
v -0.338246 0.038660 0.037860
v -0.335027 0.044875 0.100348
v -0.349936 0.046731 0.144966
v -0.315024 0.036128 0.145625
v -0.337771 0.057798 0.136795
v -0.332612 0.023419 0.099722
v -0.308964 0.079228 0.108962
v -0.323815 0.016871 0.038255
v -0.327297 -0.021833 0.058155
v -0.328209 0.039646 0.043637
v -0.314479 0.045475 0.174815
v -0.318007 0.049463 0.135999
v -0.333832 0.025105 0.071194
v -0.333546 0.019325 0.071928
v -0.322205 0.002315 0.038690
v -0.333416 0.002802 0.033605
v -0.330329 0.062410 0.158203
v -0.321673 -0.026654 0.145078
v -0.346750 -0.026393 0.144723
v -0.329583 -0.024188 0.102833
v -0.312942 0.057271 0.156705
v -0.350846 -0.026144 0.102904
v -0.334526 0.040807 0.071346
v -0.347557 0.040082 0.070528
v -0.352746 0.022465 0.100171
v -0.346867 0.024597 0.070779
v -0.347527 0.017719 0.072317
v -0.334763 0.015907 0.033302
v -0.346600 -0.025725 0.077899
v -0.330132 -0.023691 0.077515
v -0.333416 0.002802 0.033605
v -0.313125 0.069897 0.106636
v -0.322841 0.076339 0.107557
v -0.324681 -0.010336 0.048359
v -0.324444 0.002810 0.048636
v -0.327431 -0.010830 0.058908
v -0.336388 -0.011049 0.042540
v -0.337048 0.002489 0.042226
v -0.332104 0.004659 0.071625
v -0.330887 -0.010758 0.073390
v -0.339966 -0.011742 0.053175
v -0.346043 -0.012730 0.073416
v -0.346592 0.002809 0.071713
v -0.353709 -0.023361 0.219583
v -0.343837 0.041518 0.225497
v -0.304743 -0.030963 0.197336
v -0.342807 -0.022239 0.245366
v -0.298609 0.043491 0.207158
v -0.334647 0.034242 0.249775
v -0.290992 0.036390 0.233087
v -0.326049 0.020725 0.246252
v -0.331729 -0.009851 0.242893
v -0.307746 0.021796 0.236456
v -0.311374 -0.014215 0.230099
v -0.295722 -0.028318 0.226653
v 0.024761 0.023157 0.614914
v -0.026465 0.023152 0.613096
v -0.065779 -0.044736 -0.287704
v -0.014783 0.009124 -0.292446
v -0.015500 -0.038970 -0.292422
v -0.051321 -0.041147 -0.586376
v -0.052796 -0.083545 -0.642376
v -0.026144 -0.035761 -0.588168
v -0.013228 -0.079237 -0.642311
v -0.082018 0.070814 -0.620816
v -0.082030 0.075309 -0.639065
v -0.029028 0.124207 -0.618929
v -0.029036 0.123596 -0.631365
v -0.044638 -0.075021 -0.599255
v -0.022499 -0.071305 -0.599766
v -0.021801 0.081423 -0.638976
v -0.021851 0.083065 -0.619840
v -0.080952 0.098023 -0.631862
v -0.080384 0.098679 -0.619385
v -0.052689 -0.083913 -0.618524
v -0.014464 -0.079844 -0.618464
v -0.024548 0.016758 -0.611761
v -0.067440 0.018975 -0.605079
v -0.068532 0.005207 -0.295214
v -0.071430 0.015977 -0.636469
v -0.021479 0.013286 -0.639375
v -0.046786 0.121614 -0.618955
v -0.047468 0.120910 -0.631409
v -0.043143 0.080221 -0.620086
v -0.046444 0.113962 -0.619134
v -0.047711 0.113001 -0.631573
v 0.062661 -0.044740 -0.287785
v 0.011659 0.009123 -0.292463
v 0.012376 -0.038971 -0.292440
v 0.047824 -0.041150 -0.586439
v 0.049226 -0.083548 -0.642440
v 0.022645 -0.035762 -0.588199
v 0.009658 -0.079238 -0.642326
v 0.078484 0.070809 -0.620918
v 0.078473 0.075304 -0.639167
v 0.025502 0.124205 -0.618963
v 0.025494 0.123594 -0.631400
v 0.041123 -0.075024 -0.599309
v 0.018985 -0.071306 -0.599792
v 0.018246 0.081422 -0.639002
v 0.018319 0.083063 -0.619866
v 0.077407 0.098018 -0.631962
v 0.076853 0.098673 -0.619484
v 0.049149 -0.083916 -0.618588
v 0.010924 -0.079845 -0.618480
v 0.021023 0.016757 -0.611790
v 0.063925 0.018970 -0.605163
v 0.065406 0.005203 -0.295297
v 0.067876 0.015973 -0.636557
v 0.017920 0.013285 -0.639400
v 0.043257 0.121612 -0.619012
v 0.043923 0.120905 -0.631467
v 0.039611 0.080218 -0.620138
v 0.042914 0.113958 -0.619190
v 0.044163 0.112999 -0.631631
v -0.089310 0.053628 -0.172016
v -0.089295 -0.051699 -0.182594
v 0.089755 -0.051830 -0.184264
v 0.089724 0.053368 -0.173700
v 0.036655 0.058946 -0.370207
v 0.037441 0.058457 -0.355112
v 0.028383 0.053457 -0.173123
v 0.023252 0.050602 0.021662
v 0.009051 0.040935 0.489816
v 0.075993 0.051336 0.056363
v 0.022680 0.051493 0.054880
v -0.074654 0.051923 0.057207
v 0.075850 -0.042309 0.055571
v -0.074644 -0.042289 0.053922
v -0.035104 0.064976 -0.061647
v 0.004479 0.051713 0.021796
v -0.010676 0.051173 0.039257
v -0.057333 0.059577 -0.048961
v 0.056096 0.058666 -0.069936
v 0.024738 0.051346 0.034974
v 0.001928 0.051173 0.025928
v 0.028003 0.065887 -0.074217
vt 1.795901 0.774854
vt 0.317765 0.751298
vt 0.317765 0.751298
vt 0.076444 0.622498
vt 0.085806 0.623160
vt 0.317765 0.751298
vt 0.317765 0.751298
vt 0.048604 0.638447
vt 0.047964 0.631804
vt 0.047964 0.631804
vt 0.044483 0.638408
vt 0.042798 0.637956
vt 0.423571 0.649323
vt 0.413382 0.653376
vt 0.317765 0.751298
vt 0.403766 0.647290
vt 2.126781 0.884320
vt 2.153408 0.817790
vt 2.151466 0.804147
vt 1.793379 0.772019
vt 0.188146 0.318477
vt 0.189235 0.318152
vt 1.793379 0.772018
vt 1.793382 0.772017
vt 1.793428 0.772022
vt 1.793425 0.772020
vt 0.187724 0.318369
vt 1.793382 0.772016
vt 0.189104 0.317969
vt 1.793428 0.772022
vt 1.793426 0.772020
vt 0.161762 0.342505
vt 0.162815 0.428405
vt 1.793370 0.772361
vt 1.793371 0.772115
vt 1.793391 0.772357
vt 1.793391 0.772115
vt 1.793475 0.772218
vt 1.793475 0.772445
vt 1.793305 0.772413
vt 1.792877 0.771382
vt 1.792836 0.771333
vt 1.793286 0.772492
vt 1.633820 0.387843
vt 1.636257 0.393494
vt 1.638919 0.399667
vt 0.341908 -0.349792
vt 0.350388 -0.351638
vt 0.019740 -0.351638
vt 0.342029 -0.444972
vt -0.319026 0.177429
vt -0.319026 0.177429
vt -0.319026 0.177429
vt 0.416928 -0.347993
vt 0.422218 -0.444972
vt 0.360407 -0.444972
vt 0.019740 -0.351638
vt 0.342029 -0.444972
vt 0.019740 -0.444972
vt -0.319026 0.177429
vt -0.319026 0.177429
vt -0.319026 0.177429
vt -0.319026 0.177429
vt -0.319026 0.177429
vt -0.319026 0.177429
vt 0.359966 -0.349839
vt 0.019740 -0.444972
vt 0.355956 -0.355142
vt 0.423587 -0.351638
vt 0.422179 -0.444972
vt 0.360407 -0.444972
vt -0.319026 0.177429
vt -0.319026 0.177429
vt -0.319026 0.177429
vt -0.319026 0.177429
vt 0.247952 -0.289885
vt 0.040453 -0.463197
vt -0.319026 0.177429
vt -0.319026 0.177429
vt -0.319026 0.177429
vt -0.319026 0.177429
vt -0.319026 0.177429
vt -0.319026 0.177429
vt -0.319026 0.177429
vt -0.319026 0.177429
vt 0.280210 0.066005
vt 0.280210 0.804909
vt 0.195275 -0.444128
vt 0.035196 -0.294588
vt 0.195275 -0.294588
vt 0.035196 -0.444128
vt 0.045157 -0.289885
vt 0.220329 -0.444382
vt -0.319026 0.177429
vt -0.319026 0.177429
vt -0.319026 0.177429
vt -0.319026 0.177429
vt -0.319026 0.177429
vt 0.289179 0.038366
vt 0.103401 0.793078
vt 0.048445 0.617248
vt 0.293699 0.617248
vt 0.043925 0.038366
vt 0.112729 0.076498
vt 0.290839 0.793078
vt 0.293904 0.066761
vt 0.072540 0.804909
vt 0.072540 0.066005
vt 0.361496 0.808585
vt 0.378638 0.808585
vt -0.319026 0.177429
vt 0.019279 0.808585
vt 0.462592 0.808585
vt 0.462572 0.808585
vt 0.298201 0.808585
vt 0.019279 0.808585
vt 0.183212 0.808585
vt 0.298317 0.808585
vt -0.319026 0.177429
vt -0.319026 0.177429
vt -0.319026 0.177429
vt -0.319026 0.177429
vt -0.319026 0.177429
vt 0.119950 0.461593
vt 0.160662 0.460646
vt 0.216433 0.634971
vt 0.216429 0.635389
vt 0.155760 0.640661
vt 0.116483 0.603372
vt 0.255471 0.542532
vt 0.256138 0.464980
vt 0.134322 0.547306
vt 0.132348 0.543798
vt 0.109785 0.525749
vt 0.194909 0.583048
vt 0.201829 0.572580
vt 0.182314 0.478500
vt 0.179208 0.530816
vt 0.205347 0.543155
vt 0.212358 0.547649
vt 0.199485 0.552483
vt 0.187739 0.559122
vt 0.182153 0.475318
vt 0.212916 0.552766
vt 0.137566 0.563013
vt 0.219010 0.540823
vt 0.194188 0.503747
vt 0.210894 0.534609
vt 0.196654 0.591244
vt 0.153420 0.602684
vt 0.194183 0.500859
vt 0.193581 0.478849
vt 0.206914 0.564646
vt 0.179731 0.523221
vt 0.224023 0.529178
vt 0.198125 0.564698
vt 0.207793 0.576075
vt 0.222260 0.530286
vt 0.197599 0.586563
vt 0.180219 0.604352
vt 0.181153 0.500306
vt 0.193323 0.475804
vt 0.135641 0.530235
vt 0.195900 0.531740
vt 0.181158 0.503547
vt 0.196899 0.524044
vt 0.216541 0.527853
vt 0.223380 0.542575
vt 0.215637 0.538351
vt 0.229005 0.531190
vt 0.206930 0.556213
vt 0.212108 0.568744
vt 0.218852 0.555754
vt 0.245229 -0.994725
vt 0.245229 0.009831
vt 0.698704 -0.994725
vt 0.253197 -0.994725
vt 0.994788 0.009831
vt 0.992425 -0.994725
vt 0.698704 -0.994725
vt 0.253197 -1.959621
vt 0.991625 -0.994725
vt 0.992978 -1.959621
vt 1.002378 0.009831
vt 0.245229 0.009831
vt 0.994788 0.009831
vt 0.698704 -0.994725
vt 0.813368 0.009831
vt 0.407715 -0.027743
vt 0.448377 0.974078
vt 0.404254 0.961220
vt 0.401362 1.780954
vt 1.000127 1.000717
vt 0.254237 0.880177
vt 0.252082 0.009831
vt 0.999833 0.087265
vt 1.000981 0.916528
vt 0.197820 0.080788
vt 0.194084 0.923289
vt 0.480521 0.950043
vt 0.451745 1.623551
vt 0.508245 -0.909498
vt 0.993255 0.085672
vt 0.991809 0.933711
vt 0.278348 0.079128
vt 0.619683 0.933711
vt 0.619683 0.084388
vt 0.279848 0.852850
vt 0.332421 0.933711
vt 0.332421 0.081828
vt 0.010546 0.956657
vt 0.124935 0.081118
vt 0.033247 0.087265
vt 0.508767 -0.001614
vt 0.478451 -0.005028
vt 0.414418 -0.962014
vt 0.125832 0.906572
vt 0.184730 0.530647
vt 0.317765 0.751298
vt 0.184730 0.530647
vt 1.799531 0.772694
vt 1.799538 0.774479
vt 0.317765 0.751298
vt 1.796351 0.777238
vt 1.795997 0.777784
vt 1.285601 1.261411
vt 1.796334 0.775169
vt 2.197949 0.782566
vt 1.796046 0.774676
vt 1.793371 0.777734
vt 1.795187 0.774232
vt 1.798416 0.773982
vt 1.792860 0.777876
vt 1.795868 0.777694
vt 1.795837 0.777635
vt 1.795898 0.774891
vt 1.792744 0.773268
vt 1.792744 0.774869
vt 1.793090 0.774710
vt 1.793090 0.773469
vt 1.793090 0.774710
vt 1.792744 0.774869
vt 1.792744 0.773268
vt 1.793090 0.773469
vt 1.792738 0.773683
vt 1.792738 0.772217
vt 1.793091 0.773604
vt 1.796385 0.773387
vt 1.796390 0.772464
vt 1.793091 0.772330
vt 1.795891 0.773466
vt 1.795933 0.772422
vt 1.792865 0.772130
vt 1.792860 0.770557
vt 1.285601 1.261411
vt 1.796170 0.770739
vt 1.792878 0.772331
vt 1.792860 0.774179
vt 1.285601 1.261411
vt 1.798097 0.775014
vt 1.797178 0.777403
vt 1.798125 0.777270
vt 1.796171 0.773830
vt 2.059456 0.772522
vt 1.797177 0.774904
vt 1.795812 0.771619
vt 1.796094 0.771480
vt 1.796294 0.771844
vt 1.795914 0.771730
vt 1.796326 0.772701
vt 1.795761 0.773715
vt 1.796085 0.773845
vt 1.796325 0.773444
vt 1.817091 0.389900
vt 1.774106 0.193404
vt 1.751405 0.184126
vt 1.782331 0.216004
vt 1.770342 0.248730
vt 1.746866 0.189742
vt 1.799470 0.267589
vt 1.771562 0.244454
vt 1.806898 0.284808
vt 1.795576 0.306305
vt 1.773683 0.186519
vt 1.765956 0.245563
vt 1.803078 0.282755
vt 1.786634 0.293962
vt 1.772787 0.248436
vt 0.184730 0.530647
vt 1.796785 0.264000
vt 1.779584 0.213438
vt 1.793376 0.772325
vt 1.793371 0.773991
vt 0.412269 0.653819
vt 0.047506 0.629391
vt 0.048607 0.635192
vt 0.404841 0.647970
vt 0.075559 0.622435
vt 0.084915 0.623097
vt 0.403071 0.648738
vt 0.043244 0.638075
vt 0.319543 -0.007053
vt 0.448173 -0.938446
vt 0.457786 1.811850
vt 0.324974 0.994349
vt 0.330436 1.814334
vt 0.324564 -0.940544
vt 0.458916 1.956548
vt 0.351571 1.029011
vt 0.357167 0.041548
vt 0.474629 -0.864277
vt 0.372517 -0.793902
vt 0.354232 1.930516
vt 0.188385 0.319232
vt 0.165383 0.427859
vt 0.188005 0.319195
vt 0.164626 0.343667
vt 0.189293 0.318661
vt 2.159634 0.818406
vt 0.189430 0.318840
vt 2.157648 0.805132
vt 1.793299 0.772376
vt 1.793373 0.771998
vt 1.793376 0.771996
vt 1.793376 0.771996
vt 1.793371 0.771997
vt 1.793296 0.772084
vt 0.317765 0.751298
vt 0.317765 0.751298
vt 1.795185 0.772543
vt 0.184730 0.530647
vt 0.184730 0.530647
vt 1.796184 0.776715
vt 1.799533 0.773272
vt 1.796162 0.775690
vt 1.858050 1.188594
vt 1.817140 1.285280
vt 1.815489 1.255704
vt 1.856432 1.255704
vt 1.787631 1.282031
vt 1.614730 1.277155
vt 1.777491 1.217680
vt 1.717629 1.204685
vt 1.788269 1.167220
vt 1.734661 1.153109
vt 1.770851 1.294055
vt 1.615305 1.314198
vt 1.590487 1.350597
vt 1.585961 1.317651
vt 1.614170 1.348785
vt 1.617039 1.347350
vt 1.870532 1.142071
vt 1.928465 1.167648
vt 1.704979 1.146744
vt 1.686185 1.197876
vt 1.791938 1.145202
vt 1.797697 1.300389
vt 1.584920 1.277155
vt 1.860073 1.284436
vt 1.925579 1.278032
vt 1.926613 1.324726
vt 1.921476 1.316914
vt 1.856566 1.404343
vt 1.816575 1.404343
vt 1.856722 1.380191
vt 1.906484 1.391703
vt 1.906896 1.361330
vt 1.812641 1.378169
vt 1.207308 0.737816
vt 1.233766 0.751024
vt 1.232552 0.777778
vt 1.226050 0.795694
vt 1.205059 0.770539
vt 1.216282 0.794736
vt 1.207626 0.790567
vt 1.753746 1.212525
vt 1.233284 0.761636
vt 1.206469 0.750016
vt 1.830754 1.255704
vt 0.171587 0.578854
vt 0.134661 0.439044
vt 0.131808 0.578854
vt 0.131345 0.578854
vt 0.170767 0.578854
vt 0.169463 0.439044
vt 0.141168 0.300337
vt 0.141332 0.424336
vt 0.138726 0.300337
vt 0.172833 0.424336
vt 0.173552 0.300337
vt 0.171692 0.424336
vt 0.138320 0.424336
vt 1.919969 1.317879
vt 1.927569 1.278654
vt 1.207887 0.788221
vt 0.171464 0.338733
vt 0.168418 0.300337
vt 0.165723 0.439044
vt 1.004553 -2.917663
vt 0.169850 -2.926152
vt 1.906788 1.369320
vt 0.025003 1.001650
vt 1.008508 1.010282
vt 1.928473 1.281667
vt 1.208300 0.788541
vt 0.384702 0.025860
vt 0.263954 0.025860
vt 0.384702 -3.986329
vt 0.263954 -3.986329
vt 0.838743 0.003451
vt 1.001115 0.003451
vt 1.001115 0.948039
vt 0.139064 0.948039
vt 0.139064 0.003451
vt 1.877030 1.282201
vt 1.879826 1.255704
vt 1.921032 1.319283
vt 1.926064 1.281150
vt 1.924779 1.310894
vt 1.920924 1.307134
vt 1.832798 1.395697
vt 1.830207 1.378460
vt 1.859237 1.379791
vt 1.892207 1.372633
vt 1.892279 1.367371
vt 1.859134 1.395697
vt 1.892007 1.387372
vt 0.184730 0.530647
vt 0.184730 0.530647
vt 0.184730 0.530647
vt 0.184730 0.530647
vt 2.126781 0.884320
vt 2.126781 0.884320
vt 1.793126 0.774081
vt 1.793134 0.772328
vt 1.793121 0.770628
vt 2.059456 0.772522
vt 2.126781 0.884320
vt 2.126781 0.884320
vt 1.793149 0.777796
vt 1.771648 0.245011
vt 1.792887 0.776318
vt 1.793152 0.777279
vt 1.793371 0.777216
vt 0.317765 0.751298
vt 0.317765 0.751298
vt 0.317765 0.751298
vt 0.317765 0.751298
vt 0.317765 0.751298
vt 0.317765 0.751298
vt 0.317765 0.751298
vt 0.317765 0.751298
vt 0.317765 0.751298
vt 0.317765 0.751298
vt 0.317765 0.751298
vt 2.198014 0.781150
vt 0.184730 0.530647
vt 1.471729 1.636765
vt 1.739314 1.676772
vt 1.469543 1.695671
vt 1.468157 1.581904
vt 1.470253 1.577806
vt 1.761191 1.624651
vt 1.406940 1.888105
vt 1.469503 1.839558
vt 1.519632 1.884145
vt 1.713035 1.730651
vt 1.470380 1.796347
vt 1.666196 1.821393
vt 1.631837 1.883430
vt 2.126781 0.884320
vt 1.794519 0.774286
vt 1.469609 1.703567
vt 1.794521 0.773620
vt 2.126781 0.884320
vt 1.709087 1.738299
vt 2.126781 0.884320
vt 1.795641 0.772175
vt 2.126781 0.884320
vt 1.795639 0.772399
vt 1.285601 1.261411
vt 1.285601 1.261411
vt 1.285601 1.261411
vt 1.285601 1.261411
vt 1.285601 1.261411
vn -0.999000 -0.000650 0.044696
vn 0.004023 0.999975 -0.005835
vn -0.000105 -0.999786 0.020703
vn -0.999089 -0.002117 0.042629
vn -0.457602 0.815337 0.354721
vn -0.721739 -0.049767 0.690374
vn -0.732296 -0.037298 0.679965
vn 0.129443 -0.989145 0.069541
vn -0.300912 0.108885 -0.947415
vn 0.016877 -0.998898 0.043793
vn -0.999209 0.014279 0.037122
vn -0.078705 0.995042 0.060795
vn -0.999174 0.012224 0.038764
vn -0.000067 -0.999702 -0.024404
vn -0.946227 0.021803 0.322767
vn -0.367138 0.928711 0.052013
vn 0.009029 0.982363 0.186769
vn 0.112225 0.945376 0.306056
vn -0.416172 0.839806 0.348607
vn -0.723827 -0.024089 0.689561
vn 0.032510 -0.983565 0.177603
vn -0.767683 0.011103 0.640733
vn -0.945152 0.056524 0.321704
vn 0.002288 -0.951316 0.308208
vn 0.999025 -0.002527 0.044070
vn 0.003905 0.999976 -0.005693
vn 0.999116 -0.002643 0.041958
vn -0.000042 -0.999784 0.020770
vn 0.719535 -0.049835 0.692666
vn 0.464620 0.813448 0.349902
vn 0.734971 -0.032285 0.677330
vn -0.148821 -0.986262 0.071693
vn 0.603031 0.112873 -0.789692
vn 0.388293 0.882884 0.264091
vn 0.295832 0.109031 -0.948997
vn -0.017548 -0.998814 0.045410
vn 0.999081 0.016708 0.039465
vn 0.112977 0.991435 0.065513
vn 0.999133 0.013556 0.039374
vn -0.000076 -0.999703 -0.024381
vn 0.941045 0.032342 0.336731
vn 0.360634 0.930669 0.061637
vn 0.408804 0.844251 0.346582
vn 0.718408 -0.009195 0.695562
vn -0.028132 -0.982980 0.181547
vn 0.774666 0.033585 0.631478
vn 0.946981 0.068016 0.314006
vn 0.000126 -0.953202 0.302334
vn 0.304909 0.246550 -0.919915
vn 0.042620 0.363691 -0.930544
vn 0.334713 -0.806565 -0.487258
vn 0.261542 -0.522983 -0.811224
vn -0.023799 0.154459 -0.987713
vn -0.200641 -0.726012 -0.657761
vn 0.997638 -0.009889 0.067978
vn -0.289894 -0.175934 -0.940749
vn 0.291578 0.954832 -0.057251
vn -0.130293 0.989882 -0.056193
vn -0.997492 -0.008343 0.070287
vn 0.516788 -0.369590 -0.772227
vn -0.098245 -0.994387 0.039264
vn -0.997505 -0.008871 0.070034
vn 0.274081 0.251394 -0.928268
vn -0.007517 -0.998466 0.054862
vn 0.050978 0.365090 -0.929576
vn -0.043256 0.193379 -0.980170
vn 0.087494 -0.995236 0.043005
vn 0.997681 -0.011539 0.067083
vn -0.106229 0.985955 -0.128876
vn -0.999879 0.014931 -0.004245
vn -0.999879 0.014938 -0.004242
vn 0.000113 -0.965927 0.258816
vn 0.999879 0.015131 -0.003719
vn 0.102301 0.986577 -0.127279
vn 0.999879 0.015071 -0.003743
vn 0.000105 -0.965925 0.258823
vn 0.081723 -0.994454 -0.066201
vn -0.843764 0.040297 -0.535199
vn 0.047060 -0.998142 -0.038705
vn 0.815803 0.004226 0.578314
vn -0.843819 0.048828 -0.534403
vn -0.013527 0.988835 0.148401
vn 0.838990 -0.011501 0.544025
vn -0.012909 0.993426 0.113748
vn 0.000803 -0.996744 0.080625
vn -0.998531 -0.018626 -0.050882
vn 0.978257 -0.011591 0.207074
vn 0.030490 -0.991361 0.127565
vn -0.060917 0.897232 0.437338
vn -0.993944 0.014832 0.108883
vn 0.969692 -0.034871 0.241831
vn -0.072865 0.888893 0.452282
vn 0.825031 0.565060 0.005586
vn -0.386270 0.819577 0.423189
vn -0.079879 -0.996758 -0.009601
vn -0.511460 0.072732 -0.856224
vn 0.926832 -0.190059 -0.323821
vn -0.955779 0.130171 0.263708
vn -0.096159 -0.995311 -0.010443
vn -0.528227 0.060517 -0.846944
vn 0.426129 -0.693778 -0.580591
vn -0.932455 -0.352135 -0.080800
vn 0.842118 0.535802 -0.061262
vn 0.384489 -0.698119 -0.603986
vn 0.889511 0.456530 -0.018753
vn -0.062534 0.177268 -0.982174
vn -0.447967 0.782628 0.432226
vn -0.937269 -0.339705 -0.078280
vn -0.395906 0.821769 0.409822
vn -0.112783 -0.989986 -0.084900
vn -0.396819 0.038250 -0.917099
vn 0.964364 -0.009975 -0.264392
vn 0.120908 0.988599 -0.089741
vn 0.999070 -0.015879 -0.040088
vn 0.959951 0.198443 0.197772
vn -0.075705 0.719635 0.690214
vn 0.061313 0.996486 -0.057073
vn -0.490255 0.087860 -0.867139
vn 0.938026 -0.153047 -0.310940
vn 0.115755 0.989275 -0.089077
vn -0.962760 0.115487 -0.244451
vn 0.214919 0.831791 -0.511794
vn 0.949013 0.285921 0.132751
vn -0.984954 -0.053124 -0.164446
vn 0.263170 -0.548259 -0.793822
vn 0.718168 0.693615 0.055976
vn -0.975346 0.069008 -0.209614
vn 0.026820 -0.043693 -0.998685
vn -0.057139 0.201104 -0.977902
vn -0.924713 -0.371900 -0.081222
vn -0.430920 0.797350 0.422540
vn -0.412079 0.019842 -0.910932
vn 0.048532 0.995067 -0.086523
vn -0.959772 0.137694 0.244700
vn -0.115458 -0.989900 -0.082268
vn -0.372115 0.067960 -0.925696
vn -0.989388 0.002412 0.145279
vn -0.962785 0.102009 0.250277
vn 0.065223 0.996263 -0.056625
vn -0.506666 0.076183 -0.858770
vn -0.993602 -0.086535 0.072577
vn -0.120673 0.739666 0.662066
vn 0.483002 0.045170 -0.874453
vn -0.961271 -0.132653 -0.241580
vn -0.993927 0.056051 0.094699
vn -0.045250 -0.998427 -0.033117
vn 0.098445 0.987351 -0.124284
vn -0.988395 0.105567 0.109229
vn 0.059742 -0.997558 0.036167
vn -0.413778 0.018438 -0.910191
vn -0.970557 0.113433 0.212492
vn -0.412360 0.019610 -0.910810
vn 0.915311 -0.103053 -0.389341
vn -0.216942 0.799263 0.560460
vn 0.688954 0.716839 0.107165
vn -0.989306 -0.104153 -0.102110
vn -0.001391 -0.976561 0.215238
vn 0.989419 -0.042704 0.138656
vn 0.008404 -0.982598 0.185552
vn -0.988479 0.004052 -0.151306
vn -0.096781 -0.994335 -0.043948
vn -0.987008 -0.139246 -0.080154
vn -0.297496 0.814382 0.498276
vn -0.073574 -0.996929 -0.026808
vn 0.998700 -0.037407 -0.034622
vn 0.050577 0.993951 -0.097487
vn -0.994130 0.057923 0.091381
vn 0.063892 0.993240 -0.096908
vn 0.972334 -0.039621 -0.230209
vn 0.998246 -0.034545 -0.048077
vn 0.114920 0.032105 -0.992856
vn -0.041256 -0.998396 -0.038779
vn 0.968362 -0.064125 -0.241168
vn 0.116869 0.982455 -0.145343
vn 0.970588 -0.051104 -0.235262
vn -0.410542 0.021111 -0.911597
vn 0.064722 0.994196 -0.085936
vn 0.938237 -0.066087 -0.339624
vn -0.112486 -0.992799 -0.041197
vn 0.977367 -0.025483 -0.210012
vn -0.121295 -0.991292 -0.051257
vn -0.996218 0.060921 0.061950
vn 0.001539 -0.999998 0.001426
vn -0.052979 0.219294 -0.974219
vn 0.493911 -0.664796 -0.560445
vn -0.917694 -0.382942 -0.105799
vn -0.058093 0.196908 -0.978699
vn 0.450367 -0.667507 -0.592963
vn 0.900300 0.429933 -0.067948
vn -0.082035 -0.996161 -0.030542
vn -0.444525 0.010889 -0.895700
vn -0.967575 -0.022713 0.251560
vn -0.449045 0.006021 -0.893489
vn 0.018971 -0.999750 0.011831
vn -0.959677 0.086890 0.267340
vn -0.391175 0.045110 -0.919210
vn -0.083836 -0.996170 -0.024829
vn -0.969820 0.039878 0.240537
vn -0.449153 0.005904 -0.893435
vn -0.079657 -0.996095 -0.038072
vn 0.945367 -0.053562 -0.321577
vn -0.453337 0.001376 -0.891338
vn -0.036214 -0.999121 -0.021109
vn 0.943399 -0.057001 -0.326726
vn -0.987444 0.080750 0.135768
vn -0.989291 0.092503 0.112901
vn -0.081491 -0.996152 -0.032268
vn -0.415038 0.015806 -0.909666
vn 0.954368 -0.041566 -0.295728
vn 0.969434 -0.053602 -0.239425
vn 0.968395 -0.052057 -0.243927
vn -0.354618 0.612772 -0.706227
vn 0.108077 -0.990167 0.088815
vn 0.917561 0.104661 0.383573
vn -0.254189 -0.547512 -0.797257
vn -0.062101 0.962287 0.264852
vn 0.918971 0.103666 0.380455
vn 0.651331 0.587808 -0.479843
vn 0.092526 -0.990475 0.101968
vn -0.975377 -0.050550 -0.214671
vn 0.137950 -0.990327 -0.014885
vn 0.902378 0.098415 0.419558
vn -0.054010 0.964617 0.258062
vn -0.976053 -0.052566 -0.211088
vn 0.746275 -0.350610 -0.565814
vn -0.055871 0.963264 0.262680
vn 0.906276 0.091438 0.412679
vn -0.949108 -0.034512 -0.313055
vn -0.057035 0.964503 0.257840
vn -0.356348 -0.493763 -0.793230
vn 0.981411 0.093693 0.167491
vn -0.011324 0.993503 0.113237
vn -0.498451 0.458436 -0.735787
vn 0.977286 0.167251 0.130154
vn 0.244563 -0.967843 -0.058895
vn 0.715103 -0.418351 -0.560009
vn -0.947286 -0.039402 -0.317955
vn -0.002026 0.993654 0.112460
vn 0.600403 0.643819 -0.474355
vn -0.960686 -0.000837 -0.277635
vn 0.199020 -0.975539 -0.093351
vn -0.945147 -0.036819 -0.324564
vn 0.131529 -0.991272 -0.008918
vn -0.117070 0.946083 0.302028
vn 0.019155 0.997964 0.060828
vn -0.389282 0.882115 0.265203
vn -0.598068 0.107784 -0.794165
vn -0.081714 -0.994457 -0.066162
vn 0.843650 0.040737 -0.535346
vn -0.047127 -0.998137 -0.038742
vn -0.815512 0.004268 0.578725
vn 0.843809 0.048761 -0.534424
vn 0.013542 0.988860 0.148228
vn -0.838753 -0.011463 0.544392
vn 0.012823 0.993440 0.113631
vn -0.000829 -0.996744 0.080627
vn 0.998526 -0.018682 -0.050954
vn -0.978259 -0.011595 0.207061
vn -0.030514 -0.991360 0.127567
vn 0.060942 0.897238 0.437322
vn 0.993962 0.014768 0.108728
vn -0.969691 -0.034871 0.241833
vn 0.072899 0.888893 0.452278
vn -0.825001 0.565104 0.005586
vn 0.386270 0.819582 0.423179
vn 0.079799 -0.996765 -0.009611
vn 0.511534 0.072681 -0.856183
vn -0.926878 -0.189812 -0.323833
vn 0.955780 0.130167 0.263705
vn 0.096062 -0.995321 -0.010453
vn 0.528231 0.060516 -0.846941
vn -0.426146 -0.693763 -0.580597
vn 0.932444 -0.352162 -0.080811
vn -0.842095 0.535836 -0.061282
vn -0.384502 -0.698105 -0.603993
vn -0.889503 0.456545 -0.018742
vn 0.062538 0.177275 -0.982172
vn 0.447967 0.782628 0.432226
vn 0.937271 -0.339695 -0.078291
vn 0.395908 0.821774 0.409810
vn 0.112763 -0.989988 -0.084897
vn 0.396768 0.038190 -0.917124
vn -0.964364 -0.009975 -0.264391
vn -0.120885 0.988602 -0.089743
vn -0.999070 -0.015882 -0.040088
vn -0.959951 0.198459 0.197760
vn 0.075709 0.719634 0.690214
vn -0.061315 0.996485 -0.057073
vn 0.490412 0.087751 -0.867061
vn -0.938045 -0.152863 -0.310973
vn -0.115724 0.989278 -0.089087
vn 0.962775 0.115485 -0.244392
vn -0.214916 0.831770 -0.511830
vn -0.949010 0.285936 0.132740
vn 0.984956 -0.053139 -0.164434
vn -0.263177 -0.548249 -0.793827
vn -0.718122 0.693659 0.056020
vn 0.975350 0.068990 -0.209603
vn -0.026835 -0.043678 -0.998685
vn 0.057145 0.201106 -0.977901
vn 0.924713 -0.371900 -0.081222
vn 0.430920 0.797350 0.422540
vn 0.412028 0.019889 -0.910954
vn -0.048450 0.995072 -0.086514
vn 0.959727 0.137792 0.244823
vn 0.115426 -0.989903 -0.082276
vn 0.372128 0.067832 -0.925700
vn 0.989421 0.002085 0.145057
vn 0.962803 0.101932 0.250240
vn -0.065249 0.996261 -0.056622
vn 0.506757 0.076120 -0.858722
vn 0.993598 -0.086588 0.072563
vn 0.120669 0.739658 0.662076
vn -0.482996 0.045189 -0.874456
vn 0.961255 -0.132722 -0.241606
vn 0.993947 0.055844 0.094613
vn 0.045209 -0.998428 -0.033124
vn -0.098432 0.987353 -0.124281
vn 0.988399 0.105569 0.109190
vn -0.059715 -0.997561 0.036150
vn 0.413668 0.018534 -0.910239
vn 0.970453 0.113690 0.212828
vn 0.412299 0.019666 -0.910837
vn -0.915313 -0.103048 -0.389336
vn 0.216937 0.799261 0.560465
vn -0.688905 0.716881 0.107192
vn 0.989310 -0.104143 -0.102079
vn 0.001372 -0.976563 0.215226
vn -0.989424 -0.042711 0.138623
vn -0.008423 -0.982599 0.185549
vn 0.988480 0.004095 -0.151298
vn 0.096754 -0.994338 -0.043948
vn 0.986993 -0.139360 -0.080151
vn 0.297489 0.814379 0.498284
vn 0.073553 -0.996931 -0.026813
vn -0.998701 -0.037403 -0.034610
vn -0.050533 0.993953 -0.097490
vn 0.994147 0.057734 0.091313
vn -0.063846 0.993243 -0.096911
vn -0.972330 -0.039623 -0.230226
vn -0.998246 -0.034529 -0.048081
vn -0.114903 0.031678 -0.992871
vn 0.041223 -0.998397 -0.038786
vn -0.968364 -0.064094 -0.241173
vn -0.116867 0.982455 -0.145341
vn -0.970587 -0.050876 -0.235313
vn 0.410544 0.021115 -0.911596
vn -0.064656 0.994201 -0.085927
vn -0.938258 -0.066048 -0.339573
vn 0.112444 -0.992803 -0.041205
vn -0.977378 -0.025467 -0.209963
vn 0.121238 -0.991298 -0.051268
vn 0.996200 0.061145 0.062016
vn -0.001565 -0.999998 0.001442
vn 0.052988 0.219291 -0.974220
vn -0.493935 -0.664784 -0.560438
vn 0.917694 -0.382942 -0.105799
vn 0.058100 0.196910 -0.978699
vn -0.450386 -0.667496 -0.592961
vn -0.900293 0.429951 -0.067933
vn 0.082013 -0.996162 -0.030565
vn 0.444525 0.010889 -0.895700
vn 0.967660 -0.022708 0.251234
vn 0.449047 0.006019 -0.893488
vn -0.018989 -0.999750 0.011842
vn 0.959662 0.086998 0.267358
vn 0.391136 0.045036 -0.919230
vn 0.083809 -0.996172 -0.024867
vn 0.969828 0.039930 0.240498
vn 0.449155 0.005902 -0.893434
vn 0.079640 -0.996096 -0.038078
vn -0.945367 -0.053563 -0.321579
vn 0.453341 0.001372 -0.891336
vn 0.036160 -0.999124 -0.021077
vn -0.943411 -0.056956 -0.326697
vn 0.987442 0.080783 0.135763
vn 0.989264 0.092654 0.113013
vn 0.081469 -0.996153 -0.032289
vn 0.414934 0.015804 -0.909714
vn -0.954368 -0.041566 -0.295728
vn -0.969443 -0.053596 -0.239392
vn -0.968403 -0.051954 -0.243921
vn -0.917607 0.104679 0.383457
vn 0.350648 0.617751 -0.703868
vn -0.112462 -0.989515 0.090616
vn -0.919018 0.103683 0.380335
vn 0.248750 -0.553906 -0.794551
vn 0.064977 0.962386 0.263803
vn -0.092181 -0.990001 0.106777
vn -0.658630 0.607598 -0.443881
vn 0.955905 -0.040793 -0.290828
vn -0.138878 -0.990224 -0.013013
vn -0.902395 0.098421 0.419520
vn -0.760428 -0.377849 -0.528185
vn 0.053904 0.965412 0.255097
vn 0.955642 -0.040240 -0.291769
vn -0.906296 0.091445 0.412633
vn 0.056466 0.963529 0.261579
vn 0.934161 -0.027986 -0.355752
vn 0.056456 0.965033 0.255977
vn 0.356404 -0.493760 -0.793207
vn 0.011355 0.993504 0.113231
vn -0.981414 0.093693 0.167475
vn 0.498517 0.458421 -0.735752
vn -0.244540 -0.967849 -0.058893
vn -0.977287 0.167253 0.130136
vn -0.742155 -0.423838 -0.519198
vn 0.002047 0.993655 0.112453
vn 0.947324 -0.039323 -0.317854
vn -0.630832 0.640960 -0.437290
vn -0.199004 -0.975543 -0.093347
vn 0.960694 -0.000831 -0.277609
vn -0.131392 -0.991294 -0.008540
vn 0.931625 -0.032108 -0.362001
vn 0.196223 0.937826 0.286319
vn -0.215943 0.934941 0.281521
vn 0.122962 -0.986918 0.104279
vn -0.996303 -0.070511 -0.049077
vn -0.064338 0.986992 -0.147335
vn 0.999704 -0.004841 -0.023835
vn 0.124922 -0.986694 0.104066
vn 0.999664 -0.014918 -0.021197
vn -0.109339 0.872944 0.475410
vn -0.972157 -0.185428 0.143275
vn 0.106693 -0.994143 -0.017195
vn -0.004736 0.058366 -0.998284
vn -0.982900 -0.184134 0.001560
vn -0.132579 0.842833 0.521590
vn 0.988045 0.092969 0.122983
vn 0.108241 -0.993929 -0.019709
vn -0.019741 0.049213 -0.998593
vn 0.993309 0.097377 0.062081
vn -0.048829 0.124835 0.990975
vn -0.995606 -0.093068 0.010326
vn -0.026916 0.140761 -0.989678
vn -0.998477 -0.054596 -0.007895
vn -0.144060 0.988389 -0.048299
vn 0.985048 0.172042 -0.009058
vn 0.001338 -0.022281 0.999751
vn -0.063090 0.130611 -0.989424
vn -0.143941 0.988398 -0.048477
vn 0.985078 0.171828 -0.009827
vn 0.164036 -0.956269 0.242159
vn -0.896785 -0.300438 0.324829
vn 0.140872 -0.950408 0.277272
vn 0.964888 0.007679 0.262549
vn -0.031737 0.106601 -0.993795
vn 0.998158 0.059412 0.012298
vn -0.015796 0.044472 0.998886
vn 0.997655 0.068379 -0.002997
vn -0.043474 0.258649 -0.964993
vn -0.998482 0.033507 0.043723
vn -0.410282 0.911495 -0.029084
vn -0.998540 0.044250 0.030971
vn -0.001479 -0.040942 0.999160
vn -0.410242 0.911509 -0.029209
vn 0.118051 -0.979063 0.165830
vn -0.960304 -0.217652 0.174480
vn 0.104556 -0.976420 0.188870
vn 0.983590 0.069439 0.166522
vn 0.120514 0.258140 0.958562
vn 0.992272 0.045567 0.115413
vn 0.113354 0.260785 0.958719
vn -0.968796 -0.189767 0.159445
vn -0.072756 0.986240 -0.148448
vn -0.996853 -0.062304 -0.049005
vn -0.053140 -0.016348 -0.998453
vn -0.975438 -0.188609 0.113790
vn -0.043970 0.002962 -0.999028
vn 0.993363 0.048478 0.104304
vn -0.144258 0.988375 -0.048002
vn -0.997306 -0.045833 0.057272
vn 0.001940 -0.023304 0.999726
vn -0.996403 0.002755 0.084699
vn -0.144135 0.988384 -0.048187
vn -0.000646 0.020755 -0.999784
vn -0.004132 0.070787 0.997483
vn -0.997203 -0.019564 0.072133
vn 0.001308 -0.024876 0.999690
vn -0.410389 0.911457 -0.028745
vn -0.994674 0.028409 0.099077
vn -0.057143 0.133682 -0.989375
vn -0.410431 0.911443 -0.028614
vn -0.122885 -0.986911 0.104436
vn 0.996238 -0.070542 -0.050343
vn 0.064216 0.986988 -0.147414
vn -0.999734 -0.004839 -0.022564
vn -0.124847 -0.986687 0.104226
vn -0.999690 -0.014917 -0.019926
vn 0.110022 0.872930 0.475276
vn 0.972323 -0.185479 0.142073
vn 0.003476 0.058366 -0.998289
vn -0.106771 -0.994137 -0.017071
vn 0.982887 -0.184210 0.000297
vn 0.133325 0.842826 0.521411
vn -0.987886 0.093011 0.124214
vn 0.018479 0.049212 -0.998617
vn -0.108313 -0.993924 -0.019568
vn -0.993223 0.097448 0.063346
vn 0.050090 0.124834 0.990912
vn 0.995614 -0.093111 0.009064
vn 0.025671 0.140761 -0.989711
vn 0.998464 -0.054651 -0.009152
vn 0.144109 0.988370 -0.048557
vn -0.985039 0.172152 -0.007858
vn -0.000058 -0.022289 0.999752
vn 0.061861 0.130598 -0.989504
vn 0.144033 0.988375 -0.048671
vn -0.985070 0.171936 -0.008634
vn -0.163817 -0.956258 0.242353
vn 0.897192 -0.300458 0.323684
vn -0.140596 -0.950395 0.277457
vn -0.964544 0.007677 0.263812
vn 0.030488 0.106601 -0.993834
vn -0.998138 0.059480 0.013493
vn 0.017065 0.044474 0.998865
vn -0.997653 0.068446 -0.001805
vn 0.042268 0.258652 -0.965045
vn 0.998538 0.033389 0.042509
vn 0.410272 0.911484 -0.029557
vn 0.998582 0.044153 0.029732
vn 0.002740 -0.040935 0.999158
vn 0.410229 0.911499 -0.029691
vn -0.117908 -0.979057 0.165970
vn 0.960509 -0.217717 0.173266
vn -0.104370 -0.976413 0.189010
vn -0.983373 0.069494 0.167777
vn -0.119277 0.258146 0.958714
vn -0.992126 0.045631 0.116637
vn -0.112120 0.260790 0.958863
vn 0.968986 -0.189819 0.158222
vn 0.072634 0.986236 -0.148538
vn 0.996788 -0.062336 -0.050272
vn 0.051871 -0.016348 -0.998520
vn 0.975572 -0.188658 0.112549
vn 0.042703 0.002960 -0.999083
vn -0.993230 0.048545 0.105533
vn 0.144236 0.988361 -0.048368
vn 0.997373 -0.046044 0.055917
vn -0.000669 -0.023326 0.999728
vn -0.000624 0.020723 -0.999785
vn 0.144157 0.988366 -0.048486
vn 0.996517 0.002548 0.083345
vn 0.005398 0.070789 0.997477
vn 0.997296 -0.019777 0.070775
vn -0.000037 -0.024878 0.999690
vn 0.410387 0.911444 -0.029194
vn 0.055903 0.133672 -0.989448
vn 0.994813 0.028211 0.097728
vn 0.410432 0.911428 -0.029054
vn -0.026463 0.999649 0.001437
vn -0.997503 -0.006197 0.070348
vn -0.016263 -0.998093 0.059542
vn -0.997526 -0.007423 0.069910
vn 0.997738 -0.007287 0.066822
vn 0.014614 -0.998078 0.060230
vn 0.997731 -0.005823 0.067078
vn 0.035366 0.999302 0.012047
vn -0.140939 0.989234 0.039392
vn 0.471996 -0.663246 -0.580797
vn 0.004996 0.999902 -0.013049
vn 0.806793 -0.069580 -0.586723
vn 0.001758 0.999772 0.021276
vn 0.003854 0.999973 -0.006325
vn 0.023312 0.994626 0.100874
vn 0.999762 -0.000689 0.021797
vn 0.009394 0.999834 -0.015614
vn 0.003782 0.999854 -0.016670
vn -0.999841 0.000486 0.017826
vn -0.002629 0.999898 -0.014027
vn 0.999803 -0.001688 0.019761
vn -0.000057 -0.999972 -0.007496
vn -0.999867 -0.001121 0.016252
vn -0.000054 -0.999972 -0.007484
vn -0.109080 0.980974 0.160596
vn 0.094355 0.989165 0.112467
vn 0.045359 0.991169 0.124603
vn -0.141272 0.975670 0.167664
vn 0.179018 0.967830 0.176799
vn -0.031445 0.997690 0.060211
vn 0.007582 0.996589 0.082177
vn 0.215873 0.956397 0.196730
g fff00bd1_00028_001f491d_e2
f 9/39/17 24/37/45 8/38/16
f 121/439/254 7/17/14 8/17/15
f 17/17/32 121/439/254 120/438/253
f 54/274/103 57/274/110 54/274/104
f 22/26/42 23/25/43 9/42/17
f 6/227/11 93/335/192 60/1/117
f 23/36/43 24/37/45 9/39/17
f 11/17/19 11/17/20 10/17/18
f 1/481/1 126/481/264 125/481/262
f 89/239/182 89/237/181 93/240/190
f 120/435/253 8/292/15 1/293/2
f 11/17/19 12/17/21 11/17/20
f 60/20/119 89/326/182 60/28/118
f 1/481/1 1/481/2 126/481/264
f 18/258/34 19/257/35 120/434/252
f 122/458/257 119/459/251 123/460/258
f 3/17/5 60/17/117 3/17/6
f 10/17/18 23/17/44 22/17/42
f 54/274/103 55/274/105 58/274/113
f 55/237/105 54/238/103 55/239/106
f 3/17/5 3/17/6 4/17/7
f 88/245/179 89/247/182 88/246/180
f 122/458/257 122/461/256 119/459/251
f 9/267/17 13/268/24 11/266/19
f 6/273/12 3/271/5 13/270/24
f 58/274/113 57/274/111 54/274/103
f 121/462/255 18/463/33 122/461/256
f 58/17/114 56/17/109 55/17/105
f 10/235/18 13/224/23 8/225/16
f 18/17/33 18/17/34 120/433/252
f 56/241/108 54/242/104 55/243/107
f 59/464/115 123/465/259 93/466/192
f 60/17/118 91/17/185 61/17/120
f 8/481/15 124/481/260 125/481/263
f 59/221/116 93/334/191 11/232/20
f 7/481/14 124/481/260 8/481/15
f 119/432/251 1/17/2 1/17/1
f 123/226/258 124/226/260 7/226/14
f 23/35/43 55/327/106 56/322/108
f 11/17/19 10/17/18 22/17/42
f 12/265/21 11/260/19 4/261/7
f 5/456/10 93/228/191 123/456/259
f 89/247/182 91/250/184 88/246/180
f 119/459/251 1/467/1 123/460/258
f 57/274/111 57/274/110 54/274/103
f 23/24/44 24/23/45 56/324/109
f 56/17/109 55/17/107 55/17/105
f 55/274/107 57/274/112 58/274/113
f 93/466/192 59/468/116 3/469/6
f 90/274/183 92/274/188 88/274/180
f 60/40/117 61/31/120 2/43/3
f 56/324/109 24/23/45 56/323/108
f 8/43/16 24/30/45 23/31/44
f 55/274/105 55/274/107 58/274/113
f 54/274/104 57/274/110 57/274/112
f 55/326/106 22/28/42 58/325/114
f 56/244/109 56/241/108 55/243/107
f 8/255/15 125/259/263 1/259/2
f 9/42/17 11/41/19 22/26/42
f 56/17/109 58/17/114 22/17/42
f 23/35/43 56/322/108 24/34/45
f 10/40/18 8/43/16 23/31/44
f 125/476/262 59/468/116 124/473/261
f 60/35/119 61/34/121 91/322/184
f 55/274/107 54/274/104 57/274/112
f 6/248/12 6/249/11 2/251/4
f 1/255/2 125/255/263 126/255/264
f 55/247/106 54/246/104 56/250/108
f 93/466/192 3/469/6 60/470/117
f 22/17/42 23/17/44 56/17/109
f 125/482/262 124/483/261 1/484/1
f 13/248/24 9/251/17 13/249/23
f 54/245/103 54/246/104 55/247/106
f 23/20/43 22/28/42 55/326/106
f 11/269/19 13/270/24 3/271/5
f 2/272/4 3/271/5 6/273/12
f 4/261/7 11/260/19 3/262/5
f 13/249/23 9/251/17 8/252/16
f 6/249/11 2/252/3 2/251/4
f 55/239/106 58/240/114 55/237/105
f 60/236/117 2/229/3 6/227/11
f 2/39/4 2/38/3 61/37/121
f 88/274/179 88/274/180 91/274/186
f 60/26/118 2/42/4 60/25/119
f 60/36/119 2/39/4 61/37/121
f 60/17/117 60/17/118 61/17/120
f 88/274/179 92/274/189 89/274/181
f 89/237/181 89/239/182 88/238/179
f 92/274/189 88/274/179 92/274/187
f 93/17/190 89/17/181 91/17/185
f 91/241/184 90/243/183 88/242/180
f 60/35/119 91/322/184 89/327/182
f 3/17/5 60/17/118 60/17/117
f 92/274/187 88/274/179 91/274/186
f 61/24/120 91/324/185 61/23/121
f 91/17/185 89/17/181 90/17/183
f 90/274/183 92/274/189 92/274/188
f 91/324/185 91/323/184 61/23/121
f 2/43/3 61/31/120 61/30/121
f 89/274/181 92/274/189 90/274/183
f 88/274/180 92/274/188 91/274/186
f 89/326/182 93/325/190 60/28/118
f 91/244/185 90/243/183 91/241/184
f 2/42/4 60/26/118 3/41/5
f 91/17/185 60/17/118 93/17/190
f 93/333/191 13/224/23 10/234/18
f 93/334/191 10/222/18 11/232/20
f 15/275/28 18/276/33 16/277/29
f 15/291/27 19/278/35 18/279/34
f 19/285/35 15/290/27 19/283/36
f 15/291/27 18/279/34 14/284/26
f 17/286/31 17/287/32 19/283/36
f 15/275/28 18/279/34 18/276/33
f 17/287/32 16/280/29 122/281/256
f 15/275/28 14/284/26 18/279/34
f 17/286/31 19/283/36 16/282/30
f 16/277/29 121/441/255 122/288/256
f 17/286/31 16/280/29 17/287/32
f 15/290/27 16/282/30 19/283/36
f 120/433/252 1/17/2 119/432/251
f 18/17/33 120/433/252 119/432/251
f 120/434/252 19/257/35 120/435/253
f 120/434/252 120/435/253 1/293/2
f 120/438/253 121/439/254 8/17/15
f 19/253/35 19/254/36 120/436/253
f 121/440/254 17/233/32 122/442/256
f 19/264/36 17/264/32 120/437/253
f 18/463/33 119/459/251 122/461/256
f 16/277/29 18/276/33 121/441/255
f 121/440/254 122/443/257 7/230/14
f 121/440/254 122/442/256 122/443/257
f 122/443/257 123/444/258 7/230/14
f 59/330/116 124/472/260 124/474/261
f 13/7/24 12/445/22 14/446/25
f 6/6/12 7/447/13 4/448/8
f 7/449/13 13/2/24 14/450/25
f 6/3/12 13/2/24 7/449/13
f 13/219/23 5/451/10 12/452/22
f 6/453/11 59/328/115 93/453/192
f 6/6/11 6/6/12 4/448/8
f 59/329/115 6/15/11 4/454/8
f 5/223/10 13/455/23 93/455/191
f 13/7/24 13/7/23 12/445/22
f 123/456/259 93/228/191 59/456/116
f 123/465/259 59/468/116 93/466/192
f 124/471/260 11/17/20 12/17/21
f 59/330/116 11/231/20 124/472/260
f 124/483/261 123/485/258 1/484/1
f 124/226/261 124/226/260 123/226/258
f 125/475/262 4/17/7 3/17/6
f 3/469/6 59/468/116 125/476/262
f 125/477/263 124/471/260 12/17/21
f 125/478/263 12/256/21 4/263/7
f 125/475/262 126/479/264 4/17/7
f 126/480/264 125/478/263 4/263/7
f 127/482/268 127/483/267 126/484/265
f 127/483/267 127/485/266 126/484/265
f 129/482/272 128/483/271 128/484/269
f 128/483/271 128/485/270 128/484/269
g fff00bd1_00028_001f491d_e0
f 33/149/59 26/160/49 25/150/47
f 34/142/63 37/135/70 43/136/80
f 49/158/92 49/167/91 36/155/66
f 47/106/87 41/105/75 36/104/67
f 49/114/91 49/113/92 30/110/53
f 12/12/22 22/301/41 14/11/25
f 22/300/41 12/16/22 21/297/40
f 34/132/63 43/131/79 42/130/77
f 37/152/69 29/137/52 39/161/72
f 51/86/97 51/87/96 50/108/94
f 47/57/87 40/58/73 46/47/86
f 22/299/41 21/298/39 7/4/13
f 7/4/13 14/5/25 22/299/41
f 7/8/13 20/296/38 4/9/8
f 39/50/72 28/49/51 46/48/85
f 21/297/40 5/14/9 20/294/37
f 5/14/9 21/297/40 12/16/22
f 45/63/83 33/74/60 44/62/82
f 25/123/48 33/122/59 37/111/70
f 20/296/38 20/295/37 4/10/8
f 38/53/71 33/52/58 34/51/61
f 44/62/82 33/74/60 37/73/69
f 4/13/8 20/294/37 5/14/9
f 37/111/70 33/122/59 41/119/76
f 35/154/65 34/166/61 44/147/82
f 34/112/62 38/116/71 35/117/64
f 47/82/88 43/81/79 48/83/89
f 38/141/71 34/142/63 43/153/80
f 45/61/83 34/65/61 33/64/58
f 50/90/94 48/91/90 51/88/97
f 47/82/88 44/72/81 43/81/79
f 45/138/84 42/145/78 44/163/81
f 42/80/78 42/79/77 44/98/81
f 48/91/90 50/90/94 40/89/74
f 26/120/49 33/122/59 25/123/48
f 34/133/63 38/134/71 35/125/65
f 35/154/65 44/147/82 39/165/72
f 25/97/47 24/96/46 42/80/78
f 43/153/80 30/139/53 38/141/71
f 24/96/46 42/79/77 42/80/78
f 31/169/54 32/170/55 27/168/50
f 31/140/54 27/173/50 35/171/64
f 32/95/57 47/84/88 36/78/68
f 51/77/96 52/93/100 50/92/93
f 27/173/50 41/172/76 35/171/64
f 35/171/64 41/157/76 34/156/62
f 43/94/79 44/98/81 42/79/77
f 37/129/70 34/132/63 42/130/77
f 33/162/60 28/143/51 37/152/69
f 36/78/68 47/84/88 48/85/89
f 39/50/72 29/67/52 28/49/51
f 31/118/54 35/117/64 38/116/71
f 46/68/85 45/69/84 35/70/65
f 52/99/100 32/102/57 51/103/95
f 31/109/54 30/110/53 49/113/92
f 51/103/95 32/102/57 36/101/68
f 40/56/73 45/54/84 46/66/86
f 29/137/52 37/152/69 28/143/51
f 50/108/94 51/87/96 50/107/93
f 32/146/56 36/155/66 30/148/53
f 36/46/66 32/45/55 49/44/92
f 44/60/82 34/65/61 45/61/83
f 41/119/76 43/121/80 37/111/70
f 50/92/93 52/93/100 51/76/95
f 37/152/69 39/161/72 44/151/82
f 40/56/73 35/55/65 45/54/84
f 36/59/67 40/58/73 47/57/87
f 37/129/70 24/127/46 25/128/48
f 41/105/75 40/100/74 36/104/67
f 39/71/72 46/68/85 35/70/65
f 34/75/62 33/52/58 38/53/71
f 43/131/79 34/133/63 35/125/65
f 37/129/70 42/130/77 24/126/46
f 45/138/84 34/156/62 42/145/78
f 49/167/91 30/148/53 36/155/66
f 32/144/56 30/139/53 43/153/80
f 41/157/76 33/159/59 34/156/62
f 45/138/84 33/164/58 34/156/62
f 33/149/59 25/150/47 42/145/78
f 32/170/55 31/169/54 49/158/92
f 34/124/61 35/125/65 38/134/71
f 34/156/62 33/149/59 42/145/78
f 38/116/71 30/115/53 31/118/54
f 68/149/135 62/150/123 64/160/125
f 69/142/139 77/136/156 72/135/146
f 83/158/168 70/155/142 82/167/167
f 80/106/163 71/104/143 74/105/151
f 82/114/167 66/110/129 83/113/168
f 69/132/139 75/130/153 76/131/155
f 72/152/145 73/161/148 65/137/128
f 85/86/173 84/108/170 85/87/172
f 80/57/163 80/47/162 74/58/149
f 73/50/148 79/48/161 65/49/127
f 78/63/159 78/62/158 68/74/136
f 63/123/124 72/111/146 68/122/135
f 73/53/147 68/51/137 67/52/134
f 78/62/158 72/73/145 68/74/136
f 72/111/146 75/119/152 68/122/135
f 70/154/141 78/147/158 68/166/137
f 69/112/138 69/117/140 73/116/147
f 81/82/164 81/83/165 76/81/155
f 73/141/147 77/153/156 69/142/139
f 78/61/159 67/64/134 68/65/137
f 84/90/170 85/88/173 82/91/166
f 81/82/164 76/81/155 77/72/157
f 79/138/160 77/163/157 76/145/154
f 76/80/154 77/98/157 75/79/153
f 82/91/166 74/89/150 84/90/170
f 64/120/125 63/123/124 68/122/135
f 69/133/139 70/125/141 73/134/147
f 70/154/141 73/165/148 78/147/158
f 62/97/123 76/80/154 62/96/122
f 77/153/156 73/141/147 66/139/129
f 62/96/122 76/80/154 75/79/153
f 66/169/130 64/168/126 66/170/131
f 66/140/130 69/171/140 64/173/126
f 67/95/133 71/78/144 81/84/164
f 85/77/172 83/92/169 87/93/176
f 64/173/126 69/171/140 75/172/152
f 69/171/140 69/156/138 75/157/152
f 76/94/155 75/79/153 77/98/157
f 72/129/146 75/130/153 69/132/139
f 68/162/136 72/152/145 65/143/127
f 71/78/144 81/85/165 81/84/164
f 73/50/148 65/49/127 65/67/128
f 66/118/130 73/116/147 69/117/140
f 79/68/161 70/70/141 79/69/160
f 87/99/176 84/103/171 67/102/133
f 66/109/130 83/113/168 66/110/129
f 84/103/171 71/101/144 67/102/133
f 74/56/149 80/66/162 79/54/160
f 65/137/128 65/143/127 72/152/145
f 84/108/170 83/107/169 85/87/172
f 67/146/132 66/148/129 70/155/142
f 70/46/142 83/44/168 66/45/131
f 78/60/158 78/61/159 68/65/137
f 75/119/152 72/111/146 77/121/156
f 83/92/169 84/76/171 87/93/176
f 72/152/145 78/151/158 73/161/148
f 74/56/149 79/54/160 70/55/141
f 71/59/143 80/57/163 74/58/149
f 72/129/146 63/128/124 62/127/122
f 74/105/151 71/104/143 74/100/150
f 73/71/148 70/70/141 79/68/161
f 69/75/138 73/53/147 67/52/134
f 76/131/155 70/125/141 69/133/139
f 72/129/146 62/126/122 75/130/153
f 79/138/160 76/145/154 69/156/138
f 82/167/167 70/155/142 66/148/129
f 67/144/132 77/153/156 66/139/129
f 75/157/152 69/156/138 68/159/135
f 79/138/160 69/156/138 67/164/134
f 68/149/135 76/145/154 62/150/123
f 66/170/131 83/158/168 66/169/130
f 68/124/137 73/134/147 70/125/141
f 69/156/138 76/145/154 68/149/135
f 73/116/147 66/118/130 66/115/129
f 58/319/113 57/321/112 25/19/48
f 25/19/48 24/18/46 58/319/113
f 58/318/113 24/29/46 25/27/47
f 57/317/111 25/32/47 57/315/110
f 25/22/48 57/314/110 26/21/49
f 26/33/49 57/315/110 25/32/47
f 57/316/111 58/318/113 25/27/47
f 25/22/48 57/320/112 57/314/110
f 63/22/124 91/314/186 92/320/188
f 92/316/187 62/27/123 92/318/189
f 64/33/125 62/32/123 91/315/186
f 63/22/124 64/21/125 91/314/186
f 92/317/187 91/315/186 62/32/123
f 92/318/189 62/27/123 62/29/122
f 63/19/124 92/319/189 62/18/122
f 92/319/189 63/19/124 92/321/188
f 109/366/229 118/401/248 114/363/242
f 95/421/196 95/422/198 103/423/212
f 106/418/221 105/419/220 105/418/218
f 116/378/245 110/371/230 115/377/244
f 110/371/230 116/378/245 111/373/235
f 110/371/230 111/373/235 112/372/237
f 112/374/237 111/373/235 119/405/250
f 109/369/228 115/377/244 108/370/226
f 115/377/244 109/369/228 116/378/245
f 117/395/247 119/405/250 110/375/232
f 110/362/231 117/393/246 117/394/247
f 119/405/250 111/373/235 110/375/232
f 113/349/239 111/351/233 111/348/234
f 108/358/226 113/347/240 109/341/228
f 119/404/250 117/404/247 118/361/249
f 107/364/225 113/365/241 108/368/227
f 101/349/210 102/347/211 98/350/205
f 114/363/242 118/401/248 113/365/241
f 118/361/249 117/404/247 117/417/246
f 95/358/197 96/341/199 102/347/211
f 114/363/242 113/365/241 107/364/225
f 101/349/210 98/348/205 97/351/204
f 104/378/216 104/377/215 96/371/201
f 113/349/239 113/347/240 108/358/226
f 110/362/231 117/394/247 110/360/232
f 118/401/248 112/367/236 113/365/241
f 113/349/239 111/350/234 113/347/240
f 96/371/201 99/373/206 104/378/216
f 96/371/201 100/372/208 99/373/206
f 100/374/208 106/405/221 99/373/206
f 96/369/199 95/370/197 104/377/215
f 104/377/215 104/378/216 96/369/199
f 106/405/221 97/375/203 99/373/206
f 105/424/219 103/423/212 100/425/207
f 97/362/202 97/360/203 105/394/218
f 101/349/210 95/358/197 102/347/211
f 103/426/213 95/421/196 103/423/212
f 97/362/202 105/394/218 104/393/217
f 96/427/200 103/426/213 105/424/219
f 105/419/220 104/420/217 105/418/218
f 106/405/221 105/395/218 97/375/203
f 103/426/213 103/423/212 105/424/219
f 110/343/230 112/354/238 109/345/229
f 96/343/201 96/345/200 100/354/209
f 115/344/244 109/345/229 114/356/242
f 101/336/210 103/356/213 104/344/215
f 113/336/239 114/356/242 107/352/225
f 95/342/197 101/336/210 104/344/215
f 107/352/225 111/353/233 113/336/239
f 95/352/196 101/336/210 97/353/204
f 101/336/210 95/352/196 103/356/213
f 100/354/209 100/355/208 96/343/201
f 104/344/215 103/356/213 96/345/200
f 109/345/229 115/376/244 110/343/230
f 108/342/226 115/344/244 113/336/239
f 96/345/200 96/343/201 104/376/215
f 113/336/239 115/344/244 114/356/242
f 112/354/238 110/343/230 112/355/237
f 103/337/212 96/338/199 104/379/216
f 95/357/198 98/346/205 102/340/211
f 102/340/211 103/337/212 95/357/198
f 97/415/202 100/359/207 97/416/203
f 113/337/241 109/338/228 113/340/240
f 103/337/212 104/379/216 99/339/206
f 100/359/207 103/337/212 99/339/206
f 112/359/236 110/416/232 111/339/235
f 100/359/207 99/339/206 97/416/203
f 103/337/212 102/340/211 96/338/199
f 108/357/227 113/340/240 111/346/234
f 113/337/241 111/339/235 116/379/245
f 112/359/236 111/339/235 113/337/241
f 113/340/240 108/357/227 113/337/241
f 110/415/231 110/416/232 112/359/236
f 113/337/241 116/379/245 109/338/228
f 103/396/214 94/391/194 95/387/198
f 98/392/205 94/389/195 97/388/204
f 94/389/195 94/390/193 97/388/204
f 95/387/198 95/386/196 103/397/214
f 114/396/243 108/387/227 107/391/223
f 108/387/227 114/397/243 107/386/225
f 111/392/234 111/388/233 107/389/224
f 107/389/224 111/388/233 106/390/222
f 98/383/205 94/385/194 94/384/195
f 94/385/194 98/383/205 95/381/198
f 111/383/234 107/384/224 107/385/223
f 107/385/223 108/381/227 111/383/234
f 107/381/225 114/398/243 106/380/222
f 107/381/225 106/380/222 111/382/233
f 95/381/196 97/382/204 94/380/193
f 95/381/196 94/380/193 103/398/214
f 5/289/10 123/457/259 59/428/115
f 4/429/8 5/331/9 59/430/115
f 5/220/10 59/430/115 5/331/9
f 5/332/9 12/431/22 5/218/10
g fff00bd1_00028_001f491d_e1
f 43/311/79 35/308/65 52/310/99
f 50/215/94 50/200/93 51/190/95
f 40/216/73 36/202/67 50/215/94
f 48/192/89 51/190/95 36/201/68
f 45/199/83 46/198/85 33/197/60
f 52/309/98 35/308/65 40/313/73
f 33/197/60 46/198/85 28/196/51
f 43/311/79 52/310/99 48/312/89
f 52/189/98 40/216/73 50/215/94
f 52/191/99 52/189/98 51/190/95
f 40/214/74 50/215/94 36/202/67
f 51/190/95 52/189/98 50/215/94
f 45/217/83 45/213/84 46/212/85
f 35/308/65 52/309/98 52/310/99
f 33/211/58 45/213/84 45/217/83
f 48/192/89 52/191/99 51/190/95
f 52/176/100 53/175/102 53/174/101
f 27/210/50 32/209/56 43/208/80
f 45/303/84 53/302/102 46/307/86
f 27/210/50 43/208/80 41/205/76
f 47/306/88 53/305/101 44/304/81
f 52/182/100 53/177/101 47/181/88
f 53/305/101 53/302/102 44/304/81
f 52/180/100 51/179/96 51/178/97
f 32/206/56 27/207/50 36/204/66
f 32/183/57 52/182/100 47/181/88
f 41/184/75 47/193/87 51/188/97
f 52/187/100 51/186/97 53/185/102
f 47/193/87 46/194/86 51/188/97
f 27/207/50 32/203/55 36/204/66
f 53/195/102 51/188/97 46/194/86
f 53/302/102 45/303/84 44/304/81
f 76/311/155 86/310/175 70/308/141
f 84/215/170 84/190/171 83/200/169
f 74/216/149 84/215/170 71/202/143
f 81/192/165 71/201/144 84/190/171
f 78/199/159 68/197/136 79/198/161
f 86/309/174 74/313/149 70/308/141
f 68/197/136 65/196/127 79/198/161
f 76/311/155 81/312/165 86/310/175
f 86/189/174 84/215/170 74/216/149
f 86/191/175 84/190/171 86/189/174
f 74/214/150 71/202/143 84/215/170
f 84/190/171 84/215/170 86/189/174
f 78/217/159 79/212/161 79/213/160
f 70/308/141 86/310/175 86/309/174
f 67/211/134 78/217/159 79/213/160
f 81/192/165 84/190/171 86/191/175
f 87/176/176 87/174/177 87/175/178
f 64/210/126 77/208/156 67/209/132
f 79/303/160 80/307/162 87/302/178
f 64/210/126 75/205/152 77/208/156
f 81/306/164 77/304/157 87/305/177
f 87/182/176 81/181/164 87/177/177
f 87/305/177 77/304/157 87/302/178
f 87/180/176 85/178/173 85/179/172
f 67/206/132 70/204/142 64/207/126
f 67/183/133 81/181/164 87/182/176
f 74/184/151 85/188/173 80/193/163
f 87/187/176 87/185/178 85/186/173
f 80/193/163 85/188/173 80/194/162
f 64/207/126 70/204/142 66/203/131
f 87/195/178 80/194/162 85/188/173
f 87/302/178 77/304/157 79/303/160
f 118/414/248 118/410/249 112/413/236
f 112/399/238 118/403/249 118/402/248
f 118/410/249 110/412/231 112/413/236
f 112/399/238 118/402/248 109/400/229
f 118/410/249 117/411/246 110/412/231
f 105/410/220 97/412/202 104/411/217
f 100/399/209 96/400/200 105/402/219
f 105/410/220 100/413/207 97/412/202
f 100/399/209 105/402/219 105/403/220
f 105/414/219 100/413/207 105/410/220
f 112/407/237 119/409/250 118/408/249
f 112/406/238 112/407/237 118/408/249
f 100/407/208 105/408/220 106/409/221
f 100/406/209 105/408/220 100/407/208
