# fff089d2_00012_000388a9
o fff089d2_00012_000388a9
v 0.360062 1.891952 -0.196029
v -0.466532 -2.111832 -0.318469
v -2.492195 2.024300 -0.320914
v -1.255368 -2.112588 -0.320914
v 0.127030 2.024276 -0.244652
v 0.761731 -0.173367 -0.056112
v 1.594676 -2.199972 0.233144
v 1.352046 1.383218 0.094394
v 0.863987 2.024276 -0.007069
v 0.922704 -1.124406 -0.023067
v 0.773268 -1.111523 -0.055548
v 0.122705 -0.496957 -0.224157
v 0.072600 -0.337421 -0.239063
v -0.568482 -2.111832 -0.330694
v -0.466532 -2.111832 -0.338685
v 0.922669 -1.124327 -0.049956
v 0.773268 -1.111523 -0.075764
v 0.122669 -0.496878 -0.251046
v 0.761731 -0.173367 -0.116046
v 0.123870 -0.337421 -0.298998
v 0.752474 -2.111832 -0.073870
v 0.652216 -0.778893 -0.085906
v 0.716204 -2.111832 -0.084182
v 0.752474 -2.111832 -0.093693
v 0.159346 1.003747 -0.252305
v 0.360027 1.892031 -0.228309
v 0.159346 1.003747 -0.283302
v 0.127792 -0.324282 -0.224411
v 0.095031 0.009372 -0.242487
v 0.123870 0.072247 -0.298998
v -1.255335 -2.111058 -0.352589
v -2.490072 2.023751 -0.342018
v 1.594605 -2.199815 0.199582
v 1.351975 1.383376 0.060832
v 0.863916 2.024434 -0.040631
v 0.652146 -0.778736 -0.119468
vt 0.072503 1.966928
vt 0.085555 1.041226
vt 0.557166 1.966203
vt 0.555303 1.041226
vt 0.749375 1.848036
vt 0.556427 1.041271
vt 0.557424 1.511536
vt 0.749005 1.662174
vt 0.558052 1.823086
vt 0.749380 1.848058
vt 0.749129 1.722856
vt 0.557070 1.346523
vt 0.749147 1.734731
vt 0.556714 1.400892
vt 0.557155 1.427541
vt 0.557165 1.394860
vt 1.951889 1.501093
vt 1.581453 1.871116
vt 1.581453 1.871116
vt 1.951889 1.501093
vt 1.783164 1.597768
vt 1.665527 1.862096
vt 1.665527 1.862096
vt 1.783164 1.597768
vt 1.514621 1.499252
vt 1.825634 1.649701
vt 1.825634 1.620979
vt 0.556776 1.206359
vt 0.749131 1.724179
vt 0.557046 1.334893
vt 0.556753 1.195425
vt 1.460485 1.510738
vt 1.527365 1.837971
vt 1.884921 1.510738
vt 1.960215 1.837971
vt 0.558039 1.847348
vt 0.558050 1.847394
vt 0.558293 1.967880
vt 0.558054 1.849025
vt 0.557202 1.425114
vt 1.539530 1.537722
vt 0.557384 1.536093
vt 0.557424 1.536258
vt 1.515484 1.499504
vt 1.540393 1.537974
vt 0.749375 1.848029
vt 0.749380 1.848051
vt 0.749005 1.662342
vt 0.749129 1.723023
vt 0.558051 1.823051
vt 0.749147 1.734738
vt 0.749131 1.724186
vn -0.664416 0.550624 0.505335
vn -0.803896 0.253432 0.538074
vn -0.772176 -0.227353 0.593342
vn -0.616039 -0.207375 0.759928
vn -0.029103 -0.008416 0.999541
vn -0.107882 -0.503016 0.857517
vn 0.611602 0.523432 0.593264
vn 0.239632 0.374886 0.895565
vn 0.141723 0.725103 0.673899
vn 0.314395 0.687758 0.654328
vn -0.595960 0.619471 0.510967
vn -0.338155 0.786839 0.516270
vn -0.030976 -0.010047 0.999470
vn 0.014276 -0.056710 0.998289
vn -0.939430 0.342742 0.000000
vn 0.470124 0.882598 0.001969
vn -0.716815 0.697263 0.000230
vn -0.452100 0.891961 0.003192
vn 0.249087 -0.968481 0.000000
vn -0.665278 -0.739068 0.105756
vn -0.808334 0.017698 0.588458
vn 0.068803 0.510262 0.857262
vn -0.194307 -0.008059 0.980908
vn -0.999784 0.020783 0.000000
vn -0.394330 0.062639 0.916832
vn -0.776491 0.630124 0.002390
vn -0.975405 0.220418 0.000037
vn -0.533874 -0.620483 0.574438
vn -0.511057 0.016032 0.859397
vn -0.890715 0.000000 -0.454563
vn -0.958095 -0.286068 -0.014785
vn -0.954356 -0.285327 -0.088276
vn 0.848012 0.529977 0.000695
vn 0.795561 0.605872 0.001164
vn 0.233824 0.972271 0.004017
vn 0.469339 0.883013 0.003123
g fff089d2_00012_000388a9_e6
f 14/4/14 13/14/13 4/2/4
f 3/1/3 4/2/4 13/14/13
f 29/3/29 3/1/3 13/14/13
f 25/37/25 29/43/29 6/16/6
f 22/30/22 2/6/2 23/31/23
f 8/9/8 9/10/9 1/5/1
f 11/12/11 21/28/21 10/11/10
f 1/5/1 25/37/25 6/16/6
f 6/7/6 8/9/8 1/5/1
f 10/11/10 21/28/21 7/8/7
f 3/15/3 25/36/25 5/3/5
f 12/13/12 2/6/2 22/29/22
f 3/15/3 29/42/29 25/36/25
f 6/16/6 29/43/29 28/40/28
f 34/50/34 35/47/35 8/9/8
f 9/10/9 8/9/8 35/47/35
g fff089d2_00012_000388a9_e7
f 2/17/2 12/18/12 18/19/18
f 18/19/18 15/20/15 2/17/2
f 10/21/10 17/22/17 11/23/11
f 17/22/17 10/21/10 16/24/16
f 20/25/20 6/26/6 28/41/28
f 6/26/6 20/25/20 19/27/19
f 21/32/21 11/33/11 24/34/24
f 17/35/17 24/34/24 11/33/11
f 25/37/25 1/5/1 27/39/27
f 26/38/26 27/39/27 1/5/1
f 28/41/28 29/45/29 20/25/20
f 30/44/30 20/25/20 29/45/29
f 4/17/4 3/18/3 32/19/32
f 32/19/32 31/20/31 4/17/4
f 35/47/35 1/5/1 9/10/9
f 1/5/1 35/47/35 26/46/26
f 7/8/7 16/49/16 10/11/10
f 16/49/16 7/8/7 33/48/33
f 22/29/22 36/52/36 12/13/12
f 18/51/18 12/13/12 36/52/36
