# fff08519_00076_00179e62
o fff08519_00076_00179e62
v 3.844208 -1.399385 -0.704597
v 4.011124 -1.176943 -0.670080
v 4.118900 -1.486894 -0.664083
v 4.010029 -1.385796 -0.556622
v 4.110916 -1.218655 -0.655717
v 4.063351 -1.443191 -0.574013
v 4.363787 -6.979698 -0.864392
v 4.576273 -6.926010 -0.844746
v 4.485468 -7.163929 -0.805133
v 4.465208 -7.029144 -0.702431
v 4.615492 -6.998901 -0.822629
v 4.469584 -7.093475 -0.714103
v -2.050350 3.114790 0.177601
v -1.946113 3.140461 0.179000
v -2.002971 2.847443 0.117228
v -1.932701 3.033107 0.235181
v -1.867008 3.059972 0.157758
v -1.968887 2.924801 0.215365
v -2.123173 2.960486 0.139388
v 3.840347 -6.631714 -0.788255
v 3.926131 -6.566712 -0.778215
v 3.979209 -6.812633 -0.772620
v 3.952211 -6.648781 -0.672897
v 4.032128 -6.611264 -0.766078
v 3.962023 -6.764212 -0.668400
v 3.871453 -6.754283 -0.784929
v 3.573100 -1.110255 -0.655594
v 3.677708 -0.980618 -0.654411
v 3.732811 -1.163766 -0.615910
v 3.678220 -1.037517 -0.592838
v 3.735455 -1.005897 -0.639169
v 3.694880 -1.124087 -0.547178
v -0.155601 0.402802 -0.328073
v 0.066010 0.425744 -0.285699
v -0.042724 0.202803 -0.380717
v -0.004738 0.326162 -0.267601
v 0.101513 0.347887 -0.307500
v -0.010494 0.261894 -0.271743
v -0.450466 1.339317 -0.194758
v -0.347465 1.371778 -0.199360
v -0.380214 1.122843 -0.216207
v -0.332401 1.274444 -0.105518
v -0.262291 1.294485 -0.211157
v -0.361416 1.162236 -0.108522
v -0.462398 1.213695 -0.203577
v -0.300121 1.107812 -0.193990
v -0.079540 1.155759 -0.201397
v -0.178344 0.915281 -0.250140
v -0.117977 1.062815 -0.148428
v -0.040577 1.079872 -0.222758
v -0.169155 0.939195 -0.133664
v -1.608059 2.914122 0.090704
v -1.503532 3.030996 0.106293
v -1.456608 2.852653 0.099500
v -1.510513 2.910110 0.192908
v -1.448963 3.003109 0.109119
v -1.483555 2.876364 0.174559
v 3.488957 -3.511907 -0.675222
v 3.578583 -3.407096 -0.659750
v 3.621514 -3.563668 -0.652115
v 3.578831 -3.461732 -0.616238
v 3.626412 -3.430805 -0.651407
v 3.591709 -3.539062 -0.589856
v 2.761347 -2.753007 -0.611134
v 2.861637 -2.594530 -0.641205
v 2.956073 -2.794364 -0.611474
v 2.892580 -2.705493 -0.534439
v 2.933021 -2.616166 -0.640253
v 2.929480 -2.745992 -0.546651
v 3.216091 -2.833897 -0.611969
v 3.408631 -2.768099 -0.616517
v 3.352230 -2.999527 -0.638825
v 3.375866 -2.854918 -0.572966
v 3.454132 -2.834264 -0.626698
v 3.340550 -2.972462 -0.555508
v -3.260612 2.758370 0.136896
v -3.014380 2.959415 0.144439
v -2.981748 2.592440 0.198706
v -3.070679 2.748822 0.303217
v -2.915837 2.888271 0.167974
v -3.028413 2.668842 0.292844
v -4.240062 3.160661 0.265095
v -4.134604 3.420507 0.256619
v -3.949462 3.150552 0.285238
v -4.052318 3.294923 0.389616
v -4.026475 3.407262 0.264683
v -4.010955 3.193555 0.398914
v -3.704038 2.435915 0.054871
v -3.594663 2.492026 0.071291
v -3.526986 2.274672 0.042072
v -3.561412 2.407435 0.139644
v -3.459516 2.451354 0.074396
v -3.548900 2.305197 0.127342
v -3.664378 2.327525 0.040714
v -4.615492 3.145315 0.282687
v -4.388493 3.271196 0.296839
v -4.370464 3.024698 0.266314
v -4.396482 3.179548 0.351529
v -4.302297 3.220209 0.290024
v -4.395794 3.054739 0.372679
v -4.328621 7.057574 0.811700
v -4.017056 7.163929 0.803756
v -4.047041 6.845928 0.730042
v -4.077839 7.005389 0.861399
v -3.947872 7.061049 0.771051
v -4.065800 6.912324 0.864392
v -4.360486 3.477323 0.295548
v -4.348361 3.558588 0.316100
v -4.186788 3.446001 0.326099
v -4.299985 3.514654 0.400323
v -4.266137 3.587930 0.340311
v -4.232804 3.453641 0.367350
v -4.277408 3.423608 0.301610
v -4.305297 6.727320 0.742940
v -4.132780 6.711682 0.742077
v -4.259430 6.556252 0.711119
v -4.183151 6.654975 0.785069
v -4.121329 6.646355 0.729855
v -4.249236 6.576998 0.799618
v -4.184205 2.975379 0.209893
v -3.892495 3.230036 0.274693
v -3.827668 2.777735 0.223176
v -3.941781 2.925375 0.399738
v -3.765672 3.144743 0.277479
v -3.885373 2.836192 0.360955
v 2.370525 8.942102 0.737019
v 2.596226 8.963843 0.732683
v 2.470150 8.734689 0.686355
v 2.530018 8.868710 0.775290
v 2.626476 8.883175 0.713325
v 2.523323 8.804545 0.779621
v 2.435322 9.961900 0.717143
v 2.509693 10.040206 0.712541
v 2.601673 9.806579 0.695693
v 2.570038 9.962360 0.806382
v 2.621655 10.013865 0.700743
v 2.599030 9.850147 0.803379
v 2.485760 9.846228 0.708324
v 2.858341 8.904523 0.672153
v 2.990379 9.087712 0.667904
v 3.080292 8.842054 0.628722
v 3.021214 8.994047 0.724450
v 3.071114 9.057053 0.651328
v 3.065083 8.868307 0.744058
vt 0.384243 1.002206
vt 0.601469 0.819239
vt 0.383891 1.000368
vt 0.385478 1.003850
vt 0.499580 1.042743
vt 0.384138 1.001230
vt 0.600194 0.818206
vt 0.600468 0.818757
vt 0.599584 0.820014
vt 0.600604 0.820260
vt 0.601200 0.819817
vt 0.498675 1.043418
vt 0.498885 1.044694
vt 0.500578 1.036538
vt 0.383773 1.000705
vn -0.682380 -0.155152 0.714343
vn -0.248032 0.463440 0.850708
vn 0.425670 -0.682779 0.593817
vn -0.216855 -0.033543 0.975627
vn 0.310394 0.375618 0.873251
vn 0.254987 -0.549451 0.795666
vn -0.722842 0.444956 0.528690
vn 0.174921 0.727342 0.663608
vn -0.097527 -0.795210 0.598440
vn -0.188063 0.265539 0.945580
vn 0.620436 0.192471 0.760273
vn -0.141679 -0.539468 0.830001
vn -0.337009 0.167676 0.926450
vn 0.171924 0.473543 0.863828
vn 0.007392 -0.786571 0.617456
vn 0.293460 0.023879 0.955673
vn 0.803749 -0.004640 0.594951
vn 0.212629 -0.556669 0.803062
vn -0.474540 -0.251625 0.843502
vn -0.691719 0.184829 0.698114
vn -0.205734 0.746564 0.632706
vn 0.272832 -0.854515 0.442004
vn -0.035816 0.328051 0.943981
vn 0.663487 0.425502 0.615413
vn 0.098864 -0.490500 0.865815
vn -0.719581 -0.375236 0.584295
vn -0.727001 -0.003358 0.686628
vn -0.276191 0.704726 0.653513
vn 0.432767 -0.656508 0.617827
vn -0.214788 0.561659 0.799003
vn 0.414814 0.559555 0.717515
vn 0.081310 -0.290132 0.953526
vn -0.501746 -0.098911 0.859341
vn 0.114317 0.098443 0.988555
vn -0.235651 -0.823413 0.516197
vn -0.023527 0.042248 0.998830
vn 0.486303 -0.290593 0.824054
vn 0.026650 -0.623941 0.781017
vn -0.454361 0.317843 0.832185
vn 0.172771 0.697362 0.695584
vn 0.042506 -0.940656 0.336690
vn 0.243924 0.214395 0.945799
vn 0.865548 0.118236 0.486669
vn 0.078971 -0.589880 0.803620
vn -0.688839 -0.187154 0.700339
vn -0.452518 0.079253 0.888227
vn 0.340710 0.355195 0.870490
vn -0.020756 -0.979033 0.202641
vn 0.313061 0.154690 0.937050
vn 0.770983 -0.149120 0.619152
vn 0.000570 -0.680589 0.732666
vn -0.751485 -0.144847 0.643654
vn -0.157414 0.581160 0.798420
vn 0.461751 -0.784653 0.413649
vn -0.149070 -0.042128 0.987929
vn 0.519510 0.397009 0.756633
vn 0.320112 -0.641344 0.697285
vn -0.714514 -0.092835 0.693434
vn -0.248070 0.602810 0.758341
vn 0.428470 -0.751254 0.502027
vn -0.187354 0.438097 0.879187
vn 0.440431 0.435683 0.784984
vn 0.091542 -0.433134 0.896669
vn -0.526942 -0.058237 0.847903
vn -0.151913 0.662976 0.733066
vn 0.575139 -0.524787 0.627546
vn -0.007926 0.205016 0.978727
vn 0.474102 0.606180 0.638571
vn 0.486556 -0.316225 0.814411
vn -0.422046 0.098182 0.901242
vn 0.220547 0.369559 0.902655
vn 0.141709 -0.935469 0.323753
vn 0.199042 0.216897 0.955687
vn 0.634976 0.001273 0.772531
vn -0.027336 -0.636302 0.770955
vn -0.683343 0.111400 0.721549
vn -0.107862 0.616733 0.779748
vn 0.258912 -0.683181 0.682809
vn -0.196452 0.147904 0.969294
vn 0.412453 0.398180 0.819351
vn 0.130616 -0.486954 0.863606
vn -0.562164 -0.220511 0.797086
vn -0.361477 0.555887 0.748548
vn 0.669173 -0.498909 0.550724
vn 0.063835 0.374276 0.925117
vn 0.370639 0.661544 0.651910
vn 0.349059 -0.341880 0.872512
vn -0.509719 0.008137 0.860302
vn -0.157104 0.582606 0.797426
vn 0.314141 -0.865343 0.390509
vn -0.034811 0.172261 0.984436
vn 0.558140 0.216277 0.801065
vn 0.112979 -0.607438 0.786292
vn -0.549967 -0.452174 0.702193
vn -0.480181 -0.083690 0.873168
vn 0.023228 0.510805 0.859382
vn 0.363727 -0.870185 0.332385
vn 0.054143 0.324321 0.944396
vn 0.588004 0.187689 0.786781
vn 0.152222 -0.574339 0.804340
vn -0.325929 -0.120197 0.937722
vn 0.266602 0.237417 0.934107
vn 0.255500 -0.852099 0.456780
vn 0.149305 0.155527 0.976483
vn 0.664359 -0.059025 0.745079
vn 0.174815 -0.572578 0.800996
vn -0.710234 -0.424693 0.561429
vn -0.739971 0.319712 0.591800
vn 0.553320 -0.450436 0.700675
vn -0.217031 0.027492 0.975777
vn 0.121974 0.600615 0.790180
vn 0.315588 -0.458243 0.830914
vn -0.296746 -0.803977 0.515328
vn -0.427951 0.263548 0.864523
vn 0.411747 0.289389 0.864129
vn -0.317346 -0.914507 0.250937
vn 0.323857 0.110505 0.939631
vn 0.676879 -0.334299 0.655804
vn -0.219704 -0.604620 0.765614
vn -0.660137 -0.113605 0.742505
vn -0.108162 0.392399 0.913413
vn 0.317567 -0.817787 0.479975
vn -0.166546 -0.113357 0.979496
vn 0.423311 0.200818 0.883448
vn 0.186784 -0.681267 0.707804
vn -0.324072 0.009063 0.945989
vn 0.306112 0.203475 0.929996
vn -0.133069 -0.755371 0.641644
vn 0.172725 0.152332 0.973119
vn 0.637202 -0.210724 0.741329
vn 0.176776 -0.534830 0.826261
vn -0.551462 0.057863 0.832191
vn -0.186784 0.693734 0.695590
vn 0.492994 -0.802247 0.336685
vn 0.109491 0.305737 0.945800
vn 0.699848 0.522847 0.486666
vn 0.354921 -0.477733 0.803618
vn -0.511872 -0.497506 0.700339
vn -0.434907 -0.226378 0.871556
vn -0.029725 0.509412 0.860009
vn 0.628339 -0.736505 0.250502
vn 0.080273 0.343406 0.935750
vn 0.639649 0.418217 0.644937
vn 0.417202 -0.490013 0.765395
g fff08519_00076_00179e62_e0
f 5/7/5 2/8/2 4/9/4
f 4/10/4 2/2/2 1/11/1
f 3/3/3 6/6/6 1/1/1
f 3/12/3 5/5/5 6/13/6
f 6/6/6 4/4/4 1/1/1
f 6/13/6 5/5/5 4/14/4
f 11/7/11 8/8/8 10/9/10
f 10/10/10 8/2/8 7/11/7
f 9/3/9 12/6/12 7/1/7
f 9/12/9 11/5/11 12/13/12
f 12/6/12 10/4/10 7/1/7
f 12/13/12 11/5/11 10/14/10
f 17/7/17 14/8/14 16/9/16
f 16/10/16 14/2/14 13/11/13
f 19/15/19 18/6/18 16/4/16
f 15/12/15 17/5/17 18/13/18
f 19/15/19 16/4/16 13/1/13
f 18/13/18 17/5/17 16/14/16
f 15/3/15 18/6/18 19/15/19
f 24/7/24 21/8/21 23/9/23
f 23/10/23 21/2/21 20/11/20
f 26/15/26 25/6/25 23/4/23
f 22/12/22 24/5/24 25/13/25
f 26/15/26 23/4/23 20/1/20
f 25/13/25 24/5/24 23/14/23
f 22/3/22 25/6/25 26/15/26
f 31/7/31 28/8/28 30/9/30
f 30/10/30 28/2/28 27/11/27
f 29/3/29 32/6/32 27/1/27
f 29/12/29 31/5/31 32/13/32
f 32/6/32 30/4/30 27/1/27
f 32/13/32 31/5/31 30/14/30
f 37/7/37 34/8/34 36/9/36
f 36/10/36 34/2/34 33/11/33
f 35/3/35 38/6/38 33/1/33
f 35/12/35 37/5/37 38/13/38
f 38/6/38 36/4/36 33/1/33
f 38/13/38 37/5/37 36/14/36
f 43/7/43 40/8/40 42/9/42
f 42/10/42 40/2/40 39/11/39
f 45/15/45 44/6/44 42/4/42
f 41/12/41 43/5/43 44/13/44
f 45/15/45 42/4/42 39/1/39
f 44/13/44 43/5/43 42/14/42
f 41/3/41 44/6/44 45/15/45
f 50/7/50 47/8/47 49/9/49
f 49/10/49 47/2/47 46/11/46
f 48/3/48 51/6/51 46/1/46
f 48/12/48 50/5/50 51/13/51
f 51/6/51 49/4/49 46/1/46
f 51/13/51 50/5/50 49/14/49
f 56/7/56 53/8/53 55/9/55
f 55/10/55 53/2/53 52/11/52
f 54/3/54 57/6/57 52/1/52
f 54/12/54 56/5/56 57/13/57
f 57/6/57 55/4/55 52/1/52
f 57/13/57 56/5/56 55/14/55
f 62/7/62 59/8/59 61/9/61
f 61/10/61 59/2/59 58/11/58
f 60/3/60 63/6/63 58/1/58
f 60/12/60 62/5/62 63/13/63
f 63/6/63 61/4/61 58/1/58
f 63/13/63 62/5/62 61/14/61
f 68/7/68 65/8/65 67/9/67
f 67/10/67 65/2/65 64/11/64
f 66/3/66 69/6/69 64/1/64
f 66/12/66 68/5/68 69/13/69
f 69/6/69 67/4/67 64/1/64
f 69/13/69 68/5/68 67/14/67
f 74/7/74 71/8/71 73/9/73
f 73/10/73 71/2/71 70/11/70
f 72/3/72 75/6/75 70/1/70
f 72/12/72 74/5/74 75/13/75
f 75/6/75 73/4/73 70/1/70
f 75/13/75 74/5/74 73/14/73
f 80/7/80 77/8/77 79/9/79
f 79/10/79 77/2/77 76/11/76
f 78/3/78 81/6/81 76/1/76
f 78/12/78 80/5/80 81/13/81
f 81/6/81 79/4/79 76/1/76
f 81/13/81 80/5/80 79/14/79
f 86/7/86 83/8/83 85/9/85
f 85/10/85 83/2/83 82/11/82
f 84/3/84 87/6/87 82/1/82
f 84/12/84 86/5/86 87/13/87
f 87/6/87 85/4/85 82/1/82
f 87/13/87 86/5/86 85/14/85
f 92/7/92 89/8/89 91/9/91
f 91/10/91 89/2/89 88/11/88
f 94/15/94 93/6/93 91/4/91
f 90/12/90 92/5/92 93/13/93
f 94/15/94 91/4/91 88/1/88
f 93/13/93 92/5/92 91/14/91
f 90/3/90 93/6/93 94/15/94
f 99/7/99 96/8/96 98/9/98
f 98/10/98 96/2/96 95/11/95
f 97/3/97 100/6/100 95/1/95
f 97/12/97 99/5/99 100/13/100
f 100/6/100 98/4/98 95/1/95
f 100/13/100 99/5/99 98/14/98
f 105/7/105 102/8/102 104/9/104
f 104/10/104 102/2/102 101/11/101
f 103/3/103 106/6/106 101/1/101
f 103/12/103 105/5/105 106/13/106
f 106/6/106 104/4/104 101/1/101
f 106/13/106 105/5/105 104/14/104
f 111/7/111 108/8/108 110/9/110
f 110/10/110 108/2/108 107/11/107
f 113/15/113 112/6/112 110/4/110
f 109/12/109 111/5/111 112/13/112
f 113/15/113 110/4/110 107/1/107
f 112/13/112 111/5/111 110/14/110
f 109/3/109 112/6/112 113/15/113
f 118/7/118 115/8/115 117/9/117
f 117/10/117 115/2/115 114/11/114
f 116/3/116 119/6/119 114/1/114
f 116/12/116 118/5/118 119/13/119
f 119/6/119 117/4/117 114/1/114
f 119/13/119 118/5/118 117/14/117
f 124/7/124 121/8/121 123/9/123
f 123/10/123 121/2/121 120/11/120
f 122/3/122 125/6/125 120/1/120
f 122/12/122 124/5/124 125/13/125
f 125/6/125 123/4/123 120/1/120
f 125/13/125 124/5/124 123/14/123
f 130/7/130 127/8/127 129/9/129
f 129/10/129 127/2/127 126/11/126
f 128/3/128 131/6/131 126/1/126
f 128/12/128 130/5/130 131/13/131
f 131/6/131 129/4/129 126/1/126
f 131/13/131 130/5/130 129/14/129
f 136/7/136 133/8/133 135/9/135
f 135/10/135 133/2/133 132/11/132
f 138/15/138 137/6/137 135/4/135
f 134/12/134 136/5/136 137/13/137
f 138/15/138 135/4/135 132/1/132
f 137/13/137 136/5/136 135/14/135
f 134/3/134 137/6/137 138/15/138
f 143/7/143 140/8/140 142/9/142
f 142/10/142 140/2/140 139/11/139
f 141/3/141 144/6/144 139/1/139
f 141/12/141 143/5/143 144/13/144
f 144/6/144 142/4/142 139/1/139
f 144/13/144 143/5/143 142/14/142
