# fff0b525_00065_000f0062
o fff0b525_00065_000f0062
v -3.168976 -1.978058 -2.656433
v 1.708491 -1.978058 -0.965008
v 2.275986 -1.978058 -3.011162
v 2.484634 -1.978058 -2.349373
v -2.381378 -1.978058 -1.255497
v -2.102646 -1.978058 -0.796795
v -2.092056 -1.978058 -1.252632
v -2.582916 -1.978058 -1.719315
v -2.917999 -1.978058 -3.112545
v 2.042084 -1.978058 -1.756990
v 2.291565 -1.978058 -2.518238
v -2.430695 -2.076324 -3.961227
v 2.433685 -2.076324 -3.941208
v -3.168976 -1.575683 -2.656433
v 1.696757 -1.575684 -0.965047
v 2.275986 -1.575684 -3.011162
v 2.484634 -1.575684 -2.349373
v -2.381378 -1.575683 -1.255497
v -2.102646 -1.575683 -0.796795
v -2.092056 -1.575683 -1.252632
v -2.582916 -1.575683 -1.719315
v -2.917999 -1.575683 -3.112545
v 1.169880 -1.575684 -0.799736
v 2.043243 -1.575684 -1.757028
v 2.291565 -1.575684 -2.518238
v -4.736924 -1.575683 0.980828
v -4.158581 -1.575683 -3.971752
v -2.430695 -1.575683 -3.961267
v 2.433685 -1.575684 -3.941208
v 2.866241 -1.838776 -3.182766
v 2.433685 -1.823914 -3.941208
v -0.857132 -1.978058 -0.696529
v -0.857132 -1.575684 -0.696529
v 0.985432 -1.978058 -0.997376
v -0.857132 -1.978058 -0.696529
v 0.986304 -1.575684 -0.997330
v -0.857132 -1.575684 -0.696529
v 1.169432 -1.978058 -0.800343
v -3.184067 -1.978058 -2.983315
v -2.514572 -1.978058 -3.131676
v -0.637711 -1.978058 -1.019196
v 2.040390 -1.575684 -1.477688
v 2.866241 -1.978058 -3.182766
v 2.040390 -1.978058 -1.477688
v -2.868698 -1.978058 -1.703041
v -2.868698 -1.575683 -1.703041
v -2.907654 -1.978058 -1.972225
v -2.907654 -1.575683 -1.972225
v -3.162796 -1.978058 -2.475319
v -3.162796 -1.575683 -2.475319
v -2.738892 -1.978058 -2.060654
v -2.738892 -1.575683 -2.060654
v -2.770264 -1.978058 -2.491314
v -2.770264 -1.575683 -2.491314
v -2.711777 -1.575683 -2.298923
v -2.711777 -1.978058 -2.298923
v -0.637711 -1.575684 -1.019196
v 2.610016 -1.575684 -1.885590
v 2.610016 -1.978058 -1.885590
v 2.041977 -1.575684 -1.476655
v 2.041977 -1.978058 -1.480162
v 0.435059 -1.978058 -0.971424
v 0.435059 -1.575684 -0.971424
v 0.347397 -1.978058 -1.161079
v 0.347397 -1.575684 -1.161079
v 2.866241 -1.575684 -3.182766
v -3.184067 -1.575683 -2.983315
v -0.276489 -1.575684 -1.012314
v -0.276489 -1.978058 -1.012314
v -1.704163 -1.575683 -3.961267
v -1.704163 -2.076324 -3.961230
v -0.954895 -1.575684 -3.961267
v -0.954895 -2.076324 -3.961230
v -0.160950 -1.575684 -3.961267
v -0.160950 -2.076324 -3.961230
v 0.632080 -1.575684 -3.961267
v 0.632080 -2.076324 -3.961230
v 1.453796 -1.575684 -3.961267
v 1.453796 -2.076324 -3.961230
v -6.091344 -1.575683 -3.971752
v -3.168976 -1.575683 -2.656433
v 1.696757 -1.575684 -0.965047
v 2.275986 -1.575684 -3.011162
v 2.484634 -1.575684 -2.349373
v -2.381378 -1.575683 -1.255497
v -2.102646 -1.575683 -0.796795
v -2.092056 -1.575683 -1.252632
v -2.582916 -1.575683 -1.719315
v -2.917999 -1.575683 -3.112545
v 1.169880 -1.575684 -0.799736
v 2.043243 -1.575684 -1.757028
v 2.291565 -1.575684 -2.518238
v -3.153734 -1.575683 -3.961267
v 2.433685 -1.575684 -3.941208
v -0.857132 -1.575684 -0.696529
v 0.986304 -1.575684 -0.997330
v 2.041183 -1.575684 -1.477172
v -2.868698 -1.575683 -1.703041
v -0.637711 -1.575684 -1.019196
v 2.610016 -1.575684 -1.885590
v 0.435059 -1.575684 -0.971424
v 0.347397 -1.575684 -1.161079
v 2.866241 -1.575684 -3.182766
v -3.184067 -1.575683 -2.983315
v -0.276489 -1.575684 -1.012314
v -4.158581 -1.575683 -1.061775
v -6.091344 -1.575683 -1.061775
v -4.156690 -1.772963 -3.971752
v -6.089453 -1.775190 -3.971752
v -4.156690 -1.772963 -1.061775
v -6.089453 -1.775190 -1.061775
v 22.601854 -1.202539 0.980827
v 22.601854 -1.202539 -3.969852
v -22.411161 -1.575680 0.980828
v -22.411161 -1.575680 -3.971752
v 3.470014 -1.575684 -1.064003
v 3.470014 -1.575684 -3.964463
v 5.410003 -1.575685 -1.064003
v 5.410003 -1.575685 -3.968150
v 3.470445 -1.774656 -1.064003
v 3.470445 -1.774656 -3.964463
v 5.410435 -1.776727 -1.064003
v 5.410435 -1.776727 -3.968150
v -2.514725 -1.575683 -3.131382
v -2.430695 -1.575683 -3.961267
v -2.514725 -1.575683 -3.131382
v -2.430695 -2.076324 -3.961246
v -2.430695 -1.575683 -3.961246
v -2.907654 -1.575683 -1.972225
v -3.162796 -1.575683 -2.475319
v -2.738892 -1.575683 -2.060654
v -2.770264 -1.575683 -2.491314
v -2.711777 -1.575683 -2.298923
v -0.106794 -1.512487 0.980828
v -6.091344 -1.575683 -2.653904
v 5.410003 -1.575685 -2.667016
v 5.410435 -1.776727 -2.667011
v -3.169013 -1.575683 -2.657236
v -3.169012 -1.978058 -2.657225
v 2.286976 -1.978058 -2.663445
v 2.286975 -1.575684 -2.663455
v -3.169013 -1.575683 -2.657236
v -4.158581 -1.575683 -2.656108
v 3.470014 -1.575684 -2.664804
v 2.286975 -1.575684 -2.663455
v -4.156690 -1.772963 -2.656105
v -6.089453 -1.775190 -2.653901
v 3.470446 -1.774656 -2.664799
v 22.601854 -1.202539 -2.667023
v -22.411163 -1.575680 -2.667022
v -4.742878 -1.318622 2.419274
v 22.595900 -0.945478 22.874166
v 22.595900 -0.945478 2.419272
v -22.417116 -1.318620 22.874168
v -22.417116 -1.318620 2.419274
v -0.112749 -1.255426 2.419274
v -4.736924 -1.575682 2.419274
v 22.601854 -1.202538 2.419272
v -22.411161 -1.575679 2.419274
v -0.106794 -1.512486 2.419274
v -4.742878 -1.318622 2.419274
v 22.595900 -0.945478 2.419272
v -22.417116 -1.318620 2.419274
v -0.112749 -1.255426 2.419274
v -4.736923 -1.575683 2.465630
v 22.601854 -1.202538 2.465628
v -22.411161 -1.575680 2.465630
v -0.106794 -1.512486 2.465630
v 2.433685 -2.076324 -3.941208
v 2.433685 -1.575684 -3.941208
v 2.433685 -1.823914 -3.941208
v 1.620893 -1.543013 -0.006876
v 0.493864 -1.536383 0.123300
v -0.918403 -1.538185 0.257962
v -3.597414 -1.575683 -3.402567
v -3.470205 -1.575683 -1.562789
vt 0.246422 1.324269
vt 0.999966 0.999995
vt 0.000000 1.000000
vt 0.000000 0.000000
vt -0.001988 0.509193
vt 0.999988 0.509550
vt 1.000012 0.000011
vt 1.000000 1.508419
vt 1.000859 1.000455
vt 2.000005 0.999976
vt 2.000000 1.505220
vt 0.999969 0.999989
vt 1.001290 1.514332
vt 1.998648 1.035697
vt 1.999969 1.513485
vt 1.000000 2.000000
vt 0.999969 1.490740
vt 1.999825 1.490403
vt 1.999969 2.000000
vt 2.000000 2.000000
vt 1.000004 1.515112
vt 2.000000 1.514307
vt 0.999991 1.496074
vt 1.004256 2.017723
vt 1.977365 2.017449
vt 1.973361 1.495541
vt 1.006342 2.520013
vt 1.999991 2.518930
vt 1.000000 1.499336
vt -0.000863 1.502379
vt 1.000000 2.001597
vt 2.000000 1.647069
vt 1.000000 1.000000
vt 2.000000 1.000000
vt 1.000000 1.506065
vt 1.000000 0.999989
vt 1.999999 1.180546
vt 1.999999 0.999978
vt 1.999999 1.506054
vt 2.000000 2.000008
vt 1.999999 1.494671
vt 1.000000 1.494663
vt 0.999999 2.000015
vt 1.000000 1.505688
vt 2.000000 1.505688
vt 2.000050 0.999902
vt 1.000000 0.999951
vt 1.000000 1.786801
vt 2.000000 1.784807
vt 2.000000 2.000000
vt 1.000000 1.520308
vt 2.000000 1.520308
vt 1.000000 2.000000
vt 0.999999 1.000073
vt 1.999999 1.000072
vt 2.000000 1.529115
vt 0.999999 1.529152
vt 1.000000 2.000000
vt 2.000000 2.000000
vt 1.000000 1.496004
vt 2.000000 1.496004
vt 2.000000 1.999972
vt 2.000000 1.491572
vt 1.000000 1.492013
vt 1.000000 2.000000
vt 2.000000 1.493978
vt 2.000000 1.035505
vt 1.000000 1.000027
vt 1.000000 1.494759
vt 1.000000 1.508773
vt 2.000000 1.511074
vt 1.000000 1.035097
vt 2.000000 1.034634
vt 1.000000 2.000000
vt 2.000000 2.000000
vt 1.000000 1.494854
vt 2.000000 1.494854
vt 2.000000 1.495916
vt 1.999999 1.000000
vt 1.000000 1.000000
vt 1.000000 1.496927
vt 2.000000 1.999990
vt 1.000000 1.491178
vt 2.000000 1.491004
vt 1.000000 1.999990
vt 2.000000 0.999944
vt 2.000000 1.504601
vt 1.000000 1.504601
vt 1.000000 0.999972
vt 2.000000 1.495368
vt 2.000000 2.000000
vt 1.000000 2.000000
vt 1.000000 1.495368
vt 1.000000 1.000000
vt 1.000000 1.503006
vt 2.000000 1.503006
vt 1.999982 1.000022
vt 0.999999 1.999995
vt 1.000000 1.487252
vt 1.521510 1.490995
vt 2.000000 1.487252
vt 1.999999 1.999649
vt 2.006643 1.009604
vt 2.000000 1.489665
vt 1.521510 1.492728
vt 1.000000 1.489665
vt 1.000509 1.009697
vt 1.468089 1.009697
vt 1.000000 1.202272
vt 2.000000 0.999993
vt 1.000000 0.999985
vt 2.000000 1.503447
vt 1.000000 1.503447
vt 2.000009 0.999978
vt 1.000000 0.999988
vt 2.000000 1.491947
vt 1.000009 1.491936
vt 0.999999 1.497792
vt 0.999999 1.000006
vt 2.000000 1.000000
vt 1.999999 1.497792
vt 1.000000 1.503255
vt 0.999999 1.000027
vt 1.999999 1.000027
vt 1.999999 1.503255
vt 1.000000 1.506336
vt 1.000000 1.000025
vt 2.000000 1.000025
vt 2.000000 1.506336
vt 1.000000 1.000036
vt 2.000000 1.504685
vt 1.000000 1.504685
vt 2.000000 1.000036
vt 1.000000 1.000000
vt 2.000000 1.496949
vt 1.000000 1.496949
vt 2.000000 1.000000
vt 1.999999 0.999974
vt 2.000000 1.512158
vt 1.480976 1.512158
vt 1.000000 0.999974
vt 1.000000 1.512144
vt 2.542916 1.241232
vt 2.576622 1.321869
vt 2.598919 1.307697
vt 2.602501 1.269505
vt 2.594774 1.238670
vt 2.204233 0.956068
vt 2.206287 0.956068
vt 3.230416 1.401221
vt 3.184912 1.483309
vt 2.125224 -1.996609
vt 2.542099 1.212200
vt 3.339416 1.127836
vt 3.261435 1.155344
vt 2.575255 1.139091
vt 2.544111 1.003056
vt 2.946644 1.795363
vt 2.924224 1.475734
vt 3.006650 1.451888
vt 3.289001 1.261417
vt 2.540104 1.159808
vt 2.646148 1.436751
vt 2.684371 1.437211
vt 3.115309 1.509806
vt 2.682974 1.510275
vt 2.619523 1.362412
vt 3.282270 1.006271
vt 3.305567 1.335756
vt 3.263496 1.234353
vt 3.018229 1.482287
vt 3.091053 1.478133
vt 2.847516 1.526352
vt 2.581769 1.365019
vt 2.876504 1.474628
vt 3.230687 1.356364
vt 2.592579 -1.996609
vt 2.334957 1.795208
vt 2.334958 1.795217
vt 2.091186 -1.519928
vt 2.578971 -1.519927
vt 2.373344 -1.996609
vt 2.373532 -1.519927
vt 2.829652 -1.996609
vt 2.829680 -1.519927
vt 2.156021 1.001374
vt -3.889292 5.455182
vt -3.889726 0.956068
vt 5.946896 1.793541
vt 5.946784 1.001640
vt -0.000001 1.795200
vt 6.149842 0.956068
vt -0.000001 1.001374
vt 0.376386 -1.515799
vt 0.376386 -1.995359
vt -0.056175 -1.515799
vt -0.056175 -1.995991
vt 0.317099 -1.515806
vt 0.317088 -1.995361
vt -0.066275 -1.515806
vt -0.066275 -1.995998
vt 2.628534 1.136075
vt 2.639634 1.003056
vt 1.515062 1.333281
vt 1.999767 1.624890
vt 1.514829 1.311102
vt 2.411362 1.001374
vt 2.411362 1.467804
vt 2.156021 1.467804
vt 3.419179 1.467448
vt 3.419179 1.002543
vt 3.675475 1.467448
vt 3.675475 1.001950
vt 1.173859 0.956068
vt 2.156021 1.212607
vt 3.675475 1.210506
vt -0.056175 -1.780853
vt -0.066275 -1.780858
vt 1.000000 1.000486
vt 1.999999 1.000416
vt 1.999987 1.148192
vt 1.000000 1.148187
vt 2.542094 1.212072
vt 2.411364 1.212268
vt 2.411362 1.212254
vt 3.419179 1.210861
vt 3.419179 1.210862
vt 3.419174 1.210852
vt 3.262889 1.211077
vt 2.109835 -1.781094
vt 2.373429 -1.781093
vt 2.586416 -1.780733
vt 2.829664 -1.780732
vt 0.317093 -1.780477
vt 0.376386 -1.780474
vt 5.946810 1.210501
vt -0.000001 1.210504
vt 2.206722 1.432822
vt 1.174293 1.432822
vt 2.204982 1.432822
vt 6.150592 1.432822
vt 6.148205 5.455169
vt 6.147987 5.455183
vt -3.889292 5.455182
vt -3.889292 1.432822
vt 2.334947 2.033225
vt 2.946492 2.030966
vt 2.334957 2.033204
vt 0.000000 2.033193
vt 5.946672 2.027928
vt 3.174890 1.636972
vt 3.010419 1.687389
vt 2.839423 1.679432
vt 2.485497 1.092607
vt 2.502304 1.387497
vn 0.999197 0.000000 -0.040062
vn -0.606215 -0.017755 -0.795103
vn -0.809124 -0.000000 -0.587637
vn -0.848261 0.000000 0.529578
vn 0.552529 0.000000 -0.833494
vn 0.742755 0.000000 -0.669563
vn 0.718722 0.000000 -0.695298
vn 0.524394 0.000000 -0.851476
vn 0.247005 -0.000181 0.969014
vn -0.779434 0.000924 -0.626484
vn -0.903947 0.000000 0.427643
vn 0.000001 0.000078 1.000000
vn -0.868657 0.000000 0.495414
vn 0.999198 -0.000000 -0.040051
vn -0.596612 -0.009583 -0.802473
vn -0.809124 0.000000 -0.587638
vn -0.848261 0.000000 0.529578
vn 0.552529 0.000000 -0.833494
vn 0.742755 0.000000 -0.669563
vn 0.718722 0.000000 -0.695298
vn 0.524394 0.000000 -0.851476
vn 0.246834 0.000000 0.969058
vn 0.255696 0.001173 -0.966757
vn -0.777746 0.002181 -0.628575
vn -0.903947 -0.000000 0.427644
vn -0.006225 0.999980 -0.000797
vn -0.712851 0.701315 -0.000000
vn 0.000000 0.000080 1.000000
vn -0.868657 0.000000 0.495414
vn -0.926882 0.000000 -0.375353
vn -0.868657 0.000000 0.495414
vn 0.080242 0.000000 -0.996776
vn 0.080242 0.000000 -0.996775
vn 0.376240 -0.000757 -0.926522
vn -0.826917 0.000000 -0.562325
vn 0.378027 -0.000121 -0.925795
vn -0.826917 0.000000 -0.562325
vn 0.257347 -0.001919 -0.966317
vn 0.859627 -0.000000 0.510923
vn 0.710337 -0.000314 0.703862
vn -0.459362 0.000000 -0.888249
vn -0.881076 0.001008 0.472973
vn -0.942380 0.000000 -0.334545
vn -0.285682 -0.008406 0.958288
vn 0.632748 0.000000 -0.774357
vn 0.632748 0.000000 -0.774357
vn 0.890564 0.000000 0.454859
vn 0.890564 0.000000 0.454859
vn 0.680160 0.000000 -0.733063
vn 0.680160 0.000000 -0.733063
vn 0.824924 0.000000 0.565244
vn 0.824924 0.000000 0.565244
vn 0.578977 0.000000 -0.815344
vn 0.578977 0.000000 -0.815344
vn 0.995871 0.000000 -0.090781
vn 0.995871 0.000000 -0.090781
vn -0.459362 0.000000 -0.888249
vn -0.856695 0.000151 -0.515824
vn -0.856657 0.000000 -0.515886
vn -0.980334 0.003482 0.197314
vn 0.454932 -0.549436 -0.700825
vn 0.518722 -0.000000 -0.854943
vn 0.518749 0.000052 -0.854926
vn 0.436654 -0.000000 -0.899630
vn 0.436654 -0.000000 -0.899630
vn -0.926882 0.000000 -0.375353
vn 0.859627 0.000000 0.510923
vn -0.107308 0.000000 -0.994226
vn -0.107308 0.000000 -0.994226
vn 0.000001 0.000076 1.000000
vn 0.000002 0.000075 1.000000
vn 0.000000 0.000075 1.000000
vn 0.000000 0.000075 1.000000
vn 0.000000 0.000038 1.000000
vn 0.000000 0.000075 1.000000
vn 0.000000 0.000075 1.000000
vn 0.000000 0.000075 1.000000
vn -0.010226 0.000069 0.999948
vn -0.010223 0.000069 0.999948
vn 0.703747 0.710450 0.000000
vn 0.000000 1.000000 -0.000000
vn -0.004267 0.999648 -0.026176
vn 0.000000 1.000000 0.000000
vn 0.000000 1.000000 0.000000
vn 0.000000 1.000000 -0.000000
vn 0.003361 0.999599 -0.028114
vn 0.000000 1.000000 0.000000
vn 0.000000 1.000000 -0.000000
vn 0.000000 1.000000 0.000000
vn 0.007364 0.999455 -0.032185
vn 0.000000 1.000000 0.000000
vn 0.000000 1.000000 0.000000
vn 0.000000 1.000000 -0.000000
vn 0.000000 1.000000 -0.000000
vn -0.038368 0.998394 -0.041686
vn 0.012283 0.999485 -0.029655
vn 0.000000 1.000000 0.000000
vn 0.000000 1.000000 -0.000000
vn -0.010843 0.999438 -0.031727
vn 0.000000 1.000000 0.000000
vn 0.006891 0.999684 -0.024154
vn 0.010052 0.999797 -0.017453
vn 0.000000 1.000000 -0.000000
vn 0.000000 1.000000 0.000000
vn -0.005171 0.999471 -0.032117
vn -0.304750 0.901576 -0.307064
vn 0.300885 0.905548 -0.299083
vn -0.999954 -0.009586 0.000000
vn 0.999955 0.009479 0.000000
vn -0.708975 -0.006796 -0.705201
vn 0.705203 0.006685 -0.708974
vn -0.017347 0.999846 -0.002550
vn -0.021700 0.999765 0.000000
vn 0.000000 1.000000 -0.000000
vn 0.000000 1.000000 0.000000
vn 0.299570 0.899585 -0.317811
vn 0.711402 0.702786 -0.000000
vn -0.310411 0.888319 -0.338428
vn -0.715467 0.698646 0.000000
vn 0.706377 0.001533 -0.707834
vn 0.999998 0.002170 -0.000000
vn -0.707830 -0.001521 -0.706382
vn -0.999998 -0.002149 0.000000
vn 0.000000 1.000000 0.000000
vn 0.000000 1.000000 -0.000000
vn 0.687568 -0.000035 0.726120
vn 0.994927 0.000000 0.100597
vn 0.994923 0.000087 0.100638
vn 0.000000 1.000000 -0.000000
vn 0.000000 1.000000 -0.000000
vn 0.000000 1.000000 0.000000
vn 0.000000 1.000000 0.000000
vn 0.000000 1.000000 0.000000
vn -0.009517 0.999835 -0.015478
vn 0.703747 0.710451 0.000000
vn -0.715489 0.698624 0.000000
vn -0.999998 -0.002149 0.000000
vn 0.998939 -0.000000 -0.046059
vn 0.998938 -0.000000 -0.046070
vn -0.999501 -0.000000 0.031590
vn -0.999501 -0.000000 0.031590
vn 0.000000 1.000000 0.000000
vn -0.710488 0.703710 0.000000
vn 0.706339 0.707874 0.000000
vn 0.000000 1.000000 0.000000
vn -0.999954 -0.009586 0.000000
vn 0.999955 0.009481 0.000000
vn 0.999998 0.002171 0.000000
vn -0.021700 0.999765 -0.000000
vn 0.000000 1.000000 -0.000000
vn -0.007120 0.999968 -0.003741
vn -0.011457 0.999930 -0.002929
vn -0.013648 0.999907 0.000000
vn -0.004529 0.999982 -0.003913
vn 0.000000 1.000000 0.000000
vn -0.013648 0.999907 0.000000
vn -0.000000 -0.000000 -1.000000
vn -0.000000 -0.000000 -1.000000
vn 0.000000 0.000000 -1.000000
vn -0.000000 -0.000000 -1.000000
vn -0.000000 -0.000000 -1.000000
vn -0.000000 -0.000000 -1.000000
vn 0.000000 0.000000 -1.000000
vn -0.000000 -0.000000 -1.000000
vn -0.006824 0.999977 -0.000000
vn -0.013648 0.999907 -0.000000
vn 0.000000 1.000000 -0.000000
vn -0.013648 0.999907 -0.000000
vn -0.020429 0.000000 0.999791
vn -0.020467 0.000000 0.999791
vn -0.020448 0.000012 0.999791
vn -0.007178 0.998937 -0.045543
vn 0.000182 0.999495 -0.031789
vn 0.000573 0.999284 -0.037842
vn 0.000000 1.000000 -0.000000
vn 0.000000 1.000000 0.000000
g fff0b525_00065_000f0062_e1
f 39/37/39 9/39/9 22/35/22
f 70/118/70 28/119/28 12/120/12
f 75/133/75 77/131/77 74/130/74
f 79/138/79 169/139/169 171/140/171
f 74/126/74 72/127/72 73/128/73
f 16/98/16 66/99/66 30/100/30
f 22/35/22 67/109/67 39/37/39
f 71/121/71 70/118/70 12/120/12
f 78/141/78 171/140/171 170/142/170
f 76/134/76 79/135/79 78/136/78
f 30/100/30 3/102/3 16/98/16
f 72/122/72 70/123/70 71/124/71
f 77/137/77 79/135/79 76/134/76
f 73/125/73 72/122/72 71/124/71
f 73/128/73 75/129/75 74/126/74
f 66/106/66 29/107/29 30/105/30
f 79/138/79 171/140/171 78/141/78
f 74/130/74 77/131/77 76/132/76
f 30/105/30 29/107/29 31/108/31
f 49/40/49 1/41/1 14/42/14
f 62/62/62 64/63/64 65/64/65
f 63/65/63 62/62/62 65/64/65
f 38/25/38 34/26/34 36/23/36
f 36/23/36 23/24/23 38/25/38
f 20/14/20 5/13/5 18/15/18
f 7/12/7 5/13/5 20/14/20
f 140/221/140 11/97/11 25/94/25
f 8/2/8 45/29/45 46/30/46
f 57/31/57 41/20/41 37/21/37
f 41/20/41 35/22/35 37/21/37
f 42/80/42 24/81/24 10/78/10
f 10/78/10 44/79/44 42/80/42
f 46/30/46 21/3/21 8/2/8
f 54/44/54 53/45/53 49/46/49
f 49/46/49 50/47/50 54/44/54
f 48/54/48 47/55/47 51/56/51
f 51/56/51 52/57/52 48/54/48
f 4/86/4 59/87/59 58/88/58
f 58/88/58 17/89/17 4/86/4
f 65/110/65 64/111/64 68/112/68
f 34/66/34 62/67/62 63/68/63
f 68/112/68 64/111/64 69/113/69
f 38/25/38 15/27/15 2/28/2
f 23/24/23 15/27/15 38/25/38
f 69/115/69 41/117/41 57/116/57
f 68/114/68 69/115/69 57/116/57
f 32/6/32 6/7/6 19/4/19
f 19/4/19 33/5/33 32/6/32
f 63/68/63 36/69/36 34/66/34
f 50/43/50 49/40/49 14/42/14
f 58/82/58 10/83/10 24/84/24
f 46/58/46 45/59/45 48/60/48
f 45/59/45 47/61/47 48/60/48
f 59/85/59 10/83/10 58/82/58
f 138/219/138 14/36/14 139/220/139
f 138/219/138 139/220/139 39/37/39
f 40/32/40 126/204/126 9/34/9
f 55/48/55 53/50/53 54/53/54
f 55/48/55 56/49/56 53/50/53
f 43/101/43 3/102/3 30/100/30
f 30/105/30 31/108/31 13/103/13
f 126/204/126 40/32/40 128/206/128
f 60/70/60 61/71/61 15/72/15
f 61/71/61 2/73/2 15/72/15
f 127/205/127 128/206/128 40/32/40
f 17/92/17 25/93/25 11/90/11
f 139/220/139 14/36/14 1/38/1
f 67/109/67 138/219/138 39/37/39
f 6/18/6 7/19/7 20/16/20
f 20/16/20 19/17/19 6/18/6
f 11/90/11 4/91/4 17/92/17
f 140/221/140 141/222/141 3/96/3
f 141/222/141 140/221/140 25/94/25
f 55/48/55 51/52/51 56/49/56
f 126/204/126 22/33/22 9/34/9
f 52/51/52 51/52/51 55/48/55
f 5/10/5 8/11/8 21/8/21
f 141/222/141 16/95/16 3/96/3
f 21/8/21 18/9/18 5/10/5
f 60/76/60 44/75/44 61/77/61
f 13/103/13 43/104/43 30/105/30
f 42/74/42 44/75/44 60/76/60
f 74/1/74 72/1/72 76/1/76
g fff0b525_00065_000f0062_e0
f 112/189/112 168/247/168 166/250/166
f 168/247/168 112/189/112 134/158/134
f 151/238/151 152/187/152 156/239/156
f 26/178/26 167/249/167 165/248/165
f 167/249/167 26/178/26 114/191/114
f 26/179/26 165/246/165 168/247/168
f 168/247/168 134/158/134 26/179/26
f 92/170/92 144/228/144 145/229/145
f 27/207/27 143/224/143 175/254/175
f 117/211/117 103/154/103 144/226/144
f 115/193/115 150/237/150 80/186/80
f 89/156/89 124/202/124 125/203/125
f 150/237/150 135/215/135 80/186/80
f 144/228/144 103/154/103 83/155/83
f 145/229/145 144/228/144 83/155/83
f 119/213/119 136/216/136 113/190/113
f 175/254/175 143/224/143 142/223/142
f 81/153/81 142/223/142 143/224/143
f 158/188/158 160/214/160 164/239/164
f 156/239/156 152/244/152 153/245/153
f 151/240/151 155/241/155 154/243/154
f 125/203/125 93/157/93 89/156/89
f 152/244/152 151/238/151 154/242/154
f 93/157/93 175/254/175 89/156/89
f 144/228/144 84/161/84 100/169/100
f 81/153/81 143/224/143 130/143/130
f 143/225/143 106/208/106 176/255/176
f 114/191/114 107/209/107 135/215/135
f 136/216/136 118/212/118 149/236/149
f 172/251/172 118/212/118 116/210/116
f 160/214/160 157/149/157 161/238/161
f 161/238/161 164/239/164 160/214/160
f 157/148/157 159/192/159 163/241/163
f 163/241/163 161/240/161 157/148/157
f 164/239/164 162/245/162 158/188/158
f 150/237/150 114/191/114 135/215/135
f 133/146/133 132/147/132 130/143/130
f 131/145/131 133/146/133 130/143/130
f 130/143/130 129/144/129 131/145/131
f 107/209/107 114/191/114 26/178/26
f 118/212/118 112/189/112 149/236/149
f 26/178/26 106/208/106 107/209/107
f 99/175/99 95/173/95 174/253/174
f 90/165/90 96/172/96 173/252/173
f 116/210/116 91/176/91 97/150/97
f 101/171/101 174/253/174 173/252/173
f 86/166/86 106/208/106 174/253/174
f 176/255/176 130/143/130 143/225/143
f 85/163/85 176/255/176 106/208/106
f 95/173/95 86/166/86 174/253/174
f 174/253/174 101/171/101 102/160/102
f 86/166/86 87/164/87 85/163/85
f 102/160/102 105/159/105 174/253/174
f 90/165/90 173/252/173 172/251/172
f 100/169/100 116/210/116 144/227/144
f 82/151/82 116/210/116 97/150/97
f 86/166/86 85/163/85 106/208/106
f 176/255/176 85/163/85 98/174/98
f 118/212/118 172/251/172 112/189/112
f 85/163/85 88/167/88 98/174/98
f 91/176/91 116/210/116 100/169/100
f 105/159/105 99/175/99 174/253/174
f 92/170/92 84/161/84 144/228/144
f 106/208/106 26/179/26 134/158/134
f 172/251/172 116/210/116 82/151/82
f 136/216/136 149/236/149 113/190/113
f 94/168/94 103/154/103 117/211/117
f 27/207/27 175/254/175 93/157/93
f 134/158/134 112/189/112 172/251/172
f 90/165/90 172/251/172 82/151/82
f 173/252/173 96/172/96 101/171/101
f 173/252/173 134/158/134 172/251/172
f 174/253/174 106/208/106 134/158/134
f 173/252/173 174/253/174 134/158/134
f 175/254/175 142/223/142 104/162/104
f 175/254/175 104/162/104 89/156/89
f 129/144/129 130/143/130 176/255/176
f 98/174/98 129/144/129 176/255/176
g fff0b525_00065_000f0062_e3
f 147/233/147 135/232/135 111/185/111
f 143/230/143 146/231/146 106/180/106
f 148/234/148 121/199/121 117/195/117
f 144/235/144 148/234/148 117/195/117
f 135/232/135 107/181/107 111/185/111
f 146/231/146 110/183/110 106/180/106
f 143/230/143 27/152/27 108/182/108
f 135/232/135 147/233/147 80/177/80
f 147/233/147 109/184/109 80/177/80
f 146/231/146 143/230/143 108/182/108
f 148/234/148 144/235/144 120/198/120
f 137/218/137 136/217/136 123/201/123
f 136/217/136 119/197/119 123/201/123
f 136/217/136 137/218/137 118/196/118
f 137/218/137 122/200/122 118/196/118
f 144/235/144 116/194/116 120/198/120
g fff0b525_00065_000f0062_e5
f 107/181/107 106/180/106 110/183/110
f 110/183/110 111/185/111 107/181/107
f 116/194/116 118/196/118 122/200/122
f 122/200/122 120/198/120 116/194/116
