# fff0a81b_00500_00b0e890
o fff0a81b_00500_00b0e890
v 0.127913 0.910399 -0.428224
v 0.127913 -0.910401 -0.428224
v -0.124266 0.867110 -0.060211
v -0.124266 -0.867112 -0.060211
v -0.000686 -0.867112 -0.186615
v -0.000686 0.867110 -0.186615
v -0.126959 0.646272 -0.061395
v -0.126959 0.718574 -0.061395
v -0.002554 0.646272 -0.390672
v -0.002554 0.718574 -0.390672
v -0.000686 0.867110 -0.186615
v -0.000686 -0.867112 -0.186615
v -0.126959 0.718574 0.387224
v 0.083180 0.718574 0.387224
v 0.083180 0.646272 0.387224
v -0.126959 0.646272 0.387224
v -0.124266 0.718574 -0.061395
v -0.124266 0.646272 -0.061395
v -0.002555 0.646272 -0.187799
v -0.002555 0.718574 -0.187799
v -0.002555 0.718574 -0.187799
v -0.002555 0.646272 -0.187799
v -0.126959 -0.704993 -0.061395
v -0.126959 -0.632691 -0.061395
v -0.002554 -0.704993 -0.390672
v -0.002554 -0.632691 -0.390672
v -0.002555 -0.632691 -0.187799
v -0.002555 -0.704993 -0.187799
v 0.083180 -0.704993 0.387224
v -0.126959 -0.704993 0.387224
v -0.126959 -0.632691 0.387224
v 0.083180 -0.632691 0.387224
v 0.083180 -0.867112 0.385255
v 0.083180 0.867110 0.385255
v 0.083180 0.867110 -0.389488
v 0.083180 -0.867112 -0.389488
v -0.093001 0.557750 -0.093086
v -0.093001 -0.557754 -0.093086
v -0.031947 -0.557754 -0.155460
v -0.031947 0.557750 -0.155460
v -0.127913 0.598420 0.295725
v -0.127913 0.513974 0.295725
v -0.127913 0.513974 0.233351
v -0.127913 0.598420 0.233351
v -0.124266 -0.632691 -0.061395
v -0.124266 -0.704993 -0.061395
v -0.002555 -0.704993 -0.187799
v -0.002555 -0.632691 -0.187799
v -0.007332 0.473756 -0.305793
v -0.007332 0.487554 -0.305793
v -0.007332 0.487554 -0.255811
v -0.007332 0.473756 -0.255811
v -0.007332 0.433375 -0.305793
v -0.007332 0.447173 -0.305793
v -0.007332 0.447173 -0.255811
v -0.007332 0.433375 -0.255811
v -0.007332 0.467620 -0.311628
v -0.007332 0.453822 -0.311628
v -0.007332 0.453822 -0.325402
v -0.007332 0.467620 -0.325402
v -0.004280 0.411798 -0.338093
v -0.004280 0.510596 -0.338093
v -0.004280 0.510596 -0.240384
v -0.004280 0.411798 -0.240384
v -0.007332 0.266467 -0.305793
v -0.007332 0.280265 -0.305793
v -0.007332 0.280265 -0.255811
v -0.007332 0.266467 -0.255811
v -0.007332 0.226087 -0.305793
v -0.007332 0.239884 -0.305793
v -0.007332 0.239884 -0.255811
v -0.007332 0.226087 -0.255811
v -0.007332 0.260333 -0.311628
v -0.007332 0.246533 -0.311628
v -0.007332 0.246533 -0.325402
v -0.007332 0.260333 -0.325402
v -0.004280 0.204509 -0.338093
v -0.004280 0.303308 -0.338093
v -0.004280 0.303308 -0.240384
v -0.004280 0.204509 -0.240384
v -0.000685 0.581800 -0.358458
v -0.000686 0.581800 -0.219513
v -0.000685 0.128154 -0.358458
v -0.000685 0.581800 -0.358458
v -0.000686 0.128154 -0.219513
v -0.000686 0.581800 -0.219513
v -0.000685 0.128154 -0.358458
v -0.000686 0.128154 -0.219513
v -0.101162 -0.538175 0.301614
v -0.101162 0.209201 0.301614
v -0.124266 0.209201 0.301614
v -0.124266 -0.538175 0.301614
v -0.101162 0.209201 0.146095
v -0.101162 -0.538175 0.146095
v -0.124266 -0.538175 0.146095
v -0.124266 0.209201 0.146095
v 0.127913 -1.010825 0.523419
v 0.127913 -0.910401 0.418617
v 0.127913 1.010825 0.523419
v 0.127913 0.910399 0.418617
v 0.127913 0.910399 -0.420541
v 0.127913 -1.010825 -0.523419
v 0.127913 1.010825 -0.523419
v 0.127913 -0.910401 -0.420541
v -0.127913 0.597997 0.187299
v -0.127913 0.513551 0.187299
v -0.127913 0.513551 0.124925
v -0.127913 0.597997 0.124925
v -0.114587 0.208800 0.301614
v -0.114587 -0.538575 0.301614
v -0.114587 -0.538575 0.146095
v -0.114587 0.208800 0.146095
v 0.081614 0.910399 -0.428224
v 0.081614 -0.910401 -0.428224
v 0.081614 -0.910401 0.425604
v 0.081614 0.910399 0.425604
v 0.127913 0.910399 0.425604
v 0.127913 -0.910401 0.425604
v 0.083180 -0.867112 -0.389488
v 0.083180 0.867110 -0.389488
v -0.000685 0.867110 -0.389488
v -0.000685 -0.867112 -0.389488
v -0.124266 0.867110 -0.060211
v -0.124266 -0.867112 -0.060211
v 0.083180 -0.867112 0.385255
v -0.124266 -0.867112 0.385255
v -0.124266 0.867110 0.385255
v 0.083180 0.867110 0.385255
vt 0.391530 0.483544
vt 0.391530 0.483544
vt 0.391530 0.483544
vt 0.391530 0.483544
vt 0.391530 0.483544
vt 0.391530 0.483544
vt 0.391530 0.483544
vt 0.391530 0.483544
vt 0.391530 0.483544
vt 0.391530 0.483544
vt 0.391530 0.483544
vt 0.391530 0.483544
vt 0.391530 0.483544
vt 0.391530 0.483544
vt 0.391530 0.483544
vt 0.391530 0.483544
vt 0.391530 0.483544
vt 0.391530 0.483544
vn 0.000000 1.000000 0.000000
vn 0.000000 -1.000000 0.000000
vn -0.715049 0.000000 -0.699075
vn -0.715049 0.000000 -0.699075
vn -0.715049 0.000000 -0.699075
vn -0.715049 0.000000 -0.699075
vn -1.000000 0.000000 0.000000
vn -1.000000 0.000000 0.000000
vn -1.000000 0.000000 -0.000004
vn -1.000000 0.000000 -0.000004
vn -0.372314 0.928107 -0.000001
vn -0.372314 -0.928107 -0.000001
vn -0.707107 0.000000 0.707107
vn 0.000000 0.000000 1.000000
vn 0.000000 0.000000 1.000000
vn -0.707107 0.000000 0.707107
vn -0.720353 0.000000 -0.693608
vn -0.720353 0.000000 -0.693608
vn -0.720353 0.000000 -0.693608
vn -0.720353 0.000000 -0.693608
vn -1.000000 0.000000 -0.000004
vn -1.000000 0.000000 -0.000004
vn -1.000000 0.000000 0.000000
vn -1.000000 0.000000 0.000000
vn -1.000000 0.000000 -0.000004
vn -1.000000 0.000000 -0.000004
vn -1.000000 0.000000 -0.000004
vn -1.000000 0.000000 -0.000004
vn 0.000000 0.000000 1.000000
vn -0.707107 0.000000 0.707107
vn -0.707107 0.000000 0.707107
vn 0.000000 0.000000 1.000000
vn -0.999647 0.017814 -0.019689
vn -0.999647 -0.017814 -0.019689
vn -0.999630 -0.017659 0.020682
vn -0.999630 0.017659 0.020682
vn -0.714629 0.000000 -0.699504
vn -0.714629 0.000000 -0.699504
vn -0.714629 0.000000 -0.699504
vn -0.714629 0.000000 -0.699504
vn -1.000000 0.000000 0.000000
vn -1.000000 0.000000 0.000000
vn -1.000000 0.000000 0.000000
vn -1.000000 0.000000 0.000000
vn -0.720353 0.000000 -0.693608
vn -0.720353 0.000000 -0.693608
vn -0.720353 0.000000 -0.693608
vn -0.720353 0.000000 -0.693608
vn -1.000000 0.000000 0.000000
vn -1.000000 0.000000 0.000000
vn -1.000000 0.000000 0.000000
vn -1.000000 0.000000 0.000000
vn -1.000000 0.000000 0.000000
vn -1.000000 0.000000 0.000000
vn -1.000000 0.000000 0.000000
vn -1.000000 0.000000 0.000000
vn -1.000000 0.000000 0.000000
vn -1.000000 0.000000 0.000000
vn -1.000000 0.000000 0.000000
vn -1.000000 0.000000 0.000000
vn -1.000000 0.000000 0.000000
vn -1.000000 0.000000 0.000000
vn -1.000000 0.000000 0.000000
vn -1.000000 0.000000 0.000000
vn -1.000000 0.000000 0.000000
vn -1.000000 0.000000 0.000000
vn -1.000000 0.000000 0.000000
vn -1.000000 0.000000 0.000000
vn -1.000000 0.000000 0.000000
vn -1.000000 0.000000 0.000000
vn -1.000000 0.000000 0.000000
vn -1.000000 0.000000 0.000000
vn -1.000000 0.000000 0.000000
vn -1.000000 0.000000 0.000000
vn -1.000000 0.000000 0.000000
vn -1.000000 0.000000 0.000000
vn -1.000000 0.000000 0.000000
vn -1.000000 0.000000 0.000000
vn -1.000000 0.000000 0.000000
vn -1.000000 0.000000 0.000000
vn -1.000000 -0.000000 -0.000003
vn -1.000000 -0.000000 -0.000004
vn -1.000000 0.000000 -0.000003
vn -1.000000 0.000000 -0.000004
vn -1.000000 0.000000 -0.000003
vn -1.000000 -0.000000 -0.000004
vn -1.000000 0.000000 -0.000005
vn -1.000000 -0.000000 -0.000004
vn 0.000000 0.707107 -0.707107
vn 0.000000 -0.707107 -0.707107
vn -0.904534 -0.301511 -0.301511
vn -0.904534 0.301511 -0.301511
vn 0.000000 -0.707107 0.707107
vn 0.000000 0.707107 0.707107
vn -0.904534 0.301511 0.301511
vn -0.904534 -0.301511 0.301511
vn -1.000000 0.000000 0.000000
vn -1.000000 0.000000 0.000000
vn -1.000000 0.000000 0.000000
vn -1.000000 0.000000 0.000000
vn -1.000000 0.000000 0.000000
vn -1.000000 0.000000 0.000000
vn -1.000000 0.000000 0.000000
vn -1.000000 0.000000 0.000000
vn -1.000000 0.000000 0.000000
vn -1.000000 0.000000 0.000000
vn -1.000000 0.000000 0.000000
vn -1.000000 0.000000 0.000000
vn -1.000000 0.000000 0.000000
vn -1.000000 0.000000 0.000000
vn -1.000000 0.000000 0.000000
vn -1.000000 0.000000 0.000000
vn -0.713828 0.700192 0.013412
vn -0.713828 -0.700193 0.013412
vn -0.584522 -0.573626 0.573836
vn -0.584523 0.573625 0.573835
vn 0.000000 0.707107 0.707107
vn 0.000000 -0.707107 0.707107
vn 0.000000 -1.000000 0.000000
vn 0.000000 1.000000 0.000000
vn -0.707106 0.707107 -0.000003
vn -0.707106 -0.707108 -0.000003
vn -0.552864 0.833271 0.000000
vn -0.552864 -0.833272 0.000000
vn 0.000000 -0.707107 0.707107
vn -0.577350 -0.577350 0.577350
vn -0.577350 0.577350 0.577350
vn 0.000000 0.707107 0.707107
g fff0a81b_00500_00b0e890_e7
f 113/10/113 114/10/114 36/10/36
f 36/10/36 35/10/35 113/10/113
f 116/10/116 113/10/113 35/10/35
f 115/10/115 116/10/116 34/10/34
f 33/10/33 36/10/36 114/10/114
f 114/10/114 115/10/115 33/10/33
f 35/10/35 34/10/34 116/10/116
f 34/10/34 33/10/33 115/10/115
g fff0a81b_00500_00b0e890_e3
f 104/10/104 103/10/103 102/10/102
f 103/10/103 104/10/104 101/10/101
f 103/1/103 101/1/101 100/10/100
f 100/10/100 99/10/99 103/1/103
f 102/1/102 98/10/98 104/1/104
f 98/10/98 102/1/102 97/10/97
f 97/10/97 99/10/99 100/10/100
f 100/10/100 98/10/98 97/10/97
g fff0a81b_00500_00b0e890_e6
f 108/10/108 107/10/107 106/10/106
f 106/10/106 105/10/105 108/10/108
f 44/10/44 43/10/43 42/10/42
f 42/10/42 41/10/41 44/10/44
f 40/10/40 39/10/39 38/10/38
f 38/10/38 37/10/37 40/10/40
g fff0a81b_00500_00b0e890_e5
f 2/10/2 118/10/118 115/10/115
f 115/10/115 114/10/114 2/10/2
f 117/10/117 1/10/1 113/10/113
f 113/10/113 116/10/116 117/10/117
g fff0a81b_00500_00b0e890_e4
f 118/10/118 117/10/117 116/10/116
f 116/10/116 115/10/115 118/10/118
g fff0a81b_00500_00b0e890_e2
f 93/11/93 90/7/90 91/8/91
f 91/8/91 96/14/96 93/11/93
f 89/6/89 94/12/94 95/13/95
f 95/13/95 92/9/92 89/6/89
f 76/10/76 75/10/75 74/10/74
f 74/10/74 73/10/73 76/10/76
f 72/10/72 71/10/71 70/10/70
f 70/10/70 69/10/69 72/10/72
f 68/10/68 67/10/67 66/10/66
f 66/10/66 65/10/65 68/10/68
f 60/10/60 59/10/59 58/10/58
f 58/10/58 57/10/57 60/10/60
f 56/10/56 55/10/55 54/10/54
f 54/10/54 53/10/53 56/10/56
f 52/10/52 51/10/51 50/10/50
f 50/10/50 49/10/49 52/10/52
f 48/10/48 47/10/47 46/10/46
f 46/10/46 45/10/45 48/10/48
f 20/10/20 19/10/19 18/10/18
f 18/10/18 17/10/17 20/10/20
f 6/10/6 5/10/5 4/10/4
f 4/10/4 3/10/3 6/10/6
f 11/10/11 128/10/128 120/10/120
f 128/10/128 123/10/123 127/10/127
f 125/10/125 126/10/126 124/10/124
f 124/10/124 12/10/12 125/10/125
f 128/10/128 11/10/11 123/10/123
f 120/10/120 121/10/121 11/10/11
f 119/10/119 125/10/125 12/10/12
f 119/10/119 12/10/12 122/10/122
f 112/18/112 111/17/111 110/16/110
f 109/15/109 112/18/112 110/16/110
g fff0a81b_00500_00b0e890_e1
f 92/9/92 91/8/91 90/7/90
f 95/13/95 124/10/124 92/9/92
f 90/7/90 89/6/89 92/9/92
f 96/14/96 124/10/124 95/13/95
f 96/14/96 91/8/91 123/10/123
f 91/8/91 127/10/127 123/10/123
f 126/10/126 127/10/127 92/9/92
f 92/9/92 124/10/124 126/10/126
f 88/5/88 87/4/87 12/10/12
f 87/4/87 122/10/122 12/10/12
f 86/3/86 88/5/88 12/10/12
f 85/5/85 84/2/84 83/4/83
f 82/3/82 84/2/84 85/5/85
f 81/2/81 122/10/122 87/4/87
f 81/2/81 86/3/86 121/10/121
f 86/3/86 11/10/11 121/10/121
f 28/10/28 27/10/27 26/10/26
f 26/10/26 25/10/25 28/10/28
f 30/10/30 31/10/31 24/10/24
f 24/10/24 23/10/23 30/10/30
f 22/10/22 21/10/21 10/10/10
f 10/10/10 9/10/9 22/10/22
f 16/10/16 13/10/13 8/10/8
f 8/10/8 7/10/7 16/10/16
f 12/10/12 11/10/11 86/3/86
f 121/10/121 122/10/122 81/2/81
f 92/9/92 127/10/127 91/8/91
f 123/10/123 124/10/124 96/14/96
g fff0a81b_00500_00b0e890_e0
f 96/14/96 95/13/95 94/12/94
f 94/12/94 93/11/93 96/14/96
f 80/10/80 79/10/79 78/10/78
f 78/10/78 77/10/77 80/10/80
f 64/10/64 63/10/63 62/10/62
f 62/10/62 61/10/61 64/10/64
f 32/10/32 31/10/31 30/10/30
f 30/10/30 29/10/29 32/10/32
f 128/10/128 127/10/127 126/10/126
f 126/10/126 125/10/125 128/10/128
f 16/10/16 15/10/15 14/10/14
f 14/10/14 13/10/13 16/10/16
