# fff06058_00087_001f3e84
o fff06058_00087_001f3e84
v -8.140678 0.384318 -1.499999
v -8.140678 -2.562044 -1.500008
v -8.050003 -2.562140 -1.500008
v 10.050003 -1.798462 -1.500000
v 10.049999 2.365701 -1.499987
v 6.212318 6.299753 -1.499987
v 6.405411 -2.029938 -1.500000
v 6.445534 2.558267 -1.499987
v -8.050003 6.299753 -1.499987
v -8.050003 0.383752 -1.499999
v -8.050003 -6.300238 -1.500005
v 6.202324 -6.300236 -1.500005
v -7.773544 -5.474616 -1.500005
v -7.773544 -2.380035 -1.500007
v -8.140678 -2.380035 -1.500007
v -8.140678 0.145966 -1.500000
v -7.773544 0.145966 -1.500000
v -7.192520 5.550171 -1.499988
v 5.960144 5.550171 -1.499987
v 6.231140 2.331299 -1.499988
v 10.049999 2.064697 -1.499989
v 5.797821 -5.511724 -1.500005
v 6.127319 -1.749756 -1.500007
v 10.049999 -1.454712 -1.500007
v -0.413284 -1.299896 -1.500007
v -0.413284 1.888306 -1.499993
v 1.563583 1.888306 -1.499991
v 1.563583 -1.299896 -1.500007
v -0.314391 -1.180342 -1.500007
v -0.314391 1.768749 -1.499993
v 1.464690 1.768749 -1.499991
v 1.464690 -1.180342 -1.500007
v -8.050003 -5.704529 -1.500005
v 6.202324 -5.704529 -1.500005
v 0.623718 -1.113132 -1.500005
v 0.623718 1.553474 -1.499993
v -8.050003 5.784669 -1.499988
v 6.212318 5.744293 -1.499987
v -7.773544 2.360382 -1.499994
v -7.192520 2.360382 -1.499994
v -8.050003 2.860687 -1.499994
v -7.430466 2.860687 -1.499993
v -7.426733 5.771091 -1.499988
v 6.983182 -1.798462 -1.500000
v 6.202318 -2.579026 -1.500001
v 6.918105 -1.454712 -1.500007
v 5.797821 -2.547211 -1.500006
v 6.983984 2.365701 -1.499987
v 6.212318 3.065358 -1.499987
v 6.944841 2.064697 -1.499988
v 5.960144 2.978175 -1.499987
v 9.423338 0.431655 -1.473633
v 9.890783 0.568806 -1.473633
v 9.736844 -0.058523 -1.473633
v 9.081226 0.770692 -1.475067
v 8.616367 0.354196 -1.475067
v 9.497734 0.305854 -1.475067
v 6.324951 1.937347 -1.475067
v 6.011124 2.830536 -1.475067
v 5.431778 1.623505 -1.475067
v 5.117996 2.516693 -1.475067
v 6.127765 1.635007 -1.473633
v 6.515993 1.748916 -1.473633
v 6.388142 1.227899 -1.473633
v 7.881989 0.809692 -1.473633
v 7.773285 1.180115 -1.473633
v 8.270416 1.058136 -1.473633
v 2.140411 4.673676 -1.475067
v 3.033600 4.987488 -1.475067
v 1.826569 5.566864 -1.475067
v 2.719757 5.880646 -1.475067
v 3.083099 4.199463 -1.473633
v 3.138229 4.711365 -1.473633
v 3.688507 4.307343 -1.473633
v 4.592662 4.344326 -1.475067
v 4.543418 3.446420 -1.475067
v 5.490568 4.295083 -1.475067
v 2.642166 5.223663 -1.473633
v 2.986084 5.500702 -1.473633
v 3.074783 4.921906 -1.473633
v 2.280930 6.117889 -0.807648
v 2.557968 5.773987 -0.807648
v 1.979172 5.685303 -0.807648
v 2.156754 6.039032 -0.807648
v 1.940475 5.864807 -0.807648
v 1.884689 6.228821 -0.807648
vt 0.000000 0.000000
vt 0.000000 0.000000
vt 0.000000 0.000000
vt 0.000000 0.000000
vt 0.000000 0.000000
vt 0.000000 0.000000
vt 0.000000 0.000000
vt 0.000000 0.000000
vt 0.000000 0.000000
vt 0.000000 0.000000
vt 0.000000 0.000000
vt 0.000000 0.000000
vt 0.000000 0.000000
vt 0.000000 0.000000
vt 0.000000 0.000000
vt 0.000000 0.000000
vt 0.000000 0.000000
vt 0.000000 0.000000
vt 0.000000 0.000000
vt 0.000000 0.000000
vt 0.000000 0.000000
vt 0.000000 0.000000
vt 0.000000 0.000000
vt 0.000000 0.000000
vt 0.000000 0.000000
vt 0.000000 0.000000
vt 0.000000 0.000000
vt 0.000000 0.000000
vt 0.000000 0.000000
vt 0.000000 0.000000
vt 0.000000 0.000000
vt 0.000000 0.000000
vt 0.000000 0.000000
vt 0.000000 0.000000
vt 0.000000 0.000000
vt 0.000000 0.000000
vt 0.000000 0.000000
vt 0.000000 0.000000
vt 0.000000 0.000000
vt 0.000000 0.000000
vt 0.000000 0.000000
vt 0.000000 0.000000
vt 0.000000 0.000000
vt 0.000000 0.000000
vt 0.000000 0.000000
vt 0.000000 0.000000
vt 0.000000 0.000000
vt 0.000000 0.000000
vt 0.000000 0.000000
vt 0.000000 0.000000
vt 0.000000 0.000000
vt 0.000000 0.000000
vt 0.000000 0.000000
vt 0.000000 0.000000
vt 0.000000 0.000000
vt 0.000000 0.000000
vt 0.000000 0.000000
vt 0.000000 0.000000
vt 0.000000 0.000000
vt 0.000000 0.000000
vt 0.990072 0.971746
vt 0.367365 0.825177
vt 0.961926 0.436974
vt 1.000000 0.000000
vt 0.000000 1.000000
vt 0.000000 0.000000
vt 1.000000 0.000000
vt 0.000000 1.000000
vt 0.000000 0.000000
vt 1.000000 1.000000
vt 0.990072 0.971746
vt 0.367365 0.825177
vt 0.961926 0.436974
vt 0.990072 0.971746
vt 0.367365 0.825177
vt 0.961926 0.436974
vt 1.000000 0.000000
vt 0.000000 1.000000
vt 0.000000 0.000000
vt 1.000000 1.000000
vt 0.990072 0.971746
vt 0.367365 0.825177
vt 0.961926 0.436974
vt 1.000000 0.000000
vt 0.000000 1.000000
vt 0.000000 0.000000
vt 0.990072 0.971746
vt 0.367365 0.825177
vt 0.961926 0.436974
vt 0.990072 0.971746
vt 0.367365 0.825177
vt 0.961926 0.436974
vt 0.990072 0.971746
vt 0.367365 0.825177
vt 0.961926 0.436974
vn -0.000000 -0.000003 1.000000
vn -0.000000 -0.000003 1.000000
vn -0.000002 -0.000002 1.000000
vn 0.000000 0.000020 1.000000
vn 0.000000 -0.000004 1.000000
vn -0.000000 -0.000000 1.000000
vn -0.000011 0.000012 1.000000
vn -0.000001 -0.000001 1.000000
vn -0.000000 -0.000002 1.000000
vn -0.000001 -0.000002 1.000000
vn -0.000000 0.000000 1.000000
vn -0.000000 0.000000 1.000000
vn -0.000000 0.000000 1.000000
vn -0.000001 -0.000002 1.000000
vn -0.000001 -0.000003 1.000000
vn -0.000001 -0.000003 1.000000
vn -0.000001 -0.000003 1.000000
vn -0.000001 -0.000001 1.000000
vn -0.000000 -0.000000 1.000000
vn -0.000001 -0.000002 1.000000
vn 0.000000 -0.000005 1.000000
vn -0.000000 -0.000001 1.000000
vn -0.000004 0.000003 1.000000
vn 0.000000 0.000007 1.000000
vn 0.000001 -0.000002 1.000000
vn -0.000001 -0.000002 1.000000
vn 0.000000 -0.000002 1.000000
vn -0.000001 -0.000002 1.000000
vn 0.000002 -0.000003 1.000000
vn -0.000003 -0.000003 1.000000
vn 0.000002 -0.000003 1.000000
vn -0.000002 -0.000004 1.000000
vn -0.000000 0.000000 1.000000
vn -0.000000 -0.000000 1.000000
vn -0.000000 -0.000017 1.000000
vn -0.000001 -0.000005 1.000000
vn -0.000000 -0.000002 1.000000
vn -0.000000 0.000000 1.000000
vn -0.000002 -0.000002 1.000000
vn -0.000001 -0.000002 1.000000
vn -0.000002 -0.000002 1.000000
vn -0.000002 -0.000002 1.000000
vn -0.000000 -0.000001 1.000000
vn -0.000004 0.000019 1.000000
vn -0.000012 0.000002 1.000000
vn -0.000000 0.000004 1.000000
vn -0.000006 0.000001 1.000000
vn -0.000000 -0.000002 1.000000
vn -0.000000 -0.000000 1.000000
vn -0.000000 -0.000003 1.000000
vn -0.000001 -0.000000 1.000000
vn 0.000000 0.000000 1.000000
vn 0.000000 0.000000 1.000000
vn 0.000000 0.000000 1.000000
vn 0.000000 0.000000 1.000000
vn 0.000000 0.000000 1.000000
vn 0.000000 0.000000 1.000000
vn 0.000000 0.000000 1.000000
vn 0.000000 0.000000 1.000000
vn 0.000000 0.000000 1.000000
vn 0.000000 0.000000 1.000000
vn 0.000000 0.000000 1.000000
vn 0.000000 0.000000 1.000000
vn 0.000000 0.000000 1.000000
vn 0.000000 0.000000 1.000000
vn 0.000000 0.000000 1.000000
vn 0.000000 0.000000 1.000000
vn 0.000000 0.000000 1.000000
vn 0.000000 0.000000 1.000000
vn 0.000000 0.000000 1.000000
vn 0.000000 0.000000 1.000000
vn 0.000000 0.000000 1.000000
vn 0.000000 0.000000 1.000000
vn 0.000000 0.000000 1.000000
vn 0.000000 0.000000 1.000000
vn 0.000000 0.000000 1.000000
vn 0.000000 0.000000 1.000000
vn 0.000000 0.000000 1.000000
vn 0.000000 0.000000 1.000000
vn 0.000000 0.000000 1.000000
vn 0.000000 0.000000 1.000000
vn 0.000000 0.000000 1.000000
vn 0.000000 0.000000 1.000000
vn 0.000000 0.000000 1.000000
vn 0.000000 0.000000 1.000000
vn 0.000000 0.000000 1.000000
g fff06058_00087_001f3e84_e8
f 14/14/14 15/17/15 3/12/3
f 17/22/17 39/46/39 10/15/10
f 33/40/33 12/30/12 34/18/34
f 47/55/47 7/7/7 23/11/23
f 43/51/43 6/6/6 9/8/9
f 38/45/38 6/6/6 43/51/43
f 46/54/46 23/10/23 7/3/7
f 50/59/50 48/57/48 20/1/20
f 20/1/20 23/10/23 50/59/50
f 1/3/1 16/21/16 10/3/10
f 13/18/13 33/31/33 34/27/34
f 33/40/33 13/18/13 3/11/3
f 14/19/14 17/22/17 15/5/15
f 13/9/13 14/19/14 3/5/3
f 15/20/15 2/3/2 3/3/3
f 16/21/16 15/20/15 17/3/17
f 17/22/17 10/15/10 16/5/16
f 44/52/44 4/25/4 24/28/24
f 18/23/18 38/45/38 43/50/43
f 8/9/8 49/58/49 20/25/20
f 19/24/19 38/45/38 18/23/18
f 26/33/26 19/24/19 18/23/18
f 26/33/26 17/22/17 14/19/14
f 26/33/26 40/47/40 17/22/17
f 5/4/5 48/57/48 21/26/21
f 22/27/22 45/53/45 47/55/47
f 13/18/13 22/27/22 25/11/25
f 29/36/29 32/37/32 35/42/35
f 13/9/13 25/32/25 14/19/14
f 21/26/21 23/10/23 46/54/46
f 31/39/31 32/37/32 28/35/28
f 28/35/28 27/34/27 31/39/31
f 13/13/13 34/41/34 22/27/22
f 11/16/11 12/30/12 33/40/33
f 23/28/23 20/25/20 28/35/28
f 22/9/22 47/56/47 28/35/28
f 25/32/25 26/33/26 14/19/14
f 51/60/51 19/24/19 27/34/27
f 29/36/29 35/42/35 36/43/36
f 27/34/27 19/24/19 26/33/26
f 28/35/28 20/25/20 27/34/27
f 22/9/22 28/35/28 25/32/25
f 25/32/25 28/35/28 32/37/32
f 32/37/32 29/36/29 25/32/25
f 26/33/26 25/32/25 29/36/29
f 29/36/29 30/38/30 26/33/26
f 27/34/27 26/33/26 30/38/30
f 30/38/30 31/39/31 27/34/27
f 35/42/35 32/37/32 31/39/31
f 36/43/36 35/42/35 31/39/31
f 36/43/36 31/39/31 30/38/30
f 29/36/29 36/43/36 30/38/30
f 39/46/39 41/48/41 10/15/10
f 51/60/51 49/58/49 19/24/19
f 40/47/40 18/23/18 43/50/43
f 26/33/26 18/23/18 40/47/40
f 39/46/39 40/47/40 41/48/41
f 17/22/17 40/47/40 39/46/39
f 40/47/40 43/50/43 42/49/42
f 42/49/42 37/44/37 41/48/41
f 40/47/40 42/49/42 41/48/41
f 37/44/37 43/51/43 9/8/9
f 42/49/42 43/50/43 37/44/37
f 7/9/7 44/52/44 46/28/46
f 34/41/34 45/53/45 22/27/22
f 24/29/24 46/54/46 44/3/44
f 21/26/21 46/54/46 24/29/24
f 47/55/47 45/53/45 7/7/7
f 47/56/47 23/28/23 28/35/28
f 48/57/48 8/2/8 20/1/20
f 49/58/49 38/45/38 19/24/19
f 21/26/21 48/57/48 50/59/50
f 50/59/50 23/10/23 21/26/21
f 20/25/20 51/60/51 27/34/27
f 20/25/20 49/58/49 51/60/51
g fff06058_00087_001f3e84_e20
f 52/61/52 54/62/54 53/63/53
f 56/64/56 57/65/57 55/66/55
f 59/67/59 60/68/60 58/69/58
f 61/70/61 60/68/60 59/67/59
f 62/71/62 64/72/64 63/73/63
f 65/74/65 67/75/67 66/76/66
f 69/77/69 70/78/70 68/79/68
f 71/80/71 70/78/70 69/77/69
f 72/81/72 74/82/74 73/83/73
f 76/84/76 77/85/77 75/86/75
f 78/87/78 80/88/80 79/89/79
f 81/90/81 83/91/83 82/92/82
f 84/93/84 86/94/86 85/95/85
