# fff0ac53_00238_004e3e98
o fff0ac53_00238_004e3e98
v 78.536804 -28.987667 0.926710
v 78.536804 -28.987667 2.942565
v 78.536804 -32.428097 0.926710
v 78.536804 -32.428097 2.942565
v 78.536804 -39.518398 2.942565
v 78.536804 -39.518398 0.926710
v 78.536804 -36.090221 2.942565
v 78.536804 -36.090221 0.926710
v 78.536804 -28.140659 -1.947987
v 78.536804 -28.987667 2.942565
v 78.536804 -28.140659 2.942565
v 78.536804 -40.301739 2.942565
v 78.536804 -40.301739 -1.947987
v 78.536804 -28.140659 2.942565
v 83.028824 -28.140659 2.942565
v 82.895927 -31.383152 2.942565
v 86.494202 -28.140659 2.942565
v 86.494202 -31.383152 2.942565
v 83.281456 -28.140659 2.942565
v 83.281456 -31.383152 2.942565
v 83.967804 -28.140659 2.942565
v 83.967804 -31.383152 2.942565
v 84.547371 -28.140659 2.942565
v 84.547371 -31.383152 2.942565
v 78.536804 -40.301739 2.942565
v 78.536804 -33.753201 2.942565
v 82.895927 -33.753208 2.942565
v 76.929291 -40.301739 2.942565
v 76.929291 -48.040813 2.942565
v 78.921906 -28.481724 2.942565
v 78.921906 -33.753201 2.942565
v 78.921906 -41.046963 2.942565
v 76.929291 -41.046932 2.942565
v 83.028824 -28.481716 2.942565
v 83.281456 -28.481716 2.942565
v 83.967804 -28.481716 2.942565
v 84.547371 -28.481716 2.942565
v 86.494202 -28.481716 2.942565
v 86.494202 -31.097675 2.942565
v 84.547371 -31.021778 2.942565
v 83.967804 -31.021778 2.942565
v 83.281456 -31.021778 2.942565
v 82.701645 -31.021778 2.942565
v 82.701645 -33.753208 2.942565
v 82.701645 -48.040821 2.942565
v 78.536804 -28.140659 2.333204
v 78.536804 -28.987667 2.333204
v 78.536804 -32.428097 2.333204
v 78.536804 -36.090221 2.333204
v 78.536804 -39.518398 2.333204
v 78.536804 -40.301739 2.333204
v 78.536804 -28.987667 2.333204
v 78.418686 -28.987667 0.926710
v 78.418686 -28.987667 2.942565
v 78.418686 -32.428097 0.926710
v 78.418686 -32.428097 2.942565
v 78.418686 -39.518398 2.942565
v 78.418686 -39.518398 0.926710
v 78.418686 -36.090221 2.942565
v 78.418686 -36.090221 0.926710
v 78.418686 -32.428097 2.333203
v 78.418686 -36.090221 2.333203
v 78.418686 -39.518398 2.333203
v 78.418686 -28.987667 2.333203
v 78.536804 -28.987667 2.942565
v 78.536804 -32.428097 2.942565
v 78.536804 -39.518398 2.942565
v 78.536804 -36.090221 2.942565
v 78.418686 -28.987667 2.942565
v 78.418686 -32.428097 2.942565
v 78.418686 -39.518398 2.942565
v 78.418686 -36.090221 2.942565
v 78.536804 -40.301739 0.926710
v 78.536804 -28.140659 0.926710
v 78.465714 -40.329388 2.507628
v 78.465714 -40.329388 2.369192
v 76.929291 -40.329388 2.369192
v 76.929291 -40.329388 2.507628
v 78.465714 -40.384281 2.507628
v 78.465714 -40.384281 2.369192
v 76.929291 -40.384281 2.369192
v 76.929291 -40.384281 2.507628
v 78.465714 -40.314358 2.419537
v 78.465714 -40.314358 2.618259
v 78.465714 -40.314358 2.287097
v 78.540466 -40.315784 2.838794
v 78.540466 -40.315784 2.940634
v 78.540466 -39.535145 2.838794
v 78.540466 -39.535145 2.940634
v 78.540466 -36.073193 2.838796
v 78.540466 -36.073193 2.940635
v 78.540466 -32.423161 2.838796
v 78.540466 -32.423161 2.940635
v 78.540466 -29.072033 2.838796
v 78.540466 -29.072033 2.940635
v 78.540466 -28.148876 2.838796
v 78.540466 -28.148876 2.940635
v 76.929291 -44.382549 2.942565
v 80.675407 -44.382557 2.942565
v 77.463135 -40.297924 -1.947987
v 77.463142 -48.048122 -1.947987
v 77.463135 -40.297924 0.122516
v 77.463142 -48.048122 0.122516
v 77.310295 -40.297924 0.122516
v 77.310303 -48.048122 0.122516
v 77.463135 -40.297924 -0.045417
v 77.463142 -48.048122 -0.045417
v 77.457954 -40.324474 -1.947987
v 77.458145 -40.324474 0.111323
v 77.655350 -40.322628 -1.947987
v 77.655617 -40.322628 0.390856
v 77.310295 -41.854572 0.122516
v 77.310303 -43.400463 0.122516
v 77.310295 -40.297924 0.122516
v 77.310295 -41.854572 0.122516
v 82.851761 -40.301731 2.333204
v 82.851753 -31.287022 2.333204
v 86.494202 -31.287022 2.333204
v 82.895935 -40.205280 2.942565
v 82.895927 -31.383152 2.942565
v 86.494202 -31.383152 2.942565
v 80.741859 -33.753208 2.942565
v 80.741844 -29.645100 2.942565
v 83.281456 -29.645100 2.942565
v 83.967804 -29.645100 2.942565
v 84.547371 -29.645100 2.942565
v 86.494202 -29.683025 2.942565
v 80.741844 -28.481724 2.942565
v 80.741844 -28.140659 2.942565
v 79.081909 -44.942913 5.240361
v 80.643166 -41.854313 5.240361
v 79.908684 -41.847263 5.240361
v 79.908691 -43.400219 5.240361
v 80.643173 -43.400219 5.240361
v 78.343689 -46.489155 5.240361
v 79.079529 -46.489986 5.240361
v 78.345169 -44.941067 5.240361
v 80.643166 -35.165417 5.240361
v 79.908684 -35.158390 5.240361
v 79.908684 -36.711277 5.240361
v 80.643166 -36.711277 5.240361
v 82.293083 -38.603283 5.240361
v 81.558601 -38.596272 5.240361
v 81.558601 -40.149158 5.240361
v 82.293083 -40.149158 5.240361
v 79.326401 -48.040821 2.942565
v 81.209541 -48.040821 2.942565
v 79.326401 -48.327709 2.942565
v 81.209541 -48.327709 2.942565
v 83.045647 -39.918369 2.333204
v 83.045639 -31.693851 2.333204
v 86.494202 -31.693851 2.333204
v 83.045647 -39.918369 2.416464
v 83.045639 -31.693851 2.416464
v 86.494202 -31.693851 2.416464
v 86.494209 -39.918377 2.416464
v 86.494202 -31.693851 2.416464
v 82.895927 -31.383152 2.421010
v 86.494202 -31.383152 2.421010
v 82.895935 -40.205280 2.421010
v 83.045647 -39.918369 2.416464
v 83.045639 -31.693851 2.416464
v 82.851753 -31.287022 2.421010
v 86.494202 -31.287022 2.421010
v 82.851761 -40.301731 2.421010
v 83.347054 -32.144093 2.416464
v 83.347061 -39.552700 2.416464
v 86.494209 -39.552731 2.416464
v 86.494202 -32.144093 2.416464
v 82.895927 -31.383152 2.737255
v 86.494202 -31.383152 2.737255
v 82.895935 -40.205280 2.737255
v 86.494202 -28.140659 -1.947987
v 86.494202 -28.140659 2.942565
v 86.494202 -28.140659 2.333204
v 86.494202 -28.140659 0.926710
v 86.494202 -28.148869 2.838796
v 86.494202 -28.148869 2.940635
v 83.035378 -29.422626 2.942719
v 83.369949 -30.114429 2.942719
v 82.427437 -29.420765 2.942719
v 82.762772 -30.114124 2.942719
v 83.280113 -29.928692 2.942719
v 82.672607 -29.927708 2.942719
v 83.208839 -29.781330 2.942719
v 82.601181 -29.780025 2.942719
v 82.306313 -29.422626 2.942719
v 82.640877 -30.114429 2.942719
v 81.698372 -29.420765 2.942719
v 82.033707 -30.114124 2.942719
v 82.551041 -29.928692 2.942719
v 81.943542 -29.927708 2.942719
v 82.479774 -29.781330 2.942719
v 81.872116 -29.780025 2.942719
v 81.575195 -29.422626 2.942719
v 81.909744 -30.114429 2.942719
v 80.967255 -29.420765 2.942719
v 81.302574 -30.114124 2.942719
v 81.819923 -29.928692 2.942719
v 81.212410 -29.927708 2.942719
v 81.748657 -29.781330 2.942719
v 81.140991 -29.780025 2.942719
v 80.846130 -29.422626 2.942719
v 81.180679 -30.114429 2.942719
v 80.238190 -29.420765 2.942719
v 80.573509 -30.114124 2.942719
v 81.090858 -29.928692 2.942719
v 80.483345 -29.927708 2.942719
v 81.019592 -29.781330 2.942719
v 80.411926 -29.780025 2.942719
v 77.457962 -48.012051 -1.947987
v 77.458153 -48.012051 0.111323
v 77.655357 -48.010227 -1.947987
v 77.655624 -48.010227 0.390856
v 86.494194 -40.301754 2.333204
v 86.494194 -39.918377 2.333204
v 86.494194 -39.918377 2.416464
v 86.494194 -40.301754 2.421010
v 86.494194 -40.205280 2.942565
v 86.494194 -40.205288 2.421010
v 86.494194 -40.205288 2.737255
v 82.701645 -40.724277 2.942565
v 80.699104 -40.724277 2.942565
v 82.895935 -40.205280 2.942565
v 82.701645 -44.362904 2.942565
v 86.494186 -40.207165 2.942565
v 86.494186 -40.207165 -1.947987
v 86.494179 -31.383152 2.333205
v 86.494179 -31.169880 -1.947987
v 86.494186 -40.207165 2.333205
v 86.494186 -40.207165 2.942565
v 82.701645 -47.664722 2.942565
v 76.929291 -47.257458 2.942565
v 83.917061 -39.918369 2.416464
v 83.602493 -39.552700 2.416464
v 83.347061 -38.852177 2.416464
v 83.045647 -38.360218 2.416464
v 83.045647 -36.331089 2.416464
v 83.347061 -35.742054 2.416464
v 83.347061 -35.281689 2.416464
v 83.045647 -34.758854 2.416464
v 83.347054 -33.722309 2.416464
v 83.347054 -33.396297 2.416464
v 83.045639 -32.864491 2.416464
v 83.634529 -31.693851 2.416464
v 84.202255 -39.552700 2.416464
v 83.699738 -39.918369 2.416464
v 83.273094 -39.113827 2.416464
v 83.045647 -38.664219 2.416464
v 83.247498 -35.488743 2.416464
v 83.045647 -35.956036 2.416464
v 83.045647 -35.034000 2.416464
v 83.045639 -32.566128 2.416464
v 83.457596 -33.352329 2.416464
v 83.045647 -34.435574 2.416464
v 83.045639 -33.205296 2.416464
v 84.518211 -34.218204 2.416464
v 86.494202 -33.032696 2.416464
v 84.641701 -34.508533 2.416464
v 86.494202 -33.424129 2.416464
v 84.419685 -39.552700 2.416464
v 84.414818 -39.918369 2.416464
v 86.494179 -44.297794 2.942565
v 86.494171 -48.040829 2.942565
v 86.494202 -31.442692 2.228923
v 82.975571 -31.442684 2.228925
v 86.494202 -31.499332 2.190401
v 82.975571 -31.499332 2.190401
v 82.920700 -31.555981 2.228925
v 82.948090 -31.555981 2.190401
v 82.953545 -31.509350 2.190401
v 82.935150 -31.477093 2.228925
v 82.920700 -40.047985 2.228925
v 82.948090 -40.047985 2.190401
v 86.494202 -31.555988 2.228923
v 82.975525 -31.555988 2.228925
v 82.975533 -40.047977 2.228925
v 82.944534 -31.490459 2.323864
v 82.944534 -31.490459 2.215583
v 82.963730 -31.491344 2.323864
v 82.963730 -31.491352 2.215583
v 82.963943 -31.530773 2.323864
v 82.963943 -31.530773 2.215582
v 82.944534 -31.529613 2.323864
v 82.944534 -31.529621 2.215583
v 86.494202 -31.498928 2.323864
v 82.984673 -31.498928 2.323864
v 86.494202 -31.580456 2.323864
v 82.984711 -31.580349 2.323864
v 86.494202 -31.442196 2.323864
v 82.984673 -31.442196 2.323864
v 82.945328 -31.580235 2.323864
v 82.917892 -31.580235 2.323864
v 82.935165 -31.472523 2.323864
v 82.955666 -31.518276 2.323864
v 82.984711 -40.023617 2.323864
v 82.945328 -40.023617 2.323864
v 82.917892 -40.023617 2.323864
v 82.937759 -33.251446 2.323864
v 82.937759 -33.251446 2.215583
v 82.956955 -33.252338 2.323864
v 82.956955 -33.252338 2.215583
v 82.957169 -33.291759 2.323864
v 82.957169 -33.291759 2.215582
v 82.937759 -33.290607 2.323864
v 82.937759 -33.290607 2.215583
v 82.937759 -35.090679 2.323864
v 82.937759 -35.090679 2.215583
v 82.956955 -35.091564 2.323864
v 82.956955 -35.091564 2.215583
v 82.957169 -35.130993 2.323864
v 82.957169 -35.130993 2.215582
v 82.937759 -35.129833 2.323864
v 82.937759 -35.129833 2.215583
v 86.494202 -40.161274 2.228923
v 82.975571 -40.161282 2.228925
v 86.494202 -40.104633 2.190401
v 82.975571 -40.104633 2.190401
v 82.953545 -40.094616 2.190401
v 82.935150 -40.126873 2.228925
v 86.494202 -40.047977 2.228923
v 86.494202 -40.105038 2.323864
v 82.984673 -40.105038 2.323864
v 86.494202 -40.023510 2.323864
v 86.494202 -40.161770 2.323864
v 82.984673 -40.161770 2.323864
v 82.935173 -40.131443 2.323864
v 82.955673 -40.085690 2.323864
v 82.937759 -36.808498 2.323864
v 82.937759 -36.808498 2.215583
v 82.956955 -36.809391 2.323864
v 82.956955 -36.809391 2.215583
v 82.957169 -36.848812 2.323864
v 82.957169 -36.848812 2.215582
v 82.937759 -36.847660 2.323864
v 82.937759 -36.847660 2.215583
v 82.937759 -38.551571 2.323864
v 82.937759 -38.551571 2.215583
v 82.956955 -38.552456 2.323864
v 82.956955 -38.552456 2.215583
v 82.957169 -38.591885 2.323864
v 82.957169 -38.591885 2.215582
v 82.937759 -38.590725 2.323864
v 82.937759 -38.590725 2.215583
v 82.944267 -40.075344 2.323864
v 82.944267 -40.075344 2.215583
v 82.963463 -40.076229 2.323864
v 82.963463 -40.076229 2.215583
v 82.963676 -40.115658 2.323864
v 82.963676 -40.115658 2.215582
v 82.944267 -40.114498 2.323864
v 82.944267 -40.114498 2.215583
v 84.151329 -40.075344 2.323864
v 84.151329 -40.075344 2.215583
v 84.170525 -40.076229 2.323864
v 84.170525 -40.076229 2.215583
v 84.170738 -40.115658 2.323864
v 84.170738 -40.115658 2.215582
v 84.151329 -40.114498 2.323864
v 84.151329 -40.114498 2.215583
v 85.305374 -40.075344 2.323864
v 85.305374 -40.075344 2.215583
v 85.324570 -40.076229 2.323864
v 85.324570 -40.076229 2.215583
v 85.324783 -40.115658 2.323864
v 85.324783 -40.115658 2.215582
v 85.305374 -40.114498 2.323864
v 85.305374 -40.114498 2.215583
v 84.139511 -31.472668 2.323864
v 84.139511 -31.472668 2.215583
v 84.158707 -31.473553 2.323864
v 84.158707 -31.473560 2.215583
v 84.158920 -31.512981 2.323864
v 84.158920 -31.512981 2.215582
v 84.139511 -31.511822 2.323864
v 84.139511 -31.511829 2.215583
v 85.307800 -31.472668 2.323864
v 85.307800 -31.472668 2.215583
v 85.326996 -31.473553 2.323864
v 85.326996 -31.473560 2.215583
v 85.327209 -31.512981 2.323864
v 85.327209 -31.512981 2.215582
v 85.307800 -31.511822 2.323864
v 85.307800 -31.511829 2.215583
v 76.929291 -40.315784 2.940634
v 76.929291 -40.315784 2.838794
v 76.929291 -40.301739 2.942565
v 76.929291 -40.301739 2.333204
v 76.929291 -40.301739 0.926710
v 76.929832 -40.301739 -1.947987
v 76.929840 -40.322624 0.390856
v 76.929832 -40.324474 0.111323
v 76.929825 -40.297924 0.122516
v 76.929832 -41.854572 0.122516
v 76.929832 -43.400463 0.122516
v 76.929832 -41.854572 0.122516
v 76.929832 -48.048119 0.122516
v 76.929291 -40.314358 2.618259
v 76.929291 -40.314358 2.419537
v 76.929291 -40.314358 2.287097
v 76.929825 -48.010227 0.390856
v 76.929825 -48.012051 0.111323
v 98.456131 -40.207157 2.942565
v 98.456131 -44.297787 2.942565
v 98.456131 -48.040821 2.942565
v 90.194748 -28.140659 2.942567
v 90.194748 -31.383152 2.942567
v 90.194748 -28.481716 2.942567
v 90.194748 -31.097675 2.942567
v 90.194748 -29.683025 2.942567
v 90.194748 -28.140659 -1.947986
v 90.194748 -28.140659 2.942566
v 90.194748 -28.140659 2.333205
v 90.194748 -28.140659 0.926712
v 90.194748 -28.148869 2.838797
v 90.194748 -28.148869 2.940636
v 86.494186 -40.207165 0.917356
v 86.494179 -31.310696 0.917356
vt 0.000000 0.000000
vt 0.000000 1.000000
vt 0.000000 1.000000
vt 0.000000 1.000000
vt 0.000000 1.000000
vt 0.000000 1.000000
vt 0.000000 1.000000
vt 0.000000 1.000000
vt 0.000000 1.000000
vt 0.000000 1.000000
vt 0.000000 1.000000
vt 0.000000 1.000000
vt 0.000000 1.000000
vt 0.000000 1.000000
vt 0.000000 1.000000
vt 0.000000 1.000000
vt 0.000000 1.000000
vt 0.000000 1.000000
vt 0.000000 1.000000
vt 0.000000 1.000000
vt 0.000000 1.000000
vt 0.000000 1.000000
vt 0.000000 1.000000
vt 0.000000 1.000000
vt 0.000000 1.000000
vt 0.000000 1.000000
vt 0.000000 1.000000
vt 0.000000 1.000000
vt 0.000000 1.000000
vt 0.000000 1.000000
vt 0.000000 1.000000
vt 0.000000 1.000000
vt 0.000000 1.000000
vt 0.000000 1.000000
vt 0.000000 1.000000
vt 0.000000 1.000000
vt 0.000000 1.000000
vt 0.000000 1.000000
vt 0.000000 1.000000
vt 0.000000 1.000000
vt 0.000000 1.000000
vt 0.000000 1.000000
vt 0.000000 1.000000
vt 0.000000 1.000000
vt 0.000000 1.000000
vt 0.000000 1.000000
vt 0.000000 1.000000
vt 0.000000 1.000000
vt 0.000000 1.000000
vt 0.000000 0.000000
vt 0.000000 1.000000
vt 0.000000 0.000000
vt 0.000000 1.000000
vt 0.000000 1.000000
vt 0.000000 1.000000
vt 0.000000 1.000000
vt 0.000000 1.000000
vt 0.000000 1.000000
vt 0.000000 1.000000
vt 0.000000 1.000000
vt 0.000000 1.000000
vt 0.000000 0.000000
vt 0.000000 1.000000
vt 0.000000 1.000000
vt 0.000000 1.000000
vt 0.000000 1.000000
vt 0.000000 1.000000
vt 0.000000 1.000000
vt 0.000000 1.000000
vt 0.000000 1.000000
vt 0.000000 1.000000
vt 0.000000 1.000000
vt 0.000000 1.000000
vt 0.000000 1.000000
vt 0.000000 1.000000
vt 0.000000 1.000000
vt 0.000000 1.000000
vt 0.000000 1.000000
vt 0.000000 1.198792
vt 0.000000 1.000000
vt 0.000000 1.000000
vt 0.000000 1.000000
vt 0.000000 1.000000
vt 0.000000 1.000000
vt 0.000000 1.000000
vt 0.000000 1.000000
vt 0.000000 0.000000
vt 0.000000 0.000000
vt 0.000000 0.000000
vt 0.000000 0.000000
vt -0.011930 -5.006545
vt 5.010881 -5.006545
vt 0.998289 -4.004850
vt 0.000000 0.000000
vt 0.995550 -5.006545
vt 0.993343 -3.004884
vt 1.999819 -3.004884
vt 1.999815 -4.004850
vt 0.000000 0.000000
vt 1.997764 -5.006545
vt 2.999300 -1.002550
vt 4.001068 0.002503
vt 4.001625 -0.999319
vt 2.998042 0.000489
vt 0.000000 1.000000
vt 0.000000 1.000000
vt 0.000000 1.000000
vt 0.000000 1.000000
vt 0.000000 1.000000
vt 0.000000 1.000000
vt 0.000000 1.000000
vt 0.000000 1.000000
vt 0.000000 1.000000
vt 0.000000 1.000000
vt 0.000000 1.000000
vt 0.000000 1.000000
vt 3.977205 0.152382
vt 2.192163 0.994645
vt 2.192164 0.152382
vt 3.977200 0.994645
vt -3.463626 0.152382
vt -3.463630 0.994645
vt -3.463630 0.994645
vt 2.192163 0.994645
vt 2.192163 0.994645
vt 2.192163 0.994645
vt -3.463630 0.994645
vt 2.192163 0.994645
vt 2.192163 0.994645
vt -3.463630 0.994645
vt 2.192163 0.994645
vt 2.192163 0.829329
vt 3.977201 0.808619
vt -3.463629 0.825688
vt 2.029227 0.994645
vt -3.180666 0.994645
vt -3.151869 0.994645
vt 1.901870 0.994645
vt 2.192164 0.290785
vt 3.977204 0.288627
vt -3.463627 0.487354
vt 0.000000 1.000000
vt 0.000000 1.000000
vt 0.000000 1.000000
vt 0.000000 1.000000
vt 0.000000 1.000000
vt 0.000000 1.000000
vt 0.000000 1.000000
vt 0.000000 1.000000
vt 0.000000 1.000000
vt 0.000000 1.000000
vt 0.995816 -3.504867
vt 1.999817 -3.504867
vt 1.499052 -4.004850
vt 1.497816 -3.504867
vt 1.248670 -4.004850
vt 1.246816 -3.504867
vt -3.463630 0.994645
vt -3.463630 0.994645
vt -3.463629 0.825688
vt -3.463630 0.994645
vt -3.463626 0.152382
vt -3.463627 0.487354
vt -3.463629 0.825688
vt 0.000000 1.000000
vt 0.000000 1.000000
vt 0.000000 1.000000
vt 0.000000 1.000000
vt 0.000000 1.000000
vt 0.000000 1.000000
vt 0.000000 1.000000
vt 0.000000 1.000000
vt 0.000000 1.000000
vt 0.000000 1.000000
vt 0.000000 1.000000
vt 0.000000 1.000000
vt 0.000000 1.000000
vt 0.000000 1.000000
vt -3.463630 0.994645
vt -3.178329 0.994645
vt -2.688033 0.994645
vt -2.419210 0.994645
vt -1.059096 0.994645
vt -0.500935 0.994645
vt -0.177195 0.994645
vt -0.005237 0.994645
vt 0.919435 0.994645
vt 1.148651 0.994645
vt 1.264541 0.994645
vt 2.192163 0.994645
vt -3.172841 0.994645
vt -3.463630 0.994645
vt -2.878374 0.994645
vt -2.622934 0.994645
vt -0.275683 0.994645
vt -0.807709 0.994645
vt -0.189670 0.994645
vt 1.464528 0.994645
vt 1.175107 0.994645
vt 0.211451 0.994645
vt 1.036085 0.994645
vt 0.523284 0.994645
vt 1.295724 0.994645
vt 0.318551 0.994645
vt 1.028721 0.994645
vt -3.170851 0.994645
vt -3.463630 0.994645
vt 0.000000 1.000000
vt 0.000000 1.000000
vt 0.006620 0.000000
vt 0.006620 0.000000
vt 0.006620 0.000000
vt 0.006620 0.000000
vt 0.006620 0.000000
vt 0.006620 0.000000
vt 0.006620 0.000000
vt 0.006620 0.000000
vt 0.006620 0.000000
vt 0.006620 0.000000
vt 0.006620 0.000000
vt 0.006620 0.000000
vt 0.006620 0.000000
vt 0.006620 0.000000
vt 0.006620 0.000000
vt 0.006620 0.000000
vt 0.006620 0.000000
vt 0.006620 0.000000
vt 0.006620 0.000000
vt 0.006620 0.000000
vt 0.006620 0.000000
vt 0.006620 0.000000
vt 0.006620 0.000000
vt 0.006620 0.000000
vt 0.006620 0.000000
vt 0.006620 0.000000
vt 0.000000 1.000000
vt 0.000000 1.000000
vt 0.000000 1.000000
vt 0.000000 1.000000
vt 0.000000 1.000000
vt 0.000000 1.000000
vt 0.000000 1.000000
vt 0.000000 0.000000
vt 0.000000 0.000000
vt -0.011930 -4.502080
vt 0.996981 -4.483124
vt 1.998904 -4.450034
vt 0.996980 -4.483277
vt 5.010881 -4.476768
vt 0.000000 1.000000
vt 0.000000 1.000000
vt 0.000000 1.000000
vt 0.000000 0.000000
vt 0.000000 0.000000
vt 1.000000 -0.076458
vt 1.000000 1.198792
vt 0.000000 -0.076458
vt 0.000000 1.000000
vt 0.000000 1.000000
vt 0.000000 1.000000
vt 0.000000 1.000000
vt 0.000000 1.000000
vt 0.000000 1.000000
vt 0.000000 1.000000
vt 0.000000 1.000000
vt 0.000000 1.000000
vt 0.000000 1.000000
vt 0.000000 1.000000
vt 0.000000 1.000000
vt 0.000000 1.000000
vt 0.000000 1.000000
vt 0.000000 1.000000
vt 0.000000 1.000000
vn 0.904533 -0.301513 0.301512
vn 0.000000 -1.000000 0.000000
vn 0.904533 0.301513 0.301512
vn 0.707108 0.707105 0.000000
vn 0.707108 0.707105 0.000000
vn 0.904533 0.301513 0.301512
vn 0.707108 -0.707105 0.000000
vn 0.904533 -0.301513 0.301512
vn 0.707107 -0.707107 0.000000
vn 1.000000 0.000000 0.000000
vn 0.707107 -0.707107 0.000000
vn 0.707107 -0.707107 0.000000
vn 0.707107 -0.707107 0.000000
vn 0.000000 0.000000 -1.000000
vn 0.000000 0.000000 -1.000000
vn 0.000000 0.000000 -1.000000
vn 0.000000 0.000000 -1.000000
vn 0.000000 0.000000 -1.000000
vn 0.000000 0.000000 -1.000000
vn 0.000000 0.000000 -1.000000
vn 0.000000 0.000000 -1.000000
vn 0.000000 0.000000 -1.000000
vn 0.000000 0.000000 -1.000000
vn 0.000000 0.000000 -1.000000
vn 0.000000 0.000000 -1.000000
vn 0.000000 0.000000 -1.000000
vn 0.000000 0.000000 -1.000000
vn 0.000000 0.000000 -1.000000
vn 0.000000 0.000000 -1.000000
vn 0.000000 0.000000 -1.000000
vn 0.000000 0.000000 -1.000000
vn 0.000000 0.000000 -1.000000
vn 0.000000 0.000000 -1.000000
vn 0.000000 0.000000 -1.000000
vn 0.000000 0.000000 -1.000000
vn 0.000000 0.000000 -1.000000
vn 0.000000 0.000000 -1.000000
vn 0.000000 0.000000 -1.000000
vn 0.000000 0.000000 -1.000000
vn 0.000000 0.000000 -1.000000
vn 0.000000 0.000000 -1.000000
vn 0.000000 0.000000 -1.000000
vn 0.000000 0.000000 -1.000000
vn 0.000000 0.000000 -1.000000
vn 0.000000 0.000000 -1.000000
vn 0.707107 -0.707107 0.000000
vn 1.000000 0.000000 0.000000
vn 0.707107 0.707107 0.000000
vn 0.707107 -0.707107 0.000000
vn 0.707107 0.707107 0.000000
vn 0.707107 -0.707107 0.000000
vn 0.000000 -1.000000 0.000000
vn 0.577349 -0.577350 0.577352
vn 0.707105 -0.707108 0.000000
vn 0.577349 0.577350 0.577352
vn 0.707105 0.707108 0.000000
vn 0.707105 0.707108 0.000000
vn 0.577349 0.577350 0.577352
vn 0.707105 -0.707108 0.000000
vn 0.577349 -0.577350 0.577352
vn 0.707107 0.707107 0.000000
vn 0.707107 -0.707107 0.000000
vn 0.707107 0.707107 0.000000
vn 0.707107 -0.707107 0.000000
vn 0.000006 0.000000 -1.000000
vn 0.000006 0.000000 -1.000000
vn 0.000006 0.000000 -1.000000
vn 0.000006 0.000000 -1.000000
vn 0.000006 0.000000 -1.000000
vn 0.000006 0.000000 -1.000000
vn 0.000006 0.000000 -1.000000
vn 0.000006 0.000000 -1.000000
vn 0.707107 -0.707107 0.000000
vn 0.707107 -0.707107 0.000000
vn 0.707107 0.000000 0.707107
vn 0.707107 0.000000 -0.707107
vn 0.000000 0.000000 -1.000000
vn 0.000000 0.000000 1.000000
vn 0.577350 -0.577350 0.577350
vn 0.577350 -0.577350 -0.577350
vn 0.000000 -0.707107 -0.707107
vn 0.000000 -0.707107 0.707107
vn 0.000000 -1.000000 0.000000
vn 0.000000 -1.000000 0.000000
vn 0.000000 -1.000000 0.000000
vn 0.707107 -0.707107 0.000000
vn 0.707107 -0.707107 0.000000
vn 1.000000 0.000000 0.000000
vn 1.000000 0.000000 0.000000
vn 1.000000 0.000000 0.000000
vn 1.000000 0.000000 0.000000
vn 1.000000 0.000000 0.000000
vn 1.000000 0.000000 0.000000
vn 1.000000 0.000000 0.000000
vn 1.000000 0.000000 0.000000
vn 0.707107 -0.707106 0.000000
vn 0.707107 -0.707107 0.000000
vn 0.000000 0.000000 -1.000000
vn 0.000000 0.000000 -1.000000
vn 1.000000 0.000001 0.000000
vn 1.000000 0.000001 0.000000
vn 0.707107 0.000001 0.707107
vn 0.707107 0.000001 0.707107
vn 0.000000 0.000000 1.000000
vn 0.000000 0.000000 1.000000
vn 1.000000 0.000001 0.000000
vn 1.000000 0.000001 0.000000
vn 0.009353 -0.999956 -0.000001
vn 0.005012 -0.999983 0.003066
vn 0.009353 -0.999956 -0.000001
vn 0.003658 -0.999985 0.004021
vn 0.000000 0.000000 1.000000
vn 0.000000 0.000000 1.000000
vn 0.000000 0.000000 1.000000
vn 0.000000 0.000000 1.000000
vn -0.577352 -0.577348 -0.577351
vn -0.577350 0.577350 -0.577350
vn 0.000000 0.707107 -0.707107
vn -0.707107 -0.707106 0.000001
vn -0.707107 0.707106 0.000000
vn 0.000000 1.000000 0.000000
vn 0.000000 0.000000 -1.000000
vn 0.000000 0.000000 -1.000000
vn 0.000000 0.000000 -1.000000
vn 0.000000 0.000000 -1.000000
vn 0.000000 0.000000 -1.000000
vn 0.000000 0.000000 -1.000000
vn 0.000000 0.000000 -1.000000
vn 0.000000 0.000000 -1.000000
vn 0.000000 0.000000 -1.000000
vn 0.000000 0.000000 -1.000000
vn 0.000000 0.000000 -1.000000
vn 0.000000 0.000000 -1.000000
vn 0.000000 0.000000 -1.000000
vn 0.000000 0.000000 -1.000000
vn 0.000000 0.000000 -1.000000
vn 0.000000 0.000000 -1.000000
vn 0.000000 0.000000 -1.000000
vn 0.000000 0.000000 -1.000000
vn 0.000000 0.000000 -1.000000
vn 0.000000 0.000000 -1.000000
vn 0.000000 0.000000 -1.000000
vn 0.000000 0.000000 -1.000000
vn 0.000000 0.000000 -1.000000
vn 0.000000 0.000000 -1.000000
vn 0.000000 0.000000 -1.000000
vn 0.000000 0.000000 -1.000000
vn 0.000000 0.000000 -1.000000
vn 0.000000 0.000000 -1.000000
vn 0.301512 0.301512 -0.904534
vn 0.301511 -0.301511 -0.904534
vn 0.000000 -0.707107 -0.707107
vn 0.000000 0.000000 -1.000000
vn 0.000000 0.000000 -1.000000
vn 0.000000 -1.000000 0.000000
vn 0.000000 0.000000 -1.000000
vn 0.000000 0.000000 -1.000000
vn -0.707107 0.707107 0.000000
vn 0.000000 1.000000 0.000000
vn -0.707107 -0.707106 0.000000
vn 0.707107 0.707106 0.000000
vn 0.707107 -0.707106 0.000000
vn -0.707107 0.707106 0.000000
vn 0.000000 1.000000 0.000000
vn -0.707108 -0.707105 0.000000
vn 0.000000 0.000000 -1.000000
vn 0.000000 0.000000 -1.000000
vn 0.000000 0.000000 -1.000000
vn 0.000000 0.000000 -1.000000
vn -0.707107 0.707106 0.000000
vn 0.000000 1.000000 0.000000
vn -0.707107 -0.707106 0.000000
vn 0.000000 -1.000000 0.000000
vn 0.000000 -1.000000 0.000000
vn 0.000000 -1.000000 0.000000
vn 0.000000 -1.000000 0.000000
vn 0.000000 -1.000000 0.000000
vn 0.000000 -1.000000 0.000000
vn 0.000000 0.000000 -1.000000
vn 0.000000 0.000000 -1.000000
vn 0.000000 0.000000 -1.000000
vn 0.000000 0.000000 -1.000000
vn 0.000000 0.000000 -1.000000
vn 0.000000 0.000000 -1.000000
vn 0.000000 0.000000 -1.000000
vn 0.000000 0.000000 -1.000000
vn 0.000000 0.000000 -1.000000
vn 0.000000 0.000000 -1.000000
vn 0.000000 0.000000 -1.000000
vn 0.000000 0.000000 -1.000000
vn 0.000000 0.000000 -1.000000
vn 0.000000 0.000000 -1.000000
vn 0.000000 0.000000 -1.000000
vn 0.000000 0.000000 -1.000000
vn 0.000000 0.000000 -1.000000
vn 0.000000 0.000000 -1.000000
vn 0.000000 0.000000 -1.000000
vn 0.000000 0.000000 -1.000000
vn 0.000000 0.000000 -1.000000
vn 0.000000 0.000000 -1.000000
vn 0.000000 0.000000 -1.000000
vn 0.000000 0.000000 -1.000000
vn 0.000000 0.000000 -1.000000
vn 0.000000 0.000000 -1.000000
vn 0.000000 0.000000 -1.000000
vn 0.000000 0.000000 -1.000000
vn 0.000000 0.000000 -1.000000
vn 0.000000 0.000000 -1.000000
vn 0.000000 0.000000 -1.000000
vn 0.000000 0.000000 -1.000000
vn -0.009237 0.999957 0.000001
vn -0.004951 0.999983 -0.003025
vn -0.009237 0.999957 0.000001
vn -0.003616 0.999986 -0.003969
vn -0.000004 -0.707109 -0.707105
vn 0.000002 0.707106 -0.707107
vn 0.000002 1.000000 0.000000
vn -0.000006 -1.000000 0.000000
vn 0.000000 -1.000000 0.000037
vn -0.000002 -1.000000 0.000000
vn -0.000001 -1.000000 0.000018
vn 0.000000 0.000000 -1.000000
vn 0.000000 0.000000 -1.000000
vn 0.000000 0.000000 -1.000000
vn 0.000000 0.000000 -1.000000
vn 0.000000 0.000000 -1.000000
vn -1.000000 -0.000001 0.000000
vn -1.000000 -0.000001 -0.000000
vn -1.000000 -0.000001 -0.000000
vn -1.000000 -0.000001 -0.000000
vn -1.000000 -0.000001 0.000000
vn 0.000000 0.000000 -1.000000
vn 0.000000 0.000000 -1.000000
vn 0.000000 0.000000 -1.000000
vn 0.000000 0.000000 -1.000000
vn 0.000000 0.000000 -1.000000
vn 0.000000 0.000000 -1.000000
vn 0.000000 0.000000 -1.000000
vn 0.000000 0.000000 -1.000000
vn 0.000000 0.000000 -1.000000
vn 0.000000 0.000000 -1.000000
vn 0.000000 0.000000 -1.000000
vn 0.000000 0.000000 -1.000000
vn 0.000000 0.000000 -1.000000
vn 0.000000 0.000000 -1.000000
vn 0.000000 0.000000 -1.000000
vn 0.000000 0.000000 -1.000000
vn 0.000000 0.000000 -1.000000
vn 0.000000 0.000000 -1.000000
vn 0.000000 0.000000 -1.000000
vn 0.000000 0.000000 -1.000000
vn 0.000000 0.000000 -1.000000
vn 0.000000 0.000000 -1.000000
vn 0.000000 0.000000 -1.000000
vn 0.000000 0.000000 -1.000000
vn 0.000000 0.000000 -1.000000
vn 0.000000 0.000000 -1.000000
vn 0.000000 0.000000 -1.000000
vn 0.000000 0.000000 -1.000000
vn 0.000000 0.000000 -1.000000
vn 0.000000 0.000000 -1.000000
vn 0.000000 0.000000 -1.000000
vn 0.000000 0.000000 -1.000000
vn 0.000000 0.000000 -1.000000
vn 0.000000 0.562373 -0.826883
vn -0.163486 0.571401 -0.804222
vn -0.000000 0.000063 -1.000000
vn -0.033764 0.074182 -0.996673
vn -0.820987 0.059758 -0.567811
vn -0.030471 0.003537 -0.999529
vn -0.300164 0.060812 -0.951947
vn -0.630772 0.419745 -0.652641
vn -0.820987 -0.059758 -0.567811
vn -0.030536 -0.003541 -0.999527
vn -0.000001 -0.562270 -0.826954
vn 0.537247 -0.306165 -0.785894
vn 0.537168 0.306163 -0.785948
vn -0.690616 0.723222 -0.000045
vn -0.690488 0.723344 0.000000
vn 0.721318 0.692604 -0.000049
vn 0.721478 0.692437 -0.000006
vn 0.687665 -0.726028 0.000000
vn 0.687801 -0.725899 0.000045
vn -0.727888 -0.685696 0.000005
vn -0.727723 -0.685871 0.000048
vn 0.000000 0.000000 -1.000000
vn 0.000000 0.000000 -1.000000
vn 0.000000 0.000000 -1.000000
vn 0.000000 0.000000 -1.000000
vn 0.000000 0.000000 -1.000000
vn 0.000000 0.000000 -1.000000
vn 0.000000 0.000000 -1.000000
vn 0.000000 0.000000 -1.000000
vn 0.000000 0.000000 -1.000000
vn 0.000000 0.000000 -1.000000
vn 0.000000 0.000000 -1.000000
vn 0.000000 0.000000 -1.000000
vn 0.000000 0.000000 -1.000000
vn -0.690488 0.723344 0.000000
vn -0.690488 0.723344 0.000000
vn 0.721470 0.692446 0.000000
vn 0.721478 0.692438 0.000000
vn 0.687808 -0.725893 0.000000
vn 0.687817 -0.725884 0.000000
vn -0.727754 -0.685839 0.000000
vn -0.727739 -0.685855 0.000000
vn -0.690632 0.723207 0.000000
vn -0.690632 0.723207 0.000000
vn 0.721333 0.692588 0.000000
vn 0.721341 0.692580 0.000000
vn 0.687665 -0.726028 0.000000
vn 0.687674 -0.726019 0.000000
vn -0.727888 -0.685696 0.000000
vn -0.727873 -0.685712 0.000000
vn 0.000000 -0.562373 -0.826883
vn -0.163486 -0.571401 -0.804222
vn -0.000000 -0.000064 -1.000000
vn -0.033761 -0.074188 -0.996673
vn -0.300171 -0.060832 -0.951944
vn -0.630772 -0.419745 -0.652641
vn -0.000001 0.562270 -0.826954
vn 0.000000 0.000000 -1.000000
vn 0.000000 0.000000 -1.000000
vn 0.000000 0.000000 -1.000000
vn 0.000000 0.000000 -1.000000
vn 0.000000 0.000000 -1.000000
vn 0.000000 0.000000 -1.000000
vn 0.000000 0.000000 -1.000000
vn -0.690488 0.723344 0.000000
vn -0.690488 0.723344 0.000000
vn 0.721470 0.692446 0.000000
vn 0.721478 0.692438 0.000000
vn 0.687808 -0.725893 0.000000
vn 0.687817 -0.725884 0.000000
vn -0.727754 -0.685839 0.000000
vn -0.727739 -0.685855 0.000000
vn -0.690632 0.723207 0.000000
vn -0.690632 0.723207 0.000000
vn 0.721333 0.692588 0.000000
vn 0.721341 0.692580 0.000000
vn 0.687665 -0.726028 0.000000
vn 0.687674 -0.726019 0.000000
vn -0.727888 -0.685696 0.000000
vn -0.727873 -0.685712 0.000000
vn -0.690632 0.723207 0.000000
vn -0.690632 0.723207 0.000000
vn 0.721333 0.692588 0.000000
vn 0.721341 0.692580 0.000000
vn 0.687665 -0.726028 0.000000
vn 0.687674 -0.726019 0.000000
vn -0.727888 -0.685696 0.000000
vn -0.727873 -0.685712 0.000000
vn -0.690632 0.723207 0.000000
vn -0.690632 0.723207 0.000000
vn 0.721333 0.692588 0.000000
vn 0.721341 0.692580 0.000000
vn 0.687665 -0.726028 0.000000
vn 0.687674 -0.726019 0.000000
vn -0.727888 -0.685696 0.000000
vn -0.727873 -0.685712 0.000000
vn -0.690632 0.723207 0.000000
vn -0.690632 0.723207 0.000000
vn 0.721333 0.692588 0.000000
vn 0.721341 0.692580 0.000000
vn 0.687665 -0.726028 0.000000
vn 0.687674 -0.726019 0.000000
vn -0.727888 -0.685696 0.000000
vn -0.727873 -0.685712 0.000000
vn -0.690616 0.723222 -0.000045
vn -0.690488 0.723344 0.000000
vn 0.721318 0.692604 -0.000049
vn 0.721478 0.692437 -0.000006
vn 0.687665 -0.726028 0.000000
vn 0.687801 -0.725899 0.000045
vn -0.727888 -0.685696 0.000005
vn -0.727723 -0.685871 0.000048
vn -0.690616 0.723222 -0.000045
vn -0.690488 0.723344 0.000000
vn 0.721318 0.692604 -0.000049
vn 0.721478 0.692437 -0.000006
vn 0.687665 -0.726028 0.000000
vn 0.687801 -0.725899 0.000045
vn -0.727888 -0.685696 0.000005
vn -0.727723 -0.685871 0.000048
vn 0.000000 -1.000000 0.000000
vn 0.000000 -1.000000 0.000000
vn 0.000000 -1.000000 0.000000
vn 0.000000 -1.000000 0.000000
vn 0.000000 -1.000000 0.000000
vn 0.000000 -1.000000 0.000000
vn -0.000002 -0.999978 0.006615
vn 0.000000 -0.999978 0.006618
vn 0.000000 0.000000 1.000000
vn 0.000000 0.000000 1.000000
vn 0.000000 0.000000 1.000000
vn 0.000000 0.000000 1.000000
vn 0.000000 0.000000 1.000000
vn 0.000000 -1.000000 0.000000
vn 0.000000 -1.000000 0.000000
vn 0.000000 -1.000000 0.000000
vn -0.000000 0.999979 -0.006523
vn 0.000000 0.999979 -0.006523
vn 0.000000 0.000000 -1.000000
vn 0.000000 0.000000 -1.000000
vn 0.000000 0.000000 -1.000000
vn 0.000000 0.000000 -1.000000
vn 0.000000 0.000000 -1.000000
vn 0.000000 0.000000 -1.000000
vn 0.000000 0.000000 -1.000000
vn 0.000000 0.000000 -1.000000
vn 0.000000 -1.000000 0.000000
vn 0.000000 -1.000000 0.000000
vn 0.000000 -1.000000 0.000000
vn 0.000000 -1.000000 0.000000
vn 0.000000 -1.000000 0.000000
vn 0.000000 -1.000000 0.000000
vn -1.000000 -0.000001 -0.000000
vn -1.000000 -0.000001 -0.000000
g fff0ac53_00238_004e3e98_e0
f 15/17/15 34/35/34 128/111/128
f 126/109/126 40/41/40 125/108/125
f 40/41/40 41/42/41 125/108/125
f 43/44/43 124/107/124 42/43/42
f 122/105/122 123/106/123 43/44/43
f 34/35/34 124/107/124 123/106/123
f 15/17/15 19/21/19 35/36/35
f 23/25/23 37/38/37 36/37/36
f 23/25/23 36/37/36 21/23/21
f 15/17/15 35/36/35 34/35/34
f 70/60/70 69/59/69 65/4/65
f 65/4/65 66/3/66 70/60/70
f 26/27/26 14/16/14 30/31/30
f 129/112/129 15/17/15 128/111/128
f 122/105/122 31/32/31 123/106/123
f 128/111/128 123/106/123 30/31/30
f 53/56/53 55/58/55 3/2/3
f 3/2/3 1/5/1 53/56/53
f 6/2/6 8/5/8 60/56/60
f 60/56/60 58/58/58 6/2/6
f 55/58/55 61/61/61 48/49/48
f 48/49/48 3/2/3 55/58/55
f 63/63/63 57/60/57 5/3/5
f 5/3/5 50/53/50 63/63/63
f 50/53/50 6/2/6 58/58/58
f 58/58/58 63/63/63 50/53/50
f 63/63/63 59/59/59 57/60/57
f 59/59/59 63/63/63 62/64/62
f 4/3/4 48/49/48 61/61/61
f 64/57/64 61/49/61 53/56/53
f 55/58/55 53/56/53 61/61/61
f 43/44/43 42/43/42 16/18/16
f 123/106/123 124/107/124 43/44/43
f 44/45/44 122/105/122 43/44/43
f 30/31/30 14/16/14 129/112/129
f 31/32/31 30/31/30 123/106/123
f 61/61/61 56/60/56 4/3/4
f 27/28/27 44/45/44 16/18/16
f 31/32/31 26/27/26 30/31/30
f 34/35/34 35/36/35 124/107/124
f 126/109/126 125/108/125 36/37/36
f 54/59/54 61/49/61 64/57/64
f 43/44/43 16/18/16 44/45/44
f 128/111/128 30/31/30 129/112/129
f 34/35/34 123/106/123 128/111/128
f 16/18/16 42/43/42 20/22/20
f 61/61/61 54/59/54 56/60/56
f 24/26/24 22/24/22 41/42/41
f 62/64/62 58/58/58 60/56/60
f 58/58/58 62/51/62 63/63/63
f 40/41/40 24/26/24 41/42/41
f 37/38/37 126/109/126 36/37/36
g fff0ac53_00238_004e3e98_e1
f 21/23/21 36/37/36 35/36/35
f 38/39/38 37/38/37 17/19/17
f 21/23/21 35/36/35 19/21/19
f 17/19/17 37/38/37 23/25/23
f 25/13/25 33/34/33 28/29/28
f 99/86/99 32/33/32 223/167/223
f 222/166/222 44/45/44 224/168/224
f 25/13/25 26/27/26 31/32/31
f 98/85/98 33/236/33 32/33/32
f 225/170/225 263/208/263 232/177/232
f 232/176/232 99/86/99 225/169/225
f 222/165/222 224/168/224 226/171/226
f 232/177/232 264/209/264 45/15/45
f 263/208/263 225/170/225 222/165/222
f 225/169/225 99/86/99 222/166/222
f 99/86/99 98/85/98 32/33/32
f 25/13/25 31/32/31 32/33/32
f 25/13/25 32/33/32 33/34/33
f 263/208/263 222/165/222 226/171/226
f 223/167/223 122/105/122 44/45/44
f 223/167/223 32/33/32 122/105/122
f 45/46/45 147/114/147 232/176/232
f 232/177/232 263/208/263 264/209/264
f 224/168/224 44/45/44 27/28/27
f 41/42/41 20/22/20 42/43/42
f 41/42/41 22/24/22 20/22/20
f 18/20/18 24/26/24 40/41/40
f 18/20/18 40/41/40 39/40/39
f 127/110/127 37/38/37 38/39/38
f 127/110/127 126/109/126 37/38/37
f 36/37/36 125/108/125 124/107/124
f 36/37/36 124/107/124 35/36/35
f 32/33/32 31/32/31 122/105/122
f 232/176/232 233/178/233 99/86/99
f 71/60/71 72/59/72 68/4/68
f 68/4/68 67/3/67 71/60/71
f 222/166/222 223/167/223 44/45/44
f 233/178/233 98/85/98 99/86/99
f 149/116/149 148/115/148 146/113/146
f 146/113/146 147/114/147 149/116/149
f 146/113/146 233/178/233 147/114/147
f 147/114/147 233/178/233 232/176/232
f 39/40/39 126/109/126 127/110/127
f 222/166/222 99/86/99 223/167/223
f 29/30/29 233/178/233 146/113/146
f 39/40/39 40/41/40 126/109/126
f 125/108/125 41/42/41 124/107/124
f 41/42/41 42/43/42 124/107/124
f 226/171/226 404/259/404 263/208/263
f 404/259/404 226/171/226 403/258/403
f 263/208/263 405/260/405 264/209/264
f 405/260/405 263/208/263 404/259/404
f 17/19/17 408/262/408 38/39/38
f 408/262/408 17/19/17 406/261/406
f 18/20/18 39/40/39 409/264/409
f 409/264/409 407/263/407 18/20/18
f 38/39/38 410/265/410 127/110/127
f 410/265/410 38/39/38 408/262/408
f 39/40/39 127/110/127 410/265/410
f 410/265/410 409/264/409 39/40/39
g fff0ac53_00238_004e3e98_e2
f 389/241/389 73/65/73 388/240/388
f 13/14/13 389/241/389 390/242/390
f 1/5/1 52/55/52 64/57/64
f 64/57/64 53/56/53 1/5/1
f 62/64/62 60/56/60 8/5/8
f 8/5/8 49/51/49 62/64/62
f 73/65/73 51/54/51 388/240/388
f 13/14/13 73/65/73 389/241/389
f 9/9/9 176/150/176 74/66/74
f 229/174/229 417/272/417 418/273/418
f 230/175/230 418/273/418 417/272/417
f 414/267/414 413/269/413 175/145/175
f 418/273/418 230/175/230 228/173/228
f 417/272/417 229/174/229 227/172/227
f 176/149/176 175/145/175 46/47/46
f 46/47/46 74/66/74 176/151/176
f 175/145/175 176/143/176 414/267/414
f 9/9/9 173/142/173 176/148/176
f 173/142/173 411/266/411 176/143/176
f 414/267/414 176/143/176 411/266/411
g fff0ac53_00238_004e3e98_e3
f 48/50/48 8/62/8 3/62/3
f 51/54/51 6/2/6 50/13/50
f 8/67/8 13/6/13 9/8/9
f 13/6/13 8/67/8 6/2/6
f 1/7/1 9/9/9 74/66/74
f 46/47/46 47/48/47 1/7/1
f 9/8/9 3/68/3 8/67/8
f 8/1/8 48/50/48 49/52/49
f 13/14/13 6/2/6 73/65/73
f 73/65/73 6/2/6 51/54/51
f 1/7/1 74/66/74 46/47/46
f 9/8/9 1/7/1 3/68/3
g fff0ac53_00238_004e3e98_e5
f 387/239/387 388/240/388 51/54/51
f 387/239/387 51/54/51 12/13/12
f 52/55/52 2/4/2 54/59/54
f 54/59/54 64/57/64 52/55/52
f 49/51/49 7/4/7 59/59/59
f 59/59/59 62/64/62 49/51/49
f 11/11/11 46/47/46 175/145/175
f 175/145/175 174/144/174 11/11/11
f 174/144/174 175/145/175 413/269/413
f 413/269/413 412/268/412 174/144/174
g fff0ac53_00238_004e3e98_e6
f 49/52/49 4/62/4 7/62/7
f 47/48/47 46/47/46 11/11/11
f 51/2/51 50/53/50 12/12/12
f 50/53/50 5/3/5 12/12/12
f 4/1/4 49/52/49 48/50/48
f 11/11/11 10/10/10 47/48/47
f 101/1/101 106/50/106 107/90/107
f 106/89/106 101/62/101 100/62/100
f 231/171/231 228/173/228 230/175/230
g fff0ac53_00238_004e3e98_e8
f 77/70/77 76/54/76 80/75/80
f 80/75/80 81/76/81 77/70/77
g fff0ac53_00238_004e3e98_e9
f 416/271/416 177/146/177 415/270/415
f 177/146/177 416/271/416 178/147/178
f 82/74/82 79/73/79 75/13/75
f 75/13/75 78/71/78 82/74/82
f 385/237/385 386/238/386 86/75/86
f 87/77/87 385/237/385 86/75/86
f 96/83/96 178/147/178 97/84/97
f 178/147/178 96/83/96 177/146/177
g fff0ac53_00238_004e3e98_e10
f 86/75/86 89/84/89 87/77/87
f 89/84/89 86/75/86 88/83/88
f 90/75/90 93/84/93 91/77/91
f 93/84/93 90/75/90 92/83/92
f 94/75/94 97/84/97 95/77/95
f 97/84/97 94/75/94 96/83/96
f 102/50/102 107/62/107 106/89/106
f 107/90/107 102/50/102 103/52/103
g fff0ac53_00238_004e3e98_e11
f 80/78/80 75/13/75 79/73/79
f 75/13/75 80/78/80 76/54/76
f 113/99/113 102/50/102 112/94/112
f 105/88/105 102/50/102 113/99/113
f 102/50/102 105/88/105 103/52/103
f 112/94/112 102/50/102 104/87/104
g fff0ac53_00238_004e3e98_e33
f 82/257/82 80/256/80 79/255/79
f 82/257/82 81/79/81 80/256/80
g fff0ac53_00238_004e3e98_e13
f 84/78/84 398/250/398 83/77/83
f 83/77/83 398/250/398 399/251/399
f 399/251/399 400/252/400 83/77/83
f 400/252/400 85/80/85 83/77/83
f 296/229/296 328/232/328 297/228/297
f 298/230/298 297/228/297 328/232/328
f 328/232/328 327/231/327 298/230/298
f 323/217/323 326/227/326 327/231/327
f 296/229/296 323/217/323 328/232/328
f 327/231/327 328/232/328 323/217/323
f 326/227/326 322/215/322 325/226/325
f 322/215/322 326/227/326 323/217/323
f 296/213/296 324/212/324 322/215/322
f 322/215/322 323/217/323 296/213/296
f 298/235/298 292/228/292 297/234/297
f 292/228/292 298/235/298 293/230/293
f 297/234/297 289/229/289 296/233/296
f 289/229/289 297/234/297 292/228/292
f 289/229/289 292/228/292 295/232/295
f 293/230/293 295/232/295 292/228/292
f 295/232/295 293/230/293 294/231/294
f 287/217/287 294/231/294 291/227/291
f 289/229/289 295/232/295 287/217/287
f 294/231/294 287/217/287 295/232/295
f 291/227/291 290/226/290 286/215/286
f 286/215/286 287/217/287 291/227/291
f 111/1/111 391/243/391 109/1/109
f 392/244/392 109/1/109 391/243/391
f 108/69/108 111/82/111 109/72/109
f 111/82/111 108/69/108 110/81/110
f 289/213/289 286/215/286 288/212/288
f 286/215/286 289/213/289 287/217/287
f 214/82/214 213/81/213 211/69/211
f 211/69/211 212/72/212 214/82/214
f 212/1/212 401/253/401 214/1/214
f 401/253/401 212/1/212 402/254/402
g fff0ac53_00238_004e3e98_e14
f 203/93/203 210/157/210 205/152/205
f 208/155/208 207/154/207 206/153/206
f 142/93/142 145/98/145 144/97/144
f 142/93/142 144/97/144 143/96/143
f 207/154/207 204/98/204 206/153/206
f 203/93/203 209/156/209 210/157/210
f 138/93/138 141/98/141 140/97/140
f 138/93/138 140/97/140 139/96/139
f 136/103/136 135/102/135 130/101/130
f 135/102/135 137/104/137 130/101/130
f 131/93/131 134/98/134 133/97/133
f 131/93/131 133/97/133 132/96/132
f 195/93/195 201/156/201 202/157/202
f 199/154/199 196/98/196 198/153/198
f 200/155/200 199/154/199 198/153/198
f 195/93/195 202/157/202 197/152/197
f 187/93/187 193/156/193 194/157/194
f 191/154/191 188/98/188 190/153/190
f 192/155/192 191/154/191 190/153/190
f 187/93/187 194/157/194 189/152/189
f 179/93/179 185/156/185 186/157/186
f 183/154/183 180/98/180 182/153/182
f 184/155/184 183/154/183 182/153/182
f 179/93/179 186/157/186 181/152/181
g fff0ac53_00238_004e3e98_e15
f 112/95/112 396/248/396 395/247/395
f 113/100/113 112/95/112 395/247/395
f 114/91/114 394/246/394 115/95/115
f 114/91/114 393/245/393 394/246/394
f 113/100/113 395/247/395 105/92/105
f 395/247/395 397/249/397 105/92/105
g fff0ac53_00238_004e3e98_e26
f 280/215/280 283/213/283 281/217/281
f 276/213/276 271/220/271 268/217/268
f 269/218/269 271/220/271 270/219/270
f 270/219/270 273/223/273 269/218/269
f 271/220/271 269/218/269 272/221/272
f 276/213/276 267/215/267 275/212/275
f 273/223/273 270/219/270 274/222/274
f 267/215/267 276/213/276 268/217/268
f 283/213/283 280/215/280 282/212/282
f 301/215/301 304/213/304 302/217/302
f 304/213/304 301/215/301 303/212/303
f 309/215/309 312/213/312 310/217/310
f 312/213/312 309/215/309 311/212/311
f 277/213/277 318/217/318 319/220/319
f 273/218/273 274/219/274 319/220/319
f 319/220/319 320/221/320 273/218/273
f 277/213/277 321/212/321 317/215/317
f 317/215/317 318/217/318 277/213/277
f 331/215/331 334/213/334 332/217/332
f 334/213/334 331/215/331 333/212/333
f 339/215/339 342/213/342 340/217/340
f 342/213/342 339/215/339 341/212/341
f 347/215/347 350/213/350 348/217/348
f 350/213/350 347/215/347 349/212/349
f 355/215/355 358/213/358 356/217/356
f 358/213/358 355/215/355 357/212/357
f 363/215/363 366/213/366 364/217/364
f 366/213/366 363/215/363 365/212/365
f 359/1/359 353/1/353 360/1/360
f 354/1/354 360/1/360 353/1/353
f 367/1/367 361/1/361 368/1/368
f 362/1/362 368/1/368 361/1/361
f 351/1/351 345/1/345 352/1/352
f 346/1/346 352/1/352 345/1/345
f 343/1/343 337/1/337 344/1/344
f 338/1/338 344/1/344 337/1/337
f 335/1/335 329/1/329 336/1/336
f 330/1/330 336/1/336 329/1/329
f 313/1/313 307/1/307 314/1/314
f 308/1/308 314/1/314 307/1/307
f 305/1/305 299/1/299 306/1/306
f 300/1/300 306/1/306 299/1/299
f 284/1/284 278/1/278 285/1/285
f 279/1/279 285/1/285 278/1/278
f 371/215/371 374/213/374 372/217/372
f 374/213/374 371/215/371 373/212/373
f 375/1/375 369/1/369 376/1/376
f 370/1/370 376/1/376 369/1/369
f 379/215/379 382/213/382 380/217/380
f 382/213/382 379/215/379 381/212/381
f 383/1/383 377/1/377 384/1/384
f 378/1/378 384/1/384 377/1/377
g fff0ac53_00238_004e3e98_e27
f 274/225/274 276/213/276 277/224/277
f 276/213/276 274/225/274 270/219/270
f 271/220/271 272/221/272 266/211/266
f 266/211/266 268/217/268 271/220/271
f 278/210/278 281/216/281 279/211/279
f 276/213/276 270/219/270 271/220/271
f 265/210/265 268/216/268 266/211/266
f 268/216/268 265/210/265 267/214/267
f 284/210/284 285/211/285 283/216/283
f 283/216/283 282/214/282 284/210/284
f 281/216/281 278/210/278 280/214/280
f 299/210/299 302/216/302 300/211/300
f 305/210/305 306/211/306 304/216/304
f 304/216/304 303/214/303 305/210/305
f 302/216/302 299/210/299 301/214/301
f 307/210/307 310/216/310 308/211/308
f 313/210/313 314/211/314 312/216/312
f 312/216/312 311/214/311 313/210/313
f 310/216/310 307/210/307 309/214/309
f 319/220/319 316/211/316 320/221/320
f 316/211/316 319/220/319 318/217/318
f 277/213/277 319/220/319 274/219/274
f 315/210/315 316/211/316 318/216/318
f 318/216/318 317/214/317 315/210/315
f 329/210/329 332/216/332 330/211/330
f 335/210/335 336/211/336 334/216/334
f 334/216/334 333/214/333 335/210/335
f 332/216/332 329/210/329 331/214/331
f 337/210/337 340/216/340 338/211/338
f 343/210/343 344/211/344 342/216/342
f 342/216/342 341/214/341 343/210/343
f 340/216/340 337/210/337 339/214/339
f 345/210/345 348/216/348 346/211/346
f 351/210/351 352/211/352 350/216/350
f 350/216/350 349/214/349 351/210/351
f 348/216/348 345/210/345 347/214/347
f 353/210/353 356/216/356 354/211/354
f 359/210/359 360/211/360 358/216/358
f 358/216/358 357/214/357 359/210/359
f 356/216/356 353/210/353 355/214/355
f 361/210/361 364/216/364 362/211/362
f 367/210/367 368/211/368 366/216/366
f 366/216/366 365/214/365 367/210/367
f 364/216/364 361/210/361 363/214/363
f 369/210/369 372/216/372 370/211/370
f 375/210/375 376/211/376 374/216/374
f 374/216/374 373/214/373 375/210/375
f 372/216/372 369/210/369 371/214/371
f 377/210/377 380/216/380 378/211/378
f 383/210/383 384/211/384 382/216/382
f 382/216/382 381/214/381 383/210/383
f 380/216/380 377/210/377 379/214/379
g fff0ac53_00238_004e3e98_e18
f 152/126/152 117/118/117 118/125/118
f 117/118/117 152/126/152 151/124/151
f 151/124/151 150/123/150 116/122/116
f 116/122/116 117/118/117 151/124/151
f 116/122/116 150/123/150 216/159/216
f 216/159/216 215/158/215 116/122/116
g fff0ac53_00238_004e3e98_e19
f 117/118/117 164/133/164 118/120/118
f 170/139/170 171/140/171 158/132/158
f 117/118/117 163/132/163 164/133/164
f 121/117/121 170/139/170 120/119/120
f 155/129/155 162/128/162 151/124/151
f 151/124/151 152/126/152 155/129/155
f 121/117/121 171/140/171 170/139/170
f 171/140/171 159/133/159 158/132/158
f 221/163/221 160/134/160 220/164/220
f 160/134/160 221/163/221 172/141/172
f 119/121/119 172/141/172 221/163/221
f 221/163/221 219/162/219 119/121/119
g fff0ac53_00238_004e3e98_e20
f 165/134/165 163/132/163 117/118/117
f 117/118/117 116/122/116 165/134/165
f 150/123/150 151/124/151 162/128/162
f 162/128/162 161/127/161 150/123/150
f 119/121/119 120/119/120 170/139/170
f 170/139/170 172/141/172 119/121/119
f 158/132/158 160/134/160 172/141/172
f 172/141/172 170/139/170 158/132/158
f 116/122/116 218/160/218 165/134/165
f 218/160/218 116/122/116 215/158/215
f 217/161/217 216/159/216 150/123/150
f 150/123/150 161/127/161 217/161/217
g fff0ac53_00238_004e3e98_e22
f 235/180/235 246/191/246 234/179/234
f 239/184/239 237/182/237 238/183/238
f 166/135/166 154/128/154 245/190/245
f 169/138/169 166/135/166 157/131/157
f 167/136/167 247/192/247 153/127/153
f 249/194/249 248/193/248 153/127/153
f 166/135/166 169/138/169 257/202/257
f 236/181/236 235/180/235 167/136/167
f 166/135/166 245/190/245 157/131/157
f 254/199/254 244/189/244 166/135/166
f 242/187/242 241/186/241 243/188/243
f 254/199/254 166/135/166 257/202/257
f 240/185/240 241/186/241 242/187/242
f 242/187/242 254/199/254 257/202/257
f 243/188/243 241/186/241 255/200/255
f 239/184/239 238/183/238 250/195/250
f 240/185/240 242/187/242 257/202/257
f 239/184/239 257/202/257 236/181/236
f 236/181/236 237/182/237 239/184/239
f 240/185/240 239/184/239 250/195/250
f 253/198/253 154/128/154 166/135/166
f 236/181/236 257/202/257 235/180/235
f 248/193/248 167/136/167 153/127/153
f 260/205/260 168/137/168 261/206/261
f 168/137/168 156/130/156 261/206/261
f 167/136/167 235/180/235 234/179/234
f 246/191/246 261/206/261 262/207/262
f 257/202/257 246/191/246 235/180/235
f 167/136/167 234/179/234 247/192/247
f 237/182/237 236/181/236 248/193/248
f 236/181/236 167/136/167 248/193/248
f 237/182/237 248/193/248 249/194/249
f 250/195/250 238/183/238 251/196/251
f 240/185/240 250/195/250 241/186/241
f 250/195/250 252/197/252 241/186/241
f 250/195/250 251/196/251 252/197/252
f 244/189/244 253/198/253 166/135/166
f 244/189/244 254/199/254 243/188/243
f 243/188/243 254/199/254 242/187/242
f 243/188/243 256/201/256 244/189/244
f 243/188/243 255/200/255 256/201/256
f 257/202/257 169/138/169 258/203/258
f 240/185/240 257/202/257 239/184/239
f 257/202/257 258/203/258 259/204/259
f 259/204/259 258/203/258 260/205/260
f 257/202/257 259/204/259 246/191/246
f 259/204/259 260/205/260 261/206/261
f 261/206/261 156/130/156 262/207/262
f 259/204/259 261/206/261 246/191/246
f 246/191/246 262/207/262 234/179/234
