# fff03928_00009_0003266a
o fff03928_00009_0003266a
v 3.278381 0.712090 -0.554733
v -4.703333 -0.449024 -0.597379
v -2.668751 -1.055009 0.449955
v -4.321135 -1.433971 -0.602182
v -0.619430 -0.827877 0.298160
v 0.826239 -1.334958 0.544493
v 1.887354 0.303034 0.008274
v 2.332670 1.821365 0.070564
v 3.542218 2.060662 -0.285014
v 3.558871 0.422550 -0.554728
v -2.993102 -1.480994 0.449954
v -4.861071 -1.998704 -0.948767
v -0.725609 -1.262422 0.298159
v 0.965648 -1.722141 0.544493
v 2.081440 -0.276148 -0.706112
v 2.606163 1.728858 -0.369154
v 3.880845 2.357745 0.070625
v -3.316703 -0.079837 0.025757
v -0.293991 0.629135 -0.341589
v 0.942792 1.075297 0.077284
v -1.508825 0.440438 0.186599
vt 2.238466 0.611535
vt -0.141022 0.801060
vt 2.067060 0.380353
vt 1.518349 0.668892
vt 0.905644 0.717694
vt 0.477836 0.751768
vt -0.137684 0.410923
vt -0.139370 0.608057
vt -2.709049 0.010667
vt -2.327541 0.010667
vt -3.053142 0.010667
vt 3.420926 0.010667
vt 3.950175 0.010667
vt -4.350433 0.010667
vt -3.606694 0.010667
vt -1.991156 0.010667
vt -2.607237 0.212010
vt 2.988686 0.212010
vt 4.051987 0.212010
vt 3.522738 0.212010
vt -4.248621 0.212010
vt -3.504881 0.212010
vt -2.951330 0.212010
vt -1.889344 0.212010
vt -2.225729 0.212010
vt 4.686758 0.212010
vt 4.774612 0.010667
vt 1.635491 0.154176
vt 0.949449 0.281832
vt 0.834473 0.336981
vt 0.520490 0.401797
vn 0.050391 -0.254987 0.965631
vn -0.381244 -0.152384 0.911829
vn -0.154671 0.179017 0.971612
vn -0.471588 -0.077407 0.878415
vn -0.016526 0.159538 0.987053
vn 0.170682 0.118383 0.978189
vn 0.374907 -0.191034 0.907166
vn 0.323156 -0.468923 0.821998
vn -0.168454 -0.474906 0.863764
vn -0.156687 -0.151774 0.975917
vn -0.469226 0.357273 0.807578
vn -0.486828 -0.034524 0.872815
vn -0.020693 0.002894 0.999782
vn 0.258471 0.103718 0.960435
vn 0.604670 -0.444197 0.661108
vn -0.303690 0.876594 -0.373304
vn -0.348887 -0.447728 0.823297
vn -0.323789 0.074501 0.943191
vn -0.163021 0.426957 0.889456
vn 0.017559 0.089395 0.995842
vn 0.073310 0.138283 0.987676
g fff03928_00009_0003266a_e0
f 8/24/8 17/10/17 16/16/16
f 17/10/17 8/24/8 9/25/9
f 17/10/17 9/25/9 1/17/1
f 1/17/1 10/9/10 17/10/17
f 15/11/15 1/17/1 7/23/7
f 1/17/1 15/11/15 10/9/10
f 6/22/6 14/15/14 15/11/15
f 15/11/15 7/23/7 6/22/6
f 5/21/5 13/14/13 14/15/14
f 14/15/14 6/22/6 5/21/5
f 11/13/11 3/19/3 12/12/12
f 4/20/4 12/12/12 3/19/3
f 11/13/11 13/27/13 3/19/3
f 5/26/5 3/19/3 13/27/13
f 4/20/4 2/18/2 12/12/12
f 4/1/4 18/1/18 2/1/2
g fff03928_00009_0003266a_e1
f 7/6/7 5/4/5 6/5/6
f 19/30/19 5/4/5 20/31/20
f 20/31/20 9/8/9 8/7/8
f 18/28/18 4/3/4 3/1/3
f 18/28/18 5/4/5 21/29/21
f 20/31/20 5/4/5 7/6/7
f 3/1/3 5/4/5 18/28/18
f 9/8/9 20/31/20 7/6/7
f 9/8/9 7/6/7 1/2/1
f 21/29/21 5/4/5 19/30/19
