# fff0ade4_00229_00382303
o fff0ade4_00229_00382303
v -0.101768 -0.162580 0.973240
v -0.418887 -0.399288 1.269133
v -0.236413 -0.563438 1.086223
v -0.097230 -0.155333 0.979173
v -0.102985 -0.170970 0.976145
v -0.111940 -0.157797 0.977424
v -0.056332 -0.039043 0.329446
v -0.029277 -0.064292 0.323950
v -0.016358 -0.028899 0.310036
v -0.101768 -0.162580 0.973240
v -0.409959 0.114435 1.305164
v -0.528912 -0.192966 1.182177
v -0.101768 -0.162580 0.973240
v -0.069025 -0.023464 1.530385
v -0.438805 -0.057592 1.415377
v -0.101768 -0.162580 0.973240
v 0.390649 -0.186214 1.368826
v 0.110838 0.096399 1.431750
v -0.101768 -0.162580 0.973240
v 0.182390 -0.531689 1.144118
v 0.249802 -0.240331 1.329482
v -0.294301 -0.353646 0.863326
v -0.060201 -0.189550 0.636366
v -0.083264 -0.097109 0.853896
v -0.047421 -0.080878 0.669199
v -0.540776 -0.337728 0.819491
v -0.316362 -0.501998 0.691642
v 0.099355 -0.023877 1.068690
v -0.213937 -0.120097 0.909457
v -0.017878 -0.128146 0.776401
v 0.112282 0.015952 0.706160
v 0.026746 -0.006536 1.006847
v -0.008243 -0.155914 0.887880
v 0.118429 0.018357 0.706214
v 0.110652 0.011818 0.709711
v 0.110739 0.021883 0.710631
v -0.082565 0.067283 0.341281
v -0.079676 0.044645 0.334747
v -0.070113 0.059492 0.316377
v 0.112282 0.015952 0.706160
v 0.180138 0.268144 0.918753
v 0.000537 0.141504 0.957356
v 0.112282 0.015952 0.706160
v 0.376896 0.080553 0.948879
v 0.164566 0.184838 1.018464
v 0.112282 0.015952 0.706160
v 0.469782 -0.160169 0.749848
v 0.448158 0.085558 0.816178
v 0.112282 0.015952 0.706160
v 0.202658 -0.277806 0.773910
v 0.379765 -0.142640 0.786881
v -0.063281 -0.023434 0.751993
v -0.006201 -0.012598 0.527855
v 0.091752 0.045115 0.626659
v 0.040587 0.041893 0.518393
v -0.181967 0.067008 0.807173
v -0.177834 -0.096369 0.702334
v 0.272131 0.024167 0.660752
v 0.050728 0.076106 0.702041
v 0.081939 0.006588 0.572401
v -4.091785 -0.162267 0.761581
v -4.367386 -0.367985 1.018736
v -4.208802 -0.510645 0.859773
v -4.087841 -0.155969 0.766738
v -4.092843 -0.169559 0.764106
v -4.100625 -0.158111 0.765218
v -4.052297 -0.054904 0.202074
v -4.028784 -0.076847 0.197298
v -4.017557 -0.046088 0.185205
v -4.091785 -0.162267 0.761581
v -4.359627 0.078481 1.050050
v -4.463007 -0.188675 0.943164
v -4.091785 -0.162267 0.761581
v -4.063329 -0.041365 1.245784
v -4.384696 -0.071025 1.145833
v -4.091785 -0.162267 0.761581
v -3.844829 -0.483051 0.910088
v -3.786243 -0.229840 1.071184
v -4.259111 -0.328319 0.666058
v -4.055660 -0.185707 0.468812
v -4.075703 -0.105368 0.657862
v -4.044553 -0.091262 0.497346
v -4.473317 -0.314485 0.627962
v -4.278284 -0.457248 0.516851
v -3.916993 -0.041724 0.844535
v -4.189268 -0.125347 0.706149
v -4.018878 -0.132341 0.590513
v 3.612155 -0.527740 0.706214
v 3.604378 -0.534279 0.709711
v 3.604465 -0.524214 0.710631
v 3.411161 -0.478814 0.341281
v 3.414050 -0.501452 0.334747
v 3.423612 -0.486605 0.316377
v 3.606008 -0.530145 0.706160
v 3.673864 -0.277953 0.918753
v 3.494262 -0.404593 0.957356
v 3.606008 -0.530145 0.706160
v 3.870621 -0.465544 0.948879
v 3.658291 -0.361258 1.018464
v 3.606008 -0.530145 0.706160
v 3.963508 -0.706266 0.749848
v 3.941884 -0.460538 0.816178
v 3.606008 -0.530145 0.706160
v 3.696384 -0.823903 0.773910
v 3.873490 -0.688737 0.786881
v 3.430445 -0.569531 0.751993
v 3.487524 -0.558695 0.527855
v 3.585478 -0.500982 0.626659
v 3.534312 -0.504204 0.518393
v 3.311758 -0.479089 0.807173
v 3.315892 -0.642466 0.702334
v 3.765857 -0.521930 0.660752
v 3.544453 -0.469990 0.702041
v 3.575665 -0.539509 0.572401
v -6.378510 0.830704 0.743717
v -6.519593 0.624985 1.093254
v -6.443054 0.482315 0.882156
v -6.372742 0.836991 0.746727
v -6.378357 0.823410 0.746445
v -6.384949 0.834854 0.750740
v -6.579163 0.938065 0.219944
v -6.559845 0.916122 0.205669
v -6.554780 0.946884 0.189960
v -6.378510 0.830704 0.743717
v -6.499299 1.071442 1.118343
v -6.638184 0.804291 1.065170
v -6.378510 0.830704 0.743717
v -6.148071 0.951599 1.170521
v -6.481567 0.921936 1.215755
v -6.378510 0.830704 0.743717
v -6.091919 0.509918 0.773945
v -5.970734 0.763123 0.895187
v -6.570527 0.664642 0.727859
v -6.469483 0.807251 0.463108
v -6.407746 0.887604 0.642921
v -6.447357 0.901703 0.484272
v -6.780762 0.678482 0.783855
v -6.650940 0.535721 0.600731
v -6.184998 0.951248 0.745022
v -6.490265 0.867615 0.734673
v -6.384705 0.860626 0.557865
v -6.642640 3.670342 0.840199
v -7.030121 3.589844 1.136089
v -6.934113 3.363953 0.953175
v -6.635498 3.674996 0.846130
v -6.647339 3.663254 0.843102
v -6.649872 3.678978 0.844383
v -6.549316 3.763115 0.196396
v -6.535431 3.728791 0.190907
v -6.508790 3.755409 0.176987
v -6.642640 3.670342 0.840199
v -6.804932 4.051651 1.172115
v -7.042634 3.823327 1.049133
v -6.642640 3.670342 0.840199
v -6.554200 3.782600 1.397343
v -6.903748 3.907929 1.282333
v -6.642640 3.670342 0.840199
v -6.206390 3.440826 1.235779
v -6.340546 3.815209 1.298706
v -6.642640 3.670342 0.840199
v -6.541138 3.215729 1.011074
v -6.356873 3.451294 1.196442
v -6.897889 3.578545 0.730282
v -6.616364 3.628326 0.503326
v -6.598237 3.721863 0.720844
v -6.558899 3.721428 0.536152
v -7.114594 3.697144 0.686443
v -6.980622 3.453415 0.558594
v -6.401764 3.711052 0.935650
v -6.726410 3.756256 0.776409
v -6.552094 3.666107 0.643360
v -6.373200 3.741684 0.573120
v -6.460236 3.757454 0.873802
v -6.555085 3.636864 0.754841
v -6.366669 3.741272 0.573166
v -6.376435 3.738632 0.576664
v -6.372132 3.747711 0.577583
v -6.528138 3.870553 0.208233
v -6.535096 3.848824 0.201698
v -6.520112 3.858231 0.183334
v -6.373200 3.741684 0.573120
v -6.205140 3.941574 0.785713
v -6.421448 3.902703 0.824306
v -6.373200 3.741684 0.573120
v -6.106110 3.688408 0.815834
v -6.254456 3.872651 0.885418
v -6.373200 3.741684 0.573120
v -6.123658 3.430985 0.616806
v -6.039398 3.662819 0.683128
v -6.373200 3.741684 0.573120
v -6.415466 3.437256 0.640869
v -6.197815 3.484917 0.653831
v -6.548981 3.780182 0.618946
v -6.492707 3.765892 0.394806
v -6.379487 3.776795 0.493610
v -6.427277 3.795502 0.385345
v -6.618317 3.912316 0.674122
v -6.683624 3.762505 0.569290
v -6.224884 3.681587 0.527710
v -6.403564 3.822212 0.568996
v -6.404694 3.746033 0.439354
v -6.369141 7.035431 0.634930
v -6.377533 7.028893 0.636292
v -6.377716 7.038956 0.637211
v -6.468842 7.084359 0.230415
v -6.464356 7.061722 0.224842
v -6.450348 7.076569 0.209576
v -6.375061 7.033028 0.633282
v -6.364532 7.285218 0.856197
v -6.548005 7.158577 0.847000
v -6.375061 7.033028 0.633282
v -6.182281 7.097626 0.936214
v -6.405365 7.201912 0.948479
v -6.375061 7.033028 0.633282
v -6.041046 6.856903 0.768009
v -6.079102 7.102631 0.826485
v -6.375061 7.033028 0.633282
v -6.305298 6.739274 0.722122
v -6.137604 6.874436 0.780483
v -6.556489 6.993638 0.632118
v -6.443360 7.004479 0.430397
v -6.374298 7.062188 0.551182
v -6.395722 7.058968 0.433361
v -6.685425 7.084085 0.654694
v -6.654297 6.920708 0.554508
v -6.208924 7.041245 0.630795
v -6.433442 7.093186 0.613369
v -6.369751 7.023667 0.496223
vt 0.975678 1.986637
vt 0.801905 1.986637
vt 0.801905 1.986637
vt 0.801905 0.556561
vt 0.801905 0.548691
vt 0.971316 0.507438
vt 1.002894 1.047323
vt 1.007012 1.987480
vt 1.748292 1.025204
vt 2.000000 -1.310246
vt 1.763299 -1.310246
vt 2.000000 -2.787136
vt 1.763299 -2.787136
vt 1.002894 1.047323
vt 1.007012 1.987480
vt 1.748292 1.025204
vt 0.801905 0.548691
vt 0.801905 1.986637
vt 0.801905 1.986637
vt 2.000000 -2.787136
vt 1.763299 -1.310246
vt 1.763299 -2.787136
vt 2.000000 -1.310246
vt 0.801905 0.556561
vt 0.975678 1.986637
vt 0.971316 0.507438
vt 1.002894 1.047323
vt 1.007012 1.987480
vt 1.748292 1.025204
vt 0.801905 0.548691
vt 0.801905 1.986637
vt 0.801905 1.986637
vt 2.000000 -2.787136
vt 1.763299 -1.310246
vt 1.763299 -2.787136
vt 2.000000 -1.310246
vt 0.801905 0.556561
vt 0.975678 1.986637
vt 0.971316 0.507438
vt 1.002894 1.047323
vt 1.007012 1.987480
vt 1.748292 1.025204
vt 0.801905 0.548691
vt 0.801905 1.986637
vt 0.801905 1.986637
vt 2.000000 -2.787136
vt 1.763299 -1.310246
vt 1.763299 -2.787136
vt 2.000000 -1.310246
vt 0.801905 0.556561
vt 0.975678 1.986637
vt 0.971316 0.507438
vt 1.002894 1.047323
vt 1.007012 1.987480
vt 1.748292 1.025204
vt 0.801905 0.548691
vt 0.801905 1.986637
vt 0.801905 1.986637
vt 2.000000 -2.787136
vt 1.763299 -1.310246
vt 1.763299 -2.787136
vt 2.000000 -1.310246
vt 0.801905 0.556561
vt 0.975678 1.986637
vt 0.971316 0.507438
vt 1.002894 1.047323
vt 1.007012 1.987480
vt 1.748292 1.025204
vt 0.801905 0.548691
vt 0.801905 1.986637
vt 0.801905 1.986637
vt 2.000000 -2.787136
vt 1.763299 -1.310246
vt 1.763299 -2.787136
vt 2.000000 -1.310246
vt 0.801905 0.556561
vt 0.975678 1.986637
vt 0.971316 0.507438
vn 0.693899 -0.030300 0.719434
vn 0.693899 -0.030300 0.719434
vn 0.693899 -0.030300 0.719434
vn 0.757213 0.618234 0.210750
vn 0.112476 -0.982570 -0.148005
vn -0.924371 0.380971 -0.019970
vn -0.853266 0.521018 0.021854
vn 0.501454 -0.861342 -0.081444
vn 0.764787 0.609895 0.207673
vn 0.414290 -0.471726 0.778356
vn 0.414290 -0.471726 0.778356
vn 0.414290 -0.471726 0.778356
vn 0.014464 -0.970310 0.241430
vn 0.014464 -0.970310 0.241430
vn 0.014464 -0.970310 0.241430
vn -0.504239 -0.630599 0.589990
vn -0.504239 -0.630599 0.589990
vn -0.504239 -0.630599 0.589990
vn -0.715941 -0.249257 0.652150
vn -0.715941 -0.249257 0.652150
vn -0.715941 -0.249257 0.652150
vn 0.734993 -0.592512 0.329720
vn 0.734993 -0.592512 0.329720
vn 0.734993 -0.592512 0.329720
vn 0.376032 -0.191833 0.906532
vn 0.376032 -0.191833 0.906532
vn 0.376032 -0.191833 0.906532
vn 0.149926 -0.948720 0.278304
vn 0.149926 -0.948720 0.278304
vn 0.149926 -0.948720 0.278304
vn 0.893499 -0.388566 0.225114
vn 0.893499 -0.388566 0.225114
vn 0.893499 -0.388566 0.225114
vn 0.898904 0.131488 -0.417950
vn -0.420838 -0.897022 0.135082
vn -0.483016 0.806725 0.340426
vn -0.349304 0.890446 0.291706
vn -0.067093 -0.996482 -0.050213
vn 0.898612 0.120379 -0.421906
vn 0.555459 -0.618237 0.556102
vn 0.555459 -0.618237 0.556102
vn 0.555459 -0.618237 0.556102
vn -0.248223 -0.834096 0.492615
vn -0.248223 -0.834096 0.492615
vn -0.248223 -0.834096 0.492615
vn -0.247965 -0.272746 0.929582
vn -0.247965 -0.272746 0.929582
vn -0.247965 -0.272746 0.929582
vn -0.195223 0.162988 0.967121
vn -0.195223 0.162988 0.967121
vn -0.195223 0.162988 0.967121
vn 0.451429 -0.889400 0.071962
vn 0.451429 -0.889400 0.071962
vn 0.451429 -0.889400 0.071962
vn 0.723688 -0.359652 0.589004
vn 0.723688 -0.359652 0.589004
vn 0.723688 -0.359652 0.589004
vn -0.124935 -0.886597 0.445350
vn -0.124935 -0.886597 0.445350
vn -0.124935 -0.886597 0.445350
vn 0.693900 -0.030300 0.719434
vn 0.693900 -0.030300 0.719434
vn 0.693900 -0.030300 0.719434
vn 0.757226 0.618219 0.210749
vn 0.112456 -0.982572 -0.148007
vn -0.924366 0.380983 -0.019969
vn -0.853269 0.521012 0.021852
vn 0.501462 -0.861338 -0.081443
vn 0.764783 0.609901 0.207674
vn 0.414290 -0.471725 0.778356
vn 0.414290 -0.471725 0.778356
vn 0.414290 -0.471725 0.778356
vn 0.014465 -0.970310 0.241430
vn 0.014465 -0.970310 0.241430
vn 0.014465 -0.970310 0.241430
vn -0.715940 -0.249256 0.652151
vn -0.715941 -0.249256 0.652151
vn -0.715941 -0.249256 0.652151
vn 0.734992 -0.592513 0.329720
vn 0.734992 -0.592513 0.329720
vn 0.734992 -0.592513 0.329720
vn 0.376032 -0.191833 0.906532
vn 0.376032 -0.191833 0.906532
vn 0.376032 -0.191833 0.906532
vn 0.149927 -0.948720 0.278304
vn 0.149927 -0.948720 0.278304
vn 0.149927 -0.948720 0.278304
vn 0.898904 0.131489 -0.417949
vn -0.420850 -0.897015 0.135089
vn -0.483010 0.806730 0.340423
vn -0.349303 0.890447 0.291705
vn -0.067089 -0.996483 -0.050215
vn 0.898612 0.120379 -0.421906
vn 0.555459 -0.618236 0.556102
vn 0.555459 -0.618236 0.556102
vn 0.555459 -0.618236 0.556102
vn -0.248222 -0.834096 0.492615
vn -0.248222 -0.834096 0.492615
vn -0.248222 -0.834096 0.492615
vn -0.247965 -0.272746 0.929582
vn -0.247965 -0.272746 0.929582
vn -0.247965 -0.272746 0.929582
vn -0.195223 0.162988 0.967121
vn -0.195223 0.162988 0.967121
vn -0.195223 0.162988 0.967121
vn 0.451430 -0.889400 0.071962
vn 0.451430 -0.889400 0.071962
vn 0.451430 -0.889400 0.071962
vn 0.723688 -0.359653 0.589004
vn 0.723688 -0.359653 0.589004
vn 0.723688 -0.359653 0.589004
vn -0.124935 -0.886597 0.445350
vn -0.124935 -0.886597 0.445350
vn -0.124935 -0.886597 0.445350
vn 0.932947 -0.030293 0.358736
vn 0.932947 -0.030293 0.358736
vn 0.932947 -0.030293 0.358736
vn 0.774910 0.618811 -0.128792
vn 0.040720 -0.982437 -0.182098
vn -0.846290 0.380764 0.372575
vn -0.764178 0.520854 0.380451
vn 0.420171 -0.861290 -0.285718
vn 0.780762 0.610102 -0.134853
vn 0.704435 -0.471767 0.530289
vn 0.704435 -0.471767 0.530289
vn 0.704435 -0.471767 0.530289
vn 0.115152 -0.970314 0.212676
vn 0.115152 -0.970314 0.212676
vn 0.115152 -0.970314 0.212676
vn -0.373249 -0.249256 0.893620
vn -0.373249 -0.249256 0.893620
vn -0.373249 -0.249256 0.893620
vn 0.805460 -0.592534 -0.011761
vn 0.805460 -0.592534 -0.011761
vn 0.805460 -0.592534 -0.011761
vn 0.723897 -0.191798 0.662711
vn 0.723897 -0.191798 0.662711
vn 0.723897 -0.191798 0.662711
vn 0.253514 -0.948717 0.188858
vn 0.253514 -0.948717 0.188858
vn 0.253514 -0.948717 0.188858
vn 0.616032 -0.320754 0.719459
vn 0.616032 -0.320754 0.719459
vn 0.616032 -0.320754 0.719459
vn 0.947605 0.240044 0.210768
vn -0.314157 -0.937743 -0.148135
vn -0.676467 0.736203 -0.019937
vn -0.553254 0.832726 0.021858
vn 0.091084 -0.992516 -0.081336
vn 0.950742 0.230121 0.207686
vn 0.176107 -0.602594 0.778375
vn 0.176107 -0.602594 0.778375
vn 0.176107 -0.602594 0.778375
vn -0.396936 -0.885524 0.241433
vn -0.396936 -0.885524 0.241433
vn -0.396936 -0.885524 0.241433
vn -0.723525 -0.358428 0.589950
vn -0.723525 -0.358428 0.589950
vn -0.723525 -0.358428 0.589950
vn -0.754180 0.076745 0.652168
vn -0.754180 0.076745 0.652168
vn -0.754180 0.076745 0.652168
vn 0.415762 -0.847562 0.329819
vn 0.415762 -0.847562 0.329819
vn 0.415762 -0.847562 0.329819
vn 0.259722 -0.332768 0.906538
vn 0.259722 -0.332768 0.906538
vn 0.259722 -0.332768 0.906538
vn -0.265045 -0.923208 0.278277
vn -0.265045 -0.923208 0.278277
vn -0.265045 -0.923208 0.278277
vn 0.645517 -0.729811 0.225129
vn 0.645517 -0.729811 0.225129
vn 0.645517 -0.729811 0.225129
vn 0.870015 -0.261288 -0.418093
vn -0.760011 -0.635788 0.134747
vn -0.098224 0.934914 0.341011
vn 0.058641 0.954556 0.292205
vn -0.482627 -0.874409 -0.049794
vn 0.865208 -0.271008 -0.421865
vn 0.242099 -0.795039 0.556148
vn 0.242099 -0.795039 0.556148
vn 0.242099 -0.795039 0.556148
vn -0.577502 -0.651028 0.492599
vn -0.577502 -0.651028 0.492599
vn -0.577502 -0.651028 0.492599
vn -0.339993 -0.142365 0.929590
vn -0.339993 -0.142365 0.929590
vn -0.339993 -0.142365 0.929590
vn -0.108012 0.230225 0.967124
vn -0.108012 0.230225 0.967124
vn -0.108012 0.230225 0.967124
vn 0.033247 -0.996857 0.071901
vn 0.033247 -0.996858 0.071901
vn 0.033247 -0.996858 0.071901
vn 0.503936 -0.631808 0.588955
vn 0.503936 -0.631808 0.588955
vn 0.503936 -0.631808 0.588955
vn -0.487917 -0.750716 0.445378
vn -0.487917 -0.750716 0.445378
vn -0.487917 -0.750716 0.445378
vn 0.976335 0.132377 -0.171017
vn -0.439791 -0.897851 0.021164
vn -0.555995 0.805732 0.204121
vn -0.413502 0.890143 0.191474
vn -0.052077 -0.996472 -0.065809
vn 0.977211 0.120234 -0.174938
vn 0.392611 -0.618251 0.680898
vn 0.392611 -0.618251 0.680898
vn 0.392611 -0.618251 0.680898
vn -0.367285 -0.834082 0.411594
vn -0.367285 -0.834082 0.411594
vn -0.367285 -0.834082 0.411594
vn -0.480112 -0.272754 0.833725
vn -0.480112 -0.272754 0.833725
vn -0.480112 -0.272754 0.833725
vn -0.438902 0.163003 0.883626
vn -0.438902 0.163003 0.883626
vn -0.438902 0.163003 0.883626
vn 0.417406 -0.889421 0.186287
vn 0.417406 -0.889421 0.186287
vn 0.417406 -0.889421 0.186287
vn 0.546598 -0.359602 0.756252
vn 0.546598 -0.359602 0.756252
vn 0.546598 -0.359602 0.756252
vn -0.235984 -0.886588 0.397836
vn -0.235984 -0.886588 0.397836
vn -0.235984 -0.886588 0.397836
g fff0ade4_00229_00382303_e11
f 22/7/22 23/8/23 24/9/24
f 25/7/25 26/8/26 27/9/27
f 28/7/28 29/8/29 30/9/30
f 52/7/52 53/8/53 54/9/54
f 55/7/55 56/8/56 57/9/57
f 58/7/58 59/8/59 60/9/60
f 79/14/79 80/15/80 81/16/81
f 82/14/82 83/15/83 84/16/84
f 85/14/85 86/15/86 87/16/87
f 106/27/106 107/28/107 108/29/108
f 109/27/109 110/28/110 111/29/111
f 112/27/112 113/28/113 114/29/114
f 133/40/133 134/41/134 135/42/135
f 136/40/136 137/41/137 138/42/138
f 139/40/139 140/41/140 141/42/141
f 163/53/163 164/54/164 165/55/165
f 166/53/166 167/54/167 168/55/168
f 169/53/169 170/54/170 171/55/171
f 193/53/193 194/54/194 195/55/195
f 196/53/196 197/54/197 198/55/198
f 199/53/199 200/54/200 201/55/201
f 220/66/220 221/67/221 222/68/222
f 223/66/223 224/67/224 225/68/225
f 226/66/226 227/67/227 228/68/228
g fff0ade4_00229_00382303_e10
f 1/7/1 2/8/2 3/9/3
f 10/7/10 11/8/11 12/9/12
f 13/7/13 14/8/14 15/9/15
f 16/7/16 17/8/17 18/9/18
f 19/7/19 20/8/20 21/9/21
f 31/7/31 32/8/32 33/9/33
f 40/7/40 41/8/41 42/9/42
f 43/7/43 44/8/44 45/9/45
f 46/7/46 47/8/47 48/9/48
f 49/7/49 50/8/50 51/9/51
f 61/14/61 62/15/62 63/16/63
f 70/14/70 71/15/71 72/16/72
f 73/14/73 74/15/74 75/16/75
f 76/14/76 77/15/77 78/16/78
f 94/27/94 95/28/95 96/29/96
f 97/27/97 98/28/98 99/29/99
f 100/27/100 101/28/101 102/29/102
f 103/27/103 104/28/104 105/29/105
f 115/40/115 116/41/116 117/42/117
f 124/40/124 125/41/125 126/42/126
f 127/40/127 128/41/128 129/42/129
f 130/40/130 131/41/131 132/42/132
f 142/53/142 143/54/143 144/55/144
f 151/53/151 152/54/152 153/55/153
f 154/53/154 155/54/155 156/55/156
f 157/53/157 158/54/158 159/55/159
f 160/53/160 161/54/161 162/55/162
f 172/53/172 173/54/173 174/55/174
f 181/53/181 182/54/182 183/55/183
f 184/53/184 185/54/185 186/55/186
f 187/53/187 188/54/188 189/55/189
f 190/53/190 191/54/191 192/55/192
f 208/66/208 209/67/209 210/68/210
f 211/66/211 212/67/212 213/68/213
f 214/66/214 215/67/215 216/68/216
f 217/66/217 218/67/218 219/68/219
g fff0ade4_00229_00382303_e12
f 8/5/8 5/2/5 6/3/6
f 4/12/4 7/11/7 6/13/6
f 7/11/7 4/12/4 9/10/9
f 7/4/7 8/5/8 6/3/6
f 8/5/8 4/1/4 5/2/5
f 9/6/9 4/1/4 8/5/8
f 38/5/38 35/2/35 36/3/36
f 34/12/34 37/11/37 36/13/36
f 37/11/37 34/12/34 39/10/39
f 37/4/37 38/5/38 36/3/36
f 38/5/38 34/1/34 35/2/35
f 39/6/39 34/1/34 38/5/38
f 68/17/68 65/18/65 66/19/66
f 64/20/64 67/21/67 66/22/66
f 67/21/67 64/20/64 69/23/69
f 67/24/67 68/17/68 66/19/66
f 68/17/68 64/25/64 65/18/65
f 69/26/69 64/25/64 68/17/68
f 92/30/92 89/31/89 90/32/90
f 88/33/88 91/34/91 90/35/90
f 91/34/91 88/33/88 93/36/93
f 91/37/91 92/30/92 90/32/90
f 92/30/92 88/38/88 89/31/89
f 93/39/93 88/38/88 92/30/92
f 122/43/122 119/44/119 120/45/120
f 118/46/118 121/47/121 120/48/120
f 121/47/121 118/46/118 123/49/123
f 121/50/121 122/43/122 120/45/120
f 122/43/122 118/51/118 119/44/119
f 123/52/123 118/51/118 122/43/122
f 149/56/149 146/57/146 147/58/147
f 145/59/145 148/60/148 147/61/147
f 148/60/148 145/59/145 150/62/150
f 148/63/148 149/56/149 147/58/147
f 149/56/149 145/64/145 146/57/146
f 150/65/150 145/64/145 149/56/149
f 179/56/179 176/57/176 177/58/177
f 175/59/175 178/60/178 177/61/177
f 178/60/178 175/59/175 180/62/180
f 178/63/178 179/56/179 177/58/177
f 179/56/179 175/64/175 176/57/176
f 180/65/180 175/64/175 179/56/179
f 206/69/206 203/70/203 204/71/204
f 202/72/202 205/73/205 204/74/204
f 205/73/205 202/72/202 207/75/207
f 205/76/205 206/69/206 204/71/204
f 206/69/206 202/77/202 203/70/203
f 207/78/207 202/77/202 206/69/206
