# fff0030f_00200_002c492a
o fff0030f_00200_002c492a
v -4.387985 -3.904869 0.013233
v -4.387985 -2.997215 0.013233
v -4.387985 -2.843773 0.013233
v -4.387924 13.225716 0.013233
v -4.387971 0.702138 0.013233
v -4.387955 5.099299 0.013233
v -4.387941 8.640354 0.013233
v -4.387985 -8.037346 0.013233
v -3.452591 -3.859642 0.013233
v -4.387985 -13.200691 0.013233
v -3.304050 -8.006319 0.013233
v -3.577822 5.044259 0.013233
v -3.460139 8.582947 0.013233
v -3.722573 0.691671 0.013233
v -3.305756 13.225197 0.013233
v -3.824188 -2.682030 0.013233
v -3.829666 -2.528587 0.013233
v -3.384096 10.869516 0.013233
v -4.387933 11.002922 0.013233
v -3.517991 6.843358 0.013233
v -4.387948 6.930281 0.013233
v -3.650892 2.847065 0.013233
v -4.387963 2.895154 0.013233
v -3.778158 -0.979760 0.013233
v -4.387978 -0.991234 0.013233
v -3.384189 -5.769162 0.013233
v -4.387985 -5.875423 0.013233
vt 0.250000 0.250000
vt 0.250000 0.250000
vt 0.250000 0.250000
vt 0.250000 0.250000
vt 0.250000 0.250000
vt 0.250000 0.250000
vt 0.250000 0.250000
vt 0.250000 0.250000
vt 0.250000 0.250000
vt 0.250000 0.250000
vt 0.250000 0.250000
vt 0.250000 0.250000
vt 0.250000 0.250000
vt 0.250000 0.250000
vt 0.250000 0.250000
vt 0.250000 0.250000
vt 0.250000 0.250000
vt 0.250000 0.250000
vt 0.250000 0.250000
vt 0.250000 0.250000
vt 0.250000 0.250000
vt 0.250000 0.250000
vt 0.250000 0.250000
vt 0.250000 0.250000
vt 0.250000 0.250000
vt 0.250000 0.250000
vt 0.250000 0.250000
vt 0.250000 0.250000
vt 0.250000 0.250000
vn 0.000000 0.000000 1.000000
vn 0.000000 0.000000 1.000000
vn 0.000000 0.000000 1.000000
vn 0.000000 0.000000 1.000000
vn 0.000000 0.000000 1.000000
vn 0.000000 0.000000 1.000000
vn 0.000000 0.000000 1.000000
vn 0.000000 0.000000 1.000000
vn 0.000000 0.000000 1.000000
vn 0.000000 0.000000 1.000000
vn 0.000000 0.000000 1.000000
vn 0.000000 0.000000 1.000000
vn 0.000000 0.000000 1.000000
vn 0.000000 0.000000 1.000000
vn 0.000000 0.000000 1.000000
vn 0.000000 0.000000 1.000000
vn 0.000000 0.000000 1.000000
vn 0.000000 0.000000 1.000000
vn 0.000000 0.000000 1.000000
vn 0.000000 0.000000 1.000000
vn 0.000000 0.000000 1.000000
vn 0.000000 0.000000 1.000000
vn 0.000000 0.000000 1.000000
vn 0.000000 0.000000 1.000000
vn 0.000000 0.000000 1.000000
vn 0.000000 0.000000 1.000000
vn 0.000000 0.000000 1.000000
g fff0030f_00200_002c492a_e1
f 3/7/3 2/3/2 17/11/17
f 16/6/16 1/2/1 9/5/9
f 17/11/17 2/3/2 16/6/16
f 2/3/2 1/2/1 16/6/16
f 27/29/27 9/4/9 1/1/1
f 15/10/15 4/9/4 19/21/19
f 24/26/24 3/7/3 17/11/17
f 20/22/20 6/15/6 12/14/12
f 6/15/6 23/25/23 12/14/12
f 5/13/5 14/17/14 22/24/22
f 5/13/5 25/27/25 14/17/14
f 18/20/18 7/18/7 13/16/13
f 7/18/7 21/23/21 13/16/13
f 11/12/11 26/28/26 8/19/8
f 10/8/10 11/12/11 8/19/8
f 19/21/19 7/18/7 18/20/18
f 15/10/15 19/21/19 18/20/18
f 21/23/21 6/15/6 20/22/20
f 21/23/21 20/22/20 13/16/13
f 5/13/5 22/24/22 23/25/23
f 23/25/23 22/24/22 12/14/12
f 25/27/25 3/7/3 24/26/24
f 25/27/25 24/26/24 14/17/14
f 26/28/26 27/29/27 8/19/8
f 26/28/26 9/4/9 27/29/27
