# fff0af20_00094_0027e68c
o fff0af20_00094_0027e68c
v -3.382494 -0.592123 -1.988432
v 8.679953 -0.597961 2.952783
v -3.382494 -0.416027 -1.988432
v 8.679953 -0.421865 2.952783
v -4.180482 -0.588213 -2.558836
v -4.180482 -0.411062 -2.558836
v -4.371119 -0.426882 -1.998699
v -4.370379 -0.592031 -1.998699
v -3.544640 -0.424436 -2.578133
v -3.544640 1.580318 -2.578133
v 8.767767 1.576015 2.403992
v -4.526677 -0.592144 -2.134301
v -4.526600 -0.416112 -2.134307
v -4.517610 -0.592122 -2.390324
v -4.517610 -0.416026 -2.390324
v -4.370226 -0.592122 -2.535752
v -4.370226 -0.416026 -2.535752
v 9.673958 -0.598014 2.408262
v 9.674134 -0.421915 2.408308
v 9.668204 -0.424613 2.940229
v 9.668167 -0.600677 2.940245
v 9.815650 -0.597977 2.776773
v 9.815650 -0.421881 2.776773
v 9.815701 -0.597937 2.550724
v 9.815701 -0.421841 2.550724
v -3.382494 -0.662877 -2.560175
v -3.382494 -0.345166 -2.560175
v -3.382494 -0.632147 -2.479014
v -3.382494 -0.375895 -2.479014
v -4.263254 -0.662877 -2.558836
v -4.263254 -0.345165 -2.558836
v -4.189009 -0.375894 -2.489281
v -4.189009 -0.632147 -2.489281
v 8.679589 -0.668715 2.382838
v 8.679589 -0.351004 2.382838
v 8.679589 -0.637986 2.464000
v 8.679589 -0.381733 2.464000
v 9.561257 -0.668715 2.381762
v 9.561257 -0.351004 2.382838
v 9.484377 -0.637986 2.464000
v 9.484377 -0.381733 2.464000
v -3.382494 -0.416027 -2.040722
v -4.346754 -0.426471 -2.047417
v -4.479654 -0.415951 -2.156260
v -4.471183 -0.415972 -2.371916
v -4.361807 -0.416026 -2.488189
v 8.679937 -0.422069 2.902219
v 9.649232 -0.424629 2.899311
v 9.776320 -0.421796 2.755352
v 9.774677 -0.421947 2.564955
v 9.652067 -0.421945 2.449080
v 9.445174 -0.424635 2.440242
v 8.768132 -0.420692 2.401765
v -3.382494 -0.592240 -2.040722
v -4.345941 -0.591803 -2.047417
v -4.479655 -0.592052 -2.156260
v -4.471183 -0.592185 -2.371916
v -4.361807 -0.592239 -2.488189
v -4.180482 -0.588330 -2.506891
v 8.679937 -0.598282 2.902219
v 9.649209 -0.600709 2.899320
v 9.776256 -0.598196 2.755352
v 9.774612 -0.597980 2.564955
v 9.652363 -0.598170 2.449157
v 9.445174 -0.600848 2.440242
v 8.679956 -0.501132 2.932140
v 9.659422 -0.503725 2.921566
v 8.679941 -0.501336 2.420510
v 9.635891 -0.502983 2.429285
v 9.793579 -0.500550 2.765158
v 9.804985 -0.501240 2.557098
v -3.382494 -0.495294 -2.013586
v -3.382494 -0.495498 -2.525217
v -4.385159 -0.504933 -2.045702
v -4.299902 -0.496525 -2.525217
v -4.486179 -0.494902 -2.399366
v -4.497102 -0.494772 -2.152030
v -3.418843 -0.483471 -2.006774
v -3.356764 -0.483471 -2.006774
v -3.418844 -0.483471 -2.488046
v -3.356764 -0.483471 -2.488046
v -3.418843 -0.536094 -2.006774
v -3.356764 -0.536094 -2.006774
v -3.418844 -0.536094 -2.488046
v -3.356764 -0.536094 -2.488046
v -3.382494 -0.592123 -1.988432
v 8.679953 -0.597961 2.952783
v -3.382494 -0.416027 -1.988432
v 8.679953 -0.421865 2.952783
v -4.180482 -0.588213 -2.558836
v -4.180482 -0.411062 -2.558836
v 9.445137 -0.425107 2.394681
v -3.382494 -0.416027 -2.040722
v -4.180482 -0.412117 -2.506891
v 8.679937 -0.422069 2.902219
v 9.445137 -0.601320 2.394681
v -3.382494 -0.592240 -2.040722
v -4.180482 -0.588330 -2.506891
v 8.679937 -0.598282 2.902219
v -3.382494 -0.632147 -2.479014
v -3.382494 -0.375895 -2.479014
v -4.189009 -0.375894 -2.489281
v -4.189009 -0.632147 -2.489281
v 8.679589 -0.637986 2.464000
v 8.679589 -0.381733 2.464000
v -4.263254 -0.662877 -2.558836
v -4.263254 -0.345165 -2.558836
v -4.189009 -0.375894 -2.489281
v -4.189009 -0.632147 -2.489281
v -4.180482 -0.412117 -2.506891
v 8.647215 -0.489309 2.917717
v 8.709293 -0.489309 2.917717
v 8.647213 -0.489309 2.436444
v 8.709293 -0.489309 2.436444
v 8.647215 -0.541933 2.917717
v 8.709293 -0.541933 2.917717
v 8.647213 -0.541933 2.436444
v 8.709293 -0.541933 2.436444
v -3.544640 1.111596 -2.578133
v 8.767858 1.109484 2.403439
v 8.768063 -0.033137 2.402187
v -3.544640 -0.031026 -2.578133
v -3.460079 -0.427333 -2.524420
v -3.460079 1.531019 -2.524420
v -3.460079 1.184729 -2.524420
v -3.460079 -0.061174 -2.524420
v -3.382620 -0.426375 -2.561797
v -3.382620 1.539276 -2.561797
v -3.382620 1.185684 -2.561797
v -3.382620 -0.060219 -2.561797
v -3.813284 -0.365367 -2.524420
v -3.813284 1.476874 -2.524420
v -3.813284 1.185677 -2.524420
v -3.813284 -0.060226 -2.524420
v -3.813284 -0.432474 -2.559506
v -3.813284 1.544388 -2.559506
v -3.813284 -0.426385 -2.524420
v -3.813284 1.532039 -2.524420
v -4.800589 -0.370763 -2.524420
v -4.800589 1.471516 -2.524420
v -4.800589 1.179932 -2.524420
v -4.800589 -0.065971 -2.524420
v -4.837210 -0.438219 -2.559506
v -4.837210 1.538643 -2.559506
v -4.837210 1.179933 -2.559506
v -4.837210 -0.065970 -2.559506
v -3.959646 1.287144 -2.510983
v -3.959646 -0.160867 -2.510983
v -4.654227 1.280467 -2.510983
v -4.654227 -0.167544 -2.510983
v 8.731415 1.526022 2.412143
v 8.731522 -0.432221 2.412143
v 8.731549 -0.085905 2.412143
v 8.731501 1.159949 2.412143
v 8.653978 1.525086 2.374766
v 8.654118 -0.440428 2.374766
v 8.654112 -0.086841 2.374766
v 8.654064 1.159012 2.374766
v 9.084763 1.464195 2.412143
v 9.084709 -0.378094 2.412143
v 9.084714 -0.086895 2.412143
v 9.084666 1.158958 2.412143
v 9.084634 1.531181 2.377057
v 9.084692 -0.445624 2.377057
v 9.084752 1.525204 2.412143
v 9.084724 -0.433250 2.412143
v 10.072033 1.469558 2.412143
v 10.072000 -0.372753 2.412143
v 10.071983 -0.081187 2.412143
v 10.071936 1.164665 2.412143
v 10.108685 1.537050 2.377057
v 10.108572 -0.439928 2.377057
v 10.108593 -0.081199 2.377057
v 10.108544 1.164654 2.377057
v 9.230993 -0.188445 2.425580
v 9.231038 1.259609 2.425580
v 9.925731 -0.181612 2.425580
v 9.925602 1.266269 2.425580
v -4.371119 -0.426882 -1.998699
v -4.370379 -0.592031 -1.998699
v -4.526677 -0.592144 -2.134301
v -4.526600 -0.416112 -2.134307
v -4.517610 -0.592122 -2.390324
v -4.517610 -0.416026 -2.390324
v -4.370226 -0.592122 -2.535752
v -4.370226 -0.416026 -2.535752
v -4.346754 -0.426471 -2.047417
v -4.479654 -0.415951 -2.156260
v -4.471183 -0.415972 -2.371916
v -4.361807 -0.416026 -2.488189
v -4.345941 -0.591803 -2.047417
v -4.479655 -0.592052 -2.156260
v -4.471183 -0.592185 -2.371916
v -4.361807 -0.592239 -2.488189
v -3.418843 -0.483471 -2.006774
v -3.356764 -0.483471 -2.006774
v -3.418844 -0.483471 -2.488046
v -3.356764 -0.483471 -2.488046
v -3.418843 -0.536094 -2.006774
v -3.356764 -0.536094 -2.006774
v -3.418844 -0.536094 -2.488046
v -3.356764 -0.536094 -2.488046
v 8.647215 -0.489309 2.917717
v 8.709293 -0.489309 2.917717
v 8.647213 -0.489309 2.436444
v 8.709293 -0.489309 2.436444
v 8.647215 -0.541933 2.917717
v 8.709293 -0.541933 2.917717
v 8.647213 -0.541933 2.436444
v 8.709293 -0.541933 2.436444
v 9.673958 -0.598014 2.408262
v 9.674134 -0.421915 2.408308
v 9.668204 -0.424613 2.940229
v 9.668167 -0.600677 2.940245
v 9.815650 -0.597977 2.776773
v 9.815650 -0.421881 2.776773
v 9.815701 -0.597937 2.550724
v 9.815701 -0.421841 2.550724
v 9.649232 -0.424629 2.899311
v 9.776320 -0.421796 2.755352
v 9.774677 -0.421947 2.564955
v 9.652067 -0.421945 2.449080
v 9.445174 -0.424635 2.440242
v 9.649209 -0.600709 2.899320
v 9.776256 -0.598196 2.755352
v 9.774612 -0.597980 2.564955
v 9.652363 -0.598170 2.449157
v 9.445174 -0.600848 2.440242
v -3.442823 1.529273 -1.988432
v 8.619624 1.523434 2.952783
v -3.442823 1.705368 -1.988432
v 8.619624 1.699530 2.952783
v -4.240812 1.533182 -2.558836
v -4.240812 1.710333 -2.558836
v -4.431449 1.694513 -1.998699
v -4.430709 1.529364 -1.998699
v -4.587007 1.529252 -2.134301
v -4.586930 1.705283 -2.134307
v -4.577939 1.529273 -2.390324
v -4.577939 1.705369 -2.390324
v -4.430555 1.529273 -2.535752
v -4.430555 1.705369 -2.535752
v 9.613629 1.523381 2.408262
v 9.613806 1.699480 2.408308
v 9.607876 1.696782 2.940229
v 9.607839 1.520718 2.940245
v 9.755322 1.523418 2.776773
v 9.755322 1.699514 2.776773
v 9.755372 1.523458 2.550724
v 9.755372 1.699554 2.550724
v -3.442823 1.458519 -2.560175
v -3.442823 1.776229 -2.560175
v -3.442823 1.489248 -2.479014
v -3.442823 1.745500 -2.479014
v -4.323584 1.458519 -2.558836
v -4.323584 1.776230 -2.558836
v -4.249338 1.745501 -2.489281
v -4.249338 1.489248 -2.489281
v 8.619261 1.452680 2.382838
v 8.619261 1.770391 2.382838
v 8.619261 1.483410 2.464000
v 8.619261 1.739662 2.464000
v 9.500929 1.452680 2.381762
v 9.500929 1.770391 2.382838
v 9.424048 1.483409 2.464000
v 9.424048 1.739662 2.464000
v -3.442823 1.705368 -2.040722
v -4.407084 1.694924 -2.047417
v -4.539984 1.705444 -2.156260
v -4.531512 1.705423 -2.371916
v -4.422136 1.705369 -2.488189
v 8.619609 1.699326 2.902219
v 9.588903 1.696766 2.899311
v 9.715992 1.699599 2.755352
v 9.714349 1.699448 2.564955
v 9.591739 1.699450 2.449080
v 9.384846 1.696760 2.440242
v -3.442823 1.529155 -2.040722
v -4.406270 1.529592 -2.047417
v -4.539985 1.529343 -2.156260
v -4.531512 1.529210 -2.371916
v -4.422136 1.529156 -2.488189
v -4.240812 1.533065 -2.506891
v 8.619609 1.523113 2.902219
v 9.588881 1.520686 2.899320
v 9.715927 1.523199 2.755352
v 9.714284 1.523415 2.564955
v 9.592034 1.523225 2.449157
v 9.384846 1.520547 2.440242
v 8.619628 1.620263 2.932140
v 9.599093 1.617670 2.921566
v 8.619613 1.620059 2.420510
v 9.575562 1.618413 2.429285
v 9.733251 1.620845 2.765158
v 9.744657 1.620155 2.557098
v -3.442823 1.626101 -2.013586
v -3.442823 1.625897 -2.525217
v -4.445489 1.616463 -2.045702
v -4.360231 1.624871 -2.525217
v -4.546509 1.626494 -2.399366
v -4.557431 1.626623 -2.152030
v -3.479172 1.637925 -2.006774
v -3.417094 1.637925 -2.006774
v -3.479174 1.637925 -2.488046
v -3.417094 1.637925 -2.488046
v -3.479172 1.585301 -2.006774
v -3.417094 1.585301 -2.006774
v -3.479174 1.585301 -2.488046
v -3.417094 1.585301 -2.488046
v -3.442823 1.529273 -1.988432
v 8.619624 1.523434 2.952783
v -3.442823 1.705368 -1.988432
v 8.619624 1.699530 2.952783
v -4.240812 1.533182 -2.558836
v -4.240812 1.710333 -2.558836
v 9.384809 1.696288 2.394681
v -3.442823 1.705368 -2.040722
v -4.240812 1.709278 -2.506891
v 8.619609 1.699326 2.902219
v 9.384809 1.520075 2.394681
v -3.442823 1.529155 -2.040722
v -4.240812 1.533065 -2.506891
v 8.619609 1.523113 2.902219
v -3.442823 1.489248 -2.479014
v -3.442823 1.745500 -2.479014
v -4.249338 1.745501 -2.489281
v -4.249338 1.489248 -2.489281
v 8.619261 1.483410 2.464000
v 8.619261 1.739662 2.464000
v -4.323584 1.458519 -2.558836
v -4.323584 1.776230 -2.558836
v -4.249338 1.745501 -2.489281
v -4.249338 1.489248 -2.489281
v -4.240812 1.709278 -2.506891
v 8.586886 1.632086 2.917717
v 8.648965 1.632086 2.917717
v 8.586884 1.632086 2.436444
v 8.648965 1.632086 2.436444
v 8.586886 1.579463 2.917717
v 8.648965 1.579463 2.917717
v 8.586884 1.579463 2.436444
v 8.648965 1.579463 2.436444
v -4.431449 1.694513 -1.998699
v -4.430709 1.529364 -1.998699
v -4.587007 1.529252 -2.134301
v -4.586930 1.705283 -2.134307
v -4.577939 1.529273 -2.390324
v -4.577939 1.705369 -2.390324
v -4.430555 1.529273 -2.535752
v -4.430555 1.705369 -2.535752
v -4.407084 1.694924 -2.047417
v -4.539984 1.705444 -2.156260
v -4.531512 1.705423 -2.371916
v -4.422136 1.705369 -2.488189
v -4.406270 1.529592 -2.047417
v -4.539985 1.529343 -2.156260
v -4.531512 1.529210 -2.371916
v -4.422136 1.529156 -2.488189
v -3.479172 1.637925 -2.006774
v -3.417094 1.637925 -2.006774
v -3.479174 1.637925 -2.488046
v -3.417094 1.637925 -2.488046
v -3.479172 1.585301 -2.006774
v -3.417094 1.585301 -2.006774
v -3.479174 1.585301 -2.488046
v -3.417094 1.585301 -2.488046
v 8.586886 1.632086 2.917717
v 8.648965 1.632086 2.917717
v 8.586884 1.632086 2.436444
v 8.648965 1.632086 2.436444
v 8.586886 1.579463 2.917717
v 8.648965 1.579463 2.917717
v 8.586884 1.579463 2.436444
v 8.648965 1.579463 2.436444
v 9.613629 1.523381 2.408262
v 9.613806 1.699480 2.408308
v 9.607876 1.696782 2.940229
v 9.607839 1.520718 2.940245
v 9.755322 1.523418 2.776773
v 9.755322 1.699514 2.776773
v 9.755372 1.523458 2.550724
v 9.755372 1.699554 2.550724
v 9.588903 1.696766 2.899311
v 9.715992 1.699599 2.755352
v 9.714349 1.699448 2.564955
v 9.591739 1.699450 2.449080
v 9.384846 1.696760 2.440242
v 9.588881 1.520686 2.899320
v 9.715927 1.523199 2.755352
v 9.714284 1.523415 2.564955
v 9.592034 1.523225 2.449157
v 9.384846 1.520547 2.440242
vt 0.036839 1.144179
vt 1.023955 1.144179
vt 1.023953 1.281766
vt 0.036840 1.281766
vt 1.034191 1.154949
vt 0.047077 1.154949
vt 1.017099 0.036132
vt 0.029984 0.036132
vt 1.017097 0.027534
vt 0.029984 0.027534
vt 0.983770 0.052147
vt -0.003351 0.052147
vt -9694761287835854296842240.000000 -84638309524994869166080.000000
vt -11706656583156491150688256.000000 -102202798431702540615680.000000
vt 0.040680 -0.157167
vt -9788498417846409383378944.000000 -85456676627682871476224.000000
vt 8551217646747479414145024.000000 74654810935833246302208.000000
vt 0.250917 0.459320
vt 9815642801750872988581888.000000 85693638025676597493760.000000
vt 8123740870033866512924672.000000 70922804025420882640896.000000
vt 0.040680 0.093680
vt 0.040680 0.062570
vt 0.062570 0.365570
vt 0.093680 0.365570
vt -5.326903 -24.612728
vt -3.089421 31.379333
vt -5.336583 31.379333
vt 4.290187 31.379333
vt 2.327424 -24.610825
vt 4.285628 -24.608587
vt 2.349164 31.379333
vt -3.098151 -24.612276
vt 522.931519 0.577264
vt 27229.369141 0.577264
vt 22328.501953 0.577264
vt -83852.609375 0.577264
vt 8.583496 8.096527
vt -9.591567 -3.285545
vt -9.599655 -3.300140
vt 21786.318359 0.577264
vt 26674.416016 0.577264
vt 12689.667969 0.577264
vt 23057.191406 0.577264
vt 46102.718750 0.577264
vt 1243.726074 0.577264
vt -85795.460938 0.577264
vt 153.289276 0.577264
vt 11483.723633 0.577264
vt 26738.931641 0.577264
vt -3688.265625 0.577264
vt -3704.136230 0.577264
vt 15243.817383 0.577264
vt 0.239339 0.114567
vt 0.242104 0.060552
vt 0.242663 0.113850
vt 3189.291992 0.577264
vt 11604.572266 0.577264
vt 375.106445 0.577264
vt 0.239065 0.059997
vt -5956.557129 0.577264
vt -86023.898438 0.577264
vt 274789608456192.000000 2397136224256.000000
vt 6843619344384.000000 57326198784.000000
vt 6840107663360.000000 57296785408.000000
vt -2.382881 -26.489006
vt 280026415104000.000000 2442871439360.000000
vt 96185792593920.000000 839823392768.000000
vt 145169206738944.000000 1267391266816.000000
vt 101908148649984.000000 889693798400.000000
vt 13317635949199360.000000 116267683938304.000000
vt 0.257255 0.114397
vt 0.254015 0.114072
vt 0.255306 0.057920
vt 0.259050 0.059039
vt 274638965833728.000000 2395874263040.000000
vt 6843652374528.000000 57326477312.000000
vt -1.640229 0.473135
vt -1.287907 0.473136
vt -1.287907 0.518582
vt -1.640229 0.518580
vt 0.427839 0.594723
vt 0.382393 0.242400
vt 0.427837 0.242400
vt 0.382392 0.594723
vt 0.998795 -0.562831
vt 0.998795 -0.210508
vt 0.953348 -0.562831
vt 0.953349 -0.210508
vt 0.734970 0.250872
vt 1.087292 0.250873
vt 1.087292 0.296318
vt 0.734970 0.296318
vt 0.036840 1.231954
vt 1.023301 1.155061
vt 1.023300 1.231954
vt 1.020120 0.029371
vt 0.042492 0.029371
vt 1.028952 0.038705
vt 0.036839 1.322179
vt 1.023296 1.322179
vt -0.000007 0.045595
vt 0.986454 0.045595
vt -0.000007 0.040901
vt 0.061603 0.012749
vt 0.985530 0.012976
vt 0.986298 0.058885
vt 0.000000 -0.023298
vt 0.986462 0.040901
vt 0.036859 1.561901
vt 0.000483 -0.020843
vt 0.986462 -0.023298
vt 0.002823 -0.052748
vt 0.983586 -0.020843
vt 0.036467 1.561867
vt 1.023296 1.221049
vt -0.000161 0.060228
vt 0.062459 -0.044979
vt 0.989232 -0.052748
vt 0.036838 0.976303
vt 1.023299 0.978471
vt 0.042493 0.038705
vt 0.036838 0.764265
vt 1.023300 0.768959
vt 0.036839 0.934791
vt 1.023298 0.942956
vt 1.023298 1.177226
vt 0.036843 1.120514
vt 478361759952970509713408.000000 4176249577480560574464.000000
vt 0.152274 0.871870
vt 0.184844 0.877613
vt -31510622157932232240529408.000000 -275097717508712792326144.000000
vt 11215997402147413821489152.000000 97919190638929838604288.000000
vt 80018800640.000000 670184192.000000
vt 90791378944.000000 760441856.000000
vt 59347140608.000000 497000640.000000
vt 24096948224.000000 201676800.000000
vt 30963531776.000000 259204928.000000
vt 76495937536.000000 640672896.000000
vt 0.142065 0.927918
vt -38094782464.000000 -238844640.000000
vt -38094782464.000000 -238844640.000000
vt -25080928256.000000 -157449072.000000
vt -25080659968.000000 -157446896.000000
vt -24573206528.000000 -154272976.000000
vt -24573478912.000000 -154275200.000000
vt -24573487104.000000 -154275232.000000
vt -24573200384.000000 -154272944.000000
vt 0.983760 0.048269
vt -0.003352 0.048269
vt 0.980287 -0.015702
vt -0.006826 -0.015702
vt 0.036839 0.997932
vt 1.023952 0.996211
vt 1.023952 0.997932
vt 0.036839 0.996211
vt -65788399616.000000 -460733984.000000
vt -48659845120.000000 -340777760.000000
vt -60840935424.000000 -426085440.000000
vt -174762459136.000000 -1223908864.000000
vt 3265736474624.000000 22870845440.000000
vt 1971418368.000000 13808322.000000
vt 49799573504.000000 348762400.000000
vt 423399489536.000000 3547092992.000000
vt 414074241024.000000 3468964096.000000
vt 414074241024.000000 3468964096.000000
vt 423405420544.000000 3547144448.000000
vt 2501159977746432.000000 21836022677504.000000
vt 12846475889344512.000000 112154288062464.000000
vt 1.024826 -0.025299
vt 1.027181 -0.029686
vt 0.143322 -0.023088
vt -0.363895 -0.048151
vt 5938.002930 -1585.673340
vt -4389.730957 -44039.492188
vt -80.285027 -782.082825
vt 105.415413 -13.972212
vt 1.023954 1.231714
vt 1.025099 1.154820
vt 0.036840 1.231714
vt 0.037985 1.120262
vt 0.980150 -0.013991
vt -0.000157 -0.013991
vt 0.036839 1.025825
vt 1.023952 1.025825
vt 0.036839 0.720264
vt 1.023952 0.720264
vt 0.036834 0.822313
vt 1.023952 0.822313
vt 3706944487424.000000 25960763392.000000
vt -351.070435 22800.625000
vt -438.492432 18731.539062
vt -361.421204 24655.871094
vt 4.613331 1.003126
vt -1.334466 1.879891
vt -1.334467 1.014348
vt 4.613332 1.868668
vt -2.967701 1.880620
vt -2.952862 1.014348
vt 6.324229 1.003127
vt 6.324229 1.868667
vt 6.401932 0.858862
vt 4.691049 0.858863
vt 4.689326 0.934837
vt 6.400220 0.934837
vt -2.895945 0.870086
vt -1.258915 0.946061
vt -1.257193 0.870086
vt 0.821689 0.457054
vt 0.269692 0.457054
vt 0.272238 0.208067
vt 0.824234 0.208066
vt 0.821689 0.457054
vt 0.950876 0.454306
vt 0.821689 0.457054
vt 0.953250 0.208066
vt 0.950876 0.454306
vt 0.137046 0.208066
vt 0.269692 0.457054
vt 0.269692 0.457054
vt 0.134655 0.457082
vt 0.137046 0.208067
vt -0.966994 0.789380
vt -0.931812 0.835200
vt -0.962827 0.843201
vt -0.955405 0.677654
vt -0.923653 0.427956
vt -0.960716 0.431186
vt -0.927882 0.894478
vt -0.960017 1.184106
vt -0.930131 1.174911
vt -0.955569 0.608070
vt -0.933209 0.348980
vt -0.960550 0.099964
vt -0.931360 0.100601
vt -0.933750 0.349617
vt -0.944543 0.626007
vt -0.939783 0.745993
vt -0.908986 0.725234
vt -0.956614 0.731199
vt 1.037840 0.924086
vt 0.057199 0.929411
vt 0.048597 -0.055510
vt 0.048597 -0.055510
vt 1.029238 -0.060835
vt 1.037840 0.924086
vn -0.198295 -0.000002 0.980142
vn -0.186733 0.000005 0.982411
vn -0.198894 0.000000 0.980021
vn -0.187141 0.000000 0.982333
vn -0.120772 0.000000 -0.992680
vn -0.120772 0.000000 -0.992680
vn -0.360421 -0.000825 0.932789
vn -0.353804 -0.001586 0.935318
vn -0.374944 0.000000 0.927047
vn -0.375060 -0.000026 0.927000
vn -0.375098 -0.001172 0.926984
vn -0.917304 -0.000362 0.398187
vn -0.920634 0.000320 0.390428
vn -0.915665 0.000089 -0.401942
vn -0.915667 0.000000 -0.401938
vn -0.436882 0.000000 -0.899519
vn -0.432349 0.000000 -0.901706
vn 0.709070 -0.000285 -0.705138
vn 0.709219 -0.000526 -0.704988
vn 0.413358 0.000013 0.910569
vn 0.410808 -0.000003 0.911722
vn 0.932826 -0.000022 0.360326
vn 0.933931 0.000000 0.357454
vn 0.924395 0.000000 -0.381436
vn 0.924456 -0.000130 -0.381290
vn -0.065194 -0.932577 0.355035
vn -0.064798 0.932602 0.355041
vn -0.081949 -0.932065 0.352900
vn -0.081465 0.932104 0.352911
vn 0.000614 -0.914950 0.403568
vn 0.000614 0.914952 0.403563
vn 0.000381 0.915931 0.401335
vn 0.000380 -0.915929 0.401339
vn -0.079634 -0.932285 0.352851
vn -0.079191 0.932275 0.352976
vn -0.062792 -0.933366 0.353392
vn -0.062397 0.933390 0.353398
vn 0.552947 -0.464178 0.691945
vn 0.551863 0.458720 0.696436
vn 0.303613 -0.484839 0.820214
vn 0.301512 0.483246 0.821927
vn 0.197264 0.000000 -0.980350
vn 0.345073 0.000843 -0.938575
vn 0.916003 -0.000002 -0.401172
vn 0.922225 -0.000001 0.386653
vn 0.441152 0.000000 0.897433
vn 0.191952 0.000000 -0.981404
vn -0.414221 0.000065 -0.910176
vn -0.937451 0.000345 -0.348116
vn -0.916836 0.000034 0.399263
vn -0.390503 -0.000339 0.920602
vn -0.042677 0.000000 0.999089
vn -0.374973 -0.001058 0.927035
vn 0.196692 0.000002 -0.980465
vn 0.337456 0.001659 -0.941340
vn 0.911834 0.000844 -0.410559
vn 0.922161 0.000000 0.386806
vn 0.445638 0.000000 0.895213
vn 0.102597 0.000000 0.994723
vn 0.191576 -0.000003 -0.981478
vn -0.411240 0.000007 -0.911527
vn -0.936244 0.000290 -0.351350
vn -0.916882 0.000338 0.399158
vn -0.388585 0.000049 0.921413
vn -0.042819 0.000164 0.999083
vn 0.000123 1.000000 0.000768
vn 0.002892 0.999736 0.022774
vn 0.000225 0.999999 -0.001044
vn 0.001870 0.999868 -0.016108
vn 0.000892 0.999989 0.004701
vn 0.000693 0.999979 -0.006414
vn 0.000226 0.999997 0.002468
vn 0.000494 0.999999 -0.000982
vn -0.013037 0.993988 0.108708
vn -0.001119 0.999894 -0.014549
vn 0.000164 0.999994 -0.003536
vn -0.003261 0.999544 0.030019
vn -1.000000 0.000000 0.000003
vn 1.000000 0.000000 0.000000
vn -1.000000 0.000000 0.000003
vn 1.000000 0.000000 0.000000
vn -1.000000 0.000000 0.000003
vn 1.000000 0.000000 0.000000
vn -1.000000 0.000000 0.000003
vn 1.000000 0.000000 0.000000
vn -0.000831 -0.999997 0.002238
vn -0.002853 -0.999976 0.006343
vn -0.004598 0.999989 0.000000
vn 0.002479 0.999989 -0.004029
vn 0.021071 -0.999774 -0.002890
vn -0.020518 0.999635 0.017584
vn -0.012685 0.999871 -0.009869
vn -0.006066 0.999982 0.000049
vn -0.019455 0.999604 0.020309
vn 0.002409 0.999989 -0.004006
vn 0.012705 -0.999874 0.009487
vn -0.000674 -0.999998 0.002115
vn 0.021322 -0.999770 -0.002247
vn -0.002907 -0.999976 0.006297
vn -0.199506 0.000000 0.979897
vn -0.199453 0.000000 0.979907
vn -0.012729 0.000000 0.999919
vn -0.012729 0.000000 0.999919
vn -0.193211 0.000000 0.981157
vn -0.193266 0.000000 0.981146
vn -0.683680 0.000000 0.729782
vn -0.683680 0.000000 0.729782
vn -0.683680 0.000000 0.729782
vn -0.683680 0.000000 0.729782
vn 0.102597 0.000000 0.994723
vn -1.000000 0.000000 0.000004
vn 1.000000 0.000000 0.000000
vn -1.000000 0.000000 0.000004
vn 1.000000 0.000000 0.000000
vn -1.000000 0.000000 0.000004
vn 1.000000 0.000000 0.000000
vn -1.000000 0.000000 0.000004
vn 1.000000 0.000000 0.000000
vn -0.375019 -0.000030 0.927017
vn -0.375078 -0.001114 0.926993
vn -0.375014 -0.001051 0.927019
vn -0.374959 -0.000010 0.927041
vn 0.222301 0.000000 0.974978
vn 0.229285 0.000000 0.973359
vn 0.222904 0.000000 0.974840
vn 0.222904 0.000000 0.974840
vn 0.434592 0.000000 0.900628
vn 0.434592 0.000000 0.900628
vn 0.434592 0.000000 0.900628
vn 0.434592 0.000000 0.900628
vn 0.001300 -0.237769 0.971321
vn -0.001334 0.238150 0.971228
vn 0.000000 0.000000 1.000000
vn 0.000000 0.000000 1.000000
vn 0.002535 -0.463291 0.886203
vn -0.002587 0.461134 0.887327
vn 0.000000 0.000000 1.000000
vn 0.000000 0.000000 1.000000
vn -0.311827 -0.169568 0.934885
vn -0.313160 0.168601 0.934614
vn -0.372775 0.000000 0.927922
vn -0.372775 0.000000 0.927922
vn -0.275718 -0.321493 0.905882
vn -0.278273 0.321258 0.905184
vn -0.691812 0.000000 0.722077
vn -0.691812 0.000000 0.722077
vn -0.000000 0.000000 1.000000
vn -0.000000 0.000000 1.000000
vn -0.000000 0.000000 1.000000
vn -0.000000 0.000000 1.000000
vn -0.222381 -0.000052 0.974960
vn -0.229401 0.000018 0.973332
vn -0.222957 -0.000005 0.974828
vn -0.222948 -0.000031 0.974831
vn -0.434696 -0.000102 0.900577
vn -0.434823 0.000028 0.900516
vn -0.434693 -0.000012 0.900579
vn -0.434696 -0.000059 0.900577
vn -0.001294 0.238238 0.971206
vn 0.001323 -0.238115 0.971236
vn 0.000000 0.000000 1.000000
vn 0.000000 0.000000 1.000000
vn -0.002527 0.463907 0.885880
vn 0.002565 -0.461050 0.887370
vn 0.000000 0.000000 1.000000
vn 0.000000 0.000000 1.000000
vn 0.311818 0.169411 0.934917
vn 0.313465 -0.168479 0.934534
vn 0.372846 0.000018 0.927893
vn 0.372817 -0.000052 0.927905
vn 0.275620 0.321305 0.905978
vn 0.278171 -0.321303 0.905199
vn 0.691943 0.000028 0.721952
vn 0.691925 -0.000099 0.721969
vn 0.000000 0.000000 1.000000
vn 0.000000 0.000000 1.000000
vn 0.000000 0.000000 1.000000
vn 0.000000 0.000000 1.000000
vn 0.018313 0.999678 0.017537
vn 0.001621 -0.999992 -0.003715
vn 0.002095 -0.999998 -0.000389
vn 0.013932 0.999484 0.028926
vn -0.001149 -0.999999 -0.000184
vn -0.001030 0.999999 -0.000489
vn 0.011331 -0.999926 -0.004459
vn -0.015634 0.999874 0.002769
vn 0.013430 0.999752 0.017777
vn 0.011593 0.999424 0.031895
vn -0.000904 0.999999 -0.000643
vn -0.010533 0.999940 0.002958
vn 0.001251 -0.999992 -0.003827
vn 0.001755 -0.999998 -0.000011
vn -0.001343 -0.999999 -0.000023
vn 0.007452 -0.999967 -0.003385
vn 0.000000 1.000000 0.000000
vn 0.000000 1.000000 0.000000
vn 0.000000 1.000000 0.000000
vn 0.000000 1.000000 0.000000
vn -0.000001 -1.000000 0.000000
vn -0.000001 -1.000000 0.000000
vn -0.000001 -1.000000 0.000000
vn -0.000001 -1.000000 0.000000
vn 0.000000 1.000000 0.000000
vn 0.000000 1.000000 0.000000
vn 0.000000 1.000000 0.000000
vn 0.000000 1.000000 0.000000
vn -0.000001 -1.000000 0.000000
vn -0.000001 -1.000000 0.000000
vn -0.000001 -1.000000 0.000000
vn -0.000001 -1.000000 0.000000
vn 0.008337 -0.999965 0.000843
vn -0.006746 0.999973 -0.002752
vn -0.005005 0.999986 0.001875
vn 0.005146 -0.999986 -0.001493
vn 0.008366 -0.999955 -0.004495
vn -0.002866 0.999969 0.007388
vn 0.001181 -0.999999 -0.000697
vn -0.002077 0.999998 0.000398
vn -0.004552 0.999987 0.002373
vn -0.001837 0.999975 0.006795
vn -0.002338 0.999997 0.000359
vn -0.007268 0.999968 -0.003440
vn -0.012555 0.999868 -0.010361
vn 0.004923 -0.999986 -0.001730
vn 0.007488 -0.999964 -0.004076
vn 0.000944 -0.999999 -0.000840
vn 0.008978 -0.999959 0.001343
vn 0.012476 -0.999869 0.010360
vn -0.198295 -0.000002 0.980142
vn -0.186733 0.000005 0.982411
vn -0.198894 0.000000 0.980021
vn -0.187141 0.000000 0.982333
vn -0.120772 0.000000 -0.992680
vn -0.120772 0.000000 -0.992680
vn -0.360420 -0.000824 0.932790
vn -0.353805 -0.001585 0.935318
vn -0.917304 -0.000361 0.398187
vn -0.920634 0.000320 0.390427
vn -0.915665 0.000089 -0.401942
vn -0.915666 0.000000 -0.401939
vn -0.436882 0.000000 -0.899519
vn -0.432349 0.000000 -0.901706
vn 0.709070 -0.000285 -0.705138
vn 0.709219 -0.000526 -0.704988
vn 0.413358 0.000013 0.910569
vn 0.410808 -0.000003 0.911722
vn 0.932826 -0.000022 0.360326
vn 0.933931 0.000000 0.357454
vn 0.924395 0.000000 -0.381436
vn 0.924456 -0.000130 -0.381290
vn -0.065194 -0.932577 0.355036
vn -0.064798 0.932603 0.355039
vn -0.081949 -0.932065 0.352901
vn -0.081464 0.932104 0.352909
vn 0.000614 -0.914949 0.403568
vn 0.000614 0.914953 0.403561
vn 0.000381 0.915932 0.401333
vn 0.000380 -0.915929 0.401340
vn -0.079634 -0.932285 0.352851
vn -0.079191 0.932275 0.352976
vn -0.062792 -0.933366 0.353392
vn -0.062397 0.933390 0.353398
vn 0.552948 -0.464178 0.691944
vn 0.551863 0.458720 0.696436
vn 0.303613 -0.484839 0.820213
vn 0.301512 0.483246 0.821926
vn 0.197264 0.000000 -0.980350
vn 0.345074 0.000843 -0.938575
vn 0.916003 -0.000005 -0.401172
vn 0.922225 -0.000001 0.386654
vn 0.441152 0.000000 0.897432
vn 0.191952 0.000000 -0.981404
vn -0.414221 0.000065 -0.910176
vn -0.937451 0.000345 -0.348116
vn -0.916836 0.000034 0.399263
vn -0.390503 -0.000339 0.920602
vn -0.042677 0.000000 0.999089
vn 0.196692 0.000002 -0.980465
vn 0.337455 0.001660 -0.941340
vn 0.911834 0.000843 -0.410558
vn 0.922160 0.000000 0.386807
vn 0.445638 0.000000 0.895213
vn 0.102597 0.000000 0.994723
vn 0.191576 -0.000003 -0.981478
vn -0.411241 0.000007 -0.911527
vn -0.936244 0.000290 -0.351350
vn -0.916882 0.000338 0.399158
vn -0.388585 0.000049 0.921413
vn -0.042819 0.000164 0.999083
vn 0.000123 1.000000 0.000768
vn 0.002892 0.999736 0.022774
vn 0.000225 0.999999 -0.001044
vn 0.001870 0.999868 -0.016108
vn 0.000892 0.999989 0.004701
vn 0.000693 0.999979 -0.006415
vn 0.000226 0.999997 0.002467
vn 0.000494 0.999999 -0.000983
vn -0.013037 0.993988 0.108707
vn -0.001119 0.999893 -0.014551
vn 0.000164 0.999994 -0.003537
vn -0.003261 0.999544 0.030019
vn -1.000000 0.000000 0.000003
vn 1.000000 0.000000 0.000000
vn -1.000000 0.000000 0.000003
vn 1.000000 0.000000 0.000000
vn -1.000000 0.000000 0.000003
vn 1.000000 0.000000 0.000000
vn -1.000000 0.000000 0.000003
vn 1.000000 0.000000 0.000000
vn -0.000832 -0.999997 0.002241
vn -0.002852 -0.999976 0.006342
vn -0.004598 0.999989 0.000000
vn 0.002479 0.999989 -0.004031
vn 0.021071 -0.999774 -0.002892
vn -0.020517 0.999635 0.017586
vn -0.012685 0.999871 -0.009868
vn -0.006066 0.999982 0.000049
vn -0.019455 0.999604 0.020311
vn 0.002410 0.999989 -0.004008
vn 0.012706 -0.999874 0.009483
vn -0.000674 -0.999998 0.002119
vn 0.021322 -0.999770 -0.002248
vn -0.002906 -0.999976 0.006296
vn -0.199506 0.000000 0.979897
vn -0.199453 0.000000 0.979907
vn -0.012729 0.000000 0.999919
vn -0.012729 0.000000 0.999919
vn -0.193211 0.000000 0.981157
vn -0.193266 0.000000 0.981146
vn -0.683680 0.000000 0.729782
vn -0.683680 0.000000 0.729782
vn -0.683680 0.000000 0.729782
vn -0.683680 0.000000 0.729782
vn 0.102597 0.000000 0.994723
vn -1.000000 0.000000 0.000004
vn 1.000000 0.000000 0.000000
vn -1.000000 0.000000 0.000004
vn 1.000000 0.000000 0.000000
vn -1.000000 0.000000 0.000004
vn 1.000000 0.000000 0.000000
vn -1.000000 0.000000 0.000004
vn 1.000000 0.000000 0.000000
vn 0.018313 0.999678 0.017537
vn 0.001620 -0.999992 -0.003714
vn 0.002090 -0.999998 -0.000386
vn 0.013933 0.999485 0.028926
vn -0.001149 -0.999999 -0.000184
vn -0.001028 0.999999 -0.000488
vn 0.011330 -0.999926 -0.004462
vn -0.015634 0.999874 0.002767
vn 0.013430 0.999752 0.017776
vn 0.011594 0.999424 0.031894
vn -0.000901 0.999999 -0.000641
vn -0.010533 0.999940 0.002957
vn 0.001251 -0.999992 -0.003826
vn 0.001750 -0.999998 -0.000008
vn -0.001342 -0.999999 -0.000022
vn 0.007451 -0.999966 -0.003387
vn 0.000000 1.000000 0.000000
vn 0.000000 1.000000 0.000000
vn 0.000000 1.000000 0.000000
vn 0.000000 1.000000 0.000000
vn 0.000000 -1.000000 0.000000
vn 0.000000 -1.000000 0.000000
vn 0.000000 -1.000000 0.000000
vn 0.000000 -1.000000 0.000000
vn 0.000000 1.000000 0.000000
vn 0.000000 1.000000 0.000000
vn 0.000000 1.000000 0.000000
vn 0.000000 1.000000 0.000000
vn -0.000004 -1.000000 0.000000
vn -0.000004 -1.000000 0.000000
vn -0.000004 -1.000000 0.000000
vn -0.000004 -1.000000 0.000000
vn 0.008338 -0.999965 0.000842
vn -0.006745 0.999973 -0.002752
vn -0.005004 0.999986 0.001877
vn 0.005147 -0.999986 -0.001491
vn 0.008370 -0.999955 -0.004492
vn -0.002863 0.999969 0.007389
vn 0.001180 -0.999999 -0.000697
vn -0.002080 0.999998 0.000398
vn -0.004551 0.999987 0.002375
vn -0.001834 0.999975 0.006796
vn -0.002340 0.999997 0.000359
vn -0.007267 0.999968 -0.003441
vn -0.012555 0.999868 -0.010360
vn 0.004925 -0.999986 -0.001727
vn 0.007493 -0.999964 -0.004074
vn 0.000943 -0.999999 -0.000840
vn 0.008979 -0.999959 0.001341
vn 0.012477 -0.999869 0.010355
g fff0af20_00094_0027e68c_e3
f 338/19/338 336/20/336 340/23/340
f 340/23/340 342/24/342 338/19/338
f 337/14/337 339/21/339 335/16/335
f 339/21/339 337/14/337 341/22/341
f 51/4/51 65/5/65 64/3/64
f 65/5/65 51/4/51 52/6/52
f 305/19/305 303/20/303 307/17/307
f 307/17/307 309/18/309 305/19/305
f 58/9/58 59/7/59 46/10/46
f 110/8/110 46/10/46 59/7/59
f 304/14/304 306/13/306 302/16/302
f 306/13/306 304/14/304 308/15/308
f 82/13/82 80/14/80 84/15/84
f 80/14/80 82/13/82 78/16/78
f 83/17/83 85/18/85 81/19/81
f 81/19/81 79/20/79 83/17/83
f 115/21/115 113/14/113 117/22/117
f 113/14/113 115/21/115 111/16/111
f 116/23/116 118/24/118 114/19/114
f 114/19/114 112/20/112 116/23/116
f 334/8/334 271/10/271 283/7/283
f 282/9/282 283/7/283 271/10/271
f 289/5/289 276/4/276 277/6/277
f 276/4/276 289/5/289 288/3/288
g fff0af20_00094_0027e68c_e1
f 10/25/10 120/26/120 11/27/11
f 53/28/53 122/29/122 9/30/9
f 121/31/121 120/26/120 119/32/119
f 53/28/53 121/31/121 122/29/122
f 122/29/122 121/31/121 119/32/119
f 10/25/10 119/32/119 120/26/120
g fff0af20_00094_0027e68c_e2
f 317/62/317 351/66/351 343/75/343
f 197/77/197 195/78/195 196/79/196
f 97/37/97 99/38/99 87/39/87
f 209/87/209 208/86/208 207/88/207
f 206/92/206 205/89/205 204/91/204
f 313/39/313 317/37/317 312/65/312
f 317/62/317 343/75/343 312/76/312
f 348/43/348 354/40/354 350/35/350
f 354/41/354 315/49/315 350/34/350
f 224/50/224 225/51/225 215/46/215
f 343/36/343 351/61/351 346/46/346
f 226/45/226 211/35/211 217/43/217
f 351/61/351 352/60/352 346/46/346
f 225/47/225 217/42/217 215/48/215
f 346/48/346 352/57/352 348/42/348
f 383/74/383 319/71/319 377/73/377
f 99/53/99 214/54/214 87/55/87
f 226/45/226 227/33/227 211/35/211
f 225/47/225 226/52/226 217/42/217
f 214/36/214 224/50/224 215/46/215
f 98/56/98 194/41/194 90/49/90
f 192/57/192 183/42/183 193/58/193
f 183/43/183 194/40/194 193/44/193
f 348/43/348 353/44/353 354/40/354
f 224/59/224 214/54/214 99/53/99
f 202/84/202 200/82/200 201/81/201
f 181/48/181 183/42/183 192/57/192
f 201/81/201 200/82/200 199/83/199
f 191/61/191 181/46/181 192/60/192
f 180/36/180 181/46/181 191/61/191
f 198/80/198 197/77/197 196/79/196
f 205/89/205 203/90/203 204/91/204
f 194/41/194 185/34/185 90/49/90
f 183/43/183 185/35/185 194/40/194
f 210/85/210 208/86/208 209/87/209
f 97/62/97 86/63/86 180/64/180
f 87/39/87 86/65/86 97/37/97
f 97/62/97 180/64/180 191/66/191
f 96/67/96 227/68/227 228/69/228
f 96/67/96 211/70/211 227/68/227
f 352/57/352 353/58/353 348/42/348
f 318/56/318 315/49/315 354/41/354
f 377/36/377 380/46/380 383/50/383
f 384/47/384 382/42/382 385/52/385
f 93/37/93 89/39/89 95/38/95
f 385/45/385 376/35/376 386/33/386
f 319/71/319 313/72/313 377/73/377
f 316/67/316 386/68/386 376/70/376
f 92/67/92 223/69/223 222/68/222
f 384/47/384 380/48/380 382/42/382
f 385/45/385 382/43/382 376/35/376
f 383/50/383 380/46/380 384/51/384
f 219/50/219 216/46/216 220/51/220
f 316/67/316 387/69/387 386/68/386
f 221/45/221 218/43/218 212/35/212
f 317/37/317 313/39/313 319/38/319
f 220/47/220 216/48/216 218/42/218
f 320/67/320 375/70/375 391/68/391
f 92/67/92 222/68/222 212/70/212
f 320/67/320 391/68/391 392/69/392
f 95/71/95 89/72/89 213/73/213
f 221/45/221 212/35/212 222/33/222
f 220/47/220 218/42/218 221/52/221
f 213/36/213 216/46/216 219/50/219
f 94/56/94 91/49/91 190/41/190
f 188/57/188 189/58/189 184/42/184
f 184/43/184 189/44/189 190/40/190
f 321/62/321 344/64/344 355/66/355
f 219/74/219 95/71/95 213/73/213
f 311/39/311 310/65/310 321/37/321
f 182/48/182 188/57/188 184/42/184
f 321/62/321 310/63/310 344/64/344
f 187/61/187 188/60/188 182/46/182
f 179/36/179 187/61/187 182/46/182
f 374/85/374 372/86/372 373/87/373
f 347/43/347 349/35/349 358/40/358
f 190/41/190 91/49/91 186/34/186
f 184/43/184 190/40/190 186/35/186
f 358/41/358 349/34/349 314/49/314
f 93/62/93 179/75/179 88/76/88
f 89/39/89 93/37/93 88/65/88
f 93/62/93 187/66/187 179/75/179
f 369/89/369 367/90/367 368/91/368
f 362/80/362 361/77/361 360/79/360
f 344/36/344 345/46/345 355/61/355
f 355/61/355 345/46/345 356/60/356
f 365/81/365 364/82/364 363/83/363
f 345/48/345 347/42/347 356/57/356
f 366/84/366 364/82/364 365/81/365
f 388/59/388 378/54/378 323/53/323
f 347/43/347 358/40/358 357/44/357
f 356/57/356 347/42/347 357/58/357
f 322/56/322 358/41/358 314/49/314
f 378/36/378 388/50/388 379/46/379
f 389/47/389 390/52/390 381/42/381
f 390/45/390 391/33/391 375/35/375
f 323/53/323 378/54/378 311/55/311
f 389/47/389 381/42/381 379/48/379
f 390/45/390 375/35/375 381/43/381
f 388/50/388 389/51/389 379/46/379
f 370/92/370 369/89/369 368/91/368
f 373/87/373 372/86/372 371/88/371
f 321/37/321 323/38/323 311/39/311
f 361/77/361 359/78/359 360/79/360
g fff0af20_00094_0027e68c_e4
f 20/93/20 2/94/2 21/95/21
f 242/97/242 234/121/234 233/98/233
f 16/96/16 17/97/17 5/98/5
f 230/94/230 245/93/245 232/127/232
f 230/94/230 232/127/232 229/106/229
f 15/103/15 17/101/17 16/102/16
f 7/104/7 8/105/8 1/106/1
f 231/116/231 229/106/229 232/127/232
f 25/109/25 18/100/18 19/99/19
f 13/110/13 15/107/15 14/111/14
f 249/115/249 243/100/243 250/109/250
f 247/123/247 249/120/249 248/119/248
f 1/106/1 3/116/3 7/104/7
f 246/126/246 247/125/247 245/124/245
f 7/117/7 13/112/13 12/118/12
f 23/119/23 24/120/24 25/114/25
f 239/108/239 240/103/240 241/102/241
f 237/113/237 238/110/238 239/111/239
f 8/105/8 7/117/7 12/118/12
f 245/124/245 247/125/247 248/122/248
f 20/124/20 22/125/22 23/122/23
f 236/105/236 235/117/235 237/118/237
f 12/113/12 13/110/13 14/111/14
f 248/119/248 249/120/249 250/114/250
f 235/117/235 238/112/238 237/118/237
f 14/108/14 15/103/15 16/102/16
f 21/126/21 22/125/22 20/124/20
f 229/106/229 231/116/231 235/104/235
f 22/123/22 24/120/24 23/119/23
f 238/110/238 240/107/240 239/111/239
f 24/115/24 18/100/18 25/109/25
f 250/109/250 243/100/243 244/99/244
f 3/116/3 1/106/1 4/127/4
f 2/94/2 4/127/4 1/106/1
f 2/94/2 20/93/20 4/127/4
f 235/104/235 236/105/236 229/106/229
f 240/103/240 242/101/242 241/102/241
f 241/96/241 242/97/242 233/98/233
f 245/93/245 230/94/230 246/95/246
f 17/97/17 6/121/6 5/98/5
g fff0af20_00094_0027e68c_e5
f 70/128/70 68/129/68 66/130/66
f 290/130/290 292/129/292 297/134/297
f 71/132/71 68/129/68 70/128/70
f 294/128/294 290/130/290 291/131/291
f 73/134/73 72/135/72 66/130/66
f 76/136/76 77/137/77 72/135/72
f 76/136/76 73/134/73 75/133/75
f 77/137/77 74/138/74 72/135/72
f 73/134/73 76/136/76 72/135/72
f 69/139/69 68/129/68 71/132/71
f 70/128/70 66/130/66 67/131/67
f 66/130/66 68/129/68 73/134/73
f 293/139/293 292/129/292 295/132/295
f 297/134/297 300/136/300 296/135/296
f 301/137/301 298/138/298 296/135/296
f 300/136/300 297/134/297 299/133/299
f 300/136/300 301/137/301 296/135/296
f 297/134/297 296/135/296 290/130/290
f 295/132/295 292/129/292 294/128/294
f 294/128/294 292/129/292 290/130/290
g fff0af20_00094_0027e68c_e6
f 102/140/102 103/141/103 100/142/100
f 100/142/100 101/143/101 102/140/102
f 41/144/41 104/145/104 40/146/40
f 104/145/104 41/144/41 105/147/105
f 100/142/100 105/147/105 101/143/101
f 105/147/105 100/142/100 104/145/104
f 57/148/57 46/12/46 45/149/45
f 46/12/46 57/148/57 58/11/58
f 288/2/288 275/155/275 276/1/276
f 275/155/275 288/2/288 287/153/287
f 271/12/271 281/148/281 282/11/282
f 281/148/281 271/12/271 270/149/270
f 50/155/50 64/2/64 63/153/63
f 64/2/64 50/155/50 51/1/51
f 329/147/329 324/142/324 328/145/328
f 324/142/324 329/147/329 325/143/325
f 328/145/328 266/144/266 329/147/329
f 266/144/266 328/145/328 265/146/265
f 324/142/324 325/143/325 326/140/326
f 326/140/326 327/141/327 324/142/324
g fff0af20_00094_0027e68c_e7
f 40/156/40 34/157/34 38/158/38
f 34/157/34 40/156/40 36/159/36
f 36/159/36 26/160/26 34/157/34
f 26/160/26 36/159/36 28/161/28
f 33/162/33 30/160/30 26/160/26
f 26/160/26 28/161/28 33/162/33
f 41/163/41 39/164/39 35/165/35
f 35/165/35 37/166/37 41/163/41
f 37/166/37 35/165/35 27/67/27
f 27/67/27 29/167/29 37/166/37
f 27/67/27 31/70/31 32/168/32
f 27/67/27 32/168/32 29/167/29
f 55/169/55 56/170/56 43/171/43
f 44/172/44 43/171/43 56/170/56
f 286/186/286 273/187/273 274/185/274
f 273/187/273 286/186/286 285/188/285
f 43/173/43 54/175/54 55/174/55
f 54/175/54 43/173/43 42/176/42
f 61/177/61 60/178/60 48/179/48
f 60/178/60 54/175/54 47/180/47
f 42/176/42 47/180/47 54/175/54
f 47/180/47 48/179/48 60/178/60
f 45/151/45 56/181/56 57/150/57
f 56/181/56 45/151/45 44/182/44
f 286/184/286 274/183/274 287/154/287
f 275/152/275 287/154/287 274/183/274
f 50/152/50 63/154/63 49/183/49
f 62/184/62 49/183/49 63/154/63
f 280/181/280 270/151/270 269/182/269
f 270/151/270 280/181/280 281/150/281
f 48/187/48 62/186/62 61/188/61
f 62/186/62 48/187/48 49/185/49
f 272/180/272 273/179/273 284/178/284
f 267/176/267 272/180/272 278/175/278
f 284/178/284 278/175/278 272/180/272
f 285/177/285 284/178/284 273/179/273
f 278/175/278 268/173/268 267/176/267
f 268/173/268 278/175/278 279/174/279
f 269/172/269 268/171/268 280/170/280
f 279/169/279 280/170/280 268/171/268
f 252/67/252 257/168/257 254/167/254
f 252/67/252 256/70/256 257/168/257
f 252/67/252 254/167/254 262/166/262
f 262/166/262 260/165/260 252/67/252
f 260/165/260 262/166/262 266/163/266
f 266/163/266 264/164/264 260/165/260
f 251/160/251 253/161/253 258/162/258
f 258/162/258 255/160/255 251/160/251
f 251/160/251 261/159/261 253/161/253
f 261/159/261 251/160/251 259/157/259
f 259/157/259 265/156/265 261/159/261
f 265/156/265 259/157/259 263/158/263
g fff0af20_00094_0027e68c_e8
f 41/159/41 38/34/38 39/189/39
f 38/189/38 41/157/41 40/159/40
f 109/190/109 108/191/108 106/192/106
f 107/48/107 106/192/106 108/191/108
f 331/48/331 330/192/330 332/191/332
f 333/190/333 332/191/332 330/192/330
f 263/189/263 266/157/266 265/159/265
f 266/159/266 263/34/263 264/189/264
g fff0af20_00094_0027e68c_e10
f 134/193/134 125/194/125 133/195/133
f 125/194/125 134/193/134 126/196/126
f 133/195/133 124/197/124 138/198/138
f 124/197/124 133/195/133 125/194/125
f 134/193/134 137/199/137 123/200/123
f 123/200/123 126/196/126 134/193/134
f 127/201/127 130/202/130 126/203/126
f 126/203/126 123/204/123 127/201/127
f 128/205/128 125/206/125 129/207/129
f 125/206/125 128/205/128 124/197/124
f 129/207/129 126/203/126 130/202/130
f 126/203/126 129/207/129 125/206/125
f 162/193/162 153/194/153 161/195/161
f 153/194/153 162/193/162 154/196/154
f 161/195/161 152/197/152 166/198/166
f 152/197/152 161/195/161 153/194/153
f 162/193/162 165/199/165 151/200/151
f 151/200/151 154/196/154 162/193/162
f 155/201/155 158/202/158 154/203/154
f 154/203/154 151/204/151 155/201/155
f 156/205/156 153/206/153 157/207/157
f 153/206/153 156/205/156 152/197/152
f 157/207/157 154/203/154 158/202/158
f 154/203/154 157/207/157 153/206/153
g fff0af20_00094_0027e68c_e11
f 141/208/141 142/209/142 134/210/134
f 134/210/134 133/211/133 141/212/141
f 140/213/140 141/214/141 133/211/133
f 133/211/133 132/215/132 140/216/140
f 131/217/131 134/210/134 142/218/142
f 142/219/142 139/220/139 131/221/131
f 146/222/146 141/223/141 145/224/145
f 141/223/141 146/222/146 142/225/142
f 145/224/145 140/226/140 144/227/144
f 140/228/140 145/224/145 141/223/141
f 146/222/146 143/229/143 139/230/139
f 139/231/139 142/225/142 146/222/146
f 139/232/139 143/229/143 135/233/135
f 135/233/135 131/234/131 139/235/139
f 144/227/144 140/236/140 132/237/132
f 132/238/132 136/239/136 144/227/144
f 149/240/149 150/241/150 148/242/148
f 148/243/148 147/244/147 149/245/149
f 169/208/169 170/209/170 162/210/162
f 162/210/162 161/211/161 169/212/169
f 168/213/168 169/214/169 161/211/161
f 161/211/161 160/215/160 168/216/168
f 159/217/159 162/210/162 170/218/170
f 170/219/170 167/220/167 159/221/159
f 174/222/174 169/223/169 173/224/173
f 169/223/169 174/222/174 170/225/170
f 173/224/173 168/226/168 172/227/172
f 168/228/168 173/224/173 169/223/169
f 174/222/174 171/229/171 167/230/167
f 167/231/167 170/225/170 174/222/174
f 167/232/167 171/229/171 163/233/163
f 163/233/163 159/234/159 167/235/167
f 172/227/172 168/236/168 160/237/160
f 160/238/160 164/239/164 172/227/172
f 177/240/177 178/241/178 176/242/176
f 176/243/176 175/244/175 177/245/177
