# fff0af14_00203_0064fe62
o fff0af14_00203_0064fe62
v -0.676560 -0.997736 -1.483497
v 0.661269 -0.997736 -1.483497
v -0.676560 0.942693 -1.483497
v 0.661269 0.942693 -1.483497
v -0.716419 0.940343 -3.228305
v -0.578445 0.940343 -3.228305
v -0.716419 1.064489 -3.228305
v -0.578445 1.064489 -3.228305
v -0.716419 0.940343 3.228305
v -0.578445 0.940343 3.228305
v -0.716419 1.064489 3.228305
v -0.578445 1.064489 3.228305
v 0.576404 0.940343 -3.228305
v 0.714379 0.940343 -3.228305
v 0.576404 1.064489 -3.228305
v 0.714379 1.064489 -3.228305
v 0.576404 0.940343 3.228305
v 0.714379 0.940343 3.228305
v 0.576404 1.064489 3.228305
v 0.714379 1.064489 3.228305
v -0.716419 0.940343 -3.228305
v -0.578445 0.940343 -3.228305
v -0.716419 0.940343 3.228305
v -0.578445 0.940343 3.228305
v 0.576404 0.940343 -3.228305
v 0.714379 0.940343 -3.228305
v 0.576404 0.940343 3.228305
v 0.714379 0.940343 3.228305
v -0.716419 0.957616 -3.228305
v -0.578445 0.957616 -3.228305
v -0.716419 0.957616 3.228305
v -0.578445 0.957616 3.228305
v 0.576404 0.957616 -3.228305
v 0.714379 0.957616 -3.228305
v 0.576404 0.957616 3.228305
v 0.714379 0.957616 3.228305
v -0.716419 -1.067133 -3.228305
v -0.578445 -1.067133 -3.228305
v -0.716419 -0.942988 -3.228305
v -0.578445 -0.942988 -3.228305
v -0.716419 -1.067133 3.228305
v -0.578445 -1.067133 3.228305
v -0.716419 -0.942988 3.228305
v -0.578445 -0.942988 3.228305
v 0.576404 -1.067133 -3.228305
v 0.714379 -1.067133 -3.228305
v 0.576404 -0.942988 -3.228305
v 0.714379 -0.942988 -3.228305
v 0.576404 -1.067133 3.228305
v 0.714379 -1.067133 3.228305
v 0.576404 -0.942988 3.228305
v 0.714379 -0.942988 3.228305
v -0.716419 -1.067133 -3.228305
v -0.578445 -1.067133 -3.228305
v -0.716419 -1.067133 3.228305
v -0.578445 -1.067133 3.228305
v 0.576404 -1.067133 -3.228305
v 0.714379 -1.067133 -3.228305
v 0.576404 -1.067133 3.228305
v 0.714379 -1.067133 3.228305
v -0.716419 -1.049860 -3.228305
v -0.578445 -1.049860 -3.228305
v -0.716419 -1.049860 3.228305
v -0.578445 -1.049860 3.228305
v 0.576404 -1.049860 -3.228305
v 0.714379 -1.049860 -3.228305
v 0.576404 -1.049860 3.228305
v 0.714379 -1.049860 3.228305
v -0.676560 -0.997889 -1.574047
v 0.661269 -0.997889 -1.574047
v -0.676560 0.942541 -1.574047
v 0.661269 0.942541 -1.574047
v -0.676560 -0.997736 -1.483497
v 0.661269 -0.997736 -1.483497
v -0.676560 -0.997889 -1.574047
v 0.661269 -0.997889 -1.574047
v -0.676561 -0.985713 -1.483497
v 0.661267 -0.985713 -1.483497
v -0.676561 -0.985865 -1.574047
v 0.661267 -0.985865 -1.574047
v 0.654231 -0.997767 -1.483497
v 0.654231 0.942663 -1.483497
v 0.654231 -0.997920 -1.574047
v 0.654231 0.942510 -1.574047
v -0.665825 -0.997767 -1.483497
v -0.665825 0.942663 -1.483497
v -0.665825 -0.997920 -1.574047
v -0.665825 0.942510 -1.574047
v -0.676515 -0.997645 0.610978
v 0.661313 -0.997645 0.610978
v -0.676515 0.942785 0.610978
v 0.661313 0.942785 0.610978
v -0.676515 -0.997797 0.520428
v 0.661313 -0.997797 0.520428
v -0.676515 0.942632 0.520428
v 0.661313 0.942632 0.520428
v -0.676515 -0.997645 0.610978
v 0.661313 -0.997645 0.610978
v -0.676515 -0.997797 0.520428
v 0.661313 -0.997797 0.520428
v -0.676517 -0.985621 0.610978
v 0.661312 -0.985621 0.610978
v -0.676517 -0.985774 0.520428
v 0.661312 -0.985774 0.520428
v 0.654276 -0.997675 0.610978
v 0.654276 0.942754 0.610978
v 0.654276 -0.997828 0.520428
v 0.654276 0.942602 0.520428
v -0.665780 -0.997675 0.610978
v -0.665780 0.942754 0.610978
v -0.665780 -0.997828 0.520428
v -0.665780 0.942602 0.520428
v -0.676515 -0.997645 1.421947
v 0.661313 -0.997645 1.421947
v -0.676515 0.942785 1.421947
v 0.661313 0.942785 1.421947
v -0.676515 -0.997797 1.331397
v 0.661313 -0.997797 1.331397
v -0.676515 0.942632 1.331397
v 0.661313 0.942632 1.331397
v -0.676515 -0.997645 1.421947
v 0.661313 -0.997645 1.421947
v -0.676515 -0.997797 1.331397
v 0.661313 -0.997797 1.331397
v -0.676517 -0.985621 1.421947
v 0.661312 -0.985621 1.421947
v -0.676517 -0.985774 1.331397
v 0.661312 -0.985774 1.331397
v 0.654276 -0.997675 1.421947
v 0.654276 0.942754 1.421947
v 0.654276 -0.997828 1.331397
v 0.654276 0.942602 1.331397
v -0.665780 -0.997675 1.421947
v -0.665780 0.942754 1.421947
v -0.665780 -0.997828 1.331397
v -0.665780 0.942602 1.331397
v -0.676515 -0.997645 2.883156
v 0.661313 -0.997645 2.883156
v -0.676515 0.942785 2.883156
v 0.661313 0.942785 2.883156
v -0.676515 -0.997797 2.792606
v 0.661313 -0.997797 2.792606
v -0.676515 0.942632 2.792606
v 0.661313 0.942632 2.792606
v -0.676515 -0.997645 2.883156
v 0.661313 -0.997645 2.883156
v -0.676515 -0.997797 2.792606
v 0.661313 -0.997797 2.792606
v -0.676517 -0.985621 2.883156
v 0.661312 -0.985621 2.883156
v -0.676517 -0.985774 2.792606
v 0.661312 -0.985774 2.792606
v 0.654276 -0.997675 2.883156
v 0.654276 0.942754 2.883156
v 0.654276 -0.997828 2.792606
v 0.654276 0.942602 2.792606
v -0.665780 -0.997675 2.883156
v -0.665780 0.942754 2.883156
v -0.665780 -0.997828 2.792606
v -0.665780 0.942602 2.792606
v -0.722346 1.044479 -0.772172
v -0.722347 0.961279 -0.772172
v -0.722346 1.044490 -0.896521
v -0.722347 0.961290 -0.896521
v -0.722116 1.076270 -0.752736
v -0.722117 0.929497 -0.752736
v -0.722116 1.076289 -0.915958
v -0.722117 0.929516 -0.915958
v -0.722346 -0.961197 -0.772172
v -0.722347 -1.044397 -0.772172
v -0.722346 -0.961186 -0.896521
v -0.722347 -1.044386 -0.896521
v -0.722116 -0.929407 -0.752736
v -0.722117 -1.076179 -0.752736
v -0.722116 -0.929388 -0.915958
v -0.722117 -1.076160 -0.915958
v 0.722346 -1.044459 -0.772173
v 0.722347 -0.961268 -0.772173
v 0.722345 -1.044489 -0.896521
v 0.722347 -0.961268 -0.896521
v 0.722116 -1.076258 -0.752736
v 0.722117 -0.929499 -0.752736
v 0.722115 -1.076289 -0.915958
v 0.722117 -0.929499 -0.915958
v 0.722346 0.961217 -0.772173
v 0.722347 1.044408 -0.772173
v 0.722345 0.961187 -0.896521
v 0.722347 1.044408 -0.896521
v 0.722116 0.929418 -0.752736
v 0.722117 1.076177 -0.752736
v 0.722115 0.929387 -0.915958
v 0.722117 1.076177 -0.915958
v -0.703078 0.961553 -3.170156
v -0.620076 0.961553 -3.200366
v -0.703078 1.025976 -3.170156
v -0.620076 1.025976 -3.200366
v 0.614630 0.961553 2.939029
v 0.697632 0.961553 2.908819
v 0.614630 1.025976 2.939029
v 0.697632 1.025976 2.908819
v -0.703078 0.961553 -3.170156
v -0.620076 0.961553 -3.200366
v 0.614630 0.961553 2.939029
v 0.697632 0.961553 2.908819
v -0.703078 0.970525 -3.170156
v -0.620076 0.970525 -3.200366
v 0.614630 0.970525 2.939029
v 0.697632 0.970525 2.908819
v 0.620107 -1.037257 -3.181363
v 0.708099 -1.037257 -3.173664
v 0.620107 -0.972834 -3.181363
v 0.708099 -0.972834 -3.173664
v -0.711460 -1.037257 2.912327
v -0.623467 -1.037257 2.920026
v -0.711460 -0.972834 2.912327
v -0.623467 -0.972834 2.920026
v 0.620107 -1.037257 -3.181363
v 0.708099 -1.037257 -3.173664
v -0.711460 -1.037257 2.912327
v -0.623467 -1.037257 2.920026
v 0.620107 -1.028285 -3.181363
v 0.708099 -1.028285 -3.173664
v -0.711460 -1.028285 2.912327
v -0.623467 -1.028285 2.920026
v -0.676560 -0.997736 -3.066770
v 0.661269 -0.997736 -3.066770
v -0.676560 0.942693 -3.066770
v 0.661269 0.942693 -3.066770
v -0.676560 -0.997889 -3.157320
v 0.661269 -0.997889 -3.157320
v -0.676560 0.942541 -3.157320
v 0.661269 0.942541 -3.157320
v -0.676560 -0.997736 -3.066770
v 0.661269 -0.997736 -3.066770
v -0.676560 -0.997889 -3.157320
v 0.661269 -0.997889 -3.157320
v -0.676561 -0.985713 -3.066770
v 0.661267 -0.985713 -3.066770
v -0.676561 -0.985865 -3.157320
v 0.661267 -0.985865 -3.157320
v 0.654231 -0.997767 -3.066770
v 0.654231 0.942663 -3.066770
v 0.654231 -0.997920 -3.157320
v 0.654231 0.942510 -3.157320
v -0.665825 -0.997767 -3.066770
v -0.665825 0.942663 -3.066770
v -0.665825 -0.997920 -3.157320
v -0.665825 0.942510 -3.157320
vt 0.000000 -2.387016
vt 1.000000 -2.387016
vt 0.000000 16.982813
vt 1.000000 16.982813
vt 0.000001 0.000001
vt 0.999999 0.000001
vt 0.000001 0.999999
vt 0.999999 0.999999
vt 1.741494 1.029178
vt 1.695452 1.029067
vt 1.692894 1.156182
vt 1.738937 1.156292
vt 1.725178 1.148767
vt 1.678792 1.148655
vt 1.676913 1.053172
vt 1.723300 1.053283
vt 0.049731 0.603664
vt 0.222541 0.603664
vt 0.222541 0.776473
vt 0.222541 0.776473
vt 0.049731 0.776473
vt 0.049731 0.603664
vt 7.000000 2.000000
vt -1.000000 2.000000
vt 7.000000 1.000000
vt -1.000000 1.000000
vt 4.000000 1.000000
vt -1.000000 2.000000
vt 4.000000 2.000000
vt -1.000000 1.000000
vt 1.865840 1.770893
vt 1.936285 1.770893
vt 1.936285 1.692151
vt 1.936285 1.692151
vt 1.865840 1.691981
vt 1.865840 1.770893
vt 1.865840 1.770893
vt 1.936285 1.770893
vt 1.936285 1.692151
vt 1.936285 1.692151
vt 1.865840 1.691981
vt 1.865840 1.770893
vt 1.936812 1.770893
vt 1.865840 1.770893
vt 1.865840 1.691981
vt 1.866060 1.640809
vt 1.937033 1.640980
vt 1.937033 1.770893
vt 1.937033 1.770893
vt 1.866060 1.770893
vt 1.866060 1.640809
vt 1.866060 1.640809
vt 1.937033 1.640980
vt 1.937033 1.770893
vt 1.676913 1.053172
vt 1.723300 1.053283
vt 1.725178 1.148767
vt 1.725178 1.148767
vt 1.678792 1.148655
vt 1.676913 1.053172
vt 1.692894 1.156181
vt 1.738937 1.156292
vt 1.741494 1.029178
vt 1.741494 1.029178
vt 1.695452 1.029067
vt 1.692894 1.156182
vt 1.676913 1.053172
vt 1.725178 1.148767
vt 1.692894 1.156181
vt 1.741494 1.029178
vt 0.096528 1.000000
vt 0.000000 2.000000
vt 0.096528 2.000000
vt 0.000000 2.000000
vt 0.096528 1.000000
vt 0.000000 1.000000
vt 0.763170 1.056034
vt 0.763170 1.162081
vt 0.702701 1.162081
vt 0.702701 1.162081
vt 0.702701 1.056034
vt 0.763170 1.056034
vn -0.707486 0.000000 0.706728
vn 0.707486 0.000000 0.706728
vn -0.577262 0.577881 0.576908
vn 0.577262 0.577881 0.576908
vn -0.707107 0.000000 -0.707107
vn 0.707107 0.000000 -0.707107
vn -0.707107 0.000000 -0.707107
vn 0.707107 0.000000 -0.707107
vn -0.707107 0.000000 0.707107
vn 0.707107 0.000000 0.707107
vn -0.707107 0.000000 0.707107
vn 0.707107 0.000000 0.707107
vn -0.707107 0.000000 -0.707107
vn 0.707107 0.000000 -0.707107
vn -0.707107 0.000000 -0.707107
vn 0.707107 0.000000 -0.707107
vn -0.707107 0.000000 0.707107
vn 0.707107 0.000000 0.707107
vn -0.707107 0.000000 0.707107
vn 0.707107 0.000000 0.707107
vn 0.000000 -1.000000 0.000000
vn 0.000000 -1.000000 0.000000
vn 0.000000 -1.000000 0.000000
vn 0.000000 -1.000000 0.000000
vn 0.000000 -1.000000 0.000000
vn 0.000000 -1.000000 0.000000
vn 0.000000 -1.000000 0.000000
vn 0.000000 -1.000000 0.000000
vn 0.000000 1.000000 0.000000
vn 0.000000 1.000000 0.000000
vn 0.000000 1.000000 0.000000
vn 0.000000 1.000000 0.000000
vn 0.000000 1.000000 0.000000
vn 0.000000 1.000000 0.000000
vn 0.000000 1.000000 0.000000
vn 0.000000 1.000000 0.000000
vn -0.707107 0.000000 -0.707107
vn 0.707107 0.000000 -0.707107
vn -0.707107 0.000000 -0.707107
vn 0.707107 0.000000 -0.707107
vn -0.707107 0.000000 0.707107
vn 0.707107 0.000000 0.707107
vn -0.707107 0.000000 0.707107
vn 0.707107 0.000000 0.707107
vn -0.707107 0.000000 -0.707107
vn 0.707107 0.000000 -0.707107
vn -0.707107 0.000000 -0.707107
vn 0.707107 0.000000 -0.707107
vn -0.707107 0.000000 0.707107
vn 0.707107 0.000000 0.707107
vn -0.707107 0.000000 0.707107
vn 0.707107 0.000000 0.707107
vn 0.000000 -1.000000 0.000000
vn 0.000000 -1.000000 0.000000
vn 0.000000 -1.000000 0.000000
vn 0.000000 -1.000000 0.000000
vn 0.000000 -1.000000 0.000000
vn 0.000000 -1.000000 0.000000
vn 0.000000 -1.000000 0.000000
vn 0.000000 -1.000000 0.000000
vn 0.000000 1.000000 0.000000
vn 0.000000 1.000000 0.000000
vn 0.000000 1.000000 0.000000
vn 0.000000 1.000000 0.000000
vn 0.000000 1.000000 0.000000
vn 0.000000 1.000000 0.000000
vn 0.000000 1.000000 0.000000
vn 0.000000 1.000000 0.000000
vn -1.000000 0.000000 0.000000
vn 1.000000 0.000000 0.000000
vn -0.707486 0.706727 -0.001191
vn 0.707486 0.706727 -0.001191
vn 0.000000 -0.999999 0.001685
vn 0.000000 -0.999999 0.001685
vn 0.000000 -0.999999 0.001685
vn 0.000000 -0.999999 0.001685
vn 0.000000 -0.999999 0.001685
vn 0.000000 -0.999999 0.001685
vn 0.000000 -0.999999 0.001685
vn 0.000000 -0.999999 0.001685
vn 1.000000 0.000000 0.000000
vn 1.000000 0.000000 0.000000
vn 1.000000 0.000000 0.000000
vn 1.000000 0.000000 0.000000
vn -1.000000 0.000000 0.000000
vn -1.000000 0.000000 0.000000
vn -1.000000 0.000000 0.000000
vn -1.000000 0.000000 0.000000
vn -0.707486 0.000000 0.706728
vn 0.707486 0.000000 0.706728
vn -0.577262 0.577881 0.576908
vn 0.577262 0.577881 0.576908
vn -1.000000 0.000000 0.000000
vn 1.000000 0.000000 0.000000
vn -0.707486 0.706727 -0.001191
vn 0.707486 0.706727 -0.001191
vn 0.000000 -0.999999 0.001685
vn 0.000000 -0.999999 0.001685
vn 0.000000 -0.999999 0.001685
vn 0.000000 -0.999999 0.001685
vn 0.000000 -0.999999 0.001685
vn 0.000000 -0.999999 0.001685
vn 0.000000 -0.999999 0.001685
vn 0.000000 -0.999999 0.001685
vn 1.000000 0.000000 0.000000
vn 1.000000 0.000000 0.000000
vn 1.000000 0.000000 0.000000
vn 1.000000 0.000000 0.000000
vn -1.000000 0.000000 0.000000
vn -1.000000 0.000000 0.000000
vn -1.000000 0.000000 0.000000
vn -1.000000 0.000000 0.000000
vn -0.707486 0.000000 0.706728
vn 0.707486 0.000000 0.706728
vn -0.577262 0.577881 0.576908
vn 0.577262 0.577881 0.576908
vn -1.000000 0.000000 0.000000
vn 1.000000 0.000000 0.000000
vn -0.707486 0.706727 -0.001191
vn 0.707486 0.706727 -0.001191
vn 0.000000 -0.999999 0.001685
vn 0.000000 -0.999999 0.001685
vn 0.000000 -0.999999 0.001685
vn 0.000000 -0.999999 0.001685
vn 0.000000 -0.999999 0.001685
vn 0.000000 -0.999999 0.001685
vn 0.000000 -0.999999 0.001685
vn 0.000000 -0.999999 0.001685
vn 1.000000 0.000000 0.000000
vn 1.000000 0.000000 0.000000
vn 1.000000 0.000000 0.000000
vn 1.000000 0.000000 0.000000
vn -1.000000 0.000000 0.000000
vn -1.000000 0.000000 0.000000
vn -1.000000 0.000000 0.000000
vn -1.000000 0.000000 0.000000
vn -0.707486 0.000000 0.706727
vn 0.707486 0.000000 0.706728
vn -0.577262 0.577881 0.576908
vn 0.577262 0.577881 0.576908
vn -1.000000 0.000000 0.000000
vn 1.000000 0.000000 0.000000
vn -0.707486 0.706726 -0.001191
vn 0.707486 0.706727 -0.001191
vn 0.000000 -0.999999 0.001685
vn 0.000000 -0.999999 0.001685
vn 0.000000 -0.999999 0.001685
vn 0.000000 -0.999999 0.001685
vn 0.000000 -0.999999 0.001685
vn 0.000000 -0.999999 0.001685
vn 0.000000 -0.999999 0.001685
vn 0.000000 -0.999999 0.001685
vn 1.000000 0.000000 0.000000
vn 1.000000 0.000000 0.000000
vn 1.000000 0.000000 0.000000
vn 1.000000 0.000000 0.000000
vn -1.000000 0.000000 0.000000
vn -1.000000 0.000000 0.000000
vn -1.000000 0.000000 0.000000
vn -1.000000 0.000000 0.000000
vn -1.000000 0.000012 -0.000001
vn -1.000000 0.000011 0.000000
vn -1.000000 0.000014 -0.000002
vn -1.000000 0.000013 -0.000001
vn -1.000000 0.000009 -0.000001
vn -1.000000 0.000008 0.000000
vn -1.000000 0.000010 -0.000002
vn -1.000000 0.000009 -0.000001
vn -1.000000 0.000012 -0.000001
vn -1.000000 0.000011 0.000000
vn -1.000000 0.000014 -0.000002
vn -1.000000 0.000013 -0.000001
vn -1.000000 0.000009 -0.000001
vn -1.000000 0.000008 0.000000
vn -1.000000 0.000010 -0.000002
vn -1.000000 0.000009 -0.000001
vn 1.000000 -0.000014 -0.000001
vn 1.000000 -0.000011 0.000000
vn 1.000000 -0.000017 -0.000004
vn 1.000000 -0.000015 -0.000002
vn 1.000000 -0.000008 -0.000001
vn 1.000000 -0.000006 0.000000
vn 1.000000 -0.000010 -0.000003
vn 1.000000 -0.000008 -0.000002
vn 1.000000 -0.000014 -0.000001
vn 1.000000 -0.000011 0.000000
vn 1.000000 -0.000017 -0.000004
vn 1.000000 -0.000015 -0.000002
vn 1.000000 -0.000008 -0.000001
vn 1.000000 -0.000006 0.000000
vn 1.000000 -0.000010 -0.000003
vn 1.000000 -0.000008 -0.000002
vn -0.875346 0.000000 -0.483498
vn 0.483498 0.000000 -0.875346
vn -0.875346 0.000000 -0.483498
vn 0.483498 0.000000 -0.875346
vn -0.977520 0.000000 0.210844
vn 0.977520 0.000000 -0.210844
vn -0.977520 0.000000 0.210844
vn 0.977520 0.000000 -0.210844
vn 0.000000 -1.000000 0.000000
vn 0.000000 -1.000000 0.000000
vn 0.000000 -1.000000 0.000000
vn 0.000000 -1.000000 0.000000
vn 0.000000 1.000000 0.000000
vn 0.000000 1.000000 0.000000
vn 0.000000 1.000000 0.000000
vn 0.000000 1.000000 0.000000
vn -0.976948 0.000000 -0.213478
vn 0.976948 0.000000 0.213478
vn -0.976948 0.000000 -0.213478
vn 0.976948 0.000000 0.213478
vn -0.805549 0.000000 0.592529
vn 0.592529 0.000000 0.805549
vn -0.805549 0.000000 0.592529
vn 0.592529 0.000000 0.805549
vn 0.000000 -1.000000 0.000000
vn 0.000000 -1.000000 0.000000
vn 0.000000 -1.000000 0.000000
vn 0.000000 -1.000000 0.000000
vn 0.000000 1.000000 0.000000
vn 0.000000 1.000000 0.000000
vn 0.000000 1.000000 0.000000
vn 0.000000 1.000000 0.000000
vn -0.707486 0.000000 0.706728
vn 0.707486 0.000000 0.706728
vn -0.577262 0.577881 0.576908
vn 0.577262 0.577881 0.576908
vn -1.000000 0.000000 0.000000
vn 1.000000 0.000000 0.000000
vn -0.707486 0.706727 -0.001191
vn 0.707486 0.706727 -0.001191
vn 0.000000 -0.999999 0.001685
vn 0.000000 -0.999999 0.001685
vn 0.000000 -0.999999 0.001685
vn 0.000000 -0.999999 0.001685
vn 0.000000 -0.999999 0.001685
vn 0.000000 -0.999999 0.001685
vn 0.000000 -0.999999 0.001685
vn 0.000000 -0.999999 0.001685
vn 1.000000 0.000000 0.000000
vn 1.000000 0.000000 0.000000
vn 1.000000 0.000000 0.000000
vn 1.000000 0.000000 0.000000
vn -1.000000 0.000000 0.000000
vn -1.000000 0.000000 0.000000
vn -1.000000 0.000000 0.000000
vn -1.000000 0.000000 0.000000
g fff0af14_00203_0064fe62_e0
f 16/7/16 14/5/14 13/6/13
f 13/6/13 15/8/15 16/7/16
f 37/6/37 39/8/39 40/7/40
f 40/7/40 38/5/38 37/6/37
f 8/7/8 6/5/6 5/6/5
f 5/6/5 7/8/7 8/7/8
f 48/7/48 46/5/46 45/6/45
f 45/6/45 47/8/47 48/7/48
f 196/7/196 194/5/194 193/6/193
f 193/6/193 195/8/195 196/7/196
g fff0af14_00203_0064fe62_e16
f 35/4/35 36/3/36 34/1/34
f 34/1/34 33/2/33 35/4/35
f 28/4/28 27/3/27 25/1/25
f 25/1/25 26/2/26 28/4/28
f 31/4/31 32/3/32 30/1/30
f 30/1/30 29/2/29 31/4/31
f 24/4/24 23/3/23 21/1/21
f 21/1/21 22/2/22 24/4/24
f 67/4/67 68/3/68 66/1/66
f 66/1/66 65/2/65 67/4/67
f 60/4/60 59/3/59 57/1/57
f 57/1/57 58/2/58 60/4/60
f 63/4/63 64/3/64 62/1/62
f 62/1/62 61/2/61 63/4/63
f 56/4/56 55/3/55 53/1/53
f 53/1/53 54/2/54 56/4/56
f 74/23/74 73/24/73 76/25/76
f 75/26/75 76/25/76 73/24/73
f 71/27/71 1/28/1 3/29/3
f 1/28/1 71/27/71 69/30/69
f 72/27/72 4/29/4 2/28/2
f 2/28/2 70/30/70 72/27/72
f 3/24/3 4/23/4 72/25/72
f 72/25/72 71/26/71 3/24/3
f 78/23/78 77/24/77 80/25/80
f 79/26/79 80/25/80 77/24/77
f 84/27/84 82/29/82 81/28/81
f 81/28/81 83/30/83 84/27/84
f 88/27/88 85/28/85 86/29/86
f 85/28/85 88/27/88 87/30/87
f 98/23/98 97/24/97 100/25/100
f 99/26/99 100/25/100 97/24/97
f 95/27/95 89/28/89 91/29/91
f 89/28/89 95/27/95 93/30/93
f 96/27/96 92/29/92 90/28/90
f 90/28/90 94/30/94 96/27/96
f 91/24/91 92/23/92 96/25/96
f 96/25/96 95/26/95 91/24/91
f 102/23/102 101/24/101 104/25/104
f 103/26/103 104/25/104 101/24/101
f 108/27/108 106/29/106 105/28/105
f 105/28/105 107/30/107 108/27/108
f 112/27/112 109/28/109 110/29/110
f 109/28/109 112/27/112 111/30/111
f 122/23/122 121/24/121 124/25/124
f 123/26/123 124/25/124 121/24/121
f 119/27/119 113/28/113 115/29/115
f 113/28/113 119/27/119 117/30/117
f 120/27/120 116/29/116 114/28/114
f 114/28/114 118/30/118 120/27/120
f 115/24/115 116/23/116 120/25/120
f 120/25/120 119/26/119 115/24/115
f 126/23/126 125/24/125 128/25/128
f 127/26/127 128/25/128 125/24/125
f 132/27/132 130/29/130 129/28/129
f 129/28/129 131/30/131 132/27/132
f 136/27/136 133/28/133 134/29/134
f 133/28/133 136/27/136 135/30/135
f 146/23/146 145/24/145 148/25/148
f 147/26/147 148/25/148 145/24/145
f 143/27/143 137/28/137 139/29/139
f 137/28/137 143/27/143 141/30/141
f 144/27/144 140/29/140 138/28/138
f 138/28/138 142/30/142 144/27/144
f 139/24/139 140/23/140 144/25/144
f 144/25/144 143/26/143 139/24/139
f 150/23/150 149/24/149 152/25/152
f 151/26/151 152/25/152 149/24/149
f 156/27/156 154/29/154 153/28/153
f 153/28/153 155/30/155 156/27/156
f 160/27/160 157/28/157 158/29/158
f 157/28/157 160/27/160 159/30/159
f 207/4/207 208/3/208 206/1/206
f 206/1/206 205/2/205 207/4/207
f 204/4/204 203/3/203 201/1/201
f 201/1/201 202/2/202 204/4/204
f 223/4/223 224/3/224 222/1/222
f 222/1/222 221/2/221 223/4/223
f 220/4/220 219/3/219 217/1/217
f 217/1/217 218/2/218 220/4/220
f 234/23/234 233/24/233 236/25/236
f 235/26/235 236/25/236 233/24/233
f 231/27/231 225/28/225 227/29/227
f 225/28/225 231/27/231 229/30/229
f 232/27/232 228/29/228 226/28/226
f 226/28/226 230/30/230 232/27/232
f 227/24/227 228/23/228 232/25/232
f 232/25/232 231/26/231 227/24/227
f 238/23/238 237/24/237 240/25/240
f 239/26/239 240/25/240 237/24/237
f 244/27/244 242/29/242 241/28/241
f 241/28/241 243/30/243 244/27/244
f 248/27/248 245/28/245 246/29/246
f 245/28/245 248/27/248 247/30/247
g fff0af14_00203_0064fe62_e13
f 20/20/20 19/21/19 17/22/17
f 17/17/17 18/18/18 20/19/20
f 15/55/15 13/56/13 17/57/17
f 17/58/17 19/59/19 15/60/15
f 20/31/20 18/32/18 14/33/14
f 14/34/14 16/35/16 20/36/20
f 12/20/12 11/21/11 9/22/9
f 9/17/9 10/18/10 12/19/12
f 7/46/7 5/47/5 9/48/9
f 9/49/9 11/50/11 7/51/7
f 12/61/12 10/62/10 6/63/6
f 6/64/6 8/65/8 12/66/12
f 52/20/52 51/21/51 49/22/49
f 49/17/49 50/18/50 52/19/52
f 47/67/47 45/16/45 49/68/49
f 49/13/49 51/14/51 47/15/47
f 52/37/52 50/38/50 46/39/46
f 46/40/46 48/41/48 52/42/52
f 44/20/44 43/21/43 41/22/41
f 41/17/41 42/18/42 44/19/44
f 39/52/39 37/53/37 41/54/41
f 41/43/41 43/44/43 39/45/39
f 44/69/44 42/12/42 38/70/38
f 38/9/38 40/10/40 44/11/44
f 168/77/168 166/78/166 165/79/165
f 165/80/165 167/81/167 168/82/168
f 176/77/176 174/78/174 173/79/173
f 173/80/173 175/81/175 176/82/176
f 184/77/184 182/78/182 181/79/181
f 181/80/181 183/81/183 184/82/184
f 192/77/192 190/78/190 189/79/189
f 189/80/189 191/81/191 192/82/192
f 210/64/210 212/65/212 216/66/216
f 216/61/216 214/62/214 210/63/210
f 195/46/195 193/47/193 197/48/197
f 197/49/197 199/50/199 195/51/195
f 200/61/200 198/62/198 194/63/194
f 194/64/194 196/65/196 200/66/200
f 216/20/216 215/21/215 213/22/213
f 213/17/213 214/18/214 216/19/216
f 211/46/211 209/47/209 213/48/213
f 213/49/213 215/50/215 211/51/211
g fff0af14_00203_0064fe62_e10
f 1/5/1 2/6/2 4/8/4
f 4/8/4 3/7/3 1/5/1
f 89/5/89 90/6/90 92/8/92
f 92/8/92 91/7/91 89/5/89
f 113/5/113 114/6/114 116/8/116
f 116/8/116 115/7/115 113/5/113
f 137/5/137 138/6/138 140/8/140
f 140/8/140 139/7/139 137/5/137
f 225/5/225 226/6/226 228/8/228
f 228/8/228 227/7/227 225/5/225
g fff0af14_00203_0064fe62_e17
f 164/71/164 162/73/162 161/72/161
f 161/74/161 163/76/163 164/75/164
f 172/71/172 170/73/170 169/72/169
f 169/74/169 171/76/171 172/75/172
f 180/71/180 178/73/178 177/72/177
f 177/74/177 179/76/179 180/75/180
f 188/71/188 186/73/186 185/72/185
f 185/74/185 187/76/187 188/75/188
