# fff03385_00016_0037bda3
o fff03385_00016_0037bda3
v -0.666769 -0.150000 0.577947
v 1.030539 -0.150000 0.575069
v -1.030538 -0.150000 0.001749
v 0.714612 -0.150000 -0.536147
v 0.216540 -0.150000 -0.577947
v 0.692817 -0.150000 -0.048595
v -0.666769 0.150000 0.577947
v 1.030539 0.150000 0.575069
v -1.030538 0.150000 0.001749
v 0.714612 0.150000 -0.536147
v 0.216540 0.150000 -0.577947
v 0.692817 0.150000 -0.048595
v -0.666769 0.167230 0.577947
v 1.030539 0.167230 0.575069
v -1.030538 0.167230 0.001749
v 0.216540 0.167230 -0.577947
v 0.692817 0.167230 -0.048595
vt 2.000000 1.000000
vt 2.000000 2.501779
vt 1.000000 2.501779
vt 1.000000 1.000000
vt 2.000000 0.999998
vt 2.000000 1.999998
vt 1.000000 1.999998
vt 1.000000 0.999998
vt 2.000000 3.008796
vt 2.000000 1.000009
vt 1.000000 1.000009
vt 1.000000 3.008796
vt 2.000000 1.999999
vt 2.000000 0.999999
vt 1.000000 0.999999
vt 1.000000 1.999999
vt 1.000000 1.000026
vt 1.000000 2.000026
vt 2.000000 2.000026
vt 2.000000 1.000026
vt 2.000000 1.000006
vt 2.000000 2.493947
vt 1.000000 2.493947
vt 1.000000 1.000006
vt 1.019228 -0.128201
vt 0.479262 0.664724
vt 0.797623 0.593706
vt 0.681999 -0.075149
vt 0.370869 0.050494
vt -2.854534 -6.881886
vt -2.580041 -6.544879
vt -2.567484 -6.855281
vt -3.573260 -6.512818
vt -2.385407 -6.147809
vt -3.363607 -6.145970
vt -3.573260 -6.512818
vt -2.580041 -6.544879
vt -3.363607 -6.145970
vt -2.385407 -6.147809
vt -2.854534 -6.881886
vt -2.567484 -6.855281
vn -0.380942 -0.612758 0.692394
vn 0.714616 -0.555704 0.424872
vn -0.787598 -0.570916 -0.231830
vn 0.612093 -0.579432 -0.538146
vn -0.132284 -0.653668 -0.745131
vn 0.618917 -0.772479 -0.142186
vn -0.380942 0.612758 0.692394
vn 0.714616 0.555704 0.424872
vn -0.787598 0.570916 -0.231830
vn 0.612093 0.579432 -0.538146
vn -0.132284 0.653668 -0.745131
vn 0.618917 0.772479 -0.142186
vn 0.000000 1.000000 0.000000
vn 0.000000 1.000000 0.000000
vn 0.000000 1.000000 0.000000
vn 0.000000 1.000000 0.000000
vn 0.000000 1.000000 0.000000
g fff03385_00016_0037bda3_e1
f 11/15/11 10/16/10 4/13/4
f 4/13/4 5/14/5 11/15/11
f 3/5/3 1/6/1 7/7/7
f 7/7/7 9/8/9 3/5/3
f 2/21/2 6/22/6 12/23/12
f 12/23/12 8/24/8 2/21/2
g fff03385_00016_0037bda3_e2
f 1/1/1 2/2/2 8/3/8
f 8/3/8 7/4/7 1/1/1
f 5/9/5 3/10/3 9/11/9
f 9/11/9 11/12/11 5/9/5
f 6/17/6 4/18/4 10/19/10
f 10/19/10 12/20/12 6/17/6
g fff03385_00016_0037bda3_e8
f 6/37/6 5/40/5 4/41/4
f 5/40/5 6/37/6 3/36/3
f 2/39/2 1/38/1 6/37/6
f 11/30/11 12/31/12 10/32/10
f 9/33/9 8/34/8 12/31/12
f 11/30/11 9/33/9 12/31/12
f 8/34/8 9/33/9 7/35/7
f 3/36/3 6/37/6 1/38/1
g fff03385_00016_0037bda3_e7
f 14/25/14 15/26/15 13/27/13
f 15/26/15 14/25/14 17/28/17
f 16/29/16 15/26/15 17/28/17
