# fff002fb_00013_000610fd
o fff002fb_00013_000610fd
v -9.586056 0.100985 5.765943
v -12.331108 6.459216 3.173685
v -12.393380 -4.972150 3.173685
v 8.415586 -5.085506 3.173687
v 8.477842 6.345723 3.173680
v 4.430839 0.024629 5.765943
v 0.426911 -3.428035 -6.705260
v -7.514042 -3.384876 -6.705262
v 0.406082 -7.251571 -6.705260
v -7.534885 -7.208312 -6.705260
v 0.426911 -3.428035 3.264277
v -7.514057 -3.384777 3.264277
v 0.406082 -7.251571 3.264277
v -7.534885 -7.208312 3.264277
v -6.599214 -7.308374 1.402847
v -6.599214 -7.308416 3.248651
v -0.531982 -7.341425 1.402847
v -0.532013 -7.341467 3.248647
v -3.549217 -2.401936 5.765943
v -9.788963 1.267463 3.192501
v -8.711814 -8.505559 3.192501
v 1.546638 -8.561441 3.192501
v 1.599796 1.205263 3.192497
v -3.535763 0.067958 5.765943
v 6.048515 1.345345 4.541368
v 5.461228 1.348545 4.541368
v 6.039842 -0.246744 4.541368
v 5.452556 -0.243545 4.541368
v 6.048515 1.345345 6.808686
v 5.461228 1.348545 6.808686
v 6.039842 -0.246744 6.808686
v 5.452556 -0.243545 6.808686
v 7.397989 4.644706 -6.705260
v -10.777122 4.743615 -6.705262
v 7.352833 -3.644584 -6.705260
v -10.822292 -3.545576 -6.705260
v 7.397989 4.644706 3.264277
v -10.777137 4.743714 3.264277
v 7.352833 -3.644584 3.264277
v -10.822292 -3.545576 3.264277
v 11.378769 7.206554 -6.705260
v 5.166826 7.240294 -6.705262
v 11.333612 -1.082734 -6.705260
v 5.121671 -1.048894 -6.705260
v 11.378769 7.206554 -3.721104
v 5.166827 7.240394 -3.721104
v 11.333612 -1.082734 -3.721104
v 5.121671 -1.048894 -3.721104
v 6.165315 2.674452 -1.345660
v 6.197384 8.561440 -3.767870
v 6.139590 -2.047957 -3.767870
v 12.335602 -2.081710 -3.767868
v 12.393380 8.527558 -3.767874
v 8.348860 2.662557 -1.345660
v 0.841707 -4.022730 1.184784
v 0.841707 -4.022730 3.248651
v 6.908906 -4.055780 1.184784
v 6.908906 -4.055780 3.248647
v 7.483902 -2.555915 1.402847
v 7.483902 -2.555915 3.248649
v 7.516984 3.511378 1.402847
v 7.516984 3.511378 3.248649
v -6.599214 -7.308416 -6.680230
v -6.599214 -7.308416 -3.381804
v -0.532013 -7.341467 -6.680230
v -0.532013 -7.341467 -3.381808
v 0.841707 -4.022730 -6.680230
v 0.841707 -4.022730 -3.381804
v 6.908906 -4.055780 -6.680230
v 6.908906 -4.055780 -3.381808
v -10.910625 -2.455712 1.402847
v -10.910625 -2.455712 3.248649
v -10.877544 3.611581 1.402847
v -10.877544 3.611581 3.248649
v 0.841707 -4.022730 -2.985649
v 0.841707 -4.022730 -0.921782
v 6.908906 -4.055780 -2.985649
v 6.908906 -4.055780 -0.921786
v -10.910625 -2.455712 -6.808686
v -10.910610 -2.455716 -3.381806
v -10.877544 3.611581 -6.808686
v -10.877529 3.611577 -3.381806
v -6.599214 -7.308374 1.402847
v -6.599214 -7.308416 3.248651
v -0.531982 -7.341425 1.402847
v -0.532013 -7.341467 3.248647
v -9.834434 -3.964572 1.184784
v -9.834434 -3.964572 3.248651
v -8.299605 -3.972933 1.184784
v -8.299605 -3.972933 3.248647
v -2.550398 -3.590637 3.264277
v -2.550398 -3.590637 -6.705260
v -7.450380 -3.563944 3.264277
v -7.450380 -3.563944 -6.705260
vt 1.521027 9.177653
vt 0.874054 9.177653
vt 0.874054 8.978985
vt 1.521028 8.978985
vt 1.318381 1.269187
vt 1.318382 1.146825
vt 1.183221 1.146825
vt 1.183221 1.269190
vt 0.675585 1.199567
vt 0.743165 1.260747
vt 0.675585 1.321931
vt 1.257394 1.728827
vt 1.189813 1.667646
vt 1.294861 1.694908
vt 1.324975 1.667646
vt 0.810745 1.321929
vt 0.810746 1.199567
vt 0.732492 0.820811
vt 0.857095 0.877210
vt 0.732492 0.877210
vt 0.857095 0.820811
vt 0.775399 0.820811
vt 0.732492 0.877210
vt 0.857095 0.877210
vt 0.857095 0.820811
vt 1.233574 1.711653
vt 1.544537 1.711653
vt 1.544537 1.732509
vt 1.233574 1.732509
vt 1.318381 1.269187
vt 1.318382 1.146825
vt 1.183221 1.146825
vt 1.183221 1.269190
vt 0.675585 1.321931
vt 0.743165 1.260747
vt 0.720664 1.281118
vt 1.257394 1.728827
vt 1.189813 1.667646
vt 1.324975 1.667646
vt 0.810745 1.321929
vt 0.810746 1.199567
vt 0.757167 1.273423
vt 0.675585 1.199567
vt 0.835965 0.803139
vt 0.738737 0.803139
vt 0.738737 0.803139
vt 0.835965 0.803139
vt 0.665789 0.803139
vt 0.759887 0.803139
vt 0.759887 0.803139
vt 0.665789 0.803139
vt 1.352129 1.665601
vt 1.352129 1.863722
vt 1.105854 1.863722
vt 1.105854 1.665601
vt 0.732492 0.820811
vt 0.857095 0.877210
vt 0.732492 0.877210
vt 0.857095 0.820811
vt 0.775399 0.820811
vt 0.732492 0.877210
vt 0.857095 0.877210
vt 0.857095 0.820811
vt 1.233574 1.711653
vt 1.544537 1.711653
vt 1.544537 1.732509
vt 1.233574 1.732509
vt 0.732492 0.820811
vt 0.857095 0.877210
vt 0.732492 0.877210
vt 0.857095 0.820811
vt 0.775399 0.820811
vt 0.732492 0.877210
vt 0.857095 0.877210
vt 0.857095 0.820811
vt 1.233574 1.711653
vt 1.544537 1.711653
vt 1.544537 1.732509
vt 1.233574 1.732509
vt 1.318381 1.269187
vt 1.318382 1.146825
vt 1.183221 1.146825
vt 1.183221 1.269190
vt 0.743165 1.260747
vt 1.257394 1.728827
vt 1.189813 1.667646
vt 1.294861 1.694908
vt 1.324975 1.667646
vt 0.810745 1.321929
vt 0.810746 1.199567
vt 1.521027 9.177653
vt 0.874054 9.177653
vt 0.874054 8.955514
vt 1.521028 8.955514
vt 1.521027 9.177653
vt 0.874054 9.177653
vt 0.874054 8.978985
vt 1.521028 8.978985
vt 1.521027 9.177653
vt 0.874054 9.177653
vt 0.874054 8.978985
vt 1.521028 8.978985
vt 1.521027 9.177653
vt 0.874054 9.177653
vt 0.874054 8.978985
vt 1.521028 8.978985
vt 1.521027 9.177653
vt 0.874054 9.177653
vt 0.874054 8.978985
vt 1.521028 8.978985
vt 1.521027 9.177653
vt 0.874054 9.177653
vt 0.874054 8.955514
vt 1.521028 8.955514
vt 1.521027 9.177653
vt 0.874054 8.978985
vt 0.874054 9.177653
vt 1.521028 8.978985
vt 1.521027 9.177653
vt 0.874054 9.177653
vt 0.874054 8.978985
vt 1.521028 8.978985
vt 1.037720 9.177653
vt 0.874054 9.177653
vt 0.874054 8.955514
vt 1.037720 8.955514
vt 1.544537 1.728639
vt 1.233574 1.728639
vn -0.370635 -0.251724 0.894016
vn -0.298772 0.001628 -0.954323
vn -0.649155 -0.744551 -0.155696
vn 0.674488 -0.725115 -0.138832
vn 0.322348 -0.001756 -0.946620
vn 0.255878 -0.271174 0.927896
vn 0.999985 -0.005447 0.000000
vn -0.999985 0.005450 -0.000000
vn 0.703244 -0.710948 0.000000
vn -0.710950 -0.703243 0.000000
vn 0.999985 -0.005447 0.000000
vn -0.999985 0.005447 -0.000002
vn 0.703244 -0.710948 0.000000
vn -0.710948 -0.703244 -0.000001
vn -0.005447 -0.999985 -0.000023
vn -0.005447 -0.999985 -0.000023
vn -0.005447 -0.999985 -0.000023
vn -0.005447 -0.999985 -0.000023
vn 0.023221 -0.102321 0.994480
vn -0.883770 -0.073045 -0.462185
vn -0.658961 -0.743359 -0.114841
vn 0.681892 -0.722602 -0.113443
vn 0.871457 -0.004744 -0.490450
vn 0.041338 -0.000225 0.999145
vn 0.999985 -0.005447 0.000000
vn -0.999985 0.005447 0.000000
vn 0.703244 -0.710948 0.000000
vn -0.710948 -0.703244 0.000000
vn 0.999985 -0.005447 0.000000
vn -0.999985 0.005447 0.000000
vn 0.703244 -0.710948 0.000000
vn -0.710948 -0.703244 0.000000
vn 0.999985 -0.005447 0.000000
vn -0.999985 0.005448 -0.000001
vn 0.703244 -0.710948 0.000000
vn -0.710949 -0.703244 0.000000
vn 0.999985 -0.005447 0.000000
vn -0.999985 0.005447 -0.000001
vn 0.703244 -0.710948 0.000000
vn -0.710948 -0.703244 -0.000001
vn 0.999985 -0.005447 0.000000
vn -0.999985 0.005447 0.000000
vn 0.703244 -0.710948 0.000000
vn -0.710948 -0.703244 0.000000
vn 0.999985 -0.005447 0.000000
vn -0.999985 0.005447 0.000000
vn 0.703244 -0.710948 0.000000
vn -0.710948 -0.703244 0.000000
vn -0.002486 -0.456374 0.889785
vn -0.000001 0.000000 -1.000000
vn -0.005296 -0.972041 -0.234750
vn 0.681647 -0.718984 -0.135719
vn 0.329653 -0.001795 -0.944100
vn 0.236116 -0.277104 0.931377
vn -0.005447 -0.999985 0.000000
vn -0.005447 -0.999985 0.000000
vn -0.005447 -0.999985 0.000000
vn -0.005447 -0.999985 0.000000
vn 0.999985 -0.005452 0.000000
vn 0.999985 -0.005452 0.000000
vn 0.999985 -0.005452 0.000000
vn 0.999985 -0.005452 0.000000
vn -0.005447 -0.999985 0.000000
vn -0.005447 -0.999985 0.000000
vn -0.005447 -0.999985 0.000000
vn -0.005447 -0.999985 0.000000
vn -0.005447 -0.999985 0.000000
vn -0.005447 -0.999985 0.000000
vn -0.005447 -0.999985 0.000000
vn -0.005447 -0.999985 0.000000
vn -0.999985 0.005452 0.000000
vn -0.999985 0.005452 0.000000
vn -0.999985 0.005452 0.000000
vn -0.999985 0.005452 0.000000
vn -0.005447 -0.999985 0.000000
vn -0.005447 -0.999985 0.000000
vn -0.005447 -0.999985 0.000000
vn -0.005447 -0.999985 0.000000
vn -0.999985 0.005452 0.000004
vn -0.999985 0.005452 0.000004
vn -0.999985 0.005452 0.000004
vn -0.999985 0.005452 0.000004
vn -0.005447 -0.999985 -0.000023
vn -0.005447 -0.999985 -0.000023
vn -0.005447 -0.999985 -0.000023
vn -0.005447 -0.999985 -0.000023
vn -0.005447 -0.999985 0.000000
vn -0.005447 -0.999985 0.000000
vn -0.005447 -0.999985 0.000000
vn -0.005447 -0.999985 0.000000
vn -0.005447 -0.999985 0.000000
vn -0.005447 -0.999985 0.000000
vn -0.005447 -0.999985 0.000000
vn -0.005447 -0.999985 0.000000
g fff002fb_00013_000610fd_e1
f 40/66/40 36/67/36 94/128/94
f 94/128/94 93/127/93 40/66/40
f 54/87/54 51/86/51 52/88/52
f 49/85/49 51/86/51 54/87/54
f 53/89/53 54/84/54 52/90/52
f 51/82/51 50/83/50 53/80/53
f 53/80/53 52/81/52 51/82/51
f 48/78/48 44/79/44 43/76/43
f 43/76/43 47/77/47 48/78/48
f 48/74/48 46/75/46 42/72/42
f 42/72/42 44/73/44 48/74/48
f 47/69/47 41/68/41 45/71/45
f 41/68/41 47/69/47 43/70/43
f 91/127/91 92/128/92 35/64/35
f 35/64/35 39/65/39 91/127/91
f 40/62/40 38/63/38 34/60/34
f 34/60/34 36/61/36 40/62/40
f 39/57/39 33/56/33 37/59/37
f 33/56/33 39/57/39 35/58/35
f 32/54/32 28/55/28 27/52/27
f 27/52/27 31/53/31 32/54/32
f 32/50/32 30/51/30 26/48/26
f 26/48/26 28/49/28 32/50/32
f 31/45/31 25/44/25 29/47/29
f 25/44/25 31/45/31 27/46/27
f 5/5/5 4/6/4 3/7/3
f 3/7/3 2/8/2 5/5/5
f 3/9/3 1/10/1 2/11/2
f 1/12/1 3/13/3 6/14/6
f 6/14/6 3/13/3 4/15/4
f 5/16/5 6/10/6 4/17/4
f 7/18/7 13/19/13 9/20/9
f 13/19/13 7/18/7 11/21/11
f 8/22/8 10/23/10 14/24/14
f 14/24/14 12/25/12 8/22/8
f 9/26/9 13/27/13 14/28/14
f 14/28/14 10/29/10 9/26/9
f 23/30/23 22/31/22 21/32/21
f 21/32/21 20/33/20 23/30/23
f 20/34/20 19/35/19 24/36/24
f 19/37/19 21/38/21 22/39/22
f 23/40/23 19/35/19 22/41/22
f 23/40/23 24/42/24 19/35/19
f 21/43/21 19/35/19 20/34/20
g fff002fb_00013_000610fd_e0
f 62/95/62 60/96/60 59/97/59
f 59/97/59 61/98/61 62/95/62
f 66/99/66 64/100/64 63/101/63
f 63/101/63 65/102/65 66/99/66
f 70/103/70 68/104/68 67/105/67
f 67/105/67 69/106/69 70/103/70
f 74/107/74 71/109/71 72/108/72
f 71/109/71 74/107/74 73/110/73
f 78/111/78 76/112/76 75/113/75
f 75/113/75 77/114/77 78/111/78
f 82/115/82 79/116/79 80/117/80
f 79/116/79 82/115/82 81/118/81
f 86/119/86 84/120/84 83/121/83
f 83/121/83 85/122/85 86/119/86
f 90/123/90 88/124/88 87/125/87
f 87/125/87 89/126/89 90/123/90
f 55/93/55 57/94/57 58/91/58
f 58/91/58 56/92/56 55/93/55
f 15/3/15 17/4/17 18/1/18
f 18/1/18 16/2/16 15/3/15
