# fff0af14_00243_0081bd31
o fff0af14_00243_0081bd31
v 0.014343 -0.031003 0.764298
v 0.063351 -0.031574 0.800762
v -0.021573 -0.068815 0.784639
v 2.595500 -0.059382 0.871087
v 0.042204 -0.069531 0.836136
v 2.574743 -0.095422 0.836125
v -0.004943 -0.030772 0.679704
v 2.674109 -0.060276 0.804719
v 2.575605 -0.023329 0.836125
v 2.639443 -0.024092 0.784618
v -0.045407 0.005419 0.679563
v 2.664160 -0.024418 0.679539
v 2.554542 -0.059427 0.800762
v 2.603428 -0.059981 0.764298
v 2.638581 -0.096185 0.784618
v 2.704196 -0.060666 0.679392
v 2.704208 -0.059674 -0.455302
v -0.004954 -0.031764 -0.455615
v 0.014391 -0.032041 -0.540208
v 2.638509 -0.097115 -0.560548
v 2.674120 -0.059284 -0.580628
v 2.595512 -0.058390 -0.646996
v -0.046290 -0.068504 0.679563
v -0.046340 -0.067542 -0.455449
v -0.020689 0.005108 0.784639
v 0.043148 0.004330 0.836136
v 2.639393 -0.023130 -0.560548
v -0.045479 0.004474 -0.455449
v 2.575555 -0.022413 -0.612045
v 0.043137 0.003400 -0.612035
v -0.020700 0.004178 -0.560527
v 2.664172 -0.023488 -0.455472
v -0.056300 -0.032738 0.804719
v 0.022307 -0.033631 0.871087
v 2.603416 -0.060957 -0.540207
v 2.574671 -0.096352 -0.612045
v 0.063217 -0.032533 -0.576672
v 0.042215 -0.068616 -0.612035
v 2.663299 -0.096496 0.679539
v 2.663288 -0.097426 -0.455472
v -0.018204 -0.032079 -0.583670
v 2.632540 -0.060298 0.820503
v 2.632540 -0.060298 -0.583670
v 2.364820 -0.039900 0.432019
v 2.364820 -0.039900 0.517884
v 2.658318 -0.043378 0.517884
v 2.364429 -0.072674 0.432019
v 2.364429 -0.072674 0.517884
v 2.657926 -0.076212 0.517884
v -0.086314 -0.031280 -0.455302
v -0.086327 -0.032318 0.679392
v 2.554530 -0.060418 -0.576672
v -0.056227 -0.031716 -0.580628
v -0.021622 -0.067853 -0.560527
v 2.622763 -0.061173 -0.455615
v 2.622775 -0.060181 0.679704
v -0.018204 -0.032079 0.820514
v 0.213131 0.023723 -0.319542
v -0.080366 0.027185 -0.319542
v -0.080366 0.027185 -0.233678
v 0.213131 0.023723 -0.233678
v 2.658318 -0.043378 0.432019
v 2.657926 -0.076212 0.432019
v 2.658316 -0.043576 -0.326080
v 2.364818 -0.040099 -0.326080
v 2.364818 -0.040099 -0.240216
v 2.658316 -0.043576 -0.240216
v 2.364427 -0.072872 -0.326080
v 2.364427 -0.072872 -0.240216
v 2.657924 -0.076365 -0.240216
v 2.657924 -0.076365 -0.326080
v 0.022319 -0.032640 -0.646997
v 2.669381 -0.062554 0.731127
v -0.034566 -0.032356 -0.522227
v -0.035821 -0.071010 -0.486853
v 2.667882 -0.096047 0.696164
v 0.213131 0.023723 0.417805
v -0.080366 0.027185 0.417805
v -0.080366 0.027185 0.503670
v 0.213131 0.023723 0.503669
v -0.080758 -0.005573 0.417805
v -0.080758 -0.005573 0.503670
v 0.212678 -0.009080 0.503669
v 0.212678 -0.009080 0.417805
v -0.080758 -0.005573 -0.319542
v -0.080758 -0.005573 -0.233678
v 0.212678 -0.009080 -0.233678
v 0.212678 -0.009080 -0.319542
v 2.670858 -0.030953 0.696164
v -0.033412 0.002865 -0.486853
v -0.034668 -0.035789 -0.451902
v 2.669298 -0.064430 0.660802
vt 0.655331 0.982315
vt -0.328507 0.986663
vt -0.387770 0.244018
vt -0.405874 0.495201
vt -0.292780 0.986663
vt -0.388064 0.986663
vt -0.296992 0.013944
vt -0.293625 0.495952
vt -0.387150 0.495952
vt -0.389841 0.013944
vt -0.434124 0.991237
vt -0.313700 0.991237
vt -0.313701 0.500526
vt -0.434124 0.500526
vt -0.725320 0.013944
vt -0.387770 0.244018
vt -0.724923 0.495952
vt -0.725731 0.986663
vt -0.447623 0.986663
vt -0.405874 0.495201
vt -0.315611 0.018518
vt -0.436087 0.018518
vt -0.599308 0.025693
vt -0.443628 0.025693
vt -0.588869 0.495013
vt -0.448492 0.495013
vt 0.340789 0.967850
vt 0.342630 0.560897
vt 0.350501 0.413827
vt 0.308880 0.413828
vt -0.717920 -0.081806
vt -0.497327 0.061189
vt -0.422474 0.061189
vt -0.493578 0.500146
vt -0.426570 0.500146
vt -0.421287 0.972534
vt -0.479961 -0.072838
vt 0.683011 0.051924
vt -0.587709 0.949669
vt 0.686150 0.413828
vt 0.647762 0.413828
vt 0.645940 0.051924
vt 0.632569 0.560897
vt 0.634408 0.967850
vt 0.352321 0.051924
vt 0.312018 0.051924
vt -0.583508 -0.081806
vt -0.578704 -0.443709
vt 0.300486 0.967850
vt -0.539455 0.039031
vt -0.468697 0.440141
vt -0.535705 0.440141
vt -0.548546 -0.072838
vt -0.552252 -0.434740
vt 0.668304 0.560897
vt 0.671479 0.967850
vt -0.636687 0.457047
vt -0.777063 0.457047
vt -0.631822 0.055937
vt 0.303662 0.560897
vt -0.706245 0.972535
vt -0.289384 0.972534
vt -0.290858 0.054562
vt -0.706909 0.053204
vt -0.705903 0.498306
vt -0.288564 0.498898
vt 0.309415 0.072610
vt 0.718024 0.456751
vt 0.309415 0.456751
vt 0.718024 0.072610
vt 0.988756 0.977893
vt 0.988756 0.821484
vt 0.822771 0.821484
vt 0.822771 0.977893
vt 0.605736 0.636849
vt 0.216129 0.113750
vt 0.216129 0.502063
vt 0.605736 0.502063
vt 0.605736 0.113750
vt 0.215470 0.636849
vt 2.292566 0.707440
vt 0.707444 2.292561
vt 2.292563 2.292546
vt 0.707446 0.707441
vn 0.829309 0.010772 -0.558687
vn 0.290180 0.016699 -0.956826
vn -0.117435 -0.990517 0.071307
vn 0.359538 -0.001167 0.933130
vn -0.032169 -0.990192 0.135963
vn 0.013701 -0.988986 0.147374
vn 0.992947 0.006245 -0.118396
vn 0.853898 -0.006666 0.520398
vn 0.033304 0.989353 0.141673
vn 0.125311 0.989402 0.073350
vn -0.055672 0.998346 0.014330
vn 0.060160 0.998107 0.012775
vn -0.276654 -0.001151 -0.960969
vn -0.839793 0.005507 -0.542879
vn 0.107737 -0.991193 0.076998
vn 0.993748 -0.008549 0.111317
vn 0.993965 0.004275 -0.109613
vn 0.992931 -0.007927 0.118430
vn 0.838337 -0.006698 0.545111
vn 0.121648 -0.988559 -0.089177
vn 0.850307 0.004795 -0.526266
vn 0.365062 0.010257 -0.930927
vn -0.046176 -0.998875 0.010779
vn -0.059586 -0.998144 -0.012544
vn -0.121872 0.988521 0.089300
vn -0.021040 0.985896 0.166034
vn 0.117697 0.990449 -0.071820
vn -0.042541 0.999008 -0.013158
vn 0.032142 0.990200 -0.135905
vn -0.013655 0.988990 -0.147350
vn -0.106131 0.991394 -0.076649
vn 0.046898 0.998842 -0.010737
vn -0.850433 -0.005339 0.526056
vn -0.365003 -0.010594 0.930946
vn -0.829396 -0.010276 0.558567
vn 0.021017 -0.985952 -0.165700
vn 0.277289 0.001658 0.960785
vn -0.033097 -0.989417 -0.141275
vn 0.043195 -0.998977 0.013364
vn 0.055878 -0.998334 -0.014352
vn 0.010645 0.999943 0.000000
vn 0.010645 0.999943 0.000000
vn 0.010645 0.999943 0.000000
vn -0.698645 0.715468 0.000000
vn -0.570438 0.584175 0.577356
vn 0.008380 0.707081 0.707083
vn -0.715541 -0.698571 0.000000
vn -0.584233 -0.570378 0.577357
vn -0.008522 -0.707080 0.707083
vn -0.993892 0.009174 -0.109978
vn -0.993982 -0.004218 0.109461
vn -0.290677 -0.016909 0.956672
vn -0.853250 0.006728 -0.521458
vn -0.124700 -0.989497 -0.073112
vn -0.992904 -0.005430 0.118792
vn -0.992613 0.008695 -0.121012
vn 0.010645 0.999943 0.000000
vn 0.716102 0.697996 0.000000
vn -0.698661 0.715453 0.000000
vn -0.570450 0.584161 0.577359
vn 0.584748 0.569964 0.577244
vn 0.011847 0.999930 0.000000
vn -0.012055 -0.999927 0.000000
vn 0.011847 0.999930 0.000000
vn -0.698645 0.715468 0.000000
vn -0.570439 0.584175 0.577355
vn 0.008378 0.707081 0.707083
vn -0.715486 -0.698627 0.000000
vn -0.584194 -0.570427 0.577348
vn -0.008414 -0.707045 0.707119
vn -0.011899 -0.999929 0.000000
vn -0.359680 0.000804 -0.933075
vn -0.400152 0.040631 0.915547
vn 0.400835 -0.000884 -0.916150
vn 0.076395 -0.977085 -0.198669
vn -0.093905 -0.976658 0.193188
vn 0.716102 0.697996 0.000000
vn -0.698661 0.715453 0.000000
vn -0.570449 0.584160 0.577360
vn 0.584749 0.569964 0.577243
vn -0.715507 -0.698605 0.000000
vn -0.584208 -0.570409 0.577351
vn 0.569818 -0.584690 0.577447
vn 0.697940 -0.716156 0.000000
vn -0.715507 -0.698605 0.000000
vn -0.584209 -0.570409 0.577350
vn 0.569817 -0.584689 0.577448
vn 0.697940 -0.716156 0.000000
vn -0.058629 0.985599 0.158610
vn 0.082546 0.983440 -0.161342
vn -0.399756 -0.024058 0.916306
vn 0.401969 -0.015813 -0.915516
g fff0af14_00243_0081bd31_e0
f 40/66/40 39/65/39 56/64/56
f 56/64/56 55/63/55 40/66/40
f 54/46/54 53/30/53 72/29/72
f 72/29/72 38/45/38 54/46/54
f 37/28/37 38/27/38 36/44/36
f 36/44/36 52/43/52 37/28/37
f 24/14/24 23/13/23 51/12/51
f 51/12/51 50/11/50 24/14/24
f 36/42/36 22/41/22 21/40/21
f 50/39/50 54/26/54 24/25/24
f 21/40/21 20/38/20 36/42/36
f 38/27/38 37/28/37 19/60/19
f 24/25/24 19/24/19 18/23/18
f 38/45/38 72/29/72 22/41/22
f 19/59/19 24/58/24 54/57/54
f 52/43/52 36/44/36 20/56/20
f 17/62/17 16/61/16 39/65/39
f 39/65/39 40/66/40 17/62/17
f 20/56/20 35/55/35 52/43/52
f 20/54/20 21/53/21 17/37/17
f 56/10/56 39/9/39 15/8/15
f 15/8/15 14/7/14 56/10/56
f 17/36/17 40/35/40 20/34/20
f 55/33/55 35/32/35 40/35/40
f 20/52/20 40/51/40 35/50/35
f 19/60/19 54/49/54 38/27/38
f 39/9/39 16/6/16 8/5/8
f 8/5/8 15/8/15 39/9/39
f 18/22/18 7/21/7 23/13/23
f 54/48/54 50/31/50 53/47/53
f 14/7/14 15/8/15 6/4/6
f 6/4/6 13/3/13 14/7/14
f 23/13/23 24/14/24 18/22/18
f 5/20/5 34/19/34 33/18/33
f 15/8/15 8/5/8 4/2/4
f 4/2/4 6/4/6 15/8/15
f 33/18/33 3/17/3 5/20/5
f 2/16/2 5/20/5 3/17/3
f 13/3/13 6/4/6 5/20/5
f 5/20/5 2/16/2 13/3/13
f 3/17/3 1/15/1 2/16/2
f 3/17/3 33/18/33 51/12/51
f 6/4/6 4/2/4 34/19/34
f 34/19/34 5/20/5 6/4/6
f 51/12/51 23/13/23 3/17/3
f 1/15/1 3/17/3 23/13/23
f 23/13/23 7/21/7 1/15/1
f 22/41/22 36/42/36 38/45/38
f 32/66/32 56/64/56 12/65/12
f 56/64/56 32/66/32 55/63/55
f 31/46/31 72/29/72 53/30/53
f 72/29/72 31/46/31 30/45/30
f 37/28/37 29/44/29 30/27/30
f 29/44/29 37/28/37 52/43/52
f 28/14/28 51/12/51 11/13/11
f 51/12/51 28/14/28 50/11/50
f 29/42/29 21/40/21 22/41/22
f 53/47/53 50/31/50 31/48/31
f 21/40/21 29/42/29 27/38/27
f 30/27/30 19/60/19 37/28/37
f 31/57/31 28/58/28 19/59/19
f 30/45/30 22/41/22 72/29/72
f 18/23/18 19/24/19 28/25/28
f 52/43/52 27/56/27 29/44/29
f 17/62/17 12/65/12 16/61/16
f 12/65/12 17/62/17 32/66/32
f 27/56/27 52/43/52 35/55/35
f 27/54/27 17/37/17 21/53/21
f 56/10/56 10/8/10 12/9/12
f 10/8/10 56/10/56 14/7/14
f 17/36/17 27/34/27 32/35/32
f 35/50/35 32/51/32 27/52/27
f 32/35/32 35/32/35 55/33/55
f 19/60/19 30/27/30 31/49/31
f 12/9/12 8/5/8 16/6/16
f 8/5/8 12/9/12 10/8/10
f 18/22/18 11/13/11 7/21/7
f 28/25/28 31/26/31 50/39/50
f 14/7/14 9/4/9 10/8/10
f 9/4/9 14/7/14 13/3/13
f 11/13/11 18/22/18 28/14/28
f 26/20/26 33/18/33 34/19/34
f 10/8/10 4/2/4 8/5/8
f 4/2/4 10/8/10 9/4/9
f 33/18/33 26/20/26 25/17/25
f 2/16/2 25/17/25 26/20/26
f 13/3/13 26/20/26 9/4/9
f 26/20/26 13/3/13 2/16/2
f 25/17/25 2/16/2 1/15/1
f 25/17/25 51/12/51 33/18/33
f 9/4/9 34/19/34 4/2/4
f 34/19/34 9/4/9 26/20/26
f 51/12/51 25/17/25 11/13/11
f 1/15/1 11/13/11 25/17/25
f 11/13/11 1/15/1 7/21/7
f 22/41/22 30/45/30 29/42/29
f 71/79/71 70/78/70 69/77/69
f 69/77/69 68/76/68 71/79/71
f 69/77/69 70/78/70 67/75/67
f 67/75/67 66/80/66 69/77/69
f 66/74/66 65/73/65 68/72/68
f 68/72/68 69/71/69 66/74/66
f 64/70/64 66/69/66 67/68/67
f 66/69/66 64/70/64 65/67/65
f 63/79/63 49/78/49 48/77/48
f 48/77/48 47/76/47 63/79/63
f 48/77/48 49/78/49 46/75/46
f 46/75/46 45/80/45 48/77/48
f 45/74/45 44/73/44 47/72/47
f 47/72/47 48/71/48 45/74/45
f 62/70/62 45/69/45 46/68/46
f 45/69/45 62/70/62 44/67/44
f 88/79/88 87/78/87 86/77/86
f 86/77/86 85/76/85 88/79/88
f 86/77/86 87/78/87 61/75/61
f 61/75/61 60/80/60 86/77/86
f 60/74/60 59/73/59 85/72/85
f 85/72/85 86/71/86 60/74/60
f 58/70/58 60/69/60 61/68/61
f 60/69/60 58/70/58 59/67/59
f 84/79/84 83/78/83 82/77/82
f 82/77/82 81/76/81 84/79/84
f 82/77/82 83/78/83 80/75/80
f 80/75/80 79/80/79 82/77/82
f 79/74/79 78/73/78 81/72/81
f 81/72/81 82/71/82 79/74/79
f 77/70/77 79/69/79 80/68/80
f 79/69/79 77/70/77 78/67/78
f 92/3/92 76/4/76 75/20/75
f 75/20/75 74/16/74 92/3/92
f 76/4/76 73/2/73 91/19/91
f 91/19/91 75/20/75 76/4/76
f 92/3/92 90/20/90 89/4/89
f 90/20/90 92/3/92 74/16/74
f 89/4/89 91/19/91 73/2/73
f 91/19/91 89/4/89 90/20/90
f 84/1/84 80/1/80 83/1/83
f 80/1/80 84/1/84 77/1/77
f 88/1/88 61/1/61 87/1/87
f 61/1/61 88/1/88 58/1/58
g fff0af14_00243_0081bd31_e7
f 43/81/43 57/82/57 42/83/42
f 57/82/57 43/81/43 41/84/41
