# fff0aa7b_00316_007b3470
o fff0aa7b_00316_007b3470
v -4.523796 -4.205496 0.798401
v -4.523796 -4.289171 0.798401
v -4.523796 -4.799992 1.486023
v -4.523796 -5.478161 0.798401
v -4.523796 -2.463768 1.437286
v -4.523796 -1.869274 0.846864
v -4.523796 -1.869274 0.846864
v -4.523796 -1.827515 0.798401
v -4.523796 -1.316692 1.486023
v -4.523796 -0.652817 0.814942
v -4.523796 -1.233017 1.486023
v -4.523796 -0.722198 0.798401
v -4.523796 -1.274776 1.437286
v -4.523796 -4.883667 1.486023
v -4.523796 -5.394485 0.798401
v -4.523796 -5.436245 0.846864
v -4.523796 -4.205496 0.798401
v -4.523796 -4.247255 0.846864
v -4.523796 -4.247255 0.846864
v -4.523796 -4.841749 1.437286
v -4.523796 -6.583424 0.798401
v -4.523796 -6.667099 0.798401
v -4.523796 -7.177919 1.486023
v -4.523796 -6.625183 0.846864
v -4.523796 -7.261595 1.486023
v -4.523796 -7.772415 0.798401
v -4.523796 -7.843655 0.813233
v -4.523796 -3.100182 0.798401
v -4.523796 -3.058266 0.846864
v -4.523796 -3.652760 1.437286
v -4.523796 -3.694675 1.486023
v -4.523796 -3.611000 1.486023
v -4.523796 -6.583424 0.798401
v -4.523796 -6.625183 0.846864
v -4.523796 -5.436192 0.846864
v -4.523796 -7.219679 1.437286
v -4.523796 -6.072605 1.486023
v -4.523796 -5.988930 1.486023
v -4.523796 -5.478109 0.798401
v -4.523796 -6.030687 1.437286
v -4.655148 -22.306385 5.402466
v -4.642269 -8.278561 0.423645
v -4.642269 -0.251282 0.423645
v -4.642269 -0.251282 0.032410
v -4.642269 -8.278561 0.032410
v -4.654961 28.405746 5.402466
v 4.345028 28.405746 5.402466
v 4.344845 22.405750 5.402466
v -4.655144 22.405746 5.402466
v -4.655140 22.405750 9.318420
v -4.655148 -28.405750 -9.318420
v -4.655148 -28.405741 5.402466
v 4.344845 -28.405743 5.402466
v 4.344845 -22.158131 5.401855
v 4.671871 -22.158133 5.731384
v -4.655148 -22.306385 9.318420
v -4.655144 -7.950256 9.318420
v -4.655144 -7.950256 0.681580
v -4.655144 -0.587524 0.681580
v -4.655148 -0.587524 9.318420
v 4.344845 -22.306387 9.318420
v 4.344845 -22.306383 5.402466
v 4.344845 -22.306385 6.160398
v 4.344845 28.405739 -9.318420
v -4.654957 28.405739 -9.318420
v 4.344845 22.405750 9.176636
v 4.344845 -28.405743 -9.318420
v 4.671871 -22.310049 5.731628
v -4.655148 -22.306385 9.318420
v -4.655148 -22.306385 5.402466
v -4.654976 22.405746 -9.318420
v -4.655136 -22.306387 -9.318420
v -4.655144 -22.306385 0.681580
v -4.655087 22.405746 0.681580
v -4.468502 -8.278570 9.318420
v -4.468502 -7.857534 9.318420
v -4.468502 -7.857534 5.402466
v -4.468502 -8.278570 5.402466
v -4.468502 -7.857534 0.822205
v -4.468502 -8.278570 0.430969
v -4.468502 -0.650513 0.822205
v -4.468502 -0.251282 0.430969
v -4.468502 -0.650513 5.402466
v -4.468502 -0.650513 9.318420
v -4.468502 -0.251282 9.318420
v -4.468502 -0.251282 5.402466
v -4.671871 -0.650513 9.318420
v -4.671871 -0.650513 5.402466
v -4.671871 -7.857534 9.318420
v -4.671871 -7.857534 5.402466
v -4.607101 -4.045998 -0.449903
v -4.607105 -4.413349 -0.078954
v -4.607101 -4.045998 -0.078954
v -4.607105 -4.413347 -0.449903
v -4.607105 -8.780920 -0.449903
v -4.607105 -9.148270 -0.078954
v -4.607105 -8.780920 -0.078954
v -4.607105 -9.148270 -0.449903
v -4.607101 0.211891 -0.078954
v -4.607101 0.211895 -0.449903
v -4.671871 -7.857534 0.822205
v -4.671871 -0.650513 0.822205
v -4.655148 -22.158131 5.401855
v -4.607101 0.579243 -0.449903
v -4.607101 0.579243 -0.078954
v -4.655148 -22.310047 5.731628
v -4.655148 -22.158131 5.731384
v -4.501572 -7.857534 1.511719
v -4.655144 -7.950256 5.402466
v -4.655144 -0.587524 5.402466
v 4.344845 -22.306387 5.402466
v -4.655148 -22.306387 5.402466
v -4.638802 -7.857534 1.511719
v -4.638802 -0.650513 1.511719
v -4.501572 -0.650513 1.511719
v -4.501572 -0.650513 1.456787
v -4.501572 -7.857534 1.456787
v -4.523796 -3.100182 0.798401
v -4.523796 -3.058266 0.846864
v -4.523796 -3.016506 0.798401
v -4.523796 -2.505684 1.486023
v -4.523796 -2.422009 1.486023
v -4.523796 -1.911190 0.798401
v -4.523796 -1.827515 0.798401
v -4.541122 -7.857534 0.822205
v -4.541122 -0.650513 0.822205
v -4.541122 -7.857534 1.484497
v -4.541122 -0.650513 1.484497
vt 0.691342 0.961940
vt -2.137723 1.883225
vt -2.137723 1.116773
vt 4.761785 1.883209
vt 4.761785 1.116774
vt 0.691342 0.961940
vt 0.691342 0.961940
vt 0.691342 0.961940
vt 168.167053 -123.500061
vt -165.166504 126.500061
vt 168.167053 126.500061
vt -0.681315 2.355403
vt 0.628532 2.355403
vt 0.628532 2.079175
vt -0.681315 2.079175
vt 0.691342 0.961940
vt 1.908365 1.166797
vt 1.882312 1.114164
vt 1.908365 2.000003
vt 2.000036 0.999974
vt 1.000038 0.999937
vt 2.000034 1.999937
vt -1.396983 1.883224
vt 4.033112 1.883210
vt 1.668685 1.997666
vt 0.737669 2.078269
vt 0.737384 2.078269
vt 0.628532 2.355403
vt 0.628532 2.079175
vt 1.000036 1.999901
vt -20.247679 2.079254
vt 80.828560 2.074499
vt 0.737384 2.078269
vt 0.737669 2.078269
vt -0.572178 2.078269
vt -0.572462 2.078269
vt 1.719530 1.676708
vt -49688244.000000 2337.846924
vt -496981.562500 25.534739
vt -0.644288 2.078269
vt -0.681315 2.078271
vt 2.454717 1.996434
vt 1.668685 1.997666
vt 1.939899 2.174120
vt 1.939899 1.927400
vt 1.284363 1.927400
vt 2.276100 2.174120
vt 3.326029 1.927399
vt 2.276100 1.927400
vt 168.167053 126.500061
vt -165.166504 126.500061
vt -100096600.000000 4709.481445
vt -58638152.000000 2758.568604
vt 0.916165 7.624431
vt 12.023410 -3.482809
vt 1.284363 2.174120
vt 3.326029 2.174119
vt 1.939899 1.629965
vt 2.276100 1.629965
vt 3.326029 0.999925
vt 1.284363 0.999926
vt 3.600003 0.999925
vt 1.284363 1.629965
vt 1.005851 0.999926
vt 1.005852 1.927400
vt 3.326029 1.629965
vt 3.600003 1.927398
vt -86904024.000000 4094.334961
vt -39461396.000000 1857.098389
vt -101814504.000000 4790.307129
vt -50391848.000000 2371.485107
vt -0.139130 6.569135
vt 10.968119 -4.538106
vt 2.454717 1.996433
vt 2.454717 1.598543
vt 1.731733 1.599677
vn 1.000000 0.000000 0.000000
vn 1.000000 0.000000 0.000000
vn 1.000000 0.000000 0.000000
vn 1.000000 0.000000 0.000000
vn 1.000000 0.000000 0.000000
vn 1.000000 0.000000 0.000000
vn 1.000000 0.000000 0.000000
vn 1.000000 0.000000 0.000000
vn 1.000000 0.000000 0.000000
vn 1.000000 0.000000 0.000000
vn 1.000000 0.000000 0.000000
vn 1.000000 0.000000 0.000000
vn 1.000000 0.000000 0.000000
vn 1.000000 0.000000 0.000000
vn 1.000000 0.000000 0.000000
vn 1.000000 0.000000 0.000000
vn 1.000000 0.000000 0.000000
vn 1.000000 0.000000 0.000000
vn 1.000000 0.000000 0.000000
vn 1.000000 0.000000 0.000000
vn 1.000000 0.000000 0.000000
vn 1.000000 0.000000 0.000000
vn 1.000000 0.000000 0.000000
vn 1.000000 0.000000 0.000000
vn 1.000000 0.000000 0.000000
vn 1.000000 0.000000 0.000000
vn 1.000000 0.000000 0.000000
vn 1.000000 0.000000 0.000000
vn 1.000000 0.000000 0.000000
vn 1.000000 0.000000 0.000000
vn 1.000000 0.000000 0.000000
vn 1.000000 0.000000 0.000000
vn 1.000000 0.000000 0.000000
vn 1.000000 0.000000 0.000000
vn 1.000000 0.000000 0.000000
vn 1.000000 0.000000 0.000000
vn 1.000000 0.000000 0.000000
vn 1.000000 0.000000 0.000000
vn 1.000000 0.000000 0.000000
vn 1.000000 0.000000 0.000000
vn 1.000000 -0.000000 0.000000
vn 1.000000 0.000000 0.000000
vn 1.000000 0.000000 0.000000
vn 1.000000 0.000000 0.000000
vn 1.000000 0.000000 0.000000
vn 0.707098 -0.707116 0.000004
vn 0.000000 -1.000000 0.000001
vn 0.000000 -1.000000 0.000000
vn 0.948680 -0.316237 0.000007
vn 0.710661 -0.703535 -0.000000
vn 0.577350 0.577350 0.577350
vn 0.577350 0.577350 -0.577350
vn 0.000000 0.707107 -0.707107
vn 0.000000 1.000000 0.000005
vn 0.000000 0.450091 0.892982
vn 1.000000 -0.000000 0.000000
vn 1.000000 -0.000000 0.000000
vn 1.000000 -0.000000 0.000001
vn 1.000000 -0.000002 0.000006
vn 1.000000 -0.000000 0.000001
vn 0.000000 1.000000 0.000001
vn -0.000000 1.000000 0.000003
vn -0.000000 1.000000 0.000001
vn 0.000000 -0.707109 0.707104
vn 0.577347 -0.577352 0.577352
vn 0.000000 -1.000000 0.000000
vn -0.000000 0.707107 0.707107
vn 0.000000 0.001607 0.999999
vn 0.000000 1.000000 0.000000
vn -0.000000 1.000000 0.000000
vn 0.707103 -0.000002 0.707111
vn 0.707106 -0.000001 0.707107
vn 1.000000 -0.000000 0.000001
vn 1.000000 -0.000012 0.000009
vn 1.000000 0.000000 0.000000
vn 0.707107 0.707107 0.000000
vn 0.707107 0.707107 0.000000
vn 1.000000 0.000000 0.000000
vn 0.904534 0.301511 0.301511
vn 1.000000 0.000000 0.000000
vn 0.904534 -0.301511 0.301511
vn 1.000000 0.000000 0.000000
vn 0.707107 -0.707107 0.000000
vn 0.707107 -0.707107 0.000000
vn 1.000000 0.000000 0.000000
vn 1.000000 0.000000 0.000000
vn 0.000000 -1.000000 0.000000
vn 0.000000 -1.000000 0.000000
vn 0.000000 1.000000 0.000000
vn 0.000000 1.000000 0.000000
vn 1.000000 -0.000010 0.000000
vn 1.000000 -0.000010 -0.000000
vn 1.000000 -0.000010 -0.000000
vn 1.000000 -0.000010 -0.000000
vn 1.000000 0.000000 0.000000
vn 1.000000 0.000000 0.000000
vn 1.000000 0.000000 0.000000
vn 1.000000 0.000000 0.000000
vn 1.000000 0.000000 0.000000
vn 1.000000 0.000000 0.000000
vn 0.000000 0.707107 0.707107
vn 0.000000 -0.707107 0.707107
vn 0.000000 1.000000 0.000000
vn 1.000000 0.000000 0.000000
vn 1.000000 0.000000 0.000000
vn 0.000000 0.001607 0.999999
vn 0.000000 0.707676 0.706537
vn 0.707107 0.000000 0.707107
vn 1.000000 -0.000000 0.000000
vn 1.000000 0.000000 0.000000
vn 0.000000 0.000000 -1.000000
vn 0.000000 0.000000 -1.000000
vn 0.000000 0.000000 1.000000
vn 0.000000 0.000000 1.000000
vn 0.707107 0.000000 0.707107
vn 1.000000 0.000000 0.000000
vn 1.000000 0.000000 0.000000
vn 1.000000 0.000000 0.000000
vn 1.000000 0.000000 0.000000
vn 1.000000 0.000000 0.000000
vn 1.000000 0.000000 0.000000
vn 1.000000 0.000000 0.000000
vn 1.000000 0.000000 0.000000
vn 1.000000 0.000000 0.000000
vn 1.000000 0.000000 0.000000
vn 1.000000 0.000000 0.000000
vn 1.000000 0.000000 0.000000
vn 1.000000 0.000000 0.000000
g fff0aa7b_00316_007b3470_e10
f 105/22/105 100/21/100 104/20/104
f 100/21/100 105/22/105 99/30/99
f 98/21/98 97/22/97 96/30/96
f 97/22/97 98/21/98 95/20/95
f 94/21/94 93/22/93 92/30/92
f 93/22/93 94/21/94 91/20/91
g fff0aa7b_00316_007b3470_e8
f 108/38/108 115/39/115 114/32/114
f 114/32/114 113/31/113 108/38/108
f 107/74/107 68/43/68 55/25/55
f 68/43/68 107/74/107 106/42/106
f 79/38/79 81/39/81 102/32/102
f 102/32/102 101/31/101 79/38/79
g fff0aa7b_00316_007b3470_e7
f 16/71/16 15/53/15 14/38/14
f 32/52/32 31/38/31 30/70/30
f 13/69/13 12/53/12 11/38/11
f 10/68/10 11/38/11 12/53/12
f 13/70/13 9/38/9 8/53/8
f 7/71/7 8/53/8 9/38/9
f 124/39/124 6/68/6 123/53/123
f 122/52/122 121/38/121 5/70/5
f 5/69/5 123/53/123 122/38/122
f 6/68/6 122/38/122 123/53/123
f 120/39/120 119/68/119 118/53/118
f 5/70/5 121/38/121 120/53/120
f 119/71/119 120/53/120 121/38/121
f 11/52/11 9/38/9 13/70/13
f 40/69/40 39/53/39 38/38/38
f 29/68/29 32/38/32 28/53/28
f 30/69/30 28/53/28 32/38/32
f 38/52/38 37/38/37 40/70/40
f 27/71/27 26/53/26 25/38/25
f 36/70/36 25/38/25 26/53/26
f 35/68/35 38/38/38 39/53/39
f 24/68/24 23/38/23 22/53/22
f 36/69/36 22/53/22 23/38/23
f 23/52/23 25/38/25 36/70/36
f 21/39/21 24/68/24 22/53/22
f 34/71/34 33/53/33 37/38/37
f 40/70/40 37/38/37 33/53/33
f 117/52/117 116/53/116 108/38/108
f 115/39/115 108/38/108 116/53/116
f 86/36/86 85/35/85 84/34/84
f 84/34/84 83/33/83 86/36/86
f 82/40/82 86/36/86 83/33/83
f 83/33/83 81/39/81 82/40/82
f 80/41/80 82/40/82 81/39/81
f 81/39/81 79/38/79 80/41/80
f 78/15/78 80/41/80 79/38/79
f 79/38/79 77/14/77 78/15/78
f 76/13/76 75/12/75 78/15/78
f 76/13/76 78/15/78 77/14/77
f 20/70/20 14/38/14 15/53/15
f 15/39/15 16/68/16 4/53/4
f 19/68/19 3/38/3 2/53/2
f 20/69/20 2/53/2 3/38/3
f 3/52/3 14/38/14 20/70/20
f 1/39/1 19/68/19 2/53/2
f 18/71/18 17/53/17 31/38/31
f 30/70/30 31/38/31 17/53/17
g fff0aa7b_00316_007b3470_e36
f 128/55/128 127/54/127 126/73/126
f 125/72/125 126/73/126 127/54/127
g fff0aa7b_00316_007b3470_e0
f 71/24/71 72/23/72 64/5/64
f 65/4/65 71/24/71 64/5/64
f 67/3/67 64/5/64 72/23/72
f 72/23/72 51/2/51 67/3/67
g fff0aa7b_00316_007b3470_e1
f 110/49/110 49/48/49 60/47/60
f 46/67/46 49/48/49 74/66/74
f 52/65/52 51/64/51 73/63/73
f 52/65/52 73/63/73 41/46/41
f 74/66/74 65/62/65 46/67/46
f 51/64/51 72/61/72 73/63/73
f 71/60/71 65/62/65 74/66/74
f 74/66/74 59/59/59 71/60/71
f 59/59/59 58/58/58 72/61/72
f 58/58/58 41/46/41 73/63/73
f 109/45/109 41/46/41 58/58/58
f 49/48/49 59/59/59 74/66/74
f 73/63/73 72/61/72 58/58/58
f 59/59/59 49/48/49 110/49/110
f 72/61/72 71/60/71 59/59/59
f 49/48/49 50/57/50 60/47/60
f 57/44/57 56/56/56 41/46/41
f 57/44/57 41/46/41 109/45/109
g fff0aa7b_00316_007b3470_e20
f 63/37/63 62/76/62 70/75/70
f 69/74/69 63/37/63 70/75/70
f 61/25/61 63/37/63 69/74/69
g fff0aa7b_00316_007b3470_e41
f 45/41/45 44/40/44 43/39/43
f 43/39/43 42/38/42 45/41/45
g fff0aa7b_00316_007b3470_e2
f 112/51/112 53/11/53 52/10/52
f 53/11/53 112/51/112 111/50/111
f 67/9/67 52/10/52 53/11/53
f 52/19/52 67/18/67 51/17/51
f 50/8/50 49/7/49 48/6/48
f 48/6/48 66/16/66 50/8/50
f 47/1/47 65/1/65 64/1/64
f 65/1/65 47/1/47 46/1/46
g fff0aa7b_00316_007b3470_e9
f 77/14/77 90/29/90 76/13/76
f 89/28/89 76/13/76 90/29/90
f 77/14/77 79/38/79 101/31/101
f 101/31/101 90/29/90 77/14/77
f 81/39/81 83/33/83 88/27/88
f 88/27/88 102/32/102 81/39/81
f 83/33/83 84/34/84 87/26/87
f 87/26/87 88/27/88 83/33/83
f 107/74/107 54/37/54 103/75/103
f 55/25/55 54/37/54 107/74/107
