# fff06058_00060_0016ea0e
o fff06058_00060_0016ea0e
v -0.989267 -1.713212 0.015230
v -1.028809 -1.736908 0.412445
v -0.995972 -1.750031 0.412445
v -0.970581 -1.686493 0.412445
v -1.003418 -1.673370 0.412445
v 3.474487 -1.738043 0.065768
v 3.462870 -1.713200 0.065768
v 3.462870 -1.713200 0.015230
v 3.474487 -1.738043 0.015230
v 3.486698 -1.765320 0.375829
v 3.449432 -1.682800 0.375829
v 3.449432 -1.682800 0.449065
v 3.486698 -1.765320 0.449065
v -1.028809 -1.736908 -0.449066
v -0.966644 -1.676697 -0.449066
v -0.995972 -1.750031 -0.449066
v -0.999512 -1.663574 -0.449066
v 2.314024 -1.694710 0.412446
v 2.314024 -1.763130 0.412446
v 2.278685 -1.694710 0.412446
v 2.278685 -1.763130 0.412446
v 2.314024 -1.684151 -0.449065
v 2.278685 -1.763130 -0.449065
v 2.278685 -1.684151 -0.449065
v 2.314024 -1.763130 -0.449065
v 3.463041 -1.677284 0.412446
v 3.496916 -1.736732 0.412446
v 3.432341 -1.694771 0.412446
v 3.466215 -1.754219 0.412446
v 0.457029 -1.694710 0.412446
v 0.457029 -1.763130 0.412446
v 0.492369 -1.763130 0.412446
v 0.492369 -1.694710 0.412446
v 3.457823 -1.668098 -0.449065
v 3.466215 -1.754219 -0.449065
v 3.427122 -1.685585 -0.449065
v 3.496916 -1.736732 -0.449065
v 0.457029 -1.763130 -0.449065
v 0.492369 -1.684151 -0.449065
v 0.492369 -1.763130 -0.449065
v 0.457029 -1.684151 -0.449065
v 5.396729 1.154907 0.015228
v 5.396729 1.154907 0.065765
v 5.423737 1.145874 0.065765
v 5.423737 1.145874 0.015228
v 5.368195 1.177185 0.375824
v 5.453461 1.146790 0.375824
v 5.368195 1.177185 0.449066
v 5.453461 1.146790 0.449066
v 4.072815 -0.882690 -0.449066
v 4.044800 -0.906677 0.412445
v 4.053680 -0.912415 -0.449066
v 4.063965 -0.876953 0.412445
v 4.784271 0.311218 -0.449066
v 4.803436 0.340881 0.412445
v 4.803436 0.340881 -0.449066
v 4.784271 0.311218 0.412445
v 4.869781 0.298157 -0.449066
v 4.841766 0.274109 0.412445
v 4.850647 0.268433 -0.449066
v 4.860931 0.303833 0.412445
v 3.987305 -0.869629 -0.449066
v 4.006470 -0.839905 0.412445
v 4.006470 -0.839905 -0.449066
v 3.987305 -0.869629 0.412445
v -1.000916 -1.738043 0.065768
v -0.989298 -1.713200 0.065768
v -0.989298 -1.713200 0.015230
v -1.000916 -1.738043 0.015230
v -1.013126 -1.765320 0.375829
v -0.975861 -1.682800 0.375829
v -0.975861 -1.682800 0.449065
v -1.013126 -1.765320 0.449065
v -2.923157 1.154907 0.015228
v -2.923157 1.154907 0.065765
v -2.950165 1.145874 0.065765
v -2.950165 1.145874 0.015228
v -2.894623 1.177185 0.375824
v -2.979889 1.146790 0.375824
v -2.894623 1.177185 0.449066
v -2.979889 1.146790 0.449066
v -1.599243 -0.882690 -0.449066
v -1.571228 -0.906677 0.412445
v -1.580109 -0.912415 -0.449066
v -1.590393 -0.876953 0.412445
v -2.310699 0.311218 -0.449066
v -2.329865 0.340881 0.412445
v -2.329865 0.340881 -0.449066
v -2.310699 0.311218 0.412445
v -2.396210 0.298157 -0.449066
v -2.368195 0.274109 0.412445
v -2.377075 0.268433 -0.449066
v -2.387360 0.303833 0.412445
v -1.513733 -0.869629 -0.449066
v -1.532898 -0.839905 0.412445
v -1.532898 -0.839905 -0.449066
v -1.513733 -0.869629 0.412445
vt 1.772963 1.877564
vt 1.773517 1.664528
vt 1.769373 1.877564
vt 1.773517 1.664528
vt 1.769373 1.877564
vt 1.769373 1.698312
vt 1.772963 1.877564
vt 1.772963 1.877564
vt nan nan
vt nan nan
vt 1.271993 1.690555
vt 1.273795 1.690555
vt 1.270118 1.777460
vt 1.275801 1.777460
vt 1.755898 1.215893
vt 1.755196 1.361142
vt 1.755898 1.215893
vt 1.755196 1.361142
vt 1.755898 1.215893
vt 1.755196 1.361142
vt 1.755898 1.215893
vt 1.755196 1.361142
vt 1.769373 1.877564
vt 1.773517 1.664528
vt 1.772963 1.877564
vt 1.769373 1.698312
vt 1.769373 1.698312
vt 1.750647 1.361142
vt 1.750647 1.361142
vt 1.750647 1.238927
vt 1.750647 1.238927
vt 1.750647 1.361142
vt 1.750647 1.238927
vt 1.750647 1.361142
vt 1.750647 1.238927
vt 1.772963 1.877564
vt 1.769373 1.698312
vt 1.769373 1.877564
vt 1.773517 1.664528
vt 1.769373 1.877564
vt 1.773517 1.664528
vt 1.772963 1.877564
vt 1.769373 1.698312
vt 1.750238 1.698768
vt 1.750238 1.710472
vt 1.689900 1.780823
vt 1.689903 1.769120
vt 1.276559 1.777460
vt 1.270875 1.777460
vt nan nan
vt nan nan
vt 1.274475 1.690555
vt 1.272673 1.690555
vt 1.687681 1.715534
vt 1.000000 -54.275475
vt -139030.390625 -122812.750000
vt 1.000000 -55.277184
vt -133953.656250 -138406.062500
vt -139030.390625 -122812.750000
vt 1.000000 -54.275475
vt -133953.656250 -138406.062500
vt 1.000000 -55.277184
vt 1.750647 1.361142
vt 1.750647 1.238927
vt 1.750647 1.361142
vt 1.755898 1.215893
vt 1.755196 1.361142
vt 1.755898 1.215893
vt 1.755196 1.361142
vt 1.769373 1.698312
vt 1.769373 1.877564
vt 1.773517 1.664528
vt 1.750647 1.238927
vt 1.271994 1.690555
vt 1.273795 1.690555
vt 1.270118 1.777460
vt 1.275801 1.777460
vt 1.755898 1.215893
vt 1.755196 1.361142
vt 1.755898 1.366992
vt 1.755898 1.355289
vt 1.755898 1.215893
vt 1.755196 1.361142
vt 1.753921 1.305741
vt 1.753921 1.297665
vt 1.750295 1.355289
vt 1.750295 1.366992
vt 1.750647 1.238927
vt 1.750647 1.361142
vt 1.750647 1.238927
vt 1.750647 1.361142
vt 1.772963 1.877564
vt 1.769373 1.698312
vt 1.769373 1.877564
vt 1.773517 1.664528
vt 1.773517 1.664528
vt 1.769373 1.877564
vt 1.769373 1.698312
vt 1.772963 1.877564
vt 1.772539 1.151371
vt 1.772539 1.374594
vt 1.755899 1.366992
vt 1.755899 1.355289
vt 1.275801 1.777460
vt 1.270118 1.777460
vt 1.273795 1.690555
vt 1.271994 1.690555
vt 1.772704 1.151371
vt 1.772704 1.374594
vt 1.753921 1.297665
vt 1.753921 1.305741
vt 1.750295 1.355289
vt 1.750295 1.366992
vn -0.000000 1.000000 -0.000244
vn -0.919015 -0.394221 0.000006
vn 0.394219 -0.919017 0.000000
vn 0.920522 0.390596 0.008632
vn -0.397804 0.917430 0.008637
vn 0.369781 -0.696261 0.615209
vn -0.262264 0.493146 0.829472
vn -0.469547 0.882907 0.000000
vn 0.469049 -0.883172 0.000000
vn 0.469209 -0.883087 0.000000
vn -0.470568 0.882363 0.000000
vn -0.262622 0.492442 0.829777
vn 0.369918 -0.696213 0.615182
vn -0.750354 -0.321914 -0.577356
vn 0.751221 0.325714 -0.574088
vn 0.321784 -0.750408 -0.577358
vn -0.320011 0.753632 -0.574135
vn 0.709849 0.704301 0.008632
vn 0.707107 -0.707107 0.000000
vn -0.709849 0.704301 0.008632
vn -0.707107 -0.707107 0.000000
vn 0.576708 0.581200 -0.574120
vn -0.577350 -0.577350 -0.577350
vn -0.576709 0.581200 -0.574120
vn 0.577350 -0.577350 -0.577350
vn 0.268150 0.963338 0.008637
vn 0.964420 -0.264376 0.000000
vn -0.965415 0.260574 0.008626
vn -0.264381 -0.964418 -0.000011
vn -0.709849 0.704301 0.008632
vn -0.707107 -0.707107 0.000000
vn 0.707107 -0.707107 0.000000
vn 0.709849 0.704301 0.008632
vn 0.213470 0.790457 -0.574115
vn -0.215930 -0.787427 -0.577350
vn -0.788775 0.219595 -0.574118
vn 0.787430 -0.215927 -0.577347
vn -0.577350 -0.577350 -0.577350
vn 0.576708 0.581200 -0.574120
vn 0.577350 -0.577350 -0.577350
vn -0.576709 0.581200 -0.574120
vn -0.829132 0.559053 0.000000
vn -0.538122 0.362836 0.760773
vn 0.638428 -0.431515 0.637342
vn 0.828501 -0.559987 0.000000
vn -0.830424 0.557131 0.000000
vn 0.828705 -0.559686 0.000000
vn -0.542701 0.364098 0.756907
vn 0.634592 -0.428587 0.643122
vn 0.978170 0.207626 0.008685
vn 0.207398 -0.978218 0.008643
vn 0.215297 -0.976510 0.008702
vn 0.976557 0.215088 0.008620
vn -0.977551 -0.210697 -0.000032
vn -0.210797 0.977530 0.000017
vn -0.210927 0.977502 0.000000
vn -0.977610 -0.210423 0.000000
vn 0.978100 0.207955 0.008663
vn 0.207043 -0.978294 0.008616
vn 0.215304 -0.976509 0.008633
vn 0.976563 0.215057 0.008635
vn -0.977449 -0.211173 0.000008
vn -0.211237 0.977435 -0.000022
vn -0.211067 0.977472 0.000000
vn -0.977433 -0.211247 0.000000
vn -0.369781 -0.696262 0.615209
vn 0.262296 0.493086 0.829498
vn 0.829132 0.559053 0.000000
vn -0.469049 -0.883172 0.000000
vn -0.469209 -0.883087 0.000000
vn 0.470568 0.882363 0.000000
vn 0.262622 0.492442 0.829777
vn -0.369918 -0.696213 0.615181
vn 0.829132 0.559053 0.000000
vn 0.538122 0.362837 0.760772
vn -0.638427 -0.431515 0.637343
vn -0.828501 -0.559987 0.000000
vn 0.830424 0.557131 0.000000
vn -0.828705 -0.559686 0.000000
vn 0.542701 0.364097 0.756908
vn -0.634591 -0.428587 0.643123
vn -0.978170 0.207626 0.008685
vn -0.207398 -0.978218 0.008643
vn -0.215297 -0.976510 0.008702
vn -0.976557 0.215087 0.008620
vn 0.977551 -0.210697 -0.000032
vn 0.210797 0.977530 0.000017
vn 0.210927 0.977502 0.000000
vn 0.977611 -0.210423 0.000000
vn -0.978100 0.207956 0.008663
vn -0.207043 -0.978294 0.008616
vn -0.215304 -0.976509 0.008633
vn -0.976563 0.215057 0.008635
vn 0.977449 -0.211173 0.000008
vn 0.211237 0.977435 -0.000022
vn 0.211067 0.977472 0.000000
vn 0.977433 -0.211247 0.000000
g fff06058_00060_0016ea0e_e1
f 72/14/72 73/13/73 13/49/13
f 13/49/13 12/48/12 72/14/72
f 71/47/71 72/46/72 11/47/11
f 12/46/12 11/47/11 72/46/72
f 73/45/73 70/44/70 13/45/13
f 10/44/10 13/45/13 70/44/70
f 86/98/86 91/99/91 92/96/92
f 91/99/91 86/98/86 89/97/89
f 1/54/1 67/54/67 7/54/7
f 7/54/7 8/54/8 1/54/1
f 67/12/67 66/11/66 6/53/6
f 6/53/6 7/52/7 67/12/67
f 66/10/66 69/9/69 6/51/6
f 9/50/9 6/51/6 69/9/69
f 62/98/62 52/96/52 51/99/51
f 51/99/51 65/97/65 62/98/62
f 40/43/40 39/41/39 33/42/33
f 33/42/33 32/40/32 40/43/40
f 5/69/5 4/67/4 15/68/15
f 15/68/15 17/66/17 5/69/5
f 63/94/63 53/92/53 50/95/50
f 50/95/50 64/93/64 63/94/63
f 24/39/24 23/37/23 21/38/21
f 21/38/21 20/36/20 24/39/24
f 3/65/3 2/63/2 14/64/14
f 14/64/14 16/73/16 3/65/3
f 38/35/38 40/33/40 32/34/32
f 32/34/32 31/32/31 38/35/38
f 64/90/64 62/88/62 65/91/65
f 65/91/65 63/89/63 64/90/64
f 23/30/23 25/31/25 19/29/19
f 19/29/19 21/28/21 23/30/23
f 52/78/52 50/82/50 53/79/53
f 53/79/53 51/83/51 52/78/52
f 17/72/17 14/70/14 2/71/2
f 2/71/2 5/8/5 17/72/17
f 4/7/4 3/5/3 16/6/16
f 16/6/16 15/4/15 4/7/4
f 31/3/31 30/1/30 41/2/41
f 41/2/41 38/27/38 31/3/31
f 25/26/25 22/24/22 18/25/18
f 18/25/18 19/23/19 25/26/25
f 20/22/20 18/20/18 22/21/22
f 22/21/22 24/19/24 20/22/20
f 30/18/30 33/16/33 39/17/39
f 39/17/39 41/15/41 30/18/30
f 36/39/36 35/37/35 29/38/29
f 29/38/29 28/36/28 36/39/36
f 35/30/35 37/31/37 27/29/27
f 27/29/27 29/28/29 35/30/35
f 37/26/37 34/24/34 26/25/26
f 26/25/26 27/23/27 37/26/37
f 28/22/28 26/20/26 34/21/34
f 34/21/34 36/19/36 28/22/28
f 49/77/49 48/76/48 12/105/12
f 12/105/12 13/104/13 49/77/49
f 47/81/47 49/80/49 10/103/10
f 13/102/13 10/103/10 49/80/49
f 48/87/48 46/86/46 12/113/12
f 11/112/11 12/113/12 46/86/46
f 45/85/45 44/84/44 6/111/6
f 6/111/6 9/110/9 45/85/45
f 43/101/43 42/100/42 7/109/7
f 8/108/8 7/109/7 42/100/42
f 44/75/44 43/74/43 7/107/7
f 7/107/7 6/106/6 44/75/44
f 61/79/61 59/83/59 60/78/60
f 60/78/60 58/82/58 61/79/61
f 57/91/57 55/89/55 56/90/56
f 56/90/56 54/88/54 57/91/57
f 58/95/58 56/93/56 55/94/55
f 55/94/55 61/92/61 58/95/58
f 59/99/59 57/97/57 54/98/54
f 54/98/54 60/96/60 59/99/59
f 94/98/94 83/99/83 84/96/84
f 83/99/83 94/98/94 97/97/97
f 95/94/95 82/95/82 85/92/85
f 82/95/82 95/94/95 96/93/96
f 96/90/96 97/91/97 94/88/94
f 97/91/97 96/90/96 95/89/95
f 84/78/84 85/79/85 82/82/82
f 85/79/85 84/78/84 83/83/83
f 81/77/81 72/105/72 80/76/80
f 72/105/72 81/77/81 73/104/73
f 79/81/79 70/103/70 81/80/81
f 73/102/73 81/80/81 70/103/70
f 80/87/80 72/113/72 78/86/78
f 71/112/71 78/86/78 72/113/72
f 77/85/77 66/111/66 76/84/76
f 66/111/66 77/85/77 69/110/69
f 75/101/75 67/109/67 74/100/74
f 68/108/68 74/100/74 67/109/67
f 76/75/76 67/107/67 75/74/75
f 67/107/67 76/75/76 66/106/66
f 93/79/93 92/78/92 91/83/91
f 92/78/92 93/79/93 90/82/90
f 89/91/89 88/90/88 87/89/87
f 88/90/88 89/91/89 86/88/86
f 90/95/90 87/94/87 88/93/88
f 87/94/87 90/95/90 93/92/93
g fff06058_00060_0016ea0e_e15
f 17/62/17 15/60/15 16/61/16
f 16/61/16 14/59/14 17/62/17
f 25/58/25 23/56/23 24/57/24
f 24/57/24 22/55/22 25/58/25
f 36/57/36 34/55/34 37/58/37
f 37/58/37 35/56/35 36/57/36
f 41/57/41 39/55/39 40/58/40
f 40/58/40 38/56/38 41/57/41
