# fff0ade4_00216_0032f28f
o fff0ade4_00216_0032f28f
v -0.069100 -2.210458 0.435184
v -6.123441 -2.210480 0.435189
v -6.123441 -2.126978 0.777033
v -6.217196 -2.180947 0.910138
v 0.026789 -2.181466 0.910237
v 0.026789 -2.216554 0.752122
v -6.217196 -2.216033 0.752023
v -0.069100 -2.126956 0.777028
v -6.217196 -2.216033 0.752023
v -6.217194 -2.072721 0.720219
v 0.026789 -2.073240 0.720318
v 0.026789 -2.216554 0.752122
v -6.217194 -2.037632 0.878334
v -0.115905 -2.071403 0.720170
v -6.217055 -2.071425 0.720174
v -6.216847 2.075946 -0.412042
v -6.208819 2.060666 -0.333195
v 0.016689 2.060678 -0.333201
v 0.016479 -2.086683 0.799017
v -6.209028 -2.086704 0.799021
v -6.071137 2.075942 -0.412043
v -6.071344 -2.071425 0.720174
v -6.071344 -2.105130 0.894105
v -6.217057 -2.105130 0.894105
v -6.216847 2.042239 -0.238112
v -6.071137 2.042235 -0.238113
v -6.217196 -2.180947 0.910138
v 0.026789 -2.038152 0.878434
v 0.026789 -2.181466 0.910237
v -0.115696 2.075962 -0.412047
v -1.478957 -2.089360 0.812812
v -1.653871 -2.089360 0.812812
v -1.654156 2.058007 -0.319405
v -1.479244 2.058003 -0.319405
v 0.030016 2.075958 -0.412048
v 0.029807 -2.071403 0.720170
v 0.029807 -2.105110 0.894100
v -0.115906 -2.105110 0.894100
v -0.115696 2.042257 -0.238117
v 0.030016 2.042253 -0.238118
v -5.016269 -2.089370 0.812815
v -3.290169 2.058000 -0.319404
v -3.115256 2.057998 -0.319404
v -3.114969 -2.089365 0.812813
v -3.289882 -2.089365 0.812813
v -6.213972 2.002040 -0.392550
v -0.069100 -2.210458 0.435184
v -6.123441 -2.126978 0.777033
v -6.123441 -2.210480 0.435189
v -6.123247 1.936893 -0.697026
v -0.068903 1.936903 -0.697033
v 0.030010 2.001555 -0.392636
v -4.841356 -2.089370 0.812815
v -5.016555 2.057995 -0.319402
v -4.841643 2.057993 -0.319403
v 0.030010 2.036643 -0.234520
v -6.213972 2.037128 -0.234435
v -6.213972 2.145604 -0.424312
v 0.030010 2.145119 -0.424397
v 0.030010 2.180207 -0.266282
v -6.213972 2.180693 -0.266197
v -6.081623 -0.623623 0.320584
v -6.499764 -0.623622 0.320573
v -6.500332 -1.432256 0.545184
v -6.082188 -1.432260 0.545195
v -0.069100 -2.126956 0.777028
v -0.068903 2.020405 -0.355189
v -6.123246 2.020393 -0.355183
v -6.081623 -0.688004 0.057019
v -6.499764 -0.688000 0.057008
v -6.500332 -1.496637 0.281619
v -6.122285 0.000120 0.278701
v -0.051982 0.000084 0.278686
v -0.049567 -0.167579 0.320047
v -6.119856 -0.167546 0.320059
v -6.081623 -0.623623 0.320584
v -6.082188 -1.432260 0.545195
v -6.500332 -1.432256 0.545184
v -6.499764 -0.623622 0.320573
v -6.082188 -1.496639 0.281630
v -6.500332 -1.496637 0.281619
v -6.500332 -1.432256 0.545184
v 6.008328 -2.210464 0.435183
v 0.197931 -2.210486 0.435188
v 0.197931 -2.126984 0.777032
v 0.104177 -2.180953 0.910137
v 6.104217 -2.181472 0.910236
v 6.104217 -2.216560 0.752121
v 0.104177 -2.216039 0.752022
v 6.008328 -2.126962 0.777026
v 0.104177 -2.216039 0.752022
v 0.104179 -2.072726 0.720218
v 6.104217 -2.073246 0.720317
v 6.104217 -2.216560 0.752121
v 0.104179 -2.037638 0.878333
v 5.961522 -2.071409 0.720169
v 0.104318 -2.071431 0.720173
v 0.104525 2.075940 -0.412043
v 0.112553 2.060660 -0.333196
v 6.094116 2.060673 -0.333202
v 6.093907 -2.086689 0.799016
v 0.112344 -2.086710 0.799020
v 0.250236 2.075936 -0.412044
v 0.250028 -2.071431 0.720173
v 0.250028 -2.105136 0.894104
v 0.104316 -2.105136 0.894104
v 0.104525 2.042233 -0.238113
v 0.250235 2.042229 -0.238114
v 0.104177 -2.180953 0.910137
v 6.104217 -2.038157 0.878433
v 6.104217 -2.181472 0.910236
v 5.961732 2.075956 -0.412048
v 4.598472 -2.089366 0.812811
v 4.423558 -2.089366 0.812811
v 4.423273 2.058001 -0.319406
v 4.598186 2.057997 -0.319406
v 6.107445 2.075953 -0.412049
v 6.107235 -2.071409 0.720169
v 6.107235 -2.105116 0.894099
v 5.961522 -2.105116 0.894099
v 5.961732 2.042251 -0.238118
v 6.107445 2.042247 -0.238119
v 1.305103 -2.089376 0.812814
v 3.031204 2.057994 -0.319405
v 3.206116 2.057992 -0.319405
v 3.206403 -2.089371 0.812812
v 3.031490 -2.089371 0.812812
v 0.107400 2.002033 -0.392551
v 6.008328 -2.210464 0.435183
v 0.197931 -2.126984 0.777032
v 0.197931 -2.210486 0.435188
v 0.198126 1.936886 -0.697028
v 6.008526 1.936897 -0.697034
v 6.107438 2.001549 -0.392637
v 1.480016 -2.089376 0.812814
v 1.304817 2.057989 -0.319404
v 1.479730 2.057987 -0.319404
v 6.107438 2.036637 -0.234521
v 0.107400 2.037122 -0.234436
v 0.107400 2.145598 -0.424313
v 6.107438 2.145113 -0.424398
v 6.107438 2.180202 -0.266283
v 0.107400 2.180686 -0.266198
v 6.008328 -2.126962 0.777026
v 6.008526 2.020399 -0.355191
v 0.198126 2.020386 -0.355184
v 0.199087 0.000114 0.278700
v 6.025445 0.000078 0.278685
v 6.027861 -0.167585 0.320046
v 0.201516 -0.167552 0.320058
v -6.499764 -0.623622 0.320573
v -6.499764 -0.688000 0.057008
v -6.379081 -2.210458 0.435184
v -12.433422 -2.210480 0.435189
v -12.433422 -2.126978 0.777033
v -12.527177 -2.180947 0.910138
v -6.283192 -2.181466 0.910237
v -6.283192 -2.216554 0.752122
v -12.527177 -2.216033 0.752023
v -6.379081 -2.126956 0.777027
v -12.527177 -2.216033 0.752023
v -12.527175 -2.072721 0.720219
v -6.283192 -2.073240 0.720318
v -6.283192 -2.216554 0.752122
v -12.527175 -2.037632 0.878334
v -6.425886 -2.071403 0.720170
v -12.527036 -2.071425 0.720174
v -12.526829 2.075946 -0.412042
v -12.518801 2.060666 -0.333195
v -6.293292 2.060678 -0.333201
v -6.293501 -2.086683 0.799017
v -12.519010 -2.086704 0.799021
v -12.381118 2.075942 -0.412043
v -12.381326 -2.071425 0.720174
v -12.381326 -2.105130 0.894105
v -12.527038 -2.105130 0.894105
v -12.526829 2.042239 -0.238112
v -12.381118 2.042235 -0.238113
v -12.527177 -2.180947 0.910138
v -6.283192 -2.038152 0.878434
v -6.283192 -2.181466 0.910237
v -6.425677 2.075962 -0.412047
v -7.788938 -2.089360 0.812812
v -7.963852 -2.089360 0.812812
v -7.964137 2.058007 -0.319405
v -7.789224 2.058003 -0.319405
v -6.279964 2.075958 -0.412048
v -6.280174 -2.071403 0.720170
v -6.280174 -2.105110 0.894100
v -6.425886 -2.105110 0.894100
v -6.425677 2.042257 -0.238117
v -6.279964 2.042253 -0.238117
v -11.326250 -2.089370 0.812815
v -9.600149 2.058000 -0.319404
v -9.425237 2.057998 -0.319404
v -9.424951 -2.089365 0.812813
v -9.599863 -2.089365 0.812813
v -12.523953 2.002040 -0.392550
v -6.379081 -2.210458 0.435184
v -12.433422 -2.126978 0.777033
v -12.433422 -2.210480 0.435189
v -12.433228 1.936892 -0.697026
v -6.378884 1.936903 -0.697033
v -6.279970 2.001555 -0.392636
v -11.151338 -2.089370 0.812815
v -11.326536 2.057995 -0.319402
v -11.151624 2.057993 -0.319403
v -6.279970 2.036643 -0.234520
v -12.523953 2.037128 -0.234435
v -12.523953 2.145604 -0.424312
v -6.279970 2.145119 -0.424397
v -6.279970 2.180207 -0.266282
v -12.523952 2.180692 -0.266197
v -12.391603 -0.623623 0.320584
v -12.809746 -0.623622 0.320573
v -12.810313 -1.432256 0.545184
v -12.392169 -1.432260 0.545195
v -6.379081 -2.126956 0.777027
v -6.378883 2.020405 -0.355189
v -12.433228 2.020392 -0.355183
v -12.391603 -0.688004 0.057019
v -12.809746 -0.688000 0.057008
v -12.810313 -1.496637 0.281619
v -12.432266 0.000120 0.278701
v -6.361963 0.000084 0.278686
v -6.359548 -0.167579 0.320047
v -12.429836 -0.167546 0.320059
v -12.391603 -0.623623 0.320584
v -12.392169 -1.432260 0.545195
v -12.810313 -1.432256 0.545184
v -12.809746 -0.623622 0.320573
v -12.392169 -1.496640 0.281630
v -12.810313 -1.496637 0.281619
v -12.810313 -1.432256 0.545184
v -12.809746 -0.623622 0.320573
v -12.809746 -0.688000 0.057008
vt 0.850218 0.992961
vt 1.416132 0.621004
vt 0.403774 1.346635
vt 0.856604 1.120694
vt -1539.909790 12.971855
vt -1753.102661 -1175.976440
vt -107.541847 0.242204
vt -219.312881 -63.611946
vt -112.120872 3.414736
vt -0.349800 67.268906
vt -470.145935 428.666504
vt 134.500000 -300.752411
vt -110.556870 -0.223854
vt -106.343872 -0.222710
vt -110.270126 3.345582
vt -106.344055 3.345582
vt 0.369528 -4.460425
vt 1.481439 -5.470967
vt 1.481397 -4.460423
vt 1.481449 -5.470179
vt 0.369533 -4.459632
vt 0.369574 -5.470178
vt 0.331650 -4.460387
vt 1.443562 -5.470935
vt 1.443520 -4.460386
vt 1.443574 -5.470193
vt 0.331662 -4.459647
vt 0.331702 -5.470194
vt 0.403774 1.346635
vt -110.270126 3.345582
vt -106.344055 3.345582
vt -106.343872 -0.222710
vt -110.556870 -0.223854
vt 1.416132 0.621004
vt 1.481449 -5.470179
vt 0.369574 -5.470178
vt 0.369533 -4.459632
vt 0.369528 -4.460425
vt 1.481397 -4.460423
vt 1.481439 -5.470967
vt 0.856604 1.120694
vt 0.850218 0.992961
vt -219.312881 -63.611946
vt -470.145935 428.666504
vt -1539.909790 12.971855
vt -112.120872 3.414736
vt -1753.102661 -1175.976440
vt 134.500000 -300.752411
vt -107.541847 0.242204
vt -0.349800 67.268906
vt 4.712709 -1.483088
vt 8.375715 -1.483072
vt 8.375825 2.053590
vt 4.712830 2.053578
vt 8.432108 -1.483095
vt 11.951572 -1.483077
vt 11.951707 2.053584
vt 8.432242 2.053573
vt 1.000001 -1.483088
vt 4.663002 -1.483073
vt 4.663129 2.053590
vt 1.000121 2.053578
vn 0.000004 -0.971438 0.237292
vn 0.000004 -0.971438 0.237292
vn 0.000004 -0.971438 0.237292
vn -0.000085 -0.976253 0.216634
vn -0.000085 -0.976250 0.216646
vn -0.000085 -0.976250 0.216646
vn -0.000085 -0.976253 0.216634
vn 0.000004 -0.971438 0.237292
vn -1.000000 0.000013 -0.000003
vn -0.707071 0.690348 -0.153200
vn 0.707138 0.690283 -0.153185
vn 1.000000 -0.000001 -0.000000
vn -0.577323 0.688747 0.438549
vn -1.000000 0.000053 0.000009
vn -1.000000 0.000050 -0.000001
vn -1.000000 0.000053 0.000010
vn 0.000000 0.263359 0.964698
vn 0.000000 0.263359 0.964698
vn -0.000000 0.263360 0.964698
vn 0.000000 0.263359 0.964698
vn 1.000000 -0.000053 -0.000010
vn 1.000000 -0.000053 -0.000010
vn 0.578092 0.214867 0.787173
vn -0.578106 0.214918 0.787149
vn -0.790675 0.161275 0.590613
vn 0.790708 0.161190 0.590592
vn -0.707087 0.153204 0.690330
vn 0.577373 0.688693 0.438568
vn 0.707127 0.153185 0.690294
vn -1.000000 0.000053 0.000010
vn 0.000000 0.263360 0.964698
vn 0.000001 0.263360 0.964698
vn 0.000011 0.263359 0.964698
vn 0.000011 0.263359 0.964698
vn 1.000000 -0.000053 -0.000010
vn 1.000000 -0.000053 -0.000010
vn 0.578088 0.214868 0.787176
vn -0.578099 0.214920 0.787154
vn -0.790674 0.161276 0.590614
vn 0.790707 0.161190 0.590593
vn 0.000001 0.263360 0.964698
vn 0.000005 0.263359 0.964698
vn 0.000005 0.263359 0.964698
vn -0.000001 0.263360 0.964698
vn -0.000001 0.263360 0.964698
vn -0.706980 -0.690437 0.153219
vn 1.000000 -0.000045 0.000011
vn -1.000000 0.000044 -0.000011
vn -1.000000 0.000044 -0.000011
vn -0.700952 0.692840 -0.169235
vn 0.700983 0.692808 -0.169232
vn 0.706942 -0.690474 0.153227
vn 0.000000 0.263360 0.964698
vn 0.000007 0.263359 0.964698
vn 0.000006 0.263359 0.964698
vn 0.577373 -0.438795 0.688549
vn -0.577395 -0.438741 0.688564
vn -0.707220 0.690203 -0.153167
vn 0.707285 0.690139 -0.153153
vn 0.577344 0.688575 0.438793
vn -0.577289 0.688619 0.438795
vn 0.000013 0.971439 -0.237290
vn -1.000000 0.000658 -0.000161
vn -1.000000 0.000658 -0.000161
vn -0.000016 -0.971439 0.237288
vn 1.000000 -0.000045 0.000011
vn 0.713105 0.681033 -0.166356
vn -0.713075 0.681064 -0.166359
vn 0.000016 0.971438 -0.237295
vn -1.000000 0.000658 -0.000161
vn -1.000000 0.000658 -0.000161
vn 0.000004 0.239489 0.970899
vn 0.000003 0.239511 0.970894
vn 0.000003 0.239512 0.970893
vn 0.000004 0.239489 0.970899
vn -0.000026 0.267633 0.963521
vn -0.000023 0.267634 0.963521
vn -0.000022 0.267634 0.963520
vn -0.000025 0.267633 0.963521
vn -0.000014 -0.971439 0.237291
vn -0.000012 -0.971438 0.237295
vn -0.000013 -0.971438 0.237292
vn 0.000004 -0.971438 0.237292
vn 0.000004 -0.971438 0.237292
vn 0.000004 -0.971438 0.237292
vn -0.000088 -0.976253 0.216635
vn -0.000088 -0.976251 0.216644
vn -0.000088 -0.976251 0.216644
vn -0.000088 -0.976253 0.216635
vn 0.000004 -0.971438 0.237292
vn -1.000000 0.000013 -0.000003
vn -0.707070 0.690349 -0.153200
vn 0.707138 0.690282 -0.153187
vn 1.000000 -0.000002 -0.000001
vn -0.577322 0.688749 0.438548
vn -1.000000 0.000053 0.000010
vn -1.000000 0.000050 -0.000001
vn -1.000000 0.000053 0.000010
vn 0.000000 0.263359 0.964698
vn 0.000000 0.263359 0.964698
vn -0.000000 0.263360 0.964698
vn 0.000000 0.263359 0.964698
vn 1.000000 -0.000053 -0.000010
vn 1.000000 -0.000053 -0.000010
vn 0.578092 0.214867 0.787173
vn -0.578106 0.214918 0.787149
vn -0.790675 0.161275 0.590613
vn 0.790708 0.161190 0.590592
vn -0.707087 0.153204 0.690331
vn 0.577375 0.688691 0.438568
vn 0.707127 0.153183 0.690294
vn -1.000000 0.000053 0.000010
vn 0.000000 0.263360 0.964698
vn 0.000001 0.263360 0.964698
vn 0.000011 0.263359 0.964698
vn 0.000010 0.263359 0.964698
vn 1.000000 -0.000053 -0.000010
vn 1.000000 -0.000053 -0.000010
vn 0.578088 0.214868 0.787176
vn -0.578099 0.214920 0.787154
vn -0.790673 0.161276 0.590615
vn 0.790707 0.161190 0.590593
vn 0.000000 0.263360 0.964698
vn 0.000005 0.263359 0.964698
vn 0.000005 0.263359 0.964698
vn -0.000000 0.263360 0.964698
vn -0.000000 0.263360 0.964698
vn -0.706981 -0.690436 0.153220
vn 1.000000 -0.000045 0.000011
vn -1.000000 0.000044 -0.000010
vn -1.000000 0.000044 -0.000010
vn -0.700952 0.692839 -0.169236
vn 0.700983 0.692808 -0.169231
vn 0.706941 -0.690475 0.153228
vn 0.000000 0.263360 0.964698
vn 0.000007 0.263359 0.964698
vn 0.000006 0.263359 0.964698
vn 0.577373 -0.438795 0.688549
vn -0.577396 -0.438739 0.688565
vn -0.707219 0.690204 -0.153167
vn 0.707287 0.690137 -0.153154
vn 0.577344 0.688574 0.438792
vn -0.577288 0.688620 0.438795
vn 1.000000 -0.000045 0.000011
vn 0.713105 0.681034 -0.166355
vn -0.713075 0.681064 -0.166360
vn 0.000004 0.239489 0.970899
vn 0.000003 0.239511 0.970894
vn 0.000003 0.239512 0.970893
vn 0.000004 0.239490 0.970899
vn 0.000007 0.971441 -0.237282
vn 0.000010 0.971440 -0.237287
vn 0.000004 -0.971438 0.237292
vn 0.000004 -0.971438 0.237292
vn 0.000004 -0.971438 0.237292
vn -0.000085 -0.976253 0.216634
vn -0.000085 -0.976251 0.216644
vn -0.000085 -0.976251 0.216644
vn -0.000085 -0.976253 0.216634
vn 0.000004 -0.971438 0.237292
vn -1.000000 0.000013 -0.000003
vn -0.707071 0.690348 -0.153200
vn 0.707137 0.690283 -0.153185
vn 1.000000 0.000000 0.000000
vn -0.577323 0.688747 0.438549
vn -1.000000 0.000053 0.000010
vn -1.000000 0.000050 -0.000001
vn -1.000000 0.000053 0.000010
vn 0.000000 0.263359 0.964698
vn 0.000000 0.263359 0.964698
vn -0.000000 0.263360 0.964698
vn 0.000000 0.263359 0.964698
vn 1.000000 -0.000053 -0.000010
vn 1.000000 -0.000053 -0.000010
vn 0.578092 0.214867 0.787173
vn -0.578105 0.214918 0.787149
vn -0.790675 0.161275 0.590613
vn 0.790708 0.161190 0.590592
vn -0.707087 0.153204 0.690330
vn 0.577373 0.688693 0.438568
vn 0.707127 0.153186 0.690294
vn -1.000000 0.000053 0.000010
vn 0.000000 0.263360 0.964698
vn 0.000001 0.263360 0.964698
vn 0.000011 0.263359 0.964698
vn 0.000010 0.263359 0.964698
vn 1.000000 -0.000053 -0.000010
vn 1.000000 -0.000053 -0.000010
vn 0.578088 0.214867 0.787176
vn -0.578098 0.214920 0.787154
vn -0.790673 0.161276 0.590615
vn 0.790706 0.161190 0.590594
vn 0.000000 0.263360 0.964698
vn 0.000005 0.263359 0.964698
vn 0.000005 0.263359 0.964698
vn 0.000000 0.263360 0.964698
vn 0.000000 0.263360 0.964698
vn -0.706980 -0.690437 0.153219
vn 1.000000 -0.000045 0.000011
vn -1.000000 0.000044 -0.000011
vn -1.000000 0.000044 -0.000011
vn -0.700952 0.692839 -0.169236
vn 0.700983 0.692808 -0.169233
vn 0.706942 -0.690474 0.153227
vn 0.000000 0.263360 0.964698
vn 0.000006 0.263359 0.964698
vn 0.000006 0.263359 0.964698
vn 0.577373 -0.438795 0.688549
vn -0.577396 -0.438740 0.688564
vn -0.707220 0.690203 -0.153165
vn 0.707285 0.690139 -0.153153
vn 0.577343 0.688575 0.438793
vn -0.577285 0.688622 0.438796
vn 0.000013 0.971439 -0.237290
vn -1.000000 0.000657 -0.000161
vn -1.000000 0.000657 -0.000161
vn -0.000016 -0.971439 0.237288
vn 1.000000 -0.000045 0.000011
vn 0.713106 0.681033 -0.166356
vn -0.713075 0.681064 -0.166360
vn 0.000016 0.971438 -0.237295
vn -1.000000 0.000657 -0.000161
vn -1.000000 0.000657 -0.000161
vn 0.000004 0.239489 0.970899
vn 0.000003 0.239511 0.970894
vn 0.000003 0.239512 0.970894
vn 0.000004 0.239489 0.970899
vn -0.000026 0.267633 0.963521
vn -0.000023 0.267634 0.963521
vn -0.000022 0.267634 0.963521
vn -0.000025 0.267633 0.963521
vn -0.000014 -0.971439 0.237291
vn -0.000012 -0.971438 0.237295
vn -0.000013 -0.971438 0.237292
vn 0.000007 0.971441 -0.237282
vn 0.000010 0.971440 -0.237286
g fff0ade4_00216_0032f28f_e2
f 142/3/142 138/3/138 134/3/134
f 134/3/134 141/3/141 142/3/142
f 114/15/114 113/16/113 116/14/116
f 116/14/116 115/13/115 114/15/114
f 122/2/122 119/2/119 118/2/118
f 118/2/118 117/2/117 122/2/122
f 148/26/148 147/28/147 150/27/150
f 150/23/150 149/25/149 148/24/148
f 120/3/120 119/3/119 122/3/122
f 122/3/122 121/3/121 120/3/120
f 108/2/108 105/2/105 104/2/104
f 104/2/104 103/2/103 108/2/108
f 123/15/123 135/16/135 137/14/137
f 137/14/137 136/13/136 123/15/123
f 106/3/106 105/3/105 108/3/108
f 108/3/108 107/3/107 106/3/106
f 110/3/110 111/3/111 94/3/94
f 94/3/94 93/3/93 110/3/110
f 138/3/138 142/3/142 143/3/143
f 143/3/143 139/3/139 138/3/138
f 95/3/95 109/3/109 111/3/111
f 111/3/111 110/3/110 95/3/95
f 125/14/125 124/13/124 127/15/127
f 127/15/127 126/16/126 125/14/125
f 141/4/141 140/4/140 143/4/143
f 143/4/143 142/4/142 141/4/141
f 60/3/60 56/3/56 52/3/52
f 52/3/52 59/3/59 60/3/60
f 32/15/32 31/16/31 34/14/34
f 34/14/34 33/13/33 32/15/32
f 40/2/40 37/2/37 36/2/36
f 36/2/36 35/2/35 40/2/40
f 73/20/73 72/22/72 75/21/75
f 75/17/75 74/19/74 73/18/73
f 38/3/38 37/3/37 40/3/40
f 40/3/40 39/3/39 38/3/38
f 26/2/26 23/2/23 22/2/22
f 22/2/22 21/2/21 26/2/26
f 41/15/41 53/16/53 55/14/55
f 55/14/55 54/13/54 41/15/41
f 24/3/24 23/3/23 26/3/26
f 26/3/26 25/3/25 24/3/24
f 28/3/28 29/3/29 12/3/12
f 12/3/12 11/3/11 28/3/28
f 56/3/56 60/3/60 61/3/61
f 61/3/61 57/3/57 56/3/56
f 13/3/13 27/3/27 29/3/29
f 29/3/29 28/3/28 13/3/13
f 43/14/43 42/13/42 45/15/45
f 45/15/45 44/16/44 43/14/43
f 59/4/59 58/4/58 61/4/61
f 61/4/61 60/4/60 59/4/59
f 212/29/212 208/29/208 204/29/204
f 204/29/204 211/29/211 212/29/212
f 184/30/184 183/31/183 186/32/186
f 186/32/186 185/33/185 184/30/184
f 192/34/192 189/34/189 188/34/188
f 188/34/188 187/34/187 192/34/192
f 225/35/225 224/36/224 227/37/227
f 227/38/227 226/39/226 225/40/225
f 190/29/190 189/29/189 192/29/192
f 192/29/192 191/29/191 190/29/190
f 178/34/178 175/34/175 174/34/174
f 174/34/174 173/34/173 178/34/178
f 193/30/193 205/31/205 207/32/207
f 207/32/207 206/33/206 193/30/193
f 176/29/176 175/29/175 178/29/178
f 178/29/178 177/29/177 176/29/176
f 180/29/180 181/29/181 164/29/164
f 164/29/164 163/29/163 180/29/180
f 208/29/208 212/29/212 213/29/213
f 213/29/213 209/29/209 208/29/208
f 165/29/165 179/29/179 181/29/181
f 181/29/181 180/29/180 165/29/165
f 195/32/195 194/33/194 197/30/197
f 197/30/197 196/31/196 195/32/195
f 211/41/211 210/41/210 213/41/213
f 213/41/213 212/41/212 211/41/211
g fff0ade4_00216_0032f28f_e3
f 20/51/20 19/52/19 18/53/18
f 18/53/18 17/54/17 20/51/20
f 102/55/102 101/56/101 100/57/100
f 100/57/100 99/58/99 102/55/102
f 172/59/172 171/60/171 170/61/170
f 170/61/170 169/62/169 172/59/172
g fff0ade4_00216_0032f28f_e1
f 220/43/220 219/49/219 203/32/203
f 203/32/203 202/33/202 220/43/220
f 202/33/202 201/30/201 200/46/200
f 200/46/200 220/43/220 202/33/202
f 199/31/199 203/32/203 219/49/219
f 219/49/219 218/50/218 199/31/199
f 168/41/168 167/41/167 176/41/176
f 176/41/176 177/41/177 168/41/168
f 159/34/159 158/34/158 157/34/157
f 157/34/157 156/34/156 159/34/159
f 160/50/160 155/46/155 154/30/154
f 154/30/154 153/31/153 160/50/160
f 162/42/162 161/42/161 179/42/179
f 179/42/179 165/42/165 162/42/162
f 234/47/234 233/48/233 232/30/232
f 232/30/232 217/46/217 234/47/234
f 208/34/208 209/34/209 198/34/198
f 198/34/198 204/34/204 208/34/208
f 222/44/222 223/48/223 216/47/216
f 216/47/216 215/45/215 222/44/222
f 165/41/165 180/41/180 163/41/163
f 163/41/163 162/41/162 165/41/165
f 182/41/182 166/41/166 190/41/190
f 190/41/190 191/41/191 182/41/182
f 231/45/231 230/47/230 229/46/229
f 229/46/229 228/43/228 231/45/231
f 236/44/236 235/45/235 214/43/214
f 214/43/214 221/33/221 236/44/236
f 209/42/209 213/42/213 210/42/210
f 210/42/210 198/42/198 209/42/209
f 8/10/8 3/9/3 2/15/2
f 2/15/2 1/16/1 8/10/8
f 68/8/68 67/7/67 51/14/51
f 51/14/51 50/13/50 68/8/68
f 50/13/50 49/15/49 48/9/48
f 48/9/48 68/8/68 50/13/50
f 47/16/47 51/14/51 67/7/67
f 67/7/67 66/10/66 47/16/47
f 16/4/16 15/4/15 24/4/24
f 24/4/24 25/4/25 16/4/16
f 7/2/7 6/2/6 5/2/5
f 5/2/5 4/2/4 7/2/7
f 10/1/10 9/1/9 27/1/27
f 27/1/27 13/1/13 10/1/10
f 82/6/82 81/12/81 80/15/80
f 80/15/80 65/9/65 82/6/82
f 140/1/140 128/1/128 139/1/139
f 139/1/139 143/1/143 140/1/140
f 120/4/120 121/4/121 112/4/112
f 112/4/112 96/4/96 120/4/120
f 93/4/93 92/4/92 95/4/95
f 95/4/95 110/4/110 93/4/93
f 128/2/128 134/2/134 138/2/138
f 138/2/138 139/2/139 128/2/128
f 109/1/109 95/1/95 92/1/92
f 92/1/92 91/1/91 109/1/109
f 87/2/87 86/2/86 89/2/89
f 89/2/89 88/2/88 87/2/87
f 106/4/106 107/4/107 98/4/98
f 98/4/98 97/4/97 106/4/106
f 145/7/145 144/10/144 129/16/129
f 129/16/129 133/14/133 145/7/145
f 130/9/130 146/8/146 132/13/132
f 132/13/132 131/15/131 130/9/130
f 133/14/133 132/13/132 146/8/146
f 146/8/146 145/7/145 133/14/133
f 84/15/84 83/16/83 90/10/90
f 90/10/90 85/9/85 84/15/84
f 56/2/56 57/2/57 46/2/46
f 46/2/46 52/2/52 56/2/56
f 70/11/70 71/12/71 64/6/64
f 64/6/64 63/5/63 70/11/70
f 13/4/13 28/4/28 11/4/11
f 11/4/11 10/4/10 13/4/13
f 30/4/30 14/4/14 38/4/38
f 38/4/38 39/4/39 30/4/30
f 79/5/79 78/6/78 77/9/77
f 77/9/77 76/8/76 79/5/79
f 58/1/58 46/1/46 57/1/57
f 57/1/57 61/1/61 58/1/58
f 152/11/152 151/5/151 62/8/62
f 62/8/62 69/13/69 152/11/152
