# fff0af20_00357_00946fa7
o fff0af20_00357_00946fa7
v 5.440674 -0.074219 0.146500
v 5.440674 -0.998993 0.146500
v -2.568298 -0.998993 -1.447012
v 5.361084 -0.998993 -2.653427
v 5.440674 -0.998993 0.146500
v 5.613916 -17.074652 0.146500
v -2.568541 -17.014532 -1.447012
v 5.885526 -17.014526 -2.755066
v 5.613916 -17.074652 0.146500
v -2.568359 -17.074652 0.146500
v -2.568237 -0.074219 0.146500
v -2.568237 -0.998993 0.146500
v 5.923218 -17.089752 -2.805878
v 4.926943 -17.089752 -2.519577
v 5.923218 -17.089752 -2.548233
v 5.613916 -18.051580 0.146500
v -2.568359 -18.051580 0.146500
v -2.568359 -17.074652 0.146500
v -2.568237 -0.998993 0.146500
v 5.923218 -0.998993 -2.805878
v 4.926942 -0.957825 -2.521439
v 5.923218 -0.998993 -2.550095
v -2.568176 -0.158594 -1.474422
v 5.361084 -0.123504 -1.474422
v 4.926942 -4.111572 -2.521232
v 5.923218 -4.111572 -2.549901
v 5.923218 -4.111572 -2.805878
v 4.926943 -13.977997 -2.519778
v 5.923218 -13.977997 -2.548427
v 5.923218 -13.977997 -2.805878
v -14.894004 -17.797482 -1.447012
v -14.893824 -17.797482 0.146500
v -12.095484 -18.110468 0.146500
v 0.279028 -25.272589 0.146500
v 0.279028 -26.534908 0.146500
v -12.095484 -18.110468 -0.268614
v 0.279028 -25.272589 -0.268614
v -14.596313 -17.250931 0.146500
v -14.596313 -17.240707 -1.447012
v -14.596313 -17.247896 0.146500
vt 5.995138 -0.038654
vt 8.322700 0.109774
vt 5.997791 0.153766
vt 8.329311 0.246430
vt 2.690621 1.302942
vt 0.839273 1.120670
vt 2.690621 1.120670
vt 0.839273 1.302942
vt 3.825819 0.947800
vt 3.765985 0.947589
vt 2.079755 1.011747
vt 2.078098 0.964328
vt 4.054138 4.319956
vt 3.994395 4.319504
vt 8.281262 -0.034484
vt 8.286976 0.340735
vt 8.280028 -0.007512
vt 3.943344 3.667507
vt 8.286410 0.353120
vt 4.003097 3.667934
vt 8.276169 0.076860
vt 3.781321 1.600772
vt 8.286948 0.341373
vt 3.841174 1.601029
vt 2.581266 -0.563977
vt 2.579876 -0.309838
vt 0.041482 0.979519
vt -0.556160 0.999999
vt -0.556165 1.000001
vt 2.674505 0.608674
vt 2.672362 0.547448
vt 0.044327 0.980591
vt 2.677256 0.612246
vt -0.491637 1.025944
vt 2.685188 -0.548029
vt 2.683993 -0.297740
vn 0.000000 0.706295 0.707918
vn 0.000000 -0.000000 1.000000
vn 0.000000 -1.000000 -0.000000
vn 0.000000 -1.000000 -0.000000
vn 0.000000 -1.000000 -0.000000
vn 0.000000 0.000000 1.000000
vn -0.005903 0.999272 0.037701
vn 0.000781 0.999735 0.022991
vn 0.000000 0.999785 0.020717
vn -0.006910 0.999380 0.034523
vn -0.002793 0.724284 0.689496
vn 0.000000 -1.000000 -0.000000
vn 1.000000 0.000000 0.000000
vn 0.028751 0.000064 0.999587
vn 0.717185 0.000045 0.696882
vn 0.000000 0.000000 1.000000
vn -0.000000 0.000000 1.000000
vn -0.000000 0.000000 1.000000
vn 0.000000 -0.000000 1.000000
vn 1.000000 0.000000 0.000002
vn 0.028754 0.000065 0.999587
vn 0.708377 0.000046 0.705835
vn -0.004419 0.998638 -0.051983
vn -0.000551 0.999452 -0.033084
vn 0.028763 0.000105 0.999586
vn 0.717213 0.000073 0.696854
vn 1.000000 -0.000000 0.000002
vn 0.028746 0.000106 0.999587
vn 0.717188 0.000074 0.696880
vn 1.000000 -0.000000 0.000000
vn -0.881863 0.471506 0.000100
vn -0.617023 0.333027 0.713005
vn 0.131958 0.227992 0.964680
vn 0.300458 0.519123 0.800147
vn -0.000000 -0.000000 1.000000
vn 0.500928 0.865489 0.000000
vn 0.500928 0.865489 0.000000
vn -0.000000 0.000000 1.000000
vn -0.519194 0.854644 0.004578
vn -0.518645 0.854981 0.003857
g fff0af20_00357_00946fa7_e2
f 1/5/1 19/6/19 2/7/2
f 19/6/19 1/5/1 11/8/11
f 16/9/16 6/10/6 18/11/18
f 18/11/18 17/12/17 16/9/16
f 17/12/17 18/11/18 38/34/38
f 32/28/32 33/27/33 17/12/17
f 33/27/33 35/31/35 34/30/34
f 35/31/35 33/27/33 32/29/32
f 17/12/17 38/34/38 32/28/32
g fff0af20_00357_00946fa7_e0
f 5/4/5 12/3/12 4/2/4
f 3/1/3 4/2/4 12/3/12
f 7/1/7 10/3/10 8/2/8
f 9/4/9 8/2/8 10/3/10
f 7/1/7 39/35/39 10/3/10
f 20/13/20 22/14/22 26/18/26
f 40/36/40 10/3/10 39/35/39
f 15/10/15 13/9/13 29/22/29
f 1/4/1 24/2/24 11/3/11
f 23/1/23 11/3/11 24/2/24
f 26/18/26 29/22/29 27/20/27
f 26/18/26 27/20/27 20/13/20
f 29/22/29 13/9/13 30/24/30
f 29/22/29 30/24/30 27/20/27
f 34/30/34 37/33/37 33/27/33
f 36/32/36 33/27/33 37/33/37
f 32/26/32 39/35/39 31/25/31
f 32/26/32 40/36/40 39/35/39
g fff0af20_00357_00946fa7_e1
f 15/4/15 28/21/28 14/2/14
f 25/17/25 28/21/28 26/19/26
f 22/16/22 21/15/21 25/17/25
f 25/17/25 26/19/26 22/16/22
f 15/4/15 29/23/29 28/21/28
f 29/23/29 26/19/26 28/21/28
