# fff0305e_00110_00445505
o fff0305e_00110_00445505
v 162.431625 -89.934929 -91.283112
v 261.032074 -89.000908 -91.283112
v 263.243195 13.525637 -91.283112
v 162.431625 -89.934929 48.754921
v 261.032074 -89.000908 48.754921
v 164.642746 12.591555 48.754921
v 263.243195 13.525637 48.754921
v 163.995514 -83.977257 45.849358
v 253.389389 -83.129875 45.849358
v 255.473160 9.270640 45.849358
v 163.995514 -83.977257 88.020035
v 253.389389 -83.129875 88.020035
v 166.079361 8.423167 88.020035
v 255.473160 9.270640 88.020035
v -24.565609 -75.114021 -145.788055
v 63.569328 -75.055122 -145.788055
v 61.198082 -13.612368 -145.788055
v -24.565609 -75.114021 101.103394
v 63.569328 -75.055122 101.103394
v -20.679960 -13.429911 101.103394
v 61.198082 -13.612368 101.103394
v 174.830215 -11.688952 83.795784
v 195.522781 -11.357242 83.795784
v 195.897476 2.331062 83.795784
v 174.830215 -11.688952 99.921173
v 195.522781 -11.357242 99.921173
v 175.204941 1.999340 99.921173
v 195.897476 2.331062 99.921173
v -24.565609 -75.114021 -161.282059
v 63.569328 -75.055122 -161.282059
v 61.198082 -13.612368 -161.282059
v 2.869964 -38.139904 101.103378
v 13.238066 -38.646038 101.103378
v 13.237974 -24.289658 101.103378
v 1.174408 -38.205341 107.843277
v 13.238066 -38.646038 107.843277
v 1.174347 -23.848978 111.002350
v 13.237974 -24.289658 111.002350
v 65.583427 14.932184 -82.395538
v 124.832489 13.911577 -82.395538
v 123.945251 88.327492 -82.395538
v 65.583427 14.932184 162.934875
v 124.832489 13.911577 162.934875
v 64.759941 87.696846 162.934875
v 123.881531 89.978584 162.934875
v 75.277428 58.002716 156.908890
v 111.634827 59.405899 156.908890
v 111.581543 83.040230 156.908890
v 75.277428 58.002708 175.351166
v 111.634827 59.405899 175.351166
v 75.224266 81.637054 175.351166
v 111.581543 83.040230 175.351166
v -135.176285 -13.152836 -226.973297
v -135.177750 -117.121582 -226.973297
v -221.800323 -13.152380 61.938126
v -135.176285 -13.152836 61.938126
v -221.801849 -117.121124 61.938126
v -135.177750 -117.121582 61.938126
v -226.939667 -63.450348 39.617668
v -203.454803 -63.450211 39.617668
v -203.710175 -114.456635 39.617668
v -226.939667 -63.450348 83.725235
v -203.454803 -63.450211 83.725235
v -227.195038 -114.456772 83.725235
v -203.710175 -114.456635 83.725235
v -125.729996 -38.122406 -204.953522
v -57.933159 -34.890244 -204.953522
v -61.383781 -112.186874 -204.953522
v -125.729996 -38.122406 -15.607838
v -57.933159 -34.890244 -15.607838
v -61.383781 -112.186874 -15.607838
v -127.315750 -56.812611 -15.670464
v -61.383781 -112.186874 -15.670464
v -127.315750 -56.812611 16.022224
v -59.573112 -54.218502 16.022224
v -129.049454 -113.871765 16.022224
v -61.383781 -112.186874 16.022224
v -20.822844 -72.041298 101.103394
v 59.766472 -71.937218 101.103394
v -17.234098 -16.561602 101.103394
v 57.633842 -16.678211 101.103394
v -17.453642 -69.717140 101.103394
v 56.378319 -69.621788 101.103394
v -14.165800 -18.889383 101.103394
v 54.424522 -18.996216 101.103394
v 167.425980 -80.820930 88.020035
v 250.243790 -80.111885 88.020035
v 169.224991 5.405170 88.020035
v 252.042709 6.114303 88.020035
v 168.756775 -78.712196 88.020035
v 248.959030 -78.025520 88.020035
v 170.509720 3.318820 88.020035
v 250.711929 4.005558 88.020035
v 183.395752 -71.941414 87.625214
v 194.933319 -71.756477 87.625214
v 195.142227 -64.124290 87.625214
v 183.395752 -71.941414 90.872375
v 194.933319 -71.756477 90.872375
v 183.604706 -64.309242 90.872375
v 195.142227 -64.124290 90.872375
v 25.442745 -55.855659 98.938141
v 36.980343 -55.670715 98.938141
v 37.189236 -48.038525 98.938141
v 25.442745 -55.855659 102.185303
v 36.980343 -55.670715 102.185303
v 25.651699 -48.223480 102.185303
v 37.189236 -48.038525 102.185303
v 210.775742 -48.830997 87.625214
v 222.313309 -48.646057 87.625214
v 222.522202 -41.013866 87.625214
v 210.775742 -48.830997 90.872375
v 222.313309 -48.646057 90.872375
v 210.984665 -41.198826 90.872375
v 222.522202 -41.013866 90.872375
v -221.800323 -13.152380 -69.755081
v -221.801849 -117.121124 -226.973297
v -129.049454 -113.871765 -15.607838
v -58.822350 -54.808773 -15.607838
v -129.049454 -113.871765 -203.659866
v 127.758118 14.024405 -82.395538
v 126.870850 88.440315 -82.395538
v 127.758118 14.024405 162.934875
v 126.807129 90.091423 162.934875
v 398.245911 -58.795979 -145.788055
v 486.380798 -58.737083 -145.788055
v 484.009583 2.705681 -145.788055
v 398.245911 -58.795979 101.103394
v 486.380798 -58.737083 101.103394
v 402.131531 2.888138 101.103394
v 484.009583 2.705681 101.103394
v 398.245911 -58.795979 -161.282059
v 486.380798 -58.737083 -161.282059
v 484.009583 2.705681 -161.282059
v 412.564789 -22.328085 102.106750
v 436.049561 -22.327990 102.106750
v 436.049438 -7.971610 102.106750
v 412.564789 -22.328085 111.002350
v 436.049561 -22.327990 111.002350
v 412.564667 -7.971717 111.002350
v 436.049438 -7.971610 111.002350
v 401.988647 -55.723244 101.103394
v 482.577942 -55.619160 101.103394
v 405.577393 -0.243553 101.103394
v 480.445312 -0.360161 101.103394
v 405.357880 -53.399094 101.103394
v 479.189758 -53.303734 101.103394
v 408.645691 -2.571335 101.103394
v 477.236023 -2.678165 101.103394
v -68.934013 16.094629 -234.244751
v 30.859615 16.161325 -234.244751
v 28.174648 85.731880 -234.244751
v -68.934013 16.094629 45.305969
v 30.859615 16.161325 45.305969
v -64.534355 85.938484 45.305969
v 28.174648 85.731880 45.305969
v -68.934013 16.094629 -251.788391
v 30.859615 16.161325 -251.788391
v 28.174648 85.731880 -251.788391
v -45.029171 59.737595 41.860039
v -29.975613 59.737656 41.860039
v -29.975643 68.939987 41.860039
v -45.029171 59.737595 47.562050
v -29.975613 59.737656 47.562050
v -45.029232 68.939919 47.562050
v -29.975643 68.939987 47.562050
v -64.696159 19.573843 45.305969
v 26.553707 19.691694 45.305969
v -60.632683 82.392487 45.305969
v 24.138943 82.260475 45.305969
v -60.881248 22.205435 45.305969
v 22.717344 22.313406 45.305969
v -57.158501 79.756798 45.305969
v 20.505095 79.635834 45.305969
v 77.871727 22.091345 169.270370
v 84.847069 21.941534 169.270370
v 84.755424 28.575726 169.270370
v 77.871727 22.091345 178.165985
v 84.847069 21.941534 178.165985
v 77.780052 28.725536 178.165985
v 84.755424 28.575726 178.165985
v 81.339012 25.357502 181.731064
v 84.856133 21.706800 161.820862
v 84.979332 22.773176 161.697968
v 84.816643 22.729780 170.657379
v 84.939842 23.796148 170.534470
v 84.604027 28.240658 161.703461
v 84.727470 29.298862 161.883270
v 84.661766 26.744160 170.472092
v 84.785240 27.802372 170.651886
v 80.581322 20.493170 161.877197
v 80.704887 21.552237 161.702423
v 80.525169 21.947767 170.652878
v 80.648705 23.006826 170.478134
v -44.299587 40.833668 41.860039
v -29.246029 40.833729 41.860039
v -29.246059 50.036057 41.860039
v -44.299587 40.833668 47.562050
v -29.246029 40.833729 47.562050
v -44.299648 50.035995 47.562050
v -29.246059 50.036057 47.562050
v -65.155327 -63.429050 16.022224
v -118.310318 -109.068596 16.022224
v -66.540642 -107.779526 16.022224
v 17.535856 -34.434238 101.103378
v 14.072721 -24.264902 101.103378
v -10.834258 -19.356661 101.103394
v 47.950649 -19.923529 101.103394
v -192.278229 170.374695 -70.476578
v -140.306900 170.409454 -70.476578
v -189.759933 170.471893 75.110245
v -137.788589 170.506638 75.110245
v -189.856064 206.753586 75.110245
v -139.186844 206.738144 75.110245
v -187.552963 172.283829 75.110245
v -140.031021 172.345215 75.110245
v -187.824142 204.906906 75.110245
v -141.288651 204.930267 75.110245
v -185.566208 173.654343 75.110245
v -142.029007 173.710556 75.110245
v -186.014877 203.534256 75.110245
v -143.181107 203.563385 75.110245
v -221.214630 -90.743996 90.172913
v -214.239349 -90.893806 90.172913
v -214.330963 -84.259621 90.172913
v -221.214630 -90.743996 99.068512
v -214.239349 -90.893806 99.068512
v -221.306366 -84.109810 99.068512
v -214.330963 -84.259621 99.068512
v -217.747406 -87.477837 102.633575
v -214.230316 -91.128548 82.723389
v -214.107086 -90.062172 82.600479
v -214.269745 -90.105568 91.559906
v -214.146576 -89.039192 91.436996
v -214.482391 -84.594688 82.605988
v -214.358917 -83.536476 82.785789
v -214.424652 -86.091179 91.374619
v -214.301117 -85.032967 91.554413
v -218.505096 -92.342171 82.779716
v -218.381500 -91.283104 82.604950
v -218.561188 -90.887581 91.555420
v -218.437653 -89.828514 91.380676
v -173.762497 -63.689991 61.938126
v -153.704605 -36.956970 61.938126
v -152.704117 -62.877262 61.938126
v -174.762924 -37.769699 61.938126
v -173.762253 -63.689980 77.098831
v -153.704300 -36.956959 77.098831
v -152.703873 -62.877254 77.098831
v -174.762680 -37.769691 77.098831
v -227.195038 -114.456772 41.194672
v 1.174408 -38.205341 101.103378
v 13.238066 -38.646038 101.103378
v 13.237974 -24.289658 101.103378
v 3.296905 -19.685831 101.103378
v 1.221863 -33.253883 111.002350
v 13.190550 -32.791958 111.002350
v 1.108612 -33.258305 107.843277
v 13.096830 -32.795635 107.843277
v -18.730589 -44.572701 131.074341
v -19.618254 -45.121174 131.074341
v -18.616636 -44.502281 85.787109
v -19.732237 -45.191593 85.787109
v -302.945282 -140.932968 -186.965179
v -256.642853 -140.281570 -186.965179
v -254.180267 -204.089005 -186.965179
v -355.105560 -142.946121 2.233063
v -256.642853 -140.281570 2.233055
v -352.642975 -206.753571 2.233063
v -254.180267 -204.089005 2.233055
v -305.080963 -204.917877 -177.252274
v -434.220459 -57.239525 -257.204132
v -387.898743 -57.087849 -257.204132
v -382.286224 -202.511688 -257.204132
v -486.380737 -59.252708 -68.005898
v -387.898743 -57.087849 -68.005898
v -480.768250 -204.676514 -68.005898
v -382.286224 -202.511688 -68.005898
v -433.206177 -202.840820 -247.491241
v -464.623352 -73.044731 -76.839539
v -481.660583 -88.031731 -76.839539
v -464.061096 -87.611732 -76.839539
v -482.222839 -73.464729 -60.377167
v -464.623352 -73.044731 -60.377167
v -481.660583 -88.031731 -60.377167
v -464.061096 -87.611732 -60.377167
v -463.677185 -97.559616 -76.839539
v -480.714539 -112.546616 -76.839539
v -463.114990 -112.126625 -76.839539
v -481.276733 -97.979614 -60.377167
v -463.677185 -97.559616 -60.377167
v -480.714539 -112.546616 -60.377167
v -463.114990 -112.126625 -60.377167
v -176.350449 181.017960 72.883331
v -181.887314 176.147430 72.883331
v -176.167709 176.283920 72.883331
v -182.070053 180.881470 86.022919
v -176.350449 181.017960 86.022919
v -181.887314 176.147430 86.022919
v -176.167709 176.283920 86.022919
v -59.049248 -172.675613 -204.953522
v -59.049248 -172.675613 -15.607838
v -126.714920 -174.360504 -15.607838
v -126.714920 -174.360504 -203.659866
v -63.846916 -114.530983 -15.607838
v -126.410233 -116.088829 -15.607838
v -61.688469 -170.458542 -15.607838
v -124.251755 -172.016373 -15.607838
v -147.330276 1.467888 -52.914993
v -83.981407 2.067981 -52.914993
v -82.560814 67.939308 -52.914993
v -147.330276 1.467888 37.056747
v -83.981407 2.067981 37.056747
v -145.909744 67.339172 37.056747
v -82.560814 67.939308 37.056747
v -146.325516 5.295578 35.189972
v -88.891685 5.840011 35.189972
v -87.552910 65.205551 35.189972
v -146.325516 5.295578 62.283821
v -88.891685 5.840011 62.283821
v -144.986710 64.661072 62.283821
v -87.552910 65.205551 62.283821
v -139.364456 51.739418 59.569824
v -126.069870 51.952530 59.569824
v -125.829117 60.747002 59.569824
v -139.364456 51.739418 69.930069
v -126.069870 51.952530 69.930069
v -139.123734 60.533882 69.930069
v -125.829117 60.747002 69.930069
v -144.121536 7.323459 62.283821
v -90.912682 7.779010 62.283821
v -142.965714 62.722054 62.283821
v -89.756889 63.177658 62.283821
v -143.266556 8.678287 62.283821
v -91.738091 9.119449 62.283821
v -142.140335 61.381622 62.283821
v -90.611931 61.822838 62.283821
v -133.861282 13.028372 62.030167
v -126.448593 13.147196 62.030167
v -126.314407 18.050734 62.030167
v -133.861282 13.028372 64.116402
v -126.448593 13.147196 64.116402
v -133.727005 17.931902 64.116402
v -126.314407 18.050734 64.116402
v -116.270126 27.876362 62.030167
v -108.857468 27.995182 62.030167
v -108.723251 32.898724 62.030167
v -116.270126 27.876362 64.116402
v -108.857468 27.995182 64.116402
v -116.135880 32.779896 64.116402
v -108.723251 32.898724 64.116402
v -273.812042 0.375347 -256.136444
v -216.378143 0.919781 -256.136444
v -215.039398 60.285324 -256.136444
v -273.812042 0.375347 13.336105
v -216.378143 0.919781 13.336105
v -272.473236 59.740845 13.336105
v -215.039398 60.285324 13.336105
v -271.608063 2.403225 13.336105
v -218.399139 2.858776 13.336105
v -270.452179 57.801826 13.336105
v -217.243378 58.257431 13.336105
v -270.753021 3.758056 13.336105
v -219.224579 4.199218 13.336105
v -269.626801 56.461395 13.336105
v -218.098419 56.902603 13.336105
v -311.784882 84.862190 -267.197876
v -254.351044 85.406624 -267.197876
v -253.012238 144.772171 -267.197876
v -311.784882 84.862190 2.274673
v -254.351044 85.406624 2.274673
v -310.446075 144.227676 2.274673
v -253.012238 144.772171 2.274673
v -309.580902 86.890068 2.274673
v -256.371979 87.345604 2.274673
v -308.425018 142.288666 2.274673
v -255.216278 142.744263 2.274673
v -308.725922 88.244896 2.274673
v -257.197479 88.686058 2.274673
v -307.599701 140.948242 2.274673
v -256.071259 141.389450 2.274673
vt 0.210705 0.186422
vt 0.310006 0.186422
vt 0.210705 0.323556
vt 0.310006 0.323556
vt -0.006026 0.000000
vt 1.700636 0.501020
vt 4.372227 0.501020
vt -0.006026 0.501020
vt 1.700636 -0.000000
vt 4.372227 -0.000000
vt 0.653204 0.631565
vt 0.785740 0.631565
vt 0.785740 0.853326
vt 0.653204 0.853326
vt 1.065130 0.911669
vt 4.071907 0.911669
vt 4.071907 1.928398
vt 1.065130 1.928398
vt 0.156867 0.141511
vt 0.289403 0.141511
vt 0.289403 0.363272
vt 0.156867 0.363272
vt 1.586115 1.133503
vt 1.645277 0.665690
vt 1.645277 0.890270
vt 1.586115 1.358082
vt 1.824726 0.665690
vt 1.824726 0.890270
vt 1.700751 1.133503
vt 1.700751 1.358082
vt 1.700751 1.358082
vt 8.061128 0.911669
vt 8.061127 1.928398
vt 1.646978 1.498307
vt 1.646978 -0.966407
vt 3.030986 1.498307
vt 3.030986 -0.966407
vt 1.324939 1.811321
vt 1.130906 1.811321
vt 1.130906 0.978977
vt 1.324939 0.978977
vt 1.092403 -6.885764
vt 3.107403 -7.601225
vt 3.107403 -6.885764
vt 1.092403 -7.601225
vt 5.957115 -7.601225
vt 5.957114 -6.885766
vt 0.431560 0.420491
vt 0.332258 0.420491
vt 0.332258 0.283356
vt 0.431560 0.283356
vt -0.011213 0.135661
vt 0.121126 0.149640
vt 0.121533 0.342505
vt -0.010806 0.328527
vt 1.440771 1.133100
vt 1.555153 1.134067
vt 1.555153 1.358163
vt 1.555174 1.358001
vt 1.440792 1.358001
vt 1.651859 0.665690
vt 1.807915 0.665691
vt 1.807915 0.890269
vt 1.651859 0.890270
vt 0.156867 0.141511
vt 0.289403 0.141511
vt 0.289304 0.368190
vt 0.156965 0.358353
vt 1.586115 1.133503
vt 1.700751 1.133503
vt 1.700751 1.358082
vt 1.700751 1.358082
vt 1.586115 1.358082
vt 1.645277 0.665690
vt 1.824726 0.665690
vt 1.828709 0.890270
vt 1.645277 0.890270
vt -0.011296 0.141487
vt 0.121241 0.141486
vt 0.121240 0.363248
vt -0.011296 0.363248
vt 1.440665 1.133503
vt 1.555301 1.133503
vt 1.555301 1.358082
vt 1.555301 1.358082
vt 1.440665 1.358082
vt 1.645258 0.665690
vt 1.824708 0.665690
vt 1.824708 0.890270
vt 1.645258 0.890270
vt 1.646978 0.923864
vt 3.030986 0.923864
vt 3.030986 1.498307
vt 1.646978 1.498307
vt 0.431560 0.420491
vt 0.332258 0.420491
vt 0.332258 0.283356
vt 0.431560 0.283356
vt 0.156867 0.141511
vt 0.289403 0.141511
vt 0.289403 0.363272
vt 0.156867 0.363272
vt 1.586115 1.133503
vt 1.700751 1.133503
vt 1.700751 1.358082
vt 1.700751 1.358082
vt 1.586115 1.358082
vt 1.645277 0.665690
vt 1.824726 0.665690
vt 1.824726 0.890270
vt 1.645277 0.890270
vt 0.156867 0.141511
vt 0.289403 0.141511
vt 0.289403 0.363272
vt 0.156867 0.363272
vt 1.586115 1.133503
vt 1.700751 1.133503
vt 1.700751 1.358082
vt 1.700751 1.358082
vt 1.586115 1.358082
vt 1.645277 0.665690
vt 1.824726 0.665690
vt 1.824726 0.890270
vt 1.645277 0.890270
vt 0.332258 0.283356
vt 0.431560 0.283356
vt 0.332258 0.420491
vt 0.431560 0.420491
vt 0.332258 0.283356
vt 0.332258 0.420491
vt 0.431560 0.283356
vt 0.431560 0.420491
vt 0.653204 0.631565
vt 0.785740 0.631565
vt 0.653204 0.853326
vt 0.785740 0.853326
vt 0.653204 0.631565
vt 0.785740 0.631565
vt 0.653204 0.853326
vt 0.785740 0.853326
vt 0.332258 0.283356
vt 0.332258 0.420491
vt 0.332258 0.420491
vt 0.431560 0.420491
vt 0.156867 0.363272
vt 0.289403 0.363272
vt 1.586115 1.133503
vt 1.700750 1.133503
vt 1.691519 0.890270
vt 0.289403 0.363272
vt 0.156867 0.363272
vt 1.645277 0.665690
vt 1.645277 0.890270
vt 1.824726 0.665690
vt 1.828709 0.890270
vt 0.055462 0.253187
vt 0.289403 0.141511
vt 0.156867 0.363272
vt 0.289403 0.363272
vt 0.388531 0.361068
vt 0.402865 0.380863
vt 0.372297 0.338649
vt 0.408711 0.388936
vt 0.362428 0.325020
vt 0.388531 0.361068
vt 0.402865 0.380863
vt 0.431560 0.420491
vt 0.408711 0.388936
vt 0.382311 0.352478
vt 0.407466 0.317172
vt 0.414323 0.346575
vt 0.392050 0.338808
vt 0.382311 0.352478
vt 0.392050 0.338808
vt 0.414323 0.346575
vt 0.407466 0.317172
vt 0.156867 0.363272
vt 0.289403 0.363272
vt 0.369462 0.334734
vt -0.011296 0.236975
vt 0.121241 0.212912
vt 1.703056 0.890270
vt -0.011296 0.191584
vt 0.121241 0.175322
vt 1.672638 0.890270
vt 0.372297 0.338649
vt 0.332258 0.283356
vt 0.156867 0.141511
vt 0.156867 0.363272
vt 0.289403 0.141511
vt 0.289403 0.363272
vt 0.289403 0.363272
vt 0.289403 0.363272
vt 0.156867 0.363272
vt 0.156867 0.363272
vt 0.289403 0.363272
vt 0.156867 0.363272
vt 0.289403 0.363272
vt 0.156867 0.363272
vn 0.009472 -0.999955 0.000000
vn 0.702819 -0.711369 0.000000
vn 0.999768 -0.021561 0.000000
vn 0.006764 -0.714094 0.700017
vn 0.573028 -0.579998 0.579000
vn 0.000000 0.000000 1.000000
vn 0.713960 -0.015398 0.700017
vn 0.009479 -0.999955 0.000000
vn 0.702471 -0.711712 0.000000
vn 0.999746 -0.022546 0.000000
vn 0.006771 -0.714319 0.699787
vn 0.572718 -0.580252 0.579053
vn 0.000000 0.000000 1.000000
vn 0.714170 -0.016106 0.699787
vn 0.000668 -1.000000 0.000000
vn 0.720844 -0.693097 0.000000
vn 0.999256 0.038564 0.000000
vn 0.000482 -0.721558 0.692353
vn 0.589567 -0.566873 0.575383
vn 0.000000 0.000000 1.000000
vn 0.697464 0.026917 0.716114
vn 0.016028 -0.999872 0.000000
vn 0.703087 -0.711104 0.000000
vn 0.999626 -0.027363 0.000000
vn 0.011491 -0.716849 0.697134
vn 0.572913 -0.579446 0.579667
vn 0.000000 0.000000 1.000000
vn 0.716672 -0.019618 0.697134
vn 0.000668 -1.000000 0.000000
vn 0.720844 -0.693097 0.000000
vn 0.999256 0.038564 0.000000
vn 0.000000 0.000000 1.000000
vn -0.000000 0.000000 1.000000
vn 0.000000 -0.000002 1.000000
vn -0.025408 -0.695521 0.718056
vn 0.575311 -0.582477 0.574228
vn 0.000000 0.000000 1.000000
vn 0.699622 -0.004855 0.714497
vn -0.017223 -0.999852 0.000000
vn 0.009567 -0.897330 -0.441257
vn -0.026928 0.698256 -0.715341
vn -0.012068 -0.700608 0.713444
vn 0.007604 -0.713234 0.700885
vn 0.000000 0.000000 1.000000
vn -0.017282 0.448082 0.893825
vn 0.038566 -0.999256 -0.000000
vn 0.721394 -0.692525 0.000000
vn 0.999998 0.002254 0.000000
vn 0.027587 -0.714798 0.698787
vn 0.588027 -0.564495 0.579284
vn 0.000000 0.000000 1.000000
vn 0.715327 0.001613 0.698788
vn 1.000000 -0.000014 0.000000
vn 0.707100 -0.707113 0.000000
vn -0.707105 0.000010 0.707109
vn 0.707109 -0.000010 0.707105
vn -0.577356 -0.577345 0.577350
vn 0.577344 -0.577356 0.577351
vn -0.000006 1.000000 0.000000
vn 0.708873 0.705336 0.000000
vn 0.720549 -0.693404 0.000000
vn -0.000004 0.705979 0.708232
vn 0.578924 0.576036 0.577087
vn 0.000004 -0.708236 0.705976
vn 0.575773 -0.578660 0.577614
vn -0.047620 0.998866 0.000000
vn 0.706036 0.708176 0.000000
vn 0.890971 -0.003050 -0.454050
vn -0.032222 0.675877 0.736310
vn 0.578636 0.580490 0.572897
vn 0.817670 -0.406468 0.407676
vn -0.026343 0.733631 0.679037
vn 0.999005 -0.044597 0.000000
vn -0.026473 0.691321 0.722063
vn 0.569877 0.586290 0.575765
vn 0.017914 -0.719431 0.694333
vn 0.570758 -0.579637 0.581597
vn 0.000000 0.000000 1.000000
vn 0.000000 0.000000 1.000000
vn 0.000000 0.000000 1.000000
vn 0.000000 0.000000 1.000000
vn 0.000000 0.000000 1.000000
vn -0.000000 0.000000 1.000000
vn 0.000000 -0.000000 1.000000
vn -0.000000 -0.000000 1.000000
vn 0.000000 0.000000 1.000000
vn 0.000000 0.000000 1.000000
vn 0.000000 0.000000 1.000000
vn 0.000000 0.000000 1.000000
vn 0.000000 0.000000 1.000000
vn 0.000000 0.000000 1.000000
vn 0.000000 0.000000 1.000000
vn 0.000000 0.000000 1.000000
vn 0.016027 -0.999872 0.000000
vn 0.703087 -0.711104 0.000000
vn 0.999626 -0.027362 0.000000
vn 0.011490 -0.716850 0.697133
vn 0.572913 -0.579446 0.579666
vn 0.000000 0.000000 1.000000
vn 0.716672 -0.019617 0.697134
vn 0.016028 -0.999872 0.000000
vn 0.703088 -0.711103 0.000000
vn 0.999626 -0.027360 0.000000
vn 0.011491 -0.716850 0.697133
vn 0.572914 -0.579445 0.579666
vn 0.000000 0.000000 1.000000
vn 0.716672 -0.019615 0.697135
vn 0.016027 -0.999872 0.000000
vn 0.703088 -0.711103 0.000000
vn 0.999626 -0.027360 0.000000
vn 0.011491 -0.716848 0.697134
vn 0.572914 -0.579445 0.579666
vn 0.000000 0.000000 1.000000
vn 0.716672 -0.019615 0.697135
vn -1.000000 0.000015 0.000000
vn -0.348633 -0.937259 0.000000
vn -0.561612 -0.598439 0.571368
vn 0.910478 0.262869 0.319265
vn -0.716296 -0.027645 -0.697249
vn 0.591057 -0.561893 -0.578729
vn 0.563733 0.590311 -0.577700
vn 0.591187 -0.561754 0.578732
vn 0.562678 0.594705 0.574212
vn 0.000668 -1.000000 0.000000
vn 0.720844 -0.693098 0.000000
vn 0.999256 0.038564 0.000000
vn 0.000482 -0.721559 0.692353
vn 0.589566 -0.566873 0.575383
vn 0.000000 0.000000 1.000000
vn 0.697465 0.026917 0.716113
vn 0.000668 -1.000000 0.000000
vn 0.720844 -0.693098 0.000000
vn 0.999256 0.038564 0.000000
vn 0.000004 -1.000000 0.000000
vn 0.707111 -0.707102 0.000000
vn 1.000000 0.000009 0.000000
vn 0.000003 -0.707106 0.707108
vn 0.577354 -0.577347 0.577350
vn 0.000000 0.000000 1.000000
vn 0.707106 0.000006 0.707108
vn 0.000000 0.000000 1.000000
vn 0.000000 0.000000 1.000000
vn 0.000000 0.000000 1.000000
vn 0.000000 0.000000 1.000000
vn 0.000000 0.000000 1.000000
vn 0.000000 0.000000 1.000000
vn 0.000000 0.000000 1.000000
vn 0.000000 0.000000 1.000000
vn 0.000668 -1.000000 0.000000
vn 0.720844 -0.693097 0.000000
vn 0.999256 0.038565 0.000000
vn 0.000482 -0.721559 0.692353
vn 0.589567 -0.566873 0.575384
vn 0.000000 0.000000 1.000000
vn 0.697464 0.026918 0.716114
vn 0.000668 -1.000000 0.000000
vn 0.720844 -0.693097 0.000000
vn 0.999256 0.038565 0.000000
vn 0.000004 -1.000000 0.000000
vn 0.707109 -0.707104 0.000000
vn 1.000000 0.000003 0.000000
vn 0.000003 -0.707106 0.707107
vn 0.577352 -0.577348 0.577350
vn 0.000000 0.000000 1.000000
vn 0.707107 0.000002 0.707107
vn 0.000000 0.000000 1.000000
vn 0.000000 0.000000 1.000000
vn 0.000000 0.000000 1.000000
vn 0.000000 0.000000 1.000000
vn 0.000000 0.000000 1.000000
vn 0.000000 0.000000 1.000000
vn 0.000000 0.000000 1.000000
vn 0.000000 0.000000 1.000000
vn -0.021472 -0.999769 0.000000
vn 0.704393 -0.709810 0.000000
vn 0.999905 0.013813 0.000000
vn -0.275194 -0.825968 0.491981
vn 0.650704 -0.654060 0.385733
vn -0.417645 0.414526 0.808543
vn 0.830825 0.267410 0.488079
vn 0.003252 0.003272 0.999989
vn 0.993468 -0.112760 0.017494
vn 0.993468 -0.112760 0.017494
vn 0.993468 -0.112761 0.017494
vn 0.993468 -0.112761 0.017494
vn 0.993430 -0.111543 -0.025581
vn 0.993431 -0.111541 -0.025581
vn 0.993427 -0.111568 -0.025582
vn 0.993428 -0.111566 -0.025582
vn 0.993419 -0.111797 0.024890
vn 0.993419 -0.111799 0.024891
vn 0.993422 -0.111773 0.024883
vn 0.993422 -0.111775 0.024884
vn 0.000004 -1.000000 0.000000
vn 0.707109 -0.707104 0.000000
vn 1.000000 0.000003 0.000000
vn 0.000003 -0.707106 0.707107
vn 0.577352 -0.577348 0.577350
vn 0.000000 0.000000 1.000000
vn 0.707107 0.000002 0.707107
vn 0.000000 0.000000 1.000000
vn 0.000000 0.000000 1.000000
vn 0.000000 0.000000 1.000000
vn -0.000001 0.000000 1.000000
vn -0.000000 -0.000002 1.000000
vn -0.000001 -0.000005 1.000000
vn 0.000000 -0.000001 1.000000
vn 0.000669 -1.000000 0.000656
vn 0.153292 -0.988179 -0.001992
vn 0.000475 -0.710292 0.703907
vn 0.595043 -0.565679 0.570904
vn 0.000000 0.000000 1.000000
vn 0.640930 0.024735 0.767200
vn 0.000000 0.000000 1.000000
vn 0.000000 0.000000 1.000000
vn 0.000000 0.000000 1.000000
vn 0.000000 0.000000 1.000000
vn 0.000000 0.000000 1.000000
vn 0.000000 0.000000 1.000000
vn 0.000000 0.000000 1.000000
vn 0.000000 0.000000 1.000000
vn -0.021472 -0.999769 0.000000
vn 0.704391 -0.709812 0.000000
vn 0.999905 0.013808 0.000000
vn -0.275193 -0.825968 0.491981
vn 0.650703 -0.654061 0.385733
vn -0.417645 0.414523 0.808544
vn 0.830826 0.267405 0.488080
vn 0.003249 0.003272 0.999989
vn 0.993466 -0.112784 0.017496
vn 0.993465 -0.112788 0.017497
vn 0.993472 -0.112733 0.017484
vn 0.993471 -0.112737 0.017485
vn 0.993427 -0.111571 -0.025589
vn 0.993427 -0.111567 -0.025589
vn 0.993421 -0.111623 -0.025592
vn 0.993422 -0.111619 -0.025591
vn 0.993416 -0.111823 0.024891
vn 0.993416 -0.111827 0.024892
vn 0.993422 -0.111774 0.024876
vn 0.993422 -0.111778 0.024878
vn -0.289658 -0.312912 0.904535
vn 0.289660 0.312922 0.904531
vn 0.312916 -0.289662 0.904533
vn -0.312914 0.289654 0.904536
vn -0.554649 -0.599188 0.577355
vn 0.554660 0.599187 0.577345
vn 0.599192 -0.554653 0.577346
vn -0.599182 0.554655 0.577354
vn 0.000006 -1.000000 0.000000
vn -0.036507 -0.999334 0.000000
vn 0.695925 -0.718089 0.006053
vn 1.000000 0.000006 0.000000
vn 0.000001 -0.000000 1.000000
vn 0.027865 -0.721993 0.691339
vn 0.594786 -0.564840 0.572001
vn 0.026732 -0.692646 0.720782
vn 0.896098 -0.315943 0.311752
vn 0.525638 -0.850708 -0.000000
vn 0.525638 -0.850708 -0.000000
vn 0.525639 -0.850708 -0.000000
vn 0.525639 -0.850708 -0.000000
vn -0.017661 0.999844 0.000880
vn 0.688252 0.725472 0.000000
vn 0.770295 -0.637682 -0.002711
vn -0.017308 0.639592 0.768520
vn 0.558079 0.594777 0.578609
vn 0.015987 -0.638300 0.769622
vn 0.596293 -0.558389 0.576747
vn 0.015094 -0.999867 -0.006226
vn -0.008451 0.999964 0.001267
vn 0.692157 0.721747 0.000000
vn 0.767916 -0.640539 -0.003922
vn -0.014079 0.640462 0.767861
vn 0.559577 0.592827 0.579163
vn 0.012160 -0.637321 0.770502
vn 0.595010 -0.560028 0.576483
vn 0.004753 -0.999949 -0.008968
vn 0.999256 0.038569 0.000000
vn 0.023857 -0.999715 0.000000
vn 0.728834 -0.684690 0.000000
vn 0.000000 0.000000 1.000000
vn 0.703278 0.027145 0.710397
vn 0.016791 -0.703601 0.710397
vn 0.595487 -0.559420 0.576580
vn 0.999256 0.038565 0.000000
vn 0.023857 -0.999715 0.000000
vn 0.728832 -0.684692 0.000000
vn 0.000000 0.000000 1.000000
vn 0.703279 0.027142 0.710396
vn 0.016791 -0.703602 0.710396
vn 0.595486 -0.559421 0.576580
vn 0.999256 0.038572 0.000000
vn 0.023857 -0.999715 0.000000
vn 0.728835 -0.684690 0.000000
vn 0.000000 0.000000 1.000000
vn 0.703277 0.027147 0.710397
vn 0.016790 -0.703600 0.710397
vn 0.595488 -0.559419 0.576580
vn 0.590711 -0.558250 -0.582596
vn 0.595748 -0.559087 0.576634
vn -0.558390 -0.595006 0.578074
vn -0.563375 -0.596179 -0.571996
vn 0.000000 0.000000 1.000000
vn 0.000000 0.000000 1.000000
vn 0.000000 0.000000 1.000000
vn 0.000000 0.000000 1.000000
vn 0.009472 -0.999955 0.000000
vn 0.702819 -0.711368 0.000000
vn 0.999768 -0.021561 0.000000
vn 0.006764 -0.714094 0.700017
vn 0.573028 -0.579998 0.579000
vn 0.000000 0.000000 1.000000
vn 0.713960 -0.015397 0.700017
vn 0.009479 -0.999955 0.000000
vn 0.702471 -0.711712 0.000000
vn 0.999746 -0.022546 0.000000
vn 0.006771 -0.714320 0.699786
vn 0.572718 -0.580252 0.579053
vn 0.000000 0.000000 1.000000
vn 0.714170 -0.016106 0.699787
vn 0.016028 -0.999872 0.000000
vn 0.703086 -0.711105 0.000000
vn 0.999626 -0.027365 0.000000
vn 0.011491 -0.716848 0.697135
vn 0.572912 -0.579446 0.579667
vn 0.000000 0.000000 1.000000
vn 0.716673 -0.019619 0.697134
vn 0.000000 0.000000 1.000000
vn 0.000000 0.000000 1.000000
vn 0.000000 0.000000 1.000000
vn 0.000000 0.000000 1.000000
vn 0.000000 0.000000 1.000000
vn 0.000000 0.000000 1.000000
vn 0.000000 0.000000 1.000000
vn 0.000000 0.000000 1.000000
vn 0.016028 -0.999872 0.000000
vn 0.703090 -0.711101 0.000000
vn 0.999626 -0.027355 0.000000
vn 0.011491 -0.716851 0.697132
vn 0.572915 -0.579444 0.579666
vn 0.000000 0.000000 1.000000
vn 0.716671 -0.019612 0.697136
vn 0.016027 -0.999872 0.000000
vn 0.703087 -0.711103 0.000000
vn 0.999626 -0.027361 0.000000
vn 0.011491 -0.716849 0.697133
vn 0.572913 -0.579445 0.579666
vn 0.000000 0.000000 1.000000
vn 0.716672 -0.019616 0.697135
vn 0.009479 -0.999955 0.000000
vn 0.702471 -0.711712 0.000000
vn 0.999746 -0.022545 0.000000
vn 0.006771 -0.714319 0.699788
vn 0.572718 -0.580251 0.579053
vn 0.000000 0.000000 1.000000
vn 0.714170 -0.016105 0.699787
vn 0.000000 0.000000 1.000000
vn 0.000000 0.000000 1.000000
vn 0.000000 0.000000 1.000000
vn 0.000000 0.000000 1.000000
vn 0.000000 0.000000 1.000000
vn 0.000000 0.000000 1.000000
vn 0.000000 0.000000 1.000000
vn 0.000000 0.000000 1.000000
vn 0.009479 -0.999955 0.000000
vn 0.702471 -0.711712 0.000000
vn 0.999746 -0.022546 0.000000
vn 0.006771 -0.714319 0.699787
vn 0.572718 -0.580252 0.579052
vn 0.000000 0.000000 1.000000
vn 0.714170 -0.016106 0.699787
vn 0.000000 0.000000 1.000000
vn 0.000000 0.000000 1.000000
vn 0.000000 0.000000 1.000000
vn 0.000000 0.000000 1.000000
vn 0.000000 0.000000 1.000000
vn 0.000000 0.000000 1.000000
vn 0.000000 0.000000 1.000000
vn 0.000000 0.000000 1.000000
g fff0305e_00110_00445505_e20
f 16/35/16 17/37/17 21/36/21
f 21/36/21 19/34/19 16/35/16
f 8/5/8 9/9/9 12/6/12
f 12/6/12 11/8/11 8/5/8
f 14/7/14 12/6/12 9/9/9
f 9/9/9 10/10/10 14/7/14
f 122/153/122 123/155/123 45/76/45
f 45/76/45 43/77/43 122/153/122
f 58/93/58 53/91/53 56/94/56
f 53/91/53 58/93/58 54/92/54
f 251/82/251 252/83/252 36/84/36
f 38/80/38 37/81/37 255/180/255
f 35/78/35 36/79/36 258/184/258
f 123/155/123 121/154/121 41/75/41
f 41/75/41 45/76/45 123/155/123
f 121/154/121 120/152/120 40/74/40
f 203/159/203 201/157/201 202/158/202
f 40/74/40 41/75/41 121/154/121
f 120/152/120 122/153/122 43/77/43
f 43/77/43 40/74/40 120/152/120
f 300/192/300 301/193/301 303/194/303
f 302/195/302 303/194/303 301/193/301
f 71/110/71 67/108/67 118/149/118
f 69/147/69 72/103/72 70/148/70
f 118/104/118 70/148/70 72/103/72
f 54/144/54 57/96/57 116/143/116
f 57/96/57 54/144/54 58/95/58
f 5/17/5 4/18/4 1/15/1
f 1/15/1 2/16/2 5/17/5
f 16/44/16 31/46/31 17/47/17
f 31/46/31 16/44/16 30/43/30
f 123/155/123 122/153/122 120/152/120
f 120/152/120 121/154/121 123/155/123
f 43/72/43 42/73/42 39/69/39
f 39/69/39 40/70/40 43/71/43
f 30/43/30 15/42/15 29/45/29
f 45/67/45 44/68/44 42/65/42
f 42/65/42 43/66/43 45/67/45
f 74/99/74 76/102/76 75/100/75
f 65/114/65 62/112/62 64/115/64
f 15/42/15 30/43/30 16/44/16
f 59/116/59 63/118/63 60/117/60
f 71/146/71 76/102/76 117/145/117
f 60/121/60 65/123/65 61/122/61
f 2/16/2 3/32/3 7/33/7
f 7/33/7 5/17/5 2/16/2
f 18/50/18 19/51/19 79/126/79
f 79/126/79 78/125/78 18/50/18
f 38/89/38 256/182/256 258/185/258
f 252/87/252 253/88/253 38/89/38
f 20/49/20 18/50/18 78/125/78
f 78/125/78 80/127/80 20/49/20
f 19/51/19 21/48/21 81/128/81
f 295/114/295 293/113/293 297/190/297
f 81/128/81 79/126/79 19/51/19
f 52/54/52 51/55/51 49/52/49
f 46/56/46 47/57/47 50/58/50
f 50/59/50 49/60/49 46/56/46
f 47/61/47 48/62/48 52/63/52
f 36/85/36 35/86/35 251/82/251
f 21/48/21 20/49/20 80/127/80
f 80/127/80 81/128/81 21/48/21
f 80/127/80 78/125/78 82/129/82
f 90/137/90 91/138/91 93/140/93
f 93/140/93 92/139/92 90/137/90
f 84/130/84 85/132/85 81/128/81
f 81/128/81 80/127/80 84/130/84
f 85/132/85 83/131/83 79/126/79
f 79/126/79 81/128/81 85/132/85
f 83/131/83 82/129/82 78/125/78
f 78/125/78 79/126/79 83/131/83
f 25/19/25 26/20/26 28/21/28
f 28/21/28 27/22/27 25/19/25
f 22/23/22 23/29/23 26/30/26
f 26/31/26 25/26/25 22/23/22
f 23/24/23 24/27/24 28/28/28
f 28/28/28 26/25/26 23/24/23
f 4/1/4 5/2/5 7/4/7
f 7/4/7 6/3/6 4/1/4
f 19/38/19 18/39/18 15/40/15
f 15/40/15 16/41/16 19/38/19
f 82/129/82 84/130/84 80/127/80
f 11/11/11 12/12/12 87/134/87
f 203/159/203 202/158/202 76/102/76
f 254/179/254 84/164/84 32/162/32
f 55/97/55 243/170/243 56/98/56
f 242/169/242 55/97/55 57/96/57
f 63/119/63 59/116/59 62/120/62
f 65/123/65 60/121/60 63/124/63
f 75/106/75 72/103/72 74/107/74
f 72/103/72 75/105/75 118/104/118
f 87/134/87 86/133/86 11/11/11
f 49/52/49 50/53/50 52/54/52
f 52/63/52 50/64/50 47/61/47
f 62/112/62 65/114/65 63/113/63
f 118/108/118 77/110/77 73/109/73
f 77/110/77 118/108/118 75/111/75
f 76/102/76 71/146/71 77/101/77
f 66/103/66 70/105/70 67/104/67
f 70/106/70 66/103/66 69/107/69
f 67/108/67 71/110/71 68/109/68
f 118/149/118 67/108/67 70/111/70
f 55/97/55 115/141/115 116/142/116
f 116/142/116 57/96/57 55/97/55
f 262/187/262 259/162/259 260/129/260
f 259/162/259 262/187/262 261/186/261
f 258/185/258 36/90/36 252/87/252
f 35/78/35 258/184/258 257/183/257
f 258/184/258 256/181/256 257/183/257
f 38/89/38 258/185/258 252/87/252
f 114/28/114 112/25/112 109/24/109
f 109/24/109 110/27/110 114/28/114
f 112/31/112 111/26/111 108/23/108
f 108/23/108 109/29/109 112/30/112
f 114/21/114 113/22/113 111/19/111
f 111/19/111 112/20/112 114/21/114
f 107/28/107 105/25/105 102/24/102
f 102/24/102 103/27/103 107/28/107
f 105/31/105 104/26/104 101/23/101
f 101/23/101 102/29/102 105/30/105
f 107/21/107 106/22/106 104/19/104
f 104/19/104 105/20/105 107/21/107
f 100/28/100 98/25/98 95/24/95
f 95/24/95 96/27/96 100/28/100
f 98/31/98 97/26/97 94/23/94
f 94/23/94 95/29/95 98/30/98
f 100/21/100 99/22/99 97/19/97
f 97/19/97 98/20/98 100/21/100
f 257/183/257 256/181/256 255/180/255
f 38/80/38 255/180/255 256/181/256
f 84/164/84 82/129/82 32/162/32
f 61/178/61 64/115/64 250/177/250
f 64/115/64 61/178/61 65/114/65
f 249/174/249 247/176/247 243/170/243
f 243/170/243 245/172/245 249/174/249
f 247/176/247 248/175/248 244/171/244
f 244/171/244 243/170/243 247/176/247
f 248/175/248 246/173/246 242/169/242
f 242/169/242 244/171/244 248/175/248
f 246/173/246 249/174/249 245/172/245
f 92/139/92 93/140/93 89/136/89
f 89/136/89 88/135/88 92/139/92
f 93/140/93 91/138/91 87/134/87
f 87/134/87 89/136/89 93/140/93
f 90/137/90 92/139/92 88/135/88
f 88/135/88 86/133/86 90/137/90
f 91/138/91 90/137/90 86/133/86
f 86/133/86 87/134/87 91/138/91
f 88/135/88 89/136/89 14/13/14
f 14/13/14 13/14/13 88/135/88
f 89/136/89 87/134/87 12/12/12
f 12/12/12 14/13/14 89/136/89
f 86/133/86 88/135/88 13/14/13
f 13/14/13 11/11/11 86/133/86
f 125/35/125 126/37/126 130/36/130
f 130/36/130 128/34/128 125/35/125
f 134/82/134 135/83/135 138/84/138
f 140/80/140 139/81/139 137/78/137
f 137/78/137 138/79/138 140/80/140
f 125/44/125 133/46/133 126/47/126
f 133/46/133 125/44/125 132/43/132
f 132/43/132 124/42/124 131/45/131
f 124/42/124 132/43/132 125/44/125
f 127/50/127 128/51/128 142/126/142
f 142/126/142 141/125/141 127/50/127
f 140/89/140 138/90/138 135/87/135
f 135/87/135 136/88/136 140/89/140
f 129/49/129 127/50/127 141/125/141
f 141/125/141 143/127/143 129/49/129
f 128/51/128 130/48/130 144/128/144
f 144/128/144 142/126/142 128/51/128
f 138/85/138 137/86/137 134/82/134
f 130/48/130 129/49/129 143/127/143
f 143/127/143 144/128/144 130/48/130
f 143/127/143 141/125/141 145/129/145
f 147/130/147 148/132/148 144/128/144
f 144/128/144 143/127/143 147/130/147
f 148/132/148 146/131/146 142/126/142
f 142/126/142 144/128/144 148/132/148
f 146/131/146 145/129/145 141/125/141
f 141/125/141 142/126/142 146/131/146
f 128/38/128 127/39/127 124/40/124
f 124/40/124 125/41/125 128/38/128
f 145/129/145 147/130/147 143/127/143
f 148/132/148 147/130/147 145/129/145
f 145/129/145 146/131/146 148/132/148
f 150/35/150 151/37/151 155/36/155
f 155/36/155 153/34/153 150/35/150
f 159/82/159 160/83/160 163/84/163
f 165/80/165 164/81/164 162/78/162
f 162/78/162 163/79/163 165/80/165
f 150/44/150 158/46/158 151/47/151
f 158/46/158 150/44/150 157/43/157
f 157/43/157 149/42/149 156/45/156
f 149/42/149 157/43/157 150/44/150
f 152/50/152 153/51/153 167/126/167
f 167/126/167 166/125/166 152/50/152
f 165/89/165 163/90/163 160/87/160
f 160/87/160 161/88/161 165/89/165
f 154/49/154 152/50/152 166/125/166
f 166/125/166 168/127/168 154/49/154
f 153/51/153 155/48/155 169/128/169
f 169/128/169 167/126/167 153/51/153
f 163/85/163 162/86/162 159/82/159
f 155/48/155 154/49/154 168/127/168
f 168/127/168 169/128/169 155/48/155
f 168/127/168 166/125/166 170/129/170
f 172/130/172 173/132/173 169/128/169
f 169/128/169 168/127/168 172/130/172
f 173/132/173 171/131/171 167/126/167
f 167/126/167 169/128/169 173/132/173
f 171/131/171 170/129/170 166/125/166
f 166/125/166 167/126/167 171/131/171
f 153/38/153 152/39/152 149/40/149
f 149/40/149 150/41/150 153/38/153
f 170/129/170 172/130/172 168/127/168
f 173/132/173 172/130/172 170/129/170
f 170/129/170 171/131/171 173/132/173
f 174/82/174 175/83/175 178/84/178
f 181/156/181 179/81/179 177/78/177
f 177/78/177 178/79/178 181/156/181
f 180/89/180 178/90/178 175/87/175
f 175/87/175 176/88/176 180/89/180
f 178/85/178 177/86/177 174/82/174
f 180/80/180 179/81/179 181/156/181
f 181/156/181 178/79/178 180/80/180
f 185/89/185 184/90/184 182/87/182
f 182/87/182 183/88/183 185/89/185
f 189/89/189 188/90/188 186/87/186
f 186/87/186 187/88/187 189/89/189
f 193/89/193 192/90/192 190/87/190
f 190/87/190 191/88/191 193/89/193
f 194/82/194 195/83/195 198/84/198
f 200/80/200 199/81/199 197/78/197
f 197/78/197 198/79/198 200/80/200
f 200/89/200 198/90/198 195/87/195
f 195/87/195 196/88/196 200/89/200
f 198/85/198 197/86/197 194/82/194
f 75/100/75 76/102/76 202/158/202
f 202/158/202 201/157/201 75/100/75
f 77/101/77 75/100/75 201/157/201
f 201/157/201 203/159/203 77/101/77
f 76/102/76 77/101/77 203/159/203
f 205/166/205 204/165/204 207/167/207
f 33/160/33 83/131/83 85/132/85
f 32/162/32 83/131/83 33/160/33
f 206/168/206 205/166/205 207/167/207
f 82/129/82 83/131/83 32/162/32
f 34/161/34 33/160/33 204/165/204
f 204/165/204 205/166/205 34/161/34
f 33/160/33 85/132/85 207/167/207
f 207/167/207 204/165/204 33/160/33
f 84/163/84 34/161/34 205/166/205
f 205/166/205 206/168/206 84/163/84
f 85/132/85 84/163/84 206/168/206
f 206/168/206 207/167/207 85/132/85
f 277/114/277 274/112/274 276/115/276
f 213/36/213 211/34/211 209/35/209
f 273/178/273 276/115/276 278/177/278
f 285/191/285 284/189/284 280/115/280
f 283/190/283 285/191/285 281/114/281
f 287/115/287 288/114/288 292/191/292
f 268/115/268 265/178/265 269/114/269
f 272/121/272 277/123/277 273/122/273
f 271/116/271 275/118/275 272/117/272
f 210/50/210 211/51/211 215/126/215
f 215/126/215 214/125/214 210/50/210
f 280/115/280 281/114/281 285/191/285
f 285/191/285 282/188/282 284/189/284
f 212/49/212 210/50/210 214/125/214
f 214/125/214 216/127/216 212/49/212
f 211/51/211 213/48/213 217/128/217
f 217/128/217 215/126/215 211/51/211
f 282/188/282 285/191/285 283/190/283
f 213/48/213 212/49/212 216/127/216
f 216/127/216 217/128/217 213/48/213
f 216/127/216 214/125/214 218/129/218
f 220/130/220 221/132/221 217/128/217
f 217/128/217 216/127/216 220/130/220
f 221/132/221 219/131/219 215/126/215
f 215/126/215 217/128/217 221/132/221
f 219/131/219 218/129/218 214/125/214
f 214/125/214 215/126/215 219/131/219
f 211/38/211 210/39/210 208/40/208
f 208/40/208 209/41/209 211/38/211
f 218/129/218 220/130/220 216/127/216
f 277/123/277 272/121/272 275/124/275
f 292/191/292 289/188/289 291/189/291
f 220/160/220 219/131/219 221/132/221
f 274/112/274 277/114/277 275/113/275
f 288/114/288 286/113/286 290/190/290
f 218/129/218 219/131/219 220/162/220
f 276/115/276 273/178/273 277/114/277
f 281/114/281 279/113/279 283/190/283
f 371/14/371 369/11/369 373/133/373
f 275/119/275 271/116/271 274/120/274
f 292/191/292 291/189/291 287/115/287
f 290/190/290 292/191/292 288/114/288
f 289/188/289 292/191/292 290/190/290
f 373/133/373 375/135/375 371/14/371
f 222/82/222 223/83/223 226/84/226
f 229/156/229 227/81/227 225/78/225
f 225/78/225 226/79/226 229/156/229
f 228/89/228 226/90/226 223/87/223
f 223/87/223 224/88/224 228/89/228
f 226/85/226 225/86/225 222/82/222
f 228/80/228 227/81/227 229/156/229
f 229/156/229 226/79/226 228/80/228
f 233/89/233 232/90/232 230/87/230
f 230/87/230 231/88/231 233/89/233
f 237/89/237 236/90/236 234/87/234
f 234/87/234 235/88/235 237/89/237
f 241/89/241 240/90/240 238/87/238
f 238/87/238 239/88/239 241/89/241
f 244/171/244 58/95/58 56/98/56
f 58/95/58 242/169/242 57/96/57
f 55/97/55 242/169/242 245/172/245
f 242/169/242 58/95/58 244/171/244
f 243/170/243 244/171/244 56/98/56
f 246/173/246 248/175/248 249/174/249
f 55/97/55 245/172/245 243/170/243
f 249/174/249 248/175/248 247/176/247
f 245/172/245 242/169/242 246/173/246
f 269/114/269 266/112/266 268/115/268
f 263/116/263 267/118/267 264/117/264
f 264/121/264 269/123/269 265/122/265
f 267/119/267 263/116/263 266/120/266
f 269/123/269 264/121/264 267/124/267
f 266/112/266 269/114/269 267/113/267
f 265/178/265 268/115/268 270/177/270
f 299/191/299 298/189/298 294/115/294
f 297/190/297 299/191/299 295/114/295
f 294/115/294 295/114/295 299/191/299
f 299/191/299 296/188/296 298/189/298
f 296/188/296 299/191/299 297/190/297
f 68/150/68 71/146/71 301/193/301
f 301/193/301 300/192/300 68/150/68
f 119/151/119 68/150/68 300/192/300
f 300/192/300 303/194/303 119/151/119
f 304/196/304 305/197/305 307/199/307
f 307/199/307 306/198/306 304/196/304
f 117/145/117 119/151/119 303/194/303
f 303/194/303 302/195/302 117/145/117
f 71/146/71 117/145/117 305/197/305
f 305/197/305 304/196/304 71/146/71
f 301/193/301 71/146/71 304/196/304
f 304/196/304 306/198/306 301/193/301
f 117/145/117 302/195/302 307/199/307
f 307/199/307 305/197/305 117/145/117
f 302/195/302 301/193/301 306/198/306
f 306/198/306 307/199/307 302/195/302
f 315/5/315 316/9/316 319/6/319
f 319/6/319 318/8/318 315/5/315
f 321/7/321 319/6/319 316/9/316
f 316/9/316 317/10/317 321/7/321
f 312/17/312 311/18/311 308/15/308
f 308/15/308 309/16/309 312/17/312
f 309/16/309 310/32/310 314/33/314
f 314/33/314 312/17/312 309/16/309
f 333/137/333 334/138/334 336/140/336
f 336/140/336 335/139/335 333/137/333
f 325/19/325 326/20/326 328/21/328
f 328/21/328 327/22/327 325/19/325
f 322/23/322 323/29/323 326/30/326
f 326/31/326 325/26/325 322/23/322
f 323/24/323 324/27/324 328/28/328
f 328/28/328 326/25/326 323/24/323
f 311/1/311 312/2/312 314/4/314
f 314/4/314 313/3/313 311/1/311
f 318/11/318 319/12/319 330/134/330
f 330/134/330 329/133/329 318/11/318
f 350/28/350 348/25/348 345/24/345
f 345/24/345 346/27/346 350/28/350
f 348/31/348 347/26/347 344/23/344
f 344/23/344 345/29/345 348/30/348
f 350/21/350 349/22/349 347/19/347
f 347/19/347 348/20/348 350/21/350
f 343/28/343 341/25/341 338/24/338
f 338/24/338 339/27/339 343/28/343
f 341/31/341 340/26/340 337/23/337
f 337/23/337 338/29/338 341/30/341
f 343/21/343 342/22/342 340/19/340
f 340/19/340 341/20/341 343/21/343
f 335/139/335 336/140/336 332/136/332
f 332/136/332 331/135/331 335/139/335
f 336/140/336 334/138/334 330/134/330
f 330/134/330 332/136/332 336/140/336
f 333/137/333 335/139/335 331/135/331
f 331/135/331 329/133/329 333/137/333
f 334/138/334 333/137/333 329/133/329
f 329/133/329 330/134/330 334/138/334
f 331/135/331 332/136/332 321/13/321
f 321/13/321 320/14/320 331/135/331
f 332/136/332 330/134/330 319/12/319
f 319/12/319 321/13/321 332/136/332
f 329/133/329 331/135/331 320/14/320
f 320/14/320 318/11/318 329/133/329
f 351/5/351 352/9/352 355/6/355
f 355/6/355 354/8/354 351/5/351
f 357/7/357 355/6/355 352/9/352
f 352/9/352 353/10/353 357/7/357
f 362/137/362 363/138/363 365/140/365
f 365/140/365 364/139/364 362/137/362
f 354/11/354 355/12/355 359/134/359
f 359/134/359 358/133/358 354/11/354
f 364/139/364 365/140/365 361/136/361
f 361/136/361 360/135/360 364/139/364
f 365/140/365 363/138/363 359/134/359
f 359/134/359 361/136/361 365/140/365
f 362/137/362 364/139/364 360/135/360
f 360/135/360 358/133/358 362/137/362
f 363/138/363 362/137/362 358/133/358
f 358/133/358 359/134/359 363/138/363
f 360/135/360 361/136/361 357/13/357
f 357/13/357 356/14/356 360/135/360
f 361/136/361 359/134/359 355/12/355
f 355/12/355 357/13/357 361/136/361
f 358/133/358 360/135/360 356/14/356
f 356/14/356 354/11/354 358/133/358
f 366/5/366 367/9/367 370/6/370
f 370/6/370 369/8/369 366/5/366
f 372/7/372 370/6/370 367/9/367
f 367/9/367 368/10/368 372/7/372
f 377/137/377 378/138/378 380/140/380
f 380/140/380 379/139/379 377/137/377
f 369/11/369 370/12/370 374/134/374
f 374/134/374 373/133/373 369/11/369
f 379/139/379 380/140/380 376/136/376
f 376/136/376 375/135/375 379/139/379
f 380/140/380 378/138/378 374/134/374
f 374/134/374 376/136/376 380/140/380
f 377/137/377 379/139/379 375/135/375
f 375/135/375 373/133/373 377/137/377
f 378/138/378 377/137/377 373/133/373
f 373/133/373 374/134/374 378/138/378
f 375/135/375 376/136/376 372/13/372
f 372/13/372 371/14/371 375/135/375
f 376/136/376 374/134/374 370/12/370
f 370/12/370 372/13/372 376/136/376
