# fff0ade4_00036_000aadbb
o fff0ade4_00036_000aadbb
v 0.207560 -2.175883 -0.027861
v 0.983228 -2.175883 -0.027861
v 0.207560 -1.638137 -0.027861
v 0.983228 -1.638137 -0.027861
v 0.207560 -2.175883 0.685595
v 0.983228 -2.175883 0.685595
v 0.207560 -1.638137 0.685595
v 0.983228 -1.638137 0.685595
v 0.207394 -2.127665 0.018943
v 0.207394 -1.668611 0.018943
v 0.207394 -2.127665 0.655843
v 0.207394 -1.668611 0.655843
v 0.206170 -2.102205 0.498090
v 0.206170 -1.694071 0.498090
v 0.206170 -2.102205 0.644933
v 0.206170 -1.694071 0.644933
v 0.206170 -2.102205 0.051909
v 0.206170 -1.694071 0.051909
v 0.206170 -2.102205 0.471590
v 0.206170 -1.694071 0.471590
v 0.132658 -2.208372 0.681832
v 1.043233 -2.208372 0.681832
v 0.132658 -0.240797 0.681832
v 1.043233 -0.240797 0.681832
v 0.132658 -2.208372 0.749522
v 1.043233 -2.208372 0.749522
v 0.132658 -0.240797 0.749522
v 1.043233 -0.240797 0.749522
v 0.216303 -0.335178 -0.027861
v 1.052429 -0.335178 -0.027861
v 0.216303 -0.295295 -0.027861
v 1.052429 -0.259099 -0.027861
v 0.216303 -0.335178 0.685595
v 1.052429 -0.335178 0.685595
v 0.216303 -0.295295 0.685595
v 1.052429 -0.259099 0.685595
v 0.203784 -1.926169 0.576281
v 0.203784 -1.870374 0.576281
v 0.203784 -1.926169 0.627881
v 0.203784 -1.870374 0.627881
v 0.205839 -1.974913 0.555098
v 0.205839 -1.817955 0.555098
v 0.205839 -1.998928 0.514430
v 0.205839 -1.793940 0.514430
v 0.207560 0.285221 -0.027861
v 0.983229 0.285221 -0.027861
v 0.207560 0.822967 -0.027861
v 0.983229 0.822967 -0.027861
v 0.207560 0.285221 0.685595
v 0.983229 0.285221 0.685595
v 0.207560 0.822967 0.685595
v 0.983229 0.822967 0.685595
v 0.207395 0.333439 0.018943
v 0.207395 0.792493 0.018943
v 0.207395 0.333439 0.655843
v 0.207395 0.792493 0.655843
v 0.206171 0.358900 0.498090
v 0.206171 0.767033 0.498090
v 0.206171 0.358900 0.644933
v 0.206171 0.767033 0.644933
v 0.206171 0.358900 0.051909
v 0.206171 0.767033 0.051909
v 0.206171 0.358900 0.471590
v 0.206171 0.767033 0.471590
v 0.132658 0.252732 0.681832
v 1.043233 0.252732 0.681832
v 0.132658 2.220308 0.681832
v 1.043233 2.220308 0.681832
v 0.132658 0.252732 0.749522
v 1.043233 0.252732 0.749522
v 0.132658 2.220308 0.749522
v 1.043233 2.220308 0.749522
v 0.216303 2.125926 -0.027861
v 1.052429 2.125926 -0.027861
v 0.216303 2.165809 -0.027861
v 1.052429 2.202005 -0.027861
v 0.216303 2.125926 0.685595
v 1.052429 2.125926 0.685595
v 0.216303 2.165809 0.685595
v 1.052429 2.202005 0.685595
v 0.203784 0.534935 0.576281
v 0.203784 0.590731 0.576281
v 0.203784 0.534935 0.627881
v 0.203784 0.590731 0.627881
v 0.205840 0.486191 0.555098
v 0.205840 0.643148 0.555098
v 0.205840 0.462176 0.514430
v 0.205840 0.667164 0.514430
vt 88.464531 3.103522
vt 88.464432 2.990978
vt 92.235619 3.091781
vt 92.235619 2.764090
vt 0.151127 0.000000
vt 0.950510 0.000000
vt 0.151127 0.658473
vt 0.950510 0.658473
vt 0.000000 3.191231
vt 1.000000 3.191231
vt 0.000000 4.191231
vt 1.000000 4.191231
vt 0.000000 3.191231
vt 1.000000 3.191231
vt 0.000000 4.191231
vt 1.000000 4.191231
vt -6.001681 113.503349
vt -6.001681 112.503700
vt -5.001673 112.503700
vt -5.001965 113.503349
vn -0.707107 -0.707107 0.000000
vn 0.707107 -0.707107 0.000000
vn -0.707107 0.707107 0.000000
vn 0.707107 0.707107 0.000000
vn -0.707107 -0.707107 0.000000
vn 0.707107 -0.707107 0.000000
vn -0.707107 0.707107 0.000000
vn 0.707107 0.707107 0.000000
vn -1.000000 0.000000 0.000000
vn -1.000000 0.000000 0.000000
vn -1.000000 0.000000 0.000000
vn -1.000000 0.000000 0.000000
vn -1.000000 -0.000000 0.000000
vn -1.000000 -0.000000 0.000000
vn -1.000000 -0.000000 0.000000
vn -1.000000 -0.000000 0.000000
vn -1.000000 -0.000000 0.000000
vn -1.000000 -0.000000 0.000000
vn -1.000000 -0.000000 0.000000
vn -1.000000 -0.000000 0.000000
vn -0.707107 -0.707107 0.000000
vn 0.707107 -0.707107 0.000000
vn -0.707107 0.707107 0.000000
vn 0.707107 0.707107 0.000000
vn -0.577350 -0.577350 0.577350
vn 0.577350 -0.577350 0.577350
vn -0.577350 0.577350 0.577350
vn 0.577350 0.577350 0.577350
vn -0.707107 -0.707107 0.000000
vn 0.707107 -0.707107 0.000000
vn -0.722236 0.691647 0.000000
vn 0.691647 0.722236 0.000000
vn -0.707107 -0.707107 0.000000
vn 0.707107 -0.707107 0.000000
vn -0.722236 0.691647 0.000000
vn 0.691647 0.722236 0.000000
vn -1.000000 -0.000001 0.000000
vn -1.000000 -0.000001 0.000000
vn -1.000000 -0.000001 0.000000
vn -1.000000 -0.000001 0.000000
vn -1.000000 -0.000000 0.000000
vn -1.000000 -0.000000 -0.000000
vn -1.000000 -0.000000 0.000000
vn -1.000000 -0.000000 -0.000000
vn -0.707107 -0.707107 0.000000
vn 0.707107 -0.707107 0.000000
vn -0.707107 0.707107 0.000000
vn 0.707107 0.707107 0.000000
vn -0.707107 -0.707107 0.000000
vn 0.707107 -0.707107 0.000000
vn -0.707107 0.707107 0.000000
vn 0.707107 0.707107 0.000000
vn -1.000000 0.000000 0.000000
vn -1.000000 0.000000 0.000000
vn -1.000000 0.000000 0.000000
vn -1.000000 0.000000 0.000000
vn -1.000000 -0.000000 0.000000
vn -1.000000 -0.000000 0.000000
vn -1.000000 -0.000000 0.000000
vn -1.000000 -0.000000 0.000000
vn -1.000000 -0.000000 0.000000
vn -1.000000 -0.000000 0.000000
vn -1.000000 -0.000000 0.000000
vn -1.000000 -0.000000 0.000000
vn -0.707107 -0.707107 0.000000
vn 0.707107 -0.707107 0.000000
vn -0.707107 0.707107 0.000000
vn 0.707107 0.707107 0.000000
vn -0.577350 -0.577350 0.577350
vn 0.577350 -0.577350 0.577350
vn -0.577350 0.577350 0.577350
vn 0.577350 0.577350 0.577350
vn -0.707107 -0.707107 0.000000
vn 0.707107 -0.707107 0.000000
vn -0.722236 0.691646 0.000000
vn 0.691646 0.722236 0.000000
vn -0.707107 -0.707107 0.000000
vn 0.707107 -0.707107 0.000000
vn -0.722236 0.691646 0.000000
vn 0.691646 0.722236 0.000000
vn -1.000000 -0.000001 0.000000
vn -1.000000 -0.000001 0.000000
vn -1.000000 -0.000001 0.000000
vn -1.000000 -0.000001 0.000000
vn -1.000000 -0.000000 0.000000
vn -1.000000 -0.000000 -0.000000
vn -1.000000 -0.000000 0.000000
vn -1.000000 -0.000000 -0.000000
g fff0ade4_00036_000aadbb_e0
f 5/4/5 7/3/7 3/1/3
f 3/1/3 1/2/1 5/4/5
f 25/13/25 27/15/27 23/11/23
f 23/11/23 21/9/21 25/13/25
f 14/1/14 13/2/13 15/4/15
f 15/4/15 16/3/16 14/1/14
f 10/1/10 9/2/9 11/4/11
f 11/4/11 12/3/12 10/1/10
f 33/4/33 35/3/35 31/1/31
f 31/1/31 29/2/29 33/4/33
f 49/4/49 51/3/51 47/1/47
f 47/1/47 45/2/45 49/4/49
f 69/13/69 71/15/71 67/11/67
f 67/11/67 65/9/65 69/13/69
f 58/1/58 57/2/57 59/4/59
f 59/4/59 60/3/60 58/1/58
f 54/1/54 53/2/53 55/4/55
f 55/4/55 56/3/56 54/1/54
f 77/4/77 79/3/79 75/1/75
f 75/1/75 73/2/73 77/4/77
g fff0ade4_00036_000aadbb_e2
f 4/5/4 3/6/3 7/8/7
f 7/8/7 8/7/8 4/5/4
f 22/10/22 24/12/24 28/16/28
f 28/16/28 26/14/26 22/10/22
f 2/1/2 4/2/4 8/4/8
f 8/4/8 6/3/6 2/1/2
f 32/5/32 31/6/31 35/8/35
f 35/8/35 36/7/36 32/5/32
f 30/1/30 32/2/32 36/4/36
f 36/4/36 34/3/34 30/1/30
f 48/5/48 47/6/47 51/8/51
f 51/8/51 52/7/52 48/5/48
f 66/10/66 68/12/68 72/16/72
f 72/16/72 70/14/70 66/10/66
f 46/1/46 48/2/48 52/4/52
f 52/4/52 50/3/50 46/1/46
f 76/5/76 75/6/75 79/8/79
f 79/8/79 80/7/80 76/5/76
f 74/1/74 76/2/76 80/4/80
f 80/4/80 78/3/78 74/1/74
g fff0ade4_00036_000aadbb_e3
f 25/13/25 26/14/26 28/16/28
f 28/16/28 27/15/27 25/13/25
f 43/4/43 42/1/42 44/3/44
f 42/1/42 43/4/43 41/2/41
f 69/13/69 70/14/70 72/16/72
f 72/16/72 71/15/71 69/13/69
f 87/4/87 86/1/86 88/3/88
f 86/1/86 87/4/87 85/2/85
g fff0ade4_00036_000aadbb_e1
f 21/9/21 22/10/22 26/14/26
f 26/14/26 25/13/25 21/9/21
f 27/15/27 28/16/28 24/12/24
f 24/12/24 23/11/23 27/15/27
f 1/5/1 2/6/2 6/8/6
f 6/8/6 5/7/5 1/5/1
f 29/5/29 30/6/30 34/8/34
f 34/8/34 33/7/33 29/5/29
f 65/9/65 66/10/66 70/14/70
f 70/14/70 69/13/69 65/9/65
f 71/15/71 72/16/72 68/12/68
f 68/12/68 67/11/67 71/15/71
f 45/5/45 46/6/46 50/8/50
f 50/8/50 49/7/49 45/5/45
f 73/5/73 74/6/74 78/8/78
f 78/8/78 77/7/77 73/5/73
g fff0ade4_00036_000aadbb_e4
f 38/17/38 37/18/37 39/19/39
f 39/19/39 40/20/40 38/17/38
f 82/17/82 81/18/81 83/19/83
f 83/19/83 84/20/84 82/17/82
g fff0ade4_00036_000aadbb_e5
f 18/1/18 17/2/17 19/4/19
f 19/4/19 20/3/20 18/1/18
f 62/1/62 61/2/61 63/4/63
f 63/4/63 64/3/64 62/1/62
