# fff0aa7b_00321_007bde18
o fff0aa7b_00321_007bde18
v -0.656881 0.829116 -3.940002
v -0.656881 0.829116 3.940002
v 0.593146 0.829116 -3.940002
v 0.593146 0.829116 3.940002
v 0.790809 0.631385 3.940002
v 0.790809 0.829116 3.940002
v 0.790809 0.829116 -3.940002
v 0.790809 0.631385 -3.940002
v -0.854612 0.631453 -3.940002
v 0.593438 -0.816310 -3.940002
v 0.593438 -0.816310 3.940002
v -0.854612 0.829116 -3.940002
v 0.791123 -0.618625 -3.940002
v 0.791123 -0.816310 -3.940002
v 0.791123 -0.816310 3.940002
v 0.791123 -0.618625 3.940002
v -0.854612 0.631862 -3.812317
v -0.854612 -0.618148 -3.812317
v -0.854612 -0.618148 3.940002
v -0.854612 0.631862 3.940002
v 0.791123 0.631385 -3.812317
v 0.791123 -0.618625 -3.812317
v 0.791123 -0.618625 3.940002
v 0.791123 0.631385 3.940002
v -0.854612 0.829116 3.940002
v -0.854272 -0.816305 3.940002
v -0.854272 -0.618573 3.940002
v -0.656608 -0.816305 3.940002
v -0.854272 -0.816305 -3.940002
v -0.854612 0.631453 3.940002
v -0.656608 -0.816305 -3.940002
v -0.854272 -0.618573 -3.940002
v 0.593146 0.799819 -1.281585
v 0.593146 0.799819 -3.812317
v -0.656881 0.799819 -3.812317
v -0.656881 0.799819 -1.281585
v -0.656881 0.799819 3.940002
v 0.593146 0.799819 3.940002
v 0.593418 -0.816305 -1.281585
v 0.593418 -0.816305 -3.812317
v -0.656608 -0.816305 -3.812317
v -0.656608 -0.816305 -1.281585
v -0.656608 -0.816305 3.940002
v 0.593418 -0.816305 3.940002
v -0.854612 0.631862 -1.281585
v -0.854612 -0.618148 -1.281585
v 0.791123 0.631385 -1.281585
v 0.791123 -0.618625 -1.281585
v 0.593146 0.828994 -3.812317
v -0.656881 0.828994 -3.812317
v -0.656881 0.828994 3.940002
v 0.593146 0.828994 3.940002
v -0.656881 0.829116 -1.281585
v 0.593146 0.829116 -1.281585
v 0.790809 0.631385 -1.281585
v 0.790809 0.829116 -1.281585
v -0.854272 -0.618573 -1.281585
v 0.593438 -0.816310 -1.281585
v -0.854272 -0.816305 -1.281585
v 0.791123 -0.618625 -1.281585
v -0.854612 0.631453 -1.281585
v -0.854612 0.829116 -1.281585
v -0.656608 -0.816305 -1.281585
v 0.791123 -0.816310 -1.281585
v -0.878111 0.631862 -3.812317
v -0.878111 0.631862 3.940002
v 0.593418 -0.795309 -1.281585
v 0.593418 -0.795309 -3.812317
v -0.656608 -0.795309 -3.812317
v -0.656608 -0.795309 -1.281585
v -0.656608 -0.795309 3.940002
v 0.593418 -0.795309 3.940002
v 0.769150 0.631385 -1.281585
v 0.769150 0.631385 -3.812317
v 0.769150 -0.618625 -3.812317
v 0.769150 -0.618625 -1.281585
v 0.769150 -0.618625 3.940002
v 0.769150 0.631385 3.940002
v 0.593146 0.828994 -1.281585
v -0.656881 0.828994 -1.281585
v -1.338853 1.329224 -3.912537
v -1.338853 -1.329224 -3.912537
v 1.338853 1.329224 -3.912537
v 1.338853 -1.329224 -3.912537
v -0.820575 0.814625 -3.912537
v 0.820526 0.814625 -3.912537
v 0.820526 -0.814672 -3.912537
v -0.820575 -0.814672 -3.912537
v -0.878111 0.631862 -1.281585
v -0.878111 -0.618148 -3.812317
v -0.878111 -0.618148 -1.281585
v -0.878111 -0.618148 3.940002
v 0.383762 -0.855466 -3.726950
v 0.383762 -0.855466 -3.937593
v 0.826159 -0.432234 -3.937593
v 0.826159 -0.855466 -3.937593
v 0.393918 0.746460 -3.726929
v 0.393918 0.746460 -3.937622
v 0.817136 0.873779 -3.726929
v 0.817136 0.431396 -3.726929
v 0.695126 0.431396 -3.937622
v 0.695126 0.431396 -3.726929
v 0.817136 0.431396 -3.937622
v 0.393918 0.873779 -3.726929
v 0.393918 0.873779 -3.937622
v 0.817136 0.873779 -3.937622
v 0.698867 -0.432251 -3.726950
v 0.698867 -0.432251 -3.937593
v 0.826159 -0.855466 -3.726950
v 0.383786 -0.733477 -3.937593
v 0.383786 -0.733477 -3.726950
v 0.826159 -0.432234 -3.726950
v -0.885318 0.873779 -3.726929
v -0.885318 0.431396 -3.726929
v -0.885318 0.431396 -3.937622
v -0.462100 0.873779 -3.937622
v -0.462100 0.873779 -3.726929
v -0.885318 0.873779 -3.937622
v -0.767049 -0.432251 -3.726950
v -0.767049 -0.432251 -3.937593
v -0.894341 -0.855466 -3.726950
v -0.451944 -0.855466 -3.726950
v -0.451968 -0.733477 -3.726950
v -0.451968 -0.733477 -3.937593
v -0.451944 -0.855466 -3.937593
v -0.894341 -0.432234 -3.937593
v -0.894341 -0.432234 -3.726950
v -0.894341 -0.855466 -3.937593
v -0.462100 0.746460 -3.726929
v -0.462100 0.746460 -3.937622
v -0.763309 0.431396 -3.726929
v -0.763309 0.431396 -3.937622
vt 1.165445 -0.053415
vt 1.165445 1.003176
vt 1.165445 -0.053415
vt -0.000347 -0.053415
vt -0.000347 1.003176
vt 1.165445 1.003176
vt 3.205252 1.003176
vt 3.205252 -0.053415
vt 0.000000 1.000000
vt 1.000000 1.000000
vt 1.000000 0.000000
vt 0.000000 0.000000
vt 1.000000 0.000000
vt 0.000000 0.000000
vt 0.000000 1.000000
vt 1.000000 1.000000
vt 1.165445 -0.053415
vt 1.165445 1.003176
vt 1.165445 -0.053415
vt 1.165445 1.003176
vt 1.000000 0.337362
vt 0.000000 0.337362
vt 0.000000 0.337362
vt 1.000000 0.337362
vt 0.000000 0.000000
vt 0.000000 0.000000
vt 0.000000 0.337362
vt 1.000000 0.337362
vt 0.000000 0.000000
vt 0.000000 0.000000
vt 1.000000 0.337362
vt 0.000000 0.337362
vt 1.165445 1.003176
vt 1.165445 -0.053415
vt -0.000347 -0.053415
vt -0.000347 1.003176
vt 0.000000 0.337362
vt 1.000000 0.337362
vt 0.000000 0.000000
vt 0.000000 0.000000
vt 1.000000 0.337362
vt 0.000000 0.337362
vt 0.000000 0.337362
vt 0.000000 0.000000
vt 1.000000 0.337362
vt 1.000000 0.337362
vt 0.000000 0.337362
vt 0.000000 0.000000
vt 0.000000 0.000000
vt 0.000000 0.000000
vt 0.000000 0.000000
vt 0.000000 0.000000
vt 0.000000 0.000000
vt 0.000000 0.000000
vn 0.923913 0.382604 0.000000
vn 0.923913 0.382603 0.000000
vn -0.923846 0.382763 0.000000
vn -0.923847 0.382762 0.000000
vn 0.382603 -0.923913 0.000000
vn 0.707107 0.707107 0.000000
vn 0.707107 0.707107 0.000000
vn 0.382604 -0.923912 0.000000
vn -0.382763 -0.923847 0.000000
vn -0.923879 -0.382684 0.000000
vn -0.923880 -0.382683 0.000000
vn -0.707107 0.707107 0.000000
vn 0.382683 0.923880 0.000000
vn 0.707107 -0.707107 0.000000
vn 0.707107 -0.707107 0.000000
vn 0.382684 0.923879 0.000000
vn 1.000000 0.000000 0.000000
vn 1.000000 0.000000 0.000000
vn 1.000000 0.000000 0.000000
vn 1.000000 0.000000 0.000000
vn 1.000000 0.000000 0.000000
vn 1.000000 0.000000 0.000000
vn 1.000000 0.000000 0.000000
vn 1.000000 0.000000 0.000000
vn -0.707107 0.707107 0.000000
vn -0.707107 -0.707107 0.000000
vn -0.382604 0.923913 0.000000
vn 0.923847 -0.382762 0.000000
vn -0.707107 -0.707107 0.000000
vn -0.382762 -0.923847 0.000000
vn 0.923847 -0.382763 0.000000
vn -0.382604 0.923912 0.000000
vn 0.000000 -1.000000 0.000000
vn 0.000000 -1.000000 0.000000
vn 0.000000 -1.000000 0.000000
vn 0.000000 -1.000000 0.000000
vn 0.000000 -1.000000 0.000000
vn 0.000000 -1.000000 0.000000
vn 0.000000 -1.000000 0.000000
vn 0.000000 -1.000000 0.000000
vn 0.000000 -1.000000 0.000000
vn 0.000000 -1.000000 0.000000
vn 0.000000 -1.000000 0.000000
vn 0.000000 -1.000000 0.000000
vn 1.000000 0.000000 0.000000
vn 1.000000 0.000000 0.000000
vn 1.000000 0.000000 0.000000
vn 1.000000 0.000000 0.000000
vn 0.000000 1.000000 0.000000
vn 0.000000 1.000000 0.000000
vn 0.000000 1.000000 0.000000
vn 0.000000 1.000000 0.000000
vn 0.923912 0.382604 0.000000
vn -0.923846 0.382764 0.000000
vn 0.382604 -0.923913 0.000000
vn 0.707107 0.707107 0.000000
vn -0.382604 0.923912 0.000000
vn -0.923880 -0.382684 0.000000
vn -0.707107 -0.707107 0.000000
vn 0.382683 0.923880 0.000000
vn -0.382763 -0.923846 0.000000
vn -0.707107 0.707107 0.000000
vn 0.923846 -0.382764 0.000000
vn 0.707107 -0.707107 0.000000
vn 1.000000 0.000000 0.000000
vn 1.000000 0.000000 0.000000
vn 0.000000 -1.000000 0.000000
vn 0.000000 -1.000000 0.000000
vn 0.000000 -1.000000 0.000000
vn 0.000000 -1.000000 0.000000
vn 0.000000 -1.000000 0.000000
vn 0.000000 -1.000000 0.000000
vn 1.000000 0.000000 0.000000
vn 1.000000 0.000000 0.000000
vn 1.000000 0.000000 0.000000
vn 1.000000 0.000000 0.000000
vn 1.000000 0.000000 0.000000
vn 1.000000 0.000000 0.000000
vn 0.000000 1.000000 0.000000
vn 0.000000 1.000000 0.000000
vn 0.000000 0.000000 1.000000
vn 0.000000 0.000000 1.000000
vn 0.000000 0.000000 1.000000
vn 0.000000 0.000000 1.000000
vn 0.000000 0.000000 1.000000
vn 0.000000 0.000000 1.000000
vn 0.000000 0.000000 1.000000
vn 0.000000 0.000000 1.000000
vn 1.000000 0.000000 0.000000
vn 1.000000 0.000000 0.000000
vn 1.000000 0.000000 0.000000
vn 1.000000 0.000000 0.000000
vn -0.577412 -0.577299 0.577340
vn -0.707176 -0.707037 -0.000000
vn 0.707061 0.707153 0.000000
vn 0.707107 -0.707107 0.000000
vn -0.719168 -0.288463 0.632128
vn -0.928122 -0.372276 0.000000
vn 0.577350 0.577350 0.577350
vn 0.577350 -0.577350 0.577350
vn -0.393043 -0.919520 0.000000
vn -0.305739 -0.715273 0.628417
vn 0.707107 -0.707107 0.000000
vn -0.577350 0.577350 0.577350
vn -0.707107 0.707107 0.000000
vn 0.707107 0.707107 0.000000
vn -0.288507 0.719141 0.632139
vn -0.372337 0.928098 0.000000
vn 0.577350 -0.577350 0.577350
vn -0.919482 0.393132 -0.000000
vn -0.715232 0.305804 0.628433
vn 0.577316 0.577391 0.577343
vn -0.577350 0.577350 0.577350
vn -0.577350 -0.577350 0.577350
vn -0.707107 -0.707107 0.000000
vn 0.707107 0.707107 0.000000
vn 0.577350 0.577350 0.577350
vn -0.707107 0.707107 0.000000
vn 0.288507 0.719141 0.632139
vn 0.372337 0.928098 0.000000
vn -0.577350 -0.577350 0.577350
vn 0.577412 -0.577299 0.577340
vn 0.715232 0.305804 0.628433
vn 0.919482 0.393132 -0.000000
vn 0.707176 -0.707037 -0.000000
vn -0.707061 0.707153 0.000000
vn -0.577316 0.577391 0.577343
vn -0.707107 -0.707107 0.000000
vn 0.719168 -0.288463 0.632128
vn 0.928122 -0.372276 0.000000
vn 0.305739 -0.715274 0.628417
vn 0.393043 -0.919520 0.000000
g fff0aa7b_00321_007bde18_e4
f 88/36/88 87/35/87 86/34/86
f 88/36/88 86/34/86 85/33/85
f 84/4/84 83/17/83 86/34/86
f 86/34/86 87/35/87 84/4/84
f 82/5/82 84/4/84 87/35/87
f 87/35/87 88/36/88 82/5/82
f 81/18/81 82/5/82 88/36/88
f 88/36/88 85/33/85 81/18/81
f 83/17/83 81/18/81 85/33/85
f 85/33/85 86/34/86 83/17/83
g fff0aa7b_00321_007bde18_e3
f 24/8/24 23/7/23 48/6/48
f 22/5/22 21/4/21 47/3/47
f 20/8/20 19/7/19 46/20/46
f 18/5/18 17/4/17 45/19/45
f 44/8/44 43/7/43 42/18/42
f 41/5/41 40/4/40 39/17/39
f 38/8/38 37/7/37 36/2/36
f 35/5/35 34/4/34 33/1/33
f 38/8/38 36/2/36 33/1/33
f 35/5/35 33/1/33 36/2/36
f 24/8/24 48/6/48 47/3/47
f 22/5/22 47/3/47 48/6/48
f 20/8/20 46/20/46 45/19/45
f 18/5/18 45/19/45 46/20/46
f 44/8/44 42/18/42 39/17/39
f 41/5/41 39/17/39 42/18/42
f 52/8/52 80/2/80 51/7/51
f 50/5/50 79/1/79 49/4/49
f 52/8/52 79/1/79 80/2/80
f 50/5/50 80/2/80 79/1/79
f 78/8/78 77/7/77 76/6/76
f 75/5/75 74/4/74 73/3/73
f 78/8/78 76/6/76 73/3/73
f 75/5/75 73/3/73 76/6/76
f 72/8/72 71/7/71 70/18/70
f 69/5/69 68/4/68 67/17/67
f 72/8/72 70/18/70 67/17/67
f 69/5/69 67/17/67 70/18/70
f 66/8/66 92/7/92 91/20/91
f 90/5/90 65/4/65 89/19/89
f 66/8/66 91/20/91 89/19/89
f 90/5/90 89/19/89 91/20/91
g fff0aa7b_00321_007bde18_e1
f 4/16/4 6/15/6 56/22/56
f 7/14/7 3/13/3 54/21/54
f 1/12/1 12/11/12 62/38/62
f 25/10/25 2/9/2 53/37/53
f 7/14/7 54/21/54 56/22/56
f 4/16/4 56/22/56 54/21/54
f 1/12/1 62/38/62 53/37/53
f 25/10/25 53/37/53 62/38/62
f 93/14/93 109/14/109 111/50/111
f 107/49/107 109/14/109 112/14/112
f 111/50/111 109/14/109 107/49/107
f 100/14/100 99/14/99 102/50/102
f 97/49/97 99/14/99 104/14/104
f 102/50/102 99/14/99 97/49/97
f 122/14/122 123/50/123 121/14/121
f 119/49/119 127/14/127 121/14/121
f 123/50/123 119/49/119 121/14/121
f 114/14/114 131/50/131 113/14/113
f 129/49/129 117/14/117 113/14/113
f 131/50/131 129/49/129 113/14/113
g fff0aa7b_00321_007bde18_e2
f 10/12/10 14/11/14 64/24/64
f 15/10/15 11/9/11 58/23/58
f 28/16/28 26/15/26 59/42/59
f 29/14/29 31/13/31 63/41/63
f 30/14/30 53/40/53 2/14/2
f 1/14/1 61/39/61 9/14/9
f 10/12/10 64/24/64 58/23/58
f 15/10/15 58/23/58 64/24/64
f 28/16/28 59/42/59 63/41/63
f 29/14/29 63/41/63 59/42/59
f 30/14/30 61/39/61 53/40/53
f 1/14/1 53/40/53 61/39/61
f 94/12/94 96/11/96 109/24/109
f 94/12/94 109/24/109 93/23/93
f 103/12/103 106/11/106 99/24/99
f 103/12/103 99/24/99 100/23/100
f 125/12/125 121/24/121 128/11/128
f 125/12/125 122/23/122 121/24/121
f 115/12/115 113/24/113 118/11/118
f 115/12/115 114/23/114 113/24/113
g fff0aa7b_00321_007bde18_e0
f 16/16/16 15/15/15 64/32/64
f 32/14/32 63/48/63 31/14/31
f 30/16/30 62/47/62 61/46/61
f 14/14/14 13/13/13 60/31/60
f 12/14/12 61/46/61 62/47/62
f 32/12/32 29/11/29 59/45/59
f 16/14/16 58/30/58 11/14/11
f 10/14/10 60/29/60 13/14/13
f 12/14/12 9/13/9 61/46/61
f 28/14/28 57/44/57 27/14/27
f 32/12/32 59/45/59 57/43/57
f 26/10/26 57/43/57 59/45/59
f 8/12/8 7/11/7 56/28/56
f 6/10/6 5/9/5 55/27/55
f 4/14/4 55/26/55 5/14/5
f 8/14/8 54/25/54 3/14/3
f 30/16/30 25/15/25 62/47/62
f 26/10/26 27/9/27 57/43/57
f 16/14/16 60/29/60 58/30/58
f 10/14/10 58/30/58 60/29/60
f 14/14/14 60/31/60 64/32/64
f 16/16/16 64/32/64 60/31/60
f 4/14/4 54/25/54 55/26/55
f 8/14/8 55/26/55 54/25/54
f 8/12/8 56/28/56 55/27/55
f 6/10/6 55/27/55 56/28/56
f 32/14/32 57/44/57 63/48/63
f 28/14/28 63/48/63 57/44/57
f 96/14/96 95/13/95 112/31/112
f 94/14/94 111/54/111 110/53/110
f 94/14/94 93/30/93 111/54/111
f 96/14/96 112/31/112 109/32/109
f 108/52/108 107/51/107 112/29/112
f 108/52/108 112/29/112 95/14/95
f 110/53/110 111/54/111 107/51/107
f 110/53/110 107/51/107 108/52/108
f 106/14/106 105/13/105 104/31/104
f 103/14/103 102/54/102 101/53/101
f 103/14/103 100/30/100 102/54/102
f 106/14/106 104/31/104 99/32/99
f 98/52/98 97/51/97 104/29/104
f 98/52/98 104/29/104 105/14/105
f 101/53/101 102/54/102 97/51/97
f 101/53/101 97/51/97 98/52/98
f 128/14/128 127/31/127 126/13/126
f 125/14/125 124/53/124 123/54/123
f 125/14/125 123/54/123 122/30/122
f 128/14/128 121/32/121 127/31/127
f 120/52/120 127/29/127 119/51/119
f 120/52/120 126/14/126 127/29/127
f 124/53/124 119/51/119 123/54/123
f 124/53/124 120/52/120 119/51/119
f 118/14/118 117/31/117 116/13/116
f 115/14/115 132/53/132 131/54/131
f 115/14/115 131/54/131 114/30/114
f 118/14/118 113/32/113 117/31/117
f 130/52/130 117/29/117 129/51/129
f 130/52/130 116/14/116 117/29/117
f 132/53/132 129/51/129 131/54/131
f 132/53/132 130/52/130 129/51/129
