# fff017fc_00163_00375821
o fff017fc_00163_00375821
v 2.592387 0.030854 1.537781
v 2.592391 0.031234 -0.174397
v 2.593325 -0.024357 1.539364
v -0.339307 0.051997 -0.099754
v -0.338396 -0.002905 -0.099754
v -0.338396 -0.002905 1.465214
v -0.339307 0.051997 1.465214
v 2.520807 -0.025692 1.465214
v 2.520807 -0.025692 -0.099754
v 2.519900 0.029338 -0.099754
v 2.519900 0.029338 1.465214
v 2.573255 0.006270 0.535347
v -0.334999 0.028232 0.535347
v 2.573255 0.006270 0.250706
v -0.334999 0.028232 0.250706
v 2.593289 -0.023672 -0.174397
v -0.411369 0.019896 -0.162643
v -0.411365 0.021539 1.508678
v 2.576060 -0.000725 -0.162643
v 2.575977 0.001021 1.500431
v -0.416125 -0.003987 1.526371
v -0.416103 -0.004360 -0.185806
v -0.417045 0.051229 1.527954
v -0.417023 0.050540 -0.185806
vt 127640560.000000 188895358917541888.000000
vt -3927194112.000000 -5811857385970466816.000000
vt -13.279684 -25947308032.000000
vt 58.627071 82650464256.000000
vt 4.221149 -15124577.000000
vt 14.302757 14612952064.000000
vt -13.314054 -25989548032.000000
vt 0.000296 -232.812561
vt 0.000214 -231.655182
vt 0.000289 -231.988739
vt 0.000221 -232.488815
vt 30.644678 38877261824.000000
vt 0.758052 -5085451264.000000
vt -4.197710 1.094129
vt 12.807533 3.014550
vt -4.176799 3.014550
vt 12.807542 1.094129
vt 4.221011 -15444198.000000
vt 16.234644 17664636928.000000
vt -22.399506 -39150043136.000000
vt 4.231566 -5568.170898
vt 4.231561 -4868.527344
vt 4.231567 -5584.912109
vt 4.260468 -4854.035645
vn -0.007916 0.715840 0.698220
vn -0.008669 0.999835 0.015962
vn 0.001293 -0.697030 0.717041
vn 0.296472 0.910806 0.287291
vn 0.306632 -0.897963 0.315658
vn 0.319908 -0.947346 -0.013913
vn 0.314172 0.949304 0.010882
vn -0.309739 -0.950753 0.011412
vn -0.294000 -0.913159 0.282319
vn -0.308535 0.895774 0.319992
vn -0.323849 0.946020 -0.012976
vn 0.007551 0.999972 0.000000
vn 0.007551 0.999972 0.000000
vn 0.007551 0.999972 0.000000
vn 0.007551 0.999972 0.000000
vn 0.009394 -0.999813 -0.016888
vn -0.006902 -0.999976 0.000983
vn -0.006890 -0.999976 0.001005
vn -0.006877 -0.999976 0.001028
vn -0.006865 -0.999976 0.001050
vn 0.000864 -0.716697 0.697384
vn 0.005205 -0.999912 0.012202
vn -0.004202 0.699956 0.714174
vn -0.005125 0.999911 -0.012302
g fff017fc_00163_00375821_e3
f 18/21/18 17/23/17 19/22/19
f 19/22/19 20/24/20 18/21/18
g fff017fc_00163_00375821_e4
f 13/17/13 14/16/14 15/15/15
f 14/16/14 13/17/13 12/14/12
g fff017fc_00163_00375821_e2
f 5/20/5 9/19/9 10/13/10
f 10/13/10 4/12/4 5/20/5
f 1/11/1 21/10/21 3/9/3
f 21/10/21 1/11/1 23/8/23
g fff017fc_00163_00375821_e1
f 4/12/4 7/5/7 6/18/6
f 4/13/4 23/3/23 7/7/7
f 9/13/9 3/3/3 8/7/8
f 3/3/3 9/13/9 16/2/16
f 6/18/6 5/20/5 4/12/4
f 16/2/16 5/12/5 22/1/22
f 5/12/5 16/2/16 9/13/9
f 5/13/5 6/7/6 21/3/21
f 23/3/23 4/13/4 24/2/24
f 21/4/21 8/7/8 3/3/3
f 8/7/8 21/4/21 6/5/6
f 11/7/11 7/5/7 23/4/23
f 23/4/23 1/3/1 11/7/11
f 10/13/10 11/7/11 1/3/1
f 1/3/1 2/2/2 10/13/10
f 2/2/2 24/1/24 4/12/4
f 4/12/4 10/13/10 2/2/2
f 21/3/21 22/2/22 5/13/5
g fff017fc_00163_00375821_e0
f 11/7/11 10/13/10 9/19/9
f 9/19/9 8/6/8 11/7/11
