# fff0af20_00281_0070dbd7
o fff0af20_00281_0070dbd7
v -5.545118 2.873420 5.011080
v 0.820715 -3.008260 -0.086425
v -0.792471 -1.296443 -0.086424
v -0.745592 -3.008260 -0.086425
v 0.820715 -1.361229 -0.086425
v 5.031851 2.873422 5.011078
v -5.545120 2.873420 -5.180212
v 4.984653 2.873422 -5.143490
v -0.203908 -2.129631 -0.169629
v 0.196931 -2.129630 -0.169629
v -0.250766 -2.110421 -0.086397
v 0.243790 -2.110421 -0.086397
v -0.203908 -2.290636 -0.169629
v 0.196931 -2.290636 -0.169629
v -0.250766 -2.309845 -0.086397
v 0.243791 -2.309845 -0.086397
v -0.266992 -2.093069 -0.036104
v 0.259955 -2.093069 -0.036104
v -0.266992 -2.327184 -0.036104
v 0.259955 -2.327184 -0.036104
vt 0.936470 0.940748
vt 1.987448 -0.000638
vt 1.013562 -0.000639
vt 1.013562 1.012036
vt 1.987525 1.012097
vt 1.948811 0.940748
vt 1.945915 0.934013
vt 0.936669 1.958086
vt 0.936474 1.957633
vt 1.947474 1.961356
vt 0.681510 2.738993
vt 0.486203 1.255241
vt 2.318494 2.738993
vt 2.513798 1.255241
vt 0.593119 2.746619
vt 2.403777 2.746617
vt 0.593119 4.383601
vt 2.403778 4.383601
vt 9.508184 2.738993
vt 6.258285 2.738992
vt 9.888111 1.255241
vt 5.878379 1.255241
vt 5.746819 0.358684
vt 10.019168 0.358684
vt 2.775120 0.343275
vt 5.155426 0.343275
vt 0.309782 0.358684
vt 2.690088 0.358685
vt 3.146848 2.723584
vt 4.783829 2.723584
vt 2.951542 1.239833
vt 4.979136 1.239833
vt -3.575695 2.738992
vt -0.604357 2.738992
vt -3.923038 1.255241
vt -0.256995 1.255241
vt -4.043321 0.358684
vt -0.137173 0.358685
vn 0.000000 -1.000000 0.000000
vn -0.000000 -0.000000 -1.000000
vn -0.000001 0.000000 -1.000000
vn -0.000000 0.000000 -1.000000
vn -0.000000 0.000000 -1.000000
vn 0.000000 -1.000000 0.000000
vn 0.000000 -1.000000 0.000000
vn 0.000000 -1.000000 0.000000
vn -0.399501 0.523286 -0.752709
vn 0.399491 0.523288 -0.752713
vn -0.649181 0.608776 -0.456021
vn 0.649510 0.608711 -0.455640
vn -0.399500 -0.523286 -0.752709
vn 0.399491 -0.523288 -0.752713
vn -0.649171 -0.608844 -0.455946
vn 0.649500 -0.608778 -0.455564
vn -0.636185 0.642623 -0.426972
vn 0.636216 0.643017 -0.426332
vn -0.636266 -0.642632 -0.426837
vn 0.636297 -0.643026 -0.426197
g fff0af20_00281_0070dbd7_e1
f 20/38/20 19/37/19 15/35/15
f 15/35/15 16/36/16 20/38/20
g fff0af20_00281_0070dbd7_e2
f 12/12/12 18/27/18 20/28/20
f 20/28/20 16/14/16 12/12/12
f 11/31/11 19/26/19 17/25/17
f 19/26/19 11/31/11 15/32/15
f 18/24/18 12/21/12 11/22/11
f 11/22/11 17/23/17 18/24/18
g fff0af20_00281_0070dbd7_e14
f 6/7/6 7/8/7 8/10/8
f 6/6/6 1/1/1 7/9/7
f 5/2/5 2/3/2 4/4/4
f 5/2/5 4/4/4 3/5/3
g fff0af20_00281_0070dbd7_e13
f 13/30/13 11/31/11 9/29/9
f 13/30/13 15/32/15 11/31/11
f 16/14/16 14/13/14 10/11/10
f 10/11/10 12/12/12 16/14/16
f 14/18/14 13/17/13 9/15/9
f 9/15/9 10/16/10 14/18/14
f 16/36/16 15/35/15 13/33/13
f 13/33/13 14/34/14 16/36/16
f 12/21/12 10/19/10 9/20/9
f 9/20/9 11/22/11 12/21/12
