# fff002fb_00116_002e3d90
o fff002fb_00116_002e3d90
v 36.280491 4.137652 -0.436995
v 38.928474 6.112493 -0.436995
v 32.787510 2.195925 -0.436995
v 22.190823 -6.303405 -0.436995
v -42.121925 -8.115822 0.406234
v 29.481949 5.058228 -0.436995
v 22.189220 2.928015 -0.436995
v -26.745670 -4.117204 0.453722
v 42.809937 5.384338 -0.428322
v 42.809937 5.492371 -0.428322
v 39.102997 5.507731 -0.436995
v 37.131622 4.427437 -0.447279
v 38.059753 5.103742 -0.436995
v 37.075584 4.522374 -0.447279
v 36.174736 3.529528 -0.451231
v 36.188770 3.436081 -0.451231
v 32.657310 1.601406 -0.451269
v 32.627834 1.513700 -0.451269
v 38.116333 5.020463 -0.436995
v 39.132652 5.395335 -0.436995
v -33.847454 6.515296 0.453718
v -42.122688 -4.007615 0.453716
v -32.830612 1.608132 0.453718
v 27.838173 5.002187 -0.436995
v 28.420124 5.106298 -0.436995
v 23.782555 3.670096 -0.436995
v 24.444405 3.715091 -0.436995
v 27.065208 4.405004 -0.436995
v 28.980072 5.014238 -0.436995
v 23.118984 3.467438 -0.436995
v -26.745670 -0.071982 0.453722
v 26.008411 3.990734 -0.436995
v 29.559582 5.060822 -0.436995
v 30.432400 5.392034 -0.436995
v 34.674782 2.239610 -0.449785
v 34.654091 2.144943 -0.449785
v 31.500301 1.901531 -0.436995
v 31.444817 1.835829 -0.436995
v 33.630817 1.647153 -0.453722
v 33.646809 1.731750 -0.453722
v -31.787766 1.020303 0.453718
v -41.146282 7.193336 0.453718
v -39.292274 7.307106 0.453718
v -37.507610 8.115822 0.453718
v -35.172771 8.093482 0.453718
v -33.634686 3.770729 0.453718
v -42.496502 5.687661 0.453718
v -42.531021 -1.652517 0.453716
v -42.898235 2.863321 0.453718
v -30.191574 1.062080 0.453720
v -28.370644 0.875107 0.453721
v 42.822388 5.973999 -0.428322
v 42.822388 -2.086121 -0.428322
v 41.803795 -2.486470 -0.436995
v 40.566994 -3.723222 -0.436995
v 38.911697 -6.270965 -0.436995
v 40.213486 -4.608985 -0.436995
v 39.765335 -5.649371 -0.436995
v 41.103966 -3.023454 -0.436995
v 29.947983 3.673804 -0.436995
v 30.760681 4.093940 -0.436995
v 37.106697 4.884549 -0.381304
v 31.453403 3.000236 -0.436995
v 29.877670 3.634256 -0.436995
v 30.527130 2.580497 -0.436995
v 30.583347 2.645904 -0.436995
v 34.679211 3.039071 -0.436995
v 33.849960 2.432651 -0.436995
v -34.271118 7.537476 0.453718
v -33.339844 2.397827 0.453718
v -36.295166 8.366943 0.453718
v -38.274658 7.595093 0.453718
v -41.996460 6.600952 0.453718
v 23.003010 2.706411 -0.436995
v 23.908037 2.585470 -0.436995
v 24.697128 2.272391 -0.436995
v 25.476484 1.721912 -0.436995
v 26.073208 1.048529 -0.436995
v 26.906593 -0.724437 -0.436995
v 27.462946 -1.496696 -0.436995
v 28.168041 -2.090503 -0.446184
v 22.189339 2.681880 -0.436995
v 30.119534 -2.590671 -0.444219
v 34.735039 -2.184624 -0.440628
v 34.743195 -6.279006 -0.436995
v 29.031202 -2.420465 -0.445125
v 34.653938 -6.279299 -0.436995
v 34.613979 -2.293523 -0.440575
v 29.971994 -2.715354 -0.444084
v 28.902834 -2.495345 -0.444972
v 28.096449 -2.142124 -0.446074
v 27.385832 -1.567277 -0.436995
v 26.823624 -0.821399 -0.436995
v 26.007532 0.927996 -0.436995
v 25.429440 1.613100 -0.436995
v 24.657547 2.151672 -0.436995
v 23.884846 2.480071 -0.436995
v 22.987370 2.581118 -0.436995
v 22.189365 2.554194 -0.436995
v 32.183876 -2.189492 -0.441680
v 32.246513 -2.298303 -0.441495
v 31.752186 -2.596653 -0.442035
v 31.811531 -2.704902 -0.441840
v -41.865520 -7.689024 0.492973
v -26.990255 -3.966874 0.492973
v -34.031666 6.414865 0.492973
v -41.866226 -3.767038 0.492973
v -32.980637 1.421667 0.492973
v -27.027121 -0.217568 0.492973
v -31.836365 0.803660 0.492973
v -41.044945 6.954200 0.492973
v -39.265770 7.067634 0.492973
v -37.492199 7.890046 0.492973
v -35.291195 7.909307 0.492973
v -33.853622 3.700042 0.492973
v -42.301479 5.518789 0.492973
v -42.243530 -1.518695 0.492973
v -42.582844 2.792445 0.492973
v -30.219372 0.860939 0.492973
v -28.498352 0.677009 0.492973
v -34.407639 7.427881 0.492973
v -33.543827 2.329069 0.492973
v -36.365047 8.150780 0.492973
v -38.234783 7.380897 0.492973
v -41.843704 6.437618 0.492973
v 22.190109 2.823914 -0.436995
v 23.137142 3.343038 -0.419958
v 23.785736 3.525299 -0.419958
v 24.443146 3.559202 -0.419958
v 26.059900 3.862960 -0.419958
v 27.144796 4.304502 -0.419958
v 27.879427 4.892105 -0.419958
v 28.416908 4.984340 -0.419958
v 28.993969 4.903599 -0.419958
v 29.508129 4.956050 -0.419958
v 29.586140 4.965984 -0.419958
v 30.467577 5.252934 -0.436995
vt 0.400000 0.000000
vt 0.400000 0.000000
vt 0.400000 0.000000
vt 0.400000 0.000000
vt 0.399999 0.000000
vt 0.400000 0.000000
vt 0.400000 0.000000
vt 0.400000 0.000000
vt 0.400000 0.000000
vt 0.400000 0.000000
vt 0.400000 0.000000
vt 0.400000 0.000000
vt 0.400000 0.000000
vt 0.400000 0.000000
vt 0.400000 0.000000
vt 0.400000 0.000000
vt -2.350512 -3.168400
vt -2.884870 -3.736934
vt 0.565739 0.389089
vt -0.035934 -1.023398
vt 0.400000 0.000000
vt 0.400000 0.000000
vt 0.400000 0.000000
vt 0.400000 0.000000
vt 0.400000 0.000000
vt 0.400000 0.000000
vt 0.400000 0.000000
vt 0.380620 -0.045504
vt 0.400000 0.000000
vt 0.400000 0.000000
vt 0.400000 0.000000
vt 0.400000 0.000000
vt 0.400000 0.000000
vt 0.400000 0.000000
vt 0.400000 0.000000
vt 0.400000 0.000000
vt 0.400000 0.000000
vt 0.400000 0.000000
vt 0.400000 0.000000
vt 0.400000 0.000000
vt 0.400000 0.000000
vt 0.400000 0.000000
vt 0.400000 0.000000
vt 0.400000 0.000000
vt 0.400000 0.000000
vt 0.400000 0.000000
vt 0.400000 0.000000
vt 0.400000 0.000000
vt 0.400000 0.000000
vt 0.400000 0.000000
vt 0.400000 0.000000
vt 0.400000 0.000000
vt 0.400000 0.000000
vt 0.400000 0.000000
vt 0.400000 0.000000
vt 0.644017 0.572852
vt -2.453822 -3.251881
vt 0.400000 0.000000
vt 0.400000 0.000000
vt 0.400000 0.000000
vt 0.400000 0.000000
vt 0.400000 0.000000
vt 0.400000 0.000000
vt 0.400000 0.000000
vt 0.400000 0.000000
vt 0.400000 0.000000
vt 0.400000 0.000000
vt 0.293498 -0.250025
vt 0.289886 -0.258502
vt 0.400000 0.000000
vt 0.400000 0.000000
vt 0.400000 0.000000
vt 0.400000 0.000000
vt 0.400000 0.000000
vt 0.400000 0.000000
vt 0.400000 0.000000
vt 0.400000 0.000000
vt 0.400000 0.000000
vt 0.400000 0.000000
vt 0.400000 0.000000
vt 0.400000 0.000000
vt 0.400000 0.000000
vt 0.401634 -0.000986
vt 0.400198 -0.000119
vt 0.400033 -0.000020
vt 0.400810 -0.000489
vt 0.400121 -0.000073
vt 0.400000 0.000000
vt 0.399307 0.000418
vt 0.400000 0.000000
vt 0.402012 -0.001214
vt 0.400000 0.000000
vt 0.400000 0.000000
vt 0.399619 0.000230
vt 0.402100 -0.001266
vt 0.400000 0.000000
vt 0.400000 0.000000
vt 0.401990 -0.001200
vt 0.400414 -0.000250
vt 0.399479 0.000314
vt 0.400339 -0.000204
vt 0.400139 -0.000084
vt 0.401858 -0.001120
vt 0.400000 0.000000
vt 0.400000 0.000000
vt 0.400000 0.000000
vt 0.400000 0.000000
vt 0.400000 0.000000
vt 0.400000 0.000000
vt 0.347237 -0.123867
vt 0.177847 -0.521526
vt 0.173812 -0.530999
vt -2.694504 -3.534392
vt 0.400000 0.000000
vt -2.643053 -3.474000
vt -2.548983 -3.363581
vt -2.428214 -3.231188
vt -2.666766 -3.501834
vt -2.427281 -3.230434
vt -2.546091 -3.360736
vt -2.637573 -3.468275
vt -2.660812 -3.495556
vt 0.171299 -0.536899
vt -2.690382 -3.530006
vt 0.174721 -0.528863
vt 0.400000 0.000000
vt 0.340505 -0.139670
vt 0.400000 0.000000
vt 0.400000 0.000000
vt 0.400000 0.000000
vt 0.400000 0.000000
vt 0.400000 0.000000
vt 0.400000 0.000000
vt -2.576533 -3.395918
vt -2.569588 -3.388357
vt -2.561607 -3.380267
vt -2.575836 -3.396419
vt 0.400000 0.000000
vt 0.400000 0.000000
vt 0.400000 0.000000
vt 0.400000 0.000000
vt 0.400121 -0.000073
vt 0.400414 -0.000250
vt 0.399619 0.000230
vt 0.402012 -0.001214
vt 0.399307 0.000418
vt 0.399479 0.000314
vt 0.400000 0.000000
vt 0.400000 0.000000
vt 0.400000 0.000000
vt 0.400000 0.000000
vt 0.401634 -0.000986
vt 0.401858 -0.001120
vt 0.400198 -0.000119
vt 0.400139 -0.000084
vt 0.400033 -0.000020
vt 0.400339 -0.000204
vt 0.400810 -0.000489
vt 0.401990 -0.001200
vt 0.402100 -0.001266
vt 0.400000 0.000000
vt 0.400000 0.000000
vt 0.400000 0.000000
vt 0.400000 0.000000
vt 0.400000 0.000000
vt 0.400000 0.000000
vt 0.400000 0.000000
vt 0.400000 0.000000
vt 0.400000 0.000000
vt 0.400000 0.000000
vt 0.400000 0.000000
vt 0.400000 0.000000
vt 0.400000 0.000000
vt 0.400000 0.000000
vn 0.031295 -0.041782 0.998636
vn 0.006610 -0.006984 0.999954
vn 0.004635 -0.020347 0.999782
vn 0.000450 0.000233 1.000000
vn -0.094565 -0.142977 0.985198
vn -0.011341 0.160862 0.986912
vn -0.020897 0.006689 0.999759
vn 0.108406 -0.080978 0.990803
vn -0.002358 -0.000002 0.999997
vn -0.002349 0.000024 0.999997
vn -0.001154 -0.000306 0.999999
vn -0.005375 -0.002592 0.999982
vn 0.032031 -0.035587 0.998853
vn 0.049088 -0.094569 0.994307
vn 0.008132 -0.012422 0.999890
vn -0.001492 0.000599 0.999999
vn 0.006088 -0.012280 0.999906
vn 0.004763 -0.001378 0.999988
vn -0.003918 -0.002052 0.999990
vn -0.001196 0.000084 0.999999
vn 0.186960 0.045880 0.981296
vn -0.148476 -0.007045 0.988891
vn 0.115089 0.116157 0.986540
vn -0.057781 0.130583 0.989752
vn -0.000182 0.138678 0.990337
vn -0.018402 0.116624 0.993006
vn -0.014464 0.109124 0.993923
vn -0.064592 0.116201 0.991123
vn 0.005950 0.151810 0.988392
vn -0.053115 0.127877 0.990367
vn 0.108425 0.060083 0.992287
vn -0.032538 0.119199 0.992337
vn -0.035303 0.163275 0.985949
vn 0.012193 0.015760 0.999801
vn 0.003179 -0.007342 0.999968
vn -0.002779 0.000392 0.999996
vn 0.003610 -0.004531 0.999983
vn 0.004930 -0.005269 0.999974
vn 0.000193 0.001778 0.999998
vn 0.002468 -0.010841 0.999938
vn 0.040901 0.168354 0.984878
vn -0.049368 0.143365 0.988438
vn -0.027879 0.158583 0.986952
vn -0.064026 0.166454 0.983968
vn 0.070008 0.163485 0.984059
vn 0.170106 0.022291 0.985174
vn -0.149389 0.053939 0.987306
vn -0.127764 -0.016966 0.991660
vn -0.122444 0.005299 0.992461
vn 0.007231 0.190010 0.981755
vn 0.057080 0.158790 0.985661
vn -0.002330 -0.000012 0.999997
vn -0.004195 -0.002790 0.999987
vn -0.004177 -0.003686 0.999985
vn -0.001338 0.000771 0.999999
vn -0.000338 0.001269 0.999999
vn -0.001407 0.000588 0.999999
vn -0.001095 0.000902 0.999999
vn -0.001091 0.001114 0.999999
vn 0.003881 -0.003951 0.999985
vn 0.000000 0.000000 1.000000
vn 0.097492 -0.171544 0.980341
vn 0.000000 0.000000 1.000000
vn 0.002012 -0.005171 0.999985
vn 0.000000 0.000000 1.000000
vn 0.000000 0.000000 1.000000
vn 0.013464 -0.018261 0.999743
vn 0.017181 -0.028832 0.999437
vn 0.161434 0.141633 0.976667
vn 0.164815 0.070936 0.983770
vn 0.007705 0.174904 0.984555
vn -0.083740 0.163574 0.982971
vn -0.127819 0.114053 0.985218
vn -0.000640 -0.012030 0.999927
vn -0.001732 -0.008958 0.999958
vn -0.001669 -0.005686 0.999982
vn -0.000358 -0.002583 0.999997
vn 0.000000 0.000000 1.000000
vn 0.000000 0.000000 1.000000
vn 0.003442 -0.003705 0.999987
vn 0.003225 -0.002382 0.999992
vn 0.000000 0.000000 1.000000
vn -0.000993 0.002233 0.999997
vn 0.001837 0.003237 0.999993
vn -0.000002 0.000887 1.000000
vn -0.000388 0.002274 0.999997
vn -0.000120 0.001003 1.000000
vn -0.000391 0.000918 1.000000
vn -0.000900 0.003203 0.999995
vn -0.000280 0.002558 0.999997
vn 0.003263 -0.002410 0.999992
vn 0.003390 -0.003711 0.999987
vn 0.000000 0.000000 1.000000
vn 0.000000 0.000000 1.000000
vn 0.000000 0.000000 1.000000
vn 0.000000 0.000000 1.000000
vn 0.000000 0.000000 1.000000
vn 0.000000 0.000000 1.000000
vn 0.000000 0.000000 1.000000
vn -0.001148 0.001908 0.999998
vn -0.000903 0.000957 0.999999
vn -0.001421 0.000818 0.999999
vn -0.000953 0.001168 0.999999
vn -0.104000 -0.093448 0.990178
vn 0.071220 -0.068517 0.995105
vn 0.103487 0.019695 0.994436
vn -0.064588 -0.007742 0.997882
vn 0.046758 0.049990 0.997655
vn 0.070347 0.041459 0.996661
vn 0.016792 0.070998 0.997335
vn -0.025893 0.083588 0.996164
vn -0.012564 0.074292 0.997157
vn -0.045589 0.093405 0.994584
vn 0.035329 0.093494 0.994993
vn 0.080722 0.011916 0.996665
vn -0.092589 0.022389 0.995453
vn -0.066120 -0.007632 0.997782
vn -0.065948 0.001021 0.997822
vn 0.002884 0.100004 0.994983
vn 0.026597 0.093838 0.995232
vn 0.098048 0.090893 0.991022
vn 0.074269 0.030474 0.996772
vn -0.005378 0.104549 0.994505
vn -0.034110 0.075493 0.996563
vn -0.077874 0.064643 0.994865
vn -0.006883 -0.005360 0.999962
vn -0.028319 0.053231 0.998181
vn -0.010409 0.053106 0.998535
vn -0.006250 0.044741 0.998979
vn -0.014755 0.050558 0.998612
vn -0.028748 0.047716 0.998447
vn -0.033821 0.072515 0.996794
vn -0.000220 0.071477 0.997442
vn 0.000514 0.063381 0.997989
vn -0.007070 0.075520 0.997119
vn -0.011833 0.069027 0.997545
vn 0.015772 0.000227 0.999876
g fff002fb_00116_002e3d90_e0
f 3/30/3 40/47/40 68/81/68
f 18/16/18 58/15/58 57/14/57
f 56/13/56 58/15/58 18/16/18
f 54/10/54 36/12/36 59/11/59
f 36/12/36 53/9/53 16/16/16
f 117/145/117 125/153/125 116/159/116
f 20/9/20 19/46/19 53/45/53
f 39/44/39 40/71/40 18/70/18
f 91/123/91 92/125/92 4/20/4
f 68/81/68 40/47/40 67/97/67
f 18/43/18 40/21/40 17/44/17
f 55/29/55 59/43/59 36/8/36
f 18/16/18 57/14/57 55/12/55
f 53/9/53 36/12/36 54/10/54
f 66/67/66 65/66/65 38/65/38
f 93/126/93 94/128/94 4/65/4
f 37/64/37 63/63/63 66/62/66
f 4/20/4 92/125/92 93/127/93
f 36/61/36 16/42/16 35/8/35
f 55/60/55 39/59/39 18/8/18
f 35/58/35 15/44/15 67/59/67
f 35/43/35 39/59/39 36/60/36
f 62/79/62 14/41/14 13/7/13
f 35/6/35 67/6/67 40/6/40
f 87/119/87 88/120/88 101/135/101
f 18/69/18 37/28/37 38/68/38
f 17/56/17 3/28/3 37/69/37
f 16/29/16 15/40/15 35/55/35
f 15/40/15 12/5/12 14/21/14
f 39/6/39 55/42/55 36/61/36
f 16/54/16 12/47/12 15/30/15
f 14/39/14 12/38/12 13/37/13
f 12/38/12 53/36/53 19/37/19
f 53/6/53 12/47/12 16/54/16
f 13/41/13 11/35/11 2/7/2
f 13/41/13 19/34/19 11/35/11
f 19/34/19 13/27/13 12/35/12
f 11/33/11 10/32/10 52/6/52
f 20/45/20 10/32/10 11/33/11
f 62/79/62 1/5/1 14/41/14
f 53/6/53 9/27/9 20/36/20
f 137/174/137 34/26/34 136/173/136
f 114/158/114 123/157/123 117/145/117
f 117/145/117 113/156/113 124/155/124
f 18/4/18 17/26/17 37/64/37
f 35/6/35 40/6/40 39/6/39
f 17/6/17 40/6/40 3/6/3
f 19/6/19 20/36/20 11/31/11
f 2/5/2 62/39/62 13/37/13
f 1/5/1 15/47/15 14/39/14
f 11/33/11 52/6/52 2/16/2
f 20/45/20 9/46/9 10/32/10
f 67/97/67 15/47/15 1/5/1
f 33/26/33 135/171/135 136/172/136
f 94/128/94 95/129/95 4/65/4
f 120/150/120 105/140/105 109/141/109
f 120/150/120 119/151/119 105/140/105
f 98/132/98 99/133/99 4/65/4
f 118/160/118 117/145/117 116/159/116
f 61/53/61 60/52/60 66/62/66
f 63/50/63 37/21/37 3/25/3
f 63/63/63 61/53/61 66/62/66
f 136/173/136 34/26/34 33/65/33
f 64/80/64 65/66/65 60/51/60
f 38/1/38 37/24/37 66/49/66
f 60/51/60 65/66/65 66/67/66
f 33/26/33 6/48/6 135/171/135
f 6/48/6 29/90/29 134/170/134
f 28/76/28 32/78/32 130/166/130
f 95/129/95 96/130/96 4/65/4
f 96/130/96 97/131/97 4/65/4
f 97/131/97 98/132/98 4/65/4
f 25/73/25 24/72/24 132/168/132
f 24/72/24 28/76/28 131/167/131
f 29/90/29 25/73/25 133/169/133
f 122/147/122 117/145/117 108/146/108
f 107/139/107 104/138/104 108/88/108
f 108/89/108 117/145/117 107/139/107
f 106/142/106 121/143/121 117/91/117
f 117/145/117 124/155/124 112/154/112
f 117/145/117 111/152/111 125/153/125
f 108/148/108 104/138/104 110/149/110
f 110/149/110 104/138/104 119/151/119
f 119/92/119 104/138/104 105/140/105
f 117/145/117 112/154/112 111/152/111
f 123/157/123 113/156/113 117/145/117
f 106/142/106 117/91/117 115/144/115
f 121/143/121 114/158/114 117/145/117
f 115/144/115 117/145/117 122/147/122
f 30/77/30 7/2/7 127/162/127
f 26/74/26 30/77/30 127/162/127
f 27/75/27 26/74/26 129/164/129
f 129/164/129 128/163/128 75/105/75
f 32/78/32 27/75/27 130/165/130
f 130/165/130 129/164/129 76/106/76
f 61/53/61 137/174/137 60/52/60
f 60/52/60 137/174/137 136/173/136
f 65/66/65 64/80/64 78/108/78
f 64/80/64 77/107/77 78/108/78
f 65/66/65 78/108/78 79/109/79
f 79/110/79 38/68/38 65/19/65
f 18/69/18 38/68/38 80/111/80
f 80/111/80 38/68/38 79/110/79
f 18/69/18 80/111/80 81/112/81
f 56/57/56 18/18/18 84/116/84
f 74/104/74 127/162/127 126/161/126
f 90/122/90 91/124/91 4/17/4
f 86/118/86 18/18/18 81/113/81
f 87/119/87 101/135/101 103/137/103
f 102/136/102 100/134/100 83/115/83
f 56/57/56 84/116/84 85/117/85
f 89/121/89 90/122/90 4/17/4
f 83/115/83 18/18/18 86/118/86
f 85/117/85 84/116/84 87/119/87
f 87/119/87 84/116/84 88/120/88
f 102/136/102 83/115/83 103/137/103
f 88/120/88 100/134/100 101/135/101
f 83/115/83 86/118/86 89/121/89
f 86/118/86 81/113/81 90/122/90
f 89/121/89 86/118/86 90/122/90
f 81/112/81 80/111/80 91/123/91
f 90/122/90 81/113/81 91/124/91
f 91/123/91 80/111/80 92/125/92
f 92/125/92 80/111/80 79/110/79
f 79/109/79 78/108/78 93/126/93
f 93/127/93 92/125/92 79/110/79
f 93/126/93 78/108/78 94/128/94
f 78/108/78 77/107/77 94/128/94
f 94/128/94 77/107/77 95/129/95
f 77/107/77 76/106/76 95/129/95
f 95/129/95 76/106/76 96/130/96
f 76/106/76 75/105/75 96/130/96
f 96/130/96 75/105/75 97/131/97
f 75/105/75 74/104/74 97/131/97
f 74/104/74 82/114/82 98/132/98
f 97/131/97 74/104/74 98/132/98
f 98/132/98 82/114/82 99/133/99
f 84/116/84 18/18/18 100/134/100
f 84/116/84 100/134/100 88/120/88
f 103/137/103 89/121/89 4/17/4
f 103/137/103 83/115/83 89/121/89
f 100/134/100 18/18/18 83/115/83
f 100/134/100 102/136/102 101/135/101
f 87/119/87 103/137/103 4/17/4
f 101/135/101 102/136/102 103/137/103
f 22/23/22 5/22/5 104/138/104
f 104/138/104 107/139/107 22/23/22
f 5/22/5 8/3/8 105/140/105
f 105/140/105 104/138/104 5/22/5
f 8/3/8 31/96/31 109/141/109
f 109/141/109 105/140/105 8/3/8
f 21/87/21 69/99/69 121/143/121
f 121/143/121 106/142/106 21/87/21
f 46/94/46 21/87/21 106/142/106
f 106/142/106 115/144/115 46/94/46
f 48/91/48 22/23/22 107/139/107
f 107/139/107 117/145/117 48/91/48
f 23/89/23 70/100/70 122/147/122
f 122/147/122 108/146/108 23/89/23
f 41/82/41 23/88/23 108/148/108
f 108/148/108 110/149/110 41/82/41
f 31/96/31 51/93/51 120/150/120
f 120/150/120 109/141/109 31/96/31
f 50/92/50 41/82/41 110/149/110
f 110/149/110 119/151/119 50/92/50
f 42/83/42 73/103/73 125/153/125
f 125/153/125 111/152/111 42/83/42
f 43/84/43 42/83/42 111/152/111
f 111/152/111 112/154/112 43/84/43
f 72/102/72 43/84/43 112/154/112
f 112/154/112 124/155/124 72/102/72
f 44/85/44 72/102/72 124/155/124
f 124/155/124 113/156/113 44/85/44
f 71/101/71 44/85/44 113/156/113
f 113/156/113 123/157/123 71/101/71
f 45/86/45 71/101/71 123/157/123
f 123/157/123 114/158/114 45/86/45
f 69/99/69 45/86/45 114/158/114
f 114/158/114 121/143/121 69/99/69
f 70/100/70 46/94/46 115/144/115
f 115/144/115 122/147/122 70/100/70
f 73/103/73 47/98/47 116/159/116
f 116/159/116 125/153/125 73/103/73
f 47/98/47 49/95/49 118/160/118
f 118/160/118 116/159/116 47/98/47
f 49/95/49 48/91/48 117/145/117
f 117/145/117 118/160/118 49/95/49
f 51/93/51 50/92/50 119/151/119
f 119/151/119 120/150/120 51/93/51
f 74/104/74 126/161/126 82/114/82
f 127/162/127 7/2/7 126/161/126
f 26/74/26 127/162/127 128/163/128
f 128/163/128 74/104/74 75/105/75
f 128/163/128 127/162/127 74/104/74
f 129/164/129 26/74/26 128/163/128
f 129/164/129 75/105/75 76/106/76
f 130/165/130 27/75/27 129/164/129
f 130/165/130 76/106/76 77/107/77
f 28/76/28 130/166/130 131/167/131
f 64/80/64 130/166/130 77/107/77
f 24/72/24 131/167/131 132/168/132
f 131/167/131 130/166/130 64/80/64
f 25/73/25 132/168/132 133/169/133
f 132/168/132 131/167/131 64/80/64
f 29/90/29 133/169/133 134/170/134
f 133/169/133 132/168/132 64/80/64
f 6/48/6 134/170/134 135/171/135
f 134/170/134 133/169/133 64/80/64
f 136/172/136 135/171/135 64/80/64
f 135/171/135 134/170/134 64/80/64
f 136/172/136 64/80/64 60/51/60
