# fff08f90_00149_005ad46b
o fff08f90_00149_005ad46b
v -0.199505 -0.077073 -0.191714
v 0.191097 -0.077073 -0.191714
v -0.198775 0.052026 0.057678
v 0.191827 0.052026 0.057678
v -0.245970 -0.092736 -0.229263
v -0.241595 -0.146435 -0.229263
v 0.237561 -0.092736 -0.229263
v 0.241936 -0.146435 -0.229263
v -0.245240 0.067690 0.095227
v 0.238291 0.067690 0.095227
v 0.241936 -0.146435 0.095227
v -0.241595 -0.146435 0.095227
v 0.191097 -0.117218 -0.191714
v 0.192536 0.017570 0.057678
v -0.037897 0.015191 0.095239
v -0.034252 -0.146415 0.095239
v 0.030937 0.015191 0.095239
v 0.034582 -0.146415 0.095239
v -0.037893 -0.069212 0.167991
v 0.030941 -0.069212 0.167991
v 0.034586 -0.146415 0.167991
v -0.034248 -0.146415 0.167991
v -0.198066 0.017570 0.057678
v -0.199505 -0.117218 -0.191714
v -0.003065 -0.059030 -0.067018
v -0.002333 -0.138957 0.151465
v -0.002333 -0.138957 0.101786
v -0.002333 -0.115278 0.126627
v -0.456055 -0.154846 0.207218
v -0.456055 -0.154846 0.157539
v -0.458008 -0.131348 0.182380
v -0.585431 -0.144450 0.259638
v -0.604096 -0.147716 0.219142
v -0.598826 -0.123177 0.239396
v -0.660644 -0.154675 0.329598
v -0.698242 -0.161298 0.297665
v -0.683838 -0.132489 0.313632
v -0.660644 -0.154675 4.241785
v -0.698242 -0.161298 4.209852
v -0.683838 -0.132489 4.225820
vt 1.616210 1.397274
vt 1.824358 1.237250
vt 1.616210 1.237250
vt 1.824358 1.397274
vt 1.616210 1.397274
vt 1.939364 1.397274
vt 1.751720 1.397274
vt 1.616210 1.397274
vt 1.824358 1.397274
vt 1.824358 1.237250
vt 1.616210 1.237250
vt 1.824358 1.397274
vt 1.616210 1.237250
vt 1.616210 1.397274
vt 1.824358 1.397274
vt 1.824358 1.237250
vt 1.824358 1.237250
vt 1.616210 1.237250
vt 1.616210 1.397274
vt 1.824358 1.397274
vt 1.486742 2.505912
vt 1.988588 3.985232
vt 0.984895 3.985232
vt 0.984895 1.026594
vt 1.988588 1.026594
vt 7.686710 1.397274
vt 7.790784 1.397274
vt 7.787431 1.397274
vt 10.196815 1.397274
vt -10.440123 1.397274
vt -13.895671 1.397274
vt -25.528328 1.397274
vt -43.519634 1.397274
vt 3.768154 1.397274
vt 5.198910 1.397274
vt 24.171606 1.397274
vt 34.350197 1.397274
vt 45.637527 1.397274
vt -14.240994 1.397274
vt -41.070984 1.397274
vt 55.082134 1.397274
vt -4.796381 1.397274
vt -37.320812 1.397274
vn 0.458790 0.884173 -0.088030
vn -0.448794 0.890327 -0.076829
vn 0.174439 0.762891 -0.622550
vn -0.165266 0.755800 -0.633604
vn -0.632538 0.401792 -0.662162
vn -0.697076 -0.040080 -0.715877
vn 0.578505 0.454788 -0.677126
vn 0.723238 0.058923 -0.688081
vn -0.570559 0.690345 0.444843
vn 0.561200 0.699444 0.442530
vn 0.714140 0.016963 0.699798
vn -0.703184 -0.011970 0.710907
vn -0.561570 0.705512 0.432310
vn -0.622840 0.390082 -0.678164
vn -0.418408 0.589757 0.690740
vn -0.999746 -0.022550 0.000052
vn 0.407194 0.596322 0.691804
vn 0.999297 0.035329 0.012525
vn -0.662788 0.249291 0.706092
vn 0.622048 0.281563 0.730602
vn 0.717024 0.033854 0.696226
vn -0.701388 -0.020474 0.712486
vn 0.603243 0.403830 -0.687764
vn 0.563684 0.704774 0.430760
vn -0.000064 0.880489 -0.474067
vn 0.058787 0.722760 0.688594
vn -0.109306 0.719411 -0.685930
vn -0.041557 0.997779 -0.052062
vn 0.189564 0.723755 0.663510
vn -0.163770 0.707448 -0.687529
vn -0.021894 0.997481 -0.067473
vn 0.341847 0.753264 0.561902
vn -0.405640 0.632386 -0.659958
vn -0.104599 0.988103 -0.112743
vn 0.576277 0.779384 0.245896
vn -0.749444 0.565528 -0.344255
vn -0.354279 0.933886 -0.048399
vn 0.691244 0.722621 0.000000
vn -0.894427 0.447214 0.000000
vn 0.204966 0.978769 0.000000
g fff08f90_00149_005ad46b_e2
f 3/12/3 1/10/1 5/2/5
f 5/2/5 9/4/9 3/12/3
f 1/10/1 2/11/2 7/3/7
f 7/3/7 5/2/5 1/10/1
f 19/6/19 20/7/20 17/5/17
f 17/5/17 15/4/15 19/6/19
f 8/18/8 6/17/6 5/2/5
f 5/2/5 7/3/7 8/18/8
f 14/14/14 23/15/23 3/12/3
f 3/12/3 4/1/4 14/14/14
f 9/4/9 10/5/10 4/1/4
f 4/1/4 3/12/3 9/4/9
f 10/5/10 7/3/7 2/11/2
f 2/11/2 4/1/4 10/5/10
f 27/26/27 31/28/31 28/27/28
f 31/28/31 27/26/27 30/29/30
f 30/29/30 34/30/34 31/28/31
f 34/30/34 30/29/30 33/31/33
f 33/33/33 37/39/37 34/32/34
f 40/42/40 36/40/36 39/43/39
f 36/40/36 40/42/40 37/39/37
f 37/39/37 33/33/33 36/40/36
g fff08f90_00149_005ad46b_e1
f 12/20/12 11/19/11 10/5/10
f 10/5/10 9/4/9 12/20/12
f 22/9/22 21/8/21 20/7/20
f 20/7/20 19/6/19 22/9/22
f 24/16/24 13/13/13 2/11/2
f 2/11/2 1/10/1 24/16/24
f 26/34/26 28/27/28 31/28/31
f 31/28/31 29/35/29 26/34/26
f 29/35/29 31/28/31 34/30/34
f 34/30/34 32/36/32 29/35/29
f 32/37/32 34/32/34 37/39/37
f 40/42/40 38/41/38 35/38/35
f 35/38/35 37/39/37 40/42/40
f 37/39/37 35/38/35 32/37/32
g fff08f90_00149_005ad46b_e0
f 22/9/22 19/6/19 15/4/15
f 15/4/15 16/20/16 22/9/22
f 18/19/18 17/5/17 20/7/20
f 20/7/20 21/8/21 18/19/18
f 11/19/11 8/18/8 7/3/7
f 7/3/7 10/5/10 11/19/11
f 6/17/6 12/20/12 9/4/9
f 9/4/9 5/2/5 6/17/6
f 4/1/4 2/11/2 13/13/13
f 13/13/13 14/14/14 4/1/4
f 1/10/1 3/12/3 23/15/23
f 23/15/23 24/16/24 1/10/1
g fff08f90_00149_005ad46b_e3
f 25/21/25 23/22/23 14/23/14
f 25/21/25 14/23/14 13/24/13
f 24/25/24 23/22/23 25/21/25
f 24/25/24 25/21/25 13/24/13
