# fff0ade4_00028_0009736b
o fff0ade4_00028_0009736b
v 0.545349 0.019505 -0.961742
v 0.450078 0.052420 -0.174026
v 0.448449 -0.018832 -0.164296
v 0.448449 -0.028783 -0.360721
v 0.450078 0.052420 -0.028782
v 0.448449 -0.048335 -0.038512
v 0.448449 -0.067422 -0.360721
v -0.533182 0.019505 -0.832158
v -0.533182 0.019505 -0.961742
v 0.545349 0.019505 -0.832158
v 0.545349 0.019505 0.121226
v 0.545349 0.019505 -0.008358
v -0.533182 0.019505 -0.008358
v -0.533182 0.019505 0.121226
v 0.421057 0.052420 -0.028782
v 0.419429 -0.048334 -0.038511
v 0.419429 -0.067422 -0.360720
v -0.532700 0.033231 -1.244267
v 0.543622 0.033231 1.008040
v 0.543622 0.033231 0.982065
v 0.642957 0.033238 -1.244267
v 0.543623 0.033238 -1.244267
v 0.543623 0.033238 1.008040
v -0.642983 0.033238 -1.244267
v -0.532700 0.033238 -1.244267
v -0.532700 0.033238 1.008040
v -0.642983 0.033238 1.137624
v 0.642957 0.033238 1.137624
v -0.532700 0.033231 1.008040
v 0.543622 0.033231 -1.244267
v 0.420843 0.052420 -0.174025
v 0.419214 -0.018832 -0.164296
v 0.419214 -0.028783 -0.360720
v -0.235176 0.019505 0.121226
v -0.235176 0.033231 -1.244267
v -0.532700 0.033238 0.691636
v 0.543623 0.033238 0.929309
v 0.642957 0.033238 0.981703
v -0.265358 0.033231 0.950207
v 0.642957 0.033238 0.926816
v 0.543623 0.033238 0.982065
v -0.642983 0.033238 0.694404
v -0.235176 0.019505 -0.961742
v -0.235176 0.019505 -0.832158
v -0.235176 0.019505 -0.008358
v -0.265358 0.033231 0.985097
v -0.532700 0.033231 0.691635
v -0.235176 0.033231 0.948853
v 0.543622 0.033231 0.929309
v -0.642983 0.033238 -1.247370
v -0.642983 0.033238 1.137624
v 0.731453 -0.017120 -1.247370
v -0.642968 -0.017116 -1.247370
v 0.731453 -0.017120 1.246884
v -0.642968 -0.017116 1.137622
v -0.265358 0.019505 -0.008358
v -0.265358 0.019505 -0.832158
v -0.265358 0.019505 -0.961742
v -0.265358 0.033231 -1.244267
v -0.265358 0.019505 0.121226
v 0.642972 -0.017116 -1.247370
v 0.642957 0.033238 1.137624
v 0.642972 -0.017116 1.137622
v 0.642957 0.033238 -1.247370
v -0.731453 -0.017120 1.246884
v 0.731453 0.119965 -1.247370
v 0.731453 0.119965 1.247370
v 0.545349 0.019505 0.634838
v -0.533182 0.019505 0.634838
v -0.533182 0.019505 0.764422
v 0.545349 0.019505 0.764422
v -0.265358 0.019505 0.764422
v -0.235176 0.019505 0.764422
v -0.235176 0.019505 0.634838
v -0.265358 0.019505 0.634838
v -0.731453 -0.017120 -1.247370
v -0.731453 0.119965 1.247370
v -0.731453 0.119965 -1.247370
vt -0.015242 0.000009
vt -0.076227 0.001426
vt -0.014122 0.930558
vt 0.000000 -0.995374
vt 0.831368 -0.995374
vt 0.831367 0.995567
vt 0.000000 0.995567
vt 0.992914 0.989115
vt 0.848820 0.989115
vt 0.848821 0.023083
vt 0.992914 0.023083
vt 0.831367 0.995567
vt 0.000000 -0.995374
vt 0.849117 1.398950
vt 0.893514 1.402302
vt 0.849117 1.000000
vt -0.076227 1.000010
vt -0.010091 0.998590
vt -0.076227 0.931976
vt 1.153048 1.165471
vt 1.048358 1.026571
vt 1.038493 1.178047
vt 1.143845 1.159115
vt 1.161258 1.010599
vt 1.152468 1.026719
vt 1.142602 1.178195
vt 1.151392 1.196696
vt 1.030575 1.196524
vt 0.893135 1.000000
vt 0.894144 0.000000
vt 0.849117 0.000000
vt 1.040441 1.010427
vt 0.601556 -0.995374
vt 1.143844 1.159116
vt 1.038802 1.173300
vt 1.031158 1.185539
vt 0.831367 0.744787
vt 0.601552 0.948654
vt 0.624868 0.977382
vt 0.000000 0.974979
vt 1.038595 1.176481
vt 1.153047 1.165471
vt 0.848821 0.290005
vt 0.624869 0.977382
vt 0.831367 0.744787
vt 0.601555 0.977190
vt 0.000000 0.961699
vt 1.031228 1.184212
vt 1.161258 1.010599
vt 1.153047 1.165471
vt 1.151392 1.196696
vt 1.030575 1.196524
vt 1.151392 1.196696
vt 0.992914 0.262971
vt 0.848821 0.262971
vt 0.624869 -0.995374
vt 0.624865 0.949727
vt 0.992914 0.290005
vt 0.848820 0.262971
vt 0.992914 0.290004
vt 0.848821 0.290004
vt 0.992914 0.262971
vt 1.040441 1.010427
vt 1.032351 1.163025
vt 1.032351 1.163025
vt 1.040441 1.010427
vt 1.151392 1.196696
vt 1.030575 1.196524
vt 1.032351 1.163025
vt 1.040441 1.010427
vt 1.030575 1.196524
vt 1.161258 1.010599
vt 1.153047 1.165471
vt 1.153047 1.165471
vt 1.161258 1.010599
vn 0.000000 -1.000000 0.000000
vn 0.999739 -0.022855 0.000000
vn 0.999966 -0.008178 -0.000552
vn 1.000000 0.000000 0.000000
vn 0.688296 -0.082242 0.720753
vn 0.581939 -0.587747 0.562051
vn 0.693413 -0.719279 0.042610
vn 0.000000 -1.000000 0.000000
vn 0.000000 -1.000000 0.000000
vn 0.000000 -1.000000 0.000000
vn 0.000000 -1.000000 0.000000
vn 0.000000 -1.000000 0.000000
vn 0.000000 -1.000000 -0.000000
vn 0.000000 -1.000000 0.000000
vn -0.679781 -0.058042 0.731115
vn -0.589454 -0.579414 0.562870
vn -0.691471 -0.721140 0.042720
vn 0.000000 -1.000000 0.000000
vn 0.000000 -1.000000 0.000000
vn 0.000000 -1.000000 0.000000
vn -0.000000 -1.000000 0.000000
vn -0.000000 -1.000000 -0.000000
vn -0.000000 -1.000000 0.000000
vn 0.000000 -1.000000 0.000000
vn 0.000000 -1.000000 0.000000
vn 0.000014 -1.000000 0.000012
vn -0.000002 -1.000000 0.000007
vn 0.000000 -1.000000 -0.000000
vn 0.000000 -1.000000 0.000000
vn 0.000000 -1.000000 -0.000000
vn -0.999733 0.023056 0.001475
vn -0.999988 0.004642 0.001357
vn -0.999984 -0.005576 0.000327
vn 0.000000 -1.000000 -0.000000
vn 0.000000 -1.000000 -0.000000
vn 0.000000 -1.000000 0.000000
vn -0.000000 -1.000000 -0.000000
vn 0.000000 -1.000000 0.000000
vn 0.000000 -1.000000 -0.000000
vn -0.000000 -1.000000 -0.000000
vn -0.000000 -1.000000 0.000000
vn -0.000034 -1.000000 0.000000
vn 0.000000 -1.000000 0.000000
vn 0.000000 -1.000000 0.000000
vn 0.000000 -1.000000 0.000000
vn 0.000000 -1.000000 0.000000
vn -0.000017 -1.000000 0.000001
vn 0.000000 -1.000000 0.000000
vn 0.000000 -1.000000 0.000000
vn 1.000000 0.000302 0.000000
vn 0.707166 0.000240 -0.707047
vn 0.707090 -0.707124 0.000000
vn 0.707231 -0.706982 0.000000
vn 0.577534 -0.578288 0.576227
vn 0.301560 -0.904486 -0.301605
vn 0.000000 -1.000000 -0.000000
vn 0.000000 -1.000000 0.000000
vn 0.000000 -1.000000 0.000000
vn 0.000000 -1.000000 0.000000
vn 0.000000 -1.000000 -0.000000
vn -0.707018 -0.707195 0.000000
vn -0.707031 -0.000187 -0.707183
vn -0.301521 -0.904551 -0.301450
vn -1.000000 -0.000302 0.000000
vn -0.577533 -0.578289 0.576227
vn 1.000000 0.000001 0.000000
vn 0.706307 -0.002511 0.707902
vn 0.000000 -1.000000 0.000000
vn 0.000000 -1.000000 -0.000000
vn 0.000000 -1.000000 0.000000
vn 0.000000 -1.000000 0.000000
vn 0.000000 -1.000000 -0.000000
vn 0.000000 -1.000000 -0.000000
vn 0.000000 -1.000000 0.000000
vn 0.000000 -1.000000 -0.000000
vn -0.707089 -0.707124 0.000000
vn -0.706307 -0.002512 0.707901
vn -1.000000 -0.000000 0.000000
g fff0ade4_00028_0009736b_e4
f 51/27/51 62/28/62 63/52/63
f 63/52/63 55/53/55 51/27/51
f 55/50/55 53/49/53 50/24/50
f 50/24/50 51/42/51 55/50/55
f 66/66/66 67/65/67 54/69/54
f 54/69/54 52/70/52 66/66/66
f 4/31/4 6/29/6 7/30/7
f 6/29/6 4/31/4 3/16/3
f 3/16/3 5/15/5 6/29/6
f 5/15/5 3/16/3 2/14/2
g fff0ade4_00028_0009736b_e1
f 6/19/6 15/18/15 16/3/16
f 15/18/15 6/19/6 5/17/5
f 67/68/67 77/67/77 65/51/65
f 65/51/65 54/71/54 67/68/67
g fff0ade4_00028_0009736b_e2
f 16/3/16 7/2/7 6/19/6
f 7/2/7 16/3/16 17/1/17
f 55/53/55 63/52/63 54/71/54
f 54/71/54 65/51/65 55/53/55
f 55/50/55 76/72/76 53/49/53
f 76/72/76 55/50/55 65/74/65
f 63/64/63 61/63/61 52/70/52
f 52/70/52 54/69/54 63/64/63
g fff0ade4_00028_0009736b_e0
f 30/13/30 49/47/49 48/46/48
f 29/12/29 47/45/47 46/44/46
f 60/62/60 14/11/14 13/10/13
f 45/61/45 12/9/12 11/8/11
f 10/8/10 44/60/44 43/43/43
f 43/43/43 1/9/1 10/8/10
f 28/28/28 27/27/27 26/26/26
f 25/25/25 42/42/42 24/24/24
f 27/27/27 47/23/47 26/26/26
f 26/26/26 23/22/23 28/28/28
f 28/28/28 23/22/23 41/41/41
f 22/21/22 21/32/21 40/48/40
f 27/27/27 42/20/42 47/23/47
f 75/59/75 74/61/74 73/58/73
f 20/40/20 19/7/19 46/39/46
f 46/39/46 19/7/19 29/6/29
f 46/44/46 39/57/39 48/38/48
f 47/37/47 18/5/18 59/56/59
f 28/28/28 41/41/41 38/36/38
f 37/35/37 38/36/38 41/41/41
f 25/25/25 36/34/36 42/42/42
f 49/47/49 20/40/20 48/46/48
f 48/46/48 20/40/20 46/39/46
f 46/44/46 47/45/47 39/57/39
f 48/38/48 35/33/35 30/4/30
f 22/21/22 40/48/40 37/35/37
f 40/48/40 38/36/38 37/35/37
f 39/57/39 35/33/35 48/38/48
f 9/10/9 58/55/58 57/54/57
f 57/54/57 8/11/8 9/10/9
f 13/10/13 56/59/56 60/62/60
f 11/8/11 34/58/34 45/61/45
f 59/56/59 35/33/35 39/57/39
f 34/58/34 60/62/60 56/59/56
f 56/59/56 45/61/45 34/58/34
f 44/60/44 57/54/57 58/55/58
f 58/55/58 43/43/43 44/60/44
f 47/37/47 59/56/59 39/57/39
f 73/58/73 72/62/72 75/59/75
f 71/8/71 73/58/73 74/61/74
f 72/62/72 70/11/70 69/10/69
f 74/61/74 68/9/68 71/8/71
f 69/10/69 75/59/75 72/62/72
g fff0ade4_00028_0009736b_e3
f 78/75/78 65/74/65 77/73/77
f 65/74/65 78/75/78 76/72/76
f 64/32/64 63/64/63 62/48/62
f 63/64/63 64/32/64 61/63/61
f 33/31/33 17/30/17 16/29/16
f 16/29/16 32/16/32 33/31/33
f 32/16/32 16/29/16 15/15/15
f 15/15/15 31/14/31 32/16/32
