# fff0030f_00095_001f3306
o fff0030f_00095_001f3306
v 1.122342 1.443658 -1.652683
v 0.810206 -0.298485 -1.652683
v 8.343050 1.665296 -1.652683
v 8.583453 -1.048820 -1.652683
v 2.462257 -1.212068 -1.652683
v 5.256933 -1.551774 -1.652683
v 8.847408 0.007032 -1.652683
v 3.256342 -2.531329 -1.652683
v 2.129017 -0.624145 -1.652683
v 3.745873 -1.211288 -1.652683
v 2.189644 -1.414233 -1.652683
v 3.402014 -2.272926 -1.652683
v 3.452493 -0.886854 -1.652683
v 4.981211 -1.793705 -1.652683
vt 0.478815 0.238677
vt 0.000000 1.000000
vt 0.101786 0.250025
vt 0.592547 0.539144
vt 0.626847 0.983583
vt 0.654046 0.728322
vt 0.345632 0.990948
vt 0.558361 0.259538
vt 0.503739 0.092008
vt 0.426539 0.248036
vt 0.359986 0.100986
vt 0.625393 0.588669
vt 0.855366 0.556993
vt 0.784379 0.309310
vn 0.000000 0.000000 1.000000
vn 0.000000 0.000000 1.000000
vn 0.000000 0.000000 1.000000
vn 0.000000 0.000000 1.000000
vn 0.000000 0.000000 1.000000
vn 0.000000 0.000000 1.000000
vn 0.000000 0.000000 1.000000
vn 0.000000 0.000000 1.000000
vn 0.000000 0.000000 1.000000
vn 0.000000 0.000000 1.000000
vn 0.000000 0.000000 1.000000
vn 0.000000 0.000000 1.000000
vn 0.000000 0.000000 1.000000
vn 0.000000 0.000000 1.000000
g fff0030f_00095_001f3306_e0
f 10/12/10 9/8/9 12/13/12
f 11/14/11 12/13/12 9/8/9
f 8/9/8 14/10/14 13/11/13
f 6/6/6 4/5/4 5/4/5
f 2/1/2 5/4/5 1/3/1
f 1/3/1 5/4/5 4/5/4
f 7/7/7 3/2/3 1/3/1
f 7/7/7 1/3/1 4/5/4
