# fff0a81b_00621_00d8a91a
o fff0a81b_00621_00d8a91a
v 0.441355 -0.025663 -0.116455
v 0.589328 0.066447 -1.142445
v -0.580587 0.092343 1.084263
v -0.582465 0.092018 0.768112
v -0.561941 0.107548 1.082230
v -0.567056 -0.133244 1.082607
v -0.564380 0.107230 0.696579
v -0.530343 0.009077 -0.160305
v -0.530285 0.009059 -0.064804
v 0.412910 -0.015240 -0.160305
v 0.412910 -0.015240 -0.064804
v 0.586861 0.082186 -1.129910
v -0.501900 -0.001347 -0.116455
v -0.501892 -0.001334 -0.020954
v 0.441351 -0.025670 -0.020954
v -0.573207 -0.149279 -1.128415
v 0.582298 -0.170837 -1.134339
v 0.356915 0.074053 0.854340
v 0.346275 0.071247 -1.141197
v 0.600608 0.069872 1.078201
v -0.562947 -0.136878 -1.123654
v 0.582411 -0.158921 -1.129529
v -0.575835 0.103984 -1.123944
v -0.556447 -0.124638 1.069160
v 0.598254 0.088744 1.067314
v 0.586877 0.082212 -1.134744
v -0.575850 0.103957 -1.128781
v -0.575857 0.103954 -1.130692
v -0.571604 0.110343 1.073322
v 0.598254 0.088744 1.067314
v -0.568399 0.109057 0.773903
v 0.586870 0.082209 -1.136654
v 0.596854 0.087297 0.767929
v 0.588905 -0.147665 1.063286
v -0.557354 -0.171618 1.069237
v 0.588000 -0.194152 1.063362
v 0.664399 -0.195128 1.138702
v -0.636266 0.214113 1.145248
v 0.661609 0.189150 1.138596
v 0.664399 -0.195128 1.138702
v -0.557354 -0.171618 1.069237
v 0.588000 -0.194152 1.063362
v 0.588905 -0.147665 1.063286
v 0.588000 -0.194152 1.063362
v -0.556447 -0.124638 1.069160
v -0.557354 -0.171618 1.069237
v -0.633462 -0.170139 1.145359
v -0.633462 -0.170139 1.145359
v -0.636266 0.214113 1.145248
v 0.653027 -0.198712 -1.132824
v 0.577397 -0.150995 -1.132507
v 0.576735 -0.197551 -1.132439
v -0.567969 -0.127993 -1.126637
v -0.644773 -0.173616 -1.126171
v 0.653027 -0.198712 -1.132824
v 0.649474 0.163736 -1.132896
v 0.661609 0.189150 1.138596
v 0.664399 -0.195128 1.138702
v -0.633462 -0.170139 1.145359
v -0.568860 -0.174946 -1.126560
v -0.568860 -0.174946 -1.126560
v 0.576781 -0.197471 -1.132439
v 0.593677 -0.164304 1.067719
v -0.569172 -0.142771 1.073689
v -0.564336 0.110236 1.073284
v 0.587676 -0.148330 0.778046
v 0.586576 -0.194668 0.778114
v 0.661047 0.166446 0.777969
v 0.662851 -0.195856 0.778042
v -0.634753 -0.170910 0.779320
v 0.586591 -0.194641 0.778114
v 0.662851 -0.195856 0.778042
v -0.557905 -0.125207 0.779175
v -0.559023 -0.172064 0.779243
v -0.559023 -0.172064 0.779243
v -0.644773 -0.173616 -1.126171
v -0.637770 0.213464 0.779213
v -0.647592 0.210609 -1.126274
v -0.634753 -0.170910 0.779320
v 0.625668 -0.144171 1.137180
v -0.593083 -0.115828 1.099674
v 0.078349 0.077402 0.588989
v -0.082860 0.080406 0.616890
v -0.083391 0.080465 0.589825
v 0.078621 0.077385 0.616058
v 0.230020 0.074478 0.658401
v -0.233682 0.083333 0.687847
v -0.233956 0.083349 0.660782
v 0.230065 0.074557 0.685463
v 0.269028 0.079054 0.519325
v -0.273052 0.089853 0.728081
v -0.274067 0.089558 0.522110
v 0.270120 0.079481 0.725288
v 0.591374 -0.144854 -1.144516
v 0.598763 -0.143896 1.137276
v 0.604480 0.130167 1.136524
v 0.597091 0.129209 -1.145267
v 0.631385 0.129892 1.136429
v -0.617062 -0.115740 -1.142697
v -0.587368 0.158234 1.098923
v 0.618284 -0.145126 -1.142701
v 0.624003 0.128938 -1.143453
v -0.611344 0.158323 -1.143449
vt 0.659195 2.264221
vt 0.659195 2.264221
vt 2.512986 0.959433
vt 2.512986 0.959433
vt 2.512986 0.959433
vt 2.512986 0.959434
vt 2.512986 0.959433
vt 2.512986 0.959433
vt 2.498317 0.491948
vt 2.498314 0.491948
vt 2.498315 0.491948
vt 2.498315 0.491948
vt 0.659195 2.264221
vt 0.659195 2.264221
vt 0.659195 2.264221
vt 0.659195 2.264221
vt 0.659195 2.264221
vt 0.659195 2.264221
vt 0.659195 2.264224
vt 0.659195 2.264221
vt 0.659195 2.264221
vt 0.659195 2.264221
vt 0.659195 2.264221
vt 0.659195 2.264221
vt 0.659195 2.264221
vt 0.659195 2.264221
vt 0.659195 2.264221
vt 0.659195 2.264221
vt 0.659195 2.264224
vt 0.659195 2.264221
vt 0.659195 2.264221
vt 0.659195 2.264221
vt 0.659195 2.264221
vt 0.659195 2.264221
vt 0.659195 2.264221
vt 0.659195 2.264224
vt 0.659195 2.264224
vt 0.659195 2.264224
vt 0.659195 2.264221
vt 0.659195 2.264221
vt 0.659195 2.264221
vt 0.659195 2.264224
vt 0.659195 2.264221
vt 0.659195 2.264221
vt 0.659195 2.264221
vt 0.659195 2.264224
vt 0.659195 2.264224
vt 0.659195 2.264221
vt 0.659195 2.264221
vt 0.659195 2.264221
vt 1.206462 1.448801
vt 1.206733 1.448437
vt 1.707517 1.423755
vt 1.717360 1.423755
vt 1.707788 1.423755
vt 1.209481 0.109949
vt 1.209751 0.109586
vt 1.717694 1.423755
vt 0.659195 2.264224
vt 0.659195 2.264224
vt 0.659195 2.264221
vt 0.659195 2.264221
vt 1.899655 2.010723
vt 0.896490 1.008578
vt 0.896488 2.012129
vt 1.899667 1.006461
vn -0.025790 -0.999667 -0.000063
vn -0.019736 -0.999804 0.001642
vn -0.019015 -0.999819 0.001139
vn -0.019051 -0.999818 0.001278
vn 0.999754 -0.021249 -0.006306
vn 0.999754 -0.021249 -0.006306
vn 0.999754 -0.021249 -0.006306
vn -0.025771 -0.999668 -0.000169
vn -0.025770 -0.999668 -0.000158
vn -0.025755 -0.999668 -0.000011
vn -0.025754 -0.999668 0.000000
vn 0.005159 0.001487 0.999986
vn -0.025770 -0.999668 0.000140
vn -0.025771 -0.999668 0.000126
vn -0.025792 -0.999667 -0.000077
vn 0.005155 0.001500 0.999986
vn 0.005156 0.001504 0.999986
vn -0.018952 -0.999818 0.001958
vn -0.019653 -0.999806 0.001633
vn -0.018948 -0.999819 0.001724
vn 0.005157 0.001480 0.999986
vn 0.005159 0.001486 0.999986
vn 0.005158 0.001481 0.999986
vn 0.999789 -0.019771 -0.005648
vn -0.005162 -0.001504 -0.999986
vn 0.005156 0.001505 0.999986
vn 0.005155 0.001501 0.999986
vn -0.018684 -0.999822 0.002752
vn -0.018439 -0.999822 0.004097
vn -0.018612 -0.999815 0.004788
vn -0.018568 -0.999822 0.003499
vn -0.018675 -0.999822 0.002758
vn -0.018651 -0.999819 0.003844
vn -0.999801 0.019467 0.004261
vn 0.999797 -0.019306 -0.005725
vn -0.999792 0.019906 0.004331
vn 0.999964 0.007259 -0.004309
vn 0.005132 0.000325 0.999987
vn 0.005134 0.000317 0.999987
vn -0.017052 -0.999846 0.004194
vn -0.005159 -0.001524 -0.999986
vn -0.016883 -0.999849 0.004074
vn -0.005160 -0.001541 -0.999985
vn -0.005160 -0.001540 -0.999986
vn -0.005159 -0.001525 -0.999986
vn -0.018729 -0.999824 0.000696
vn -0.018374 -0.999831 0.001038
vn -0.999967 -0.007295 0.003541
vn -0.999964 -0.007580 0.003841
vn -0.016261 -0.999867 0.001578
vn -0.999884 0.014369 0.005132
vn -0.999886 0.014222 0.005129
vn 0.999806 -0.018986 -0.005252
vn -0.017511 -0.999846 0.001512
vn 0.999940 0.009226 -0.005960
vn 0.999934 0.009801 -0.006070
vn 0.999977 0.006117 -0.003089
vn 0.005135 0.000315 0.999987
vn 0.005133 0.000324 0.999987
vn -0.017454 -0.999847 0.001514
vn 0.999804 -0.019062 -0.005250
vn -0.016252 -0.999867 0.001578
vn -0.005162 -0.001505 -0.999986
vn -0.005163 -0.001500 -0.999986
vn -0.005163 -0.001500 -0.999986
vn -0.999710 0.023530 0.005112
vn -0.999706 0.023677 0.005146
vn 0.999980 0.005261 -0.003532
vn 0.999976 0.005571 -0.004145
vn -0.015273 -0.999882 0.001873
vn -0.015827 -0.999873 0.001803
vn -0.015923 -0.999872 0.001825
vn 0.999703 -0.023828 -0.005052
vn 0.999708 -0.023633 -0.005089
vn -0.015411 -0.999880 0.001842
vn -0.999959 -0.007400 0.005178
vn -0.999959 -0.007816 0.004689
vn -0.999960 -0.007335 0.005165
vn -0.999960 -0.007706 0.004547
vn 0.030681 -0.003381 -0.999524
vn 0.712889 -0.016790 -0.701076
vn -0.018933 -0.999821 -0.000434
vn -0.018714 -0.999823 -0.001788
vn -0.018738 -0.999823 -0.001644
vn -0.018910 -0.999821 -0.000578
vn -0.019101 -0.999813 0.002938
vn -0.018924 -0.999821 -0.000398
vn -0.018930 -0.999821 -0.000274
vn -0.019095 -0.999814 0.002814
vn -0.019325 -0.999811 0.002173
vn -0.019083 -0.999817 0.001524
vn -0.019139 -0.999815 0.001674
vn -0.019270 -0.999812 0.002023
vn -0.999777 0.020866 0.003229
vn -0.999777 0.020865 0.003229
vn -0.999777 0.020865 0.003229
vn -0.999777 0.020866 0.003229
vn 0.030681 -0.003381 -0.999523
vn 0.710684 -0.012898 0.703393
vn 0.715044 -0.016829 -0.698877
vn 0.000068 0.002741 0.999996
vn 0.000068 0.002741 0.999996
vn 0.710848 -0.012903 0.703227
g fff0a81b_00621_00d8a91a_e1
f 15/65/15 14/63/14 1/64/1
f 1/64/1 14/63/14 13/66/13
g fff0a81b_00621_00d8a91a_e5
f 103/58/103 101/56/101 102/57/102
f 100/55/100 99/54/99 103/58/103
f 99/54/99 100/55/100 81/53/81
f 98/52/98 81/53/81 100/55/100
f 81/53/81 98/52/98 80/51/80
f 97/57/97 95/51/95 96/52/96
f 95/51/95 97/57/97 94/56/94
f 101/56/101 103/58/103 99/54/99
g fff0a81b_00621_00d8a91a_e4
f 75/48/75 46/30/46 47/31/47
f 74/47/74 73/46/73 24/29/24
f 72/45/72 71/43/71 62/44/62
f 61/42/61 73/46/73 74/47/74
f 45/29/45 43/27/43 44/28/44
f 42/28/42 47/31/47 46/26/46
f 41/26/41 45/29/45 44/28/44
f 47/31/47 42/28/42 40/25/40
f 71/43/71 40/31/40 42/30/42
f 72/45/72 40/31/40 71/43/71
f 70/41/70 60/24/60 75/48/75
f 59/31/59 58/25/58 39/23/39
f 39/23/39 38/32/38 59/31/59
f 69/40/69 57/32/57 37/31/37
f 70/41/70 75/48/75 47/31/47
f 56/22/56 68/39/68 55/21/55
f 68/39/68 57/32/57 69/40/69
f 54/20/54 60/24/60 70/41/70
f 68/39/68 69/40/69 55/21/55
f 36/19/36 66/59/66 67/60/67
f 61/42/61 53/38/53 73/46/73
f 35/19/35 74/47/74 24/29/24
f 67/60/67 51/36/51 52/37/52
f 36/19/36 34/29/34 66/59/66
f 66/59/66 51/36/51 67/60/67
f 50/35/50 72/45/72 62/44/62
f 93/45/93 91/43/91 92/44/92
f 90/35/90 93/45/93 92/44/92
f 89/45/89 87/43/87 88/44/88
f 86/35/86 89/45/89 88/44/88
f 85/45/85 83/43/83 84/44/84
f 82/35/82 85/45/85 84/44/84
g fff0a81b_00621_00d8a91a_e3
f 25/17/25 64/1/64 65/16/65
f 64/1/64 25/17/25 63/13/63
f 79/62/79 48/31/48 49/32/49
f 78/50/78 76/49/76 77/61/77
f 77/61/77 76/49/76 79/62/79
f 77/61/77 79/62/79 49/32/49
g fff0a81b_00621_00d8a91a_e2
f 27/15/27 17/14/17 26/33/26
f 17/14/17 27/15/27 16/2/16
g fff0a81b_00621_00d8a91a_e0
f 33/34/33 31/18/31 32/33/32
f 30/17/30 29/16/29 31/18/31
f 33/34/33 30/17/30 31/18/31
f 32/33/32 31/18/31 28/15/28
g fff0a81b_00621_00d8a91a_e6
f 23/12/23 22/10/22 12/11/12
f 22/10/22 23/12/23 21/9/21
f 11/65/11 9/63/9 10/64/10
f 10/64/10 9/63/9 8/66/8
f 7/11/7 5/12/5 6/9/6
f 20/8/20 4/7/4 18/4/18
f 20/8/20 19/5/19 2/3/2
f 20/8/20 3/6/3 4/7/4
f 20/8/20 18/4/18 19/5/19
