# fff017fc_00185_003a061f
o fff017fc_00185_003a061f
v 1.818140 -0.460286 0.478905
v 1.166042 -0.462203 0.478905
v 2.515895 -0.100434 0.656841
v 2.363917 -0.550647 0.656841
v 1.747376 -0.350947 0.656841
v 1.893616 0.100787 0.656841
v 1.818140 -0.460286 0.647594
v 1.751507 0.319435 0.072208
v 1.100507 0.769910 -0.627838
v 1.749125 0.774450 -0.618755
v 1.749125 0.774450 0.072208
v 1.817763 -0.000325 0.478905
v 1.102898 0.311782 0.072208
v 2.585649 0.790315 -0.607201
v 2.339861 1.196563 -0.607201
v 2.899221 1.535348 -0.607201
v 3.140129 1.125741 -0.607201
v 0.424479 0.908971 -0.607201
v 2.155535 -0.067996 0.079132
v 2.524395 0.230958 0.079132
v 2.936402 -0.276890 0.079132
v 2.563627 -0.571513 0.079132
v 3.045290 -0.703090 0.072208
v 3.045290 -0.703090 -0.621189
v 1.751507 0.319496 -0.210110
v 1.749125 0.774511 -0.210110
v 1.749125 0.774511 -0.627838
v 1.100507 0.769910 -0.210110
v 1.102905 0.311783 -0.210110
v 4.911324 1.339634 -0.607201
v 4.117903 1.494077 -0.607201
v 4.465181 1.817861 -0.607201
v 4.404790 1.254904 -0.584694
v 4.504927 1.719066 -0.584694
v 5.144279 1.581390 -0.584694
v 6.525467 0.888120 -0.620804
v 1.078299 -0.702829 -0.627838
v 1.122508 -0.703093 0.072212
v 6.525467 0.888120 -0.656841
v 6.527506 0.416563 -0.656841
v 6.527506 0.416563 0.072208
v 6.525467 0.888120 0.072208
v 7.170194 0.427204 -0.656841
v 7.170194 0.427204 0.072208
v 7.170122 0.432758 -0.622620
v 3.949139 -0.490628 0.072212
v 4.530473 -0.379372 0.656841
v 4.676713 0.072363 0.656841
v 5.038275 1.118141 -0.584694
v 4.600860 -0.028750 0.647594
v 3.947478 -0.029324 0.072212
v 5.255095 -0.028235 0.072212
v 7.178835 -1.856606 -0.621189
v 7.178835 -1.856606 0.072208
v 3.303555 -1.876942 -0.610497
v 3.293061 0.870613 0.072208
v 3.303555 -1.876942 0.072208
v 3.293061 0.870613 -0.610497
v 5.255473 -0.486914 0.072212
v 5.255473 -0.486914 0.647594
v 5.255095 -0.028235 0.647594
v 4.601237 -0.488711 0.478905
v 3.949139 -0.490628 0.478905
v 5.298992 -0.128859 0.656841
v 5.147014 -0.579071 0.656841
v 4.601237 -0.488711 0.647594
v 5.886798 0.430399 0.072208
v 5.235798 0.880874 -0.627838
v 5.884416 0.885475 -0.627838
v 5.884416 0.885414 -0.618755
v 5.884416 0.885414 0.072208
v 4.600860 -0.028750 0.478905
v 3.947478 -0.029324 0.478905
v 5.235798 0.880813 -0.616722
v 5.238189 0.422807 -0.210110
v 5.238189 0.422746 0.072208
v 5.235798 0.880813 0.072208
v 6.720941 0.901279 -0.607201
v 6.475152 1.307527 -0.607201
v 7.034513 1.646312 -0.607201
v 7.275420 1.236706 -0.607201
v 4.559771 1.019935 -0.607201
v 6.290826 0.042968 0.079132
v 6.659686 0.341922 0.079132
v 7.071693 -0.165926 0.079132
v 6.698918 -0.460549 0.079132
v 7.178896 -1.856606 0.072208
v 3.303555 -1.876942 -0.610497
v 3.303555 -1.876942 0.072208
v 7.178896 -1.856606 -0.621189
v 5.886798 0.430460 -0.210110
v 5.884416 0.885475 -0.210110
v 5.235798 0.880874 -0.210110
v 0.776032 1.228670 -0.607201
v -0.017388 1.383113 -0.607201
v 0.329890 1.706897 -0.607201
v 0.269499 1.143939 -0.584694
v 2.390176 0.777156 -0.620804
v 2.390176 0.777156 -0.656841
v 2.392215 0.305599 -0.656841
v 2.392215 0.305599 0.072208
v 2.390176 0.777156 0.072208
v 3.034903 0.316240 -0.656841
v 3.034903 0.316240 0.072208
v 3.034831 0.321794 -0.622620
v 0.369635 1.608102 -0.584694
v 1.008988 1.470426 -0.584694
v 0.902983 1.007177 -0.584694
v 1.817763 -0.000325 0.647594
v 3.045229 -0.703090 -0.621189
v 3.045229 -0.703090 0.072208
v 1.078299 -0.702829 -0.627838
v 1.102913 0.311780 0.072208
v 1.122508 -0.703093 0.072212
v 1.102905 0.311783 -0.610497
v 1.122555 -0.703090 0.072212
v 2.472376 -0.458489 0.647594
v 2.471999 0.000190 0.647594
v 1.164381 -0.000899 0.478905
v 1.166042 -0.462203 0.072212
v 1.164381 -0.000899 0.072212
v 2.471999 0.000190 0.072212
v 2.472376 -0.458489 0.072212
v 1.102910 0.311781 -0.210110
v 1.100530 0.769917 -0.627838
v 1.100534 0.769915 -0.210110
v 1.164411 -0.000896 0.072214
vt 1.982774 4.305631
vt -0.248368 4.305639
vt 1.983967 3.014951
vt 2.997858 1.014046
vt 2.997858 1.999999
vt 1.976220 1.999999
vt 1.976220 1.014046
vt 0.999994 0.392686
vt 1.999994 0.392686
vt 1.999994 1.870784
vt 0.999994 1.870784
vt -0.002765 -15.998549
vt -1.012168 1.328223
vt -3.232004 0.008621
vt -3.232004 1.328224
vt -1.000057 0.005898
vt -0.246899 2.979274
vt 1.989836 2.002085
vt 0.989836 2.002085
vt 1.989836 1.002085
vt 8.996005 0.525668
vt 9.994882 1.834315
vt 8.996007 1.836551
vt 9.994879 0.527507
vt 1.994630 -1.490770
vt 1.994630 -0.490770
vt 0.988494 -0.490770
vt -0.016356 -1.490770
vt 0.988494 -0.783948
vt -0.016355 -0.783948
vt 4.999701 -0.976627
vt 5.002382 0.031108
vt 6.010393 -0.979817
vt -5.112878 1.770259
vt -8.166006 0.413296
vt -8.097521 1.754833
vt -5.112746 0.442383
vt 1.994913 2.040231
vt 0.972022 2.040231
vt 0.972036 1.492948
vt 1.994913 1.492948
vt 0.981434 0.594230
vt 1.981434 0.594230
vt 1.981434 2.233119
vt 0.981434 2.233119
vt 0.989836 1.002085
vt 8.983608 -1.229952
vt 5.990194 1.014326
vt 6.013324 -1.210462
vt 6.010393 -0.979817
vt 6.013061 0.025649
vt 3.992990 0.036549
vt 4.999698 -0.976417
vt 3.992198 -0.972607
vt 3.992198 -0.972607
vt -0.002765 -15.998549
vt 0.005512 -14.991747
vt 1.001070 -14.992155
vt 0.998473 -15.999763
vt 5.002383 0.031105
vt 6.023391 1.014328
vt 6.022940 2.018587
vt 6.991821 2.021961
vt 6.992257 1.024658
vt 8.974895 1.004351
vt -0.002765 -15.998549
vt 0.005512 -14.991747
vt 1.001070 -14.992155
vt 0.998473 -15.999763
vt 6.991806 2.021826
vt 7.982165 2.021312
vt 6.992255 1.024523
vt 7.981983 0.987656
vt 1.976220 1.999999
vt 0.002282 2.005332
vt 0.999994 0.392686
vt 1.999994 0.392686
vt 1.999994 1.870784
vt 0.999994 1.870784
vt -0.002765 -15.998549
vt -1.012168 1.328223
vt -5.985579 0.008622
vt -5.985579 1.328225
vt -1.000057 0.005898
vt -3.038461 3.011997
vt 3.004716 4.305631
vt -3.038458 4.305632
vt 3.004716 3.011996
vt 2.997858 1.014046
vt 2.997858 1.999999
vt 8.996007 1.836551
vt 9.994879 0.527507
vt 1.994630 -1.490770
vt 1.994630 -0.490770
vt 0.988494 -0.490770
vt -0.016356 -1.490770
vt 0.988494 -0.783948
vt -0.016355 -0.783948
vt 7.985325 1.833955
vt 4.958222 1.835837
vt 4.958222 0.518190
vt 7.985326 0.523737
vt 1.976220 1.014046
vt 0.002148 1.357622
vt 1.000006 1.357622
vt 1.000140 2.005332
vt -11.136975 1.739110
vt -5.121173 0.442340
vt 1.994913 2.040231
vt 0.972022 2.040231
vt 0.972025 1.492948
vt 1.994913 1.492948
vt 0.981434 0.594230
vt 1.981434 0.594230
vt 1.981434 2.233119
vt 0.981434 2.233119
vt 0.989836 1.002085
vt 1.989836 2.002085
vt 0.989836 2.002085
vt 1.989836 1.002085
vt 8.996005 0.525668
vt 9.994882 1.834315
vt 6.013061 0.025649
vt 3.992990 0.036549
vt 3.992990 0.036549
vt 4.999698 -0.976417
vt 3.992198 -0.972607
vt 3.992198 -0.972607
vt -0.002765 -15.998549
vt 0.005512 -14.991747
vt 1.001070 -14.992155
vt 0.998473 -15.999763
vt 5.002383 0.031105
vt 4.999701 -0.976627
vt 5.002382 0.031108
vt 6.010393 -0.979817
vt -5.121305 1.770215
vt -11.136836 0.430604
vt 6.992257 1.024658
vt 8.974895 1.004351
vt -0.002765 -15.998549
vt 0.005512 -14.991747
vt 1.001070 -14.992155
vt 0.998473 -15.999763
vt 6.991806 2.021826
vt 7.982165 2.021312
vt 6.992255 1.024523
vt 7.981983 0.987656
vt 2.984988 -4.001158
vt 8.972025 -4.001658
vt 2.988440 2.015872
vt 5.990194 1.014326
vt 6.013061 0.025650
vt 6.010393 -0.979817
vt 6.023380 1.014461
vt 5.989740 2.018452
vt 6.022940 2.018587
vt 6.991821 2.021961
vt 1.983267 3.771898
vt 2.990744 2.982217
vt 2.990011 3.771898
vt 3.992689 -0.346968
vn -0.299089 -0.905142 0.302100
vn -0.575455 -0.579211 0.577379
vn 0.000000 0.000000 1.000000
vn 0.000000 0.000000 1.000000
vn 0.000000 0.000000 1.000000
vn 0.000000 0.000000 1.000000
vn -0.576370 -0.578430 0.577249
vn -0.305174 0.300062 0.903787
vn -0.007093 0.999975 0.000000
vn -0.004222 0.999991 0.000000
vn -0.580154 0.574614 0.577270
vn -0.302255 0.904298 0.301475
vn -0.008410 0.708737 0.705423
vn 0.000000 0.000000 1.000000
vn 0.000000 0.000000 1.000000
vn 0.000000 0.000000 1.000000
vn 0.000000 0.000000 1.000000
vn 0.000000 0.000000 1.000000
vn 0.000000 0.000000 1.000000
vn 0.000000 0.000000 1.000000
vn 0.000000 0.000000 1.000000
vn 0.000000 0.000000 1.000000
vn 0.000002 -1.000000 0.000000
vn -0.000028 -1.000000 -0.000082
vn -0.582091 0.572168 0.577749
vn -0.581254 0.574211 0.576563
vn -0.007093 0.999975 0.000000
vn -0.005012 0.706671 0.707524
vn -0.008426 0.708562 0.705598
vn 0.000000 0.000000 1.000000
vn 0.000000 0.000000 1.000000
vn 0.000000 0.000000 1.000000
vn 0.000000 0.000000 1.000000
vn 0.000000 0.000000 1.000000
vn 0.000000 0.000000 1.000000
vn -0.004222 0.999991 0.000000
vn -0.000131 -1.000000 -0.000369
vn -0.000103 -1.000000 -0.000291
vn 0.999991 0.004325 0.000000
vn 0.699686 0.714451 0.000000
vn 0.296217 0.302467 0.905963
vn 0.574875 0.579809 0.577356
vn 0.167714 0.985836 0.000000
vn 0.573776 0.582564 0.575674
vn 0.999993 0.003788 -0.000059
vn -0.300652 -0.302612 0.904453
vn 0.000000 0.000000 1.000000
vn 0.000000 0.000000 1.000000
vn 0.000000 0.000000 1.000000
vn -0.577815 0.576887 0.577349
vn -0.301704 0.300360 0.904853
vn 0.301274 0.301766 0.904528
vn 0.999993 0.003795 0.000000
vn 0.874338 0.003317 0.485307
vn -0.999993 -0.003819 0.000000
vn -0.579925 0.574689 0.577425
vn -0.707424 -0.002703 0.706785
vn -0.709589 0.704615 0.000000
vn 0.302398 -0.301311 0.904305
vn 0.578329 -0.576268 0.577451
vn 0.576884 0.577814 0.577352
vn -0.299089 -0.905142 0.302100
vn -0.575442 -0.579217 0.577385
vn 0.000000 0.000000 1.000000
vn 0.000000 0.000000 1.000000
vn -0.576370 -0.578430 0.577249
vn -0.305174 0.300062 0.903787
vn -0.007093 0.999975 0.000000
vn -0.007093 0.999975 0.000000
vn -0.004222 0.999991 0.000000
vn -0.580154 0.574614 0.577270
vn -0.302255 0.904298 0.301475
vn -0.578713 0.576127 0.577207
vn -0.005251 0.999986 0.000000
vn 0.572600 0.582348 0.577062
vn 0.297734 0.302887 0.905325
vn 0.574374 0.580339 0.577323
vn 0.000000 0.000000 1.000000
vn 0.000000 0.000000 1.000000
vn 0.000000 0.000000 1.000000
vn 0.000000 0.000000 1.000000
vn 0.000000 0.000000 1.000000
vn 0.000000 0.000000 1.000000
vn 0.000000 0.000000 1.000000
vn 0.000000 0.000000 1.000000
vn 0.000000 0.000000 1.000000
vn 0.005248 -0.999986 0.000000
vn 0.005248 -0.999986 0.000000
vn 0.005248 -0.999986 0.000000
vn 0.005248 -0.999986 0.000000
vn -0.582083 0.572173 0.577752
vn -0.581254 0.574211 0.576563
vn 0.573324 0.580507 0.578197
vn 0.000000 0.000000 1.000000
vn 0.000000 0.000000 1.000000
vn 0.000000 0.000000 1.000000
vn 0.000000 0.000000 1.000000
vn -0.004222 0.999991 0.000000
vn 0.999991 0.004325 0.000000
vn 0.699686 0.714451 0.000000
vn 0.296217 0.302467 0.905963
vn 0.574875 0.579810 0.577356
vn 0.334645 0.942344 0.000000
vn 0.571742 0.584214 0.576025
vn 0.999949 0.010136 -0.000014
vn 0.000000 0.000000 1.000000
vn 0.000000 0.000000 1.000000
vn 0.000000 0.000000 1.000000
vn -0.577815 0.576887 0.577349
vn 0.999949 0.010137 0.000000
vn 0.850193 0.008618 0.526401
vn -0.997745 0.023120 0.063017
vn -0.999814 -0.019304 0.000012
vn -0.999202 0.007132 0.039291
vn -0.999919 -0.004104 0.012045
vn 0.000002 0.000004 1.000000
vn 0.578329 -0.576268 0.577451
vn 0.576884 0.577814 0.577352
vn -0.578729 0.576140 0.577179
vn -0.704825 -0.709381 0.000039
vn -0.000862 1.000000 -0.000026
vn 0.706531 0.707682 -0.000018
vn 0.708380 -0.705832 0.000039
vn -0.999893 -0.014598 0.000011
vn -0.999987 -0.005185 0.000011
vn -0.999987 -0.005185 0.000011
vn -0.999994 -0.003570 -0.000039
g fff017fc_00185_003a061f_e15
f 92/158/92 91/139/91 67/147/67
f 67/147/67 71/145/71 92/158/92
f 79/130/79 78/129/78 81/132/81
f 81/132/81 80/131/80 79/130/79
f 75/155/75 91/139/91 93/157/93
f 76/152/76 77/156/77 56/151/56
f 91/139/91 92/158/92 93/157/93
f 54/150/54 67/147/67 76/152/76
f 54/150/54 44/140/44 41/148/41
f 82/132/82 30/131/30 32/130/32
f 32/130/32 31/129/31 82/132/82
f 67/147/67 41/148/41 42/146/42
f 84/142/84 83/141/83 86/144/86
f 86/144/86 85/143/85 84/142/84
f 67/147/67 42/146/42 71/145/71
f 54/150/54 41/148/41 67/147/67
f 57/149/57 54/150/54 59/154/59
f 59/154/59 46/127/46 57/149/57
f 56/151/56 57/149/57 46/127/46
f 46/127/46 51/124/51 56/151/56
f 54/150/54 76/152/76 52/153/52
f 52/153/52 59/154/59 54/150/54
f 76/152/76 56/151/56 51/124/51
f 51/124/51 52/153/52 76/152/76
f 46/127/46 59/154/59 62/126/62
f 72/133/72 62/126/62 66/134/66
f 62/126/62 59/154/59 60/136/60
f 60/136/60 66/134/66 62/126/62
f 60/136/60 61/123/61 50/135/50
f 62/126/62 72/133/72 73/125/73
f 73/125/73 63/128/63 62/126/62
f 51/124/51 46/127/46 73/125/73
f 63/128/63 73/125/73 46/127/46
f 63/128/63 46/127/46 62/126/62
f 65/132/65 64/131/64 48/130/48
f 48/130/48 47/129/47 65/132/65
f 34/130/34 33/129/33 49/132/49
f 49/132/49 35/131/35 34/130/34
f 66/134/66 50/135/50 72/133/72
f 60/136/60 50/135/50 66/134/66
f 117/33/117 109/32/109 7/31/7
f 7/31/7 109/32/109 12/60/12
f 108/59/108 107/58/107 106/57/106
f 106/57/106 97/56/97 108/59/108
f 6/57/6 5/56/5 4/59/4
f 4/59/4 3/58/3 6/57/6
f 2/55/2 120/54/120 1/53/1
f 2/55/2 119/52/119 127/162/127
f 111/47/111 104/65/104 101/73/101
f 119/52/119 2/55/2 1/53/1
f 1/53/1 12/60/12 119/52/119
f 117/33/117 118/51/118 109/32/109
f 117/33/117 7/31/7 1/53/1
f 1/53/1 123/50/123 117/33/117
f 12/60/12 1/53/1 7/31/7
f 120/54/120 123/50/123 1/53/1
f 26/63/26 25/64/25 8/72/8
f 8/72/8 11/70/11 26/63/26
f 111/47/111 8/72/8 13/48/13
f 111/47/111 13/48/13 116/49/116
f 15/57/15 14/56/14 17/59/17
f 17/59/17 16/58/16 15/57/15
f 29/61/29 25/64/25 28/62/28
f 25/64/25 26/63/26 28/62/28
f 111/47/111 101/73/101 8/72/8
f 8/72/8 102/71/102 11/70/11
f 22/69/22 21/68/21 20/67/20
f 20/67/20 19/66/19 22/69/22
f 8/72/8 101/73/101 102/71/102
f 96/57/96 95/56/95 18/59/18
f 18/59/18 94/58/94 96/57/96
f 2/55/2 127/162/127 120/54/120
g fff017fc_00185_003a061f_e24
f 89/107/89 90/108/90 87/137/87
f 90/108/90 89/107/89 88/138/88
f 76/110/76 67/109/67 91/112/91
f 91/112/91 75/111/75 76/110/76
f 43/114/43 40/113/40 41/116/41
f 41/116/41 44/115/44 43/114/43
f 93/119/93 69/120/69 68/117/68
f 69/120/69 93/119/93 92/118/92
f 70/121/70 71/91/71 36/92/36
f 36/92/36 71/91/71 42/122/42
f 52/93/52 51/96/51 72/97/72
f 72/97/72 50/95/50 52/93/52
f 50/95/50 61/94/61 52/93/52
f 73/98/73 72/97/72 51/96/51
f 56/100/56 77/99/77 74/102/74
f 74/102/74 58/101/58 56/100/56
f 38/36/38 24/37/24 23/34/23
f 24/37/24 38/36/38 37/35/37
f 119/30/119 12/29/12 121/28/121
f 109/27/109 118/26/118 122/25/122
f 12/29/12 109/27/109 122/25/122
f 122/25/122 121/28/121 12/29/12
f 98/24/98 11/23/11 102/22/102
f 10/21/10 11/23/11 98/24/98
f 27/20/27 28/19/28 26/18/26
f 28/19/28 27/20/27 9/46/9
f 101/45/101 104/44/104 103/43/103
f 103/43/103 100/42/100 101/45/101
f 25/41/25 29/40/29 13/39/13
f 13/39/13 8/38/8 25/41/25
g fff017fc_00185_003a061f_e25
f 59/89/59 52/103/52 61/74/61
f 75/105/75 93/104/93 77/75/77
f 77/75/77 76/106/76 75/105/75
f 40/77/40 39/76/39 42/79/42
f 42/79/42 41/78/41 40/77/40
f 53/80/53 43/80/43 54/80/54
f 54/83/54 45/84/45 44/81/44
f 45/84/45 54/83/54 53/82/53
f 57/87/57 58/88/58 55/85/55
f 58/88/58 57/87/57 56/86/56
f 61/74/61 60/90/60 59/89/59
f 118/6/118 117/5/117 123/4/123
f 124/159/124 114/2/114 113/1/113
f 114/2/114 115/3/115 112/17/112
f 105/16/105 111/15/111 110/14/110
f 111/15/111 105/16/105 104/13/104
f 110/12/110 103/12/103 111/12/111
f 102/11/102 101/10/101 100/9/100
f 100/9/100 99/8/99 102/11/102
f 123/4/123 122/7/122 118/6/118
f 115/3/115 114/2/114 124/159/124
f 124/159/124 126/161/126 115/3/115
f 125/160/125 115/3/115 126/161/126
