# fff0120b_00076_0017f5eb
o fff0120b_00076_0017f5eb
v 0.644873 -8.914529 0.586596
v -0.617547 0.505555 1.820389
v -0.617527 0.214617 1.820389
v -0.617527 0.214617 1.424162
v -0.617547 0.505555 1.424162
v 0.010657 0.505543 1.424162
v 0.010647 0.214606 1.424162
v 0.010647 0.214606 1.820389
v 0.010657 0.505543 1.820389
v 1.177228 -8.897467 0.577033
v 0.976643 -8.996603 0.577033
v 1.038121 -8.616077 0.577033
v 0.837584 -8.715275 0.577033
v 1.177228 -8.897467 0.586970
v 1.038121 -8.616077 0.586970
v 0.859205 -8.704497 0.578811
v 1.170666 -8.890446 0.577590
v 0.997624 -8.952188 0.577590
v 0.899692 -8.677300 0.577590
v 1.072741 -8.615619 0.577590
v 1.152078 -8.861089 0.578345
v 0.987380 -8.942505 0.578345
v 0.858109 -8.680926 0.578345
v 1.022811 -8.599571 0.578345
v 0.934739 -9.010237 0.582541
v 0.998289 -8.985948 0.578242
v 0.777463 -8.855019 0.592776
v 0.756397 -8.827837 0.592776
v 0.665886 -8.941650 0.586596
v 0.926930 -9.004667 0.583098
v 0.769680 -9.099706 0.583098
v 0.618806 -8.849880 0.583098
v 0.776116 -8.754965 0.583098
v 0.902842 -8.979591 0.583850
v 0.757720 -9.092265 0.583850
v 0.757971 -9.147447 0.582541
v 0.565483 -8.899416 0.582541
v 0.742246 -8.762266 0.582541
v 0.934739 -9.010237 0.592479
v 0.742246 -8.762266 0.592479
v 0.777040 -9.132615 0.583751
v 0.584578 -8.884646 0.584315
v 0.578833 -8.861824 0.583850
v 0.723929 -8.749087 0.583850
vt 0.012676 8.033314
vt 0.012676 -0.060730
vt 0.982337 8.096039
vt 0.012676 7.705732
vt 0.982337 8.039430
vt -1.736992 9.887570
vt -1.733112 9.787951
vt 0.982337 8.033314
vt -1.126453 -61.759735
vt -1.122574 9.788203
vt 0.101916 -942.209656
vt 0.982337 8.675658
vt 0.982337 12.056554
vt 0.012676 12.056554
vt 0.012676 29.036650
vt 0.012676 -0.060730
vt 0.012676 5.963575
vt 0.982337 5.963575
vt -1.631855 5.763840
vt 2.032374 16.928923
vn -0.034551 -0.026769 0.999044
vn -0.577367 0.577338 0.577346
vn -0.577333 -0.577363 0.577355
vn -0.707088 -0.707125 0.000000
vn -0.707125 0.707089 0.000000
vn 0.707125 0.707089 0.000000
vn 0.707089 -0.707124 0.000000
vn 0.577336 -0.577364 0.577351
vn 0.577365 0.577336 0.577349
vn 0.000000 0.000000 1.000000
vn -0.022591 -0.012124 0.999671
vn 0.000000 0.000000 1.000000
vn -0.032949 -0.016286 0.999324
vn -0.039158 -0.019358 0.999046
vn -0.037026 -0.019590 0.999122
vn -0.050263 -0.025902 0.998400
vn 0.000000 0.000000 1.000000
vn 0.000000 0.000000 1.000000
vn 0.000000 0.000000 1.000000
vn 0.000000 0.000000 1.000000
vn 0.000000 0.000000 1.000000
vn 0.000000 0.000000 1.000000
vn 0.000000 0.000000 1.000000
vn 0.000000 0.000000 1.000000
vn 0.000000 0.000000 1.000000
vn -0.041016 -0.021644 0.998924
vn -0.034546 -0.026773 0.999044
vn -0.034546 -0.026772 0.999044
vn -0.034550 -0.026770 0.999044
vn 0.000000 0.000000 1.000000
vn 0.000000 0.000000 1.000000
vn 0.000000 0.000000 1.000000
vn 0.000000 0.000000 1.000000
vn 0.000000 0.000000 1.000000
vn 0.000000 0.000000 1.000000
vn -0.019674 -0.016351 0.999673
vn -0.028952 -0.022469 0.999328
vn 0.000000 0.000000 1.000000
vn -0.034506 -0.026786 0.999045
vn -0.032382 -0.026589 0.999122
vn -0.035850 -0.029374 0.998925
vn -0.044072 -0.035397 0.998401
vn 0.000000 0.000000 1.000000
vn 0.000000 0.000000 1.000000
g fff0120b_00076_0017f5eb_e4
f 4/14/4 7/17/7 8/18/8
f 8/18/8 3/13/3 4/14/4
g fff0120b_00076_0017f5eb_e3
f 6/20/6 2/14/2 9/15/9
f 2/15/2 6/16/6 5/20/5
g fff0120b_00076_0017f5eb_e10
f 18/6/18 17/9/17 20/10/20
f 20/10/20 19/7/19 18/6/18
f 22/6/22 21/9/21 24/10/24
f 24/10/24 23/7/23 22/6/22
f 29/4/29 27/2/27 28/3/28
f 1/5/1 29/4/29 28/3/28
f 31/1/31 30/2/30 33/3/33
f 33/3/33 32/8/32 31/1/31
f 35/1/35 34/2/34 44/3/44
f 44/3/44 43/8/43 35/1/35
g fff0120b_00076_0017f5eb_e1
f 9/20/9 8/18/8 7/17/7
f 7/17/7 6/16/6 9/20/9
f 5/15/5 4/14/4 3/13/3
f 3/13/3 2/12/2 5/15/5
g fff0120b_00076_0017f5eb_e13
f 16/19/16 13/7/13 11/6/11
f 26/11/26 16/19/16 11/6/11
f 42/5/42 37/8/37 36/1/36
f 41/4/41 42/5/42 36/1/36
g fff0120b_00076_0017f5eb_e17
f 11/6/11 10/9/10 12/10/12
f 12/10/12 13/7/13 11/6/11
f 36/1/36 25/2/25 38/3/38
f 38/3/38 37/8/37 36/1/36
g fff0120b_00076_0017f5eb_e18
f 26/11/26 14/9/14 15/10/15
f 16/19/16 26/11/26 15/10/15
f 41/4/41 39/2/39 40/3/40
f 42/5/42 41/4/41 40/3/40
g fff0120b_00076_0017f5eb_e0
f 3/13/3 8/18/8 9/20/9
f 9/20/9 2/12/2 3/13/3
