# fff089d2_00091_00257b7e
o fff089d2_00091_00257b7e
v -0.664881 0.178213 -0.041924
v 0.228386 0.851269 0.453578
v -0.770191 -0.214992 1.660107
v 0.123076 0.458064 2.155609
v -1.485365 -0.523809 1.767350
v -1.266918 -1.097286 1.796358
v -1.533682 -0.483217 0.861693
v -1.315172 -1.056821 0.890701
v -0.516897 -0.038153 0.894639
v 0.376782 0.636436 1.383505
vt 0.500000 0.500000
vt 0.500000 0.500000
vt 0.500000 0.500000
vt 0.500000 0.500000
vt 0.500000 0.500000
vt 0.500000 0.500000
vt 0.500000 0.500000
vt 0.500000 0.500000
vt 0.500000 0.500000
vt 0.500000 0.500000
vn -0.669861 0.693207 0.265989
vn -0.669577 0.693258 0.266572
vn -0.597332 0.801898 -0.012403
vn -0.597994 0.801413 -0.011876
vn -0.934530 -0.354259 0.033980
vn -0.934527 -0.354268 0.033973
vn -0.934525 -0.354273 0.033969
vn -0.934522 -0.354282 0.033963
vn -0.645492 0.749829 0.145245
vn -0.635985 0.764067 0.108280
g fff089d2_00091_00257b7e_e32
f 2/1/2 1/2/1 9/9/9
f 9/9/9 10/10/10 2/1/2
f 6/5/6 5/6/5 7/7/7
f 7/7/7 8/8/8 6/5/6
f 4/3/4 9/9/9 3/4/3
f 9/9/9 4/3/4 10/10/10
