# fff0ade4_00231_00388f97
o fff0ade4_00231_00388f97
v -8.626549 8.448062 0.818836
v -8.943667 8.211353 1.114730
v -8.761194 8.047203 0.931819
v -8.622010 8.455308 0.824769
v -8.627765 8.439672 0.821741
v -8.636721 8.452845 0.823020
v -8.581112 8.571599 0.175042
v -8.554057 8.546350 0.169546
v -8.541138 8.581742 0.155632
v -8.626549 8.448062 0.818836
v -8.934739 8.725077 1.150761
v -9.053693 8.417676 1.027773
v -8.626549 8.448062 0.818836
v -8.593805 8.587177 1.375981
v -8.963586 8.553049 1.260973
v -8.626549 8.448062 0.818836
v -8.134131 8.424427 1.214423
v -8.413942 8.707041 1.277346
v -8.626549 8.448062 0.818836
v -8.342390 8.078953 0.989714
v -8.274979 8.370310 1.175079
v -8.819081 8.256995 0.708923
v -8.584981 8.421091 0.481963
v -8.608045 8.513533 0.699492
v -8.572202 8.529764 0.514795
v -9.065557 8.272914 0.665088
v -8.841143 8.108644 0.537238
v -8.425425 8.586764 0.914286
v -8.738717 8.490544 0.755053
v -8.542658 8.482495 0.621997
v -8.412498 8.626594 0.551756
v -8.498034 8.604106 0.852444
v -8.533023 8.454727 0.733476
v -8.406351 8.628999 0.551811
v -8.414128 8.622459 0.555307
v -8.414042 8.632524 0.556228
v -8.607345 8.677924 0.186878
v -8.604456 8.655286 0.180343
v -8.594893 8.670133 0.161973
v -8.412498 8.626594 0.551756
v -8.344642 8.878786 0.764349
v -8.524243 8.752145 0.802953
v -8.412498 8.626594 0.551756
v -8.147884 8.691195 0.794475
v -8.360215 8.795480 0.864060
v -8.412498 8.626594 0.551756
v -8.054998 8.450472 0.595444
v -8.076622 8.696200 0.661774
v -8.412498 8.626594 0.551756
v -8.322123 8.332836 0.619506
v -8.145016 8.468001 0.632478
v -8.588061 8.587208 0.597589
v -8.530982 8.598043 0.373452
v -8.433028 8.655756 0.472256
v -8.484194 8.652534 0.363989
v -8.706748 8.677649 0.652769
v -8.702614 8.514273 0.547931
v -8.252649 8.634809 0.506348
v -8.474052 8.686748 0.547637
v -8.442841 8.617229 0.417997
v -4.023834 -0.189919 0.678001
v -4.239502 -0.455185 0.937828
v -4.135620 -0.551834 0.712807
v -4.018280 -0.185165 0.683365
v -4.024689 -0.197609 0.678806
v -4.031158 -0.186844 0.684715
v -4.118378 0.058601 0.172600
v -4.098297 0.038635 0.156559
v -4.088409 0.071480 0.150063
v -4.023834 -0.189919 0.678001
v -4.194275 -0.032028 1.076653
v -4.338776 -0.262421 0.936897
v -4.023834 -0.189919 0.678001
v -3.867188 -0.198456 1.152626
v -4.204590 -0.201233 1.135136
v -4.023834 -0.189919 0.678001
v -3.769623 -0.538216 0.672440
v -3.655823 -0.335327 0.870892
v -4.220459 -0.325584 0.590675
v -4.063690 -0.136787 0.389633
v -4.030396 -0.108116 0.591293
v -4.039490 -0.052940 0.436989
v -4.435944 -0.302368 0.614029
v -4.284912 -0.411507 0.424191
v -3.826172 -0.094955 0.740292
v -4.129364 -0.139908 0.660744
v -3.994171 -0.116737 0.507004
v -8.714142 6.970238 0.677418
v -8.855225 6.764519 1.026955
v -8.778687 6.621849 0.815857
v -8.708374 6.976524 0.680428
v -8.713989 6.962944 0.680145
v -8.720581 6.974388 0.684441
v -8.914795 7.077599 0.153645
v -8.895477 7.055656 0.139370
v -8.890411 7.086418 0.123661
v -8.714142 6.970238 0.677418
v -8.834930 7.210976 1.052044
v -8.973816 6.943825 0.998871
v -8.714142 6.970238 0.677418
v -8.483704 7.091133 1.104221
v -8.817200 7.061470 1.149456
v -8.714142 6.970238 0.677418
v -8.427551 6.649452 0.707645
v -8.306366 6.902657 0.828888
v -8.906158 6.804176 0.661560
v -8.805115 6.946785 0.396809
v -8.743378 7.027138 0.576622
v -8.782990 7.041237 0.417973
v -9.116394 6.818016 0.717556
v -8.986572 6.675255 0.534431
v -8.520630 7.090782 0.678722
v -8.825897 7.007149 0.668373
v -8.720337 7.000160 0.491566
v -5.722870 9.433540 0.556671
v -5.731263 9.427002 0.558033
v -5.731445 9.437065 0.558952
v -5.822571 9.482468 0.152157
v -5.818085 9.459831 0.146584
v -5.804078 9.474678 0.131317
v -5.728790 9.431137 0.555023
v -5.718262 9.683327 0.777939
v -5.901734 9.556686 0.768742
v -5.728790 9.431137 0.555023
v -5.536011 9.495735 0.857956
v -5.759094 9.600021 0.870220
v -5.728790 9.431137 0.555023
v -5.394775 9.255013 0.689751
v -5.432831 9.500740 0.748226
v -5.728790 9.431137 0.555023
v -5.659028 9.137383 0.643864
v -5.491333 9.272545 0.702225
v -5.910218 9.391747 0.553860
v -5.797089 9.402588 0.352139
v -5.728027 9.460297 0.472923
v -5.749451 9.457077 0.355103
v -6.039155 9.482194 0.576435
v -6.008026 9.318817 0.476250
v -5.562653 9.439354 0.552536
v -5.787171 9.491295 0.535110
v -5.723480 9.421776 0.417965
vt 0.975678 1.986637
vt 0.801905 1.986637
vt 0.801905 1.986637
vt 0.801905 0.556561
vt 0.801905 0.548691
vt 0.971316 0.507438
vt 1.002894 1.047323
vt 1.007012 1.987480
vt 1.748292 1.025204
vt 2.000000 -1.310246
vt 1.763299 -1.310246
vt 2.000000 -2.787136
vt 1.763299 -2.787136
vt 1.002894 1.047323
vt 1.007012 1.987480
vt 1.748292 1.025204
vt 0.801905 0.548691
vt 0.801905 1.986637
vt 0.801905 1.986637
vt 2.000000 -2.787136
vt 1.763299 -1.310246
vt 1.763299 -2.787136
vt 2.000000 -1.310246
vt 0.801905 0.556561
vt 0.975678 1.986637
vt 0.971316 0.507438
vt 1.002894 1.047323
vt 1.007012 1.987480
vt 1.748292 1.025204
vt 0.801905 0.548691
vt 0.801905 1.986637
vt 0.801905 1.986637
vt 2.000000 -2.787136
vt 1.763299 -1.310246
vt 1.763299 -2.787136
vt 2.000000 -1.310246
vt 0.801905 0.556561
vt 0.975678 1.986637
vt 0.971316 0.507438
vt 1.002894 1.047323
vt 1.007012 1.987480
vt 1.748292 1.025204
vt 0.801905 0.548691
vt 0.801905 1.986637
vt 0.801905 1.986637
vt 2.000000 -2.787136
vt 1.763299 -1.310246
vt 1.763299 -2.787136
vt 2.000000 -1.310246
vt 0.801905 0.556561
vt 0.975678 1.986637
vt 0.971316 0.507438
vn 0.693900 -0.030301 0.719434
vn 0.693900 -0.030301 0.719434
vn 0.693900 -0.030301 0.719434
vn 0.757227 0.618218 0.210747
vn 0.112493 -0.982568 -0.148003
vn -0.924369 0.380976 -0.019968
vn -0.853257 0.521033 0.021857
vn 0.501448 -0.861346 -0.081447
vn 0.764793 0.609888 0.207673
vn 0.414290 -0.471727 0.778356
vn 0.414290 -0.471727 0.778356
vn 0.414290 -0.471727 0.778356
vn 0.014464 -0.970310 0.241430
vn 0.014464 -0.970310 0.241430
vn 0.014464 -0.970310 0.241430
vn -0.504239 -0.630599 0.589989
vn -0.504239 -0.630599 0.589989
vn -0.504239 -0.630599 0.589989
vn -0.715942 -0.249257 0.652149
vn -0.715941 -0.249257 0.652149
vn -0.715941 -0.249257 0.652149
vn 0.734993 -0.592511 0.329721
vn 0.734993 -0.592511 0.329721
vn 0.734993 -0.592510 0.329721
vn 0.376032 -0.191833 0.906532
vn 0.376032 -0.191833 0.906532
vn 0.376032 -0.191833 0.906532
vn 0.149925 -0.948719 0.278306
vn 0.149925 -0.948719 0.278306
vn 0.149925 -0.948719 0.278306
vn 0.893500 -0.388564 0.225113
vn 0.893500 -0.388564 0.225113
vn 0.893500 -0.388564 0.225113
vn 0.898902 0.131511 -0.417947
vn -0.420832 -0.897025 0.135079
vn -0.483012 0.806729 0.340423
vn -0.349297 0.890450 0.291701
vn -0.067088 -0.996483 -0.050214
vn 0.898612 0.120378 -0.421906
vn 0.555460 -0.618237 0.556100
vn 0.555460 -0.618237 0.556100
vn 0.555460 -0.618237 0.556100
vn -0.248222 -0.834097 0.492614
vn -0.248222 -0.834097 0.492614
vn -0.248222 -0.834097 0.492614
vn -0.247965 -0.272744 0.929583
vn -0.247965 -0.272744 0.929582
vn -0.247965 -0.272744 0.929582
vn -0.195223 0.162988 0.967121
vn -0.195223 0.162988 0.967121
vn -0.195223 0.162988 0.967121
vn 0.451429 -0.889400 0.071965
vn 0.451429 -0.889400 0.071965
vn 0.451429 -0.889400 0.071965
vn 0.723689 -0.359650 0.589005
vn 0.723689 -0.359650 0.589005
vn 0.723689 -0.359650 0.589005
vn -0.124934 -0.886598 0.445349
vn -0.124934 -0.886598 0.445349
vn -0.124934 -0.886598 0.445349
vn 0.848111 -0.215407 0.484053
vn 0.848111 -0.215407 0.484053
vn 0.848111 -0.215407 0.484053
vn 0.825629 0.542451 0.155186
vn 0.005679 -0.910799 -0.412810
vn -0.872392 0.373066 0.315838
vn -0.783891 0.497510 0.371482
vn 0.406331 -0.810909 -0.421096
vn 0.831446 0.535438 0.148338
vn 0.563152 -0.657132 0.501036
vn 0.563152 -0.657132 0.501036
vn 0.563152 -0.657132 0.501036
vn 0.009320 -0.999735 -0.021059
vn 0.009320 -0.999735 -0.021059
vn 0.009320 -0.999735 -0.021059
vn -0.545210 -0.409612 0.731413
vn -0.545210 -0.409612 0.731413
vn -0.545210 -0.409612 0.731413
vn 0.752643 -0.657710 -0.030753
vn 0.752643 -0.657710 -0.030753
vn 0.752643 -0.657710 -0.030753
vn 0.577020 -0.419947 0.700494
vn 0.577020 -0.419947 0.700494
vn 0.577020 -0.419947 0.700494
vn 0.150832 -0.988424 -0.016332
vn 0.150832 -0.988424 -0.016332
vn 0.150832 -0.988424 -0.016331
vn 0.932948 -0.030294 0.358734
vn 0.932948 -0.030294 0.358734
vn 0.932948 -0.030294 0.358734
vn 0.774908 0.618813 -0.128791
vn 0.040721 -0.982437 -0.182099
vn -0.846292 0.380759 0.372575
vn -0.764178 0.520853 0.380451
vn 0.420172 -0.861290 -0.285719
vn 0.780762 0.610103 -0.134852
vn 0.704436 -0.471767 0.530289
vn 0.704436 -0.471767 0.530289
vn 0.704436 -0.471767 0.530289
vn 0.115152 -0.970314 0.212676
vn 0.115152 -0.970314 0.212676
vn 0.115152 -0.970314 0.212676
vn -0.373249 -0.249255 0.893620
vn -0.373249 -0.249255 0.893620
vn -0.373249 -0.249255 0.893620
vn 0.805459 -0.592534 -0.011762
vn 0.805459 -0.592534 -0.011762
vn 0.805459 -0.592534 -0.011762
vn 0.723897 -0.191797 0.662712
vn 0.723897 -0.191797 0.662712
vn 0.723897 -0.191797 0.662712
vn 0.253515 -0.948717 0.188857
vn 0.253515 -0.948717 0.188857
vn 0.253515 -0.948717 0.188857
vn 0.976335 0.132377 -0.171017
vn -0.439791 -0.897851 0.021164
vn -0.555995 0.805732 0.204121
vn -0.413502 0.890143 0.191474
vn -0.052077 -0.996472 -0.065809
vn 0.977211 0.120234 -0.174938
vn 0.392611 -0.618251 0.680898
vn 0.392611 -0.618251 0.680898
vn 0.392611 -0.618251 0.680898
vn -0.367285 -0.834082 0.411594
vn -0.367285 -0.834082 0.411594
vn -0.367285 -0.834082 0.411594
vn -0.480112 -0.272755 0.833725
vn -0.480112 -0.272755 0.833725
vn -0.480112 -0.272755 0.833725
vn -0.438902 0.163003 0.883626
vn -0.438902 0.163003 0.883626
vn -0.438902 0.163003 0.883626
vn 0.417406 -0.889421 0.186287
vn 0.417406 -0.889421 0.186287
vn 0.417406 -0.889421 0.186287
vn 0.546597 -0.359603 0.756252
vn 0.546597 -0.359603 0.756252
vn 0.546597 -0.359603 0.756252
vn -0.235984 -0.886588 0.397836
vn -0.235984 -0.886588 0.397836
vn -0.235984 -0.886588 0.397836
g fff0ade4_00231_00388f97_e11
f 22/7/22 23/8/23 24/9/24
f 25/7/25 26/8/26 27/9/27
f 28/7/28 29/8/29 30/9/30
f 52/7/52 53/8/53 54/9/54
f 55/7/55 56/8/56 57/9/57
f 58/7/58 59/8/59 60/9/60
f 79/14/79 80/15/80 81/16/81
f 82/14/82 83/15/83 84/16/84
f 85/14/85 86/15/86 87/16/87
f 133/40/133 134/41/134 135/42/135
f 136/40/136 137/41/137 138/42/138
f 139/40/139 140/41/140 141/42/141
f 106/27/106 107/28/107 108/29/108
f 109/27/109 110/28/110 111/29/111
f 112/27/112 113/28/113 114/29/114
g fff0ade4_00231_00388f97_e10
f 1/7/1 2/8/2 3/9/3
f 10/7/10 11/8/11 12/9/12
f 13/7/13 14/8/14 15/9/15
f 16/7/16 17/8/17 18/9/18
f 19/7/19 20/8/20 21/9/21
f 31/7/31 32/8/32 33/9/33
f 40/7/40 41/8/41 42/9/42
f 43/7/43 44/8/44 45/9/45
f 46/7/46 47/8/47 48/9/48
f 49/7/49 50/8/50 51/9/51
f 61/14/61 62/15/62 63/16/63
f 70/14/70 71/15/71 72/16/72
f 73/14/73 74/15/74 75/16/75
f 76/14/76 77/15/77 78/16/78
f 121/40/121 122/41/122 123/42/123
f 124/40/124 125/41/125 126/42/126
f 127/40/127 128/41/128 129/42/129
f 130/40/130 131/41/131 132/42/132
f 88/27/88 89/28/89 90/29/90
f 97/27/97 98/28/98 99/29/99
f 100/27/100 101/28/101 102/29/102
f 103/27/103 104/28/104 105/29/105
g fff0ade4_00231_00388f97_e12
f 8/5/8 5/2/5 6/3/6
f 4/12/4 7/11/7 6/13/6
f 7/11/7 4/12/4 9/10/9
f 7/4/7 8/5/8 6/3/6
f 8/5/8 4/1/4 5/2/5
f 9/6/9 4/1/4 8/5/8
f 38/5/38 35/2/35 36/3/36
f 34/12/34 37/11/37 36/13/36
f 37/11/37 34/12/34 39/10/39
f 37/4/37 38/5/38 36/3/36
f 38/5/38 34/1/34 35/2/35
f 39/6/39 34/1/34 38/5/38
f 68/17/68 65/18/65 66/19/66
f 64/20/64 67/21/67 66/22/66
f 67/21/67 64/20/64 69/23/69
f 67/24/67 68/17/68 66/19/66
f 68/17/68 64/25/64 65/18/65
f 69/26/69 64/25/64 68/17/68
f 119/43/119 116/44/116 117/45/117
f 115/46/115 118/47/118 117/48/117
f 118/47/118 115/46/115 120/49/120
f 118/50/118 119/43/119 117/45/117
f 119/43/119 115/51/115 116/44/116
f 120/52/120 115/51/115 119/43/119
f 95/30/95 92/31/92 93/32/93
f 91/33/91 94/34/94 93/35/93
f 94/34/94 91/33/91 96/36/96
f 94/37/94 95/30/95 93/32/93
f 95/30/95 91/38/91 92/31/92
f 96/39/96 91/38/91 95/30/95
