# fff08519_00043_000e3690
o fff08519_00043_000e3690
v -1.187411 8.551746 1.332487
v -1.840612 2.471130 1.613529
v -0.583722 2.689812 1.587123
v 0.497029 6.065286 1.546202
v -2.094555 4.360977 1.424331
v -1.291670 6.328112 1.395262
v -0.761943 9.862009 1.356233
v -0.960019 6.496836 1.347044
v 0.269373 10.443158 1.541119
v 0.523260 9.992486 1.445396
vt 0.985965 0.813073
vt 0.985965 0.813072
vt 0.985960 0.813065
vt 0.985958 0.813067
vt 0.985964 0.813074
vt 0.985963 0.813073
vt 0.985961 0.813068
vt 0.985961 0.813070
vt 0.985961 0.813071
vt 0.985959 0.813070
vn -0.098763 0.007465 0.995083
vn 0.003491 0.100078 0.994973
vn -0.034106 0.069045 0.997030
vn -0.092599 0.039383 0.994924
vn -0.047648 0.054082 0.997399
vn -0.062845 0.116560 0.991193
vn -0.202396 0.047995 0.978127
vn -0.081068 0.178802 0.980540
vn 0.003624 -0.112397 0.993657
vn 0.021687 -0.103679 0.994374
g fff08519_00043_000e3690_e0
f 4/7/4 1/6/1 8/8/8
f 9/1/9 1/6/1 10/2/10
f 4/7/4 6/9/6 3/3/3
f 4/7/4 8/8/8 6/9/6
f 9/1/9 7/5/7 1/6/1
f 6/9/6 5/10/5 3/3/3
f 5/10/5 2/4/2 3/3/3
f 10/2/10 1/6/1 4/7/4
