# fff0a81b_00765_010758be
o fff0a81b_00765_010758be
v -8.490517 -2.148878 -4.366515
v -8.490517 -2.222029 1.327297
v 9.051292 11.455275 0.397609
v -8.490334 11.455301 0.397609
v -9.064201 -2.224575 4.369464
v -8.490334 11.455301 -4.366517
v 9.051292 11.455275 -4.366517
v -9.061935 -2.222021 1.327986
v -8.490334 11.455301 1.327295
v 9.051292 11.455275 1.327295
v -9.065163 11.887064 4.369462
v -9.064247 -2.224566 3.124963
v -9.064644 11.884592 3.124961
v -4.386269 11.869349 4.369462
v 9.051292 11.870003 3.124961
v -4.387169 11.868200 3.124961
v 9.051292 11.865284 4.369462
v 9.051292 11.884661 1.327339
v -9.063545 11.879374 1.327339
v -9.064995 -11.482141 3.124963
v -9.064949 -11.482149 4.369464
v -9.064949 -11.482149 4.098293
v 9.065163 -11.887064 -4.369464
v -8.550117 -10.999228 -4.366517
v -8.550133 -10.999228 1.327295
v -9.062363 -11.482113 1.327340
vt 0.000000 0.000000
vt 0.000000 0.000000
vt 0.000000 0.000000
vt 0.000000 0.000000
vt 0.000000 0.000000
vt 0.000000 0.000000
vt 0.000000 0.000000
vt 0.000000 0.000000
vt 0.000000 0.000000
vt 0.000000 0.000000
vt 0.000000 0.000000
vt 0.000000 0.000000
vt 0.000000 0.000000
vt 0.000000 0.000000
vt 0.000000 0.000000
vt 0.000000 0.000000
vt 0.000000 0.000000
vt 0.000000 0.000000
vt 0.000000 0.000000
vt 0.000000 0.000000
vt 0.000000 0.000000
vt 0.000000 0.000000
vt 0.000000 0.000000
vt 0.000000 0.000000
vt 0.000000 0.000000
vt 0.000000 0.000000
vt 0.000000 0.000000
vt 0.000000 0.000000
vt 0.000000 0.000000
vt 0.000000 0.000000
vt 0.000000 0.000000
vt 0.000000 0.000000
vt 0.000000 0.000000
vt 0.000000 0.000000
vt 0.000000 0.000000
vt 0.000000 0.000000
vt 0.000000 0.000000
vn 0.706360 -0.002364 0.707849
vn 0.708291 -0.002437 0.705916
vn -0.000002 -1.000000 0.000000
vn 0.707102 -0.707112 -0.000000
vn 1.000000 -0.000006 -0.000036
vn 0.577346 -0.577354 0.577351
vn 0.000047 -0.706992 0.707222
vn 0.707074 -0.000039 0.707140
vn 0.301559 -0.301539 0.904509
vn -0.000001 -0.707143 0.707071
vn 0.705423 -0.708784 0.001684
vn 1.000000 -0.000017 0.000631
vn 0.705767 -0.708441 0.002052
vn -0.001926 -0.999998 0.001012
vn 0.000134 -0.999982 -0.005973
vn -0.001025 -0.999996 -0.002543
vn 0.000108 -0.999994 -0.003515
vn 0.000105 -0.710050 0.704151
vn 0.576758 -0.577348 0.577944
vn 1.000000 -0.000066 0.000698
vn 1.000000 -0.000081 0.000000
vn 1.000000 -0.000081 -0.000024
vn 0.000161 -0.000126 1.000000
vn 0.697386 -0.004775 0.716680
vn 0.558454 -0.003793 0.829527
vn 0.887154 -0.000044 0.461474
g fff0a81b_00765_010758be_e5
f 8/33/8 13/7/13 12/8/12
f 13/25/13 19/22/19 16/29/16
f 8/33/8 19/21/19 13/7/13
f 16/29/16 19/22/19 18/20/18
f 26/32/26 8/31/8 20/34/20
f 18/20/18 15/28/15 16/29/16
f 12/35/12 20/34/20 8/31/8
g fff0a81b_00765_010758be_e6
f 17/30/17 16/29/16 15/28/15
f 22/15/22 5/14/5 21/27/21
f 16/29/16 14/26/14 13/25/13
f 4/13/4 2/12/2 1/11/1
f 6/3/6 7/10/7 3/9/3
f 5/14/5 22/15/22 12/35/12
f 2/13/2 25/12/25 24/11/24
f 24/11/24 1/3/1 2/13/2
f 4/13/4 9/18/9 2/17/2
f 9/18/9 4/13/4 3/9/3
f 1/11/1 6/3/6 4/13/4
f 20/34/20 12/35/12 22/15/22
f 3/9/3 4/13/4 6/3/6
f 3/9/3 10/19/10 9/18/9
f 11/24/11 12/8/12 13/7/13
f 11/24/11 5/6/5 12/8/12
f 13/25/13 14/26/14 11/23/11
f 17/30/17 14/26/14 16/29/16
g fff0a81b_00765_010758be_e9
f 10/19/10 19/5/19 9/18/9
f 8/4/8 9/18/9 19/5/19
f 2/18/2 26/4/26 25/17/25
f 9/18/9 8/4/8 2/17/2
f 24/1/24 7/1/7 1/1/1
f 19/5/19 10/19/10 18/16/18
f 1/1/1 7/1/7 6/1/6
f 26/4/26 2/18/2 8/5/8
f 24/2/24 23/37/23 7/36/7
