# fff0aa7b_00291_00731f45
o fff0aa7b_00291_00731f45
v -0.147509 -1.197962 0.276033
v 0.075318 -1.197963 0.272499
v -0.147510 1.181272 0.276034
v 0.075317 1.181271 0.272500
v -0.150456 -1.197990 0.709300
v 0.072387 -1.197985 0.705766
v -0.150558 1.181250 0.702220
v 0.072122 1.181248 0.689736
v -0.312853 -1.197965 0.085427
v 0.234531 -1.197963 0.076747
v -0.312848 1.181264 0.085427
v 0.234531 1.181271 0.076747
v -0.312849 0.639388 0.085427
v 0.234530 0.639384 0.076748
v -0.312852 0.175225 0.085427
v 0.234532 0.175227 0.076747
v -0.312847 -0.245425 0.085426
v 0.234526 -0.245423 0.076748
v 0.234527 -0.690683 0.076747
v -0.312852 -0.690690 0.085427
v -0.313921 -1.197965 0.019352
v 0.233463 -1.197964 0.010673
v -0.313866 1.181272 0.022891
v 0.233473 1.181270 0.010671
v -0.313923 0.639394 0.019352
v 0.233466 0.639389 0.010673
v -0.313920 0.175237 0.019352
v 0.233464 0.175226 0.010672
v -0.313915 -0.245413 0.019351
v 0.233469 -0.245424 0.010672
v 0.233469 -0.690683 0.010672
v -0.313921 -0.690678 0.019352
v -0.150453 -0.035113 0.709300
v 0.072385 -0.035114 0.705767
v 0.075316 -0.035092 0.272499
v -0.087021 -1.115245 0.708451
v 0.008969 -1.115244 0.706928
v -0.087018 -0.998113 0.708451
v 0.008973 -0.998113 0.706928
v -0.089634 1.007992 0.702744
v 0.011400 1.007986 0.701140
v -0.089635 1.131273 0.702743
v 0.011405 1.131273 0.701140
v 0.082199 -0.945165 0.517961
v 0.080641 -0.945162 0.419813
v 0.082196 -0.825420 0.517956
v 0.080632 -0.825411 0.419822
v 0.082206 0.757016 0.517961
v 0.080636 0.757019 0.419814
v 0.082197 0.876767 0.517956
v 0.080628 0.876770 0.419824
v -0.551052 -1.417260 0.010675
v 0.360404 -1.417255 0.010675
v -0.551146 1.376508 0.010677
v 0.360288 1.376506 0.010677
v 0.236561 -1.200887 0.010675
v 0.233017 1.182940 0.010677
v -0.318326 1.176425 0.010677
v -0.309606 -1.194163 0.010675
v 0.075317 1.181271 0.272500
v -0.150558 1.181250 0.702220
v 0.072122 1.181248 0.689736
v 0.234531 1.181271 0.076747
v 0.233473 1.181270 0.010671
vt 1.006859 0.004314
vt 1.006859 0.998297
vt 1.996595 0.998297
vt 1.996595 0.004314
vt 1.006859 0.001105
vt 1.006859 1.007885
vt 1.996595 1.007885
vt 1.996595 0.001105
vt 0.743016 0.000000
vt 0.000000 0.000000
vt 0.000000 1.000000
vt 0.743016 1.000000
vt 0.736359 1.000000
vt 0.211323 0.000151
vt 0.000779 1.001982
vt 0.000779 0.000301
vt 0.591062 0.000000
vt 0.736383 0.000000
vt 0.000000 1.000000
vt 0.000000 0.000000
vt 0.744718 -0.000397
vt 0.744718 1.000001
vt -0.000488 1.000000
vt -0.000488 0.000000
vt 1.000777 0.198784
vt 0.755458 0.198784
vt 0.755458 0.387977
vt 0.999600 0.092715
vt 0.754281 0.092715
vt 1.000777 0.387977
vt 0.755458 1.000701
vt 1.000777 1.000458
vt 0.760831 0.175964
vt 0.997750 0.175972
vt 0.997748 0.000071
vt -0.025026 0.000055
vt -0.201825 0.000000
vt -0.201824 0.155551
vt -0.008754 0.000067
vt -0.221965 0.000000
vt -0.221963 0.099814
vt -0.025025 0.155551
vt -0.008752 0.099857
vt 0.760831 0.000000
vt -0.240366 0.148433
vt -0.000784 0.153732
vt -0.000787 0.014102
vt -0.240379 0.008803
vt -0.000787 0.014102
vt -0.000784 0.153732
vt -0.240366 0.148433
vt -0.240379 0.008803
vt -0.240366 0.148433
vt -0.000784 0.153732
vt -0.000787 0.014102
vt -0.240379 0.008803
vt -0.240379 0.008803
vt -0.000787 0.014102
vt -0.000784 0.153732
vt -0.240366 0.148433
vt 0.057676 0.135834
vt 0.693120 0.139304
vt 0.691383 0.744463
vt 0.059469 0.735058
vn -0.000005 -1.000000 -0.000016
vn 0.577154 -0.789897 0.207258
vn -0.000004 1.000000 0.000006
vn 0.940992 -0.000001 0.338428
vn 0.011305 -0.701975 0.712112
vn 0.579371 -0.578558 0.574109
vn 0.055973 0.005817 0.998415
vn 0.725290 0.004607 0.688428
vn 0.000002 -1.000000 0.000006
vn 0.728015 -0.637537 0.252073
vn -0.000002 1.000000 0.000071
vn 0.944934 -0.000006 0.327262
vn -0.000010 -1.000000 -0.000087
vn 0.847581 -0.332154 0.413860
vn 0.000020 1.000000 0.000162
vn 0.847587 0.332137 0.413862
vn -0.000000 -1.000000 -0.000177
vn 0.847563 -0.332162 0.413891
vn 0.847567 0.332156 0.413886
vn 0.000010 1.000000 0.000163
vn 0.000003 -1.000000 0.000004
vn 0.706946 -0.707175 -0.011419
vn 0.000007 1.000000 0.000139
vn 0.999872 -0.000012 -0.016007
vn -0.000010 -1.000000 -0.000087
vn 0.706977 -0.707144 -0.011430
vn 0.000022 1.000000 0.000176
vn 0.706941 0.707181 -0.011427
vn -0.000002 -1.000000 -0.000163
vn 0.706969 -0.707153 -0.011325
vn 0.706983 0.707140 -0.011313
vn 0.000012 1.000000 0.000177
vn 0.018172 0.006166 0.999816
vn 0.708874 0.004724 0.705320
vn 0.941129 0.000062 0.338047
vn 0.015862 0.000001 0.999874
vn 0.015862 0.000001 0.999874
vn 0.015862 0.000001 0.999874
vn 0.015862 0.000001 0.999874
vn 0.015862 0.000004 0.999874
vn 0.015865 0.000001 0.999874
vn 0.015859 0.000006 0.999874
vn 0.015862 0.000004 0.999874
vn 0.999874 0.000053 -0.015900
vn 0.999874 0.000073 -0.015876
vn 0.999873 0.000028 -0.015931
vn 0.999874 0.000048 -0.015907
vn 0.999872 0.000073 -0.015987
vn 0.999872 0.000073 -0.015986
vn 0.999872 0.000073 -0.015987
vn 0.999872 0.000073 -0.015987
vn -0.000000 -0.000000 1.000000
vn -0.000000 -0.000000 1.000000
vn -0.000000 -0.000000 1.000000
vn -0.000000 -0.000000 1.000000
vn -0.000000 -0.000000 1.000000
vn -0.000000 -0.000000 1.000000
vn -0.000000 -0.000000 1.000000
vn -0.000000 -0.000000 1.000000
vn 0.000005 1.000000 0.000022
vn 0.000010 1.000000 0.000054
vn 0.000012 1.000000 0.000055
vn -0.000011 1.000000 -0.000011
vn -0.000012 1.000000 0.000002
g fff0aa7b_00291_00731f45_e0
f 36/1/36 37/2/37 39/3/39
f 39/3/39 38/4/38 36/1/36
f 47/3/47 46/4/46 44/1/44
f 44/1/44 45/2/45 47/3/47
f 40/5/40 41/6/41 43/7/43
f 43/7/43 42/8/42 40/5/40
f 48/1/48 49/2/49 51/3/51
f 51/3/51 50/4/50 48/1/48
g fff0aa7b_00291_00731f45_e1
f 63/25/63 11/26/11 3/27/3
f 18/17/18 35/13/35 19/14/19
f 64/28/64 23/29/23 11/26/11
f 35/13/35 14/14/14 4/15/4
f 61/31/61 62/32/62 60/30/60
f 19/14/19 2/15/2 10/16/10
f 2/15/2 19/14/19 35/13/35
f 14/14/14 12/16/12 4/15/4
f 35/13/35 18/17/18 16/18/16
f 3/27/3 60/30/60 63/25/63
f 34/21/34 8/24/8 33/22/33
f 7/23/7 33/22/33 8/24/8
f 34/21/34 33/22/33 5/19/5
f 5/19/5 6/20/6 34/21/34
f 35/13/35 16/18/16 14/14/14
f 11/26/11 63/25/63 64/28/64
f 60/30/60 3/27/3 61/31/61
g fff0aa7b_00291_00731f45_e2
f 34/12/34 35/9/35 8/11/8
f 35/9/35 34/12/34 2/10/2
f 34/12/34 6/11/6 2/10/2
f 35/9/35 4/10/4 8/11/8
g fff0aa7b_00291_00731f45_e3
f 2/30/2 5/31/5 1/27/1
f 21/29/21 22/28/22 10/25/10
f 2/30/2 1/27/1 9/26/9
f 9/26/9 10/25/10 2/30/2
f 5/31/5 2/30/2 6/32/6
f 10/25/10 9/26/9 21/29/21
f 12/35/12 14/44/14 26/33/26
f 22/41/22 31/43/31 19/39/19
f 30/38/30 28/42/28 16/36/16
f 19/39/19 10/40/10 22/41/22
f 16/36/16 18/37/18 30/38/30
f 26/33/26 24/34/24 12/35/12
g fff0aa7b_00291_00731f45_e4
f 18/59/18 17/60/17 29/57/29
f 29/57/29 30/58/30 18/59/18
f 31/55/31 32/56/32 20/53/20
f 20/53/20 19/54/19 31/55/31
f 28/47/28 27/52/27 15/45/15
f 14/50/14 13/51/13 25/48/25
f 25/48/25 26/49/26 14/50/14
f 15/45/15 16/46/16 28/47/28
g fff0aa7b_00291_00731f45_e5
f 55/21/55 54/22/54 57/62/57
f 52/19/52 53/20/53 56/61/56
f 56/61/56 53/20/53 55/21/55
f 57/62/57 56/61/56 55/21/55
f 57/62/57 54/22/54 58/63/58
f 56/61/56 57/62/57 59/64/59
f 58/63/58 54/22/54 52/19/52
f 59/64/59 58/63/58 52/19/52
f 59/64/59 57/62/57 58/63/58
f 56/61/56 59/64/59 52/19/52
