# fff0ac50_00069_00b3f379
o fff0ac50_00069_00b3f379
v -6.101416 -0.348595 0.000000
v 6.036966 -0.348595 0.000000
v -6.101416 0.348595 0.000000
v 6.036966 0.348595 0.000000
v -6.101416 0.001720 0.150000
v 6.036966 0.001720 0.150000
vt 0.000000 0.000000
vt 1.000000 0.000000
vt 0.000000 1.000000
vt 1.000000 1.000000
vt 0.000000 0.000000
vt 1.000000 0.000000
vt 0.000000 1.000000
vt 1.000000 1.000000
vn -0.249415 -0.381180 0.890221
vn 0.249415 -0.381180 0.890221
vn -0.251485 0.384155 0.888358
vn 0.251485 0.384155 0.888358
vn -0.628022 0.001394 0.778194
vn 0.628022 0.001394 0.778194
g fff0ac50_00069_00b3f379_e0
f 4/1/4 3/1/3 5/1/5
f 6/1/6 4/1/4 5/1/5
f 4/2/4 6/3/6 2/1/2
f 3/1/3 1/2/1 5/4/5
f 1/5/1 2/6/2 6/8/6
f 6/8/6 5/7/5 1/5/1
