# fff06058_00076_001d192a
o fff06058_00076_001d192a
v -2.031937 0.012753 0.006233
v -0.031937 0.012753 0.006233
v -0.031937 -1.778347 0.006248
v -2.031937 -1.778347 1.977196
v -2.031937 1.896847 0.006233
v -0.031937 1.896847 0.006233
v -0.031937 1.896847 1.977180
v -2.031937 1.896847 1.977180
v -2.031937 0.105755 0.006264
v -0.031937 0.105747 1.977196
v -0.031937 0.105747 0.006248
v -2.031937 0.105747 1.977196
v -0.031937 0.012753 1.977180
v -2.031937 0.012753 1.977180
v -2.031937 -1.778339 0.006264
v -0.031937 -1.778347 1.977196
v 0.031937 0.012753 -1.965202
v 2.031937 0.012753 -1.965202
v 2.031937 -1.778347 -1.965187
v 0.031937 -1.778347 0.005760
v 0.031937 1.896847 -1.965202
v 2.031937 1.896847 -1.965202
v 2.031937 1.896847 0.005745
v 0.031937 1.896847 0.005745
v 0.031937 0.105755 -1.965172
v 2.031937 0.105747 0.005760
v 2.031937 0.105747 -1.965187
v 0.031937 0.105747 0.005760
v 2.031937 0.012753 0.005745
v 0.031937 0.012753 0.005745
v 0.031937 -1.778339 -1.965172
v 2.031937 -1.778347 0.005760
v -2.031937 1.896847 -1.975151
v -0.031937 1.896847 -1.975151
v -0.031937 1.896847 -0.004204
v -2.031937 1.896847 -0.004204
v -2.031937 0.105755 -1.975121
v -0.031937 0.105747 -0.004189
v -0.031937 0.105747 -1.975136
v -2.031937 0.105747 -0.004189
v -2.031937 -0.105747 -1.977196
v -0.031937 -0.105747 -1.977196
v -0.031937 -1.896847 -1.977180
v -2.031937 -1.896847 -0.006233
v -0.031937 -0.105747 -0.006248
v -2.031937 -0.105747 -0.006248
v -2.031937 -1.896839 -1.977165
v -0.031937 -1.896847 -0.006233
v -0.031906 -1.157475 -3.935295
v -0.031906 -2.948574 -3.935280
v -2.031906 -2.948574 -1.964333
v -0.031906 -1.157475 -1.964348
v -2.031906 -1.157475 -1.964348
v -2.031906 -2.948566 -3.935265
v -0.031906 -2.948574 -1.964333
v 0.031937 3.762112 -1.965202
v 2.031937 3.762112 -1.965202
v 2.031937 3.762112 0.005745
v 0.031937 3.762112 0.005745
v 0.031937 1.971020 -1.965172
v 2.031937 1.971012 0.005760
v 2.031937 1.971012 -1.965187
v 0.031937 1.971012 0.005760
v -2.059433 3.762112 -1.965202
v -0.059433 3.762112 -1.965202
v -0.059433 3.762112 0.005745
v -2.059433 3.762112 0.005745
v -2.059433 1.971020 -1.965172
v -0.059433 1.971012 0.005760
v -0.059433 1.971012 -1.965187
v -2.059433 1.971012 0.005760
v 0.031937 5.535824 -3.937401
v 2.031937 5.535824 -3.937401
v 2.031937 5.535824 -1.966454
v 0.031937 5.535824 -1.966454
v 0.031937 3.744732 -3.937370
v 2.031937 3.744724 -1.966438
v 2.031937 3.744724 -3.937386
v 0.031937 3.744724 -1.966438
v -2.059433 5.598904 -1.965202
v -0.059433 5.598904 -1.965202
v -0.059433 5.598904 0.005745
v -2.059433 5.598904 0.005745
v -2.059433 3.807812 -1.965172
v -0.059433 3.807804 0.005760
v -0.059433 3.807804 -1.965187
v -2.059433 3.807804 0.005760
v -0.059433 5.598904 -3.947014
v -0.059433 5.598904 -1.976067
v -0.059433 3.807804 -1.976051
v -0.059433 3.807804 -3.946999
v 0.031937 7.391781 -3.937401
v 2.031937 7.391781 -3.937401
v 2.031937 7.391781 -1.966454
v 0.031937 7.391781 -1.966454
v 0.031937 5.600689 -3.937370
v 2.031937 5.600681 -1.966438
v 2.031937 5.600681 -3.937386
v 0.031937 5.600681 -1.966438
v -2.059433 7.436581 -1.965202
v -0.059433 7.436581 -1.965202
v -0.059433 7.436581 0.005745
v -2.059433 7.436581 0.005745
v -2.059433 5.645489 -1.965172
v -0.059433 5.645481 0.005760
v -0.059433 5.645481 -1.965187
v -2.059433 5.645481 0.005760
v -0.059433 7.436581 -3.947014
v -0.059433 7.436581 -1.976067
v -0.059433 5.645481 -1.976051
v -0.059433 5.645481 -3.946999
v 0.031937 9.278927 -1.965202
v 2.031937 9.278927 -1.965202
v 2.031937 9.278927 0.005745
v 0.031937 9.278927 0.005745
v 0.031937 7.487835 -1.965172
v 2.031937 7.487827 0.005760
v 2.031937 7.487827 -1.965187
v 0.031937 7.487827 0.005760
v -2.059433 9.278927 -1.965202
v -0.059433 9.278927 -1.965202
v -0.059433 9.278927 0.005745
v -2.059433 9.278927 0.005745
v -2.059433 7.487835 -1.965172
v -0.059433 7.487827 0.005760
v -0.059433 7.487827 -1.965187
v -2.059433 7.487827 0.005760
v -1.906916 8.820580 -0.012524
v -0.592860 8.820580 -0.012524
v -0.592860 8.820580 1.282443
v -1.906916 8.820580 1.282443
v -1.906916 7.643783 -0.012504
v -0.592860 7.643778 1.282453
v -0.592860 7.643778 -0.012514
v -1.906916 7.643778 1.282453
v -0.348476 9.020066 0.005752
v -1.989528 9.020066 0.005752
v -0.348476 7.561132 0.005762
v -1.989528 7.561132 0.005762
v -0.593931 8.832675 0.005754
v -1.899688 8.832675 0.005754
v -0.593931 7.655746 0.005763
v -1.899688 7.655746 0.005763
v 0.031784 9.278927 -3.939049
v 2.031784 9.278927 -3.939049
v 2.031799 9.278931 -1.965210
v 0.031799 9.278931 -1.965210
v -2.059586 9.278927 -3.939049
v -0.059586 9.278927 -3.939049
v -0.059570 9.278931 -1.965210
v -2.059570 9.278931 -1.965210
vt 1.001818 0.502888
vt 1.495108 0.502888
vt 1.495108 -0.001373
vt 1.001818 -0.001373
vt 0.489457 0.513034
vt 0.007471 0.513034
vt 0.007471 1.000000
vt 0.489457 1.000000
vt 0.995019 0.510543
vt 0.508053 0.997510
vt 0.508053 0.510543
vt 0.995019 0.997510
vt 0.995019 0.997510
vt 0.508053 0.510543
vt 0.508053 0.997510
vt 0.995019 0.510543
vt 0.489457 1.000000
vt 0.007471 1.000000
vt 0.007471 0.513034
vt 0.489457 0.513034
vt 1.001818 -0.001373
vt 1.495108 -0.001373
vt 1.495108 0.502888
vt 1.001818 0.502888
vt 1.001818 -0.001373
vt 1.495108 -0.001373
vt 1.495108 0.502888
vt 1.001818 0.502888
vt 1.073111 0.430012
vt 1.073111 0.016252
vt 1.474919 0.430012
vt 1.474919 0.016252
vt 1.124721 0.368125
vt 1.124721 0.038903
vt 1.448861 0.368125
vt 1.448861 0.038903
vn 0.000000 1.000000 0.000000
vn 0.707105 0.707109 0.000000
vn 0.707110 -0.707104 -0.000001
vn -0.000001 -0.707104 0.707109
vn 0.000000 1.000000 0.000000
vn 0.707105 0.707109 0.000000
vn 0.577351 0.577353 0.577348
vn 0.000000 0.707110 0.707104
vn -0.000004 -1.000000 -0.000004
vn 0.577350 -0.577348 0.577353
vn 0.707110 -0.707104 -0.000001
vn -0.000001 -0.707104 0.707109
vn 0.577351 0.577353 0.577348
vn 0.000000 0.707110 0.707104
vn -0.000004 -1.000000 -0.000004
vn 0.577350 -0.577348 0.577353
vn 0.000000 1.000000 0.000000
vn 0.707105 0.707109 0.000000
vn 0.707110 -0.707104 -0.000001
vn -0.000001 -0.707104 0.707109
vn 0.000000 1.000000 0.000000
vn 0.707105 0.707109 0.000000
vn 0.577351 0.577353 0.577348
vn 0.000000 0.707110 0.707104
vn -0.000004 -1.000000 -0.000004
vn 0.577350 -0.577348 0.577353
vn 0.707110 -0.707104 -0.000001
vn -0.000001 -0.707104 0.707109
vn 0.577351 0.577353 0.577348
vn 0.000000 0.707110 0.707104
vn -0.000004 -1.000000 -0.000004
vn 0.577350 -0.577348 0.577353
vn 0.000000 1.000000 0.000000
vn 0.707105 0.707109 0.000000
vn 0.707109 0.707105 0.000000
vn 0.000000 1.000000 0.000000
vn -0.000004 -1.000000 -0.000004
vn 0.707105 -0.707109 0.000000
vn 0.707110 -0.707104 -0.000001
vn -0.000002 -1.000000 -0.000002
vn 0.000000 1.000000 0.000000
vn 0.707105 0.707109 0.000000
vn 0.707110 -0.707104 -0.000001
vn -0.000001 -0.707104 0.707109
vn 0.577351 0.577353 0.577348
vn 0.000000 0.707110 0.707104
vn -0.000004 -1.000000 -0.000004
vn 0.577350 -0.577348 0.577353
vn 1.000000 0.000000 0.000000
vn 0.707110 -0.707104 -0.000001
vn -0.000001 -0.707104 0.707109
vn 0.707109 0.000006 0.707105
vn 0.000000 0.000009 1.000000
vn -0.000004 -1.000000 -0.000004
vn 0.577350 -0.577348 0.577353
vn 0.000000 1.000000 0.000000
vn 0.707105 0.707109 0.000000
vn 0.577351 0.577353 0.577348
vn 0.000000 0.707110 0.707104
vn -0.000004 -1.000000 -0.000004
vn 0.577350 -0.577348 0.577353
vn 0.707110 -0.707104 -0.000001
vn -0.000001 -0.707104 0.707109
vn 0.000000 1.000000 0.000000
vn 0.707105 0.707109 0.000000
vn 0.577351 0.577353 0.577348
vn 0.000000 0.707110 0.707104
vn -0.000004 -1.000000 -0.000004
vn 0.577350 -0.577348 0.577353
vn 0.707110 -0.707104 -0.000001
vn -0.000001 -0.707104 0.707109
vn 0.000000 1.000000 0.000000
vn 0.707105 0.707109 0.000000
vn 0.577351 0.577353 0.577348
vn 0.000000 0.707110 0.707104
vn -0.000004 -1.000000 -0.000004
vn 0.577350 -0.577348 0.577353
vn 0.707110 -0.707104 -0.000001
vn -0.000001 -0.707104 0.707109
vn 0.000000 1.000000 0.000000
vn 0.707105 0.707109 0.000000
vn 0.577351 0.577353 0.577348
vn 0.000000 0.707110 0.707104
vn -0.000004 -1.000000 -0.000004
vn 0.577350 -0.577348 0.577353
vn 0.707110 -0.707104 -0.000001
vn -0.000001 -0.707104 0.707109
vn 1.000000 0.000000 0.000000
vn 1.000000 0.000000 0.000000
vn 1.000000 0.000000 0.000000
vn 1.000000 0.000000 0.000000
vn 0.000000 1.000000 0.000000
vn 0.707105 0.707109 0.000000
vn 0.577351 0.577353 0.577348
vn 0.000000 0.707110 0.707104
vn -0.000004 -1.000000 -0.000004
vn 0.577350 -0.577348 0.577353
vn 0.707110 -0.707104 -0.000001
vn -0.000001 -0.707104 0.707109
vn 0.000000 1.000000 0.000000
vn 0.707105 0.707109 0.000000
vn 0.577351 0.577353 0.577348
vn 0.000000 0.707110 0.707104
vn -0.000004 -1.000000 -0.000004
vn 0.577350 -0.577348 0.577353
vn 0.707110 -0.707104 -0.000001
vn -0.000001 -0.707104 0.707109
vn 1.000000 0.000000 0.000000
vn 1.000000 0.000000 0.000000
vn 1.000000 0.000000 0.000000
vn 1.000000 0.000000 0.000000
vn 0.000000 1.000000 0.000000
vn 0.707105 0.707109 0.000000
vn 0.577351 0.577353 0.577348
vn 0.000000 0.707110 0.707104
vn -0.000004 -1.000000 -0.000004
vn 0.577350 -0.577348 0.577353
vn 0.707110 -0.707104 -0.000001
vn -0.000001 -0.707104 0.707109
vn 0.000000 1.000000 0.000000
vn 0.707105 0.707109 0.000000
vn 0.577352 0.577354 0.577345
vn -0.000007 0.707115 0.707099
vn -0.000004 -1.000000 -0.000004
vn 0.577352 -0.577349 0.577350
vn 0.707110 -0.707104 -0.000001
vn -0.000015 -0.707111 0.707102
vn 0.000000 1.000000 0.000000
vn 0.707105 0.707109 0.000000
vn 0.577351 0.577353 0.577348
vn 0.000000 0.707110 0.707104
vn -0.000004 -1.000000 -0.000004
vn 0.577350 -0.577348 0.577353
vn 0.707110 -0.707104 -0.000001
vn -0.000001 -0.707104 0.707109
vn 0.000006 0.000015 1.000000
vn -0.000032 0.000014 1.000000
vn 0.000004 -0.000011 1.000000
vn -0.000018 -0.000008 1.000000
vn 0.000002 0.000010 1.000000
vn -0.000005 0.000009 1.000000
vn 0.000002 0.000001 1.000000
vn -0.000006 0.000002 1.000000
vn 0.000000 1.000000 -0.000002
vn 0.000000 1.000000 -0.000002
vn 0.000000 1.000000 -0.000002
vn 0.000000 1.000000 -0.000002
vn 0.000000 1.000000 -0.000002
vn 0.000000 1.000000 -0.000002
vn 0.000000 1.000000 -0.000002
vn 0.000000 1.000000 -0.000002
g fff06058_00076_001d192a_e4
f 12/12/12 11/11/11 10/10/10
f 11/11/11 12/12/12 9/9/9
f 8/12/8 7/10/7 6/11/6
f 6/11/6 5/9/5 8/12/8
f 7/8/7 10/7/10 11/6/11
f 11/6/11 6/5/6 7/8/7
f 8/4/8 12/3/12 10/2/10
f 10/2/10 7/1/7 8/4/8
f 4/12/4 3/11/3 16/10/16
f 3/11/3 4/12/4 15/9/15
f 14/12/14 13/10/13 2/11/2
f 2/11/2 1/9/1 14/12/14
f 13/8/13 16/7/16 3/6/3
f 3/6/3 2/5/2 13/8/13
f 14/4/14 4/3/4 16/2/16
f 16/2/16 13/1/13 14/4/14
f 28/12/28 27/11/27 26/10/26
f 27/11/27 28/12/28 25/9/25
f 24/12/24 23/10/23 22/11/22
f 22/11/22 21/9/21 24/12/24
f 23/8/23 26/7/26 27/6/27
f 27/6/27 22/5/22 23/8/23
f 24/4/24 28/3/28 26/2/26
f 26/2/26 23/1/23 24/4/24
f 20/12/20 19/11/19 32/10/32
f 19/11/19 20/12/20 31/9/31
f 30/12/30 29/10/29 18/11/18
f 18/11/18 17/9/17 30/12/30
f 29/8/29 32/7/32 19/6/19
f 19/6/19 18/5/18 29/8/29
f 30/4/30 20/3/20 32/2/32
f 32/2/32 29/1/29 30/4/30
f 40/12/40 39/11/39 38/10/38
f 39/11/39 40/12/40 37/9/37
f 36/12/36 35/10/35 34/11/34
f 34/11/34 33/9/33 36/12/36
f 35/8/35 38/7/38 39/6/39
f 39/6/39 34/5/34 35/8/35
f 44/12/44 43/11/43 48/10/48
f 43/11/43 44/12/44 47/9/47
f 46/12/46 45/10/45 42/11/42
f 42/11/42 41/9/41 46/12/46
f 45/8/45 48/7/48 43/6/43
f 43/6/43 42/5/42 45/8/45
f 46/4/46 44/3/44 48/2/48
f 48/2/48 45/1/45 46/4/46
f 51/12/51 50/11/50 55/10/55
f 50/11/50 51/12/51 54/9/54
f 52/8/52 55/7/55 50/6/50
f 50/6/50 49/5/49 52/8/52
f 53/4/53 51/3/51 55/2/55
f 55/2/55 52/1/52 53/4/53
f 63/12/63 62/11/62 61/10/61
f 62/11/62 63/12/63 60/9/60
f 59/12/59 58/10/58 57/11/57
f 57/11/57 56/9/56 59/12/59
f 58/8/58 61/7/61 62/6/62
f 62/6/62 57/5/57 58/8/58
f 59/4/59 63/3/63 61/2/61
f 61/2/61 58/1/58 59/4/59
f 71/12/71 70/11/70 69/10/69
f 70/11/70 71/12/71 68/9/68
f 67/12/67 66/10/66 65/11/65
f 65/11/65 64/9/64 67/12/67
f 66/8/66 69/7/69 70/6/70
f 70/6/70 65/5/65 66/8/66
f 67/4/67 71/3/71 69/2/69
f 69/2/69 66/1/66 67/4/67
f 79/12/79 78/11/78 77/10/77
f 78/11/78 79/12/79 76/9/76
f 75/12/75 74/10/74 73/11/73
f 73/11/73 72/9/72 75/12/75
f 74/8/74 77/7/77 78/6/78
f 78/6/78 73/5/73 74/8/74
f 75/4/75 79/3/79 77/2/77
f 77/2/77 74/1/74 75/4/75
f 87/12/87 86/11/86 85/10/85
f 86/11/86 87/12/87 84/9/84
f 83/12/83 82/10/82 81/11/81
f 81/11/81 80/9/80 83/12/83
f 82/8/82 85/7/85 86/6/86
f 86/6/86 81/5/81 82/8/82
f 83/4/83 87/3/87 85/2/85
f 85/2/85 82/1/82 83/4/83
f 89/8/89 90/7/90 91/6/91
f 91/6/91 88/5/88 89/8/89
f 99/12/99 98/11/98 97/10/97
f 98/11/98 99/12/99 96/9/96
f 95/12/95 94/10/94 93/11/93
f 93/11/93 92/9/92 95/12/95
f 94/8/94 97/7/97 98/6/98
f 98/6/98 93/5/93 94/8/94
f 95/4/95 99/3/99 97/2/97
f 97/2/97 94/1/94 95/4/95
f 107/12/107 106/11/106 105/10/105
f 106/11/106 107/12/107 104/9/104
f 103/12/103 102/10/102 101/11/101
f 101/11/101 100/9/100 103/12/103
f 102/8/102 105/7/105 106/6/106
f 106/6/106 101/5/101 102/8/102
f 103/4/103 107/3/107 105/2/105
f 105/2/105 102/1/102 103/4/103
f 109/8/109 110/7/110 111/6/111
f 111/6/111 108/5/108 109/8/109
f 119/12/119 118/11/118 117/10/117
f 118/11/118 119/12/119 116/9/116
f 115/12/115 114/10/114 113/11/113
f 113/11/113 112/9/112 115/12/115
f 114/8/114 117/7/117 118/6/118
f 118/6/118 113/5/113 114/8/114
f 115/4/115 119/3/119 117/2/117
f 117/2/117 114/1/114 115/4/115
f 127/12/127 126/11/126 125/10/125
f 126/11/126 127/12/127 124/9/124
f 123/12/123 122/10/122 121/11/121
f 121/11/121 120/9/120 123/12/123
f 122/8/122 125/7/125 126/6/126
f 126/6/126 121/5/121 122/8/122
f 141/34/141 143/36/143 142/35/142
f 142/35/142 140/33/140 141/34/141
f 135/13/135 134/14/134 133/15/133
f 134/14/134 135/13/135 132/16/132
f 131/13/131 130/15/130 129/14/129
f 129/14/129 128/16/128 131/13/131
f 130/17/130 133/18/133 134/19/134
f 134/19/134 129/20/129 130/17/130
f 131/21/131 135/22/135 133/23/133
f 133/23/133 130/24/130 131/21/131
f 122/28/122 123/25/123 137/30/137
f 137/30/137 136/29/136 122/28/122
f 125/27/125 122/28/122 136/29/136
f 136/29/136 138/31/138 125/27/125
f 123/25/123 127/26/127 139/32/139
f 139/32/139 137/30/137 123/25/123
f 127/26/127 125/27/125 138/31/138
f 138/31/138 139/32/139 127/26/127
f 136/29/136 137/30/137 141/34/141
f 141/34/141 140/33/140 136/29/136
f 138/31/138 136/29/136 140/33/140
f 140/33/140 142/35/142 138/31/138
f 137/30/137 139/32/139 143/36/143
f 143/36/143 141/34/141 137/30/137
f 139/32/139 138/31/138 142/35/142
f 142/35/142 143/36/143 139/32/139
f 147/12/147 146/10/146 145/11/145
f 145/11/145 144/9/144 147/12/147
f 151/12/151 150/10/150 149/11/149
f 149/11/149 148/9/148 151/12/151
