# fff0ac53_00279_005f2205
o fff0ac53_00279_005f2205
v 5.062590 8.484035 -2.514837
v -2.513582 7.523800 -2.514837
v -1.199984 -12.048965 -0.485500
v -1.375788 -12.048965 -1.425510
v 5.959616 7.523800 -2.514837
v -0.783037 -12.048969 -1.807596
v -2.007120 -10.467415 -2.660000
v -2.007120 -8.491890 -2.663000
v -2.513582 7.523800 -2.514837
v -2.007120 -8.491890 0.560312
v -2.007120 -12.042522 -2.586768
v -2.007120 -12.042522 0.560312
v -0.114771 -12.048969 -1.717907
v -17.190203 13.539820 -2.541525
v -17.190218 -13.530231 -2.588583
v 2.798859 -11.835815 -2.259809
v 0.966097 -11.935974 -2.259809
v 1.890694 -8.645752 -2.242950
v 1.853649 -8.213806 -2.092480
v -0.203503 -11.617023 -1.878485
v -15.919985 -12.477634 -2.584030
v 15.702063 -12.477634 -2.577185
v 15.702063 12.497860 -2.577143
v 15.702063 12.497860 -2.473673
v 15.702063 -12.477634 -2.473715
v -15.927263 12.497860 -2.584288
v -15.927263 12.497860 -2.687757
v -15.919985 -12.477634 -2.687500
v -5.330481 -8.213840 -2.657400
v 5.959616 12.497860 -2.514837
v -1.790377 -12.477634 -2.618464
v -2.513582 12.497860 -2.514837
v 5.062590 13.539822 -2.460333
v 5.727545 -4.070889 -2.643942
v -4.365786 -8.213840 -2.657400
v 5.727537 -8.213833 -2.165442
v 2.657911 -9.995819 -0.248144
v -1.790377 -12.477634 -2.536542
v 5.959616 7.523800 -2.614370
v 5.959616 12.497860 -2.614370
v -2.513582 7.523800 -2.638021
v -2.513582 12.497860 -2.638021
v 17.187376 -8.213802 -2.662619
v 12.951689 -8.213802 -2.662619
v 12.951689 -8.213802 -2.662619
v 12.951689 -4.070858 -2.662619
v 5.727554 -8.213806 -2.646093
v 5.727552 -8.213833 -2.646093
v -2.513582 7.523800 -2.638021
v 5.959612 7.523800 -2.614370
v 5.959610 7.523800 -2.614370
v 15.702063 -12.477634 -2.577185
v -2.513586 7.523800 -2.638021
v 5.959616 7.523800 -2.514837
v -1.699404 8.484035 -2.514837
v 17.041801 13.539824 -2.460333
v 15.702063 12.497860 -2.473673
v -2.513582 12.497860 -2.638014
v -1.790377 -12.477634 -2.618464
v 5.959616 12.497860 -2.614365
v 2.954088 -12.477634 -2.614593
v 15.702063 12.497860 -2.577143
v -15.927263 12.497860 -2.687757
v -15.919985 -12.477634 -2.687500
v -6.198114 -13.240242 1.053278
v -1.465326 -8.206120 1.053278
v -6.198114 -8.213814 1.053278
v -6.202570 -13.271431 -2.667562
v 5.959616 12.497860 -2.514837
v -1.699404 13.539820 -2.541525
v -2.513582 12.497860 -2.514837
v -15.927263 12.497860 -2.584288
v -15.919985 -12.477634 -2.584030
v -1.310007 -8.206120 0.488855
v 12.951689 -9.017147 1.312555
v -5.330484 -8.213814 -0.325308
v -4.365793 -8.213810 -0.325308
v 12.951689 -8.213802 1.312555
v 5.727539 -8.213806 1.312555
v 17.187376 -8.213802 -2.667562
v -6.198114 -8.213814 -2.667562
v -5.330484 -8.213814 -2.354742
v 17.188810 -8.213802 2.838343
v -1.310007 -8.206120 0.488855
v 5.727539 -8.213806 1.312555
v 12.951689 -8.213802 1.312555
v 5.727539 -8.213806 -2.165442
v 12.951689 -8.213802 1.312555
v 5.727539 -9.017151 1.312555
v 5.727539 -8.213806 1.312555
v 12.951689 -8.213802 -2.165442
v 12.951689 -8.213802 -2.165442
v 17.190218 -12.330105 2.838343
v -1.786631 -13.240208 1.053278
v 1.825396 -8.213806 1.951595
v 2.207933 -8.213806 1.012277
v -1.465326 -8.206120 1.053278
v 2.336662 -8.213810 2.146463
v 2.187716 -8.213810 2.344627
v 2.188356 -12.330109 2.838343
v 2.754061 -8.213810 2.838343
v 2.616213 -9.056854 2.838343
v 1.543442 -10.681499 2.838343
v -6.198114 -13.240242 1.053278
v -1.798258 -8.213810 -1.100868
v 1.848799 -11.621521 -2.667532
v 1.770744 -11.621525 -1.352377
v 2.365089 -11.621525 2.146494
v 2.275759 -11.621521 1.012307
v -1.959780 -8.213810 0.159318
v -1.929155 -8.213814 0.488855
v 1.801445 -8.213810 -1.352407
v -1.785868 -8.213810 0.007893
v 1.426025 -8.213810 -2.054939
v -1.969828 -8.213810 -1.200392
v 1.448389 -8.213808 -2.667562
v 1.801460 -8.645756 -1.352423
v 2.207949 -8.645752 1.012261
v 2.336678 -8.645756 2.146448
v 1.825411 -8.645752 1.951580
v 1.589611 -11.621525 -1.643831
v 1.488966 -11.621521 -2.201296
v 2.367708 -11.621525 -0.496122
v 1.740326 -8.214935 -1.184586
v 1.517843 -11.621525 -1.392074
v 1.955256 -11.621525 0.004486
v 2.157269 -8.213806 0.717538
v 2.382006 -8.213806 -0.634874
v 1.737110 -8.213810 -1.846003
v 2.188356 -12.330109 2.142939
v 1.325027 -10.681499 2.142939
v 2.330050 -9.048367 2.142939
v 2.446302 -10.952763 -2.663000
v 2.446302 -8.631714 -2.663000
v 2.446302 -9.995819 -2.663000
v -5.330484 -8.425423 -0.325308
v -5.330484 -8.425423 -2.354742
v -4.365793 -8.425419 -0.325308
v 2.333086 -8.645752 -0.634890
v 1.444670 -8.596880 -2.667501
v 1.740337 -8.645756 -1.184607
v 2.157284 -8.645752 0.717523
v -1.862535 -8.213810 -0.857138
v -1.841452 -8.213810 -1.825350
v 1.737125 -8.645756 -1.846018
v 2.446302 -10.952763 -0.248144
v 2.446302 -9.995819 -0.248144
v -1.929155 -8.548008 0.488993
v 1.589611 -12.186802 -1.643831
v 1.848799 -12.186798 -2.667532
v 1.488966 -12.186798 -2.201296
v 2.367708 -12.186802 -0.496122
v 1.770744 -12.186802 -1.352377
v 1.517843 -12.186802 -1.392074
v 1.955256 -12.186802 0.004486
v 2.365089 -12.186802 2.146494
v 2.275759 -12.186798 1.012307
v 2.446302 -11.951389 2.140985
v 2.657911 -10.952763 -2.663000
v 2.446302 -11.951389 -2.649971
v 2.446302 -8.631714 2.140985
v 1.554688 -8.213810 -2.323938
v 2.657911 -10.952763 -0.248144
v -4.676516 -8.548008 0.488993
v 1.298584 -8.408649 -2.054802
v 1.554688 -8.548008 -2.323801
v -1.841452 -8.548008 -1.825212
v -1.798258 -8.548008 -1.100731
v -1.969828 -8.548008 -1.200254
v -1.862535 -8.548008 -0.857000
v -1.785868 -8.548008 0.008030
v -1.959780 -8.548008 0.159455
v -1.310007 -8.206120 0.488855
v -1.186594 -8.785686 0.488855
v -1.537134 -13.240208 0.488855
v -1.738153 -10.634651 0.488855
v -1.994745 -10.634651 1.053278
v -1.340921 -8.785686 1.053278
v -1.250650 -12.048965 -0.280640
v -1.019022 -12.048965 0.022375
v -2.132715 -11.617020 -2.544342
v -2.132715 -11.617016 0.507700
v -1.019007 -11.617020 0.022386
v -1.250635 -11.617020 -0.280629
v -0.844149 -11.617023 -1.924229
v -0.844164 -12.048969 -1.924240
v -1.199968 -11.617020 -0.485490
v -0.783022 -11.617023 -1.807587
v -1.424707 -11.617020 -1.425500
v 0.048256 -11.616058 -2.303747
v -4.479609 -12.014805 0.488855
v 1.853649 -8.213806 -2.092480
v 12.951689 -8.213802 -2.662619
v 17.187376 -8.213802 -2.667562
v 17.188810 -8.213802 2.838343
v 5.727539 -9.017151 -2.165442
v 5.727539 -8.213806 -2.165442
v 12.951689 -9.017147 -2.165442
v 12.951689 -8.213802 -2.165442
v 1.825396 -8.213806 1.951595
v 2.207933 -8.213806 1.012277
v 2.336662 -8.213810 2.146463
v 2.187716 -8.213810 2.344627
v 2.754061 -8.213810 2.838343
v 1.801445 -8.213810 -1.352407
v 2.157269 -8.213806 0.717538
v 2.382006 -8.213806 -0.634874
v 1.737110 -8.213810 -1.846003
v 1.740326 -8.214935 -1.184586
v 2.188356 -12.330109 2.838343
v 2.754061 -8.213810 2.838343
v 2.616213 -9.056854 2.838343
v 1.543442 -10.681499 2.838343
v 1.890694 -8.645752 -2.242950
v 1.853649 -8.213806 -2.092480
v 1.825396 -8.213806 1.951595
v 2.207933 -8.213806 1.012277
v 2.336662 -8.213810 2.146463
v 1.801445 -8.213810 -1.352407
v 1.801460 -8.645756 -1.352423
v 2.207949 -8.645752 1.012261
v 1.825411 -8.645752 1.951580
v 1.740326 -8.214935 -1.184586
v 2.157269 -8.213806 0.717538
v 2.382006 -8.213806 -0.634874
v 1.737110 -8.213810 -1.846003
v 2.333086 -8.645752 -0.634890
v 1.740337 -8.645756 -1.184607
v 2.157284 -8.645752 0.717523
v 1.737125 -8.645756 -1.846018
v 1.325027 -10.681499 2.142939
v 2.330050 -9.048367 2.142939
v 2.616213 -9.056854 2.838343
v 1.543442 -10.681499 2.838343
v 16.385254 -9.056853 2.838343
v 16.385254 -11.504757 2.838343
v 1.917712 -11.638233 2.838343
v 1.917706 -11.638238 2.838343
v 2.616213 -9.056854 2.838343
v 16.385254 -9.056853 2.838343
v 16.385254 -11.504757 2.838343
v 1.917706 -11.638238 2.838343
v -5.330484 -8.213814 -0.325308
v -4.365793 -8.213810 -0.325308
v -6.198114 -8.213814 -2.667562
v -5.330484 -8.213814 -2.354742
v -4.365793 -8.213810 -2.354742
v -1.798258 -8.213810 -1.100868
v -1.959780 -8.213810 0.159318
v -1.929155 -8.213814 0.488855
v -1.785868 -8.213810 0.007893
v 1.426025 -8.213810 -2.054939
v -1.969828 -8.213810 -1.200392
v -1.862535 -8.213810 -0.857138
v -1.841452 -8.213810 -1.825350
v 1.554688 -8.213810 -2.323938
v -6.198114 -8.213814 1.053278
v -1.969828 -8.213810 -1.200392
v -1.862535 -8.213810 -0.857138
v -1.786631 -13.240208 1.053278
v -1.465326 -8.206120 1.053278
v -1.929155 -8.213814 0.488855
v -1.186594 -8.785686 0.488855
v -1.537134 -13.240208 0.488855
v -1.738153 -10.634651 0.488855
v -1.994745 -10.634651 1.053278
v -1.340921 -8.785686 1.053278
v -1.798258 -8.213810 -1.100868
v -1.959780 -8.213810 0.159318
v -1.785868 -8.213810 0.007893
v 1.426025 -8.213810 -2.054939
v -1.969828 -8.213810 -1.200392
v -1.862535 -8.213810 -0.857138
v 1.554688 -8.213810 -2.323938
v 1.298584 -8.408649 -2.054802
v 1.554688 -8.548008 -2.323801
v -1.798258 -8.548008 -1.100731
v -1.969828 -8.548008 -1.200254
v -1.862535 -8.548008 -0.857000
v -1.785868 -8.548008 0.008030
v -1.959780 -8.548008 0.159455
v -1.929155 -8.548008 0.488993
v -5.330484 -8.213814 -0.325308
v -5.330484 -8.425423 -0.325308
v -4.365793 -8.213810 -0.325308
v -4.365793 -8.213810 -2.354742
v -4.365793 -8.425419 -0.325308
v -4.365793 -8.425419 -2.354742
v -6.198114 -8.213814 1.053278
v -6.198114 -13.240242 1.053278
v -1.186594 -8.785686 0.488855
v -1.738153 -10.634651 0.488855
v -1.994745 -10.634651 1.053278
v -1.340921 -8.785686 1.053278
v -1.476187 -9.080259 1.053278
v -1.476173 -9.080261 1.053278
v -5.416534 -9.030067 1.053278
v -5.416534 -12.495522 1.053278
v -1.850999 -12.424747 1.053278
v -1.850995 -12.424736 1.053278
v -6.198114 -8.213814 1.053278
v -6.198114 -13.240242 1.053278
v -1.476173 -9.080261 1.053278
v -5.416534 -9.030067 1.053278
v -5.416534 -12.495522 1.053278
v -1.850995 -12.424736 1.053278
v 2.446302 -10.952763 -2.663000
v 2.446302 -10.952763 -0.248144
v 2.446302 -9.995819 -0.248144
v 1.848799 -11.621521 -2.667532
v 1.770744 -11.621525 -1.352377
v 2.365089 -11.621525 2.146494
v 2.275759 -11.621521 1.012307
v 1.589611 -11.621525 -1.643831
v 1.488966 -11.621521 -2.201296
v 2.367708 -11.621525 -0.496122
v 1.517843 -11.621525 -1.392074
v 1.955256 -11.621525 0.004486
v 1.589611 -12.186802 -1.643831
v 2.367708 -12.186802 -0.496122
v 1.517843 -12.186802 -1.392074
v 1.955256 -12.186802 0.004486
v 1.589611 -11.621525 -1.643831
v 2.367708 -11.621525 -0.496122
v 1.517843 -11.621525 -1.392074
v 1.955256 -11.621525 0.004486
v -2.007120 -10.467415 -0.254293
v -0.203503 -11.617023 -1.878485
v -1.019007 -11.617020 0.022386
v -1.250635 -11.617020 -0.280629
v -0.844149 -11.617023 -1.924229
v -1.199968 -11.617020 -0.485490
v -0.783022 -11.617023 -1.807587
v -1.424707 -11.617020 -1.425500
v -1.199984 -12.048965 -0.485500
v -1.375788 -12.048965 -1.425510
v -0.783037 -12.048969 -1.807596
v -0.114771 -12.048969 -1.717907
v -1.250650 -12.048965 -0.280640
v -1.019022 -12.048965 0.022375
v -0.844164 -12.048969 -1.924240
v -0.203503 -11.617023 -1.878485
v -1.019007 -11.617020 0.022386
v -1.250635 -11.617020 -0.280629
v -0.844149 -11.617023 -1.924229
v -1.199968 -11.617020 -0.485490
v -0.783022 -11.617023 -1.807587
v -1.424707 -11.617020 -1.425500
v 12.951689 -9.017147 1.312555
v 5.727539 -9.017151 1.312555
v 3.601837 -8.213779 2.146463
v 3.601837 -12.330078 2.142939
v 2.336662 -8.213810 2.146463
v 1.325027 -10.681499 2.142939
v 2.330050 -9.048367 2.142939
v 1.325027 -10.681499 2.142939
v 2.330050 -9.048367 2.142939
v -1.794054 -13.530239 -2.534805
v 15.702063 -12.477634 -2.473715
v 17.041803 -13.539825 -2.459366
v -1.790377 -12.477634 -2.536542
v 3.601835 -12.330067 2.142939
v 10.378952 12.497864 -2.597473
v 3.977370 -9.056854 2.838343
v 2.929049 -11.628911 2.838343
v 4.227746 -8.213809 2.838343
v 4.227747 -8.213807 1.585091
v 4.227748 -8.213807 -2.033469
v 4.227748 -8.213806 -2.653644
v 4.227746 -8.213809 2.838343
v 3.977370 -9.056854 2.838343
v 2.720789 -12.330109 2.838343
v 2.929041 -11.628907 2.838343
v 10.378953 12.497860 -2.496164
v 10.688410 13.539823 -2.460333
v 3.295775 -10.160582 -2.614586
v 10.056759 12.497860 -2.598711
v 2.604397 -12.477634 -2.616320
v 3.295775 -10.160579 -2.614586
v 3.625112 -9.056854 2.838343
v 2.570879 -11.632191 2.838343
v 2.570876 -11.632212 2.838343
v 3.876667 -8.213806 -2.655412
v 3.876667 -8.213807 -2.002576
v 2.188362 -12.330105 2.142939
v 3.876666 -8.213810 2.838343
v 3.876667 -8.213808 1.581671
v 2.465073 -11.621524 2.146494
v 2.465074 -11.621523 -0.999782
v 2.465074 -11.621521 -2.667532
v 2.795858 -11.835979 -2.259809
v 2.796619 -11.833428 -2.259809
v 2.798545 -11.826975 -2.259809
v 3.876666 -8.213810 2.838343
v 3.625112 -9.056854 2.838343
v 2.362632 -12.330109 2.838343
v 2.570876 -11.632212 2.838343
v 10.056768 12.497856 -2.497531
v 10.340677 13.539823 -2.460333
v 2.446302 -10.952763 -0.248144
v 2.657911 -10.952763 -0.248144
v -1.800229 -11.617022 0.345247
v -1.805518 -12.048968 0.347411
v -1.800224 -11.617023 0.345240
v -1.828326 -11.617023 0.497017
v -1.846092 -12.048968 0.504331
v -1.828326 -11.617023 0.497010
v -1.800229 -11.617022 0.345247
v -1.805518 -12.048968 0.347411
v 1.770744 -12.186802 -1.352377
v 1.770744 -11.621525 -1.352377
v 2.275759 -12.186798 1.012307
v 2.275759 -11.621521 1.012307
v -1.853294 -8.213813 -2.666527
v -1.949351 -8.213410 -2.622763
v 3.519365 -8.171397 -2.614555
v 3.517779 -8.181928 -2.614555
v 0.062475 -11.822970 -1.772056
v -0.203503 -11.617023 -1.878485
v 0.062475 -11.822970 -1.772056
v -2.132715 -11.617020 -2.544342
v -2.132715 -11.617016 0.507700
v -1.424707 -11.617020 -1.425500
v -1.800224 -11.617023 0.345240
v -0.783035 -11.973305 -1.807595
v -1.385674 -11.961674 -1.425508
v -1.199981 -11.977659 -0.485499
v -1.250647 -11.959549 -0.280637
v -1.019019 -11.968582 0.022377
v -1.250647 -11.958349 -0.280637
v -1.019019 -11.970530 0.022377
v -1.804524 -11.967775 0.347005
v -0.783035 -11.972328 -1.807595
v -0.844161 -11.978130 -1.924238
v -0.844160 -11.952262 -1.924237
v -0.114652 -12.048972 -1.717907
v -1.199980 -11.958113 -0.485498
v -1.385394 -11.964145 -1.425508
v -0.053600 -11.587665 -1.831007
v -1.881814 -8.213810 -2.327358
v -1.237793 -8.213810 -2.250368
v -1.241423 -8.548008 -2.249975
v -1.237737 -8.213810 -2.250368
v -0.799821 -8.213810 -2.620523
v -0.803046 -8.548008 -2.620523
v -0.799747 -8.213810 -2.620523
v 0.756354 -8.213810 -2.225945
v 0.869749 -8.502125 -2.225125
v 0.756285 -8.213810 -2.225945
v -1.019514 -8.213810 -2.333044
v -1.019644 -8.213810 -2.333044
v -1.016239 -8.548008 -2.332917
v -0.053600 -11.587665 -1.831007
v -0.053600 -11.587665 -1.831007
v -1.214528 -8.213810 -2.362854
v -1.214528 -8.213810 -2.362854
v -1.229242 -8.548008 -2.409080
v -0.975485 -8.213810 -2.797750
v -1.185040 -8.213811 -2.666898
v -1.262372 -8.213812 -2.666712
v 0.673855 -8.306965 -2.123373
v 0.727725 -8.548008 -2.123136
v 0.673855 -8.306965 -2.123371
v 0.825897 -8.213808 -2.700997
v 0.137261 -8.213808 -2.737984
v -0.452321 -8.213810 -2.332911
v -0.502168 -8.548008 -2.386632
v -0.452320 -8.213810 -2.332911
v -0.416456 -8.213809 -2.767724
v 0.460160 -8.213810 -2.316162
v 0.460160 -8.213810 -2.316161
v 0.464059 -8.548008 -2.312654
v 0.310848 -8.213810 -2.277027
v 0.310848 -8.213810 -2.277026
v 0.303622 -8.548008 -2.382970
v 0.039406 -12.078535 -2.176339
v 0.089183 -11.868627 -1.835460
v 0.040051 -11.920127 -1.855873
v 0.019688 -11.621042 -1.879873
v 1.448389 -8.213808 -2.667562
v -0.040600 -11.591290 -1.891356
v 0.042197 -11.931328 -1.878533
v -1.019644 -8.213810 -2.333044
v -1.016239 -8.548008 -2.332917
v -0.502168 -8.548008 -2.386632
v -0.452320 -8.213810 -2.332911
v -1.241423 -8.548008 -2.249975
v -1.237737 -8.213810 -2.250368
v -0.051756 -11.628987 -1.873865
v -0.044579 -11.610312 -1.953268
v -0.203503 -11.617023 -1.878485
v -0.053600 -11.587665 -1.831007
v 0.019688 -11.621042 -1.879873
v -0.799821 -8.213810 -2.620523
v -0.803046 -8.548008 -2.620523
v 0.727725 -8.548008 -2.123136
v 0.673855 -8.306965 -2.123371
v 0.460160 -8.213810 -2.316161
v 0.464059 -8.548008 -2.312654
v -1.214528 -8.213810 -2.362854
v -1.229242 -8.548008 -2.409080
v 0.869749 -8.502125 -2.225125
v 0.756285 -8.213810 -2.225945
v -0.015062 -8.213810 -2.302726
v -0.014831 -8.213810 -2.302708
v -0.051934 -8.213809 -2.438909
v -0.154088 -8.213810 -2.313689
v -0.039085 -8.409433 -2.303178
v -0.154711 -8.213810 -2.313738
v -0.066895 -8.219299 -2.372416
v -0.066895 -8.219299 -2.372527
v -0.039085 -8.409433 -2.303178
v -0.154711 -8.213810 -2.313738
v -0.066895 -8.219299 -2.372527
v -0.014831 -8.213810 -2.302708
v -0.039085 -8.409433 -2.303178
v 0.237249 -8.213809 -2.472466
v 0.065563 -8.213809 -2.533108
v 0.309246 -8.287893 -2.276606
v 0.127741 -8.363432 -2.290362
v 0.253366 -8.330051 -2.432239
v 0.057690 -8.330051 -2.449501
v 0.253284 -8.330051 -2.432246
v 0.056664 -8.330051 -2.449591
v -0.014831 -8.213810 -2.302708
v 0.309246 -8.287893 -2.276606
v 0.127741 -8.363432 -2.290362
v 0.253284 -8.330051 -2.432246
v 0.310848 -8.213810 -2.277027
v 0.310848 -8.213810 -2.277026
v -0.015062 -8.213810 -2.302726
v 0.237249 -8.213809 -2.472466
v 0.065563 -8.213809 -2.533108
v 0.309246 -8.287893 -2.276606
v 0.253366 -8.330051 -2.432239
v 0.057690 -8.330051 -2.449501
v 0.237249 -8.213809 -2.472466
v 0.065563 -8.213809 -2.533108
v -0.376067 -8.548008 -2.329911
v -0.530033 -8.400953 -2.305036
v -0.530022 -8.400654 -2.305036
v -0.590396 -8.548008 -2.399665
v -0.376067 -8.548008 -2.329911
v -0.530033 -8.400953 -2.305036
v -0.530022 -8.400654 -2.305036
v -0.590396 -8.548008 -2.399665
v -0.272085 -11.955806 -1.762407
v -0.408175 -11.617023 -1.893099
v -0.408382 -11.617023 -1.893114
v -0.236531 -11.616660 -2.047651
v -0.236689 -11.616657 -2.047656
v -0.203503 -11.617023 -1.878485
v -0.272085 -11.955806 -1.762407
v -0.408175 -11.617023 -1.893099
v -0.236689 -11.616657 -2.047656
v -0.272085 -11.955806 -1.762407
v -1.381576 -11.617020 -1.245096
v -1.381923 -11.617020 -1.246547
v -1.511286 -11.617020 -1.331569
v -1.511310 -11.617020 -1.331569
v -1.385394 -11.964145 -1.425508
v -1.381576 -11.617020 -1.245096
v -1.511310 -11.617020 -1.331569
v 2.130127 -11.621521 -0.836938
v 2.239790 -11.621523 -1.114186
v 2.130127 -11.621521 -0.836938
v 2.011655 -11.621522 -1.192683
v 2.011635 -11.621522 -1.192711
v 2.017984 -11.797913 -0.997777
v 2.239785 -11.621536 -1.114186
v 2.130127 -11.621521 -0.836938
v 2.017984 -11.797913 -0.997777
v 2.239785 -11.621536 -1.114186
v 2.011655 -11.621522 -1.192683
v 2.017984 -11.797913 -0.997777
v 2.180594 -8.213808 -1.026107
v 2.099221 -8.214304 -0.877129
v 2.099221 -8.214304 -0.877129
v 1.922672 -8.214615 -1.028374
v 1.922672 -8.214615 -1.028374
v 1.911256 -8.530699 -1.038176
v 2.180762 -8.213815 -1.026107
v 2.099221 -8.214304 -0.877129
v 1.911256 -8.530699 -1.038176
v 2.180762 -8.213815 -1.026107
v 1.922672 -8.214615 -1.028374
v 1.911256 -8.530699 -1.038176
v -1.841452 -8.213810 -1.825350
v -1.841452 -8.548008 -1.825212
v -1.515348 -8.213810 -2.054950
v -1.515341 -8.213810 -2.054933
v -1.528678 -8.388016 -2.046692
v -1.624695 -8.437131 -1.978701
v -1.756758 -8.213810 -1.932459
v -1.756756 -8.213810 -1.932455
v -1.881764 -8.213810 -2.327352
v -1.528678 -8.388016 -2.046692
v -1.756756 -8.213810 -1.932455
v -1.881764 -8.213810 -2.327352
v -1.515341 -8.213810 -2.054933
v -1.528678 -8.388016 -2.046692
v -1.857003 -8.393147 -1.749571
v -1.878535 -8.548008 -1.644682
v -2.051792 -8.548008 -1.741358
v -1.841452 -8.548008 -1.825212
v -1.857003 -8.393147 -1.749571
v 2.275759 -12.113861 1.012307
v 1.955256 -12.113861 0.004486
v 2.275759 -12.113861 1.012307
v 2.365089 -12.113861 2.146494
v 1.770744 -12.113861 -1.352377
v 2.367708 -12.113861 -0.496122
v 1.770744 -12.113861 -1.352377
v 1.517843 -12.113861 -1.392074
v 1.517843 -12.112154 -1.392074
v 1.589611 -12.113192 -1.643831
v 1.589611 -12.113539 -1.643831
v 1.488966 -12.089031 -2.201296
v 1.955256 -12.112937 0.004486
v 2.367708 -12.111471 -0.496122
v -1.152123 -12.048967 -1.569684
v -1.126168 -11.966682 -1.590040
v -1.070118 -11.813904 -1.636646
v -0.978744 -12.048968 -1.681444
v -1.011909 -11.968887 -1.662483
v -1.108643 -12.048677 -1.727321
v -1.100807 -11.967641 -1.735314
v -1.152123 -12.048967 -1.569684
v -1.126168 -11.966682 -1.590040
v -1.070118 -11.813904 -1.636646
v -1.108643 -12.048677 -1.727321
v -1.100807 -11.967641 -1.735314
v -1.070118 -11.813904 -1.636646
v -0.978744 -12.048968 -1.681444
v -1.011909 -11.968887 -1.662483
v -1.271595 -12.048965 -0.868401
v -1.281022 -11.960749 -0.896365
v -1.291140 -11.787697 -0.947686
v -1.298012 -11.961302 -0.982501
v -1.293773 -12.048965 -0.986986
v -1.411564 -12.048965 -0.940608
v -1.417026 -11.961060 -0.944726
v -1.291140 -11.787697 -0.947686
v -1.298012 -11.961302 -0.982501
v -1.293773 -12.048965 -0.986986
v -1.411564 -12.048965 -0.940608
v -1.417026 -11.961060 -0.944726
v -1.385394 -11.964145 -1.425508
v 2.188788 -11.865108 -0.752770
v 2.236499 -12.113861 -0.684322
v 2.248531 -12.186802 -0.667064
v 2.144871 -12.113861 -0.815749
v 2.136133 -12.186802 -0.828282
v 2.258723 -12.113861 -0.797354
v 2.259310 -12.186802 -0.796513
v 2.188788 -11.865108 -0.752770
v 2.144871 -12.113861 -0.815749
v 2.136133 -12.186802 -0.828282
v 2.258723 -12.113861 -0.797354
v 2.259310 -12.186802 -0.796513
v 2.188788 -11.865108 -0.752770
v 2.236499 -12.113861 -0.684322
v 2.248531 -12.186802 -0.667064
v -0.015062 -8.213810 -2.302726
v -0.051934 -8.213809 -2.438909
v 0.065563 -8.213809 -2.533108
v -6.198114 -8.213814 -2.377373
v -2.007120 -8.986644 0.560312
v -2.007120 -9.057335 -2.662142
v -2.007120 -9.009285 -0.078072
v 1.175020 -8.435583 -2.103878
v 1.128588 -8.280155 -2.142874
v 1.012521 -8.456635 -2.142238
v 1.129802 -8.445439 -2.166174
v 1.175020 -8.435583 -2.103878
v 1.128588 -8.280155 -2.142874
v 1.012521 -8.456635 -2.142238
v 1.129802 -8.445439 -2.166174
v 1.128588 -8.280155 -2.142874
v 1.737116 -8.384768 -1.846009
v 1.764168 -8.645756 -1.638537
v 1.887626 -8.645756 -1.796476
v 1.737116 -8.384768 -1.846009
v 1.764168 -8.645756 -1.638537
v 2.344323 -8.546530 -0.634886
v 2.344321 -8.546547 -0.634886
v 2.157281 -8.558975 0.717526
v 2.157281 -8.559036 0.717526
v 2.207946 -8.558090 1.012264
v 2.207946 -8.557954 1.012264
v 1.740335 -8.544822 -1.184602
v 1.740335 -8.541241 -1.184601
v 1.801457 -8.556656 -1.352420
v 1.801457 -8.556656 -1.352419
v 1.755877 -8.565771 -1.702121
v 1.755802 -8.565039 -1.702704
v 1.838474 -8.560525 -1.812652
v 1.737061 -8.557541 -1.846015
v 1.737061 -8.557541 -1.846015
v 1.882521 -8.553406 -2.209754
v 1.883028 -8.553406 -2.211813
v 1.326137 -8.366526 -2.054832
v 1.324127 -8.369597 -2.054830
v 1.160795 -8.387966 -2.115825
v 1.160795 -8.387965 -2.115825
v 1.129457 -8.398583 -2.159569
v 1.129453 -8.397943 -2.159478
v 1.054328 -8.393068 -2.142467
v 1.054414 -8.392937 -2.142467
v 0.836871 -8.418582 -2.225362
v 0.836992 -8.418889 -2.225361
v 0.708348 -8.461304 -2.123221
v 0.708093 -8.460164 -2.123222
v 0.463091 -8.464985 -2.313525
v 0.411829 -8.460251 -2.300492
v 0.463090 -8.464945 -2.313525
v 0.305462 -8.462906 -2.348171
v 0.213375 -8.453299 -2.335451
v -0.395445 -8.463078 -2.330673
v -0.801972 -8.436707 -2.620523
v -0.801962 -8.435612 -2.620523
v -1.017494 -8.424846 -2.332964
v -1.017488 -8.425487 -2.332964
v -1.224547 -8.441359 -2.394328
v -1.224547 -8.441368 -2.394329
v -1.240182 -8.435459 -2.250108
v -1.240183 -8.435556 -2.250107
v -1.841452 -8.399322 -1.825274
v -1.841452 -8.398722 -1.825274
v -1.969828 -8.436184 -1.200300
v -1.969828 -8.436653 -1.200300
v -1.798258 -8.429161 -1.100780
v -1.798258 -8.428944 -1.100780
v -1.862535 -8.449131 -0.857041
v -1.862535 -8.448545 -0.857041
v -6.250346 -8.106948 -2.630827
v 5.739046 -8.106948 -2.608328
v -6.194194 -8.218854 -2.630827
v 5.739046 -8.218854 -2.608328
v 3.875687 -8.218854 -2.611320
v 3.907841 -8.106948 -2.611260
v -5.330484 -8.213814 -2.653132
v -5.330484 -8.425423 -2.653132
v -4.365793 -8.213810 -2.653132
v -4.365793 -8.425419 -2.653132
v -6.191064 -8.106948 -2.630803
v -6.250346 -8.415955 -2.630827
v -6.194194 -8.415955 -2.630827
v -1.359756 -11.808313 0.047587
v -1.315015 -11.808313 0.001453
v -1.157051 -11.808313 0.626408
v -1.103829 -11.808313 0.606037
v -1.158203 -11.808311 0.898363
v -1.102539 -11.808311 0.910336
v -1.281494 -11.808311 -0.032451
v -1.247558 -11.808311 -0.078409
v -1.034667 -11.808311 0.438158
v -0.981689 -11.808311 0.418113
v -1.337385 -11.779627 0.024520
v -1.130440 -11.779627 0.616222
v -1.130371 -11.779624 0.904350
v -1.008178 -11.779624 0.428136
v -1.264526 -11.779624 -0.055430
v -1.337385 -11.779627 0.024520
v -1.130440 -11.779627 0.616222
v -1.130371 -11.779624 0.904350
v -1.008178 -11.779624 0.428136
v -1.264526 -11.779624 -0.055430
v 1.612793 -11.891334 -1.402585
v 1.675049 -11.891334 -1.419238
v 1.512222 -11.891334 -1.050814
v 1.559080 -11.891334 -1.041085
v 1.721192 -11.891334 -1.431255
v 1.773926 -11.891334 -1.453379
v 1.680301 -11.891334 -1.066333
v 1.726955 -11.891334 -1.056449
v 1.644043 -11.862647 -1.410911
v 1.535651 -11.862647 -1.045949
v 1.703526 -11.862647 -1.061453
v 1.747315 -11.862647 -1.442379
v 1.644043 -11.862647 -1.410911
v 1.535651 -11.862647 -1.045949
v 1.703526 -11.862647 -1.061453
v 1.747315 -11.862647 -1.442379
v 1.914307 -11.891334 -0.346017
v 1.974365 -11.891334 -0.369405
v 2.066406 -11.891334 -0.026571
v 2.110840 -11.891334 -0.044896
v 1.944336 -11.862647 -0.357860
v 2.088623 -11.862647 -0.035631
v 1.944336 -11.862647 -0.357860
v 2.088623 -11.862647 -0.035631
vt -1.485651 -2.070756
vt -1.485651 -2.070756
vt -1.485651 -2.070756
vt -1.485651 -2.070756
vt -1.485651 -2.070756
vt -1.485651 -2.070756
vt -1.485651 -2.070756
vt -1.485651 -2.070756
vt -1.485651 -2.070756
vt -1.485651 -2.070756
vt -1.485651 -2.070756
vt -1.485651 -2.070756
vt -1.485651 -2.070756
vt -1.485651 -2.070756
vt -1.485651 -2.070756
vt -1.485651 -2.070756
vt -1.485651 -2.070756
vt -1.485651 -2.070756
vt 0.924251 0.517747
vt 0.301627 0.058332
vt 0.019725 0.344806
vt 0.089977 -0.151193
vt 1.128645 0.925316
vt 0.019725 0.344805
vt -0.191925 0.135280
vt 0.546674 1.516725
vt 0.903633 1.153978
vt -0.516055 0.464667
vt 0.536248 -0.604702
vt 0.301627 0.058332
vt 1.598734 0.447603
vt 1.113853 -0.199741
vt 2.439041 -0.199738
vt 1.113853 0.000000
vt 1.320191 0.827030
vt 1.320191 0.827030
vt 0.147554 -0.065688
vt 0.244334 0.784159
vt 1.320191 0.827030
vt 1.320191 0.827030
vt 1.320191 0.827030
vt 1.323136 0.484629
vt 1.320191 0.827030
vt 1.320191 0.827030
vt 0.924251 0.517747
vt 0.924251 0.517747
vt 0.924251 0.517747
vt 0.924251 0.517747
vt 0.924251 0.517747
vt 1.346122 0.738511
vt 0.494979 0.723347
vt 0.499431 0.749736
vt 1.756547 0.889296
vt -0.001624 0.999992
vt 1.739090 0.854453
vt 1.690171 0.977563
vt 1.919393 0.003791
vt 1.341668 0.096525
vt 1.341666 0.011451
vt -0.001458 0.025457
vt 0.494977 0.019751
vt 0.494977 0.107750
vt 1.873645 0.102386
vt 1.887304 0.145831
vt 1.754177 0.653505
vt 1.799012 0.819167
vt 1.341670 0.712122
vt 0.494979 0.723347
vt 1.733775 0.362233
vt 1.760115 0.601258
vt 1.346120 0.122913
vt 1.341670 0.712122
vt 1.801818 0.234330
vt 0.499431 0.634294
vt 0.494979 0.723347
vt 0.494977 0.107750
vt 1.341668 0.096525
vt 0.499429 0.134138
vt 1.341670 0.712122
vt 1.919395 -0.000009
vt -0.574496 0.004878
vt -0.749628 -0.193116
vt -0.941082 0.004878
vt -0.584704 -0.193116
vt 0.006007 0.863632
vt 0.013369 0.800672
vt 0.097804 0.802655
vt 0.090441 0.865615
vt 2.126369 -0.193116
vt 2.136577 0.004878
vt 1.868147 -0.193116
vt 1.878355 0.004878
vt 0.054657 -0.193116
vt 0.064865 0.004878
vt 0.183006 0.004878
vt 0.172798 -0.193116
vt -1.347040 -0.193116
vt -1.336832 0.004878
vt 0.830075 -0.193116
vt 0.824573 0.004878
vt -0.000004 0.999996
vt 0.173561 0.847769
vt 0.169440 0.976511
vt 0.008152 0.885944
vt 0.690167 0.815718
vt 0.687022 0.940235
vt 0.999996 0.877133
vt 0.999996 0.988029
vt 1.811564 0.258287
vt 1.733775 0.362233
vt 1.801818 0.234330
vt 1.312735 -0.054555
vt 1.307606 1.054200
vt 0.868395 0.967932
vt 0.214209 1.097982
vt 3.149803 0.999986
vt -1.980171 -0.000014
vt 3.102085 -0.000014
vt -1.698067 0.999986
vt 0.984249 0.044150
vt 0.817664 1.025341
vt -0.015751 0.025341
vt 0.146473 1.013872
vt -1.647937 1.009599
vt -1.575012 0.009599
vt 2.438933 0.009599
vt 2.222947 1.009599
vt 0.008866 0.848837
vt 1.366118 0.992311
vt -0.138840 0.999999
vt -0.188222 0.849730
vt 1.090264 0.084858
vt 1.366114 -0.000001
vt 1.366118 0.992311
vt 0.783553 0.005737
vt -1.644020 0.107280
vt -1.591304 0.015365
vt 0.783555 0.086452
vt -0.020581 0.398484
vt -0.200310 0.232748
vt 1.090263 0.004143
vt -0.054693 0.490204
vt 0.783557 0.627683
vt -1.751040 0.179576
vt 1.090266 0.626089
vt -0.120274 0.721240
vt -0.035815 0.761185
vt -0.075129 0.425310
vt 1.089679 0.291033
vt 1.185416 0.290358
vt 0.857708 0.028023
vt 1.218355 -0.194488
vt 1.219757 0.028023
vt 1.095395 -0.011494
vt 1.191132 -0.012168
vt 0.856306 -0.194488
vt 1.399805 0.028023
vt 1.265638 0.028023
vt 1.264236 -0.194488
vt 1.398403 -0.194488
vt 1.210375 0.709610
vt 1.114637 0.710284
vt 1.217093 0.754585
vt 1.121355 0.755260
vt 1.220646 0.842990
vt 1.124909 0.843665
vt 0.527254 0.847706
vt 1.038043 0.828008
vt 1.041947 0.977556
vt 0.533743 0.999468
vt 1.207193 0.829572
vt 1.211121 0.979141
vt -0.226867 1.000002
vt -0.233177 0.848394
vt 0.489101 0.000007
vt 0.327492 0.967320
vt 0.489107 0.965363
vt 0.327486 0.001964
vt 0.690204 0.998050
vt 0.528583 0.034651
vt 0.690198 0.032694
vt 0.528589 1.000007
vt -0.000014 0.001632
vt 0.999960 0.000009
vt 0.999986 0.998439
vt -0.000011 1.000009
vt 0.934115 0.798174
vt 1.000018 0.804507
vt 0.993214 0.976698
vt 0.877265 1.000016
vt 0.877265 1.000016
vt 0.522685 0.757517
vt 0.934115 0.798174
vt 0.971039 0.034751
vt 0.522685 0.757517
vt 0.036942 0.000016
vt 0.000018 0.763439
vt 0.960461 0.981069
vt 1.323136 0.122559
vt 0.006473 0.100533
vt -0.037086 0.924607
vt 0.009333 0.999836
vt 1.323136 0.908867
vt 1.464702 -0.000008
vt -0.491222 0.661055
vt -0.438230 -0.000008
vt 1.146259 0.999992
vt -0.438349 0.999992
vt 1.554425 1.040038
vt 2.006718 0.040038
vt -0.830379 0.040038
vt -0.407035 1.040038
vt 1.745871 0.052344
vt -0.788407 0.052344
vt -0.743473 1.052343
vt 1.281803 1.052343
vt 0.717191 0.433028
vt 0.836613 0.523264
vt 1.084677 0.251364
vt 1.024567 0.264582
vt 1.074039 0.204245
vt 0.743815 0.725672
vt 0.971618 0.084499
vt 1.126325 0.095279
vt 0.867431 0.000021
vt 1.022139 0.010801
vt 0.717954 0.948568
vt 0.898523 0.736453
vt 0.872661 0.959349
vt 0.304463 0.263351
vt 0.319558 0.231553
vt 0.462924 0.384055
vt 0.161355 0.205481
vt 0.067600 0.261769
vt 0.232623 0.275950
vt 0.121836 0.769203
vt 1.330391 1.000000
vt 1.330387 0.053374
vt 0.407427 0.645577
vt 0.087801 0.037649
vt 0.419939 0.704529
vt 0.652731 0.946078
vt 0.290901 0.798303
vt 0.362740 0.785704
vt 1.064612 0.769203
vt 0.247718 0.244152
vt 0.868444 0.769203
vt 0.173561 0.847769
vt -1.793446 0.012862
vt 1.669183 0.012862
vt 1.816715 0.755089
vt -1.937656 0.755089
vt 2.345059 0.035921
vt 0.027323 0.782445
vt 0.222734 0.035921
vt -4.545171 0.035921
vt -1.623094 0.035921
vt -4.820294 0.782446
vt -1.445730 0.782444
vt 2.636911 0.782445
vt 0.989476 0.020342
vt 0.883609 0.757944
vt 0.085564 0.757944
vt -0.010524 0.020344
vt 2.359096 -0.994703
vt 2.203635 -0.237494
vt -1.485066 -0.237494
vt -1.638956 -0.994696
vt 2.126472 0.754171
vt 1.535146 0.000000
vt -1.578279 -0.000000
vt -0.936627 0.754171
vt 1.742124 0.753255
vt -0.443309 0.013818
vt 1.393301 0.013818
vt -0.064797 0.753255
vt 1.735204 0.765359
vt 1.975924 0.010575
vt -0.942478 0.765358
vt -0.941780 0.010575
vt 0.690164 0.815717
vt 0.903222 1.154395
vt -0.170991 0.387471
vt 0.262739 -0.064588
vt 0.342288 1.092788
vt 1.517450 0.979853
vt 1.517450 0.904350
vt 1.517450 0.775075
vt 1.517449 0.665551
vt 1.517448 0.215641
vt 1.544862 0.063909
vt 1.544862 0.008757
vt 2.583222 -0.000014
vt 2.670561 0.999986
vt -1.432553 0.009599
vt -1.377348 1.009599
vt 1.185457 0.035921
vt 1.252869 0.782445
vt 0.415069 0.832786
vt 0.801237 1.060240
vt -0.149798 0.382730
vt -0.328237 0.273802
vt 0.919894 1.137452
vt 0.801237 1.060240
vt 0.232930 -0.064873
vt 0.371118 1.096650
vt 0.263573 1.096005
vt 1.592427 0.008126
vt 1.592427 0.056274
vt 0.690167 0.815718
vt 0.999993 0.877132
vt 1.558598 0.979307
vt 1.558598 0.901759
vt 1.558597 0.681297
vt 1.558597 0.654649
vt 1.558596 0.243525
vt 1.558596 0.161490
vt 1.594749 0.119395
vt 1.595837 0.099325
vt 1.592428 0.054625
vt 0.574701 0.957487
vt 0.574699 0.780112
vt 0.574699 0.655393
vt 0.574696 0.190392
vt 0.574695 0.173343
vt 0.574695 0.145289
vt 0.574694 0.074486
vt 0.574693 0.018247
vt 1.320191 0.827030
vt 1.320191 0.827030
vt 1.320191 0.827030
vt 2.706832 -0.000014
vt 2.794585 0.999986
vt -1.528382 0.009599
vt -1.473177 1.009599
vt 1.115271 0.035885
vt 1.177118 0.782445
vt 0.555579 0.892350
vt 0.485120 0.905713
vt 0.555656 0.892393
vt 0.562630 0.896249
vt 0.495140 0.911254
vt 0.562522 0.896190
vt -0.246657 0.008655
vt 0.955484 0.745483
vt 0.716657 0.979260
vt 0.720677 0.981411
vt 0.862588 0.550095
vt 1.057269 0.550095
vt 0.304270 0.795958
vt 1.057170 0.550095
vt 1.399893 0.550095
vt 0.498364 0.903201
vt 0.245370 0.273715
vt 0.259500 0.242086
vt 0.263802 0.241331
vt 0.066545 0.256347
vt 0.860982 0.550095
vt 0.115401 0.550095
vt 0.113277 0.154162
vt -0.235244 0.099049
vt -0.530135 0.121113
vt 0.661327 0.028023
vt 0.671252 -0.194488
vt -1.463527 0.124972
vt -1.622486 0.181394
vt -1.096238 0.123454
vt 1.484053 1.816648
vt 1.207385 2.020983
vt 1.207385 1.816648
vt 1.758802 2.020983
vt 1.484053 2.020983
vt 1.484053 1.816648
vt 1.484053 2.020983
vt 1.956710 1.816648
vt 2.708774 1.816648
vt 2.705866 2.020983
vt 3.885195 1.816648
vt 3.888342 2.020983
vt 1.959464 2.020983
vt 1.760417 1.816648
vt 2.684572 1.766167
vt 2.955512 1.766167
vt 2.964081 0.992126
vt 1.787250 0.992126
vt 1.615032 0.992126
vt 1.606462 1.766167
vt 1.778681 1.766167
vt 1.615032 0.992126
vt 1.164882 0.992126
vt 1.156312 1.766167
vt 1.606462 1.766167
vt 2.693141 0.992126
vt 2.684572 1.766167
vt 1.884448 0.992126
vt 1.875879 1.766167
vt 2.693141 0.992126
vt 1.778681 1.766167
vt 1.875879 1.766167
vt 1.884448 0.992126
vt 1.787250 0.992126
vt 2.955512 1.766167
vt 3.806051 1.766167
vt 3.814620 0.992126
vt 2.964081 0.992126
vt 2.109591 0.960973
vt 1.619189 1.769294
vt 1.678849 0.960973
vt 2.068503 1.769294
vt 2.068501 1.627701
vt 2.473690 1.605935
vt 2.499934 0.960967
vt 2.068493 0.960973
vt 2.467043 1.769287
vt 2.068501 1.649066
vt 1.619189 1.769294
vt 2.109602 1.769294
vt 1.578061 0.906032
vt 1.619109 1.769300
vt 1.500016 1.346373
vt 1.678849 0.960973
vt -0.805547 0.122252
vt 3.316178 1.816648
vt 3.301499 2.020983
vt -1.076243 0.012795
vt -0.728507 0.011059
vt -0.487317 0.009856
vt -1.553836 0.157027
vt 1.847268 2.020983
vt 1.845180 1.816648
vt -1.459027 0.014705
vt -1.312696 0.013975
vt -1.478159 0.130166
vt 1.941962 2.020983
vt 1.938634 1.816648
vt -1.195034 0.013387
vt -1.524066 0.146460
vt 1.881943 1.816648
vt 1.883281 2.020983
vt -1.517093 0.143985
vt 1.890554 1.816648
vt 1.892699 2.020983
vt 2.774666 -0.193116
vt 2.784874 0.004878
vt 0.113277 0.154162
vt 1.406336 0.769203
vt 0.832969 0.003099
vt 0.089067 0.003099
vt 1.370859 0.003099
vt 1.029136 0.003099
vt 0.113277 0.154162
vt 0.113277 0.154162
vt 0.113277 0.154162
vt 0.113277 0.154162
vt 0.113277 0.154162
vt 0.113277 0.154162
vt 0.113277 0.154162
vt 0.113277 0.154162
vt 0.113277 0.154162
vt 0.113277 0.154162
vt 0.113277 0.154162
vt 1.855024 -0.194488
vt 1.856426 0.028023
vt -1.501873 0.138583
vt 1.909336 1.816648
vt -1.441662 0.100089
vt -1.495381 0.136279
vt 1.911746 1.936256
vt 1.917402 1.816648
vt -1.498667 0.137445
vt 1.913390 1.816648
vt -1.430432 0.088863
vt -1.401742 0.072628
vt 1.891029 1.861944
vt 1.901887 1.908129
vt -1.515433 0.143396
vt -1.505210 0.139768
vt 1.892609 1.816648
vt 1.905295 1.816648
vt 1.932596 2.020983
vt 1.940514 1.932112
vt 1.940478 1.929853
vt 1.945547 2.020983
vt 1.724960 1.594953
vt 1.816462 0.960973
vt 0.211948 0.213819
vt 0.165227 0.147519
vt 1.739573 0.960973
vt 0.231835 0.003099
vt 0.452359 0.433842
vt 0.603645 0.411272
vt 0.160403 0.003099
vt 2.372431 0.992126
vt 0.720662 0.202946
vt 0.720662 0.214464
vt 0.839983 0.365737
vt 2.211565 0.992126
vt 0.900842 0.332385
vt 2.217486 1.233660
vt 2.284304 0.992126
vt 1.757380 0.294400
vt 0.540416 -0.193116
vt 1.768056 0.316425
vt 0.359576 -0.193116
vt 1.789458 0.287826
vt 0.355363 -0.047861
vt 0.469893 -0.193116
vt -0.378485 0.172441
vt 0.756345 -0.194488
vt 0.754671 -0.078501
vt 0.786302 -0.045800
vt -0.246584 0.217085
vt 0.830345 -0.194488
vt 0.796372 -0.194488
vt 0.900916 -0.075085
vt 0.962293 0.028023
vt 0.906286 0.028023
vt 3.806877 1.691538
vt 2.956474 1.679206
vt 0.883607 0.735413
vt 0.858298 0.958348
vt 1.915905 1.673872
vt 2.621791 1.694592
vt 2.656116 1.695601
vt 2.623779 1.510927
vt 1.876914 1.672712
vt 1.779830 1.662399
vt 1.779812 1.663951
vt 1.607578 1.665371
vt 1.607573 1.665847
vt 1.099567 0.093415
vt 1.157795 1.632293
vt 2.956631 1.665021
vt 2.685714 1.663014
vt 2.316660 1.769289
vt 2.299209 1.615307
vt 2.261524 1.329405
vt 2.200088 1.769292
vt 2.222386 1.619434
vt 2.236453 1.776046
vt 2.229688 1.616562
vt 0.564323 0.769203
vt 0.535098 0.550095
vt 0.480149 0.272050
vt 0.466778 0.550095
vt 0.470136 0.769203
vt 0.487428 0.752825
vt 0.477196 0.533716
vt 2.436199 1.337039
vt 2.417496 1.335038
vt 2.466641 1.690038
vt 2.523125 1.766167
vt 2.358295 1.686858
vt 2.370862 1.766166
vt 2.424641 1.688002
vt 2.456582 1.765952
vt 1.366114 0.077390
vt 1.320191 0.827030
vt 1.320191 0.827030
vt 1.320191 0.827030
vt 1.563218 2.020983
vt 1.617825 1.864097
vt 1.662368 2.012169
vt 1.608971 2.004188
vt -0.580664 -0.114753
vt -0.305743 0.004878
vt -0.486411 0.004880
vt 0.825837 -0.040603
vt 0.825837 -0.040596
vt 1.876305 -0.034899
vt 1.876306 -0.034871
vt 2.134506 -0.035304
vt 2.134502 -0.035367
vt 0.180615 -0.041509
vt 0.180530 -0.043155
vt 0.062759 -0.035964
vt 0.062760 -0.035964
vt -0.389998 -0.031786
vt -0.390770 -0.032121
vt -0.517191 -0.034188
vt -0.576613 -0.035558
vt -0.576561 -0.035558
vt -0.898752 -0.037280
vt -0.901021 -0.037449
vt 1.484053 1.976806
vt 1.484053 1.980028
vt 1.579948 1.972920
vt 1.579948 1.972919
vt 1.611481 1.964474
vt 1.611516 1.963931
vt 1.646324 1.958834
vt 1.646290 1.958724
vt 1.759270 1.961775
vt 1.759268 1.961992
vt 1.846517 1.947483
vt 1.846507 1.946517
vt 1.882949 1.970221
vt 1.885895 1.967327
vt 1.882949 1.970197
vt 1.892153 1.968951
vt 1.897414 1.963076
vt 1.934131 1.969055
vt 1.958547 1.952931
vt 1.958538 1.952262
vt 2.706938 1.945679
vt 2.706933 1.946071
vt 3.306183 1.955776
vt 3.306183 1.955782
vt 3.887282 1.952169
vt 0.664667 -0.046849
vt 0.857085 -0.070973
vt 0.857082 -0.071373
vt 1.219288 -0.046430
vt 1.219290 -0.046118
vt 1.265139 -0.051106
vt 1.265138 -0.051251
vt 1.399390 -0.037810
vt 1.399387 -0.038200
vt 2.208227 1.996156
vt -0.117326 1.996156
vt -0.117235 2.011069
vt 2.208318 2.011069
vt 0.246826 1.996156
vt 0.240651 2.011069
vt 0.327486 0.001964
vt 0.489101 0.000007
vt 0.528583 0.034651
vt 0.690198 0.032694
vt 2.205854 2.011069
vt 2.208318 2.011069
vt 2.208227 1.996156
vt 0.564323 0.769203
vt 0.535098 0.550095
vt 0.864713 0.659649
vt 0.549711 0.659649
vt 0.549711 0.659649
vt 0.549711 0.659649
vt 0.549711 0.659649
vn -0.005853 -0.005468 0.999968
vn 0.000553 0.001911 0.999998
vn 0.982957 -0.000030 -0.183836
vn 0.975894 0.103951 -0.191899
vn 1.000000 0.000000 0.000000
vn 0.885746 -0.000021 -0.464171
vn 1.000000 0.000000 0.000000
vn 1.000000 0.000000 0.000000
vn -1.000000 0.000000 0.000000
vn 1.000000 0.000000 0.000000
vn 1.000000 0.000000 0.000000
vn 1.000000 0.000000 0.000000
vn -0.140555 0.223380 0.964544
vn 0.016140 -0.018458 0.999699
vn -0.002384 -0.000084 0.999997
vn 0.000000 0.000000 1.000000
vn 0.000000 0.000000 1.000000
vn -0.928849 0.039682 -0.368327
vn -0.917363 0.026369 -0.397177
vn -0.000154 0.999998 0.002178
vn 0.706246 0.707967 0.000000
vn -1.000000 0.000000 0.000000
vn -1.000000 0.000000 0.000000
vn -1.000000 0.000000 0.000000
vn -1.000000 0.000000 0.000000
vn 1.000000 0.000291 0.000000
vn 1.000000 0.000291 0.000000
vn 0.708107 0.706106 0.000000
vn 0.000032 1.000000 -0.000088
vn 1.000000 0.000000 0.000000
vn 0.000000 1.000000 0.000000
vn -1.000000 0.000000 0.000000
vn 0.018907 -0.028977 0.999401
vn -1.000000 -0.000002 -0.000032
vn 0.000000 1.000000 -0.000093
vn -1.000000 -0.000002 -0.000032
vn 0.000000 0.000000 -1.000000
vn 0.000000 1.000000 0.000000
vn 1.000000 0.000000 0.000000
vn 1.000000 0.000000 0.000000
vn -1.000000 0.000000 0.000000
vn -1.000000 0.000000 0.000000
vn 0.000000 -1.000000 0.000000
vn 0.000000 -1.000000 0.000000
vn 1.000000 0.000000 0.000000
vn 1.000000 0.000000 0.000000
vn 0.000000 1.000000 0.000000
vn -1.000000 -0.000002 -0.000032
vn -0.002791 0.000870 0.999996
vn -0.002508 0.000727 0.999997
vn -0.004511 0.000568 0.999990
vn -0.002934 -0.000002 0.999996
vn -0.003939 0.000161 0.999992
vn 0.001293 -0.004141 0.999991
vn -0.003221 0.002731 0.999991
vn -0.005783 -0.005367 0.999969
vn -0.004920 -0.007606 0.999959
vn -0.003708 -0.000002 0.999993
vn -0.004886 0.000801 0.999988
vn -0.003821 -0.000001 0.999993
vn -0.004155 0.000452 0.999991
vn -0.003553 0.000314 0.999994
vn -0.003705 0.000007 0.999993
vn -0.004442 0.000503 0.999990
vn 0.000000 0.000000 0.000000
vn -0.007242 0.999944 -0.007680
vn 0.000000 0.000000 0.000000
vn -0.999999 0.000881 0.001190
vn 0.029270 -0.027069 0.999205
vn 0.010499 0.015247 0.999829
vn 0.017155 0.011045 0.999792
vn 0.012491 -0.025413 0.999599
vn -0.003472 -0.000136 0.999994
vn -0.012426 0.999917 -0.003419
vn 0.000000 0.000000 -1.000000
vn 0.000000 0.000000 -1.000000
vn 0.000000 0.000000 -1.000000
vn -0.000000 1.000000 0.000001
vn -0.000001 1.000000 0.000001
vn 0.000000 -1.000000 0.000000
vn -1.000000 0.000357 0.000483
vn 1.000000 0.000000 0.000000
vn 0.000000 0.000000 1.000000
vn -0.000142 -0.000145 -1.000000
vn 0.000000 0.000000 -1.000000
vn 0.000000 0.000000 -1.000000
vn 1.000000 0.000000 0.000000
vn -1.000000 0.000000 0.000000
vn 0.000000 0.000000 -1.000000
vn 1.000000 0.000000 0.000000
vn 0.000000 1.000000 0.000000
vn 1.000000 0.000000 0.000000
vn 0.000000 0.000000 1.000000
vn 0.000000 0.000000 1.000000
vn -0.926143 -0.000019 -0.377172
vn -0.926143 -0.000019 -0.377172
vn 0.000000 0.000000 1.000000
vn -0.799341 0.008871 -0.600812
vn -0.961009 -0.207948 0.182263
vn 0.000000 0.000000 1.000000
vn 0.000000 0.000000 1.000000
vn 0.000000 0.000000 1.000000
vn 0.000000 0.000000 1.000000
vn 0.000000 0.000000 0.000000
vn 0.966940 0.000105 0.255005
vn 0.000000 1.000000 0.000000
vn -0.000002 1.000000 -0.000001
vn -0.000010 1.000000 0.000004
vn 0.000019 1.000000 -0.000001
vn 0.656666 0.000310 0.754181
vn 0.000005 -0.000411 -1.000000
vn -0.939624 -0.000012 -0.342209
vn 0.656666 0.000310 0.754181
vn -0.323786 0.120710 0.938398
vn 0.979547 0.000083 0.201214
vn -0.000000 1.000000 0.000003
vn -0.939618 -0.000018 -0.342226
vn -0.926143 -0.000019 -0.377172
vn -0.356155 -0.000046 0.934427
vn -0.926143 -0.000019 -0.377172
vn -0.000001 1.000000 0.000002
vn 0.000002 1.000000 0.000005
vn -0.000010 1.000000 0.000000
vn -0.939626 -0.000008 -0.342203
vn 0.000000 1.000000 0.000000
vn -0.000003 1.000000 -0.000003
vn -0.989852 0.016978 -0.141083
vn -0.980372 0.111037 -0.162913
vn -0.904040 0.000145 -0.427447
vn -0.919422 -0.387639 0.066330
vn -0.853461 -0.446933 0.268057
vn -0.910295 -0.046313 0.411361
vn 0.000000 1.000000 0.000000
vn -1.000000 0.000000 0.000000
vn -1.000000 0.000000 0.000000
vn 0.000000 0.000000 -1.000000
vn 1.000000 0.000000 0.000000
vn 0.000000 0.000000 -1.000000
vn -0.985461 0.111613 -0.128102
vn 0.247409 -0.068039 0.966519
vn -0.939616 -0.000008 -0.342232
vn -0.990610 0.005157 -0.136623
vn 0.966940 0.000105 0.255005
vn 0.669481 0.150256 0.727474
vn -0.932634 -0.000672 -0.360824
vn 0.000000 1.000000 0.000000
vn 0.000000 0.000000 -1.000000
vn -0.000075 -0.000065 -1.000000
vn -0.984091 0.000000 0.177668
vn -0.791647 0.000000 -0.610979
vn -0.971495 0.000000 -0.237061
vn -0.820317 0.000000 0.571909
vn -0.820317 -0.000000 0.571909
vn -0.155067 0.000000 0.987904
vn -0.952971 0.000000 0.303060
vn -0.996913 0.000000 0.078519
vn -0.996913 0.000000 0.078519
vn -1.000000 0.000000 0.000000
vn 0.000000 1.000000 0.000000
vn -1.000000 0.000000 0.000000
vn -1.000000 0.000000 0.000000
vn 0.955334 -0.000121 -0.295527
vn 0.000000 1.000000 0.000000
vn -0.000011 0.000050 -1.000000
vn -0.405331 0.265739 0.874694
vn 0.954009 -0.004875 -0.299739
vn 0.577784 0.000336 0.816190
vn 0.966940 0.000105 0.255005
vn 0.979547 0.000083 0.201214
vn 0.966940 0.000105 0.255005
vn 0.656666 0.000310 0.754181
vn 0.656666 0.000310 0.754181
vn 0.944461 0.201114 0.259899
vn -0.000181 0.000014 -1.000000
vn 0.000000 0.000000 -1.000000
vn -0.000024 0.000034 -1.000000
vn 0.000000 0.000000 1.000000
vn 0.000000 0.000000 1.000000
vn 0.794470 -0.000013 -0.607303
vn 0.794470 -0.000013 -0.607303
vn -0.000172 1.000000 0.000463
vn 0.000022 1.000000 0.000004
vn -0.000003 1.000000 0.000002
vn 0.000002 1.000000 0.000002
vn 0.000002 1.000000 0.000003
vn 0.885745 -0.000019 -0.464172
vn 0.000000 1.000000 0.000000
vn 0.000005 1.000000 -0.000002
vn 0.000004 1.000000 -0.000003
vn 0.619416 0.781698 0.072606
vn -0.000011 0.000022 -1.000000
vn 0.000000 1.000000 0.000005
vn 0.000000 1.000000 0.000000
vn 0.000000 1.000000 0.000000
vn -0.000000 1.000000 0.000000
vn 1.000000 0.000000 0.000000
vn -0.000000 1.000000 0.000000
vn -1.000000 0.000000 0.000000
vn -1.000000 0.000000 0.000000
vn 0.000006 1.000000 0.000003
vn 0.000002 1.000000 0.000001
vn 0.000001 1.000000 0.000001
vn -0.000001 1.000000 0.000000
vn -0.000000 1.000000 0.000001
vn -0.001470 0.999998 0.001704
vn 0.000001 1.000000 0.000000
vn -0.000292 1.000000 0.000149
vn -0.000001 1.000000 0.000006
vn -0.004162 0.999981 0.004448
vn -0.931284 -0.364295 0.000000
vn -0.798128 -0.090794 0.595608
vn -0.913739 0.149407 0.377833
vn -0.877058 -0.431850 0.210416
vn -0.674433 -0.301901 0.673792
vn -0.789478 -0.259242 0.556344
vn -0.356155 -0.000046 0.934427
vn -0.985545 -0.000041 0.169413
vn -0.356155 -0.000046 0.934427
vn -0.991612 -0.000040 0.129246
vn -0.991613 -0.000038 0.129246
vn -0.985545 -0.000041 0.169413
vn -0.356155 -0.000046 0.934427
vn -0.650587 -0.000054 0.759432
vn -0.985545 -0.000041 0.169413
vn -0.648903 0.073465 0.757316
vn -0.991613 -0.000039 0.129246
vn -0.677985 0.076758 0.731057
vn -0.659366 0.023125 0.751467
vn -0.985545 -0.000041 0.169413
vn -0.312580 -0.000170 0.949892
vn -0.806604 0.523837 0.273834
vn -0.802111 0.493615 0.336099
vn -0.803983 0.503629 0.316180
vn -0.807224 0.533019 0.253535
vn 0.000000 0.000000 1.000000
vn 0.000000 0.000000 1.000000
vn -0.931279 -0.364308 0.000015
vn 0.000000 0.000000 1.000000
vn 0.000000 0.000000 1.000000
vn 0.000000 0.000000 1.000000
vn 0.000000 0.000000 1.000000
vn 0.000000 0.000000 1.000000
vn -0.000002 1.000000 -0.000001
vn -0.000000 1.000000 0.000002
vn 0.000007 1.000000 -0.000019
vn 0.000012 1.000000 -0.000034
vn 0.000001 1.000000 -0.000051
vn 0.000000 1.000000 0.000000
vn -0.000001 1.000000 0.000005
vn -0.003124 0.999975 -0.006312
vn 0.000000 1.000000 0.000000
vn 0.000000 1.000000 0.000000
vn 0.000000 1.000000 0.000000
vn 0.000000 1.000000 0.000000
vn 0.000000 1.000000 0.000000
vn 0.000000 1.000000 0.000003
vn -0.000137 1.000000 -0.001028
vn 0.000000 1.000000 0.000000
vn 0.000000 1.000000 0.000000
vn 0.911939 0.070594 0.404207
vn 0.944510 0.201926 0.259089
vn 0.995710 -0.000038 -0.092533
vn 0.926980 -0.276525 0.253460
vn 0.912358 0.070389 0.403297
vn 0.878182 -0.290899 0.379703
vn 0.871060 -0.290593 0.395992
vn 0.897833 -0.293183 0.328543
vn 0.501767 -0.000355 -0.865003
vn 0.995710 -0.000038 -0.092533
vn 0.996095 -0.000036 -0.088284
vn 0.746414 -0.218374 0.628633
vn 0.501767 -0.000355 -0.865003
vn 0.996095 -0.000036 -0.088284
vn 0.902121 0.000177 0.431484
vn 0.568703 -0.371469 0.733885
vn 0.793162 -0.166032 0.585942
vn 0.501767 -0.000356 -0.865003
vn 0.501767 -0.000356 -0.865003
vn 0.996095 -0.000036 -0.088284
vn 0.996095 -0.000036 -0.088284
vn 0.995710 -0.000038 -0.092533
vn 0.995710 -0.000038 -0.092533
vn 1.000000 0.000000 0.000000
vn 1.000000 0.000000 0.000000
vn -1.000000 0.000000 0.000000
vn -1.000000 0.000000 0.000000
vn -1.000000 0.000000 0.000000
vn -1.000000 0.000000 0.000000
vn -1.000000 0.000000 0.000000
vn -1.000000 0.000525 0.000710
vn 0.944511 0.201939 0.259076
vn 0.908672 0.072470 0.411172
vn 0.907922 0.072907 0.412750
vn 0.944559 0.202751 0.258266
vn 0.753807 -0.332781 0.566597
vn 0.000000 0.000000 1.000000
vn 0.000000 0.000000 1.000000
vn 0.000000 0.000000 1.000000
vn 0.909308 0.071909 0.409863
vn 0.000000 0.000000 1.000000
vn 0.000000 0.000000 1.000000
vn 0.000000 0.000000 1.000000
vn 0.000000 0.000000 1.000000
vn 0.000000 0.000000 1.000000
vn 0.000000 0.000000 1.000000
vn 0.000000 0.000000 1.000000
vn -1.000000 0.000000 0.000000
vn -1.000000 0.000000 0.000000
vn -1.000000 0.000000 0.000000
vn -0.791647 0.000000 -0.610979
vn -0.743949 0.223346 0.629806
vn -0.996913 0.000000 0.078519
vn -0.996913 0.000000 0.078519
vn -0.984090 0.000000 0.177668
vn -0.971494 0.000000 -0.237062
vn -0.820339 0.000016 0.571877
vn -0.155067 0.000000 0.987904
vn -0.952971 0.000000 0.303060
vn -0.961688 0.000000 -0.274146
vn -0.771789 0.000000 -0.635879
vn -0.961688 0.000000 -0.274146
vn -0.771789 0.000000 -0.635879
vn -0.961688 0.000000 -0.274146
vn -0.771789 0.000000 -0.635879
vn -0.961688 0.000000 -0.274146
vn -0.771789 0.000000 -0.635879
vn 1.000000 0.000000 0.000000
vn -0.338030 0.266064 0.902743
vn 0.794470 -0.000013 -0.607303
vn 0.794470 -0.000013 -0.607303
vn 0.885743 -0.000021 -0.464176
vn 0.979058 0.024353 -0.202120
vn 0.885742 -0.000021 -0.464177
vn 0.732667 0.082961 0.675512
vn 0.970751 -0.000040 0.240089
vn 0.540776 0.061225 0.838935
vn 0.536620 0.004610 0.843811
vn -0.272201 -0.000016 0.962240
vn 0.970751 -0.000039 0.240089
vn 0.381940 -0.000036 0.924187
vn -0.272201 -0.000016 0.962240
vn -0.067091 0.335532 0.939637
vn 0.381945 -0.000036 0.924185
vn 0.970751 -0.000040 0.240089
vn -0.205164 0.117666 0.971629
vn 0.970751 -0.000040 0.240089
vn 0.511614 -0.000037 0.859216
vn 0.528414 0.042323 0.847931
vn -1.000000 0.000000 0.000000
vn 1.000000 0.000000 0.000000
vn 0.001393 0.002101 -0.999997
vn 0.004408 0.001708 -0.999989
vn -0.000000 0.004223 -0.999991
vn 0.000000 0.000000 -1.000000
vn -0.000000 0.004223 -0.999991
vn 0.000000 0.000000 -1.000000
vn 0.001456 0.000564 -0.999999
vn -0.003493 0.001662 0.999992
vn -0.010711 -0.000002 0.999943
vn -0.010670 0.000000 0.999943
vn -0.003487 0.001578 0.999993
vn 0.000000 0.000000 1.000000
vn -0.003829 0.000453 0.999993
vn 0.000000 0.000000 1.000000
vn 0.000000 0.000000 1.000000
vn -0.000002 1.000000 0.000002
vn -0.000002 1.000000 0.000001
vn -0.000000 1.000000 0.000001
vn -0.000000 1.000000 0.000001
vn 0.000000 0.000000 1.000000
vn 0.000000 0.000000 1.000000
vn 0.000000 0.000000 1.000000
vn 0.000000 0.000000 1.000000
vn -0.004232 -0.033112 0.999443
vn -0.002570 -0.032627 0.999464
vn -0.004571 0.000663 0.999989
vn -0.003943 0.000361 0.999992
vn -0.004938 0.000725 0.999988
vn -0.004938 0.000725 0.999988
vn 0.000000 0.000000 1.000000
vn 0.000000 0.000000 1.000000
vn 0.000000 0.000000 1.000000
vn -0.000000 1.000000 0.000001
vn -0.000000 1.000000 0.000001
vn 0.000000 0.000000 -1.000000
vn -0.000001 1.000000 0.000002
vn -0.000001 1.000000 0.000001
vn -0.000007 1.000000 0.000004
vn -0.000002 1.000000 0.000002
vn -0.000001 1.000000 0.000002
vn 0.000000 0.000000 1.000000
vn 0.000000 0.000000 1.000000
vn 0.000000 0.000000 1.000000
vn 0.000000 0.000000 1.000000
vn 0.000000 0.000000 1.000000
vn 0.000000 0.000000 1.000000
vn 0.000000 0.000000 1.000000
vn -0.001661 -0.036163 0.999345
vn 0.000000 -0.035677 0.999363
vn 0.000000 0.000000 -1.000000
vn 0.000000 0.000000 -1.000000
vn 0.381942 -0.000044 0.924186
vn 0.381941 -0.000046 0.924187
vn 0.000022 1.000000 0.000004
vn 0.000022 1.000000 0.000004
vn 0.967548 -0.035556 0.250172
vn 0.980146 -0.016674 0.197575
vn 0.983230 -0.011127 0.182028
vn 0.971417 -0.030251 0.235444
vn -0.155067 0.000000 0.987904
vn -0.155067 0.000000 0.987904
vn -0.952971 0.000000 0.303060
vn -0.952971 0.000000 0.303060
vn -0.000005 1.000000 -0.000008
vn -0.001906 0.000425 0.999998
vn -0.003732 0.000414 0.999993
vn -0.001503 0.000222 0.999999
vn -0.008314 0.239150 0.970947
vn -0.000424 0.996076 0.088499
vn 0.890697 0.451859 0.049815
vn 0.000002 1.000000 -0.000001
vn 0.000012 1.000000 0.000009
vn 0.000000 1.000000 0.000000
vn 0.000033 1.000000 0.000034
vn 0.527064 0.008257 0.849785
vn 0.537384 0.058899 0.841278
vn 0.970751 -0.000040 0.240089
vn 0.970751 -0.000040 0.240089
vn 0.381942 -0.000038 0.924186
vn 0.794470 -0.000013 -0.607303
vn 0.794470 -0.000013 -0.607303
vn 0.983230 -0.011128 0.182029
vn 0.885745 -0.000020 -0.464172
vn -0.272201 -0.000016 0.962240
vn 0.885745 -0.000019 -0.464172
vn -0.139697 0.253187 0.957278
vn 0.981895 0.003051 -0.189403
vn 0.974233 0.096015 -0.204088
vn -0.242183 0.261147 0.934425
vn -0.000003 1.000000 -0.000007
vn -0.000002 1.000000 -0.000004
vn 0.576228 -0.003844 0.817280
vn 0.575649 -0.005389 0.817679
vn 0.798133 -0.002293 0.602477
vn 0.803330 -0.007752 0.595483
vn -0.000002 1.000000 0.000001
vn -0.053462 0.983022 0.175526
vn -0.378565 -0.058998 0.923692
vn -0.286076 -0.061141 0.956254
vn -0.000001 1.000000 -0.000002
vn -0.151201 -0.001166 0.988502
vn -0.336686 -0.003073 0.941612
vn -0.162589 0.982204 -0.094022
vn 0.714806 0.353700 0.603282
vn -0.000011 1.000000 -0.000003
vn -0.213661 -0.061216 0.974988
vn -0.295358 -0.080926 0.951953
vn -0.000003 1.000000 0.000002
vn -0.000006 1.000000 -0.000002
vn -0.000007 1.000000 -0.000004
vn -0.176682 0.795177 0.580067
vn 0.569749 0.156718 0.806738
vn 0.614826 0.201132 0.762585
vn 0.000000 1.000000 0.000004
vn -0.000001 1.000000 0.000004
vn -0.000002 1.000000 0.000003
vn -0.354459 -0.503366 0.788024
vn 0.018807 0.018127 0.999659
vn -0.000002 1.000000 0.000002
vn -0.022790 0.996936 0.074823
vn 0.252714 0.011952 0.967467
vn -0.187465 -0.243451 0.951624
vn 0.000001 1.000000 0.000004
vn 0.246732 0.008830 0.969044
vn -0.140252 -0.375952 0.915964
vn 0.999817 -0.019113 0.000075
vn 0.870804 0.439032 0.221248
vn 0.972457 0.188244 0.137445
vn 0.620447 0.303850 0.722994
vn 0.476070 -0.202455 0.855786
vn 0.178773 0.983675 -0.020573
vn 0.998542 0.035577 0.040606
vn 0.794350 0.008322 0.607403
vn 0.800906 0.005272 0.598767
vn -0.126595 -0.499517 0.857004
vn -0.596116 0.354821 0.720242
vn 0.997023 -0.010907 0.076332
vn 0.984523 -0.049324 0.168173
vn 0.634363 0.737756 0.230867
vn 0.519017 0.840857 0.153563
vn -0.162589 0.982204 -0.094022
vn 0.436071 0.899025 0.039940
vn 0.436071 0.899025 0.039940
vn -0.723286 0.107296 0.682162
vn -0.720348 0.006951 0.693578
vn -0.578808 -0.128568 0.805265
vn -0.633471 -0.081074 0.769507
vn -0.669860 -0.000023 0.742487
vn -0.607897 -0.021404 0.793728
vn 0.976906 -0.070891 0.201565
vn 0.994677 -0.038388 0.095627
vn 0.524981 0.208949 0.825067
vn 0.630886 0.250370 0.734369
vn -0.164116 0.985439 0.044442
vn -0.078609 0.007352 0.996878
vn -0.003758 0.999843 0.017336
vn 0.016506 0.999773 0.013473
vn -0.020782 -0.308221 0.951088
vn -0.064281 0.015870 0.997806
vn -0.010028 0.996741 0.080044
vn -0.801474 0.097953 0.589953
vn 0.534870 0.357471 0.765590
vn 0.534870 0.357471 0.765590
vn 0.534870 0.357471 0.765590
vn -0.801474 0.097953 0.589953
vn -0.801474 0.097953 0.589953
vn 0.000001 1.000000 0.000003
vn 0.000003 1.000000 0.000006
vn 0.110502 -0.154707 0.981761
vn 0.026833 -0.304694 0.952072
vn -0.935814 -0.007789 0.352407
vn 0.929952 0.171095 0.325448
vn -0.942690 0.022268 0.332926
vn 0.406165 0.913742 0.010250
vn 0.719455 0.670659 -0.180556
vn -0.374278 0.920198 -0.114677
vn 0.156424 0.987432 -0.022591
vn -0.219823 0.974917 0.034861
vn -0.935814 -0.007789 0.352407
vn -0.942690 0.022268 0.332926
vn 0.929952 0.171095 0.325448
vn -0.935814 -0.007789 0.352407
vn 0.929952 0.171095 0.325448
vn -0.942690 0.022268 0.332925
vn -0.083385 0.315551 0.945238
vn -0.204212 0.483601 0.851133
vn -0.159918 0.423214 0.891805
vn -0.272748 0.573871 0.772192
vn 0.063587 -0.006867 0.997953
vn -0.692947 0.144384 0.706384
vn 0.212380 0.057214 0.975511
vn -0.742629 -0.096704 0.662685
vn -0.354459 -0.503366 0.788024
vn -0.126595 -0.499517 0.857004
vn -0.354459 -0.503366 0.788024
vn -0.126595 -0.499517 0.857004
vn -0.183019 0.154695 0.970862
vn -0.067092 0.335532 0.939637
vn -0.000547 0.999999 0.001453
vn -0.000435 0.999998 0.001866
vn -0.948504 0.255955 0.186621
vn -0.948504 0.255955 0.186621
vn -0.948504 0.255955 0.186621
vn 0.584691 0.485579 0.649885
vn 0.584691 0.485579 0.649885
vn 0.584691 0.485579 0.649885
vn 0.966742 0.109493 -0.231130
vn 0.000002 1.000000 -0.000001
vn 0.000001 1.000000 -0.000001
vn 0.732667 0.082961 0.675512
vn 0.510192 0.392207 -0.765427
vn 0.510192 0.392207 -0.765427
vn 0.510192 0.392207 -0.765427
vn -0.820337 0.000048 0.571881
vn 0.000001 1.000000 -0.000000
vn 0.000017 1.000000 -0.000000
vn -0.410446 0.669443 0.619177
vn 0.000022 1.000000 -0.000050
vn -0.797121 0.084699 0.597849
vn -0.226242 0.718556 0.657641
vn -0.682088 0.679672 -0.269818
vn -0.682088 0.679672 -0.269818
vn -0.682088 0.679672 -0.269818
vn -0.226242 0.718556 0.657641
vn -0.226242 0.718556 0.657641
vn -0.001102 0.999999 0.000763
vn -0.669892 0.046102 0.741026
vn -0.003142 0.999994 0.001613
vn -0.650587 -0.000054 0.759432
vn -0.003142 0.999994 0.001617
vn -0.668830 0.041012 0.742283
vn -0.008686 -0.030682 0.999492
vn -0.697497 0.607677 -0.379773
vn -0.697497 0.607677 -0.379773
vn -0.697497 0.607677 -0.379773
vn -0.008686 -0.030682 0.999491
vn -0.008686 -0.030682 0.999492
vn 0.979547 0.000082 0.201214
vn 0.979547 0.000083 0.201215
vn 0.000000 1.000000 0.000000
vn 0.575650 -0.005389 0.817679
vn 0.567866 0.024449 0.822758
vn 0.576688 0.055815 0.815055
vn 0.000000 1.000000 0.000000
vn 0.713571 0.289896 0.637790
vn -0.594557 0.083349 0.799722
vn 0.542247 0.822498 -0.171653
vn 0.542247 0.822498 -0.171653
vn 0.542247 0.822498 -0.171653
vn -0.594557 0.083349 0.799722
vn -0.594557 0.083349 0.799722
vn 0.979547 0.000083 0.201215
vn 0.979547 0.000084 0.201214
vn 0.341847 -0.384511 0.857492
vn 0.341847 -0.384511 0.857492
vn 0.341847 -0.384511 0.857492
vn -0.952971 0.000000 0.303060
vn -0.952971 0.000000 0.303060
vn -0.996913 0.000000 0.078519
vn -0.996913 0.000000 0.078519
vn -0.820311 0.000010 0.571917
vn -0.820321 0.000007 0.571903
vn -0.155067 0.000000 0.987904
vn -0.155067 0.000000 0.987904
vn -0.961688 0.000000 -0.274146
vn -0.961688 0.000000 -0.274146
vn -0.984090 0.000000 0.177668
vn -0.971495 0.000000 -0.237062
vn -0.771789 0.000000 -0.635879
vn -0.771789 0.000000 -0.635879
vn 0.536429 0.043142 0.842842
vn 0.535447 0.052743 0.842920
vn 0.521958 0.025705 0.852584
vn 0.541619 0.025365 0.840242
vn 0.537165 0.045693 0.842238
vn -0.330186 0.124229 0.935705
vn -0.512772 -0.184069 0.838560
vn 0.937826 -0.231929 0.258247
vn 0.950451 -0.231617 0.207354
vn 0.941070 -0.294541 0.166233
vn 0.971167 -0.128563 0.200765
vn 0.970708 -0.169200 0.170580
vn -0.597694 -0.345122 0.723639
vn -0.505331 -0.202873 0.838739
vn -0.589368 -0.380068 0.712878
vn 0.846565 -0.080045 -0.526232
vn 0.768628 -0.107085 -0.630670
vn 0.950928 0.026000 -0.308317
vn 0.981432 0.029272 -0.189562
vn 0.981367 0.056845 -0.183539
vn 0.376933 -0.095730 -0.921280
vn 0.333059 -0.114638 -0.935911
vn 0.296105 -0.199065 0.934181
vn 0.300319 -0.114712 0.946916
vn 0.327784 0.005410 0.944737
vn 0.365552 0.066203 0.928434
vn 0.325964 -0.061253 0.943396
vn 0.732667 0.082961 0.675512
vn -0.820330 0.000034 0.571890
vn -0.820317 0.000020 0.571909
vn -0.820317 0.000001 0.571909
vn -0.820317 0.000019 0.571909
vn -0.820317 -0.000000 0.571909
vn -0.974708 -0.114964 -0.191646
vn -0.985526 -0.072530 -0.153225
vn -0.155712 -0.216516 0.963781
vn -0.156921 -0.178945 0.971264
vn -0.192350 -0.091025 0.977096
vn -0.191343 -0.123238 0.973756
vn -0.249736 0.009164 0.968271
vn -0.953842 -0.234551 -0.187543
vn -0.973543 -0.173886 -0.148250
vn -0.980095 -0.180979 -0.081612
vn 0.000005 1.000000 0.000006
vn 0.000005 1.000000 0.000006
vn 0.000005 1.000000 0.000006
vn 0.000000 1.000000 0.000000
vn 1.000000 0.000000 0.000000
vn 1.000000 0.000000 0.000000
vn 1.000000 0.000000 0.000000
vn -0.365348 0.141696 0.920023
vn -0.253761 -0.021640 0.967025
vn -0.551692 0.365535 0.749680
vn -0.799218 -0.089649 0.594318
vn -0.799219 -0.089647 0.594317
vn -0.799217 -0.089648 0.594319
vn 0.210490 -0.134949 0.968237
vn 0.210490 -0.134949 0.968237
vn 0.210490 -0.134947 0.968237
vn -0.991613 -0.000040 0.129246
vn -0.991612 -0.000039 0.129246
vn -0.868218 -0.471180 0.155520
vn -0.857345 -0.445480 0.257889
vn -0.684111 -0.496014 -0.534754
vn -0.670605 0.065225 0.738941
vn -0.984472 0.100370 -0.144019
vn -0.985545 -0.000041 0.169413
vn -0.990571 -0.000030 -0.136998
vn -0.985545 -0.000041 0.169413
vn -0.926143 -0.000019 -0.377172
vn -0.650587 -0.000054 0.759432
vn -0.939619 -0.000015 -0.342223
vn -0.991613 -0.000039 0.129246
vn -0.939618 -0.000022 -0.342224
vn -0.684111 -0.496013 -0.534755
vn -0.991613 -0.000040 0.129247
vn -0.838826 -0.417497 0.349381
vn -0.312504 -0.000095 0.949916
vn -0.925478 0.017086 -0.378416
vn -0.736643 -0.231834 0.635302
vn -0.927883 0.048430 -0.369713
vn 0.568706 -0.371466 0.733885
vn -0.371704 0.233314 0.898555
vn -0.339255 0.150092 0.928643
vn -0.799218 -0.089648 0.594319
vn 0.210490 -0.134948 0.968237
vn -0.799217 -0.089649 0.594319
vn 0.210490 -0.134948 0.968237
vn -0.313318 0.091863 0.945195
vn 0.577180 0.188846 0.794482
vn -0.339491 -0.130954 0.931449
vn -0.594418 -0.120628 0.795057
vn 0.589328 0.132482 0.796958
vn -0.632601 -0.020932 0.774195
vn -0.069379 -0.177845 0.981610
vn 0.247512 0.013055 0.968797
vn -0.148778 -0.371519 0.916427
vn 0.073573 -0.384466 0.920203
vn 0.089202 0.015499 0.995893
vn -0.742451 -0.010003 0.669826
vn 0.801392 -0.006023 0.598109
vn 0.798293 0.005494 0.602244
vn -0.267478 -0.051995 0.962160
vn 0.991440 -0.045857 0.122246
vn -0.273629 -0.119954 0.954326
vn 0.994908 -0.019664 0.098846
vn 0.575649 -0.005390 0.817679
vn 0.979547 0.000083 0.201215
vn 0.577784 0.000335 0.816189
vn 0.501767 -0.000356 -0.865003
vn 0.979547 0.000083 0.201214
vn 0.501767 -0.000356 -0.865003
vn 0.966940 0.000105 0.255005
vn 0.996095 -0.000036 -0.088284
vn 0.966940 0.000105 0.255005
vn -0.000292 -0.000146 1.000000
vn -0.001606 -0.000003 0.999999
vn -0.000677 -0.000075 1.000000
vn -0.001606 0.000000 0.999999
vn -0.001799 -0.000023 0.999998
vn -0.001739 -0.000042 0.999999
vn 1.000000 0.000000 0.000000
vn 1.000000 0.000000 0.000000
vn -1.000000 0.000000 0.000000
vn -1.000000 0.000000 0.000000
vn -0.001188 -0.000186 0.999999
vn 0.000000 0.000000 1.000000
vn 0.000000 0.000000 1.000000
vn -0.666771 0.707737 0.233506
vn 0.667090 0.707505 -0.233297
vn -0.708596 0.697261 0.108251
vn 0.703382 0.698765 -0.130312
vn -0.717394 0.696661 -0.003046
vn 0.719132 0.694873 -0.000453
vn -0.656478 0.669346 0.347870
vn 0.655409 0.668787 -0.350947
vn -0.632488 0.699939 0.331729
vn 0.632358 0.698310 -0.335391
vn -0.666932 0.707572 0.233546
vn -0.703681 0.698662 0.129248
vn -0.718956 0.695050 -0.002730
vn -0.633727 0.698423 0.332558
vn -0.657447 0.668052 0.348525
vn 0.666935 0.707664 -0.233258
vn 0.708261 0.697357 -0.109817
vn 0.717734 0.696317 -0.000179
vn 0.631188 0.699744 -0.334605
vn 0.654494 0.670007 -0.350327
vn -0.690967 0.695370 -0.197548
vn 0.697259 0.686083 0.207654
vn -0.734176 0.643171 -0.217524
vn 0.735464 0.638922 0.225546
vn -0.753818 0.651359 -0.086537
vn 0.746928 0.659004 0.088387
vn -0.767127 0.635710 -0.085959
vn 0.762861 0.640566 0.087857
vn -0.694958 0.690858 -0.199368
vn -0.737197 0.639221 -0.218944
vn -0.766190 0.636834 -0.086001
vn -0.753078 0.652212 -0.086568
vn 0.693790 0.690071 0.206052
vn 0.732841 0.642365 0.224301
vn 0.763955 0.639265 0.087818
vn 0.747794 0.658024 0.088360
vn -0.600552 0.746708 0.285944
vn 0.614823 0.739529 -0.274026
vn -0.693216 0.649842 0.311700
vn 0.706135 0.642792 -0.296970
vn -0.607525 0.740267 0.287955
vn -0.700250 0.641352 0.313557
vn 0.607896 0.745901 -0.272202
vn 0.699110 0.651191 -0.295287
g fff0ac53_00279_005f2205_e0
f 64/31/64 53/30/53 63/29/63
f 62/28/62 61/282/61 52/26/52
f 415/345/415 417/347/417 50/21/50
f 64/31/64 59/23/59 53/30/53
f 63/29/63 53/30/53 58/22/58
f 377/301/377 51/24/51 416/346/416
f 378/303/378 61/27/61 379/304/379
f 50/21/50 49/20/49 415/345/415
f 103/38/103 380/305/380 102/37/102
f 380/305/380 381/306/381 364/284/364
f 235/112/235 365/285/365 236/113/236
f 177/42/177 296/199/296 297/200/297
f 298/201/298 300/203/300 177/42/177
f 177/42/177 297/200/297 298/201/298
f 363/283/363 377/301/377 61/27/61
f 377/301/377 376/300/376 61/27/61
f 382/307/382 103/38/103 238/115/238
f 377/301/377 416/346/416 376/300/376
f 235/112/235 364/284/364 365/285/365
f 381/306/381 365/285/365 364/284/364
f 377/302/377 60/25/60 51/24/51
f 103/38/103 381/306/381 380/305/380
f 62/28/62 363/283/363 61/282/61
g fff0ac53_00279_005f2205_e4
f 89/50/89 86/51/86 75/52/75
f 745/628/745 286/180/286 744/627/744
f 286/180/286 745/628/745 288/181/288
f 743/626/743 742/625/742 82/178/82
f 82/178/82 137/175/137 743/626/743
f 109/222/109 388/323/388 123/217/123
f 390/219/390 565/494/565 389/325/389
f 422/237/422 559/491/559 421/238/421
f 423/232/423 421/238/421 559/491/559
f 550/487/550 181/238/181 549/486/549
f 549/486/549 181/238/181 185/231/185
f 523/478/523 534/474/534 530/441/530
f 390/328/390 122/223/122 121/221/121
f 422/237/422 424/340/424 184/241/184
f 196/71/196 87/77/87 350/50/350
f 340/243/340 429/350/429 403/339/403
f 527/475/527 528/478/528 524/479/524
f 88/75/88 199/76/199 349/74/349
f 90/72/90 350/50/350 87/77/87
f 349/74/349 199/76/199 198/78/198
f 86/51/86 89/50/89 85/79/85
f 527/475/527 524/479/524 525/465/525
f 388/321/388 389/322/389 123/222/123
f 402/338/402 403/339/403 429/350/429
f 527/475/527 526/474/526 528/478/528
f 535/476/535 537/472/537 536/477/536
f 218/85/218 216/86/216 222/87/222
f 222/87/222 119/88/119 218/85/218
f 536/477/536 537/472/537 538/473/538
f 522/477/522 533/473/533 531/464/531
f 664/464/664 666/473/666 665/466/665
f 529/440/529 532/472/532 521/476/521
f 20/233/20 190/240/190 550/487/550
f 189/232/189 185/231/185 181/238/181
f 385/311/385 354/105/354 352/310/352
f 362/281/362 385/311/385 352/310/352
f 558/490/558 184/241/184 187/239/187
f 492/360/492 493/453/493 481/454/481
f 424/340/424 183/244/183 184/241/184
f 190/240/190 181/238/181 550/487/550
f 182/242/182 405/341/405 404/340/404
f 491/360/491 453/360/453 481/457/481
f 211/101/211 132/102/132 212/103/212
f 132/102/132 211/101/211 99/104/99
f 233/103/233 231/105/231 234/106/234
f 231/105/231 233/103/233 232/102/232
f 237/114/237 130/107/130 210/108/210
f 130/107/130 213/106/213 131/105/131
f 132/102/132 99/104/99 98/85/98
f 422/237/422 184/241/184 558/490/558
f 213/106/213 130/107/130 237/114/237
f 422/237/422 558/490/558 559/491/559
f 407/343/407 432/353/432 408/338/408
f 188/230/188 185/231/185 189/232/189
f 126/218/126 109/222/109 123/217/123
f 568/498/568 565/495/565 107/220/107
f 157/228/157 156/229/156 610/521/610
f 419/360/419 490/460/490 190/360/190
f 352/299/352 357/102/357 351/248/351
f 186/246/186 433/354/433 6/235/6
f 433/354/433 186/246/186 435/356/435
f 402/338/402 429/350/429 343/244/343
f 312/227/312 313/222/313 609/520/609
f 357/102/357 352/299/352 356/105/356
f 353/85/353 351/248/351 355/102/355
f 34/49/34 48/48/48 36/47/36
f 310/225/310 150/226/150 618/531/618
f 253/139/253 254/142/254 248/148/248
f 151/224/151 618/531/618 150/226/150
f 407/343/407 409/339/409 432/353/432
f 419/360/419 489/458/489 490/460/490
f 166/149/166 140/154/140 480/155/480
f 480/155/480 162/150/162 166/149/166
f 331/231/331 333/230/333 433/354/433
f 489/459/489 478/452/478 490/461/490
f 338/234/338 13/357/13 434/355/434
f 190/360/190 478/452/478 482/455/482
f 490/461/490 478/452/478 190/456/190
f 454/360/454 477/451/477 479/453/479
f 190/360/190 482/455/482 476/445/476
f 106/225/106 122/223/122 390/328/390
f 433/354/433 435/356/435 331/231/331
f 409/339/409 407/343/407 406/342/406
f 171/162/171 110/163/110 172/164/172
f 110/163/110 171/162/171 113/161/113
f 281/164/281 262/165/262 282/166/282
f 262/165/262 281/164/281 269/163/269
f 265/167/265 263/168/263 267/169/267
f 295/198/295 266/170/266 265/167/265
f 291/168/291 173/171/173 261/172/261
f 261/172/261 294/169/294 291/168/291
f 260/173/260 292/167/292 299/202/299
f 292/167/292 260/173/260 264/174/264
f 137/175/137 283/176/283 284/177/284
f 283/176/283 137/175/137 82/178/82
f 287/179/287 286/180/286 288/181/288
f 286/180/286 287/179/287 285/182/285
f 454/360/454 420/360/420 477/451/477
f 310/225/310 618/531/618 315/223/315
f 157/228/157 610/521/610 609/520/609
f 312/227/312 609/520/609 610/521/610
f 390/328/390 121/221/121 107/327/107
f 388/321/388 109/222/109 108/227/108
f 121/221/121 125/219/125 107/326/107
f 390/219/390 107/220/107 565/494/565
f 123/217/123 565/495/565 566/496/566
f 123/217/123 389/324/389 565/495/565
f 81/183/81 68/184/68 290/185/290
f 81/183/81 290/185/290 289/186/289
f 148/187/148 111/188/111 84/189/84
f 174/190/174 148/187/148 84/189/84
f 174/191/174 176/192/176 148/193/148
f 164/194/164 176/195/176 191/196/191
f 176/195/176 164/194/164 148/187/148
f 175/197/175 191/196/191 176/195/176
f 267/169/267 295/198/295 265/167/265
f 299/202/299 292/167/292 293/170/293
g fff0ac53_00279_005f2205_e5
f 308/35/308 307/39/307 160/40/160
f 134/35/134 309/35/309 161/35/161
f 309/35/309 308/35/308 161/35/161
f 135/35/135 309/35/309 134/35/134
f 308/35/308 160/40/160 158/36/158
f 308/35/308 158/36/158 161/35/161
f 163/41/163 159/41/159 133/35/133
f 133/35/133 146/35/146 163/41/163
f 401/43/401 147/35/147 37/43/37
f 147/35/147 401/43/401 400/35/400
f 327/35/327 12/36/12 11/40/11
f 327/35/327 670/560/670 668/558/668
f 327/35/327 11/40/11 7/39/7
f 669/559/669 10/35/10 670/560/670
f 17/35/17 391/329/391 392/330/392
f 7/35/7 669/559/669 327/35/327
f 391/329/391 16/36/16 392/330/392
f 392/330/392 16/36/16 393/331/393
f 327/35/327 668/558/668 12/36/12
f 669/559/669 8/35/8 10/35/10
f 670/560/670 10/35/10 668/558/668
f 669/559/669 670/560/670 327/35/327
g fff0ac53_00279_005f2205_e36
f 65/34/65 67/33/67 104/32/104
g fff0ac53_00279_005f2205_e8
f 239/116/239 394/332/394 101/118/101
f 83/117/83 371/294/371 240/119/240
f 242/124/242 100/125/100 396/334/396
f 83/120/83 240/121/240 93/122/93
f 240/121/240 241/123/241 93/122/93
f 241/127/241 373/296/373 93/126/93
f 301/204/301 178/205/178 97/206/97
f 178/205/178 304/207/304 303/208/303
f 302/213/302 94/214/94 306/215/306
f 301/204/301 304/207/304 178/205/178
f 304/209/304 301/210/301 302/211/302
f 305/212/305 304/209/304 302/211/302
f 306/215/306 305/216/305 302/213/302
f 15/265/15 73/266/73 72/267/72
f 73/277/73 15/278/15 361/279/361
f 54/261/54 1/262/1 55/263/55
f 375/298/375 399/337/399 398/336/398
f 15/265/15 72/267/72 14/268/14
f 72/256/72 71/257/71 14/258/14
f 57/249/57 359/250/359 360/251/360
f 56/252/56 57/249/57 360/251/360
f 361/279/361 15/278/15 358/280/358
f 2/269/2 55/270/55 70/271/70
f 71/257/71 70/259/70 14/258/14
f 57/253/57 56/260/56 375/298/375
f 398/336/398 33/254/33 69/255/69
f 70/271/70 71/272/71 2/269/2
f 54/273/54 33/274/33 1/275/1
f 33/274/33 54/273/54 69/276/69
f 54/261/54 55/263/55 2/264/2
f 375/298/375 398/336/398 374/297/374
f 396/334/396 372/295/372 397/335/397
f 242/124/242 396/334/396 397/335/397
f 394/332/394 395/333/395 370/293/370
f 239/116/239 395/333/395 394/332/394
f 57/253/57 375/298/375 374/297/374
f 399/337/399 33/254/33 398/336/398
f 373/296/373 372/295/372 93/126/93
f 397/335/397 372/295/372 373/296/373
f 83/117/83 370/293/370 371/294/371
f 395/333/395 371/294/371 370/293/370
f 271/368/271 276/369/276 274/370/274
f 704/587/704 703/586/703 114/373/114
f 276/369/276 271/368/271 702/585/702
f 444/375/444 483/376/483 722/605/722
f 726/609/726 487/379/487 501/424/501
f 544/481/544 546/483/546 485/434/485
f 449/381/449 672/562/672 114/373/114
f 713/596/713 462/429/462 710/593/710
f 451/376/451 456/423/456 723/606/723
f 444/375/444 722/605/722 721/604/721
f 320/382/320 322/383/322 619/533/619
f 615/528/615 616/529/616 319/387/319
f 319/387/319 321/388/321 615/528/615
f 617/530/617 618/532/618 151/391/151
f 151/391/151 149/392/149 617/530/617
f 619/533/619 620/534/620 320/382/320
f 152/394/152 612/523/612 651/552/651
f 649/549/649 564/493/564 569/499/569
f 154/398/154 410/399/410 613/526/613
f 411/400/411 317/401/317 614/527/614
f 155/402/155 412/403/412 607/518/607
f 413/404/413 318/405/318 608/519/608
f 547/484/547 13/407/13 342/408/342
f 337/409/337 425/410/425 625/539/625
f 348/412/348 623/537/623 347/413/347
f 621/535/621 426/411/426 336/414/336
f 547/484/547 434/415/434 13/407/13
f 338/416/338 434/415/434 341/417/341
f 348/412/348 622/536/622 623/537/623
f 439/418/439 436/419/436 418/420/418
f 328/421/328 436/419/436 439/418/439
f 500/423/500 488/378/488 724/607/724
f 723/606/723 456/423/456 725/608/725
f 498/438/498 714/597/714 497/430/497
f 462/429/462 502/371/502 710/593/710
f 494/375/494 720/603/720 540/481/540
f 467/434/467 543/480/543 545/482/545
f 499/439/499 496/429/496 712/595/712
f 715/598/715 471/438/471 474/441/474
f 716/599/716 471/438/471 715/598/715
f 508/468/508 509/469/509 468/435/468
f 145/81/145 699/582/699 18/83/18
f 19/82/19 699/582/699 129/84/129
f 95/443/95 96/89/96 690/573/690
f 690/573/690 120/444/120 95/443/95
f 217/89/217 224/91/224 687/570/687
f 687/570/687 689/572/689 217/89/217
f 219/93/219 226/84/226 680/565/680
f 680/565/680 693/576/693 219/93/219
f 112/93/112 692/575/692 124/96/124
f 141/95/141 692/575/692 117/94/117
f 480/97/480 140/98/140 700/583/700
f 214/83/214 700/583/700 140/98/140
f 127/91/127 128/99/128 686/569/686
f 686/569/686 688/571/688 127/91/127
f 579/504/579 223/96/223 691/574/691
f 577/502/577 685/568/685 225/99/225
f 179/245/179 430/351/430 180/446/180
f 636/542/636 437/358/437 3/247/3
f 332/447/332 638/544/638 557/489/557
f 329/449/329 431/352/431 430/351/430
f 329/449/329 430/351/430 330/450/330
f 335/247/335 427/348/427 428/349/428
f 344/450/344 427/348/427 346/447/346
f 636/542/636 637/543/637 437/358/437
f 332/447/332 437/358/437 637/543/637
f 431/352/431 180/446/180 430/351/430
f 335/247/335 428/349/428 339/245/339
f 344/450/344 428/349/428 427/348/427
f 603/516/603 602/515/602 169/153/169
f 593/511/593 144/156/144 729/612/729
f 115/152/115 731/614/731 602/515/602
f 735/618/735 733/616/733 105/159/105
f 105/159/105 143/160/143 735/618/735
f 278/153/278 730/613/730 277/158/277
f 268/159/268 730/613/730 272/152/272
f 279/157/279 734/617/734 280/463/280
f 270/462/270 734/617/734 273/160/273
f 144/156/144 593/511/593 595/513/595
f 520/475/520 505/465/505 508/468/508
f 468/435/468 719/602/719 508/468/508
f 719/602/719 718/601/718 508/468/508
f 516/468/516 515/465/515 511/471/511
f 512/468/512 514/471/514 513/469/513
f 472/439/472 715/598/715 475/442/475
f 475/442/475 717/600/717 718/601/718
f 539/480/539 475/442/475 718/601/718
f 494/375/494 540/481/540 486/435/486
f 541/482/541 719/602/719 468/435/468
f 540/481/540 720/603/720 542/483/542
f 551/488/551 553/484/553 552/408/552
f 345/406/345 434/415/434 547/484/547
f 345/406/345 547/484/547 548/485/548
f 554/485/554 556/484/556 555/488/555
f 560/492/560 648/359/648 334/448/334
f 562/489/562 561/359/561 563/492/563
f 564/493/564 649/525/649 316/397/316
f 567/497/567 311/395/311 569/499/569
f 411/400/411 614/527/614 613/526/613
f 573/500/573 572/499/572 571/493/571
f 574/497/574 575/499/575 570/500/570
f 227/100/227 685/568/685 581/506/581
f 581/506/581 579/504/579 691/574/691
f 228/95/228 227/100/227 581/506/581
f 584/506/584 583/502/583 585/507/585
f 587/506/587 582/507/582 586/504/586
f 591/509/591 592/510/592 443/364/443
f 442/363/442 593/511/593 167/151/167
f 592/510/592 442/363/442 727/610/727
f 592/510/592 595/513/595 593/511/593
f 442/363/442 592/510/592 593/511/593
f 596/514/596 601/510/601 600/509/600
f 598/513/598 597/510/597 599/514/599
f 602/515/602 728/611/728 588/156/588
f 115/152/115 602/515/602 588/156/588
f 605/151/605 606/515/606 604/517/604
f 155/402/155 607/518/607 608/519/608
f 413/404/413 608/519/608 607/518/607
f 154/398/154 613/526/613 614/527/614
f 311/395/311 611/522/611 569/499/569
f 611/522/611 649/550/649 569/499/569
f 652/553/652 611/522/611 153/396/153
f 616/529/616 615/528/615 325/385/325
f 325/385/325 323/386/323 616/529/616
f 618/532/618 617/530/617 314/389/314
f 314/389/314 315/390/315 618/532/618
f 620/534/620 619/533/619 326/384/326
f 326/384/326 324/393/324 620/534/620
f 337/409/337 625/539/625 624/538/624
f 621/535/621 622/536/622 426/411/426
f 348/412/348 426/411/426 622/536/622
f 623/537/623 425/410/425 347/413/347
f 623/537/623 625/539/625 425/410/425
f 631/540/631 629/536/629 628/535/628
f 631/540/631 632/541/632 629/536/629
f 630/537/630 629/536/629 632/541/632
f 634/538/634 627/541/627 626/540/626
f 634/538/634 635/539/635 627/541/627
f 633/537/633 627/541/627 635/539/635
f 4/236/4 639/545/639 640/546/640
f 4/236/4 438/359/438 639/545/639
f 332/447/332 637/543/637 638/544/638
f 638/544/638 438/359/438 557/489/557
f 638/544/638 639/545/639 438/359/438
f 641/547/641 642/548/642 637/543/637
f 638/544/638 637/543/637 642/548/642
f 641/547/641 637/543/637 636/542/636
f 645/546/645 647/548/647 646/547/646
f 645/546/645 644/545/644 647/548/647
f 643/544/643 647/548/647 644/545/644
f 612/524/612 316/493/316 649/549/649
f 611/522/611 652/553/652 649/550/649
f 658/554/658 660/556/660 659/555/659
f 650/551/650 612/523/612 649/550/649
f 651/552/651 612/523/612 650/551/650
f 653/554/653 652/553/652 153/396/153
f 654/555/654 662/551/662 661/550/661
f 663/552/663 662/551/662 655/556/655
f 658/554/658 659/555/659 657/553/657
f 657/553/657 659/555/659 656/550/656
f 655/556/655 662/551/662 654/555/654
f 704/587/704 671/561/671 703/586/703
f 711/594/711 448/371/448 709/592/709
f 449/381/449 709/592/709 672/562/672
f 674/564/674 675/561/675 705/588/705
f 677/563/677 678/564/678 706/589/706
f 682/567/682 697/580/697 230/81/230
f 680/565/680 696/579/696 693/576/693
f 695/578/695 697/580/697 682/567/682
f 577/502/577 581/506/581 685/568/685
f 142/92/142 686/569/686 139/100/139
f 689/572/689 687/570/687 229/92/229
f 686/569/686 142/92/142 688/571/688
f 229/92/229 221/90/221 689/572/689
f 120/444/120 690/573/690 118/90/118
f 581/506/581 691/574/691 228/95/228
f 112/93/112 694/577/694 692/575/692
f 681/566/681 220/94/220 693/576/693
f 694/577/694 117/94/117 692/575/692
f 684/566/684 695/578/695 682/567/682
f 696/579/696 681/566/681 693/576/693
f 697/580/697 698/581/698 230/81/230
f 695/578/695 683/565/683 697/580/697
f 697/580/697 683/565/683 698/581/698
f 701/584/701 18/83/18 699/582/699
f 480/97/480 700/583/700 215/82/215
f 19/82/19 701/584/701 699/582/699
f 276/369/276 702/585/702 275/374/275
f 671/561/671 165/372/165 703/586/703
f 672/562/672 704/587/704 114/373/114
f 674/564/674 705/588/705 707/590/707
f 677/563/677 706/589/706 708/591/708
f 707/590/707 705/588/705 676/562/676
f 708/591/708 706/589/706 679/562/679
f 448/371/448 673/563/673 709/592/709
f 463/430/463 710/593/710 503/381/503
f 449/381/449 711/594/711 709/592/709
f 714/597/714 712/595/712 497/430/497
f 463/430/463 713/596/713 710/593/710
f 714/597/714 499/439/499 712/595/712
f 715/598/715 474/441/474 519/474/519
f 715/598/715 717/600/717 475/442/475
f 472/439/472 716/599/716 715/598/715
f 717/600/717 519/474/519 520/475/520
f 715/598/715 519/474/519 717/600/717
f 718/601/718 520/475/520 508/468/508
f 718/601/718 717/600/717 520/475/520
f 719/602/719 539/480/539 718/601/718
f 541/482/541 539/480/539 719/602/719
f 720/603/720 495/380/495 542/483/542
f 721/604/721 484/377/484 445/380/445
f 721/604/721 722/605/722 484/377/484
f 723/606/723 457/424/457 452/377/452
f 724/607/724 488/378/488 726/609/726
f 723/606/723 725/608/725 457/424/457
f 724/607/724 726/609/726 501/424/501
f 592/510/592 727/610/727 443/364/443
f 602/515/602 589/151/589 728/611/728
f 593/511/593 729/612/729 167/151/167
f 268/159/268 732/615/732 730/613/730
f 731/614/731 169/153/169 602/515/602
f 732/615/732 277/158/277 730/613/730
f 170/157/170 168/158/168 733/616/733
f 270/462/270 280/463/280 734/617/734
f 733/616/733 735/618/735 170/157/170
f 751/542/751 759/634/759 749/247/749
f 764/634/764 765/635/765 750/358/750
f 751/542/751 761/636/761 760/635/760
f 761/636/761 751/542/751 753/632/753
f 755/542/755 762/637/762 763/638/763
f 762/637/762 755/542/755 757/632/757
f 751/542/751 760/635/760 759/634/759
f 765/635/765 752/543/752 750/358/750
f 765/635/765 754/633/754 752/543/752
f 754/633/754 765/635/765 766/636/766
f 758/633/758 768/638/768 767/637/767
f 768/638/768 758/633/758 756/543/756
f 771/542/771 777/634/777 769/247/769
f 781/634/781 782/635/782 770/358/770
f 784/638/784 776/633/776 774/543/774
f 776/633/776 784/638/784 783/637/783
f 773/542/773 779/637/779 780/638/780
f 779/637/779 773/542/773 775/632/775
f 771/542/771 778/635/778 777/634/777
f 782/635/782 772/543/772 770/358/770
f 787/542/787 789/634/789 785/247/785
f 791/634/791 792/635/792 786/358/786
f 787/542/787 790/635/790 789/634/789
f 792/635/792 788/543/788 786/358/786
g fff0ac53_00279_005f2205_e52
f 23/2/23 22/1/22 25/5/25
f 5/11/5 40/16/40 30/3/30
f 76/35/76 77/35/77 138/41/138
f 40/16/40 5/11/5 39/15/39
f 9/12/9 32/13/32 42/18/42
f 25/5/25 24/6/24 23/2/23
f 46/46/46 92/19/92 45/45/45
f 38/14/38 31/4/31 21/10/21
f 28/8/28 27/7/27 26/9/26
f 44/44/44 80/35/80 43/44/43
f 31/4/31 28/8/28 21/10/21
f 26/9/26 21/10/21 28/8/28
f 138/41/138 136/41/136 76/35/76
f 42/18/42 41/17/41 9/12/9
g fff0ac53_00279_005f2205_e9
f 740/623/740 739/620/739 737/621/737
f 746/629/746 736/622/736 738/619/738
f 741/624/741 740/623/740 737/621/737
f 740/623/740 741/624/741 738/619/738
f 741/624/741 746/629/746 738/619/738
f 736/622/736 748/631/748 738/619/738
f 748/631/748 736/622/736 747/630/747
g fff0ac53_00279_005f2205_e10
f 203/53/203 387/313/387 202/55/202
f 367/287/367 366/286/366 195/54/195
f 116/57/116 384/309/384 383/308/383
f 194/60/194 193/61/193 91/62/91
f 201/65/201 200/66/200 202/55/202
f 195/54/195 79/67/79 367/288/367
f 195/54/195 194/60/194 78/68/78
f 79/67/79 197/58/197 368/290/368
f 195/54/195 78/68/78 79/67/79
f 78/68/78 194/60/194 91/62/91
f 440/361/440 441/362/441 414/344/414
f 206/70/206 387/315/387 207/69/207
f 470/437/470 465/432/465 517/472/517
f 518/473/518 465/432/465 506/466/506
f 469/436/469 466/433/466 465/432/465
f 461/428/461 447/366/447 470/437/470
f 465/432/465 470/437/470 447/366/447
f 458/425/458 446/365/446 469/436/469
f 256/136/256 464/431/464 447/366/447
f 460/427/460 441/362/441 455/422/455
f 459/426/459 450/367/450 446/365/446
f 414/344/414 441/362/441 460/427/460
f 459/426/459 455/422/455 450/367/450
f 459/426/459 460/427/460 455/422/455
f 578/503/578 207/110/207 576/111/576
f 250/128/250 257/129/257 66/130/66
f 74/131/74 250/128/250 66/130/66
f 246/132/246 245/133/245 667/557/667
f 35/135/35 440/361/440 414/344/414
f 247/138/247 258/139/258 255/140/255
f 246/132/246 29/141/29 245/133/245
f 259/142/259 258/139/258 244/143/244
f 247/138/247 255/140/255 440/361/440
f 243/145/243 257/134/257 244/143/244
f 246/132/246 257/134/257 243/145/243
f 259/142/259 244/143/244 251/146/251
f 244/143/244 257/134/257 250/128/250
f 244/143/244 250/128/250 249/147/249
f 251/146/251 244/143/244 249/147/249
f 258/139/258 247/138/247 244/143/244
f 247/138/247 440/361/440 35/135/35
f 256/136/256 447/366/447 252/144/252
f 458/425/458 459/426/459 446/365/446
f 447/366/447 464/431/464 465/432/465
f 466/433/466 469/436/469 446/365/446
f 440/361/440 255/140/255 594/512/594
f 116/80/116 192/63/192 384/320/384
f 246/132/246 667/557/667 257/134/257
f 440/361/440 590/508/590 441/362/441
f 209/109/209 580/505/580 576/111/576
f 209/69/209 576/501/576 205/73/205
f 576/501/576 384/317/384 205/73/205
f 192/63/192 208/64/208 384/319/384
f 387/315/387 384/316/384 207/69/207
f 202/55/202 387/314/387 201/65/201
f 201/65/201 387/315/387 206/70/206
f 367/289/367 368/290/368 384/316/384
f 79/67/79 368/290/368 367/289/367
f 367/289/367 384/316/384 387/315/387
f 207/69/207 384/317/384 576/501/576
f 208/64/208 205/73/205 384/318/384
f 367/287/367 386/312/386 366/286/366
f 203/53/203 204/56/204 387/313/387
f 369/292/369 197/58/197 47/59/47
f 464/431/464 256/136/256 116/137/116
f 383/308/383 384/309/384 369/292/369
f 384/309/384 368/291/368 369/292/369
f 367/287/367 387/313/387 386/312/386
f 387/313/387 204/56/204 386/312/386
f 368/291/368 197/58/197 369/292/369
f 517/472/517 465/432/465 518/473/518
f 506/466/506 465/432/465 466/433/466
f 507/467/507 506/466/506 466/433/466
f 504/464/504 506/466/506 510/470/510
f 510/470/510 506/466/506 507/467/507
f 470/437/470 517/472/517 473/440/473
