# fff002f9_00226_0052aaa9
o fff002f9_00226_0052aaa9
v 2.428842 1.617804 0.148833
v 0.612433 1.617789 0.148833
v 2.428842 -1.379667 0.148020
v 2.428842 -1.379667 -0.435879
v 0.612427 -1.379700 -0.435066
v 0.612427 -1.379700 0.149646
v 0.612427 1.617770 -0.435066
v 2.428842 1.250952 0.148833
v 0.982182 1.250940 0.148833
v 2.428842 -1.027494 0.148020
v 0.982178 -0.995294 0.149646
v 2.428842 1.235108 0.075537
v 1.043556 1.235096 0.075537
v 2.428842 -1.009453 0.074725
v 1.043552 -0.950273 0.076350
v 2.428842 -1.379667 0.149036
v 0.612427 -1.379700 -0.435066
v 0.612427 -1.379700 0.149648
v 0.612427 -1.379700 0.149648
v 0.612427 1.617770 0.149849
v 1.893399 -1.379673 -0.435735
v 1.817505 -1.379674 -0.435702
v 2.377874 -1.379682 0.149318
vt -0.471070 2.038232
vt 0.781565 1.887447
vt 0.791102 1.910591
vt 0.649403 1.910318
vt 0.644266 1.887561
vt -1.882691 -2.700740
vt -0.123775 2.348439
vt -1.621172 -1.750289
vt -0.500178 1.951239
vt -1.827521 -2.518463
vt -1.840432 -2.565388
vt -0.431691 1.999143
vt -0.501218 1.952771
vt 1.646328 5.398482
vt 1.646328 5.948007
vt 1.050530 5.947998
vt 1.050554 5.398493
vt 1.000031 1.000011
vt 1.965575 1.000022
vt 1.965575 1.117511
vt 1.196584 1.128232
vt 1.965547 2.000011
vt 1.000017 2.000013
vt 1.196563 1.877629
vt 1.965547 1.877625
vt -0.471070 2.038232
vt -0.471070 2.038232
vt -0.471070 2.038232
vn 0.000000 0.000000 1.000000
vn 0.000123 0.000174 1.000000
vn 0.000895 0.000000 1.000000
vn 0.000011 -1.000000 0.000000
vn -1.000000 -0.000000 0.000000
vn 0.000401 -0.000281 1.000000
vn -1.000000 -0.000000 0.000000
vn 0.000005 -0.627974 0.778235
vn 0.180976 -0.144804 0.972769
vn 0.014372 0.611463 0.791142
vn 0.149268 0.134478 0.979609
vn 0.000005 -0.628121 0.778116
vn 0.326339 -0.540847 0.775234
vn 0.014916 0.621940 0.782923
vn 0.341056 0.382014 0.858921
vn 0.000149 -1.000000 -0.000144
vn 0.000021 -1.000000 0.000000
vn 0.000018 -1.000000 -0.000007
vn -1.000000 -0.000000 0.000000
vn -1.000000 -0.000000 0.000000
vn 0.000016 -1.000000 -0.000004
vn 0.000017 -1.000000 -0.000019
vn 0.000220 -1.000000 -0.000225
g fff002f9_00226_0052aaa9_e8
f 13/11/13 12/10/12 8/6/8
f 6/18/6 3/19/3 10/20/10
f 14/12/14 15/13/15 11/9/11
f 11/9/11 10/7/10 14/12/14
f 8/6/8 9/8/9 13/11/13
f 10/20/10 11/21/11 6/18/6
f 18/1/18 22/27/22 23/28/23
f 19/3/19 20/4/20 7/5/7
f 22/27/22 21/26/21 16/1/16
f 19/3/19 7/5/7 5/2/5
f 11/21/11 9/24/9 2/23/2
f 21/26/21 4/1/4 16/1/16
f 2/23/2 6/18/6 11/21/11
f 22/27/22 18/1/18 17/1/17
f 15/13/15 13/11/13 9/8/9
f 9/8/9 11/9/11 15/13/15
f 1/22/1 2/23/2 9/24/9
f 9/24/9 8/25/8 1/22/1
f 23/28/23 22/27/22 16/1/16
g fff002f9_00226_0052aaa9_e0
f 14/14/14 12/15/12 13/16/13
f 15/17/15 14/14/14 13/16/13
