# fff0030f_00063_001a229c
o fff0030f_00063_001a229c
v 2.096082 1.441660 -0.642145
v 3.208721 0.423413 -0.642145
v 3.208731 0.455030 0.257599
v 2.045514 1.494818 0.257599
v 2.044225 0.460169 0.261362
v 2.096069 0.423585 0.257599
v 6.018593 1.493615 0.257599
v 2.096095 0.418690 -0.087673
v 6.018593 1.441917 -0.642145
v 2.096082 1.441660 -0.087858
v 6.018593 1.441917 -0.088043
v 3.208549 -0.643955 -0.642145
v 3.208549 -0.643955 -0.088180
v 3.208549 -0.643955 0.257599
v 2.045600 -0.643955 0.257599
v 2.095837 -0.643955 -0.087673
v 2.096095 0.416715 0.020114
v 2.096082 1.441660 0.020114
v 3.208549 -0.643955 0.020114
v 2.132077 -0.643955 0.257599
v 3.173082 -0.643955 0.257599
v 2.039674 -0.643955 0.245786
v 2.095837 -0.643955 0.020114
v 6.018593 1.441917 0.020114
v 2.039674 -0.643955 0.177884
v 2.095837 -0.643955 0.178531
v 2.039846 0.462144 0.177884
v 2.039851 1.498596 0.177884
v 6.018593 1.498854 0.177884
v 6.018593 1.403101 0.257599
v 6.018593 0.458108 0.257599
v 3.173340 0.457936 0.257599
v 2.096082 1.441660 0.178531
v 2.096095 0.414654 0.178531
v 6.018593 1.441917 0.178531
v 6.018593 1.498854 0.253123
v 2.039851 1.498596 0.253123
v 2.039846 0.460341 0.254760
vt 0.350507 0.102225
vt -4.331870 0.519885
vt 0.421173 0.019839
vt 0.350317 0.563263
vt 0.400764 0.526216
vt 0.376788 0.519904
vt 0.445876 -0.051429
vt 0.400705 0.552591
vt 0.371474 0.560637
vt 0.372005 0.549495
vt 0.444112 -0.003573
vt 0.353716 0.549959
vt 34.130768 2.142926
vt -15.682973 0.519885
vt -19.434282 0.519885
vt -19.824669 1.014813
vt 32.161892 0.802284
vt 0.400003 0.516133
vt -19.434282 0.887450
vt -15.635436 0.887450
vt -4.331890 0.887450
vt 34.130768 2.096879
vt -28.885300 0.887450
vt -28.885300 0.519885
vt -22.808260 0.887450
vt -22.680763 0.519885
vt -19.872547 2.197934
vt 0.416176 0.089520
vt 0.415565 0.062363
vt 0.415400 0.062982
vt 17.577963 2.145606
vt 17.537851 2.107764
vn -0.000066 1.000000 0.000000
vn 1.000000 -0.000163 -0.000003
vn 0.680727 -0.000112 0.732537
vn -0.241182 0.352130 0.904343
vn -0.440260 0.000432 0.897870
vn 0.034696 -0.000615 0.999398
vn 0.000105 0.346169 0.938172
vn -1.000000 0.000113 0.000002
vn -0.000066 1.000000 0.000000
vn -0.447221 0.894423 0.000000
vn -0.000066 1.000000 0.000000
vn 1.000000 -0.000161 0.000000
vn 1.000000 -0.000161 0.000000
vn 0.707070 -0.000117 0.707144
vn -0.524472 -0.001613 0.851426
vn -1.000000 0.000243 0.000000
vn -1.000000 0.000115 0.000002
vn -0.707134 0.707079 -0.000000
vn 1.000000 -0.000165 -0.000002
vn 0.000000 0.000000 1.000000
vn 0.000000 0.000000 1.000000
vn -0.973306 -0.001274 0.229508
vn -1.000000 0.000243 0.000000
vn -0.000066 1.000000 0.000000
vn -0.703060 0.000109 -0.711131
vn -0.702967 0.000172 -0.711222
vn -0.703014 0.000056 -0.711176
vn -0.576270 0.576224 -0.579551
vn -0.000705 0.703312 -0.710881
vn 0.000000 0.000000 1.000000
vn 0.000000 0.000000 1.000000
vn 0.000000 0.000000 1.000000
vn -0.297256 0.297326 -0.907324
vn -0.703060 0.000081 -0.711130
vn -0.000046 0.703065 -0.711125
vn -0.000452 0.908353 0.418203
vn -0.655109 0.639558 0.402241
vn -0.957071 -0.000281 0.289853
g fff0030f_00063_001a229c_e6
f 3/5/3 14/5/14 19/5/19
f 19/5/19 2/5/2 3/5/3
f 2/5/2 13/5/13 12/5/12
g fff0030f_00063_001a229c_e4
f 21/18/21 32/6/32 20/8/20
f 31/11/31 4/29/4 32/28/32
f 32/6/32 4/4/4 6/9/6
f 6/9/6 4/4/4 5/9/5
f 6/9/6 5/9/5 15/8/15
f 32/6/32 6/9/6 20/8/20
f 31/11/31 30/7/30 4/29/4
f 30/7/30 7/7/7 4/30/4
f 3/6/3 32/6/32 21/18/21
f 14/5/14 3/6/3 21/18/21
f 20/8/20 6/9/6 15/8/15
g fff0030f_00063_001a229c_e3
f 4/32/4 29/17/29 37/27/37
f 24/1/24 11/1/11 18/3/18
f 17/10/17 16/8/16 23/8/23
f 8/10/8 16/8/16 17/10/17
f 17/10/17 18/12/18 8/10/8
f 8/10/8 18/12/18 10/12/10
f 4/31/4 7/13/7 36/22/36
f 18/3/18 11/1/11 10/3/10
f 36/22/36 29/17/29 4/32/4
f 5/10/5 4/4/4 38/10/38
f 37/27/37 29/17/29 28/16/28
f 27/10/27 37/12/37 28/12/28
f 38/10/38 22/8/22 5/10/5
f 38/10/38 25/8/25 22/8/22
f 27/10/27 25/8/25 38/10/38
f 38/10/38 4/4/4 37/12/37
f 5/10/5 22/8/22 15/8/15
f 38/10/38 37/12/37 27/10/27
g fff0030f_00063_001a229c_e2
f 9/1/9 1/3/1 10/3/10
f 9/1/9 10/3/10 11/1/11
g fff0030f_00063_001a229c_e1
f 34/25/34 33/19/33 17/26/17
f 17/26/17 23/24/23 34/25/34
f 35/21/35 24/2/24 33/20/33
f 34/25/34 23/24/23 26/23/26
f 17/26/17 33/19/33 18/15/18
f 33/20/33 24/2/24 18/14/18
g fff0030f_00063_001a229c_e0
f 29/17/29 35/21/35 28/16/28
f 35/21/35 33/20/33 28/16/28
f 34/10/34 28/12/28 33/12/33
f 27/10/27 26/8/26 25/8/25
f 34/10/34 26/8/26 27/10/27
f 27/10/27 28/12/28 34/10/34
