# fff044a3_00216_0053fbce
o fff044a3_00216_0053fbce
v 14.264707 7.944021 -0.192378
v 14.205410 -7.744140 -0.023585
v 14.196149 7.944021 -0.018524
v 14.264706 -7.744140 -0.192378
v 14.183606 8.109831 -0.078578
v 13.303312 -8.108275 -0.078578
v 14.194723 -8.108275 -0.078578
v 13.292760 8.109831 -0.078578
v 13.292760 8.109831 -0.078578
v 13.303312 -8.108275 0.453034
v 13.303312 -8.108275 -0.078578
v 13.292760 8.109831 0.453034
v 13.303312 -8.108275 -0.067352
v 13.292760 8.109823 -0.067352
v 14.194723 -8.108275 -0.067352
v 14.183606 8.109823 -0.067352
v 14.062458 -1.444098 -0.280689
v 14.062458 -1.279139 -0.280689
v 13.289066 -8.108275 0.027936
v 13.287662 8.109831 -0.088938
v 13.287662 8.109831 0.027936
v 13.289066 -8.108275 -0.088938
v 13.289066 -8.108275 -0.088938
v 13.287662 8.109831 -0.088938
v 13.407805 -8.108275 -0.088938
v 13.406325 8.109831 -0.088938
v 14.438818 -7.744140 -0.151225
v 14.448071 7.944021 -0.156286
v 14.342739 -7.744140 -0.216301
v 14.351995 7.944021 -0.221362
v 14.193204 7.944021 -0.134532
v 14.202465 -7.744140 -0.139594
v 14.062458 -5.925692 -0.280689
v 14.062458 -5.925692 0.229539
v 14.062458 -6.090652 -0.280689
v 14.062458 -5.925692 -0.280689
v 14.345407 -6.090652 -0.453034
v 14.341293 -5.925692 -0.453034
v 14.062458 -1.279139 -0.280689
v 14.062458 -1.279139 0.229539
v 14.345407 -1.444098 -0.453034
v 14.341293 -1.279139 -0.453034
v 14.062458 -6.090652 -0.280689
v 14.062458 -6.090652 0.229539
v 14.345407 -1.444098 0.229539
v 14.062458 -1.444098 -0.280689
v 14.062458 -1.444098 0.229539
v 14.345407 -1.444098 -0.453034
v 14.062458 3.919953 -0.280689
v 14.062458 4.084913 -0.280689
v 14.345407 3.919953 -0.453034
v 14.341293 4.084913 -0.453034
v 14.062458 -7.613535 -0.280689
v 14.062458 -7.613535 0.229539
v 14.062458 -7.778495 -0.280689
v 14.062458 -7.613535 -0.280689
v 14.345407 -7.778495 -0.453034
v 14.341293 -7.613535 -0.453034
v 14.345407 -7.778495 0.229539
v 14.062458 -7.778495 -0.280689
v 14.062458 -7.778495 0.229539
v 14.345407 -7.778495 -0.453034
v 14.345407 -6.090652 0.229539
v 14.345407 -6.090652 -0.453034
v 14.295630 8.109831 -0.379571
v 14.243329 -7.744140 -0.363464
v 14.296290 -7.744140 -0.379774
v 14.242702 8.109831 -0.363271
v 14.242702 8.109831 -0.363271
v 14.258184 -7.744140 -0.315226
v 14.243329 -7.744140 -0.363464
v 14.257559 8.109831 -0.315032
v 14.062458 4.084913 -0.280689
v 14.062458 4.084913 0.229539
v 14.062458 -1.279365 0.229539
v 14.062458 -1.279365 -0.280689
v 14.345407 3.919953 0.229539
v 14.062458 3.919953 -0.280689
v 14.062458 3.919953 0.229539
v 14.345407 3.919953 -0.453034
v 14.345407 4.081292 0.229539
v 14.062458 4.081292 0.229539
v 14.062458 4.081292 -0.280689
v 14.345407 4.081292 -0.453034
v 14.345408 -5.928229 0.229539
v 14.062459 -5.928229 0.229539
v 14.062459 -5.928229 -0.280689
v 14.345408 -5.928229 -0.453034
v 14.345408 -7.613470 0.229539
v 14.062459 -7.613470 0.229539
v 14.062459 -7.613470 -0.280689
v 14.345408 -7.613470 -0.453034
v 14.345407 -1.279365 0.229539
v 14.345407 -1.279365 -0.453034
v 14.435318 6.184510 -0.078578
v -14.443152 6.173950 -0.078578
v -14.002822 7.145903 -0.192378
v 14.435318 7.086609 -0.023585
v -14.002822 7.077361 -0.018524
v -14.002822 7.074400 -0.134532
v 14.435318 7.083680 -0.139594
v 14.435318 7.145905 -0.192378
v -14.443152 7.064818 -0.078578
v 14.435318 7.075928 -0.078578
v -14.443152 6.173950 -0.078578
v 14.435318 6.184510 0.453033
v 14.435318 6.184510 -0.078578
v -14.443152 6.173950 0.453033
v 14.435318 6.184510 -0.067352
v -14.443152 6.173950 -0.067352
v 14.435318 7.075928 -0.067352
v -14.443152 7.064818 -0.067352
v 4.923670 6.943664 -0.280689
v 4.758722 6.943664 -0.280689
v 4.923670 7.226623 -0.453033
v 4.758722 7.222503 -0.453033
v 14.435318 6.170289 0.027936
v 14.435318 6.170289 -0.088938
v 14.435318 6.170289 -0.088938
v -14.443152 6.168853 -0.088938
v 14.435318 6.289002 -0.088938
v -14.443152 6.287536 -0.088938
v -14.444537 6.167373 0.030072
v -14.444537 6.168715 -0.086802
v 14.435318 7.320038 -0.151225
v -14.002822 7.329283 -0.156286
v 14.435318 7.223938 -0.216301
v -14.002822 7.233183 -0.221362
v 9.405258 6.943665 -0.280689
v 9.405258 6.943665 0.229539
v 9.570206 6.943665 -0.280689
v 9.405258 6.943665 -0.280689
v 9.570206 7.226624 -0.453033
v 9.405258 7.222504 -0.453033
v 4.758722 6.943664 -0.280689
v 4.758722 6.943664 0.229539
v 9.570206 7.226624 0.229539
v 9.570206 6.943665 -0.280689
v 9.570206 6.943665 0.229539
v 9.570206 7.226624 -0.453033
v 4.923670 7.226623 0.229539
v 4.923670 6.943664 -0.280689
v 4.923670 6.943664 0.229539
v 4.923670 7.226623 -0.453033
v -0.605322 6.943664 0.229539
v -0.440374 6.943664 -0.280689
v -0.605322 6.943664 -0.280689
v -0.440374 7.226623 -0.453033
v -0.605322 7.222503 -0.453033
v 13.786362 6.943665 -0.280689
v 13.786362 6.943665 0.229539
v 13.951340 6.943665 -0.280689
v 13.786362 6.943665 -0.280689
v 13.951340 7.226624 -0.453033
v 13.786362 7.222504 -0.453033
v -0.440374 6.943664 0.229539
v 13.951340 7.226624 0.229539
v 13.951340 6.943665 -0.280689
v 13.951340 6.943665 0.229539
v 13.951340 7.226624 -0.453033
v -14.024299 7.176817 -0.379571
v 14.435318 7.124543 -0.363464
v 14.435318 7.177491 -0.379774
v -14.024299 7.123900 -0.363271
v -14.024299 7.123900 -0.363271
v 14.435318 7.139405 -0.315226
v 14.435318 7.124543 -0.363464
v -14.024299 7.138762 -0.315033
v -0.605322 6.943664 -0.280689
v 4.758936 7.226623 0.229539
v 4.758936 6.943664 0.229539
v 4.758936 6.943664 -0.280689
v 4.758936 7.226623 -0.453033
v -0.440374 7.226623 0.229539
v -0.440374 6.943664 -0.280689
v -0.440374 7.226623 -0.453033
v -5.588910 6.943664 -0.280689
v -5.753858 6.943664 -0.280689
v -5.588910 7.226623 -0.453033
v -5.753858 7.222503 -0.453033
v -0.601721 7.226623 0.229539
v -0.601721 6.943664 0.229539
v -0.601721 6.943664 -0.280689
v -0.601721 7.226623 -0.453033
v 9.407791 7.226624 0.229539
v 9.407791 6.943665 0.229539
v 9.407791 6.943665 -0.280689
v 9.407791 7.226624 -0.453033
v 13.786301 7.226624 0.229539
v 13.786301 6.943665 0.229539
v 13.786301 6.943665 -0.280689
v 13.786301 7.226624 -0.453033
v -14.104962 6.943663 0.229539
v -13.940015 6.943663 -0.280689
v -14.104962 6.943663 -0.280689
v -13.940015 7.226622 -0.453033
v -14.104962 7.222502 -0.453033
v -5.753858 6.943664 -0.280689
v -5.753858 6.943664 0.229539
v -13.940015 6.943663 0.229539
v -5.750257 7.226622 0.229539
v -5.750257 6.943663 0.229539
v -5.750257 6.943663 -0.280689
v -5.750257 7.226622 -0.453033
v -5.588910 7.226623 0.229539
v -5.588910 6.943664 -0.280689
v -5.588910 6.943664 0.229539
v -5.588910 7.226623 -0.453033
v -10.497411 6.943663 -0.280689
v -10.497411 6.943663 0.229539
v -10.332463 6.943663 -0.280689
v -10.497411 6.943663 -0.280689
v -10.332463 7.226622 -0.453033
v -10.497411 7.222502 -0.453033
v -14.104962 6.943663 -0.280689
v -10.332463 6.943663 -0.280689
v -10.332463 6.943663 0.229539
v -14.101361 7.226622 0.229539
v -14.101361 6.943663 0.229539
v -14.101361 6.943663 -0.280689
v -14.101361 7.226622 -0.453033
v -13.940015 7.226622 0.229539
v -13.940015 6.943663 -0.280689
v -13.940015 7.226622 -0.453033
v 14.358232 -8.106199 0.026758
v 14.356890 -8.106199 -0.090116
v -14.447354 7.245360 -0.084665
v -14.447354 7.245360 0.032208
v -10.493810 7.226622 0.229539
v -10.493810 6.943663 0.229539
v -10.493810 6.943663 -0.280689
v -10.493810 7.226622 -0.453033
v -10.332463 7.226622 0.229539
v -10.332463 7.226622 -0.453033
v 13.301058 -8.109831 0.434582
v 14.377748 -8.099272 0.434582
v -14.448071 7.248120 0.028065
v -14.437512 6.171419 0.430599
v -14.437512 6.171419 0.028065
v -14.448071 7.248120 0.430599
v 13.286608 -8.109037 -0.087979
v 13.286608 -8.109037 0.028894
v 14.377748 -8.099272 0.032047
v 13.301058 -8.109831 0.032047
vt 6.135083 3.525762
vt 6.129380 2.985005
vt -3.188760 2.985005
vt 6.129380 2.985005
vt 1.011520 2.034552
vt 2.069122 0.999991
vt 1.015211 0.999991
vt 2.065431 2.034552
vt 6.144068 4.377851
vt -3.145032 4.377851
vt 6.129380 2.985005
vt -3.155836 2.985005
vt 6.129380 0.012862
vt -3.188760 0.012862
vt -10.936327 1.004626
vt 2.000000 2.319447
vt 2.000000 1.000005
vt -10.936327 2.324069
vn -0.479778 0.000000 -0.877390
vn -0.999678 -0.000598 0.025377
vn -0.999678 -0.000598 0.025377
vn -0.479796 -0.000138 -0.877380
vn 0.000000 0.000000 -1.000000
vn 0.000000 0.000000 -1.000000
vn 0.000000 0.000000 -1.000000
vn 0.000000 0.000000 -1.000000
vn -1.000000 -0.000651 0.000000
vn -1.000000 -0.000651 0.000000
vn -1.000000 -0.000651 0.000000
vn -1.000000 -0.000651 0.000000
vn 0.000000 0.000000 -1.000000
vn 0.000000 0.000000 -1.000000
vn 0.000000 0.000000 -1.000000
vn 0.000000 0.000000 -1.000000
vn -0.520199 0.000000 -0.854045
vn -0.521834 -0.003856 -0.853038
vn -1.000000 -0.000087 0.000000
vn -1.000000 -0.000087 0.000000
vn -1.000000 -0.000087 0.000000
vn -1.000000 -0.000087 0.000000
vn 0.000000 0.000000 -1.000000
vn 0.000000 0.000000 -1.000000
vn 0.000000 0.000000 -1.000000
vn 0.000000 0.000000 -1.000000
vn 0.560791 -0.000598 -0.827957
vn 0.560799 -0.000598 -0.827952
vn 0.148236 -0.000406 -0.988952
vn 0.137131 -0.000334 -0.990553
vn -0.907956 -0.000334 -0.419066
vn -0.912610 -0.000407 -0.408830
vn -1.000000 0.000000 0.000000
vn -1.000000 0.000000 0.000000
vn -0.520199 0.000000 -0.854045
vn -0.521834 -0.003856 -0.853038
vn -0.524085 -0.009203 -0.851616
vn -0.525719 -0.013112 -0.850557
vn -1.000000 0.000000 0.000000
vn -1.000000 0.000000 0.000000
vn -0.524085 -0.009203 -0.851616
vn -0.525719 -0.013112 -0.850557
vn -0.595716 -0.803195 0.000000
vn -0.707107 -0.707107 0.000000
vn 0.000000 -1.000000 0.000000
vn -0.595716 -0.803195 0.000000
vn -0.707107 -0.707107 0.000000
vn 0.000000 -1.000000 0.000000
vn -0.520199 0.000000 -0.854045
vn -0.521834 -0.003856 -0.853038
vn -0.524085 -0.009203 -0.851616
vn -0.525719 -0.013112 -0.850557
vn -1.000000 0.000000 0.000000
vn -1.000000 0.000000 0.000000
vn -0.520199 0.000000 -0.854045
vn -0.521834 -0.003856 -0.853038
vn -0.524085 -0.009203 -0.851616
vn -0.525719 -0.013112 -0.850557
vn 0.000000 -1.000000 0.000000
vn -0.595716 -0.803195 0.000000
vn -0.707107 -0.707107 0.000000
vn 0.000000 -1.000000 0.000000
vn 0.000000 -1.000000 0.000000
vn 0.000000 -1.000000 0.000000
vn -0.294331 -0.000000 -0.955704
vn -0.294327 0.000000 -0.955705
vn -0.294327 0.000000 -0.955705
vn -0.294331 -0.000000 -0.955704
vn -0.955702 -0.000041 0.294335
vn -0.955708 -0.000041 0.294318
vn -0.955707 -0.000041 0.294318
vn -0.955702 -0.000041 0.294335
vn -1.000000 0.000000 0.000000
vn -1.000000 0.000000 0.000000
vn 0.000000 1.000000 0.000000
vn 0.000000 1.000000 0.000000
vn 0.000000 -1.000000 0.000000
vn -0.595716 -0.803195 0.000000
vn -0.707107 -0.707107 0.000000
vn 0.000000 -1.000000 0.000000
vn 0.000000 1.000000 0.000000
vn 0.000000 1.000000 0.000000
vn 0.000000 1.000000 0.000000
vn 0.000000 1.000000 0.000000
vn 0.000000 1.000000 0.000000
vn 0.000000 1.000000 0.000000
vn 0.000000 1.000000 0.000000
vn 0.000000 1.000000 0.000000
vn 0.000000 1.000000 0.000000
vn 0.000000 1.000000 0.000000
vn 0.000000 1.000000 0.000000
vn 0.000000 1.000000 0.000000
vn 0.000000 1.000000 0.000000
vn 0.000000 1.000000 0.000000
vn 0.000000 0.000000 -1.000000
vn 0.000000 0.000000 -1.000000
vn 0.000000 -0.479789 -0.877384
vn 0.000330 -0.999681 0.025246
vn 0.000331 -0.999675 0.025508
vn 0.000185 -0.907949 -0.419081
vn 0.000224 -0.912636 -0.408774
vn 0.000077 -0.479849 -0.877351
vn 0.000000 0.000000 -1.000000
vn 0.000000 0.000000 -1.000000
vn 0.000366 -1.000000 0.000000
vn 0.000366 -1.000000 0.000000
vn 0.000366 -1.000000 0.000000
vn 0.000366 -1.000000 0.000000
vn 0.000000 0.000000 -1.000000
vn 0.000000 0.000000 -1.000000
vn 0.000000 0.000000 -1.000000
vn 0.000000 0.000000 -1.000000
vn 0.000000 -0.520185 -0.854053
vn 0.003862 -0.521823 -0.853045
vn 0.009216 -0.524077 -0.851621
vn 0.013131 -0.525713 -0.850561
vn 0.000101 -1.000000 0.000000
vn 0.000101 -1.000000 -0.000030
vn 0.000000 0.000000 -1.000000
vn 0.000000 0.000000 -1.000000
vn 0.000000 0.000000 -1.000000
vn 0.000000 0.000000 -1.000000
vn -0.704031 -0.710122 -0.008138
vn -0.708276 -0.705890 -0.008109
vn 0.000330 0.560706 -0.828015
vn 0.000330 0.560706 -0.828015
vn 0.000224 0.148255 -0.988949
vn 0.000184 0.136986 -0.990573
vn 0.000000 -1.000000 0.000000
vn 0.000000 -1.000000 0.000000
vn 0.000000 -0.520185 -0.854053
vn 0.003862 -0.521823 -0.853045
vn 0.009216 -0.524077 -0.851621
vn 0.013131 -0.525713 -0.850561
vn 0.000000 -1.000000 0.000000
vn 0.000000 -1.000000 0.000000
vn 1.000000 0.000000 0.000000
vn 0.803193 -0.595719 0.000000
vn 0.707107 -0.707107 0.000000
vn 1.000000 0.000000 0.000000
vn 1.000000 0.000000 0.000000
vn 0.803193 -0.595719 0.000000
vn 0.707107 -0.707107 0.000000
vn 1.000000 0.000000 0.000000
vn 0.000000 -1.000000 0.000000
vn 0.000000 -0.520185 -0.854053
vn 0.003862 -0.521823 -0.853045
vn 0.009216 -0.524077 -0.851621
vn 0.013131 -0.525713 -0.850561
vn 0.000000 -1.000000 0.000000
vn 0.000000 -1.000000 0.000000
vn 0.000000 -0.520185 -0.854053
vn 0.003862 -0.521823 -0.853045
vn 0.009214 -0.524076 -0.851621
vn 0.013128 -0.525713 -0.850561
vn 0.707107 -0.707107 0.000000
vn 1.000000 0.000000 0.000000
vn 0.803193 -0.595719 0.000000
vn 0.707107 -0.707107 0.000000
vn 1.000000 0.000000 0.000000
vn 0.000000 -0.294381 -0.955688
vn 0.000000 -0.294383 -0.955687
vn 0.000000 -0.294383 -0.955688
vn 0.000000 -0.294381 -0.955688
vn 0.000024 -0.955670 0.294442
vn 0.000024 -0.955671 0.294436
vn 0.000024 -0.955671 0.294436
vn 0.000024 -0.955670 0.294442
vn 0.000000 -1.000000 0.000000
vn -1.000000 0.000000 0.000000
vn -1.000000 0.000000 0.000000
vn -1.000000 0.000000 0.000000
vn -1.000000 0.000000 0.000000
vn 1.000000 0.000000 0.000000
vn 0.803193 -0.595719 0.000000
vn 1.000000 0.000000 0.000000
vn 0.000000 -0.520185 -0.854053
vn 0.003862 -0.521823 -0.853045
vn 0.009216 -0.524077 -0.851621
vn 0.013131 -0.525713 -0.850561
vn -1.000000 0.000000 0.000000
vn -1.000000 0.000000 0.000000
vn -1.000000 0.000000 0.000000
vn -1.000000 0.000000 0.000000
vn -1.000000 0.000000 0.000000
vn -1.000000 0.000000 0.000000
vn -1.000000 0.000000 0.000000
vn -1.000000 0.000000 0.000000
vn -1.000000 0.000000 0.000000
vn -1.000000 0.000000 0.000000
vn -1.000000 0.000000 0.000000
vn -1.000000 0.000000 0.000000
vn 0.000000 -1.000000 0.000000
vn 0.000000 -0.520185 -0.854053
vn 0.003862 -0.521823 -0.853045
vn 0.009216 -0.524077 -0.851621
vn 0.013131 -0.525713 -0.850561
vn 0.000000 -1.000000 0.000000
vn 0.000000 -1.000000 0.000000
vn 0.707107 -0.707107 0.000000
vn -1.000000 0.000000 0.000000
vn -1.000000 0.000000 0.000000
vn -1.000000 0.000000 0.000000
vn -1.000000 0.000000 0.000000
vn 1.000000 0.000000 0.000000
vn 0.803193 -0.595719 0.000000
vn 0.707107 -0.707107 0.000000
vn 1.000000 0.000000 0.000000
vn 0.000000 -1.000000 0.000000
vn 0.000000 -1.000000 0.000000
vn 0.000000 -0.520185 -0.854053
vn 0.003862 -0.521823 -0.853045
vn 0.009216 -0.524077 -0.851621
vn 0.013131 -0.525713 -0.850561
vn 0.000000 -1.000000 0.000000
vn 0.803193 -0.595719 0.000000
vn 0.707107 -0.707107 0.000000
vn -1.000000 0.000000 0.000000
vn -1.000000 0.000000 0.000000
vn -1.000000 0.000000 0.000000
vn -1.000000 0.000000 0.000000
vn 1.000000 0.000000 0.000000
vn 0.803193 -0.595719 0.000000
vn 1.000000 0.000000 0.000000
vn 0.002648 -0.999996 -0.000030
vn 0.002649 -0.999996 -0.000028
vn -0.999997 -0.002617 0.000000
vn -0.999996 -0.002616 -0.000002
vn -1.000000 0.000000 0.000000
vn -1.000000 0.000000 0.000000
vn -1.000000 0.000000 0.000000
vn -1.000000 0.000000 0.000000
vn 1.000000 0.000000 0.000000
vn 1.000000 0.000000 0.000000
vn -0.009807 0.999952 0.000000
vn -0.009807 0.999952 0.000000
vn -0.999952 -0.009806 0.000000
vn -0.999952 -0.009806 0.000000
vn -0.999952 -0.009806 0.000000
vn -0.999952 -0.009806 0.000000
vn 0.002652 -0.999997 0.000000
vn 0.002652 -0.999996 -0.000002
vn -0.009807 0.999952 0.000000
vn -0.009807 0.999952 0.000000
g fff044a3_00216_0053fbce_e4
f 42/14/42 41/13/41 18/12/18
f 18/12/18 41/13/41 17/11/17
f 46/11/46 40/10/40 39/12/39
f 40/10/40 46/11/46 47/9/47
f 38/14/38 37/13/37 36/12/36
f 36/12/36 37/13/37 35/11/35
f 43/11/43 34/10/34 33/12/33
f 34/10/34 43/11/43 44/9/44
f 58/14/58 57/13/57 56/12/56
f 56/12/56 57/13/57 55/11/55
f 60/11/60 54/10/54 53/12/53
f 54/10/54 60/11/60 61/9/61
f 52/14/52 51/13/51 50/12/50
f 50/12/50 51/13/51 49/11/49
f 78/11/78 74/10/74 73/12/73
f 74/10/74 78/11/78 79/9/79
f 72/10/72 71/11/71 70/9/70
f 71/11/71 72/10/72 69/12/69
f 68/12/68 67/13/67 66/11/66
f 65/14/65 67/13/67 68/12/68
f 116/14/116 115/13/115 114/12/114
f 114/12/114 115/13/115 113/11/113
f 142/11/142 136/10/136 135/12/135
f 136/10/136 142/11/142 143/9/143
f 134/14/134 133/13/133 132/12/132
f 132/12/132 133/13/133 131/11/131
f 138/11/138 130/10/130 129/12/129
f 130/10/130 138/11/138 139/9/139
f 155/14/155 154/13/154 153/12/153
f 153/12/153 154/13/154 152/11/152
f 158/11/158 151/10/151 150/12/150
f 151/10/151 158/11/158 159/9/159
f 149/14/149 148/13/148 147/12/147
f 147/12/147 148/13/148 146/11/146
f 175/11/175 145/10/145 169/12/169
f 145/10/145 175/11/175 156/9/156
f 168/10/168 167/11/167 166/9/166
f 167/11/167 168/10/168 165/12/165
f 164/12/164 163/13/163 162/11/162
f 161/14/161 163/13/163 164/12/164
f 180/14/180 179/13/179 178/12/178
f 178/12/178 179/13/179 177/11/177
f 206/11/206 199/10/199 198/12/198
f 199/10/199 206/11/206 207/9/207
f 197/14/197 196/13/196 195/12/195
f 195/12/195 196/13/196 194/11/194
f 223/11/223 193/10/193 215/12/215
f 193/10/193 223/11/223 200/9/200
f 214/14/214 213/13/213 212/12/212
f 212/12/212 213/13/213 211/11/211
f 216/11/216 210/10/210 209/12/209
f 210/10/210 216/11/216 217/9/217
g fff044a3_00216_0053fbce_e7
f 26/14/26 25/13/25 24/12/24
f 24/12/24 25/13/25 23/11/23
f 22/11/22 21/10/21 20/12/20
f 21/10/21 22/11/22 19/9/19
f 122/14/122 121/13/121 120/12/120
f 120/12/120 121/13/121 119/11/119
f 118/11/118 123/10/123 124/12/124
f 123/10/123 118/11/118 117/9/117
g fff044a3_00216_0053fbce_e6
f 4/11/4 32/4/32 31/3/31
f 3/10/3 32/4/32 2/9/2
f 4/11/4 31/3/31 1/12/1
f 3/10/3 31/3/31 32/4/32
f 4/11/4 30/3/30 29/4/29
f 28/10/28 27/9/27 29/4/29
f 4/11/4 1/12/1 30/3/30
f 28/10/28 29/4/29 30/3/30
f 48/2/48 47/9/47 46/11/46
f 47/9/47 48/2/48 45/1/45
f 64/2/64 44/9/44 43/11/43
f 44/9/44 64/2/64 63/1/63
f 62/2/62 61/9/61 60/11/60
f 61/9/61 62/2/62 59/1/59
f 80/2/80 79/9/79 78/11/78
f 79/9/79 80/2/80 77/1/77
f 94/2/94 76/11/76 75/9/75
f 75/9/75 93/1/93 94/2/94
f 92/2/92 91/11/91 90/9/90
f 90/9/90 89/1/89 92/2/92
f 88/2/88 87/11/87 86/9/86
f 86/9/86 85/1/85 88/2/88
f 84/2/84 83/11/83 82/9/82
f 82/9/82 81/1/81 84/2/84
f 102/11/102 101/4/101 100/3/100
f 99/10/99 101/4/101 98/9/98
f 102/11/102 100/3/100 97/12/97
f 99/10/99 100/3/100 101/4/101
f 102/11/102 128/3/128 127/4/127
f 126/10/126 125/9/125 127/4/127
f 102/11/102 97/12/97 128/3/128
f 126/10/126 127/4/127 128/3/128
f 144/2/144 143/9/143 142/11/142
f 143/9/143 144/2/144 141/1/141
f 140/2/140 139/9/139 138/11/138
f 139/9/139 140/2/140 137/1/137
f 160/2/160 159/9/159 158/11/158
f 159/9/159 160/2/160 157/1/157
f 176/2/176 156/9/156 175/11/175
f 156/9/156 176/2/176 174/1/174
f 173/2/173 172/11/172 171/9/171
f 171/9/171 170/1/170 173/2/173
f 192/2/192 191/11/191 190/9/190
f 190/9/190 189/1/189 192/2/192
f 188/2/188 187/11/187 186/9/186
f 186/9/186 185/1/185 188/2/188
f 184/2/184 183/11/183 182/9/182
f 182/9/182 181/1/181 184/2/184
f 208/2/208 207/9/207 206/11/206
f 207/9/207 208/2/208 205/1/205
f 204/2/204 203/11/203 202/9/202
f 202/9/202 201/1/201 204/2/204
f 224/2/224 200/9/200 223/11/223
f 200/9/200 224/2/224 222/1/222
f 221/2/221 220/11/220 219/9/219
f 219/9/219 218/1/218 221/2/221
f 234/2/234 217/9/217 216/11/216
f 217/9/217 234/2/234 233/1/233
f 232/2/232 231/11/231 230/9/230
f 230/9/230 229/1/229 232/2/232
f 124/11/124 228/10/228 227/12/227
f 228/10/228 124/11/124 123/9/123
f 226/11/226 242/10/242 241/12/241
f 242/10/242 226/11/226 225/9/225
g fff044a3_00216_0053fbce_e17
f 16/14/16 15/13/15 14/12/14
f 14/12/14 15/13/15 13/11/13
f 12/10/12 11/11/11 10/9/10
f 11/11/11 12/10/12 9/12/9
f 8/12/8 7/13/7 6/11/6
f 5/14/5 7/13/7 8/12/8
f 112/14/112 111/13/111 110/12/110
f 110/12/110 111/13/111 109/11/109
f 108/18/108 107/17/107 106/16/106
f 107/17/107 108/18/108 105/15/105
f 96/12/96 104/13/104 95/11/95
f 103/14/103 104/13/104 96/12/96
f 240/8/240 239/7/239 238/6/238
f 239/7/239 240/8/240 237/5/237
f 236/8/236 244/7/244 235/6/235
f 244/7/244 236/8/236 243/5/243
