# fff06058_00084_001e9ae2
o fff06058_00084_001e9ae2
v 9.000046 2.253387 -2.249908
v 9.000046 2.253387 1.787872
v -2.000000 2.246613 -0.250010
v -2.000000 2.247101 4.121780
v 6.000011 2.252203 2.121855
v 6.000011 2.251694 -2.249937
v 6.000011 -1.816209 2.121854
v -2.000000 -1.821274 4.121780
v -2.000000 -1.821259 -0.250000
v 6.000015 -1.816223 -2.249908
v 8.999985 -1.747345 -2.249908
v 8.999985 -2.247070 1.787872
v -9.000000 2.246613 -0.250010
v -9.000000 2.247101 4.121780
v -9.000000 -1.821274 4.121780
v -9.000000 -1.821289 -0.250000
v 9.000046 2.253387 -1.351166
v 6.000015 2.251801 -1.351166
v -2.000000 2.246689 0.653595
v -9.000000 2.246708 0.653595
v 6.000015 -1.816223 -1.351166
v -2.000000 -1.821259 0.653595
v -9.000000 -1.821289 0.653595
v 7.345200 2.252841 -2.249918
v 7.345200 2.252905 -1.351166
v 7.345200 2.252980 2.107972
v 7.345200 -1.815430 -2.249908
v 7.345200 -1.815399 -1.351166
v 7.345200 -1.815308 2.106567
v 8.999985 -1.747345 1.787872
v 7.345200 -1.747345 -2.249908
v 7.345200 -1.747345 -1.351166
v 7.345200 -1.747345 1.793732
v 9.000046 2.253387 1.787872
v 7.345200 2.252980 1.795136
v 7.345200 -2.247406 1.793732
v -2.708954 -1.821261 -0.250000
v -2.708954 -1.821261 0.653595
v -6.155762 -1.821279 -0.250000
v -6.155762 -1.821278 0.653595
v -6.155762 -1.821276 2.456177
v -2.708954 -1.821269 2.456177
v -2.708954 -2.689395 -0.249908
v -2.708954 -2.689395 0.653687
v -6.155762 -2.689412 -0.249908
v -6.155762 -2.689412 0.653687
v -6.155762 -2.689410 2.456268
v -2.708954 -2.689403 2.456268
v -6.155762 -1.842957 -0.249984
v -6.155762 -1.842957 0.653609
v -6.155762 -1.842957 2.456187
v -2.708954 -1.858607 2.456185
v -3.960220 2.124939 -0.250000
v -3.960220 2.321899 -0.250000
v -3.960236 2.321899 2.201385
v -3.805801 2.246704 -0.250000
v -3.805801 2.124939 -0.250000
v -6.854675 2.321869 2.201385
v -7.009171 2.246704 -0.250000
v -7.009171 2.124847 -0.250000
v -3.805740 2.246704 2.349670
v -7.009109 2.246704 2.349670
v -3.960236 2.124939 2.201385
v -6.854691 2.321869 -0.250000
v -6.854691 2.124847 -0.250000
v -6.854675 2.124847 2.201385
v -7.009094 2.124847 2.349670
v -3.805756 2.124939 2.349670
v -7.009109 2.246704 0.653595
v -3.805740 2.246704 0.653595
v -7.104782 2.246704 -0.250000
v -7.104782 2.246704 0.653595
v -7.104782 2.246704 2.455414
v -3.682022 2.246704 2.455414
v -3.682022 2.246704 0.653595
v -3.682022 2.246704 -0.250000
v -9.000000 -1.821277 3.382080
v -2.000000 -1.821270 3.382080
v 0.762100 -1.819005 3.431717
v 1.555637 -1.818346 3.233593
v -2.000000 -1.821270 3.157803
v -9.000000 -1.821277 3.140216
v -2.000000 -1.821270 3.447928
v 0.722009 -1.819039 3.441733
v -9.000000 -1.821276 3.434500
v -9.000000 2.247000 3.229401
v -2.000000 2.246978 3.229401
v 1.795588 2.250018 3.172962
v -9.000000 2.246979 3.006378
v -2.000000 2.246934 3.006378
v 2.711902 2.250494 2.943883
v 1.650533 2.249907 3.209223
v -2.000000 2.246987 3.297246
v -9.000000 2.247006 3.280389
vt 0.000000 0.000000
vt 0.000000 0.000000
vt 0.000000 0.000000
vt 0.000000 0.000000
vt 0.000000 0.000000
vt 0.000000 0.000000
vt 0.000000 0.000000
vt 0.000000 0.000000
vt 0.000000 0.000000
vt 0.000000 0.000000
vt 0.000000 0.000000
vt 0.000000 0.000000
vt 0.000000 0.000000
vt 0.000000 0.000000
vt 0.000000 0.000000
vt 0.000000 0.000000
vt 0.000000 0.000000
vt 0.000000 0.000000
vt 0.000000 0.000000
vt 1.398128 0.860691
vt 1.323223 0.860691
vt 1.398128 0.838730
vt 1.323223 0.838730
vt 1.398128 0.937394
vt 1.323223 0.937571
vt 0.000000 0.000000
vt 0.000000 0.000000
vt 0.000000 0.000000
vt 0.847384 2.091048
vt 0.886730 2.091048
vt 0.847384 2.073271
vt 0.886730 2.153135
vt 0.847384 2.153251
vt 1.392326 1.881336
vt 1.313797 1.885725
vt 1.392329 1.881335
vt 1.313797 1.884876
vt 1.262816 1.359179
vt 1.262816 1.233346
vt 1.175555 1.233205
vt 1.175555 1.359037
vt 1.175555 1.233205
vt 1.175555 1.359037
vt 1.263483 1.233372
vt 1.263421 1.359201
vt 0.000000 0.000000
vt 0.000000 0.000000
vt 0.000000 0.000000
vt 0.000000 0.000000
vt 0.000000 0.000000
vt 0.000000 0.000000
vt 0.000000 0.000000
vt 0.000000 0.000000
vt 0.000000 0.000000
vt 0.000000 0.000000
vt 0.000000 0.000000
vt 0.000000 0.000000
vt 0.000000 0.000000
vt 0.000000 0.000000
vt 0.000000 0.000000
vt 0.000000 0.000000
vt 1.782906 1.901055
vt 1.782906 1.576599
vt 1.707316 1.576599
vt 1.707316 1.901055
vt 1.736587 1.920629
vt 1.782882 1.920629
vt 1.782882 1.576599
vt 1.736587 1.576599
vt 1.707316 1.576599
vt 1.782882 1.901055
vt 1.707316 1.901055
vt 1.782882 1.576599
vt 1.736587 1.920629
vt 1.782906 1.576599
vt 1.782906 1.920629
vt 1.736587 1.576599
vt 1.745099 1.154070
vt 1.745099 1.154070
vt 1.745099 1.323020
vt 1.745099 1.313407
vt 1.745122 1.154070
vt 1.745122 1.323020
vt 1.745122 1.154070
vt 1.745122 1.313407
vt 1.199023 1.726438
vt 1.259357 1.726438
vt 1.199023 1.726438
vt 1.259387 1.726438
vt 1.200726 1.310920
vt 1.299237 1.310920
vt 1.200726 1.310920
vt 1.299206 1.310920
vt 0.000000 0.000000
vt 0.000000 0.000000
vt 0.000000 0.000000
vt 0.000000 0.000000
vt 0.000000 0.000000
vt 0.000000 0.000000
vt 0.000000 0.000000
vt 0.000000 0.000000
vt 0.000000 0.000000
vt 0.000000 0.000000
vt 0.000000 0.000000
vt 0.000000 0.000000
vt 0.000000 0.000000
vt 0.000000 0.000000
vt 0.000000 0.000000
vt 0.000000 0.000000
vt 0.000000 0.000000
vt 0.000000 0.000000
vt 0.000000 0.000000
vt 0.000000 0.000000
vt 0.000000 0.000000
vt 1.214637 1.233268
vt 0.000000 0.000000
vt 1.217584 1.233273
vt 0.000000 0.000000
vt 0.000000 0.000000
vt 0.000000 0.000000
vt 0.000000 0.000000
vt 1.214070 1.233267
vt 0.000000 0.000000
vt 0.000000 0.000000
vt 0.000000 0.000000
vt 0.000000 0.000000
vt 1.225458 1.359118
vt 0.000000 0.000000
vt 0.000000 0.000000
vt 0.000000 0.000000
vt 1.233600 1.359132
vt 0.000000 0.000000
vt 1.223551 1.359115
vt 0.000000 0.000000
vt 0.000000 0.000000
vn 0.000304 -1.000000 0.000023
vn 0.000246 -1.000000 0.000000
vn 0.000341 -1.000000 0.000073
vn -0.089278 -0.680600 -0.727195
vn -0.085965 -0.734489 -0.673154
vn 0.000768 -1.000000 0.000118
vn -0.087234 0.734342 -0.673151
vn -0.089678 0.680707 -0.727046
vn -0.000339 1.000000 0.000000
vn -0.000616 1.000000 -0.000007
vn 0.000000 1.000000 0.000000
vn -0.003731 0.000242 -0.999993
vn 0.000048 -1.000000 0.000106
vn -0.000002 -0.707147 -0.707066
vn -0.000001 0.707106 -0.707108
vn -0.000004 1.000000 -0.000000
vn 0.000285 -1.000000 0.000008
vn 0.000743 -1.000000 0.000123
vn 0.000340 -1.000000 0.000082
vn 0.000016 -1.000000 0.000095
vn -0.000625 1.000000 -0.000006
vn -0.000317 1.000000 0.000002
vn -0.000003 1.000000 -0.000002
vn 0.000582 -1.000000 0.000080
vn 0.000549 -1.000000 0.000059
vn -0.004554 -0.883452 -0.468499
vn -0.000590 1.000000 -0.000034
vn -0.000605 1.000000 -0.000024
vn -0.008472 0.709616 -0.704538
vn 0.000000 1.000000 0.000000
vn 0.000000 1.000000 0.000000
vn 0.000000 1.000000 0.000000
vn 0.000000 1.000000 0.000000
vn -0.004389 0.000000 -0.999990
vn -0.004199 0.000070 -0.999991
vn -0.003541 0.000312 -0.999994
vn -0.000004 1.000000 0.000000
vn -0.000004 1.000000 0.000002
vn 0.706938 0.707275 -0.000000
vn 0.707105 0.707108 -0.000001
vn 0.301633 0.904482 -0.301546
vn -0.000003 0.948678 -0.316245
vn -0.000005 1.000000 0.000000
vn -0.000005 1.000000 0.000002
vn 0.707125 0.707089 -0.000000
vn 0.707105 0.707108 0.000000
vn 0.577345 0.577325 -0.577381
vn -0.000004 0.707072 -0.707142
vn 1.000000 0.000000 0.000000
vn 1.000000 0.000000 0.000000
vn 0.707063 -0.000206 -0.707151
vn -0.000001 -0.000156 -1.000000
vn -0.707106 -0.707108 -0.000004
vn -1.000000 0.000000 -0.000006
vn -0.707107 0.000000 -0.707106
vn 0.707122 -0.707091 -0.000017
vn 0.707102 -0.707112 -0.000016
vn 0.707102 0.000000 -0.707111
vn -0.707092 -0.707122 0.000017
vn -0.707112 -0.707102 0.000017
vn 0.301504 -0.904549 0.301475
vn -0.301503 -0.904545 0.301487
vn -0.301498 -0.904532 -0.301532
vn 1.000000 0.000000 -0.000006
vn 0.707105 -0.707108 -0.000004
vn 0.301527 -0.904535 -0.301493
vn -0.577297 -0.577389 0.577365
vn 0.577321 -0.577378 0.577352
vn 0.000000 -1.000000 0.000000
vn 0.000000 -1.000000 0.000000
vn 0.000006 -1.000000 0.000015
vn -0.000016 -1.000000 0.000016
vn -0.000043 -1.000000 0.000227
vn 0.000015 -1.000000 0.000216
vn -0.000012 -1.000000 0.000007
vn -0.000027 -1.000000 0.000000
vn -0.000001 1.000000 -0.000004
vn -0.000411 1.000000 0.000004
vn -0.171992 0.707017 -0.685963
vn -0.171863 0.706420 -0.686611
vn -0.000368 1.000000 -0.000027
vn -0.000001 1.000000 -0.000003
vn -0.000410 1.000000 0.000005
vn -0.171953 0.707042 -0.685948
vn -0.000001 1.000000 -0.000004
vn -0.000005 -1.000000 0.000106
vn 0.000400 -1.000000 0.000166
vn -0.171025 -0.707546 -0.685659
vn -0.000032 -1.000000 0.000116
vn 0.000394 -1.000000 0.000187
vn -0.171025 -0.707302 -0.685912
vn -0.170938 -0.707258 -0.685978
vn 0.000401 -1.000000 0.000137
vn -0.000003 -1.000000 0.000112
g fff06058_00084_001e9ae2_e10
f 25/18/25 18/11/18 24/17/24
f 18/11/18 6/3/6 24/17/24
f 76/107/76 3/1/3 75/106/75
f 75/106/75 3/1/3 19/12/19
f 3/1/3 6/3/6 19/12/19
f 19/12/19 6/3/6 18/11/18
f 28/27/28 27/26/27 10/7/10
f 21/14/21 28/27/28 10/7/10
f 9/6/9 22/15/22 21/14/21
f 38/47/38 22/15/22 37/46/37
f 22/15/22 9/6/9 37/46/37
f 9/6/9 21/14/21 10/7/10
f 40/49/40 39/48/39 16/10/16
f 23/16/23 40/49/40 16/10/16
f 44/53/44 43/52/43 45/54/45
f 46/56/46 44/53/44 45/54/45
f 59/94/59 72/101/72 71/100/71
f 59/94/59 69/95/69 72/101/72
f 76/105/76 75/104/75 70/97/70
f 76/105/76 70/97/70 56/98/56
f 20/13/20 71/109/71 72/110/72
f 13/8/13 71/109/71 20/13/20
g fff06058_00084_001e9ae2_e11
f 22/15/22 38/47/38 42/51/42
f 81/118/81 80/116/80 7/4/7
f 29/28/29 21/14/21 7/4/7
f 21/14/21 22/15/22 7/4/7
f 29/28/29 28/27/28 21/14/21
f 40/49/40 23/16/23 41/50/41
f 93/134/93 92/132/92 4/1/4
f 26/19/26 5/2/5 25/18/25
f 19/12/19 74/108/74 75/106/75
f 87/125/87 93/134/93 94/135/94
f 25/18/25 5/2/5 18/11/18
f 87/125/87 90/129/90 88/126/88
f 83/120/83 85/123/85 15/9/15
f 44/53/44 46/49/46 48/55/48
f 83/120/83 15/9/15 8/5/8
f 78/113/78 81/118/81 82/119/82
f 48/55/48 46/56/46 47/57/47
f 82/119/82 81/118/81 41/50/41
f 52/61/52 51/60/51 41/50/41
f 41/50/41 42/51/42 52/61/52
f 48/55/48 47/57/47 51/60/51
f 51/60/51 52/61/52 48/55/48
f 61/99/61 74/103/74 73/102/73
f 72/101/72 62/96/62 73/102/73
f 70/97/70 75/104/75 61/99/61
f 69/95/69 62/96/62 72/101/72
f 61/99/61 73/102/73 62/96/62
f 75/104/75 74/103/74 61/99/61
f 89/128/89 73/111/73 74/108/74
f 89/128/89 90/129/90 86/124/86
f 4/1/4 14/8/14 93/134/93
f 89/128/89 74/108/74 90/129/90
f 41/50/41 23/16/23 82/119/82
f 22/15/22 81/118/81 7/4/7
f 22/15/22 42/51/42 81/118/81
f 83/120/83 8/5/8 84/121/84
f 78/113/78 79/114/79 80/116/80
f 81/118/81 78/113/78 80/116/80
f 81/118/81 42/51/42 41/50/41
f 78/113/78 82/119/82 77/112/77
f 78/113/78 85/123/85 83/120/83
f 78/113/78 83/120/83 79/114/79
f 83/120/83 84/121/84 79/114/79
f 78/113/78 77/112/77 85/123/85
f 72/110/72 89/128/89 20/13/20
f 19/12/19 18/11/18 90/129/90
f 90/129/90 74/108/74 19/12/19
f 18/11/18 5/2/5 91/130/91
f 72/110/72 73/111/73 89/128/89
f 90/129/90 18/11/18 91/130/91
f 87/125/87 86/124/86 90/129/90
f 90/129/90 91/130/91 88/126/88
f 87/125/87 88/126/88 92/132/92
f 87/125/87 92/132/92 93/134/93
f 93/134/93 14/8/14 94/135/94
f 87/125/87 94/135/94 86/124/86
g fff06058_00084_001e9ae2_e4
f 17/20/17 25/21/25 1/22/1
f 25/21/25 24/23/24 1/22/1
f 2/24/2 26/25/26 17/20/17
f 17/20/17 26/25/26 25/21/25
f 32/29/32 11/30/11 31/31/31
f 30/32/30 32/29/32 33/33/33
f 30/32/30 11/30/11 32/29/32
f 12/34/12 35/35/35 34/36/34
f 12/34/12 36/37/36 35/35/35
g fff06058_00084_001e9ae2_e13
f 5/38/5 7/39/7 80/117/80
f 4/41/4 92/133/92 79/115/79
f 8/40/8 15/42/15 4/41/4
f 14/43/14 4/41/4 15/42/15
f 29/44/29 7/39/7 26/45/26
f 7/39/7 5/38/5 26/45/26
f 68/87/68 62/86/62 67/89/67
f 62/86/62 68/87/68 61/88/61
f 60/75/60 62/74/62 59/77/59
f 62/74/62 60/75/60 67/76/67
f 53/78/53 57/79/57 68/80/68
f 68/80/68 63/81/63 53/78/53
f 65/82/65 67/83/67 60/84/60
f 67/83/67 65/82/65 66/85/66
f 63/81/63 67/83/67 66/85/66
f 67/83/67 63/81/63 68/80/68
f 66/62/66 65/63/65 64/64/64
f 64/64/64 58/65/58 66/62/66
f 61/66/61 68/67/68 57/68/57
f 57/68/57 56/69/56 61/66/61
f 54/70/54 63/71/63 55/72/55
f 63/71/63 54/70/54 53/73/53
f 55/90/55 66/91/66 58/92/58
f 66/91/66 55/90/55 63/93/63
f 4/41/4 84/122/84 8/40/8
f 5/38/5 80/117/80 79/115/79
f 4/41/4 79/115/79 84/122/84
f 91/131/91 5/38/5 79/115/79
f 88/127/88 91/131/91 79/115/79
f 92/133/92 88/127/88 79/115/79
g fff06058_00084_001e9ae2_e12
f 47/57/47 46/56/46 50/59/50
f 50/59/50 51/60/51 47/57/47
f 40/49/40 41/50/41 51/60/51
f 51/60/51 50/59/50 40/49/40
g fff06058_00084_001e9ae2_e3
f 39/48/39 40/49/40 50/59/50
f 50/59/50 49/58/49 39/48/39
f 46/56/46 45/54/45 49/58/49
f 49/58/49 50/59/50 46/56/46
