# fff08519_00151_002db67a
o fff08519_00151_002db67a
v -15.346221 -1.284755 0.437196
v -9.625739 -0.592978 0.288886
v -14.307572 0.414412 0.437197
v -7.691194 2.195133 0.175033
v -11.160726 1.426532 0.252990
v -11.662606 -5.470957 0.701740
v -8.828498 -4.184477 0.280497
v -12.981034 -3.145752 0.566665
v -3.234468 -1.287606 -0.334357
v -1.299209 2.518003 -0.334357
v -5.549933 1.863009 -0.334357
v 14.105100 3.313428 -0.701740
v 15.346221 5.470957 -0.701740
v 12.038466 5.336418 -0.701740
v 10.308061 2.590454 -0.701740
v 7.992595 4.815963 -0.701740
vt -0.012573 -0.052386
vt 0.046568 -0.052386
vt -0.012573 0.031900
vt 0.046568 0.031900
vt 0.015425 0.031900
vt 0.046568 0.031900
vt 0.015425 0.031900
vt 0.046568 -0.052386
vt 0.046442 -0.052328
vt 0.015299 0.031958
vn 0.027981 -0.017104 0.999462
vn 0.018392 0.020005 0.999631
vn 0.027981 -0.017104 0.999462
vn 0.015852 0.029813 0.999430
vn 0.015852 0.029813 0.999430
vn 0.096171 0.111986 0.989045
vn 0.096171 0.111986 0.989045
vn 0.096171 0.111986 0.989045
vn 0.000000 0.000000 1.000000
vn 0.000000 0.000000 1.000000
vn 0.000000 0.000000 1.000000
vn 0.000000 0.000000 1.000000
vn 0.000000 0.000000 1.000000
vn 0.000000 0.000000 1.000000
vn 0.000000 0.000000 1.000000
vn 0.000000 0.000000 1.000000
g fff08519_00151_002db67a_e0
f 2/2/2 3/3/3 1/1/1
f 12/8/12 16/10/16 15/9/15
f 4/4/4 5/5/5 2/2/2
f 7/4/7 8/5/8 6/2/6
f 10/4/10 11/5/11 9/2/9
f 13/6/13 14/7/14 12/8/12
f 16/10/16 12/8/12 14/7/14
