# fff0a81b_00623_00d8f4b2
o fff0a81b_00623_00d8f4b2
v -0.389093 7.523274 0.000000
v -0.389093 5.492421 0.000000
v -3.100965 5.492421 0.000000
v -3.100965 7.523274 0.000000
v 3.100966 7.506078 0.000000
v 3.100966 5.313268 0.000000
v -0.445997 5.313268 0.000000
v -0.445997 7.506078 0.000000
v -2.917286 2.813705 0.000000
v -0.724445 2.813705 0.000000
v -0.724445 -7.523274 0.000000
v -2.917286 -7.523274 0.000000
vt 0.758705 2.489031
vt 0.758705 2.991501
vt 1.000000 2.991501
vt 1.003030 2.489031
vt 0.623705 2.509138
vt 1.000000 1.995455
vt 0.623705 2.000517
vt 0.623705 2.509138
vt 1.000000 2.504075
vt 1.000000 1.995455
vt 0.000000 2.000000
vt 0.000000 2.508621
vt 0.644627 2.508621
vt 0.644627 2.000000
vn 0.000000 0.000000 1.000000
vn 0.000000 0.000000 1.000000
vn 0.000000 0.000000 1.000000
vn 0.000000 0.000000 1.000000
vn 0.000000 0.000000 1.000000
vn 0.000000 0.000000 1.000000
vn 0.000000 0.000000 1.000000
vn 0.000000 0.000000 1.000000
vn 0.000000 0.000000 1.000000
vn 0.000000 0.000000 1.000000
vn 0.000000 0.000000 1.000000
vn 0.000000 0.000000 1.000000
g fff0a81b_00623_00d8f4b2_e36
f 12/14/12 11/13/11 10/12/10
f 9/11/9 12/14/12 10/12/10
f 8/10/8 7/9/7 6/8/6
f 5/7/5 8/6/8 6/5/6
f 4/4/4 3/3/3 2/2/2
f 1/1/1 4/4/4 2/2/2
