# fff0b525_00009_00044152
o fff0b525_00009_00044152
v 0.009812 -0.192379 0.073172
v 0.009812 -0.096199 0.073172
v 0.009812 -0.192379 0.101415
v -0.017274 -0.231291 -0.293555
v -0.017274 0.197288 -0.225899
v -0.017274 -0.231291 0.631520
v -0.016121 0.075912 0.419512
v -0.016121 0.075912 0.377147
v -0.016121 -0.043351 0.377147
v -0.016121 -0.043351 0.419512
v -0.023430 -0.192228 0.101415
v 0.009812 -0.096199 0.101415
v -0.017274 -0.106503 -0.225899
v -0.017274 0.254996 -0.293555
v -0.017274 -0.106503 0.493785
v -0.017274 0.254996 0.631520
v -0.017274 0.197288 0.493785
v -0.001778 0.252626 0.491657
v -0.001778 0.252626 0.430770
v -0.015214 0.238624 0.430770
v -0.015214 0.238624 0.491657
v -0.001778 0.252626 -0.085378
v -0.001778 0.252626 -0.146266
v -0.015214 0.238624 -0.146266
v -0.015214 0.238624 -0.085378
v -0.023508 -0.192379 0.073172
v -0.023508 -0.192379 0.101415
v -0.077532 0.249027 -0.300869
v -0.077296 -0.264871 -0.300869
v 0.020503 -0.264871 -0.300869
v 0.020503 -0.232020 -0.300869
v 0.020503 0.286717 -0.300869
v 0.020503 0.249027 -0.300869
v -0.077532 0.286717 -0.300869
v -0.077296 -0.232751 -0.300869
v -0.077532 -0.232020 0.629678
v -0.077532 0.286717 0.678314
v 0.020503 0.249027 0.629678
v -0.077532 0.249027 0.629678
v 0.020503 -0.232020 0.629678
v 0.020503 -0.264871 0.678314
v -0.077532 -0.264871 0.678314
v 0.020503 0.286717 0.678314
v -0.013932 -0.293387 -0.320240
v -0.013932 0.284306 -0.320240
v -0.013932 -0.293387 0.692670
v -0.013932 -0.259594 -0.320240
v -0.013932 0.356509 -0.320240
v -0.013932 -0.259594 0.675326
v -0.013932 0.356509 0.692670
v -0.013932 0.284306 0.675326
vt 0.000000 0.000000
vt 0.000000 0.000000
vt -0.000000 1.000000
vt -0.000000 1.000000
vt -0.000000 1.000000
vt -0.000000 1.000000
vt -0.000000 1.000000
vt -0.000000 1.000000
vt -0.000000 1.000000
vt -0.000000 1.000000
vt 0.000000 0.000000
vt 0.000000 0.000000
vt 0.000000 0.000000
vt 0.000000 0.000000
vt 0.000000 0.000000
vt 0.000000 0.000000
vt -0.000000 1.000000
vt -0.000000 1.000000
vt 0.350863 0.627580
vt 0.350863 0.648087
vt 0.350863 0.627580
vt -0.586502 0.762799
vt 0.350999 0.623619
vt 0.350999 0.623619
vt 0.350999 0.644125
vt 1.477324 0.375725
vt 1.289508 0.749061
vt 1.411398 0.376081
vt -0.079907 0.388691
vt -0.042942 0.388692
vt -0.879580 0.750695
vt 0.350999 0.644101
vt -0.083706 0.866507
vt -0.393040 0.799018
vt 5.153890 0.260299
vt 5.158102 -0.115614
vt -0.156847 0.724695
vt 0.350863 0.648087
vt -0.880131 0.757033
vt -0.907346 0.756585
vn 0.707107 -0.707107 0.000000
vn 1.000000 -0.000000 0.000000
vn 0.577904 -0.577904 0.576241
vn 1.000000 -0.000000 0.000000
vn 1.000000 -0.000000 -0.000000
vn 1.000000 -0.000000 -0.000000
vn 1.000000 -0.000000 0.000000
vn 1.000000 -0.000000 0.000000
vn 1.000000 -0.000000 0.000000
vn 1.000000 -0.000000 0.000000
vn 0.000000 0.000000 1.000000
vn 0.978227 -0.000000 0.207538
vn 1.000000 -0.000000 0.000000
vn 1.000000 -0.000000 -0.000000
vn 1.000000 -0.000000 -0.000000
vn 1.000000 -0.000000 0.000000
vn 1.000000 -0.000000 0.000000
vn 0.721533 -0.692380 0.000000
vn 0.721533 -0.692380 0.000000
vn 0.721533 -0.692380 0.000000
vn 0.721533 -0.692380 0.000000
vn 0.721533 -0.692380 0.000000
vn 0.721533 -0.692380 0.000000
vn 0.721533 -0.692380 0.000000
vn 0.721533 -0.692380 0.000000
vn 0.000000 -1.000000 0.000000
vn 0.000000 -1.000000 0.000000
vn 0.000000 -1.000000 0.000000
vn 0.000000 -1.000000 0.000000
vn 0.707107 -0.707106 0.000000
vn 0.704458 0.709746 0.000000
vn 0.707107 0.707106 0.000000
vn 0.707107 -0.707107 0.000000
vn 0.000000 1.000000 0.000000
vn -0.006979 0.999976 -0.000053
vn -0.000000 1.000000 -0.000786
vn 0.000000 0.707107 0.707107
vn 0.948683 -0.316228 0.000000
vn 0.000000 -1.000000 0.000000
vn 0.948667 0.316275 -0.000232
vn 0.577350 -0.577350 0.577350
vn 0.000000 -0.707053 0.707161
vn 0.577350 0.577350 0.577350
vn 1.000000 -0.000000 0.000000
vn 1.000000 -0.000000 0.000000
vn 1.000000 -0.000000 0.000000
vn 1.000000 -0.000000 0.000000
vn 1.000000 -0.000000 0.000000
vn 1.000000 -0.000000 0.000000
vn 1.000000 -0.000000 0.000000
vn 1.000000 -0.000000 0.000000
g fff0b525_00009_00044152_e4
f 31/28/31 40/27/40 30/26/30
f 30/36/30 40/27/40 41/35/41
f 38/31/38 41/34/41 40/27/40
f 32/37/32 43/40/43 38/31/38
f 33/30/33 32/29/32 38/31/38
f 3/10/3 2/9/2 12/8/12
f 3/10/3 1/7/1 2/9/2
f 38/31/38 43/40/43 41/39/41
f 15/16/15 4/12/4 13/14/13
f 4/12/4 15/16/15 6/11/6
f 13/14/13 5/15/5 15/16/15
f 6/11/6 17/13/17 16/2/16
f 17/13/17 6/11/6 15/16/15
f 5/15/5 16/2/16 17/13/17
f 16/2/16 5/15/5 14/1/14
f 13/14/13 14/1/14 5/15/5
f 14/1/14 13/14/13 4/12/4
f 15/16/15 5/15/5 17/13/17
g fff0b525_00009_00044152_e7
f 1/7/1 3/10/3 27/18/27
f 27/18/27 26/17/26 1/7/1
f 40/25/40 31/24/31 35/23/35
f 41/35/41 29/26/29 30/36/30
f 29/26/29 41/35/41 42/22/42
f 34/29/34 37/33/37 43/40/43
f 43/40/43 32/37/32 34/29/34
f 35/23/35 36/32/36 40/25/40
f 33/21/33 38/38/38 39/20/39
f 39/20/39 28/19/28 33/21/33
g fff0b525_00009_00044152_e2
f 43/40/43 42/34/42 41/39/41
f 42/34/42 43/40/43 37/33/37
f 21/6/21 20/5/20 19/4/19
f 21/6/21 19/4/19 18/3/18
f 25/6/25 23/4/23 22/3/22
f 25/6/25 24/5/24 23/4/23
g fff0b525_00009_00044152_e5
f 46/11/46 51/13/51 50/2/50
f 51/13/51 46/11/46 49/16/49
f 45/15/45 50/2/50 51/13/51
f 50/2/50 45/15/45 48/1/48
f 44/12/44 49/16/49 46/11/46
f 49/16/49 44/12/44 47/14/47
g fff0b525_00009_00044152_e3
f 12/8/12 11/6/11 3/10/3
f 10/6/10 9/5/9 8/4/8
f 10/6/10 8/4/8 7/3/7
