# fff0af14_00443_00f1b725
o fff0af14_00443_00f1b725
v 0.501845 -0.301246 -0.557556
v 0.520231 -0.288384 -0.430298
v -0.586436 1.402992 -0.621948
v -0.568136 1.415767 -0.494690
v -0.445222 -0.965884 -0.158752
v -1.234243 0.950261 -0.301941
v -1.234243 0.950261 -0.172729
v -1.409553 -1.639500 -0.295410
v -2.606766 0.113248 -0.520020
v -2.643105 0.087957 -0.398621
v -0.748711 1.289745 -0.559631
v -0.726355 1.305196 -0.435059
v 0.329385 -0.422262 -0.376648
v -0.671631 -0.275954 -0.304504
v -1.234416 0.950434 -0.171875
v -0.932911 1.161478 -0.327698
v -0.774606 0.550183 -0.233765
v -1.072399 0.589371 -0.210693
v -0.687513 1.073694 -0.390808
v -0.782116 1.266353 -0.405823
v -0.900887 1.183489 -0.343933
v -0.782116 1.007748 -0.341370
v 5.386841 -0.732086 -0.241619
v 5.376831 -0.791168 -0.390760
v 6.118530 0.526978 -0.457432
v 6.087402 0.532379 -0.509682
v 6.922729 -1.386871 0.892952
v 7.053040 -1.480865 0.892952
v 6.917114 0.336700 0.371179
v 7.047424 0.389984 0.371179
v 6.996765 0.243286 -0.351171
v 6.276062 -1.440430 -0.210537
v 7.038879 0.250336 -0.478440
v 5.684082 -0.128326 -0.660368
v 5.707214 -0.117065 -0.563401
v 6.463696 -0.495651 -0.375010
v 5.343260 -0.523300 -0.507290
v 5.326766 -0.480888 -0.351754
v 5.529294 -0.591252 -0.527117
v 5.508246 -0.545244 -0.447504
v 5.775418 -0.315456 -0.525612
v 5.747859 -0.293721 -0.399657
v 6.104553 0.135437 -0.544440
v 6.096008 0.119415 -0.442445
v -0.427181 0.945600 -0.623901
v -0.402408 0.950002 -0.446716
v -0.526187 1.046159 -0.608093
v -0.501155 1.050475 -0.430847
v -0.075958 1.298549 -0.669312
v -0.051099 1.302692 -0.492126
v -0.174791 1.398936 -0.653442
v -0.150191 1.403510 -0.476257
v -0.351050 1.102869 -0.451050
v -0.404998 1.107617 -0.441528
v -0.407933 1.053928 -0.432190
v -0.354330 1.049180 -0.441650
v -0.126885 1.322200 -0.479187
v -0.180920 1.325480 -0.469788
v -0.184113 1.270841 -0.469971
v -0.129993 1.267648 -0.479309
v 5.899362 0.006719 -0.601014
v 5.898194 -0.000904 -0.503986
v 5.979159 -0.041073 -0.518646
v 6.566029 -0.353799 -0.370433
v 6.957960 -0.611140 0.300920
v 6.920239 -0.622396 0.661524
v 7.050666 -0.690027 0.672390
v -0.803478 1.039357 -0.341831
v -0.752605 1.206255 -0.401139
v -1.701762 -1.230293 -0.319859
v -1.399236 -0.508453 -0.262870
v -1.006356 0.453581 -0.226105
v -0.723768 1.300963 -0.434915
v -0.723547 1.301606 -0.435048
v -0.721195 1.308802 -0.437003
v -0.763046 1.279722 -0.552023
v -0.856590 0.866765 -0.282411
v -0.915897 0.673173 -0.214747
v -0.956639 0.574138 -0.219662
v -1.075323 -0.404950 -0.281405
v -0.884558 0.188121 -0.254633
v -0.579466 1.065116 -0.426882
v -0.581188 1.068224 -0.427180
v -0.505338 1.317439 -0.490975
v -0.521994 1.302078 -0.618135
vt 0.000000 1.000000
vt 1.000000 1.000000
vt 1.000000 0.000000
vt 1.000000 1.000000
vt 1.000000 0.000000
vt 1.000000 1.000000
vt 1.000000 0.234116
vt 0.241234 0.241234
vt 1.245107 1.799617
vt 1.245107 1.799617
vt 1.245107 1.799617
vt 1.245107 1.799617
vt 1.773157 1.734724
vt 1.773157 1.734724
vt 1.773157 1.734724
vt 1.773157 1.734724
vt 0.519298 1.000000
vt 1.000000 0.519298
vt 2.000000 5.000000
vt 1.000000 4.000000
vt 2.000000 4.000000
vt 1.000000 5.000000
vt 1.000000 2.000000
vt 2.000000 2.000000
vt 1.000000 -1.973382
vt 2.000000 -1.973382
vt 1.180055 0.999975
vt 0.999938 1.999771
vt 1.864296 1.999975
vt 1.999938 1.343330
vt 1.239846 1.000079
vt 1.948068 2.000079
vt 2.000007 1.001298
vt 1.000007 1.999649
vt 0.000000 0.000000
vt 1.000000 0.000000
vt 0.000000 1.000000
vt 1.000000 1.000000
vt 0.000000 0.000000
vt 1.000000 0.000000
vt 0.000000 1.000000
vt 1.000000 1.000000
vt 0.000000 0.000000
vt 1.000000 0.000000
vt 0.000000 1.000000
vt 1.000000 1.000000
vt 1.000000 0.500000
vt 0.000000 0.500000
vt 0.500000 0.500000
vt 1.000000 0.500000
vt 0.500000 0.500000
vt 0.000000 0.500000
vt 0.434079 0.000000
vt 0.821895 0.178105
vt 0.741599 0.500000
vt 0.927255 0.072745
vt 0.884709 0.115291
vt 0.839162 0.160839
vt 0.850821 0.230383
vt 0.231800 0.000000
vt 2.000000 3.000000
vt 2.000000 5.000000
vt 1.000000 3.000000
vt 1.000000 -3.000000
vt 1.000000 -4.000000
vt 2.000000 -4.000000
vt 1.000000 5.000000
vt 2.000000 -3.000000
vt 2.000000 1.000000
vt 1.000000 1.000000
vt 1.000000 0.000000
vt 2.000000 0.000000
vt 1.000000 -2.000000
vt 2.000000 -2.000000
vt 1.773157 1.734724
vt 1.773157 1.734724
vt 1.256785 1.270792
vt 1.256785 1.270792
vt 1.256785 1.270792
vt 1.256785 1.270792
vt 1.256785 1.270792
vt 1.256785 1.270792
vt 1.256785 1.270792
vt 1.256785 1.270792
vt 1.736637 1.230004
vt 1.736637 1.230004
vt 1.736637 1.230004
vt 1.736637 1.230004
vt 1.221496 1.256516
vt 1.221496 1.256516
vt 1.221496 1.256516
vt 1.221496 1.256516
vt 1.221496 1.256516
vt 1.221496 1.256516
vt 1.221496 1.256516
vt 1.221496 1.256516
vt 1.000000 2.023991
vt 2.000000 1.982422
vt 0.334717 0.000000
vt 0.447981 0.105442
vt 0.754013 0.245987
vt 0.695219 0.500000
vt 0.762068 0.762068
vt 0.524137 0.762068
vt 0.556459 1.000000
vt 0.000000 0.443541
vt 1.000000 0.422716
vt 1.990665 1.180938
vt 1.074823 1.687840
vt 1.000000 0.236884
vt 1.000000 0.434060
vt 1.000000 0.805291
vt 0.805291 1.000000
vt 0.998141 0.234134
vt 1.245107 1.799617
vt 1.245107 1.799617
vt 1.245107 1.799617
vt 2.000000 4.032611
vt 1.000000 3.940950
vt 1.086775 1.517756
vt 1.390310 1.307257
vt 1.681227 1.209859
vt 1.000000 0.472006
vt 0.701226 1.000000
vt 1.000000 0.701226
vt 0.893208 0.235118
vt 1.245107 1.799617
vt 1.245107 1.799617
vt 1.773157 1.734724
vt 1.245107 1.799617
vt 1.773157 1.734724
vn 0.832978 0.525431 -0.173408
vn 0.685896 0.453897 0.568792
vn 0.225188 0.965695 -0.129323
vn 0.248285 0.875806 0.413905
vn -0.094511 0.175983 0.979846
vn -0.548945 0.835858 0.000058
vn -0.222431 0.569333 0.791444
vn -0.096760 0.019138 0.995124
vn -0.524152 0.851401 0.019512
vn -0.420760 0.533360 0.733818
vn -0.572545 0.819873 0.000864
vn -0.221712 0.725824 0.651170
vn 0.145508 0.141248 0.979222
vn 0.036029 0.013290 0.999262
vn 0.260480 0.151808 0.953470
vn 0.319038 0.224122 0.920861
vn 0.203785 0.083275 0.975467
vn 0.066950 -0.076909 0.994788
vn 0.320368 0.229108 0.919170
vn 0.319650 0.228624 0.919541
vn 0.319535 0.229145 0.919451
vn 0.320137 0.229766 0.919086
vn -0.307851 0.361569 0.880054
vn -0.991780 -0.081325 0.098781
vn -0.325369 0.708138 0.626638
vn -0.679157 0.554388 0.481040
vn -0.282942 0.326720 0.901775
vn 0.190606 0.264250 0.945432
vn -0.730087 0.545914 0.411036
vn -0.336653 0.831813 0.441306
vn -0.515520 0.813053 0.270526
vn -0.550877 0.279010 0.786568
vn 0.095968 0.991603 0.086682
vn -0.908927 0.379478 0.172763
vn -0.771836 0.406154 0.489192
vn -0.393828 0.300931 0.868528
vn -0.540788 0.791765 -0.284000
vn -0.542761 0.736031 0.404559
vn -0.267102 0.802093 -0.534137
vn 0.036878 0.967695 0.249413
vn -0.969017 0.142020 -0.202080
vn -0.467731 0.537632 0.701555
vn -0.866837 0.497513 0.032778
vn -0.526377 0.056229 0.848390
vn 0.701345 -0.708267 -0.080461
vn 0.591077 -0.507678 0.626810
vn -0.701446 0.708079 0.081223
vn -0.405418 0.501275 0.764434
vn 0.990170 -0.019276 -0.138534
vn 0.889913 0.003509 0.456116
vn 0.000793 0.999664 -0.025921
vn 0.081807 0.818336 0.568888
vn 0.185119 0.158484 0.969852
vn 0.185164 0.158523 0.969838
vn 0.185209 0.158562 0.969823
vn 0.185164 0.158522 0.969838
vn 0.170664 -0.011926 0.985257
vn 0.169961 -0.012564 0.985371
vn 0.169264 -0.013196 0.985482
vn 0.169966 -0.012560 0.985370
vn -0.537297 0.841535 0.055960
vn -0.473164 0.358101 0.804910
vn -0.117713 -0.156320 0.980667
vn -0.463540 0.307590 0.830975
vn -0.934202 0.242276 0.261857
vn -0.726216 0.186991 0.661547
vn 0.073396 0.280715 0.956981
vn 0.320029 0.229406 0.919214
vn 0.319787 0.228948 0.919412
vn -0.121443 -0.027439 0.992219
vn -0.033380 -0.026233 0.999098
vn 0.159200 -0.000051 0.987246
vn 0.242516 0.161409 0.956626
vn 0.206190 0.161188 0.965145
vn -0.238883 0.703048 0.669820
vn -0.572634 0.819811 0.001087
vn 0.319038 0.224122 0.920861
vn 0.196964 0.075121 0.977528
vn 0.066950 -0.076909 0.994788
vn 0.072935 -0.049875 0.996089
vn 0.136616 0.000146 0.990624
vn 0.463801 0.302962 0.832528
vn 0.469891 0.318525 0.823252
vn 0.707128 0.471500 0.526932
vn 0.833107 0.525495 -0.172588
g fff0af14_00443_00f1b725_e9
f 73/114/73 12/7/12 7/2/7
f 14/17/14 5/1/5 13/8/13
f 81/124/81 14/17/14 13/8/13
f 73/114/73 72/113/72 82/126/82
f 82/126/82 81/124/81 13/8/13
f 72/113/72 73/114/73 7/2/7
f 82/126/82 72/113/72 81/124/81
f 66/105/66 29/37/29 31/48/31
f 65/104/65 66/105/66 31/48/31
f 65/103/65 36/55/36 27/38/27
f 36/55/36 32/50/32 27/38/27
f 27/38/27 66/105/66 65/104/65
f 31/49/31 64/102/64 65/103/65
f 25/35/25 44/60/44 31/49/31
f 64/102/64 36/55/36 65/103/65
g fff0af14_00443_00f1b725_e10
f 8/5/8 14/18/14 80/123/80
f 10/6/10 70/110/70 71/111/71
f 72/112/72 7/4/7 10/6/10
f 36/55/36 42/59/42 32/50/32
f 62/99/62 35/53/35 63/100/63
f 42/58/42 40/57/40 32/50/32
f 31/49/31 63/101/63 64/102/64
f 40/57/40 38/56/38 32/50/32
f 38/56/38 23/36/23 32/50/32
f 36/55/36 35/54/35 42/59/42
f 44/60/44 62/99/62 63/100/63
f 44/60/44 63/100/63 31/49/31
f 63/101/63 35/54/35 64/102/64
f 64/102/64 35/54/35 36/55/36
f 70/110/70 8/5/8 71/111/71
f 14/18/14 8/5/8 5/3/5
f 80/123/80 14/18/14 81/125/81
f 71/111/71 72/112/72 10/6/10
f 8/5/8 80/123/80 71/111/71
f 71/111/71 80/123/80 72/112/72
f 80/123/80 81/125/81 72/112/72
g fff0af14_00443_00f1b725_e2
f 84/129/84 85/131/85 4/15/4
f 84/129/84 2/16/2 1/13/1
f 74/116/74 12/11/12 73/115/73
f 74/116/74 75/117/75 12/11/12
f 85/131/85 3/14/3 4/15/4
f 84/130/84 4/10/4 83/128/83
f 85/131/85 84/129/84 1/13/1
f 2/9/2 84/130/84 83/128/83
f 74/116/74 82/127/82 83/128/83
f 74/116/74 73/115/73 82/127/82
f 74/116/74 4/10/4 75/117/75
f 83/128/83 4/10/4 74/116/74
f 2/9/2 83/128/83 13/12/13
f 83/128/83 82/127/82 13/12/13
f 58/93/58 59/96/59 60/94/60
f 58/93/58 60/94/60 57/95/57
f 54/89/54 55/92/55 56/90/56
f 54/89/54 56/90/56 53/91/53
f 50/75/50 52/76/52 48/15/48
f 48/15/48 46/16/46 50/75/50
f 49/83/49 50/84/50 46/81/46
f 49/85/49 51/86/51 52/87/52
f 52/87/52 50/88/50 49/85/49
f 52/77/52 51/78/51 47/79/47
f 47/79/47 48/80/48 52/77/52
f 46/81/46 45/82/45 49/83/49
g fff0af14_00443_00f1b725_e16
f 4/19/4 11/20/11 75/118/75
f 4/19/4 3/22/3 11/20/11
f 6/23/6 7/24/7 12/21/12
f 7/24/7 6/23/6 9/25/9
f 9/25/9 10/26/10 7/24/7
f 12/21/12 76/119/76 6/23/6
f 12/21/12 75/118/75 76/119/76
f 75/118/75 11/20/11 76/119/76
f 41/71/41 39/73/39 40/74/40
f 35/69/35 41/71/41 42/72/42
f 42/72/42 41/71/41 40/74/40
f 35/69/35 34/70/34 41/71/41
f 38/68/38 37/64/37 23/66/23
f 43/63/43 25/62/25 26/67/26
f 37/64/37 24/65/24 23/66/23
f 44/61/44 25/62/25 43/63/43
g fff0af14_00443_00f1b725_e17
f 17/27/17 77/120/77 78/121/78
f 78/121/78 79/122/79 17/27/17
f 19/31/19 68/108/68 22/33/22
f 69/109/69 20/34/20 21/32/21
f 15/29/15 18/30/18 79/122/79
f 15/29/15 79/122/79 78/121/78
f 19/31/19 69/109/69 68/108/68
f 68/108/68 69/109/69 21/32/21
f 77/120/77 16/28/16 78/121/78
f 78/121/78 16/28/16 15/29/15
g fff0af14_00443_00f1b725_e18
f 61/97/61 62/98/62 43/63/43
f 62/98/62 61/97/61 35/69/35
f 40/74/40 39/73/39 37/64/37
f 62/98/62 44/61/44 43/63/43
f 40/74/40 37/64/37 38/68/38
f 61/97/61 34/70/34 35/69/35
g fff0af14_00443_00f1b725_e15
f 30/46/30 29/45/29 66/106/66
f 29/42/29 30/41/30 31/51/31
f 31/51/31 30/41/30 33/52/33
f 26/39/26 25/40/25 31/47/31
f 31/51/31 33/52/33 26/39/26
f 27/43/27 28/44/28 67/107/67
f 30/46/30 66/106/66 67/107/67
f 27/43/27 67/107/67 66/106/66
