# fff0af20_00032_0010d860
o fff0af20_00032_0010d860
v -65.630478 127.109299 0.412737
v -5.269424 127.109283 0.412737
v -65.630478 188.428787 0.412737
v -5.269432 188.428787 0.412737
v -65.630424 303.467468 0.412737
v -5.269377 303.467468 0.412737
vt -1.245426 6.063067
vt 0.359861 6.063067
vt -1.245426 8.753579
vt 0.359861 8.753580
vt -1.245425 13.801018
vt 0.359862 13.801021
vn 0.000000 0.000000 1.000000
vn 0.000000 0.000000 1.000000
vn 0.000000 0.000000 1.000000
vn 0.000000 0.000000 1.000000
vn 0.000000 0.000000 1.000000
vn 0.000000 0.000000 1.000000
g fff0af20_00032_0010d860_e0
f 3/3/3 6/6/6 5/5/5
f 6/6/6 3/3/3 4/4/4
f 1/1/1 2/2/2 3/3/3
f 2/2/2 4/4/4 3/3/3
