# fff08519_00177_0033f02e
o fff08519_00177_0033f02e
v 1.351587 -3.097255 -5.256714
v 1.395753 -2.748573 -3.085880
v 1.568274 0.232085 -5.256714
v 1.132079 1.587438 -3.557442
v 0.739719 1.584525 -3.373539
v 0.937585 -0.643160 -2.900425
v 1.868111 0.746304 -5.256714
v 1.349051 0.928157 -3.830341
v 1.072993 0.570904 -3.615841
v 0.772061 -4.571953 -1.887245
v 1.793735 1.854304 -5.256714
v 2.055367 1.141756 -5.256714
v 1.294942 -0.832841 -5.256714
v 0.874098 -0.911403 -5.256714
v 0.380211 -0.650100 -2.746960
v 0.820810 0.417955 -2.816059
v 0.968650 -4.644507 -3.128700
v 0.502211 -4.637307 -1.767864
v 1.255500 -4.741797 -5.256714
v 1.055148 -4.888812 -5.256714
v 0.670544 -4.747160 -3.563690
v 0.493059 -5.560755 -2.156410
v 0.652118 -5.813236 -3.413479
v 1.085341 -6.178225 -5.256714
v 0.300168 -4.749164 -2.060421
v 0.004262 -4.790772 -1.806927
v 0.608892 -4.781453 -2.838737
v 0.363631 -6.400592 -5.256714
v 1.236551 -2.636476 -2.045193
v 1.364871 -12.893317 -1.142284
v 1.168326 -10.335646 -0.852974
v 1.789837 -9.143817 -2.210788
v 2.185356 -12.250415 -2.202592
v 1.423443 -9.913774 -2.073773
v 1.740507 -12.960748 -2.168481
v 1.665408 -13.344488 -4.889175
v 2.230552 -12.349261 -4.342922
v 2.302981 -12.390023 -4.797401
v 1.604461 -8.251986 -5.256714
v 0.950682 -2.354441 2.393394
v 1.164994 -4.461888 2.619446
v 1.645074 -2.526301 2.742985
v 1.393897 -3.833128 2.738384
v 2.262132 -1.704161 5.390141
v 1.463225 -3.955637 3.875500
v 0.005782 0.947575 2.648220
v 1.408078 0.964457 3.520336
v 1.690954 1.340315 5.390133
v 0.681664 -1.724090 2.412971
v 2.087508 -2.025606 3.019043
v 1.637393 -2.169087 4.083088
v 1.824931 -2.103703 5.484238
v 2.139432 -1.726135 4.332649
v 0.307484 -0.245007 2.493584
v 1.722298 -0.050876 3.041077
v -0.342611 2.387474 2.981880
v 0.868179 2.404342 3.639244
v 0.644120 2.622718 5.464575
v 0.333974 2.905232 5.506744
v 0.205596 -10.141059 -1.689685
v 1.499006 -9.975330 0.984821
v 1.761619 -5.529400 5.313522
v 1.166301 -5.887176 3.421654
v 1.542337 -7.204626 4.512783
v 1.423666 -5.823352 0.148834
v 2.233270 -5.160915 0.168449
v 1.978828 -4.850024 -0.074909
v 2.290795 -2.955326 0.079857
v 1.231914 -5.634402 -0.089394
v 0.867654 -7.430473 0.171638
v 0.828139 -6.394964 0.069687
v 0.967656 -6.401542 0.252300
v 1.632487 -12.803962 -1.310020
v 1.469689 -10.152390 -1.193295
v 0.221691 -9.430964 -1.803767
v 0.149738 -8.348439 -5.256714
v -0.021155 -5.594591 -1.997204
v 1.660324 -12.240218 1.048874
v 1.571449 -12.107366 0.838806
v 1.616470 -10.673101 1.001995
v 1.853776 -12.482301 2.583611
v 1.426293 -2.583014 -0.887466
v -0.382736 4.851427 2.490345
v 2.821771 5.232690 5.213646
v -1.184308 5.450300 0.691639
v 2.182043 8.332281 3.131207
v 4.463555 8.429798 5.000128
v 1.371150 8.523022 1.858609
v 1.417240 11.368028 3.150677
v 3.614802 11.281783 4.723831
v 0.636421 11.263926 1.990909
v 1.743070 8.584183 2.774174
v 1.042209 11.006317 2.817352
v 1.179040 6.671441 2.604473
v 1.416981 8.264074 2.774078
v 1.288210 8.472160 2.517456
v 4.255679 8.256823 5.078788
v 4.135023 6.941148 5.146724
v 0.756661 7.143609 2.233631
v 0.158740 7.039136 2.245171
v 0.145674 7.224703 1.704915
v -0.412727 7.030707 1.656964
v -0.142571 7.479592 1.410809
v -0.389867 7.314274 1.343930
v 0.212301 7.929621 -5.031673
v 2.234526 -2.896231 -0.116005
v 1.962812 -1.462097 0.077965
v 1.697899 -4.903709 -0.519871
v 1.295071 -5.579220 -0.493481
v 0.190514 -7.127855 -0.561844
v -0.112655 -7.289185 -0.790417
v 0.897354 -4.534567 -0.895912
v -0.044106 -4.695026 -0.890583
v 0.619778 -8.867063 0.047493
v -0.137722 -8.389100 -0.729656
v 0.343927 -10.098645 -0.697140
v 1.825291 -2.601802 -0.533695
v 1.655289 -0.904637 -0.679413
v 0.891722 -0.658949 -1.129684
v 1.357841 1.307926 -0.851711
v 1.045645 1.234827 -1.344559
v -0.701858 3.776607 -0.813194
v -0.782261 7.838654 -1.956272
v -0.609107 11.028126 1.689843
v 1.711467 8.569949 2.355969
v 3.955546 10.091027 4.960503
v 0.255710 13.358137 3.281654
v 1.798952 13.600824 4.487639
v -1.585200 14.656694 1.702087
v 0.688241 11.620873 3.129478
v 2.480424 11.745307 3.482376
v -0.253864 4.740068 2.602375
v -0.645944 3.923366 2.395580
v -0.782263 7.838654 -4.940487
v -1.694907 14.739050 -4.840839
v 1.467671 8.553826 1.858609
v -0.042848 8.508861 -2.929394
v 0.182568 9.392372 -2.867874
v 0.216380 10.000760 -2.813084
v 1.184615 10.592653 -4.940159
v -2.366926 14.884849 1.382237
v -0.841041 14.564125 4.343437
v 0.261170 11.257208 1.990909
v 0.684271 11.335149 2.554684
v -2.202149 14.451143 4.343445
v -1.195532 14.862688 2.813564
v -1.335603 14.763936 2.446777
v -2.302124 14.950450 2.559158
v -3.659789 17.031540 4.041054
v -4.080101 16.967583 -0.782818
v -3.565026 17.089741 2.512199
v -3.117523 15.308828 4.213783
v -2.904187 15.392471 4.234619
v -3.043329 15.500286 1.927639
v -2.807121 15.468406 2.901943
v -3.321650 17.052189 -0.169632
v -2.986440 17.250296 4.041054
v -3.289442 17.135387 1.763618
v -3.363801 19.184721 0.001442
v -2.751123 19.182629 3.392258
v -2.851068 19.183449 2.295780
v -2.251957 18.986979 -0.070911
v -1.639277 18.984884 3.392254
v -1.739221 18.985704 2.330627
v -2.251957 18.986979 -1.769707
v -3.960145 19.192331 -0.364956
v -2.965391 16.105906 -4.625713
v -2.574848 19.144501 -3.121677
v -2.855346 18.048973 -2.249805
v -2.659065 17.721022 -3.159264
v -3.065015 19.121042 -2.161411
v -3.889393 19.080362 -1.545021
v -2.658347 19.095284 -2.596558
v -4.007181 17.587284 -3.159641
v -3.549796 16.635099 -3.435215
v -4.210513 18.177219 -1.792782
v -2.066540 21.541864 -0.070904
v -1.553804 21.540592 2.834427
v -1.677213 21.505053 1.262108
v -2.066540 21.541864 -0.835575
v -1.243377 19.758797 3.225544
v -1.932470 21.628744 1.111023
v -1.930203 19.880510 1.542866
v -2.150023 19.122005 -3.121677
v -1.493396 21.304316 -0.952286
v -2.128685 21.134811 -1.922569
v -1.396060 20.881479 -1.922569
v -2.063831 20.235992 -2.443630
v -1.111976 19.703638 -2.443634
v -1.883523 19.908939 -3.090824
v -0.825621 19.322592 -3.235088
v -0.841050 22.062859 -1.733765
v -0.384870 21.515469 -3.057472
v 1.950649 -12.271319 3.605808
v 1.395429 -5.718636 4.049290
v 1.510957 -3.806197 3.888638
v 1.624700 1.121472 4.355457
v 0.784951 2.495351 4.422817
v 0.028485 2.671456 4.366730
v 2.361003 5.135276 4.270077
v 3.115018 6.823697 4.116711
v 3.453029 8.259971 4.103790
v 4.063785 8.385653 4.147301
v 2.855110 11.325078 3.630989
v 3.529333 9.874863 3.989132
v -1.114271 14.377570 3.116680
v -2.271351 14.950197 2.977917
v -3.072891 15.423999 2.838543
v -3.164098 17.182922 2.556229
v -1.635963 21.516935 1.787666
v -0.639089 21.836657 -2.508549
v -1.058475 19.593588 -2.764046
v -2.191485 19.067085 -2.571758
v -2.788667 17.937565 -2.558762
v 1.655965 -3.772837 5.313522
v 1.622261 -7.247177 5.010693
v 1.937897 -12.354293 4.493721
v -3.999295 9.841603 0.429742
v -2.263901 8.404421 0.265987
v -1.955917 3.476764 0.233269
v -1.955917 3.476764 1.557877
v -1.159736 2.200212 0.688198
v -1.159736 2.200212 1.409439
v -0.499517 1.843997 0.812153
v -2.642986 -6.820868 1.500122
v -2.074940 -10.618833 1.569408
v -2.235848 -9.433195 3.607866
v -2.478106 -7.635378 3.739014
v -4.463556 12.228388 0.504949
v -2.074938 -10.176871 2.654167
v -1.146169 9.199095 1.291276
v -2.175569 13.047349 1.174741
v -0.616303 13.295425 -2.364601
v -2.670354 14.897016 -1.916000
v -0.012048 11.036457 -2.361973
v -3.668347 9.255601 -1.787754
v -4.463556 12.228388 -1.787754
v -1.130014 7.168154 1.119817
v -0.701856 3.776607 0.233269
v -0.750334 3.524742 1.676122
v 0.463740 1.025127 0.901550
v 1.164995 -4.461888 1.277081
v 1.002606 -6.203727 1.462679
v 1.979457 -11.975047 1.651585
v -2.263901 8.404421 -1.787754
v 1.932634 1.451423 0.400158
v 2.282366 -5.028295 0.760689
v -0.499519 1.944905 1.717899
v -2.643039 -6.820579 3.270648
v -0.284269 2.766344 0.289440
v -2.670353 14.897016 -0.817902
v 1.979454 -11.915911 2.849941
v 1.014226 -2.780288 1.161991
v 0.663468 -1.476812 1.110522
v 0.523960 -0.240450 1.068358
v 1.927251 1.452149 0.077965
v -0.172507 2.845402 0.024597
v -0.205362 2.786829 -0.732780
v 2.313630 -2.980205 0.646732
v 2.087072 -1.409969 0.559364
v 0.342324 0.983928 1.829407
v -0.364117 2.739978 -1.066742
v 0.527570 1.871981 -5.256714
v -0.012049 11.036458 -4.940487
v -0.616305 13.295426 -4.940487
v -0.379704 9.510009 -2.749214
v -0.222687 10.161920 -2.714909
v -0.611374 8.548148 -2.940350
v -0.636524 3.780146 -0.047340
v -0.661338 7.838650 -2.325329
v 0.953510 -6.336347 0.907883
v 1.930378 -11.906054 1.059345
v -1.698566 13.214340 1.569371
v -1.037861 13.421088 1.871807
v -0.393167 9.385658 1.563790
v 1.094097 9.771776 1.990909
v -1.614534 10.950010 1.327868
v -1.198541 8.362835 1.128695
v 1.244323 -7.177795 3.873231
v 1.750679 -12.321578 1.602219
v 1.626568 -5.869202 0.564636
v 1.313273 -7.479163 0.932045
v 1.407671 -7.483531 1.495939
v 1.502933 -8.759128 1.136894
v 1.573975 -8.789894 1.530225
v 1.716891 -9.912532 1.538512
v 1.994648 -11.782407 3.418200
v 1.978567 -12.002210 2.047203
v 2.193402 -11.051309 4.613739
v 2.273327 -11.093860 5.111645
v 1.982287 -11.171564 3.735574
v 2.093092 -10.028978 5.083698
v 2.021350 -10.034776 4.587059
v 1.650873 -10.033779 3.829372
v -1.290840 14.334178 -2.170834
v 0.942696 2.173248 0.343859
v 0.946688 2.247109 0.049552
v 0.785741 2.032302 -0.797737
v 0.536351 1.907401 -1.241522
v 1.166860 -6.497553 3.727338
v -2.500163 14.871148 0.708361
v 0.268407 1.304145 0.872808
v 0.083366 1.327091 1.787313
v 1.465763 3.825931 5.314145
v 1.079269 3.887976 4.315031
v 1.202965 11.656611 3.230832
v 0.930391 13.405983 3.412175
v 3.662216 6.067735 5.176738
v 2.957438 6.103498 4.172394
v 1.374379 -11.541417 -0.972092
v 1.667670 -11.504935 -1.245529
v 1.700040 -11.369373 -2.072244
v 2.173792 -11.176766 -2.215070
v 2.173328 -10.880695 -4.964934
v 1.717866 -13.076440 -3.479490
v 1.213181 -13.364098 -1.247044
v 1.417761 -13.274742 -1.310020
v 1.150139 -13.502604 -1.512639
v 1.256937 -13.413235 -1.575615
v 1.150129 -13.921988 -1.652158
v 1.276023 -13.373592 -2.181381
v 1.446359 -12.583285 -0.161180
v 1.292244 -13.400070 -0.129980
v 1.373813 -8.396838 3.693868
v 1.723467 -8.274796 4.540869
v 1.789543 -8.235525 5.036631
v 1.478546 -9.015626 3.737436
v 0.828035 -5.887197 3.294774
v 0.906058 -7.177816 3.746351
v 1.656384 -11.716722 3.382787
v 1.644022 -11.171585 3.608694
v 1.312608 -10.033800 3.702492
v 0.828595 -6.497574 3.600458
v 1.035547 -8.396859 3.566988
v 1.140280 -9.015647 3.610556
v -0.410103 -5.887248 3.294774
v -0.041123 -7.177869 3.746351
v 0.709190 -11.807370 3.382787
v 0.696841 -11.171638 3.608694
v 0.365427 -10.033853 3.518973
v -0.118585 -6.497626 3.600458
v 0.088367 -8.396912 3.566988
v 0.193100 -9.015699 3.456874
v -1.466906 -7.698062 3.636827
v -0.685539 -10.885826 3.608681
v -1.205306 -10.334522 3.638451
v -1.544369 -7.017819 3.490934
v -1.232715 -9.126675 3.576352
v 0.067660 -11.242270 2.757627
v 0.124001 -11.267257 2.110405
v -0.005019 -11.426360 1.611363
v -2.074939 -10.407670 2.087689
v 0.792822 -11.782260 2.792642
v 0.830442 -11.809257 2.086331
v 0.818827 -11.916189 1.628060
v -0.021142 -11.324816 3.501073
v -1.197855 -10.608264 2.711819
v -1.184265 -10.650091 2.098384
v -1.365866 -10.817519 1.588162
v -2.177466 -9.809064 3.261922
v -0.181125 -5.178658 2.721303
v -0.283755 -5.242341 1.356036
v -1.833568 -5.843133 3.191570
v -1.915761 -5.897329 1.437889
v -2.567159 -7.122288 3.535410
v -2.520577 -7.639297 1.515053
v -2.232618 -9.564591 1.550176
v -1.056631 -5.552526 1.394800
v -0.779129 -5.419125 2.763225
v -2.232617 -9.564592 1.550176
v -1.054240 -9.859836 1.577138
v -2.520578 -7.639297 1.515053
v -2.642985 -6.820868 1.500122
v -1.008513 -7.789553 1.541636
v 0.353334 -10.664993 1.618625
v 0.818846 -11.069621 1.628060
v -1.061016 -10.284425 1.596225
v 2.005872 -11.684234 1.651585
v 1.934768 -10.731007 1.618935
v -0.760846 -7.163808 1.488471
v -0.579836 -6.402350 1.436661
v 0.741077 -10.083034 1.598963
v 0.825813 -7.929603 1.535491
v 0.439257 -8.721016 1.614946
v 1.253275 -11.247563 1.628972
v 0.220709 -6.526613 1.501887
v 0.872652 -5.694943 1.410516
v 0.170998 -4.997362 1.331253
v 0.061075 -5.744458 1.406045
v 0.583230 -5.466132 1.435346
v -2.205889 -6.292714 3.227942
v -0.717136 -6.716006 3.554480
v -1.263802 -6.288600 3.376779
v 0.414718 -4.861388 2.676217
v 0.293742 -5.691566 3.034556
v 0.779646 -5.538951 3.081562
v -2.609656 -8.973377 2.220937
v -2.637790 -7.638055 2.215445
v -2.643006 -6.820761 2.160404
v -1.886562 -5.878076 2.060891
v -0.497895 -5.318761 1.964336
v 0.524951 -4.802692 1.963769
v 1.164995 -4.461888 2.015140
v -2.576786 -8.321124 2.960988
v 1.979166 -11.924723 2.589534
v 0.806185 -11.791850 2.541751
v 1.989677 -11.856498 3.294026
v 0.732933 -11.800241 3.215248
v 1.089175 -2.583630 1.730673
v 0.618899 -0.242592 1.738503
v -0.977323 4.531899 1.072431
v -2.002476 4.646729 0.731129
v -0.650423 5.143536 1.613000
v -0.639753 2.805317 1.694541
v -0.962325 2.838893 1.538032
v -1.548415 2.823397 0.466111
v -1.527569 2.789974 1.478017
v -1.400562 3.498865 1.551471
v -1.444894 4.584273 0.870846
v -0.138291 1.615991 0.840682
v -0.377086 1.774115 1.732479
v -0.911145 1.982159 1.525583
v -0.880197 1.965461 0.740681
v -0.592364 2.317666 1.795023
v 0.400120 1.003539 1.387734
v -0.499517 1.843997 1.286440
v 0.175142 1.371731 1.353195
v -0.207100 1.578294 1.306233
v -1.159731 2.099192 1.109620
v -0.895022 1.973460 1.116664
v -2.370345 8.404427 -1.328843
v -2.073770 4.071524 0.530965
v -1.823753 3.113846 0.951454
v -0.594389 6.248494 -1.099142
v -0.522155 6.113062 -1.682965
v -0.401005 6.101913 -5.032532
v -2.277770 6.749902 -0.902352
v -2.248449 6.916843 0.907613
v -1.510219 6.965127 1.005762
v -1.496388 6.517161 -1.059093
v -1.342135 8.069901 -1.887392
v -1.433395 3.601698 0.167873
v -1.538613 8.368025 0.785836
v -1.883382 8.377965 0.497071
v -1.803205 9.051903 0.907910
v -3.937253 12.162036 1.284086
v -2.538350 10.802818 1.018534
v -2.717853 8.946034 -1.787754
v -2.187675 7.854325 0.503253
v -2.202791 7.736357 -1.430248
v -2.682552 8.926218 0.320953
v -3.628577 9.294091 0.335265
v -4.248036 10.699717 0.557897
v 1.713464 -5.701863 1.135036
v -4.463556 12.228388 -1.130095
v -2.670353 14.897016 -1.307521
v -4.242377 10.678539 -1.787754
v -4.062822 9.796025 -1.787754
v -2.683291 14.300491 1.025772
v -3.057501 14.320866 -0.742822
v -3.088401 14.274881 -1.779142
v -2.834459 14.290392 0.647308
v -4.288140 12.178362 0.970029
v -2.379261 14.879628 1.115002
v -4.288141 12.178362 0.970029
v -4.072620 10.736681 0.923161
v -3.050198 12.228415 1.172761
v -2.113244 9.001097 0.617056
v -3.823878 9.878567 0.894822
v -3.364158 9.426015 0.800345
v -4.072619 10.736680 0.923161
v -2.732879 9.461044 0.919514
v -2.095312 9.747623 0.934113
v -3.527861 10.770454 1.143887
v -2.307373 10.252693 1.058415
v -3.092095 10.052708 1.063429
v -1.494043 9.121162 1.097583
v -2.064313 10.878346 1.239395
v -3.458606 12.978300 1.203503
v -3.722749 12.999810 0.863122
v -4.051537 13.054082 0.345088
v -4.022582 13.097173 -1.784287
v -2.115772 9.088112 -1.837198
v -3.167028 10.945180 -1.787754
v -3.149652 11.942156 -1.887257
v -3.200291 10.010340 -1.787754
v -2.960851 9.722439 -1.787754
v -0.915035 9.563597 -2.078198
v -0.398064 9.433779 -2.158643
v -0.740950 11.081251 -2.191526
v -1.071882 13.199600 -2.194304
v -2.358542 9.258766 -1.831349
v -1.755171 8.896649 -1.878870
v -1.870262 8.261565 -1.830304
v -2.613032 13.891744 -1.884673
v -2.995830 12.631495 -1.781867
v -1.564920 13.994513 -2.112871
v -2.320640 14.217508 -1.963381
v -0.376523 4.998826 -0.425542
v -0.347178 4.849031 -1.212418
v -2.190940 5.609888 0.527094
v 0.153265 4.502250 -5.117313
v 1.764140 -11.759356 1.644880
v 1.849005 -11.593217 1.646871
v 1.738868 -11.914441 1.646708
v 0.415531 -5.913257 1.436522
v -1.290840 14.334178 -2.170834
v -2.376403 -8.390127 3.683956
v 0.950682 -2.354441 2.393394
v 1.164994 -4.461888 2.619446
v 0.005782 0.947575 2.648220
v 0.681664 -1.724090 2.412971
v 0.307484 -0.245007 2.493584
v -0.342611 2.387474 2.981880
v -1.184308 5.450300 0.691639
v -2.366926 14.884849 1.382237
v -1.955917 3.476764 0.233269
v -1.159736 2.200212 0.688198
v -0.499517 1.843997 0.812153
v -2.642986 -6.820868 1.500122
v -2.074940 -10.618833 1.569408
v -2.235848 -9.433195 3.607866
v -2.478106 -7.635378 3.739014
v -2.670354 14.897016 -1.916000
v -3.668347 9.255601 -1.787754
v -4.463556 12.228388 -1.787754
v -0.750334 3.524742 1.676122
v 0.463740 1.025127 0.901550
v 1.164995 -4.461888 1.277081
v 1.979457 -11.975047 1.651585
v -2.263901 8.404421 -1.787754
v -2.670353 14.897016 -0.817902
v 1.979454 -11.915911 2.849941
v 1.014226 -2.780288 1.161991
v 0.663468 -1.476812 1.110522
v 0.523960 -0.240450 1.068358
v 1.994648 -11.782407 3.418200
v 1.978567 -12.002210 2.047203
v -2.500163 14.871148 0.708361
v 0.268407 1.304145 0.872808
v 1.656384 -11.716722 3.382787
v -0.410103 -5.887248 3.294774
v 0.709190 -11.807370 3.382787
v -0.685539 -10.885826 3.608681
v -1.205306 -10.334522 3.638451
v -0.005019 -11.426360 1.611363
v 0.818827 -11.916189 1.628060
v -0.021142 -11.324816 3.501073
v -1.365866 -10.817519 1.588162
v -0.283755 -5.242341 1.356036
v -1.915761 -5.897329 1.437889
v -2.567159 -7.122288 3.535410
v -1.056631 -5.552526 1.394800
v 0.170998 -4.997362 1.331253
v -1.263802 -6.288600 3.376779
v 0.779646 -5.538951 3.081562
v 1.979166 -11.924723 2.589534
v 1.989677 -11.856498 3.294026
v -0.977323 4.531899 1.072431
v -0.639753 2.805317 1.694541
v -1.548415 2.823397 0.466111
v -0.138291 1.615991 0.840682
v -0.880197 1.965461 0.740681
v -0.592364 2.317666 1.795023
v -2.277770 6.749902 -0.902352
v -1.510219 6.965127 1.005762
v -1.538613 8.368025 0.785836
v -1.803205 9.051903 0.907910
v -2.717853 8.946034 -1.787754
v -2.202791 7.736357 -1.430248
v -2.670353 14.897016 -1.307521
v -4.242377 10.678539 -1.787754
v -4.062822 9.796025 -1.787754
v -2.683291 14.300491 1.025772
v -3.088401 14.274881 -1.779142
v -4.288140 12.178362 0.970029
v -2.379261 14.879628 1.115002
v -3.823878 9.878567 0.894822
v -4.072619 10.736680 0.923161
v -2.732879 9.461044 0.919514
v -3.722749 12.999810 0.863122
v -4.022582 13.097173 -1.784287
v -2.190940 5.609888 0.527094
v 1.738868 -11.914441 1.646708
v -2.376403 -8.390127 3.683956
v 0.863900 -1.462211 1.734424
v 2.262326 -5.082428 0.518948
v 2.301515 -2.967005 0.345970
v 2.009548 -1.442491 0.259025
v 1.929311 1.451871 0.201269
v 2.100560 -4.936135 0.844710
v 2.085996 -2.945182 0.736997
v 1.955537 -1.577976 0.633249
v 1.879765 -1.098995 0.603063
v 1.711097 1.387130 0.475778
v -2.703181 8.937799 -1.365739
v -3.668347 9.255600 -1.241133
v -4.035890 9.815355 -1.195179
v -4.245064 10.688602 -1.123950
v -4.035256 13.078310 -1.210536
v -3.077252 14.291473 -1.405216
v -2.194529 7.800840 -0.821245
v -2.265610 6.819138 0.327850
v -2.670354 14.897016 -1.916000
vt 1.481753 1.547955
vt 2.167475 1.920795
vt 1.042816 1.136270
vt 1.066456 1.148111
vt 1.070679 1.172423
vt 0.953857 1.033765
vt 0.981319 1.066090
vt 0.996767 1.156356
vt 1.055639 1.201741
vt 0.997786 1.165583
vt 1.402112 1.338401
vt 1.400347 1.326246
vt 1.433642 1.371706
vt 1.238928 1.296415
vt 1.237903 1.289582
vt 1.302780 1.325311
vt 1.764301 1.638687
vt 1.727145 1.603921
vt 1.732753 1.608108
vt 1.794046 1.677559
vt 1.792602 1.671469
vt 2.170519 1.968418
vt 2.058434 1.806459
vt 2.068662 1.835237
vt 2.029173 1.804243
vt 2.081615 1.875178
vt 1.200400 1.251345
vt 1.235223 1.292403
vt 1.204311 1.262285
vt 1.765406 1.633191
vt 2.157702 1.953577
vt 1.056540 1.219483
vt 1.230950 1.276718
vt 1.428793 1.359012
vt 2.047630 1.840392
vt 1.048199 1.163050
vt 1.946350 1.895610
vt 1.944907 1.886696
vt 1.972458 1.998161
vt 1.985228 2.013077
vt 1.981543 2.022334
vt 1.992286 2.038563
vt 2.067076 1.852955
vt 2.055764 1.805521
vt 2.050716 1.775159
vt 2.048007 1.772998
vt 2.106112 1.950209
vt 2.096313 1.956849
vt 2.027103 2.055607
vt 2.028518 2.059484
vt 2.013926 2.001547
vt 1.269524 1.380357
vt 1.274274 1.381949
vt 1.292274 1.443398
vt 1.294148 1.445178
vt 2.022655 1.873697
vt 2.068676 2.030257
vt 2.081236 2.076048
vt 0.954309 0.976607
vt 0.911765 0.921474
vt 0.943398 0.946685
vt 1.043252 1.309414
vt 2.125962 1.884087
vt 2.138041 1.892771
vt 2.075036 1.823900
vt 2.097746 1.839880
vt 2.065479 1.801554
vt 2.046957 1.765583
vt 2.074496 1.792044
vt 2.019706 1.782516
vt 2.002814 1.742377
vt 2.001305 1.740285
vt 1.715741 1.814443
vt 1.694265 1.715891
vt 1.687740 1.705720
vt 1.830291 1.816102
vt 1.831766 1.817396
vt 1.863956 1.929234
vt 1.723881 1.820953
vt 1.737570 1.919904
vt 1.703900 1.824578
vt 1.734482 1.919988
vt 2.083388 2.079346
vt 1.709311 1.824256
vt 1.732316 1.749915
vt 1.753604 1.825077
vt 1.761721 1.858453
vt 1.732941 1.750255
vt 1.763388 1.889304
vt 1.780585 1.949623
vt 1.758367 1.868841
vt 1.767938 1.874986
vt 1.782847 1.952789
vt 1.566965 1.785810
vt 1.599002 1.842347
vt 1.582793 1.834908
vt 2.032679 1.910225
vt 1.071692 1.400104
vt 1.088375 1.461932
vt 1.052604 1.348085
vt 1.041876 1.318847
vt 1.567052 1.752522
vt 1.340190 1.587151
vt 1.355215 1.653595
vt 1.334017 1.583840
vt 1.069517 1.236285
vt 1.131478 1.449140
vt 1.056522 1.053744
vt 1.055835 1.058302
vt 1.139029 1.102028
vt 1.169325 1.168015
vt 1.136468 1.106192
vt 1.183684 1.131946
vt 1.189961 1.142076
vt 1.203464 1.183397
vt 1.215037 1.227179
vt 1.213138 1.211221
vt 1.318678 1.213364
vt 1.363971 1.348390
vt 1.368908 1.359767
vt 1.388000 1.428016
vt 1.317891 1.207922
vt 1.368408 1.237242
vt 1.353539 1.231918
vt 1.381088 1.245224
vt 1.413248 1.267177
vt 1.408698 1.268160
vt 0.121920 1.001047
vt 1.987005 2.040997
vt 2.109442 1.970138
vt 2.135267 2.101713
vt 2.146552 2.108446
vt 1.855495 1.936315
vt 1.258188 1.352716
vt 1.254518 1.350843
vt 1.390190 1.620965
vt 1.415039 1.647814
vt 1.425621 1.711209
vt 1.445610 1.733414
vt 1.360383 1.657669
vt -5.581573 3.881965
vt 0.579028 3.847490
vt -5.581573 3.881965
vt -5.694051 3.842156
vt 2.123720 1.825426
vt 1.667361 1.421199
vt 1.767663 1.493187
vt 2.183679 2.015183
vt 2.206410 2.088958
vt 1.081969 1.344133
vt 1.113581 1.271210
vt 1.202449 1.343242
vt 1.227212 1.412847
vt 1.261007 1.430375
vt 1.125088 1.257601
vt 1.190465 1.312993
vt 1.326191 1.398744
vt 1.280275 1.258460
vt 1.235324 1.170605
vt 1.402590 1.378525
vt 1.451701 1.460355
vt 1.390710 1.517485
vt 1.329680 1.418289
vt 1.385779 1.448612
vt 1.335033 1.470079
vt 1.575683 1.570434
vt 1.665288 1.558317
vt 1.671545 1.581138
vt 1.429166 1.368772
vt 1.516524 1.517909
vt 1.351917 1.517970
vt 1.388548 1.540347
vt 1.387322 1.601940
vt 1.403917 1.594833
vt 1.396479 1.544411
vt 1.458073 1.635394
vt 1.296753 1.489003
vt 1.319083 1.569391
vt 1.404625 1.269039
vt 1.620951 1.396600
vt 1.694786 1.902119
vt 1.475521 1.703216
vt 1.612333 1.754154
vt 1.517897 1.760688
vt 1.536811 1.803783
vt 1.273925 1.552222
vt 1.643631 1.785287
vt 1.297644 1.623739
vt 1.633313 1.672640
vt 1.646134 1.781507
vt 1.951218 2.024614
vt 1.861266 1.562506
vt 1.921698 1.614454
vt 1.925310 1.748293
vt 1.963115 1.701750
vt 1.943668 1.819839
vt 1.912385 1.872425
vt 1.924957 1.748102
vt 1.776691 1.779847
vt 1.860913 1.562316
vt 0.121920 1.001047
vt 1.872015 1.963612
vt 1.833090 1.978850
vt 1.878504 1.991745
vt 1.883695 1.970975
vt 1.892160 1.993816
vt 2.153472 2.074954
vt 2.212846 2.126611
vt 2.203578 2.094353
vt 1.396032 1.542919
vt 1.428248 1.590928
vt 1.394423 1.540510
vt 1.458098 1.635420
vt 1.386444 1.449112
vt 1.391375 1.517985
vt 1.386410 1.448635
vt 1.391341 1.517509
vt 1.391502 1.519755
vt 1.390836 1.519255
vt 1.390895 1.518113
vt 1.336107 1.480474
vt 1.336293 1.481102
vt 0.485455 3.814373
vt 0.121920 1.001047
vt 1.655051 1.520419
vt 1.660595 1.539881
vt 1.663065 1.548379
vt 1.672402 1.581743
vt 1.621814 1.397210
vt 1.621808 1.397205
vt 1.672408 1.581748
vt 0.121920 1.001047
vt 1.660104 1.690732
vt 1.639124 1.772247
vt 1.524268 1.535050
vt 1.524022 1.534553
vt 1.575929 1.570931
vt 0.121920 1.001047
vt 0.121920 1.001047
vt 0.121920 1.001047
vt 2.961020 0.134027
vt 2.961066 0.147033
vt 2.703015 0.603148
vt 2.702970 0.794968
vt 1.058847 1.365099
vt 1.052545 1.347926
vt 1.071783 1.400443
vt 1.088466 1.462271
vt 0.121920 1.001047
vt 0.121920 1.001047
vt 0.121920 1.001047
vt 0.121920 1.001047
vt 0.121920 1.001047
vt 0.121920 1.001047
vt 0.121920 1.001047
vt 1.071633 1.399944
vt 1.052288 1.347223
vt 1.052347 1.347383
vt 2.701247 0.750406
vt 2.263540 0.608796
vt 2.105689 0.610825
vt 2.700619 0.802645
vt 1.088857 1.463718
vt 1.510011 1.697491
vt 1.054006 1.326497
vt 1.461287 1.490980
vt 1.286445 1.451894
vt 1.289695 1.453468
vt 1.263887 1.441360
vt 1.698564 1.703212
vt 1.694198 1.699740
vt 1.764409 1.756355
vt 1.824910 1.805140
vt 1.905324 1.859793
vt 1.905345 1.859700
vt 1.824932 1.805047
vt 1.764432 1.756279
vt 1.698234 1.701934
vt 1.698436 1.702024
vt 1.698604 1.702100
vt -0.219524 0.146915
vt 0.125443 0.146915
vt -0.216872 1.000793
vt -0.554245 0.142399
vt -0.546003 0.996531
vt 0.225851 0.142073
vt 2.086711 0.141150
vt 2.319032 1.002650
vt 2.101866 0.993279
vt 1.205318 1.000318
vt 1.219120 0.146186
vt 1.466753 0.140889
vt 1.462555 0.996542
vt 2.657904 0.148181
vt 2.657904 1.000311
vt 1.860250 0.135043
vt 1.864312 0.988174
vt 1.524558 0.998141
vt 1.524746 0.145781
vt 0.981654 0.998148
vt 1.206942 0.143413
vt 1.196385 0.997847
vt 2.996696 1.004248
vt 2.699520 1.000000
vt 3.210207 0.144952
vt 3.236824 1.002167
vt 3.232548 0.143463
vt 3.482470 0.144303
vt 4.018681 1.012700
vt 3.612170 0.997639
vt 3.563380 0.242643
vt 3.979741 0.259090
vt 4.203424 1.007413
vt 4.172933 0.204878
vt 3.488946 1.001962
vt -1.281283 0.150013
vt -1.200448 1.004145
vt -1.690346 0.150013
vt -1.677326 1.006642
vt -0.680408 0.146232
vt -0.675841 1.000364
vt -0.973189 0.145274
vt -1.027732 0.145598
vt -1.007891 0.999730
vt -0.948207 0.998299
vt 0.988345 0.146183
vt 0.598312 0.998930
vt 0.589454 0.149846
vt 0.825750 1.004658
vt 0.826919 0.148243
vt 0.824291 0.143914
vt 0.974279 0.143914
vt 3.233535 0.142088
vt 3.214513 0.142088
vt 3.495181 0.137629
vt 3.680250 -0.027652
vt -0.531649 0.998536
vt -0.660887 0.998536
vt -0.537517 0.144404
vt -0.665234 0.143485
vt 1.203022 0.140162
vt 1.211350 0.140162
vt 1.887936 0.996937
vt 1.884264 0.143832
vt 2.101087 0.143832
vt 2.117309 0.996218
vt 1.481270 0.143397
vt 1.532000 0.143397
vt 1.476334 0.997530
vt 1.530524 0.998583
vt 2.267585 1.000000
vt 2.102240 1.000000
vt 1.834612 1.003610
vt 2.105689 0.610825
vt 2.102240 1.000000
vt 1.834612 0.369540
vt -8.005413 -3.211257
vt -8.005413 -3.211257
vt -8.005413 -3.211257
vt -8.005413 -3.211257
vt -8.005413 -3.211257
vt -8.005413 -3.211257
vt -8.005413 -3.211257
vt -8.005413 -3.211257
vt -8.005413 -3.211257
vt -8.005413 -3.211257
vt -8.005413 -3.211257
vt -5.581573 3.881965
vt -5.581573 3.881965
vt -5.581573 3.881965
vt -5.581573 3.881965
vt -5.581573 3.881965
vt -3.774253 4.833811
vt -8.005413 -3.211257
vt -8.005413 -3.211257
vt -2.244535 3.446268
vt -2.417763 3.463064
vt -2.339921 3.455516
vt -2.418304 3.463117
vt -2.253178 3.447106
vt -8.004049 -3.211257
vt -8.004049 -3.211257
vt -8.004049 -3.211257
vt -8.004049 -3.211257
vt 4.106234 0.143779
vt 4.313414 1.002850
vt 4.293765 0.144048
vt 1.925110 1.748185
vt 0.121920 1.001047
vt 1.391357 1.517731
vt 0.121920 1.001047
vt 1.386429 1.448896
vt 1.489758 1.510755
vt 1.480765 1.486160
vt 2.827356 0.476380
vt 1.944394 1.859008
vt 0.121920 1.001047
vt 0.121920 1.001047
vt 0.515089 3.824861
vt -1.434127 1.005369
vt 1.650236 1.874319
vt -1.471540 0.150013
vt 1.886126 1.977535
vt 0.591200 0.317250
vt -1.094253 1.001710
vt 1.722036 1.913447
vt -1.119791 0.147201
vt -0.005363 0.199985
vt 0.970962 0.138569
vt 0.970962 0.620957
vt -0.005363 1.369039
vt 0.970962 -0.490621
vt -0.005363 -0.316617
vt 1.032349 1.197290
vt 1.029294 1.181431
vt 1.000319 1.087302
vt 1.010743 1.094437
vt 0.984409 0.987397
vt 0.941167 0.999911
vt 0.970441 1.081143
vt 0.997287 1.165200
vt 0.996268 1.155973
vt 0.997251 1.164941
vt 0.996232 1.155714
vt 0.997273 1.165144
vt 2.145412 1.867403
vt 1.015721 1.222319
vt 0.997306 1.165271
vt 1.015241 1.222008
vt 2.702234 0.775947
vt 2.536835 0.605284
vt 2.546058 1.000000
vt 2.701861 0.766292
vt 2.960726 0.134628
vt 2.827061 0.476980
vt 2.702971 0.797719
vt 2.702235 0.778698
vt 1.088472 1.462290
vt 1.088862 1.463737
vt 2.703488 0.803356
vt 2.704116 0.751117
vt 2.703194 0.767733
vt 2.702971 0.797843
vt 2.960257 0.135821
vt 2.826593 0.478174
vt 2.702236 0.778822
vt 1.088472 1.462293
vt 1.088863 1.463741
vt 2.703603 0.803390
vt 2.704231 0.751151
vt 2.703309 0.767767
vt 2.702971 0.797845
vt 2.702236 0.778824
vt 2.826593 0.478175
vt 2.703605 0.803391
vt 2.704232 0.751151
vt 2.703310 0.767770
vt -2.249102 3.446711
vt -2.296169 3.451274
vt -2.338488 3.455378
vt -2.418028 3.463090
vt -8.005413 -3.211257
vt -2.335280 3.455066
vt -2.250648 3.446861
vt -2.312834 3.452890
vt -2.417918 3.463079
vt 2.145412 1.867403
vt -2.247080 3.446515
vt -2.336790 3.455213
vt -2.418181 3.463105
vt -8.005413 -3.211257
vt -8.005413 -3.211257
vt -8.005413 -3.211257
vt -8.005413 -3.211257
vt -8.005413 -3.211257
vt -8.005413 -3.211257
vt -8.005413 -3.211257
vt -8.005413 -3.211257
vt -8.005413 -3.211257
vt -8.005413 -3.211257
vt 0.121920 1.001047
vt 0.121920 1.001047
vt 1.481753 1.547955
vt 1.481753 1.547955
vt 1.481753 1.547955
vt 1.481753 1.547955
vt 1.481753 1.547955
vt 1.481753 1.547955
vt 1.481753 1.547955
vt -8.005413 -3.211257
vt 1.481753 1.547955
vt -8.005413 -3.211257
vt 2.826593 0.478175
vt 2.145412 1.867403
vt -8.005413 -3.211257
vt 2.145412 1.867403
vt 2.145412 1.867403
vt -8.005413 -3.211257
vt -8.005413 -3.211257
vt -8.005413 -3.211257
vt -8.005413 -3.211257
vt -8.005413 -3.211257
vt -8.005413 -3.211257
vt 1.309031 1.533202
vt -8.005413 -3.211257
vt -8.005413 -3.211257
vt 1.067485 1.388640
vt -2.281317 3.449834
vt -2.272737 3.449002
vt 2.145412 1.867403
vt 1.083013 1.442062
vt 2.145412 1.867403
vt 1.368268 1.556749
vt 1.425204 1.586401
vt 1.646091 1.681269
vt -5.581573 3.881965
vt -5.581573 3.881965
vt 1.639880 1.728405
vt 0.121920 1.001047
vt -5.631164 3.864413
vt -5.581573 3.881965
vt -5.581573 3.881965
vt -5.581573 3.881965
vt -5.581573 3.881965
vt -5.581573 3.881965
vt 0.121920 1.001047
vt 0.121920 1.001047
vt 0.553692 3.838523
vt -5.623924 3.866976
vt 0.635192 3.867368
vt 0.121920 1.001047
vt -5.652417 3.856891
vt 1.412147 1.566928
vt 0.121920 1.001047
vt 0.571136 3.844697
vt 0.576337 3.846538
vt 0.121920 1.001047
vt 0.572678 3.845243
vt 0.121920 1.001047
vt -5.581573 3.881965
vt 0.634660 3.867180
vt -8.005413 -3.211257
vt -4.871719 4.255818
vt -5.581573 3.881965
vt -5.581573 3.881965
vt 0.121920 1.001047
vt 1.627223 1.563464
vt 0.121920 1.001047
vt 1.557984 1.359471
vt -4.464377 4.470349
vt -5.581573 3.881965
vt -5.581573 3.881965
vt -5.627217 3.857926
vt -5.627218 3.857926
vt -5.606833 3.868661
vt 0.121920 1.001047
vt 1.764470 1.756308
vt 1.824970 1.805076
vt 1.905384 1.859725
vt -8.005413 -3.211257
vt -8.005413 -3.211257
vt -5.581573 3.881965
vt -4.052910 4.687053
vt -8.005413 -3.211257
vt -8.005413 -3.211257
vt -8.005413 -3.211257
vt -8.005413 -3.211257
vt -8.005413 -3.211257
vt 0.121920 1.001047
vt -8.005413 -3.211257
vt 1.935483 1.787938
vt -8.005413 -3.211257
vt -8.005413 -3.211257
vt -8.005413 -3.211257
vt -8.005413 -3.211257
vt -8.005413 -3.211257
vt 0.121920 1.001047
vt -8.005413 -3.211257
vt -8.005413 -3.211257
vt 2.145412 1.867403
vt 2.145412 1.867403
vt 2.145412 1.867403
vt 1.944712 1.876144
vt -8.005413 -3.211257
vt -8.005413 -3.211257
vt 1.905365 1.859712
vt 0.121920 1.001047
vt 2.145412 1.867403
vt -8.005413 -3.211257
vt -8.005413 -3.211257
vt -8.005413 -3.211257
vt -8.005413 -3.211257
vt -8.005413 -3.211257
vt -8.005413 -3.211257
vt 1.788509 1.775686
vt 2.145412 1.867403
vt 2.145412 1.867403
vt 1.805961 1.789753
vt 2.145412 1.867403
vt 2.145412 1.867403
vt 1.764452 1.756294
vt 1.824950 1.805061
vt 2.145412 1.867403
vt 0.121920 1.001047
vt 2.145412 1.867403
vt 2.145412 1.867403
vt -8.005413 -3.211257
vt -8.005413 -3.211257
vt 1.671973 1.581440
vt 0.121920 1.001047
vt 1.599340 1.567235
vt 0.121920 1.001047
vt -4.939897 4.219912
vt 1.499988 1.325272
vt -0.005363 1.369039
vt 0.966188 2.567676
vt -0.002164 2.194978
vt -0.003232 3.068255
vt 0.966188 1.432874
vt 0.966188 1.793224
vt -0.005363 1.369039
vt 0.966188 1.432874
vt 0.966188 1.793224
vt -0.005363 1.369039
vt -0.002164 4.223248
vt -0.002164 3.895994
vt 0.966188 3.994418
vt -0.002164 3.552185
vt -0.002164 3.183138
vt 0.966188 4.894341
vt -0.002164 4.392817
vt 0.409843 4.950362
vt -0.002164 4.990376
vt 0.966188 5.775187
vt -0.002164 6.172572
vt 0.448917 6.637820
vt -0.002164 6.792502
vt 0.966188 7.326438
vt 0.966188 6.459263
vt 0.589540 7.472155
vt -0.002164 7.323401
vt 0.310887 7.595288
vt -0.002164 7.687063
vt 0.589540 11.934529
vt 0.589540 11.934529
vt 1.068312 11.654864
vt 0.966188 12.561728
vt 0.589540 12.963002
vt 0.966188 12.526393
vt 0.589540 12.526393
vt 0.966188 11.934529
vt 0.589540 13.340607
vt 0.966188 14.055710
vt 0.966188 14.211285
vt 0.589540 14.055710
vt 0.966188 7.326438
vt 0.966188 8.128070
vt 0.589540 8.128070
vt 0.966188 10.590775
vt 0.589540 10.068749
vt 0.966188 10.068749
vt 0.589540 7.472155
vt 0.583380 11.752418
vt 0.589540 10.590775
vt 0.589540 14.521007
vt 0.310887 7.595288
vt 0.589540 14.338199
vt 0.589540 14.211285
vt 0.966188 13.340607
vt 0.966188 13.784115
vt 0.966955 14.515104
vt 0.589540 13.784115
vt 0.966188 8.933499
vt 0.589540 8.933499
vt 0.589540 7.472155
vt 0.589540 10.590775
vt 0.589540 10.590775
vt 0.966188 10.590775
vt 0.589540 11.934529
vt 0.966188 11.934529
vt 0.966955 14.203267
vt 0.589540 14.204453
vt 0.966955 14.203267
vt 0.517467 8.024844
vt 0.000000 7.686969
vt 0.992980 1.023446
vt 1.459614 1.630158
vt 2.017242 1.006804
vt 1.459614 1.630158
vt 1.459614 1.630158
vt 1.459614 1.630158
vt 1.459614 1.630158
vt 1.459614 1.630158
vt 1.459614 1.630158
vt 1.459614 1.630158
vt 0.992980 1.633112
vt 2.017242 2.001203
vt 0.992980 2.002617
vt 1.459614 1.630158
vt 1.459614 1.630158
vt 1.459614 1.630158
vt 1.459614 1.630158
vt 1.459614 1.630158
vt 1.001468 1.995400
vt 2.005809 0.996689
vt 1.976086 1.990729
vt 0.997096 1.012174
vt 0.006608 -0.316617
vt 0.480866 -1.120511
vt 0.996165 -0.878158
vt 0.377528 -1.120511
vt 0.997076 -1.244154
vt 0.006608 -1.120511
vt 0.970962 -0.490621
vt 0.480866 -1.684563
vt 0.480866 -2.422303
vt 0.997076 -1.706763
vt 0.480866 -2.966342
vt 0.997076 -2.657470
vt 0.997076 -1.066941
vt 0.997076 -0.440126
vt 0.480866 -0.535900
vt 0.997076 -2.256602
vt 0.480866 -1.285415
vt 0.997076 -3.124335
vt 0.466912 -5.630031
vt 1.070011 -7.187894
vt 1.070011 -5.630031
vt 0.466912 -7.689021
vt 0.996471 -9.867380
vt 0.466912 -11.001289
vt 0.996471 -10.948265
vt 0.466912 -9.310352
vt 0.466912 -11.645351
vt 0.466912 -12.119323
vt 0.996471 -12.135339
vt 0.996471 -4.840102
vt 0.466912 -4.840102
vt 1.070011 -7.931668
vt 0.996471 -9.289978
vt 0.466912 -4.130430
vt 0.996471 -4.130430
vt 0.996471 -3.320276
vt 0.466912 -3.320276
vt 0.996471 -11.573173
vt 0.686286 -12.527770
vt 0.996471 -12.492137
vt 1.070011 -6.309990
vt 1.070011 -6.309990
vt 0.466912 -6.309990
vt 0.996471 -10.156151
vt 0.466912 -10.445411
vt 0.996471 -10.156151
vt 0.997076 -3.124335
vt 0.445668 -3.169405
vt 0.996471 -3.320276
vt 0.480866 -0.535900
vt 1.007416 -0.938253
vt 0.480866 -1.120511
vt 0.377528 -1.120511
vt 0.549104 -1.120511
vt 1.085798 1.994925
vt 1.947419 1.518756
vt 2.035766 1.980438
vt 2.008612 0.998561
vt 1.022231 1.136059
vt 1.020059 1.000000
vt 1.006434 1.794405
vt 0.939964 -3.288275
vt 0.944470 -3.320276
vt 0.949802 -3.091403
vt 0.942466 -3.133729
vt -2.392557 3.460620
vt 0.996471 -3.488218
vt -2.339921 3.455517
vt 0.480866 -0.895381
vt 1.481753 1.547955
vt 0.964852 10.590844
vt 1.023492 11.618130
vt 1.023492 11.618130
vt 0.966212 11.934491
vt -8.005413 -3.211257
vt 1.481753 1.547955
vt 1.410239 1.564525
vt 1.377395 1.578396
vt 0.121920 1.001047
vt 0.121920 1.001047
vt 1.336195 1.480769
vt 1.390779 1.517721
vt 1.390757 1.518151
vt 0.121920 1.001047
vt 1.391423 1.518662
vt 0.812105 -0.462309
vt 0.814053 -0.462309
vt 0.799926 0.149328
vt 0.851260 0.569344
vt 0.846280 0.716491
vt 0.819659 1.423246
vt 0.819659 1.423246
vt -8.005413 -3.211257
vt -8.005413 -3.211257
vt -8.005413 -3.211257
vt -8.005413 -3.211257
vt -8.005413 -3.211257
vt -8.005413 -3.211257
vt -8.005413 -3.211257
vt -4.888506 4.246977
vt -4.927711 4.226329
vn 0.997441 0.064588 -0.030667
vn 0.990483 0.094402 0.100153
vn 0.909939 -0.310869 0.274539
vn 0.659207 -0.091979 0.746315
vn 0.079309 0.979585 0.184722
vn 0.889561 -0.003932 0.456799
vn 0.581436 0.811763 0.054529
vn 0.719427 -0.676822 0.156006
vn 0.830362 -0.431995 0.351965
vn 0.826849 -0.127395 0.547805
vn 0.907099 0.000876 0.420917
vn 0.733645 -0.210120 0.646231
vn 0.296558 -0.942182 0.156034
vn 0.021372 0.987919 0.153489
vn 0.858569 0.264337 0.439301
vn 0.896760 -0.011275 0.442373
vn 0.686654 -0.708887 0.161204
vn 0.849440 -0.514988 0.115061
vn 0.635330 -0.761688 0.127232
vn 0.931647 0.263159 -0.250561
vn 0.994393 0.059219 0.087606
vn 0.743871 -0.659137 0.110429
vn 0.655501 -0.731545 0.187510
vn 0.290915 -0.943316 0.159759
vn 0.843062 -0.521239 0.132504
vn 0.867861 -0.437371 0.235634
vn 0.786594 -0.602261 0.136205
vn 0.681438 -0.487463 0.545914
vn 0.800544 -0.549293 0.239596
vn 0.771630 -0.564498 0.293138
vn 0.788941 0.116143 0.603393
vn 0.288915 -0.943600 0.161698
vn 0.813441 -0.411164 0.411411
vn 0.278103 -0.945489 0.169438
vn 0.296330 -0.942155 0.156628
vn 0.859721 -0.484786 0.160815
vn 0.277984 -0.927686 0.249247
vn 0.999499 -0.015212 0.027736
vn 0.994980 -0.069915 0.071608
vn 0.925469 0.339846 -0.167370
vn 0.877850 -0.203474 0.433564
vn 0.955726 0.134238 0.261855
vn 0.099618 0.994145 0.041856
vn 0.940570 0.177031 0.289806
vn 0.028179 0.776669 0.629279
vn 0.776392 -0.209755 0.594322
vn 0.148956 0.488383 0.859822
vn 0.620720 0.105180 0.776945
vn 0.919250 -0.288184 0.268196
vn 0.645447 -0.732901 0.215070
vn 0.840988 -0.531914 0.099031
vn 0.963971 -0.251725 0.085997
vn 0.952562 -0.249564 0.174191
vn -0.063435 0.956728 0.283986
vn 0.979275 0.202228 0.011159
vn 0.476663 0.122907 -0.870452
vn 0.940111 -0.175353 -0.292306
vn 0.309159 -0.466242 -0.828878
vn 0.780525 -0.138765 -0.609528
vn 0.845119 -0.179094 -0.503686
vn 0.939236 -0.328682 -0.099010
vn 0.972067 -0.196547 -0.128273
vn 0.495526 0.259690 -0.828864
vn 0.718001 0.412601 -0.560566
vn 0.883174 0.443687 -0.152136
vn 0.406303 0.134057 -0.903851
vn 0.875781 -0.261559 -0.405703
vn 0.884434 -0.466272 0.019149
vn 0.881773 -0.461702 -0.096476
vn 0.951462 -0.303190 -0.052883
vn 0.384443 0.242428 -0.890748
vn 0.723923 0.302493 -0.620026
vn 0.894929 0.109942 -0.432452
vn 0.451337 0.303645 -0.839103
vn 0.157089 0.971861 -0.175524
vn 0.815809 0.361452 -0.451451
vn 0.823820 0.565626 -0.037256
vn 0.673455 0.739228 0.000662
vn 0.995090 -0.028906 -0.094660
vn 0.175805 0.769962 0.613393
vn 0.989712 -0.044290 -0.136043
vn 0.229245 0.946570 -0.226832
vn 0.892520 0.093790 -0.441148
vn 0.807917 0.161669 -0.566686
vn 0.966051 0.157589 -0.204721
vn 0.961655 0.031088 -0.272494
vn 0.808097 -0.246726 -0.534888
vn 0.310084 -0.465361 -0.829028
vn 0.952832 0.065011 -0.296454
vn 0.601105 -0.758673 -0.251172
vn 0.492998 -0.446329 -0.746822
vn 0.910614 -0.409156 -0.058075
vn 0.464437 -0.278066 -0.840820
vn 0.685990 -0.246898 -0.684440
vn 0.998728 -0.022666 -0.045048
vn 0.973337 0.071309 -0.218017
vn 0.643123 -0.516124 -0.565693
vn 0.887198 -0.454997 0.076530
vn 0.903736 0.016392 -0.427777
vn 0.727824 -0.052607 -0.683743
vn 0.731232 -0.235809 -0.640074
vn 0.823450 -0.554466 -0.120404
vn 0.931110 -0.360424 0.055934
vn 0.737281 -0.353047 -0.575998
vn 0.803114 -0.082891 0.590031
vn 0.803714 -0.595003 0.003846
vn 0.944423 0.118258 0.306725
vn -0.117727 0.939649 0.321249
vn 0.513288 0.477589 0.713053
vn 0.991387 0.119447 0.053710
vn 0.792050 0.589245 0.159520
vn 0.817325 -0.354881 0.453916
vn 0.992629 0.067896 0.100391
vn 0.719257 -0.568766 -0.398967
vn 0.870787 -0.135015 -0.472759
vn 0.907271 0.150253 -0.392790
vn 0.962950 0.103183 -0.249161
vn 0.966401 -0.255586 -0.027298
vn 0.762402 -0.085805 -0.641389
vn 0.930812 0.290996 -0.221155
vn 0.722882 -0.240246 -0.647861
vn 0.673945 -0.689966 -0.264093
vn 0.775592 -0.018376 -0.630967
vn 0.468300 -0.472120 -0.746859
vn 0.863527 -0.322001 -0.388118
vn 0.435195 -0.522236 -0.733399
vn 0.305404 0.276535 -0.911184
vn 0.805043 0.323940 -0.496960
vn 0.431571 0.661389 -0.613442
vn 0.757920 -0.205427 -0.619158
vn 0.705615 0.406456 -0.580432
vn 0.495894 -0.237628 -0.835238
vn 0.658238 -0.234356 -0.715402
vn 0.704560 -0.648291 -0.288643
vn 0.664868 -0.583239 -0.466672
vn 0.726666 -0.202883 -0.656350
vn 0.463384 -0.482716 -0.743142
vn 0.414993 -0.636583 -0.650033
vn 0.428112 -0.607122 -0.669420
vn 0.716358 -0.438474 -0.542745
vn 0.368962 -0.152267 -0.916887
vn 0.468104 -0.185415 -0.864003
vn 0.586546 -0.759781 0.280530
vn 0.870569 0.041832 -0.490264
vn 0.939884 0.107536 -0.324121
vn 0.664252 -0.313359 -0.678657
vn 0.571429 -0.389726 -0.722206
vn 0.862164 -0.506291 -0.018524
vn 0.618859 -0.062676 -0.782997
vn 0.807533 -0.569134 -0.154847
vn 0.935726 -0.006787 -0.352664
vn 0.474546 -0.425085 -0.770785
vn 0.658220 -0.586673 -0.471764
vn 0.796817 0.008904 -0.604156
vn 0.765292 0.101420 -0.635643
vn 0.967046 0.046892 -0.250245
vn 0.248228 0.957976 -0.143752
vn 0.928088 0.177664 -0.327244
vn 0.730906 0.050816 -0.680584
vn 0.784706 0.023273 -0.619431
vn 0.740748 -0.156449 -0.653312
vn 0.930105 0.221534 -0.292962
vn 0.815550 0.239143 -0.526961
vn 0.660482 0.558989 -0.501293
vn 0.744962 0.601583 -0.288322
vn 0.925549 -0.021360 -0.378024
vn 0.999493 0.031803 -0.001666
vn 0.703891 0.227782 0.672795
vn 0.305796 0.114114 -0.945234
vn 0.856320 -0.465811 -0.223017
vn 0.876900 0.215491 -0.429663
vn 0.457783 0.253900 -0.852038
vn 0.574666 0.645523 -0.503050
vn 0.539351 0.534664 -0.650565
vn 0.646611 0.370393 -0.666861
vn 0.518586 0.290877 -0.804027
vn 0.541256 -0.180133 -0.821336
vn 0.897638 -0.089987 -0.431449
vn 0.841737 -0.508127 0.182443
vn 0.728845 0.678765 0.089797
vn 0.610442 -0.392211 -0.688135
vn 0.429633 -0.603404 0.671803
vn 0.653790 -0.176174 0.735881
vn 0.605959 0.297924 0.737601
vn 0.814834 0.399523 0.420033
vn 0.665380 0.662858 -0.343349
vn 0.165063 0.968946 -0.184113
vn 0.273669 0.678304 -0.681915
vn 0.745751 0.585139 -0.318542
vn 0.438399 0.891344 0.115380
vn 0.469369 0.861958 0.191628
vn 0.482844 0.817236 -0.314624
vn 0.424878 0.901552 -0.081744
vn 0.910585 -0.409827 0.053644
vn 0.955609 0.220590 -0.195325
vn 0.851529 -0.523979 -0.018565
vn 0.377932 0.923387 0.067255
vn 0.288786 0.954419 0.075416
vn 0.793316 0.608329 -0.024217
vn 0.328534 0.943393 0.045559
vn 0.709108 -0.591036 -0.384504
vn 0.736549 -0.674240 -0.053815
vn 0.687175 -0.725946 -0.028139
vn 0.427335 -0.868788 -0.250185
vn 0.630373 -0.774132 -0.057876
vn 0.568428 -0.820555 -0.059825
vn 0.597892 -0.800715 -0.037146
vn 0.423912 -0.904793 -0.040607
vn 0.563155 -0.806191 -0.181417
vn -0.097546 -0.991849 -0.081974
vn 0.762940 -0.645359 0.037877
vn 0.630852 -0.650223 -0.423363
vn 0.771145 0.608431 0.187477
vn 0.608255 -0.793447 0.021632
vn 0.601974 -0.513045 0.611891
vn 0.632954 -0.681437 0.367441
vn 0.601615 -0.341705 0.722009
vn -0.078636 -0.996779 0.015762
vn 0.416902 -0.189494 0.888979
vn 0.571189 -0.813223 0.111408
vn 0.556126 -0.808910 0.190757
vn 0.066769 -0.921334 0.382996
vn 0.936009 0.332516 0.115412
vn 0.854523 0.503045 0.129369
vn 0.189258 -0.643428 0.741742
vn 0.999937 0.007237 -0.008548
vn 0.995866 -0.072273 -0.055022
vn 0.984789 0.153842 -0.080772
vn 0.756950 -0.223975 -0.613891
vn 0.862665 -0.475621 0.172031
vn 0.946173 -0.199412 -0.254933
vn 0.871870 -0.135294 -0.470679
vn 0.962495 -0.059643 -0.264663
vn -0.052596 -0.993273 -0.103163
vn 0.967152 -0.182520 0.176926
vn 0.168036 -0.897413 0.407937
vn 0.606164 -0.618098 0.500519
vn 0.181558 -0.560834 0.807776
vn 0.601773 -0.564246 0.565240
vn 0.316212 -0.748764 0.582549
vn 0.267703 -0.827860 0.492933
vn 0.393653 -0.693978 0.602853
vn 0.855292 -0.324210 0.404183
vn 0.831573 -0.213154 0.512886
vn 0.986483 -0.156703 -0.047913
vn 0.990199 -0.130520 -0.049703
vn 0.951112 -0.043567 -0.305759
vn 0.976568 -0.200747 -0.077555
vn 0.904577 0.388705 -0.175069
vn 0.284867 0.947607 -0.144543
vn 0.881047 0.473029 0.000099
vn 0.913108 0.274111 -0.301822
vn 0.640714 -0.566223 -0.518534
vn 0.668265 -0.174751 -0.723107
vn 0.506896 -0.642561 -0.574605
vn 0.675300 -0.450257 -0.584156
vn 0.600889 0.193804 -0.775482
vn 0.687610 0.160549 -0.708108
vn 0.311161 0.862156 0.399833
vn 0.484641 0.855475 0.182446
vn 0.516726 0.851607 0.088090
vn 0.731660 -0.677443 -0.075795
vn 0.984275 -0.063248 -0.164930
vn 0.903821 -0.205195 0.375504
vn 0.275504 -0.820316 0.501179
vn -0.054113 -0.993226 -0.102833
vn 0.991328 -0.115193 0.063239
vn 0.663162 -0.646939 0.376411
vn 0.987678 -0.051564 -0.147764
vn 0.986526 0.056532 -0.153526
vn 0.981315 -0.189210 -0.034941
vn 0.864405 0.454789 -0.214408
vn 0.820578 0.318950 -0.474261
vn 0.098310 0.106734 0.989416
vn 0.691866 0.016266 -0.721843
vn 0.131834 0.317876 0.938922
vn 0.704047 0.436894 -0.559858
vn 0.119369 0.468291 0.875474
vn 0.016125 0.054578 0.998379
vn -0.024834 0.015685 0.999569
vn -0.043543 0.004414 -0.999042
vn -0.067778 -0.153990 -0.985745
vn 0.965938 -0.174554 -0.191036
vn 0.707135 0.671432 -0.221673
vn 0.372116 0.140199 -0.917537
vn 0.314037 0.077193 -0.946267
vn 0.788356 0.322625 0.523839
vn 0.731290 0.546946 0.407512
vn 0.827455 0.031070 0.560672
vn 0.000000 0.000000 1.000000
vn 0.056641 0.002075 0.998392
vn 0.301604 0.077488 -0.950279
vn 0.430526 0.404071 0.807077
vn 0.973309 0.048379 -0.224341
vn 0.296629 0.243390 0.923457
vn 0.355619 0.100123 0.929253
vn 0.521009 -0.050549 0.852053
vn 0.858177 -0.496050 -0.132158
vn 0.740915 -0.063637 0.668577
vn 0.162130 0.192568 0.967797
vn 0.484185 0.535676 0.691821
vn 0.999081 0.028130 -0.032332
vn 0.872717 -0.196990 0.446721
vn 0.714024 0.584444 -0.385480
vn 0.909025 -0.290190 -0.299103
vn 0.430882 0.483995 0.761636
vn 0.825548 0.562783 -0.041787
vn 0.975558 -0.219637 0.006737
vn 0.381026 0.092736 0.919902
vn 0.238519 0.099725 0.966004
vn 0.826341 0.112064 0.551907
vn 0.920134 0.214456 -0.327661
vn 0.594800 0.803537 0.023254
vn 0.739706 0.603121 0.298463
vn 0.471129 0.877633 -0.088311
vn 0.777903 0.542667 -0.316826
vn 0.511277 0.842030 -0.171994
vn 0.719234 0.048148 0.693097
vn 0.989453 0.140887 -0.033675
vn 0.964194 0.100340 -0.245483
vn 0.361021 0.105645 0.926554
vn 0.929845 0.322655 0.176866
vn 0.837573 0.522545 -0.159432
vn 0.627405 0.755308 0.189401
vn 0.807737 0.557176 0.192655
vn 0.901281 0.433234 -0.000000
vn 0.745210 -0.232963 0.624812
vn 0.930974 0.005851 0.365039
vn 0.786132 -0.485830 0.382055
vn 0.986461 0.120189 0.111572
vn 0.981366 0.115858 0.153293
vn 0.947014 -0.311004 -0.080262
vn 0.716704 -0.303123 -0.628054
vn 0.972577 0.148005 -0.179410
vn 0.491115 0.146942 -0.858611
vn 0.558529 0.196451 -0.805886
vn 0.272532 0.116437 -0.955075
vn 0.565121 0.208959 -0.798107
vn 0.262663 0.044123 -0.963878
vn 0.536342 0.144186 -0.831593
vn 0.701385 0.056164 -0.710566
vn 0.820720 -0.545819 -0.168821
vn 0.626885 -0.769799 -0.120105
vn 0.920699 0.150190 -0.360218
vn 0.771082 0.183272 0.609790
vn 0.910777 0.083398 -0.404388
vn 0.775957 0.110330 0.621062
vn 0.830942 0.150815 0.535527
vn 0.988391 -0.123113 -0.089031
vn 0.481435 0.372477 -0.793399
vn 0.996284 -0.085408 0.011079
vn 0.966744 -0.255717 -0.003964
vn 0.188902 0.979163 0.074533
vn 0.977532 -0.172373 -0.121324
vn 0.966578 0.157642 -0.202179
vn 0.969778 -0.174454 -0.170579
vn 0.976463 0.161518 -0.142940
vn 0.753520 0.262353 -0.602809
vn 0.976463 0.161519 -0.142940
vn 0.946496 0.177071 -0.269798
vn 0.667163 0.159493 -0.727637
vn 0.644526 0.668449 0.371162
vn 0.400248 0.682399 0.611665
vn 0.509679 0.829097 0.229836
vn 0.572796 0.775138 -0.266581
vn 0.605148 0.714870 -0.350368
vn 0.587599 0.633814 -0.502998
vn 0.674307 0.685267 -0.275170
vn 0.681350 -0.187073 -0.707648
vn 0.846595 0.489671 -0.208564
vn 0.540805 0.479996 0.690749
vn 0.748224 0.659843 -0.069053
vn 0.682387 -0.685883 -0.252809
vn 0.689437 -0.601329 -0.403831
vn 0.170083 0.252074 -0.952644
vn 0.386957 0.471764 -0.792277
vn 0.726905 -0.489338 -0.481827
vn 0.657866 -0.354789 -0.664332
vn 0.941694 0.024521 0.335577
vn 0.909331 0.030941 0.414921
vn 0.762363 0.070370 0.643312
vn 0.803310 0.088751 0.588912
vn 0.988983 0.145289 0.028345
vn 0.840384 -0.540199 0.044047
vn 0.735881 -0.606719 0.300618
vn 0.492962 -0.544178 0.678866
vn 0.862830 -0.393542 -0.317253
vn 0.705073 -0.465770 0.534724
vn 0.657382 -0.642691 0.393443
vn 0.864122 -0.496352 -0.083237
vn 0.635783 -0.243668 0.732397
vn 0.749559 -0.651147 0.119035
vn 0.994918 -0.063215 -0.078375
vn 0.975278 -0.217528 -0.038922
vn 0.665222 0.113942 -0.737901
vn 0.949996 0.150043 -0.273853
vn 0.976463 0.161519 -0.142939
vn 0.687440 0.056795 -0.724017
vn 0.177155 -0.495875 -0.850132
vn 0.152521 -0.442442 -0.883732
vn 0.182468 -0.012414 -0.983133
vn 0.081048 0.374077 -0.923849
vn 0.191928 0.267960 -0.944119
vn 0.266370 0.060362 -0.961979
vn 0.165915 -0.322902 -0.931776
vn 0.200212 0.089525 -0.975654
vn 0.256704 -0.034168 -0.965886
vn 0.000022 -0.522153 -0.852852
vn 0.000019 -0.447786 -0.894140
vn 0.129178 -0.339786 -0.931589
vn 0.039448 -0.058092 -0.997532
vn -0.031975 0.334115 -0.941990
vn 0.069318 0.335227 -0.939584
vn -0.018069 0.075285 -0.996998
vn 0.069318 0.335227 -0.939584
vn 0.041669 -0.040711 -0.998302
vn 0.041343 -0.305922 -0.951158
vn 0.201340 -0.360052 -0.910947
vn -0.044489 0.152144 -0.987357
vn 0.012461 0.034494 -0.999327
vn -0.094365 -0.069129 -0.993135
vn 0.096293 -0.054676 -0.993850
vn 0.013848 0.066929 -0.997662
vn 0.069318 0.335227 -0.939584
vn -0.050459 -0.043542 -0.997776
vn -0.015575 -0.051692 -0.998542
vn 0.144525 -0.191740 -0.970746
vn -0.010403 -0.201687 -0.979395
vn -0.047971 0.023947 -0.998562
vn -0.030712 -0.002256 -0.999526
vn 0.532782 0.844038 0.061181
vn 0.503112 0.846957 -0.171877
vn -0.018671 -0.001204 0.999825
vn 0.703536 0.672696 -0.229165
vn 0.361525 0.931628 0.036998
vn 0.367578 0.925127 -0.095008
vn -0.016061 0.004586 0.999861
vn 0.069318 0.335227 -0.939584
vn 0.477738 0.872536 -0.102214
vn 0.373978 0.892358 -0.252660
vn -0.023092 -0.001915 0.999732
vn 0.781955 0.530119 -0.327902
vn 0.323827 -0.779000 -0.536931
vn -0.028771 0.090121 0.995515
vn 0.402605 -0.709874 -0.577918
vn 0.020059 0.058329 0.998096
vn -0.008782 -0.317680 -0.948157
vn 0.973997 0.104823 0.200856
vn 0.941922 0.246260 0.228341
vn 0.024744 0.063028 0.997705
vn 0.261998 -0.878621 -0.399227
vn -0.018086 0.016334 0.999703
vn -0.021510 0.023795 0.999485
vn -0.016001 0.015845 0.999747
vn -0.005655 0.033290 0.999430
vn -0.006452 0.049066 0.998775
vn -0.007969 0.019019 0.999787
vn -0.003714 0.013528 0.999902
vn -0.022769 0.025362 0.999419
vn 0.779103 0.071795 0.622771
vn 0.846983 0.152732 0.509208
vn 0.012320 0.071725 0.997348
vn -0.008512 0.063616 0.997938
vn 0.018767 0.025588 0.999496
vn 0.032362 0.054083 0.998012
vn 0.022730 0.034317 0.999152
vn -0.007402 0.017679 0.999816
vn -0.033289 0.050095 0.998190
vn 0.160167 0.077104 0.984074
vn -0.043425 0.180027 0.982703
vn -0.045840 0.072245 0.996333
vn 0.017182 0.044527 0.998860
vn 0.581433 -0.597283 -0.552439
vn 0.144525 -0.191740 -0.970746
vn 0.130748 -0.296662 -0.945990
vn 0.078885 -0.237983 -0.968060
vn 0.375518 -0.766594 -0.520884
vn 0.236730 -0.828195 -0.507988
vn 0.207873 -0.490244 -0.846433
vn 0.978002 0.193767 0.077250
vn 0.999050 0.034828 0.026187
vn 0.946754 -0.321613 -0.014909
vn 0.594900 -0.803799 -0.001451
vn 0.403286 -0.914972 0.013662
vn 0.467133 -0.884182 0.003056
vn 0.997343 0.070254 0.019244
vn 0.469995 -0.882669 0.000000
vn 0.983696 0.087600 -0.157063
vn 0.975444 -0.219547 0.017565
vn 0.377012 0.925918 -0.023191
vn 0.991063 -0.131699 -0.021220
vn 0.313032 0.948400 0.050481
vn 0.970596 0.237681 -0.038096
vn 0.996347 0.068007 0.051643
vn 0.976848 0.186827 0.104224
vn 0.878195 -0.048852 -0.475801
vn 0.566983 -0.105603 -0.816932
vn 0.890536 -0.130043 -0.435930
vn 0.974401 0.101553 -0.200575
vn 0.297511 0.062271 -0.952685
vn -0.067594 0.323366 0.943857
vn 0.571609 0.437246 -0.694319
vn 0.066372 -0.205140 -0.976480
vn 0.244828 -0.431431 -0.868290
vn 0.255272 0.443976 0.858907
vn 0.738020 0.643560 -0.202872
vn 0.510081 0.692014 -0.510817
vn 0.080353 0.443237 0.892796
vn 0.976628 0.051930 -0.208568
vn 0.935955 0.321651 0.143280
vn 0.488831 0.871495 -0.039255
vn 0.665786 0.736615 0.118859
vn 0.618539 0.783569 0.058555
vn 0.688397 0.725080 -0.019207
vn 0.370623 0.928775 -0.003853
vn 0.907670 0.414903 0.063167
vn 0.996520 0.079911 0.023695
vn 0.888923 0.458043 0.003537
vn 0.763344 0.437298 0.475476
vn 0.986500 0.153295 0.057598
vn 0.965840 0.252352 0.058913
vn 0.322124 0.592405 0.738439
vn 0.706298 -0.048139 -0.706276
vn 0.239836 0.093692 -0.966282
vn 0.274780 0.620735 0.734292
vn 0.220334 0.260665 0.939950
vn 0.049043 0.228113 0.972399
vn 0.665770 0.209021 -0.716283
vn 0.550285 0.066476 -0.832327
vn 0.426670 0.200258 -0.881958
vn 0.359661 -0.110791 -0.926482
vn 0.106461 0.002559 -0.994313
vn 0.058968 0.034474 0.997664
vn 0.874691 -0.187699 -0.446860
vn 0.277349 0.448710 0.849551
vn 0.459294 0.783969 -0.417663
vn 0.601051 0.758598 -0.251527
vn 0.947224 0.213143 -0.239453
vn 0.670895 -0.402577 0.622761
vn 0.986698 -0.162565 0.000657
vn 0.846577 0.531258 0.032762
vn 0.000000 0.000000 1.000000
vn 0.000000 0.000000 1.000000
vn 0.468534 0.027253 -0.883025
vn 0.800927 -0.594480 -0.071488
vn 0.192980 -0.030694 0.980723
vn 0.818213 -0.534615 -0.211456
vn 0.653686 -0.163673 -0.738855
vn 0.816309 0.567596 -0.107121
vn 0.930298 0.149955 -0.334752
vn 0.900015 0.118256 -0.419509
vn -0.088502 0.044553 -0.995079
vn 0.424211 0.566576 -0.706426
vn 0.219256 0.220423 -0.950442
vn 0.330025 0.635085 -0.698392
vn 0.396027 0.162697 -0.903710
vn -0.003053 0.183119 -0.983086
vn 0.301861 0.279179 -0.911559
vn 0.123662 0.119893 -0.985055
vn 0.147052 0.147282 -0.978102
vn 0.054923 0.206723 -0.976857
vn 0.461739 0.189523 -0.866532
vn 0.306521 0.050481 -0.950524
vn 0.357461 -0.286980 -0.888743
vn 0.667166 -0.469116 -0.578636
vn 0.752789 -0.609655 -0.248252
vn 0.041783 -0.029273 0.998698
vn 0.117832 0.093503 0.988622
vn 0.086767 0.039803 0.995433
vn 0.111997 -0.001088 0.993708
vn 0.050932 0.012460 0.998624
vn 0.078568 0.058313 0.995202
vn 0.168168 0.073340 0.983026
vn 0.755672 -0.099888 0.647288
vn 0.193712 0.044636 0.980042
vn 0.256117 0.033637 0.966060
vn 0.111258 0.080890 0.990494
vn 0.152631 0.069150 0.985861
vn 0.200073 0.270841 0.941603
vn 0.178819 0.012004 0.983809
vn 0.108132 -0.086898 0.990331
vn 0.197276 0.023856 0.980058
vn 0.208787 0.042773 0.977025
vn 0.854998 0.151116 0.496127
vn 0.996911 -0.040761 0.067132
vn 0.434608 0.386455 0.813491
vn 0.970436 0.183751 0.156492
vn -0.023765 0.008197 0.999684
vn -0.019581 0.018017 0.999646
vn -0.018494 0.014799 0.999719
vn -0.010867 0.122830 0.992368
vn 0.187920 0.015951 0.982055
vn -0.096716 0.059444 -0.993535
vn 0.986814 0.074568 0.143655
vn 0.918884 0.390386 0.057017
vn 0.994869 0.101171 0.000000
vn 0.424954 -0.844425 -0.326128
vn 0.911563 0.153395 0.381474
vn 0.937070 0.254747 0.238754
vn 0.911200 0.182952 0.369110
vn 0.899555 0.430067 -0.076441
vn 0.048742 -0.026659 -0.998456
vn 0.886974 -0.460714 -0.031941
vn 0.949794 0.311507 0.029222
vn 0.747353 0.646125 0.154874
vn 0.415877 0.909419 -0.002059
vn 0.952695 -0.301379 0.039276
vn 0.668625 0.686859 -0.284894
vn 0.896673 0.348263 -0.273295
vn 0.984388 0.094609 -0.148425
vn 0.830018 -0.557737 -0.000001
vn 0.588151 0.808751 0.001027
vn 0.986646 -0.162882 0.000000
vn 0.236808 -0.151445 -0.959680
vn 0.925808 0.352373 0.136794
vn 0.472094 -0.881545 0.002515
vn 0.998440 0.047425 -0.029485
vn 0.242450 0.967848 0.066996
vn 0.866050 0.457830 0.200873
vn 0.831378 -0.552154 -0.062745
vn 0.088186 0.993956 -0.065383
vn 0.949810 0.209298 -0.232499
vn 0.984614 0.077562 -0.156589
vn 0.940123 0.198539 -0.277040
vn 0.987133 0.137667 -0.081344
vn 0.215157 0.834826 -0.506728
vn 0.117093 0.983119 -0.140595
vn 0.866681 -0.456788 -0.200523
vn 0.712114 0.695828 0.093370
vn 0.086619 0.718611 -0.689997
vn 0.108725 -0.738724 -0.665181
vn 0.299114 0.949588 0.093882
vn 0.573995 0.818505 -0.024088
vn 0.598330 0.746274 -0.291680
vn 0.429826 0.822155 -0.373243
vn 0.288781 0.922677 -0.255486
vn 0.562014 0.812035 0.157291
vn 0.316322 0.864129 -0.391434
vn 0.426850 -0.903936 0.026422
vn 0.597268 -0.802041 -0.000275
vn 0.931976 -0.061304 -0.357300
vn 0.373761 -0.927430 0.013277
vn 0.474488 -0.880245 0.005392
vn 0.058651 -0.476196 -0.877381
vn 0.221976 -0.512447 -0.829533
vn 0.115432 0.989577 -0.086098
vn 0.122465 0.916830 -0.380033
vn 0.256431 -0.454202 -0.853196
vn 0.430114 -0.065003 -0.900431
vn 0.819630 0.557540 0.131743
vn 0.593844 0.796859 0.111201
vn 0.440040 0.896110 0.057891
vn 0.716190 0.175046 -0.675597
vn 0.999099 -0.041776 -0.007478
vn 0.180474 -0.017838 -0.983418
vn 0.640310 0.105241 -0.760873
vn 0.528703 0.536482 -0.657770
vn 0.587098 0.808746 0.035295
vn 0.992496 0.119122 0.027608
vn 0.830018 -0.557736 -0.000001
vn 0.985374 0.170403 0.001169
vn 0.914438 0.403497 -0.031519
vn 0.828116 -0.491555 -0.269441
vn 0.808463 -0.588546 0.001214
vn 0.766005 -0.497489 -0.407113
vn 0.886229 -0.445889 -0.125622
vn 0.742338 0.513574 -0.430321
vn 0.861129 0.297715 -0.412095
vn 0.171111 0.707985 -0.685185
vn 0.677349 -0.625617 -0.387043
vn 0.841121 -0.540847 -0.000117
vn -0.990214 -0.081449 -0.113326
vn 0.167965 0.984657 0.047319
vn 0.956695 0.147234 -0.251112
vn 0.977421 0.206302 0.045683
vn 0.939913 -0.341414 -0.000710
vn 0.998895 -0.020146 -0.042461
vn 0.985342 0.163950 -0.047139
vn 0.962031 0.107957 -0.250682
vn 0.589449 0.807766 -0.008028
vn 0.999572 0.019882 -0.021485
vn 0.447123 0.082352 0.890673
vn 0.378849 0.077938 0.922171
vn 0.374866 0.111267 0.920378
vn 0.336963 0.092975 0.936916
vn 0.258982 0.215120 0.941622
vn 0.619510 0.784973 -0.004958
vn 0.606045 0.795219 -0.018355
vn 0.914398 0.403020 -0.038093
vn 0.983260 0.182169 -0.003687
vn 0.843560 -0.537034 0.000698
vn 0.808489 -0.588510 0.001377
vn 0.995199 0.096831 -0.014212
vn 0.999793 -0.003587 -0.020044
vn 0.000000 0.000000 0.000000
g fff08519_00177_0033f02e_e0
f 259/423/318 260/425/320 259/424/319
f 26/3/34 57/5/75 43/36/60
f 124/25/169 127/26/172 131/35/176
f 6/12/8 4/34/4 4/13/5
f 17/27/22 19/33/25 20/28/26
f 256/417/313 25/4/32 26/3/34
f 24/10/30 258/422/317 56/8/73
f 56/9/74 25/32/31 254/414/310
f 101/21/139 213/17/266 100/30/138
f 255/415/311 56/9/74 254/414/310
f 256/417/313 256/416/312 26/7/33
f 56/8/73 255/415/311 24/10/30
f 255/415/311 254/414/310 24/10/30
f 256/416/312 27/6/35 26/7/33
f 213/17/266 99/19/137 100/30/138
f 17/27/22 20/28/26 58/29/77
f 124/25/169 126/24/171 127/26/172
f 128/23/173 126/24/171 124/25/169
f 256/416/312 256/417/313 26/3/34
f 258/422/317 24/10/30 258/421/316
f 26/3/34 25/4/32 57/5/75
f 213/20/267 213/17/266 101/21/139
f 213/17/266 214/18/268 99/19/137
f 14/14/18 8/15/10 23/16/29
f 7/11/9 6/12/8 4/13/5
g fff08519_00177_0033f02e_e1
f 259/424/319 258/421/316 259/423/318
f 258/421/316 259/424/319 258/422/317
f 110/56/150 116/57/158 111/58/151
f 96/128/134 73/128/105 99/128/137
f 96/128/134 99/128/137 214/128/268
f 31/103/43 151/140/196 32/104/45
f 36/138/51 35/137/50 38/139/53
f 31/136/42 35/137/50 36/138/51
f 102/128/140 213/128/267 101/128/139
f 14/14/18 77/135/113 20/28/26
f 14/14/18 77/134/112 77/135/113
f 14/14/18 19/33/25 8/15/10
f 19/33/25 14/14/18 20/28/26
f 109/39/147 109/40/148 108/41/146
f 109/40/148 109/39/147 103/38/141
f 108/41/146 109/40/148 162/42/207
f 91/37/129 103/38/141 109/39/147
f 121/43/165 128/23/173 167/44/213
f 128/23/173 123/45/168 167/44/213
f 123/45/168 139/46/184 167/44/213
f 126/24/171 121/47/166 127/26/172
f 121/43/165 126/24/171 128/23/173
f 65/76/91 106/78/144 66/133/93
f 121/43/165 119/48/162 126/24/171
f 117/130/159 119/48/162 120/131/164
f 117/130/159 121/47/166 119/48/162
f 117/130/159 120/131/164 119/132/161
f 108/41/146 162/42/207 161/129/206
f 9/126/11 4/13/5 4/34/4
f 102/128/140 211/128/264 213/128/267
f 9/126/11 210/127/263 4/13/5
f 10/125/12 6/12/8 5/123/7
f 7/11/9 3/124/3 5/123/7
f 6/12/8 7/11/9 5/123/7
f 10/122/13 5/119/6 11/118/14
f 5/119/6 82/121/119 11/120/15
f 11/118/14 5/119/6 11/120/15
f 19/33/25 21/116/27 8/15/10
f 17/27/22 58/29/77 22/112/28
f 18/111/23 17/27/22 22/112/28
f 16/115/21 13/117/17 21/116/27
f 15/114/19 13/117/17 16/115/21
f 21/116/27 13/117/17 8/15/10
f 15/113/20 15/114/19 16/115/21
f 18/110/24 18/111/23 22/112/28
f 43/36/60 56/9/74 26/3/34
f 56/9/74 43/36/60 25/32/31
f 25/4/32 29/109/39 57/108/76
f 25/32/31 43/36/60 80/106/116
f 25/4/32 57/108/76 57/5/75
f 25/32/31 80/106/116 44/107/61
f 27/60/36 28/59/37 257/419/315
f 126/24/171 119/48/162 121/47/166
f 74/53/108 50/55/67 52/54/69
f 31/103/43 32/104/45 30/105/41
f 28/59/37 26/7/33 27/6/35
f 41/94/57 40/102/56 154/95/199
f 75/52/109 74/53/108 52/54/69
f 142/63/187 135/22/180 141/64/186
f 116/57/158 110/56/150 115/97/156
f 41/94/57 154/95/199 153/96/198
f 28/59/37 27/60/36 28/61/38
f 62/89/86 158/93/203 157/90/202
f 87/86/125 66/92/92 68/87/96
f 62/89/86 157/90/202 68/91/95
f 87/86/125 63/85/88 98/88/136
f 63/85/88 87/86/125 68/87/96
f 163/49/208 114/50/155 114/51/154
f 164/83/209 111/58/151 116/57/158
f 257/419/315 28/59/37 27/6/35
f 70/73/99 70/79/100 71/74/102
f 65/76/91 105/77/143 106/78/144
f 70/73/99 71/74/102 71/75/101
f 124/25/169 131/35/176 129/71/174
f 125/72/170 168/70/214 129/71/174
f 168/70/214 124/25/169 129/71/174
f 146/68/191 143/66/188 145/69/190
f 143/66/188 146/68/191 166/67/212
f 141/64/186 143/66/188 144/65/189
f 143/66/188 166/67/212 144/65/189
f 135/22/180 142/63/187 140/31/185
f 141/64/186 144/65/189 142/63/187
g fff08519_00177_0033f02e_e2
f 149/128/194 233/128/287 235/128/289
f 235/99/289 233/248/287 237/263/291
f 24/10/30 262/429/323 258/428/316
f 239/260/293 237/262/291 240/259/294
f 262/429/323 24/10/30 261/427/322
f 235/261/289 237/262/291 239/260/293
f 264/431/325 240/259/294 266/433/327
f 225/244/279 47/243/64 263/430/324
f 58/258/78 218/257/272 226/100/280
f 193/246/244 226/100/280 218/257/272
f 335/511/407 149/99/194 60/98/81
f 199/256/252 60/98/81 333/507/405
f 226/100/280 193/246/244 60/98/81
f 60/128/80 44/128/61 232/128/286
f 193/128/244 218/128/272 309/482/378
f 44/128/61 78/128/114 230/128/284
f 230/252/284 232/254/286 44/255/61
f 232/254/286 230/252/284 231/253/285
f 78/128/114 228/128/282 230/128/284
f 229/240/283 231/253/285 230/252/284
f 229/240/283 230/252/284 228/251/282
f 53/128/70 55/128/72 217/128/271
f 228/128/282 53/128/70 217/128/271
f 55/128/72 48/128/65 217/128/271
f 217/128/271 48/128/65 227/128/281
f 48/128/65 49/128/66 227/128/281
f 217/238/271 227/239/281 192/238/243
f 228/251/282 217/238/271 229/240/283
f 218/249/272 60/250/80 309/249/378
f 60/98/81 199/247/252 335/511/407
f 234/245/288 60/98/81 193/246/244
f 150/242/195 245/395/300 46/241/63
f 245/395/300 150/242/195 47/243/64
f 87/86/125 98/88/136 222/199/276
f 89/191/127 105/77/143 220/197/274
f 78/128/114 53/128/70 228/128/282
f 192/238/243 229/240/283 217/238/271
f 227/239/281 49/128/66 372/569/454
f 372/569/454 192/238/243 227/239/281
f 214/225/268 216/167/270 96/180/134
f 84/166/122 417/614/502 415/611/500
f 352/546/434 414/610/499 415/128/500
f 84/128/122 415/612/500 215/128/269
f 204/235/257 84/166/122 215/237/269
f 84/166/122 204/235/257 205/236/258
f 198/128/250 215/128/269 188/128/239
f 198/128/250 204/128/257 215/128/269
f 189/233/240 337/515/411 338/234/413
f 95/128/133 339/519/414 189/232/240
f 85/128/123 214/128/268 213/128/266
f 85/168/123 213/226/266 405/609/489
f 213/227/267 211/230/264 184/228/235
f 184/228/235 212/229/265 183/231/233
f 212/229/265 184/228/235 211/230/264
f 213/226/266 213/227/267 184/228/235
f 214/225/268 85/168/123 216/167/270
f 196/128/248 479/531/564 429/128/514
f 336/514/410 208/211/261 428/176/513
f 208/201/261 429/224/514 426/128/511
f 344/527/421 196/128/248 429/224/514
f 347/538/428 344/528/421 247/399/303
f 49/128/66 51/128/68 502/786/587
f 195/128/247 502/786/587 503/787/588
f 51/221/68 504/789/589 503/788/588
f 504/789/589 51/221/68 74/162/107
f 242/391/296 243/389/297 198/128/250
f 194/128/246 505/791/590 242/391/296
f 505/792/590 504/790/589 74/162/107
f 504/790/589 505/792/590 194/218/246
f 243/390/297 203/215/256 244/392/298
f 82/214/120 244/392/298 203/215/256
f 203/215/256 74/162/107 82/214/120
f 81/164/118 82/214/120 74/162/107
f 208/211/261 426/213/511 428/176/513
f 346/533/425 451/210/536 443/212/528
f 336/175/409 428/176/513 427/174/512
f 119/48/162 138/207/183 120/131/164
f 501/785/586 450/172/535 336/173/410
f 143/66/188 135/22/180 121/43/165
f 138/207/183 134/209/179 165/208/210
f 428/176/513 501/784/586 336/514/410
f 165/208/210 120/131/164 138/207/183
f 135/22/180 132/148/177 119/48/162
f 289/465/354 287/459/350 287/458/349
f 234/775/288 499/773/584 289/465/354
f 119/48/162 121/43/165 135/22/180
f 119/48/162 137/149/182 138/207/183
f 137/149/182 119/48/162 132/148/177
f 121/47/166 131/35/176 127/26/172
f 131/35/176 121/47/166 110/56/150
f 130/195/175 129/71/174 110/56/150
f 131/35/176 110/56/150 129/71/174
f 119/132/161 115/97/156 117/130/159
f 111/58/151 114/51/154 110/56/150
f 163/49/208 114/51/154 111/58/151
f 164/83/209 116/57/158 119/132/161
f 115/97/156 119/132/161 116/57/158
f 109/40/148 114/51/154 114/50/155
f 109/40/148 114/50/155 162/42/207
f 108/41/146 89/191/127 109/39/147
f 161/129/206 89/191/127 108/41/146
f 64/202/89 93/206/131 159/204/204
f 106/78/144 92/205/130 66/133/93
f 106/78/144 89/191/127 92/205/130
f 94/187/132 155/181/200 95/183/133
f 338/518/413 61/190/83 95/183/133
f 62/89/86 160/203/205 158/93/203
f 159/204/204 160/203/205 64/202/89
f 62/89/86 64/202/89 160/203/205
f 477/526/562 434/128/519 346/201/426
f 212/200/265 97/192/135 183/198/233
f 103/38/141 110/56/150 114/51/154
f 103/38/141 382/583/464 110/56/150
f 110/56/150 198/196/251 374/571/456
f 87/86/125 222/199/276 65/76/91
f 209/170/262 210/179/263 84/166/122
f 130/195/175 184/194/234 122/193/167
f 184/194/234 241/388/295 97/192/135
f 66/133/93 66/92/92 87/86/125
f 66/133/93 87/86/125 65/76/91
f 114/51/154 109/40/148 103/38/141
f 109/39/147 89/191/127 91/37/129
f 89/191/127 220/197/274 91/37/129
f 4/169/5 210/179/263 209/170/262
f 130/195/175 374/571/456 184/194/234
f 97/192/135 122/193/167 184/194/234
f 89/191/127 106/78/144 105/77/143
f 70/73/99 71/75/101 63/85/88
f 156/82/201 67/81/94 157/90/202
f 63/85/88 68/87/96 70/73/99
f 68/91/95 157/90/202 67/81/94
f 338/518/413 71/74/102 70/79/100
f 338/518/413 70/79/100 61/190/83
f 155/181/200 67/84/94 253/406/309
f 31/136/42 36/138/51 151/140/196
f 46/186/63 32/104/45 150/188/195
f 31/136/42 151/140/196 31/103/43
f 152/185/197 38/139/53 39/182/55
f 94/187/132 67/84/94 155/181/200
f 32/104/45 46/186/63 30/105/41
f 34/184/47 153/96/198 152/185/197
f 152/185/197 39/182/55 34/184/47
f 153/96/198 34/184/47 41/94/57
f 155/181/200 249/401/305 95/183/133
f 39/182/55 38/139/53 35/137/50
f 40/102/56 249/401/305 154/95/199
f 354/549/436 96/180/134 353/547/435
f 425/178/510 331/504/403 424/173/509
f 336/175/409 427/174/512 424/173/509
f 336/513/409 424/173/509 331/504/403
f 428/176/513 336/175/409 501/784/586
f 336/513/409 449/171/534 501/785/586
f 83/161/121 4/169/5 244/394/299
f 352/166/434 353/167/435 85/168/123
f 74/53/108 80/163/117 50/55/67
f 80/163/117 73/165/106 50/55/67
f 80/163/117 74/162/107 73/165/106
f 74/162/107 80/163/117 81/164/118
f 10/125/12 9/126/11 6/12/8
f 9/126/11 4/34/4 6/12/8
f 4/13/5 83/161/121 12/160/16
f 5/119/6 12/160/16 82/121/119
f 7/11/9 4/13/5 12/160/16
f 3/124/3 7/11/9 5/119/6
f 10/122/13 3/124/3 5/119/6
f 82/121/119 12/160/16 83/161/121
f 7/11/9 12/160/16 5/119/6
f 21/116/27 19/33/25 17/27/22
f 18/110/24 15/113/20 18/111/23
f 16/115/21 21/116/27 18/111/23
f 15/113/20 16/115/21 18/111/23
f 18/111/23 21/116/27 17/27/22
f 2/158/2 23/16/29 8/15/10
f 11/118/14 11/120/15 2/158/2
f 1/159/1 11/118/14 2/158/2
f 2/158/2 13/117/17 15/114/19
f 1/159/1 2/158/2 15/114/19
f 2/158/2 8/15/10 13/117/17
f 11/120/15 23/16/29 2/158/2
f 61/157/82 77/134/112 14/14/18
f 76/156/111 58/29/77 77/135/113
f 287/460/350 462/466/547 461/461/546
f 333/507/405 60/98/81 234/245/288
f 14/14/18 23/16/29 61/157/82
f 61/157/82 23/16/29 11/120/15
f 77/135/113 58/29/77 20/28/26
f 82/121/119 61/157/82 11/120/15
f 57/108/76 22/112/28 57/5/75
f 58/29/77 57/5/75 22/112/28
f 43/36/60 57/5/75 80/106/116
f 57/5/75 76/156/111 79/155/115
f 57/5/75 58/29/77 76/156/111
f 80/106/116 57/5/75 79/155/115
f 78/151/114 79/155/115 75/152/110
f 78/151/114 80/106/116 79/155/115
f 53/153/70 75/152/110 54/154/71
f 54/154/71 75/52/109 52/54/69
f 54/154/71 75/152/110 75/52/109
f 78/151/114 75/152/110 53/153/70
f 44/107/61 80/106/116 78/151/114
f 324/496/395 294/1/361 323/1/394
f 330/503/402 329/502/401 465/473/550
f 56/8/73 256/416/312 255/415/311
f 257/418/314 256/417/313 28/59/37
f 261/427/322 254/414/310 60/150/80
f 254/414/310 261/427/322 24/10/30
f 257/418/314 28/59/37 28/61/38
f 300/1/369 324/496/395 457/1/542
f 469/490/554 444/375/529 330/503/402
f 60/150/80 25/32/31 44/107/61
f 256/416/312 26/3/34 255/415/311
f 25/4/32 256/417/313 29/109/39
f 288/462/352 298/478/367 326/498/397
f 180/374/230 288/462/352 326/498/397
f 287/1/349 459/1/544 463/1/548
f 288/463/352 291/469/358 436/379/521
f 320/492/391 197/375/249 328/500/399
f 327/499/398 326/498/397 298/477/366
f 327/499/398 298/477/366 435/375/520
f 468/479/553 465/473/550 329/502/401
f 467/476/552 327/499/398 328/500/399
f 500/782/585 437/375/522 332/506/404
f 438/375/523 332/506/404 327/499/398
f 448/1/533 288/1/353 336/512/408
f 328/501/400 468/479/553 329/502/401
f 459/1/544 287/1/349 290/1/357
f 61/189/85 72/270/104 71/74/102
f 72/270/104 72/271/103 71/75/101
f 71/75/101 71/74/102 72/270/104
f 72/271/103 63/85/88 71/75/101
f 63/85/88 72/271/103 221/272/275
f 98/88/136 63/85/88 221/272/275
f 415/612/500 353/548/435 352/128/434
f 417/614/502 354/549/436 415/611/500
f 167/44/213 143/66/188 121/43/165
f 135/22/180 143/66/188 141/64/186
f 293/1/360 460/1/545 180/1/230
f 323/495/394 294/472/361 330/503/402
f 139/46/184 143/66/188 167/44/213
f 145/69/190 143/66/188 139/46/184
f 168/70/214 128/23/173 124/25/169
f 166/67/212 165/1/211 144/65/189
f 144/65/189 147/2/192 142/63/187
f 165/1/211 147/2/192 144/65/189
f 331/505/403 323/495/394 330/503/402
f 331/504/403 444/177/529 336/513/409
f 142/63/187 147/2/192 140/31/185
f 165/1/211 166/67/212 148/145/193
f 148/145/193 166/67/212 146/68/191
f 149/99/194 335/511/407 233/248/287
f 449/171/534 336/513/409 444/177/529
f 293/471/360 180/374/230 326/498/397
f 449/171/534 450/172/535 501/785/586
f 451/210/536 208/211/261 336/514/410
f 438/375/523 327/499/398 467/476/552
f 425/1/510 471/497/556 323/1/394
f 329/502/401 330/503/402 294/472/361
f 465/473/550 469/490/554 330/503/402
f 331/505/403 330/503/402 444/375/529
f 438/375/523 500/782/585 332/506/404
f 320/1/391 467/1/552 197/1/249
f 453/378/538 234/775/288 334/509/406
f 61/189/85 71/74/102 338/518/413
f 95/128/133 40/128/56 339/519/414
f 347/539/428 477/526/562 346/201/426
f 247/398/303 344/527/421 429/224/514
f 346/142/425 247/399/303 208/223/261
f 345/531/424 339/519/414 40/128/56
f 264/431/325 266/433/327 263/430/324
f 101/21/139 100/30/138 102/147/140
f 100/30/138 99/19/137 102/147/140
f 99/19/137 73/146/105 102/147/140
f 239/260/293 240/259/294 264/431/325
f 451/210/536 336/514/410 450/175/535
f 338/234/413 337/515/411 61/189/85
f 263/430/324 47/243/64 264/431/325
f 60/150/80 59/62/79 261/427/322
f 259/1/319 56/1/73 258/1/317
f 260/426/321 27/426/35 56/1/73
f 56/1/73 259/1/319 260/426/321
f 27/420/35 256/416/312 56/8/73
f 29/109/39 256/417/313 257/418/314
f 189/189/240 338/518/413 95/183/133
f 256/417/313 26/7/33 28/59/37
f 208/211/261 451/210/536 346/533/425
f 255/415/311 26/3/34 56/9/74
f 254/414/310 25/32/31 60/150/80
f 346/534/425 455/397/540 347/537/427
f 125/72/170 128/23/173 168/70/214
f 310/481/379 60/128/80 232/128/286
f 123/45/168 128/23/173 125/72/170
f 309/482/378 60/128/80 310/481/379
f 241/388/295 183/198/233 97/192/135
f 243/389/297 204/128/257 198/128/250
f 204/217/257 243/390/297 205/216/258
f 242/391/296 203/128/256 243/389/297
f 244/392/298 205/216/258 243/390/297
f 244/394/299 4/169/5 209/170/262
f 47/243/64 225/244/279 245/395/300
f 246/396/301 198/196/251 110/56/150
f 443/128/528 455/397/540 346/534/425
f 208/201/261 247/398/303 429/224/514
f 347/536/427 247/399/303 346/142/425
f 253/406/309 67/84/94 156/80/201
f 93/206/131 250/403/306 89/191/127
f 250/403/306 93/206/131 64/202/89
f 40/102/56 95/183/133 249/401/305
f 65/76/91 86/273/124 105/77/143
f 220/197/274 219/274/273 91/37/129
f 222/199/276 86/273/124 65/76/91
f 220/197/274 86/273/124 219/274/273
f 219/274/273 103/38/141 91/37/129
f 105/77/143 86/273/124 220/197/274
f 222/199/276 221/272/275 86/273/124
f 98/88/136 221/272/275 222/199/276
f 288/1/353 287/1/349 336/512/408
f 460/1/545 459/1/544 290/1/357
f 290/1/357 180/1/230 460/1/545
f 460/1/545 293/1/360 437/1/522
f 473/510/558 456/1/541 452/1/537
f 445/377/530 234/775/288 453/378/538
f 495/1/580 388/1/470 493/1/578
f 180/376/230 291/469/358 288/463/352
f 496/605/581 380/1/462 489/1/574
f 291/469/358 287/460/350 464/470/549
f 288/464/353 334/509/406 287/458/349
f 287/460/350 461/461/546 464/470/549
f 234/775/288 289/465/354 334/509/406
f 445/377/530 499/773/584 234/775/288
f 499/773/584 462/459/547 289/465/354
f 328/500/399 327/499/398 435/375/520
f 435/375/520 466/475/551 328/500/399
f 196/144/248 344/528/421 346/535/426
f 346/535/426 344/528/421 347/538/428
f 347/539/428 455/397/540 477/526/562
f 347/538/428 247/399/303 347/536/427
f 347/537/427 455/397/540 347/539/428
f 188/128/239 215/128/269 414/610/499
f 353/547/435 96/180/134 216/167/270
f 353/548/435 216/128/270 85/128/123
f 328/500/399 466/475/551 328/501/400
f 436/375/521 298/478/367 288/462/352
f 320/1/391 296/1/363 470/494/555
f 324/496/395 471/497/556 457/1/542
f 210/179/263 417/614/502 84/166/122
f 478/530/563 348/541/430 434/142/519
f 478/530/563 348/540/429 348/541/430
f 174/141/223 344/529/422 348/540/429
f 344/529/422 196/144/248 346/535/426
f 434/142/519 348/541/430 346/535/426
f 348/541/430 344/529/422 346/535/426
f 348/540/429 478/530/563 433/143/518
f 348/541/430 348/540/429 344/529/422
f 338/517/412 430/370/515 342/525/419
f 356/551/438 430/370/515 338/517/412
f 338/517/412 342/525/419 173/369/221
f 474/516/559 442/368/527 341/524/418
f 342/525/419 430/370/515 474/516/559
f 474/516/559 341/524/418 173/369/221
f 481/552/566 430/370/515 356/551/438
f 342/525/419 474/516/559 173/369/221
f 174/141/223 341/523/417 339/521/415
f 341/523/417 173/369/221 339/521/415
f 442/368/527 475/520/560 339/521/415
f 339/521/415 173/369/221 341/524/418
f 339/521/415 479/532/564 174/141/223
f 339/521/415 341/524/418 442/368/527
f 344/529/422 479/532/564 196/144/248
f 174/141/223 479/532/564 344/529/422
f 339/521/415 475/520/560 479/532/564
f 362/555/444 367/562/449 172/371/219
f 356/551/438 362/555/444 481/554/566
f 362/555/444 482/553/567 481/554/566
f 362/555/444 356/551/438 367/562/449
f 369/565/451 362/564/444 172/362/219
f 495/594/580 386/592/468 369/565/451
f 329/502/401 296/474/363 328/501/400
f 398/606/481 378/1/460 496/605/581
f 472/508/557 288/464/353 448/380/533
f 332/506/404 326/498/397 327/499/398
f 332/506/404 437/375/522 293/471/360
f 496/605/581 378/1/460 380/1/462
f 491/581/576 398/606/481 496/605/581
f 489/1/574 454/1/539 492/582/577
f 386/588/468 362/1/444 369/1/451
f 386/1/468 495/1/580 483/1/568
f 326/498/397 298/478/367 298/477/366
f 326/498/397 332/506/404 293/471/360
f 296/474/363 320/492/391 328/501/400
f 296/474/363 329/502/401 300/480/369
f 294/472/361 300/480/369 329/502/401
f 328/501/400 320/492/391 328/500/399
f 466/475/551 468/479/553 328/501/400
f 467/476/552 328/500/399 197/375/249
f 448/1/533 336/512/408 473/510/558
f 473/510/558 336/512/408 456/1/541
f 456/1/541 336/512/408 458/1/543
f 336/512/408 287/1/349 458/1/543
f 179/1/229 398/606/481 491/581/576
f 378/1/460 447/1/532 380/580/462
f 291/469/358 464/470/549 436/379/521
f 287/459/350 290/468/357 287/458/349
f 180/376/230 290/460/357 291/469/358
f 472/508/557 334/509/406 288/464/353
f 463/1/548 458/1/543 287/1/349
f 483/1/568 362/1/444 386/588/468
f 287/460/350 289/377/354 462/466/547
f 489/1/574 492/582/577 431/1/516
f 380/580/462 454/1/539 489/1/574
f 362/1/444 483/1/568 482/1/567
f 454/1/539 380/580/462 447/1/532
f 516/808/603 367/562/449 356/551/438
f 515/807/602 349/543/431 367/562/449
f 350/544/432 356/551/438 338/517/412
f 516/808/603 515/807/602 367/562/449
f 498/613/583 350/544/432 432/372/517
f 432/372/517 351/545/433 476/522/561
f 350/544/432 338/517/412 173/369/221
f 446/373/531 349/543/431 485/563/570
f 350/544/432 498/613/583 516/808/603
f 348/540/429 476/522/561 351/545/433
f 174/141/223 348/540/429 351/545/433
f 351/545/433 350/544/432 173/369/221
f 341/523/417 351/545/433 173/369/221
f 341/523/417 174/141/223 351/545/433
f 432/372/517 350/544/432 351/545/433
f 349/543/431 172/371/219 367/562/449
f 350/544/432 516/808/603 356/551/438
f 433/143/518 476/522/561 348/540/429
f 378/578/460 398/607/481 514/806/601
f 388/593/470 495/594/580 369/565/451
f 369/565/451 370/566/452 388/593/470
f 388/591/470 171/364/218 493/589/578
f 171/364/218 388/591/470 370/367/452
f 171/364/218 494/590/579 493/589/578
f 494/590/579 171/364/218 371/567/453
f 179/360/229 383/584/465 384/585/466
f 384/585/466 371/567/453 179/360/229
f 447/357/532 378/578/460 486/572/571
f 370/367/452 511/802/598 171/576/218
f 511/802/598 371/574/453 171/576/218
f 371/361/453 511/575/598 512/803/599
f 512/804/599 373/568/455 371/574/453
f 497/608/582 490/579/575 513/805/600
f 373/364/455 487/573/572 441/366/526
f 398/607/481 179/358/229 513/805/600
f 513/805/600 490/579/575 514/806/601
f 371/574/453 373/568/455 179/360/229
f 514/806/601 490/579/575 486/572/571
f 513/805/600 179/358/229 373/570/455
f 441/367/526 497/608/582 373/570/455
f 480/550/565 485/563/570 515/807/602
f 498/613/583 480/550/565 516/808/603
f 480/550/565 515/807/602 516/808/603
f 370/361/452 369/561/451 510/801/597
f 446/365/531 484/560/569 349/542/431
f 497/608/582 513/805/600 373/570/455
f 369/561/451 172/362/219 349/542/431
f 349/542/431 510/800/596 369/561/451
f 485/563/570 349/543/431 515/807/602
f 514/806/601 398/607/481 513/805/600
f 511/361/598 510/801/597 488/575/573
f 490/579/575 439/359/524 486/572/571
f 378/578/460 514/806/601 486/572/571
f 510/800/596 440/363/525 510/801/597
f 287/459/350 291/376/358 290/468/357
f 453/378/538 334/509/406 472/508/557
f 471/497/556 324/496/395 323/1/394
f 334/509/406 289/465/354 287/458/349
f 300/1/369 294/1/361 324/496/395
f 457/1/542 470/1/555 300/1/369
f 296/1/363 300/1/369 470/1/555
f 502/786/587 372/569/454 49/128/66
f 130/195/175 110/56/150 374/571/456
f 382/583/464 246/396/301 110/56/150
f 405/609/489 213/226/266 184/228/235
f 414/610/499 215/128/269 415/128/500
f 415/611/500 354/549/436 353/547/435
f 467/1/552 320/1/391 470/494/555
f 425/375/510 323/495/394 331/505/403
f 502/786/587 51/128/68 503/787/588
f 195/128/247 372/569/454 502/786/587
f 195/128/247 503/787/588 206/128/259
f 503/788/588 207/220/260 206/222/259
f 207/220/260 503/788/588 504/789/589
f 194/218/246 207/219/260 504/790/589
f 505/791/590 203/128/256 242/391/296
f 74/162/107 203/215/256 505/792/590
f 349/542/431 484/560/569 510/800/596
f 484/560/569 440/363/525 510/800/596
f 510/801/597 369/561/451 510/800/596
f 510/801/597 440/363/525 488/575/573
f 370/367/452 510/570/597 511/802/598
f 488/570/573 512/574/599 511/802/598
f 512/803/599 488/575/573 487/573/572
f 487/570/572 373/568/455 512/804/599
g fff08519_00177_0033f02e_e3
f 60/150/80 218/265/272 59/62/79
f 244/393/298 83/161/121 244/394/299
f 61/157/82 74/53/108 77/134/112
f 77/134/112 74/53/108 75/52/109
f 79/155/115 76/156/111 75/152/110
f 75/152/110 76/156/111 77/135/113
f 77/135/113 77/134/112 75/52/109
f 75/152/110 77/135/113 75/52/109
f 41/94/57 33/264/46 40/102/56
f 33/264/46 41/94/57 34/184/47
f 39/182/55 35/137/50 35/174/49
f 34/184/47 39/182/55 39/176/54
f 31/103/43 29/173/40 31/136/42
f 34/184/47 39/176/54 33/264/46
f 31/136/42 35/174/49 35/137/50
f 205/236/258 209/170/262 84/166/122
f 205/236/258 244/393/298 244/394/299
f 267/1/328 274/1/336 325/497/396
f 357/1/439 361/1/443 187/1/238
f 224/279/278 181/280/231 72/270/104
f 29/173/40 31/103/43 30/178/41
f 61/1/85 357/1/439 187/1/238
f 72/270/104 61/189/85 187/278/238
f 187/278/238 224/279/278 72/270/104
f 394/600/477 224/1/278 363/1/445
f 394/601/477 363/557/445 391/595/473
f 181/1/231 224/1/278 394/600/477
f 72/128/104 181/128/231 72/128/103
f 361/1/443 363/1/445 224/1/278
f 224/1/278 187/1/238 361/1/443
f 110/56/150 121/47/166 115/97/156
f 121/47/166 117/130/159 115/97/156
f 92/205/130 250/403/306 64/202/89
f 250/403/306 92/205/130 89/191/127
f 64/202/89 66/133/93 92/205/130
f 66/92/92 68/91/95 68/87/96
f 66/92/92 62/89/86 68/91/95
f 66/92/92 66/133/93 62/89/86
f 66/133/93 64/202/89 62/89/86
f 95/183/133 61/190/83 94/187/132
f 68/87/96 68/91/95 67/81/94
f 61/190/83 67/84/94 94/187/132
f 70/73/99 68/87/96 67/81/94
f 70/79/100 67/84/94 61/190/83
f 70/73/99 67/84/94 70/79/100
f 205/236/258 244/394/299 209/170/262
f 29/173/40 35/174/49 31/136/42
f 39/176/54 39/182/55 35/174/49
f 72/128/103 181/128/231 221/128/275
f 267/1/328 325/497/396 46/1/63
f 282/1/344 423/783/508 178/1/228
f 218/265/272 58/101/78 59/62/79
f 81/164/118 80/163/117 82/121/119
f 83/161/121 82/266/120 81/164/118
f 82/121/119 83/161/121 81/164/118
f 61/157/82 82/121/119 80/163/117
f 61/157/82 80/163/117 74/53/108
f 134/209/179 138/207/183 137/149/182
f 82/266/120 83/161/121 244/393/298
f 50/55/67 51/221/68 49/267/66
f 48/268/65 55/269/72 54/154/71
f 50/55/67 49/267/66 48/268/65
f 73/165/106 51/221/68 50/55/67
f 55/269/72 53/153/70 54/154/71
f 48/268/65 54/154/71 52/54/69
f 73/165/106 74/162/107 51/221/68
f 52/54/69 50/55/67 48/268/65
f 279/445/341 272/435/333 268/436/329
f 275/443/337 268/436/329 280/446/342
f 272/437/334 280/446/342 268/436/329
f 267/434/328 279/445/341 274/444/336
f 279/445/341 267/434/328 272/435/333
f 285/454/347 321/493/392 275/443/337
f 263/430/324 273/442/335 272/437/334
f 273/442/335 263/430/324 266/433/327
f 240/259/294 271/441/332 273/442/335
f 225/244/279 268/436/329 272/435/333
f 272/435/333 245/395/300 225/244/279
f 268/436/329 225/244/279 272/437/334
f 286/457/348 280/446/342 281/451/343
f 263/430/324 272/437/334 225/244/279
f 46/241/63 272/435/333 267/434/328
f 272/435/333 46/241/63 245/395/300
f 278/450/340 284/456/346 286/457/348
f 286/457/348 281/451/343 278/450/340
f 275/443/337 282/452/344 285/454/347
f 321/493/392 279/445/341 275/443/337
f 282/452/344 275/443/337 286/453/348
f 280/446/342 286/453/348 275/443/337
f 272/437/334 281/451/343 280/446/342
f 281/451/343 272/437/334 273/442/335
f 271/441/332 278/450/340 281/451/343
f 281/451/343 273/442/335 271/441/332
f 268/436/329 275/443/337 279/445/341
f 279/1/341 321/1/392 274/1/336
f 322/1/393 274/1/336 321/1/392
f 321/1/392 285/1/347 322/494/393
f 278/450/340 271/441/332 270/440/331
f 270/440/331 277/449/339 278/450/340
f 284/456/346 278/450/340 277/449/339
f 277/449/339 283/455/345 284/456/346
f 282/1/344 178/1/228 285/1/347
f 177/1/227 286/1/348 284/1/346
f 177/1/227 282/1/344 286/1/348
f 282/1/344 177/1/227 423/783/508
f 273/442/335 266/433/327 240/259/294
f 237/262/291 270/440/331 271/441/332
f 271/441/332 240/259/294 237/262/291
f 233/248/287 269/438/330 270/439/331
f 270/439/331 237/263/291 233/248/287
f 269/438/330 276/447/338 277/448/339
f 277/448/339 270/439/331 269/438/330
f 290/467/356 283/1/345 277/1/339
f 276/1/338 290/467/356 277/1/339
f 377/577/459 182/128/232 396/604/479
f 365/558/447 182/275/232 395/602/478
f 365/558/447 395/602/478 392/598/475
f 395/602/478 394/601/477 392/598/475
f 396/604/479 385/587/467 364/556/446
f 385/586/467 365/558/447 364/559/446
f 396/604/479 182/128/232 385/587/467
f 395/602/478 182/275/232 223/276/277
f 392/598/475 394/601/477 391/595/473
f 182/275/232 365/558/447 385/586/467
f 392/1/474 393/1/476 387/1/469
f 377/1/459 396/603/479 397/605/480
f 381/581/463 397/605/480 364/1/446
f 322/494/393 285/1/347 297/1/365
f 365/1/447 392/596/474 364/1/446
f 389/1/471 381/1/463 364/1/446
f 390/1/472 393/599/476 391/1/473
f 365/1/447 392/597/475 392/1/474
f 392/597/475 391/1/473 393/599/476
f 393/599/476 392/1/474 392/597/475
f 396/603/479 364/1/446 397/605/480
f 297/1/365 285/1/347 178/1/228
f 387/1/469 389/1/471 392/1/474
f 390/1/472 387/1/469 393/1/476
f 392/596/474 389/1/471 364/1/446
f 391/1/473 363/1/445 390/1/472
f 394/601/477 395/602/478 181/277/231
f 103/128/141 182/128/232 377/577/459
f 86/273/124 223/276/277 182/275/232
f 181/277/231 86/273/124 221/272/275
f 86/273/124 181/277/231 223/276/277
f 182/128/232 103/128/141 219/128/273
f 395/602/478 223/276/277 181/277/231
f 182/275/232 219/274/273 86/273/124
f 30/1/41 46/1/63 325/497/396
g fff08519_00177_0033f02e_e7
f 171/353/217 149/356/194 235/354/289
f 171/353/217 235/354/289 236/355/290
f 236/352/290 235/261/289 239/260/293
f 239/260/293 238/351/292 236/352/290
f 265/432/326 264/431/325 47/243/64
f 47/243/64 170/304/216 265/432/326
f 238/351/292 239/260/293 264/431/325
f 264/431/325 265/432/326 238/351/292
f 90/327/128 251/404/307 161/330/206
f 90/327/128 93/286/131 251/404/307
f 252/405/308 155/316/200 253/407/309
f 69/324/98 253/407/309 156/323/201
f 164/348/209 116/350/157 110/349/149
f 111/347/151 164/348/209 110/349/149
f 120/345/164 120/346/163 118/343/160
f 118/343/160 119/344/161 120/345/164
f 112/290/152 113/302/153 114/341/155
f 112/290/152 114/341/155 163/342/208
f 155/316/200 61/317/84 249/402/305
f 154/318/199 249/402/305 248/400/304
f 37/315/52 36/335/51 32/310/44
f 36/335/51 38/336/53 32/310/44
f 111/292/151 110/293/149 112/290/152
f 151/333/196 169/306/215 32/334/45
f 107/300/145 161/331/206 162/332/207
f 107/300/145 104/329/142 161/331/206
f 136/288/181 165/294/210 133/295/178
f 104/329/142 90/327/128 161/330/206
f 251/404/307 89/328/127 161/330/206
f 251/404/307 93/286/131 89/328/127
f 90/327/128 65/128/90 93/286/131
f 65/128/90 160/281/205 159/282/204
f 65/128/90 88/283/126 160/281/205
f 158/284/203 88/283/126 63/285/87
f 162/326/207 114/301/155 107/300/145
f 69/324/98 252/405/308 253/407/309
f 69/325/98 156/322/201 69/321/97
f 61/317/84 155/316/200 252/405/308
f 157/320/202 69/321/97 156/322/201
f 154/318/199 248/400/304 42/319/59
f 249/402/305 61/317/84 248/400/304
f 120/287/164 165/294/210 136/288/181
f 158/284/203 160/281/205 88/283/126
f 34/309/48 38/311/53 152/312/197
f 169/306/215 36/308/51 37/315/52
f 41/313/58 152/312/197 153/314/198
f 152/312/197 41/313/58 34/309/48
f 34/309/48 32/310/44 38/311/53
f 169/306/215 151/307/196 36/308/51
f 169/306/215 45/303/62 150/242/195
f 150/242/195 32/305/45 169/306/215
f 170/304/216 47/243/64 45/303/62
f 45/303/62 47/243/64 150/242/195
f 107/300/145 114/301/155 113/302/153
f 112/290/152 163/291/208 111/292/151
f 119/296/161 118/297/160 116/298/157
f 116/298/157 164/299/209 119/296/161
f 93/286/131 65/128/90 159/282/204
f 120/287/164 136/288/181 120/289/163
g fff08519_00177_0033f02e_e10
f 404/688/488 401/696/484 403/686/486
f 401/696/484 404/688/488 406/697/490
f 401/696/484 406/697/490 402/698/485
f 410/704/495 407/705/491 412/706/497
f 407/705/491 410/704/495 411/707/496
f 311/762/380 315/763/384 314/764/383
f 313/765/382 302/766/371 308/767/377
f 315/763/384 311/762/380 305/768/374
f 302/766/371 315/763/384 305/768/374
f 302/766/371 313/765/382 315/763/384
g fff08519_00177_0033f02e_e9
f 299/745/368 312/734/381 295/736/362
f 191/708/242 317/709/387 372/710/454
f 317/757/386 192/758/243 421/776/506
f 185/653/236 366/654/448 403/655/487
f 307/1/376 316/486/385 313/484/382
f 190/381/241 201/384/254 200/383/253
f 200/408/253 507/795/592 508/796/593
f 200/408/253 508/796/593 190/411/241
f 507/795/592 200/408/253 506/793/591
f 200/408/253 191/413/242 506/793/591
f 85/656/123 405/657/489 404/658/488
f 319/491/389 317/489/387 319/1/390
f 309/754/378 418/769/503 193/756/244
f 319/760/390 317/761/387 191/708/242
f 190/615/241 509/798/595 242/623/296
f 174/625/222 345/626/423 198/627/250
f 190/381/241 202/382/255 201/384/254
f 311/731/380 312/734/381 297/732/364
f 509/797/594 509/799/595 190/411/241
f 174/625/222 198/627/250 188/630/239
f 85/638/123 358/636/440 352/639/434
f 355/637/437 358/636/440 359/640/441
f 340/631/416 360/632/442 172/633/220
f 175/628/224 343/629/420 198/627/250
f 299/745/368 297/732/364 312/734/381
f 241/659/295 407/660/491 183/661/233
f 404/658/488 359/675/441 85/656/123
f 184/646/234 379/651/461 410/644/495
f 184/646/234 413/663/498 412/676/497
f 190/624/241 242/620/296 198/616/250
f 246/617/302 190/621/241 198/616/250
f 316/744/385 307/741/376 289/742/355
f 420/774/505 193/743/244 418/770/503
f 308/726/377 292/728/359 287/737/351
f 287/737/351 307/741/376 306/738/375
f 307/741/376 287/737/351 289/742/355
f 303/740/372 305/733/374 304/730/373
f 301/739/370 305/733/374 303/740/372
f 305/733/374 301/739/370 302/729/371
f 176/727/226 302/729/371 301/739/370
f 287/737/351 306/738/375 308/726/377
f 312/734/381 319/735/389 295/736/362
f 305/752/374 311/731/380 304/753/373
f 176/751/225 311/731/380 297/732/364
f 176/749/226 308/726/377 302/750/371
f 308/726/377 176/748/226 292/728/359
f 309/725/378 310/719/379 419/771/504
f 314/724/383 229/720/283 317/722/386
f 315/715/384 231/717/285 314/724/383
f 232/723/286 231/717/285 313/716/382
f 231/717/285 229/720/283 314/724/383
f 313/716/382 310/719/379 232/723/286
f 229/720/283 192/721/243 317/722/386
f 316/718/385 310/719/379 313/716/382
f 315/715/384 313/716/382 231/717/285
f 406/702/490 407/692/491 402/703/485
f 360/632/442 414/634/499 416/635/501
f 408/695/492 404/701/488 403/687/487
f 192/712/243 372/710/454 317/709/387
f 295/736/362 319/735/389 319/746/390
f 318/713/388 319/711/390 191/708/242
f 295/736/362 319/746/390 318/747/388
f 312/1/381 311/1/380 314/485/383
f 314/485/383 317/488/386 312/1/381
f 174/625/222 188/630/239 340/631/416
f 312/483/381 317/487/386 319/491/389
f 317/487/386 421/777/506 319/491/389
f 308/1/377 306/1/375 313/484/382
f 343/618/420 246/617/302 198/616/250
f 345/626/423 175/628/224 198/627/250
f 352/639/434 358/636/440 416/635/501
f 307/1/376 313/484/382 306/1/375
f 414/634/499 360/632/442 188/630/239
f 85/638/123 359/640/441 358/636/440
f 368/641/450 409/642/494 194/643/245
f 409/684/493 409/666/494 359/662/441
f 340/631/416 188/630/239 360/632/442
f 366/681/448 400/667/483 408/682/492
f 355/637/437 359/640/441 368/641/450
f 372/710/454 506/794/591 191/708/242
f 375/669/457 401/652/484 186/647/237
f 376/670/458 185/653/236 403/655/487
f 409/684/493 194/685/245 409/666/494
f 366/683/448 194/671/245 400/667/483
f 403/655/487 366/654/448 408/668/492
f 376/670/458 403/672/486 375/669/457
f 375/669/457 403/672/486 401/652/484
f 376/670/458 403/655/487 403/672/486
f 403/700/486 403/687/487 404/701/488
f 404/658/488 184/673/235 406/674/490
f 368/641/450 359/640/441 409/642/494
f 405/657/489 184/673/235 404/658/488
f 406/674/490 184/673/235 407/660/491
f 400/667/483 194/671/245 409/665/493
f 407/660/491 184/673/235 183/661/233
f 184/646/234 410/645/495 413/663/498
f 184/646/234 412/677/497 422/678/507
f 412/664/497 407/660/491 241/659/295
f 352/639/434 416/635/501 414/634/499
f 186/647/237 402/648/485 399/649/482
f 402/648/485 411/650/496 399/649/482
f 399/649/482 410/679/495 379/680/461
f 186/647/237 401/652/484 402/648/485
f 399/649/482 411/650/496 410/679/495
f 412/689/497 413/690/498 410/691/495
f 411/699/496 402/703/485 407/692/491
f 359/693/441 404/701/488 409/694/493
f 409/694/493 404/701/488 400/695/483
f 400/695/483 404/701/488 408/695/492
f 360/632/442 416/635/501 172/633/220
f 358/636/440 355/637/437 416/635/501
f 289/742/355 420/774/505 418/770/503
f 419/772/504 316/755/385 418/769/503
f 419/771/504 310/719/379 316/718/385
f 289/742/355 418/770/503 316/744/385
f 309/754/378 419/772/504 418/769/503
f 421/776/506 192/758/243 317/759/387
f 421/777/506 317/489/387 319/491/389
f 422/778/507 517/779/604 184/780/234
f 379/781/461 184/780/234 517/779/604
f 507/795/592 506/793/591 195/412/247
f 372/710/454 195/714/247 506/794/591
f 507/795/592 206/409/259 207/410/260
f 206/409/259 507/795/592 195/412/247
f 508/796/593 507/795/592 207/410/260
f 508/796/593 509/797/594 190/411/241
f 207/410/260 194/619/246 509/797/594
f 508/796/593 207/410/260 509/797/594
f 509/798/595 194/622/246 242/623/296
f 509/797/594 194/619/246 509/799/595
g fff08519_00177_0033f02e_e8
f 63/337/87 69/338/97 158/339/203
f 158/339/203 69/338/97 157/340/202
f 153/385/198 154/387/199 42/386/59
f 41/313/58 153/385/198 42/386/59
