# fff0af20_00182_0057a928
o fff0af20_00182_0057a928
v 10.741907 2.737245 0.984338
v 9.340807 4.310731 1.123647
v 10.040857 3.385530 1.509721
v 9.559427 1.928498 0.915791
v 9.707170 2.385652 1.607993
v 9.786776 1.682740 1.595874
v 9.920298 1.585938 0.604810
v 9.753206 2.278932 0.666387
v 9.096277 3.367127 1.745680
v 8.424364 3.436372 1.818068
v 8.216181 3.706697 0.544018
v 8.908175 3.525270 0.528220
v 8.485018 3.433412 1.011417
v 10.121668 2.136750 1.080204
v 9.919992 2.375215 1.836392
v 10.492182 2.497468 1.035286
v 9.030710 2.389283 1.193465
v 8.426775 3.043275 1.014419
v 9.151896 2.479005 2.265088
v 9.068178 2.420564 1.731748
v 9.548502 2.821107 2.078394
v 9.933512 3.189088 1.997542
v 10.199060 2.731324 1.864358
v 8.416246 3.377442 1.107395
v 8.742922 3.697877 1.218424
v 9.058451 4.021302 1.168406
v 9.341883 3.650025 1.904909
v 9.018770 3.363893 1.906163
v 9.234049 2.519288 1.884971
v 9.508799 2.065614 1.664098
v 9.808535 1.845795 0.960411
v 8.707636 3.005158 1.835862
v 9.989786 3.638429 0.933174
v 10.218881 3.762330 1.433448
v 10.192270 3.545045 2.203721
v 9.821451 3.148469 2.194382
v 8.625895 2.808351 1.126449
v 9.352617 4.032990 1.969730
v 10.486650 2.500581 1.738740
v 10.059130 2.132142 1.606954
v 9.925379 1.856751 0.903868
v 9.234095 2.169435 0.707420
v 9.223276 3.223817 2.085890
v 9.376070 2.213380 1.791541
v 9.754053 2.577119 1.993722
v 8.710466 3.603364 1.679786
v 8.763147 2.795686 1.933254
v 10.366953 2.582246 0.568229
v 10.702944 2.242219 0.644400
v 10.533213 2.320863 1.647022
v 10.129732 2.732392 1.520015
v 8.618998 3.862641 0.557188
v 10.339556 2.296510 0.418692
v 10.064341 2.858491 1.982430
v 9.092234 2.612550 2.200923
v 8.825907 2.312348 1.804630
v 8.787683 2.221742 1.009916
v 9.151911 2.586427 0.839021
v 9.914080 3.468751 1.943411
v 9.650087 3.105622 2.284816
v 10.540880 2.566682 0.930113
v 9.457521 3.607575 1.577293
v 9.000231 4.053315 1.664381
v 8.810091 4.322907 0.758947
v 9.319132 3.821992 0.714630
v 9.619440 1.997132 0.391701
v 8.471743 2.883332 0.469984
v 9.584330 2.248902 1.870473
v 8.873041 2.808381 1.957019
v 9.580866 4.044526 0.573846
v 10.612368 3.029511 0.484043
v 9.495600 3.576234 1.993021
v 10.399827 3.161592 1.153552
v 9.904627 3.564790 1.068329
v 8.889063 2.630311 -0.034712
v 8.888552 2.540345 0.976680
v 9.905115 3.654786 0.056938
v 8.544436 3.857331 1.083237
v 8.538462 3.356599 1.808745
v 8.966059 3.742494 1.744495
v 8.887354 4.038667 1.092291
v 9.717737 3.983216 0.646500
v 9.801546 2.583344 2.023990
v 9.648966 3.627809 1.935622
v 9.270777 3.226563 2.154922
v 10.314814 2.281404 1.557757
v 10.261812 3.031648 1.949787
v 10.214403 2.304536 -0.073496
v 10.213915 2.214540 0.937896
v 8.544947 3.947328 0.071845
v 10.038256 2.348359 1.806862
v 9.736719 2.611909 2.204005
v 9.167582 3.168733 2.289536
v 9.071932 3.309724 1.773934
v 19.085442 -4.937517 0.984333
v 17.035217 -4.452257 1.123641
v 18.139320 -4.808580 1.509716
v 18.580688 -6.278276 0.915785
v 18.439499 -5.819017 1.607987
v 18.907883 -6.349169 1.595868
v 19.072784 -6.351885 0.604804
v 18.538406 -5.880022 0.666382
v 17.376137 -5.365465 1.745674
v 16.786026 -5.694139 1.818063
v 16.460434 -5.592089 0.544012
v 17.131317 -5.343767 0.528214
v 16.837410 -5.661760 1.011411
v 18.921791 -5.785143 1.080199
v 18.619789 -5.705492 1.836387
v 19.018394 -5.277178 1.035280
v 17.883301 -6.204058 1.193460
v 17.013466 -6.014757 1.014414
v 17.931099 -6.061052 2.265083
v 17.896034 -6.156939 1.731743
v 18.059753 -5.553331 2.078389
v 18.164055 -5.031054 1.997536
v 18.644157 -5.253740 1.864352
v 16.813164 -5.747057 1.107390
v 16.896980 -5.297197 1.218419
v 16.969933 -4.851274 1.168401
v 17.415054 -4.992846 1.904904
v 17.314499 -5.412554 1.906158
v 17.975281 -5.980913 1.884966
v 18.460571 -6.194963 1.664092
v 18.832153 -6.203112 0.960406
v 17.265388 -5.884874 1.835856
v 17.952438 -4.630724 0.933169
v 18.069038 -4.397814 1.433443
v 18.171860 -4.591051 2.203715
v 18.095581 -5.128618 2.194377
v 17.311325 -6.092974 1.126444
v 17.204178 -4.672960 1.969725
v 19.012100 -5.277819 1.738734
v 18.873207 -5.824816 1.606948
v 18.921623 -6.127123 0.903862
v 18.175980 -6.267473 0.707415
v 17.562363 -5.409990 2.085884
v 18.267082 -6.150042 1.791535
v 18.368080 -5.635302 1.993716
v 16.924599 -5.393236 1.679780
v 17.431023 -6.024645 1.933249
v 18.867203 -5.279558 0.568224
v 19.337463 -5.365374 0.644395
v 19.153313 -5.398302 1.647016
v 18.586754 -5.292620 1.520009
v 16.700958 -5.233324 0.557183
v 19.008644 -5.529345 0.418687
v 18.460869 -5.226854 1.982424
v 17.805634 -5.985888 2.200918
v 17.759651 -6.384539 1.804624
v 17.780319 -6.480700 1.009910
v 17.869484 -5.973040 0.839016
v 17.987732 -4.813128 1.943406
v 17.979767 -5.262011 2.284810
v 19.018593 -5.192553 0.930108
v 17.534142 -4.961290 1.577287
v 16.903862 -4.858446 1.664376
v 16.593491 -4.746660 0.758942
v 17.297783 -4.865007 0.714625
v 18.590477 -6.187609 0.391695
v 17.142036 -6.119982 0.469978
v 18.417305 -6.001513 1.870467
v 17.513748 -5.951189 1.957013
v 17.384521 -4.532579 0.573840
v 18.811691 -4.772417 0.484038
v 17.583282 -4.965105 1.993016
v 18.561821 -4.786119 1.153546
v 17.924927 -4.739885 1.068324
v 17.629021 -6.087877 -0.034717
v 17.680199 -6.161852 0.976674
v 17.873695 -4.665880 0.056932
v 16.642906 -5.280413 1.083232
v 16.925232 -5.694017 1.808739
v 17.054146 -5.132647 1.744489
v 16.819817 -4.935198 1.092285
v 17.531822 -4.504320 0.646494
v 18.403404 -5.602953 2.023984
v 17.679337 -4.834887 1.935616
v 17.599686 -5.380480 2.154916
v 18.997047 -5.555895 1.557751
v 18.523293 -4.971727 1.949781
v 18.901512 -5.594530 -0.073502
v 18.952744 -5.668535 0.937890
v 16.591713 -5.206408 0.071840
v 18.732094 -5.659655 1.806857
v 18.333931 -5.616747 2.204000
v 17.548325 -5.487047 2.289531
v 17.389107 -5.426409 1.773929
v -21.189850 10.558311 1.191013
v -20.192265 12.406331 0.972192
v -20.800539 11.512996 1.544125
v -22.359324 11.373906 1.035861
v -21.848629 11.505497 1.693027
v -22.480625 11.195119 1.762426
v -22.569839 10.872721 0.815056
v -21.975079 11.269254 0.782902
v -21.133303 12.422720 1.643973
v -21.297089 13.081274 1.612789
v -21.172819 13.150906 0.301555
v -21.104660 12.445794 0.402498
v -21.315197 12.888718 0.827316
v -21.962551 10.949417 1.257007
v -21.774668 11.342908 1.949265
v -21.498524 10.718510 1.229544
v -22.097416 12.064679 1.188218
v -21.700861 12.813103 0.860845
v -21.923300 12.161973 2.251859
v -22.030937 12.130684 1.720532
v -21.474064 11.876870 2.090343
v -20.999781 11.628899 2.028826
v -21.343241 11.207537 1.981035
v -21.387058 12.949959 0.917623
v -20.968933 12.772410 1.041523
v -20.559025 12.579224 1.004931
v -20.776144 12.315926 1.807540
v -21.155836 12.520470 1.791314
v -21.874228 12.035433 1.885190
v -22.214613 11.592159 1.751941
v -22.348799 11.122763 1.123471
v -21.602726 12.677624 1.713554
v -20.607014 11.548088 0.943884
v -20.389252 11.460764 1.456806
v -20.567524 11.542175 2.233229
v -21.067749 11.752294 2.210790
v -21.847330 12.568794 1.022894
v -20.410490 12.444640 1.834758
v -21.465940 10.842676 1.921219
v -21.964806 11.094246 1.767318
v -22.300774 11.008512 1.083318
v -22.255123 11.721175 0.760377
v -21.208483 12.314178 2.011351
v -22.116169 11.785982 1.843845
v -21.635632 11.590572 2.060496
v -21.047995 12.848375 1.500671
v -21.775574 12.572577 1.838231
v -21.483305 10.784611 0.743330
v -21.682653 10.372234 0.900007
v -21.622425 10.724125 1.855415
v -21.381668 11.214382 1.631960
v -20.886992 12.831391 0.356295
v -21.767326 10.689625 0.620627
v -21.265255 11.394714 2.065485
v -21.821587 12.251085 2.166883
v -22.212769 12.331537 1.768624
v -22.346607 12.203482 0.989571
v -21.886663 11.958607 0.836757
v -20.746775 11.731151 1.944905
v -21.162968 11.912142 2.279739
v -21.421562 10.678771 1.126007
v -20.790722 12.139590 1.505579
v -20.526808 12.727105 1.481897
v -20.380453 12.841568 0.536325
v -20.676292 12.194807 0.614979
v -22.297791 11.253268 0.521429
v -21.859755 12.626720 0.347006
v -22.007469 11.617823 1.947667
v -21.724651 12.478875 1.875996
v -20.383604 12.002611 0.491399
v -20.983046 10.692049 0.650783
v -20.788261 12.163500 1.923528
v -20.902512 11.045558 1.266735
v -20.699356 11.625143 1.072211
v -21.975565 12.070520 -0.065460
v -22.014601 12.210635 0.939453
v -20.660275 11.485116 0.067287
v -20.894016 12.987075 0.864273
v -21.332893 12.947241 1.627782
v -20.826397 12.668554 1.586893
v -20.605244 12.730974 0.903904
v -20.390562 11.867386 0.588524
v -21.612015 11.553682 2.096436
v -20.689552 12.028852 1.883678
v -21.186401 12.282612 2.085815
v -21.738842 10.898598 1.740373
v -21.036190 11.263793 2.044181
v -21.825092 10.725858 0.117310
v -21.864201 10.865944 1.122235
v -20.854958 12.846983 -0.140646
v -21.760361 11.219237 1.939685
v -21.599552 11.653540 2.261654
v -21.270184 12.381605 2.209465
v -21.194225 12.430895 1.674051
v -20.163967 7.545460 0.954369
v -22.217945 8.034504 0.936888
v -21.140400 7.704762 1.411498
v -20.666058 6.202076 0.937602
v -20.848782 6.702839 1.590167
v -20.381557 6.173879 1.639631
v -20.155872 6.110401 0.662669
v -20.692142 6.584126 0.661999
v -21.917744 7.162006 1.633844
v -22.511829 6.837331 1.689844
v -22.758076 6.860004 0.394290
v -22.087009 7.108143 0.404593
v -22.410748 6.819965 0.887436
v -20.334820 6.705067 1.092022
v -20.682705 6.830585 1.821812
v -20.234669 7.209461 1.021922
v -21.379093 6.291920 1.166669
v -22.235897 6.468220 0.923030
v -21.397175 6.500813 2.228346
v -21.399487 6.372181 1.700784
v -21.256283 6.996296 2.019002
v -21.146221 7.512775 1.912697
v -20.659267 7.283254 1.823329
v -22.441059 6.740772 0.986807
v -22.363377 7.196735 1.074859
v -22.286625 7.638874 1.002046
v -21.888004 7.543812 1.771903
v -21.989246 7.124775 1.792821
v -21.329487 6.557453 1.847460
v -20.831928 6.331135 1.670526
v -20.417683 6.280323 0.992919
v -22.034817 6.648914 1.748869
v -21.291058 7.846363 0.814667
v -21.205074 8.109882 1.305869
v -21.150295 7.964680 2.091455
v -21.226871 7.427418 2.110581
v -21.945660 6.397602 1.057812
v -22.101879 7.866688 1.803767
v -20.284313 7.252187 1.722351
v -20.415844 6.697834 1.616217
v -20.324764 6.352833 0.937423
v -21.057163 6.199238 0.704419
v -21.752926 7.138874 1.986982
v -21.032825 6.383442 1.782791
v -20.943478 6.909841 1.958704
v -22.364399 7.129384 1.542085
v -21.875774 6.515797 1.864711
v -20.356785 7.178028 0.547472
v -19.892277 7.097980 0.657624
v -20.137943 7.126514 1.647110
v -20.695377 7.223103 1.479158
v -22.518124 7.219379 0.400122
v -20.206860 6.919758 0.422615
v -20.849400 7.317005 1.928001
v -21.518299 6.571674 2.152060
v -21.540524 6.149220 1.779010
v -21.471127 6.004353 0.994518
v -21.370625 6.500660 0.798484
v -21.318447 7.726643 1.834476
v -21.348293 7.299671 2.201753
v -20.227810 7.287464 0.911947
v -21.748913 7.555347 1.450924
v -22.383144 7.662159 1.492502
v -22.636898 7.717335 0.564498
v -21.931454 7.597797 0.571048
v -20.623852 6.260303 0.410522
v -22.074200 6.329853 0.395075
v -20.887447 6.536823 1.861527
v -21.794537 6.590687 1.888957
v -21.835560 7.921101 0.415657
v -20.406040 7.678913 0.428930
v -21.725460 7.577259 1.868336
v -20.696705 7.706013 1.081337
v -21.327061 7.745716 0.954340
v -21.556995 6.331715 -0.079666
v -21.568417 6.320332 0.935587
v -21.315723 7.757130 -0.060922
v -22.608585 7.204700 0.923493
v -22.372295 6.837116 1.689129
v -22.238613 7.393696 1.598472
v -22.431934 7.550129 0.922140
v -21.692966 7.954060 0.495371
v -20.910030 6.944080 1.989040
v -21.625805 7.703846 1.809052
v -21.719875 7.172657 2.056233
v -20.288700 6.963429 1.558267
v -20.784595 7.569752 1.883606
v -20.283596 6.824177 -0.070286
v -20.294941 6.812733 0.944976
v -22.597210 7.216114 -0.091766
v -20.568691 6.874714 1.796490
v -20.990482 6.941273 2.164939
v -21.779629 7.074482 2.193736
v -21.906651 7.102925 1.666548
v -20.158901 15.961060 1.191013
v -21.260548 17.748993 0.972192
v -20.791050 16.775574 1.544125
v -21.450008 15.356079 1.035861
v -21.308605 15.864136 1.693027
v -21.355801 15.161621 1.762426
v -21.121197 14.923157 0.815056
v -21.167233 15.636505 0.782902
v -21.745266 16.942230 1.643973
v -22.397488 17.129669 1.612789
v -22.395657 17.272095 0.301555
v -21.750927 16.978577 0.402498
v -22.239788 17.017700 0.827316
v -20.883984 15.487427 1.257007
v -21.130810 15.846893 1.949265
v -20.452000 15.773834 1.229544
v -21.917263 15.928253 1.188218
v -22.367153 16.645905 0.860845
v -21.914455 16.127716 2.251859
v -21.941181 16.018829 1.720532
v -21.442928 16.374207 2.090343
v -20.991055 16.660950 2.028826
v -20.797855 16.152832 1.981035
v -22.328754 16.986084 0.917623
v -21.965923 17.259430 1.041523
v -21.593670 17.517822 1.004931
v -21.474232 17.198151 1.807540
v -21.841206 16.971588 1.791314
v -21.780338 16.106934 1.885190
v -21.566647 15.590515 1.751941
v -21.227230 15.239594 1.123471
v -22.200741 16.663147 1.713554
v -20.724659 16.960693 0.943884
v -20.540173 17.105621 1.456806
v -20.699810 16.991943 2.233229
v -21.131878 16.663788 2.210790
v -22.228794 16.396912 1.022894
v -21.402843 17.579163 1.834758
v -20.543217 15.864136 1.921219
v -21.010532 15.557892 1.767318
v -21.104267 15.224060 1.083318
v -21.698620 15.619934 0.760377
v -21.688869 16.822845 2.011351
v -21.685284 15.772675 1.843845
v -21.275768 16.091125 2.060496
v -22.071239 17.228943 1.500671
v -22.196171 16.460938 1.838231
v -20.501614 15.820068 0.743330
v -20.244183 15.441254 0.900007
v -20.518818 15.669342 1.855415
v -20.823017 16.122986 1.631960
v -21.976048 17.359894 0.356295
v -20.561382 15.526611 0.620627
v -20.920963 16.313965 2.065485
v -21.940769 16.260345 2.166883
v -22.206036 15.961792 1.768624
v -22.162075 15.781860 0.989571
v -21.720020 16.057739 0.836757
v -20.953091 16.931183 1.944905
v -21.317944 16.661255 2.279739
v -20.379108 15.820618 1.126007
v -21.328785 17.097351 1.505579
v -21.705639 17.619659 1.481897
v -21.731571 17.803650 0.536325
v -21.319370 17.224060 0.614979
v -21.314732 15.349030 0.521429
v -22.285168 16.415100 0.347006
v -21.485310 15.782745 1.947667
v -22.089565 16.458191 1.875996
v -21.006596 17.381439 0.491399
v -20.171337 16.207031 0.650783
v -21.348293 17.111450 1.923528
v -20.437214 16.453522 1.266735
v -20.837589 16.919250 1.072211
v -21.861385 16.036713 -0.065460
v -22.002254 16.072968 0.939453
v -20.696758 16.883087 0.067287
v -22.114376 17.431641 0.864273
v -22.299313 17.031647 1.627782
v -21.804722 17.330933 1.586893
v -21.748196 17.553680 0.903904
v -20.892971 17.307800 0.588524
v -21.232029 16.093140 2.096436
v -21.182301 17.129608 1.883678
v -21.650478 16.826202 2.085815
v -20.728123 15.655762 1.740373
v -20.693066 16.446869 2.044181
v -20.621655 15.494690 0.117310
v -20.762508 15.530884 1.122235
v -21.973507 17.395416 -0.140646
v -21.016567 15.797455 1.939685
v -21.312267 16.153870 2.261654
v -21.778118 16.803131 2.209465
v -21.782803 16.893555 1.674051
v 16.151217 -1.936024 0.984338
v 14.045251 -1.997924 1.123647
v 15.203973 -2.056355 1.509721
v 16.010656 -3.361712 0.915791
v 15.755428 -2.954675 1.607993
v 16.345051 -3.345522 1.595874
v 16.505045 -3.305466 0.604810
v 15.866794 -2.988020 0.666387
v 14.610895 -2.791769 1.745680
v 14.125962 -3.261984 1.818068
v 13.785066 -3.247688 0.544018
v 14.368875 -2.834225 0.528220
v 14.167211 -3.217412 1.011417
v 16.212540 -2.797168 1.080204
v 15.900226 -2.798355 1.836392
v 16.174360 -2.281453 1.035286
v 15.317840 -3.470552 1.193465
v 14.428638 -3.512815 1.014419
v 15.327001 -3.320048 2.265088
v 15.317937 -3.421729 1.731748
v 15.319874 -2.796327 2.078394
v 15.285481 -2.264870 1.997542
v 15.806825 -2.355685 1.864358
v 14.165884 -3.306092 1.107395
v 14.130408 -2.849865 1.218424
v 14.085464 -2.400258 1.168406
v 14.552060 -2.421782 1.904909
v 14.563556 -2.853220 1.906163
v 15.348936 -3.231218 1.884971
v 15.873090 -3.312361 1.664098
v 16.234161 -3.224048 0.960411
v 14.638371 -3.322158 1.835862
v 14.977428 -1.932927 0.933174
v 15.029763 -1.677791 1.433448
v 15.179091 -1.837822 2.203721
v 15.244536 -2.376812 2.194382
v 14.736588 -3.511289 1.126449
v 14.265586 -2.167396 1.969730
v 16.168442 -2.283702 1.738740
v 16.175877 -2.848031 1.606954
v 16.300852 -3.127491 0.903868
v 15.616998 -3.456067 0.707420
v 14.802319 -2.786616 2.085890
v 15.674587 -3.319067 1.791541
v 15.638895 -2.795685 1.993722
v 14.181950 -2.935480 1.679786
v 14.834537 -3.414290 1.933254
v 16.028938 -2.322906 0.568229
v 16.505390 -2.284081 0.644400
v 16.336031 -2.363540 1.647022
v 15.761437 -2.408107 1.520015
v 13.924526 -2.838876 0.557188
v 16.230202 -2.527547 0.418692
v 15.622803 -2.377130 1.982430
v 15.186347 -3.279911 2.200923
v 15.245118 -3.676892 1.804630
v 15.289966 -3.764413 1.009916
v 15.244708 -3.250984 0.839021
v 15.058717 -2.099972 1.943411
v 15.167201 -2.535629 2.284816
v 16.152657 -2.199662 0.930113
v 14.658919 -2.360497 1.577293
v 14.023504 -2.424281 1.664381
v 13.694777 -2.396648 0.758947
v 14.405709 -2.328690 0.714630
v 15.996689 -3.271625 0.391701
v 14.580075 -3.581183 0.469984
v 15.781226 -3.136685 1.870473
v 14.895428 -3.321937 1.957019
v 14.403481 -1.985133 0.573846
v 15.844043 -1.847393 0.484043
v 14.707429 -2.351478 1.993021
v 15.606256 -1.925321 1.153552
v 14.979095 -2.045501 1.068329
v 15.042133 -3.424125 -0.034712
v 15.110744 -3.482357 0.976680
v 14.910447 -1.987264 0.056938
v 13.880651 -2.899411 1.083237
v 14.260406 -3.225855 1.808745
v 14.239663 -2.650236 1.744495
v 13.962182 -2.520173 1.092291
v 14.538444 -1.919700 0.646500
v 15.664645 -2.755305 2.023990
v 14.766465 -2.200817 1.935622
v 14.830733 -2.748448 2.154922
v 16.225882 -2.556210 1.557757
v 15.617084 -2.114575 1.949787
v 16.143593 -2.618256 -0.073496
v 16.212242 -2.676493 0.937896
v 13.812056 -2.841163 0.071845
v 15.996845 -2.725040 1.806862
v 15.601100 -2.786611 2.204005
v 14.808717 -2.864679 2.289536
v 14.639235 -2.847329 1.773934
v 13.541433 -0.062281 0.984338
v 12.140333 1.511205 1.123647
v 12.840384 0.586004 1.509721
v 12.358953 -0.871028 0.915791
v 12.506697 -0.413874 1.607993
v 12.586302 -1.116786 1.595874
v 12.719824 -1.213588 0.604810
v 12.552732 -0.520594 0.666387
v 11.895803 0.567602 1.745680
v 11.223890 0.636846 1.818068
v 11.015707 0.907171 0.544018
v 11.707701 0.725744 0.528220
v 11.284544 0.633886 1.011417
v 12.921194 -0.662776 1.080204
v 12.719519 -0.424311 1.836392
v 13.291708 -0.302058 1.035286
v 11.830236 -0.410243 1.193465
v 11.226301 0.243749 1.014419
v 11.951422 -0.320521 2.265088
v 11.867704 -0.378962 1.731748
v 12.348028 0.021581 2.078394
v 12.733038 0.389562 1.997542
v 12.998587 -0.068202 1.864358
v 11.215773 0.577917 1.107395
v 11.542448 0.898351 1.218424
v 11.857977 1.221776 1.168406
v 12.141409 0.850500 1.904909
v 11.818296 0.564367 1.906163
v 12.033575 -0.280238 1.884971
v 12.308325 -0.733912 1.664098
v 12.608061 -0.953730 0.960411
v 11.507162 0.205633 1.835862
v 12.789312 0.838903 0.933174
v 13.018408 0.962804 1.433448
v 12.991796 0.745519 2.203721
v 12.620977 0.348943 2.194382
v 11.425421 0.008825 1.126449
v 12.152143 1.233465 1.969730
v 13.286177 -0.298945 1.738740
v 12.858656 -0.667384 1.606954
v 12.724905 -0.942775 0.903868
v 12.033621 -0.630091 0.707420
v 12.022802 0.424291 2.085890
v 12.175596 -0.586146 1.791541
v 12.553579 -0.222407 1.993722
v 11.509993 0.803838 1.679786
v 11.562674 -0.003840 1.933254
v 13.166479 -0.217280 0.568229
v 13.502470 -0.557307 0.644400
v 13.332739 -0.478663 1.647022
v 12.929258 -0.067134 1.520015
v 11.418524 1.063115 0.557188
v 13.139082 -0.503016 0.418692
v 12.863867 0.058965 1.982430
v 11.891760 -0.186976 2.200923
v 11.625433 -0.487177 1.804630
v 11.587210 -0.577784 1.009916
v 11.951437 -0.213099 0.839021
v 12.713606 0.669225 1.943411
v 12.449614 0.306096 2.284816
v 13.340406 -0.232844 0.930113
v 12.257048 0.808050 1.577293
v 11.799757 1.253789 1.664381
v 11.609617 1.523382 0.758947
v 12.118658 1.022466 0.714630
v 12.418966 -0.802394 0.391701
v 11.271269 0.083806 0.469984
v 12.383856 -0.550624 1.870473
v 11.672567 0.008855 1.957019
v 12.380392 1.245000 0.573846
v 13.411894 0.229986 0.484043
v 12.295126 0.776708 1.993021
v 13.199354 0.362066 1.153552
v 12.704153 0.765264 1.068329
v 11.688589 -0.169215 -0.034712
v 11.688078 -0.259181 0.976680
v 12.704641 0.855260 0.056938
v 11.343962 1.057805 1.083237
v 11.337988 0.557073 1.808745
v 11.765585 0.942968 1.744495
v 11.686880 1.239141 1.092291
v 12.517263 1.183690 0.646500
v 12.601072 -0.216181 2.023990
v 12.448492 0.828283 1.935622
v 12.070303 0.427038 2.154922
v 13.114340 -0.518122 1.557757
v 13.061338 0.232122 1.949787
v 13.013929 -0.494990 -0.073496
v 13.013441 -0.584986 0.937896
v 11.344473 1.147802 0.071845
v 12.837782 -0.451167 1.806862
v 12.536245 -0.187617 2.204005
v 11.967108 0.369207 2.289536
v 11.871458 0.510198 1.773934
v 21.915236 -7.767310 0.984333
v 19.865011 -7.282050 1.123641
v 20.969114 -7.638373 1.509716
v 21.410482 -9.108069 0.915785
v 21.269293 -8.648810 1.607987
v 21.737677 -9.178962 1.595868
v 21.902578 -9.181678 0.604804
v 21.368200 -8.709815 0.666382
v 20.205931 -8.195258 1.745674
v 19.615820 -8.523932 1.818063
v 19.290228 -8.421882 0.544012
v 19.961111 -8.173560 0.528214
v 19.667204 -8.491553 1.011411
v 21.751585 -8.614936 1.080199
v 21.449583 -8.535285 1.836387
v 21.848188 -8.106971 1.035280
v 20.713095 -9.033851 1.193460
v 19.843260 -8.844550 1.014414
v 20.760893 -8.890845 2.265083
v 20.725828 -8.986732 1.731743
v 20.889547 -8.383124 2.078389
v 20.993849 -7.860846 1.997536
v 21.473951 -8.083533 1.864352
v 19.642958 -8.576850 1.107390
v 19.726774 -8.126990 1.218419
v 19.799726 -7.681067 1.168401
v 20.244848 -7.822638 1.904904
v 20.144293 -8.242347 1.906158
v 20.805075 -8.810706 1.884966
v 21.290365 -9.024756 1.664092
v 21.661947 -9.032905 0.960406
v 20.095182 -8.714667 1.835856
v 20.782232 -7.460516 0.933169
v 20.898832 -7.227606 1.433443
v 21.001654 -7.420844 2.203715
v 20.925375 -7.958411 2.194377
v 20.141119 -8.922767 1.126444
v 20.033972 -7.502753 1.969725
v 21.841894 -8.107612 1.738734
v 21.703001 -8.654609 1.606948
v 21.751417 -8.956916 0.903862
v 21.005774 -9.097266 0.707415
v 20.392157 -8.239783 2.085884
v 21.096876 -8.979835 1.791535
v 21.197874 -8.465095 1.993716
v 19.754393 -8.223029 1.679780
v 20.260817 -8.854438 1.933249
v 21.696997 -8.109351 0.568224
v 22.167257 -8.195167 0.644395
v 21.983107 -8.228095 1.647016
v 21.416548 -8.122413 1.520009
v 19.530752 -8.063117 0.557183
v 21.838438 -8.359138 0.418687
v 21.290663 -8.056647 1.982424
v 20.635427 -8.815681 2.200918
v 20.589445 -9.214332 1.804624
v 20.610113 -9.310493 1.009910
v 20.699278 -8.802833 0.839016
v 20.817526 -7.642920 1.943406
v 20.809561 -8.091804 2.284810
v 21.848387 -8.022346 0.930108
v 20.363935 -7.791083 1.577287
v 19.733656 -7.688239 1.664376
v 19.423285 -7.576453 0.758942
v 20.127577 -7.694800 0.714625
v 21.420271 -9.017402 0.391695
v 19.971830 -8.949775 0.469978
v 21.247099 -8.831306 1.870467
v 20.343542 -8.780982 1.957013
v 20.214315 -7.362372 0.573840
v 21.641485 -7.602210 0.484038
v 20.413076 -7.794898 1.993016
v 21.391615 -7.615912 1.153546
v 20.754721 -7.569678 1.068324
v 20.458815 -8.917670 -0.034717
v 20.509993 -8.991645 0.976674
v 20.703489 -7.495673 0.056932
v 19.472700 -8.110206 1.083232
v 19.755026 -8.523810 1.808739
v 19.883940 -7.962439 1.744489
v 19.649611 -7.764990 1.092285
v 20.361616 -7.334113 0.646494
v 21.233198 -8.432746 2.023984
v 20.509130 -7.664679 1.935616
v 20.429480 -8.210273 2.154916
v 21.826841 -8.385688 1.557751
v 21.353086 -7.801520 1.949781
v 21.731306 -8.424323 -0.073502
v 21.782537 -8.498328 0.937890
v 19.421507 -8.036201 0.071840
v 21.561888 -8.489448 1.806857
v 21.163725 -8.446540 2.204000
v 20.378119 -8.316840 2.289531
v 20.218901 -8.256202 1.773929
vt 2.000000 1.000000
vt 0.672828 0.000000
vt 0.674344 0.539448
vt 0.248543 0.000000
vt 0.000000 1.000000
vt 1.000000 1.000000
vt 1.000000 0.635380
vt 1.000000 0.000000
vt 0.672827 0.000000
vt 0.283541 1.000000
vt 0.674282 0.639649
vt 0.675102 0.999999
vt 0.675102 1.000000
vt 0.000000 0.000000
vt 0.000000 0.773994
vt 0.275019 0.756504
vt 2.000000 2.000000
vt 0.999959 1.000002
vt 1.000000 2.000000
vt 0.600806 1.005322
vt 0.568419 0.000000
vt 0.721701 0.000000
vt 0.163907 0.000000
vt 0.756240 0.999869
vt 0.349845 0.000000
vt 0.201839 1.057736
vt 0.213361 0.975398
vt 2.000000 1.000000
vt 2.000000 2.000000
vt 1.000000 1.000000
vt 1.000000 1.448011
vt 1.000000 2.000000
vt 0.000000 0.711050
vt 0.000000 1.000000
vt 1.000000 1.000000
vt 1.000000 0.711050
vt 1.403892 1.000000
vt 1.711492 1.000000
vt 1.489952 1.448011
vt 1.689888 1.448011
vt 2.000000 1.448011
vt 1.213459 2.000000
vt 1.491405 2.000000
vt 1.759813 2.000000
vt 0.510941 1.000000
vt 1.000000 1.008607
vt 1.000000 0.000000
vt 0.087174 0.000000
vt 1.451105 1.245783
vt 1.700240 1.233341
vt 1.728544 1.753159
vt 1.490742 1.748154
vt 1.242545 1.448011
vt 1.199393 1.252156
vt 1.143836 1.000000
vt 1.226609 1.750448
vt 0.275019 0.756504
vt 0.000000 0.773994
vt 0.000000 0.000000
vt 0.675102 0.999998
vt 0.674282 0.639649
vt 0.283541 1.000000
vt 0.672827 0.000000
vt 1.000000 0.000000
vt 1.000000 0.635380
vt 1.000000 1.000000
vt 0.248543 0.000000
vt 0.673514 0.634185
vt 0.672827 -0.000000
vt 0.000000 0.000000
vt 0.675102 1.000000
vt 0.283541 1.000000
vt 0.672827 0.000000
vt 1.000000 0.000000
vt 1.000000 1.000000
vt 0.000000 1.000000
vt 0.248543 0.000000
vt 2.000000 1.000000
vt 1.000000 2.000000
vt 0.999959 1.000002
vt 2.000000 2.000000
vt 0.000000 0.711050
vt 1.000000 0.711050
vt 0.000000 1.000000
vt 0.756240 0.999869
vt 0.163907 0.000000
vt 0.721701 0.000000
vt 0.213361 0.975398
vt 0.568419 0.000000
vt 0.600806 1.005322
vt 0.349845 0.000000
vt 1.000000 1.000000
vt 0.201839 1.057736
vt 0.672827 0.000000
vt 1.000000 0.000000
vt 1.000000 1.000000
vt 0.675102 1.000000
vt 0.283541 1.000000
vt 0.000000 1.000000
vt 0.000000 0.000000
vt 0.248543 0.000000
vt 0.275019 0.756504
vt 0.000000 0.773994
vt 0.000000 0.000000
vt 0.087174 0.000000
vt 1.000000 0.000000
vt 1.000000 1.008607
vt 0.673514 0.634185
vt 0.283541 1.000000
vt 0.672827 0.000000
vt 1.000000 0.000000
vt 1.000000 0.635380
vt 1.000000 1.000000
vt 0.674282 0.639649
vt 0.510941 1.000000
vt 0.248543 0.000000
vt 0.248543 0.000000
vt 0.672828 0.000000
vt 0.674344 0.539448
vt 0.675102 0.999998
vt 0.672827 -0.000000
vt 0.675102 1.000000
vt 0.674282 0.639649
vt 1.000000 1.000000
vt 0.672827 0.000000
vt 1.000000 0.635380
vt 1.000000 2.000000
vt 1.000000 1.448011
vt 1.226609 1.750448
vt 1.143836 1.000000
vt 1.199393 1.252156
vt 1.000000 1.000000
vt 1.242545 1.448011
vt 1.490742 1.748154
vt 1.728544 1.753159
vt 1.759813 2.000000
vt 1.491405 2.000000
vt 1.213459 2.000000
vt 1.700240 1.233341
vt 2.000000 1.448011
vt 1.689888 1.448011
vt 2.000000 2.000000
vt 2.000000 1.000000
vt 1.489952 1.448011
vt 1.711492 1.000000
vt 1.451105 1.245783
vt 1.403892 1.000000
vt 0.275019 0.756504
vt 0.000000 0.773994
vt 0.000000 0.000000
vt 0.675102 0.999999
vt 0.283541 1.000000
vt 1.000000 0.000000
vt 0.000000 1.000000
vt 2.000000 1.000000
vt 1.000000 2.000000
vt 0.999959 1.000002
vt 2.000000 2.000000
vt 0.000000 0.711050
vt 1.000000 0.711050
vt 0.000000 1.000000
vt 0.756240 0.999869
vt 0.163907 0.000000
vt 0.721701 0.000000
vt 0.213361 0.975398
vt 0.568419 0.000000
vt 0.600806 1.005322
vt 0.349845 0.000000
vt 1.000000 1.000000
vt 0.201839 1.057736
vt 0.672827 0.000000
vt 1.000000 0.000000
vt 1.000000 1.000000
vt 0.675102 1.000000
vt 0.283541 1.000000
vt 0.000000 1.000000
vt 0.000000 0.000000
vt 0.248543 0.000000
vt 0.275019 0.756504
vt 0.000000 0.773994
vt 0.000000 0.000000
vt 0.087174 0.000000
vt 1.000000 0.000000
vt 1.000000 1.008607
vt 0.673514 0.634185
vt 0.283541 1.000000
vt 0.672827 0.000000
vt 1.000000 0.000000
vt 1.000000 0.635380
vt 1.000000 1.000000
vt 0.674282 0.639649
vt 0.510941 1.000000
vt 0.248543 0.000000
vt 0.248543 0.000000
vt 0.672828 0.000000
vt 0.674344 0.539448
vt 0.675102 0.999998
vt 0.672827 -0.000000
vt 0.675102 1.000000
vt 0.674282 0.639649
vt 1.000000 1.000000
vt 0.672827 0.000000
vt 1.000000 0.635380
vt 1.000000 2.000000
vt 1.000000 1.448011
vt 1.226609 1.750448
vt 1.143836 1.000000
vt 1.199393 1.252156
vt 1.000000 1.000000
vt 1.242545 1.448011
vt 1.490742 1.748154
vt 1.728544 1.753159
vt 1.759813 2.000000
vt 1.491405 2.000000
vt 1.213459 2.000000
vt 1.700240 1.233341
vt 2.000000 1.448011
vt 1.689888 1.448011
vt 2.000000 2.000000
vt 2.000000 1.000000
vt 1.489952 1.448011
vt 1.711492 1.000000
vt 1.451105 1.245783
vt 1.403892 1.000000
vt 0.275019 0.756504
vt 0.000000 0.773994
vt 0.000000 0.000000
vt 0.675102 0.999999
vt 0.283541 1.000000
vt 1.000000 0.000000
vt 0.000000 1.000000
vt 2.000000 1.000000
vt 1.000000 2.000000
vt 0.999959 1.000002
vt 2.000000 2.000000
vt 0.000000 0.711050
vt 1.000000 0.711050
vt 0.000000 1.000000
vt 0.756240 0.999869
vt 0.163907 0.000000
vt 0.721701 0.000000
vt 0.213361 0.975398
vt 0.568419 0.000000
vt 0.600806 1.005322
vt 0.349845 0.000000
vt 1.000000 1.000000
vt 0.201839 1.057736
vt 0.672827 0.000000
vt 1.000000 0.000000
vt 1.000000 1.000000
vt 0.675102 1.000000
vt 0.283541 1.000000
vt 0.000000 1.000000
vt 0.000000 0.000000
vt 0.248543 0.000000
vt 0.275019 0.756504
vt 0.000000 0.773994
vt 0.000000 0.000000
vt 0.087174 0.000000
vt 1.000000 0.000000
vt 1.000000 1.008607
vt 0.673514 0.634185
vt 0.283541 1.000000
vt 0.672827 0.000000
vt 1.000000 0.000000
vt 1.000000 0.635380
vt 1.000000 1.000000
vt 0.674282 0.639649
vt 0.510941 1.000000
vt 0.248543 0.000000
vt 0.248543 0.000000
vt 0.672828 0.000000
vt 0.674344 0.539448
vt 0.675102 0.999998
vt 0.672827 -0.000000
vt 0.675102 1.000000
vt 0.674282 0.639649
vt 1.000000 1.000000
vt 0.672827 0.000000
vt 1.000000 0.635380
vt 1.000000 2.000000
vt 1.000000 1.448011
vt 1.226609 1.750448
vt 1.143836 1.000000
vt 1.199393 1.252156
vt 1.000000 1.000000
vt 1.242545 1.448011
vt 1.490742 1.748154
vt 1.728544 1.753159
vt 1.759813 2.000000
vt 1.491405 2.000000
vt 1.213459 2.000000
vt 1.700240 1.233341
vt 2.000000 1.448011
vt 1.689888 1.448011
vt 2.000000 2.000000
vt 2.000000 1.000000
vt 1.489952 1.448011
vt 1.711492 1.000000
vt 1.451105 1.245783
vt 1.403892 1.000000
vt 0.275019 0.756504
vt 0.000000 0.773994
vt 0.000000 0.000000
vt 0.675102 0.999999
vt 0.283541 1.000000
vt 1.000000 0.000000
vt 0.000000 1.000000
vt 2.000000 1.000000
vt 1.000000 2.000000
vt 0.999959 1.000002
vt 2.000000 2.000000
vt 0.000000 0.711050
vt 1.000000 0.711050
vt 0.000000 1.000000
vt 0.756240 0.999869
vt 0.163907 0.000000
vt 0.721701 0.000000
vt 0.213361 0.975398
vt 0.568419 0.000000
vt 0.600806 1.005322
vt 0.349845 0.000000
vt 1.000000 1.000000
vt 0.201839 1.057736
vt 0.672827 0.000000
vt 1.000000 0.000000
vt 1.000000 1.000000
vt 0.675102 1.000000
vt 0.283541 1.000000
vt 0.000000 1.000000
vt 0.000000 0.000000
vt 0.248543 0.000000
vt 0.275019 0.756504
vt 0.000000 0.773994
vt 0.000000 0.000000
vt 0.087174 0.000000
vt 1.000000 0.000000
vt 1.000000 1.008607
vt 0.673514 0.634185
vt 0.283541 1.000000
vt 0.672827 0.000000
vt 1.000000 0.000000
vt 1.000000 0.635380
vt 1.000000 1.000000
vt 0.674282 0.639649
vt 0.510941 1.000000
vt 0.248543 0.000000
vt 0.248543 0.000000
vt 0.672828 0.000000
vt 0.674344 0.539448
vt 0.675102 0.999998
vt 0.672827 -0.000000
vt 0.675102 1.000000
vt 0.674282 0.639649
vt 1.000000 1.000000
vt 0.672827 0.000000
vt 1.000000 0.635380
vt 1.000000 2.000000
vt 1.000000 1.448011
vt 1.226609 1.750448
vt 1.143836 1.000000
vt 1.199393 1.252156
vt 1.000000 1.000000
vt 1.242545 1.448011
vt 1.490742 1.748154
vt 1.728544 1.753159
vt 1.759813 2.000000
vt 1.491405 2.000000
vt 1.213459 2.000000
vt 1.700240 1.233341
vt 2.000000 1.448011
vt 1.689888 1.448011
vt 2.000000 2.000000
vt 2.000000 1.000000
vt 1.489952 1.448011
vt 1.711492 1.000000
vt 1.451105 1.245783
vt 1.403892 1.000000
vt 0.275019 0.756504
vt 0.000000 0.773994
vt 0.000000 0.000000
vt 0.675102 0.999999
vt 0.283541 1.000000
vt 1.000000 0.000000
vt 0.000000 1.000000
vt 2.000000 1.000000
vt 1.000000 2.000000
vt 0.999959 1.000002
vt 2.000000 2.000000
vt 0.000000 0.711050
vt 1.000000 0.711050
vt 0.000000 1.000000
vt 0.756240 0.999869
vt 0.163907 0.000000
vt 0.721701 0.000000
vt 0.213361 0.975398
vt 0.568419 0.000000
vt 0.600806 1.005322
vt 0.349845 0.000000
vt 1.000000 1.000000
vt 0.201839 1.057736
vt 0.672827 0.000000
vt 1.000000 0.000000
vt 1.000000 1.000000
vt 0.675102 1.000000
vt 0.283541 1.000000
vt 0.000000 1.000000
vt 0.000000 0.000000
vt 0.248543 0.000000
vt 0.275019 0.756504
vt 0.000000 0.773994
vt 0.000000 0.000000
vt 0.087174 0.000000
vt 1.000000 0.000000
vt 1.000000 1.008607
vt 0.673514 0.634185
vt 0.283541 1.000000
vt 0.672827 0.000000
vt 1.000000 0.000000
vt 1.000000 0.635380
vt 1.000000 1.000000
vt 0.674282 0.639649
vt 0.510941 1.000000
vt 0.248543 0.000000
vt 0.248543 0.000000
vt 0.672828 0.000000
vt 0.674344 0.539448
vt 0.675102 0.999998
vt 0.672827 -0.000000
vt 0.675102 1.000000
vt 0.674282 0.639649
vt 1.000000 1.000000
vt 0.672827 0.000000
vt 1.000000 0.635380
vt 1.000000 2.000000
vt 1.000000 1.448011
vt 1.226609 1.750448
vt 1.143836 1.000000
vt 1.199393 1.252156
vt 1.000000 1.000000
vt 1.242545 1.448011
vt 1.490742 1.748154
vt 1.728544 1.753159
vt 1.759813 2.000000
vt 1.491405 2.000000
vt 1.213459 2.000000
vt 1.700240 1.233341
vt 2.000000 1.448011
vt 1.689888 1.448011
vt 2.000000 2.000000
vt 2.000000 1.000000
vt 1.489952 1.448011
vt 1.711492 1.000000
vt 1.451105 1.245783
vt 1.403892 1.000000
vt 0.275019 0.756504
vt 0.000000 0.773994
vt 0.000000 0.000000
vt 0.675102 0.999999
vt 0.283541 1.000000
vt 1.000000 0.000000
vt 0.000000 1.000000
vt 2.000000 1.000000
vt 1.000000 2.000000
vt 0.999959 1.000002
vt 2.000000 2.000000
vt 0.000000 0.711050
vt 1.000000 0.711050
vt 0.000000 1.000000
vt 0.756240 0.999869
vt 0.163907 0.000000
vt 0.721701 0.000000
vt 0.213361 0.975398
vt 0.568419 0.000000
vt 0.600806 1.005322
vt 0.349845 0.000000
vt 1.000000 1.000000
vt 0.201839 1.057736
vt 0.672827 0.000000
vt 1.000000 0.000000
vt 1.000000 1.000000
vt 0.675102 1.000000
vt 0.283541 1.000000
vt 0.000000 1.000000
vt 0.000000 0.000000
vt 0.248543 0.000000
vt 0.275019 0.756504
vt 0.000000 0.773994
vt 0.000000 0.000000
vt 0.087174 0.000000
vt 1.000000 0.000000
vt 1.000000 1.008607
vt 0.673514 0.634185
vt 0.283541 1.000000
vt 0.672827 0.000000
vt 1.000000 0.000000
vt 1.000000 0.635380
vt 1.000000 1.000000
vt 0.674282 0.639649
vt 0.510941 1.000000
vt 0.248543 0.000000
vt 0.248543 0.000000
vt 0.672828 0.000000
vt 0.674344 0.539448
vt 0.675102 0.999998
vt 0.672827 -0.000000
vt 0.675102 1.000000
vt 0.674282 0.639649
vt 1.000000 1.000000
vt 0.672827 0.000000
vt 1.000000 0.635380
vt 1.000000 2.000000
vt 1.000000 1.448011
vt 1.226609 1.750448
vt 1.143836 1.000000
vt 1.199393 1.252156
vt 1.000000 1.000000
vt 1.242545 1.448011
vt 1.490742 1.748154
vt 1.728544 1.753159
vt 1.759813 2.000000
vt 1.491405 2.000000
vt 1.213459 2.000000
vt 1.700240 1.233341
vt 2.000000 1.448011
vt 1.689888 1.448011
vt 2.000000 2.000000
vt 2.000000 1.000000
vt 1.489952 1.448011
vt 1.711492 1.000000
vt 1.451105 1.245783
vt 1.403892 1.000000
vt 0.275019 0.756504
vt 0.000000 0.773994
vt 0.000000 0.000000
vt 0.675102 0.999999
vt 0.283541 1.000000
vt 1.000000 0.000000
vt 0.000000 1.000000
vt 2.000000 1.000000
vt 1.000000 2.000000
vt 0.999959 1.000002
vt 2.000000 2.000000
vt 0.000000 0.711050
vt 1.000000 0.711050
vt 0.000000 1.000000
vt 0.756240 0.999869
vt 0.163907 0.000000
vt 0.721701 0.000000
vt 0.213361 0.975398
vt 0.568419 0.000000
vt 0.600806 1.005322
vt 0.349845 0.000000
vt 1.000000 1.000000
vt 0.201839 1.057736
vt 0.672827 0.000000
vt 1.000000 0.000000
vt 1.000000 1.000000
vt 0.675102 1.000000
vt 0.283541 1.000000
vt 0.000000 1.000000
vt 0.000000 0.000000
vt 0.248543 0.000000
vt 0.275019 0.756504
vt 0.000000 0.773994
vt 0.000000 0.000000
vt 0.087174 0.000000
vt 1.000000 0.000000
vt 1.000000 1.008607
vt 0.673514 0.634185
vt 0.283541 1.000000
vt 0.672827 0.000000
vt 1.000000 0.000000
vt 1.000000 0.635380
vt 1.000000 1.000000
vt 0.674282 0.639649
vt 0.510941 1.000000
vt 0.248543 0.000000
vt 0.248543 0.000000
vt 0.672828 0.000000
vt 0.674344 0.539448
vt 0.675102 0.999998
vt 0.672827 -0.000000
vt 0.675102 1.000000
vt 0.674282 0.639649
vt 1.000000 1.000000
vt 0.672827 0.000000
vt 1.000000 0.635380
vt 1.000000 2.000000
vt 1.000000 1.448011
vt 1.226609 1.750448
vt 1.143836 1.000000
vt 1.199393 1.252156
vt 1.000000 1.000000
vt 1.242545 1.448011
vt 1.490742 1.748154
vt 1.728544 1.753159
vt 1.759813 2.000000
vt 1.491405 2.000000
vt 1.213459 2.000000
vt 1.700240 1.233341
vt 2.000000 1.448011
vt 1.689888 1.448011
vt 2.000000 2.000000
vt 2.000000 1.000000
vt 1.489952 1.448011
vt 1.711492 1.000000
vt 1.451105 1.245783
vt 1.403892 1.000000
vt 0.275019 0.756504
vt 0.000000 0.773994
vt 0.000000 0.000000
vt 0.675102 0.999999
vt 0.283541 1.000000
vt 1.000000 0.000000
vt 0.000000 1.000000
vn 0.832630 -0.210671 0.512197
vn -0.101934 0.759515 0.642454
vn 0.676991 0.575637 0.458612
vn -0.457332 -0.879706 0.130250
vn -0.993078 -0.111848 -0.035876
vn -0.985390 -0.157295 -0.065304
vn -0.968545 -0.223879 -0.108621
vn -0.980147 -0.181084 -0.080752
vn 0.113675 0.987333 0.110686
vn 0.159462 0.978964 0.127284
vn 0.253740 0.953794 0.160912
vn 0.212774 0.966073 0.146392
vn -0.967647 -0.072830 0.241568
vn 0.577488 -0.708980 0.404791
vn 0.377978 -0.594039 0.710105
vn 0.676342 -0.617165 0.402079
vn -0.692273 -0.682182 0.235342
vn -0.887370 -0.361123 0.286645
vn -0.782418 0.620334 0.054841
vn -0.782415 0.620338 0.054834
vn -0.022460 -0.156188 0.987472
vn 0.502877 0.368476 0.781882
vn 0.701910 -0.123969 0.701394
vn -0.863538 0.215875 0.455742
vn -0.625590 0.570481 0.532156
vn -0.562027 0.631675 0.533959
vn -0.032279 0.616205 0.786924
vn -0.454096 0.367021 0.811845
vn -0.430611 -0.541556 0.722005
vn -0.182804 -0.827896 0.530255
vn 0.123599 -0.930994 0.343472
vn -0.731952 -0.131859 0.668475
vn -0.722417 0.671608 0.164487
vn -0.722415 0.671609 0.164490
vn -0.722408 0.671615 0.164498
vn -0.722411 0.671613 0.164495
vn -0.860858 -0.488323 0.143052
vn -0.511962 0.201699 0.834993
vn 0.183139 -0.559580 0.808288
vn -0.016650 -0.778796 0.627056
vn -0.469577 -0.788088 0.398015
vn -0.501318 -0.845324 0.184681
vn -0.367545 0.048875 0.928721
vn -0.270048 -0.802225 0.532455
vn 0.052566 -0.498266 0.865429
vn -0.758801 0.141163 0.635841
vn -0.682940 -0.328507 0.652439
vn 0.702753 0.708607 0.063368
vn 0.702758 0.708600 0.063375
vn 0.702770 0.708588 0.063390
vn 0.702765 0.708593 0.063383
vn -0.687404 0.615242 0.385944
vn 0.628495 -0.690189 0.358656
vn 0.930976 -0.040131 0.362869
vn -0.717231 0.695396 -0.044767
vn -0.717236 0.695390 -0.044770
vn -0.717256 0.695370 -0.044783
vn -0.717248 0.695378 -0.044778
vn -0.782410 0.620346 0.054818
vn -0.782412 0.620344 0.054823
vn 0.967410 0.028978 0.251550
vn 0.702765 0.708593 0.063384
vn 0.702772 0.708585 0.063388
vn 0.702783 0.708574 0.063394
vn 0.702776 0.708581 0.063390
vn -0.053034 -0.963333 0.263014
vn -0.903756 -0.364339 0.224684
vn 0.125355 -0.977319 0.170687
vn -0.898643 -0.235748 0.369950
vn 0.280220 0.906453 0.315943
vn 0.930811 0.148281 0.334072
vn 0.090085 0.856423 0.508354
vn 0.855253 0.467370 0.223850
vn 0.711403 -0.700049 -0.061949
vn 0.711421 -0.700034 -0.061910
vn 0.711414 -0.700040 -0.061925
vn 0.711410 -0.700043 -0.061934
vn 0.702774 0.708582 0.063407
vn -0.217916 0.500247 0.838013
vn -0.032499 0.717236 0.696072
vn 0.259783 0.890673 0.373115
vn 0.428682 0.855725 0.289769
vn 0.347542 -0.118473 0.930150
vn 0.296952 0.685952 0.664297
vn 0.056808 0.437059 0.897637
vn 0.847881 -0.197255 0.492126
vn 0.674395 0.207431 0.708635
vn 0.702779 0.708578 0.063390
vn 0.702778 0.708579 0.063395
vn 0.702776 0.708581 0.063402
vn 0.702781 0.708577 0.063375
vn 0.702780 0.708578 0.063378
vn 0.702776 0.708581 0.063389
vn 0.702778 0.708580 0.063384
vn 0.802890 0.304987 0.512201
vn -0.519142 0.563698 0.642445
vn 0.224381 0.859845 0.458606
vn 0.130017 -0.982912 0.130303
vn -0.749339 -0.661214 -0.035873
vn -0.716974 -0.694034 -0.065304
vn -0.664987 -0.738914 -0.108621
vn -0.699037 -0.710511 -0.080750
vn -0.473193 0.873972 0.110731
vn -0.430901 0.893372 0.127322
vn -0.339265 0.926821 0.160939
vn -0.379851 0.913385 0.146425
vn -0.750880 -0.614679 0.241555
vn 0.879706 -0.249519 0.404793
vn 0.650342 -0.269811 0.710111
vn 0.908015 -0.117646 0.402079
vn -0.175789 -0.955878 0.235363
vn -0.519749 -0.804794 0.286649
vn -0.996728 0.059354 0.054859
vn -0.996729 0.059362 0.054846
vn 0.071194 -0.140833 0.987470
vn 0.200577 0.590290 0.781874
vn 0.646088 0.301026 0.701394
vn -0.831190 -0.318463 0.455745
vn -0.839670 0.108490 0.532150
vn -0.822702 0.195076 0.533953
vn -0.379893 0.486249 0.786920
vn -0.582491 0.040189 0.811843
vn -0.042099 -0.690601 0.722009
vn 0.325133 -0.783005 0.530276
vn 0.635280 -0.691700 0.343469
vn -0.523946 -0.527843 0.668478
vn -0.976987 0.135788 0.164491
vn -0.976988 0.135785 0.164488
vn -0.976992 0.135774 0.164477
vn -0.976990 0.135779 0.164482
vn -0.425072 -0.893787 0.143037
vn -0.535065 -0.128434 0.834991
vn 0.470976 -0.353359 0.808281
vn 0.433047 -0.647522 0.627046
vn 0.067347 -0.914901 0.398020
vn 0.074199 -0.979993 0.184683
vn -0.329113 -0.170776 0.928720
vn 0.238935 -0.812041 0.532447
vn 0.328849 -0.378015 0.865426
vn -0.702542 -0.319598 0.635839
vn -0.370994 -0.660834 0.652428
vn 0.169219 0.983540 0.063358
vn 0.169230 0.983537 0.063369
vn 0.169252 0.983532 0.063388
vn 0.169243 0.983534 0.063380
vn -0.915982 0.109675 0.385939
vn 0.910708 -0.204887 0.358653
vn 0.785637 0.501097 0.362871
vn -0.986383 0.158261 -0.044752
vn -0.986385 0.158242 -0.044760
vn -0.986395 0.158171 -0.044792
vn -0.986391 0.158200 -0.044779
vn -0.996729 0.059379 0.054819
vn -0.996729 0.059374 0.054827
vn 0.775835 0.578622 0.251548
vn 0.169246 0.983532 0.063402
vn 0.169251 0.983531 0.063405
vn 0.169259 0.983530 0.063408
vn 0.169254 0.983531 0.063406
vn 0.509103 -0.819536 0.263011
vn -0.531333 -0.816823 0.224687
vn 0.663248 -0.728675 0.170691
vn -0.600907 -0.708553 0.369951
vn -0.290391 0.903242 0.315954
vn 0.677431 0.655348 0.334074
vn -0.417433 0.753207 0.508359
vn 0.432518 0.873395 0.223851
vn 0.984277 -0.165406 -0.061961
vn 0.984287 -0.165371 -0.061902
vn 0.984283 -0.165384 -0.061925
vn 0.984281 -0.165392 -0.061938
vn 0.169252 0.983531 0.063400
vn -0.465439 0.284783 0.838013
vn -0.438018 0.568882 0.696070
vn -0.298099 0.878601 0.373092
vn -0.139677 0.946854 0.289755
vn 0.352643 0.102296 0.930150
vn -0.150196 0.732227 0.664293
vn -0.204159 0.390607 0.897633
vn 0.807679 0.324761 0.492122
vn 0.433454 0.556733 0.708637
vn 0.169255 0.983531 0.063393
vn 0.169254 0.983532 0.063395
vn 0.169253 0.983531 0.063398
vn 0.169261 0.983528 0.063434
vn 0.169264 0.983528 0.063426
vn 0.169278 0.983527 0.063397
vn 0.169272 0.983527 0.063409
vn 0.112976 -0.756775 0.643839
vn 0.705679 0.455682 0.542561
vn 0.793959 -0.359094 0.490592
vn -0.976711 0.152538 0.150889
vn -0.449320 0.877916 -0.165456
vn -0.490586 0.850690 -0.188814
vn -0.549124 0.805595 -0.222440
vn -0.511765 0.835304 -0.200910
vn 0.969788 0.242464 0.026881
vn 0.978489 0.200008 0.050557
vn 0.988950 0.109849 0.099559
vn 0.985665 0.149487 0.078224
vn -0.391496 0.913878 0.107506
vn -0.447057 -0.704350 0.551390
vn -0.394453 -0.429714 0.812252
vn -0.326965 -0.765867 0.553662
vn -0.867924 0.454099 0.201250
vn -0.632017 0.750788 0.192022
vn 0.313879 0.941969 -0.119058
vn 0.313876 0.941970 -0.119052
vn -0.109801 0.134361 0.984830
vn 0.554202 -0.212444 0.804815
vn 0.157637 -0.574853 0.802929
vn -0.075270 0.949535 0.304497
vn 0.342715 0.859928 0.378245
vn 0.422136 0.821647 0.383011
vn 0.601903 0.367452 0.709008
vn 0.223801 0.679864 0.698354
vn -0.623890 0.339895 0.703727
vn -0.815371 -0.017675 0.578668
vn -0.814617 -0.367693 0.448555
vn -0.346279 0.747146 0.567331
vn 0.387599 0.921797 -0.007621
vn 0.387588 0.921801 -0.007632
vn 0.387551 0.921816 -0.007672
vn 0.387566 0.921810 -0.007656
vn -0.748562 0.659666 0.067054
vn 0.049863 0.682289 0.729380
vn -0.425046 -0.220988 0.877782
vn -0.707645 -0.139168 0.692727
vn -0.882993 0.239493 0.403692
vn -0.957209 0.214038 0.194780
vn -0.039329 0.513059 0.857452
vn -0.821341 0.072200 0.565850
vn -0.410075 -0.069834 0.909374
vn -0.101054 0.857664 0.504182
vn -0.514431 0.633377 0.578095
vn 0.909739 -0.404911 0.091777
vn 0.909737 -0.404913 0.091781
vn 0.909734 -0.404919 0.091788
vn 0.909735 -0.404916 0.091785
vn 0.356771 0.907673 0.221006
vn -0.413909 -0.753125 0.511353
vn 0.300084 -0.816173 0.493772
vn 0.402250 0.889843 -0.215346
vn 0.402241 0.889846 -0.215350
vn 0.402207 0.889858 -0.215367
vn 0.402221 0.889853 -0.215360
vn 0.313869 0.941974 -0.119040
vn 0.313872 0.941973 -0.119044
vn 0.372440 -0.845587 0.382454
vn 0.909720 -0.404951 0.091779
vn 0.909719 -0.404954 0.091781
vn 0.909717 -0.404958 0.091784
vn 0.909718 -0.404955 0.091782
vn -0.909559 -0.228056 0.347408
vn -0.643446 0.754544 0.128994
vn -0.865212 -0.413741 0.283242
vn -0.514605 0.817066 0.259971
vn 0.960682 0.095473 0.260721
vn 0.475375 -0.757983 0.446632
vn 0.856798 0.287386 0.428144
vn 0.743458 -0.599930 0.295559
vn -0.413456 -0.903872 0.109867
vn -0.413397 -0.903886 0.109970
vn -0.413420 -0.903880 0.109930
vn -0.413433 -0.903877 0.109907
vn 0.909725 -0.404934 0.091809
vn 0.431373 0.509613 0.744454
vn 0.692423 0.386183 0.609437
vn 0.941406 0.118740 0.315682
vn 0.963210 -0.063590 0.261118
vn 0.050726 -0.205900 0.977257
vn 0.775408 0.064798 0.628127
vn 0.469677 0.243681 0.848542
vn 0.129907 -0.769813 0.624910
vn 0.459133 -0.437559 0.773136
vn 0.909731 -0.404912 0.091848
vn 0.909729 -0.404918 0.091838
vn 0.909727 -0.404928 0.091819
vn 0.909725 -0.404927 0.091838
vn 0.909723 -0.404935 0.091825
vn 0.909714 -0.404965 0.091779
vn 0.909718 -0.404953 0.091798
vn 0.770379 0.337484 0.540945
vn -0.556674 0.601229 0.573269
vn 0.197336 0.886878 0.417740
vn 0.119878 -0.972758 0.198421
vn -0.746941 -0.663614 -0.041178
vn -0.712885 -0.698123 -0.066478
vn -0.658410 -0.745487 -0.103660
vn -0.694059 -0.715488 -0.079746
vn -0.477410 0.878258 0.027255
vn -0.436190 0.898719 0.045191
vn -0.346752 0.934343 0.082259
vn -0.386385 0.919964 0.066129
vn -0.765496 -0.600050 0.232282
vn 0.852609 -0.222409 0.472856
vn 0.604833 -0.224285 0.764116
vn 0.881277 -0.090899 0.463776
vn -0.191766 -0.939889 0.282551
vn -0.537976 -0.786584 0.303095
vn -0.998100 0.060726 -0.010433
vn -0.998099 0.060734 -0.010449
vn 0.009945 -0.079573 0.996779
vn 0.153124 0.637699 0.754913
vn 0.602194 0.344923 0.719993
vn -0.858299 -0.291338 0.422428
vn -0.870651 0.139487 0.471709
vn -0.853669 0.226050 0.469203
vn -0.426737 0.533093 0.730553
vn -0.631337 0.089028 0.770381
vn -0.087814 -0.644866 0.759234
vn 0.290355 -0.748205 0.596560
vn 0.611581 -0.667995 0.423972
vn -0.565140 -0.486656 0.666170
vn -0.985009 0.143802 0.095276
vn -0.985010 0.143799 0.095273
vn -0.985013 0.143786 0.095261
vn -0.985012 0.143791 0.095266
vn -0.434784 -0.884070 0.171417
vn -0.585764 -0.077763 0.806742
vn 0.419604 -0.301978 0.856003
vn 0.392335 -0.606811 0.691269
vn 0.040918 -0.888489 0.457070
vn 0.060798 -0.966602 0.248965
vn -0.386057 -0.113857 0.915422
vn 0.204103 -0.777229 0.595195
vn 0.274193 -0.323359 0.905681
vn -0.740995 -0.281136 0.609828
vn -0.411769 -0.620044 0.667826
vn 0.166831 0.985901 0.012932
vn 0.166858 0.985896 0.012959
vn 0.166908 0.985887 0.013009
vn 0.166886 0.985891 0.012987
vn -0.937816 0.131518 0.321253
vn 0.886475 -0.180675 0.426049
vn 0.762742 0.523989 0.379025
vn -0.981453 0.153288 -0.115118
vn -0.981454 0.153284 -0.115120
vn -0.981455 0.153272 -0.115124
vn -0.981454 0.153277 -0.115122
vn -0.998098 0.060752 -0.010482
vn -0.998098 0.060747 -0.010472
vn 0.759959 0.594490 0.262764
vn 0.166883 0.985892 0.012943
vn 0.166905 0.985888 0.012954
vn 0.166937 0.985882 0.012970
vn 0.166917 0.985886 0.012960
vn 0.490360 -0.800808 0.343880
vn -0.545726 -0.802434 0.241418
vn 0.650086 -0.715506 0.255810
vn -0.623929 -0.685532 0.375178
vn -0.307593 0.920445 0.241177
vn 0.656797 0.675984 0.334161
vn -0.446525 0.782318 0.434275
vn 0.419557 0.886352 0.195837
vn 0.985905 -0.167060 0.009131
vn 0.985914 -0.167001 0.009219
vn 0.985910 -0.167024 0.009185
vn 0.985908 -0.167037 0.009165
vn 0.166905 0.985888 0.012953
vn -0.515649 0.335003 0.788593
vn -0.478980 0.609872 0.631375
vn -0.318836 0.899361 0.299154
vn -0.155461 0.962644 0.221693
vn 0.294843 0.160096 0.942038
vn -0.189450 0.771487 0.607385
vn -0.258359 0.444804 0.857555
vn 0.776432 0.355990 0.520024
vn 0.390014 0.600170 0.698345
vn 0.166894 0.985889 0.012978
vn 0.166897 0.985889 0.012972
vn 0.166902 0.985888 0.012960
vn 0.166901 0.985888 0.012967
vn 0.166899 0.985889 0.012970
vn 0.166893 0.985889 0.012980
vn 0.166896 0.985889 0.012976
vn 0.711865 -0.280555 0.643845
vn -0.041775 0.838983 0.542552
vn 0.707942 0.508051 0.490614
vn -0.620478 -0.769572 0.150883
vn -0.984957 0.049825 -0.165458
vn -0.982012 0.000474 -0.188817
vn -0.972226 -0.072769 -0.222442
vn -0.979276 -0.025560 -0.200912
vn 0.274918 0.961092 0.026884
vn 0.316031 0.947401 0.050556
vn 0.399329 0.911387 0.099552
vn 0.363364 0.928358 0.078220
vn -0.987188 0.117895 0.107524
vn 0.386455 -0.739332 0.551398
vn 0.174914 -0.556463 0.812253
vn 0.499766 -0.666104 0.553660
vn -0.827219 -0.524598 0.201262
vn -0.966211 -0.171921 0.192040
vn -0.658826 0.742810 -0.119088
vn -0.658828 0.742809 -0.119085
vn -0.171255 -0.027908 0.984831
vn 0.461066 0.373729 0.804826
vn 0.576652 -0.150907 0.802932
vn -0.859947 0.409600 0.304499
vn -0.573364 0.726765 0.378241
vn -0.500493 0.776415 0.382997
vn -0.017302 0.704991 0.709006
vn -0.476894 0.533740 0.698351
vn -0.606297 -0.370353 0.703735
vn -0.392378 -0.714965 0.578674
vn -0.088894 -0.889319 0.448564
vn -0.820185 0.073685 0.567334
vn -0.604523 0.796551 -0.007635
vn -0.604531 0.796545 -0.007645
vn -0.604560 0.796523 -0.007681
vn -0.604548 0.796532 -0.007666
vn -0.945572 -0.318427 0.067066
vn -0.565947 0.384334 0.729377
vn -0.021141 -0.478596 0.877781
vn -0.233299 -0.682422 0.692728
vn -0.648913 -0.644937 0.403694
vn -0.663968 -0.721948 0.194774
vn -0.463993 0.222466 0.857449
vn -0.473204 -0.675198 0.565849
vn -0.144558 -0.390056 0.909373
vn -0.793287 0.341312 0.504185
vn -0.805733 -0.128816 0.578101
vn 0.805538 0.585389 0.091802
vn 0.805538 0.585389 0.091802
vn 0.805539 0.585389 0.091803
vn 0.805539 0.585389 0.091803
vn -0.607688 0.762805 0.221007
vn 0.445274 -0.735017 0.511352
vn 0.856869 -0.148191 0.493777
vn -0.569506 0.793276 -0.215349
vn -0.569508 0.793275 -0.215349
vn -0.569512 0.793271 -0.215352
vn -0.569511 0.793273 -0.215351
vn -0.658831 0.742807 -0.119080
vn -0.658830 0.742808 -0.119081
vn 0.918516 -0.100264 0.382460
vn 0.805547 0.585378 0.091799
vn 0.805550 0.585372 0.091803
vn 0.805555 0.585365 0.091809
vn 0.805552 0.585370 0.091805
vn -0.257267 -0.901732 0.347409
vn -0.975176 -0.179978 0.128998
vn -0.074321 -0.956161 0.283254
vn -0.964902 -0.037132 0.259973
vn 0.397669 0.879706 0.260726
vn 0.894119 0.032698 0.446635
vn 0.179486 0.885708 0.428144
vn 0.891285 0.343874 0.295571
vn 0.576046 -0.809999 0.109876
vn 0.576087 -0.809956 0.109977
vn 0.576071 -0.809973 0.109938
vn 0.576062 -0.809982 0.109916
vn 0.805541 0.585383 0.091819
vn -0.225655 0.628393 0.744447
vn 0.011760 0.792751 0.609432
vn 0.367883 0.874641 0.315700
vn 0.536676 0.802369 0.261119
vn 0.203679 -0.059023 0.977257
vn 0.331586 0.703926 0.628123
vn 0.023807 0.528588 0.848545
vn 0.731631 -0.272405 0.624909
vn 0.608501 0.178831 0.773141
vn 0.805539 0.585385 0.091824
vn 0.805540 0.585384 0.091823
vn 0.805541 0.585383 0.091820
vn 0.805546 0.585375 0.091822
vn 0.805547 0.585374 0.091820
vn 0.805551 0.585370 0.091812
vn 0.805550 0.585372 0.091816
vn 0.696600 0.502399 0.512194
vn -0.647346 0.410131 0.642445
vn -0.005801 0.888613 0.458621
vn 0.379900 -0.915813 0.130238
vn -0.552667 -0.832629 -0.035879
vn -0.512912 -0.855954 -0.065307
vn -0.451075 -0.885851 -0.108623
vn -0.491316 -0.867230 -0.080755
vn -0.683290 0.721712 0.110664
vn -0.647433 0.751420 0.127269
vn -0.567518 0.807484 0.160911
vn -0.603272 0.783986 0.146385
vn -0.566206 -0.788070 0.241573
vn 0.914308 -0.013324 0.404801
vn 0.698021 -0.092293 0.710105
vn 0.907530 0.121382 0.402065
vn 0.077600 -0.968809 0.235345
vn -0.293742 -0.911892 0.286650
vn -0.978127 -0.200641 0.054875
vn -0.978130 -0.200631 0.054857
vn 0.105215 -0.117605 0.987471
vn 0.040991 0.622068 0.781889
vn 0.546157 0.457999 0.701391
vn -0.720434 -0.522751 0.455748
vn -0.839138 -0.112532 0.532151
vn -0.845159 -0.024499 0.533954
vn -0.492785 0.371368 0.786924
vn -0.573044 -0.111941 0.811843
vn 0.138062 -0.677974 0.722004
vn 0.516702 -0.672193 0.530260
vn 0.792619 -0.503761 0.343482
vn -0.369482 -0.645461 0.668478
vn -0.978844 -0.121711 0.164471
vn -0.978844 -0.121709 0.164472
vn -0.978844 -0.121702 0.164478
vn -0.978844 -0.121705 0.164476
vn -0.179288 -0.973340 0.143055
vn -0.483597 -0.262541 0.834989
vn 0.546374 -0.219392 0.808296
vn 0.585900 -0.513352 0.627050
vn 0.301901 -0.866289 0.397994
vn 0.325321 -0.927395 0.184672
vn -0.273695 -0.250145 0.928719
vn 0.440955 -0.722527 0.532461
vn 0.415465 -0.279996 0.865442
vn -0.595884 -0.490544 0.635837
vn -0.187329 -0.734324 0.652438
vn -0.091115 0.993823 0.063355
vn -0.091107 0.993823 0.063362
vn -0.091091 0.993824 0.063376
vn -0.091098 0.993824 0.063370
vn -0.913155 -0.131100 0.385953
vn 0.932705 0.037831 0.358650
vn 0.629150 0.687383 0.362870
vn -0.993732 -0.102435 -0.044760
vn -0.993730 -0.102450 -0.044766
vn -0.993724 -0.102503 -0.044790
vn -0.993726 -0.102481 -0.044780
vn -0.978136 -0.200609 0.054820
vn -0.978134 -0.200616 0.054832
vn 0.599629 0.759714 0.251554
vn -0.091074 0.993825 0.063376
vn -0.091064 0.993826 0.063380
vn -0.091049 0.993827 0.063386
vn -0.091058 0.993827 0.063383
vn 0.703878 -0.659831 0.263020
vn -0.301821 -0.926509 0.224687
vn 0.829239 -0.532187 0.170704
vn -0.397054 -0.839925 0.369964
vn -0.514257 0.797315 0.315958
vn 0.484716 0.808361 0.334069
vn -0.598147 0.619514 0.508353
vn 0.191721 0.955581 0.223847
vn 0.993548 0.094984 -0.061968
vn 0.993548 0.095007 -0.061931
vn 0.993548 0.094998 -0.061945
vn 0.993548 0.094993 -0.061953
vn -0.091064 0.993824 0.063412
vn -0.523300 0.154627 0.838002
vn -0.570338 0.436140 0.696058
vn -0.515314 0.771524 0.373098
vn -0.379972 0.878445 0.289751
vn 0.314147 0.190079 0.930151
vn -0.334595 0.668407 0.664288
vn -0.298303 0.324451 0.897634
vn 0.696103 0.522735 0.492127
vn 0.274595 0.649946 0.708638
vn -0.091062 0.993825 0.063406
vn -0.091063 0.993824 0.063408
vn -0.091064 0.993824 0.063411
vn -0.091057 0.993829 0.063342
vn -0.091061 0.993828 0.063350
vn -0.091073 0.993825 0.063378
vn -0.091068 0.993827 0.063366
vn 0.832630 -0.210671 0.512197
vn -0.101934 0.759515 0.642454
vn 0.676991 0.575637 0.458612
vn -0.457332 -0.879706 0.130250
vn -0.993078 -0.111848 -0.035876
vn -0.985390 -0.157295 -0.065304
vn -0.968545 -0.223879 -0.108621
vn -0.980147 -0.181084 -0.080752
vn 0.113675 0.987333 0.110686
vn 0.159462 0.978964 0.127284
vn 0.253740 0.953794 0.160912
vn 0.212774 0.966073 0.146392
vn -0.967647 -0.072830 0.241568
vn 0.577488 -0.708980 0.404791
vn 0.377978 -0.594039 0.710105
vn 0.676342 -0.617165 0.402079
vn -0.692273 -0.682182 0.235342
vn -0.887370 -0.361123 0.286645
vn -0.782418 0.620334 0.054841
vn -0.782415 0.620338 0.054834
vn -0.022460 -0.156188 0.987472
vn 0.502877 0.368476 0.781882
vn 0.701910 -0.123969 0.701394
vn -0.863538 0.215875 0.455742
vn -0.625590 0.570481 0.532156
vn -0.562027 0.631675 0.533959
vn -0.032279 0.616205 0.786924
vn -0.454096 0.367021 0.811845
vn -0.430611 -0.541556 0.722005
vn -0.182804 -0.827896 0.530255
vn 0.123599 -0.930994 0.343472
vn -0.731952 -0.131859 0.668475
vn -0.722416 0.671609 0.164488
vn -0.722414 0.671610 0.164490
vn -0.722408 0.671616 0.164497
vn -0.722411 0.671613 0.164494
vn -0.860858 -0.488323 0.143052
vn -0.511962 0.201699 0.834993
vn 0.183139 -0.559580 0.808288
vn -0.016650 -0.778796 0.627056
vn -0.469577 -0.788088 0.398015
vn -0.501318 -0.845324 0.184681
vn -0.367545 0.048875 0.928721
vn -0.270048 -0.802225 0.532455
vn 0.052566 -0.498266 0.865429
vn -0.758801 0.141163 0.635841
vn -0.682940 -0.328507 0.652439
vn 0.702753 0.708607 0.063368
vn 0.702758 0.708600 0.063375
vn 0.702770 0.708588 0.063390
vn 0.702765 0.708593 0.063383
vn -0.687404 0.615242 0.385944
vn 0.628495 -0.690189 0.358656
vn 0.930976 -0.040131 0.362869
vn -0.717231 0.695396 -0.044767
vn -0.717236 0.695390 -0.044770
vn -0.717256 0.695370 -0.044783
vn -0.717248 0.695378 -0.044778
vn -0.782410 0.620346 0.054818
vn -0.782412 0.620344 0.054823
vn 0.967410 0.028977 0.251551
vn 0.702765 0.708593 0.063384
vn 0.702772 0.708585 0.063388
vn 0.702783 0.708574 0.063394
vn 0.702776 0.708581 0.063390
vn -0.053034 -0.963333 0.263014
vn -0.903756 -0.364339 0.224684
vn 0.125355 -0.977319 0.170687
vn -0.898643 -0.235748 0.369950
vn 0.280220 0.906453 0.315943
vn 0.930811 0.148281 0.334072
vn 0.090085 0.856423 0.508354
vn 0.855253 0.467369 0.223851
vn 0.711403 -0.700049 -0.061949
vn 0.711421 -0.700034 -0.061910
vn 0.711414 -0.700040 -0.061925
vn 0.711410 -0.700043 -0.061934
vn 0.702774 0.708582 0.063407
vn -0.217916 0.500247 0.838013
vn -0.032499 0.717236 0.696072
vn 0.259783 0.890673 0.373115
vn 0.428682 0.855725 0.289769
vn 0.347542 -0.118473 0.930150
vn 0.296952 0.685952 0.664297
vn 0.056808 0.437059 0.897637
vn 0.847881 -0.197255 0.492126
vn 0.674395 0.207431 0.708636
vn 0.702779 0.708578 0.063390
vn 0.702778 0.708579 0.063395
vn 0.702776 0.708581 0.063402
vn 0.702781 0.708577 0.063375
vn 0.702780 0.708578 0.063378
vn 0.702776 0.708581 0.063389
vn 0.702778 0.708580 0.063384
vn 0.802890 0.304987 0.512201
vn -0.519142 0.563698 0.642445
vn 0.224382 0.859845 0.458607
vn 0.130017 -0.982912 0.130303
vn -0.749339 -0.661214 -0.035873
vn -0.716974 -0.694034 -0.065304
vn -0.664987 -0.738914 -0.108621
vn -0.699037 -0.710511 -0.080750
vn -0.473193 0.873972 0.110731
vn -0.430901 0.893372 0.127322
vn -0.339265 0.926821 0.160939
vn -0.379851 0.913385 0.146425
vn -0.750880 -0.614679 0.241555
vn 0.879706 -0.249519 0.404793
vn 0.650342 -0.269811 0.710111
vn 0.908015 -0.117645 0.402079
vn -0.175789 -0.955878 0.235363
vn -0.519749 -0.804794 0.286649
vn -0.996728 0.059354 0.054859
vn -0.996729 0.059362 0.054846
vn 0.071194 -0.140833 0.987470
vn 0.200577 0.590290 0.781873
vn 0.646088 0.301026 0.701394
vn -0.831190 -0.318463 0.455745
vn -0.839670 0.108490 0.532150
vn -0.822702 0.195076 0.533953
vn -0.379893 0.486249 0.786920
vn -0.582491 0.040189 0.811843
vn -0.042099 -0.690601 0.722009
vn 0.325133 -0.783005 0.530276
vn 0.635280 -0.691700 0.343469
vn -0.523946 -0.527843 0.668478
vn -0.976987 0.135788 0.164491
vn -0.976988 0.135785 0.164488
vn -0.976992 0.135774 0.164477
vn -0.976990 0.135779 0.164482
vn -0.425072 -0.893787 0.143037
vn -0.535065 -0.128434 0.834991
vn 0.470976 -0.353359 0.808281
vn 0.433047 -0.647522 0.627046
vn 0.067347 -0.914901 0.398020
vn 0.074199 -0.979993 0.184683
vn -0.329113 -0.170776 0.928720
vn 0.238935 -0.812041 0.532447
vn 0.328849 -0.378015 0.865426
vn -0.702542 -0.319598 0.635839
vn -0.370994 -0.660834 0.652428
vn 0.169219 0.983540 0.063358
vn 0.169230 0.983537 0.063369
vn 0.169252 0.983532 0.063388
vn 0.169243 0.983534 0.063380
vn -0.915982 0.109675 0.385939
vn 0.910708 -0.204887 0.358653
vn 0.785638 0.501097 0.362871
vn -0.986383 0.158261 -0.044752
vn -0.986385 0.158242 -0.044760
vn -0.986395 0.158171 -0.044792
vn -0.986391 0.158200 -0.044779
vn -0.996729 0.059379 0.054819
vn -0.996729 0.059374 0.054828
vn 0.775835 0.578622 0.251548
vn 0.169246 0.983532 0.063402
vn 0.169251 0.983531 0.063405
vn 0.169259 0.983530 0.063408
vn 0.169254 0.983531 0.063406
vn 0.509103 -0.819536 0.263011
vn -0.531333 -0.816823 0.224687
vn 0.663248 -0.728675 0.170691
vn -0.600907 -0.708553 0.369951
vn -0.290391 0.903242 0.315954
vn 0.677431 0.655348 0.334074
vn -0.417433 0.753207 0.508359
vn 0.432519 0.873395 0.223851
vn 0.984277 -0.165406 -0.061961
vn 0.984287 -0.165371 -0.061902
vn 0.984283 -0.165384 -0.061925
vn 0.984281 -0.165392 -0.061938
vn 0.169252 0.983531 0.063400
vn -0.465439 0.284783 0.838013
vn -0.438018 0.568882 0.696070
vn -0.298099 0.878601 0.373092
vn -0.139677 0.946854 0.289755
vn 0.352643 0.102296 0.930150
vn -0.150196 0.732227 0.664293
vn -0.204159 0.390607 0.897633
vn 0.807679 0.324761 0.492122
vn 0.433454 0.556733 0.708637
vn 0.169255 0.983531 0.063393
vn 0.169254 0.983532 0.063395
vn 0.169253 0.983531 0.063398
vn 0.169261 0.983528 0.063434
vn 0.169264 0.983528 0.063426
vn 0.169278 0.983527 0.063397
vn 0.169272 0.983527 0.063409
g fff0af20_00182_0057a928_e1
f 90/1/90 89/19/89 88/18/88
f 78/17/78 89/19/89 90/1/90
f 77/1/77 76/19/76 75/18/75
f 74/17/74 76/19/76 77/1/77
f 184/78/184 183/79/183 182/80/182
f 172/81/172 183/79/183 184/78/184
f 171/78/171 170/79/170 169/80/169
f 168/81/168 170/79/170 171/78/171
f 278/155/278 277/156/277 276/157/276
f 266/158/266 277/156/277 278/155/278
f 265/155/265 264/156/264 263/157/263
f 262/158/262 264/156/264 265/155/265
f 372/232/372 371/233/371 370/234/370
f 360/235/360 371/233/371 372/232/372
f 359/232/359 358/233/358 357/234/357
f 356/235/356 358/233/358 359/232/359
f 466/309/466 465/310/465 464/311/464
f 454/312/454 465/310/465 466/309/466
f 453/309/453 452/310/452 451/311/451
f 450/312/450 452/310/452 453/309/453
f 560/386/560 559/387/559 558/388/558
f 548/389/548 559/387/559 560/386/560
f 547/386/547 546/387/546 545/388/545
f 544/389/544 546/387/546 547/386/547
f 654/463/654 653/464/653 652/465/652
f 642/466/642 653/464/653 654/463/654
f 641/463/641 640/464/640 639/465/639
f 638/466/638 640/464/640 641/463/641
f 748/540/748 747/541/747 746/542/746
f 736/543/736 747/541/747 748/540/748
f 735/540/735 734/541/734 733/542/733
f 732/543/732 734/541/734 735/540/735
g fff0af20_00182_0057a928_e4
f 5/33/5 8/36/8 6/34/6
f 72/24/72 71/23/71 70/22/70
f 71/23/71 72/24/72 54/27/54
f 70/22/70 52/21/52 72/20/72
f 71/23/71 54/27/54 53/25/53
f 8/36/8 7/35/7 6/34/6
f 69/27/69 72/26/72 52/25/52
f 68/24/68 67/23/67 66/22/66
f 67/23/67 68/24/68 69/27/69
f 66/22/66 53/21/53 54/20/54
f 67/23/67 69/27/69 52/25/52
f 68/24/68 66/22/66 54/20/54
f 65/9/65 64/8/64 63/6/63
f 62/13/62 65/9/65 63/6/63
f 51/10/51 50/5/50 49/14/49
f 48/4/48 51/10/51 49/14/49
f 12/36/12 11/35/11 10/34/10
f 9/33/9 12/36/12 10/34/10
f 99/82/99 102/83/102 100/84/100
f 166/85/166 165/86/165 164/87/164
f 165/86/165 166/85/166 148/88/148
f 164/87/164 146/89/146 166/90/166
f 165/86/165 148/88/148 147/91/147
f 102/83/102 101/92/101 100/84/100
f 163/88/163 166/93/166 146/91/146
f 162/85/162 161/86/161 160/87/160
f 161/86/161 162/85/162 163/88/163
f 160/87/160 147/89/147 148/90/148
f 161/86/161 163/88/163 146/91/146
f 162/85/162 160/87/160 148/90/148
f 159/94/159 158/95/158 157/96/157
f 156/97/156 159/94/159 157/96/157
f 145/98/145 144/99/144 143/100/143
f 142/101/142 145/98/145 143/100/143
f 106/83/106 105/92/105 104/84/104
f 103/82/103 106/83/106 104/84/104
f 193/159/193 196/160/196 194/161/194
f 260/162/260 259/163/259 258/164/258
f 259/163/259 260/162/260 242/165/242
f 258/164/258 240/166/240 260/167/260
f 259/163/259 242/165/242 241/168/241
f 196/160/196 195/169/195 194/161/194
f 257/165/257 260/170/260 240/168/240
f 256/162/256 255/163/255 254/164/254
f 255/163/255 256/162/256 257/165/257
f 254/164/254 241/166/241 242/167/242
f 255/163/255 257/165/257 240/168/240
f 256/162/256 254/164/254 242/167/242
f 253/171/253 252/172/252 251/173/251
f 250/174/250 253/171/253 251/173/251
f 239/175/239 238/176/238 237/177/237
f 236/178/236 239/175/239 237/177/237
f 200/160/200 199/169/199 198/161/198
f 197/159/197 200/160/200 198/161/198
f 287/236/287 290/237/290 288/238/288
f 354/239/354 353/240/353 352/241/352
f 353/240/353 354/239/354 336/242/336
f 352/241/352 334/243/334 354/244/354
f 353/240/353 336/242/336 335/245/335
f 290/237/290 289/246/289 288/238/288
f 351/242/351 354/247/354 334/245/334
f 350/239/350 349/240/349 348/241/348
f 349/240/349 350/239/350 351/242/351
f 348/241/348 335/243/335 336/244/336
f 349/240/349 351/242/351 334/245/334
f 350/239/350 348/241/348 336/244/336
f 347/248/347 346/249/346 345/250/345
f 344/251/344 347/248/347 345/250/345
f 333/252/333 332/253/332 331/254/331
f 330/255/330 333/252/333 331/254/331
f 294/237/294 293/246/293 292/238/292
f 291/236/291 294/237/294 292/238/292
f 381/313/381 384/314/384 382/315/382
f 448/316/448 447/317/447 446/318/446
f 447/317/447 448/316/448 430/319/430
f 446/318/446 428/320/428 448/321/448
f 447/317/447 430/319/430 429/322/429
f 384/314/384 383/323/383 382/315/382
f 445/319/445 448/324/448 428/322/428
f 444/316/444 443/317/443 442/318/442
f 443/317/443 444/316/444 445/319/445
f 442/318/442 429/320/429 430/321/430
f 443/317/443 445/319/445 428/322/428
f 444/316/444 442/318/442 430/321/430
f 441/325/441 440/326/440 439/327/439
f 438/328/438 441/325/441 439/327/439
f 427/329/427 426/330/426 425/331/425
f 424/332/424 427/329/427 425/331/425
f 388/314/388 387/323/387 386/315/386
f 385/313/385 388/314/388 386/315/386
f 475/390/475 478/391/478 476/392/476
f 542/393/542 541/394/541 540/395/540
f 541/394/541 542/393/542 524/396/524
f 540/395/540 522/397/522 542/398/542
f 541/394/541 524/396/524 523/399/523
f 478/391/478 477/400/477 476/392/476
f 539/396/539 542/401/542 522/399/522
f 538/393/538 537/394/537 536/395/536
f 537/394/537 538/393/538 539/396/539
f 536/395/536 523/397/523 524/398/524
f 537/394/537 539/396/539 522/399/522
f 538/393/538 536/395/536 524/398/524
f 535/402/535 534/403/534 533/404/533
f 532/405/532 535/402/535 533/404/533
f 521/406/521 520/407/520 519/408/519
f 518/409/518 521/406/521 519/408/519
f 482/391/482 481/400/481 480/392/480
f 479/390/479 482/391/482 480/392/480
f 569/467/569 572/468/572 570/469/570
f 636/470/636 635/471/635 634/472/634
f 635/471/635 636/470/636 618/473/618
f 634/472/634 616/474/616 636/475/636
f 635/471/635 618/473/618 617/476/617
f 572/468/572 571/477/571 570/469/570
f 633/473/633 636/478/636 616/476/616
f 632/470/632 631/471/631 630/472/630
f 631/471/631 632/470/632 633/473/633
f 630/472/630 617/474/617 618/475/618
f 631/471/631 633/473/633 616/476/616
f 632/470/632 630/472/630 618/475/618
f 629/479/629 628/480/628 627/481/627
f 626/482/626 629/479/629 627/481/627
f 615/483/615 614/484/614 613/485/613
f 612/486/612 615/483/615 613/485/613
f 576/468/576 575/477/575 574/469/574
f 573/467/573 576/468/576 574/469/574
f 663/544/663 666/545/666 664/546/664
f 730/547/730 729/548/729 728/549/728
f 729/548/729 730/547/730 712/550/712
f 728/549/728 710/551/710 730/552/730
f 729/548/729 712/550/712 711/553/711
f 666/545/666 665/554/665 664/546/664
f 727/550/727 730/555/730 710/553/710
f 726/547/726 725/548/725 724/549/724
f 725/548/725 726/547/726 727/550/727
f 724/549/724 711/551/711 712/552/712
f 725/548/725 727/550/727 710/553/710
f 726/547/726 724/549/724 712/552/712
f 723/556/723 722/557/722 721/558/721
f 720/559/720 723/556/723 721/558/721
f 709/560/709 708/561/708 707/562/707
f 706/563/706 709/560/709 707/562/707
f 670/545/670 669/554/669 668/546/668
f 667/544/667 670/545/670 668/546/668
g fff0af20_00182_0057a928_e5
f 87/57/87 86/58/86 61/59/61
f 36/48/36 35/47/35 34/46/34
f 87/57/87 84/68/84 83/62/83
f 82/63/82 81/64/81 80/65/80
f 87/57/87 83/62/83 86/58/86
f 79/66/79 84/61/84 80/65/80
f 33/45/33 36/48/36 34/46/34
f 73/67/73 84/68/84 87/57/87
f 73/67/73 87/57/87 61/59/61
f 37/77/37 42/2/42 44/3/44
f 84/61/84 82/63/82 80/65/80
f 85/60/85 84/61/84 79/66/79
f 83/62/83 84/68/84 85/60/85
f 73/67/73 82/69/82 84/68/84
f 45/71/45 44/11/44 39/75/39
f 44/11/44 42/73/42 40/7/40
f 55/45/55 58/48/58 56/46/56
f 58/48/58 57/47/57 56/46/56
f 94/48/94 93/47/93 92/46/92
f 91/45/91 94/48/94 92/46/92
f 59/45/59 20/48/20 60/46/60
f 20/48/20 19/47/19 60/46/60
f 18/32/18 17/31/17 32/56/32
f 31/55/31 30/54/30 4/30/4
f 30/54/30 29/53/29 17/31/17
f 28/52/28 27/51/27 26/44/26
f 25/43/25 24/42/24 32/56/32
f 23/50/23 3/41/3 22/40/22
f 3/41/3 2/29/2 27/51/27
f 1/28/1 3/41/3 23/50/23
f 28/52/28 26/44/26 25/43/25
f 23/50/23 22/40/22 21/39/21
f 27/51/27 2/29/2 26/44/26
f 16/38/16 23/50/23 15/49/15
f 24/42/24 18/32/18 32/56/32
f 15/49/15 21/39/21 29/53/29
f 25/43/25 32/56/32 28/52/28
f 14/37/14 15/49/15 30/54/30
f 21/39/21 32/56/32 29/53/29
f 32/56/32 17/31/17 29/53/29
f 21/39/21 27/51/27 28/52/28
f 28/52/28 32/56/32 21/39/21
f 21/39/21 22/40/22 27/51/27
f 22/40/22 3/41/3 27/51/27
f 1/28/1 23/50/23 16/38/16
f 15/49/15 23/50/23 21/39/21
f 16/38/16 15/49/15 14/37/14
f 30/54/30 15/49/15 29/53/29
f 4/30/4 30/54/30 17/31/17
f 14/37/14 30/54/30 31/55/31
f 47/16/47 46/15/46 13/70/13
f 47/16/47 44/3/44 45/12/45
f 47/16/47 45/12/45 43/72/43
f 42/73/42 41/74/41 40/7/40
f 47/16/47 43/72/43 46/15/46
f 39/75/39 44/11/44 40/7/40
f 43/72/43 38/76/38 46/15/46
f 37/77/37 44/3/44 47/16/47
f 37/77/37 47/16/47 13/70/13
f 181/102/181 180/103/180 155/104/155
f 130/105/130 129/106/129 128/107/128
f 181/102/181 178/108/178 177/109/177
f 176/110/176 175/111/175 174/112/174
f 181/102/181 177/109/177 180/103/180
f 173/113/173 178/114/178 174/112/174
f 127/115/127 130/105/130 128/107/128
f 167/116/167 178/108/178 181/102/181
f 167/116/167 181/102/181 155/104/155
f 131/117/131 136/118/136 138/119/138
f 178/114/178 176/110/176 174/112/174
f 179/120/179 178/114/178 173/113/173
f 177/109/177 178/108/178 179/120/179
f 167/116/167 176/121/176 178/108/178
f 139/122/139 138/123/138 133/124/133
f 138/123/138 136/125/136 134/126/134
f 149/115/149 152/105/152 150/107/150
f 152/105/152 151/106/151 150/107/150
f 188/105/188 187/106/187 186/107/186
f 185/115/185 188/105/188 186/107/186
f 153/115/153 114/105/114 154/107/154
f 114/105/114 113/106/113 154/107/154
f 112/127/112 111/128/111 126/129/126
f 125/130/125 124/131/124 98/132/98
f 124/131/124 123/133/123 111/128/111
f 122/134/122 121/135/121 120/136/120
f 119/137/119 118/138/118 126/129/126
f 117/139/117 97/140/97 116/141/116
f 97/140/97 96/142/96 121/135/121
f 95/143/95 97/140/97 117/139/117
f 122/134/122 120/136/120 119/137/119
f 117/139/117 116/141/116 115/144/115
f 121/135/121 96/142/96 120/136/120
f 110/145/110 117/139/117 109/146/109
f 118/138/118 112/127/112 126/129/126
f 109/146/109 115/144/115 123/133/123
f 119/137/119 126/129/126 122/134/122
f 108/147/108 109/146/109 124/131/124
f 115/144/115 126/129/126 123/133/123
f 126/129/126 111/128/111 123/133/123
f 115/144/115 121/135/121 122/134/122
f 122/134/122 126/129/126 115/144/115
f 115/144/115 116/141/116 121/135/121
f 116/141/116 97/140/97 121/135/121
f 95/143/95 117/139/117 110/145/110
f 109/146/109 117/139/117 115/144/115
f 110/145/110 109/146/109 108/147/108
f 124/131/124 109/146/109 123/133/123
f 98/132/98 124/131/124 111/128/111
f 108/147/108 124/131/124 125/130/125
f 141/148/141 140/149/140 107/150/107
f 141/148/141 138/119/138 139/151/139
f 141/148/141 139/151/139 137/152/137
f 136/125/136 135/153/135 134/126/134
f 141/148/141 137/152/137 140/149/140
f 133/124/133 138/123/138 134/126/134
f 137/152/137 132/154/132 140/149/140
f 131/117/131 138/119/138 141/148/141
f 131/117/131 141/148/141 107/150/107
f 275/179/275 274/180/274 249/181/249
f 224/182/224 223/183/223 222/184/222
f 275/179/275 272/185/272 271/186/271
f 270/187/270 269/188/269 268/189/268
f 275/179/275 271/186/271 274/180/274
f 267/190/267 272/191/272 268/189/268
f 221/192/221 224/182/224 222/184/222
f 261/193/261 272/185/272 275/179/275
f 261/193/261 275/179/275 249/181/249
f 225/194/225 230/195/230 232/196/232
f 272/191/272 270/187/270 268/189/268
f 273/197/273 272/191/272 267/190/267
f 271/186/271 272/185/272 273/197/273
f 261/193/261 270/198/270 272/185/272
f 233/199/233 232/200/232 227/201/227
f 232/200/232 230/202/230 228/203/228
f 243/192/243 246/182/246 244/184/244
f 246/182/246 245/183/245 244/184/244
f 282/182/282 281/183/281 280/184/280
f 279/192/279 282/182/282 280/184/280
f 247/192/247 208/182/208 248/184/248
f 208/182/208 207/183/207 248/184/248
f 206/204/206 205/205/205 220/206/220
f 219/207/219 218/208/218 192/209/192
f 218/208/218 217/210/217 205/205/205
f 216/211/216 215/212/215 214/213/214
f 213/214/213 212/215/212 220/206/220
f 211/216/211 191/217/191 210/218/210
f 191/217/191 190/219/190 215/212/215
f 189/220/189 191/217/191 211/216/211
f 216/211/216 214/213/214 213/214/213
f 211/216/211 210/218/210 209/221/209
f 215/212/215 190/219/190 214/213/214
f 204/222/204 211/216/211 203/223/203
f 212/215/212 206/204/206 220/206/220
f 203/223/203 209/221/209 217/210/217
f 213/214/213 220/206/220 216/211/216
f 202/224/202 203/223/203 218/208/218
f 209/221/209 220/206/220 217/210/217
f 220/206/220 205/205/205 217/210/217
f 209/221/209 215/212/215 216/211/216
f 216/211/216 220/206/220 209/221/209
f 209/221/209 210/218/210 215/212/215
f 210/218/210 191/217/191 215/212/215
f 189/220/189 211/216/211 204/222/204
f 203/223/203 211/216/211 209/221/209
f 204/222/204 203/223/203 202/224/202
f 218/208/218 203/223/203 217/210/217
f 192/209/192 218/208/218 205/205/205
f 202/224/202 218/208/218 219/207/219
f 235/225/235 234/226/234 201/227/201
f 235/225/235 232/196/232 233/228/233
f 235/225/235 233/228/233 231/229/231
f 230/202/230 229/230/229 228/203/228
f 235/225/235 231/229/231 234/226/234
f 227/201/227 232/200/232 228/203/228
f 231/229/231 226/231/226 234/226/234
f 225/194/225 232/196/232 235/225/235
f 225/194/225 235/225/235 201/227/201
f 369/256/369 368/257/368 343/258/343
f 318/259/318 317/260/317 316/261/316
f 369/256/369 366/262/366 365/263/365
f 364/264/364 363/265/363 362/266/362
f 369/256/369 365/263/365 368/257/368
f 361/267/361 366/268/366 362/266/362
f 315/269/315 318/259/318 316/261/316
f 355/270/355 366/262/366 369/256/369
f 355/270/355 369/256/369 343/258/343
f 319/271/319 324/272/324 326/273/326
f 366/268/366 364/264/364 362/266/362
f 367/274/367 366/268/366 361/267/361
f 365/263/365 366/262/366 367/274/367
f 355/270/355 364/275/364 366/262/366
f 327/276/327 326/277/326 321/278/321
f 326/277/326 324/279/324 322/280/322
f 337/269/337 340/259/340 338/261/338
f 340/259/340 339/260/339 338/261/338
f 376/259/376 375/260/375 374/261/374
f 373/269/373 376/259/376 374/261/374
f 341/269/341 302/259/302 342/261/342
f 302/259/302 301/260/301 342/261/342
f 300/281/300 299/282/299 314/283/314
f 313/284/313 312/285/312 286/286/286
f 312/285/312 311/287/311 299/282/299
f 310/288/310 309/289/309 308/290/308
f 307/291/307 306/292/306 314/283/314
f 305/293/305 285/294/285 304/295/304
f 285/294/285 284/296/284 309/289/309
f 283/297/283 285/294/285 305/293/305
f 310/288/310 308/290/308 307/291/307
f 305/293/305 304/295/304 303/298/303
f 309/289/309 284/296/284 308/290/308
f 298/299/298 305/293/305 297/300/297
f 306/292/306 300/281/300 314/283/314
f 297/300/297 303/298/303 311/287/311
f 307/291/307 314/283/314 310/288/310
f 296/301/296 297/300/297 312/285/312
f 303/298/303 314/283/314 311/287/311
f 314/283/314 299/282/299 311/287/311
f 303/298/303 309/289/309 310/288/310
f 310/288/310 314/283/314 303/298/303
f 303/298/303 304/295/304 309/289/309
f 304/295/304 285/294/285 309/289/309
f 283/297/283 305/293/305 298/299/298
f 297/300/297 305/293/305 303/298/303
f 298/299/298 297/300/297 296/301/296
f 312/285/312 297/300/297 311/287/311
f 286/286/286 312/285/312 299/282/299
f 296/301/296 312/285/312 313/284/313
f 329/302/329 328/303/328 295/304/295
f 329/302/329 326/273/326 327/305/327
f 329/302/329 327/305/327 325/306/325
f 324/279/324 323/307/323 322/280/322
f 329/302/329 325/306/325 328/303/328
f 321/278/321 326/277/326 322/280/322
f 325/306/325 320/308/320 328/303/328
f 319/271/319 326/273/326 329/302/329
f 319/271/319 329/302/329 295/304/295
f 463/333/463 462/334/462 437/335/437
f 412/336/412 411/337/411 410/338/410
f 463/333/463 460/339/460 459/340/459
f 458/341/458 457/342/457 456/343/456
f 463/333/463 459/340/459 462/334/462
f 455/344/455 460/345/460 456/343/456
f 409/346/409 412/336/412 410/338/410
f 449/347/449 460/339/460 463/333/463
f 449/347/449 463/333/463 437/335/437
f 413/348/413 418/349/418 420/350/420
f 460/345/460 458/341/458 456/343/456
f 461/351/461 460/345/460 455/344/455
f 459/340/459 460/339/460 461/351/461
f 449/347/449 458/352/458 460/339/460
f 421/353/421 420/354/420 415/355/415
f 420/354/420 418/356/418 416/357/416
f 431/346/431 434/336/434 432/338/432
f 434/336/434 433/337/433 432/338/432
f 470/336/470 469/337/469 468/338/468
f 467/346/467 470/336/470 468/338/468
f 435/346/435 396/336/396 436/338/436
f 396/336/396 395/337/395 436/338/436
f 394/358/394 393/359/393 408/360/408
f 407/361/407 406/362/406 380/363/380
f 406/362/406 405/364/405 393/359/393
f 404/365/404 403/366/403 402/367/402
f 401/368/401 400/369/400 408/360/408
f 399/370/399 379/371/379 398/372/398
f 379/371/379 378/373/378 403/366/403
f 377/374/377 379/371/379 399/370/399
f 404/365/404 402/367/402 401/368/401
f 399/370/399 398/372/398 397/375/397
f 403/366/403 378/373/378 402/367/402
f 392/376/392 399/370/399 391/377/391
f 400/369/400 394/358/394 408/360/408
f 391/377/391 397/375/397 405/364/405
f 401/368/401 408/360/408 404/365/404
f 390/378/390 391/377/391 406/362/406
f 397/375/397 408/360/408 405/364/405
f 408/360/408 393/359/393 405/364/405
f 397/375/397 403/366/403 404/365/404
f 404/365/404 408/360/408 397/375/397
f 397/375/397 398/372/398 403/366/403
f 398/372/398 379/371/379 403/366/403
f 377/374/377 399/370/399 392/376/392
f 391/377/391 399/370/399 397/375/397
f 392/376/392 391/377/391 390/378/390
f 406/362/406 391/377/391 405/364/405
f 380/363/380 406/362/406 393/359/393
f 390/378/390 406/362/406 407/361/407
f 423/379/423 422/380/422 389/381/389
f 423/379/423 420/350/420 421/382/421
f 423/379/423 421/382/421 419/383/419
f 418/356/418 417/384/417 416/357/416
f 423/379/423 419/383/419 422/380/422
f 415/355/415 420/354/420 416/357/416
f 419/383/419 414/385/414 422/380/422
f 413/348/413 420/350/420 423/379/423
f 413/348/413 423/379/423 389/381/389
f 557/410/557 556/411/556 531/412/531
f 506/413/506 505/414/505 504/415/504
f 557/410/557 554/416/554 553/417/553
f 552/418/552 551/419/551 550/420/550
f 557/410/557 553/417/553 556/411/556
f 549/421/549 554/422/554 550/420/550
f 503/423/503 506/413/506 504/415/504
f 543/424/543 554/416/554 557/410/557
f 543/424/543 557/410/557 531/412/531
f 507/425/507 512/426/512 514/427/514
f 554/422/554 552/418/552 550/420/550
f 555/428/555 554/422/554 549/421/549
f 553/417/553 554/416/554 555/428/555
f 543/424/543 552/429/552 554/416/554
f 515/430/515 514/431/514 509/432/509
f 514/431/514 512/433/512 510/434/510
f 525/423/525 528/413/528 526/415/526
f 528/413/528 527/414/527 526/415/526
f 564/413/564 563/414/563 562/415/562
f 561/423/561 564/413/564 562/415/562
f 529/423/529 490/413/490 530/415/530
f 490/413/490 489/414/489 530/415/530
f 488/435/488 487/436/487 502/437/502
f 501/438/501 500/439/500 474/440/474
f 500/439/500 499/441/499 487/436/487
f 498/442/498 497/443/497 496/444/496
f 495/445/495 494/446/494 502/437/502
f 493/447/493 473/448/473 492/449/492
f 473/448/473 472/450/472 497/443/497
f 471/451/471 473/448/473 493/447/493
f 498/442/498 496/444/496 495/445/495
f 493/447/493 492/449/492 491/452/491
f 497/443/497 472/450/472 496/444/496
f 486/453/486 493/447/493 485/454/485
f 494/446/494 488/435/488 502/437/502
f 485/454/485 491/452/491 499/441/499
f 495/445/495 502/437/502 498/442/498
f 484/455/484 485/454/485 500/439/500
f 491/452/491 502/437/502 499/441/499
f 502/437/502 487/436/487 499/441/499
f 491/452/491 497/443/497 498/442/498
f 498/442/498 502/437/502 491/452/491
f 491/452/491 492/449/492 497/443/497
f 492/449/492 473/448/473 497/443/497
f 471/451/471 493/447/493 486/453/486
f 485/454/485 493/447/493 491/452/491
f 486/453/486 485/454/485 484/455/484
f 500/439/500 485/454/485 499/441/499
f 474/440/474 500/439/500 487/436/487
f 484/455/484 500/439/500 501/438/501
f 517/456/517 516/457/516 483/458/483
f 517/456/517 514/427/514 515/459/515
f 517/456/517 515/459/515 513/460/513
f 512/433/512 511/461/511 510/434/510
f 517/456/517 513/460/513 516/457/516
f 509/432/509 514/431/514 510/434/510
f 513/460/513 508/462/508 516/457/516
f 507/425/507 514/427/514 517/456/517
f 507/425/507 517/456/517 483/458/483
f 651/487/651 650/488/650 625/489/625
f 600/490/600 599/491/599 598/492/598
f 651/487/651 648/493/648 647/494/647
f 646/495/646 645/496/645 644/497/644
f 651/487/651 647/494/647 650/488/650
f 643/498/643 648/499/648 644/497/644
f 597/500/597 600/490/600 598/492/598
f 637/501/637 648/493/648 651/487/651
f 637/501/637 651/487/651 625/489/625
f 601/502/601 606/503/606 608/504/608
f 648/499/648 646/495/646 644/497/644
f 649/505/649 648/499/648 643/498/643
f 647/494/647 648/493/648 649/505/649
f 637/501/637 646/506/646 648/493/648
f 609/507/609 608/508/608 603/509/603
f 608/508/608 606/510/606 604/511/604
f 619/500/619 622/490/622 620/492/620
f 622/490/622 621/491/621 620/492/620
f 658/490/658 657/491/657 656/492/656
f 655/500/655 658/490/658 656/492/656
f 623/500/623 584/490/584 624/492/624
f 584/490/584 583/491/583 624/492/624
f 582/512/582 581/513/581 596/514/596
f 595/515/595 594/516/594 568/517/568
f 594/516/594 593/518/593 581/513/581
f 592/519/592 591/520/591 590/521/590
f 589/522/589 588/523/588 596/514/596
f 587/524/587 567/525/567 586/526/586
f 567/525/567 566/527/566 591/520/591
f 565/528/565 567/525/567 587/524/587
f 592/519/592 590/521/590 589/522/589
f 587/524/587 586/526/586 585/529/585
f 591/520/591 566/527/566 590/521/590
f 580/530/580 587/524/587 579/531/579
f 588/523/588 582/512/582 596/514/596
f 579/531/579 585/529/585 593/518/593
f 589/522/589 596/514/596 592/519/592
f 578/532/578 579/531/579 594/516/594
f 585/529/585 596/514/596 593/518/593
f 596/514/596 581/513/581 593/518/593
f 585/529/585 591/520/591 592/519/592
f 592/519/592 596/514/596 585/529/585
f 585/529/585 586/526/586 591/520/591
f 586/526/586 567/525/567 591/520/591
f 565/528/565 587/524/587 580/530/580
f 579/531/579 587/524/587 585/529/585
f 580/530/580 579/531/579 578/532/578
f 594/516/594 579/531/579 593/518/593
f 568/517/568 594/516/594 581/513/581
f 578/532/578 594/516/594 595/515/595
f 611/533/611 610/534/610 577/535/577
f 611/533/611 608/504/608 609/536/609
f 611/533/611 609/536/609 607/537/607
f 606/510/606 605/538/605 604/511/604
f 611/533/611 607/537/607 610/534/610
f 603/509/603 608/508/608 604/511/604
f 607/537/607 602/539/602 610/534/610
f 601/502/601 608/504/608 611/533/611
f 601/502/601 611/533/611 577/535/577
f 745/564/745 744/565/744 719/566/719
f 694/567/694 693/568/693 692/569/692
f 745/564/745 742/570/742 741/571/741
f 740/572/740 739/573/739 738/574/738
f 745/564/745 741/571/741 744/565/744
f 737/575/737 742/576/742 738/574/738
f 691/577/691 694/567/694 692/569/692
f 731/578/731 742/570/742 745/564/745
f 731/578/731 745/564/745 719/566/719
f 695/579/695 700/580/700 702/581/702
f 742/576/742 740/572/740 738/574/738
f 743/582/743 742/576/742 737/575/737
f 741/571/741 742/570/742 743/582/743
f 731/578/731 740/583/740 742/570/742
f 703/584/703 702/585/702 697/586/697
f 702/585/702 700/587/700 698/588/698
f 713/577/713 716/567/716 714/569/714
f 716/567/716 715/568/715 714/569/714
f 752/567/752 751/568/751 750/569/750
f 749/577/749 752/567/752 750/569/750
f 717/577/717 678/567/678 718/569/718
f 678/567/678 677/568/677 718/569/718
f 676/589/676 675/590/675 690/591/690
f 689/592/689 688/593/688 662/594/662
f 688/593/688 687/595/687 675/590/675
f 686/596/686 685/597/685 684/598/684
f 683/599/683 682/600/682 690/591/690
f 681/601/681 661/602/661 680/603/680
f 661/602/661 660/604/660 685/597/685
f 659/605/659 661/602/661 681/601/681
f 686/596/686 684/598/684 683/599/683
f 681/601/681 680/603/680 679/606/679
f 685/597/685 660/604/660 684/598/684
f 674/607/674 681/601/681 673/608/673
f 682/600/682 676/589/676 690/591/690
f 673/608/673 679/606/679 687/595/687
f 683/599/683 690/591/690 686/596/686
f 672/609/672 673/608/673 688/593/688
f 679/606/679 690/591/690 687/595/687
f 690/591/690 675/590/675 687/595/687
f 679/606/679 685/597/685 686/596/686
f 686/596/686 690/591/690 679/606/679
f 679/606/679 680/603/680 685/597/685
f 680/603/680 661/602/661 685/597/685
f 659/605/659 681/601/681 674/607/674
f 673/608/673 681/601/681 679/606/679
f 674/607/674 673/608/673 672/609/672
f 688/593/688 673/608/673 687/595/687
f 662/594/662 688/593/688 675/590/675
f 672/609/672 688/593/688 689/592/689
f 705/610/705 704/611/704 671/612/671
f 705/610/705 702/581/702 703/613/703
f 705/610/705 703/613/703 701/614/701
f 700/587/700 699/615/699 698/588/698
f 705/610/705 701/614/701 704/611/704
f 697/586/697 702/585/702 698/588/698
f 701/614/701 696/616/696 704/611/704
f 695/579/695 702/581/702 705/610/705
f 695/579/695 705/610/705 671/612/671
