# fff08519_00183_00363f4c
o fff08519_00183_00363f4c
v -3.018837 2.529909 -0.474478
v 0.805649 1.927886 -0.371599
v 0.783451 1.800763 -0.358962
v -3.220177 2.415642 -0.460115
v -2.681370 3.892141 -0.538827
v -2.882710 3.777874 -0.524464
v -3.728943 4.166048 -0.545436
v -3.783886 4.004519 -0.531073
v -1.499931 -5.523963 -0.098420
v 0.127338 -5.748839 -0.106838
v 0.105141 -5.875963 -0.094201
v -1.644386 -5.638231 -0.084057
v -1.387810 -4.031229 -0.219479
v -1.532265 -4.145497 -0.205116
v -0.653931 2.145052 -0.337826
v -0.655380 2.279479 -0.349768
v -4.727989 -3.803695 -0.183586
v -4.750858 -3.917963 -0.169223
v -2.441093 -4.039195 -0.236736
v -2.550793 -4.006558 -0.222373
v -1.905582 2.326314 -0.334294
v -2.019081 2.352741 -0.319931
v -2.317816 -2.573815 -0.362067
v -2.439751 -2.587258 -0.348839
v 0.610485 1.905385 -0.371599
v 0.485203 1.936328 -0.358962
v 1.685604 6.068519 -0.575501
v 1.809673 6.035785 -0.574572
v 0.972054 3.838545 -0.457745
v 1.091285 3.788717 -0.463300
v -1.004787 7.170057 -0.557501
v 2.010796 6.047786 -0.566463
v 1.961601 5.928287 -0.555826
v -1.170582 7.089494 -0.545160
v 1.944866 6.008249 -0.567533
v 1.827957 6.059417 -0.544588
v 4.634441 10.469254 -0.812626
v 4.750858 10.415312 -0.807996
v 3.035175 8.481392 -0.656973
v 3.143452 8.412415 -0.666383
v -3.127762 -8.492437 0.621061
v -1.421986 -8.544319 0.573259
v -1.509079 -8.671442 0.585896
v -3.272217 -8.606705 0.635424
v -1.421986 -10.342129 0.799988
v -1.509079 -10.469254 0.812626
v -3.127762 -8.017040 0.546810
v -3.272217 -8.131308 0.561173
v -4.624939 -8.017040 0.476614
v -4.624939 -8.131308 0.490977
vt 1.136197 0.846072
vt -0.405059 0.846074
vt -0.405059 0.991127
vt 1.082515 0.977792
vt 1.578616 0.839461
vt 1.625244 0.971182
vt 1.943278 0.837061
vt 1.950187 0.976926
vt 1.491488 0.977637
vt 1.547029 0.845916
vt 1.027415 0.977792
vt 0.967421 0.846072
vt 0.213743 1.034317
vt -0.391380 1.049080
vt -0.391380 0.904027
vt 0.464465 0.846072
vt 0.436202 0.977792
vt 0.802993 0.846072
vt 0.843819 0.977792
vt 0.161309 0.898561
vt 0.221303 1.030282
vt 0.109227 0.986339
vt 0.119255 0.846073
vt 1.677536 0.846072
vt 1.674329 0.977792
vt 0.774730 0.977792
vt 0.774730 0.977792
vt 0.802993 0.846072
vt -0.451249 0.851010
vt -0.020840 0.984447
vt -0.443375 0.971649
vt 1.451252 0.984447
vt -0.014602 0.851010
vt 1.445517 0.851010
vt 0.109227 0.986339
vt -0.405059 0.991127
vt -0.405059 0.846074
vt 0.119255 0.846073
vt -0.170447 0.988943
vt -0.168181 0.846073
vt 0.054380 0.977792
vt -0.391740 0.992555
vt -0.391740 0.847502
vt -0.005614 0.846072
vt 0.054380 0.977792
vt -0.170447 0.988943
vt -0.405059 0.991127
vt -0.405059 0.846074
vt -0.168181 0.846073
vt 0.109227 0.986339
vt 0.119255 0.846073
vt 0.213292 0.978832
vt -0.495047 0.992969
vt -0.455289 0.845674
vt 0.307300 0.836308
vt 0.259232 0.977711
vt -1.072901 0.845674
vt -1.112658 0.992969
vt -0.387688 0.992969
vt -0.409662 0.845674
vt -0.409662 0.845674
vt 0.523515 0.836389
vt 0.551836 0.977792
vt 0.999946 0.836389
vt 0.999131 0.977792
vt 0.153475 0.847407
vt 0.213469 0.979127
vn 0.007990 0.110839 0.993806
vn 0.036756 0.092290 0.995053
vn 0.036786 0.092490 0.995034
vn 0.014640 0.095525 0.995319
vn 0.034527 0.063108 0.997409
vn 0.034081 0.065304 0.997283
vn 0.015501 0.083327 0.996402
vn 0.015623 0.084526 0.996299
vn 0.028201 0.089491 0.995588
vn 0.018784 0.095914 0.995212
vn 0.018769 0.095656 0.995237
vn 0.028313 0.089098 0.995620
vn 0.028362 0.089729 0.995562
vn 0.027668 0.090159 0.995543
vn 0.003200 0.088623 0.996060
vn -0.005362 0.090083 0.995920
vn 0.018905 0.120968 0.992476
vn 0.018890 0.120478 0.992536
vn 0.148481 0.075990 0.985991
vn 0.151631 0.075950 0.985515
vn 0.121891 -0.015879 0.992417
vn 0.121678 -0.015866 0.992443
vn 0.105186 0.024954 0.994139
vn 0.105110 0.036376 0.993795
vn 0.104412 0.024776 0.994226
vn 0.106296 0.024415 0.994035
vn 0.007005 0.047333 0.998855
vn 0.005142 0.047818 0.998843
vn 0.061365 0.033079 0.997567
vn 0.059439 0.033499 0.997670
vn 0.033829 0.082947 0.995980
vn 0.031538 0.075937 0.996614
vn 0.031477 0.075750 0.996630
vn 0.033717 0.082603 0.996012
vn 0.172313 -0.040373 0.984214
vn 0.174892 -0.041528 0.983711
vn -0.002454 0.072692 0.997351
vn -0.005095 0.074595 0.997201
vn 0.089256 0.001256 0.996008
vn 0.086423 0.002946 0.996254
vn 0.004509 0.119099 0.992872
vn 0.004817 0.095991 0.995371
vn -0.006930 0.103619 0.994593
vn 0.000127 0.124194 0.992258
vn -0.038647 0.125030 0.991400
vn -0.038647 0.125030 0.991400
vn -0.035290 0.165636 0.985555
vn -0.037996 0.171769 0.984404
vn -0.046469 0.124579 0.991121
vn -0.046691 0.127689 0.990714
g fff08519_00183_00363f4c_e4
f 15/22/15 3/3/3 2/2/2
f 1/12/1 4/11/4 16/23/16
f 1/1/1 6/9/6 4/4/4
f 6/9/6 1/1/1 5/10/5
f 5/5/5 8/8/8 6/6/6
f 8/8/8 5/5/5 7/7/7
f 12/13/12 11/14/11 10/15/10
f 9/20/9 12/21/12 10/15/10
f 9/16/9 14/26/14 12/17/12
f 14/27/14 9/16/9 13/28/13
f 16/23/16 15/22/15 2/2/2
f 16/23/16 4/11/4 15/22/15
f 13/18/13 18/25/18 14/19/14
f 18/25/18 13/18/13 17/24/17
f 19/29/19 24/30/24 20/31/20
f 22/32/22 24/30/24 23/33/23
f 22/32/22 23/33/23 21/34/21
f 19/29/19 23/33/23 24/30/24
f 29/39/29 26/36/26 25/37/25
f 30/40/30 27/35/27 29/39/29
f 30/40/30 29/39/29 25/37/25
f 28/38/28 27/35/27 30/40/30
f 34/41/34 33/42/33 32/43/32
f 31/44/31 34/45/34 32/43/32
f 39/46/39 36/47/36 35/48/35
f 40/49/40 37/50/37 39/46/39
f 40/49/40 39/46/39 35/48/35
f 38/51/38 37/50/37 40/49/40
f 44/52/44 43/59/43 42/60/42
f 41/66/41 44/67/44 42/61/42
f 42/54/42 43/53/43 46/58/46
f 46/58/46 45/57/45 42/54/42
f 41/55/41 48/63/48 44/56/44
f 48/63/48 41/55/41 47/62/47
f 47/62/47 50/65/50 48/63/48
f 50/65/50 47/62/47 49/64/49
