# fff05ca9_00087_00321190
o fff05ca9_00087_00321190
v 11.472031 7.186558 8.016705
v 11.498459 7.224174 7.962212
v 11.484940 7.204182 7.990498
v 3.523148 -1.919769 2.488720
v 3.483749 -1.915291 2.518642
v 3.514191 -1.924801 2.519665
v 3.522949 -1.927906 2.520290
v 1.162994 -4.354378 2.152897
v 3.521881 -1.935066 2.549370
v 1.174454 -4.349003 2.182735
v 1.184082 -4.343685 2.209949
v 1.171539 -4.348667 2.182796
v 3.554688 -1.937263 2.520741
v 3.562607 -1.939648 2.520924
v 1.228348 -4.347755 2.183281
v 1.120438 -4.350498 2.182083
v -1.787465 -9.369448 0.353996
v 14.527985 8.017994 10.220448
v 14.513458 8.004814 10.254730
v -1.804193 -9.380476 0.387644
v -1.819948 -9.389914 0.418346
v 12.260010 8.209743 9.190594
v 9.782944 5.046608 5.970570
v 11.506866 7.169189 7.979801
v 9.807953 5.017288 6.011265
v 12.280762 8.217621 9.164459
v 8.074020 3.007408 4.501789
v 8.093277 3.041302 4.441288
v 8.083511 3.023304 4.472916
v 8.113968 3.001766 4.472897
v 11.494553 7.189461 7.985409
v 12.298859 8.189655 9.152084
v 11.464981 7.238613 7.998863
v 12.254883 8.258827 9.183125
v 11.473801 7.223991 7.994980
v 12.291275 8.242188 9.146591
v 12.269287 8.236042 9.172966
v -11.835663 2.852737 -10.450491
v -11.756714 2.835529 -10.472759
v -11.798439 2.843479 -10.461151
v -11.796928 2.798527 -10.445219
v -11.797127 2.814381 -10.450724
v -7.168121 -1.714748 -5.758533
v -11.795135 2.892563 -10.476162
v -11.796715 2.861622 -10.466522
v -1.772549 -7.320557 1.936203
v -7.154793 -1.653618 -5.766735
v -7.158867 -1.671776 -5.764324
v 14.075790 9.667492 11.414715
v -1.759430 -7.881927 1.875263
v 14.058563 9.708553 11.383007
v 9.737106 5.040909 5.991657
v 9.740814 5.039700 5.992714
v 9.761078 5.012718 6.030499
v 5.962753 0.733063 3.261078
v 9.771957 5.028797 6.001869
v 9.793549 5.021976 6.007214
v 9.766388 5.031250 5.999886
v 5.949509 0.726814 3.293308
v 5.917709 0.730637 3.288685
v 5.960434 0.717728 3.327301
v 5.962051 0.724987 3.295631
v 5.995163 0.721401 3.299686
v 12.275253 8.224903 9.169331
v -1.778595 -7.275883 1.907402
v -1.812664 -7.297009 1.970676
v -1.796219 -7.287285 1.940437
v -1.814747 -7.256428 1.939980
v -1.794846 -7.287140 1.938473
v 14.543381 7.976223 10.252060
v 3.646393 -3.996040 1.864353
v 3.676376 -4.006916 1.865379
v 1.290207 -6.350079 1.163418
v 1.301910 -6.345222 1.193260
v 14.499680 7.993343 10.286034
v 1.311768 -6.340351 1.220474
v 1.299026 -6.344753 1.193321
v -1.782006 -9.410856 0.387873
v 3.716278 -4.021194 1.866455
v 1.355789 -6.346420 1.193806
v 8.262390 2.819054 4.460052
v 1.405960 -4.631821 2.151268
v 3.750076 -2.193508 2.539272
v -1.776165 -7.892960 1.908909
v -1.791924 -7.902405 1.939617
v 1.414490 -4.625782 2.181236
v -1.753990 -7.923349 1.909168
v 1.471344 -4.620701 2.183659
v 14.019028 9.720577 11.415180
v 1.362152 -4.630325 2.178825
v -1.778381 -7.890871 1.909939
v -1.800468 -7.861042 1.909950
v 6.007217 0.720089 3.301228
v 14.045959 9.695126 11.415279
v 14.044678 9.694733 11.417290
v 14.031403 9.682648 11.448586
v 14.488983 8.031746 10.252705
v 14.514771 8.005135 10.252720
v 1.247879 -6.344276 1.192608
v -1.806417 -9.378389 0.388672
v -1.828524 -9.348574 0.388714
v 12.539261 7.981403 9.207260
v 1.417450 -4.625977 2.181293
v 1.427017 -4.620235 2.208633
v 3.782532 -2.194408 2.511662
v 12.553360 7.958771 9.197212
v 11.746277 6.899082 7.984226
v 8.301010 2.815300 4.430706
v 8.321884 2.776684 4.462994
v 3.751099 -2.186485 2.510082
v 3.751007 -2.178806 2.478607
v 8.291321 2.797318 4.462410
v 8.281235 2.805386 4.461216
v 3.711884 -2.175739 2.507248
v 3.742310 -2.183689 2.509129
v 3.790390 -2.196438 2.512119
v 8.311325 2.783894 4.462608
v -3.594986 -5.415104 -0.941936
v -9.676865 0.804482 -8.621832
v -7.119293 -1.712646 -5.764179
v -9.744682 0.907558 -8.651127
v -9.743347 0.898602 -8.646685
v -9.784164 0.842197 -8.597536
v -9.732803 0.823265 -8.608852
v -3.559677 -5.458157 -0.959263
v -3.546097 -5.386456 -0.940144
v -7.173332 -1.740196 -5.755001
v -3.554581 -5.429699 -0.951733
v 12.582321 7.912788 9.176544
v 12.564636 7.940506 9.188786
v 12.575302 7.964951 9.170898
v 11.738129 6.953049 7.966045
v 12.543839 7.932663 9.214859
v 12.559174 7.947762 9.193619
v 11.711594 6.915737 8.020611
v 9.982346 4.767033 6.025368
v 10.004333 4.800728 5.965218
v 9.993317 4.783028 5.996647
v 11.724564 6.933224 7.994373
v 9.958710 4.794617 5.985512
v 11.704819 6.966827 8.002232
v 11.713562 6.952545 7.998581
v 11.734055 6.918896 7.989521
v 8.281891 2.781425 4.491344
v -7.207375 -1.678101 -5.758099
v -7.165413 -1.695091 -5.761051
v -3.510696 -5.425545 -0.956417
v -3.554810 -5.420536 -0.949039
v -3.550858 -5.410305 -0.946491
v 12.950638 5.866291 7.744793
v 12.956543 5.810982 7.762386
v 8.955948 1.517006 4.427784
v 8.976715 1.549992 4.367287
v 8.966156 1.532452 4.398911
v 8.995605 1.509563 4.398891
v 8.985413 1.517509 4.398735
v 12.945160 5.831783 7.767990
v 8.938416 1.556183 4.397133
v 8.956497 1.541172 4.397926
v 3.685547 -4.002293 1.834431
v 9.962387 4.793438 5.986675
v 9.987778 4.785358 5.994522
v 10.029068 4.771992 6.006977
v 10.014740 4.776501 6.002541
v 6.173828 0.475906 3.316788
v 6.176163 0.490952 3.250351
v 6.175461 0.483044 3.285023
v 6.131363 0.487583 3.277088
v 6.162964 0.484623 3.282406
v 6.220352 0.479546 3.291523
v 6.208313 0.480431 3.289787
v -4.877335 -4.735352 -3.057415
v -4.851311 -4.745708 -3.058414
v 3.684998 -4.010406 1.866001
v 3.683609 -4.017517 1.895081
v 12.917847 5.882221 7.781445
v 12.925995 5.867222 7.777561
v 3.724060 -4.023930 1.866634
v -1.808128 -7.926952 1.901478
v -1.814991 -7.882622 1.872078
v -1.849060 -7.903744 1.935356
v -1.832615 -7.894022 1.905115
v -1.851833 -7.863464 1.904144
v -1.831223 -7.893867 1.903160
v -14.511375 5.176239 -11.712379
v -14.544395 5.216057 -11.712198
v -9.717941 0.735748 -8.565542
v -14.520126 5.213943 -11.731989
v -14.493141 5.214077 -11.753813
v -4.806549 -4.763649 -3.060154
v -4.788666 -4.771183 -3.060856
v -5.015511 -3.897537 -3.046947
v -5.033859 -3.953960 -3.049168
v -5.025841 -3.927986 -3.048138
v -5.064903 -3.895073 -3.045864
v -5.040665 -3.905243 -3.046810
v -4.996269 -3.924103 -3.048534
v -4.976669 -3.932785 -3.049313
v -5.009003 -3.877316 -3.046146
v -4.822342 -4.716393 -3.057682
v -4.828117 -4.736427 -3.058475
v -4.844917 -4.793556 -3.060711
v -4.837799 -4.767677 -3.059696
v -14.508408 5.162167 -11.705200
v -14.521919 5.231182 -11.739416
v -9.723625 0.770927 -8.583130
v -9.733910 0.836124 -8.615637
v -14.528160 5.270836 -11.757963
v 12.922531 5.829906 7.799282
v 13.755936 6.816441 8.969517
v 10.953903 3.676338 5.896450
v 12.936234 5.846928 7.773079
v 13.777023 6.823372 8.943382
v 10.907867 3.672718 5.917538
v 10.911514 3.671337 5.918594
v 10.930542 3.643471 5.956379
v 10.942139 3.659046 5.927750
v 10.963409 3.651257 5.933094
v 10.936661 3.661751 5.925766
v 13.793823 6.794621 8.931004
v 13.753036 6.865707 8.962048
v 13.788635 6.847443 8.925514
v 13.771851 6.830894 8.948254
v 13.766403 6.842297 8.951889
v -6.881927 -2.751976 -5.615238
v -11.916138 1.990112 -10.392872
v -11.801613 1.968292 -10.423937
v -11.862190 1.978157 -10.407824
v -11.854668 1.912758 -10.381105
v -11.856659 1.935890 -10.390198
v -6.929718 -2.755764 -5.608616
v -11.861610 2.049599 -10.432022
v -11.860931 2.004532 -10.416208
v -6.919518 -2.692852 -5.619099
v -3.603882 -6.215008 -1.031193
v -6.969894 -2.719597 -5.608669
v -6.927956 -2.735569 -5.611843
v -3.598160 -6.191200 -1.025288
v -6.922661 -2.711559 -5.616009
v -6.933662 -2.781956 -5.604137
v 10.977554 3.645927 5.937145
v 6.622818 -0.955898 2.902351
v 6.666656 -0.970867 2.942501
v 6.609299 -0.961533 2.934578
v 6.577698 -0.956280 2.929958
v 6.619797 -0.971107 2.968575
v 6.621765 -0.963932 2.936905
v 6.654663 -0.969009 2.940960
v -14.392258 4.598873 -11.744169
v -3.647545 -6.216358 -1.026432
v -9.526939 -0.165245 -8.510557
v -9.554626 -0.218761 -8.466200
v -9.580719 -0.088181 -8.534021
v -9.579407 -0.094975 -8.530508
v -14.368149 4.596626 -11.764091
v -9.607346 -0.139076 -8.491793
v -14.341209 4.596672 -11.785955
v -9.568817 -0.152271 -8.500521
v -9.560112 -0.192032 -8.480135
v -9.570107 -0.142475 -8.505888
v -3.614609 -6.262787 -1.043079
v -3.564880 -6.233574 -1.040958
v -3.608154 -6.225025 -1.033558
v -3.608337 -6.234341 -1.036083
v 13.891129 10.259865 11.401348
v -1.772488 -7.257637 1.939812
v 13.873856 10.300892 11.369732
v 13.846725 10.274990 11.435322
v 13.859955 10.287071 11.404018
v -1.789215 -7.268663 1.973459
v -1.804970 -7.278101 2.004162
v -1.767029 -7.299042 1.973688
v 13.834290 10.312874 11.401989
v 13.861237 10.287453 11.402008
v -1.791443 -7.266575 1.974487
v -1.813545 -7.236761 1.974529
v -14.357246 4.558289 -11.742117
v -14.353622 4.543884 -11.734171
v -14.370255 4.614140 -11.771984
v -14.378067 4.654469 -11.792418
v 8.103439 3.009247 4.472744
v 8.054733 3.045761 4.471138
v 8.073471 3.031578 4.471931
vt nan nan
vt nan nan
vt -8878451167592448.000000 -6279237992448.000000
vt nan nan
vt nan nan
vt nan nan
vt nan nan
vt -62467211264.000000 -43186380.000000
vt -60516323328.000000 -41804560.000000
vt -60526100480.000000 -41811444.000000
vt nan nan
vt nan nan
vt nan nan
vt nan nan
vt nan nan
vt nan nan
vt nan nan
vt nan nan
vt nan nan
vt nan nan
vt nan nan
vt nan nan
vt nan nan
vt nan nan
vt nan nan
vt nan nan
vt nan nan
vt nan nan
vt nan nan
vt nan nan
vt nan nan
vt nan nan
vt nan nan
vt nan nan
vt nan nan
vt nan nan
vt nan nan
vt nan nan
vt nan nan
vt nan nan
vt nan nan
vt nan nan
vt nan nan
vt nan nan
vt nan nan
vt nan nan
vt nan nan
vt nan nan
vt nan nan
vt nan nan
vt nan nan
vt nan nan
vt nan nan
vt nan nan
vt nan nan
vt nan nan
vt nan nan
vt nan nan
vt nan nan
vt nan nan
vt 109839240655770906935253351444512768.000000 104896462372584420912241385144320.000000
vt 109720982719698053128352787905642496.000000 104783568043845528381390623604736.000000
vt nan nan
vt nan nan
vt nan nan
vt nan nan
vt nan nan
vt nan nan
vt nan nan
vt -7181133568479521374085044884209664.000000 -6857932734293068036185285197824.000000
vt -7169214681781281732798316116180992.000000 -6846547070923937458617902432256.000000
vn 0.796035 -0.605068 -0.014867
vn 0.804273 -0.593282 -0.034082
vn 0.800360 -0.599003 -0.024891
vn 0.734895 -0.657842 -0.164847
vn -0.071722 -0.122579 0.989864
vn -0.073912 -0.142594 0.987018
vn 0.734765 -0.661243 -0.151253
vn 0.707868 -0.690780 -0.147465
vn 0.734349 -0.664867 -0.136687
vn 0.711001 -0.690584 -0.132554
vn 0.713886 -0.690403 -0.117093
vn -0.008627 -0.096239 0.995321
vn -0.069358 -0.147630 0.986608
vn -0.072972 -0.166663 0.983310
vn -0.006644 -0.115691 0.993263
vn -0.011398 -0.075974 0.997045
vn 0.681899 -0.724499 0.100573
vn 0.787586 -0.608042 0.099961
vn 0.781376 -0.614489 0.108883
vn 0.678311 -0.725811 0.114420
vn 0.675893 -0.726581 0.123486
vn 0.750930 -0.656753 0.069138
vn 0.798006 -0.599555 -0.060999
vn -0.406469 -0.465220 0.786354
vn -0.369101 -0.415808 0.831185
vn -0.354676 -0.562166 0.747111
vn 0.772945 -0.627829 -0.091579
vn 0.779935 -0.616175 -0.109677
vn 0.776461 -0.621968 -0.101315
vn -0.261227 -0.349111 0.899934
vn -0.420844 -0.469284 0.776313
vn -0.358862 -0.561638 0.745507
vn -0.442026 -0.469601 0.764257
vn -0.353757 -0.557916 0.750723
vn -0.424852 -0.466813 0.775620
vn 0.763319 -0.644225 0.048141
vn -0.355497 -0.561873 0.746941
vn -0.348290 -0.746689 -0.566700
vn -0.303337 -0.769918 -0.561438
vn -0.325552 -0.756041 -0.567819
vn -0.397198 0.296694 0.868451
vn -0.317201 0.306529 0.897454
vn -0.635255 0.234309 0.735901
vn -0.256199 0.299455 0.919070
vn -0.320286 0.301835 0.897949
vn -0.818095 -0.555873 0.147395
vn -0.624733 0.238901 0.743394
vn -0.633479 0.237818 0.736306
vn -0.466234 -0.517959 0.717178
vn 0.704843 -0.699053 0.120505
vn 0.741915 -0.669801 0.030474
vn -0.367210 -0.386797 0.845899
vn -0.368602 -0.400888 0.838702
vn 0.791277 -0.610012 -0.042021
vn 0.754582 -0.642221 -0.134748
vn 0.794833 -0.604616 -0.051759
vn -0.365639 -0.403410 0.838790
vn -0.366069 -0.403239 0.838685
vn -0.164336 -0.231399 0.958879
vn -0.163925 -0.192099 0.967588
vn 0.752904 -0.648818 -0.110324
vn 0.754011 -0.645225 -0.123093
vn -0.155439 -0.240160 0.958208
vn 0.757124 -0.650629 0.058687
vn -0.231327 -0.874943 -0.425396
vn -0.246022 -0.875508 -0.415883
vn -0.241628 -0.875363 -0.418754
vn -0.826985 -0.541557 0.151034
vn -0.821396 -0.550336 0.149797
vn -0.485298 -0.496665 0.719590
vn -0.104966 -0.197023 0.974764
vn -0.104291 -0.207214 0.972721
vn 0.712905 -0.680640 -0.168808
vn 0.712248 -0.685436 -0.151259
vn 0.776730 -0.619165 0.115431
vn 0.711786 -0.689532 -0.133815
vn -0.015987 -0.250651 0.967945
vn -0.132496 -0.125153 0.983250
vn -0.099578 -0.212862 0.971995
vn -0.015842 -0.256784 0.966339
vn -0.284335 -0.314897 0.905535
vn 0.718543 -0.680721 -0.142529
vn 0.738569 -0.660913 -0.133079
vn 0.702107 -0.698983 0.135898
vn 0.700507 -0.698858 0.144525
vn -0.037942 -0.071733 0.996702
vn -0.034299 -0.049400 0.998190
vn -0.034405 -0.089829 0.995363
vn -0.479210 -0.505040 0.717839
vn -0.041349 -0.054304 0.997668
vn -0.040484 -0.043392 0.998237
vn -0.048094 -0.035994 0.998194
vn -0.151909 -0.282293 0.947225
vn -0.472744 -0.511500 0.717552
vn 0.735464 -0.676381 0.040017
vn 0.730704 -0.681079 0.046932
vn -0.498382 -0.483919 0.719332
vn -0.492384 -0.489763 0.719507
vn -0.016387 -0.245782 0.969187
vn -0.139740 -0.118722 0.983045
vn -0.148160 -0.111233 0.982688
vn -0.393680 -0.566306 0.724096
vn 0.720318 -0.682151 -0.125748
vn 0.721899 -0.683428 -0.108573
vn -0.092347 -0.123945 0.987983
vn -0.386563 -0.568284 0.726377
vn -0.411096 -0.464034 0.784648
vn 0.779034 -0.616954 -0.111691
vn -0.268854 -0.345470 0.899093
vn 0.739014 -0.657270 -0.147833
vn 0.738970 -0.654063 -0.161633
vn 0.775868 -0.622416 -0.103088
vn -0.282254 -0.324395 0.902829
vn -0.088184 -0.102414 0.990826
vn -0.093847 -0.122036 0.988079
vn -0.095173 -0.146240 0.984660
vn -0.270848 -0.334721 0.902554
vn -0.199213 -0.862849 -0.464550
vn -0.374839 -0.826971 -0.419064
vn -0.348021 -0.839974 -0.416322
vn -0.434071 0.347511 0.831155
vn -0.485944 0.329019 0.809694
vn -0.393848 -0.815499 -0.424082
vn -0.384382 -0.820903 -0.422337
vn -0.837520 0.003645 0.546394
vn -0.830926 0.018374 0.556080
vn -0.644709 0.232972 0.728062
vn -0.834245 0.008075 0.551334
vn -0.381504 -0.565846 0.730940
vn -0.384799 -0.569002 0.726750
vn 0.747821 -0.663262 0.029109
vn 0.795658 -0.604349 -0.041115
vn 0.735477 -0.675721 0.049752
vn 0.741799 -0.669468 0.039325
vn 0.787270 -0.616230 -0.021601
vn 0.785926 -0.616794 -0.043423
vn 0.792958 -0.605984 -0.063251
vn 0.789657 -0.611203 -0.053591
vn 0.791692 -0.610095 -0.031741
vn -0.386282 -0.371979 0.844049
vn -0.443908 -0.467195 0.764640
vn -0.427984 -0.465153 0.774895
vn -0.423746 -0.467805 0.775627
vn 0.772620 -0.628002 -0.093125
vn -0.367581 -0.837241 -0.404860
vn -0.357648 -0.838550 -0.411001
vn -0.176668 -0.866304 -0.467231
vn -0.188127 -0.864896 -0.465363
vn -0.833920 0.014481 0.551695
vn 0.770442 -0.636109 -0.042242
vn -0.391276 -0.433565 0.811742
vn 0.754100 -0.651617 -0.082021
vn 0.759597 -0.642269 -0.102480
vn 0.756916 -0.646920 -0.092586
vn -0.274843 -0.334608 0.901387
vn -0.280029 -0.326526 0.902754
vn -0.413351 -0.439875 0.797277
vn -0.295768 -0.308449 0.904091
vn -0.291922 -0.314778 0.903159
vn 0.725622 -0.669390 -0.159345
vn -0.385753 -0.389112 0.836532
vn -0.380837 -0.393660 0.836657
vn -0.384581 -0.406927 0.828558
vn -0.380582 -0.393753 0.836729
vn 0.755915 -0.645975 -0.106346
vn 0.757674 -0.639455 -0.130494
vn 0.757057 -0.642425 -0.118971
vn -0.179484 -0.175874 0.967912
vn -0.179061 -0.217430 0.959511
vn -0.157149 -0.278295 0.947553
vn -0.166281 -0.229313 0.959044
vn -0.353479 -0.850631 -0.389204
vn -0.354098 -0.849008 -0.392173
vn 0.725313 -0.672911 -0.145300
vn 0.724645 -0.676588 -0.130839
vn -0.441585 -0.442012 0.780787
vn -0.417519 -0.437398 0.796468
vn -0.100177 -0.221294 0.970048
vn -0.803792 -0.569771 0.171110
vn -0.175031 -0.898170 -0.403305
vn -0.193629 -0.898727 -0.393443
vn -0.187638 -0.898587 -0.396654
vn -0.813420 -0.555114 0.173769
vn -0.807470 -0.563889 0.173265
vn -0.036311 0.438072 0.898206
vn -0.447513 -0.762432 -0.467365
vn -0.539237 0.305205 0.784903
vn -0.434309 -0.758192 -0.486333
vn -0.412750 -0.750567 -0.516030
vn -0.364100 -0.848531 -0.383962
vn -0.370762 -0.845831 -0.383543
vn -0.704182 0.205429 0.679652
vn -0.714949 0.193323 0.671919
vn -0.705165 0.201700 0.679750
vn -0.369728 -0.845314 -0.385675
vn -0.372603 -0.848713 -0.375305
vn -0.382490 -0.848215 -0.366378
vn -0.389936 -0.850952 -0.351896
vn -0.703328 0.199393 0.682328
vn -0.722973 0.182109 0.666443
vn -0.728139 0.191205 0.658221
vn -0.744118 0.178916 0.643643
vn -0.728724 0.187649 0.658596
vn -0.022999 0.450344 0.892559
vn -0.059108 0.418374 0.906349
vn -0.488666 0.326014 0.809271
vn -0.486624 0.328023 0.809690
vn -0.064638 0.413544 0.908187
vn 0.761377 -0.647909 -0.022788
vn 0.740532 -0.664270 0.101771
vn 0.760799 -0.645157 -0.070414
vn 0.766142 -0.641811 -0.033255
vn -0.399347 -0.550518 0.733111
vn -0.373222 -0.319026 0.871165
vn -0.374588 -0.330958 0.866112
vn 0.754104 -0.654782 -0.050874
vn 0.757572 -0.649907 -0.060881
vn -0.371150 -0.334047 0.866407
vn -0.371260 -0.334164 0.866314
vn -0.396808 -0.548182 0.736234
vn -0.404610 -0.548226 0.731942
vn 0.754814 -0.650611 0.083431
vn 0.747587 -0.657752 0.092064
vn -0.400405 -0.550123 0.732831
vn -0.332774 -0.848107 -0.412282
vn -0.330346 -0.707897 -0.624302
vn -0.281503 -0.751052 -0.597224
vn -0.306545 -0.729838 -0.611037
vn -0.373953 0.311295 0.873645
vn -0.285575 0.327918 0.900509
vn -0.635506 0.223699 0.738980
vn -0.232239 0.318959 0.918875
vn -0.293196 0.320074 0.900882
vn -0.624622 0.228323 0.746804
vn -0.837554 0.060083 0.543040
vn -0.351175 -0.839549 -0.414528
vn -0.341915 -0.843771 -0.413697
vn -0.835739 0.066003 0.545146
vn -0.634042 0.226748 0.739308
vn -0.645536 0.222035 0.730741
vn -0.375624 -0.342781 0.861051
vn 0.746614 -0.652646 -0.128922
vn -0.169223 -0.317974 0.932875
vn -0.180219 -0.268534 0.946261
vn -0.178409 -0.231061 0.956442
vn 0.744954 -0.659103 -0.103082
vn 0.746202 -0.655430 -0.116590
vn -0.171476 -0.277215 0.945382
vn -0.482055 -0.717783 -0.502405
vn -0.266929 -0.868289 -0.418119
vn -0.359747 -0.826412 -0.433158
vn -0.532566 0.302702 0.790408
vn -0.398631 0.359344 0.843780
vn -0.466178 0.333546 0.819405
vn -0.466339 -0.714325 -0.521793
vn -0.378134 -0.817099 -0.435159
vn -0.442867 -0.708472 -0.549488
vn -0.368893 -0.821231 -0.435312
vn -0.468844 0.330864 0.818971
vn -0.466815 0.332641 0.819411
vn -0.839398 0.049964 0.541215
vn -0.243025 -0.882388 -0.402903
vn -0.255228 -0.875590 -0.410123
vn -0.838142 0.054078 0.542765
vn -0.434121 -0.488485 0.756916
vn 0.693526 -0.711895 0.110573
vn 0.764476 -0.642639 0.050898
vn 0.754677 -0.652656 0.067100
vn 0.759023 -0.648294 0.059989
vn 0.690909 -0.711826 0.126287
vn 0.689395 -0.711697 0.134989
vn -0.026305 -0.044580 0.998659
vn -0.447957 -0.475228 0.757293
vn -0.441219 -0.481700 0.757160
vn -0.032574 -0.038438 0.998730
vn -0.040055 -0.031101 0.998713
vn 0.026786 0.478117 0.877887
vn 0.044501 0.490963 0.870043
vn -0.009353 0.453443 0.891236
vn -0.017223 0.447886 0.893925
vn -0.264913 -0.338780 0.902801
vn -0.280173 -0.319477 0.905228
vn -0.277351 -0.327658 0.903170
g fff05ca9_00087_00321190_e0
f 264/48/264 203/71/203 202/70/202
f 69/16/69 68/15/68 149/47/149
f 203/71/203 240/32/240 202/70/202
f 201/69/201 239/31/239 203/71/203
f 201/69/201 203/71/203 264/48/264
f 67/16/67 66/15/66 148/46/148
f 147/45/147 65/14/65 67/16/67
f 200/68/200 201/69/201 238/44/238
f 239/31/239 201/69/201 200/68/200
f 48/31/48 199/64/199 47/30/47
f 148/46/148 198/67/198 147/45/147
f 148/46/148 197/66/197 198/67/198
f 146/29/146 197/66/197 196/65/196
f 197/66/197 148/46/148 196/65/196
f 146/29/146 196/65/196 145/43/145
f 196/65/196 195/63/195 145/43/145
f 128/48/128 194/62/194 193/61/193
f 194/62/194 127/32/127 193/61/193
f 192/60/192 48/31/48 194/62/194
f 192/60/192 194/62/194 128/48/128
f 199/64/199 192/60/192 126/44/126
f 125/42/125 46/14/46 69/16/69
f 48/31/48 192/60/192 199/64/199
f 263/46/263 191/59/191 262/45/262
f 263/46/263 190/58/190 191/59/191
f 237/29/237 190/58/190 173/57/173
f 45/28/45 44/27/44 208/56/208
f 190/58/190 263/46/263 173/57/173
f 43/26/43 207/41/207 206/40/206
f 45/28/45 205/55/205 42/25/42
f 42/25/42 204/54/204 41/24/41
f 42/25/42 41/24/41 206/40/206
f 40/23/40 39/22/39 124/39/124
f 40/23/40 189/53/189 39/22/39
f 40/23/40 123/38/123 38/21/38
f 188/52/188 40/23/40 38/21/38
f 122/37/122 121/36/121 44/27/44
f 45/28/45 122/37/122 44/27/44
f 69/16/69 149/47/149 128/48/128
f 48/31/48 207/41/207 43/26/43
f 43/26/43 187/35/187 127/32/127
f 43/26/43 127/32/127 194/62/194
f 146/29/146 120/20/120 197/66/197
f 146/29/146 119/34/119 120/20/120
f 196/65/196 118/33/118 195/63/195
f 124/39/124 146/29/146 145/43/145
f 192/60/192 149/47/149 126/44/126
f 149/47/149 68/15/68 126/44/126
f 149/47/149 192/60/192 128/48/128
f 194/62/194 48/31/48 43/26/43
f 128/48/128 193/61/193 125/42/125
f 128/48/128 125/42/125 69/16/69
f 148/46/148 147/45/147 67/16/67
f 197/66/197 120/20/120 198/67/198
f 148/46/148 66/15/66 118/33/118
f 196/65/196 148/46/148 118/33/118
f 40/23/40 124/39/124 123/38/123
f 123/38/123 124/39/124 145/43/145
f 124/39/124 39/22/39 119/34/119
f 146/29/146 124/39/124 119/34/119
f 122/37/122 47/30/47 121/36/121
f 48/31/48 47/30/47 122/37/122
f 45/28/45 207/41/207 122/37/122
f 48/31/48 122/37/122 207/41/207
f 207/41/207 45/28/45 206/40/206
f 206/40/206 45/28/45 42/25/42
f 206/40/206 41/24/41 187/35/187
f 43/26/43 206/40/206 187/35/187
f 237/29/237 173/57/173 236/43/236
f 186/51/186 188/52/188 38/21/38
f 173/57/173 172/50/172 236/43/236
f 40/23/40 188/52/188 189/53/189
f 45/28/45 208/56/208 205/55/205
f 117/25/117 171/49/171 170/54/170
f 205/55/205 185/49/185 42/25/42
f 171/49/171 116/13/116 170/54/170
f 169/55/169 115/12/115 171/49/171
f 42/25/42 185/49/185 204/54/204
f 169/55/169 171/49/171 117/25/117
f 184/16/184 183/15/183 235/47/235
f 169/55/169 168/56/168 114/11/114
f 113/28/113 168/56/168 169/55/169
f 112/23/112 167/52/167 166/53/166
f 182/16/182 181/15/181 263/46/263
f 262/45/262 180/14/180 182/16/182
f 167/52/167 111/19/111 166/53/166
f 165/51/165 167/52/167 144/21/144
f 239/31/239 200/68/200 234/30/234
f 110/18/110 167/52/167 165/51/165
f 143/26/143 164/40/164 163/35/163
f 164/40/164 109/24/109 163/35/163
f 164/40/164 113/28/113 117/25/117
f 162/41/162 113/28/113 164/40/164
f 142/31/142 161/37/161 162/41/162
f 113/28/113 162/41/162 161/37/161
f 142/31/142 141/30/141 161/37/161
f 161/37/161 141/30/141 140/36/140
f 139/29/139 138/39/138 137/34/137
f 138/39/138 108/22/108 137/34/137
f 261/42/261 179/14/179 184/16/184
f 136/38/136 138/39/138 135/43/135
f 112/23/112 138/39/138 136/38/136
f 139/29/139 134/46/134 133/33/133
f 134/46/134 96/15/96 133/33/133
f 233/28/233 232/27/232 280/56/280
f 134/46/134 132/20/132 131/45/131
f 231/26/231 260/41/260 259/40/259
f 233/28/233 279/55/279 230/25/230
f 230/25/230 278/54/278 229/24/229
f 230/25/230 229/24/229 259/40/259
f 228/23/228 227/22/227 258/39/258
f 228/23/228 257/53/257 227/22/227
f 228/23/228 256/38/256 226/21/226
f 255/52/255 228/23/228 226/21/226
f 254/37/254 253/36/253 232/27/232
f 233/28/233 254/37/254 232/27/232
f 184/16/184 235/47/235 264/48/264
f 239/31/239 260/41/260 231/26/231
f 231/26/231 252/35/252 240/32/240
f 231/26/231 240/32/240 203/71/203
f 237/29/237 225/20/225 190/58/190
f 237/29/237 251/34/251 225/20/225
f 173/57/173 250/33/250 172/50/172
f 258/39/258 237/29/237 236/43/236
f 201/69/201 235/47/235 238/44/238
f 235/47/235 183/15/183 238/44/238
f 235/47/235 201/69/201 264/48/264
f 203/71/203 239/31/239 231/26/231
f 264/48/264 202/70/202 261/42/261
f 264/48/264 261/42/261 184/16/184
f 263/46/263 262/45/262 182/16/182
f 190/58/190 225/20/225 191/59/191
f 263/46/263 181/15/181 250/33/250
f 173/57/173 263/46/263 250/33/250
f 228/23/228 258/39/258 256/38/256
f 256/38/256 258/39/258 236/43/236
f 258/39/258 227/22/227 251/34/251
f 237/29/237 258/39/258 251/34/251
f 254/37/254 234/30/234 253/36/253
f 239/31/239 234/30/234 254/37/254
f 233/28/233 260/41/260 254/37/254
f 239/31/239 254/37/254 260/41/260
f 260/41/260 233/28/233 259/40/259
f 259/40/259 233/28/233 230/25/230
f 259/40/259 229/24/229 252/35/252
f 231/26/231 259/40/259 252/35/252
f 134/46/134 131/45/131 95/16/95
f 249/51/249 255/52/255 226/21/226
f 130/48/130 129/42/129 94/16/94
f 228/23/228 255/52/255 257/53/257
f 233/28/233 280/56/280 279/55/279
f 130/48/130 107/32/107 129/42/129
f 279/55/279 277/49/277 230/25/230
f 130/48/130 142/31/142 143/26/143
f 106/47/106 142/31/142 130/48/130
f 230/25/230 277/49/277 278/54/278
f 276/10/276 275/9/275 16/8/16
f 274/16/274 273/15/273 37/47/37
f 15/7/15 14/13/14 13/6/13
f 275/9/275 272/5/272 12/4/12
f 271/10/271 270/9/270 11/3/11
f 269/16/269 268/15/268 64/46/64
f 36/45/36 267/14/267 269/16/269
f 270/9/270 266/5/266 10/2/10
f 16/8/16 275/9/275 12/4/12
f 35/31/35 34/44/34 33/30/33
f 12/4/12 272/5/272 15/7/15
f 12/4/12 15/7/15 13/6/13
f 11/3/11 270/9/270 10/2/10
f 10/2/10 9/17/9 11/3/11
f 10/2/10 266/5/266 8/1/8
f 10/2/10 8/1/8 7/18/7
f 6/12/6 5/11/5 16/8/16
f 12/4/12 6/12/6 16/8/16
f 63/49/63 6/12/6 13/6/13
f 12/4/12 13/6/13 6/12/6
f 13/6/13 14/13/14 63/49/63
f 32/42/32 265/14/265 274/16/274
f 7/18/7 4/19/4 62/52/62
f 7/18/7 8/1/8 4/19/4
f 7/18/7 61/51/61 9/17/9
f 10/2/10 7/18/7 9/17/9
f 283/28/283 282/27/282 60/56/60
f 6/12/6 59/55/59 5/11/5
f 31/26/31 58/41/58 57/40/57
f 283/28/283 59/55/59 281/25/281
f 281/25/281 93/54/93 30/24/30
f 281/25/281 30/24/30 57/40/57
f 29/23/29 28/22/28 56/39/56
f 29/23/29 55/53/55 28/22/28
f 29/23/29 54/38/54 27/21/27
f 62/52/62 29/23/29 27/21/27
f 53/37/53 52/36/52 282/27/282
f 283/28/283 53/37/53 282/27/282
f 274/16/274 37/47/37 26/48/26
f 35/31/35 58/41/58 31/26/31
f 31/26/31 25/35/25 24/32/24
f 31/26/31 24/32/24 26/48/26
f 3/29/3 2/20/2 64/46/64
f 3/29/3 23/34/23 2/20/2
f 3/29/3 22/33/22 1/43/1
f 56/39/56 3/29/3 1/43/1
f 35/31/35 37/47/37 34/44/34
f 37/47/37 273/15/273 34/44/34
f 37/47/37 35/31/35 26/48/26
f 26/48/26 35/31/35 31/26/31
f 26/48/26 24/32/24 32/42/32
f 26/48/26 32/42/32 274/16/274
f 64/46/64 36/45/36 269/16/269
f 64/46/64 2/20/2 36/45/36
f 64/46/64 268/15/268 22/33/22
f 3/29/3 64/46/64 22/33/22
f 29/23/29 56/39/56 54/38/54
f 54/38/54 56/39/56 1/43/1
f 56/39/56 28/22/28 23/34/23
f 3/29/3 56/39/56 23/34/23
f 53/37/53 33/30/33 52/36/52
f 35/31/35 33/30/33 53/37/53
f 283/28/283 58/41/58 53/37/53
f 35/31/35 53/37/53 58/41/58
f 58/41/58 283/28/283 57/40/57
f 57/40/57 283/28/283 281/25/281
f 57/40/57 30/24/30 25/35/25
f 31/26/31 57/40/57 25/35/25
f 7/18/7 62/52/62 61/51/61
f 61/51/61 62/52/62 27/21/27
f 62/52/62 4/19/4 55/53/55
f 29/23/29 62/52/62 55/53/55
f 283/28/283 60/56/60 59/55/59
f 59/55/59 60/56/60 5/11/5
f 59/55/59 63/49/63 281/25/281
f 59/55/59 6/12/6 63/49/63
f 63/49/63 14/13/14 93/54/93
f 281/25/281 63/49/63 93/54/93
f 92/10/92 91/9/91 90/8/90
f 94/16/94 89/15/89 106/47/106
f 88/7/88 116/13/116 105/6/105
f 91/9/91 87/5/87 86/4/86
f 85/10/85 84/9/84 104/3/104
f 95/16/95 96/15/96 134/46/134
f 131/45/131 51/14/51 95/16/95
f 84/9/84 50/5/50 103/2/103
f 90/8/90 91/9/91 86/4/86
f 142/31/142 102/44/102 141/30/141
f 86/4/86 87/5/87 88/7/88
f 86/4/86 88/7/88 105/6/105
f 104/3/104 84/9/84 103/2/103
f 103/2/103 83/17/83 104/3/104
f 103/2/103 50/5/50 82/1/82
f 103/2/103 82/1/82 110/18/110
f 115/12/115 114/11/114 90/8/90
f 86/4/86 115/12/115 90/8/90
f 171/49/171 115/12/115 105/6/105
f 86/4/86 105/6/105 115/12/115
f 105/6/105 116/13/116 171/49/171
f 129/42/129 49/14/49 94/16/94
f 110/18/110 111/19/111 167/52/167
f 110/18/110 82/1/82 111/19/111
f 110/18/110 165/51/165 83/17/83
f 103/2/103 110/18/110 83/17/83
f 113/28/113 81/27/81 168/56/168
f 115/12/115 169/55/169 114/11/114
f 143/26/143 162/41/162 164/40/164
f 113/28/113 169/55/169 117/25/117
f 117/25/117 170/54/170 109/24/109
f 117/25/117 109/24/109 164/40/164
f 112/23/112 108/22/108 138/39/138
f 112/23/112 166/53/166 108/22/108
f 112/23/112 136/38/136 144/21/144
f 167/52/167 112/23/112 144/21/144
f 161/37/161 140/36/140 81/27/81
f 113/28/113 161/37/161 81/27/81
f 94/16/94 106/47/106 130/48/130
f 142/31/142 162/41/162 143/26/143
f 143/26/143 163/35/163 107/32/107
f 143/26/143 107/32/107 130/48/130
f 139/29/139 132/20/132 134/46/134
f 139/29/139 137/34/137 132/20/132
f 139/29/139 133/33/133 135/43/135
f 138/39/138 139/29/139 135/43/135
f 142/31/142 106/47/106 102/44/102
f 106/47/106 89/15/89 102/44/102
f 101/10/101 100/9/100 99/8/99
f 98/16/98 97/15/97 224/47/224
f 80/7/80 178/13/178 79/6/79
f 100/9/100 78/5/78 77/4/77
f 21/10/21 20/9/20 76/3/76
f 19/16/19 75/15/75 223/46/223
f 222/45/222 18/14/18 19/16/19
f 20/9/20 17/5/17 74/2/74
f 99/8/99 100/9/100 77/4/77
f 177/31/177 221/44/221 176/30/176
f 77/4/77 78/5/78 80/7/80
f 77/4/77 80/7/80 79/6/79
f 76/3/76 20/9/20 74/2/74
f 74/2/74 175/17/175 76/3/76
f 74/2/74 17/5/17 73/1/73
f 74/2/74 73/1/73 174/18/174
f 72/12/72 71/11/71 99/8/99
f 77/4/77 72/12/72 99/8/99
f 248/49/248 72/12/72 79/6/79
f 77/4/77 79/6/79 72/12/72
f 79/6/79 178/13/178 248/49/248
f 220/42/220 70/14/70 98/16/98
f 174/18/174 160/19/160 247/52/247
f 174/18/174 73/1/73 160/19/160
f 174/18/174 246/51/246 175/17/175
f 74/2/74 174/18/174 175/17/175
f 159/28/159 158/27/158 245/56/245
f 72/12/72 244/55/244 71/11/71
f 157/26/157 219/41/219 218/40/218
f 159/28/159 244/55/244 156/25/156
f 156/25/156 243/54/243 155/24/155
f 156/25/156 155/24/155 218/40/218
f 154/23/154 153/22/153 217/39/217
f 154/23/154 242/53/242 153/22/153
f 154/23/154 216/38/216 152/21/152
f 247/52/247 154/23/154 152/21/152
f 215/37/215 214/36/214 158/27/158
f 159/28/159 215/37/215 158/27/158
f 98/16/98 224/47/224 213/48/213
f 177/31/177 219/41/219 157/26/157
f 157/26/157 241/35/241 151/32/151
f 157/26/157 151/32/151 213/48/213
f 212/29/212 150/20/150 223/46/223
f 212/29/212 211/34/211 150/20/150
f 212/29/212 210/33/210 209/43/209
f 217/39/217 212/29/212 209/43/209
f 177/31/177 224/47/224 221/44/221
f 224/47/224 97/15/97 221/44/221
f 224/47/224 177/31/177 213/48/213
f 213/48/213 177/31/177 157/26/157
f 213/48/213 151/32/151 220/42/220
f 213/48/213 220/42/220 98/16/98
f 223/46/223 222/45/222 19/16/19
f 223/46/223 150/20/150 222/45/222
f 223/46/223 75/15/75 210/33/210
f 212/29/212 223/46/223 210/33/210
f 154/23/154 217/39/217 216/38/216
f 216/38/216 217/39/217 209/43/209
f 217/39/217 153/22/153 211/34/211
f 212/29/212 217/39/217 211/34/211
f 215/37/215 176/30/176 214/36/214
f 177/31/177 176/30/176 215/37/215
f 159/28/159 219/41/219 215/37/215
f 177/31/177 215/37/215 219/41/219
f 219/41/219 159/28/159 218/40/218
f 218/40/218 159/28/159 156/25/156
f 218/40/218 155/24/155 241/35/241
f 157/26/157 218/40/218 241/35/241
f 174/18/174 247/52/247 246/51/246
f 246/51/246 247/52/247 152/21/152
f 247/52/247 160/19/160 242/53/242
f 154/23/154 247/52/247 242/53/242
f 159/28/159 245/56/245 244/55/244
f 244/55/244 245/56/245 71/11/71
f 244/55/244 248/49/248 156/25/156
f 244/55/244 72/12/72 248/49/248
f 248/49/248 178/13/178 243/54/243
f 156/25/156 248/49/248 243/54/243
