# fff0c655_00014_0006b932
o fff0c655_00014_0006b932
v -6.158684 -1.326306 -1.886002
v -5.755485 -0.404956 -1.886002
v -15.005059 4.746398 -1.792332
v -14.243838 5.421756 -1.792332
v -24.894550 16.997581 -1.658566
v -23.773169 17.850492 -1.658566
v 3.661194 -5.104128 -1.760731
v 4.137942 -3.741890 -1.760731
v 13.294738 -7.237700 -1.659595
v 14.274610 -6.335592 -1.659595
v 18.154524 -17.861408 -2.230122
v 19.778688 -16.969700 -2.230122
v 18.365019 -21.485855 -2.751804
v 20.885983 -22.405392 -2.076843
v -0.714265 -2.123536 -1.822232
v -1.017384 -3.090110 -1.820794
v 9.356954 -4.750468 -1.707789
v 9.300314 -5.925600 -1.701046
v 17.798349 -11.960384 -1.968638
v 15.237587 -12.401544 -1.931861
v -18.663921 10.589531 -1.674400
v -19.476912 9.705309 -1.675833
v 15.760379 -22.981123 -3.026806
v 17.390995 -24.064724 -2.351845
v 14.557441 -26.351486 -3.106522
v 16.201786 -27.490038 -2.431561
v 16.177738 -22.569683 -2.990218
v 20.410322 -33.535461 -2.351845
v 22.448618 -33.849594 -2.351845
v 20.264668 -40.624958 -2.509800
v 22.333330 -40.986610 -2.509800
vt 1.940076 1.943143
vt 1.940076 0.738659
vt 1.487328 1.731869
vt 1.453535 1.995291
vt 1.453535 1.045743
vt 1.453535 1.995291
vt 1.453535 1.045743
vt 1.940076 1.943143
vt 1.940076 0.738659
vt 1.940076 1.943143
vt 1.940076 0.738659
vt 1.940076 1.943143
vt 1.940076 0.738659
vt 1.940076 1.943143
vt 1.940076 0.738659
vt 1.940076 0.738659
vt 1.940076 1.943143
vt 1.940076 0.738659
vt 1.940076 1.943143
vt 1.940076 0.738659
vt 1.940076 1.943143
vt 1.453535 1.045743
vt 1.453535 1.995291
vt 1.940076 1.943143
vt 1.940076 0.738659
vt 1.940076 1.943143
vt 1.940076 0.738659
vt 1.940076 1.943143
vn -0.001788 0.000791 0.999998
vn -0.001190 0.000403 0.999999
vn 0.009186 -0.010121 0.999907
vn 0.008690 -0.009795 0.999914
vn 0.001151 -0.001513 0.999998
vn 0.001084 -0.001548 0.999998
vn -0.010376 0.003834 0.999939
vn -0.010280 0.003663 0.999941
vn 0.010586 -0.013538 0.999852
vn 0.014874 -0.016380 0.999755
vn -0.039842 -0.029449 0.998772
vn 0.007113 -0.013465 0.999884
vn -0.248489 0.052677 0.967201
vn -0.201258 0.040709 0.978692
vn -0.011008 0.004933 0.999927
vn -0.011019 0.004849 0.999927
vn -0.008864 0.005925 0.999943
vn -0.008639 0.006310 0.999943
vn 0.022586 -0.043203 0.998811
vn 0.022056 -0.043893 0.998793
vn 0.005553 -0.006760 0.999962
vn 0.006758 -0.007774 0.999947
vn -0.296986 0.139938 0.944572
vn -0.265036 0.160834 0.950731
vn -0.322427 0.092798 0.942035
vn -0.324365 0.092524 0.941396
vn -0.243667 0.206854 0.947543
vn -0.003492 -0.022095 0.999750
vn -0.003402 -0.022071 0.999751
vn -0.003880 -0.022195 0.999746
vn -0.003789 -0.022171 0.999747
g fff0c655_00014_0006b932_e0
f 3/3/3 1/1/1 2/2/2
f 3/4/3 2/2/2 4/5/4
f 3/4/3 4/5/4 21/22/21
f 6/7/6 5/6/5 22/23/22
f 1/1/1 15/16/15 2/2/2
f 8/9/8 16/17/16 7/8/7
f 7/8/7 17/18/17 8/9/8
f 10/11/10 18/19/18 9/10/9
f 9/10/9 19/20/19 10/11/10
f 12/13/12 20/21/20 11/12/11
f 11/12/11 14/15/14 12/13/12
f 14/15/14 11/12/11 13/14/13
f 1/1/1 16/17/16 15/16/15
f 8/9/8 15/16/15 16/17/16
f 7/8/7 18/19/18 17/18/17
f 10/11/10 17/18/17 18/19/18
f 9/10/9 20/21/20 19/20/19
f 12/13/12 19/20/19 20/21/20
f 3/4/3 21/22/21 22/23/22
f 6/7/6 22/23/22 21/22/21
f 13/14/13 24/25/24 14/15/14
f 24/25/24 13/14/13 27/28/27
f 23/24/23 26/27/26 24/25/24
f 26/27/26 23/24/23 25/26/25
f 24/25/24 27/28/27 23/24/23
f 28/24/28 31/27/31 29/25/29
f 31/27/31 28/24/28 30/26/30
