# fff013d6_00022_00118d64
o fff013d6_00022_00118d64
v -0.055834 0.026072 0.330861
v -0.057414 -0.037268 0.327921
v -0.022480 -0.075188 0.662670
v 0.000394 -0.001805 0.565895
v -0.067675 0.044716 0.074928
v -0.067448 -0.018999 0.070470
v -0.054148 -0.052346 0.459912
v 0.000359 0.031104 0.504481
v 0.000322 0.020895 0.446362
v -0.046542 0.014270 0.449240
v 0.000344 0.049985 0.480047
v 0.056332 0.026072 0.330792
v 0.057908 -0.037268 0.327847
v 0.067420 0.044161 0.074903
v 0.068890 -0.018999 0.070384
v 0.054810 -0.052346 0.459844
v 0.047187 0.014269 0.449187
v 0.000038 -0.037717 -0.004175
v 0.000033 0.054934 -0.008474
v -0.069066 -0.034197 -0.058229
v -0.070181 0.044890 -0.051715
v -0.000004 -0.036266 -0.068577
v -0.069704 -0.031216 -0.002949
v -0.069343 0.045753 -0.003817
v 0.003847 -0.033226 -0.100072
v 0.006701 0.050249 -0.089152
v -0.000014 0.050037 -0.084198
v 0.000001 0.052214 -0.060214
v -0.000244 0.056610 0.047360
v 0.068811 -0.034197 -0.058315
v 0.069437 -0.031217 -0.003040
v 0.069075 0.045753 -0.003907
v -0.000020 -0.034071 -0.095028
v -0.022981 -0.041007 0.658003
v -0.003895 -0.033226 -0.100066
v -0.006735 0.050249 -0.089144
v -0.063074 -0.041704 0.632977
v -0.060587 -0.088368 0.628763
v -0.056169 -0.029556 0.592656
v -0.054316 -0.087444 0.583267
v -0.245373 -0.051197 0.431048
v -0.243102 -0.088641 0.430473
v -0.218320 -0.046069 0.416442
v -0.218529 -0.085909 0.408157
v -0.250420 -0.087399 0.416080
v -0.225382 -0.083851 0.394460
v -0.235948 -0.087597 0.442296
v -0.211711 -0.086643 0.418784
v -0.236936 -0.051712 0.443006
v -0.211889 -0.046866 0.425259
v -0.251399 -0.048356 0.418391
v -0.224253 -0.043733 0.405671
v -0.064364 -0.011153 -0.290830
v -0.013368 0.042811 -0.294186
v -0.014086 -0.005267 -0.295398
v -0.049906 0.000116 -0.589311
v -0.051380 -0.040827 -0.646382
v -0.024729 0.005547 -0.590963
v -0.011813 -0.036522 -0.646207
v -0.080605 0.112925 -0.620860
v -0.080616 0.117888 -0.638987
v -0.027617 0.166253 -0.617600
v -0.027625 0.165962 -0.630048
v -0.043224 -0.033415 -0.603057
v -0.021085 -0.029687 -0.603472
v -0.020389 0.123999 -0.638741
v -0.020438 0.125148 -0.619569
v -0.079539 0.140409 -0.631203
v -0.078972 0.140744 -0.618712
v -0.051274 -0.041809 -0.622548
v -0.013049 -0.037742 -0.622383
v -0.023134 0.058656 -0.613198
v -0.066027 0.060699 -0.606462
v -0.067118 0.038966 -0.297053
v -0.070018 0.058510 -0.637918
v -0.020067 0.055895 -0.640892
v -0.045373 0.163662 -0.617692
v -0.046056 0.163278 -0.630161
v -0.041730 0.122311 -0.619888
v -0.045032 0.156016 -0.618068
v -0.046297 0.155376 -0.630528
v 0.033699 0.051589 0.046639
v -0.034302 0.052142 0.046642
v -0.000075 0.056832 0.067393
v -0.000101 0.055434 0.026710
v 0.000331 -0.052346 0.459875
v -0.050339 0.014964 0.503854
v -0.036911 0.041271 0.485906
v -0.033793 0.020627 0.514251
v -0.053473 -0.055987 0.475952
v 0.070195 0.044890 -0.051798
v 0.008086 -0.025123 -0.188151
v 0.064075 -0.011154 -0.290912
v 0.013074 0.042811 -0.294203
v 0.013790 -0.005267 -0.295416
v 0.049238 0.000116 -0.589374
v 0.050640 -0.040827 -0.646447
v 0.024059 0.005547 -0.590994
v 0.011073 -0.036522 -0.646222
v 0.079897 0.112925 -0.620962
v 0.079886 0.117888 -0.639089
v 0.026913 0.166253 -0.617634
v 0.026905 0.165962 -0.630082
v 0.042538 -0.033415 -0.603111
v 0.020399 -0.029687 -0.603499
v 0.019658 0.123999 -0.638767
v 0.019731 0.125147 -0.619595
v 0.078819 0.140410 -0.631303
v 0.078267 0.140744 -0.618812
v 0.050564 -0.041809 -0.622613
v 0.012338 -0.037743 -0.622399
v 0.022436 0.058656 -0.613227
v 0.065338 0.060699 -0.606545
v 0.066820 0.038966 -0.297136
v 0.069288 0.058510 -0.638006
v 0.019333 0.055895 -0.640917
v 0.044669 0.163662 -0.617749
v 0.045336 0.163276 -0.630219
v 0.041023 0.122311 -0.619940
v 0.044328 0.156015 -0.618125
v 0.045576 0.155376 -0.630586
v 0.023405 -0.075188 0.662637
v 0.023880 -0.041007 0.657974
v 0.063955 -0.041704 0.632899
v 0.061462 -0.088368 0.628685
v 0.056998 -0.029557 0.592584
v 0.055134 -0.087445 0.583200
v 0.245997 -0.051197 0.430735
v 0.243725 -0.088642 0.430162
v 0.218924 -0.046069 0.416165
v 0.219127 -0.085908 0.407879
v 0.251027 -0.087401 0.415765
v 0.225958 -0.083850 0.394174
v 0.236587 -0.087598 0.441997
v 0.212321 -0.086643 0.418509
v 0.237575 -0.051712 0.442706
v 0.212509 -0.046866 0.424998
v 0.252006 -0.048357 0.418076
v 0.224845 -0.043733 0.405382
v 0.051057 0.014964 0.503789
v 0.037605 0.041271 0.485861
v 0.034524 0.020627 0.514211
v 0.054155 -0.055987 0.475881
v -0.021678 -0.073190 0.705847
v -0.018682 -0.045237 0.706469
v 0.022623 -0.073092 0.705670
v 0.019600 -0.046310 0.706078
v 0.312237 0.073565 0.109979
v 0.323991 0.078989 0.110774
v 0.354342 0.047615 0.080835
v 0.345072 0.046079 0.156075
v 0.338698 -0.007348 0.169187
v 0.321373 -0.007252 0.167853
v 0.322777 0.024455 0.172563
v 0.339188 0.024786 0.174329
v 0.339501 0.048447 0.017241
v 0.316504 0.064787 0.099758
v 0.329441 0.070473 0.102248
v 0.341066 -0.014035 0.027717
v 0.336807 0.035097 0.016380
v 0.327629 0.035478 0.022198
v 0.320141 0.088977 0.092019
v 0.316171 0.037712 0.124541
v 0.323444 0.012133 0.015297
v 0.325045 0.026686 0.015969
v 0.334676 0.013007 0.010252
v 0.334776 0.026565 0.049750
v 0.335064 0.032387 0.049456
v 0.351124 0.048335 0.124703
v 0.319182 0.051746 0.115951
v 0.338951 0.059998 0.117386
v 0.333814 0.028533 0.077789
v 0.328538 -0.013438 0.032877
v 0.329459 0.048995 0.023071
v 0.310145 0.083498 0.091239
v 0.336241 0.049886 0.080047
v 0.315617 0.044809 0.154367
v 0.331487 0.062970 0.139090
v 0.334676 0.013007 0.010252
v 0.314303 0.074369 0.088211
v 0.348770 0.024933 0.050030
v 0.336016 0.026100 0.010969
v 0.347944 -0.024585 0.118896
v 0.322855 -0.024872 0.119219
v 0.352068 -0.021151 0.077204
v 0.330796 -0.019192 0.077255
v 0.331362 -0.016767 0.052045
v 0.347837 -0.018827 0.052283
v 0.353979 0.027542 0.078181
v 0.348100 0.031911 0.049019
v 0.324029 0.080726 0.089623
v 0.348794 0.047376 0.049946
v 0.335753 0.048038 0.050812
v 0.314092 0.057960 0.137196
v 0.333320 0.011961 0.048330
v 0.332113 -0.003552 0.048912
v 0.347275 -0.004485 0.048838
v 0.347832 0.012917 0.048437
v -0.321835 0.079053 0.110791
v -0.336521 -0.007275 0.169217
v -0.319190 -0.007183 0.167879
v -0.320595 0.024526 0.172579
v -0.337019 0.024860 0.174350
v -0.334653 0.035169 0.016412
v 0.338292 0.012037 0.018827
v 0.341218 -0.002993 0.028677
v 0.328659 -0.002520 0.034464
v 0.325918 -0.001222 0.023987
v 0.337638 -0.001492 0.018124
v 0.325675 0.011868 0.025269
v -0.310106 0.073637 0.109993
v -0.314040 0.037780 0.124548
v -0.322896 0.026758 0.015988
v -0.348977 0.048409 0.124731
v -0.352176 0.047692 0.080849
v -0.342900 0.046154 0.156088
v -0.337338 0.048521 0.017266
v -0.336799 0.060069 0.117413
v -0.331668 0.028605 0.077796
v -0.314355 0.064852 0.099775
v -0.327314 0.070542 0.102273
v -0.338898 -0.013961 0.027731
v -0.325499 0.035549 0.022207
v -0.317993 0.089049 0.092041
v -0.307977 0.083562 0.091258
v -0.334072 0.049961 0.080054
v -0.321281 0.012203 0.015316
v -0.332491 0.013077 0.010280
v -0.332605 0.026638 0.049767
v -0.332887 0.032460 0.049480
v -0.345786 -0.024509 0.118911
v -0.349910 -0.021074 0.077209
v -0.320678 -0.024801 0.119237
v -0.328622 -0.019120 0.077283
v -0.317014 0.051817 0.115968
v -0.326356 -0.013367 0.032896
v -0.327285 0.049065 0.023090
v -0.346636 0.047452 0.049957
v -0.333594 0.048108 0.050829
v -0.311945 0.058026 0.137217
v -0.313467 0.044878 0.154381
v -0.329337 0.063037 0.139102
v -0.331172 0.012034 0.048350
v -0.329947 -0.003480 0.048932
v -0.332491 0.013077 0.010280
v -0.312155 0.074438 0.088220
v -0.336136 0.012109 0.018862
v -0.346593 0.025010 0.050042
v -0.333852 0.026172 0.010978
v -0.345673 -0.018751 0.052295
v -0.329188 -0.016695 0.052065
v -0.351811 0.027620 0.078198
v -0.345947 0.031988 0.049032
v -0.326507 -0.002449 0.034476
v -0.335478 -0.001419 0.018150
v -0.323750 -0.001151 0.023990
v -0.323519 0.011940 0.025274
v -0.321876 0.080791 0.089642
v -0.345119 -0.005448 0.048825
v -0.345659 0.010183 0.048293
v -0.339038 -0.002919 0.028704
vt 0.236930 0.502914
vt 0.456620 0.979950
vt 0.458468 0.502914
vt 0.425563 0.495317
vt 0.425379 0.498997
vt 0.431558 0.973046
vt 0.393258 0.504558
vt 0.392198 0.982119
vt 0.431839 0.971725
vt 0.394101 0.505082
vt 0.305511 0.979950
vt 0.313764 0.502914
vt 0.370581 0.979044
vt 0.369547 0.502914
vt 0.239207 0.979950
vt 0.297945 0.389067
vt 0.458352 0.502914
vt 0.456620 0.979950
vt 0.391841 0.984454
vt 0.236558 0.979950
vt 0.315155 0.502914
vt 0.304304 0.979950
vt 0.368274 0.502914
vt 0.237746 0.502914
vt 0.413645 0.032101
vt 0.432867 0.452730
vt 0.411368 0.452422
vt 0.377940 0.002710
vt 0.371953 0.425798
vt 0.353530 0.452730
vt 0.413652 0.033293
vt 0.243382 0.452730
vt 0.242668 0.029643
vt 0.309936 0.029643
vt 0.301654 0.452730
vt 0.302711 0.029643
vt 0.311154 0.452730
vt 0.377923 0.014138
vt 0.242343 0.452730
vt 0.244662 0.029643
vt 0.435005 0.029643
vt 0.367549 0.676526
vt 0.261345 0.487230
vt 0.207915 0.487230
vt 0.513428 0.198741
vt 0.433374 0.027327
vt 0.506330 0.029950
vt -0.110807 0.111873
vt -0.107180 0.613113
vt -0.111924 0.890711
vt 1.119459 0.583762
vt 1.124481 0.173352
vt 0.513519 0.565362
vt 1.124176 0.856555
vt -0.891415 3.847409
vt -0.322177 3.208039
vt -0.314396 2.854112
vt -0.939708 0.375889
vt -0.314044 0.354988
vt 2.402750 1.782713
vt 2.311002 2.596558
vt 0.984485 1.782713
vt 2.468861 0.975845
vt 0.917411 0.975845
vt 2.069280 3.234877
vt 2.161068 3.220929
vt -0.316841 2.437165
vt -0.946922 1.781595
vt 0.324433 1.781595
vt 1.700515 0.361662
vt 0.902545 0.388058
vt -0.954623 3.819936
vt 2.060509 3.748278
vt 2.099474 3.985599
vt 1.695474 3.691882
vt 1.695523 3.481267
vt 2.072782 3.475915
vt 1.696650 4.004388
vt -0.313512 2.816772
vt -0.312729 2.735509
vt 2.235176 3.863173
vt 2.665152 3.261141
vt 1.077232 2.596558
vt -0.312705 2.659702
vt 2.483325 0.388058
vt 0.316421 0.975845
vt 1.696035 3.244738
vt -0.934456 0.967979
vt -0.768272 2.917460
vt -0.601838 2.782365
vt 0.322039 0.388666
vt 0.270442 2.409020
vt -0.749687 2.748789
vt -0.595031 2.655836
vt -0.284882 3.941482
vt -0.894897 2.409020
vt -0.950552 2.875613
vt -0.967973 3.435400
vt 3.046516 2.867655
vt 2.994952 2.439960
vt 3.050115 1.782713
vt 3.057268 0.388666
vt 3.062477 0.975845
vt 2.450138 3.775147
vt -0.978774 3.984977
vt -0.991697 3.255331
vt 0.312298 0.967979
vt 0.317964 0.375889
vt 0.383685 2.439960
vt 0.328454 1.782713
vt 2.276529 0.819825
vt 2.227404 0.815089
vt 2.160735 0.824298
vt 2.276529 0.828770
vt 2.160777 0.835489
vt 2.219236 0.824298
vt 2.223178 0.824298
vt 2.227404 0.833506
vt 2.227525 0.824298
vt 2.222959 0.814120
vt 2.218802 0.814580
vt 2.275976 0.824298
vt 2.216673 0.814536
vt 2.221447 0.824298
vt 0.326289 0.301098
vt 0.332978 0.304040
vt 0.331730 0.306378
vt 0.227600 0.250364
vt 0.218156 0.253217
vt 0.233557 0.298880
vt 0.239405 0.295725
vt 0.232298 0.299663
vt 0.238002 0.294763
vt 0.215210 0.251685
vt 0.223544 0.248825
vt 0.300174 0.339984
vt 0.299468 0.330927
vt 0.335881 0.300221
vt 0.302214 0.339006
vt 0.333141 0.305303
vt 0.327727 0.300991
vt 0.330233 0.296915
vt 0.328993 0.299169
vt 0.334811 0.302868
vt 0.302433 0.330261
vt 0.327518 0.298910
vt 0.328859 0.295954
vt 0.334401 0.301001
vt 0.216510 0.494929
vt 0.215131 0.996166
vt 0.058310 0.996166
vt 0.050398 0.494929
vt 0.248113 0.496184
vt 0.248563 0.989129
vt 0.237443 0.989129
vt 0.257997 0.496184
vt 0.409550 0.496184
vt 0.409612 0.989129
vt 0.258002 0.989129
vt 0.238106 0.496184
vt 1.768456 1.322669
vt 1.794609 1.339981
vt 1.791100 1.277155
vt 1.878076 1.277155
vt 1.731922 1.333080
vt 1.614730 1.277155
vt 1.841010 1.277155
vt 1.902266 1.277155
vt 1.841182 1.328753
vt 1.896564 1.331170
vt 1.696278 1.358623
vt 1.615305 1.314198
vt 1.590487 1.350597
vt 1.585961 1.317651
vt 1.614170 1.348785
vt 1.617039 1.347350
vt 1.766128 1.370781
vt 1.704087 1.358077
vt 1.926920 1.331093
vt 1.934439 1.277138
vt 1.842268 1.351048
vt 1.753306 1.372078
vt 1.584920 1.277155
vt 1.885810 1.338189
vt 1.927771 1.277155
vt 1.928071 1.343050
vt 1.921831 1.333440
vt 1.856566 1.404343
vt 1.816575 1.404343
vt 1.856722 1.380191
vt 1.906484 1.391703
vt 1.906896 1.361330
vt 1.812641 1.378169
vt 1.207308 0.737816
vt 1.233766 0.751024
vt 1.232552 0.777778
vt 1.226050 0.795694
vt 1.205059 0.770539
vt 1.216282 0.794736
vt 1.207626 0.790567
vt 1.865309 1.277155
vt 1.233284 0.761636
vt 1.206469 0.750016
vt 1.823527 1.277155
vt 0.229183 0.979950
vt 0.102974 0.502914
vt 0.093455 0.979950
vt 0.091873 0.979950
vt 0.103611 0.502914
vt 0.226381 0.979950
vt 0.221933 0.502914
vt 0.125391 0.029643
vt 0.125949 0.452730
vt 0.117057 0.029643
vt 0.233433 0.452730
vt 0.235886 0.029643
vt 0.229538 0.452730
vt 0.115672 0.452730
vt 1.919650 1.334837
vt 1.930651 1.278055
vt 1.207887 0.788221
vt 0.228760 0.160650
vt 0.218368 0.029643
vt 0.209174 0.502914
vt 1.004553 -2.917663
vt 0.169850 -2.926152
vt 1.906788 1.369320
vt 0.025003 1.001650
vt 1.008508 1.010282
vt 1.931329 1.278114
vt 1.208300 0.788541
vt 0.631964 0.025860
vt 0.511217 0.025860
vt 0.631964 -3.986329
vt 0.511217 -3.986329
vt 0.838743 0.003451
vt 1.001115 0.003451
vt 1.001115 0.948039
vt 0.139064 0.948039
vt 0.139064 0.003451
vt 0.207604 0.933279
vt -0.637997 0.061054
vt 0.825654 0.916201
vt 0.013983 0.063306
vt 0.520326 0.770605
vt 0.765666 0.872806
vt 0.476814 0.474263
vt 0.764207 0.478102
vt 1.038986 0.474421
vt 0.759063 0.073088
vt 0.145378 0.147523
vt 0.278186 0.092095
vt 2.287126 2.695988
vt 3.014840 2.604915
vt -0.982493 2.610676
vt 1.694117 2.596558
vt -0.989597 3.019421
vt -0.946019 3.019421
vt -0.953454 3.197503
vt 2.043245 3.996645
vt 1.696659 4.004388
vt 2.203122 3.970375
vt -0.283846 3.941568
vt -0.853867 3.899568
vt -0.995637 4.043912
vt 0.341908 -0.349792
vt 0.350388 -0.351638
vt 0.019740 -0.351638
vt 0.342029 -0.444972
vt -0.319026 0.177429
vt -0.319026 0.177429
vt 1.633820 0.387843
vt 1.636257 0.393494
vt 1.638919 0.399667
vt 0.422218 -0.444972
vt 0.019740 -0.444972
vt 0.019740 -0.444972
vt 0.359966 -0.349839
vt 0.416928 -0.347993
vt 0.360407 -0.444972
vt 0.342029 -0.444972
vt 0.019740 -0.351638
vt -0.319026 0.177429
vt -0.319026 0.177429
vt -0.319026 0.177429
vt -0.319026 0.177429
vt 0.355956 -0.355142
vt -0.319026 0.177429
vt -0.319026 0.177429
vt -0.319026 0.177429
vt 0.247952 -0.289885
vt 0.040453 -0.463197
vt 0.360407 -0.444972
vt -0.319026 0.177429
vt -0.319026 0.177429
vt -0.319026 0.177429
vt -0.319026 0.177429
vt -0.319026 0.177429
vt -0.319026 0.177429
vt -0.319026 0.177429
vt -0.319026 0.177429
vt -0.319026 0.177429
vt -0.319026 0.177429
vt -0.319026 0.177429
vt 0.422179 -0.444972
vt 0.423587 -0.351638
vt 0.195275 -0.444128
vt 0.035196 -0.294588
vt 0.195275 -0.294588
vt 0.035196 -0.444128
vt 0.045157 -0.289885
vt 0.220329 -0.444382
vt 0.103401 0.793078
vt 0.280210 0.066005
vt -0.319026 0.177429
vt -0.319026 0.177429
vt -0.319026 0.177429
vt -0.319026 0.177429
vt -0.319026 0.177429
vt -0.319026 0.177429
vt 0.289179 0.038366
vt 0.280210 0.804909
vt 0.298201 0.808585
vt 0.112729 0.076498
vt 0.290839 0.793078
vt 0.293904 0.066761
vt 0.462572 0.808585
vt 0.019279 0.808585
vt 0.019279 0.808585
vt 0.462592 0.808585
vt 0.378638 0.808585
vt 0.361496 0.808585
vt 0.048445 0.617248
vt 0.293699 0.617248
vt 0.043925 0.038366
vt 0.072540 0.804909
vt 0.072540 0.066005
vt -0.319026 0.177429
vt 0.160662 0.460646
vt 0.119950 0.461593
vt 0.256138 0.464980
vt 0.134322 0.547306
vt 0.216433 0.634971
vt 0.255471 0.542532
vt 0.155760 0.640661
vt 0.216429 0.635389
vt 0.116483 0.603372
vt -0.319026 0.177429
vt -0.319026 0.177429
vt -0.319026 0.177429
vt 0.183212 0.808585
vt 0.298317 0.808585
vt -0.319026 0.177429
vt -0.319026 0.177429
vt 0.219010 0.540823
vt 0.212358 0.547649
vt 0.199485 0.552483
vt 0.194188 0.503747
vt 0.132348 0.543798
vt 0.210894 0.534609
vt 0.205347 0.543155
vt 0.212916 0.552766
vt 0.179208 0.530816
vt 0.109785 0.525749
vt 0.137566 0.563013
vt 0.201829 0.572580
vt 0.194909 0.583048
vt 0.187739 0.559122
vt 0.182153 0.475318
vt 0.182314 0.478500
vt 0.135641 0.530235
vt 0.179731 0.523221
vt 0.206914 0.564646
vt 0.197599 0.586563
vt 0.207793 0.576075
vt 0.195900 0.531740
vt 0.198125 0.564698
vt 0.180219 0.604352
vt 0.194183 0.500859
vt 0.181153 0.500306
vt 0.153420 0.602684
vt 0.196654 0.591244
vt 0.224023 0.529178
vt 0.222260 0.530286
vt 0.193323 0.475804
vt 0.193581 0.478849
vt 0.245229 -0.994725
vt 0.245229 0.009831
vt 0.698704 -0.994725
vt 0.253197 -0.994725
vt 0.994788 0.009831
vt 0.992425 -0.994725
vt 0.698704 -0.994725
vt 0.223380 0.542575
vt 0.181158 0.503547
vt 0.196899 0.524044
vt 0.215637 0.538351
vt 0.229005 0.531190
vt 0.206930 0.556213
vt 0.212108 0.568744
vt 0.218852 0.555754
vt 0.216541 0.527853
vt 0.999833 0.087265
vt 0.407715 -0.027743
vt 0.448377 0.974078
vt 0.404254 0.961220
vt 0.401362 1.780954
vt 0.253197 -1.959621
vt 0.991625 -0.994725
vt 0.992978 -1.959621
vt 1.002378 0.009831
vt 0.245229 0.009831
vt 0.994788 0.009831
vt 0.698704 -0.994725
vt 1.000127 1.000717
vt 0.254237 0.880177
vt 0.813368 0.009831
vt 0.252082 0.009831
vt 0.480521 0.950043
vt 0.451745 1.623551
vt 0.194084 0.923289
vt 0.197820 0.080788
vt 1.000981 0.916528
vt 0.508245 -0.909498
vt 0.124935 0.081118
vt 0.010546 0.956657
vt 0.332421 0.933711
vt 0.278348 0.079128
vt 0.279848 0.852850
vt 0.332421 0.081828
vt 0.619683 0.933711
vt 0.991809 0.933711
vt 0.993255 0.085672
vt 0.619683 0.084388
vt 0.372517 -0.793902
vt 0.474629 -0.864277
vt 0.414418 -0.962014
vt 0.508767 -0.001614
vt 0.478451 -0.005028
vt 0.357167 0.041548
vt 0.351571 1.029011
vt 0.458916 1.956548
vt 0.125832 0.906572
vt 0.033247 0.087265
vt 0.324564 -0.940544
vt 0.330436 1.814334
vt 0.324974 0.994349
vt 0.457786 1.811850
vt 0.448173 -0.938446
vt 0.319543 -0.007053
vt 0.354232 1.930516
vn -0.029894 0.995786 0.086697
vn -0.998165 0.038181 0.047004
vn -0.000058 -0.995783 -0.091741
vn -0.999108 0.020991 0.036644
vn -0.552989 -0.710956 0.434448
vn 0.000265 0.895487 0.445087
vn -0.178190 0.982313 0.057527
vn -0.999765 -0.005030 0.021111
vn -0.999200 -0.001805 0.039940
vn -0.021510 -0.997166 0.072099
vn -0.999678 -0.000117 0.025391
vn -0.999239 -0.006245 0.038502
vn -0.000117 -0.986030 -0.166571
vn -0.991289 0.111732 0.069729
vn 0.000332 0.831451 0.555598
vn -0.000152 0.962642 -0.270776
vn -0.788197 0.607500 -0.098438
vn -0.000044 0.996913 -0.078513
vn 0.030694 0.995781 0.086481
vn 0.998261 0.038228 0.044869
vn -0.000056 -0.995786 -0.091708
vn 0.999115 0.023018 0.035194
vn 0.182284 0.981671 0.055625
vn 0.998814 0.020512 0.044164
vn 0.999534 0.021739 0.021435
vn 0.021549 -0.997248 0.070936
vn 0.998828 0.020106 0.044033
vn 0.999808 0.013463 0.014222
vn -0.000093 -0.986027 -0.166586
vn 0.991371 0.111766 0.068499
vn 0.788072 0.607492 -0.099474
vn 0.000106 -0.996039 0.088914
vn 0.006038 0.999388 -0.034463
vn -0.029202 -0.999305 -0.023169
vn -0.999792 -0.016145 -0.012443
vn -0.112434 0.993142 -0.032056
vn -0.999971 -0.007277 -0.002275
vn 0.000058 -0.999061 -0.043323
vn -0.000078 -0.996574 -0.082711
vn -0.072746 -0.993020 0.092836
vn -0.999909 -0.001345 0.013412
vn -0.146115 0.989154 -0.014978
vn -0.999762 0.002685 0.021630
vn 0.042932 -0.995023 -0.089925
vn 0.109058 -0.990624 -0.082282
vn -0.936284 0.063104 -0.345530
vn 0.069843 0.996497 -0.045993
vn -0.866486 0.089674 -0.491081
vn -0.000038 0.995908 -0.090377
vn -0.000588 0.153261 -0.988186
vn 0.003208 0.998876 -0.047290
vn 0.007525 0.999406 -0.033617
vn 0.033366 -0.999304 -0.016674
vn 0.999732 -0.019267 -0.012792
vn 0.073386 -0.993032 0.092207
vn 0.999989 -0.002643 0.003774
vn 0.137577 0.990345 -0.017012
vn 0.999794 0.008678 0.018352
vn -0.000029 -0.996574 -0.082711
vn -0.000827 0.127705 -0.991812
vn -0.497596 0.740625 0.451522
vn -0.063034 -0.990627 -0.121180
vn -0.109135 -0.990626 -0.082153
vn 0.933866 0.063510 -0.351939
vn -0.069891 0.996498 -0.045903
vn 0.865833 0.089494 -0.492265
vn -0.552329 0.518160 0.653025
vn -0.434767 -0.726707 0.531859
vn 0.716934 0.131685 -0.684591
vn -0.292642 0.909133 0.296376
vn -0.996965 -0.019697 -0.075322
vn 0.004350 -0.995699 -0.092539
vn 0.716311 0.134000 -0.684794
vn -0.999140 0.007128 -0.040839
vn -0.870067 -0.045976 0.490785
vn -0.085504 0.978946 0.185350
vn 0.048789 -0.998226 -0.034114
vn -0.872292 -0.060358 0.485245
vn 0.850219 0.100169 -0.516810
vn -0.073835 0.978833 0.190877
vn 0.019968 -0.992977 -0.116613
vn 0.871109 0.095608 -0.481693
vn -0.920552 -0.051990 0.387144
vn -0.028838 -0.983841 -0.176707
vn 0.912583 0.082914 -0.400397
vn -0.055512 -0.972411 -0.226574
vn 0.046064 -0.998914 0.006957
vn -0.791019 -0.044076 0.610202
vn 0.784648 0.111378 -0.609855
vn 0.030651 -0.998690 -0.040984
vn -0.774899 -0.037596 0.630966
vn -0.124215 0.986773 0.104162
vn 0.763324 0.107111 -0.637074
vn -0.121055 0.985716 0.117090
vn -0.038822 0.963518 0.264812
vn -0.930137 -0.044881 0.364460
vn -0.039521 0.963247 0.265695
vn 0.905851 0.090175 -0.413888
vn 0.114814 -0.993256 -0.016128
vn -0.997301 -0.063195 -0.037388
vn -0.070236 0.994982 -0.071263
vn 0.999558 -0.009527 -0.028157
vn 0.100941 -0.994848 -0.009361
vn 0.999565 -0.007733 -0.028467
vn -0.109358 0.860424 0.497706
vn -0.972155 -0.189049 0.138471
vn -0.004737 0.084023 -0.996453
vn 0.106713 -0.993370 -0.042748
vn -0.982894 -0.184143 -0.003199
vn -0.132599 0.829138 0.543091
vn 0.988045 0.089781 0.125323
vn -0.019742 0.074880 -0.996997
vn 0.108266 -0.993091 -0.045265
vn 0.993309 0.095767 0.064550
vn -0.048829 0.099305 0.993858
vn -0.995605 -0.093312 0.007929
vn -0.026920 0.166167 -0.985730
vn -0.998477 -0.054385 -0.009311
vn -0.144082 0.989302 -0.022862
vn 0.001334 -0.047992 0.998847
vn 0.985041 0.172259 -0.004644
vn -0.022980 0.199007 -0.979729
vn -0.143960 0.989315 -0.023045
vn 0.985071 0.172063 -0.005427
vn 0.164031 -0.962180 0.217494
vn -0.896801 -0.308666 0.316976
vn 0.140873 -0.957224 0.252738
vn 0.964886 0.000916 0.262667
vn -0.029915 0.128590 -0.991246
vn 0.998157 0.059093 0.013778
vn -0.015796 0.018768 0.999699
vn 0.997653 0.068453 -0.001278
vn -0.410291 0.911937 -0.005673
vn -0.043480 0.283382 -0.958021
vn -0.998485 0.032371 0.044502
vn -0.410252 0.911954 -0.005795
vn -0.001477 -0.066623 0.997777
vn -0.998543 0.043417 0.032054
vn 0.118064 -0.983001 0.140607
vn -0.960303 -0.222082 0.168812
vn 0.104575 -0.980953 0.163695
vn 0.983590 0.065144 0.168246
vn 0.120507 0.233403 0.964884
vn 0.992276 0.042598 0.116510
vn 0.113348 0.236042 0.965110
vn -0.968790 -0.193813 0.154540
vn -0.071494 0.994631 -0.074817
vn -0.997804 -0.054834 -0.037158
vn -0.053140 0.009338 -0.998544
vn -0.975434 -0.191479 0.108923
vn -0.043971 0.028655 -0.998622
vn 0.993367 0.045797 0.105474
vn -0.744498 0.667318 0.020250
vn 0.001942 -0.049024 0.998796
vn -0.101209 0.148750 -0.983682
vn -0.779713 0.624577 0.044185
vn -0.004131 0.045110 0.998973
vn -0.410397 0.911891 -0.005341
vn -0.997204 -0.021438 0.071591
vn 0.001308 -0.050582 0.998719
vn -0.410438 0.911874 -0.005213
vn -0.169559 0.116168 -0.978649
vn -0.994689 0.025680 0.099672
vn 0.164956 0.986262 0.008735
vn -0.160023 0.987072 0.009027
vn 0.005718 0.998912 0.046280
vn 0.008544 0.999561 -0.028368
vn -0.000122 -0.981507 -0.191428
vn -0.886022 0.429275 0.175179
vn -0.498644 0.865660 0.044572
vn -0.313864 0.810980 0.493762
vn -0.011329 -0.966405 -0.256774
vn -0.997194 0.074475 0.007593
vn 0.102900 0.994396 -0.024234
vn 0.999954 -0.009501 -0.000837
vn 0.186955 -0.970025 -0.155238
vn -0.998138 0.040990 -0.045173
vn -0.114832 -0.993256 -0.016018
vn 0.997281 -0.063121 -0.038043
vn 0.070146 0.994982 -0.071352
vn -0.999593 -0.009530 -0.026890
vn -0.088207 -0.996026 -0.012284
vn -0.999598 -0.006990 -0.027461
vn 0.109989 0.860422 0.497571
vn 0.972327 -0.189061 0.137246
vn 0.003471 0.084024 -0.996458
vn -0.106757 -0.993371 -0.042624
vn 0.982891 -0.184133 -0.004481
vn 0.133290 0.829139 0.542921
vn -0.987886 0.089772 0.126578
vn 0.018475 0.074881 -0.997021
vn -0.108312 -0.993092 -0.045135
vn -0.993227 0.095767 0.065801
vn 0.050090 0.099303 0.993796
vn 0.995612 -0.093338 0.006709
vn 0.025670 0.166170 -0.985763
vn 0.998463 -0.054408 -0.010521
vn 0.144074 0.989297 -0.023116
vn -0.000065 -0.047999 0.998847
vn -0.985047 0.172254 -0.003415
vn 0.021741 0.199013 -0.979756
vn 0.143989 0.989306 -0.023243
vn -0.985078 0.172060 -0.004190
vn -0.163776 -0.962180 0.217685
vn 0.897188 -0.308687 0.315858
vn -0.140561 -0.957222 0.252919
vn -0.964545 0.000890 0.263917
vn 0.028658 0.128592 -0.991283
vn -0.998139 0.059100 0.015050
vn 0.017059 0.018771 0.999678
vn -0.997654 0.068456 -0.000008
vn 0.410263 0.911947 -0.006145
vn 0.042264 0.283389 -0.958073
vn 0.998539 0.032388 0.043253
vn 0.410221 0.911965 -0.006276
vn 0.002743 -0.066620 0.997775
vn 0.998581 0.043416 0.030826
vn -0.117883 -0.983003 0.140746
vn 0.960518 -0.222084 0.167584
vn -0.104357 -0.980953 0.163830
vn -0.983376 0.065139 0.169494
vn -0.119278 0.233402 0.965037
vn -0.992127 0.042600 0.117767
vn -0.112119 0.236041 0.965253
vn 0.968992 -0.193812 0.153268
vn 0.071399 0.994631 -0.074905
vn 0.997756 -0.055129 -0.037985
vn 0.051871 0.009338 -0.998610
vn 0.975576 -0.191480 0.107647
vn 0.042703 0.028655 -0.998677
vn -0.993232 0.045796 0.106733
vn 0.744504 0.667343 0.019142
vn -0.000683 -0.049049 0.998796
vn 0.099977 0.148748 -0.983808
vn 0.779806 0.624538 0.043082
vn 0.005395 0.045112 0.998967
vn 0.410377 0.911898 -0.005788
vn 0.997297 -0.021497 0.070254
vn -0.000043 -0.050585 0.998720
vn 0.410421 0.911879 -0.005651
vn 0.168347 0.116154 -0.978860
vn 0.994823 0.025630 0.098343
vn 0.553580 -0.710458 0.434510
vn 0.496896 0.739828 0.453595
vn 0.553101 0.518132 0.652394
vn 0.435419 -0.726708 0.531325
vn 0.292977 0.909142 0.296014
vn -0.717813 0.131676 -0.683671
vn 0.996869 -0.019696 -0.076579
vn -0.004458 -0.995701 -0.092515
vn -0.717201 0.133952 -0.683871
vn 0.999088 0.007126 -0.042103
vn 0.870672 -0.045949 0.489714
vn 0.085745 0.978944 0.185248
vn 0.872889 -0.060366 0.484171
vn -0.048855 -0.998224 -0.034090
vn 0.074126 0.978839 0.190735
vn -0.851028 0.100206 -0.515471
vn -0.871698 0.095524 -0.480644
vn -0.020126 -0.992969 -0.116649
vn 0.919724 -0.052123 0.389090
vn 0.028596 -0.983825 -0.176837
vn 0.054871 -0.972507 -0.226318
vn -0.911596 0.083775 -0.402462
vn 0.791831 -0.044065 0.609149
vn -0.046072 -0.998914 0.006987
vn -0.030713 -0.998688 -0.040980
vn -0.785352 0.111482 -0.608928
vn 0.775716 -0.037574 0.629963
vn 0.124374 0.986770 0.103998
vn 0.121260 0.985712 0.116908
vn -0.764320 0.107331 -0.635842
vn 0.039047 0.963468 0.264962
vn 0.929084 -0.045016 0.367119
vn 0.039790 0.963228 0.265723
vn -0.904866 0.091079 -0.415840
vn 0.886270 0.429239 0.174009
vn 0.498718 0.865650 0.043941
vn 0.314506 0.810977 0.493358
vn 0.010999 -0.966403 -0.256796
vn 0.997202 0.074491 0.006324
vn -0.736642 -0.671215 0.082646
vn -0.647537 0.752028 0.123086
vn 0.736333 -0.671294 0.084715
vn 0.664231 0.736022 0.130648
vn -0.936956 -0.333321 -0.104927
vn -0.395696 0.788454 0.470919
vn 0.825186 0.562766 0.048596
vn -0.386151 0.785214 0.484072
vn 0.999096 -0.012710 -0.040562
vn 0.121024 0.992550 -0.014050
vn 0.959807 0.182994 0.212800
vn -0.076069 0.665010 0.742951
vn 0.963569 -0.064727 0.259510
vn -0.005385 -0.999024 0.043849
vn 0.002201 -0.999814 -0.019165
vn -0.992163 -0.005030 -0.124849
vn -0.996259 0.031278 0.080559
vn -0.066082 0.842515 0.534604
vn 0.959730 -0.057771 0.274919
vn -0.076746 0.825819 0.558689
vn -0.489778 0.154158 -0.858110
vn 0.061696 0.997913 0.019036
vn 0.938148 -0.129322 -0.321176
vn -0.932207 -0.345345 -0.108294
vn 0.426228 -0.647633 -0.631586
vn 0.842303 0.538622 -0.020302
vn 0.384649 -0.650148 -0.655250
vn -0.396205 0.107354 -0.911865
vn -0.112735 -0.980625 -0.160202
vn 0.964488 0.009688 -0.263948
vn -0.510821 0.138393 -0.848475
vn -0.079605 -0.993146 -0.085577
vn 0.926938 -0.165278 -0.336852
vn -0.955438 0.111675 0.273254
vn -0.527443 0.125643 -0.840249
vn -0.095785 -0.991653 -0.086308
vn 0.889589 0.456449 0.016884
vn -0.062311 0.251071 -0.965961
vn -0.448041 0.747672 0.490148
vn -0.984848 -0.040272 -0.168679
vn 0.059661 -0.997422 -0.039880
vn -0.413806 0.087370 -0.906163
vn -0.970766 0.096647 0.219708
vn -0.411228 0.089585 -0.907120
vn 0.048597 0.998764 -0.010417
vn -0.959881 0.118668 0.254058
vn -0.411650 0.089223 -0.906964
vn 0.916052 -0.072188 -0.394509
vn 0.098498 0.993950 -0.048603
vn -0.988404 0.097797 0.116160
vn -0.994021 0.048517 0.097815
vn -0.045131 -0.993007 -0.109089
vn 0.948869 0.275170 0.154689
vn 0.215096 0.868510 -0.446568
vn -0.961020 -0.113723 -0.252006
vn 0.483245 0.111298 -0.868382
vn 0.718005 0.687439 0.109071
vn 0.263460 -0.486236 -0.833165
vn -0.975173 0.084934 -0.204511
vn 0.027899 0.032541 -0.999081
vn -0.371579 0.137569 -0.918152
vn -0.115421 -0.980741 -0.157563
vn -0.989520 -0.009960 0.144050
vn -0.962699 0.083821 0.257264
vn -0.506072 0.141986 -0.850724
vn 0.065780 0.997644 0.019489
vn -0.924712 -0.364392 -0.110116
vn -0.056876 0.274723 -0.959840
vn -0.430900 0.763159 0.481574
vn -0.962559 0.134298 -0.235466
vn 0.115871 0.993175 -0.013328
vn -0.993608 -0.091948 0.065483
vn -0.121016 0.687138 0.716377
vn 0.688632 0.706819 0.161844
vn -0.217127 0.754310 0.619574
vn 0.001439 -0.997200 -0.074760
vn -0.917873 -0.373291 -0.134767
vn 0.493970 -0.620528 -0.609048
vn -0.052689 0.292718 -0.954746
vn 0.116922 0.990673 -0.069979
vn 0.970943 -0.042962 -0.235425
vn 0.064760 0.997852 -0.009889
vn -0.408888 0.091590 -0.907977
vn 0.938585 -0.039631 -0.342766
vn 0.989332 -0.053206 0.135614
vn 0.008289 -0.993874 0.110211
vn -0.989208 -0.096470 -0.110276
vn -0.001485 -0.990104 0.140330
vn 0.998722 -0.033858 -0.037526
vn -0.073547 -0.991988 -0.102718
vn -0.988382 0.015285 -0.151219
vn -0.096740 -0.988099 -0.119594
vn -0.121291 -0.984494 -0.126729
vn -0.996278 0.055662 0.065823
vn -0.112477 -0.986765 -0.116806
vn 0.977534 -0.007800 -0.210634
vn 0.998219 -0.031460 -0.050684
vn 0.115586 0.108408 -0.987364
vn -0.041192 -0.992538 -0.114766
vn 0.968446 -0.045810 -0.244979
vn 0.900292 0.434000 -0.033455
vn -0.057840 0.270551 -0.960966
vn 0.450487 -0.620741 -0.641671
vn 0.063920 0.997735 -0.020954
vn 0.972427 -0.022143 -0.232153
vn -0.994241 0.050500 0.094526
vn 0.050625 0.998486 -0.021503
vn -0.986946 -0.132706 -0.091253
vn -0.297582 0.774130 0.558720
vn -0.987502 0.070256 0.141079
vn -0.989344 0.083318 0.119399
vn 0.970299 -0.030707 -0.239952
vn 0.968670 -0.036011 -0.245728
vn -0.824569 0.563555 0.049913
vn 0.386351 0.785050 0.484179
vn 0.005083 -0.999059 0.043060
vn -0.964257 -0.064366 0.257030
vn 0.992472 -0.005125 -0.122366
vn -0.002425 -0.999824 -0.018615
vn 0.996129 0.031047 0.082239
vn 0.066379 0.842286 0.534928
vn -0.960427 -0.057550 0.272522
vn 0.077018 0.826215 0.558065
vn 0.510295 0.137404 -0.848952
vn 0.079523 -0.993148 -0.085636
vn -0.926947 -0.164874 -0.337025
vn -0.036328 -0.994602 -0.097201
vn -0.454394 0.068152 -0.888190
vn 0.943924 -0.031827 -0.328626
vn -0.081489 -0.990794 -0.108104
vn -0.414332 0.084502 -0.906195
vn 0.955172 -0.017197 -0.295552
vn -0.083788 -0.991370 -0.100823
vn -0.390565 0.114356 -0.913445
vn -0.969973 0.020896 0.242314
vn -0.082027 -0.990934 -0.106402
vn -0.444530 0.079161 -0.892259
vn -0.967839 -0.042302 0.247988
vn -0.079696 -0.990306 -0.113767
vn -0.449717 0.073389 -0.890151
vn 0.945367 -0.028828 -0.324731
vn 0.018939 -0.997750 -0.064313
vn -0.449589 0.073532 -0.890204
vn -0.959823 0.066288 0.272664
vn 0.937370 -0.332461 -0.103957
vn 0.396017 0.788244 0.471001
vn 0.984839 -0.040586 -0.168657
vn -0.048653 0.998761 -0.010439
vn 0.411891 0.089459 -0.906831
vn 0.959852 0.118861 0.254081
vn -0.948862 0.275036 0.154969
vn -0.215034 0.868506 -0.446608
vn -0.999090 -0.012806 -0.040689
vn -0.120920 0.992563 -0.014011
vn -0.959721 0.182883 0.213281
vn 0.076270 0.665138 0.742815
vn 0.489171 0.153251 -0.858619
vn -0.061220 0.997942 0.019092
vn -0.938141 -0.128932 -0.321353
vn -0.717697 0.687710 0.109392
vn -0.263662 -0.486315 -0.833055
vn 0.975246 0.084694 -0.204259
vn -0.028285 0.032089 -0.999085
vn 0.932440 -0.344924 -0.107628
vn -0.426305 -0.647770 -0.631394
vn -0.841774 0.539495 -0.019022
vn -0.384632 -0.650312 -0.655098
vn 0.396113 0.107911 -0.911839
vn 0.112463 -0.980658 -0.160191
vn -0.964487 0.010994 -0.263900
vn 0.956325 0.108643 0.271365
vn 0.527001 0.124572 -0.840685
vn 0.095827 -0.991643 -0.086383
vn -0.889337 0.456962 0.016282
vn 0.062191 0.251326 -0.965903
vn 0.447930 0.747601 0.490359
vn 0.924418 -0.365183 -0.109968
vn 0.056659 0.275428 -0.959651
vn 0.430935 0.762966 0.481848
vn 0.962676 0.133275 -0.235569
vn -0.115739 0.993191 -0.013302
vn -0.059885 -0.997411 -0.039808
vn 0.413862 0.087771 -0.906098
vn 0.970483 0.097439 0.220609
vn 0.412218 0.089180 -0.906710
vn -0.914849 -0.073969 -0.396963
vn -0.098306 0.993967 -0.048641
vn 0.988477 0.096430 0.116685
vn 0.993948 0.049005 0.098311
vn 0.044872 -0.993012 -0.109147
vn -0.989321 -0.053203 0.135699
vn -0.008502 -0.993880 0.110134
vn -0.998720 -0.034617 -0.036864
vn 0.073333 -0.992006 -0.102698
vn 0.989247 -0.095830 -0.110482
vn 0.001263 -0.990105 0.140322
vn 0.988377 0.015845 -0.151194
vn 0.096529 -0.988115 -0.119630
vn 0.961162 -0.114150 -0.251272
vn -0.483547 0.111481 -0.868190
vn 0.371536 0.138033 -0.918100
vn 0.115152 -0.980775 -0.157546
vn 0.989415 -0.007251 0.144934
vn 0.963151 0.082112 0.256120
vn 0.505505 0.141033 -0.851219
vn -0.065278 0.997676 0.019541
vn -0.063551 0.997758 -0.020963
vn -0.972459 -0.021979 -0.232034
vn 0.994150 0.051144 0.095135
vn -0.050173 0.998508 -0.021554
vn 0.986951 -0.132818 -0.091032
vn 0.297483 0.774135 0.558765
vn 0.993679 -0.091675 0.064796
vn 0.121080 0.687191 0.716315
vn -0.688454 0.706935 0.162094
vn 0.217115 0.754368 0.619508
vn 0.987530 0.070136 0.140944
vn 0.989353 0.084031 0.118827
vn -0.001704 -0.997211 -0.074609
vn 0.917090 -0.374664 -0.136284
vn 0.052394 0.293784 -0.954435
vn -0.494496 -0.620367 -0.608785
vn 0.036006 -0.994635 -0.096980
vn 0.452661 0.068821 -0.889023
vn -0.943566 -0.032168 -0.329618
vn -0.116681 0.990701 -0.069986
vn -0.970701 -0.032624 -0.238066
vn -0.064761 0.997852 -0.009910
vn 0.410109 0.090982 -0.907487
vn -0.938261 -0.040238 -0.343580
vn 0.112202 -0.986799 -0.116787
vn -0.977446 -0.009278 -0.210979
vn 0.121011 -0.984533 -0.126691
vn 0.996226 0.056584 0.065811
vn -0.998271 -0.030785 -0.050065
vn -0.115865 0.105649 -0.987630
vn 0.040896 -0.992549 -0.114781
vn -0.968502 -0.045558 -0.244801
vn 0.083604 -0.991394 -0.100735
vn 0.390489 0.114886 -0.913411
vn 0.969909 0.021886 0.242484
vn 0.079397 -0.990306 -0.113972
vn 0.448004 0.074025 -0.890962
vn -0.945901 -0.029005 -0.323157
vn 0.081791 -0.990949 -0.106449
vn 0.442847 0.079750 -0.893043
vn 0.967538 -0.041504 0.249296
vn -0.019102 -0.997752 -0.064239
vn 0.447881 0.074161 -0.891012
vn 0.959761 0.066340 0.272870
vn -0.900335 0.433726 -0.035766
vn 0.057642 0.271172 -0.960804
vn -0.450714 -0.620600 -0.641648
vn -0.969528 -0.035003 -0.242468
vn -0.968500 -0.033130 -0.246800
vn 0.081243 -0.990807 -0.108174
vn 0.414263 0.085058 -0.906174
vn -0.954557 -0.018981 -0.297422
g fff013d6_00022_00118d64_e2
f 65/153/128 66/154/129 67/155/132
f 66/143/130 65/144/128 69/138/138
f 26/117/48 24/120/43 27/112/50
f 103/113/202 25/116/46 103/115/201
f 7/60/13 9/61/16 46/256/86
f 64/73/125 63/104/124 63/81/123
f 22/111/39 26/119/48 27/112/50
f 73/260/146 63/81/123 74/262/147
f 40/222/74 30/217/54 32/213/58
f 66/154/129 65/153/128 68/159/134
f 63/55/123 2/56/4 20/95/34
f 26/125/48 26/127/47 24/126/42
f 63/139/124 69/141/137 64/145/126
f 25/133/46 102/134/200 103/135/201
f 53/191/100 62/227/119 59/188/113
f 73/264/145 20/105/34 72/265/144
f 64/106/126 70/97/140 71/89/142
f 5/67/9 6/68/12 1/69/1
f 59/33/114 50/32/94 49/34/91
f 69/156/136 63/157/124 64/158/125
f 14/30/25 49/35/92 16/36/30
f 64/136/125 65/137/127 68/125/135
f 16/36/30 49/35/92 51/39/95
f 57/233/108 62/235/121 62/234/120
f 2/56/4 64/106/126 71/89/142
f 57/232/109 57/233/108 62/234/120
f 69/138/138 70/142/139 66/143/130
f 46/256/86 72/253/143 65/65/127
f 60/203/116 54/196/101 60/202/115
f 54/196/101 60/203/116 56/198/106
f 54/196/101 56/198/106 57/197/108
f 78/151/155 67/149/132 76/152/152
f 57/199/108 56/198/106 62/231/121
f 68/125/135 68/127/134 64/136/125
f 53/194/99 60/202/115 52/195/97
f 60/202/115 53/194/99 60/203/116
f 61/221/118 56/198/106 55/200/103
f 68/133/133 77/135/153 76/134/152
f 68/125/135 66/126/129 68/127/134
f 16/36/30 51/39/95 50/40/93
f 64/111/126 69/112/137 68/119/135
f 49/34/91 50/32/94 15/37/26
f 46/256/86 5/83/7 1/62/2
f 26/125/48 22/136/38 26/127/47
f 103/151/203 102/152/200 25/149/45
f 54/187/102 61/219/117 61/220/118
f 62/231/121 56/198/106 61/221/118
f 66/143/130 69/141/137 69/140/136
f 20/95/34 74/264/147 63/55/123
f 51/215/95 55/214/104 50/216/93
f 77/113/154 77/115/153 68/116/133
f 63/81/123 73/260/146 63/74/122
f 58/174/110 55/176/104 56/173/105
f 68/117/135 69/112/137 66/120/130
f 63/55/123 64/98/126 2/56/4
f 52/183/97 58/172/111 53/166/99
f 56/218/105 55/214/104 51/215/95
f 8/70/15 7/63/13 1/64/2
f 62/230/121 61/220/118 62/186/120
f 3/108/5 45/59/84 45/244/83
f 51/189/96 59/190/112 52/193/98
f 65/87/127 23/65/40 46/256/86
f 39/174/70 39/172/71 36/175/65
f 59/188/113 62/227/119 59/190/112
f 6/88/12 7/58/14 45/59/84
f 6/92/10 5/67/9 1/69/1
f 1/107/1 45/59/84 3/108/5
f 62/186/120 61/220/118 61/219/117
f 1/107/1 6/88/12 45/59/84
f 8/70/15 1/64/2 4/71/6
f 38/233/68 43/234/80 44/235/81
f 7/58/14 44/242/82 45/59/84
f 59/188/113 59/190/112 51/189/96
f 39/232/69 43/234/80 38/233/68
f 52/213/98 59/223/114 51/212/96
f 41/203/76 41/202/75 34/196/61
f 58/174/110 58/172/111 52/183/97
f 65/144/128 66/143/130 69/140/136
f 54/187/102 61/220/118 55/185/103
f 62/227/119 57/192/107 59/190/112
f 58/174/110 56/175/105 58/172/111
f 34/196/61 36/198/66 41/203/76
f 59/222/114 52/213/98 50/217/94
f 74/264/147 20/95/34 73/263/145
f 46/256/86 23/65/40 48/253/90
f 2/74/3 63/78/122 73/261/146
f 34/196/61 38/197/68 36/198/66
f 67/124/131 66/120/130 68/116/133
f 38/199/68 44/231/81 36/198/66
f 73/261/146 72/260/144 2/74/3
f 2/56/4 48/89/89 22/106/39
f 67/146/131 66/126/129 68/125/135
f 22/136/38 26/125/48 23/137/40
f 27/156/49 22/158/38 21/157/37
f 22/106/39 48/89/89 47/97/87
f 33/194/59 32/195/57 41/202/75
f 41/202/75 41/203/76 33/194/59
f 21/139/37 22/145/39 27/141/50
f 10/96/17 6/68/12 5/67/9
f 25/146/44 26/125/48 24/126/42
f 42/221/78 35/200/63 36/198/66
f 23/153/41 26/159/47 27/156/49
f 26/117/48 25/124/44 24/120/43
f 43/227/79 40/190/72 37/192/67
f 24/143/43 27/140/49 27/141/50
f 24/126/42 25/148/45 25/146/44
f 29/131/52 103/128/202 28/130/51
f 35/187/62 35/185/63 42/220/78
f 68/116/133 66/121/130 70/123/139
f 39/174/70 32/183/57 39/172/71
f 23/144/41 27/140/49 24/143/43
f 20/55/34 2/56/4 22/98/39
f 67/132/132 68/133/133 76/134/152
f 25/116/46 29/123/52 24/121/43
f 32/213/58 31/212/56 40/223/74
f 40/188/73 31/189/56 40/190/72
f 68/117/135 66/120/130 67/124/131
f 12/36/20 31/39/55 20/35/35
f 67/149/132 78/151/155 69/150/138
f 25/124/44 25/116/46 24/120/43
f 22/73/38 2/74/3 20/81/34
f 25/132/45 102/134/200 25/133/46
f 12/36/20 30/40/53 31/39/55
f 13/34/21 21/37/36 30/32/54
f 22/73/38 20/81/34 21/104/37
f 70/131/139 69/130/138 77/128/154
f 7/60/13 46/256/86 1/62/2
f 11/27/18 8/26/15 4/41/6
f 67/155/132 69/160/138 65/153/128
f 44/241/82 18/49/32 12/53/19
f 22/73/38 23/77/40 65/76/127
f 67/146/131 68/147/133 67/148/132
f 11/27/18 17/31/31 8/26/15
f 35/187/62 42/220/78 42/219/77
f 33/191/60 40/188/73 43/227/79
f 24/143/43 28/138/51 23/144/41
f 3/54/5 45/243/83 14/51/24
f 26/159/47 22/158/38 27/156/49
f 64/73/125 63/81/123 63/74/122
f 43/186/80 42/219/77 42/220/78
f 21/72/37 20/55/34 22/98/39
f 46/245/85 44/241/82 12/53/19
f 21/139/37 27/141/50 27/140/49
f 22/73/38 64/75/125 2/74/3
f 14/51/24 45/243/83 12/53/19
f 23/153/41 25/155/45 24/154/42
f 44/231/81 42/221/78 36/198/66
f 11/27/18 4/41/6 14/25/23
f 64/122/126 68/118/135 65/114/127
f 64/75/125 22/73/38 65/76/127
f 40/188/73 40/190/72 43/227/79
f 77/128/154 69/130/138 78/129/155
f 7/50/14 18/49/32 44/241/82
f 28/138/51 24/143/43 29/142/52
f 25/155/45 23/153/41 28/160/51
f 25/149/45 28/150/51 103/151/203
f 22/122/39 23/114/40 26/118/48
f 25/116/46 103/113/202 29/123/52
f 63/72/124 64/98/126 63/55/123
f 12/53/19 45/243/83 46/245/85
f 2/74/3 64/75/125 63/78/122
f 103/128/202 103/129/203 28/130/51
f 24/154/42 26/159/47 23/153/41
f 66/126/129 67/146/131 67/148/132
f 31/215/55 30/216/53 35/214/64
f 40/33/74 13/34/21 30/32/54
f 25/146/44 25/148/45 25/147/46
f 68/159/134 69/156/136 64/158/125
f 39/174/70 36/173/65 35/176/64
f 32/183/57 33/166/59 39/172/71
f 63/139/124 69/140/136 69/141/137
f 68/116/133 70/123/139 77/113/154
f 36/218/65 31/215/55 35/214/64
f 2/74/3 72/262/144 20/81/34
f 44/230/81 43/186/80 42/220/78
f 31/189/56 32/193/58 40/190/72
f 65/153/128 69/156/136 68/159/134
f 81/368/163 92/367/177 100/366/194
f 92/347/177 77/346/153 77/345/154
f 92/347/177 96/344/184 77/343/153
f 76/382/151 76/381/152 95/365/183
f 91/386/174 86/380/168 99/379/193
f 76/382/151 78/378/155 76/381/152
f 81/342/163 97/341/186 96/344/184
f 75/401/149 93/400/178 89/399/171
f 92/347/177 81/342/163 96/344/184
f 87/377/169 76/382/151 95/365/183
f 92/340/176 90/339/172 88/364/170
f 81/398/162 80/397/158 99/384/191
f 98/363/189 75/376/150 87/377/169
f 93/375/178 76/374/151 87/377/169
f 74/362/148 79/361/157 100/373/194
f 94/402/180 79/360/157 91/383/175
f 98/363/189 87/377/169 95/365/183
f 97/341/186 81/359/163 90/339/172
f 91/386/174 81/370/161 86/380/168
f 90/372/172 92/396/176 99/358/193
f 88/357/170 81/368/163 100/373/194
f 90/372/172 99/358/193 86/395/168
f 100/373/194 79/361/157 88/357/170
f 80/356/158 75/401/149 89/399/171
f 106/292/209 105/312/206 106/311/208
f 106/311/208 105/312/206 105/291/207
f 74/355/148 91/383/175 79/360/157
f 89/399/171 93/375/178 87/377/169
f 80/397/158 81/398/162 75/394/149
f 81/359/163 88/364/170 90/339/172
f 93/310/179 107/309/210 82/308/164
f 98/363/189 95/365/183 96/371/185
f 107/309/210 93/310/179 104/307/205
f 108/368/212 121/366/240 121/367/241
f 121/347/241 103/345/202 103/346/201
f 121/347/241 103/343/201 117/344/233
f 109/382/216 116/365/231 102/381/200
f 120/386/237 120/379/239 116/380/230
f 109/382/216 102/381/200 103/378/203
f 108/342/212 117/344/233 118/341/234
f 102/401/199 110/399/218 121/400/242
f 121/347/241 117/344/233 108/342/212
f 108/377/214 116/365/231 109/382/216
f 114/340/226 118/364/235 110/339/219
f 113/398/224 130/384/258 111/397/221
f 127/363/252 108/377/214 109/376/215
f 121/375/242 108/377/214 109/374/216
f 107/362/211 121/373/240 111/361/220
f 125/402/246 113/383/225 111/360/220
f 127/363/252 116/365/231 108/377/214
f 118/341/234 110/339/219 108/359/212
f 120/386/237 116/380/230 112/370/223
f 110/372/219 120/358/239 114/396/226
f 118/357/235 121/373/240 108/368/212
f 110/372/219 116/395/230 120/358/239
f 121/373/240 118/357/235 111/361/220
f 111/356/221 110/399/218 102/401/199
f 129/292/255 129/311/256 132/312/261
f 129/311/256 128/291/254 132/312/261
f 107/355/211 111/360/220 113/383/225
f 110/399/218 108/377/214 121/375/242
f 111/397/221 102/394/199 113/398/224
f 108/359/212 110/339/219 118/364/235
f 124/310/245 114/308/227 130/309/257
f 127/363/252 117/371/232 116/365/231
f 130/309/257 126/307/247 124/310/245
f 93/354/178 100/353/194 92/338/177
f 99/290/193 92/289/176 99/288/192
f 91/274/175 81/273/162 99/272/191
f 107/337/210 106/322/209 106/336/208
f 81/370/161 91/386/174 80/369/160
f 105/335/207 80/334/159 90/333/173
f 80/332/158 79/331/157 99/330/191
f 105/321/206 80/334/159 105/335/207
f 98/287/190 98/306/189 90/305/172
f 80/352/158 89/351/171 88/329/170
f 90/304/173 97/303/188 97/320/187
f 78/385/156 80/369/160 91/386/174
f 97/319/186 96/318/185 96/302/184
f 121/354/242 121/338/241 121/353/240
f 80/317/159 97/303/188 90/304/173
f 112/370/223 104/369/204 120/386/237
f 77/316/153 96/302/184 95/301/183
f 113/274/225 130/272/258 113/273/224
f 76/315/152 77/316/153 95/301/183
f 130/337/257 129/336/256 129/322/255
f 78/350/155 76/349/151 77/348/154
f 95/301/183 96/302/184 96/318/185
f 97/300/188 96/299/185 97/298/186
f 99/288/192 92/289/176 75/286/150
f 120/290/239 120/288/238 114/289/226
f 97/300/188 97/298/186 97/297/187
f 87/328/169 88/329/170 89/351/171
f 128/335/254 119/333/236 112/334/222
f 92/338/177 76/349/151 93/354/178
f 99/285/193 78/296/156 91/295/174
f 88/284/170 75/271/150 92/270/176
f 77/348/154 76/349/151 92/338/177
f 99/283/192 78/296/156 99/285/193
f 86/269/168 80/268/160 98/267/190
f 95/282/182 85/281/167 94/266/181
f 104/314/205 106/322/209 107/337/210
f 111/332/221 130/330/258 111/331/220
f 94/327/180 99/330/191 79/331/157
f 95/326/182 84/325/166 83/324/165
f 99/384/191 94/402/180 91/383/175
f 132/321/261 128/335/254 112/334/222
f 87/294/169 75/271/150 88/284/170
f 86/293/168 98/287/190 90/305/172
f 84/325/166 82/313/164 83/324/165
f 85/280/167 98/279/189 94/278/181
f 86/269/168 81/277/161 80/268/160
f 88/329/170 79/323/157 80/352/158
f 83/276/165 85/281/167 95/282/182
f 85/280/167 90/275/172 98/279/189
f 115/280/229 127/279/252 110/275/219
f 108/276/213 126/282/249 115/281/229
f 118/329/235 111/352/221 111/323/220
f 116/269/230 104/268/204 112/277/223
f 115/280/229 126/278/248 127/279/252
f 115/325/228 108/324/213 114/313/227
f 116/293/230 110/305/219 128/287/253
f 108/294/214 118/284/235 109/271/215
f 118/319/234 117/302/233 117/318/232
f 130/384/258 113/383/225 125/402/246
f 126/326/249 108/324/213 115/325/228
f 125/327/246 111/331/220 130/330/258
f 109/385/217 120/386/237 104/369/204
f 126/314/247 130/337/257 129/322/255
f 126/282/249 126/266/248 115/281/229
f 116/269/230 128/267/253 104/268/204
f 120/283/238 120/285/239 109/296/217
f 103/348/202 121/338/241 109/349/216
f 118/284/235 114/270/226 109/271/215
f 120/285/239 120/295/237 109/296/217
f 121/338/241 121/354/242 109/349/216
f 128/287/253 110/305/219 127/306/252
f 108/328/214 110/351/218 118/329/235
f 127/300/250 127/297/251 118/298/234
f 119/304/236 127/320/251 127/303/250
f 120/288/238 109/286/215 114/289/226
f 127/300/250 118/298/234 117/299/232
f 116/301/231 117/318/232 117/302/233
f 103/350/203 103/348/202 109/349/216
f 112/317/222 119/304/236 127/303/250
f 102/315/200 116/301/231 103/316/201
f 111/352/221 118/329/235 110/351/218
f 103/316/201 116/301/231 117/302/233
g fff013d6_00022_00118d64_e14
f 62/240/119 62/236/120 57/239/107
f 57/225/109 62/229/120 62/228/119
f 62/236/120 54/238/102 57/239/107
f 57/225/109 62/228/119 53/226/100
f 62/236/120 61/237/117 54/238/102
f 43/240/79 37/239/67 43/236/80
f 39/225/69 43/228/79 43/229/80
f 43/236/80 37/239/67 35/238/62
f 39/225/69 33/226/60 43/228/79
f 43/236/80 35/238/62 42/237/77
f 2/257/4 5/258/8 48/259/89
f 2/257/4 71/259/142 5/258/8
f 102/450/198 98/449/189 96/448/185
f 102/418/198 104/417/205 94/416/181
f 75/434/149 81/433/162 91/432/175
f 95/415/182 94/416/181 104/417/205
f 105/414/206 104/413/205 102/412/198
f 84/411/166 95/415/182 104/417/205
f 80/410/159 105/409/206 97/408/188
f 74/431/148 75/434/149 91/432/175
f 105/393/206 106/392/209 104/391/205
f 101/447/197 102/450/198 96/448/185
f 105/409/206 101/390/197 97/408/188
f 97/446/188 101/447/197 96/448/185
f 75/430/149 100/429/194 93/428/178
f 98/449/189 102/450/198 94/445/181
f 75/430/149 74/427/148 100/429/194
f 105/389/206 102/388/198 101/387/197
f 97/407/187 101/406/196 105/405/207
f 75/426/150 98/444/189 99/443/192
f 90/442/172 100/441/195 101/440/196
f 99/443/192 98/444/189 98/425/190
f 105/405/207 100/404/195 107/439/210
f 82/438/164 107/439/210 83/424/165
f 101/406/196 100/404/195 105/405/207
f 100/404/195 85/437/167 107/439/210
f 97/436/186 101/440/196 97/435/187
f 78/423/156 98/422/190 80/403/160
f 100/441/195 90/442/172 85/451/167
f 99/421/192 98/422/190 78/423/156
f 97/407/187 105/405/207 90/420/173
f 85/437/167 83/424/165 107/439/210
f 107/439/210 106/419/208 105/405/207
f 97/436/186 90/442/172 101/440/196
f 131/450/260 117/448/232 127/449/252
f 131/418/260 126/416/248 126/417/247
f 102/434/199 113/432/225 113/433/224
f 126/415/249 126/417/247 126/416/248
f 132/414/261 131/412/260 126/413/247
f 115/411/228 126/417/247 126/415/249
f 112/410/222 127/408/250 132/409/261
f 107/431/211 113/432/225 102/434/199
f 132/393/261 126/391/247 129/392/255
f 131/447/259 117/448/232 131/450/260
f 132/409/261 127/408/250 131/390/259
f 127/446/250 117/448/232 131/447/259
f 102/430/199 121/428/242 121/429/240
f 127/449/252 126/445/248 131/450/260
f 102/430/199 121/429/240 107/427/211
f 132/389/261 131/387/259 131/388/260
f 127/407/251 128/405/254 123/406/244
f 109/426/215 120/443/238 127/444/252
f 110/442/219 123/440/244 122/441/243
f 120/443/238 128/425/253 127/444/252
f 128/405/254 130/439/257 122/404/243
f 114/438/227 108/424/213 130/439/257
f 123/406/244 128/405/254 122/404/243
f 122/404/243 130/439/257 115/437/229
f 118/436/234 127/435/251 123/440/244
f 109/423/217 104/403/204 128/422/253
f 122/441/243 115/451/229 110/442/219
f 120/421/238 109/423/217 128/422/253
f 127/407/251 119/420/236 128/405/254
f 115/437/229 130/439/257 108/424/213
f 130/439/257 128/405/254 129/419/256
f 118/436/234 123/440/244 110/442/219
g fff013d6_00022_00118d64_e7
f 45/246/84 44/247/82 16/248/29
f 45/249/83 45/246/84 16/248/29
f 45/249/83 16/248/29 46/250/85
f 44/247/82 46/250/85 16/248/29
g fff013d6_00022_00118d64_e9
f 47/97/87 48/89/89 47/90/88
f 71/90/141 6/80/11 5/79/8
f 47/90/88 5/79/8 6/80/11
f 15/45/28 15/47/27 21/46/36
f 21/46/36 13/48/21 15/45/28
f 48/89/89 5/57/8 47/90/88
f 12/53/19 13/52/21 14/51/24
f 71/89/142 71/90/141 5/57/8
f 70/97/140 71/90/141 71/89/142
f 12/53/19 15/45/28 13/52/21
f 15/252/26 15/251/28 49/48/91
f 15/45/28 15/46/26 15/47/27
f 15/251/28 18/49/32 49/48/91
f 12/53/19 18/49/32 15/251/28
g fff013d6_00022_00118d64_e10
f 13/7/21 12/19/20 14/6/23
f 49/10/91 18/4/32 17/9/31
f 13/7/21 14/6/23 14/5/24
f 49/10/91 17/9/31 16/8/30
f 13/29/22 16/38/30 17/31/31
f 13/29/22 11/27/18 14/25/23
f 13/29/22 17/31/31 11/27/18
f 13/29/22 14/25/23 12/28/20
f 14/30/25 16/38/30 13/29/22
f 20/30/35 13/29/22 12/38/20
f 13/16/22 19/43/33 14/44/25
f 13/16/22 20/44/35 19/43/33
f 9/61/16 72/253/143 46/256/86
f 72/253/143 9/61/16 10/254/17
f 47/97/87 47/93/88 6/255/10
f 5/67/9 6/84/11 71/94/141
f 6/254/10 48/253/90 47/99/87
f 48/253/90 6/254/10 5/61/7
f 5/61/7 46/256/86 48/253/90
f 6/96/10 47/94/88 5/67/9
f 5/67/9 47/94/88 6/84/11
f 70/97/140 10/255/17 71/93/141
f 10/96/17 5/67/9 71/94/141
f 10/254/17 70/99/140 72/253/143
g fff013d6_00022_00118d64_e11
f 15/14/27 15/23/26 14/13/25
f 19/42/33 15/14/27 14/13/25
f 15/14/27 20/13/35 21/23/36
f 19/42/33 20/13/35 15/14/27
g fff013d6_00022_00118d64_e12
f 23/66/40 47/99/87 48/253/90
f 23/66/40 22/82/39 47/99/87
f 14/5/24 4/18/6 3/17/5
f 54/168/101 57/179/109 53/170/100
f 34/168/61 33/170/60 39/179/69
f 1/110/1 1/62/2 5/83/7
f 1/110/1 5/83/7 6/109/10
f 7/102/14 7/63/13 8/85/15
f 14/5/24 14/6/23 4/18/6
f 58/161/110 59/181/113 51/177/96
f 3/91/5 4/71/6 1/64/2
f 3/91/5 1/64/2 1/86/1
f 51/177/96 55/178/104 58/161/110
f 31/177/56 39/161/70 35/178/64
f 39/161/70 31/177/56 40/181/73
f 7/102/14 6/103/12 7/63/13
f 6/101/12 9/61/16 7/60/13
f 59/1/114 16/11/30 50/15/93
f 31/206/56 35/207/64 30/205/53
f 18/4/32 8/2/15 17/9/31
f 6/101/12 10/100/17 9/61/16
f 52/167/97 60/169/115 58/161/110
f 18/4/32 7/3/14 8/2/15
f 51/206/96 50/205/93 55/207/104
f 51/206/96 59/224/114 50/205/93
f 33/170/60 34/168/61 41/201/75
f 58/161/110 60/169/115 59/181/113
f 57/179/109 54/168/101 57/180/108
f 59/1/114 49/12/91 16/11/30
f 53/170/100 60/201/115 54/168/101
f 41/169/75 40/181/73 33/170/60
f 65/66/127 70/99/140 64/82/126
f 39/179/69 38/180/68 34/168/61
f 31/206/56 30/205/53 40/224/74
f 32/167/57 39/161/70 41/169/75
f 40/1/74 30/15/53 12/11/20
f 39/161/70 40/181/73 41/169/75
f 40/1/74 12/11/20 13/12/21
f 60/169/115 53/170/100 59/181/113
f 65/66/127 72/253/143 70/99/140
g fff013d6_00022_00118d64_e13
f 40/162/72 33/163/59 41/204/76
f 32/182/58 36/171/65 39/165/71
f 39/165/71 40/162/72 32/182/58
f 35/187/62 37/184/67 35/185/63
f 59/162/112 53/163/99 58/165/111
f 40/162/72 41/204/76 36/164/66
f 37/184/67 40/162/72 36/164/66
f 57/184/107 55/185/103 56/164/106
f 37/184/67 36/164/66 35/185/63
f 40/162/72 39/165/71 33/163/59
f 52/182/98 58/165/111 56/171/105
f 59/162/112 56/164/106 60/204/116
f 14/13/25 15/21/26 49/22/92
f 57/184/107 56/164/106 59/162/112
f 50/211/94 52/209/98 56/208/105
f 58/165/111 52/182/98 59/162/112
f 54/187/102 55/185/103 57/184/107
f 56/208/105 51/210/95 50/211/94
f 30/211/54 36/208/65 32/209/58
f 36/208/65 30/211/54 31/210/55
f 59/162/112 60/204/116 53/163/99
f 15/21/26 50/24/94 51/20/95
f 49/22/92 15/21/26 51/20/95
f 20/22/35 31/20/55 21/21/36
f 21/21/36 31/20/55 30/24/54
