# fff034df_00009_00338c4d
o fff034df_00009_00338c4d
v 0.751495 -0.150000 -0.443542
v 1.146994 -0.150000 0.272345
v 0.906511 -0.150000 -0.162949
v -0.679599 -0.150000 0.381336
v -1.146994 -0.150000 -0.443542
v 0.557076 -0.150000 0.443542
v 0.751495 0.150000 -0.443542
v 1.146995 0.150000 0.272345
v 0.906511 0.150000 -0.162949
v -0.679600 0.150000 0.381336
v -1.146994 0.150000 -0.443542
v 0.557076 0.150000 0.443542
vt 2.000000 2.354242
vt 2.000000 3.000246
vt 1.000000 2.354242
vt 2.000000 0.999997
vt 1.000000 0.999997
vt 2.000000 1.391963
vt 2.000000 1.000011
vt 1.000000 1.000011
vt 1.000000 1.391963
vt 2.000000 2.000011
vt 1.000000 2.000011
vt 2.000000 3.497177
vt 2.000000 1.000002
vt 1.000000 1.000002
vt 1.000000 3.497177
vt 2.000000 0.999997
vt 2.000000 2.509859
vt 1.000000 0.999997
vt 4.162287 0.915732
vt 4.485451 1.070223
vt 4.551717 0.964599
vt 4.522319 0.915732
vt 3.592378 -7.315929
vt 4.664156 -7.363201
vt 3.423878 -7.990008
vt 5.069228 -7.990008
vt 3.081112 -7.446023
vt 3.289530 -7.776792
vt 4.250917 1.059390
vt 1.000000 2.509857
vt 4.597323 1.040406
vt 1.000000 3.000248
vn 0.403190 -0.608637 -0.683374
vn 0.761580 -0.566554 0.314663
vn 0.618934 -0.707107 -0.341936
vn -0.414797 -0.613079 0.672367
vn -0.718730 -0.554977 -0.418841
vn 0.085815 -0.671667 0.735867
vn 0.403190 0.608637 -0.683374
vn 0.761581 0.566552 0.314663
vn 0.618934 0.707107 -0.341937
vn -0.414799 0.613078 0.672367
vn -0.718730 0.554977 -0.418841
vn 0.085815 0.671667 0.735866
g fff034df_00009_00338c4d_e0
f 5/26/5 1/25/1 4/24/4
f 1/25/1 3/28/3 6/23/6
f 6/23/6 4/24/4 1/25/1
f 2/27/2 6/23/6 3/28/3
g fff034df_00009_00338c4d_e1
f 2/2/2 8/32/8 6/1/6
f 12/3/12 10/5/10 4/4/4
f 8/32/8 12/3/12 6/1/6
f 11/14/11 7/15/7 1/12/1
f 1/12/1 5/13/5 11/14/11
f 4/4/4 6/1/6 12/3/12
g fff034df_00009_00338c4d_e4
f 8/31/8 10/29/10 12/20/12
f 11/19/11 9/21/9 7/22/7
f 11/19/11 10/29/10 9/21/9
f 9/21/9 10/29/10 8/31/8
g fff034df_00009_00338c4d_e2
f 3/6/3 1/7/1 7/8/7
f 7/8/7 9/9/9 3/6/3
f 2/10/2 3/6/3 9/9/9
f 9/9/9 8/11/8 2/10/2
f 10/30/10 11/18/11 5/16/5
f 4/17/4 10/30/10 5/16/5
