# fff002f9_00009_00042e1d
o fff002f9_00009_00042e1d
v -1.027907 -0.214366 -0.546738
v -1.027907 -1.169854 -0.546738
v -1.027907 -1.169854 0.057092
v -1.027907 -0.214366 0.057092
v -1.701645 -1.169854 0.057092
v -1.378047 -1.169854 -0.546738
v -1.701645 -0.214366 0.057092
v -1.378047 -0.214366 -0.546738
v -1.402192 -0.275933 -0.501668
v -1.366769 -0.275933 -0.482688
v -1.402192 -1.121322 -0.501668
v -1.366769 -1.121322 -0.482688
v -1.682267 -1.121322 0.020946
v -1.682267 -0.275933 0.020946
v -1.646844 -0.275933 0.039927
v -1.646844 -1.121322 0.039927
v -1.027907 -1.365777 0.220941
v -1.027907 1.365775 0.220941
v -1.027907 -1.365777 -1.171364
v -1.033950 0.093925 -0.215663
v -1.033950 -0.856326 -0.861668
v -1.033950 -1.171129 -0.546738
v -1.033950 -0.237574 -0.546738
v -1.033950 -0.237574 0.011768
v -1.033950 0.093925 -0.861668
v 0.711868 -1.092184 0.585825
v 0.549754 -1.066522 0.585825
v 0.433694 -0.950468 0.192502
v 0.433694 -0.950468 0.585825
v 0.387637 -1.040860 0.585825
v 0.387637 -1.040860 0.192502
v 0.403520 -1.141036 0.585825
v 0.403520 -1.141036 0.192502
v 0.475243 -1.212754 0.585825
v 0.475243 -1.212754 0.192502
v 0.665813 -1.182576 0.192502
v 0.575418 -1.228632 0.585825
v 0.575418 -1.228632 0.192502
v 0.665813 -1.182576 0.585825
v 0.524087 -0.904412 0.192502
v 0.624263 -0.920290 0.192502
v 0.549742 -1.066486 1.171364
v 0.322960 -1.182074 1.043590
v 0.322960 -1.182074 0.774027
v 0.434184 -1.293290 1.043590
v 0.434184 -1.293290 0.774027
v 0.665301 -0.839718 0.774027
v 0.729719 -1.246481 0.774027
v 0.589560 -1.317877 0.774027
v 0.298358 -1.026702 0.774027
v 0.298358 -1.026702 1.043590
v 0.369767 -0.886527 0.774027
v 0.509926 -0.815131 0.774027
v 0.369767 -0.886527 1.043590
v 0.695986 -0.992008 0.585825
v 0.624263 -0.920290 0.585825
v 0.524087 -0.904412 0.585825
v 0.776526 -0.950934 1.043590
v 0.801127 -1.106306 1.043590
v 0.665301 -0.839718 1.043590
v 0.589560 -1.317877 1.043590
v 0.729719 -1.246481 1.043590
v 0.509926 -0.815131 1.043590
v 0.403531 -1.141036 0.585287
v 0.341337 -1.031505 0.978574
v 0.387648 -1.040860 0.585287
v 0.362366 -1.164225 0.978574
v 0.665813 -1.182576 0.585287
v 0.590156 -1.280315 0.978574
v 0.575428 -1.228632 0.585287
v 0.709928 -1.219278 0.978574
v 0.524098 -0.904412 0.585287
v 0.624273 -0.920290 0.585287
v 0.654883 -0.871725 0.978574
v 0.522112 -0.850722 0.978574
v -0.559717 1.181221 0.223578
v -0.251165 1.299676 0.223578
v 0.068079 1.214123 0.223578
v 0.233295 0.558765 0.223578
v 0.276056 0.957284 0.223578
v -0.739731 0.904060 0.223578
v -0.451204 1.124903 0.399977
v -0.451204 1.124903 0.215826
v 0.248384 0.616304 0.215826
v 0.146244 0.301969 0.214309
v -0.121135 0.107705 0.214309
v -0.451641 0.107705 0.214309
v -0.719034 0.301969 0.214309
v -0.718160 0.930639 0.399977
v -0.718160 0.930639 0.214309
v -0.820737 0.616304 0.399977
v -0.718160 0.301969 0.214309
v -0.718597 0.301969 0.399977
v -0.820300 0.616304 0.214309
v -0.121135 1.124903 0.399977
v 0.146244 0.930639 0.399977
v 0.248383 0.616304 0.399977
v 0.146244 0.301969 0.399977
v -0.121135 0.107705 0.399977
v -0.451641 0.107705 0.399977
v -0.286388 0.616304 0.399977
v -0.719034 0.930639 0.399977
v -1.027907 1.365775 -1.171364
v -1.027907 1.365775 0.220941
v 1.700308 1.365775 0.220941
v -1.027907 -1.365777 0.220941
v 1.701645 -1.365777 0.220941
v 1.698970 1.365775 -1.171364
v -0.121135 1.124903 0.217343
v 0.146244 0.930639 0.217343
v 0.146244 0.301969 0.214309
v -0.820737 0.616304 0.399977
v -0.718597 0.301969 0.399977
v -0.820300 0.616304 0.214309
v 0.146244 0.301969 0.399977
v -0.121135 0.107705 0.399977
v -0.451641 0.107705 0.399977
v -0.451204 1.124903 0.399977
v -0.820737 0.616304 0.399977
v -0.121135 1.124903 0.399977
v 0.146244 0.930639 0.399977
v 0.248383 0.616304 0.399977
v 0.146244 0.301969 0.399977
v 0.753948 1.181221 0.223578
v 1.062500 1.299676 0.223578
v 1.381745 1.214123 0.223578
v 1.546961 0.558765 0.223578
v 1.589721 0.957284 0.223578
v 0.573934 0.904060 0.223578
v 0.862461 1.124903 0.399977
v 0.862461 1.124903 0.215826
v 1.562049 0.616304 0.215826
v 1.459909 0.301969 0.214309
v 1.192531 0.107705 0.214309
v 0.862024 0.107705 0.214309
v 0.594631 0.301969 0.214309
v 0.595505 0.930639 0.399977
v 0.595505 0.930639 0.214309
v 0.492928 0.616304 0.399977
v 0.595505 0.301969 0.214309
v 0.595068 0.301969 0.399977
v 0.493365 0.616304 0.214309
v 1.192530 1.124903 0.399977
v 1.459909 0.930639 0.399977
v 1.562049 0.616304 0.399977
v 1.459909 0.301969 0.399977
v 1.192531 0.107705 0.399977
v 0.862024 0.107705 0.399977
v 1.027277 0.616304 0.399977
v 0.594631 0.930639 0.399977
v 1.192530 1.124903 0.217343
v 1.459909 0.930639 0.217343
v 1.459909 0.301969 0.214309
v 0.492928 0.616304 0.399977
v 0.595068 0.301969 0.399977
v 0.493365 0.616304 0.214309
v 1.459909 0.301969 0.399977
v 1.192531 0.107705 0.399977
v 0.862024 0.107705 0.399977
v 0.862461 1.124903 0.399977
v 0.492928 0.616304 0.399977
v 1.192530 1.124903 0.399977
v 1.459909 0.930639 0.399977
v 1.562049 0.616304 0.399977
v 1.459909 0.301969 0.399977
v -1.027907 -0.214366 -0.546738
v -1.027907 -0.214366 0.057092
v -1.701645 -0.214366 0.057092
v -1.378047 -0.214366 -0.546738
v -1.027907 1.365775 0.220941
v 0.248384 0.616304 0.215826
v -0.718160 0.930639 0.399977
v -0.718160 0.930639 0.214309
v 0.248383 0.616304 0.399977
v -1.027907 1.365775 -1.171364
v 1.700308 1.365775 0.220941
v 1.562049 0.616304 0.215826
v 0.595505 0.930639 0.399977
v 0.595505 0.930639 0.214309
v 1.562049 0.616304 0.399977
vt 0.438645 1.206217
vt 0.008070 1.206217
vt 0.438645 0.441597
vt 0.008070 1.206217
vt 0.438645 0.441597
vt 0.008070 0.441597
vt 0.438645 -0.270048
vt 0.008070 -0.270048
vt 0.438645 -0.270048
vt 0.008070 0.441597
vt 0.008070 -0.656892
vt 0.438645 -0.656892
vt 0.008070 -0.270048
vt 0.438645 -0.656892
vt 0.438645 1.206217
vt 0.008070 1.731758
vt 0.326004 0.230631
vt 0.204738 0.381576
vt 0.196177 0.574317
vt 0.303590 0.735234
vt 0.485950 0.802862
vt 0.673600 0.751369
vt 0.794865 0.600424
vt 0.803427 0.407683
vt 0.513655 0.179138
vt 0.696014 0.246766
vt 0.499802 0.469629
vt 0.040145 0.996488
vt 0.040145 0.000418
vt 0.170922 0.996488
vt 0.438645 1.731758
vt 0.008070 1.731758
vt 0.958779 0.000418
vt 0.958779 0.996488
vt 0.914112 0.000418
vt 0.914112 0.996488
vt 0.828003 0.996488
vt 0.571735 0.000418
vt 0.571735 0.996488
vt 0.828003 0.000418
vt 0.711064 0.000418
vt 0.711064 0.996488
vt 0.427190 0.000418
vt 0.427190 0.996488
vt 0.170922 0.000418
vt 1.000000 1.000000
vt 0.000000 0.000000
vt -0.001734 1.000000
vt -0.000282 0.997087
vt 1.000671 0.894706
vt 2.374328 0.995241
vt 0.170039 0.895351
vt 0.000000 1.000000
vt 0.000000 0.000000
vt 1.000000 1.000000
vt 1.000000 0.000000
vt 2.374328 0.000245
vt -0.000282 0.002091
vt 1.000000 0.000000
vt 1.000671 0.432206
vt 1.000000 1.000000
vt 1.000000 0.000000
vt 0.000000 1.000000
vt 0.000000 1.000000
vt 1.000000 1.000000
vt 1.000000 0.000000
vt 0.000000 0.000000
vt 0.949484 0.049697
vt 1.000000 -3.000000
vt 0.042733 0.049697
vt 0.000000 -3.000000
vt 0.170039 0.432852
vt 0.042733 0.964464
vt 0.949484 0.965662
vt 1.000000 4.000000
vt 0.000000 4.000000
vt 0.000000 0.000000
vt 1.000671 0.432206
vt 0.636659 0.432489
vt 0.636659 0.432489
vt 0.947977 0.023647
vt 0.438645 -0.618257
vt 0.008070 -0.243773
vt 0.438645 -0.243773
vt 0.008070 -0.618257
vt 0.438645 0.441597
vt 0.008070 0.441597
vt 0.947977 0.988177
vt 0.377059 0.988177
vt 0.438645 -0.270048
vt 0.008070 -0.270048
vt 0.008070 0.842392
vt 0.438645 0.198670
vt 0.008070 0.198670
vt 0.438645 0.842392
vt 0.008070 1.206217
vt 0.438645 1.206217
vt 1.000051 0.999217
vt 0.000000 0.000000
vt 1.000051 -0.000017
vt 0.000051 0.999983
vt 0.000053 0.999950
vt 0.000053 0.000458
vt 1.436728 -0.000050
vt 1.436728 0.999442
vt 0.359915 1.031255
vt 0.359915 0.183216
vt 0.002339 0.183216
vt 0.002339 1.031255
vt 0.359915 1.592971
vt 0.002339 1.592228
vt 0.359915 -0.627271
vt 0.002339 -0.627271
vn -1.000000 0.000000 0.000000
vn -0.948683 -0.316228 -0.000000
vn -0.904534 -0.301511 0.301512
vn -0.948683 0.000000 0.316227
vn -0.713302 -0.555780 0.426977
vn -0.534033 -0.795569 -0.286143
vn -0.858023 -0.000066 0.513611
vn -0.881440 -0.000071 -0.472296
vn -0.939679 -0.301569 -0.161431
vn -0.781591 -0.577347 0.236188
vn -0.939673 0.301584 -0.161439
vn -0.781591 0.577347 0.236189
vn -0.654792 0.301542 -0.693051
vn -0.654787 -0.301532 -0.693060
vn -0.236184 -0.577352 -0.781589
vn -0.236186 0.577353 -0.781588
vn -1.000000 0.000000 0.000000
vn -1.000000 0.000000 -0.000000
vn -1.000000 0.000000 0.000000
vn -1.000000 0.000000 0.000000
vn -1.000000 0.000000 0.000000
vn -1.000000 0.000000 0.000000
vn -1.000000 0.000000 0.000000
vn -1.000000 0.000000 0.000000
vn -1.000000 0.000000 0.000000
vn 0.000000 0.000000 1.000000
vn 0.000000 0.000000 1.000000
vn -0.707102 0.707112 0.000000
vn -0.541120 0.541128 0.643716
vn -0.755864 0.119654 0.643702
vn -0.987701 0.156354 0.000000
vn -0.681812 -0.347485 0.643729
vn -0.890962 -0.454078 0.000000
vn -0.347445 -0.681831 0.643730
vn -0.454026 -0.890988 0.000000
vn 0.453971 -0.891017 0.000000
vn 0.119664 -0.755857 0.643709
vn 0.156368 -0.987699 0.000000
vn 0.240607 -0.472243 0.847995
vn -0.156374 0.987698 0.000000
vn 0.156543 0.987671 0.000000
vn -0.000001 0.000030 1.000000
vn -0.779942 -0.397404 0.483488
vn -0.891007 -0.453989 0.000000
vn -0.397333 -0.779977 0.483490
vn -0.453911 -0.891047 0.000000
vn 0.156298 0.987710 0.000000
vn 0.453894 -0.891056 0.000000
vn 0.156449 -0.987686 0.000000
vn -0.987692 0.156414 0.000000
vn -0.864580 0.136915 0.483484
vn -0.707098 0.707115 0.000000
vn -0.156449 0.987686 0.000000
vn -0.618969 0.618982 0.483465
vn 0.000000 0.000000 1.000000
vn 0.082964 0.523443 0.848012
vn -0.119669 0.755857 0.643708
vn 0.399751 0.203683 0.893707
vn 0.443136 -0.070179 0.893703
vn 0.217314 0.730069 0.647899
vn 0.136947 -0.864567 0.483497
vn 0.432294 -0.627163 0.647911
vn -0.136949 0.864578 0.483477
vn -0.981459 -0.155613 -0.111904
vn -0.981478 -0.155518 -0.111875
vn -0.981463 -0.155594 -0.111898
vn -0.981475 -0.155533 -0.111879
vn 0.449984 -0.883094 -0.132885
vn 0.450025 -0.883072 -0.132899
vn 0.449993 -0.883090 -0.132888
vn 0.450018 -0.883075 -0.132897
vn 0.155157 0.978916 -0.132855
vn 0.155097 0.978923 -0.132872
vn 0.154860 0.978951 -0.132938
vn 0.154908 0.978945 -0.132925
vn 0.000000 0.000000 1.000000
vn 0.000000 0.000000 1.000000
vn 0.000000 0.000000 1.000000
vn 0.000000 0.000000 1.000000
vn 0.000000 0.000000 1.000000
vn 0.000000 0.000000 1.000000
vn -0.309377 0.950939 0.000000
vn -0.310282 0.950644 0.000000
vn 0.951051 -0.309033 0.000000
vn 0.951051 -0.309033 0.000000
vn 0.309019 -0.951056 0.000000
vn -0.309008 -0.951060 0.000000
vn -0.588193 -0.808720 0.000933
vn -0.950662 0.310228 0.000000
vn -0.950789 0.309839 -0.000729
vn -0.950923 0.309423 -0.001508
vn -0.951049 -0.309033 -0.002238
vn 0.000000 0.000000 1.000000
vn -0.951049 0.309033 -0.002238
vn -0.951056 0.309020 0.000000
vn -0.809014 -0.587790 -0.000000
vn 0.951051 -0.309033 0.000000
vn 0.951051 -0.309033 0.000000
vn 0.000000 0.000000 1.000000
vn 0.000000 0.000000 1.000000
vn 0.000000 0.000000 1.000000
vn 0.000000 0.000000 1.000000
vn -1.000000 0.000000 0.000000
vn 0.000000 0.000000 1.000000
vn 0.000000 0.000000 1.000000
vn 0.000000 0.000000 1.000000
vn 0.000000 0.000000 1.000000
vn 0.000000 1.000000 -0.000000
vn -0.949657 0.313292 0.000000
vn -0.809292 -0.587407 0.000000
vn 0.587790 -0.809014 0.000000
vn -0.951049 -0.309033 -0.002238
vn -0.809163 -0.587584 -0.000448
vn -0.951049 -0.309033 -0.002238
vn 0.587790 -0.809014 0.000000
vn 0.309020 -0.951056 0.000000
vn -0.309128 -0.951020 0.000237
vn 0.000000 0.000000 1.000000
vn 0.000000 0.000000 1.000000
vn 0.000000 0.000000 1.000000
vn 0.000000 0.000000 1.000000
vn 0.000000 0.000000 1.000000
vn 0.000000 0.000000 1.000000
vn 0.000000 0.000000 1.000000
vn 0.000000 0.000000 1.000000
vn 0.000000 0.000000 1.000000
vn 0.000000 0.000000 1.000000
vn 0.000000 0.000000 1.000000
vn 0.000000 0.000000 1.000000
vn -0.309377 0.950939 0.000000
vn -0.310282 0.950644 0.000000
vn 0.951051 -0.309034 0.000000
vn 0.951051 -0.309034 0.000000
vn 0.309020 -0.951056 0.000000
vn -0.309008 -0.951060 0.000000
vn -0.588193 -0.808720 0.000933
vn -0.950662 0.310228 0.000000
vn -0.950789 0.309839 -0.000729
vn -0.950923 0.309423 -0.001508
vn -0.951049 -0.309033 -0.002237
vn 0.000000 0.000000 1.000000
vn -0.951049 0.309033 -0.002237
vn -0.951056 0.309019 0.000000
vn -0.809013 -0.587790 0.000000
vn 0.951051 -0.309034 0.000000
vn 0.951051 -0.309034 0.000000
vn 0.000000 0.000000 1.000000
vn 0.000000 0.000000 1.000000
vn 0.000000 0.000000 1.000000
vn 0.000000 0.000000 1.000000
vn -0.949657 0.313293 0.000000
vn -0.809292 -0.587407 0.000000
vn 0.587790 -0.809014 0.000000
vn -0.951049 -0.309033 -0.002238
vn -0.809163 -0.587584 -0.000448
vn -0.951049 -0.309033 -0.002237
vn 0.587790 -0.809014 0.000000
vn 0.309020 -0.951056 0.000000
vn -0.309128 -0.951020 0.000237
vn 0.000000 0.000000 1.000000
vn 0.000000 0.000000 1.000000
vn 0.000000 0.000000 1.000000
vn 0.000000 0.000000 1.000000
vn 0.000000 0.000000 1.000000
vn 0.000000 0.000000 1.000000
vn 0.000000 1.000000 0.000000
vn 0.000000 1.000000 0.000000
vn 0.000000 1.000000 0.000000
vn 0.000000 1.000000 0.000000
vn 0.000000 1.000000 -0.000000
vn -0.951051 -0.309033 -0.000000
vn -0.588398 0.808571 0.000000
vn -0.588398 0.808571 0.000000
vn -0.951051 -0.309033 -0.000000
vn 0.000000 1.000000 0.000000
vn 0.000000 1.000000 -0.000000
vn -0.951051 -0.309034 0.000000
vn -0.588398 0.808571 0.000000
vn -0.588398 0.808571 0.000000
vn -0.951051 -0.309034 0.000000
g fff002f9_00009_00042e1d_e1
f 167/98/167 166/100/166 169/99/169
f 169/99/169 168/101/168 167/98/167
g fff002f9_00009_00042e1d_e0
f 4/65/4 5/67/5 3/64/3
f 5/67/5 4/65/4 7/66/7
f 42/27/42 63/17/63 54/25/54
f 42/27/42 60/18/60 63/17/63
f 42/27/42 58/19/58 60/18/60
f 42/27/42 59/20/59 58/19/58
f 42/27/42 62/21/62 59/20/59
f 42/27/42 61/22/61 62/21/62
f 42/27/42 45/23/45 61/22/61
f 42/27/42 43/24/43 45/23/45
f 42/27/42 54/25/54 51/26/51
f 42/27/42 51/26/51 43/24/43
f 3/63/3 6/62/6 2/77/2
f 6/62/6 3/63/3 5/61/5
g fff002f9_00009_00042e1d_e2
f 7/55/7 13/73/13 5/53/5
f 7/55/7 14/74/14 13/73/13
f 54/44/54 63/30/63 53/45/53
f 53/45/53 52/43/52 54/44/54
f 51/42/51 54/44/54 52/43/52
f 52/43/52 50/41/50 51/42/51
f 49/40/49 48/38/48 62/39/62
f 62/39/62 61/37/61 49/40/49
f 8/56/8 6/54/6 9/68/9
f 9/68/9 14/74/14 7/55/7
f 11/70/11 6/54/6 13/73/13
f 13/73/13 6/54/6 5/53/5
f 9/68/9 6/54/6 11/70/11
f 8/56/8 9/68/9 7/55/7
f 50/41/50 44/35/44 43/36/43
f 43/36/43 51/42/51 50/41/50
f 44/35/44 46/33/46 45/34/45
f 45/34/45 43/36/43 44/35/44
f 46/33/46 49/40/49 61/37/61
f 61/37/61 45/34/45 46/33/46
f 63/30/63 60/28/60 47/29/47
f 47/29/47 53/45/53 63/30/63
g fff002f9_00009_00042e1d_e9
f 27/81/27 29/89/29 30/88/30
f 27/81/27 30/88/30 32/89/32
f 27/81/27 32/89/32 34/88/34
f 27/81/27 34/88/34 37/89/37
f 27/81/27 37/89/37 39/88/39
f 27/81/27 39/88/39 26/89/26
f 34/84/34 32/82/32 33/85/33
f 33/85/33 35/83/35 34/84/34
f 27/81/27 26/89/26 55/88/55
f 27/81/27 55/88/55 56/89/56
f 27/81/27 56/89/56 57/88/57
f 27/81/27 57/88/57 29/89/29
f 28/10/28 31/8/31 30/9/30
f 30/7/30 29/5/29 28/6/28
f 32/14/32 30/90/30 31/91/31
f 31/13/31 33/11/33 32/12/32
f 29/86/29 57/1/57 40/2/40
f 40/4/40 28/87/28 29/3/29
f 172/97/172 82/31/82 83/32/83
f 83/16/83 173/96/173 172/15/172
f 35/83/35 38/94/38 37/93/37
f 37/93/37 34/84/34 35/83/35
f 57/97/57 56/31/56 41/32/41
f 41/16/41 40/96/40 57/15/57
f 38/94/38 36/92/36 39/95/39
f 39/95/39 37/93/37 38/94/38
f 97/95/97 98/93/98 85/94/85
f 85/94/85 84/92/84 97/95/97
f 115/93/115 116/84/116 86/83/86
f 86/83/86 111/94/111 115/93/115
f 101/81/101 119/89/119 93/88/93
f 101/81/101 93/88/93 100/89/100
f 101/81/101 100/89/100 99/88/99
f 101/81/101 99/88/99 123/89/123
f 101/81/101 123/89/123 122/88/122
f 101/81/101 122/88/122 121/89/121
f 101/81/101 121/89/121 120/88/120
f 101/81/101 120/88/120 118/89/118
f 101/81/101 118/89/118 102/88/102
f 101/81/101 102/88/102 119/89/119
f 114/10/114 92/8/92 113/9/113
f 113/7/113 112/5/112 114/6/114
f 90/4/90 94/87/94 91/3/91
f 91/86/91 89/1/89 90/2/90
f 88/13/88 87/11/87 117/12/117
f 117/14/117 113/90/113 88/91/88
f 87/85/87 86/83/86 116/84/116
f 116/84/116 117/82/117 87/85/87
f 95/106/95 110/108/110 96/107/96
f 110/108/110 95/106/95 109/109/109
f 95/106/95 83/111/83 82/110/82
f 83/111/83 95/106/95 109/109/109
f 96/107/96 171/113/171 174/112/174
f 171/113/171 96/107/96 110/108/110
f 178/97/178 130/31/130 131/32/131
f 131/16/131 179/96/179 178/15/178
f 145/95/145 146/93/146 133/94/133
f 133/94/133 132/92/132 145/95/145
f 157/93/157 158/84/158 134/83/134
f 134/83/134 153/94/153 157/93/157
f 149/81/149 161/89/161 141/88/141
f 149/81/149 141/88/141 148/89/148
f 149/81/149 148/89/148 147/88/147
f 149/81/149 147/88/147 165/89/165
f 149/81/149 165/89/165 164/88/164
f 149/81/149 164/88/164 163/89/163
f 149/81/149 163/89/163 162/88/162
f 149/81/149 162/88/162 160/89/160
f 149/81/149 160/89/160 150/88/150
f 149/81/149 150/88/150 161/89/161
f 156/10/156 140/8/140 155/9/155
f 155/7/155 154/5/154 156/6/156
f 138/4/138 142/87/142 139/3/139
f 139/86/139 137/1/137 138/2/138
f 136/13/136 135/11/135 159/12/159
f 159/14/159 155/90/155 136/91/136
f 135/85/135 134/83/134 158/84/158
f 158/84/158 159/82/159 135/85/135
f 143/106/143 152/108/152 144/107/144
f 152/108/152 143/106/143 151/109/151
f 143/106/143 131/111/131 130/110/130
f 131/111/131 143/106/143 151/109/151
f 144/107/144 177/113/177 180/112/180
f 177/113/177 144/107/144 152/108/152
g fff002f9_00009_00042e1d_e3
f 10/69/10 12/71/12 15/75/15
f 15/75/15 12/71/12 16/76/16
g fff002f9_00009_00042e1d_e4
f 10/69/10 11/70/11 12/71/12
f 11/70/11 10/69/10 9/68/9
g fff002f9_00009_00042e1d_e5
f 9/68/9 15/75/15 14/74/14
f 15/75/15 9/68/9 10/69/10
f 13/73/13 12/71/12 11/70/11
f 12/71/12 13/73/13 16/76/16
g fff002f9_00009_00042e1d_e11
f 25/60/25 23/79/23 24/80/24
f 81/81/81 79/88/79 80/89/80
f 23/79/23 21/58/21 22/72/22
f 24/80/24 20/78/20 25/60/25
f 25/57/25 21/58/21 23/79/23
f 81/81/81 77/89/77 76/88/76
f 81/81/81 78/88/78 77/89/77
f 81/81/81 80/89/80 78/88/78
f 129/81/129 127/88/127 128/89/128
f 129/81/129 125/89/125 124/88/124
f 129/81/129 126/88/126 125/89/125
f 129/81/129 128/89/128 126/88/126
g fff002f9_00009_00042e1d_e6
f 14/74/14 16/76/16 13/73/13
f 16/76/16 14/74/14 15/75/15
f 66/13/66 64/11/64 67/12/67
f 67/14/67 65/90/65 66/91/66
f 70/94/70 68/92/68 71/95/71
f 71/95/71 69/93/69 70/94/70
f 75/97/75 74/31/74 73/32/73
f 73/16/73 72/96/72 75/15/75
g fff002f9_00009_00042e1d_e8
f 18/51/18 4/50/4 17/49/17
f 3/52/3 19/58/19 17/49/17
f 4/50/4 3/52/3 17/49/17
f 1/60/1 18/51/18 103/57/103
f 103/57/103 19/58/19 1/60/1
f 1/60/1 19/58/19 2/72/2
f 2/72/2 19/58/19 3/52/3
f 18/51/18 1/60/1 4/50/4
g fff002f9_00009_00042e1d_e7
f 107/48/107 105/46/105 106/47/106
f 104/59/104 106/47/106 105/46/105
g fff002f9_00009_00042e1d_e10
f 170/102/170 108/104/108 175/103/175
f 108/104/108 170/102/170 176/105/176
