# fff02a3e_00036_000ad5ca
o fff02a3e_00036_000ad5ca
v 104.729042 61.913624 -23.496410
v 104.729042 61.913624 -20.905602
v 103.869362 60.813686 -23.496410
v 103.869362 61.913624 -23.496410
v 103.869362 61.913624 -20.905602
v 103.869362 60.813686 -20.905602
v 88.928360 62.872658 -24.645554
v 88.928528 62.872658 -23.069958
v 88.928436 61.294468 -23.069958
v 88.928436 61.294468 -23.558933
v 90.209297 61.294468 -23.069958
v 90.209213 62.870922 -24.645554
v 90.209381 62.870922 -23.069958
v 107.949821 62.575672 -23.496410
v 107.949821 62.575672 -20.905602
v 107.090141 61.475735 -23.496410
v 107.090141 62.575672 -23.496410
v 107.090141 62.575672 -20.905602
v 107.090141 61.475735 -20.905602
v 103.648827 62.852676 -24.645554
v 103.648987 62.852676 -23.069958
v 103.648926 61.294468 -23.069958
v 103.648926 61.294464 -23.558933
v 104.929787 61.294468 -23.069958
v 104.929680 62.850937 -24.645554
v 104.929848 62.850937 -23.069958
v 85.732994 61.648438 -19.175327
v 103.273933 61.648434 -19.211948
v 103.273933 61.648434 -15.084805
v 112.118591 61.648434 -19.211948
v 112.118591 61.648434 -15.084805
v 101.470558 61.648434 -14.469971
v 85.732994 61.648438 -14.469971
v 101.470558 61.648434 -19.175327
v 106.869598 62.848305 -24.645554
v 106.869766 62.848305 -23.069958
v 106.869713 61.294468 -23.069958
v 106.869713 61.294464 -23.558933
v 108.150574 61.294468 -23.069958
v 108.150459 62.846565 -24.645554
v 108.150627 62.846565 -23.069958
v 103.266777 66.696388 -25.482243
v 103.297234 66.696434 -26.923923
v 94.026138 66.521446 -25.474876
v 94.031456 66.521500 -26.928562
v 113.854828 57.951019 -23.612144
v 84.733284 57.776077 -23.596706
v 123.212204 146.178894 -26.931911
v 93.978767 69.385849 -26.928570
v 103.266777 69.346237 -24.026234
v 93.973434 69.385773 -24.018864
v 103.246727 69.346313 -26.923931
v 84.567657 62.934605 -24.296177
v 64.489502 61.054970 -26.931911
v 121.978851 146.178894 -26.931911
v 42.225197 146.178894 -26.931911
v 84.584412 62.934681 -26.932140
v 113.696075 62.895065 -24.311615
v 113.712418 62.895142 -26.932140
v 82.374680 57.776131 -27.579601
v 115.957031 57.951019 -24.872021
v 82.357948 57.776077 -24.674473
v 82.192322 62.934605 -25.373936
v 82.209076 62.934681 -26.932140
v 115.814636 62.895142 -26.932140
v 115.798309 62.895065 -25.571491
v 123.212250 146.178116 -26.217350
v 123.212189 59.039005 -26.217350
v 64.489502 59.039013 -26.217350
v 64.489502 60.264294 -26.217350
v 121.978790 61.054966 -26.931911
v 121.978897 146.178116 -26.217350
v 121.978836 60.264286 -26.217350
v 83.943466 83.887054 -26.931911
v 81.726547 61.054970 -26.931911
v 81.726547 79.944321 -26.931911
v 118.685158 130.855804 -26.931911
v 120.731277 63.108021 -26.931911
v 81.726547 63.356266 -26.931911
v 64.489502 61.644726 -26.931911
v 121.300110 146.178894 -26.931911
v 121.275543 142.906937 -26.931911
v 114.558960 61.086483 -20.633583
v 82.277191 61.086487 -20.633583
v 82.277191 61.086487 -13.622334
v 114.558960 61.086483 -13.622334
v 115.111969 61.086483 -13.145134
v 81.752174 61.086487 -13.145134
v 114.558960 62.872665 -20.633583
v 115.111969 62.872665 -13.145134
v 81.752174 61.086487 -21.110783
v 115.111969 62.872665 -21.110783
v 81.752182 62.872665 -13.145134
v 82.277199 62.872665 -20.633583
v 81.752182 62.872665 -21.110783
v 82.277199 62.872665 -13.622334
v 114.558960 62.872665 -13.622334
v 112.905243 61.746307 -19.498196
v 83.916679 61.746307 -19.498196
v 84.372894 61.746307 -20.174179
v 112.424713 61.746307 -20.174179
v 81.777657 62.045811 -20.915630
v 114.625854 62.045803 -13.423111
v 81.777657 62.045807 -13.423111
v 114.625854 62.045807 -20.915630
v 97.005211 62.627121 -20.622715
v 94.390846 62.689972 -20.641960
v 94.582253 69.117599 -25.903160
v 97.196625 69.054749 -25.883923
v 102.324432 62.468727 -20.622715
v 99.710068 62.531578 -20.641960
v 99.901466 68.959198 -25.903160
v 102.515831 68.896347 -25.883923
v 93.792618 62.575672 -23.496410
v 93.792618 62.575672 -20.905602
v 92.932938 61.475739 -23.496410
v 92.932938 62.575672 -23.496410
v 92.932938 62.575672 -20.905602
v 92.932938 61.475739 -20.905602
v 93.993324 62.904617 -24.645554
v 92.712509 61.294468 -23.558933
v 92.712471 62.906357 -24.645554
v 110.576439 61.086483 -20.633583
v 110.375557 61.086483 -13.145134
v 110.209160 62.872665 -20.633583
v 110.220047 62.872665 -21.039688
v 94.769058 62.872665 -21.110783
v 110.008270 62.872665 -13.145134
v 110.019295 62.872665 -13.556301
v 93.993362 61.294468 -23.069958
v 93.993492 62.904617 -23.069958
v 92.712509 61.294468 -23.069958
v 92.712631 62.906357 -23.069958
v 94.294029 61.086483 -20.633583
v 94.931343 61.086483 -13.145134
v 94.809669 62.872665 -20.633583
v 94.794189 62.872665 -20.815498
v 95.430061 62.872665 -13.344090
v 95.446991 62.872665 -13.145134
v 94.890732 61.086483 -13.622334
v 95.406380 62.872665 -13.622334
v 90.008545 62.575672 -20.905602
v 89.148872 62.575672 -20.905602
v 89.148872 62.575672 -23.496410
v 90.008545 62.575672 -23.496410
v 89.148872 61.475739 -20.905602
v 89.148872 61.475739 -23.496410
v 106.513641 76.700592 -26.931911
v 105.957581 87.791077 -26.931911
v 120.783020 88.199852 -26.931911
v 117.728584 76.841995 -26.931911
v 70.813553 76.208260 -26.931911
v 93.946526 69.592896 -26.931911
v 103.173889 69.462349 -26.931911
v 105.306160 74.299568 -26.931911
v 96.924492 74.360870 -26.931911
v 116.011765 62.859604 -26.931911
v 118.142059 68.462578 -26.931911
v 81.726547 69.154694 -26.931911
v 121.962784 62.918198 -26.931911
v 109.270599 79.186737 -26.931911
v 108.526855 117.122360 -26.931911
v 106.486534 114.363960 -26.931911
v 95.159821 75.655884 -26.931911
v 97.457726 78.942596 -26.931911
v 97.551193 102.283897 -26.931911
v 94.891342 99.476814 -26.931911
v 119.902809 79.358055 -26.931911
v 110.581161 104.371872 -26.931911
v 112.643127 107.408630 -26.931911
v 118.961960 107.666336 -26.931911
v 110.318886 76.748573 -26.931911
vt 6.985629 4.854548
vt -2.556277 9.862453
vt -2.556277 9.862453
vt -2.556277 9.862453
vt -2.556277 9.862453
vt 1.000000 -1.895043
vt 2.000000 -1.895043
vt 2.000000 0.325204
vt 1.000000 0.325204
vt 2.923873 0.841668
vt 1.128719 0.841666
vt 1.128719 2.170865
vt 2.923873 2.170865
vt 6.985629 4.854552
vt -0.685248 9.844378
vt -2.701309 -4.196915
vt 6.985629 4.854552
vt -0.685248 -4.196915
vt -1.585502 4.854552
vt 0.952873 -1.895043
vt 2.047127 -1.895043
vt 2.047127 0.325204
vt 0.952873 0.325204
vt 2.923873 1.706232
vt 1.128719 1.706232
vt 1.128719 1.306298
vt 2.923873 1.306298
vt 6.985629 4.854548
vt -2.701309 9.844378
vt -0.685248 -4.196915
vt -1.585502 4.854548
vt 2.175927 1.306298
vt 2.175929 1.706232
vt 0.846730 1.706232
vt 0.846729 1.306298
vt -1.584316 0.492998
vt 6.477030 3.777924
vt -1.584316 3.777924
vt 6.477030 0.523938
vt 6.985629 4.854548
vt 0.457604 9.100964
vt 6.985629 4.854548
vt 0.457604 9.100964
vt 0.952873 2.596442
vt 2.047127 2.596442
vt 2.047127 -1.895043
vt 0.952873 -1.895043
vt 6.985629 4.854550
vt -2.556277 9.862453
vt 6.985629 4.854550
vt 4.061402 6.756731
vt -0.685248 1.281950
vt -1.739903 3.602042
vt -2.236105 -0.423159
vt 4.061402 6.756731
vt -2.640842 1.664748
vt -2.556277 9.862453
vt -1.585502 4.854550
vt -2.701309 7.696208
vt -2.576346 7.916974
vt 2.874013 2.869271
vt 2.889079 0.203688
vt 0.125091 0.109370
vt 0.109371 2.890588
vt 2.874013 2.700683
vt 0.109371 2.704785
vt 1.000000 1.000000
vt 1.000000 1.534884
vt 2.000000 1.000000
vt 2.000000 2.000000
vt 1.000000 2.000000
vt 2.000000 1.534884
vt -2.556277 9.862453
vt -2.701309 1.567296
vt 0.203716 0.111956
vt 0.109399 0.109374
vt 0.203688 2.886527
vt 0.109370 2.890629
vt 2.890629 0.109371
vt 2.890588 2.704785
vt 2.869271 2.700683
vt 2.869311 0.111953
vt 0.110961 0.109371
vt 2.875563 0.111953
vt 0.109399 0.109374
vt 0.203688 2.886527
vt 0.109370 2.890629
vt 2.890588 2.704785
vt 2.890629 0.109371
vt 2.869311 0.111953
vt 2.869271 2.700683
vt 2.107807 6.596050
vt 2.107190 6.745922
vt -3.151868 6.642407
vt -3.063646 -7.633882
vt -3.151868 6.642407
vt 2.056088 7.128802
vt 0.275783 2.765524
vt 0.458227 6.563580
vt -3.225571 6.491070
vt -3.063837 -7.652496
vt 0.477625 3.424739
vt -2.902534 -5.102776
vt 4.231936 -7.508892
vt -3.307046 -7.638674
vt -3.397640 7.021455
vt -3.307236 -7.657288
vt -3.037506 6.153576
vt 0.460591 6.181174
vt 2.082275 6.497538
vt -3.001747 -7.651274
vt -3.029394 -7.108051
vt -1.761116 3.919749
vt -1.719014 2.077450
vt -3.060768 1.983105
vt -2.775983 3.876273
vt 0.915219 4.748721
vt 2.059394 3.382298
vt 0.923802 3.359946
vt -0.631038 5.123222
vt -1.458633 5.128627
vt -1.650081 4.320961
vt -0.895906 4.325618
vt -2.614527 6.203186
vt -2.807190 5.268234
vt 0.466545 5.217651
vt -3.221105 6.181507
vt -2.012414 3.501631
vt -1.973209 -2.802122
vt -1.786551 -2.340029
vt -0.736624 4.113534
vt -0.943865 3.563236
vt -0.969109 -0.316353
vt -0.726237 0.154937
vt -2.974576 3.454219
vt -2.149647 -0.686589
vt -2.338470 -1.194987
vt -2.910408 -1.249071
vt -2.105462 3.904997
vn 0.000000 1.000000 0.000000
vn 0.000000 1.000000 0.000000
vn -1.000000 0.000000 0.000000
vn -0.707107 0.707107 0.000000
vn -0.707107 0.707107 0.000000
vn -1.000000 0.000000 0.000000
vn -0.523741 0.851878 0.000056
vn -0.576952 0.577791 0.577307
vn -0.707120 0.000041 0.707094
vn -1.000000 0.000044 0.000044
vn 0.000000 0.000000 1.000000
vn 0.001355 0.999999 -0.000000
vn 0.000958 0.706789 0.707424
vn 0.000000 1.000000 0.000000
vn 0.000000 1.000000 0.000000
vn -1.000000 0.000000 0.000000
vn -0.707107 0.707107 0.000000
vn -0.707107 0.707107 0.000000
vn -1.000000 0.000000 0.000000
vn -0.521389 0.853319 0.000053
vn -0.576958 0.577787 0.577305
vn -0.707117 0.000028 0.707096
vn -1.000000 0.000026 0.000043
vn 0.000000 0.000000 1.000000
vn 0.001358 0.999999 -0.000000
vn 0.000960 0.706785 0.707427
vn 0.000000 1.000000 0.000000
vn 0.000000 1.000000 0.000000
vn 0.000000 1.000000 0.000000
vn 0.000000 1.000000 0.000000
vn 0.000000 1.000000 0.000000
vn 0.000000 1.000000 0.000000
vn 0.000000 1.000000 0.000000
vn 0.000000 1.000000 0.000000
vn -0.520869 0.853636 0.000055
vn -0.576959 0.577786 0.577306
vn -0.707116 0.000024 0.707097
vn -1.000000 0.000020 0.000045
vn 0.000000 0.000000 1.000000
vn 0.001358 0.999999 -0.000000
vn 0.000960 0.706784 0.707428
vn 0.784937 -0.294772 0.544961
vn 0.999970 0.004598 0.006306
vn -0.788102 -0.291015 0.542407
vn -0.999824 -0.018391 -0.003658
vn 0.262660 0.143088 0.954220
vn -0.202661 0.125184 0.971214
vn 0.000000 0.999999 0.001089
vn -0.711550 0.702633 -0.001676
vn 0.555675 0.422914 0.715799
vn -0.557922 0.431658 0.708798
vn 0.700161 0.713969 -0.004821
vn -0.154620 0.707882 0.689200
vn 0.000000 0.359226 0.933251
vn -0.576871 0.577248 0.577932
vn 0.000000 0.000000 1.000000
vn 0.000681 1.000000 0.000033
vn 0.190825 0.704054 0.684028
vn 0.000682 1.000000 0.000038
vn -0.999491 -0.031364 -0.005757
vn 0.509244 0.136567 0.849718
vn -0.816662 0.052384 0.574734
vn -0.682734 0.616964 0.391447
vn -0.743187 0.669049 -0.006790
vn 0.000000 1.000000 0.000056
vn 0.279707 0.838998 0.466741
vn 0.000000 0.706707 0.707506
vn 0.000000 0.000000 1.000000
vn 0.000000 0.000000 1.000000
vn 0.000000 0.359225 0.933251
vn -0.634459 0.277654 0.721367
vn -0.577388 0.577012 0.577651
vn -0.122144 0.175048 0.976954
vn 0.000000 0.000000 1.000000
vn 0.000000 0.359224 0.933251
vn 0.000000 0.000000 1.000000
vn 0.000000 0.000000 1.000000
vn 0.000000 0.000000 1.000000
vn 0.000000 0.000000 1.000000
vn 0.000000 0.000000 1.000000
vn 0.000000 0.000000 1.000000
vn 0.000000 0.000000 1.000000
vn -0.707107 0.000000 0.707107
vn 0.000000 0.000000 1.000000
vn 0.000000 0.000000 -1.000000
vn -1.000000 0.000000 0.000000
vn 0.000000 0.000000 1.000000
vn -0.707108 0.000003 0.707106
vn -0.301511 0.904534 0.301511
vn 0.000000 0.707107 0.707107
vn -1.000000 0.000004 0.000000
vn 0.000000 1.000000 0.000000
vn -0.577349 0.577350 0.577351
vn 0.000000 0.948683 0.316228
vn -0.707105 0.707109 0.000000
vn 0.000000 0.956904 -0.290404
vn -0.317108 0.948389 0.000000
vn 0.000000 1.000000 0.000000
vn 0.000000 1.000000 0.000000
vn 0.000000 1.000000 0.000000
vn 0.000000 1.000000 0.000000
vn 0.000000 1.000000 0.000001
vn 0.000000 1.000000 0.000001
vn 0.000000 1.000000 0.000001
vn 0.000000 1.000000 0.000001
vn 0.009525 0.633201 0.773929
vn 0.009526 0.633201 0.773929
vn 0.009528 0.633200 0.773929
vn 0.009527 0.633200 0.773929
vn 0.009525 0.633201 0.773929
vn 0.009526 0.633201 0.773929
vn 0.009528 0.633201 0.773929
vn 0.009527 0.633201 0.773929
vn 0.000000 1.000000 0.000000
vn 0.000000 1.000000 0.000000
vn -1.000000 0.000000 0.000000
vn -0.707107 0.707107 0.000000
vn -0.707107 0.707107 0.000000
vn -1.000000 0.000000 0.000000
vn 0.001358 0.999999 -0.000000
vn -1.000000 0.000063 0.000042
vn -0.527586 0.849501 0.000054
vn 0.000000 0.000000 1.000000
vn 0.000000 0.000000 1.000000
vn 0.000000 0.707107 0.707107
vn 0.000000 1.000000 0.000000
vn 0.000000 1.000000 0.000000
vn 0.000000 0.707107 0.707107
vn 0.000000 1.000000 0.000000
vn 0.000000 0.000000 1.000000
vn 0.000960 0.706795 0.707418
vn -0.707124 0.000054 0.707090
vn -0.576946 0.577797 0.577307
vn 0.000000 0.000000 1.000000
vn 0.000000 0.000000 1.000000
vn 0.000000 0.707107 0.707107
vn 0.000000 1.000000 0.000000
vn 0.000000 1.000000 0.000000
vn 0.000000 0.707107 0.707107
vn 0.000000 0.000000 -1.000000
vn 0.000000 1.000000 0.000000
vn 0.000000 1.000000 0.000000
vn -0.707107 0.707107 0.000000
vn -0.707107 0.707107 0.000000
vn 0.000000 1.000000 0.000000
vn -1.000000 0.000000 0.000000
vn -1.000000 0.000000 0.000000
vn 0.000000 0.000000 1.000000
vn 0.000000 0.000000 1.000000
vn 0.000000 0.000000 1.000000
vn 0.000000 0.000000 1.000000
vn 0.000000 0.000000 1.000000
vn 0.000000 0.000000 1.000000
vn 0.000000 0.000000 1.000000
vn 0.000000 0.000000 1.000000
vn 0.000000 0.000000 1.000000
vn 0.000000 0.000000 1.000000
vn 0.000000 0.000000 1.000000
vn 0.000000 0.000000 1.000000
vn 0.000000 0.000000 1.000000
vn 0.000000 0.000000 1.000000
vn 0.000000 0.000000 1.000000
vn 0.000000 0.000000 1.000000
vn 0.000000 0.000000 1.000000
vn 0.000000 0.000000 1.000000
vn 0.000000 0.000000 1.000000
vn 0.000000 0.000000 1.000000
vn 0.000000 0.000000 1.000000
vn 0.000000 0.000000 1.000000
vn 0.000000 0.000000 1.000000
vn 0.000000 0.000000 1.000000
vn 0.000000 0.000000 1.000000
g fff02a3e_00036_000ad5ca_e5
f 131/13/131 133/12/133 132/11/132
f 132/11/132 130/10/130 131/13/131
f 41/13/41 36/12/36 37/11/37
f 37/11/37 39/10/39 41/13/41
f 22/11/22 24/10/24 26/13/26
f 26/13/26 21/12/21 22/11/22
f 13/13/13 8/12/8 9/11/9
f 9/11/9 11/10/11 13/13/13
g fff02a3e_00036_000ad5ca_e8
f 8/33/8 7/32/7 10/35/10
f 10/35/10 9/34/9 8/33/8
f 38/35/38 37/34/37 36/33/36
f 36/33/36 35/32/35 38/35/38
f 121/35/121 132/34/132 133/33/133
f 133/33/133 122/32/122 121/35/121
f 23/35/23 22/34/22 21/33/21
f 21/33/21 20/32/20 23/35/23
g fff02a3e_00036_000ad5ca_e11
f 77/103/77 171/138/171 150/115/150
f 74/98/74 76/102/76 159/126/159
f 74/98/74 153/120/153 164/131/164
f 148/113/148 158/125/158 172/139/172
f 82/112/82 160/127/160 55/101/55
f 48/107/48 55/101/55 72/95/72
f 69/97/69 68/106/68 73/96/73
f 73/96/73 70/93/70 69/97/69
f 72/95/72 67/105/67 48/107/48
f 68/106/68 67/105/67 72/95/72
f 148/113/148 156/123/156 155/122/155
f 166/133/166 149/114/149 163/130/163
f 47/78/47 53/80/53 63/88/63
f 63/88/63 62/87/62 47/78/47
f 61/86/61 66/91/66 58/81/58
f 58/81/58 46/77/46 61/86/61
f 53/64/53 47/63/47 46/62/46
f 46/62/46 58/61/58 53/64/53
f 45/76/45 44/78/44 49/79/49
f 52/82/52 50/81/50 43/75/43
f 49/79/49 44/78/44 51/80/51
f 43/75/43 50/81/50 42/77/42
f 60/85/60 62/87/62 64/89/64
f 162/129/162 169/136/169 170/137/170
f 64/89/64 62/87/62 63/88/63
f 162/129/162 170/137/170 77/103/77
f 42/62/42 50/61/50 51/64/51
f 51/64/51 44/63/44 42/62/42
f 160/127/160 71/100/71 55/101/55
f 72/95/72 73/96/73 68/106/68
f 148/113/148 155/122/155 158/125/158
f 166/133/166 165/132/165 149/114/149
f 172/139/172 158/125/158 151/116/151
f 74/98/74 164/131/164 167/134/167
f 150/115/150 78/108/78 160/127/160
f 170/137/170 171/138/171 77/103/77
f 151/116/151 78/108/78 168/135/168
f 148/113/148 172/139/172 161/128/161
f 158/125/158 78/108/78 151/116/151
f 159/126/159 153/120/153 74/98/74
f 155/122/155 154/121/154 158/125/158
f 78/108/78 158/125/158 157/124/157
f 77/103/77 150/115/150 82/112/82
f 162/129/162 161/128/161 169/136/169
f 164/131/164 153/120/153 156/123/156
f 164/131/164 156/123/156 148/113/148
f 165/132/165 164/131/164 148/113/148
f 149/114/149 165/132/165 148/113/148
f 168/135/168 78/108/78 150/115/150
f 171/138/171 168/135/168 150/115/150
f 169/136/169 161/128/161 172/139/172
f 82/112/82 150/115/150 160/127/160
g fff02a3e_00036_000ad5ca_e10
f 82/112/82 81/111/81 56/104/56
f 82/112/82 56/104/56 77/103/77
f 76/102/76 56/104/56 152/119/152
f 159/126/159 76/102/76 152/117/152
f 73/96/73 72/95/72 55/101/55
f 55/101/55 71/100/71 73/96/73
f 172/139/172 151/116/151 169/136/169
f 170/137/170 169/136/169 151/116/151
f 73/94/73 54/92/54 70/93/70
f 75/99/75 73/94/73 71/100/71
f 55/101/55 81/111/81 82/112/82
f 54/92/54 73/94/73 75/99/75
f 79/109/79 80/110/80 54/92/54
f 167/134/167 56/104/56 74/98/74
f 59/84/59 53/66/53 58/65/58
f 57/83/57 53/66/53 59/84/59
f 66/91/66 65/90/65 59/82/59
f 59/82/59 58/81/58 66/91/66
f 53/80/53 57/79/57 64/89/64
f 64/89/64 63/88/63 53/80/53
f 52/84/52 51/66/51 50/65/50
f 49/83/49 51/66/51 52/84/52
f 74/98/74 56/104/56 76/102/76
f 75/99/75 79/109/79 54/92/54
f 170/137/170 151/116/151 171/138/171
f 79/109/79 152/117/152 80/110/80
f 171/138/171 151/116/151 168/135/168
f 167/134/167 165/132/165 166/133/166
f 152/118/152 56/104/56 80/110/80
f 167/134/167 164/131/164 165/132/165
f 166/133/166 56/104/56 167/134/167
f 163/130/163 56/104/56 166/133/166
f 79/109/79 159/126/159 152/117/152
f 79/109/79 157/124/157 153/120/153
f 153/120/153 157/124/157 154/121/154
f 154/121/154 157/124/157 158/125/158
f 153/120/153 154/121/154 156/123/156
f 156/123/156 154/121/154 155/122/155
f 153/120/153 159/126/159 79/109/79
f 157/124/157 79/109/79 75/99/75
f 75/99/75 71/100/71 157/124/157
f 157/124/157 71/100/71 78/108/78
f 78/108/78 71/100/71 160/127/160
f 77/103/77 56/104/56 162/129/162
f 162/129/162 56/104/56 163/130/163
f 149/114/149 148/113/148 161/128/161
f 162/129/162 149/114/149 161/128/161
f 163/130/163 149/114/149 162/129/162
g fff02a3e_00036_000ad5ca_e9
f 34/72/34 33/71/33 32/70/32
f 31/72/31 30/69/30 29/68/29
f 29/68/29 30/69/30 28/67/28
f 27/68/27 33/71/33 34/72/34
g fff02a3e_00036_000ad5ca_e1
f 105/39/105 104/38/104 103/37/103
f 104/38/104 105/39/105 102/36/102
g fff02a3e_00036_000ad5ca_e7
f 40/27/40 35/26/35 36/25/36
f 36/25/36 41/24/41 40/27/40
f 25/27/25 20/26/20 21/25/21
f 21/25/21 26/24/26 25/27/25
f 12/27/12 7/26/7 8/25/8
f 8/25/8 13/24/13 12/27/12
f 120/27/120 122/26/122 133/25/133
f 133/25/133 131/24/131 120/27/120
g fff02a3e_00036_000ad5ca_e2
f 135/73/135 139/74/139 88/3/88
f 128/59/128 124/49/124 90/29/90
f 123/40/123 125/42/125 134/48/134
f 124/49/124 128/59/128 135/73/135
f 125/42/125 123/40/123 89/28/89
f 135/73/135 128/59/128 139/74/139
f 134/48/134 125/42/125 136/50/136
f 134/48/134 136/50/136 84/17/84
f 124/49/124 87/2/87 90/29/90
f 139/74/139 93/16/93 88/3/88
f 97/31/97 89/28/89 83/1/83
f 91/30/91 88/3/88 93/16/93
f 93/16/93 95/18/95 91/30/91
f 83/1/83 86/5/86 97/31/97
f 123/40/123 83/1/83 89/28/89
f 136/50/136 94/14/94 84/17/84
g fff02a3e_00036_000ad5ca_e0
f 19/9/19 18/8/18 17/7/17
f 17/7/17 16/6/16 19/9/19
f 1/21/1 4/20/4 5/23/5
f 5/23/5 2/22/2 1/21/1
f 18/23/18 15/22/15 14/21/14
f 14/21/14 17/20/17 18/23/18
f 109/47/109 108/46/108 107/45/107
f 107/45/107 106/44/106 109/47/109
f 144/7/144 147/6/147 146/9/146
f 146/9/146 143/8/143 144/7/144
f 6/9/6 5/8/5 4/7/4
f 4/7/4 3/6/3 6/9/6
f 143/23/143 142/22/142 145/21/145
f 145/21/145 144/20/144 143/23/143
f 119/9/119 118/8/118 117/7/117
f 117/7/117 116/6/116 119/9/119
f 111/45/111 110/44/110 113/47/113
f 113/47/113 112/46/112 111/45/111
f 118/23/118 115/22/115 114/21/114
f 114/21/114 117/20/117 118/23/118
g fff02a3e_00036_000ad5ca_e4
f 129/60/129 128/59/128 97/5/97
f 95/18/95 93/16/93 96/4/96
f 139/74/139 128/59/128 129/60/129
f 138/56/138 139/74/139 129/60/129
f 137/55/137 95/18/95 94/17/94
f 138/54/138 96/19/96 93/16/93
f 93/16/93 139/74/139 138/56/138
f 96/19/96 94/14/94 95/18/95
f 141/58/141 138/54/138 129/53/129
f 127/52/127 95/18/95 137/55/137
f 126/43/126 125/42/125 92/15/92
f 94/14/94 136/50/136 137/51/137
f 89/28/89 97/31/97 90/29/90
f 128/59/128 90/29/90 97/5/97
f 140/57/140 85/4/85 96/19/96
f 125/42/125 89/28/89 92/15/92
f 90/29/90 92/15/92 89/1/89
f 137/51/137 136/50/136 126/43/126
f 136/50/136 125/42/125 126/43/126
f 127/52/127 137/55/137 126/41/126
f 141/58/141 96/19/96 138/54/138
g fff02a3e_00036_000ad5ca_e6
f 101/5/101 100/4/100 99/3/99
f 99/3/99 98/2/98 101/5/101
