# fff0078e_00124_001bef9b
o fff0078e_00124_001bef9b
v -0.445171 1.894313 -0.703792
v -0.515595 2.094079 -0.703792
v -0.424126 2.285239 -0.703792
v -0.224337 2.355620 -0.703792
v -0.033222 2.264172 -0.703792
v 0.037203 2.064317 -0.703792
v -0.054267 1.873246 -0.703792
v -0.239218 2.079242 -0.633848
v -0.424126 2.285239 -1.041516
v -0.224337 2.355620 -1.041516
v -0.033222 2.264172 -1.041516
v 0.037203 2.064317 -1.041516
v -0.054267 1.873246 -1.041516
v -0.260220 1.688316 -0.872653
v -0.530476 1.817702 -0.872653
v -0.630079 2.100308 -0.872653
v -0.500736 2.370544 -0.872653
v -0.218130 2.470168 -0.872653
v 0.052062 2.340782 -0.872653
v 0.151708 2.058218 -0.872653
v 0.022322 1.787940 -0.872653
v -0.254077 1.802821 -0.703792
v -0.254077 1.802821 -1.041516
v -0.373589 1.840870 -1.043375
v -0.473192 2.123477 -1.043375
v -0.513002 -1.626590 -0.694792
v -0.590256 -1.407451 -0.694792
v -0.489916 -1.197755 -0.694792
v -0.270752 -1.120548 -0.694792
v -0.061104 -1.220864 -0.694792
v 0.016150 -1.440099 -0.694792
v -0.084190 -1.649700 -0.694792
v -0.287077 -1.423728 -0.618065
v -0.489916 -1.197755 -1.065267
v -0.270752 -1.120548 -1.065267
v -0.061104 -1.220864 -1.065267
v 0.016150 -1.440099 -1.065267
v -0.084190 -1.649700 -1.065267
v -0.310115 -1.852563 -0.880029
v -0.606580 -1.710630 -0.880029
v -0.715841 -1.400618 -0.880029
v -0.573955 -1.104177 -0.880029
v -0.263943 -0.994892 -0.880029
v 0.032451 -1.136825 -0.880029
v 0.141759 -1.446790 -0.880029
v -0.000174 -1.743278 -0.880029
v -0.303376 -1.726954 -0.694792
v -0.303376 -1.726954 -1.065267
v -0.434478 -1.685215 -1.067307
v -0.543739 -1.375203 -1.067307
v -0.770605 -4.024616 -0.653881
v -0.946224 -3.526454 -0.653881
v -0.718124 -3.049759 -0.653881
v -0.219908 -2.874248 -0.653881
v 0.256680 -3.102294 -0.653881
v 0.432298 -3.600672 -0.653881
v 0.204199 -4.077150 -0.653881
v -0.257017 -3.563455 -0.479460
v -0.718124 -3.049759 -1.496068
v -0.219908 -2.874248 -1.496068
v 0.256680 -3.102294 -1.496068
v 0.432298 -3.600672 -1.496068
v 0.204199 -4.077150 -1.496068
v -0.309389 -4.538312 -1.074974
v -0.983332 -4.215661 -1.074974
v -1.231712 -3.510921 -1.074974
v -0.909169 -2.837031 -1.074974
v -0.204428 -2.588597 -1.074974
v 0.469353 -2.911249 -1.074974
v 0.717841 -3.615882 -1.074974
v 0.395190 -4.289878 -1.074974
v -0.294071 -4.252769 -0.653881
v -0.294071 -4.252769 -1.496068
v -0.592100 -4.157886 -1.500705
v -0.840480 -3.453145 -1.500705
v -0.638645 -0.033675 -0.431742
v -0.781907 0.372705 -0.431742
v -0.595833 0.761573 -0.431742
v -0.189409 0.904748 -0.431742
v 0.199371 0.718718 -0.431742
v 0.342633 0.312161 -0.431742
v 0.156559 -0.076530 -0.431742
v -0.219681 0.342521 -0.289457
v -0.595833 0.761573 -1.118763
v -0.189409 0.904748 -1.118763
v 0.199371 0.718718 -1.118763
v 0.342633 0.312161 -1.118763
v 0.156559 -0.076530 -1.118763
v -0.262404 -0.452726 -0.775252
v -0.812179 -0.189521 -0.775252
v -1.014797 0.385377 -0.775252
v -0.751680 0.935108 -0.775252
v -0.176782 1.137770 -0.775252
v 0.372861 0.874564 -0.775252
v 0.575567 0.299754 -0.775252
v 0.312362 -0.250065 -0.775252
v -0.249908 -0.219793 -0.431742
v -0.249908 -0.219793 -1.118763
v -0.493028 -0.142391 -1.122546
v -0.695646 0.432508 -1.122546
v 0.049211 6.456786 -0.653881
v -0.427229 6.684813 -0.653881
v -0.603003 7.183166 -0.653881
v -0.374838 7.659606 -0.653881
v 0.123400 7.835387 -0.653881
v 0.600015 7.607116 -0.653881
v 0.775621 7.108947 -0.653881
v 0.086267 7.145995 -0.479462
v -0.603003 7.183166 -1.496067
v -0.374838 7.659606 -1.496067
v 0.123400 7.835387 -1.496067
v 0.600015 7.607116 -1.496067
v 0.775621 7.108947 -1.496067
v 0.738557 6.419677 -1.074974
v 0.033876 6.171264 -1.074974
v -0.640105 6.493957 -1.074974
v -0.888540 7.198546 -1.074974
v -0.565870 7.872558 -1.074974
v 0.138697 8.120849 -1.074974
v 0.812670 7.798278 -1.074974
v 1.061113 7.093504 -1.074974
v 0.547502 6.632384 -0.653881
v 0.547502 6.632384 -1.496067
v 0.269647 6.488769 -1.500706
v -0.404288 6.811461 -1.500706
v 1.242763 1.480737 -0.209730
v 1.109829 1.857818 -0.209730
v 1.282488 2.218652 -0.209730
v 1.659611 2.351504 -0.209730
v 2.020362 2.178886 -0.209730
v 2.153296 1.801640 -0.209730
v 1.980637 1.440971 -0.209730
v 1.631521 1.829811 -0.077703
v 1.282488 2.218652 -0.847221
v 1.659611 2.351504 -0.847221
v 2.020362 2.178886 -0.847221
v 2.153296 1.801640 -0.847221
v 1.980637 1.440971 -0.847221
v 1.591878 1.091896 -0.528475
v 1.081739 1.336126 -0.528475
v 0.893729 1.869577 -0.528475
v 1.137877 2.379675 -0.528475
v 1.671328 2.567726 -0.528475
v 2.181345 2.323496 -0.528475
v 2.369437 1.790126 -0.528475
v 2.125207 1.279947 -0.528475
v 1.603473 1.308037 -0.209730
v 1.603473 1.308037 -0.847221
v 1.377881 1.379858 -0.850731
v 1.189870 1.913310 -0.850731
vt 194039.546875 -313113.062500
vt 88120.843750 -225024.375000
vt 131438.484375 -432652.593750
vt 1474.185669 -4704.705566
vt 1533.416016 -4842.233398
vt 1970.193359 -5946.827148
vt 597.594360 -2298.969482
vt 655.782471 -2345.503174
vt 1207.180542 -3746.797852
vt -62355.343750 164786.781250
vt 457444.156250 -1201301.375000
vt 115192.750000 -301794.812500
vt 595225.437500 -1563225.000000
vt 219835.140625 -577684.625000
vt 139578.859375 -366377.562500
vt 1517923.375000 -5068736.000000
vt 479960.437500 -2208951.750000
vt 576007.812500 -3393787.750000
vt 6681228.500000 -27771384.000000
vt 2362497.500000 -9960679.000000
vt 1232768.625000 -5274452.000000
vt 427377.968750 -1620580.250000
vt 1189430.875000 -5705899.000000
vt 599571.187500 -3096474.500000
vt -284903.656250 839653.625000
vt 50586.250000 -149684.937500
vt -320107.750000 943096.750000
vt -533066.312500 1570847.750000
vt 99291.640625 -293181.625000
vt 183082.546875 -539257.375000
vt 310976.625000 -648132.875000
vt 148645.328125 -704489.250000
vt -390098.875000 -225636.281250
vt 85940.914062 -500336.250000
vt 166102.781250 -598802.187500
vt 601234.375000 -3353230.750000
vt -7429049.500000 -341709.156250
vt -1277005.750000 -57916.035156
vt 11787916.000000 543725.312500
vt -6320675.000000 -290832.406250
vt -7618197.500000 -350137.781250
vt -2481087.500000 -113467.187500
vt -36439.500000 5460.497070
vt -47231.789062 7077.689941
vt -98571.750000 14769.588867
vt -32350.757812 4846.918945
vt -40748.484375 6105.617676
vt -65462.054688 9809.945312
vt 75.365234 498.815430
vt -353.985352 -2867.687500
vt -467.056458 -3754.205811
vt -37.510498 -386.473633
vt -208.651306 -1727.720337
vt -219.688843 -1814.426147
vt -219.688843 -1814.426147
vt -467.056458 -3754.205811
vt -353.985352 -2867.687500
vt -208.651306 -1727.720337
vt -37.510498 -386.473633
vt 75.365234 498.815430
vt -65462.054688 9809.945312
vt -32350.757812 4846.918945
vt -36439.500000 5460.497070
vt -40748.484375 6105.617676
vt -47231.789062 7077.689941
vt -98571.750000 14769.588867
vt 1189430.875000 -5705899.000000
vt 6681228.500000 -27771384.000000
vt 427377.968750 -1620580.250000
vt 2362497.500000 -9960679.000000
vt 599571.187500 -3096474.500000
vt 1232768.625000 -5274452.000000
vt 655.782471 -2345.503174
vt 1474.185669 -4704.705566
vt 597.594360 -2298.969482
vt 1533.416016 -4842.233398
vt 1207.180542 -3746.797852
vt 1970.193359 -5946.827148
vt 183082.546875 -539257.375000
vt 99291.640625 -293181.625000
vt 50586.250000 -149684.937500
vt -320107.750000 943096.750000
vt -284903.656250 839653.625000
vt -533066.312500 1570847.750000
vt 457444.156250 -1201301.375000
vt 595225.437500 -1563225.000000
vt -62355.343750 164786.781250
vt 219835.140625 -577684.625000
vt 115192.750000 -301794.812500
vt 139578.859375 -366377.562500
vt 479960.437500 -2208951.750000
vt 1517923.375000 -5068736.000000
vt 576007.812500 -3393787.750000
vt -7429049.500000 -341709.156250
vt -1277005.750000 -57916.035156
vt 11787916.000000 543725.312500
vt -6320675.000000 -290832.406250
vt -7618197.500000 -350137.781250
vt -2481087.500000 -113467.187500
vt 166102.781250 -598802.187500
vt 601234.375000 -3353230.750000
vt 131438.484375 -432652.593750
vt 310976.625000 -648132.875000
vt 148645.328125 -704489.250000
vt -390098.875000 -225636.281250
vt 85940.914062 -500336.250000
vt 194039.546875 -313113.062500
vt 88120.843750 -225024.375000
vt 166102.781250 -598802.187500
vt 131438.484375 -432652.593750
vt 88120.843750 -225024.375000
vt 194039.546875 -313113.062500
vt 85940.914062 -500336.250000
vt -390098.875000 -225636.281250
vt 148645.328125 -704489.250000
vt 310976.625000 -648132.875000
vt 601234.375000 -3353230.750000
vt -7618197.500000 -350137.781250
vt -2481087.500000 -113467.187500
vt -6320675.000000 -290832.406250
vt -7429049.500000 -341709.156250
vt -1277005.750000 -57916.035156
vt 11787916.000000 543725.312500
vt 576007.812500 -3393787.750000
vt 599571.187500 -3096474.500000
vt 1189430.875000 -5705899.000000
vt 479960.437500 -2208951.750000
vt 427377.968750 -1620580.250000
vt 1517923.375000 -5068736.000000
vt 115192.750000 -301794.812500
vt 139578.859375 -366377.562500
vt 219835.140625 -577684.625000
vt 457444.156250 -1201301.375000
vt 595225.437500 -1563225.000000
vt -62355.343750 164786.781250
vt -284903.656250 839653.625000
vt -533066.312500 1570847.750000
vt -320107.750000 943096.750000
vt 183082.546875 -539257.375000
vt 99291.640625 -293181.625000
vt 50586.250000 -149684.937500
vt 1207.180542 -3746.797852
vt 1970.193359 -5946.827148
vt 1533.416016 -4842.233398
vt 655.782471 -2345.503174
vt 1474.185669 -4704.705566
vt 597.594360 -2298.969482
vt 1232768.625000 -5274452.000000
vt 2362497.500000 -9960679.000000
vt 6681228.500000 -27771384.000000
vt -36439.500000 5460.497070
vt -32350.757812 4846.918945
vt -47231.789062 7077.689941
vt -98571.750000 14769.588867
vt -40748.484375 6105.617676
vt -65462.054688 9809.945312
vt 75.365234 498.815430
vt -353.985352 -2867.687500
vt -467.056458 -3754.205811
vt -37.510498 -386.473633
vt -208.651306 -1727.720337
vt -219.688843 -1814.426147
vn -0.466601 -0.418906 0.778975
vn -0.626150 0.033603 0.778978
vn -0.418891 0.466628 0.778967
vn 0.033638 0.626051 0.779056
vn 0.466640 0.418878 0.778966
vn 0.626138 -0.033755 0.778981
vn 0.418919 -0.466613 0.778960
vn -0.000021 0.000011 1.000000
vn -0.556830 0.584170 -0.590496
vn 0.044530 0.826019 -0.561880
vn 0.615556 0.552761 -0.561735
vn 0.826085 -0.044609 -0.561777
vn 0.552728 -0.615600 -0.561719
vn -0.042795 -0.999021 0.011210
vn -0.767814 -0.639553 -0.037866
vn -0.998045 0.030500 -0.054555
vn -0.668092 0.744078 0.000021
vn 0.053840 0.998550 -0.000008
vn 0.744073 0.668099 -0.000005
vn 0.998559 -0.053664 0.000023
vn 0.668088 -0.744083 0.000013
vn -0.033731 -0.626132 0.778987
vn 0.023513 -0.827827 -0.560490
vn -0.502622 -0.619455 -0.603031
vn -0.736469 0.002372 -0.676467
vn -0.466601 -0.418905 0.778975
vn -0.626150 0.033603 0.778978
vn -0.418890 0.466628 0.778967
vn 0.033638 0.626051 0.779056
vn 0.466639 0.418878 0.778967
vn 0.626138 -0.033754 0.778982
vn 0.418919 -0.466613 0.778960
vn -0.000021 0.000011 1.000000
vn -0.556830 0.584170 -0.590496
vn 0.044529 0.826019 -0.561880
vn 0.615556 0.552760 -0.561735
vn 0.826085 -0.044608 -0.561777
vn 0.552728 -0.615600 -0.561719
vn -0.042795 -0.999021 0.011211
vn -0.767814 -0.639553 -0.037865
vn -0.998045 0.030501 -0.054555
vn -0.668092 0.744078 0.000021
vn 0.053840 0.998550 -0.000007
vn 0.744072 0.668099 -0.000005
vn 0.998559 -0.053663 0.000024
vn 0.668088 -0.744082 0.000013
vn -0.033731 -0.626131 0.778988
vn 0.023513 -0.827826 -0.560491
vn -0.502622 -0.619455 -0.603031
vn -0.736469 0.002371 -0.676467
vn -0.466601 -0.418906 0.778975
vn -0.626150 0.033604 0.778978
vn -0.418891 0.466628 0.778967
vn 0.033638 0.626051 0.779056
vn 0.466640 0.418878 0.778967
vn 0.626138 -0.033755 0.778981
vn 0.418919 -0.466614 0.778960
vn -0.000021 0.000011 1.000000
vn -0.556830 0.584170 -0.590496
vn 0.044529 0.826019 -0.561880
vn 0.615556 0.552760 -0.561736
vn 0.826085 -0.044609 -0.561777
vn 0.552728 -0.615600 -0.561719
vn -0.042795 -0.999021 0.011210
vn -0.767814 -0.639553 -0.037865
vn -0.998045 0.030501 -0.054555
vn -0.668092 0.744078 0.000021
vn 0.053840 0.998550 -0.000007
vn 0.744072 0.668099 -0.000005
vn 0.998559 -0.053663 0.000023
vn 0.668088 -0.744082 0.000013
vn -0.033731 -0.626132 0.778987
vn 0.023514 -0.827827 -0.560491
vn -0.502622 -0.619455 -0.603031
vn -0.736469 0.002371 -0.676467
vn -0.466601 -0.418906 0.778975
vn -0.626150 0.033604 0.778978
vn -0.418890 0.466628 0.778967
vn 0.033638 0.626051 0.779056
vn 0.466640 0.418878 0.778967
vn 0.626138 -0.033754 0.778982
vn 0.418919 -0.466613 0.778960
vn -0.000020 0.000011 1.000000
vn -0.556830 0.584170 -0.590496
vn 0.044529 0.826019 -0.561880
vn 0.615556 0.552760 -0.561736
vn 0.826085 -0.044609 -0.561777
vn 0.552728 -0.615600 -0.561719
vn -0.042795 -0.999021 0.011210
vn -0.767814 -0.639553 -0.037865
vn -0.998045 0.030501 -0.054555
vn -0.668093 0.744078 0.000021
vn 0.053840 0.998550 -0.000007
vn 0.744072 0.668099 -0.000005
vn 0.998559 -0.053663 0.000024
vn 0.668088 -0.744082 0.000013
vn -0.033731 -0.626132 0.778987
vn 0.023514 -0.827827 -0.560490
vn -0.502623 -0.619455 -0.603031
vn -0.736469 0.002371 -0.676467
vn -0.033700 -0.626144 0.778979
vn -0.466503 -0.419013 0.778976
vn -0.626134 0.033716 0.778986
vn -0.418917 0.466431 0.779070
vn 0.033777 0.626157 0.778965
vn 0.466629 0.418861 0.778982
vn 0.626147 -0.033673 0.778977
vn -0.000024 -0.000019 1.000000
vn -0.806785 0.019291 -0.590531
vn -0.552640 0.615528 -0.561884
vn 0.044384 0.826129 -0.561730
vn 0.615700 0.552558 -0.561777
vn 0.826131 -0.044431 -0.561724
vn 0.676145 -0.736683 0.011195
vn -0.090670 -0.995161 -0.037867
vn -0.727293 -0.684154 -0.054569
vn -0.998555 0.053746 0.000012
vn -0.668018 0.744145 -0.000021
vn 0.053724 0.998556 -0.000008
vn 0.744043 0.668132 0.000026
vn 0.998553 -0.053775 -0.000000
vn 0.418892 -0.466623 0.778969
vn 0.602005 -0.568768 -0.560440
vn 0.082586 -0.793441 -0.603019
vn -0.522404 -0.519092 -0.676489
vn -0.466601 -0.418905 0.778975
vn -0.626150 0.033603 0.778978
vn -0.418891 0.466628 0.778966
vn 0.033638 0.626051 0.779056
vn 0.466640 0.418878 0.778966
vn 0.626138 -0.033754 0.778982
vn 0.418919 -0.466613 0.778960
vn -0.000021 0.000011 1.000000
vn -0.556830 0.584170 -0.590496
vn 0.044530 0.826019 -0.561880
vn 0.615556 0.552760 -0.561735
vn 0.826085 -0.044609 -0.561778
vn 0.552728 -0.615600 -0.561719
vn -0.042795 -0.999021 0.011210
vn -0.767814 -0.639553 -0.037865
vn -0.998045 0.030501 -0.054555
vn -0.668092 0.744079 0.000021
vn 0.053840 0.998550 -0.000008
vn 0.744072 0.668099 -0.000005
vn 0.998559 -0.053663 0.000023
vn 0.668088 -0.744082 0.000013
vn -0.033731 -0.626132 0.778987
vn 0.023514 -0.827827 -0.560491
vn -0.502622 -0.619455 -0.603031
vn -0.736469 0.002371 -0.676467
g fff0078e_00124_001bef9b_e0
f 84/54/84 100/51/100 91/50/91
f 91/50/91 92/53/92 84/54/84
f 100/51/100 99/52/99 90/49/90
f 90/49/90 91/50/91 100/51/100
f 99/48/99 98/46/98 89/43/89
f 89/43/89 90/47/90 99/48/99
f 89/43/89 88/44/88 96/45/96
f 89/43/89 98/46/98 88/44/88
f 93/23/93 84/19/84 92/22/92
f 93/23/93 85/20/85 84/19/84
f 94/24/94 85/20/85 93/23/93
f 94/24/94 86/21/86 85/20/85
f 95/8/95 86/4/86 94/7/94
f 95/8/95 87/5/87 86/4/86
f 96/9/96 87/5/87 95/8/95
f 96/9/96 88/6/88 87/5/87
f 97/30/97 96/29/96 82/26/82
f 97/30/97 89/27/89 96/29/96
f 76/25/76 89/27/89 97/30/97
f 76/25/76 90/28/90 89/27/89
f 77/11/77 90/13/90 76/10/76
f 77/11/77 91/14/91 90/13/90
f 78/12/78 91/14/91 77/11/77
f 78/12/78 92/15/92 91/14/91
f 79/17/79 92/22/92 78/16/78
f 79/17/79 93/23/93 92/22/92
f 80/18/80 93/23/93 79/17/79
f 80/18/80 94/24/94 93/23/93
f 81/37/81 94/38/94 80/39/80
f 81/37/81 95/40/95 94/38/94
f 82/41/82 95/40/95 81/37/81
f 82/41/82 96/42/96 95/40/95
f 83/35/83 97/36/97 82/3/82
f 83/35/83 76/31/76 97/36/97
f 83/35/83 77/32/77 76/31/76
f 83/35/83 78/33/78 77/32/77
f 83/35/83 79/34/79 78/33/78
f 83/35/83 80/1/80 79/34/79
f 83/35/83 81/2/81 80/1/80
f 83/35/83 82/3/82 81/2/81
f 33/35/33 32/3/32 31/2/31
f 33/35/33 31/2/31 30/1/30
f 33/35/33 30/1/30 29/34/29
f 33/35/33 29/34/29 28/33/28
f 33/35/33 28/33/28 27/32/27
f 33/35/33 27/32/27 26/31/26
f 33/35/33 26/31/26 47/36/47
f 33/35/33 47/36/47 32/3/32
f 32/41/32 46/42/46 45/40/45
f 32/41/32 45/40/45 31/37/31
f 31/37/31 45/40/45 44/38/44
f 31/37/31 44/38/44 30/39/30
f 30/18/30 44/24/44 43/23/43
f 30/18/30 43/23/43 29/17/29
f 29/17/29 43/23/43 42/22/42
f 29/17/29 42/22/42 28/16/28
f 28/12/28 42/15/42 41/14/41
f 28/12/28 41/14/41 27/11/27
f 27/11/27 41/14/41 40/13/40
f 27/11/27 40/13/40 26/10/26
f 26/25/26 40/28/40 39/27/39
f 26/25/26 39/27/39 47/30/47
f 47/30/47 39/27/39 46/29/46
f 47/30/47 46/29/46 32/26/32
f 46/9/46 38/6/38 37/5/37
f 46/9/46 37/5/37 45/8/45
f 45/8/45 37/5/37 36/4/36
f 45/8/45 36/4/36 44/7/44
f 44/24/44 36/21/36 35/20/35
f 44/24/44 35/20/35 43/23/43
f 43/23/43 35/20/35 34/19/34
f 43/23/43 34/19/34 42/22/42
f 39/43/39 48/46/48 38/44/38
f 39/43/39 38/44/38 46/45/46
f 39/43/39 40/47/40 49/48/49
f 49/48/49 48/46/48 39/43/39
f 40/49/40 41/50/41 50/51/50
f 50/51/50 49/52/49 40/49/40
f 41/50/41 42/53/42 34/54/34
f 34/54/34 50/51/50 41/50/41
f 108/100/108 107/102/107 106/108/106
f 108/100/108 106/108/106 105/107/105
f 108/100/108 105/107/105 104/106/104
f 108/100/108 104/106/104 103/105/103
f 108/100/108 103/105/103 102/104/102
f 108/100/108 102/104/102 101/103/101
f 108/100/108 101/103/101 122/101/122
f 108/100/108 122/101/122 107/102/107
f 107/98/107 121/99/121 120/97/120
f 107/98/107 120/97/120 106/94/106
f 106/94/106 120/97/120 119/95/119
f 106/94/106 119/95/119 105/96/105
f 105/93/105 119/71/119 118/67/118
f 105/93/105 118/67/118 104/91/104
f 104/91/104 118/67/118 117/69/117
f 104/91/104 117/69/117 103/92/103
f 103/89/103 117/90/117 116/88/116
f 103/89/103 116/88/116 102/85/102
f 102/85/102 116/88/116 115/86/115
f 102/85/102 115/86/115 101/87/101
f 101/83/101 115/84/115 114/82/114
f 101/83/101 114/82/114 122/79/122
f 122/79/122 114/82/114 121/80/121
f 122/79/122 121/80/121 107/81/107
f 121/77/121 113/78/113 112/76/112
f 121/77/121 112/76/112 120/73/120
f 120/73/120 112/76/112 111/74/111
f 120/73/120 111/74/111 119/75/119
f 119/71/119 111/72/111 110/70/110
f 119/71/119 110/70/110 118/67/118
f 118/67/118 110/70/110 109/68/109
f 118/67/118 109/68/109 117/69/117
f 114/63/114 123/62/123 113/65/113
f 114/63/114 113/65/113 121/66/121
f 114/63/114 115/64/115 124/61/124
f 124/61/124 123/62/123 114/63/114
f 115/60/115 116/57/116 125/56/125
f 125/56/125 124/59/124 115/60/115
f 116/57/116 117/58/117 109/55/109
f 109/55/109 125/56/125 116/57/116
f 59/54/59 75/51/75 66/50/66
f 66/50/66 67/53/67 59/54/59
f 75/51/75 74/52/74 65/49/65
f 65/49/65 66/50/66 75/51/75
f 74/48/74 73/46/73 64/43/64
f 64/43/64 65/47/65 74/48/74
f 64/43/64 63/44/63 71/45/71
f 64/43/64 73/46/73 63/44/63
f 68/23/68 59/19/59 67/22/67
f 68/23/68 60/20/60 59/19/59
f 69/24/69 60/20/60 68/23/68
f 69/24/69 61/21/61 60/20/60
f 70/8/70 61/4/61 69/7/69
f 70/8/70 62/5/62 61/4/61
f 71/9/71 62/5/62 70/8/70
f 71/9/71 63/6/63 62/5/62
f 72/30/72 71/29/71 57/26/57
f 72/30/72 64/27/64 71/29/71
f 51/25/51 64/27/64 72/30/72
f 51/25/51 65/28/65 64/27/64
f 52/11/52 65/13/65 51/10/51
f 52/11/52 66/14/66 65/13/65
f 53/12/53 66/14/66 52/11/52
f 53/12/53 67/15/67 66/14/66
f 54/17/54 67/22/67 53/16/53
f 54/17/54 68/23/68 67/22/67
f 55/18/55 68/23/68 54/17/54
f 55/18/55 69/24/69 68/23/68
f 56/37/56 69/38/69 55/39/55
f 56/37/56 70/40/70 69/38/69
f 57/41/57 70/40/70 56/37/56
f 57/41/57 71/42/71 70/40/70
f 58/35/58 72/36/72 57/3/57
f 58/35/58 51/31/51 72/36/72
f 58/35/58 52/32/52 51/31/51
f 58/35/58 53/33/53 52/32/52
f 58/35/58 54/34/54 53/33/53
f 58/35/58 55/1/55 54/34/54
f 58/35/58 56/2/56 55/1/55
f 58/35/58 57/3/57 56/2/56
f 8/35/8 7/3/7 6/2/6
f 8/35/8 6/2/6 5/1/5
f 8/35/8 5/1/5 4/34/4
f 8/35/8 4/34/4 3/33/3
f 8/35/8 3/33/3 2/32/2
f 8/35/8 2/32/2 1/31/1
f 8/35/8 1/31/1 22/36/22
f 8/35/8 22/36/22 7/3/7
f 7/41/7 21/42/21 20/40/20
f 7/41/7 20/40/20 6/37/6
f 6/37/6 20/40/20 19/38/19
f 6/37/6 19/38/19 5/39/5
f 5/18/5 19/24/19 18/23/18
f 5/18/5 18/23/18 4/17/4
f 4/17/4 18/23/18 17/22/17
f 4/17/4 17/22/17 3/16/3
f 3/12/3 17/15/17 16/14/16
f 3/12/3 16/14/16 2/11/2
f 2/11/2 16/14/16 15/13/15
f 2/11/2 15/13/15 1/10/1
f 1/25/1 15/28/15 14/27/14
f 1/25/1 14/27/14 22/30/22
f 22/30/22 14/27/14 21/29/21
f 22/30/22 21/29/21 7/26/7
f 21/9/21 13/6/13 12/5/12
f 21/9/21 12/5/12 20/8/20
f 20/8/20 12/5/12 11/4/11
f 20/8/20 11/4/11 19/7/19
f 19/24/19 11/21/11 10/20/10
f 19/24/19 10/20/10 18/23/18
f 18/23/18 10/20/10 9/19/9
f 18/23/18 9/19/9 17/22/17
f 14/43/14 23/46/23 13/44/13
f 14/43/14 13/44/13 21/45/21
f 14/43/14 15/47/15 24/48/24
f 24/48/24 23/46/23 14/43/14
f 15/49/15 16/50/16 25/51/25
f 25/51/25 24/52/24 15/49/15
f 16/50/16 17/53/17 9/54/9
f 9/54/9 25/51/25 16/50/16
f 133/109/133 132/110/132 131/111/131
f 133/109/133 131/111/131 130/112/130
f 133/109/133 130/112/130 129/113/129
f 133/109/133 129/113/129 128/114/128
f 133/109/133 128/114/128 127/115/127
f 133/109/133 127/115/127 126/116/126
f 133/109/133 126/116/126 147/117/147
f 133/109/133 147/117/147 132/110/132
f 132/118/132 146/119/146 145/120/145
f 132/118/132 145/120/145 131/121/131
f 131/121/131 145/120/145 144/122/144
f 131/121/131 144/122/144 130/123/130
f 130/124/130 144/125/144 143/126/143
f 130/124/130 143/126/143 129/127/129
f 129/127/129 143/126/143 142/128/142
f 129/127/129 142/128/142 128/129/128
f 128/130/128 142/131/142 141/132/141
f 128/130/128 141/132/141 127/133/127
f 127/133/127 141/132/141 140/134/140
f 127/133/127 140/134/140 126/135/126
f 126/136/126 140/137/140 139/138/139
f 126/136/126 139/138/139 147/139/147
f 147/139/147 139/138/139 146/140/146
f 147/139/147 146/140/146 132/141/132
f 146/142/146 138/143/138 137/144/137
f 146/142/146 137/144/137 145/145/145
f 145/145/145 137/144/137 136/146/136
f 145/145/145 136/146/136 144/147/144
f 144/125/144 136/148/136 135/149/135
f 144/125/144 135/149/135 143/126/143
f 143/126/143 135/149/135 134/150/134
f 143/126/143 134/150/134 142/128/142
f 139/151/139 148/152/148 138/153/138
f 139/151/139 138/153/138 146/154/146
f 139/151/139 140/155/140 149/156/149
f 149/156/149 148/152/148 139/151/139
f 140/157/140 141/158/141 150/159/150
f 150/159/150 149/160/149 140/157/140
f 141/158/141 142/161/142 134/162/134
f 134/162/134 150/159/150 141/158/141
