# fff0120b_00010_0004f9bf
o fff0120b_00010_0004f9bf
v 0.217746 0.008705 0.175265
v -0.217830 0.006254 0.175269
v 0.217773 0.003898 0.061884
v -0.217803 0.001448 0.061880
v 0.217773 0.003913 0.062248
v -0.217803 0.001463 0.062251
v 0.217802 -0.001275 -0.060279
v -0.217774 -0.003725 -0.060279
v 0.217802 -0.001275 -0.060279
v -0.217774 -0.003725 -0.060279
v 0.217832 -0.006615 -0.186758
v -0.217744 -0.009066 -0.186761
vt -8.224297 8.011716
vt -7.605503 7.543438
vt -7.605544 8.011534
vt -8.223805 7.544440
vt -9.019670 9.497177
vt -8.340067 9.035059
vt -8.340123 9.496139
vt -9.019163 9.038552
vt -8.210339 8.519240
vt -7.591551 8.050967
vt -7.596296 8.510189
vt -8.210286 8.051153
vn 0.005621 -0.999087 0.042355
vn 0.005620 -0.999087 0.042353
vn 0.005621 -0.999087 0.042355
vn 0.005620 -0.999087 0.042353
vn 0.005621 -0.999089 0.042304
vn 0.005621 -0.999089 0.042303
vn 0.005621 -0.999089 0.042304
vn 0.005621 -0.999089 0.042303
vn 0.005621 -0.999094 0.042188
vn 0.005620 -0.999094 0.042187
vn 0.005621 -0.999094 0.042188
vn 0.005620 -0.999094 0.042187
g fff0120b_00010_0004f9bf_e9
f 2/5/2 3/6/3 1/7/1
f 2/5/2 4/8/4 3/6/3
f 10/1/10 11/2/11 9/3/9
f 10/1/10 12/4/12 11/2/11
g fff0120b_00010_0004f9bf_e10
f 6/9/6 8/12/8 7/10/7
f 6/9/6 7/10/7 5/11/5
