# fff08f90_00045_001a5e6f
o fff08f90_00045_001a5e6f
v 0.986041 2.513189 -1.078439
v 0.590834 2.592934 -0.266381
v 0.103524 2.687954 -1.023416
v 4.125548 6.919694 1.611719
v 2.688201 7.589940 1.611719
v 3.335341 7.158788 2.869687
v 3.337590 7.157740 1.611719
vt -9.502069 3.981160
vt -9.250551 3.025881
vt -9.761322 3.025881
vt 1.258195 -1.943180
vt 0.745048 -1.943180
vt 0.993785 -1.010528
vt 0.994579 -1.943180
vn 0.194147 0.980971 -0.001846
vn 0.194147 0.980971 -0.001846
vn 0.194147 0.980971 -0.001846
vn -0.289196 -0.957270 0.000280
vn -0.554055 -0.832480 -0.000297
vn -0.423475 -0.905908 -0.000002
vn -0.426051 -0.904699 -0.000008
g fff08f90_00045_001a5e6f_e8
f 1/3/1 3/2/3 2/1/2
f 5/5/5 7/7/7 6/6/6
f 7/7/7 4/4/4 6/6/6
