# fff017fc_00068_00119e57
o fff017fc_00068_00119e57
v 20.926762 68.903557 -1.344576
v -4.942223 7.111168 -0.594574
v -2.250572 19.708519 -0.594574
v -2.250580 19.708496 -1.344574
v -15.927190 42.483238 -0.144575
v -9.311525 45.791344 -1.344575
v -15.927190 45.791344 -1.344576
v -21.084263 42.483238 -0.144576
v -21.084343 45.791344 -1.344576
v -17.605492 35.803612 -0.144574
v -11.667282 19.419212 -1.344574
v -17.351463 58.844749 -1.344576
v -12.335701 36.012901 -0.144575
v -14.564590 39.049889 -0.144576
v -12.335701 39.018230 -0.144576
v -14.564590 35.213463 -0.144575
v 21.084343 7.111168 -0.594574
v -11.516052 3.875557 0.605426
v -11.675850 19.419212 0.603968
v -17.605515 19.419212 0.575924
v -5.017303 18.416260 -1.344574
v 21.057137 29.458931 -1.344574
v 6.471737 -46.442963 -1.339365
v -7.562943 3.883568 -1.344574
v -17.605492 -46.732208 0.592468
v -11.654518 3.875282 -1.344574
v -11.470673 -46.435120 -1.344574
v -11.541069 -19.671333 0.605426
v -11.611313 -24.640083 -1.344574
v 21.078564 19.693165 -0.594574
v -5.017296 18.416222 -0.594574
v 5.490377 19.692417 -0.594574
v -7.482872 3.886955 0.603992
v -17.605515 -19.744743 0.583891
v -17.605507 22.239342 -0.144574
v -9.377357 29.040901 -1.344574
v 4.950474 -24.631935 1.335923
v -3.899704 -22.802902 1.354284
v -9.271614 29.040909 -0.144575
v -1.493858 -22.802956 0.603964
v -3.899704 -22.804771 0.603964
v 0.244499 7.111168 -0.594574
v 5.455856 11.483856 -0.594574
v -14.264420 33.358490 -0.144574
v -3.272726 -0.390232 0.603964
v -8.322074 -0.390232 0.603965
v -3.272726 -16.034401 0.604559
v -8.322074 -16.034401 0.605019
v -3.899704 -24.632751 1.336629
v -1.493858 -24.632530 1.336437
v -4.942230 7.111168 -1.344574
v 6.400425 -30.845802 -1.339365
v -1.448380 -30.845795 -1.340460
v -6.246162 -28.845795 -1.341326
v -7.665466 -26.881920 -1.341326
v -17.605446 -66.691093 0.599939
v -15.267929 -68.898064 0.605368
v -11.351822 -68.903557 0.605310
v -11.547134 -19.717323 0.586688
v -8.141068 -24.592003 -1.327921
v -7.821220 -54.281288 0.605522
v 1.394730 -40.963440 -1.340120
v -10.660271 -24.592537 -1.326558
v -8.141068 -19.716469 0.584497
v -10.660271 -19.717094 0.586105
v -7.821220 -59.783791 0.605182
v -11.521759 -64.531464 0.604870
v -13.073933 -59.630928 0.602051
v -13.073932 -54.434151 0.599073
v -7.971312 -54.434151 0.605360
v -7.971312 -59.630928 0.605039
v -21.084343 68.888023 -1.354284
v -1.460844 7.111168 -0.594574
v -4.942223 7.111168 0.603991
v -1.463491 7.111168 0.603991
v -15.927190 45.791344 -0.144575
v -9.296106 45.791344 -0.144575
v 0.274461 29.168732 -0.594574
v 0.257583 19.708557 -1.344574
v 0.257584 29.173889 -1.344574
v 21.074013 29.453743 -0.594574
v 0.274467 19.703331 -0.594574
v -21.084076 35.938927 -0.144575
v -13.224024 -54.281288 0.598865
v -13.224024 -59.783791 0.602018
v -14.264420 28.242699 -0.144516
v 1.394730 -37.852303 -1.340222
v -1.670944 -37.852303 -1.340336
v -1.670944 -40.963463 -1.340410
v -7.665466 -22.802956 0.158674
v -7.665466 -24.638161 0.158674
v 4.949863 -28.881935 0.158674
v -6.246140 -26.882751 0.158674
v -1.448380 -28.882393 0.158674
v -7.665466 -22.803268 0.605291
v -7.662680 -22.808891 -0.629059
v -1.493858 -22.802895 1.346416
v -7.665466 -24.631905 -1.344574
v -2.751593 -46.346100 0.606005
v -2.631657 -64.554283 0.605546
v -7.657593 -19.663155 0.605290
v -9.001793 -66.785301 0.605067
v -6.895383 -66.768204 0.605231
v -11.470673 -46.341919 0.606005
v -2.631657 -64.554283 1.349633
v -2.751593 -46.346100 1.350092
v 5.021175 -46.349762 1.350092
v -2.641066 -62.755074 1.349669
v -13.860954 58.253319 -1.344576
v -7.658132 -19.716202 0.583817
v -0.667961 58.253319 -1.344576
v -0.576515 21.517822 -1.344574
v -16.734436 42.483238 -0.144575
v -10.067413 39.018219 -0.144575
v -20.208473 58.844749 -1.344576
v -20.208473 45.791344 -1.344576
v -8.571808 28.630333 -1.344574
v -16.734436 45.791344 -1.344576
v -16.734436 41.661339 -0.144575
v -10.067413 41.661339 -0.144576
v -20.208473 39.049889 -0.144576
v -20.208473 42.483238 -0.144576
v -8.571808 46.610985 -1.344575
v -16.734436 46.610985 -1.344576
v -10.709564 19.407135 -1.344574
v -5.855263 17.292015 -1.344574
v 4.655876 18.903343 -0.594574
v -16.807159 -19.654526 0.586340
v -16.807159 -41.647194 0.593123
v -16.807159 22.239342 -0.144553
v -16.807159 35.213463 -0.144574
v -2.136776 18.903343 -0.594574
v -16.807159 19.419212 0.578323
v -10.209396 28.242699 -0.144568
v -12.350434 3.082237 0.603796
v -2.267136 20.515007 -1.344574
v -5.855268 18.665295 -1.344574
v -5.797623 13.888695 -1.344574
v -16.807159 -66.348282 0.600574
v -10.718605 4.666161 -1.344574
v -1.981239 3.082237 0.603953
v 4.655876 11.924393 -0.594574
v -4.326225 17.828629 -0.594574
v -0.025614 7.653275 -0.594574
v -4.326225 7.653282 -0.594574
v -1.526750 -31.627777 -1.340441
v 4.554222 -31.627785 -1.339445
v -8.141068 -27.162331 -1.342490
v -8.141068 -24.634560 -1.344574
v -6.673468 -29.353653 -1.341451
v -8.141068 -19.665062 0.605322
v -5.797623 7.613808 -1.344574
v -8.141068 -19.155884 0.605211
v -1.981239 -20.869019 0.603962
v -7.926319 4.666161 -1.344574
v -3.646202 -64.083946 0.605517
v 2.448835 -47.879883 1.350067
v -16.807159 -47.116920 0.594684
v -3.646202 -47.116920 0.605973
v -10.660271 -18.720581 0.605352
v -12.263969 -41.647194 0.603992
v 4.554222 -45.547913 -1.339488
v -12.263969 -18.720581 0.604977
v -10.590073 -45.547890 -1.344145
v -10.666954 -24.638542 -1.344574
v -10.660271 -19.669670 0.605398
v -9.290403 -66.034454 0.604673
v -7.183738 -66.035973 0.604811
v -11.781992 -68.311195 0.605223
v -3.884499 -1.122719 0.604011
v -18.151306 68.888023 -1.354284
v -12.923012 68.888023 -1.354284
v -12.338044 68.888023 -1.354284
v -7.580642 -1.122719 0.603991
v -14.815434 -68.311195 0.604260
v -17.351257 68.888023 -1.354284
v -13.860954 68.888023 -1.354284
v -7.580643 -15.249733 0.604895
v -3.884499 -15.249733 0.604478
v -13.588547 32.999550 -0.144574
v -13.586197 29.048576 -0.144535
v -11.683960 38.214596 -0.144575
v -11.575214 35.806423 -0.144575
v -9.588285 38.101536 -0.144575
v -21.038553 59.512230 -1.347085
v 0.677004 59.761997 -1.344576
v -11.855438 68.888474 -1.354002
v -12.266144 58.996490 -1.344576
v -18.114561 59.512230 -1.345511
v 21.075016 27.385582 -0.594574
v 1.499397 21.690086 -0.594574
v 1.499397 27.385582 -0.594574
v 21.077648 21.690086 -0.594574
v -5.952632 45.595013 -1.344575
v -5.762091 46.817089 -1.344575
v -3.066828 45.576988 -1.344575
v -4.574444 47.393898 -1.344575
v -3.477526 46.887329 -1.344575
v -9.845108 29.359507 -0.144575
v -9.285920 38.824673 -0.144575
v -21.084145 38.300606 -0.144575
v -15.218813 38.162476 -0.144576
v -21.084091 36.518700 -0.144575
v -15.363504 36.002842 -0.144575
v -2.783708 44.863976 -1.344574
v -6.462974 44.863976 -1.344575
v -3.240211 47.136131 -1.344575
v -4.576763 47.762291 -1.344575
v -5.996445 47.136131 -1.344575
v -6.069329 29.251976 -1.344574
v -4.491488 31.038845 -1.344574
v -3.454864 30.449022 -1.344574
v -2.811718 29.246788 -1.344574
v -5.659514 30.396322 -1.344574
v -15.927190 42.545284 -0.167186
v -21.084335 45.719872 -1.288054
v -21.084267 42.545284 -0.167187
v -4.488853 31.372126 -1.344574
v -5.902999 30.718285 -1.344574
v -3.267721 30.853294 -1.344574
v -2.186189 28.630333 -1.344574
v -5.824570 28.630333 -1.344574
v -20.208473 42.545284 -0.167186
v -16.734436 42.545284 -0.167186
v -20.208473 45.719872 -1.328579
v -15.927190 45.752586 -1.331788
v -8.571808 44.863976 -1.344575
v -0.667961 29.724693 -1.344574
v -0.667961 44.863976 -1.344575
v -0.667961 46.367516 -1.344575
v -2.602060 29.724693 -1.344574
v -0.576515 28.630333 -1.344574
v -6.437682 29.724693 -1.344574
v -2.755899 46.367516 -1.344575
v -12.350432 19.367027 0.590110
v -16.807159 19.367027 0.578412
v -6.421420 46.367516 -1.344575
v -8.571808 46.367516 -1.344575
v -16.734436 45.719872 -1.318696
v -11.671009 19.367027 0.604012
v -10.974811 22.239342 -0.144574
v -17.605507 22.293541 -0.144574
v -17.605515 19.367027 0.576006
v -10.900874 22.497307 -1.344574
v -10.962187 22.293541 -0.144574
v -11.766990 22.239342 -0.144471
v -16.807159 22.293541 -0.144553
v -12.465770 19.419212 0.600468
v -11.720654 22.293541 -0.144472
v -9.835799 4.666161 -1.344574
v -9.856884 3.878922 -1.344574
v -9.813661 18.308886 -1.344574
v -7.599380 43.647026 -1.344574
v -8.039305 43.902191 -1.344574
v -8.571808 44.722412 -1.344575
v -9.311192 45.690865 -1.344575
v -10.225883 18.757303 -1.344574
v -10.131943 4.666161 -1.344574
v -10.155365 3.878264 -1.344574
v -7.954133 26.130203 -1.344574
v -8.171270 27.158142 -1.344574
v -6.755302 26.962729 -1.344574
v -5.706741 25.442406 -1.344574
v -6.755302 28.630333 -1.344574
v -5.914971 33.309967 -1.344574
v -7.002090 34.352482 -1.344574
v -7.884475 34.249550 -1.344574
v -8.571808 34.815834 -1.344574
v -9.334686 35.441910 -1.344574
v -6.623277 33.241104 -1.344574
v -8.571808 29.724682 -1.344574
v -8.571808 29.724682 -1.344574
v -7.002090 38.250790 -1.344574
v -7.778178 38.238068 -1.344574
v -7.648579 39.233063 -1.344574
v -8.020737 39.223202 -1.344574
v -10.666954 -39.113647 -1.344283
v -6.171562 -45.547913 -1.342570
v -5.662659 -46.437916 -1.342717
v -9.735336 -46.436539 -1.343634
v -9.735336 -45.547890 -1.343461
v -9.735335 -24.636068 -1.344574
v -9.741872 -24.592186 -1.327456
v -10.660271 -21.895399 -0.268490
v -11.549132 -19.870571 0.526567
v -10.660271 -22.082783 -0.342759
v -10.092274 -24.592213 -1.327388
v -10.096526 -24.636211 -1.344574
v -10.096527 -46.436497 -1.343662
v -11.249817 -19.717249 0.586498
v -11.239487 -19.670795 0.605417
v -11.560493 -19.170139 0.605405
v -11.289526 -19.717257 0.586519
v -11.284955 -19.670860 0.605418
v -11.558076 -19.232525 0.605408
v -3.899704 -22.802902 1.354284
v -1.493858 -22.802895 1.346416
v -2.064125 -47.903198 1.350088
v -2.009911 -57.448807 1.349749
v -0.691517 -57.418495 1.349810
v -18.208679 56.233032 -1.344576
v -18.208679 49.065796 -1.344576
v -3.869507 49.065796 -1.344575
v -3.869507 56.233032 -1.344575
v -5.228980 47.244400 -1.344575
v -5.393580 47.583366 -1.344575
v -6.039776 46.217728 -1.344575
v -3.963226 47.253517 -1.344575
v -3.747052 47.546783 -1.344575
v -3.171497 46.402542 -1.344575
v -2.884283 46.665478 -1.344575
v -5.145720 30.820400 -1.344574
v -5.297043 31.188343 -1.344574
v -3.937603 30.842506 -1.344574
v -3.751355 31.188063 -1.344574
v -6.262986 30.126556 -1.344574
v -2.823562 30.222633 -1.344574
v -3.132633 30.002495 -1.344574
v 0.482692 45.590946 -1.344575
v -3.082412 12.687744 -0.594574
v -4.978816 12.687744 -0.594574
v -4.326225 12.687744 -0.594574
v -3.082413 7.653280 -0.594574
v -3.082413 7.111168 -0.594574
v -3.389526 12.336548 -0.594574
v -3.389527 7.653280 -0.594574
v -4.326225 12.336548 -0.594574
v -4.976513 12.336548 -0.594574
v -4.946031 7.655205 -0.594574
v 0.257583 20.250961 -1.344574
v -0.557764 20.529831 -1.344574
v 0.257583 21.517822 -1.344574
v -2.267136 21.546263 -1.344574
v -2.055313 21.332092 -1.344574
v -0.573445 21.332092 -1.344574
v 0.257583 21.332092 -1.344574
v -2.055313 20.516867 -1.344574
v -2.055313 19.708502 -1.344574
v -3.608490 -20.852966 0.603963
v -1.492027 -20.852966 0.603965
v -4.005280 -21.100420 0.603963
v -1.492218 -21.055702 0.603965
v -1.489825 -19.000019 0.603967
v -4.037308 -19.593079 0.604422
v -3.608490 -19.155884 0.604325
v -1.981239 -19.131897 0.603962
v -0.667961 36.482185 -1.344575
v 0.359301 36.592079 -1.344574
v -0.667961 52.495361 -1.344576
v 0.577051 52.472435 -1.344575
v 0.304644 32.605991 -1.344574
v -0.667961 32.452950 -1.344574
v 0.423275 41.257660 -1.344575
v -0.667961 40.786873 -1.344575
v -0.576515 25.081135 -1.344574
v 0.257583 24.947411 -1.344574
v -0.667961 49.544937 -1.344575
v 0.534520 49.370720 -1.344575
v -0.667961 55.153389 -1.344576
v 0.618904 55.524834 -1.344576
v -17.605515 16.126936 0.576660
v -16.876730 15.958681 0.578890
v -16.807159 15.942620 0.579108
v -16.579750 14.207547 0.580403
v -17.605515 11.919054 0.577508
v -16.959581 11.899744 0.579458
v -16.807159 11.895185 0.579930
v -17.605515 3.352540 0.578693
v -17.078636 3.378433 0.580275
v -16.807159 3.391780 0.581112
v -17.605515 -8.774123 0.580034
v -17.213007 -8.677044 0.581197
v -16.807159 -8.576645 0.582431
v -17.605505 -30.237843 0.587226
v -16.807159 -30.077995 0.589555
vt -0.860023 -0.920174
vt -0.860022 -0.920175
vt -0.860023 -0.920175
vt -0.860023 -0.920175
vt -0.860015 -0.832071
vt -0.860022 -0.912305
vt -0.860023 -0.920174
vt -0.860032 -0.934706
vt -0.860022 -0.920175
vt -0.860023 -0.920175
vt -0.860022 -0.920175
vt -0.860023 -0.920174
vt -0.860023 -0.920174
vt -0.860023 -0.920174
vt -0.860014 -0.829105
vt -0.860014 -0.827904
vt -0.860014 -0.831029
vt -0.860014 -0.829351
vt -0.860014 -0.829135
vt -0.860014 -0.830616
vt -0.860012 -0.813522
vt -0.860012 -0.813151
vt -0.860014 -0.827887
vt -0.860013 -0.809650
vt -0.860012 -0.800497
vt -0.860011 -0.794610
vt -0.860015 -0.828493
vt -0.860023 -0.920174
vt -0.860014 -0.828074
vt -0.860023 -0.920174
vt -0.860022 -0.920174
vt -0.860031 -0.895827
vt -0.860025 -0.920172
vt -0.860031 -0.920655
vt -0.860025 -0.920172
vt -0.860031 -0.923940
vt -0.860032 -0.947106
vt -0.860033 -0.973760
vt -0.860021 -0.933276
vt -0.860017 -0.965872
vt -0.860012 -0.800490
vt -0.860019 -0.947312
vt -0.860018 -0.862965
vt -0.860023 -0.920174
vt -0.860017 -0.856611
vt -0.860014 -0.844922
vt -0.860023 -0.920174
vt -0.860023 -0.920174
vt -0.860023 -0.920174
vt -0.860016 -0.852952
vt -0.860002 -0.971519
vt -0.860028 -0.919756
vt -0.860001 -0.973021
vt -0.860022 -0.920175
vt -0.860032 -0.942863
vt -0.860025 -0.923060
vt -0.860022 -0.920175
vt -0.860003 -0.730577
vt -0.860018 -0.862968
vt -0.860015 -0.850365
vt -0.860032 -0.936652
vt -0.860031 -0.928016
vt -0.860026 -0.925406
vt -0.860018 -0.862893
vt -0.860094 -1.507253
vt -0.860024 -0.894517
vt -0.860024 -0.894517
vt -0.860022 -0.932049
vt -0.860023 -0.927088
vt -0.860014 -0.823617
vt -0.860052 -1.188121
vt -0.860012 -0.812590
vt -0.860016 -0.835889
vt -0.860018 -0.863183
vt -0.860018 -0.863183
vt -0.860015 -0.851493
vt -0.860016 -0.954413
vt -0.860023 -0.920174
vt -0.860023 -0.920174
vt -0.860026 -0.893838
vt -0.860018 -0.862893
vt -0.860021 -0.920175
vt -0.860017 -0.951014
vt -0.860023 -0.920174
vt -0.860023 -0.920174
vt -0.860023 -0.920174
vt -0.860022 -0.920174
vt -0.860022 -0.920174
vt -0.860023 -0.920174
vt -0.860025 -0.919359
vt -0.860023 -0.920174
vt -0.860022 -0.920174
vt -0.860023 -0.920174
vt -0.860020 -0.944235
vt -0.860026 -0.925406
vt -0.860022 -0.920174
vt -0.860022 -0.920174
vt -0.860022 -0.920174
vt -0.860023 -0.920174
vt -0.860023 -0.920174
vt -0.860023 -0.920175
vt -0.860024 -0.920173
vt -0.860026 -0.920172
vt -0.860025 -0.920172
vt -0.860025 -0.920172
vt -0.860025 -0.920173
vt -0.860021 -0.932406
vt -0.860015 -0.848548
vt -0.860024 -0.923989
vt -0.860032 -0.941785
vt -0.860014 -0.825367
vt -0.860023 -0.920175
vt -0.860023 -0.920174
vt -0.860022 -0.920174
vt -0.860025 -0.920172
vt -0.860025 -0.931567
vt -0.860025 -0.920172
vt -0.860022 -0.906073
vt -0.860022 -0.920174
vt -0.860015 -0.850000
vt -0.860017 -0.952666
vt -0.860032 -0.928533
vt -0.860032 -0.929500
vt -0.860022 -0.920175
vt -0.860014 -0.826203
vt -0.860022 -0.920175
vt -0.860030 -0.902780
vt -0.860023 -0.892520
vt -0.860027 -0.928697
vt -0.860019 -0.862214
vt -0.860020 -0.868925
vt -0.860020 -0.873850
vt -0.860026 -0.925406
vt -0.860022 -0.920174
vt -0.860022 -0.920174
vt -0.860032 -0.932418
vt -0.860022 -0.920174
vt -0.860022 -0.920174
vt -0.860032 -0.949833
vt -0.860023 -0.920174
vt -0.860023 -0.920175
vt -0.860019 -0.860276
vt -0.860055 -1.158342
vt -0.860054 -1.198417
vt -0.860023 -0.920174
vt -0.860023 -0.920174
vt -0.860022 -0.920174
vt -0.860028 -0.960986
vt -0.860015 -0.832072
vt -0.860025 -0.920172
vt -0.860024 -0.919169
vt -0.860016 -0.842087
vt -0.860015 -0.831713
vt -0.860021 -0.879431
vt -0.860024 -0.906006
vt -0.860018 -0.864968
vt -0.860026 -0.925406
vt -0.860031 -0.919391
vt -0.860023 -0.920174
vt -0.860022 -0.892326
vt -0.860016 -0.955866
vt -0.860024 -0.926912
vt -0.860026 -0.922969
vt -0.860022 -0.920174
vt -0.860023 -0.925667
vt -0.860032 -0.953039
vt -0.860023 -0.920174
vt -0.860022 -0.920174
vt -0.860022 -0.920174
vt -0.860023 -0.920174
vt -0.860023 -0.920174
vt -0.860019 -0.860276
vt -0.860016 -0.956047
vt -0.860020 -0.944741
vt -0.860024 -0.935870
vt -0.860023 -0.918048
vt -0.860023 -0.926439
vt -0.860022 -0.911001
vt -0.860006 -0.763837
vt -0.860026 -0.923566
vt -0.860023 -0.897679
vt -0.860020 -0.872902
vt -0.860023 -0.893741
vt -0.860032 -0.938876
vt -0.860031 -0.917232
vt -0.860017 -0.953171
vt -0.860005 -0.750006
vt -0.860004 -0.743267
vt -0.860020 -0.940866
vt -0.860017 -0.859491
vt -0.860017 -0.865236
vt -0.860018 -0.874379
vt -0.860021 -0.900580
vt -0.860017 -0.862052
vt -0.860022 -0.916927
vt -0.860024 -0.929529
vt -0.860023 -0.920833
vt -0.860023 -0.923440
vt -0.860023 -0.926023
vt -0.860024 -0.932156
vt -0.860018 -0.858338
vt -0.860019 -0.860276
vt -0.860018 -0.858292
vt -0.860018 -0.858687
vt -0.860018 -0.859151
vt -0.860018 -0.859148
vt -0.860014 -0.830395
vt -0.860014 -0.829069
vt -0.860015 -0.829710
vt -0.860016 -0.955449
vt -0.860019 -0.859956
vt -0.860016 -0.953556
vt -0.860018 -0.867930
vt -0.860016 -0.855828
vt -0.860019 -0.878367
vt -0.860022 -0.918780
vt -0.860017 -0.862624
vt -0.860032 -0.947541
vt -0.860013 -0.817868
vt -0.860013 -0.821095
vt -0.860013 -0.816566
vt -0.860023 -0.920174
vt -0.860023 -0.920175
vt -0.860026 -0.944811
vt -0.860025 -0.920172
vt -0.860023 -0.920174
vt -0.860022 -0.920175
vt -0.860023 -0.920175
vt -0.860022 -0.906182
vt -0.860025 -0.920173
vt -0.860022 -0.905986
vt -0.860017 -0.857291
vt -0.860052 -1.188518
vt -0.860022 -0.915553
vt -0.860027 -0.963716
vt -0.860031 -0.923161
vt -0.860013 -0.820459
vt -0.860013 -0.820001
vt -0.860013 -0.816966
vt -0.860023 -0.920175
vt -0.860023 -0.920175
vt -0.860023 -0.918869
vt -0.860023 -0.919705
vt -0.860013 -0.819351
vt -0.860013 -0.815379
vt -0.860022 -0.920175
vt -0.860023 -0.920174
vt -0.860032 -0.978143
vt -0.860042 -1.053991
vt -0.860031 -0.972582
vt -0.860023 -0.926514
vt -0.860023 -0.920174
vt -0.860023 -0.920174
vt -0.860022 -0.929160
vt -0.860021 -0.933263
vt -0.860023 -0.920174
vt -0.860043 -1.058698
vt -0.860023 -0.920174
vt -0.860023 -0.920174
vt -0.860023 -0.920174
vt -0.860023 -0.920174
vt -0.860030 -0.996713
vt -0.860027 -0.961668
vt -0.860020 -0.896718
vt -0.860030 -0.999133
vt -0.860016 -0.854423
vt -0.860017 -0.854362
vt -0.860023 -0.920174
vt -0.860025 -0.920172
vt -0.860021 -0.932404
vt -0.860025 -0.919409
vt -0.860031 -0.920495
vt -0.860023 -0.920174
vt -0.860031 -0.926648
vt -0.860031 -0.920666
vt -0.860030 -0.902714
vt -0.860018 -0.861034
vt -0.860023 -0.920174
vt -0.860023 -0.920174
vt -0.860018 -0.863183
vt -0.860031 -0.926761
vt -0.860050 -1.196950
vt -0.860023 -0.920174
vt -0.860026 -0.925406
vt -0.860030 -0.905912
vt -0.860021 -0.932599
vt -0.860031 -0.919573
vt -0.860022 -0.920175
vt -0.860023 -0.920175
vt -0.860023 -0.920175
vt -0.860023 -0.920174
vt -0.860023 -0.920175
vt -0.860025 -0.923231
vt -0.860023 -0.920175
vt -0.860023 -0.920174
vt -0.860024 -0.919086
vt -0.860023 -0.920174
vt -0.860022 -0.920175
vt -0.860050 -1.117996
vt -0.860022 -0.920175
vt -0.860023 -0.920174
vt -0.860022 -0.920175
vt -0.860023 -0.920175
vt -0.860022 -0.920175
vt -0.860023 -0.920174
vt -0.860023 -0.920174
vt -0.860022 -0.920175
vt -0.860026 -0.944761
vt -0.860023 -0.920174
vt -0.860026 -0.941580
vt -0.860024 -0.920173
vt -0.860017 -0.865501
vt -0.860032 -0.958522
vt -0.860025 -0.920172
vt -0.860025 -0.920172
vt -0.860023 -0.920175
vt -0.860019 -0.878348
vt -0.860022 -0.920175
vt -0.860023 -0.920174
vt -0.860023 -0.920174
vt -0.860032 -0.949982
vt -0.860032 -0.958866
vt -0.860023 -0.920175
vt -0.860023 -0.920175
vt -0.860023 -0.920175
vt -0.860023 -0.922794
vt -0.860023 -0.920174
vt -0.860032 -0.959813
vt -0.860018 -0.862917
vt -0.860014 -0.823617
vt -0.860026 -0.922969
vt -0.860018 -0.863183
vt -0.860032 -0.941785
vt -0.860018 -0.862893
vt -0.860030 -0.912620
vt -0.860026 -0.924503
vt -0.860027 -0.936276
vt -0.860024 -0.913954
vt -0.860018 -0.862968
vt -0.860017 -0.852368
vt -0.860024 -0.914940
vt -0.860011 -0.794402
vt -0.860048 -1.186272
vt -0.860015 -0.841771
vt -0.860018 -0.863133
vt -0.860018 -0.862965
vt -0.860015 -0.818547
vt -0.860023 -0.920174
vt -0.860022 -0.920174
vt -0.860023 -0.920174
vt -0.860023 -0.920174
vt -0.860023 -0.928786
vt -0.860024 -0.914940
vt -0.860022 -0.920174
vt -0.860018 -0.863154
vt -0.860019 -0.951731
vt -0.860022 -0.920174
vt -0.860023 -0.920174
vt -0.860017 -0.951448
vt -0.860018 -0.863134
vt -0.860030 -0.905932
vt -0.860029 -0.912130
vt -0.860024 -0.923823
vt -0.860026 -0.886693
vt -0.860023 -0.920174
vt -0.860026 -0.925406
vt -0.860017 -0.937956
vt -0.860022 -0.920174
vt -0.860026 -0.925406
vt -0.860031 -0.903587
vt -0.860017 -0.952705
vt -0.860016 -0.955486
vt -0.860021 -0.933826
vt -0.860028 -0.913691
vt -0.860026 -0.890947
vt -0.860041 -1.082129
vt -0.860024 -0.920173
vt -0.860022 -0.930383
vt -0.860032 -0.938417
vt -0.860016 -0.956047
vt -0.860019 -0.949548
vt -0.860019 -0.950185
vt -0.860022 -0.932335
vt -0.860014 -0.842968
vt -0.860025 -0.920172
vt -0.860023 -0.886422
vt -0.860026 -0.918602
vt -0.860022 -0.930383
vt -0.860032 -0.938417
vt -0.860017 -0.951701
vt -0.860024 -0.920173
vt -0.860025 -0.920172
vt -0.860025 -0.920172
vt -0.860018 -0.854133
vt -0.860025 -0.920172
vt -0.860025 -0.920172
vt -0.860022 -0.893840
vt -0.860025 -0.920172
vt -0.860025 -0.920172
vt -0.860026 -0.920172
vt -0.860025 -0.920172
vt -0.860025 -0.920172
vt -0.860025 -0.920172
vt -0.860024 -0.920173
vt -0.860018 -0.863161
vt -0.860022 -0.920174
vt -0.860016 -0.841779
vt -0.860024 -0.909314
vt -0.860016 -0.840462
vt -0.860021 -0.882871
vt -0.860014 -0.822873
vt -0.860015 -0.829815
vt -0.860018 -0.863134
vt -0.860015 -0.851228
vt -0.860016 -0.853799
vt -0.860027 -0.916883
vt -0.860018 -0.863133
vt -0.860026 -0.916126
vt -0.860026 -0.925406
vt -0.860025 -0.889451
vt -0.860018 -0.859877
vt -0.860019 -0.866038
vt -0.860052 -1.218190
vt -0.860018 -0.838123
vt -0.860015 -0.844319
vt -0.860016 -0.847201
vt -0.860021 -0.905931
vt -0.860022 -0.911833
vt -0.860022 -0.914918
vt -0.860023 -0.923858
vt -0.860018 -0.869612
vt -0.860019 -0.881482
vt -0.860017 -0.829259
vt -0.860017 -0.852885
vt -0.860018 -0.858995
vt -0.860015 -0.832422
vt -0.859994 -0.633822
vt -0.860017 -0.856613
vt -0.860016 -0.853543
vt -0.860015 -0.829615
vt -0.860018 -0.869695
vt -0.860017 -0.867732
vt -0.860016 -0.854136
vt -0.860017 -0.866024
vt -0.860018 -0.868213
vt -0.860018 -0.867450
vt -0.860018 -0.869642
vt -0.860020 -0.888723
vt -0.860017 -0.864349
vt -0.860018 -0.867211
vt -0.860018 -0.872512
vt -0.860017 -0.863153
vt -0.860020 -0.888723
vt -0.860016 -0.847201
vt -0.860018 -0.869502
vt -0.860018 -0.865955
vt -0.860019 -0.884056
vt -0.860019 -0.882563
vt -0.860019 -0.885114
vt -0.860020 -0.887017
vt -0.860008 -0.763795
vt -0.860013 -0.816031
vt -0.860012 -0.805418
vt -0.860012 -0.804751
vt -0.860012 -0.801585
vt -0.860012 -0.802276
vt -0.860012 -0.805878
vt -0.860018 -0.863031
vt -0.860014 -0.817320
vt -0.860018 -0.863031
vt -0.860018 -0.863023
vt -0.860018 -0.862966
vt -0.860018 -0.862879
vt -0.860018 -0.863032
vt -0.860018 -0.862966
vt -0.860018 -0.863005
vt -0.860018 -0.863005
vt -0.860014 -0.814077
vt -0.860014 -0.821771
vt -0.860012 -0.801957
vt -0.860012 -0.801492
vt -0.860018 -0.862954
vt -0.860018 -0.862886
vt -0.860018 -0.862901
vt -0.860018 -0.862916
vt -0.860015 -0.850116
vt -0.860016 -0.851770
vt -0.860015 -0.849387
vt -0.860018 -0.862898
vt -0.860018 -0.862958
vt -0.860018 -0.862912
vt -0.860015 -0.850098
vt -0.860016 -0.851550
vt -0.860015 -0.849282
vt -0.860023 -0.920174
vt -0.860023 -0.920174
vt -0.860023 -0.920174
vt -0.860023 -0.920174
vt -0.860022 -0.920175
vt -0.860022 -0.920175
vt -0.860022 -0.920175
vt -0.860023 -0.920175
vt -0.860011 -0.797913
vt -0.860023 -0.920175
vt -0.860037 -1.002842
vt -0.860023 -0.923394
vt -0.860024 -0.927944
vt -0.860004 -0.746550
vt -0.860023 -0.918917
vt -0.860024 -0.929085
vt -0.860024 -0.932946
vt -0.860006 -0.757459
vt -0.860024 -0.928880
vt -0.860024 -0.929863
vt -0.860013 -0.821957
vt -0.860017 -0.863617
vt -0.860017 -0.861641
vt -0.860018 -0.869476
vt -0.860018 -0.873630
vt -0.860016 -0.854954
vt -0.860020 -0.889658
vt -0.860019 -0.885498
vt -0.860040 -1.041429
vt -0.860024 -0.920173
vt -0.860025 -0.920172
vt -0.860024 -0.920173
vt -0.860025 -0.920172
vt -0.860024 -0.920173
vt -0.860025 -0.920172
vt -0.860025 -0.920172
vt -0.860024 -0.920173
vt -0.860024 -0.920173
vt -0.860025 -0.920172
vt -0.860025 -0.920172
vt -0.860024 -0.920173
vt -0.860024 -0.920173
vt -0.860019 -0.866542
vt -0.860024 -0.917356
vt -0.860026 -0.933704
vt -0.860024 -0.916772
vt -0.860016 -0.856754
vt -0.860023 -0.901756
vt -0.860017 -0.859463
vt -0.860024 -0.919263
vt -0.860015 -0.833340
vt -0.860024 -0.916831
vt -0.860024 -0.908867
vt -0.860016 -0.847493
vt -0.860025 -0.920474
vt -0.860019 -0.860139
vt -0.860022 -0.920174
vt -0.860019 -0.862916
vt -0.860019 -0.860157
vt -0.860022 -0.920174
vt -0.860018 -0.859351
vt -0.860019 -0.863760
vt -0.860026 -0.925406
vt -0.860022 -0.920174
vt -0.860026 -0.925406
vt -0.860026 -0.925406
vt -0.860019 -0.862606
vt -0.860021 -0.883506
vt -0.860037 -1.011998
vt -0.860029 -0.981985
vt -0.860030 -0.967187
vt -0.860047 -1.089270
vt -0.860026 -0.948368
vt -0.860047 -1.098202
vt -0.860026 -0.934301
vt -0.860034 -0.991812
vt -0.860030 -0.990767
vt -0.860035 -1.005679
vt -0.860039 -1.033565
vt -0.860028 -0.972602
vt -0.860029 -0.954465
vt -0.860040 -1.097845
vt -0.860023 -0.911940
vt -0.860045 -1.074550
vt -0.860026 -0.954771
vt -0.860044 -1.072613
vt -0.860048 -1.102531
vt -0.860025 -0.942598
vt -0.860051 -1.123385
vt -0.860021 -0.933162
vt -0.860021 -0.933671
vt -0.860025 -0.919808
vt -0.860025 -0.919796
vt -0.860025 -0.919960
vt -0.860021 -0.933032
vt -0.860021 -0.933487
vt -0.860025 -0.920283
vt -0.860025 -0.920254
vt -0.860025 -0.920224
vt -0.860021 -0.932849
vt -0.860021 -0.933222
vt -0.860024 -0.920966
vt -0.860024 -0.920912
vt -0.860025 -0.921118
vt -0.860021 -0.932643
vt -0.860022 -0.932922
vt -0.860024 -0.921737
vt -0.860024 -0.921647
vt -0.860024 -0.921624
vt -0.860023 -0.927020
vt -0.860020 -0.934367
vt -0.860020 -0.934367
vn -0.000077 0.000172 1.000000
vn 0.000000 0.000000 1.000000
vn 0.000000 0.000000 1.000000
vn 0.000000 0.000000 1.000000
vn -0.000000 0.086585 0.996244
vn -0.000000 0.000000 1.000000
vn -0.000000 0.105633 0.994405
vn 0.000000 0.173853 0.984772
vn 0.018166 0.317666 0.948029
vn 0.000000 0.000002 1.000000
vn 0.000000 0.000000 1.000000
vn -0.000016 0.000543 1.000000
vn -0.000000 0.000000 1.000000
vn 0.000000 0.000000 1.000000
vn -0.000000 0.000000 1.000000
vn 0.000000 0.000000 1.000000
vn 0.000000 0.000000 1.000000
vn -0.001339 -0.000829 0.999999
vn -0.011447 0.129515 0.991511
vn -0.002734 0.125880 0.992042
vn 0.000000 0.000000 1.000000
vn -0.000000 0.000000 1.000000
vn -0.000123 -0.000129 1.000000
vn 0.000000 0.000000 1.000000
vn -0.002623 0.000295 0.999997
vn 0.000000 0.000000 1.000000
vn -0.000571 0.000094 1.000000
vn -0.000133 -0.101252 0.994861
vn 0.000310 -0.185304 0.982681
vn 0.000000 0.000000 1.000000
vn 0.000000 0.000000 1.000000
vn 0.000000 0.000000 1.000000
vn 0.000005 -0.000205 1.000000
vn -0.003105 0.000334 0.999995
vn -0.000026 0.124741 0.992189
vn 0.000000 0.000000 1.000000
vn 0.000051 -0.266992 0.963699
vn -0.000611 0.999998 -0.002032
vn 0.000003 0.000002 1.000000
vn -0.000105 0.706918 0.707295
vn -0.000186 0.447797 0.894135
vn 0.000000 0.000000 1.000000
vn 0.000000 0.000000 1.000000
vn 0.000004 0.000006 1.000000
vn -0.000042 0.000035 1.000000
vn 0.000010 0.000056 1.000000
vn 0.000240 0.000002 1.000000
vn 0.000091 0.000058 1.000000
vn -0.141129 -0.143945 0.979471
vn 0.000095 -0.181267 0.983434
vn 0.000000 0.000000 1.000000
vn -0.000072 0.000057 1.000000
vn -0.000128 0.000115 1.000000
vn -0.000088 0.000346 1.000000
vn -0.000540 0.000546 1.000000
vn -0.000956 0.000697 0.999999
vn -0.000291 0.001991 0.999998
vn 0.000008 0.000196 1.000000
vn 0.000715 -0.371043 0.928615
vn 0.001142 -0.364870 0.931058
vn -0.000477 0.000110 1.000000
vn -0.000118 0.000047 1.000000
vn 0.001155 -0.364934 0.931033
vn 0.001089 -0.370304 0.928910
vn 0.000701 -0.371026 0.928622
vn -0.000266 -0.000031 1.000000
vn -0.000103 0.000443 1.000000
vn -0.000586 0.000573 1.000000
vn -0.000913 0.000252 1.000000
vn -0.001232 -0.000062 0.999999
vn -0.000905 0.000259 1.000000
vn 0.000000 0.000768 1.000000
vn 0.000000 0.000000 1.000000
vn 0.000004 -0.000007 1.000000
vn -0.000005 -0.000009 1.000000
vn 0.000000 0.000000 1.000000
vn -0.000000 -0.000000 1.000000
vn 0.000000 0.000000 1.000000
vn 0.000000 0.000000 1.000000
vn -0.000000 0.000000 1.000000
vn 0.000000 0.000000 1.000000
vn 0.000000 0.000000 1.000000
vn -0.000000 0.000000 1.000000
vn -0.000902 0.000176 1.000000
vn -0.001072 0.000421 0.999999
vn -0.000003 0.000007 1.000000
vn -0.000143 -0.000001 1.000000
vn -0.000192 -0.000028 1.000000
vn -0.000276 -0.000052 1.000000
vn -0.302609 0.000000 0.953115
vn -0.299370 -0.075577 0.951139
vn 0.000019 -0.266948 0.963711
vn -0.224414 -0.257951 0.939734
vn -0.035211 -0.285727 0.957664
vn 0.000360 0.000006 1.000000
vn 0.001175 -0.365173 0.930939
vn -0.000003 1.000000 -0.000082
vn 0.000980 -0.148399 0.988927
vn -0.000008 -0.000033 1.000000
vn -0.000044 -0.000036 1.000000
vn 0.000569 -0.094274 0.995546
vn -0.000172 0.000463 1.000000
vn -0.000240 0.000431 1.000000
vn -0.001314 -0.005333 0.999985
vn -0.000013 -0.000021 1.000000
vn -0.000014 -0.000011 1.000000
vn 0.000005 -0.000023 1.000000
vn -0.000015 -0.000020 1.000000
vn -0.000037 0.000379 1.000000
vn 0.001526 -0.370199 0.928951
vn -0.000000 0.000000 1.000000
vn 0.000000 0.000000 1.000000
vn -0.000000 0.173844 0.984773
vn -0.000000 -0.000000 1.000000
vn -0.001180 0.001196 0.999999
vn 0.000000 0.109873 0.993946
vn 0.000000 0.000000 1.000000
vn -0.000313 0.172185 0.985065
vn -0.000000 -0.000000 1.000000
vn -0.000001 0.000000 1.000000
vn 0.000000 0.000000 1.000000
vn -0.000000 0.173842 0.984774
vn -0.000000 0.000000 1.000000
vn -0.000000 -0.000000 1.000000
vn 0.000000 0.000000 1.000000
vn 0.000000 0.000000 1.000000
vn 0.000000 0.000000 1.000000
vn -0.003631 0.000305 0.999993
vn -0.002640 0.000225 0.999996
vn -0.000919 0.125657 0.992073
vn -0.000000 0.000001 1.000000
vn 0.000000 0.000000 1.000000
vn -0.003404 0.125596 0.992076
vn 0.000012 0.000003 1.000000
vn -0.002989 -0.000064 0.999996
vn 0.000000 0.000000 1.000000
vn 0.000000 0.000000 1.000000
vn 0.000000 0.000000 1.000000
vn -0.000958 0.000533 0.999999
vn 0.000000 0.000000 1.000000
vn -0.000034 -0.000002 1.000000
vn 0.000000 0.000000 1.000000
vn 0.000000 0.000000 1.000000
vn 0.000000 0.000000 1.000000
vn 0.000000 0.000000 1.000000
vn -0.000159 0.000022 1.000000
vn -0.000132 0.000117 1.000000
vn -0.001406 -0.000019 0.999999
vn 0.000494 -0.184612 0.982811
vn -0.000537 -0.000024 1.000000
vn 0.000585 -0.191279 0.981535
vn 0.000000 0.000000 1.000000
vn 0.000113 0.000152 1.000000
vn -0.000002 0.000008 1.000000
vn 0.000000 0.000000 1.000000
vn -0.000087 -0.000033 1.000000
vn 0.000005 -0.000028 1.000000
vn -0.002066 0.000056 0.999998
vn -0.000166 -0.000091 1.000000
vn -0.000034 0.000095 1.000000
vn -0.002373 0.000045 0.999997
vn -0.000194 -0.000209 1.000000
vn -0.002233 0.000179 0.999997
vn -0.000627 0.000047 1.000000
vn 0.000527 -0.185452 0.982653
vn 0.000390 -0.191962 0.981402
vn -0.000068 0.000234 1.000000
vn -0.000184 0.000246 1.000000
vn -0.000166 0.000291 1.000000
vn 0.000013 0.000054 1.000000
vn -0.000062 0.000882 1.000000
vn 0.000000 0.000913 1.000000
vn -0.000313 0.000948 1.000000
vn 0.000011 0.000056 1.000000
vn -0.000348 0.001859 0.999998
vn 0.000000 0.000967 1.000000
vn 0.000016 0.000934 1.000000
vn 0.000103 0.000053 1.000000
vn 0.000026 0.000080 1.000000
vn 0.000003 0.000005 1.000000
vn 0.000012 0.000011 1.000000
vn -0.000000 0.000001 1.000000
vn 0.000000 0.000000 1.000000
vn -0.000001 0.000000 1.000000
vn -0.001150 0.001170 0.999999
vn -0.000102 0.000317 1.000000
vn -0.000360 0.000902 1.000000
vn -0.000163 0.000542 1.000000
vn -0.000310 0.001197 0.999999
vn 0.000000 0.000000 1.000000
vn 0.000000 0.000000 1.000000
vn 0.000000 0.000000 1.000000
vn 0.000000 0.000000 1.000000
vn -0.000000 0.000000 1.000000
vn -0.000000 0.000000 1.000000
vn -0.000000 0.000000 1.000000
vn 0.000000 0.000000 1.000000
vn 0.000000 0.000000 1.000000
vn 0.000004 0.000003 1.000000
vn -0.000001 -0.000000 1.000000
vn 0.000000 0.000000 1.000000
vn 0.000000 0.000000 1.000000
vn -0.000000 0.000000 1.000000
vn 0.000000 0.000000 1.000000
vn 0.000000 0.000000 1.000000
vn -0.000000 0.000000 1.000000
vn -0.000000 0.000000 1.000000
vn -0.000000 0.000000 1.000000
vn -0.000000 0.000000 1.000000
vn 0.000000 0.000000 1.000000
vn 0.000000 0.000000 1.000000
vn 0.000000 0.000000 1.000000
vn 0.000000 0.000000 1.000000
vn -0.000000 0.000000 1.000000
vn 0.000105 0.341715 0.939804
vn 0.036831 0.485001 0.873738
vn -0.000001 0.337671 0.941264
vn -0.000000 0.000000 1.000000
vn -0.000000 0.000000 1.000000
vn 0.000000 0.000000 1.000000
vn 0.000000 0.000000 1.000000
vn 0.000000 0.000000 1.000000
vn 0.001420 0.340437 0.940266
vn -0.000000 0.341691 0.939812
vn 0.010695 0.288585 0.957395
vn 0.000730 0.327780 0.944754
vn -0.000000 0.000000 1.000000
vn -0.000000 0.000000 1.000000
vn 0.000000 0.000000 1.000000
vn 0.000000 0.000000 1.000000
vn 0.000000 0.000000 1.000000
vn -0.000000 0.000000 1.000000
vn 0.000000 0.000000 1.000000
vn 0.000000 0.000000 1.000000
vn -0.008070 -0.099479 0.995007
vn -0.002918 0.001081 0.999995
vn -0.000000 0.000000 1.000000
vn 0.000000 0.000000 1.000000
vn -0.000334 0.341116 0.940021
vn -0.020457 -0.000567 0.999791
vn 0.000132 0.110131 0.993917
vn -0.000026 0.000001 1.000000
vn -0.003010 0.000894 0.999995
vn 0.000000 0.000000 1.000000
vn 0.000130 -0.000023 1.000000
vn -0.000143 0.129093 0.991633
vn -0.000021 0.000002 1.000000
vn -0.003935 0.025369 0.999670
vn 0.000072 -0.000032 1.000000
vn 0.000000 0.000000 1.000000
vn 0.000000 0.000000 1.000000
vn 0.000000 0.000000 1.000000
vn 0.000000 0.000000 1.000000
vn 0.000000 0.000000 1.000000
vn -0.000000 0.000000 1.000000
vn 0.000000 0.000000 1.000000
vn 0.000000 0.000000 1.000000
vn 0.000000 0.000000 1.000000
vn 0.000000 0.000000 1.000000
vn 0.000000 0.000000 1.000000
vn 0.000000 0.000000 1.000000
vn 0.000000 0.000000 1.000000
vn 0.000000 0.000000 1.000000
vn 0.000000 0.000000 1.000000
vn -0.000000 0.000000 1.000000
vn 0.000000 -0.000000 1.000000
vn -0.000000 0.000000 1.000000
vn -0.000000 0.000000 1.000000
vn 0.000000 0.000000 1.000000
vn 0.000000 0.000000 1.000000
vn -0.000000 0.000000 1.000000
vn 0.000000 0.000000 1.000000
vn 0.000000 0.000000 1.000000
vn -0.000000 0.000000 1.000000
vn 0.000000 0.000000 1.000000
vn -0.000000 0.000000 1.000000
vn -0.000183 0.000010 1.000000
vn -0.000279 -0.000189 1.000000
vn -0.000266 -0.000321 1.000000
vn -0.000338 -0.000024 1.000000
vn -0.000537 -0.000094 1.000000
vn 0.000031 -0.184710 0.982793
vn 0.000250 -0.364349 0.931263
vn -0.006058 -0.366865 0.930255
vn 0.000878 -0.365332 0.930877
vn -0.003883 -0.366663 0.930346
vn 0.000790 -0.364507 0.931200
vn 0.000430 -0.185349 0.982673
vn -0.000276 0.000391 1.000000
vn 0.000588 -0.371354 0.928491
vn 0.000359 -0.192247 0.981346
vn -0.000275 0.000218 1.000000
vn 0.000667 -0.371373 0.928484
vn 0.000335 -0.192193 0.981357
vn -0.000284 0.000030 1.000000
vn -0.149821 -0.008250 0.988679
vn 0.001401 -0.007190 0.999973
vn -0.000031 -0.000026 1.000000
vn 0.000019 -0.000019 1.000000
vn -0.000024 -0.000018 1.000000
vn -0.000000 0.000000 1.000000
vn -0.000000 -0.000000 1.000000
vn -0.000000 0.000000 1.000000
vn 0.000000 0.000000 1.000000
vn -0.000000 0.000000 1.000000
vn -0.000000 0.000000 1.000000
vn -0.000000 0.000000 1.000000
vn 0.000000 0.000000 1.000000
vn 0.000000 0.000000 1.000000
vn 0.000000 0.000000 1.000000
vn 0.000000 0.000000 1.000000
vn -0.000000 0.000000 1.000000
vn -0.000000 0.000000 1.000000
vn 0.000000 0.000000 1.000000
vn 0.000000 0.000000 1.000000
vn -0.000000 0.000000 1.000000
vn 0.000000 0.000000 1.000000
vn 0.000000 0.000000 1.000000
vn -0.000000 0.000000 1.000000
vn 0.000000 0.000000 1.000000
vn 0.000000 0.000000 1.000000
vn 0.000000 0.000000 1.000000
vn 0.000000 0.000000 1.000000
vn 0.000000 0.000000 1.000000
vn 0.000000 0.000000 1.000000
vn 0.000000 0.000000 1.000000
vn 0.000000 0.000000 1.000000
vn 0.000000 0.000000 1.000000
vn 0.000000 0.000000 1.000000
vn 0.000000 0.000000 1.000000
vn 0.000000 0.000000 1.000000
vn 0.000000 0.000000 1.000000
vn 0.000000 0.000000 1.000000
vn 0.000000 0.000000 1.000000
vn 0.000000 0.000000 1.000000
vn 0.000000 0.000000 1.000000
vn 0.000000 0.000000 1.000000
vn 0.000000 0.000000 1.000000
vn 0.000104 -0.000122 1.000000
vn -0.000006 -0.000001 1.000000
vn 0.000191 -0.000101 1.000000
vn -0.000003 0.000001 1.000000
vn -0.000012 0.000000 1.000000
vn 0.000288 -0.000141 1.000000
vn 0.000222 -0.000107 1.000000
vn 0.000095 -0.000046 1.000000
vn 0.000000 0.000000 1.000000
vn -0.000000 0.000000 1.000000
vn 0.000000 0.000000 1.000000
vn -0.000000 0.000000 1.000000
vn -0.000000 0.000000 1.000000
vn -0.000000 0.000000 1.000000
vn -0.000000 0.000000 1.000000
vn 0.000000 0.000000 1.000000
vn -0.000000 0.000000 1.000000
vn -0.000000 0.000000 1.000000
vn 0.000000 0.000000 1.000000
vn -0.000000 0.000000 1.000000
vn 0.000000 0.000000 1.000000
vn -0.000000 0.000000 1.000000
vn -0.003013 0.000202 0.999995
vn -0.003052 0.000202 0.999995
vn -0.003618 0.000203 0.999993
vn -0.004144 0.000203 0.999991
vn -0.003014 0.000170 0.999995
vn -0.003053 0.000170 0.999995
vn -0.003628 0.000185 0.999993
vn -0.003009 0.000124 0.999995
vn -0.003048 0.000125 0.999995
vn -0.003818 0.000135 0.999993
vn -0.003025 0.000250 0.999995
vn -0.003060 0.000232 0.999995
vn -0.708199 0.000151 0.706013
vn -0.002983 0.000314 0.999996
vn -0.003571 0.000310 0.999994
g fff017fc_00068_00119e57_e106
f 158/356/158 161/42/161 129/382/129
f 277/461/277 29/41/29 27/25/27
f 29/81/29 63/355/63 285/473/285
f 43/315/43 144/395/144 42/314/42
f 28/81/28 59/59/59 294/491/294
f 277/153/277 27/152/27 164/407/164
f 295/493/295 28/120/28 294/492/294
f 161/40/161 104/381/104 28/39/28
f 156/85/156 168/84/168 103/261/103
f 58/31/58 167/87/167 169/88/169
f 57/380/57 58/174/58 169/94/169
f 56/212/56 57/173/57 175/121/175
f 168/93/168 167/91/167 102/260/102
f 125/347/125 11/41/11 26/80/26
f 58/31/58 102/31/102 167/87/167
f 41/172/41 40/394/40 341/553/341
f 341/554/341 339/551/339 344/558/344
f 344/557/344 153/419/153 101/63/101
f 100/79/100 156/85/156 103/261/103
f 245/281/245 39/333/39 134/389/134
f 103/261/103 168/93/168 102/260/102
f 159/86/159 99/78/99 104/31/104
f 25/210/25 139/372/139 158/77/158
f 10/171/10 204/170/204 203/305/203
f 149/412/149 148/411/148 55/209/55
f 152/418/152 155/420/155 24/80/24
f 100/259/100 99/258/99 159/86/159
f 98/31/98 55/31/55 54/31/54
f 98/31/98 54/31/54 53/31/53
f 203/170/203 83/13/83 10/305/10
f 45/31/45 46/31/46 174/119/174
f 48/31/48 174/119/174 46/31/46
f 193/233/193 192/151/192 191/118/191
f 190/150/190 192/393/192 193/117/193
f 40/31/40 38/31/38 97/31/97
f 38/31/38 40/406/40 41/31/41
f 153/415/153 151/414/151 101/76/101
f 64/345/64 96/280/96 110/332/110
f 100/259/100 159/86/159 156/85/156
f 60/360/60 98/75/98 96/280/96
f 203/31/203 204/169/204 202/168/202
f 151/417/151 110/332/110 101/74/101
f 98/73/98 149/412/149 55/209/55
f 162/21/162 23/72/23 147/20/147
f 148/27/148 150/23/150 54/208/54
f 54/208/54 150/16/150 53/207/53
f 53/207/53 146/18/146 52/149/52
f 192/148/192 82/232/82 191/116/191
f 81/115/81 192/393/192 190/150/190
f 87/31/87 88/31/88 89/31/89
f 87/31/87 89/31/89 62/31/62
f 55/209/55 148/27/148 54/208/54
f 150/16/150 146/15/146 53/207/53
f 146/18/146 147/17/147 52/149/52
f 278/463/278 281/466/281 280/465/280
f 162/22/162 279/464/279 23/72/23
f 115/297/115 12/114/12 189/147/189
f 173/279/173 188/146/188 187/145/187
f 51/331/51 152/418/152 24/80/24
f 230/257/230 229/249/229 319/523/319
f 95/278/95 41/31/41 341/554/341
f 335/544/335 330/538/330 336/546/336
f 81/233/81 78/229/78 192/151/192
f 173/299/173 109/71/109 188/144/188
f 78/229/78 82/232/82 192/148/192
f 351/569/351 80/231/80 22/71/22
f 302/501/302 304/292/304 301/499/301
f 50/206/50 94/205/94 37/142/37
f 109/113/109 111/279/111 188/141/188
f 202/168/202 14/31/14 121/295/121
f 16/31/16 14/31/14 204/169/204
f 115/297/115 185/140/185 9/31/9
f 201/256/201 203/31/203 202/168/202
f 8/12/8 201/167/201 121/305/121
f 122/303/122 223/240/223 217/228/217
f 8/12/8 121/305/121 122/306/122
f 223/240/223 225/246/225 216/227/216
f 115/300/115 9/11/9 116/304/116
f 7/10/7 124/324/124 118/325/118
f 6/9/6 123/318/123 7/10/7
f 5/8/5 119/62/119 120/328/120
f 77/38/77 5/37/5 120/313/120
f 5/7/5 215/327/215 224/241/224
f 118/294/118 226/226/226 7/7/7
f 77/31/77 76/31/76 5/31/5
f 123/318/123 124/323/124 7/10/7
f 113/319/113 119/320/119 5/31/5
f 184/139/184 39/36/39 200/166/200
f 200/166/200 114/321/114 184/139/184
f 16/31/16 204/169/204 131/354/131
f 244/277/244 11/35/11 117/342/117
f 6/6/6 238/243/238 123/326/123
f 256/430/256 269/449/269 268/448/268
f 125/58/125 26/70/26 140/409/140
f 11/58/11 125/344/125 117/125/117
f 13/31/13 183/138/183 182/137/182
f 199/136/199 134/379/134 39/110/39
f 13/31/13 182/137/182 15/31/15
f 181/135/181 134/31/134 199/164/199
f 183/138/183 13/31/13 180/134/180
f 21/34/21 137/335/137 126/362/126
f 152/416/152 51/163/51 138/374/138
f 335/544/335 336/546/336 112/296/112
f 136/353/136 21/35/21 4/33/4
f 338/549/338 331/539/331 337/33/337
f 337/547/337 136/353/136 4/33/4
f 137/336/137 21/35/21 136/341/136
f 51/163/51 21/34/21 138/374/138
f 138/374/138 21/34/21 126/362/126
f 79/293/79 331/539/331 338/549/338
f 338/537/338 337/547/337 4/33/4
f 204/169/204 14/31/14 202/168/202
f 133/366/133 130/369/130 20/63/20
f 243/109/243 236/271/236 133/90/133
f 25/162/25 129/378/129 375/605/375
f 159/86/159 104/31/104 158/92/158
f 56/212/56 175/121/175 139/390/139
f 247/285/247 131/370/131 242/276/242
f 130/369/130 35/133/35 20/63/20
f 243/255/243 133/373/133 20/39/20
f 374/604/374 128/367/128 34/69/34
f 56/161/56 139/372/139 25/210/25
f 175/121/175 57/380/57 169/94/169
f 131/370/131 10/32/10 242/276/242
f 163/382/163 161/40/161 28/39/28
f 25/162/25 158/352/158 129/378/129
f 28/108/28 295/494/295 163/46/163
f 158/356/158 104/381/104 161/42/161
f 249/275/249 241/274/241 245/281/245
f 235/270/235 240/254/240 19/107/19
f 18/68/18 240/254/240 235/270/235
f 340/552/340 343/556/343 154/130/154
f 74/31/74 33/31/33 141/31/141
f 74/129/74 141/397/141 75/180/75
f 33/67/33 18/66/18 135/128/135
f 32/385/32 43/315/43 17/106/17
f 43/315/43 42/314/42 17/106/17
f 32/311/32 191/393/191 82/377/82
f 132/403/132 82/225/82 3/105/3
f 147/20/147 23/72/23 52/5/52
f 132/403/132 3/105/3 31/104/31
f 143/392/143 132/403/132 31/104/31
f 82/115/82 132/401/132 127/393/127
f 144/399/144 323/103/323 324/529/324
f 144/398/144 73/269/73 42/393/42
f 326/532/326 324/403/324 323/528/323
f 2/391/2 145/404/145 329/536/329
f 143/400/143 31/103/31 322/527/322
f 33/129/33 135/155/135 141/397/141
f 94/205/94 49/204/49 93/203/93
f 339/160/339 342/183/342 154/410/154
f 140/409/140 26/330/26 258/434/258
f 155/408/155 251/422/251 24/35/24
f 92/202/92 37/142/37 94/205/94
f 296/63/296 91/63/91 49/63/49
f 49/204/49 94/205/94 50/206/50
f 91/63/91 296/63/296 90/63/90
f 296/31/296 49/31/49 297/253/297
f 297/253/297 49/31/49 50/31/50
f 93/203/93 49/204/49 91/201/91
f 172/112/172 177/290/177 109/291/109
f 186/146/186 22/4/22 1/101/1
f 12/31/12 176/273/176 171/100/171
f 12/114/12 171/99/171 189/147/189
f 109/113/109 173/101/173 172/112/172
f 188/141/188 111/279/111 186/101/186
f 47/31/47 179/98/179 48/31/48
f 179/98/179 47/31/47 170/97/170
f 45/31/45 174/119/174 170/97/170
f 170/97/170 47/31/47 45/31/45
f 179/98/179 178/96/178 48/31/48
f 174/119/174 48/31/48 178/96/178
f 179/98/179 170/97/170 178/96/178
f 174/119/174 178/96/178 170/97/170
f 43/233/43 32/310/32 127/224/127
f 32/116/32 82/232/82 127/376/127
f 358/580/358 349/566/349 357/578/357
f 187/145/187 186/146/186 1/101/1
f 187/299/187 188/144/188 186/65/186
f 189/147/189 171/99/171 185/140/185
f 185/140/185 171/99/171 72/252/72
f 115/297/115 189/147/189 185/140/185
f 86/123/86 134/379/134 181/136/181
f 86/31/86 181/135/181 44/31/44
f 181/135/181 180/134/180 44/31/44
f 180/134/180 13/31/13 44/31/44
f 199/164/199 39/31/39 184/159/184
f 181/135/181 199/164/199 180/134/180
f 182/137/182 183/138/183 184/159/184
f 182/137/182 184/159/184 15/31/15
f 77/38/77 120/322/120 114/321/114
f 15/31/15 184/159/184 114/309/114
f 183/138/183 199/164/199 184/159/184
f 199/164/199 183/138/183 180/134/180
f 114/321/114 200/166/200 77/38/77
f 201/256/201 202/168/202 121/295/121
f 10/354/10 131/169/131 204/31/204
f 308/510/308 207/175/207 309/511/309
f 311/514/311 207/175/207 310/513/310
f 237/242/237 195/197/195 209/177/209
f 197/199/197 308/510/308 309/511/309
f 197/199/197 208/196/208 306/507/306
f 237/242/237 194/195/194 307/509/307
f 205/176/205 196/198/196 206/178/206
f 196/198/196 234/251/234 310/513/310
f 196/198/196 194/195/194 206/178/206
f 305/506/305 308/510/308 197/199/197
f 196/198/196 310/513/310 194/195/194
f 195/197/195 305/506/305 209/177/209
f 307/509/307 194/195/194 310/513/310
f 316/520/316 214/194/214 219/214/219
f 318/522/318 317/521/317 220/215/220
f 314/518/314 220/215/220 315/519/315
f 211/191/211 218/213/218 313/517/313
f 211/191/211 315/519/315 218/213/218
f 222/442/222 221/216/221 213/193/213
f 316/520/316 210/190/210 214/194/214
f 212/192/212 318/522/318 220/215/220
f 222/217/222 213/193/213 210/190/210
f 312/516/312 314/518/314 211/191/211
f 210/190/210 318/522/318 212/192/212
f 312/516/312 211/191/211 313/517/313
f 312/516/312 210/190/210 212/192/212
f 122/303/122 217/228/217 8/3/8
f 116/298/116 9/2/9 225/246/225
f 5/7/5 224/241/224 113/316/113
f 226/226/226 239/223/239 215/222/215
f 223/240/223 216/227/216 217/228/217
f 225/246/225 9/2/9 216/227/216
f 239/223/239 224/1/224 215/222/215
f 118/294/118 239/223/239 226/226/226
f 117/425/117 264/443/264 233/266/233
f 206/178/206 194/195/194 237/242/237
f 6/6/6 227/234/227 238/243/238
f 238/243/238 227/234/227 237/242/237
f 227/234/227 206/178/206 237/242/237
f 112/337/112 356/231/356 355/575/355
f 205/176/205 234/251/234 196/198/196
f 353/572/353 354/573/354 348/565/348
f 205/337/205 230/299/230 234/267/234
f 230/263/230 205/176/205 229/235/229
f 6/6/6 255/429/255 227/234/227
f 264/443/264 210/190/210 233/266/233
f 213/193/213 221/216/221 231/264/231
f 228/248/228 80/231/80 352/570/352
f 232/250/232 80/231/80 228/248/228
f 269/452/269 36/111/36 272/455/272
f 271/426/271 117/425/117 233/266/233
f 231/264/231 221/216/221 232/265/232
f 232/265/232 228/262/228 231/264/231
f 18/68/18 235/270/235 135/383/135
f 362/586/362 363/587/363 236/271/236
f 34/68/34 372/600/372 371/599/371
f 19/95/19 246/157/246 248/284/248
f 19/31/19 241/31/241 246/31/246
f 235/270/235 19/107/19 248/286/248
f 36/58/36 244/277/244 117/342/117
f 246/272/246 241/274/241 249/275/249
f 249/275/249 245/281/245 134/389/134
f 130/361/130 247/285/247 35/127/35
f 247/285/247 242/276/242 35/127/35
f 142/396/142 144/395/144 43/315/43
f 127/385/127 142/396/142 43/315/43
f 193/117/193 191/393/191 32/311/32
f 17/233/17 30/308/30 32/310/32
f 30/308/30 193/118/193 32/310/32
f 151/417/151 64/345/64 110/332/110
f 165/405/165 63/355/63 29/81/29
f 290/484/290 166/64/166 291/334/291
f 149/413/149 98/75/98 60/360/60
f 292/488/292 160/45/160 163/46/163
f 60/360/60 96/280/96 64/345/64
f 71/351/71 70/350/70 69/349/69
f 71/351/71 69/349/69 68/348/68
f 250/421/250 258/434/258 259/435/259
f 155/408/155 250/421/250 251/422/251
f 264/443/264 222/217/222 210/190/210
f 269/452/269 272/455/272 268/453/268
f 6/6/6 256/317/256 255/429/255
f 36/111/36 117/312/117 272/455/272
f 256/430/256 268/448/268 255/165/255
f 250/421/250 259/435/259 251/422/251
f 258/434/258 26/330/26 259/435/259
f 165/26/165 29/41/29 277/461/277
f 345/559/345 153/419/153 344/557/344
f 162/22/162 278/463/278 279/464/279
f 343/556/343 346/561/346 154/130/154
f 343/556/343 141/131/141 346/561/346
f 278/463/278 280/465/280 279/464/279
f 281/466/281 164/480/164 280/465/280
f 341/553/341 40/394/40 342/555/342
f 154/550/154 342/555/342 340/211/340
f 285/473/285 293/489/293 59/334/59
f 290/483/290 293/473/293 286/474/286
f 290/483/290 286/474/286 284/471/284
f 341/554/341 101/31/101 95/278/95
f 164/480/164 27/41/27 289/481/289
f 339/63/339 345/559/345 344/557/344
f 164/480/164 289/481/289 280/465/280
f 284/471/284 65/329/65 290/482/290
f 160/50/160 292/487/292 291/486/291
f 160/50/160 291/486/291 166/60/166
f 285/473/285 63/355/63 286/474/286
f 65/329/65 166/64/166 290/484/290
f 291/485/291 294/491/294 293/490/293
f 285/473/285 286/484/286 293/489/293
f 291/485/291 293/490/293 290/43/290
f 294/491/294 59/59/59 293/490/293
f 292/487/292 294/492/294 291/486/291
f 292/487/292 295/493/295 294/492/294
f 295/494/295 292/488/292 163/46/163
f 302/318/302 303/54/303 304/323/304
f 305/506/305 197/199/197 306/507/306
f 198/200/198 195/197/195 310/513/310
f 305/506/305 306/507/306 209/177/209
f 237/242/237 307/509/307 195/197/195
f 195/197/195 307/509/307 310/513/310
f 198/200/198 207/175/207 308/510/308
f 305/506/305 198/200/198 308/510/308
f 197/199/197 309/511/309 208/196/208
f 310/513/310 207/175/207 198/200/198
f 195/197/195 198/200/198 305/506/305
f 234/251/234 311/514/311 310/513/310
f 214/194/214 312/516/312 219/214/219
f 214/194/214 210/190/210 312/516/312
f 312/516/312 313/517/313 219/214/219
f 212/192/212 220/215/220 314/518/314
f 312/516/312 212/192/212 314/518/314
f 211/191/211 314/518/314 315/519/315
f 233/266/233 210/190/210 316/520/316
f 318/522/318 231/264/231 317/521/317
f 318/522/318 213/193/213 231/264/231
f 210/190/210 213/193/213 318/522/318
f 186/143/186 360/583/360 22/71/22
f 111/299/111 360/583/360 186/143/186
f 321/526/321 328/535/328 327/533/327
f 322/527/322 31/103/31 321/399/321
f 2/102/2 326/532/326 145/404/145
f 144/399/144 324/529/324 73/269/73
f 2/102/2 324/403/324 326/532/326
f 321/526/321 327/533/327 322/402/322
f 328/535/328 145/404/145 327/533/327
f 329/536/329 145/404/145 328/535/328
f 79/293/79 330/337/330 331/539/331
f 356/577/356 80/231/80 355/296/355
f 331/230/331 330/538/330 335/544/335
f 336/546/336 332/540/332 112/296/112
f 339/550/339 341/553/341 342/555/342
f 344/558/344 101/31/101 341/554/341
f 75/132/75 141/131/141 343/556/343
f 347/563/347 352/570/352 351/569/351
f 319/523/319 353/572/353 22/71/22
f 229/249/229 353/572/353 319/523/319
f 357/578/357 230/257/230 319/523/319
f 358/580/358 319/523/319 22/71/22
f 360/583/360 359/581/359 350/568/350
f 348/565/348 351/569/351 22/71/22
f 347/563/347 351/569/351 348/565/348
f 352/570/352 80/231/80 351/569/351
f 353/572/353 348/565/348 22/71/22
f 229/249/229 354/573/354 353/572/353
f 354/573/354 347/563/347 348/565/348
f 355/575/355 80/231/80 232/250/232
f 332/540/332 356/577/356 112/296/112
f 358/580/358 357/578/357 319/523/319
f 350/568/350 349/566/349 358/580/358
f 350/568/350 358/580/358 22/71/22
f 359/581/359 349/566/349 350/568/350
f 360/583/360 350/568/350 22/71/22
f 111/299/111 359/581/359 360/583/360
f 361/584/361 362/585/362 243/255/243
f 362/585/362 236/373/236 243/255/243
f 366/591/366 363/587/363 362/586/362
f 34/109/34 128/363/128 373/602/373
f 365/589/365 366/590/366 361/584/361
f 366/590/366 362/585/362 361/584/361
f 367/592/367 363/587/363 366/591/366
f 369/596/369 367/592/367 366/591/366
f 368/594/368 369/595/369 365/589/365
f 369/595/369 366/590/366 365/589/365
f 370/597/370 367/592/367 369/596/369
f 372/601/372 370/597/370 369/596/369
f 371/599/371 372/600/372 368/594/368
f 372/600/372 369/595/369 368/594/368
f 373/602/373 370/597/370 372/601/372
f 34/109/34 373/602/373 372/601/372
f 375/605/375 128/367/128 374/604/374
f 25/162/25 375/605/375 374/604/374
g fff017fc_00068_00119e57_e98
f 16/31/16 15/31/15 14/31/14
f 138/375/138 126/364/126 250/420/250
f 124/307/124 123/126/123 303/292/303
f 139/390/139 169/94/169 67/189/67
f 345/559/345 48/63/48 153/419/153
f 168/93/168 66/92/66 167/91/167
f 122/306/122 121/305/121 14/30/14
f 15/31/15 16/31/16 13/31/13
f 152/418/152 138/375/138 155/420/155
f 65/346/65 64/345/64 151/417/151
f 120/328/120 119/62/119 15/61/15
f 331/340/331 335/545/335 334/542/334
f 239/247/239 118/327/118 225/246/225
f 150/29/150 278/245/278 88/244/88
f 153/415/153 166/60/166 151/414/151
f 109/291/109 177/290/177 12/28/12
f 125/344/125 261/438/261 117/125/117
f 335/545/335 112/440/112 334/542/334
f 283/470/283 282/468/282 149/413/149
f 304/505/304 303/503/303 111/299/111
f 301/499/301 109/292/109 12/57/12
f 345/410/345 346/562/346 47/182/47
f 238/243/238 237/242/237 123/326/123
f 118/325/118 124/324/124 116/304/116
f 224/241/224 223/240/223 122/303/122
f 177/290/177 176/289/176 12/28/12
f 162/22/162 89/221/89 278/463/278
f 149/412/149 282/469/282 148/411/148
f 12/124/12 115/302/115 301/500/301
f 88/23/88 278/462/278 89/245/89
f 236/271/236 163/56/163 135/90/135
f 62/239/62 89/221/89 162/22/162
f 150/23/150 148/27/148 278/462/278
f 87/238/87 162/21/162 147/20/147
f 88/237/88 87/220/87 146/19/146
f 109/307/109 301/504/301 304/126/304
f 146/18/146 87/220/87 147/17/147
f 62/219/62 162/21/162 87/238/87
f 150/16/150 88/244/88 146/15/146
f 120/322/120 15/55/15 114/321/114
f 122/301/122 119/320/119 113/319/113
f 122/301/122 14/14/14 119/320/119
f 86/123/86 249/287/249 134/389/134
f 222/58/222 263/338/263 112/337/112
f 235/270/235 248/286/248 133/373/133
f 48/63/48 345/559/345 47/63/47
f 320/524/320 144/403/144 132/402/132
f 139/372/139 67/186/67 85/371/85
f 46/31/46 45/31/45 135/31/135
f 44/122/44 16/185/16 131/370/131
f 13/218/13 16/184/16 44/122/44
f 86/236/86 131/370/131 247/285/247
f 119/320/119 14/14/14 15/31/15
f 246/158/246 249/236/249 247/285/247
f 130/369/130 248/284/248 246/157/246
f 132/401/132 143/400/143 320/525/320
f 142/401/142 132/269/132 144/398/144
f 137/341/137 263/440/263 252/336/252
f 123/307/123 209/288/209 306/504/306
f 167/89/167 85/368/85 67/31/67
f 346/562/346 141/183/141 47/182/47
f 169/88/169 167/87/167 67/31/67
f 375/606/375 163/53/163 128/367/128
f 236/52/236 135/387/135 235/90/235
f 248/284/248 130/369/130 133/366/133
f 129/388/129 161/51/161 163/53/163
f 153/415/153 48/156/48 160/50/160
f 159/86/159 158/92/158 61/365/61
f 299/497/299 106/48/106 108/47/108
f 124/324/124 302/300/302 116/304/116
f 141/397/141 135/155/135 45/181/45
f 139/390/139 175/121/175 169/94/169
f 257/433/257 125/347/125 140/420/140
f 47/180/47 141/397/141 45/181/45
f 257/58/257 140/409/140 258/434/258
f 163/46/163 160/45/160 135/386/135
f 142/396/142 127/385/127 132/269/132
f 86/236/86 44/122/44 131/370/131
f 156/85/156 159/86/159 61/365/61
f 126/364/126 252/424/252 250/420/250
f 364/588/364 163/56/163 236/271/236
f 160/45/160 48/154/48 135/386/135
f 46/154/46 135/384/135 48/156/48
f 337/548/337 331/431/331 334/543/334
f 153/415/153 160/50/160 166/60/166
f 107/44/107 106/268/106 298/496/298
f 300/498/300 108/47/108 105/283/105
f 281/469/281 288/478/288 164/479/164
f 107/44/107 157/49/157 300/498/300
f 311/515/311 111/299/111 207/179/207
f 268/447/268 267/446/267 276/460/276
f 207/179/207 111/299/111 303/503/303
f 253/427/253 275/459/275 206/178/206
f 237/242/237 209/177/209 123/326/123
f 304/505/304 111/299/111 109/58/109
f 355/576/355 221/216/221 112/282/112
f 220/215/220 317/521/317 205/176/205
f 265/444/265 218/213/218 206/178/206
f 206/178/206 273/457/273 265/444/265
f 206/178/206 218/213/218 205/176/205
f 222/442/222 112/282/112 221/216/221
f 218/213/218 315/519/315 205/176/205
f 111/175/111 234/176/234 359/582/359
f 118/327/118 116/298/116 225/246/225
f 113/316/113 224/241/224 122/303/122
f 239/247/239 225/246/225 223/240/223
f 224/241/224 239/247/239 223/240/223
f 228/262/228 205/176/205 317/521/317
f 228/262/228 352/571/352 205/176/205
f 255/429/255 254/428/254 227/234/227
f 236/383/236 235/270/235 133/373/133
f 86/123/86 247/158/247 249/287/249
f 246/158/246 247/285/247 130/361/130
f 166/43/166 65/346/65 151/417/151
f 65/346/65 283/470/283 60/360/60
f 60/360/60 283/470/283 149/413/149
f 65/346/65 60/360/60 64/345/64
f 139/372/139 85/371/85 84/359/84
f 156/85/156 66/358/66 168/84/168
f 61/365/61 158/92/158 84/357/84
f 156/85/156 61/365/61 66/358/66
f 139/372/139 84/359/84 158/83/158
f 167/89/167 66/82/66 85/368/85
f 138/58/138 250/421/250 155/408/155
f 263/423/263 137/343/137 136/125/136
f 137/335/137 252/424/252 126/364/126
f 264/443/264 263/282/263 222/217/222
f 227/234/227 253/427/253 206/178/206
f 271/454/271 233/266/233 267/456/267
f 276/460/276 267/446/267 274/458/274
f 254/428/254 253/427/253 227/234/227
f 274/458/274 267/446/267 266/445/266
f 255/429/255 276/460/276 254/428/254
f 267/456/267 233/266/233 270/450/270
f 136/425/136 337/548/337 334/543/334
f 261/438/261 252/423/252 260/125/260
f 252/424/252 257/433/257 250/420/250
f 257/58/257 258/434/258 250/421/250
f 262/340/262 264/342/264 117/436/117
f 264/431/264 262/439/262 263/441/263
f 125/344/125 257/432/257 261/438/261
f 257/432/257 252/423/252 261/438/261
f 262/439/262 261/282/261 260/437/260
f 117/431/117 261/282/261 262/439/262
f 263/440/263 260/436/260 252/336/252
f 263/441/263 262/439/262 260/437/260
f 265/444/265 270/450/270 219/214/219
f 313/517/313 218/213/218 265/444/265
f 270/450/270 316/520/316 219/214/219
f 266/445/266 267/456/267 270/450/270
f 254/428/254 275/459/275 253/427/253
f 266/445/266 270/450/270 265/444/265
f 254/428/254 276/460/276 275/459/275
f 268/451/268 271/454/271 267/456/267
f 275/459/275 276/460/276 273/457/273
f 273/457/273 266/445/266 265/444/265
f 276/460/276 274/458/274 273/457/273
f 273/457/273 274/458/274 266/445/266
f 255/429/255 268/447/268 276/460/276
f 275/459/275 273/457/273 206/178/206
f 281/467/281 282/26/282 288/461/288
f 281/467/281 148/27/148 282/26/282
f 278/462/278 148/27/148 281/467/281
f 287/476/287 165/59/165 288/477/288
f 288/478/288 165/24/165 277/411/277
f 286/475/286 63/339/63 287/476/287
f 287/476/287 63/339/63 165/59/165
f 65/346/65 284/472/284 283/470/283
f 284/472/284 286/475/286 283/470/283
f 286/475/286 287/476/287 283/470/283
f 283/470/283 287/476/287 282/468/282
f 287/476/287 288/477/288 282/468/282
f 164/479/164 288/478/288 277/411/277
f 300/498/300 299/497/299 108/47/108
f 107/44/107 298/496/298 157/49/157
f 298/495/298 106/48/106 299/497/299
f 157/49/157 298/495/298 299/497/299
f 107/44/107 300/498/300 105/283/105
f 157/49/157 299/497/299 300/498/300
f 124/307/124 303/292/303 302/501/302
f 302/502/302 115/302/115 116/323/116
f 303/503/303 309/512/309 207/179/207
f 301/500/301 115/302/115 302/502/302
f 306/508/306 208/187/208 303/503/303
f 123/188/123 306/508/306 303/503/303
f 303/503/303 208/187/208 309/512/309
f 234/267/234 111/299/111 311/515/311
f 219/214/219 313/517/313 265/444/265
f 315/519/315 220/215/220 205/176/205
f 270/450/270 233/266/233 316/520/316
f 317/521/317 231/264/231 228/262/228
f 323/528/323 144/403/144 320/524/320
f 320/525/320 143/400/143 322/527/322
f 325/530/325 327/534/327 145/399/145
f 145/404/145 326/532/326 325/531/325
f 320/525/320 322/527/322 325/530/325
f 325/531/325 323/528/323 320/524/320
f 326/532/326 323/528/323 325/531/325
f 325/530/325 322/527/322 327/534/327
f 333/541/333 112/431/112 263/441/263
f 136/425/136 333/541/333 263/441/263
f 334/542/334 112/440/112 333/341/333
f 136/425/136 334/543/334 333/541/333
f 154/63/154 346/63/346 339/560/339
f 339/560/339 346/63/346 345/559/345
f 354/574/354 229/235/229 205/176/205
f 357/579/357 234/176/234 230/263/230
f 352/571/352 347/564/347 205/176/205
f 347/564/347 354/574/354 205/176/205
f 232/265/232 221/216/221 355/576/355
f 349/567/349 234/176/234 357/579/357
f 359/582/359 234/176/234 349/567/349
f 367/593/367 163/56/163 364/588/364
f 363/587/363 364/588/364 236/271/236
f 129/388/129 163/53/163 375/606/375
f 128/363/128 163/56/163 370/598/370
f 367/593/367 364/588/364 363/587/363
f 370/598/370 163/56/163 367/593/367
f 128/363/128 370/598/370 373/603/373
