# fff0ade4_00153_002544bd
o fff0ade4_00153_002544bd
v -0.263952 0.490868 -0.432369
v 0.511695 0.490862 -0.432369
v -0.263946 1.028607 -0.432369
v 0.511679 1.028624 -0.432369
v -0.263952 0.490868 0.281094
v 0.511695 0.490862 0.281094
v -0.263946 1.028607 0.281094
v 0.511679 1.028624 0.281094
v -0.264135 0.539103 -0.385563
v -0.264127 0.998131 -0.385563
v -0.264135 0.539103 0.251339
v -0.264127 0.998131 0.251339
v -0.265348 0.564546 0.093586
v -0.265355 0.972689 0.093586
v -0.265348 0.564546 0.240429
v -0.265355 0.972689 0.240429
v -0.265348 0.564546 -0.352596
v -0.265355 0.972689 -0.352596
v -0.265348 0.564546 0.067089
v -0.265355 0.972689 0.067089
v -0.338833 0.458370 0.277325
v 0.571675 0.458386 0.277325
v -0.338843 2.425955 0.277325
v 0.571688 2.425948 0.277325
v -0.338833 0.458370 0.345020
v 0.571675 0.458386 0.345020
v -0.338843 2.425955 0.345020
v 0.571688 2.425948 0.345020
v -0.255221 2.331580 -0.432369
v 0.580905 2.331556 -0.432369
v -0.255227 2.371462 -0.432369
v 0.580896 2.407655 -0.432369
v -0.255221 2.331580 0.281094
v 0.580905 2.331556 0.281094
v -0.255227 2.371462 0.281094
v 0.580896 2.407655 0.281094
v -0.267729 0.740574 0.171780
v -0.267735 0.796380 0.171780
v -0.267729 0.740574 0.223377
v -0.267735 0.796380 0.223377
v -0.265656 0.691844 0.150593
v -0.265660 0.848807 0.150593
v -0.265656 0.667814 0.109928
v -0.265653 0.872806 0.109928
v -0.601723 2.559835 -0.385864
v -0.331526 2.352733 -0.385864
v 0.602976 2.559533 -0.385864
v 0.597958 2.559527 0.432369
v 0.597399 0.287654 0.432369
v -0.602289 0.287958 -0.385864
v -0.331979 0.497982 -0.385864
v 0.602417 0.287660 -0.385864
v 0.597446 0.497744 0.305008
v 0.602922 2.365576 -0.385864
v 0.602470 0.484154 -0.385864
v 0.597906 2.352499 0.305008
v -0.264632 -2.356617 -0.432369
v 0.510993 -2.356601 -0.432369
v -0.264641 -1.818851 -0.432369
v 0.510999 -1.818861 -0.432369
v -0.264632 -2.356617 0.281094
v 0.510993 -2.356601 0.281094
v -0.264641 -1.818851 0.281094
v 0.510999 -1.818861 0.281094
v -0.264821 -2.308386 -0.385563
v -0.264822 -1.849327 -0.385563
v -0.264821 -2.308386 0.251339
v -0.264822 -1.849327 0.251339
v -0.266050 -2.282917 0.093586
v -0.266041 -1.874800 0.093586
v -0.266050 -2.282917 0.240429
v -0.266041 -1.874800 0.240429
v -0.266050 -2.282917 -0.352596
v -0.266041 -1.874800 -0.352596
v -0.266050 -2.282917 0.067089
v -0.266041 -1.874800 0.067089
v -0.339535 -2.389092 0.277325
v 0.570995 -2.389099 0.277325
v -0.339522 -0.421530 0.277325
v 0.570986 -0.421514 0.277325
v -0.339535 -2.389092 0.345020
v 0.570995 -2.389099 0.345020
v -0.339522 -0.421530 0.345020
v 0.570986 -0.421514 0.345020
v -0.255908 -0.515909 -0.432369
v 0.580211 -0.515903 -0.432369
v -0.255906 -0.476023 -0.432369
v 0.580209 -0.439834 -0.432369
v -0.255908 -0.515909 0.281094
v 0.580211 -0.515903 0.281094
v -0.255906 -0.476023 0.281094
v 0.580209 -0.439834 0.281094
v -0.268430 -2.106889 0.171780
v -0.268422 -2.051109 0.171780
v -0.268430 -2.106889 0.223377
v -0.268422 -2.051109 0.223377
v -0.266343 -2.155645 0.150593
v -0.266347 -1.998682 0.150593
v -0.266351 -2.179644 0.109928
v -0.266354 -1.974657 0.109928
v -0.602425 -0.287627 -0.385864
v -0.332212 -0.494756 -0.385864
v 0.602281 -0.287925 -0.385864
v 0.597257 -0.287935 0.432369
v 0.596713 -2.559835 0.432369
v -0.602976 -2.559531 -0.385864
v -0.332666 -2.349507 -0.385864
v 0.601730 -2.559829 -0.385864
v 0.596760 -2.349745 0.305008
v 0.602235 -0.481913 -0.385864
v 0.601768 -2.363309 -0.385864
v 0.597211 -0.494959 0.305008
vt 91.114014 7.656372
vt 91.114014 7.328682
vt 87.342911 7.340424
vt 87.385742 -85.252632
vt 0.000000 7.114985
vt 0.000000 6.114985
vt 0.000000 6.114985
vt 0.000000 7.114985
vt 92.306046 -637.331970
vt 92.004776 15.898615
vt 88.534935 -637.647888
vt 88.545311 -659.813354
vt 0.000000 7.114985
vt 0.000000 6.114985
vt 0.000000 6.114985
vt 0.000000 7.114985
vt 8.120771 -0.040309
vt 7.321424 -0.040309
vt 7.321424 0.618166
vt 8.120771 0.618166
vt 1.000000 7.114985
vt 1.000000 6.114985
vt 1.000000 6.114985
vt 1.000000 7.114985
vt 7.978210 -0.040309
vt 7.178862 -0.040309
vt 7.178863 0.618166
vt 7.978210 0.618166
vt 1.000000 7.114985
vt 1.000000 6.114985
vt 1.000000 6.114985
vt 1.000000 7.114985
vt -334.463837 247.868530
vt -6.848119 240.708542
vt -333.463867 248.868149
vt -318.277374 247.490295
vt -334.519348 247.873566
vt -6.848119 240.712204
vt -333.519379 248.873184
vt -318.332886 247.495331
vt 25100705792.000000 9573520900096.000000
vt 189563918090240.000000 54143238537216.000000
vt 17170555731968.000000 10330866450432.000000
vt 157774717648896.000000 58407981678592.000000
vt 6517547008.000000 10725902778368.000000
vt 9380853760.000000 10724815405056.000000
vt 170525485694976.000000 43486015389696.000000
vt 42550308110336.000000 -3319907483648.000000
vt -2427660009472.000000 6786027356160.000000
vt -239773876224.000000 3083639717888.000000
vt -414323736576.000000 4866754215936.000000
vt -312247844864.000000 3897241108480.000000
vt 478332092416.000000 -3964176433152.000000
vt 25113092096.000000 9572597104640.000000
vt 189544037089280.000000 54133348368384.000000
vt 17171707068416.000000 10331351941120.000000
vt 157754819870720.000000 58398091509760.000000
vt 6529933312.000000 10724980031488.000000
vt 9393238016.000000 10723892658176.000000
vt 170505621471232.000000 43476116832256.000000
vt 42550308110336.000000 -3319906959360.000000
vt -2426475380736.000000 6784066519040.000000
vt -239754313728.000000 3083457527808.000000
vt -414304239616.000000 4866573860864.000000
vt -312228380672.000000 3897060753408.000000
vt 478327930880.000000 -3964133179392.000000
vn -0.707113 -0.707100 0.000000
vn 0.707115 -0.707099 0.000000
vn -0.707110 0.707103 0.000000
vn 0.707089 0.707125 0.000000
vn -0.707113 -0.707100 0.000000
vn 0.707115 -0.707099 0.000000
vn -0.707110 0.707103 0.000000
vn 0.707089 0.707125 0.000000
vn -1.000000 0.000016 0.000000
vn -1.000000 0.000016 0.000000
vn -1.000000 0.000016 0.000000
vn -1.000000 0.000016 0.000000
vn -1.000000 -0.000016 0.000000
vn -1.000000 -0.000016 0.000000
vn -1.000000 -0.000016 0.000000
vn -1.000000 -0.000016 0.000000
vn -1.000000 -0.000016 0.000000
vn -1.000000 -0.000016 0.000000
vn -1.000000 -0.000016 0.000000
vn -1.000000 -0.000016 0.000000
vn -0.707099 -0.707115 0.000000
vn 0.707111 -0.707103 0.000000
vn -0.707106 0.707108 0.000000
vn 0.707112 0.707102 0.000000
vn -0.577344 -0.577357 0.577350
vn 0.577353 -0.577346 0.577352
vn -0.577350 0.577351 0.577350
vn 0.577354 0.577346 0.577350
vn -0.707071 -0.707143 0.000000
vn 0.707142 -0.707072 0.000000
vn -0.722280 0.691600 0.000000
vn 0.691602 0.722279 0.000000
vn -0.707071 -0.707143 0.000000
vn 0.707142 -0.707072 0.000000
vn -0.722280 0.691600 0.000000
vn 0.691602 0.722279 0.000000
vn -1.000000 -0.000120 0.000000
vn -1.000000 -0.000120 0.000000
vn -1.000000 -0.000120 0.000000
vn -1.000000 -0.000120 0.000000
vn -1.000000 -0.000024 0.000003
vn -1.000000 0.000012 -0.000159
vn -1.000000 -0.000016 -0.000036
vn -1.000000 0.000016 -0.000178
vn 0.000000 0.000000 1.000000
vn 0.000000 0.000000 1.000000
vn -0.709276 0.000199 0.704931
vn -0.999987 0.002464 -0.004496
vn -0.999990 -0.002195 -0.003992
vn 0.000000 0.000000 1.000000
vn 0.000000 0.000000 1.000000
vn -0.709596 -0.000311 0.704609
vn -0.999992 -0.000836 -0.003923
vn -0.709492 0.000434 0.704714
vn -0.709677 0.000183 0.704527
vn -0.999990 0.001725 -0.004234
vn -0.707093 -0.707121 0.000000
vn 0.707110 -0.707103 0.000000
vn -0.707108 0.707105 0.000000
vn 0.707115 0.707099 0.000000
vn -0.707093 -0.707121 0.000000
vn 0.707110 -0.707103 0.000000
vn -0.707108 0.707105 0.000000
vn 0.707115 0.707098 0.000000
vn -1.000000 -0.000003 0.000000
vn -1.000000 -0.000003 0.000000
vn -1.000000 -0.000003 0.000000
vn -1.000000 -0.000003 0.000000
vn -1.000000 0.000021 0.000000
vn -1.000000 0.000021 0.000000
vn -1.000000 0.000021 0.000000
vn -1.000000 0.000021 0.000000
vn -1.000000 0.000021 0.000000
vn -1.000000 0.000021 0.000000
vn -1.000000 0.000021 0.000000
vn -1.000000 0.000021 0.000000
vn -0.707112 -0.707102 0.000000
vn 0.707106 -0.707108 0.000000
vn -0.707111 0.707103 0.000000
vn 0.707099 0.707115 0.000000
vn -0.577354 -0.577346 0.577350
vn 0.577350 -0.577351 0.577350
vn -0.577353 0.577346 0.577352
vn 0.577344 0.577357 0.577350
vn -0.707119 -0.707094 0.000000
vn 0.707115 -0.707099 0.000000
vn -0.722219 0.691665 0.000000
vn 0.691644 0.722239 0.000000
vn -0.707119 -0.707094 0.000000
vn 0.707115 -0.707099 0.000000
vn -0.722219 0.691665 0.000000
vn 0.691644 0.722239 0.000000
vn -1.000000 0.000154 0.000000
vn -1.000000 0.000154 0.000000
vn -1.000000 0.000154 0.000000
vn -1.000000 0.000154 0.000000
vn -1.000000 -0.000024 0.000208
vn -1.000000 -0.000017 0.000176
vn -1.000000 -0.000023 0.000200
vn -1.000000 -0.000016 0.000172
vn 0.000000 0.000000 1.000000
vn 0.000000 0.000000 1.000000
vn -0.709269 0.000167 0.704938
vn -0.999987 0.002444 -0.004517
vn -0.999990 -0.002199 -0.003995
vn 0.000000 0.000000 1.000000
vn 0.000000 0.000000 1.000000
vn -0.709607 -0.000355 0.704598
vn -0.999992 -0.000843 -0.003921
vn -0.709501 0.000422 0.704704
vn -0.709661 0.000155 0.704544
vn -0.999990 0.001716 -0.004258
g fff0ade4_00153_002544bd_e1
f 87/11/87 85/12/85 89/9/89
f 89/9/89 91/10/91 87/11/87
f 67/9/67 68/10/68 66/11/66
f 66/11/66 65/12/65 67/9/67
f 15/1/15 16/2/16 14/3/14
f 14/3/14 13/4/13 15/1/15
f 23/7/23 21/8/21 25/5/25
f 25/5/25 27/6/27 23/7/23
f 3/3/3 1/4/1 5/1/5
f 5/1/5 7/2/7 3/3/3
f 71/9/71 72/10/72 70/11/70
f 70/11/70 69/12/69 71/9/71
f 79/15/79 77/16/77 81/13/81
f 81/13/81 83/14/83 79/15/79
f 59/11/59 57/12/57 61/9/61
f 61/9/61 63/10/63 59/11/59
f 31/3/31 29/4/29 33/1/33
f 33/1/33 35/2/35 31/3/31
f 11/1/11 12/2/12 10/3/10
f 10/3/10 9/4/9 11/1/11
g fff0ade4_00153_002544bd_e3
f 92/9/92 90/10/90 86/11/86
f 86/11/86 88/12/88 92/9/92
f 91/27/91 92/28/92 88/25/88
f 88/25/88 87/26/87 91/27/91
f 64/9/64 62/10/62 58/11/58
f 58/11/58 60/12/60 64/9/64
f 28/23/28 26/24/26 22/21/22
f 22/21/22 24/22/24 28/23/28
f 7/19/7 8/20/8 4/17/4
f 4/17/4 3/18/3 7/19/7
f 84/31/84 82/32/82 78/29/78
f 78/29/78 80/30/80 84/31/84
f 63/27/63 64/28/64 60/25/60
f 60/25/60 59/26/59 63/27/63
f 36/1/36 34/2/34 30/3/30
f 30/3/30 32/4/32 36/1/36
f 35/19/35 36/20/36 32/17/32
f 32/17/32 31/18/31 35/19/35
f 8/1/8 6/2/6 2/3/2
f 2/3/2 4/4/4 8/1/8
g fff0ade4_00153_002544bd_e4
f 98/11/98 99/9/99 97/12/97
f 99/9/99 98/11/98 100/10/100
f 28/23/28 27/6/27 25/5/25
f 25/5/25 26/24/26 28/23/28
f 84/31/84 83/14/83 81/13/81
f 81/13/81 82/32/82 84/31/84
f 42/3/42 43/1/43 41/4/41
f 43/1/43 42/3/42 44/2/44
g fff0ade4_00153_002544bd_e2
f 90/27/90 89/28/89 85/25/85
f 85/25/85 86/26/86 90/27/90
f 62/27/62 61/28/61 57/25/57
f 57/25/57 58/26/58 62/27/62
f 80/30/80 79/15/79 83/14/83
f 83/14/83 84/31/84 80/30/80
f 26/24/26 25/5/25 21/8/21
f 21/8/21 22/21/22 26/24/26
f 82/32/82 81/13/81 77/16/77
f 77/16/77 78/29/78 82/32/82
f 34/19/34 33/20/33 29/17/29
f 29/17/29 30/18/30 34/19/34
f 6/19/6 5/20/5 1/17/1
f 1/17/1 2/18/2 6/19/6
f 24/22/24 23/7/23 27/6/27
f 27/6/27 28/23/28 24/22/24
g fff0ade4_00153_002544bd_e5
f 39/35/39 40/36/40 38/33/38
f 38/33/38 37/34/37 39/35/39
f 95/39/95 96/40/96 94/37/94
f 94/37/94 93/38/93 95/39/95
g fff0ade4_00153_002544bd_e6
f 19/1/19 20/2/20 18/3/18
f 18/3/18 17/4/17 19/1/19
f 75/9/75 76/10/76 74/11/74
f 74/11/74 73/12/73 75/9/75
g fff0ade4_00153_002544bd_e0
f 107/63/107 102/64/102 101/65/101
f 110/55/110 103/60/103 102/57/102
f 102/57/102 103/60/103 101/62/101
f 107/63/107 101/65/101 106/66/106
f 107/63/107 111/55/111 110/64/110
f 108/59/108 111/54/111 106/58/106
f 105/59/105 104/60/104 109/54/109
f 112/55/112 104/60/104 110/57/110
f 110/57/110 104/60/104 103/62/103
f 107/54/107 110/55/110 102/61/102
f 109/54/109 104/60/104 112/55/112
f 105/59/105 109/54/109 108/58/108
f 111/54/111 107/56/107 106/58/106
f 109/54/109 111/56/111 108/58/108
f 111/56/111 112/55/112 110/57/110
f 109/54/109 112/55/112 111/56/111
f 51/50/51 46/51/46 45/52/45
f 54/42/54 47/47/47 46/44/46
f 46/44/46 47/47/47 45/49/45
f 51/50/51 45/52/45 50/53/50
f 51/50/51 55/42/55 54/51/54
f 52/46/52 55/41/55 50/45/50
f 49/46/49 48/47/48 53/41/53
f 56/42/56 48/47/48 54/44/54
f 54/44/54 48/47/48 47/49/47
f 51/41/51 54/42/54 46/48/46
f 53/41/53 48/47/48 56/42/56
f 49/46/49 53/41/53 52/45/52
f 55/41/55 51/43/51 50/45/50
f 53/41/53 55/43/55 52/45/52
f 55/43/55 56/42/56 54/44/54
f 53/41/53 56/42/56 55/43/55
