# fff02c13_00195_00672519
o fff02c13_00195_00672519
v 0.626308 -0.873457 -0.228592
v -0.468056 0.873457 -0.228591
v 0.626308 0.873457 -0.228591
v -0.468056 -0.873457 -0.228592
v 0.626308 -0.909513 -0.170045
v -0.522194 0.909513 -0.170044
v 0.626308 0.909513 -0.170044
v -0.522194 -0.909513 -0.170045
v 0.626308 -0.909513 0.228591
v -0.626312 0.909513 0.228591
v 0.626308 0.909513 0.228591
v -0.626312 -0.909513 0.228591
v -0.539627 0.909513 -0.152744
v -0.539627 -0.680424 -0.152745
v -0.616741 0.909513 0.174864
v -0.616741 -0.680424 0.174864
v -0.538387 -0.690619 -0.143412
v -0.538387 -0.881099 -0.143413
v -0.549847 -0.690619 -0.089575
v -0.549847 -0.881099 -0.089575
v 0.626308 -0.873457 -0.228592
v -0.468056 -0.873457 -0.228592
v 0.626308 -0.909513 -0.170045
v -0.522194 -0.909513 -0.170045
v -0.468056 0.873457 -0.228591
v 0.626308 0.873457 -0.228591
v -0.522194 0.909513 -0.170044
v 0.626308 0.909513 -0.170044
v -0.479428 0.774416 0.192301
v -0.479428 -0.774406 0.192300
v -0.352026 0.692277 0.408577
v -0.352026 -0.692267 0.408577
v 0.637679 -0.774406 0.192300
v -0.479428 0.774416 0.192301
v 0.637679 0.774416 0.192301
v -0.479428 -0.774406 0.192300
v 0.510278 -0.692267 0.408577
v -0.352026 0.692277 0.408577
v 0.510278 0.692277 0.408577
v -0.352026 -0.692267 0.408577
v -0.446515 0.599478 0.256701
v -0.446515 0.538471 0.256700
v -0.418172 0.599478 0.310538
v -0.418172 0.538471 0.310538
vt 0.000000 0.287732
vt 0.000000 0.287732
vt 0.000000 0.287732
vt -0.060814 -1.968169
vt 3.028371 -1.968169
vt 3.045971 5.011264
vt -0.043216 5.011264
vt 0.000000 0.287732
vn 0.000000 0.000000 -1.000000
vn -0.447777 0.000000 -0.894145
vn 0.000000 0.000000 -1.000000
vn -0.447777 0.000000 -0.894145
vn 0.000000 -1.000000 0.000000
vn -0.736048 0.569268 -0.366289
vn 0.000000 1.000000 0.000000
vn -0.736048 -0.569268 -0.366289
vn 0.000000 -1.000000 0.000000
vn -0.741817 0.642003 -0.193753
vn 0.000000 1.000000 0.000000
vn -0.741817 -0.642003 -0.193753
vn -0.973397 0.000000 -0.229123
vn -0.973398 0.000000 -0.229123
vn -0.973398 0.000000 -0.229123
vn -0.973397 0.000000 -0.229123
vn -0.978089 0.000001 -0.208187
vn -0.978089 0.000001 -0.208186
vn -0.978089 0.000001 -0.208187
vn -0.978089 0.000001 -0.208186
vn 0.000000 -0.851482 -0.524383
vn 0.000000 -0.851482 -0.524383
vn 0.000000 -0.851482 -0.524383
vn 0.000000 -0.851482 -0.524383
vn 0.000000 0.851482 -0.524383
vn 0.000000 0.851482 -0.524383
vn 0.000000 0.851482 -0.524383
vn 0.000000 0.851482 -0.524383
vn -0.861621 -0.000000 0.507553
vn -0.861621 -0.000000 0.507553
vn -0.861621 -0.000000 0.507553
vn -0.861621 -0.000000 0.507553
vn 0.000000 -0.934850 0.355042
vn 0.000000 0.934849 0.355046
vn 0.000000 0.934849 0.355046
vn 0.000000 -0.934850 0.355042
vn 0.000000 -0.934850 0.355042
vn 0.000000 0.934849 0.355046
vn 0.000000 0.934849 0.355046
vn 0.000000 -0.934850 0.355042
vn -0.884867 -0.000005 0.465844
vn -0.884867 -0.000005 0.465843
vn -0.884866 -0.000004 0.465845
vn -0.884867 -0.000005 0.465844
g fff02c13_00195_00672519_e7
f 6/2/6 8/2/8 12/3/12
f 12/3/12 10/3/10 6/2/6
g fff02c13_00195_00672519_e8
f 2/1/2 4/1/4 8/2/8
f 8/2/8 6/2/6 2/1/2
g fff02c13_00195_00672519_e9
f 23/2/23 24/2/24 21/1/21
f 22/1/22 21/1/21 24/2/24
f 28/2/28 26/1/26 25/1/25
f 25/1/25 27/2/27 28/2/28
f 8/2/8 5/2/5 12/3/12
f 9/3/9 12/3/12 5/2/5
f 11/3/11 7/2/7 6/2/6
f 6/2/6 10/3/10 11/3/11
g fff02c13_00195_00672519_e10
f 20/3/20 19/3/19 17/2/17
f 17/2/17 18/2/18 20/3/20
f 4/1/4 2/1/2 3/1/3
f 1/1/1 4/1/4 3/1/3
f 32/8/32 31/8/31 29/1/29
f 29/1/29 30/1/30 32/8/32
f 36/1/36 33/1/33 37/8/37
f 37/8/37 40/8/40 36/1/36
f 38/8/38 39/8/39 35/1/35
f 35/1/35 34/1/34 38/8/38
g fff02c13_00195_00672519_e26
f 13/4/13 14/5/14 16/6/16
f 16/6/16 15/7/15 13/4/13
g fff02c13_00195_00672519_e14
f 44/3/44 43/3/43 41/2/41
f 41/2/41 42/2/42 44/3/44
