# fff07975_00202_0054b81d
o fff07975_00202_0054b81d
v 0.611481 0.156799 -1.386558
v -1.026426 0.156799 -1.385439
v 0.616048 0.156799 0.916725
v -1.015090 0.156799 0.917207
v -1.077267 0.156799 0.952646
v 0.684540 0.156799 0.954871
v -1.091894 0.156799 -1.421939
v -0.952846 0.136346 -1.321972
v 0.545506 0.136346 -1.319113
v 0.545506 0.136346 0.854864
v 0.683684 0.156799 -1.427921
v -0.952846 0.136346 0.851840
v -0.964446 0.138373 -1.356712
v 0.557218 0.138373 -1.356712
v 0.557218 0.138373 0.867777
v -0.964446 0.138373 0.864702
v -1.077267 0.033508 0.952644
v 0.684540 -0.000610 0.954869
v -1.091894 0.053894 -1.421941
v 0.669829 0.019714 -1.419888
v -1.077267 0.156799 0.952646
v -1.091894 0.156799 -1.421939
v -1.077267 0.033508 0.952644
v -1.091894 0.053894 -1.421941
vt 1.008273 1.990474
vt 1.975887 1.990474
vt 1.975887 1.020852
vt 1.008273 1.020852
vt -3.420477 1.528548
vt 1.548256 1.663061
vt 1.548256 2.162520
vt -3.420477 2.162520
vt -4.669808 6.422944
vt -4.669808 5.987554
vt -3.420477 0.973954
vt -4.669808 6.645422
vt 1.548256 0.918297
vt -0.379426 6.393118
vt -0.379426 6.645422
vt 1.548256 3.173868
vt -3.420477 3.173868
vt -0.379426 5.987554
vt -4.669808 5.312684
vt -0.379426 5.312684
vt 3.001980 6.802338
vt 3.200860 3.409603
vt 4.609827 3.412383
vt 4.690104 6.805709
vt 1.590677 6.665525
vt 1.590677 3.560348
vt 2.310862 3.465216
vt 2.156788 6.755016
vt -3.706432 6.798135
vt -3.690838 3.586208
vt -2.375119 3.638341
vt -2.458316 6.743289
vt -0.922259 3.599866
vt -0.817313 6.802185
vt -0.797470 3.726477
vt -0.797470 6.656890
vn -0.037765 0.998564 0.037997
vn 0.037520 0.998646 0.036033
vn -0.038712 0.998552 -0.037359
vn 0.039321 0.998429 -0.039931
vn -0.000891 0.708768 0.705441
vn 0.578926 0.576917 0.576205
vn 0.000667 0.705462 -0.708748
vn 0.132680 0.977971 0.161148
vn -0.151934 0.977306 0.147612
vn -0.138567 0.976564 -0.164688
vn 0.603648 0.535303 -0.590813
vn 0.160697 0.975263 -0.151784
vn -0.000000 1.000000 0.000000
vn -0.000000 1.000000 0.000000
vn -0.000000 1.000000 0.000000
vn -0.000000 1.000000 0.000000
vn -0.001263 -0.000013 0.999999
vn 0.711312 -0.000008 0.702876
vn 0.001166 0.000016 -0.999999
vn 0.697332 -0.107650 -0.708618
vn -0.999981 -0.000000 0.006160
vn -0.999981 -0.000000 0.006160
vn -0.999981 -0.000000 0.006160
vn -0.999981 -0.000000 0.006160
g fff07975_00202_0054b81d_e6
f 16/2/16 15/1/15 14/4/14
f 16/2/16 14/4/14 13/3/13
g fff07975_00202_0054b81d_e7
f 11/5/11 7/6/7 2/7/2
f 2/7/2 1/8/1 11/5/11
f 6/29/6 11/30/11 1/31/1
f 1/31/1 3/32/3 6/29/6
f 11/30/11 6/29/6 20/33/20
f 18/34/18 20/33/20 6/29/6
f 7/6/7 11/5/11 20/11/20
f 20/11/20 19/13/19 7/6/7
f 21/21/21 22/22/22 24/23/24
f 24/23/24 23/24/23 21/21/21
f 8/16/8 9/17/9 1/8/1
f 4/18/4 3/10/3 10/19/10
f 9/35/9 10/36/10 3/32/3
f 3/32/3 1/31/1 9/35/9
f 1/8/1 2/7/2 8/16/8
f 12/25/12 8/26/8 2/27/2
f 10/19/10 12/20/12 4/18/4
f 2/27/2 4/28/4 12/25/12
f 17/15/17 18/12/18 5/14/5
f 6/9/6 5/14/5 18/12/18
f 7/22/7 5/21/5 4/28/4
f 3/10/3 4/18/4 5/14/5
f 5/14/5 6/9/6 3/10/3
f 4/28/4 2/27/2 7/22/7
