# fff0a81b_00611_00d50520
o fff0a81b_00611_00d50520
v -0.938209 0.107706 1.624920
v -0.938209 0.107706 -1.800979
v -0.938209 -0.016377 -1.800984
v 0.450828 0.107706 1.624920
v 0.450828 -0.016377 1.624915
v 0.450828 -0.016377 -1.800984
v -1.165873 0.226114 2.219079
v 0.757692 -0.226114 -2.248832
v -1.165873 -0.226114 -2.248832
v 0.757692 -0.016377 1.939159
v -1.165873 -0.226114 -1.968007
v 0.757692 -0.016377 -1.899877
v -1.165873 -0.016377 1.939159
v -1.165873 -0.129457 2.027056
v 0.757692 -0.129457 2.027056
v 0.757692 0.226114 2.219079
v -1.165873 0.226114 -2.245955
v 0.757711 0.226114 -2.245955
v 0.450828 0.107706 -1.800979
v -0.938209 -0.016377 1.624915
v 0.045811 -0.016377 1.634269
v -0.528074 -0.016377 1.634269
v -1.165873 -0.016377 -1.899877
v 0.757692 -0.226114 -1.968007
v -1.165873 -0.129457 2.215879
v -0.528074 0.226114 2.452937
v -0.528074 -0.016377 2.173017
v 0.757692 -0.129457 2.215879
v -0.528074 -0.129457 2.260913
v -0.528074 -0.129457 2.449737
v -0.528074 0.107706 1.634274
v 0.045811 0.107706 1.634274
v 0.067307 0.226110 2.604537
v -0.553207 0.226110 2.604537
v 0.927836 0.226110 2.351678
v 0.927858 0.226110 -2.604537
v -1.333620 0.226110 2.351678
v -1.333620 0.226110 -2.604537
v 6.034014 -0.016377 1.939159
v 6.034014 -0.129457 2.027056
v 0.045811 -0.016377 2.173017
v 0.045811 -0.129457 2.260913
v 0.045811 0.226114 2.452937
v 0.045811 -0.129457 2.449737
v 0.450828 0.107706 1.624920
v 0.450828 0.107706 -1.800979
v -0.938209 0.107706 1.624920
v -0.938209 0.107706 -1.800979
v 5.727150 0.107706 1.624920
v 4.338112 0.107706 1.624920
v 5.727150 0.107706 -1.800979
v 4.338112 0.107706 -1.800979
v 5.727150 -0.016377 -1.800984
v 5.727150 -0.016377 1.624915
v 4.338112 -0.016377 -1.800984
v 4.338112 -0.016377 1.624915
v 6.034014 -0.016377 -1.899877
v 4.110449 -0.016377 1.939159
v 4.110449 -0.129457 2.027056
v 6.034014 -0.226114 -2.248832
v 4.110449 -0.226114 -2.248832
v 4.110449 -0.226114 -1.968007
v 4.110449 0.226114 2.219079
v 6.034014 0.226114 2.219079
v 4.748247 -0.016377 1.634269
v 6.034033 0.226114 -2.245955
v 4.110449 0.226114 -2.245955
v 5.322132 -0.016377 1.634269
v 4.748247 -0.016377 2.173017
v 4.110449 -0.016377 -1.899877
v 4.748247 -0.129457 2.449737
v 5.322132 -0.129457 2.260913
v 5.322132 -0.016377 2.173017
v 4.748247 -0.129457 2.260913
v 6.034014 -0.226114 -1.968007
v 4.748247 0.226114 2.452937
v 4.110449 -0.129457 2.215879
v 6.034014 -0.129457 2.215879
v 4.748247 0.107706 1.634274
v 5.322132 0.107706 1.634274
v 6.204180 0.226110 -2.604537
v 3.942701 0.226110 -2.604537
v 3.942701 0.226110 2.351678
v 6.204159 0.226110 2.351678
v 4.723114 0.226110 2.604537
v 5.343628 0.226110 2.604537
v -4.112867 -0.016377 1.939159
v -4.112867 -0.129457 2.027056
v -6.036432 -0.016377 1.939159
v -6.036432 -0.129457 2.027056
v 5.322132 0.226114 2.452937
v 5.322132 -0.129457 2.449737
v 4.338112 0.107706 1.624920
v 4.338112 0.107706 -1.800979
v 5.727150 0.107706 1.624920
v 5.727150 0.107706 -1.800979
v -4.419732 0.107706 1.624920
v -5.808768 0.107706 1.624920
v -4.419732 0.107706 -1.800979
v -5.808768 0.107706 -1.800979
v -4.419732 -0.016377 -1.800984
v -4.419732 -0.016377 1.624915
v -5.808768 -0.016377 -1.800984
v -5.808768 -0.016377 1.624915
v -4.112867 -0.016377 -1.899877
v -6.036432 -0.016377 -1.899877
v -4.112867 -0.226114 -2.248832
v -4.112867 -0.226114 -1.968007
v -6.036432 -0.226114 -2.248832
v -6.036432 -0.226114 -1.968007
v -6.036432 0.226114 2.219079
v -4.112867 0.226114 2.219079
v -5.398634 -0.016377 1.634269
v -4.112848 0.226114 -2.245955
v -6.036432 0.226114 -2.245955
v -4.824749 -0.016377 1.634269
v -4.824749 0.226114 2.452937
v -5.398634 -0.016377 2.173017
v -5.398634 -0.129457 2.449737
v -4.824749 -0.129457 2.260913
v -4.824749 -0.016377 2.173017
v -5.398634 -0.129457 2.260913
v -5.398634 0.226114 2.452937
v -6.036432 -0.129457 2.215879
v -4.112867 -0.129457 2.215879
v -4.824749 -0.129457 2.449737
v -5.398634 0.107706 1.634274
v -4.824749 0.107706 1.634274
v -3.942701 0.226110 -2.604537
v -6.204180 0.226110 -2.604537
v -6.204180 0.226110 2.351678
v -3.942723 0.226110 2.351678
v -5.423767 0.226110 2.604537
v -4.803253 0.226110 2.604537
v -5.808768 0.107706 1.624920
v -5.808768 0.107706 -1.800979
v -4.419732 0.107706 1.624920
v -4.419732 0.107706 -1.800979
vt 0.000000 1.000000
vt 0.000000 0.000000
vt 0.000000 0.591056
vt 1.000000 -0.507021
vt 0.000000 -0.507021
vt 1.000000 0.493388
vt 0.000000 -0.400375
vt 1.000000 -0.418972
vt 0.000000 -0.422213
vt 1.000000 -0.398868
vt 0.000000 0.496318
vt 0.000000 0.519110
vt 0.000000 0.574800
vt 1.000000 0.516228
vt 1.000000 0.576821
vt 1.000000 0.591056
vt 1.000000 0.001508
vt 0.102024 0.262728
vt 0.859358 0.262728
vt 0.859358 0.687904
vt 2.000000 1.205269
vt 1.920228 1.205269
vt 1.901057 1.098188
vt 1.079433 1.098188
vt 1.999447 1.049947
vt 1.054366 1.155921
vt 1.000000 1.049947
vt 1.000729 1.155921
vt 1.149816 0.984584
vt 1.178491 0.919129
vt 0.102024 0.687861
vt 1.000000 0.995261
vt 1.677254 0.888649
vt 1.635180 0.888649
vt 1.625068 0.954788
vt 1.191712 0.954788
vt 1.676962 0.984584
vt 1.150201 0.919129
vt 1.188236 0.938069
vt 1.187017 0.979287
vt 1.561798 0.980415
vt 0.733104 1.120215
vt 1.561798 0.980415
vt 1.563018 0.939196
vt 1.188236 0.938069
vt 0.960222 1.112862
vt 0.731412 1.079008
vt 1.927899 1.112862
vt 0.000000 0.591056
vt 0.331564 0.591056
vt 1.926207 1.071655
vt 0.958530 1.071655
vt 0.331564 0.998429
vt 0.637737 0.687892
vt 0.325631 0.687874
vt 0.629889 0.997015
vt 0.331564 0.591056
vt 0.331564 0.495346
vt 0.629889 0.494472
vt 0.331564 0.518154
vt 0.630094 0.517294
vt 0.331564 0.575470
vt 0.630541 0.591056
vt 0.630534 0.576075
vt 1.000000 0.591056
vt 0.630541 0.591056
vt 1.149816 0.984584
vt 1.676962 0.984584
vt 1.000000 1.049947
vt 1.999447 1.049947
vt 1.999285 1.999534
vt 1.999285 1.002585
vt 1.004441 2.000000
vt 1.004441 1.003050
vt 1.298184 2.002584
vt 1.709207 2.002392
vn 1.000000 0.000000 0.000000
vn 0.707116 -0.000031 0.707097
vn 0.301500 -0.904539 0.301508
vn -1.000000 0.000000 0.000000
vn -0.317636 -0.948213 0.000000
vn -0.301500 -0.904539 0.301508
vn -0.414595 -0.862148 0.291227
vn 0.705656 -0.708555 0.000000
vn -0.705671 -0.708540 0.000000
vn 0.787048 -0.574910 -0.223685
vn -0.595689 -0.649797 0.472143
vn 0.865821 -0.404792 0.294106
vn -0.783799 -0.580853 -0.219701
vn -0.548865 -0.718147 -0.427799
vn 0.557071 -0.716590 -0.419727
vn 0.403499 -0.866516 0.293834
vn -0.317366 -0.948303 0.000005
vn 0.317361 -0.948305 0.000009
vn -0.707117 -0.000031 0.707097
vn 0.317619 -0.948219 0.000000
vn 0.000000 -1.000000 0.000000
vn 0.000000 -1.000000 0.000000
vn -0.865840 -0.404756 0.294096
vn 0.595679 -0.649803 0.472147
vn -0.657075 -0.600039 0.456295
vn -0.115207 -0.751563 0.649523
vn 0.090461 -0.876458 -0.472904
vn 0.650546 -0.597870 0.468339
vn 0.065796 -0.916089 -0.395541
vn -0.129422 -0.673053 0.728183
vn 0.000000 -1.000000 0.000000
vn 0.000000 -1.000000 0.000000
vn -0.000005 -1.000000 -0.000030
vn 0.000005 -1.000000 -0.000030
vn -0.000018 -1.000000 -0.000013
vn -0.000008 -1.000000 0.000010
vn 0.000018 -1.000000 -0.000013
vn 0.000008 -1.000000 0.000010
vn 0.787048 -0.574909 -0.223685
vn 0.557071 -0.716590 -0.419727
vn -0.080462 -0.878821 -0.470318
vn -0.060361 -0.914475 -0.400114
vn 0.104898 -0.747412 0.656027
vn 0.116493 -0.676465 0.727203
vn 0.000000 -1.000000 0.000000
vn 0.000000 -1.000000 0.000000
vn 0.000000 -1.000000 0.000000
vn 0.000000 -1.000000 0.000000
vn -1.000000 0.000000 0.000000
vn 1.000000 0.000000 0.000000
vn -0.707117 -0.000031 0.707097
vn 0.707116 -0.000031 0.707097
vn -0.301500 -0.904539 0.301508
vn -0.317636 -0.948213 0.000000
vn 0.301500 -0.904539 0.301508
vn 0.317619 -0.948219 0.000000
vn 0.865821 -0.404792 0.294106
vn -0.783799 -0.580853 -0.219701
vn -0.548865 -0.718147 -0.427799
vn 0.705656 -0.708555 0.000000
vn -0.705671 -0.708540 0.000000
vn -0.595689 -0.649797 0.472143
vn -0.414595 -0.862148 0.291227
vn 0.403498 -0.866516 0.293834
vn 0.000000 -1.000000 0.000000
vn 0.317361 -0.948305 0.000009
vn -0.317366 -0.948303 0.000005
vn 0.000000 -1.000000 0.000000
vn 0.090461 -0.876458 -0.472904
vn -0.865841 -0.404756 0.294096
vn -0.129422 -0.673053 0.728183
vn -0.060361 -0.914475 -0.400114
vn -0.080462 -0.878821 -0.470318
vn 0.065796 -0.916089 -0.395541
vn 0.595679 -0.649803 0.472147
vn -0.115207 -0.751563 0.649523
vn -0.657075 -0.600039 0.456295
vn 0.650546 -0.597870 0.468339
vn 0.000000 -1.000000 0.000000
vn 0.000000 -1.000000 0.000000
vn -0.000008 -1.000000 0.000010
vn 0.000008 -1.000000 0.000010
vn 0.000018 -1.000000 -0.000013
vn -0.000018 -1.000000 -0.000013
vn 0.000005 -1.000000 -0.000030
vn -0.000005 -1.000000 -0.000030
vn 0.787048 -0.574910 -0.223685
vn 0.557071 -0.716590 -0.419727
vn -0.783799 -0.580853 -0.219701
vn -0.548865 -0.718147 -0.427799
vn 0.104898 -0.747412 0.656027
vn 0.116493 -0.676465 0.727203
vn 0.000000 -1.000000 0.000000
vn 0.000000 -1.000000 0.000000
vn 0.000000 -1.000000 0.000000
vn 0.000000 -1.000000 0.000000
vn -1.000000 0.000000 0.000000
vn 1.000000 0.000000 0.000000
vn -0.707117 -0.000031 0.707097
vn 0.707116 -0.000031 0.707097
vn -0.301500 -0.904539 0.301509
vn -0.317636 -0.948213 0.000000
vn 0.301500 -0.904539 0.301508
vn 0.317619 -0.948219 0.000000
vn 0.865821 -0.404792 0.294106
vn -0.865840 -0.404756 0.294096
vn 0.705656 -0.708555 0.000000
vn 0.595679 -0.649803 0.472147
vn -0.705671 -0.708540 0.000000
vn -0.595689 -0.649797 0.472143
vn -0.414595 -0.862148 0.291227
vn 0.403498 -0.866516 0.293834
vn 0.000000 -1.000000 0.000000
vn 0.317361 -0.948305 0.000009
vn -0.317366 -0.948303 0.000005
vn 0.000000 -1.000000 0.000000
vn 0.104898 -0.747412 0.656027
vn 0.090461 -0.876458 -0.472904
vn -0.129422 -0.673053 0.728183
vn -0.060361 -0.914475 -0.400114
vn -0.080462 -0.878821 -0.470318
vn 0.065796 -0.916089 -0.395541
vn -0.115207 -0.751563 0.649523
vn -0.657075 -0.600039 0.456295
vn 0.650546 -0.597870 0.468339
vn 0.116493 -0.676465 0.727203
vn 0.000000 -1.000000 0.000000
vn 0.000000 -1.000000 0.000000
vn -0.000008 -1.000000 0.000010
vn 0.000008 -1.000000 0.000010
vn 0.000018 -1.000000 -0.000013
vn -0.000018 -1.000000 -0.000013
vn 0.000005 -1.000000 -0.000030
vn -0.000005 -1.000000 -0.000030
vn 0.000000 -1.000000 0.000000
vn 0.000000 -1.000000 0.000000
vn 0.000000 -1.000000 0.000000
vn 0.000000 -1.000000 0.000000
g fff0a81b_00611_00d50520_e7
f 7/27/7 38/70/38 17/25/17
f 38/70/38 7/27/7 37/69/37
f 16/29/16 18/37/18 36/68/36
f 36/68/36 35/67/35 16/29/16
f 18/8/18 38/5/38 36/4/36
f 17/9/17 38/5/38 18/8/18
f 26/57/26 34/50/34 7/3/7
f 37/49/37 7/3/7 34/50/34
f 43/63/43 16/16/16 33/66/33
f 35/65/35 33/66/33 16/16/16
f 26/57/26 43/63/43 33/66/33
f 33/66/33 34/50/34 26/57/26
f 86/66/86 85/50/85 76/57/76
f 76/57/76 91/63/91 86/66/86
f 84/65/84 86/66/86 64/16/64
f 91/63/91 64/16/64 86/66/86
f 83/49/83 63/3/63 85/50/85
f 76/57/76 85/50/85 63/3/63
f 67/9/67 82/5/82 66/8/66
f 66/8/66 82/5/82 81/4/81
f 81/68/81 84/67/84 64/29/64
f 64/29/64 66/37/66 81/68/81
f 82/70/82 63/27/63 83/69/83
f 63/27/63 82/70/82 67/25/67
f 134/66/134 133/50/133 123/57/123
f 123/57/123 117/63/117 134/66/134
f 132/65/132 134/66/134 112/16/112
f 117/63/117 112/16/112 134/66/134
f 131/49/131 111/3/111 133/50/133
f 123/57/123 133/50/133 111/3/111
f 115/9/115 130/5/130 114/8/114
f 114/8/114 130/5/130 129/4/129
f 129/68/129 132/67/132 112/29/112
f 112/29/112 114/37/114 129/68/129
f 130/70/130 111/27/111 131/69/131
f 111/27/111 130/70/130 115/25/115
g fff0a81b_00611_00d50520_e3
f 41/56/41 22/55/22 21/54/21
f 41/56/41 21/54/21 10/32/10
f 27/53/27 20/31/20 22/55/22
f 27/53/27 22/55/22 41/56/41
f 6/52/6 5/51/5 4/48/4
f 3/47/3 6/52/6 19/46/19
f 4/48/4 19/46/19 6/52/6
f 2/45/2 1/44/1 20/43/20
f 19/46/19 2/42/2 3/47/3
f 20/41/20 3/40/3 2/39/2
f 28/38/28 15/30/15 16/29/16
f 18/37/18 16/29/16 10/36/10
f 18/37/18 10/36/10 12/35/12
f 18/37/18 12/35/12 24/34/24
f 18/37/18 24/34/24 8/33/8
f 16/29/16 15/30/15 10/36/10
f 25/28/25 7/27/7 14/26/14
f 17/25/17 13/24/13 7/27/7
f 17/25/17 23/23/23 13/24/13
f 17/25/17 11/22/11 23/23/23
f 17/25/17 9/21/9 11/22/11
f 7/27/7 13/24/13 14/26/14
f 10/32/10 5/20/5 6/19/6
f 3/18/3 23/2/23 6/19/6
f 10/32/10 6/19/6 12/17/12
f 6/19/6 23/2/23 12/17/12
f 21/54/21 5/20/5 10/32/10
f 13/1/13 20/31/20 27/53/27
f 20/31/20 23/2/23 3/18/3
f 13/1/13 23/2/23 20/31/20
f 58/1/58 70/2/70 56/31/56
f 56/31/56 70/2/70 55/18/55
f 58/1/58 56/31/56 69/53/69
f 68/54/68 54/20/54 39/32/39
f 53/19/53 70/2/70 57/17/57
f 39/32/39 53/19/53 57/17/57
f 55/18/55 70/2/70 53/19/53
f 39/32/39 54/20/54 53/19/53
f 63/27/63 58/24/58 59/26/59
f 67/25/67 61/21/61 62/22/62
f 67/25/67 62/22/62 70/23/70
f 67/25/67 70/23/70 58/24/58
f 67/25/67 58/24/58 63/27/63
f 77/28/77 63/27/63 59/26/59
f 64/29/64 40/30/40 39/36/39
f 66/37/66 75/34/75 60/33/60
f 66/37/66 57/35/57 75/34/75
f 66/37/66 39/36/39 57/35/57
f 66/37/66 64/29/64 39/36/39
f 78/38/78 40/30/40 64/29/64
f 56/41/56 55/40/55 52/39/52
f 51/46/51 52/42/52 55/47/55
f 52/45/52 50/44/50 56/43/56
f 49/48/49 51/46/51 53/52/53
f 55/47/55 53/52/53 51/46/51
f 53/52/53 54/51/54 49/48/49
f 69/53/69 65/55/65 73/56/73
f 69/53/69 56/31/56 65/55/65
f 73/56/73 68/54/68 39/32/39
f 73/56/73 65/55/65 68/54/68
f 89/1/89 106/2/106 104/31/104
f 104/31/104 106/2/106 103/18/103
f 89/1/89 104/31/104 118/53/118
f 116/54/116 102/20/102 87/32/87
f 101/19/101 106/2/106 105/17/105
f 87/32/87 101/19/101 105/17/105
f 103/18/103 106/2/106 101/19/101
f 87/32/87 102/20/102 101/19/101
f 111/27/111 89/24/89 90/26/90
f 115/25/115 109/21/109 110/22/110
f 115/25/115 110/22/110 106/23/106
f 115/25/115 106/23/106 89/24/89
f 115/25/115 89/24/89 111/27/111
f 124/28/124 111/27/111 90/26/90
f 112/29/112 88/30/88 87/36/87
f 114/37/114 108/34/108 107/33/107
f 114/37/114 105/35/105 108/34/108
f 114/37/114 87/36/87 105/35/105
f 114/37/114 112/29/112 87/36/87
f 125/38/125 88/30/88 112/29/112
f 104/41/104 103/40/103 100/39/100
f 99/46/99 100/42/100 103/47/103
f 100/45/100 98/44/98 104/43/104
f 97/48/97 99/46/99 101/52/101
f 103/47/103 101/52/101 99/46/99
f 101/52/101 102/51/102 97/48/97
f 118/53/118 113/55/113 121/56/121
f 118/53/118 104/31/104 113/55/113
f 121/56/121 116/54/116 87/32/87
f 121/56/121 113/55/113 116/54/116
g fff0a81b_00611_00d50520_e6
f 44/64/44 43/63/43 30/62/30
f 16/16/16 43/63/43 44/64/44
f 42/61/42 44/64/44 29/60/29
f 28/15/28 44/64/44 42/61/42
f 41/59/41 42/61/42 27/58/27
f 15/14/15 42/61/42 41/59/41
f 26/57/26 25/13/25 30/62/30
f 43/63/43 26/57/26 30/62/30
f 30/62/30 14/12/14 29/60/29
f 44/64/44 30/62/30 29/60/29
f 29/60/29 13/11/13 27/58/27
f 42/61/42 29/60/29 27/58/27
f 12/10/12 11/9/11 24/8/24
f 23/7/23 11/9/11 12/10/12
f 25/13/25 14/12/14 30/62/30
f 28/15/28 42/61/42 15/14/15
f 15/14/15 41/59/41 10/6/10
f 14/12/14 13/11/13 29/60/29
f 24/8/24 9/5/9 8/4/8
f 11/9/11 9/5/9 24/8/24
f 7/3/7 25/13/25 26/57/26
f 16/16/16 44/64/44 28/15/28
f 64/16/64 92/64/92 78/15/78
f 63/3/63 77/13/77 76/57/76
f 62/9/62 61/5/61 75/8/75
f 75/8/75 61/5/61 60/4/60
f 59/12/59 58/11/58 74/60/74
f 40/14/40 73/59/73 39/6/39
f 78/15/78 72/61/72 40/14/40
f 77/13/77 59/12/59 71/62/71
f 70/7/70 62/9/62 57/10/57
f 57/10/57 62/9/62 75/8/75
f 72/61/72 74/60/74 69/58/69
f 74/60/74 58/11/58 69/58/69
f 92/64/92 71/62/71 74/60/74
f 71/62/71 59/12/59 74/60/74
f 91/63/91 76/57/76 71/62/71
f 76/57/76 77/13/77 71/62/71
f 40/14/40 72/61/72 73/59/73
f 73/59/73 72/61/72 69/58/69
f 78/15/78 92/64/92 72/61/72
f 72/61/72 92/64/92 74/60/74
f 64/16/64 91/63/91 92/64/92
f 92/64/92 91/63/91 71/62/71
f 112/16/112 126/64/126 125/15/125
f 111/3/111 124/13/124 123/57/123
f 110/9/110 109/5/109 108/8/108
f 108/8/108 109/5/109 107/4/107
f 90/12/90 89/11/89 122/60/122
f 88/14/88 121/59/121 87/6/87
f 125/15/125 120/61/120 88/14/88
f 124/13/124 90/12/90 119/62/119
f 106/7/106 110/9/110 105/10/105
f 105/10/105 110/9/110 108/8/108
f 120/61/120 122/60/122 118/58/118
f 122/60/122 89/11/89 118/58/118
f 126/64/126 119/62/119 122/60/122
f 119/62/119 90/12/90 122/60/122
f 117/63/117 123/57/123 119/62/119
f 123/57/123 124/13/124 119/62/119
f 88/14/88 120/61/120 121/59/121
f 121/59/121 120/61/120 118/58/118
f 125/15/125 126/64/126 120/61/120
f 120/61/120 126/64/126 122/60/122
f 112/16/112 117/63/117 126/64/126
f 126/64/126 117/63/117 119/62/119
g fff0a81b_00611_00d50520_e0
f 32/76/32 31/75/31 48/74/48
f 31/75/31 47/73/47 48/74/48
f 46/72/46 32/76/32 48/74/48
f 46/72/46 45/71/45 32/76/32
f 96/72/96 95/71/95 80/76/80
f 96/72/96 80/76/80 94/74/94
f 79/75/79 93/73/93 94/74/94
f 80/76/80 79/75/79 94/74/94
f 138/72/138 137/71/137 128/76/128
f 138/72/138 128/76/128 136/74/136
f 127/75/127 135/73/135 136/74/136
f 128/76/128 127/75/127 136/74/136
