# fff0af20_00136_0036457a
o fff0af20_00136_0036457a
v -2.523077 42.369957 72.188965
v -3.207548 42.369957 74.743469
v -3.490224 42.369957 74.667725
v -2.805752 42.369957 72.113220
v -2.624974 42.164101 72.417969
v -3.181363 42.164101 74.494446
v -3.371774 42.150200 74.443420
v -2.815385 42.150200 72.366943
v -2.472012 42.369957 72.150879
v -3.182359 42.369957 74.801880
v -3.541462 42.369957 74.705688
v -2.831114 42.369957 72.054626
v -2.474534 42.501137 72.150146
v -2.835951 42.508110 72.053345
v -3.546314 42.508110 74.704468
v -3.187005 42.528816 74.800720
v -6.773565 42.369957 87.613464
v -7.458036 42.369957 90.167969
v -7.740712 42.369957 90.092224
v -7.056241 42.369957 87.537720
v -6.875463 42.164101 87.842468
v -7.431851 42.164101 89.918945
v -7.622263 42.150200 89.867920
v -7.065874 42.150200 87.791443
v -6.722501 42.369957 87.575378
v -7.432848 42.369957 90.226379
v -7.791951 42.369957 90.130188
v -7.081603 42.369957 87.479126
v -6.725023 42.501137 87.574646
v -7.086440 42.508110 87.477844
v -7.796803 42.508110 90.128967
v -7.437493 42.528816 90.225220
v -10.122905 39.962757 102.187927
v -10.380161 39.089069 104.670715
v -10.670895 39.114979 104.649719
v -10.413658 39.988667 102.166870
v -10.198121 39.690998 102.348206
v -10.407226 38.980793 104.366394
v -10.603892 38.985188 104.347595
v -10.394796 39.695393 102.329346
v -10.078838 39.975788 102.143799
v -10.345814 39.069096 104.720459
v -10.715159 39.101994 104.693726
v -10.448198 40.008701 102.117065
v -10.073647 40.099308 102.187744
v -10.444960 40.138966 102.163269
v -10.711930 39.232227 104.740051
v -10.341147 39.218769 104.773621
v -16.647068 34.012096 114.542847
v -16.904324 32.395763 116.620117
v -17.195057 32.427013 116.608398
v -16.937820 34.043362 114.531067
v -16.722282 33.703533 114.608643
v -16.931389 32.389645 116.297119
v -17.128056 32.399776 116.280762
v -16.918959 33.713696 114.592102
v -16.603001 34.038479 114.505066
v -16.869976 32.361034 116.660950
v -17.239323 32.400723 116.646057
v -16.972361 34.078167 114.490234
v -16.597809 34.141659 114.585999
v -16.969122 34.187038 114.575378
v -17.236092 32.509533 116.731262
v -16.865311 32.486111 116.758850
v -18.210182 22.301876 125.527588
v -18.467442 19.991289 126.788086
v -18.758175 20.024630 126.789734
v -18.500938 22.335247 125.529236
v -18.285397 21.992672 125.464905
v -18.494507 20.114481 126.489380
v -18.691174 20.130281 126.478455
v -18.482077 22.008587 125.453796
v -18.166115 22.341137 125.503479
v -18.433094 19.943155 126.811707
v -18.802441 19.985491 126.813782
v -18.535479 22.383434 125.505737
v -18.160923 22.403484 125.618835
v -18.532240 22.449337 125.627197
v -18.799210 20.051302 126.935364
v -18.428429 20.018824 126.951294
vt -1.223499 21.239622
vt -82.882378 16.171501
vt -1.741313 20.225901
vt -85.896088 16.128843
vt -1.395162 20.937778
vt -1.672536 20.451670
vt -85.768379 16.183199
vt -83.116089 16.183435
vt 1.924103 0.963647
vt 1.306830 0.963646
vt 1.237344 1.935407
vt 1.993711 1.935408
vt 1.307085 0.965177
vt 1.239964 1.948445
vt 1.924358 0.965178
vt 1.991158 1.948445
vt 1.924172 1.145058
vt 1.306899 1.145057
vt 1.306899 1.888498
vt 1.924172 1.888499
vt 1.190237 1.002594
vt 1.031925 1.007763
vt 1.202127 1.998926
vt 1.029555 2.005950
vt 1.204726 1.007763
vt 1.046072 1.013092
vt 1.202553 1.998875
vt 1.029187 2.005994
vt -1.357565 21.003664
vt -1.709933 20.386127
vt -85.820091 16.182205
vt -83.067459 16.182444
vt -1.218829 20.889339
vt -1.737493 20.219210
vt -85.899811 16.128868
vt -82.975044 16.129070
vn 0.149343 -0.981708 -0.118091
vn 0.073927 -0.980542 0.181856
vn -0.154380 -0.980972 0.117729
vn -0.071294 -0.982046 -0.174652
vn 0.635186 -0.765732 -0.100956
vn 0.507193 -0.765793 0.395369
vn -0.562877 -0.818004 0.118485
vn -0.420946 -0.817330 -0.393416
vn 0.712880 -0.572157 -0.405509
vn 0.417675 -0.569525 0.707947
vn -0.696470 -0.586865 0.412940
vn -0.396607 -0.586691 -0.706043
vn 0.861290 0.013979 -0.507921
vn -0.514861 -0.026055 -0.856878
vn -0.862372 -0.025821 0.505616
vn 0.503653 0.021026 0.863650
vn 0.149343 -0.981708 -0.118091
vn 0.073927 -0.980542 0.181856
vn -0.154380 -0.980972 0.117729
vn -0.071294 -0.982046 -0.174652
vn 0.635185 -0.765733 -0.100957
vn 0.507194 -0.765792 0.395369
vn -0.562878 -0.818003 0.118485
vn -0.420946 -0.817330 -0.393416
vn 0.712879 -0.572160 -0.405508
vn 0.417675 -0.569526 0.707946
vn -0.696470 -0.586865 0.412940
vn -0.396607 -0.586691 -0.706043
vn 0.861290 0.013979 -0.507921
vn -0.514860 -0.026055 -0.856878
vn -0.862372 -0.025821 0.505616
vn 0.503653 0.021026 0.863650
vn 0.069528 -0.882119 -0.465866
vn 0.044479 -0.983638 -0.174581
vn -0.190980 -0.962095 -0.194678
vn -0.156976 -0.863101 -0.480016
vn 0.563590 -0.685041 -0.461612
vn 0.518526 -0.854831 0.019860
vn -0.583567 -0.809205 -0.068091
vn -0.527269 -0.633500 -0.566273
vn 0.601899 -0.398964 -0.691770
vn 0.493007 -0.777157 0.391116
vn -0.653347 -0.692800 0.305232
vn -0.540624 -0.309783 -0.782151
vn 0.766159 0.186843 -0.614890
vn -0.648404 0.268673 -0.712311
vn -0.768121 -0.197602 0.609052
vn 0.638234 -0.275415 0.718890
vn 0.069245 -0.688801 -0.721636
vn 0.044425 -0.877394 -0.477709
vn -0.191210 -0.850621 -0.489778
vn -0.157176 -0.666011 -0.729194
vn 0.563655 -0.503184 -0.655056
vn 0.518488 -0.816964 -0.252468
vn -0.583606 -0.745782 -0.321269
vn -0.527188 -0.421092 -0.738074
vn 0.601791 -0.158789 -0.782709
vn 0.493007 -0.861099 0.124306
vn -0.653387 -0.753797 0.069822
vn -0.540719 -0.045510 -0.839971
vn 0.766269 0.372449 -0.523559
vn -0.648449 0.480825 -0.590187
vn -0.768201 -0.380411 0.514931
vn 0.638256 -0.489213 0.594391
vn 0.069419 -0.343798 -0.936474
vn 0.044683 -0.614202 -0.787882
vn -0.191035 -0.584822 -0.788346
vn -0.157606 -0.319554 -0.934369
vn 0.563642 -0.200278 -0.801372
vn 0.518469 -0.648536 -0.557307
vn -0.583615 -0.555836 -0.591980
vn -0.527205 -0.091906 -0.844753
vn 0.601811 0.166550 -0.781079
vn 0.493032 -0.839292 -0.229145
vn -0.653342 -0.719117 -0.236674
vn -0.540832 0.293335 -0.788325
vn 0.766262 0.550332 -0.331629
vn -0.648435 0.676238 -0.349619
vn -0.768164 -0.554291 0.320446
vn 0.638266 -0.685598 0.350102
g fff0af20_00136_0036457a_e10
f 65/5/65 68/6/68 76/30/76
f 76/30/76 73/29/73 65/5/65
f 66/8/66 65/7/65 73/31/73
f 73/31/73 74/32/74 66/8/66
f 67/5/67 66/6/66 74/30/74
f 74/30/74 75/29/75 67/5/67
f 68/8/68 67/7/67 75/31/75
f 75/31/75 76/32/76 68/8/68
f 49/5/49 52/6/52 60/30/60
f 60/30/60 57/29/57 49/5/49
f 50/8/50 49/7/49 57/31/57
f 57/31/57 58/32/58 50/8/50
f 51/5/51 50/6/50 58/30/58
f 58/30/58 59/29/59 51/5/51
f 52/8/52 51/7/51 59/31/59
f 59/31/59 60/32/60 52/8/52
f 33/5/33 36/6/36 44/30/44
f 44/30/44 41/29/41 33/5/33
f 34/8/34 33/7/33 41/31/41
f 41/31/41 42/32/42 34/8/34
f 35/5/35 34/6/34 42/30/42
f 42/30/42 43/29/43 35/5/35
f 36/8/36 35/7/35 43/31/43
f 43/31/43 44/32/44 36/8/36
f 11/31/11 12/32/12 4/8/4
f 4/8/4 3/7/3 11/31/11
f 10/30/10 11/29/11 3/5/3
f 3/5/3 2/6/2 10/30/10
f 9/31/9 10/32/10 2/8/2
f 2/8/2 1/7/1 9/31/9
f 12/30/12 9/29/9 1/5/1
f 1/5/1 4/6/4 12/30/12
f 27/31/27 28/32/28 20/8/20
f 20/8/20 19/7/19 27/31/27
f 26/30/26 27/29/27 19/5/19
f 19/5/19 18/6/18 26/30/26
f 25/31/25 26/32/26 18/8/18
f 18/8/18 17/7/17 25/31/25
f 28/30/28 25/29/25 17/5/17
f 17/5/17 20/6/20 28/30/28
g fff0af20_00136_0036457a_e19
f 65/16/65 66/14/66 70/13/70
f 70/13/70 69/15/69 65/16/65
f 68/26/68 65/25/65 69/27/69
f 69/27/69 72/28/72 68/26/68
f 70/18/70 71/19/71 72/20/72
f 72/20/72 69/17/69 70/18/70
f 66/21/66 67/22/67 71/24/71
f 71/24/71 70/23/70 66/21/66
f 67/11/67 68/12/68 72/9/72
f 72/9/72 71/10/71 67/11/67
f 49/16/49 50/14/50 54/13/54
f 54/13/54 53/15/53 49/16/49
f 52/26/52 49/25/49 53/27/53
f 53/27/53 56/28/56 52/26/52
f 54/18/54 55/19/55 56/20/56
f 56/20/56 53/17/53 54/18/54
f 50/21/50 51/22/51 55/24/55
f 55/24/55 54/23/54 50/21/50
f 51/11/51 52/12/52 56/9/56
f 56/9/56 55/10/55 51/11/51
f 33/16/33 34/14/34 38/13/38
f 38/13/38 37/15/37 33/16/33
f 36/26/36 33/25/33 37/27/37
f 37/27/37 40/28/40 36/26/36
f 38/18/38 39/19/39 40/20/40
f 40/20/40 37/17/37 38/18/38
f 34/21/34 35/22/35 39/24/39
f 39/24/39 38/23/38 34/21/34
f 35/11/35 36/12/36 40/9/40
f 40/9/40 39/10/39 35/11/35
f 8/9/8 7/10/7 3/11/3
f 3/11/3 4/12/4 8/9/8
f 7/24/7 6/23/6 2/21/2
f 2/21/2 3/22/3 7/24/7
f 8/20/8 5/17/5 6/18/6
f 6/18/6 7/19/7 8/20/8
f 5/27/5 8/28/8 4/26/4
f 4/26/4 1/25/1 5/27/5
f 6/13/6 5/15/5 1/16/1
f 1/16/1 2/14/2 6/13/6
f 24/9/24 23/10/23 19/11/19
f 19/11/19 20/12/20 24/9/24
f 23/24/23 22/23/22 18/21/18
f 18/21/18 19/22/19 23/24/23
f 24/20/24 21/17/21 22/18/22
f 22/18/22 23/19/23 24/20/24
f 21/27/21 24/28/24 20/26/20
f 20/26/20 17/25/17 21/27/21
f 22/13/22 21/15/21 17/16/17
f 17/16/17 18/14/18 22/13/22
g fff0af20_00136_0036457a_e12
f 79/35/79 78/36/78 76/2/76
f 76/32/76 75/31/75 79/4/79
f 74/32/74 73/31/73 77/4/77
f 77/35/77 80/36/80 74/2/74
f 73/29/73 76/30/76 78/3/78
f 78/34/78 77/33/77 73/1/73
f 80/34/80 79/33/79 75/1/75
f 75/29/75 74/30/74 80/3/80
f 63/35/63 62/36/62 60/2/60
f 60/32/60 59/31/59 63/4/63
f 58/32/58 57/31/57 61/4/61
f 61/35/61 64/36/64 58/2/58
f 57/29/57 60/30/60 62/3/62
f 62/34/62 61/33/61 57/1/57
f 64/34/64 63/33/63 59/1/59
f 59/29/59 58/30/58 64/3/64
f 47/35/47 46/36/46 44/2/44
f 44/32/44 43/31/43 47/4/47
f 42/32/42 41/31/41 45/4/45
f 45/35/45 48/36/48 42/2/42
f 41/29/41 44/30/44 46/3/46
f 46/34/46 45/33/45 41/1/41
f 48/34/48 47/33/47 43/1/43
f 43/29/43 42/30/42 48/3/48
f 11/29/11 10/30/10 16/3/16
f 16/34/16 15/33/15 11/1/11
f 14/34/14 13/33/13 9/1/9
f 9/29/9 12/30/12 14/3/14
f 13/35/13 16/36/16 10/2/10
f 10/32/10 9/31/9 13/4/13
f 12/32/12 11/31/11 15/4/15
f 15/35/15 14/36/14 12/2/12
f 27/29/27 26/30/26 32/3/32
f 32/34/32 31/33/31 27/1/27
f 30/34/30 29/33/29 25/1/25
f 25/29/25 28/30/28 30/3/30
f 29/35/29 32/36/32 26/2/26
f 26/32/26 25/31/25 29/4/29
f 28/32/28 27/31/27 31/4/31
f 31/35/31 30/36/30 28/2/28
