# fff02a3e_00027_00096e3e
o fff02a3e_00027_00096e3e
v -1.301540 21.552265 -0.955918
v -1.308544 -6.566334 -0.955918
v -9.206791 -6.561100 -0.955918
v -2.009811 20.207430 -0.896950
v -8.450497 20.218945 -0.878553
v -8.544563 -5.707928 -0.878553
v -2.104176 -5.734570 -0.896950
v -1.484325 21.290411 -0.935422
v -1.490997 -6.274639 -0.837661
v -9.036476 -6.269669 -0.780499
v -9.199783 21.557507 -0.955918
v -9.029804 21.376743 -0.780494
v -1.939114 21.292931 -0.808678
v -2.395557 -6.272095 -0.808422
v -5.231979 -5.721249 0.789222
v -5.137764 20.213188 0.789222
v -1.836887 -5.418621 -0.809924
v -8.792973 -5.418621 -0.809924
v -5.279419 -5.418621 0.955918
v -4.869465 -5.418621 0.873492
v -1.836887 -5.848171 -0.809924
v -8.792973 -5.848171 -0.809924
v -5.279419 -5.848171 0.955918
v -4.869465 -5.848171 0.873492
v -8.521690 20.177864 -0.807934
v -2.085773 20.176878 -0.826331
v -2.096416 -5.795544 -0.826331
v -8.532310 -5.791672 -0.807934
v -5.288105 -5.793606 0.847118
v -5.277473 20.177368 0.847118
v -1.998871 -5.868896 -0.808428
v -5.077591 -5.848171 0.955918
v -5.076618 -5.418621 0.955918
v -5.476555 -5.848171 0.874679
v -5.464130 -5.418621 0.880652
v -6.040462 -5.848171 -0.809924
v -4.405968 -5.848171 -0.809924
v -1.836887 20.351776 -0.809924
v -8.792973 20.351776 -0.809924
v -5.279419 20.351776 0.955918
v -4.869465 20.351776 0.873492
v -1.836887 19.922222 -0.809924
v -8.792973 19.922222 -0.809924
v -5.279419 19.922222 0.955918
v -4.869465 19.922222 0.873492
v -5.077591 19.922222 0.955918
v -5.076618 20.351776 0.955918
v -5.476555 19.922222 0.874679
v -5.464130 20.351776 0.880652
v -6.040462 19.922222 -0.809924
v -4.405968 19.922222 -0.809924
v 10.126059 21.552265 -0.955918
v 10.119053 -20.309277 -0.955918
v 2.220804 -20.304043 -0.955918
v 9.417786 20.207430 -0.896950
v 2.977100 20.218945 -0.878553
v 2.883034 -19.450871 -0.878553
v 9.323418 -19.477512 -0.896950
v 9.943272 21.290411 -0.935422
v 9.936600 -20.017582 -0.837661
v 2.391121 -20.012611 -0.780499
v 2.227812 21.557507 -0.955918
v 2.397793 21.376743 -0.780494
v 9.032040 -20.015038 -0.808422
v 6.195616 -19.464191 0.789222
v 6.289833 20.213188 0.789222
v 9.590712 -19.161564 -0.809924
v 2.634624 -19.161564 -0.809924
v 6.148178 -19.161564 0.955918
v 6.558132 -19.161564 0.873492
v 9.590712 -19.591114 -0.809924
v 2.634624 -19.591114 -0.809924
v 6.148178 -19.591114 0.955918
v 6.558132 -19.591114 0.873492
v 2.905907 20.177864 -0.807934
v 9.341820 20.176878 -0.826331
v 9.331177 -19.538486 -0.826331
v 2.895287 -19.534615 -0.807934
v 6.139490 -19.536549 0.847118
v 6.150122 20.177368 0.847118
v 6.350004 -19.591114 0.955918
v 6.350981 -19.161564 0.955918
v 5.951042 -19.591114 0.874679
v 5.963469 -19.161564 0.880652
v 5.387136 -19.591114 -0.809924
v 7.021629 -19.591114 -0.809924
v 9.590712 20.351776 -0.809924
v 2.634624 20.351776 -0.809924
v 6.148178 20.351776 0.955918
v 6.558132 20.351776 0.873492
v 9.590712 19.922222 -0.809924
v 2.634624 19.922222 -0.809924
v 6.148178 19.922222 0.955918
v 6.558132 19.922222 0.873492
v 6.350004 19.922222 0.955918
v 6.350981 20.351776 0.955918
v 5.951042 19.922222 0.874679
v 5.963469 20.351776 0.880652
v 5.387136 19.922222 -0.809924
v 7.021629 19.922222 -0.809924
v 9.535276 -19.353157 -0.827679
vt 1.547875 -2.554365
vt 0.974235 -2.554870
vt 1.565874 3.069192
vt 0.992424 3.071633
vt -1.001309 2.623395
vt -0.951405 16.333082
vt 1.036268 16.474604
vt 0.984005 2.449556
vt 1.494404 2.366383
vt -2.618861 -0.719919
vt 16.448868 0.175332
vt 16.410116 0.139057
vt -3.531990 -0.683296
vt -2.660374 -0.683612
vt 2.399313 2.398663
vt 2.357725 0.810823
vt 0.640953 2.399311
vt 1.494404 2.110339
vt 0.602278 0.600681
vt 2.357725 2.366070
vt 0.602278 2.399315
vt 0.640953 2.376815
vt -0.009827 2.536376
vt 0.042432 16.403843
vt 1.261150 -2.553144
vt 1.279149 3.070412
vt 1.723734 -12.255524
vt 2.947334 1.000000
vt 1.723852 1.953322
vt 0.052665 1.000000
vt 1.549235 2.000000
vt 103.267921 -1.134897
vt 2.947334 -12.255524
vt 0.051010 -12.255707
vt 1.549235 -12.255522
vt 2.947334 -12.749016
vt -0.170390 -12.748260
vt 1.549235 -12.749014
vt 1.723854 -12.749016
vt -443.368286 -12.255526
vt 0.052567 -12.255714
vt 768.389404 -12.749203
vt 0.052347 -12.749203
vt 1.635201 2.000000
vt 1.632708 -12.749004
vt 1.633123 -12.255515
vt 1.465266 1.953994
vt 1.463613 -12.749196
vt 1.468906 -12.255707
vt 1.225075 1.000000
vt 1.224983 -12.749205
vt 1.921269 1.000021
vt 1.921188 -12.749205
vt 0.042432 16.403841
vt -1.027889 -4.678747
vt -0.951405 16.333082
vt -0.039046 -4.850204
vt 1.036268 16.474604
vt 0.954789 -5.021374
vt 1.921260 1.000054
vt 1.723851 1.953320
vt 1.635204 1.999997
vt 2.947331 1.000001
vt 1.225076 1.000001
vt 1.549235 1.999997
vt 1.465266 1.953993
vt 0.052670 1.000001
vt 1.936985 -28.538015
vt 1.240791 -28.538015
vt 0.067841 -28.044518
vt 0.527160 -28.544018
vt -9.188683 -2.172366
vt -8.275556 -2.208989
vt -8.317069 -2.172682
vt -14.652020 -2.362408
vt -14.690771 -2.398683
vt 0.640953 2.399311
vt 2.357719 0.810833
vt 0.602278 0.600681
vt 2.399313 2.398663
vt 2.357725 2.366070
vt 0.602278 2.399315
vt 0.640953 2.376815
vt 1.279149 3.070412
vt 0.992424 3.071633
vt 0.968037 -5.537275
vt 1.255166 -5.532229
vt 1.541891 -5.533449
vt 1.565874 3.069192
vt 1.723854 -28.537704
vt 2.947334 -28.537704
vt 2.947334 -28.044212
vt 1.986337 -28.044212
vt 1.630139 -28.044321
vt 1.629723 -28.537811
vt 1.549235 -28.044210
vt 1.549235 -28.537703
vt 1.466229 -28.537706
vt 1.471522 -28.044220
vt 473.306396 -30.544029
vt 5467639.500000 -28.430378
vt -4851864.500000 -28.556013
vt 1.752033 2.905744
vt 2.846560 0.143486
vt 2.846756 2.903589
vt 1.811140 0.094270
vt 2.774519 0.098362
vt 0.094267 2.897980
vt 1.153769 1.051775
vt 1.123013 2.896849
vt 0.133427 1.020025
vt 1.096807 1.024119
vt 2.905742 0.098536
vn 0.043715 0.049145 0.997835
vn 0.232229 -0.251959 0.939460
vn -0.308733 -0.351552 0.883796
vn 0.474510 -0.001724 0.880248
vn -0.449670 0.001631 0.893193
vn -0.449682 0.001633 0.893187
vn 0.474523 -0.001726 0.880241
vn 0.112193 0.072854 0.991012
vn 0.254145 -0.132829 0.958001
vn -0.322803 -0.192890 0.926602
vn -0.399507 0.410638 0.819616
vn -0.303312 0.297126 0.905383
vn 0.116277 0.638480 0.760804
vn 0.008257 -0.224223 0.974503
vn 0.014154 -0.000053 0.999900
vn 0.014546 -0.000054 0.999894
vn 0.968071 0.000000 -0.250677
vn -0.972516 0.000110 -0.232836
vn -0.192831 -0.000707 0.981232
vn 0.428182 -0.000291 0.903692
vn 0.814088 -0.541130 -0.210805
vn -0.818185 -0.540555 -0.195890
vn -0.144884 -0.665896 0.731841
vn 0.308407 -0.692811 0.651842
vn -0.454435 0.000186 0.890780
vn 0.464357 -0.000190 0.885648
vn 0.464358 -0.000190 0.885648
vn -0.454436 0.000186 0.890779
vn 0.005641 -0.000002 0.999984
vn 0.005660 -0.000002 0.999984
vn 0.029507 -0.008754 0.999526
vn 0.139579 -0.667306 0.731588
vn 0.188479 -0.000427 0.982077
vn -0.298838 -0.698293 0.650448
vn -0.414666 -0.000661 0.909973
vn 0.000000 -0.707107 -0.707107
vn 0.000000 -0.707107 -0.707107
vn 0.968071 0.000000 -0.250677
vn -0.972516 0.000110 -0.232834
vn -0.192831 -0.000707 0.981232
vn 0.428182 -0.000291 0.903692
vn 0.814088 -0.541130 -0.210806
vn -0.818185 -0.540555 -0.195890
vn -0.144884 -0.665896 0.731841
vn 0.308407 -0.692811 0.651842
vn 0.139579 -0.667306 0.731588
vn 0.188479 -0.000427 0.982077
vn -0.298838 -0.698293 0.650448
vn -0.414666 -0.000661 0.909973
vn 0.000000 -0.707107 -0.707107
vn 0.000000 -0.707107 -0.707107
vn 0.043625 0.048698 0.997860
vn 0.232234 -0.251957 0.939460
vn -0.308724 -0.351556 0.883798
vn 0.474511 -0.001127 0.880249
vn -0.449671 0.001066 0.893194
vn -0.449684 0.001068 0.893187
vn 0.474526 -0.001128 0.880241
vn 0.048975 0.031936 0.998289
vn 0.250008 -0.128393 0.959693
vn -0.322766 -0.192911 0.926611
vn -0.393944 0.409663 0.822790
vn -0.295744 0.300221 0.906864
vn 0.013142 -0.218973 0.975642
vn 0.014524 -0.000035 0.999894
vn 0.014177 -0.000034 0.999900
vn 0.968071 0.000000 -0.250677
vn -0.972516 0.000110 -0.232835
vn -0.192832 -0.000707 0.981231
vn 0.428183 -0.000292 0.903692
vn 0.814088 -0.541130 -0.210805
vn -0.818185 -0.540555 -0.195890
vn -0.144884 -0.665896 0.731841
vn 0.308406 -0.692810 0.651843
vn -0.454435 0.000122 0.890780
vn 0.464357 -0.000124 0.885648
vn 0.464358 -0.000124 0.885648
vn -0.454437 0.000122 0.890779
vn 0.005683 -0.000002 0.999984
vn 0.005618 -0.000002 0.999984
vn 0.139577 -0.667306 0.731588
vn 0.188482 -0.000429 0.982077
vn -0.298838 -0.698293 0.650448
vn -0.414668 -0.000659 0.909972
vn 0.000000 -0.707107 -0.707107
vn 0.000000 -0.707107 -0.707107
vn 0.968071 0.000000 -0.250676
vn -0.972516 0.000110 -0.232836
vn -0.192832 -0.000707 0.981231
vn 0.428183 -0.000292 0.903692
vn 0.814088 -0.541130 -0.210805
vn -0.818185 -0.540555 -0.195890
vn -0.144884 -0.665896 0.731841
vn 0.308406 -0.692810 0.651843
vn 0.139577 -0.667306 0.731588
vn 0.188482 -0.000429 0.982077
vn -0.298838 -0.698293 0.650448
vn -0.414668 -0.000659 0.909973
vn 0.000000 -0.707107 -0.707107
vn 0.000000 -0.707107 -0.707107
vn 0.030514 0.003562 0.999528
g fff02a3e_00027_00096e3e_e8
f 63/103/63 101/104/101 59/105/59
f 61/106/61 64/107/64 63/103/63
f 63/103/63 64/107/64 101/104/101
f 12/108/12 31/109/31 13/110/13
f 10/111/10 14/112/14 12/108/12
f 12/108/12 14/112/14 31/109/31
f 101/104/101 64/107/64 60/113/60
f 59/105/59 101/104/101 60/113/60
g fff02a3e_00027_00096e3e_e1
f 77/55/77 80/54/80 79/57/79
f 75/58/75 79/57/79 80/54/80
f 79/57/79 75/58/75 78/59/78
f 30/24/30 27/5/27 26/6/26
f 29/23/29 25/7/25 28/8/28
f 80/54/80 77/55/77 76/56/76
f 27/5/27 30/24/30 29/23/29
f 25/7/25 29/23/29 30/24/30
g fff02a3e_00027_00096e3e_e7
f 100/60/100 95/62/95 93/65/93
f 99/64/99 97/66/97 92/67/92
f 99/64/99 93/65/93 97/66/97
f 99/64/99 100/60/100 93/65/93
f 91/63/91 94/61/94 100/60/100
f 100/60/100 94/61/94 95/62/95
f 86/60/86 81/62/81 73/65/73
f 85/64/85 83/66/83 72/67/72
f 85/64/85 73/65/73 83/66/83
f 85/64/85 86/60/86 73/65/73
f 71/63/71 74/61/74 86/60/86
f 86/60/86 74/61/74 81/62/81
f 51/52/51 46/44/46 44/31/44
f 50/50/50 48/47/48 43/30/43
f 50/50/50 44/31/44 48/47/48
f 50/50/50 51/52/51 44/31/44
f 42/28/42 45/29/45 51/52/51
f 51/52/51 45/29/45 46/44/46
f 37/52/37 32/44/32 23/31/23
f 36/50/36 34/47/34 22/30/22
f 36/50/36 23/31/23 34/47/34
f 36/50/36 37/52/37 23/31/23
f 21/28/21 24/29/24 37/52/37
f 37/52/37 24/29/24 32/44/32
g fff02a3e_00027_00096e3e_e3
f 51/53/51 50/51/50 39/41/39
f 63/83/63 54/76/54 61/75/61
f 62/82/62 59/81/59 52/80/52
f 62/82/62 54/76/54 63/83/63
f 68/70/68 67/101/67 71/102/71
f 71/102/71 86/68/86 68/70/68
f 61/75/61 53/73/53 64/72/64
f 52/80/52 60/74/60 53/73/53
f 60/74/60 52/80/52 59/81/59
f 63/77/63 59/78/59 62/79/62
f 53/73/53 61/75/61 54/76/54
f 64/72/64 53/73/53 60/74/60
f 85/69/85 72/71/72 68/70/68
f 86/68/86 85/69/85 68/70/68
f 91/102/91 100/68/100 88/70/88
f 88/70/88 87/101/87 91/102/91
f 99/69/99 92/71/92 88/70/88
f 100/68/100 99/69/99 88/70/88
f 13/18/13 8/16/8 11/19/11
f 12/22/12 3/12/3 10/11/10
f 11/21/11 8/20/8 1/15/1
f 11/21/11 3/12/3 12/22/12
f 18/41/18 17/40/17 21/42/21
f 21/42/21 37/53/37 18/41/18
f 10/11/10 2/10/2 14/13/14
f 1/15/1 9/14/9 2/10/2
f 9/14/9 1/15/1 8/20/8
f 12/17/12 13/18/13 11/19/11
f 2/10/2 10/11/10 3/12/3
f 14/13/14 2/10/2 9/14/9
f 36/51/36 22/43/22 18/41/18
f 37/53/37 36/51/36 18/41/18
f 42/42/42 51/53/51 39/41/39
f 39/41/39 38/40/38 42/42/42
f 50/51/50 43/43/43 39/41/39
g fff02a3e_00027_00096e3e_e4
f 98/99/98 97/98/97 89/96/89
f 97/98/97 93/97/93 89/96/89
f 97/98/97 88/70/88 92/100/92
f 88/70/88 97/98/97 98/99/98
f 84/99/84 83/98/83 69/96/69
f 83/98/83 73/97/73 69/96/69
f 83/98/83 68/70/68 72/100/72
f 68/70/68 83/98/83 84/99/84
f 49/49/49 48/48/48 40/35/40
f 48/48/48 44/38/44 40/35/40
f 48/48/48 39/34/39 43/37/43
f 39/34/39 48/48/48 49/49/49
f 35/49/35 34/48/34 19/35/19
f 34/48/34 23/38/23 19/35/19
f 34/48/34 18/34/18 22/37/22
f 18/34/18 34/48/34 35/49/35
g fff02a3e_00027_00096e3e_e5
f 66/84/66 65/87/65 55/89/55
f 65/87/65 66/84/66 57/86/57
f 65/87/65 58/88/58 55/89/55
f 66/84/66 56/85/56 57/86/57
f 16/26/16 15/25/15 4/3/4
f 15/25/15 16/26/16 6/2/6
f 15/25/15 7/1/7 4/3/4
f 16/26/16 5/4/5 6/2/6
g fff02a3e_00027_00096e3e_e2
f 95/95/95 96/94/96 93/97/93
f 95/95/95 94/90/94 90/93/90
f 96/94/96 89/96/89 93/97/93
f 96/94/96 95/95/95 90/93/90
f 87/92/87 90/93/90 94/90/94
f 94/90/94 91/91/91 87/92/87
f 81/95/81 82/94/82 73/97/73
f 81/95/81 74/90/74 70/93/70
f 33/46/33 32/45/32 20/27/20
f 24/39/24 21/36/21 17/33/17
f 17/33/17 20/27/20 24/39/24
f 82/94/82 69/96/69 73/97/73
f 82/94/82 81/95/81 70/93/70
f 67/92/67 70/93/70 74/90/74
f 74/90/74 71/91/71 67/92/67
f 46/45/46 47/46/47 44/38/44
f 46/45/46 45/39/45 41/27/41
f 47/46/47 40/35/40 44/38/44
f 47/46/47 46/45/46 41/27/41
f 38/33/38 41/27/41 45/39/45
f 45/39/45 42/36/42 38/33/38
f 32/45/32 33/46/33 23/38/23
f 32/45/32 24/39/24 20/27/20
f 14/13/14 9/14/9 31/32/31
f 31/32/31 9/14/9 13/9/13
f 13/9/13 9/14/9 8/20/8
f 33/46/33 19/35/19 23/38/23
