# fff02c13_00362_00a2e829
o fff02c13_00362_00a2e829
v 1.250211 4.402755 -0.751479
v 1.250211 -3.903791 -0.751479
v -5.767418 -3.903791 1.944104
v -5.767418 4.402755 1.944104
v 1.250211 4.402755 -0.506426
v 0.548448 4.402755 -0.506426
v 1.250211 -2.877247 -0.506426
v 1.250211 -3.049954 -0.506426
v 0.548448 -3.903791 -0.506426
v 1.250211 -3.903791 -0.506426
v 0.996996 -2.876678 -0.506426
v -5.767418 -3.049954 1.944104
v -5.767418 -2.877247 1.944104
v -6.020633 -2.876678 1.944104
v -6.196764 4.402755 1.944103
v -6.020633 4.402755 1.944104
v -6.196764 -3.051092 1.944104
v 1.250211 2.994723 -0.751479
v 1.250211 -2.009613 -0.751480
v -5.767418 2.994723 1.944104
v -5.767418 -2.009613 1.944104
v 0.548448 -2.009611 -0.506426
v 0.548448 2.994723 -0.506426
v 0.820865 2.994723 -0.506426
v 1.250211 -2.009611 -0.506426
v 1.250211 2.994723 -0.506426
v -6.196764 2.994723 1.944104
v -6.020633 2.994723 1.944104
v -6.196764 -2.009611 1.944104
v -6.020633 -2.009611 1.944104
v 0.548448 4.402755 -0.506426
v 0.548448 -3.903791 -0.506426
v 1.250211 4.402755 -0.506426
v 1.250211 -3.903791 -0.506426
v -6.469181 4.402755 1.944104
v -6.469181 -3.903791 1.944104
v 0.548448 4.402755 -0.261373
v -0.153315 4.402755 -0.261373
v -0.153315 -3.903791 -0.261373
v 0.548448 -3.903791 -0.261373
v 0.820865 -3.051092 -0.506426
v 0.996996 4.402755 -0.506426
v 0.820865 4.402755 -0.506427
v 1.250211 2.994723 -0.506426
v 1.250211 -2.009613 -0.506426
v -6.469181 2.994723 1.944104
v -6.469181 -2.009613 1.944104
v 0.820865 -2.009611 -0.506426
v 0.996996 2.994723 -0.506426
v 0.996996 -2.009611 -0.506426
v -6.469181 -3.903791 2.157730
v -6.469181 4.402755 2.157730
v 5.460789 4.402755 -2.221797
v 5.460789 -3.903791 -2.221797
v 0.119102 -3.051092 -0.261373
v 0.548448 -2.877247 -0.261373
v 0.295233 4.402755 -0.261373
v 0.119102 4.402755 -0.261374
v 0.548448 -3.049954 -0.261373
v 0.295233 -2.876678 -0.261373
v 5.460789 -3.903791 -1.976744
v 4.759026 -3.903791 -1.976744
v 4.759026 4.402755 -1.976744
v 5.460789 4.402755 -1.976744
v 0.548448 2.994723 -0.506426
v 0.548448 -2.009613 -0.506426
v -6.469181 2.994723 2.157730
v -6.469181 -2.009613 2.157730
v 5.460789 -2.009611 -2.221797
v -0.153315 -2.009611 -0.261373
v -0.153315 2.994723 -0.261373
v 0.119102 -2.009611 -0.261373
v 0.119102 2.994723 -0.261373
v 0.295233 2.994723 -0.261373
v 0.295233 -2.009611 -0.261373
v 0.548448 -2.009611 -0.261373
v 0.548448 2.994723 -0.261373
v 5.460789 -2.009611 -1.976744
v -0.153315 4.402755 -0.261373
v -0.153315 -3.903791 -0.261373
v 0.548448 4.402755 -0.261373
v 0.548448 -3.903791 -0.261373
v 5.460789 -2.869116 -2.221797
v 5.460789 -3.044121 -2.221797
v -0.153315 4.402755 -0.016320
v -0.855077 4.402755 -0.016320
v -0.855077 -3.903791 -0.016320
v -0.153315 -3.903791 -0.016320
v 5.460789 -3.049954 -1.976744
v 5.460789 -2.877247 -1.976744
v 5.207574 -2.876678 -1.976744
v 5.031443 4.402755 -1.976745
v 5.207574 4.402755 -1.976744
v 5.031443 -3.051092 -1.976744
v 0.548448 2.994723 -0.261373
v 0.548448 -2.009613 -0.261374
v -0.153315 2.994723 -0.261373
v -0.153315 -2.009613 -0.261374
v 5.460789 2.994723 -2.221797
v -0.855077 -2.009611 -0.016320
v -0.855077 2.994723 -0.016320
v -0.153315 -2.009611 -0.016320
v -0.153315 2.994723 -0.016320
v 5.460789 2.994723 -1.976744
v 5.031443 2.994723 -1.976744
v 4.759026 2.994723 -1.976744
v 4.759026 -2.009611 -1.976744
v 5.207574 2.994723 -1.976744
v 5.031443 -2.009611 -1.976744
v 5.207574 -2.009611 -1.976744
v -0.153315 4.402755 -0.016320
v -0.153315 -3.903791 -0.016320
v 5.460789 -3.903791 -1.976744
v 5.460789 4.402755 -1.976744
v 5.460789 -2.877247 -1.976744
v 5.460789 -3.049954 -1.976744
v -1.556840 4.402755 0.228733
v -1.556840 -3.903791 0.228733
v -0.582661 -3.051092 -0.016320
v -0.153315 -2.877247 -0.016320
v -0.406530 4.402755 -0.016320
v -0.582661 4.402755 -0.016321
v -0.153315 -3.049954 -0.016320
v -0.406530 -2.876678 -0.016320
v -0.153315 2.994723 -0.016320
v -0.153315 -2.009613 -0.016320
v 5.460789 2.994723 -1.976744
v 5.460789 -2.009611 -1.976744
v -0.582661 -2.009611 -0.016320
v -0.582661 2.994723 -0.016320
v -0.406530 2.994723 -0.016320
v -0.406530 -2.009611 -0.016320
v -0.855077 4.402755 -0.016320
v -0.855077 -3.903791 -0.016320
v -0.855077 4.402755 0.228733
v -0.855077 -2.877247 0.228733
v -0.855077 -3.049954 0.228733
v -0.855077 -3.903791 0.228733
v -1.108293 -2.876678 0.228733
v -0.855077 2.994723 -0.016320
v -0.855077 -2.009613 -0.016320
v -1.556840 -2.009611 0.228733
v -1.556840 2.994723 0.228733
v -1.284424 -2.009611 0.228733
v -1.284424 2.994723 0.228733
v -1.108293 2.994723 0.228733
v -0.855077 -2.009611 0.228733
v -0.855077 2.994723 0.228733
v -0.855077 -3.903791 0.228733
v -0.855077 4.402755 0.228733
v -1.556840 4.402755 0.228733
v -1.556840 -3.903791 0.228733
v -1.556840 -3.903791 0.473786
v -1.284424 -3.051092 0.228733
v -1.108293 4.402755 0.228733
v -1.284424 4.402755 0.228732
v -2.258604 -3.903791 0.473786
v -2.258604 4.402755 0.473786
v -1.556840 4.402755 0.473786
v -0.855077 2.994723 0.228733
v -0.855077 -2.009613 0.228732
v -1.556840 -2.009613 0.228732
v -1.556840 -2.009611 0.473786
v -1.108293 -2.009611 0.228733
v -1.556840 -3.903791 0.473786
v -1.556840 4.402755 0.473786
v -1.556840 -2.877247 0.473786
v -1.556840 -3.049954 0.473786
v -1.810056 -2.876678 0.473786
v -1.986187 4.402755 0.473785
v -1.810056 4.402755 0.473786
v -1.986187 -3.051092 0.473786
v -1.556840 2.994723 0.228733
v -2.258604 -2.009611 0.473786
v -2.258604 2.994723 0.473786
v -1.986187 -2.009611 0.473786
v -1.986187 2.994723 0.473786
v -1.810056 2.994723 0.473786
v -1.810056 -2.009611 0.473786
v -1.556840 2.994723 0.473786
v -2.258604 4.402755 0.473786
v -2.258604 -3.903791 0.473786
v 4.759026 4.402755 -1.976744
v 4.759026 -3.903791 -1.976744
v 4.759026 4.402755 -1.731691
v 4.057262 4.402755 -1.731691
v 4.057262 -3.903791 -1.731691
v 4.759026 -3.903791 -1.731691
v -2.258604 -3.903791 0.718838
v -2.258604 -3.049954 0.718838
v -2.258604 -2.877247 0.718838
v -2.960366 -3.903791 0.718838
v -2.960366 4.402755 0.718838
v -2.258604 4.402755 0.718838
v -1.556840 2.994723 0.473786
v -1.556840 -2.009613 0.473786
v -2.258604 2.994723 0.473786
v -2.258604 -2.009613 0.473786
v -2.960366 -2.009611 0.718838
v -2.960366 2.994723 0.718838
v -2.258604 -2.009611 0.718838
v -2.258604 2.994723 0.718838
v -2.258604 -3.903791 0.718838
v -2.258604 4.402755 0.718838
v -2.960366 4.402755 0.718838
v -2.960366 -3.903791 0.718838
v 4.759026 -2.009615 -1.976744
v 4.759026 -2.009615 -1.976744
v 4.759026 -2.877247 -1.731691
v 4.329679 4.402755 -1.731692
v 4.759026 -3.049954 -1.731691
v 4.505811 -2.876678 -1.731691
v -2.511818 -2.876678 0.718838
v -2.687950 4.402755 0.718838
v -2.511818 4.402755 0.718838
v -2.687950 -3.051092 0.718838
v -3.662129 -3.903791 0.963892
v -3.662129 4.402755 0.963892
v 4.759026 2.994723 -1.976744
v 4.759026 -2.009611 -1.976744
v -2.258604 2.994723 0.718838
v -2.258604 -2.009613 0.718838
v -2.687950 -2.009611 0.718838
v -2.687950 2.994723 0.718839
v -2.511818 2.994723 0.718839
v -2.511818 -2.009611 0.718838
v 4.057262 -2.009611 -1.731691
v 4.057262 2.994723 -1.731691
v 4.329679 -2.009611 -1.731691
v 4.329679 2.994723 -1.731691
v 4.505811 2.994723 -1.731691
v 4.505811 -2.009611 -1.731691
v 4.759026 -2.009611 -1.731691
v 4.759026 2.994723 -1.731691
v 4.057262 4.402755 -1.731691
v 4.057262 -3.903791 -1.731691
v 4.057262 4.402755 -1.486638
v 3.355500 4.402755 -1.486638
v 4.057262 -2.877247 -1.486638
v 4.057262 -3.049954 -1.486638
v 3.355500 -3.903791 -1.486638
v 4.057262 -3.903791 -1.486638
v 4.329679 -3.051092 -1.731691
v 4.505811 4.402755 -1.731691
v -2.960366 -3.903791 0.963892
v -2.960366 -3.049954 0.963892
v -2.960366 -2.877247 0.963892
v -3.213581 -2.876678 0.963892
v -3.389712 4.402755 0.963891
v -2.960366 4.402755 0.963892
v 4.057262 2.994723 -1.731691
v 4.057262 -2.009613 -1.731692
v -2.960366 2.994723 0.718838
v -2.960366 -2.009613 0.718838
v -3.662129 -2.009611 0.963892
v -3.662129 2.994723 0.963892
v -3.389712 -2.009611 0.963892
v -3.389712 2.994723 0.963892
v -3.213581 2.994723 0.963892
v -3.213581 -2.009611 0.963892
v -2.960366 -2.009611 0.963892
v -2.960366 2.994723 0.963892
v 3.355500 -2.009611 -1.486638
v 3.355500 2.994723 -1.486638
v 4.057262 -2.009611 -1.486638
v 4.057262 2.994723 -1.486638
v -2.960366 -3.903791 0.963892
v -2.960366 4.402755 0.963892
v -3.662129 4.402755 0.963892
v -3.662129 -3.903791 0.963892
v 4.057262 4.402755 -1.486638
v 4.057262 -3.903791 -1.486638
v 4.759026 -2.009615 -1.731691
v 4.759026 4.402755 -1.731691
v 4.759026 -2.009615 -1.731691
v 4.759026 -3.903791 -1.731691
v 3.627916 -3.051092 -1.486638
v 3.804048 4.402755 -1.486638
v 3.627916 4.402755 -1.486639
v 3.804048 -2.876678 -1.486638
v -3.213581 4.402755 0.963892
v -3.389712 -3.051092 0.963892
v -3.662129 -3.903791 1.208944
v -4.363893 -3.903791 1.208944
v -4.363893 4.402755 1.208944
v -3.662129 4.402755 1.208944
v 4.759026 2.994723 -1.731691
v 4.759026 -2.009611 -1.731691
v -2.960366 2.994723 0.963892
v -2.960366 -2.009613 0.963892
v -3.662129 2.994723 0.963892
v -3.662129 -2.009613 0.963892
v -3.662129 -2.009611 1.208944
v 3.627916 -2.009611 -1.486638
v 3.627916 2.994723 -1.486638
v 3.804048 2.994723 -1.486638
v 3.804048 -2.009611 -1.486638
v -4.363893 -2.009611 1.208944
v -3.662129 -3.903791 1.208944
v -3.662129 4.402755 1.208944
v 3.355500 4.402755 -1.486638
v 3.355500 -3.903791 -1.486638
v 3.355500 4.402755 -1.241585
v 2.653737 4.402755 -1.241585
v 3.355500 -2.877247 -1.241585
v 3.355500 -3.049954 -1.241585
v 2.653737 -3.903791 -1.241585
v 3.355500 -3.903791 -1.241585
v -3.662129 -3.049954 1.208944
v -3.662129 -2.877247 1.208944
v -3.915344 -2.876678 1.208944
v -4.091475 4.402755 1.208944
v -3.915344 4.402755 1.208944
v -4.091475 -3.051092 1.208944
v 4.057262 2.994723 -1.486638
v 4.057262 -2.009613 -1.486638
v 3.355500 2.994723 -1.486638
v 3.355500 -2.009613 -1.486638
v -3.662129 2.994723 1.208944
v -3.662129 -2.009613 1.208944
v -3.662129 2.994723 1.208944
v 2.653737 -2.009611 -1.241585
v 2.653737 2.994723 -1.241585
v 3.355500 -2.009611 -1.241585
v 3.355500 2.994723 -1.241585
v -4.091475 2.994723 1.208945
v -4.363893 2.994723 1.208944
v -3.915344 2.994723 1.208945
v -4.091475 -2.009611 1.208944
v -3.915344 -2.009611 1.208944
v 2.653737 4.402755 -1.241585
v 2.653737 -3.903791 -1.241585
v -4.363893 4.402755 1.208944
v 3.355500 4.402755 -1.241585
v 3.355500 -3.903791 -1.241585
v -4.363893 -3.903791 1.208944
v 1.951974 4.402755 -0.996532
v 1.951974 -3.903791 -0.996532
v 2.926154 -3.051092 -1.241585
v 3.102285 4.402755 -1.241585
v 2.926154 4.402755 -1.241586
v 3.102285 -2.876678 -1.241585
v -4.363893 -3.903791 1.453998
v -4.363893 -3.049954 1.453998
v -4.363893 -2.877247 1.453998
v -5.065655 -3.903791 1.453998
v -4.617107 -2.876678 1.453998
v -5.065655 4.402755 1.453998
v -4.363893 4.402755 1.453998
v 3.355500 2.994723 -1.241585
v 3.355500 -2.009613 -1.241586
v -4.363893 2.994723 1.208944
v -4.363893 -2.009613 1.208944
v 2.926154 -2.009611 -1.241585
v 2.926154 2.994723 -1.241585
v 3.102285 2.994723 -1.241585
v 3.102285 -2.009611 -1.241585
v -4.363893 -2.009611 1.453998
v -4.363893 2.994723 1.453998
v -4.793239 2.994723 1.453998
v -5.065655 2.994723 1.453998
v -5.065655 -2.009611 1.453998
v -4.363893 -3.903791 1.453998
v -4.363893 4.402755 1.453998
v -5.065655 4.402755 1.453998
v -5.065655 -3.903791 1.453998
v 2.653737 4.402755 -0.996532
v 2.653737 -2.877247 -0.996532
v 2.224391 4.402755 -0.996533
v 2.653737 -3.049954 -0.996532
v 2.653737 -3.903791 -0.996532
v 2.400522 -2.876678 -0.996532
v -4.793239 4.402755 1.453997
v -4.617107 4.402755 1.453998
v -4.793239 -3.051092 1.453998
v -5.065655 -3.903791 1.699051
v -5.767418 -3.903791 1.699051
v -5.767418 4.402755 1.699051
v -5.065655 4.402755 1.699051
v 2.653737 2.994723 -1.241585
v 2.653737 -2.009613 -1.241586
v -4.363893 2.994723 1.453998
v -4.363893 -2.009613 1.453997
v 1.951974 -2.009611 -0.996532
v 1.951974 2.994723 -0.996532
v 2.224391 -2.009611 -0.996532
v 2.224391 2.994723 -0.996532
v 2.400522 2.994723 -0.996532
v 2.400522 -2.009611 -0.996532
v 2.653737 -2.009611 -0.996532
v 2.653737 2.994723 -0.996532
v -4.617107 2.994723 1.453998
v -4.793239 -2.009611 1.453998
v -4.617107 -2.009611 1.453998
v 1.951974 4.402755 -0.996532
v 1.951974 -3.903791 -0.996532
v 2.653737 4.402755 -0.996532
v 2.653737 -3.903791 -0.996532
v 1.951974 4.402755 -0.751479
v 1.250211 4.402755 -0.751479
v 1.250211 -3.903791 -0.751479
v 1.951974 -3.903791 -0.751479
v 2.224391 -3.051092 -0.996532
v 2.400522 4.402755 -0.996532
v -5.065655 -3.049954 1.699051
v -5.065655 -2.877247 1.699051
v -5.318871 -2.876678 1.699051
v -5.495001 4.402755 1.699050
v -5.318871 4.402755 1.699051
v -5.495001 -3.051092 1.699051
v 2.653737 2.994723 -0.996532
v 2.653737 -2.009613 -0.996532
v 1.951974 2.994723 -0.996532
v 1.951974 -2.009613 -0.996532
v -5.065655 2.994723 1.453998
v -5.065655 -2.009613 1.453997
v 1.250211 -2.009611 -0.751479
v 1.951974 -2.009611 -0.751479
v -5.065655 -2.009611 1.699051
v -5.065655 2.994723 1.699051
v -5.495001 2.994723 1.699051
v -5.767418 2.994723 1.699051
v -5.767418 -2.009611 1.699051
v -5.318871 2.994723 1.699051
v -5.495001 -2.009611 1.699051
v -5.318871 -2.009611 1.699051
v 1.951974 4.402755 -0.751479
v 1.951974 -3.903791 -0.751479
v -5.065655 -3.903791 1.699051
v -5.065655 4.402755 1.699051
v -5.767418 4.402755 1.699051
v -5.767418 -3.903791 1.699051
v 1.522628 -3.051092 -0.751479
v 1.951974 -2.877247 -0.751479
v 1.698759 4.402755 -0.751479
v 1.522628 4.402755 -0.751480
v 1.951974 -3.049954 -0.751479
v 1.698759 -2.876678 -0.751479
v -5.767418 -3.903791 1.944104
v -6.469181 -3.903791 1.944104
v -6.469181 4.402755 1.944104
v -5.767418 4.402755 1.944104
v 1.951974 2.994723 -0.751479
v 1.951974 -2.009613 -0.751480
v -5.065655 2.994723 1.699051
v -5.065655 -2.009613 1.699051
v -5.767418 2.994723 1.699051
v -5.767418 -2.009613 1.699051
v 1.250211 2.994723 -0.751479
v 1.522628 -2.009611 -0.751479
v 1.522628 2.994723 -0.751479
v 1.698759 2.994723 -0.751479
v 1.698759 -2.009611 -0.751479
v 1.951974 2.994723 -0.751479
v -5.767418 -2.009611 1.944104
v -5.767418 2.994723 1.944104
v -6.469181 2.994723 1.944104
v -6.469181 -2.009611 1.944104
v 1.558648 4.379456 -0.753284
v 1.242330 4.379456 -0.511198
v 1.235294 4.379456 -0.762507
v 0.853895 4.379456 -0.510796
v 0.537576 4.379456 -0.268709
v 0.530542 4.379456 -0.520018
v 0.155400 4.379456 -0.263533
v -0.160920 4.379456 -0.021446
v -0.167954 4.379456 -0.272755
v -0.545516 4.379456 -0.018862
v -0.861835 4.379456 0.223225
v -0.868870 4.379456 -0.028085
v -1.247299 4.379456 0.223737
v -1.563619 4.379456 0.465824
v -1.570653 4.379456 0.214514
v -2.655016 4.379456 0.711241
v -2.971335 4.379456 0.953328
v -2.978372 4.379456 0.702018
v -3.353513 4.379456 0.958504
v -3.669832 4.379456 1.200591
v -3.676867 4.379456 0.949282
v -4.054428 4.379456 1.203174
v -4.370748 4.379456 1.445261
v -4.377782 4.379456 1.193952
v -4.756211 4.379456 1.445774
v -5.072530 4.379456 1.687860
v -5.079566 4.379456 1.436551
v -5.481987 4.379456 1.694490
v -5.798306 4.379456 1.936577
v -5.805340 4.379456 1.685267
v -6.183770 4.379456 1.937089
v -6.500089 4.379456 2.179176
v -6.507125 4.379456 1.927866
v 5.065178 4.379456 -1.984529
v 4.748858 4.379456 -1.742443
v 4.741824 4.379456 -1.993752
v 4.360425 4.379456 -1.742041
v 4.044106 4.379456 -1.499954
v 4.037071 4.379456 -1.751263
v 3.661929 4.379456 -1.494778
v 3.345610 4.379456 -1.252691
v 3.338575 4.379456 -1.504000
v 2.961014 4.379456 -1.250107
v 2.644694 4.379456 -1.008020
v 2.637659 4.379456 -1.259330
v 2.259230 4.379456 -1.007508
v 1.942911 4.379456 -0.765421
v 1.935876 4.379456 -1.016731
vt 1.308061 0.000000
vt 1.182364 0.000000
vt 1.103692 0.000000
vt 0.885124 0.000000
vt 0.757826 0.000000
vt 1.160663 0.000000
vt 0.865010 0.000000
vt 0.891356 0.000000
vt 1.092794 0.000000
vt 1.251691 0.000000
vt 0.757095 0.000000
vt 1.206394 0.000000
vt 0.955937 0.000000
vt 1.416671 0.000000
vt 0.273800 0.000000
vt -10.497761 0.000000
vt 1.214638 0.000000
vt 1.150890 0.000000
vt 1.517666 0.000000
vt 13.193554 0.000000
vt 0.110524 0.000000
vt 0.947087 0.000000
vt 1.534719 0.000000
vt 0.280028 0.000000
vt 0.989585 0.000000
vt -0.450726 0.000000
vt 0.790678 0.000000
vt 0.152082 0.000000
vt 1.440276 0.000000
vt 1.402872 0.000000
vt 1.144558 0.000000
vt 1.174079 0.000000
vt 0.644941 0.000000
vt 0.611358 0.000000
vt 0.612088 0.000000
vn 1.000000 0.000000 0.000000
vn 1.000000 0.000000 0.000000
vn 1.000000 0.000000 0.000000
vn 1.000000 0.000000 0.000000
vn 0.000000 0.000000 1.000000
vn 0.000001 0.000001 1.000000
vn 0.000000 0.000000 1.000000
vn 0.000000 0.000000 1.000000
vn 0.000000 0.000000 1.000000
vn 0.000000 0.000000 1.000000
vn 0.000000 0.000000 1.000000
vn 0.000000 0.000000 1.000000
vn 0.000000 0.000000 1.000000
vn 0.000000 0.000000 1.000000
vn -0.000000 0.000001 1.000000
vn -0.000001 0.000000 1.000000
vn 0.000000 0.000000 1.000000
vn 1.000000 0.000000 0.000000
vn 1.000000 0.000000 0.000000
vn 1.000000 0.000000 0.000000
vn 1.000000 0.000000 0.000000
vn 0.000000 0.000000 1.000000
vn -0.000002 -0.000000 1.000000
vn -0.000001 0.000000 1.000000
vn 0.000000 0.000000 1.000000
vn 0.000002 0.000000 1.000000
vn -0.000001 0.000000 1.000000
vn 0.000001 0.000000 1.000000
vn -0.000000 -0.000000 1.000000
vn 0.000000 -0.000000 1.000000
vn 1.000000 0.000000 0.000000
vn 1.000000 0.000000 0.000000
vn 1.000000 0.000000 0.000000
vn 1.000000 0.000000 0.000000
vn 1.000000 0.000000 0.000000
vn 1.000000 0.000000 0.000000
vn 0.000000 0.000000 1.000000
vn 0.000001 0.000001 1.000000
vn 0.000000 0.000000 1.000000
vn 0.000000 0.000000 1.000000
vn 0.000000 0.000000 1.000000
vn -0.000001 0.000000 1.000000
vn -0.000000 0.000001 1.000000
vn 1.000000 0.000000 0.000000
vn 1.000000 0.000000 0.000000
vn 1.000000 0.000000 0.000000
vn 1.000000 0.000000 0.000000
vn -0.000000 -0.000000 1.000000
vn 0.000001 0.000000 1.000000
vn 0.000000 -0.000000 1.000000
vn 1.000000 0.000000 0.000000
vn 1.000000 0.000000 0.000000
vn 1.000000 0.000000 0.000000
vn 1.000000 0.000000 0.000000
vn 0.000000 0.000000 1.000000
vn 0.000000 0.000000 1.000000
vn -0.000001 0.000000 1.000000
vn -0.000000 0.000001 1.000000
vn 0.000000 0.000000 1.000000
vn 0.000000 0.000000 1.000000
vn 0.000000 0.000000 1.000000
vn 0.000000 0.000000 1.000000
vn 0.000001 0.000001 1.000000
vn 0.000000 0.000000 1.000000
vn 1.000000 0.000000 0.000000
vn 1.000000 0.000000 0.000000
vn 1.000000 0.000000 0.000000
vn 1.000000 0.000000 0.000000
vn 1.000000 0.000000 0.000000
vn 0.000000 0.000000 1.000000
vn -0.000002 -0.000000 1.000000
vn -0.000000 -0.000000 1.000000
vn -0.000001 0.000000 1.000000
vn 0.000001 0.000000 1.000000
vn 0.000000 -0.000000 1.000000
vn 0.000000 0.000000 1.000000
vn 0.000002 0.000000 1.000000
vn 0.000000 0.000000 1.000000
vn 1.000000 0.000000 0.000000
vn 1.000000 0.000000 0.000000
vn 1.000000 0.000000 0.000000
vn 1.000000 0.000000 0.000000
vn 1.000000 0.000000 0.000000
vn 1.000000 0.000000 0.000000
vn 0.000000 0.000000 1.000000
vn 0.000001 0.000001 1.000000
vn 0.000000 0.000000 1.000000
vn 0.000000 0.000000 1.000000
vn 0.000000 0.000000 1.000000
vn 0.000000 0.000000 1.000000
vn 0.000000 0.000000 1.000000
vn -0.000000 0.000001 1.000000
vn -0.000001 0.000000 1.000000
vn 0.000000 0.000000 1.000000
vn 1.000000 0.000000 0.000000
vn 1.000000 0.000000 0.000000
vn 1.000000 0.000000 0.000000
vn 1.000000 0.000000 0.000000
vn 1.000000 0.000000 0.000000
vn 0.000000 0.000000 1.000000
vn -0.000002 -0.000000 1.000000
vn 0.000000 0.000000 1.000000
vn 0.000002 0.000000 1.000000
vn 0.000002 0.000000 1.000000
vn -0.000001 0.000000 1.000000
vn -0.000002 -0.000000 1.000000
vn 0.000000 0.000000 1.000000
vn 0.000001 0.000000 1.000000
vn -0.000000 -0.000000 1.000000
vn 0.000000 -0.000000 1.000000
vn 1.000000 0.000000 0.000000
vn 1.000000 0.000000 0.000000
vn 1.000000 0.000000 0.000000
vn 1.000000 0.000000 0.000000
vn 1.000000 0.000000 0.000000
vn 1.000000 0.000000 0.000000
vn 0.000001 0.000001 1.000000
vn 0.000000 0.000000 1.000000
vn 0.000000 0.000000 1.000000
vn 0.000000 0.000000 1.000000
vn -0.000001 0.000000 1.000000
vn -0.000000 0.000001 1.000000
vn 0.000000 0.000000 1.000000
vn 0.000000 0.000000 1.000000
vn 1.000000 0.000000 0.000000
vn 1.000000 0.000000 0.000000
vn 1.000000 0.000000 0.000000
vn 1.000000 0.000000 0.000000
vn -0.000000 -0.000000 1.000000
vn -0.000001 0.000000 1.000000
vn 0.000001 0.000000 1.000000
vn 0.000000 -0.000000 1.000000
vn 1.000000 0.000000 0.000000
vn 1.000000 0.000000 0.000000
vn 0.000000 0.000000 1.000000
vn 0.000000 0.000000 1.000000
vn 0.000000 0.000000 1.000000
vn 0.000000 0.000000 1.000000
vn 0.000000 0.000000 1.000000
vn 1.000000 0.000000 0.000000
vn 1.000000 0.000000 0.000000
vn 0.000000 0.000000 1.000000
vn -0.000002 -0.000000 1.000000
vn -0.000000 -0.000000 1.000000
vn -0.000001 0.000000 1.000000
vn 0.000001 0.000000 1.000000
vn 0.000000 0.000000 1.000000
vn 0.000002 0.000000 1.000000
vn 1.000000 0.000000 0.000000
vn 1.000000 0.000000 0.000000
vn 1.000000 0.000000 0.000000
vn 1.000000 0.000000 0.000000
vn 0.000000 0.000000 1.000000
vn 0.000000 0.000000 1.000000
vn -0.000001 0.000000 1.000000
vn -0.000000 0.000001 1.000000
vn 0.000000 0.000000 1.000000
vn 0.000001 0.000000 1.000000
vn 0.000000 0.000000 1.000000
vn 1.000000 0.000000 0.000000
vn 1.000000 0.000000 0.000000
vn 1.000000 0.000000 0.000000
vn 0.000000 0.000000 1.000000
vn 0.000000 -0.000000 1.000000
vn 1.000000 0.000000 0.000000
vn 1.000000 0.000000 0.000000
vn 0.000000 0.000000 1.000000
vn 0.000000 0.000000 1.000000
vn 0.000000 0.000000 1.000000
vn -0.000000 0.000000 1.000000
vn -0.000001 0.000000 1.000000
vn 0.000000 0.000000 1.000000
vn 1.000000 0.000000 0.000000
vn 0.000000 0.000000 1.000000
vn -0.000001 -0.000000 1.000000
vn -0.000000 -0.000000 1.000000
vn -0.000000 0.000000 1.000000
vn 0.000000 0.000000 1.000000
vn 0.000000 -0.000000 1.000000
vn 0.000001 0.000000 1.000000
vn 1.000000 0.000000 0.000000
vn 1.000000 0.000000 0.000000
vn 1.000000 0.000000 0.000000
vn 1.000000 0.000000 0.000000
vn 0.000000 0.000000 1.000000
vn 0.000001 0.000001 1.000000
vn 0.000000 0.000000 1.000000
vn 0.000000 0.000000 1.000000
vn 0.000000 0.000000 1.000000
vn 0.000000 0.000000 1.000000
vn 0.000000 0.000000 1.000000
vn 0.000000 0.000000 1.000000
vn 0.000001 0.000001 1.000000
vn 0.000000 0.000000 1.000000
vn 1.000000 0.000000 0.000000
vn 1.000000 0.000000 0.000000
vn 1.000000 0.000000 0.000000
vn 1.000000 0.000000 0.000000
vn 0.000000 0.000000 1.000000
vn -0.000002 -0.000000 1.000000
vn 0.000000 0.000000 1.000000
vn 0.000002 0.000000 1.000000
vn 1.000000 0.000000 0.000000
vn 1.000000 0.000000 0.000000
vn 1.000000 0.000000 0.000000
vn 1.000000 0.000000 0.000000
vn 1.000000 0.000000 0.000000
vn 1.000000 0.000000 0.000000
vn 0.000000 0.000000 1.000000
vn -0.000000 0.000001 1.000000
vn 0.000000 0.000000 1.000000
vn 0.000000 0.000000 1.000000
vn 0.000000 0.000000 1.000000
vn -0.000000 0.000001 1.000000
vn -0.000001 0.000000 1.000000
vn 0.000000 0.000000 1.000000
vn 0.000000 0.000000 1.000000
vn 0.000001 0.000001 1.000000
vn 1.000000 0.000000 0.000000
vn 1.000000 0.000000 0.000000
vn 1.000000 0.000000 0.000000
vn 1.000000 0.000000 0.000000
vn -0.000000 -0.000000 1.000000
vn -0.000001 0.000000 1.000000
vn 0.000001 0.000000 1.000000
vn 0.000000 -0.000000 1.000000
vn 0.000000 0.000000 1.000000
vn -0.000002 -0.000000 1.000000
vn -0.000000 -0.000000 1.000000
vn -0.000001 0.000000 1.000000
vn 0.000001 0.000000 1.000000
vn 0.000000 -0.000000 1.000000
vn 0.000000 0.000000 1.000000
vn 0.000002 0.000000 1.000000
vn 1.000000 0.000000 0.000000
vn 1.000000 0.000000 0.000000
vn 0.000000 0.000000 1.000000
vn 0.000001 0.000001 1.000000
vn 0.000000 0.000000 1.000000
vn 0.000000 0.000000 1.000000
vn 0.000000 0.000000 1.000000
vn 0.000000 0.000000 1.000000
vn 0.000000 0.000000 1.000000
vn -0.000001 0.000000 1.000000
vn 0.000000 0.000000 1.000000
vn 0.000000 0.000000 1.000000
vn 0.000000 0.000000 1.000000
vn 0.000000 0.000000 1.000000
vn -0.000000 0.000001 1.000000
vn 0.000000 0.000000 1.000000
vn 1.000000 0.000000 0.000000
vn 1.000000 0.000000 0.000000
vn 1.000000 0.000000 0.000000
vn 1.000000 0.000000 0.000000
vn 0.000000 0.000000 1.000000
vn -0.000002 -0.000000 1.000000
vn -0.000000 -0.000000 1.000000
vn -0.000001 0.000000 1.000000
vn 0.000001 0.000000 1.000000
vn 0.000000 -0.000000 1.000000
vn 0.000000 0.000000 1.000000
vn 0.000002 0.000000 1.000000
vn 0.000000 0.000000 1.000000
vn -0.000002 -0.000000 1.000000
vn 0.000000 0.000000 1.000000
vn 0.000002 0.000000 1.000000
vn 1.000000 0.000000 0.000000
vn 1.000000 0.000000 0.000000
vn 1.000000 0.000000 0.000000
vn 1.000000 0.000000 0.000000
vn 1.000000 0.000000 0.000000
vn 1.000000 0.000000 0.000000
vn 1.000000 0.000000 0.000000
vn 1.000000 0.000000 0.000000
vn 1.000000 0.000000 0.000000
vn 1.000000 0.000000 0.000000
vn 0.000000 0.000000 1.000000
vn -0.000001 0.000000 1.000000
vn -0.000000 0.000000 1.000000
vn 0.000000 0.000000 1.000000
vn -0.000001 0.000000 1.000000
vn 0.000000 0.000000 1.000000
vn 0.000000 0.000000 1.000000
vn 0.000000 0.000000 1.000000
vn 0.000001 0.000001 1.000000
vn 0.000000 0.000000 1.000000
vn 1.000000 0.000000 0.000000
vn 1.000000 0.000000 0.000000
vn 1.000000 0.000000 0.000000
vn 1.000000 0.000000 0.000000
vn 1.000000 0.000000 0.000000
vn 1.000000 0.000000 0.000000
vn 0.000000 0.000000 1.000000
vn -0.000000 -0.000000 1.000000
vn -0.000001 0.000000 1.000000
vn 0.000001 0.000000 1.000000
vn 0.000000 -0.000000 1.000000
vn 0.000000 0.000000 1.000000
vn 1.000000 0.000000 0.000000
vn 1.000000 0.000000 0.000000
vn 1.000000 0.000000 0.000000
vn 1.000000 0.000000 0.000000
vn 0.000000 0.000000 1.000000
vn 0.000001 0.000001 1.000000
vn 0.000000 0.000000 1.000000
vn 0.000000 0.000000 1.000000
vn 0.000000 0.000000 1.000000
vn 0.000000 0.000000 1.000000
vn 0.000000 0.000000 1.000000
vn 0.000000 0.000000 1.000000
vn 0.000000 0.000000 1.000000
vn -0.000000 0.000001 1.000000
vn -0.000001 0.000000 1.000000
vn 0.000000 0.000000 1.000000
vn 1.000000 0.000000 0.000000
vn 1.000000 0.000000 0.000000
vn 1.000000 0.000000 0.000000
vn 1.000000 0.000000 0.000000
vn 1.000000 0.000000 0.000000
vn 1.000000 0.000000 0.000000
vn 0.000002 0.000000 1.000000
vn 0.000000 0.000000 1.000000
vn -0.000002 -0.000000 1.000000
vn 0.000000 0.000000 1.000000
vn 0.000002 0.000000 1.000000
vn -0.000001 0.000000 1.000000
vn -0.000002 -0.000000 1.000000
vn 0.000001 0.000000 1.000000
vn -0.000000 -0.000000 1.000000
vn 0.000000 -0.000000 1.000000
vn 1.000000 0.000000 0.000000
vn 1.000000 0.000000 0.000000
vn 1.000000 0.000000 0.000000
vn 1.000000 0.000000 0.000000
vn 1.000000 0.000000 0.000000
vn 1.000000 0.000000 0.000000
vn 0.000001 0.000001 1.000000
vn 0.000000 0.000000 1.000000
vn 0.000000 0.000000 1.000000
vn -0.000001 0.000000 1.000000
vn -0.000000 0.000001 1.000000
vn 0.000000 0.000000 1.000000
vn 0.000000 0.000000 1.000000
vn 0.000000 0.000000 1.000000
vn 0.000000 0.000000 1.000000
vn 0.000000 0.000000 1.000000
vn 0.000000 0.000000 1.000000
vn 0.000001 0.000001 1.000000
vn 0.000000 0.000000 1.000000
vn 1.000000 0.000000 0.000000
vn 1.000000 0.000000 0.000000
vn 1.000000 0.000000 0.000000
vn 1.000000 0.000000 0.000000
vn -0.000000 -0.000000 1.000000
vn -0.000001 0.000000 1.000000
vn 0.000001 0.000000 1.000000
vn 0.000000 -0.000000 1.000000
vn 0.000000 0.000000 1.000000
vn 0.000002 0.000000 1.000000
vn -0.000001 0.000000 1.000000
vn -0.000002 -0.000000 1.000000
vn 0.000000 0.000000 1.000000
vn 1.000000 0.000000 0.000000
vn 1.000000 0.000000 0.000000
vn 1.000000 0.000000 0.000000
vn 1.000000 0.000000 0.000000
vn 0.000000 0.000000 1.000000
vn 0.000000 0.000000 1.000000
vn -0.000000 0.000000 1.000000
vn 0.000000 0.000000 1.000000
vn 0.000000 0.000000 1.000000
vn 0.000000 0.000000 1.000000
vn -0.000000 0.000001 1.000000
vn -0.000001 0.000000 1.000000
vn 0.000000 0.000000 1.000000
vn 0.000000 0.000000 1.000000
vn 0.000000 0.000000 1.000000
vn 0.000001 0.000001 1.000000
vn 0.000000 0.000000 1.000000
vn 1.000000 0.000000 0.000000
vn 1.000000 0.000000 0.000000
vn 1.000000 0.000000 0.000000
vn 1.000000 0.000000 0.000000
vn 0.000000 0.000000 1.000000
vn -0.000002 -0.000000 1.000000
vn -0.000000 -0.000000 1.000000
vn -0.000001 0.000000 1.000000
vn 0.000001 0.000000 1.000000
vn 0.000000 -0.000000 1.000000
vn 0.000000 0.000000 1.000000
vn 0.000002 0.000000 1.000000
vn 0.000001 0.000000 1.000000
vn -0.000000 -0.000000 1.000000
vn 0.000000 -0.000000 1.000000
vn 1.000000 0.000000 0.000000
vn 1.000000 0.000000 0.000000
vn 1.000000 0.000000 0.000000
vn 1.000000 0.000000 0.000000
vn 0.000000 0.000000 1.000000
vn 0.000001 0.000001 1.000000
vn 0.000000 0.000000 1.000000
vn 0.000000 0.000000 1.000000
vn 0.000000 0.000000 1.000000
vn -0.000001 0.000000 1.000000
vn 0.000000 0.000000 1.000000
vn 0.000000 0.000000 1.000000
vn 0.000000 0.000000 1.000000
vn -0.000000 0.000001 1.000000
vn -0.000001 0.000000 1.000000
vn 0.000000 0.000000 1.000000
vn 1.000000 0.000000 0.000000
vn 1.000000 0.000000 0.000000
vn 1.000000 0.000000 0.000000
vn 1.000000 0.000000 0.000000
vn 1.000000 0.000000 0.000000
vn 1.000000 0.000000 0.000000
vn 0.000000 0.000000 1.000000
vn 0.000000 0.000000 1.000000
vn 0.000000 0.000000 1.000000
vn 0.000002 0.000000 1.000000
vn -0.000001 0.000000 1.000000
vn -0.000002 -0.000000 1.000000
vn 0.000000 0.000000 1.000000
vn 0.000001 0.000000 1.000000
vn -0.000000 -0.000000 1.000000
vn 0.000000 -0.000000 1.000000
vn 1.000000 0.000000 0.000000
vn 1.000000 0.000000 0.000000
vn 1.000000 0.000000 0.000000
vn 1.000000 0.000000 0.000000
vn 1.000000 0.000000 0.000000
vn 1.000000 0.000000 0.000000
vn 0.000000 0.000000 1.000000
vn 0.000000 0.000000 1.000000
vn -0.000001 0.000000 1.000000
vn -0.000000 0.000000 1.000000
vn 0.000000 0.000000 1.000000
vn 0.000000 0.000000 1.000000
vn 0.000000 0.000000 1.000000
vn 0.000000 0.000000 1.000000
vn 0.000001 0.000001 1.000000
vn 0.000000 0.000000 1.000000
vn 1.000000 0.000000 0.000000
vn 1.000000 0.000000 0.000000
vn 1.000000 0.000000 0.000000
vn 1.000000 0.000000 0.000000
vn 1.000000 0.000000 0.000000
vn 1.000000 0.000000 0.000000
vn -0.000001 -0.000000 1.000000
vn -0.000000 -0.000000 1.000000
vn -0.000001 0.000000 1.000000
vn 0.000001 0.000000 1.000000
vn 0.000000 -0.000000 1.000000
vn 0.000001 0.000000 1.000000
vn 0.000000 0.000000 1.000000
vn 0.000002 0.000000 1.000000
vn -0.000002 -0.000000 1.000000
vn 0.000000 0.000000 1.000000
vn 0.000000 -1.000000 0.000000
vn 0.000000 -1.000000 0.000000
vn 0.000000 -1.000000 0.000000
vn 0.000000 -1.000000 0.000000
vn 0.000000 -1.000000 0.000000
vn 0.000000 -1.000000 0.000000
vn 0.000000 -1.000000 0.000000
vn 0.000000 -1.000000 0.000000
vn 0.000000 -1.000000 0.000000
vn 0.000000 -1.000000 0.000000
vn 0.000000 -1.000000 0.000000
vn 0.000000 -1.000000 0.000000
vn 0.000000 -1.000000 0.000000
vn 0.000000 -1.000000 0.000000
vn 0.000000 -1.000000 0.000000
vn 0.000000 -1.000000 0.000000
vn 0.000000 -1.000000 0.000000
vn 0.000000 -1.000000 0.000000
vn 0.000000 -1.000000 0.000000
vn 0.000000 -1.000000 0.000000
vn 0.000000 -1.000000 0.000000
vn 0.000000 -1.000000 0.000000
vn 0.000000 -1.000000 0.000000
vn 0.000000 -1.000000 0.000000
vn 0.000000 -1.000000 0.000000
vn 0.000000 -1.000000 0.000000
vn 0.000000 -1.000000 0.000000
vn 0.000000 -1.000000 0.000000
vn 0.000000 -1.000000 0.000000
vn 0.000000 -1.000000 0.000000
vn 0.000000 -1.000000 0.000000
vn 0.000000 -1.000000 0.000000
vn 0.000000 -1.000000 0.000000
vn 0.000000 -1.000000 0.000000
vn 0.000000 -1.000000 0.000000
vn 0.000000 -1.000000 0.000000
vn 0.000000 -1.000000 0.000000
vn 0.000000 -1.000000 0.000000
vn 0.000000 -1.000000 0.000000
vn 0.000000 -1.000000 0.000000
vn 0.000000 -1.000000 0.000000
vn 0.000000 -1.000000 0.000000
vn 0.000000 -1.000000 0.000000
vn 0.000000 -1.000000 0.000000
vn 0.000000 -1.000000 0.000000
vn 0.000000 -1.000000 0.000000
vn 0.000000 -1.000000 0.000000
vn 0.000000 -1.000000 0.000000
g fff02c13_00362_00a2e829_e11
f 54/2/54 84/17/84 116/18/116
f 116/18/116 84/17/84 115/16/115
f 84/17/84 83/15/83 115/16/115
f 83/15/83 128/7/128 115/16/115
f 53/1/53 114/6/114 99/12/99
f 99/12/99 114/6/114 127/13/127
f 69/8/69 128/7/128 83/15/83
f 54/2/54 116/18/116 113/3/113
f 36/2/36 47/17/47 68/18/68
f 184/2/184 275/18/275 276/3/276
f 220/8/220 288/7/288 208/15/208
f 219/12/219 274/6/274 287/13/287
f 35/1/35 52/6/52 46/12/46
f 46/12/46 52/6/52 67/13/67
f 183/1/183 274/6/274 219/12/219
f 36/2/36 68/18/68 51/3/51
f 432/2/432 448/17/448 21/18/21
f 208/15/208 288/7/288 273/16/273
f 207/17/207 208/15/208 273/16/273
f 275/18/275 207/17/207 273/16/273
f 431/1/431 4/6/4 447/12/447
f 447/12/447 4/6/4 20/13/20
f 184/2/184 207/17/207 275/18/275
f 432/2/432 21/18/21 3/3/3
f 366/2/366 416/17/416 446/18/446
f 236/2/236 316/18/316 272/3/272
f 251/12/251 271/6/271 315/13/315
f 235/1/235 271/6/271 251/12/251
f 365/1/365 430/6/430 415/12/415
f 415/12/415 430/6/430 445/13/445
f 236/2/236 252/17/252 316/18/316
f 366/2/366 446/18/446 429/3/429
f 336/2/336 353/17/353 383/18/383
f 302/2/302 351/18/351 335/3/335
f 317/12/317 334/6/334 350/13/350
f 301/1/301 334/6/334 317/12/317
f 333/1/333 364/6/364 352/12/352
f 352/12/352 364/6/364 382/13/382
f 302/2/302 318/17/318 351/18/351
f 336/2/336 383/18/383 363/3/363
f 270/2/270 292/17/292 320/18/320
f 332/2/332 412/18/412 398/3/398
f 380/12/380 397/6/397 411/13/411
f 331/1/331 397/6/397 380/12/380
f 269/1/269 300/6/300 291/12/291
f 291/12/291 300/6/300 319/13/319
f 332/2/332 381/17/381 412/18/412
f 270/2/270 320/18/320 299/3/299
f 206/2/206 254/17/254 290/18/290
f 396/2/396 444/18/444 428/3/428
f 413/12/413 427/6/427 443/13/443
f 395/1/395 427/6/427 413/12/413
f 205/1/205 268/6/268 253/12/253
f 253/12/253 268/6/268 289/13/289
f 396/2/396 414/17/414 444/18/444
f 206/2/206 290/18/290 267/3/267
f 182/2/182 198/17/198 222/18/222
f 2/2/2 45/18/45 34/3/34
f 18/12/18 33/6/33 44/13/44
f 1/1/1 33/6/33 18/12/18
f 181/1/181 204/6/204 197/12/197
f 197/12/197 204/6/204 221/13/221
f 2/2/2 19/17/19 45/18/45
f 182/2/182 222/18/222 203/3/203
f 152/2/152 162/17/162 196/18/196
f 32/2/32 96/18/96 82/3/82
f 65/12/65 81/6/81 95/13/95
f 31/1/31 81/6/81 65/12/65
f 151/1/151 166/6/166 173/12/173
f 173/12/173 166/6/166 195/13/195
f 32/2/32 66/17/66 96/18/96
f 152/2/152 196/18/196 165/3/165
f 134/2/134 141/17/141 161/18/161
f 80/2/80 126/18/126 112/3/112
f 97/12/97 111/6/111 125/13/125
f 79/1/79 111/6/111 97/12/97
f 133/1/133 150/6/150 140/12/140
f 140/12/140 150/6/150 160/13/160
f 80/2/80 98/17/98 126/18/126
f 134/2/134 161/18/161 149/3/149
g fff02c13_00362_00a2e829_e9
f 110/32/110 109/31/109 94/28/94
f 64/6/64 93/27/93 104/11/104
f 92/14/92 63/5/63 105/29/105
f 105/29/105 63/5/63 106/23/106
f 110/32/110 94/28/94 91/26/91
f 94/25/94 107/22/107 62/4/62
f 109/31/109 107/21/107 94/28/94
f 93/27/93 108/5/108 104/11/104
f 94/25/94 90/20/90 91/26/91
f 89/19/89 94/25/94 62/4/62
f 78/9/78 91/26/91 90/20/90
f 90/20/90 94/25/94 89/19/89
f 92/24/92 108/5/108 93/27/93
f 92/14/92 105/29/105 108/30/108
f 61/3/61 89/19/89 62/4/62
f 78/9/78 110/32/110 91/26/91
f 172/25/172 167/20/167 169/26/169
f 168/19/168 172/25/172 157/4/157
f 163/9/163 169/26/169 167/20/167
f 167/20/167 172/25/172 168/19/168
f 170/24/170 178/5/178 171/27/171
f 170/14/170 177/29/177 178/30/178
f 153/3/153 168/19/168 157/4/157
f 163/9/163 179/32/179 169/26/169
f 164/32/164 144/31/144 154/28/154
f 135/6/135 155/27/155 148/11/148
f 156/14/156 117/5/117 145/29/145
f 145/29/145 117/5/117 143/23/143
f 164/32/164 154/28/154 139/26/139
f 154/25/154 142/22/142 118/4/118
f 144/31/144 142/21/142 154/28/154
f 155/27/155 146/5/146 148/11/148
f 30/32/30 29/31/29 17/28/17
f 442/6/442 16/27/16 456/11/456
f 15/14/15 441/5/441 27/29/27
f 27/29/27 441/5/441 457/23/457
f 30/32/30 17/28/17 14/26/14
f 17/25/17 458/22/458 440/4/440
f 29/31/29 458/21/458 17/28/17
f 16/27/16 28/5/28 456/11/456
f 17/25/17 13/20/13 14/26/14
f 12/19/12 17/25/17 440/4/440
f 455/9/455 14/26/14 13/20/13
f 13/20/13 17/25/17 12/19/12
f 15/24/15 28/5/28 16/27/16
f 15/14/15 27/29/27 28/30/28
f 439/3/439 12/19/12 440/4/440
f 455/9/455 30/32/30 14/26/14
f 426/32/426 425/31/425 410/28/410
f 379/6/379 409/27/409 420/11/420
f 408/14/408 378/5/378 421/29/421
f 421/29/421 378/5/378 422/23/422
f 426/32/426 410/28/410 407/26/407
f 410/25/410 423/22/423 377/4/377
f 425/31/425 423/21/423 410/28/410
f 409/27/409 424/5/424 420/11/420
f 410/25/410 406/20/406 407/26/407
f 405/19/405 410/25/410 377/4/377
f 419/9/419 407/26/407 406/20/406
f 406/20/406 410/25/410 405/19/405
f 408/24/408 424/5/424 409/27/409
f 408/14/408 421/29/421 424/30/424
f 376/3/376 405/19/405 377/4/377
f 419/9/419 426/32/426 407/26/407
f 394/32/394 393/31/393 375/28/375
f 349/6/349 374/27/374 359/11/359
f 373/14/373 348/5/348 360/29/360
f 360/29/360 348/5/348 361/23/361
f 394/32/394 375/28/375 347/26/347
f 375/25/375 362/22/362 346/4/346
f 393/31/393 362/21/362 375/28/375
f 374/27/374 392/5/392 359/11/359
f 375/25/375 345/20/345 347/26/347
f 344/19/344 375/25/375 346/4/346
f 358/9/358 347/26/347 345/20/345
f 345/20/345 375/25/375 344/19/344
f 373/24/373 392/5/392 374/27/374
f 373/14/373 360/29/360 392/30/392
f 343/3/343 344/19/344 346/4/346
f 358/9/358 394/32/394 347/26/347
f 330/32/330 329/31/329 314/28/314
f 286/6/286 313/27/313 321/11/321
f 312/14/312 285/5/285 326/29/326
f 326/29/326 285/5/285 327/23/327
f 330/32/330 314/28/314 311/26/311
f 314/25/314 298/22/298 284/4/284
f 329/31/329 298/21/298 314/28/314
f 313/27/313 328/5/328 321/11/321
f 314/25/314 310/20/310 311/26/311
f 309/19/309 314/25/314 284/4/284
f 293/9/293 311/26/311 310/20/310
f 310/20/310 314/25/314 309/19/309
f 312/24/312 328/5/328 313/27/313
f 312/14/312 326/29/326 328/30/328
f 283/3/283 309/19/309 284/4/284
f 293/9/293 330/32/330 311/26/311
f 260/32/260 257/31/257 282/28/282
f 250/6/250 281/27/281 262/11/262
f 249/14/249 218/5/218 258/29/258
f 258/29/258 218/5/218 256/23/256
f 260/32/260 282/28/282 248/26/248
f 282/25/282 255/22/255 217/4/217
f 257/31/257 255/21/255 282/28/282
f 281/27/281 259/5/259 262/11/262
f 282/25/282 247/20/247 248/26/248
f 246/19/246 282/25/282 217/4/217
f 261/9/261 248/26/248 247/20/247
f 247/20/247 282/25/282 246/19/246
f 249/24/249 259/5/259 281/27/281
f 249/14/249 258/29/258 259/30/259
f 245/3/245 246/19/246 217/4/217
f 261/9/261 260/32/260 248/26/248
f 226/32/226 223/31/223 216/28/216
f 194/6/194 215/27/215 202/11/202
f 214/14/214 193/5/193 224/29/224
f 224/29/224 193/5/193 200/23/200
f 226/32/226 216/28/216 213/26/213
f 216/25/216 199/22/199 192/4/192
f 223/31/223 199/21/199 216/28/216
f 215/27/215 225/5/225 202/11/202
f 216/25/216 191/20/191 213/26/213
f 190/19/190 216/25/216 192/4/192
f 201/9/201 213/26/213 191/20/191
f 191/20/191 216/25/216 190/19/190
f 214/24/214 225/5/225 215/27/215
f 214/14/214 224/29/224 225/30/225
f 189/3/189 190/19/190 192/4/192
f 201/9/201 226/32/226 213/26/213
f 179/32/179 176/31/176 172/28/172
f 159/6/159 171/27/171 180/11/180
f 170/14/170 158/5/158 177/29/177
f 177/29/177 158/5/158 175/23/175
f 179/32/179 172/28/172 169/26/169
f 172/25/172 174/22/174 157/4/157
f 176/31/176 174/21/174 172/28/172
f 171/27/171 178/5/178 180/11/180
f 233/9/233 232/32/232 212/26/212
f 188/3/188 211/19/211 187/4/187
f 210/14/210 230/29/230 231/30/231
f 210/24/210 231/5/231 244/27/244
f 209/20/209 243/25/243 211/19/211
f 233/9/233 212/26/212 209/20/209
f 211/19/211 243/25/243 187/4/187
f 243/25/243 209/20/209 212/26/212
f 244/27/244 231/5/231 234/11/234
f 229/31/229 227/21/227 243/28/243
f 243/25/243 227/22/227 187/4/187
f 232/32/232 243/28/243 212/26/212
f 230/29/230 186/5/186 228/23/228
f 210/14/210 186/5/186 230/29/230
f 185/6/185 244/27/244 234/11/234
f 232/32/232 229/31/229 243/28/243
f 265/9/265 297/32/297 280/26/280
f 242/3/242 240/19/240 241/4/241
f 279/14/279 295/29/295 296/30/296
f 279/24/279 296/5/296 278/27/278
f 239/20/239 277/25/277 240/19/240
f 265/9/265 280/26/280 239/20/239
f 240/19/240 277/25/277 241/4/241
f 277/25/277 239/20/239 280/26/280
f 278/27/278 296/5/296 266/11/266
f 294/31/294 263/21/263 277/28/277
f 277/25/277 263/22/263 241/4/241
f 297/32/297 277/28/277 280/26/280
f 295/29/295 238/5/238 264/23/264
f 279/14/279 238/5/238 295/29/295
f 237/6/237 278/27/278 266/11/266
f 297/32/297 294/31/294 277/28/277
f 324/9/324 357/32/357 342/26/342
f 308/3/308 306/19/306 307/4/307
f 341/14/341 355/29/355 356/30/356
f 341/24/341 356/5/356 340/27/340
f 305/20/305 339/25/339 306/19/306
f 324/9/324 342/26/342 305/20/305
f 306/19/306 339/25/339 307/4/307
f 339/25/339 305/20/305 342/26/342
f 340/27/340 356/5/356 325/11/325
f 354/31/354 322/21/322 339/28/339
f 339/25/339 322/22/322 307/4/307
f 357/32/357 339/28/339 342/26/342
f 355/29/355 304/5/304 323/23/323
f 341/14/341 304/5/304 355/29/355
f 303/6/303 340/27/340 325/11/325
f 357/32/357 354/31/354 339/28/339
f 390/9/390 389/32/389 372/26/372
f 371/3/371 370/19/370 338/4/338
f 369/14/369 387/29/387 388/30/388
f 369/24/369 388/5/388 404/27/404
f 368/20/368 403/25/403 370/19/370
f 390/9/390 372/26/372 368/20/368
f 370/19/370 403/25/403 338/4/338
f 403/25/403 368/20/368 372/26/372
f 404/27/404 388/5/388 391/11/391
f 386/31/386 384/21/384 403/28/403
f 403/25/403 384/22/384 338/4/338
f 389/32/389 403/28/403 372/26/372
f 387/29/387 337/5/337 385/23/385
f 369/14/369 337/5/337 387/29/387
f 367/6/367 404/27/404 391/11/391
f 389/32/389 386/31/386 403/28/403
f 418/9/418 453/32/453 438/26/438
f 402/3/402 437/19/437 401/4/401
f 436/14/436 451/29/451 452/30/452
f 436/24/436 452/5/452 435/27/435
f 434/20/434 433/25/433 437/19/437
f 418/9/418 438/26/438 434/20/434
f 437/19/437 433/25/433 401/4/401
f 433/25/433 434/20/434 438/26/438
f 435/27/435 452/5/452 454/11/454
f 450/31/450 417/21/417 433/28/433
f 433/25/433 417/22/417 401/4/401
f 453/32/453 433/28/433 438/26/438
f 451/29/451 400/5/400 449/23/449
f 436/14/436 400/5/400 451/29/451
f 399/6/399 435/27/435 454/11/454
f 453/32/453 450/31/450 433/28/433
f 25/9/25 50/32/50 11/26/11
f 10/3/10 8/19/8 9/4/9
f 43/14/43 24/29/24 49/30/49
f 43/24/43 49/5/49 42/27/42
f 7/20/7 41/25/41 8/19/8
f 25/9/25 11/26/11 7/20/7
f 8/19/8 41/25/41 9/4/9
f 41/25/41 7/20/7 11/26/11
f 42/27/42 49/5/49 26/11/26
f 48/31/48 22/21/22 41/28/41
f 41/25/41 22/22/22 9/4/9
f 50/32/50 41/28/41 11/26/11
f 24/29/24 6/5/6 23/23/23
f 43/14/43 6/5/6 24/29/24
f 5/6/5 42/27/42 26/11/26
f 50/32/50 48/31/48 41/28/41
f 76/9/76 75/32/75 60/26/60
f 40/3/40 59/19/59 39/4/39
f 58/14/58 73/29/73 74/30/74
f 58/24/58 74/5/74 57/27/57
f 56/20/56 55/25/55 59/19/59
f 76/9/76 60/26/60 56/20/56
f 59/19/59 55/25/55 39/4/39
f 55/25/55 56/20/56 60/26/60
f 57/27/57 74/5/74 77/11/77
f 72/31/72 70/21/70 55/28/55
f 55/25/55 70/22/70 39/4/39
f 75/32/75 55/28/55 60/26/60
f 73/29/73 38/5/38 71/23/71
f 58/14/58 38/5/38 73/29/73
f 37/6/37 57/27/57 77/11/77
f 75/32/75 72/31/72 55/28/55
f 102/9/102 132/32/132 124/26/124
f 88/3/88 123/19/123 87/4/87
f 122/14/122 130/29/130 131/30/131
f 122/24/122 131/5/131 121/27/121
f 120/20/120 119/25/119 123/19/123
f 102/9/102 124/26/124 120/20/120
f 123/19/123 119/25/119 87/4/87
f 119/25/119 120/20/120 124/26/124
f 121/27/121 131/5/131 103/11/103
f 129/31/129 100/21/100 119/28/119
f 119/25/119 100/22/100 87/4/87
f 132/32/132 119/28/119 124/26/124
f 130/29/130 86/5/86 101/23/101
f 122/14/122 86/5/86 130/29/130
f 85/6/85 121/27/121 103/11/103
f 132/32/132 129/31/129 119/28/119
f 147/9/147 164/32/164 139/26/139
f 138/3/138 137/19/137 118/4/118
f 156/14/156 145/29/145 146/30/146
f 156/24/156 146/5/146 155/27/155
f 136/20/136 154/25/154 137/19/137
f 147/9/147 139/26/139 136/20/136
f 137/19/137 154/25/154 118/4/118
f 154/25/154 136/20/136 139/26/139
g fff02c13_00362_00a2e829_e10
f 69/8/69 127/13/127 128/7/128
f 99/12/99 127/13/127 69/8/69
f 47/8/47 67/13/67 68/7/68
f 46/12/46 67/13/67 47/8/47
f 448/8/448 20/13/20 21/7/21
f 447/12/447 20/13/20 448/8/448
f 416/8/416 445/13/445 446/7/446
f 415/12/415 445/13/445 416/8/416
f 353/8/353 382/13/382 383/7/383
f 352/12/352 382/13/382 353/8/353
f 292/8/292 319/13/319 320/7/320
f 291/12/291 319/13/319 292/8/292
f 254/8/254 289/13/289 290/7/290
f 253/12/253 289/13/289 254/8/254
f 198/8/198 221/13/221 222/7/222
f 197/12/197 221/13/221 198/8/198
f 162/8/162 195/13/195 196/7/196
f 173/12/173 195/13/195 162/8/162
f 141/8/141 160/13/160 161/7/161
f 140/12/140 160/13/160 141/8/141
f 98/8/98 125/13/125 126/7/126
f 97/12/97 125/13/125 98/8/98
f 66/8/66 95/13/95 96/7/96
f 65/12/65 95/13/95 66/8/66
f 19/8/19 44/13/44 45/7/45
f 18/12/18 44/13/44 19/8/19
f 414/8/414 443/13/443 444/7/444
f 413/12/413 443/13/443 414/8/414
f 381/8/381 411/13/411 412/7/412
f 380/12/380 411/13/411 381/8/381
f 318/8/318 350/13/350 351/7/351
f 317/12/317 350/13/350 318/8/318
f 252/8/252 315/13/315 316/7/316
f 251/12/251 315/13/315 252/8/252
f 220/8/220 287/13/287 288/7/288
f 219/12/219 287/13/287 220/8/220
g fff02c13_00362_00a2e829_e8
f 110/32/110 108/30/108 109/31/109
f 109/31/109 106/23/106 107/10/107
f 108/30/108 105/29/105 109/31/109
f 105/29/105 106/23/106 109/31/109
f 104/14/104 108/30/108 110/32/110
f 104/14/104 110/32/110 78/9/78
f 321/14/321 328/30/328 330/32/330
f 321/14/321 330/32/330 293/9/293
f 260/32/260 259/30/259 257/31/257
f 257/31/257 256/23/256 255/10/255
f 259/30/259 258/29/258 257/31/257
f 258/29/258 256/23/256 257/31/257
f 30/32/30 28/30/28 29/31/29
f 29/31/29 457/23/457 458/10/458
f 28/30/28 27/29/27 29/31/29
f 27/29/27 457/23/457 29/31/29
f 456/14/456 28/30/28 30/32/30
f 456/14/456 30/32/30 455/9/455
f 426/32/426 424/30/424 425/31/425
f 425/31/425 422/23/422 423/10/423
f 424/30/424 421/29/421 425/31/425
f 421/29/421 422/23/422 425/31/425
f 420/14/420 424/30/424 426/32/426
f 420/14/420 426/32/426 419/9/419
f 394/32/394 392/30/392 393/31/393
f 393/31/393 361/23/361 362/10/362
f 392/30/392 360/29/360 393/31/393
f 360/29/360 361/23/361 393/31/393
f 359/14/359 392/30/392 394/32/394
f 359/14/359 394/32/394 358/9/358
f 330/32/330 328/30/328 329/31/329
f 329/31/329 327/23/327 298/10/298
f 328/30/328 326/29/326 329/31/329
f 326/29/326 327/23/327 329/31/329
f 234/14/234 232/32/232 233/9/233
f 234/14/234 231/30/231 232/32/232
f 230/29/230 228/23/228 229/31/229
f 231/30/231 230/29/230 229/31/229
f 229/31/229 228/23/228 227/10/227
f 232/32/232 231/30/231 229/31/229
f 266/14/266 297/32/297 265/9/265
f 266/14/266 296/30/296 297/32/297
f 295/29/295 264/23/264 294/31/294
f 296/30/296 295/29/295 294/31/294
f 294/31/294 264/23/264 263/10/263
f 297/32/297 296/30/296 294/31/294
f 325/14/325 357/32/357 324/9/324
f 325/14/325 356/30/356 357/32/357
f 355/29/355 323/23/323 354/31/354
f 356/30/356 355/29/355 354/31/354
f 354/31/354 323/23/323 322/10/322
f 357/32/357 356/30/356 354/31/354
f 391/14/391 389/32/389 390/9/390
f 391/14/391 388/30/388 389/32/389
f 387/29/387 385/23/385 386/31/386
f 388/30/388 387/29/387 386/31/386
f 386/31/386 385/23/385 384/10/384
f 389/32/389 388/30/388 386/31/386
f 454/14/454 453/32/453 418/9/418
f 454/14/454 452/30/452 453/32/453
f 451/29/451 449/23/449 450/31/450
f 452/30/452 451/29/451 450/31/450
f 450/31/450 449/23/449 417/10/417
f 453/32/453 452/30/452 450/31/450
f 26/14/26 50/32/50 25/9/25
f 26/14/26 49/30/49 50/32/50
f 24/29/24 23/23/23 48/31/48
f 49/30/49 24/29/24 48/31/48
f 48/31/48 23/23/23 22/10/22
f 50/32/50 49/30/49 48/31/48
f 77/14/77 75/32/75 76/9/76
f 77/14/77 74/30/74 75/32/75
f 73/29/73 71/23/71 72/31/72
f 74/30/74 73/29/73 72/31/72
f 72/31/72 71/23/71 70/10/70
f 75/32/75 74/30/74 72/31/72
f 103/14/103 132/32/132 102/9/102
f 103/14/103 131/30/131 132/32/132
f 130/29/130 101/23/101 129/31/129
f 131/30/131 130/29/130 129/31/129
f 129/31/129 101/23/101 100/10/100
f 132/32/132 131/30/131 129/31/129
f 148/14/148 164/32/164 147/9/147
f 148/14/148 146/30/146 164/32/164
f 145/29/145 143/23/143 144/31/144
f 146/30/146 145/29/145 144/31/144
f 144/31/144 143/23/143 142/10/142
f 164/32/164 146/30/146 144/31/144
f 180/14/180 179/32/179 163/9/163
f 180/14/180 178/30/178 179/32/179
f 177/29/177 175/23/175 176/31/176
f 178/30/178 177/29/177 176/31/176
f 176/31/176 175/23/175 174/10/174
f 179/32/179 178/30/178 176/31/176
f 202/14/202 226/32/226 201/9/201
f 202/14/202 225/30/225 226/32/226
f 224/29/224 200/23/200 223/31/223
f 225/30/225 224/29/224 223/31/223
f 223/31/223 200/23/200 199/10/199
f 226/32/226 225/30/225 223/31/223
f 262/14/262 260/32/260 261/9/261
f 262/14/262 259/30/259 260/32/260
g fff02c13_00362_00a2e829_e32
f 459/27/459 460/5/460 461/11/461
f 462/27/462 463/5/463 464/11/464
f 465/27/465 466/5/466 467/11/467
f 468/27/468 469/5/469 470/11/470
f 471/33/471 472/35/472 473/34/473
f 504/33/504 505/35/505 506/34/506
f 474/27/474 475/5/475 476/11/476
f 477/27/477 478/5/478 479/11/479
f 480/27/480 481/5/481 482/11/482
f 483/33/483 484/35/484 485/34/485
f 486/27/486 487/5/487 488/11/488
f 489/33/489 490/35/490 491/34/491
f 492/27/492 493/5/493 494/11/494
f 495/27/495 496/5/496 497/11/497
f 498/27/498 499/5/499 500/11/500
f 501/27/501 502/5/502 503/11/503
