# fff07975_00272_0073b679
o fff07975_00272_0073b679
v -5.350688 7.113468 -0.012583
v -5.501709 -8.990295 0.157220
v -4.580200 7.113480 -0.012583
v -4.803430 -8.990295 0.137711
v -5.409750 7.113480 -0.044102
v -5.565166 -8.990307 0.137711
v -5.409797 7.113480 0.033600
v -4.456826 7.113480 0.033600
v -5.614142 -8.990295 0.037719
v -4.697517 -8.990295 0.157220
v -4.806912 -6.765686 1.838249
v -4.680839 -6.765686 1.838249
v -4.681085 -6.765686 -0.040743
v -5.650129 -6.765686 -0.006311
v -5.649799 -6.765686 1.838248
v -5.523638 -6.765686 1.838248
v -5.582010 -6.845481 1.626519
v -4.806935 -6.845469 1.601555
v -4.629195 4.777366 1.838249
v -4.501816 4.777366 1.838249
v -4.501646 4.777366 -0.040743
v -5.465293 4.777366 -0.040629
v -5.465463 4.777366 1.838248
v -5.338085 4.777366 1.838248
v -5.396301 4.823924 1.656484
v -4.629108 4.823936 1.631520
v -4.456816 7.113480 -0.044102
v -4.712571 -8.990295 0.037719
v -4.681096 -6.765698 -0.040743
v -4.501614 4.777294 -0.040743
v -5.614474 -8.990295 0.157220
v -4.802131 -8.990295 0.155729
v -5.501709 -8.990295 0.037719
v -4.808650 -8.990295 0.037719
v -5.287231 7.113480 0.033600
v -4.580200 7.113480 0.033600
v -4.456787 7.113480 -0.044102
v -5.409970 7.113480 0.033604
v -5.287231 7.113480 -0.044102
v -4.580200 7.113480 -0.044102
v -4.712629 -8.990317 0.037720
v -4.456785 7.113489 -0.044099
v -5.409750 7.113480 -0.044102
v -5.614142 -8.990295 0.037719
v -5.650129 -6.765686 -0.006311
v -5.465293 4.777366 -0.040629
v -4.712571 -8.990295 0.037719
v -5.501709 -8.990295 0.037719
v -4.808650 -8.990295 0.037719
v -5.287231 7.113480 -0.044102
v -4.580200 7.113480 -0.044102
v 1.680962 12.321390 -0.069510
v 1.529942 -3.782371 0.100293
v 2.451450 12.321403 -0.069510
v 2.228220 -3.782371 0.080783
v 1.621901 12.321403 -0.101029
v 1.466485 -3.782383 0.080783
v 1.621853 12.321403 -0.023327
v 2.574825 12.321403 -0.023327
v 1.417508 -3.782371 -0.019208
v 2.334134 -3.782371 0.100293
v 2.224739 -1.557762 1.781321
v 2.350811 -1.557762 1.781321
v 2.350566 -1.557762 -0.097670
v 1.381522 -1.557762 -0.063238
v 1.381852 -1.557762 1.781321
v 1.508013 -1.557762 1.781321
v 1.449640 -1.637557 1.569592
v 2.224716 -1.637545 1.544628
v 2.402456 9.985288 1.781321
v 2.529834 9.985288 1.781321
v 2.530005 9.985288 -0.097670
v 1.566358 9.985288 -0.097556
v 1.566187 9.985288 1.781321
v 1.693565 9.985288 1.781321
v 1.635350 10.031846 1.599557
v 2.402543 10.031857 1.574593
v 2.574834 12.321403 -0.101029
v 2.319079 -3.782371 -0.019208
v 2.350555 -1.557774 -0.097670
v 2.530037 9.985216 -0.097670
v 1.417177 -3.782371 0.100293
v 2.229519 -3.782371 0.098802
v 1.529942 -3.782371 -0.019208
v 2.223001 -3.782371 -0.019208
v 1.744419 12.321403 -0.023327
v 2.451450 12.321403 -0.023327
v 2.574863 12.321403 -0.101029
v 1.621680 12.321403 -0.023324
v 1.744419 12.321403 -0.101029
v 2.451450 12.321403 -0.101029
v 2.319022 -3.782393 -0.019208
v 2.574866 12.321412 -0.101026
v 1.621901 12.321403 -0.101029
v 1.417508 -3.782371 -0.019208
v 1.381522 -1.557762 -0.063238
v 1.566358 9.985288 -0.097556
v 2.319079 -3.782371 -0.019208
v 1.529942 -3.782371 -0.019208
v 2.223001 -3.782371 -0.019208
v 1.744419 12.321403 -0.101029
v 2.451450 12.321403 -0.101029
v 1.414062 -3.577377 -0.023262
v 1.414204 -3.595133 0.241780
v 1.414062 -3.577377 -0.023262
v 1.528004 -3.585835 0.248805
v 1.464944 -3.586188 0.216970
vt -8.010476 -2.010947
vt -8.010476 -2.010947
vt -9.070332 -4.938232
vt -9.026605 -3.923317
vt -8.010476 -2.010947
vt -7.999728 -11.977173
vt -9.070330 -11.977173
vt -9.070332 -11.977173
vt -7.999741 -11.977173
vt -8.010476 -2.010947
vt -8.010476 -2.010947
vt -8.010476 -2.010947
vt -8.010476 -2.010947
vt -7.999727 -5.976462
vt -9.070330 -5.976462
vt -9.070332 -5.976462
vt -7.999739 -5.976462
vt -8.010476 -2.010947
vt -8.010476 -2.010947
vt -8.010476 -2.010947
vt -8.010476 -2.010947
vt -8.010476 -2.010947
vt -8.010476 -2.010947
vt -8.010476 -2.010947
vt -8.010476 -2.010947
vt -8.010476 -2.010947
vt -8.010476 -2.010947
vt -8.010476 -2.010947
vt -9.070330 -13.081947
vt -7.999734 -11.977173
vt -9.070331 -11.977173
vt -9.076952 -13.081947
vt -9.070335 -4.938057
vt -9.070335 -5.976287
vt -9.076955 -13.082100
vt -9.070333 -11.977326
vt -9.070330 -11.977039
vt -8.010476 -2.010947
vt -9.066940 -13.071680
vt -8.010476 -2.010947
vt -8.010476 -2.010947
vt -8.010476 -2.010947
vt -9.076952 -13.081961
vt -9.076955 -13.082084
vt -8.010476 -2.010947
vt -8.010476 -2.010947
vt -8.010476 -2.010947
vt -8.010476 -2.010947
vt -8.010476 -2.010947
vt -8.010476 -2.010947
vt -8.010476 -2.010947
vt -9.055460 -4.952654
vt -9.070332 -4.938209
vt -8.010476 -2.010947
vt -8.010476 -2.010947
vt -9.070335 -4.938070
vt -8.010476 -2.010947
vt -9.070330 -12.975073
vt -9.027888 -3.983606
vt -8.010476 -2.010947
vt -8.010476 -2.010947
vt -8.010476 -2.010947
vt -8.010476 -2.010947
vt -8.010476 -2.010947
vt -8.010476 -2.010947
vt -8.010476 -2.010947
vt -8.010476 -2.010947
vt -8.010476 -2.010947
vt -8.010476 -2.010947
vt -8.010476 -2.010947
vt -8.010476 -2.010947
vt -8.010476 -2.010947
vt -8.010476 -2.010947
vt -8.010476 -2.010947
vt -8.010476 -2.010947
vt -8.010476 -2.010947
vt -8.010476 -2.010947
vt -8.010476 -2.010947
vt -8.010476 -2.010947
vt -8.010476 -2.010947
vt -8.010476 -2.010947
vt -8.010476 -2.010947
vt -8.010476 -2.010947
vt -8.010476 -2.010947
vt -8.010476 -2.010947
vt -8.010476 -2.010947
vt -9.070332 -5.976462
vt -7.999739 -5.976462
vt -7.999741 -11.977173
vt -9.070332 -4.938232
vt -9.055460 -4.952654
vt -7.999727 -5.976462
vt -9.026605 -3.923317
vt -9.027888 -3.983606
vt -8.010476 -2.010947
vt -9.070330 -5.976462
vt -9.070330 -11.977173
vt -9.070335 -5.976287
vt -9.070335 -4.938070
vt -9.070332 -4.938209
vt -9.076955 -13.082084
vt -9.070333 -11.977326
vt -9.076952 -13.081961
vt -8.010476 -2.010947
vt -8.010476 -2.010947
vt -8.010476 -2.010947
vt -9.070330 -13.081947
vt -7.999734 -11.977173
vt -9.070330 -12.975073
vt -7.999728 -11.977173
vt -9.076952 -13.081947
vt -9.070331 -11.977173
vt -9.066940 -13.071680
vt -9.070332 -11.977173
vt -9.070335 -4.938057
vt -9.076955 -13.082100
vt -9.070330 -11.977039
vt -9.076338 -12.979613
vt -8.010476 -2.010947
vt -8.977117 -12.979559
vt -9.076345 -12.980721
vt -8.010476 -2.010947
vt -8.010476 -2.010947
vt -8.010476 -2.010947
vt -8.010476 -2.010947
vt -8.010476 -2.010947
vn -0.001382 0.964853 -0.262786
vn -0.000000 -0.895788 0.444481
vn -0.229026 0.924470 -0.304799
vn -0.237921 -0.924460 -0.297938
vn 0.715013 0.699108 0.002111
vn -0.000009 -0.081474 -0.996675
vn 0.000065 0.896276 0.443497
vn -0.846919 0.251748 -0.468349
vn 0.716631 -0.697450 0.001987
vn -0.876238 -0.269928 -0.399181
vn -0.641846 0.250711 -0.724692
vn -0.639998 0.250979 -0.726231
vn -0.999890 0.014854 0.000119
vn 1.000000 -0.000112 -0.000128
vn 0.645096 -0.245631 0.723544
vn -0.000000 -0.317113 0.948388
vn -0.028224 0.296212 -0.954705
vn -0.783050 0.186939 -0.593201
vn -0.644063 -0.234830 -0.728037
vn -0.642796 -0.240096 -0.727439
vn -0.999849 0.017372 -0.000091
vn 0.999803 -0.019831 0.000106
vn 0.643248 0.233637 0.729141
vn 0.000000 0.326397 0.945233
vn -0.030982 -0.302904 -0.952517
vn -0.792411 -0.176622 -0.583858
vn -0.000000 0.001438 0.999999
vn 0.000000 -1.000000 0.000000
vn 0.031186 0.011614 0.999446
vn 0.001047 0.002118 0.999997
vn 0.622070 -0.697594 0.355515
vn -0.846942 -0.324646 -0.421064
vn 0.000000 -1.000000 -0.000066
vn 0.000007 -1.000000 -0.000005
vn -0.000000 0.789045 0.614336
vn -0.844467 0.245271 -0.476149
vn 0.000000 1.000000 0.000000
vn 0.999716 -0.023738 0.001985
vn -0.000000 1.000000 0.000378
vn -0.000008 1.000000 0.000005
vn -0.996673 -0.042200 0.069737
vn -0.999819 0.019000 -0.000338
vn -0.000000 0.001487 0.999999
vn 0.009247 0.031373 0.999465
vn 0.034562 0.009996 0.999353
vn 0.000116 0.002234 0.999997
vn -0.000000 0.035248 0.999379
vn -0.000000 0.035248 0.999379
vn -0.000000 0.035248 0.999379
vn 0.000015 0.001466 0.999999
vn -0.000000 0.001438 0.999999
vn -0.001380 0.964854 -0.262782
vn -0.000000 -0.895788 0.444481
vn -0.229026 0.924470 -0.304798
vn -0.236463 -0.924633 -0.298560
vn 0.715015 0.699106 0.002115
vn -0.000009 -0.081474 -0.996675
vn 0.000067 0.896277 0.443494
vn -0.846919 0.251749 -0.468348
vn 0.716418 -0.697671 0.001037
vn -0.876238 -0.269927 -0.399181
vn -0.641843 0.250711 -0.724694
vn -0.639998 0.250980 -0.726231
vn -0.999890 0.014854 0.000119
vn 1.000000 -0.000112 -0.000149
vn 0.645096 -0.245631 0.723544
vn 0.000000 -0.317113 0.948388
vn -0.030722 0.299172 -0.953704
vn -0.782706 0.188932 -0.593023
vn -0.644062 -0.234830 -0.728038
vn -0.642795 -0.240097 -0.727439
vn -0.999849 0.017372 -0.000091
vn 0.999803 -0.019831 0.000106
vn 0.643248 0.233637 0.729141
vn 0.000000 0.326397 0.945233
vn -0.030982 -0.302904 -0.952517
vn -0.792411 -0.176622 -0.583858
vn 0.000000 0.001438 0.999999
vn 0.000000 -1.000000 0.000000
vn 0.031186 0.011614 0.999446
vn 0.001047 0.002118 0.999997
vn 0.621310 -0.698196 0.355664
vn -0.846943 -0.324645 -0.421061
vn 0.000000 -1.000000 -0.000066
vn 0.000007 -1.000000 -0.000005
vn -0.000000 0.789046 0.614334
vn -0.844468 0.245270 -0.476148
vn 0.000000 1.000000 0.000000
vn 0.999716 -0.023738 0.001985
vn -0.000000 1.000000 0.000393
vn -0.000008 1.000000 0.000005
vn -0.996672 -0.042200 0.069737
vn -0.999819 0.019000 -0.000338
vn 0.000000 0.001487 0.999999
vn 0.009254 0.031370 0.999465
vn 0.034562 0.009996 0.999353
vn 0.000116 0.002234 0.999997
vn -0.000000 0.035248 0.999379
vn -0.000000 0.035248 0.999379
vn -0.000000 0.035248 0.999379
vn 0.000015 0.001466 0.999999
vn -0.000000 0.001438 0.999999
vn 0.035491 0.020355 0.999163
vn 0.710287 -0.416893 0.567179
vn 0.999865 0.016450 0.000570
vn 0.000000 -0.602882 0.797831
vn -0.003918 0.566976 -0.823725
g fff07975_00272_0073b679_e0
f 23/21/23 24/18/24 7/22/7
f 3/2/3 19/13/19 36/49/36
f 56/75/56 52/63/52 90/76/90
f 16/10/16 15/25/15 31/38/31
f 67/66/67 75/61/75 66/67/66
f 11/5/11 4/24/4 32/41/32
f 31/38/31 33/42/33 2/1/2
f 75/61/75 74/60/74 66/67/66
f 77/74/77 69/73/69 70/64/70
f 77/74/77 70/64/70 54/70/54
f 70/64/70 69/73/69 62/69/62
f 82/68/82 84/71/84 53/72/53
f 52/70/52 91/86/91 90/86/90
f 62/69/62 55/124/55 83/125/83
f 67/66/67 66/67/66 104/119/104
f 91/86/91 52/70/52 54/70/54
f 91/85/91 54/63/54 88/84/88
f 54/63/54 87/65/87 59/83/59
f 19/13/19 18/12/18 11/5/11
f 54/63/54 59/83/59 88/84/88
f 58/62/58 52/63/52 56/75/56
f 86/82/86 52/63/52 58/62/58
f 75/61/75 86/82/86 58/62/58
f 85/78/85 55/70/55 57/70/57
f 26/20/26 19/13/19 3/24/3
f 54/63/54 70/64/70 87/65/87
f 55/72/55 85/80/85 61/72/61
f 26/20/26 18/12/18 19/13/19
f 24/18/24 23/21/23 15/25/15
f 16/10/16 24/18/24 15/25/15
f 5/50/5 1/2/1 39/54/39
f 16/10/16 31/38/31 2/1/2
f 18/12/18 4/24/4 11/5/11
f 31/38/31 9/23/9 33/42/33
f 6/24/6 33/47/33 34/47/34
f 32/40/32 4/1/4 10/1/10
f 34/46/34 28/45/28 10/1/10
f 4/1/4 34/46/34 10/1/10
f 34/47/34 4/24/4 6/24/6
f 24/18/24 35/48/35 7/22/7
f 85/80/85 79/81/79 61/72/61
f 35/48/35 1/2/1 7/22/7
f 7/22/7 1/2/1 5/50/5
f 3/2/3 8/26/8 37/51/37
f 3/2/3 36/49/36 8/26/8
f 40/55/40 3/2/3 37/51/37
f 40/57/40 1/24/1 3/24/3
f 1/24/1 40/57/40 39/57/39
f 74/60/74 75/61/75 58/62/58
f 106/122/106 104/119/104 53/72/53
f 83/79/83 55/72/55 61/72/61
f 57/70/57 84/78/84 85/78/85
f 82/68/82 60/77/60 84/71/84
f 69/73/69 55/124/55 62/69/62
f 53/72/53 104/119/104 82/68/82
f 67/66/67 104/119/104 106/122/106
g fff07975_00272_0073b679_e2
f 26/20/26 1/24/1 3/24/3
f 61/107/61 63/108/63 92/109/92
f 22/16/22 23/17/23 15/9/15
f 22/16/22 5/3/5 38/52/38
f 62/69/62 63/106/63 83/126/83
f 20/14/20 8/4/8 42/59/42
f 62/69/62 71/105/71 63/106/63
f 71/92/71 93/94/93 72/96/72
f 4/24/4 6/24/6 17/11/17
f 20/14/20 21/15/21 13/7/13
f 30/34/30 51/56/51 50/53/50
f 49/44/49 29/36/29 48/43/48
f 92/109/92 63/108/63 64/112/64
f 25/19/25 1/24/1 26/20/26
f 97/87/97 96/114/96 81/98/81
f 11/5/11 19/13/19 20/28/20
f 99/103/99 80/102/80 95/111/95
f 103/118/103 95/111/95 80/102/80
f 97/87/97 101/100/101 94/90/94
f 101/100/101 97/87/97 81/98/81
f 62/69/62 70/64/70 71/105/71
f 76/104/76 52/70/52 77/74/77
f 80/117/80 81/98/81 96/114/96
f 104/120/104 65/112/65 66/108/66
f 63/106/63 61/72/61 83/79/83
f 98/116/98 80/102/80 100/101/100
f 87/65/87 59/83/59 70/64/70
f 100/101/100 80/102/80 99/103/99
f 81/98/81 78/115/78 102/99/102
f 73/87/73 89/91/89 74/88/74
f 68/95/68 76/104/76 69/73/69
f 55/124/55 107/123/107 69/73/69
f 11/5/11 20/28/20 12/27/12
f 11/5/11 12/27/12 32/40/32
f 10/29/10 12/30/12 41/58/41
f 12/6/12 20/14/20 13/7/13
f 19/13/19 8/26/8 20/28/20
f 76/104/76 77/74/77 69/73/69
f 81/98/81 102/99/102 101/100/101
f 65/114/65 73/87/73 66/89/66
f 71/92/71 72/96/72 64/97/64
f 60/111/60 105/121/105 104/120/104
f 9/32/9 14/31/14 31/39/31
f 14/8/14 22/16/22 15/9/15
f 25/19/25 26/20/26 18/12/18
f 70/64/70 59/83/59 71/105/71
f 4/24/4 17/11/17 18/12/18
f 17/11/17 25/19/25 18/12/18
f 55/70/55 57/70/57 107/123/107
f 71/92/71 59/93/59 93/94/93
f 63/110/63 71/92/71 64/97/64
f 73/87/73 56/90/56 89/91/89
f 22/16/22 38/52/38 23/17/23
f 30/34/30 27/33/27 51/56/51
f 36/49/36 8/26/8 19/13/19
f 47/35/47 29/36/29 49/44/49
f 12/27/12 10/1/10 32/40/32
f 31/39/31 14/31/14 15/30/15
f 29/37/29 30/34/30 45/8/45
f 50/53/50 46/16/46 30/34/30
f 46/16/46 50/53/50 43/3/43
f 45/31/45 44/32/44 29/36/29
f 48/43/48 29/36/29 44/32/44
f 46/16/46 45/8/45 30/34/30
f 41/58/41 12/30/12 13/31/13
f 20/14/20 42/59/42 21/15/21
f 77/74/77 52/70/52 54/70/54
f 73/87/73 74/88/74 66/89/66
f 96/112/96 103/118/103 80/102/80
f 82/113/82 60/111/60 104/120/104
f 105/121/105 65/112/65 104/120/104
f 69/73/69 107/123/107 68/95/68
