# fff089d2_00084_00246740
o fff089d2_00084_00246740
v -26.027344 -1.192200 3.380456
v -19.686035 5.068420 3.380456
v -14.805567 -0.627380 3.380456
v -21.298359 -6.268219 3.380456
v -37.026722 -12.278101 3.380455
v -30.871326 -5.834619 3.380455
v -25.835560 -11.393030 3.380455
v -28.396404 -13.752769 3.380455
v -22.696875 -4.972662 3.380456
v -22.532799 -5.106800 3.380456
v -16.062338 0.620977 3.380456
v -15.889336 0.419073 3.380456
v -17.214926 0.047213 3.380456
v -17.052509 -0.153254 3.380456
vt -0.277088 -1.542980
vt -0.276615 -1.543851
vt -0.369870 -1.662465
vt -0.384000 -1.678965
vt -0.276615 -1.543851
vt -0.277088 -1.542980
vt -0.384000 -1.678965
vt -0.314372 -1.591876
vt -0.372097 -1.665066
vt -0.371760 -1.664673
vt -0.276778 -1.543551
vt -0.276761 -1.543582
vt -0.290613 -1.561189
vt -0.290688 -1.561333
vn 0.000000 -0.000000 1.000000
vn -0.000000 -0.000000 1.000000
vn -0.000000 -0.000000 1.000000
vn -0.000000 0.000000 1.000000
vn 0.000000 0.000000 1.000000
vn 0.000000 0.000000 1.000000
vn 0.000000 0.000000 1.000000
vn 0.000000 0.000000 1.000000
vn -0.000000 -0.000000 1.000000
vn -0.000000 0.000000 1.000000
vn 0.000000 0.000000 1.000000
vn 0.000000 0.000000 1.000000
vn -0.000000 -0.000000 1.000000
vn -0.000000 -0.000000 1.000000
g fff089d2_00084_00246740_e33
f 9/9/9 13/13/13 2/1/2
f 1/4/1 9/9/9 2/1/2
f 8/8/8 7/5/7 6/6/6
f 5/7/5 8/8/8 6/6/6
f 10/10/10 4/3/4 3/2/3
f 9/9/9 10/10/10 13/13/13
f 10/10/10 3/2/3 14/14/14
f 13/13/13 14/14/14 11/11/11
f 13/13/13 11/11/11 2/1/2
f 13/13/13 10/10/10 14/14/14
f 14/14/14 3/2/3 12/12/12
f 14/14/14 12/12/12 11/11/11
