# fff06058_00181_004b1934
o fff06058_00181_004b1934
v 2.604120 -3.998859 -0.375000
v 2.604120 4.001181 -0.375000
v 9.860342 4.001151 -0.375000
v 9.860327 -3.998850 -0.375000
v 9.832956 -3.998836 -0.375000
v 9.832956 -3.998836 0.375000
v 9.832956 3.990935 -0.375000
v 11.416742 3.990935 -0.223151
v 9.832956 3.990935 0.375000
v 11.416742 -3.998836 -0.223150
v 12.393129 3.990935 -0.375000
v 12.395884 -4.001183 -0.375000
v 10.086708 -3.689599 0.298370
v 11.416165 3.681540 -0.204291
v 10.085492 3.681743 0.298370
v 11.417380 -3.689801 -0.204291
v 12.234806 3.682091 -0.331848
v 12.238776 -3.691416 -0.331848
v 10.020821 -3.814392 0.304005
v 11.416742 -3.814392 -0.223151
v 12.395816 -3.814392 -0.375000
v 12.393188 3.804535 -0.375000
v 11.416742 3.804535 -0.223151
v 10.020820 3.804535 0.304004
vt 0.000000 0.000000
vt 3.989241 1.382041
vt -0.006718 2.000001
vt 3.989241 2.000001
vt -0.006718 1.382042
vt 3.989241 1.001076
vt -0.007885 1.000001
vt 1.717208 1.764286
vt 1.736208 1.764286
vt 1.642365 1.764286
vt 1.717208 1.710732
vt 1.736208 1.710732
vt 1.736207 1.710717
vt 1.736207 1.764286
vt 1.642365 1.710732
vt 0.093819 1.895550
vt 0.079237 1.382042
vt 0.089832 1.000028
vt 3.904236 1.001053
vt 3.897223 1.382041
vt 3.910058 1.892410
vt 1.747353 0.880240
vt 1.747353 1.454774
vt 1.661828 0.880240
vt 1.807175 1.454774
vt 1.807177 0.880240
vt 1.747096 1.056129
vt 1.661571 1.624625
vt 1.650061 1.056129
vt 1.747096 1.624625
vt 1.807084 1.048892
vt 1.807082 1.624625
vt 1.650318 1.454774
vt 1.734507 0.859577
vt 1.778062 0.859577
vt 1.779128 1.388504
vt 1.733452 1.388504
vn 0.000000 0.000000 1.000000
vn 0.000000 0.000000 1.000000
vn 0.000000 0.000000 1.000000
vn 0.000000 0.000000 1.000000
vn -0.000056 -1.000000 0.000581
vn 0.280019 -0.610096 0.741196
vn 0.000000 1.000000 -0.000000
vn 0.173874 0.731094 0.659749
vn 0.280022 0.610094 0.741197
vn 0.172492 -0.728042 0.663477
vn 0.152930 0.097773 0.983388
vn 0.152303 -0.097514 0.983512
vn 0.353378 0.000058 0.935481
vn 0.255021 0.000042 0.966936
vn 0.353378 0.000058 0.935481
vn 0.254722 0.000069 0.967014
vn 0.153922 0.000030 0.988083
vn 0.153454 0.000083 0.988156
vn 0.353377 0.000080 0.935481
vn 0.254647 0.000014 0.967034
vn 0.153263 0.000054 0.988185
vn 0.153648 0.000026 0.988126
vn 0.254839 0.000002 0.966983
vn 0.353379 -0.000082 0.935480
g fff06058_00181_004b1934_e2
f 22/19/22 20/17/20 21/18/21
f 20/17/20 22/19/22 23/20/23
f 19/16/19 23/20/23 24/21/24
f 20/17/20 23/20/23 19/16/19
g fff06058_00181_004b1934_e5
f 8/8/8 7/9/7 9/10/9
f 10/11/10 5/12/5 12/13/12
f 11/14/11 7/9/7 8/8/8
f 10/11/10 6/15/6 5/12/5
f 23/22/23 8/23/8 24/24/24
f 23/22/23 11/25/11 8/23/8
f 11/25/11 23/22/23 22/26/22
f 10/27/10 19/28/19 6/29/6
f 10/27/10 20/30/20 19/28/19
f 10/27/10 12/31/12 20/30/20
f 21/32/21 20/30/20 12/31/12
f 24/24/24 8/23/8 9/33/9
f 19/34/19 24/35/24 9/36/9
f 19/34/19 9/36/9 6/37/6
g fff06058_00181_004b1934_e23
f 14/2/14 15/4/15 13/3/13
f 17/6/17 16/5/16 18/7/18
f 16/5/16 17/6/17 14/2/14
f 16/5/16 14/2/14 13/3/13
g fff06058_00181_004b1934_e6
f 4/1/4 3/1/3 2/1/2
f 4/1/4 2/1/2 1/1/1
