# fff0030f_00165_0026d634
o fff0030f_00165_0026d634
v 0.841549 3.875319 -0.030296
v 1.026058 4.171512 -0.030296
v -1.038990 3.576720 -0.030296
v 0.855847 3.534869 -0.030296
v 0.802151 -3.212991 -0.030296
v -0.927906 1.420759 -0.030296
v 0.750179 -3.435059 -0.030296
v -0.770450 -1.546701 -0.030296
v 1.001827 -3.725214 -0.030296
v 0.217251 -3.536528 -0.030296
v -0.689670 -3.387232 -0.030296
v -1.062153 -3.744879 -0.030296
v -0.645512 3.855805 -0.030296
v -1.037266 4.138188 -0.030296
v 1.020996 4.165420 -0.037409
v 0.996750 -3.731693 -0.037409
v -1.067001 -3.751164 -0.037409
v 1.054012 -1.535965 -0.030296
v 1.035824 -3.207345 -0.030296
v 0.836376 -1.526186 -0.030296
v 1.043621 3.529941 -0.030296
v -1.060200 -3.163380 -0.030296
v -1.054569 -1.548117 -0.030296
v -0.727573 -3.155137 -0.030296
v -0.655689 3.566491 -0.030296
v -1.044052 3.570241 -0.037409
v 0.836700 3.868842 -0.037409
v 0.745331 -3.441343 -0.037409
v -0.775513 -1.552988 -0.037409
v 0.212387 -3.543005 -0.037409
v -0.694733 -3.393710 -0.037409
v -0.650360 3.849521 -0.037409
v -1.042114 4.131711 -0.037409
v -0.994160 2.191778 -0.030296
v -0.674534 2.093590 -0.030296
v -0.999237 2.189919 -0.037409
v -0.679153 2.091537 -0.037409
v 0.850998 3.528584 -0.037409
v 0.797302 -3.219276 -0.037409
v -0.932755 1.414282 -0.037409
v 1.049164 -1.542059 -0.037409
v 1.030975 -3.213439 -0.037409
v 0.831528 -1.532473 -0.037409
v 1.038757 3.523463 -0.037409
v -1.065048 -3.169857 -0.037409
v -1.059631 -1.554401 -0.037409
v -0.732422 -3.161616 -0.037409
v -0.660538 3.560399 -0.037409
v 0.851956 1.891325 -0.030296
v 1.006786 1.454075 -0.030296
v -0.670399 2.258497 -0.030296
v 1.016750 1.826801 -0.030296
v -1.004124 2.345112 -0.030296
v 0.850430 1.552097 -0.030296
v 0.847107 1.890043 -0.037409
v 1.002151 1.451830 -0.037409
v -0.675262 2.257215 -0.037409
v 1.012115 1.825327 -0.037409
v -1.009186 2.343830 -0.037409
v 0.845581 1.549852 -0.037409
v 0.778986 -3.309908 -0.037409
v 1.025181 -3.307117 -0.037409
v 0.782646 -3.309506 -0.030296
v 1.029715 -3.306705 -0.030296
v -0.713936 -3.302426 -0.037409
v -1.065440 -3.275841 -0.037409
v -0.707679 -3.302106 -0.030296
v -1.060614 -3.275628 -0.030296
v -0.581748 0.123987 -0.037409
v -0.581748 -1.470241 -0.037409
v 0.861581 0.126497 -0.037409
v 0.861489 -1.467731 -0.037409
v 0.023507 0.125039 -0.037409
v -0.581748 3.829528 -0.037409
v -0.581748 2.235300 -0.037409
v 0.861581 3.832038 -0.037409
v 0.861489 2.237810 -0.037409
v 0.023507 3.830580 -0.037409
v -0.581748 -1.821068 -0.037409
v -0.581748 -3.415295 -0.037409
v 0.861581 -1.818558 -0.037409
v 0.861489 -3.412785 -0.037409
v 0.023507 -1.820016 -0.037409
v -0.581748 2.017895 -0.037409
v -0.581748 0.423667 -0.037409
v 0.861581 2.020405 -0.037409
v 0.861489 0.426177 -0.037409
v 0.023507 2.018947 -0.037409
v 0.861520 -3.176017 -0.037409
v -0.581748 -3.127477 -0.037409
v -0.581748 -3.223269 -0.037409
v 0.861514 -3.280738 -0.037409
v -0.933200 1.190451 -0.030296
v -0.701728 1.197769 -0.030296
v -0.937743 1.190730 -0.037409
v -0.706380 1.198051 -0.037409
vt 1.770227 2.179846
vt 1.643147 2.075592
vt 1.651955 2.187783
vt 1.852455 2.083121
vt 1.808208 2.177654
vt 2.000000 2.083121
vt 1.192736 2.213174
vt 1.501651 2.853642
vt 1.502762 3.000000
vt 1.000000 2.083121
vt 1.130136 2.487406
vt 1.233636 2.808940
vt 1.000000 3.000000
vt 1.773885 2.797750
vt 1.734097 2.802440
vt 2.000000 3.000000
vt 1.702784 2.083121
vt 1.742402 3.000000
vt 1.662920 2.810831
vt 1.696633 2.184093
vt 1.703221 2.083121
vt 1.743306 3.000000
vt 1.663321 2.810784
vt 1.743786 2.083121
vt 1.878887 3.000000
vt 1.696868 2.184080
vt 1.170738 2.194262
vt 1.670941 3.002091
vt 1.302892 2.082733
vt 1.395967 2.999585
vt 1.278836 2.828323
vt 1.716059 2.182972
vt 1.678068 2.809045
vt 1.743259 2.083121
vt 1.772879 3.000000
vt 1.716341 2.182956
vt 1.678522 2.808991
vt 1.773893 3.000000
vt 1.216764 2.199878
vt 1.110668 2.073862
vt 1.214608 2.200248
vt 1.106782 2.073918
vt 1.354253 2.819012
vt 1.205715 2.999615
vt 1.350179 2.818332
vt 1.201651 2.999615
vt -0.000010 0.000006
vt 0.999996 -0.000003
vt -0.000005 1.000003
vt 1.000001 1.000008
vt -0.000008 0.419340
vt 0.851484 1.000019
vt 0.819457 -0.000002
vt 0.879544 -0.000002
vt 0.917172 1.000019
vt 1.000005 -0.000135
vt 0.999997 -0.000005
vt 1.658686 3.000955
vt 1.623810 2.824160
vt 1.659084 3.000970
vt 1.624262 2.824094
vt -0.000033 0.999950
vt 1.659867 3.002985
vt 1.624544 2.825417
vt 1.696729 2.081769
vt 1.696629 2.184046
vt 1.660255 3.002934
vt 1.625003 2.825378
vt 1.696790 2.081674
vt 1.696864 2.184106
vn 0.000000 0.000000 1.000000
vn 0.000000 0.000000 1.000000
vn 0.000000 0.000000 1.000000
vn -0.000000 -0.000000 1.000000
vn -0.000000 0.000000 1.000000
vn -0.000000 0.000000 1.000000
vn -0.000000 -0.000000 1.000000
vn -0.000000 0.000000 1.000000
vn -0.000000 0.000000 1.000000
vn -0.000000 0.000000 1.000000
vn 0.000000 -0.000000 1.000000
vn -0.000000 -0.000000 1.000000
vn 0.000000 0.000000 1.000000
vn 0.000000 0.000000 1.000000
vn 0.000000 0.000000 1.000000
vn -0.000000 0.000000 1.000000
vn 0.000000 0.000000 1.000000
vn 0.000000 0.000000 1.000000
vn 0.000000 0.000000 1.000000
vn 0.000000 0.000000 1.000000
vn -0.000000 -0.000000 1.000000
vn -0.000000 -0.000000 1.000000
vn -0.000000 0.000000 1.000000
vn -0.000000 0.000000 1.000000
vn 0.000000 0.000000 1.000000
vn -0.000000 -0.000000 1.000000
vn 0.000000 0.000000 1.000000
vn -0.000000 -0.000000 1.000000
vn 0.000000 -0.000000 1.000000
vn 0.000000 0.000000 1.000000
vn 0.000000 0.000000 1.000000
vn 0.000000 0.000000 1.000000
vn -0.000000 0.000000 1.000000
vn 0.000000 0.000000 1.000000
vn -0.000000 0.000000 1.000000
vn 0.000000 0.000000 1.000000
vn 0.000000 0.000000 1.000000
vn 0.000000 0.000000 1.000000
vn -0.000000 0.000000 1.000000
vn 0.000000 0.000000 1.000000
vn 0.000000 0.000000 1.000000
vn -0.000000 -0.000000 1.000000
vn -0.000000 -0.000000 1.000000
vn 0.000000 0.000000 1.000000
vn 0.000000 -0.000000 1.000000
vn 0.000000 0.000000 1.000000
vn 0.000000 0.000000 1.000000
vn -0.000000 0.000000 1.000000
vn 0.000000 0.000000 1.000000
vn -0.000000 -0.000000 1.000000
vn 0.000000 0.000000 1.000000
vn -0.000000 0.000000 1.000000
vn 0.000000 0.000000 1.000000
vn -0.000000 -0.000000 1.000000
vn 0.000000 0.000000 1.000000
vn 0.000000 0.000000 1.000000
vn -0.000000 -0.000000 1.000000
vn 0.000000 0.000000 1.000000
vn -0.000000 -0.000000 1.000000
vn 0.000000 0.000000 1.000000
vn -0.000000 0.000000 1.000000
vn 0.000000 0.000000 1.000000
vn 0.000000 0.000000 1.000000
vn 0.000000 0.000000 1.000000
vn 0.000000 0.000000 1.000000
vn 0.000000 0.000000 1.000000
vn 0.000000 0.000000 1.000000
vn -0.000000 0.000000 1.000000
vn 0.000000 -0.000000 1.000000
vn 0.000000 0.000000 1.000000
vn 0.000000 0.000000 1.000000
vn -0.000000 0.000000 1.000000
vn 0.000000 -0.000000 1.000000
vn 0.000000 -0.000000 1.000000
vn 0.000000 -0.000000 1.000000
vn 0.000000 0.000000 1.000000
vn 0.000000 0.000000 1.000000
vn 0.000000 -0.000000 1.000000
vn -0.000000 0.000000 1.000000
vn 0.000000 0.000000 1.000000
vn 0.000000 0.000000 1.000000
vn 0.000000 -0.000000 1.000000
vn -0.000000 0.000000 1.000000
vn 0.000000 0.000000 1.000000
vn 0.000000 0.000000 1.000000
vn 0.000000 0.000000 1.000000
vn 0.000000 0.000000 1.000000
vn 0.000000 0.000000 1.000000
vn 0.000000 -0.000000 1.000000
vn 0.000000 -0.000000 1.000000
vn 0.000000 -0.000000 1.000000
vn 0.000000 -0.000000 1.000000
vn -0.000000 0.000000 1.000000
vn -0.000000 0.000000 1.000000
vn 0.000000 0.000000 1.000000
vn 0.000000 0.000000 1.000000
g fff0030f_00165_0026d634_e1
f 14/16/14 25/15/25 13/14/13
f 67/45/67 12/13/12 11/12/11
f 10/11/10 12/13/12 9/10/9
f 23/9/23 22/30/22 8/8/8
f 7/7/7 10/11/10 9/10/9
f 14/16/14 13/14/13 2/6/2
f 1/5/1 21/4/21 2/6/2
f 13/14/13 1/5/1 2/6/2
f 20/3/20 19/29/19 18/2/18
f 11/12/11 12/13/12 10/11/10
f 93/63/93 23/9/23 8/8/8
f 7/7/7 9/10/9 63/41/63
f 50/65/50 20/3/20 18/2/18
f 94/59/94 6/28/6 93/58/93
f 1/5/1 4/1/4 21/4/21
f 14/16/14 3/25/3 25/15/25
f 25/15/25 3/25/3 53/35/53
f 5/27/5 64/42/64 19/29/19
f 20/3/20 5/27/5 19/29/19
f 22/30/22 68/46/68 24/31/24
f 22/30/22 24/31/24 8/8/8
f 21/4/21 4/1/4 52/34/52
f 35/19/35 6/28/6 94/59/94
f 51/33/51 34/18/34 35/19/35
f 34/18/34 6/28/6 35/19/35
f 94/64/94 93/63/93 8/8/8
f 50/17/50 49/32/49 54/20/54
f 52/34/52 4/1/4 49/32/49
f 50/17/50 52/34/52 49/32/49
f 25/15/25 53/35/53 51/33/51
f 53/35/53 34/18/34 51/33/51
f 63/41/63 9/10/9 64/42/64
f 5/27/5 63/41/63 64/42/64
f 68/46/68 12/13/12 67/45/67
f 68/46/68 67/45/67 24/31/24
f 54/66/54 20/3/20 50/65/50
g fff0030f_00165_0026d634_e2
f 33/16/33 48/15/48 32/14/32
f 65/43/65 17/13/17 31/12/31
f 30/11/30 17/13/17 16/10/16
f 46/9/46 45/30/45 29/8/29
f 28/7/28 30/11/30 16/10/16
f 33/16/33 32/14/32 15/6/15
f 27/5/27 44/4/44 15/6/15
f 32/14/32 27/5/27 15/6/15
f 43/3/43 42/29/42 41/2/41
f 31/12/31 17/13/17 30/11/30
f 95/67/95 46/9/46 29/8/29
f 28/7/28 16/10/16 61/39/61
f 56/69/56 43/3/43 41/2/41
f 96/61/96 40/28/40 95/60/95
f 27/5/27 38/1/38 44/4/44
f 33/16/33 26/25/26 48/15/48
f 48/15/48 26/25/26 59/38/59
f 39/27/39 62/40/62 42/29/42
f 43/3/43 39/27/39 42/29/42
f 45/30/45 66/44/66 47/31/47
f 45/30/45 47/31/47 29/8/29
f 44/4/44 38/1/38 58/24/58
f 37/23/37 40/28/40 96/61/96
f 57/37/57 36/22/36 37/23/37
f 36/22/36 40/28/40 37/23/37
f 56/21/56 55/36/55 60/26/60
f 96/68/96 95/67/95 29/8/29
f 58/24/58 38/1/38 55/36/55
f 56/21/56 58/24/58 55/36/55
f 59/38/59 36/22/36 57/37/57
f 48/15/48 59/38/59 57/37/57
f 61/39/61 16/10/16 62/40/62
f 39/27/39 61/39/61 62/40/62
f 66/44/66 17/13/17 65/43/65
f 66/44/66 65/43/65 47/31/47
f 60/70/60 43/3/43 56/69/56
g fff0030f_00165_0026d634_e0
f 70/48/70 73/51/73 69/47/69
f 72/50/72 71/49/71 70/48/70
f 70/48/70 71/49/71 73/51/73
f 75/48/75 78/51/78 74/47/74
f 77/50/77 76/49/76 75/48/75
f 75/48/75 76/49/76 78/51/78
f 90/53/90 83/51/83 79/47/79
f 89/52/89 81/49/81 90/53/90
f 90/53/90 81/49/81 83/51/83
f 85/57/85 88/51/88 84/47/84
f 87/50/87 86/62/86 85/48/85
f 85/56/85 86/49/86 88/51/88
f 82/50/82 92/55/92 80/48/80
f 80/48/80 92/55/92 91/54/91
f 91/54/91 89/52/89 90/53/90
f 92/55/92 89/52/89 91/54/91
