# fff017fc_00064_00106ccb
o fff017fc_00064_00106ccb
v 1.007329 -2.406403 0.054556
v 1.007329 2.061615 -0.054556
v -1.007332 -3.598053 0.054556
v -1.007332 3.598053 -0.054556
v 0.339890 1.670079 -0.048079
v 0.347985 -2.064923 0.048079
v -0.671706 -2.593634 0.051619
v -0.679801 2.516570 -0.050669
v -1.007332 2.731690 -0.040171
v -1.007332 -2.744883 0.040336
v -1.007332 -1.642657 0.023762
v -0.673078 -1.752130 0.034281
v 0.222877 -1.874497 0.042088
v -0.673353 -1.554146 0.030806
v -1.007332 -1.356048 0.021180
vt -0.860023 -0.920174
vt -0.860023 -0.920174
vt -0.860023 -0.920174
vt -0.860023 -0.920174
vt -0.860023 -0.920174
vt -0.860023 -0.920174
vt -0.860023 -0.920174
vt -0.860023 -0.920174
vt -0.860023 -0.920174
vt -0.860023 -0.920174
vt -0.860023 -0.920174
vt -0.860023 -0.920174
vt -0.860023 -0.920174
vt -0.860023 -0.920174
vt -0.860023 -0.920174
vt -0.860023 -0.920174
vt -0.860023 -0.920174
vn -0.001321 0.017522 0.999846
vn 0.000116 0.015332 0.999882
vn -0.013457 0.008681 0.999872
vn 0.016163 0.008489 0.999833
vn 0.006446 0.019789 0.999783
vn -0.002285 0.019001 0.999817
vn -0.017717 0.011640 0.999775
vn 0.023535 0.014198 0.999622
vn 0.042021 0.017558 0.998963
vn -0.040824 0.016056 0.999037
vn -0.028685 0.013018 0.999504
vn -0.015875 0.018308 0.999706
vn -0.004416 0.026571 0.999637
vn -0.011790 0.018171 0.999765
vn -0.021673 0.013933 0.999668
g fff017fc_00064_00106ccb_e2
f 12/12/12 7/7/7 6/6/6
f 13/14/13 5/5/5 8/8/8
f 12/13/12 11/11/11 7/1/7
f 15/17/15 12/13/12 14/16/14
f 11/11/11 10/10/10 7/1/7
f 13/14/13 14/15/14 6/6/6
f 14/16/14 8/1/8 9/9/9
f 14/15/14 13/14/13 8/8/8
f 14/15/14 12/12/12 6/6/6
f 15/17/15 14/16/14 9/9/9
f 11/11/11 12/13/12 15/17/15
f 5/5/5 13/14/13 6/6/6
g fff017fc_00064_00106ccb_e3
f 2/4/2 4/3/4 8/8/8
f 8/8/8 5/5/5 2/4/2
f 1/2/1 2/4/2 5/5/5
f 5/5/5 6/6/6 1/2/1
f 3/1/3 1/2/1 6/6/6
f 6/6/6 7/7/7 3/1/3
f 10/10/10 3/1/3 7/1/7
f 4/1/4 9/9/9 8/1/8
