# fff0305e_00152_004fe719
o fff0305e_00152_004fe719
v 0.314838 -0.320290 -0.076883
v -0.191641 -0.320272 -0.076883
v 0.081593 0.317157 -0.084108
v 0.211941 -0.320287 0.116470
v 0.051386 -0.320281 0.236964
v 0.074081 0.188620 -0.012370
v -0.118371 -0.320275 0.090312
v 0.134141 0.168862 -0.076883
v 0.108931 0.175264 -0.033107
v 0.662741 -0.312593 -0.570668
v 0.662741 -0.312593 0.570668
v -0.406185 -0.312555 0.570667
v -0.662741 -0.312546 -0.570668
vt 7.497305 1.000301
vt 7.497305 0.952779
vt -6.921342 1.105710
vt -20.572485 1.250500
vt 1.727424 1.051730
vt -34.367126 1.396812
vt -45.887451 1.519002
vt 7.497305 0.989067
vt 4.232876 1.024166
vt 1.093091 2.000000
vt 0.896405 1.000000
vt 2.000002 1.000000
vt 2.000002 2.000000
vn 0.839678 0.309468 0.446285
vn -0.837016 0.388164 0.385659
vn -0.034566 0.527753 0.848694
vn 0.709081 0.334268 0.620862
vn -0.037893 0.441023 0.896696
vn -0.132393 0.482563 0.865798
vn -0.744729 0.390795 0.540978
vn 0.841757 0.314545 0.438756
vn 0.720643 0.342406 0.602853
vn 0.000036 1.000000 -0.000000
vn 0.000036 1.000000 -0.000000
vn 0.000036 1.000000 -0.000000
vn 0.000036 1.000000 -0.000000
g fff0305e_00152_004fe719_e5
f 9/9/9 8/8/8 3/1/3
f 2/7/2 7/6/7 6/5/6
f 2/7/2 6/5/6 3/1/3
f 6/5/6 9/9/9 3/1/3
f 7/6/7 5/4/5 6/5/6
f 6/5/6 4/3/4 9/9/9
f 4/3/4 1/2/1 9/9/9
f 6/5/6 5/4/5 4/3/4
f 9/9/9 1/2/1 8/8/8
g fff0305e_00152_004fe719_e7
f 13/11/13 12/10/12 11/13/11
f 11/13/11 10/12/10 13/11/13
