# fff0acba_00071_001747f7
o fff0acba_00071_001747f7
v -4.669983 -4.753071 -0.037991
v 2.109680 -0.488001 -1.178894
v -2.405334 0.033666 -1.178894
v 4.291687 2.540869 -1.178894
v 0.776306 4.694433 -1.178894
v 0.067127 -4.946991 -0.037991
v -4.029586 -2.997917 -1.178894
v 0.785016 -3.008696 -1.178894
v 0.859739 -2.962088 -0.435848
v -3.942342 -2.922895 -0.435848
v -4.153095 -3.433197 -0.037991
v -4.043467 -3.399395 -0.435848
v -1.201718 -3.560320 -0.435848
v 0.663049 -3.665920 -0.435848
v -4.129805 -3.227589 -0.725609
v -1.599311 -3.555662 -0.037991
v 0.562700 -3.723334 -0.037991
vt 1.999908 1.015184
vt 0.974538 1.987768
vt 2.000962 1.997876
vt 1.027650 1.030888
vt 0.999966 1.055841
vt 1.000722 1.014206
vt 1.995949 1.055531
vt 1.998740 1.027079
vt 1.017037 1.040454
vt 1.026147 1.032242
vt 1.999662 1.017686
vt 1.999756 1.016728
vt 1.999726 1.017033
vt 1.412959 1.025466
vt 1.026801 1.031653
vt 1.999741 1.016879
vt 1.475859 1.024364
vt 1.026927 1.031540
vn -0.000000 -0.000000 1.000000
vn 0.000000 0.000000 1.000000
vn 0.000000 0.000000 1.000000
vn 0.000000 0.000000 1.000000
vn 0.000000 0.000000 1.000000
vn -0.000000 -0.000000 1.000000
vn 0.000000 0.000000 1.000000
vn 0.000000 0.000000 1.000000
vn 0.000000 0.000000 1.000000
vn 0.000000 0.000000 1.000000
vn -0.000000 -0.000000 1.000000
vn -0.054016 -0.953865 0.295338
vn -0.001796 -0.031718 0.999495
vn 0.000000 0.000000 1.000000
vn -0.049011 -0.865471 -0.498556
vn -0.000000 -0.000000 1.000000
vn -0.000000 -0.000000 1.000000
g fff0acba_00071_001747f7_e9
f 2/5/2 3/7/3 7/8/7
f 13/14/13 14/15/14 9/10/9
f 1/1/1 6/4/6 17/18/17
f 2/6/2 4/2/4 3/1/3
f 3/1/3 4/2/4 5/3/5
f 2/5/2 7/8/7 8/9/8
f 1/1/1 16/17/16 11/12/11
f 1/1/1 17/18/17 16/17/16
f 12/13/12 9/10/9 10/11/10
f 13/14/13 9/10/9 12/13/12
f 13/14/13 12/13/12 15/16/15
