# fff01765_00040_002f1500
o fff01765_00040_002f1500
v -3.528742 0.053906 5.480992
v -1.568277 0.114042 7.952043
v 3.552410 0.053906 5.480967
v 1.651407 0.113360 7.923990
v -2.351667 0.055978 5.566137
v 2.525085 0.055017 5.526592
v 1.902075 0.006549 0.284494
v 1.202594 0.006549 0.284494
v -1.151219 0.006549 0.284494
v -1.963724 0.006549 0.284494
v -2.277893 0.006549 0.201015
v 2.245048 0.006549 0.150703
v -1.637183 0.006549 0.647159
v 1.687413 0.006549 0.620084
v 2.239158 0.025207 4.301681
v 1.702404 0.049770 5.310994
v -1.621865 0.050793 5.353072
v -2.283899 0.026252 4.344653
v 0.080119 0.065701 5.965640
v 0.039821 0.006549 1.027643
v -0.847302 0.006549 0.881717
v 0.939288 0.006549 0.918381
v -2.275280 0.006549 0.659891
v -1.634552 0.006549 1.228078
v -0.847302 0.006549 1.470382
v 0.040357 0.006549 1.640566
v 2.247654 0.006549 0.601680
v 1.690049 0.006549 1.193372
v 0.939289 0.006549 1.506877
v 0.043308 0.007352 2.723622
v -0.919406 0.006549 2.415125
v 1.001653 0.006549 2.322714
v -1.633001 0.006549 1.705596
v 1.691244 0.006549 1.569672
v -0.033973 0.006549 -0.010622
v -2.777950 0.006549 -0.010622
v 2.748192 0.006549 -0.010622
v -2.684685 0.006549 2.059458
v -0.032749 0.006549 2.723614
v 2.681105 0.006549 2.027544
v -0.032367 0.006549 1.353671
vt 0.323503 0.340352
vt 0.436980 0.496405
vt 0.404558 0.500080
vt 0.422465 0.607675
vt 0.319498 0.619957
vt 0.314220 0.340652
vt 0.252451 0.518406
vt 0.267638 0.520368
vt 0.266695 0.342185
vt 0.276223 0.341878
vt 4.668051 4.233938
vt 4.997540 3.003785
vt 4.668051 3.003785
vt 4.997540 4.036179
vt 3.291197 4.233938
vt 3.291197 3.003785
vt 2.996587 4.034462
vt 2.996587 3.003785
vt 4.001409 4.290720
vt 4.001048 3.003858
vt 4.351202 3.003866
vt 3.611548 3.003901
vt 4.997540 3.089518
vt 4.668051 3.089518
vt 4.351206 3.089591
vt 4.001048 3.089591
vt 2.996587 3.089518
vt 3.291197 3.089518
vt 3.611518 3.089657
vt 4.001529 3.236294
vt 4.381481 3.215800
vt 3.585391 3.201034
vt 4.668051 3.151849
vt 3.291197 3.139340
vt 3.007645 3.487266
vt 3.991719 3.487266
vt 3.991719 3.005494
vt 3.007645 3.005419
vt 3.007645 3.995216
vt 3.991719 3.995405
vt 3.499682 3.487266
vn -0.000668 0.999886 -0.015098
vn -0.000000 0.999704 -0.024329
vn 0.000363 0.999882 -0.015337
vn -0.000000 0.999704 -0.024329
vn -0.000244 0.999855 -0.017049
vn 0.000206 0.999857 -0.016935
vn 0.000000 0.999959 -0.009113
vn 0.000037 0.999958 -0.009207
vn 0.000032 0.999957 -0.009317
vn -0.000127 0.999956 -0.009368
vn -0.000000 -1.000000 0.000000
vn 0.000000 -1.000000 0.000000
vn 0.000000 -1.000000 -0.000000
vn 0.000000 -1.000000 0.000000
vn -0.021431 -0.999708 0.011125
vn -0.006208 -0.999880 0.014218
vn 0.005240 -0.999880 0.014586
vn 0.016115 -0.999805 0.011439
vn -0.000030 -0.999871 0.016081
vn 0.000000 -1.000000 0.000000
vn 0.000000 -1.000000 0.000000
vn -0.000000 -1.000000 0.000000
vn -0.001523 -0.999998 0.000936
vn 0.000000 -1.000000 -0.000000
vn 0.000000 -1.000000 -0.000000
vn 0.000005 -1.000000 0.000218
vn 0.001460 -0.999999 0.000839
vn 0.000000 -1.000000 0.000000
vn -0.000000 -1.000000 0.000000
vn 0.000602 -0.999936 0.011301
vn -0.004513 -0.999955 0.008332
vn 0.004962 -0.999956 0.007905
vn -0.004026 -0.999984 0.003982
vn 0.004143 -0.999985 0.003676
vn 0.000000 -1.000000 0.000000
vn 0.000000 -1.000000 0.000000
vn 0.000000 -1.000000 0.000000
vn 0.000000 -1.000000 0.000000
vn 0.000000 -1.000000 0.000000
vn 0.000000 -1.000000 0.000000
vn 0.000000 -1.000000 0.000000
g fff01765_00040_002f1500_e0
f 8/10/8 9/6/9 6/7/6
f 8/10/8 6/7/6 3/8/3
f 7/9/7 8/10/8 3/8/3
f 5/3/5 4/5/4 6/7/6
f 9/6/9 5/3/5 6/7/6
f 6/7/6 4/5/4 3/8/3
f 9/6/9 10/1/10 5/3/5
f 1/2/1 2/4/2 5/3/5
f 2/4/2 4/5/4 5/3/5
f 10/1/10 1/2/1 5/3/5
g fff01765_00040_002f1500_e4
f 24/24/24 11/12/11 13/13/13
f 24/24/24 23/23/23 11/12/11
f 32/32/32 19/19/19 30/30/30
f 27/27/27 28/28/28 14/16/14
f 27/27/27 14/16/14 12/18/12
f 31/31/31 26/26/26 30/30/30
f 25/25/25 24/24/24 13/13/13
f 28/28/28 22/22/22 14/16/14
f 20/20/20 26/26/26 25/25/25
f 16/15/16 19/19/19 32/32/32
f 24/24/24 33/33/33 23/23/23
f 17/11/17 18/14/18 33/33/33
f 31/31/31 17/11/17 33/33/33
f 21/21/21 25/25/25 13/13/13
f 20/20/20 25/25/25 21/21/21
f 31/31/31 19/19/19 17/11/17
f 26/26/26 20/20/20 22/22/22
f 15/17/15 34/34/34 27/27/27
f 15/17/15 16/15/16 34/34/34
f 16/15/16 32/32/32 34/34/34
f 29/29/29 26/26/26 22/22/22
f 29/29/29 22/22/22 28/28/28
f 32/32/32 30/30/30 26/26/26
f 31/31/31 30/30/30 19/19/19
f 25/25/25 26/26/26 31/31/31
f 25/25/25 31/31/31 33/33/33
f 32/32/32 26/26/26 29/29/29
f 34/34/34 29/29/29 28/28/28
f 33/33/33 18/14/18 23/23/23
f 25/25/25 33/33/33 24/24/24
f 27/27/27 34/34/34 28/28/28
f 34/34/34 32/32/32 29/29/29
g fff01765_00040_002f1500_e5
f 36/38/36 35/35/35 41/41/41
f 36/38/36 41/41/41 39/36/39
f 40/40/40 39/36/39 37/39/37
f 37/39/37 39/36/39 41/41/41
f 36/38/36 39/36/39 38/37/38
f 37/39/37 41/41/41 35/35/35
