# fff0a81b_00576_00c7ff3c
o fff0a81b_00576_00c7ff3c
v 0.033958 21.208548 -0.033821
v -0.034157 21.208548 -0.033821
v -0.034096 21.333548 -0.033821
v 0.034019 21.333548 -0.033821
v 0.034019 21.309011 0.066624
v 0.009910 21.303213 0.060806
v 0.034019 21.324759 0.028681
v 0.009910 21.316519 0.028681
v 0.034019 21.309011 -0.009262
v 0.009910 21.303213 -0.003445
v 0.034019 21.271109 -0.024979
v 0.009849 21.271109 -0.016752
v 0.009849 21.239004 -0.003445
v 0.009849 21.225637 0.028681
v 0.009849 21.271109 0.074114
v 0.009849 21.239004 0.060806
v 0.033958 21.233145 -0.009262
v 0.033958 21.217459 0.028681
v 0.033958 21.233145 0.066624
v 0.034019 21.271109 0.082340
v -0.034096 21.333548 0.091181
v 0.034019 21.333548 0.091181
v 0.033958 21.208548 0.091181
v -0.034157 21.208548 0.091181
v -0.025490 21.208670 -0.030777
v -0.025490 21.188040 -0.101467
v -0.025429 21.345266 -0.101467
v -0.025429 21.333303 -0.030777
v -0.025490 21.191214 0.101467
v -0.025429 21.350821 0.101467
v -0.025429 21.333303 0.091547
v -0.025490 21.208670 0.091547
v 0.033958 21.451590 -0.033821
v -0.034157 21.451590 -0.033821
v -0.033974 21.576590 -0.033821
v 0.034141 21.576590 -0.033821
v 0.034141 21.552053 0.066624
v 0.010032 21.546255 0.060806
v 0.034141 21.567801 0.028681
v 0.010032 21.559561 0.028681
v 0.034141 21.552053 -0.009262
v 0.010032 21.546255 -0.003445
v 0.034080 21.514151 -0.024979
v 0.009971 21.514151 -0.016752
v 0.009849 21.482046 -0.003445
v 0.009849 21.468679 0.028681
v 0.009971 21.514151 0.074114
v 0.009849 21.482046 0.060806
v 0.033958 21.476187 -0.009262
v 0.033958 21.460501 0.028681
v 0.033958 21.476187 0.066624
v 0.034080 21.514151 0.082340
v -0.033974 21.576590 0.091181
v 0.034141 21.576590 0.091181
v 0.033958 21.451590 0.091181
v -0.034157 21.451590 0.091181
v -0.025490 21.451712 -0.030777
v -0.025490 21.431082 -0.101467
v -0.025307 21.588308 -0.101467
v -0.025307 21.576345 -0.030777
v -0.025490 21.434256 0.101467
v -0.025307 21.593863 0.101467
v -0.025307 21.576345 0.091547
v -0.025490 21.451712 0.091547
v 0.034080 21.676992 -0.033821
v -0.034035 21.676992 -0.033821
v -0.033974 21.801992 -0.033821
v 0.034141 21.801992 -0.033821
v 0.034141 21.777456 0.066624
v 0.010032 21.771658 0.060806
v 0.034141 21.793203 0.028681
v 0.010032 21.784964 0.028681
v 0.034141 21.777456 -0.009262
v 0.010032 21.771658 -0.003445
v 0.034141 21.739553 -0.024979
v 0.009971 21.739553 -0.016752
v 0.009971 21.707449 -0.003445
v 0.009971 21.694082 0.028681
v 0.009971 21.739553 0.074114
v 0.009971 21.707449 0.060806
v 0.034080 21.701590 -0.009262
v 0.034080 21.685904 0.028681
v 0.034080 21.701590 0.066624
v 0.034141 21.739553 0.082340
v -0.033974 21.801992 0.091181
v 0.034141 21.801992 0.091181
v 0.034080 21.676992 0.091181
v -0.034035 21.676992 0.091181
v -0.025368 21.677114 -0.030777
v -0.025368 21.656485 -0.101467
v -0.025307 21.813711 -0.101467
v -0.025307 21.801748 -0.030777
v -0.025368 21.659658 0.101467
v -0.025307 21.819265 0.101467
v -0.025307 21.801748 0.091547
v -0.025368 21.677114 0.091547
v 0.007279 38.238754 -0.033821
v -0.060836 38.238754 -0.033821
v -0.060775 38.363754 -0.033821
v 0.007340 38.363754 -0.033821
v 0.007340 38.339218 0.066624
v -0.016769 38.333420 0.060806
v 0.007340 38.354965 0.028681
v -0.016769 38.346725 0.028681
v 0.007340 38.339218 -0.009262
v -0.016769 38.333420 -0.003445
v 0.007340 38.301315 -0.024979
v -0.016830 38.301315 -0.016752
v -0.016830 38.269211 -0.003445
v -0.016830 38.255844 0.028681
v -0.016830 38.301315 0.074114
v -0.016830 38.269211 0.060806
v 0.007279 38.263351 -0.009262
v 0.007279 38.247665 0.028681
v 0.007279 38.263351 0.066624
v 0.007340 38.301315 0.082340
v -0.060775 38.363754 0.091181
v 0.007340 38.363754 0.091181
v 0.007279 38.238754 0.091181
v -0.060836 38.238754 0.091181
v -0.052169 38.238876 -0.030777
v -0.052169 38.218246 -0.101467
v -0.052108 38.375473 -0.101467
v -0.052108 38.363510 -0.030777
v -0.052169 38.221420 0.101467
v -0.052108 38.381027 0.101467
v -0.052108 38.363510 0.091547
v -0.052169 38.238876 0.091547
v 0.007279 38.481796 -0.033821
v -0.060836 38.481796 -0.033821
v -0.060653 38.606796 -0.033821
v 0.007462 38.606796 -0.033821
v 0.007462 38.582260 0.066624
v -0.016647 38.576462 0.060806
v 0.007462 38.598007 0.028681
v -0.016647 38.589767 0.028681
v 0.007462 38.582260 -0.009262
v -0.016647 38.576462 -0.003445
v 0.007401 38.544357 -0.024979
v -0.016708 38.544357 -0.016752
v -0.016830 38.512253 -0.003445
v -0.016830 38.498886 0.028681
v -0.016708 38.544357 0.074114
v -0.016830 38.512253 0.060806
v 0.007279 38.506393 -0.009262
v 0.007279 38.490707 0.028681
v 0.007279 38.506393 0.066624
v 0.007401 38.544357 0.082340
v -0.060653 38.606796 0.091181
v 0.007462 38.606796 0.091181
v 0.007279 38.481796 0.091181
v -0.060836 38.481796 0.091181
v -0.052169 38.481918 -0.030777
v -0.052169 38.461288 -0.101467
v -0.051986 38.618515 -0.101467
v -0.051986 38.606552 -0.030777
v -0.052169 38.464462 0.101467
v -0.051986 38.624069 0.101467
v -0.051986 38.606552 0.091547
v -0.052169 38.481918 0.091547
v 0.007401 38.707199 -0.033821
v -0.060714 38.707199 -0.033821
v -0.060653 38.832199 -0.033821
v 0.007462 38.832199 -0.033821
v 0.007462 38.807663 0.066624
v -0.016647 38.801865 0.060806
v 0.007462 38.823410 0.028681
v -0.016647 38.815170 0.028681
v 0.007462 38.807663 -0.009262
v -0.016647 38.801865 -0.003445
v 0.007462 38.769760 -0.024979
v -0.016708 38.769760 -0.016752
v -0.016708 38.737656 -0.003445
v -0.016708 38.724289 0.028681
v -0.016708 38.769760 0.074114
v -0.016708 38.737656 0.060806
v 0.007401 38.731796 -0.009262
v 0.007401 38.716110 0.028681
v 0.007401 38.731796 0.066624
v 0.007462 38.769760 0.082340
v -0.060653 38.832199 0.091181
v 0.007462 38.832199 0.091181
v 0.007401 38.707199 0.091181
v -0.060714 38.707199 0.091181
v -0.052047 38.707321 -0.030777
v -0.052047 38.686691 -0.101467
v -0.051986 38.843918 -0.101467
v -0.051986 38.831955 -0.030777
v -0.052047 38.689865 0.101467
v -0.051986 38.849472 0.101467
v -0.051986 38.831955 0.091547
v -0.052047 38.707321 0.091547
v 24.090008 26.767942 -0.033821
v 24.090008 26.836058 -0.033821
v 24.215008 26.835997 -0.033821
v 24.215008 26.767881 -0.033821
v 24.190472 26.767881 0.066624
v 24.184673 26.791990 0.060806
v 24.206219 26.767881 0.028681
v 24.197979 26.791990 0.028681
v 24.190472 26.767881 -0.009262
v 24.184673 26.791990 -0.003445
v 24.152569 26.767881 -0.024979
v 24.152569 26.792051 -0.016752
v 24.120464 26.792051 -0.003445
v 24.107098 26.792051 0.028681
v 24.152569 26.792051 0.074114
v 24.120464 26.792051 0.060806
v 24.114605 26.767942 -0.009262
v 24.098919 26.767942 0.028681
v 24.114605 26.767942 0.066624
v 24.152569 26.767881 0.082340
v 24.215008 26.835997 0.091181
v 24.215008 26.767881 0.091181
v 24.090008 26.767942 0.091181
v 24.090008 26.836058 0.091181
v 24.090130 26.827391 -0.030777
v 24.069500 26.827391 -0.101467
v 24.226727 26.827330 -0.101467
v 24.214764 26.827330 -0.030777
v 24.072674 26.827391 0.101467
v 24.232281 26.827330 0.101467
v 24.214764 26.827330 0.091547
v 24.090130 26.827391 0.091547
v 24.333050 26.767942 -0.033821
v 24.333050 26.836058 -0.033821
v 24.458050 26.835875 -0.033821
v 24.458050 26.767759 -0.033821
v 24.433514 26.767759 0.066624
v 24.427715 26.791868 0.060806
v 24.449261 26.767759 0.028681
v 24.441021 26.791868 0.028681
v 24.433514 26.767759 -0.009262
v 24.427715 26.791868 -0.003445
v 24.395611 26.767820 -0.024979
v 24.395611 26.791929 -0.016752
v 24.363506 26.792051 -0.003445
v 24.350140 26.792051 0.028681
v 24.395611 26.791929 0.074114
v 24.363506 26.792051 0.060806
v 24.357647 26.767942 -0.009262
v 24.341961 26.767942 0.028681
v 24.357647 26.767942 0.066624
v 24.395611 26.767820 0.082340
v 24.458050 26.835875 0.091181
v 24.458050 26.767759 0.091181
v 24.333050 26.767942 0.091181
v 24.333050 26.836058 0.091181
v 24.333172 26.827391 -0.030777
v 24.312542 26.827391 -0.101467
v 24.469769 26.827208 -0.101467
v 24.457806 26.827208 -0.030777
v 24.315716 26.827391 0.101467
v 24.475323 26.827208 0.101467
v 24.457806 26.827208 0.091547
v 24.333172 26.827391 0.091547
v 24.558453 26.767820 -0.033821
v 24.558453 26.835936 -0.033821
v 24.683453 26.835875 -0.033821
v 24.683453 26.767759 -0.033821
v 24.658916 26.767759 0.066624
v 24.653118 26.791868 0.060806
v 24.674664 26.767759 0.028681
v 24.666424 26.791868 0.028681
v 24.658916 26.767759 -0.009262
v 24.653118 26.791868 -0.003445
v 24.621014 26.767759 -0.024979
v 24.621014 26.791929 -0.016752
v 24.588909 26.791929 -0.003445
v 24.575542 26.791929 0.028681
v 24.621014 26.791929 0.074114
v 24.588909 26.791929 0.060806
v 24.583050 26.767820 -0.009262
v 24.567364 26.767820 0.028681
v 24.583050 26.767820 0.066624
v 24.621014 26.767759 0.082340
v 24.683453 26.835875 0.091181
v 24.683453 26.767759 0.091181
v 24.558453 26.767820 0.091181
v 24.558453 26.835936 0.091181
v 24.558575 26.827269 -0.030777
v 24.537945 26.827269 -0.101467
v 24.695171 26.827208 -0.101467
v 24.683208 26.827208 -0.030777
v 24.541119 26.827269 0.101467
v 24.700726 26.827208 0.101467
v 24.683208 26.827208 0.091547
v 24.558575 26.827269 0.091547
v 24.090006 35.217159 -0.033821
v 24.090006 35.285275 -0.033821
v 24.215006 35.285213 -0.033821
v 24.215006 35.217098 -0.033821
v 24.190470 35.217098 0.066624
v 24.184671 35.241207 0.060806
v 24.206217 35.217098 0.028681
v 24.197977 35.241207 0.028681
v 24.190470 35.217098 -0.009262
v 24.184671 35.241207 -0.003445
v 24.152567 35.217098 -0.024979
v 24.152567 35.241268 -0.016752
v 24.120462 35.241268 -0.003445
v 24.107096 35.241268 0.028681
v 24.152567 35.241268 0.074114
v 24.120462 35.241268 0.060806
v 24.114603 35.217159 -0.009262
v 24.098917 35.217159 0.028681
v 24.114603 35.217159 0.066624
v 24.152567 35.217098 0.082340
v 24.215006 35.285213 0.091181
v 24.215006 35.217098 0.091181
v 24.090006 35.217159 0.091181
v 24.090006 35.285275 0.091181
v 24.090128 35.276608 -0.030777
v 24.069498 35.276608 -0.101467
v 24.226725 35.276546 -0.101467
v 24.214762 35.276546 -0.030777
v 24.072672 35.276608 0.101467
v 24.232279 35.276546 0.101467
v 24.214762 35.276546 0.091547
v 24.090128 35.276608 0.091547
v 24.333048 35.217159 -0.033821
v 24.333048 35.285275 -0.033821
v 24.458048 35.285091 -0.033821
v 24.458048 35.216976 -0.033821
v 24.433512 35.216976 0.066624
v 24.427713 35.241085 0.060806
v 24.449259 35.216976 0.028681
v 24.441019 35.241085 0.028681
v 24.433512 35.216976 -0.009262
v 24.427713 35.241085 -0.003445
v 24.395609 35.217037 -0.024979
v 24.395609 35.241146 -0.016752
v 24.363504 35.241268 -0.003445
v 24.350138 35.241268 0.028681
v 24.395609 35.241146 0.074114
v 24.363504 35.241268 0.060806
v 24.357645 35.217159 -0.009262
v 24.341959 35.217159 0.028681
v 24.357645 35.217159 0.066624
v 24.395609 35.217037 0.082340
v 24.458048 35.285091 0.091181
v 24.458048 35.216976 0.091181
v 24.333048 35.217159 0.091181
v 24.333048 35.285275 0.091181
v 24.333170 35.276608 -0.030777
v 24.312540 35.276608 -0.101467
v 24.469767 35.276424 -0.101467
v 24.457804 35.276424 -0.030777
v 24.315714 35.276608 0.101467
v 24.475321 35.276424 0.101467
v 24.457804 35.276424 0.091547
v 24.333170 35.276608 0.091547
v 24.558451 35.217037 -0.033821
v 24.558451 35.285152 -0.033821
v 24.683451 35.285091 -0.033821
v 24.683451 35.216976 -0.033821
v 24.658915 35.216976 0.066624
v 24.653116 35.241085 0.060806
v 24.674662 35.216976 0.028681
v 24.666422 35.241085 0.028681
v 24.658915 35.216976 -0.009262
v 24.653116 35.241085 -0.003445
v 24.621012 35.216976 -0.024979
v 24.621012 35.241146 -0.016752
v 24.588907 35.241146 -0.003445
v 24.575541 35.241146 0.028681
v 24.621012 35.241146 0.074114
v 24.588907 35.241146 0.060806
v 24.583048 35.217037 -0.009262
v 24.567362 35.217037 0.028681
v 24.583048 35.217037 0.066624
v 24.621012 35.216976 0.082340
v 24.683451 35.285091 0.091181
v 24.683451 35.216976 0.091181
v 24.558451 35.217037 0.091181
v 24.558451 35.285152 0.091181
v 24.558573 35.276485 -0.030777
v 24.537943 35.276485 -0.101467
v 24.695169 35.276424 -0.101467
v 24.683207 35.276424 -0.030777
v 24.541117 35.276485 0.101467
v 24.700724 35.276424 0.101467
v 24.683207 35.276424 0.091547
v 24.558573 35.276485 0.091547
v 24.090004 43.616997 -0.033821
v 24.090004 43.685112 -0.033821
v 24.215004 43.685051 -0.033821
v 24.215004 43.616936 -0.033821
v 24.190468 43.616936 0.066624
v 24.184669 43.641045 0.060806
v 24.206215 43.616936 0.028681
v 24.197975 43.641045 0.028681
v 24.190468 43.616936 -0.009262
v 24.184669 43.641045 -0.003445
v 24.152565 43.616936 -0.024979
v 24.152565 43.641106 -0.016752
v 24.120461 43.641106 -0.003445
v 24.107094 43.641106 0.028681
v 24.152565 43.641106 0.074114
v 24.120461 43.641106 0.060806
v 24.114601 43.616997 -0.009262
v 24.098915 43.616997 0.028681
v 24.114601 43.616997 0.066624
v 24.152565 43.616936 0.082340
v 24.215004 43.685051 0.091181
v 24.215004 43.616936 0.091181
v 24.090004 43.616997 0.091181
v 24.090004 43.685112 0.091181
v 24.090126 43.676445 -0.030777
v 24.069496 43.676445 -0.101467
v 24.226723 43.676384 -0.101467
v 24.214760 43.676384 -0.030777
v 24.072670 43.676445 0.101467
v 24.232277 43.676384 0.101467
v 24.214760 43.676384 0.091547
v 24.090126 43.676445 0.091547
v 24.333046 43.616997 -0.033821
v 24.333046 43.685112 -0.033821
v 24.458046 43.684929 -0.033821
v 24.458046 43.616814 -0.033821
v 24.433510 43.616814 0.066624
v 24.427711 43.640923 0.060806
v 24.449257 43.616814 0.028681
v 24.441017 43.640923 0.028681
v 24.433510 43.616814 -0.009262
v 24.427711 43.640923 -0.003445
v 24.395607 43.616875 -0.024979
v 24.395607 43.640984 -0.016752
v 24.363503 43.641106 -0.003445
v 24.350136 43.641106 0.028681
v 24.395607 43.640984 0.074114
v 24.363503 43.641106 0.060806
v 24.357643 43.616997 -0.009262
v 24.341957 43.616997 0.028681
v 24.357643 43.616997 0.066624
v 24.395607 43.616875 0.082340
v 24.458046 43.684929 0.091181
v 24.458046 43.616814 0.091181
v 24.333046 43.616997 0.091181
v 24.333046 43.685112 0.091181
v 24.333168 43.676445 -0.030777
v 24.312538 43.676445 -0.101467
v 24.469765 43.676262 -0.101467
v 24.457802 43.676262 -0.030777
v 24.315712 43.676445 0.101467
v 24.475319 43.676262 0.101467
v 24.457802 43.676262 0.091547
v 24.333168 43.676445 0.091547
v 24.558449 43.616875 -0.033821
v 24.558449 43.684990 -0.033821
v 24.683449 43.684929 -0.033821
v 24.683449 43.616814 -0.033821
v 24.658913 43.616814 0.066624
v 24.653114 43.640923 0.060806
v 24.674660 43.616814 0.028681
v 24.666420 43.640923 0.028681
v 24.658913 43.616814 -0.009262
v 24.653114 43.640923 -0.003445
v 24.621010 43.616814 -0.024979
v 24.621010 43.640984 -0.016752
v 24.588905 43.640984 -0.003445
v 24.575539 43.640984 0.028681
v 24.621010 43.640984 0.074114
v 24.588905 43.640984 0.060806
v 24.583046 43.616875 -0.009262
v 24.567360 43.616875 0.028681
v 24.583046 43.616875 0.066624
v 24.621010 43.616814 0.082340
v 24.683449 43.684929 0.091181
v 24.683449 43.616814 0.091181
v 24.558449 43.616875 0.091181
v 24.558449 43.684990 0.091181
v 24.558571 43.676323 -0.030777
v 24.537941 43.676323 -0.101467
v 24.695168 43.676262 -0.101467
v 24.683205 43.676262 -0.030777
v 24.541115 43.676323 0.101467
v 24.700722 43.676262 0.101467
v 24.683205 43.676262 0.091547
v 24.558571 43.676323 0.091547
v 24.090012 18.410707 -0.033821
v 24.090012 18.478823 -0.033821
v 24.215012 18.478762 -0.033821
v 24.215012 18.410646 -0.033821
v 24.190475 18.410646 0.066624
v 24.184677 18.434755 0.060806
v 24.206223 18.410646 0.028681
v 24.197983 18.434755 0.028681
v 24.190475 18.410646 -0.009262
v 24.184677 18.434755 -0.003445
v 24.152573 18.410646 -0.024979
v 24.152573 18.434816 -0.016752
v 24.120468 18.434816 -0.003445
v 24.107101 18.434816 0.028681
v 24.152573 18.434816 0.074114
v 24.120468 18.434816 0.060806
v 24.114609 18.410707 -0.009262
v 24.098923 18.410707 0.028681
v 24.114609 18.410707 0.066624
v 24.152573 18.410646 0.082340
v 24.215012 18.478762 0.091181
v 24.215012 18.410646 0.091181
v 24.090012 18.410707 0.091181
v 24.090012 18.478823 0.091181
v 24.090134 18.470156 -0.030777
v 24.069504 18.470156 -0.101467
v 24.226730 18.470095 -0.101467
v 24.214767 18.470095 -0.030777
v 24.072678 18.470156 0.101467
v 24.232285 18.470095 0.101467
v 24.214767 18.470095 0.091547
v 24.090134 18.470156 0.091547
v 24.333054 18.410707 -0.033821
v 24.333054 18.478823 -0.033821
v 24.458054 18.478640 -0.033821
v 24.458054 18.410524 -0.033821
v 24.433517 18.410524 0.066624
v 24.427719 18.434633 0.060806
v 24.449265 18.410524 0.028681
v 24.441025 18.434633 0.028681
v 24.433517 18.410524 -0.009262
v 24.427719 18.434633 -0.003445
v 24.395615 18.410585 -0.024979
v 24.395615 18.434694 -0.016752
v 24.363510 18.434816 -0.003445
v 24.350143 18.434816 0.028681
v 24.395615 18.434694 0.074114
v 24.363510 18.434816 0.060806
v 24.357651 18.410707 -0.009262
v 24.341965 18.410707 0.028681
v 24.357651 18.410707 0.066624
v 24.395615 18.410585 0.082340
v 24.458054 18.478640 0.091181
v 24.458054 18.410524 0.091181
v 24.333054 18.410707 0.091181
v 24.333054 18.478823 0.091181
v 24.333176 18.470156 -0.030777
v 24.312546 18.470156 -0.101467
v 24.469772 18.469973 -0.101467
v 24.457809 18.469973 -0.030777
v 24.315720 18.470156 0.101467
v 24.475327 18.469973 0.101467
v 24.457809 18.469973 0.091547
v 24.333176 18.470156 0.091547
v 24.558456 18.410585 -0.033821
v 24.558456 18.478701 -0.033821
v 24.683456 18.478640 -0.033821
v 24.683456 18.410524 -0.033821
v 24.658920 18.410524 0.066624
v 24.653122 18.434633 0.060806
v 24.674667 18.410524 0.028681
v 24.666428 18.434633 0.028681
v 24.658920 18.410524 -0.009262
v 24.653122 18.434633 -0.003445
v 24.621017 18.410524 -0.024979
v 24.621017 18.434694 -0.016752
v 24.588913 18.434694 -0.003445
v 24.575546 18.434694 0.028681
v 24.621017 18.434694 0.074114
v 24.588913 18.434694 0.060806
v 24.583054 18.410585 -0.009262
v 24.567368 18.410585 0.028681
v 24.583054 18.410585 0.066624
v 24.621017 18.410524 0.082340
v 24.683456 18.478640 0.091181
v 24.683456 18.410524 0.091181
v 24.558456 18.410585 0.091181
v 24.558456 18.478701 0.091181
v 24.558578 18.470034 -0.030777
v 24.537949 18.470034 -0.101467
v 24.695175 18.469973 -0.101467
v 24.683212 18.469973 -0.030777
v 24.541122 18.470034 0.101467
v 24.700729 18.469973 0.101467
v 24.683212 18.469973 0.091547
v 24.558578 18.470034 0.091547
v 24.090015 10.001593 -0.033821
v 24.090015 10.069708 -0.033821
v 24.215015 10.069647 -0.033821
v 24.215015 10.001532 -0.033821
v 24.190479 10.001532 0.066624
v 24.184681 10.025640 0.060806
v 24.206226 10.001532 0.028681
v 24.197987 10.025640 0.028681
v 24.190479 10.001532 -0.009262
v 24.184681 10.025640 -0.003445
v 24.152576 10.001532 -0.024979
v 24.152576 10.025702 -0.016752
v 24.120472 10.025702 -0.003445
v 24.107105 10.025702 0.028681
v 24.152576 10.025702 0.074114
v 24.120472 10.025702 0.060806
v 24.114613 10.001593 -0.009262
v 24.098927 10.001593 0.028681
v 24.114613 10.001593 0.066624
v 24.152576 10.001532 0.082340
v 24.215015 10.069647 0.091181
v 24.215015 10.001532 0.091181
v 24.090015 10.001593 0.091181
v 24.090015 10.069708 0.091181
v 24.090137 10.061041 -0.030777
v 24.069508 10.061041 -0.101467
v 24.226734 10.060980 -0.101467
v 24.214771 10.060980 -0.030777
v 24.072681 10.061041 0.101467
v 24.232288 10.060980 0.101467
v 24.214771 10.060980 0.091547
v 24.090137 10.061041 0.091547
v 24.333057 10.001593 -0.033821
v 24.333057 10.069708 -0.033821
v 24.458057 10.069525 -0.033821
v 24.458057 10.001410 -0.033821
v 24.433521 10.001410 0.066624
v 24.427723 10.025518 0.060806
v 24.449268 10.001410 0.028681
v 24.441029 10.025518 0.028681
v 24.433521 10.001410 -0.009262
v 24.427723 10.025518 -0.003445
v 24.395618 10.001471 -0.024979
v 24.395618 10.025579 -0.016752
v 24.363514 10.025702 -0.003445
v 24.350147 10.025702 0.028681
v 24.395618 10.025579 0.074114
v 24.363514 10.025702 0.060806
v 24.357655 10.001593 -0.009262
v 24.341969 10.001593 0.028681
v 24.357655 10.001593 0.066624
v 24.395618 10.001471 0.082340
v 24.458057 10.069525 0.091181
v 24.458057 10.001410 0.091181
v 24.333057 10.001593 0.091181
v 24.333057 10.069708 0.091181
v 24.333179 10.061041 -0.030777
v 24.312550 10.061041 -0.101467
v 24.469776 10.060858 -0.101467
v 24.457813 10.060858 -0.030777
v 24.315723 10.061041 0.101467
v 24.475330 10.060858 0.101467
v 24.457813 10.060858 0.091547
v 24.333179 10.061041 0.091547
v 24.558460 10.001471 -0.033821
v 24.558460 10.069586 -0.033821
v 24.683460 10.069525 -0.033821
v 24.683460 10.001410 -0.033821
v 24.658924 10.001410 0.066624
v 24.653126 10.025518 0.060806
v 24.674671 10.001410 0.028681
v 24.666431 10.025518 0.028681
v 24.658924 10.001410 -0.009262
v 24.653126 10.025518 -0.003445
v 24.621021 10.001410 -0.024979
v 24.621021 10.025579 -0.016752
v 24.588917 10.025579 -0.003445
v 24.575550 10.025579 0.028681
v 24.621021 10.025579 0.074114
v 24.588917 10.025579 0.060806
v 24.583057 10.001471 -0.009262
v 24.567371 10.001471 0.028681
v 24.583057 10.001471 0.066624
v 24.621021 10.001410 0.082340
v 24.683460 10.069525 0.091181
v 24.683460 10.001410 0.091181
v 24.558460 10.001471 0.091181
v 24.558460 10.069586 0.091181
v 24.558582 10.060919 -0.030777
v 24.537952 10.060919 -0.101467
v 24.695179 10.060858 -0.101467
v 24.683216 10.060858 -0.030777
v 24.541126 10.060919 0.101467
v 24.700733 10.060858 0.101467
v 24.683216 10.060858 0.091547
v 24.558582 10.060919 0.091547
vt 0.000000 1.000000
vt 1.000000 1.000000
vt 1.000000 0.000000
vt 0.000000 0.000000
vt 1.000000 0.000000
vt 0.000000 0.000000
vt 0.000000 1.000000
vt 1.000000 1.000000
vt 0.000000 0.000000
vt 0.000000 0.000000
vt 1.000000 0.000000
vt 1.000000 0.000000
vt 0.000000 1.000000
vt 1.000000 1.000000
vt 1.000000 1.000000
vt 0.000000 1.000000
vt 0.921888 0.863217
vt 0.500000 1.037968
vt 0.500000 -0.155308
vt 0.078113 0.019443
vt 0.921888 0.019443
vt 0.078113 0.863218
vt 1.096638 0.441330
vt -0.096752 0.441331
vt 0.375000 0.000000
vt 0.375000 1.000000
vt 0.250000 0.000000
vt 0.250000 1.000000
vt 0.125000 0.000000
vt 0.000000 1.000000
vt 0.125000 1.000000
vt 0.000000 0.000000
vt 1.000000 1.000000
vt 1.000000 0.000000
vt 0.875000 0.000000
vt 0.875000 1.000000
vt 0.750000 0.000000
vt 0.750000 1.000000
vt 0.625000 0.000000
vt 0.625000 1.000000
vt 0.500000 0.000000
vt 0.500000 1.000000
vn 0.577223 -0.577517 -0.577311
vn 0.000000 -0.707217 -0.706997
vn 0.000000 0.706997 -0.707217
vn 0.577359 0.577334 -0.577358
vn 0.882793 -0.332124 -0.332221
vn 0.748530 -0.469198 -0.468568
vn 0.883184 -0.469027 0.000090
vn 0.748810 -0.662785 0.000175
vn 0.882866 -0.332052 0.332098
vn 0.748433 -0.469326 0.468596
vn 0.883665 -0.000754 0.468119
vn 0.749425 -0.000769 0.662089
vn 0.749483 0.467952 0.468291
vn 0.748438 0.663204 0.000553
vn 0.749384 -0.000444 -0.662136
vn 0.749597 0.467313 -0.468746
vn 0.883192 0.331325 0.331958
vn 0.882676 0.469981 0.000285
vn 0.883104 0.331159 -0.332356
vn 0.883696 -0.000586 -0.468060
vn 0.000000 0.706997 0.707217
vn 0.577359 0.577334 0.577358
vn 0.577223 -0.577517 0.577311
vn 0.000000 -0.707217 0.706997
vn 1.000000 -0.000193 0.000056
vn 1.000000 -0.000376 0.000058
vn 1.000000 -0.000341 -0.000058
vn 1.000000 -0.000153 -0.000004
vn 1.000000 -0.000125 -0.000219
vn 1.000000 -0.000159 0.000219
vn 1.000000 -0.000273 0.000482
vn 1.000000 -0.000215 -0.000352
vn 0.577086 -0.577701 -0.577264
vn 0.000000 -0.707437 -0.706777
vn 0.000000 0.706777 -0.707436
vn 0.577496 0.577150 -0.577405
vn 0.882886 -0.332515 -0.331580
vn 0.747919 -0.469810 -0.468930
vn 0.883184 -0.469027 0.000090
vn 0.748365 -0.663288 0.000175
vn 0.882930 -0.332524 0.331455
vn 0.747862 -0.469986 0.468845
vn 0.883788 -0.001847 0.467883
vn 0.748169 -0.001708 0.663506
vn 0.749941 0.466975 0.468533
vn 0.748787 0.662811 0.000554
vn 0.748143 -0.001651 -0.663536
vn 0.750108 0.466403 -0.468835
vn 0.883168 0.330742 0.332603
vn 0.882676 0.469981 0.000285
vn 0.883039 0.330687 -0.332999
vn 0.883808 -0.001818 -0.467845
vn 0.000000 0.706777 0.707436
vn 0.577496 0.577150 0.577405
vn 0.577087 -0.577700 0.577264
vn 0.000000 -0.707437 0.706777
vn 1.000000 -0.000578 0.000169
vn 0.999999 -0.001127 0.000173
vn 0.999999 -0.001022 -0.000173
vn 1.000000 -0.000459 -0.000013
vn 1.000000 -0.000374 -0.000658
vn 1.000000 -0.000476 0.000658
vn 0.999999 -0.000819 0.001446
vn 0.999999 -0.000644 -0.001056
vn 0.577223 -0.577517 -0.577311
vn 0.000000 -0.707217 -0.706997
vn 0.000000 0.706997 -0.707217
vn 0.577359 0.577334 -0.577358
vn 0.882793 -0.332124 -0.332221
vn 0.748530 -0.469198 -0.468568
vn 0.883184 -0.469027 0.000090
vn 0.748810 -0.662785 0.000175
vn 0.882866 -0.332052 0.332098
vn 0.748433 -0.469326 0.468596
vn 0.883665 -0.000754 0.468119
vn 0.749425 -0.000769 0.662089
vn 0.749483 0.467952 0.468291
vn 0.748438 0.663204 0.000553
vn 0.749384 -0.000444 -0.662136
vn 0.749597 0.467313 -0.468746
vn 0.883192 0.331325 0.331958
vn 0.882676 0.469981 0.000285
vn 0.883104 0.331159 -0.332356
vn 0.883696 -0.000586 -0.468060
vn 0.000000 0.706997 0.707217
vn 0.577359 0.577334 0.577358
vn 0.577223 -0.577517 0.577311
vn 0.000000 -0.707217 0.706997
vn 1.000000 -0.000193 0.000056
vn 1.000000 -0.000376 0.000058
vn 1.000000 -0.000341 -0.000058
vn 1.000000 -0.000153 -0.000004
vn 1.000000 -0.000125 -0.000219
vn 1.000000 -0.000159 0.000219
vn 1.000000 -0.000273 0.000482
vn 1.000000 -0.000215 -0.000352
vn 0.577223 -0.577517 -0.577311
vn 0.000000 -0.707217 -0.706997
vn 0.000000 0.706997 -0.707217
vn 0.577359 0.577334 -0.577358
vn 0.882793 -0.332124 -0.332221
vn 0.748530 -0.469198 -0.468568
vn 0.883184 -0.469027 0.000090
vn 0.748810 -0.662785 0.000175
vn 0.882866 -0.332052 0.332098
vn 0.748433 -0.469326 0.468596
vn 0.883665 -0.000754 0.468119
vn 0.749425 -0.000769 0.662089
vn 0.749483 0.467952 0.468291
vn 0.748438 0.663204 0.000553
vn 0.749384 -0.000444 -0.662136
vn 0.749597 0.467313 -0.468746
vn 0.883192 0.331325 0.331958
vn 0.882676 0.469981 0.000285
vn 0.883104 0.331159 -0.332356
vn 0.883696 -0.000586 -0.468060
vn 0.000000 0.706997 0.707217
vn 0.577359 0.577334 0.577358
vn 0.577223 -0.577517 0.577311
vn 0.000000 -0.707217 0.706997
vn 1.000000 -0.000193 0.000056
vn 1.000000 -0.000376 0.000058
vn 1.000000 -0.000341 -0.000058
vn 1.000000 -0.000153 -0.000004
vn 1.000000 -0.000125 -0.000219
vn 1.000000 -0.000159 0.000219
vn 1.000000 -0.000273 0.000482
vn 1.000000 -0.000215 -0.000352
vn 0.577086 -0.577701 -0.577264
vn 0.000000 -0.707437 -0.706777
vn 0.000000 0.706777 -0.707436
vn 0.577496 0.577150 -0.577405
vn 0.882886 -0.332515 -0.331580
vn 0.747919 -0.469810 -0.468930
vn 0.883184 -0.469027 0.000090
vn 0.748365 -0.663288 0.000175
vn 0.882930 -0.332524 0.331455
vn 0.747862 -0.469986 0.468845
vn 0.883788 -0.001847 0.467883
vn 0.748169 -0.001708 0.663506
vn 0.749941 0.466975 0.468533
vn 0.748787 0.662811 0.000554
vn 0.748143 -0.001651 -0.663536
vn 0.750108 0.466403 -0.468835
vn 0.883168 0.330742 0.332603
vn 0.882676 0.469981 0.000285
vn 0.883039 0.330687 -0.332999
vn 0.883808 -0.001818 -0.467845
vn 0.000000 0.706777 0.707436
vn 0.577496 0.577150 0.577405
vn 0.577087 -0.577700 0.577264
vn 0.000000 -0.707437 0.706777
vn 1.000000 -0.000578 0.000169
vn 0.999999 -0.001127 0.000173
vn 0.999999 -0.001022 -0.000173
vn 1.000000 -0.000459 -0.000013
vn 1.000000 -0.000374 -0.000658
vn 1.000000 -0.000476 0.000658
vn 0.999999 -0.000819 0.001446
vn 0.999999 -0.000644 -0.001056
vn 0.577223 -0.577517 -0.577311
vn 0.000000 -0.707217 -0.706997
vn 0.000000 0.706997 -0.707217
vn 0.577359 0.577334 -0.577358
vn 0.882793 -0.332124 -0.332221
vn 0.748530 -0.469198 -0.468568
vn 0.883184 -0.469027 0.000090
vn 0.748810 -0.662785 0.000175
vn 0.882866 -0.332052 0.332098
vn 0.748433 -0.469326 0.468596
vn 0.883665 -0.000754 0.468119
vn 0.749425 -0.000769 0.662089
vn 0.749483 0.467952 0.468291
vn 0.748438 0.663204 0.000553
vn 0.749384 -0.000444 -0.662136
vn 0.749597 0.467313 -0.468746
vn 0.883192 0.331325 0.331958
vn 0.882676 0.469981 0.000285
vn 0.883104 0.331159 -0.332356
vn 0.883696 -0.000586 -0.468060
vn 0.000000 0.706997 0.707217
vn 0.577359 0.577334 0.577358
vn 0.577223 -0.577517 0.577311
vn 0.000000 -0.707217 0.706997
vn 1.000000 -0.000193 0.000056
vn 1.000000 -0.000376 0.000058
vn 1.000000 -0.000341 -0.000058
vn 1.000000 -0.000153 -0.000004
vn 1.000000 -0.000125 -0.000219
vn 1.000000 -0.000159 0.000219
vn 1.000000 -0.000273 0.000482
vn 1.000000 -0.000215 -0.000352
vn -0.577517 -0.577223 -0.577311
vn -0.707217 0.000000 -0.706997
vn 0.706997 0.000000 -0.707217
vn 0.577334 -0.577359 -0.577358
vn -0.332124 -0.882793 -0.332221
vn -0.469198 -0.748530 -0.468568
vn -0.469027 -0.883184 0.000090
vn -0.662785 -0.748810 0.000175
vn -0.332052 -0.882866 0.332098
vn -0.469326 -0.748433 0.468596
vn -0.000754 -0.883665 0.468119
vn -0.000769 -0.749425 0.662089
vn 0.467952 -0.749483 0.468291
vn 0.663204 -0.748438 0.000553
vn -0.000444 -0.749384 -0.662136
vn 0.467313 -0.749597 -0.468746
vn 0.331325 -0.883192 0.331958
vn 0.469981 -0.882676 0.000285
vn 0.331159 -0.883104 -0.332356
vn -0.000586 -0.883696 -0.468060
vn 0.706997 0.000000 0.707217
vn 0.577334 -0.577359 0.577358
vn -0.577517 -0.577223 0.577311
vn -0.707217 0.000000 0.706997
vn -0.000193 -1.000000 0.000056
vn -0.000376 -1.000000 0.000058
vn -0.000341 -1.000000 -0.000058
vn -0.000153 -1.000000 -0.000004
vn -0.000125 -1.000000 -0.000219
vn -0.000159 -1.000000 0.000219
vn -0.000273 -1.000000 0.000482
vn -0.000215 -1.000000 -0.000352
vn -0.577701 -0.577086 -0.577264
vn -0.707437 0.000000 -0.706777
vn 0.706777 0.000000 -0.707436
vn 0.577150 -0.577496 -0.577405
vn -0.332515 -0.882886 -0.331580
vn -0.469810 -0.747919 -0.468930
vn -0.469027 -0.883184 0.000090
vn -0.663288 -0.748365 0.000175
vn -0.332524 -0.882930 0.331455
vn -0.469986 -0.747862 0.468845
vn -0.001847 -0.883788 0.467883
vn -0.001708 -0.748169 0.663506
vn 0.466975 -0.749941 0.468533
vn 0.662811 -0.748787 0.000554
vn -0.001651 -0.748143 -0.663536
vn 0.466403 -0.750108 -0.468835
vn 0.330742 -0.883168 0.332603
vn 0.469981 -0.882676 0.000285
vn 0.330687 -0.883039 -0.332999
vn -0.001818 -0.883808 -0.467845
vn 0.706777 0.000000 0.707436
vn 0.577150 -0.577496 0.577405
vn -0.577700 -0.577087 0.577264
vn -0.707437 0.000000 0.706777
vn -0.000578 -1.000000 0.000169
vn -0.001127 -0.999999 0.000173
vn -0.001022 -0.999999 -0.000173
vn -0.000459 -1.000000 -0.000013
vn -0.000374 -1.000000 -0.000658
vn -0.000476 -1.000000 0.000658
vn -0.000819 -0.999999 0.001446
vn -0.000644 -0.999999 -0.001056
vn -0.577517 -0.577223 -0.577311
vn -0.707217 0.000000 -0.706997
vn 0.706997 0.000000 -0.707217
vn 0.577334 -0.577359 -0.577358
vn -0.332124 -0.882793 -0.332221
vn -0.469198 -0.748530 -0.468568
vn -0.469027 -0.883184 0.000090
vn -0.662785 -0.748810 0.000175
vn -0.332052 -0.882866 0.332098
vn -0.469326 -0.748433 0.468596
vn -0.000754 -0.883665 0.468119
vn -0.000769 -0.749425 0.662089
vn 0.467952 -0.749483 0.468291
vn 0.663204 -0.748438 0.000553
vn -0.000444 -0.749384 -0.662136
vn 0.467313 -0.749597 -0.468746
vn 0.331325 -0.883192 0.331958
vn 0.469981 -0.882676 0.000285
vn 0.331159 -0.883104 -0.332356
vn -0.000586 -0.883696 -0.468060
vn 0.706997 0.000000 0.707217
vn 0.577334 -0.577359 0.577358
vn -0.577517 -0.577223 0.577311
vn -0.707217 0.000000 0.706997
vn -0.000193 -1.000000 0.000056
vn -0.000376 -1.000000 0.000058
vn -0.000341 -1.000000 -0.000058
vn -0.000153 -1.000000 -0.000004
vn -0.000125 -1.000000 -0.000219
vn -0.000159 -1.000000 0.000219
vn -0.000273 -1.000000 0.000482
vn -0.000215 -1.000000 -0.000352
vn -0.577517 -0.577223 -0.577311
vn -0.707217 0.000000 -0.706997
vn 0.706997 0.000000 -0.707217
vn 0.577334 -0.577359 -0.577358
vn -0.332124 -0.882793 -0.332221
vn -0.469198 -0.748530 -0.468568
vn -0.469027 -0.883184 0.000090
vn -0.662785 -0.748810 0.000175
vn -0.332052 -0.882866 0.332098
vn -0.469326 -0.748433 0.468596
vn -0.000754 -0.883665 0.468119
vn -0.000769 -0.749425 0.662089
vn 0.467952 -0.749483 0.468291
vn 0.663204 -0.748438 0.000553
vn -0.000444 -0.749384 -0.662136
vn 0.467313 -0.749597 -0.468746
vn 0.331325 -0.883192 0.331958
vn 0.469981 -0.882676 0.000285
vn 0.331159 -0.883104 -0.332356
vn -0.000586 -0.883696 -0.468060
vn 0.706997 0.000000 0.707217
vn 0.577334 -0.577359 0.577358
vn -0.577517 -0.577223 0.577311
vn -0.707217 0.000000 0.706997
vn -0.000193 -1.000000 0.000056
vn -0.000376 -1.000000 0.000058
vn -0.000341 -1.000000 -0.000058
vn -0.000153 -1.000000 -0.000004
vn -0.000125 -1.000000 -0.000219
vn -0.000159 -1.000000 0.000219
vn -0.000273 -1.000000 0.000482
vn -0.000215 -1.000000 -0.000352
vn -0.577701 -0.577086 -0.577264
vn -0.707437 0.000000 -0.706777
vn 0.706777 0.000000 -0.707436
vn 0.577150 -0.577496 -0.577405
vn -0.332515 -0.882886 -0.331580
vn -0.469810 -0.747919 -0.468930
vn -0.469027 -0.883184 0.000090
vn -0.663288 -0.748365 0.000175
vn -0.332524 -0.882930 0.331455
vn -0.469986 -0.747862 0.468845
vn -0.001847 -0.883788 0.467883
vn -0.001708 -0.748169 0.663506
vn 0.466975 -0.749941 0.468533
vn 0.662811 -0.748787 0.000554
vn -0.001651 -0.748143 -0.663536
vn 0.466403 -0.750108 -0.468835
vn 0.330742 -0.883168 0.332603
vn 0.469981 -0.882676 0.000285
vn 0.330687 -0.883039 -0.332999
vn -0.001818 -0.883808 -0.467845
vn 0.706777 0.000000 0.707436
vn 0.577150 -0.577496 0.577405
vn -0.577700 -0.577087 0.577264
vn -0.707437 0.000000 0.706777
vn -0.000578 -1.000000 0.000169
vn -0.001127 -0.999999 0.000173
vn -0.001022 -0.999999 -0.000173
vn -0.000459 -1.000000 -0.000013
vn -0.000374 -1.000000 -0.000658
vn -0.000476 -1.000000 0.000658
vn -0.000819 -0.999999 0.001446
vn -0.000644 -0.999999 -0.001056
vn -0.577517 -0.577223 -0.577311
vn -0.707217 0.000000 -0.706997
vn 0.706997 0.000000 -0.707217
vn 0.577334 -0.577359 -0.577358
vn -0.332124 -0.882793 -0.332221
vn -0.469198 -0.748530 -0.468568
vn -0.469027 -0.883184 0.000090
vn -0.662785 -0.748810 0.000175
vn -0.332052 -0.882866 0.332098
vn -0.469326 -0.748433 0.468596
vn -0.000754 -0.883665 0.468119
vn -0.000769 -0.749425 0.662089
vn 0.467952 -0.749483 0.468291
vn 0.663204 -0.748438 0.000553
vn -0.000444 -0.749384 -0.662136
vn 0.467313 -0.749597 -0.468746
vn 0.331325 -0.883192 0.331958
vn 0.469981 -0.882676 0.000285
vn 0.331159 -0.883104 -0.332356
vn -0.000586 -0.883696 -0.468060
vn 0.706997 0.000000 0.707217
vn 0.577334 -0.577359 0.577358
vn -0.577517 -0.577223 0.577311
vn -0.707217 0.000000 0.706997
vn -0.000193 -1.000000 0.000056
vn -0.000376 -1.000000 0.000058
vn -0.000341 -1.000000 -0.000058
vn -0.000153 -1.000000 -0.000004
vn -0.000125 -1.000000 -0.000219
vn -0.000159 -1.000000 0.000219
vn -0.000273 -1.000000 0.000482
vn -0.000215 -1.000000 -0.000352
vn -0.577517 -0.577223 -0.577311
vn -0.707217 0.000000 -0.706997
vn 0.706997 0.000000 -0.707217
vn 0.577334 -0.577359 -0.577358
vn -0.332124 -0.882793 -0.332221
vn -0.469198 -0.748530 -0.468568
vn -0.469027 -0.883184 0.000090
vn -0.662785 -0.748810 0.000175
vn -0.332052 -0.882866 0.332098
vn -0.469326 -0.748433 0.468596
vn -0.000754 -0.883665 0.468119
vn -0.000769 -0.749425 0.662089
vn 0.467952 -0.749483 0.468291
vn 0.663204 -0.748438 0.000553
vn -0.000444 -0.749384 -0.662136
vn 0.467313 -0.749597 -0.468746
vn 0.331325 -0.883192 0.331958
vn 0.469981 -0.882676 0.000285
vn 0.331159 -0.883104 -0.332356
vn -0.000586 -0.883696 -0.468060
vn 0.706997 0.000000 0.707217
vn 0.577334 -0.577359 0.577358
vn -0.577517 -0.577223 0.577311
vn -0.707217 0.000000 0.706997
vn -0.000193 -1.000000 0.000056
vn -0.000376 -1.000000 0.000058
vn -0.000341 -1.000000 -0.000058
vn -0.000153 -1.000000 -0.000004
vn -0.000125 -1.000000 -0.000219
vn -0.000159 -1.000000 0.000219
vn -0.000273 -1.000000 0.000482
vn -0.000215 -1.000000 -0.000352
vn -0.577701 -0.577086 -0.577264
vn -0.707437 0.000000 -0.706777
vn 0.706777 0.000000 -0.707436
vn 0.577150 -0.577496 -0.577405
vn -0.332515 -0.882886 -0.331580
vn -0.469810 -0.747919 -0.468930
vn -0.469027 -0.883184 0.000090
vn -0.663288 -0.748365 0.000175
vn -0.332524 -0.882930 0.331455
vn -0.469986 -0.747862 0.468845
vn -0.001847 -0.883788 0.467883
vn -0.001708 -0.748169 0.663506
vn 0.466975 -0.749941 0.468533
vn 0.662811 -0.748787 0.000554
vn -0.001651 -0.748143 -0.663536
vn 0.466403 -0.750108 -0.468835
vn 0.330742 -0.883168 0.332603
vn 0.469981 -0.882676 0.000285
vn 0.330687 -0.883039 -0.332999
vn -0.001818 -0.883808 -0.467845
vn 0.706777 0.000000 0.707436
vn 0.577150 -0.577496 0.577405
vn -0.577700 -0.577087 0.577264
vn -0.707437 0.000000 0.706777
vn -0.000578 -1.000000 0.000169
vn -0.001127 -0.999999 0.000173
vn -0.001022 -0.999999 -0.000173
vn -0.000459 -1.000000 -0.000013
vn -0.000374 -1.000000 -0.000658
vn -0.000476 -1.000000 0.000658
vn -0.000819 -0.999999 0.001446
vn -0.000644 -0.999999 -0.001056
vn -0.577517 -0.577223 -0.577311
vn -0.707217 0.000000 -0.706997
vn 0.706997 0.000000 -0.707217
vn 0.577334 -0.577359 -0.577358
vn -0.332124 -0.882793 -0.332221
vn -0.469198 -0.748530 -0.468568
vn -0.469027 -0.883184 0.000090
vn -0.662785 -0.748810 0.000175
vn -0.332052 -0.882866 0.332098
vn -0.469326 -0.748433 0.468596
vn -0.000754 -0.883665 0.468119
vn -0.000769 -0.749425 0.662089
vn 0.467952 -0.749483 0.468291
vn 0.663204 -0.748438 0.000553
vn -0.000444 -0.749384 -0.662136
vn 0.467313 -0.749597 -0.468746
vn 0.331325 -0.883192 0.331958
vn 0.469981 -0.882676 0.000285
vn 0.331159 -0.883104 -0.332356
vn -0.000586 -0.883696 -0.468060
vn 0.706997 0.000000 0.707217
vn 0.577334 -0.577359 0.577358
vn -0.577517 -0.577223 0.577311
vn -0.707217 0.000000 0.706997
vn -0.000193 -1.000000 0.000056
vn -0.000376 -1.000000 0.000058
vn -0.000341 -1.000000 -0.000058
vn -0.000153 -1.000000 -0.000004
vn -0.000125 -1.000000 -0.000219
vn -0.000159 -1.000000 0.000219
vn -0.000273 -1.000000 0.000482
vn -0.000215 -1.000000 -0.000352
vn -0.577517 -0.577223 -0.577311
vn -0.707217 0.000000 -0.706997
vn 0.706997 0.000000 -0.707217
vn 0.577334 -0.577359 -0.577358
vn -0.332124 -0.882793 -0.332221
vn -0.469198 -0.748530 -0.468568
vn -0.469027 -0.883184 0.000090
vn -0.662785 -0.748810 0.000175
vn -0.332052 -0.882866 0.332098
vn -0.469326 -0.748433 0.468596
vn -0.000754 -0.883665 0.468119
vn -0.000769 -0.749425 0.662089
vn 0.467952 -0.749483 0.468291
vn 0.663204 -0.748438 0.000553
vn -0.000444 -0.749384 -0.662136
vn 0.467313 -0.749597 -0.468746
vn 0.331325 -0.883192 0.331958
vn 0.469981 -0.882676 0.000285
vn 0.331159 -0.883104 -0.332356
vn -0.000586 -0.883696 -0.468060
vn 0.706997 0.000000 0.707217
vn 0.577334 -0.577359 0.577358
vn -0.577517 -0.577223 0.577311
vn -0.707217 0.000000 0.706997
vn -0.000193 -1.000000 0.000056
vn -0.000376 -1.000000 0.000058
vn -0.000341 -1.000000 -0.000058
vn -0.000153 -1.000000 -0.000004
vn -0.000125 -1.000000 -0.000219
vn -0.000159 -1.000000 0.000219
vn -0.000273 -1.000000 0.000482
vn -0.000215 -1.000000 -0.000352
vn -0.577701 -0.577086 -0.577264
vn -0.707437 0.000000 -0.706777
vn 0.706777 0.000000 -0.707436
vn 0.577150 -0.577496 -0.577405
vn -0.332515 -0.882886 -0.331580
vn -0.469810 -0.747919 -0.468930
vn -0.469027 -0.883184 0.000090
vn -0.663288 -0.748365 0.000175
vn -0.332524 -0.882930 0.331455
vn -0.469986 -0.747862 0.468845
vn -0.001847 -0.883788 0.467883
vn -0.001708 -0.748169 0.663506
vn 0.466975 -0.749941 0.468533
vn 0.662811 -0.748787 0.000554
vn -0.001651 -0.748143 -0.663536
vn 0.466403 -0.750108 -0.468835
vn 0.330742 -0.883168 0.332603
vn 0.469981 -0.882676 0.000285
vn 0.330687 -0.883039 -0.332999
vn -0.001818 -0.883808 -0.467845
vn 0.706777 0.000000 0.707436
vn 0.577150 -0.577496 0.577405
vn -0.577700 -0.577087 0.577264
vn -0.707437 0.000000 0.706777
vn -0.000578 -1.000000 0.000169
vn -0.001127 -0.999999 0.000173
vn -0.001022 -0.999999 -0.000173
vn -0.000459 -1.000000 -0.000013
vn -0.000374 -1.000000 -0.000658
vn -0.000476 -1.000000 0.000658
vn -0.000819 -0.999999 0.001446
vn -0.000644 -0.999999 -0.001056
vn -0.577517 -0.577223 -0.577311
vn -0.707217 0.000000 -0.706997
vn 0.706997 0.000000 -0.707217
vn 0.577334 -0.577359 -0.577358
vn -0.332124 -0.882793 -0.332221
vn -0.469198 -0.748530 -0.468568
vn -0.469027 -0.883184 0.000090
vn -0.662785 -0.748810 0.000175
vn -0.332052 -0.882866 0.332098
vn -0.469326 -0.748433 0.468596
vn -0.000754 -0.883665 0.468119
vn -0.000769 -0.749425 0.662089
vn 0.467952 -0.749483 0.468291
vn 0.663204 -0.748438 0.000553
vn -0.000444 -0.749384 -0.662136
vn 0.467313 -0.749597 -0.468746
vn 0.331325 -0.883192 0.331958
vn 0.469981 -0.882676 0.000285
vn 0.331159 -0.883104 -0.332356
vn -0.000586 -0.883696 -0.468060
vn 0.706997 0.000000 0.707217
vn 0.577334 -0.577359 0.577358
vn -0.577517 -0.577223 0.577311
vn -0.707217 0.000000 0.706997
vn -0.000193 -1.000000 0.000056
vn -0.000376 -1.000000 0.000058
vn -0.000341 -1.000000 -0.000058
vn -0.000153 -1.000000 -0.000004
vn -0.000125 -1.000000 -0.000219
vn -0.000159 -1.000000 0.000219
vn -0.000273 -1.000000 0.000482
vn -0.000215 -1.000000 -0.000352
vn -0.577517 -0.577223 -0.577311
vn -0.707217 0.000000 -0.706997
vn 0.706997 0.000000 -0.707217
vn 0.577334 -0.577359 -0.577358
vn -0.332124 -0.882793 -0.332221
vn -0.469198 -0.748530 -0.468568
vn -0.469027 -0.883184 0.000090
vn -0.662785 -0.748810 0.000175
vn -0.332052 -0.882866 0.332098
vn -0.469326 -0.748433 0.468596
vn -0.000754 -0.883665 0.468119
vn -0.000769 -0.749425 0.662089
vn 0.467952 -0.749483 0.468291
vn 0.663204 -0.748438 0.000553
vn -0.000444 -0.749384 -0.662136
vn 0.467313 -0.749597 -0.468746
vn 0.331325 -0.883192 0.331958
vn 0.469981 -0.882676 0.000285
vn 0.331159 -0.883104 -0.332356
vn -0.000586 -0.883696 -0.468060
vn 0.706997 0.000000 0.707217
vn 0.577334 -0.577359 0.577358
vn -0.577517 -0.577223 0.577311
vn -0.707217 0.000000 0.706997
vn -0.000193 -1.000000 0.000056
vn -0.000376 -1.000000 0.000058
vn -0.000341 -1.000000 -0.000058
vn -0.000153 -1.000000 -0.000004
vn -0.000125 -1.000000 -0.000219
vn -0.000159 -1.000000 0.000219
vn -0.000273 -1.000000 0.000482
vn -0.000215 -1.000000 -0.000352
vn -0.577701 -0.577086 -0.577264
vn -0.707437 0.000000 -0.706777
vn 0.706777 0.000000 -0.707436
vn 0.577150 -0.577496 -0.577405
vn -0.332515 -0.882886 -0.331580
vn -0.469810 -0.747919 -0.468930
vn -0.469027 -0.883184 0.000090
vn -0.663288 -0.748365 0.000175
vn -0.332524 -0.882930 0.331455
vn -0.469986 -0.747862 0.468845
vn -0.001847 -0.883788 0.467883
vn -0.001708 -0.748169 0.663506
vn 0.466975 -0.749941 0.468533
vn 0.662811 -0.748787 0.000554
vn -0.001651 -0.748143 -0.663536
vn 0.466403 -0.750108 -0.468835
vn 0.330742 -0.883168 0.332603
vn 0.469981 -0.882676 0.000285
vn 0.330687 -0.883039 -0.332999
vn -0.001818 -0.883808 -0.467845
vn 0.706777 0.000000 0.707436
vn 0.577150 -0.577496 0.577405
vn -0.577700 -0.577087 0.577264
vn -0.707437 0.000000 0.706777
vn -0.000578 -1.000000 0.000169
vn -0.001127 -0.999999 0.000173
vn -0.001022 -0.999999 -0.000173
vn -0.000459 -1.000000 -0.000013
vn -0.000374 -1.000000 -0.000658
vn -0.000476 -1.000000 0.000658
vn -0.000819 -0.999999 0.001446
vn -0.000644 -0.999999 -0.001056
vn -0.577517 -0.577223 -0.577311
vn -0.707217 0.000000 -0.706997
vn 0.706997 0.000000 -0.707217
vn 0.577334 -0.577359 -0.577358
vn -0.332124 -0.882793 -0.332221
vn -0.469198 -0.748530 -0.468568
vn -0.469027 -0.883184 0.000090
vn -0.662785 -0.748810 0.000175
vn -0.332052 -0.882866 0.332098
vn -0.469326 -0.748433 0.468596
vn -0.000754 -0.883665 0.468119
vn -0.000769 -0.749425 0.662089
vn 0.467952 -0.749483 0.468291
vn 0.663204 -0.748438 0.000553
vn -0.000444 -0.749384 -0.662136
vn 0.467313 -0.749597 -0.468746
vn 0.331325 -0.883192 0.331958
vn 0.469981 -0.882676 0.000285
vn 0.331159 -0.883104 -0.332356
vn -0.000586 -0.883696 -0.468060
vn 0.706997 0.000000 0.707217
vn 0.577334 -0.577359 0.577358
vn -0.577517 -0.577223 0.577311
vn -0.707217 0.000000 0.706997
vn -0.000193 -1.000000 0.000056
vn -0.000376 -1.000000 0.000058
vn -0.000341 -1.000000 -0.000058
vn -0.000153 -1.000000 -0.000004
vn -0.000125 -1.000000 -0.000219
vn -0.000159 -1.000000 0.000219
vn -0.000273 -1.000000 0.000482
vn -0.000215 -1.000000 -0.000352
g fff0a81b_00576_00c7ff3c_e4
f 577/10/577 593/10/593 594/10/594
f 599/10/599 577/10/577 594/10/594
f 599/10/599 594/10/594 595/10/595
f 583/10/583 580/10/580 598/10/598
f 581/10/581 583/10/583 598/10/598
f 585/10/585 580/10/580 583/10/583
f 587/10/587 580/10/580 585/10/585
f 596/10/596 581/10/581 598/10/598
f 599/10/599 596/10/596 598/10/598
f 599/10/599 595/10/595 596/10/596
f 592/22/592 584/23/584 582/17/582
f 591/18/591 592/22/592 582/17/582
f 590/24/590 589/20/589 584/23/584
f 584/23/584 589/20/589 586/21/586
f 586/21/586 589/20/589 588/19/588
f 577/10/577 587/10/587 593/10/593
f 577/10/577 580/10/580 587/10/587
f 590/24/590 584/23/584 592/22/592
f 609/10/609 625/10/625 626/10/626
f 631/10/631 609/10/609 626/10/626
f 631/10/631 626/10/626 627/10/627
f 615/10/615 612/10/612 630/10/630
f 613/10/613 615/10/615 630/10/630
f 617/10/617 612/10/612 615/10/615
f 619/10/619 612/10/612 617/10/617
f 628/10/628 613/10/613 630/10/630
f 631/10/631 628/10/628 630/10/630
f 631/10/631 627/10/627 628/10/628
f 624/22/624 616/23/616 614/17/614
f 623/18/623 624/22/624 614/17/614
f 622/24/622 621/20/621 616/23/616
f 616/23/616 621/20/621 618/21/618
f 618/21/618 621/20/621 620/19/620
f 609/10/609 619/10/619 625/10/625
f 609/10/609 612/10/612 619/10/619
f 622/24/622 616/23/616 624/22/624
f 641/10/641 657/10/657 658/10/658
f 663/10/663 641/10/641 658/10/658
f 663/10/663 658/10/658 659/10/659
f 647/10/647 644/10/644 662/10/662
f 645/10/645 647/10/647 662/10/662
f 649/10/649 644/10/644 647/10/647
f 651/10/651 644/10/644 649/10/649
f 660/10/660 645/10/645 662/10/662
f 663/10/663 660/10/660 662/10/662
f 663/10/663 659/10/659 660/10/660
f 656/22/656 648/23/648 646/17/646
f 655/18/655 656/22/656 646/17/646
f 654/24/654 653/20/653 648/23/648
f 648/23/648 653/20/653 650/21/650
f 650/21/650 653/20/653 652/19/652
f 641/10/641 651/10/651 657/10/657
f 641/10/641 644/10/644 651/10/651
f 654/24/654 648/23/648 656/22/656
f 78/24/78 72/23/72 80/22/80
f 65/10/65 68/10/68 75/10/75
f 65/10/65 75/10/75 81/10/81
f 74/21/74 77/20/77 76/19/76
f 72/23/72 77/20/77 74/21/74
f 78/24/78 77/20/77 72/23/72
f 79/18/79 80/22/80 70/17/70
f 80/22/80 72/23/72 70/17/70
f 87/10/87 83/10/83 84/10/84
f 87/10/87 84/10/84 86/10/86
f 84/10/84 69/10/69 86/10/86
f 75/10/75 68/10/68 73/10/73
f 73/10/73 68/10/68 71/10/71
f 69/10/69 71/10/71 86/10/86
f 71/10/71 68/10/68 86/10/86
f 87/10/87 82/10/82 83/10/83
f 87/10/87 65/10/65 82/10/82
f 65/10/65 81/10/81 82/10/82
f 46/24/46 40/23/40 48/22/48
f 33/10/33 36/10/36 43/10/43
f 33/10/33 43/10/43 49/10/49
f 42/21/42 45/20/45 44/19/44
f 40/23/40 45/20/45 42/21/42
f 46/24/46 45/20/45 40/23/40
f 47/18/47 48/22/48 38/17/38
f 48/22/48 40/23/40 38/17/38
f 55/10/55 51/10/51 52/10/52
f 55/10/55 52/10/52 54/10/54
f 52/10/52 37/10/37 54/10/54
f 43/10/43 36/10/36 41/10/41
f 41/10/41 36/10/36 39/10/39
f 37/10/37 39/10/39 54/10/54
f 39/10/39 36/10/36 54/10/54
f 55/10/55 50/10/50 51/10/51
f 55/10/55 33/10/33 50/10/50
f 33/10/33 49/10/49 50/10/50
f 14/24/14 8/23/8 16/22/16
f 1/10/1 4/10/4 11/10/11
f 1/10/1 11/10/11 17/10/17
f 10/21/10 13/20/13 12/19/12
f 8/23/8 13/20/13 10/21/10
f 14/24/14 13/20/13 8/23/8
f 15/18/15 16/22/16 6/17/6
f 16/22/16 8/23/8 6/17/6
f 23/10/23 19/10/19 20/10/20
f 23/10/23 20/10/20 22/10/22
f 20/10/20 5/10/5 22/10/22
f 11/10/11 4/10/4 9/10/9
f 9/10/9 4/10/4 7/10/7
f 5/10/5 7/10/7 22/10/22
f 7/10/7 4/10/4 22/10/22
f 23/10/23 18/10/18 19/10/19
f 23/10/23 1/10/1 18/10/18
f 1/10/1 17/10/17 18/10/18
f 174/24/174 168/23/168 176/22/176
f 161/10/161 164/10/164 171/10/171
f 161/10/161 171/10/171 177/10/177
f 170/21/170 173/20/173 172/19/172
f 168/23/168 173/20/173 170/21/170
f 174/24/174 173/20/173 168/23/168
f 175/18/175 176/22/176 166/17/166
f 176/22/176 168/23/168 166/17/166
f 183/10/183 179/10/179 180/10/180
f 183/10/183 180/10/180 182/10/182
f 180/10/180 165/10/165 182/10/182
f 171/10/171 164/10/164 169/10/169
f 169/10/169 164/10/164 167/10/167
f 165/10/165 167/10/167 182/10/182
f 167/10/167 164/10/164 182/10/182
f 183/10/183 178/10/178 179/10/179
f 183/10/183 161/10/161 178/10/178
f 161/10/161 177/10/177 178/10/178
f 142/24/142 136/23/136 144/22/144
f 129/10/129 132/10/132 139/10/139
f 129/10/129 139/10/139 145/10/145
f 138/21/138 141/20/141 140/19/140
f 136/23/136 141/20/141 138/21/138
f 142/24/142 141/20/141 136/23/136
f 143/18/143 144/22/144 134/17/134
f 144/22/144 136/23/136 134/17/134
f 151/10/151 147/10/147 148/10/148
f 151/10/151 148/10/148 150/10/150
f 148/10/148 133/10/133 150/10/150
f 139/10/139 132/10/132 137/10/137
f 137/10/137 132/10/132 135/10/135
f 133/10/133 135/10/135 150/10/150
f 135/10/135 132/10/132 150/10/150
f 151/10/151 146/10/146 147/10/147
f 151/10/151 129/10/129 146/10/146
f 129/10/129 145/10/145 146/10/146
f 110/24/110 104/23/104 112/22/112
f 97/10/97 100/10/100 107/10/107
f 97/10/97 107/10/107 113/10/113
f 106/21/106 109/20/109 108/19/108
f 104/23/104 109/20/109 106/21/106
f 110/24/110 109/20/109 104/23/104
f 111/18/111 112/22/112 102/17/102
f 112/22/112 104/23/104 102/17/102
f 119/10/119 115/10/115 116/10/116
f 119/10/119 116/10/116 118/10/118
f 116/10/116 101/10/101 118/10/118
f 107/10/107 100/10/100 105/10/105
f 105/10/105 100/10/100 103/10/103
f 101/10/101 103/10/103 118/10/118
f 103/10/103 100/10/100 118/10/118
f 119/10/119 114/10/114 115/10/115
f 119/10/119 97/10/97 114/10/114
f 97/10/97 113/10/113 114/10/114
f 270/24/270 264/23/264 272/22/272
f 257/10/257 260/10/260 267/10/267
f 257/10/257 267/10/267 273/10/273
f 266/21/266 269/20/269 268/19/268
f 264/23/264 269/20/269 266/21/266
f 270/24/270 269/20/269 264/23/264
f 271/18/271 272/22/272 262/17/262
f 272/22/272 264/23/264 262/17/262
f 279/10/279 275/10/275 276/10/276
f 279/10/279 276/10/276 278/10/278
f 276/10/276 261/10/261 278/10/278
f 267/10/267 260/10/260 265/10/265
f 265/10/265 260/10/260 263/10/263
f 261/10/261 263/10/263 278/10/278
f 263/10/263 260/10/260 278/10/278
f 279/10/279 274/10/274 275/10/275
f 279/10/279 257/10/257 274/10/274
f 257/10/257 273/10/273 274/10/274
f 238/24/238 232/23/232 240/22/240
f 225/10/225 228/10/228 235/10/235
f 225/10/225 235/10/235 241/10/241
f 234/21/234 237/20/237 236/19/236
f 232/23/232 237/20/237 234/21/234
f 238/24/238 237/20/237 232/23/232
f 239/18/239 240/22/240 230/17/230
f 240/22/240 232/23/232 230/17/230
f 247/10/247 243/10/243 244/10/244
f 247/10/247 244/10/244 246/10/246
f 244/10/244 229/10/229 246/10/246
f 235/10/235 228/10/228 233/10/233
f 233/10/233 228/10/228 231/10/231
f 229/10/229 231/10/231 246/10/246
f 231/10/231 228/10/228 246/10/246
f 247/10/247 242/10/242 243/10/243
f 247/10/247 225/10/225 242/10/242
f 225/10/225 241/10/241 242/10/242
f 206/24/206 200/23/200 208/22/208
f 193/10/193 196/10/196 203/10/203
f 193/10/193 203/10/203 209/10/209
f 202/21/202 205/20/205 204/19/204
f 200/23/200 205/20/205 202/21/202
f 206/24/206 205/20/205 200/23/200
f 207/18/207 208/22/208 198/17/198
f 208/22/208 200/23/200 198/17/198
f 215/10/215 211/10/211 212/10/212
f 215/10/215 212/10/212 214/10/214
f 212/10/212 197/10/197 214/10/214
f 203/10/203 196/10/196 201/10/201
f 201/10/201 196/10/196 199/10/199
f 197/10/197 199/10/199 214/10/214
f 199/10/199 196/10/196 214/10/214
f 215/10/215 210/10/210 211/10/211
f 215/10/215 193/10/193 210/10/210
f 193/10/193 209/10/209 210/10/210
f 366/24/366 360/23/360 368/22/368
f 353/10/353 356/10/356 363/10/363
f 353/10/353 363/10/363 369/10/369
f 362/21/362 365/20/365 364/19/364
f 360/23/360 365/20/365 362/21/362
f 366/24/366 365/20/365 360/23/360
f 367/18/367 368/22/368 358/17/358
f 368/22/368 360/23/360 358/17/358
f 375/10/375 371/10/371 372/10/372
f 375/10/375 372/10/372 374/10/374
f 372/10/372 357/10/357 374/10/374
f 363/10/363 356/10/356 361/10/361
f 361/10/361 356/10/356 359/10/359
f 357/10/357 359/10/359 374/10/374
f 359/10/359 356/10/356 374/10/374
f 375/10/375 370/10/370 371/10/371
f 375/10/375 353/10/353 370/10/370
f 353/10/353 369/10/369 370/10/370
f 334/24/334 328/23/328 336/22/336
f 321/10/321 324/10/324 331/10/331
f 321/10/321 331/10/331 337/10/337
f 330/21/330 333/20/333 332/19/332
f 328/23/328 333/20/333 330/21/330
f 334/24/334 333/20/333 328/23/328
f 335/18/335 336/22/336 326/17/326
f 336/22/336 328/23/328 326/17/326
f 343/10/343 339/10/339 340/10/340
f 343/10/343 340/10/340 342/10/342
f 340/10/340 325/10/325 342/10/342
f 331/10/331 324/10/324 329/10/329
f 329/10/329 324/10/324 327/10/327
f 325/10/325 327/10/327 342/10/342
f 327/10/327 324/10/324 342/10/342
f 343/10/343 338/10/338 339/10/339
f 343/10/343 321/10/321 338/10/338
f 321/10/321 337/10/337 338/10/338
f 302/24/302 296/23/296 304/22/304
f 289/10/289 292/10/292 299/10/299
f 289/10/289 299/10/299 305/10/305
f 298/21/298 301/20/301 300/19/300
f 296/23/296 301/20/301 298/21/298
f 302/24/302 301/20/301 296/23/296
f 303/18/303 304/22/304 294/17/294
f 304/22/304 296/23/296 294/17/294
f 311/10/311 307/10/307 308/10/308
f 311/10/311 308/10/308 310/10/310
f 308/10/308 293/10/293 310/10/310
f 299/10/299 292/10/292 297/10/297
f 297/10/297 292/10/292 295/10/295
f 293/10/293 295/10/295 310/10/310
f 295/10/295 292/10/292 310/10/310
f 311/10/311 306/10/306 307/10/307
f 311/10/311 289/10/289 306/10/306
f 289/10/289 305/10/305 306/10/306
f 462/24/462 456/23/456 464/22/464
f 449/10/449 452/10/452 459/10/459
f 449/10/449 459/10/459 465/10/465
f 458/21/458 461/20/461 460/19/460
f 456/23/456 461/20/461 458/21/458
f 462/24/462 461/20/461 456/23/456
f 463/18/463 464/22/464 454/17/454
f 464/22/464 456/23/456 454/17/454
f 471/10/471 467/10/467 468/10/468
f 471/10/471 468/10/468 470/10/470
f 468/10/468 453/10/453 470/10/470
f 459/10/459 452/10/452 457/10/457
f 457/10/457 452/10/452 455/10/455
f 453/10/453 455/10/455 470/10/470
f 455/10/455 452/10/452 470/10/470
f 471/10/471 466/10/466 467/10/467
f 471/10/471 449/10/449 466/10/466
f 449/10/449 465/10/465 466/10/466
f 430/24/430 424/23/424 432/22/432
f 417/10/417 420/10/420 427/10/427
f 417/10/417 427/10/427 433/10/433
f 426/21/426 429/20/429 428/19/428
f 424/23/424 429/20/429 426/21/426
f 430/24/430 429/20/429 424/23/424
f 431/18/431 432/22/432 422/17/422
f 432/22/432 424/23/424 422/17/422
f 439/10/439 435/10/435 436/10/436
f 439/10/439 436/10/436 438/10/438
f 436/10/436 421/10/421 438/10/438
f 427/10/427 420/10/420 425/10/425
f 425/10/425 420/10/420 423/10/423
f 421/10/421 423/10/423 438/10/438
f 423/10/423 420/10/420 438/10/438
f 439/10/439 434/10/434 435/10/435
f 439/10/439 417/10/417 434/10/434
f 417/10/417 433/10/433 434/10/434
f 398/24/398 392/23/392 400/22/400
f 385/10/385 388/10/388 395/10/395
f 385/10/385 395/10/395 401/10/401
f 394/21/394 397/20/397 396/19/396
f 392/23/392 397/20/397 394/21/394
f 398/24/398 397/20/397 392/23/392
f 399/18/399 400/22/400 390/17/390
f 400/22/400 392/23/392 390/17/390
f 407/10/407 403/10/403 404/10/404
f 407/10/407 404/10/404 406/10/406
f 404/10/404 389/10/389 406/10/406
f 395/10/395 388/10/388 393/10/393
f 393/10/393 388/10/388 391/10/391
f 389/10/389 391/10/391 406/10/406
f 391/10/391 388/10/388 406/10/406
f 407/10/407 402/10/402 403/10/403
f 407/10/407 385/10/385 402/10/402
f 385/10/385 401/10/401 402/10/402
f 558/24/558 552/23/552 560/22/560
f 545/10/545 548/10/548 555/10/555
f 545/10/545 555/10/555 561/10/561
f 554/21/554 557/20/557 556/19/556
f 552/23/552 557/20/557 554/21/554
f 558/24/558 557/20/557 552/23/552
f 559/18/559 560/22/560 550/17/550
f 560/22/560 552/23/552 550/17/550
f 567/10/567 563/10/563 564/10/564
f 567/10/567 564/10/564 566/10/566
f 564/10/564 549/10/549 566/10/566
f 555/10/555 548/10/548 553/10/553
f 553/10/553 548/10/548 551/10/551
f 549/10/549 551/10/551 566/10/566
f 551/10/551 548/10/548 566/10/566
f 567/10/567 562/10/562 563/10/563
f 567/10/567 545/10/545 562/10/562
f 545/10/545 561/10/561 562/10/562
f 526/24/526 520/23/520 528/22/528
f 513/10/513 516/10/516 523/10/523
f 513/10/513 523/10/523 529/10/529
f 522/21/522 525/20/525 524/19/524
f 520/23/520 525/20/525 522/21/522
f 526/24/526 525/20/525 520/23/520
f 527/18/527 528/22/528 518/17/518
f 528/22/528 520/23/520 518/17/518
f 535/10/535 531/10/531 532/10/532
f 535/10/535 532/10/532 534/10/534
f 532/10/532 517/10/517 534/10/534
f 523/10/523 516/10/516 521/10/521
f 521/10/521 516/10/516 519/10/519
f 517/10/517 519/10/519 534/10/534
f 519/10/519 516/10/516 534/10/534
f 535/10/535 530/10/530 531/10/531
f 535/10/535 513/10/513 530/10/530
f 513/10/513 529/10/529 530/10/530
f 494/24/494 488/23/488 496/22/496
f 481/10/481 484/10/484 491/10/491
f 481/10/481 491/10/491 497/10/497
f 490/21/490 493/20/493 492/19/492
f 488/23/488 493/20/493 490/21/490
f 494/24/494 493/20/493 488/23/488
f 495/18/495 496/22/496 486/17/486
f 496/22/496 488/23/488 486/17/486
f 503/10/503 499/10/499 500/10/500
f 503/10/503 500/10/500 502/10/502
f 500/10/500 485/10/485 502/10/502
f 491/10/491 484/10/484 489/10/489
f 489/10/489 484/10/484 487/10/487
f 485/10/485 487/10/487 502/10/502
f 487/10/487 484/10/484 502/10/502
f 503/10/503 498/10/498 499/10/499
f 503/10/503 481/10/481 498/10/498
f 481/10/481 497/10/497 498/10/498
g fff0a81b_00576_00c7ff3c_e1
f 581/35/581 591/33/591 582/36/582
f 581/35/581 596/34/596 591/33/591
f 580/5/580 577/8/577 578/7/578
f 578/7/578 579/6/579 580/5/580
f 599/2/599 600/1/600 578/4/578
f 578/4/578 577/3/577 599/2/599
f 597/2/597 598/1/598 580/4/580
f 580/4/580 579/3/579 597/2/597
f 583/37/583 581/35/581 582/36/582
f 583/37/583 582/36/582 584/38/584
f 585/39/585 583/37/583 584/38/584
f 585/39/585 584/38/584 586/40/586
f 587/41/587 585/39/585 586/40/586
f 587/41/587 586/40/586 588/42/588
f 593/25/593 587/41/587 588/42/588
f 593/25/593 588/42/588 589/26/589
f 594/27/594 593/25/593 589/26/589
f 594/27/594 589/26/589 590/28/590
f 595/29/595 594/27/594 590/28/590
f 595/29/595 590/28/590 592/31/592
f 596/32/596 595/29/595 592/31/592
f 596/32/596 592/31/592 591/30/591
f 613/35/613 623/33/623 614/36/614
f 613/35/613 628/34/628 623/33/623
f 612/5/612 609/8/609 610/7/610
f 610/7/610 611/6/611 612/5/612
f 631/2/631 632/1/632 610/4/610
f 610/4/610 609/3/609 631/2/631
f 629/2/629 630/1/630 612/4/612
f 612/4/612 611/3/611 629/2/629
f 615/37/615 613/35/613 614/36/614
f 615/37/615 614/36/614 616/38/616
f 617/39/617 615/37/615 616/38/616
f 617/39/617 616/38/616 618/40/618
f 619/41/619 617/39/617 618/40/618
f 619/41/619 618/40/618 620/42/620
f 625/25/625 619/41/619 620/42/620
f 625/25/625 620/42/620 621/26/621
f 626/27/626 625/25/625 621/26/621
f 626/27/626 621/26/621 622/28/622
f 627/29/627 626/27/626 622/28/622
f 627/29/627 622/28/622 624/31/624
f 628/32/628 627/29/627 624/31/624
f 628/32/628 624/31/624 623/30/623
f 645/35/645 655/33/655 646/36/646
f 645/35/645 660/34/660 655/33/655
f 644/5/644 641/8/641 642/7/642
f 642/7/642 643/6/643 644/5/644
f 663/2/663 664/1/664 642/4/642
f 642/4/642 641/3/641 663/2/663
f 661/2/661 662/1/662 644/4/644
f 644/4/644 643/3/643 661/2/661
f 647/37/647 645/35/645 646/36/646
f 647/37/647 646/36/646 648/38/648
f 649/39/649 647/37/647 648/38/648
f 649/39/649 648/38/648 650/40/650
f 651/41/651 649/39/649 650/40/650
f 651/41/651 650/40/650 652/42/652
f 657/25/657 651/41/651 652/42/652
f 657/25/657 652/42/652 653/26/653
f 658/27/658 657/25/657 653/26/653
f 658/27/658 653/26/653 654/28/654
f 659/29/659 658/27/658 654/28/654
f 659/29/659 654/28/654 656/31/656
f 660/32/660 659/29/659 656/31/656
f 660/32/660 656/31/656 655/30/655
f 84/32/84 80/31/80 79/30/79
f 84/32/84 83/29/83 80/31/80
f 83/29/83 78/28/78 80/31/80
f 83/29/83 82/27/82 78/28/78
f 82/27/82 77/26/77 78/28/78
f 82/27/82 81/25/81 77/26/77
f 81/25/81 76/42/76 77/26/77
f 81/25/81 75/41/75 76/42/76
f 75/41/75 74/40/74 76/42/76
f 75/41/75 73/39/73 74/40/74
f 73/39/73 72/38/72 74/40/74
f 73/39/73 71/37/71 72/38/72
f 71/37/71 70/36/70 72/38/72
f 71/37/71 69/35/69 70/36/70
f 68/4/68 67/3/67 85/2/85
f 85/2/85 86/1/86 68/4/68
f 66/4/66 65/3/65 87/2/87
f 87/2/87 88/1/88 66/4/66
f 66/7/66 67/6/67 68/5/68
f 68/5/68 65/8/65 66/7/66
f 69/35/69 84/34/84 79/33/79
f 69/35/69 79/33/79 70/36/70
f 52/32/52 48/31/48 47/30/47
f 52/32/52 51/29/51 48/31/48
f 51/29/51 46/28/46 48/31/48
f 51/29/51 50/27/50 46/28/46
f 50/27/50 45/26/45 46/28/46
f 50/27/50 49/25/49 45/26/45
f 49/25/49 44/42/44 45/26/45
f 49/25/49 43/41/43 44/42/44
f 43/41/43 42/40/42 44/42/44
f 43/41/43 41/39/41 42/40/42
f 41/39/41 40/38/40 42/40/42
f 41/39/41 39/37/39 40/38/40
f 39/37/39 38/36/38 40/38/40
f 39/37/39 37/35/37 38/36/38
f 36/4/36 35/3/35 53/2/53
f 53/2/53 54/1/54 36/4/36
f 34/4/34 33/3/33 55/2/55
f 55/2/55 56/1/56 34/4/34
f 34/7/34 35/6/35 36/5/36
f 36/5/36 33/8/33 34/7/34
f 37/35/37 52/34/52 47/33/47
f 37/35/37 47/33/47 38/36/38
f 20/32/20 16/31/16 15/30/15
f 20/32/20 19/29/19 16/31/16
f 19/29/19 14/28/14 16/31/16
f 19/29/19 18/27/18 14/28/14
f 18/27/18 13/26/13 14/28/14
f 18/27/18 17/25/17 13/26/13
f 17/25/17 12/42/12 13/26/13
f 17/25/17 11/41/11 12/42/12
f 11/41/11 10/40/10 12/42/12
f 11/41/11 9/39/9 10/40/10
f 9/39/9 8/38/8 10/40/10
f 9/39/9 7/37/7 8/38/8
f 7/37/7 6/36/6 8/38/8
f 7/37/7 5/35/5 6/36/6
f 4/4/4 3/3/3 21/2/21
f 21/2/21 22/1/22 4/4/4
f 2/4/2 1/3/1 23/2/23
f 23/2/23 24/1/24 2/4/2
f 2/7/2 3/6/3 4/5/4
f 4/5/4 1/8/1 2/7/2
f 5/35/5 20/34/20 15/33/15
f 5/35/5 15/33/15 6/36/6
f 180/32/180 176/31/176 175/30/175
f 180/32/180 179/29/179 176/31/176
f 179/29/179 174/28/174 176/31/176
f 179/29/179 178/27/178 174/28/174
f 178/27/178 173/26/173 174/28/174
f 178/27/178 177/25/177 173/26/173
f 177/25/177 172/42/172 173/26/173
f 177/25/177 171/41/171 172/42/172
f 171/41/171 170/40/170 172/42/172
f 171/41/171 169/39/169 170/40/170
f 169/39/169 168/38/168 170/40/170
f 169/39/169 167/37/167 168/38/168
f 167/37/167 166/36/166 168/38/168
f 167/37/167 165/35/165 166/36/166
f 164/4/164 163/3/163 181/2/181
f 181/2/181 182/1/182 164/4/164
f 162/4/162 161/3/161 183/2/183
f 183/2/183 184/1/184 162/4/162
f 162/7/162 163/6/163 164/5/164
f 164/5/164 161/8/161 162/7/162
f 165/35/165 180/34/180 175/33/175
f 165/35/165 175/33/175 166/36/166
f 148/32/148 144/31/144 143/30/143
f 148/32/148 147/29/147 144/31/144
f 147/29/147 142/28/142 144/31/144
f 147/29/147 146/27/146 142/28/142
f 146/27/146 141/26/141 142/28/142
f 146/27/146 145/25/145 141/26/141
f 145/25/145 140/42/140 141/26/141
f 145/25/145 139/41/139 140/42/140
f 139/41/139 138/40/138 140/42/140
f 139/41/139 137/39/137 138/40/138
f 137/39/137 136/38/136 138/40/138
f 137/39/137 135/37/135 136/38/136
f 135/37/135 134/36/134 136/38/136
f 135/37/135 133/35/133 134/36/134
f 132/4/132 131/3/131 149/2/149
f 149/2/149 150/1/150 132/4/132
f 130/4/130 129/3/129 151/2/151
f 151/2/151 152/1/152 130/4/130
f 130/7/130 131/6/131 132/5/132
f 132/5/132 129/8/129 130/7/130
f 133/35/133 148/34/148 143/33/143
f 133/35/133 143/33/143 134/36/134
f 116/32/116 112/31/112 111/30/111
f 116/32/116 115/29/115 112/31/112
f 115/29/115 110/28/110 112/31/112
f 115/29/115 114/27/114 110/28/110
f 114/27/114 109/26/109 110/28/110
f 114/27/114 113/25/113 109/26/109
f 113/25/113 108/42/108 109/26/109
f 113/25/113 107/41/107 108/42/108
f 107/41/107 106/40/106 108/42/108
f 107/41/107 105/39/105 106/40/106
f 105/39/105 104/38/104 106/40/106
f 105/39/105 103/37/103 104/38/104
f 103/37/103 102/36/102 104/38/104
f 103/37/103 101/35/101 102/36/102
f 100/4/100 99/3/99 117/2/117
f 117/2/117 118/1/118 100/4/100
f 98/4/98 97/3/97 119/2/119
f 119/2/119 120/1/120 98/4/98
f 98/7/98 99/6/99 100/5/100
f 100/5/100 97/8/97 98/7/98
f 101/35/101 116/34/116 111/33/111
f 101/35/101 111/33/111 102/36/102
f 276/32/276 272/31/272 271/30/271
f 276/32/276 275/29/275 272/31/272
f 275/29/275 270/28/270 272/31/272
f 275/29/275 274/27/274 270/28/270
f 274/27/274 269/26/269 270/28/270
f 274/27/274 273/25/273 269/26/269
f 273/25/273 268/42/268 269/26/269
f 273/25/273 267/41/267 268/42/268
f 267/41/267 266/40/266 268/42/268
f 267/41/267 265/39/265 266/40/266
f 265/39/265 264/38/264 266/40/266
f 265/39/265 263/37/263 264/38/264
f 263/37/263 262/36/262 264/38/264
f 263/37/263 261/35/261 262/36/262
f 260/4/260 259/3/259 277/2/277
f 277/2/277 278/1/278 260/4/260
f 258/4/258 257/3/257 279/2/279
f 279/2/279 280/1/280 258/4/258
f 258/7/258 259/6/259 260/5/260
f 260/5/260 257/8/257 258/7/258
f 261/35/261 276/34/276 271/33/271
f 261/35/261 271/33/271 262/36/262
f 244/32/244 240/31/240 239/30/239
f 244/32/244 243/29/243 240/31/240
f 243/29/243 238/28/238 240/31/240
f 243/29/243 242/27/242 238/28/238
f 242/27/242 237/26/237 238/28/238
f 242/27/242 241/25/241 237/26/237
f 241/25/241 236/42/236 237/26/237
f 241/25/241 235/41/235 236/42/236
f 235/41/235 234/40/234 236/42/236
f 235/41/235 233/39/233 234/40/234
f 233/39/233 232/38/232 234/40/234
f 233/39/233 231/37/231 232/38/232
f 231/37/231 230/36/230 232/38/232
f 231/37/231 229/35/229 230/36/230
f 228/4/228 227/3/227 245/2/245
f 245/2/245 246/1/246 228/4/228
f 226/4/226 225/3/225 247/2/247
f 247/2/247 248/1/248 226/4/226
f 226/7/226 227/6/227 228/5/228
f 228/5/228 225/8/225 226/7/226
f 229/35/229 244/34/244 239/33/239
f 229/35/229 239/33/239 230/36/230
f 212/32/212 208/31/208 207/30/207
f 212/32/212 211/29/211 208/31/208
f 211/29/211 206/28/206 208/31/208
f 211/29/211 210/27/210 206/28/206
f 210/27/210 205/26/205 206/28/206
f 210/27/210 209/25/209 205/26/205
f 209/25/209 204/42/204 205/26/205
f 209/25/209 203/41/203 204/42/204
f 203/41/203 202/40/202 204/42/204
f 203/41/203 201/39/201 202/40/202
f 201/39/201 200/38/200 202/40/202
f 201/39/201 199/37/199 200/38/200
f 199/37/199 198/36/198 200/38/200
f 199/37/199 197/35/197 198/36/198
f 196/4/196 195/3/195 213/2/213
f 213/2/213 214/1/214 196/4/196
f 194/4/194 193/3/193 215/2/215
f 215/2/215 216/1/216 194/4/194
f 194/7/194 195/6/195 196/5/196
f 196/5/196 193/8/193 194/7/194
f 197/35/197 212/34/212 207/33/207
f 197/35/197 207/33/207 198/36/198
f 372/32/372 368/31/368 367/30/367
f 372/32/372 371/29/371 368/31/368
f 371/29/371 366/28/366 368/31/368
f 371/29/371 370/27/370 366/28/366
f 370/27/370 365/26/365 366/28/366
f 370/27/370 369/25/369 365/26/365
f 369/25/369 364/42/364 365/26/365
f 369/25/369 363/41/363 364/42/364
f 363/41/363 362/40/362 364/42/364
f 363/41/363 361/39/361 362/40/362
f 361/39/361 360/38/360 362/40/362
f 361/39/361 359/37/359 360/38/360
f 359/37/359 358/36/358 360/38/360
f 359/37/359 357/35/357 358/36/358
f 356/4/356 355/3/355 373/2/373
f 373/2/373 374/1/374 356/4/356
f 354/4/354 353/3/353 375/2/375
f 375/2/375 376/1/376 354/4/354
f 354/7/354 355/6/355 356/5/356
f 356/5/356 353/8/353 354/7/354
f 357/35/357 372/34/372 367/33/367
f 357/35/357 367/33/367 358/36/358
f 340/32/340 336/31/336 335/30/335
f 340/32/340 339/29/339 336/31/336
f 339/29/339 334/28/334 336/31/336
f 339/29/339 338/27/338 334/28/334
f 338/27/338 333/26/333 334/28/334
f 338/27/338 337/25/337 333/26/333
f 337/25/337 332/42/332 333/26/333
f 337/25/337 331/41/331 332/42/332
f 331/41/331 330/40/330 332/42/332
f 331/41/331 329/39/329 330/40/330
f 329/39/329 328/38/328 330/40/330
f 329/39/329 327/37/327 328/38/328
f 327/37/327 326/36/326 328/38/328
f 327/37/327 325/35/325 326/36/326
f 324/4/324 323/3/323 341/2/341
f 341/2/341 342/1/342 324/4/324
f 322/4/322 321/3/321 343/2/343
f 343/2/343 344/1/344 322/4/322
f 322/7/322 323/6/323 324/5/324
f 324/5/324 321/8/321 322/7/322
f 325/35/325 340/34/340 335/33/335
f 325/35/325 335/33/335 326/36/326
f 308/32/308 304/31/304 303/30/303
f 308/32/308 307/29/307 304/31/304
f 307/29/307 302/28/302 304/31/304
f 307/29/307 306/27/306 302/28/302
f 306/27/306 301/26/301 302/28/302
f 306/27/306 305/25/305 301/26/301
f 305/25/305 300/42/300 301/26/301
f 305/25/305 299/41/299 300/42/300
f 299/41/299 298/40/298 300/42/300
f 299/41/299 297/39/297 298/40/298
f 297/39/297 296/38/296 298/40/298
f 297/39/297 295/37/295 296/38/296
f 295/37/295 294/36/294 296/38/296
f 295/37/295 293/35/293 294/36/294
f 292/4/292 291/3/291 309/2/309
f 309/2/309 310/1/310 292/4/292
f 290/4/290 289/3/289 311/2/311
f 311/2/311 312/1/312 290/4/290
f 290/7/290 291/6/291 292/5/292
f 292/5/292 289/8/289 290/7/290
f 293/35/293 308/34/308 303/33/303
f 293/35/293 303/33/303 294/36/294
f 468/32/468 464/31/464 463/30/463
f 468/32/468 467/29/467 464/31/464
f 467/29/467 462/28/462 464/31/464
f 467/29/467 466/27/466 462/28/462
f 466/27/466 461/26/461 462/28/462
f 466/27/466 465/25/465 461/26/461
f 465/25/465 460/42/460 461/26/461
f 465/25/465 459/41/459 460/42/460
f 459/41/459 458/40/458 460/42/460
f 459/41/459 457/39/457 458/40/458
f 457/39/457 456/38/456 458/40/458
f 457/39/457 455/37/455 456/38/456
f 455/37/455 454/36/454 456/38/456
f 455/37/455 453/35/453 454/36/454
f 452/4/452 451/3/451 469/2/469
f 469/2/469 470/1/470 452/4/452
f 450/4/450 449/3/449 471/2/471
f 471/2/471 472/1/472 450/4/450
f 450/7/450 451/6/451 452/5/452
f 452/5/452 449/8/449 450/7/450
f 453/35/453 468/34/468 463/33/463
f 453/35/453 463/33/463 454/36/454
f 436/32/436 432/31/432 431/30/431
f 436/32/436 435/29/435 432/31/432
f 435/29/435 430/28/430 432/31/432
f 435/29/435 434/27/434 430/28/430
f 434/27/434 429/26/429 430/28/430
f 434/27/434 433/25/433 429/26/429
f 433/25/433 428/42/428 429/26/429
f 433/25/433 427/41/427 428/42/428
f 427/41/427 426/40/426 428/42/428
f 427/41/427 425/39/425 426/40/426
f 425/39/425 424/38/424 426/40/426
f 425/39/425 423/37/423 424/38/424
f 423/37/423 422/36/422 424/38/424
f 423/37/423 421/35/421 422/36/422
f 420/4/420 419/3/419 437/2/437
f 437/2/437 438/1/438 420/4/420
f 418/4/418 417/3/417 439/2/439
f 439/2/439 440/1/440 418/4/418
f 418/7/418 419/6/419 420/5/420
f 420/5/420 417/8/417 418/7/418
f 421/35/421 436/34/436 431/33/431
f 421/35/421 431/33/431 422/36/422
f 404/32/404 400/31/400 399/30/399
f 404/32/404 403/29/403 400/31/400
f 403/29/403 398/28/398 400/31/400
f 403/29/403 402/27/402 398/28/398
f 402/27/402 397/26/397 398/28/398
f 402/27/402 401/25/401 397/26/397
f 401/25/401 396/42/396 397/26/397
f 401/25/401 395/41/395 396/42/396
f 395/41/395 394/40/394 396/42/396
f 395/41/395 393/39/393 394/40/394
f 393/39/393 392/38/392 394/40/394
f 393/39/393 391/37/391 392/38/392
f 391/37/391 390/36/390 392/38/392
f 391/37/391 389/35/389 390/36/390
f 388/4/388 387/3/387 405/2/405
f 405/2/405 406/1/406 388/4/388
f 386/4/386 385/3/385 407/2/407
f 407/2/407 408/1/408 386/4/386
f 386/7/386 387/6/387 388/5/388
f 388/5/388 385/8/385 386/7/386
f 389/35/389 404/34/404 399/33/399
f 389/35/389 399/33/399 390/36/390
f 564/32/564 560/31/560 559/30/559
f 564/32/564 563/29/563 560/31/560
f 563/29/563 558/28/558 560/31/560
f 563/29/563 562/27/562 558/28/558
f 562/27/562 557/26/557 558/28/558
f 562/27/562 561/25/561 557/26/557
f 561/25/561 556/42/556 557/26/557
f 561/25/561 555/41/555 556/42/556
f 555/41/555 554/40/554 556/42/556
f 555/41/555 553/39/553 554/40/554
f 553/39/553 552/38/552 554/40/554
f 553/39/553 551/37/551 552/38/552
f 551/37/551 550/36/550 552/38/552
f 551/37/551 549/35/549 550/36/550
f 548/4/548 547/3/547 565/2/565
f 565/2/565 566/1/566 548/4/548
f 546/4/546 545/3/545 567/2/567
f 567/2/567 568/1/568 546/4/546
f 546/7/546 547/6/547 548/5/548
f 548/5/548 545/8/545 546/7/546
f 549/35/549 564/34/564 559/33/559
f 549/35/549 559/33/559 550/36/550
f 532/32/532 528/31/528 527/30/527
f 532/32/532 531/29/531 528/31/528
f 531/29/531 526/28/526 528/31/528
f 531/29/531 530/27/530 526/28/526
f 530/27/530 525/26/525 526/28/526
f 530/27/530 529/25/529 525/26/525
f 529/25/529 524/42/524 525/26/525
f 529/25/529 523/41/523 524/42/524
f 523/41/523 522/40/522 524/42/524
f 523/41/523 521/39/521 522/40/522
f 521/39/521 520/38/520 522/40/522
f 521/39/521 519/37/519 520/38/520
f 519/37/519 518/36/518 520/38/520
f 519/37/519 517/35/517 518/36/518
f 516/4/516 515/3/515 533/2/533
f 533/2/533 534/1/534 516/4/516
f 514/4/514 513/3/513 535/2/535
f 535/2/535 536/1/536 514/4/514
f 514/7/514 515/6/515 516/5/516
f 516/5/516 513/8/513 514/7/514
f 517/35/517 532/34/532 527/33/527
f 517/35/517 527/33/527 518/36/518
f 500/32/500 496/31/496 495/30/495
f 500/32/500 499/29/499 496/31/496
f 499/29/499 494/28/494 496/31/496
f 499/29/499 498/27/498 494/28/494
f 498/27/498 493/26/493 494/28/494
f 498/27/498 497/25/497 493/26/493
f 497/25/497 492/42/492 493/26/493
f 497/25/497 491/41/491 492/42/492
f 491/41/491 490/40/490 492/42/492
f 491/41/491 489/39/489 490/40/490
f 489/39/489 488/38/488 490/40/490
f 489/39/489 487/37/487 488/38/488
f 487/37/487 486/36/486 488/38/488
f 487/37/487 485/35/485 486/36/486
f 484/4/484 483/3/483 501/2/501
f 501/2/501 502/1/502 484/4/484
f 482/4/482 481/3/481 503/2/503
f 503/2/503 504/1/504 482/4/482
f 482/7/482 483/6/483 484/5/484
f 484/5/484 481/8/481 482/7/482
f 485/35/485 500/34/500 495/33/495
f 485/35/485 495/33/495 486/36/486
g fff0a81b_00576_00c7ff3c_e2
f 598/6/598 597/5/597 600/8/600
f 600/8/600 599/7/599 598/6/598
f 630/6/630 629/5/629 632/8/632
f 632/8/632 631/7/631 630/6/630
f 662/6/662 661/5/661 664/8/664
f 664/8/664 663/7/663 662/6/662
f 88/8/88 87/7/87 86/6/86
f 86/6/86 85/5/85 88/8/88
f 56/8/56 55/7/55 54/6/54
f 54/6/54 53/5/53 56/8/56
f 24/8/24 23/7/23 22/6/22
f 22/6/22 21/5/21 24/8/24
f 184/8/184 183/7/183 182/6/182
f 182/6/182 181/5/181 184/8/184
f 152/8/152 151/7/151 150/6/150
f 150/6/150 149/5/149 152/8/152
f 120/8/120 119/7/119 118/6/118
f 118/6/118 117/5/117 120/8/120
f 280/8/280 279/7/279 278/6/278
f 278/6/278 277/5/277 280/8/280
f 248/8/248 247/7/247 246/6/246
f 246/6/246 245/5/245 248/8/248
f 216/8/216 215/7/215 214/6/214
f 214/6/214 213/5/213 216/8/216
f 376/8/376 375/7/375 374/6/374
f 374/6/374 373/5/373 376/8/376
f 344/8/344 343/7/343 342/6/342
f 342/6/342 341/5/341 344/8/344
f 312/8/312 311/7/311 310/6/310
f 310/6/310 309/5/309 312/8/312
f 472/8/472 471/7/471 470/6/470
f 470/6/470 469/5/469 472/8/472
f 440/8/440 439/7/439 438/6/438
f 438/6/438 437/5/437 440/8/440
f 408/8/408 407/7/407 406/6/406
f 406/6/406 405/5/405 408/8/408
f 568/8/568 567/7/567 566/6/566
f 566/6/566 565/5/565 568/8/568
f 536/8/536 535/7/535 534/6/534
f 534/6/534 533/5/533 536/8/536
f 504/8/504 503/7/503 502/6/502
f 502/6/502 501/5/501 504/8/504
g fff0a81b_00576_00c7ff3c_e3
f 601/9/601 608/16/608 605/13/605
f 605/13/605 602/10/602 601/9/601
f 604/12/604 601/9/601 602/10/602
f 602/10/602 603/11/603 604/12/604
f 606/14/606 604/12/604 603/11/603
f 604/12/604 606/14/606 607/15/607
f 606/14/606 605/13/605 608/16/608
f 608/16/608 607/15/607 606/14/606
f 633/9/633 640/16/640 637/13/637
f 637/13/637 634/10/634 633/9/633
f 636/12/636 633/9/633 634/10/634
f 634/10/634 635/11/635 636/12/636
f 638/14/638 636/12/636 635/11/635
f 636/12/636 638/14/638 639/15/639
f 638/14/638 637/13/637 640/16/640
f 640/16/640 639/15/639 638/14/638
f 665/9/665 672/16/672 669/13/669
f 669/13/669 666/10/666 665/9/665
f 668/12/668 665/9/665 666/10/666
f 666/10/666 667/11/667 668/12/668
f 670/14/670 668/12/668 667/11/667
f 668/12/668 670/14/670 671/15/671
f 670/14/670 669/13/669 672/16/672
f 672/16/672 671/15/671 670/14/670
f 96/16/96 95/15/95 94/14/94
f 94/14/94 93/13/93 96/16/96
f 92/12/92 94/14/94 95/15/95
f 94/14/94 92/12/92 91/11/91
f 90/10/90 91/11/91 92/12/92
f 92/12/92 89/9/89 90/10/90
f 93/13/93 90/10/90 89/9/89
f 89/9/89 96/16/96 93/13/93
f 64/16/64 63/15/63 62/14/62
f 62/14/62 61/13/61 64/16/64
f 60/12/60 62/14/62 63/15/63
f 62/14/62 60/12/60 59/11/59
f 58/10/58 59/11/59 60/12/60
f 60/12/60 57/9/57 58/10/58
f 61/13/61 58/10/58 57/9/57
f 57/9/57 64/16/64 61/13/61
f 32/16/32 31/15/31 30/14/30
f 30/14/30 29/13/29 32/16/32
f 28/12/28 30/14/30 31/15/31
f 30/14/30 28/12/28 27/11/27
f 26/10/26 27/11/27 28/12/28
f 28/12/28 25/9/25 26/10/26
f 29/13/29 26/10/26 25/9/25
f 25/9/25 32/16/32 29/13/29
f 192/16/192 191/15/191 190/14/190
f 190/14/190 189/13/189 192/16/192
f 188/12/188 190/14/190 191/15/191
f 190/14/190 188/12/188 187/11/187
f 186/10/186 187/11/187 188/12/188
f 188/12/188 185/9/185 186/10/186
f 189/13/189 186/10/186 185/9/185
f 185/9/185 192/16/192 189/13/189
f 160/16/160 159/15/159 158/14/158
f 158/14/158 157/13/157 160/16/160
f 156/12/156 158/14/158 159/15/159
f 158/14/158 156/12/156 155/11/155
f 154/10/154 155/11/155 156/12/156
f 156/12/156 153/9/153 154/10/154
f 157/13/157 154/10/154 153/9/153
f 153/9/153 160/16/160 157/13/157
f 128/16/128 127/15/127 126/14/126
f 126/14/126 125/13/125 128/16/128
f 124/12/124 126/14/126 127/15/127
f 126/14/126 124/12/124 123/11/123
f 122/10/122 123/11/123 124/12/124
f 124/12/124 121/9/121 122/10/122
f 125/13/125 122/10/122 121/9/121
f 121/9/121 128/16/128 125/13/125
f 288/16/288 287/15/287 286/14/286
f 286/14/286 285/13/285 288/16/288
f 284/12/284 286/14/286 287/15/287
f 286/14/286 284/12/284 283/11/283
f 282/10/282 283/11/283 284/12/284
f 284/12/284 281/9/281 282/10/282
f 285/13/285 282/10/282 281/9/281
f 281/9/281 288/16/288 285/13/285
f 256/16/256 255/15/255 254/14/254
f 254/14/254 253/13/253 256/16/256
f 252/12/252 254/14/254 255/15/255
f 254/14/254 252/12/252 251/11/251
f 250/10/250 251/11/251 252/12/252
f 252/12/252 249/9/249 250/10/250
f 253/13/253 250/10/250 249/9/249
f 249/9/249 256/16/256 253/13/253
f 224/16/224 223/15/223 222/14/222
f 222/14/222 221/13/221 224/16/224
f 220/12/220 222/14/222 223/15/223
f 222/14/222 220/12/220 219/11/219
f 218/10/218 219/11/219 220/12/220
f 220/12/220 217/9/217 218/10/218
f 221/13/221 218/10/218 217/9/217
f 217/9/217 224/16/224 221/13/221
f 384/16/384 383/15/383 382/14/382
f 382/14/382 381/13/381 384/16/384
f 380/12/380 382/14/382 383/15/383
f 382/14/382 380/12/380 379/11/379
f 378/10/378 379/11/379 380/12/380
f 380/12/380 377/9/377 378/10/378
f 381/13/381 378/10/378 377/9/377
f 377/9/377 384/16/384 381/13/381
f 352/16/352 351/15/351 350/14/350
f 350/14/350 349/13/349 352/16/352
f 348/12/348 350/14/350 351/15/351
f 350/14/350 348/12/348 347/11/347
f 346/10/346 347/11/347 348/12/348
f 348/12/348 345/9/345 346/10/346
f 349/13/349 346/10/346 345/9/345
f 345/9/345 352/16/352 349/13/349
f 320/16/320 319/15/319 318/14/318
f 318/14/318 317/13/317 320/16/320
f 316/12/316 318/14/318 319/15/319
f 318/14/318 316/12/316 315/11/315
f 314/10/314 315/11/315 316/12/316
f 316/12/316 313/9/313 314/10/314
f 317/13/317 314/10/314 313/9/313
f 313/9/313 320/16/320 317/13/317
f 480/16/480 479/15/479 478/14/478
f 478/14/478 477/13/477 480/16/480
f 476/12/476 478/14/478 479/15/479
f 478/14/478 476/12/476 475/11/475
f 474/10/474 475/11/475 476/12/476
f 476/12/476 473/9/473 474/10/474
f 477/13/477 474/10/474 473/9/473
f 473/9/473 480/16/480 477/13/477
f 448/16/448 447/15/447 446/14/446
f 446/14/446 445/13/445 448/16/448
f 444/12/444 446/14/446 447/15/447
f 446/14/446 444/12/444 443/11/443
f 442/10/442 443/11/443 444/12/444
f 444/12/444 441/9/441 442/10/442
f 445/13/445 442/10/442 441/9/441
f 441/9/441 448/16/448 445/13/445
f 416/16/416 415/15/415 414/14/414
f 414/14/414 413/13/413 416/16/416
f 412/12/412 414/14/414 415/15/415
f 414/14/414 412/12/412 411/11/411
f 410/10/410 411/11/411 412/12/412
f 412/12/412 409/9/409 410/10/410
f 413/13/413 410/10/410 409/9/409
f 409/9/409 416/16/416 413/13/413
f 576/16/576 575/15/575 574/14/574
f 574/14/574 573/13/573 576/16/576
f 572/12/572 574/14/574 575/15/575
f 574/14/574 572/12/572 571/11/571
f 570/10/570 571/11/571 572/12/572
f 572/12/572 569/9/569 570/10/570
f 573/13/573 570/10/570 569/9/569
f 569/9/569 576/16/576 573/13/573
f 544/16/544 543/15/543 542/14/542
f 542/14/542 541/13/541 544/16/544
f 540/12/540 542/14/542 543/15/543
f 542/14/542 540/12/540 539/11/539
f 538/10/538 539/11/539 540/12/540
f 540/12/540 537/9/537 538/10/538
f 541/13/541 538/10/538 537/9/537
f 537/9/537 544/16/544 541/13/541
f 512/16/512 511/15/511 510/14/510
f 510/14/510 509/13/509 512/16/512
f 508/12/508 510/14/510 511/15/511
f 510/14/510 508/12/508 507/11/507
f 506/10/506 507/11/507 508/12/508
f 508/12/508 505/9/505 506/10/506
f 509/13/509 506/10/506 505/9/505
f 505/9/505 512/16/512 509/13/509
