# fff0ac53_00319_006a489d
o fff0ac53_00319_006a489d
v -4.436399 -12.337703 15.689465
v 15.652256 -12.337703 15.689466
v -4.436399 15.721867 15.689465
v 15.652256 15.721867 15.689465
v 14.637745 14.703302 15.689465
v -3.300780 14.715550 15.689465
v -3.299648 -11.334654 15.689465
v 14.649815 -11.331636 15.689465
v 14.637745 14.703300 15.053025
v -3.300780 14.715549 14.750418
v -3.299648 -11.334654 15.053025
v 14.649815 -11.331636 15.053025
v 15.277171 15.721867 13.963579
v -4.061407 15.721867 13.963579
v -4.061407 -12.337704 13.963579
v 15.010859 -11.712725 7.305344
v -3.795005 -11.441811 7.305344
v 15.634343 -12.312685 7.301880
v 15.634343 15.696848 7.305344
v -4.418489 15.696848 7.305344
v -4.418489 -12.312685 7.305344
v 15.259927 15.696848 5.738541
v -4.044165 15.696848 5.738541
v -4.044165 -12.312685 5.738541
v 15.634343 15.696848 2.947205
v -4.418489 15.696848 2.947205
v -4.418489 -12.312685 2.958893
v 15.259927 15.696848 1.383865
v -4.044165 15.696848 1.383865
v -4.044165 -12.312685 1.383865
v 15.634343 15.696848 -1.407486
v -4.418489 15.696848 -1.407486
v -4.418489 -12.312685 -1.407486
v 15.259927 15.696848 -2.970825
v -4.044165 15.696848 -2.970825
v -4.044165 -12.312685 -2.970825
v 15.634343 15.696848 -10.057190
v -4.418489 15.696848 -10.057190
v -4.418489 -12.312685 -10.057190
v 15.259927 15.696848 -11.620529
v -4.044165 15.696848 -11.620529
v -4.044165 -12.312685 -11.620529
v 14.649815 -11.331636 15.053025
v -3.299648 -11.334654 15.053025
v 15.010859 14.825974 7.305344
v -3.795005 14.825974 7.305344
v 15.634343 15.696848 7.305344
v -4.418489 15.696848 7.305344
v 12.022278 14.791483 -36.493713
v 10.971498 14.791483 -36.493713
v 12.022278 14.791483 14.956512
v 10.971498 14.791483 14.884121
v 12.022278 15.172541 -36.493713
v 10.971498 15.172541 -36.493713
v 12.022278 15.172541 14.956512
v 10.971498 15.172541 14.884121
v 12.022278 15.172541 -36.493713
v 12.022278 15.172541 14.956512
v 10.971498 15.172541 -36.493713
v 10.971498 15.172541 14.884121
v 6.403214 14.791483 -36.493713
v 5.352434 14.791483 -36.493713
v 6.403214 14.791483 14.956512
v 5.352434 14.791483 14.884121
v 6.403214 15.172541 -36.493713
v 5.352434 15.172541 -36.493713
v 6.403214 15.172541 14.956512
v 5.352434 15.172541 14.884121
v 6.403214 15.172541 -36.493713
v 6.403214 15.172541 14.956512
v 5.352434 15.172541 -36.493713
v 5.352434 15.172541 14.884121
v 0.513321 14.791483 -36.493713
v -0.537458 14.791483 -36.493713
v 0.513321 14.791483 14.956512
v -0.537458 14.791483 14.884121
v 0.513321 15.172541 -36.493713
v -0.537458 15.172541 -36.493713
v 0.513321 15.172541 14.956512
v -0.537458 15.172541 14.884121
v 0.513321 15.172541 -36.493713
v 0.513321 15.172541 14.956512
v -0.537458 15.172541 -36.493713
v -0.537458 15.172541 14.884121
v 13.883299 15.696848 7.305344
v 15.042147 14.869677 7.305344
v 13.780890 15.696848 7.305344
v 15.277171 -12.337704 13.997683
v 15.634343 -12.312685 7.301880
v 15.259927 -12.312685 5.738541
v 15.634343 -12.312685 2.947205
v 15.259927 -12.312685 1.383865
v 15.634343 -12.312685 -1.407486
v 15.259927 -12.312685 -2.970825
v 15.634343 -12.312685 -5.762161
v 15.259927 -12.312685 -7.325500
v 15.634343 -12.312685 -10.057190
v 15.259927 -12.312685 -11.620529
v 15.277171 15.721867 13.963579
v 15.634343 15.696848 7.305344
v 15.259927 15.696848 5.738541
v 15.634343 15.696848 2.947205
v 15.259927 15.696848 1.383865
v 15.634343 15.696848 -1.407486
v 15.259927 15.696848 -2.970825
v 15.634343 15.696848 -5.762161
v 15.259927 15.696848 -7.325500
v 15.634343 15.696848 -10.057190
v 15.259927 15.696848 -11.620529
v 15.010859 -11.712725 2.947205
v -3.795029 14.825975 2.949509
v -3.795005 -11.441811 2.958893
v 15.634343 -12.312685 2.947205
v -4.418489 15.696848 2.947205
v -4.418489 -12.312685 2.958893
v 15.010859 14.825974 2.947205
v -3.795029 14.825975 2.949509
v 15.634343 15.696848 2.947205
v -4.418489 15.696848 2.947205
v 13.883299 15.696848 2.947205
v 15.042147 14.869677 2.947205
v 13.780890 15.696848 2.947205
v 15.010859 -11.712725 -1.407974
v -3.795013 14.825974 -1.406815
v -3.795005 -11.441811 -1.407974
v 15.634343 -12.312685 -1.407486
v -4.418489 15.696848 -1.407974
v -4.418489 -12.312685 -1.407974
v 15.010859 14.825974 -1.407974
v -3.795013 14.825974 -1.406815
v 15.634343 15.696848 -1.407974
v -4.418489 15.696848 -1.407974
v 13.883299 15.696848 -1.407974
v 15.042147 14.869677 -1.407974
v 13.780890 15.696848 -1.407974
v 15.010859 -11.712725 -5.728058
v -3.795013 14.825975 -5.770401
v -3.795005 -11.441811 -5.776245
v 15.634343 -12.312685 -5.762161
v -4.418489 15.696848 -5.776245
v -4.418489 -12.312685 -5.776245
v 15.010859 14.825974 -5.766861
v -3.795013 14.825975 -5.770401
v 15.634343 15.696848 -5.776245
v -4.418489 15.696848 -5.776245
v 13.883299 15.696848 -5.776245
v 15.042147 14.869677 -5.766861
v 13.780890 15.696848 -5.776245
v 15.010859 -11.712725 -10.062866
v -3.795013 14.825975 -10.079697
v -3.795005 -11.441811 -10.062866
v 15.634343 -12.312685 -10.062866
v -4.418489 15.696848 -10.062866
v -4.418489 -12.312685 -10.062866
v 15.010859 14.825974 -10.080856
v -3.795013 14.825975 -10.079697
v 15.634343 15.696848 -10.062866
v -4.418489 15.696848 -10.062866
v 13.883299 15.696848 -10.062866
v 15.042147 14.869677 -10.080856
v 13.780890 15.696848 -10.062866
v 15.010859 14.825974 5.730013
v -3.795005 14.825974 5.730013
v 15.010859 14.825974 2.947206
v -3.795029 14.825975 2.949509
v 15.010859 -11.712724 5.764116
v 15.010859 -11.712724 2.950670
v 15.010859 14.825973 1.374834
v -3.795005 14.825973 1.374834
v 15.010859 14.825973 -1.407974
v -3.795013 14.825974 -1.406815
v 15.010859 -11.712726 1.408937
v 15.010859 -11.712726 -1.404509
v 15.010859 14.825974 -2.979353
v -3.795005 14.825974 -2.979353
v 15.010859 14.825974 -5.766861
v -3.795013 14.825975 -5.770401
v -3.795005 -11.441811 -5.758698
v 15.634343 15.696848 -5.758698
v -4.418489 15.696848 -5.758698
v -4.418489 -12.312685 -5.758698
v 15.259927 15.696848 -7.325500
v -4.044165 15.696848 -7.325500
v -4.044165 -12.312685 -7.325500
v 15.010859 -11.712725 -2.945250
v 15.010859 -11.712725 -5.758696
v 15.010859 14.825974 -7.334028
v -3.795005 14.825974 -7.334028
v 15.010859 14.825974 -10.080856
v -3.795013 14.825975 -10.079697
v 15.010859 -11.712724 -7.299925
v 15.010859 -11.712724 -10.113371
v 15.010859 14.825973 -11.689207
v -3.795005 14.825973 -11.689207
v 15.010859 14.825973 -14.433823
v -3.795013 14.825974 -14.432663
v 15.010859 -11.712726 -11.655104
v 15.010859 -11.712726 -14.468550
v 12.029148 15.178938 9.343096
v 10.960691 15.178938 9.343096
v 12.029148 15.178938 10.211075
v 10.960691 15.178938 10.138684
v 6.427494 15.178938 9.343096
v 5.359037 15.178938 9.343096
v 6.427494 15.178938 10.211075
v 5.359037 15.178938 10.138684
v 0.526691 15.178938 9.343096
v -0.541765 15.178938 9.343096
v 0.526691 15.178938 10.211075
v -0.541765 15.178938 10.138684
v 12.029148 15.178938 4.948214
v 10.960691 15.178938 4.948214
v 12.029148 15.178938 5.816193
v 10.960691 15.178938 5.743802
v 6.427494 15.178938 4.948214
v 5.359037 15.178938 4.948214
v 6.427494 15.178938 5.816193
v 5.359037 15.178938 5.743802
v 0.526691 15.178938 4.948214
v -0.541765 15.178938 4.948214
v 0.526691 15.178938 5.816193
v -0.541765 15.178938 5.743802
v 12.029148 15.178938 0.629213
v 10.960691 15.178938 0.629213
v 12.029148 15.178938 1.497192
v 10.960691 15.178938 1.424802
v 6.427494 15.178938 0.629213
v 5.359037 15.178938 0.629213
v 6.427494 15.178938 1.497192
v 5.359037 15.178938 1.424802
v 0.526691 15.178938 0.629213
v -0.541765 15.178938 0.629213
v 0.526691 15.178938 1.497192
v -0.541765 15.178938 1.424802
v 12.029148 15.178938 -3.765669
v 10.960691 15.178938 -3.765669
v 12.029148 15.178938 -2.897690
v 10.960691 15.178938 -2.970080
v 6.427494 15.178938 -3.765669
v 5.359037 15.178938 -3.765669
v 6.427494 15.178938 -2.897690
v 5.359037 15.178938 -2.970080
v 0.526691 15.178938 -3.765669
v -0.541765 15.178938 -3.765669
v 0.526691 15.178938 -2.897690
v -0.541765 15.178938 -2.970080
v 12.029148 15.178938 -8.074751
v 10.960691 15.178938 -8.074751
v 12.029148 15.178938 -7.206772
v 10.960691 15.178938 -7.279162
v 6.427494 15.178938 -8.074751
v 5.359037 15.178938 -8.074751
v 6.427494 15.178938 -7.206772
v 5.359037 15.178938 -7.279162
v 0.526691 15.178938 -8.074751
v -0.541765 15.178938 -8.074751
v 0.526691 15.178938 -7.206772
v -0.541765 15.178938 -7.279162
v 12.029148 15.178938 -12.469633
v 10.960691 15.178938 -12.469633
v 12.029148 15.178938 -11.601654
v 10.960691 15.178938 -11.674045
v 6.427494 15.178938 -12.469633
v 5.359037 15.178938 -12.469633
v 6.427494 15.178938 -11.601654
v 5.359037 15.178938 -11.674045
v 0.526691 15.178938 -12.469633
v -0.541765 15.178938 -12.469633
v 0.526691 15.178938 -11.601654
v -0.541765 15.178938 -11.674045
v 15.016148 14.877539 9.038103
v 0.353056 14.877539 9.038103
v 15.016148 14.877539 10.211075
v 0.353056 14.877539 10.138684
v 15.016148 14.877539 4.411379
v -3.803194 14.877539 4.411379
v 15.016148 14.877539 5.584351
v -3.803194 14.877539 5.511960
v 15.016148 14.877539 0.170351
v -3.803194 14.877539 0.170351
v 15.016148 14.877539 1.343323
v -3.803194 14.877539 1.270932
v 15.016148 14.877539 -4.456373
v -3.803194 14.877539 -4.456373
v 15.016148 14.877539 -3.283401
v -3.803194 14.877539 -3.355792
v 15.016148 14.877539 -8.432035
v -3.803194 14.877539 -8.432035
v 15.016148 14.877539 -7.259064
v -3.803194 14.877539 -7.331454
v 15.016148 14.877539 -13.058760
v -3.803194 14.877539 -13.058760
v 15.016148 14.877539 -11.885788
v -3.803194 14.877539 -11.958179
v -4.061407 15.721867 13.963579
v -3.795005 14.825974 7.305344
v -4.418489 15.696848 7.305344
v -4.044165 15.696848 5.738541
v -4.418489 15.696848 2.947205
v -4.044165 15.696848 1.383865
v -4.418489 15.696848 -1.407486
v -4.044165 15.696848 -2.970825
v -4.418489 15.696848 -10.057190
v -4.044165 15.696848 -11.620529
v -3.795013 14.825975 -5.770401
v -4.418489 15.696848 -5.758698
v -4.044165 15.696848 -7.325500
v -4.418489 -12.312685 7.305344
v -4.418489 -12.312685 -5.758698
v -4.418489 15.696848 7.305344
v -4.418489 15.696848 -5.758698
v -3.794983 -11.889468 10.088150
v -3.794983 -11.889468 7.308807
v -3.794998 14.825974 5.733475
v -3.794998 -11.889468 5.733475
v -3.794998 14.825974 2.950668
v -3.794998 -11.889483 2.952972
v -3.794983 14.825974 1.378296
v -3.794983 -11.889468 1.378296
v -3.794983 14.825974 -1.404510
v -3.794983 -11.889468 -1.403351
v -3.794998 14.825974 -2.975891
v -3.794983 -11.889468 -2.975891
v -3.794998 14.825974 -5.763397
v -3.794998 -11.889468 -5.766937
v -3.794998 14.825974 -7.330566
v -3.794998 -11.889468 -7.330566
v -3.794998 14.825974 -10.077393
v -3.794998 -11.889468 -10.076233
v -3.794983 14.825974 -11.685745
v -3.794983 -11.889468 -11.685745
v -3.794983 14.825974 -14.430359
v -3.794983 -11.889468 -14.429199
v -3.671387 10.966276 -36.494354
v -3.671387 9.915495 -36.494354
v -3.671387 10.966276 14.955872
v -3.671387 9.915495 14.883484
v -4.052444 10.966276 -36.494354
v -4.052444 9.915495 -36.494354
v -4.052444 10.966276 14.955872
v -4.052444 9.915495 14.883484
v -4.052444 10.966276 -36.494354
v -4.052444 10.966276 14.955872
v -4.052444 9.915495 -36.494354
v -4.052444 9.915495 14.883484
v -4.058853 10.979643 9.342453
v -4.058853 9.911192 9.342453
v -4.058853 10.979643 10.210434
v -4.058853 9.911192 10.138046
v -4.058853 10.979643 4.947571
v -4.058853 9.911192 4.947571
v -4.058853 10.979643 5.815552
v -4.058853 9.911192 5.743164
v -4.058853 10.979643 0.628571
v -4.058853 9.911192 0.628571
v -4.058853 10.979643 1.496552
v -4.058853 9.911192 1.424164
v -4.058853 10.979643 -3.766312
v -4.058853 9.911192 -3.766312
v -4.058853 10.979643 -2.898331
v -4.058853 9.911192 -2.970718
v -4.058853 10.979643 -8.075394
v -4.058853 9.911192 -8.075394
v -4.058853 10.979643 -7.207413
v -4.058853 9.911192 -7.279800
v -4.058853 10.979643 -12.470276
v -4.058853 9.911192 -12.470276
v -4.058853 10.979643 -11.602295
v -4.058853 9.911192 -11.674683
v -3.671387 -6.592375 -36.494354
v -3.671387 -7.643156 -36.494354
v -3.671387 -6.592375 14.955872
v -3.671387 -7.643156 14.883484
v -4.052444 -6.592375 -36.494354
v -4.052444 -7.643156 -36.494354
v -4.052444 -6.592375 14.955872
v -4.052444 -7.643156 14.883484
v -4.052444 -6.592375 -36.494354
v -4.052444 -6.592375 14.955872
v -4.052444 -7.643156 -36.494354
v -4.052444 -7.643156 14.883484
v -4.058853 -6.579008 9.342453
v -4.058853 -7.647459 9.342453
v -4.058853 -6.579008 10.210434
v -4.058853 -7.647459 10.138046
v -4.058853 -6.579008 4.947571
v -4.058853 -7.647459 4.947571
v -4.058853 -6.579008 5.815552
v -4.058853 -7.647459 5.743164
v -4.058853 -6.579008 0.628571
v -4.058853 -7.647459 0.628571
v -4.058853 -6.579008 1.496552
v -4.058853 -7.647459 1.424164
v -4.058853 -6.579008 -3.766312
v -4.058853 -7.647459 -3.766312
v -4.058853 -6.579008 -2.898331
v -4.058853 -7.647459 -2.970718
v -4.058853 -6.579008 -8.075394
v -4.058853 -7.647459 -8.075394
v -4.058853 -6.579008 -7.207413
v -4.058853 -7.647459 -7.279800
v -4.058853 -6.579008 -12.470276
v -4.058853 -7.647459 -12.470276
v -4.058853 -6.579008 -11.602295
v -4.058853 -7.647459 -11.674683
v -3.671387 1.977132 -36.494354
v -3.671387 0.926351 -36.494354
v -3.671387 1.977132 14.955872
v -3.671387 0.926351 14.883484
v -4.052444 1.977132 -36.494354
v -4.052444 0.926351 -36.494354
v -4.052444 1.977132 14.955872
v -4.052444 0.926351 14.883484
v -4.052444 1.977132 -36.494354
v -4.052444 1.977132 14.955872
v -4.052444 0.926351 -36.494354
v -4.052444 0.926351 14.883484
v -4.058853 1.990499 9.342453
v -4.058853 0.922048 9.342453
v -4.058853 1.990499 10.210434
v -4.058853 0.922048 10.138046
v -4.058853 1.990499 4.947571
v -4.058853 0.922048 4.947571
v -4.058853 1.990499 5.815552
v -4.058853 0.922048 5.743164
v -4.058853 1.990499 0.628571
v -4.058853 0.922048 0.628571
v -4.058853 1.990499 1.496552
v -4.058853 0.922048 1.424164
v -4.058853 1.990499 -3.766312
v -4.058853 0.922048 -3.766312
v -4.058853 1.990499 -2.898331
v -4.058853 0.922048 -2.970718
v -4.058853 1.990499 -8.075394
v -4.058853 0.922048 -8.075394
v -4.058853 1.990499 -7.207413
v -4.058853 0.922048 -7.279800
v -4.058853 1.990499 -12.470276
v -4.058853 0.922048 -12.470276
v -4.058853 1.990499 -11.602295
v -4.058853 0.922048 -11.674683
v 15.634389 15.696846 -14.432663
v -4.418443 15.696846 -14.432663
v -4.418443 -12.312687 -14.420975
v 15.259971 15.696846 -15.996002
v -4.044121 15.696846 -15.996002
v -4.044121 -12.312687 -15.996002
v 15.634389 -12.312687 -14.432663
v 15.259971 -12.312687 -15.996002
v 15.634389 15.696846 -14.432663
v 15.259971 15.696846 -15.996002
v 15.010904 -11.712727 -14.432663
v -3.794983 14.825974 -14.430359
v -3.794959 -11.441813 -14.420975
v 15.634389 -12.312687 -14.432663
v -4.418443 15.696846 -14.432663
v -4.418443 -12.312687 -14.420975
v 15.010904 14.825972 -14.432663
v -3.794983 14.825974 -14.430359
v 15.634389 15.696846 -14.432663
v -4.418443 15.696846 -14.432663
v 13.883345 15.696846 -14.432663
v 15.042192 14.869675 -14.432663
v 13.780936 15.696846 -14.432663
v 15.010904 14.825971 -16.005033
v -3.794959 14.825971 -16.005033
v 15.010904 14.825971 -18.787842
v -3.794968 14.825972 -18.786682
v 15.010904 -11.712728 -15.970930
v 15.010904 -11.712728 -18.784376
v 15.016193 14.877537 -17.209517
v -3.803148 14.877537 -17.209517
v 15.016193 14.877537 -16.036545
v -3.803148 14.877537 -16.108936
v -4.418443 15.696846 -14.432663
v -4.044121 15.696846 -15.996002
v -3.794937 14.825972 -16.001572
v -3.794937 -11.889470 -16.001572
v -3.794937 14.825972 -18.784378
v -3.794937 -11.889470 -18.783218
v 15.634435 15.696844 -18.786682
v -4.418397 15.696844 -18.786682
v -4.418397 -12.312689 -18.774994
v 15.260015 15.696844 -20.350021
v -4.044077 15.696844 -20.350021
v -4.044077 -12.312689 -20.350021
v 15.634435 -12.312689 -18.786682
v 15.260015 -12.312689 -20.350021
v 15.634435 15.696844 -18.786682
v 15.260015 15.696844 -20.350021
v 15.010950 -11.712729 -18.786682
v -3.794937 14.825972 -18.784378
v -3.794913 -11.441814 -18.774994
v 15.634435 -12.312689 -18.786682
v -4.418397 15.696844 -18.786682
v -4.418397 -12.312689 -18.774994
v 15.010950 14.825970 -18.786682
v -3.794937 14.825972 -18.784378
v 15.634435 15.696844 -18.786682
v -4.418397 15.696844 -18.786682
v 13.883390 15.696844 -18.786682
v 15.042238 14.869673 -18.786682
v 13.780982 15.696844 -18.786682
v 15.010950 14.825969 -20.359053
v -3.794913 14.825969 -20.359053
v 15.010950 14.825969 -23.141861
v -3.794922 14.825970 -23.140701
v 15.010950 -11.712729 -20.324949
v 15.010950 -11.712729 -23.138395
v 15.016239 14.877535 -21.563536
v -3.803102 14.877535 -21.563536
v 15.016239 14.877535 -20.390564
v -3.803102 14.877535 -20.462955
v -4.418397 15.696844 -18.786682
v -4.044077 15.696844 -20.350021
v -3.794891 14.825970 -20.355591
v -3.794891 -11.889472 -20.355591
v -3.794891 14.825970 -23.138397
v -3.794891 -11.889472 -23.137238
v 15.634480 15.696842 -23.140701
v -4.418351 15.696842 -23.140701
v -4.418351 -12.312691 -23.129013
v 15.634480 15.696842 -24.704041
v -4.418351 15.696842 -24.704041
v -4.418351 -12.312691 -24.704041
v 15.634480 -12.312691 -23.140701
v 15.634480 -12.312691 -24.704041
v 15.634480 15.696842 -23.140701
v 15.634480 15.696842 -24.704041
v 15.010996 -11.712730 -23.140701
v -3.794891 14.825970 -23.138397
v -3.794868 -11.441816 -23.129013
v 15.634480 -12.312691 -23.140701
v -4.418351 15.696842 -23.140701
v -4.418351 -12.312691 -23.129013
v 15.010996 14.825968 -23.140701
v -3.794891 14.825970 -23.138397
v 15.634480 15.696842 -23.140701
v -4.418351 15.696842 -23.140701
v 13.883436 15.696842 -23.140701
v 15.042284 14.869671 -23.140701
v 13.781028 15.696842 -23.140701
v -4.418351 15.696842 -23.140701
v -4.418351 15.696842 -24.704041
v -4.533979 -12.337703 -37.635544
v -4.761381 -12.337703 15.797855
v -4.533979 15.721867 -37.635544
v -4.761381 15.721867 15.479130
v 15.188422 15.724951 14.080482
v 8.499608 15.724951 14.080482
v 15.188422 15.724951 15.692352
v 8.499608 15.724951 15.692352
v 15.010859 14.825973 -24.521849
v -3.795005 14.825973 -24.521849
v 15.010859 14.825973 -27.266464
v -3.795013 14.825974 -27.265305
v 15.010859 -11.712726 -24.487745
v 15.010859 -11.712726 -27.301191
v 15.016148 14.877539 -25.891401
v -3.803194 14.877539 -25.891401
v 15.016148 14.877539 -24.718430
v -3.803194 14.877539 -24.790821
v -3.794983 14.825974 -24.518387
v -3.794983 -11.889468 -24.518387
v -3.794983 14.825974 -27.263000
v -3.794983 -11.889468 -27.261841
v 15.634389 15.696846 -27.265305
v -4.418443 15.696846 -27.265305
v -4.418443 -12.312687 -27.253616
v 15.634389 15.696846 -28.828644
v -4.418443 15.696846 -28.828644
v -4.418443 -12.312687 -28.828644
v 15.010904 -11.712727 -27.265305
v -3.794983 14.825974 -27.263000
v -3.794959 -11.441813 -27.253616
v 15.634389 -12.312687 -27.265305
v -4.418443 15.696846 -27.265305
v -4.418443 -12.312687 -27.253616
v 15.010904 14.825972 -27.265305
v -3.794983 14.825974 -27.263000
v 15.634389 15.696846 -27.265305
v -4.418443 15.696846 -27.265305
v 13.883345 15.696846 -27.265305
v 15.042192 14.869675 -27.265305
v 13.780936 15.696846 -27.265305
v 15.010904 14.825971 -28.837675
v -3.794959 14.825971 -28.837675
v 15.010904 14.825971 -31.620483
v -3.794968 14.825972 -31.619324
v 15.010904 -11.712728 -28.803572
v 15.010904 -11.712728 -31.617018
v 15.016193 14.877537 -30.042158
v -3.803148 14.877537 -30.042158
v 15.016193 14.877537 -28.869186
v -3.803148 14.877537 -28.941578
v -4.418443 15.696846 -27.265305
v -4.418443 15.696846 -28.828644
v -3.794937 14.825972 -28.834213
v -3.794937 -11.889470 -28.834213
v -3.794937 14.825972 -31.617020
v -3.794937 -11.889470 -31.615860
v 15.634435 15.696844 -31.619324
v -4.418397 15.696844 -31.619324
v -4.418397 -12.312689 -31.607635
v 15.634435 15.696844 -33.182663
v -4.418397 15.696844 -33.182663
v -4.418397 -12.312689 -33.182663
v 15.010950 -11.712729 -31.619324
v -3.794937 14.825972 -31.617020
v -3.794913 -11.441814 -31.607635
v 15.634435 -12.312689 -31.619324
v -4.418397 15.696844 -31.619324
v -4.418397 -12.312689 -31.607635
v 15.010950 14.825970 -31.619324
v -3.794937 14.825972 -31.617020
v 15.634435 15.696844 -31.619324
v -4.418397 15.696844 -31.619324
v 13.883390 15.696844 -31.619324
v 15.042238 14.869673 -31.619324
v 13.780982 15.696844 -31.619324
v 15.010950 14.825969 -33.191696
v -3.794913 14.825969 -33.191696
v 15.010950 14.825969 -35.974503
v -3.794922 14.825970 -35.973343
v 15.010950 -11.712729 -33.157593
v 15.010950 -11.712729 -35.971039
v 15.016239 14.877535 -34.396179
v -3.803102 14.877535 -34.396179
v 15.016239 14.877535 -33.223206
v -3.803102 14.877535 -33.295597
v -4.418397 15.696844 -31.619324
v -4.418397 15.696844 -33.182663
v -3.794891 14.825970 -33.188232
v -3.794891 -11.889472 -33.188232
v -3.794891 14.825970 -35.971039
v -3.794891 -11.889472 -35.969879
v 15.634480 15.696842 -35.973343
v -4.418351 15.696842 -35.973343
v -4.418351 -12.312691 -35.961655
v 15.634480 15.696842 -37.536682
v -4.418351 15.696842 -37.536682
v -4.418351 -12.312691 -37.536682
v 15.634480 -12.312691 -35.973343
v 15.634480 -12.312691 -37.536682
v 15.634480 15.696842 -35.973343
v 15.634480 15.696842 -37.536682
v 15.010996 -11.712730 -35.973343
v -3.794891 14.825970 -35.971039
v -3.794868 -11.441816 -35.961655
v 15.634480 -12.312691 -35.973343
v -4.418351 15.696842 -35.973343
v -4.418351 -12.312691 -35.961655
v 15.010996 14.825968 -35.973343
v -3.794891 14.825970 -35.971039
v 15.634480 15.696842 -35.973343
v -4.418351 15.696842 -35.973343
v 13.883436 15.696842 -35.973343
v 15.042284 14.869671 -35.973343
v 13.781028 15.696842 -35.973343
v -4.418351 15.696842 -35.973343
v -4.418351 15.696842 -37.536682
v 15.010859 14.825974 7.305344
v 13.780890 15.696848 7.305344
v 15.010859 14.825974 2.947205
v 13.780890 15.696848 2.947205
v 15.010859 14.825974 -1.407974
v 13.780890 15.696848 -1.407974
v 15.010859 14.825974 -5.766861
v 13.780890 15.696848 -5.776245
v 15.010859 14.825974 -10.080856
v 13.780890 15.696848 -10.062866
v 15.010904 14.825972 -14.432663
v 13.780936 15.696846 -14.432663
v 15.010950 14.825970 -18.786682
v 13.780982 15.696844 -18.786682
v 15.010996 14.825968 -23.140701
v 13.781028 15.696842 -23.140701
v 15.634603 15.696879 11.559250
v -4.418229 15.696879 11.559250
v -4.418229 -12.312654 11.570938
v 15.260177 15.696879 9.995911
v -4.043915 15.696879 9.995911
v -4.043915 -12.312653 9.995911
v 15.634603 -12.312654 11.559250
v 15.260177 -12.312653 9.995911
v 15.634603 15.696879 11.559250
v 15.260177 15.696879 9.995911
v 15.011118 -11.712693 11.559250
v -3.794769 14.826007 11.561554
v -3.794745 -11.441779 11.570938
v 15.634603 -12.312654 11.559250
v -4.418229 15.696879 11.559250
v -4.418229 -12.312654 11.570938
v 15.011118 14.826005 11.559250
v -3.794769 14.826007 11.561554
v 15.634603 15.696879 11.559250
v -4.418229 15.696879 11.559250
v 13.883558 15.696879 11.559250
v 15.042406 14.869708 11.559250
v 13.781150 15.696879 11.559250
v 12.029408 15.178969 13.560259
v 10.960951 15.178969 13.560259
v 12.029408 15.178969 14.428238
v 10.960951 15.178969 14.355847
v 6.427753 15.178969 13.560259
v 5.359297 15.178969 13.560259
v 6.427753 15.178969 14.428238
v 5.359297 15.178969 14.355847
v 0.526951 15.178969 13.560259
v -0.541506 15.178969 13.560259
v 0.526951 15.178969 14.428238
v -0.541506 15.178969 14.355847
v 15.016407 14.877570 13.023424
v -3.802935 14.877570 13.023424
v 15.001072 14.877570 14.196396
v -3.802935 14.877570 14.124005
v -4.418229 15.696879 11.559250
v -4.043915 15.696879 9.995911
v -3.794739 14.826005 14.345520
v -3.794739 -11.889437 14.345520
v -3.794739 14.826005 11.562714
v -3.794739 -11.889452 11.565018
v -4.058594 10.979674 13.559616
v -4.058594 9.911223 13.559616
v -4.058594 10.979674 14.427597
v -4.058594 9.911223 14.355209
v -4.058594 -6.578977 13.559616
v -4.058594 -7.647428 13.559616
v -4.058594 -6.578977 14.427597
v -4.058594 -7.647428 14.355209
v -4.058594 1.990530 13.559616
v -4.058594 0.922079 13.559616
v -4.058594 1.990530 14.427597
v -4.058594 0.922079 14.355209
v 15.011118 14.826005 11.559250
v 13.781150 15.696879 11.559250
v 13.596614 14.829971 -36.493713
v 13.454564 14.829971 -36.493713
v 13.596614 14.829971 14.956512
v 13.454564 14.829971 14.884121
v 9.803493 14.829971 -36.493713
v 9.661443 14.829971 -36.493713
v 9.803493 14.829971 10.129028
v 9.661443 14.829971 10.056637
v 8.032969 14.829971 -36.493713
v 7.890920 14.829971 -36.493713
v 8.032969 14.829971 10.129028
v 7.890920 14.829971 10.056637
v 4.190120 14.829971 -36.493713
v 4.048070 14.829971 -36.493713
v 4.190120 14.829971 14.956512
v 4.048070 14.829971 14.884121
v 2.302394 14.829971 -36.493713
v 2.160344 14.829971 -36.493713
v 2.302394 14.829971 14.956512
v 2.160344 14.829971 14.884121
v -2.046926 14.875191 -36.493713
v -2.188975 14.875191 -36.493713
v -2.046926 14.875191 7.068823
v -2.188975 14.875191 6.996431
v 8.366594 15.724951 14.905281
v -1.070069 15.724951 14.905281
v 8.366594 15.724951 15.692352
v -1.070068 15.724951 15.692352
v 14.649815 -11.331636 15.689465
v -3.299648 -11.334654 15.689465
v -3.794996 10.990664 7.305840
v -3.794996 10.969378 10.088150
v -3.281310 14.715551 15.066945
v -3.280178 -11.334654 15.053025
v -3.281310 14.715549 14.741612
v -3.280178 -11.334654 15.053025
v 9.803493 14.887177 11.347411
v 9.661443 14.887177 11.347411
v 9.803493 14.887177 14.085517
v 9.661443 14.887177 14.082033
v 8.032969 14.887177 11.347411
v 7.890920 14.887177 11.347411
v 8.032969 14.887177 14.085517
v 7.890920 14.887177 14.082033
v 11.005397 14.887177 11.347411
v 6.367742 14.887177 11.347411
v 11.005397 14.887177 14.085517
v 6.367742 14.887177 14.082033
v 11.555710 14.877570 14.179259
v 11.574990 14.877571 13.023424
v 5.467773 14.877571 14.164936
v 5.467773 14.877571 13.023424
v 10.890032 14.887177 11.650879
v 6.483102 14.887177 11.650879
v 10.890032 14.887177 13.934108
v 6.483102 14.887177 13.931293
v -2.046926 14.875191 10.258225
v -2.188975 14.875191 10.185834
v -2.046926 14.875191 14.263007
v -2.188975 14.875191 14.190616
v -2.046926 14.875191 7.068823
v -2.188975 14.875191 6.996431
v -2.046926 14.875191 10.258225
v -2.188975 14.875191 10.185834
v 13.663242 -11.331786 15.053025
v 13.771133 -11.331764 15.053025
v 14.640293 -11.331638 15.689465
v 5.606968 14.825975 10.033070
v -0.134457 14.825974 10.033070
v 5.606968 14.825975 7.250263
v -0.134464 14.825975 7.252565
vt 1.026436 1.000000
vt 0.949498 0.963700
vt 0.056530 0.964136
vt 0.950099 0.035855
vt 0.056587 0.035747
vt 0.026435 0.936825
vt 1.026436 0.936825
vt 0.026435 0.936825
vt 1.026436 0.936825
vt 0.000000 0.936825
vt 1.000000 0.936825
vt 0.000000 0.936825
vt 1.000000 0.936825
vt 0.000000 0.936825
vt 1.000000 0.936825
vt 0.000000 0.936825
vt 1.000000 0.936825
vt 0.000000 0.936825
vt 1.000000 0.936825
vt 0.000000 0.936825
vt 1.000000 0.936825
vt 0.000000 0.936825
vt 1.000000 0.936825
vt 0.000000 0.936825
vt 1.000000 0.936825
vt 0.026435 0.999642
vt 1.026436 0.998882
vt 0.026435 0.998882
vt 0.949498 0.963700
vt 0.950099 0.035855
vt 0.056587 0.035747
vt 0.056530 0.964136
vt 0.000000 0.936825
vt 1.000000 0.936825
vt 0.000000 0.999642
vt 1.000000 0.998882
vt 0.087322 0.936825
vt 1.000000 0.936825
vt 0.000000 0.936825
vt 0.092428 0.936825
vt 0.026435 0.936825
vt 0.026435 0.999642
vt 0.000000 0.936825
vt 0.000000 0.936825
vt -0.024798 0.996839
vt 2.009677 0.004411
vt 2.009677 1.000005
vt -0.024798 0.000005
vt 2.009677 1.000001
vt 0.022958 0.000001
vt 2.009677 0.000001
vt 0.022958 1.000001
vt 1.000000 0.998882
vt 0.000000 0.016517
vt 1.000000 0.016517
vt 0.000000 0.999642
vt 0.267274 0.000637
vt 0.268895 0.997296
vt -0.447273 0.988364
vt 1.476288 0.988364
vt 1.476289 0.011733
vt -0.447273 0.011733
vt 1.000000 0.998882
vt 0.000000 0.936825
vt 1.000000 0.936825
vt 0.000000 0.999642
vt 1.000000 0.998882
vt 0.000000 0.936825
vt 1.000000 0.936825
vt 0.000000 0.999642
vt 0.236717 0.999462
vt 0.236314 0.936825
vt 0.434574 0.999312
vt 0.428167 0.936825
vt 0.000000 0.936825
vt 1.000000 0.936825
vt 0.000000 0.999642
vt 1.000000 0.998882
vt 0.000000 0.999642
vt 1.000000 0.998882
vt 0.000000 0.999642
vt 1.000000 0.998882
vt 0.900988 0.035849
vt 0.906359 0.035849
vt 0.949625 0.035855
vn -0.977200 0.000000 -0.212321
vn 0.976329 -0.000253 -0.216290
vn -0.739509 0.653689 -0.160677
vn 0.739513 0.653675 -0.160718
vn -1.000000 -0.000464 0.000000
vn 1.000000 0.000043 -0.000000
vn 1.000000 0.000043 0.000000
vn -0.000167 1.000000 0.000030
vn -1.000000 -0.000464 0.000000
vn 1.000000 0.000043 -0.000000
vn -0.000169 1.000000 0.000000
vn -0.000145 1.000000 0.000000
vn 0.000000 1.000000 0.000000
vn 0.000000 1.000000 0.000000
vn -0.977200 0.000000 -0.212321
vn 0.005383 -0.000122 0.999985
vn 0.000000 0.000000 1.000000
vn 0.005436 -0.000124 0.999985
vn 0.000000 1.000000 0.000000
vn 0.000000 1.000000 0.000000
vn -0.972628 0.000000 -0.232370
vn 0.000000 1.000000 0.000000
vn 0.000000 1.000000 0.000000
vn -0.972628 0.000000 -0.232370
vn 0.000000 1.000000 0.000000
vn 0.000000 1.000000 0.000000
vn -0.972901 -0.000096 -0.231221
vn 0.000000 1.000000 0.000000
vn 0.000000 1.000000 0.000000
vn -0.972887 -0.000093 -0.231281
vn 0.000000 1.000000 0.000000
vn 0.000000 1.000000 0.000000
vn -0.972511 0.000000 -0.232857
vn 0.000000 1.000000 0.000000
vn 0.000000 1.000000 0.000000
vn -0.972511 0.000000 -0.232857
vn 0.000000 1.000000 0.000000
vn 0.000000 1.000000 0.000000
vn -0.972511 0.000000 -0.232857
vn 0.000000 1.000000 0.000000
vn 0.000000 1.000000 0.000000
vn -0.972511 0.000000 -0.232857
vn -1.000000 -0.000464 0.000000
vn 1.000000 0.000043 -0.000000
vn 0.000000 0.000000 1.000000
vn 0.000000 0.000000 1.000000
vn 0.000079 -0.000002 1.000000
vn 0.000000 0.000000 1.000000
vn 1.000000 0.000000 0.000000
vn -1.000000 0.000000 0.000000
vn 1.000000 0.000000 0.000000
vn -1.000000 0.000000 0.000000
vn 0.000000 1.000000 0.000000
vn 0.000000 1.000000 0.000000
vn 0.000000 1.000000 0.000000
vn 0.000000 1.000000 0.000000
vn 1.000000 0.000000 0.000000
vn 1.000000 0.000000 0.000000
vn -1.000000 0.000000 0.000000
vn -1.000000 0.000000 0.000000
vn 1.000000 0.000000 0.000000
vn -1.000000 0.000000 0.000000
vn 1.000000 0.000000 0.000000
vn -1.000000 0.000000 0.000000
vn 0.000000 1.000000 0.000000
vn 0.000000 1.000000 0.000000
vn 0.000000 1.000000 0.000000
vn 0.000000 1.000000 0.000000
vn 1.000000 0.000000 0.000000
vn 1.000000 0.000000 0.000000
vn -1.000000 0.000000 0.000000
vn -1.000000 0.000000 0.000000
vn 1.000000 0.000000 0.000000
vn -1.000000 0.000000 0.000000
vn 1.000000 0.000000 0.000000
vn -1.000000 0.000000 0.000000
vn 0.000000 1.000000 0.000000
vn 0.000000 1.000000 0.000000
vn 0.000000 1.000000 0.000000
vn 0.000000 1.000000 0.000000
vn 1.000000 0.000000 0.000000
vn 1.000000 0.000000 0.000000
vn -1.000000 0.000000 0.000000
vn -1.000000 0.000000 0.000000
vn 0.000000 0.000000 1.000000
vn 0.000000 0.000000 1.000000
vn 0.000000 0.000000 1.000000
vn 0.976293 -0.000263 -0.216454
vn 0.972498 0.000029 -0.232911
vn 0.972502 0.000028 -0.232893
vn 0.972498 0.000000 -0.232911
vn 0.972498 0.000000 -0.232911
vn 0.972498 0.000000 -0.232911
vn 0.972498 0.000000 -0.232911
vn 0.972498 0.000000 -0.232911
vn 0.972498 0.000000 -0.232911
vn 0.972498 0.000000 -0.232911
vn 0.972498 0.000000 -0.232911
vn 0.977154 -0.000010 -0.212532
vn 0.972610 0.000001 -0.232442
vn 0.972615 0.000000 -0.232424
vn 0.972498 0.000000 -0.232911
vn 0.972498 0.000000 -0.232911
vn 0.972498 0.000000 -0.232911
vn 0.972498 0.000000 -0.232911
vn 0.972498 0.000000 -0.232911
vn 0.972498 0.000000 -0.232911
vn 0.972498 0.000000 -0.232911
vn 0.972498 0.000000 -0.232911
vn 0.000000 0.000000 1.000000
vn -0.003089 0.000417 0.999995
vn -0.000499 0.000357 1.000000
vn 0.000000 0.000000 1.000000
vn -0.003113 0.000417 0.999995
vn -0.000596 0.000359 1.000000
vn 0.000009 0.000199 1.000000
vn 0.000123 0.002733 0.999996
vn 0.000000 0.000000 1.000000
vn 0.000117 0.002604 0.999997
vn 0.000000 0.000000 1.000000
vn 0.000000 0.000000 1.000000
vn 0.000000 0.000000 1.000000
vn -0.000759 0.000017 1.000000
vn -0.001842 -0.000000 0.999998
vn 0.000062 -0.000044 1.000000
vn -0.000766 0.000017 1.000000
vn -0.001860 0.000000 0.999998
vn -0.000009 -0.000043 1.000000
vn 0.000004 0.000100 1.000000
vn 0.000062 0.001376 0.999999
vn -0.000011 0.000000 1.000000
vn 0.000059 0.001311 0.999999
vn 0.000000 0.000000 1.000000
vn 0.000000 0.000000 1.000000
vn 0.000000 0.000000 1.000000
vn 0.054688 0.000511 0.998503
vn -0.009285 -0.000002 0.999957
vn 0.000311 -0.000222 1.000000
vn 0.055098 0.000502 0.998481
vn -0.009373 0.000000 0.999956
vn -0.000047 -0.000214 1.000000
vn -0.000014 0.010470 0.999945
vn -0.000188 0.006576 0.999978
vn 0.006069 0.007414 0.999954
vn -0.000179 0.006774 0.999977
vn -0.000064 0.010804 0.999942
vn 0.004009 0.004521 0.999982
vn 0.000000 0.010775 0.999942
vn -0.000290 0.000007 1.000000
vn 0.026731 0.000006 0.999643
vn -0.000895 0.000641 0.999999
vn 0.000000 0.000000 1.000000
vn 0.026985 0.000000 0.999636
vn 0.000136 0.000617 1.000000
vn 0.000004 -0.020553 0.999789
vn 0.000062 -0.019278 0.999814
vn -0.011955 -0.012872 0.999846
vn 0.000059 -0.019343 0.999813
vn 0.000123 -0.020709 0.999786
vn -0.010114 -0.006926 0.999925
vn 0.000000 -0.020653 0.999787
vn 0.707396 0.706818 0.000000
vn 0.000000 1.000000 0.000000
vn 0.707105 0.707108 0.000000
vn 0.000000 1.000000 0.000000
vn 1.000000 0.000000 0.000000
vn 1.000000 0.000000 0.000000
vn 0.707396 0.706818 0.000000
vn 0.000000 1.000000 0.000000
vn 0.707091 0.707122 0.000000
vn 0.000000 1.000000 0.000000
vn 1.000000 0.000000 0.000000
vn 1.000000 0.000000 0.000000
vn 0.707396 0.706818 0.000000
vn 0.000000 1.000000 0.000001
vn 0.706995 0.707218 0.000000
vn 0.000000 1.000000 0.000001
vn -0.000622 0.000446 1.000000
vn 0.000000 1.000000 0.000000
vn 0.000000 1.000000 0.000000
vn -0.972628 0.000000 -0.232370
vn 0.000000 1.000000 0.000000
vn 0.000000 1.000000 0.000000
vn -0.972628 0.000000 -0.232370
vn 1.000000 0.000000 0.000000
vn 1.000000 0.000000 0.000000
vn 0.707396 0.706818 0.000000
vn 0.000000 1.000000 0.000000
vn 0.707396 0.706817 0.000000
vn 0.000000 1.000000 0.000000
vn 1.000000 0.000000 0.000000
vn 1.000000 0.000000 0.000000
vn 0.707396 0.706818 0.000000
vn 0.000000 1.000000 0.000000
vn 0.707415 0.706798 0.000000
vn 0.000000 1.000000 0.000000
vn 1.000000 0.000000 0.000000
vn 1.000000 0.000000 0.000000
vn 0.000000 1.000000 0.000000
vn 0.000000 1.000000 0.000000
vn 0.000000 1.000000 0.000000
vn 0.000000 1.000000 0.000000
vn 0.000000 1.000000 0.000000
vn 0.000000 1.000000 0.000000
vn 0.000000 1.000000 0.000000
vn 0.000000 1.000000 0.000000
vn 0.000000 1.000000 0.000000
vn 0.000000 1.000000 0.000000
vn 0.000000 1.000000 0.000000
vn 0.000000 1.000000 0.000000
vn 0.000000 1.000000 0.000000
vn 0.000000 1.000000 0.000000
vn 0.000000 1.000000 0.000000
vn 0.000000 1.000000 0.000000
vn 0.000000 1.000000 0.000000
vn 0.000000 1.000000 0.000000
vn 0.000000 1.000000 0.000000
vn 0.000000 1.000000 0.000000
vn 0.000000 1.000000 0.000000
vn 0.000000 1.000000 0.000000
vn 0.000000 1.000000 0.000000
vn 0.000000 1.000000 0.000000
vn 0.000000 1.000000 0.000000
vn 0.000000 1.000000 0.000000
vn 0.000000 1.000000 0.000000
vn 0.000000 1.000000 0.000000
vn 0.000000 1.000000 0.000000
vn 0.000000 1.000000 0.000000
vn 0.000000 1.000000 0.000000
vn 0.000000 1.000000 0.000000
vn 0.000000 1.000000 0.000000
vn 0.000000 1.000000 0.000000
vn 0.000000 1.000000 0.000000
vn 0.000000 1.000000 0.000000
vn 0.000000 1.000000 0.000000
vn 0.000000 1.000000 0.000000
vn 0.000000 1.000000 0.000000
vn 0.000000 1.000000 0.000000
vn 0.000000 1.000000 0.000000
vn 0.000000 1.000000 0.000000
vn 0.000000 1.000000 0.000000
vn 0.000000 1.000000 0.000000
vn 0.000000 1.000000 0.000000
vn 0.000000 1.000000 0.000000
vn 0.000000 1.000000 0.000000
vn 0.000000 1.000000 0.000000
vn 0.000000 1.000000 0.000000
vn 0.000000 1.000000 0.000000
vn 0.000000 1.000000 0.000000
vn 0.000000 1.000000 0.000000
vn 0.000000 1.000000 0.000000
vn 0.000000 1.000000 0.000000
vn 0.000000 1.000000 0.000000
vn 0.000000 1.000000 0.000000
vn 0.000000 1.000000 0.000000
vn 0.000000 1.000000 0.000000
vn 0.000000 1.000000 0.000000
vn 0.000000 1.000000 0.000000
vn 0.000000 1.000000 0.000000
vn 0.000000 1.000000 0.000000
vn 0.000000 1.000000 0.000000
vn 0.000000 1.000000 0.000000
vn 0.000000 1.000000 0.000000
vn 0.000000 1.000000 0.000000
vn 0.000000 1.000000 0.000000
vn 0.000000 1.000000 0.000000
vn 0.000000 1.000000 0.000000
vn 0.000000 1.000000 0.000000
vn 0.000000 1.000000 0.000000
vn 0.000000 1.000000 0.000000
vn 0.000000 1.000000 0.000000
vn 0.000000 1.000000 0.000000
vn 0.000000 1.000000 0.000000
vn 0.000000 1.000000 0.000000
vn 0.000000 1.000000 0.000000
vn 0.000000 1.000000 0.000000
vn 0.000000 1.000000 0.000000
vn 0.000000 1.000000 0.000000
vn 0.000000 1.000000 0.000000
vn 0.000000 1.000000 0.000000
vn 0.000000 1.000000 0.000000
vn 0.000000 1.000000 0.000000
vn 0.000000 1.000000 0.000000
vn 0.000000 1.000000 0.000000
vn 0.000000 1.000000 0.000000
vn 0.000000 1.000000 0.000000
vn 0.000000 1.000000 0.000000
vn 0.000000 1.000000 0.000000
vn 0.000000 1.000000 0.000000
vn 0.000000 1.000000 0.000000
vn 0.000000 1.000000 0.000000
vn 0.000000 1.000000 0.000000
vn 0.000000 1.000000 0.000000
vn 0.000000 1.000000 0.000000
vn -0.977200 0.000000 -0.212321
vn 0.000000 0.000000 1.000000
vn -0.972628 0.000000 -0.232370
vn -0.972628 0.000000 -0.232370
vn -0.972525 -0.000004 -0.232797
vn -0.972511 0.000000 -0.232857
vn -0.972511 0.000000 -0.232857
vn -0.972511 0.000000 -0.232857
vn -0.972511 0.000000 -0.232857
vn -0.972511 0.000000 -0.232857
vn 0.018591 0.000004 0.999827
vn -0.972628 0.000000 -0.232370
vn -0.972628 0.000000 -0.232370
vn 0.000000 0.000000 1.000000
vn 0.000095 0.000429 1.000000
vn 0.000000 0.000000 1.000000
vn 0.018768 0.000000 0.999824
vn -1.000000 -0.000001 0.000000
vn -1.000000 -0.000001 -0.000000
vn -1.000000 0.000000 0.000000
vn -1.000000 0.000000 0.000000
vn -1.000000 0.000000 0.000000
vn -1.000000 0.000000 0.000000
vn -1.000000 0.000000 0.000000
vn -1.000000 0.000000 0.000000
vn -1.000000 0.000000 0.000000
vn -1.000000 0.000000 0.000000
vn -1.000000 -0.000000 0.000000
vn -1.000000 -0.000001 0.000005
vn -1.000000 0.000000 0.000000
vn -1.000000 -0.000001 0.000005
vn -1.000000 0.000000 0.000000
vn -1.000000 0.000000 0.000000
vn -1.000000 0.000000 0.000000
vn -1.000000 0.000000 0.000000
vn -1.000000 0.000000 0.000000
vn -1.000000 0.000000 0.000000
vn -1.000000 0.000000 0.000000
vn -1.000000 0.000000 0.000000
vn 0.000000 1.000000 0.000000
vn 0.000000 -1.000000 0.000000
vn 0.000000 1.000000 0.000000
vn 0.000000 -1.000000 0.000000
vn -1.000000 0.000000 0.000000
vn -1.000000 0.000000 0.000000
vn -1.000000 0.000000 0.000000
vn -1.000000 0.000000 0.000000
vn 0.000000 1.000000 0.000000
vn 0.000000 1.000000 0.000000
vn 0.000000 -1.000000 0.000000
vn 0.000000 -1.000000 0.000000
vn -1.000000 0.000000 0.000000
vn -1.000000 0.000000 0.000000
vn -1.000000 0.000000 0.000000
vn -1.000000 0.000000 0.000000
vn -1.000000 0.000000 0.000000
vn -1.000000 0.000000 0.000000
vn -1.000000 0.000000 0.000000
vn -1.000000 0.000000 0.000000
vn -1.000000 0.000000 0.000000
vn -1.000000 0.000000 0.000000
vn -1.000000 0.000000 0.000000
vn -1.000000 0.000000 0.000000
vn -1.000000 0.000000 0.000000
vn -1.000000 0.000000 0.000000
vn -1.000000 0.000000 0.000000
vn -1.000000 0.000000 0.000000
vn -1.000000 0.000000 0.000000
vn -1.000000 0.000000 0.000000
vn -1.000000 0.000000 0.000000
vn -1.000000 0.000000 0.000000
vn -1.000000 0.000000 0.000000
vn -1.000000 0.000000 0.000000
vn -1.000000 0.000000 0.000000
vn -1.000000 0.000000 0.000000
vn 0.000000 1.000000 0.000000
vn 0.000000 -1.000000 0.000000
vn 0.000000 1.000000 0.000000
vn 0.000000 -1.000000 0.000000
vn -1.000000 0.000000 0.000000
vn -1.000000 0.000000 0.000000
vn -1.000000 0.000000 0.000000
vn -1.000000 0.000000 0.000000
vn 0.000000 1.000000 0.000000
vn 0.000000 1.000000 0.000000
vn 0.000000 -1.000000 0.000000
vn 0.000000 -1.000000 0.000000
vn -1.000000 0.000000 0.000000
vn -1.000000 0.000000 0.000000
vn -1.000000 0.000000 0.000000
vn -1.000000 0.000000 0.000000
vn -1.000000 0.000000 0.000000
vn -1.000000 0.000000 0.000000
vn -1.000000 0.000000 0.000000
vn -1.000000 0.000000 0.000000
vn -1.000000 0.000000 0.000000
vn -1.000000 0.000000 0.000000
vn -1.000000 0.000000 0.000000
vn -1.000000 0.000000 0.000000
vn -1.000000 0.000000 0.000000
vn -1.000000 0.000000 0.000000
vn -1.000000 0.000000 0.000000
vn -1.000000 0.000000 0.000000
vn -1.000000 0.000000 0.000000
vn -1.000000 0.000000 0.000000
vn -1.000000 0.000000 0.000000
vn -1.000000 0.000000 0.000000
vn -1.000000 0.000000 0.000000
vn -1.000000 0.000000 0.000000
vn -1.000000 0.000000 0.000000
vn -1.000000 0.000000 0.000000
vn 0.000000 1.000000 0.000000
vn 0.000000 -1.000000 0.000000
vn 0.000000 1.000000 0.000000
vn 0.000000 -1.000000 0.000000
vn -1.000000 0.000000 0.000000
vn -1.000000 0.000000 0.000000
vn -1.000000 0.000000 0.000000
vn -1.000000 0.000000 0.000000
vn 0.000000 1.000000 0.000000
vn 0.000000 1.000000 0.000000
vn 0.000000 -1.000000 0.000000
vn 0.000000 -1.000000 0.000000
vn -1.000000 0.000000 0.000000
vn -1.000000 0.000000 0.000000
vn -1.000000 0.000000 0.000000
vn -1.000000 0.000000 0.000000
vn -1.000000 0.000000 0.000000
vn -1.000000 0.000000 0.000000
vn -1.000000 0.000000 0.000000
vn -1.000000 0.000000 0.000000
vn -1.000000 0.000000 0.000000
vn -1.000000 0.000000 0.000000
vn -1.000000 0.000000 0.000000
vn -1.000000 0.000000 0.000000
vn -1.000000 0.000000 0.000000
vn -1.000000 0.000000 0.000000
vn -1.000000 0.000000 0.000000
vn -1.000000 0.000000 0.000000
vn -1.000000 0.000000 0.000000
vn -1.000000 0.000000 0.000000
vn -1.000000 0.000000 0.000000
vn -1.000000 0.000000 0.000000
vn -1.000000 0.000000 0.000000
vn -1.000000 0.000000 0.000000
vn -1.000000 0.000000 0.000000
vn -1.000000 0.000000 0.000000
vn 0.000000 1.000000 0.000000
vn 0.000000 1.000000 0.000000
vn -0.972901 -0.000096 -0.231220
vn 0.000000 1.000000 0.000000
vn 0.000000 1.000000 0.000000
vn -0.972887 -0.000093 -0.231280
vn 0.972498 0.000000 -0.232912
vn 0.972498 0.000000 -0.232912
vn 0.972498 0.000000 -0.232912
vn 0.972498 0.000000 -0.232912
vn 0.000000 0.000000 1.000000
vn -0.003089 0.000417 0.999995
vn -0.000499 0.000357 1.000000
vn 0.000000 0.000000 1.000000
vn -0.003113 0.000417 0.999995
vn -0.000596 0.000359 1.000000
vn 0.000009 0.000199 1.000000
vn 0.000123 0.002733 0.999996
vn 0.000000 0.000000 1.000000
vn 0.000117 0.002604 0.999997
vn 0.000000 0.000000 1.000000
vn 0.000000 0.000000 1.000000
vn 0.000000 0.000000 1.000000
vn 0.707396 0.706818 0.000000
vn 0.000000 1.000000 0.000000
vn 0.707091 0.707122 0.000000
vn 0.000000 1.000000 0.000000
vn 1.000000 0.000000 0.000000
vn 1.000000 0.000000 0.000000
vn 0.000000 1.000000 0.000000
vn 0.000000 1.000000 0.000000
vn 0.000000 1.000000 0.000000
vn 0.000000 1.000000 0.000000
vn -0.972526 -0.000004 -0.232796
vn -0.972511 0.000000 -0.232856
vn -1.000000 0.000000 0.000000
vn -1.000000 0.000000 0.000000
vn -1.000000 0.000000 0.000000
vn -1.000000 0.000000 0.000000
vn 0.000000 1.000000 0.000000
vn 0.000000 1.000000 0.000000
vn -0.972902 -0.000096 -0.231219
vn 0.000000 1.000000 0.000000
vn 0.000000 1.000000 0.000000
vn -0.972888 -0.000093 -0.231279
vn 0.972497 0.000000 -0.232913
vn 0.972498 -0.000000 -0.232913
vn 0.972498 -0.000000 -0.232913
vn 0.972498 -0.000000 -0.232913
vn 0.000000 0.000000 1.000000
vn -0.003089 0.000417 0.999995
vn -0.000499 0.000357 1.000000
vn 0.000000 0.000000 1.000000
vn -0.003113 0.000417 0.999995
vn -0.000596 0.000359 1.000000
vn 0.000009 0.000199 1.000000
vn 0.000123 0.002733 0.999996
vn 0.000000 0.000000 1.000000
vn 0.000117 0.002604 0.999997
vn 0.000000 0.000000 1.000000
vn 0.000000 0.000000 1.000000
vn 0.000000 0.000000 1.000000
vn 0.707396 0.706818 0.000000
vn 0.000000 1.000000 0.000000
vn 0.707091 0.707122 0.000000
vn 0.000000 1.000000 0.000000
vn 1.000000 0.000000 0.000000
vn 1.000000 0.000000 0.000000
vn 0.000000 1.000000 0.000000
vn 0.000000 1.000000 0.000000
vn 0.000000 1.000000 0.000000
vn 0.000000 1.000000 0.000000
vn -0.972526 -0.000004 -0.232794
vn -0.972512 0.000000 -0.232855
vn -1.000000 0.000000 0.000000
vn -1.000000 0.000000 0.000000
vn -1.000000 0.000000 0.000000
vn -1.000000 0.000000 0.000000
vn 0.000000 1.000000 0.000000
vn 0.000000 1.000000 0.000000
vn -1.000000 0.000000 0.000000
vn 0.000000 1.000000 0.000000
vn 0.000000 1.000000 0.000000
vn -1.000000 0.000000 0.000000
vn 1.000000 0.000000 0.000000
vn 1.000000 0.000000 0.000000
vn 1.000000 0.000000 0.000000
vn 1.000000 0.000000 0.000000
vn 0.000000 0.000000 1.000000
vn -0.003089 0.000417 0.999995
vn -0.000499 0.000357 1.000000
vn 0.000000 0.000000 1.000000
vn -0.003113 0.000417 0.999995
vn -0.000596 0.000359 1.000000
vn 0.000009 0.000199 1.000000
vn 0.000123 0.002733 0.999996
vn 0.000000 0.000000 1.000000
vn 0.000117 0.002604 0.999997
vn 0.000000 0.000000 1.000000
vn 0.000000 0.000000 1.000000
vn 0.000000 0.000000 1.000000
vn -1.000000 0.000000 0.000000
vn -1.000000 0.000000 0.000000
vn -0.999991 0.000000 -0.004256
vn -0.999991 -0.000034 -0.004273
vn -0.999991 -0.000015 -0.004264
vn -0.999991 -0.000049 -0.004281
vn 0.000000 1.000000 0.000000
vn 0.000000 1.000000 0.000000
vn 0.000000 1.000000 0.000000
vn 0.000000 1.000000 0.000000
vn 0.707396 0.706818 0.000000
vn 0.000000 1.000000 0.000000
vn 0.707415 0.706798 0.000000
vn 0.000000 1.000000 0.000000
vn 1.000000 0.000000 0.000000
vn 1.000000 0.000000 0.000000
vn 0.000000 1.000000 0.000000
vn 0.000000 1.000000 0.000000
vn 0.000000 1.000000 0.000000
vn 0.000000 1.000000 0.000000
vn -1.000000 0.000000 0.000000
vn -1.000000 0.000000 0.000000
vn -1.000000 0.000000 0.000000
vn -1.000000 0.000000 0.000000
vn 0.000000 1.000000 0.000000
vn 0.000000 1.000000 0.000000
vn -1.000000 0.000000 0.000000
vn 0.000000 1.000000 0.000000
vn 0.000000 1.000000 0.000000
vn -1.000000 0.000000 0.000000
vn 0.000000 0.000000 1.000000
vn -0.003089 0.000417 0.999995
vn -0.000499 0.000357 1.000000
vn 0.000000 0.000000 1.000000
vn -0.003113 0.000417 0.999995
vn -0.000596 0.000359 1.000000
vn 0.000001 0.000026 1.000000
vn 0.000123 0.002733 0.999996
vn 0.000000 0.000000 1.000000
vn 0.000117 0.002604 0.999997
vn 0.000000 0.000000 1.000000
vn 0.000000 0.000000 1.000000
vn 0.000000 0.000000 1.000000
vn 0.707396 0.706818 0.000000
vn 0.000000 1.000000 0.000000
vn 0.707091 0.707122 0.000000
vn 0.000000 1.000000 0.000000
vn 1.000000 0.000000 0.000000
vn 1.000000 0.000000 0.000000
vn 0.000000 1.000000 0.000000
vn 0.000000 1.000000 0.000000
vn 0.000000 1.000000 0.000000
vn 0.000000 1.000000 0.000000
vn -1.000000 0.000000 0.000000
vn -1.000000 0.000000 0.000000
vn -1.000000 0.000000 0.000000
vn -1.000000 0.000000 0.000000
vn -1.000000 0.000000 0.000000
vn -1.000000 0.000000 0.000000
vn 0.000000 1.000000 0.000000
vn 0.000000 1.000000 0.000000
vn -1.000000 0.000000 0.000000
vn 0.000000 1.000000 0.000000
vn 0.000000 1.000000 0.000000
vn -1.000000 0.000000 0.000000
vn 0.000000 0.000000 1.000000
vn -0.003089 0.000417 0.999995
vn -0.000499 0.000357 1.000000
vn 0.000000 0.000000 1.000000
vn -0.003113 0.000417 0.999995
vn -0.000596 0.000359 1.000000
vn 0.000001 0.000026 1.000000
vn 0.000123 0.002733 0.999996
vn 0.000000 0.000000 1.000000
vn 0.000117 0.002604 0.999997
vn 0.000000 0.000000 1.000000
vn 0.000000 0.000000 1.000000
vn 0.000000 0.000000 1.000000
vn 0.707396 0.706818 0.000000
vn 0.000000 1.000000 0.000000
vn 0.707091 0.707122 0.000000
vn 0.000000 1.000000 0.000000
vn 1.000000 0.000000 0.000000
vn 1.000000 0.000000 0.000000
vn 0.000000 1.000000 0.000000
vn 0.000000 1.000000 0.000000
vn 0.000000 1.000000 0.000000
vn 0.000000 1.000000 0.000000
vn -1.000000 0.000000 0.000000
vn -1.000000 0.000000 0.000000
vn -1.000000 0.000000 0.000000
vn -1.000000 0.000000 0.000000
vn -1.000000 0.000000 0.000000
vn -1.000000 0.000000 0.000000
vn 0.000000 1.000000 0.000000
vn 0.000000 1.000000 0.000000
vn -1.000000 0.000000 0.000000
vn 0.000000 1.000000 0.000000
vn 0.000000 1.000000 0.000000
vn -1.000000 0.000000 0.000000
vn 1.000000 0.000000 0.000000
vn 1.000000 0.000000 0.000000
vn 1.000000 0.000000 0.000000
vn 1.000000 0.000000 0.000000
vn 0.000000 0.000000 1.000000
vn -0.003089 0.000417 0.999995
vn -0.000499 0.000357 1.000000
vn 0.000000 0.000000 1.000000
vn -0.003113 0.000417 0.999995
vn -0.000596 0.000359 1.000000
vn 0.000001 0.000026 1.000000
vn 0.000123 0.002733 0.999996
vn 0.000000 0.000000 1.000000
vn 0.000117 0.002604 0.999997
vn 0.000000 0.000000 1.000000
vn 0.000000 0.000000 1.000000
vn 0.000000 0.000000 1.000000
vn -1.000000 0.000000 0.000000
vn -1.000000 0.000000 0.000000
vn 0.000000 0.000000 1.000000
vn 0.000000 0.000000 1.000000
vn 0.000000 0.000000 1.000000
vn 0.000000 0.000000 1.000000
vn 0.000000 0.000000 1.000000
vn 0.000000 0.000000 1.000000
vn -0.003264 0.002446 0.999992
vn 0.000000 0.010775 0.999942
vn 0.003266 -0.002548 0.999991
vn 0.000000 -0.020653 0.999787
vn 0.000000 0.000000 1.000000
vn 0.000000 0.000000 1.000000
vn 0.000000 0.000000 1.000000
vn 0.000000 0.000000 1.000000
vn 0.000000 0.000000 1.000000
vn 0.000000 0.000000 1.000000
vn 0.000000 1.000000 0.000000
vn 0.000000 1.000000 0.000000
vn -0.972903 -0.000096 -0.231216
vn 0.000000 1.000000 0.000000
vn 0.000000 1.000000 0.000000
vn -0.972888 -0.000093 -0.231276
vn 0.972497 0.000000 -0.232917
vn 0.972497 0.000000 -0.232917
vn 0.972497 0.000000 -0.232917
vn 0.972497 0.000000 -0.232917
vn 0.000000 0.000000 1.000000
vn -0.003089 0.000417 0.999995
vn -0.000499 0.000357 1.000000
vn 0.000000 0.000000 1.000000
vn -0.003113 0.000417 0.999995
vn -0.000596 0.000359 1.000000
vn 0.000009 0.000199 1.000000
vn 0.000123 0.002733 0.999996
vn 0.000000 0.000000 1.000000
vn 0.000117 0.002604 0.999997
vn 0.000000 0.000000 1.000000
vn 0.000000 0.000000 1.000000
vn 0.000000 0.000000 1.000000
vn 0.000000 1.000000 0.000000
vn 0.000000 1.000000 0.000000
vn 0.000000 1.000000 0.000000
vn 0.000000 1.000000 0.000000
vn 0.000000 1.000000 0.000000
vn 0.000000 1.000000 0.000000
vn 0.000000 1.000000 0.000000
vn 0.000000 1.000000 0.000000
vn 0.000000 1.000000 0.000000
vn 0.000000 1.000000 0.000000
vn 0.000000 1.000000 0.000000
vn 0.000000 1.000000 0.000000
vn 0.000000 1.000000 0.000000
vn -0.000000 1.000000 0.000000
vn 0.000000 1.000000 0.000000
vn -0.000000 1.000000 0.000000
vn -0.972527 -0.000004 -0.232791
vn -0.972512 0.000000 -0.232851
vn -1.000000 0.000000 0.000000
vn -1.000000 0.000000 0.000000
vn -1.000000 0.000000 0.000000
vn -1.000000 0.000000 0.000000
vn -1.000000 0.000000 0.000000
vn -1.000000 0.000000 0.000000
vn -1.000000 0.000000 0.000000
vn -1.000000 0.000000 0.000000
vn -1.000000 0.000000 0.000000
vn -1.000000 0.000000 0.000000
vn -1.000000 0.000000 0.000000
vn -1.000000 0.000000 0.000000
vn -1.000000 0.000000 0.000000
vn -1.000000 0.000000 0.000000
vn -1.000000 0.000000 0.000000
vn -1.000000 0.000000 0.000000
vn 0.000000 0.000000 1.000000
vn 0.000000 0.000000 1.000000
vn 0.000000 1.000000 0.000000
vn 0.000000 1.000000 0.000000
vn 0.000000 1.000000 0.000000
vn 0.000000 1.000000 0.000000
vn 0.000000 1.000000 0.000000
vn 0.000000 1.000000 0.000000
vn 0.000000 1.000000 0.000000
vn 0.000000 1.000000 0.000000
vn 0.000000 1.000000 0.000000
vn 0.000000 1.000000 0.000000
vn 0.000000 1.000000 0.000000
vn 0.000000 1.000000 0.000000
vn 0.000000 1.000000 0.000000
vn 0.000000 1.000000 0.000000
vn 0.000000 1.000000 0.000000
vn 0.000000 1.000000 0.000000
vn 0.000000 1.000000 0.000000
vn 0.000000 1.000000 0.000000
vn 0.000000 1.000000 0.000000
vn 0.000000 1.000000 0.000000
vn 0.000000 1.000000 0.000000
vn 0.000000 1.000000 0.000000
vn 0.000000 1.000000 0.000000
vn 0.000000 1.000000 0.000000
vn 0.000000 1.000000 0.000000
vn 0.000000 1.000000 0.000000
vn 0.000000 1.000000 0.000000
vn 0.000000 1.000000 0.000000
vn -1.000000 -0.000464 0.000000
vn -0.000169 1.000000 0.000001
vn -1.000000 -0.000001 -0.000000
vn -1.000000 -0.000001 -0.000000
vn 1.000000 0.000043 -0.000000
vn 0.000000 0.000000 0.000000
vn 1.000000 0.000043 -0.000000
vn 1.000000 0.000043 -0.000000
vn 0.000000 1.000000 0.000000
vn 0.000000 1.000000 0.000000
vn 0.000000 1.000000 0.000000
vn 0.000000 1.000000 0.000000
vn 0.000000 1.000000 0.000000
vn 0.000000 1.000000 0.000000
vn 0.000000 1.000000 0.000000
vn 0.000000 1.000000 0.000000
vn 0.000000 1.000000 0.000000
vn 0.000000 1.000000 0.000000
vn 0.000000 1.000000 0.000000
vn 0.000000 1.000000 0.000000
vn 0.000000 1.000000 0.000001
vn 0.000000 1.000000 0.000001
vn -0.000000 1.000000 0.000000
vn -0.000000 1.000000 0.000000
vn 0.000000 1.000000 0.000000
vn 0.000000 1.000000 0.000000
vn 0.000000 1.000000 0.000000
vn 0.000000 1.000000 0.000000
vn 0.000000 1.000000 0.000000
vn 0.000000 1.000000 0.000000
vn 0.000000 1.000000 0.000000
vn 0.000000 1.000000 0.000000
vn 0.000000 1.000000 0.000000
vn 0.000000 1.000000 0.000000
vn 0.000000 1.000000 0.000000
vn 0.000000 1.000000 0.000000
vn -0.000175 1.000000 0.000035
vn -0.000192 1.000000 0.000064
vn -0.000194 1.000000 0.000066
vn -0.000000 1.000000 0.000000
vn -0.000000 1.000000 0.000000
vn 0.000000 1.000000 0.000000
vn -0.000000 1.000000 0.000000
g fff0ac53_00319_006a489d_e0
f 413/36/413 410/33/410 411/34/411
f 1/1/1 295/8/295 15/9/15
f 657/37/657 658/39/658 655/18/655
f 659/40/659 653/12/653 657/37/657
f 686/18/686 685/44/685 687/22/687
f 44/5/44 10/3/10 6/32/6
f 760/36/760 757/33/757 758/34/758
f 760/36/760 759/35/759 757/33/757
f 696/17/696 688/10/688 691/16/691
f 790/76/790 789/75/789 781/68/781
f 717/20/717 683/25/683 680/21/680
f 685/44/685 686/18/686 684/43/684
f 652/21/652 648/14/648 651/20/651
f 648/14/648 652/21/652 649/15/649
f 657/37/657 653/12/653 658/39/658
f 653/12/653 656/19/656 654/13/654
f 184/25/184 306/20/306 307/24/307
f 655/17/655 647/10/647 650/16/650
f 306/20/306 184/25/184 181/21/181
f 647/10/647 658/38/658 653/11/653
f 1/1/1 3/28/3 295/8/295
f 792/78/792 790/76/790 782/69/782
f 656/19/656 653/12/653 659/40/659
f 781/68/781 782/69/782 790/76/790
f 688/10/688 699/38/699 735/11/735
f 683/25/683 717/20/717 718/24/718
f 413/36/413 412/35/412 410/33/410
f 417/36/417 416/34/416 407/7/407
f 407/7/407 409/27/409 417/36/417
f 408/26/408 406/6/406 414/33/414
f 756/36/756 753/33/753 754/34/754
f 756/36/756 755/35/755 753/33/753
f 6/32/6 7/31/7 44/5/44
f 414/33/414 415/35/415 408/26/408
f 377/36/377 374/33/374 375/34/375
f 377/36/377 376/35/376 374/33/374
f 381/36/381 380/34/380 371/7/371
f 371/7/371 373/27/373 381/36/381
f 789/75/789 791/77/791 783/70/783
f 9/2/9 43/4/43 765/30/765
f 372/26/372 370/6/370 378/33/378
f 752/36/752 749/33/749 750/34/750
f 378/33/378 379/35/379 372/26/372
f 341/36/341 338/33/338 339/34/339
f 16/10/16 86/38/86 662/11/662
f 47/17/47 16/10/16 18/16/18
f 45/12/45 48/19/48 46/13/46
f 85/37/85 662/12/662 86/39/86
f 296/14/296 308/21/308 17/15/17
f 308/21/308 296/14/296 310/20/310
f 98/44/98 108/18/108 97/43/97
f 108/18/108 98/44/98 109/22/109
f 96/44/96 106/18/106 95/43/95
f 106/18/106 96/44/96 107/22/107
f 19/18/19 23/23/23 20/19/20
f 23/23/23 19/18/19 22/22/22
f 297/20/297 24/25/24 21/21/21
f 24/25/24 297/20/297 298/24/298
f 94/44/94 104/18/104 93/43/93
f 104/18/104 94/44/94 105/22/105
f 341/36/341 340/35/340 338/33/338
f 752/36/752 751/35/751 749/33/749
f 783/70/783 781/68/781 789/75/789
f 765/30/765 5/29/5 9/2/9
f 647/10/647 655/17/655 658/38/658
f 345/36/345 344/34/344 335/7/335
f 92/44/92 102/18/102 91/43/91
f 748/36/748 745/33/745 746/34/746
f 102/18/102 92/44/92 103/22/103
f 90/44/90 100/18/100 89/43/89
f 100/18/100 90/44/90 101/22/101
f 2/42/2 88/41/88 99/6/99
f 99/6/99 4/26/4 2/42/2
f 663/40/663 662/12/662 85/37/85
f 335/7/335 337/27/337 345/36/345
f 782/69/782 784/67/784 792/78/792
f 85/37/85 86/39/86 47/18/47
f 16/10/16 47/17/47 86/38/86
f 25/18/25 29/23/29 26/19/26
f 29/23/29 25/18/25 28/22/28
f 299/20/299 30/25/30 27/21/27
f 30/25/30 299/20/299 300/24/300
f 183/23/183 179/18/179 182/22/182
f 48/19/48 45/12/45 87/40/87
f 42/25/42 303/20/303 304/24/304
f 303/20/303 42/25/42 39/21/39
f 179/18/179 183/23/183 180/19/180
f 309/21/309 305/14/305 311/20/311
f 336/26/336 334/6/334 342/33/342
f 342/33/342 343/35/343 336/26/336
f 41/23/41 37/18/37 40/22/40
f 37/18/37 41/23/41 38/19/38
f 81/33/81 82/35/82 75/26/75
f 75/26/75 73/6/73 81/33/81
f 74/7/74 76/27/76 84/36/84
f 84/36/84 83/34/83 74/7/74
f 80/36/80 79/35/79 77/33/77
f 80/36/80 77/33/77 78/34/78
f 69/33/69 70/35/70 63/26/63
f 63/26/63 61/6/61 69/33/69
f 748/36/748 747/35/747 745/33/745
f 744/36/744 741/33/741 742/34/742
f 31/18/31 35/23/35 32/19/32
f 35/23/35 31/18/31 34/22/34
f 301/20/301 36/25/36 33/21/33
f 36/25/36 301/20/301 302/24/302
f 62/7/62 64/27/64 72/36/72
f 72/36/72 71/34/71 62/7/62
f 744/36/744 743/35/743 741/33/741
f 740/36/740 737/33/737 738/34/738
f 305/14/305 309/21/309 178/15/178
f 740/36/740 739/35/739 737/33/737
f 784/67/784 783/70/783 791/77/791
f 688/10/688 696/17/696 699/38/699
f 68/36/68 67/35/67 65/33/65
f 68/36/68 65/33/65 66/34/66
f 57/33/57 58/35/58 51/26/51
f 51/26/51 49/6/49 57/33/57
f 50/7/50 52/27/52 60/36/60
f 60/36/60 59/34/59 50/7/50
f 56/36/56 55/35/55 53/33/53
f 56/36/56 53/33/53 54/34/54
f 698/37/698 699/39/699 696/18/696
f 110/10/110 121/38/121 664/11/664
f 118/17/118 110/10/110 113/16/113
f 116/12/116 119/19/119 117/13/117
f 120/37/120 664/12/664 121/39/121
f 111/14/111 115/21/115 112/15/112
f 115/21/115 111/14/111 114/20/114
f 665/40/665 664/12/664 120/37/120
f 120/37/120 121/39/121 118/18/118
f 110/10/110 118/17/118 121/38/121
f 119/19/119 116/12/116 122/40/122
f 123/10/123 134/38/134 666/11/666
f 131/17/131 123/10/123 126/16/126
f 129/12/129 132/19/132 130/13/130
f 133/37/133 666/12/666 134/39/134
f 124/14/124 128/21/128 125/15/125
f 128/21/128 124/14/124 127/20/127
f 667/40/667 666/12/666 133/37/133
f 133/37/133 134/39/134 131/18/131
f 123/10/123 131/17/131 134/38/134
f 132/19/132 129/12/129 135/40/135
f 136/10/136 147/38/147 668/11/668
f 144/17/144 136/10/136 139/16/139
f 142/12/142 145/19/145 143/13/143
f 146/37/146 668/12/668 147/39/147
f 137/14/137 141/21/141 138/15/138
f 141/21/141 137/14/137 140/20/140
f 669/40/669 668/12/668 146/37/146
f 146/37/146 147/39/147 144/18/144
f 136/10/136 144/17/144 147/38/147
f 145/19/145 142/12/142 148/40/148
f 149/10/149 160/38/160 670/11/670
f 157/17/157 149/10/149 152/16/152
f 155/12/155 158/19/158 156/13/156
f 159/37/159 670/12/670 160/39/160
f 150/14/150 154/21/154 151/15/151
f 154/21/154 150/14/150 153/20/153
f 671/40/671 670/12/670 159/37/159
f 159/37/159 160/39/160 157/18/157
f 149/10/149 157/17/157 160/38/160
f 158/19/158 155/12/155 161/40/161
f 736/40/736 735/12/735 698/37/698
f 693/21/693 689/14/689 692/20/692
f 689/14/689 693/21/693 690/15/690
f 698/37/698 735/12/735 699/39/699
f 791/77/791 792/78/792 784/67/784
f 449/44/449 450/18/450 448/43/448
f 450/18/450 449/44/449 451/22/451
f 442/18/442 446/23/446 443/19/443
f 446/23/446 442/18/442 445/22/445
f 475/20/475 447/25/447 444/21/444
f 447/25/447 475/20/475 476/24/476
f 452/10/452 463/38/463 672/11/672
f 460/17/460 452/10/452 455/16/455
f 458/12/458 461/19/461 459/13/459
f 462/37/462 672/12/672 463/39/463
f 453/14/453 457/21/457 454/15/454
f 457/21/457 453/14/453 456/20/456
f 673/40/673 672/12/672 462/37/462
f 462/37/462 463/39/463 460/18/460
f 452/10/452 460/17/460 463/38/463
f 461/19/461 458/12/458 464/40/464
f 488/44/488 489/18/489 487/43/487
f 489/18/489 488/44/488 490/22/490
f 481/18/481 485/23/485 482/19/482
f 485/23/485 481/18/481 484/22/484
f 514/20/514 486/25/486 483/21/483
f 486/25/486 514/20/514 515/24/515
f 491/10/491 502/38/502 674/11/674
f 499/17/499 491/10/491 494/16/494
f 497/12/497 500/19/500 498/13/498
f 501/37/501 674/12/674 502/39/502
f 492/14/492 496/21/496 493/15/493
f 496/21/496 492/14/492 495/20/495
f 675/40/675 674/12/674 501/37/501
f 501/37/501 502/39/502 499/18/499
f 491/10/491 499/17/499 502/38/502
f 500/19/500 497/12/497 503/40/503
f 527/44/527 528/18/528 526/43/526
f 528/18/528 527/44/527 529/22/529
f 520/18/520 524/23/524 521/19/521
f 524/23/524 520/18/520 523/22/523
f 543/20/543 525/25/525 522/21/522
f 525/25/525 543/20/543 544/24/544
f 530/10/530 541/38/541 676/11/676
f 538/17/538 530/10/530 533/16/533
f 536/12/536 539/19/539 537/13/537
f 540/37/540 676/12/676 541/39/541
f 531/14/531 535/21/535 532/15/532
f 535/21/535 531/14/531 534/20/534
f 677/40/677 676/12/676 540/37/540
f 540/37/540 541/39/541 538/18/538
f 530/10/530 538/17/538 541/38/541
f 539/19/539 536/12/536 542/40/542
f 567/18/567 571/23/571 568/19/568
f 571/23/571 567/18/567 570/22/570
f 596/20/596 572/25/572 569/21/569
f 572/25/572 596/20/596 597/24/597
f 573/10/573 584/38/584 579/11/579
f 581/17/581 573/10/573 576/16/576
f 579/12/579 582/19/582 580/13/580
f 583/37/583 579/12/579 584/39/584
f 574/14/574 578/21/578 575/15/575
f 578/21/578 574/14/574 577/20/577
f 585/40/585 579/12/579 583/37/583
f 583/37/583 584/39/584 581/18/581
f 573/10/573 581/17/581 584/38/584
f 582/19/582 579/12/579 585/40/585
f 602/18/602 606/23/606 603/19/603
f 606/23/606 602/18/602 605/22/605
f 631/20/631 607/25/607 604/21/604
f 607/25/607 631/20/631 632/24/632
f 608/10/608 619/38/619 614/11/614
f 616/17/616 608/10/608 611/16/611
f 614/12/614 617/19/617 615/13/615
f 618/37/618 614/12/614 619/39/619
f 609/14/609 613/21/613 610/15/610
f 613/21/613 609/14/609 612/20/612
f 620/40/620 614/12/614 618/37/618
f 618/37/618 619/39/619 616/18/616
f 608/10/608 616/17/616 619/38/619
f 617/19/617 614/12/614 620/40/620
f 644/44/644 645/18/645 643/43/643
f 645/18/645 644/44/644 646/22/646
f 637/18/637 641/23/641 638/19/638
f 641/23/641 637/18/637 640/22/640
f 660/20/660 642/25/642 639/21/639
f 642/25/642 660/20/660 661/24/661
f 800/80/800 799/79/799 797/35/797
f 797/35/797 798/36/798 800/80/800
f 796/82/796 795/81/795 793/79/793
f 793/79/793 794/80/794 796/82/796
f 780/63/780 777/64/777 778/65/778
f 780/63/780 779/66/779 777/64/777
f 776/63/776 773/64/773 774/65/774
f 776/63/776 775/66/775 773/64/773
g fff0ac53_00319_006a489d_e1
f 719/45/719 722/46/722 720/47/720
g fff0ac53_00319_006a489d_e5
f 552/53/552 549/54/549 550/55/550
f 552/53/552 551/56/551 549/54/549
f 764/53/764 761/54/761 762/55/762
f 764/53/764 763/56/763 761/54/761
f 772/59/772 771/60/771 769/61/769
f 769/61/769 770/62/770 772/59/772
g fff0ac53_00319_006a489d_e3
f 734/36/734 731/33/731 732/34/732
f 734/36/734 733/35/733 731/33/731
f 294/36/294 291/33/291 292/34/292
f 294/36/294 293/35/293 291/33/291
f 202/36/202 201/35/201 199/33/199
f 202/36/202 199/33/199 200/34/200
f 206/36/206 205/35/205 203/33/203
f 206/36/206 203/33/203 204/34/204
f 210/36/210 209/35/209 207/33/207
f 210/36/210 207/33/207 208/34/208
f 214/36/214 213/35/213 211/33/211
f 214/36/214 211/33/211 212/34/212
f 218/36/218 217/35/217 215/33/215
f 218/36/218 215/33/215 216/34/216
f 222/36/222 221/35/221 219/33/219
f 222/36/222 219/33/219 220/34/220
f 226/36/226 225/35/225 223/33/223
f 226/36/226 223/33/223 224/34/224
f 230/36/230 229/35/229 227/33/227
f 230/36/230 227/33/227 228/34/228
f 234/36/234 233/35/233 231/33/231
f 234/36/234 231/33/231 232/34/232
f 238/36/238 237/35/237 235/33/235
f 238/36/238 235/33/235 236/34/236
f 242/36/242 241/35/241 239/33/239
f 242/36/242 239/33/239 240/34/240
f 246/36/246 245/35/245 243/33/243
f 246/36/246 243/33/243 244/34/244
f 250/36/250 249/35/249 247/33/247
f 250/36/250 247/33/247 248/34/248
f 254/36/254 253/35/253 251/33/251
f 254/36/254 251/33/251 252/34/252
f 258/36/258 257/35/257 255/33/255
f 258/36/258 255/33/255 256/34/256
f 262/36/262 261/35/261 259/33/259
f 262/36/262 259/33/259 260/34/260
f 266/36/266 265/35/265 263/33/263
f 266/36/266 263/33/263 264/34/264
f 270/36/270 269/35/269 267/33/267
f 270/36/270 267/33/267 268/34/268
f 274/36/274 273/35/273 271/33/271
f 274/36/274 271/33/271 272/34/272
f 278/36/278 277/35/277 275/33/275
f 278/36/278 275/33/275 276/34/276
f 282/36/282 281/35/281 279/33/279
f 282/36/282 279/33/279 280/34/280
f 286/36/286 285/35/285 283/33/283
f 286/36/286 283/33/283 284/34/284
f 290/36/290 289/35/289 287/33/287
f 290/36/290 287/33/287 288/34/288
f 730/36/730 727/33/727 728/34/728
f 730/36/730 729/35/729 727/33/727
f 785/71/785 715/35/715 713/33/713
f 712/36/712 709/33/709 710/34/710
f 712/36/712 711/35/711 709/33/709
f 708/36/708 705/33/705 706/34/706
f 708/36/708 707/35/707 705/33/705
f 704/36/704 701/33/701 702/34/702
f 704/36/704 703/35/703 701/33/701
f 546/1/546 548/28/548 547/8/547
f 726/36/726 723/33/723 724/34/724
f 726/36/726 725/35/725 723/33/723
f 716/36/716 787/73/787 788/74/788
f 546/1/546 547/8/547 545/9/545
f 513/36/513 510/33/510 511/34/511
f 630/36/630 627/33/627 628/34/628
f 630/36/630 629/35/629 627/33/627
f 595/36/595 592/33/592 593/34/593
f 595/36/595 594/35/594 592/33/592
f 562/36/562 561/35/561 559/33/559
f 562/36/562 559/33/559 560/34/560
f 513/36/513 512/35/512 510/33/510
f 349/36/349 348/35/348 346/33/346
f 349/36/349 346/33/346 347/34/347
f 353/36/353 352/35/352 350/33/350
f 353/36/353 350/33/350 351/34/351
f 357/36/357 356/35/356 354/33/354
f 357/36/357 354/33/354 355/34/355
f 361/36/361 360/35/360 358/33/358
f 361/36/361 358/33/358 359/34/359
f 365/36/365 364/35/364 362/33/362
f 365/36/365 362/33/362 363/34/363
f 369/36/369 368/35/368 366/33/366
f 369/36/369 366/33/366 367/34/367
f 385/36/385 384/35/384 382/33/382
f 385/36/385 382/33/382 383/34/383
f 389/36/389 388/35/388 386/33/386
f 389/36/389 386/33/386 387/34/387
f 393/36/393 392/35/392 390/33/390
f 393/36/393 390/33/390 391/34/391
f 397/36/397 396/35/396 394/33/394
f 397/36/397 394/33/394 395/34/395
f 401/36/401 400/35/400 398/33/398
f 401/36/401 398/33/398 399/34/399
f 405/36/405 404/35/404 402/33/402
f 405/36/405 402/33/402 403/34/403
f 421/36/421 420/35/420 418/33/418
f 421/36/421 418/33/418 419/34/419
f 425/36/425 424/35/424 422/33/422
f 425/36/425 422/33/422 423/34/423
f 429/36/429 428/35/428 426/33/426
f 429/36/429 426/33/426 427/34/427
f 433/36/433 432/35/432 430/33/430
f 433/36/433 430/33/430 431/34/431
f 437/36/437 436/35/436 434/33/434
f 437/36/437 434/33/434 435/34/435
f 441/36/441 440/35/440 438/33/438
f 441/36/441 438/33/438 439/34/439
f 474/36/474 473/35/473 471/33/471
f 474/36/474 471/33/471 472/34/472
f 786/72/786 785/71/785 713/33/713
f 716/36/716 788/74/788 714/34/714
g fff0ac53_00319_006a489d_e11
f 3/27/3 13/6/13 14/7/14
f 3/27/3 4/26/4 13/6/13
f 802/84/802 8/30/8 12/4/12
f 801/83/801 11/5/11 766/31/766
f 8/30/8 801/83/801 803/85/803
f 801/83/801 8/30/8 802/84/802
f 803/85/803 801/83/801 766/31/766
f 678/18/678 682/23/682 679/19/679
f 682/23/682 678/18/678 681/22/681
f 697/19/697 694/12/694 700/40/700
f 694/12/694 697/19/697 695/13/695
g fff0ac53_00319_006a489d_e13
f 162/45/162 165/46/165 163/47/163
f 165/46/165 162/45/162 164/48/164
f 636/46/636 633/45/633 635/48/635
f 633/45/633 636/46/636 634/47/634
f 162/49/162 167/50/167 164/51/164
f 621/49/621 626/50/626 623/51/623
f 626/50/626 621/49/621 625/52/625
f 168/45/168 171/46/171 169/47/169
f 171/46/171 168/45/168 170/48/170
f 173/50/173 168/49/168 172/52/172
f 168/49/168 173/50/173 170/51/170
f 187/45/187 190/46/190 188/47/188
f 190/46/190 187/45/187 189/48/189
f 174/45/174 177/46/177 175/47/175
f 177/46/177 174/45/174 176/48/176
f 192/50/192 187/49/187 191/52/191
f 187/49/187 192/50/192 189/51/189
f 186/50/186 174/49/174 185/52/185
f 174/49/174 186/50/186 176/51/176
f 193/45/193 196/46/196 194/47/194
f 196/46/196 193/45/193 195/48/195
f 198/50/198 193/49/193 197/52/197
f 193/49/193 198/50/198 195/51/195
f 722/46/722 719/45/719 721/48/721
f 314/45/314 317/46/317 315/47/315
f 317/46/317 314/45/314 316/48/316
f 768/58/768 313/46/313 312/47/312
f 313/46/313 768/58/768 767/57/767
f 318/45/318 321/46/321 319/47/319
f 321/46/321 318/45/318 320/48/320
f 326/45/326 329/46/329 327/47/327
f 329/46/329 326/45/326 328/48/328
f 322/45/322 325/46/325 323/47/323
f 325/46/325 322/45/322 324/48/324
f 330/45/330 333/46/333 331/47/331
f 333/46/333 330/45/330 332/48/332
f 465/45/465 468/46/468 466/47/466
f 468/46/468 465/45/465 467/48/467
f 470/50/470 465/49/465 469/52/469
f 465/49/465 470/50/470 467/51/467
f 477/45/477 480/46/480 478/47/478
f 480/46/480 477/45/477 479/48/479
f 504/45/504 507/46/507 505/47/505
f 507/46/507 504/45/504 506/48/506
f 509/50/509 504/49/504 508/52/508
f 504/49/504 509/50/509 506/51/506
f 516/45/516 519/46/519 517/47/517
f 519/46/519 516/45/516 518/48/518
f 553/45/553 556/46/556 554/47/554
f 556/46/556 553/45/553 555/48/555
f 558/50/558 553/49/553 557/52/557
f 553/49/553 558/50/558 555/51/555
f 563/45/563 566/46/566 564/47/564
f 566/46/566 563/45/563 565/48/565
f 586/45/586 589/46/589 587/47/587
f 589/46/589 586/45/586 588/48/588
f 591/50/591 586/49/586 590/52/590
f 586/49/586 591/50/591 588/51/588
f 598/45/598 601/46/601 599/47/599
f 601/46/601 598/45/598 600/48/600
f 621/45/621 624/46/624 622/47/622
f 624/46/624 621/45/621 623/48/623
f 804/45/804 807/46/807 805/47/805
f 807/46/807 804/45/804 806/48/806
f 167/50/167 162/49/162 166/52/166
