# fff0aa7b_00319_007b7156
o fff0aa7b_00319_007b7156
v 14.676035 2.482353 -4.484308
v 14.676037 2.482353 -5.900404
v 18.082928 2.482353 -5.900404
v 14.676035 1.255875 -6.608433
v 18.094919 1.255875 -6.608433
v 18.055014 2.482353 -4.484308
v 18.039083 1.255875 -3.776278
v 18.078989 0.029400 -5.900404
v 18.051071 0.029400 -4.484308
v 14.676035 1.255875 -3.776278
v 14.676035 0.029400 -4.484308
v 14.676035 0.029400 -5.900404
v 22.094568 2.107738 -1.308517
v 23.046526 2.316784 -1.150499
v 22.288248 0.195019 -4.645578
v 21.628313 2.316784 -3.573223
v 22.394220 2.316784 -4.292573
v 22.829596 1.326519 -4.912679
v 21.065004 1.255871 -3.270415
v 21.394953 0.195011 -3.806586
v 19.973215 2.316772 -5.804811
v 19.944252 2.316795 -4.579899
v 19.956755 1.255882 -6.417251
v 19.911333 0.194988 -5.804811
v 19.898830 1.255882 -3.967460
v 19.882374 0.194988 -4.579899
v 21.628138 1.255871 -1.619525
v 22.266405 0.195019 -1.887932
v 21.602200 1.255871 -2.510312
v 23.485590 0.195019 -1.768991
v 22.097883 2.211246 -2.558100
v 20.686947 2.316780 -4.135942
v 23.972708 1.411724 -1.342232
v 23.730696 1.366236 -3.442780
v 23.420797 0.649647 -3.434680
v 21.132032 2.316780 -5.368844
v 22.089060 0.195019 -2.922191
v 22.940676 2.316784 -2.916605
v 21.220881 0.195004 -5.442334
v 21.373375 1.288687 -5.954555
v 20.608171 1.255878 -3.829047
v 4.459520 -0.848574 7.028470
v 3.785717 -0.848574 7.028470
v 4.504339 -0.449829 -4.671433
v 5.004679 -0.449829 -4.671433
v 8.738087 -0.848572 7.028470
v 7.878870 -0.848572 7.028470
v 4.365026 -0.449829 -7.087931
v 7.588485 -0.449829 -4.671433
v 8.123639 -0.449829 -4.671433
v 8.262949 -0.449829 -7.087931
v 14.238049 -1.257263 -5.993030
v 13.755376 -1.548340 5.166715
v 14.673859 -3.318602 5.166715
v 14.256186 -3.318602 5.166715
v 14.349850 -3.318600 -5.663879
v 14.417570 -3.318600 -7.649149
v 12.590473 -3.318600 -5.663879
v 12.594007 -3.318602 5.166715
v 12.266465 -3.318602 5.166715
v 12.522753 -3.318600 -7.649149
v 12.833694 -3.318600 -5.663879
v 14.089706 -3.318600 -5.663879
v 14.124827 -1.257263 -7.978299
v 17.292765 -1.257263 -7.978299
v 17.780289 -1.548340 5.166715
v 17.179543 -1.257263 -5.993030
v 23.524582 3.318600 -6.701365
v 24.106531 3.318600 7.978299
v 23.370811 3.318600 -4.716096
v 23.158127 3.318600 7.978299
v 14.302992 -1.548340 5.166715
v 14.644688 -1.257263 -5.993030
v 16.744612 -1.257263 -5.993030
v 17.081982 -1.548340 5.166715
v 22.780107 3.318600 -4.716096
v 18.640102 3.318600 7.978299
v 19.222052 3.318600 -6.701365
v 19.375824 3.318600 -4.716096
v 19.928101 3.318600 -4.716096
v -24.095995 0.194988 -4.579899
v -24.102968 1.255882 -3.967460
v -24.093782 0.194988 -5.804811
v -24.098539 1.255882 -6.417251
v -24.105509 2.316776 -5.804811
v -24.106531 2.051388 -4.426694
v -24.106066 2.316776 -5.498620
v 18.066792 1.239815 -5.183084
v 14.676036 1.267441 -5.199032
v 17.971601 1.255882 -6.417251
v 14.805494 1.255882 -6.417251
v 14.805494 2.316772 -5.804811
v 17.969511 2.316772 -5.804811
v 14.805492 2.316772 -5.767341
v 17.969469 2.316772 -5.792469
v 14.805494 2.284470 -4.561239
v 17.965305 2.306236 -4.573804
v 14.805495 1.255882 -3.967460
v 17.965324 0.194988 -4.579899
v 14.805492 0.194988 -4.579899
v 17.969509 0.194988 -5.804811
v 17.963234 1.255882 -3.967460
v 13.480974 0.194988 -4.579899
v 13.492710 1.255882 -6.417251
v 13.488795 2.316772 -5.804811
v 13.488796 0.194988 -5.804811
v 14.805497 0.194988 -5.804811
v 13.488510 2.316772 -5.759767
v 13.477060 1.255882 -3.967460
v 13.480827 2.277853 -4.557420
vt 21.736885 2.757843
vt 21.241510 2.918146
vt 21.595695 2.938726
vt 21.068903 1.089316
vt 21.074392 1.076075
vt 10.494440 2.002899
vt 10.493693 1.833838
vt 20.444822 1.101038
vt 20.423496 2.002899
vt 21.060469 2.843751
vt 21.285938 2.754462
vt 21.478653 1.472430
vt 21.326336 2.317491
vt 21.639851 2.319546
vt 21.235708 1.867201
vt 21.517658 1.602385
vt 21.006723 1.389734
vt 21.028326 1.978681
vt 21.149805 1.781294
vt 20.781166 1.983643
vt 10.495368 1.101038
vt 20.450869 1.326499
vt 20.440216 1.777436
vt 20.428087 1.326499
vt 20.417429 1.777436
vt 21.147104 2.469120
vt 21.896082 2.876735
vt 21.329592 2.451530
vt 20.810167 1.870665
vt 21.911100 2.142037
vt 21.962332 2.850505
vt 21.950274 2.109647
vt 21.816614 2.128827
vt 21.832212 1.238055
vt 20.974014 1.416793
vt 10.495898 1.777436
vt 21.848389 1.211766
vt 10.496363 1.326499
vt 1.986437 1.718488
vt 10.493908 1.326499
vt 10.493791 1.439218
vt 0.942460 1.718487
vt 0.942460 1.255140
vt 1.996290 1.255140
vt 0.942460 1.023472
vt 2.000000 1.023472
vt 1.987656 1.718487
vt 1.982729 1.950155
vt 1.991299 1.489848
vt 1.995072 1.255140
vt 0.942460 1.950155
vt 0.942460 1.484629
vt 0.942460 1.718488
vt 0.942460 1.255140
vt 19.802933 1.777436
vt 19.804800 1.326499
vt 19.802147 2.002899
vt 1.136055 2.000000
vt 1.999998 1.021874
vt 1.999998 2.000000
vt 1.999997 1.885160
vt 1.826502 2.000000
vt 1.826966 1.885160
vt 0.999998 2.000000
vt 0.999998 1.021874
vt 0.999998 1.885160
vt 1.164099 1.885160
vt 18.265734 1.101038
vt 18.264957 1.326499
vt 18.264826 1.326499
vt 18.490143 1.326499
vt 19.805885 1.101038
vt 18.490257 1.101038
vt 18.490290 1.326499
vt 19.805079 1.326499
vt 18.264898 1.343082
vt 18.490288 1.340294
vt 19.805059 1.331043
vt 18.490225 1.784306
vt 19.803207 1.779680
vt 18.490126 2.002899
vt 18.490078 1.777436
vt 18.263250 1.785712
vt 18.263138 1.777436
vt 18.262373 2.002899
vn -0.609991 0.686236 0.396220
vn -0.609990 0.686237 -0.396221
vn 0.614628 0.686039 -0.389335
vn -0.610002 -0.000000 -0.792400
vn 0.618189 -0.000583 -0.786029
vn 0.606410 0.685411 0.403085
vn 0.601758 -0.000568 0.798678
vn 0.804107 -0.305017 -0.510271
vn 0.794619 -0.297685 0.529116
vn -0.610001 -0.000001 0.792400
vn -0.799994 -0.299980 0.519637
vn -0.799994 -0.299980 -0.519637
vn -0.564732 0.822763 0.064336
vn 0.306729 0.951791 0.003284
vn 0.621347 -0.448874 -0.642216
vn -0.309149 0.903505 0.296827
vn 0.382374 0.875124 -0.296560
vn 0.730781 0.078206 -0.678118
vn -0.772695 -0.049313 0.632859
vn -0.584961 -0.454714 0.671607
vn 0.093206 0.842704 -0.530248
vn -0.092187 0.890280 0.445985
vn 0.151225 -0.005917 -0.988482
vn 0.135280 -0.487740 -0.862443
vn -0.147698 0.045937 0.987965
vn -0.189305 -0.488714 0.851658
vn -0.997526 0.064020 0.029046
vn -0.868754 -0.484922 0.100583
vn -0.943702 -0.040650 0.328290
vn 0.935420 -0.330136 -0.126493
vn -0.491270 0.853305 0.174709
vn -0.325125 0.815976 0.477992
vn 0.946739 0.305282 -0.102410
vn 0.939811 0.154262 -0.304891
vn 0.862065 -0.392952 -0.320052
vn 0.251099 0.855809 -0.452261
vn -0.792311 -0.491399 0.361622
vn 0.383356 0.920756 -0.072433
vn 0.400452 -0.436280 -0.805790
vn 0.445026 0.036478 -0.894774
vn -0.496731 0.039798 0.866992
vn 0.000000 -0.999420 -0.034061
vn 0.000000 -0.999420 -0.034061
vn 0.000000 -0.999855 -0.017053
vn 0.000000 -0.999938 -0.011129
vn 0.000000 -0.999420 -0.034061
vn 0.000000 -0.999420 -0.034061
vn 0.000000 -1.000000 0.000000
vn 0.000000 -0.999937 -0.011235
vn 0.000000 -0.999855 -0.017006
vn 0.000000 -1.000000 0.000000
vn 0.000000 -0.999916 -0.012983
vn 0.000000 -0.999660 -0.026074
vn 0.000000 -1.000000 -0.000000
vn 0.000000 -1.000000 -0.000000
vn 0.000000 -1.000000 -0.000000
vn 0.000000 -1.000000 0.000000
vn 0.000000 -1.000000 -0.000000
vn 0.000000 -1.000000 -0.000000
vn 0.000000 -1.000000 -0.000000
vn 0.000000 -1.000000 0.000000
vn 0.000000 -1.000000 -0.000000
vn 0.000000 -1.000000 -0.000000
vn 0.000000 -1.000000 0.000000
vn 0.000000 -1.000000 0.000000
vn 0.000000 -0.999660 -0.026074
vn 0.000000 -0.999915 -0.013025
vn 0.000000 -1.000000 0.000000
vn 0.000000 -1.000000 0.000000
vn 0.000000 -1.000000 0.000000
vn 0.000000 -1.000000 0.000000
vn 0.000000 -0.999660 -0.026074
vn 0.000000 -0.999963 -0.008578
vn 0.000000 -0.999963 -0.008580
vn 0.000000 -0.999660 -0.026074
vn 0.000000 -1.000000 0.000000
vn 0.000000 -1.000000 0.000000
vn 0.000000 -1.000000 0.000000
vn 0.000000 -1.000000 0.000000
vn 0.000000 -1.000000 0.000000
vn 0.000000 -0.499959 0.866049
vn 0.000000 0.001760 0.999998
vn 0.000000 -0.499958 -0.866050
vn 0.000000 0.001758 -0.999998
vn 0.000000 0.866703 -0.498824
vn -0.002717 0.798434 0.602077
vn -0.002484 0.992825 0.119553
vn 0.999804 -0.001606 0.019711
vn -1.000000 0.000000 -0.000000
vn 0.000000 0.000001 -1.000000
vn 0.000000 0.000001 -1.000000
vn 0.000000 0.866014 -0.500020
vn 0.000000 0.866014 -0.500020
vn -0.001263 0.999923 0.012332
vn -0.000848 0.999993 0.003550
vn -0.002575 0.858748 0.512392
vn -0.001960 0.863434 0.504458
vn -0.000000 -0.000004 1.000000
vn 0.000000 -0.756259 0.654273
vn 0.000000 -0.755906 0.654680
vn 0.000000 -0.755554 -0.655087
vn -0.000000 -0.000004 1.000000
vn 0.000000 -0.499958 0.866049
vn 0.000000 0.000001 -1.000000
vn 0.000000 0.866014 -0.500020
vn 0.000000 -0.499958 -0.866050
vn 0.000000 -0.755907 -0.654679
vn -0.000580 0.999880 0.015507
vn -0.000000 -0.000004 1.000000
vn -0.001356 0.857392 0.514663
g fff0aa7b_00319_007b7156_e1
f 80/67/80 79/66/79 78/65/78
f 80/67/80 77/64/77 79/66/79
f 76/63/76 80/67/80 78/65/78
f 75/62/75 67/61/67 66/60/66
f 67/61/67 75/62/75 74/63/74
f 65/59/65 74/63/74 64/65/64
f 65/59/65 67/61/67 74/63/74
f 63/63/63 62/67/62 61/65/61
f 60/64/60 62/67/62 59/58/59
f 62/67/62 60/64/60 58/66/58
f 62/67/62 58/66/58 61/65/61
f 51/59/51 50/61/50 49/63/49
f 51/59/51 49/63/49 48/65/48
f 50/61/50 47/62/47 49/63/49
f 47/62/47 50/61/50 46/60/46
f 45/67/45 44/66/44 48/65/48
f 45/67/45 43/64/43 44/66/44
f 43/64/43 45/67/45 42/58/42
f 49/63/49 45/67/45 48/65/48
f 57/59/57 56/61/56 63/63/63
f 57/59/57 63/63/63 61/65/61
f 56/61/56 55/62/55 63/63/63
f 55/62/55 56/61/56 54/60/54
f 74/63/74 73/67/73 64/65/64
f 53/64/53 73/67/73 72/58/72
f 73/67/73 53/64/53 52/66/52
f 73/67/73 52/66/52 64/65/64
f 71/62/71 70/61/70 69/60/69
f 70/61/70 71/62/71 76/63/76
f 68/59/68 76/63/76 78/65/78
f 68/59/68 70/61/70 76/63/76
g fff0aa7b_00319_007b7156_e2
f 102/57/102 26/25/26 25/9/25
f 24/24/24 101/56/101 23/8/23
f 110/83/110 87/41/87 86/7/86
f 100/82/100 99/55/99 98/81/98
f 109/85/109 100/82/100 98/81/98
f 97/80/97 96/79/96 102/57/102
f 97/80/97 102/57/102 25/9/25
f 95/78/95 94/77/94 97/80/97
f 95/78/95 97/80/97 22/23/22
f 108/76/108 85/40/85 87/41/87
f 93/75/93 92/74/92 95/78/95
f 91/73/91 93/75/93 90/72/90
f 90/72/90 93/75/93 21/22/21
f 107/71/107 90/72/90 101/56/101
f 101/56/101 90/72/90 23/8/23
f 100/82/100 101/56/101 99/55/99
f 98/81/98 99/55/99 102/57/102
f 99/55/99 26/25/26 102/57/102
f 12/54/12 11/53/11 89/52/89
f 11/53/11 10/51/10 89/52/89
f 9/39/9 8/50/8 88/49/88
f 7/48/7 88/49/88 6/47/6
f 106/70/106 91/73/91 107/71/107
f 84/21/84 105/69/105 104/68/104
f 105/69/105 92/74/92 104/68/104
f 103/84/103 100/82/100 109/85/109
f 83/38/83 104/68/104 106/70/106
f 104/68/104 91/73/91 106/70/106
f 107/71/107 101/56/101 100/82/100
f 109/85/109 86/7/86 82/6/82
f 92/74/92 93/75/93 91/73/91
f 104/68/104 92/74/92 91/73/91
f 92/74/92 94/77/94 95/78/95
f 9/39/9 10/51/10 11/53/11
f 5/46/5 12/54/12 4/45/4
f 3/44/3 4/45/4 2/43/2
f 7/48/7 1/42/1 10/51/10
f 6/47/6 1/42/1 7/48/7
f 5/46/5 4/45/4 3/44/3
f 7/48/7 10/51/10 9/39/9
f 41/20/41 20/19/20 19/18/19
f 82/6/82 103/84/103 109/85/109
f 105/69/105 108/76/108 94/77/94
f 105/69/105 85/40/85 108/76/108
f 108/76/108 110/83/110 96/79/96
f 108/76/108 87/41/87 110/83/110
f 110/83/110 109/85/109 98/81/98
f 110/83/110 86/7/86 109/85/109
f 92/74/92 105/69/105 94/77/94
f 94/77/94 96/79/96 97/80/97
f 94/77/94 108/76/108 96/79/96
f 22/23/22 97/80/97 25/9/25
f 84/21/84 85/40/85 105/69/105
f 40/5/40 18/37/18 39/17/39
f 21/22/21 95/78/95 22/23/22
f 8/50/8 12/54/12 5/46/5
f 6/47/6 2/43/2 1/42/1
f 3/44/3 2/43/2 6/47/6
f 9/39/9 88/49/88 7/48/7
f 88/49/88 8/50/8 5/46/5
f 88/49/88 3/44/3 6/47/6
f 3/44/3 88/49/88 5/46/5
f 4/45/4 89/52/89 2/43/2
f 89/52/89 4/45/4 12/54/12
f 89/52/89 10/51/10 1/42/1
f 89/52/89 1/42/1 2/43/2
f 96/79/96 110/83/110 98/81/98
f 96/79/96 98/81/98 102/57/102
f 24/24/24 40/5/40 39/17/39
f 83/38/83 84/21/84 104/68/104
f 82/6/82 81/36/81 103/84/103
f 91/73/91 90/72/90 107/71/107
f 21/22/21 93/75/93 95/78/95
f 22/23/22 25/9/25 41/20/41
f 17/16/17 16/15/16 38/14/38
f 23/8/23 90/72/90 21/22/21
f 23/8/23 21/22/21 40/4/40
f 24/24/24 23/8/23 40/5/40
f 25/9/25 26/25/26 20/19/20
f 19/18/19 20/19/20 37/13/37
f 25/9/25 20/19/20 41/20/41
f 40/4/40 21/22/21 36/35/36
f 18/34/18 40/4/40 36/35/36
f 35/33/35 34/32/34 33/31/33
f 39/17/39 18/37/18 15/12/15
f 18/34/18 36/35/36 17/16/17
f 34/30/34 18/34/18 17/16/17
f 36/35/36 16/15/16 17/16/17
f 21/22/21 22/23/22 32/29/32
f 32/29/32 19/18/19 16/15/16
f 14/3/14 31/28/31 13/2/13
f 14/3/14 33/27/33 38/14/38
f 35/33/35 33/31/33 30/1/30
f 32/29/32 16/15/16 36/35/36
f 29/26/29 28/11/28 27/10/27
f 13/2/13 29/26/29 27/10/27
f 16/15/16 19/18/19 31/28/31
f 13/2/13 31/28/31 29/26/29
f 31/28/31 19/18/19 29/26/29
f 14/3/14 38/14/38 31/28/31
f 38/14/38 16/15/16 31/28/31
f 38/14/38 33/27/33 34/30/34
f 38/14/38 34/30/34 17/16/17
f 35/33/35 18/37/18 34/32/34
f 15/12/15 18/37/18 35/33/35
f 21/22/21 32/29/32 36/35/36
f 41/20/41 19/18/19 32/29/32
f 22/23/22 41/20/41 32/29/32
f 37/13/37 28/11/28 29/26/29
f 19/18/19 37/13/37 29/26/29
