# fff089d2_00097_0028decc
o fff089d2_00097_0028decc
v 3.822232 2.450207 1.836354
v -5.016725 -3.759478 1.863339
v -11.672719 3.876916 1.806023
v -8.402238 0.166309 1.863339
v -10.011162 2.068191 1.863339
v 4.645860 1.871045 1.836354
v 6.079631 -0.100080 1.851773
v 5.289614 -0.090285 1.877513
v 3.162204 3.196393 1.838637
v 3.983269 1.748854 1.872380
v 8.136080 -3.614562 1.821402
v 7.438430 -3.690506 1.885110
v -3.880823 -3.746307 1.863339
v -5.474494 -3.070741 1.863339
v -8.015763 2.010811 1.863339
v 3.109905 2.884456 1.869623
v 0.516438 2.682244 1.857714
v -9.668797 3.817031 1.806023
v -3.772610 3.487506 1.830349
v -6.683341 0.133670 1.863339
v -3.524739 2.737517 1.862828
v 0.524867 1.228071 1.862218
v -4.349904 -2.025096 1.863338
v 6.757056 -2.917999 1.871762
v 3.360689 -3.710608 1.877267
v 3.384074 -2.020654 1.869202
v 1.806933 -0.025141 1.879508
v -11.237475 3.367222 1.870804
v -5.765521 -2.880677 1.870804
v -5.574115 -2.914531 1.870804
v -11.039193 3.305790 1.870804
v -9.999773 2.122728 1.870804
v -10.154158 2.130285 1.870804
vt 1.498757 1.423887
vt 1.286574 1.690293
vt 1.835289 1.667568
vt 1.110811 0.956199
vt 1.255370 1.130471
vt 1.871499 0.955892
vt 1.673408 1.723680
vt 1.489460 1.787581
vt 1.496289 1.749445
vt 1.507956 1.710986
vt 1.665036 1.708594
vt 1.838996 1.595268
vt 1.665587 1.655828
vt 1.137910 1.910005
vt 1.178189 1.826375
vt 1.207401 1.822735
vt 1.307850 1.663579
vt 1.283856 1.164812
vt 1.258598 1.188392
vt 1.753690 1.200583
vt 1.117993 1.048954
vt 1.129369 1.033707
vt 1.161428 1.901585
vt 1.234484 1.819360
vt 1.740768 1.267354
vt 1.716916 1.277021
vt 1.840554 1.061082
vt 1.256912 1.798829
vt 1.464457 1.477064
vt 1.499959 1.461422
vt 1.286115 1.211783
vt 1.471675 1.457885
vt 1.789192 1.678558
vt 1.704235 1.297006
vt 1.724109 1.384626
vt 1.577605 1.411005
vt 1.704257 1.524379
vt 1.840034 1.250341
vt 1.495298 1.642944
vt 1.670137 1.350921
vt 1.505635 1.638380
vt 1.301306 1.527535
vt 1.229941 1.453759
vt 1.277984 1.536177
vt 1.498757 1.423887
vt 1.283856 1.164812
vt 1.286115 1.211783
vt 1.471681 1.457882
vt 1.436388 1.411075
vt 1.456212 1.372596
vn 0.080450 0.070369 0.994272
vn 0.000000 0.000000 1.000000
vn 0.000957 0.032573 0.999469
vn 0.000000 -0.000000 1.000000
vn 0.000689 0.023947 0.999713
vn 0.044622 0.042972 0.998079
vn 0.034047 0.020400 0.999212
vn 0.017723 0.013233 0.999755
vn 0.030494 0.087423 0.995704
vn 0.025112 0.028828 0.999269
vn 0.063408 0.053484 0.996553
vn 0.058807 0.067673 0.995973
vn -0.000527 0.000243 1.000000
vn 0.000000 0.000000 1.000000
vn -0.001357 0.013657 0.999906
vn 0.030546 0.059305 0.997773
vn -0.000977 0.020272 0.999794
vn -0.000254 0.031961 0.999489
vn -0.000427 0.042769 0.999085
vn -0.000410 0.000050 1.000000
vn -0.000305 0.023477 0.999724
vn 0.002349 0.012248 0.999922
vn -0.000839 -0.001026 0.999999
vn 0.024542 0.020956 0.999479
vn -0.001947 0.004799 0.999987
vn -0.000953 -0.000034 1.000000
vn -0.001093 0.001560 0.999998
vn 0.000000 0.000000 1.000000
vn 0.000000 0.000000 1.000000
vn 0.000000 0.000000 1.000000
vn 0.000000 0.000000 1.000000
vn 0.000000 0.000000 1.000000
vn 0.000000 0.000000 1.000000
g fff089d2_00097_0028decc_e2
f 24/16/24 12/15/12 11/14/11
f 27/32/27 23/31/23 26/42/26
f 27/41/27 22/40/22 21/30/21
f 27/39/27 20/29/20 23/28/23
f 19/38/19 18/27/18 21/37/21
f 22/40/22 17/26/17 21/36/21
f 20/13/20 27/37/27 21/35/21
f 10/13/10 16/34/16 22/40/22
f 16/33/16 9/12/9 17/11/17
f 8/10/8 10/13/10 27/41/27
f 21/36/21 17/26/17 19/30/19
f 9/12/9 19/38/19 17/37/17
f 21/37/21 18/27/18 15/25/15
f 8/9/8 24/24/24 7/8/7
f 7/8/7 24/24/24 11/23/11
f 6/7/6 8/9/8 7/8/7
f 18/27/18 3/6/3 15/25/15
f 10/11/10 8/9/8 6/7/6
f 14/5/14 2/4/2 13/22/13
f 27/41/27 10/13/10 22/40/22
f 26/44/26 13/22/13 25/43/25
f 1/3/1 9/12/9 16/33/16
f 20/13/20 21/35/21 15/25/15
f 1/3/1 10/11/10 6/7/6
f 24/2/24 26/21/26 12/15/12
f 20/30/20 5/20/5 4/1/4
f 26/44/26 25/43/25 12/2/12
f 15/26/15 5/20/5 20/30/20
f 14/5/14 13/22/13 23/19/23
f 23/19/23 13/22/13 26/44/26
f 8/10/8 27/39/27 26/28/26
f 4/1/4 14/18/14 23/31/23
f 4/1/4 23/31/23 20/32/20
f 8/32/8 26/42/26 24/17/24
f 10/13/10 1/26/1 16/34/16
f 15/25/15 3/6/3 5/20/5
f 16/12/16 17/37/17 22/13/22
g fff089d2_00097_0028decc_e0
f 28/45/28 33/50/33 32/49/32
f 32/49/32 29/46/29 30/47/30
f 28/45/28 32/49/32 31/48/31
f 33/50/33 29/46/29 32/49/32
