# fff08519_00106_001cd640
o fff08519_00106_001cd640
v -9.061203 10.207277 1.046790
v -4.530598 4.071255 1.215027
v 0.000011 -0.000019 0.355884
v 5.838860 -4.211617 0.735087
v 13.606312 -6.334255 0.355884
v -9.061203 10.207277 -1.062160
v -4.530598 4.071255 -0.893924
v 0.000011 -0.000019 -1.753067
v 5.838860 -4.211617 -1.373864
v 13.606312 -6.334255 -1.753067
v 6.841074 0.611931 2.255661
v 14.608526 -1.510708 0.355887
v 6.841074 0.611931 0.146710
v 14.608526 -1.510708 -1.753063
v -17.011024 37.428097 3.067250
v -17.193420 29.802881 3.000079
v -16.110001 23.808895 2.713661
v -14.079048 16.902018 0.858480
v -17.011024 37.428097 0.958299
v -17.193420 29.802881 0.891128
v -16.110001 23.808895 0.604710
v -14.079048 16.902018 -1.250471
v -16.621635 26.639502 0.262461
v -16.627033 26.669357 2.367802
vt -11.727551 0.019705
vt -5.384419 0.019705
vt 0.958717 0.019705
vt 7.301878 0.019705
vt 13.645086 0.019705
vt -11.727551 2.010515
vt -5.384419 2.010515
vt 0.958717 2.010515
vt 7.301878 2.010515
vt 13.645086 2.010515
vt -2.036773 2.010515
vt -2.068366 0.019705
vn -0.802363 -0.596836 0.000000
vn -0.742938 -0.669361 0.000000
vn -0.628695 -0.777652 0.000000
vn -0.430901 -0.902399 0.000000
vn -0.263608 -0.964630 0.000000
vn -0.802303 -0.596918 0.000000
vn -0.737784 -0.675036 0.000000
vn -0.626360 -0.779534 0.000000
vn -0.431480 -0.902123 0.000000
vn -0.263608 -0.964630 0.000000
vn -0.263608 -0.964630 0.000000
vn -0.263608 -0.964630 0.000000
vn -0.263608 -0.964630 0.000000
vn -0.263608 -0.964630 0.000000
vn -0.999714 0.023913 0.000000
vn -0.997523 -0.070343 0.000000
vn -0.973709 -0.227797 -0.000000
vn -0.899377 -0.437173 0.000000
vn -0.999714 0.023913 0.000000
vn -0.996505 -0.083531 -0.000000
vn -0.972643 -0.232305 0.000000
vn -0.887432 -0.460940 0.000000
vn -0.984054 -0.177869 -0.000000
vn -0.984054 -0.177869 -0.000001
g fff08519_00106_001cd640_e0
f 2/2/2 1/1/1 6/6/6
f 7/7/7 2/2/2 6/6/6
f 3/3/3 2/2/2 7/7/7
f 8/8/8 3/3/3 7/7/7
f 4/4/4 3/3/3 8/8/8
f 9/9/9 4/4/4 8/8/8
f 5/5/5 4/4/4 9/9/9
f 10/10/10 5/5/5 9/9/9
f 23/11/23 24/12/24 20/7/20
f 21/8/21 17/3/17 23/11/23
f 1/5/1 18/4/18 22/9/22
f 22/9/22 18/4/18 21/8/21
f 18/4/18 17/3/17 21/8/21
f 23/11/23 17/3/17 24/12/24
f 24/12/24 16/2/16 20/7/20
f 20/7/20 16/2/16 19/6/19
f 16/2/16 15/1/15 19/6/19
f 14/10/14 12/5/12 13/9/13
f 6/10/6 1/5/1 22/9/22
f 12/5/12 11/4/11 13/9/13
