# fff0a81b_00563_00c289ea
o fff0a81b_00563_00c289ea
v 1.935098 0.097552 0.000000
v 1.935098 -0.097552 0.000000
v 2.054636 0.066316 0.000000
v 2.054756 0.066316 3.101730
v -1.928915 0.097552 2.887362
v -1.928915 0.097429 0.000000
v -2.054756 0.066193 0.000000
v -2.054631 0.066316 3.101730
v 1.935098 0.097552 2.887362
v -2.054756 -0.097552 0.000000
v -1.928915 -0.097552 0.000000
v 2.054636 -0.097552 0.000000
v -1.928915 -0.097429 2.887362
v 2.054756 -0.097552 3.101730
v 1.935098 -0.097552 2.887362
v -2.054631 -0.097429 3.101730
v 1.935098 0.097552 3.511655
v 1.935098 -0.097552 3.511655
v 2.054636 0.066316 3.368259
v 2.054756 0.066316 4.899330
v -1.928915 0.097552 4.747126
v -1.928915 0.097429 3.511655
v -2.054756 0.066193 3.368259
v -2.054631 0.066316 4.899330
v 1.935098 0.097552 4.747126
v -2.054756 -0.097552 3.368259
v -1.928915 -0.097552 3.511655
v 2.054636 -0.097552 3.368259
v -1.928915 -0.097429 4.747126
v 2.054756 -0.097552 4.899330
v 1.935098 -0.097552 4.747126
v -2.054631 -0.097429 4.899330
v 2.054636 0.066193 3.368258
v 1.935098 0.097552 0.000000
v 1.935098 -0.097552 0.000000
v 2.054636 0.066316 0.000000
v 2.054756 0.066316 -3.101730
v -1.928915 0.097552 -2.887362
v -1.928915 0.097429 0.000000
v -2.054756 0.066193 0.000000
v -2.054631 0.066316 -3.101730
v 1.935098 0.097552 -2.887362
v -2.054756 -0.097552 0.000000
v -1.928915 -0.097552 0.000000
v 2.054636 -0.097552 0.000000
v -1.928915 -0.097429 -2.887362
v 2.054756 -0.097552 -3.101730
v 1.935098 -0.097552 -2.887362
v -2.054631 -0.097429 -3.101730
v 1.935098 0.097552 -3.511655
v 1.935098 -0.097552 -3.511655
v 2.054636 0.066316 -3.368259
v 2.054756 0.066316 -4.899330
v -1.928915 0.097552 -4.747126
v -1.928915 0.097429 -3.511655
v -2.054756 0.066193 -3.368259
v -2.054631 0.066316 -4.899330
v 1.935098 0.097552 -4.747126
v -2.054756 -0.097552 -3.368259
v -1.928915 -0.097552 -3.511655
v 2.054636 -0.097552 -3.368259
v -1.928915 -0.097429 -4.747126
v 2.054756 -0.097552 -4.899330
v 1.935098 -0.097552 -4.747126
v -2.054631 -0.097429 -4.899330
v 2.054636 0.066193 -3.368258
vt 0.000000 1.000000
vt 0.000000 1.000000
vt 0.000000 1.000000
vt 0.000000 1.000000
vt 0.000000 1.000000
vt 0.000000 1.000000
vt 0.000000 1.000000
vt 0.000000 1.000000
vt 0.000000 1.000000
vt 0.000000 1.000000
vt 0.000000 1.000000
vt 0.000000 1.000000
vt 0.000000 1.000000
vt 0.000000 1.000000
vt 0.000000 1.000000
vt 0.000000 1.000000
vt 0.000000 1.000000
vt 0.000000 1.000000
vt 0.000000 1.000000
vt 0.000000 1.000000
vn -1.000000 0.000000 0.000000
vn -0.707107 -0.707107 0.000000
vn 1.000000 0.000000 -0.000039
vn 0.707120 0.000000 0.707093
vn 0.707097 0.000000 -0.707116
vn 1.000000 0.000000 0.000000
vn -1.000000 0.000000 0.000040
vn -0.707083 0.000000 0.707130
vn -0.707107 0.000000 -0.707107
vn -0.707107 -0.707107 0.000057
vn 0.707098 -0.707115 0.000028
vn 0.707098 -0.707115 -0.000027
vn 0.301541 -0.904527 -0.301501
vn 0.577356 -0.577354 0.577341
vn -0.301523 -0.904534 -0.301499
vn -0.577342 -0.577343 0.577365
vn -0.707114 0.000000 0.707099
vn -0.301511 -0.904534 0.301511
vn 1.000000 0.000000 -0.000078
vn 0.707134 0.000000 0.707079
vn 0.707084 0.000000 -0.707129
vn 0.707122 0.000000 0.707092
vn -0.707154 -0.000000 -0.707060
vn -0.707060 0.000000 0.707154
vn -0.707107 0.000000 -0.707107
vn -0.577379 -0.577355 -0.577316
vn 0.301455 -0.904540 0.301551
vn 0.577324 -0.577357 -0.577370
vn 0.301570 -0.904525 -0.301479
vn 0.577369 -0.577351 0.577331
vn -0.301524 -0.904535 -0.301496
vn -0.577326 -0.577340 0.577385
vn -0.000000 -0.000006 -1.000000
vn -1.000000 0.000000 0.000000
vn -0.707107 -0.707107 0.000000
vn 1.000000 0.000000 0.000039
vn 1.000000 0.000000 0.000039
vn 0.707097 0.000000 0.707116
vn 1.000000 0.000000 0.000000
vn -1.000000 0.000000 -0.000040
vn -1.000000 0.000000 -0.000040
vn -0.707107 0.000000 0.707106
vn -0.707107 -0.707107 -0.000057
vn 0.707098 -0.707116 -0.000028
vn 0.707098 -0.707116 0.000027
vn 0.301541 -0.904527 0.301502
vn 0.707109 -0.707105 0.000019
vn -0.301523 -0.904534 0.301499
vn -0.707106 -0.707108 -0.000031
vn -1.000000 0.000000 0.000000
vn -0.316228 -0.948683 -0.000000
vn 1.000000 0.000000 0.000078
vn 1.000000 0.000000 0.000078
vn 0.707084 0.000000 0.707129
vn 1.000000 0.000000 0.000000
vn -0.707154 -0.000000 0.707060
vn -1.000000 0.000000 -0.000082
vn -0.707107 0.000000 0.707106
vn -0.577380 -0.577355 0.577316
vn 0.316173 -0.948701 -0.000040
vn 0.577324 -0.577357 0.577370
vn 0.301570 -0.904525 0.301479
vn 0.707118 -0.707095 0.000046
vn -0.301524 -0.904535 0.301496
vn -0.707098 -0.707115 -0.000078
vn -0.000000 -0.000006 1.000000
g fff0a81b_00563_00c289ea_e0
f 14/16/14 8/6/8 16/15/16
f 8/6/8 14/16/14 4/2/4
f 30/16/30 24/6/24 32/15/32
f 24/6/24 30/16/30 20/2/20
g fff0a81b_00563_00c289ea_e3
f 13/13/13 9/7/9 15/14/15
f 9/7/9 13/13/13 5/3/5
f 29/13/29 25/7/25 31/14/31
f 25/7/25 29/13/29 21/3/21
f 46/13/46 48/14/48 42/7/42
f 42/7/42 38/3/38 46/13/46
f 62/13/62 64/14/64 58/7/58
f 58/7/58 54/3/54 62/13/62
g fff0a81b_00563_00c289ea_e2
f 1/8/1 15/14/15 9/7/9
f 15/14/15 1/8/1 2/12/2
f 28/20/28 23/5/23 33/19/33
f 23/5/23 28/20/28 26/9/26
f 13/13/13 11/10/11 6/4/6
f 6/4/6 5/3/5 13/13/13
f 4/2/4 14/16/14 12/11/12
f 12/11/12 3/1/3 4/2/4
f 17/8/17 31/14/31 25/7/25
f 31/14/31 17/8/17 18/12/18
f 24/6/24 26/9/26 32/15/32
f 26/9/26 24/6/24 23/5/23
f 29/13/29 27/10/27 22/4/22
f 22/4/22 21/3/21 29/13/29
f 20/2/20 30/16/30 28/11/28
f 28/11/28 19/1/19 20/2/20
f 18/18/18 22/4/22 27/10/27
f 22/4/22 18/18/18 17/17/17
f 34/8/34 42/7/42 48/14/48
f 48/14/48 35/12/35 34/8/34
f 61/20/61 66/19/66 56/5/56
f 56/5/56 59/9/59 61/20/61
f 46/13/46 39/4/39 44/10/44
f 39/4/39 46/13/46 38/3/38
f 37/2/37 45/11/45 47/16/47
f 45/11/45 37/2/37 36/1/36
f 50/8/50 58/7/58 64/14/64
f 64/14/64 51/12/51 50/8/50
f 57/6/57 65/15/65 59/9/59
f 59/9/59 56/5/56 57/6/57
f 62/13/62 55/4/55 60/10/60
f 55/4/55 62/13/62 54/3/54
f 53/2/53 61/11/61 63/16/63
f 61/11/61 53/2/53 52/1/52
g fff0a81b_00563_00c289ea_e15
f 16/15/16 15/14/15 14/16/14
f 15/14/15 16/15/16 13/13/13
f 2/12/2 12/11/12 14/16/14
f 14/16/14 15/14/15 2/12/2
f 18/18/18 26/9/26 28/20/28
f 16/15/16 11/10/11 13/13/13
f 32/15/32 31/14/31 30/16/30
f 31/14/31 32/15/32 29/13/29
f 18/12/18 28/11/28 30/16/30
f 30/16/30 31/14/31 18/12/18
f 27/10/27 32/15/32 26/9/26
f 32/15/32 27/10/27 29/13/29
f 26/9/26 18/18/18 27/10/27
f 11/10/11 16/15/16 10/9/10
f 49/15/49 47/16/47 48/14/48
f 48/14/48 46/13/46 49/15/49
f 35/12/35 47/16/47 45/11/45
f 47/16/47 35/12/35 48/14/48
f 51/18/51 61/20/61 59/9/59
f 49/15/49 46/13/46 44/10/44
f 65/15/65 63/16/63 64/14/64
f 64/14/64 62/13/62 65/15/65
f 51/12/51 63/16/63 61/11/61
f 63/16/63 51/12/51 64/14/64
f 60/10/60 59/9/59 65/15/65
f 65/15/65 62/13/62 60/10/60
f 59/9/59 60/10/60 51/18/51
f 44/10/44 43/9/43 49/15/49
g fff0a81b_00563_00c289ea_e11
f 8/6/8 10/9/10 16/15/16
f 10/9/10 8/6/8 7/5/7
f 41/6/41 49/15/49 43/9/43
f 43/9/43 40/5/40 41/6/41
