# fff00789_00129_0024656d
o fff00789_00129_0024656d
v -0.216583 -1.000653 -0.184106
v 0.330626 -0.983350 -0.184106
v 0.293517 1.060437 0.170140
v 0.273466 -0.985131 0.170140
v -0.204672 1.044916 -0.184106
v -0.204672 1.044916 0.082970
v -0.216682 -1.000652 0.083542
v 0.350677 1.062218 -0.184106
v 0.330626 -0.983350 0.149465
v 0.350677 1.062218 0.149465
v 0.012230 -0.722589 0.124953
v 0.049524 -0.826925 0.131539
v 0.010955 -0.827806 0.124645
v 0.050800 -0.721708 0.131847
v -0.071320 -0.678461 0.111960
v -0.071320 -0.756339 0.111431
v -0.149933 -0.757126 0.099576
v -0.149933 -0.679248 0.100105
v -0.071289 0.580673 0.108329
v -0.064667 0.590240 0.109828
v -0.216583 0.590237 -0.026421
v -0.216583 0.580680 -0.026421
v -0.068304 -0.620117 0.110230
v -0.074896 -0.609924 0.108523
v -0.217474 -0.620114 -0.036553
v -0.217474 -0.609929 -0.036553
v -0.050917 0.092771 0.113124
v -0.085761 0.091939 0.108432
v -0.052874 -0.142669 0.114387
v -0.087669 -0.143501 0.109695
v 0.093059 1.054192 0.135275
v 0.073229 -0.991378 0.133514
v -0.007169 1.051069 0.126221
v -0.027221 -0.994499 0.117361
v 0.293517 1.060437 0.170140
v 0.273466 -0.985131 0.170140
v 0.092842 1.054189 0.134862
v -0.216417 0.592787 0.082003
v -0.216583 0.592788 -0.184106
v -0.287292 1.044916 -0.184106
v -0.287292 1.044916 0.035985
v -0.287292 0.592788 0.035985
v -0.287292 0.592788 -0.184106
v -0.220415 -0.692562 -0.178696
v -0.227218 -0.692562 -0.097944
v -0.211900 0.592788 -0.094902
v -0.205098 0.592788 -0.175655
v -0.432190 -0.612989 -0.211408
v -0.432190 -0.612989 -0.174270
v -0.432190 0.592788 -0.168432
v -0.432190 0.592788 -0.205570
v -0.218164 -0.622229 -0.184106
v -0.218164 -0.622229 -0.021224
v -0.218164 0.594647 -0.021224
v -0.218164 0.594647 -0.184106
v 0.725406 -0.636422 0.190774
v 0.717918 0.597032 0.209412
v 0.337231 -0.639456 0.035207
v 0.329793 0.593998 0.053822
v -0.041718 -0.644910 0.115290
v -0.041718 -0.909415 0.114365
v -0.179169 -0.910571 0.093639
v -0.179169 -0.646066 0.094563
v -0.064362 -0.798530 0.112806
v -0.064362 -0.821074 0.112653
v -0.087128 -0.821302 0.109221
v -0.087128 -0.798757 0.109374
v -0.099457 -0.798661 0.107565
v -0.099457 -0.821205 0.107412
v -0.122253 -0.821433 0.103980
v -0.122253 -0.798889 0.104134
v -0.133301 -0.799339 0.102461
v -0.133301 -0.821883 0.102308
v -0.156067 -0.822111 0.098876
v -0.156067 -0.799566 0.099030
v -0.064362 -0.836722 0.112806
v -0.064362 -0.859266 0.112653
v -0.087128 -0.859494 0.109221
v -0.087128 -0.836950 0.109374
v -0.099457 -0.836854 0.107565
v -0.099457 -0.859398 0.107412
v -0.122253 -0.859626 0.103980
v -0.122253 -0.837081 0.104134
v -0.133301 -0.837531 0.102461
v -0.133301 -0.860075 0.102308
v -0.156067 -0.860303 0.098876
v -0.156067 -0.837759 0.099030
v -0.064362 -0.874976 0.112806
v -0.064362 -0.897520 0.112653
v -0.087128 -0.897748 0.109221
v -0.087128 -0.875204 0.109374
v -0.099457 -0.875107 0.107565
v -0.099457 -0.897651 0.107412
v -0.122253 -0.897879 0.103980
v -0.122253 -0.875335 0.104134
v -0.133301 -0.875785 0.102461
v -0.133301 -0.898329 0.102308
v -0.156067 -0.898557 0.098876
v -0.156067 -0.876013 0.099030
v -0.217474 -0.620117 0.085592
v -0.217474 -0.609924 0.085474
v -0.216583 0.580673 0.082317
v -0.216583 0.590240 0.082228
v 0.008498 -0.826860 -0.117650
v 0.008446 -0.865140 -0.117826
v -0.030171 -0.865529 -0.112725
v -0.030119 -0.827249 -0.112549
v -0.192944 -0.926266 -0.748433
v -0.192945 -0.964486 -0.747003
v -0.231558 -0.965066 -0.747011
v -0.231505 -0.926846 -0.748441
v 0.008498 0.894380 -0.117650
v 0.008446 0.932660 -0.117826
v -0.030171 0.933049 -0.112725
v -0.030120 0.894769 -0.112549
v -0.192944 0.993786 -0.748433
v -0.192945 1.032007 -0.747003
v -0.231559 1.032586 -0.747011
v -0.231506 0.994366 -0.748441
v 0.268796 -0.826858 -0.109850
v 0.268887 -0.865143 -0.110013
v 0.234616 -0.865524 -0.128599
v 0.234555 -0.827255 -0.128416
v 0.476559 -0.926269 -0.738564
v 0.475735 -0.964493 -0.737407
v 0.444516 -0.965072 -0.760120
v 0.445401 -0.926849 -0.761240
v 0.268796 0.894378 -0.109850
v 0.268887 0.932663 -0.110013
v 0.234616 0.933044 -0.128599
v 0.234555 0.894775 -0.128416
v 0.476559 0.993789 -0.738564
v 0.475735 1.032013 -0.737407
v 0.444516 1.032593 -0.760120
v 0.445401 0.994369 -0.761240
v -0.216583 1.161211 -0.184106
v 0.330626 1.178514 -0.184106
v 0.293517 3.222301 0.170140
v 0.273465 1.176733 0.170140
v -0.204672 3.206780 -0.184106
v -0.204672 3.206780 0.082970
v -0.216682 1.161212 0.083542
v 0.350677 3.224082 -0.184106
v 0.330626 1.178514 0.149465
v 0.350677 3.224082 0.149465
v 0.012230 1.439275 0.124953
v 0.049524 1.334939 0.131539
v 0.010955 1.334058 0.124645
v 0.050800 1.440156 0.131847
v -0.071320 1.483404 0.111960
v -0.071320 1.405525 0.111431
v -0.149933 1.404738 0.099576
v -0.149933 1.482617 0.100105
v -0.071289 2.742537 0.108329
v -0.064667 2.752104 0.109828
v -0.216583 2.752102 -0.026421
v -0.216583 2.742544 -0.026421
v -0.068304 1.541748 0.110230
v -0.074896 1.551940 0.108523
v -0.217474 1.541750 -0.036553
v -0.217474 1.551936 -0.036553
v -0.050917 2.254635 0.113124
v -0.085761 2.253803 0.108432
v -0.052875 2.019195 0.114387
v -0.087669 2.018363 0.109695
v 0.093059 3.216056 0.135275
v 0.073228 1.170486 0.133514
v -0.007170 3.212934 0.126221
v -0.027221 1.167365 0.117361
v 0.293517 3.222301 0.170140
v 0.273465 1.176733 0.170140
v 0.092842 3.216053 0.134862
v -0.216417 2.754652 0.082003
v -0.216583 2.754653 -0.184106
v -0.287293 3.206780 -0.184106
v -0.287293 3.206780 0.035985
v -0.287293 2.754653 0.035985
v -0.287293 2.754653 -0.184106
v -0.220415 1.469303 -0.178696
v -0.227218 1.469303 -0.097944
v -0.211900 2.754653 -0.094902
v -0.205098 2.754653 -0.175655
v -0.432190 1.548875 -0.211408
v -0.432190 1.548875 -0.174270
v -0.432190 2.754653 -0.168432
v -0.432190 2.754653 -0.205570
v -0.218164 1.539635 -0.184106
v -0.218164 1.539635 -0.021224
v -0.218164 2.756511 -0.021224
v -0.218164 2.756511 -0.184106
v 0.725406 1.525442 0.190774
v 0.717918 2.758896 0.209412
v 0.337231 1.522408 0.035207
v 0.329792 2.755862 0.053822
v -0.041718 1.516955 0.115290
v -0.041718 1.252450 0.114365
v -0.179169 1.251293 0.093639
v -0.179169 1.515799 0.094563
v -0.064362 1.363335 0.112806
v -0.064362 1.340791 0.112653
v -0.087128 1.340563 0.109221
v -0.087128 1.363107 0.109374
v -0.099457 1.363204 0.107565
v -0.099457 1.340659 0.107412
v -0.122254 1.340431 0.103980
v -0.122254 1.362976 0.104134
v -0.133301 1.362526 0.102461
v -0.133301 1.339982 0.102308
v -0.156067 1.339754 0.098876
v -0.156067 1.362298 0.099030
v -0.064362 1.325142 0.112806
v -0.064362 1.302598 0.112653
v -0.087128 1.302370 0.109221
v -0.087128 1.324914 0.109374
v -0.099457 1.325011 0.107565
v -0.099457 1.302467 0.107412
v -0.122254 1.302239 0.103980
v -0.122254 1.324783 0.104134
v -0.133301 1.324333 0.102461
v -0.133301 1.301789 0.102308
v -0.156067 1.301561 0.098876
v -0.156067 1.324105 0.099030
v -0.064362 1.286888 0.112806
v -0.064362 1.264344 0.112653
v -0.087128 1.264116 0.109221
v -0.087128 1.286660 0.109374
v -0.099457 1.286757 0.107565
v -0.099457 1.264213 0.107412
v -0.122254 1.263985 0.103980
v -0.122254 1.286529 0.104134
v -0.133301 1.286079 0.102461
v -0.133301 1.263535 0.102308
v -0.156067 1.263307 0.098876
v -0.156067 1.285851 0.099030
v -0.217474 1.541748 0.085592
v -0.217474 1.551940 0.085474
v -0.216583 2.742537 0.082317
v -0.216583 2.752104 0.082228
v 0.008498 1.335005 -0.117650
v 0.008446 1.296724 -0.117826
v -0.030171 1.296336 -0.112725
v -0.030119 1.334616 -0.112549
v -0.192944 1.235598 -0.748433
v -0.192945 1.197378 -0.747003
v -0.231558 1.196798 -0.747011
v -0.231505 1.235018 -0.748441
v 0.008497 3.056244 -0.117650
v 0.008446 3.094524 -0.117826
v -0.030171 3.094913 -0.112725
v -0.030120 3.056633 -0.112549
v -0.192944 3.155651 -0.748433
v -0.192946 3.193871 -0.747003
v -0.231559 3.194451 -0.747011
v -0.231506 3.156230 -0.748441
v 0.268796 1.335006 -0.109850
v 0.268887 1.296722 -0.110013
v 0.234616 1.296340 -0.128599
v 0.234555 1.334609 -0.128416
v 0.476559 1.235595 -0.738564
v 0.475735 1.197372 -0.737407
v 0.444516 1.196792 -0.760120
v 0.445401 1.235015 -0.761240
v 0.268796 3.056243 -0.109850
v 0.268887 3.094527 -0.110013
v 0.234616 3.094908 -0.128599
v 0.234555 3.056639 -0.128416
v 0.476559 3.155654 -0.738564
v 0.475735 3.193877 -0.737407
v 0.444516 3.194457 -0.760120
v 0.445401 3.156234 -0.761240
vt -15.441214 1.000000
vt -16.426567 0.000003
vt 16.690775 0.999556
vt -15.441214 0.000003
vt -402.016296 38.469997
vt -401.014374 -13.234863
vt -7.035970 -19.762527
vt -8.035972 -19.762529
vt 2.671965 -0.080709
vt -33.154343 -2.771458
vt 43.014053 -1.779558
vt 2.111172 0.237398
vt -33.911640 -2.842195
vt 43.853748 -1.822087
vt 0.000001 -0.000306
vt 1.086360 0.016812
vt 423.779633 -25091.074219
vt -8.035497 -25.119514
vt -7.035970 -18.833265
vt -126.246819 -118.936028
vt -127.248268 -118.936028
vt -130.402512 -117.970642
vt 19620.113281 135161.968750
vt 0.000001 -0.000306
vt -409907.468750 1806318.750000
vt 11694.355469 86936.437500
vt 140243.546875 -651420.562500
vt 19622.109375 135168.671875
vt -319.578430 -45611.789062
vt 1.086270 0.016799
vt 0.178955 0.211662
vt -126.246796 -117.938927
vt 10.213522 1.063286
vt 10.248157 0.954665
vt 3.054119 5.875851
vt -33.043346 -2.881720
vt 10.146336 0.945891
vt 78.052795 -4.357260
vt 2.735847 -0.085454
vt 2.160382 0.241915
vt -9.248363 -17.500742
vt -9.717190 -18.366774
vt -0.409090 -0.593516
vt 0.212628 -0.023973
vt -14.462056 -19.802319
vt -9.255945 -17.514683
vt 1.228985 19.297544
vt -38.571426 -72.477386
vt 1.228984 20.281952
vt -38.117275 -71.632164
vt 2.689766 -0.113071
vt -33.248882 -2.771457
vt 43.096916 -1.776099
vt -319.578339 -45611.828125
vt 1.086360 0.692413
vt 140243.640625 -651421.000000
vt -0.000024 0.602642
vt 55283.582031 1423.359497
vt 92212.578125 -3297.260010
vt 863.346069 -161.779922
vt 863.346069 -160.782822
vn -0.695809 -0.718226 -0.000180
vn 0.714773 -0.699357 0.000003
vn 0.152452 0.855318 0.495166
vn 0.197744 -0.858733 0.472732
vn -0.015572 0.999879 0.000000
vn -0.260194 0.667075 0.698076
vn -0.610084 -0.597041 0.520902
vn 0.699520 0.714613 0.000000
vn 0.663184 -0.589793 0.460794
vn 0.649128 0.605668 0.460216
vn -0.175933 -0.000746 0.984402
vn -0.175934 -0.000746 0.984402
vn -0.175934 -0.000746 0.984402
vn -0.175934 -0.000746 0.984402
vn -0.149047 -0.006718 0.988807
vn -0.149046 -0.006717 0.988807
vn -0.149046 -0.006717 0.988808
vn -0.149046 -0.006717 0.988807
vn -0.200958 -0.014458 0.979493
vn -0.194368 -0.017630 0.980770
vn -1.000000 0.000000 0.000000
vn -1.000000 0.000000 0.000000
vn -0.195379 0.037709 0.980003
vn -0.209886 0.027190 0.977348
vn -1.000000 0.000000 0.000000
vn -1.000000 0.000000 0.000000
vn -0.133600 0.006428 0.991015
vn -0.133617 0.006425 0.991012
vn -0.133767 0.006404 0.990992
vn -0.133784 0.006401 0.990990
vn -0.092100 -0.003300 0.995744
vn -0.124035 -0.551264 0.825060
vn -0.089859 -0.003433 0.995949
vn -0.156593 0.000557 0.987663
vn -0.173612 0.001060 0.984814
vn -0.179981 0.001764 0.983669
vn -0.143258 0.705609 0.693969
vn -0.547533 -0.182791 0.816575
vn -0.706966 -0.707248 0.000442
vn -0.707107 0.707107 0.000000
vn -0.685288 0.611544 0.395467
vn -0.693761 -0.613824 0.376717
vn -0.707107 -0.707107 0.000000
vn -0.352097 -0.935583 -0.026704
vn -0.470940 -0.653736 0.592321
vn -0.240470 0.650508 0.720426
vn 0.000000 1.000000 0.000000
vn -0.839956 -0.542655 0.000000
vn -0.755595 -0.463958 0.462406
vn -0.651514 0.596360 0.468918
vn -0.738207 0.674575 0.000000
vn -1.000000 -0.000000 0.000000
vn -1.000000 -0.000000 0.000000
vn -1.000000 -0.000000 0.000000
vn -1.000000 -0.000000 0.000000
vn -0.371863 -0.016256 0.928145
vn -0.371932 -0.016282 0.928117
vn -0.371845 -0.016250 0.928153
vn -0.371914 -0.016275 0.928124
vn -0.149080 -0.003459 0.988819
vn -0.149077 -0.003458 0.988819
vn -0.149076 -0.003457 0.988820
vn -0.149079 -0.003458 0.988819
vn -0.148980 -0.006710 0.988817
vn -0.148987 -0.006717 0.988816
vn -0.148995 -0.006725 0.988815
vn -0.148988 -0.006717 0.988816
vn -0.148786 -0.006710 0.988847
vn -0.148793 -0.006717 0.988846
vn -0.148800 -0.006725 0.988844
vn -0.148793 -0.006718 0.988846
vn -0.148981 -0.006710 0.988817
vn -0.148988 -0.006717 0.988816
vn -0.148995 -0.006725 0.988815
vn -0.148988 -0.006717 0.988816
vn -0.148980 -0.006710 0.988817
vn -0.148987 -0.006717 0.988816
vn -0.148995 -0.006725 0.988815
vn -0.148988 -0.006717 0.988816
vn -0.148786 -0.006710 0.988847
vn -0.148793 -0.006717 0.988846
vn -0.148800 -0.006725 0.988844
vn -0.148793 -0.006718 0.988846
vn -0.148981 -0.006710 0.988817
vn -0.148988 -0.006717 0.988816
vn -0.148995 -0.006725 0.988815
vn -0.148988 -0.006717 0.988816
vn -0.148980 -0.006710 0.988817
vn -0.148987 -0.006717 0.988816
vn -0.148995 -0.006725 0.988815
vn -0.148988 -0.006717 0.988816
vn -0.148786 -0.006710 0.988847
vn -0.148793 -0.006717 0.988846
vn -0.148800 -0.006725 0.988844
vn -0.148793 -0.006718 0.988846
vn -0.148981 -0.006710 0.988817
vn -0.148988 -0.006717 0.988816
vn -0.148995 -0.006725 0.988815
vn -0.148988 -0.006717 0.988816
vn -0.759091 0.009011 0.650922
vn -0.763793 0.007518 0.645418
vn -0.765790 0.004926 0.643072
vn -0.769566 0.005951 0.638540
vn 0.653522 0.687571 -0.316473
vn 0.765736 -0.626445 -0.145656
vn -0.643588 -0.697794 0.314448
vn -0.628439 0.773910 0.078278
vn 0.618592 0.721258 -0.311658
vn 0.601671 -0.795875 -0.067631
vn -0.704166 -0.632667 0.322309
vn -0.778664 0.609082 0.150673
vn 0.653522 -0.687571 -0.316473
vn 0.765736 0.626444 -0.145656
vn -0.643588 0.697794 0.314448
vn -0.628438 -0.773911 0.078278
vn 0.618591 -0.721259 -0.311658
vn 0.601671 0.795875 -0.067632
vn -0.704166 0.632666 0.322309
vn -0.778664 -0.609082 0.150673
vn 0.714381 0.687970 0.127893
vn 0.705388 -0.626123 0.332261
vn -0.705658 -0.697623 -0.123971
vn -0.554466 0.773882 -0.306063
vn 0.683469 0.721441 0.111324
vn 0.526486 -0.795907 0.298904
vn -0.759244 -0.632518 -0.153197
vn -0.718622 0.608944 -0.335811
vn 0.714381 -0.687970 0.127893
vn 0.705388 0.626123 0.332261
vn -0.705658 0.697623 -0.123971
vn -0.554466 -0.773882 -0.306063
vn 0.683469 -0.721441 0.111324
vn 0.526486 0.795908 0.298904
vn -0.759244 0.632518 -0.153197
vn -0.718622 -0.608944 -0.335811
vn -0.695809 -0.718226 -0.000180
vn 0.714773 -0.699357 0.000003
vn 0.152452 0.855316 0.495169
vn 0.197743 -0.858733 0.472731
vn -0.015572 0.999879 0.000000
vn -0.260194 0.667075 0.698076
vn -0.610084 -0.597041 0.520902
vn 0.699520 0.714613 0.000000
vn 0.663185 -0.589792 0.460794
vn 0.649128 0.605668 0.460216
vn -0.175933 -0.000746 0.984402
vn -0.175934 -0.000746 0.984402
vn -0.175934 -0.000746 0.984402
vn -0.175934 -0.000746 0.984402
vn -0.149047 -0.006718 0.988807
vn -0.149046 -0.006717 0.988807
vn -0.149046 -0.006717 0.988807
vn -0.149046 -0.006717 0.988807
vn -0.200958 -0.014458 0.979493
vn -0.194368 -0.017630 0.980770
vn -1.000000 0.000000 0.000000
vn -1.000000 0.000000 0.000000
vn -0.195379 0.037709 0.980003
vn -0.209886 0.027190 0.977348
vn -1.000000 0.000000 0.000000
vn -1.000000 0.000000 0.000000
vn -0.133600 0.006428 0.991015
vn -0.133617 0.006425 0.991012
vn -0.133767 0.006404 0.990992
vn -0.133784 0.006401 0.990990
vn -0.092100 -0.003300 0.995744
vn -0.124035 -0.551263 0.825061
vn -0.089859 -0.003433 0.995949
vn -0.156593 0.000557 0.987663
vn -0.173612 0.001060 0.984814
vn -0.179981 0.001764 0.983669
vn -0.143258 0.705608 0.693970
vn -0.547533 -0.182791 0.816575
vn -0.706966 -0.707248 0.000442
vn -0.707107 0.707107 0.000000
vn -0.685288 0.611544 0.395467
vn -0.693761 -0.613824 0.376717
vn -0.707107 -0.707107 0.000000
vn -0.352096 -0.935583 -0.026704
vn -0.470940 -0.653736 0.592322
vn -0.240470 0.650508 0.720426
vn 0.000000 1.000000 0.000000
vn -0.839955 -0.542656 0.000000
vn -0.755596 -0.463958 0.462405
vn -0.651513 0.596361 0.468918
vn -0.738208 0.674573 0.000000
vn -1.000000 -0.000000 0.000000
vn -1.000000 -0.000000 0.000000
vn -1.000000 -0.000000 0.000000
vn -1.000000 -0.000000 0.000000
vn -0.371863 -0.016256 0.928145
vn -0.371932 -0.016282 0.928117
vn -0.371845 -0.016250 0.928153
vn -0.371914 -0.016275 0.928124
vn -0.149080 -0.003459 0.988819
vn -0.149077 -0.003458 0.988819
vn -0.149076 -0.003457 0.988820
vn -0.149079 -0.003458 0.988819
vn -0.148980 -0.006710 0.988817
vn -0.148987 -0.006717 0.988816
vn -0.148995 -0.006725 0.988815
vn -0.148988 -0.006717 0.988816
vn -0.148785 -0.006710 0.988847
vn -0.148793 -0.006717 0.988846
vn -0.148800 -0.006725 0.988844
vn -0.148793 -0.006718 0.988845
vn -0.148981 -0.006710 0.988817
vn -0.148988 -0.006717 0.988816
vn -0.148995 -0.006725 0.988815
vn -0.148988 -0.006717 0.988816
vn -0.148980 -0.006710 0.988817
vn -0.148987 -0.006717 0.988816
vn -0.148995 -0.006725 0.988815
vn -0.148988 -0.006717 0.988816
vn -0.148785 -0.006710 0.988847
vn -0.148793 -0.006717 0.988846
vn -0.148800 -0.006725 0.988844
vn -0.148793 -0.006718 0.988845
vn -0.148981 -0.006710 0.988817
vn -0.148988 -0.006717 0.988816
vn -0.148995 -0.006725 0.988815
vn -0.148988 -0.006717 0.988816
vn -0.148980 -0.006710 0.988817
vn -0.148987 -0.006717 0.988816
vn -0.148995 -0.006725 0.988815
vn -0.148988 -0.006717 0.988816
vn -0.148785 -0.006710 0.988847
vn -0.148793 -0.006717 0.988846
vn -0.148800 -0.006725 0.988844
vn -0.148793 -0.006718 0.988845
vn -0.148981 -0.006710 0.988817
vn -0.148988 -0.006717 0.988816
vn -0.148995 -0.006725 0.988815
vn -0.148988 -0.006717 0.988816
vn -0.759091 0.009011 0.650922
vn -0.763793 0.007518 0.645418
vn -0.765790 0.004926 0.643072
vn -0.769566 0.005951 0.638539
vn 0.653520 0.687573 -0.316473
vn 0.765736 -0.626445 -0.145656
vn -0.643589 -0.697793 0.314448
vn -0.628441 0.773909 0.078279
vn 0.618593 0.721257 -0.311658
vn 0.601671 -0.795876 -0.067631
vn -0.704166 -0.632666 0.322309
vn -0.778663 0.609083 0.150673
vn 0.653522 -0.687571 -0.316473
vn 0.765735 0.626445 -0.145656
vn -0.643589 0.697793 0.314448
vn -0.628438 -0.773911 0.078278
vn 0.618593 -0.721258 -0.311658
vn 0.601671 0.795875 -0.067631
vn -0.704166 0.632666 0.322309
vn -0.778663 -0.609083 0.150673
vn 0.714382 0.687969 0.127893
vn 0.705388 -0.626123 0.332261
vn -0.705658 -0.697622 -0.123972
vn -0.554467 0.773881 -0.306063
vn 0.683468 0.721441 0.111324
vn 0.526486 -0.795907 0.298904
vn -0.759244 -0.632518 -0.153197
vn -0.718622 0.608945 -0.335811
vn 0.714381 -0.687970 0.127893
vn 0.705388 0.626123 0.332262
vn -0.705658 0.697623 -0.123971
vn -0.554466 -0.773882 -0.306063
vn 0.683469 -0.721441 0.111324
vn 0.526486 0.795908 0.298904
vn -0.759244 0.632518 -0.153197
vn -0.718622 -0.608944 -0.335811
g fff00789_00129_0024656d_e5
f 100/54/100 23/17/23 24/29/24
f 100/54/100 101/55/101 25/16/25
f 19/23/19 24/28/24 23/29/23
f 23/29/23 20/25/20 19/25/19
f 102/56/102 103/57/103 22/24/22
f 102/56/102 19/25/19 20/27/20
f 101/55/101 100/54/100 24/29/24
f 101/55/101 26/30/26 25/16/25
f 103/57/103 102/56/102 20/27/20
f 103/57/103 21/15/21 22/24/22
f 238/57/238 156/15/156 157/24/157
f 238/57/238 237/56/237 155/27/155
f 236/55/236 161/30/161 160/16/160
f 236/55/236 235/54/235 159/29/159
f 237/56/237 154/25/154 155/27/155
f 237/56/237 238/57/238 157/24/157
f 158/29/158 155/25/155 154/25/154
f 154/23/154 159/28/159 158/29/158
f 235/54/235 236/55/236 160/16/160
f 235/54/235 158/17/158 159/29/159
g fff00789_00129_0024656d_e3
f 29/28/29 27/23/27 28/26/28
f 30/31/30 29/28/29 28/26/28
f 31/33/31 33/35/33 34/37/34
f 31/33/31 34/37/34 32/34/32
f 44/30/44 45/29/45 49/49/49
f 49/49/49 48/47/48 44/30/44
f 2/4/2 7/3/7 1/2/1
f 32/53/32 9/14/9 4/38/4
f 7/11/7 2/4/2 9/14/9
f 7/11/7 9/14/9 32/53/32
f 42/46/42 43/44/43 39/42/39
f 39/42/39 38/41/38 42/46/42
f 40/43/40 41/45/41 6/31/6
f 6/10/6 10/13/10 8/2/8
f 6/31/6 5/24/5 40/43/40
f 37/52/37 3/36/3 10/13/10
f 6/10/6 37/52/37 10/13/10
f 8/2/8 5/4/5 6/1/6
f 143/2/143 140/4/140 141/1/141
f 141/10/141 172/52/172 145/13/145
f 172/52/172 138/36/138 145/13/145
f 141/31/141 140/24/140 175/43/175
f 141/10/141 145/13/145 143/2/143
f 175/43/175 176/45/176 141/31/141
f 174/42/174 173/41/173 177/46/177
f 177/46/177 178/44/178 174/42/174
f 142/11/142 144/14/144 167/53/167
f 142/11/142 137/4/137 144/14/144
f 167/53/167 144/14/144 139/38/139
f 137/4/137 142/3/142 136/2/136
f 184/49/184 183/47/183 179/30/179
f 179/30/179 180/29/180 184/49/184
f 166/33/166 169/37/169 167/34/167
f 166/33/166 168/35/168 169/37/169
f 165/31/165 164/28/164 163/26/163
f 164/28/164 162/23/162 163/26/163
g fff00789_00129_0024656d_e9
f 18/32/18 17/22/17 16/21/16
f 16/21/16 15/20/15 18/32/18
f 151/21/151 150/20/150 153/32/153
f 153/32/153 152/22/152 151/21/151
g fff00789_00129_0024656d_e4
f 41/45/41 42/46/42 38/41/38
f 38/51/38 7/12/7 37/39/37
f 37/39/37 7/12/7 32/40/32
f 38/41/38 6/31/6 41/45/41
f 6/9/6 38/51/38 37/39/37
f 63/32/63 62/22/62 61/21/61
f 61/21/61 60/20/60 63/32/63
f 196/21/196 195/20/195 198/32/198
f 198/32/198 197/22/197 196/21/196
f 141/9/141 173/51/173 172/39/172
f 173/41/173 141/31/141 176/45/176
f 172/39/172 142/12/142 167/40/167
f 173/51/173 142/12/142 172/39/172
f 176/45/176 177/46/177 173/41/173
g fff00789_00129_0024656d_e1
f 50/50/50 49/49/49 45/29/45
f 2/8/2 8/7/8 10/19/10
f 46/41/46 47/42/47 51/48/51
f 10/19/10 9/18/9 2/8/2
f 59/19/59 58/18/58 56/8/56
f 56/8/56 57/7/57 59/19/59
f 45/29/45 46/41/46 50/50/50
f 51/48/51 50/50/50 46/41/46
f 186/48/186 185/50/185 181/41/181
f 180/29/180 181/41/181 185/50/185
f 191/8/191 192/7/192 194/19/194
f 194/19/194 193/18/193 191/8/191
f 145/19/145 144/18/144 137/8/137
f 181/41/181 182/42/182 186/48/186
f 137/8/137 143/7/143 145/19/145
f 185/50/185 184/49/184 180/29/180
g fff00789_00129_0024656d_e8
f 14/32/14 13/21/13 12/22/12
f 13/21/13 14/32/14 11/20/11
f 67/32/67 66/22/66 65/21/65
f 65/21/65 64/20/64 67/32/67
f 71/32/71 70/22/70 69/21/69
f 69/21/69 68/20/68 71/32/71
f 75/32/75 74/22/74 73/21/73
f 73/21/73 72/20/72 75/32/75
f 79/32/79 78/22/78 77/21/77
f 77/21/77 76/20/76 79/32/79
f 83/32/83 82/22/82 81/21/81
f 81/21/81 80/20/80 83/32/83
f 87/32/87 86/22/86 85/21/85
f 85/21/85 84/20/84 87/32/87
f 91/32/91 90/22/90 89/21/89
f 89/21/89 88/20/88 91/32/91
f 95/32/95 94/22/94 93/21/93
f 93/21/93 92/20/92 95/32/95
f 99/32/99 98/22/98 97/21/97
f 97/21/97 96/20/96 99/32/99
f 232/21/232 231/20/231 234/32/234
f 234/32/234 233/22/233 232/21/232
f 228/21/228 227/20/227 230/32/230
f 230/32/230 229/22/229 228/21/228
f 224/21/224 223/20/223 226/32/226
f 226/32/226 225/22/225 224/21/224
f 220/21/220 219/20/219 222/32/222
f 222/32/222 221/22/221 220/21/220
f 216/21/216 215/20/215 218/32/218
f 218/32/218 217/22/217 216/21/216
f 212/21/212 211/20/211 214/32/214
f 214/32/214 213/22/213 212/21/212
f 208/21/208 207/20/207 210/32/210
f 210/32/210 209/22/209 208/21/208
f 204/21/204 203/20/203 206/32/206
f 206/32/206 205/22/205 204/21/204
f 200/21/200 199/20/199 202/32/202
f 202/32/202 201/22/201 200/21/200
f 148/21/148 149/32/149 146/20/146
f 149/32/149 148/21/148 147/22/147
g fff00789_00129_0024656d_e7
f 38/41/38 1/30/1 7/29/7
f 1/30/1 38/41/38 39/42/39
f 43/44/43 41/45/41 40/43/40
f 41/45/41 43/44/43 42/46/42
f 50/50/50 48/47/48 49/49/49
f 48/47/48 50/50/50 51/48/51
f 183/47/183 185/50/185 186/48/186
f 185/50/185 183/47/183 184/49/184
f 176/45/176 178/44/178 177/46/177
f 178/44/178 176/45/176 175/43/175
f 136/30/136 173/41/173 174/42/174
f 173/41/173 136/30/136 142/29/142
g fff00789_00129_0024656d_e12
f 35/35/35 32/40/32 36/37/36
f 35/35/35 37/39/37 32/40/32
f 170/35/170 172/39/172 167/40/167
f 170/35/170 167/40/167 171/37/171
g fff00789_00129_0024656d_e10
f 52/30/52 54/41/54 55/42/55
f 54/41/54 52/30/52 53/29/53
f 189/41/189 187/30/187 188/29/188
f 187/30/187 189/41/189 190/42/190
g fff00789_00129_0024656d_e2
f 3/6/3 4/5/4 9/18/9
f 9/18/9 10/19/10 3/6/3
f 144/18/144 145/19/145 138/6/138
f 138/6/138 139/5/139 144/18/144
g fff00789_00129_0024656d_e0
f 110/61/110 107/32/107 111/59/111
f 107/32/107 110/61/110 106/22/106
f 104/20/104 111/59/111 107/32/107
f 111/59/111 104/20/104 108/58/108
f 105/21/105 108/58/108 104/20/104
f 108/58/108 105/21/105 109/60/109
f 106/22/106 109/60/109 105/21/105
f 109/60/109 106/22/106 110/61/110
f 118/61/118 119/59/119 115/32/115
f 115/32/115 114/22/114 118/61/118
f 112/20/112 115/32/115 119/59/119
f 119/59/119 116/58/116 112/20/112
f 113/21/113 112/20/112 116/58/116
f 116/58/116 117/60/117 113/21/113
f 114/22/114 113/21/113 117/60/117
f 117/60/117 118/61/118 114/22/114
f 126/61/126 123/32/123 127/59/127
f 123/32/123 126/61/126 122/22/122
f 120/20/120 127/59/127 123/32/123
f 127/59/127 120/20/120 124/58/124
f 121/21/121 124/58/124 120/20/120
f 124/58/124 121/21/121 125/60/125
f 122/22/122 125/60/125 121/21/121
f 125/60/125 122/22/122 126/61/126
f 134/61/134 135/59/135 131/32/131
f 131/32/131 130/22/130 134/61/134
f 128/20/128 131/32/131 135/59/135
f 135/59/135 132/58/132 128/20/128
f 129/21/129 128/20/128 132/58/132
f 132/58/132 133/60/133 129/21/129
f 130/22/130 129/21/129 133/60/133
f 133/60/133 134/61/134 130/22/130
f 268/60/268 269/61/269 265/22/265
f 265/22/265 264/21/264 268/60/268
f 267/58/267 268/60/268 264/21/264
f 264/21/264 263/20/263 267/58/267
f 270/59/270 267/58/267 263/20/263
f 263/20/263 266/32/266 270/59/270
f 266/32/266 265/22/265 269/61/269
f 269/61/269 270/59/270 266/32/266
f 260/60/260 257/22/257 261/61/261
f 257/22/257 260/60/260 256/21/256
f 259/58/259 256/21/256 260/60/260
f 256/21/256 259/58/259 255/20/255
f 262/59/262 255/20/255 259/58/259
f 255/20/255 262/59/262 258/32/258
f 258/32/258 261/61/261 257/22/257
f 261/61/261 258/32/258 262/59/262
f 252/60/252 253/61/253 249/22/249
f 249/22/249 248/21/248 252/60/252
f 251/58/251 252/60/252 248/21/248
f 248/21/248 247/20/247 251/58/251
f 254/59/254 251/58/251 247/20/247
f 247/20/247 250/32/250 254/59/254
f 250/32/250 249/22/249 253/61/253
f 253/61/253 254/59/254 250/32/250
f 244/60/244 241/22/241 245/61/245
f 241/22/241 244/60/244 240/21/240
f 243/58/243 240/21/240 244/60/244
f 240/21/240 243/58/243 239/20/239
f 246/59/246 239/20/239 243/58/243
f 239/20/239 246/59/246 242/32/242
f 242/32/242 245/61/245 241/22/241
f 245/61/245 242/32/242 246/59/246
