# fff0af14_00229_007bfed2
o fff0af14_00229_007bfed2
v -0.635382 -1.479365 -0.154245
v 0.644985 -1.479365 -0.154245
v -0.635382 1.541668 -0.154245
v 0.644985 1.541668 -0.154245
v -0.635382 -1.479365 0.980052
v 0.644985 -1.479365 0.980052
v -0.635382 1.541668 0.980052
v 0.644985 1.541668 0.980052
v -0.655414 -1.501780 0.743589
v 0.665036 -1.501780 0.743589
v -0.655414 1.564082 0.743589
v 0.665036 1.564082 0.743589
v -0.655414 -1.501780 0.975585
v 0.665036 -1.501780 0.975585
v -0.655414 1.564082 0.975585
v 0.665036 1.564082 0.975585
v 0.652715 -0.767239 -0.167963
v 0.652715 -0.767242 0.974649
v 0.652715 -0.999236 -0.167963
v 0.652715 -0.999239 0.974649
v 0.652715 1.043314 -0.167963
v 0.652715 1.043311 0.974649
v 0.652715 0.811317 -0.167963
v 0.652715 0.811314 0.974649
v -0.650591 -0.767239 -0.167963
v -0.650591 -0.767242 0.974649
v -0.650591 -0.999236 -0.167963
v -0.650591 -0.999239 0.974649
v -0.650591 1.043314 -0.167963
v -0.650591 1.043311 0.974649
v -0.650591 0.811317 -0.167963
v -0.650591 0.811314 0.974649
v -0.655414 -1.501780 -0.168256
v 0.665036 -1.501780 -0.168256
v -0.655414 1.564082 -0.168256
v 0.665036 1.564082 -0.168256
v -0.655414 -1.501780 0.063740
v 0.665036 -1.501780 0.063740
v -0.655414 1.564082 0.063740
v 0.665036 1.564082 0.063740
v 0.646900 1.121420 -0.171070
v 0.195661 1.559931 0.127068
v 0.646900 1.543066 0.076064
v 0.646900 1.121420 0.458189
v 0.195661 1.559931 0.756327
v 0.646900 1.543066 0.705323
v -0.659491 0.896012 -0.189537
v 0.666534 0.896012 -0.189537
v -0.659491 0.959709 -0.189537
v 0.666534 0.959709 -0.189537
v -0.659491 0.896012 0.982919
v 0.666534 0.896012 0.982919
v -0.659491 0.959709 0.982919
v 0.666534 0.959709 0.982919
v -0.659491 -0.920341 -0.189537
v 0.666534 -0.920341 -0.189537
v -0.659491 -0.856643 -0.189537
v 0.666534 -0.856643 -0.189537
v -0.659491 -0.920341 0.982919
v 0.666534 -0.920341 0.982919
v -0.659491 -0.856643 0.982919
v 0.666534 -0.856643 0.982919
v -0.637387 -1.059862 0.854391
v -0.186147 -1.498372 0.556252
v -0.637387 -1.481509 0.607257
v -0.637387 -1.059862 0.225132
v -0.186147 -1.498372 -0.073007
v -0.637387 -1.481509 -0.022003
v -0.538628 -1.500666 0.252776
v 0.548198 -1.500666 0.252776
v -0.538628 -1.500666 0.955920
v 0.548198 -1.500666 0.955920
v -0.538628 1.554531 0.252776
v 0.548198 1.554531 0.252776
v -0.538628 1.554531 0.955920
v 0.548198 1.554531 0.955920
v 0.389530 -1.114252 0.980535
v 0.551547 -1.114252 0.980535
v 0.389530 -0.668469 0.980535
v 0.551547 -0.668469 0.980535
v 0.389530 0.701175 0.980535
v 0.551547 0.701175 0.980535
v 0.389530 1.146957 0.980535
v 0.551547 1.146957 0.980535
v 0.647415 -0.359178 0.147720
v 0.647415 0.421485 0.147720
v 0.647415 -0.359178 0.678089
v 0.647415 0.421485 0.678089
v 0.417161 -1.022878 0.985004
v 0.512759 -1.022878 0.985004
v 0.417161 -0.759842 0.985004
v 0.512759 -0.759842 0.985004
v 0.417161 0.804137 0.985004
v 0.512759 0.804137 0.985004
v 0.417161 1.067172 0.985004
v 0.512759 1.067172 0.985004
v -0.573771 0.336409 0.997666
v -0.161953 0.336409 0.997666
v -0.573771 0.838467 0.997666
v -0.161953 0.838467 0.997666
v 0.102953 -1.484417 0.725968
v 0.102953 -1.484417 0.314155
v 0.605070 -1.484417 0.725968
v 0.605070 -1.484417 0.314155
v -0.931282 -1.799036 -0.177880
v 0.948042 -1.799036 -0.177880
v -0.931282 1.855318 -0.177880
v 0.948042 1.855318 -0.177880
v -0.629920 -1.485675 -0.177880
v 0.631882 -1.485675 -0.177880
v 0.631882 1.549604 -0.177880
v -0.629920 1.549604 -0.177880
v -2.302195 4.280186 -0.161788
v -1.761093 3.119783 -0.161788
v 0.435782 5.556930 -0.161788
v 0.976906 4.396526 -0.161788
v -2.302195 4.280186 0.972509
v -1.761093 3.119783 0.972509
v 0.435782 5.556930 0.972509
v 0.976906 4.396526 0.972509
v -2.330982 4.288861 0.736046
v -1.772938 3.092139 0.736046
v 0.447645 5.584557 0.736046
v 1.005674 4.387827 0.736046
v -2.330982 4.288861 0.968043
v -1.772938 3.092139 0.968043
v 0.447645 5.584557 0.968043
v 1.005674 4.387827 0.968043
v -1.112420 3.413732 -0.175505
v -1.112419 3.413732 0.967106
v -1.322677 3.315688 -0.175505
v -1.322676 3.315687 0.967106
v 0.528490 4.178901 -0.175505
v 0.528471 4.178899 0.967106
v 0.318234 4.080855 -0.175505
v 0.318213 4.080854 0.967106
v -1.663224 4.594929 -0.175505
v -1.663222 4.594927 0.967106
v -1.873481 4.496884 -0.175505
v -1.873495 4.496876 0.967106
v -0.022313 5.360097 -0.175505
v -0.022311 5.360095 0.967106
v -0.232570 5.262053 -0.175505
v -0.232569 5.262052 0.967106
v -2.330982 4.288861 -0.175799
v -1.772938 3.092139 -0.175799
v 0.447645 5.584557 -0.175799
v 1.005674 4.387827 -0.175799
v -2.330982 4.288861 0.056197
v -1.772938 3.092139 0.056197
v 0.447645 5.584557 0.056197
v 1.005674 4.387827 0.056197
v 0.596828 4.217186 -0.178613
v 0.978961 4.395378 0.068521
v 0.596828 4.217186 0.450646
v 0.978961 4.395378 0.697780
v -0.159557 5.305912 -0.197080
v 0.400833 4.104124 -0.197080
v -0.101842 5.332830 -0.197080
v 0.458565 4.131047 -0.197080
v -0.159557 5.305912 0.975376
v 0.400833 4.104124 0.975376
v -0.101842 5.332830 0.975376
v 0.458565 4.131047 0.975376
v -1.805741 4.538292 -0.197080
v -1.245355 3.336508 -0.197080
v -1.748006 4.565211 -0.197080
v -1.187620 3.363428 -0.197080
v -1.805741 4.538292 0.975376
v -1.245355 3.336508 0.975376
v -1.748006 4.565211 0.975376
v -1.187620 3.363428 0.975376
v -1.922837 4.459297 0.846848
v -2.129581 3.865000 0.548710
v -2.305004 4.281096 0.599715
v -1.922837 4.459297 0.217590
v -2.129581 3.865000 -0.080549
v -2.305004 4.281096 -0.029546
v -2.280619 4.183493 0.245233
v -1.821305 3.198488 0.245233
v -2.280619 4.183493 0.948377
v -1.821305 3.198488 0.948377
v -1.538145 3.505606 0.972992
v -1.469679 3.358765 0.972992
v -1.134127 3.694001 0.972992
v -1.065661 3.547159 0.972992
v 0.107174 4.272839 0.972992
v 0.175641 4.125997 0.972992
v 0.511193 4.461234 0.972992
v 0.579659 4.314392 0.972992
v -0.744847 3.590990 0.140177
v -0.037318 3.920903 0.140177
v -0.744847 3.590990 0.670546
v -0.037318 3.920903 0.670546
v -1.443688 3.519175 0.977462
v -1.403267 3.432531 0.977462
v -1.205275 3.630344 0.977462
v -1.164877 3.543702 0.977462
v 0.212163 4.291305 0.977462
v 0.252572 4.204673 0.977462
v 0.450555 4.402474 0.977462
v 0.490953 4.315832 0.977462
v -0.630525 4.991722 0.990123
v -0.456477 4.618497 0.990123
v -0.175501 5.203905 0.990123
v -0.001463 4.830669 0.990123
v -1.994745 3.608890 0.718425
v -1.994745 3.608890 0.306612
v -1.782546 3.153817 0.718425
v -1.782546 3.153817 0.306612
v -2.716992 4.413267 -0.185423
v -1.957261 2.784068 -0.185423
v 0.594998 5.957651 -0.185423
v 1.354696 4.328463 -0.185423
v -2.305621 4.272563 -0.185423
v -1.772365 3.128984 -0.185423
v 0.978539 4.411747 -0.185423
v 0.445276 5.555334 -0.185423
v -2.441563 2.581094 -0.154245
v -1.900461 1.420692 -0.154245
v 0.296413 3.857839 -0.154245
v 0.837535 2.697437 -0.154245
v -2.441563 2.581094 0.980052
v -1.900461 1.420692 0.980052
v 0.296413 3.857839 0.980052
v 0.837535 2.697437 0.980052
v -2.470339 2.589781 0.743589
v -1.912309 1.393049 0.743589
v 0.308264 3.885478 0.743589
v 0.866305 2.688736 0.743589
v -2.470339 2.589781 0.975585
v -1.912309 1.393049 0.975585
v 0.308264 3.885478 0.975585
v 0.866305 2.688736 0.975585
v -1.251789 1.714641 -0.167963
v -1.251788 1.714640 0.974649
v -1.462047 1.616598 -0.167963
v -1.462047 1.616597 0.974649
v 0.389137 2.479815 -0.167963
v 0.389117 2.479814 0.974649
v 0.178879 2.381772 -0.167963
v 0.178859 2.381770 0.974649
v -1.802596 2.895841 -0.167963
v -1.802595 2.895840 0.974649
v -2.012855 2.797798 -0.167963
v -2.012854 2.797797 0.974649
v -0.161670 3.661016 -0.167963
v -0.161670 3.661015 0.974649
v -0.371929 3.562973 -0.167963
v -0.371939 3.562961 0.974649
v -2.470339 2.589781 -0.168257
v -1.912309 1.393049 -0.168257
v 0.308264 3.885478 -0.168257
v 0.866305 2.688736 -0.168257
v -2.470339 2.589781 0.063740
v -1.912309 1.393049 0.063740
v 0.308264 3.885478 0.063740
v 0.866305 2.688736 0.063740
v 0.457463 2.518090 -0.171070
v 0.664191 3.112382 0.127068
v 0.839605 2.696295 0.076064
v 0.457463 2.518090 0.458189
v 0.664191 3.112382 0.756327
v 0.839605 2.696295 0.705323
v -0.298928 3.606823 -0.189537
v 0.261475 2.405043 -0.189537
v -0.241214 3.633743 -0.189537
v 0.319199 2.431953 -0.189537
v -0.298928 3.606823 0.982919
v 0.261475 2.405043 0.982919
v -0.241214 3.633743 0.982919
v 0.319199 2.431953 0.982919
v -1.945111 2.839201 -0.189537
v -1.384707 1.637421 -0.189537
v -1.887377 2.866122 -0.189537
v -1.326973 1.664342 -0.189537
v -1.945111 2.839201 0.982919
v -1.384707 1.637421 0.982919
v -1.887377 2.866122 0.982919
v -1.326973 1.664342 0.982919
v -2.062209 2.760209 0.854391
v -2.268937 2.165918 0.556252
v -2.444360 2.582014 0.607257
v -2.062209 2.760209 0.225132
v -2.268937 2.165918 -0.073007
v -2.444360 2.582014 -0.022003
v -2.419989 2.484403 0.252776
v -1.960664 1.499409 0.252776
v -2.419989 2.484403 0.955920
v -1.960664 1.499409 0.955920
v 0.348970 3.775589 0.252776
v 0.808274 2.790594 0.252776
v 0.348970 3.775589 0.955920
v 0.808274 2.790594 0.955920
v -1.677513 1.806513 0.980535
v -1.609036 1.659682 0.980535
v -1.273496 1.994910 0.980535
v -1.205019 1.848079 0.980535
v -0.032180 2.573754 0.980535
v 0.036286 2.426913 0.980535
v 0.371837 2.762151 0.980535
v 0.440303 2.615309 0.980535
v -0.884200 1.891904 0.147720
v -0.176677 2.221822 0.147720
v -0.884200 1.891904 0.678089
v -0.176677 2.221822 0.678089
v -1.583028 1.820097 0.985004
v -1.542620 1.733445 0.985004
v -1.344627 1.931257 0.985004
v -1.304229 1.844615 0.985004
v 0.072810 2.592219 0.985004
v 0.113208 2.505577 0.985004
v 0.311201 2.703389 0.985004
v 0.351600 2.616747 0.985004
v -0.769884 3.292642 0.997666
v -0.595845 2.919405 0.997666
v -0.314859 3.504823 0.997666
v -0.140820 3.131587 0.997666
v -2.134101 1.909808 0.725968
v -2.134101 1.909808 0.314155
v -1.921906 1.454738 0.725968
v -1.921906 1.454738 0.314155
v -2.856344 2.714180 -0.177880
v -2.062101 1.010936 -0.177880
v 0.455637 4.258574 -0.177880
v 1.249860 2.555327 -0.177880
v -2.444980 2.573485 -0.177880
v -1.911723 1.429903 -0.177880
v 0.839180 2.712667 -0.177880
v 0.305923 3.856249 -0.177880
v -2.505636 5.717914 -0.161788
v -1.771244 4.669113 -0.161788
v -0.030962 7.450706 -0.161788
v 0.703440 6.401895 -0.161788
v -2.505636 5.717914 0.972509
v -1.771244 4.669113 0.972509
v -0.030962 7.450706 0.972509
v 0.703440 6.401895 0.972509
v -2.535490 5.721462 0.736046
v -1.778119 4.639821 0.736046
v -0.024080 7.479970 0.736046
v 0.733290 6.398329 0.736046
v -2.535490 5.721462 0.968043
v -1.778119 4.639821 0.968043
v -0.024080 7.479970 0.968043
v 0.733290 6.398329 0.968043
v -1.183478 5.071228 -0.175505
v -1.183478 5.071227 0.967106
v -1.373517 4.938161 -0.175505
v -1.373516 4.938160 0.967106
v 0.299641 6.109723 -0.175505
v 0.299623 6.109719 0.967106
v 0.109603 5.976655 -0.175505
v 0.109574 5.976641 0.967106
v -1.931025 6.138836 -0.175505
v -1.931023 6.138835 0.967106
v -2.121063 6.005770 -0.175505
v -2.121074 6.005759 0.967106
v -0.447914 7.177319 -0.175505
v -0.447913 7.177317 0.967106
v -0.637952 7.044251 -0.175505
v -0.637951 7.044250 0.967106
v -2.535490 5.721462 -0.175799
v -1.778119 4.639821 -0.175799
v -0.024080 7.479970 -0.175799
v 0.733290 6.398329 -0.175799
v -2.535490 5.721462 0.056197
v -1.778119 4.639821 0.056197
v -0.024080 7.479970 0.056197
v 0.733290 6.398329 0.056197
v 0.360285 6.159284 -0.178613
v 0.705674 6.401129 0.068521
v 0.360285 6.159284 0.450646
v 0.705674 6.401129 0.697780
v -0.573658 7.100132 -0.197080
v 0.186897 6.013904 -0.197080
v -0.521496 7.136661 -0.197080
v 0.239074 6.050438 -0.197080
v -0.573658 7.100132 0.975376
v 0.186897 6.013904 0.975376
v -0.521496 7.136661 0.975376
v 0.239074 6.050438 0.975376
v -2.061543 6.058310 -0.197080
v -1.300981 4.972096 -0.197080
v -2.009362 6.094841 -0.197080
v -1.248791 5.008640 -0.197080
v -2.061543 6.058310 0.975376
v -1.300981 4.972096 0.975376
v -2.009362 6.094841 0.975376
v -1.248791 5.008640 0.975376
v -2.163146 5.960177 0.846848
v -2.263547 5.339013 0.548710
v -2.508565 5.718318 0.599715
v -2.163146 5.960177 0.217590
v -2.263547 5.339013 -0.080549
v -2.508565 5.718318 -0.029546
v -2.467593 5.626441 0.245233
v -1.844220 4.736155 0.245233
v -2.467593 5.626441 0.948377
v -1.844220 4.736155 0.948377
v -1.618688 5.087780 0.972992
v -1.525762 4.955062 0.972992
v -1.253523 5.343470 0.972992
v -1.160596 5.210751 0.972992
v -0.131599 6.129059 0.972992
v -0.038672 5.996340 0.972992
v 0.233578 6.384759 0.972992
v 0.326494 6.252028 0.972992
v -0.852269 5.309623 0.140177
v -0.212771 5.757391 0.140177
v -0.852269 5.309623 0.670546
v -0.212771 5.757391 0.670546
v -1.528022 5.117547 0.977462
v -1.473169 5.039237 0.977462
v -1.312543 5.268418 0.977462
v -1.257702 5.190120 0.977462
v -0.031405 6.165483 0.977462
v 0.023425 6.087174 0.977462
v 0.184054 6.316351 0.977462
v 0.238896 6.238054 0.977462
v -0.982914 6.708929 0.990123
v -0.746701 6.371596 0.990123
v -0.571653 6.996898 0.990123
v -0.335449 6.659553 0.990123
v -2.086291 5.110204 0.718425
v -2.086291 5.110204 0.306612
v -1.798287 4.698896 0.718425
v -1.798287 4.698896 0.306612
v -2.937237 5.776950 -0.185423
v -1.906139 4.304429 -0.185423
v 0.056257 7.872993 -0.185423
v 1.087324 6.400480 -0.185423
v -2.507682 5.709818 -0.185423
v -1.783950 4.676208 -0.185423
v 0.702418 6.417181 -0.185423
v -0.021332 7.450786 -0.185423
vt 0.127035 0.106409
vt 0.127035 2.045681
vt 1.865773 2.045681
vt 1.865773 0.106409
vt 0.127035 2.045681
vt 0.127035 0.106409
vt 1.865773 0.106409
vt 1.865773 2.045681
vt 0.466158 1.581967
vt 1.482882 1.581967
vt 1.482882 0.280979
vt 0.466158 0.280979
vt 1.482882 1.581967
vt 0.466158 1.581967
vt 0.466158 0.280980
vt 1.482882 0.280980
vt 1.469535 0.566483
vt 1.469535 2.569867
vt 2.514681 2.569867
vt 2.514681 0.566483
vt 1.469535 2.569867
vt 1.469535 0.566483
vt 2.514681 0.566483
vt 2.514681 2.569867
vt 0.471779 0.562070
vt 1.480807 0.562070
vt 1.480807 1.584639
vt 0.471779 1.584639
vt 1.480807 0.562072
vt 0.471779 0.562072
vt 0.471779 1.584641
vt 1.480807 1.584641
vt 1.467279 -0.434697
vt 2.479470 -0.434697
vt 2.479470 1.573604
vt 1.467279 1.573604
vt 1.467279 1.211291
vt 1.467279 2.963003
vt 2.487596 2.963003
vt 2.487596 1.211291
vt 1.467279 1.211291
vt 2.487596 2.963003
vt 1.467279 2.963003
vt 2.487596 1.211291
vt 2.829443 0.537255
vt 1.092026 1.587922
vt 1.092026 0.537272
vt 2.829443 1.587907
vt 2.829443 0.537255
vt 1.092026 0.537272
vt 1.092026 1.587922
vt 2.829443 1.587907
vt 1.999999 0.980138
vt 1.999999 1.495502
vt 0.999999 1.495502
vt 0.999999 0.980138
vt 1.999999 1.973516
vt 0.999999 1.973516
vt 1.000009 1.000000
vt 1.000009 1.000000
vt 1.000009 1.000000
vt 1.000009 1.000000
vt 1.000009 1.000000
vt 1.000009 1.000000
vt 1.000009 1.000000
vt 1.000009 1.000000
vt 1.000009 1.000000
vt 1.000009 1.000000
vt 1.000009 1.000000
vt 1.000009 1.000000
vt 1.000009 1.000000
vt 1.000009 1.000000
vt 1.000009 1.000000
vt 1.000009 1.000000
vt 1.222385 2.000000
vt 1.574425 1.038454
vt 2.470801 1.038454
vt 2.118759 2.000000
vt 0.881037 1.000000
vt 1.777411 1.000000
vt 1.000000 1.000000
vt 2.000000 1.000000
vt 2.000000 2.000000
vt 1.000000 2.000000
vt 0.999999 1.000013
vt 1.999999 1.000013
vt 1.999999 2.000013
vt 0.999999 2.000013
vt 1.000002 2.000000
vt 1.000002 1.000000
vt 2.017817 1.000000
vt 2.017817 2.000000
vt 1.563409 -0.243964
vt 2.274148 -0.391947
vt 2.388913 1.393927
vt 1.476085 1.407110
vn -0.707107 -0.707107 0.000000
vn 0.707107 -0.707107 0.000000
vn -0.707107 0.707107 0.000000
vn 0.707107 0.707107 0.000000
vn -0.577350 -0.577350 0.577350
vn 0.577350 -0.577350 0.577350
vn -0.577350 0.577350 0.577350
vn 0.577350 0.577350 0.577350
vn -0.707107 -0.707107 0.000000
vn 0.707107 -0.707107 0.000000
vn -0.707107 0.707107 0.000000
vn 0.707107 0.707107 0.000000
vn -0.707107 -0.707107 0.000000
vn 0.707107 -0.707107 0.000000
vn -0.707107 0.707107 0.000000
vn 0.707107 0.707107 0.000000
vn 1.000000 0.000000 0.000000
vn 1.000000 0.000000 0.000000
vn 1.000000 0.000000 0.000000
vn 1.000000 0.000000 0.000000
vn 1.000000 0.000000 0.000000
vn 1.000000 0.000000 0.000000
vn 1.000000 0.000000 0.000000
vn 1.000000 0.000000 0.000000
vn -1.000000 0.000000 0.000000
vn -1.000000 0.000000 0.000000
vn -1.000000 0.000000 0.000000
vn -1.000000 0.000000 0.000000
vn -1.000000 0.000000 0.000000
vn -1.000000 0.000000 0.000000
vn -1.000000 0.000000 0.000000
vn -1.000000 0.000000 0.000000
vn -0.707107 -0.707107 0.000000
vn 0.707107 -0.707107 0.000000
vn -0.707107 0.707107 0.000000
vn 0.707107 0.707107 0.000000
vn -0.707107 -0.707107 0.000000
vn 0.707107 -0.707107 0.000000
vn -0.707107 0.707107 0.000000
vn 0.707107 0.707107 0.000000
vn 1.000000 0.000000 0.000000
vn 0.037348 0.999302 0.000000
vn 0.828421 0.560106 0.000000
vn 1.000000 0.000000 0.000000
vn 0.037348 0.999302 0.000000
vn 0.548531 0.836131 0.000000
vn -1.000000 0.000000 0.000000
vn 1.000000 0.000000 0.000000
vn -1.000000 0.000000 0.000000
vn 1.000000 0.000000 0.000000
vn -0.707107 0.000000 0.707107
vn 0.707107 0.000000 0.707107
vn -0.707107 0.000000 0.707107
vn 0.707107 0.000000 0.707107
vn -1.000000 0.000000 0.000000
vn 1.000000 0.000000 0.000000
vn -1.000000 0.000000 0.000000
vn 1.000000 0.000000 0.000000
vn -0.707107 0.000000 0.707107
vn 0.707107 0.000000 0.707107
vn -0.707107 0.000000 0.707107
vn 0.707107 0.000000 0.707107
vn -1.000000 0.000000 0.000000
vn -0.037343 -0.999303 0.000000
vn -0.828420 -0.560108 0.000000
vn -1.000000 0.000000 0.000000
vn -0.037343 -0.999302 0.000000
vn -0.548527 -0.836133 0.000000
vn 0.000000 -1.000000 0.000000
vn 0.000000 -1.000000 0.000000
vn 0.000000 -1.000000 0.000000
vn 0.000000 -1.000000 0.000000
vn 0.000000 1.000000 0.000000
vn 0.000000 1.000000 0.000000
vn 0.000000 1.000000 0.000000
vn 0.000000 1.000000 0.000000
vn 0.000000 0.000000 1.000000
vn 0.000000 0.000000 1.000000
vn 0.000000 0.000000 1.000000
vn 0.000000 0.000000 1.000000
vn 0.000000 0.000000 1.000000
vn 0.000000 0.000000 1.000000
vn 0.000000 0.000000 1.000000
vn 0.000000 0.000000 1.000000
vn 1.000000 0.000000 0.000000
vn 1.000000 0.000000 0.000000
vn 1.000000 0.000000 0.000000
vn 1.000000 0.000000 0.000000
vn 0.000000 0.000000 1.000000
vn 0.000000 0.000000 1.000000
vn 0.000000 0.000000 1.000000
vn 0.000000 0.000000 1.000000
vn 0.000000 0.000000 1.000000
vn 0.000000 0.000000 1.000000
vn 0.000000 0.000000 1.000000
vn 0.000000 0.000000 1.000000
vn 0.000000 0.000000 1.000000
vn 0.000000 0.000000 1.000000
vn 0.000000 0.000000 1.000000
vn 0.000000 0.000000 1.000000
vn 0.000000 -1.000000 0.000000
vn 0.000000 -1.000000 0.000000
vn 0.000000 -1.000000 0.000000
vn 0.000000 -1.000000 0.000000
vn 0.000000 0.000000 1.000000
vn 0.000000 0.000000 1.000000
vn 0.000000 0.000000 1.000000
vn 0.000000 0.000000 1.000000
vn 0.000000 0.000000 1.000000
vn 0.000000 0.000000 1.000000
vn 0.000000 0.000000 1.000000
vn 0.000000 0.000000 1.000000
vn -0.939692 0.342020 0.000000
vn -0.342022 -0.939692 0.000000
vn -0.422619 0.906307 0.000000
vn 0.422617 -0.906309 0.000000
vn -0.767256 0.279259 0.577350
vn -0.279260 -0.767255 0.577350
vn -0.298836 0.640854 0.707110
vn 0.298836 -0.640860 0.707103
vn -0.939693 0.342019 0.000000
vn -0.342019 -0.939693 0.000000
vn -0.422618 0.906308 0.000000
vn 0.422618 -0.906308 0.000000
vn -0.939693 0.342019 0.000000
vn -0.342019 -0.939693 0.000000
vn -0.422618 0.906308 0.000000
vn 0.422618 -0.906308 0.000000
vn 0.422618 -0.906308 -0.000001
vn 0.422620 -0.906307 -0.000001
vn 0.422617 -0.906308 -0.000001
vn 0.422620 -0.906307 -0.000001
vn 0.422622 -0.906306 0.000007
vn 0.422617 -0.906308 0.000006
vn 0.422623 -0.906306 0.000007
vn 0.422618 -0.906308 0.000006
vn -0.422618 0.906308 0.000001
vn -0.422616 0.906309 0.000002
vn -0.422618 0.906308 0.000001
vn -0.422617 0.906309 0.000002
vn -0.422616 0.906309 0.000001
vn -0.422614 0.906310 0.000002
vn -0.422617 0.906308 0.000001
vn -0.422614 0.906310 0.000002
vn -0.939693 0.342019 0.000000
vn -0.342019 -0.939693 0.000000
vn -0.422618 0.906308 0.000000
vn 0.422618 -0.906308 0.000000
vn -0.939693 0.342019 0.000000
vn -0.342019 -0.939693 0.000000
vn -0.422618 0.906308 0.000000
vn 0.422618 -0.906308 0.000000
vn 0.422618 -0.906308 0.000000
vn 0.422618 -0.906308 0.000000
vn 0.422618 -0.906308 0.000000
vn 0.422618 -0.906308 0.000000
vn -0.422692 0.906273 0.000000
vn 0.422640 -0.906298 0.000000
vn -0.422692 0.906273 0.000000
vn 0.422640 -0.906298 0.000000
vn -0.298880 0.640814 0.707127
vn 0.298855 -0.640856 0.707099
vn -0.298896 0.640848 0.707089
vn 0.298850 -0.640845 0.707111
vn -0.422576 0.906328 0.000000
vn 0.422585 -0.906323 0.000000
vn -0.422576 0.906328 0.000000
vn 0.422585 -0.906323 0.000000
vn -0.298810 0.640878 0.707098
vn 0.298810 -0.640862 0.707113
vn -0.298803 0.640863 0.707115
vn 0.298815 -0.640872 0.707101
vn -0.422606 0.906313 0.000000
vn -0.921457 -0.388480 0.000000
vn -0.857734 0.514093 0.000000
vn -0.422606 0.906313 0.000000
vn -0.921457 -0.388480 0.000000
vn -0.989609 0.143784 0.000000
vn -0.906308 -0.422618 0.000000
vn -0.906308 -0.422618 0.000000
vn -0.906308 -0.422618 0.000000
vn -0.906308 -0.422618 0.000000
vn 0.000000 0.000000 1.000000
vn 0.000000 0.000000 1.000000
vn 0.000000 0.000000 1.000000
vn 0.000000 0.000000 1.000000
vn 0.000000 0.000000 1.000000
vn 0.000000 0.000000 1.000000
vn 0.000000 0.000000 1.000000
vn 0.000000 0.000000 1.000000
vn 0.422604 -0.906314 0.000000
vn 0.422604 -0.906314 0.000000
vn 0.422604 -0.906314 0.000000
vn 0.422604 -0.906314 0.000000
vn 0.000000 0.000000 1.000000
vn 0.000000 0.000000 1.000000
vn 0.000000 0.000000 1.000000
vn 0.000000 0.000000 1.000000
vn 0.000000 0.000000 1.000000
vn 0.000000 0.000000 1.000000
vn 0.000000 0.000000 1.000000
vn 0.000000 0.000000 1.000000
vn 0.000000 0.000000 1.000000
vn 0.000000 0.000000 1.000000
vn 0.000000 0.000000 1.000000
vn 0.000000 0.000000 1.000000
vn -0.906311 -0.422611 0.000000
vn -0.906311 -0.422611 0.000000
vn -0.906311 -0.422611 0.000000
vn -0.906311 -0.422611 0.000000
vn 0.000000 0.000000 1.000000
vn 0.000000 0.000000 1.000000
vn 0.000000 0.000000 1.000000
vn 0.000000 0.000000 1.000000
vn 0.000000 0.000000 1.000000
vn 0.000000 0.000000 1.000000
vn 0.000000 0.000000 1.000000
vn 0.000000 0.000000 1.000000
vn -0.939692 0.342020 0.000000
vn -0.342022 -0.939692 0.000000
vn 0.342013 0.939695 0.000000
vn 0.939695 -0.342015 0.000000
vn -0.767256 0.279258 0.577350
vn -0.279260 -0.767255 0.577350
vn 0.279253 0.767257 0.577351
vn 0.767258 -0.279254 0.577350
vn -0.939692 0.342023 0.000000
vn -0.342025 -0.939691 0.000000
vn 0.342021 0.939692 0.000000
vn 0.939691 -0.342023 0.000000
vn -0.939692 0.342023 0.000000
vn -0.342025 -0.939691 0.000000
vn 0.342021 0.939692 0.000000
vn 0.939691 -0.342023 0.000000
vn 0.422611 -0.906311 -0.000001
vn 0.422612 -0.906311 -0.000001
vn 0.422611 -0.906311 -0.000001
vn 0.422612 -0.906311 -0.000001
vn 0.422609 -0.906312 0.000006
vn 0.422611 -0.906311 0.000006
vn 0.422609 -0.906312 0.000006
vn 0.422611 -0.906311 0.000006
vn -0.422610 0.906312 0.000001
vn -0.422610 0.906312 0.000001
vn -0.422610 0.906311 0.000001
vn -0.422610 0.906312 0.000001
vn -0.422613 0.906310 0.000005
vn -0.422632 0.906302 0.000001
vn -0.422610 0.906311 0.000005
vn -0.422629 0.906303 0.000001
vn -0.939692 0.342023 0.000000
vn -0.342025 -0.939691 0.000000
vn 0.342021 0.939692 0.000000
vn 0.939691 -0.342023 0.000000
vn -0.939692 0.342023 0.000000
vn -0.342025 -0.939691 0.000000
vn 0.342021 0.939692 0.000000
vn 0.939691 -0.342023 0.000000
vn 0.422637 -0.906299 0.000000
vn 0.921462 0.388470 0.000000
vn 0.857741 -0.514082 0.000000
vn 0.422637 -0.906299 0.000000
vn 0.921462 0.388470 0.000000
vn 0.989611 -0.143773 0.000000
vn -0.422716 0.906262 0.000000
vn 0.422527 -0.906350 0.000000
vn -0.422716 0.906262 0.000000
vn 0.422527 -0.906350 0.000000
vn -0.298895 0.640802 0.707131
vn 0.298762 -0.640865 0.707130
vn -0.298915 0.640845 0.707084
vn 0.298782 -0.640909 0.707082
vn -0.422604 0.906315 0.000000
vn 0.422602 -0.906315 0.000000
vn -0.422604 0.906315 0.000000
vn 0.422602 -0.906315 0.000000
vn -0.298828 0.640865 0.707102
vn 0.298823 -0.640857 0.707111
vn -0.298824 0.640857 0.707111
vn 0.298827 -0.640866 0.707102
vn -0.422609 0.906312 0.000000
vn -0.921457 -0.388480 0.000000
vn -0.857733 0.514095 0.000000
vn -0.422609 0.906312 0.000000
vn -0.921457 -0.388480 0.000000
vn -0.989610 0.143776 0.000000
vn -0.906303 -0.422629 0.000000
vn -0.906303 -0.422629 0.000000
vn -0.906303 -0.422629 0.000000
vn -0.906303 -0.422629 0.000000
vn 0.906310 0.422614 0.000000
vn 0.906310 0.422614 0.000000
vn 0.906310 0.422614 0.000000
vn 0.906310 0.422614 0.000000
vn 0.000000 0.000000 1.000000
vn 0.000000 0.000000 1.000000
vn 0.000000 0.000000 1.000000
vn 0.000000 0.000000 1.000000
vn 0.000000 0.000000 1.000000
vn 0.000000 0.000000 1.000000
vn 0.000000 0.000000 1.000000
vn 0.000000 0.000000 1.000000
vn 0.422612 -0.906311 0.000000
vn 0.422612 -0.906311 0.000000
vn 0.422612 -0.906311 0.000000
vn 0.422612 -0.906311 0.000000
vn 0.000000 0.000000 1.000000
vn 0.000000 0.000000 1.000000
vn 0.000000 0.000000 1.000000
vn 0.000000 0.000000 1.000000
vn 0.000000 0.000000 1.000000
vn 0.000000 0.000000 1.000000
vn 0.000000 0.000000 1.000000
vn 0.000000 0.000000 1.000000
vn 0.000000 0.000000 1.000000
vn 0.000000 0.000000 1.000000
vn 0.000000 0.000000 1.000000
vn 0.000000 0.000000 1.000000
vn -0.906313 -0.422607 0.000000
vn -0.906313 -0.422607 0.000000
vn -0.906313 -0.422607 0.000000
vn -0.906313 -0.422607 0.000000
vn 0.000000 0.000000 1.000000
vn 0.000000 0.000000 1.000000
vn 0.000000 0.000000 1.000000
vn 0.000000 0.000000 1.000000
vn 0.000000 0.000000 1.000000
vn 0.000000 0.000000 1.000000
vn 0.000000 0.000000 1.000000
vn 0.000000 0.000000 1.000000
vn -0.984809 0.173643 0.000000
vn -0.173645 -0.984808 0.000000
vn -0.573578 0.819151 0.000000
vn 0.573574 -0.819154 0.000000
vn -0.804093 0.141779 0.577350
vn -0.141781 -0.804092 0.577351
vn -0.405580 0.579226 0.707109
vn 0.405580 -0.579232 0.707104
vn -0.984808 0.173649 0.000000
vn -0.173649 -0.984808 0.000000
vn -0.573576 0.819152 0.000000
vn 0.573577 -0.819152 0.000000
vn -0.984808 0.173649 0.000000
vn -0.173649 -0.984808 0.000000
vn -0.573576 0.819152 0.000000
vn 0.573577 -0.819152 0.000000
vn 0.573577 -0.819152 -0.000001
vn 0.573579 -0.819150 -0.000000
vn 0.573577 -0.819152 -0.000001
vn 0.573579 -0.819150 -0.000001
vn 0.573584 -0.819147 0.000005
vn 0.573588 -0.819144 0.000006
vn 0.573584 -0.819147 0.000005
vn 0.573587 -0.819144 0.000006
vn -0.573578 0.819151 0.000002
vn -0.573578 0.819151 0.000002
vn -0.573578 0.819151 0.000002
vn -0.573578 0.819151 0.000002
vn -0.573580 0.819150 0.000002
vn -0.573578 0.819151 0.000002
vn -0.573580 0.819150 0.000002
vn -0.573579 0.819151 0.000002
vn -0.984808 0.173649 0.000000
vn -0.173649 -0.984808 0.000000
vn -0.573576 0.819152 0.000000
vn 0.573577 -0.819152 0.000000
vn -0.984808 0.173649 0.000000
vn -0.173649 -0.984808 0.000000
vn -0.573576 0.819152 0.000000
vn 0.573577 -0.819152 0.000000
vn 0.573578 -0.819151 0.000000
vn 0.573578 -0.819151 0.000000
vn 0.573578 -0.819151 0.000000
vn 0.573578 -0.819151 0.000000
vn -0.573633 0.819112 0.000000
vn 0.573569 -0.819157 0.000000
vn -0.573633 0.819112 0.000000
vn 0.573569 -0.819157 0.000000
vn -0.405609 0.579184 0.707127
vn 0.405576 -0.579233 0.707105
vn -0.405630 0.579214 0.707090
vn 0.405575 -0.579232 0.707106
vn -0.573518 0.819193 0.000000
vn 0.573576 -0.819152 0.000000
vn -0.573518 0.819193 0.000000
vn 0.573576 -0.819152 0.000000
vn -0.405546 0.579268 0.707093
vn 0.405581 -0.579230 0.707105
vn -0.405528 0.579243 0.707124
vn 0.405580 -0.579229 0.707105
vn -0.573568 0.819158 0.000000
vn -0.839989 -0.542603 0.000000
vn -0.933978 0.357332 0.000000
vn -0.573568 0.819158 0.000000
vn -0.839989 -0.542603 0.000000
vn -0.999542 -0.030257 0.000000
vn -0.819157 -0.573569 0.000000
vn -0.819157 -0.573569 0.000000
vn -0.819157 -0.573569 0.000000
vn -0.819157 -0.573569 0.000000
vn 0.000000 0.000000 1.000000
vn 0.000000 0.000000 1.000000
vn 0.000000 0.000000 1.000000
vn 0.000000 0.000000 1.000000
vn 0.000000 0.000000 1.000000
vn 0.000000 0.000000 1.000000
vn 0.000000 0.000000 1.000000
vn 0.000000 0.000000 1.000000
vn 0.573565 -0.819160 0.000000
vn 0.573565 -0.819160 0.000000
vn 0.573565 -0.819160 0.000000
vn 0.573565 -0.819160 0.000000
vn 0.000000 0.000000 1.000000
vn 0.000000 0.000000 1.000000
vn 0.000000 0.000000 1.000000
vn 0.000000 0.000000 1.000000
vn 0.000000 0.000000 1.000000
vn 0.000000 0.000000 1.000000
vn 0.000000 0.000000 1.000000
vn 0.000000 0.000000 1.000000
vn 0.000000 0.000000 1.000000
vn 0.000000 0.000000 1.000000
vn 0.000000 0.000000 1.000000
vn 0.000000 0.000000 1.000000
vn -0.819149 -0.573581 0.000000
vn -0.819149 -0.573581 0.000000
vn -0.819149 -0.573581 0.000000
vn -0.819149 -0.573581 0.000000
vn 0.000000 0.000000 1.000000
vn 0.000000 0.000000 1.000000
vn 0.000000 0.000000 1.000000
vn 0.000000 0.000000 1.000000
vn 0.000000 0.000000 1.000000
vn 0.000000 0.000000 1.000000
vn 0.000000 0.000000 1.000000
vn 0.000000 0.000000 1.000000
g fff0af14_00229_007bfed2_e0
f 34/23/34 36/24/36 40/21/40
f 40/21/40 38/22/38 34/23/34
f 32/45/32 29/46/29 31/47/31
f 29/46/29 32/45/32 30/48/30
f 20/37/20 19/38/19 17/39/17
f 17/39/17 18/40/18 20/37/20
f 28/41/28 25/42/25 27/43/27
f 25/42/25 28/41/28 26/44/26
f 13/17/13 15/18/15 11/19/11
f 11/19/11 9/20/9 13/17/13
f 24/49/24 23/50/23 21/51/21
f 21/51/21 22/52/22 24/49/24
f 16/21/16 14/22/14 10/23/10
f 10/23/10 12/24/12 16/21/16
f 37/17/37 39/18/39 35/19/35
f 35/19/35 33/20/33 37/17/37
f 146/23/146 148/24/148 152/21/152
f 152/21/152 150/22/150 146/23/146
f 144/45/144 141/46/141 143/47/143
f 141/46/141 144/45/144 142/48/142
f 132/37/132 131/38/131 129/39/129
f 129/39/129 130/40/130 132/37/132
f 140/41/140 137/42/137 139/43/139
f 137/42/137 140/41/140 138/44/138
f 125/17/125 127/18/127 123/19/123
f 123/19/123 121/20/121 125/17/125
f 136/49/136 135/50/135 133/51/133
f 133/51/133 134/52/134 136/49/136
f 128/21/128 126/22/126 122/23/122
f 122/23/122 124/24/124 128/21/128
f 149/17/149 151/18/151 147/19/147
f 147/19/147 145/20/145 149/17/149
f 252/23/252 254/24/254 258/21/258
f 258/21/258 256/22/256 252/23/252
f 250/45/250 247/46/247 249/47/249
f 247/46/247 250/45/250 248/48/248
f 238/37/238 237/38/237 235/39/235
f 235/39/235 236/40/236 238/37/238
f 246/41/246 243/42/243 245/43/245
f 243/42/243 246/41/246 244/44/244
f 231/17/231 233/18/233 229/19/229
f 229/19/229 227/20/227 231/17/231
f 242/49/242 241/50/241 239/51/239
f 239/51/239 240/52/240 242/49/242
f 234/21/234 232/22/232 228/23/228
f 228/23/228 230/24/230 234/21/234
f 255/17/255 257/18/257 253/19/253
f 253/19/253 251/20/251 255/17/255
f 364/23/364 366/24/366 370/21/370
f 370/21/370 368/22/368 364/23/364
f 362/45/362 359/46/359 361/47/361
f 359/46/359 362/45/362 360/48/360
f 350/37/350 349/38/349 347/39/347
f 347/39/347 348/40/348 350/37/350
f 358/41/358 355/42/355 357/43/357
f 355/42/355 358/41/358 356/44/356
f 343/17/343 345/18/345 341/19/341
f 341/19/341 339/20/339 343/17/343
f 354/49/354 353/50/353 351/51/351
f 351/51/351 352/52/352 354/49/354
f 346/21/346 344/22/344 340/23/340
f 340/23/340 342/24/342 346/21/346
f 367/17/367 369/18/369 365/19/365
f 365/19/365 363/20/363 367/17/367
g fff0af14_00229_007bfed2_e1
f 5/33/5 6/34/6 8/35/8
f 8/35/8 7/36/7 5/33/5
f 51/59/51 52/60/52 54/61/54
f 54/61/54 53/62/53 51/59/51
f 59/63/59 60/64/60 62/65/62
f 62/65/62 61/66/61 59/63/59
f 117/33/117 118/34/118 120/35/120
f 120/35/120 119/36/119 117/33/117
f 161/59/161 162/60/162 164/61/164
f 164/61/164 163/62/163 161/59/161
f 169/63/169 170/64/170 172/65/172
f 172/65/172 171/66/171 169/63/169
f 223/33/223 224/34/224 226/35/226
f 226/35/226 225/36/225 223/33/223
f 269/59/269 270/60/270 272/61/272
f 272/61/272 271/62/271 269/59/269
f 277/63/277 278/64/278 280/65/280
f 280/65/280 279/66/279 277/63/277
f 335/33/335 336/34/336 338/35/338
f 338/35/338 337/36/337 335/33/335
f 379/59/379 380/60/380 382/61/382
f 382/61/382 381/62/381 379/59/379
f 387/63/387 388/64/388 390/65/390
f 390/65/390 389/66/389 387/63/387
g fff0af14_00229_007bfed2_e2
f 2/1/2 4/2/4 8/3/8
f 8/3/8 6/4/6 2/1/2
f 3/5/3 1/6/1 5/7/5
f 5/7/5 7/8/7 3/5/3
f 9/25/9 10/26/10 14/27/14
f 14/27/14 13/28/13 9/25/9
f 12/29/12 11/30/11 15/31/15
f 15/31/15 16/32/16 12/29/12
f 33/25/33 34/26/34 38/27/38
f 38/27/38 37/28/37 33/25/33
f 36/29/36 35/30/35 39/31/39
f 39/31/39 40/32/40 36/29/36
f 48/67/48 50/68/50 54/61/54
f 54/61/54 52/60/52 48/67/48
f 49/69/49 47/70/47 51/59/51
f 51/59/51 53/62/53 49/69/49
f 56/71/56 58/72/58 62/65/62
f 62/65/62 60/64/60 56/71/56
f 57/73/57 55/74/55 59/63/59
f 59/63/59 61/66/61 57/73/57
f 114/1/114 116/2/116 120/3/120
f 120/3/120 118/4/118 114/1/114
f 115/5/115 113/6/113 117/7/117
f 117/7/117 119/8/119 115/5/115
f 121/25/121 122/26/122 126/27/126
f 126/27/126 125/28/125 121/25/121
f 277/63/277 279/66/279 275/73/275
f 275/73/275 273/74/273 277/63/277
f 145/25/145 146/26/146 150/27/150
f 150/27/150 149/28/149 145/25/145
f 280/65/280 278/64/278 274/71/274
f 274/71/274 276/72/276 280/65/280
f 158/67/158 160/68/160 164/61/164
f 164/61/164 162/60/162 158/67/158
f 159/69/159 157/70/157 161/59/161
f 161/59/161 163/62/163 159/69/159
f 166/71/166 168/72/168 172/65/172
f 172/65/172 170/64/170 166/71/166
f 167/73/167 165/74/165 169/63/169
f 169/63/169 171/66/171 167/73/167
f 220/1/220 222/2/222 226/3/226
f 226/3/226 224/4/224 220/1/220
f 221/5/221 219/6/219 223/7/223
f 223/7/223 225/8/225 221/5/221
f 227/25/227 228/26/228 232/27/232
f 232/27/232 231/28/231 227/25/227
f 230/29/230 229/30/229 233/31/233
f 233/31/233 234/32/234 230/29/230
f 251/25/251 252/26/252 256/27/256
f 256/27/256 255/28/255 251/25/251
f 254/29/254 253/30/253 257/31/257
f 257/31/257 258/32/258 254/29/254
f 266/67/266 268/68/268 272/61/272
f 272/61/272 270/60/270 266/67/266
f 267/69/267 265/70/265 269/59/269
f 269/59/269 271/62/271 267/69/267
f 332/1/332 334/2/334 338/3/338
f 338/3/338 336/4/336 332/1/332
f 333/5/333 331/6/331 335/7/335
f 335/7/335 337/8/337 333/5/333
f 339/25/339 340/26/340 344/27/344
f 344/27/344 343/28/343 339/25/339
f 363/25/363 364/26/364 368/27/368
f 368/27/368 367/28/367 363/25/363
f 376/67/376 378/68/378 382/61/382
f 382/61/382 380/60/380 376/67/376
f 377/69/377 375/70/375 379/59/379
f 379/59/379 381/62/381 377/69/377
f 384/71/384 386/72/386 390/65/390
f 390/65/390 388/64/388 384/71/384
f 385/73/385 383/74/383 387/63/387
f 387/63/387 389/66/389 385/73/385
g fff0af14_00229_007bfed2_e3
f 1/9/1 2/10/2 6/11/6
f 6/11/6 5/12/5 1/9/1
f 4/13/4 3/14/3 7/15/7
f 7/15/7 8/16/8 4/13/4
f 113/9/113 114/10/114 118/11/118
f 118/11/118 117/12/117 113/9/113
f 225/15/225 226/16/226 222/13/222
f 222/13/222 221/14/221 225/15/225
f 219/9/219 220/10/220 224/11/224
f 224/11/224 223/12/223 219/9/219
f 331/9/331 332/10/332 336/11/336
f 336/11/336 335/12/335 331/9/331
g fff0af14_00229_007bfed2_e4
f 314/35/314 313/36/313 311/33/311
f 311/33/311 312/34/312 314/35/314
f 310/35/310 309/36/309 307/33/307
f 307/33/307 308/34/308 310/35/310
f 302/35/302 301/36/301 299/33/299
f 299/33/299 300/34/300 302/35/302
f 77/33/77 78/34/78 80/35/80
f 80/35/80 79/36/79 77/33/77
f 81/33/81 82/34/82 84/35/84
f 84/35/84 83/36/83 81/33/81
f 89/33/89 90/34/90 92/35/92
f 92/35/92 91/36/91 89/33/89
f 93/33/93 94/34/94 96/35/96
f 96/35/96 95/36/95 93/33/93
f 298/35/298 297/36/297 295/33/295
f 295/33/295 296/34/296 298/35/298
f 202/35/202 201/36/201 199/33/199
f 199/33/199 200/34/200 202/35/202
f 198/35/198 197/36/197 195/33/195
f 195/33/195 196/34/196 198/35/198
f 183/33/183 184/34/184 186/35/186
f 186/35/186 185/36/185 183/33/183
f 187/33/187 188/34/188 190/35/190
f 190/35/190 189/36/189 187/33/187
f 420/35/420 419/36/419 417/33/417
f 417/33/417 418/34/418 420/35/420
f 416/35/416 415/36/415 413/33/413
f 413/33/413 414/34/414 416/35/416
f 401/33/401 402/34/402 404/35/404
f 404/35/404 403/36/403 401/33/401
f 405/33/405 406/34/406 408/35/408
f 408/35/408 407/36/407 405/33/405
g fff0af14_00229_007bfed2_e6
f 41/53/41 43/54/43 46/55/46
f 46/55/46 44/56/44 41/53/41
f 63/75/63 68/77/68 65/76/65
f 68/77/68 63/75/63 66/78/66
f 153/53/153 154/54/154 156/55/156
f 156/55/156 155/56/155 153/53/153
f 173/75/173 178/77/178 175/76/175
f 178/77/178 173/75/173 176/78/176
f 259/53/259 261/54/261 264/55/264
f 264/55/264 262/56/262 259/53/259
f 281/75/281 286/77/286 283/76/283
f 286/77/286 281/75/281 284/78/284
f 371/53/371 372/54/372 374/55/374
f 374/55/374 373/56/373 371/53/371
f 391/75/391 396/77/396 393/76/393
f 396/77/396 391/75/391 394/78/394
g fff0af14_00229_007bfed2_e7
f 43/54/43 42/57/42 45/58/45
f 45/58/45 46/55/46 43/54/43
f 65/76/65 67/80/67 64/79/64
f 67/80/67 65/76/65 68/77/68
f 285/80/285 283/76/283 286/77/286
f 283/76/283 285/80/285 282/79/282
f 175/76/175 177/80/177 174/79/174
f 177/80/177 175/76/175 178/77/178
f 261/54/261 260/57/260 263/58/263
f 263/58/263 264/55/264 261/54/261
f 393/76/393 395/80/395 392/79/392
f 395/80/395 393/76/393 396/77/396
g fff0af14_00229_007bfed2_e5
f 69/81/69 70/82/70 72/83/72
f 72/83/72 71/84/71 69/81/69
f 73/81/73 76/83/76 74/82/74
f 76/83/76 73/81/73 75/84/75
f 179/81/179 180/82/180 182/83/182
f 182/83/182 181/84/181 179/81/179
f 294/83/294 291/81/291 293/84/293
f 291/81/291 294/83/294 292/82/292
f 287/81/287 288/82/288 290/83/290
f 290/83/290 289/84/289 287/81/287
f 397/81/397 398/82/398 400/83/400
f 400/83/400 399/84/399 397/81/397
g fff0af14_00229_007bfed2_e9
f 85/85/85 86/86/86 88/87/88
f 88/87/88 87/88/87 85/85/85
f 191/85/191 192/86/192 194/87/194
f 194/87/194 193/88/193 191/85/191
f 303/85/303 304/86/304 306/87/306
f 306/87/306 305/88/305 303/85/303
f 409/85/409 410/86/410 412/87/412
f 412/87/412 411/88/411 409/85/409
g fff0af14_00229_007bfed2_e8
f 97/89/97 98/90/98 100/91/100
f 100/91/100 99/92/99 97/89/97
f 101/89/101 102/90/102 104/91/104
f 104/91/104 103/92/103 101/89/101
f 203/89/203 204/90/204 206/91/206
f 206/91/206 205/92/205 203/89/203
f 207/89/207 208/90/208 210/91/210
f 210/91/210 209/92/209 207/89/207
f 315/89/315 316/90/316 318/91/318
f 318/91/318 317/92/317 315/89/315
f 319/89/319 320/90/320 322/91/322
f 322/91/322 321/92/321 319/89/319
f 421/89/421 422/90/422 424/91/424
f 424/91/424 423/92/423 421/89/421
f 425/89/425 426/90/426 428/91/428
f 428/91/428 427/92/427 425/89/425
g fff0af14_00229_007bfed2_e10
f 105/33/105 106/34/106 110/94/110
f 112/96/112 107/36/107 105/33/105
f 110/94/110 106/34/106 108/35/108
f 108/35/108 107/36/107 111/95/111
f 105/33/105 110/94/110 109/93/109
f 111/95/111 110/94/110 108/35/108
f 111/95/111 107/36/107 112/96/112
f 109/93/109 112/96/112 105/33/105
f 211/33/211 212/34/212 216/94/216
f 218/96/218 213/36/213 211/33/211
f 216/94/216 212/34/212 214/35/214
f 214/35/214 213/36/213 217/95/217
f 211/33/211 216/94/216 215/93/215
f 217/95/217 216/94/216 214/35/214
f 217/95/217 213/36/213 218/96/218
f 215/93/215 218/96/218 211/33/211
f 323/33/323 324/34/324 328/94/328
f 330/96/330 325/36/325 323/33/323
f 328/94/328 324/34/324 326/35/326
f 326/35/326 325/36/325 329/95/329
f 323/33/323 328/94/328 327/93/327
f 329/95/329 328/94/328 326/35/326
f 329/95/329 325/36/325 330/96/330
f 327/93/327 330/96/330 323/33/323
f 429/33/429 430/34/430 434/94/434
f 436/96/436 431/36/431 429/33/429
f 434/94/434 430/34/430 432/35/432
f 432/35/432 431/36/431 435/95/435
f 429/33/429 434/94/434 433/93/433
f 435/95/435 434/94/434 432/35/432
f 435/95/435 431/36/431 436/96/436
f 433/93/433 436/96/436 429/33/429
