# fff06920_00068_00113308
o fff06920_00068_00113308
v 0.960574 -0.016377 5.324940
v 0.960574 -0.129458 5.412837
v -0.962992 -0.016377 5.324940
v -0.962992 -0.129458 5.412837
v 0.960574 -0.226115 1.136949
v -0.962992 -0.226115 1.136949
v -0.962992 -0.226115 1.417773
v -0.962992 0.226115 5.604860
v 0.960574 0.226115 5.604860
v 0.653708 0.107706 5.010701
v -0.735328 0.107706 5.010701
v 0.653708 -0.016377 5.010695
v 0.653708 -0.016377 1.584796
v 0.960574 -0.016377 1.485904
v -0.735328 -0.016377 1.584796
v -0.735328 0.107706 1.584802
v 0.653708 0.107706 1.584802
v -0.735328 -0.016377 5.010695
v -0.962992 -0.016377 1.485904
v 0.960574 -0.226115 1.417773
v 0.960574 -0.129458 5.601660
v -0.962992 -0.129458 5.601660
v -0.962992 0.226115 1.139826
v 0.960592 0.226115 1.139826
v -0.325193 0.107706 5.020055
v -0.325193 -0.016377 5.020050
v -0.325193 -0.016377 5.558798
v -0.325193 -0.129458 5.646694
v -0.325193 -0.129458 5.835517
v -0.325193 0.226115 5.838717
v 0.248691 0.107706 5.020055
v 0.248691 -0.016377 5.020050
v 0.248691 -0.016377 5.558798
v 0.248691 -0.129458 5.646694
v 0.248691 -0.129458 5.835517
v 0.248691 0.226115 5.838717
v -1.130739 0.226109 5.737459
v 1.130718 0.226109 5.737459
v -1.130739 0.226109 0.781244
v 1.130739 0.226109 0.781244
v -0.350327 0.226109 5.990318
v 0.270187 0.226109 5.990318
v 0.960574 -0.016377 -1.446621
v 0.960574 -0.129458 -1.358725
v -0.962992 -0.016377 -1.446621
v -0.962992 -0.129458 -1.358725
v 0.960574 -0.226115 -5.634613
v -0.962992 -0.226115 -5.634613
v -0.962992 -0.226115 -5.353788
v -0.962992 0.226115 -1.166702
v 0.960574 0.226115 -1.166702
v 0.653708 0.107706 -1.760861
v -0.735328 0.107706 -1.760861
v 0.653708 -0.016377 -1.760867
v 0.653708 -0.016377 -5.186765
v 0.960574 -0.016377 -5.285658
v -0.735328 -0.016377 -5.186765
v -0.735328 0.107706 -5.186759
v 0.653708 0.107706 -5.186759
v -0.735328 -0.016377 -1.760867
v -0.962992 -0.016377 -5.285658
v 0.960574 -0.226115 -5.353788
v 0.960574 -0.129458 -1.169902
v -0.962992 -0.129458 -1.169902
v -0.962992 0.226115 -5.631736
v 0.960592 0.226115 -5.631736
v -0.325193 0.107706 -1.751506
v -0.325193 -0.016377 -1.751512
v -0.325193 -0.016377 -1.212764
v -0.325193 -0.129458 -1.124867
v -0.325193 -0.129458 -0.936044
v -0.325193 0.226115 -0.932844
v 0.248691 0.107706 -1.751506
v 0.248691 -0.016377 -1.751512
v 0.248691 -0.016377 -1.212764
v 0.248691 -0.129458 -1.124867
v 0.248691 -0.129458 -0.936044
v 0.248691 0.226115 -0.932844
v -1.130739 0.226109 -1.034103
v 1.130718 0.226109 -1.034103
v -1.130739 0.226109 -5.990318
v 1.130739 0.226109 -5.990318
v -0.350327 0.226109 -0.781244
v 0.270187 0.226109 -0.781244
v 0.653708 0.107706 5.010701
v -0.735328 0.107706 5.010701
v -0.735328 0.107706 1.584802
v 0.653708 0.107706 1.584802
v 0.653708 0.107706 -1.760861
v -0.735328 0.107706 -1.760861
v -0.735328 0.107706 -5.186759
v 0.653708 0.107706 -5.186759
v 3.784655 -0.016377 5.324940
v 3.784655 -0.129458 5.412837
v 1.861089 -0.016377 5.324940
v 1.861089 -0.129458 5.412837
v 3.784655 -0.226115 1.136949
v 1.861089 -0.226115 1.136949
v 1.861089 -0.226115 1.417773
v 1.861089 0.226115 5.604860
v 3.784655 0.226115 5.604860
v 3.477790 0.107706 5.010701
v 2.088754 0.107706 5.010701
v 3.477790 -0.016377 5.010695
v 3.477790 -0.016377 1.584796
v 3.784655 -0.016377 1.485904
v 2.088754 -0.016377 1.584796
v 2.088754 0.107706 1.584802
v 3.477790 0.107706 1.584802
v 2.088754 -0.016377 5.010695
v 1.861089 -0.016377 1.485904
v 3.784655 -0.226115 1.417773
v 3.784655 -0.129458 5.601660
v 1.861089 -0.129458 5.601660
v 1.861089 0.226115 1.139826
v 3.784673 0.226115 1.139826
v 2.498888 0.107706 5.020055
v 2.498888 -0.016377 5.020050
v 2.498888 -0.016377 5.558798
v 2.498888 -0.129458 5.646694
v 2.498888 -0.129458 5.835517
v 2.498888 0.226115 5.838717
v 3.072773 0.107706 5.020055
v 3.072773 -0.016377 5.020050
v 3.072773 -0.016377 5.558798
v 3.072773 -0.129458 5.646694
v 3.072773 -0.129458 5.835517
v 3.072773 0.226115 5.838717
v 1.693342 0.226109 5.737459
v 3.954799 0.226109 5.737459
v 1.693342 0.226109 0.781244
v 3.954820 0.226109 0.781244
v 2.473755 0.226109 5.990318
v 3.094269 0.226109 5.990318
v 3.784655 -0.016377 -1.446621
v 3.784655 -0.129458 -1.358725
v 1.861089 -0.016377 -1.446621
v 1.861089 -0.129458 -1.358725
v 3.784655 -0.226115 -5.634613
v 1.861089 -0.226115 -5.634613
v 1.861089 -0.226115 -5.353788
v 1.861089 0.226115 -1.166702
v 3.784655 0.226115 -1.166702
v 3.477790 0.107706 -1.760861
v 2.088754 0.107706 -1.760861
v 3.477790 -0.016377 -1.760867
v 3.477790 -0.016377 -5.186765
v 3.784655 -0.016377 -5.285658
v 2.088754 -0.016377 -5.186765
v 2.088754 0.107706 -5.186759
v 3.477790 0.107706 -5.186759
v 2.088754 -0.016377 -1.760867
v 1.861089 -0.016377 -5.285658
v 3.784655 -0.226115 -5.353788
v 3.784655 -0.129458 -1.169902
v 1.861089 -0.129458 -1.169902
v 1.861089 0.226115 -5.631736
v 3.784673 0.226115 -5.631736
v 2.498888 0.107706 -1.751506
v 2.498888 -0.016377 -1.751512
v 2.498888 -0.016377 -1.212764
v 2.498888 -0.129458 -1.124867
v 2.498888 -0.129458 -0.936044
v 2.498888 0.226115 -0.932844
v 3.072773 0.107706 -1.751506
v 3.072773 -0.016377 -1.751512
v 3.072773 -0.016377 -1.212764
v 3.072773 -0.129458 -1.124867
v 3.072773 -0.129458 -0.936044
v 3.072773 0.226115 -0.932844
v 1.693342 0.226109 -1.034103
v 3.954799 0.226109 -1.034103
v 1.693342 0.226109 -5.990318
v 3.954820 0.226109 -5.990318
v 2.473755 0.226109 -0.781244
v 3.094269 0.226109 -0.781244
v 3.477790 0.107706 5.010701
v 2.088754 0.107706 5.010701
v 2.088754 0.107706 1.584802
v 3.477790 0.107706 1.584802
v 3.477790 0.107706 -1.760861
v 2.088754 0.107706 -1.760861
v 2.088754 0.107706 -5.186759
v 3.477790 0.107706 -5.186759
v 0.711040 0.045787 5.074905
v -0.790781 0.045787 5.074905
v -0.790781 0.045787 1.442438
v 0.711040 0.045787 1.442438
v -0.559097 0.045787 3.377458
v 0.447906 0.045787 3.377458
v -0.559097 0.045787 4.851766
v 0.447906 0.045787 4.851766
v -0.559097 0.045787 2.977674
v 0.447906 0.045787 3.003216
v 0.447906 0.045787 1.746649
v -0.559097 0.045787 1.746533
v 0.711101 0.104602 5.074905
v -0.790720 0.104602 5.074905
v -0.790720 0.104602 1.442438
v 0.711101 0.104602 1.442438
v -0.559036 0.104602 3.377458
v 0.447968 0.104602 3.377458
v -0.559036 0.104602 4.851766
v 0.447968 0.104602 4.851766
v -0.559036 0.104602 2.977674
v 0.447968 0.104602 3.003216
v 0.447968 0.104602 1.746649
v -0.559036 0.104602 1.746533
v 3.532283 0.045787 5.074905
v 2.030463 0.045787 5.074905
v 2.030463 0.045787 1.442438
v 3.532283 0.045787 1.442438
v 2.262146 0.045787 3.377458
v 3.269150 0.045787 3.377458
v 2.262146 0.045787 4.851766
v 3.269150 0.045787 4.851766
v 2.262146 0.045787 2.977674
v 3.269150 0.045787 3.003216
v 3.269150 0.045787 1.746649
v 2.262146 0.045787 1.746533
v 3.532344 0.104602 5.074905
v 2.030524 0.104602 5.074905
v 2.030524 0.104602 1.442438
v 3.532344 0.104602 1.442438
v 2.262207 0.104602 3.377458
v 3.269211 0.104602 3.377458
v 2.262207 0.104602 4.851766
v 3.269211 0.104602 4.851766
v 2.262207 0.104602 2.977674
v 3.269211 0.104602 3.003216
v 3.269211 0.104602 1.746649
v 2.262207 0.104602 1.746533
v 3.549312 0.045787 -1.701927
v 2.047492 0.045787 -1.701927
v 2.047492 0.045787 -5.334394
v 3.549312 0.045787 -5.334394
v 2.279175 0.045787 -3.399374
v 3.286179 0.045787 -3.399374
v 2.279175 0.045787 -1.925066
v 3.286179 0.045787 -1.925066
v 2.279175 0.045787 -3.799158
v 3.286179 0.045787 -3.773616
v 3.286179 0.045787 -5.030183
v 2.279175 0.045787 -5.030298
v 3.549373 0.104602 -1.701927
v 2.047553 0.104602 -1.701927
v 2.047553 0.104602 -5.334394
v 3.549373 0.104602 -5.334394
v 2.279236 0.104602 -3.399374
v 3.286240 0.104602 -3.399374
v 2.279236 0.104602 -1.925066
v 3.286240 0.104602 -1.925066
v 2.279236 0.104602 -3.799158
v 3.286240 0.104602 -3.773616
v 3.286240 0.104602 -5.030183
v 2.279236 0.104602 -5.030298
v 0.712581 0.045787 -1.701927
v -0.789239 0.045787 -1.701927
v -0.789239 0.045787 -5.334394
v 0.712581 0.045787 -5.334394
v -0.557556 0.045787 -3.399374
v 0.449448 0.045787 -3.399374
v -0.557556 0.045787 -1.925066
v 0.449448 0.045787 -1.925066
v -0.557556 0.045787 -3.799158
v 0.449448 0.045787 -3.773616
v 0.449448 0.045787 -5.030183
v -0.557556 0.045787 -5.030298
v 0.712642 0.104602 -1.701927
v -0.789178 0.104602 -1.701927
v -0.789178 0.104602 -5.334394
v 0.712642 0.104602 -5.334394
v -0.557495 0.104602 -3.399374
v 0.449509 0.104602 -3.399374
v -0.557495 0.104602 -1.925066
v 0.449509 0.104602 -1.925066
v -0.557495 0.104602 -3.799158
v 0.449509 0.104602 -3.773616
v 0.449509 0.104602 -5.030183
v -0.557495 0.104602 -5.030298
vt 1.000000 -0.507021
vt 0.000000 -0.507021
vt 0.000000 0.591056
vt 1.000000 0.591056
vt 1.000000 -0.398868
vt 0.000000 -0.400375
vt 1.000000 0.493388
vt 1.000000 0.516228
vt 0.000000 0.496318
vt 0.000000 0.519110
vt 1.000000 -0.418972
vt 0.000000 -0.422213
vt 1.000000 0.576821
vt 0.000000 0.574800
vt 0.000000 1.000000
vt 0.000000 0.000000
vt 0.102024 0.687861
vt 0.102024 0.262728
vt 1.000000 0.995261
vt 0.859358 0.687904
vt 0.859358 0.262728
vt 1.000000 0.001508
vt 1.000000 1.049947
vt 1.079433 1.098188
vt 1.054366 1.155921
vt 1.999447 1.049947
vt 2.000000 1.205269
vt 1.920228 1.205269
vt 1.901057 1.098188
vt 1.000729 1.155921
vt 1.149816 0.984584
vt 1.178491 0.919129
vt 1.191712 0.954788
vt 1.676962 0.984584
vt 1.635180 0.888649
vt 1.677254 0.888649
vt 1.625068 0.954788
vt 1.150201 0.919129
vt 1.561798 0.980415
vt 1.563018 0.939196
vt 1.561798 0.980415
vt 1.187017 0.979287
vt 1.188236 0.938069
vt 1.188236 0.938069
vt 0.960222 1.112862
vt 0.733104 1.120215
vt 0.731412 1.079008
vt 1.927899 1.112862
vt 0.958530 1.071655
vt 1.926207 1.071655
vt 0.325631 0.687874
vt 0.331564 0.998429
vt 0.331564 0.495346
vt 0.331564 0.518154
vt 0.331564 0.575470
vt 0.331564 0.591056
vt 0.637737 0.687892
vt 0.629889 0.997015
vt 0.629889 0.494472
vt 0.630094 0.517294
vt 0.630534 0.576075
vt 0.630541 0.591056
vt 0.000000 0.591056
vt 0.331564 0.591056
vt 1.000000 1.049947
vt 1.999447 1.049947
vt 1.000000 0.591056
vt 0.630541 0.591056
vt 1.149816 0.984584
vt 1.676962 0.984584
vt 1.999285 1.002585
vt 1.999285 1.999534
vt 1.709207 2.002392
vt 1.004441 1.003050
vt 1.298184 2.002584
vt 1.004441 2.000000
vt 2.034130 2.000000
vt 1.000008 0.909010
vt 2.034122 0.909010
vt 1.000008 2.000000
vt 1.061429 1.596153
vt 1.467299 1.596153
vt 1.000000 2.000001
vt 2.427365 1.592028
vt 2.004722 1.996490
vt 2.088438 1.592028
vt 1.570326 1.596153
vt 1.916252 1.596153
vt 2.000000 2.000001
vt 2.943293 1.592027
vt 3.004722 1.996490
vt 2.537423 1.592028
vt 2.000000 2.000000
vt 1.000000 2.000000
vt 1.154269 1.612348
vt 2.175209 1.612146
vt 3.000000 2.000000
vt 2.000000 2.000000
vt 1.824791 1.612348
vt 2.845732 1.612294
vn 0.787048 -0.574909 -0.223685
vn 0.557071 -0.716590 -0.419728
vn -0.783799 -0.580853 -0.219702
vn -0.548864 -0.718147 -0.427800
vn 0.705657 -0.708554 0.000000
vn -0.705671 -0.708540 0.000000
vn -0.595689 -0.649796 0.472143
vn -0.414593 -0.862149 0.291226
vn 0.403497 -0.866518 0.293833
vn -1.000000 0.000000 0.000000
vn 1.000000 0.000000 0.000000
vn -0.317636 -0.948213 0.000000
vn -0.301500 -0.904539 0.301508
vn 0.865822 -0.404790 0.294106
vn 0.301500 -0.904539 0.301508
vn 0.707116 -0.000031 0.707097
vn -0.707117 -0.000031 0.707097
vn 0.317619 -0.948219 0.000000
vn -0.865840 -0.404756 0.294096
vn 0.595680 -0.649803 0.472147
vn 0.650545 -0.597870 0.468339
vn -0.657075 -0.600039 0.456295
vn -0.317364 -0.948304 0.000006
vn 0.317359 -0.948305 0.000010
vn 0.000000 -1.000000 0.000000
vn 0.000000 -1.000000 0.000000
vn 0.090461 -0.876458 -0.472905
vn 0.065796 -0.916088 -0.395541
vn -0.129422 -0.673053 0.728183
vn -0.115207 -0.751564 0.649522
vn 0.000000 -1.000000 0.000000
vn 0.000000 -1.000000 0.000000
vn -0.080462 -0.878821 -0.470319
vn -0.060361 -0.914475 -0.400115
vn 0.116493 -0.676465 0.727203
vn 0.104898 -0.747414 0.656025
vn 0.000020 -1.000000 -0.000015
vn -0.000020 -1.000000 -0.000015
vn 0.000009 -1.000000 0.000011
vn -0.000009 -1.000000 0.000011
vn 0.000006 -1.000000 -0.000034
vn -0.000005 -1.000000 -0.000034
vn 0.787048 -0.574908 -0.223686
vn 0.557071 -0.716589 -0.419729
vn -0.783800 -0.580852 -0.219702
vn -0.548864 -0.718147 -0.427801
vn 0.705657 -0.708554 0.000000
vn -0.705671 -0.708540 0.000000
vn -0.595689 -0.649796 0.472143
vn -0.414593 -0.862149 0.291226
vn 0.403497 -0.866518 0.293833
vn -1.000000 0.000000 0.000000
vn 1.000000 0.000000 0.000000
vn -0.317637 -0.948212 0.000000
vn -0.301500 -0.904539 0.301508
vn 0.865822 -0.404789 0.294106
vn 0.301500 -0.904539 0.301508
vn 0.707117 -0.000033 0.707096
vn -0.707117 -0.000033 0.707096
vn 0.317619 -0.948218 0.000000
vn -0.865841 -0.404755 0.294096
vn 0.595679 -0.649802 0.472147
vn 0.650545 -0.597870 0.468339
vn -0.657075 -0.600039 0.456295
vn -0.317364 -0.948304 0.000006
vn 0.317359 -0.948305 0.000010
vn 0.000000 -1.000000 0.000000
vn 0.000000 -1.000000 0.000000
vn 0.090461 -0.876458 -0.472904
vn 0.065795 -0.916089 -0.395540
vn -0.129422 -0.673053 0.728183
vn -0.115207 -0.751564 0.649522
vn 0.000000 -1.000000 0.000000
vn 0.000000 -1.000000 0.000000
vn -0.080462 -0.878822 -0.470318
vn -0.060361 -0.914475 -0.400114
vn 0.116493 -0.676465 0.727203
vn 0.104898 -0.747414 0.656025
vn 0.000020 -1.000000 -0.000015
vn -0.000020 -1.000000 -0.000015
vn 0.000009 -1.000000 0.000011
vn -0.000009 -1.000000 0.000011
vn 0.000006 -1.000000 -0.000034
vn -0.000005 -1.000000 -0.000034
vn 0.000000 -1.000000 0.000000
vn 0.000000 -1.000000 0.000000
vn 0.000000 -1.000000 0.000000
vn 0.000000 -1.000000 0.000000
vn 0.000000 -1.000000 0.000000
vn 0.000000 -1.000000 0.000000
vn 0.000000 -1.000000 0.000000
vn 0.000000 -1.000000 0.000000
vn 0.787048 -0.574909 -0.223685
vn 0.557071 -0.716590 -0.419728
vn -0.783799 -0.580853 -0.219702
vn -0.548864 -0.718147 -0.427800
vn 0.705657 -0.708554 0.000000
vn -0.705671 -0.708540 0.000000
vn -0.595689 -0.649796 0.472143
vn -0.414593 -0.862149 0.291226
vn 0.403497 -0.866517 0.293833
vn -1.000000 0.000000 0.000000
vn 1.000000 0.000000 0.000000
vn -0.317636 -0.948213 0.000000
vn -0.301500 -0.904539 0.301508
vn 0.865822 -0.404790 0.294105
vn 0.301500 -0.904539 0.301508
vn 0.707116 -0.000031 0.707097
vn -0.707117 -0.000031 0.707097
vn 0.317619 -0.948219 0.000000
vn -0.865840 -0.404756 0.294096
vn 0.595680 -0.649803 0.472147
vn 0.650546 -0.597870 0.468339
vn -0.657075 -0.600039 0.456295
vn -0.317364 -0.948304 0.000006
vn 0.317359 -0.948305 0.000010
vn 0.000000 -1.000000 0.000000
vn 0.000000 -1.000000 0.000000
vn 0.090461 -0.876458 -0.472905
vn 0.065796 -0.916088 -0.395541
vn -0.129422 -0.673053 0.728182
vn -0.115207 -0.751564 0.649522
vn 0.000000 -1.000000 0.000000
vn 0.000000 -1.000000 0.000000
vn -0.080462 -0.878821 -0.470319
vn -0.060361 -0.914475 -0.400115
vn 0.116493 -0.676465 0.727203
vn 0.104898 -0.747414 0.656025
vn 0.000020 -1.000000 -0.000015
vn -0.000020 -1.000000 -0.000015
vn 0.000009 -1.000000 0.000011
vn -0.000009 -1.000000 0.000011
vn 0.000006 -1.000000 -0.000034
vn -0.000005 -1.000000 -0.000034
vn 0.787048 -0.574908 -0.223686
vn 0.557071 -0.716589 -0.419729
vn -0.783800 -0.580852 -0.219702
vn -0.548864 -0.718147 -0.427801
vn 0.705657 -0.708554 0.000000
vn -0.705671 -0.708540 0.000000
vn -0.595689 -0.649796 0.472143
vn -0.414593 -0.862149 0.291226
vn 0.403497 -0.866517 0.293833
vn -1.000000 0.000000 0.000000
vn 1.000000 0.000000 0.000000
vn -0.317637 -0.948212 0.000000
vn -0.301500 -0.904539 0.301508
vn 0.865822 -0.404789 0.294106
vn 0.301500 -0.904539 0.301508
vn 0.707117 -0.000033 0.707096
vn -0.707117 -0.000033 0.707096
vn 0.317619 -0.948218 0.000000
vn -0.865841 -0.404755 0.294096
vn 0.595679 -0.649802 0.472147
vn 0.650546 -0.597870 0.468339
vn -0.657075 -0.600039 0.456295
vn -0.317364 -0.948304 0.000006
vn 0.317359 -0.948305 0.000010
vn 0.000000 -1.000000 0.000000
vn 0.000000 -1.000000 0.000000
vn 0.090461 -0.876458 -0.472904
vn 0.065795 -0.916089 -0.395540
vn -0.129422 -0.673053 0.728182
vn -0.115207 -0.751564 0.649522
vn 0.000000 -1.000000 0.000000
vn 0.000000 -1.000000 0.000000
vn -0.080462 -0.878821 -0.470318
vn -0.060361 -0.914475 -0.400114
vn 0.116493 -0.676465 0.727203
vn 0.104898 -0.747414 0.656025
vn 0.000020 -1.000000 -0.000015
vn -0.000020 -1.000000 -0.000015
vn 0.000009 -1.000000 0.000011
vn -0.000009 -1.000000 0.000011
vn 0.000006 -1.000000 -0.000034
vn -0.000005 -1.000000 -0.000034
vn 0.000000 -1.000000 0.000000
vn 0.000000 -1.000000 0.000000
vn 0.000000 -1.000000 0.000000
vn 0.000000 -1.000000 0.000000
vn 0.000000 -1.000000 0.000000
vn 0.000000 -1.000000 0.000000
vn 0.000000 -1.000000 0.000000
vn 0.000000 -1.000000 0.000000
vn 0.000000 -1.000000 0.000000
vn 0.000000 -1.000000 0.000000
vn 0.000000 -1.000000 0.000000
vn 0.000000 -1.000000 0.000000
vn 0.000000 -1.000000 0.000000
vn 0.000000 -1.000000 0.000000
vn 0.000000 -1.000000 0.000000
vn 0.000000 -1.000000 0.000000
vn 0.000000 -1.000000 0.000000
vn 0.000000 -1.000000 0.000000
vn 0.000000 -1.000000 0.000000
vn 0.000000 -1.000000 0.000000
vn 0.000000 -1.000000 0.000000
vn 0.000000 -1.000000 0.000000
vn 0.000000 -1.000000 0.000000
vn 0.000000 -1.000000 0.000000
vn 0.000000 -1.000000 0.000000
vn 0.000000 -1.000000 0.000000
vn 0.000000 -1.000000 0.000000
vn 0.000000 -1.000000 0.000000
vn 0.000000 -1.000000 0.000000
vn 0.000000 -1.000000 0.000000
vn 0.000000 -1.000000 0.000000
vn 0.000000 -1.000000 0.000000
vn 0.000000 -1.000000 0.000000
vn 0.000000 -1.000000 0.000000
vn 0.000000 -1.000000 0.000000
vn 0.000000 -1.000000 0.000000
vn 0.000000 -1.000000 0.000000
vn 0.000000 -1.000000 0.000000
vn 0.000000 -1.000000 0.000000
vn 0.000000 -1.000000 0.000000
vn 0.000000 -1.000000 0.000000
vn 0.000000 -1.000000 0.000000
vn 0.000000 -1.000000 0.000000
vn 0.000000 -1.000000 0.000000
vn 0.000000 -1.000000 0.000000
vn 0.000000 -1.000000 0.000000
vn 0.000000 -1.000000 0.000000
vn 0.000000 -1.000000 0.000000
vn 0.000000 -1.000000 0.000000
vn 0.000000 -1.000000 0.000000
vn 0.000000 -1.000000 0.000000
vn 0.000000 -1.000000 0.000000
vn 0.000000 -1.000000 0.000000
vn 0.000000 -1.000000 0.000000
vn 0.000000 -1.000000 0.000000
vn 0.000000 -1.000000 0.000000
vn 0.000000 -1.000000 0.000000
vn 0.000000 -1.000000 0.000000
vn 0.000000 -1.000000 0.000000
vn 0.000000 -1.000000 0.000000
vn 0.000000 -1.000000 0.000000
vn 0.000000 -1.000000 0.000000
vn 0.000000 -1.000000 0.000000
vn 0.000000 -1.000000 0.000000
vn 0.000000 -1.000000 0.000000
vn 0.000000 -1.000000 0.000000
vn 0.000000 -1.000000 0.000000
vn 0.000000 -1.000000 0.000000
vn 0.000000 -1.000000 0.000000
vn 0.000000 -1.000000 0.000000
vn 0.000000 -1.000000 0.000000
vn 0.000000 -1.000000 0.000000
vn 0.000000 -1.000000 0.000000
vn 0.000000 -1.000000 0.000000
vn 0.000000 -1.000000 0.000000
vn 0.000000 -1.000000 0.000000
vn 0.000000 -1.000000 0.000000
vn 0.000000 -1.000000 0.000000
vn 0.000000 -1.000000 0.000000
vn 0.000000 -1.000000 0.000000
vn 0.000000 -1.000000 0.000000
vn 0.000000 -1.000000 0.000000
vn 0.000000 -1.000000 0.000000
vn 0.000000 -1.000000 0.000000
vn 0.000000 -1.000000 0.000000
vn 0.000000 -1.000000 0.000000
vn 0.000000 -1.000000 0.000000
vn 0.000000 -1.000000 0.000000
vn 0.000000 -1.000000 0.000000
vn 0.000000 -1.000000 0.000000
vn 0.000000 -1.000000 0.000000
vn 0.000000 -1.000000 0.000000
vn 0.000000 -1.000000 0.000000
vn 0.000000 -1.000000 0.000000
vn 0.000000 -1.000000 0.000000
vn 0.000000 -1.000000 0.000000
vn 0.000000 -1.000000 0.000000
vn 0.000000 -1.000000 0.000000
vn 0.000000 -1.000000 0.000000
vn 0.000000 -1.000000 0.000000
vn 0.000000 -1.000000 0.000000
vn 0.000000 -1.000000 0.000000
vn 0.000000 -1.000000 0.000000
vn 0.000000 -1.000000 0.000000
g fff06920_00068_00113308_e0
f 88/71/88 85/72/85 31/73/31
f 88/71/88 31/73/31 87/74/87
f 25/75/25 86/76/86 87/74/87
f 31/73/31 25/75/25 87/74/87
f 92/71/92 89/72/89 73/73/73
f 92/71/92 73/73/73 91/74/91
f 67/75/67 90/76/90 91/74/91
f 73/73/73 67/75/67 91/74/91
f 180/71/180 177/72/177 123/73/123
f 180/71/180 123/73/123 179/74/179
f 117/75/117 178/76/178 179/74/179
f 123/73/123 117/75/117 179/74/179
f 184/71/184 181/72/181 165/73/165
f 184/71/184 165/73/165 183/74/183
f 159/75/159 182/76/182 183/74/183
f 165/73/165 159/75/159 183/74/183
g fff06920_00068_00113308_e6
f 9/4/9 35/61/35 21/13/21
f 8/3/8 22/14/22 30/56/30
f 7/12/7 6/2/6 20/11/20
f 20/11/20 6/2/6 5/1/5
f 4/10/4 3/9/3 28/54/28
f 2/8/2 33/59/33 1/7/1
f 21/13/21 34/60/34 2/8/2
f 22/14/22 4/10/4 29/55/29
f 19/6/19 7/12/7 14/5/14
f 14/5/14 7/12/7 20/11/20
f 34/60/34 28/54/28 27/53/27
f 28/54/28 3/9/3 27/53/27
f 35/61/35 29/55/29 28/54/28
f 29/55/29 4/10/4 28/54/28
f 36/62/36 30/56/30 29/55/29
f 30/56/30 22/14/22 29/55/29
f 2/8/2 34/60/34 33/59/33
f 33/59/33 34/60/34 27/53/27
f 21/13/21 35/61/35 34/60/34
f 34/60/34 35/61/35 28/54/28
f 9/4/9 36/62/36 35/61/35
f 35/61/35 36/62/36 29/55/29
f 51/4/51 77/61/77 63/13/63
f 50/3/50 64/14/64 72/56/72
f 49/12/49 48/2/48 62/11/62
f 62/11/62 48/2/48 47/1/47
f 46/10/46 45/9/45 70/54/70
f 44/8/44 75/59/75 43/7/43
f 63/13/63 76/60/76 44/8/44
f 64/14/64 46/10/46 71/55/71
f 61/6/61 49/12/49 56/5/56
f 56/5/56 49/12/49 62/11/62
f 76/60/76 70/54/70 69/53/69
f 70/54/70 45/9/45 69/53/69
f 77/61/77 71/55/71 70/54/70
f 71/55/71 46/10/46 70/54/70
f 78/62/78 72/56/72 71/55/71
f 72/56/72 64/14/64 71/55/71
f 44/8/44 76/60/76 75/59/75
f 75/59/75 76/60/76 69/53/69
f 63/13/63 77/61/77 76/60/76
f 76/60/76 77/61/77 70/54/70
f 51/4/51 78/62/78 77/61/77
f 77/61/77 78/62/78 71/55/71
f 101/4/101 127/61/127 113/13/113
f 100/3/100 114/14/114 122/56/122
f 99/12/99 98/2/98 112/11/112
f 112/11/112 98/2/98 97/1/97
f 96/10/96 95/9/95 120/54/120
f 94/8/94 125/59/125 93/7/93
f 113/13/113 126/60/126 94/8/94
f 114/14/114 96/10/96 121/55/121
f 111/6/111 99/12/99 106/5/106
f 106/5/106 99/12/99 112/11/112
f 126/60/126 120/54/120 119/53/119
f 120/54/120 95/9/95 119/53/119
f 127/61/127 121/55/121 120/54/120
f 121/55/121 96/10/96 120/54/120
f 128/62/128 122/56/122 121/55/121
f 122/56/122 114/14/114 121/55/121
f 94/8/94 126/60/126 125/59/125
f 125/59/125 126/60/126 119/53/119
f 113/13/113 127/61/127 126/60/126
f 126/60/126 127/61/127 120/54/120
f 101/4/101 128/62/128 127/61/127
f 127/61/127 128/62/128 121/55/121
f 143/4/143 169/61/169 155/13/155
f 142/3/142 156/14/156 164/56/164
f 141/12/141 140/2/140 154/11/154
f 154/11/154 140/2/140 139/1/139
f 138/10/138 137/9/137 162/54/162
f 136/8/136 167/59/167 135/7/135
f 155/13/155 168/60/168 136/8/136
f 156/14/156 138/10/138 163/55/163
f 153/6/153 141/12/141 148/5/148
f 148/5/148 141/12/141 154/11/154
f 168/60/168 162/54/162 161/53/161
f 162/54/162 137/9/137 161/53/161
f 169/61/169 163/55/163 162/54/162
f 163/55/163 138/10/138 162/54/162
f 170/62/170 164/56/164 163/55/163
f 164/56/164 156/14/156 163/55/163
f 136/8/136 168/60/168 167/59/167
f 167/59/167 168/60/168 161/53/161
f 155/13/155 169/61/169 168/60/168
f 168/60/168 169/61/169 162/54/162
f 143/4/143 170/62/170 169/61/169
f 169/61/169 170/62/170 163/55/163
g fff06920_00068_00113308_e3
f 3/15/3 19/16/19 18/17/18
f 18/17/18 19/16/19 15/18/15
f 3/15/3 18/17/18 27/52/27
f 32/57/32 12/20/12 1/19/1
f 13/21/13 19/16/19 14/22/14
f 1/19/1 13/21/13 14/22/14
f 15/18/15 19/16/19 13/21/13
f 1/19/1 12/20/12 13/21/13
f 8/23/8 3/24/3 4/25/4
f 23/26/23 6/27/6 7/28/7
f 23/26/23 7/28/7 19/29/19
f 23/26/23 19/29/19 3/24/3
f 23/26/23 3/24/3 8/23/8
f 22/30/22 8/23/8 4/25/4
f 9/31/9 2/32/2 1/33/1
f 24/34/24 20/35/20 5/36/5
f 24/34/24 14/37/14 20/35/20
f 24/34/24 1/33/1 14/37/14
f 24/34/24 9/31/9 1/33/1
f 21/38/21 2/32/2 9/31/9
f 18/41/18 15/42/15 16/43/16
f 17/45/17 16/46/16 15/47/15
f 16/44/16 11/40/11 18/39/18
f 10/48/10 17/45/17 13/49/13
f 15/47/15 13/49/13 17/45/17
f 13/49/13 12/50/12 10/48/10
f 27/52/27 26/51/26 33/58/33
f 27/52/27 18/17/18 26/51/26
f 33/58/33 32/57/32 1/19/1
f 33/58/33 26/51/26 32/57/32
f 45/15/45 61/16/61 60/17/60
f 60/17/60 61/16/61 57/18/57
f 45/15/45 60/17/60 69/52/69
f 74/57/74 54/20/54 43/19/43
f 55/21/55 61/16/61 56/22/56
f 43/19/43 55/21/55 56/22/56
f 57/18/57 61/16/61 55/21/55
f 43/19/43 54/20/54 55/21/55
f 50/23/50 45/24/45 46/25/46
f 65/26/65 48/27/48 49/28/49
f 65/26/65 49/28/49 61/29/61
f 65/26/65 61/29/61 45/24/45
f 65/26/65 45/24/45 50/23/50
f 64/30/64 50/23/50 46/25/46
f 51/31/51 44/32/44 43/33/43
f 66/34/66 62/35/62 47/36/47
f 66/34/66 56/37/56 62/35/62
f 66/34/66 43/33/43 56/37/56
f 66/34/66 51/31/51 43/33/43
f 63/38/63 44/32/44 51/31/51
f 60/41/60 57/42/57 58/43/58
f 59/45/59 58/46/58 57/47/57
f 58/44/58 53/40/53 60/39/60
f 52/48/52 59/45/59 55/49/55
f 57/47/57 55/49/55 59/45/59
f 55/49/55 54/50/54 52/48/52
f 69/52/69 68/51/68 75/58/75
f 69/52/69 60/17/60 68/51/68
f 75/58/75 74/57/74 43/19/43
f 75/58/75 68/51/68 74/57/74
f 95/15/95 111/16/111 110/17/110
f 110/17/110 111/16/111 107/18/107
f 95/15/95 110/17/110 119/52/119
f 124/57/124 104/20/104 93/19/93
f 105/21/105 111/16/111 106/22/106
f 93/19/93 105/21/105 106/22/106
f 107/18/107 111/16/111 105/21/105
f 93/19/93 104/20/104 105/21/105
f 100/23/100 95/24/95 96/25/96
f 115/26/115 98/27/98 99/28/99
f 115/26/115 99/28/99 111/29/111
f 115/26/115 111/29/111 95/24/95
f 115/26/115 95/24/95 100/23/100
f 114/30/114 100/23/100 96/25/96
f 101/31/101 94/32/94 93/33/93
f 116/34/116 112/35/112 97/36/97
f 116/34/116 106/37/106 112/35/112
f 116/34/116 93/33/93 106/37/106
f 116/34/116 101/31/101 93/33/93
f 113/38/113 94/32/94 101/31/101
f 110/41/110 107/42/107 108/43/108
f 109/45/109 108/46/108 107/47/107
f 108/44/108 103/40/103 110/39/110
f 102/48/102 109/45/109 105/49/105
f 107/47/107 105/49/105 109/45/109
f 105/49/105 104/50/104 102/48/102
f 119/52/119 118/51/118 125/58/125
f 119/52/119 110/17/110 118/51/118
f 125/58/125 124/57/124 93/19/93
f 125/58/125 118/51/118 124/57/124
f 137/15/137 153/16/153 152/17/152
f 152/17/152 153/16/153 149/18/149
f 137/15/137 152/17/152 161/52/161
f 166/57/166 146/20/146 135/19/135
f 147/21/147 153/16/153 148/22/148
f 135/19/135 147/21/147 148/22/148
f 149/18/149 153/16/153 147/21/147
f 135/19/135 146/20/146 147/21/147
f 142/23/142 137/24/137 138/25/138
f 157/26/157 140/27/140 141/28/141
f 157/26/157 141/28/141 153/29/153
f 157/26/157 153/29/153 137/24/137
f 157/26/157 137/24/137 142/23/142
f 156/30/156 142/23/142 138/25/138
f 143/31/143 136/32/136 135/33/135
f 158/34/158 154/35/154 139/36/139
f 158/34/158 148/37/148 154/35/154
f 158/34/158 135/33/135 148/37/148
f 158/34/158 143/31/143 135/33/135
f 155/38/155 136/32/136 143/31/143
f 152/41/152 149/42/149 150/43/150
f 151/45/151 150/46/150 149/47/149
f 150/44/150 145/40/145 152/39/152
f 144/48/144 151/45/151 147/49/147
f 149/47/149 147/49/147 151/45/151
f 147/49/147 146/50/146 144/48/144
f 161/52/161 160/51/160 167/58/167
f 161/52/161 152/17/152 160/51/160
f 167/58/167 166/57/166 135/19/135
f 167/58/167 160/51/160 166/57/166
f 192/81/192 190/82/190 185/83/185
f 185/93/185 186/94/186 191/95/191
f 195/96/195 187/97/187 188/98/188
f 193/84/193 187/85/187 196/86/196
f 194/87/194 195/88/195 188/89/188
f 191/90/191 186/91/186 189/92/189
f 185/93/185 191/95/191 192/99/192
f 196/100/196 187/97/187 195/96/195
f 185/83/185 194/87/194 188/89/188
f 193/84/193 186/91/186 187/85/187
f 190/77/190 193/78/193 194/79/194
f 189/92/189 186/91/186 193/84/193
f 190/77/190 189/80/189 193/78/193
f 190/82/190 194/87/194 185/83/185
f 204/81/204 202/82/202 197/83/197
f 197/93/197 198/94/198 203/95/203
f 207/96/207 199/97/199 200/98/200
f 205/84/205 199/85/199 208/86/208
f 206/87/206 207/88/207 200/89/200
f 203/90/203 198/91/198 201/92/201
f 197/93/197 203/95/203 204/99/204
f 208/100/208 199/97/199 207/96/207
f 197/83/197 206/87/206 200/89/200
f 205/84/205 198/91/198 199/85/199
f 202/77/202 205/78/205 206/79/206
f 201/92/201 198/91/198 205/84/205
f 202/77/202 201/80/201 205/78/205
f 202/82/202 206/87/206 197/83/197
f 216/81/216 214/82/214 209/83/209
f 209/93/209 210/94/210 215/95/215
f 219/96/219 211/97/211 212/98/212
f 217/84/217 211/85/211 220/86/220
f 218/87/218 219/88/219 212/89/212
f 215/90/215 210/91/210 213/92/213
f 209/93/209 215/95/215 216/99/216
f 220/100/220 211/97/211 219/96/219
f 209/83/209 218/87/218 212/89/212
f 217/84/217 210/91/210 211/85/211
f 214/77/214 217/78/217 218/79/218
f 213/92/213 210/91/210 217/84/217
f 214/77/214 213/80/213 217/78/217
f 214/82/214 218/87/218 209/83/209
f 228/81/228 226/82/226 221/83/221
f 221/93/221 222/94/222 227/95/227
f 231/96/231 223/97/223 224/98/224
f 229/84/229 223/85/223 232/86/232
f 230/87/230 231/88/231 224/89/224
f 227/90/227 222/91/222 225/92/225
f 221/93/221 227/95/227 228/99/228
f 232/100/232 223/97/223 231/96/231
f 221/83/221 230/87/230 224/89/224
f 229/84/229 222/91/222 223/85/223
f 226/77/226 229/78/229 230/79/230
f 225/92/225 222/91/222 229/84/229
f 226/77/226 225/80/225 229/78/229
f 226/82/226 230/87/230 221/83/221
f 240/81/240 238/82/238 233/83/233
f 233/93/233 234/94/234 239/95/239
f 243/96/243 235/97/235 236/98/236
f 241/84/241 235/85/235 244/86/244
f 242/87/242 243/88/243 236/89/236
f 239/90/239 234/91/234 237/92/237
f 233/93/233 239/95/239 240/99/240
f 244/100/244 235/97/235 243/96/243
f 233/83/233 242/87/242 236/89/236
f 241/84/241 234/91/234 235/85/235
f 238/77/238 241/78/241 242/79/242
f 237/92/237 234/91/234 241/84/241
f 238/77/238 237/80/237 241/78/241
f 238/82/238 242/87/242 233/83/233
f 252/81/252 250/82/250 245/83/245
f 245/93/245 246/94/246 251/95/251
f 255/96/255 247/97/247 248/98/248
f 253/84/253 247/85/247 256/86/256
f 254/87/254 255/88/255 248/89/248
f 251/90/251 246/91/246 249/92/249
f 245/93/245 251/95/251 252/99/252
f 256/100/256 247/97/247 255/96/255
f 245/83/245 254/87/254 248/89/248
f 253/84/253 246/91/246 247/85/247
f 250/77/250 253/78/253 254/79/254
f 249/92/249 246/91/246 253/84/253
f 250/77/250 249/80/249 253/78/253
f 250/82/250 254/87/254 245/83/245
f 264/81/264 262/82/262 257/83/257
f 257/93/257 258/94/258 263/95/263
f 267/96/267 259/97/259 260/98/260
f 265/84/265 259/85/259 268/86/268
f 266/87/266 267/88/267 260/89/260
f 263/90/263 258/91/258 261/92/261
f 257/93/257 263/95/263 264/99/264
f 268/100/268 259/97/259 267/96/267
f 257/83/257 266/87/266 260/89/260
f 265/84/265 258/91/258 259/85/259
f 262/77/262 265/78/265 266/79/266
f 261/92/261 258/91/258 265/84/265
f 262/77/262 261/80/261 265/78/265
f 262/82/262 266/87/266 257/83/257
f 276/81/276 274/82/274 269/83/269
f 269/93/269 270/94/270 275/95/275
f 279/96/279 271/97/271 272/98/272
f 277/84/277 271/85/271 280/86/280
f 278/87/278 279/88/279 272/89/272
f 275/90/275 270/91/270 273/92/273
f 269/93/269 275/95/275 276/99/276
f 280/100/280 271/97/271 279/96/279
f 269/83/269 278/87/278 272/89/272
f 277/84/277 270/91/270 271/85/271
f 274/77/274 277/78/277 278/79/278
f 273/92/273 270/91/270 277/84/277
f 274/77/274 273/80/273 277/78/277
f 274/82/274 278/87/278 269/83/269
g fff06920_00068_00113308_e7
f 42/68/42 41/64/41 30/56/30
f 30/56/30 36/62/36 42/68/42
f 38/67/38 42/68/42 9/4/9
f 36/62/36 9/4/9 42/68/42
f 37/63/37 8/3/8 41/64/41
f 30/56/30 41/64/41 8/3/8
f 23/12/23 39/2/39 24/11/24
f 24/11/24 39/2/39 40/1/40
f 40/70/40 38/69/38 9/31/9
f 9/31/9 24/34/24 40/70/40
f 39/66/39 8/23/8 37/65/37
f 8/23/8 39/66/39 23/26/23
f 84/68/84 83/64/83 72/56/72
f 72/56/72 78/62/78 84/68/84
f 80/67/80 84/68/84 51/4/51
f 78/62/78 51/4/51 84/68/84
f 79/63/79 50/3/50 83/64/83
f 72/56/72 83/64/83 50/3/50
f 65/12/65 81/2/81 66/11/66
f 66/11/66 81/2/81 82/1/82
f 82/70/82 80/69/80 51/31/51
f 51/31/51 66/34/66 82/70/82
f 81/66/81 50/23/50 79/65/79
f 50/23/50 81/66/81 65/26/65
f 134/68/134 133/64/133 122/56/122
f 122/56/122 128/62/128 134/68/134
f 130/67/130 134/68/134 101/4/101
f 128/62/128 101/4/101 134/68/134
f 129/63/129 100/3/100 133/64/133
f 122/56/122 133/64/133 100/3/100
f 115/12/115 131/2/131 116/11/116
f 116/11/116 131/2/131 132/1/132
f 132/70/132 130/69/130 101/31/101
f 101/31/101 116/34/116 132/70/132
f 131/66/131 100/23/100 129/65/129
f 100/23/100 131/66/131 115/26/115
f 176/68/176 175/64/175 164/56/164
f 164/56/164 170/62/170 176/68/176
f 172/67/172 176/68/176 143/4/143
f 170/62/170 143/4/143 176/68/176
f 171/63/171 142/3/142 175/64/175
f 164/56/164 175/64/175 142/3/142
f 157/12/157 173/2/173 158/11/158
f 158/11/158 173/2/173 174/1/174
f 174/70/174 172/69/172 143/31/143
f 143/31/143 158/34/158 174/70/174
f 173/66/173 142/23/142 171/65/171
f 142/23/142 173/66/173 157/26/157
