# fff0ade4_00252_003cbaed
o fff0ade4_00252_003cbaed
v -0.223471 -0.055116 -0.142787
v 0.211921 -0.049893 -0.142787
v -0.220763 -0.086965 0.247273
v 0.209979 -0.081798 0.247273
v 0.247252 -0.034652 -0.150436
v -0.262510 -0.040766 -0.150436
v -0.155635 -0.340327 -0.147358
v 0.150947 -0.336648 -0.147358
v -0.263378 0.031591 -0.154571
v 0.272041 -0.308831 -0.311709
v -0.267573 -0.317794 -0.311709
v -0.272041 0.054698 -0.311709
v 0.267600 0.061170 -0.311709
v 0.270098 -0.312020 -0.164452
v -0.265583 -0.318447 -0.164452
v -0.270057 0.054721 -0.164452
v 0.265620 0.061147 -0.164452
v -0.238225 0.357015 -0.311952
v 0.210493 0.362741 -0.311952
v -0.241422 0.175643 -0.309866
v 0.218312 0.181512 -0.309866
v -0.235131 0.357056 -0.298908
v 0.207602 0.362704 -0.298908
v -0.238390 0.180424 -0.278927
v 0.215371 0.186214 -0.278927
v 0.193340 0.344337 -0.296864
v -0.226332 0.214676 -0.282884
v 0.200619 0.222038 -0.282582
v -0.222295 0.336203 -0.297245
v 0.246603 0.019488 0.311952
v -0.263165 0.013699 0.311952
v 0.213993 0.036264 -0.115294
v 0.246385 0.037704 -0.154571
v -0.231726 0.030755 -0.110643
v -0.231539 0.015040 0.263171
v 0.214184 0.020320 0.263171
v 0.207097 0.018441 0.255480
v 0.206938 0.031604 -0.105753
v -0.224932 0.026105 -0.105753
v -0.224785 0.013482 0.255480
v 0.247711 -0.073104 0.290309
v -0.262051 -0.079219 0.290309
v 0.151218 -0.359063 0.125457
v -0.155365 -0.362741 0.125986
v 0.173884 -0.302029 -0.164452
v -0.169647 -0.305248 -0.164452
v -0.233061 0.028221 -0.164452
v 0.229452 0.033529 -0.164452
v 0.227718 -0.309691 -0.289805
v -0.163417 -0.316482 -0.289805
v 0.226092 -0.312358 -0.176564
v -0.161753 -0.317028 -0.176564
v 0.218586 -0.312280 -0.186042
v -0.153274 -0.316872 -0.186042
v 0.113142 -0.315661 -0.283218
v 0.208178 -0.313981 -0.283218
v 0.113142 -0.315661 -0.188167
v 0.208178 -0.313981 -0.188167
v 0.063111 0.064408 -0.225680
v 0.191654 0.065949 -0.225680
v 0.063111 0.064408 -0.212695
v 0.191654 0.065949 -0.212695
v 0.072001 -0.344174 -0.125046
v 0.130240 -0.343481 -0.125047
v 0.130286 -0.347024 -0.081859
v 0.072048 -0.347722 -0.081778
v -0.202182 0.060675 -0.220442
v -0.201442 0.060685 -0.204176
v -0.083529 0.062094 -0.220442
v -0.083529 0.062094 -0.204176
v -0.214273 0.057823 -0.232832
v -0.213382 0.057833 -0.191787
v -0.071455 0.059377 -0.232832
v -0.071455 0.059377 -0.191787
v 0.045364 0.061089 -0.291554
v 0.209476 0.063056 -0.291554
v 0.045364 0.061089 -0.177077
v 0.209091 0.063054 -0.177077
v -0.272041 0.054698 -0.311709
v 0.267600 0.061170 -0.311709
v -0.270057 0.054721 -0.164452
v 0.265620 0.061147 -0.164452
v -0.263378 0.031591 -0.154571
v 0.246603 0.019488 0.311952
v -0.263165 0.013699 0.311952
v 0.213993 0.036264 -0.115294
v 0.246385 0.037704 -0.154571
v -0.231726 0.030755 -0.110643
v -0.231539 0.015040 0.263171
v 0.214184 0.020320 0.263171
v 0.211921 -0.049893 -0.142787
v -0.220763 -0.086965 0.247273
v 0.209979 -0.081798 0.247273
v 0.247252 -0.034652 -0.150436
v -0.262510 -0.040766 -0.150436
v 0.150947 -0.336648 -0.147358
v 0.272041 -0.308831 -0.311709
v -0.267573 -0.317794 -0.311709
v 0.270098 -0.312020 -0.164452
v -0.265583 -0.318447 -0.164452
v -0.270057 0.054721 -0.164452
v 0.265620 0.061147 -0.164452
v 0.247711 -0.073104 0.290309
v -0.262051 -0.079219 0.290309
v 0.151218 -0.359063 0.125457
v -0.155365 -0.362741 0.125986
v -0.223471 -0.055116 -0.142787
v -0.220763 -0.086965 0.247273
vt -0.000091 0.311162
vt 0.571187 0.311162
vt 0.571187 0.502639
vt -0.000091 0.502639
vt 0.022439 0.333042
vt 0.555755 0.482616
vt 0.020531 0.480373
vt 0.553990 0.336198
vt 0.007181 0.039497
vt 0.007181 0.967684
vt 0.982047 0.039497
vt 0.982047 0.967684
vt 0.000002 0.294216
vt 0.570182 0.294216
vt 0.570182 0.327008
vt 0.000002 0.327008
vt 0.692593 0.002101
vt 0.998217 0.002101
vt 0.018813 0.502851
vt 0.018525 0.531392
vt 0.487457 0.975748
vt 0.014106 0.968859
vt 0.250782 0.972304
vt 0.249796 0.534105
vt 0.249693 0.502851
vt 0.250167 0.548734
vt 0.126420 0.554037
vt 0.484260 0.754746
vt 0.471792 0.756003
vt 0.464657 0.905116
vt 0.364549 0.956376
vt 0.250236 0.964589
vt 0.037159 0.902836
vt 0.038969 0.600698
vt 0.016326 0.753314
vt 0.030685 0.754553
vt 0.571047 0.507223
vt 0.499370 0.988453
vt 0.499370 0.763279
vt 0.501136 0.514351
vt 0.501136 0.752532
vt 0.508377 0.982418
vt 0.508377 0.504145
vt 0.570978 0.504145
vt 0.570978 0.982418
vt 0.917361 0.453617
vt 0.998217 0.667789
vt 0.692593 0.652026
vt 0.782657 0.301067
vt 0.932222 0.299690
vt 0.998217 0.660489
vt 0.692593 0.645427
vt 0.001006 0.295416
vt 0.149956 0.295446
vt 0.152378 0.325649
vt 0.001006 0.313429
vt 0.974201 0.738062
vt 0.971209 0.966860
vt 0.738873 0.967028
vt 0.738210 0.740434
vt 0.570978 0.536652
vt 0.571047 0.965085
vt 0.570978 0.956264
vt 0.569923 0.532213
vt 0.570978 0.957477
vt 0.571047 0.972856
vt 0.997452 0.232928
vt 0.720237 0.232928
vt 0.508377 0.746436
vt 0.570978 0.746494
vt 0.569923 0.749020
vt 0.722403 0.494458
vt 0.995196 0.494458
vt 0.722403 0.268570
vt 0.980715 0.501772
vt 0.969781 0.264511
vt 0.981809 0.501772
vt 0.858844 0.367350
vt 0.858844 0.367350
vt 0.736360 1.010168
vt 0.736360 0.712704
vt 0.996464 1.010168
vt 0.851751 0.455397
vt 0.997043 0.712716
vt 0.008515 0.968451
vt 0.007392 0.753215
vt 0.018776 0.514815
vt 0.249831 0.516893
vt 0.490549 0.754733
vt 0.493825 0.976030
vt 0.487513 0.989064
vt 0.250795 0.985478
vt 0.851751 0.455397
vt 0.917361 0.453617
vt 0.782657 0.301067
vt 0.932222 0.299690
vt 0.997043 0.712716
vt 0.736360 0.712704
vt 0.996464 1.010168
vt 0.736360 1.010168
vt 0.996501 0.991099
vt 0.736360 0.983407
vt 0.992809 0.990989
vt 0.739242 0.983493
vt 0.000000 0.000000
vt 1.000000 0.000000
vt 0.000000 1.000000
vt 1.000000 1.000000
vt 0.648358 0.000063
vt 0.652829 0.293078
vt 0.043691 0.001001
vt 0.038171 0.293077
vt 0.648484 0.000064
vt 0.652955 0.293079
vt 0.648484 0.000063
vt 0.652955 0.293079
vt 0.692593 0.645427
vt 0.998217 0.660489
vn -0.972833 -0.231189 -0.012123
vn 0.376266 -0.923003 -0.080560
vn -0.973646 -0.227597 -0.014563
vn 0.165053 -0.984792 0.054245
vn 0.379994 -0.921454 -0.080785
vn -0.326183 -0.942309 -0.075223
vn -0.629009 -0.775025 -0.060699
vn 0.011961 -0.996569 -0.081894
vn -0.999928 -0.011989 -0.000004
vn 0.011573 -0.999775 -0.017795
vn 0.014053 -0.999880 -0.006529
vn -0.999838 -0.011989 0.013467
vn 0.999838 0.012001 0.013444
vn 0.009561 -0.717287 0.696713
vn 0.009408 -0.712012 0.702104
vn 0.000000 0.000000 1.000000
vn 0.000000 0.000000 1.000000
vn -0.731130 0.663297 0.159642
vn 0.718459 0.676642 0.161160
vn -0.689666 -0.702380 0.176132
vn 0.708921 -0.682992 0.175933
vn -0.496837 0.620353 0.606889
vn 0.496838 0.631086 0.595720
vn -0.547223 -0.498276 0.672509
vn 0.566392 -0.484309 0.666817
vn -0.004325 0.114819 0.993377
vn 0.002794 0.114232 0.993450
vn 0.011462 0.110217 0.993841
vn 0.022719 0.103945 0.994323
vn 0.661918 -0.163018 0.731634
vn -0.658207 -0.178257 0.731429
vn -0.232653 0.931320 0.280207
vn 0.999928 0.011988 0.000004
vn 0.334285 0.871754 0.358187
vn 0.120970 0.987812 -0.097951
vn -0.151268 0.983338 -0.100821
vn -0.160422 0.982629 -0.093302
vn -0.295372 0.926008 0.235086
vn 0.282075 0.860617 0.423995
vn 0.130484 0.987756 -0.085514
vn 0.156546 -0.985494 0.065527
vn -0.128204 -0.990209 0.055228
vn 0.011893 -0.996576 -0.081818
vn -0.675896 -0.734586 -0.059565
vn 0.000000 0.000000 1.000000
vn 0.000000 0.000000 1.000000
vn 0.000000 0.000000 1.000000
vn 0.000000 0.000000 1.000000
vn 0.012987 -0.999799 -0.015279
vn 0.016161 -0.999781 -0.013272
vn 0.012963 -0.999742 -0.018650
vn 0.012430 -0.999877 -0.009577
vn 0.014773 -0.999662 -0.021401
vn 0.013652 -0.999888 -0.006079
vn 0.017678 -0.999844 0.000000
vn 0.017678 -0.999844 0.000000
vn 0.017678 -0.999844 0.000000
vn 0.017678 -0.999844 0.000000
vn -0.011987 0.999928 0.000000
vn -0.011987 0.999928 0.000000
vn -0.011987 0.999928 0.000000
vn -0.011987 0.999928 0.000000
vn 0.011836 -0.996583 -0.081745
vn 0.011864 -0.996580 -0.081782
vn 0.011845 -0.996582 -0.081756
vn 0.011817 -0.996585 -0.081719
vn -0.011947 0.999929 -0.000033
vn -0.011946 0.999929 -0.000036
vn -0.011951 0.999929 0.000000
vn -0.011951 0.999929 -0.000003
vn -0.010878 0.999941 -0.000012
vn -0.010877 0.999941 -0.000014
vn -0.010881 0.999941 0.000000
vn -0.010880 0.999941 -0.000003
vn -0.011987 0.999928 0.000000
vn -0.011997 0.999928 -0.000014
vn -0.011993 0.999928 -0.000009
vn -0.012003 0.999928 -0.000022
vn -0.011995 0.999928 0.000005
vn -0.011992 0.999928 -0.000007
vn -0.011996 0.999928 0.000007
vn -0.011993 0.999928 -0.000005
vn -0.017572 0.999295 0.033175
vn -0.019469 0.999361 0.029969
vn -0.001342 0.999637 0.026895
vn -0.002374 0.999395 0.034688
vn -0.005821 0.999427 0.033360
vn -0.022669 0.999119 0.035317
vn 0.002938 0.999547 0.029944
vn -0.022501 0.999223 0.032355
vn 0.978100 -0.207784 -0.012127
vn 0.004818 -0.401626 0.915791
vn 0.639905 -0.419802 0.643652
vn 0.999928 0.011990 0.000005
vn -0.999928 -0.011990 -0.000005
vn 0.978740 -0.204609 -0.014274
vn 0.999838 0.011999 0.013449
vn -0.999838 -0.011992 0.013459
vn 0.999838 0.011998 0.013450
vn -0.999838 -0.011991 0.013461
vn -0.999838 -0.011988 0.013470
vn 0.999838 0.012000 0.013445
vn 0.738896 -0.144964 0.658041
vn -0.735108 -0.162200 0.658261
vn 0.695853 -0.407345 0.591488
vn 0.005437 -0.402302 0.915491
vn -0.331160 -0.940629 -0.074505
vn -0.132194 -0.989807 0.052987
g fff0ade4_00252_003cbaed_e0
f 5/45/5 41/61/41 2/42/2
f 106/76/106 93/72/93 92/73/92
f 7/58/7 43/60/43 44/57/44
f 105/74/105 93/72/93 106/76/106
f 104/64/104 30/41/30 31/40/31
f 46/94/46 45/93/45 48/95/48
f 46/94/46 48/95/48 47/96/47
f 41/61/41 4/43/4 2/42/2
f 25/16/25 24/15/24 20/14/20
f 41/70/41 42/63/42 108/42/108
f 6/44/6 107/43/107 108/42/108
f 103/71/103 30/41/30 104/64/104
f 49/97/49 50/98/50 11/81/11
f 20/14/20 21/13/21 25/16/25
f 43/60/43 7/58/7 8/59/8
f 52/100/52 53/103/53 51/99/51
f 4/69/4 41/70/41 108/42/108
f 52/100/52 54/104/54 53/103/53
f 14/99/14 15/80/15 52/100/52
f 10/84/10 14/82/14 51/99/51
f 52/100/52 51/99/51 14/99/14
f 11/81/11 10/84/10 49/97/49
f 42/65/42 6/44/6 108/42/108
f 47/96/47 48/95/48 17/95/17
f 51/101/51 49/97/49 10/84/10
f 23/1/23 29/8/29 26/5/26
f 23/1/23 22/2/22 29/8/29
f 15/80/15 11/98/11 50/98/50
f 50/98/50 52/102/52 15/80/15
f 45/93/45 17/49/17 48/95/48
f 15/46/15 14/83/14 45/93/45
f 45/93/45 46/94/46 15/46/15
f 17/95/17 16/96/16 47/96/47
f 17/49/17 45/93/45 14/93/14
f 46/94/46 47/96/47 16/50/16
f 16/50/16 15/46/15 46/94/46
f 26/5/26 28/7/28 23/1/23
f 29/8/29 22/2/22 27/6/27
f 27/6/27 25/4/25 28/7/28
f 24/3/24 25/4/25 27/6/27
f 27/6/27 22/2/22 24/3/24
f 28/7/28 25/4/25 23/1/23
g fff0ade4_00252_003cbaed_e1
f 7/79/7 44/77/44 3/67/3
f 9/39/9 104/66/104 31/38/31
f 101/51/101 12/52/12 100/18/100
f 19/13/19 18/14/18 22/15/22
f 24/55/24 22/56/22 18/53/18
f 12/52/12 98/17/98 100/18/100
f 3/67/3 1/68/1 7/79/7
f 95/37/95 104/66/104 9/39/9
f 18/53/18 20/54/20 24/55/24
f 22/15/22 23/16/23 19/13/19
f 71/113/71 72/114/72 74/116/74
f 74/116/74 73/115/73 71/113/71
g fff0ade4_00252_003cbaed_e4
f 59/109/59 61/110/61 60/111/60
f 60/111/60 61/110/61 62/112/62
f 35/21/35 36/23/36 37/32/37
f 37/33/37 36/22/36 32/35/32
f 34/24/34 38/27/38 32/20/32
f 34/28/34 35/21/35 39/29/39
f 39/29/39 35/21/35 40/30/40
f 40/31/40 35/21/35 37/32/37
f 38/34/38 37/36/37 32/20/32
f 34/24/34 39/26/39 38/27/38
g fff0ade4_00252_003cbaed_e6
f 49/97/49 54/104/54 50/98/50
f 49/97/49 53/103/53 54/104/54
f 67/113/67 68/114/68 70/116/70
f 70/116/70 69/115/69 67/113/67
f 75/109/75 77/110/77 76/111/76
f 76/111/76 77/110/77 78/112/78
f 63/58/63 65/60/65 66/57/66
f 90/23/90 85/91/85 84/92/84
f 65/60/65 63/58/63 64/59/64
f 84/85/84 87/86/87 90/22/90
f 85/90/85 89/21/89 83/89/83
f 89/21/89 85/91/85 90/23/90
f 87/86/87 86/35/86 90/22/90
f 83/25/83 88/88/88 87/19/87
f 83/89/83 89/21/89 88/28/88
f 88/88/88 86/87/86 87/19/87
f 79/52/79 81/51/81 82/118/82
f 82/118/82 80/117/80 79/52/79
g fff0ade4_00252_003cbaed_e7
f 50/98/50 54/104/54 52/102/52
f 49/97/49 51/101/51 53/103/53
f 26/9/26 29/11/29 27/12/27
f 27/12/27 28/10/28 26/9/26
g fff0ade4_00252_003cbaed_e8
f 58/108/58 57/107/57 55/105/55
f 55/105/55 56/106/56 58/108/58
f 23/56/23 25/55/25 21/54/21
f 21/54/21 19/53/19 23/56/23
f 103/62/103 94/37/94 33/39/33
f 30/38/30 103/62/103 33/39/33
f 96/78/96 93/67/93 105/75/105
f 93/67/93 96/78/96 91/68/91
f 13/48/13 102/47/102 97/17/97
f 102/47/102 99/18/99 97/17/97
