# fff0a81b_00394_00916ae8
o fff0a81b_00394_00916ae8
v -1.123081 -6.987883 -1.740032
v 0.700513 -6.987883 -0.582675
v -1.237892 -6.987883 -1.620640
v -1.237892 -6.987883 -0.570738
v -1.123081 -6.987883 -0.462982
v 0.774033 4.367774 -2.147777
v 0.774033 6.946935 -0.090095
v 0.774033 4.367774 -0.113461
v 0.582317 4.499091 -0.316268
v 0.583931 4.406147 -0.258413
v 0.583931 4.499194 -0.341840
v 0.583931 4.590834 -0.255933
v 0.583931 4.498778 -0.173399
v 0.584764 4.367774 -0.113461
v 0.584764 4.367774 -2.147777
v 0.584764 6.946935 -2.102588
v 0.584764 6.946935 -0.090095
v 0.582317 6.700442 -0.258127
v 0.582317 6.765216 -0.316268
v 0.582317 6.829156 -0.256395
v 0.582317 6.765007 -0.198879
v 0.582317 4.434212 -0.258127
v 0.582317 4.562926 -0.256395
v 0.582317 4.498778 -0.198879
v 0.583931 6.672325 -0.258413
v 0.583931 6.765320 -0.341840
v 0.583931 6.857012 -0.255933
v 0.583931 6.765007 -0.173399
v -1.102254 5.131464 -1.682623
v -1.159685 5.230940 -0.524965
v -1.159685 5.230940 -1.574867
v 0.585546 -6.990122 -0.463067
v 1.139637 6.969545 -1.708970
v -0.242804 6.192143 -1.663619
v 1.128047 6.988121 -1.641567
v 1.128047 6.980467 -0.591665
v 0.658910 4.963801 -0.572848
v 1.128047 5.168381 -0.572848
v -0.276274 6.243607 -1.605663
v -0.236047 6.270090 -0.556934
v 1.128047 5.234351 -0.465092
v 1.128047 6.840532 -0.472278
v -0.171887 6.176816 -0.438572
v -1.102254 5.131464 -0.405578
v 0.601478 5.063229 -0.465092
v -1.108502 4.292769 -1.736338
v -1.255075 4.292769 -1.612103
v -1.240964 4.086110 -1.612103
v -1.094443 4.086110 -1.736338
v 0.766900 4.086110 -0.539134
v 0.620379 4.086110 -0.414905
v 0.620379 4.292769 -0.414905
v 0.766900 4.292769 -0.539134
v -1.219634 4.292819 -0.496441
v -1.093922 4.292790 -0.391551
v -1.079864 4.086131 -0.391551
v -1.205523 4.086159 -0.496441
v -1.108502 2.580554 -1.734807
v -1.255075 2.580554 -1.610572
v -1.240964 2.373895 -1.610572
v -1.094443 2.373895 -1.734807
v 0.766900 2.373895 -0.537604
v 0.620379 2.373895 -0.413375
v 0.620379 2.580554 -0.413375
v 0.766900 2.580554 -0.537604
v -1.254535 2.445029 -0.543671
v -1.107962 2.445029 -0.406022
v -1.093904 2.238369 -0.406022
v -1.240425 2.238369 -0.543671
v -1.152246 -1.286020 -1.761438
v -1.298818 -1.286020 -1.637202
v -1.284708 -1.492680 -1.637202
v -1.138187 -1.492680 -1.761438
v 0.723156 -1.492680 -0.564233
v 0.576636 -1.492680 -0.440004
v 0.576636 -1.286020 -0.440004
v 0.723156 -1.286020 -0.564233
v -1.298818 -1.286020 -0.578005
v -1.150531 -1.285998 -0.416247
v -1.136472 -1.492658 -0.416247
v -1.284708 -1.492680 -0.578005
v -0.963900 -6.985882 0.497839
v 0.859694 -6.985882 1.655198
v -1.078711 -6.985882 0.617232
v -1.078711 -6.985882 1.667133
v -0.963900 -6.985882 1.774889
v 0.859694 -6.985882 0.605295
v 0.743243 -6.987001 0.497647
v 0.933215 6.948936 0.135285
v 0.933215 4.369774 0.090096
v 0.933215 6.948936 2.147777
v 0.933215 4.369774 2.124411
v 0.741499 4.501091 1.921603
v 0.743113 4.408148 1.979458
v 0.743113 4.501194 1.896032
v 0.743113 4.592835 1.981939
v 0.743113 4.500779 2.064473
v 0.743946 4.369774 2.124411
v 0.743946 4.369774 0.090096
v 0.743946 6.948936 0.135285
v 0.743946 6.948936 2.147777
v 0.741499 6.767217 0.221842
v 0.741499 6.702443 1.979745
v 0.741499 6.767217 1.921603
v 0.741499 6.831157 1.981476
v 0.741499 6.767008 2.038992
v 0.741499 4.436213 1.979745
v 0.741499 4.564927 1.981476
v 0.741499 4.500779 2.038992
v 0.743113 6.674326 0.279697
v 0.743113 6.767321 0.196270
v 0.743113 6.859014 0.282177
v 0.743113 6.767008 0.364711
v 0.743113 6.674326 1.979458
v 0.743113 6.767321 1.896032
v 0.743113 6.859014 1.981939
v 0.743113 6.767008 2.064473
v 0.760660 5.065230 0.495729
v -0.943072 5.133465 0.555249
v 0.741499 4.432465 0.279983
v 0.741499 4.497238 0.221842
v 0.741499 4.561178 0.281715
v 0.741499 4.497030 0.339231
v 0.741499 6.702443 0.279983
v 0.741499 6.831157 0.281715
v 0.741499 6.767008 0.339231
v 0.743113 4.404348 0.279697
v 0.743113 4.497342 0.196270
v 0.743113 4.589035 0.282177
v 0.743113 4.497030 0.364711
v -1.000504 5.232941 1.712907
v -1.000504 5.232941 0.663005
v 0.744727 -6.988121 1.774805
v 1.298818 6.971546 0.528901
v -0.083622 6.194144 0.574252
v 1.287228 5.241325 0.495729
v 1.287228 6.990122 0.596305
v 1.287228 6.982468 1.646207
v 0.818091 4.965802 0.615121
v 0.818091 4.965802 1.665023
v 1.287228 5.170382 1.665023
v 1.287228 5.110634 0.615121
v -0.117092 6.245607 0.632209
v -0.076865 6.272091 1.680939
v 1.287228 5.236351 1.772779
v 1.287228 6.842533 1.765594
v -0.012706 6.178817 1.799300
v -0.943072 5.133465 1.832294
v 0.760660 5.065230 1.772779
v 0.920643 4.294701 0.563090
v 0.774123 4.294701 0.425440
v 0.774123 4.088042 0.425440
v 0.920643 4.088042 0.563090
v -0.949321 4.294770 0.501535
v -1.095893 4.294770 0.625769
v -1.081783 4.088110 0.625769
v -0.935262 4.088110 0.501535
v 0.926082 4.088110 1.698737
v 0.779561 4.088110 1.822967
v 0.779561 4.294770 1.822967
v 0.926082 4.294770 1.698737
v -1.060453 4.294820 1.741430
v -0.934741 4.294791 1.846321
v -0.920682 4.088131 1.846321
v -1.046342 4.088160 1.741430
v 0.920643 1.753213 0.565363
v 0.774123 1.753213 0.427714
v 0.774123 1.546553 0.427714
v 0.920643 1.546553 0.565363
v -0.949321 1.753281 0.503807
v -1.095893 1.753281 0.628042
v -1.081783 1.546622 0.628042
v -0.935262 1.546622 0.503807
v 0.926082 1.709400 1.700864
v 0.779561 1.709400 1.825093
v 0.779561 1.916060 1.825093
v 0.926082 1.916060 1.700864
v -1.095354 1.780534 1.694797
v -0.948781 1.780534 1.832446
v -0.934723 1.573875 1.832446
v -1.081243 1.573875 1.694797
v 0.876900 -1.284087 0.537991
v 0.730379 -1.284087 0.400341
v 0.730379 -1.490746 0.400341
v 0.876900 -1.490746 0.537991
v -0.993064 -1.284019 0.476435
v -1.139637 -1.284019 0.600670
v -1.125526 -1.490678 0.600670
v -0.979006 -1.490678 0.476435
v 0.882338 -1.490678 1.673639
v 0.735817 -1.490678 1.797868
v 0.735817 -1.284019 1.797868
v 0.882338 -1.284019 1.673639
v -1.139637 -1.172467 1.659768
v -0.992454 -1.172460 1.806001
v -0.978395 -1.379120 1.806001
v -1.125526 -1.379127 1.659768
v -1.152246 -4.267646 -1.758771
v -1.298818 -4.267646 -1.634536
v -1.284708 -4.474306 -1.634536
v -1.138187 -4.474306 -1.758771
v 0.723156 -4.474306 -0.561567
v 0.576636 -4.474306 -0.437338
v 0.576636 -4.267646 -0.437338
v 0.723156 -4.267646 -0.561567
v -1.298818 -4.318881 -0.575294
v -1.150531 -4.267624 -0.413581
v -1.136472 -4.474284 -0.413581
v -1.284708 -4.525541 -0.575294
v 0.876900 -3.076835 0.539594
v 0.730379 -3.076835 0.401944
v 0.730379 -3.283494 0.401944
v 0.876900 -3.283494 0.539594
v -0.993064 -3.076766 0.478038
v -1.139637 -3.076766 0.602273
v -1.125526 -3.283426 0.602273
v -0.979006 -3.283426 0.478038
v 0.882338 -3.283426 1.675242
v 0.735817 -3.283426 1.799471
v 0.735817 -3.076766 1.799471
v 0.882338 -3.076766 1.675242
v -1.139637 -3.076766 1.661470
v -0.993064 -3.076766 1.799120
v -0.979006 -3.283426 1.799120
v -1.125526 -3.283426 1.661470
v -1.152246 -6.649977 -1.756641
v -1.298818 -6.649977 -1.632406
v -1.284708 -6.856637 -1.632406
v -1.138187 -6.856637 -1.756641
v 0.723156 -6.856637 -0.559437
v 0.576636 -6.856637 -0.435208
v 0.576636 -6.649977 -0.435208
v 0.723156 -6.649977 -0.559437
v -1.298818 -6.649977 -0.573209
v -1.150531 -6.649955 -0.411451
v -1.136472 -6.856615 -0.411451
v -1.284708 -6.856637 -0.573209
v 0.876900 -6.648044 0.542787
v 0.730379 -6.648044 0.405137
v 0.730379 -6.854703 0.405137
v 0.876900 -6.854703 0.542787
v -0.993064 -6.647975 0.481231
v -1.139637 -6.647975 0.605466
v -1.125526 -6.854635 0.605466
v -0.979006 -6.854635 0.481231
v 0.882338 -6.854635 1.678436
v 0.735817 -6.854635 1.802664
v 0.735817 -6.647975 1.802664
v 0.882338 -6.647975 1.678436
v -1.139637 -6.681564 1.664694
v -0.993064 -6.647975 1.802313
v -0.979006 -6.854635 1.802313
v -1.125526 -6.854635 1.664664
v -1.076269 -6.016462 1.617859
v -0.965993 -6.014438 1.726585
v 0.746473 -5.666985 1.774583
v -1.066651 -5.101743 1.674192
v -0.960648 -5.093975 1.783850
v 0.748219 -4.346055 1.774361
v -1.065941 -4.990708 0.624706
v -0.960460 -4.984212 0.507321
v -1.222422 -4.570822 -0.561683
v -1.118905 -4.558017 -0.451473
v -1.231172 -5.437324 -0.609981
v -1.123681 -5.472095 -0.500854
v -1.226854 -5.263309 -1.614179
v 0.588052 -5.093928 -0.463385
v -1.298818 -4.353158 -0.953595
v -1.284708 -4.559818 -0.953600
v -4.185451 -12.596202 28.401226
v -2.133150 -12.597838 27.728222
v -4.166222 -12.596160 28.565742
v -3.355376 -12.596503 29.232794
v -3.199255 -12.596618 29.212511
v -2.943931 -12.597496 27.061228
v -3.101064 -12.598499 27.082747
v -3.250576 7.157297 26.696096
v -3.287295 4.578152 26.668217
v -1.696413 7.156642 27.974607
v -1.716234 4.577489 27.960640
v -1.994592 4.709005 27.979773
v -1.948929 4.616042 28.015341
v -2.013303 4.709116 27.962318
v -1.946886 4.800728 28.016804
v -1.883190 4.708644 28.069323
v -1.836476 4.577620 28.106808
v -3.407537 4.578282 26.814384
v -3.370818 7.157428 26.842264
v -1.816656 7.156773 28.120775
v -1.948186 6.910335 28.015989
v -1.993000 6.975129 27.979040
v -1.946725 7.039050 28.017056
v -1.902337 6.974881 28.053606
v -1.949747 4.644108 28.016720
v -1.948256 4.772821 28.017782
v -1.903894 4.708654 28.054398
v -1.947373 6.882218 28.014549
v -2.011746 6.975239 27.961527
v -1.945290 7.066904 28.016132
v -1.881660 6.974872 28.068596
v -3.083172 5.273594 27.058945
v -4.119538 5.342987 28.412437
v -3.261935 5.442126 29.192211
v -4.072716 5.442468 28.525217
v -2.113812 -12.600038 27.892979
v -2.714314 7.179527 26.663805
v -3.558114 6.403065 27.760456
v -2.748502 5.449325 26.652243
v -2.669634 7.198090 26.715559
v -1.858822 7.190092 27.382559
v -2.954515 5.174088 27.090511
v -2.143734 5.173746 27.757507
v -1.845562 5.378002 27.395105
v -2.656409 5.318596 26.728107
v -3.534594 6.454533 27.823109
v -2.699086 6.480647 28.458338
v -1.762308 5.443937 27.463531
v -1.766755 7.050118 27.458496
v -2.567027 6.387290 28.483967
v -3.133278 5.342571 29.223780
v -2.096977 5.273177 27.870230
v -3.129428 4.503079 27.004181
v -3.129563 4.296420 27.004192
v -2.930169 4.296275 26.978506
v -4.165559 4.504314 28.383419
v -4.162720 4.504375 28.575596
v -4.153928 4.297705 28.564753
v -4.156794 4.297646 28.372639
v -2.049726 4.295970 27.695799
v -2.046865 4.296030 27.887854
v -2.046734 4.502689 27.887781
v -2.049534 4.502628 27.695724
v -3.278622 4.504035 29.256956
v -3.117776 4.503886 29.226547
v -3.108950 4.297217 29.215763
v -3.269830 4.297368 29.246113
v -2.930008 2.790720 26.979963
v -3.129428 2.790865 27.005713
v -3.129563 2.584206 27.005724
v -2.930169 2.584061 26.980038
v -4.165559 2.792101 28.384949
v -4.162720 2.792160 28.577127
v -4.153928 2.585491 28.566284
v -4.156794 2.585432 28.374170
v -2.049726 2.583755 27.697330
v -2.046865 2.583816 27.889385
v -2.046734 2.790475 27.889313
v -2.049595 2.790414 27.697260
v -3.338574 2.656287 29.254490
v -3.139154 2.656140 29.228741
v -3.130323 2.449471 29.218018
v -3.329717 2.449618 29.243704
v -2.981069 -1.075812 26.998066
v -3.180459 -1.075667 27.023813
v -3.180589 -1.282326 27.023886
v -2.981200 -1.282473 26.998138
v -4.216616 -1.074433 28.403114
v -4.213785 -1.074372 28.595169
v -4.204928 -1.281041 28.584383
v -4.207789 -1.281103 28.392330
v -2.100726 -1.282778 27.715429
v -2.097861 -1.282718 27.907545
v -2.097730 -1.076057 27.907473
v -2.100595 -1.076119 27.715359
v -3.395787 -1.074719 29.268137
v -3.176681 -1.074851 29.256346
v -3.167854 -1.281520 29.245562
v -3.386935 -1.281388 29.257290
v -2.356081 -12.595040 29.700060
v -0.303784 -12.596677 29.026993
v -2.336857 -12.595000 29.864515
v -1.526041 -12.595344 30.531569
v -1.369886 -12.595456 30.511345
v -1.114565 -12.596335 28.359997
v -1.271699 -12.597339 28.381516
v -1.421242 7.158459 27.994867
v -1.457930 4.579313 27.966986
v 0.132952 7.157801 29.273378
v 0.113101 4.578651 29.259413
v -0.165222 4.710166 29.278603
v -0.119564 4.617203 29.314110
v -0.183938 4.710277 29.261087
v -0.117547 4.801889 29.315638
v -0.053856 4.709806 29.368097
v -0.007141 4.578782 29.405582
v -1.578172 4.579443 28.113153
v -1.541514 7.158589 28.141037
v 0.012683 7.157932 29.419611
v -1.476285 6.976843 28.197994
v -0.118817 6.911497 29.314819
v -0.163666 6.976291 29.277811
v -0.117356 7.040209 29.315886
v -0.072968 6.976043 29.352438
v -0.120378 4.645269 29.315550
v -0.118917 4.773982 29.316616
v -0.074529 4.709816 29.353168
v -1.430657 6.883934 28.233503
v -1.495061 6.976955 28.180483
v -1.428609 7.068620 28.235029
v -1.364979 6.976588 28.287491
v -0.118003 6.883379 29.313379
v -0.182377 6.976401 29.260357
v -0.115990 7.068065 29.314846
v -0.052295 6.976033 29.367367
v -1.253802 5.274755 28.357775
v -2.290169 5.344148 29.711269
v -1.433001 4.642076 28.235676
v -1.477907 4.706866 28.198732
v -1.431571 4.770787 28.236744
v -1.387213 4.706620 28.273296
v -1.431440 6.912051 28.234941
v -1.430040 7.040766 28.236012
v -1.385652 6.976597 28.272562
v -1.432248 4.613956 28.234240
v -1.496622 4.706978 28.181217
v -1.430196 4.798643 28.235825
v -1.366510 4.706611 28.288221
v -1.432565 5.443287 30.491045
v -2.243377 5.443629 29.824051
v -0.284447 -12.598876 29.191748
v -0.884944 7.180689 27.962635
v -1.728779 6.404226 29.059229
v -0.919133 5.450488 27.951073
v -0.840269 7.199251 28.014328
v -0.029488 7.191253 28.681330
v -1.125216 5.175249 28.389225
v -0.314369 5.174907 29.056276
v -0.016197 5.379163 28.693876
v -0.827039 5.319757 28.026939
v -1.705228 6.455695 29.121878
v -0.869751 6.481808 29.757113
v 0.067062 5.445096 28.762362
v 0.062610 7.051280 28.757265
v -0.737662 6.388451 29.782740
v -1.303913 5.343733 30.522551
v -0.267608 5.274339 29.169060
v -1.100639 4.504096 28.277264
v -1.300063 4.504241 28.302952
v -1.300194 4.297581 28.303022
v -1.100800 4.297436 28.277336
v -2.336190 4.505476 29.682251
v -2.333385 4.505535 29.874371
v -2.324563 4.298866 29.863525
v -2.327424 4.298807 29.671471
v -0.220361 4.297132 28.994570
v -0.217530 4.297191 29.186625
v -0.217369 4.503850 29.186552
v -0.220230 4.503789 28.994497
v -1.449283 4.505198 30.555792
v -1.288411 4.505047 30.525318
v -1.279585 4.298378 30.514534
v -1.440461 4.298529 30.544947
v -1.100639 1.962607 28.279535
v -1.300063 1.962754 28.305223
v -1.300194 1.756095 28.305296
v -1.100800 1.755948 28.279610
v -2.336190 1.963987 29.684523
v -2.333385 1.964049 29.876642
v -2.324563 1.757380 29.865797
v -2.327424 1.757318 29.673744
v -0.220361 1.918420 28.996696
v -0.217530 1.918481 29.188753
v -0.217369 2.125140 29.188679
v -0.220230 2.125081 28.996624
v -1.509205 1.990953 30.553919
v -1.309785 1.990806 30.528170
v -1.300958 1.784139 30.517385
v -1.500352 1.784284 30.543072
v -1.151700 -1.074650 28.296898
v -1.351094 -1.074505 28.322584
v -1.351224 -1.281165 28.322655
v -1.151861 -1.281312 28.296970
v -2.387250 -1.073272 29.701885
v -2.384416 -1.073211 29.894003
v -2.375559 -1.279880 29.883215
v -2.378424 -1.279941 29.691101
v -0.271361 -1.281616 29.014200
v -0.268495 -1.281555 29.206314
v -0.268365 -1.074896 29.206242
v -0.271226 -1.074957 29.014189
v -1.566453 -0.962006 30.566811
v -1.360006 -0.962146 30.546068
v -1.351180 -1.168816 30.535284
v -1.557600 -1.168675 30.555964
v -2.981069 -4.057437 27.000732
v -3.180459 -4.057292 27.026480
v -3.180589 -4.263952 27.026552
v -2.981200 -4.264099 27.000805
v -4.216616 -4.056059 28.405779
v -4.213785 -4.055998 28.597836
v -4.204928 -4.262667 28.587049
v -4.207789 -4.262728 28.394995
v -2.100726 -4.264404 27.718096
v -2.097861 -4.264343 27.910210
v -2.097730 -4.057683 27.910139
v -2.100595 -4.057745 27.718023
v -3.395787 -4.107578 29.270849
v -3.176681 -4.056477 29.259012
v -3.167854 -4.263146 29.248228
v -3.386935 -4.314249 29.260002
v -1.151700 -5.143363 28.300535
v -1.351094 -5.143217 28.326221
v -1.351224 -5.349878 28.326294
v -1.151861 -5.350023 28.300610
v -2.387250 -5.141984 29.705524
v -2.384416 -5.141924 29.897640
v -2.375559 -5.348593 29.886854
v -2.378424 -5.348654 29.694740
v -0.271361 -5.350330 29.017838
v -0.268495 -5.350268 29.209951
v -0.268365 -5.143609 29.209881
v -0.271226 -5.143670 29.017828
v -1.566453 -5.142269 30.570549
v -1.367002 -5.142416 30.544798
v -1.358206 -5.349084 30.534016
v -1.557600 -5.348938 30.559702
v -2.981069 -12.259649 27.008068
v -3.180459 -12.259503 27.033815
v -3.180589 -12.466163 27.033888
v -2.981200 -12.466310 27.008139
v -4.216616 -12.258271 28.413115
v -4.213785 -12.258210 28.605171
v -4.204928 -12.464879 28.594385
v -4.207789 -12.464940 28.402330
v -2.100726 -12.466615 27.725431
v -2.097861 -12.466555 27.917545
v -2.097730 -12.259894 27.917475
v -2.100595 -12.259955 27.725359
v -3.395787 -12.258555 29.278139
v -3.176681 -12.258689 29.266348
v -3.167854 -12.465358 29.255564
v -3.386935 -12.465224 29.267292
v -1.097346 -12.088625 28.334085
v -1.296740 -12.088480 28.359772
v -1.296871 -12.295139 28.359844
v -1.097507 -12.295284 28.334160
v -2.387250 -12.257109 29.711887
v -2.384416 -12.257049 29.904003
v -2.375559 -12.463717 29.893217
v -2.378424 -12.463778 29.701103
v -0.271361 -12.465453 29.024200
v -0.268495 -12.465392 29.216316
v -0.268365 -12.258733 29.216244
v -0.271226 -12.258794 29.024191
v -1.566453 -12.290980 30.576942
v -1.367002 -12.257540 30.551161
v -1.358206 -12.464209 30.540379
v -1.557600 -12.464063 30.566065
v -1.561898 -11.625909 30.498007
v -1.407863 -11.623996 30.481970
v -0.282599 -11.277741 29.189884
v -1.511654 -10.711216 30.526108
v -1.359577 -10.703556 30.513937
v -0.280759 -4.136932 29.182693
v -2.321562 -10.599840 29.858828
v -2.345206 -10.593378 29.702759
v -3.336905 -4.359576 29.220566
v -3.186012 -4.346879 29.210678
v -3.380371 -11.045938 29.202164
v -3.227793 -11.080818 29.188465
v -4.153006 -10.871599 28.560753
v -2.111168 -10.703846 27.890177
v -3.687962 -4.141732 29.030506
v -3.679136 -4.348402 29.019722
v -1.151700 -8.496943 28.303534
v -1.351094 -8.496796 28.329220
v -1.351224 -8.703457 28.329292
v -1.151861 -8.703602 28.303608
v -2.387250 -8.495563 29.708523
v -2.384416 -8.495503 29.900639
v -2.375559 -8.702172 29.889853
v -2.378424 -8.702233 29.697739
v -0.271361 -8.703909 29.020836
v -0.268495 -8.703847 29.212950
v -0.268365 -8.497188 29.212879
v -0.271226 -8.497249 29.020826
v -1.566453 -8.495848 30.573547
v -1.367002 -8.495995 30.547796
v -1.358206 -8.702663 30.537014
v -1.557600 -8.702517 30.562700
v -1.151700 -10.629969 28.305441
v -1.351094 -10.629822 28.331127
v -1.351224 -10.836483 28.331200
v -1.151861 -10.836628 28.305515
v -2.387250 -10.628589 29.710430
v -2.384416 -10.628530 29.902546
v -2.375559 -10.835198 29.891760
v -2.378424 -10.835259 29.699646
v -0.271361 -10.836935 29.022743
v -0.268495 -10.836873 29.214857
v -0.268365 -10.630214 29.214787
v -0.271226 -10.630275 29.022734
v -1.566453 -10.628874 30.575455
v -1.367002 -10.629021 30.549704
v -1.358206 -10.835690 30.538921
v -1.557600 -10.835543 30.564608
v -2.981069 -7.447778 27.003763
v -3.180459 -7.447633 27.029510
v -3.180589 -7.654292 27.029583
v -2.981200 -7.654439 27.003836
v -4.216616 -7.446399 28.408812
v -4.213785 -7.446338 28.600866
v -4.204928 -7.653007 28.590080
v -4.207789 -7.653069 28.398027
v -2.100726 -7.654743 27.721127
v -2.097861 -7.654684 27.913242
v -2.097730 -7.448023 27.913170
v -2.100595 -7.448084 27.721056
v -3.395787 -7.446684 29.273834
v -3.176681 -7.446816 29.262043
v -3.167854 -7.653486 29.251259
v -3.386935 -7.653354 29.262987
v -2.981069 -11.193067 27.007113
v -3.180459 -11.192922 27.032860
v -3.180589 -11.399580 27.032932
v -2.981200 -11.399727 27.007185
v -4.216616 -11.191689 28.412159
v -4.213785 -11.191628 28.604216
v -4.204928 -11.398295 28.593430
v -4.207789 -11.398356 28.401375
v -2.100726 -11.400032 27.724476
v -2.097861 -11.399971 27.916590
v -2.097730 -11.193313 27.916519
v -2.100595 -11.193374 27.724403
v -3.395787 -11.243206 29.277229
v -3.176681 -11.192106 29.265392
v -3.167854 -11.398774 29.254608
v -3.386935 -11.449877 29.266382
v -3.687962 -11.277360 29.036886
v -3.679136 -11.484030 29.026102
vt 4.144434 -0.998423
vt 4.144510 -0.000524
vt -1.814461 0.000000
vt -1.814981 -1.000000
vt 4.419232 1.000000
vt 4.419237 1.897304
vt -2.462959 1.897304
vt -2.462920 1.000000
vt -1.000000 1.000000
vt -0.999999 0.001511
vt -2.465822 1.999717
vt 4.419870 1.999716
vt -2.999897 -0.996008
vt 0.537507 0.001242
vt -0.000243 0.000404
vt 0.509416 0.001177
vt -0.662292 0.000000
vt 1.000079 0.000734
vt 0.025925 0.000709
vt 0.963945 0.000001
vt 0.299652 1.000000
vt -1.358359 1.000000
vt 4.138783 1.000000
vt 0.000249 1.000000
vt 4.419093 0.858089
vt -2.462901 0.858089
vt -2.972166 0.150112
vt -2.972166 0.000000
vt 4.417377 -0.001712
vt 4.417480 0.148401
vt 0.407079 0.097290
vt 0.407080 0.011573
vt 0.715814 0.006478
vt 0.706708 0.091378
vt 0.407141 1.000022
vt 0.407141 0.919687
vt 0.539696 0.919687
vt 0.539696 1.000000
vt 0.999998 0.999837
vt 1.039235 1.000000
vt 1.039235 0.000000
vt 1.000000 0.085591
vt -0.662292 1.000000
vt 0.956761 0.000032
vt 0.841314 0.999850
vt 0.919893 0.000707
vt 0.890419 0.999855
vt 0.878948 0.000062
vt 0.691599 0.999862
vt 0.843923 0.000682
vt 0.780856 0.999873
vt 0.673493 0.000861
vt 0.809019 0.000118
vt 0.834863 0.000679
vt 0.833612 0.000080
vt 0.604370 0.999869
vt 0.799520 0.000668
vt 0.907323 0.000051
vt 0.746194 0.999858
vt 0.874964 0.000693
vt 0.717787 0.000843
vt 0.842721 0.999863
vt -1.814646 -0.357188
vt 4.144483 -0.356966
vn -0.721969 0.007190 -0.691888
vn 0.720936 0.001940 0.692999
vn -0.927244 0.006632 -0.374400
vn -0.915908 0.012330 0.401198
vn -0.365641 0.023103 0.930469
vn 0.000000 -1.000000 0.000000
vn -0.000000 -0.009059 0.999959
vn -0.000000 -0.710302 0.703897
vn -1.000000 0.000000 0.000000
vn -1.000000 0.000000 0.000000
vn -1.000000 0.000000 0.000000
vn -1.000000 0.000000 0.000000
vn -1.000000 0.000000 0.000000
vn -0.577828 -0.579719 0.574491
vn -0.703130 -0.711061 0.000000
vn -1.000000 -0.000000 0.000000
vn -0.705059 -0.006424 0.709120
vn -1.000000 0.000000 0.000000
vn -1.000000 0.000000 0.000000
vn -1.000000 0.000000 0.000000
vn -1.000000 0.000000 0.000000
vn -1.000000 0.000000 0.000000
vn -1.000000 0.000000 0.000000
vn -1.000000 0.000000 0.000000
vn -1.000000 0.000000 0.000000
vn -1.000000 0.000000 0.000000
vn -1.000000 0.000000 0.000000
vn -1.000000 0.000000 0.000000
vn -0.792526 0.175077 -0.584167
vn -0.874748 0.237922 0.422148
vn -0.870556 0.215712 -0.442268
vn 0.385318 0.007413 0.922754
vn -0.450222 0.832013 -0.324122
vn -0.454752 0.519177 -0.723641
vn -0.451717 0.837167 -0.308388
vn -0.303593 0.618410 0.724845
vn 0.699339 -0.298558 0.649452
vn 0.269887 -0.795415 0.542656
vn -0.449175 0.530228 -0.719096
vn -0.425050 0.582778 0.692605
vn 0.130530 -0.401660 0.906439
vn -0.200585 0.424298 0.883027
vn -0.244212 0.345516 0.906079
vn -0.517237 0.132291 0.845556
vn 0.212898 -0.157890 0.964233
vn -0.645961 -0.043943 -0.762105
vn -0.915149 -0.062439 -0.398250
vn -0.908979 -0.062065 -0.412196
vn -0.646028 -0.044033 -0.762043
vn 0.646699 0.000000 0.762745
vn 0.350864 -0.000000 0.936427
vn 0.350857 0.000038 0.936429
vn 0.646699 -0.000000 0.762745
vn -0.900484 -0.061484 0.430521
vn -0.347468 -0.023689 0.937393
vn -0.320835 -0.021864 0.946883
vn -0.893709 -0.060970 0.444485
vn -0.645961 -0.043943 -0.762105
vn -0.898900 -0.061328 -0.433841
vn -0.908078 -0.062003 -0.414185
vn -0.646028 -0.044033 -0.762043
vn 0.646700 0.000000 0.762744
vn 0.338048 0.000000 0.941129
vn 0.355152 0.000012 0.934809
vn 0.646700 0.000000 0.762744
vn -0.926552 -0.063264 0.370808
vn -0.370423 -0.025247 0.928520
vn -0.361301 -0.024590 0.932125
vn -0.907383 -0.061904 0.415722
vn -0.645962 -0.043943 -0.762104
vn -0.908740 -0.062002 -0.412732
vn -0.902347 -0.061612 -0.426585
vn -0.646029 -0.044033 -0.762041
vn 0.646700 0.000000 0.762744
vn 0.350926 0.000000 0.936403
vn 0.350920 0.000038 0.936406
vn 0.646700 0.000000 0.762744
vn -0.932079 -0.063642 0.356620
vn -0.410910 -0.028004 0.911246
vn -0.381193 -0.025971 0.924131
vn -0.927995 -0.063314 0.367173
vn -0.392382 0.006419 -0.919780
vn 0.720932 0.001940 0.693003
vn -0.927105 0.006311 -0.374748
vn -0.913406 0.020947 0.406511
vn -0.373541 0.034058 0.926988
vn 0.680703 -0.001066 -0.732559
vn 0.362196 0.000780 -0.932102
vn 0.000000 0.017518 -0.999847
vn 0.000000 -0.700886 -0.713273
vn 0.000000 -0.009059 0.999959
vn 0.000000 -0.710302 0.703897
vn -1.000000 0.000000 0.000000
vn -1.000000 0.000000 0.000000
vn -1.000000 0.000000 0.000000
vn -1.000000 0.000000 0.000000
vn -1.000000 0.000000 0.000000
vn -0.577828 -0.579719 0.574491
vn -0.576435 -0.572724 -0.582847
vn -0.711017 0.012318 -0.703067
vn -0.705059 -0.006424 0.709120
vn -1.000000 0.000000 0.000000
vn -1.000000 0.000000 0.000000
vn -1.000000 0.000000 0.000000
vn -1.000000 0.000000 0.000000
vn -1.000000 0.000000 0.000000
vn -1.000000 0.000000 0.000000
vn -1.000000 0.000000 0.000000
vn -1.000000 0.000000 0.000000
vn -1.000000 0.000000 0.000000
vn -1.000000 0.000000 0.000000
vn -1.000000 0.000000 0.000000
vn -1.000000 0.000000 0.000000
vn -1.000000 0.000000 0.000000
vn -1.000000 0.000000 0.000000
vn -1.000000 0.000000 0.000000
vn -1.000000 0.000000 0.000000
vn 0.174104 -0.150254 -0.973196
vn -0.524305 0.123334 -0.842551
vn -1.000000 0.000000 0.000000
vn -1.000000 0.000000 0.000000
vn -1.000000 0.000000 0.000000
vn -1.000000 0.000000 0.000000
vn -1.000000 0.000000 0.000000
vn -1.000000 0.000000 0.000000
vn -1.000000 0.000000 0.000000
vn -1.000000 0.000000 0.000000
vn -1.000000 0.000000 0.000000
vn -1.000000 0.000000 0.000000
vn -1.000000 0.000000 0.000000
vn -0.874749 0.237922 0.422147
vn -0.870518 0.216509 -0.441953
vn 0.390792 0.001131 0.920478
vn -0.339503 0.605786 -0.719556
vn -0.287961 0.323872 -0.901213
vn 0.089603 -0.285510 -0.954178
vn -0.451717 0.837168 -0.308387
vn -0.303593 0.618410 0.724845
vn 0.698078 -0.343131 -0.628449
vn 0.699341 -0.298555 0.649451
vn 0.269887 -0.795415 0.542656
vn 0.203852 -0.660311 -0.722796
vn -0.449178 0.530231 -0.719093
vn -0.425048 0.582776 0.692608
vn 0.130530 -0.401660 0.906439
vn -0.200584 0.424298 0.883027
vn -0.244210 0.345514 0.906080
vn -0.517238 0.132292 0.845556
vn 0.212897 -0.157898 0.964232
vn 0.684699 0.000000 -0.728826
vn 0.347460 -0.000125 -0.937695
vn 0.347457 0.000000 -0.937696
vn 0.684699 0.000000 -0.728826
vn -0.376862 -0.025637 -0.925914
vn -0.915149 -0.062439 -0.398252
vn -0.908978 -0.062064 -0.412197
vn -0.352681 -0.023914 -0.935438
vn 0.646701 0.000000 0.762744
vn 0.350865 0.000000 0.936426
vn 0.350858 0.000038 0.936428
vn 0.646701 0.000000 0.762744
vn -0.900485 -0.061484 0.430520
vn -0.347470 -0.023689 0.937392
vn -0.320836 -0.021864 0.946882
vn -0.893710 -0.060970 0.444483
vn 0.684699 0.000000 -0.728826
vn 0.347460 -0.000125 -0.937695
vn 0.347457 0.000000 -0.937696
vn 0.684699 0.000000 -0.728826
vn -0.376864 -0.025637 -0.925914
vn -0.910735 -0.062139 -0.408291
vn -0.901200 -0.061533 -0.429014
vn -0.352683 -0.023914 -0.935437
vn 0.646701 0.000000 0.762744
vn 0.338049 0.000000 0.941129
vn 0.355153 0.000012 0.934808
vn 0.646701 0.000000 0.762744
vn -0.916759 -0.062596 0.394506
vn -0.370423 -0.025247 0.928520
vn -0.361301 -0.024590 0.932125
vn -0.914143 -0.062369 0.400565
vn 0.684699 0.000000 -0.728826
vn 0.347460 -0.000125 -0.937695
vn 0.347457 0.000000 -0.937696
vn 0.684699 0.000000 -0.728826
vn -0.376863 -0.025637 -0.925914
vn -0.916281 -0.062518 -0.395627
vn -0.896929 -0.061242 -0.437913
vn -0.352682 -0.023914 -0.935438
vn 0.646698 0.000000 0.762746
vn 0.353854 0.000000 0.935301
vn 0.339771 0.000013 0.940508
vn 0.646698 0.000000 0.762746
vn -0.916935 -0.062608 0.394095
vn -0.401235 -0.027346 0.915567
vn -0.357101 -0.024306 0.933749
vn -0.922671 -0.062952 0.380414
vn -0.645962 -0.043943 -0.762104
vn -0.898915 -0.061329 -0.433810
vn -0.907912 -0.061991 -0.414552
vn -0.646030 -0.044033 -0.762041
vn 0.646700 0.000000 0.762744
vn 0.350926 0.000000 0.936403
vn 0.350920 0.000038 0.936405
vn 0.646700 0.000000 0.762744
vn -0.914012 -0.062408 0.400857
vn -0.374345 -0.025511 0.926939
vn -0.404398 -0.027547 0.914168
vn -0.939148 -0.064082 0.337484
vn 0.684699 0.000000 -0.728826
vn 0.347460 -0.000125 -0.937695
vn 0.347457 0.000000 -0.937696
vn 0.684699 0.000000 -0.728826
vn -0.376863 -0.025637 -0.925914
vn -0.908739 -0.062002 -0.412733
vn -0.902346 -0.061611 -0.426587
vn -0.352682 -0.023914 -0.935438
vn 0.646698 0.000000 0.762746
vn 0.344327 0.000000 0.938850
vn 0.344327 -0.000001 0.938850
vn 0.646698 0.000000 0.762746
vn -0.918583 -0.062720 0.390220
vn -0.381741 -0.026018 0.923903
vn -0.354298 -0.024101 0.934822
vn -0.913198 -0.062304 0.402724
vn -0.645962 -0.043943 -0.762104
vn -0.908740 -0.062002 -0.412732
vn -0.902347 -0.061611 -0.426585
vn -0.646030 -0.044033 -0.762041
vn 0.646700 0.000000 0.762744
vn 0.350926 0.000000 0.936403
vn 0.350920 0.000038 0.936405
vn 0.646700 0.000000 0.762744
vn -0.932079 -0.063642 0.356620
vn -0.410910 -0.028004 0.911246
vn -0.381193 -0.025971 0.924131
vn -0.927995 -0.063314 0.367173
vn 0.684699 0.000000 -0.728826
vn 0.347460 -0.000125 -0.937695
vn 0.347457 0.000000 -0.937696
vn 0.684699 0.000000 -0.728826
vn -0.376863 -0.025637 -0.925914
vn -0.906339 -0.061837 -0.418002
vn -0.901891 -0.062320 -0.427445
vn -0.352682 -0.023914 -0.935438
vn 0.646698 0.000000 0.762746
vn 0.344327 0.000000 0.938850
vn 0.344327 -0.000001 0.938850
vn 0.646698 0.000000 0.762746
vn -0.909286 -0.073351 0.409656
vn -0.360001 -0.026714 0.932570
vn -0.354298 -0.024101 0.934822
vn -0.911097 -0.071719 0.405906
vn -0.928072 0.003418 0.372384
vn -0.392831 0.005526 0.919594
vn 0.505060 0.003692 0.863076
vn -0.924618 -0.006156 0.380846
vn -0.375259 -0.031570 0.926382
vn 0.514286 -0.004704 0.857606
vn -0.933624 0.006338 -0.358198
vn -0.410061 0.003093 -0.912053
vn -0.927703 -0.005513 0.373280
vn -0.392708 -0.020499 0.919435
vn -0.929808 -0.000993 0.368043
vn -0.395009 -0.010380 0.918619
vn -0.927170 0.007832 -0.374560
vn 0.510702 -0.005785 0.859738
vn -0.997676 -0.068121 -0.001267
vn -0.997676 -0.068121 -0.001104
vn -0.960034 0.004297 -0.279850
vn 0.993184 0.000784 -0.116558
vn -0.878265 0.007401 0.478116
vn -0.271803 0.012815 0.962268
vn 0.486500 0.023014 0.873378
vn -0.133952 -0.001170 -0.990987
vn -0.488421 -0.000673 -0.872608
vn -0.540776 0.713507 -0.445499
vn -0.567804 -0.678224 -0.466487
vn 0.549026 0.703672 0.451017
vn 0.772232 -0.009375 0.635271
vn -0.635363 0.000985 0.772213
vn -0.635184 0.000679 0.772360
vn -0.635184 0.000909 0.772361
vn -0.635183 0.001143 0.772361
vn -0.635184 0.000912 0.772361
vn 0.093829 -0.047702 0.994445
vn -0.816720 -0.572130 0.075067
vn -0.808562 0.582509 0.083129
vn 0.081979 0.575179 0.813909
vn -0.635209 0.001095 0.772340
vn -0.635210 0.000813 0.772339
vn -0.635210 0.000525 0.772339
vn -0.635210 0.000809 0.772339
vn -0.635364 0.000592 0.772212
vn -0.635362 0.001385 0.772213
vn -0.635363 0.000990 0.772213
vn -0.635491 0.000324 0.772108
vn -0.635491 0.000546 0.772108
vn -0.635490 0.000773 0.772109
vn -0.635491 0.000549 0.772108
vn -0.641153 -0.150707 -0.752469
vn -0.984257 0.121537 -0.128326
vn -0.311889 0.375050 0.872962
vn -0.805618 0.363280 0.467981
vn 0.957379 0.006611 0.288759
vn -0.770986 0.606190 -0.195231
vn -0.878684 0.324337 -0.350314
vn -0.680167 -0.285245 -0.675283
vn -0.416150 0.871339 0.259977
vn -0.011520 0.836993 0.547092
vn -0.042477 -0.344135 -0.937959
vn 0.945676 -0.298936 -0.127804
vn 0.590012 -0.795747 0.136646
vn -0.429315 -0.660131 -0.616373
vn -0.659473 0.720181 0.215488
vn -0.080033 0.743400 0.664042
vn 0.782641 -0.402034 0.475229
vn 0.554750 0.424206 0.715753
vn 0.544923 0.345270 0.764099
vn 0.324385 0.132425 0.936610
vn 0.879775 -0.158229 0.448286
vn -0.621402 0.000193 -0.783492
vn -0.503331 0.000281 -0.864094
vn -0.127766 0.000029 -0.991804
vn -0.954496 -0.024983 -0.297174
vn -0.888963 -0.061590 0.453820
vn -0.895847 -0.061202 0.440129
vn -0.946494 -0.023265 -0.321881
vn 0.999889 -0.000932 -0.014895
vn 0.946061 -0.000566 0.323989
vn 0.946032 -0.000441 0.324073
vn 0.999891 -0.000777 -0.014729
vn -0.239680 -0.061033 0.968932
vn 0.503011 -0.023699 0.863955
vn 0.527282 -0.021846 0.849409
vn -0.224732 -0.060487 0.972541
vn -0.128058 -0.000257 -0.991767
vn -0.503464 0.000074 -0.864016
vn -0.503331 0.000281 -0.864094
vn -0.127909 -0.000112 -0.991786
vn -0.954495 -0.024985 -0.297177
vn -0.906127 -0.060475 0.418660
vn -0.896809 -0.061140 0.438172
vn -0.946495 -0.023268 -0.321879
vn 0.999889 -0.000636 -0.014895
vn 0.941574 -0.000476 0.336805
vn 0.947559 -0.000462 0.319581
vn 0.999889 -0.000636 -0.014895
vn -0.302348 -0.062598 0.951140
vn 0.481685 -0.024948 0.875989
vn 0.490251 -0.024281 0.871243
vn -0.255403 -0.061219 0.964895
vn -0.128067 -0.000267 -0.991765
vn -0.503509 -0.000114 -0.863990
vn -0.503495 0.000015 -0.863998
vn -0.128067 -0.000267 -0.991765
vn -0.954492 -0.025257 -0.297165
vn -0.896133 -0.061301 0.439532
vn -0.902708 -0.060928 0.425919
vn -0.946478 -0.023538 -0.321908
vn 0.999889 -0.000636 -0.014913
vn 0.946101 -0.000483 0.323871
vn 0.946099 -0.000442 0.323876
vn 0.999889 -0.000636 -0.014913
vn -0.316725 -0.063225 0.946408
vn 0.442666 -0.027943 0.896251
vn 0.471539 -0.025900 0.881465
vn -0.305947 -0.062887 0.949969
vn -0.959569 0.006989 -0.281388
vn 0.993184 0.000784 -0.116559
vn -0.878443 0.007082 0.477795
vn -0.266314 0.021459 0.963647
vn 0.478637 0.034003 0.877354
vn -0.133957 -0.001167 -0.990987
vn -0.489612 0.000852 -0.871940
vn -0.540705 0.713532 -0.445546
vn -0.772136 0.017842 -0.635207
vn 0.549061 0.703692 0.450942
vn 0.772239 -0.009391 0.635262
vn -0.635081 0.000810 0.772445
vn -0.635294 0.000552 0.772270
vn -0.635294 0.000551 0.772270
vn -0.635294 0.000549 0.772270
vn -0.635294 0.000551 0.772270
vn 0.093962 -0.006137 0.995557
vn -0.995734 0.013166 0.091328
vn -0.808576 0.582497 0.083079
vn 0.082018 0.575166 0.813915
vn -0.635346 0.000492 0.772227
vn -0.635373 0.001269 0.772205
vn -0.635374 0.000817 0.772204
vn -0.635374 0.000356 0.772204
vn -0.635374 0.000810 0.772204
vn -0.635081 0.000921 0.772445
vn -0.635081 0.000696 0.772445
vn -0.635081 0.000808 0.772445
vn -0.635288 0.000336 0.772275
vn -0.635287 0.000662 0.772275
vn -0.635287 0.000994 0.772276
vn -0.635287 0.000667 0.772275
vn -0.635294 0.000553 0.772270
vn -0.635294 0.000790 0.772270
vn -0.635293 0.001032 0.772271
vn -0.635294 0.000793 0.772270
vn -0.641314 -0.150636 -0.752346
vn -0.984014 0.122289 -0.129468
vn -0.635073 0.000289 0.772452
vn -0.635072 0.000645 0.772452
vn -0.635071 0.001008 0.772453
vn -0.635072 0.000650 0.772452
vn -0.635346 0.000614 0.772227
vn -0.635347 0.000366 0.772227
vn -0.635346 0.000490 0.772227
vn -0.635185 0.000679 0.772360
vn -0.635186 0.000431 0.772359
vn -0.635186 0.000176 0.772359
vn -0.635186 0.000427 0.772359
vn -0.312154 0.374269 0.873202
vn -0.805461 0.363069 0.468415
vn 0.959100 0.000317 0.283067
vn -0.770916 0.606316 -0.195113
vn -0.878695 0.324424 -0.350206
vn -0.680142 -0.285185 -0.675334
vn -0.416095 0.871350 0.260026
vn -0.011526 0.836996 0.547087
vn -0.043109 -0.343945 -0.938000
vn 0.945636 -0.299293 -0.127266
vn 0.589973 -0.795785 0.136594
vn -0.429156 -0.660101 -0.616515
vn -0.659399 0.720226 0.215565
vn -0.080050 0.743414 0.664024
vn 0.782626 -0.402113 0.475186
vn 0.554726 0.424238 0.715752
vn 0.544915 0.345300 0.764091
vn 0.323286 0.133165 0.936885
vn 0.880325 -0.157138 0.447588
vn -0.127756 -0.000248 -0.991806
vn -0.503372 -0.000094 -0.864070
vn -0.503358 0.000023 -0.864078
vn -0.127761 -0.000253 -0.991805
vn -0.954472 -0.024977 -0.297252
vn -0.888997 -0.061680 0.453740
vn -0.895845 -0.061337 0.440113
vn -0.946483 -0.023309 -0.321912
vn 0.999891 -0.000636 -0.014737
vn 0.946071 -0.000581 0.323960
vn 0.946089 -0.000576 0.323907
vn 0.999890 -0.000713 -0.014819
vn -0.239566 -0.061074 0.968957
vn 0.503175 -0.023681 0.863860
vn 0.527440 -0.021839 0.849312
vn -0.224528 -0.060528 0.972586
vn -0.127756 -0.000258 -0.991806
vn -0.503372 -0.000102 -0.864070
vn -0.503358 0.000015 -0.864078
vn -0.127761 -0.000262 -0.991805
vn -0.954472 -0.024979 -0.297252
vn -0.893942 -0.061379 0.443960
vn -0.903886 -0.060811 0.423428
vn -0.946483 -0.023312 -0.321911
vn 0.999891 -0.000636 -0.014736
vn 0.941561 -0.000571 0.336843
vn 0.947567 -0.000602 0.319557
vn 0.999890 -0.000713 -0.014819
vn -0.277799 -0.062206 0.958623
vn 0.481676 -0.025218 0.875987
vn 0.490292 -0.024542 0.871212
vn -0.271428 -0.061957 0.960462
vn -0.127766 -0.000248 -0.991804
vn -0.503381 -0.000104 -0.864065
vn -0.503368 0.000023 -0.864072
vn -0.127771 -0.000253 -0.991804
vn -0.954495 -0.025259 -0.297156
vn -0.887705 -0.061818 0.456243
vn -0.908005 -0.060567 0.414559
vn -0.946481 -0.023539 -0.321900
vn 0.999889 -0.000653 -0.014913
vn 0.947113 -0.000490 0.320898
vn 0.942187 -0.000460 0.335087
vn 0.999889 -0.000644 -0.014904
vn -0.278280 -0.062212 0.958483
vn 0.452034 -0.027301 0.891583
vn 0.494165 -0.024259 0.869030
vn -0.292458 -0.062534 0.954232
vn -0.128067 -0.000267 -0.991765
vn -0.503508 -0.000114 -0.863990
vn -0.503495 0.000015 -0.863998
vn -0.128067 -0.000267 -0.991765
vn -0.954492 -0.025257 -0.297166
vn -0.906164 -0.060635 0.418557
vn -0.896954 -0.061281 0.437857
vn -0.946478 -0.023538 -0.321909
vn 0.999889 -0.000636 -0.014913
vn 0.946102 -0.000486 0.323868
vn 0.946099 -0.000444 0.323878
vn 0.999889 -0.000636 -0.014913
vn -0.271028 -0.061975 0.960574
vn 0.478009 -0.025472 0.877986
vn 0.449097 -0.027461 0.893061
vn -0.335891 -0.063642 0.939748
vn -0.127766 -0.000258 -0.991804
vn -0.503381 -0.000111 -0.864065
vn -0.503370 0.000015 -0.864071
vn -0.127771 -0.000262 -0.991804
vn -0.954494 -0.025259 -0.297157
vn -0.896124 -0.061302 0.439549
vn -0.902699 -0.060930 0.425937
vn -0.946481 -0.023539 -0.321900
vn 0.999889 -0.000653 -0.014913
vn 0.943800 -0.000487 0.330517
vn 0.943797 -0.000484 0.330524
vn 0.999889 -0.000644 -0.014904
vn -0.282274 -0.062321 0.957307
vn 0.470936 -0.026039 0.881783
vn 0.496789 -0.024116 0.867536
vn -0.269161 -0.061896 0.961104
vn -0.128067 -0.000258 -0.991765
vn -0.503511 -0.000111 -0.863989
vn -0.503499 0.000015 -0.863996
vn -0.128072 -0.000263 -0.991765
vn -0.954492 -0.025257 -0.297166
vn -0.896132 -0.061301 0.439532
vn -0.902708 -0.060928 0.425919
vn -0.946478 -0.023538 -0.321909
vn 0.999889 -0.000636 -0.014913
vn 0.946102 -0.000486 0.323869
vn 0.946099 -0.000444 0.323878
vn 0.999889 -0.000636 -0.014913
vn -0.316725 -0.063225 0.946408
vn 0.442665 -0.027943 0.896252
vn 0.471539 -0.025900 0.881464
vn -0.305947 -0.062887 0.949969
vn -0.127766 -0.000258 -0.991804
vn -0.477059 -0.000036 -0.878872
vn -0.498912 0.000011 -0.866653
vn -0.127771 -0.000262 -0.991804
vn -0.945891 -0.023510 -0.323632
vn -0.898667 -0.061140 0.434349
vn -0.903073 -0.061639 0.425041
vn -0.944269 -0.023204 -0.328357
vn 0.999889 -0.000653 -0.014913
vn 0.943799 -0.000484 0.330520
vn 0.943798 -0.000481 0.330523
vn 0.999889 -0.000644 -0.014904
vn -0.261365 -0.072986 0.962477
vn 0.491437 -0.026751 0.870502
vn 0.496789 -0.024115 0.867536
vn -0.265365 -0.071333 0.961505
vn -0.302185 0.003942 0.953241
vn 0.456048 -0.000472 0.889955
vn 0.993173 -0.002987 0.116608
vn -0.292962 -0.006002 0.956105
vn 0.465794 -0.022945 0.884596
vn 0.982856 -0.001785 0.184364
vn -0.869828 0.005947 0.493320
vn -0.964823 0.002966 -0.262885
vn -0.316444 0.001264 0.948610
vn 0.458746 -0.001734 0.888566
vn -0.299026 0.006110 0.954225
vn 0.460402 0.007586 0.887678
vn -0.872059 0.005202 0.489372
vn 0.992627 -0.003162 0.121166
vn -0.634890 -0.067286 0.769667
vn -0.634738 -0.067328 0.769789
vn -0.127766 -0.000258 -0.991804
vn -0.503381 -0.000111 -0.864065
vn -0.503370 0.000015 -0.864071
vn -0.127771 -0.000262 -0.991804
vn -0.954494 -0.025259 -0.297157
vn -0.896124 -0.061302 0.439549
vn -0.902699 -0.060930 0.425937
vn -0.946481 -0.023539 -0.321900
vn 0.999889 -0.000653 -0.014913
vn 0.943800 -0.000487 0.330517
vn 0.943797 -0.000484 0.330524
vn 0.999889 -0.000644 -0.014904
vn -0.282274 -0.062321 0.957307
vn 0.470936 -0.026039 0.881783
vn 0.496789 -0.024116 0.867536
vn -0.269161 -0.061896 0.961104
vn -0.127766 -0.000258 -0.991804
vn -0.503381 -0.000111 -0.864065
vn -0.503370 0.000015 -0.864071
vn -0.127771 -0.000262 -0.991804
vn -0.954494 -0.025259 -0.297157
vn -0.896124 -0.061302 0.439549
vn -0.902699 -0.060930 0.425937
vn -0.946481 -0.023539 -0.321900
vn 0.999889 -0.000653 -0.014913
vn 0.943800 -0.000487 0.330517
vn 0.943797 -0.000484 0.330524
vn 0.999889 -0.000644 -0.014904
vn -0.282274 -0.062321 0.957307
vn 0.470936 -0.026039 0.881783
vn 0.496789 -0.024116 0.867536
vn -0.269161 -0.061896 0.961104
vn -0.128067 -0.000267 -0.991765
vn -0.503509 -0.000114 -0.863990
vn -0.503495 0.000015 -0.863998
vn -0.128067 -0.000267 -0.991765
vn -0.954492 -0.025257 -0.297165
vn -0.896133 -0.061301 0.439532
vn -0.902708 -0.060928 0.425918
vn -0.946478 -0.023538 -0.321909
vn 0.999889 -0.000636 -0.014913
vn 0.946101 -0.000483 0.323871
vn 0.946099 -0.000442 0.323876
vn 0.999889 -0.000636 -0.014913
vn -0.316725 -0.063225 0.946408
vn 0.442666 -0.027943 0.896251
vn 0.471539 -0.025900 0.881465
vn -0.305947 -0.062887 0.949969
vn -0.128067 -0.000267 -0.991765
vn -0.503508 -0.000114 -0.863990
vn -0.503495 0.000015 -0.863998
vn -0.128067 -0.000267 -0.991765
vn -0.954492 -0.025257 -0.297165
vn -0.906164 -0.060635 0.418557
vn -0.896954 -0.061281 0.437857
vn -0.946478 -0.023538 -0.321909
vn 0.999889 -0.000636 -0.014913
vn 0.946102 -0.000486 0.323868
vn 0.946099 -0.000444 0.323878
vn 0.999889 -0.000636 -0.014913
vn -0.271028 -0.061975 0.960574
vn 0.478008 -0.025473 0.877986
vn 0.449097 -0.027461 0.893061
vn -0.335891 -0.063642 0.939748
vn -0.634890 -0.067286 0.769667
vn -0.634738 -0.067328 0.769789
g fff0a81b_00394_00916ae8_e8
f 571/1/571 580/2/580 577/3/577
f 577/3/577 570/4/570 571/1/571
f 194/3/194 187/4/187 188/1/188
f 188/1/188 197/2/197 194/3/194
f 539/1/539 548/2/548 545/3/545
f 545/3/545 538/4/538 539/1/539
f 178/3/178 171/4/171 172/1/172
f 172/1/172 181/2/181 178/3/178
f 630/64/630 629/63/629 619/1/619
f 630/64/630 628/2/628 625/3/625
f 564/64/564 563/63/563 491/1/491
f 564/64/564 500/2/500 497/3/497
f 162/3/162 155/4/155 156/1/156
f 156/1/156 165/2/165 162/3/162
f 563/63/563 564/64/564 497/3/497
f 563/63/563 490/4/490 491/1/491
f 78/3/78 71/4/71 72/1/72
f 72/1/72 81/2/81 78/3/78
f 603/1/603 612/2/612 609/3/609
f 609/3/609 602/4/602 603/1/603
f 66/3/66 59/4/59 60/1/60
f 60/1/60 69/2/69 66/3/66
f 629/63/629 630/64/630 625/3/625
f 629/63/629 618/4/618 619/1/619
f 507/1/507 516/2/516 513/3/513
f 513/3/513 506/4/506 507/1/507
f 54/3/54 47/4/47 48/1/48
f 48/1/48 57/2/57 54/3/54
f 523/1/523 532/2/532 529/3/529
f 529/3/529 522/4/522 523/1/523
f 222/3/222 215/4/215 216/1/216
f 216/1/216 225/2/225 222/3/222
f 587/1/587 596/2/596 593/3/593
f 593/3/593 586/4/586 587/1/587
f 268/63/268 199/4/199 200/1/200
f 268/63/268 269/64/269 206/3/206
f 327/1/327 336/2/336 333/3/333
f 333/3/333 326/4/326 327/1/327
f 250/3/250 243/4/243 244/1/244
f 244/1/244 253/2/253 250/3/250
f 279/9/279 277/10/277 288/10/288
f 288/10/288 289/9/289 279/9/279
f 234/3/234 227/4/227 228/1/228
f 228/1/228 237/2/237 234/3/234
f 269/64/269 209/2/209 206/3/206
f 269/64/269 268/63/268 200/1/200
f 343/1/343 352/2/352 349/3/349
f 349/3/349 342/4/342 343/1/343
f 481/3/481 474/4/474 475/1/475
f 475/1/475 484/2/484 481/3/481
f 359/1/359 368/2/368 365/3/365
f 365/3/365 358/4/358 359/1/359
f 465/3/465 458/4/458 459/1/459
f 459/1/459 468/2/468 465/3/465
f 387/10/387 388/9/388 378/9/378
f 378/9/378 376/10/376 387/10/387
f 443/1/443 452/2/452 449/3/449
f 449/3/449 442/4/442 443/1/443
g fff0a81b_00394_00916ae8_e6
f 186/15/186 183/15/183 189/15/189
f 184/15/184 189/15/189 183/15/183
f 189/1/189 188/1/188 187/4/187
f 187/4/187 186/13/186 189/1/189
f 185/6/185 184/12/184 183/11/183
f 183/11/183 182/7/182 185/6/185
f 170/15/170 167/15/167 173/15/173
f 168/15/168 173/15/173 167/15/167
f 173/1/173 172/1/172 171/4/171
f 171/4/171 170/13/170 173/1/173
f 169/6/169 168/12/168 167/11/167
f 167/11/167 166/7/166 169/6/169
f 154/15/154 151/15/151 157/15/157
f 152/15/152 157/15/157 151/15/151
f 99/15/99 100/15/100 90/15/90
f 89/15/89 90/15/90 100/15/100
f 90/15/90 92/21/92 98/21/98
f 98/21/98 99/15/99 90/15/90
f 82/20/82 84/18/84 260/52/260
f 260/52/260 261/53/261 82/20/82
f 87/15/87 88/15/88 118/15/118
f 118/15/118 139/15/139 87/15/87
f 139/15/139 118/15/118 136/15/136
f 136/15/136 142/15/142 139/15/139
f 119/18/119 132/18/132 143/15/143
f 119/18/119 143/15/143 135/14/135
f 134/16/134 143/15/143 137/17/137
f 135/14/135 143/15/143 134/16/134
f 157/1/157 156/1/156 155/4/155
f 155/4/155 154/13/154 157/1/157
f 153/6/153 152/12/152 151/11/151
f 151/11/151 150/7/150 153/6/153
f 570/4/570 569/13/569 572/1/572
f 572/1/572 571/1/571 570/4/570
f 73/1/73 72/1/72 71/4/71
f 71/4/71 70/13/70 73/1/73
f 618/4/618 617/13/617 620/1/620
f 620/1/620 619/1/619 618/4/618
f 567/15/567 572/15/572 566/15/566
f 569/15/569 566/15/566 572/15/572
f 61/1/61 60/1/60 59/4/59
f 59/4/59 58/13/58 61/1/61
f 615/15/615 620/15/620 614/15/614
f 617/15/617 614/15/614 620/15/620
f 270/20/270 561/61/561 304/10/304
f 555/52/555 406/19/406 556/53/556
f 598/11/598 597/7/597 600/6/600
f 600/6/600 599/12/599 598/11/598
f 6/15/6 8/21/8 14/21/14
f 14/21/14 15/15/15 6/15/6
f 1/20/1 3/18/3 266/61/266
f 31/10/31 29/19/29 1/20/1
f 602/4/602 601/13/601 604/1/604
f 604/1/604 603/1/603 602/4/602
f 614/11/614 613/7/613 616/6/616
f 616/6/616 615/12/615 614/11/614
f 29/18/29 31/18/31 39/15/39
f 29/18/29 39/15/39 34/14/34
f 33/16/33 39/15/39 35/17/35
f 34/14/34 39/15/39 33/16/33
f 49/1/49 48/1/48 47/4/47
f 47/4/47 46/13/46 49/1/49
f 599/15/599 604/15/604 598/15/598
f 601/15/601 598/15/598 604/15/604
f 214/15/214 211/15/211 217/15/217
f 212/15/212 217/15/217 211/15/211
f 217/1/217 216/1/216 215/4/215
f 215/4/215 214/13/214 217/1/217
f 213/6/213 212/12/212 211/11/211
f 211/11/211 210/7/210 213/6/213
f 406/19/406 555/52/555 419/10/419
f 518/11/518 517/7/517 520/6/520
f 201/1/201 200/1/200 199/4/199
f 199/4/199 198/13/198 201/1/201
f 582/11/582 581/7/581 584/6/584
f 584/6/584 583/12/583 582/11/582
f 242/15/242 239/15/239 245/15/245
f 240/15/240 245/15/245 239/15/239
f 245/1/245 244/1/244 243/4/243
f 243/4/243 242/13/242 245/1/245
f 241/6/241 240/12/240 239/11/239
f 239/11/239 238/7/238 241/6/241
f 520/6/520 519/12/519 518/11/518
f 522/4/522 521/13/521 524/1/524
f 229/1/229 228/1/228 227/4/227
f 227/4/227 226/13/226 229/1/229
f 586/4/586 585/13/585 588/1/588
f 588/1/588 587/1/587 586/4/586
f 119/19/119 260/52/260 132/10/132
f 260/52/260 119/19/119 261/53/261
f 1/20/1 266/61/266 31/10/31
f 473/15/473 470/15/470 476/15/476
f 471/15/471 476/15/476 470/15/470
f 476/1/476 475/1/475 474/4/474
f 474/4/474 473/13/473 476/1/476
f 472/6/472 471/12/471 470/11/470
f 470/11/470 469/7/469 472/6/472
f 457/15/457 454/15/454 460/15/460
f 455/15/455 460/15/460 454/15/454
f 460/1/460 459/1/459 458/4/458
f 458/4/458 457/13/457 460/1/460
f 456/6/456 455/12/455 454/11/454
f 454/11/454 453/7/453 456/6/456
f 441/15/441 438/15/438 444/15/444
f 439/15/439 444/15/444 438/15/438
f 386/15/386 387/15/387 377/15/377
f 376/15/376 377/15/377 387/15/387
f 583/15/583 588/15/588 582/15/582
f 585/15/585 582/15/582 588/15/588
f 369/20/369 371/18/371 555/52/555
f 555/52/555 556/53/556 369/20/369
f 374/15/374 375/15/375 405/15/405
f 405/15/405 426/15/426 374/15/374
f 426/15/426 405/15/405 423/15/423
f 423/15/423 429/15/429 426/15/426
f 406/18/406 419/18/419 430/15/430
f 406/18/406 430/15/430 422/14/422
f 421/16/421 430/15/430 424/17/424
f 422/14/422 430/15/430 421/16/421
f 444/1/444 443/1/443 442/4/442
f 442/4/442 441/13/441 444/1/444
f 440/6/440 439/12/439 438/11/438
f 438/11/438 437/7/437 440/6/440
f 357/15/357 354/15/354 360/15/360
f 355/15/355 360/15/360 354/15/354
f 360/1/360 359/1/359 358/4/358
f 358/4/358 357/13/357 360/1/360
f 356/6/356 355/12/355 354/11/354
f 354/11/354 353/7/353 356/6/356
f 341/15/341 338/15/338 344/15/344
f 339/15/339 344/15/344 338/15/338
f 344/1/344 343/1/343 342/4/342
f 342/4/342 341/13/341 344/1/344
f 340/6/340 339/12/339 338/11/338
f 338/11/338 337/7/337 340/6/340
f 325/15/325 322/15/322 328/15/328
f 323/15/323 328/15/328 322/15/322
f 287/15/287 288/15/288 278/15/278
f 277/15/277 278/15/278 288/15/288
f 566/11/566 565/7/565 568/6/568
f 286/21/286 287/15/287 278/15/278
f 270/20/270 272/18/272 561/61/561
f 304/10/304 302/19/302 270/20/270
f 275/15/275 276/15/276 301/15/301
f 301/15/301 311/15/311 275/15/275
f 311/15/311 301/15/301 308/15/308
f 308/15/308 314/15/314 311/15/311
f 302/18/302 304/18/304 315/15/315
f 302/18/302 315/15/315 307/14/307
f 306/16/306 315/15/315 309/17/309
f 307/14/307 315/15/315 306/16/306
f 328/1/328 327/1/327 326/4/326
f 326/4/326 325/13/325 328/1/328
f 324/6/324 323/12/323 322/11/322
f 568/6/568 567/12/567 566/11/566
f 505/15/505 502/15/502 508/15/508
f 503/15/503 508/15/508 502/15/502
f 508/1/508 507/1/507 506/4/506
f 506/4/506 505/13/505 508/1/508
f 504/6/504 503/12/503 502/11/502
f 502/11/502 501/7/501 504/6/504
f 489/15/489 486/15/486 492/15/492
f 487/15/487 492/15/492 486/15/486
f 492/1/492 491/1/491 490/4/490
f 490/4/490 489/13/489 492/1/492
f 488/6/488 487/12/487 486/11/486
f 486/11/486 485/7/485 488/6/488
f 537/15/537 534/15/534 540/15/540
f 535/15/535 540/15/540 534/15/534
f 540/1/540 539/1/539 538/4/538
f 538/4/538 537/13/537 540/1/540
f 536/6/536 535/12/535 534/11/534
f 534/11/534 533/7/533 536/6/536
f 521/15/521 518/15/518 524/15/524
f 519/15/519 524/15/524 518/15/518
f 524/1/524 523/1/523 522/4/522
g fff0a81b_00394_00916ae8_e7
f 196/2/196 191/23/191 192/22/192
f 192/22/192 195/3/195 196/2/196
f 180/2/180 175/23/175 176/22/176
f 176/22/176 179/3/179 180/2/180
f 92/21/92 91/9/91 101/9/101
f 101/9/101 98/21/98 92/21/92
f 164/2/164 159/23/159 160/22/160
f 160/22/160 163/3/163 164/2/164
f 80/2/80 75/23/75 76/22/76
f 76/22/76 79/3/79 80/2/80
f 68/2/68 63/23/63 64/22/64
f 64/22/64 67/3/67 68/2/68
f 8/21/8 7/9/7 17/9/17
f 17/9/17 14/21/14 8/21/8
f 56/2/56 51/23/51 52/22/52
f 52/22/52 55/3/55 56/2/56
f 224/2/224 219/23/219 220/22/220
f 220/22/220 223/3/223 224/2/224
f 208/2/208 203/23/203 204/22/204
f 204/22/204 207/3/207 208/2/208
f 252/2/252 247/23/247 248/22/248
f 248/22/248 251/3/251 252/2/252
f 236/2/236 231/23/231 232/22/232
f 232/22/232 235/3/235 236/2/236
f 483/2/483 478/23/478 479/22/479
f 479/22/479 482/3/482 483/2/483
f 467/2/467 462/23/462 463/22/463
f 463/22/463 466/3/466 467/2/467
f 379/21/379 378/9/378 388/9/388
f 388/9/388 385/21/385 379/21/379
f 451/2/451 446/23/446 447/22/447
f 447/22/447 450/3/450 451/2/451
f 367/2/367 362/23/362 363/22/363
f 363/22/363 366/3/366 367/2/367
f 351/2/351 346/23/346 347/22/347
f 347/22/347 350/3/350 351/2/351
f 280/21/280 279/9/279 289/9/289
f 289/9/289 286/21/286 280/21/280
f 335/2/335 330/23/330 331/22/331
f 331/22/331 334/3/334 335/2/335
f 515/2/515 510/23/510 511/22/511
f 511/22/511 514/3/514 515/2/515
f 499/2/499 494/23/494 495/22/495
f 495/22/495 498/3/498 499/2/499
f 547/2/547 542/23/542 543/22/543
f 543/22/543 546/3/546 547/2/547
f 531/2/531 526/23/526 527/22/527
f 527/22/527 530/3/530 531/2/531
f 579/2/579 574/23/574 575/22/575
f 575/22/575 578/3/578 579/2/579
f 595/2/595 590/23/590 591/22/591
f 591/22/591 594/3/594 595/2/595
f 611/2/611 606/23/606 607/22/607
f 607/22/607 610/3/610 611/2/611
f 627/2/627 622/23/622 623/22/623
f 623/22/623 626/3/626 627/2/627
g fff0a81b_00394_00916ae8_e4
f 121/15/121 120/24/120 123/9/123
f 123/9/123 122/10/122 121/15/121
f 102/15/102 124/24/124 126/9/126
f 126/9/126 125/10/125 102/15/102
f 104/15/104 103/24/103 106/9/106
f 106/9/106 105/10/105 104/15/104
f 93/15/93 107/24/107 109/9/109
f 109/9/109 108/10/108 93/15/93
f 19/15/19 18/24/18 21/9/21
f 21/9/21 20/10/20 19/15/19
f 9/15/9 22/24/22 24/9/24
f 24/9/24 23/10/23 9/15/9
f 408/15/408 407/24/407 410/9/410
f 410/9/410 409/10/409 408/15/408
f 389/15/389 411/24/411 413/9/413
f 413/9/413 412/10/412 389/15/389
f 391/15/391 390/24/390 393/9/393
f 393/9/393 392/10/392 391/15/391
f 380/15/380 394/24/394 396/9/396
f 396/9/396 395/10/395 380/15/380
f 291/15/291 290/24/290 293/9/293
f 293/9/293 292/10/292 291/15/291
f 281/15/281 294/24/294 296/9/296
f 296/9/296 295/10/295 281/15/281
g fff0a81b_00394_00916ae8_e5
f 197/29/197 196/30/196 195/27/195
f 195/27/195 194/28/194 197/29/197
f 193/8/193 192/26/192 191/25/191
f 191/25/191 190/5/190 193/8/193
f 181/29/181 180/30/180 179/27/179
f 179/27/179 178/28/178 181/29/181
f 177/8/177 176/26/176 175/25/175
f 175/25/175 174/5/174 177/8/177
f 147/34/147 144/33/144 131/18/131
f 131/18/131 148/42/148 147/34/147
f 85/41/85 86/18/86 255/46/255
f 255/46/255 254/44/254 85/41/85
f 133/39/133 83/40/83 140/24/140
f 140/24/140 256/47/256 133/39/133
f 149/37/149 140/38/140 141/35/141
f 141/35/141 145/36/145 149/37/149
f 144/33/144 147/34/147 146/31/146
f 146/31/146 138/32/138 144/33/144
f 165/29/165 164/30/164 163/27/163
f 163/27/163 162/28/162 165/29/165
f 161/8/161 160/26/160 159/25/159
f 159/25/159 158/5/158 161/8/161
f 81/29/81 80/30/80 79/27/79
f 79/27/79 78/28/78 81/29/81
f 77/8/77 76/26/76 75/25/75
f 75/25/75 74/5/74 77/8/77
f 69/29/69 68/30/68 67/27/67
f 67/27/67 66/28/66 69/29/69
f 65/8/65 64/26/64 63/25/63
f 63/25/63 62/5/62 65/8/65
f 43/34/43 40/33/40 30/18/30
f 30/18/30 44/42/44 43/34/43
f 4/41/4 5/18/5 265/60/265
f 265/60/265 264/58/264 4/41/4
f 32/39/32 2/40/2 37/24/37
f 37/24/37 267/62/267 32/39/32
f 45/37/45 37/38/37 38/35/38
f 38/35/38 41/36/41 45/37/45
f 40/33/40 43/34/43 42/31/42
f 42/31/42 36/32/36 40/33/40
f 57/29/57 56/30/56 55/27/55
f 55/27/55 54/28/54 57/29/57
f 53/8/53 52/26/52 51/25/51
f 51/25/51 50/5/50 53/8/53
f 225/29/225 224/30/224 223/27/223
f 223/27/223 222/28/222 225/29/225
f 221/8/221 220/26/220 219/25/219
f 219/25/219 218/5/218 221/8/221
f 209/29/209 208/30/208 207/27/207
f 207/27/207 206/28/206 209/29/209
f 205/8/205 204/26/204 203/25/203
f 203/25/203 202/5/202 205/8/205
f 253/29/253 252/30/252 251/27/251
f 251/27/251 250/28/250 253/29/253
f 249/8/249 248/26/248 247/25/247
f 247/25/247 246/5/246 249/8/249
f 237/29/237 236/30/236 235/27/235
f 235/27/235 234/28/234 237/29/237
f 233/8/233 232/26/232 231/25/231
f 231/25/231 230/5/230 233/8/233
f 148/15/148 131/15/131 257/48/257
f 257/48/257 258/50/258 148/15/148
f 140/24/140 149/24/149 259/51/259
f 258/50/258 257/48/257 254/44/254
f 254/44/254 255/46/255 258/50/258
f 140/24/140 259/51/259 256/47/256
f 37/24/37 45/24/45 267/62/267
f 264/58/264 265/60/265 263/57/263
f 263/57/263 262/55/262 264/58/264
f 262/55/262 263/57/263 44/15/44
f 44/15/44 30/15/30 262/55/262
f 484/29/484 483/30/483 482/27/482
f 482/27/482 481/28/481 484/29/484
f 480/8/480 479/26/479 478/25/478
f 478/25/478 477/5/477 480/8/480
f 468/29/468 467/30/467 466/27/466
f 466/27/466 465/28/465 468/29/468
f 464/8/464 463/26/463 462/25/462
f 462/25/462 461/5/461 464/8/464
f 434/34/434 431/33/431 418/18/418
f 418/18/418 435/42/435 434/34/434
f 372/41/372 373/18/373 550/46/550
f 550/46/550 549/44/549 372/41/372
f 420/39/420 370/40/370 427/24/427
f 427/24/427 551/47/551 420/39/420
f 436/37/436 427/38/427 428/35/428
f 428/35/428 432/36/432 436/37/436
f 431/33/431 434/34/434 433/31/433
f 433/31/433 425/32/425 431/33/431
f 452/29/452 451/30/451 450/27/450
f 450/27/450 449/28/449 452/29/452
f 448/8/448 447/26/447 446/25/446
f 446/25/446 445/5/445 448/8/448
f 368/29/368 367/30/367 366/27/366
f 366/27/366 365/28/365 368/29/368
f 364/8/364 363/26/363 362/25/362
f 362/25/362 361/5/361 364/8/364
f 352/29/352 351/30/351 350/27/350
f 350/27/350 349/28/349 352/29/352
f 348/8/348 347/26/347 346/25/346
f 346/25/346 345/5/345 348/8/348
f 319/34/319 316/33/316 303/18/303
f 303/18/303 320/42/320 319/34/319
f 273/41/273 274/18/274 560/60/560
f 560/60/560 559/58/559 273/41/273
f 305/39/305 271/40/271 312/24/312
f 312/24/312 562/62/562 305/39/305
f 321/37/321 312/38/312 313/35/313
f 313/35/313 317/36/317 321/37/321
f 316/33/316 319/34/319 318/31/318
f 318/31/318 310/32/310 316/33/316
f 336/29/336 335/30/335 334/27/334
f 334/27/334 333/28/333 336/29/336
f 332/8/332 331/26/331 330/25/330
f 330/25/330 329/5/329 332/8/332
f 516/29/516 515/30/515 514/27/514
f 514/27/514 513/28/513 516/29/516
f 512/8/512 511/26/511 510/25/510
f 510/25/510 509/5/509 512/8/512
f 500/29/500 499/30/499 498/27/498
f 498/27/498 497/28/497 500/29/500
f 496/8/496 495/26/495 494/25/494
f 494/25/494 493/5/493 496/8/496
f 548/29/548 547/30/547 546/27/546
f 546/27/546 545/28/545 548/29/548
f 544/8/544 543/26/543 542/25/542
f 542/25/542 541/5/541 544/8/544
f 532/29/532 531/30/531 530/27/530
f 530/27/530 529/28/529 532/29/532
f 528/8/528 527/26/527 526/25/526
f 526/25/526 525/5/525 528/8/528
f 435/15/435 418/15/418 552/48/552
f 552/48/552 553/50/553 435/15/435
f 427/24/427 436/24/436 554/51/554
f 553/50/553 552/48/552 549/44/549
f 549/44/549 550/46/550 553/50/553
f 427/24/427 554/51/554 551/47/551
f 312/24/312 321/24/321 562/62/562
f 559/58/559 560/60/560 558/57/558
f 558/57/558 557/55/557 559/58/559
f 557/55/557 558/57/558 320/15/320
f 320/15/320 303/15/303 557/55/557
f 580/29/580 579/30/579 578/27/578
f 578/27/578 577/28/577 580/29/580
f 576/8/576 575/26/575 574/25/574
f 574/25/574 573/5/573 576/8/576
f 596/29/596 595/30/595 594/27/594
f 594/27/594 593/28/593 596/29/596
f 592/8/592 591/26/591 590/25/590
f 590/25/590 589/5/589 592/8/592
f 612/29/612 611/30/611 610/27/610
f 610/27/610 609/28/609 612/29/612
f 608/8/608 607/26/607 606/25/606
f 606/25/606 605/5/605 608/8/608
f 628/29/628 627/30/627 626/27/626
f 626/27/626 625/28/625 628/29/628
f 624/8/624 623/26/623 622/25/622
f 622/25/622 621/5/621 624/8/624
g fff0a81b_00394_00916ae8_e2
f 300/9/300 299/10/299 298/15/298
f 298/15/298 297/24/297 300/9/300
f 128/15/128 127/24/127 130/9/130
f 130/9/130 129/10/129 128/15/128
f 111/15/111 110/24/110 113/9/113
f 113/9/113 112/10/112 111/15/111
f 115/15/115 114/24/114 117/9/117
f 117/9/117 116/10/116 115/15/115
f 95/15/95 94/24/94 97/9/97
f 97/9/97 96/10/96 95/15/95
f 285/9/285 284/10/284 283/15/283
f 283/15/283 282/24/282 285/9/285
f 26/15/26 25/24/25 28/9/28
f 28/9/28 27/10/27 26/15/26
f 11/15/11 10/24/10 13/9/13
f 13/9/13 12/10/12 11/15/11
f 384/9/384 383/10/383 382/15/382
f 382/15/382 381/24/381 384/9/384
f 415/15/415 414/24/414 417/9/417
f 417/9/417 416/10/416 415/15/415
f 398/15/398 397/24/397 400/9/400
f 400/9/400 399/10/399 398/15/398
f 402/15/402 401/24/401 404/9/404
f 404/9/404 403/10/403 402/15/402
g fff0a81b_00394_00916ae8_e1
f 289/9/289 288/10/288 287/15/287
f 287/15/287 286/24/286 289/9/289
f 304/10/304 557/56/557 303/9/303
f 561/61/561 559/59/559 557/56/557
f 99/15/99 98/24/98 101/9/101
f 101/9/101 100/10/100 99/15/99
f 557/56/557 304/10/304 561/61/561
f 549/45/549 552/49/552 555/52/555
f 254/45/254 260/52/260 84/18/84
f 84/18/84 85/39/85 254/45/254
f 310/43/310 309/17/309 315/15/315
f 315/15/315 316/24/316 310/43/310
f 419/10/419 555/52/555 552/49/552
f 419/10/419 552/49/552 418/9/418
f 15/15/15 14/24/14 17/9/17
f 17/9/17 16/10/16 15/15/15
f 272/18/272 273/39/273 559/59/559
f 559/59/559 561/61/561 272/18/272
f 264/59/264 266/61/266 3/18/3
f 3/18/3 4/39/4 264/59/264
f 132/10/132 257/49/257 131/9/131
f 132/10/132 260/52/260 257/49/257
f 254/45/254 257/49/257 260/52/260
f 262/56/262 31/10/31 266/61/266
f 266/61/266 264/59/264 262/56/262
f 31/10/31 262/56/262 30/9/30
f 316/24/316 315/15/315 304/18/304
f 304/18/304 303/39/303 316/24/316
f 419/18/419 418/39/418 431/24/431
f 431/24/431 430/15/430 419/18/419
f 386/15/386 385/24/385 388/9/388
f 388/9/388 387/10/387 386/15/386
f 430/15/430 431/24/431 425/43/425
f 425/43/425 424/17/424 430/15/430
f 549/45/549 555/52/555 371/18/371
f 371/18/371 372/39/372 549/45/549
g fff0a81b_00394_00916ae8_e0
f 149/37/149 147/34/147 148/42/148
f 256/47/256 255/46/255 86/18/86
f 86/18/86 133/39/133 256/47/256
f 146/31/146 149/37/149 145/36/145
f 149/37/149 146/31/146 147/34/147
f 45/37/45 43/34/43 44/42/44
f 32/39/32 265/60/265 5/18/5
f 263/57/263 265/60/265 267/62/267
f 42/31/42 45/37/45 41/36/41
f 45/37/45 42/31/42 43/34/43
f 149/24/149 148/15/148 258/50/258
f 258/50/258 259/51/259 149/24/149
f 259/51/259 258/50/258 255/46/255
f 255/46/255 256/47/256 259/51/259
f 263/57/263 267/62/267 45/24/45
f 32/39/32 267/62/267 265/60/265
f 45/24/45 44/15/44 263/57/263
f 436/37/436 434/34/434 435/42/435
f 551/47/551 550/46/550 373/18/373
f 373/18/373 420/39/420 551/47/551
f 433/31/433 436/37/436 432/36/432
f 436/37/436 433/31/433 434/34/434
f 321/37/321 319/34/319 320/42/320
f 305/39/305 560/60/560 274/18/274
f 558/57/558 560/60/560 562/62/562
f 318/31/318 321/37/321 317/36/317
f 321/37/321 318/31/318 319/34/319
f 554/51/554 435/15/435 553/50/553
f 435/15/435 554/51/554 436/24/436
f 551/47/551 553/50/553 550/46/550
f 553/50/553 551/47/551 554/51/554
f 558/57/558 562/62/562 321/24/321
f 305/39/305 562/62/562 560/60/560
f 321/24/321 320/15/320 558/57/558
g fff0a81b_00394_00916ae8_e3
f 118/37/118 119/42/119 135/34/135
f 118/24/118 88/39/88 261/54/261
f 82/18/82 261/54/261 88/39/88
f 134/31/134 136/36/136 118/37/118
f 118/37/118 135/34/135 134/31/134
f 405/24/405 556/54/556 406/15/406
f 301/37/301 307/34/307 306/31/306
f 306/31/306 308/36/308 301/37/301
f 270/18/270 301/24/301 276/39/276
f 301/24/301 270/18/270 302/15/302
f 118/24/118 261/54/261 119/15/119
f 405/37/405 406/42/406 422/34/422
f 405/24/405 375/39/375 556/54/556
f 369/18/369 556/54/556 375/39/375
f 421/31/421 423/36/423 405/37/405
f 405/37/405 422/34/422 421/31/421
f 301/37/301 302/42/302 307/34/307
