# fff08519_00343_00595a83
o fff08519_00343_00595a83
v 0.897064 0.114070 0.566955
v 0.580396 0.788101 0.566955
v -0.037099 1.100399 0.566953
v -0.709204 0.835205 0.566955
v -1.136979 0.109960 0.670575
v -0.703437 -0.512488 0.670575
v -0.080989 -0.875372 0.670575
v 0.576983 -0.544309 0.670575
v 0.529034 0.108203 1.506145
v 0.351643 0.536464 1.506145
v -0.076617 0.713852 1.506145
v -0.504876 0.476512 1.506145
v -0.682268 0.056039 1.506145
v -0.504876 -0.320056 1.506145
v -0.160154 -0.502156 1.506145
v 0.351643 -0.320056 1.506145
v -0.077847 0.180809 4.284690
v 0.498882 0.121490 2.664046
v 0.400491 0.369339 2.665692
v -0.014276 0.534664 3.057670
v -0.340854 0.399391 3.057670
v -0.476126 0.072814 2.740035
v -0.340854 -0.253765 3.057670
v -0.014276 -0.389036 3.057670
v 0.267260 -0.268393 3.057670
v 0.218488 0.120691 4.090558
v 0.035630 0.388573 4.090558
v -0.192745 0.532562 4.090558
v -0.558658 0.077656 4.225763
v 0.210631 -0.134182 4.225763
v 0.379786 0.048206 1.962584
v 0.218646 -0.340727 1.963713
v -0.170287 -0.502190 1.953168
v -0.559867 -0.341373 1.937100
v -0.721656 0.048205 1.924918
v -0.560191 0.438110 1.923784
v -0.170287 0.599251 1.934367
v 0.218969 0.437462 1.950440
v -0.283259 0.382492 4.416014
v -0.358156 0.193733 4.416449
v -0.389856 0.546394 4.074448
v -0.554733 0.077656 4.082317
v -0.685048 0.716698 4.236627
v -0.870914 0.230663 4.240280
v -0.679401 0.621895 4.436460
v -0.783172 0.395085 4.438501
v -0.763297 0.636200 4.153044
v -0.879779 0.331608 4.155334
v -1.164730 0.828428 4.323278
v -1.337436 0.505807 4.330164
v -1.121352 0.742645 4.507378
v -1.217774 0.562528 4.511223
v -1.233353 0.773352 4.256080
v -1.341591 0.571166 4.260396
v -1.445530 0.887400 4.420445
v -1.563227 0.590776 4.430169
v -1.348653 0.798269 4.569829
v -1.414363 0.632660 4.575255
v -1.584742 0.856823 4.387722
v -1.658501 0.670928 4.393814
v -1.607880 0.896816 4.595943
v -1.692741 0.640482 4.595618
v -1.484109 0.814337 4.640887
v -1.531489 0.671224 4.640705
v -1.747037 0.875624 4.590063
v -1.800217 0.714983 4.589859
v -1.815921 0.901889 5.082026
v -1.892845 0.669528 5.081732
v -1.693831 0.827123 5.087453
v -1.736779 0.697397 5.087287
v -1.942063 0.882680 5.076695
v -1.990270 0.737065 5.076511
v -0.387591 -0.128935 4.026690
v -0.077847 -0.257658 4.038049
v 0.143842 0.035810 4.255531
v 0.103651 -0.223799 4.131687
v -0.073500 -0.458633 4.476558
v -0.567689 -0.625397 4.430810
v -0.383576 -0.458633 4.476558
v -0.563654 -0.820463 4.377296
v -0.383576 -0.956421 4.339997
v -0.073500 -0.956421 4.339997
v 0.084599 -0.625397 4.430810
v 0.079416 -0.820463 4.377296
v 0.039680 -0.822680 4.686207
v -0.342789 -0.993229 4.723971
v -0.194564 -0.828808 4.718686
v -0.350434 -1.181221 4.707171
v -0.221846 -1.267239 4.676895
v 0.012398 -1.261110 4.644417
v 0.149975 -0.980335 4.655649
v 0.135367 -1.127003 4.639815
v 0.042596 -0.929882 4.938082
v -0.290652 -1.083599 4.929376
v -0.169926 -0.937860 4.933317
v -0.281497 -1.248428 4.928136
v -0.153618 -1.317244 4.929996
v 0.058906 -1.309267 4.934761
v 0.156420 -1.066813 4.939399
v 0.159258 -1.190376 4.938017
v -0.077582 -1.072783 6.333885
v -0.369980 -1.209248 6.315033
v -0.264235 -1.079870 6.322557
v -0.361607 -1.355585 6.314243
v -0.249063 -1.412022 6.320170
v -0.062409 -1.404940 6.331499
v 0.022669 -1.194347 6.338861
v 0.025495 -1.299389 6.337734
v 0.437042 0.195345 3.193357
v 0.355407 0.345203 3.200837
v 0.798978 0.134350 3.241800
v 0.755761 0.537621 3.236606
v 0.747019 0.184118 3.344223
v 0.697499 0.375117 3.346330
v 0.862087 0.240586 3.029743
v 0.834125 0.441152 3.030977
v 1.182662 0.243098 3.341820
v 1.044668 0.537156 3.355185
v 1.008358 0.223050 3.410730
v 0.942647 0.374438 3.418328
v 1.280689 0.340223 3.285283
v 1.201116 0.489501 3.296046
v 1.382462 0.246442 3.648160
v 1.250948 0.494851 3.647357
v 1.250395 0.259012 3.664860
v 1.186848 0.371682 3.665791
v 1.493435 0.353156 3.627014
v 1.419734 0.490196 3.627361
v 1.609474 0.224205 4.933391
v 1.504421 0.440026 4.931533
v 1.506473 0.254405 4.945004
v 1.455610 0.340158 4.946259
v 1.703154 0.330295 4.914236
v 1.643903 0.436179 4.915009
v 0.416665 0.010672 3.071558
v 0.280281 0.448425 3.026286
v 0.358326 0.180504 3.697008
v 0.207970 -0.160608 3.767794
v 0.273485 0.056980 3.796357
v 0.551039 -1.228774 3.997787
v 0.705348 -0.951352 4.076525
v 0.498566 -1.161015 4.097628
v 0.584706 -1.006136 4.141589
v 0.661935 -1.185164 3.932703
v 0.758636 -1.011315 3.982044
v 1.372465 -2.009676 5.240675
v 1.517268 -1.830247 5.286290
v 1.322468 -1.942403 5.283741
v 1.403314 -1.842219 5.309207
v 1.477246 -2.004008 5.217166
v 1.567998 -1.891560 5.245750
v 0.960202 -1.555661 4.355728
v 1.026980 -1.392300 4.389066
v 1.150721 -1.353812 4.337600
v 1.222778 -1.437447 4.272765
v 1.173622 -1.560915 4.257639
v 1.077931 -1.638229 4.281803
v 1.312135 -1.864626 4.644775
v 1.406696 -1.766597 4.643514
v 1.409652 -1.673038 4.673880
v 1.373987 -1.624455 4.703104
v 1.246264 -1.640811 4.743806
v 1.187053 -1.804061 4.710369
v 0.168833 -0.262279 3.442471
v 0.309424 -0.183007 3.369288
v 0.428952 0.025905 3.565309
v -0.842474 0.109960 0.942770
v -0.927124 -0.029487 0.786921
v -0.684130 -0.493181 0.829849
v -0.299521 -0.648271 0.749782
v -0.080989 -0.633125 0.874701
v 0.020457 -0.719751 0.720406
v 0.526936 -0.497965 0.790381
v 0.606051 -0.415943 0.731476
v 0.605373 -0.363816 0.871253
v 0.640137 -0.296970 0.668318
v 0.770536 0.109954 0.734608
v 0.531536 0.722486 0.648743
v 0.417218 0.744944 0.793967
v 0.079283 0.911316 0.639988
v -0.080997 0.966712 0.704122
v -0.682090 0.711046 0.743129
v -0.760269 0.634398 0.641409
v -0.353741 0.864042 0.644019
v -0.696654 0.108928 1.151692
v -0.538897 -0.351317 1.128078
v -0.051075 -0.547357 1.058937
v 0.382075 -0.351787 1.124678
v 0.571779 0.108928 1.027663
v 0.380874 0.568456 0.997373
v -0.078654 0.757909 1.040347
v -0.537516 0.567791 1.033007
v -0.698348 -0.007920 1.926673
v -0.656071 0.000498 1.506145
v -0.414561 -0.362084 1.503562
v -0.490828 -0.367155 1.938927
v -0.488444 -0.372250 1.127561
v -0.109203 -0.517099 1.059667
v -0.206734 -0.478731 1.505709
v -0.659322 0.171377 1.719331
v -0.644679 0.168256 1.506145
v -0.692277 0.289877 1.028910
v -0.617537 0.232590 1.506145
v -0.583539 0.381732 1.923948
v -0.354603 0.366198 3.025385
v -0.359337 0.454839 3.441185
v -0.244336 0.439370 3.057670
v -0.169039 0.470559 3.057670
v -0.410602 0.499933 1.927844
v 0.353789 0.377207 2.715111
v 0.803409 0.453774 3.053911
v 1.142359 0.527341 3.312099
v 0.158307 0.495496 1.948859
v 0.765064 0.521250 3.200935
v 0.289884 0.439122 2.985636
v 0.112369 0.470901 2.792767
v -0.492433 0.586470 1.033728
v -0.522736 0.526459 1.247249
v -0.138991 0.732909 1.039382
v -0.125635 0.686687 1.506145
v -0.483230 -0.155854 2.607235
v -0.389697 -0.135845 2.942979
v -0.415391 -0.073816 2.882648
v 0.477844 0.079180 2.708427
v 0.822214 0.201627 3.046124
v -0.035408 -0.249741 4.059944
v 0.036381 -0.368053 3.057670
v -0.041096 -0.459795 1.506145
v -0.089014 -0.468450 1.955371
v -0.025358 -0.442023 1.957097
v 0.533293 0.015465 1.026323
v 0.266868 -0.207002 3.391440
v 0.211448 -0.296785 3.057670
v 0.247919 -0.313546 2.305645
v 0.374396 -0.235929 1.506145
v 0.475333 0.012307 2.897635
v 0.367196 -0.064619 2.591409
v 0.335742 -0.118344 2.587401
v 0.301273 -0.144473 1.963211
v 0.330717 -0.073405 1.963005
v 0.419136 -0.068168 1.694780
v 0.207373 0.623597 1.214083
v 0.242438 0.581697 1.506145
v 0.181860 0.606789 1.506145
v 0.044347 0.531479 1.943833
v -0.027048 0.554023 1.940684
v 0.078979 0.500637 2.376047
v -0.106602 0.478249 4.090558
v 0.296844 0.244856 3.696146
v 0.189494 0.163167 4.090558
v 0.414313 0.057951 3.592608
v 0.741931 -0.992517 4.011662
v 0.422653 0.018094 3.312149
v 0.353689 -0.137461 2.887381
v 0.435337 0.011192 3.016206
v 0.804598 0.150623 3.194471
v 1.207337 0.267546 3.327588
v -0.757536 -0.416023 0.763475
v 0.631666 0.396149 0.702186
v 0.780664 0.212947 0.644419
v -0.526854 0.074903 3.593174
v -0.406869 -0.182864 3.361765
v -0.473817 -0.086861 3.788937
v -0.196983 -0.256864 3.585387
v -0.426712 -0.099491 3.423667
v -0.446293 -0.060476 3.459478
v -0.842474 0.109960 0.942770
v -0.927124 -0.029487 0.786921
v -0.684130 -0.493181 0.829849
v -0.299521 -0.648271 0.749782
v -0.080989 -0.633125 0.874701
v 0.020457 -0.719751 0.720406
v 0.526936 -0.497965 0.790381
v 0.605373 -0.363816 0.871253
v 0.640137 -0.296970 0.668318
v 0.770536 0.109954 0.734608
v 0.417218 0.744944 0.793967
v 0.079283 0.911316 0.639988
v -0.080997 0.966712 0.704122
v -0.682090 0.711046 0.743129
v -0.760269 0.634398 0.641409
v -0.353741 0.864042 0.644019
v 0.380874 0.568456 0.997373
v -0.757536 -0.416023 0.763475
v 0.631666 0.396149 0.702186
v 0.780664 0.212947 0.644419
vt 0.075736 0.434492
vt 0.263905 0.434492
vt 0.453154 0.434492
vt 0.642408 0.434492
vt 0.928619 0.434492
vt -0.371744 0.423692
vt -0.170812 0.434492
vt -0.759616 0.434492
vt -0.600842 0.434492
vt 0.038007 0.845570
vt 0.078044 0.841341
vt 0.036600 0.854562
vt 0.313691 0.159206
vt 0.489139 0.564891
vt 1.085198 0.164151
vt 0.625559 0.235127
vt 1.263757 0.137983
vt 1.083899 0.580397
vt 0.603515 0.573977
vt 1.215186 0.573751
vt 0.057554 0.827701
vt 0.087348 0.827701
vt 0.087348 0.883353
vt 0.057554 0.883353
vt 0.121398 0.827701
vt 0.121398 0.883353
vt 0.154384 0.827701
vt 0.154384 0.883353
vt 0.187371 0.827701
vt 0.187549 0.876825
vt 0.087348 0.937741
vt 0.057554 0.937741
vt 0.121398 0.937741
vt 0.154384 0.937741
vt 0.187549 0.937004
vt 0.299961 0.826721
vt 0.270167 0.826721
vt 0.334011 0.826721
vt 0.366997 0.826721
vt 0.400363 0.827477
vt 0.326924 0.986413
vt 0.299039 0.986393
vt 0.376848 0.985564
vt 0.393569 0.984243
vt 0.371443 0.984281
vt 0.284598 0.860814
vt 0.248330 0.845199
vt 0.270985 0.839507
vt 0.304529 0.835980
vt 0.310830 0.847013
vt 0.318660 0.853855
vt 0.236674 0.855188
vt 0.214321 0.851728
vt 0.187728 0.829091
vt 0.239551 0.875606
vt 0.304649 0.881841
vt 0.277729 0.880729
vt 0.338100 0.852329
vt 0.335433 0.888216
vt 0.276880 0.944631
vt 0.239859 0.938951
vt 0.213320 0.936109
vt 0.321341 0.948059
vt 0.486886 0.824931
vt 0.452391 0.824765
vt 0.425333 0.826316
vt 0.519971 0.826666
vt 0.475814 0.977112
vt 0.421467 0.978625
vt 0.400551 0.982605
vt 0.519111 0.977843
vt 0.274273 0.973897
vt 0.239778 0.973730
vt 0.212721 0.975282
vt 0.307358 0.975631
vt 0.087348 0.975686
vt 0.057554 0.975686
vt 0.121398 0.975686
vt 0.154384 0.975686
vt 0.187750 0.976442
vt 0.444138 0.558119
vt 0.496695 0.479819
vt 0.637668 0.506832
vt 0.791889 0.470467
vt 0.928619 0.527203
vt -0.759616 0.527203
vt -0.731699 0.457125
vt -0.599641 0.488907
vt -0.563991 0.462153
vt -0.543729 0.523761
vt -0.528180 0.461505
vt -0.386774 0.510638
vt -0.176501 0.471639
vt -0.143897 0.537598
vt 0.005078 0.467662
vt 0.063368 0.496792
vt 0.254355 0.514508
vt 0.292283 0.453957
vt 0.151239 0.469493
vt 0.067360 0.921865
vt 0.036600 0.921865
vt 0.089611 0.921865
vt 0.247010 0.921238
vt 0.223853 0.921182
vt 0.200339 0.921553
vt 0.311673 0.921249
vt 0.067360 0.940941
vt 0.036600 0.940941
vt 0.089611 0.940941
vt 0.245304 0.940285
vt 0.222148 0.940210
vt 0.199486 0.940595
vt 0.309967 0.940429
vt 0.067360 0.983316
vt 0.036600 0.983229
vt 0.089611 0.983295
vt 0.245731 0.983869
vt 0.222574 0.983614
vt 0.199699 0.983436
vt 0.310394 0.984093
vt 0.549814 0.290014
vt 0.506834 0.138786
vt 0.252862 0.234572
vt 0.057078 0.250456
vt -0.007400 0.189881
vt 0.023719 0.169150
vt 0.467708 0.598597
vt 0.490151 0.608054
vt 0.539298 0.193685
vt 0.162098 0.827701
vt 0.291876 0.837310
vt 0.251922 0.844296
vt 0.165771 0.281918
vt 0.244579 0.518690
vt 0.202909 0.518690
vt 0.244618 0.997432
vt 0.205359 0.996261
vt 0.505461 -0.002289
vt 0.538841 0.196581
vt 0.503637 0.196926
vt 0.575823 0.516964
vt 0.504094 0.518690
vt 0.535173 1.005620
vt 0.489101 1.004397
vt 0.888592 0.150740
vt 0.802832 0.518690
vt 0.843399 0.151228
vt 0.870315 0.027672
vt 0.763242 0.518399
vt 0.795190 1.015131
vt 0.043122 0.199900
vt 0.122528 0.518690
vt 0.071703 0.518690
vt 0.121067 0.858930
vt -0.139780 0.518690
vt -0.044892 0.995614
vt -0.091003 0.995504
vt -1.006866 0.518690
vt -0.824874 1.012254
vt -1.006866 1.013310
vt -0.208998 0.203118
vt -0.183245 0.009000
vt -0.177119 0.202637
vt -0.161398 0.345750
vt -0.554892 0.207540
vt -0.510035 0.518690
vt -0.554119 0.518690
vt -0.561737 -0.017056
vt -0.505301 0.206895
vt -0.452224 1.002574
vt 0.855514 1.016603
vt 0.895395 0.518690
vt 0.909048 1.017756
vt 1.558669 0.198172
vt 1.636098 0.003308
vt 1.637722 0.199067
vt 1.638423 0.518690
vt 1.250381 0.518690
vt 1.313447 0.518690
vt 1.146351 1.022175
vt 1.251904 0.194655
vt 1.418986 1.021703
vt 1.335917 1.021841
vt 1.462355 0.644698
vt -0.684308 1.008896
vt -0.856187 0.518690
vt -0.598428 1.006793
vt -0.796714 0.518690
vt -0.811036 0.323595
vt 1.329392 0.016372
vt -0.125305 -0.058948
vt 0.163390 0.073141
vt 0.932823 -0.075396
vt 1.258837 -0.028653
vt -0.997988 0.186114
vt 1.636098 1.021420
vt 0.230564 -0.031549
vt 0.737322 -0.055773
vt -0.206779 0.998216
vt -0.896666 0.042960
vt -0.660034 -0.059898
vt 1.389400 -0.029166
vt -0.388423 -0.057205
vt 2.005908 0.187915
vt 2.000649 1.016511
vt 1.999565 0.182157
vt 2.000649 0.521891
vt 2.000649 0.521891
vt 2.000649 1.016511
vt 2.000649 0.521891
vt 0.533100 0.045975
vt 0.467022 0.655271
vt 0.494263 0.044660
vt 0.818109 0.055155
vt 0.850615 0.893213
vt 0.775853 0.053786
vt 0.139026 0.869029
vt 0.112777 0.893213
vt 0.212599 0.043811
vt 0.250194 0.043934
vt 0.114945 0.046852
vt 0.026294 0.893213
vt -0.038082 0.893213
vt -0.323484 0.063779
vt -0.416289 0.636600
vt -0.437325 0.599580
vt -0.266389 0.062594
vt -0.247035 0.694772
vt -0.349148 0.869704
vt -0.357880 0.839252
vt 0.726793 0.807298
vt 0.648240 0.762103
vt 0.695123 0.555789
vt 1.849136 0.602144
vt 1.821892 0.635391
vt 1.648277 0.072876
vt 1.085666 0.067473
vt 1.185166 0.893213
vt 1.143960 0.893213
vt 1.129003 0.068766
vt 1.373759 0.893213
vt 1.328857 0.893213
vt 1.339705 0.329866
vt 1.554400 0.543934
vt 1.623459 0.773330
vt 1.504454 0.540932
vt 1.539561 0.073192
vt 1.472844 0.073346
vt -0.138073 0.056471
vt -0.216598 0.382604
vt -0.187219 0.058830
vt 1.619426 0.903617
vt 1.495265 0.765648
vt 1.620803 0.862152
vt -0.148698 0.893213
vt -0.047798 0.051739
vt 1.035964 0.065823
vt 1.311327 0.073722
vt 2.023803 0.603378
vt 2.137645 0.084461
vt 0.213049 0.192061
vt 0.170028 0.471923
vt 0.186149 0.213791
vt 0.150302 0.898154
vt 0.036567 0.213791
vt 0.102999 0.213791
vt 0.697483 0.136596
vt 0.636521 0.095989
vt 0.693254 0.866009
vt 1.062912 0.213791
vt 1.055167 0.888392
vt 1.013573 0.873655
vt 1.100475 0.213791
vt 1.282377 0.213791
vt 1.314866 0.439477
vt 1.237947 0.213791
vt 1.357908 0.423541
vt -0.084710 0.213791
vt 0.040758 0.908997
vt -0.014196 0.908997
vt -0.475876 0.908997
vt -0.540429 0.908997
vt -0.507974 0.644110
vt -0.511005 0.305118
vt -0.436598 0.643530
vt 1.534974 0.555468
vt 1.568309 0.385073
vt 1.558385 0.573842
vt 1.223458 0.474385
vt 1.193917 0.936680
vt 0.798923 0.213791
vt 0.490252 0.903450
vt 0.494648 0.000000
vt 1.311884 0.691754
vt 1.547474 0.716360
vt 1.333649 1.000000
vt -0.299255 0.192667
vt -0.149655 0.908997
vt -0.388689 0.310152
vt 1.558385 0.223138
vt 1.889319 0.305118
vt 1.918743 0.908997
vt 1.886287 0.644110
vt 0.124061 0.079187
vt 0.236042 0.353011
vt 0.115563 0.085133
vt 0.246364 0.396264
vt 0.239730 0.701818
vt 0.157648 0.989064
vt 0.378692 0.384113
vt 0.483881 0.160122
vt 0.392468 0.394422
vt 0.472014 0.149550
vt 0.337813 0.738440
vt 0.877519 0.143180
vt 0.902479 0.137300
vt 0.689014 0.374661
vt -0.106249 0.499106
vt 0.235900 0.188084
vt 1.715585 0.753988
vt 0.703246 0.176721
vt 1.037155 0.625236
vt 0.677098 0.188115
vt 0.836837 0.868491
vt 0.691840 0.854725
vt 0.818716 0.434596
vt 0.617806 0.308890
vt 0.550766 0.267971
vt 0.564222 0.453471
vt 0.691017 0.869250
vt 0.778927 0.185518
vt 0.878537 0.642070
vt 0.290095 0.271444
vt 0.227258 0.626694
vt 0.439402 0.271938
vt 0.463629 0.233280
vt 0.437550 0.610808
vt -0.035143 0.660048
vt -0.120128 0.310457
vt 0.007244 0.968121
vt -0.011860 0.967005
vt 0.014823 0.864861
vt 0.070370 0.966953
vt 0.483520 0.858070
vt 0.091031 0.866663
vt 0.103321 0.866606
vt 0.103581 0.969623
vt 0.087534 0.969174
vt 0.035985 0.866201
vt -0.225325 0.971611
vt -0.449911 0.872517
vt 0.543542 0.873094
vt 0.384452 0.783126
vt 0.561483 0.915301
vt 0.512762 0.989373
vt 0.391883 0.797052
vt 0.285239 0.741130
vt 0.422040 1.048394
vt 0.426721 1.048687
vt 0.463222 1.012332
vt 0.311844 0.588396
vt 0.270419 0.698009
vt 0.452925 0.996556
vt 0.429407 1.022744
vt 0.446042 0.992407
vt 0.424790 1.021227
vt 0.474500 0.961193
vt 0.446907 0.978082
vt -2.353723 6.581481
vt 0.714362 1.254627
vt 0.453475 0.872022
vt 0.359379 0.922743
vt 0.368992 0.804123
vt 0.418379 1.043554
vt 0.560170 0.994251
vt 0.428231 1.015909
vt 0.499819 0.788918
vt 0.482320 0.781070
vt 0.422670 0.900524
vt 0.262455 0.848489
vt 0.578808 0.823057
vt 0.476448 0.899866
vt 0.442608 0.798472
vt 0.460476 0.901242
vt 0.535480 0.795214
vt 0.540208 0.794061
vt 0.511192 0.902078
vt 0.558284 0.791015
vt 0.520479 0.901574
vt 0.442964 0.901564
vt 0.568679 0.802276
vt 0.455171 0.901184
vt 0.419897 0.793707
vt 0.975216 0.842556
vt 0.914762 0.823377
vt 0.900410 0.881903
vt 0.886584 0.886913
vt 0.916599 0.844707
vt 0.908123 0.888194
vt 0.956825 0.867629
vt 0.965392 0.850845
vt 0.972600 0.898439
vt 0.954239 0.902547
vt 0.952769 0.863150
vt 0.946566 0.901133
vt 0.899871 0.937359
vt 0.891908 0.937755
vt 0.903319 0.943049
vt 0.883193 0.948520
vt 0.919043 0.956640
vt 0.913235 0.955132
vt 0.898359 0.971132
vt 0.892304 0.964637
vt 0.900228 0.985595
vt 0.887277 0.972052
vt 0.899979 0.984414
vt 0.902595 0.993918
vt 0.608621 0.466513
vt 0.455442 -0.042358
vt 0.375355 0.203783
vt 1.859549 -0.004680
vt 0.410520 0.180112
vt 1.708132 -0.052802
vt 0.376064 1.551988
vt 0.228908 1.532552
vt 0.563526 0.700088
vt 0.491850 0.574900
vt 0.705739 0.420284
vt 0.656921 0.460289
vt 0.617959 0.483331
vt 0.914361 0.568663
vt 0.269662 1.537934
vt 0.293239 1.541048
vt 0.298529 1.369500
vn 0.772992 0.060433 0.631530
vn 0.500004 0.504806 0.703681
vn 0.062499 0.640668 0.765270
vn -0.435291 0.644350 0.628757
vn -0.689779 0.069823 0.720645
vn -0.599649 -0.771839 0.211390
vn 0.023084 -0.589690 0.807299
vn 0.603763 -0.620104 0.500940
vn 0.981910 0.010059 0.189079
vn 0.702484 0.682853 0.200567
vn -0.034446 0.985709 0.164897
vn -0.722918 0.685160 0.089131
vn -0.996843 -0.071859 -0.033756
vn -0.710068 -0.703986 -0.014381
vn -0.089425 -0.995329 0.036377
vn 0.750406 -0.640950 0.161471
vn 0.479689 0.311037 0.820460
vn 0.895963 -0.208775 -0.391999
vn 0.501629 0.817500 -0.282953
vn 0.013459 0.999908 0.001442
vn -0.691723 0.721663 -0.026868
vn -0.984156 0.037555 0.173279
vn -0.672012 -0.736144 0.080576
vn 0.022906 -0.993564 0.110932
vn 0.678508 -0.731588 0.066372
vn 0.897249 0.253455 0.361531
vn 0.574057 0.645196 0.504163
vn 0.369241 0.906444 0.204988
vn -0.789120 -0.432723 0.435936
vn 0.946315 -0.113918 0.302506
vn 0.994306 -0.028568 0.102662
vn 0.669649 -0.739771 0.065636
vn -0.032669 -0.998563 0.042471
vn -0.703054 -0.710085 0.038649
vn -0.995155 -0.008610 0.097942
vn -0.728599 0.681992 0.063483
vn -0.085638 0.983648 0.158439
vn 0.807018 0.578124 0.120391
vn 0.436873 0.330200 0.836726
vn 0.024353 -0.113634 0.993224
vn -0.247882 0.809090 -0.532848
vn -0.889217 -0.266977 -0.371504
vn 0.269314 0.948435 -0.167154
vn -0.517491 -0.855055 0.032923
vn 0.308809 0.520563 0.796022
vn -0.070129 -0.395381 0.915836
vn -0.077388 0.409533 -0.909007
vn -0.372728 -0.267613 -0.888514
vn 0.178240 0.964831 -0.193212
vn -0.453744 -0.882714 -0.122198
vn 0.300825 0.512297 0.804398
vn -0.036629 -0.533941 0.844728
vn -0.139595 0.475124 -0.868775
vn -0.412865 -0.275242 -0.868207
vn 0.116058 0.980798 -0.156738
vn -0.353936 -0.932180 -0.075959
vn 0.414173 0.501346 0.759680
vn 0.128577 -0.619441 0.774443
vn -0.396391 0.618651 -0.678340
vn -0.669566 -0.306629 -0.676506
vn 0.126626 0.990869 0.046316
vn -0.269399 -0.962974 -0.010268
vn 0.641042 0.424705 0.639289
vn 0.407438 -0.738538 0.537173
vn -0.586271 0.718274 -0.374659
vn -0.855889 -0.291355 -0.427277
vn 0.116577 0.992318 0.041416
vn -0.290555 -0.954812 -0.062549
vn 0.837601 0.390328 0.382188
vn 0.543924 -0.786569 0.292327
vn -0.669478 0.688733 -0.278292
vn -0.901567 -0.267603 -0.339948
vn -0.603377 -0.673145 -0.427566
vn 0.014527 -0.880964 -0.472960
vn 0.586611 0.358425 0.726236
vn 0.646588 -0.668255 -0.367912
vn 0.258353 0.379317 0.888466
vn -0.885651 0.102514 0.452894
vn -0.200029 0.277830 0.939574
vn -0.885494 -0.352599 -0.302612
vn -0.326907 -0.597236 -0.732422
vn 0.253674 -0.521743 -0.814514
vn 0.877117 0.177462 0.446287
vn 0.802876 -0.250149 -0.541124
vn 0.519858 0.653313 0.550390
vn -0.777118 0.240333 0.581659
vn -0.230901 0.640284 0.732612
vn -0.850386 -0.525933 0.015418
vn -0.301431 -0.891037 -0.339400
vn 0.331942 -0.826105 -0.455374
vn 0.982611 0.185678 0.000472
vn 0.843889 -0.394141 -0.364013
vn 0.436493 0.870301 0.228145
vn -0.944994 0.286003 0.158709
vn -0.424974 0.865394 0.265502
vn -0.813848 -0.580441 -0.027206
vn -0.202785 -0.971861 -0.119850
vn 0.453779 -0.882985 -0.120090
vn 0.945294 0.316820 0.077748
vn 0.938826 -0.341169 -0.047002
vn 0.404096 0.905777 0.127572
vn -0.955810 0.292587 -0.028627
vn -0.459298 0.886313 0.059112
vn -0.821219 -0.563292 -0.091120
vn -0.207298 -0.974810 -0.082298
vn 0.431162 -0.901940 -0.024557
vn 0.933913 0.336839 0.119772
vn 0.936684 -0.344585 0.062326
vn 0.499972 -0.246476 0.830227
vn 0.320029 0.747573 0.581993
vn 0.173066 -0.971519 0.161859
vn -0.154405 0.964172 0.215711
vn -0.206325 -0.601372 0.771869
vn -0.347702 0.284274 0.893472
vn 0.642256 -0.346581 -0.683659
vn 0.428474 0.623728 -0.653738
vn 0.340999 -0.892165 -0.296247
vn -0.204870 0.950496 0.233634
vn -0.206437 -0.844606 0.493988
vn -0.473369 0.193824 0.859275
vn 0.720911 -0.180739 -0.669044
vn 0.535174 0.596630 -0.598015
vn 0.360251 -0.923746 -0.130046
vn -0.393831 0.886429 0.243190
vn -0.450635 -0.848842 0.276397
vn -0.874711 0.037589 0.483185
vn 0.931980 -0.148690 -0.330612
vn 0.550178 0.811852 -0.195448
vn 0.280387 -0.958284 -0.055460
vn -0.496089 0.857785 0.134540
vn -0.587546 -0.801181 0.113573
vn -0.977574 -0.058139 0.202406
vn 0.975086 -0.145768 -0.167207
vn 0.542029 0.838189 -0.060368
vn 0.700243 -0.681431 0.212866
vn 0.160753 0.986484 0.031730
vn 0.831217 0.460657 0.311244
vn 0.136280 -0.664211 0.735018
vn 0.757519 -0.084369 0.647338
vn -0.606419 -0.686213 -0.401706
vn 0.574287 0.590179 0.567348
vn -0.854597 -0.315335 0.412587
vn -0.245225 0.283922 0.926959
vn 0.161915 -0.441914 -0.882324
vn 0.846618 0.261183 -0.463704
vn -0.465025 -0.878548 -0.109115
vn 0.413978 0.886213 0.207964
vn -0.961699 -0.018061 0.273513
vn -0.420398 0.812382 0.404105
vn 0.452349 -0.834296 -0.315168
vn 0.978974 0.104176 -0.175375
vn -0.794673 -0.470895 0.383082
vn -0.298223 0.476114 0.827272
vn 0.496910 0.814328 0.299918
vn 0.812672 0.277511 -0.512398
vn 0.500331 -0.382691 -0.776670
vn -0.153549 -0.813561 -0.560840
vn 0.113871 -0.897349 -0.426379
vn 0.838407 -0.312023 -0.446895
vn 0.924556 0.336805 -0.178207
vn 0.513364 0.826954 0.229355
vn -0.486550 0.676326 0.553039
vn -0.876187 -0.461497 0.138985
vn 0.124101 -0.980152 -0.154601
vn 0.764652 -0.570205 -0.300290
vn 0.970099 0.223083 -0.095609
vn -0.810684 -0.012810 0.585344
vn -0.669999 -0.334162 0.662901
vn -0.602370 -0.570652 0.558128
vn -0.230588 -0.832178 0.504291
vn 0.031457 -0.861032 0.507578
vn 0.252210 -0.763524 0.594493
vn 0.384616 -0.762711 0.519945
vn 0.869586 -0.374821 0.321449
vn 0.777027 -0.371703 0.508002
vn 0.947792 -0.313355 0.059148
vn 0.840596 0.148308 0.520963
vn 0.601300 0.526504 0.601025
vn 0.326152 0.765878 0.554126
vn 0.377970 0.912507 0.156431
vn 0.001691 0.890259 0.455451
vn -0.630840 0.590808 0.502978
vn -0.851129 0.355418 0.386339
vn -0.377969 0.912507 0.156432
vn -0.951051 -0.053926 0.304294
vn -0.668525 -0.641778 0.375760
vn -0.003047 -0.961347 0.275324
vn 0.652429 -0.666016 0.361605
vn 0.939547 0.019226 0.341879
vn 0.657721 0.671805 0.340706
vn -0.013214 0.936890 0.349376
vn -0.604067 0.685733 0.406046
vn -0.925581 -0.370440 0.077939
vn -0.904422 -0.421138 -0.068295
vn -0.446762 -0.894153 0.029887
vn -0.370644 -0.928310 0.029393
vn -0.340916 -0.894804 0.288276
vn -0.369775 -0.895467 0.247801
vn -0.452927 -0.891504 0.008838
vn -0.925709 0.371674 -0.070149
vn -0.940549 0.337986 0.033664
vn -0.833125 0.380284 0.401605
vn -0.910270 0.409839 0.058659
vn -0.923486 0.376516 0.073540
vn -0.944807 0.321507 0.063034
vn -0.716756 0.685266 -0.129115
vn -0.382585 0.923641 -0.022705
vn -0.382649 0.923618 -0.022589
vn -0.397168 0.913306 0.090171
vn 0.188239 0.977766 -0.092411
vn 0.092488 0.927302 -0.362709
vn 0.227481 0.926622 -0.299374
vn 0.468511 0.870857 0.148678
vn 0.087329 0.914859 -0.394217
vn 0.150863 0.968757 -0.196851
vn 0.365358 0.930042 -0.039172
vn -0.354207 0.858035 0.371904
vn -0.686289 0.705570 0.176573
vn -0.376075 0.871871 0.313700
vn -0.463191 0.879269 0.111089
vn -0.937227 -0.251485 0.241580
vn -0.954294 -0.276568 0.113286
vn -0.953016 -0.278221 0.119810
vn 0.748330 -0.625690 -0.220259
vn 0.515592 -0.795545 -0.318235
vn 0.373241 -0.828116 -0.418229
vn 0.376863 -0.922505 0.083415
vn 0.338528 -0.935324 0.102798
vn 0.380503 -0.924342 0.028433
vn 0.382493 -0.923410 0.031833
vn 0.879725 -0.285704 0.380075
vn 0.249887 -0.860890 -0.443198
vn 0.418948 -0.903458 0.090806
vn 0.713869 -0.700266 0.004330
vn 0.924273 -0.345811 0.161661
vn 0.649792 -0.758403 -0.050936
vn 0.849870 -0.514813 -0.112644
vn 0.879000 -0.473683 -0.054630
vn 0.914512 -0.390843 0.104448
vn 0.917759 -0.377452 0.123487
vn 0.891417 -0.391878 0.227613
vn 0.385586 0.919101 0.081101
vn 0.371539 0.912258 0.172465
vn 0.375996 0.907748 0.186066
vn 0.292506 0.945942 0.140121
vn 0.301128 0.939906 0.160931
vn 0.325554 0.944357 0.046954
vn 0.533915 0.757538 0.375594
vn 0.720451 0.651795 0.236883
vn 0.693277 0.523308 0.495496
vn 0.945550 0.307729 0.106007
vn 0.817090 0.568253 0.097223
vn 0.961572 -0.274440 0.007854
vn 0.803419 -0.595401 -0.003936
vn 0.545389 -0.820945 0.169119
vn 0.406084 -0.881207 -0.242013
vn 0.496605 -0.762903 -0.413960
vn -0.775498 -0.309729 0.550156
vn 0.769613 0.401834 0.496210
vn 0.746514 0.415529 0.519666
vn -0.997245 0.001289 -0.074168
vn -0.792414 -0.609613 0.021258
vn -0.765727 -0.642993 0.014910
vn -0.411715 -0.905716 0.100844
vn -0.955196 -0.284730 -0.080807
vn -0.904275 -0.419951 -0.076989
vn -0.667245 0.183287 0.721934
vn -0.618918 -0.341107 0.707522
vn -0.544765 -0.822058 0.165688
vn -0.354775 -0.633589 0.687531
vn -0.067835 -0.642888 0.762950
vn 0.354593 -0.509208 0.784201
vn 0.601883 -0.677128 0.423362
vn 0.886422 -0.432276 0.165510
vn -0.193324 0.445264 0.874280
vn 0.797271 -0.065058 0.600105
vn 0.611514 0.697526 0.373508
vn 0.276117 0.540857 0.794502
vn -0.041757 0.722160 0.690465
vn -0.572179 0.626324 0.529461
vn -0.630277 0.414507 0.656457
vn -0.241447 0.624054 0.743142
vn 0.786393 0.362652 0.500069
vn -0.802298 -0.568754 0.181210
vn 0.703054 0.319743 0.635201
vn 0.707013 0.363387 0.606698
g fff08519_00343_00595a83_e2
f 178/122/178 277/121/277 283/128/283
f 276/123/276 1/122/1 286/422/286
f 273/125/273 174/126/174 274/124/274
f 4/2/4 5/3/5 281/98/281
f 5/3/5 6/4/6 284/418/284
f 5/3/5 268/82/268 267/81/267
f 268/82/268 5/3/5 284/418/284
f 6/4/6 270/84/270 269/83/269
f 6/4/6 7/5/7 270/84/270
f 270/84/270 7/5/7 271/85/271
f 7/8/7 272/87/272 271/86/271
f 7/8/7 8/9/8 272/87/272
f 272/87/272 8/9/8 273/88/273
f 8/9/8 174/89/174 273/88/273
f 286/6/286 178/93/178 285/92/285
f 1/6/1 2/7/2 178/93/178
f 2/7/2 3/1/3 178/93/178
f 278/95/278 3/1/3 279/96/279
f 178/93/178 3/1/3 278/95/278
f 178/93/178 278/95/278 277/94/277
f 281/98/281 5/3/5 267/81/267
f 3/1/3 4/2/4 282/99/282
f 282/99/282 4/2/4 280/97/280
f 4/2/4 281/98/281 280/97/280
f 3/1/3 282/99/282 279/96/279
f 8/9/8 1/6/1 174/89/174
f 174/89/174 1/6/1 275/91/275
f 174/89/174 275/91/275 274/90/274
f 275/91/275 1/6/1 276/92/276
f 284/418/284 6/4/6 269/83/269
f 285/420/285 178/122/178 283/127/283
f 286/422/286 1/122/1 178/420/178
g fff08519_00343_00595a83_e5
f 193/211/193 22/212/22 35/213/35
f 185/133/185 194/134/194 13/135/13
f 13/135/13 194/134/194 193/136/193
f 13/135/13 193/136/193 35/137/35
f 196/214/196 23/215/23 34/216/34
f 169/138/169 197/139/197 186/140/186
f 186/140/186 195/141/195 14/142/14
f 14/142/14 195/141/195 196/143/196
f 186/140/186 197/139/197 195/141/195
f 14/142/14 196/143/196 34/144/34
f 187/145/187 15/146/15 198/147/198
f 198/147/198 171/148/171 187/145/187
f 199/149/199 15/146/15 33/150/33
f 198/147/198 15/146/15 199/149/199
f 202/151/202 201/152/201 203/153/203
f 203/153/203 201/152/201 200/154/200
f 205/217/205 21/218/21 36/219/36
f 256/322/256 257/325/257 117/324/117
f 12/155/12 204/156/204 36/157/36
f 204/220/204 205/217/205 36/219/36
f 135/252/135 254/253/254 255/254/255
f 209/221/209 207/222/207 208/223/208
f 38/224/38 210/225/210 19/226/19
f 210/304/210 116/305/116 19/306/19
f 240/247/240 238/246/238 239/248/239
f 211/307/211 122/308/122 116/305/116
f 213/227/213 210/225/210 38/224/38
f 116/305/116 210/304/210 211/307/211
f 122/308/122 211/307/211 212/309/212
f 10/158/10 213/159/213 38/160/38
f 214/310/214 136/311/136 112/312/112
f 136/311/136 214/310/214 215/313/215
f 214/310/214 112/312/112 118/314/118
f 216/228/216 136/229/136 215/230/215
f 217/161/217 182/162/182 192/163/192
f 192/163/192 218/164/218 217/161/217
f 191/165/191 220/166/220 11/167/11
f 181/168/181 219/169/219 191/165/191
f 11/167/11 220/166/220 37/170/37
f 191/165/191 219/169/219 220/166/220
f 240/247/240 237/244/237 238/246/238
f 256/322/256 117/324/117 111/320/111
f 222/231/222 223/232/223 221/233/221
f 255/321/255 111/320/111 135/323/135
f 224/315/224 18/316/18 115/317/115
f 115/317/115 121/318/121 225/319/225
f 225/319/225 224/315/224 115/317/115
f 18/234/18 224/235/224 31/236/31
f 111/320/111 255/321/255 256/322/256
f 246/249/246 247/250/247 245/251/245
f 229/237/229 227/238/227 24/239/24
f 230/240/230 227/238/227 229/237/229
f 229/171/229 228/172/228 230/173/230
f 231/174/231 177/175/177 189/176/189
f 231/174/231 189/176/189 9/177/9
f 25/241/25 233/242/233 234/243/234
f 242/189/242 244/188/244 243/186/243
f 246/187/246 243/186/243 244/188/244
f 245/185/245 243/186/243 246/187/246
f 16/178/16 235/179/235 32/180/32
f 16/178/16 188/181/188 235/179/235
f 240/182/240 239/183/239 241/184/241
f 237/244/237 236/245/236 238/246/238
g fff08519_00343_00595a83_e4
f 175/190/175 231/174/231 188/181/188
f 187/145/187 228/172/228 15/146/15
f 182/162/182 183/191/183 167/192/167
f 195/141/195 199/149/199 33/150/33
f 260/423/260 259/421/259 189/176/189
f 191/165/191 11/167/11 242/189/242
f 235/179/235 231/174/231 9/177/9
f 171/148/171 172/193/172 173/194/173
f 177/175/177 260/423/260 189/176/189
f 9/177/9 38/205/38 31/196/31
f 20/255/20 216/228/216 37/256/37
f 190/206/190 10/207/10 189/176/189
f 9/177/9 10/208/10 38/209/38
f 167/192/167 168/197/168 258/419/258
f 169/138/169 170/198/170 171/148/171
f 259/421/259 190/204/190 189/176/189
f 186/140/186 258/419/258 169/138/169
f 236/331/236 256/322/256 255/321/255
f 254/253/254 238/246/238 236/245/236
f 257/325/257 225/319/225 121/318/121
f 10/158/10 243/186/243 213/159/213
f 247/250/247 216/228/216 210/225/210
f 246/249/246 37/256/37 247/250/247
f 246/187/246 244/188/244 11/167/11
f 242/189/242 11/167/11 244/188/244
f 246/187/246 11/167/11 37/170/37
f 190/195/190 242/189/242 10/158/10
f 191/165/191 242/189/242 190/195/190
f 245/251/245 247/250/247 213/227/213
f 239/248/239 234/243/234 32/258/32
f 32/180/32 235/179/235 239/183/239
f 37/256/37 216/228/216 247/250/247
f 21/218/21 207/222/207 209/221/209
f 239/183/239 235/179/235 241/184/241
f 241/184/241 9/177/9 31/196/31
f 239/248/239 238/246/238 234/243/234
f 238/246/238 25/241/25 234/243/234
f 25/241/25 238/246/238 254/253/254
f 236/331/236 224/315/224 225/319/225
f 234/243/234 233/242/233 227/238/227
f 221/233/221 193/211/193 34/216/34
f 234/243/234 227/238/227 230/240/230
f 187/145/187 16/178/16 228/172/228
f 228/172/228 16/178/16 32/180/32
f 181/168/181 182/162/182 217/161/217
f 218/164/218 12/155/12 220/166/220
f 211/307/211 214/310/214 118/314/118
f 31/236/31 237/244/237 240/247/240
f 211/307/211 215/313/215 214/310/214
f 209/221/209 208/223/208 37/256/37
f 221/233/221 22/212/22 193/211/193
f 217/161/217 218/164/218 219/169/219
f 23/215/23 222/231/222 221/233/221
f 15/146/15 229/171/229 33/150/33
f 22/212/22 205/217/205 204/220/204
f 202/151/202 185/133/185 201/152/201
f 202/151/202 167/192/167 185/133/185
f 201/152/201 13/135/13 200/154/200
f 185/133/185 13/135/13 201/152/201
f 200/154/200 13/135/13 35/137/35
f 200/154/200 35/137/35 204/156/204
f 223/232/223 22/212/22 221/233/221
f 193/136/193 194/134/194 34/144/34
f 167/192/167 258/419/258 186/140/186
f 185/133/185 14/142/14 194/134/194
f 186/140/186 14/142/14 185/133/185
f 167/192/167 186/140/186 185/133/185
f 182/162/182 202/151/202 192/163/192
f 12/155/12 203/153/203 200/154/200
f 12/155/12 200/154/200 204/156/204
f 182/162/182 167/192/167 202/151/202
f 218/164/218 203/153/203 12/155/12
f 24/239/24 196/214/196 33/257/33
f 19/259/19 31/236/31 38/260/38
f 31/236/31 224/235/224 237/244/237
f 215/313/215 211/307/211 210/304/210
f 19/259/19 18/234/18 31/236/31
f 234/243/234 230/240/230 32/258/32
f 194/134/194 14/142/14 34/144/34
f 208/223/208 20/255/20 37/256/37
f 21/218/21 209/221/209 36/219/36
f 25/241/25 254/253/254 135/252/135
f 229/237/229 24/239/24 33/257/33
f 23/215/23 221/233/221 34/216/34
f 235/179/235 9/177/9 241/184/241
f 196/143/196 195/141/195 33/150/33
f 15/146/15 228/172/228 229/171/229
f 230/173/230 228/172/228 32/180/32
f 169/138/169 198/147/198 197/139/197
f 240/182/240 241/184/241 31/196/31
f 187/145/187 188/181/188 16/178/16
f 181/168/181 217/161/217 219/169/219
f 24/239/24 23/215/23 196/214/196
f 171/148/171 173/194/173 188/181/188
f 179/200/179 191/165/191 190/195/190
f 173/194/173 175/190/175 188/181/188
f 197/139/197 199/149/199 195/141/195
f 218/164/218 202/151/202 203/153/203
f 171/148/171 188/181/188 187/145/187
f 235/179/235 188/181/188 231/174/231
f 181/168/181 184/203/184 182/162/182
f 179/200/179 181/168/181 191/165/191
f 220/166/220 12/155/12 209/199/209
f 22/212/22 204/220/204 35/213/35
f 242/189/242 243/186/243 10/158/10
f 175/190/175 177/175/177 231/174/231
f 175/190/175 176/202/176 177/175/177
f 189/176/189 10/210/10 9/177/9
f 197/139/197 198/147/198 199/149/199
f 179/200/179 180/201/180 181/168/181
f 192/163/192 202/151/202 218/164/218
f 169/138/169 171/148/171 198/147/198
f 219/169/219 218/164/218 220/166/220
f 209/199/209 12/155/12 36/157/36
f 224/235/224 236/245/236 237/244/237
f 122/308/122 121/318/121 115/317/115
f 111/320/111 113/326/113 109/327/109
f 109/327/109 135/323/135 111/320/111
f 255/254/255 254/253/254 236/245/236
f 136/311/136 110/328/110 114/329/114
f 114/329/114 112/312/112 136/311/136
f 216/228/216 215/230/215 210/225/210
f 37/170/37 220/166/220 209/199/209
f 110/328/110 109/327/109 113/326/113
f 113/326/113 114/329/114 110/328/110
f 18/316/18 19/306/19 116/305/116
f 116/305/116 115/317/115 18/316/18
f 113/326/113 111/320/111 117/324/117
f 117/324/117 119/330/119 113/326/113
f 257/325/257 256/322/256 225/319/225
f 256/322/256 236/331/236 225/319/225
f 115/317/115 116/305/116 122/308/122
f 119/330/119 120/332/120 114/329/114
f 114/329/114 113/326/113 119/330/119
f 213/159/213 243/186/243 245/185/245
f 212/309/212 211/307/211 118/314/118
f 247/250/247 210/225/210 213/227/213
f 20/255/20 136/229/136 216/228/216
f 120/332/120 118/314/118 112/312/112
f 112/312/112 114/329/114 120/332/120
f 263/434/263 265/432/265 262/425/262
f 261/424/261 266/433/266 263/434/263
g fff08519_00343_00595a83_e6
f 20/278/20 208/265/208 41/264/41
f 227/273/227 164/289/164 76/290/76
f 164/289/164 233/276/233 232/275/232
f 264/431/264 73/269/73 263/426/263
f 23/291/23 24/270/24 264/431/264
f 266/430/266 261/427/261 22/293/22
f 222/267/222 262/428/262 265/429/265
f 42/292/42 41/264/41 206/262/206
f 206/262/206 205/261/205 42/292/42
f 251/288/251 253/287/253 109/301/109
f 26/302/26 138/294/138 139/295/139
f 26/302/26 30/296/30 138/294/138
f 136/297/136 27/298/27 110/299/110
f 139/295/139 137/303/137 26/302/26
f 135/300/135 253/287/253 25/274/25
f 136/297/136 248/280/248 27/298/27
f 41/264/41 28/279/28 20/278/20
f 76/290/76 164/289/164 138/294/138
f 227/273/227 76/290/76 226/271/226
f 76/290/76 138/294/138 30/296/30
f 110/299/110 249/285/249 109/284/109
f 251/288/251 109/301/109 137/303/137
f 165/277/165 25/274/25 253/287/253
f 250/281/250 249/285/249 27/298/27
f 136/297/136 20/278/20 248/280/248
f 249/285/249 110/299/110 27/298/27
f 165/277/165 253/287/253 166/286/166
f 205/261/205 22/293/22 261/427/261
f 207/266/207 21/263/21 206/262/206
f 41/264/41 207/266/207 206/262/206
f 73/269/73 42/292/42 263/426/263
f 262/428/262 23/291/23 264/431/264
f 222/267/222 23/291/23 262/428/262
f 233/276/233 164/289/164 227/273/227
f 253/287/253 135/300/135 109/301/109
f 17/46/17 250/132/250 27/48/27
f 250/132/250 17/46/17 75/52/75
f 17/46/17 27/48/27 248/131/248
f 17/46/17 39/50/39 40/51/40
f 107/70/107 108/45/108 100/40/100
f 100/40/100 99/66/99 107/70/107
f 26/47/26 75/52/75 30/53/30
f 30/53/30 84/30/84 76/54/76
f 84/30/84 30/53/30 83/55/83
f 30/53/30 75/52/75 83/55/83
f 17/46/17 40/51/40 79/56/79
f 79/56/79 77/57/77 17/46/17
f 75/52/75 17/46/17 77/57/77
f 77/57/77 83/55/83 75/52/75
f 40/51/40 29/58/29 78/59/78
f 78/59/78 79/56/79 40/51/40
f 29/21/29 42/22/42 80/23/80
f 80/23/80 78/24/78 29/21/29
f 42/22/42 73/25/73 81/26/81
f 81/26/81 80/23/80 42/22/42
f 73/25/73 74/27/74 82/28/82
f 82/28/82 81/26/81 73/25/73
f 74/27/74 226/130/226 84/30/84
f 84/30/84 82/28/82 74/27/74
f 77/57/77 79/56/79 87/60/87
f 87/60/87 85/61/85 77/57/77
f 83/55/83 77/57/77 85/61/85
f 85/61/85 91/62/91 83/55/83
f 79/56/79 78/59/78 86/63/86
f 86/63/86 87/60/87 79/56/79
f 78/24/78 80/23/80 88/31/88
f 88/31/88 86/32/86 78/24/78
f 80/23/80 81/26/81 89/33/89
f 89/33/89 88/31/88 80/23/80
f 81/26/81 82/28/82 90/34/90
f 90/34/90 89/33/89 81/26/81
f 82/28/82 84/30/84 92/35/92
f 92/35/92 90/34/90 82/28/82
f 84/30/84 83/55/83 91/62/91
f 91/62/91 92/35/92 84/30/84
f 85/61/85 87/60/87 95/72/95
f 95/72/95 93/73/93 85/61/85
f 91/62/91 85/61/85 93/73/93
f 93/73/93 99/74/99 91/62/91
f 87/60/87 86/63/86 94/75/94
f 94/75/94 95/72/95 87/60/87
f 86/32/86 88/31/88 96/76/96
f 96/76/96 94/77/94 86/32/86
f 88/31/88 89/33/89 97/78/97
f 97/78/97 96/76/96 88/31/88
f 89/33/89 90/34/90 98/79/98
f 98/79/98 97/78/97 89/33/89
f 90/34/90 92/35/92 100/80/100
f 100/80/100 98/79/98 90/34/90
f 92/35/92 91/62/91 99/74/99
f 99/74/99 100/80/100 92/35/92
f 93/65/93 95/64/95 103/68/103
f 103/68/103 101/69/101 93/65/93
f 99/66/99 93/65/93 101/69/101
f 101/69/101 107/70/107 99/66/99
f 95/64/95 94/67/94 102/71/102
f 102/71/102 103/68/103 95/64/95
f 94/37/94 96/36/96 104/41/104
f 104/41/104 102/42/102 94/37/94
f 96/36/96 97/38/97 105/43/105
f 105/43/105 104/41/104 96/36/96
f 97/38/97 98/39/98 106/44/106
f 106/44/106 105/43/105 97/38/97
f 98/39/98 100/40/100 108/45/108
f 108/45/108 106/44/106 98/39/98
f 226/130/226 76/29/76 84/30/84
f 17/10/17 248/11/248 39/12/39
f 39/394/39 28/395/28 43/396/43
f 43/396/43 45/397/45 39/394/39
f 28/395/28 41/398/41 47/399/47
f 47/399/47 43/396/43 28/395/28
f 29/400/29 40/401/40 46/402/46
f 46/402/46 44/403/44 29/400/29
f 42/404/42 29/400/29 44/403/44
f 44/403/44 48/405/48 42/404/42
f 40/401/40 39/394/39 45/397/45
f 45/397/45 46/402/46 40/401/40
f 41/398/41 42/404/42 48/405/48
f 48/405/48 47/399/47 41/398/41
f 45/397/45 43/396/43 49/406/49
f 49/406/49 51/407/51 45/397/45
f 43/396/43 47/399/47 53/408/53
f 53/408/53 49/406/49 43/396/43
f 44/403/44 46/402/46 52/409/52
f 52/409/52 50/410/50 44/403/44
f 48/405/48 44/403/44 50/410/50
f 50/410/50 54/411/54 48/405/48
f 46/402/46 45/397/45 51/407/51
f 51/407/51 52/409/52 46/402/46
f 47/399/47 48/405/48 54/411/54
f 54/411/54 53/408/53 47/399/47
f 51/407/51 49/406/49 55/412/55
f 55/412/55 57/413/57 51/407/51
f 49/406/49 53/408/53 59/414/59
f 59/414/59 55/412/55 49/406/49
f 50/410/50 52/409/52 58/415/58
f 58/415/58 56/416/56 50/410/50
f 54/411/54 50/410/50 56/416/56
f 56/416/56 60/417/60 54/411/54
f 52/409/52 51/407/51 57/413/57
f 57/413/57 58/415/58 52/409/52
f 53/408/53 54/411/54 60/417/60
f 60/417/60 59/414/59 53/408/53
f 57/101/57 55/100/55 61/107/61
f 61/107/61 63/108/63 57/101/57
f 55/100/55 59/102/59 65/109/65
f 65/109/65 61/107/61 55/100/55
f 56/104/56 58/103/58 64/110/64
f 64/110/64 62/111/62 56/104/56
f 60/105/60 56/104/56 62/111/62
f 62/111/62 66/112/66 60/105/60
f 58/103/58 57/106/57 63/113/63
f 63/113/63 64/110/64 58/103/58
f 59/102/59 60/105/60 66/112/66
f 66/112/66 65/109/65 59/102/59
f 63/108/63 61/107/61 67/114/67
f 67/114/67 69/115/69 63/108/63
f 61/107/61 65/109/65 71/116/71
f 71/116/71 67/114/67 61/107/61
f 62/111/62 64/110/64 70/117/70
f 70/117/70 68/118/68 62/111/62
f 66/112/66 62/111/62 68/118/68
f 68/118/68 72/119/72 66/112/66
f 64/110/64 63/113/63 69/120/69
f 69/120/69 70/117/70 64/110/64
f 65/109/65 66/112/66 72/119/72
f 72/119/72 71/116/71 65/109/65
f 252/387/252 251/386/251 141/389/141
f 252/353/252 141/356/141 154/357/154
f 149/358/149 147/359/147 161/360/161
f 141/356/141 143/361/143 153/362/153
f 159/363/159 150/364/150 158/365/158
f 150/364/150 146/366/146 158/365/158
f 156/367/156 159/363/159 158/365/158
f 157/368/157 144/352/144 156/367/156
f 156/367/156 158/365/158 157/368/157
f 144/352/144 145/354/145 156/367/156
f 156/367/156 145/354/145 155/355/155
f 147/359/147 160/369/160 161/360/161
f 155/355/155 252/353/252 154/357/154
f 162/370/162 154/357/154 153/362/153
f 140/371/140 144/352/144 157/368/157
f 141/356/141 153/362/153 154/357/154
f 163/372/163 153/362/153 152/373/152
f 143/361/143 152/373/152 153/362/153
f 158/365/158 146/366/146 163/372/163
f 152/373/152 140/371/140 157/368/157
f 146/366/146 148/374/148 163/372/163
f 157/368/157 163/372/163 152/373/152
f 157/368/157 158/365/158 163/372/163
f 162/370/162 153/362/153 163/372/163
f 148/374/148 162/370/162 163/372/163
f 161/360/161 154/357/154 162/370/162
f 142/375/142 140/371/140 152/373/152
f 151/376/151 150/364/150 159/363/159
f 145/384/145 144/379/144 165/378/165
f 165/378/165 166/385/166 145/384/145
f 149/358/149 161/360/161 162/370/162
f 142/382/142 143/392/143 139/393/139
f 139/393/139 138/383/138 142/382/142
f 251/386/251 137/388/137 141/389/141
f 143/390/143 141/389/141 137/388/137
f 137/388/137 139/391/139 143/390/143
f 144/379/144 140/380/140 164/381/164
f 164/381/164 232/377/232 144/379/144
f 140/380/140 142/382/142 138/383/138
f 138/383/138 164/381/164 140/380/140
f 159/363/159 155/355/155 160/369/160
f 160/369/160 151/376/151 159/363/159
f 160/369/160 155/355/155 161/360/161
f 161/360/161 155/355/155 154/357/154
f 147/359/147 151/376/151 160/369/160
f 143/361/143 142/375/142 152/373/152
f 148/374/148 149/358/149 162/370/162
f 156/367/156 155/355/155 159/363/159
f 123/334/123 121/336/121 127/337/127
f 128/14/128 212/129/212 124/19/124
f 128/14/128 127/337/127 121/336/121
f 121/336/121 122/13/122 128/14/128
f 125/20/125 126/18/126 120/15/120
f 120/15/120 119/17/119 125/20/125
f 212/129/212 118/16/118 124/19/124
f 126/18/126 124/19/124 118/16/118
f 118/16/118 120/15/120 126/18/126
f 123/334/123 257/333/257 121/336/121
f 123/334/123 125/338/125 119/339/119
f 119/339/119 117/335/117 123/334/123
f 130/340/130 134/341/134 128/342/128
f 134/341/134 133/343/133 127/344/127
f 126/345/126 125/346/125 131/347/131
f 131/347/131 132/348/132 126/345/126
f 127/344/127 128/342/128 134/341/134
f 128/342/128 124/349/124 130/340/130
f 132/348/132 130/340/130 124/349/124
f 124/349/124 126/345/126 132/348/132
f 133/343/133 129/350/129 123/351/123
f 123/351/123 127/344/127 133/343/133
f 129/350/129 131/347/131 125/346/125
f 125/346/125 123/351/123 129/350/129
f 264/431/264 24/270/24 74/272/74
f 74/272/74 73/269/73 264/431/264
f 263/426/263 42/292/42 261/427/261
f 205/261/205 261/427/261 42/292/42
f 22/293/22 223/268/223 266/430/266
f 263/1/263 262/1/262 264/1/264
g fff08519_00343_00595a83_e7
f 205/261/205 206/262/206 21/263/21
f 41/264/41 208/265/208 207/266/207
f 223/268/223 222/267/222 266/430/266
f 266/430/266 222/267/222 265/429/265
f 257/333/257 123/334/123 117/335/117
f 24/270/24 226/271/226 74/272/74
f 24/270/24 227/273/227 226/271/226
f 25/274/25 232/275/232 233/276/233
f 232/275/232 25/274/25 165/277/165
f 20/278/20 28/279/28 248/280/248
f 250/281/250 26/282/26 137/283/137
f 137/283/137 109/284/109 249/285/249
f 249/285/249 250/281/250 137/283/137
f 166/286/166 253/287/253 251/288/251
f 250/132/250 75/52/75 26/47/26
f 39/46/39 248/131/248 28/49/28
f 145/354/145 252/353/252 155/355/155
f 252/387/252 145/384/145 166/385/166
f 251/386/251 252/387/252 166/385/166
f 232/377/232 165/378/165 144/379/144
f 212/129/212 128/14/128 122/13/122
f 266/433/266 265/432/265 263/434/263
