# fff06058_00002_00049f8a
o fff06058_00002_00049f8a
v -7.738758 0.756822 -0.024445
v -7.738758 -0.756850 -0.024353
v 3.454021 0.946665 0.024445
v 3.454021 -0.947339 0.024445
v 3.454021 0.756211 0.024445
v -7.738758 0.756822 0.024353
v 3.454021 0.756211 -0.024353
v 3.454021 -0.756850 0.024445
v 3.454021 -0.756850 -0.024353
v -7.738758 -0.756850 0.024445
v -7.738758 0.947340 0.024353
v -7.738758 -0.947339 0.024445
v -7.310314 0.756795 -0.024441
v -7.310314 -0.756850 -0.024353
v 3.454021 0.946634 -0.295044
v 3.454021 -0.947370 -0.295044
v -7.738758 0.947309 -0.295135
v -7.738758 -0.947369 -0.295044
v 9.952579 0.946664 2.543152
v 9.952579 -0.947340 2.543152
v 9.952579 0.756211 2.543152
v 9.952579 0.756211 2.494354
v 9.952579 -0.756851 2.543152
v 9.952579 -0.756851 2.494354
v 9.952579 0.946634 2.223663
v 9.952579 -0.947370 2.223663
v 15.617702 0.946664 2.543152
v 15.617702 -0.947340 2.543152
v 15.617702 0.756210 2.543152
v 15.617702 0.756210 2.494354
v 15.617702 -0.756851 2.543152
v 15.617702 -0.756851 2.494354
v 15.617702 0.946633 2.223663
v 15.617702 -0.947371 2.223663
v 9.962967 -0.756851 2.543152
v 9.962967 -0.947340 2.543152
v 9.960369 0.756211 2.543152
v 9.963624 0.946664 2.543152
v 9.958797 0.756211 2.494354
v 9.964921 -0.756851 2.494498
v -0.527282 -0.947370 -0.295044
v -0.527269 -0.947339 0.024445
v -0.455192 -0.756850 0.024445
v -0.455193 -0.756850 -0.024353
v 0.117404 0.756442 -0.024388
v 0.117406 0.756448 0.024409
v 0.189478 0.946923 0.024410
v 0.189466 0.946892 -0.295079
v 0.241551 -0.947370 -0.295044
v 0.241563 -0.947339 0.024445
v 0.315365 -0.756850 0.024445
v 0.315365 -0.756850 -0.024353
v 0.901661 0.756428 -0.024385
v 0.901663 0.756433 0.024411
v 0.975459 0.946906 0.024412
v 0.975448 0.946876 -0.295077
v 7.983831 -0.947370 1.464123
v 7.983841 -0.947340 1.783616
v 8.044729 -0.756851 1.807214
v 8.044729 -0.756851 1.758417
v 8.528356 0.756211 1.945860
v 8.528356 0.756211 1.994658
v 8.589231 0.946664 2.018252
v 8.589222 0.946634 1.698760
v 8.678013 -0.947370 1.733174
v 8.678023 -0.947340 2.052666
v 8.740904 -0.756851 2.077037
v 8.740904 -0.756851 2.028239
v 9.240360 0.756211 2.221819
v 9.240360 0.756211 2.270616
v 9.303228 0.946664 2.294982
v 9.303219 0.946634 1.975490
v -7.958042 -0.640271 -0.247009
v -7.958042 -0.640301 -0.651978
v 3.529542 -0.640302 -0.651978
v 3.426817 -0.640271 -0.247009
v 9.852578 -0.640303 1.802246
v 9.749853 -0.640272 2.207214
v 3.454021 -0.363080 -0.295044
v 9.952579 -0.363081 2.223663
v 7.983831 -0.363081 1.464123
v 8.678013 -0.363081 1.733174
v 3.447986 -0.756850 -0.024353
v 3.444399 -0.756850 0.024445
v 3.443217 -0.947339 0.024445
v 3.448801 0.756211 -0.024353
v 3.447499 0.756211 0.024445
v 3.449363 0.946665 0.024445
v 15.617702 -0.586144 2.494354
v 9.964230 -0.586144 2.494482
v 9.952579 -0.586144 2.494354
v 8.797254 -0.586144 2.050079
v 8.099294 -0.586144 1.779564
v 3.454021 -0.586143 -0.024353
v 3.448077 -0.586143 -0.024353
v 0.381502 -0.586143 -0.024357
v -0.390601 -0.586143 -0.024357
v -7.310314 -0.586142 -0.024363
v 3.454021 -0.586143 -0.295044
v 7.983831 -0.586144 1.464123
v 8.678013 -0.586144 1.733174
v 9.952579 -0.586144 2.223663
v 15.617702 0.589838 2.494354
v 9.959471 0.589839 2.494370
v 9.952579 0.589839 2.494354
v 9.185441 0.589839 2.200533
v 8.475178 0.589839 1.925250
v 3.454021 0.589839 -0.024353
v 3.448711 0.589839 -0.024353
v 0.837119 0.589840 -0.024382
v 0.054366 0.589840 -0.024384
v -7.310314 0.589840 -0.024431
v -7.703327 -1.113145 0.006551
v -8.491947 -1.113145 0.006551
v -7.703327 1.116875 0.006483
v -8.491947 1.116875 0.006480
v -8.548725 0.756853 -0.024445
v -8.548725 -0.756819 -0.024353
v -8.548725 0.756853 0.024353
v -8.548725 -0.756819 0.024445
v -8.548725 0.947370 0.024353
v -8.548725 -0.947308 0.024445
v -8.548725 0.947340 -0.295135
v -8.548725 -0.947339 -0.295044
v -7.619835 -0.586142 -0.024363
v -7.619835 0.589840 -0.024433
v -7.703327 -1.113145 -0.411814
v -8.491947 -1.113145 -0.411815
v -7.703327 1.116875 -0.411882
v -8.491947 1.116875 -0.411886
vt 0.000000 0.000000
vt 1.201727 1.211471
vt 1.201727 1.211494
vt 1.201727 1.223671
vt 1.267694 1.616662
vt 1.247994 1.223693
vt 1.247994 1.211494
vt 1.201727 1.223694
vt 0.000000 0.000000
vt 0.000000 0.000000
vt 1.874401 1.323249
vt 1.717170 1.323249
vt 1.874401 1.322789
vt 1.695352 1.306358
vt 1.615266 1.306335
vt 1.615266 1.306335
vt 1.695352 1.306358
vt 1.670838 1.306358
vt 1.670838 1.306358
vt 1.615266 1.306358
vt 1.615266 1.306358
vt 1.267694 1.628861
vt 1.204622 1.211472
vt 1.204661 1.211494
vt 0.885422 1.944778
vt 0.767611 1.794547
vt 0.767611 1.815468
vt 0.843637 1.794553
vt 0.767611 1.815474
vt 0.767611 1.794553
vt 0.844179 1.815474
vt 0.844179 1.794553
vt 1.695424 1.306358
vt 1.695424 1.306358
vt 0.878031 1.921600
vt 0.878031 1.900679
vt 1.695424 1.306358
vt 1.695424 1.306358
vt 0.878031 1.921600
vt 0.878031 1.900679
vt 1.267753 1.628862
vt 1.267753 1.616662
vt 0.000000 0.000000
vt 1.267753 1.628862
vt 1.267753 1.616662
vt 1.695465 1.306358
vt 1.695465 1.306358
vt 0.878095 1.814832
vt 0.878095 1.793911
vt 1.695465 1.306358
vt 1.695465 1.306358
vt 0.878095 1.814832
vt 0.878095 1.793911
vt 1.267792 1.221241
vt 1.267792 1.209041
vt 0.000000 0.000000
vt 1.267792 1.233479
vt 1.267792 1.209041
vt 1.694529 1.306358
vt 1.266903 10.601904
vt 0.878093 1.819256
vt 1.694529 1.306358
vt 1.694213 1.306358
vt 1.267791 1.226143
vt 1.694582 1.306358
vt 0.876699 4.121270
vt 0.000000 0.000000
vt 1.266313 16.843122
vt 0.000000 0.000000
vt 1.267044 9.084601
vt 1.070361 1.232423
vt 1.070315 1.244090
vt 1.270589 1.244090
vt 1.270589 1.232388
vt 0.830609 1.794553
vt 0.830609 1.815474
vt 1.660996 1.306358
vt 1.661374 1.306358
vt 1.239709 1.223694
vt 1.240372 1.211494
vt 0.000000 0.000000
vt 0.000000 0.000000
vt 1.242773 1.211486
vt 1.242184 1.223685
vt 1.664378 1.306349
vt 1.664756 1.306349
vt 0.835790 1.815472
vt 0.835790 1.794551
vt 0.833186 1.794553
vt 0.833186 1.815474
vt 1.662866 1.306358
vt 1.663254 1.306358
vt 1.241257 1.223694
vt 1.241884 1.211494
vt 0.000000 0.000000
vt 0.000000 0.000000
vt 1.244343 1.211486
vt 1.243791 1.223686
vt 1.666330 1.306349
vt 1.666717 1.306350
vt 0.838491 1.815472
vt 0.838491 1.794551
vt 0.896875 1.960250
vt 0.896874 1.981171
vt 1.700577 1.306358
vt 1.709333 1.306358
vt 1.272645 1.730643
vt 1.278531 1.839566
vt 0.000000 0.000000
vt 0.000000 0.000000
vt 1.267741 1.617538
vt 1.267740 1.629733
vt 1.695409 1.306358
vt 1.695409 1.306358
vt 0.858100 1.860217
vt 0.910297 2.000821
vt 0.886414 1.927328
vt 0.878012 1.921830
vt 1.695410 1.306358
vt 1.700585 1.306358
vt 1.267742 1.629738
vt 1.272651 1.718444
vt 0.000000 0.000000
vt 0.000000 0.000000
vt 1.267745 1.617529
vt 1.267747 1.629738
vt 1.695417 1.306358
vt 1.695417 1.306358
vt 0.878021 1.921830
vt 0.858111 1.839296
vt 0.767611 1.815474
vt 0.767611 1.794553
vt 0.813686 1.815474
vt 0.813797 1.794553
vt 0.836620 1.898229
vt 0.836625 1.919150
vt 1.184473 1.252869
vt 1.184473 1.252869
vt 1.129105 1.210263
vt 1.129105 1.210263
vt 1.192956 1.259398
vt 1.192956 1.259398
vt 1.208516 1.271372
vt 1.208516 1.271372
vt 0.000000 0.000000
vt 1.247966 1.211494
vt 1.670782 1.306358
vt 1.234471 1.223703
vt 0.844091 1.815474
vt 1.671021 1.306358
vt 0.000000 0.000000
vt 1.247672 1.211494
vt 1.247665 1.223694
vt 1.670459 1.306350
vt -0.932710 -3.682641
vt 1.629730 1.259957
vt 0.000000 0.000000
vt 1.267792 1.209318
vt 1.267792 1.230997
vt 0.000000 0.000000
vt 0.000000 0.000000
vt 0.000000 0.000000
vt 0.000000 0.000000
vt 0.000000 0.000000
vt 0.000000 0.000000
vt 0.000000 0.000000
vt 0.000000 0.000000
vt 0.000000 0.000000
vt 1.874401 1.323197
vt 1.717170 1.323194
vt 1.129105 1.210263
vt 1.184473 1.252869
vt 1.192956 1.259398
vt 1.208516 1.271372
vt 0.000000 0.000000
vt 0.000000 0.000000
vt 1.267792 1.223422
vt 0.000000 0.000000
vt 0.000000 0.000000
vt 0.000000 0.000000
vt 0.000000 0.000000
vt 0.000000 0.000000
vt 0.000000 0.000000
vt 0.000000 0.000000
vt 0.000000 0.000000
vt 0.000000 0.000000
vt 1.874401 1.322839
vt 1.717170 1.322821
vt 0.712988 0.326330
vt 1.201653 1.211471
vt 1.201653 1.223671
vt 1.201652 1.211494
vt 1.201652 1.223694
vt 1.615211 1.306335
vt 1.615211 1.306335
vt 1.615211 1.306358
vt 1.615211 1.306358
vt 0.767535 1.815468
vt 0.767535 1.794547
vt 0.767535 1.815474
vt 0.767535 1.794553
vt 1.757555 1.323195
vt 1.764071 1.322826
vt 0.197102 1.218633
vt 0.354332 1.218643
vt 0.870218 0.326218
vt 1.679159 0.821030
vt 1.679159 0.882042
vt 1.679159 0.882052
vt 1.679159 0.821040
vn -0.000049 -0.894428 0.447212
vn 0.000017 0.894433 0.447203
vn -0.121552 0.751025 0.648989
vn -0.121605 -0.750964 0.649050
vn -0.121595 -0.750995 0.649015
vn -0.000038 -0.707105 0.707109
vn -0.137050 -0.667911 0.731514
vn -0.121596 0.751000 0.649010
vn -0.137053 0.667912 0.731512
vn 0.000013 0.707102 0.707112
vn 0.000029 0.707143 0.707070
vn -0.000013 -0.707077 0.707136
vn -0.000040 -0.707040 0.707173
vn -0.000000 0.707127 0.707086
vn 0.000071 1.000000 -0.000095
vn 0.178510 -0.869995 -0.459612
vn 0.000045 1.000000 -0.000096
vn -0.000019 -1.000000 0.000096
vn -0.134999 0.668475 0.731380
vn -0.135889 -0.668182 0.731483
vn -0.135029 -0.668444 0.731403
vn -0.120115 -0.750387 0.649994
vn -0.135881 0.668214 0.731455
vn -0.124703 0.749153 0.650552
vn 0.000020 1.000000 -0.000095
vn 0.146730 -0.912754 -0.381248
vn 0.000000 0.707141 0.707073
vn -0.000000 -0.707073 0.707141
vn -0.000000 -0.707107 0.707107
vn 0.000002 -0.707107 0.707107
vn 0.000000 0.707107 0.707107
vn 0.000016 0.707101 0.707112
vn 0.000000 1.000000 -0.000096
vn -0.000000 -1.000000 0.000096
vn 0.000000 0.707107 0.707107
vn -0.000000 -0.707073 0.707141
vn -0.000000 -0.707107 0.707107
vn 0.000000 0.707141 0.707072
vn -0.000022 -0.707089 0.707124
vn -0.004104 0.708453 0.705747
vn -0.000000 -1.000000 0.000096
vn -0.000000 -0.707073 0.707140
vn 0.000000 0.707107 0.707107
vn -0.000000 0.707114 0.707099
vn -0.000026 -0.707055 0.707158
vn -0.000027 -0.707070 0.707144
vn 0.000023 0.707136 0.707077
vn 0.000037 1.000000 -0.000095
vn -0.000000 -1.000000 0.000096
vn -0.000000 -0.707073 0.707141
vn 0.000000 0.707106 0.707107
vn -0.000000 0.707114 0.707100
vn -0.000044 -0.707068 0.707146
vn -0.000042 -0.707063 0.707151
vn 0.000035 0.707151 0.707063
vn 0.000059 1.000000 -0.000095
vn 0.255719 -0.707219 -0.659128
vn -0.255865 -0.706944 0.659365
vn -0.255728 0.707065 0.659290
vn -0.255755 0.707229 0.659102
vn -0.255681 -0.707146 0.659221
vn -0.255815 -0.706996 0.659330
vn -0.255693 0.707105 0.659260
vn 0.000037 1.000000 -0.000096
vn 0.254639 -0.707412 -0.659338
vn -0.254962 -0.706910 0.659752
vn -0.254698 0.706633 0.660151
vn -0.254830 0.707267 0.659420
vn -0.253657 -0.707858 0.659238
vn -0.254529 -0.706834 0.660000
vn -0.254072 0.706333 0.660712
vn 0.000037 1.000000 -0.000095
vn -0.000000 -1.000000 0.000075
vn -0.000000 -1.000000 0.000075
vn -0.000014 -1.000000 0.000072
vn -0.000013 -1.000000 0.000072
vn -0.000027 -1.000000 0.000069
vn -0.000027 -1.000000 0.000069
vn 0.362013 0.000000 -0.932173
vn 0.359152 0.000000 -0.933279
vn 0.361699 0.000000 -0.932295
vn 0.360269 0.000000 -0.932848
vn 0.000000 0.707107 0.707106
vn 0.000000 0.707107 0.707107
vn -0.000000 -0.707073 0.707141
vn -0.000052 -0.707103 0.707111
vn -0.000053 -0.707110 0.707103
vn 0.000046 0.707134 0.707079
vn 0.000014 0.000006 1.000000
vn -0.005491 0.000060 0.999985
vn -0.187791 -0.000133 0.982209
vn -0.360186 -0.000435 0.932880
vn -0.361679 0.000100 0.932303
vn -0.184150 0.000001 0.982898
vn -0.000001 0.000000 1.000000
vn -0.000002 0.000021 1.000000
vn -0.000001 0.000023 1.000000
vn -0.000002 0.000057 1.000000
vn 0.362013 0.000000 -0.932173
vn 0.361699 0.000000 -0.932295
vn 0.360269 0.000000 -0.932848
vn 0.359152 0.000000 -0.933279
vn 0.000003 0.000000 1.000000
vn -0.001168 0.000066 0.999999
vn -0.182930 -0.000027 0.983126
vn -0.359718 -0.000417 0.933061
vn -0.361667 0.000102 0.932307
vn -0.184137 0.000008 0.982901
vn -0.000007 0.000002 1.000000
vn -0.000007 0.000024 1.000000
vn -0.000004 0.000025 1.000000
vn -0.000007 0.000058 1.000000
vn 0.577349 -0.577342 0.577360
vn -0.000001 -0.707096 0.707117
vn 0.577351 0.577358 0.577342
vn -0.000003 0.707119 0.707094
vn -0.000038 -1.000000 0.000000
vn 0.000038 1.000000 0.000000
vn -0.000027 -0.707098 0.707116
vn 0.000027 0.707115 0.707098
vn 0.000027 0.707149 0.707064
vn -0.000027 -0.707065 0.707149
vn 0.000038 1.000000 -0.000096
vn -0.000038 -1.000000 0.000096
vn -0.000001 0.000060 1.000000
vn -0.000009 0.000060 1.000000
vn 0.707114 -0.707100 0.000000
vn 0.000000 -1.000000 0.000000
vn 0.707099 0.707115 0.000000
vn 0.000000 1.000000 0.000000
g fff06058_00002_00049f8a_e6
f 112/186/112 45/82/45 13/9/13
f 9/1/9 94/164/94 83/145/83
f 94/164/94 9/1/9 60/109/60
f 105/179/105 22/43/22 69/124/69
f 90/160/90 24/43/24 40/69/40
f 105/179/105 39/67/39 22/43/22
f 97/167/97 111/185/111 98/168/98
f 111/185/111 45/82/45 112/186/112
f 111/185/111 53/96/53 45/82/45
f 14/10/14 44/81/44 97/167/97
f 52/95/52 83/145/83 95/165/95
f 44/81/44 52/95/52 96/166/96
f 7/1/7 107/181/107 61/110/61
f 68/123/68 93/163/93 60/109/60
f 69/124/69 61/110/61 106/180/106
f 24/43/24 92/162/92 68/123/68
f 109/183/109 7/1/7 86/151/86
f 110/184/110 86/151/86 53/96/53
f 14/10/14 97/167/97 98/168/98
f 89/157/89 103/175/103 104/176/104
f 90/159/90 32/58/32 89/158/89
f 40/57/40 32/58/32 90/159/90
f 91/161/91 24/43/24 90/160/90
f 90/160/90 104/178/104 91/161/91
f 92/162/92 91/161/91 106/180/106
f 24/43/24 91/161/91 92/162/92
f 92/162/92 107/181/107 93/163/93
f 68/123/68 92/162/92 93/163/93
f 108/182/108 94/164/94 93/163/93
f 93/163/93 94/164/94 60/109/60
f 94/164/94 95/165/95 83/145/83
f 94/164/94 108/182/108 95/165/95
f 52/95/52 95/165/95 96/166/96
f 95/165/95 109/183/109 96/166/96
f 44/81/44 96/166/96 97/167/97
f 96/166/96 110/184/110 97/167/97
f 103/175/103 30/56/30 104/176/104
f 104/176/104 30/56/30 39/67/39
f 111/185/111 112/186/112 98/168/98
f 90/159/90 89/158/89 104/177/104
f 104/178/104 105/179/105 91/161/91
f 104/178/104 39/67/39 105/179/105
f 106/180/106 105/179/105 69/124/69
f 106/180/106 91/161/91 105/179/105
f 106/180/106 61/110/61 107/181/107
f 92/162/92 106/180/106 107/181/107
f 7/1/7 108/182/108 107/181/107
f 107/181/107 108/182/108 93/163/93
f 108/182/108 109/183/109 95/165/95
f 108/182/108 7/1/7 109/183/109
f 109/183/109 110/184/110 96/166/96
f 109/183/109 86/151/86 110/184/110
f 110/184/110 111/185/111 97/167/97
f 110/184/110 53/96/53 111/185/111
g fff06058_00002_00049f8a_e5
f 14/24/14 10/8/10 44/80/44
f 8/6/8 9/7/9 83/146/83
f 45/83/45 6/4/6 13/23/13
f 87/153/87 53/97/53 86/152/86
f 10/21/10 12/20/12 43/78/43
f 4/18/4 8/19/8 84/147/84
f 46/85/46 11/16/11 6/15/6
f 55/100/55 54/99/54 87/154/87
f 2/3/2 10/8/10 14/24/14
f 13/23/13 6/4/6 1/2/1
f 98/169/98 2/12/2 14/11/14
f 2/170/2 126/203/126 1/188/1
f 47/87/47 17/26/17 11/27/11
f 56/102/56 55/101/55 15/28/15
f 12/29/12 18/30/18 42/76/42
f 16/32/16 4/31/4 85/149/85
f 62/113/62 3/14/3 5/17/5
f 71/128/71 21/34/21 19/33/19
f 64/116/64 15/28/15 3/25/3
f 71/129/71 19/35/19 25/36/25
f 8/19/8 4/18/4 59/106/59
f 20/37/20 23/38/23 66/119/66
f 4/31/4 16/32/16 57/103/57
f 26/40/26 20/39/20 66/118/66
f 61/111/61 5/22/5 7/5/7
f 70/126/70 22/42/22 21/41/21
f 9/7/9 8/6/8 60/108/60
f 23/44/23 24/45/24 67/121/67
f 37/63/37 19/33/19 21/34/21
f 19/33/19 37/63/37 38/65/38
f 33/49/33 25/36/25 19/35/19
f 19/35/19 38/66/38 33/49/33
f 23/38/23 20/37/20 35/59/35
f 28/50/28 31/51/31 35/59/35
f 36/61/36 26/40/26 34/53/34
f 26/40/26 36/61/36 20/39/20
f 30/55/30 29/54/29 37/64/37
f 21/41/21 22/42/22 37/64/37
f 24/45/24 23/44/23 35/60/35
f 40/71/40 35/72/35 31/73/31
f 35/59/35 20/37/20 36/62/36
f 24/45/24 35/60/35 40/70/40
f 34/53/34 28/52/28 36/61/36
f 35/59/35 36/62/36 28/50/28
f 29/47/29 27/46/27 37/63/37
f 37/64/37 22/42/22 39/68/39
f 38/65/38 37/63/37 27/46/27
f 38/66/38 27/48/27 33/49/33
f 37/64/37 39/68/39 30/55/30
f 32/74/32 40/71/40 31/73/31
f 41/75/41 50/90/50 42/76/42
f 42/76/42 18/30/18 41/75/41
f 42/77/42 51/92/51 43/78/43
f 43/78/43 12/20/12 42/77/42
f 43/79/43 52/94/52 44/80/44
f 44/80/44 10/8/10 43/79/43
f 46/84/46 6/4/6 45/83/45
f 45/83/45 53/97/53 46/84/46
f 47/86/47 11/16/11 46/85/46
f 46/85/46 54/99/54 47/86/47
f 48/88/48 17/26/17 47/87/47
f 47/87/47 55/101/55 48/88/48
f 49/89/49 16/32/16 85/149/85
f 41/75/41 49/89/49 50/90/50
f 85/150/85 4/18/4 84/147/84
f 42/77/42 50/91/50 51/92/51
f 84/148/84 8/6/8 83/146/83
f 43/79/43 51/93/51 52/94/52
f 53/97/53 54/98/54 46/84/46
f 86/152/86 7/5/7 5/22/5
f 54/99/54 55/100/55 47/86/47
f 87/154/87 5/17/5 3/14/3
f 55/101/55 56/102/56 48/88/48
f 88/155/88 3/25/3 15/28/15
f 4/31/4 57/103/57 58/104/58
f 65/117/65 58/104/58 57/103/57
f 58/105/58 67/120/67 59/106/59
f 59/106/59 4/18/4 58/105/58
f 59/107/59 68/122/68 60/108/60
f 60/108/60 8/6/8 59/107/59
f 62/112/62 5/22/5 61/111/61
f 61/111/61 69/125/69 62/112/62
f 63/114/63 3/14/3 62/113/62
f 62/113/62 70/127/70 63/114/63
f 64/116/64 63/115/63 72/130/72
f 63/115/63 64/116/64 3/25/3
f 66/118/66 58/104/58 65/117/65
f 26/40/26 66/118/66 65/117/65
f 66/119/66 23/38/23 67/120/67
f 58/105/58 66/119/66 67/120/67
f 67/121/67 24/45/24 68/122/68
f 59/107/59 67/121/67 68/122/68
f 69/125/69 70/126/70 62/112/62
f 69/125/69 22/42/22 70/126/70
f 70/127/70 71/128/71 63/114/63
f 70/127/70 21/34/21 71/128/71
f 72/130/72 71/129/71 25/36/25
f 72/130/72 63/115/63 71/129/71
f 73/131/73 74/132/74 76/133/76
f 76/133/76 74/132/74 75/134/75
f 75/134/75 78/136/78 76/133/76
f 78/136/78 75/134/75 77/135/77
f 100/172/100 57/138/57 16/139/16
f 99/171/99 79/140/79 81/137/81
f 65/141/65 101/173/101 26/143/26
f 80/144/80 102/174/102 82/142/82
f 57/138/57 101/173/101 65/141/65
f 82/142/82 100/172/100 81/137/81
f 51/93/51 83/146/83 52/94/52
f 50/91/50 84/147/84 51/92/51
f 51/93/51 84/148/84 83/146/83
f 49/89/49 85/149/85 50/90/50
f 50/91/50 85/150/85 84/147/84
f 87/153/87 86/152/86 5/22/5
f 54/98/54 53/97/53 87/153/87
f 88/156/88 87/154/87 3/14/3
f 55/101/55 88/155/88 15/28/15
f 55/100/55 87/154/87 88/156/88
f 125/202/125 2/12/2 98/169/98
f 125/202/125 98/169/98 112/187/112
f 100/172/100 99/171/99 81/137/81
f 99/171/99 100/172/100 16/139/16
f 82/142/82 101/173/101 100/172/100
f 57/138/57 100/172/100 101/173/101
f 101/173/101 102/174/102 26/143/26
f 102/174/102 101/173/101 82/142/82
f 2/170/2 125/202/125 126/203/126
f 126/203/126 112/187/112 13/13/13
f 114/189/114 113/206/113 115/206/115
f 114/189/114 115/206/115 116/189/116
f 119/191/119 1/2/1 6/4/6
f 1/2/1 119/191/119 117/190/117
f 10/8/10 2/3/2 120/193/120
f 118/192/118 120/193/120 2/3/2
f 121/195/121 6/15/6 11/16/11
f 6/15/6 121/195/121 119/194/119
f 12/20/12 10/21/10 122/197/122
f 120/196/120 122/197/122 10/21/10
f 123/199/123 11/27/11 17/26/17
f 11/27/11 123/199/123 121/198/121
f 18/30/18 12/29/12 124/201/124
f 122/200/122 124/201/124 12/29/12
f 1/188/1 126/203/126 13/13/13
f 126/203/126 125/202/125 112/187/112
f 129/207/129 115/208/115 113/209/113
f 113/209/113 127/210/127 129/207/129
f 113/205/113 114/204/114 128/204/128
f 128/204/128 127/205/127 113/205/113
f 130/204/130 116/204/116 115/205/115
f 115/205/115 129/205/129 130/204/130
