# fff0078e_00235_002d39db
o fff0078e_00235_002d39db
v -0.522369 9.299903 0.181279
v -0.796570 9.605292 0.181279
v -0.774567 10.015304 0.181279
v -0.469116 10.289435 0.181279
v -0.059204 10.267440 0.181279
v 0.215088 9.961905 0.181279
v 0.192993 9.552032 0.181279
v -0.290832 9.783652 0.316800
v -0.774567 10.015304 -0.473098
v -0.469116 10.289435 -0.473098
v -0.059204 10.267440 -0.473098
v 0.215088 9.961905 -0.473098
v 0.192993 9.552032 -0.473098
v -0.038544 9.068290 -0.145911
v -0.618286 9.099509 -0.145911
v -1.006134 9.531554 -0.145911
v -0.974975 10.111205 -0.145911
v -0.542938 10.499091 -0.145911
v 0.036682 10.467826 -0.145911
v 0.424560 10.035895 -0.145911
v 0.393372 9.456130 -0.145911
v -0.112457 9.277816 0.181279
v -0.112457 9.277816 -0.473098
v -0.354614 9.257308 -0.476703
v -0.742462 9.689353 -0.476703
v 1.472839 0.871673 0.038952
v 1.321808 1.092102 0.038952
v 1.370849 1.354904 0.038952
v 1.591339 1.505897 0.038952
v 1.854065 1.456863 0.038952
v 2.005157 1.236336 0.038952
v 1.956054 0.973625 0.038952
v 1.663452 1.164261 0.127190
v 1.370849 1.354904 -0.387100
v 1.591339 1.505897 -0.387100
v 1.854065 1.456863 -0.387100
v 2.005157 1.236336 -0.387100
v 1.956054 0.973625 -0.387100
v 1.765503 0.681045 -0.174076
v 1.393921 0.750465 -0.174076
v 1.180267 1.062309 -0.174076
v 1.249634 1.433838 -0.174076
v 1.561493 1.647514 -0.174076
v 1.932983 1.578071 -0.174076
v 2.146667 1.266281 -0.174076
v 2.077240 0.894691 -0.174076
v 1.735595 0.822586 0.038952
v 1.735595 0.822586 -0.387100
v 1.577514 0.829918 -0.389446
v 1.363891 1.141769 -0.389446
v -1.044098 -2.170456 -0.041504
v -1.143005 -1.975662 -0.041504
v -1.075226 -1.767875 -0.041504
v -0.880401 -1.669014 -0.041504
v -0.672668 -1.736793 -0.041504
v -0.573730 -1.931679 -0.041504
v -0.641540 -2.139381 -0.041504
v -0.858398 -1.953628 0.030636
v -1.075226 -1.767875 -0.389828
v -0.880401 -1.669014 -0.389828
v -0.672668 -1.736793 -0.389828
v -0.573730 -1.931679 -0.389828
v -0.641540 -2.139381 -0.389828
v -0.827240 -2.356201 -0.215664
v -1.121002 -2.260277 -0.215664
v -1.260895 -1.984703 -0.215664
v -1.165039 -1.690964 -0.215664
v -0.889465 -1.551040 -0.215664
v -0.595734 -1.646972 -0.215664
v -0.455841 -1.922500 -0.215664
v -0.551758 -2.216301 -0.215664
v -0.836395 -2.238289 -0.041504
v -0.836395 -2.238289 -0.389828
v -0.963714 -2.215469 -0.391743
v -1.103607 -1.939895 -0.391743
v -0.086639 7.738608 -0.267174
v -0.209717 7.826621 -0.267174
v -0.234467 7.975951 -0.267174
v -0.146423 8.098975 -0.267174
v 0.002869 8.123763 -0.267174
v 0.125916 8.035689 -0.267174
v 0.150696 7.886428 -0.267174
v -0.041901 7.931190 -0.217220
v -0.234467 7.975951 -0.508381
v -0.146423 8.098975 -0.508381
v 0.002869 8.123763 -0.508381
v 0.125916 8.035689 -0.508381
v 0.150696 7.886428 -0.508381
v 0.105957 7.693870 -0.387779
v -0.105194 7.658835 -0.387779
v -0.279236 7.783370 -0.387779
v -0.314239 7.994475 -0.387779
v -0.189728 8.168525 -0.387779
v 0.021332 8.203506 -0.387779
v 0.195404 8.079024 -0.387779
v 0.230408 7.867888 -0.387779
v 0.062653 7.763381 -0.267174
v 0.062653 7.763381 -0.508381
v -0.022858 7.736678 -0.509712
v -0.196899 7.861220 -0.509712
v -0.191311 1.481440 -0.124694
v -0.261735 1.681207 -0.124694
v -0.170266 1.872366 -0.124694
v 0.029523 1.942747 -0.124694
v 0.220639 1.851300 -0.124694
v 0.291063 1.651445 -0.124694
v 0.199594 1.460374 -0.124694
v 0.014642 1.666370 -0.054750
v -0.170266 1.872366 -0.462418
v 0.029523 1.942747 -0.462418
v 0.220639 1.851300 -0.462418
v 0.291063 1.651445 -0.462418
v 0.199594 1.460374 -0.462418
v -0.006360 1.275444 -0.293556
v -0.276616 1.404830 -0.293556
v -0.376219 1.687436 -0.293556
v -0.246876 1.957672 -0.293556
v 0.035731 2.057296 -0.293556
v 0.305923 1.927910 -0.293556
v 0.405568 1.645346 -0.293556
v 0.276182 1.375068 -0.293556
v -0.000217 1.389949 -0.124694
v -0.000217 1.389949 -0.462418
v -0.119729 1.427998 -0.464278
v -0.219331 1.710605 -0.464278
v 1.812472 -0.415723 -0.084182
v 1.751989 -0.244155 -0.084182
v 1.830547 -0.079981 -0.084182
v 2.002133 -0.019534 -0.084182
v 2.166271 -0.098074 -0.084182
v 2.226754 -0.269716 -0.084182
v 2.148196 -0.433816 -0.084182
v 1.989353 -0.256899 -0.024111
v 1.830547 -0.079981 -0.374233
v 2.002133 -0.019534 -0.374233
v 2.166271 -0.098074 -0.374233
v 2.226754 -0.269716 -0.374233
v 2.148196 -0.433816 -0.374233
v 1.971316 -0.592641 -0.229207
v 1.739208 -0.481520 -0.229207
v 1.653666 -0.238806 -0.229207
v 1.764750 -0.006717 -0.229207
v 2.007464 0.078844 -0.229207
v 2.239516 -0.032278 -0.229207
v 2.325095 -0.274954 -0.229207
v 2.213974 -0.507080 -0.229207
v 1.976591 -0.494300 -0.084182
v 1.976591 -0.494300 -0.374233
v 1.873949 -0.461622 -0.375830
v 1.788407 -0.218907 -0.375830
v 0.432037 -1.105682 -0.080559
v 0.384064 -0.878342 -0.080559
v 0.510895 -0.683540 -0.080559
v 0.738251 -0.635597 -0.080559
v 0.933014 -0.762421 -0.080559
v 0.981018 -0.989868 -0.080559
v 0.854187 -1.184578 -0.080559
v 0.682526 -0.934059 -0.003830
v 0.510895 -0.683540 -0.451031
v 0.738251 -0.635597 -0.451031
v 0.933014 -0.762421 -0.451031
v 0.981018 -0.989868 -0.451031
v 0.854187 -1.184578 -0.451031
v 0.603699 -1.356216 -0.265793
v 0.328278 -1.176796 -0.265793
v 0.260437 -0.855179 -0.265793
v 0.439789 -0.579796 -0.265793
v 0.761444 -0.511902 -0.265793
v 1.036774 -0.691315 -0.265793
v 1.104675 -1.012894 -0.265793
v 0.925262 -1.288322 -0.265793
v 0.626770 -1.232551 -0.080559
v 0.626770 -1.232551 -0.451031
v 0.502258 -1.174072 -0.453072
v 0.434357 -0.852447 -0.453072
v 1.366424 -2.264679 0.428543
v 1.325714 -1.738029 0.428543
v 1.669433 -1.336624 0.428543
v 2.196075 -1.296028 0.428543
v 2.597412 -1.639663 0.428543
v 2.638061 -2.166511 0.428543
v 2.294403 -2.567711 0.428543
v 1.981842 -1.952148 0.602962
v 1.669433 -1.336624 -0.413643
v 2.196075 -1.296028 -0.413643
v 2.597412 -1.639663 -0.413643
v 2.638061 -2.166511 -0.413643
v 2.294403 -2.567711 -0.413643
v 1.678955 -2.880241 0.007450
v 1.111481 -2.394150 0.007450
v 1.053955 -1.649132 0.007450
v 1.539947 -1.081695 0.007450
v 2.284973 -1.024132 0.007450
v 2.852295 -1.510170 0.007450
v 2.909912 -2.255104 0.007450
v 2.423828 -2.822632 0.007450
v 1.767669 -2.608391 0.428543
v 1.767669 -2.608391 -0.413643
v 1.504333 -2.439598 -0.418282
v 1.446808 -1.694595 -0.418282
v -0.685608 -0.237785 -0.009174
v -0.828888 0.168594 -0.009174
v -0.642792 0.557465 -0.009174
v -0.236389 0.700638 -0.009174
v 0.152405 0.514610 -0.009174
v 0.295654 0.108055 -0.009174
v 0.109589 -0.280640 -0.009174
v -0.266663 0.138412 0.133110
v -0.642792 0.557465 -0.696198
v -0.236389 0.700638 -0.696198
v 0.152405 0.514610 -0.696198
v 0.295654 0.108055 -0.696198
v 0.109589 -0.280640 -0.696198
v -0.309357 -0.656837 -0.352688
v -0.859131 -0.393631 -0.352688
v -1.061767 0.181267 -0.352688
v -0.798645 0.730995 -0.352688
v -0.223755 0.933662 -0.352688
v 0.325897 0.670456 -0.352688
v 0.528595 0.095642 -0.352688
v 0.265381 -0.454170 -0.352688
v -0.296875 -0.423904 -0.009174
v -0.296875 -0.423904 -0.696198
v -0.540008 -0.346497 -0.699982
v -0.742615 0.228401 -0.699982
v 0.963348 8.356559 -0.058704
v 0.771698 8.520720 -0.058704
v 0.752228 8.772437 -0.058704
v 0.916412 8.964049 -0.058704
v 1.168060 8.983550 -0.058704
v 1.359772 8.819304 -0.058704
v 1.379211 8.567679 -0.058704
v 1.065674 8.670035 0.024620
v 0.752228 8.772437 -0.461052
v 0.916412 8.964049 -0.461052
v 1.168060 8.983550 -0.461052
v 1.359772 8.819304 -0.461052
v 1.379211 8.567679 -0.461052
v 1.276886 8.254203 -0.259876
v 0.920990 8.226714 -0.259876
v 0.649872 8.458961 -0.259876
v 0.622345 8.814811 -0.259876
v 0.854584 9.085929 -0.259876
v 1.210419 9.113387 -0.259876
v 1.481537 8.881217 -0.259876
v 1.509033 8.525283 -0.259876
v 1.214996 8.375998 -0.058704
v 1.214996 8.375998 -0.461052
v 1.069031 8.344054 -0.463268
v 0.797943 8.576308 -0.463268
v 1.997864 7.768790 0.038952
v 1.876892 8.007049 0.038952
v 1.959839 8.261199 0.038952
v 2.198120 8.382125 0.038952
v 2.452209 8.299216 0.038952
v 2.573242 8.060843 0.038952
v 2.490265 7.806800 0.038952
v 2.225036 8.033996 0.127190
v 1.959839 8.261199 -0.387100
v 2.198120 8.382125 -0.387100
v 2.452209 8.299216 -0.387100
v 2.573242 8.060843 -0.387100
v 2.490265 7.806800 -0.387100
v 2.263153 7.541595 -0.174076
v 1.903808 7.658919 -0.174076
v 1.732666 7.995986 -0.174076
v 1.849945 8.355285 -0.174076
v 2.187042 8.526427 -0.174076
v 2.546295 8.409080 -0.174076
v 2.717438 8.072074 -0.174076
v 2.600097 7.712722 -0.174076
v 2.251983 7.685821 0.038952
v 2.251983 7.685821 -0.387100
v 2.096222 7.713729 -0.389446
v 1.925110 8.050803 -0.389446
v 1.538360 10.703895 0.428543
v 1.137176 11.047500 0.428543
v 1.096374 11.574393 0.428543
v 1.440063 11.975486 0.428543
v 1.966827 12.016287 0.428543
v 2.368133 11.672492 0.428543
v 2.408813 11.145789 0.428543
v 1.752533 11.360061 0.602962
v 1.096374 11.574393 -0.413643
v 1.440063 11.975486 -0.413643
v 1.966827 12.016287 -0.413643
v 2.368133 11.672492 -0.413643
v 2.408813 11.145789 -0.413643
v 2.194610 10.489623 0.007450
v 1.449646 10.432075 0.007450
v 0.882172 10.918220 0.007450
v 0.824554 11.663093 0.007450
v 1.310669 12.230619 0.007450
v 2.055511 12.288076 0.007450
v 2.622986 11.802085 0.007450
v 2.680603 11.057075 0.007450
v 2.065124 10.744575 0.428543
v 2.065124 10.744575 -0.413643
v 1.759552 10.677726 -0.418282
v 1.192078 11.163863 -0.418282
v -0.233032 11.683142 -0.058704
v -0.424683 11.847303 -0.058704
v -0.444153 12.099020 -0.058704
v -0.279968 12.290640 -0.058704
v -0.028320 12.310133 -0.058704
v 0.163391 12.145887 -0.058704
v 0.182831 11.894262 -0.058704
v -0.130707 11.996626 0.024620
v -0.444153 12.099020 -0.461052
v -0.279968 12.290640 -0.461052
v -0.028320 12.310133 -0.461052
v 0.163391 12.145887 -0.461052
v 0.182831 11.894262 -0.461052
v 0.080505 11.580786 -0.259876
v -0.275391 11.553289 -0.259876
v -0.546509 11.785543 -0.259876
v -0.574036 12.141394 -0.259876
v -0.341797 12.412512 -0.259876
v 0.014038 12.439970 -0.259876
v 0.285156 12.207792 -0.259876
v 0.312653 11.851873 -0.259876
v 0.018616 11.702581 -0.058704
v 0.018616 11.702581 -0.461052
v -0.127350 11.670637 -0.463268
v -0.398437 11.902891 -0.463268
vt 0.532874 2.031293
vt 0.299754 1.886877
vt 0.032874 1.949563
vt 1.790854 1.346527
vt 1.557734 1.446605
vt 1.290854 1.403165
vt 1.911329 1.683237
vt 1.581753 1.824799
vt 1.204242 1.763353
vt 0.451184 2.531312
vt 0.184195 2.593974
vt -0.048816 2.449582
vt 0.476817 2.887382
vt 0.121775 2.938774
vt -0.226913 2.781760
vt 0.451184 2.531312
vt 0.595515 2.298244
vt 0.532874 2.031293
vt 1.671261 1.000019
vt 1.438193 1.161533
vt 1.171242 1.346527
vt 0.720127 2.745442
vt 0.894774 2.352998
vt 0.790419 1.959684
vt 0.032874 1.949563
vt -0.048816 2.449582
vt -0.448303 2.168030
vt -0.238247 1.665440
vt -0.393956 2.661909
vt -0.111517 2.182647
vt -0.048816 2.449582
vt 0.184195 2.593974
vt 0.451184 2.531312
vt 0.595515 2.298244
vt 0.242023 2.290010
vt -0.111517 2.182647
vt 0.299754 1.886877
vt 0.803311 1.563301
vt 0.532874 2.031293
vt 0.318294 1.445208
vt 0.032874 1.949563
vt -0.196689 1.528256
vt 1.493839 1.640606
vt 1.927311 0.942848
vt 2.098038 1.494749
vt 1.500026 1.045958
vt 0.902013 1.475884
vt 1.239495 0.994232
vt 1.898681 1.513117
vt 1.513847 1.616093
vt 1.449519 1.172433
vt 1.834353 1.069456
vt 1.101259 1.547945
vt 1.208178 1.156269
vn -0.270764 -0.565581 0.778977
vn -0.591344 -0.208568 0.778981
vn -0.565567 0.270801 0.778974
vn -0.208498 0.591271 0.779055
vn 0.270782 0.565566 0.778981
vn 0.591418 0.208411 0.778967
vn 0.565585 -0.270790 0.778965
vn -0.000030 0.000001 1.000000
vn -0.737984 0.326616 -0.590510
vn -0.274972 0.780178 -0.561883
vn 0.357151 0.746244 -0.561750
vn 0.780277 0.274944 -0.561760
vn 0.746197 -0.357260 -0.561743
vn 0.342777 -0.939350 0.011208
vn -0.464624 -0.884698 -0.037861
vn -0.933747 -0.353751 -0.054552
vn -0.901984 0.431770 0.000015
vn -0.332386 0.943144 -0.000011
vn 0.431767 0.901985 -0.000015
vn 0.943080 0.332565 0.000022
vn 0.901987 -0.431763 0.000019
vn 0.208444 -0.591383 0.778985
vn 0.338525 -0.755813 -0.560488
vn -0.227302 -0.764654 -0.603025
vn -0.681318 -0.279635 -0.676469
vn -0.342297 -0.525402 0.778965
vn -0.613508 -0.129605 0.778980
vn -0.525379 0.342318 0.778971
vn -0.129522 0.613422 0.779062
vn 0.342290 0.525385 0.778979
vn 0.613565 0.129439 0.778963
vn 0.525405 -0.342318 0.778953
vn -0.000010 0.000005 1.000000
vn -0.689030 0.420132 -0.590531
vn -0.170743 0.809384 -0.561911
vn 0.451504 0.693238 -0.561752
vn 0.809490 0.170743 -0.561758
vn 0.693194 -0.451603 -0.561727
vn 0.217257 -0.976050 0.011212
vn -0.576114 -0.816492 -0.037868
vn -0.971925 -0.228876 -0.054567
vn -0.837913 0.545803 0.000019
vn -0.206435 0.978460 -0.000007
vn 0.545800 0.837916 -0.000017
vn 0.978427 0.206591 0.000016
vn 0.837904 -0.545817 0.000017
vn 0.129489 -0.613522 0.778989
vn 0.236998 -0.793512 -0.560509
vn -0.325175 -0.728438 -0.603025
vn -0.711962 -0.188347 -0.676487
vn -0.407952 -0.476228 0.778962
vn -0.625197 -0.048444 0.778962
vn -0.476243 0.407954 0.778952
vn -0.048375 0.625079 0.779061
vn 0.407901 0.476203 0.779004
vn 0.625205 0.048251 0.778968
vn 0.476255 -0.407963 0.778940
vn -0.000020 0.000010 1.000000
vn -0.628356 0.506470 -0.590472
vn -0.063678 0.824755 -0.561894
vn 0.538112 0.628362 -0.561780
vn 0.824883 0.063642 -0.561709
vn 0.628379 -0.538193 -0.561684
vn 0.087976 -0.996059 0.011219
vn -0.677769 -0.734300 -0.037857
vn -0.993484 -0.100063 -0.054554
vn -0.759519 0.650485 0.000028
vn -0.076959 0.997034 0.000001
vn 0.650543 0.759469 -0.000018
vn 0.997023 0.077108 0.000009
vn 0.759490 -0.650519 0.000023
vn 0.048247 -0.625187 0.778982
vn 0.131303 -0.817685 -0.560491
vn -0.417503 -0.679770 -0.602996
vn -0.730510 -0.093825 -0.676426
vn -0.141804 -0.610762 0.779013
vn -0.532248 -0.331559 0.778961
vn -0.610753 0.142020 0.778981
vn -0.331533 0.532138 0.779047
vn 0.142095 0.610827 0.778909
vn 0.532251 0.331547 0.778964
vn 0.610880 -0.141949 0.778894
vn -0.000008 0.000018 1.000000
vn -0.791145 0.159144 -0.590561
vn -0.437307 0.702180 -0.561877
vn 0.187267 0.805896 -0.561661
vn 0.702335 0.437257 -0.561723
vn 0.805994 -0.187136 -0.561563
vn 0.538007 -0.842866 0.011213
vn -0.262111 -0.964292 -0.037924
vn -0.835080 -0.547407 -0.054649
vn -0.974046 0.226351 0.000011
vn -0.528667 0.848829 -0.000016
vn 0.226230 0.974074 0.000007
vn 0.848751 0.528792 0.000013
vn 0.974053 -0.226319 -0.000005
vn 0.331566 -0.532216 0.778980
vn 0.494117 -0.664609 -0.560485
vn -0.056345 -0.795676 -0.603096
vn -0.604512 -0.420419 -0.676619
vn -0.466601 -0.418905 0.778975
vn -0.626150 0.033603 0.778978
vn -0.418890 0.466628 0.778967
vn 0.033638 0.626051 0.779056
vn 0.466640 0.418878 0.778966
vn 0.626138 -0.033755 0.778981
vn 0.418919 -0.466613 0.778960
vn -0.000021 0.000011 1.000000
vn -0.556830 0.584170 -0.590496
vn 0.044530 0.826019 -0.561880
vn 0.615556 0.552761 -0.561735
vn 0.826085 -0.044609 -0.561777
vn 0.552728 -0.615600 -0.561719
vn -0.042795 -0.999021 0.011210
vn -0.767814 -0.639553 -0.037865
vn -0.998045 0.030501 -0.054555
vn -0.668092 0.744078 0.000021
vn 0.053840 0.998550 -0.000008
vn 0.744072 0.668099 -0.000005
vn 0.998559 -0.053663 0.000023
vn 0.668088 -0.744082 0.000013
vn -0.033731 -0.626132 0.778987
vn 0.023513 -0.827827 -0.560491
vn -0.502622 -0.619455 -0.603031
vn -0.736469 0.002371 -0.676467
vn -0.466601 -0.418905 0.778975
vn -0.626150 0.033604 0.778978
vn -0.418890 0.466628 0.778967
vn 0.033638 0.626051 0.779056
vn 0.466639 0.418878 0.778967
vn 0.626138 -0.033754 0.778981
vn 0.418919 -0.466614 0.778960
vn -0.000021 0.000012 1.000000
vn -0.556830 0.584170 -0.590496
vn 0.044529 0.826019 -0.561880
vn 0.615556 0.552760 -0.561736
vn 0.826085 -0.044608 -0.561777
vn 0.552729 -0.615600 -0.561718
vn -0.042795 -0.999021 0.011210
vn -0.767814 -0.639553 -0.037866
vn -0.998045 0.030501 -0.054555
vn -0.668092 0.744078 0.000021
vn 0.053840 0.998550 -0.000008
vn 0.744072 0.668099 -0.000005
vn 0.998559 -0.053663 0.000023
vn 0.668088 -0.744082 0.000013
vn -0.033731 -0.626132 0.778987
vn 0.023513 -0.827827 -0.560491
vn -0.502622 -0.619455 -0.603031
vn -0.736469 0.002371 -0.676467
vn -0.517281 -0.354391 0.778991
vn -0.616387 0.115043 0.778995
vn -0.354418 0.517296 0.778969
vn 0.115028 0.616293 0.779071
vn 0.517251 0.354400 0.779007
vn 0.616375 -0.115176 0.778984
vn 0.354428 -0.517313 0.778953
vn -0.000010 0.000011 1.000000
vn -0.475833 0.651866 -0.590469
vn 0.151914 0.813132 -0.561906
vn 0.682390 0.467690 -0.561792
vn 0.813217 -0.151995 -0.561762
vn 0.467656 -0.682474 -0.561718
vn -0.172825 -0.984889 0.011221
vn -0.844728 -0.533856 -0.037850
vn -0.985525 0.160525 -0.054514
vn -0.565270 0.824906 0.000023
vn 0.183753 0.982972 -0.000008
vn 0.824928 0.565238 -0.000018
vn 0.983014 -0.183532 0.000012
vn 0.565246 -0.824923 0.000020
vn -0.115186 -0.616358 0.778996
vn -0.084755 -0.823792 -0.560520
vn -0.579111 -0.548592 -0.603057
vn -0.729887 0.098505 -0.676433
vn -0.559109 -0.283872 0.778982
vn -0.596106 0.194523 0.778985
vn -0.283838 0.559141 0.778972
vn 0.194520 0.596019 0.779053
vn 0.559143 0.283831 0.778973
vn 0.596073 -0.194677 0.778972
vn 0.283881 -0.559130 0.778964
vn -0.000025 0.000018 1.000000
vn -0.386643 0.708397 -0.590492
vn 0.256778 0.786362 -0.561872
vn 0.737649 0.374596 -0.561741
vn 0.786410 -0.256891 -0.561754
vn 0.374556 -0.737678 -0.561729
vn -0.299904 -0.953903 0.011210
vn -0.907179 -0.419039 -0.037855
vn -0.956140 0.287787 -0.054544
vn -0.452736 0.891645 0.000017
vn 0.310450 0.950590 -0.000010
vn 0.891640 0.452746 -0.000009
vn 0.950642 -0.310290 0.000022
vn 0.452745 -0.891640 0.000015
vn -0.194627 -0.596064 0.778992
vn -0.191524 -0.805704 -0.560499
vn -0.645817 -0.468262 -0.603035
vn -0.710755 0.192927 -0.676467
vn -0.466601 -0.418919 0.778968
vn -0.626164 0.033608 0.778966
vn -0.418887 0.466634 0.778965
vn 0.033625 0.626051 0.779057
vn 0.466643 0.418874 0.778966
vn 0.626131 -0.033752 0.778987
vn 0.418926 -0.466615 0.778955
vn -0.000025 0.000012 1.000000
vn -0.556825 0.584175 -0.590496
vn 0.044514 0.826017 -0.561885
vn 0.615552 0.552758 -0.561742
vn 0.826080 -0.044621 -0.561784
vn 0.552749 -0.615591 -0.561708
vn -0.042780 -0.999022 0.011209
vn -0.767806 -0.639563 -0.037865
vn -0.998044 0.030498 -0.054566
vn -0.668096 0.744075 0.000017
vn 0.053833 0.998550 -0.000012
vn 0.744075 0.668095 -0.000008
vn 0.998558 -0.053677 0.000018
vn 0.668090 -0.744080 0.000008
vn -0.033733 -0.626137 0.778983
vn 0.023509 -0.827826 -0.560492
vn -0.502645 -0.619453 -0.603015
vn -0.736474 0.002383 -0.676462
vn -0.194659 -0.596099 0.778957
vn -0.559091 -0.283953 0.778966
vn -0.596052 0.194668 0.778990
vn -0.283900 0.558985 0.779061
vn 0.194668 0.596083 0.778967
vn 0.559134 0.283834 0.778979
vn 0.596105 -0.194658 0.778952
vn -0.000036 -0.000005 1.000000
vn -0.774287 0.227513 -0.590524
vn -0.374472 0.737615 -0.561867
vn 0.256688 0.786503 -0.561715
vn 0.737734 0.374412 -0.561751
vn 0.786489 -0.256763 -0.561701
vn 0.462471 -0.886563 0.011222
vn -0.345168 -0.937777 -0.037858
vn -0.879589 -0.472596 -0.054554
vn -0.950626 0.310338 0.000018
vn -0.452650 0.891688 -0.000012
vn 0.310330 0.950629 -0.000005
vn 0.891613 0.452799 0.000024
vn 0.950618 -0.310364 0.000021
vn 0.283845 -0.559106 0.778995
vn 0.434271 -0.705150 -0.560511
vn -0.125578 -0.787795 -0.603000
vn -0.639022 -0.366154 -0.676448
vn -0.407952 -0.476234 0.778959
vn -0.625175 -0.048401 0.778982
vn -0.476184 0.407949 0.778991
vn -0.048373 0.625073 0.779066
vn 0.407908 0.476215 0.778993
vn 0.625222 0.048229 0.778955
vn 0.476244 -0.407963 0.778947
vn -0.000014 0.000009 1.000000
vn -0.628272 0.506480 -0.590553
vn -0.063690 0.824747 -0.561903
vn 0.538107 0.628383 -0.561761
vn 0.824869 0.063624 -0.561731
vn 0.628336 -0.538227 -0.561699
vn 0.088000 -0.996058 0.011207
vn -0.677743 -0.734322 -0.037888
vn -0.993484 -0.100055 -0.054575
vn -0.759499 0.650508 0.000011
vn -0.076926 0.997037 -0.000018
vn 0.650521 0.759488 -0.000026
vn 0.997022 0.077113 0.000011
vn 0.759489 -0.650520 0.000016
vn 0.048315 -0.625182 0.778982
vn 0.131401 -0.817672 -0.560487
vn -0.417455 -0.679768 -0.603032
vn -0.730425 -0.093793 -0.676522
vn -0.194622 -0.596081 0.778980
vn -0.559068 -0.283976 0.778974
vn -0.596083 0.194663 0.778968
vn -0.283903 0.558989 0.779058
vn 0.194662 0.596073 0.778976
vn 0.559156 0.283828 0.778965
vn 0.596096 -0.194636 0.778965
vn -0.000030 -0.000002 1.000000
vn -0.774319 0.227504 -0.590485
vn -0.374463 0.737610 -0.561880
vn 0.256702 0.786483 -0.561736
vn 0.737722 0.374442 -0.561747
vn 0.786454 -0.256790 -0.561737
vn 0.462440 -0.886580 0.011209
vn -0.345168 -0.937777 -0.037855
vn -0.879588 -0.472598 -0.054550
vn -0.950626 0.310339 0.000018
vn -0.452635 0.891696 -0.000011
vn 0.310358 0.950620 -0.000014
vn 0.891604 0.452816 0.000024
vn 0.950629 -0.310330 0.000019
vn 0.283858 -0.559109 0.778987
vn 0.434289 -0.705160 -0.560484
vn -0.125566 -0.787775 -0.603029
vn -0.639024 -0.366160 -0.676443
vn -0.194653 -0.596090 0.778965
vn -0.559090 -0.283949 0.778968
vn -0.596054 0.194661 0.778991
vn -0.283896 0.559000 0.779052
vn 0.194674 0.596084 0.778965
vn 0.559137 0.283837 0.778975
vn 0.596107 -0.194663 0.778950
vn -0.000036 0.000000 1.000000
vn -0.774290 0.227511 -0.590520
vn -0.374477 0.737622 -0.561854
vn 0.256708 0.786499 -0.561712
vn 0.737735 0.374423 -0.561742
vn 0.786490 -0.256767 -0.561697
vn 0.462480 -0.886559 0.011224
vn -0.345162 -0.937780 -0.037855
vn -0.879593 -0.472589 -0.054554
vn -0.950627 0.310336 0.000016
vn -0.452652 0.891688 -0.000011
vn 0.310338 0.950626 -0.000004
vn 0.891617 0.452790 0.000023
vn 0.950621 -0.310353 0.000023
vn 0.283847 -0.559104 0.778995
vn 0.434271 -0.705150 -0.560511
vn -0.125571 -0.787787 -0.603012
vn -0.639022 -0.366150 -0.676450
g fff0078e_00235_002d39db_e0
f 58/35/58 57/3/57 56/2/56
f 58/35/58 56/2/56 55/1/55
f 58/35/58 55/1/55 54/34/54
f 58/35/58 54/34/54 53/33/53
f 58/35/58 53/33/53 52/32/52
f 58/35/58 52/32/52 51/31/51
f 58/35/58 51/31/51 72/36/72
f 58/35/58 72/36/72 57/3/57
f 57/41/57 71/42/71 70/40/70
f 57/41/57 70/40/70 56/37/56
f 56/37/56 70/40/70 69/38/69
f 56/37/56 69/38/69 55/39/55
f 55/18/55 69/24/69 68/23/68
f 55/18/55 68/23/68 54/17/54
f 54/17/54 68/23/68 67/22/67
f 54/17/54 67/22/67 53/16/53
f 53/12/53 67/15/67 66/14/66
f 53/12/53 66/14/66 52/11/52
f 52/11/52 66/14/66 65/13/65
f 52/11/52 65/13/65 51/10/51
f 51/25/51 65/28/65 64/27/64
f 51/25/51 64/27/64 72/30/72
f 72/30/72 64/27/64 71/29/71
f 72/30/72 71/29/71 57/26/57
f 71/9/71 63/6/63 62/5/62
f 71/9/71 62/5/62 70/8/70
f 70/8/70 62/5/62 61/4/61
f 70/8/70 61/4/61 69/7/69
f 69/24/69 61/21/61 60/20/60
f 69/24/69 60/20/60 68/23/68
f 68/23/68 60/20/60 59/19/59
f 68/23/68 59/19/59 67/22/67
f 64/43/64 73/46/73 63/44/63
f 64/43/64 63/44/63 71/45/71
f 64/43/64 65/47/65 74/48/74
f 74/48/74 73/46/73 64/43/64
f 65/49/65 66/50/66 75/51/75
f 75/51/75 74/52/74 65/49/65
f 66/50/66 67/53/67 59/54/59
f 59/54/59 75/51/75 66/50/66
f 8/35/8 7/3/7 6/2/6
f 8/35/8 6/2/6 5/1/5
f 8/35/8 5/1/5 4/34/4
f 8/35/8 4/34/4 3/33/3
f 8/35/8 3/33/3 2/32/2
f 8/35/8 2/32/2 1/31/1
f 8/35/8 1/31/1 22/36/22
f 8/35/8 22/36/22 7/3/7
f 7/41/7 21/42/21 20/40/20
f 7/41/7 20/40/20 6/37/6
f 6/37/6 20/40/20 19/38/19
f 6/37/6 19/38/19 5/39/5
f 5/18/5 19/24/19 18/23/18
f 5/18/5 18/23/18 4/17/4
f 4/17/4 18/23/18 17/22/17
f 4/17/4 17/22/17 3/16/3
f 3/12/3 17/15/17 16/14/16
f 3/12/3 16/14/16 2/11/2
f 2/11/2 16/14/16 15/13/15
f 2/11/2 15/13/15 1/10/1
f 1/25/1 15/28/15 14/27/14
f 1/25/1 14/27/14 22/30/22
f 22/30/22 14/27/14 21/29/21
f 22/30/22 21/29/21 7/26/7
f 21/9/21 13/6/13 12/5/12
f 21/9/21 12/5/12 20/8/20
f 20/8/20 12/5/12 11/4/11
f 20/8/20 11/4/11 19/7/19
f 19/24/19 11/21/11 10/20/10
f 19/24/19 10/20/10 18/23/18
f 18/23/18 10/20/10 9/19/9
f 18/23/18 9/19/9 17/22/17
f 14/43/14 23/46/23 13/44/13
f 14/43/14 13/44/13 21/45/21
f 14/43/14 15/47/15 24/48/24
f 24/48/24 23/46/23 14/43/14
f 15/49/15 16/50/16 25/51/25
f 25/51/25 24/52/24 15/49/15
f 16/50/16 17/53/17 9/54/9
f 9/54/9 25/51/25 16/50/16
f 34/54/34 50/51/50 41/50/41
f 41/50/41 42/53/42 34/54/34
f 50/51/50 49/52/49 40/49/40
f 40/49/40 41/50/41 50/51/50
f 49/48/49 48/46/48 39/43/39
f 39/43/39 40/47/40 49/48/49
f 39/43/39 38/44/38 46/45/46
f 39/43/39 48/46/48 38/44/38
f 43/23/43 34/19/34 42/22/42
f 43/23/43 35/20/35 34/19/34
f 44/24/44 35/20/35 43/23/43
f 44/24/44 36/21/36 35/20/35
f 45/8/45 36/4/36 44/7/44
f 45/8/45 37/5/37 36/4/36
f 46/9/46 37/5/37 45/8/45
f 46/9/46 38/6/38 37/5/37
f 47/30/47 46/29/46 32/26/32
f 47/30/47 39/27/39 46/29/46
f 26/25/26 39/27/39 47/30/47
f 26/25/26 40/28/40 39/27/39
f 27/11/27 40/13/40 26/10/26
f 27/11/27 41/14/41 40/13/40
f 28/12/28 41/14/41 27/11/27
f 28/12/28 42/15/42 41/14/41
f 29/17/29 42/22/42 28/16/28
f 29/17/29 43/23/43 42/22/42
f 30/18/30 43/23/43 29/17/29
f 30/18/30 44/24/44 43/23/43
f 31/37/31 44/38/44 30/39/30
f 31/37/31 45/40/45 44/38/44
f 32/41/32 45/40/45 31/37/31
f 32/41/32 46/42/46 45/40/45
f 33/35/33 47/36/47 32/3/32
f 33/35/33 26/31/26 47/36/47
f 33/35/33 27/32/27 26/31/26
f 33/35/33 28/33/28 27/32/27
f 33/35/33 29/34/29 28/33/28
f 33/35/33 30/1/30 29/34/29
f 33/35/33 31/2/31 30/1/30
f 33/35/33 32/3/32 31/2/31
f 184/54/184 200/51/200 191/50/191
f 191/50/191 192/53/192 184/54/184
f 200/51/200 199/52/199 190/49/190
f 190/49/190 191/50/191 200/51/200
f 199/48/199 198/46/198 189/43/189
f 189/43/189 190/47/190 199/48/199
f 189/43/189 188/44/188 196/45/196
f 189/43/189 198/46/198 188/44/188
f 193/23/193 184/19/184 192/22/192
f 193/23/193 185/20/185 184/19/184
f 194/24/194 185/20/185 193/23/193
f 194/24/194 186/21/186 185/20/185
f 195/8/195 186/4/186 194/7/194
f 195/8/195 187/5/187 186/4/186
f 196/9/196 187/5/187 195/8/195
f 196/9/196 188/6/188 187/5/187
f 197/30/197 196/29/196 182/26/182
f 197/30/197 189/27/189 196/29/196
f 176/25/176 189/27/189 197/30/197
f 176/25/176 190/28/190 189/27/189
f 177/11/177 190/13/190 176/10/176
f 177/11/177 191/14/191 190/13/190
f 178/12/178 191/14/191 177/11/177
f 178/12/178 192/15/192 191/14/191
f 179/17/179 192/22/192 178/16/178
f 179/17/179 193/23/193 192/22/192
f 180/18/180 193/23/193 179/17/179
f 180/18/180 194/24/194 193/23/193
f 181/37/181 194/38/194 180/39/180
f 181/37/181 195/40/195 194/38/194
f 182/41/182 195/40/195 181/37/181
f 182/41/182 196/42/196 195/40/195
f 183/35/183 197/36/197 182/3/182
f 183/35/183 176/31/176 197/36/197
f 183/35/183 177/32/177 176/31/176
f 183/35/183 178/33/178 177/32/177
f 183/35/183 179/34/179 178/33/178
f 183/35/183 180/1/180 179/34/179
f 183/35/183 181/2/181 180/1/180
f 183/35/183 182/3/182 181/2/181
f 83/35/83 82/3/82 81/2/81
f 83/35/83 81/2/81 80/1/80
f 83/35/83 80/1/80 79/34/79
f 83/35/83 79/34/79 78/33/78
f 83/35/83 78/33/78 77/32/77
f 83/35/83 77/32/77 76/31/76
f 83/35/83 76/31/76 97/36/97
f 83/35/83 97/36/97 82/3/82
f 82/41/82 96/42/96 95/40/95
f 82/41/82 95/40/95 81/37/81
f 81/37/81 95/40/95 94/38/94
f 81/37/81 94/38/94 80/39/80
f 80/18/80 94/24/94 93/23/93
f 80/18/80 93/23/93 79/17/79
f 79/17/79 93/23/93 92/22/92
f 79/17/79 92/22/92 78/16/78
f 78/12/78 92/15/92 91/14/91
f 78/12/78 91/14/91 77/11/77
f 77/11/77 91/14/91 90/13/90
f 77/11/77 90/13/90 76/10/76
f 76/25/76 90/28/90 89/27/89
f 76/25/76 89/27/89 97/30/97
f 97/30/97 89/27/89 96/29/96
f 97/30/97 96/29/96 82/26/82
f 96/9/96 88/6/88 87/5/87
f 96/9/96 87/5/87 95/8/95
f 95/8/95 87/5/87 86/4/86
f 95/8/95 86/4/86 94/7/94
f 94/24/94 86/21/86 85/20/85
f 94/24/94 85/20/85 93/23/93
f 93/23/93 85/20/85 84/19/84
f 93/23/93 84/19/84 92/22/92
f 89/43/89 98/46/98 88/44/88
f 89/43/89 88/44/88 96/45/96
f 89/43/89 90/47/90 99/48/99
f 99/48/99 98/46/98 89/43/89
f 90/49/90 91/50/91 100/51/100
f 100/51/100 99/52/99 90/49/90
f 91/50/91 92/53/92 84/54/84
f 84/54/84 100/51/100 91/50/91
f 109/54/109 125/51/125 116/50/116
f 116/50/116 117/53/117 109/54/109
f 125/51/125 124/52/124 115/49/115
f 115/49/115 116/50/116 125/51/125
f 124/48/124 123/46/123 114/43/114
f 114/43/114 115/47/115 124/48/124
f 114/43/114 113/44/113 121/45/121
f 114/43/114 123/46/123 113/44/113
f 118/23/118 109/19/109 117/22/117
f 118/23/118 110/20/110 109/19/109
f 119/24/119 110/20/110 118/23/118
f 119/24/119 111/21/111 110/20/110
f 120/8/120 111/4/111 119/7/119
f 120/8/120 112/5/112 111/4/111
f 121/9/121 112/5/112 120/8/120
f 121/9/121 113/6/113 112/5/112
f 122/30/122 121/29/121 107/26/107
f 122/30/122 114/27/114 121/29/121
f 101/25/101 114/27/114 122/30/122
f 101/25/101 115/28/115 114/27/114
f 102/11/102 115/13/115 101/10/101
f 102/11/102 116/14/116 115/13/115
f 103/12/103 116/14/116 102/11/102
f 103/12/103 117/15/117 116/14/116
f 104/17/104 117/22/117 103/16/103
f 104/17/104 118/23/118 117/22/117
f 105/18/105 118/23/118 104/17/104
f 105/18/105 119/24/119 118/23/118
f 106/37/106 119/38/119 105/39/105
f 106/37/106 120/40/120 119/38/119
f 107/41/107 120/40/120 106/37/106
f 107/41/107 121/42/121 120/40/120
f 108/35/108 122/36/122 107/3/107
f 108/35/108 101/31/101 122/36/122
f 108/35/108 102/32/102 101/31/101
f 108/35/108 103/33/103 102/32/102
f 108/35/108 104/34/104 103/33/103
f 108/35/108 105/1/105 104/34/104
f 108/35/108 106/2/106 105/1/105
f 108/35/108 107/3/107 106/2/106
f 133/35/133 132/3/132 131/2/131
f 133/35/133 131/2/131 130/1/130
f 133/35/133 130/1/130 129/34/129
f 133/35/133 129/34/129 128/33/128
f 133/35/133 128/33/128 127/32/127
f 133/35/133 127/32/127 126/31/126
f 133/35/133 126/31/126 147/36/147
f 133/35/133 147/36/147 132/3/132
f 132/41/132 146/42/146 145/40/145
f 132/41/132 145/40/145 131/37/131
f 131/37/131 145/40/145 144/38/144
f 131/37/131 144/38/144 130/39/130
f 130/18/130 144/24/144 143/23/143
f 130/18/130 143/23/143 129/17/129
f 129/17/129 143/23/143 142/22/142
f 129/17/129 142/22/142 128/16/128
f 128/12/128 142/15/142 141/14/141
f 128/12/128 141/14/141 127/11/127
f 127/11/127 141/14/141 140/13/140
f 127/11/127 140/13/140 126/10/126
f 126/25/126 140/28/140 139/27/139
f 126/25/126 139/27/139 147/30/147
f 147/30/147 139/27/139 146/29/146
f 147/30/147 146/29/146 132/26/132
f 146/9/146 138/6/138 137/5/137
f 146/9/146 137/5/137 145/8/145
f 145/8/145 137/5/137 136/4/136
f 145/8/145 136/4/136 144/7/144
f 144/24/144 136/21/136 135/20/135
f 144/24/144 135/20/135 143/23/143
f 143/23/143 135/20/135 134/19/134
f 143/23/143 134/19/134 142/22/142
f 139/43/139 148/46/148 138/44/138
f 139/43/139 138/44/138 146/45/146
f 139/43/139 140/47/140 149/48/149
f 149/48/149 148/46/148 139/43/139
f 140/49/140 141/50/141 150/51/150
f 150/51/150 149/52/149 140/49/140
f 141/50/141 142/53/142 134/54/134
f 134/54/134 150/51/150 141/50/141
f 208/35/208 207/3/207 206/2/206
f 208/35/208 206/2/206 205/1/205
f 208/35/208 205/1/205 204/34/204
f 208/35/208 204/34/204 203/33/203
f 208/35/208 203/33/203 202/32/202
f 208/35/208 202/32/202 201/31/201
f 208/35/208 201/31/201 222/36/222
f 208/35/208 222/36/222 207/3/207
f 207/41/207 221/42/221 220/40/220
f 207/41/207 220/40/220 206/37/206
f 206/37/206 220/40/220 219/38/219
f 206/37/206 219/38/219 205/39/205
f 205/18/205 219/24/219 218/23/218
f 205/18/205 218/23/218 204/17/204
f 204/17/204 218/23/218 217/22/217
f 204/17/204 217/22/217 203/16/203
f 203/12/203 217/15/217 216/14/216
f 203/12/203 216/14/216 202/11/202
f 202/11/202 216/14/216 215/13/215
f 202/11/202 215/13/215 201/10/201
f 201/25/201 215/28/215 214/27/214
f 201/25/201 214/27/214 222/30/222
f 222/30/222 214/27/214 221/29/221
f 222/30/222 221/29/221 207/26/207
f 221/9/221 213/6/213 212/5/212
f 221/9/221 212/5/212 220/8/220
f 220/8/220 212/5/212 211/4/211
f 220/8/220 211/4/211 219/7/219
f 219/24/219 211/21/211 210/20/210
f 219/24/219 210/20/210 218/23/218
f 218/23/218 210/20/210 209/19/209
f 218/23/218 209/19/209 217/22/217
f 214/43/214 223/46/223 213/44/213
f 214/43/214 213/44/213 221/45/221
f 214/43/214 215/47/215 224/48/224
f 224/48/224 223/46/223 214/43/214
f 215/49/215 216/50/216 225/51/225
f 225/51/225 224/52/224 215/49/215
f 216/50/216 217/53/217 209/54/209
f 209/54/209 225/51/225 216/50/216
f 158/35/158 157/3/157 156/2/156
f 158/35/158 156/2/156 155/1/155
f 158/35/158 155/1/155 154/34/154
f 158/35/158 154/34/154 153/33/153
f 158/35/158 153/33/153 152/32/152
f 158/35/158 152/32/152 151/31/151
f 158/35/158 151/31/151 172/36/172
f 158/35/158 172/36/172 157/3/157
f 157/41/157 171/42/171 170/40/170
f 157/41/157 170/40/170 156/37/156
f 156/37/156 170/40/170 169/38/169
f 156/37/156 169/38/169 155/39/155
f 155/18/155 169/24/169 168/23/168
f 155/18/155 168/23/168 154/17/154
f 154/17/154 168/23/168 167/22/167
f 154/17/154 167/22/167 153/16/153
f 153/12/153 167/15/167 166/14/166
f 153/12/153 166/14/166 152/11/152
f 152/11/152 166/14/166 165/13/165
f 152/11/152 165/13/165 151/10/151
f 151/25/151 165/28/165 164/27/164
f 151/25/151 164/27/164 172/30/172
f 172/30/172 164/27/164 171/29/171
f 172/30/172 171/29/171 157/26/157
f 171/9/171 163/6/163 162/5/162
f 171/9/171 162/5/162 170/8/170
f 170/8/170 162/5/162 161/4/161
f 170/8/170 161/4/161 169/7/169
f 169/24/169 161/21/161 160/20/160
f 169/24/169 160/20/160 168/23/168
f 168/23/168 160/20/160 159/19/159
f 168/23/168 159/19/159 167/22/167
f 164/43/164 173/46/173 163/44/163
f 164/43/164 163/44/163 171/45/171
f 164/43/164 165/47/165 174/48/174
f 174/48/174 173/46/173 164/43/164
f 165/49/165 166/50/166 175/51/175
f 175/51/175 174/52/174 165/49/165
f 166/50/166 167/53/167 159/54/159
f 159/54/159 175/51/175 166/50/166
f 233/35/233 232/3/232 231/2/231
f 233/35/233 231/2/231 230/1/230
f 233/35/233 230/1/230 229/34/229
f 233/35/233 229/34/229 228/33/228
f 233/35/233 228/33/228 227/32/227
f 233/35/233 227/32/227 226/31/226
f 233/35/233 226/31/226 247/36/247
f 233/35/233 247/36/247 232/3/232
f 232/41/232 246/42/246 245/40/245
f 232/41/232 245/40/245 231/37/231
f 231/37/231 245/40/245 244/38/244
f 231/37/231 244/38/244 230/39/230
f 230/18/230 244/24/244 243/23/243
f 230/18/230 243/23/243 229/17/229
f 229/17/229 243/23/243 242/22/242
f 229/17/229 242/22/242 228/16/228
f 228/12/228 242/15/242 241/14/241
f 228/12/228 241/14/241 227/11/227
f 227/11/227 241/14/241 240/13/240
f 227/11/227 240/13/240 226/10/226
f 226/25/226 240/28/240 239/27/239
f 226/25/226 239/27/239 247/30/247
f 247/30/247 239/27/239 246/29/246
f 247/30/247 246/29/246 232/26/232
f 246/9/246 238/6/238 237/5/237
f 246/9/246 237/5/237 245/8/245
f 245/8/245 237/5/237 236/4/236
f 245/8/245 236/4/236 244/7/244
f 244/24/244 236/21/236 235/20/235
f 244/24/244 235/20/235 243/23/243
f 243/23/243 235/20/235 234/19/234
f 243/23/243 234/19/234 242/22/242
f 239/43/239 248/46/248 238/44/238
f 239/43/239 238/44/238 246/45/246
f 239/43/239 240/47/240 249/48/249
f 249/48/249 248/46/248 239/43/239
f 240/49/240 241/50/241 250/51/250
f 250/51/250 249/52/249 240/49/240
f 241/50/241 242/53/242 234/54/234
f 234/54/234 250/51/250 241/50/241
f 259/54/259 275/51/275 266/50/266
f 266/50/266 267/53/267 259/54/259
f 275/51/275 274/52/274 265/49/265
f 265/49/265 266/50/266 275/51/275
f 274/48/274 273/46/273 264/43/264
f 264/43/264 265/47/265 274/48/274
f 264/43/264 263/44/263 271/45/271
f 264/43/264 273/46/273 263/44/263
f 268/23/268 259/19/259 267/22/267
f 268/23/268 260/20/260 259/19/259
f 269/24/269 260/20/260 268/23/268
f 269/24/269 261/21/261 260/20/260
f 270/8/270 261/4/261 269/7/269
f 270/8/270 262/5/262 261/4/261
f 271/9/271 262/5/262 270/8/270
f 271/9/271 263/6/263 262/5/262
f 272/30/272 271/29/271 257/26/257
f 272/30/272 264/27/264 271/29/271
f 251/25/251 264/27/264 272/30/272
f 251/25/251 265/28/265 264/27/264
f 252/11/252 265/13/265 251/10/251
f 252/11/252 266/14/266 265/13/265
f 253/12/253 266/14/266 252/11/252
f 253/12/253 267/15/267 266/14/266
f 254/17/254 267/22/267 253/16/253
f 254/17/254 268/23/268 267/22/267
f 255/18/255 268/23/268 254/17/254
f 255/18/255 269/24/269 268/23/268
f 256/37/256 269/38/269 255/39/255
f 256/37/256 270/40/270 269/38/269
f 257/41/257 270/40/270 256/37/256
f 257/41/257 271/42/271 270/40/270
f 258/35/258 272/36/272 257/3/257
f 258/35/258 251/31/251 272/36/272
f 258/35/258 252/32/252 251/31/251
f 258/35/258 253/33/253 252/32/252
f 258/35/258 254/34/254 253/33/253
f 258/35/258 255/1/255 254/34/254
f 258/35/258 256/2/256 255/1/255
f 258/35/258 257/3/257 256/2/256
f 284/54/284 300/51/300 291/50/291
f 291/50/291 292/53/292 284/54/284
f 300/51/300 299/52/299 290/49/290
f 290/49/290 291/50/291 300/51/300
f 299/48/299 298/46/298 289/43/289
f 289/43/289 290/47/290 299/48/299
f 289/43/289 288/44/288 296/45/296
f 289/43/289 298/46/298 288/44/288
f 293/23/293 284/19/284 292/22/292
f 293/23/293 285/20/285 284/19/284
f 294/24/294 285/20/285 293/23/293
f 294/24/294 286/21/286 285/20/285
f 295/8/295 286/4/286 294/7/294
f 295/8/295 287/5/287 286/4/286
f 296/9/296 287/5/287 295/8/295
f 296/9/296 288/6/288 287/5/287
f 297/30/297 296/29/296 282/26/282
f 297/30/297 289/27/289 296/29/296
f 276/25/276 289/27/289 297/30/297
f 276/25/276 290/28/290 289/27/289
f 277/11/277 290/13/290 276/10/276
f 277/11/277 291/14/291 290/13/290
f 278/12/278 291/14/291 277/11/277
f 278/12/278 292/15/292 291/14/291
f 279/17/279 292/22/292 278/16/278
f 279/17/279 293/23/293 292/22/292
f 280/18/280 293/23/293 279/17/279
f 280/18/280 294/24/294 293/23/293
f 281/37/281 294/38/294 280/39/280
f 281/37/281 295/40/295 294/38/294
f 282/41/282 295/40/295 281/37/281
f 282/41/282 296/42/296 295/40/295
f 283/35/283 297/36/297 282/3/282
f 283/35/283 276/31/276 297/36/297
f 283/35/283 277/32/277 276/31/276
f 283/35/283 278/33/278 277/32/277
f 283/35/283 279/34/279 278/33/278
f 283/35/283 280/1/280 279/34/279
f 283/35/283 281/2/281 280/1/280
f 283/35/283 282/3/282 281/2/281
f 308/35/308 307/3/307 306/2/306
f 308/35/308 306/2/306 305/1/305
f 308/35/308 305/1/305 304/34/304
f 308/35/308 304/34/304 303/33/303
f 308/35/308 303/33/303 302/32/302
f 308/35/308 302/32/302 301/31/301
f 308/35/308 301/31/301 322/36/322
f 308/35/308 322/36/322 307/3/307
f 307/41/307 321/42/321 320/40/320
f 307/41/307 320/40/320 306/37/306
f 306/37/306 320/40/320 319/38/319
f 306/37/306 319/38/319 305/39/305
f 305/18/305 319/24/319 318/23/318
f 305/18/305 318/23/318 304/17/304
f 304/17/304 318/23/318 317/22/317
f 304/17/304 317/22/317 303/16/303
f 303/12/303 317/15/317 316/14/316
f 303/12/303 316/14/316 302/11/302
f 302/11/302 316/14/316 315/13/315
f 302/11/302 315/13/315 301/10/301
f 301/25/301 315/28/315 314/27/314
f 301/25/301 314/27/314 322/30/322
f 322/30/322 314/27/314 321/29/321
f 322/30/322 321/29/321 307/26/307
f 321/9/321 313/6/313 312/5/312
f 321/9/321 312/5/312 320/8/320
f 320/8/320 312/5/312 311/4/311
f 320/8/320 311/4/311 319/7/319
f 319/24/319 311/21/311 310/20/310
f 319/24/319 310/20/310 318/23/318
f 318/23/318 310/20/310 309/19/309
f 318/23/318 309/19/309 317/22/317
f 314/43/314 323/46/323 313/44/313
f 314/43/314 313/44/313 321/45/321
f 314/43/314 315/47/315 324/48/324
f 324/48/324 323/46/323 314/43/314
f 315/49/315 316/50/316 325/51/325
f 325/51/325 324/52/324 315/49/315
f 316/50/316 317/53/317 309/54/309
f 309/54/309 325/51/325 316/50/316
