# fff08519_00414_0070a118
o fff08519_00414_0070a118
v 1.182765 -1.882937 -0.563001
v 0.350479 0.084916 -0.181245
v 0.873193 -1.882948 -0.563001
v 0.112841 0.084908 -0.181245
v 3.944801 -1.634306 -0.592939
v 3.155112 0.333545 -0.181245
v 3.635229 -1.634317 -0.592939
v 2.917474 0.333537 -0.181245
v 6.280940 -1.559405 -0.575005
v 5.491251 0.408446 -0.305132
v 5.971367 -1.559416 -0.575005
v 5.253613 0.408438 -0.305132
v 8.581107 -1.414222 -0.575005
v 7.805817 0.553627 -0.161968
v 8.324152 -1.414228 -0.575005
v 7.620797 0.553623 -0.161968
v 11.326195 -1.277731 -0.822332
v 10.545362 0.705593 -0.483285
v 11.069240 -1.277737 -0.822332
v 10.360343 0.705590 -0.483285
v 14.124743 -1.121233 -0.879840
v 13.338562 0.875651 -0.632659
v 13.890642 -1.123212 -0.861609
v 13.175553 0.875827 -0.634374
v 16.423616 -0.993668 -0.916720
v 15.637433 1.003216 -0.645840
v 16.189516 -0.995646 -0.898488
v 15.474424 1.003393 -0.647555
v -1.637077 -1.929821 -0.653655
v -2.469364 0.038032 -0.188490
v -1.896973 -1.929831 -0.653655
v -2.657325 0.038024 -0.188490
v 18.795038 -0.726391 -0.842547
v 18.008856 1.270493 -0.571668
v 16.958336 1.152092 -0.579030
v 17.478266 -0.874801 -0.706400
vt -1.442537 0.000000
vt -0.440727 0.000000
vt -1.468871 1.000000
vt -0.467060 1.000000
vt -0.507158 0.000000
vt -0.544328 1.000000
vt 0.488823 0.000000
vt 0.528921 1.000000
vt 0.451653 1.000000
vt -0.467060 1.000000
vt -0.440727 0.000000
vt 0.555255 0.000000
vt 1.488042 0.000000
vt 1.528141 1.000000
vt 1.450873 1.000000
vt 0.528921 1.000000
vt 0.555255 0.000000
vt 1.554474 0.000000
vt 2.489442 0.000000
vt 2.529540 1.000000
vt 2.452272 1.000000
vt 2.555874 0.000000
vt 3.492292 0.000000
vt 3.532391 1.000000
vt 3.455123 1.000000
vt 3.558724 0.000000
vt 4.488412 0.000000
vt 4.528510 1.000000
vt 4.451243 1.000000
vt 4.554844 0.000000
vt 5.493736 0.000000
vt 5.533834 1.000000
vt 5.456567 1.000000
vt 5.560168 0.000000
vt -1.508969 0.000000
vt -1.468871 1.000000
vt -1.546139 1.000000
vt -1.442537 0.000000
vt 2.489442 0.000000
vt 2.452480 1.000000
vt 3.492292 0.000000
vt 3.455123 1.000000
vt 4.488412 0.000000
vt 4.451243 1.000000
vt 5.493736 0.000000
vt 5.456567 1.000000
vt 6.472970 0.000000
vt 6.446637 1.000000
vt 6.052780 1.000000
vt 6.003780 0.000000
vn 0.014602 -0.188805 0.981906
vn 0.006978 -0.187596 0.982221
vn -0.012297 -0.195008 0.980725
vn -0.010375 -0.205091 0.978688
vn -0.000660 -0.205031 0.978755
vn 0.012211 -0.186890 0.982305
vn 0.012930 -0.200239 0.979662
vn 0.015147 -0.195335 0.980620
vn -0.012557 -0.162458 0.986636
vn -0.021914 -0.144463 0.989268
vn 0.012080 -0.145465 0.989290
vn 0.037999 -0.122154 0.991783
vn 0.074027 -0.167942 0.983014
vn 0.051693 -0.185594 0.981266
vn 0.005788 -0.203431 0.979072
vn -0.012816 -0.189476 0.981802
vn 0.028749 -0.143141 0.989285
vn 0.025930 -0.158520 0.987015
vn 0.042097 -0.153717 0.987218
vn 0.070758 -0.152125 0.985825
vn 0.039597 -0.108083 0.993353
vn 0.001967 -0.116182 0.993226
vn 0.053328 -0.098040 0.993753
vn 0.020368 -0.119706 0.992600
vn -0.071640 -0.161717 0.984233
vn -0.036744 -0.121258 0.991941
vn 0.051162 -0.110446 0.992564
vn 0.004827 -0.122171 0.992497
vn -0.008037 -0.222319 0.974941
vn 0.000550 -0.229822 0.973233
vn 0.000009 -0.230039 0.973181
vn 0.000009 -0.230039 0.973181
vn 0.076669 -0.064611 0.994961
vn 0.007859 -0.131377 0.991301
vn -0.002841 -0.084059 0.996457
vn 0.000915 -0.090064 0.995935
g fff08519_00414_0070a118_e2
f 3/5/3 2/4/2 4/6/4
f 4/6/4 30/3/30 29/1/29
f 1/2/1 2/4/2 3/5/3
f 3/5/3 4/6/4 29/1/29
f 7/7/7 6/8/6 8/9/8
f 8/9/8 2/10/2 1/11/1
f 5/12/5 6/8/6 7/7/7
f 7/7/7 8/9/8 1/11/1
f 11/13/11 10/14/10 12/15/12
f 11/13/11 6/16/6 5/17/5
f 9/18/9 10/14/10 11/13/11
f 11/13/11 12/15/12 6/16/6
f 15/19/15 14/20/14 16/21/16
f 13/22/13 14/20/14 15/19/15
f 19/23/19 18/24/18 20/25/20
f 17/26/17 18/24/18 19/23/19
f 23/27/23 22/28/22 24/29/24
f 21/30/21 22/28/22 23/27/23
f 27/31/27 26/32/26 28/33/28
f 25/34/25 26/32/26 27/31/27
f 31/35/31 30/36/30 32/37/32
f 29/38/29 30/36/30 31/35/31
f 10/14/10 9/18/9 16/40/16
f 15/39/15 16/40/16 9/18/9
f 14/20/14 13/22/13 20/42/20
f 19/41/19 20/42/20 13/22/13
f 18/24/18 17/26/17 24/44/24
f 23/43/23 24/44/24 17/26/17
f 22/28/22 21/30/21 28/46/28
f 27/45/27 28/46/28 21/30/21
f 26/32/26 25/34/25 36/50/36
f 33/47/33 34/48/34 35/49/35
f 33/47/33 35/49/35 36/50/36
f 26/32/26 36/50/36 35/49/35
