# fff044a3_00141_003d9340
o fff044a3_00141_003d9340
v 3.128439 1.601427 0.003170
v -3.117926 -1.601750 0.003168
v -3.117926 1.601415 0.003168
v 3.128439 -1.601739 0.003170
v 3.272787 -1.326564 0.013099
v -3.261957 -1.868510 0.013097
v -3.261957 -1.326586 0.013097
v 3.272787 -1.868487 0.013099
v 3.024196 -1.464749 -0.012516
v -2.959569 1.450304 -0.012518
v -3.357997 1.897761 -0.012518
v 3.024176 1.450316 -0.012528
v 3.365340 1.897772 -0.012516
v -3.357997 -1.897759 -0.012518
v -2.959569 -1.464761 -0.012518
v 3.365340 -1.897746 -0.012516
v 3.272728 1.907650 0.013117
v -3.262016 1.443204 0.013116
v -3.262016 1.907632 0.013116
v 3.272728 1.443223 0.013117
vt 0.889984 0.110016
vt 0.202913 0.797087
vt 0.000000 1.000000
vt 0.976231 0.807720
vt 1.000000 1.000000
vt 0.000000 0.000000
vt 0.368737 0.045582
vt 1.000000 0.000000
vt 7.517612 1.000000
vt -0.492732 0.000000
vt -0.492732 1.000000
vt 7.517612 0.000000
vt 7.986304 1.000000
vt 0.000000 0.000000
vt 0.000000 1.000000
vt 7.986304 0.000000
vn -0.000000 0.000000 1.000000
vn -0.000000 0.000000 1.000000
vn -0.000000 0.000000 1.000000
vn -0.000000 0.000000 1.000000
vn -0.000000 0.000000 1.000000
vn -0.000000 0.000000 1.000000
vn -0.000000 0.000000 1.000000
vn -0.000000 0.000000 1.000000
vn 0.000003 0.000002 1.000000
vn -0.000000 -0.000000 1.000000
vn -0.000000 0.000000 1.000000
vn -0.000017 -0.000013 1.000000
vn -0.000014 -0.000016 1.000000
vn -0.000000 0.000000 1.000000
vn -0.000000 0.000000 1.000000
vn -0.000001 0.000002 1.000000
vn -0.000000 0.000000 1.000000
vn -0.000000 0.000000 1.000000
vn -0.000000 0.000000 1.000000
vn -0.000000 0.000000 1.000000
g fff044a3_00141_003d9340_e6
f 4/8/4 3/3/3 2/6/2
f 1/5/1 3/3/3 4/8/4
g fff044a3_00141_003d9340_e5
f 16/8/16 15/7/15 14/6/14
f 13/5/13 12/4/12 16/8/16
f 15/7/15 11/3/11 14/6/14
f 13/5/13 11/3/11 10/2/10
f 16/8/16 9/1/9 15/7/15
f 10/2/10 11/3/11 15/7/15
f 13/5/13 10/2/10 12/4/12
f 12/4/12 9/1/9 16/8/16
g fff044a3_00141_003d9340_e2
f 8/16/8 7/15/7 6/14/6
f 5/13/5 7/15/7 8/16/8
f 20/12/20 19/11/19 18/10/18
f 17/9/17 19/11/19 20/12/20
