# fff034dd_00054_002a57ae
o fff034dd_00054_002a57ae
v 0.605827 -0.595819 0.000000
v 0.582756 0.663127 0.000000
v -0.555622 -0.780863 0.000000
v -0.991737 0.637040 0.000000
v 0.605827 -0.595819 2.093098
v 0.582756 0.663127 2.093098
v -0.555622 -0.780863 2.093098
v -0.991737 0.637040 2.093098
vt 0.000000 0.000000
vt 1.000000 0.000000
vt 0.000000 1.000000
vt 1.000000 1.000000
vt 0.000000 0.000000
vt 1.000000 0.000000
vt 0.000000 1.000000
vt 1.000000 1.000000
vt 0.000000 0.000000
vt 1.000000 0.000000
vt 0.000000 1.000000
vt 1.000000 1.000000
vn 0.766617 -0.642104 0.000000
vn 0.694664 0.719334 0.000000
vn -0.528816 -0.848737 0.000000
vn -0.809253 0.587461 0.000000
vn 0.621723 -0.520743 0.585053
vn 0.567145 0.587287 0.577443
vn -0.428851 -0.688296 0.585095
vn -0.668282 0.485126 0.563960
g fff034dd_00054_002a57ae_e0
f 5/4/5 7/3/7 3/1/3
f 3/1/3 1/2/1 5/4/5
f 5/9/5 6/10/6 8/12/8
f 8/12/8 7/11/7 5/9/5
f 1/5/1 2/6/2 6/8/6
f 6/8/6 5/7/5 1/5/1
f 2/1/2 4/2/4 8/4/8
f 8/4/8 6/3/6 2/1/2
f 4/5/4 3/6/3 7/8/7
f 7/8/7 8/7/8 4/5/4
