# fff08519_00362_0061722b
o fff08519_00362_0061722b
v 0.000000 0.000000 0.000000
v 0.000000 1.377586 -0.000019
v 0.000000 0.829782 1.066800
v 0.000000 2.207368 1.066781
v 0.000000 3.066322 0.004013
v 0.000000 3.896104 1.070813
v 0.000000 4.991884 0.244310
v 0.000000 5.821666 1.311110
v 0.000000 6.001466 -4.580566
v 0.000000 5.628961 -3.275045
v 0.000000 6.820606 -3.505572
v 0.000000 6.448101 -2.200052
v -0.000000 5.294342 -1.520205
v -0.000000 6.113482 -0.445210
v 0.000000 4.991883 0.244309
v 0.000000 5.811023 1.319303
v 0.305620 0.000000 0.000000
v 0.305620 1.377586 -0.000019
v 0.305620 3.066322 0.004013
v 0.305620 4.991884 0.244310
v 0.305620 6.009209 -4.580566
v 0.305620 5.633272 -3.275045
v 0.305620 5.294342 -1.520205
v 0.305620 4.991883 0.244309
v 0.000000 0.000000 0.000000
v 0.000000 1.377586 -0.000019
v 0.000000 3.066322 0.004013
v 0.000000 4.991884 0.244310
v 0.000000 6.001466 -4.580566
v 0.000000 5.628961 -3.275045
v -0.000000 5.297636 -1.520202
v 0.000000 4.991883 0.244309
v 0.305620 0.031269 0.040615
v 0.305620 1.408854 0.040596
v 0.305620 3.097590 0.044627
v 0.305620 5.023152 0.284925
v 0.305620 6.040477 -4.539951
v 0.305620 5.664541 -3.234431
v 0.305620 5.325611 -1.479590
v 0.305620 5.023152 0.284924
v 0.000000 0.031269 0.040615
v 0.000001 1.408854 0.040596
v 0.000001 3.097590 0.044627
v 0.000001 5.023152 0.284925
v 0.000001 6.032735 -4.539951
v 0.000000 5.660229 -3.234431
v -0.000000 5.328904 -1.479587
v 0.000001 5.023152 0.284924
v -2.427450 -2.298050 0.475870
v -1.655589 -1.543720 0.190410
v -2.422702 -1.696574 1.249347
v -1.650841 -0.942243 0.963887
v -0.924490 -0.814122 -0.088231
v -0.919742 -0.212646 0.685246
v -0.117170 0.017235 -0.346338
v -0.112422 0.618711 0.427139
v 0.490159 0.666703 -0.509973
v -2.241571 -2.264300 0.488384
v -1.570323 -1.618102 0.227402
v -0.839224 -0.886399 -0.048505
v -0.031904 -0.060682 -0.313938
v 0.575425 0.602121 -0.460253
v -2.386292 -2.124576 0.360332
v -1.740855 -1.488938 0.127961
v -1.009756 -0.764910 -0.157912
v -0.202436 0.068482 -0.413379
v 0.404893 0.731285 -0.559693
v -2.429420 -2.291993 0.486968
v -1.657558 -1.537663 0.201508
v -0.926460 -0.808065 -0.077133
v -0.119139 0.023292 -0.335241
v 0.488189 0.672760 -0.498876
v -2.241571 -2.239642 0.520412
v -1.570323 -1.593444 0.259430
v -0.839224 -0.861741 -0.016477
v -0.031904 -0.036024 -0.281910
v 0.575425 0.626778 -0.428225
v -2.386292 -2.099919 0.392360
v -1.740855 -1.464280 0.159989
v -1.009756 -0.740252 -0.125884
v -0.202436 0.093140 -0.381351
v 0.404893 0.755942 -0.527665
v -2.429420 -2.267335 0.518996
v -1.657558 -1.513005 0.233536
v -0.926460 -0.783408 -0.045105
v -0.119140 0.047949 -0.303213
v 0.488189 0.697417 -0.466848
v -0.113936 0.426863 0.180428
v 0.492521 0.965995 -0.125094
vt 1.828060 1.000000
vt 1.097872 1.000000
vt 1.097872 0.000000
vt 1.828060 0.000000
vt 2.723172 1.000000
vt 2.723172 0.000000
vt 3.743814 1.000000
vt 3.743814 0.000000
vt 1.907129 1.000000
vt 1.111709 1.000000
vt 1.111709 0.000000
vt 1.907129 0.000000
vt 2.802242 1.000000
vt 2.802242 0.000000
vt 3.785911 1.000000
vt 3.785911 0.000000
vt 1.097872 -0.000000
vt 1.828060 0.000000
vt 2.723172 0.000000
vt 3.743814 0.000000
vt 1.111709 0.000000
vt 1.907129 0.000000
vt 2.802242 0.000000
vt 3.785910 0.000000
vt 1.828060 0.000000
vt 1.097872 0.000000
vt 1.828060 0.000000
vt 1.097872 -0.000000
vt 2.723172 0.000000
vt 2.723172 0.000000
vt 3.743814 0.000000
vt 3.743814 0.000000
vt 2.802242 0.000000
vt 2.802242 0.000000
vt 3.785910 0.000000
vt 3.785911 0.000000
vt 1.907129 0.000000
vt 1.907129 0.000000
vt 1.111709 0.000000
vt 1.111709 0.000000
vt 1.854390 1.000000
vt 1.124202 1.000000
vt 1.124202 0.000000
vt 1.854390 0.000000
vt 2.597153 1.000000
vt 1.854390 1.000000
vt 1.854390 0.000000
vt 1.854390 0.000000
vt 2.597153 0.000000
vt 3.310931 1.000000
vt 3.310931 0.000000
vt 3.727413 0.000000
vt 1.129963 -0.001884
vt 1.860151 -0.001884
vt 1.860435 -0.001862
vt 2.603198 -0.001862
vt 3.316258 -0.002305
vt 3.731543 -0.002697
vt 1.854390 0.000000
vt 1.124202 0.000000
vt 1.860151 -0.001884
vt 1.129963 -0.001884
vt 2.597153 0.000000
vt 1.854390 0.000000
vt 2.603198 -0.001862
vt 1.860435 -0.001862
vt 3.310931 0.000000
vt 3.316258 -0.002305
vt 3.727413 0.000000
vt 3.731543 -0.002697
vt 1.854390 0.000000
vt 1.124202 0.000000
vt 1.860151 -0.001884
vt 1.129963 -0.001884
vt 2.597153 0.000000
vt 1.854390 0.000000
vt 2.603198 -0.001862
vt 1.860435 -0.001862
vt 3.310931 0.000000
vt 3.316258 -0.002305
vt 3.727413 0.000000
vt 3.731543 -0.002697
vt 1.854390 0.000000
vt 1.124202 0.000000
vt 1.860151 -0.001884
vt 1.129963 -0.001884
vt 2.597153 0.000000
vt 1.854390 0.000000
vt 2.603198 -0.001862
vt 1.860435 -0.001862
vt 3.310931 0.000000
vt 3.316258 -0.002305
vt 3.727413 0.000000
vt 3.731543 -0.002697
vt 3.310931 0.681037
vt 3.727413 0.497596
vn 1.000000 -0.000000 0.000000
vn 1.000000 -0.000000 0.000000
vn 1.000000 -0.000000 0.000000
vn 1.000000 -0.000000 0.000000
vn 1.000000 0.000000 0.000000
vn 1.000000 0.000000 0.000000
vn 1.000000 0.000000 0.000000
vn 1.000000 0.000000 0.000000
vn -1.000000 0.000000 -0.000000
vn -1.000000 0.000000 -0.000000
vn -1.000000 0.000000 -0.000000
vn -1.000000 0.000000 -0.000000
vn -1.000000 -0.000000 0.000000
vn -1.000000 -0.000000 0.000000
vn -1.000000 -0.000000 0.000000
vn -1.000000 -0.000000 0.000000
vn 0.000000 0.000014 1.000000
vn 0.000000 -0.001187 0.999999
vn 0.000000 -0.063227 0.997999
vn 0.000000 -0.123833 0.992303
vn -0.024337 0.960667 0.276633
vn -0.014481 0.972498 0.232459
vn 0.009289 0.984086 0.177449
vn 0.001143 0.985350 0.170542
vn 0.000000 0.000014 1.000000
vn 0.000000 -0.001187 0.999999
vn 0.000000 -0.063227 0.997999
vn 0.000000 -0.123833 0.992303
vn -0.022824 0.960796 0.276315
vn -0.012401 0.972660 0.231903
vn 0.010035 0.984098 0.177341
vn 0.000000 0.985317 0.170734
vn 0.000000 0.000014 1.000000
vn 0.000000 -0.001187 0.999999
vn 0.000000 -0.063227 0.997999
vn 0.000000 -0.123833 0.992303
vn -0.024337 0.960667 0.276633
vn -0.014481 0.972498 0.232459
vn 0.009289 0.984086 0.177449
vn 0.001143 0.985350 0.170542
vn 0.000000 0.000014 1.000000
vn 0.000000 -0.001187 0.999999
vn 0.000000 -0.063227 0.997999
vn 0.000000 -0.123833 0.992303
vn -0.022824 0.960796 0.276315
vn -0.012401 0.972660 0.231903
vn 0.010035 0.984098 0.177341
vn 0.000000 0.985317 0.170734
vn 0.707103 -0.560297 0.431361
vn 0.710599 -0.557534 0.429191
vn 0.707103 -0.560297 0.431361
vn 0.711723 -0.556640 0.428489
vn 0.713416 -0.555287 0.427427
vn 0.712767 -0.555806 0.427835
vn 0.711074 -0.557157 0.428895
vn 0.710971 -0.557238 0.428959
vn 0.711222 -0.557038 0.428802
vn -0.071056 0.436117 0.897080
vn 0.021886 0.334598 0.942107
vn -0.005573 0.336443 0.941687
vn 0.004443 0.253411 0.967348
vn -0.116722 0.341480 0.932613
vn -0.345266 0.619477 0.705010
vn -0.312358 0.592812 0.742298
vn -0.364825 0.610060 0.703370
vn -0.375459 0.562630 0.736532
vn -0.294042 0.454984 0.840553
vn -0.198430 0.526631 0.826611
vn -0.147421 0.475222 0.867428
vn -0.191786 0.488043 0.851488
vn -0.197708 0.426703 0.882517
vn -0.214936 0.409859 0.886464
vn -0.071056 0.436118 0.897080
vn 0.021886 0.334598 0.942107
vn -0.005573 0.336443 0.941687
vn 0.004443 0.253411 0.967348
vn -0.116722 0.341480 0.932613
vn -0.345266 0.619477 0.705010
vn -0.312358 0.592812 0.742298
vn -0.364825 0.610060 0.703370
vn -0.375458 0.562630 0.736532
vn -0.294042 0.454984 0.840553
vn -0.198431 0.526631 0.826611
vn -0.147421 0.475222 0.867428
vn -0.191786 0.488043 0.851488
vn -0.197708 0.426703 0.882517
vn -0.214936 0.409859 0.886464
vn 0.711059 -0.557168 0.428904
vn 0.711222 -0.557038 0.428802
g fff08519_00362_0061722b_e0
f 4/1/4 3/2/3 1/3/1
f 1/3/1 2/4/2 4/1/4
f 6/5/6 4/1/4 2/4/2
f 2/4/2 5/6/5 6/5/6
f 8/7/8 6/5/6 5/6/5
f 5/6/5 7/8/7 8/7/8
f 55/51/55 57/52/57 89/96/89
f 89/96/89 88/95/88 55/51/55
f 53/49/53 55/51/55 88/95/88
f 56/50/56 54/45/54 53/49/53
f 50/48/50 53/49/53 54/45/54
f 54/45/54 52/46/52 50/47/50
f 12/9/12 11/10/11 9/11/9
f 9/11/9 10/12/10 12/9/12
f 14/13/14 12/9/12 10/12/10
f 10/12/10 13/14/13 14/13/14
f 16/15/16 14/13/14 13/14/13
f 13/14/13 15/16/15 16/15/16
f 52/41/52 51/42/51 49/43/49
f 49/43/49 50/44/50 52/41/52
f 53/49/53 88/95/88 56/50/56
g fff08519_00362_0061722b_e1
f 26/4/26 25/3/25 18/18/18
f 17/17/17 18/18/18 25/3/25
f 27/6/27 26/4/26 19/19/19
f 18/18/18 19/19/19 26/4/26
f 28/8/28 27/6/27 20/20/20
f 19/19/19 20/20/20 27/6/27
f 42/25/42 41/26/41 34/27/34
f 33/28/33 34/27/34 41/26/41
f 43/29/43 42/25/42 35/30/35
f 34/27/34 35/30/35 42/25/42
f 44/31/44 43/29/43 36/32/36
f 35/30/35 36/32/36 43/29/43
f 69/44/69 68/43/68 59/54/59
f 58/53/58 59/54/59 68/43/68
f 70/49/70 69/48/69 60/56/60
f 59/55/59 60/56/60 69/48/69
f 71/51/71 70/49/70 61/57/61
f 60/56/60 61/57/61 70/49/70
f 72/52/72 71/51/71 62/58/62
f 61/57/61 62/58/62 71/51/71
f 64/59/64 63/60/63 69/61/69
f 68/62/68 69/61/69 63/60/63
f 65/63/65 64/64/64 70/65/70
f 69/66/69 70/65/70 64/64/64
f 66/67/66 65/63/65 71/68/71
f 70/65/70 71/68/71 65/63/65
f 67/69/67 66/67/66 72/70/72
f 71/68/71 72/70/72 66/67/66
f 84/71/84 83/72/83 74/73/74
f 73/74/73 74/73/74 83/72/83
f 85/75/85 84/76/84 75/77/75
f 74/78/74 75/77/75 84/76/84
f 86/79/86 85/75/85 76/80/76
f 75/77/75 76/80/76 85/75/85
f 87/81/87 86/79/86 77/82/77
f 76/80/76 77/82/77 86/79/86
f 79/83/79 78/84/78 84/85/84
f 83/86/83 84/85/84 78/84/78
f 80/87/80 79/88/79 85/89/85
f 84/90/84 85/89/85 79/88/79
f 81/91/81 80/87/80 86/92/86
f 85/89/85 86/92/86 80/87/80
f 82/93/82 81/91/81 87/94/87
f 86/92/86 87/94/87 81/91/81
f 23/23/23 31/14/31 24/24/24
f 32/16/32 24/24/24 31/14/31
f 22/22/22 30/12/30 23/23/23
f 31/14/31 23/23/23 30/12/30
f 21/21/21 29/11/29 22/22/22
f 30/12/30 22/22/22 29/11/29
f 39/33/39 47/34/47 40/35/40
f 48/36/48 40/35/40 47/34/47
f 38/37/38 46/38/46 39/33/39
f 47/34/47 39/33/39 46/38/46
f 37/39/37 45/40/45 38/37/38
f 46/38/46 38/37/38 45/40/45
