# fff0af20_00191_005c725a
o fff0af20_00191_005c725a
v 0.475124 -3.253712 0.219874
v 0.490376 6.004603 0.222465
v -0.679354 -3.191986 2.658738
v -0.672243 6.007198 2.658632
v -1.156649 -3.191971 2.658739
v -1.150391 6.005859 2.658633
v -1.156649 -3.191971 2.449757
v -1.149710 6.004969 2.449757
v -1.156649 -3.191971 2.658739
v -1.150391 6.005859 2.658633
v -0.679354 -3.191986 2.658738
v -0.672243 6.007198 2.658632
v -1.156649 -3.191971 2.658739
v -0.397780 -6.569535 0.229216
v -1.466910 -6.142860 2.658738
v -1.915460 -5.979598 2.658739
v -1.915460 -5.979598 2.449757
v -1.466910 -6.142860 2.658738
v -1.915460 -5.979598 2.658739
v -2.833005 -10.202487 0.241149
v -3.748828 -9.499940 2.658738
v -4.114368 -9.193246 2.658739
v -4.114368 -9.193246 2.449757
v -3.748828 -9.499940 2.658738
v -4.114368 -9.193246 2.658739
v -6.564453 -11.468280 2.658739
v -6.564453 -11.468280 2.449757
v -6.257727 -11.833789 2.658738
v -6.564453 -11.468280 2.658739
v -9.847937 -12.912871 2.658739
v -9.847937 -12.912871 2.449757
v -9.724531 -13.373656 2.658738
v -9.847937 -12.912871 2.658739
v -13.577452 -13.454881 2.678007
v -13.577317 -13.454821 2.487916
v -13.100121 -13.817929 2.677900
v -13.577452 -13.454881 2.678007
v -1.466910 -6.142860 2.658738
v -0.679354 -3.191986 2.658738
v -0.234139 -6.751815 -0.336551
v -2.844191 -10.727456 -0.336551
v -0.622483 -6.510963 0.437734
v -3.070816 -10.240318 0.437734
v -0.234139 -6.751815 0.437734
v -2.844191 -10.727456 0.437734
v 0.701462 -3.258363 -0.336551
v 0.249723 -3.258190 0.437734
v 0.701462 -3.258363 0.437734
v 0.701866 6.009536 -0.336551
v 0.250128 6.009730 0.437734
v 0.701866 6.009536 0.437734
v -0.234139 -6.751815 0.437734
v -2.844191 -10.727456 0.437734
v 0.701462 -3.258363 0.437734
v 0.701866 6.009536 0.437734
v -6.070838 -12.668585 0.437734
v -5.763049 -13.108956 0.437734
v 0.701462 -3.258363 -0.336551
v 0.701462 -3.258363 0.437734
v -0.234139 -6.751815 -0.336551
v -0.234139 -6.751815 0.437734
v -9.568542 -14.212620 0.437734
v -9.341916 -14.699759 0.437734
vt 0.936215 0.623517
vt 4.001859 0.620373
vt 0.921510 1.130021
vt 4.001386 1.128049
vt -0.022739 1.170815
vt 2.711735 1.290426
vt 4.076963 1.221895
vt 1.532233 1.020121
vt 4.852690 1.089842
vt 0.909734 0.637427
vt -0.007533 0.653526
vt -0.012985 1.164209
vt -1.390052 0.648974
vt -1.382420 1.161183
vt 4.196169 1.993706
vt 4.196169 2.257234
vt 3.320869 2.257438
vt 3.320869 1.998206
vt 4.311230 1.978029
vt 4.196169 1.993706
vt 3.320869 1.998206
vt 3.392616 1.983301
vt 2.003413 2.257348
vt 2.003413 1.999051
vt 2.003413 1.999051
vt 2.023181 1.982426
vt 0.905705 2.257092
vt 0.905705 1.998796
vt 0.905705 1.998796
vt 0.898185 1.982056
vt -0.190053 2.254311
vt -0.190053 1.996014
vt -0.190053 1.996014
vt -0.263001 1.981189
vt -1.242103 2.205709
vt -1.242144 1.973175
vt -1.250695 1.995637
vt -1.211223 1.984717
vt 0.000000 2.776037
vt 1.000000 2.776037
vt 0.000000 3.776037
vt 1.000000 3.776037
vt 0.000000 0.000000
vt 1.000000 0.000000
vt 0.000000 1.000000
vt 1.000000 1.000000
vt 1.000000 2.776037
vt 1.000000 3.776037
vt 0.000000 0.000000
vt 0.000000 1.000000
vt 1.000000 2.776032
vt 1.000000 3.776036
vt 0.000000 -27.647058
vt 0.000000 -26.647058
vt 1.000000 0.000000
vt 1.000000 1.000000
vt 1.000000 0.000000
vt 1.000000 1.000000
vn 0.896180 -0.114543 0.428651
vn 0.902493 -0.001607 0.430701
vn 0.903842 -0.000694 0.427866
vn 0.902737 -0.001442 0.430190
vn -0.991004 0.133829 -0.000000
vn 0.000002 0.000012 1.000000
vn -0.991134 0.132867 -0.000000
vn -0.999995 0.000681 -0.003212
vn -0.999995 0.000680 -0.003259
vn -0.999995 0.000680 -0.003259
vn 0.000002 0.000006 1.000000
vn 0.000002 0.000012 1.000000
vn 0.000002 0.000005 1.000000
vn 0.823491 -0.370491 0.429649
vn 0.875876 -0.231231 0.423525
vn -0.907745 0.419522 0.000000
vn -0.907745 0.419522 -0.000000
vn 0.000002 -0.000001 1.000000
vn 0.000002 -0.000001 1.000000
vn 0.750544 -0.501688 0.430108
vn 0.750574 -0.504664 0.426560
vn -0.757547 0.652781 0.000000
vn -0.757547 0.652781 0.000000
vn 0.000002 -0.000001 1.000000
vn 0.000002 -0.000001 1.000000
vn -0.549211 0.835684 0.000000
vn -0.549211 0.835684 0.000000
vn 0.000001 -0.000002 1.000000
vn 0.000001 -0.000002 1.000000
vn -0.275557 0.961285 0.000003
vn -0.276191 0.961103 0.000000
vn 0.002505 0.000854 0.999997
vn 0.002461 0.000657 0.999997
vn -0.143818 0.989604 0.000211
vn -0.143817 0.989604 0.000204
vn 0.004872 0.006111 0.999969
vn 0.004888 0.005369 0.999974
vn 0.750586 -0.510198 0.419903
vn 0.876469 -0.233920 0.420812
vn 0.965958 -0.258699 0.000000
vn 0.835948 -0.548809 0.000000
vn 0.000000 0.000000 1.000000
vn 0.000000 0.000000 1.000000
vn 0.000000 0.000000 1.000000
vn 0.000000 0.000000 1.000000
vn 1.000000 -0.000044 0.000000
vn 0.000000 0.000000 1.000000
vn 0.000000 0.000000 1.000000
vn 1.000000 -0.000044 0.000000
vn 0.000000 0.000000 1.000000
vn 0.000000 0.000000 1.000000
vn 0.965958 -0.258699 0.000000
vn 0.835948 -0.548809 0.000000
vn 1.000000 -0.000044 0.000000
vn 1.000000 -0.000044 0.000000
vn 0.000000 0.000000 1.000000
vn 0.000000 0.000000 1.000000
vn 0.965958 -0.258699 0.000000
vn 0.965958 -0.258699 0.000000
vn 0.835948 -0.548809 0.000000
vn 0.835948 -0.548809 0.000000
vn 0.000000 0.000000 1.000000
vn 0.000000 0.000000 1.000000
g fff0af20_00191_005c725a_e2
f 6/7/6 13/6/13 11/3/11
f 11/3/11 12/4/12 6/7/6
f 11/19/11 13/20/13 19/21/19
f 19/21/19 18/22/18 11/19/11
f 18/22/18 19/21/19 25/25/25
f 25/25/25 24/26/24 18/22/18
f 24/26/24 25/25/25 29/29/29
f 29/29/29 28/30/28 24/26/24
f 28/30/28 29/29/29 33/33/33
f 33/33/33 32/34/32 28/30/28
f 32/34/32 33/33/33 37/37/37
f 37/37/37 36/38/36 32/34/32
g fff0af20_00191_005c725a_e0
f 35/35/35 34/36/34 30/32/30
f 30/32/30 31/31/31 35/35/35
f 9/5/9 10/6/10 8/9/8
f 8/9/8 7/8/7 5/5/5
f 5/15/5 7/16/7 17/17/17
f 17/17/17 16/18/16 5/15/5
f 31/31/31 30/32/30 26/28/26
f 26/28/26 27/27/27 31/31/31
f 16/18/16 17/17/17 23/23/23
f 23/23/23 22/24/22 16/18/16
f 27/27/27 26/28/26 22/24/22
f 22/24/22 23/23/23 27/27/27
g fff0af20_00191_005c725a_e1
f 21/14/21 20/13/20 14/11/14
f 15/12/15 14/11/14 1/10/1
f 2/2/2 4/4/4 1/1/1
f 1/1/1 4/4/4 3/3/3
f 1/10/1 39/3/39 15/12/15
f 14/11/14 38/12/38 21/14/21
g fff0af20_00191_005c725a_e6
f 42/43/42 43/44/43 45/46/45
f 45/46/45 44/45/44 42/43/42
f 42/43/42 44/45/44 48/50/48
f 48/50/48 47/49/47 42/43/42
f 47/49/47 48/50/48 51/54/51
f 51/54/51 50/53/50 47/49/47
f 43/44/43 57/56/57 45/46/45
f 57/56/57 43/44/43 56/55/56
f 56/55/56 63/58/63 57/56/57
f 63/58/63 56/55/56 62/57/62
g fff0af20_00191_005c725a_e7
f 41/39/41 60/40/60 61/42/61
f 61/42/61 53/41/53 41/39/41
f 40/40/40 58/47/58 59/48/59
f 59/48/59 52/42/52 40/40/40
f 46/47/46 55/52/55 54/48/54
f 55/52/55 46/47/46 49/51/49
