# fff0af1d_00008_001c0241
o fff0af1d_00008_001c0241
v 4.124350 77.770233 -30.788628
v 2.792685 77.383713 -31.175140
v -0.000005 77.187477 -31.371380
v -8.361124 91.872437 -16.686430
v 0.000000 48.475090 -13.325836
v 5.351767 78.335274 -30.223583
v 6.437705 79.061684 -29.497173
v 7.403021 80.040359 -28.518497
v 2.792678 59.743885 -18.621933
v 6.437697 59.207024 -15.685099
v 5.351761 51.173576 -12.878942
v 5.351760 58.785149 -16.623035
v 4.124344 49.823967 -13.088179
v 4.124343 59.361320 -17.813414
v -0.000001 59.973816 -19.117538
v 2.792679 48.942863 -13.252592
v 8.017960 81.170456 -27.388409
v 8.360591 91.872437 -16.686430
v 8.360556 82.300537 -26.258320
v 6.772505 65.454315 -18.880001
v 4.943900 64.425262 -20.296402
v 6.437698 51.745354 -12.017195
v 7.403015 52.701408 -10.950945
v 7.620741 66.307587 -17.705326
v -0.000001 63.636929 -21.381464
v 2.792693 63.798061 -21.159603
v 7.403014 59.510735 -14.286428
v 8.017958 66.907196 -16.880322
v 8.359709 67.834686 -15.603539
v 8.017960 53.612057 -9.621290
v 8.017959 60.122307 -12.804417
v 8.358825 55.161613 -8.617075
v -8.361115 49.657246 8.848693
v 2.792679 41.840332 -10.023359
v 8.360596 49.657246 8.848685
v -8.361124 75.528526 -5.013967
v 8.358489 59.767815 -10.830072
v 8.360594 75.528534 -5.013968
v -8.361116 63.332523 2.376453
v 8.360595 63.332527 2.318679
v 7.441361 43.311520 -6.471233
v 8.104004 44.036640 -4.720462
v 5.351762 42.353500 -8.783909
v 4.124344 42.048851 -9.519932
v 6.437699 42.745361 -7.837730
v 8.359177 44.493179 -3.618988
v 0.000001 41.734356 -10.278940
v 2.792692 70.717773 -25.860989
v 4.330978 71.121994 -25.322651
v 5.894732 71.947456 -24.484341
v 7.721709 73.893799 -22.188816
v 7.087763 72.874298 -23.392868
v 8.360592 83.827438 -10.543819
v -8.361118 83.822678 -10.540462
v -0.000004 70.539200 -26.070042
v 8.360132 75.194565 -20.624548
v 6.437713 0.000069 2.650527
v 4.124358 0.000069 0.824140
v 5.351775 0.000072 1.623232
v 7.403029 0.000069 4.034589
v 8.017967 0.000069 5.632777
v 0.000001 34.316635 -7.430086
v 2.792693 0.000069 0.277528
v 0.000005 0.000069 0.000003
v 8.360600 0.000069 20.767658
v 8.360563 0.000069 7.230964
v -8.361115 0.000069 20.767658
v 4.124362 23.320793 -2.990794
v 0.000003 22.028070 -3.552062
v 2.792696 22.478750 -3.394675
v 7.403032 25.709465 -0.391149
v 2.792680 34.037830 -7.047691
v 7.620745 20.105776 1.669632
v 6.437716 24.934809 -1.594810
v 6.772510 19.875797 0.217872
v 6.437716 19.800846 -0.256248
v 8.017962 20.267153 2.689277
v 8.359714 20.517155 4.267786
v 5.351762 32.724594 -5.206024
v 4.124345 33.530994 -6.308212
v 7.403017 33.007797 -2.762566
v 6.437715 32.929672 -4.192481
v 8.017962 26.324453 1.089382
v 8.017962 33.303944 -1.178381
v 8.358828 32.918694 0.627279
v 5.351778 24.570059 -2.556428
v 2.792697 19.429510 -2.600038
v 6.437699 42.745468 -7.837728
v 0.000003 19.386053 -2.874146
v -8.361113 22.634827 17.637817
v 8.360598 22.634829 17.637817
v 8.358492 27.971180 2.234770
v 5.351779 19.639957 -1.270899
v 2.792680 41.840439 -10.023363
v 5.351762 42.353622 -8.783903
v 7.441361 43.311630 -6.471236
v 4.536044 19.556952 -1.795431
v 0.000001 41.734482 -10.278939
v 6.437715 10.052223 1.457182
v 4.346223 9.924553 -0.215014
v 7.519927 10.180367 3.137735
v 2.792695 9.871815 -0.903191
v 5.351777 9.974224 0.435335
v 0.000004 9.831123 -1.176147
v -8.361111 11.369942 19.484852
v 8.360107 10.399410 6.013193
v 8.017964 10.278339 4.423534
v 8.360600 11.424232 19.476879
v 8.360597 34.769352 14.224753
v -6.437899 79.061676 -29.497173
v -7.403591 80.040359 -28.518494
v -5.352205 78.335274 -30.223579
v -2.793001 77.383713 -31.175137
v -4.124787 77.770226 -30.788624
v -2.753295 41.837151 -10.030674
v -8.361118 82.300537 -26.258316
v -6.437897 51.769524 -12.029564
v -8.361115 54.403309 -8.230778
v -7.403595 52.601799 -10.900225
v -8.018524 53.520500 -9.574612
v -8.361115 60.540516 -11.223640
v -5.352203 51.113270 -12.848206
v -4.124786 49.748283 -13.049402
v -8.018520 81.170448 -27.388405
v -2.792999 48.856682 -13.208771
v -6.437898 59.010246 -15.584784
v -5.352204 58.730946 -16.595407
v -4.124787 59.361317 -17.813410
v -2.793000 59.743885 -18.621927
v -7.403596 59.436272 -14.248466
v -8.018524 59.971424 -12.727547
v -4.124787 64.115440 -20.722813
v -2.793000 63.798058 -21.159599
v -5.352204 64.579308 -20.084263
v -6.437898 65.175499 -19.263470
v -8.018526 66.813927 -17.008539
v -8.361116 67.669884 -15.830622
v -7.403596 65.911827 -18.250147
v -8.361115 44.492928 -3.619050
v -8.060837 43.958771 -4.909176
v -7.439651 43.309090 -6.476621
v -6.437896 42.745361 -7.837729
v -4.161361 42.059071 -9.495230
v -5.465255 42.394299 -8.685406
v -6.437898 72.245544 -24.073936
v -8.018522 74.119141 -21.892088
v -7.403593 73.103050 -23.077938
v -8.361118 75.112167 -20.738087
v -2.793001 70.717842 -25.860985
v -5.352205 71.584244 -24.847542
v -4.124787 71.069794 -25.449337
v -4.124778 0.000069 0.824140
v -7.403582 0.000069 4.034589
v -8.361111 0.000069 7.230964
v -5.352196 0.000072 1.623232
v -6.437888 0.000069 2.650527
v -2.792992 0.000069 0.277528
v -8.018513 0.000069 5.632777
v -8.018522 26.485826 1.037004
v -7.403593 25.788563 -0.416918
v -2.792998 34.129868 -7.077565
v -4.124785 33.612289 -6.334636
v -8.018522 33.401840 -1.210151
v -7.403593 33.113998 -2.797105
v -8.361113 33.727768 0.364359
v -6.437895 25.145010 -1.663091
v -5.352201 32.789051 -5.226939
v -6.437895 32.904037 -4.184134
v -5.352201 24.627920 -2.575214
v -4.124784 23.320791 -2.990794
v -2.792997 22.478748 -3.394675
v -8.361113 27.146717 2.502656
v -8.361113 20.517153 4.267786
v -7.403592 20.017151 1.110772
v -4.124784 19.514956 -2.060156
v -2.792996 19.429508 -2.600038
v -5.352201 19.639956 -1.270899
v -6.437894 19.800844 -0.256248
v -8.018522 20.267151 2.689277
v -6.437896 42.745468 -7.837733
v -2.753295 41.837265 -10.030672
v -4.161361 42.059189 -9.495230
v -4.124781 9.823143 -0.345249
v -5.352199 9.868755 0.451929
v -6.437891 9.933586 1.475773
v -2.792994 9.798138 -0.891533
v -8.361111 10.259365 6.034759
v -8.018517 10.141563 4.444723
v -7.403587 10.027187 2.854127
v -8.361113 34.115318 14.184893
vt 1.781361 1.118902
vt 2.387789 1.336674
vt 0.376389 0.784685
vt -1.340937 1.428379
vt 0.376389 1.428379
vt -1.340937 0.968394
vt 0.537307 2.232623
vt 1.178411 1.718936
vt 0.376389 1.527083
vt 1.717303 1.428379
vt 1.039558 1.428379
vt 1.631907 1.526323
vt 1.984666 0.822982
vt 0.376389 1.254416
vt 0.994098 1.233799
vt 2.387789 1.233799
vt 0.989497 1.118902
vt 1.883638 1.029529
vt 0.892179 1.029529
vt 0.537299 2.230491
vt 2.387789 1.029529
vt 1.949261 0.968394
vt 2.433560 0.968394
vt 1.151510 1.526323
vt 1.376384 1.605465
vt -1.340944 0.784685
vt -1.340937 2.234346
vt -1.340937 1.526323
vt 0.376389 0.968394
vt -1.340938 1.029529
vt 0.376389 1.089204
vt -1.340937 1.118903
vt -1.340937 1.233799
vt -1.340937 1.330436
vt 1.770455 1.233799
vt 1.736488 1.330436
vt 0.826787 0.968394
vt 2.288034 1.453558
vt 0.376389 1.365112
vt 2.387789 1.118902
vt 2.675441 2.234326
vt 1.658118 1.710687
vt 0.791382 0.822982
vt 0.376389 0.968394
vt 2.493297 -0.495799
vt 2.204765 1.526323
vt 2.680750 1.523291
vt 0.376389 0.876922
vt 2.328513 0.895375
vt 1.027756 1.330436
vt 1.493297 1.478824
vt 1.493297 0.373833
vt 1.493297 -0.495799
vt 1.493297 0.899415
vt 2.493297 0.902806
vt 2.493296 1.478824
vt 1.427640 1.714650
vt 2.493297 0.373833
vt -0.469833 0.971010
vt -0.469590 1.055241
vt -0.476685 0.970454
vt -0.469416 1.050949
vt -0.473258 1.191651
vt -0.472586 1.310857
vt -0.476642 0.786745
vt -0.472946 1.424266
vt -0.390192 2.249645
vt 1.493297 -0.057784
vt 2.493296 -0.057532
vt -0.470008 1.543741
vt 2.493291 2.102369
vt 4.846534 1.526323
vt 2.953708 1.247519
vt 4.846539 2.234347
vt 4.266768 1.747782
vt 1.493296 2.118295
vt 4.243870 1.549879
vt 2.954510 1.128550
vt 2.955272 1.034168
vt 3.658846 1.352403
vt 3.624879 1.255766
vt 2.954388 1.352202
vt 3.763475 1.553729
vt 4.014489 1.773181
vt 4.019045 1.630028
vt 3.054157 1.468327
vt 3.915457 2.265978
vt 3.140135 1.541441
vt 2.679271 2.234354
vt 3.735032 1.757885
vt 6.659218 1.233799
vt 4.846538 0.968394
vt 4.846538 0.968394
vt 6.659218 1.029529
vt 6.659218 1.118903
vt 6.659218 1.330436
vt 4.846538 1.365112
vt 4.846538 1.275033
vt 4.846538 1.233799
vt 4.846538 0.784685
vt 4.846538 1.118903
vt 6.659218 0.968394
vt 4.403661 1.133942
vt 4.846538 1.059506
vt 4.500980 1.044568
vt 3.446084 0.976419
vt 6.659218 1.428380
vt 4.395719 1.261006
vt 4.846533 2.230892
vt 4.846538 1.428379
vt 4.846546 1.526312
vt 2.951966 0.973051
vt 3.614096 1.134427
vt 3.511820 1.045054
vt 6.659218 0.784685
vt 6.659195 2.234346
vt 6.659218 1.526323
vt 4.355825 1.455786
vt 3.678080 1.455786
vt 4.600695 0.824498
vt 4.565290 0.969910
vt 4.367980 1.352058
vt 3.411479 0.826502
vt 3.034029 0.893516
vt 2.679012 0.822982
vt 2.679183 0.893665
vt 2.679270 0.968394
vt 4.846538 0.892017
vt 2.679270 1.118902
vt 2.679270 1.029529
vt 2.679243 1.336392
vt 2.954319 1.349822
vt 2.679270 1.233799
vt 2.679270 1.336542
vt 1.493297 2.596859
vt 2.493296 3.531979
vt 1.493297 3.531979
vt 1.493296 1.478822
vt 2.493296 1.478822
vt 2.493296 2.596860
vt 5.682543 0.784668
vt 5.695065 2.232509
vt 1.493297 3.034601
vt 5.682687 1.233799
vt 5.682321 1.044405
vt 5.685883 1.352159
vt 5.680705 0.969751
vt 5.686110 1.526317
vt 5.681886 1.118903
vt 5.684932 1.428379
vt 2.493296 3.036963
vt 5.686110 1.526317
vt 5.681886 1.118903
vt 5.681886 1.118903
vt 5.682687 1.233799
vt 2.493296 3.034741
vt 5.682687 1.233799
vt 5.686111 1.526317
vt 5.695065 2.232509
vt 1.493297 3.034601
vt -6.189398 0.786336
vt -6.282529 1.032349
vt -5.786328 1.225790
vt -5.786328 1.124075
vt -5.740563 0.967438
vt -6.215876 0.967438
vt -5.786328 1.034455
vt -7.649632 1.552302
vt -7.151522 1.323907
vt -7.131804 1.424252
vt -7.748152 1.326977
vt -6.386423 1.118171
vt -5.946681 1.435137
vt -5.840262 1.329078
vt -9.484851 1.552302
vt -9.484854 1.424252
vt -7.802294 1.119071
vt -7.115559 1.552302
vt -9.472195 1.228860
vt -9.485259 1.326977
vt -7.118370 1.824070
vt -7.649631 2.239349
vt -7.178815 1.118171
vt -7.281734 1.032349
vt -7.347115 0.967438
vt -7.802294 0.967276
vt -7.802294 1.032187
vt -9.471785 1.119071
vt -9.471785 0.967276
vt -9.471786 1.032187
vt -7.802294 0.786337
vt -9.471781 0.786337
vt -6.039963 1.552302
vt -7.382515 0.786337
vt -6.406090 1.225790
vt -6.476597 1.552302
vt -6.465526 1.824070
vt -6.793350 1.636167
vt -9.484852 2.239350
vt -5.511785 2.239350
vt -6.440288 1.323907
vt -6.460304 1.424252
vt -7.802702 1.228860
vt -7.159425 1.225790
vt -7.721930 1.424252
vt -7.753035 0.883036
vt -5.845596 0.880299
vt -7.802294 0.786337
vt -7.753035 0.883036
vt -6.800410 1.824070
vt -8.628542 0.787216
vt -8.596640 0.788873
vt -8.628913 0.972740
vt -8.624941 1.244479
vt -8.554956 2.255973
vt -8.591224 1.441519
vt -8.607705 1.342415
vt -8.627930 1.129440
vt -8.628601 1.037653
vt -8.554355 1.577372
vt -3.340986 1.552302
vt -4.737003 0.975424
vt -4.513553 1.847801
vt -3.863524 1.576033
vt -3.860714 1.847801
vt -4.185727 1.659897
vt -3.340991 2.239350
vt -4.670348 1.040335
vt -4.518802 1.450763
vt -4.542037 1.346142
vt -5.079597 1.457857
vt -4.987239 1.566965
vt -4.502481 1.576032
vt -5.217320 1.239601
vt -5.220306 0.968393
vt -4.566457 1.141360
vt -4.546790 1.248980
vt -5.186312 1.344739
vt -5.216463 1.042668
vt -5.215096 1.138883
vt -1.515489 1.032349
vt -1.528556 1.552302
vt -3.847032 1.450085
vt -3.830460 1.346137
vt -3.340987 1.424252
vt -3.340987 1.323907
vt -1.515489 1.118171
vt -3.327920 1.032349
vt -3.798012 1.248997
vt -3.327920 1.118171
vt -3.327920 1.225791
vt -1.528556 1.424252
vt -1.528579 2.239350
vt -1.515489 0.786337
vt -3.327921 0.967438
vt -5.494092 0.786477
vt -5.507950 2.239349
vt -1.528556 1.323908
vt -1.515489 1.225790
vt -3.777526 1.133107
vt -3.673939 1.040330
vt -1.515489 0.967438
vt -3.573773 0.788830
vt -4.763424 0.789046
vt -3.609182 0.969930
vt -3.327920 0.889841
vt -5.138819 0.886418
vt -5.494884 1.034027
vt -5.494886 0.966950
vt -5.507952 1.328957
vt -5.494885 1.225795
vt -5.494885 1.123938
vt -5.494817 0.882327
vt -2.488680 0.841914
vt -2.486845 0.967438
vt -2.489162 1.552302
vt -2.484914 1.032349
vt -2.482954 1.118171
vt -2.490477 1.424252
vt -2.488563 2.239274
vt -2.492135 1.323908
vt -2.481027 1.225791
vt -2.488680 0.841914
vt -2.487889 2.239424
vt -2.490477 1.424252
vt -2.490477 1.424252
vt -4.196929 1.867972
vn -0.465044 0.551906 0.692195
vn -0.242865 0.604700 0.758521
vn -0.000003 0.623384 0.781916
vn 0.675112 -0.447682 -0.586349
vn 0.000258 0.430127 0.902769
vn -0.626628 0.496694 0.600526
vn -0.758857 0.420246 0.497523
vn -0.885453 0.299798 0.355098
vn -0.237603 0.477844 0.845701
vn -0.755692 0.310825 0.576469
vn -0.613437 0.342137 0.711785
vn -0.618632 0.367002 0.694697
vn -0.452770 0.384188 0.804611
vn -0.449729 0.431917 0.781787
vn 0.000003 0.490300 0.871554
vn -0.235266 0.417846 0.877527
vn -0.958524 0.182570 0.218860
vn -0.675120 -0.447676 -0.586343
vn -0.995148 0.061159 0.077065
vn -0.786539 0.330365 0.521742
vn -0.573007 0.438511 0.692367
vn -0.756844 0.282184 0.589542
vn -0.882357 0.203460 0.424323
vn -0.902653 0.227554 0.365291
vn -0.000005 0.545475 0.838127
vn -0.271356 0.520552 0.809562
vn -0.883586 0.222329 0.412123
vn -0.957217 0.152899 0.245679
vn -0.994507 0.056573 0.088064
vn -0.958062 0.123397 0.258630
vn -0.958168 0.137610 0.250954
vn -0.994400 0.045777 0.095256
vn 0.695872 -0.273708 -0.663962
vn -0.077105 0.984333 -0.158569
vn -0.696182 -0.276915 -0.662306
vn 0.702016 -0.381604 -0.601292
vn -0.994768 0.046602 0.090913
vn -0.701946 -0.381049 -0.601726
vn 0.694636 -0.340686 -0.633573
vn -0.697043 -0.339628 -0.631493
vn -0.201937 0.883478 -0.422714
vn -0.963578 0.102940 0.246821
vn -0.162089 0.957880 -0.237049
vn -0.463493 0.341376 0.817702
vn -0.194979 0.930951 -0.308729
vn -0.994742 0.039387 0.094533
vn -0.000249 0.988820 -0.149115
vn -0.254836 0.576709 0.776186
vn -0.502382 0.513583 0.695590
vn -0.687825 0.426650 0.587253
vn -0.941531 0.199888 0.271228
vn -0.857326 0.303511 0.415781
vn -0.699951 -0.414935 -0.581289
vn 0.699941 -0.414925 -0.581309
vn 0.000002 0.593003 0.805200
vn -0.989706 0.085212 0.114984
vn -0.759265 0.076836 0.646230
vn -0.465135 0.104749 0.879021
vn -0.619596 0.092885 0.779406
vn -0.885655 0.054182 0.461171
vn -0.959544 0.032866 0.279636
vn 0.000470 0.332273 0.943183
vn -0.242843 0.115217 0.963199
vn -0.000005 0.118789 0.992920
vn -0.680374 -0.082281 -0.728231
vn -0.995156 0.011402 0.097648
vn 0.680387 -0.082208 -0.728228
vn -0.471787 0.241651 0.847951
vn -0.000005 0.273593 0.961846
vn -0.263568 0.264812 0.927581
vn -0.883190 0.133691 0.449557
vn -0.236404 0.322834 0.916456
vn -0.904291 0.093479 0.416556
vn -0.756921 0.182715 0.627444
vn -0.841369 0.119971 0.526978
vn -0.759123 0.140149 0.635682
vn -0.958988 0.060400 0.276938
vn -0.994739 0.021712 0.100113
vn -0.615935 0.255954 0.745058
vn -0.453943 0.294626 0.840911
vn -0.882954 0.153113 0.443789
vn -0.757345 0.214305 0.616849
vn -0.958155 0.080344 0.274744
vn -0.958300 0.094002 0.269861
vn -0.994534 0.033584 0.098860
vn -0.615467 0.224830 0.755415
vn -0.264029 0.205784 0.942307
vn -0.007046 0.961184 -0.275818
vn -0.000027 0.211939 0.977283
vn 0.694227 -0.159629 -0.701831
vn -0.694791 -0.155835 -0.702126
vn -0.994542 0.030833 0.099680
vn -0.619359 0.167358 0.767063
vn 0.000034 0.956987 -0.290131
vn -0.045195 0.965382 -0.256896
vn 0.076848 0.972374 -0.220414
vn -0.486671 0.186121 0.853528
vn 0.000790 0.971380 -0.237528
vn -0.769349 0.091600 0.632228
vn -0.476896 0.127724 0.869630
vn -0.892539 0.063658 0.446455
vn -0.255055 0.141259 0.956553
vn -0.617656 0.114972 0.777999
vn 0.000071 0.147106 0.989121
vn 0.701489 -0.097612 -0.705964
vn -0.994580 0.014774 0.102917
vn -0.958469 0.041006 0.282234
vn -0.701520 -0.097741 -0.705915
vn -0.696782 -0.219275 -0.682944
vn 0.758257 0.404430 0.511354
vn 0.885411 0.286435 0.366064
vn 0.619619 0.488838 0.614093
vn 0.242777 0.604644 0.758594
vn 0.465072 0.551599 0.692421
vn 0.081680 0.987717 -0.133207
vn 0.995232 0.059407 0.077358
vn 0.756779 0.282266 0.589586
vn 0.994461 0.045280 0.094855
vn 0.882561 0.203080 0.424081
vn 0.958323 0.123072 0.257818
vn 0.994755 0.049323 0.089605
vn 0.612990 0.341710 0.712375
vn 0.451082 0.383628 0.805825
vn 0.959383 0.172850 0.222951
vn 0.235993 0.417612 0.877444
vn 0.757265 0.311429 0.574075
vn 0.615913 0.372817 0.694017
vn 0.445576 0.435245 0.782320
vn 0.240567 0.475133 0.846390
vn 0.883139 0.225075 0.411589
vn 0.958713 0.137495 0.248927
vn 0.457641 0.481841 0.747258
vn 0.239256 0.530451 0.813252
vn 0.614392 0.424142 0.665301
vn 0.741406 0.361967 0.565064
vn 0.953838 0.163531 0.251894
vn 0.993356 0.062923 0.096362
vn 0.868964 0.268344 0.415803
vn 0.994680 0.039632 0.095083
vn 0.961370 0.105950 0.254052
vn 0.890581 0.175095 0.419770
vn 0.177437 0.928868 -0.325148
vn 0.122827 0.970884 -0.205666
vn 0.625677 0.300370 0.719935
vn 0.748281 0.393367 0.534171
vn 0.956100 0.172001 0.237251
vn 0.876184 0.284669 0.388929
vn 0.994121 0.063508 0.087694
vn 0.240082 0.575589 0.781702
vn 0.615585 0.467321 0.634560
vn 0.461412 0.526092 0.714371
vn 0.465141 0.104506 0.879046
vn 0.885603 0.054204 0.461269
vn 0.995154 0.011388 0.097670
vn 0.619705 0.092357 0.779382
vn 0.759261 0.076287 0.646299
vn 0.242987 0.114937 0.963196
vn 0.959529 0.032711 0.279702
vn 0.958564 0.080753 0.273193
vn 0.883238 0.132625 0.449778
vn 0.236820 0.322955 0.916306
vn 0.452067 0.296091 0.841407
vn 0.958536 0.093344 0.269248
vn 0.883060 0.153422 0.443471
vn 0.994549 0.034060 0.098552
vn 0.756863 0.184208 0.627077
vn 0.615621 0.256771 0.745037
vn 0.757380 0.213897 0.616947
vn 0.614574 0.224323 0.756292
vn 0.468874 0.238815 0.850367
vn 0.263542 0.264826 0.927584
vn 0.994589 0.029631 0.099575
vn 0.994722 0.021824 0.100263
vn 0.884123 0.100167 0.456391
vn 0.463027 0.185577 0.866699
vn 0.244028 0.204110 0.948045
vn 0.619256 0.168060 0.766992
vn 0.758288 0.139767 0.636761
vn 0.958903 0.060756 0.277152
vn -0.009051 0.956794 -0.290625
vn 0.006284 0.963801 -0.266548
vn 0.022081 0.965705 -0.258701
vn 0.463725 0.129602 0.876449
vn 0.617995 0.114593 0.777786
vn 0.757039 0.094800 0.646456
vn 0.241606 0.142341 0.959878
vn 0.994570 0.014773 0.103018
vn 0.958468 0.040885 0.282255
vn 0.883138 0.067662 0.464207
vn 0.707838 -0.216156 -0.672490
g fff0af1d_00008_001c0241_e1
f 32/12/32 31/11/31 30/10/30
f 29/9/29 37/8/37 38/7/38
f 19/28/19 56/70/56 18/27/18
f 3/26/3 55/65/55 48/61/48
f 31/11/31 28/5/28 27/50/27
f 178/251/178 185/282/185 184/278/184
f 179/245/179 173/221/173 188/286/188
f 19/28/19 17/4/17 56/70/56
f 166/249/166 160/244/160 178/251/178
f 54/69/54 53/68/53 36/58/36
f 18/27/18 56/70/56 53/67/53
f 188/279/188 153/258/153 189/281/189
f 5/13/5 34/23/34 16/22/16
f 189/281/189 156/259/156 185/282/185
f 15/43/15 9/37/9 25/3/25
f 163/229/163 164/230/164 141/238/141
f 32/42/32 46/47/46 35/41/35
f 156/259/156 155/247/155 185/282/185
f 34/23/34 44/21/44 16/22/16
f 56/70/56 29/9/29 38/20/38
f 14/19/14 13/18/13 12/17/12
f 181/235/181 161/222/161 98/267/98
f 12/17/12 11/1/11 10/15/10
f 168/237/168 144/240/144 180/234/180
f 27/50/27 28/5/28 24/39/24
f 176/255/176 69/263/69 171/265/171
f 177/250/177 184/278/184 183/277/183
f 175/248/175 169/260/169 177/250/177
f 28/5/28 29/9/29 56/70/56
f 9/37/9 16/22/16 14/19/14
f 28/5/28 31/11/31 29/9/29
f 182/239/182 144/240/144 167/236/167
f 184/278/184 152/241/152 183/277/183
f 162/228/162 161/222/161 182/239/182
f 165/233/165 163/229/163 140/231/140
f 175/248/175 186/275/186 176/255/176
f 177/250/177 169/260/169 166/249/166
f 175/248/175 176/255/176 170/261/170
f 32/42/32 40/57/40 37/25/37
f 98/267/98 161/222/161 62/264/62
f 157/262/157 64/254/64 104/274/104
f 176/255/176 89/266/89 69/263/69
f 41/2/41 23/36/23 22/35/22
f 45/16/45 41/2/41 22/35/22
f 44/21/44 43/40/43 13/18/13
f 43/40/43 45/16/45 11/1/11
f 170/261/170 169/260/169 175/248/175
f 158/252/158 153/258/153 188/279/188
f 153/258/153 156/259/156 189/281/189
f 42/38/42 30/10/30 41/2/41
f 90/227/90 173/221/173 172/225/172
f 32/12/32 42/38/42 46/46/46
f 52/64/52 51/66/51 8/34/8
f 8/34/8 50/63/50 52/64/52
f 7/33/7 6/32/6 49/62/49
f 49/62/49 50/63/50 7/33/7
f 17/4/17 51/66/51 56/70/56
f 14/19/14 12/17/12 21/31/21
f 55/65/55 25/3/25 26/48/26
f 3/26/3 48/61/48 2/6/2
f 27/50/27 24/39/24 20/14/20
f 178/251/178 184/278/184 177/250/177
f 5/13/5 16/22/16 15/43/15
f 1/30/1 2/6/2 48/61/48
f 33/56/33 39/55/39 40/54/40
f 25/3/25 9/37/9 26/48/26
f 6/32/6 1/30/1 49/60/49
f 9/37/9 14/19/14 26/29/26
f 26/29/26 14/19/14 21/31/21
f 49/60/49 1/30/1 48/59/48
f 22/35/22 27/50/27 10/15/10
f 12/17/12 10/15/10 20/14/20
f 51/66/51 17/4/17 8/34/8
f 27/50/27 20/14/20 10/15/10
f 23/36/23 31/11/31 27/50/27
f 183/277/183 157/262/157 186/275/186
f 44/21/44 13/18/13 16/22/16
f 16/22/16 9/37/9 15/43/15
f 43/40/43 11/1/11 13/18/13
f 13/18/13 14/19/14 16/22/16
f 45/16/45 22/35/22 11/1/11
f 11/1/11 12/17/12 13/18/13
f 12/17/12 20/14/20 21/31/21
f 22/35/22 10/15/10 11/1/11
f 41/2/41 30/10/30 23/36/23
f 23/36/23 27/50/27 22/35/22
f 29/9/29 31/11/31 37/24/37
f 30/10/30 31/11/31 23/36/23
f 7/33/7 50/63/50 8/34/8
f 32/12/32 30/10/30 42/38/42
f 32/42/32 35/41/35 40/57/40
f 55/65/55 26/44/26 48/61/48
f 5/13/5 47/49/47 34/23/34
f 37/24/37 31/11/31 32/12/32
f 4/45/4 18/53/18 53/68/53
f 40/54/40 36/58/36 38/52/38
f 4/45/4 53/68/53 54/69/54
f 39/55/39 36/58/36 40/54/40
f 179/245/179 159/243/159 172/224/172
f 40/57/40 38/7/38 37/8/37
f 173/221/173 179/245/179 172/224/172
f 35/51/35 33/56/33 40/54/40
f 24/39/24 28/5/28 51/66/51
f 21/31/21 48/59/48 26/29/26
f 36/58/36 53/68/53 38/52/38
f 21/31/21 49/60/49 48/59/48
f 56/70/56 51/66/51 28/5/28
f 53/67/53 56/70/56 38/20/38
f 50/63/50 21/31/21 20/14/20
f 49/62/49 21/31/21 50/63/50
f 24/39/24 52/64/52 20/14/20
f 52/64/52 50/63/50 20/14/20
f 24/39/24 51/66/51 52/64/52
f 179/245/179 174/246/174 159/243/159
f 87/128/87 70/121/70 69/120/69
f 168/237/168 164/230/164 160/244/160
f 68/105/68 97/104/97 86/103/86
f 169/260/169 167/236/167 166/249/166
f 166/249/166 167/236/167 168/237/168
f 170/261/170 161/222/161 162/228/162
f 67/136/67 105/151/105 108/160/108
f 85/85/85 109/84/109 46/90/46
f 162/228/162 169/260/169 170/261/170
f 85/83/85 84/119/84 83/118/83
f 42/86/42 41/134/41 96/82/96
f 96/82/96 82/81/82 81/80/81
f 66/117/66 65/116/65 108/159/108
f 45/133/45 96/132/96 41/131/41
f 64/115/64 63/102/63 104/141/104
f 171/265/171 62/264/62 161/222/161
f 171/265/171 161/222/161 170/261/170
f 95/78/95 80/114/80 79/113/79
f 34/127/34 94/112/94 44/79/44
f 94/112/94 47/125/47 98/124/98
f 34/126/34 47/125/47 94/112/94
f 97/104/97 93/101/93 86/103/86
f 188/286/188 173/221/173 187/276/187
f 90/227/90 105/284/105 187/276/187
f 107/150/107 78/111/78 77/110/77
f 155/247/155 152/241/152 184/278/184
f 97/104/97 103/149/103 93/101/93
f 109/76/109 91/135/91 90/140/90
f 106/148/106 91/109/91 78/111/78
f 162/228/162 182/239/182 167/236/167
f 152/241/152 157/262/157 183/277/183
f 92/75/92 91/74/91 109/84/109
f 89/100/89 102/147/102 87/128/87
f 76/99/76 75/98/75 74/108/74
f 68/105/68 86/103/86 80/114/80
f 86/103/86 74/108/74 79/113/79
f 77/110/77 73/97/73 107/150/107
f 61/107/61 101/146/101 60/96/60
f 85/83/85 42/86/42 84/119/84
f 45/133/45 88/73/88 96/82/96
f 176/255/176 171/265/171 170/261/170
f 85/83/85 46/88/46 42/86/42
f 43/129/43 88/73/88 45/133/45
f 70/121/70 68/105/68 72/106/72
f 174/246/174 160/244/160 159/243/159
f 168/237/168 160/244/160 166/249/166
f 42/86/42 96/82/96 84/119/84
f 188/279/188 187/276/187 158/252/158
f 46/90/46 109/87/109 35/89/35
f 80/114/80 72/106/72 68/105/68
f 43/129/43 95/78/95 88/73/88
f 44/130/44 95/78/95 43/129/43
f 88/73/88 82/81/82 96/82/96
f 88/73/88 79/113/79 82/81/82
f 95/78/95 79/113/79 88/73/88
f 44/79/44 94/112/94 72/106/72
f 44/79/44 72/106/72 80/114/80
f 44/79/44 80/114/80 95/78/95
f 98/124/98 62/123/62 72/106/72
f 72/106/72 62/123/62 70/121/70
f 85/85/85 92/75/92 109/84/109
f 62/123/62 69/120/69 70/121/70
f 190/71/190 109/76/109 90/140/90
f 87/128/87 69/120/69 89/100/89
f 59/95/59 100/145/100 58/94/58
f 174/246/174 189/281/189 185/282/185
f 58/94/58 102/147/102 63/102/63
f 70/121/70 87/92/87 68/105/68
f 87/92/87 97/104/97 68/105/68
f 61/107/61 66/117/66 106/158/106
f 82/81/82 74/108/74 71/122/71
f 86/103/86 76/99/76 74/108/74
f 76/99/76 99/157/99 101/146/101
f 86/103/86 93/101/93 76/99/76
f 57/91/57 60/96/60 99/144/99
f 76/99/76 101/146/101 75/98/75
f 71/122/71 75/98/75 73/97/73
f 71/122/71 74/108/74 75/98/75
f 83/118/83 71/122/71 77/110/77
f 71/122/71 73/97/73 77/110/77
f 94/112/94 98/124/98 72/106/72
f 77/110/77 78/72/78 83/118/83
f 92/77/92 85/83/85 83/118/83
f 81/80/81 71/122/71 83/118/83
f 91/74/91 92/75/92 78/72/78
f 84/119/84 81/80/81 83/118/83
f 78/72/78 92/77/92 83/118/83
f 81/80/81 82/81/82 71/122/71
f 96/82/96 81/80/81 84/119/84
f 82/81/82 79/113/79 74/108/74
f 79/113/79 80/114/80 86/103/86
f 33/139/33 35/138/35 109/76/109
f 176/255/176 186/275/186 89/266/89
f 33/139/33 109/76/109 190/71/190
f 61/107/61 107/150/107 101/146/101
f 104/141/104 63/102/63 102/147/102
f 89/100/89 104/141/104 102/147/102
f 108/143/108 105/156/105 91/135/91
f 185/282/185 155/247/155 184/278/184
f 105/156/105 90/140/90 91/135/91
f 102/147/102 100/145/100 87/93/87
f 99/157/99 76/99/76 93/101/93
f 103/149/103 99/155/99 93/101/93
f 59/95/59 103/154/103 100/145/100
f 97/104/97 100/145/100 103/149/103
f 57/91/57 99/144/99 103/153/103
f 57/91/57 103/153/103 59/95/59
f 99/144/99 60/96/60 101/146/101
f 97/104/97 87/92/87 100/145/100
f 58/94/58 100/145/100 102/147/102
f 73/97/73 75/98/75 101/146/101
f 66/117/66 108/159/108 106/158/106
f 107/150/107 73/97/73 101/146/101
f 106/148/106 78/111/78 107/150/107
f 61/107/61 106/152/106 107/150/107
f 108/142/108 91/109/91 106/148/106
f 67/136/67 108/160/108 65/137/65
f 89/266/89 186/275/186 104/283/104
f 105/280/105 154/242/154 187/276/187
f 168/237/168 180/234/180 141/238/141
f 5/161/5 115/165/115 47/207/47
f 174/246/174 185/282/185 178/251/178
f 179/245/179 189/281/189 174/246/174
f 162/228/162 167/236/167 169/260/169
f 148/220/148 124/176/124 116/175/116
f 143/268/143 182/239/182 181/235/181
f 143/268/143 181/235/181 115/269/115
f 123/162/123 122/172/122 143/167/143
f 161/222/161 181/235/181 182/239/182
f 138/171/138 131/170/131 130/169/130
f 114/190/114 151/219/151 113/189/113
f 112/188/112 150/218/150 114/190/114
f 133/186/133 132/187/132 129/185/129
f 128/184/128 132/187/132 127/183/127
f 36/182/36 121/181/121 137/168/137
f 111/180/111 147/217/147 110/179/110
f 137/168/137 121/178/121 136/205/136
f 126/204/126 135/203/135 130/169/130
f 124/176/124 146/216/146 111/180/111
f 120/202/120 141/174/141 119/201/119
f 136/205/136 121/178/121 131/170/131
f 4/199/4 54/215/54 116/175/116
f 146/216/146 124/176/124 148/220/148
f 67/253/67 154/242/154 105/280/105
f 121/178/121 118/196/118 120/202/120
f 33/257/33 190/287/190 139/223/139
f 131/170/131 120/202/120 119/201/119
f 131/170/131 121/178/121 120/202/120
f 130/169/130 131/170/131 119/201/119
f 117/195/117 130/169/130 119/201/119
f 126/204/126 117/195/117 122/172/122
f 117/195/117 126/204/126 130/169/130
f 123/162/123 127/183/127 122/172/122
f 127/183/127 126/204/126 122/172/122
f 128/184/128 123/162/123 125/166/125
f 123/162/123 128/184/128 127/183/127
f 15/194/15 125/166/125 5/161/5
f 129/185/129 128/184/128 125/166/125
f 143/268/143 144/272/144 182/239/182
f 15/194/15 129/185/129 125/166/125
f 141/270/141 180/234/180 142/271/142
f 146/216/146 147/217/147 111/180/111
f 147/217/147 145/214/145 110/179/110
f 178/251/178 177/250/177 166/249/166
f 175/248/175 183/277/183 186/275/186
f 110/179/110 145/214/145 112/188/112
f 134/177/134 126/204/126 127/183/127
f 132/187/132 134/177/134 127/183/127
f 132/187/132 128/184/128 129/185/129
f 151/219/151 149/213/149 113/189/113
f 113/189/113 149/213/149 3/192/3
f 25/191/25 133/206/133 129/185/129
f 90/227/90 172/225/172 190/287/190
f 25/191/25 129/185/129 15/194/15
f 150/218/150 151/219/151 114/190/114
f 135/203/135 126/204/126 134/177/134
f 145/214/145 150/218/150 112/188/112
f 135/203/135 138/171/138 130/169/130
f 136/205/136 131/170/131 138/171/138
f 54/215/54 148/220/148 116/175/116
f 159/243/159 163/229/163 172/224/172
f 123/162/123 143/167/143 125/166/125
f 163/229/163 141/238/141 140/231/140
f 39/210/39 33/200/33 118/197/118
f 117/195/117 119/201/119 141/174/141
f 165/233/165 140/231/140 139/232/139
f 118/196/118 139/193/139 140/173/140
f 118/196/118 140/173/140 120/202/120
f 120/202/120 140/173/140 141/174/141
f 117/195/117 141/174/141 142/163/142
f 117/195/117 142/163/142 144/164/144
f 117/195/117 144/164/144 122/172/122
f 143/167/143 122/172/122 144/164/144
f 143/167/143 115/165/115 125/166/125
f 125/166/125 115/165/115 5/161/5
f 179/245/179 188/285/188 189/281/189
f 33/200/33 139/193/139 118/197/118
f 160/244/160 164/230/164 159/243/159
f 172/224/172 163/229/163 165/233/165
f 168/237/168 141/238/141 164/230/164
f 47/269/47 181/235/181 98/267/98
f 115/273/115 181/267/181 47/256/47
f 186/275/186 157/262/157 104/274/104
f 149/213/149 133/206/133 55/212/55
f 177/250/177 183/277/183 175/248/175
f 149/213/149 55/212/55 3/192/3
f 121/181/121 36/182/36 39/210/39
f 118/198/118 121/181/121 39/210/39
f 159/243/159 164/230/164 163/229/163
f 54/215/54 36/182/36 137/168/137
f 137/168/137 136/205/136 148/220/148
f 54/215/54 137/168/137 148/220/148
f 146/216/146 136/205/136 138/171/138
f 136/205/136 146/216/146 148/220/148
f 147/217/147 138/171/138 135/203/135
f 146/216/146 138/171/138 147/217/147
f 147/217/147 135/203/135 145/214/145
f 145/214/145 135/203/135 134/177/134
f 150/218/150 134/177/134 132/187/132
f 145/214/145 134/177/134 150/218/150
f 151/219/151 132/187/132 133/186/133
f 150/218/150 132/187/132 151/219/151
f 151/219/151 133/186/133 149/213/149
f 178/251/178 160/244/160 174/246/174
f 133/209/133 25/208/25 55/211/55
f 180/234/180 144/240/144 142/271/142
f 165/226/165 190/287/190 172/225/172
f 187/276/187 154/242/154 158/252/158
f 165/226/165 139/223/139 190/287/190
f 90/227/90 187/276/187 173/221/173
f 69/263/69 62/264/62 171/265/171
f 168/237/168 167/236/167 144/240/144
