# fff0a81b_00251_00644aee
o fff0a81b_00251_00644aee
v 4.898230 0.010688 2.106497
v 2.270770 0.010691 2.106497
v 4.751414 0.090500 -0.001232
v 4.898230 0.090500 -0.001215
v 4.751414 0.018808 -0.001232
v 4.751414 0.090500 1.992710
v 2.978427 0.090500 1.992710
v 4.898230 0.010688 -0.001215
v 4.898230 0.090499 2.106497
v 2.270770 0.090503 2.106497
v 4.751414 0.018808 1.992710
v 4.751647 0.010688 0.769617
v 2.387606 0.010687 0.769617
v 4.751647 0.090500 0.624158
v 2.387606 0.090500 0.624158
v 4.751647 0.090499 0.769617
v 2.387606 0.090499 0.769617
v 4.751647 0.010688 0.156559
v 2.388497 0.010692 0.156560
v 4.751647 0.090500 -0.002470
v 2.270771 0.090502 -0.001765
v 4.751647 0.090499 0.156559
v 2.388497 0.090504 0.156560
v 4.751414 0.018808 -0.001232
v 2.351954 0.018808 -0.001392
v 2.351954 0.018808 1.992710
v 4.751414 0.018808 1.992710
v 4.751647 0.010688 1.717003
v 2.387435 0.010687 1.717003
v 4.751647 0.090500 1.616352
v 2.387435 0.090500 1.616352
v 4.751647 0.090499 1.717003
v 2.387435 0.090499 1.717003
v 2.846364 0.090499 1.992710
v 2.388497 0.090507 1.992710
v 2.388497 0.010695 1.992710
v 2.270770 0.010691 -0.001413
v 4.799816 0.092889 1.648727
v 4.849919 0.092889 1.648727
v 4.799816 0.092889 1.697456
v 4.849919 0.092889 1.697456
v 4.799816 0.092889 0.848244
v 4.849919 0.092889 0.848244
v 4.799816 0.092889 0.896971
v 4.849919 0.092889 0.896971
v -2.376999 0.010688 2.106497
v 0.820699 0.010691 2.106497
v -2.230183 0.090500 -0.001232
v -2.376999 0.090500 -0.001215
v -2.230183 0.018807 -0.001232
v -2.230183 0.090500 1.992710
v 0.113042 0.090500 1.992710
v -2.376999 0.010688 -0.001215
v -2.376999 0.090499 2.106497
v 0.820699 0.090502 2.106497
v -2.230183 0.018807 1.992710
v -2.230420 0.010688 0.769617
v 0.702588 0.010687 0.769617
v -2.230420 0.090500 0.624158
v 0.702588 0.090500 0.624158
v -2.230420 0.090499 0.769617
v 0.702588 0.090498 0.769617
v -2.230420 0.010688 0.156559
v 0.702972 0.010693 0.156559
v -2.230420 0.090500 -0.002470
v 0.820698 0.090501 -0.001677
v -2.230420 0.090499 0.156559
v 0.702972 0.090504 0.156559
v -2.230183 0.018807 -0.001232
v 0.739515 0.018807 -0.001392
v 0.739515 0.018807 1.992710
v -2.230183 0.018807 1.992710
v -2.230420 0.010688 1.717003
v 0.705591 0.010687 1.717003
v -2.230420 0.090500 1.616352
v 0.705591 0.090500 1.616352
v -2.230420 0.090499 1.717003
v 0.705591 0.090498 1.717003
v 0.245106 0.090499 1.992710
v 0.702971 0.090506 1.992710
v 0.702971 0.010695 1.992710
v 0.820699 0.010691 -0.001413
v -2.278588 0.092889 1.648727
v -2.328690 0.092889 1.648727
v -2.278588 0.092889 1.697456
v -2.328690 0.092889 1.697456
v -2.278588 0.092889 0.848244
v -2.328690 0.092889 0.848244
v -2.278588 0.092889 0.896971
v -2.328690 0.092889 0.896971
v 2.340827 -0.092888 2.106497
v 0.732210 -0.092885 2.106497
v 2.194011 -0.013076 0.156559
v 2.340827 -0.013076 -0.001842
v 2.194011 -0.084768 0.156559
v 2.194011 -0.013076 1.992710
v 0.865360 -0.013076 1.992710
v 2.340827 -0.088828 -0.001225
v 2.340827 -0.013077 2.106497
v 0.732210 -0.013073 2.106497
v 2.194011 -0.084768 1.992710
v 2.194244 -0.092888 0.156559
v 0.865360 -0.092889 0.156559
v 0.732210 -0.013076 -0.002470
v 2.194244 -0.013077 0.156559
v 0.865360 -0.013077 0.156559
v 0.865360 -0.084768 -0.001392
v 0.865360 -0.084768 1.992710
v 2.194012 -0.084768 1.992710
v 0.865360 -0.084768 1.992710
v 0.865360 -0.084768 0.156559
v 2.194012 -0.088828 -0.001225
v 4.743350 -0.018692 1.561157
v 2.409476 -0.018692 1.561157
v 4.743350 -0.018692 0.858165
v 2.409476 -0.018692 0.858165
v 2.204835 -0.078395 1.717003
v 0.806331 -0.078396 1.717003
v 2.204835 -0.025587 1.616352
v 0.806331 -0.025587 1.616352
v 2.204835 -0.025588 1.717003
v 0.806331 -0.025588 1.717003
v 2.165816 -0.035446 1.561157
v 0.884317 -0.035446 1.561157
v 2.165816 -0.035446 0.858165
v 0.884317 -0.035446 0.858165
v 0.638978 -0.018692 1.561157
v -2.185672 -0.018692 1.561157
v 0.638978 -0.018692 0.858165
v -2.185672 -0.018692 0.858165
v 4.751399 0.090317 -2.109354
v 4.898215 0.090317 -2.109337
v 4.751399 0.090317 -0.115412
v 4.898215 0.090316 -0.001625
v 2.270755 0.090320 -0.001625
v 4.751631 0.090317 -1.483964
v 2.387591 0.090317 -1.483964
v 4.751631 0.090316 -1.338505
v 2.387591 0.090316 -1.338505
v 4.751631 0.090317 -2.110592
v 2.270756 0.090319 -2.109887
v 4.751631 0.090316 -1.951563
v 2.388482 0.090321 -1.951562
v 4.751631 0.090317 -0.491770
v 2.387419 0.090317 -0.491770
v 4.751631 0.090316 -0.391119
v 2.387419 0.090316 -0.391119
v 2.388482 0.090324 -0.115412
v -2.230198 0.090317 -2.109354
v -2.377015 0.090317 -2.109337
v -2.230198 0.090317 -0.115412
v -2.377015 0.090316 -0.001625
v 0.820683 0.090319 -0.001625
v -2.230435 0.090317 -1.483964
v 0.702573 0.090317 -1.483964
v -2.230435 0.090316 -1.338505
v 0.702573 0.090315 -1.338505
v -2.230435 0.090317 -2.110592
v 0.820683 0.090318 -2.109799
v -2.230435 0.090316 -1.951563
v 0.702957 0.090321 -1.951562
v -2.230435 0.090317 -0.491770
v 0.705576 0.090317 -0.491770
v -2.230435 0.090316 -0.391119
v 0.705576 0.090315 -0.391119
v 0.702956 0.090323 -0.115412
v 2.193996 -0.013259 -1.951563
v 2.340811 -0.013259 -2.109964
v 2.193996 -0.013259 -0.115412
v 0.865345 -0.013259 -0.115412
v 2.340811 -0.013260 -0.001625
v 0.732195 -0.013256 -0.001625
v 0.732195 -0.013259 -2.110592
v 2.194229 -0.013260 -1.951563
v 0.865345 -0.013260 -1.951563
v 2.204819 -0.025770 -1.487776
v 0.806316 -0.025770 -1.487776
v 2.204819 -0.025771 -1.387125
v 0.806316 -0.025771 -1.387125
v -2.482568 0.010688 2.106497
v -5.110028 0.010691 2.106497
v -2.629384 0.090500 -0.001232
v -2.482568 0.090500 -0.001215
v -2.629384 0.018808 -0.001232
v -2.629384 0.090500 1.992710
v -4.402371 0.090500 1.992710
v -2.482568 0.010688 -0.001215
v -2.482568 0.090499 2.106497
v -5.110028 0.090503 2.106497
v -2.629384 0.018808 1.992710
v -2.629151 0.010688 0.769617
v -4.993191 0.010687 0.769617
v -2.629151 0.090500 0.624158
v -4.993191 0.090500 0.624158
v -2.629151 0.090499 0.769617
v -4.993191 0.090499 0.769617
v -2.629151 0.010688 0.156559
v -4.992301 0.010692 0.156560
v -2.629151 0.090500 -0.002470
v -5.110027 0.090502 -0.001765
v -2.629151 0.090499 0.156559
v -4.992301 0.090504 0.156560
v -2.629384 0.018808 -0.001232
v -5.028843 0.018808 -0.001392
v -5.028843 0.018808 1.992710
v -2.629384 0.018808 1.992710
v -2.629151 0.010688 1.717003
v -4.993363 0.010687 1.717003
v -2.629151 0.090500 1.616352
v -4.993363 0.090500 1.616352
v -2.629151 0.090499 1.717003
v -4.993363 0.090499 1.717003
v -4.534434 0.090499 1.992710
v -4.992301 0.090507 1.992710
v -4.992301 0.010695 1.992710
v -5.110028 0.010691 -0.001413
v -2.580982 0.092889 1.648727
v -2.530879 0.092889 1.648727
v -2.580982 0.092889 1.697456
v -2.530879 0.092889 1.697456
v -2.580982 0.092889 0.848244
v -2.530879 0.092889 0.848244
v -2.580982 0.092889 0.896971
v -2.530879 0.092889 0.896971
v -8.578033 0.010688 2.106497
v -6.560099 0.010691 2.106497
v -8.431217 0.090500 -0.001232
v -8.578033 0.090500 -0.001215
v -8.431217 0.018807 -0.001232
v -8.431217 0.090500 1.992710
v -7.267756 0.090500 1.992710
v -8.578033 0.010688 -0.001215
v -8.578033 0.090499 2.106497
v -6.560099 0.090502 2.106497
v -8.431217 0.018807 1.992710
v -8.431454 0.010688 0.769617
v -6.678210 0.010687 0.769617
v -8.431454 0.090500 0.624158
v -6.678210 0.090500 0.624158
v -8.431454 0.090499 0.769617
v -6.678210 0.090498 0.769617
v -8.431454 0.010688 0.156559
v -6.677826 0.010693 0.156559
v -8.431454 0.090500 -0.002470
v -6.560100 0.090502 -0.001677
v -8.431454 0.090499 0.156559
v -6.677826 0.090504 0.156559
v -8.431217 0.018807 -0.001232
v -6.641283 0.018808 -0.001392
v -6.641283 0.018808 1.992710
v -8.431217 0.018807 1.992710
v -8.431454 0.010688 1.717003
v -6.675207 0.010687 1.717003
v -8.431454 0.090500 1.616352
v -6.675207 0.090500 1.616352
v -8.431454 0.090499 1.717003
v -6.675207 0.090498 1.717003
v -7.135692 0.090499 1.992710
v -6.677826 0.090506 1.992710
v -6.677826 0.010695 1.992710
v -6.560099 0.010691 -0.001413
v -8.479622 0.092889 1.648727
v -8.529724 0.092889 1.648727
v -8.479622 0.092889 1.697456
v -8.529724 0.092889 1.697456
v -8.479622 0.092889 0.848244
v -8.529724 0.092889 0.848244
v -8.479622 0.092889 0.896971
v -8.529724 0.092889 0.896971
v -5.039971 -0.092888 2.106497
v -6.648588 -0.092885 2.106497
v -5.186787 -0.013076 0.156559
v -5.039971 -0.013076 -0.001842
v -5.186787 -0.084768 0.156559
v -5.186787 -0.013076 1.992710
v -6.515438 -0.013076 1.992710
v -5.039971 -0.088828 -0.001225
v -5.039971 -0.013077 2.106497
v -6.648588 -0.013073 2.106497
v -5.186787 -0.084768 1.992710
v -5.186554 -0.092888 0.156559
v -6.515438 -0.092889 0.156559
v -6.648588 -0.013076 -0.002470
v -5.186554 -0.013077 0.156559
v -6.515438 -0.013077 0.156559
v -6.515438 -0.084768 -0.001392
v -6.515438 -0.084768 1.992710
v -5.186786 -0.084768 1.992710
v -6.515438 -0.084768 1.992710
v -6.515438 -0.084768 0.156559
v -5.186786 -0.088828 -0.001225
v -2.637448 -0.018692 1.561157
v -4.971322 -0.018692 1.561157
v -2.637448 -0.018692 0.858165
v -4.971322 -0.018692 0.858165
v -5.175963 -0.078395 1.717003
v -6.574466 -0.078395 1.717003
v -5.175963 -0.025587 1.616352
v -6.574466 -0.025587 1.616352
v -5.175963 -0.025588 1.717003
v -6.574466 -0.025588 1.717003
v -5.214982 -0.035446 1.561157
v -6.496480 -0.035446 1.561157
v -5.214982 -0.035446 0.858165
v -6.496480 -0.035446 0.858165
v -6.741820 -0.018692 1.561157
v -8.386706 -0.018692 1.561157
v -6.741820 -0.018692 0.858165
v -8.386706 -0.018692 0.858165
v -2.629399 0.090317 -2.109354
v -2.482583 0.090317 -2.109337
v -2.629399 0.090317 -0.115412
v -2.482583 0.090316 -0.001625
v -5.110043 0.090320 -0.001625
v -2.629167 0.090317 -1.483964
v -4.993207 0.090317 -1.483964
v -2.629167 0.090316 -1.338505
v -4.993207 0.090316 -1.338505
v -2.629167 0.090317 -2.110592
v -5.110042 0.090319 -2.109887
v -2.629167 0.090316 -1.951563
v -4.992316 0.090321 -1.951562
v -2.629167 0.090317 -0.491770
v -4.993378 0.090317 -0.491770
v -2.629167 0.090316 -0.391119
v -4.993378 0.090316 -0.391119
v -4.992316 0.090324 -0.115412
v -8.431232 0.090317 -2.109354
v -8.578049 0.090317 -2.109337
v -8.431232 0.090317 -0.115412
v -8.578049 0.090316 -0.001625
v -6.560114 0.090319 -0.001625
v -8.431469 0.090317 -1.483964
v -6.678225 0.090317 -1.483964
v -8.431469 0.090316 -1.338505
v -6.678225 0.090315 -1.338505
v -8.431469 0.090317 -2.110592
v -6.560115 0.090318 -2.109799
v -8.431469 0.090316 -1.951563
v -6.677841 0.090321 -1.951562
v -8.431469 0.090317 -0.491770
v -6.675222 0.090317 -0.491770
v -8.431469 0.090316 -0.391119
v -6.675222 0.090315 -0.391119
v -6.677842 0.090323 -0.115412
v -5.186802 -0.013259 -1.951563
v -5.039986 -0.013259 -2.109964
v -5.186802 -0.013259 -0.115412
v -6.515453 -0.013259 -0.115412
v -5.039986 -0.013260 -0.001625
v -6.648603 -0.013256 -0.001625
v -6.648603 -0.013259 -2.110592
v -5.186569 -0.013260 -1.951563
v -6.515453 -0.013260 -1.951563
v -5.175979 -0.025770 -1.487776
v -6.574481 -0.025770 -1.487776
v -5.175979 -0.025771 -1.387125
v -6.574481 -0.025771 -1.387125
v 5.123068 -4.076103 2.106497
v 3.084551 -4.076100 2.106497
v 4.976252 -3.996291 -0.001232
v 5.123068 -3.996291 -0.001215
v 4.976252 -4.067984 -0.001232
v 4.976252 -3.996291 1.992710
v 5.123068 -4.076103 -0.001215
v 5.123068 -3.996292 2.106497
v 3.084551 -3.996289 2.106497
v 4.976252 -4.067984 1.992710
v 4.976485 -4.076103 0.769617
v 3.201388 -4.076104 0.769617
v 4.976485 -3.996291 0.624158
v 3.201388 -3.996291 0.624158
v 4.976485 -3.996292 0.769617
v 3.201388 -3.996292 0.769617
v 4.976485 -4.076103 0.156559
v 3.202279 -4.076099 0.156560
v 4.976485 -3.996291 -0.002470
v 3.084552 -3.996290 -0.001765
v 4.976485 -3.996292 0.156559
v 3.202279 -3.996287 0.156560
v 4.976252 -4.067984 -0.001232
v 3.165736 -4.067984 -0.001392
v 3.165736 -4.067984 1.992710
v 4.976252 -4.067984 1.992710
v 4.976485 -4.076103 1.717003
v 3.201216 -4.076104 1.717003
v 4.976485 -3.996291 1.616352
v 3.201216 -3.996292 1.616352
v 4.976485 -3.996292 1.717003
v 3.201216 -3.996293 1.717003
v 3.202279 -3.996285 1.992710
v 3.202279 -4.076097 1.992710
v 3.084551 -4.076100 -0.001413
v 5.024654 -3.993902 1.648727
v 5.074757 -3.993902 1.648727
v 5.024654 -3.993902 1.697456
v 5.074757 -3.993902 1.697456
v 5.024654 -3.993902 0.848244
v 5.074757 -3.993902 0.848244
v 5.024654 -3.993902 0.896971
v 5.074757 -3.993902 0.896971
v 4.968188 -4.105484 1.561157
v 3.223258 -4.105484 1.561157
v 4.968188 -4.105484 0.858165
v 3.223258 -4.105484 0.858165
v 4.976237 -3.996474 -2.109354
v 5.123053 -3.996474 -2.109337
v 4.976237 -3.996474 -0.115412
v 5.123053 -3.996475 -0.001625
v 3.084536 -3.996472 -0.001625
v 4.976470 -3.996474 -1.483964
v 3.201373 -3.996474 -1.483964
v 4.976470 -3.996475 -1.338505
v 3.201373 -3.996475 -1.338505
v 4.976470 -3.996474 -2.110592
v 3.084537 -3.996473 -2.109887
v 4.976470 -3.996475 -1.951563
v 3.202263 -3.996470 -1.951562
v 4.976470 -3.996474 -0.491770
v 3.201201 -3.996475 -0.491770
v 4.976470 -3.996475 -0.391119
v 3.201201 -3.996476 -0.391119
v 3.202263 -3.996468 -0.115412
v 11.877020 -4.076103 2.106497
v 9.094667 -4.076100 2.106497
v 11.730204 -3.996291 -0.001232
v 11.877020 -3.996291 -0.001215
v 11.730204 -4.067984 -0.001232
v 11.730204 -3.996291 1.992710
v 11.877020 -4.076103 -0.001215
v 11.877020 -3.996292 2.106497
v 9.094667 -3.996289 2.106497
v 11.730204 -4.067984 1.992710
v 11.730436 -4.076103 0.769617
v 9.211504 -4.076104 0.769617
v 11.730436 -3.996291 0.624158
v 9.211504 -3.996291 0.624158
v 11.730436 -3.996292 0.769617
v 9.211504 -3.996292 0.769617
v 11.730436 -4.076103 0.156559
v 9.212395 -4.076099 0.156560
v 11.730436 -3.996291 -0.002470
v 9.094668 -3.996290 -0.001765
v 11.730436 -3.996292 0.156559
v 9.212395 -3.996287 0.156560
v 11.730204 -4.067984 -0.001232
v 9.175852 -4.067984 -0.001392
v 9.175852 -4.067984 1.992710
v 11.730204 -4.067984 1.992710
v 11.730436 -4.076103 1.717003
v 9.211332 -4.076104 1.717003
v 11.730436 -3.996291 1.616352
v 9.211332 -3.996292 1.616352
v 11.730436 -3.996292 1.717003
v 9.211332 -3.996293 1.717003
v 9.212395 -3.996285 1.992710
v 9.212395 -4.076097 1.992710
v 9.094667 -4.076100 -0.001413
v 11.778605 -3.993902 1.648727
v 11.828709 -3.993902 1.648727
v 11.778605 -3.993902 1.697456
v 11.828709 -3.993902 1.697456
v 11.778605 -3.993902 0.848244
v 11.828709 -3.993902 0.848244
v 11.778605 -3.993902 0.896971
v 11.828709 -3.993902 0.896971
v 11.722139 -4.105484 1.561157
v 9.233374 -4.105484 1.561157
v 11.722139 -4.105484 0.858165
v 9.233374 -4.105484 0.858165
v 11.730188 -3.996474 -2.109354
v 11.877005 -3.996474 -2.109337
v 11.730188 -3.996474 -0.115412
v 11.877005 -3.996475 -0.001625
v 9.094652 -3.996472 -0.001625
v 11.730421 -3.996474 -1.483964
v 9.211489 -3.996474 -1.483964
v 11.730421 -3.996475 -1.338505
v 9.211489 -3.996475 -1.338505
v 11.730421 -3.996474 -2.110592
v 9.094653 -3.996473 -2.109887
v 11.730421 -3.996475 -1.951563
v 9.212379 -3.996470 -1.951562
v 11.730421 -3.996474 -0.491770
v 9.211317 -3.996475 -0.491770
v 11.730421 -3.996475 -0.391119
v 9.211317 -3.996476 -0.391119
v 9.212379 -3.996468 -0.115412
v 2.897162 -4.076103 2.106497
v 0.858645 -4.076100 2.106497
v 2.750346 -3.996291 -0.001232
v 2.897162 -3.996291 -0.001215
v 2.750346 -4.067984 -0.001232
v 2.750346 -3.996291 1.992710
v 2.897162 -4.076103 -0.001215
v 2.897162 -3.996292 2.106497
v 0.858645 -3.996289 2.106497
v 2.750346 -4.067984 1.992710
v 2.750579 -4.076103 0.769617
v 0.975482 -4.076104 0.769617
v 2.750579 -3.996291 0.624158
v 0.975482 -3.996291 0.624158
v 2.750579 -3.996292 0.769617
v 0.975482 -3.996292 0.769617
v 2.750579 -4.076103 0.156559
v 0.976372 -4.076099 0.156560
v 2.750579 -3.996291 -0.002470
v 0.858646 -3.996290 -0.001765
v 2.750579 -3.996292 0.156559
v 0.976372 -3.996287 0.156560
v 2.750346 -4.067984 -0.001232
v 0.939830 -4.067984 -0.001392
v 0.939830 -4.067984 1.992710
v 2.750346 -4.067984 1.992710
v 2.750579 -4.076103 1.717003
v 0.975310 -4.076104 1.717003
v 2.750579 -3.996291 1.616352
v 0.975310 -3.996292 1.616352
v 2.750579 -3.996292 1.717003
v 0.975310 -3.996293 1.717003
v 0.976372 -3.996285 1.992710
v 0.976372 -4.076097 1.992710
v 0.858645 -4.076100 -0.001413
v 2.798748 -3.993902 1.648727
v 2.848851 -3.993902 1.648727
v 2.798748 -3.993902 1.697456
v 2.848851 -3.993902 1.697456
v 2.798748 -3.993902 0.848244
v 2.848851 -3.993902 0.848244
v 2.798748 -3.993902 0.896971
v 2.848851 -3.993902 0.896971
v 2.742282 -4.105484 1.561157
v 0.997351 -4.105484 1.561157
v 2.742282 -4.105484 0.858165
v 0.997351 -4.105484 0.858165
v 2.750331 -3.996474 -2.109354
v 2.897147 -3.996474 -2.109337
v 2.750331 -3.996474 -0.115412
v 2.897147 -3.996475 -0.001625
v 0.858630 -3.996472 -0.001625
v 2.750563 -3.996474 -1.483964
v 0.975466 -3.996474 -1.483964
v 2.750563 -3.996475 -1.338505
v 0.975466 -3.996475 -1.338505
v 2.750563 -3.996474 -2.110592
v 0.858631 -3.996473 -2.109887
v 2.750563 -3.996475 -1.951563
v 0.976357 -3.996470 -1.951562
v 2.750563 -3.996474 -0.491770
v 0.975295 -3.996475 -0.491770
v 2.750563 -3.996475 -0.391119
v 0.975295 -3.996476 -0.391119
v 0.976357 -3.996468 -0.115412
v 3.126293 -3.993902 1.648727
v 3.176396 -3.993902 1.648727
v 3.126293 -3.993902 1.697456
v 3.176396 -3.993902 1.697456
v 3.126293 -3.993902 0.848244
v 3.176396 -3.993902 0.848244
v 3.126293 -3.993902 0.896971
v 3.176396 -3.993902 0.896971
v 0.893688 -3.993902 1.648727
v 0.943791 -3.993902 1.648727
v 0.893688 -3.993902 1.697456
v 0.943791 -3.993902 1.697456
v 0.893688 -3.993902 0.848244
v 0.943791 -3.993902 0.848244
v 0.893688 -3.993902 0.896971
v 0.943791 -3.993902 0.896971
v 9.141444 -3.993902 1.648727
v 9.191547 -3.993902 1.648727
v 9.141444 -3.993902 1.697456
v 9.191547 -3.993902 1.697456
v 9.141444 -3.993902 0.848244
v 9.191547 -3.993902 0.848244
v 9.141444 -3.993902 0.896971
v 9.191547 -3.993902 0.896971
v -3.697961 -4.076103 2.106497
v -5.736478 -4.076100 2.106497
v -3.844777 -3.996291 -0.001232
v -3.697961 -3.996291 -0.001215
v -3.844777 -4.067984 -0.001232
v -3.844777 -3.996291 1.992710
v -3.697961 -4.076103 -0.001215
v -3.697961 -3.996292 2.106497
v -5.736478 -3.996289 2.106497
v -3.844777 -4.067984 1.992710
v -3.844544 -4.076103 0.769617
v -5.619641 -4.076104 0.769617
v -3.844544 -3.996291 0.624158
v -5.619641 -3.996291 0.624158
v -3.844544 -3.996292 0.769617
v -5.619641 -3.996292 0.769617
v -3.844544 -4.076103 0.156559
v -5.618751 -4.076099 0.156560
v -3.844544 -3.996291 -0.002470
v -5.736477 -3.996290 -0.001765
v -3.844544 -3.996292 0.156559
v -5.618751 -3.996287 0.156560
v -3.844777 -4.067984 -0.001232
v -5.655293 -4.067984 -0.001392
v -5.655293 -4.067984 1.992710
v -3.844777 -4.067984 1.992710
v -3.844544 -4.076103 1.717003
v -5.619813 -4.076104 1.717003
v -3.844544 -3.996291 1.616352
v -5.619813 -3.996292 1.616352
v -3.844544 -3.996292 1.717003
v -5.619813 -3.996293 1.717003
v -5.618751 -3.996285 1.992710
v -5.618751 -4.076097 1.992710
v -5.736478 -4.076100 -0.001413
v -3.796375 -3.993902 1.648727
v -3.746272 -3.993902 1.648727
v -3.796375 -3.993902 1.697456
v -3.746272 -3.993902 1.697456
v -3.796375 -3.993902 0.848244
v -3.746272 -3.993902 0.848244
v -3.796375 -3.993902 0.896971
v -3.746272 -3.993902 0.896971
v -3.852841 -4.105484 1.561157
v -5.597772 -4.105484 1.561157
v -3.852841 -4.105484 0.858165
v -5.597772 -4.105484 0.858165
v -3.844792 -3.996474 -2.109354
v -3.697976 -3.996474 -2.109337
v -3.844792 -3.996474 -0.115412
v -3.697976 -3.996475 -0.001625
v -5.736493 -3.996472 -0.001625
v -3.844559 -3.996474 -1.483964
v -5.619657 -3.996474 -1.483964
v -3.844559 -3.996475 -1.338505
v -5.619657 -3.996475 -1.338505
v -3.844559 -3.996474 -2.110592
v -5.736492 -3.996473 -2.109887
v -3.844559 -3.996475 -1.951563
v -5.618766 -3.996470 -1.951562
v -3.844559 -3.996474 -0.491770
v -5.619828 -3.996475 -0.491770
v -3.844559 -3.996475 -0.391119
v -5.619828 -3.996476 -0.391119
v -5.618766 -3.996468 -0.115412
v -5.701435 -3.993902 1.648727
v -5.651331 -3.993902 1.648727
v -5.701435 -3.993902 1.697456
v -5.651331 -3.993902 1.697456
v -5.701435 -3.993902 0.848244
v -5.651331 -3.993902 0.848244
v -5.701435 -3.993902 0.896971
v -5.651331 -3.993902 0.896971
v -8.642387 0.019478 2.106497
v -12.509274 0.019481 2.106497
v -8.789204 0.099290 -0.001232
v -8.642387 0.099290 -0.001215
v -8.789204 0.027597 -0.001232
v -8.789204 0.099290 1.992710
v -8.642387 0.019478 -0.001215
v -8.642387 0.099289 2.106497
v -12.509274 0.099292 2.106497
v -8.789204 0.027597 1.992710
v -8.788971 0.019478 0.769617
v -12.392437 0.019477 0.769617
v -8.788971 0.099290 0.624158
v -12.392437 0.099290 0.624158
v -8.788971 0.099289 0.769617
v -12.392437 0.099289 0.769617
v -8.788971 0.019478 0.156559
v -12.391546 0.019482 0.156560
v -8.788971 0.099290 -0.002470
v -12.509274 0.099291 -0.001765
v -8.788971 0.099289 0.156559
v -12.391546 0.099294 0.156560
v -8.789204 0.027597 -0.001232
v -12.428089 0.027597 -0.001392
v -12.428089 0.027597 1.992710
v -8.789204 0.027597 1.992710
v -8.788971 0.019478 1.717003
v -12.392609 0.019477 1.717003
v -8.788971 0.099290 1.616352
v -12.392609 0.099289 1.616352
v -8.788971 0.099289 1.717003
v -12.392609 0.099288 1.717003
v -12.391546 0.099296 1.992710
v -12.391546 0.019485 1.992710
v -12.509274 0.019481 -0.001413
v -8.740803 0.101679 1.648727
v -8.690699 0.101679 1.648727
v -8.740803 0.101679 1.697456
v -8.690699 0.101679 1.697456
v -8.740803 0.101679 0.848244
v -8.690699 0.101679 0.848244
v -8.740803 0.101679 0.896971
v -8.690699 0.101679 0.896971
v -8.797268 -0.009902 1.561157
v -12.370567 -0.009902 1.561157
v -8.797268 -0.009902 0.858165
v -12.370567 -0.009902 0.858165
v -8.789219 0.099107 -2.109354
v -8.642403 0.099107 -2.109337
v -8.789219 0.099107 -0.115412
v -8.642403 0.099106 -0.001625
v -12.509289 0.099109 -0.001625
v -8.788986 0.099107 -1.483964
v -12.392452 0.099107 -1.483964
v -8.788986 0.099106 -1.338505
v -12.392452 0.099106 -1.338505
v -8.788986 0.099107 -2.110592
v -12.509289 0.099108 -2.109887
v -8.788986 0.099106 -1.951563
v -12.391562 0.099110 -1.951562
v -8.788986 0.099107 -0.491770
v -12.392624 0.099106 -0.491770
v -8.788986 0.099106 -0.391119
v -12.392624 0.099105 -0.391119
v -12.391562 0.099113 -0.115412
v -12.474230 0.101679 1.648727
v -12.424128 0.101679 1.648727
v -12.474230 0.101679 1.697456
v -12.424128 0.101679 1.697456
v -12.474230 0.101679 0.848244
v -12.424128 0.101679 0.848244
v -12.474230 0.101679 0.896971
v -12.424128 0.101679 0.896971
vt -0.647777 0.733508
vt -1.049294 0.733508
vt -1.049294 0.388660
vt 0.350863 0.648086
vt 0.350863 0.627580
vt -1.089481 0.739094
vt -0.585982 0.755260
vt -1.086260 0.388658
vt 0.350863 0.627580
vt 0.350999 0.623619
vt 0.350999 0.623619
vt 0.350999 0.644125
vt 0.350999 0.644125
vt 0.350863 0.648086
vt -1.086260 0.388658
vt -0.585982 0.755260
vt -1.089481 0.739094
vt -0.585982 0.755260
vt 0.350999 0.623619
vt 0.350999 0.644125
vt 0.350999 0.634660
vt 0.350999 0.623619
vt -0.585797 0.738765
vt -0.585797 0.738765
vt -0.585804 0.739374
vt -0.585982 0.755260
vt -0.585982 0.755260
vt -0.585982 0.755260
vt -0.585797 0.738765
vt -0.585804 0.739374
vt -0.647777 0.733508
vt -0.244533 8.996964
vt 0.211153 8.996984
vt 0.211153 12.028372
vt -0.244533 12.028353
vn 0.707107 0.000000 0.707107
vn -0.707107 0.000000 0.707106
vn -0.707133 0.707080 0.000000
vn 0.707081 0.707133 0.000000
vn -1.000000 0.000000 0.000000
vn -0.316225 0.948684 0.000003
vn -0.000000 1.000000 -0.000027
vn 1.000000 0.000000 0.000000
vn 0.577351 0.577348 0.577351
vn -0.577352 0.577346 0.577353
vn -1.000000 0.000000 0.000000
vn 0.000000 0.000000 1.000000
vn 0.000000 0.000000 1.000000
vn -0.000000 1.000000 0.000007
vn -0.000000 1.000000 0.000007
vn -0.000000 0.707105 0.707109
vn -0.000000 0.707104 0.707109
vn 0.000000 0.000000 1.000000
vn 0.707106 0.000000 0.707107
vn 0.000002 1.000000 0.000005
vn -0.706047 0.708165 -0.000006
vn 0.000002 0.707104 0.707109
vn 0.301504 0.904538 0.301506
vn -0.000000 1.000000 0.000000
vn -0.000000 1.000000 0.000000
vn -0.000000 1.000000 0.000000
vn -0.000000 1.000000 0.000000
vn 0.000000 0.000000 1.000000
vn 0.000000 0.000000 1.000000
vn -0.000000 1.000000 0.000009
vn -0.000000 1.000000 0.000009
vn -0.000000 0.707104 0.707110
vn -0.000000 0.707103 0.707110
vn -0.000006 1.000000 -0.000063
vn 0.316220 0.948686 0.000024
vn 1.000000 0.000000 -0.000000
vn -1.000000 0.000012 0.000000
vn -0.000000 1.000000 0.000000
vn -0.000000 1.000000 0.000000
vn -0.000000 1.000000 0.000000
vn -0.000000 1.000000 0.000000
vn -0.000000 1.000000 0.000000
vn -0.000000 1.000000 0.000000
vn -0.000000 1.000000 0.000000
vn -0.000000 1.000000 0.000000
vn -0.707107 0.000000 0.707106
vn 0.707106 0.000000 0.707107
vn 0.707133 0.707080 0.000000
vn -0.707080 0.707133 0.000000
vn 1.000000 0.000000 0.000000
vn 0.316225 0.948684 0.000004
vn 0.000000 1.000000 -0.000019
vn -1.000000 0.000000 0.000000
vn -0.577351 0.577348 0.577351
vn 0.577352 0.577346 0.577353
vn 1.000000 0.000000 0.000000
vn 0.000000 0.000000 1.000000
vn 0.000000 0.000000 1.000000
vn 0.000000 1.000000 0.000007
vn -0.000000 1.000000 0.000013
vn 0.000000 0.707105 0.707109
vn -0.000000 0.707102 0.707111
vn -0.000000 0.000000 1.000000
vn -0.707106 0.000000 0.707107
vn -0.000002 1.000000 0.000005
vn 0.706304 0.707908 -0.000007
vn -0.000001 0.707104 0.707109
vn -0.301503 0.904539 0.301505
vn -0.000000 1.000000 0.000000
vn -0.000000 1.000000 0.000000
vn -0.000000 1.000000 0.000000
vn -0.000000 1.000000 0.000000
vn 0.000000 0.000000 1.000000
vn 0.000000 0.000000 1.000000
vn 0.000000 1.000000 0.000010
vn -0.000000 1.000000 0.000019
vn 0.000000 0.707104 0.707109
vn -0.000000 0.707099 0.707114
vn 0.000006 1.000000 -0.000055
vn -0.316220 0.948686 0.000023
vn -1.000000 0.000000 -0.000000
vn 1.000000 0.000005 0.000000
vn -0.000000 1.000000 0.000000
vn -0.000000 1.000000 0.000000
vn -0.000000 1.000000 0.000000
vn -0.000000 1.000000 0.000000
vn -0.000000 1.000000 0.000000
vn -0.000000 1.000000 0.000000
vn -0.000000 1.000000 0.000000
vn -0.000000 1.000000 0.000000
vn 0.706674 0.000000 0.707540
vn 0.000000 0.000000 1.000000
vn -0.548570 0.836105 0.000000
vn 0.704996 0.709211 0.000002
vn -1.000000 0.000000 0.000000
vn -0.316224 0.948684 0.000002
vn 0.316236 0.948680 -0.000013
vn 1.000000 0.000000 0.000000
vn 0.577351 0.577348 0.577351
vn 0.000008 0.707111 0.707103
vn -1.000000 0.000000 0.000000
vn 0.000000 0.000000 1.000000
vn 0.000000 0.000000 1.000000
vn 0.000004 1.000000 0.000003
vn -0.000000 0.827767 0.561073
vn 0.301515 0.904532 0.301513
vn 0.001912 0.999997 -0.001274
vn -0.000000 1.000000 0.000000
vn 0.001143 0.999999 -0.000762
vn 1.000000 0.000000 0.000000
vn 1.000000 0.000000 0.000000
vn 0.003056 0.999993 -0.002036
vn 0.000000 1.000000 0.000000
vn 0.000000 1.000000 0.000000
vn 0.000000 1.000000 0.000000
vn 0.000000 1.000000 0.000000
vn 0.000000 0.000000 1.000000
vn 0.000000 0.000000 1.000000
vn -0.000000 1.000000 0.000006
vn -0.000000 1.000000 0.000006
vn -0.000000 0.707105 0.707109
vn -0.000000 0.707105 0.707109
vn 0.000000 1.000000 0.000000
vn 0.000000 1.000000 0.000000
vn 0.000000 1.000000 0.000000
vn 0.000000 1.000000 0.000000
vn 0.000000 1.000000 0.000000
vn 0.000000 1.000000 0.000000
vn 0.000000 1.000000 0.000000
vn 0.000000 1.000000 0.000000
vn -0.000000 1.000000 0.000000
vn 0.000000 1.000000 0.000000
vn 0.000004 1.000000 0.000004
vn 0.000004 1.000000 0.000003
vn -0.000015 1.000000 0.000016
vn -0.000000 1.000000 0.000007
vn -0.000000 1.000000 0.000007
vn -0.000000 1.000000 0.000007
vn -0.000000 1.000000 0.000007
vn 0.000002 1.000000 0.000005
vn -0.000007 1.000000 -0.000009
vn 0.000002 1.000000 0.000006
vn -0.000010 1.000000 -0.000007
vn -0.000000 1.000000 0.000009
vn -0.000000 1.000000 0.000009
vn -0.000000 1.000000 0.000009
vn -0.000000 1.000000 0.000009
vn -0.000015 1.000000 0.000018
vn -0.000000 1.000000 0.000000
vn -0.000000 1.000000 0.000000
vn -0.000003 1.000000 0.000004
vn -0.000004 1.000000 0.000003
vn 0.000016 1.000000 0.000016
vn 0.000000 1.000000 0.000007
vn -0.000000 1.000000 0.000013
vn 0.000000 1.000000 0.000007
vn -0.000000 1.000000 0.000013
vn -0.000002 1.000000 0.000005
vn 0.000009 1.000000 -0.000010
vn -0.000002 1.000000 0.000006
vn 0.000012 1.000000 -0.000008
vn 0.000000 1.000000 0.000010
vn -0.000000 1.000000 0.000019
vn 0.000000 1.000000 0.000009
vn -0.000000 1.000000 0.000019
vn 0.000015 1.000000 0.000017
vn -0.000000 1.000000 0.000000
vn 0.000000 1.000000 0.000003
vn 0.000004 1.000000 0.000003
vn 0.000010 1.000000 -0.000013
vn 0.000005 1.000000 0.000002
vn 0.000011 1.000000 -0.000010
vn 0.000004 1.000000 0.000003
vn -0.000000 1.000000 0.000006
vn 0.000005 1.000000 0.000002
vn -0.000000 1.000000 0.000006
vn -0.000000 1.000000 0.000006
vn -0.000000 1.000000 0.000006
vn -0.000000 1.000000 0.000006
vn 0.707107 0.000000 0.707107
vn -0.707107 0.000000 0.707107
vn -0.707133 0.707080 0.000000
vn 0.707081 0.707133 0.000000
vn -1.000000 0.000000 0.000000
vn -0.316225 0.948684 0.000003
vn -0.000000 1.000000 -0.000027
vn 1.000000 0.000000 0.000000
vn 0.577351 0.577349 0.577351
vn -0.577352 0.577346 0.577353
vn -1.000000 0.000000 0.000000
vn 0.000000 0.000000 1.000000
vn 0.000000 0.000000 1.000000
vn -0.000000 1.000000 0.000007
vn -0.000000 1.000000 0.000007
vn -0.000000 0.707104 0.707109
vn -0.000000 0.707104 0.707109
vn 0.000000 0.000000 1.000000
vn 0.707106 0.000000 0.707107
vn 0.000002 1.000000 0.000005
vn -0.706047 0.708165 -0.000006
vn 0.000002 0.707104 0.707109
vn 0.301504 0.904538 0.301506
vn -0.000000 1.000000 0.000000
vn -0.000000 1.000000 0.000000
vn -0.000000 1.000000 0.000000
vn -0.000000 1.000000 0.000000
vn 0.000000 0.000000 1.000000
vn 0.000000 0.000000 1.000000
vn -0.000000 1.000000 0.000009
vn -0.000000 1.000000 0.000009
vn -0.000000 0.707103 0.707111
vn -0.000000 0.707103 0.707110
vn -0.000006 1.000000 -0.000063
vn 0.316220 0.948686 0.000024
vn 1.000000 0.000000 -0.000000
vn -1.000000 0.000012 0.000000
vn -0.000000 1.000000 0.000000
vn -0.000000 1.000000 0.000000
vn -0.000000 1.000000 0.000000
vn -0.000000 1.000000 0.000000
vn -0.000000 1.000000 0.000000
vn -0.000000 1.000000 0.000000
vn -0.000000 1.000000 0.000000
vn -0.000000 1.000000 0.000000
vn -0.707107 0.000000 0.707106
vn 0.707106 0.000000 0.707107
vn 0.707133 0.707080 0.000000
vn -0.707080 0.707133 0.000000
vn 1.000000 0.000000 0.000000
vn 0.316225 0.948684 0.000003
vn 0.000000 1.000000 -0.000018
vn -1.000000 0.000000 0.000000
vn -0.577351 0.577349 0.577351
vn 0.577352 0.577345 0.577353
vn 1.000000 0.000000 0.000000
vn 0.000000 0.000000 1.000000
vn 0.000000 0.000000 1.000000
vn 0.000000 1.000000 0.000007
vn -0.000000 1.000000 0.000013
vn 0.000000 0.707104 0.707109
vn -0.000000 0.707102 0.707111
vn -0.000000 0.000000 1.000000
vn -0.707106 0.000000 0.707107
vn -0.000003 1.000000 0.000005
vn 0.706267 0.707946 -0.000007
vn -0.000002 0.707104 0.707110
vn -0.301503 0.904539 0.301505
vn -0.000000 1.000000 0.000000
vn -0.000000 1.000000 0.000000
vn -0.000000 1.000000 0.000000
vn -0.000000 1.000000 0.000000
vn 0.000000 0.000000 1.000000
vn 0.000000 0.000000 1.000000
vn 0.000000 1.000000 0.000010
vn -0.000000 1.000000 0.000019
vn 0.000000 0.707103 0.707110
vn -0.000000 0.707100 0.707113
vn 0.000006 1.000000 -0.000055
vn -0.316220 0.948686 0.000023
vn -1.000000 0.000000 -0.000000
vn 1.000000 0.000006 0.000000
vn -0.000000 1.000000 0.000000
vn -0.000000 1.000000 0.000000
vn -0.000000 1.000000 0.000000
vn -0.000000 1.000000 0.000000
vn -0.000000 1.000000 0.000000
vn -0.000000 1.000000 0.000000
vn -0.000000 1.000000 0.000000
vn -0.000000 1.000000 0.000000
vn 0.706674 0.000000 0.707540
vn 0.000000 0.000000 1.000000
vn -0.548570 0.836105 0.000000
vn 0.704996 0.709211 0.000002
vn -1.000000 0.000000 0.000000
vn -0.316224 0.948684 0.000002
vn 0.316236 0.948680 -0.000013
vn 1.000000 0.000000 0.000000
vn 0.577351 0.577349 0.577351
vn 0.000008 0.707111 0.707103
vn -1.000000 0.000000 0.000000
vn 0.000000 0.000000 1.000000
vn 0.000000 0.000000 1.000000
vn 0.000004 1.000000 0.000003
vn -0.000000 0.827767 0.561072
vn 0.301515 0.904532 0.301513
vn 0.001912 0.999997 -0.001274
vn -0.000000 1.000000 0.000000
vn 0.001143 0.999999 -0.000762
vn 1.000000 0.000000 0.000000
vn 1.000000 0.000000 0.000000
vn 0.003056 0.999993 -0.002036
vn 0.000000 1.000000 0.000000
vn 0.000000 1.000000 0.000000
vn 0.000000 1.000000 0.000000
vn 0.000000 1.000000 0.000000
vn 0.000000 0.000000 1.000000
vn 0.000000 0.000000 1.000000
vn -0.000000 1.000000 0.000006
vn -0.000000 1.000000 0.000006
vn -0.000000 0.707105 0.707109
vn -0.000000 0.707105 0.707109
vn 0.000000 1.000000 0.000000
vn 0.000000 1.000000 0.000000
vn 0.000000 1.000000 0.000000
vn 0.000000 1.000000 0.000000
vn 0.000000 1.000000 0.000000
vn 0.000000 1.000000 0.000000
vn 0.000000 1.000000 0.000000
vn 0.000000 1.000000 0.000000
vn -0.000000 1.000000 0.000000
vn 0.000000 1.000000 0.000000
vn 0.000004 1.000000 0.000004
vn 0.000004 1.000000 0.000003
vn -0.000015 1.000000 0.000016
vn -0.000000 1.000000 0.000007
vn -0.000000 1.000000 0.000007
vn -0.000000 1.000000 0.000007
vn -0.000000 1.000000 0.000007
vn 0.000002 1.000000 0.000005
vn -0.000007 1.000000 -0.000009
vn 0.000002 1.000000 0.000006
vn -0.000010 1.000000 -0.000007
vn -0.000000 1.000000 0.000009
vn -0.000000 1.000000 0.000009
vn -0.000000 1.000000 0.000009
vn -0.000000 1.000000 0.000009
vn -0.000015 1.000000 0.000018
vn -0.000000 1.000000 0.000000
vn -0.000000 1.000000 0.000000
vn -0.000004 1.000000 0.000004
vn -0.000004 1.000000 0.000003
vn 0.000015 1.000000 0.000016
vn 0.000000 1.000000 0.000007
vn -0.000000 1.000000 0.000013
vn 0.000000 1.000000 0.000007
vn -0.000000 1.000000 0.000013
vn -0.000003 1.000000 0.000005
vn 0.000008 1.000000 -0.000010
vn -0.000003 1.000000 0.000006
vn 0.000011 1.000000 -0.000008
vn 0.000000 1.000000 0.000010
vn -0.000000 1.000000 0.000019
vn 0.000000 1.000000 0.000009
vn -0.000000 1.000000 0.000019
vn 0.000015 1.000000 0.000018
vn -0.000000 1.000000 0.000000
vn 0.000000 1.000000 0.000003
vn 0.000004 1.000000 0.000003
vn 0.000010 1.000000 -0.000013
vn 0.000005 1.000000 0.000002
vn 0.000011 1.000000 -0.000010
vn 0.000004 1.000000 0.000003
vn -0.000000 1.000000 0.000006
vn 0.000005 1.000000 0.000002
vn -0.000000 1.000000 0.000006
vn -0.000000 1.000000 0.000006
vn -0.000000 1.000000 0.000006
vn -0.000000 1.000000 0.000006
vn 0.707107 0.000000 0.707107
vn -0.707107 0.000000 0.707107
vn -0.707133 0.707080 0.000000
vn 0.707081 0.707133 0.000000
vn -1.000000 0.000000 0.000000
vn -0.316225 0.948684 0.000004
vn 1.000000 0.000000 0.000000
vn 0.577351 0.577349 0.577351
vn -0.577353 0.577344 0.577353
vn -1.000000 0.000000 0.000000
vn 0.000000 0.000000 1.000000
vn 0.000000 0.000000 1.000000
vn 0.000000 1.000000 0.000007
vn 0.000000 1.000000 0.000007
vn 0.000000 0.707105 0.707109
vn 0.000000 0.707105 0.707109
vn 0.000000 0.000000 1.000000
vn 0.707106 0.000000 0.707108
vn 0.000003 1.000000 0.000005
vn -0.706028 0.708184 -0.000007
vn 0.000002 0.707104 0.707109
vn 0.301504 0.904538 0.301506
vn 0.000000 1.000000 0.000000
vn 0.000000 1.000000 0.000000
vn 0.000000 1.000000 0.000000
vn 0.000000 1.000000 0.000000
vn 0.000000 0.000000 1.000000
vn 0.000000 0.000000 1.000000
vn -0.000000 1.000000 0.000009
vn -0.000000 1.000000 0.000009
vn -0.000000 0.707103 0.707110
vn -0.000000 0.707103 0.707110
vn 0.316215 0.948688 0.000017
vn 1.000000 0.000000 0.000000
vn -1.000000 0.000012 0.000000
vn 0.000000 1.000000 0.000000
vn 0.000000 1.000000 0.000000
vn 0.000000 1.000000 0.000000
vn 0.000000 1.000000 0.000000
vn 0.000000 1.000000 0.000000
vn 0.000000 1.000000 0.000000
vn 0.000000 1.000000 0.000000
vn 0.000000 1.000000 0.000000
vn 0.000000 1.000000 0.000000
vn 0.000000 1.000000 0.000000
vn 0.000000 1.000000 0.000000
vn 0.000000 1.000000 0.000000
vn 0.000000 1.000000 0.000000
vn 0.000000 1.000000 0.000000
vn 0.000004 1.000000 0.000004
vn 0.000004 1.000000 0.000003
vn -0.000015 1.000000 0.000016
vn 0.000000 1.000000 0.000007
vn 0.000000 1.000000 0.000007
vn 0.000000 1.000000 0.000007
vn 0.000000 1.000000 0.000007
vn 0.000003 1.000000 0.000005
vn -0.000008 1.000000 -0.000009
vn 0.000003 1.000000 0.000006
vn -0.000010 1.000000 -0.000007
vn -0.000000 1.000000 0.000009
vn -0.000000 1.000000 0.000009
vn -0.000000 1.000000 0.000009
vn -0.000000 1.000000 0.000009
vn -0.000015 1.000000 0.000018
vn 0.707107 0.000000 0.707107
vn -0.707107 0.000000 0.707106
vn -0.707133 0.707080 0.000000
vn 0.707081 0.707133 0.000000
vn -1.000000 0.000000 0.000000
vn -0.316225 0.948684 0.000004
vn 1.000000 0.000000 0.000000
vn 0.577351 0.577348 0.577351
vn -0.577353 0.577344 0.577353
vn -1.000000 0.000000 0.000000
vn 0.000000 0.000000 1.000000
vn 0.000000 0.000000 1.000000
vn 0.000000 1.000000 0.000007
vn 0.000000 1.000000 0.000007
vn 0.000000 0.707105 0.707109
vn 0.000000 0.707104 0.707109
vn 0.000000 0.000000 1.000000
vn 0.707106 0.000000 0.707107
vn 0.000002 1.000000 0.000005
vn -0.706052 0.708161 -0.000007
vn 0.000002 0.707105 0.707109
vn 0.301504 0.904538 0.301506
vn 0.000000 1.000000 0.000000
vn 0.000000 1.000000 0.000000
vn 0.000000 1.000000 0.000000
vn 0.000000 1.000000 0.000000
vn 0.000000 0.000000 1.000000
vn 0.000000 0.000000 1.000000
vn -0.000000 1.000000 0.000009
vn -0.000000 1.000000 0.000009
vn -0.000000 0.707103 0.707111
vn -0.000000 0.707103 0.707110
vn 0.316214 0.948688 0.000017
vn 1.000000 0.000000 0.000000
vn -1.000000 0.000012 0.000000
vn 0.000000 1.000000 0.000000
vn 0.000000 1.000000 0.000000
vn 0.000000 1.000000 0.000000
vn 0.000000 1.000000 0.000000
vn 0.000000 1.000000 0.000000
vn 0.000000 1.000000 0.000000
vn 0.000000 1.000000 0.000000
vn 0.000000 1.000000 0.000000
vn 0.000000 1.000000 0.000000
vn 0.000000 1.000000 0.000000
vn 0.000000 1.000000 0.000000
vn 0.000000 1.000000 0.000000
vn 0.000000 1.000000 0.000000
vn 0.000000 1.000000 0.000000
vn 0.000003 1.000000 0.000004
vn 0.000004 1.000000 0.000003
vn -0.000015 1.000000 0.000016
vn 0.000000 1.000000 0.000007
vn 0.000000 1.000000 0.000007
vn 0.000000 1.000000 0.000007
vn 0.000000 1.000000 0.000007
vn 0.000002 1.000000 0.000005
vn -0.000008 1.000000 -0.000009
vn 0.000002 1.000000 0.000006
vn -0.000010 1.000000 -0.000007
vn -0.000000 1.000000 0.000009
vn -0.000000 1.000000 0.000009
vn -0.000000 1.000000 0.000009
vn -0.000000 1.000000 0.000009
vn -0.000015 1.000000 0.000018
vn 0.707107 0.000000 0.707107
vn -0.707107 0.000000 0.707107
vn -0.707133 0.707080 0.000000
vn 0.707081 0.707133 0.000000
vn -1.000000 0.000000 0.000000
vn -0.316225 0.948684 0.000004
vn 1.000000 0.000000 0.000000
vn 0.577351 0.577349 0.577351
vn -0.577353 0.577344 0.577353
vn -1.000000 0.000000 0.000000
vn 0.000000 0.000000 1.000000
vn 0.000000 0.000000 1.000000
vn 0.000000 1.000000 0.000007
vn 0.000000 1.000000 0.000007
vn 0.000000 0.707105 0.707109
vn 0.000000 0.707105 0.707109
vn 0.000000 0.000000 1.000000
vn 0.707106 0.000000 0.707108
vn 0.000003 1.000000 0.000005
vn -0.706028 0.708184 -0.000007
vn 0.000002 0.707104 0.707109
vn 0.301504 0.904538 0.301506
vn 0.000000 1.000000 0.000000
vn 0.000000 1.000000 0.000000
vn 0.000000 1.000000 0.000000
vn 0.000000 1.000000 0.000000
vn 0.000000 0.000000 1.000000
vn 0.000000 0.000000 1.000000
vn -0.000000 1.000000 0.000009
vn -0.000000 1.000000 0.000009
vn -0.000000 0.707103 0.707110
vn -0.000000 0.707103 0.707110
vn 0.316215 0.948688 0.000017
vn 1.000000 0.000000 0.000000
vn -1.000000 0.000012 0.000000
vn 0.000000 1.000000 0.000000
vn 0.000000 1.000000 0.000000
vn 0.000000 1.000000 0.000000
vn 0.000000 1.000000 0.000000
vn 0.000000 1.000000 0.000000
vn 0.000000 1.000000 0.000000
vn 0.000000 1.000000 0.000000
vn 0.000000 1.000000 0.000000
vn 0.000000 1.000000 0.000000
vn 0.000000 1.000000 0.000000
vn 0.000000 1.000000 0.000000
vn 0.000000 1.000000 0.000000
vn 0.000000 1.000000 0.000000
vn 0.000000 1.000000 0.000000
vn 0.000004 1.000000 0.000004
vn 0.000004 1.000000 0.000003
vn -0.000015 1.000000 0.000016
vn 0.000000 1.000000 0.000007
vn 0.000000 1.000000 0.000007
vn 0.000000 1.000000 0.000007
vn 0.000000 1.000000 0.000007
vn 0.000003 1.000000 0.000005
vn -0.000008 1.000000 -0.000009
vn 0.000003 1.000000 0.000006
vn -0.000010 1.000000 -0.000007
vn -0.000000 1.000000 0.000009
vn -0.000000 1.000000 0.000009
vn -0.000000 1.000000 0.000009
vn -0.000000 1.000000 0.000009
vn -0.000015 1.000000 0.000018
vn 0.000000 1.000000 0.000000
vn 0.000000 1.000000 0.000000
vn 0.000000 1.000000 0.000000
vn 0.000000 1.000000 0.000000
vn 0.000000 1.000000 0.000000
vn 0.000000 1.000000 0.000000
vn 0.000000 1.000000 0.000000
vn 0.000000 1.000000 0.000000
vn 0.000000 1.000000 0.000000
vn 0.000000 1.000000 0.000000
vn 0.000000 1.000000 0.000000
vn 0.000000 1.000000 0.000000
vn 0.000000 1.000000 0.000000
vn 0.000000 1.000000 0.000000
vn 0.000000 1.000000 0.000000
vn 0.000000 1.000000 0.000000
vn 0.000000 1.000000 0.000000
vn 0.000000 1.000000 0.000000
vn 0.000000 1.000000 0.000000
vn 0.000000 1.000000 0.000000
vn 0.000000 1.000000 0.000000
vn 0.000000 1.000000 0.000000
vn 0.000000 1.000000 0.000000
vn 0.000000 1.000000 0.000000
vn 0.707107 0.000000 0.707107
vn -0.707107 0.000000 0.707107
vn -0.707133 0.707080 0.000000
vn 0.707081 0.707133 0.000000
vn -1.000000 0.000000 0.000000
vn -0.316225 0.948684 0.000004
vn 1.000000 0.000000 0.000000
vn 0.577351 0.577349 0.577351
vn -0.577353 0.577345 0.577353
vn -1.000000 0.000000 0.000000
vn 0.000000 0.000000 1.000000
vn 0.000000 0.000000 1.000000
vn 0.000000 1.000000 0.000007
vn 0.000000 1.000000 0.000007
vn 0.000000 0.707104 0.707109
vn 0.000000 0.707104 0.707109
vn 0.000000 0.000000 1.000000
vn 0.707106 0.000000 0.707108
vn 0.000003 1.000000 0.000005
vn -0.706028 0.708184 -0.000007
vn 0.000002 0.707104 0.707109
vn 0.301504 0.904538 0.301506
vn 0.000000 1.000000 0.000000
vn 0.000000 1.000000 0.000000
vn 0.000000 1.000000 0.000000
vn 0.000000 1.000000 0.000000
vn 0.000000 0.000000 1.000000
vn 0.000000 0.000000 1.000000
vn -0.000000 1.000000 0.000009
vn -0.000000 1.000000 0.000009
vn -0.000000 0.707104 0.707110
vn -0.000000 0.707103 0.707110
vn 0.316215 0.948688 0.000017
vn 1.000000 0.000000 0.000000
vn -1.000000 0.000012 0.000000
vn 0.000000 1.000000 0.000000
vn 0.000000 1.000000 0.000000
vn 0.000000 1.000000 0.000000
vn 0.000000 1.000000 0.000000
vn 0.000000 1.000000 0.000000
vn 0.000000 1.000000 0.000000
vn 0.000000 1.000000 0.000000
vn 0.000000 1.000000 0.000000
vn 0.000000 1.000000 0.000000
vn 0.000000 1.000000 0.000000
vn 0.000000 1.000000 0.000000
vn 0.000000 1.000000 0.000000
vn 0.000000 1.000000 0.000000
vn 0.000000 1.000000 0.000000
vn 0.000004 1.000000 0.000004
vn 0.000004 1.000000 0.000003
vn -0.000015 1.000000 0.000016
vn 0.000000 1.000000 0.000007
vn 0.000000 1.000000 0.000007
vn 0.000000 1.000000 0.000007
vn 0.000000 1.000000 0.000007
vn 0.000003 1.000000 0.000005
vn -0.000008 1.000000 -0.000009
vn 0.000003 1.000000 0.000006
vn -0.000010 1.000000 -0.000007
vn -0.000000 1.000000 0.000009
vn -0.000000 1.000000 0.000009
vn -0.000000 1.000000 0.000009
vn -0.000000 1.000000 0.000009
vn -0.000015 1.000000 0.000018
vn 0.000000 1.000000 0.000000
vn 0.000000 1.000000 0.000000
vn 0.000000 1.000000 0.000000
vn 0.000000 1.000000 0.000000
vn 0.000000 1.000000 0.000000
vn 0.000000 1.000000 0.000000
vn 0.000000 1.000000 0.000000
vn 0.000000 1.000000 0.000000
vn 0.707107 0.000000 0.707107
vn -0.707107 0.000000 0.707107
vn -0.707133 0.707080 0.000000
vn 0.707081 0.707133 0.000000
vn -1.000000 0.000000 0.000000
vn -0.316225 0.948684 0.000004
vn 1.000000 0.000000 0.000000
vn 0.577351 0.577349 0.577351
vn -0.577353 0.577344 0.577353
vn -1.000000 0.000000 0.000000
vn 0.000000 0.000000 1.000000
vn 0.000000 0.000000 1.000000
vn 0.000000 1.000000 0.000007
vn 0.000000 1.000000 0.000007
vn 0.000000 0.707104 0.707109
vn 0.000000 0.707104 0.707109
vn 0.000000 0.000000 1.000000
vn 0.707106 0.000000 0.707107
vn 0.000001 1.000000 0.000005
vn -0.706073 0.708139 -0.000007
vn 0.000001 0.707105 0.707109
vn 0.301504 0.904538 0.301506
vn 0.000000 1.000000 0.000000
vn 0.000000 1.000000 0.000000
vn 0.000000 1.000000 0.000000
vn 0.000000 1.000000 0.000000
vn 0.000000 0.000000 1.000000
vn 0.000000 0.000000 1.000000
vn -0.000000 1.000000 0.000009
vn -0.000000 1.000000 0.000009
vn -0.000000 0.707104 0.707109
vn -0.000000 0.707103 0.707110
vn 0.316214 0.948688 0.000016
vn 1.000000 0.000000 0.000000
vn -1.000000 0.000000 0.000000
vn 0.000000 1.000000 0.000000
vn 0.000000 1.000000 0.000000
vn 0.000000 1.000000 0.000000
vn 0.000000 1.000000 0.000000
vn 0.000000 1.000000 0.000000
vn 0.000000 1.000000 0.000000
vn 0.000000 1.000000 0.000000
vn 0.000000 1.000000 0.000000
vn 0.000000 1.000000 0.000000
vn 0.000000 1.000000 0.000000
vn 0.000000 1.000000 0.000000
vn 0.000000 1.000000 0.000000
vn 0.000000 1.000000 0.000000
vn 0.000000 1.000000 0.000000
vn 0.000003 1.000000 0.000004
vn 0.000004 1.000000 0.000003
vn -0.000016 1.000000 0.000016
vn 0.000000 1.000000 0.000007
vn 0.000000 1.000000 0.000007
vn 0.000000 1.000000 0.000007
vn 0.000000 1.000000 0.000007
vn 0.000001 1.000000 0.000005
vn -0.000008 1.000000 -0.000009
vn 0.000001 1.000000 0.000006
vn -0.000010 1.000000 -0.000007
vn -0.000000 1.000000 0.000009
vn -0.000000 1.000000 0.000009
vn -0.000000 1.000000 0.000009
vn -0.000000 1.000000 0.000009
vn -0.000016 1.000000 0.000017
vn 0.000000 1.000000 0.000000
vn 0.000000 1.000000 0.000000
vn 0.000000 1.000000 0.000000
vn 0.000000 1.000000 0.000000
vn 0.000000 1.000000 0.000000
vn 0.000000 1.000000 0.000000
vn 0.000000 1.000000 0.000000
vn 0.000000 1.000000 0.000000
g fff0a81b_00251_00644aee_e0
f 54/17/54 47/7/47 55/18/55
f 47/7/47 54/17/54 46/6/46
f 47/7/47 66/27/66 55/18/55
f 92/7/92 91/6/91 99/17/99
f 58/7/58 61/17/61 57/6/57
f 61/17/61 58/7/58 62/18/62
f 74/7/74 77/17/77 73/6/73
f 77/17/77 74/7/74 78/18/78
f 2/7/2 1/6/1 9/17/9
f 9/17/9 10/18/10 2/7/2
f 13/7/13 12/6/12 16/17/16
f 16/17/16 17/18/17 13/7/13
f 32/17/32 33/18/33 29/7/29
f 29/7/29 28/6/28 32/17/32
f 67/17/67 64/7/64 68/18/68
f 66/27/66 47/7/47 82/26/82
f 103/7/103 102/6/102 105/17/105
f 105/17/105 106/18/106 103/7/103
f 64/7/64 67/17/67 63/6/63
f 99/17/99 100/18/100 92/7/92
f 22/17/22 23/18/23 19/7/19
f 19/7/19 18/6/18 22/17/22
f 2/7/2 10/18/10 21/27/21
f 21/27/21 37/26/37 2/7/2
f 121/17/121 122/18/122 118/7/118
f 118/7/118 117/6/117 121/17/121
f 233/17/233 226/7/226 234/18/234
f 226/7/226 233/17/233 225/6/225
f 226/7/226 245/27/245 234/18/234
f 271/7/271 270/6/270 278/17/278
f 237/7/237 240/17/240 236/6/236
f 240/17/240 237/7/237 241/18/241
f 253/7/253 256/17/256 252/6/252
f 256/17/256 253/7/253 257/18/257
f 181/7/181 180/6/180 188/17/188
f 188/17/188 189/18/189 181/7/181
f 192/7/192 191/6/191 195/17/195
f 195/17/195 196/18/196 192/7/192
f 211/17/211 212/18/212 208/7/208
f 208/7/208 207/6/207 211/17/211
f 246/17/246 243/7/243 247/18/247
f 245/27/245 226/7/226 261/26/261
f 282/7/282 281/6/281 284/17/284
f 284/17/284 285/18/285 282/7/282
f 243/7/243 246/17/246 242/6/242
f 278/17/278 279/18/279 271/7/271
f 201/17/201 202/18/202 198/7/198
f 198/7/198 197/6/197 201/17/201
f 181/7/181 189/18/189 200/27/200
f 200/27/200 216/26/216 181/7/181
f 300/17/300 301/18/301 297/7/297
f 297/7/297 296/6/296 300/17/300
f 360/7/360 359/6/359 366/17/366
f 366/17/366 367/18/367 360/7/360
f 370/7/370 369/6/369 373/17/373
f 373/17/373 374/18/374 370/7/370
f 389/17/389 390/18/390 386/7/386
f 386/7/386 385/6/385 389/17/389
f 379/17/379 380/18/380 376/7/376
f 376/7/376 375/6/375 379/17/379
f 360/7/360 367/18/367 378/27/378
f 378/27/378 393/26/393 360/7/360
f 425/7/425 424/6/424 431/17/431
f 431/17/431 432/18/432 425/7/425
f 435/7/435 434/6/434 438/17/438
f 438/17/438 439/18/439 435/7/435
f 454/17/454 455/18/455 451/7/451
f 451/7/451 450/6/450 454/17/454
f 444/17/444 445/18/445 441/7/441
f 441/7/441 440/6/440 444/17/444
f 425/7/425 432/18/432 443/27/443
f 443/27/443 458/26/458 425/7/425
f 490/7/490 489/6/489 496/17/496
f 496/17/496 497/18/497 490/7/490
f 500/7/500 499/6/499 503/17/503
f 503/17/503 504/18/504 500/7/500
f 519/17/519 520/18/520 516/7/516
f 516/7/516 515/6/515 519/17/519
f 509/17/509 510/18/510 506/7/506
f 506/7/506 505/6/505 509/17/509
f 490/7/490 497/18/497 508/27/508
f 508/27/508 523/26/523 490/7/490
f 579/7/579 578/6/578 585/17/585
f 585/17/585 586/18/586 579/7/579
f 589/7/589 588/6/588 592/17/592
f 592/17/592 593/18/593 589/7/589
f 608/17/608 609/18/609 605/7/605
f 605/7/605 604/6/604 608/17/608
f 598/17/598 599/18/599 595/7/595
f 595/7/595 594/6/594 598/17/598
f 579/7/579 586/18/586 597/27/597
f 597/27/597 612/26/612 579/7/579
f 652/7/652 651/6/651 658/17/658
f 658/17/658 659/18/659 652/7/652
f 662/7/662 661/6/661 665/17/665
f 665/17/665 666/18/666 662/7/662
f 681/17/681 682/18/682 678/7/678
f 678/7/678 677/6/677 681/17/681
f 671/17/671 672/18/672 668/7/668
f 668/7/668 667/6/667 671/17/671
f 652/7/652 659/18/659 670/27/670
f 670/27/670 685/26/685 652/7/652
g fff0a81b_00251_00644aee_e1
f 6/2/6 10/18/10 9/17/9
f 59/2/59 62/7/62 60/1/60
f 4/15/4 6/2/6 9/17/9
f 59/2/59 61/17/61 62/18/62
f 3/3/3 6/2/6 4/8/4
f 6/2/6 7/1/7 10/7/10
f 20/2/20 23/18/23 22/17/22
f 20/2/20 21/1/21 23/7/23
f 30/2/30 33/18/33 32/17/32
f 30/2/30 31/1/31 33/7/33
f 14/2/14 17/18/17 16/17/16
f 14/2/14 15/1/15 17/7/17
f 34/23/34 10/16/10 7/1/7
f 10/16/10 34/23/34 35/24/35
f 10/16/10 35/24/35 23/29/23
f 23/29/23 21/28/21 10/16/10
f 55/16/55 68/29/68 80/24/80
f 68/29/68 55/16/55 66/28/66
f 100/1/100 106/1/106 104/1/104
f 106/1/106 100/1/100 97/1/97
f 94/2/94 104/1/104 106/7/106
f 94/2/94 106/18/106 105/17/105
f 96/2/96 97/1/97 100/7/100
f 93/3/93 96/2/96 94/8/94
f 94/15/94 96/2/96 99/17/99
f 96/2/96 100/18/100 99/17/99
f 51/2/51 54/17/54 55/18/55
f 55/16/55 80/24/80 79/23/79
f 49/15/49 54/17/54 51/2/51
f 79/23/79 52/1/52 55/16/55
f 48/3/48 49/8/49 51/2/51
f 51/2/51 55/7/55 52/1/52
f 65/2/65 67/17/67 68/18/68
f 65/2/65 68/7/68 66/1/66
f 75/2/75 77/17/77 78/18/78
f 75/2/75 78/7/78 76/1/76
f 119/2/119 122/18/122 121/17/121
f 119/2/119 120/1/120 122/7/122
f 133/2/133 135/18/135 134/17/134
f 154/2/154 157/7/157 155/1/155
f 132/15/132 133/2/133 134/17/134
f 154/2/154 156/17/156 157/18/157
f 131/3/131 133/2/133 132/8/132
f 133/2/133 148/1/148 135/7/135
f 140/2/140 143/18/143 142/17/142
f 140/2/140 141/1/141 143/7/143
f 144/2/144 147/18/147 146/17/146
f 144/2/144 145/1/145 147/7/147
f 136/2/136 139/18/139 138/17/138
f 136/2/136 137/1/137 139/7/139
f 176/2/176 177/1/177 179/7/179
f 176/2/176 179/18/179 178/17/178
f 135/16/135 148/24/148 143/29/143
f 143/29/143 141/28/141 135/16/135
f 153/16/153 161/29/161 166/24/166
f 161/29/161 153/16/153 159/28/159
f 172/1/172 175/1/175 173/1/173
f 175/1/175 172/1/172 170/1/170
f 168/2/168 173/1/173 175/7/175
f 168/2/168 175/18/175 174/17/174
f 169/2/169 170/1/170 172/7/172
f 167/3/167 169/2/169 168/8/168
f 168/15/168 169/2/169 171/17/171
f 169/2/169 172/18/172 171/17/171
f 151/2/151 152/17/152 153/18/153
f 162/2/162 164/17/164 165/18/165
f 150/15/150 152/17/152 151/2/151
f 162/2/162 165/7/165 163/1/163
f 149/3/149 150/8/150 151/2/151
f 151/2/151 153/7/153 166/1/166
f 158/2/158 160/17/160 161/18/161
f 158/2/158 161/7/161 159/1/159
f 185/2/185 189/18/189 188/17/188
f 238/2/238 241/7/241 239/1/239
f 183/15/183 185/2/185 188/17/188
f 238/2/238 240/17/240 241/18/241
f 182/3/182 185/2/185 183/8/183
f 185/2/185 186/1/186 189/7/189
f 199/2/199 202/18/202 201/17/201
f 199/2/199 200/1/200 202/7/202
f 209/2/209 212/18/212 211/17/211
f 209/2/209 210/1/210 212/7/212
f 193/2/193 196/18/196 195/17/195
f 193/2/193 194/1/194 196/7/196
f 213/23/213 189/16/189 186/1/186
f 189/16/189 213/23/213 214/24/214
f 189/16/189 214/24/214 202/29/202
f 202/29/202 200/28/200 189/16/189
f 234/16/234 247/29/247 259/24/259
f 247/29/247 234/16/234 245/28/245
f 279/1/279 285/1/285 283/1/283
f 285/1/285 279/1/279 276/1/276
f 273/2/273 283/1/283 285/7/285
f 273/2/273 285/18/285 284/17/284
f 275/2/275 276/1/276 279/7/279
f 272/3/272 275/2/275 273/8/273
f 273/15/273 275/2/275 278/17/278
f 275/2/275 279/18/279 278/17/278
f 230/2/230 233/17/233 234/18/234
f 234/16/234 259/24/259 258/23/258
f 228/15/228 233/17/233 230/2/230
f 258/23/258 231/1/231 234/16/234
f 227/3/227 228/8/228 230/2/230
f 230/2/230 234/7/234 231/1/231
f 244/2/244 246/17/246 247/18/247
f 244/2/244 247/7/247 245/1/245
f 254/2/254 256/17/256 257/18/257
f 254/2/254 257/7/257 255/1/255
f 298/2/298 301/18/301 300/17/300
f 298/2/298 299/1/299 301/7/301
f 312/2/312 314/18/314 313/17/313
f 333/2/333 336/7/336 334/1/334
f 311/15/311 312/2/312 313/17/313
f 333/2/333 335/17/335 336/18/336
f 310/3/310 312/2/312 311/8/311
f 312/2/312 327/1/327 314/7/314
f 319/2/319 322/18/322 321/17/321
f 319/2/319 320/1/320 322/7/322
f 323/2/323 326/18/326 325/17/325
f 323/2/323 324/1/324 326/7/326
f 315/2/315 318/18/318 317/17/317
f 315/2/315 316/1/316 318/7/318
f 355/2/355 356/1/356 358/7/358
f 355/2/355 358/18/358 357/17/357
f 314/16/314 327/24/327 322/29/322
f 322/29/322 320/28/320 314/16/314
f 332/16/332 340/29/340 345/24/345
f 340/29/340 332/16/332 338/28/338
f 351/1/351 354/1/354 352/1/352
f 354/1/354 351/1/351 349/1/349
f 347/2/347 352/1/352 354/7/354
f 347/2/347 354/18/354 353/17/353
f 348/2/348 349/1/349 351/7/351
f 346/3/346 348/2/348 347/8/347
f 347/15/347 348/2/348 350/17/350
f 348/2/348 351/18/351 350/17/350
f 330/2/330 331/17/331 332/18/332
f 341/2/341 343/17/343 344/18/344
f 329/15/329 331/17/331 330/2/330
f 341/2/341 344/7/344 342/1/342
f 328/3/328 329/8/329 330/2/330
f 330/2/330 332/7/332 345/1/345
f 337/2/337 339/17/339 340/18/340
f 337/2/337 340/7/340 338/1/338
f 364/2/364 367/18/367 366/17/366
f 362/15/362 364/2/364 366/17/366
f 361/3/361 364/2/364 362/8/362
f 364/2/364 391/1/391 367/7/367
f 377/2/377 380/18/380 379/17/379
f 377/2/377 378/1/378 380/7/380
f 387/2/387 390/18/390 389/17/389
f 387/2/387 388/1/388 390/7/390
f 371/2/371 374/18/374 373/17/373
f 371/2/371 372/1/372 374/7/374
f 410/16/410 423/24/423 418/29/418
f 418/29/418 416/28/416 410/16/410
f 367/16/367 391/24/391 380/29/380
f 380/29/380 378/28/378 367/16/367
f 408/2/408 410/18/410 409/17/409
f 407/15/407 408/2/408 409/17/409
f 406/3/406 408/2/408 407/8/407
f 408/2/408 423/1/423 410/7/410
f 415/2/415 418/18/418 417/17/417
f 415/2/415 416/1/416 418/7/418
f 419/2/419 422/18/422 421/17/421
f 419/2/419 420/1/420 422/7/422
f 411/2/411 414/18/414 413/17/413
f 411/2/411 412/1/412 414/7/414
f 429/2/429 432/18/432 431/17/431
f 427/15/427 429/2/429 431/17/431
f 426/3/426 429/2/429 427/8/427
f 429/2/429 456/1/456 432/7/432
f 442/2/442 445/18/445 444/17/444
f 442/2/442 443/1/443 445/7/445
f 452/2/452 455/18/455 454/17/454
f 452/2/452 453/1/453 455/7/455
f 436/2/436 439/18/439 438/17/438
f 436/2/436 437/1/437 439/7/439
f 475/16/475 488/24/488 483/29/483
f 483/29/483 481/28/481 475/16/475
f 432/16/432 456/24/456 445/29/445
f 445/29/445 443/28/443 432/16/432
f 473/2/473 475/18/475 474/17/474
f 472/15/472 473/2/473 474/17/474
f 471/3/471 473/2/473 472/8/472
f 473/2/473 488/1/488 475/7/475
f 480/2/480 483/18/483 482/17/482
f 480/2/480 481/1/481 483/7/483
f 484/2/484 487/18/487 486/17/486
f 484/2/484 485/1/485 487/7/487
f 476/2/476 479/18/479 478/17/478
f 476/2/476 477/1/477 479/7/479
f 494/2/494 497/18/497 496/17/496
f 492/15/492 494/2/494 496/17/496
f 491/3/491 494/2/494 492/8/492
f 494/2/494 521/1/521 497/7/497
f 507/2/507 510/18/510 509/17/509
f 507/2/507 508/1/508 510/7/510
f 517/2/517 520/18/520 519/17/519
f 517/2/517 518/1/518 520/7/520
f 501/2/501 504/18/504 503/17/503
f 501/2/501 502/1/502 504/7/504
f 540/16/540 553/24/553 548/29/548
f 548/29/548 546/28/546 540/16/540
f 497/16/497 521/24/521 510/29/510
f 510/29/510 508/28/508 497/16/497
f 538/2/538 540/18/540 539/17/539
f 537/15/537 538/2/538 539/17/539
f 536/3/536 538/2/538 537/8/537
f 538/2/538 553/1/553 540/7/540
f 545/2/545 548/18/548 547/17/547
f 545/2/545 546/1/546 548/7/548
f 549/2/549 552/18/552 551/17/551
f 549/2/549 550/1/550 552/7/552
f 541/2/541 544/18/544 543/17/543
f 541/2/541 542/1/542 544/7/544
f 583/2/583 586/18/586 585/17/585
f 581/15/581 583/2/583 585/17/585
f 580/3/580 583/2/583 581/8/581
f 583/2/583 610/1/610 586/7/586
f 596/2/596 599/18/599 598/17/598
f 596/2/596 597/1/597 599/7/599
f 606/2/606 609/18/609 608/17/608
f 606/2/606 607/1/607 609/7/609
f 590/2/590 593/18/593 592/17/592
f 590/2/590 591/1/591 593/7/593
f 629/16/629 642/24/642 637/29/637
f 637/29/637 635/28/635 629/16/629
f 586/16/586 610/24/610 599/29/599
f 599/29/599 597/28/597 586/16/586
f 627/2/627 629/18/629 628/17/628
f 626/15/626 627/2/627 628/17/628
f 625/3/625 627/2/627 626/8/626
f 627/2/627 642/1/642 629/7/629
f 634/2/634 637/18/637 636/17/636
f 634/2/634 635/1/635 637/7/637
f 638/2/638 641/18/641 640/17/640
f 638/2/638 639/1/639 641/7/641
f 630/2/630 633/18/633 632/17/632
f 630/2/630 631/1/631 633/7/633
f 656/2/656 659/18/659 658/17/658
f 654/15/654 656/2/656 658/17/658
f 653/3/653 656/2/656 654/8/654
f 656/2/656 683/1/683 659/7/659
f 669/2/669 672/18/672 671/17/671
f 669/2/669 670/1/670 672/7/672
f 679/2/679 682/18/682 681/17/681
f 679/2/679 680/1/680 682/7/682
f 663/2/663 666/18/666 665/17/665
f 663/2/663 664/1/664 666/7/666
f 702/16/702 715/24/715 710/29/710
f 710/29/710 708/28/708 702/16/702
f 659/16/659 683/24/683 672/29/672
f 672/29/672 670/28/670 659/16/659
f 700/2/700 702/18/702 701/17/701
f 699/15/699 700/2/700 701/17/701
f 698/3/698 700/2/700 699/8/699
f 700/2/700 715/1/715 702/7/702
f 707/2/707 710/18/710 709/17/709
f 707/2/707 708/1/708 710/7/710
f 711/2/711 714/18/714 713/17/713
f 711/2/711 712/1/712 714/7/714
f 703/2/703 706/18/706 705/17/705
f 703/2/703 704/1/704 706/7/706
g fff0a81b_00251_00644aee_e2
f 6/4/6 3/5/3 5/9/5
f 5/9/5 11/14/11 6/4/6
f 46/6/46 49/15/49 53/8/53
f 49/15/49 46/6/46 54/17/54
f 4/15/4 9/17/9 1/6/1
f 1/6/1 8/8/8 4/15/4
f 64/30/64 80/24/80 68/29/68
f 80/24/80 64/30/64 81/25/81
f 50/9/50 51/4/51 56/14/56
f 51/4/51 50/9/50 48/5/48
f 35/24/35 36/25/36 19/30/19
f 19/30/19 23/29/23 35/24/35
f 86/13/86 83/10/83 84/11/84
f 83/10/83 86/13/86 85/12/85
f 96/4/96 93/5/93 95/9/95
f 95/9/95 101/14/101 96/4/96
f 41/13/41 39/11/39 38/10/38
f 38/10/38 40/12/40 41/13/41
f 45/13/45 43/11/43 42/10/42
f 42/10/42 44/12/44 45/13/45
f 97/1/97 111/31/111 106/1/106
f 111/31/111 97/1/97 110/31/110
f 87/10/87 90/13/90 89/12/89
f 90/13/90 87/10/87 88/11/88
f 91/6/91 98/8/98 94/15/94
f 94/15/94 99/17/99 91/6/91
f 185/4/185 182/5/182 184/9/184
f 184/9/184 190/14/190 185/4/185
f 225/6/225 228/15/228 232/8/232
f 228/15/228 225/6/225 233/17/233
f 183/15/183 188/17/188 180/6/180
f 180/6/180 187/8/187 183/15/183
f 243/30/243 259/24/259 247/29/247
f 259/24/259 243/30/243 260/25/260
f 229/9/229 230/4/230 235/14/235
f 230/4/230 229/9/229 227/5/227
f 214/24/214 215/25/215 198/30/198
f 198/30/198 202/29/202 214/24/214
f 265/13/265 262/10/262 263/11/263
f 262/10/262 265/13/265 264/12/264
f 275/4/275 272/5/272 274/9/274
f 274/9/274 280/14/280 275/4/275
f 220/13/220 218/11/218 217/10/217
f 217/10/217 219/12/219 220/13/220
f 224/13/224 222/11/222 221/10/221
f 221/10/221 223/12/223 224/13/224
f 276/1/276 290/31/290 285/1/285
f 290/31/290 276/1/276 289/31/289
f 266/10/266 269/13/269 268/12/268
f 269/13/269 266/10/266 267/11/267
f 270/6/270 277/8/277 273/15/273
f 273/15/273 278/17/278 270/6/270
f 364/4/364 361/5/361 363/9/363
f 363/9/363 368/14/368 364/4/364
f 362/15/362 366/17/366 359/6/359
f 359/6/359 365/8/365 362/15/362
f 391/24/391 392/25/392 376/30/376
f 376/30/376 380/29/380 391/24/391
f 397/13/397 395/11/395 394/10/394
f 394/10/394 396/12/396 397/13/397
f 401/13/401 399/11/399 398/10/398
f 398/10/398 400/12/400 401/13/401
f 429/4/429 426/5/426 428/9/428
f 428/9/428 433/14/433 429/4/429
f 427/15/427 431/17/431 424/6/424
f 424/6/424 430/8/430 427/15/427
f 456/24/456 457/25/457 441/30/441
f 441/30/441 445/29/445 456/24/456
f 462/13/462 460/11/460 459/10/459
f 459/10/459 461/12/461 462/13/462
f 466/13/466 464/11/464 463/10/463
f 463/10/463 465/12/465 466/13/466
f 494/4/494 491/5/491 493/9/493
f 493/9/493 498/14/498 494/4/494
f 492/15/492 496/17/496 489/6/489
f 489/6/489 495/8/495 492/15/492
f 521/24/521 522/25/522 506/30/506
f 506/30/506 510/29/510 521/24/521
f 527/13/527 525/11/525 524/10/524
f 524/10/524 526/12/526 527/13/527
f 531/13/531 529/11/529 528/10/528
f 528/10/528 530/12/530 531/13/531
f 557/13/557 555/11/555 554/10/554
f 554/10/554 556/12/556 557/13/557
f 561/13/561 559/11/559 558/10/558
f 558/10/558 560/12/560 561/13/561
f 565/13/565 563/11/563 562/10/562
f 562/10/562 564/12/564 565/13/565
f 569/13/569 567/11/567 566/10/566
f 566/10/566 568/12/568 569/13/569
f 573/13/573 571/11/571 570/10/570
f 570/10/570 572/12/572 573/13/573
f 577/13/577 575/11/575 574/10/574
f 574/10/574 576/12/576 577/13/577
f 583/4/583 580/5/580 582/9/582
f 582/9/582 587/14/587 583/4/583
f 581/15/581 585/17/585 578/6/578
f 578/6/578 584/8/584 581/15/581
f 610/24/610 611/25/611 595/30/595
f 595/30/595 599/29/599 610/24/610
f 616/13/616 614/11/614 613/10/613
f 613/10/613 615/12/615 616/13/616
f 620/13/620 618/11/618 617/10/617
f 617/10/617 619/12/619 620/13/620
f 646/13/646 644/11/644 643/10/643
f 643/10/643 645/12/645 646/13/646
f 650/13/650 648/11/648 647/10/647
f 647/10/647 649/12/649 650/13/650
f 656/4/656 653/5/653 655/9/655
f 655/9/655 660/14/660 656/4/656
f 654/15/654 658/17/658 651/6/651
f 651/6/651 657/8/657 654/15/654
f 683/24/683 684/25/684 668/30/668
f 668/30/668 672/29/672 683/24/683
f 689/13/689 687/11/687 686/10/686
f 686/10/686 688/12/688 689/13/689
f 693/13/693 691/11/691 690/10/690
f 690/10/690 692/12/692 693/13/693
f 719/13/719 717/11/717 716/10/716
f 716/10/716 718/12/718 719/13/719
f 723/13/723 721/11/721 720/10/720
f 720/10/720 722/12/722 723/13/723
g fff0a81b_00251_00644aee_e4
f 24/9/24 25/22/25 27/19/27
f 25/21/25 26/13/26 27/20/27
f 107/21/107 108/13/108 109/20/109
f 112/9/112 107/22/107 109/19/109
f 69/9/69 72/19/72 70/22/70
f 70/21/70 72/20/72 71/13/71
f 203/9/203 204/22/204 206/19/206
f 204/21/204 205/13/205 206/20/206
f 286/21/286 287/13/287 288/20/288
f 291/9/291 286/22/286 288/19/288
f 248/9/248 251/19/251 249/22/249
f 249/21/249 251/20/251 250/13/250
f 381/9/381 382/22/382 384/19/384
f 382/21/382 383/13/383 384/20/384
f 446/9/446 447/22/447 449/19/449
f 447/21/447 448/13/448 449/20/449
f 511/9/511 512/22/512 514/19/514
f 512/21/512 513/13/513 514/20/514
f 600/9/600 601/22/601 603/19/603
f 601/21/601 602/13/602 603/20/603
f 673/9/673 674/22/674 676/19/676
f 674/21/674 675/13/675 676/20/676
g fff0a81b_00251_00644aee_e17
f 128/34/128 127/35/127 129/32/129
f 129/32/129 130/33/130 128/34/128
f 124/34/124 123/35/123 125/32/125
f 125/32/125 126/33/126 124/34/124
f 114/34/114 113/35/113 115/32/115
f 115/32/115 116/33/116 114/34/114
f 307/34/307 306/35/306 308/32/308
f 308/32/308 309/33/309 307/34/307
f 303/34/303 302/35/302 304/32/304
f 304/32/304 305/33/305 303/34/303
f 293/34/293 292/35/292 294/32/294
f 294/32/294 295/33/295 293/34/293
f 403/34/403 402/35/402 404/32/404
f 404/32/404 405/33/405 403/34/403
f 468/34/468 467/35/467 469/32/469
f 469/32/469 470/33/470 468/34/468
f 533/34/533 532/35/532 534/32/534
f 534/32/534 535/33/535 533/34/533
f 622/34/622 621/35/621 623/32/623
f 623/32/623 624/33/624 622/34/622
f 695/34/695 694/35/694 696/32/696
f 696/32/696 697/33/697 695/34/695
