# fff08519_00088_001b5b78
o fff08519_00088_001b5b78
v 2.960339 -2.523004 0.073217
v 3.063988 -2.523013 -0.289758
v 3.209591 -0.898800 -0.110168
v 3.105942 -0.898791 0.252808
v 3.209324 -0.207259 -0.040277
v 3.105675 -0.207250 0.322699
v 3.365260 0.315466 0.083547
v 3.261611 0.315476 0.446522
v 3.726229 1.496992 0.901375
v 3.998299 2.560207 0.940278
v 3.829878 1.496983 0.538400
v 4.101948 2.560198 0.577302
v 1.807426 -2.807324 0.069034
v 1.807917 -2.917261 -0.335866
v 0.625731 -3.042794 0.069034
v 0.665729 -3.152725 -0.335866
v -0.685186 -3.108583 -0.029520
v -0.645189 -3.218515 -0.434419
v -2.113635 -2.907511 0.068006
v -2.155000 -3.017423 -0.336894
v -2.979928 -2.181896 0.065942
v -3.101805 -2.291797 -0.338958
v -3.159847 -1.305172 0.037772
v -3.281726 -1.336036 -0.367127
v -3.980067 0.402130 -0.022380
v -4.101948 0.425942 -0.427279
v -2.881423 1.857989 0.003010
v -2.946104 1.957595 -0.400569
v -0.753764 2.704141 0.099039
v -0.818445 2.803747 -0.304540
v 0.646174 2.803614 0.533310
v 0.581493 2.903221 0.129731
v 2.810223 3.118903 0.925753
v 2.822520 3.218515 0.522174
v 3.518989 2.820225 0.936101
v 3.531286 2.919837 0.532523
v 1.291870 -0.320500 0.426528
v -0.440794 -0.550762 0.460336
v -1.930054 0.508329 0.367274
v -3.356311 0.434443 0.143994
v -2.619009 -1.155115 0.226184
v -2.428434 -1.827618 0.252820
v -1.780589 -2.438307 0.250443
v -0.312288 -2.543787 0.159104
v 1.582720 -2.332683 0.273923
v -2.575262 1.423654 0.162816
v -1.150839 1.657391 0.355566
v 0.420846 2.108251 0.479158
v 2.527281 2.477978 0.977895
v 3.470473 2.413876 0.841592
v 3.214196 1.572868 1.027881
v 2.758395 0.153001 0.558242
v 2.620829 -1.112684 0.374480
v 2.592838 -2.039261 0.305747
v 2.482893 -2.804493 0.071485
v 2.469127 -2.876506 -0.313087
v 2.290312 -2.166129 0.296216
v 3.231107 -1.762562 0.157298
v 3.337404 -1.733025 -0.202409
vt 0.370747 1.859874
vt 0.370747 1.859874
vt 0.370747 1.859874
vt 0.370747 1.859874
vt 0.370747 1.859874
vt 0.370747 1.859874
vt 0.370747 1.859874
vt 0.370747 1.859874
vt 0.370747 1.859874
vt 0.370747 1.859874
vt 0.370747 1.859874
vt 0.370747 1.859874
vt 0.370747 1.859874
vt 0.370747 1.859874
vt 0.370747 1.859874
vt 0.370747 1.859874
vt 0.370747 1.859874
vt 0.370747 1.859874
vt 0.370747 1.859874
vt 0.370747 1.859874
vt 0.370747 1.859874
vt 0.370747 1.859874
vt 0.370747 1.859874
vt 0.370747 1.859874
vt 0.370747 1.859874
vt 0.370747 1.859874
vt 0.370747 1.859874
vt 0.370747 1.859874
vt 0.370747 1.859874
vt 0.370747 1.859874
vt 0.370747 1.859874
vt 0.370747 1.859874
vt 0.370747 1.859874
vt 0.370747 1.859874
vt 5.246475 0.500000
vt 5.615578 1.000000
vt 5.242661 1.000000
vt 5.605972 0.500000
vt 4.875599 1.000000
vt 4.879414 0.500000
vt 4.715032 1.000000
vt 4.718846 0.500000
vt 4.510218 1.000000
vt 4.514033 0.500000
vt 4.027601 0.500000
vt 4.258992 1.000000
vt 4.023786 1.000000
vt 4.271655 0.500000
vt 7.170794 1.000000
vt 6.727070 0.500000
vt 7.188159 0.500000
vt 6.709706 1.000000
vt 6.432928 0.500000
vt 6.415564 1.000000
vt 5.944559 0.500000
vt 5.944296 1.000000
vt 5.778126 0.500000
vt 5.777863 1.000000
vt 2.438054 1.000000
vt 1.954131 0.500000
vt 2.438940 0.500000
vt 1.946464 1.000000
vt 1.606308 0.500000
vt 1.624032 1.000000
vt 0.853103 0.500000
vt 0.861319 1.000000
vt 0.356696 0.500000
vt 0.356696 1.000000
vt 3.993934 1.000000
vt 3.825852 1.000000
vt 4.023568 0.500000
vt 3.813838 0.500000
vt 3.632411 1.000000
vt 3.267245 0.500000
vt 3.620220 0.500000
vt 3.268141 1.000000
vt 2.885061 0.500000
vt 2.885957 1.000000
vn 0.583034 -0.554693 0.593622
vn 0.757485 -0.617100 0.213082
vn 0.960362 0.050002 0.274234
vn 0.695336 -0.030908 0.718020
vn 0.947530 -0.170221 0.270576
vn 0.715189 -0.219541 0.663556
vn 0.890197 -0.378057 0.254210
vn 0.665913 -0.435055 0.606042
vn 0.617447 -0.268933 0.739212
vn 0.612606 0.285652 0.736965
vn 0.901104 -0.348994 0.257323
vn 0.905929 0.335224 0.258683
vn 0.088600 -0.729834 0.677858
vn 0.125383 -0.957406 0.260103
vn 0.050667 -0.708123 0.704269
vn 0.110590 -0.956861 0.268674
vn -0.027415 -0.753379 0.657015
vn -0.037066 -0.965320 0.258426
vn -0.283859 -0.688344 0.667537
vn -0.356628 -0.892374 0.276560
vn -0.627266 -0.348978 0.696241
vn -0.800917 -0.480846 0.356818
vn -0.668915 -0.192336 0.718025
vn -0.908187 -0.291749 0.300132
vn -0.763846 0.070172 0.641573
vn -0.948803 0.108586 0.296616
vn -0.467744 0.584971 0.662589
vn -0.589142 0.757459 0.281368
vn -0.278531 0.735044 0.618167
vn -0.279003 0.920959 0.272015
vn -0.228629 0.596977 0.768991
vn -0.160462 0.951997 0.260677
vn 0.037750 0.691515 0.721375
vn 0.084195 0.966331 0.243137
vn 0.292041 0.501834 0.814172
vn 0.426397 0.878303 0.216262
vn -0.040462 -0.104592 0.993692
vn -0.013874 -0.064808 0.997801
vn -0.119296 0.032312 0.992333
vn -0.228304 0.049097 0.972351
vn -0.208265 -0.037809 0.977341
vn -0.178519 -0.090156 0.979797
vn -0.057020 -0.223265 0.973089
vn -0.003242 -0.216317 0.976318
vn 0.010717 -0.220139 0.975410
vn -0.181327 0.179367 0.966927
vn -0.153712 0.177681 0.972009
vn -0.117712 -0.038408 0.992305
vn -0.107949 0.033237 0.993601
vn 0.018543 -0.050234 0.998565
vn 0.075987 -0.096547 0.992424
vn 0.158341 -0.287640 0.944559
vn 0.137089 -0.098365 0.985663
vn 0.151709 -0.171654 0.973406
vn 0.214112 -0.765992 0.606145
vn 0.249932 -0.950387 0.185199
vn 0.027756 -0.207440 0.977854
vn 0.733290 -0.136195 0.666136
vn 0.955409 -0.119643 0.269961
g fff08519_00088_001b5b78_e0
f 13/1/13 45/17/45 15/1/15
f 54/31/54 58/34/58 4/1/4
f 13/1/13 55/32/55 57/33/57
f 57/33/57 54/31/54 53/30/53
f 57/33/57 55/32/55 54/31/54
f 52/29/52 9/1/9 51/1/51
f 37/3/37 53/30/53 52/28/52
f 51/27/51 50/23/50 49/1/49
f 37/2/37 51/26/51 49/7/49
f 6/1/6 52/28/52 53/30/53
f 9/1/9 50/23/50 51/27/51
f 50/24/50 35/1/35 49/22/49
f 31/1/31 48/20/48 49/22/49
f 38/5/38 48/21/48 39/6/39
f 48/20/48 38/4/38 37/2/37
f 46/18/46 39/6/39 47/19/47
f 47/19/47 39/6/39 48/21/48
f 46/18/46 40/9/40 39/6/39
f 46/18/46 47/19/47 29/1/29
f 13/1/13 57/33/57 45/17/45
f 45/17/45 57/33/57 53/30/53
f 38/4/38 43/13/43 44/15/44
f 38/4/38 44/15/44 37/2/37
f 43/14/43 38/5/38 42/12/42
f 44/15/44 43/13/43 17/1/17
f 21/1/21 42/12/42 41/11/41
f 19/1/19 43/14/43 42/12/42
f 41/10/41 39/6/39 40/9/40
f 39/6/39 41/10/41 38/5/38
f 23/1/23 41/10/41 40/9/40
f 27/1/27 40/9/40 46/18/46
f 37/2/37 52/1/52 51/26/51
f 48/20/48 37/2/37 49/7/49
f 29/1/29 47/19/47 31/1/31
f 27/1/27 46/18/46 29/1/29
f 48/21/48 31/1/31 47/19/47
f 27/1/27 25/1/25 40/9/40
f 23/1/23 40/9/40 25/1/25
f 42/12/42 38/5/38 41/11/41
f 21/1/21 41/11/41 23/1/23
f 44/16/44 15/1/15 45/17/45
f 19/1/19 42/12/42 21/1/21
f 54/31/54 1/1/1 58/34/58
f 54/31/54 4/1/4 53/30/53
f 6/1/6 53/30/53 4/1/4
f 37/3/37 44/16/44 45/8/45
f 31/1/31 49/22/49 33/1/33
f 37/3/37 45/8/45 53/30/53
f 52/28/52 6/1/6 8/1/8
f 49/22/49 35/1/35 33/1/33
f 17/1/17 15/1/15 44/16/44
f 8/1/8 9/1/9 52/29/52
f 35/1/35 50/25/50 10/1/10
f 50/25/50 9/1/9 10/1/10
f 55/32/55 1/1/1 54/31/54
f 43/13/43 19/1/19 17/1/17
g fff08519_00088_001b5b78_e15
f 11/35/11 10/36/10 9/37/9
f 10/36/10 11/35/11 12/38/12
f 9/37/9 8/39/8 7/40/7
f 7/40/7 11/35/11 9/37/9
f 8/39/8 6/41/6 5/42/5
f 5/42/5 7/40/7 8/39/8
f 6/41/6 4/43/4 3/44/3
f 3/44/3 5/42/5 6/41/6
f 2/45/2 58/46/58 1/47/1
f 4/43/4 58/46/58 59/48/59
f 1/69/1 55/70/55 2/71/2
f 56/72/56 2/71/2 55/70/55
f 13/73/13 16/74/16 14/75/14
f 16/74/16 13/73/13 15/76/15
f 15/76/15 18/77/18 16/74/16
f 18/77/18 15/76/15 17/78/17
f 17/78/17 20/61/20 18/77/18
f 20/61/20 17/78/17 19/59/19
f 19/59/19 22/60/22 20/61/20
f 22/60/22 19/59/19 21/62/21
f 21/62/21 24/63/24 22/60/22
f 24/63/24 21/62/21 23/64/23
f 23/64/23 26/65/26 24/63/24
f 26/65/26 23/64/23 25/66/25
f 25/66/25 28/67/28 26/65/26
f 28/67/28 25/66/25 27/68/27
f 27/49/27 30/50/30 28/51/28
f 30/50/30 27/49/27 29/52/29
f 29/52/29 32/53/32 30/50/30
f 32/53/32 29/52/29 31/54/31
f 31/54/31 34/55/34 32/53/32
f 34/55/34 31/54/31 33/56/33
f 33/56/33 36/57/36 34/55/34
f 36/57/36 33/56/33 35/58/35
f 12/38/12 36/57/36 10/36/10
f 35/58/35 10/36/10 36/57/36
f 55/70/55 13/73/13 56/72/56
f 14/75/14 56/72/56 13/73/13
f 2/45/2 59/48/59 58/46/58
f 4/43/4 59/48/59 3/44/3
