# fff08519_00093_001c1c00
o fff08519_00093_001c1c00
v -10.117549 -8.390304 -0.545894
v -12.417151 -5.993325 -0.583154
v -13.379375 -2.872004 -0.583154
v -14.428271 -4.821252 -0.583154
v -6.652715 -10.019541 -0.545894
v -7.000977 -7.718005 -0.545894
v -12.645153 7.349485 -0.565898
v -11.553501 11.019270 -0.602672
v -13.775030 10.329045 -0.561096
vt 0.017743 0.972336
vt 0.130575 0.972336
vt 0.017743 1.085168
vt 0.017743 1.011777
vn 0.000000 0.000000 1.000000
vn 0.000000 0.000000 1.000000
vn 0.000000 0.000000 1.000000
vn 0.000000 0.000000 1.000000
vn 0.000000 0.000000 1.000000
vn 0.000000 0.000000 1.000000
vn 0.017187 0.004906 0.999840
vn 0.017187 0.004906 0.999840
vn 0.017187 0.004906 0.999840
g fff08519_00093_001c1c00_e0
f 5/2/5 6/4/6 1/1/1
f 2/2/2 3/3/3 4/4/4
f 8/2/8 9/4/9 7/1/7
