# fff08f90_00033_00168acd
o fff08f90_00033_00168acd
v -0.193970 -0.195274 0.012451
v -0.193970 0.195259 0.012451
v 0.193970 0.195259 0.012451
v 0.193970 -0.195274 0.012451
v -0.271851 -0.273613 -0.012451
v -0.271851 0.273628 -0.012451
v 0.271851 0.273628 -0.012451
v 0.271851 -0.273613 -0.012451
v 3.278442 -0.195274 0.012451
v 3.278442 0.195259 0.012451
v 3.666381 0.195259 0.012451
v 3.666381 -0.195274 0.012451
v 3.200561 -0.273613 -0.012451
v 3.200561 0.273628 -0.012451
v 3.744262 0.273628 -0.012451
v 3.744262 -0.273613 -0.012451
v -0.193970 -4.464622 0.012451
v -0.193970 -4.074088 0.012451
v 0.193970 -4.074088 0.012451
v 0.193970 -4.464622 0.012451
v -0.271851 -4.542960 -0.012451
v -0.271851 -3.995719 -0.012451
v 0.271850 -3.995719 -0.012451
v 0.271850 -4.542960 -0.012451
v 3.278442 -4.464622 -0.007533
v 3.278442 -4.074088 -0.007533
v 3.666381 -4.074088 -0.007533
v 3.666381 -4.464622 -0.007533
v 3.200561 -4.542960 -0.012451
v 3.200561 -3.995719 -0.012451
v 3.744262 -3.995719 -0.012451
v 3.744262 -4.542960 -0.012451
v -1.056441 -5.931391 0.016410
v -1.056441 -2.607305 0.016410
v 1.406690 -2.607305 0.016410
v 1.406690 -5.931391 0.016410
v 2.108120 -5.883512 0.005171
v 2.108120 -2.655373 0.005171
v 4.476021 -2.655373 0.005171
v 4.476021 -5.883512 0.005171
v -1.056441 -1.684902 0.016410
v -1.056441 1.639184 0.016410
v 1.406690 1.639184 0.016410
v 1.406690 -1.684902 0.016410
v 2.108120 -1.637022 0.016410
v 2.108120 1.591116 0.016410
v 4.476021 1.591116 0.016410
v 4.476021 -1.637022 0.016410
vt 1.000022 1.000057
vt 2.000022 1.000057
vt 1.999985 1.995785
vt 1.000059 1.995785
vt 1.000022 1.000057
vt 2.000022 1.000057
vt 1.999985 1.995785
vt 1.000059 1.995785
vt 1.000022 1.000057
vt 2.000022 1.000057
vt 1.999985 1.995785
vt 1.000059 1.995785
vt 1.000022 1.000057
vt 2.000022 1.000057
vt 1.999985 1.995785
vt 1.000059 1.995785
vt 1.000022 1.000057
vt 2.000022 1.000057
vt 1.999985 1.995785
vt 1.000059 1.995785
vt 1.000022 1.000057
vt 2.000022 1.000057
vt 1.999985 1.995785
vt 1.000059 1.995785
vt 1.000022 1.000057
vt 2.000022 1.000057
vt 1.999985 1.995785
vt 1.000059 1.995785
vt 1.000022 1.000057
vt 2.000022 1.000057
vt 1.999985 1.995785
vt 1.000059 1.995785
vn 0.000000 0.000000 1.000000
vn 0.000000 0.000000 1.000000
vn 0.000000 0.000000 1.000000
vn 0.000000 0.000000 1.000000
vn 0.000000 0.000000 1.000000
vn 0.000000 0.000000 1.000000
vn 0.000000 0.000000 1.000000
vn 0.000000 0.000000 1.000000
vn 0.000000 0.000000 1.000000
vn 0.000000 0.000000 1.000000
vn 0.000000 0.000000 1.000000
vn 0.000000 0.000000 1.000000
vn 0.000000 0.000000 1.000000
vn 0.000000 0.000000 1.000000
vn 0.000000 0.000000 1.000000
vn 0.000000 0.000000 1.000000
vn 0.000000 0.000000 1.000000
vn 0.000000 0.000000 1.000000
vn 0.000000 0.000000 1.000000
vn 0.000000 0.000000 1.000000
vn 0.000000 0.000000 1.000000
vn 0.000000 0.000000 1.000000
vn 0.000000 0.000000 1.000000
vn 0.000000 0.000000 1.000000
vn 0.000000 0.000000 1.000000
vn 0.000000 0.000000 1.000000
vn 0.000000 0.000000 1.000000
vn 0.000000 0.000000 1.000000
vn 0.000000 0.000000 1.000000
vn 0.000000 0.000000 1.000000
vn 0.000000 0.000000 1.000000
vn 0.000000 0.000000 1.000000
vn 0.000000 0.000000 1.000000
vn 0.000000 0.000000 1.000000
vn 0.000000 0.000000 1.000000
vn 0.000000 0.000000 1.000000
vn 0.000000 0.000000 1.000000
vn 0.000000 0.000000 1.000000
vn 0.000000 0.000000 1.000000
vn 0.000000 0.000000 1.000000
vn 0.000000 0.000000 1.000000
vn 0.000000 0.000000 1.000000
vn 0.000000 0.000000 1.000000
vn 0.000000 0.000000 1.000000
vn 0.000000 0.000000 1.000000
vn 0.000000 0.000000 1.000000
vn 0.000000 0.000000 1.000000
vn 0.000000 0.000000 1.000000
g fff08f90_00033_00168acd_e0
f 8/1/8 7/2/7 6/3/6
f 6/3/6 5/4/5 8/1/8
f 16/5/16 15/6/15 14/7/14
f 14/7/14 13/8/13 16/5/16
f 24/9/24 23/10/23 22/11/22
f 22/11/22 21/12/21 24/9/24
f 32/13/32 31/14/31 30/15/30
f 30/15/30 29/16/29 32/13/32
g fff08f90_00033_00168acd_e1
f 4/1/4 3/2/3 2/3/2
f 2/3/2 1/4/1 4/1/4
f 12/5/12 11/6/11 10/7/10
f 10/7/10 9/8/9 12/5/12
f 20/9/20 19/10/19 18/11/18
f 18/11/18 17/12/17 20/9/20
f 28/13/28 27/14/27 26/15/26
f 26/15/26 25/16/25 28/13/28
g fff08f90_00033_00168acd_e2
f 36/17/36 35/18/35 34/19/34
f 34/19/34 33/20/33 36/17/36
f 40/21/40 39/22/39 38/23/38
f 38/23/38 37/24/37 40/21/40
f 46/31/46 45/32/45 48/29/48
f 48/29/48 47/30/47 46/31/46
f 42/27/42 41/28/41 44/25/44
f 44/25/44 43/26/43 42/27/42
