# fff017fc_00115_0023193d
o fff017fc_00115_0023193d
v 2.110632 -0.119266 -2.055759
v -2.803589 -0.119183 -2.055759
v -2.606562 -0.119215 -2.055759
v 2.110631 -0.119266 0.869754
v 2.284439 -0.118205 1.057722
v 2.284397 -0.119183 -2.055759
v -2.606562 -0.119215 0.869754
v -2.804346 -0.118202 1.396086
v -2.803487 0.077464 -2.055759
v 2.284500 0.077464 -2.055759
v 2.110632 0.119266 0.869754
v 2.110632 0.119266 -2.055759
v -2.606562 0.119267 0.869754
v -2.606562 0.119267 -2.055759
v -2.804236 0.081469 1.057722
v -2.803589 -0.119183 -2.055759
v 2.284549 0.081469 1.057722
v 2.284397 -0.119183 -2.055759
v 2.110630 -0.118205 1.057722
v 2.110630 0.081469 1.057722
v -2.606561 0.081469 1.057722
v -2.606561 -0.118202 1.057722
v 2.294214 -0.118639 1.782256
v -2.794565 -0.118637 1.782256
v -2.794455 0.081034 1.782256
v 2.294330 0.081032 1.782256
v 2.120410 -0.118639 1.515513
v 2.120410 0.081034 1.515513
v -2.596780 0.081034 1.515513
v -2.596780 -0.118637 1.515513
v 2.110630 -0.118205 1.057722
v 2.110630 0.081469 1.057722
v -2.606561 0.081469 1.057722
v -2.606561 -0.118202 1.057722
v 2.110632 -0.119266 -2.055759
v -2.606562 -0.119215 -2.055759
v 2.110631 -0.119266 0.869754
v 2.284439 -0.118205 1.057722
v -2.606562 -0.119215 0.869754
v -2.804346 -0.118202 1.396086
v 2.110630 -0.118205 1.057722
v -2.606561 -0.118202 1.057722
v 2.294214 -0.118639 1.782256
v -2.794565 -0.118637 1.782256
v 2.120410 -0.118639 1.515513
v -2.596780 -0.118637 1.515513
vt 0.665959 -0.000000
vt 0.047555 0.000000
vt 0.923568 0.000000
vt 1.000455 0.000000
vt 0.999745 -0.000000
vt 0.666038 -0.000000
vt 0.047555 0.000000
vt 0.047555 0.000000
vt 0.047555 0.000000
vt 0.047555 0.000000
vt 0.047555 0.000000
vt 0.047555 0.000000
vt 0.923568 0.000000
vt 0.047555 0.000000
vt 0.923568 0.000000
vt 0.923568 0.000000
vt 0.802033 -0.233898
vt 0.869141 0.915878
vt 1.813661 -0.643739
vt 1.023648 0.448944
vt -0.153570 0.548111
vt 1.024870 0.535259
vt -0.153620 0.548109
vt 1.752116 -0.095628
vt -0.162133 0.548109
vt 0.965284 0.547891
vt 0.875814 0.125880
vt -0.153570 0.548111
vt -0.153620 0.548109
vt 1.531340 0.759540
vt 1.024761 0.548112
vt 1.024712 0.548109
vt 0.991836 0.681339
vt 0.965406 0.548450
vt -0.312823 0.548142
vt 1.025262 0.548113
vt 0.959946 0.541248
vt 0.979219 0.548109
vn -1.000000 0.000000 -0.000000
vn -0.000341 -1.000000 0.000012
vn 1.000000 0.000000 0.000000
vn -1.000000 0.000002 -0.000000
vn 0.999977 -0.000554 -0.006757
vn 0.000677 -1.000000 0.000012
vn 1.000000 0.000000 0.000000
vn -0.999126 0.036152 0.021006
vn -1.000000 0.000506 -0.000220
vn 1.000000 -0.000525 -0.000013
vn -1.000000 0.000002 0.000000
vn -1.000000 0.000000 -0.000000
vn 1.000000 0.000000 0.000000
vn 1.000000 0.000000 0.000000
vn -0.999988 0.003821 0.003087
vn -1.000000 0.000520 -0.000219
vn 0.999977 -0.000552 -0.006758
vn 1.000000 -0.000524 -0.000013
vn -0.999772 0.000000 0.021361
vn -0.999772 0.000000 0.021361
vn 0.999772 0.000000 -0.021361
vn 0.999772 0.000000 -0.021361
vn 0.999909 -0.000580 -0.013491
vn -0.999848 0.007898 0.015527
vn -0.999909 0.000549 0.013499
vn 0.999909 -0.000575 -0.013492
vn -0.714404 0.000000 -0.699734
vn -0.714835 0.000000 -0.699293
vn 0.699725 0.000000 -0.714412
vn 0.699302 0.000000 -0.714826
vn 0.000000 0.000000 1.000000
vn 0.000000 0.000000 1.000000
vn 0.000000 0.000000 1.000000
vn 0.000000 0.000000 1.000000
vn 0.000477 -1.000000 0.000000
vn -0.000160 -1.000000 0.000000
vn 0.002863 -0.999992 0.002929
vn 0.001363 -0.999998 0.001249
vn -0.001819 -0.999996 0.002370
vn -0.001272 -0.999999 -0.000492
vn 0.000072 -0.999994 0.003565
vn 0.004900 -0.999977 0.004656
vn 0.000318 -1.000000 -0.000297
vn -0.000611 -1.000000 -0.000452
vn 0.000821 -1.000000 -0.000535
vn -0.000799 -1.000000 -0.000538
g fff017fc_00115_0023193d_e1
f 12/14/12 4/2/4 11/12/11
f 4/2/4 12/14/12 1/11/1
f 14/16/14 13/15/13 7/3/7
f 7/3/7 3/13/3 14/16/14
f 8/1/8 9/5/9 16/6/16
f 9/5/9 8/1/8 15/4/15
f 5/8/5 18/7/18 10/10/10
f 10/10/10 17/9/17 5/8/5
f 5/21/5 17/23/17 26/29/26
f 26/29/26 23/28/23 5/21/5
f 15/22/15 8/20/8 24/31/24
f 24/31/24 25/32/25 15/22/15
f 37/19/37 38/21/38 41/24/41
f 6/7/6 37/2/37 35/11/35
f 37/2/37 6/7/6 38/8/38
f 36/13/36 39/3/39 2/6/2
f 39/20/39 40/18/40 2/17/2
f 37/19/37 42/27/42 39/17/39
f 39/17/39 42/27/42 40/20/40
f 37/19/37 41/24/41 42/27/42
f 41/24/41 38/21/38 43/28/43
f 43/28/43 45/30/45 41/24/41
f 40/20/40 42/27/42 46/33/46
f 46/33/46 44/31/44 40/20/40
f 44/31/44 46/33/46 45/37/45
f 45/37/45 43/36/43 44/31/44
f 22/27/22 21/26/21 29/34/29
f 28/38/28 27/37/27 30/33/30
f 30/33/30 29/34/29 28/38/28
f 34/27/34 32/25/32 33/26/33
f 29/34/29 30/33/30 22/27/22
f 31/24/31 32/25/32 34/27/34
f 27/30/27 28/35/28 20/25/20
f 20/25/20 19/24/19 27/30/27
