# fff07975_00068_001cbddd
o fff07975_00068_001cbddd
v -0.099177 1.884762 0.393422
v -0.099177 1.884762 -0.340845
v 0.084802 1.884762 -0.340845
v 0.084802 1.884762 0.393422
v -0.099256 1.689372 0.393422
v -0.099256 1.689372 -0.340845
v 0.084723 1.689372 -0.340845
v 0.084723 1.689372 0.393422
v -0.051305 1.689355 0.365323
v -0.051305 1.689355 0.146157
v 0.036189 1.689355 0.146157
v 0.036189 1.689355 0.365323
v -0.051294 1.622003 0.318390
v -0.051294 1.622003 0.193090
v 0.036200 1.622003 0.193090
v 0.036200 1.622003 0.318390
v -0.030223 1.627169 0.318390
v -0.030223 1.627169 0.193090
v 0.015072 1.627169 0.193090
v 0.015072 1.627169 0.318390
v -0.030408 -1.742026 0.318390
v -0.030408 -1.742026 0.193090
v 0.014887 -1.742026 0.193090
v 0.014887 -1.742026 0.318390
v -0.137369 1.884762 -0.454468
v 0.122994 1.884762 -0.454468
v -0.137435 1.654074 -0.454468
v 0.122928 1.654074 -0.454468
v -0.137369 1.884762 -0.303883
v 0.122994 1.884762 -0.303883
v -0.137435 1.654074 -0.303883
v 0.122928 1.654074 -0.303883
v -0.051297 1.652302 0.348575
v 0.036197 1.652302 0.348575
v -0.051297 1.652302 0.162904
v 0.036197 1.652302 0.162904
v -0.161818 1.882365 0.393422
v -0.161818 1.882365 -0.457886
v -0.097543 1.882368 -0.457886
v -0.097543 1.882368 0.393422
v 0.162127 1.882318 0.393422
v 0.087275 1.882353 0.393422
v 0.162127 1.882318 -0.457886
v 0.087275 1.882353 -0.457886
v -0.097709 1.882352 0.457886
v 0.088291 1.882330 0.457886
v -0.106559 -5.494958 0.393422
v -0.106559 -5.494958 -0.340845
v 0.077420 -5.494958 -0.340845
v 0.077420 -5.494958 0.393422
v -0.106395 -5.283943 0.393422
v -0.106395 -5.283943 -0.340845
v 0.077584 -5.283943 -0.340845
v 0.077584 -5.283943 0.393422
v -0.058445 -5.283926 0.365323
v -0.058445 -5.283926 0.146157
v 0.029049 -5.283926 0.146157
v 0.029049 -5.283926 0.365323
v -0.058433 -5.216574 0.318390
v -0.058433 -5.216574 0.193090
v 0.029061 -5.216574 0.193090
v 0.029061 -5.216574 0.318390
v -0.037363 -5.221740 0.318390
v -0.037363 -5.221740 0.193090
v 0.007933 -5.221740 0.193090
v 0.007933 -5.221740 0.318390
v -0.037639 -2.013471 0.318390
v -0.037639 -2.013471 0.193090
v 0.007656 -2.013471 0.193090
v 0.007656 -2.013471 0.318390
v -0.144751 -5.494958 -0.454468
v 0.115611 -5.494958 -0.454468
v -0.144574 -5.248645 -0.454468
v 0.115788 -5.248645 -0.454468
v -0.144751 -5.494958 -0.303883
v 0.115611 -5.494958 -0.303883
v -0.144574 -5.248645 -0.303883
v 0.115788 -5.248645 -0.303883
v -0.058436 -5.246873 0.348575
v 0.029058 -5.246873 0.348575
v -0.058436 -5.246873 0.162904
v 0.029058 -5.246873 0.162904
vt 0.000000 0.000000
vt 1.000000 0.000000
vt 1.000000 0.000000
vt 0.558176 0.000000
vt 0.552974 0.000000
vt 1.152287 0.000000
vt 1.152287 0.000000
vt 0.996113 0.000000
vt 0.996163 0.000000
vt 1.000000 0.000000
vt 1.000000 0.000000
vt 0.552974 0.000000
vt 0.558176 0.000000
vt 0.378470 0.073640
vt 1.000000 0.000000
vt 1.000000 0.000000
vt 0.558176 0.000000
vt 0.558176 0.000000
vt 1.000000 0.000000
vt 0.552974 0.000000
vt 1.000000 0.000000
vt 0.558176 0.000000
vt 0.961864 0.000000
vt 0.996113 0.000000
vt 1.162359 0.000000
vt 0.996113 0.000000
vt 1.465636 0.000000
vt 1.305930 0.000000
vt 14.670347 1.000000
vt 14.670347 0.000000
vt 0.293518 0.000001
vt 0.293518 1.000000
vt 0.294245 1.000000
vt 14.670347 1.000000
vt 14.670347 0.000001
vt 0.294245 0.000001
vn -0.707016 0.000286 0.707198
vn -1.000000 0.000405 0.000000
vn 1.000000 -0.000405 0.000000
vn 0.707198 -0.000286 0.707016
vn -0.577478 -0.577244 0.577329
vn -0.707250 -0.706964 0.000000
vn 0.706964 -0.707250 0.000000
vn 0.577223 -0.577457 0.577372
vn -0.589506 -0.332802 0.736020
vn -0.589506 -0.332802 -0.736020
vn 0.589457 -0.332596 -0.736152
vn 0.589457 -0.332597 0.736152
vn -0.630073 -0.717153 0.297824
vn -0.630073 -0.717153 -0.297824
vn 0.630143 -0.717089 -0.297832
vn 0.630143 -0.717089 0.297832
vn -0.707094 0.000039 0.707119
vn -1.000000 0.000055 0.000000
vn 1.000000 -0.000055 0.000000
vn 0.707119 -0.000039 0.707094
vn -0.577368 -0.577336 0.577347
vn -0.707126 -0.707087 0.000000
vn 0.707087 -0.707126 0.000000
vn 0.577333 -0.577365 0.577353
vn -1.000000 0.000286 0.000000
vn 1.000000 -0.000286 0.000000
vn -0.707208 -0.707006 0.000000
vn 0.707006 -0.707208 0.000000
vn -0.707042 0.000202 0.707171
vn 0.707171 -0.000202 0.707042
vn -0.577440 -0.577275 0.577335
vn 0.577260 -0.577425 0.577365
vn -0.668989 -0.422218 0.611707
vn 0.669092 -0.422014 0.611735
vn -0.668989 -0.422218 -0.611707
vn 0.669092 -0.422014 -0.611735
vn 0.000054 -1.000000 -0.000082
vn 0.000054 -1.000000 0.000000
vn 0.000054 -1.000000 0.000000
vn -0.000002 -1.000000 -0.000171
vn -0.000465 -1.000000 -0.000110
vn -0.000336 -1.000000 -0.000236
vn -0.000465 -1.000000 0.000000
vn -0.000465 -1.000000 0.000000
vn -0.000062 -1.000000 -0.000244
vn -0.000224 -1.000000 -0.000340
vn -0.707281 0.000550 0.706932
vn -1.000000 0.000777 0.000000
vn 1.000000 -0.000777 0.000000
vn 0.706932 -0.000549 0.707282
vn -0.577105 0.577554 0.577391
vn -0.706832 0.707381 0.000000
vn 0.707381 0.706832 0.000000
vn 0.577595 0.577146 0.577309
vn -0.589506 0.332800 0.736021
vn -0.589507 0.332800 -0.736020
vn 0.589458 0.332595 -0.736152
vn 0.589458 0.332594 0.736152
vn -0.630073 0.717153 0.297825
vn -0.630073 0.717153 -0.297825
vn 0.630143 0.717088 -0.297833
vn 0.630143 0.717088 0.297833
vn -0.707088 -0.000061 0.707125
vn -1.000000 -0.000086 0.000000
vn 1.000000 0.000086 0.000000
vn 0.707125 0.000061 0.707088
vn -0.577377 0.577328 0.577346
vn -0.707138 0.707076 0.000000
vn 0.707076 0.707138 0.000000
vn 0.577324 0.577373 0.577354
vn -1.000000 0.000719 0.000000
vn 1.000000 -0.000719 0.000000
vn -0.706853 0.707361 0.000000
vn 0.707361 0.706853 0.000000
vn -0.707268 0.000508 0.706945
vn 0.706945 -0.000508 0.707269
vn -0.577124 0.577539 0.577388
vn 0.577577 0.577162 0.577312
vn -0.668989 0.422217 0.611708
vn 0.669092 0.422012 0.611736
vn -0.668989 0.422217 -0.611708
vn 0.669092 0.422013 -0.611736
g fff07975_00068_001cbddd_e5
f 32/9/32 31/7/31 27/16/27
f 27/16/27 28/18/28 32/9/32
f 13/10/13 16/12/16 34/20/34
f 34/20/34 33/19/33 13/10/13
f 12/8/12 9/6/9 33/19/33
f 33/19/33 34/20/34 12/8/12
f 78/9/78 73/16/73 77/7/77
f 73/16/73 78/9/78 74/18/74
f 59/10/59 80/20/80 62/12/62
f 80/20/80 59/10/59 79/19/79
f 58/8/58 79/19/79 55/6/55
f 79/19/79 58/8/58 80/20/80
g fff07975_00068_001cbddd_e6
f 25/15/25 27/16/27 31/7/31
f 28/18/28 26/17/26 30/4/30
f 31/7/31 29/3/29 25/15/25
f 30/4/30 32/9/32 28/18/28
f 11/9/11 12/8/12 34/20/34
f 34/20/34 36/22/36 11/9/11
f 33/19/33 35/21/35 14/11/14
f 14/11/14 13/10/13 33/19/33
f 35/21/35 33/19/33 9/6/9
f 9/6/9 10/7/10 35/21/35
f 16/12/16 15/13/15 36/22/36
f 36/22/36 34/20/34 16/12/16
f 71/15/71 77/7/77 73/16/73
f 74/18/74 76/4/76 72/17/72
f 77/7/77 71/15/71 75/3/75
f 76/4/76 74/18/74 78/9/78
f 57/9/57 80/20/80 58/8/58
f 80/20/80 57/9/57 82/22/82
f 79/19/79 60/11/60 81/21/81
f 60/11/60 79/19/79 59/10/59
f 81/21/81 55/6/55 79/19/79
f 55/6/55 81/21/81 56/7/56
f 62/12/62 82/22/82 61/13/61
f 82/22/82 62/12/62 80/20/80
g fff07975_00068_001cbddd_e7
f 10/7/10 11/9/11 36/22/36
f 36/22/36 35/21/35 10/7/10
f 16/12/16 13/10/13 14/11/14
f 35/21/35 36/22/36 15/13/15
f 15/13/15 14/11/14 35/21/35
f 15/13/15 16/12/16 14/11/14
f 56/7/56 82/22/82 57/9/57
f 82/22/82 56/7/56 81/21/81
f 62/12/62 60/11/60 59/10/59
f 81/21/81 61/13/61 82/22/82
f 61/13/61 81/21/81 60/11/60
f 61/13/61 60/11/60 62/12/62
g fff07975_00068_001cbddd_e8
f 8/8/8 5/6/5 6/7/6
f 7/9/7 8/8/8 6/7/6
f 54/8/54 52/7/52 51/6/51
f 53/9/53 52/7/52 54/8/54
g fff07975_00068_001cbddd_e9
f 8/8/8 7/9/7 3/4/3
f 1/2/1 2/3/2 6/7/6
f 6/7/6 5/6/5 1/2/1
f 3/4/3 4/5/4 8/8/8
f 54/8/54 49/4/49 53/9/53
f 47/2/47 52/7/52 48/3/48
f 52/7/52 47/2/47 51/6/51
f 49/4/49 54/8/54 50/5/50
g fff07975_00068_001cbddd_e10
f 5/6/5 8/8/8 4/5/4
f 4/5/4 1/2/1 5/6/5
f 51/6/51 50/5/50 54/8/54
f 50/5/50 51/6/51 47/2/47
g fff07975_00068_001cbddd_e11
f 30/1/30 31/1/31 32/1/32
f 31/1/31 30/1/30 29/1/29
f 76/1/76 78/1/78 77/1/77
f 77/1/77 75/1/75 76/1/76
g fff07975_00068_001cbddd_e12
f 40/8/40 37/6/37 38/7/38
f 39/9/39 40/8/40 38/7/38
f 41/23/41 46/28/46 42/24/42
f 40/8/40 45/27/45 37/6/37
f 41/23/41 42/24/42 44/26/44
f 44/26/44 43/25/43 41/23/41
f 40/8/40 42/24/42 46/28/46
f 40/8/40 46/28/46 45/27/45
g fff07975_00068_001cbddd_e13
f 21/34/21 24/29/24 20/32/20
f 20/32/20 17/33/17 21/34/21
f 67/34/67 66/32/66 70/29/70
f 66/32/66 67/34/67 63/33/63
g fff07975_00068_001cbddd_e14
f 24/29/24 23/30/23 19/31/19
f 19/31/19 20/32/20 24/29/24
f 22/35/22 21/34/21 17/33/17
f 17/33/17 18/36/18 22/35/22
f 70/29/70 65/31/65 69/30/69
f 65/31/65 70/29/70 66/32/66
f 68/35/68 63/33/63 67/34/67
f 63/33/63 68/35/68 64/36/64
g fff07975_00068_001cbddd_e15
f 24/14/24 21/14/21 22/14/22
f 23/14/23 24/14/24 22/14/22
f 70/14/70 68/14/68 67/14/67
f 69/14/69 68/14/68 70/14/70
