# fff035d2_00034_0019560f
o fff035d2_00034_0019560f
v -9.645432 -2.163801 1.865859
v -10.304935 0.279783 1.865859
v 4.460247 1.009920 2.002444
v 3.890729 3.470330 2.002427
v 2.209242 0.642806 1.893195
v 1.935536 2.355094 1.893195
v 6.833715 1.224579 1.205154
v 6.558002 2.948694 1.205154
v 7.737762 1.795523 0.811600
v 7.848738 3.295454 0.718481
v 11.633962 1.346936 -2.056373
v 11.745637 2.857246 -2.150079
v 9.375577 3.123760 -0.177872
v 9.375286 1.606987 -0.166199
v -4.758561 2.055906 1.919824
v -4.105690 -0.396225 1.919743
v -2.339422 2.509852 1.943097
v -1.715192 0.048273 1.942732
v 0.584485 3.029686 1.971226
v 1.031141 0.524737 1.969144
v 4.123101 2.718939 2.071072
v 4.564116 1.026890 2.084028
v 2.502959 -2.806095 1.931201
v 2.047042 1.780380 1.934225
v -2.372816 1.169189 1.882919
v -1.649444 -3.331985 2.104775
v 16.414471 0.392390 -6.042069
v 14.156084 3.938519 -4.163568
v 14.155792 0.911392 -4.151896
v 14.836922 3.785722 -4.730116
v 15.109480 3.051918 -4.956750
v 16.492138 2.488689 -6.107239
v 15.341983 5.344151 -5.027132
v 15.341691 1.976882 -5.015459
v 16.295378 2.761776 -5.820313
v 10.836124 1.395531 -1.355436
v 13.418224 1.232738 -3.510642
v 12.859346 2.515472 -3.046309
vt 1.000000 2.004222
vt 2.000000 1.506713
vt 2.000000 2.004222
vt 1.000000 1.506713
vt 1.608190 1.506713
vt 1.579712 2.004222
vt 1.604887 1.506713
vt 1.605485 2.004222
vt 1.434473 1.506713
vt 1.437145 2.004222
vt 1.228501 1.506713
vt 1.243746 2.004222
vt 1.000000 2.004222
vt 1.464968 1.006245
vt 1.464968 2.004222
vt 1.000000 1.006245
vt 1.235400 1.006245
vt 1.218678 2.004222
vt 1.459932 1.006245
vt 1.998821 1.006245
vt 1.459932 1.916557
vt 1.998821 1.916557
vt 2.000000 2.000000
vt 1.000000 1.000000
vt 1.000000 2.000000
vt 2.021566 1.712734
vt 1.793055 1.587305
vt 1.747680 1.000000
vt 1.279206 1.480253
vt 2.000000 2.000000
vt 1.000000 2.000000
vt 1.202128 1.099148
vt 1.922922 1.618895
vt 0.922923 1.618895
vn -0.008955 -0.002417 0.999957
vn -0.008955 -0.002417 0.999957
vn -0.009239 -0.002274 0.999955
vn -0.009155 -0.002112 0.999956
vn -0.078727 -0.012584 0.996817
vn -0.078797 -0.012724 0.996810
vn 0.338458 0.070189 0.938360
vn 0.330176 0.052800 0.942441
vn 0.513909 0.015226 0.857709
vn 0.510900 0.011534 0.859563
vn 0.640387 0.001947 0.768049
vn 0.639666 0.000392 0.768653
vn 0.572328 0.005414 0.820007
vn 0.581734 0.008007 0.813340
vn -0.009055 -0.002444 0.999956
vn -0.009057 -0.002445 0.999956
vn -0.009170 -0.002472 0.999955
vn -0.009173 -0.002474 0.999955
vn -0.009228 -0.002407 0.999955
vn -0.009271 -0.002486 0.999954
vn 0.118613 0.030806 0.992463
vn 0.157160 0.048575 0.986378
vn 0.012055 0.026926 0.999565
vn -0.011360 -0.001789 0.999934
vn 0.010328 0.024809 0.999639
vn 0.034776 0.054773 0.997893
vn 0.641045 0.001343 0.767502
vn 0.640672 0.002031 0.767812
vn 0.641792 0.002408 0.766875
vn 0.639666 0.000195 0.768653
vn 0.640954 0.001885 0.767577
vn 0.639665 0.000196 0.768654
vn 0.643704 0.002597 0.765270
vn 0.643704 0.002597 0.765270
vn 0.643704 0.002597 0.765270
vn 0.640839 0.001321 0.767674
vn 0.640839 0.001321 0.767674
vn 0.640839 0.001321 0.767674
g fff035d2_00034_0019560f_e5
f 15/7/15 18/10/18 17/9/17
f 17/9/17 18/10/18 20/12/20
f 16/8/16 2/2/2 1/3/1
f 4/4/4 19/11/19 3/1/3
f 17/9/17 20/12/20 19/11/19
f 19/11/19 20/12/20 3/1/3
f 14/6/14 10/2/10 9/3/9
f 12/4/12 13/5/13 11/1/11
f 13/5/13 14/6/14 11/1/11
f 13/5/13 10/2/10 14/6/14
f 15/7/15 16/8/16 18/10/18
f 15/7/15 2/2/2 16/8/16
g fff035d2_00034_0019560f_e13
f 22/18/22 6/14/6 5/15/5
f 8/16/8 21/17/21 7/13/7
f 21/17/21 22/18/22 7/13/7
f 21/17/21 6/14/6 22/18/22
f 24/19/24 25/20/25 23/21/23
f 25/20/25 26/22/26 23/21/23
f 35/29/35 33/30/33 34/31/34
f 38/32/38 36/33/36 37/34/37
g fff035d2_00034_0019560f_e4
f 32/28/32 31/27/31 27/24/27
f 31/27/31 29/25/29 27/24/27
f 30/26/30 28/23/28 31/27/31
f 31/27/31 28/23/28 29/25/29
