# fff01f57_00002_00099361
o fff01f57_00002_00099361
v -0.057318 0.032857 0.089244
v -0.057271 0.008915 0.096358
v -0.032378 0.032878 0.089238
v -0.032331 0.008937 0.096352
v -0.063272 -0.060942 -0.000689
v 0.061983 -0.060942 -0.000689
v -0.063272 0.064313 -0.000689
v 0.061983 0.064313 -0.000689
v -0.063272 -0.060942 0.124567
v 0.061983 -0.060942 0.124567
v -0.063272 0.064313 0.124567
v 0.061983 0.064313 0.124567
vt 0.586325 0.502956
vt 0.586325 -0.497044
vt 0.586325 0.502956
vt 0.586325 -0.497044
vt 0.000000 0.000000
vt 1.000000 0.000000
vt 0.000000 1.000000
vt 1.000000 1.000000
vt 0.000000 0.000000
vt 1.000000 0.000000
vt 0.000000 1.000000
vt 1.000000 1.000000
vt 0.000000 0.000000
vt 1.000000 0.000000
vt 0.000000 1.000000
vt 1.000000 1.000000
vn -0.000004 0.284814 0.958583
vn -0.000004 0.284814 0.958583
vn -0.000005 0.284814 0.958583
vn -0.000004 0.284814 0.958583
vn -0.577350 -0.577350 -0.577350
vn 0.577350 -0.577350 -0.577350
vn -0.577350 0.577350 -0.577350
vn 0.577350 0.577350 -0.577350
vn -0.577350 -0.577350 0.577350
vn 0.577350 -0.577350 0.577350
vn -0.577350 0.577350 0.577350
vn 0.577350 0.577350 0.577350
g fff01f57_00002_00099361_e13
f 4/4/4 3/3/3 1/1/1
f 1/1/1 2/2/2 4/4/4
g fff01f57_00002_00099361_e0
f 9/8/9 11/7/11 7/5/7
f 7/5/7 5/6/5 9/8/9
f 11/12/11 12/11/12 8/9/8
f 8/9/8 7/10/7 11/12/11
f 12/8/12 10/7/10 6/5/6
f 6/5/6 8/6/8 12/8/12
f 10/12/10 9/11/9 5/9/5
f 5/9/5 6/10/6 10/12/10
f 12/16/12 11/15/11 9/13/9
f 9/13/9 10/14/10 12/16/12
f 8/15/8 6/13/6 5/14/5
f 5/14/5 7/16/7 8/15/8
