# fff0ac53_00182_003a8e98
o fff0ac53_00182_003a8e98
v 0.085205 -1.187500 0.079620
v 0.085205 1.563328 0.079620
v -0.095550 1.563331 -0.082153
v -0.095551 -1.187496 -0.082153
v -0.319153 1.563328 0.082230
v -0.319153 -1.187496 0.082230
v 4.123260 -1.187497 0.079620
v 4.123260 1.563327 0.079620
v 3.942505 1.563327 -0.082153
v 3.942504 -1.187497 -0.082153
v 3.718902 1.563327 0.082230
v 3.718902 -1.187497 0.082230
v -3.721008 -1.187465 0.079620
v -3.721008 1.563359 0.079620
v -3.901763 1.563359 -0.082153
v -3.901764 -1.187465 -0.082153
v -4.125365 1.563359 0.082230
v -4.125366 -1.187465 0.082230
vt 0.191509 0.839271
vt 0.191509 0.839271
vt 0.191509 0.839271
vt 0.191509 0.839271
vn 0.935262 -0.000000 0.353956
vn 0.935269 -0.000000 0.353939
vn 0.048033 -0.000000 -0.998846
vn 0.048037 -0.000000 -0.998846
vn -0.949179 0.000000 0.314737
vn -0.949172 0.000000 0.314759
vn 0.935264 -0.000000 0.353952
vn 0.935264 -0.000000 0.353951
vn 0.048033 -0.000000 -0.998846
vn 0.048034 -0.000000 -0.998846
vn -0.949175 0.000000 0.314751
vn -0.949175 0.000000 0.314750
vn 0.935264 -0.000000 0.353952
vn 0.935264 -0.000000 0.353951
vn 0.048033 0.000000 -0.998846
vn 0.048034 -0.000000 -0.998846
vn -0.949174 0.000000 0.314751
vn -0.949175 0.000000 0.314750
g fff0ac53_00182_003a8e98_e46
f 4/2/4 3/1/3 2/1/2
f 2/1/2 1/2/1 4/2/4
f 3/1/3 4/2/4 6/4/6
f 6/4/6 5/3/5 3/1/3
f 10/2/10 9/1/9 8/1/8
f 8/1/8 7/2/7 10/2/10
f 9/1/9 10/2/10 12/4/12
f 12/4/12 11/3/11 9/1/9
f 16/2/16 15/1/15 14/1/14
f 14/1/14 13/2/13 16/2/16
f 15/1/15 16/2/16 18/4/18
f 18/4/18 17/3/17 15/1/15
g fff0ac53_00182_003a8e98_e34
f 1/1/1 2/1/2 6/1/6
f 5/1/5 6/1/6 2/1/2
f 7/1/7 8/1/8 12/1/12
f 11/1/11 12/1/12 8/1/8
f 13/1/13 14/1/14 18/1/18
f 17/1/17 18/1/18 14/1/14
