# fff08519_00215_003e06a8
o fff08519_00215_003e06a8
v -8.901970 14.481274 1.931926
v -12.288404 11.674117 1.821970
v -11.342070 11.002647 1.828922
v -10.487476 12.619005 1.949833
v -7.708701 13.424738 1.698109
v -9.356122 11.638445 1.778761
v -11.050858 9.840158 1.791278
v -11.942627 9.659136 1.765486
v -13.211861 10.536637 1.477641
v -13.202503 12.149612 1.348416
v -11.682861 13.769276 1.346090
v -10.137179 15.574943 1.349213
v -9.971422 12.179802 1.855070
v -8.293428 13.943649 1.778590
v -11.210663 13.332659 1.542834
v -9.643359 15.137709 1.582173
vt 0.930923 0.897395
vt 1.007730 0.877559
vt 0.961528 0.776308
vt 0.974704 0.886774
vt 0.946069 0.837470
vt 0.878133 0.776322
vt 0.884303 0.838090
vt 0.891960 0.900807
vt 0.922165 0.921420
vt 1.002718 0.922719
vt 1.055715 0.883371
vt 1.049962 0.836962
vt 1.047854 0.769375
vt 0.911854 0.837813
vt 0.906838 0.776317
vt 1.016106 0.837128
vt 1.013342 0.772147
vn -0.065002 0.055288 0.996352
vn -0.233935 0.061526 0.970304
vn -0.042843 -0.054116 0.997615
vn -0.069063 0.071521 0.995045
vn 0.093915 -0.045301 0.994549
vn 0.068100 -0.050256 0.996412
vn 0.000227 -0.032308 0.999478
vn -0.124802 0.008942 0.992141
vn -0.259956 -0.012361 0.965541
vn -0.368542 0.196423 0.908622
vn -0.221919 0.229829 0.947592
vn -0.253853 0.215672 0.942892
vn 0.085912 -0.077126 0.993313
vn 0.117783 -0.076579 0.990082
vn -0.220028 0.243913 0.944507
vn -0.255848 0.208109 0.944051
g fff08519_00215_003e06a8_e0
f 15/16/15 4/5/4 1/3/1
f 15/16/15 2/2/2 4/5/4
f 10/11/10 9/10/9 2/2/2
f 10/11/10 2/2/2 11/12/11
f 8/9/8 3/1/3 9/10/9
f 12/13/12 11/12/11 16/17/16
f 2/2/2 3/4/3 4/5/4
f 14/15/14 13/14/13 5/6/5
f 8/9/8 7/8/7 3/1/3
f 9/10/9 3/4/3 2/2/2
f 16/17/16 11/12/11 15/16/15
f 3/1/3 13/14/13 4/5/4
f 4/5/4 14/15/14 1/3/1
f 3/1/3 7/8/7 6/7/6
f 11/12/11 2/2/2 15/16/15
f 13/14/13 6/7/6 5/6/5
f 3/1/3 6/7/6 13/14/13
f 4/5/4 13/14/13 14/15/14
f 16/17/16 15/16/15 1/3/1
