# fff035d2_00020_001369a5
o fff035d2_00020_001369a5
v -0.248437 -1.155046 2.188708
v -0.418533 0.000100 -2.621735
v -0.375481 0.100911 -2.596995
v -0.576276 -1.024986 2.229445
v -0.746339 0.130164 -2.581010
v -0.703329 0.230924 -2.556250
v -0.291406 -1.255818 2.163926
v -0.619336 -1.125781 2.204710
v -0.429218 -0.539471 0.045358
v -0.471221 -0.650793 0.060599
v -0.799570 -0.516426 0.084903
v -0.757371 -0.407045 0.076879
v -0.248437 -1.155046 2.188708
v -0.418533 0.000100 -2.621735
v -0.375481 0.100911 -2.596995
v -0.291406 -1.255818 2.163926
v -0.429218 -0.539471 0.045358
v -0.471221 -0.650793 0.060599
v -0.291406 -1.255818 2.163926
v -0.418533 0.000100 -2.621735
v -0.619336 -1.125781 2.204710
v -0.746339 0.130164 -2.581010
v -0.799570 -0.516426 0.084903
v -1.143998 -0.799800 2.300015
v -1.314119 0.355329 -2.510413
v -1.271106 0.456092 -2.485642
v -1.471889 -0.669777 2.340774
v -1.642019 0.485366 -2.469653
v -1.599025 0.586156 -2.444886
v -1.187026 -0.900594 2.275260
v -1.514951 -0.770575 2.316031
v -1.201938 -0.089648 -0.429725
v -1.243959 -0.200943 -0.414486
v -1.572268 -0.066588 -0.390203
v -1.530058 0.042781 -0.398221
v -1.143998 -0.799800 2.300015
v -1.314119 0.355329 -2.510413
v -1.271106 0.456092 -2.485642
v -1.187026 -0.900594 2.275260
v -1.201938 -0.089648 -0.429725
v -1.243959 -0.200943 -0.414486
v -1.187026 -0.900594 2.275260
v -1.314119 0.355329 -2.510413
v -1.514951 -0.770575 2.316031
v -1.642019 0.485366 -2.469653
v -1.572268 -0.066588 -0.390203
v -2.509287 1.054351 -2.333463
v -0.154982 -0.218929 -2.689688
v -0.027329 0.080132 -2.616201
v -2.518408 1.144480 -2.676771
v -0.164190 -0.128843 -3.032970
v -0.036436 0.170192 -2.959488
v -2.636971 0.755329 -2.406957
v -2.646097 0.845413 -2.750250
v -0.914226 0.431911 -2.505954
v -1.056580 0.138696 -2.577617
v -1.059670 0.226341 -2.921666
v -0.919937 0.520651 -2.849683
v -2.509287 1.054351 -2.333463
v -0.154982 -0.218929 -2.689688
v -0.027329 0.080132 -2.616201
v -2.636971 0.755329 -2.406957
v -0.914226 0.431911 -2.505954
v -1.056580 0.138696 -2.577617
v -2.636971 0.755329 -2.406957
v -0.154982 -0.218929 -2.689688
v -2.646097 0.845413 -2.750250
v -0.164190 -0.128843 -3.032970
v -1.059670 0.226341 -2.921666
v -2.372974 -0.292217 2.797879
v 0.056333 -1.595371 2.432365
v 0.184042 -1.296330 2.505849
v -2.382100 -0.202131 2.454591
v 0.084652 -1.520174 2.084425
v 0.212395 -1.221030 2.157858
v -2.500721 -0.591305 2.724427
v -2.509827 -0.501207 2.381108
v -0.778018 -0.914772 2.625455
v -0.920345 -1.208028 2.553791
v -0.923462 -1.120342 2.209742
v -0.783725 -0.825989 2.281706
v -2.372974 -0.292217 2.797879
v 0.056333 -1.595371 2.432365
v 0.184042 -1.296330 2.505849
v -2.500721 -0.591305 2.724427
v -0.778018 -0.914772 2.625455
v -0.920345 -1.208028 2.553791
v -2.500721 -0.591305 2.724427
v 0.056333 -1.595371 2.432365
v -2.509827 -0.501207 2.381108
v 0.084652 -1.520174 2.084425
v -0.923462 -1.120342 2.209742
v -2.575387 0.651419 -1.618640
v 0.164488 -0.505481 -1.953960
v 0.193831 -0.436769 -1.937088
v -2.584483 0.741504 -1.961956
v 0.087259 -0.388360 -2.288805
v 0.116535 -0.319656 -2.271909
v -2.604741 0.582719 -1.635518
v -2.613800 0.672850 -1.978870
v -0.980362 0.028910 -1.791124
v -1.024302 -0.033940 -1.806200
v -1.027372 0.053741 -2.150247
v -0.986101 0.117691 -2.134852
v -2.575387 0.651419 -1.618640
v 0.164488 -0.505481 -1.953960
v 0.193831 -0.436769 -1.937088
v -2.604741 0.582719 -1.635518
v -0.980362 0.028910 -1.791124
v -1.024302 -0.033940 -1.806200
v -2.604741 0.582719 -1.635518
v 0.164488 -0.505481 -1.953960
v -2.613800 0.672850 -1.978870
v 0.087259 -0.388360 -2.288805
v -1.027372 0.053741 -2.150247
v -2.561164 0.511213 -1.084408
v 0.378371 -0.741863 -1.376797
v 0.407654 -0.673175 -1.359906
v -2.570298 0.601351 -1.427730
v 0.229511 -0.596364 -1.702736
v 0.258873 -0.527679 -1.685863
v -2.590527 0.442527 -1.101285
v -2.599648 0.532594 -1.444590
v -0.966190 -0.111272 -1.256877
v -1.010100 -0.174160 -1.271942
v -1.013208 -0.086488 -1.615993
v -0.971879 -0.022517 -1.600625
v -2.561164 0.511213 -1.084408
v 0.378371 -0.741863 -1.376797
v 0.407654 -0.673175 -1.359906
v -2.590527 0.442527 -1.101285
v -0.966190 -0.111272 -1.256877
v -1.010100 -0.174160 -1.271942
v -2.590527 0.442527 -1.101285
v 0.378371 -0.741863 -1.376797
v -2.599648 0.532594 -1.444590
v 0.229511 -0.596364 -1.702736
v -1.013208 -0.086488 -1.615993
v -2.545114 0.352639 -0.480167
v -0.223960 -0.638227 -0.763428
v -0.194596 -0.569540 -0.746547
v -2.554287 0.442729 -0.823461
v 0.039656 -0.656252 -1.140650
v 0.068997 -0.587581 -1.123750
v -2.574462 0.283983 -0.497061
v -2.583606 0.374036 -0.840344
v -0.950129 -0.269857 -0.652629
v -0.994112 -0.332759 -0.667690
v -0.997203 -0.245054 -1.011746
v -0.955801 -0.181069 -0.996386
v -2.545114 0.352639 -0.480167
v -0.223960 -0.638227 -0.763428
v -0.194596 -0.569540 -0.746547
v -2.574462 0.283983 -0.497061
v -0.950129 -0.269857 -0.652629
v -0.994112 -0.332759 -0.667690
v -2.574462 0.283983 -0.497061
v -0.223960 -0.638227 -0.763428
v -2.583606 0.374036 -0.840344
v 0.039656 -0.656252 -1.140650
v -0.997203 -0.245054 -1.011746
v -2.526129 0.164943 0.235064
v 0.001560 -0.907851 -0.073851
v 0.030869 -0.839144 -0.056967
v -2.535302 0.255033 -0.108230
v 0.061839 -0.845247 -0.425799
v 0.091193 -0.776547 -0.408921
v -2.555492 0.096257 0.218187
v -2.564608 0.186330 -0.125099
v -0.931157 -0.457582 0.062622
v -0.975111 -0.520423 0.047532
v -0.978184 -0.432746 -0.296527
v -0.936831 -0.368797 -0.281142
v -2.526129 0.164943 0.235064
v 0.001560 -0.907851 -0.073851
v 0.030869 -0.839144 -0.056967
v -2.555492 0.096257 0.218187
v -0.931157 -0.457582 0.062622
v -0.975111 -0.520423 0.047532
v -2.555492 0.096257 0.218187
v 0.001560 -0.907851 -0.073851
v -2.564608 0.186330 -0.125099
v 0.061839 -0.845247 -0.425799
v -0.978184 -0.432746 -0.296527
v -2.505407 -0.040148 1.016581
v 0.061010 -1.147535 0.779558
v 0.090340 -1.078852 0.796451
v -2.514478 0.049955 0.673254
v 0.015250 -1.042900 0.440805
v 0.044585 -0.974174 0.457678
v -2.534743 -0.108876 0.999704
v -2.543853 -0.018721 0.656367
v -0.910336 -0.662664 0.844096
v -0.954339 -0.725540 0.829030
v -0.957428 -0.637833 0.484978
v -0.916064 -0.573857 0.500338
v -2.505407 -0.040148 1.016581
v 0.061010 -1.147535 0.779558
v 0.090340 -1.078852 0.796451
v -2.534743 -0.108876 0.999704
v -0.910336 -0.662664 0.844096
v -0.954339 -0.725540 0.829030
v -2.534743 -0.108876 0.999704
v 0.061010 -1.147535 0.779558
v -2.543853 -0.018721 0.656367
v 0.015250 -1.042900 0.440805
v -0.957428 -0.637833 0.484978
v -1.218057 2.645221 -2.018270
v -0.597948 0.087463 -2.685987
v -0.405527 0.147238 -2.675180
v -1.222968 2.693616 -2.202678
v -0.602845 0.135886 -2.870416
v -0.410451 0.195605 -2.859564
v -1.410452 2.585464 -2.029087
v -1.415339 2.633875 -2.213514
v -0.718247 1.108423 -2.422349
v -0.915351 1.063353 -2.429363
v -0.918280 1.105709 -2.615366
v -0.721988 1.153465 -2.607684
v -1.218057 2.645221 -2.018270
v -0.597948 0.087463 -2.685987
v -0.405527 0.147238 -2.675180
v -1.410452 2.585464 -2.029087
v -0.718247 1.108423 -2.422349
v -0.915351 1.063353 -2.429363
v -1.410452 2.585464 -2.029087
v -0.597948 0.087463 -2.685987
v -1.415339 2.633875 -2.213514
v -0.602845 0.135886 -2.870416
v -0.918280 1.105709 -2.615366
v -1.305454 1.985790 0.628080
v -0.685345 -0.571968 -0.039637
v -0.492911 -0.512165 -0.028852
v -1.310365 2.034184 0.443671
v -0.690242 -0.523544 -0.224063
v -0.497827 -0.463813 -0.213241
v -1.497804 1.926063 0.617222
v -1.502722 1.974473 0.432819
v -0.805549 0.449057 0.223935
v -1.002736 0.403949 0.216962
v -1.005655 0.446292 0.030961
v -0.809339 0.494065 0.038628
v -1.305454 1.985790 0.628080
v -0.685345 -0.571968 -0.039637
v -0.492911 -0.512165 -0.028852
v -1.497804 1.926063 0.617222
v -0.805549 0.449057 0.223935
v -1.002736 0.403949 0.216962
v -1.497804 1.926063 0.617222
v -0.685345 -0.571968 -0.039637
v -1.502722 1.974473 0.432819
v -0.690242 -0.523544 -0.224063
v -1.005655 0.446292 0.030961
v -1.082318 1.303483 3.094443
v -0.462195 -1.254247 2.426705
v -0.269838 -1.194536 2.437557
v -1.087194 1.351883 2.910026
v -0.467038 -1.205844 2.242272
v -0.274694 -1.146161 2.253145
v -1.274693 1.243700 3.083631
v -1.279551 1.292172 2.899173
v -0.582457 -0.233241 2.690307
v -0.779532 -0.278350 2.683300
v -0.782530 -0.236041 2.497353
v -0.586278 -0.188332 2.505062
v -1.082318 1.303483 3.094443
v -0.462195 -1.254247 2.426705
v -0.269838 -1.194536 2.437557
v -1.274693 1.243700 3.083631
v -0.582457 -0.233241 2.690307
v -0.779532 -0.278350 2.683300
v -1.274693 1.243700 3.083631
v -0.462195 -1.254247 2.426705
v -1.279551 1.292172 2.899173
v -0.467038 -1.205844 2.242272
v -0.782530 -0.236041 2.497353
v -2.482712 -0.263985 1.869625
v 0.029087 -1.342230 1.609390
v 0.058446 -1.273487 1.626248
v -2.491902 -0.173964 1.526380
v -0.119724 -1.196696 1.283425
v -0.090350 -1.128021 1.300308
v -2.512102 -0.332728 1.852791
v -2.521217 -0.242617 1.509470
v -0.887754 -0.886539 1.697205
v -0.931700 -0.949433 1.682144
v -0.934767 -0.861712 1.338070
v -0.893451 -0.797769 1.353459
v -2.482712 -0.263985 1.869625
v 0.029087 -1.342230 1.609390
v 0.058446 -1.273487 1.626248
v -2.512102 -0.332728 1.852791
v -0.887754 -0.886539 1.697205
v -0.931700 -0.949433 1.682144
v -2.512102 -0.332728 1.852791
v 0.029087 -1.342230 1.609390
v -2.521217 -0.242617 1.509470
v -0.119724 -1.196696 1.283425
v -0.934767 -0.861712 1.338070
vt -1.054410 0.006252
vt -5.345804 0.006252
vt -5.345804 -1.032547
vt -1.054410 -1.032547
vt 5.771136 -0.007469
vt 2.389796 -0.007469
vt 2.394765 -0.985554
vt 5.641547 -0.985554
vt -3.062919 0.006252
vt 4.434401 -0.007469
vt 4.409206 -0.985554
vt -3.062919 -1.032547
vt -3.062919 0.006252
vt -3.062919 -1.032547
vt -1.054410 0.006252
vt -3.062919 0.006252
vt -5.345804 -1.032547
vt -3.062919 -1.032547
vt 1.090249 0.019053
vt 0.090043 0.019801
vt 0.122734 -1.108133
vt 1.122944 -1.108317
vt 2.025892 2.010060
vt 0.352812 2.010060
vt 0.373041 0.986743
vt 2.020700 0.986743
vt 1.585307 1.000001
vt 3.212826 1.000001
vt 1.609699 2.000000
vt -0.273660 1.000001
vt 3.212826 2.000001
vt -0.273660 2.000001
vt 1.590910 1.000001
vt 1.610251 2.000001
vt 3.155306 2.000000
vt 3.155306 1.000001
vt -0.216790 1.000001
vt -0.216790 2.000000
vt 2.025892 2.010060
vt 0.352812 2.010060
vt 0.373041 0.986743
vt 2.020700 0.986743
vt 1.585307 1.000001
vt 3.212826 1.000001
vt 1.609699 2.000000
vt -0.273660 1.000001
vt 3.212826 2.000001
vt 0.122734 -1.108133
vt 1.122944 -1.108317
vt 1.090249 0.019053
vt 4.409206 -0.985554
vt 5.641547 -0.985554
vt 5.771136 -0.007469
vt -0.273660 2.000001
vt 4.434401 -0.007469
vt 2.394765 -0.985554
vt 2.389796 -0.007469
vt 0.090043 0.019801
vt -3.062919 0.006252
vt -3.062919 -1.032547
vt -1.054410 0.006252
vt -3.062919 0.006252
vt -5.345804 0.006252
vt -5.345804 -1.032547
vt -3.062919 -1.032547
vt -3.062919 0.006252
vt -5.345804 -1.032547
vt -3.062919 -1.032547
vt -1.054410 -1.032547
vt -1.054410 0.006252
vt 1.590910 1.000001
vt 1.610251 2.000001
vt 3.155306 2.000000
vt 3.155306 1.000001
vt -0.216790 1.000001
vt -0.216790 2.000000
vt 3.679695 1.637466
vt -1.285471 1.637465
vt -1.265249 0.614147
vt 3.633550 0.614182
vt 5.372110 0.016121
vt 5.996167 0.016103
vt 5.381464 2.983795
vt 4.659305 0.016102
vt 5.996169 2.983782
vt -0.849378 -1.518441
vt 2.118927 -1.518985
vt 2.086224 -0.391616
vt 7.242451 -1.341685
vt 7.714981 -1.341685
vt 7.844570 -0.363600
vt 4.659309 2.983790
vt 7.979878 -0.363600
vt 6.612053 -1.341685
vt 7.423372 -0.363599
vt -0.882241 -0.390369
vt -7.083121 -0.371986
vt -7.079400 -1.410786
vt -6.312977 -0.371986
vt -8.433990 -0.371986
vt -9.309341 -0.371987
vt -9.309341 -1.410786
vt -8.445086 -1.410786
vt -8.450072 -0.371986
vt -9.320438 -1.410786
vt -7.069558 -1.410785
vt -6.299414 -1.410785
vt -6.299414 -0.371985
vt 5.247476 0.016098
vt 5.254892 2.983784
vt 5.847329 2.983786
vt 5.847328 0.016112
vt 4.554329 0.016108
vt 4.554329 2.983789
vt 3.646344 3.324359
vt -1.318824 3.324358
vt -1.298601 2.301040
vt 3.709603 2.301020
vt 5.372110 0.016113
vt 5.996167 0.016095
vt 5.381464 2.983787
vt 4.659305 0.016094
vt 5.996169 2.983784
vt -0.903275 0.339980
vt 2.065029 0.339434
vt 2.032326 1.466805
vt 7.456074 0.270645
vt 7.928604 0.270647
vt 8.058193 1.248731
vt 4.659309 2.983792
vt 9.201081 1.248728
vt 7.833256 0.270643
vt 8.760795 1.248731
vt -0.936401 1.469208
vt -7.093071 1.340428
vt -7.089349 0.301628
vt -6.322927 1.340429
vt -8.433990 1.340429
vt -9.309341 1.340429
vt -9.309341 0.301629
vt -8.458418 0.301630
vt -8.463405 1.340430
vt -9.333771 0.301630
vt -7.069558 0.301629
vt -6.299414 0.301629
vt -6.299414 1.340429
vt 5.247476 0.016102
vt 5.254892 2.983787
vt 5.847330 2.983790
vt 5.847328 0.016114
vt 4.554329 0.016110
vt 4.554329 2.983790
vt 1.733988 3.324359
vt 0.593385 3.324358
vt 0.613617 2.301040
vt 1.780679 2.301027
vt 5.372111 1.159120
vt 5.996167 1.159117
vt 5.381464 1.840856
vt 4.659306 1.159114
vt 5.996168 1.840856
vt 0.239977 0.339770
vt 0.921857 0.339644
vt 0.889160 1.467015
vt 7.456074 0.270644
vt 7.928604 0.270646
vt 8.058193 1.248730
vt 4.659307 1.840858
vt 9.201085 1.248730
vt 7.833259 0.270644
vt 8.760795 1.248731
vt 0.207020 1.468281
vt -7.093071 1.340428
vt -7.089349 0.301628
vt -6.322927 1.340429
vt -8.433990 1.340430
vt -9.309341 1.340430
vt -9.309341 0.301630
vt -8.458418 0.301629
vt -8.463405 1.340430
vt -9.333771 0.301630
vt -7.069558 0.301629
vt -6.299414 0.301630
vt -6.299414 1.340430
vt 5.247476 1.159119
vt 5.254892 1.840857
vt 5.847330 1.840858
vt 5.847329 1.159124
vt 4.554329 1.159120
vt 4.554329 1.840858
vt 1.733988 3.324359
vt 0.593385 3.324358
vt 0.613617 2.301040
vt 1.780679 2.301027
vt 5.372111 1.159120
vt 5.996167 1.159117
vt 5.381464 1.840856
vt 4.659306 1.159114
vt 5.996168 1.840856
vt 0.239977 0.339770
vt 0.921857 0.339644
vt 0.889160 1.467015
vt 7.456074 0.270644
vt 7.928604 0.270646
vt 8.058193 1.248730
vt 4.659307 1.840858
vt 9.201085 1.248730
vt 7.833259 0.270644
vt 8.760795 1.248731
vt 0.207020 1.468281
vt -7.093071 1.340428
vt -7.089349 0.301628
vt -6.322927 1.340429
vt -8.433990 1.340430
vt -9.309341 1.340430
vt -9.309341 0.301630
vt -8.458418 0.301629
vt -8.463405 1.340430
vt -9.333771 0.301630
vt -7.069558 0.301629
vt -6.299414 0.301630
vt -6.299414 1.340430
vt 5.247476 1.159119
vt 5.254892 1.840857
vt 5.847330 1.840858
vt 5.847329 1.159124
vt 4.554329 1.159120
vt 4.554329 1.840858
vt 1.733988 3.324359
vt 0.593385 3.324358
vt 0.613617 2.301040
vt 1.780679 2.301027
vt 1.733988 3.324359
vt 0.593385 3.324358
vt 0.613617 2.301040
vt 1.780679 2.301027
vt 5.372111 1.159120
vt 5.996167 1.159117
vt 5.381464 1.840856
vt 4.659306 1.159114
vt 5.996168 1.840856
vt 0.239977 0.339770
vt 0.921857 0.339644
vt 0.889160 1.467015
vt 7.456074 0.270644
vt 7.928604 0.270646
vt 8.058193 1.248730
vt 4.659307 1.840858
vt 9.201085 1.248730
vt 7.833259 0.270644
vt 8.760795 1.248731
vt 0.207020 1.468281
vt 5.372111 1.159120
vt 5.996167 1.159117
vt 5.381464 1.840856
vt 4.659306 1.159114
vt 5.996168 1.840856
vt 0.239977 0.339770
vt 0.921857 0.339644
vt 0.889160 1.467015
vt 7.456074 0.270644
vt 7.928604 0.270646
vt 8.058193 1.248730
vt 4.659307 1.840858
vt 9.201085 1.248730
vt 7.833259 0.270644
vt 8.760795 1.248731
vt 0.207020 1.468281
vt -7.093071 1.340428
vt -7.089349 0.301628
vt -6.322927 1.340429
vt -8.433990 1.340430
vt -9.309341 1.340430
vt -9.309341 0.301630
vt -8.458418 0.301629
vt -8.463405 1.340430
vt -9.333771 0.301630
vt -7.069558 0.301629
vt -6.299414 0.301630
vt -6.299414 1.340430
vt 5.247476 1.159119
vt 5.254892 1.840857
vt 5.847330 1.840858
vt 5.847329 1.159124
vt 4.554329 1.159120
vt 4.554329 1.840858
vt -7.093071 1.340428
vt -7.089349 0.301628
vt -6.322927 1.340429
vt -8.433990 1.340430
vt -9.309341 1.340430
vt -9.309341 0.301630
vt -8.458418 0.301629
vt -8.463405 1.340430
vt -9.333771 0.301630
vt -7.069558 0.301629
vt -6.299414 0.301630
vt -6.299414 1.340430
vt 5.247476 1.159119
vt 5.254892 1.840857
vt 5.847330 1.840858
vt 5.847329 1.159124
vt 4.554329 1.159120
vt 4.554329 1.840858
vt 1.733988 3.324359
vt 0.593385 3.324358
vt 0.613617 2.301040
vt 1.780679 2.301027
vt 5.372111 1.159120
vt 5.996167 1.159117
vt 5.381464 1.840856
vt 4.659306 1.159114
vt 5.996168 1.840856
vt 0.239977 0.339770
vt 0.921857 0.339644
vt 0.889160 1.467015
vt 7.456074 0.270644
vt 7.928604 0.270646
vt 8.058193 1.248730
vt 4.659307 1.840858
vt 9.201085 1.248730
vt 7.833259 0.270644
vt 8.760795 1.248731
vt 0.207020 1.468281
vt -7.093071 1.340428
vt -7.089349 0.301628
vt -6.322927 1.340429
vt -8.433990 1.340430
vt -9.309341 1.340430
vt -9.309341 0.301630
vt -8.458418 0.301629
vt -8.463405 1.340430
vt -9.333771 0.301630
vt -7.069558 0.301629
vt -6.299414 0.301630
vt -6.299414 1.340430
vt 5.247476 1.159119
vt 5.254892 1.840857
vt 5.847330 1.840858
vt 5.847329 1.159124
vt 4.554329 1.159120
vt 4.554329 1.840858
vt 3.679695 1.637466
vt -1.285471 1.637465
vt -1.265249 0.614147
vt 3.633550 0.614182
vt 5.372110 0.016121
vt 5.996167 0.016103
vt 5.381464 2.983795
vt 4.659305 0.016102
vt 5.996169 2.983782
vt -0.849378 -1.518441
vt 2.118927 -1.518985
vt 2.086224 -0.391616
vt 7.242451 -1.341685
vt 7.714981 -1.341685
vt 7.844570 -0.363600
vt 4.659309 2.983790
vt 7.979878 -0.363600
vt 6.612053 -1.341685
vt 7.423372 -0.363599
vt -0.882241 -0.390369
vt -7.083121 -0.371986
vt -7.079400 -1.410786
vt -6.312977 -0.371986
vt -8.433990 -0.371986
vt -9.309341 -0.371987
vt -9.309341 -1.410786
vt -8.445086 -1.410786
vt -8.450072 -0.371986
vt -9.320438 -1.410786
vt -7.069558 -1.410785
vt -6.299414 -1.410785
vt -6.299414 -0.371985
vt 5.247476 0.016098
vt 5.254892 2.983784
vt 5.847329 2.983786
vt 5.847328 0.016112
vt 4.554329 0.016108
vt 4.554329 2.983789
vt 3.679695 1.637466
vt -1.285471 1.637465
vt -1.265249 0.614147
vt 3.633550 0.614182
vt 5.372110 0.016121
vt 5.996167 0.016103
vt 5.381464 2.983795
vt 4.659305 0.016102
vt 5.996169 2.983782
vt -0.849378 -1.518441
vt 2.118927 -1.518985
vt 2.086224 -0.391616
vt 7.242451 -1.341685
vt 7.714981 -1.341685
vt 7.844570 -0.363600
vt 4.659309 2.983790
vt 7.979878 -0.363600
vt 6.612053 -1.341685
vt 7.423372 -0.363599
vt -0.882241 -0.390369
vt -7.083121 -0.371986
vt -7.079400 -1.410786
vt -6.312977 -0.371986
vt -8.433990 -0.371986
vt -9.309341 -0.371987
vt -9.309341 -1.410786
vt -8.445086 -1.410786
vt -8.450072 -0.371986
vt -9.320438 -1.410786
vt -7.069558 -1.410785
vt -6.299414 -1.410785
vt -6.299414 -0.371985
vt 5.247476 0.016098
vt 5.254892 2.983784
vt 5.847329 2.983786
vt 5.847328 0.016112
vt 4.554329 0.016108
vt 4.554329 2.983789
vt 3.679695 1.637466
vt -1.285471 1.637465
vt -1.265249 0.614147
vt 3.633550 0.614182
vt 5.372110 0.016121
vt 5.996167 0.016103
vt 5.381464 2.983795
vt 4.659305 0.016102
vt 5.996169 2.983782
vt -0.849378 -1.518441
vt 2.118927 -1.518985
vt 2.086224 -0.391616
vt 7.242451 -1.341685
vt 7.714981 -1.341685
vt 7.844570 -0.363600
vt 4.659309 2.983790
vt 7.979878 -0.363600
vt 6.612053 -1.341685
vt 7.423372 -0.363599
vt -0.882241 -0.390369
vt -7.083121 -0.371986
vt -7.079400 -1.410786
vt -6.312977 -0.371986
vt -8.433990 -0.371986
vt -9.309341 -0.371987
vt -9.309341 -1.410786
vt -8.445086 -1.410786
vt -8.450072 -0.371986
vt -9.320438 -1.410786
vt -7.069558 -1.410785
vt -6.299414 -1.410785
vt -6.299414 -0.371985
vt 5.247476 0.016098
vt 5.254892 2.983784
vt 5.847329 2.983786
vt 5.847328 0.016112
vt 4.554329 0.016108
vt 4.554329 2.983789
vt 1.733988 3.324359
vt 0.593385 3.324358
vt 0.613617 2.301040
vt 1.780679 2.301027
vt 5.372111 1.159120
vt 5.996167 1.159117
vt 5.381464 1.840856
vt 4.659306 1.159114
vt 5.996168 1.840856
vt 0.239977 0.339770
vt 0.921857 0.339644
vt 0.889160 1.467015
vt 7.456074 0.270644
vt 7.928604 0.270646
vt 8.058193 1.248730
vt 4.659307 1.840858
vt 9.201085 1.248730
vt 7.833259 0.270644
vt 8.760795 1.248731
vt 0.207020 1.468281
vt -7.093071 1.340428
vt -7.089349 0.301628
vt -6.322927 1.340429
vt -8.433990 1.340430
vt -9.309341 1.340430
vt -9.309341 0.301630
vt -8.458418 0.301629
vt -8.463405 1.340430
vt -9.333771 0.301630
vt -7.069558 0.301629
vt -6.299414 0.301630
vt -6.299414 1.340430
vt 5.247476 1.159119
vt 5.254892 1.840857
vt 5.847330 1.840858
vt 5.847329 1.159124
vt 4.554329 1.159120
vt 4.554329 1.840858
vn 0.280488 0.439838 0.853152
vn -0.022252 0.247233 -0.968701
vn 0.251802 0.803754 -0.539051
vn -0.278780 0.576323 0.768202
vn -0.655692 0.432011 -0.619220
vn -0.310761 0.872930 -0.376060
vn 0.022179 -0.247559 0.968619
vn -0.613804 0.069693 0.786376
vn 0.383143 0.895878 0.224952
vn -0.383245 -0.895842 -0.224922
vn -0.920718 0.365446 0.136848
vn -0.398275 0.885488 0.239349
vn 0.920231 -0.348678 -0.177758
vn 0.923708 -0.376192 -0.072406
vn 0.923529 -0.376615 -0.072492
vn 0.919945 -0.349330 -0.177960
vn 0.924351 -0.364206 -0.113708
vn 0.919947 -0.366249 -0.139853
vn -0.383216 -0.895852 -0.224932
vn -0.383357 -0.895795 -0.224919
vn -0.383219 -0.895851 -0.224932
vn -0.383367 -0.895791 -0.224920
vn -0.383251 -0.895840 -0.224922
vn 0.286035 0.457373 0.842018
vn -0.022212 0.247604 -0.968607
vn 0.257055 0.812229 -0.523648
vn -0.299779 0.584947 0.753638
vn -0.673771 0.434330 -0.597821
vn -0.328059 0.873116 -0.360618
vn 0.022313 -0.247399 0.968657
vn -0.636104 0.083429 0.767080
vn 0.383175 0.895870 0.224932
vn -0.383242 -0.895842 -0.224928
vn -0.923222 0.365055 0.119987
vn -0.379475 0.891972 0.245733
vn 0.923491 -0.366032 -0.114826
vn 0.923100 -0.362854 -0.127369
vn 0.923140 -0.362759 -0.127351
vn 0.923507 -0.365995 -0.114815
vn 0.922816 -0.365187 -0.122677
vn 0.923298 -0.364983 -0.119614
vn -0.383171 -0.895874 -0.224922
vn -0.383234 -0.895844 -0.224932
vn -0.383177 -0.895871 -0.224922
vn -0.383233 -0.895845 -0.224932
vn -0.383244 -0.895841 -0.224928
vn -0.381836 0.891400 0.244147
vn 0.923366 -0.364544 -0.120432
vn 0.925086 0.372652 0.073111
vn -0.326012 0.870826 -0.367939
vn 0.636294 -0.083262 -0.766940
vn 0.740343 0.451666 -0.497886
vn -0.923330 0.364691 0.120261
vn -0.669116 0.433874 -0.603355
vn 0.379274 0.897417 0.225376
vn -0.379238 -0.897466 -0.225238
vn -0.016109 0.244765 -0.969449
vn 0.258162 0.811342 -0.524477
vn 0.010168 -0.242760 0.970033
vn 0.022232 -0.247512 0.968630
vn 0.022235 -0.247509 0.968631
vn 0.010184 -0.242681 0.970053
vn 0.016450 -0.244954 0.969395
vn 0.016063 -0.244738 0.969456
vn -0.375168 -0.899000 -0.225937
vn -0.383279 -0.895857 -0.224805
vn -0.375174 -0.899007 -0.225900
vn -0.383276 -0.895856 -0.224814
vn -0.379272 -0.897456 -0.225221
vn -0.381776 0.891443 0.244084
vn 0.920450 -0.390744 -0.009533
vn 0.909064 0.385724 0.157542
vn -0.325963 0.870825 -0.367983
vn 0.673477 -0.108095 -0.731262
vn 0.770981 0.426098 -0.473317
vn -0.923289 0.364798 0.120250
vn -0.669087 0.433930 -0.603347
vn 0.379284 0.897386 0.225484
vn -0.379237 -0.897449 -0.225309
vn -0.016154 0.244676 -0.969470
vn 0.258153 0.811346 -0.524476
vn 0.010183 -0.242587 0.970076
vn 0.022255 -0.247522 0.968627
vn 0.022253 -0.247524 0.968626
vn 0.010195 -0.242525 0.970092
vn 0.016465 -0.244923 0.969403
vn 0.016078 -0.244713 0.969462
vn -0.375212 -0.898974 -0.225969
vn -0.383256 -0.895864 -0.224817
vn -0.375218 -0.898979 -0.225937
vn -0.383259 -0.895865 -0.224808
vn -0.379272 -0.897440 -0.225286
vn -0.381750 0.891468 0.244031
vn 0.898449 -0.306480 -0.314418
vn 0.930902 0.353740 -0.091047
vn -0.325950 0.870911 -0.367792
vn 0.564755 -0.037988 -0.824384
vn 0.681410 0.499332 -0.535114
vn -0.923251 0.364910 0.120203
vn -0.668826 0.434205 -0.603439
vn 0.379284 0.897396 0.225444
vn -0.379245 -0.897435 -0.225351
vn -0.015954 0.243740 -0.969709
vn 0.257736 0.811336 -0.524696
vn 0.010188 -0.242677 0.970053
vn 0.022297 -0.247395 0.968658
vn 0.022305 -0.247379 0.968662
vn 0.010210 -0.242616 0.970069
vn 0.017271 -0.244660 0.969455
vn 0.015805 -0.243671 0.969729
vn -0.375175 -0.898961 -0.226081
vn -0.383279 -0.895826 -0.224929
vn -0.375182 -0.898968 -0.226040
vn -0.383277 -0.895824 -0.224940
vn -0.379280 -0.897425 -0.225332
vn -0.381629 0.891475 0.244194
vn 0.839188 -0.237450 -0.489265
vn 0.906797 0.324346 -0.269293
vn -0.326020 0.870752 -0.368106
vn 0.509484 -0.006338 -0.860457
vn 0.637760 0.539351 -0.549875
vn -0.923188 0.365010 0.120379
vn -0.669291 0.433601 -0.603357
vn 0.379339 0.897377 0.225423
vn -0.379288 -0.897437 -0.225273
vn 0.003989 0.231335 -0.972866
vn 0.273799 0.798644 -0.535912
vn 0.010173 -0.242701 0.970048
vn -0.021057 -0.229931 0.972979
vn -0.021194 -0.230210 0.972910
vn 0.010198 -0.242631 0.970065
vn -0.004915 -0.229947 0.973191
vn -0.001125 -0.232225 0.972661
vn -0.375186 -0.899005 -0.225888
vn -0.383258 -0.895852 -0.224860
vn -0.375190 -0.899009 -0.225864
vn -0.383255 -0.895851 -0.224870
vn -0.379195 -0.897476 -0.225275
vn -0.381523 0.891528 0.244167
vn 0.725974 -0.440211 0.528372
vn 0.728439 0.482947 0.485941
vn -0.326101 0.870788 -0.367948
vn 0.826895 -0.226650 -0.514659
vn 0.900626 0.305015 -0.309577
vn -0.923213 0.364933 0.120423
vn -0.669087 0.433809 -0.603433
vn 0.379298 0.897371 0.225516
vn -0.379241 -0.897433 -0.225367
vn -0.016145 0.243270 -0.969824
vn 0.257679 0.811227 -0.524893
vn 0.010052 -0.242978 0.969980
vn 0.022218 -0.247545 0.968622
vn 0.022215 -0.247549 0.968621
vn 0.010081 -0.242897 0.970000
vn 0.017395 -0.244351 0.969531
vn 0.015929 -0.243337 0.969811
vn -0.375225 -0.899001 -0.225839
vn -0.383246 -0.895823 -0.224998
vn -0.375226 -0.899002 -0.225834
vn -0.383240 -0.895821 -0.225016
vn -0.379268 -0.897420 -0.225373
vn -0.381572 0.891509 0.244162
vn 0.909093 -0.408222 0.083090
vn 0.889595 0.398460 0.223272
vn -0.326158 0.870730 -0.368036
vn 0.702832 -0.128343 -0.699682
vn 0.795514 0.404981 -0.450719
vn -0.923202 0.364960 0.120422
vn -0.669193 0.433574 -0.603485
vn 0.379291 0.897377 0.225506
vn -0.379251 -0.897440 -0.225321
vn -0.016007 0.243647 -0.969732
vn 0.257719 0.811324 -0.524723
vn 0.010153 -0.242694 0.970050
vn 0.022228 -0.247538 0.968623
vn 0.022239 -0.247517 0.968628
vn 0.010174 -0.242637 0.970064
vn 0.017179 -0.244836 0.969412
vn 0.015709 -0.243851 0.969685
vn -0.375192 -0.898994 -0.225921
vn -0.383277 -0.895818 -0.224966
vn -0.375196 -0.898998 -0.225898
vn -0.383270 -0.895815 -0.224990
vn -0.379281 -0.897428 -0.225319
vn -0.381976 0.891374 0.244024
vn 0.914576 -0.334738 -0.226940
vn 0.940582 0.338832 -0.022330
vn -0.325761 0.870935 -0.367901
vn 0.624093 -0.075456 -0.777698
vn 0.729723 0.468086 -0.498398
vn -0.923332 0.364726 0.120134
vn -0.669029 0.434397 -0.603075
vn 0.379378 0.897342 0.225499
vn -0.379333 -0.897391 -0.225379
vn 0.013022 0.225804 -0.974086
vn 0.281215 0.792852 -0.540651
vn 0.010225 -0.242587 0.970076
vn -0.044943 -0.219747 0.974521
vn -0.045245 -0.220332 0.974375
vn 0.010249 -0.242523 0.970092
vn -0.017196 -0.222015 0.974891
vn -0.010457 -0.226071 0.974055
vn -0.375184 -0.898954 -0.226097
vn -0.383277 -0.895826 -0.224930
vn -0.375191 -0.898960 -0.226059
vn -0.383277 -0.895826 -0.224931
vn -0.379180 -0.897456 -0.225378
vn 0.464602 0.859471 0.213201
vn 0.300027 -0.920671 -0.249697
vn 0.885536 -0.443000 -0.139914
vn 0.363002 0.848016 -0.386132
vn 0.195603 -0.473950 -0.858552
vn 0.710227 -0.216262 -0.669931
vn -0.299992 0.920703 0.249621
vn -0.228635 0.828843 -0.510632
vn 0.953639 0.296297 0.052730
vn -0.953629 -0.296374 -0.052475
vn -0.022292 0.247467 -0.968640
vn 0.658243 0.384306 -0.647321
vn 0.022384 -0.247413 0.968652
vn 0.022437 -0.247482 0.968633
vn 0.022480 -0.247477 0.968633
vn 0.022365 -0.247422 0.968650
vn 0.022162 -0.247514 0.968631
vn 0.022131 -0.247521 0.968630
vn -0.953626 -0.296376 -0.052523
vn -0.953632 -0.296365 -0.052486
vn -0.953626 -0.296377 -0.052519
vn -0.953632 -0.296364 -0.052488
vn -0.953629 -0.296374 -0.052474
vn 0.464647 0.859452 0.213179
vn 0.300107 -0.920644 -0.249702
vn 0.885511 -0.443060 -0.139887
vn 0.363039 0.848022 -0.386085
vn 0.195542 -0.474049 -0.858511
vn 0.710176 -0.216324 -0.669965
vn -0.299935 0.920710 0.249663
vn -0.228502 0.828882 -0.510628
vn 0.953628 0.296378 0.052472
vn -0.953632 -0.296360 -0.052496
vn -0.022379 0.247432 -0.968647
vn 0.658119 0.384307 -0.647447
vn 0.022180 -0.247524 0.968628
vn 0.022564 -0.247395 0.968652
vn 0.022594 -0.247391 0.968652
vn 0.022193 -0.247518 0.968629
vn 0.022360 -0.247434 0.968647
vn 0.022352 -0.247434 0.968647
vn -0.953628 -0.296395 -0.052374
vn -0.953638 -0.296343 -0.052492
vn -0.953628 -0.296394 -0.052384
vn -0.953638 -0.296343 -0.052491
vn -0.953633 -0.296359 -0.052500
vn 0.464468 0.859523 0.213282
vn 0.299899 -0.920760 -0.249523
vn 0.885490 -0.443191 -0.139608
vn 0.363109 0.848007 -0.386051
vn 0.195640 -0.473985 -0.858524
vn 0.710331 -0.216328 -0.669800
vn -0.300008 0.920675 0.249705
vn -0.228519 0.828957 -0.510499
vn 0.953616 0.296461 0.052225
vn -0.953633 -0.296429 -0.052096
vn -0.022117 0.247527 -0.968629
vn 0.658102 0.384333 -0.647448
vn 0.022453 -0.247436 0.968644
vn 0.022173 -0.247471 0.968642
vn 0.022169 -0.247472 0.968642
vn 0.022435 -0.247444 0.968642
vn 0.022220 -0.247497 0.968634
vn 0.022214 -0.247505 0.968632
vn -0.953618 -0.296359 -0.052762
vn -0.953623 -0.296363 -0.052658
vn -0.953619 -0.296366 -0.052712
vn -0.953620 -0.296356 -0.052735
vn -0.953632 -0.296429 -0.052109
vn -0.381679 0.891495 0.244046
vn 0.838900 -0.238271 -0.489360
vn 0.906910 0.323836 -0.269526
vn -0.326043 0.870859 -0.367831
vn 0.510439 -0.006911 -0.859886
vn 0.638597 0.539032 -0.549216
vn -0.923147 0.365091 0.120448
vn -0.668880 0.434180 -0.603397
vn 0.379349 0.897370 0.225436
vn -0.379293 -0.897398 -0.225418
vn 0.005269 0.231059 -0.972925
vn 0.274769 0.798017 -0.536350
vn 0.010405 -0.242047 0.970209
vn -0.020761 -0.229301 0.973134
vn -0.020957 -0.229679 0.973041
vn 0.010425 -0.241994 0.970222
vn -0.004826 -0.229978 0.973184
vn -0.001027 -0.232204 0.972667
vn -0.375199 -0.898974 -0.225990
vn -0.383268 -0.895817 -0.224982
vn -0.375203 -0.898977 -0.225972
vn -0.383266 -0.895817 -0.224987
vn -0.379197 -0.897438 -0.225422
g fff035d2_00020_001369a5_e1
f 7/23/7 1/24/1 4/25/4
f 4/25/4 8/26/8 7/23/7
f 30/39/30 24/40/24 27/41/27
f 27/41/27 31/42/31 30/39/30
f 53/77/53 47/78/47 50/79/50
f 50/79/50 54/80/54 53/77/53
f 76/115/76 70/116/70 73/117/73
f 73/117/73 77/118/77 76/115/76
f 99/153/99 93/154/93 96/155/96
f 96/155/96 100/156/100 99/153/99
f 122/191/122 116/192/116 119/193/119
f 119/193/119 123/194/123 122/191/122
f 145/229/145 139/230/139 142/231/142
f 142/231/142 146/232/146 145/229/145
f 168/233/168 162/234/162 165/235/165
f 165/235/165 169/236/169 168/233/168
f 191/305/191 185/306/185 188/307/188
f 188/307/188 192/308/192 191/305/191
f 211/345/211 215/346/215 214/343/214
f 214/343/214 208/344/208 211/345/211
f 257/421/257 261/422/261 260/419/260
f 260/419/260 254/420/254 257/421/257
f 234/383/234 238/384/238 237/381/237
f 237/381/237 231/382/231 234/383/234
f 283/457/283 277/458/277 280/459/280
f 280/459/280 284/460/284 283/457/283
g fff035d2_00020_001369a5_e0
f 281/466/281 282/467/282 279/468/279
f 51/86/51 52/87/52 49/88/49
f 49/88/49 48/96/48 51/86/51
f 74/124/74 75/125/75 72/126/72
f 72/126/72 71/134/71 74/124/74
f 97/162/97 98/163/98 95/164/95
f 95/164/95 94/172/94 97/162/97
f 120/200/120 121/201/121 118/202/118
f 118/202/118 117/210/117 120/200/120
f 143/242/143 144/243/144 141/244/141
f 141/244/141 140/252/140 143/242/143
f 279/468/279 278/476/278 281/466/281
f 166/258/166 167/259/167 164/260/164
f 164/260/164 163/268/163 166/258/166
f 189/314/189 190/315/190 187/316/187
f 187/316/187 186/324/186 189/314/189
f 18/27/18 14/28/14 17/29/17
f 16/30/16 18/27/18 17/29/17
f 15/31/15 17/29/17 14/28/14
f 16/30/16 17/29/17 13/32/13
f 41/43/41 37/44/37 40/45/40
f 39/46/39 41/43/41 40/45/40
f 38/47/38 40/45/40 37/44/37
f 39/46/39 40/45/40 36/54/36
f 219/372/219 211/373/211 208/374/208
f 219/369/219 216/370/216 213/371/213
f 216/366/216 210/367/210 213/368/213
f 216/363/216 219/364/219 208/365/208
f 265/448/265 257/449/257 254/450/254
f 265/445/265 262/446/262 259/447/259
f 262/442/262 256/443/256 259/444/259
f 262/439/262 265/440/265 254/441/254
f 242/410/242 234/411/234 231/412/231
f 242/407/242 239/408/239 236/409/236
f 239/404/239 233/405/233 236/406/236
f 239/401/239 242/402/242 231/403/231
g fff035d2_00020_001369a5_e3
f 9/13/9 12/14/12 1/15/1
f 9/16/9 3/2/3 6/17/6
f 12/18/12 9/9/9 6/3/6
f 12/12/12 4/4/4 1/1/1
f 11/33/11 12/34/12 6/35/6
f 6/35/6 5/36/5 11/33/11
f 8/37/8 4/38/4 12/34/12
f 11/33/11 8/37/8 12/34/12
f 32/59/32 35/60/35 24/61/24
f 32/62/32 26/63/26 29/64/29
f 35/65/35 32/66/32 29/67/29
f 35/68/35 27/69/27 24/70/24
f 34/71/34 35/72/35 29/73/29
f 29/73/29 28/74/28 34/71/34
f 31/75/31 27/76/27 35/72/35
f 34/71/34 31/75/31 35/72/35
f 55/97/55 58/98/58 47/99/47
f 55/100/55 49/101/49 52/102/52
f 58/103/58 55/104/55 52/105/52
f 58/106/58 50/107/50 47/108/47
f 57/109/57 58/110/58 52/111/52
f 52/111/52 51/112/51 57/109/57
f 54/113/54 50/114/50 58/110/58
f 57/109/57 54/113/54 58/110/58
f 78/135/78 81/136/81 70/137/70
f 78/138/78 72/139/72 75/140/75
f 81/141/81 78/142/78 75/143/75
f 81/144/81 73/145/73 70/146/70
f 80/147/80 81/148/81 75/149/75
f 75/149/75 74/150/74 80/147/80
f 77/151/77 73/152/73 81/148/81
f 80/147/80 77/151/77 81/148/81
f 101/173/101 104/174/104 93/175/93
f 101/176/101 95/177/95 98/178/98
f 104/179/104 101/180/101 98/181/98
f 104/182/104 96/183/96 93/184/93
f 103/185/103 104/186/104 98/187/98
f 98/187/98 97/188/97 103/185/103
f 100/189/100 96/190/96 104/186/104
f 103/185/103 100/189/100 104/186/104
f 124/211/124 127/212/127 116/213/116
f 124/214/124 118/215/118 121/216/121
f 127/217/127 124/218/124 121/219/121
f 127/220/127 119/221/119 116/222/116
f 126/223/126 127/224/127 121/225/121
f 121/225/121 120/226/120 126/223/126
f 123/227/123 119/228/119 127/224/127
f 126/223/126 123/227/123 127/224/127
f 147/269/147 150/270/150 139/271/139
f 147/272/147 141/273/141 144/274/144
f 150/275/150 147/276/147 144/277/144
f 150/278/150 142/279/142 139/280/139
f 149/281/149 150/282/150 144/283/144
f 144/283/144 143/284/143 149/281/149
f 146/285/146 142/286/142 150/282/150
f 149/281/149 146/285/146 150/282/150
f 170/287/170 173/288/173 162/289/162
f 170/290/170 164/291/164 167/292/167
f 173/293/173 170/294/170 167/295/167
f 173/296/173 165/297/165 162/298/162
f 172/299/172 173/300/173 167/301/167
f 167/301/167 166/302/166 172/299/172
f 169/303/169 165/304/165 173/300/173
f 172/299/172 169/303/169 173/300/173
f 193/325/193 196/326/196 185/327/185
f 193/328/193 187/329/187 190/330/190
f 196/331/196 193/332/193 190/333/190
f 196/334/196 188/335/188 185/336/185
f 195/337/195 196/338/196 190/339/190
f 190/339/190 189/340/189 195/337/195
f 192/341/192 188/342/188 196/338/196
f 195/337/195 192/341/192 196/338/196
f 218/375/218 215/379/215 219/376/219
f 215/379/215 211/380/211 219/376/219
f 213/377/213 212/378/212 218/375/218
f 218/375/218 219/376/219 213/377/213
f 292/464/292 293/463/293 289/472/289
f 291/465/291 293/463/293 290/462/290
f 292/464/292 294/461/294 293/463/293
f 294/461/294 290/462/290 293/463/293
f 264/451/264 261/455/261 265/452/265
f 261/455/261 257/456/257 265/452/265
f 259/453/259 258/454/258 264/451/264
f 264/451/264 265/452/265 259/453/259
f 200/312/200 201/311/201 197/320/197
f 199/313/199 201/311/201 198/310/198
f 200/312/200 202/309/202 201/311/201
f 202/309/202 198/310/198 201/311/201
f 241/413/241 238/417/238 242/414/242
f 238/417/238 234/418/234 242/414/242
f 236/415/236 235/416/235 241/413/241
f 241/413/241 242/414/242 236/415/236
f 154/240/154 155/239/155 151/248/151
f 153/241/153 155/239/155 152/238/152
f 154/240/154 156/237/156 155/239/155
f 156/237/156 152/238/152 155/239/155
f 285/477/285 288/478/288 277/479/277
f 285/480/285 279/481/279 282/482/282
f 288/483/288 285/484/285 282/485/282
f 288/486/288 280/487/280 277/488/277
f 287/489/287 288/490/288 282/491/282
f 282/491/282 281/492/281 287/489/287
f 284/493/284 280/494/280 288/490/288
f 287/489/287 284/493/284 288/490/288
f 179/253/179 175/254/175 178/255/178
f 177/256/177 179/253/179 178/255/178
f 176/257/176 178/255/178 175/254/175
f 177/256/177 178/255/178 174/264/174
f 64/81/64 60/82/60 63/83/63
f 62/84/62 64/81/64 63/83/63
f 61/85/61 63/83/63 60/82/60
f 62/84/62 63/83/63 59/92/59
f 87/119/87 83/120/83 86/121/86
f 85/122/85 87/119/87 86/121/86
f 84/123/84 86/121/86 83/120/83
f 85/122/85 86/121/86 82/130/82
f 110/157/110 106/158/106 109/159/109
f 108/160/108 110/157/110 109/159/109
f 107/161/107 109/159/109 106/158/106
f 108/160/108 109/159/109 105/168/105
f 133/195/133 129/196/129 132/197/132
f 131/198/131 133/195/133 132/197/132
f 130/199/130 132/197/132 129/196/129
f 131/198/131 132/197/132 128/206/128
f 225/347/225 221/348/221 224/349/224
f 222/351/222 224/349/224 221/348/221
f 248/385/248 244/386/244 247/387/247
f 246/388/246 248/385/248 247/387/247
f 245/389/245 247/387/247 244/386/244
f 223/350/223 224/349/224 220/358/220
f 246/388/246 247/387/247 243/396/243
f 271/423/271 267/424/267 270/425/270
f 269/426/269 271/423/271 270/425/270
f 268/427/268 270/425/270 267/424/267
f 269/426/269 270/425/270 266/434/266
f 223/350/223 225/347/225 224/349/224
g fff035d2_00020_001369a5_e2
f 256/430/256 255/438/255 258/428/258
f 263/435/263 276/431/276 273/433/273
f 207/317/207 206/318/206 204/319/204
f 5/21/5 6/22/6 3/19/3
f 23/11/23 22/8/22 20/5/20
f 171/265/171 184/261/184 181/263/181
f 23/11/23 10/10/10 21/7/21
f 10/10/10 19/6/19 21/7/21
f 10/10/10 23/11/23 20/5/20
f 3/19/3 2/20/2 5/21/5
f 171/265/171 180/267/180 182/266/182
f 184/261/184 171/265/171 182/266/182
f 299/469/299 286/473/286 297/474/297
f 28/48/28 29/49/29 26/50/26
f 46/51/46 45/52/45 43/53/43
f 184/261/184 183/262/183 181/263/181
f 46/51/46 33/55/33 44/56/44
f 33/55/33 42/57/42 44/56/44
f 33/55/33 46/51/46 43/53/43
f 26/50/26 25/58/25 28/48/28
f 299/469/299 298/470/298 296/471/296
f 286/473/286 295/475/295 297/474/297
f 286/473/286 299/469/299 296/471/296
f 212/352/212 213/353/213 210/354/210
f 69/89/69 68/90/68 66/91/66
f 207/317/207 194/321/194 205/322/205
f 69/89/69 56/93/56 67/94/67
f 56/93/56 65/95/65 67/94/67
f 56/93/56 69/89/69 66/91/66
f 230/355/230 229/356/229 227/357/227
f 148/249/148 161/245/161 158/247/158
f 235/390/235 236/391/236 233/392/233
f 253/393/253 252/394/252 250/395/250
f 148/249/148 157/251/157 159/250/159
f 92/127/92 91/128/91 89/129/89
f 161/245/161 148/249/148 159/250/159
f 92/127/92 79/131/79 90/132/90
f 79/131/79 88/133/88 90/132/90
f 79/131/79 92/127/92 89/129/89
f 230/355/230 217/359/217 228/360/228
f 253/393/253 240/397/240 251/398/251
f 240/397/240 249/399/249 251/398/251
f 240/397/240 253/393/253 250/395/250
f 217/359/217 226/361/226 228/360/228
f 115/165/115 114/166/114 112/167/112
f 233/392/233 232/400/232 235/390/235
f 115/165/115 102/169/102 113/170/113
f 102/169/102 111/171/111 113/170/113
f 102/169/102 115/165/115 112/167/112
f 217/359/217 230/355/230 227/357/227
f 263/435/263 272/437/272 274/436/274
f 161/245/161 160/246/160 158/247/158
f 194/321/194 203/323/203 205/322/205
f 210/354/210 209/362/209 212/352/212
f 138/203/138 137/204/137 135/205/135
f 258/428/258 259/429/259 256/430/256
f 138/203/138 125/207/125 136/208/136
f 125/207/125 134/209/134 136/208/136
f 125/207/125 138/203/138 135/205/135
f 194/321/194 207/317/207 204/319/204
f 276/431/276 275/432/275 273/433/273
f 276/431/276 263/435/263 274/436/274
