# fff005ae_00003_00041be9
o fff005ae_00003_00041be9
v 0.081091 -0.338699 -0.056388
v 0.245173 -0.723933 -0.056388
v 0.768792 -0.245233 -0.056388
v 0.419370 -0.089700 -0.056388
v 0.818239 0.001793 -0.056388
v 0.448233 0.059872 -0.056388
v 0.575763 -0.539396 -0.056388
v 0.294293 -0.245687 -0.056388
v 0.075958 0.446951 -0.056388
v 0.222491 0.752696 -0.056388
v 0.762824 0.326078 -0.056388
v 0.418027 0.202679 -0.056388
v 0.589257 0.532581 -0.056388
v 0.295762 0.368784 -0.056388
v -0.133345 -0.322849 -0.056388
v -0.211376 -0.751195 -0.056388
v -0.130244 0.455152 -0.056388
v -0.205238 0.787941 -0.056388
v 1.004159 -0.107620 -0.051317
v 0.219874 1.017233 -0.051316
v -0.184447 -0.914153 -0.051317
v -0.967009 0.208791 -0.051316
vt 0.215448 0.000000
vt 0.428542 -0.000000
vt 0.215448 1.000000
vt 0.428542 1.000000
vt 0.721587 1.000000
vt 0.721587 0.000000
vt 0.680554 1.000000
vt 0.680554 0.000000
vt 0.465448 1.000000
vt 0.465448 0.000000
vt 0.000000 0.000000
vt -0.006069 1.000000
vt 0.993443 -0.000000
vt 0.993443 1.000000
vt 0.550130 1.000000
vt 0.721587 -0.000000
vt 0.550130 -0.000000
vt 0.721587 1.000000
vt 0.281778 0.000000
vt 0.281778 1.000000
vt 0.676625 1.000000
vt 0.676625 0.000000
vt 1.128506 -0.129535
vt 1.128506 1.125059
vt -0.126087 1.125059
vt -0.126087 -0.129535
vn 0.000000 0.000000 -1.000000
vn 0.000000 0.000000 -1.000000
vn 0.000000 0.000000 -1.000000
vn 0.000000 0.000000 -1.000000
vn 0.000000 0.000000 -1.000000
vn 0.000000 0.000000 -1.000000
vn 0.000000 0.000000 -1.000000
vn 0.000000 0.000000 -1.000000
vn 0.000000 0.000000 -1.000000
vn 0.000000 0.000000 -1.000000
vn 0.000000 0.000000 -1.000000
vn 0.000000 0.000000 -1.000000
vn 0.000000 0.000000 -1.000000
vn 0.000000 0.000000 -1.000000
vn 0.000000 0.000000 -1.000000
vn 0.000000 0.000000 -1.000000
vn 0.000000 0.000000 -1.000000
vn 0.000000 0.000000 -1.000000
vn 0.000000 -0.000000 1.000000
vn 0.000000 -0.000000 1.000000
vn 0.000000 -0.000000 1.000000
vn 0.000000 -0.000000 1.000000
g fff005ae_00003_00041be9_e0
f 8/10/8 7/9/7 2/3/2
f 5/15/5 4/16/4 6/17/6
f 14/8/14 9/2/9 10/4/10
f 3/18/3 4/16/4 5/15/5
f 1/1/1 8/10/8 2/3/2
f 12/19/12 11/20/11 5/15/5
f 7/9/7 8/10/8 3/5/3
f 8/10/8 4/6/4 3/5/3
f 12/19/12 5/15/5 6/17/6
f 13/21/13 12/19/12 14/22/14
f 13/7/13 14/8/14 10/4/10
f 11/20/11 12/19/12 13/21/13
f 1/1/1 2/3/2 16/12/16
f 16/12/16 15/11/15 1/1/1
f 9/2/9 18/14/18 10/4/10
f 18/14/18 9/2/9 17/13/17
g fff005ae_00003_00041be9_e1
f 19/25/19 20/26/20 22/23/22
f 22/23/22 21/24/21 19/25/19
