# fff0ac53_00437_0094ffa9
o fff0ac53_00437_0094ffa9
v -0.053295 -0.332614 0.706203
v 0.117661 -0.332746 0.706203
v -0.053292 0.332761 0.706203
v 0.117660 0.332630 0.706203
v -0.053295 -0.332614 0.731214
v 0.117661 -0.332746 0.731214
v -0.053292 0.332761 0.731214
v 0.117660 0.332630 0.731214
v 0.077295 0.318467 0.019082
v 0.077295 0.318467 0.724038
v 0.077296 0.282075 0.019082
v 0.077296 0.282075 0.724038
v 0.107506 0.300269 0.724038
v 0.107506 0.300269 0.019082
v 0.077295 -0.285629 0.019082
v 0.077295 -0.285629 0.724038
v 0.077296 -0.322036 0.019082
v 0.077296 -0.322036 0.724038
v 0.107506 -0.303827 0.724038
v 0.107506 -0.303827 0.019082
v -0.189403 -0.332685 0.003833
v 0.117569 -0.332761 0.003833
v -0.189404 0.332706 0.003833
v 0.117569 0.332614 0.003833
v -0.189403 -0.332685 0.028843
v 0.117569 -0.332761 0.028843
v -0.189404 0.332706 0.028843
v 0.117569 0.332614 0.028843
v -0.133585 0.030724 0.026860
v 0.114408 0.030639 0.026860
v -0.133588 0.249917 0.026860
v 0.114410 0.249816 0.026860
v -0.133585 0.030724 0.242777
v 0.114408 0.030639 0.242777
v -0.133588 0.249917 0.242777
v 0.114410 0.249816 0.242777
v -0.133573 0.218209 0.212315
v -0.133572 0.220941 0.054793
v -0.133574 0.062325 0.054793
v -0.133574 0.062325 0.212315
v -0.122311 0.061133 0.212314
v -0.122311 0.061133 0.054793
v -0.122322 0.220756 0.054793
v -0.122322 0.220756 0.212314
v -0.133585 0.030724 0.026860
v 0.114408 0.030639 0.026860
v -0.133588 0.249917 0.026860
v 0.114410 0.249816 0.026860
v -0.133585 0.030724 0.242777
v 0.114408 0.030639 0.242777
v -0.133588 0.249917 0.242777
v 0.114410 0.249816 0.242777
v -0.133585 0.030724 0.242777
v 0.114408 0.030639 0.242777
v -0.133588 0.249917 0.242777
v 0.114410 0.249816 0.242777
v -0.045649 0.027839 0.214123
v 0.088739 0.027770 0.214123
v -0.045649 0.027839 0.222707
v 0.088739 0.027770 0.222707
v -0.045649 0.027839 0.199900
v 0.088739 0.027770 0.199900
v -0.045649 0.027839 0.208484
v 0.088739 0.027770 0.208484
v -0.045649 0.027839 0.185976
v 0.088739 0.027770 0.185976
v -0.045649 0.027839 0.194560
v 0.088739 0.027770 0.194560
v -0.045649 0.027839 0.172198
v 0.088739 0.027770 0.172198
v -0.045649 0.027839 0.180782
v 0.088739 0.027770 0.180782
v -0.133573 0.218209 0.212315
v -0.133572 0.220941 0.054793
v -0.133574 0.062325 0.054793
v -0.133574 0.062325 0.212315
v -0.122430 0.218253 0.212315
v -0.122429 0.220984 0.054793
v -0.122431 0.062369 0.054793
v -0.122431 0.062369 0.212315
v -0.046392 0.250662 0.214123
v 0.088000 0.250593 0.214123
v -0.046392 0.250662 0.222707
v 0.088000 0.250593 0.222707
v -0.046392 0.250662 0.199900
v 0.088000 0.250593 0.199900
v -0.046392 0.250662 0.208484
v 0.088000 0.250593 0.208484
v -0.046392 0.250662 0.185976
v 0.088000 0.250593 0.185976
v -0.046392 0.250662 0.194560
v 0.088000 0.250593 0.194560
v -0.046392 0.250662 0.172198
v 0.088000 0.250593 0.172198
v -0.046392 0.250662 0.180782
v 0.088000 0.250593 0.180782
v -0.135228 0.218116 0.233121
v -0.135228 0.218390 0.222256
v -0.135225 0.202765 0.222256
v -0.135225 0.202765 0.233121
v -0.135247 0.195868 0.233121
v -0.135244 0.196128 0.222256
v -0.135244 0.180503 0.222256
v -0.135244 0.180503 0.233121
v -0.037591 -0.248153 0.729173
v 0.095404 -0.248238 0.729173
v -0.037614 0.250093 0.729173
v 0.095382 0.250007 0.729173
v -0.037591 -0.248153 0.819312
v 0.095404 -0.248238 0.819312
v -0.037614 0.250093 0.819312
v 0.095382 0.250007 0.819312
v -0.037591 -0.248153 0.729173
v 0.095404 -0.248238 0.729173
v -0.037614 0.250093 0.729173
v 0.095382 0.250007 0.729173
v -0.037591 -0.248153 0.819312
v 0.095404 -0.248238 0.819312
v -0.037614 0.250093 0.819312
v 0.095382 0.250007 0.819312
v -0.037591 -0.248153 0.819312
v 0.095404 -0.248238 0.819312
v -0.037614 0.250093 0.819312
v 0.095382 0.250007 0.819312
v 0.009565 -0.251042 0.790659
v 0.081640 -0.251108 0.790659
v 0.009565 -0.251042 0.799243
v 0.081640 -0.251108 0.799243
v 0.009565 -0.251042 0.776436
v 0.081640 -0.251108 0.776436
v 0.009565 -0.251042 0.785020
v 0.081640 -0.251108 0.785020
v 0.009565 -0.251042 0.762512
v 0.081640 -0.251108 0.762512
v 0.009565 -0.251042 0.771096
v 0.081640 -0.251108 0.771096
v 0.009565 -0.251042 0.748734
v 0.081640 -0.251108 0.748734
v 0.009565 -0.251042 0.757318
v 0.081640 -0.251108 0.757318
v 0.009146 0.250850 0.790659
v 0.081221 0.250784 0.790659
v 0.009146 0.250850 0.799243
v 0.081221 0.250784 0.799243
v 0.009146 0.250850 0.776436
v 0.081221 0.250784 0.776436
v 0.009146 0.250850 0.785020
v 0.081221 0.250784 0.785020
v 0.009146 0.250850 0.762512
v 0.081221 0.250784 0.762512
v 0.009146 0.250850 0.771096
v 0.081221 0.250784 0.771096
v 0.009146 0.250850 0.748734
v 0.081221 0.250784 0.748734
v 0.009146 0.250850 0.757318
v 0.081221 0.250784 0.757318
v -0.038495 0.218307 0.809657
v -0.038496 0.218567 0.798792
v -0.038496 0.202942 0.798792
v -0.038496 0.202942 0.809657
v -0.038507 0.196045 0.809657
v -0.038507 0.196320 0.798792
v -0.038504 0.180679 0.798792
v -0.038504 0.180679 0.809657
v -0.038499 0.218307 0.784674
v -0.038499 0.218567 0.749959
v -0.038492 -0.221955 0.749959
v -0.038492 -0.221955 0.784674
v -0.039756 0.213850 0.779870
v -0.039757 0.214110 0.754762
v -0.039749 -0.217485 0.754762
v -0.039749 -0.217485 0.779870
v -0.040967 0.202588 0.771922
v -0.040967 0.202603 0.762711
v -0.040964 0.193524 0.762711
v -0.040964 0.193524 0.771922
v -0.041024 0.182858 0.771922
v -0.041024 0.182858 0.762711
v -0.041021 0.173795 0.762711
v -0.041021 0.173795 0.771922
v -0.040959 0.163632 0.771922
v -0.040959 0.163632 0.762711
v -0.040960 0.154569 0.762711
v -0.040960 0.154569 0.771922
v -0.041016 0.143887 0.771922
v -0.041016 0.143903 0.762711
v -0.041016 0.134824 0.762711
v -0.041016 0.134824 0.771922
v -0.040828 -0.138309 0.771922
v -0.040828 -0.138293 0.762711
v -0.040825 -0.147372 0.762711
v -0.040825 -0.147372 0.771922
v -0.040880 -0.158038 0.771922
v -0.040880 -0.158038 0.762711
v -0.040881 -0.167102 0.762711
v -0.040881 -0.167102 0.771922
v -0.040819 -0.177264 0.771922
v -0.040819 -0.177264 0.762711
v -0.040816 -0.186328 0.762711
v -0.040816 -0.186328 0.771922
v -0.040876 -0.197009 0.771922
v -0.040876 -0.196994 0.762711
v -0.040873 -0.206073 0.762711
v -0.040873 -0.206073 0.771922
v -0.038446 -0.206909 0.809657
v -0.038446 -0.206650 0.798792
v -0.038446 -0.222275 0.798792
v -0.038446 -0.222275 0.809657
v -0.021698 -0.252239 0.026860
v -0.021648 -0.006496 0.026860
v -0.021698 -0.252239 0.096529
v -0.021648 -0.006496 0.096529
v -0.021698 -0.252239 0.026860
v 0.114605 -0.252366 0.026860
v -0.021648 -0.006496 0.026860
v 0.114655 -0.006623 0.026860
v -0.021698 -0.252239 0.096529
v 0.114605 -0.252366 0.096529
v -0.021648 -0.006496 0.096529
v 0.114655 -0.006623 0.096529
v -0.021698 -0.252239 0.096529
v 0.114605 -0.252366 0.096529
v -0.021648 -0.006496 0.096529
v 0.114655 -0.006623 0.096529
v -0.023289 -0.038282 0.086873
v -0.023289 -0.038022 0.069143
v -0.023269 -0.067807 0.069143
v -0.023269 -0.067807 0.086873
v -0.023287 -0.074704 0.086873
v -0.023288 -0.074430 0.069143
v -0.023302 -0.104322 0.069143
v -0.023302 -0.104322 0.086873
v -0.023265 -0.118772 0.086873
v -0.023266 -0.118512 0.069143
v -0.023267 -0.235532 0.069143
v -0.023267 -0.235532 0.086873
v 0.092404 0.210697 0.765280
v 0.129082 0.210619 0.752120
v 0.092404 0.210697 0.773864
v 0.135151 0.210626 0.758191
v 0.144085 0.210621 0.724933
v 0.152672 0.210616 0.724933
v 0.139463 0.174529 0.613500
v 0.148050 0.174524 0.613500
v 0.139452 0.174376 0.473521
v 0.148039 0.174386 0.473521
v 0.156709 0.193989 0.319417
v 0.165174 0.193999 0.320828
v 0.177676 0.205611 0.198388
v 0.186145 0.205606 0.199800
v 0.181115 0.210604 0.134841
v 0.189404 0.210599 0.132604
v 0.150544 0.210598 0.089313
v 0.156609 0.210606 0.083234
v 0.105149 0.210590 0.074908
v 0.108124 0.210594 0.066854
v 0.092196 0.202426 0.773864
v 0.134944 0.202355 0.758191
v 0.152465 0.202361 0.724933
v 0.147839 0.166268 0.613500
v 0.147831 0.166116 0.473521
v 0.164966 0.185729 0.320828
v 0.185937 0.197350 0.199800
v 0.189193 0.202344 0.132604
v 0.156402 0.202335 0.083234
v 0.107917 0.202338 0.066854
v 0.092392 0.185520 0.765280
v 0.129070 0.185457 0.752120
v 0.092392 0.185520 0.773864
v 0.135143 0.185449 0.758191
v 0.144074 0.185444 0.724933
v 0.152660 0.185455 0.724933
v 0.139421 0.190764 0.613500
v 0.148008 0.190774 0.613500
v 0.139421 0.190764 0.473521
v 0.148008 0.190774 0.473521
v 0.156723 0.185475 0.286429
v 0.165188 0.185469 0.287841
v 0.177670 0.185454 0.198388
v 0.186134 0.185464 0.199800
v 0.181103 0.185427 0.134841
v 0.189392 0.185437 0.132604
v 0.150536 0.185437 0.089313
v 0.156597 0.185429 0.083234
v 0.105137 0.185428 0.074908
v 0.108112 0.185432 0.066854
v 0.092184 0.177265 0.773864
v 0.134932 0.177194 0.758191
v 0.152453 0.177184 0.724933
v 0.147796 0.182504 0.613500
v 0.147796 0.182504 0.473521
v 0.164980 0.177214 0.287841
v 0.185927 0.177193 0.199800
v 0.189185 0.177167 0.132604
v 0.156390 0.177173 0.083234
v 0.107905 0.177161 0.066854
v -0.122311 0.061133 0.136863
v -0.122307 0.061133 0.124999
v -0.122358 0.138648 0.136863
v -0.122379 0.133887 0.124999
v -0.122370 0.148429 0.097438
v -0.122339 0.148429 0.119771
v -0.122349 0.169868 0.183150
v -0.122358 0.170691 0.159001
v -0.122362 0.186637 0.136863
v -0.122359 0.181342 0.124999
v -0.122322 0.220756 0.136863
v -0.122322 0.220756 0.124999
v -0.118790 0.220974 0.054793
v -0.118792 0.062358 0.054793
v -0.118764 0.220974 0.212314
v -0.118780 0.062358 0.212314
vt 0.000000 0.000000
vt 1.000000 0.000000
vt 0.000000 1.000000
vt 1.000000 1.000000
vt 0.000000 0.000000
vt 1.000000 0.000000
vt 0.000000 1.000000
vt 1.000000 1.000000
vt 0.000000 0.000000
vt 1.000000 0.000000
vt 0.000000 1.000000
vt 1.000000 1.000000
vt 0.000000 0.500000
vt 1.000000 0.500000
vt 0.156040 0.855649
vt 0.143595 0.143595
vt 0.881145 0.123989
vt 0.853359 0.853359
vt 0.156040 0.855649
vt 0.143595 0.143595
vt 0.853359 0.853359
vt 0.881145 0.123989
vt 0.638694 0.650949
vt 0.852474 0.647062
vt 0.852474 0.647062
vt 0.852474 0.647062
vt 0.852474 0.647062
vt 0.852474 0.647062
vt 0.852474 0.647062
vt 1.000000 0.000000
vt 1.000000 1.000000
vt 1.000000 0.000000
vt 1.000000 1.000000
vt 1.000000 0.000000
vt 1.000000 1.000000
vt 1.000000 0.000000
vt 1.000000 1.000000
vt 1.000000 0.000000
vt 1.000000 1.000000
vt 1.000000 0.000000
vt 1.000000 1.000000
vt 1.000000 0.000000
vt 1.000000 1.000000
vt 1.000000 0.000000
vt 1.000000 1.000000
vt 0.000000 1.000000
vt 1.000000 1.000000
vt 1.000000 1.000000
vt 1.000000 1.000000
vt 1.000000 1.000000
vt 1.000000 1.000000
vt 1.000000 1.000000
vt 1.000000 1.000000
vt 1.000000 1.000000
vt 1.000000 1.000000
vt 0.150290 0.526637
vt 0.149542 0.483864
vt 0.296477 0.538599
vt 0.279616 0.495034
vt 0.349881 0.394677
vt 0.340029 0.470025
vt 0.401768 0.692455
vt 0.418388 0.612479
vt 0.513392 0.543640
vt 0.513637 0.465259
vt 0.866396 0.511154
vt 0.868659 0.451732
vt 0.986248 0.451515
vt 0.986230 0.556045
vt 0.433976 0.556068
vt 0.433971 0.451538
vn -0.707381 -0.706833 0.000000
vn 0.706835 -0.707379 0.000000
vn -0.706833 0.707381 0.000000
vn 0.707379 0.706835 0.000000
vn -0.577554 -0.577106 0.577391
vn 0.577148 -0.577593 0.577310
vn -0.577147 0.577594 0.577310
vn 0.577552 0.577108 0.577391
vn -0.491960 0.870618 0.000000
vn -0.491961 0.870618 0.000000
vn -0.491960 -0.870618 0.000000
vn -0.491960 -0.870618 0.000000
vn 1.000000 -0.000039 0.000000
vn 1.000000 -0.000040 0.000000
vn -0.491960 0.870618 0.000000
vn -0.491961 0.870617 0.000000
vn -0.491798 -0.870709 0.000000
vn -0.491799 -0.870709 0.000000
vn 1.000000 0.000146 0.000000
vn 1.000000 0.000145 0.000000
vn -0.707194 -0.707019 0.000000
vn 0.707019 -0.707194 0.000000
vn -0.707002 0.707212 0.000000
vn 0.707212 0.707002 0.000000
vn -0.577415 -0.577272 0.577363
vn 0.577285 -0.577428 0.577337
vn -0.577272 0.577444 0.577334
vn 0.577428 0.577257 0.577366
vn -1.000000 0.000205 0.000203
vn 1.000000 -0.000008 0.000000
vn -1.000000 -0.000277 0.000261
vn 1.000000 -0.000008 0.000000
vn -1.000000 0.000194 -0.000197
vn 1.000000 -0.000008 0.000000
vn -1.000000 -0.000246 -0.000234
vn 1.000000 -0.000008 0.000000
vn -1.000000 -0.000240 -0.000240
vn -1.000000 -0.000277 0.000263
vn -1.000000 0.000188 0.000213
vn -1.000000 0.000189 -0.000193
vn -1.000000 -0.000401 0.000291
vn -1.000000 -0.000603 -0.000437
vn -1.000000 0.000453 -0.000495
vn -1.000000 0.000414 0.000499
vn -0.000345 -1.000000 0.000000
vn -0.000345 -1.000000 0.000000
vn 0.000406 1.000000 0.000000
vn 0.000406 1.000000 0.000000
vn -0.000345 -1.000000 0.000000
vn -0.000345 -1.000000 0.000000
vn 0.000406 1.000000 0.000000
vn 0.000406 1.000000 0.000000
vn 0.000000 0.000000 1.000000
vn 0.000000 0.000000 1.000000
vn 0.000000 0.000000 1.000000
vn 0.000000 0.000000 1.000000
vn -0.000510 -1.000000 0.000000
vn -0.000510 -1.000000 0.000000
vn -0.000510 -1.000000 0.000000
vn -0.000510 -1.000000 0.000000
vn -0.000510 -1.000000 0.000000
vn -0.000510 -1.000000 0.000000
vn -0.000510 -1.000000 0.000000
vn -0.000510 -1.000000 0.000000
vn -0.000510 -1.000000 0.000000
vn -0.000510 -1.000000 0.000000
vn -0.000510 -1.000000 0.000000
vn -0.000510 -1.000000 0.000000
vn -0.000510 -1.000000 0.000000
vn -0.000510 -1.000000 0.000000
vn -0.000510 -1.000000 0.000000
vn -0.000510 -1.000000 0.000000
vn 0.003932 -0.999842 -0.017337
vn 0.002801 -0.712327 0.701843
vn -0.002784 0.707989 0.706218
vn -0.003932 0.999992 0.000000
vn 0.003932 -0.999842 -0.017337
vn 0.002808 -0.714083 0.700055
vn -0.002777 0.706215 0.707992
vn -0.003932 0.999992 0.000000
vn 0.000510 1.000000 0.000000
vn 0.000510 1.000000 0.000000
vn 0.000510 1.000000 0.000000
vn 0.000510 1.000000 0.000000
vn 0.000510 1.000000 0.000000
vn 0.000510 1.000000 0.000000
vn 0.000510 1.000000 0.000000
vn 0.000510 1.000000 0.000000
vn 0.000510 1.000000 0.000000
vn 0.000510 1.000000 0.000000
vn 0.000510 1.000000 0.000000
vn 0.000510 1.000000 0.000000
vn 0.000510 1.000000 0.000000
vn 0.000510 1.000000 0.000000
vn 0.000510 1.000000 0.000000
vn 0.000510 1.000000 0.000000
vn -1.000000 -0.000199 0.000025
vn -1.000000 -0.000206 0.000015
vn -1.000000 -0.000216 0.000000
vn -1.000000 -0.000210 0.000010
vn -1.000000 -0.000201 -0.000327
vn -1.000000 -0.000111 -0.000199
vn -1.000000 0.000027 0.000000
vn -1.000000 -0.000061 -0.000127
vn -1.000000 -0.000045 0.000000
vn 1.000000 0.000045 0.000000
vn -1.000000 -0.000045 0.000000
vn 1.000000 0.000045 0.000000
vn -1.000000 -0.000045 0.000000
vn 1.000000 0.000045 0.000000
vn -1.000000 -0.000045 0.000000
vn 1.000000 0.000045 0.000000
vn -0.000642 -1.000000 0.000000
vn -0.000642 -1.000000 0.000000
vn 0.000642 1.000000 0.000000
vn 0.000642 1.000000 0.000000
vn -0.000642 -1.000000 0.000000
vn -0.000642 -1.000000 0.000000
vn 0.000642 1.000000 0.000000
vn 0.000642 1.000000 0.000000
vn 0.000000 0.000000 1.000000
vn 0.000000 0.000000 1.000000
vn 0.000000 0.000000 1.000000
vn 0.000000 0.000000 1.000000
vn -0.000924 -1.000000 0.000000
vn -0.000924 -1.000000 0.000000
vn -0.000924 -1.000000 0.000000
vn -0.000924 -1.000000 0.000000
vn -0.000924 -1.000000 0.000000
vn -0.000924 -1.000000 0.000000
vn -0.000924 -1.000000 0.000000
vn -0.000924 -1.000000 0.000000
vn -0.000924 -1.000000 0.000000
vn -0.000924 -1.000000 0.000000
vn -0.000924 -1.000000 0.000000
vn -0.000924 -1.000000 0.000000
vn -0.000924 -1.000000 0.000000
vn -0.000924 -1.000000 0.000000
vn -0.000924 -1.000000 0.000000
vn -0.000924 -1.000000 0.000000
vn 0.000924 1.000000 0.000000
vn 0.000924 1.000000 0.000000
vn 0.000924 1.000000 0.000000
vn 0.000924 1.000000 0.000000
vn 0.000924 1.000000 0.000000
vn 0.000924 1.000000 0.000000
vn 0.000924 1.000000 0.000000
vn 0.000924 1.000000 0.000000
vn 0.000924 1.000000 0.000000
vn 0.000924 1.000000 0.000000
vn 0.000924 1.000000 0.000000
vn 0.000924 1.000000 0.000000
vn 0.000924 1.000000 0.000000
vn 0.000924 1.000000 0.000000
vn 0.000924 1.000000 0.000000
vn 0.000924 1.000000 0.000000
vn -1.000000 0.000048 0.000030
vn -1.000000 0.000040 0.000018
vn -1.000000 0.000027 0.000000
vn -1.000000 0.000035 0.000011
vn -1.000000 -0.000200 0.000025
vn -1.000000 -0.000207 0.000015
vn -1.000000 -0.000218 0.000000
vn -1.000000 -0.000211 0.000010
vn -1.000000 -0.000015 0.000009
vn -1.000000 -0.000015 0.000008
vn -1.000000 -0.000016 0.000000
vn -1.000000 -0.000016 0.000000
vn -1.000000 -0.000017 0.000012
vn -1.000000 -0.000017 0.000012
vn -1.000000 -0.000018 0.000000
vn -1.000000 -0.000018 0.000000
vn -1.000000 -0.000351 0.000001
vn -1.000000 -0.000352 0.000001
vn -1.000000 -0.000353 0.000000
vn -1.000000 -0.000352 0.000001
vn -1.000000 -0.000351 0.000000
vn -1.000000 -0.000351 0.000000
vn -1.000000 -0.000351 0.000000
vn -1.000000 -0.000351 0.000000
vn -1.000000 0.000069 0.000000
vn -1.000000 0.000069 0.000000
vn -1.000000 0.000069 0.000000
vn -1.000000 0.000069 0.000000
vn -1.000000 0.000069 0.000002
vn -1.000000 0.000068 0.000001
vn -1.000000 0.000067 0.000000
vn -1.000000 0.000068 0.000001
vn -1.000000 -0.000351 0.000001
vn -1.000000 -0.000352 0.000001
vn -1.000000 -0.000353 0.000000
vn -1.000000 -0.000352 0.000001
vn -1.000000 0.000069 0.000000
vn -1.000000 0.000069 0.000000
vn -1.000000 0.000069 0.000000
vn -1.000000 0.000069 0.000000
vn -1.000000 -0.000351 0.000000
vn -1.000000 -0.000351 0.000000
vn -1.000000 -0.000351 0.000000
vn -1.000000 -0.000351 0.000000
vn -1.000000 -0.000351 0.000001
vn -1.000000 -0.000352 0.000001
vn -1.000000 -0.000353 0.000000
vn -1.000000 -0.000352 0.000001
vn -1.000000 0.000048 0.000030
vn -1.000000 0.000040 0.000018
vn -1.000000 0.000027 0.000000
vn -1.000000 0.000035 0.000011
vn -1.000000 0.000204 0.000000
vn -1.000000 0.000204 0.000000
vn -1.000000 0.000204 0.000000
vn -1.000000 0.000204 0.000000
vn -0.000934 -1.000000 0.000000
vn -0.000934 -1.000000 0.000000
vn 0.000934 1.000000 0.000000
vn 0.000934 1.000000 0.000000
vn -0.000934 -1.000000 0.000000
vn -0.000934 -1.000000 0.000000
vn 0.000934 1.000000 0.000000
vn 0.000934 1.000000 0.000000
vn 0.000000 0.000000 1.000000
vn 0.000000 0.000000 1.000000
vn 0.000000 0.000000 1.000000
vn 0.000000 0.000000 1.000000
vn -1.000000 -0.000676 0.000008
vn -1.000000 -0.000678 0.000005
vn -1.000000 -0.000681 0.000000
vn -1.000000 -0.000679 0.000003
vn -1.000000 0.000481 0.000026
vn -1.000000 0.000476 0.000017
vn -1.000000 0.000466 0.000000
vn -1.000000 0.000471 0.000009
vn -1.000000 0.000016 0.000018
vn -1.000000 0.000015 0.000016
vn -1.000000 0.000013 0.000000
vn -1.000000 0.000013 0.000002
vn -0.001624 -0.999999 0.000230
vn -0.000434 -0.999999 0.001507
vn -0.275391 -0.603372 -0.748400
vn 0.323561 -0.907823 -0.266771
vn -0.000578 -0.990703 0.136043
vn 0.678189 -0.671855 0.297778
vn -0.000542 -0.987992 0.154502
vn 0.731076 -0.676038 0.092197
vn 0.001565 -0.998148 -0.060808
vn 0.701075 -0.713062 -0.006060
vn 0.019151 -0.993967 -0.107991
vn 0.693506 -0.720177 0.019867
vn 0.011957 -0.996462 -0.083196
vn 0.712588 -0.701392 0.016369
vn -0.011269 -0.999153 -0.039573
vn 0.712363 -0.663260 -0.229402
vn 0.000618 -1.000000 -0.000546
vn 0.466096 -0.648928 -0.601371
vn 0.000291 -1.000000 -0.000335
vn 0.225300 -0.710661 -0.666484
vn -0.344201 0.008639 -0.938856
vn 0.733712 -0.018415 -0.679211
vn 0.979234 -0.024621 0.201233
vn 0.999564 -0.025585 -0.014753
vn 0.998338 -0.025065 0.051894
vn 0.990363 -0.024856 0.136246
vn 0.993507 -0.024982 0.110997
vn 0.965139 -0.024697 -0.260569
vn 0.605916 -0.015227 -0.795383
vn 0.320063 -0.008047 -0.947362
vn -0.001657 -0.999999 0.000028
vn -0.001095 -0.999999 -0.000027
vn -0.275393 -0.603353 -0.748414
vn 0.323015 -0.907724 -0.267766
vn 0.001194 -0.999794 -0.020247
vn 0.736643 -0.660835 0.143713
vn 0.001194 -0.999722 -0.023554
vn 0.688287 -0.724748 -0.031651
vn 0.001097 -0.999903 0.013889
vn 0.684063 -0.728212 0.042008
vn -0.002861 -0.999900 0.013847
vn 0.674615 -0.728180 0.121030
vn 0.001122 -0.999999 0.000476
vn 0.710403 -0.696523 0.100915
vn 0.001112 -0.999999 0.000017
vn 0.728556 -0.655279 -0.199538
vn -0.000596 -1.000000 0.000633
vn 0.465753 -0.649368 -0.601162
vn 0.000290 -1.000000 -0.000333
vn 0.225234 -0.710797 -0.666361
vn -0.344201 0.008655 -0.938856
vn 0.733543 -0.018810 -0.679383
vn 0.974285 -0.024485 0.223985
vn 0.999437 -0.025534 -0.021779
vn 0.998576 -0.025523 0.046852
vn 0.986321 -0.024808 0.162960
vn 0.989742 -0.024842 0.140692
vn 0.963407 -0.024178 -0.266952
vn 0.605908 -0.015234 -0.795389
vn 0.320061 -0.008034 -0.947363
vn -1.000000 -0.000603 0.000000
vn -1.000000 -0.000984 0.000054
vn -1.000000 0.000304 -0.000129
vn -1.000000 -0.000618 -0.000325
vn -1.000000 -0.000003 -0.000683
vn -0.999999 0.001032 -0.000512
vn -1.000000 0.000060 0.000614
vn -1.000000 0.000223 0.000107
vn -1.000000 0.000816 0.000153
vn -1.000000 0.000485 -0.000027
vn -0.999999 0.001155 0.000000
vn -1.000000 0.000936 0.000000
vn -1.000000 0.000009 0.000170
vn -1.000000 0.000058 0.000121
vn -1.000000 0.000057 0.000121
vn -1.000000 0.000105 0.000073
g fff0ac53_00437_0094ffa9_e16
f 5/9/5 6/10/6 8/12/8
f 8/12/8 7/11/7 5/9/5
f 25/9/25 26/10/26 28/12/28
f 28/12/28 27/11/27 25/9/25
g fff0ac53_00437_0094ffa9_e26
f 13/13/13 11/8/11 14/14/14
f 11/8/11 13/13/13 12/7/12
f 17/8/17 19/13/19 18/7/18
f 19/13/19 17/8/17 20/14/20
g fff0ac53_00437_0094ffa9_e27
f 14/14/14 10/5/10 13/13/13
f 10/5/10 14/14/14 9/6/9
f 20/14/20 16/5/16 19/13/19
f 16/5/16 20/14/20 15/6/15
g fff0ac53_00437_0094ffa9_e33
f 310/68/310 312/69/312 311/70/311
f 310/68/310 311/70/311 309/71/309
g fff0ac53_00437_0094ffa9_e17
f 3/1/3 1/2/1 5/4/5
f 5/4/5 7/3/7 3/1/3
f 2/1/2 4/2/4 8/4/8
f 8/4/8 6/3/6 2/1/2
f 23/1/23 21/2/21 25/4/25
f 25/4/25 27/3/27 23/1/23
f 22/1/22 24/2/24 28/4/28
f 28/4/28 26/3/26 22/1/22
g fff0ac53_00437_0094ffa9_e18
f 1/5/1 2/6/2 6/8/6
f 6/8/6 5/7/5 1/5/1
f 7/8/7 8/7/8 4/5/4
f 4/5/4 3/6/3 7/8/7
f 21/5/21 22/6/22 26/8/26
f 26/8/26 25/7/25 21/5/21
f 27/8/27 28/7/28 24/5/24
f 24/5/24 23/6/23 27/8/27
g fff0ac53_00437_0094ffa9_e24
f 237/5/237 238/6/238 240/8/240
f 240/8/240 239/7/239 237/5/237
f 238/6/238 242/31/242 240/8/240
f 242/31/242 238/6/238 241/30/241
f 241/30/241 244/33/244 242/31/242
f 244/33/244 241/30/241 243/32/243
f 243/32/243 246/35/246 244/33/244
f 246/35/246 243/32/243 245/34/245
f 245/34/245 248/37/248 246/35/246
f 248/37/248 245/34/245 247/36/247
f 247/36/247 250/39/250 248/37/248
f 250/39/250 247/36/247 249/38/249
f 249/38/249 252/41/252 250/39/250
f 252/41/252 249/38/249 251/40/251
f 251/40/251 254/43/254 252/41/252
f 254/43/254 251/40/251 253/42/253
f 253/42/253 256/45/256 254/43/254
f 256/45/256 253/42/253 255/44/255
f 239/7/239 240/8/240 258/47/258
f 258/47/258 257/46/257 239/7/239
f 240/8/240 259/48/259 242/31/242
f 259/48/259 240/8/240 258/47/258
f 242/31/242 260/49/260 244/33/244
f 260/49/260 242/31/242 259/48/259
f 244/33/244 261/50/261 246/35/246
f 261/50/261 244/33/244 260/49/260
f 246/35/246 262/51/262 248/37/248
f 262/51/262 246/35/246 261/50/261
f 248/37/248 263/52/263 250/39/250
f 263/52/263 248/37/248 262/51/262
f 250/39/250 264/53/264 252/41/252
f 264/53/264 250/39/250 263/52/263
f 252/41/252 265/54/265 254/43/254
f 265/54/265 252/41/252 264/53/264
f 254/43/254 266/55/266 256/45/256
f 266/55/266 254/43/254 265/54/265
f 267/5/267 268/6/268 270/8/270
f 270/8/270 269/7/269 267/5/267
f 268/6/268 272/31/272 270/8/270
f 272/31/272 268/6/268 271/30/271
f 271/30/271 274/33/274 272/31/272
f 274/33/274 271/30/271 273/32/273
f 273/32/273 276/35/276 274/33/274
f 276/35/276 273/32/273 275/34/275
f 275/34/275 278/37/278 276/35/276
f 278/37/278 275/34/275 277/36/277
f 277/36/277 280/39/280 278/37/278
f 280/39/280 277/36/277 279/38/279
f 279/38/279 282/41/282 280/39/280
f 282/41/282 279/38/279 281/40/281
f 281/40/281 284/43/284 282/41/282
f 284/43/284 281/40/281 283/42/283
f 283/42/283 286/45/286 284/43/284
f 286/45/286 283/42/283 285/44/285
f 269/7/269 270/8/270 288/47/288
f 288/47/288 287/46/287 269/7/269
f 270/8/270 289/48/289 272/31/272
f 289/48/289 270/8/270 288/47/288
f 272/31/272 290/49/290 274/33/274
f 290/49/290 272/31/272 289/48/289
f 274/33/274 291/50/291 276/35/276
f 291/50/291 274/33/274 290/49/290
f 276/35/276 292/51/292 278/37/278
f 292/51/292 276/35/276 291/50/291
f 278/37/278 293/52/293 280/39/280
f 293/52/293 278/37/278 292/51/292
f 280/39/280 294/53/294 282/41/282
f 294/53/294 280/39/280 293/52/293
f 282/41/282 295/54/295 284/43/284
f 295/54/295 282/41/282 294/53/294
f 284/43/284 296/55/296 286/45/286
f 296/55/296 284/43/284 295/54/295
g fff0ac53_00437_0094ffa9_e14
f 234/27/234 235/28/235 236/29/236
f 236/24/236 233/25/233 234/26/234
f 202/23/202 203/23/203 204/23/204
f 204/23/204 201/23/201 202/23/202
f 198/23/198 199/23/199 200/23/200
f 200/23/200 197/23/197 198/23/198
f 194/23/194 195/23/195 196/23/196
f 196/23/196 193/23/193 194/23/194
f 190/23/190 191/23/191 192/23/192
f 192/23/192 189/23/189 190/23/190
f 57/5/57 58/6/58 60/8/60
f 60/8/60 59/7/59 57/5/57
f 61/5/61 62/6/62 64/8/64
f 64/8/64 63/7/63 61/5/61
f 65/5/65 66/6/66 68/8/68
f 68/8/68 67/7/67 65/5/65
f 69/5/69 70/6/70 72/8/72
f 72/8/72 71/7/71 69/5/69
f 81/5/81 84/8/84 82/6/82
f 84/8/84 81/5/81 83/7/83
f 85/5/85 88/8/88 86/6/86
f 88/8/88 85/5/85 87/7/87
f 89/5/89 92/8/92 90/6/90
f 92/8/92 89/5/89 91/7/91
f 93/5/93 96/8/96 94/6/94
f 96/8/96 93/5/93 95/7/95
f 125/5/125 126/6/126 128/8/128
f 128/8/128 127/7/127 125/5/125
f 129/5/129 130/6/130 132/8/132
f 132/8/132 131/7/131 129/5/129
f 133/5/133 134/6/134 136/8/136
f 136/8/136 135/7/135 133/5/133
f 137/5/137 138/6/138 140/8/140
f 140/8/140 139/7/139 137/5/137
f 141/5/141 144/8/144 142/6/142
f 144/8/144 141/5/141 143/7/143
f 145/5/145 148/8/148 146/6/146
f 148/8/148 145/5/145 147/7/147
f 149/5/149 152/8/152 150/6/150
f 152/8/152 149/5/149 151/7/151
f 153/5/153 156/8/156 154/6/154
f 156/8/156 153/5/153 155/7/155
f 168/23/168 165/23/165 166/23/166
f 166/23/166 167/23/167 168/23/168
f 172/23/172 169/23/169 170/23/170
f 170/23/170 171/23/171 172/23/172
f 176/23/176 173/23/173 174/23/174
f 174/23/174 175/23/175 176/23/176
f 180/23/180 177/23/177 178/23/178
f 178/23/178 179/23/179 180/23/180
f 184/23/184 181/23/181 182/23/182
f 182/23/182 183/23/183 184/23/184
f 188/23/188 185/23/185 186/23/186
f 186/23/186 187/23/187 188/23/188
g fff0ac53_00437_0094ffa9_e29
f 219/8/219 220/7/220 216/5/216
f 216/5/216 215/6/215 219/8/219
f 17/1/17 18/1/18 16/1/16
f 16/1/16 15/1/15 17/1/17
f 10/1/10 9/1/9 11/1/11
f 11/1/11 12/1/12 10/1/10
f 31/1/31 29/2/29 38/16/38
f 33/4/33 35/3/35 37/15/37
f 37/15/37 35/3/35 31/1/31
f 38/16/38 37/15/37 31/1/31
f 38/16/38 29/2/29 39/17/39
f 33/4/33 37/15/37 40/18/40
f 39/17/39 29/2/29 33/4/33
f 40/18/40 39/17/39 33/4/33
f 75/17/75 76/18/76 80/21/80
f 80/21/80 79/22/79 75/17/75
f 78/20/78 77/19/77 73/15/73
f 73/15/73 74/16/74 78/20/78
f 74/16/74 75/17/75 79/22/79
f 79/22/79 78/20/78 74/16/74
f 51/8/51 52/7/52 48/5/48
f 48/5/48 47/6/47 51/8/51
f 45/5/45 46/6/46 50/8/50
f 50/8/50 49/7/49 45/5/45
f 53/9/53 54/10/54 56/12/56
f 56/12/56 55/11/55 53/9/53
f 119/8/119 120/7/120 116/5/116
f 109/4/109 111/3/111 105/15/105
f 105/15/105 111/3/111 107/1/107
f 116/5/116 115/6/115 119/8/119
f 113/5/113 114/6/114 118/8/118
f 118/8/118 117/7/117 113/5/113
f 121/9/121 122/10/122 124/12/124
f 124/12/124 123/11/123 121/9/121
f 224/12/224 223/11/223 221/9/221
f 211/4/211 212/3/212 209/15/209
f 209/15/209 212/3/212 210/1/210
f 221/9/221 222/10/222 224/12/224
f 218/8/218 217/7/217 213/5/213
f 213/5/213 214/6/214 218/8/218
g fff0ac53_00437_0094ffa9_e30
f 112/4/112 110/3/110 106/1/106
f 106/1/106 108/2/108 112/4/112
f 30/1/30 32/2/32 36/4/36
f 36/4/36 34/3/34 30/1/30
g fff0ac53_00437_0094ffa9_e32
f 299/58/299 297/56/297 41/19/41
f 43/22/43 301/60/301 306/65/306
f 44/21/44 303/62/303 41/19/41
f 302/61/302 299/58/299 303/62/303
f 300/59/300 42/20/42 298/57/298
f 305/64/305 303/62/303 44/21/44
f 303/62/303 299/58/299 41/19/41
f 307/66/307 305/64/305 44/21/44
f 301/60/301 42/20/42 300/59/300
f 43/22/43 42/20/42 301/60/301
f 301/60/301 304/63/304 306/65/306
f 43/22/43 306/65/306 308/67/308
g fff0ac53_00437_0094ffa9_e15
f 100/23/100 97/23/97 98/23/98
f 98/23/98 99/23/99 100/23/100
f 104/24/104 101/25/101 102/26/102
f 102/27/102 103/28/103 104/29/104
f 160/23/160 157/23/157 158/23/158
f 158/23/158 159/23/159 160/23/160
f 164/24/164 161/25/161 162/26/162
f 162/27/162 163/28/163 164/29/164
f 208/23/208 205/23/205 206/23/206
f 206/23/206 207/23/207 208/23/208
f 228/23/228 225/23/225 226/23/226
f 226/23/226 227/23/227 228/23/228
f 232/24/232 229/25/229 230/26/230
f 230/27/230 231/28/231 232/29/232
