# fff03339_00040_003e9dda
o fff03339_00040_003e9dda
v 0.751495 -0.150000 -0.443542
v 1.146994 -0.150000 0.272345
v 0.906511 -0.150000 -0.162949
v -0.679599 -0.150000 0.381336
v -1.146994 -0.150000 -0.443542
v 0.557076 -0.150000 0.443542
v 0.751495 0.150000 -0.443542
v 1.146994 0.150000 0.272345
v 0.906511 0.150000 -0.162949
v -0.679599 0.150000 0.381336
v -1.146994 0.150000 -0.443542
v 0.557076 0.150000 0.443542
v -0.722413 0.150000 0.305803
v 1.032643 0.150000 0.305535
vt 2.000000 2.354242
vt 2.000000 3.000246
vt 1.000000 3.000246
vt 1.000000 2.354242
vt 2.000000 0.999997
vt 1.000000 0.999997
vt 2.000000 1.391963
vt 2.000000 1.000011
vt 1.000000 1.000011
vt 1.000000 1.391963
vt 2.000000 2.000011
vt 1.000000 2.000011
vt 2.000000 3.497177
vt 2.000000 1.000002
vt 1.000000 1.000002
vt 1.000000 3.497177
vt 2.000000 0.999997
vt 2.000000 2.509859
vt 1.000000 2.509859
vt 1.000000 0.999997
vt 0.918756 0.038525
vt -0.558094 0.698941
vt -0.860941 0.247419
vt -1.069360 0.571484
vt 0.513685 0.652627
vt -0.726594 0.038525
vt -0.558094 0.663272
vt 0.513685 0.616001
vt -0.726594 -0.010807
vt 0.918756 -0.010807
vt -1.069360 0.533179
vt -0.860941 0.202409
vt 0.550793 0.596397
vt 1.000000 2.371591
vt -0.970254 0.596191
vt 1.000000 2.875022
vn 0.403190 -0.608637 -0.683374
vn 0.761580 -0.566556 0.314659
vn 0.618934 -0.707107 -0.341936
vn -0.414786 -0.613086 0.672368
vn -0.718726 -0.554979 -0.418845
vn 0.085813 -0.671668 0.735866
vn 0.403190 0.608637 -0.683374
vn 0.761586 0.566555 0.314647
vn 0.618934 0.707107 -0.341936
vn -0.414741 0.613090 0.672392
vn -0.718726 0.554978 -0.418846
vn 0.085812 0.671668 0.735866
vn -0.615212 0.707080 0.348644
vn 0.197087 0.707098 0.679094
g fff03339_00040_003e9dda_e0
f 13/33/13 10/25/10 12/22/12
f 1/29/1 3/32/3 6/27/6
f 14/35/14 13/33/13 12/22/12
f 2/31/2 6/27/6 3/32/3
f 6/27/6 4/28/4 1/29/1
f 5/30/5 1/29/1 4/28/4
g fff03339_00040_003e9dda_e1
f 2/2/2 14/36/14 6/1/6
f 14/36/14 2/2/2 8/3/8
f 14/36/14 12/4/12 6/1/6
f 11/15/11 7/16/7 1/13/1
f 1/13/1 5/14/5 11/15/11
f 4/5/4 6/1/6 12/4/12
f 12/4/12 10/6/10 4/5/4
g fff03339_00040_003e9dda_e4
f 9/23/9 14/35/14 8/24/8
f 11/21/11 9/23/9 7/26/7
f 11/21/11 13/33/13 9/23/9
f 9/23/9 13/33/13 14/35/14
g fff03339_00040_003e9dda_e2
f 3/7/3 1/8/1 7/9/7
f 7/9/7 9/10/9 3/7/3
f 2/11/2 3/7/3 9/10/9
f 9/10/9 8/12/8 2/11/2
f 13/34/13 4/18/4 10/19/10
f 4/18/4 13/34/13 5/17/5
f 13/34/13 11/20/11 5/17/5
