# fff044a3_00171_0044f86c
o fff044a3_00171_0044f86c
v -5.049892 1.330826 -0.447723
v 5.051804 1.352005 0.197680
v -5.049892 1.351974 0.197680
v 5.051804 1.330856 -0.447723
v 5.051804 1.369003 0.208022
v 5.051804 1.369003 0.156606
v -5.075710 1.368973 0.208022
v -5.075710 1.368973 0.156606
v -5.042294 1.404861 0.217654
v -5.095978 1.404785 0.217654
v 5.051804 1.311081 0.208022
v -5.095978 0.235626 0.613036
v -5.075710 1.311050 0.208022
v 5.051804 1.300400 -0.523959
v -5.075710 1.311783 -0.523959
v -5.042202 0.290634 0.613036
v -5.042294 1.402054 -0.537775
v 5.095993 1.402084 -0.537775
v 5.042496 1.402084 -0.537775
v 1.031672 0.277084 -0.537775
v -5.095978 1.401978 -0.537775
v 1.031641 1.301529 -0.537775
v 1.031641 1.333420 0.196734
v 1.031672 0.280655 0.595764
v 1.057245 0.277084 -0.537775
v 1.057215 1.333420 0.196734
v 1.057215 1.301529 -0.537775
v 1.057245 0.280655 0.595764
v 5.095993 1.404892 0.217654
v 5.042496 1.404892 0.217654
v 5.042496 0.290665 0.613036
v 5.095993 0.235733 0.613036
v -5.049892 1.330826 -0.537775
v 5.051804 1.330856 -0.537775
v 5.042496 0.290665 -0.537775
v -5.042202 0.290634 -0.537775
v -5.095978 0.235626 -0.537775
v 5.095993 0.235733 -0.537775
v -0.449657 0.276169 0.595147
v -0.424084 0.276169 0.595147
v -5.086269 0.274429 -0.164396
v -5.051235 1.281479 -0.164396
v 5.063431 1.281509 -0.164396
v 5.051804 0.274460 -0.164396
v 3.523867 1.333420 0.196734
v -0.449657 0.272568 -0.538392
v -0.449690 1.297012 -0.538392
v -0.449690 1.328903 0.196117
v -0.424084 0.272568 -0.538392
v -0.424116 1.328903 0.196117
v -0.424116 1.297043 -0.538392
v 3.498323 0.277084 -0.537775
v 3.498293 1.333420 0.196734
v 3.498323 0.280655 0.595764
v 3.523897 0.277084 -0.537775
v 3.523897 0.280655 0.595764
v -3.515789 0.277054 -0.537775
v -3.524731 1.333389 0.196734
v -3.524731 0.280624 0.595764
v 3.498293 1.301529 -0.537775
v 3.523867 1.301529 -0.537775
v -3.541363 0.277054 -0.537775
v -3.541393 1.333389 0.196734
v -3.541363 0.280624 0.595764
v 5.063431 1.307510 0.101337
v 5.051804 1.209457 0.101337
v -5.086269 1.209427 0.101337
v -5.051235 1.307480 0.101337
v -3.524731 1.301498 -0.537775
v -3.541393 1.301498 -0.537775
v -1.942602 0.280624 0.595764
v -1.959234 0.280624 0.595764
v -5.049908 -1.330818 -0.447723
v -5.049908 -1.351967 0.197680
v 2.589897 1.333420 0.196734
v 2.589930 0.277084 -0.537775
v 2.589930 0.280655 0.595764
v 2.589897 1.301529 -0.537775
v 2.564323 1.333420 0.196734
v 2.564356 0.280655 0.595764
v 2.564356 0.277084 -0.537775
v 2.564323 1.301529 -0.537775
v -1.942602 1.333389 0.196734
v -1.933661 0.277054 -0.537775
v -1.942602 1.301498 -0.537775
v -1.959265 1.333389 0.196734
v -1.959234 0.277054 -0.537775
v -1.959265 1.301498 -0.537775
v -5.042309 -1.402046 -0.537775
v 5.051788 -1.352005 0.197680
v 5.051788 -1.330856 -0.447723
v 5.051788 -1.369003 0.208022
v -5.095993 -1.401970 -0.537775
v -5.075726 -1.368965 0.208022
v 5.051788 -1.369003 0.156606
v -5.075726 -1.368965 0.156606
v -5.042309 -1.404854 0.217654
v -5.095993 -1.404778 0.217654
v 5.051788 -1.311081 0.208022
v -5.095993 -0.235619 0.613036
v 5.051788 -1.300400 -0.523959
v -5.075726 -1.311043 0.208022
v -5.075726 -1.311775 -0.523959
v -5.042217 -0.290627 0.613036
v 5.095978 -1.402084 -0.537775
v 5.042480 -1.402084 -0.537775
v 1.031658 -0.277084 -0.537775
v 1.031626 -1.333420 0.196734
v 1.031626 -1.301529 -0.537775
v 1.031658 -0.280655 0.595764
v 1.057232 -0.277084 -0.537775
v 1.057199 -1.301529 -0.537775
v 1.057199 -1.333420 0.196734
v 1.057232 -0.280655 0.595764
v -5.095993 -0.235619 -0.537775
v 5.095978 -0.235733 -0.537775
v 5.095978 -1.404892 0.217654
v 5.042480 -1.404892 0.217654
v 5.042480 -0.290665 0.613036
v 5.095978 -0.235733 0.613036
v -5.049908 -1.330818 -0.537775
v 5.051788 -1.330856 -0.537775
v 5.042480 -0.290665 -0.537775
v -5.042217 -0.290627 -0.537775
v -0.449705 -1.328903 0.196117
v -0.449673 -0.276169 0.595147
v -0.424131 -1.328903 0.196117
v -0.424099 -0.276169 0.595147
v 5.063416 -1.281509 -0.164396
v -5.086285 -0.274422 -0.164396
v 5.051788 -0.274460 -0.164396
v -5.051250 -1.281471 -0.164396
v 3.523851 -1.333420 0.196734
v -0.449673 -0.272568 -0.538392
v -0.449705 -1.297012 -0.538392
v -0.424099 -0.272568 -0.538392
v -0.424131 -1.297043 -0.538392
v 3.498310 -0.277084 -0.537775
v 3.498278 -1.333420 0.196734
v 3.498278 -1.301529 -0.537775
v 3.498310 -0.280655 0.595764
v 3.523884 -0.280655 0.595764
v 3.523884 -0.277084 -0.537775
v 3.523851 -1.301529 -0.537775
v -3.541378 -0.277046 -0.537775
v -3.541409 -1.333382 0.196734
v -3.541409 -1.301491 -0.537775
v -3.541378 -0.280617 0.595764
v -3.515804 -0.277046 -0.537775
v -3.524746 -1.301491 -0.537775
v -3.524746 -1.333382 0.196734
v -3.524746 -0.280617 0.595764
v 5.063416 -1.307510 0.101337
v -5.086285 -1.209419 0.101337
v 5.051788 -1.209457 0.101337
v -5.051250 -1.307472 0.101337
v -1.959278 -1.333382 0.196734
v -1.959248 -0.280617 0.595764
v -1.942616 -1.333382 0.196734
v -1.942616 -0.280617 0.595764
v -1.959248 -0.277046 -0.537775
v -1.959278 -1.301491 -0.537775
v -1.933674 -0.277046 -0.537775
v -1.942616 -1.301491 -0.537775
v 2.564342 -0.277084 -0.537775
v 2.564310 -1.333420 0.196734
v 2.564310 -1.301529 -0.537775
v 2.564342 -0.280655 0.595764
v 2.589916 -0.277084 -0.537775
v 2.589884 -1.301529 -0.537775
v 2.589884 -1.333420 0.196734
v 2.589916 -0.280655 0.595764
vt -102.941872 -128.711761
vt 0.201675 0.558061
vt -128.522247 -38.936741
vt 0.199107 0.329455
vt 3.942152 3.701554
vt 3.496126 4.966786
vt 3.537227 5.016310
vt 4.199507 3.837907
vt 2.960567 3.049318
vt 3.234923 4.812551
vt -2.948959 0.423882
vt -1.959819 -0.506717
vt 0.006068 1.000000
vt 0.006068 1.000000
vt 0.197259 1.000000
vt 0.197258 1.000000
vt 2.636958 -0.250201
vt 2.636932 -0.250161
vt -0.805621 1.311284
vt -0.805621 1.671422
vt 3.279050 1.671422
vt 3.279050 1.311284
vt -3.187074 2.040329
vt -9.083308 -0.250161
vt -9.083308 -0.250162
vt -3.503843 2.040335
vt -27.309639 0.785460
vt -27.161203 2.060608
vt -27.161222 -1.769570
vt -27.309429 -1.769765
vt -44.156536 -3.202277
vt -44.156536 -3.613822
vt -0.805621 1.000000
vt 3.279050 1.000000
vt -27.161222 -2.128673
vt -27.309448 -2.128691
vt -3.182772 -0.250161
vt -3.187074 2.040329
vt -2.958989 -0.250161
vt -2.958990 -0.250161
vt -2.975082 -0.250161
vt -44.156536 -3.613822
vt -44.156536 -3.202277
vt -44.156536 -3.613822
vt -44.156536 -3.613822
vn -0.000003 0.999866 -0.016377
vn -0.000003 0.999464 -0.032751
vn -0.000003 0.999464 -0.032751
vn -0.000003 0.999866 -0.016377
vn -0.000002 0.707104 0.707109
vn -0.000003 1.000000 0.000000
vn -0.000002 0.707108 0.707105
vn -0.000003 1.000000 0.000000
vn 0.596726 0.656466 0.461487
vn -0.597682 0.655499 0.461625
vn 0.000002 -0.701932 0.712244
vn -0.595121 -0.522649 0.610467
vn -0.000758 -0.707208 0.707005
vn -0.000049 -0.999904 0.013874
vn -0.001124 -0.999999 -0.001001
vn 0.104616 0.454637 0.884512
vn 0.707410 0.706798 -0.002627
vn 0.000000 0.999993 -0.003717
vn -0.707942 0.706266 -0.002625
vn -1.000000 -0.000030 0.000000
vn -0.708444 0.705763 -0.002623
vn -1.000000 -0.000029 0.000001
vn -0.769022 0.226537 0.597734
vn -0.610765 0.280622 0.740417
vn 1.000000 0.000030 -0.000000
vn 0.769004 0.226584 0.597740
vn 1.000000 0.000029 -0.000001
vn 0.610772 0.280652 0.740400
vn 0.000000 0.813595 0.581432
vn -0.596170 0.653297 0.466674
vn -0.095942 0.461134 0.882128
vn 0.125047 -0.642971 0.755613
vn -0.000003 1.000000 0.000000
vn -0.000003 1.000000 0.000000
vn -0.707108 0.707106 0.000000
vn 0.707077 0.707137 -0.000000
vn -0.707103 -0.707110 0.000000
vn 0.000010 -1.000000 0.000000
vn -0.610770 0.280627 0.740411
vn 0.610778 0.280658 0.740392
vn 0.000000 0.000000 1.000000
vn 0.000000 0.000000 1.000000
vn 0.000000 0.000000 1.000000
vn 0.000000 0.000000 1.000000
vn 0.769004 0.226584 0.597740
vn -1.000000 -0.000032 0.000000
vn -1.000000 -0.000031 0.000001
vn -0.769025 0.226540 0.597729
vn 1.000000 0.000032 -0.000000
vn 0.769011 0.226588 0.597729
vn 1.000000 0.000031 -0.000001
vn -1.000000 -0.000030 0.000000
vn -0.769022 0.226537 0.597734
vn -0.610765 0.280622 0.740417
vn 1.000000 0.000030 -0.000000
vn 0.610772 0.280652 0.740400
vn 0.999931 0.008728 0.007860
vn 0.769011 0.226561 0.597739
vn 0.608892 0.283008 0.741052
vn -1.000000 -0.000029 0.000001
vn 1.000000 0.000029 -0.000001
vn -1.000000 -0.000030 0.000000
vn -0.769022 0.226537 0.597734
vn -0.610766 0.280622 0.740416
vn 0.000000 0.000000 1.000000
vn 0.000000 0.000000 1.000000
vn 0.000000 0.000000 1.000000
vn 0.000000 0.000000 1.000000
vn 0.999981 0.004529 0.004079
vn -1.000000 -0.000029 0.000001
vn 0.608892 0.283008 0.741052
vn -0.610766 0.280622 0.740416
vn -0.000004 -0.999866 -0.016378
vn -0.000004 -0.999464 -0.032751
vn 0.769003 0.226585 0.597740
vn 1.000000 0.000032 -0.000000
vn 0.610773 0.280653 0.740399
vn 1.000000 0.000031 -0.000001
vn -0.769022 0.226536 0.597734
vn -0.610765 0.280621 0.740417
vn -1.000000 -0.000032 0.000000
vn -1.000000 -0.000031 0.000001
vn 0.769011 0.226561 0.597739
vn 0.999931 0.008728 0.007860
vn 0.999981 0.004529 0.004079
vn -0.769022 0.226537 0.597734
vn -1.000000 -0.000030 0.000000
vn -1.000000 -0.000029 0.000001
vn 0.707411 -0.706798 -0.002627
vn -0.000004 -0.999464 -0.032751
vn -0.000004 -0.999866 -0.016377
vn -0.000003 -0.707106 0.707108
vn -0.708443 -0.705763 -0.002623
vn -0.000003 -0.707109 0.707104
vn -0.000004 -1.000000 0.000000
vn -0.000004 -1.000000 0.000000
vn 0.596726 -0.656467 0.461487
vn -0.597682 -0.655499 0.461625
vn 0.000003 0.701925 0.712251
vn -0.595122 0.522650 0.610464
vn -0.000048 0.999904 0.013874
vn -0.000758 0.707208 0.707005
vn -0.001123 0.999999 -0.001001
vn 0.104616 -0.454636 0.884512
vn 0.000000 -0.999993 -0.003717
vn -0.707942 -0.706266 -0.002625
vn -1.000000 0.000032 0.000000
vn -0.769022 -0.226536 0.597734
vn -1.000000 0.000031 0.000001
vn -0.610764 -0.280621 0.740418
vn 1.000000 -0.000032 -0.000000
vn 1.000000 -0.000031 -0.000001
vn 0.769004 -0.226585 0.597740
vn 0.610773 -0.280653 0.740399
vn -0.707103 0.707111 0.000000
vn 0.000011 1.000000 0.000000
vn 0.000000 -0.813595 0.581433
vn -0.596170 -0.653297 0.466674
vn -0.095942 -0.461135 0.882128
vn 0.125047 0.642969 0.755615
vn -0.000004 -1.000000 0.000000
vn -0.000004 -1.000000 0.000000
vn -0.707108 -0.707105 0.000000
vn 0.707076 -0.707137 -0.000000
vn -0.769024 -0.226541 0.597731
vn -0.610769 -0.280627 0.740412
vn 0.769013 -0.226587 0.597727
vn 0.610778 -0.280658 0.740393
vn 0.000000 0.000000 1.000000
vn 0.000000 0.000000 1.000000
vn 0.000000 0.000000 1.000000
vn 0.000000 0.000000 1.000000
vn 0.769004 -0.226585 0.597740
vn -1.000000 0.000032 0.000000
vn -1.000000 0.000031 0.000001
vn 1.000000 -0.000032 -0.000000
vn 1.000000 -0.000031 -0.000001
vn -1.000000 0.000032 0.000000
vn -0.769022 -0.226536 0.597734
vn -1.000000 0.000031 0.000001
vn -0.610764 -0.280621 0.740418
vn 0.610773 -0.280653 0.740399
vn 1.000000 -0.000032 -0.000000
vn 1.000000 -0.000031 -0.000001
vn -1.000000 0.000030 0.000000
vn -0.769022 -0.226537 0.597735
vn -1.000000 0.000029 0.000001
vn -0.610764 -0.280623 0.740418
vn 0.999931 -0.008728 0.007860
vn 0.999981 -0.004529 0.004079
vn 0.769013 -0.226560 0.597736
vn 0.608892 -0.283008 0.741052
vn 0.000000 0.000000 1.000000
vn 0.000000 0.000000 1.000000
vn 0.000000 0.000000 1.000000
vn 0.000000 0.000000 1.000000
vn -0.769022 -0.226537 0.597735
vn -0.610764 -0.280623 0.740418
vn 0.769013 -0.226560 0.597736
vn 0.608892 -0.283008 0.741052
vn -1.000000 0.000030 0.000000
vn -1.000000 0.000029 0.000001
vn 0.999931 -0.008728 0.007860
vn 0.999981 -0.004529 0.004079
vn -1.000000 0.000032 0.000000
vn -0.769022 -0.226536 0.597734
vn -1.000000 0.000031 0.000001
vn -0.610764 -0.280621 0.740418
vn 1.000000 -0.000032 -0.000000
vn 1.000000 -0.000031 -0.000001
vn 0.769004 -0.226585 0.597740
vn 0.610773 -0.280653 0.740399
g fff044a3_00171_0044f86c_e12
f 156/43/156 155/32/155 154/42/154
f 155/32/155 156/43/156 153/31/153
f 68/43/68 67/42/67 66/32/66
f 66/32/66 65/31/65 68/43/68
g fff044a3_00171_0044f86c_e8
f 122/34/122 73/19/73 121/33/121
f 73/19/73 122/34/122 91/22/91
f 34/34/34 33/33/33 1/19/1
f 1/19/1 4/22/4 34/34/34
g fff044a3_00171_0044f86c_e2
f 158/8/158 157/6/157 159/11/159
f 160/12/160 158/8/158 159/11/159
f 172/12/172 168/8/168 171/11/171
f 168/8/168 166/6/166 171/11/171
f 106/36/106 105/35/105 117/29/117
f 72/8/72 83/11/83 86/6/86
f 89/24/89 124/37/124 97/25/97
f 123/39/123 106/18/106 118/17/118
f 123/39/123 118/17/118 119/23/119
f 104/26/104 97/25/97 124/37/124
f 71/12/71 83/11/83 72/8/72
f 77/12/77 75/11/75 80/8/80
f 80/8/80 75/11/75 79/6/79
f 59/12/59 58/11/58 64/8/64
f 152/12/152 148/8/148 151/11/151
f 24/8/24 26/11/26 23/6/23
f 17/24/17 9/25/9 36/37/36
f 35/39/35 30/17/30 19/18/19
f 35/39/35 31/23/31 30/17/30
f 117/29/117 118/30/118 106/36/106
f 128/12/128 126/8/126 127/11/127
f 110/8/110 108/6/108 113/11/113
f 93/36/93 89/35/89 97/29/97
f 97/29/97 98/30/98 93/36/93
f 148/8/148 146/6/146 151/11/151
f 142/12/142 141/8/141 133/11/133
f 16/26/16 36/37/36 9/25/9
f 21/36/21 9/29/9 17/35/17
f 126/8/126 125/6/125 127/11/127
f 141/8/141 139/6/139 133/11/133
f 94/2/94 92/1/92 99/13/99
f 102/15/102 94/2/94 99/13/99
f 114/12/114 110/8/110 113/11/113
f 19/36/19 29/29/29 18/35/18
f 40/12/40 50/11/50 39/8/39
f 29/29/29 19/36/19 30/30/30
f 28/12/28 26/11/26 24/8/24
f 13/15/13 11/13/11 7/2/7
f 7/2/7 11/13/11 5/1/5
f 54/8/54 45/11/45 53/6/53
f 39/8/39 50/11/50 48/6/48
f 9/29/9 21/36/21 10/30/10
f 64/8/64 58/11/58 63/6/63
f 56/12/56 45/11/45 54/8/54
g fff044a3_00171_0044f86c_e13
f 91/22/91 90/21/90 74/20/74
f 91/22/91 74/20/74 73/19/73
f 4/22/4 3/20/3 2/21/2
f 4/22/4 1/19/1 3/20/3
g fff044a3_00171_0044f86c_e4
f 124/40/124 119/23/119 104/38/104
f 119/23/119 124/40/124 123/39/123
f 132/43/132 131/32/131 130/42/130
f 131/32/131 132/43/132 129/31/129
f 42/43/42 41/42/41 44/32/44
f 31/23/31 35/39/35 36/40/36
f 36/40/36 16/38/16 31/23/31
f 44/32/44 43/31/43 42/43/42
g fff044a3_00171_0044f86c_e3
f 167/7/167 168/8/168 165/5/165
f 168/8/168 167/7/167 166/6/166
f 152/12/152 151/11/151 150/10/150
f 150/10/150 149/9/149 152/12/152
f 148/8/148 147/7/147 146/6/146
f 147/7/147 148/8/148 145/5/145
f 144/10/144 143/9/143 142/12/142
f 141/8/141 140/7/140 139/6/139
f 140/7/140 141/8/141 138/5/138
f 100/42/100 120/32/120 116/45/116
f 116/45/116 115/44/115 100/42/100
f 128/12/128 127/11/127 137/10/137
f 137/10/137 136/9/136 128/12/128
f 126/8/126 135/7/135 125/6/125
f 135/7/135 126/8/126 134/5/134
f 162/7/162 158/8/158 161/5/161
f 158/8/158 162/7/162 157/6/157
f 164/10/164 163/9/163 160/12/160
f 160/12/160 159/11/159 164/10/164
f 170/10/170 169/9/169 172/12/172
f 114/12/114 113/11/113 112/10/112
f 112/10/112 111/9/111 114/12/114
f 96/4/96 95/3/95 94/2/94
f 110/8/110 109/7/109 108/6/108
f 172/12/172 171/11/171 170/10/170
f 7/2/7 5/1/5 6/3/6
f 142/12/142 133/11/133 144/10/144
f 100/26/100 115/41/115 98/25/98
f 93/24/93 98/25/98 115/41/115
f 109/7/109 110/8/110 107/5/107
f 22/7/22 20/5/20 24/8/24
f 94/2/94 95/3/95 92/1/92
f 88/7/88 87/5/87 72/8/72
f 72/8/72 86/6/86 88/7/88
f 85/10/85 71/12/71 84/9/84
f 71/12/71 85/10/85 83/11/83
f 82/7/82 81/5/81 80/8/80
f 80/8/80 79/6/79 82/7/82
f 64/8/64 63/6/63 70/7/70
f 70/7/70 62/5/62 64/8/64
f 61/10/61 56/12/56 55/9/55
f 54/8/54 53/6/53 60/7/60
f 78/10/78 77/12/77 76/9/76
f 77/12/77 78/10/78 75/11/75
f 21/24/21 37/41/37 10/25/10
f 12/26/12 10/25/10 37/41/37
f 59/12/59 69/10/69 58/11/58
f 69/10/69 59/12/59 57/9/57
f 60/7/60 52/5/52 54/8/54
f 12/42/12 38/45/38 32/32/32
f 38/45/38 12/42/12 37/44/37
f 40/12/40 51/10/51 50/11/50
f 51/10/51 40/12/40 49/9/49
f 39/8/39 48/6/48 47/7/47
f 47/7/47 46/5/46 39/8/39
f 56/12/56 61/10/61 45/11/45
f 24/8/24 23/6/23 22/7/22
f 8/4/8 7/2/7 6/3/6
f 27/10/27 28/12/28 25/9/25
f 28/12/28 27/10/27 26/11/26
g fff044a3_00171_0044f86c_e1
f 104/28/104 100/27/100 98/30/98
f 98/30/98 97/29/97 104/28/104
f 102/15/102 99/13/99 101/14/101
f 104/43/104 120/32/120 100/42/100
f 120/28/120 119/27/119 118/30/118
f 16/28/16 10/30/10 12/27/12
f 10/30/10 16/28/16 9/29/9
f 13/15/13 14/14/14 11/13/11
f 16/43/16 12/42/12 32/32/32
f 118/30/118 117/29/117 120/28/120
f 32/28/32 30/30/30 31/27/31
f 30/30/30 32/28/32 29/29/29
f 15/16/15 14/14/14 13/15/13
f 32/32/32 31/31/31 16/43/16
f 120/32/120 104/43/104 119/31/119
f 103/16/103 102/15/102 101/14/101
