# fff0aa7b_00130_0038fbd2
o fff0aa7b_00130_0038fbd2
v 4.935447 0.037636 -0.023633
v 4.935447 0.037636 0.022944
v 5.120492 -0.037636 -0.023633
v 4.935447 -0.037012 -0.023633
v 4.935447 -0.037012 0.022944
v 5.120492 -0.037636 0.022944
v 4.935447 -0.037012 -0.962112
v 5.120492 -0.037636 -0.962112
v 5.120492 -0.037636 -1.008688
v 4.935447 -0.037012 -1.008688
v 4.935447 0.037636 0.962111
v 4.935447 0.037636 1.008688
v 5.120492 0.026991 0.962111
v 5.120492 0.026991 1.008688
v 5.120492 0.026991 -1.008688
v 5.120492 0.026991 -0.962112
v 4.935447 0.037636 -1.008688
v 4.935447 0.037636 -0.962112
v 5.120492 0.026991 -0.023633
v 5.120492 0.026991 0.022944
v 5.120492 -0.037636 0.962111
v 4.935447 -0.037012 0.962111
v 4.935447 -0.037012 1.008688
v 5.120492 -0.037636 1.008688
v 1.782437 -0.014994 -1.031148
v 2.923184 -0.014994 -1.031148
v 1.782437 0.041954 -1.031148
v 2.923184 0.041954 -1.031148
v 1.782437 -0.014994 -0.064517
v 2.923184 -0.014994 -0.064517
v 1.782437 0.041954 -0.064517
v 2.923184 0.041954 -0.064517
v 1.849972 -0.015463 -0.972113
v 2.854794 -0.015463 -0.972113
v 1.849972 -0.015463 -0.064517
v 2.854794 -0.015463 -0.064517
v 1.849972 0.041954 -0.972260
v 2.854794 0.041954 -0.972260
v 1.849972 0.041954 -0.064517
v 2.854794 0.041954 -0.064517
v 1.849972 0.018647 -0.971083
v 2.854794 0.018647 -0.971083
v 1.849972 0.018647 -0.064517
v 2.854794 0.018647 -0.064517
v 1.782437 -0.014994 0.003609
v 2.923184 -0.014994 0.003609
v 1.782437 0.041954 0.003609
v 2.923184 0.041954 0.003609
v 1.849972 -0.015463 0.003609
v 2.854794 -0.015463 0.003609
v 1.849972 0.041954 0.003609
v 2.854794 0.041954 0.003609
v 1.782437 -0.014994 0.990813
v 2.923184 -0.014994 0.990813
v 1.782437 0.041954 0.990813
v 2.923184 0.041954 0.990813
v 1.849972 -0.015463 0.942275
v 2.854794 -0.015463 0.942275
v 1.849972 0.041954 0.942275
v 2.854794 0.041954 0.942275
v 1.849972 0.014856 -0.015708
v 2.854794 0.014856 -0.015708
v 1.849972 0.014856 0.961303
v 2.854794 0.014856 0.961303
v 2.993604 -0.038921 -1.050303
v 2.993604 0.037438 -1.050303
v 2.941914 -0.039378 -1.050303
v 2.941914 0.037438 -1.050303
v 2.994558 -0.038806 1.102983
v 2.994558 0.037438 1.102983
v 2.941010 -0.039034 1.050260
v 2.941010 0.037438 1.050260
v 1.751752 -0.038921 -1.050303
v 1.751752 0.037438 -1.050303
v 1.700062 -0.039378 -1.050303
v 1.700062 0.037438 -1.050303
v 1.750951 -0.039131 1.050260
v 1.750951 0.037438 1.050260
v 1.700062 -0.039456 1.102983
v 1.700062 0.037438 1.102983
v 1.886990 -0.071355 -0.047991
v 1.886990 -0.071355 -0.012916
v 1.886990 -0.092434 -0.047991
v 1.886990 -0.092434 -0.012916
v 1.838192 -0.040323 -0.047991
v 1.838192 -0.040323 -0.012916
v 1.817135 -0.040323 -0.047991
v 1.817135 -0.040323 -0.012916
v 2.818112 -0.071668 -0.047991
v 2.818112 -0.071668 -0.012916
v 2.818112 -0.092746 -0.047991
v 2.818112 -0.092746 -0.012916
v 2.865841 -0.040323 -0.047991
v 2.865841 -0.040323 -0.012916
v 2.886899 -0.040323 -0.047991
v 2.886899 -0.040323 -0.012916
v 0.362672 -0.004077 -1.050631
v 1.740933 -0.002198 -1.050631
v 0.362672 -0.004077 1.047726
v 1.740933 -0.002198 1.047726
v 0.348041 -0.017081 -0.365734
v 0.348041 0.006623 -0.365734
v 0.348041 -0.017276 -0.329803
v 0.348041 0.006623 -0.329803
v 1.748212 -0.015201 -0.365734
v 1.748212 0.008503 -0.365734
v 1.748212 -0.015397 -0.329803
v 1.748212 0.008503 -0.329803
v 0.348041 -0.017081 0.333922
v 0.348041 0.006623 0.333922
v 0.348041 -0.017276 0.369852
v 0.348041 0.006623 0.369852
v 1.748212 -0.015201 0.333922
v 1.748212 0.008503 0.333922
v 1.748212 -0.015397 0.369852
v 1.748212 0.008503 0.369852
v 4.939951 -0.033280 -1.016032
v 4.939951 0.023951 -1.016032
v 5.003581 -0.033752 -1.036675
v 5.003581 0.023951 -1.036675
v 4.938972 -0.033280 1.034969
v 4.938972 0.023951 1.034969
v 5.004536 -0.033752 1.085592
v 5.004536 0.023951 1.085592
v 2.968559 -0.031893 1.034969
v 2.968559 0.025338 1.034969
v 2.968559 -0.032365 1.085592
v 2.968559 0.025338 1.085592
v 5.109286 -0.033280 -1.016384
v 5.109286 0.023951 -1.016384
v 5.045656 -0.033752 -1.035933
v 5.045656 0.023951 -1.035933
v 5.110264 -0.033280 1.034969
v 5.110264 0.023951 1.034969
v 5.044701 -0.033752 1.085592
v 5.044701 0.023951 1.085592
v 7.461016 -0.033280 1.034969
v 7.461016 0.023951 1.034969
v 7.525270 -0.033752 1.085592
v 7.525270 0.023951 1.085592
v 2.959671 -0.015201 -0.335286
v 2.959671 0.008503 -0.335286
v 2.959671 -0.015397 -0.299356
v 2.959671 0.008503 -0.299356
v 9.982222 -0.007717 -0.335286
v 9.982222 0.015987 -0.335286
v 9.982222 -0.007912 -0.299356
v 9.982222 0.015987 -0.299356
v 2.959671 -0.015201 0.333922
v 2.959671 0.008503 0.333922
v 2.959671 -0.015397 0.369852
v 2.959671 0.008503 0.369852
v 9.982222 -0.007717 0.333922
v 9.982222 0.015987 0.333922
v 9.982222 -0.007912 0.369852
v 9.982222 0.015987 0.369852
v 2.951469 -0.031893 -1.016150
v 2.951469 0.025338 -1.016150
v 2.951469 -0.032365 -1.037514
v 2.951469 0.025338 -1.037514
v 7.461504 -0.033280 -1.016267
v 7.461504 0.023951 -1.016267
v 7.524792 -0.033752 -1.036724
v 7.524792 0.023951 -1.036724
v 5.094801 -0.003585 -1.050631
v 7.498054 -0.003585 -1.050631
v 5.094801 -0.003585 1.047726
v 7.498054 -0.003585 1.047726
v 2.940075 -0.002198 -1.050631
v 4.980561 -0.003585 -1.050631
v 2.940075 -0.002198 1.047726
v 4.980561 -0.003585 1.047726
v 2.941914 -0.038802 -1.050303
v 2.941010 -0.038803 1.050260
v 0.367321 -0.033773 -1.016032
v 0.367321 0.023458 -1.016032
v 0.314012 -0.034245 -1.036675
v 0.314012 0.023458 -1.036675
v 0.368141 -0.033773 1.034969
v 0.368141 0.023458 1.034969
v 0.313213 -0.034245 1.085592
v 0.313213 0.023458 1.085592
v 1.730897 -0.031893 1.034969
v 1.730897 0.025338 1.034969
v 1.730897 -0.032365 1.085592
v 1.730897 0.025338 1.085592
v 1.747987 -0.031893 -1.016150
v 1.747987 0.025338 -1.016150
v 1.747987 -0.032365 -1.037514
v 1.747987 0.025338 -1.037514
v 7.630560 -0.033280 -1.016384
v 7.630560 0.023951 -1.016384
v 7.566930 -0.033752 -1.035933
v 7.566930 0.023951 -1.035933
v 7.631538 -0.033280 1.034969
v 7.631538 0.023951 1.034969
v 7.565975 -0.033752 1.085592
v 7.565975 0.023951 1.085592
v 9.982289 -0.033280 1.034969
v 9.982289 0.023951 1.034969
v 10.046544 -0.033752 1.085592
v 10.046544 0.023951 1.085592
v 9.982779 -0.033280 -1.016267
v 9.982779 0.023951 -1.016267
v 10.046066 -0.033752 -1.036724
v 10.046066 0.023951 -1.036724
v 7.616075 -0.003585 -1.050631
v 10.019328 -0.003585 -1.050631
v 7.616075 -0.003585 1.047726
v 10.019328 -0.003585 1.047726
v 7.454317 0.037636 -0.023633
v 7.454317 0.037636 0.022944
v 7.639362 -0.037636 -0.023633
v 7.454317 -0.037012 -0.023633
v 7.454317 -0.037012 0.022944
v 7.639362 -0.037636 0.022944
v 7.454317 -0.037012 -0.962112
v 7.639362 -0.037636 -0.962112
v 7.639362 -0.037636 -1.008688
v 7.454317 -0.037012 -1.008688
v 7.454317 0.037636 0.962111
v 7.454317 0.037636 1.008688
v 7.639362 0.026991 0.962111
v 7.639362 0.026991 1.008688
v 7.639362 0.026991 -1.008688
v 7.639362 0.026991 -0.962112
v 7.454317 0.037636 -1.008688
v 7.454317 0.037636 -0.962112
v 7.639362 0.026991 -0.023633
v 7.639362 0.026991 0.022944
v 7.639362 -0.037636 0.962111
v 7.454317 -0.037012 0.962111
v 7.454317 -0.037012 1.008688
v 7.639362 -0.037636 1.008688
vt 2.086169 0.388878
vt 2.086169 0.163811
vt 2.086169 0.268923
vt 2.086169 -0.075521
vt 2.086169 0.133417
vt 2.086169 0.158412
vt 2.086169 -0.075521
vt 2.086169 0.163811
vt 1.086170 0.158412
vt 1.086170 0.158412
vt 1.086170 0.158412
vt 1.086170 0.158412
vt 2.086169 0.433219
vt 2.086169 0.219572
vt 2.086169 0.091568
vt 2.086169 -0.093323
vt 1.455917 -0.075272
vt 0.876731 0.309727
vt 1.457926 -0.066735
vt 0.876862 0.309743
vt 2.086169 0.158412
vt 1.086170 0.158412
vt 1.086170 0.158412
vt 2.086169 0.158412
vt 1.295180 0.006875
vt 1.295180 0.007308
vt 1.086170 -0.175731
vt 2.086169 -0.175731
vt 2.086169 -0.175731
vt 1.086170 -0.175731
vt 1.448419 -0.070533
vt 1.430441 -0.055596
vt 1.433547 -0.072269
vt 1.447182 -0.054329
vt 1.086170 0.158412
vt 1.086170 0.158412
vt 1.086170 0.158412
vt 1.086170 0.158412
vt 1.086170 0.158412
vt 1.086170 0.158412
vt 2.086169 0.158412
vt 1.408690 -0.063237
vt 1.410749 -0.072268
vt 1.902753 -0.039336
vt 1.902753 -0.038902
vt 0.562500 0.207372
vt 0.617037 0.207372
vt 0.617037 0.812413
vt 0.562500 0.812413
vt 1.902753 -0.101987
vt 1.902753 -0.101554
vt 1.004596 0.142463
vt 0.903709 0.138418
vt 2.086169 0.022906
vt 2.086169 -0.145376
vt 2.086169 0.158412
vt 2.086169 0.158412
vt 2.086169 0.158412
vt 2.086169 0.158412
vt 1.086170 0.158412
vt 1.086170 0.158412
vt 1.086170 0.158412
vt 2.086169 0.158412
vt 2.086169 0.158412
vt 2.072589 -0.122928
vt 2.086169 0.158412
vt 2.086169 0.158412
vt 2.072589 -0.159307
vt 30.986717 4.011178
vt 34.967491 4.011180
vt 34.967491 -1.031141
vt 30.986717 -1.031140
vt 29.232176 13.475198
vt 27.306541 13.475201
vt 27.306541 8.997279
vt 27.306541 8.997279
vt 29.232176 8.997279
vt 29.232176 13.475198
vt 32.581753 4.453994
vt 35.195625 4.453997
vt 35.195625 2.014918
vt 35.195625 2.014918
vt 32.581753 2.014918
vt 32.581753 4.453994
vt 2.086169 -0.071800
vt 2.086169 -0.071800
vt 2.086169 -0.175731
vt 2.086169 0.158412
vt 1.086170 0.158412
vt 1.086170 -0.175731
vt 1.086170 -0.175731
vt 2.086169 -0.175731
vt 2.086169 -0.071800
vt 1.086170 0.158412
vt 1.086170 -0.175731
vt 2.086169 -0.175731
vt 2.086169 -0.175731
vt 1.086170 -0.175731
vt 1.044773 -0.118238
vt 1.145308 -0.084644
vt 1.086170 0.158412
vt 1.086170 0.158412
vt 2.086169 0.158412
vt 1.086170 0.158412
vt 1.916179 0.014095
vt 1.948245 0.016284
vt 1.086170 0.158412
vt 2.086169 0.158412
vt 2.086169 0.158412
vt 1.086170 0.158412
vt 2.086169 0.158412
vt 2.086169 0.158412
vt 1.086170 0.158412
vt 1.086170 0.158412
vt 0.510066 0.812413
vt 0.455529 0.207372
vt 0.510066 0.207372
vt 0.455529 0.812413
vt 1.440298 -0.173596
vt 1.391834 -0.172013
vt 1.437503 -0.173908
vt 1.441487 -0.148792
vt 0.669471 0.207372
vt 0.669471 0.812413
vt 2.086169 -0.072969
vt 2.086169 -0.004307
vt 31.266449 13.475194
vt 27.306541 13.475201
vt 27.306541 8.997279
vt 27.306541 8.997279
vt 31.266449 8.997279
vt 31.266449 13.475198
vt 26.935062 8.997279
vt 30.728474 8.997279
vt 30.728474 13.475198
vt 30.728474 13.475195
vt 26.935062 13.475202
vt 26.935062 8.997280
vt 1.086170 0.158412
vt 1.086170 0.158412
vn -1.000000 0.000000 0.000000
vn -1.000000 0.000000 0.000000
vn 0.705911 -0.708301 0.000007
vn -0.708298 -0.705914 0.000001
vn -0.708297 -0.705914 0.000000
vn 0.705916 -0.708296 0.000006
vn -0.708297 -0.705914 0.000000
vn 0.705916 -0.708296 0.000006
vn 0.705911 -0.708301 0.000007
vn -0.708298 -0.705914 0.000001
vn -1.000000 0.000000 0.000000
vn -1.000000 0.000000 0.000000
vn 1.000000 0.000000 0.000000
vn 1.000000 0.000000 0.000000
vn 1.000000 0.000000 0.000000
vn 1.000000 0.000000 0.000000
vn -1.000000 0.000000 0.000000
vn -1.000000 0.000000 0.000000
vn 1.000000 0.000000 0.000000
vn 1.000000 0.000000 0.000000
vn 0.705911 -0.708301 0.000007
vn -0.708298 -0.705914 0.000001
vn -0.708297 -0.705914 0.000000
vn 0.705916 -0.708296 0.000006
vn -0.578101 -0.575924 -0.578023
vn 0.578100 -0.575933 -0.578015
vn -0.577350 0.577350 -0.577350
vn 0.577350 0.577350 -0.577350
vn -0.709560 -0.704645 0.000000
vn 0.709529 -0.704676 0.000000
vn -0.707107 0.707107 0.000000
vn 0.707107 0.707107 0.000000
vn 0.299732 -0.906093 0.298591
vn -0.299775 -0.906083 0.298578
vn 0.297697 -0.905669 -0.301894
vn -0.297745 -0.905655 -0.301890
vn 0.300852 0.904809 0.301344
vn -0.300852 0.904809 0.301344
vn 0.301511 0.904534 -0.301511
vn -0.301511 0.904534 -0.301511
vn 0.000000 -1.000000 0.000000
vn 0.000000 -1.000000 0.000000
vn 0.000000 -1.000000 0.000000
vn 0.000000 -1.000000 0.000000
vn -0.709560 -0.704645 0.000000
vn 0.709529 -0.704676 0.000000
vn -0.707107 0.707107 0.000000
vn 0.707107 0.707107 0.000000
vn 0.297697 -0.905669 0.301895
vn -0.297745 -0.905655 0.301890
vn 0.301511 0.904534 0.301511
vn -0.301511 0.904534 0.301511
vn -0.578224 -0.575805 0.578019
vn 0.578221 -0.575816 0.578010
vn -0.577350 0.577350 0.577350
vn 0.577350 0.577350 0.577350
vn 0.299279 -0.906592 -0.297528
vn -0.299320 -0.906583 -0.297514
vn 0.301511 0.904534 -0.301511
vn -0.301511 0.904534 -0.301511
vn 0.000000 -1.000000 0.000000
vn 0.000000 -1.000000 0.000000
vn 0.000000 -1.000000 0.000000
vn 0.000000 -1.000000 0.000000
vn 0.710089 -0.704112 -0.000195
vn 0.707007 0.707207 -0.000313
vn 0.008838 -0.999961 0.000168
vn -0.707010 0.707204 -0.000304
vn 0.577984 -0.576436 0.577630
vn 0.577490 0.577327 0.577234
vn 0.002246 -0.949191 -0.314691
vn -0.301522 0.904484 -0.301652
vn 0.710319 -0.703880 0.000243
vn 0.707193 0.707021 0.000270
vn -0.703984 -0.710216 -0.000026
vn -0.707107 0.707107 0.000000
vn 0.303873 -0.903032 -0.303636
vn 0.301503 0.904578 -0.301388
vn -0.576739 -0.578582 0.576727
vn -0.577350 0.577351 0.577350
vn 0.209335 0.329169 -0.920775
vn 0.209337 0.329169 0.920774
vn -0.241474 -0.727129 -0.642630
vn -0.241474 -0.727129 0.642630
vn 0.279448 0.439418 -0.853710
vn 0.279448 0.439414 0.853712
vn -0.553629 -0.742138 -0.377791
vn -0.553629 -0.742138 0.377791
vn -0.213388 0.324927 -0.921351
vn -0.213390 0.324927 0.921351
vn 0.245223 -0.726726 -0.641666
vn 0.245223 -0.726726 0.641665
vn -0.287046 0.437087 -0.852385
vn -0.287046 0.437084 0.852386
vn 0.559938 -0.734715 -0.382967
vn 0.559937 -0.734715 0.382967
vn 0.001364 -0.999999 0.000000
vn 0.001364 -0.999999 0.000000
vn 0.001364 -0.999999 0.000000
vn 0.001364 -0.999999 0.000000
vn 0.000947 -0.705483 -0.708727
vn -0.000949 0.706804 -0.707409
vn 0.000952 -0.709328 0.704878
vn -0.000949 0.706805 0.707408
vn 0.000946 -0.704877 -0.709329
vn -0.000950 0.707408 -0.706805
vn 0.000951 -0.708727 0.705482
vn -0.000950 0.707407 0.706806
vn 0.000947 -0.705483 -0.708727
vn -0.000949 0.706804 -0.707409
vn 0.000952 -0.709328 0.704878
vn -0.000949 0.706805 0.707408
vn 0.000946 -0.704877 -0.709329
vn -0.000950 0.707408 -0.706805
vn 0.000951 -0.708727 0.705482
vn -0.000950 0.707407 0.706806
vn -0.303295 -0.900655 0.311180
vn -0.301072 0.904339 0.302535
vn 0.575856 -0.579447 -0.576742
vn 0.577365 0.577365 -0.577320
vn -0.304263 -0.902475 -0.304898
vn -0.301177 0.904416 -0.302198
vn 0.576533 -0.578950 0.576564
vn 0.577589 0.577261 0.577201
vn -0.000495 -0.703643 -0.710554
vn 0.000498 0.707265 -0.706949
vn -0.000500 -0.710238 0.703961
vn 0.000498 0.707265 0.706948
vn 0.302730 -0.900198 0.313047
vn 0.301484 0.904596 0.301354
vn -0.575858 -0.579426 -0.576761
vn -0.577290 0.577394 -0.577367
vn 0.303918 -0.902412 -0.305429
vn 0.301523 0.904478 -0.301667
vn -0.576630 -0.578884 0.576534
vn -0.577493 0.577327 0.577232
vn -0.303985 -0.902424 -0.305327
vn -0.301517 0.904506 -0.301589
vn 0.576557 -0.578912 0.576579
vn 0.577421 0.577338 0.577292
vn 0.000752 -0.705424 -0.708785
vn -0.000753 0.706867 -0.707347
vn 0.000756 -0.709264 0.704943
vn -0.000753 0.706866 0.707347
vn 0.000751 -0.704936 -0.709271
vn -0.000754 0.707346 -0.706867
vn 0.000755 -0.708791 0.705418
vn -0.000754 0.707347 0.706866
vn 0.000752 -0.705424 -0.708785
vn -0.000753 0.706867 -0.707347
vn 0.000756 -0.709264 0.704943
vn -0.000753 0.706866 0.707347
vn 0.000751 -0.704936 -0.709271
vn -0.000754 0.707346 -0.706867
vn 0.000755 -0.708791 0.705418
vn -0.000754 0.707347 0.706866
vn -0.000530 -0.699107 0.715017
vn 0.000452 0.707277 0.706936
vn -0.000207 -0.714624 -0.699509
vn 0.000782 0.707172 -0.707041
vn -0.302853 -0.900329 0.312550
vn -0.301521 0.904556 0.301435
vn 0.575777 -0.579377 -0.576892
vn 0.577197 0.577343 -0.577511
vn 0.000000 -1.000000 0.000000
vn 0.000000 -1.000000 0.000000
vn 0.000000 -1.000000 0.000000
vn 0.000000 -1.000000 0.000000
vn -0.000680 -1.000000 0.000000
vn -0.000680 -1.000000 0.000000
vn -0.000680 -1.000000 0.000000
vn -0.000680 -1.000000 0.000000
vn -1.000000 0.000000 -0.000430
vn -1.000000 0.000000 -0.000430
vn 0.304256 -0.900675 0.310180
vn 0.300710 0.904200 0.303309
vn -0.575697 -0.579804 -0.576542
vn -0.577498 0.577332 -0.577221
vn 0.305237 -0.902346 -0.304307
vn 0.300883 0.904403 -0.302530
vn -0.576369 -0.579201 0.576476
vn -0.577679 0.577178 0.577194
vn 0.000970 -0.703489 -0.710705
vn -0.000976 0.707417 -0.706796
vn 0.000978 -0.710086 0.704114
vn -0.000975 0.707417 0.706796
vn 0.001012 -0.698962 0.715158
vn -0.000903 0.707431 0.706782
vn 0.000555 -0.714440 -0.699696
vn -0.001376 0.707282 -0.706930
vn 0.302730 -0.900198 0.313047
vn 0.301484 0.904596 0.301354
vn -0.575858 -0.579426 -0.576761
vn -0.577290 0.577394 -0.577367
vn 0.303918 -0.902412 -0.305429
vn 0.301523 0.904478 -0.301667
vn -0.576630 -0.578884 0.576534
vn -0.577493 0.577327 0.577232
vn -0.303984 -0.902424 -0.305327
vn -0.301517 0.904506 -0.301589
vn 0.576557 -0.578912 0.576579
vn 0.577421 0.577338 0.577292
vn -0.302853 -0.900329 0.312550
vn -0.301521 0.904556 0.301435
vn 0.575777 -0.579377 -0.576892
vn 0.577197 0.577343 -0.577511
vn 0.000000 -1.000000 0.000000
vn 0.000000 -1.000000 0.000000
vn 0.000000 -1.000000 0.000000
vn 0.000000 -1.000000 0.000000
vn -1.000000 0.000000 0.000000
vn -1.000000 0.000000 0.000000
vn 0.705911 -0.708301 0.000007
vn -0.708298 -0.705914 0.000001
vn -0.708297 -0.705914 0.000000
vn 0.705916 -0.708296 0.000006
vn -0.708297 -0.705914 0.000000
vn 0.705916 -0.708296 0.000006
vn 0.705911 -0.708301 0.000007
vn -0.708298 -0.705914 0.000001
vn -1.000000 0.000000 0.000000
vn -1.000000 0.000000 0.000000
vn 1.000000 0.000000 0.000000
vn 1.000000 0.000000 0.000000
vn 1.000000 0.000000 0.000000
vn 1.000000 0.000000 0.000000
vn -1.000000 0.000000 0.000000
vn -1.000000 0.000000 0.000000
vn 1.000000 0.000000 0.000000
vn 1.000000 0.000000 0.000000
vn 0.705911 -0.708301 0.000007
vn -0.708298 -0.705914 0.000001
vn -0.708297 -0.705914 0.000000
vn 0.705915 -0.708296 0.000006
g fff0aa7b_00130_0038fbd2_e5
f 20/8/20 3/4/3 19/7/19
f 3/4/3 20/8/20 6/2/6
f 4/5/4 5/1/5 2/3/2
f 2/3/2 1/6/1 4/5/4
f 10/5/10 7/1/7 18/3/18
f 18/3/18 17/6/17 10/5/10
f 9/4/9 16/8/16 8/2/8
f 16/8/16 9/4/9 15/7/15
f 14/8/14 21/4/21 13/7/13
f 21/4/21 14/8/14 24/2/24
f 22/5/22 23/1/23 12/3/12
f 12/3/12 11/6/11 22/5/22
f 37/28/37 39/85/39 35/86/35
f 35/86/35 33/29/33 37/28/37
f 40/101/40 38/27/38 34/30/34
f 34/30/34 36/104/36 40/101/40
f 77/61/77 78/60/78 72/10/72
f 72/10/72 71/62/71 77/61/77
f 89/65/89 95/59/95 91/56/91
f 95/59/95 89/65/89 93/63/93
f 87/59/87 85/63/85 81/65/81
f 81/65/81 83/56/83 87/59/87
f 85/63/85 86/64/86 82/55/82
f 82/55/82 81/65/81 85/63/85
f 93/63/93 90/55/90 94/64/94
f 90/55/90 93/63/93 89/65/89
f 230/8/230 213/4/213 229/7/229
f 213/4/213 230/8/230 216/2/216
f 214/5/214 215/1/215 212/3/212
f 212/3/212 211/6/211 214/5/214
f 220/5/220 217/1/217 228/3/228
f 228/3/228 227/6/227 220/5/220
f 219/4/219 226/8/226 218/2/218
f 226/8/226 219/4/219 225/7/225
f 224/8/224 231/4/231 223/7/223
f 231/4/231 224/8/224 234/2/234
f 232/5/232 233/1/233 222/3/222
f 222/3/222 221/6/221 232/5/232
g fff0aa7b_00130_0038fbd2_e4
f 6/2/6 5/1/5 4/5/4
f 4/5/4 3/4/3 6/2/6
f 24/2/24 23/1/23 22/5/22
f 22/5/22 21/4/21 24/2/24
f 131/32/131 136/31/136 132/34/132
f 136/31/136 131/32/131 135/33/135
f 49/48/49 51/47/51 59/123/59
f 59/123/59 57/124/57 49/48/49
f 50/49/50 60/117/60 52/46/52
f 60/117/60 50/49/50 58/115/58
f 114/21/114 113/22/113 109/23/109
f 109/23/109 110/24/110 114/21/114
f 177/17/177 182/42/182 178/19/178
f 182/42/182 177/17/177 181/43/181
f 106/21/106 105/22/105 101/23/101
f 101/23/101 102/24/102 106/21/106
f 154/21/154 153/22/153 149/23/149
f 149/23/149 150/24/150 154/21/154
f 146/21/146 145/22/145 141/23/141
f 141/23/141 142/24/142 146/21/146
f 133/23/133 134/24/134 138/21/138
f 138/21/138 137/22/137 133/23/133
f 121/23/121 126/21/126 122/24/122
f 126/21/126 121/23/121 125/22/125
f 124/42/124 123/43/123 119/17/119
f 119/17/119 120/19/120 124/42/124
f 91/56/91 96/57/96 92/58/92
f 96/57/96 91/56/91 95/59/95
f 83/56/83 84/58/84 88/57/88
f 88/57/88 87/59/87 83/56/83
f 89/65/89 83/67/83 81/68/81
f 83/67/83 89/65/89 91/56/91
f 54/23/54 56/24/56 55/109/55
f 55/109/55 53/110/53 54/23/54
f 179/23/179 180/24/180 184/21/184
f 184/21/184 183/22/183 179/23/179
f 232/5/232 231/4/231 234/2/234
f 234/2/234 233/1/233 232/5/232
f 216/2/216 215/1/215 214/5/214
f 214/5/214 213/4/213 216/2/216
f 202/31/202 201/33/201 205/32/205
f 205/32/205 206/34/206 202/31/202
f 163/32/163 164/34/164 140/31/140
f 140/31/140 139/33/139 163/32/163
f 193/32/193 198/31/198 194/34/194
f 198/31/198 193/32/193 197/33/197
f 195/23/195 196/24/196 200/21/200
f 200/21/200 199/22/199 195/23/195
g fff0aa7b_00130_0038fbd2_e3
f 10/5/10 9/4/9 8/2/8
f 8/2/8 7/1/7 10/5/10
f 75/119/75 80/120/80 76/121/76
f 80/120/80 75/119/75 79/122/79
f 134/24/134 133/23/133 129/40/129
f 117/40/117 122/24/122 118/41/118
f 115/13/115 109/15/109 113/14/113
f 109/15/109 115/13/115 111/16/111
f 107/13/107 101/15/101 105/14/105
f 101/15/101 107/13/107 103/16/103
f 129/40/129 130/41/130 134/24/134
f 122/24/122 117/40/117 121/23/121
f 44/69/44 43/70/43 41/71/41
f 41/71/41 42/72/42 44/69/44
f 65/40/65 66/41/66 70/24/70
f 70/24/70 69/23/69 65/40/65
f 73/54/73 78/126/78 77/15/77
f 78/126/78 73/54/73 74/125/74
f 68/36/68 174/140/174 72/10/72
f 174/140/174 68/36/68 173/139/173
f 180/24/180 179/23/179 175/40/175
f 175/40/175 176/41/176 180/24/180
f 218/2/218 217/1/217 220/5/220
f 220/5/220 219/4/219 218/2/218
f 203/40/203 200/24/200 204/41/204
f 200/24/200 203/40/203 199/23/199
f 86/64/86 88/57/88 84/58/84
f 84/58/84 82/55/82 86/64/86
f 94/64/94 92/58/92 96/57/96
f 92/58/92 94/64/94 90/55/90
f 191/40/191 192/41/192 196/24/196
f 196/24/196 195/23/195 191/40/191
f 138/24/138 161/40/161 137/23/137
f 161/40/161 138/24/138 162/41/162
g fff0aa7b_00130_0038fbd2_e1
f 118/9/118 120/10/120 160/11/160
f 160/11/160 158/12/158 118/9/118
f 164/11/164 130/9/130 162/12/162
f 130/9/130 164/11/164 132/10/132
f 70/9/70 72/10/72 78/60/78
f 78/60/78 80/37/80 70/9/70
f 119/17/119 160/18/160 120/19/120
f 160/18/160 119/17/119 159/20/159
f 186/11/186 184/12/184 180/9/180
f 180/9/180 182/10/182 186/11/186
f 74/35/74 76/36/76 80/10/80
f 156/11/156 154/12/154 150/9/150
f 148/18/148 143/25/143 147/20/147
f 143/25/143 148/18/148 144/26/144
f 148/11/148 146/12/146 142/9/142
f 142/9/142 144/10/144 148/11/148
f 38/27/38 37/28/37 33/29/33
f 33/29/33 34/30/34 38/27/38
f 117/23/117 118/24/118 158/21/158
f 158/21/158 157/22/157 117/23/117
f 162/21/162 129/23/129 161/22/161
f 129/23/129 162/21/162 130/24/130
f 80/10/80 78/9/78 74/35/74
f 150/9/150 152/10/152 156/11/156
f 128/18/128 127/20/127 123/43/123
f 123/43/123 124/42/124 128/18/128
f 136/10/136 134/9/134 130/35/130
f 130/35/130 132/36/132 136/10/136
f 80/37/80 79/38/79 69/39/69
f 69/39/69 70/9/70 80/37/80
f 176/35/176 178/36/178 182/10/182
f 182/10/182 180/9/180 176/35/176
f 82/54/82 92/58/92 90/55/90
f 92/58/92 82/54/82 84/66/84
f 151/52/151 156/18/156 152/53/152
f 156/18/156 151/52/151 155/20/155
f 134/9/134 136/10/136 140/11/140
f 140/11/140 138/12/138 134/9/134
f 135/33/135 140/18/140 136/31/136
f 140/18/140 135/33/135 139/20/139
f 181/43/181 186/18/186 182/42/182
f 186/18/186 181/43/181 185/20/185
f 124/10/124 118/35/118 122/9/122
f 118/35/118 124/10/124 120/36/120
f 122/9/122 128/11/128 124/10/124
f 128/11/128 122/9/122 126/12/126
f 188/21/188 175/23/175 187/22/187
f 175/23/175 188/21/188 176/24/176
f 116/18/116 111/44/111 115/20/115
f 111/44/111 116/18/116 112/45/112
f 116/11/116 114/12/114 110/9/110
f 110/9/110 112/10/112 116/11/116
f 52/46/52 51/47/51 49/48/49
f 49/48/49 50/49/50 52/46/52
f 190/18/190 189/20/189 177/17/177
f 177/17/177 178/19/178 190/18/190
f 108/18/108 103/50/103 107/20/107
f 103/50/103 108/18/108 104/51/104
f 108/11/108 106/12/106 102/9/102
f 102/9/102 104/10/104 108/11/108
f 190/11/190 176/9/176 188/12/188
f 176/9/176 190/11/190 178/10/178
f 164/18/164 163/20/163 131/32/131
f 131/32/131 132/34/132 164/18/164
f 72/10/72 70/9/70 66/35/66
f 66/35/66 68/36/68 72/10/72
f 162/35/162 140/10/140 164/36/164
f 140/10/140 162/35/162 138/9/138
f 206/11/206 192/9/192 204/12/204
f 192/9/192 206/11/206 194/10/194
f 204/21/204 191/23/191 203/22/203
f 191/23/191 204/21/204 192/24/192
f 198/10/198 196/9/196 192/35/192
f 192/35/192 194/36/194 198/10/198
f 196/9/196 198/10/198 202/11/202
f 202/11/202 200/12/200 196/9/196
f 197/33/197 202/18/202 198/31/198
f 202/18/202 197/33/197 201/20/201
f 206/18/206 205/20/205 193/32/193
f 193/32/193 194/34/194 206/18/206
f 204/35/204 202/10/202 206/36/206
f 202/10/202 204/35/204 200/9/200
g fff0aa7b_00130_0038fbd2_e0
f 61/82/61 62/83/62 64/84/64
f 64/79/64 63/80/63 61/81/61
f 100/73/100 99/74/99 97/75/97
f 97/76/97 98/77/98 100/78/100
f 165/130/165 166/131/166 168/132/168
f 168/127/168 167/128/167 165/129/165
f 169/133/169 170/134/170 172/135/172
f 172/136/172 171/137/171 169/138/169
f 207/130/207 208/131/208 210/132/210
f 210/127/210 209/128/209 207/129/207
g fff0aa7b_00130_0038fbd2_e2
f 71/16/71 65/54/65 69/15/69
f 65/54/65 71/16/71 67/55/67
f 25/87/25 27/88/27 28/89/28
f 28/89/28 26/90/26 25/87/25
f 26/91/26 28/92/28 32/93/32
f 32/93/32 30/94/30 26/91/26
f 27/91/27 25/92/25 29/93/29
f 29/93/29 31/94/31 27/91/27
f 25/95/25 26/96/26 34/97/34
f 34/97/34 33/98/33 25/95/25
f 29/99/29 25/95/25 33/98/33
f 33/98/33 35/100/35 29/99/29
f 26/96/26 30/68/30 36/65/36
f 36/65/36 34/97/34 26/96/26
f 28/95/28 27/96/27 37/28/37
f 37/28/37 38/27/38 28/95/28
f 27/96/27 31/68/31 39/85/39
f 39/85/39 37/28/37 27/96/27
f 32/99/32 28/95/28 38/27/38
f 38/27/38 40/101/40 32/99/32
f 29/93/29 47/40/47 31/94/31
f 47/40/47 29/93/29 45/41/45
f 29/99/29 35/100/35 49/102/49
f 49/102/49 45/35/45 29/99/29
f 30/94/30 32/93/32 48/41/48
f 48/41/48 46/40/46 30/94/30
f 30/68/30 50/55/50 36/65/36
f 50/55/50 30/68/30 46/54/46
f 31/68/31 51/103/51 39/85/39
f 51/103/51 31/68/31 47/54/47
f 32/99/32 40/101/40 52/36/52
f 52/36/52 48/35/48 32/99/32
f 35/86/35 36/104/36 50/105/50
f 50/105/50 49/106/49 35/86/35
f 39/85/39 52/36/52 40/101/40
f 52/36/52 39/85/39 51/103/51
f 39/85/39 40/101/40 36/104/36
f 36/104/36 35/86/35 39/85/39
f 45/41/45 55/23/55 47/40/47
f 55/23/55 45/41/45 53/24/53
f 45/35/45 49/102/49 57/107/57
f 57/107/57 53/9/53 45/35/45
f 46/40/46 48/41/48 56/24/56
f 56/24/56 54/23/54 46/40/46
f 46/54/46 58/16/58 50/55/50
f 58/16/58 46/54/46 54/15/54
f 47/54/47 59/108/59 51/103/51
f 59/108/59 47/54/47 55/15/55
f 48/35/48 52/36/52 60/10/60
f 60/10/60 56/9/56 48/35/48
f 71/62/71 69/39/69 79/38/79
f 79/38/79 77/61/77 71/62/71
f 79/16/79 73/54/73 77/15/77
f 73/54/73 79/16/79 75/55/75
f 92/58/92 84/66/84 83/67/83
f 83/67/83 91/56/91 92/58/92
f 54/15/54 57/111/57 58/16/58
f 57/111/57 54/15/54 53/112/53
f 56/9/56 60/10/60 59/113/59
f 59/113/59 55/114/55 56/9/56
f 58/115/58 59/116/59 60/117/60
f 59/116/59 58/115/58 57/118/57
f 121/15/121 123/16/123 127/13/127
f 127/13/127 125/14/125 121/15/121
f 135/16/135 129/54/129 133/15/133
f 129/54/129 135/16/135 131/55/131
f 133/15/133 139/13/139 135/16/135
f 139/13/139 133/15/133 137/14/137
f 117/54/117 119/55/119 123/16/123
f 123/16/123 121/15/121 117/54/117
f 149/15/149 155/13/155 151/16/151
f 155/13/155 149/15/149 153/14/153
f 147/13/147 141/15/141 145/14/145
f 141/15/141 147/13/147 143/16/143
f 117/15/117 159/13/159 119/16/119
f 159/13/159 117/15/117 157/14/157
f 163/13/163 161/14/161 129/15/129
f 129/15/129 131/16/131 163/13/163
f 189/13/189 187/14/187 175/15/175
f 175/15/175 177/16/177 189/13/189
f 181/16/181 175/54/175 179/15/179
f 175/54/175 181/16/181 177/55/177
f 185/13/185 179/15/179 183/14/183
f 179/15/179 185/13/185 181/16/181
f 139/16/139 137/15/137 161/54/161
f 161/54/161 163/55/163 139/16/139
f 197/16/197 191/54/191 195/15/195
f 191/54/191 197/16/197 193/55/193
f 195/15/195 201/13/201 197/16/197
f 201/13/201 195/15/195 199/14/199
f 205/13/205 203/14/203 191/15/191
f 191/15/191 193/16/193 205/13/205
f 201/16/201 199/15/199 203/54/203
f 203/54/203 205/55/205 201/16/201
