# fff0af20_00392_009cfb25
o fff0af20_00392_009cfb25
v -5.930059 55.708954 1.796000
v 4.228339 60.124886 2.243576
v 4.199032 58.828712 2.243362
v 4.621405 58.829453 1.141149
v 4.664616 60.735191 1.141149
v 4.242150 60.734543 2.243609
v -5.930059 55.000191 2.640532
v -5.930059 54.902214 2.558172
v 3.221124 55.001320 2.641342
v 3.221124 55.709976 1.796857
v 3.221124 54.903496 2.558836
v 4.688324 62.376801 1.176413
v 4.652264 60.779335 1.175998
v 5.180728 60.780586 0.576018
v 5.231675 63.027542 0.576018
v 4.702970 63.023964 1.176489
v -5.930059 57.403282 1.848171
v -5.930059 57.404198 -0.203047
v 3.687158 57.428276 -0.203047
v 3.687158 57.428276 1.847976
v -5.930059 60.761314 1.176413
v -5.930059 60.762672 0.576018
v 12.259363 60.786751 0.576018
v 12.259363 60.786751 1.175827
v 12.259363 63.033630 0.576018
v 12.259363 63.033630 1.176414
v -2.120795 63.008636 1.176609
v -5.930059 63.009552 0.576018
v 5.410058 57.592552 0.400000
v -5.930059 57.579613 0.400000
v -5.930059 56.413330 2.486252
v -5.930059 56.413620 1.834359
v -5.930059 55.699112 2.486189
v -5.930059 55.699539 1.834359
v -5.930059 60.489326 1.502532
v 5.410058 60.502762 1.502427
v 3.687158 55.644539 -0.203047
v -5.930059 55.619095 1.847975
v 3.687158 55.644539 1.847389
v -5.930059 55.620461 -0.203047
v 2.316491 55.707191 1.834359
v 2.316491 56.421265 1.834359
v 2.316491 55.707191 2.486003
v 2.316491 56.421265 2.486190
v -5.930060 45.588818 3.242403
v 0.600488 45.600502 3.242311
v 5.410058 57.592552 1.502112
v -5.930059 57.578880 1.502426
v -5.930060 44.498970 2.867694
v -5.930060 44.499886 0.816476
v 1.666162 44.523960 0.816476
v 1.666162 44.523960 2.867498
v 1.666162 42.277084 0.816476
v -5.930060 42.251644 2.867497
v 1.666162 42.277084 2.866912
v -5.930060 42.253006 0.816476
v -5.930060 44.597466 3.242311
v 0.600488 44.609360 2.283083
v -5.930060 44.598099 2.283083
v 0.600488 44.609360 3.242038
v -5.930060 47.295395 1.910236
v 1.119751 47.307083 1.910145
v -5.930060 47.295395 3.197157
v 1.119751 47.307083 3.197066
v -5.930060 38.740936 2.696618
v 1.645776 38.754608 1.594192
v -5.930060 38.741661 1.594192
v 1.645776 38.754608 2.696303
v 1.645776 40.109550 1.594192
v 1.645776 40.109550 2.696619
v -5.930060 40.096123 2.696724
v -5.930060 40.096619 1.594192
v 1.119751 45.735344 2.237837
v -5.930060 45.723450 3.197065
v 1.119751 45.735344 3.196792
v -5.930060 45.724091 2.237837
v -5.930059 53.966232 1.881022
v -5.930059 53.967148 -0.170196
v 2.638543 53.991219 -0.170196
v 2.638543 53.991219 1.880827
v 1.633050 51.387268 -0.170196
v -5.930059 51.363182 -0.170196
v -5.930060 45.588818 2.264612
v 0.600488 45.600502 2.264521
v -5.930060 40.240967 3.113697
v 1.310998 40.256630 1.645149
v -5.930060 40.241806 1.645149
v 1.310998 40.256630 3.113278
v 1.310998 42.110672 1.645149
v 1.310998 42.110672 3.113698
v -5.930060 42.095284 3.113838
v -5.930060 42.095848 1.645149
v -5.930060 51.011116 1.573161
v 1.771264 51.022804 1.573070
v -5.930060 51.011116 2.550952
v 1.771264 51.022804 2.550860
v -5.930060 49.960083 2.550860
v 1.771264 49.971977 1.591632
v -5.930060 49.960716 1.591632
v 1.771264 49.971977 2.550587
v -5.930059 51.361824 1.880826
v 1.633050 51.387268 1.880240
v 1.310998 51.143173 1.797051
v -5.930060 51.133041 1.797051
v -5.930059 52.134804 2.564194
v -5.930059 52.135185 1.797051
v 1.310998 52.145317 1.797051
v 1.310998 52.145317 2.564121
v -5.930060 50.031364 2.257567
v 0.961999 50.043045 2.257476
v -5.930060 50.031364 3.235358
v 0.961999 50.043045 3.235267
v -5.930060 48.980324 3.235267
v 0.961999 48.992222 2.276038
v -5.930060 48.980965 2.276038
v 0.961999 48.992222 3.234993
v -5.930059 55.107040 2.418208
v -5.930059 53.864029 2.418102
v -5.930059 53.864761 1.315676
v 3.816491 53.877701 2.417788
v 3.816491 55.120476 2.418103
v 3.816491 53.877701 1.315676
v -5.930060 51.132462 2.564121
v 1.310998 51.143173 2.563901
v -5.930060 48.884659 2.257567
v 1.586511 48.896343 2.257476
v -5.930060 48.884659 3.235358
v 1.586511 48.896343 3.235267
v -5.930060 47.435921 3.235267
v 1.586511 47.447815 2.276038
v -5.930060 47.436558 2.276038
v 1.586511 47.447815 3.234993
v -5.930059 58.817238 2.243575
v -5.930059 58.818138 1.141149
v 9.005579 58.834160 1.141149
v 9.005579 58.834160 2.243260
v 9.005579 60.739845 1.141149
v 9.005579 60.739845 2.243576
v -5.930059 60.723221 2.243681
v -5.930059 60.723831 1.141149
vt -15.448176 6.679388
vt -15.469271 6.016892
vt -17.673504 3.214062
vt -17.661980 3.678242
vt -17.249952 4.160212
vt -17.319630 5.523655
vt -17.722925 5.200887
vt -17.330290 5.315472
vt -3.796111 2.129543
vt -3.801955 2.644318
vt -6.553168 2.644309
vt -6.521035 2.129409
vt -3.671397 1.964862
vt -3.884411 2.110015
vt -3.747397 2.110318
vt -3.825937 1.964385
vt -17.304169 6.186461
vt -17.279842 6.856695
vt -17.696806 6.071876
vt -17.611397 5.406688
vt -17.635094 4.727067
vt -17.217499 5.520436
vt -6.148768 2.644325
vt -6.123487 2.129431
vt -5.200198 2.129475
vt -5.224231 2.644304
vt -4.378686 1.962678
vt -4.952242 2.255208
vt -4.378041 2.257423
vt -4.965312 1.961195
vt -17.106470 4.623100
vt -17.112669 4.435927
vt -5.906046 2.644323
vt -5.886007 2.129440
vt -3.796111 2.129543
vt -3.801955 2.644318
vt -17.326859 5.382469
vt -17.593929 5.304126
vt -17.665655 3.530201
vt -17.530191 3.832403
vt -3.791491 2.110220
vt -3.716760 1.964722
vt -17.330345 5.315463
vt -17.319242 5.539495
vt -17.722980 5.200878
vt -17.674797 3.177596
vt -17.661995 3.678204
vt -17.251245 4.123703
vt -4.588095 2.129504
vt -4.679400 2.644315
vt -17.666435 3.498742
vt -17.542879 3.817559
vt -17.327183 5.376152
vt -17.606350 5.294185
vt -3.787333 2.110229
vt -3.710973 1.964740
vt -4.484639 2.129509
vt -4.865859 2.644315
vn -0.000151 0.765995 0.642847
vn 0.000014 -0.000110 1.000000
vn 0.000791 -0.707261 0.706952
vn 0.001105 -0.999999 -0.000228
vn -0.001094 0.999999 0.000155
vn -0.000765 0.707021 0.707192
vn -0.000099 0.086621 0.996241
vn 0.000012 -0.643477 0.765465
vn 0.577190 0.070179 0.813589
vn 0.073249 0.763965 0.641087
vn 0.680202 -0.472596 0.560337
vn 0.000022 -0.000188 1.000000
vn 0.001042 -0.707417 0.706795
vn 0.001144 -0.999999 -0.001042
vn -0.001358 0.999988 0.004622
vn -0.001072 0.705468 0.708741
vn -0.001821 0.706318 0.707892
vn -0.002586 0.999997 0.000387
vn 0.706221 0.707991 0.000000
vn 0.576685 0.578059 0.577306
vn 0.001622 -0.947930 0.318475
vn 0.001700 -0.999996 -0.002204
vn 0.707414 -0.706799 0.000000
vn 0.577600 -0.577144 0.577306
vn 0.706800 0.707413 0.000000
vn 0.577106 0.577560 0.577384
vn -0.001666 0.746784 0.665064
vn -0.002017 0.999929 0.011717
vn 0.610399 -0.792094 0.000000
vn 0.001202 -0.999999 -0.000623
vn -0.000675 0.706700 0.707513
vn -0.000960 1.000000 0.000422
vn 0.000699 -0.707588 0.706625
vn 0.000977 -0.999999 -0.000623
vn 0.000009 -0.000036 1.000000
vn 0.224755 -0.000094 0.974415
vn 0.707991 -0.706221 0.000000
vn 0.001891 -0.707969 0.706241
vn 0.578047 -0.576647 0.577356
vn 0.002627 -0.999996 -0.000577
vn 0.707435 -0.706779 0.000000
vn 0.706779 0.707435 -0.000000
vn 0.577614 -0.577127 0.577309
vn 0.577098 0.577575 0.577377
vn -0.001254 0.706667 0.707545
vn 0.576876 0.577844 0.577331
vn 0.577664 -0.577020 0.577367
vn 0.000862 -0.707623 0.706590
vn -0.002305 0.706168 0.708040
vn -0.003270 0.999995 0.000371
vn 0.705985 0.708226 0.000000
vn 0.576513 0.578289 0.577247
vn 0.708227 -0.705985 0.000000
vn 0.002396 -0.708116 0.706092
vn 0.578226 -0.576418 0.577406
vn 0.003319 -0.999994 -0.000553
vn 0.001301 -0.707778 0.706433
vn 0.711883 -0.702298 0.000000
vn 0.001812 -0.999998 -0.000599
vn 0.577831 -0.576880 0.577339
vn -0.001658 0.999999 0.000000
vn 0.655288 0.755379 0.000000
vn -0.001163 0.706709 0.707503
vn 0.576915 0.577829 0.577307
vn 0.001289 -0.707769 0.706443
vn 0.707711 -0.706502 0.000000
vn 0.001796 -0.999998 -0.000597
vn 0.577825 -0.576873 0.577352
vn 0.706503 0.707710 0.000000
vn 0.576897 0.577831 0.577322
vn -0.001242 0.706517 0.707695
vn -0.001766 0.999998 0.000408
vn 0.749582 -0.661911 0.000000
vn 0.001206 -0.707739 0.706473
vn 0.577791 -0.576894 0.577366
vn 0.001679 -0.999998 -0.000611
vn -0.002043 0.706258 0.707952
vn -0.002900 0.999996 0.000380
vn 0.823892 0.566747 0.000000
vn 0.682411 0.469397 0.560341
vn 0.566901 -0.823786 0.000000
vn 0.003334 -0.999994 -0.000551
vn -0.001789 0.999998 0.000000
vn 0.702213 0.711967 0.000000
vn 0.001549 -0.707816 0.706395
vn 0.707830 -0.706383 0.000000
vn 0.002148 -0.999998 -0.000499
vn 0.577920 -0.576765 0.577366
vn 0.706383 0.707830 0.000000
vn 0.576810 0.577942 0.577299
vn -0.001488 0.706460 0.707752
vn -0.002115 0.999998 0.000335
vn -0.001518 0.999999 0.000000
vn 0.702554 0.711630 0.000000
vn -0.001064 0.706731 0.707482
vn 0.576947 0.577762 0.577342
vn 0.001103 -0.707715 0.706497
vn 0.711557 -0.702628 0.000000
vn 0.001538 -0.999999 -0.000608
vn 0.577759 -0.576958 0.577333
vn 0.002406 -0.708115 0.706093
vn 0.453789 -0.659441 0.599343
vn 0.707601 -0.706612 0.000000
vn 0.001474 -0.999999 -0.000705
vn -0.001019 0.706575 0.707637
vn -0.001448 0.999999 0.000464
vn 0.706612 0.707601 0.000000
vn 0.576977 0.577736 0.577337
vn -0.001695 0.999999 0.000000
vn 0.702491 0.711693 0.000000
vn -0.001188 0.706691 0.707522
vn 0.576901 0.577818 0.577331
vn 0.001233 -0.707758 0.706454
vn 0.711617 -0.702568 0.000000
vn 0.001718 -0.999998 -0.000609
vn 0.577806 -0.576904 0.577340
vn 0.000011 -0.000085 1.000000
vn 0.001002 -0.707684 0.706528
vn 0.001397 -0.999999 -0.000617
vn 0.577722 -0.576999 0.577329
vn 0.419569 -0.000218 0.907723
vn 0.474727 -0.880133 0.000000
vn 0.001055 -0.707730 0.706482
vn 0.577739 -0.576968 0.577344
vn -0.001554 0.999999 0.000000
vn 0.703651 0.710546 0.000000
vn -0.001090 0.706731 0.707482
vn 0.576941 0.577793 0.577317
vn 0.001131 -0.707716 0.706496
vn 0.710496 -0.703701 0.000000
vn 0.001576 -0.999999 -0.000610
vn 0.577765 -0.576929 0.577357
vn 0.000807 -0.707668 0.706545
vn 0.001129 -0.999999 -0.000778
vn 0.707486 -0.706727 0.000000
vn 0.577650 -0.577055 0.577347
vn 0.706728 0.707486 0.000000
vn 0.577063 0.577647 0.577340
vn -0.000782 0.706639 0.707574
vn -0.001110 0.999999 0.000528
g fff0af20_00392_009cfb25_e12
f 76/16/76 75/15/75 74/14/74
f 75/15/75 76/16/76 73/13/73
f 72/12/72 71/11/71 70/10/70
f 70/10/70 69/9/69 72/12/72
f 68/15/68 67/16/67 66/13/66
f 67/16/67 68/15/68 65/14/65
f 108/10/108 107/9/107 106/12/106
f 106/12/106 105/11/105 108/10/108
f 28/12/28 27/11/27 16/58/16
f 26/10/26 25/9/25 15/57/15
f 44/8/44 43/8/43 42/8/42
f 41/8/41 42/8/42 43/8/43
f 60/15/60 59/16/59 58/13/58
f 59/16/59 60/15/60 57/14/57
f 24/15/24 14/56/14 23/13/23
f 22/16/22 13/55/13 21/14/21
f 40/16/40 39/15/39 38/14/38
f 39/15/39 40/16/40 37/13/37
f 56/16/56 55/15/55 54/14/54
f 55/15/55 56/16/56 53/13/53
f 52/10/52 51/9/51 50/12/50
f 50/12/50 49/11/49 52/10/52
f 92/12/92 91/11/91 90/10/90
f 90/10/90 89/9/89 92/12/92
f 88/15/88 87/16/87 86/13/86
f 87/16/87 88/15/88 85/14/85
f 20/10/20 19/9/19 18/12/18
f 18/12/18 17/11/17 20/10/20
f 36/7/36 48/6/48 47/8/47
f 48/5/48 36/4/36 35/3/35
f 12/54/12 21/6/21 13/53/13
f 12/52/12 26/4/26 16/51/16
f 64/7/64 74/6/74 75/8/75
f 74/5/74 64/4/64 63/3/63
f 70/7/70 65/6/65 68/8/68
f 65/5/65 70/4/70 71/3/71
f 124/15/124 104/16/104 103/13/103
f 104/16/104 124/15/124 123/14/123
f 123/5/123 108/4/108 105/3/105
f 108/7/108 123/6/123 124/8/124
f 34/16/34 43/15/43 33/14/33
f 43/15/43 34/16/34 41/13/41
f 54/5/54 52/4/52 49/3/49
f 52/7/52 54/6/54 55/8/55
f 57/5/57 46/4/46 45/3/45
f 46/7/46 57/6/57 60/8/60
f 63/3/63 64/4/64 62/2/62
f 62/2/62 61/1/61 63/3/63
f 45/3/45 46/4/46 84/32/84
f 84/32/84 83/31/83 45/3/45
f 90/7/90 85/6/85 88/8/88
f 85/5/85 90/4/90 91/3/91
f 44/10/44 42/9/42 32/12/32
f 32/12/32 31/11/31 44/10/44
f 38/5/38 20/4/20 17/3/17
f 20/7/20 38/6/38 39/8/39
f 11/8/11 10/8/10 9/8/9
f 122/8/122 121/8/121 120/8/120
f 82/30/82 102/29/102 101/28/101
f 102/29/102 82/30/82 81/27/81
f 80/26/80 79/25/79 78/24/78
f 78/24/78 77/23/77 80/26/80
f 101/22/101 80/21/80 77/20/77
f 80/19/80 101/18/101 102/17/102
f 100/15/100 99/16/99 98/13/98
f 99/16/99 100/15/100 97/14/97
f 97/5/97 96/4/96 95/3/95
f 96/7/96 97/6/97 100/8/100
f 95/3/95 96/4/96 94/32/94
f 94/32/94 93/31/93 95/3/95
f 8/48/8 9/47/9 7/46/7
f 9/45/9 8/44/8 11/43/11
f 120/15/120 119/16/119 122/13/122
f 119/16/119 120/15/120 118/14/118
f 118/5/118 121/4/121 117/3/117
f 121/7/121 118/6/118 120/8/120
f 116/15/116 115/16/115 114/13/114
f 115/16/115 116/15/116 113/14/113
f 113/5/113 112/4/112 111/3/111
f 112/7/112 113/6/113 116/8/116
f 111/3/111 112/4/112 110/32/110
f 110/32/110 109/31/109 111/3/111
f 33/5/33 44/4/44 31/3/31
f 44/7/44 33/6/33 43/8/43
f 140/12/140 139/11/139 6/50/6
f 138/10/138 137/9/137 5/49/5
f 136/15/136 4/42/4 135/13/135
f 134/16/134 3/41/3 133/14/133
f 2/40/2 138/4/138 6/39/6
f 2/38/2 133/6/133 3/37/3
f 132/15/132 131/16/131 130/13/130
f 131/16/131 132/15/132 129/14/129
f 129/5/129 128/4/128 127/3/127
f 128/7/128 129/6/129 132/8/132
f 127/3/127 128/4/128 126/32/126
f 126/32/126 125/31/125 127/3/127
f 80/8/80 102/8/102 79/8/79
f 81/8/81 79/8/79 102/8/102
f 9/36/9 10/35/10 1/34/1
f 1/34/1 7/33/7 9/36/9
f 47/15/47 30/16/30 29/13/29
f 30/16/30 47/15/47 48/14/48
f 136/15/136 3/41/3 4/42/4
f 134/16/134 4/42/4 3/41/3
f 2/38/2 3/37/3 136/8/136
f 138/7/138 2/38/2 136/8/136
f 133/5/133 2/40/2 6/39/6
f 133/5/133 6/39/6 139/3/139
f 140/12/140 6/50/6 5/49/5
f 138/10/138 5/49/5 6/50/6
f 26/10/26 15/57/15 16/58/16
f 28/12/28 16/58/16 15/57/15
f 12/52/12 16/51/16 27/3/27
f 21/5/21 12/52/12 27/3/27
f 26/7/26 12/54/12 13/53/13
f 26/7/26 13/53/13 24/8/24
f 22/16/22 14/56/14 13/55/13
f 24/15/24 13/55/13 14/56/14
f 53/8/53 51/8/51 55/8/55
f 52/8/52 55/8/55 51/8/51
f 86/8/86 89/8/89 88/8/88
f 90/8/90 88/8/88 89/8/89
f 66/8/66 69/8/69 68/8/68
f 70/8/70 68/8/68 69/8/69
f 58/8/58 84/8/84 60/8/60
f 46/8/46 60/8/60 84/8/84
f 73/8/73 64/8/64 75/8/75
f 64/8/64 73/8/73 62/8/62
f 130/8/130 128/8/128 132/8/132
f 128/8/128 130/8/130 126/8/126
f 114/8/114 112/8/112 116/8/116
f 112/8/112 114/8/114 110/8/110
f 98/8/98 96/8/96 100/8/100
f 96/8/96 98/8/98 94/8/94
f 103/8/103 107/8/107 124/8/124
f 108/8/108 124/8/124 107/8/107
f 37/8/37 20/8/20 39/8/39
f 20/8/20 37/8/37 19/8/19
f 47/8/47 29/8/29 36/8/36
f 135/8/135 137/8/137 136/8/136
f 138/8/138 136/8/136 137/8/137
f 23/8/23 25/8/25 24/8/24
f 26/8/26 24/8/24 25/8/25
