# fff0af20_00008_000a28fe
o fff0af20_00008_000a28fe
v 0.000000 -0.081665 1.263622
v 0.000000 0.000000 1.263622
v 0.000000 -0.081665 1.377126
v 0.000000 0.000000 1.377126
v 4.186952 -0.028044 1.319733
v 4.186950 -0.034059 0.006939
v 4.122392 -0.036412 1.319743
v 4.122390 -0.042427 0.006949
v 4.186952 -0.036412 1.319743
v 4.186950 -0.042427 0.006949
v 4.122392 -0.028044 1.319733
v 4.122390 -0.034059 0.006939
v 6.167905 -0.028044 1.319733
v 6.167906 -0.031934 0.006939
v 6.102815 -0.036412 1.319743
v 6.102816 -0.040303 0.006949
v 6.167905 -0.036412 1.319743
v 6.167906 -0.040303 0.006949
v 6.102815 -0.028044 1.319733
v 6.102816 -0.031934 0.006939
v 2.133195 -0.028044 1.319733
v 2.133195 -0.028044 0.006939
v 2.057738 -0.036412 1.319743
v 2.057738 -0.036412 0.006949
v 2.133195 -0.036412 1.319743
v 2.133195 -0.036412 0.006949
v 2.057738 -0.028044 1.319733
v 2.057738 -0.028044 0.006939
v 0.077843 -0.032996 1.319733
v 0.077843 -0.032996 0.006939
v 0.024530 -0.041365 1.319743
v 0.024530 -0.041365 0.006949
v 0.077843 -0.041365 1.319743
v 0.077843 -0.041365 0.006949
v 0.024530 -0.032996 1.319733
v 0.024530 -0.032996 0.006939
v 24.700291 -0.087712 1.263622
v 24.700291 -0.006048 1.263622
v 24.700291 -0.087712 1.377126
v 24.700291 -0.005804 1.377126
v 12.116183 -0.030632 1.319733
v 12.116183 -0.030632 0.006939
v 12.051093 -0.039001 1.319743
v 12.051093 -0.039001 0.006949
v 12.116183 -0.039001 1.319743
v 12.116183 -0.039001 0.006949
v 12.051093 -0.030632 1.319733
v 12.051093 -0.030632 0.006939
v 8.163341 -0.028307 1.319733
v 8.167944 -0.031049 0.006939
v 8.098250 -0.036676 1.319743
v 8.102854 -0.039417 0.006949
v 8.163341 -0.036676 1.319743
v 8.167944 -0.039417 0.006949
v 8.098250 -0.028307 1.319733
v 8.102854 -0.031049 0.006939
v 10.167713 -0.031221 1.319733
v 10.167713 -0.031221 0.006939
v 10.102623 -0.039590 1.319743
v 10.102623 -0.039590 0.006949
v 10.167713 -0.039590 1.319743
v 10.167713 -0.039590 0.006949
v 10.102623 -0.031221 1.319733
v 10.102623 -0.031221 0.006939
v 24.667109 -0.033057 1.319805
v 24.668268 -0.038070 0.007026
v 0.058659 -0.036200 1.319733
v 0.058659 -0.036200 0.006939
v 14.057823 -0.027466 1.319733
v 14.057822 -0.031684 0.006939
v 13.992733 -0.035835 1.319743
v 13.992732 -0.040052 0.006949
v 14.057823 -0.035835 1.319743
v 14.057822 -0.040052 0.006949
v 13.992733 -0.027466 1.319733
v 13.992732 -0.031684 0.006939
v 16.061066 -0.028944 1.319733
v 16.061064 -0.035901 0.006939
v 15.995976 -0.037313 1.319743
v 15.995975 -0.044269 0.006949
v 16.061066 -0.037313 1.319743
v 16.061064 -0.044269 0.006949
v 15.995976 -0.028944 1.319733
v 15.995975 -0.035901 0.006939
v 18.156797 -0.028847 1.319733
v 18.156797 -0.033815 0.006939
v 18.091707 -0.037216 1.319743
v 18.091707 -0.042183 0.006949
v 18.156797 -0.037216 1.319743
v 18.156797 -0.042183 0.006949
v 18.091707 -0.028847 1.319733
v 18.091707 -0.033815 0.006939
v 20.324467 -0.032974 1.319733
v 20.324467 -0.032974 0.006939
v 20.259377 -0.041343 1.319743
v 20.259377 -0.041343 0.006949
v 20.324467 -0.041343 1.319743
v 20.324467 -0.041343 0.006949
v 20.259377 -0.032974 1.319733
v 20.259377 -0.032974 0.006939
v 22.505066 -0.028313 1.319733
v 22.505064 -0.034312 0.006939
v 22.439976 -0.036682 1.319743
v 22.439974 -0.042681 0.006949
v 22.505066 -0.036682 1.319743
v 22.505064 -0.042681 0.006949
v 22.439976 -0.028313 1.319733
v 22.439974 -0.034312 0.006939
v 24.685453 -0.030587 1.319733
v 24.685453 -0.030587 0.006939
v 24.620363 -0.038955 1.319743
v 24.620363 -0.038955 0.006949
v 24.685453 -0.038955 1.319743
v 24.685453 -0.038955 0.006949
v 24.620363 -0.030587 1.319733
v 24.620363 -0.030587 0.006939
vt nan nan
vt nan nan
vt nan nan
vt nan nan
vt 1.344912 -180.610504
vt 1.328459 -7744.209961
vt 1.344973 416.791901
vt 1.355150 5445.650391
vn -0.000245 -1.000000 0.000000
vn 0.000235 1.000000 -0.000006
vn -0.000173 -0.707052 0.707162
vn 0.000166 0.707160 0.707054
vn 0.000000 0.999990 -0.004582
vn 0.000000 0.999990 -0.004582
vn 0.000000 -0.999990 0.004582
vn 0.000000 -0.999990 0.004582
vn 0.000000 -0.999990 0.004582
vn 0.000000 -0.999990 0.004582
vn 0.000000 0.999990 -0.004582
vn 0.000000 0.999990 -0.004582
vn 0.000000 0.999996 -0.002963
vn 0.000000 0.999996 -0.002963
vn 0.000000 -0.999996 0.002963
vn 0.000000 -0.999996 0.002963
vn 0.000000 -0.999996 0.002963
vn 0.000000 -0.999996 0.002963
vn 0.000000 0.999996 -0.002963
vn 0.000000 0.999996 -0.002963
vn 0.000000 1.000000 0.000000
vn 0.000000 1.000000 0.000000
vn 0.000000 -1.000000 0.000000
vn 0.000000 -1.000000 0.000000
vn 0.000000 -1.000000 0.000000
vn 0.000000 -1.000000 0.000000
vn 0.000000 1.000000 0.000000
vn 0.000000 1.000000 0.000000
vn 0.000000 1.000000 0.000000
vn 0.000000 1.000000 0.000000
vn 0.000000 -1.000000 0.000000
vn 0.000000 -1.000000 0.000000
vn 0.000000 -1.000000 0.000000
vn 0.000000 -1.000000 0.000000
vn 0.000000 1.000000 0.000000
vn 0.000000 1.000000 0.000000
vn -0.000245 -1.000000 0.000000
vn 0.000245 0.999998 -0.002151
vn -0.000173 -0.707162 0.707052
vn 0.000173 0.707812 0.706401
vn 0.000000 1.000000 0.000000
vn 0.000000 1.000000 0.000000
vn 0.000000 -1.000000 0.000000
vn 0.000000 -1.000000 0.000000
vn 0.000000 -1.000000 0.000000
vn 0.000000 -1.000000 0.000000
vn 0.000000 1.000000 0.000000
vn 0.000000 1.000000 0.000000
vn 0.000000 0.999998 -0.002089
vn 0.000000 0.999998 -0.002089
vn 0.000000 -0.999998 0.002089
vn 0.000000 -0.999998 0.002089
vn 0.000000 -0.999998 0.002089
vn 0.000000 -0.999998 0.002089
vn 0.000000 0.999998 -0.002089
vn 0.000000 0.999998 -0.002089
vn 0.000000 1.000000 0.000000
vn 0.000000 1.000000 0.000000
vn 0.000000 -1.000000 0.000000
vn 0.000000 -1.000000 0.000000
vn 0.000000 -1.000000 0.000000
vn 0.000000 -1.000000 0.000000
vn 0.000000 1.000000 0.000000
vn 0.000000 1.000000 0.000000
vn -0.000128 0.999993 -0.003819
vn -0.000121 0.999993 -0.003689
vn 0.000069 1.000000 -0.000130
vn 0.000076 1.000000 0.000000
vn 0.000000 0.999995 -0.003213
vn 0.000000 0.999995 -0.003213
vn 0.000000 -0.999995 0.003213
vn 0.000000 -0.999995 0.003213
vn 0.000000 -0.999995 0.003213
vn 0.000000 -0.999995 0.003213
vn 0.000000 0.999995 -0.003213
vn 0.000000 0.999995 -0.003213
vn 0.000000 0.999986 -0.005299
vn 0.000000 0.999986 -0.005299
vn 0.000000 -0.999986 0.005299
vn 0.000000 -0.999986 0.005299
vn 0.000000 -0.999986 0.005299
vn 0.000000 -0.999986 0.005299
vn 0.000000 0.999986 -0.005299
vn 0.000000 0.999986 -0.005299
vn 0.000000 0.999993 -0.003784
vn 0.000000 0.999993 -0.003784
vn 0.000000 -0.999993 0.003784
vn 0.000000 -0.999993 0.003784
vn 0.000000 -0.999993 0.003784
vn 0.000000 -0.999993 0.003784
vn 0.000000 0.999993 -0.003784
vn 0.000000 0.999993 -0.003784
vn 0.000000 1.000000 0.000000
vn 0.000000 1.000000 0.000000
vn 0.000000 -1.000000 0.000000
vn 0.000000 -1.000000 0.000000
vn 0.000000 -1.000000 0.000000
vn 0.000000 -1.000000 0.000000
vn 0.000000 1.000000 0.000000
vn 0.000000 1.000000 0.000000
vn 0.000000 0.999990 -0.004570
vn 0.000000 0.999990 -0.004570
vn 0.000000 -0.999990 0.004570
vn 0.000000 -0.999990 0.004570
vn 0.000000 -0.999990 0.004570
vn 0.000000 -0.999990 0.004570
vn 0.000000 0.999990 -0.004570
vn 0.000000 0.999990 -0.004570
vn 0.000000 1.000000 0.000000
vn 0.000000 1.000000 0.000000
vn 0.000000 -1.000000 0.000000
vn 0.000000 -1.000000 0.000000
vn 0.000000 -1.000000 0.000000
vn 0.000000 -1.000000 0.000000
vn 0.000000 1.000000 0.000000
vn 0.000000 1.000000 0.000000
g fff0af20_00008_000a28fe_e5
f 31/1/31 32/2/32 34/4/34
f 34/4/34 33/3/33 31/1/31
f 23/1/23 24/2/24 26/4/26
f 26/4/26 25/3/25 23/1/23
f 62/4/62 61/3/61 59/1/59
f 59/1/59 60/2/60 62/4/62
f 37/5/37 39/5/39 3/7/3
f 3/7/3 1/7/1 37/5/37
f 15/1/15 16/2/16 18/4/18
f 18/4/18 17/3/17 15/1/15
f 7/1/7 8/2/8 10/4/10
f 10/4/10 9/3/9 7/1/7
f 43/1/43 44/2/44 46/4/46
f 46/4/46 45/3/45 43/1/43
f 51/1/51 52/2/52 54/4/54
f 54/4/54 53/3/53 51/1/51
f 74/4/74 73/3/73 71/1/71
f 71/1/71 72/2/72 74/4/74
f 82/4/82 81/3/81 79/1/79
f 79/1/79 80/2/80 82/4/82
f 90/4/90 89/3/89 87/1/87
f 87/1/87 88/2/88 90/4/90
f 98/4/98 97/3/97 95/1/95
f 95/1/95 96/2/96 98/4/98
f 106/4/106 105/3/105 103/1/103
f 103/1/103 104/2/104 106/4/106
f 114/4/114 113/3/113 111/1/111
f 111/1/111 112/2/112 114/4/114
g fff0af20_00008_000a28fe_e2
f 42/4/42 47/1/47 41/3/41
f 47/1/47 42/4/42 48/2/48
f 110/4/110 115/1/115 109/3/109
f 115/1/115 110/4/110 116/2/116
f 27/1/27 22/4/22 28/2/28
f 22/4/22 27/1/27 21/3/21
f 39/7/39 40/8/40 4/8/4
f 30/4/30 35/1/35 29/3/29
f 50/4/50 55/1/55 49/3/49
f 55/1/55 50/4/50 56/2/56
f 35/1/35 30/4/30 36/2/36
f 6/4/6 11/1/11 5/3/5
f 4/8/4 3/7/3 39/7/39
f 63/1/63 58/4/58 64/2/64
f 58/4/58 63/1/63 57/3/57
f 11/1/11 6/4/6 12/2/12
f 14/4/14 19/1/19 13/3/13
f 19/1/19 14/4/14 20/2/20
f 75/1/75 70/4/70 76/2/76
f 70/4/70 75/1/75 69/3/69
f 83/1/83 78/4/78 84/2/84
f 78/4/78 83/1/83 77/3/77
f 91/1/91 86/4/86 92/2/92
f 86/4/86 91/1/91 85/3/85
f 99/1/99 94/4/94 100/2/100
f 94/4/94 99/1/99 93/3/93
f 107/1/107 102/4/102 108/2/108
f 102/4/102 107/1/107 101/3/101
g fff0af20_00008_000a28fe_e3
f 40/6/40 38/6/38 2/8/2
f 2/8/2 4/8/4 40/6/40
g fff0af20_00008_000a28fe_e4
f 66/4/66 67/1/67 65/3/65
f 67/1/67 66/4/66 68/2/68
