# fff0af20_00239_006937e1
o fff0af20_00239_006937e1
v -0.005632 0.613637 -0.920337
v -0.005632 0.613637 -0.207641
v -0.335694 0.613637 -0.211626
v -0.335694 0.613637 -0.920337
v 0.202609 0.613637 -0.920337
v 0.202609 0.613637 -0.207641
v 0.401710 0.613637 -0.920337
v 0.401710 0.613637 -0.207641
v 0.770178 0.613646 -1.058939
v 1.126532 0.613646 -0.441726
v 0.950528 0.613646 -1.163074
v 1.306882 0.613646 -0.545863
v 1.318005 0.613646 -1.543462
v 1.935232 0.613646 -1.187114
v 1.422130 0.613646 -1.723812
v 2.039358 0.613646 -1.367464
v 1.521675 0.613646 -1.896230
v 2.138903 0.613646 -1.539882
v 1.646177 0.613646 -2.224238
v 2.358884 0.613646 -2.224238
v 1.646177 0.613646 -2.432489
v 2.358884 0.613646 -2.432489
v 1.646177 0.613646 -2.631579
v 2.358884 0.613646 -2.631579
v 1.646177 0.613646 -2.631579
v 1.646177 0.613646 -2.830670
v 2.358884 0.613646 -2.830670
v 1.547380 0.613646 -3.087243
v 2.164561 0.613646 -3.443592
v 1.443254 0.613646 -3.267593
v 2.060435 0.613646 -3.623941
v 1.287627 0.613646 -3.537147
v 1.904808 0.613646 -3.893495
v 0.975251 0.613646 -3.828639
v 1.331604 0.613646 -4.445852
v 0.705731 0.613646 -3.984266
v 1.062084 0.613646 -4.601480
v 0.286659 0.613646 -4.115452
v 0.286659 0.613646 -4.828148
v -0.024596 0.613646 -4.115452
v -0.024596 0.613646 -4.828148
v -0.024596 0.613646 -4.115452
v -0.232846 0.613646 -4.115452
v -0.232846 0.613646 -4.828148
v -0.429180 0.613646 -4.084777
v -0.785533 0.613646 -4.701986
v -0.698700 0.613646 -3.929126
v -1.055054 0.613646 -4.546335
v -0.879097 0.613646 -3.825024
v -1.235450 0.613646 -4.442231
v -1.051502 0.613646 -3.725460
v -1.407856 0.613646 -4.342668
v -1.263024 0.613646 -3.449572
v -1.880252 0.613646 -3.805918
v -1.367150 0.613646 -3.269219
v -1.984331 0.613646 -3.625565
v -1.466695 0.613646 -3.096807
v -2.083923 0.613646 -3.453153
v -1.466695 0.613646 -3.096807
v -1.566240 0.613646 -2.924381
v -2.183422 0.613646 -3.280729
v -1.107397 0.613646 -3.719124
v -1.724625 0.613646 -4.075469
v -0.721740 0.613646 -1.087910
v -1.078047 0.613646 -0.470698
v -1.361962 0.613646 -0.639194
v -1.007571 0.613646 -1.252955
v -0.541391 0.613646 -0.983785
v -0.897697 0.613646 -0.366573
v -1.269614 0.613646 -1.598241
v -1.886842 0.613646 -1.241894
v -2.048404 0.613646 -1.529751
v -1.434635 0.613646 -1.884105
v -1.567595 0.613646 -2.270174
v -2.280303 0.613646 -2.270174
v -2.276330 0.613646 -2.600262
v -1.565633 0.613646 -2.600262
v -1.565629 0.613669 -2.822457
v -2.276330 0.613646 -2.808513
v 2.488070 0.645444 -2.519341
v 2.404408 0.645444 -1.883838
v 2.159115 0.645444 -1.291645
v 1.768903 0.645444 -0.783115
v 1.260373 0.645444 -0.392912
v 0.668181 0.645444 -0.147610
v 0.032677 0.645444 -0.063949
v -0.602827 0.645444 -0.147610
v -1.195020 0.645444 -0.392912
v -1.703550 0.645444 -0.783115
v -2.093761 0.645444 -1.291645
v -2.339053 0.645444 -1.883838
v -2.422715 0.645444 -2.519341
v -2.339053 0.645444 -3.154845
v -2.093761 0.645444 -3.747038
v -1.703550 0.645444 -4.255569
v -1.195020 0.645444 -4.645771
v -0.602827 0.645444 -4.891072
v 0.032677 0.645444 -4.974734
v 0.668181 0.645444 -4.891072
v 1.260373 0.645444 -4.645771
v 1.768903 0.645444 -4.255569
v 2.159115 0.645444 -3.747038
v 2.404408 0.645444 -3.154845
v 0.032662 0.647723 -2.519340
v 2.638385 0.645447 -2.519344
v 2.549604 0.645447 -1.844957
v 2.289304 0.645447 -1.216531
v 1.875216 0.645447 -0.676888
v 1.335573 0.645447 -0.262810
v 0.707147 0.645447 -0.002500
v 0.032760 0.645447 0.086280
v -0.641627 0.645447 -0.002500
v -1.270052 0.645447 -0.262810
v -1.809697 0.645447 -0.676888
v -2.223782 0.645447 -1.216531
v -2.484083 0.645447 -1.844957
v -2.572863 0.645447 -2.519344
v -2.484083 0.645447 -3.193730
v -2.223782 0.645447 -3.822156
v -1.809697 0.645447 -4.361801
v -1.270052 0.645447 -4.775878
v -0.641627 0.645447 -5.036188
v 0.032760 0.645447 -5.124969
v 0.707147 0.645447 -5.036188
v 1.335573 0.645447 -4.775878
v 1.875216 0.645447 -4.361801
v 2.289304 0.645447 -3.822156
v 2.549604 0.645447 -3.193730
v 2.638408 1.683695 -2.519344
v 2.549628 1.683695 -1.844957
v 2.289327 1.683695 -1.216531
v 1.875239 1.683695 -0.676888
v 1.335596 1.683695 -0.262810
v 0.707170 1.683695 -0.002500
v 0.032783 1.683695 0.086280
v -0.641604 1.683695 -0.002500
v -1.270029 1.683695 -0.262810
v -1.809674 1.683695 -0.676888
v -2.223759 1.683695 -1.216531
v -2.484060 1.683695 -1.844957
v -2.572841 1.683695 -2.519344
v -2.484060 1.683695 -3.193730
v -2.223759 1.683695 -3.822156
v -1.809674 1.683695 -4.361801
v -1.270029 1.683695 -4.775878
v -0.641604 1.683695 -5.036188
v 0.032783 1.683695 -5.124969
v 0.707170 1.683695 -5.036188
v 1.335596 1.683695 -4.775878
v 1.875239 1.683695 -4.361801
v 2.289327 1.683695 -3.822156
v 2.549628 1.683695 -3.193730
v 2.488070 0.645444 -2.519341
v 2.404408 0.645444 -1.883838
v 2.159115 0.645444 -1.291645
v 1.768903 0.645444 -0.783115
v 1.260373 0.645444 -0.392912
v 0.668181 0.645444 -0.147610
v 0.032677 0.645444 -0.063949
v -0.602827 0.645444 -0.147610
v -1.195020 0.645444 -0.392912
v -1.703550 0.645444 -0.783115
v -2.093761 0.645444 -1.291645
v -2.339053 0.645444 -1.883838
v -2.422715 0.645444 -2.519341
v -2.339053 0.645444 -3.154845
v -2.093761 0.645444 -3.747038
v -1.703550 0.645444 -4.255569
v -1.195020 0.645444 -4.645771
v -0.602827 0.645444 -4.891072
v 0.032677 0.645444 -4.974734
v 0.668181 0.645444 -4.891072
v 1.260373 0.645444 -4.645771
v 1.768903 0.645444 -4.255569
v 2.159115 0.645444 -3.747038
v 2.404408 0.645444 -3.154845
v 1.559732 0.594657 -4.058100
v 1.559732 0.594657 -0.983018
v -1.515350 0.594657 -4.058100
v -1.515350 0.594657 -0.983018
v 1.097540 0.494023 -1.981744
v -1.872762 0.494024 -2.777632
v 1.215876 0.494023 -2.423388
v -1.754426 0.494023 -3.219279
v -0.216840 0.494023 -1.140131
v -0.216847 0.494023 -4.811228
v 0.310275 0.494023 -1.140133
v 0.310275 0.494023 -4.811231
vt 0.591497 1.000000
vt 0.277404 0.000521
vt 0.591598 0.000521
vt 0.277268 1.000000
vt 0.037528 0.000000
vt 0.040236 1.000000
vt 0.040226 0.999708
vt 0.040236 0.000000
vt 0.216777 1.000000
vt 0.216777 0.000000
vt 0.215088 0.999708
vt 0.212390 0.000000
vt -0.040583 1.000000
vt -0.360971 0.004272
vt -0.040583 0.000000
vt -0.360971 1.004272
vt 0.037528 0.000000
vt 0.215088 0.999708
vt 0.040226 0.999708
vt 0.212390 0.000000
vt -0.040583 1.000000
vt -0.360971 0.004272
vt -0.040583 0.000000
vt -0.360971 1.004272
vt -0.040583 1.000000
vt -0.360971 0.004272
vt -0.040583 0.000000
vt -0.360971 1.004272
vt 0.037528 0.000000
vt 0.215088 0.999708
vt 0.040226 0.999708
vt 0.212390 0.000000
vt 0.885756 0.909431
vt 0.885756 0.909431
vt 0.885756 0.909431
vt 0.885756 0.905150
vt 0.885756 0.909431
vt 0.885756 0.909431
vt 0.885756 0.905150
vt 0.885756 0.909431
vt 0.885756 0.909431
vt 0.885756 0.905150
vt 0.885756 0.909431
vt 0.885756 0.909431
vt 0.885756 0.905150
vt 0.885756 0.909431
vt 0.885756 0.909431
vt 0.885756 0.905150
vt 0.885756 0.909431
vt 0.885756 0.909431
vt 0.885756 0.905150
vt 0.885756 0.909431
vt 0.885756 0.909431
vt 0.885756 0.905150
vt 0.885756 0.909431
vt 0.885756 0.909431
vt 0.885756 0.905150
vt 0.885756 0.909431
vt 0.885756 0.909431
vt 0.885756 0.905150
vt 0.885756 0.909431
vt 0.885756 0.909431
vt 0.885756 0.905150
vt 0.885756 0.909431
vt 0.885756 0.909431
vt 0.885756 0.905150
vt 0.885756 0.909431
vt 0.885756 0.909431
vt 0.885756 0.905150
vt 0.885756 0.909431
vt 0.885756 0.909431
vt 0.885756 0.905150
vt 0.885756 0.909431
vt 0.885756 0.909431
vt 0.885756 0.905150
vt 0.885756 0.909431
vt 0.885756 0.909431
vt 0.885756 0.905150
vt 0.885756 0.909431
vt 0.885756 0.909431
vt 0.885756 0.905150
vt 0.885756 0.909431
vt 0.885756 0.909431
vt 0.885756 0.905150
vt 0.885756 0.909431
vt 0.885756 0.909431
vt 0.885756 0.905150
vt 0.885756 0.909431
vt 0.885756 0.909431
vt 0.885756 0.905150
vt 0.885756 0.909431
vt 0.885756 0.909431
vt 0.885756 0.905150
vt 0.885756 0.909431
vt 0.885756 0.909431
vt 0.885756 0.905150
vt 0.885756 0.909431
vt 0.885756 0.909431
vt 0.885756 0.905150
vt 0.885756 0.909431
vt 0.885756 0.909431
vt 0.885756 0.905150
vt 0.885756 0.909431
vt 0.885756 0.905150
vt 0.885756 0.909431
vt 0.885756 0.909431
vt 0.885756 0.909431
vt 0.885756 0.909431
vt 0.885756 0.909431
vt 0.885756 0.909431
vt 0.885756 0.909431
vt 0.885756 0.909431
vt 0.885756 0.909431
vt 0.885756 0.909431
vt 0.885756 0.909431
vt 0.885756 0.909431
vt 0.885756 0.909431
vt 0.885756 0.909431
vt 0.885756 0.909431
vt 0.885756 0.909431
vt 0.885756 0.909431
vt 0.885756 0.909431
vt 0.885756 0.909431
vt 0.885756 0.909431
vt 0.885756 0.909431
vt 0.885756 0.909431
vt 0.885756 0.909431
vt 0.885756 0.909431
vt 0.885756 0.909431
vt 0.885756 0.909431
vt 0.885756 0.909431
vt 0.885756 0.909431
vt 0.885756 0.909431
vt 0.885756 0.909431
vt 0.885756 0.909431
vt 0.885756 0.909431
vt 0.885756 0.909431
vt 0.885756 0.909431
vt 0.885756 0.909431
vt 0.885756 0.909431
vt 0.885756 0.909431
vt 0.885756 0.909431
vt 0.885756 0.909431
vt 0.885756 0.909431
vt 0.885756 0.909431
vt 0.885756 0.909431
vt 0.885756 0.909431
vt 0.885756 0.909431
vt 0.885756 0.909431
vt 0.885756 0.909431
vt 0.885756 0.909431
vt 0.885756 0.909431
vt 0.885756 0.909431
vt 0.885756 0.909431
vt 0.885756 0.909431
vt 0.885756 0.909431
vt 0.885756 0.909431
vt 0.885756 0.909431
vt 0.885756 0.909431
vt 0.885756 0.909431
vt 0.885756 0.909431
vt 0.885756 0.909431
vt 0.885756 0.909431
vt 0.885756 0.909431
vt 0.885756 0.909431
vt 0.885756 0.909431
vt 0.885756 0.909431
vt 0.885756 0.909431
vt 0.885756 0.909431
vt 0.885756 0.909431
vt 0.885756 0.909431
vt 0.885756 0.909431
vt 0.885756 0.909431
vt 0.885756 0.909431
vt 0.885756 0.909431
vt 0.885756 0.909431
vt 0.885756 0.909431
vt 0.885756 0.909431
vt 0.885756 0.909431
vt 0.885756 0.909431
vt 0.885756 0.909431
vt 0.885756 0.909431
vt 0.885756 0.909431
vt 0.885756 0.909431
vt 0.885756 0.909431
vt 0.885756 0.909431
vt 0.885756 0.909431
vt 0.885756 0.909431
vt 0.885756 0.909431
vt 0.885756 0.909431
vt 0.885756 0.909431
vt 0.885756 0.909431
vt 0.885756 0.909431
vt 0.885756 0.909431
vt 0.885756 0.909431
vt 0.885756 0.909431
vt 0.885756 0.909431
vt 0.885756 0.909431
vt 0.885756 0.909431
vt 0.885756 0.909431
vt 0.000000 0.000000
vt 1.000000 0.000000
vt 0.000000 1.000000
vt 1.000000 1.000000
vt 0.004030 0.980356
vt 0.004030 -0.019644
vt 1.004030 0.980356
vt 1.004030 -0.019644
vn 0.000000 -1.000000 0.000000
vn 0.000000 -1.000000 0.000000
vn 0.000000 -1.000000 0.000000
vn 0.000000 -1.000000 0.000000
vn 0.000000 -1.000000 0.000000
vn 0.000000 -1.000000 0.000000
vn 0.000000 -1.000000 0.000000
vn 0.000000 -1.000000 0.000000
vn 0.000000 -1.000000 0.000000
vn 0.000000 -1.000000 0.000000
vn 0.000000 -1.000000 0.000000
vn 0.000000 -1.000000 0.000000
vn 0.000000 -1.000000 0.000000
vn 0.000000 -1.000000 0.000000
vn 0.000000 -1.000000 0.000000
vn 0.000000 -1.000000 0.000000
vn 0.000000 -1.000000 0.000000
vn 0.000000 -1.000000 0.000000
vn 0.000000 -1.000000 0.000000
vn 0.000000 -1.000000 0.000000
vn 0.000000 -1.000000 0.000000
vn 0.000000 -1.000000 0.000000
vn 0.000000 -1.000000 0.000000
vn 0.000000 -1.000000 0.000000
vn 0.000000 -1.000000 0.000000
vn 0.000000 -1.000000 0.000000
vn 0.000000 -1.000000 0.000000
vn 0.000000 -1.000000 0.000000
vn 0.000000 -1.000000 0.000000
vn 0.000000 -1.000000 0.000000
vn 0.000000 -1.000000 0.000000
vn 0.000000 -1.000000 0.000000
vn 0.000000 -1.000000 0.000000
vn 0.000000 -1.000000 0.000000
vn 0.000000 -1.000000 0.000000
vn 0.000000 -1.000000 0.000000
vn 0.000000 -1.000000 0.000000
vn 0.000000 -1.000000 0.000000
vn 0.000000 -1.000000 0.000000
vn 0.000000 -1.000000 0.000000
vn 0.000000 -1.000000 0.000000
vn 0.000000 -1.000000 0.000000
vn 0.000000 -1.000000 0.000000
vn 0.000000 -1.000000 0.000000
vn 0.000000 -1.000000 0.000000
vn 0.000000 -1.000000 0.000000
vn 0.000000 -1.000000 0.000000
vn 0.000000 -1.000000 0.000000
vn 0.000000 -1.000000 0.000000
vn 0.000000 -1.000000 0.000000
vn 0.000000 -1.000000 0.000000
vn 0.000000 -1.000000 0.000000
vn 0.000000 -1.000000 0.000000
vn 0.000000 -1.000000 0.000000
vn 0.000000 -1.000000 0.000000
vn 0.000000 -1.000000 0.000000
vn 0.000000 -1.000000 0.000000
vn 0.000000 -1.000000 0.000000
vn 0.000000 -1.000000 0.000000
vn 0.000000 -1.000000 0.000000
vn 0.000000 -1.000000 0.000000
vn 0.000000 -1.000000 0.000000
vn 0.000000 -1.000000 0.000000
vn 0.000000 -1.000000 0.000000
vn 0.000000 -1.000000 0.000000
vn 0.000000 -1.000000 0.000000
vn 0.000000 -1.000000 0.000000
vn 0.000000 -1.000000 0.000000
vn 0.000000 -1.000000 0.000000
vn 0.000000 -1.000000 0.000000
vn 0.000000 -1.000000 0.000000
vn 0.000000 -1.000000 0.000000
vn 0.000000 -1.000000 0.000000
vn 0.000000 -1.000000 0.000000
vn 0.000000 -1.000000 0.000000
vn 0.000013 -1.000000 -0.000010
vn 0.000000 -1.000000 -0.000051
vn 0.000006 -1.000000 -0.000083
vn 0.000032 -1.000000 0.000000
vn 0.000023 -1.000000 0.000000
vn 0.000022 -1.000000 0.000006
vn 0.000020 -1.000000 0.000011
vn 0.000016 -1.000000 0.000016
vn 0.000011 -1.000000 0.000020
vn 0.000006 -1.000000 0.000022
vn -0.000000 -1.000000 0.000023
vn -0.000006 -1.000000 0.000022
vn -0.000011 -1.000000 0.000020
vn -0.000016 -1.000000 0.000016
vn -0.000020 -1.000000 0.000011
vn -0.000022 -1.000000 0.000006
vn -0.000023 -1.000000 0.000000
vn -0.000022 -1.000000 -0.000006
vn -0.000020 -1.000000 -0.000011
vn -0.000016 -1.000000 -0.000016
vn -0.000011 -1.000000 -0.000020
vn -0.000006 -1.000000 -0.000022
vn -0.000000 -1.000000 -0.000023
vn 0.000006 -1.000000 -0.000022
vn 0.000011 -1.000000 -0.000020
vn 0.000016 -1.000000 -0.000016
vn 0.000020 -1.000000 -0.000011
vn 0.000022 -1.000000 -0.000006
vn 0.000000 -1.000000 -0.000000
vn 0.734253 -0.678876 -0.000000
vn 0.709236 -0.678874 0.190036
vn 0.635883 -0.678873 0.367129
vn 0.519194 -0.678872 0.519201
vn 0.367129 -0.678873 0.635884
vn 0.190041 -0.678867 0.709242
vn -0.000001 -0.678868 0.734260
vn -0.190044 -0.678863 0.709245
vn -0.367134 -0.678865 0.635890
vn -0.519203 -0.678861 0.519207
vn -0.635895 -0.678859 0.367134
vn -0.709250 -0.678859 0.190039
vn -0.734268 -0.678860 -0.000000
vn -0.709250 -0.678859 -0.190039
vn -0.635895 -0.678859 -0.367133
vn -0.519204 -0.678860 -0.519207
vn -0.367133 -0.678865 -0.635890
vn -0.190045 -0.678863 -0.709245
vn -0.000001 -0.678868 -0.734260
vn 0.190041 -0.678867 -0.709242
vn 0.367128 -0.678873 -0.635884
vn 0.519194 -0.678872 -0.519201
vn 0.635883 -0.678873 -0.367129
vn 0.709236 -0.678874 -0.190036
vn 1.000000 -0.000022 0.000000
vn 0.965927 -0.000021 0.258814
vn 0.866025 -0.000019 0.500000
vn 0.707104 -0.000016 0.707110
vn 0.500004 -0.000011 0.866023
vn 0.258822 -0.000006 0.965925
vn 0.000002 -0.000000 1.000000
vn -0.258819 0.000006 0.965926
vn -0.500000 0.000011 0.866025
vn -0.707102 0.000016 0.707111
vn -0.866025 0.000019 0.500001
vn -0.965927 0.000021 0.258815
vn -1.000000 0.000022 -0.000000
vn -0.965927 0.000021 -0.258815
vn -0.866025 0.000019 -0.500000
vn -0.707102 0.000016 -0.707111
vn -0.500000 0.000011 -0.866026
vn -0.258819 0.000006 -0.965926
vn 0.000002 0.000000 -1.000000
vn 0.258823 -0.000006 -0.965925
vn 0.500003 -0.000011 -0.866024
vn 0.707104 -0.000016 -0.707110
vn 0.866026 -0.000019 -0.500000
vn 0.965927 -0.000021 -0.258814
vn -0.000928 -1.000000 0.000000
vn -0.000897 -1.000000 -0.000240
vn -0.000804 -1.000000 -0.000464
vn -0.000656 -1.000000 -0.000656
vn -0.000464 -1.000000 -0.000804
vn -0.000240 -1.000000 -0.000897
vn -0.000000 -1.000000 -0.000928
vn 0.000240 -1.000000 -0.000897
vn 0.000464 -1.000000 -0.000804
vn 0.000656 -1.000000 -0.000656
vn 0.000804 -1.000000 -0.000464
vn 0.000897 -1.000000 -0.000240
vn 0.000928 -1.000000 0.000000
vn 0.000897 -1.000000 0.000240
vn 0.000804 -1.000000 0.000464
vn 0.000656 -1.000000 0.000656
vn 0.000464 -1.000000 0.000804
vn 0.000240 -1.000000 0.000897
vn -0.000000 -1.000000 0.000928
vn -0.000240 -1.000000 0.000897
vn -0.000464 -1.000000 0.000804
vn -0.000656 -1.000000 0.000656
vn -0.000804 -1.000000 0.000464
vn -0.000897 -1.000000 0.000240
vn -0.000000 -1.000000 0.000000
vn -0.000000 -1.000000 0.000000
vn -0.000000 -1.000000 0.000000
vn -0.000000 -1.000000 0.000000
vn -0.000000 -1.000000 -0.000000
vn -0.000000 -1.000000 0.000000
vn -0.000000 -1.000000 -0.000000
vn -0.000000 -1.000000 0.000000
vn 0.000000 -1.000000 0.000000
vn 0.000000 -1.000000 0.000000
vn 0.000000 -1.000000 0.000000
vn 0.000000 -1.000000 0.000000
g fff0af20_00239_006937e1_e0
f 176/34/176 153/35/153 104/36/104
f 175/103/175 176/33/176 104/104/104
f 153/37/153 154/38/154 104/39/104
f 174/100/174 175/101/175 104/102/104
f 154/40/154 155/41/155 104/42/104
f 173/97/173 174/98/174 104/99/104
f 155/43/155 156/44/156 104/45/104
f 172/94/172 173/95/173 104/96/104
f 156/46/156 157/47/157 104/48/104
f 171/91/171 172/92/172 104/93/104
f 157/49/157 158/50/158 104/51/104
f 170/88/170 171/89/171 104/90/104
f 158/52/158 159/53/159 104/54/104
f 169/85/169 170/86/170 104/87/104
f 159/55/159 160/56/160 104/57/104
f 168/82/168 169/83/169 104/84/104
f 160/58/160 161/59/161 104/60/104
f 167/79/167 168/80/168 104/81/104
f 161/61/161 162/62/162 104/63/104
f 166/76/166 167/77/167 104/78/104
f 162/64/162 163/65/163 104/66/104
f 165/73/165 166/74/166 104/75/104
f 163/67/163 164/68/164 104/69/104
f 164/70/164 165/71/165 104/72/104
g fff0af20_00239_006937e1_e1
f 135/166/135 110/117/110 134/165/134
f 110/117/110 135/166/135 111/118/111
f 111/119/111 136/168/136 112/120/112
f 136/168/136 111/119/111 135/167/135
f 112/121/112 137/170/137 113/122/113
f 137/170/137 112/121/112 136/169/136
f 113/123/113 138/172/138 114/124/114
f 138/172/138 113/123/113 137/171/137
f 114/125/114 139/174/139 115/126/115
f 139/174/139 114/125/114 138/173/138
f 115/127/115 140/176/140 116/128/116
f 140/176/140 115/127/115 139/175/139
f 152/200/152 127/151/127 151/199/151
f 127/151/127 152/200/152 128/152/128
f 151/198/151 126/149/126 150/197/150
f 126/149/126 151/198/151 127/150/127
f 150/196/150 125/147/125 149/195/149
f 125/147/125 150/196/150 126/148/126
f 149/194/149 124/145/124 148/193/148
f 124/145/124 149/194/149 125/146/125
f 148/192/148 123/143/123 147/191/147
f 123/143/123 148/192/148 124/144/124
f 147/190/147 122/141/122 146/189/146
f 122/141/122 147/190/147 123/142/123
f 146/188/146 121/139/121 145/187/145
f 121/139/121 146/188/146 122/140/122
f 145/186/145 120/137/120 144/185/144
f 120/137/120 145/186/145 121/138/121
f 144/184/144 119/135/119 143/183/143
f 119/135/119 144/184/144 120/136/120
f 143/182/143 118/133/118 142/181/142
f 118/133/118 143/182/143 119/134/119
f 142/180/142 117/131/117 141/179/141
f 117/131/117 142/180/142 118/132/118
f 141/178/141 116/129/116 140/177/140
f 116/129/116 141/178/141 117/130/117
f 134/164/134 109/115/109 133/163/133
f 109/115/109 134/164/134 110/116/110
f 133/162/133 108/113/108 132/161/132
f 108/113/108 133/162/133 109/114/109
f 132/160/132 107/111/107 131/159/131
f 107/111/107 132/160/132 108/112/108
f 131/158/131 106/109/106 130/157/130
f 106/109/106 131/158/131 107/110/107
f 152/156/152 129/155/129 105/107/105
f 105/107/105 128/108/128 152/156/152
f 130/154/130 105/105/105 129/153/129
f 105/105/105 130/154/130 106/106/106
f 78/5/78 76/11/76 79/7/79
f 76/11/76 78/5/78 77/12/77
f 75/1/75 77/2/77 74/3/74
f 75/1/75 76/4/76 77/2/77
f 71/1/71 72/4/72 73/2/73
f 71/1/71 73/2/73 70/3/70
f 69/11/69 64/5/64 68/12/68
f 64/5/64 69/11/69 65/7/65
f 65/1/65 66/4/66 67/2/67
f 65/1/65 67/2/67 64/3/64
f 62/22/62 54/21/54 63/24/63
f 54/21/54 62/22/62 53/23/53
f 59/8/59 61/9/61 58/6/58
f 61/9/61 59/8/59 60/10/60
f 56/11/56 53/5/53 55/12/55
f 53/5/53 56/11/56 54/7/54
f 55/8/55 58/9/58 56/6/56
f 58/9/58 55/8/55 57/10/57
f 50/11/50 47/5/47 49/12/49
f 47/5/47 50/11/50 48/7/48
f 49/8/49 52/9/52 50/6/50
f 52/9/52 49/8/49 51/10/51
f 45/26/45 48/25/48 46/28/46
f 48/25/48 45/26/45 47/27/47
f 42/29/42 44/30/44 41/31/41
f 44/30/44 42/29/42 43/32/43
f 38/26/38 41/25/41 39/28/39
f 41/25/41 38/26/38 40/27/40
f 34/22/34 37/21/37 35/24/35
f 37/21/37 34/22/34 36/23/36
f 31/18/31 28/17/28 30/20/30
f 28/17/28 31/18/31 29/19/29
f 30/14/30 33/13/33 31/16/31
f 33/13/33 30/14/30 32/15/32
f 25/8/25 27/9/27 24/6/24
f 27/9/27 25/8/25 26/10/26
f 22/11/22 19/5/19 21/12/21
f 19/5/19 22/11/22 20/7/20
f 21/8/21 24/9/24 22/6/22
f 24/9/24 21/8/21 23/10/23
f 16/11/16 13/5/13 15/12/15
f 13/5/13 16/11/16 14/7/14
f 15/8/15 18/9/18 16/6/16
f 18/9/18 15/8/15 17/10/17
f 9/5/9 12/11/12 10/7/10
f 12/11/12 9/5/9 11/12/11
f 8/9/8 5/8/5 7/10/7
f 5/8/5 8/9/8 6/6/6
f 6/11/6 1/5/1 5/12/5
f 1/5/1 6/11/6 2/7/2
f 2/1/2 3/4/3 4/2/4
f 2/1/2 4/2/4 1/3/1
f 80/37/80 106/106/106 81/38/81
f 106/106/106 80/37/80 105/105/105
f 80/35/80 103/34/103 128/108/128
f 128/108/128 105/107/105 80/35/80
f 81/40/81 107/110/107 82/41/82
f 107/110/107 81/40/81 106/109/106
f 82/43/82 108/112/108 83/44/83
f 108/112/108 82/43/82 107/111/107
f 83/46/83 109/114/109 84/47/84
f 109/114/109 83/46/83 108/113/108
f 84/49/84 110/116/110 85/50/85
f 110/116/110 84/49/84 109/115/109
f 85/52/85 111/118/111 86/53/86
f 111/118/111 85/52/85 110/117/110
f 86/55/86 112/120/112 87/56/87
f 112/120/112 86/55/86 111/119/111
f 87/58/87 113/122/113 88/59/88
f 113/122/113 87/58/87 112/121/112
f 88/61/88 114/124/114 89/62/89
f 114/124/114 88/61/88 113/123/113
f 89/64/89 115/126/115 90/65/90
f 115/126/115 89/64/89 114/125/114
f 90/67/90 116/128/116 91/68/91
f 116/128/116 90/67/90 115/127/115
f 91/70/91 117/130/117 92/71/92
f 117/130/117 91/70/91 116/129/116
f 92/73/92 118/132/118 93/74/93
f 118/132/118 92/73/92 117/131/117
f 93/76/93 119/134/119 94/77/94
f 119/134/119 93/76/93 118/133/118
f 94/79/94 120/136/120 95/80/95
f 120/136/120 94/79/94 119/135/119
f 95/82/95 121/138/121 96/83/96
f 121/138/121 95/82/95 120/137/120
f 96/85/96 122/140/122 97/86/97
f 122/140/122 96/85/96 121/139/121
f 97/88/97 123/142/123 98/89/98
f 123/142/123 97/88/97 122/141/122
f 98/91/98 124/144/124 99/92/99
f 124/144/124 98/91/98 123/143/123
f 99/94/99 125/146/125 100/95/100
f 125/146/125 99/94/99 124/145/124
f 100/97/100 126/148/126 101/98/101
f 126/148/126 100/97/100 125/147/125
f 101/100/101 127/150/127 102/101/102
f 127/150/127 101/100/101 126/149/126
f 102/103/102 128/152/128 103/33/103
f 128/152/128 102/103/102 127/151/127
g fff0af20_00239_006937e1_e2
f 180/204/180 179/203/179 178/202/178
f 178/202/178 179/203/179 177/201/177
g fff0af20_00239_006937e1_e3
f 184/205/184 183/206/183 182/207/182
f 182/207/182 183/206/183 181/208/181
f 188/205/188 187/206/187 186/207/186
f 186/207/186 187/206/187 185/208/185
