# fff0ac53_00117_002add92
o fff0ac53_00117_002add92
v 1.183701 -3.088058 0.459782
v 1.430344 -3.808266 -0.016707
v 1.358047 -3.597313 0.320222
v 1.813980 -3.456535 -0.016707
v 1.629379 -3.348572 0.320222
v 1.828476 -2.888954 -0.016707
v 1.639603 -2.947243 0.320222
v 0.984604 -3.547729 0.320222
v 0.727737 -3.228798 0.320222
v 1.894455 -5.562790 -0.433735
v 2.141068 -6.283028 -0.910224
v 2.068802 -6.072037 -0.573294
v 2.524734 -5.931267 -0.910224
v 2.340103 -5.823311 -0.573294
v 2.539139 -5.363632 -0.910224
v 2.350357 -5.421997 -0.573294
v 1.695297 -6.022423 -0.573294
v 0.902206 -3.738167 -0.016707
v 0.538925 -3.287178 -0.016707
v 0.738022 -2.827507 0.320222
v 0.553360 -2.719521 -0.016707
v 1.009293 -2.578735 0.320222
v 0.937057 -2.367744 -0.016707
v 1.465256 -2.437943 -0.016707
v 1.382767 -2.628349 0.320222
v 0.351059 -0.937996 0.312851
v 1.612900 -6.212868 -0.910224
v 1.438461 -5.703522 -0.573294
v 1.249710 -5.761932 -0.910224
v 1.448685 -5.302170 -0.573294
v 1.264114 -5.194260 -0.910224
v 1.720016 -5.053444 -0.573294
v 1.647781 -4.842468 -0.910224
v 2.175949 -4.912628 -0.910224
v 2.093460 -5.103081 -0.573294
v -0.479141 1.242439 -0.032882
v 0.082596 1.325203 -0.032882
v 0.078903 -0.427048 -0.063398
v -0.279373 -0.113815 -0.032882
v -0.735123 0.224869 -0.032882
v -0.817917 0.786751 -0.032882
v 0.282425 -0.031105 -0.032882
v 0.621109 0.424736 -0.032882
v 0.170883 0.155426 0.203017
v 0.410355 0.477722 0.203017
v -0.098373 0.605743 0.300730
v 0.158615 -0.576714 0.202651
v -0.202744 -0.769196 -0.063398
v -0.040543 -0.818649 0.202651
v -0.159927 -1.210243 -0.063398
v -0.010239 -1.130493 0.202651
v 0.470474 -0.546402 0.202651
v 0.712448 -0.745522 0.202651
v 0.742691 -1.057381 0.202651
v 0.543594 -1.299347 0.202651
v 0.182205 -1.491837 -0.063398
v 0.231674 -1.329605 0.202651
v 2.974045 -7.666359 -0.910224
v 2.590408 -8.018089 -0.910224
v 2.789444 -7.558395 -0.573294
v 2.518112 -7.807137 -0.573294
v 2.343765 -7.297882 -0.433735
v -0.367661 1.055962 0.203017
v 0.029617 1.114449 0.203017
v 0.538376 0.986488 -0.032882
v 0.351852 0.874954 0.203017
v 0.519913 -0.384178 -0.063398
v 0.862076 -0.665756 -0.063398
v 0.904892 -1.106842 -0.063398
v 0.623306 -1.449036 -0.063398
v -0.226364 0.096901 0.203017
v -0.548599 0.336395 0.203017
v -0.607162 0.733673 0.203017
v 2.097122 -6.577568 -0.910224
v 1.713425 -6.929344 -0.910224
v 1.698990 -7.497002 -0.910224
v 2.625320 -6.647766 -0.910224
v 2.988541 -7.098778 -0.910224
v 2.062271 -7.947990 -0.910224
v 1.887802 -7.438622 -0.573294
v 1.898087 -7.037331 -0.573294
v 2.169357 -6.788559 -0.573294
v 2.542831 -6.838173 -0.573294
v 2.799667 -7.157066 -0.573294
v 2.144669 -7.757553 -0.573294
v 2.965805 -9.194771 -0.910224
v 2.582108 -9.546478 -0.910224
v 2.509842 -9.335487 -0.573294
v 2.335495 -8.826279 -0.433735
v 2.088852 -8.105980 -0.910224
v 1.705185 -8.457764 -0.910224
v 1.690750 -9.025406 -0.910224
v 2.617020 -8.176147 -0.910224
v 2.980270 -8.627151 -0.910224
v 2.054001 -9.476379 -0.910224
v 1.879593 -8.967056 -0.573294
v 1.889786 -8.565689 -0.573294
v 2.161057 -8.316948 -0.573294
v 2.534531 -8.366554 -0.573294
v 2.791397 -8.685486 -0.573294
v 2.781174 -9.086792 -0.573294
v 2.136398 -9.285934 -0.573294
v 5.775009 -9.439178 -0.910224
v 5.702744 -9.228188 -0.573294
v 5.528397 -8.718941 -0.433735
v 5.281723 -7.998619 -0.910224
v 4.898056 -8.350410 -0.910224
v 4.883652 -8.918083 -0.910224
v 5.809891 -8.068779 -0.910224
v 6.173080 -8.519783 -0.910224
v 6.158676 -9.087418 -0.910224
v 5.246841 -9.369019 -0.910224
v 5.072403 -8.859673 -0.573294
v 5.082626 -8.458321 -0.573294
v 5.353958 -8.209595 -0.573294
v 5.727402 -8.259232 -0.573294
v 5.984299 -8.578148 -0.573294
v 5.974045 -8.979462 -0.573294
v 5.329239 -9.178574 -0.573294
v 3.487442 -8.575294 -0.956914
v 3.759598 -9.086243 -0.580665
v 4.031845 -9.597282 -0.956914
v 4.313431 -9.255089 -0.956914
v 4.270615 -8.814003 -0.956914
v 3.590744 -9.640083 -0.956914
v 3.248611 -9.358490 -0.956914
v 3.205795 -8.917442 -0.956914
v 3.928452 -8.532425 -0.956914
v 4.120987 -8.893768 -0.690866
v 4.151230 -9.205627 -0.690866
v 3.952133 -9.447594 -0.690866
v 3.640213 -9.477852 -0.690866
v 3.398300 -9.278740 -0.690866
v 3.367996 -8.966896 -0.690866
v 3.567154 -8.724960 -0.690866
v 3.879013 -8.694649 -0.690866
vt -1.475178 0.142580
vt -0.823737 0.208686
vt -0.658280 -0.129992
vt -1.118881 -0.104049
vt -0.855883 1.199857
vt -1.684245 1.428333
vt -1.313824 1.210509
vt -1.075666 -0.675107
vt -1.057768 -1.057090
vt -0.615038 -0.803909
vt -0.762615 -0.496025
vt -0.789941 0.506384
vt -0.943384 0.828665
vt -1.220560 0.229877
vt -1.247865 0.633124
vt -1.771728 1.057142
vt -1.622745 1.224353
vt -1.180034 0.977210
vt -0.701467 1.133094
vt -1.475178 1.619467
vt -0.823737 1.554948
vt -1.162115 1.444763
vt -1.313824 0.780832
vt -1.961421 0.829543
vt -1.036638 0.265419
vt -0.921841 -0.196660
vt -1.379755 0.173007
vt -1.407098 -0.327319
vt -1.837715 -0.057370
vt -1.684245 0.363895
vt -1.579530 -0.223495
vt -1.770331 -0.418444
vt -0.658280 1.885496
vt -0.467470 1.600567
vt -1.118881 2.041363
vt -1.705797 0.363709
vt -1.591000 0.727767
vt 0.565059 0.829543
vt 0.473968 1.428333
vt 0.052703 1.354499
vt 0.836249 1.057142
vt -0.855883 0.586887
vt -0.666216 0.258073
vt 1.729540 0.142580
vt 1.334426 0.099233
vt 1.839678 -0.418444
vt 2.086828 -0.223495
vt -1.536276 -0.897494
vt 2.352818 -0.496025
vt 2.215892 -0.803909
vt 1.710640 -0.286232
vt 1.995570 -0.129992
vt 1.059243 0.828665
vt 0.880463 0.506384
vt 0.368146 1.031299
vt 0.696960 1.199857
vt -1.414036 -0.562172
vn 0.000009 -0.000011 1.000000
vn 0.252898 -0.794685 0.551832
vn 0.190035 -0.610398 0.768961
vn 0.765292 -0.358925 0.534323
vn 0.592473 -0.262099 0.761761
vn 0.817808 0.274352 0.505886
vn 0.625928 0.213221 0.750167
vn -0.325751 -0.566380 0.757034
vn -0.625989 -0.213162 0.750133
vn 0.000033 -0.000018 1.000000
vn 0.252844 -0.794676 0.551870
vn 0.190031 -0.610377 0.768978
vn 0.765303 -0.358848 0.534359
vn 0.592482 -0.262079 0.761760
vn 0.817832 0.274412 0.505815
vn 0.625999 0.213183 0.750119
vn -0.325778 -0.566352 0.757043
vn -0.409778 -0.747538 0.522752
vn -0.817784 -0.274428 0.505884
vn -0.592449 0.262028 0.761804
vn -0.765278 0.358841 0.534400
vn -0.190057 0.610358 0.768988
vn -0.252817 0.794703 0.551844
vn 0.409888 0.747473 0.522758
vn 0.325737 0.566348 0.757063
vn -0.000024 0.000013 1.000000
vn -0.409826 -0.747512 0.522752
vn -0.626004 -0.213191 0.750112
vn -0.817836 -0.274482 0.505771
vn -0.592517 0.262108 0.761724
vn -0.765372 0.358873 0.534244
vn -0.190020 0.610398 0.768965
vn -0.252842 0.794695 0.551844
vn 0.409836 0.747464 0.522811
vn 0.325702 0.566336 0.757088
vn -0.377454 0.631320 0.677469
vn 0.179397 0.713267 0.677545
vn -0.396481 0.744258 0.537478
vn -0.179457 -0.713298 0.677497
vn -0.631205 -0.377505 0.677547
vn -0.713252 0.179450 0.677546
vn 0.377498 -0.631190 0.677565
vn 0.713273 -0.179380 0.677543
vn 0.276980 -0.463072 0.841930
vn 0.523304 -0.131626 0.841919
vn 0.000008 0.000021 1.000000
vn -0.302852 0.568476 0.764929
vn -0.806610 0.245953 0.537483
vn -0.616115 0.187855 0.764927
vn -0.744217 -0.396471 0.537543
vn -0.568433 -0.302838 0.764966
vn 0.187777 0.616117 0.764944
vn 0.568511 0.302807 0.764921
vn 0.616113 -0.187807 0.764940
vn 0.302849 -0.568452 0.764948
vn -0.245934 -0.806564 0.537560
vn -0.187852 -0.616071 0.764963
vn 0.765292 -0.358925 0.534323
vn 0.252898 -0.794685 0.551832
vn 0.592473 -0.262099 0.761761
vn 0.190035 -0.610398 0.768961
vn 0.000009 -0.000011 1.000000
vn -0.276943 0.463179 0.841883
vn 0.131669 0.523315 0.841905
vn 0.631210 0.377468 0.677563
vn 0.463115 0.276947 0.841917
vn 0.245834 0.806623 0.537517
vn 0.744249 0.396503 0.537474
vn 0.806630 -0.245892 0.537480
vn 0.396459 -0.744236 0.537526
vn -0.131662 -0.523320 0.841903
vn -0.463080 -0.276984 0.841924
vn -0.523296 0.131571 0.841933
vn -0.252817 0.794703 0.551844
vn -0.765278 0.358841 0.534400
vn -0.817784 -0.274428 0.505884
vn 0.409888 0.747473 0.522758
vn 0.817808 0.274352 0.505886
vn -0.409778 -0.747538 0.522752
vn -0.625989 -0.213162 0.750133
vn -0.592449 0.262028 0.761804
vn -0.190057 0.610358 0.768988
vn 0.325737 0.566348 0.757063
vn 0.625928 0.213221 0.750167
vn -0.325751 -0.566380 0.757034
vn 0.765251 -0.358927 0.534381
vn 0.252846 -0.794681 0.551862
vn 0.190038 -0.610365 0.768986
vn 0.000010 -0.000022 1.000000
vn -0.252847 0.794726 0.551796
vn -0.765354 0.358863 0.534275
vn -0.817784 -0.274447 0.505873
vn 0.409860 0.747481 0.522768
vn 0.817771 0.274391 0.505924
vn -0.409784 -0.747524 0.522766
vn -0.625939 -0.213238 0.750154
vn -0.592505 0.262049 0.761754
vn -0.190084 0.610382 0.768962
vn 0.325727 0.566358 0.757060
vn 0.625924 0.213211 0.750173
vn 0.592447 -0.262109 0.761778
vn -0.325750 -0.566374 0.757039
vn 0.252844 -0.794676 0.551870
vn 0.190031 -0.610377 0.768978
vn 0.000033 -0.000018 1.000000
vn -0.252842 0.794695 0.551844
vn -0.765371 0.358873 0.534244
vn -0.817836 -0.274482 0.505771
vn 0.409836 0.747464 0.522811
vn 0.817832 0.274411 0.505815
vn 0.765303 -0.358848 0.534359
vn -0.409826 -0.747512 0.522752
vn -0.626004 -0.213191 0.750112
vn -0.592517 0.262108 0.761724
vn -0.190020 0.610398 0.768965
vn 0.325702 0.566336 0.757088
vn 0.625999 0.213183 0.750119
vn 0.592483 -0.262079 0.761760
vn -0.325778 -0.566352 0.757043
vn -0.396481 0.744258 0.537478
vn -0.000024 0.000013 1.000000
vn 0.396459 -0.744236 0.537526
vn 0.806630 -0.245892 0.537480
vn 0.744249 0.396503 0.537474
vn -0.245934 -0.806564 0.537560
vn -0.744217 -0.396471 0.537543
vn -0.806609 0.245953 0.537483
vn 0.245834 0.806623 0.537517
vn 0.568511 0.302807 0.764921
vn 0.616113 -0.187807 0.764940
vn 0.302849 -0.568452 0.764948
vn -0.187852 -0.616071 0.764963
vn -0.568432 -0.302838 0.764966
vn -0.616115 0.187855 0.764927
vn -0.302852 0.568476 0.764929
vn 0.187777 0.616117 0.764944
g fff0ac53_00117_002add92_e0
f 73/57/73 41/48/41 40/32/40
f 73/57/73 40/32/40 72/31/72
f 72/47/72 40/46/40 39/45/39
f 72/47/72 39/45/39 71/44/71
f 57/30/57 56/29/56 70/28/70
f 57/30/57 70/28/70 55/27/55
f 55/27/55 70/28/70 69/26/69
f 55/27/55 69/26/69 54/25/54
f 54/25/54 69/26/69 68/43/68
f 54/25/54 68/43/68 53/42/53
f 53/56/53 68/55/68 67/54/67
f 53/56/53 67/54/67 52/53/52
f 51/41/51 56/40/56 57/39/57
f 51/41/51 50/38/50 56/40/56
f 49/37/49 50/24/50 51/16/51
f 49/37/49 48/36/48 50/24/50
f 47/15/47 48/36/48 49/37/49
f 47/15/47 38/14/38 48/36/48
f 52/13/52 38/14/38 47/15/47
f 52/13/52 67/12/67 38/14/38
f 66/52/66 65/51/65 37/50/37
f 66/52/66 37/50/37 64/49/64
f 64/11/64 37/10/37 36/9/36
f 64/11/64 36/9/36 63/8/63
f 63/8/63 36/9/36 41/48/41
f 63/8/63 41/48/41 73/57/73
f 71/20/71 39/17/39 42/18/42
f 71/20/71 42/18/42 44/22/44
f 44/22/44 42/18/42 43/19/43
f 44/22/44 43/19/43 45/21/45
f 45/21/45 43/19/43 65/34/65
f 46/4/46 64/11/64 63/8/63
f 46/4/46 63/8/63 73/57/73
f 46/4/46 73/57/73 72/31/72
f 46/4/46 72/31/72 71/1/71
f 45/21/45 65/34/65 66/33/66
f 46/35/46 71/20/71 44/22/44
f 46/35/46 44/22/44 45/21/45
f 46/4/46 45/2/45 66/3/66
f 46/4/46 66/3/66 64/11/64
f 26/7/26 53/5/53 52/13/52
f 26/23/26 54/25/54 53/42/53
f 26/23/26 55/27/55 54/25/54
f 26/23/26 57/30/57 55/27/55
f 26/7/26 51/16/51 57/6/57
f 26/7/26 49/37/49 51/16/51
f 26/7/26 47/15/47 49/37/49
f 26/7/26 52/13/52 47/15/47
f 83/30/83 77/29/77 74/28/74
f 83/30/83 74/28/74 82/27/82
f 82/27/82 74/28/74 75/26/75
f 82/27/82 75/26/75 81/25/81
f 81/25/81 75/26/75 76/43/76
f 81/25/81 76/43/76 80/42/80
f 80/56/80 76/55/76 79/54/79
f 80/56/80 79/54/79 85/53/85
f 84/41/84 77/40/77 83/39/83
f 84/41/84 78/38/78 77/40/77
f 60/37/60 78/24/78 84/16/84
f 60/37/60 58/36/58 78/24/78
f 61/15/61 58/36/58 60/37/60
f 61/15/61 59/14/59 58/36/58
f 85/13/85 59/14/59 61/15/61
f 85/13/85 79/12/79 59/14/59
f 62/7/62 80/5/80 85/13/85
f 62/23/62 81/25/81 80/42/80
f 62/23/62 82/27/82 81/25/81
f 62/23/62 83/30/83 82/27/82
f 62/7/62 84/16/84 83/6/83
f 62/7/62 60/37/60 84/16/84
f 62/7/62 61/15/61 60/37/60
f 62/7/62 85/13/85 61/15/61
f 25/30/25 24/29/24 23/28/23
f 25/30/25 23/28/23 22/27/22
f 22/27/22 23/28/23 21/26/21
f 22/27/22 21/26/21 20/25/20
f 20/25/20 21/26/21 19/43/19
f 20/25/20 19/43/19 9/42/9
f 9/56/9 19/55/19 18/54/18
f 9/56/9 18/54/18 8/53/8
f 7/41/7 24/40/24 25/39/25
f 7/41/7 6/38/6 24/40/24
f 5/37/5 6/24/6 7/16/7
f 5/37/5 4/36/4 6/24/6
f 3/15/3 4/36/4 5/37/5
f 3/15/3 2/14/2 4/36/4
f 8/13/8 2/14/2 3/15/3
f 8/13/8 18/12/18 2/14/2
f 1/7/1 9/5/9 8/13/8
f 1/23/1 20/25/20 9/42/9
f 1/23/1 22/27/22 20/25/20
f 1/23/1 25/30/25 22/27/22
f 1/7/1 7/16/7 25/6/25
f 1/7/1 5/37/5 7/16/7
f 1/7/1 3/15/3 5/37/5
f 1/7/1 8/13/8 3/15/3
f 35/30/35 34/29/34 33/28/33
f 35/30/35 33/28/33 32/27/32
f 32/27/32 33/28/33 31/26/31
f 32/27/32 31/26/31 30/25/30
f 30/25/30 31/26/31 29/43/29
f 30/25/30 29/43/29 28/42/28
f 28/56/28 29/55/29 27/54/27
f 28/56/28 27/54/27 17/53/17
f 16/41/16 34/40/34 35/39/35
f 16/41/16 15/38/15 34/40/34
f 14/37/14 15/24/15 16/16/16
f 14/37/14 13/36/13 15/24/15
f 12/15/12 13/36/13 14/37/14
f 12/15/12 11/14/11 13/36/13
f 17/13/17 11/14/11 12/15/12
f 17/13/17 27/12/27 11/14/11
f 10/7/10 28/5/28 17/13/17
f 10/23/10 30/25/30 28/42/28
f 10/23/10 32/27/32 30/25/30
f 10/23/10 35/30/35 32/27/32
f 10/7/10 16/16/16 35/6/35
f 10/7/10 14/37/14 16/16/16
f 10/7/10 12/15/12 14/37/14
f 10/7/10 17/13/17 12/15/12
f 121/7/121 136/13/136 135/15/135
f 121/7/121 135/15/135 134/37/134
f 121/7/121 134/37/134 133/16/133
f 121/7/121 133/16/133 132/6/132
f 121/23/121 132/30/132 131/27/131
f 121/23/121 131/27/131 130/25/130
f 121/23/121 130/25/130 129/42/129
f 121/7/121 129/5/129 136/13/136
f 136/13/136 128/12/128 120/14/120
f 136/13/136 120/14/120 135/15/135
f 135/15/135 120/14/120 127/36/127
f 135/15/135 127/36/127 134/37/134
f 134/37/134 127/36/127 126/24/126
f 134/37/134 126/24/126 133/16/133
f 133/41/133 126/38/126 125/40/125
f 133/41/133 125/40/125 132/39/132
f 129/56/129 128/54/128 136/53/136
f 129/56/129 124/55/124 128/54/128
f 130/25/130 124/43/124 129/42/129
f 130/25/130 123/26/123 124/43/124
f 131/27/131 123/26/123 130/25/130
f 131/27/131 122/28/122 123/26/123
f 132/30/132 122/28/122 131/27/131
f 132/30/132 125/29/125 122/28/122
f 105/7/105 119/13/119 104/15/104
f 105/7/105 104/15/104 118/37/118
f 105/7/105 118/37/118 117/16/117
f 105/7/105 117/16/117 116/6/116
f 105/23/105 116/30/116 115/27/115
f 105/23/105 115/27/115 114/25/114
f 105/23/105 114/25/114 113/42/113
f 105/7/105 113/5/113 119/13/119
f 119/13/119 112/12/112 103/14/103
f 119/13/119 103/14/103 104/15/104
f 104/15/104 103/14/103 111/36/111
f 104/15/104 111/36/111 118/37/118
f 118/37/118 111/36/111 110/24/110
f 118/37/118 110/24/110 117/16/117
f 117/41/117 110/38/110 109/40/109
f 117/41/117 109/40/109 116/39/116
f 113/56/113 112/54/112 119/53/119
f 113/56/113 108/55/108 112/54/112
f 114/25/114 108/43/108 113/42/113
f 114/25/114 107/26/107 108/43/108
f 115/27/115 107/26/107 114/25/114
f 115/27/115 106/28/106 107/26/107
f 116/30/116 106/28/106 115/27/115
f 116/30/116 109/29/109 106/28/106
f 89/7/89 102/13/102 88/15/88
f 89/7/89 88/15/88 101/37/101
f 89/7/89 101/37/101 100/16/100
f 89/7/89 100/16/100 99/6/99
f 89/23/89 99/30/99 98/27/98
f 89/23/89 98/27/98 97/25/97
f 89/23/89 97/25/97 96/42/96
f 89/7/89 96/5/96 102/13/102
f 102/13/102 95/12/95 87/14/87
f 102/13/102 87/14/87 88/15/88
f 88/15/88 87/14/87 86/36/86
f 88/15/88 86/36/86 101/37/101
f 101/37/101 86/36/86 94/24/94
f 101/37/101 94/24/94 100/16/100
f 100/41/100 94/38/94 93/40/93
f 100/41/100 93/40/93 99/39/99
f 96/56/96 95/54/95 102/53/102
f 96/56/96 92/55/92 95/54/95
f 97/25/97 92/43/92 96/42/96
f 97/25/97 91/26/91 92/43/92
f 98/27/98 91/26/91 97/25/97
f 98/27/98 90/28/90 91/26/91
f 99/30/99 90/28/90 98/27/98
f 99/30/99 93/29/93 90/28/90
