# fff07975_00145_00421e60
o fff07975_00145_00421e60
v 10.880373 4.276043 2.082217
v 10.643595 3.741146 2.852805
v 12.268305 4.249050 2.109526
v 12.095705 3.909161 3.005731
v 10.179785 4.230495 1.776590
v 10.205545 3.710365 2.583043
v 11.524057 4.342262 1.517563
v 11.638300 4.030895 2.426410
v 10.291555 3.642910 1.395914
v 9.809553 3.121983 2.078701
v 11.630152 3.467838 1.707919
v 11.181189 3.130714 2.534655
v 11.293100 3.391796 1.861468
v 11.451002 2.889641 2.662373
v 12.581198 3.565926 1.458301
v 12.837042 3.280319 2.352446
v 10.433592 3.075848 1.676289
v 10.196959 2.540947 2.447268
v 11.821524 3.048561 1.701043
v 11.648924 2.708889 2.599639
v 9.392317 3.781818 1.444138
v 9.155684 3.246777 2.215635
v 10.780249 3.755333 1.476232
v 10.607649 3.415592 2.374801
v 9.199049 4.192364 1.273578
v 8.451456 3.549625 1.662601
v 10.162760 4.193382 2.101487
v 9.328428 3.726955 2.627774
v 11.719942 4.606983 1.577596
v 10.352968 4.435837 1.685525
v 12.098181 4.103664 2.326450
v 10.647234 4.120617 2.570219
v 10.066565 4.804760 1.721420
v 9.284769 4.355797 2.180244
v 11.165468 4.412407 2.417037
v 10.363157 4.136116 3.031893
v 11.697824 3.939213 1.982460
v 10.915884 3.490902 2.447027
v 12.796728 3.546497 2.673615
v 11.994417 3.270351 3.289580
v 10.261137 3.661758 2.018724
v 9.479345 3.213230 2.480772
v 11.360044 3.269184 2.710566
v 10.557730 2.993259 3.328742
v 11.194723 4.233986 2.233182
v 10.585089 3.705925 2.491059
v 11.697824 4.230858 2.993615
v 10.946009 3.870232 3.276055
v 9.097761 3.759624 1.267890
v 8.861128 3.224655 2.039279
v 10.485693 3.733288 1.301685
v 10.313093 3.393543 2.200341
v 7.961184 4.276043 0.993586
v 7.724405 3.741146 1.764174
v 9.349115 4.249050 1.020895
v 9.176516 3.909161 1.917100
v 7.260595 4.230495 0.687960
v 7.286356 3.710365 1.494412
v 8.604868 4.342262 0.428932
v 8.719110 4.030895 1.337780
v 7.372366 3.642910 0.307283
v 6.890364 3.121983 0.990070
v 8.710962 3.467838 0.619288
v 8.261999 3.130714 1.446024
v 8.373911 3.391796 0.772838
v 8.531813 2.889641 1.573742
v 9.662008 3.565926 0.369670
v 9.917852 3.280319 1.263815
v 7.514402 3.075848 0.587658
v 7.277769 2.540947 1.358637
v 8.902334 3.048561 0.612412
v 8.729734 2.708889 1.511009
v 6.473127 3.781818 0.355507
v 6.236494 3.246777 1.127005
v 7.861059 3.755333 0.387601
v 7.688459 3.415592 1.286170
v 6.279860 4.192364 0.184947
v 5.532267 3.549625 0.573971
v 7.243570 4.193382 1.012856
v 6.409239 3.726955 1.539143
v 8.800753 4.606983 0.488965
v 7.433779 4.435837 0.596895
v 9.178991 4.103664 1.237819
v 7.728045 4.120617 1.481588
v 7.147375 4.804760 0.632790
v 6.365580 4.355797 1.091613
v 8.246279 4.412407 1.328406
v 7.443968 4.136116 1.943262
v 8.778635 3.939213 0.893829
v 7.996695 3.490902 1.358397
v 9.877539 3.546497 1.584984
v 9.075228 3.270351 2.200950
v 7.341948 3.661758 0.930093
v 6.560156 3.213230 1.392141
v 8.440855 3.269184 1.621935
v 7.638540 2.993259 2.240111
v 8.275534 4.233986 1.144552
v 7.665899 3.705925 1.402429
v 8.778635 4.230858 1.904984
v 8.026819 3.870232 2.187425
v 6.178572 3.759624 0.179259
v 5.941938 3.224655 0.950648
v 7.566504 3.733288 0.213055
v 7.393904 3.393543 1.111710
v 13.385023 4.276043 2.390533
v 12.986067 3.741146 3.688925
v 15.723600 4.249050 2.436548
v 15.432783 3.909161 3.946595
v 12.204576 4.230495 1.875572
v 12.247984 3.710365 3.234393
v 14.469591 4.342262 1.439127
v 14.662085 4.030895 2.970477
v 12.392904 3.642910 1.234156
v 11.580763 3.121983 2.384609
v 14.648355 3.467838 1.759865
v 13.891878 3.130714 3.152863
v 14.080442 3.391796 2.018586
v 14.346498 2.889641 3.368059
v 16.250807 3.565926 1.339275
v 16.681887 3.280319 2.845851
v 12.632227 3.075848 1.706570
v 12.233515 2.540947 3.005621
v 14.970804 3.048561 1.748279
v 14.679983 2.708889 3.262357
v 10.877745 3.781818 1.315410
v 10.479033 3.246777 2.615335
v 13.216322 3.755333 1.369487
v 12.925501 3.415592 2.883519
v 14.799646 4.606983 1.540279
v 12.496382 4.435837 1.722133
v 15.436953 4.103664 2.802050
v 12.992201 4.120617 3.212786
v 12.013807 4.804760 1.782614
v 10.696531 4.355797 2.555703
v 13.865393 4.412407 2.954684
v 12.513548 4.136116 3.990677
v 14.762377 3.939213 2.222449
v 13.444857 3.490902 3.005215
v 16.613962 3.546497 3.387001
v 15.262117 3.270351 4.424864
v 12.341650 3.661758 2.283552
v 11.024382 3.213230 3.062073
v 14.193239 3.269184 3.449262
v 12.841391 2.993259 4.490849
v 13.914682 4.233986 2.644901
v 12.887487 3.705925 3.079407
v 14.762377 4.230858 3.926181
v 13.495615 3.870232 4.402075
v 10.381437 3.759624 1.018444
v 9.982725 3.224655 2.318186
v 12.720015 3.733288 1.075387
v 12.429193 3.393543 2.589565
v -7.037233 -3.048901 -3.188573
v -7.554445 -3.508984 -2.654157
v -7.127443 -3.444530 -3.802148
v -6.975832 -3.626293 -3.338693
v -6.833986 -2.122387 -3.071691
v -7.199587 -2.243969 -2.286721
v -7.089724 -2.722363 -3.410718
v -7.523317 -2.976635 -2.623517
v -7.343264 -2.567944 -3.424558
v -7.708986 -2.689892 -2.639806
v -7.599245 -3.168163 -3.763730
v -7.497561 -3.170727 -2.976384
v -9.696535 -0.216381 -1.495507
v -9.552858 -0.502026 -0.805165
v -10.208864 -1.062450 -1.994630
v -10.311037 -1.257763 -1.265027
v -11.262819 -0.646435 -1.982480
v -11.270510 -1.082836 -1.370809
v -11.752077 -1.332470 -2.682893
v -12.017458 -1.664379 -2.058965
v -11.582644 -0.833447 -2.329530
v -11.319094 -0.974804 -1.608228
v -12.143923 -1.746532 -2.598046
v -12.103640 -1.773998 -1.811559
v -7.983400 -1.227001 -2.652219
v -8.022097 -1.728100 -2.092004
v -8.397829 -1.845776 -3.432870
v -8.709352 -2.256664 -2.877088
v -8.976809 -1.116161 -2.327996
v -9.021242 -1.615307 -1.769891
v -9.396852 -1.728100 -3.110356
v -9.714235 -2.137402 -2.557511
v -10.126345 -0.114574 -2.519021
v -9.987062 -0.395580 -1.829850
v -10.638918 -0.961498 -3.013459
v -10.744875 -1.149975 -2.283174
v -9.185183 -0.350903 -2.101747
v -9.035524 -0.641796 -1.409158
v -9.695559 -1.194653 -2.599706
v -9.795412 -1.390453 -1.869496
v -6.631716 -2.301098 -2.248391
v -6.476931 -2.597607 -1.556714
v -7.137575 -3.145702 -2.749433
v -7.243288 -3.343945 -2.022309
v -8.367800 -0.826000 -1.662286
v -8.211550 -1.122143 -0.969544
v -8.870241 -1.673901 -2.161897
v -8.980593 -1.868114 -1.435842
v -10.084597 -0.455151 -2.397595
v -9.487551 0.231617 -1.782620
v -10.184572 -1.080151 -1.952615
v -9.790651 -0.218334 -1.247190
v -9.938601 -0.816357 -1.861802
v -10.200808 -1.498852 -1.607999
v -10.125734 -1.021313 -2.839849
v -10.653078 -1.596630 -2.632993
v -9.671389 -0.938793 -1.830064
v -9.231081 -0.825756 -1.153722
v -10.100954 -1.912792 -1.712571
v -9.887209 -1.670605 -0.953073
v -7.219484 -2.925365 -3.034657
v -7.397951 -3.525829 -2.526063
v -7.349245 -3.536572 -3.912934
v -7.005739 -3.753002 -3.414926
v -7.635012 -2.404736 -3.084146
v -7.683718 -2.708080 -2.337949
v -8.003176 -3.304638 -3.549661
v -7.679934 -3.402538 -2.759328
v -6.906374 -1.968456 -2.682553
v -7.042727 -2.168163 -1.899407
v -7.497072 -2.822826 -3.254460
v -7.827883 -3.061840 -2.418050
v -9.887453 -0.318798 -2.864884
v -10.253298 -0.440502 -2.080060
v -10.143312 -0.919140 -3.204057
v -10.576906 -1.173168 -2.416783
v -6.943972 -2.203930 -2.870008
v -6.840212 -2.513622 -2.191949
v -7.310793 -3.082226 -3.378831
v -7.490602 -3.347729 -2.691815
v -7.852419 -1.539379 -2.629846
v -7.754519 -1.848705 -1.953343
v -8.225710 -2.412548 -3.141271
v -8.411989 -2.678173 -2.456716
v -8.997927 -0.739819 -2.890286
v -8.893435 -0.883251 -2.158868
v -9.001101 -1.760326 -3.241403
v -9.178591 -1.954906 -2.530438
v -8.468142 -0.374340 -2.633775
v -8.369143 -0.518993 -1.904263
v -8.478884 -1.392406 -2.988847
v -8.661745 -1.589672 -2.280663
v -6.890993 -2.690258 -3.182397
v -6.786623 -2.833324 -2.450971
v -6.894289 -3.710644 -3.533505
v -7.071901 -3.905346 -2.822549
v -6.361086 -2.324535 -2.925817
v -6.262331 -2.469311 -2.196366
v -6.372072 -3.342846 -3.280957
v -6.555056 -3.539989 -2.572774
v -7.640383 -1.332958 -2.803506
v -7.536013 -1.476147 -2.072087
v -7.643679 -2.353344 -3.154626
v -7.821169 -2.548046 -2.443666
v -11.235964 -0.475414 -2.456803
v -11.776613 -0.907787 -1.922387
v -11.346804 -0.865795 -3.070378
v -11.941896 -1.416576 -2.606923
v -12.414309 0.685719 -3.019837
v -12.785891 0.583546 -2.234868
v -12.701174 0.100025 -3.358865
v -13.147463 -0.131176 -2.571664
v -11.516481 0.020924 -2.503201
v -11.888186 -0.081738 -1.718450
v -11.803469 -0.565014 -2.842374
v -12.249514 -0.795971 -2.055028
v -12.836184 -0.002026 -1.228532
v -12.707644 -0.294750 -0.538190
v -13.392214 -0.820141 -1.727654
v -13.504396 -1.009716 -0.998052
v -12.347780 0.432667 -1.243100
v -12.355471 -0.003735 -0.631429
v -12.837038 -0.253368 -1.943513
v -13.102419 -0.585278 -1.319585
v -13.294436 0.018238 -1.917500
v -13.030764 -0.122875 -1.196198
v -13.855715 -0.894604 -2.186017
v -13.815432 -0.922192 -1.399529
v -11.999025 1.019337 -2.089688
v -12.063967 0.520924 -1.529473
v -12.445314 0.423023 -2.870339
v -12.777956 0.028980 -2.314557
v -11.560061 0.521412 -1.191907
v -11.630495 0.025196 -0.633801
v -12.011477 -0.067699 -1.974267
v -12.349733 -0.459911 -1.421422
v -13.250978 0.568531 -2.637349
v -13.104372 0.291309 -1.948178
v -13.741213 -0.291576 -3.131787
v -13.842287 -0.482738 -2.401502
v -11.800417 1.121632 -1.610879
v -11.666262 0.823292 -0.918290
v -12.354250 0.305714 -2.108838
v -12.464357 0.115528 -1.378629
v -12.149416 0.671436 -1.869187
v -12.010134 0.367237 -1.177510
v -12.698610 -0.145580 -2.370229
v -12.814699 -0.337963 -1.643106
v -13.132448 -0.420361 -1.077439
v -12.991823 -0.724194 -0.384698
v -13.678591 -1.240795 -1.577050
v -13.798952 -1.428905 -0.850995
v -13.143435 -0.337841 -2.457971
v -12.511110 0.316700 -1.842996
v -13.276003 -0.956860 -2.012990
v -12.837404 -0.116650 -1.307565
v -12.338869 1.271656 -1.617143
v -12.636477 0.603809 -1.363339
v -12.536379 1.076832 -2.595189
v -13.093264 0.529957 -2.388333
v -12.316774 0.559986 -1.339196
v -11.871218 0.649830 -0.662854
v -12.796633 -0.390209 -1.221704
v -12.570559 -0.159496 -0.462205
v -11.411501 -0.342358 -2.302888
v -11.621218 -0.932690 -1.794293
v -11.573122 -0.945995 -3.181165
v -12.017946 -1.522167 -2.683156
v -13.229006 0.445728 -3.032292
v -13.293581 0.145313 -2.286096
v -13.643801 -0.433666 -3.497808
v -13.936525 -0.693920 -2.707475
v -12.478518 0.843311 -2.630700
v -12.625368 0.650928 -1.847554
v -13.113283 0.020924 -3.202607
v -13.456057 -0.200390 -2.366197
v -13.006838 0.370655 -2.983212
v -13.369387 0.239307 -2.198388
v -12.887331 0.112476 -3.322385
v -13.673586 -0.501415 -2.535111
v -12.528444 0.610035 -2.818154
v -12.441042 0.295338 -2.140096
v -12.940798 -0.247753 -3.326978
v -13.134157 -0.503490 -2.639962
v -11.812258 0.875172 -2.250642
v -11.730593 0.561207 -1.574140
v -12.230715 0.022755 -2.762067
v -12.430544 -0.232616 -2.077512
v -11.323000 1.473682 -2.000405
v -11.226320 1.325123 -1.268987
v -11.379641 0.454762 -2.351521
v -11.567019 0.269703 -1.640557
v -13.281496 -0.138866 -2.376279
v -13.190065 -0.288525 -1.646768
v -13.345461 -1.154980 -2.731351
v -13.466066 -1.167553 -1.695817
v -12.428713 0.296436 -2.803193
v -12.331911 0.148121 -2.071767
v -12.485353 -0.722363 -3.154302
v -12.672853 -0.907543 -2.443345
v -11.880373 0.633839 -2.546613
v -11.789186 0.484180 -1.817163
v -11.944582 -0.382397 -2.901753
v -12.137575 -0.569775 -2.193570
v -11.589724 1.070240 -2.424302
v -11.492922 0.921803 -1.692883
v -11.646364 0.051563 -2.775422
v -11.833742 -0.133739 -2.064462
v -8.722780 -0.002758 -1.290357
v -8.566408 -0.298779 -0.597615
v -9.225100 -0.850658 -1.789968
v -9.335451 -1.044872 -1.063912
v -9.811037 0.809620 -1.900598
v -9.667238 0.523975 -1.210256
v -10.323488 -0.036449 -2.399720
v -10.425539 -0.231762 -1.670117
v -5.569216 1.153614 -0.897008
v -5.357668 0.771778 -0.285336
v -5.649904 0.314869 -1.597421
v -5.713747 -0.105297 -0.973493
v -5.752565 0.831593 -1.244058
v -5.453737 0.841236 -0.522756
v -5.782228 -0.239574 -1.512574
v -5.733644 -0.243481 -0.726087
v -5.631472 1.315113 -1.371331
v -5.883425 0.670338 -0.836915
v -5.532351 0.921680 -1.984906
v -5.772219 0.147144 -1.521451
v -7.232424 1.731495 -1.934365
v -7.503176 1.457203 -1.149396
v -7.188112 1.080860 -2.273393
v -7.458986 0.657398 -1.486192
v -6.122683 1.604786 -1.417729
v -6.393190 1.330006 -0.632977
v -6.078127 0.953785 -1.756902
v -6.348879 0.530689 -0.969556
v -7.253908 0.924976 -0.143060
v -6.996218 0.735767 0.547282
v -7.326418 -0.061474 -0.642182
v -7.328859 -0.281811 0.087420
v -7.048342 1.545704 -0.157628
v -6.836794 1.163990 0.454043
v -7.128908 0.706959 -0.858041
v -7.192873 0.286671 -0.234113
v -7.661013 0.713673 -0.832028
v -7.362185 0.723072 -0.110726
v -7.690554 -0.357738 -1.100545
v -7.641970 -0.361523 -0.314057
v -7.039675 2.228016 -1.004216
v -6.846682 1.763966 -0.444001
v -7.127932 1.488453 -1.784867
v -7.218996 0.980885 -1.229085
v -6.410524 2.016346 -0.106435
v -6.223391 1.551441 0.451671
v -6.506838 1.280445 -0.888795
v -6.603762 0.771656 -0.335950
v -8.444216 1.953724 -1.551877
v -8.192629 1.766529 -0.862706
v -8.516359 0.966480 -2.046315
v -8.525270 0.750416 -1.316030
v -6.918825 2.415943 -0.525407
v -6.653444 2.224720 0.167182
v -6.990358 1.432545 -1.023366
v -6.990725 1.212696 -0.293157
v -6.995974 1.851673 -0.783715
v -6.723269 1.657764 -0.092038
v -7.063112 0.869556 -1.284757
v -7.067385 0.644947 -0.557633
v -7.301394 0.414478 0.008033
v -7.027712 0.221729 0.700774
v -7.364138 -0.569042 -0.491578
v -7.374269 -0.792187 0.234477
v -7.352175 0.480640 -1.372499
v -7.131838 1.363453 -0.757524
v -7.157473 -0.121777 -0.927518
v -7.197756 0.825001 -0.222093
v -7.460085 2.276722 -0.531671
v -7.383913 1.549488 -0.277867
v -7.533815 2.009205 -1.509717
v -7.742556 1.257130 -1.302861
v -7.085207 1.671436 -0.253724
v -6.744143 1.972095 0.422618
v -7.025637 0.608570 -0.136231
v -6.945192 0.921436 0.623267
v -5.849855 1.342457 -1.217416
v -5.736452 0.726490 -0.708821
v -5.688112 0.738941 -2.095693
v -5.785280 0.017628 -1.597684
v -7.818117 1.116383 -1.946820
v -7.723757 0.823902 -1.200624
v -7.737673 0.147388 -2.412335
v -7.860964 -0.224316 -1.622003
v -7.366823 1.835926 -1.545228
v -7.397829 1.595997 -0.762082
v -7.505495 0.806324 -2.117135
v -7.691530 0.443287 -1.280725
v -8.138674 1.880238 -1.897740
v -8.409304 1.605518 -1.112916
v -8.094118 1.229176 -2.236913
v -8.364992 0.806080 -1.449639
v -7.293581 1.608936 -1.732682
v -7.060427 1.380054 -1.054624
v -7.221682 0.659840 -2.241506
v -7.261354 0.341724 -1.554490
v -6.805788 2.196644 -1.165170
v -6.578127 1.965687 -0.488667
v -6.742067 1.249195 -1.676595
v -6.787355 0.928028 -0.992040
v -6.681398 2.959522 -0.914933
v -6.523317 2.879261 -0.183515
v -6.220827 2.048817 -1.266049
v -6.290651 1.794910 -0.555085
v -7.571169 0.583790 -1.290807
v -7.417238 0.499928 -0.561296
v -7.118532 -0.328197 -1.645879
v -7.216677 -0.399364 -0.610345
v -7.050295 1.387135 -1.717721
v -6.892336 1.307178 -0.986295
v -6.589846 0.476612 -2.068830
v -6.659792 0.222462 -1.357873
v -6.744143 1.953602 -1.461141
v -6.590334 1.869617 -0.731690
v -6.291628 1.041309 -1.816281
v -6.365114 0.782520 -1.108098
v -6.710695 2.476856 -1.338830
v -6.552614 2.396656 -0.607411
v -6.250368 1.566334 -1.689950
v -6.319948 1.312305 -0.978990
v -13.899538 -1.622875 -3.165147
v -13.967287 -2.111156 -2.596402
v -14.238771 -2.271435 -3.957837
v -14.580446 -2.677074 -3.416047
v -14.916872 -1.531200 -2.918298
v -14.990114 -2.017773 -2.352124
v -15.261721 -2.173046 -3.713281
v -15.608889 -2.577343 -3.174890
v -16.073732 -0.565990 -3.219987
v -15.979250 -0.826366 -2.515279
v -16.526491 -1.438305 -3.728627
v -16.681887 -1.611767 -3.003491
v -15.160646 -0.766674 -2.728192
v -15.055910 -1.036449 -2.019059
v -15.610964 -1.635815 -3.240266
v -15.760256 -1.816357 -2.514577
v -15.917971 -1.246288 -2.532525
v -16.181154 -1.929394 -2.281026
v -16.026247 -1.479931 -3.516023
v -16.553102 -2.064037 -3.333749
v -15.804689 -0.772045 -3.541768
v -16.224855 -0.884594 -2.783231
v -16.019289 -1.387035 -3.883092
v -16.503786 -1.633617 -3.123654
v -14.905275 -1.169384 -3.490270
v -14.852175 -1.292065 -2.749631
v -14.856569 -2.197826 -3.813813
v -15.081667 -2.379833 -3.113065
v -14.405642 -0.783520 -3.204946
v -14.357546 -0.907787 -2.466561
v -14.364138 -1.809887 -3.533055
v -14.594362 -1.994701 -2.835416
v -8.627321 -3.538403 -3.766488
v -8.961306 -4.144848 -3.232072
v -8.580324 -3.941479 -4.380063
v -8.919313 -4.678051 -3.916608
v -9.076418 -3.187206 -4.002473
v -9.380495 -3.424267 -3.217721
v -9.117311 -3.838451 -4.341645
v -9.441042 -4.222485 -3.554299
v -8.840334 -3.482738 -3.612573
v -8.808229 -4.108349 -3.103978
v -8.758669 -4.102245 -4.490849
v -8.949221 -4.804760 -3.992841
v -9.405886 -3.130688 -3.662061
v -9.350588 -3.432934 -2.915864
v -9.452517 -4.101879 -4.127576
v -9.623415 -4.454296 -3.337243
vt 0.007215 1.000000
vt 0.007215 2.000000
vt 0.537204 1.000000
vt 0.522483 2.010608
vt 0.000000 1.000000
vt -0.002005 2.007604
vt 1.000000 1.000000
vt 0.987143 2.010608
vt 0.999929 1.000000
vt 0.999929 2.000000
vt 0.533530 1.000000
vt 0.546486 2.010608
vt 0.523002 1.000000
vt 0.523002 2.000000
vt -0.006987 1.000000
vt 0.007735 2.010608
vt 0.534026 2.010608
vt 0.521001 1.000000
vt 0.989930 2.000000
vt 0.989930 1.000000
vn 0.004724 0.820797 0.571200
vn -0.054961 0.876282 0.478653
vn -0.088865 0.902133 0.422206
vn -0.142521 0.934260 0.326874
vn 0.034357 0.840377 0.540913
vn -0.047976 0.884048 0.464927
vn -0.096275 0.903841 0.416897
vn -0.170048 0.925494 0.338445
vn -0.032541 0.805558 0.591623
vn -0.066310 0.870976 0.486829
vn -0.083195 0.898971 0.430034
vn -0.113002 0.939992 0.321941
vn 0.048915 0.850539 0.523632
vn -0.044735 0.888357 0.456969
vn -0.098675 0.904316 0.415302
vn -0.182040 0.920378 0.346073
vn 0.005947 0.820750 0.571257
vn -0.054245 0.876578 0.478192
vn -0.088268 0.902426 0.421706
vn -0.142308 0.934614 0.325953
vn 0.002484 0.821370 0.570391
vn -0.057121 0.876758 0.477527
vn -0.090856 0.902460 0.421083
vn -0.144334 0.934434 0.325577
vn -0.414063 0.772761 0.481032
vn -0.407066 0.843974 0.349293
vn -0.404083 0.858012 0.317069
vn -0.387393 0.902937 0.186096
vn -0.056546 0.815171 0.576453
vn 0.019302 0.908184 0.418126
vn -0.007374 0.879476 0.475887
vn 0.064141 0.946607 0.315945
vn -0.099826 0.790874 0.603782
vn -0.088108 0.865650 0.492836
vn -0.082995 0.891104 0.446145
vn -0.070046 0.940888 0.331395
vn -0.096030 0.792118 0.602766
vn -0.084965 0.865990 0.492791
vn -0.080213 0.890800 0.447259
vn -0.067930 0.940432 0.333128
vn -0.097292 0.791349 0.603574
vn -0.085930 0.866131 0.492376
vn -0.081031 0.891280 0.446155
vn -0.068466 0.941076 0.331192
vn -0.524300 0.776248 0.350069
vn -0.486765 0.853425 0.186348
vn -0.484635 0.856279 0.178649
vn -0.429833 0.902867 0.008647
vn 0.001703 0.821482 0.570232
vn -0.057773 0.876796 0.477379
vn -0.091452 0.902480 0.420911
vn -0.144789 0.934407 0.325452
vn 0.004724 0.820797 0.571200
vn -0.054961 0.876282 0.478653
vn -0.088865 0.902133 0.422206
vn -0.142521 0.934260 0.326874
vn 0.034357 0.840377 0.540913
vn -0.047976 0.884048 0.464927
vn -0.096275 0.903841 0.416897
vn -0.170048 0.925494 0.338445
vn -0.032541 0.805558 0.591623
vn -0.066310 0.870976 0.486829
vn -0.083195 0.898971 0.430034
vn -0.113002 0.939992 0.321941
vn 0.048915 0.850539 0.523632
vn -0.044735 0.888357 0.456969
vn -0.098675 0.904316 0.415302
vn -0.182040 0.920378 0.346073
vn 0.005947 0.820750 0.571257
vn -0.054245 0.876578 0.478192
vn -0.088268 0.902426 0.421706
vn -0.142308 0.934614 0.325953
vn 0.002484 0.821370 0.570391
vn -0.057121 0.876758 0.477527
vn -0.090856 0.902460 0.421083
vn -0.144334 0.934434 0.325577
vn -0.414063 0.772761 0.481032
vn -0.407066 0.843974 0.349293
vn -0.404083 0.858012 0.317069
vn -0.387393 0.902937 0.186096
vn -0.056546 0.815171 0.576453
vn 0.019302 0.908184 0.418126
vn -0.007374 0.879476 0.475887
vn 0.064141 0.946607 0.315945
vn -0.099826 0.790874 0.603782
vn -0.088108 0.865650 0.492836
vn -0.082995 0.891104 0.446145
vn -0.070046 0.940888 0.331395
vn -0.096030 0.792118 0.602766
vn -0.084965 0.865990 0.492791
vn -0.080213 0.890800 0.447259
vn -0.067930 0.940432 0.333128
vn -0.097292 0.791349 0.603574
vn -0.085930 0.866131 0.492376
vn -0.081031 0.891280 0.446155
vn -0.068466 0.941076 0.331192
vn -0.524300 0.776248 0.350069
vn -0.486765 0.853425 0.186348
vn -0.484635 0.856279 0.178649
vn -0.429833 0.902867 0.008647
vn 0.001703 0.821482 0.570232
vn -0.057773 0.876796 0.477379
vn -0.091452 0.902480 0.420911
vn -0.144789 0.934407 0.325452
vn 0.003157 0.924265 0.381738
vn -0.032884 0.949165 0.313055
vn -0.057478 0.962604 0.264746
vn -0.088300 0.975290 0.202518
vn 0.022660 0.933920 0.356763
vn -0.027506 0.953091 0.301431
vn -0.062406 0.963111 0.261769
vn -0.105966 0.971746 0.210904
vn -0.021972 0.916481 0.399474
vn -0.041694 0.946712 0.319371
vn -0.053277 0.961234 0.270539
vn -0.069748 0.977574 0.198709
vn 0.032043 0.938783 0.343015
vn -0.025394 0.955282 0.294602
vn -0.063758 0.963171 0.261222
vn -0.113823 0.969650 0.216388
vn 0.003975 0.924241 0.381788
vn -0.032400 0.949295 0.312713
vn -0.057092 0.962727 0.264380
vn -0.088148 0.975432 0.201900
vn 0.001660 0.924553 0.381050
vn -0.034274 0.949386 0.312236
vn -0.058718 0.962739 0.263980
vn -0.089413 0.975359 0.201691
vn -0.037934 0.921420 0.386713
vn 0.012921 0.965073 0.261663
vn -0.006475 0.950696 0.310055
vn 0.039417 0.980177 0.194162
vn -0.068077 0.908750 0.411751
vn -0.057429 0.944981 0.322045
vn -0.052903 0.957259 0.284354
vn -0.043209 0.977928 0.204424
vn -0.065433 0.909414 0.410712
vn -0.055359 0.945158 0.321888
vn -0.051141 0.957122 0.285134
vn -0.041916 0.977748 0.205554
vn -0.066327 0.909004 0.411476
vn -0.055988 0.945210 0.321627
vn -0.051646 0.957332 0.284339
vn -0.042228 0.978003 0.204274
vn -0.361104 0.900817 0.241106
vn -0.321532 0.937860 0.130522
vn -0.314347 0.942726 0.111599
vn -0.271899 0.962310 0.005470
vn 0.001138 0.924609 0.380915
vn -0.034698 0.949404 0.312133
vn -0.059091 0.962747 0.263868
vn -0.089696 0.975349 0.201617
vn -0.776769 0.575125 -0.256634
vn -0.937397 0.029397 -0.347020
vn -0.917086 -0.187847 -0.351662
vn -0.423840 -0.881729 -0.207154
vn -0.806613 0.511347 -0.296480
vn -0.813532 0.502166 -0.293248
vn -0.812633 0.503372 -0.293674
vn -0.818543 0.495374 -0.290847
vn -0.806560 0.511474 -0.296404
vn -0.992359 0.043568 -0.115435
vn -0.970020 0.174620 -0.169021
vn -0.878419 -0.464598 0.111934
vn -0.881646 0.342115 0.325050
vn -0.841073 0.487635 0.234110
vn -0.803407 0.569154 0.174929
vn -0.727726 0.681136 0.080428
vn -0.891272 0.374371 0.255892
vn -0.824451 0.528650 0.202014
vn -0.768234 0.618742 0.164241
vn -0.669842 0.734894 0.106030
vn -0.833028 0.399533 0.382671
vn -0.807035 0.530857 0.258622
vn -0.782557 0.592934 0.189825
vn -0.720004 0.691282 0.061019
vn -0.917292 0.326195 0.228413
vn -0.849991 0.489281 0.195241
vn -0.794388 0.582708 0.171461
vn -0.695079 0.706568 0.132763
vn -0.913877 0.336060 0.227799
vn -0.844997 0.498001 0.194872
vn -0.788153 0.591220 0.171099
vn -0.688290 0.713166 0.132856
vn -0.881704 0.346993 0.319678
vn -0.840174 0.492390 0.227287
vn -0.801724 0.573841 0.167168
vn -0.724894 0.685125 0.071646
vn -0.881038 0.337032 0.331936
vn -0.840183 0.486325 0.239958
vn -0.802539 0.568503 0.180927
vn -0.724763 0.683828 0.084255
vn -0.882195 0.327878 0.337975
vn -0.840907 0.483187 0.243735
vn -0.801711 0.569163 0.182516
vn -0.720675 0.688301 0.082882
vn -0.883490 0.324398 0.337952
vn -0.841668 0.483007 0.241452
vn -0.801245 0.571140 0.178338
vn -0.717630 0.692254 0.076101
vn -0.839299 0.397969 0.370401
vn -0.884519 0.459739 0.079163
vn -0.877064 0.441506 0.189293
vn -0.874034 0.476639 -0.094234
vn -0.917080 0.387395 0.094288
vn -0.831376 0.533340 0.156088
vn -0.783532 0.593946 0.182498
vn -0.674539 0.701254 0.230739
vn -0.795653 0.405223 0.450256
vn -0.814668 0.509774 0.276489
vn -0.812973 0.544617 0.206074
vn -0.786703 0.616838 0.024705
vn -0.965838 0.256648 -0.035908
vn -0.990519 -0.133165 -0.033755
vn -0.905666 -0.423032 -0.028530
vn -0.520863 -0.853560 -0.011681
vn -0.936227 0.342593 0.078161
vn -0.972926 0.120826 0.197018
vn -0.972820 0.078311 0.217922
vn -0.912920 -0.215346 0.346704
vn -0.823030 0.567996 0.001546
vn -0.782433 0.621578 -0.037954
vn -0.760729 0.646536 -0.057289
vn -0.721922 0.686169 -0.089448
vn -0.806541 0.511349 -0.296672
vn -0.813500 0.502116 -0.293422
vn -0.812597 0.503327 -0.293849
vn -0.818543 0.495281 -0.291004
vn -0.935935 0.243494 0.254433
vn -0.902454 0.396799 0.167714
vn -0.867021 0.485738 0.111057
vn -0.795721 0.605122 0.025594
vn -0.934502 0.252641 0.250756
vn -0.899234 0.405472 0.164227
vn -0.862509 0.494513 0.107397
vn -0.790124 0.612528 0.022670
vn -0.990184 -0.042710 0.133085
vn -0.995082 0.096917 0.020446
vn -0.981999 0.182168 -0.049926
vn -0.940796 0.303016 -0.151936
vn -0.991220 -0.034098 0.127753
vn -0.994296 0.105507 0.015641
vn -0.980045 0.191095 -0.054725
vn -0.937632 0.310910 -0.155503
vn -0.990206 -0.042557 0.132972
vn -0.995072 0.097053 0.020312
vn -0.981968 0.182294 -0.050073
vn -0.940770 0.303047 -0.152032
vn -0.991264 -0.033771 0.127497
vn -0.994274 0.105736 0.015442
vn -0.979991 0.191313 -0.054927
vn -0.937559 0.311053 -0.155660
vn -0.990206 -0.042556 0.132967
vn -0.995076 0.097003 0.020364
vn -0.981989 0.182208 -0.049980
vn -0.940822 0.302946 -0.151911
vn -0.745553 0.615050 -0.256638
vn -0.752442 0.605354 -0.259572
vn -0.751547 0.606627 -0.259191
vn -0.757438 0.598163 -0.261706
vn -0.778593 0.553021 -0.296582
vn -0.786084 0.544097 -0.293308
vn -0.785110 0.545271 -0.293739
vn -0.791516 0.537490 -0.290874
vn -0.778654 0.552993 -0.296473
vn -0.786136 0.544079 -0.293204
vn -0.785161 0.545252 -0.293635
vn -0.791563 0.537474 -0.290773
vn -0.862490 0.387873 0.325063
vn -0.814355 0.531052 0.234117
vn -0.772464 0.610494 0.174917
vn -0.691018 0.718352 0.080402
vn -0.891272 0.374371 0.255892
vn -0.824451 0.528650 0.202014
vn -0.768234 0.618742 0.164241
vn -0.669842 0.734894 0.106030
vn -0.832987 0.399613 0.382677
vn -0.806989 0.530921 0.258633
vn -0.782521 0.592969 0.189864
vn -0.720010 0.691266 0.061126
vn -0.898948 0.373818 0.228371
vn -0.823213 0.533121 0.195200
vn -0.762802 0.623496 0.171421
vn -0.657165 0.741969 0.132727
vn -0.895082 0.383301 0.227833
vn -0.817848 0.541414 0.194925
vn -0.756235 0.631514 0.171169
vn -0.650145 0.748091 0.132938
vn -0.890489 0.323784 0.319676
vn -0.852773 0.470249 0.227254
vn -0.816449 0.552710 0.167101
vn -0.742539 0.665970 0.071556
vn -0.862204 0.382711 0.331867
vn -0.813557 0.529716 0.239846
vn -0.771626 0.609846 0.180780
vn -0.687851 0.720968 0.084059
vn -0.863879 0.373324 0.338146
vn -0.814493 0.526465 0.243795
vn -0.770802 0.610376 0.182497
vn -0.683534 0.725213 0.082748
vn -0.865290 0.370169 0.338006
vn -0.815219 0.526411 0.241473
vn -0.770224 0.612335 0.178329
vn -0.680366 0.728914 0.076064
vn -0.817248 0.441376 0.370530
vn -0.859207 0.505473 0.079128
vn -0.852712 0.486861 0.189340
vn -0.847834 0.521799 -0.094357
vn -0.895544 0.434882 0.094222
vn -0.802265 0.576206 0.156069
vn -0.751298 0.634230 0.182491
vn -0.636769 0.735712 0.230766
vn -0.773408 0.446250 0.450223
vn -0.786927 0.551657 0.276442
vn -0.783410 0.586362 0.206030
vn -0.753388 0.657114 0.024644
vn -0.951059 0.306914 -0.035927
vn -0.898745 0.437043 -0.035361
vn -0.873087 0.486312 -0.034944
vn -0.804942 0.592402 -0.033598
vn -0.916995 0.391173 0.078128
vn -0.864753 0.502098 0.010026
vn -0.839306 0.543392 -0.017060
vn -0.772033 0.630748 -0.078244
vn -0.792094 0.610397 0.001418
vn -0.748804 0.661700 -0.038022
vn -0.725852 0.685458 -0.057332
vn -0.685068 0.722965 -0.089455
vn -0.909291 0.107326 -0.402084
vn -0.808505 0.435429 -0.395882
vn -0.850584 0.337878 -0.402921
vn -0.776513 0.495716 -0.388964
vn -0.921877 0.292224 0.254456
vn -0.880419 0.443526 0.167767
vn -0.840398 0.530452 0.111140
vn -0.762972 0.645921 0.025703
vn -0.919999 0.301148 0.250822
vn -0.876783 0.451959 0.164270
vn -0.835442 0.538977 0.107422
vn -0.756956 0.653073 0.022663
vn -0.991087 0.009299 0.132892
vn -0.988648 0.148871 0.020330
vn -0.971130 0.233254 -0.049995
vn -0.923717 0.351666 -0.151914
vn -0.991627 0.017724 0.127918
vn -0.986869 0.161017 0.012761
vn -0.983382 0.181504 -0.004105
vn -0.946924 0.303267 -0.106603
vn -0.991067 0.009249 0.133040
vn -0.988639 0.148925 0.020381
vn -0.971103 0.233365 -0.050005
vn -0.923658 0.351798 -0.151964
vn -0.991653 0.018041 0.127665
vn -0.987386 0.157564 0.015576
vn -0.968654 0.242295 -0.054806
vn -0.920021 0.359672 -0.155557
vn -0.991067 0.009248 0.133043
vn -0.988643 0.148886 0.020446
vn -0.971131 0.233276 -0.049876
vn -0.923727 0.351693 -0.151790
vn -0.883522 0.324262 0.338000
vn -0.841713 0.482920 0.241468
vn -0.801291 0.571077 0.178334
vn -0.717679 0.692205 0.076081
vn -0.881589 0.342122 0.325196
vn -0.841030 0.487639 0.234257
vn -0.803368 0.569169 0.175065
vn -0.727699 0.681149 0.080557
vn -0.959050 -0.121425 0.255890
vn -0.978319 0.045582 0.202025
vn -0.974683 0.151692 0.164264
vn -0.947556 0.301476 0.106063
vn -0.921229 -0.070397 0.382597
vn -0.964355 0.056315 0.258549
vn -0.974183 0.122296 0.189764
vn -0.969184 0.238650 0.061055
vn -0.953227 0.159880 -0.256508
vn -0.954348 0.148005 -0.259451
vn -0.954210 0.149559 -0.259068
vn -0.955080 0.139255 -0.261590
vn -0.950781 0.089782 -0.296571
vn -0.952821 0.078236 -0.293277
vn -0.952562 0.079750 -0.293711
vn -0.954229 0.069746 -0.290829
vn -0.950852 0.089381 -0.296466
vn -0.952866 0.077953 -0.293205
vn -0.952610 0.079451 -0.293635
vn -0.954259 0.069542 -0.290780
vn -0.940870 -0.095325 0.325081
vn -0.970777 0.052794 0.234106
vn -0.974212 0.142560 0.174894
vn -0.957586 0.276714 0.080362
vn -0.959048 -0.121529 0.255848
vn -0.978337 0.045540 0.201948
vn -0.974699 0.151700 0.164160
vn -0.947565 0.301489 0.105944
vn -0.921232 -0.070481 0.382575
vn -0.964360 0.056201 0.258556
vn -0.974197 0.122196 0.189758
vn -0.969204 0.238579 0.061019
vn -0.965413 -0.125830 0.228353
vn -0.979492 0.050025 0.195172
vn -0.972367 0.158521 0.171385
vn -0.940121 0.313956 0.132683
vn -0.966809 -0.115669 0.227820
vn -0.978991 0.059948 0.194892
vn -0.970676 0.168837 0.171121
vn -0.937065 0.322885 0.132870
vn -0.943174 -0.091122 0.319562
vn -0.972167 0.057287 0.227176
vn -0.974879 0.147299 0.167075
vn -0.956935 0.281342 0.071562
vn -0.938030 -0.099814 0.331869
vn -0.969433 0.051909 0.239801
vn -0.973186 0.142300 0.180718
vn -0.956181 0.280476 0.083965
vn -0.934816 -0.108593 0.338123
vn -0.968601 0.048692 0.243807
vn -0.972718 0.143166 0.182548
vn -0.954568 0.286255 0.082816
vn -0.934452 -0.112079 0.337990
vn -0.969208 0.048239 0.241473
vn -0.973207 0.145121 0.178349
vn -0.953700 0.290969 0.076117
vn -0.928448 -0.026384 0.370525
vn -0.996831 0.008148 0.079133
vn -0.981906 -0.004720 0.189309
vn -0.995143 0.027978 -0.094378
vn -0.993002 -0.071097 0.094304
vn -0.982878 0.097855 0.156124
vn -0.967762 0.173548 0.182533
vn -0.919348 0.318645 0.230790
vn -0.892848 -0.000257 0.450358
vn -0.957302 0.084294 0.276528
vn -0.971619 0.116120 0.206089
vn -0.981002 0.192426 0.024638
vn -0.977133 -0.209571 -0.035940
vn -0.996864 -0.070777 -0.035381
vn -0.999271 -0.015290 -0.034967
vn -0.993297 0.110589 -0.033629
vn -0.989719 -0.119743 0.078220
vn -0.999946 0.002438 0.010123
vn -0.998559 0.050921 -0.016962
vn -0.983984 0.160215 -0.078149
vn -0.991154 0.132707 0.001416
vn -0.979330 0.198676 -0.037968
vn -0.971343 0.230683 -0.057255
vn -0.954811 0.283471 -0.089331
vn -0.950816 0.089427 -0.296566
vn -0.952827 0.078025 -0.293312
vn -0.952572 0.079519 -0.293740
vn -0.954219 0.069633 -0.290892
vn -0.944429 -0.208005 0.254534
vn -0.984221 -0.056154 0.167796
vn -0.993033 0.039204 0.111128
vn -0.983693 0.178019 0.025625
vn -0.947334 -0.199108 0.250828
vn -0.985292 -0.046964 0.164301
vn -0.992999 0.049034 0.107465
vn -0.982099 0.186987 0.022755
vn -0.862857 -0.487642 0.132978
vn -0.930589 -0.365499 0.020353
vn -0.957633 -0.283615 -0.050020
vn -0.975785 -0.157285 -0.152003
vn -0.867669 -0.480420 0.127855
vn -0.935160 -0.353996 0.012737
vn -0.942383 -0.334512 -0.004129
vn -0.971681 -0.210892 -0.106586
vn -0.862849 -0.487641 0.133035
vn -0.930635 -0.365385 0.020293
vn -0.957678 -0.283440 -0.050134
vn -0.975796 -0.157072 -0.152152
vn -0.867829 -0.480172 0.127702
vn -0.933897 -0.357201 0.015592
vn -0.960044 -0.274426 -0.054824
vn -0.976603 -0.148455 -0.155589
vn -0.862898 -0.487553 0.133037
vn -0.930608 -0.365444 0.020474
vn -0.957638 -0.283631 -0.049825
vn -0.975811 -0.157382 -0.151734
vn -0.939732 0.306615 0.151295
vn -0.874288 0.470611 0.118938
vn -0.819451 0.564898 0.096903
vn -0.720695 0.690435 0.062431
vn -0.936556 0.316429 0.150785
vn -0.869547 0.479340 0.118830
vn -0.813487 0.573452 0.096908
vn -0.714174 0.697129 0.062982
vn -0.911569 0.330636 0.244381
vn -0.866935 0.474830 0.151528
vn -0.826160 0.555826 0.092288
vn -0.745225 0.666813 -0.000190
vn -0.911596 0.321033 0.256770
vn -0.867734 0.469144 0.164141
vn -0.827834 0.550888 0.105886
vn -0.745935 0.665906 0.012212
vn -0.931044 0.364560 0.015896
vn -0.853828 0.514356 0.080097
vn -0.809604 0.576880 0.108399
vn -0.707133 0.688317 0.161808
vn -0.794803 0.481997 -0.368737
vn -0.801780 0.472620 -0.365758
vn -0.800874 0.473851 -0.366151
vn -0.806836 0.465682 -0.363533
vn -0.995975 -0.066184 0.060444
vn -0.995952 0.070435 -0.055837
vn -0.979804 0.154252 -0.127243
vn -0.934179 0.273606 -0.229017
vn -0.996794 -0.057947 0.055175
vn -0.995041 0.078886 -0.060576
vn -0.977728 0.163181 -0.131984
vn -0.930881 0.281741 -0.232558
vn -0.924201 0.282853 -0.256605
vn -0.926844 0.271301 -0.259528
vn -0.926506 0.272815 -0.259148
vn -0.928701 0.262777 -0.261654
vn -0.931024 0.212857 -0.296455
vn -0.934506 0.201820 -0.293202
vn -0.934057 0.203267 -0.293631
vn -0.936980 0.193685 -0.290784
vn -0.996119 -0.080344 -0.035950
vn -0.997576 0.059919 -0.035385
vn -0.992719 0.115263 -0.034968
vn -0.970347 0.239365 -0.033622
vn -0.996891 0.010429 0.078100
vn -0.991075 0.132933 0.009981
vn -0.983365 0.180833 -0.017111
vn -0.954631 0.287310 -0.078311
g fff07975_00145_00421e60_e1
f 515/11/515 514/10/514 513/9/513
f 516/12/516 514/10/514 515/11/515
f 519/3/519 518/2/518 517/1/517
f 520/4/520 518/2/518 519/3/519
f 503/18/503 502/19/502 501/20/501
f 504/17/504 502/19/502 503/18/503
f 451/18/451 450/19/450 449/20/449
f 452/17/452 450/19/450 451/18/451
f 379/11/379 378/10/378 377/9/377
f 380/12/380 378/10/378 379/11/379
f 383/15/383 382/14/382 381/13/381
f 384/16/384 382/14/382 383/15/383
f 387/3/387 386/2/386 385/1/385
f 388/4/388 386/2/386 387/3/387
f 331/18/331 330/19/330 329/20/329
f 332/17/332 330/19/330 331/18/331
f 259/11/259 258/10/258 257/9/257
f 260/12/260 258/10/258 259/11/259
f 263/15/263 262/14/262 261/13/261
f 264/16/264 262/14/262 263/15/263
f 267/3/267 266/2/266 265/1/265
f 268/4/268 266/2/266 267/3/267
f 227/18/227 226/19/226 225/20/225
f 228/17/228 226/19/226 227/18/227
f 155/11/155 154/10/154 153/9/153
f 156/12/156 154/10/154 155/11/155
f 159/15/159 158/14/158 157/13/157
f 160/16/160 158/14/158 159/15/159
f 163/3/163 162/2/162 161/1/161
f 164/4/164 162/2/162 163/3/163
g fff07975_00145_00421e60_e0
f 528/8/528 526/6/526 527/7/527
f 527/7/527 526/6/526 525/5/525
f 524/8/524 522/6/522 523/7/523
f 523/7/523 522/6/522 521/5/521
f 507/7/507 506/6/506 505/5/505
f 508/8/508 506/6/506 507/7/507
f 511/7/511 510/6/510 509/5/509
f 512/8/512 510/6/510 511/7/511
f 499/7/499 498/6/498 497/5/497
f 500/8/500 498/6/498 499/7/499
f 495/7/495 494/6/494 493/5/493
f 496/8/496 494/6/494 495/7/495
f 483/7/483 482/6/482 481/5/481
f 484/8/484 482/6/482 483/7/483
f 487/7/487 486/6/486 485/5/485
f 488/8/488 486/6/486 487/7/487
f 491/7/491 490/6/490 489/5/489
f 492/8/492 490/6/490 491/7/491
f 475/7/475 474/6/474 473/5/473
f 476/8/476 474/6/474 475/7/475
f 463/7/463 462/6/462 461/5/461
f 464/8/464 462/6/462 463/7/463
f 467/7/467 466/6/466 465/5/465
f 468/8/468 466/6/466 467/7/467
f 455/7/455 454/6/454 453/5/453
f 456/8/456 454/6/454 455/7/455
f 459/7/459 458/6/458 457/5/457
f 460/8/460 458/6/458 459/7/459
f 444/8/444 442/6/442 443/7/443
f 443/7/443 442/6/442 441/5/441
f 435/7/435 434/6/434 433/5/433
f 436/8/436 434/6/434 435/7/435
f 440/8/440 438/6/438 439/7/439
f 439/7/439 438/6/438 437/5/437
f 448/8/448 446/6/446 447/7/447
f 447/7/447 446/6/446 445/5/445
f 472/8/472 470/6/470 471/7/471
f 471/7/471 470/6/470 469/5/469
f 426/7/426 425/5/425 427/6/427
f 428/8/428 426/7/426 427/6/427
f 431/7/431 430/6/430 429/5/429
f 432/8/432 430/6/430 431/7/431
f 415/7/415 414/6/414 413/5/413
f 416/8/416 414/6/414 415/7/415
f 419/7/419 418/6/418 417/5/417
f 420/8/420 418/6/418 419/7/419
f 423/7/423 422/6/422 421/5/421
f 424/8/424 422/6/422 423/7/423
f 399/7/399 398/6/398 397/5/397
f 400/8/400 398/6/398 399/7/399
f 403/7/403 402/6/402 401/5/401
f 404/8/404 402/6/402 403/7/403
f 407/7/407 406/6/406 405/5/405
f 408/8/408 406/6/406 407/7/407
f 411/7/411 410/6/410 409/5/409
f 412/8/412 410/6/410 411/7/411
f 391/7/391 390/6/390 389/5/389
f 392/8/392 390/6/390 391/7/391
f 395/7/395 394/6/394 393/5/393
f 396/8/396 394/6/394 395/7/395
f 480/8/480 478/6/478 479/7/479
f 479/7/479 478/6/478 477/5/477
f 375/7/375 374/6/374 373/5/373
f 376/8/376 374/6/374 375/7/375
f 371/7/371 370/6/370 369/5/369
f 372/8/372 370/6/370 371/7/371
f 367/7/367 366/6/366 365/5/365
f 368/8/368 366/6/366 367/7/367
f 363/7/363 362/6/362 361/5/361
f 364/8/364 362/6/362 363/7/363
f 355/7/355 354/6/354 353/5/353
f 356/8/356 354/6/354 355/7/355
f 343/7/343 342/6/342 341/5/341
f 344/8/344 342/6/342 343/7/343
f 347/7/347 346/6/346 345/5/345
f 348/8/348 346/6/346 347/7/347
f 335/7/335 334/6/334 333/5/333
f 336/8/336 334/6/334 335/7/335
f 339/7/339 338/6/338 337/5/337
f 340/8/340 338/6/338 339/7/339
f 324/8/324 322/6/322 323/7/323
f 323/7/323 322/6/322 321/5/321
f 315/7/315 314/6/314 313/5/313
f 316/8/316 314/6/314 315/7/315
f 320/8/320 318/6/318 319/7/319
f 319/7/319 318/6/318 317/5/317
f 328/8/328 326/6/326 327/7/327
f 327/7/327 326/6/326 325/5/325
f 352/8/352 350/6/350 351/7/351
f 351/7/351 350/6/350 349/5/349
f 306/7/306 305/5/305 307/6/307
f 308/8/308 306/7/306 307/6/307
f 311/7/311 310/6/310 309/5/309
f 312/8/312 310/6/310 311/7/311
f 295/7/295 294/6/294 293/5/293
f 296/8/296 294/6/294 295/7/295
f 299/7/299 298/6/298 297/5/297
f 300/8/300 298/6/298 299/7/299
f 303/7/303 302/6/302 301/5/301
f 304/8/304 302/6/302 303/7/303
f 279/7/279 278/6/278 277/5/277
f 280/8/280 278/6/278 279/7/279
f 283/7/283 282/6/282 281/5/281
f 284/8/284 282/6/282 283/7/283
f 287/7/287 286/6/286 285/5/285
f 288/8/288 286/6/286 287/7/287
f 291/7/291 290/6/290 289/5/289
f 292/8/292 290/6/290 291/7/291
f 271/7/271 270/6/270 269/5/269
f 272/8/272 270/6/270 271/7/271
f 275/7/275 274/6/274 273/5/273
f 276/8/276 274/6/274 275/7/275
f 360/8/360 358/6/358 359/7/359
f 359/7/359 358/6/358 357/5/357
f 251/7/251 250/6/250 249/5/249
f 252/8/252 250/6/250 251/7/251
f 239/7/239 238/6/238 237/5/237
f 240/8/240 238/6/238 239/7/239
f 243/7/243 242/6/242 241/5/241
f 244/8/244 242/6/242 243/7/243
f 231/7/231 230/6/230 229/5/229
f 232/8/232 230/6/230 231/7/231
f 235/7/235 234/6/234 233/5/233
f 236/8/236 234/6/234 235/7/235
f 220/8/220 218/6/218 219/7/219
f 219/7/219 218/6/218 217/5/217
f 211/7/211 210/6/210 209/5/209
f 212/8/212 210/6/210 211/7/211
f 216/8/216 214/6/214 215/7/215
f 215/7/215 214/6/214 213/5/213
f 224/8/224 222/6/222 223/7/223
f 223/7/223 222/6/222 221/5/221
f 248/8/248 246/6/246 247/7/247
f 247/7/247 246/6/246 245/5/245
f 202/7/202 201/5/201 203/6/203
f 204/8/204 202/7/202 203/6/203
f 207/7/207 206/6/206 205/5/205
f 208/8/208 206/6/206 207/7/207
f 191/7/191 190/6/190 189/5/189
f 192/8/192 190/6/190 191/7/191
f 195/7/195 194/6/194 193/5/193
f 196/8/196 194/6/194 195/7/195
f 199/7/199 198/6/198 197/5/197
f 200/8/200 198/6/198 199/7/199
f 175/7/175 174/6/174 173/5/173
f 176/8/176 174/6/174 175/7/175
f 179/7/179 178/6/178 177/5/177
f 180/8/180 178/6/178 179/7/179
f 8/8/8 7/7/7 6/6/6
f 7/7/7 5/5/5 6/6/6
f 4/8/4 3/7/3 2/6/2
f 3/7/3 1/5/1 2/6/2
f 16/8/16 15/7/15 14/6/14
f 15/7/15 13/5/13 14/6/14
f 12/8/12 11/7/11 10/6/10
f 11/7/11 9/5/9 10/6/10
f 24/8/24 23/7/23 22/6/22
f 23/7/23 21/5/21 22/6/22
f 20/8/20 19/7/19 18/6/18
f 19/7/19 17/5/17 18/6/18
f 36/8/36 35/7/35 34/6/34
f 35/7/35 33/5/33 34/6/34
f 32/8/32 31/6/31 30/7/30
f 30/7/30 31/6/31 29/5/29
f 28/8/28 27/7/27 26/6/26
f 27/7/27 25/5/25 26/6/26
f 48/8/48 47/7/47 46/6/46
f 47/7/47 45/5/45 46/6/46
f 44/8/44 43/7/43 42/6/42
f 43/7/43 41/5/41 42/6/42
f 40/8/40 39/7/39 38/6/38
f 39/7/39 37/5/37 38/6/38
f 52/8/52 51/7/51 50/6/50
f 51/7/51 49/5/49 50/6/50
f 60/8/60 59/7/59 58/6/58
f 59/7/59 57/5/57 58/6/58
f 56/8/56 55/7/55 54/6/54
f 55/7/55 53/5/53 54/6/54
f 68/8/68 67/7/67 66/6/66
f 67/7/67 65/5/65 66/6/66
f 64/8/64 63/7/63 62/6/62
f 63/7/63 61/5/61 62/6/62
f 76/8/76 75/7/75 74/6/74
f 75/7/75 73/5/73 74/6/74
f 72/8/72 71/7/71 70/6/70
f 71/7/71 69/5/69 70/6/70
f 88/8/88 87/7/87 86/6/86
f 87/7/87 85/5/85 86/6/86
f 84/8/84 83/6/83 82/7/82
f 82/7/82 83/6/83 81/5/81
f 80/8/80 79/7/79 78/6/78
f 79/7/79 77/5/77 78/6/78
f 100/8/100 99/7/99 98/6/98
f 99/7/99 97/5/97 98/6/98
f 96/8/96 95/7/95 94/6/94
f 95/7/95 93/5/93 94/6/94
f 92/8/92 91/7/91 90/6/90
f 91/7/91 89/5/89 90/6/90
f 104/8/104 103/7/103 102/6/102
f 103/7/103 101/5/101 102/6/102
f 112/8/112 111/7/111 110/6/110
f 111/7/111 109/5/109 110/6/110
f 108/8/108 107/7/107 106/6/106
f 107/7/107 105/5/105 106/6/106
f 120/8/120 119/7/119 118/6/118
f 119/7/119 117/5/117 118/6/118
f 116/8/116 115/7/115 114/6/114
f 115/7/115 113/5/113 114/6/114
f 128/8/128 127/7/127 126/6/126
f 127/7/127 125/5/125 126/6/126
f 124/8/124 123/7/123 122/6/122
f 123/7/123 121/5/121 122/6/122
f 136/8/136 135/7/135 134/6/134
f 135/7/135 133/5/133 134/6/134
f 132/8/132 131/6/131 130/7/130
f 130/7/130 131/6/131 129/5/129
f 148/8/148 147/7/147 146/6/146
f 147/7/147 145/5/145 146/6/146
f 144/8/144 143/7/143 142/6/142
f 143/7/143 141/5/141 142/6/142
f 140/8/140 139/7/139 138/6/138
f 139/7/139 137/5/137 138/6/138
f 152/8/152 151/7/151 150/6/150
f 151/7/151 149/5/149 150/6/150
f 255/7/255 254/6/254 253/5/253
f 256/8/256 254/6/254 255/7/255
f 172/8/172 170/6/170 171/7/171
f 171/7/171 170/6/170 169/5/169
f 168/8/168 166/6/166 167/7/167
f 167/7/167 166/6/166 165/5/165
f 188/8/188 186/6/186 187/7/187
f 187/7/187 186/6/186 185/5/185
f 184/8/184 182/6/182 183/7/183
f 183/7/183 182/6/182 181/5/181
