# fff0a81b_00768_0107b946
o fff0a81b_00768_0107b946
v -0.100403 -1.479797 2.487041
v -0.024170 1.654236 -0.100883
v -0.024109 -1.634216 -0.100883
v -0.100464 1.499817 -0.100883
v 0.096558 1.654236 -0.100883
v 0.096558 1.499817 -0.100883
v 0.096558 -1.634216 -0.100883
v 0.096558 -1.479797 -0.100883
v -0.100403 -1.479797 -0.100883
v -0.107056 1.510071 -2.647278
v -0.089966 1.510071 -0.099838
v -0.100464 1.499817 2.487041
v -0.030762 -1.636780 -2.795578
v 0.096558 -1.479797 2.487041
v -0.024109 -1.634216 2.635342
v -0.019348 -1.806824 -0.100883
v -0.019348 -1.806824 2.795578
v -0.013672 -1.636780 -0.099838
v -0.019409 1.645081 2.625916
v -0.019409 1.806824 2.795578
v -0.019409 1.806702 -0.100883
v -0.019409 1.644958 -0.100883
v -0.024170 1.654236 2.635342
v -0.024109 -1.634216 2.635342
v -0.089966 -1.482361 -0.099838
v -0.013672 1.664490 -0.099838
v -0.030762 1.664490 -2.795578
v -0.107056 -1.482361 -2.647278
v -0.013672 -1.636780 -0.099838
v 0.096558 1.499817 2.487041
v 0.106995 1.664490 -0.099838
v 0.106995 1.510071 -0.099838
v 0.107056 -1.636780 -0.099838
v 0.107056 -1.482361 -0.099838
v 0.089966 -1.482361 -2.647278
v 0.089905 1.510071 -2.647278
v 0.089905 1.664490 -2.795578
v 0.089966 -1.636780 -2.795578
v 0.096558 -1.634216 2.635342
v 0.096558 1.654236 2.635342
vt 0.000000 1.000000
vt 0.000000 1.000000
vt 0.000000 1.000000
vt 0.000000 1.000000
vt 0.000000 1.000000
vt 0.000000 1.000000
vt 0.000000 1.000000
vt 0.000000 1.000000
vt 0.000000 1.000000
vt 0.000000 1.000000
vt 0.000000 1.000000
vt 0.000000 1.000000
vt 0.000000 1.000000
vt 0.000000 1.000000
vt 0.000000 1.000000
vt 0.000000 1.000000
vn 0.000000 0.707102 -0.707111
vn 0.000000 1.000000 0.000000
vn 0.000000 -1.000000 0.000000
vn 0.000000 -1.000000 0.000000
vn 0.707107 0.707107 0.000000
vn 0.707107 -0.707107 0.000000
vn 0.707107 -0.707107 0.000000
vn 0.707107 0.707107 0.000000
vn 0.000000 1.000000 0.000000
vn 0.000000 -0.705592 0.708619
vn 0.000000 -1.000000 0.000000
vn 0.000000 -0.707111 -0.707102
vn 0.000000 -1.000000 0.000000
vn 0.904534 0.301511 -0.301511
vn 0.999796 0.014513 -0.014071
vn 0.999443 -0.033363 0.000000
vn 0.999840 0.013196 -0.012111
vn 0.999522 -0.030930 0.000143
vn 1.000000 -0.000007 -0.000316
vn 1.000000 0.000009 -0.000008
vn 1.000000 0.000000 0.000000
vn 1.000000 0.000000 0.000000
vn 0.000000 0.707111 0.707103
vn 0.000000 -0.707103 0.707111
vn 0.000000 1.000000 0.000000
vn 0.000000 1.000000 0.000000
vn 0.000000 1.000000 0.000000
vn 0.000000 0.705592 0.708618
vn 0.000000 -1.000000 0.000000
vn 0.904534 -0.301511 -0.301511
vn 0.708521 0.705676 -0.004492
vn 0.708521 -0.705675 -0.004501
vn 0.708521 -0.705676 -0.004492
vn 0.708521 0.705675 -0.004501
vn 0.904200 0.305592 0.298387
vn 0.904198 -0.305574 0.298413
vn 0.706757 0.707452 -0.002416
vn 0.706764 -0.707446 -0.002429
vn 0.577350 -0.577350 0.577350
vn 0.577350 0.577351 0.577350
g fff0a81b_00768_0107b946_e3
f 12/4/12 14/7/14 1/3/1
f 14/7/14 12/4/12 30/10/30
g fff0a81b_00768_0107b946_e2
f 33/8/33 29/6/29 13/15/13
f 13/15/13 38/14/38 33/8/33
f 4/5/4 30/10/30 12/4/12
f 30/10/30 4/5/4 6/12/6
f 24/15/24 7/8/7 39/14/39
f 7/8/7 24/15/24 3/6/3
f 11/5/11 10/4/10 36/10/36
f 36/10/36 32/12/32 11/5/11
f 10/4/10 28/3/28 35/7/35
f 35/7/35 36/10/36 10/4/10
f 31/11/31 27/13/27 26/2/26
f 27/13/27 31/11/31 37/16/37
f 25/1/25 35/7/35 28/3/28
f 35/7/35 25/1/25 34/9/34
f 5/11/5 2/2/2 23/13/23
f 23/13/23 40/16/40 5/11/5
f 9/1/9 1/3/1 14/7/14
f 14/7/14 8/9/8 9/1/9
g fff0a81b_00768_0107b946_e1
f 38/14/38 37/16/37 36/10/36
f 36/10/36 35/7/35 38/14/38
f 38/14/38 35/7/35 34/9/34
f 34/9/34 33/8/33 38/14/38
f 37/16/37 32/12/32 36/10/36
f 32/12/32 37/16/37 31/11/31
f 39/14/39 30/10/30 40/16/40
f 30/10/30 39/14/39 14/7/14
f 39/14/39 8/9/8 14/7/14
f 8/9/8 39/14/39 7/8/7
f 40/16/40 30/10/30 6/12/6
f 6/12/6 5/11/5 40/16/40
g fff0a81b_00768_0107b946_e4
f 22/12/22 21/11/21 20/16/20
f 20/16/20 19/10/19 22/12/22
f 18/9/18 17/14/17 16/8/16
f 17/14/17 18/9/18 15/7/15
f 19/10/19 17/14/17 15/7/15
f 17/14/17 19/10/19 20/16/20
g fff0a81b_00768_0107b946_e0
f 40/16/40 24/15/24 39/14/39
f 24/15/24 40/16/40 23/13/23
