# fff07975_00270_00736467
o fff07975_00270_00736467
v -2.618432 -3.759443 -0.993103
v -8.819211 3.242768 -0.977417
v 1.074218 -3.759443 0.723053
v 9.470448 -4.299075 -2.627211
v 2.576040 3.248707 -2.803084
v 5.623194 -4.034111 0.785660
v -0.348315 3.242206 0.475643
v 9.095087 -4.106619 -0.499005
v 1.179657 4.046104 -0.783066
v -5.647263 3.242432 0.419147
v -0.606065 -3.759443 0.358131
v -2.564318 -3.759443 -2.832068
v -9.021769 3.242659 -2.816382
v 6.800041 -4.034111 0.677064
v 1.075430 -3.759443 1.992985
v 5.622326 -4.034111 1.992985
v 7.519267 -4.034111 1.992985
v 8.948964 -4.014863 1.992985
v -4.952261 -3.761720 1.992985
v -4.589452 -3.759363 -2.832068
v 1.049356 -3.759443 0.761370
v 5.623010 -4.034111 0.845947
v 6.799984 -4.034111 0.716608
v 9.096529 -4.106619 -0.469553
v 9.477139 -4.299075 -2.627211
v -0.677703 -3.759443 0.383533
v -2.731378 -3.759443 -0.993103
v -2.668906 -3.759443 -2.832068
v -1.970277 -3.759443 -0.329400
v -7.490808 3.242432 -0.171133
v 8.391667 -4.035145 0.243771
v 0.641708 3.945396 -0.204492
v 8.403226 -4.035145 0.259699
v -2.042507 -3.759443 -0.303924
v 8.780444 -4.036239 0.712004
v 7.475126 -4.034006 1.817217
v 5.622690 -4.034111 1.733073
v 1.062950 -3.759443 1.695911
v -4.966999 -3.761706 1.021451
v 9.248151 -4.126370 0.171388
v 9.751631 -4.299075 -2.627211
v -2.304301 -3.759878 1.701087
v -2.916949 -3.755306 0.242519
v -3.300164 -3.759163 -0.993103
v -3.319729 -3.759621 -2.832068
v -1.468126 -3.759443 1.992985
v 1.066597 -3.759443 1.801107
v 5.622607 -4.034111 1.809964
v -3.803821 -3.759406 -0.119987
v -3.992674 -3.759381 -0.993103
v -4.002429 -3.759387 -2.832068
v -2.919005 -3.759443 1.992985
v 8.957334 -4.012435 1.691246
v -3.633570 -3.759135 1.675885
v 7.772084 -4.034616 0.645910
vt 1.485204 1.020595
vt 1.476725 1.395898
vt 1.578263 1.531356
vt 1.104913 1.684121
vt 1.791977 1.671672
vt 2.911583 1.736758
vt 3.160944 1.648327
vt 2.055213 1.746142
vt 2.090116 1.556843
vt 3.271115 1.496743
vt 2.157667 1.436920
vt 0.578274 1.023903
vt 0.607996 1.399100
vt 3.345531 1.062448
vt 1.935022 1.690654
vt 0.816102 1.563657
vt 2.413184 1.038778
vt 0.679076 1.000000
vt 0.764058 1.381128
vt 0.681902 1.381128
vt 0.495677 1.000000
vt 0.581876 1.381128
vt 0.495677 0.999999
vt 2.281179 1.720816
vt 2.426827 1.734514
vt 2.238286 1.963572
vt 0.773081 1.000000
vt 0.788188 1.000000
vt 0.780372 1.381128
vt 2.140769 1.735469
vt 2.140777 1.727273
vt 2.370672 1.637472
vt 0.946522 2.000000
vt 1.312638 1.960233
vt 1.313914 2.000000
vt 1.313739 1.736804
vt 1.310147 1.744745
vt 1.071038 1.661174
vt 1.970668 2.000000
vt 1.970767 1.762274
vt 1.970720 1.946133
vt 1.970708 1.962068
vt 1.970793 1.749780
vt 2.472482 1.489635
vt 2.472274 1.483531
vt 2.526491 1.042457
vt 2.372341 1.640774
vt 0.863558 1.523962
vt 0.873991 1.518682
vt 2.244662 2.000000
vt 1.060691 1.666438
vt 0.737254 1.637213
vt 0.825745 1.939503
vt 1.312111 1.938431
vt 2.452377 1.937464
vt 2.451168 2.000000
vt 2.527457 1.042457
vt 2.494382 1.622471
vt 0.508204 2.000000
vt 0.506075 1.798648
vt 0.633745 1.934280
vt 0.609154 1.562083
vt 0.580467 1.000000
vt 2.567105 1.042457
vt 0.736957 2.000000
vn 0.748824 -0.549131 -0.371104
vn 0.702201 0.611519 -0.364635
vn 0.013347 -0.964789 -0.262685
vn -0.359639 -0.932873 0.020185
vn -0.701891 -0.684164 -0.198165
vn -0.029205 -0.999573 -0.000189
vn -0.326377 -0.364182 -0.872267
vn -0.495793 -0.862402 -0.102238
vn -0.615830 -0.615062 -0.492395
vn 0.299491 0.252228 -0.920156
vn 0.216603 -0.660099 -0.719272
vn 0.917810 -0.396101 0.027007
vn 0.745078 0.663400 -0.068989
vn -0.129035 -0.871731 -0.472689
vn -0.031045 -0.999517 0.001429
vn -0.030133 -0.999546 -0.000008
vn 0.008186 -0.999962 -0.002880
vn 0.013462 -0.999880 -0.007669
vn 0.001822 -0.999998 -0.000552
vn 0.000318 -1.000000 -0.000113
vn -0.024332 -0.999686 -0.006011
vn -0.030001 -0.999550 -0.000042
vn -0.000231 -1.000000 0.000117
vn -0.190229 -0.981475 0.022777
vn -0.008552 -0.997294 0.073018
vn -0.000316 -1.000000 -0.000110
vn -0.000628 -0.999999 0.001225
vn 0.000134 -1.000000 0.000005
vn 0.421383 -0.596293 -0.683280
vn 0.423997 0.353145 -0.833975
vn -0.276773 -0.909565 -0.309980
vn -0.435263 -0.460841 -0.773415
vn -0.028434 -0.999379 0.020794
vn -0.001334 -0.999997 0.002035
vn -0.029624 -0.999414 0.017177
vn 0.004595 -0.999989 0.001056
vn -0.030015 -0.999549 0.000015
vn -0.029826 -0.999555 0.000728
vn 0.001837 -0.999998 -0.000131
vn -0.183042 -0.982968 0.016419
vn 0.000000 -0.998101 0.061594
vn -0.000467 -1.000000 -0.000408
vn 0.000655 -1.000000 0.000420
vn 0.000410 -0.999999 0.001024
vn -0.000034 -1.000000 0.000058
vn 0.000081 -0.999999 0.001225
vn -0.029982 -0.999550 0.001202
vn -0.030083 -0.999547 -0.000048
vn 0.002556 -0.999997 0.000246
vn 0.000813 -1.000000 -0.000190
vn -0.000191 -1.000000 0.000004
vn -0.000261 -1.000000 -0.000035
vn 0.014953 -0.999863 0.007075
vn 0.001271 -0.999997 -0.001924
vn -0.000901 -1.000000 0.000248
g fff07975_00270_00736467_e0
f 45/18/45 27/19/27 44/20/44
f 54/61/54 49/62/49 43/52/43
f 55/24/55 35/25/35 36/26/36
f 27/19/27 28/27/28 12/28/12
f 1/29/1 27/19/27 12/28/12
f 29/3/29 10/4/10 11/5/11
f 23/30/23 14/31/14 31/32/31
f 46/33/46 47/34/47 15/35/15
f 3/36/3 21/37/21 11/38/11
f 32/9/32 8/10/8 31/7/31
f 9/11/9 8/10/8 32/9/32
f 12/1/12 13/12/13 1/2/1
f 2/13/2 1/2/1 13/12/13
f 16/39/16 15/35/15 47/34/47
f 22/40/22 36/26/36 37/41/37
f 37/41/37 36/26/36 48/42/48
f 47/34/47 48/42/48 16/39/16
f 22/40/22 14/31/14 23/30/23
f 21/37/21 6/43/6 22/40/22
f 27/19/27 45/18/45 28/27/28
f 24/44/24 8/45/8 4/46/4
f 23/30/23 31/32/31 33/47/33
f 34/48/34 27/19/27 29/49/29
f 43/52/43 49/62/49 44/20/44
f 48/42/48 36/26/36 17/50/17
f 26/51/26 34/48/34 29/49/29
f 52/65/52 54/61/54 42/53/42
f 42/53/42 54/61/54 43/52/43
f 17/50/17 16/39/16 48/42/48
f 29/3/29 2/13/2 30/16/30
f 11/38/11 26/51/26 29/49/29
f 34/48/34 43/52/43 27/19/27
f 5/17/5 8/10/8 9/11/9
f 5/17/5 4/14/4 8/10/8
f 42/53/42 21/37/21 38/54/38
f 11/5/11 10/4/10 3/8/3
f 29/3/29 30/16/30 10/4/10
f 53/55/53 18/56/18 17/50/17
f 3/36/3 6/43/6 21/37/21
f 29/49/29 27/19/27 1/29/1
f 26/51/26 43/52/43 34/48/34
f 21/37/21 26/51/26 11/38/11
f 24/44/24 33/47/33 8/45/8
f 21/37/21 42/53/42 26/51/26
f 1/2/1 2/13/2 29/3/29
f 43/52/43 44/20/44 27/19/27
f 33/47/33 31/32/31 8/45/8
f 25/57/25 24/44/24 4/46/4
f 6/43/6 14/31/14 22/40/22
f 31/7/31 7/15/7 32/9/32
f 7/15/7 31/7/31 14/6/14
f 21/37/21 22/40/22 37/41/37
f 40/58/40 24/44/24 25/57/25
f 19/59/19 39/60/39 49/62/49
f 24/44/24 35/25/35 33/47/33
f 21/37/21 37/41/37 38/54/38
f 20/23/20 50/22/50 39/60/39
f 36/26/36 53/55/53 17/50/17
f 55/24/55 23/30/23 33/47/33
f 33/47/33 35/25/35 55/24/55
f 22/40/22 23/30/23 36/26/36
f 24/44/24 40/58/40 35/25/35
f 51/63/51 45/18/45 50/22/50
f 41/64/41 40/58/40 25/57/25
f 36/26/36 23/30/23 55/24/55
f 50/22/50 44/20/44 49/62/49
f 36/26/36 35/25/35 53/55/53
f 54/61/54 19/59/19 49/62/49
f 47/34/47 42/53/42 38/54/38
f 42/53/42 43/52/43 26/51/26
f 20/21/20 51/63/51 50/22/50
f 19/59/19 54/61/54 52/65/52
f 46/33/46 52/65/52 42/53/42
f 39/60/39 50/22/50 49/62/49
f 38/54/38 37/41/37 47/34/47
f 46/33/46 42/53/42 47/34/47
f 47/34/47 37/41/37 48/42/48
f 50/22/50 45/18/45 44/20/44
