# fff0ac53_00397_00892e7b
o fff0ac53_00397_00892e7b
v -4.552086 -4.020947 -0.000993
v -4.134020 4.560280 -0.000900
v -4.552089 5.024181 -0.000993
v -3.980745 -3.524182 -0.000898
v -4.552086 -4.020947 2.868681
v -0.216499 -4.020966 2.868681
v -1.568146 -3.897369 -0.002609
v -1.568146 -3.897369 2.312914
v -0.541596 -3.897399 2.312914
v -0.541596 -3.897399 -0.002609
v -1.568146 -3.558258 -0.002609
v -1.568146 -3.558258 2.312914
v -0.541596 -3.558288 2.312914
v -0.541596 -3.558288 -0.002609
v -0.634003 -3.558288 2.047733
v -1.471924 -3.558258 2.047733
v -0.634003 -3.558288 0.105907
v -1.471924 -3.558258 0.105907
v -0.980805 -3.558258 2.047733
v -0.980805 -3.558258 0.105907
v -1.090546 -3.558258 2.047733
v -1.090546 -3.558258 0.105907
v -0.634003 -3.599029 2.047733
v -1.471924 -3.598999 2.047733
v -0.634003 -3.599029 0.105907
v -1.471924 -3.598999 0.105907
v -0.980805 -3.599029 2.047733
v -0.980805 -3.599029 0.105907
v -1.090546 -3.599029 2.047733
v -1.090546 -3.599029 0.105907
v -1.471924 -3.598999 2.047733
v -1.471924 -3.598999 0.105907
v -0.634003 -3.599029 2.047733
v -0.634003 -3.599029 0.105907
v -1.848084 -3.897369 -0.002609
v -1.848084 -3.897369 2.507740
v -0.312805 -3.897399 2.507740
v -0.312805 -3.897399 -0.002609
v -1.568146 -3.897369 -0.002609
v -1.568146 -3.897369 2.312914
v -0.541596 -3.897399 2.312914
v -0.541596 -3.897399 -0.002609
v -0.635986 -3.552795 2.238716
v -0.635986 -3.552795 2.126453
v -1.465820 -3.552764 2.238716
v -1.465820 -3.552764 2.126453
v -0.216499 -3.524182 -0.000531
v -0.216499 4.560280 -0.000538
v -4.552086 -4.020947 -0.000993
v -0.216499 -4.020966 -0.000537
v -0.216499 5.024181 -0.000549
v -0.216499 -4.020966 -0.000139
v -0.216499 -3.524365 2.860119
v -0.216499 4.560097 2.860112
v -0.216499 -4.020966 2.860113
v -0.216499 5.023998 2.860101
v -0.709557 -3.599026 1.946000
v -1.401543 -3.599001 1.951414
v -1.393860 -3.599001 0.215189
v -0.723618 -3.599026 0.224121
v -0.216499 -2.344726 2.552912
v -0.216499 -2.344726 -0.000532
v -0.216499 -0.718170 2.552912
v -0.216499 -0.718170 -0.000533
v -0.033409 -2.344726 2.552912
v -0.033409 -2.344726 -0.000532
v -0.033409 -0.718170 2.552912
v -0.033409 -0.718170 -0.000533
v -0.033409 -2.344726 2.552912
v -0.033409 -2.344726 -0.000532
v -0.033409 -0.718170 2.552912
v -0.033409 -0.718170 -0.000533
v -0.064659 -2.179423 0.626291
v -0.064659 -2.179423 0.097509
v -0.064659 -0.883476 0.626291
v -0.064659 -0.883476 0.097509
v -0.251358 -0.030457 -0.002609
v -0.251358 -0.030457 2.312914
v -0.251328 2.415192 2.312914
v -0.251328 2.415192 -0.002609
v -0.590469 -0.030457 -0.002609
v -0.590469 -0.030457 2.312914
v -0.590439 2.415192 2.312914
v -0.590439 2.415192 -0.002609
v -0.590439 2.322784 2.047733
v -0.590469 0.065765 2.047733
v -0.590439 2.322784 0.105907
v -0.590469 0.065765 0.105907
v -0.590469 1.598083 2.047733
v -0.590469 1.598083 0.105907
v -0.590469 1.488342 2.047733
v -0.590469 1.488342 0.105907
v -0.549698 2.322784 2.047733
v -0.549728 0.065765 2.047733
v -0.549698 2.322784 0.105907
v -0.549728 0.065765 0.105907
v -0.549698 1.598083 2.047733
v -0.549698 1.598083 0.105907
v -0.549698 1.488342 2.047733
v -0.549698 1.488342 0.105907
v -0.549728 0.065765 2.047733
v -0.549728 0.065765 0.105907
v -0.549698 2.322784 2.047733
v -0.549698 2.322784 0.105907
v -0.251358 -0.310394 -0.002609
v -0.251358 -0.310394 2.507740
v -0.251328 2.643982 2.507740
v -0.251328 2.643982 -0.002609
v -0.251358 -0.030457 -0.002609
v -0.251358 -0.030457 2.312914
v -0.251328 2.415192 2.312914
v -0.251328 2.415192 -0.002609
v -0.595932 2.320801 2.238716
v -0.595932 2.320801 2.126453
v -0.595963 0.071869 2.238716
v -0.595963 0.071869 2.126453
v -0.549698 2.247223 1.946000
v -0.549728 0.136139 1.951414
v -0.549728 0.143829 0.215189
v -0.549698 2.233154 0.224121
v -0.590462 0.813141 2.047731
v -0.590462 0.813141 0.105906
v -0.590462 0.703400 2.047731
v -0.590462 0.703400 0.105906
v -0.549690 0.813141 2.047731
v -0.549690 0.813141 0.105906
v -0.549690 0.703400 2.047731
v -0.549690 0.703400 0.105906
v -0.064659 -2.179423 2.377467
v -0.064659 -2.179423 0.910067
v -0.064659 -0.883476 2.377467
v -0.064659 -0.883476 0.910066
v -0.216499 -3.524182 -0.000531
v -0.216499 4.560280 -0.000538
v -0.216499 -4.020966 -0.000537
v -0.216499 5.024181 -0.000549
v -0.216499 -2.344726 -0.000532
v -0.216499 -0.718170 -0.000533
v -0.033409 -2.344726 -0.000532
v -0.033409 -0.718170 -0.000533
vt 0.277202 0.569739
vt 0.405262 0.599063
vt 0.283287 0.571133
vt 0.277202 0.569739
vt 0.283287 0.571133
vt 0.374322 0.591978
vt 0.399715 0.597793
vt 0.277202 0.569739
vt 0.405262 0.599063
vt 0.405262 0.599063
vt 0.405262 0.599063
vt 0.332023 0.582292
vt 0.332023 0.582292
vt 0.405262 0.599063
vt 0.405262 0.599063
vt 0.405262 0.599063
vt 0.405262 0.599063
vt 0.405262 0.599063
vt 0.405262 0.599063
vt 0.405262 0.599063
vt 0.405262 0.599063
vt 0.405262 0.599063
vt 0.405262 0.599063
vt 0.405262 0.599063
vt 0.405262 0.599063
vt 0.405262 0.599063
vt 0.405262 0.599063
vt 0.405262 0.599063
vt 0.405262 0.599063
vt 0.405262 0.599063
vt 0.405262 0.599063
vt 0.405262 0.599063
vt 0.405262 0.599063
vt 0.405262 0.599063
vt 0.405262 0.599063
vt 0.405262 0.599063
vt 0.405262 0.599063
vt 0.307008 0.576564
vt 0.306509 0.576450
vt 0.306639 0.576480
vt 0.305844 0.576298
vt 0.374322 0.591978
vt 0.399715 0.597793
vt 0.307008 0.576564
vt 0.306639 0.576480
vt 0.306509 0.576450
vt 0.305844 0.576298
vt 0.405262 0.599063
vt 0.405262 0.599063
vt 0.405262 0.599063
vt 0.405262 0.599063
vt 0.377800 0.592775
vt 0.377436 0.592691
vt 0.380944 0.593494
vt 0.381220 0.593558
vt 0.377800 0.592775
vt 0.377436 0.592691
vt 0.380944 0.593494
vt 0.381220 0.593558
vn 0.000004 1.000000 -0.000000
vn -0.000143 0.000043 1.000000
vn -0.000155 0.000057 1.000000
vn -0.000121 -0.000032 1.000000
vn 0.000004 1.000000 -0.000000
vn 0.000004 1.000000 -0.000000
vn -1.000000 0.000001 0.000000
vn -0.707100 0.000000 0.707113
vn 0.707113 -0.000000 0.707100
vn 1.000000 -0.000000 0.000000
vn -0.707105 0.707109 -0.000013
vn -0.577347 0.577352 0.577351
vn 0.577364 0.577335 0.577352
vn 0.707121 0.707092 0.000003
vn -0.301479 0.904535 -0.301540
vn 0.301511 0.904534 -0.301511
vn -0.301472 0.904531 0.301560
vn 0.301511 0.904534 0.301511
vn 0.301535 0.904539 -0.301472
vn 0.301538 0.904555 0.301421
vn -0.301511 0.904534 -0.301511
vn -0.301511 0.904534 0.301511
vn -0.707107 0.000000 -0.707107
vn 0.707089 0.000000 -0.707125
vn -0.707107 0.000000 0.707107
vn 0.707089 0.000000 0.707125
vn 0.707107 0.000000 -0.707107
vn 0.707107 0.000000 0.707107
vn -0.707125 0.000000 -0.707089
vn -0.707125 0.000000 0.707089
vn 0.000038 1.000000 -0.000002
vn 0.000037 1.000000 0.000000
vn 0.000037 1.000000 0.000001
vn 0.000035 1.000000 0.000002
vn 0.000000 1.000000 0.000000
vn 0.000008 1.000000 0.000011
vn 0.000012 1.000000 -0.000009
vn 0.000000 1.000000 0.000000
vn 0.000000 1.000000 0.000000
vn 0.000011 1.000000 0.000013
vn 0.000015 1.000000 -0.000018
vn 0.000000 1.000000 0.000000
vn 0.000037 1.000000 0.000000
vn 0.000037 1.000000 0.000000
vn 0.000037 1.000000 0.000000
vn 0.000037 1.000000 0.000000
vn -1.000000 0.000000 0.000000
vn -1.000000 -0.000000 -0.000000
vn -0.000136 -0.000033 1.000000
vn -1.000000 0.000000 0.000000
vn -1.000000 0.000000 0.000000
vn 0.000004 1.000000 0.000000
vn -1.000000 -0.000000 -0.000000
vn -1.000000 -0.000000 -0.000000
vn -1.000000 0.000000 0.000000
vn -1.000000 0.000000 0.000000
vn 0.000037 1.000000 0.000000
vn 0.000038 1.000000 -0.000001
vn 0.000037 1.000000 0.000000
vn 0.000035 1.000000 0.000001
vn -0.904534 0.301511 -0.301511
vn -0.707107 0.707107 0.000000
vn -0.904534 -0.301511 -0.301511
vn -0.707107 -0.707107 -0.000000
vn 0.000000 0.707107 -0.707107
vn 0.000000 1.000000 0.000000
vn 0.000000 -0.707107 -0.707107
vn 0.000000 -1.000000 0.000000
vn -1.000000 0.000000 0.000000
vn -1.000000 0.000000 0.000000
vn -1.000000 0.000000 0.000000
vn -1.000000 0.000000 0.000000
vn -1.000000 0.000000 0.000000
vn -1.000000 0.000000 0.000000
vn -1.000000 0.000000 0.000000
vn -1.000000 0.000000 0.000000
vn 0.000000 -1.000000 0.000000
vn 0.000000 -0.707104 0.707110
vn 0.000000 0.707110 0.707104
vn 0.000000 1.000000 0.000000
vn -0.707105 -0.707108 -0.000006
vn -0.577350 -0.577350 0.577351
vn -0.577342 0.577358 0.577351
vn -0.707099 0.707114 0.000001
vn -0.904535 -0.301496 -0.301525
vn -0.904534 0.301511 -0.301511
vn -0.904533 -0.301492 0.301534
vn -0.904534 0.301511 0.301511
vn -0.904544 0.301524 -0.301468
vn -0.904563 0.301529 0.301407
vn -0.904534 -0.301511 -0.301511
vn -0.904534 -0.301511 0.301512
vn 0.000000 -0.707107 -0.707107
vn 0.000000 0.707102 -0.707112
vn 0.000000 -0.707107 0.707107
vn 0.000000 0.707102 0.707111
vn 0.000000 0.707107 -0.707107
vn 0.000000 0.707107 0.707107
vn 0.000000 -0.707111 -0.707103
vn 0.000000 -0.707112 0.707102
vn -1.000000 0.000009 0.000006
vn -1.000000 0.000008 -0.000006
vn -1.000000 0.000008 -0.000006
vn -1.000000 0.000009 0.000006
vn -1.000000 0.000000 0.000000
vn -1.000000 0.000004 0.000006
vn -1.000000 0.000006 -0.000005
vn -1.000000 0.000000 0.000000
vn -1.000000 0.000000 0.000000
vn -1.000000 0.000006 0.000008
vn -1.000000 0.000006 -0.000008
vn -1.000000 0.000000 0.000000
vn -1.000000 0.000014 0.000000
vn -1.000000 0.000014 0.000000
vn -1.000000 0.000014 0.000000
vn -1.000000 0.000014 0.000000
vn -1.000000 0.000008 -0.000003
vn -1.000000 0.000009 0.000004
vn -1.000000 0.000008 -0.000003
vn -1.000000 0.000009 0.000004
vn -0.707107 0.707107 0.000000
vn -0.707107 0.707107 0.000000
vn -0.707107 -0.707107 0.000000
vn -0.707107 -0.707107 0.000000
vn 0.000000 1.000000 0.000000
vn 0.000000 1.000000 0.000000
vn 0.000000 -1.000000 0.000000
vn 0.000000 -1.000000 0.000000
vn -1.000000 0.000000 0.000000
vn -1.000000 0.000000 0.000000
vn -1.000000 0.000000 0.000000
vn -1.000000 0.000000 0.000000
vn -0.000101 -0.000008 1.000000
vn -0.000098 0.000014 1.000000
vn -0.000105 -0.000012 1.000000
vn -0.000102 0.000023 1.000000
vn -0.000065 0.000001 1.000000
vn -0.000065 0.000001 1.000000
vn 0.000000 0.000001 1.000000
vn 0.000000 0.000001 1.000000
g fff0ac53_00397_00892e7b_e14
f 37/36/37 40/9/40 36/35/36
f 40/9/40 37/36/37 41/10/41
f 39/2/39 36/35/36 40/9/40
f 36/35/36 39/2/39 35/34/35
f 46/25/46 43/22/43 44/23/44
f 43/22/43 46/25/46 45/24/45
f 38/37/38 41/10/41 37/36/37
f 41/10/41 38/37/38 42/11/42
f 107/36/107 110/9/110 106/35/106
f 110/9/110 107/36/107 111/10/111
f 109/2/109 106/35/106 110/9/110
f 106/35/106 109/2/109 105/34/105
f 116/25/116 113/22/113 114/23/114
f 113/22/113 116/25/116 115/24/115
f 108/37/108 111/10/111 107/36/107
f 111/10/111 108/37/108 112/11/112
g fff0ac53_00397_00892e7b_e4
f 1/1/1 6/12/6 52/13/52
f 6/12/6 1/1/1 5/8/5
g fff0ac53_00397_00892e7b_e3
f 47/6/47 61/52/61 62/53/62
f 54/43/54 64/55/64 63/54/63
f 47/38/47 50/40/50 55/45/55
f 55/45/55 53/44/53 47/38/47
f 48/39/48 56/47/56 51/41/51
f 56/47/56 48/39/48 54/46/54
f 61/52/61 47/6/47 53/42/53
f 54/43/54 63/54/63 53/42/53
f 64/55/64 54/43/54 48/7/48
f 63/54/63 64/55/64 68/59/68
f 63/54/63 61/52/61 53/42/53
f 68/59/68 67/58/67 63/54/63
f 62/53/62 61/52/61 65/56/65
f 65/56/65 66/57/66 62/53/62
f 61/52/61 63/54/63 67/58/67
f 67/58/67 65/56/65 61/52/61
g fff0ac53_00397_00892e7b_e16
f 9/10/9 10/11/10 14/15/14
f 14/15/14 13/17/13 9/10/9
f 17/20/17 20/23/20 28/32/28
f 16/19/16 21/24/21 29/31/29
f 28/32/28 25/28/25 17/20/17
f 22/25/22 18/21/18 26/30/26
f 20/23/20 19/22/19 27/27/27
f 19/22/19 15/18/15 23/26/23
f 27/27/27 28/32/28 20/23/20
f 23/26/23 27/27/27 19/22/19
f 24/29/24 26/30/26 18/21/18
f 29/31/29 24/29/24 16/19/16
f 18/21/18 16/19/16 24/29/24
f 13/17/13 12/16/12 8/9/8
f 8/9/8 9/10/9 13/17/13
f 26/30/26 30/33/30 22/25/22
f 79/10/79 80/11/80 84/15/84
f 84/15/84 83/17/83 79/10/79
f 87/20/87 90/23/90 98/32/98
f 86/19/86 91/24/91 99/31/99
f 98/32/98 95/28/95 87/20/87
f 92/25/92 88/21/88 96/30/96
f 90/23/90 89/22/89 97/27/97
f 89/22/89 85/18/85 93/26/93
f 97/27/97 98/32/98 90/23/90
f 93/26/93 97/27/97 89/22/89
f 94/29/94 96/30/96 88/21/88
f 99/31/99 94/29/94 86/19/86
f 88/21/88 86/19/86 94/29/94
f 83/17/83 82/16/82 78/9/78
f 78/9/78 79/10/79 83/17/83
f 96/30/96 100/33/100 92/25/92
f 122/23/122 121/22/121 125/27/125
f 125/27/125 126/32/126 122/23/122
f 131/58/131 130/57/130 129/56/129
f 130/57/130 131/58/131 132/59/132
g fff0ac53_00397_00892e7b_e18
f 15/18/15 17/20/17 25/28/25
f 25/28/25 23/26/23 15/18/15
f 21/24/21 22/25/22 30/33/30
f 30/33/30 29/31/29 21/24/21
f 7/2/7 8/9/8 12/16/12
f 12/16/12 11/14/11 7/2/7
f 75/58/75 74/57/74 73/56/73
f 74/57/74 75/58/75 76/59/76
f 85/18/85 87/20/87 95/28/95
f 95/28/95 93/26/93 85/18/85
f 91/24/91 92/25/92 100/33/100
f 100/33/100 99/31/99 91/24/91
f 77/2/77 78/9/78 82/16/82
f 82/16/82 81/14/81 77/2/77
f 123/24/123 124/25/124 128/33/128
f 128/33/128 127/31/127 123/24/123
g fff0ac53_00397_00892e7b_e17
f 11/14/11 16/19/16 18/21/18
f 15/18/15 13/17/13 14/15/14
f 13/17/13 15/18/15 19/22/19
f 16/19/16 11/14/11 12/16/12
f 13/17/13 19/22/19 12/16/12
f 17/20/17 15/18/15 14/15/14
f 11/14/11 22/25/22 20/23/20
f 22/25/22 19/22/19 20/23/20
f 19/22/19 21/24/21 12/16/12
f 19/22/19 22/25/22 21/24/21
f 11/14/11 18/21/18 22/25/22
f 21/24/21 16/19/16 12/16/12
f 14/15/14 20/23/20 17/20/17
f 11/14/11 20/23/20 14/15/14
f 33/31/33 34/33/34 57/48/57
f 32/30/32 58/49/58 59/50/59
f 57/48/57 59/50/59 58/49/58
f 33/31/33 57/48/57 31/29/31
f 58/49/58 32/30/32 31/29/31
f 57/48/57 58/49/58 31/29/31
f 59/50/59 57/48/57 60/51/60
f 32/30/32 59/50/59 34/33/34
f 60/51/60 57/48/57 34/33/34
f 59/50/59 60/51/60 34/33/34
f 71/58/71 70/57/70 69/56/69
f 70/57/70 71/58/71 72/59/72
f 81/14/81 86/19/86 88/21/88
f 85/18/85 83/17/83 84/15/84
f 83/17/83 85/18/85 89/22/89
f 86/19/86 81/14/81 82/16/82
f 83/17/83 89/22/89 82/16/82
f 87/20/87 85/18/85 84/15/84
f 81/14/81 92/25/92 90/23/90
f 92/25/92 89/22/89 90/23/90
f 89/22/89 91/24/91 82/16/82
f 89/22/89 92/25/92 91/24/91
f 81/14/81 88/21/88 92/25/92
f 91/24/91 86/19/86 82/16/82
f 84/15/84 90/23/90 87/20/87
f 81/14/81 90/23/90 84/15/84
f 103/31/103 104/33/104 117/48/117
f 102/30/102 118/49/118 119/50/119
f 117/48/117 119/50/119 118/49/118
f 103/31/103 117/48/117 101/29/101
f 118/49/118 102/30/102 101/29/101
f 117/48/117 118/49/118 101/29/101
f 119/50/119 117/48/117 120/51/120
f 102/30/102 119/50/119 104/33/104
f 120/51/120 117/48/117 104/33/104
f 119/50/119 120/51/120 104/33/104
f 124/25/124 121/22/121 122/23/122
f 121/22/121 124/25/124 123/24/123
g fff0ac53_00397_00892e7b_e2
f 133/6/133 137/53/137 4/5/4
f 49/1/49 133/38/133 4/5/4
f 134/39/134 136/41/136 3/4/3
f 134/7/134 2/3/2 4/5/4
f 2/3/2 3/4/3 49/1/49
f 2/3/2 134/39/134 3/4/3
f 4/5/4 2/3/2 49/1/49
f 135/40/135 133/38/133 49/1/49
f 138/55/138 134/7/134 4/5/4
f 137/53/137 138/55/138 4/5/4
f 139/57/139 140/59/140 138/55/138
f 138/55/138 137/53/137 139/57/139
