# fff07975_00241_006686f5
o fff07975_00241_006686f5
v -0.179137 0.719618 1.128639
v 1.365418 1.192103 1.342865
v -0.627248 -0.625991 1.046385
v 3.791713 -0.330160 1.210035
v 1.517499 -2.485312 0.876253
v 3.467230 -1.587347 1.218742
v -1.039766 -1.094858 0.930941
v 0.047113 -1.463383 0.945282
v -2.556089 -0.458269 0.914019
v -2.469540 1.355516 0.797010
v 1.443333 1.881265 1.389360
v 2.841872 1.871241 1.589397
v 3.109154 1.079589 1.728382
v 3.088393 -0.294881 1.183680
v 1.408249 -1.889052 0.943153
v 2.569579 -0.940781 1.667896
v 2.874335 -1.089693 1.190733
v 0.847053 -0.175375 1.453733
v 0.409809 -1.100788 1.230629
v 1.041578 2.738905 1.130901
v -1.208739 2.037850 0.874056
v -3.069279 1.402883 0.588146
v -3.115924 0.655383 0.637653
v 3.562845 2.083019 1.601192
v 3.703090 1.354027 1.612837
v -3.045679 -0.478358 0.700550
v -2.710690 0.534207 0.986500
v -1.972267 0.314275 0.815870
v -0.844634 1.793473 1.308699
v -0.433699 -0.044792 1.088520
v -1.127442 3.061219 -0.624046
v -1.359009 3.216126 -0.640186
v -1.025391 3.531129 -0.722691
v -0.893555 3.330506 -0.702000
v -1.633545 3.626465 -0.721363
v -5.447033 -1.577079 -0.712101
v -3.543868 0.296194 -1.578300
v 1.172975 3.902695 -0.015024
v 0.651803 3.855577 0.811693
v 3.525359 -1.736627 0.292437
v 6.104203 2.298990 0.968946
v -2.848152 1.619481 -0.079000
v -0.627981 -0.821975 0.874393
v 1.364686 1.192104 1.329062
v -0.179870 0.719618 1.115316
v 0.389534 0.255960 1.007563
v -2.288086 3.797913 -0.897316
v -2.244629 3.782227 -0.739223
v 1.407516 -1.889052 0.929350
v 2.410708 1.654284 1.527424
v -2.654767 1.385826 0.691870
v -0.913452 3.143799 -0.659081
v -1.220581 3.504822 -0.714905
v -2.023072 3.427368 -0.733467
v -2.067261 3.571229 -0.640923
v -2.757109 -0.284334 0.799961
v -2.829564 1.423625 0.505482
v -2.774069 1.968625 -1.485765
v 1.146327 1.973440 1.223280
v -2.045654 3.891114 -0.735275
v -1.912598 3.934388 -0.868626
v -1.792847 3.709656 -0.631893
v -4.989899 -1.185661 0.631948
v 4.230073 -0.605722 0.310783
v 2.873602 -1.089692 1.176929
v 4.745399 0.268876 0.435913
v -3.699094 1.060545 -1.485439
v -0.633306 -0.169475 0.918737
v 0.409077 -1.100788 1.217422
v 2.955589 1.025084 1.677061
v 2.584106 -0.718125 1.605181
v -2.614358 2.342099 0.133209
v -2.701669 2.595980 -0.129520
v -0.768463 3.084287 0.551939
v 0.403268 2.876150 -1.506824
v -5.716250 -0.839127 -1.534502
v -5.719356 -0.200122 0.217842
v -2.937280 2.132919 -0.183783
v -3.623767 -0.833687 -1.566893
v -3.561899 1.042228 -0.328844
v 3.087661 -0.294881 1.169876
v 4.494300 2.082721 1.525892
v -2.628111 -0.288896 0.610760
v 1.091919 1.840516 1.284445
v 2.331985 1.565455 1.534706
v 3.007214 1.096780 1.688038
v -3.520390 1.627427 -0.904391
v -3.409420 1.724669 -1.477743
v -3.337820 1.796025 -0.558359
v -3.100399 1.908389 -1.456435
v -0.898211 3.264147 1.045727
v -2.660203 2.685409 -0.224316
v 6.136485 2.298990 -1.506824
v -0.724926 3.076181 0.498692
v -3.064533 2.072963 -0.284710
v -3.271747 1.917986 -0.412651
v -2.761253 2.026944 -0.728882
v 1.224525 2.791945 -1.506824
v 3.513469 2.137224 -1.506824
v 2.900795 2.855157 0.518311
v 2.600664 2.201046 0.956104
v 3.713117 0.445640 1.500401
v 5.923724 0.384453 0.443407
v 4.062285 0.634518 1.543840
v -3.334182 1.286910 0.307951
v -3.137633 1.341946 0.278303
v -3.051945 1.487659 0.375818
v -3.562907 0.146201 0.607067
v -3.524982 0.992171 0.598465
v -3.706175 0.907368 0.490574
v -3.367236 0.757660 0.591080
v -3.260265 -0.499470 0.781027
v -2.679534 1.502545 0.571661
v -3.069889 1.388244 0.161451
v -3.558596 0.464350 -0.796110
v -3.153473 0.410370 0.243122
v -2.949015 -0.470208 0.299782
v -3.160618 0.832749 0.305857
v -3.100140 0.332375 0.181950
v -3.110935 0.888287 0.309755
v -3.535714 0.489285 -0.787004
v -3.613271 1.032933 -0.278107
v 1.009949 1.951556 1.213320
v -4.692371 -1.098158 0.658564
v -4.082488 -0.847206 0.667307
v -2.857495 1.835378 -0.095747
v -2.712015 1.765488 0.527134
v -2.847677 1.898459 0.033785
v -3.614234 0.887668 -1.490343
v 0.651803 3.855577 0.811693
v 0.536203 3.813061 0.810097
v 1.074817 3.863323 -0.004133
v 1.125081 2.802142 -1.506824
v -2.909679 1.439061 -0.240606
v -3.370605 1.396397 -0.721733
v -2.654767 1.385826 0.691870
v 1.009949 1.951556 1.213320
v 1.146327 1.973440 1.223280
v 0.403268 2.876150 -1.506824
v -0.898211 3.264147 1.045727
v -0.768463 3.084287 0.551939
v 1.172975 3.902695 -0.015024
v 1.224525 2.791945 -1.506824
v -5.965211 -1.888505 -0.765589
v -3.897949 -3.693792 -1.253857
v 1.313355 -4.711210 -0.372652
v 0.790528 -4.724371 0.093358
v 4.025880 -1.067155 -0.199342
v 4.980713 -4.253089 0.182002
v -2.994385 -4.469768 -0.408717
v -1.035645 -0.345068 0.128703
v 1.149658 -3.035401 0.384996
v -0.390137 -1.253225 0.264510
v 0.113892 -0.923305 0.203768
v 0.789917 -1.144610 0.159682
v 2.247071 -3.234168 0.438140
v -2.810181 -4.061193 0.025817
v -3.052613 -0.719404 0.086746
v -3.001465 -4.348267 -0.079249
v -2.875366 -4.677660 -1.201695
v 1.035156 -3.531582 0.325368
v -5.460938 -1.610120 -0.859511
v 4.872193 -1.703087 -0.188999
v 3.464234 -1.516049 0.299239
v 5.497315 -2.197232 -0.118465
v -3.952027 -4.174512 -1.201512
v -0.955811 -0.745203 0.153700
v -0.043823 -0.090642 0.322065
v 2.705201 -2.804807 0.581160
v 2.109253 -1.766967 0.540639
v -2.645264 -4.643729 -0.289096
v -2.698731 -4.806295 -0.437194
v -0.718262 -4.366508 -0.053061
v 0.416260 -4.144474 -1.213567
v -6.199952 -2.590581 -1.229167
v -5.506104 -4.111223 -0.241389
v -3.015748 -4.791467 -0.467782
v -4.156006 -1.515970 -1.247428
v -3.818482 -4.152263 -0.549550
v 3.780030 -1.985644 0.295263
v 4.165650 -4.184608 0.495947
v -2.925293 -0.706206 -0.019905
v 0.963867 -3.454579 0.359846
v -2.660034 -4.050220 0.077953
v 2.157471 -3.186088 0.442245
v 2.765625 -2.844591 0.587346
v -3.659790 -4.528821 -0.873982
v -3.537110 -4.579464 -1.197175
v -3.456788 -4.617400 -0.678925
v -3.206665 -4.667063 -1.185163
v -0.823364 -4.487103 0.225281
v -2.645997 -4.857730 -0.490629
v 6.196045 -4.154215 -1.213567
v -0.676270 -4.358023 -0.083077
v -3.149658 -4.764957 -0.524673
v -3.375367 -4.686785 -0.596792
v -2.854980 -4.712352 -0.775048
v 1.219483 -4.026670 -1.213567
v 3.403321 -3.441042 -1.213567
v 3.060547 -4.755869 -0.072018
v 2.677613 -4.379378 0.174762
v 4.496826 -2.388796 0.481577
v 5.555299 -2.269257 -0.114241
v 4.551637 -2.506714 0.506062
v -3.519654 -4.305241 -0.190594
v -3.317627 -4.323077 -0.207307
v -3.213623 -4.405473 -0.152341
v -3.936402 -3.411493 -0.021987
v -3.788331 -4.118589 -0.026836
v -3.979004 -4.081257 -0.087653
v -3.621460 -3.983730 -0.030999
v -3.579468 -0.628223 0.076074
v -2.819458 -4.134764 -0.041944
v -3.244385 -4.345967 -0.273175
v -3.890625 -3.797983 -0.812945
v -3.454834 -3.753740 -0.227139
v -3.267090 -0.621021 -0.195200
v -3.406739 -4.013068 -0.191777
v -3.412232 -3.701663 -0.261621
v -3.350342 -4.043046 -0.189580
v -3.864625 -3.811408 -0.807810
v -3.870606 -4.150680 -0.520951
v 0.897095 -3.529207 0.319751
v -5.250000 -1.440136 0.007040
v -4.587159 -1.084523 0.011969
v -2.975342 -4.602731 -0.418157
v -2.817383 -4.298386 -0.067044
v -2.957520 -4.640629 -0.345141
v -3.890503 -4.061799 -1.204275
v 0.790528 -4.724371 0.093358
v 0.670288 -4.707665 0.092459
v 1.210938 -4.695033 -0.366516
v 1.122192 -4.040962 -1.213567
v -3.078858 -4.364219 -0.499813
v -3.582642 -4.353745 -0.771019
v -2.810181 -4.061193 0.025817
v 0.897095 -3.529207 0.319751
v 1.035156 -3.531582 0.325368
v 0.416260 -4.144474 -1.213567
v -0.823364 -4.487103 0.225281
v -0.718262 -4.366508 -0.053061
v 1.313355 -4.711210 -0.372652
v 1.219483 -4.026670 -1.213567
v -2.560635 -0.994887 0.796477
v -3.101697 1.204215 0.604574
v -2.417845 1.695506 0.712696
v 3.066407 0.821192 1.708622
v 3.720242 0.427324 1.542152
v 3.705559 0.706347 1.608885
v 2.447026 2.422475 0.945762
v -4.990346 -1.136104 0.724684
v -5.640142 -0.260710 0.310577
v -3.532501 1.100211 0.583309
v -3.420116 0.769144 0.683815
v -3.221139 -0.472604 0.873762
v -4.352859 -1.099765 0.755671
v -5.051332 -1.257533 0.603567
v -5.739729 -0.224914 0.189461
v -3.626950 1.222069 0.441537
v -5.586256 -0.074666 0.216317
v -5.680646 -0.399174 0.260802
v -2.469540 1.355516 0.797010
v -2.909330 -0.683770 0.091129
v 0.455460 -1.117183 0.404284
v 0.702753 -3.524140 0.388279
v -2.114291 -3.545516 0.145756
v -2.626123 -3.458402 0.145756
v -4.043743 -1.018488 0.076168
v -3.034234 -3.485447 0.091129
v -3.607058 -3.703002 0.005390
v -4.030466 -3.691576 0.005390
v -4.842453 -1.226963 0.076168
v -4.458754 -3.799150 -0.031418
v 1.317712 -3.907525 0.443810
v 2.062502 -3.987978 0.443810
v 2.898362 -3.707415 0.643101
v 2.545614 -0.984613 0.643101
v 3.385732 -3.839426 0.643101
v -0.894482 -3.537129 0.227600
v -4.936693 -3.060354 -0.029194
v -4.928463 -2.288829 0.014046
v -4.733347 -3.569607 -0.031418
v -4.978865 -1.656399 0.014046
v 3.662192 -1.245626 0.643101
v 3.913620 -3.947246 0.643101
v 4.374594 -1.687033 0.643101
v 4.647213 -4.011232 0.643101
v 4.716526 -2.279072 0.643101
v 4.856446 -3.018659 0.643101
v 4.912137 -3.642745 0.643101
v -14.184084 8.226380 -0.198544
v -13.436524 6.823792 -0.165020
v -13.725221 6.124024 -0.140301
v -13.471683 7.090821 -0.262024
v -16.722292 6.541078 -0.110874
v -16.853518 8.616822 -0.508312
v -13.693728 6.926820 -0.055569
v -13.874392 6.168824 0.051018
v -15.997561 6.329469 -0.016926
v -16.835815 6.500367 -0.247166
v -16.900148 8.286256 -0.566925
v -14.436525 8.414491 -0.340752
v -16.745853 8.770815 -0.527164
v -16.904177 8.093508 -0.352840
v -15.233766 6.005623 0.020518
v -14.473269 8.185609 -0.042522
v -15.549318 6.952823 0.067745
v -13.297525 8.774605 -0.600135
v -12.799707 7.955028 -0.632738
v -12.810766 9.102425 -0.614976
v -12.161330 8.708537 -0.606093
v -13.417418 8.861307 -0.717092
v -12.679184 9.267733 -0.683567
v -12.160954 8.813416 -0.666058
v -12.791992 7.881765 -0.722370
v -14.889082 8.876312 -0.381098
v -14.987548 8.663465 -0.324891
v -15.856743 8.714000 -0.373669
v -15.822606 8.908720 -0.425461
v -12.596653 8.210843 -0.698838
v -12.603856 8.206648 -0.621710
v -13.137748 8.868008 -0.607091
v -13.198024 8.959485 -0.704024
vt 1.628275 1.210684
vt 1.803594 1.437096
vt 1.731899 1.207936
vt 1.764859 1.143787
vt 1.754797 1.281124
vt 1.864421 1.631525
vt 1.667920 0.933944
vt 1.729523 0.883431
vt 1.772167 1.424124
vt 1.845183 1.669363
vt 1.726706 1.321923
vt 1.760946 1.449118
vt 1.700091 1.204777
vt 1.706891 1.307787
vt 1.725125 0.888468
vt 1.695997 1.016296
vt 1.572365 0.903819
vt 1.640550 1.124999
vt 2.044504 1.277351
vt 1.973369 1.417253
vt 1.640543 1.124991
vt 1.579884 0.951503
vt 1.621235 1.391100
vt 1.593591 1.324025
vt 1.583462 1.032067
vt -7.809888 0.407634
vt -7.905538 0.443157
vt -6.939445 0.328403
vt -7.442464 0.243859
vt -7.858889 0.385386
vt -12.390016 2.186054
vt -8.943262 1.052426
vt -9.058272 1.317902
vt -5.149865 -0.196102
vt -0.433162 0.166947
vt -1.073415 0.130506
vt -1.213777 -0.001018
vt -1.213777 0.130506
vt -1.142288 0.130506
vt -1.142288 -0.001018
vt -8.323336 1.544243
vt 0.479067 -0.318735
vt 1.048138 -0.239727
vt 3.354542 -1.281890
vt 0.712311 -0.711794
vt -7.231904 0.560262
vt 0.306213 -0.426123
vt -0.801360 -0.490651
vt -12.013834 1.354542
vt -0.692421 0.247741
vt -0.524381 0.247741
vt -0.692421 0.048145
vt -0.509737 0.138591
vt -0.784831 0.247741
vt -0.784831 0.048145
vt -0.829123 0.048145
vt -0.829123 0.247741
vt -0.893873 0.247741
vt -0.893873 0.048145
vt -1.073415 -0.001018
vt -0.956954 0.130506
vt -0.956954 -0.001018
vt -1.300697 0.130506
vt -1.300697 -0.001018
vt 0.596212 -0.516145
vt -0.608024 0.247741
vt -0.610329 0.048145
vt -0.477711 0.247741
vt -0.482894 0.048145
vt -8.740836 1.415664
vt -3.528590 0.631507
vt -5.525403 0.931917
vt -8.277048 0.832805
vt 1.747468 0.306140
vt 1.614983 0.868502
vt 1.673261 0.478160
vt 1.397482 0.417109
vt 1.419343 0.345210
vt 1.230340 0.430146
vt 1.640391 1.308914
vt 1.461048 0.683713
vt 1.270338 1.296220
vt 1.614405 0.357849
vt 1.124673 0.981462
vt 2.226354 0.314363
vt 2.022364 0.642626
vt 1.847867 0.637180
vt 1.054719 1.164169
vt 0.995354 1.454451
vt 0.898469 1.729576
vt 1.075182 1.660078
vt 0.945346 2.154518
vt 1.051465 2.384370
vt 1.673824 0.993496
vt 1.140970 3.348790
vt 1.749640 0.268514
vt 1.596251 0.951050
vt 1.230393 2.350357
vt 2.281550 0.675261
vt 1.587601 0.613190
vt 0.635318 2.255486
vt 1.736113 0.502685
vt 1.075391 3.130714
vt 1.199287 3.242019
vt 1.272635 3.461804
vt 0.860455 3.009758
vt 0.791065 2.836664
vt 0.999700 3.438322
vt 0.937480 3.111257
vt 0.946829 3.131345
vt 0.984484 3.401916
vt 1.230393 2.350357
vt 1.071756 2.832309
vt 1.634123 1.515573
vt 1.801070 1.756119
vt 1.276138 1.426523
vt 1.525076 1.062497
vt 2.081471 1.204643
vt 1.075182 1.660078
vt 1.124673 0.981462
vt 1.276138 1.426523
vt 1.090132 1.642703
vt 1.270338 1.296220
vt 1.008898 1.446657
vt 0.995354 1.454451
vt 1.063185 1.142047
vt 1.054719 1.164169
vt 1.284433 2.531746
vt 1.249338 2.374855
vt 1.623133 1.587998
vt 1.245066 2.321874
vt 1.650487 2.288152
vt 1.478046 2.318132
vt 1.459546 2.412264
vt 1.601178 2.321682
vt 1.591053 3.022675
vt 1.621583 2.811480
vt 1.088488 2.840606
vt 1.053586 3.096202
vt 1.065352 3.098144
vt 1.352102 3.123489
vt 1.634123 1.515573
vt 1.245066 2.321874
vt 1.785009 1.733240
vt 1.000028 1.891170
vt 1.209414 1.456397
vt 1.420856 1.194342
vt 1.304377 1.088158
vt 1.306317 1.455767
vt 1.188831 1.976077
vt 1.280735 1.798692
vt 1.593304 1.000050
vt 1.584670 1.174739
vt 1.029673 1.729113
vt 1.052993 2.000050
vt 1.139860 1.668237
vt 1.525949 1.407482
vt 1.528757 1.420077
vt 1.266007 1.286862
vt 1.478605 0.646405
vt 1.264292 1.283155
vt 1.601457 0.583714
vt 1.643308 0.507603
vt 1.700456 0.373133
vt 1.685889 0.310628
vt 1.664166 0.428331
vt 1.647029 0.336298
vt 1.529639 0.537964
vt 1.652385 1.195769
vt -1.274492 -0.001018
vt -0.456080 0.018629
vt -0.452885 0.194334
vt -0.542409 0.048145
vt -0.854701 0.247741
vt -10.353191 0.980494
vt -0.847405 0.247741
vt -10.826872 1.087187
vt -0.861544 0.048145
vt -0.850816 0.048145
vt -0.748136 0.048145
vt -0.714247 0.247741
vt 0.044617 -0.441364
vt 1.758943 1.603767
vt 1.659864 1.615348
vt 1.800456 1.522123
vt 1.787536 1.151706
vt 1.822030 1.479691
vt 1.631387 1.524325
vt 1.637260 1.444177
vt 1.695363 1.728813
vt 1.848045 1.629657
vt 1.813551 1.301672
vt 1.629679 1.500288
vt 1.623806 1.580436
vt 1.655459 1.669960
vt 1.690957 1.783426
vt 1.643605 1.485246
vt 1.627731 1.526874
vt 1.795444 1.321231
vt 1.819494 1.358177
vt 1.790166 1.132877
vt 1.803085 1.503294
vt 1.790608 1.140130
vt 1.803528 1.510547
vt 1.790716 1.142758
vt 1.803636 1.513175
vt 1.790675 1.141542
vt 1.803595 1.511959
vt 1.790688 1.141908
vt 1.803607 1.512325
vt 1.659601 1.615843
vt 1.695099 1.729309
vt 1.659676 1.616135
vt 1.695174 1.729601
vt 1.659648 1.616047
vt 1.695146 1.729513
vt 1.659646 1.616042
vt 1.695145 1.729508
vt 1.732142 1.656477
vt 1.798353 1.361681
vt 1.793984 1.236423
vt 1.801176 1.442608
vt 1.792084 1.181949
vt 1.660084 1.617443
vt 1.695583 1.730909
vt 1.660401 1.618454
vt 1.695899 1.731919
vt 1.668906 1.645640
vt 1.679972 1.681011
vt 1.687478 1.705003
vt 1.695363 1.728813
vt 1.659864 1.615348
vt 1.758943 1.603767
vt 1.800456 1.522123
vt 1.787536 1.151706
vt 1.822030 1.479691
vt 1.637260 1.444177
vt 1.813551 1.301672
vt 1.819494 1.358177
vt 1.848045 1.629657
vt 1.629679 1.500288
vt 1.643605 1.485246
vt 1.795444 1.321231
vt 1.623806 1.580436
vt 1.627731 1.526874
vt 1.690957 1.783426
vt 1.655459 1.669960
vt 1.736938 1.647045
vt 1.651387 1.452719
vt 1.733837 1.620394
vt 1.629374 1.502965
vt 1.627426 1.529550
vt 1.629401 1.502511
vt 1.627453 1.529096
vt 1.629673 1.500366
vt 1.629367 1.503042
vt 1.629394 1.502607
vt 1.627446 1.529192
vt 1.627423 1.529581
vt 1.627451 1.529127
vt 1.676469 1.449747
vt 1.683569 1.381568
vt 1.711218 1.320439
vt 1.712604 1.410714
vt 1.627435 1.529391
vt 1.627437 1.529362
vt 1.629386 1.502752
vt 1.629377 1.502872
vn -0.162163 -0.055444 0.985205
vn -0.171684 0.034012 0.984565
vn -0.146358 -0.087587 0.985347
vn -0.039454 -0.212710 0.976318
vn -0.083711 -0.126243 0.988461
vn -0.076242 -0.041387 0.996230
vn -0.088856 -0.163733 0.982495
vn -0.204191 -0.365857 0.907995
vn -0.212790 -0.082794 0.973584
vn -0.301053 0.348734 0.887554
vn -0.046171 0.198656 0.978981
vn -0.140393 0.410433 0.901019
vn -0.010502 0.002249 0.999942
vn 0.372208 -0.241593 0.896155
vn -0.051862 -0.210674 0.976180
vn 0.260776 -0.529420 0.807286
vn 0.150393 -0.268682 0.951416
vn -0.202788 -0.003922 0.979215
vn -0.199428 -0.317806 0.926945
vn 0.021543 0.352801 0.935450
vn -0.344501 0.635087 0.691364
vn -0.263548 0.192241 0.945297
vn -0.255327 0.061098 0.964922
vn -0.049368 0.315761 0.947554
vn 0.178626 0.027511 0.983532
vn -0.002068 0.052834 0.998601
vn -0.247132 0.031991 0.968454
vn -0.004831 0.038248 0.999257
vn -0.249869 0.240093 0.938041
vn -0.210194 -0.006953 0.977635
vn 0.076253 0.215423 0.973539
vn 0.076251 0.215409 0.973542
vn 0.023701 0.117959 0.992736
vn 0.065796 0.195870 0.978420
vn 0.520551 0.082858 0.849801
vn -0.922497 -0.324071 0.209706
vn -0.993738 0.072811 0.084758
vn 0.434191 0.900820 0.001280
vn 0.341942 0.646665 0.681836
vn 0.582099 -0.286423 0.761001
vn 0.318901 0.645492 0.694004
vn -0.986051 0.153924 0.063333
vn -0.156583 0.062363 0.985694
vn -0.184991 -0.059384 0.980944
vn -0.100158 -0.118189 0.987927
vn -0.131054 -0.096874 0.986631
vn -0.887643 0.406888 0.215711
vn -0.783134 0.219494 0.581827
vn 0.017000 -0.324133 0.945859
vn -0.104301 0.317780 0.942410
vn -0.764375 0.219874 0.606123
vn 0.076356 0.215494 0.973515
vn 0.061025 0.187219 0.980421
vn -0.238277 -0.594921 0.767655
vn -0.365772 -0.301557 0.880497
vn -0.296932 0.019892 0.954691
vn -0.518762 0.058414 0.852921
vn -0.264102 0.963784 -0.037013
vn -0.023983 0.419319 0.907522
vn -0.167498 0.803201 0.571675
vn 0.164122 0.914527 0.369734
vn 0.355805 0.243329 0.902327
vn -0.504664 -0.010811 0.863248
vn 0.516071 -0.437787 0.736216
vn 0.526963 -0.369444 0.765390
vn 0.324529 -0.791609 0.517721
vn -0.871662 -0.188801 0.452282
vn -0.095126 -0.112632 0.989073
vn -0.170344 0.128474 0.976974
vn -0.068993 -0.114928 0.990975
vn 0.218988 -0.335241 0.916328
vn -0.658845 0.491480 0.569535
vn -0.711069 0.557823 0.428037
vn -0.204392 0.944698 -0.256456
vn -0.215188 0.934509 -0.283526
vn -0.783762 0.454984 -0.422737
vn -0.828842 0.366598 0.422643
vn -0.613467 0.215119 0.759856
vn -0.325892 0.498453 -0.803330
vn -0.432729 0.768741 -0.470939
vn 0.552409 -0.340093 0.761039
vn 0.178255 0.515882 0.837909
vn 0.383222 -0.064705 0.921387
vn -0.145466 0.253345 0.956376
vn -0.172319 0.123240 0.977302
vn -0.032166 0.007399 0.999455
vn -0.927680 0.293694 0.230550
vn -0.734742 0.675445 -0.062666
vn -0.897414 0.303817 0.319911
vn -0.317250 0.947707 0.034704
vn -0.407731 0.904142 -0.127603
vn -0.555246 0.824022 -0.112646
vn 0.087691 0.987485 -0.131086
vn -0.307052 0.889429 -0.338578
vn -0.796492 0.520968 0.306909
vn -0.837528 0.432743 0.333587
vn -0.385617 0.860749 -0.332281
vn 0.224622 0.785291 -0.576943
vn 0.133449 0.923418 -0.359848
vn 0.290272 0.857559 0.424658
vn 0.053509 0.707100 0.705086
vn 0.187726 -0.484683 0.854308
vn 0.354340 -0.467756 0.809720
vn 0.295117 -0.433631 0.851393
vn -0.143879 0.860747 0.488277
vn -0.656151 0.563401 0.502041
vn -0.797346 0.456372 0.394922
vn -0.227803 0.126338 0.965476
vn -0.163552 0.392437 0.905121
vn -0.429387 0.447785 0.784293
vn 0.482059 0.151162 0.863000
vn 0.296393 0.214630 0.930637
vn -0.573785 0.223384 0.787953
vn -0.709169 0.687154 -0.157795
vn -0.188523 0.575871 -0.795507
vn 0.799164 0.066019 0.597476
vn 0.027745 0.242538 0.969745
vn -0.096411 -0.154418 0.983290
vn 0.142623 0.088310 0.985830
vn -0.148968 -0.120701 0.981448
vn -0.851629 0.317244 -0.417234
vn -0.480464 0.805746 -0.346305
vn -0.165544 0.446056 0.879562
vn -0.171456 0.223889 0.959415
vn -0.084631 0.104355 0.990933
vn -0.893133 0.051162 0.446873
vn -0.622988 0.329711 0.709349
vn -0.948020 0.286997 0.137443
vn -0.864316 -0.224901 0.449864
vn -0.320353 0.850139 0.417896
vn -0.362670 0.763726 0.534035
vn -0.377743 0.856898 -0.350766
vn 0.074873 0.808310 -0.583976
vn -0.946358 0.204018 0.250566
vn -0.768225 -0.274320 0.578427
vn -0.032965 -0.005344 0.999442
vn -0.130572 0.178036 0.975323
vn -0.100487 0.186190 0.977361
vn -0.158280 0.856228 -0.491753
vn 0.176042 -0.037781 0.983657
vn -0.417207 0.815236 -0.401657
vn -0.368763 0.830858 -0.416759
vn 0.082105 0.800735 -0.593366
vn -0.286895 0.163356 0.943931
vn -0.966912 -0.199147 0.159440
vn 0.067689 -0.933735 -0.351507
vn -0.004801 -0.599380 0.800451
vn 0.346897 0.371010 0.861402
vn 0.328226 -0.694583 0.640173
vn -0.903132 -0.419175 0.092972
vn -0.109345 -0.038902 0.993242
vn -0.089933 -0.014622 0.995841
vn -0.048065 0.095687 0.994250
vn -0.236523 -0.348329 0.907041
vn 0.080482 0.213664 -0.973587
vn -0.085043 -0.168377 0.982047
vn -0.672524 -0.313520 0.670385
vn -0.195150 -0.009462 0.980728
vn -0.013463 -0.694147 0.719708
vn 0.033337 -0.997495 -0.062385
vn -0.015875 -0.321560 0.946756
vn -0.719995 0.178726 0.670570
vn 0.287809 0.528127 0.798904
vn 0.303060 0.236922 0.923051
vn 0.396180 0.442829 0.804328
vn -0.706436 0.068535 0.704450
vn -0.075116 0.063851 0.995129
vn -0.151715 -0.002737 0.988421
vn -0.053985 0.026202 0.998198
vn -0.012926 0.088731 0.995972
vn -0.098944 -0.648293 0.754935
vn -0.088636 -0.694426 0.714084
vn 0.212302 -0.975562 -0.056627
vn 0.207428 -0.976908 -0.051233
vn -0.869927 -0.381133 -0.312992
vn -0.589031 -0.766788 0.255106
vn -0.290809 -0.725237 0.624068
vn -0.071357 -0.196154 -0.977973
vn -0.246752 -0.833163 -0.494927
vn 0.174066 0.352267 0.919570
vn 0.138515 -0.541835 0.828992
vn 0.294255 0.029242 0.955280
vn -0.043853 -0.234077 0.971228
vn -0.055123 -0.769775 0.635930
vn -0.072362 -0.200158 0.977088
vn -0.055509 -0.015970 0.998330
vn -0.763988 -0.555095 0.328925
vn -0.461708 -0.883836 -0.075234
vn -0.650823 -0.563639 0.508665
vn -0.108999 -0.993086 0.043569
vn 0.131492 -0.978853 -0.156706
vn 0.014803 -0.992456 0.121700
vn 0.036522 -0.921944 -0.385597
vn -0.006361 -0.964604 -0.263625
vn -0.407870 -0.827163 0.386578
vn -0.651570 -0.598439 0.466184
vn -0.015000 -0.967779 -0.251353
vn 0.200760 -0.748647 -0.631841
vn -0.029776 -0.664225 -0.746940
vn 0.056599 -0.991402 0.117978
vn -0.030823 -0.468899 0.882714
vn 0.184045 0.420983 0.888201
vn 0.462530 0.175339 0.869093
vn 0.316055 0.105449 0.942863
vn 0.065729 -0.873787 0.481847
vn -0.399404 -0.710311 0.579600
vn -0.254775 -0.853798 0.454004
vn -0.065297 -0.053046 0.996455
vn -0.177698 -0.358922 0.916296
vn -0.120430 -0.380924 0.916730
vn 0.418874 -0.094380 0.903126
vn 0.393747 -0.042056 0.918256
vn -0.265257 -0.241667 0.933400
vn -0.354663 -0.916922 -0.182945
vn -0.048095 -0.422306 -0.905176
vn 0.592725 0.053380 0.803634
vn -0.017967 -0.059449 0.998070
vn -0.060697 0.121132 0.990779
vn 0.157867 0.025253 0.987137
vn -0.095590 0.087423 0.991574
vn -0.786810 -0.385107 -0.482310
vn -0.196878 -0.820969 -0.535956
vn -0.003607 -0.473353 0.880865
vn -0.471718 0.005114 0.881734
vn -0.028180 -0.022463 0.999350
vn -0.713233 -0.321988 0.622593
vn -0.128855 -0.407111 0.904244
vn -0.595296 -0.736685 0.320808
vn -0.728377 0.132734 0.672197
vn -0.130183 -0.906851 0.400841
vn -0.169210 -0.831238 0.529540
vn -0.151870 -0.907563 -0.391491
vn 0.105308 -0.774080 -0.624268
vn -0.802149 -0.453394 0.388575
vn -0.623437 0.147537 0.767828
vn -0.009449 0.052071 0.998599
vn -0.046826 -0.180478 0.982464
vn -0.042377 -0.181423 0.982492
vn -0.085900 -0.870256 -0.485052
vn 0.162785 0.956432 0.242362
vn -0.186308 -0.873513 -0.449739
vn -0.153403 -0.862944 -0.481451
vn 0.112300 -0.764448 -0.634829
vn -0.191137 -0.202622 0.960422
vn -0.233138 0.133652 0.963215
vn -0.235287 0.267496 0.934391
vn 0.030228 -0.112764 0.993162
vn 0.020257 -0.342555 0.939279
vn 0.096620 -0.160121 0.982357
vn -0.038635 0.637963 0.769097
vn -0.396753 0.117602 0.910361
vn -0.551209 0.218209 0.805328
vn -0.258274 0.368694 0.892950
vn 0.033425 0.234312 0.971587
vn 0.250480 0.185485 0.950187
vn -0.179373 0.204497 0.962292
vn -0.720437 -0.273741 0.637210
vn -0.693235 0.295511 0.657343
vn -0.409272 0.538552 0.736518
vn -0.466158 0.503563 0.727407
vn -0.680180 -0.077262 0.728962
vn -0.214804 0.190378 0.957922
vn -0.050420 -0.004055 0.998720
vn -0.099640 -0.023110 0.994755
vn -0.100208 -0.016911 0.994823
vn -0.040145 0.007920 0.999162
vn -0.058729 0.013657 0.998181
vn -0.025251 -0.029339 0.999250
vn -0.116861 -0.018674 0.992973
vn -0.065275 -0.036909 0.997185
vn -0.042258 -0.026655 0.998751
vn 0.040636 -0.155684 0.986971
vn -0.055572 -0.030319 0.997994
vn -0.025532 0.006270 0.999654
vn -0.129532 -0.058883 0.989825
vn -0.038093 0.056060 0.997700
vn -0.070237 -0.020669 0.997316
vn -0.014239 0.013712 0.999805
vn -0.088128 -0.012548 0.996030
vn -0.046626 -0.031129 0.998427
vn -0.005218 -0.045218 0.998963
vn -0.035456 -0.032539 0.998841
vn -0.037966 -0.041574 0.998414
vn 0.000000 0.000000 1.000000
vn 0.000000 0.000000 1.000000
vn 0.000000 0.000000 1.000000
vn 0.000000 0.000000 1.000000
vn 0.000000 0.000000 1.000000
vn 0.000000 0.000000 1.000000
vn 0.000000 0.000000 1.000000
vn 0.267268 0.439358 0.857632
vn 0.423432 0.100625 0.900322
vn 0.696822 -0.102264 0.709916
vn 0.443308 0.266738 0.855762
vn -0.464324 0.069528 0.882932
vn -0.847755 0.509376 0.147812
vn 0.326678 0.127152 0.936544
vn 0.357212 0.046040 0.932888
vn -0.114951 -0.052087 0.992005
vn -0.769701 0.009314 0.638337
vn -0.990438 0.137265 0.013814
vn 0.341871 0.673346 0.655537
vn -0.232842 0.276921 0.932255
vn 0.340172 0.227513 0.912426
vn 0.001189 -0.015260 0.999883
vn 0.151962 0.380404 0.912250
vn -0.075730 0.072561 0.994485
vn -0.038768 0.408171 0.912082
vn 0.488670 -0.176359 0.854459
vn -0.153947 0.377171 0.913259
vn 0.883477 -0.279304 0.376108
vn -0.190312 0.663839 0.723256
vn 0.043926 0.348398 0.936317
vn 0.586318 0.332877 0.738528
vn 0.750827 -0.478262 0.455547
vn 0.001890 0.367911 0.929859
vn -0.122889 0.288160 0.949664
vn -0.102304 0.250043 0.962815
vn -0.087401 0.267637 0.959548
vn 0.801288 -0.592801 0.080779
vn 0.548187 -0.438018 0.712483
vn -0.165947 0.303817 0.938167
vn -0.332988 0.572855 0.748970
g fff07975_00241_006686f5_e27
f 8/40/8 19/39/19 3/38/3
f 3/38/3 7/37/7 8/40/8
f 26/64/26 244/170/244 9/63/9
f 3/38/3 244/170/244 7/37/7
f 15/36/15 6/62/6 17/61/17
f 6/62/6 15/36/15 5/60/5
f 8/40/8 15/36/15 19/39/19
f 15/36/15 8/40/8 5/60/5
f 17/61/17 4/59/4 14/58/14
f 4/59/4 17/61/17 6/62/6
f 248/178/248 13/176/13 247/174/247
f 13/176/13 248/178/248 249/179/249
f 24/55/24 12/54/12 13/57/13
f 13/57/13 25/56/25 24/55/24
f 246/173/246 22/53/22 262/51/262
f 249/179/249 25/56/25 13/57/13
f 21/67/21 29/66/29 20/52/20
f 21/67/21 246/173/246 262/51/262
f 250/180/250 11/181/11 12/54/12
f 250/180/250 20/52/20 11/50/11
f 29/66/29 11/50/11 20/52/20
f 29/66/29 21/67/21 262/51/262
f 245/172/245 262/51/262 22/53/22
f 248/178/248 247/174/247 4/59/4
f 3/38/3 9/63/9 244/170/244
f 250/180/250 12/54/12 24/55/24
f 247/174/247 14/58/14 4/59/4
g fff07975_00241_006686f5_e26
f 3/34/3 19/33/19 30/73/30
f 2/32/2 1/31/1 18/33/18
f 17/30/17 16/29/16 19/28/19
f 17/30/17 19/28/19 15/27/15
f 247/175/247 13/177/13 2/33/2
f 14/26/14 16/29/16 17/30/17
f 2/32/2 11/47/11 1/31/1
f 18/33/18 247/49/247 2/32/2
f 16/29/16 18/33/18 19/28/19
f 11/182/11 13/49/13 12/48/12
f 29/65/29 262/45/262 1/33/1
f 18/33/18 30/46/30 19/28/19
f 23/69/23 27/68/27 245/172/245
f 28/31/28 262/44/262 27/34/27
f 28/72/28 9/43/9 3/33/3
f 247/175/247 18/33/18 16/29/16
f 11/42/11 29/65/29 1/33/1
f 28/72/28 27/71/27 9/43/9
f 30/73/30 18/33/18 1/31/1
f 1/41/1 262/71/262 28/72/28
f 30/70/30 28/72/28 3/33/3
f 1/41/1 28/72/28 30/70/30
f 14/26/14 247/175/247 16/29/16
f 13/49/13 11/182/11 2/32/2
f 255/190/255 254/184/254 256/183/256
f 256/185/256 252/186/252 251/187/251
f 254/188/254 253/189/253 252/186/252
f 256/185/256 254/184/254 252/186/252
f 258/192/258 261/200/261 252/186/252
f 251/187/251 261/200/261 257/191/257
f 22/193/22 259/197/259 253/189/253
f 252/186/252 260/199/260 258/192/258
f 253/189/253 254/188/254 23/194/23
f 245/198/245 22/193/22 253/189/253
f 254/184/254 255/190/255 26/196/26
f 26/196/26 23/195/23 254/184/254
f 252/186/252 253/189/253 259/197/259
f 23/194/23 245/198/245 253/189/253
f 252/186/252 259/197/259 260/199/260
f 251/187/251 252/186/252 261/200/261
f 245/172/245 27/68/27 262/51/262
f 23/69/23 26/171/26 9/35/9
f 27/68/27 23/69/23 9/35/9
f 265/190/265 264/184/264 279/219/279
f 266/185/266 279/184/279 263/186/263
f 263/186/263 267/202/267 266/185/266
f 278/218/278 277/217/277 264/215/264
f 263/201/263 269/204/269 267/202/267
f 269/204/269 263/201/263 268/203/268
f 268/203/268 270/206/270 269/204/269
f 264/213/264 275/214/275 276/216/276
f 268/205/268 271/208/271 270/206/270
f 264/211/264 274/212/274 275/214/275
f 268/207/268 273/210/273 271/208/271
f 283/223/283 268/207/268 272/209/272
f 264/184/264 265/190/265 274/212/274
f 264/215/264 276/216/276 278/218/278
f 279/219/279 264/184/264 263/183/263
f 273/210/273 268/207/268 282/222/282
f 280/220/280 268/207/268 281/221/281
f 282/222/282 268/207/268 280/220/280
f 281/221/281 268/207/268 283/223/283
f 277/217/277 278/218/278 285/225/285
f 285/225/285 284/224/284 277/217/277
f 290/230/290 285/225/285 287/227/287
f 288/228/288 286/226/286 284/224/284
f 285/225/285 290/230/290 284/224/284
f 288/228/288 284/224/284 289/229/289
f 289/229/289 284/224/284 290/230/290
f 298/231/298 297/232/297 305/248/305
f 299/234/299 307/235/307 295/236/295
f 305/248/305 297/232/297 307/250/307
f 299/234/299 305/232/305 307/235/307
f 301/238/301 304/239/304 296/235/296
f 295/236/295 304/239/304 300/240/300
f 291/241/291 302/242/302 306/249/306
f 296/235/296 303/243/303 301/238/301
f 295/236/295 296/235/296 304/239/304
f 294/245/294 291/241/291 306/249/306
f 297/232/297 298/231/298 293/246/293
f 293/246/293 292/247/292 297/232/297
f 296/235/296 307/237/307 318/263/318
f 292/244/292 294/245/294 297/237/297
f 319/264/319 318/263/318 316/261/316
f 306/249/306 297/237/297 294/245/294
f 316/261/316 306/249/306 302/242/302
f 307/250/307 297/232/297 306/233/306
f 295/248/295 307/250/307 296/233/296
f 291/241/291 294/245/294 309/252/309
f 309/252/309 308/251/308 291/241/291
f 308/251/308 309/252/309 321/266/321
f 311/254/311 310/253/310 322/267/322
f 312/256/312 291/241/291 308/251/308
f 291/241/291 312/256/312 302/255/302
f 313/257/313 322/267/322 310/253/310
f 308/251/308 323/268/323 312/256/312
f 310/253/310 311/254/311 314/258/314
f 314/258/314 313/257/313 310/253/310
f 314/260/314 311/254/311 321/266/321
f 309/252/309 315/259/315 320/265/320
f 296/235/296 319/264/319 303/243/303
f 317/262/317 307/237/307 306/249/306
f 317/262/317 306/249/306 316/261/316
f 318/263/318 307/237/307 317/262/317
f 318/263/318 317/262/317 316/261/316
f 296/235/296 318/263/318 319/264/319
f 309/252/309 320/265/320 321/266/321
f 314/260/314 321/266/321 320/265/320
f 308/251/308 321/266/321 322/267/322
f 311/254/311 322/267/322 321/266/321
f 313/257/313 323/268/323 322/267/322
f 308/251/308 322/267/322 323/268/323
g fff07975_00241_006686f5_e25
f 125/20/125 108/2/108 124/19/124
f 55/158/55 62/149/62 60/147/60
f 48/153/48 55/158/55 60/147/60
f 123/131/123 10/130/10 84/129/84
f 59/98/59 85/138/85 50/113/50
f 70/140/70 46/134/46 71/141/71
f 57/80/57 107/1/107 106/169/106
f 106/169/106 107/1/107 114/18/114
f 51/114/51 56/115/56 83/144/83
f 10/130/10 51/114/51 83/144/83
f 123/131/123 51/114/51 10/130/10
f 85/138/85 59/98/59 84/129/84
f 10/130/10 83/144/83 68/135/68
f 45/133/45 10/130/10 68/135/68
f 59/98/59 123/131/123 84/129/84
f 84/129/84 45/133/45 44/128/44
f 46/134/46 43/132/43 71/141/71
f 84/129/84 10/130/10 45/133/45
f 44/128/44 70/140/70 85/138/85
f 57/80/57 120/14/120 119/12/119
f 57/80/57 119/12/119 117/10/117
f 57/80/57 117/10/117 56/115/56
f 124/19/124 77/86/77 63/118/63
f 111/5/111 110/4/110 77/86/77
f 78/100/78 126/17/126 73/81/73
f 108/2/108 111/5/111 77/86/77
f 111/5/111 109/3/109 110/4/110
f 52/155/52 53/156/53 32/151/32
f 31/150/31 52/155/52 32/151/32
f 212/6/212 225/20/225 208/2/208
f 170/141/170 168/137/168 151/132/151
f 57/80/57 106/169/106 120/14/120
f 124/19/124 108/2/108 77/86/77
f 85/138/85 84/129/84 44/128/44
f 78/100/78 42/97/42 126/17/126
f 46/134/46 70/140/70 44/128/44
f 71/141/71 43/132/43 69/137/69
f 112/6/112 108/2/108 125/20/125
f 225/20/225 224/19/224 208/2/208
f 223/131/223 183/129/183 184/130/184
f 161/98/161 156/113/156 185/138/185
f 169/140/169 170/141/170 154/134/154
f 159/80/159 206/169/206 207/1/207
f 206/169/206 214/18/214 207/1/207
f 157/114/157 182/144/182 158/115/158
f 184/130/184 182/144/182 157/114/157
f 223/131/223 184/130/184 157/114/157
f 185/138/185 183/129/183 161/98/161
f 184/130/184 167/135/167 182/144/182
f 153/133/153 167/135/167 184/130/184
f 161/98/161 183/129/183 223/131/223
f 183/129/183 152/128/152 153/133/153
f 154/134/154 170/141/170 151/132/151
f 183/129/183 153/133/153 184/130/184
f 152/128/152 185/138/185 169/140/169
f 159/80/159 219/12/219 220/14/220
f 159/80/159 217/10/217 219/12/219
f 159/80/159 158/115/158 217/10/217
f 224/19/224 162/118/162 176/86/176
f 211/5/211 176/86/176 210/4/210
f 177/100/177 172/81/172 226/17/226
f 208/2/208 176/86/176 211/5/211
f 211/5/211 210/4/210 209/3/209
f 159/80/159 220/14/220 206/169/206
f 224/19/224 176/86/176 208/2/208
f 185/138/185 152/128/152 183/129/183
f 177/100/177 226/17/226 150/97/150
f 154/134/154 152/128/152 169/140/169
g fff07975_00241_006686f5_e24
f 138/112/138 131/122/131 137/143/137
f 140/121/140 136/142/136 131/122/131
f 81/95/81 71/141/71 65/105/65
f 102/108/102 70/140/70 81/95/81
f 137/143/137 131/122/131 136/142/136
f 86/139/86 50/113/50 85/138/85
f 81/95/81 70/140/70 71/141/71
f 65/105/65 69/137/69 49/136/49
f 65/105/65 71/141/71 69/137/69
f 82/106/82 86/139/86 104/111/104
f 82/106/82 50/113/50 86/139/86
f 166/96/166 187/164/187 229/74/229
f 189/166/189 234/75/234 235/76/235
f 55/158/55 48/153/48 54/157/54
f 47/152/47 54/157/54 48/153/48
f 47/152/47 60/147/60 61/148/61
f 60/147/60 47/152/47 48/153/48
f 187/164/187 189/166/189 235/76/235
f 188/165/188 187/164/187 166/96/166
f 131/122/131 138/112/138 130/119/130
f 68/135/68 46/134/46 45/133/45
f 44/79/44 45/78/45 46/77/46
f 46/134/46 68/135/68 43/132/43
f 86/139/86 70/140/70 102/108/102
f 86/139/86 85/138/85 70/140/70
f 104/111/104 86/139/86 102/108/102
f 112/6/112 117/10/117 116/9/116
f 116/9/116 118/11/118 105/13/105
f 112/6/112 116/9/116 105/13/105
f 112/6/112 105/13/105 111/5/111
f 110/4/110 105/13/105 77/86/77
f 111/5/111 105/13/105 109/3/109
f 109/3/109 105/13/105 110/4/110
f 108/2/108 112/6/112 111/5/111
f 42/97/42 114/21/114 128/25/128
f 91/116/91 113/23/113 51/114/51
f 107/1/107 57/80/57 127/24/127
f 114/21/114 107/1/107 127/24/127
f 128/25/128 114/21/114 127/24/127
f 42/97/42 128/25/128 126/22/126
f 96/163/96 42/97/42 95/162/95
f 95/162/95 42/97/42 78/100/78
f 134/75/134 42/97/42 96/163/96
f 42/97/42 134/75/134 114/7/114
f 87/164/87 129/74/129 135/76/135
f 89/166/89 134/75/134 96/163/96
f 88/165/88 67/96/67 87/164/87
f 87/164/87 135/76/135 89/166/89
f 89/166/89 135/76/135 134/75/134
f 67/96/67 129/74/129 87/164/87
f 238/112/238 237/143/237 231/122/231
f 240/121/240 231/122/231 236/142/236
f 180/95/180 164/105/164 170/141/170
f 202/108/202 180/95/180 169/140/169
f 237/143/237 236/142/236 231/122/231
f 186/139/186 185/138/185 156/113/156
f 180/95/180 170/141/170 169/140/169
f 164/105/164 155/136/155 168/137/168
f 164/105/164 168/137/168 170/141/170
f 181/106/181 204/111/204 186/139/186
f 181/106/181 186/139/186 156/113/156
f 231/122/231 230/119/230 238/112/238
f 167/135/167 153/133/153 154/134/154
f 152/79/152 154/77/154 153/78/153
f 154/134/154 151/132/151 167/135/167
f 186/139/186 202/108/202 169/140/169
f 186/139/186 169/140/169 185/138/185
f 204/111/204 202/108/202 186/139/186
f 212/6/212 216/9/216 217/10/217
f 216/9/216 205/13/205 218/11/218
f 212/6/212 205/13/205 216/9/216
f 212/6/212 211/5/211 205/13/205
f 210/4/210 176/86/176 205/13/205
f 211/5/211 209/3/209 205/13/205
f 209/3/209 210/4/210 205/13/205
f 208/2/208 211/5/211 212/6/212
f 150/97/150 228/25/228 214/21/214
f 191/116/191 157/114/157 213/23/213
f 207/1/207 227/24/227 159/80/159
f 214/21/214 227/24/227 207/1/207
f 228/25/228 227/24/227 214/21/214
f 150/97/150 226/22/226 228/25/228
f 196/163/196 195/162/195 150/97/150
f 195/162/195 177/100/177 150/97/150
f 234/75/234 196/163/196 150/97/150
f 150/97/150 214/7/214 234/75/234
f 187/164/187 235/76/235 229/74/229
f 189/166/189 196/163/196 234/75/234
g fff07975_00241_006686f5_e23
f 113/23/113 57/80/57 56/115/56
f 62/149/62 55/158/55 54/157/54
f 54/157/54 35/146/35 62/149/62
f 53/156/53 52/155/52 34/145/34
f 34/145/34 33/154/33 53/156/53
f 172/81/172 171/117/171 228/25/228
f 172/81/172 173/82/173 171/117/171
f 56/115/56 51/114/51 113/23/113
f 59/98/59 50/113/50 82/106/82
f 82/106/82 101/93/101 59/98/59
f 127/24/127 57/80/57 113/23/113
f 91/116/91 127/24/127 113/23/113
f 126/22/126 128/25/128 73/81/73
f 73/81/73 72/117/72 74/82/74
f 73/81/73 128/25/128 72/117/72
f 213/23/213 158/115/158 159/80/159
f 158/115/158 213/23/213 157/114/157
f 161/98/161 181/106/181 156/113/156
f 181/106/181 161/98/161 201/93/201
f 227/24/227 213/23/213 159/80/159
f 191/116/191 213/23/213 227/24/227
f 226/22/226 172/81/172 228/25/228
g fff07975_00241_006686f5_e22
f 97/168/97 96/163/96 95/162/95
f 135/76/135 37/102/37 134/75/134
f 143/127/143 133/126/133 142/125/142
f 132/124/132 141/123/141 131/122/131
f 132/124/132 94/161/94 141/123/141
f 141/123/141 140/121/140 131/122/131
f 101/93/101 82/106/82 41/107/41
f 99/90/99 100/92/100 93/101/93
f 100/92/100 101/93/101 41/107/41
f 133/126/133 139/120/139 132/124/132
f 142/125/142 132/124/132 130/119/130
f 142/125/142 133/126/133 132/124/132
f 92/160/92 95/162/95 78/100/78
f 77/86/77 36/99/36 63/118/63
f 132/124/132 139/120/139 94/161/94
f 121/15/121 37/102/37 79/87/79
f 132/124/132 131/122/131 130/119/130
f 102/108/102 81/95/81 64/103/64
f 102/108/102 64/103/64 66/110/66
f 77/86/77 76/85/76 36/99/36
f 97/168/97 95/162/95 92/160/92
f 129/74/129 37/102/37 135/76/135
f 134/75/134 37/102/37 114/7/114
f 160/83/160 196/163/196 189/166/189
f 197/168/197 174/84/174 192/160/192
f 62/149/62 61/148/61 60/147/60
f 61/148/61 62/149/62 35/146/35
f 101/93/101 39/91/39 59/98/59
f 100/92/100 41/107/41 93/101/93
f 106/169/106 114/7/114 80/94/80
f 80/94/80 37/102/37 121/15/121
f 115/8/115 79/87/79 76/85/76
f 122/16/122 76/85/76 77/86/77
f 122/16/122 115/8/115 76/85/76
f 105/13/105 122/16/122 77/86/77
f 114/7/114 37/102/37 80/94/80
f 75/84/75 92/160/92 94/159/94
f 58/83/58 96/163/96 97/168/97
f 94/159/94 92/160/92 74/82/74
f 92/160/92 73/81/73 74/82/74
f 92/160/92 78/100/78 73/81/73
f 72/117/72 128/25/128 127/24/127
f 74/82/74 72/117/72 91/116/91
f 58/83/58 90/167/90 89/166/89
f 72/117/72 127/24/127 91/116/91
f 58/83/58 97/168/97 75/84/75
f 88/165/88 87/164/87 89/166/89
f 90/167/90 88/165/88 89/166/89
f 97/168/97 92/160/92 75/84/75
f 58/83/58 89/166/89 96/163/96
f 197/168/197 195/162/195 196/163/196
f 235/76/235 234/75/234 145/102/145
f 243/127/243 242/125/242 233/126/233
f 232/124/232 231/122/231 241/123/241
f 232/124/232 241/123/241 194/161/194
f 241/123/241 231/122/231 240/121/240
f 201/93/201 149/107/149 181/106/181
f 199/90/199 193/101/193 200/92/200
f 200/92/200 149/107/149 201/93/201
f 233/126/233 232/124/232 239/120/239
f 242/125/242 230/119/230 232/124/232
f 242/125/242 232/124/232 233/126/233
f 192/160/192 177/100/177 195/162/195
f 176/86/176 162/118/162 144/99/144
f 232/124/232 194/161/194 239/120/239
f 221/15/221 178/87/178 145/102/145
f 232/124/232 230/119/230 231/122/231
f 202/108/202 163/103/163 180/95/180
f 202/108/202 165/110/165 163/103/163
f 176/86/176 144/99/144 175/85/175
f 197/168/197 192/160/192 195/162/195
f 229/74/229 235/76/235 145/102/145
f 234/75/234 214/7/214 145/102/145
f 201/93/201 161/98/161 147/91/147
f 200/92/200 193/101/193 149/107/149
f 206/169/206 179/94/179 214/7/214
f 179/94/179 221/15/221 145/102/145
f 215/8/215 175/85/175 178/87/178
f 222/16/222 176/86/176 175/85/175
f 222/16/222 175/85/175 215/8/215
f 205/13/205 176/86/176 222/16/222
f 214/7/214 179/94/179 145/102/145
f 174/84/174 194/159/194 192/160/192
f 160/83/160 197/168/197 196/163/196
f 194/159/194 173/82/173 192/160/192
f 192/160/192 173/82/173 172/81/172
f 192/160/192 172/81/172 177/100/177
f 171/117/171 227/24/227 228/25/228
f 173/82/173 191/116/191 171/117/171
f 160/83/160 189/166/189 190/167/190
f 171/117/171 191/116/191 227/24/227
f 160/83/160 174/84/174 197/168/197
f 188/165/188 189/166/189 187/164/187
f 190/167/190 189/166/189 188/165/188
g fff07975_00241_006686f5_e21
f 104/111/104 66/110/66 103/109/103
f 102/108/102 66/110/66 104/111/104
f 103/109/103 41/107/41 82/106/82
f 104/111/104 103/109/103 82/106/82
f 65/105/65 40/104/40 81/95/81
f 81/95/81 40/104/40 64/103/64
f 122/16/122 80/94/80 121/15/121
f 120/14/120 106/169/106 105/13/105
f 105/13/105 106/169/106 80/94/80
f 101/93/101 100/92/100 39/91/39
f 100/92/100 99/90/99 38/89/38
f 99/90/99 98/88/98 38/89/38
f 100/92/100 38/89/38 39/91/39
f 105/13/105 80/94/80 122/16/122
f 119/12/119 120/14/120 118/11/118
f 118/11/118 120/14/120 105/13/105
f 117/10/117 119/12/119 116/9/116
f 116/9/116 119/12/119 118/11/118
f 121/15/121 79/87/79 115/8/115
f 122/16/122 121/15/121 115/8/115
f 204/111/204 203/109/203 165/110/165
f 202/108/202 204/111/204 165/110/165
f 203/109/203 181/106/181 149/107/149
f 204/111/204 181/106/181 203/109/203
f 164/105/164 180/95/180 148/104/148
f 180/95/180 163/103/163 148/104/148
f 222/16/222 221/15/221 179/94/179
f 220/14/220 205/13/205 206/169/206
f 205/13/205 179/94/179 206/169/206
f 201/93/201 147/91/147 200/92/200
f 200/92/200 146/89/146 199/90/199
f 199/90/199 146/89/146 198/88/198
f 200/92/200 147/91/147 146/89/146
f 205/13/205 222/16/222 179/94/179
f 219/12/219 218/11/218 220/14/220
f 218/11/218 205/13/205 220/14/220
f 217/10/217 216/9/216 219/12/219
f 216/9/216 218/11/218 219/12/219
f 221/15/221 215/8/215 178/87/178
f 222/16/222 215/8/215 221/15/221
