# fff06058_00111_00260da6
o fff06058_00111_00260da6
v -1.322415 -0.041798 -1.141007
v -1.189701 -0.041798 -1.141007
v -1.322415 -0.127861 -1.141007
v -1.189701 -0.127861 -1.141007
v -1.322415 -0.041798 0.727137
v -1.189701 -0.041798 0.727137
v -1.322415 -0.127861 0.727137
v -1.189701 -0.127861 0.727137
v -1.309719 -0.039540 -1.110266
v -1.202397 -0.039540 -1.110266
v -1.309719 -0.039540 -1.000566
v -1.202397 -0.039540 -1.000566
v -1.299782 -0.038350 -1.100109
v -1.212334 -0.038350 -1.100109
v -1.299782 -0.038350 -1.010722
v -1.212334 -0.038350 -1.010722
v -1.256130 0.068604 0.241054
v -1.197545 0.110015 0.282483
v -1.256130 0.004852 0.324303
v -1.211253 0.036585 0.356037
v -1.314716 0.110015 0.282484
v -1.256132 0.151455 0.323913
v -1.301006 0.036585 0.356038
v -1.256132 0.068318 0.387773
v -1.256130 0.073749 0.243760
v -1.203094 0.111239 0.281268
v -1.309167 0.111239 0.281269
v -1.256132 0.148729 0.318766
v -1.309419 0.151673 0.456406
v -1.202698 0.151673 0.456406
v -1.309419 0.151673 0.474308
v -1.202698 0.151673 0.474308
v -1.309419 -0.042290 0.428205
v -1.202698 -0.042290 0.428205
v -1.202698 -0.008185 0.377367
v -1.309419 -0.008185 0.377367
v -1.309419 -0.042290 0.256761
v -1.202698 -0.042290 0.256761
v -1.202698 -0.008185 0.271451
v -1.309419 -0.008185 0.271451
v -1.256108 -0.021226 0.373004
v -1.226825 -0.000514 0.393705
v -1.285390 -0.000512 0.393704
v -1.256109 0.020200 0.414406
v -1.256127 0.019424 0.332371
v -1.226844 0.040136 0.353072
v -1.285409 0.040138 0.353072
v -1.256128 0.060850 0.373773
v 0.014780 -0.041798 -1.141007
v 0.147494 -0.041798 -1.141007
v 0.014780 -0.127861 -1.141007
v 0.147494 -0.127861 -1.141007
v 0.014780 -0.041798 0.727137
v 0.147494 -0.041798 0.727137
v 0.014780 -0.127861 0.727137
v 0.147494 -0.127861 0.727137
v 0.027476 -0.039540 -1.110266
v 0.134797 -0.039540 -1.110266
v 0.027476 -0.039540 -1.000566
v 0.134797 -0.039540 -1.000566
v 0.037412 -0.038350 -1.100109
v 0.124861 -0.038350 -1.100109
v 0.037412 -0.038350 -1.010722
v 0.124861 -0.038350 -1.010722
v 0.081064 0.068604 0.241054
v 0.139649 0.110015 0.282483
v 0.081064 0.004852 0.324303
v 0.125941 0.036585 0.356037
v 0.022479 0.110015 0.282484
v 0.081062 0.151455 0.323913
v 0.036188 0.036585 0.356038
v 0.081062 0.068318 0.387773
v 0.081064 0.073749 0.243760
v 0.134101 0.111239 0.281268
v 0.028027 0.111239 0.281269
v 0.081062 0.148729 0.318766
v 0.027775 0.151673 0.456406
v 0.134497 0.151673 0.456406
v 0.027775 0.151673 0.474308
v 0.134497 0.151673 0.474308
v 0.027775 -0.042290 0.428205
v 0.134497 -0.042290 0.428205
v 0.134497 -0.008185 0.377367
v 0.027775 -0.008185 0.377367
v 0.027775 -0.042290 0.256761
v 0.134497 -0.042290 0.256761
v 0.134497 -0.008185 0.271451
v 0.027775 -0.008185 0.271451
v 0.081087 -0.021226 0.373004
v 0.110370 -0.000514 0.393705
v 0.051805 -0.000512 0.393704
v 0.081086 0.020200 0.414406
v 0.081067 0.019424 0.332371
v 0.110351 0.040136 0.353072
v 0.051786 0.040138 0.353072
v 0.081066 0.060850 0.373773
v -0.677485 -0.017680 0.038387
v -0.704291 -0.017680 0.011581
v -0.677485 -0.017680 -0.015226
v -0.650678 -0.017680 0.011581
v -0.677485 0.116355 -0.095645
v -0.704291 0.089525 -0.095645
v -0.677485 0.062724 -0.095645
v -0.650678 0.089525 -0.095645
v -0.677485 0.077091 -0.000870
v -0.704291 0.058131 -0.019824
v -0.677485 0.039171 -0.038779
v -0.650678 0.058131 -0.019824
v -0.677485 -0.151673 0.038387
v -0.704291 -0.151673 0.011581
v -0.677485 -0.151673 -0.015226
v -0.650678 -0.151673 0.011581
v -0.677485 0.116357 -0.992484
v -0.704291 0.089521 -0.992484
v -0.677485 0.062717 -0.992484
v -0.650678 0.089521 -0.992484
v -0.677485 -0.017680 -1.126516
v -0.704291 -0.017680 -1.099710
v -0.677485 -0.017680 -1.072903
v -0.650678 -0.017680 -1.099710
v -0.677485 0.077091 -1.087259
v -0.704291 0.058131 -1.068305
v -0.677485 0.039171 -1.049350
v -0.650678 0.058131 -1.068305
v -0.677485 -0.151673 -1.126516
v -0.704291 -0.151673 -1.099710
v -0.677485 -0.151673 -1.072903
v -0.650678 -0.151673 -1.099710
v -0.733017 -0.064836 -1.160234
v -0.617715 -0.064836 -1.160234
v -0.733017 -0.064836 -1.042376
v -0.617715 -0.064836 -1.042376
v -0.733017 -0.077440 -1.160234
v -0.617715 -0.077440 -1.160234
v -0.733017 -0.077440 -1.042376
v -0.617715 -0.077440 -1.042376
v -0.733017 -0.064836 -0.049976
v -0.617715 -0.064836 -0.049976
v -0.733017 -0.064836 0.067882
v -0.617715 -0.064836 0.067882
v -0.733017 -0.077440 -0.049976
v -0.617715 -0.077440 -0.049976
v -0.733017 -0.077440 0.067882
v -0.617715 -0.077440 0.067882
v -1.282583 -0.084295 0.990582
v -1.255777 -0.057470 0.990582
v -1.228969 -0.084295 0.990582
v -1.255777 -0.111090 0.990582
v -1.148552 -0.084295 1.124615
v -1.148552 -0.057470 1.097790
v -1.148552 -0.084295 1.070996
v -1.148552 -0.111090 1.097790
v -1.243326 -0.084295 1.085339
v -1.224373 -0.057470 1.066388
v -1.205418 -0.084295 1.047436
v -1.224373 -0.111090 1.066388
v -1.282583 -0.084295 0.717419
v -1.255777 -0.057470 0.717419
v -1.228969 -0.084295 0.717419
v -1.255777 -0.111090 0.717419
v 1.322415 -0.084295 1.124615
v 1.322415 -0.057470 1.097790
v 1.322415 -0.084295 1.070965
v 1.322415 -0.111090 1.097790
v 0.052485 -0.084295 1.097790
v 0.079291 -0.057470 1.097790
v 0.106098 -0.084295 1.097790
v 0.079291 -0.111090 1.097790
v 0.052485 -0.084295 0.717419
v 0.079291 -0.057470 0.717419
v 0.106098 -0.084295 0.717419
v 0.079291 -0.111090 0.717419
v -1.181292 -0.124652 0.845763
v -1.252313 -0.053754 0.845763
v -1.181292 -0.124652 0.811872
v -1.252313 -0.053754 0.811872
v 0.154861 -0.124652 0.845763
v 0.083840 -0.053754 0.845763
v 0.154861 -0.124652 0.811872
v 0.083840 -0.053754 0.811872
v -0.607009 -0.115681 1.017951
v -0.559765 -0.115681 1.017951
v -0.607009 -0.115681 1.160234
v -0.559765 -0.115681 1.160234
vt 0.667139 0.736781
vt 0.737571 0.736781
vt 0.667139 0.807213
vt 0.737571 0.807213
vt 0.667139 0.249782
vt 0.737571 0.249782
vt 0.667139 0.320214
vt 0.737571 0.320214
vt 0.168897 -0.247170
vt 0.239330 -0.247170
vt 0.168897 -0.176737
vt 0.239330 -0.176737
vt 0.694864 -0.249275
vt 0.765297 -0.249275
vt 0.765297 -0.178843
vt 0.694864 -0.178843
vt 1.208058 0.213987
vt 1.137626 0.213987
vt 0.719473 0.171315
vt 0.789906 0.171315
vt 0.789906 0.241747
vt 0.719473 0.241747
vt 0.000000 -1.000000
vt 2.000000 -1.000000
vt 2.000000 1.000000
vt 0.000000 1.000000
vt 0.710615 -0.764328
vt 0.782496 -0.764328
vt 0.710615 -0.692447
vt 0.782496 -0.692447
vt 0.000000 -3.000000
vt 2.000000 -3.000000
vt 2.000000 -1.000000
vt 0.000000 -1.000000
vt 0.245900 0.738906
vt 0.316333 0.738906
vt 0.316333 0.809339
vt 0.245900 0.809339
vt 0.697568 -1.173685
vt 0.769449 -1.173685
vt 0.769449 -1.101804
vt 0.697568 -1.101804
vt 1.137626 0.273885
vt 1.208058 0.270186
vt 1.208058 0.284419
vt 1.137626 0.284419
vt 1.208058 0.270186
vt 1.137626 0.273885
vt 0.733860 0.827538
vt 0.642111 0.788017
vt 0.622537 0.811352
vt 0.733860 0.837813
vt 0.622537 0.730153
vt 0.642111 0.738584
vt 1.767886 -0.649142
vt 1.697454 -0.645444
vt 0.782496 -0.764328
vt 0.710615 -0.764328
vt 0.782496 -0.692447
vt 0.710615 -0.692447
vt 0.750000 0.619712
vt 0.750000 0.688699
vt 0.750000 0.757686
vt 0.750000 0.826674
vt 0.750000 0.895661
vt 0.795955 0.619712
vt 0.795955 0.688699
vt 0.795955 0.757686
vt 0.795955 0.826674
vt 0.795955 0.895661
vt 0.841910 0.619712
vt 0.841910 0.688699
vt 0.841910 0.757686
vt 0.841910 0.826674
vt 0.841910 0.895661
vt 0.841910 0.895661
vt 0.841910 0.826674
vt 0.841910 0.619712
vt 0.841910 0.688699
vt 0.841910 0.757686
vt 0.750000 0.895661
vt 0.750000 0.826674
vt 0.750000 0.619712
vt 0.750000 0.688699
vt 0.750000 0.757686
vt 0.715556 -0.752770
vt 0.785988 -0.682338
vt 0.785988 -0.752770
vt 0.715556 -0.682338
vt 0.715917 -0.267694
vt 0.786350 -0.197261
vt 0.786350 -0.267694
vt 0.715917 -0.197261
vt 0.782638 -0.176936
vt 0.671315 -0.193122
vt 0.690890 -0.216457
vt 0.782638 -0.166662
vt 0.671315 -0.274321
vt 0.690890 -0.265890
vn 0.000000 1.000000 0.000000
vn 0.707107 0.707107 0.000000
vn 0.000000 -1.000000 0.000000
vn 0.707107 -0.707107 0.000000
vn 0.000000 0.707107 0.707107
vn 0.577350 0.577350 0.577350
vn 0.000000 -0.707107 0.707107
vn 0.577350 -0.577350 0.577350
vn 0.000000 1.000000 0.000000
vn 0.000000 1.000000 0.000000
vn 0.000000 1.000000 0.000000
vn 0.000000 1.000000 0.000000
vn 0.000000 1.000000 0.000000
vn 0.000000 1.000000 0.000000
vn 0.000000 1.000000 0.000000
vn 0.000000 1.000000 0.000000
vn 0.000010 -0.226673 -0.973971
vn 0.848901 0.373504 -0.373982
vn 0.000014 -0.793960 -0.607970
vn 0.991418 -0.092150 0.092726
vn -0.848898 0.373508 -0.373983
vn -0.000011 0.974102 0.226108
vn -0.991412 -0.092180 0.092759
vn -0.000024 0.609199 0.793018
vn -0.000002 0.707229 -0.706985
vn 0.000068 0.707229 -0.706985
vn -0.000073 0.707229 -0.706985
vn -0.000002 0.707229 -0.706985
vn 0.000000 0.849475 -0.527629
vn 0.605417 0.676105 -0.419944
vn 0.000000 0.619980 0.784617
vn 0.566061 0.511089 0.646809
vn 0.000000 -0.231249 0.972895
vn 0.754199 -0.151849 0.638848
vn 0.847062 0.451492 -0.280432
vn 0.000000 0.849475 -0.527629
vn 0.000000 0.395594 -0.918425
vn 0.595402 0.317832 -0.737889
vn 0.601806 0.667140 -0.439037
vn 0.000000 0.835343 -0.549730
vn 0.000154 -0.706957 -0.707256
vn 1.000000 0.000086 -0.000389
vn -1.000000 -0.000403 0.000074
vn 0.000136 0.706956 0.707257
vn -0.000172 -0.706957 -0.707257
vn 1.000000 0.000399 -0.000075
vn -1.000000 -0.000085 0.000389
vn -0.000188 0.706957 0.707257
vn 0.000000 1.000000 0.000000
vn 0.707107 0.707107 0.000000
vn 0.000000 -1.000000 0.000000
vn 0.707107 -0.707107 0.000000
vn 0.000000 0.707107 0.707107
vn 0.577350 0.577350 0.577350
vn 0.000000 -0.707107 0.707107
vn 0.577350 -0.577350 0.577350
vn 0.000000 1.000000 0.000000
vn 0.000000 1.000000 0.000000
vn 0.000000 1.000000 0.000000
vn 0.000000 1.000000 0.000000
vn 0.000000 1.000000 0.000000
vn 0.000000 1.000000 0.000000
vn 0.000000 1.000000 0.000000
vn 0.000000 1.000000 0.000000
vn 0.000010 -0.226673 -0.973971
vn 0.848901 0.373504 -0.373982
vn 0.000013 -0.793960 -0.607970
vn 0.991418 -0.092150 0.092725
vn -0.848898 0.373509 -0.373982
vn -0.000011 0.974102 0.226108
vn -0.991412 -0.092179 0.092760
vn -0.000023 0.609199 0.793018
vn -0.000002 0.707229 -0.706985
vn 0.000068 0.707229 -0.706985
vn -0.000073 0.707229 -0.706985
vn -0.000002 0.707229 -0.706985
vn 0.000000 0.849475 -0.527629
vn 0.605417 0.676105 -0.419944
vn 0.000000 0.619980 0.784617
vn 0.566062 0.511089 0.646810
vn 0.000000 -0.231249 0.972895
vn 0.754199 -0.151849 0.638848
vn 0.847062 0.451492 -0.280432
vn 0.000000 0.849475 -0.527629
vn 0.000000 0.395594 -0.918425
vn 0.595402 0.317832 -0.737888
vn 0.601806 0.667140 -0.439037
vn 0.000000 0.835343 -0.549730
vn 0.000151 -0.706957 -0.707256
vn 1.000000 0.000085 -0.000391
vn -1.000000 -0.000402 0.000075
vn 0.000137 0.706956 0.707257
vn -0.000175 -0.706957 -0.707257
vn 1.000000 0.000398 -0.000077
vn -1.000000 -0.000084 0.000390
vn -0.000187 0.706957 0.707257
vn -0.000008 0.180117 0.983645
vn -0.995751 0.035237 0.085074
vn -0.000002 -0.214408 -0.976744
vn 0.995752 0.035235 0.085070
vn -0.000021 0.983648 0.180099
vn -0.995776 0.084789 0.035214
vn -0.000023 -0.976760 -0.214335
vn 0.995779 0.084787 0.035146
vn -0.000025 0.707126 0.707087
vn -0.985123 0.121522 0.121511
vn -0.000019 -0.707135 -0.707079
vn 0.985125 0.121469 0.121549
vn -0.000007 0.000000 1.000000
vn -1.000000 0.000000 0.000001
vn -0.000007 0.000000 -1.000000
vn 1.000000 0.000000 0.000001
vn -0.000031 0.983649 -0.180096
vn -0.995781 0.084735 -0.035213
vn -0.000021 -0.976769 0.214293
vn 0.995785 0.084722 -0.035129
vn -0.000008 0.180117 -0.983645
vn -0.995752 0.035236 -0.085071
vn -0.000002 -0.214409 0.976744
vn 0.995752 0.035235 -0.085067
vn -0.000031 0.707128 -0.707085
vn -0.985120 0.121536 -0.121519
vn -0.000011 -0.707172 0.707042
vn 0.985124 0.121464 -0.121561
vn -0.000007 0.000000 -1.000000
vn -1.000000 0.000000 0.000002
vn -0.000007 0.000000 1.000000
vn 1.000000 0.000000 0.000002
vn 0.000000 1.000000 0.000000
vn 0.000000 1.000000 0.000000
vn 0.000000 1.000000 0.000000
vn 0.000000 1.000000 0.000000
vn 0.000000 1.000000 0.000000
vn 0.000000 1.000000 0.000000
vn 0.000000 1.000000 0.000000
vn 0.000000 1.000000 0.000000
vn 0.000000 1.000000 0.000000
vn 0.000000 1.000000 0.000000
vn 0.000000 1.000000 0.000000
vn 0.000000 1.000000 0.000000
vn 0.000000 1.000000 0.000000
vn 0.000000 1.000000 0.000000
vn 0.000000 1.000000 0.000000
vn 0.000000 1.000000 0.000000
vn -0.983642 -0.000264 0.180136
vn -0.085116 0.995747 0.035261
vn 0.976746 -0.000309 -0.214402
vn -0.085075 -0.995751 0.035244
vn -0.180147 -0.000247 0.983640
vn -0.035250 0.995772 0.084822
vn 0.214388 -0.000295 -0.976749
vn -0.035152 -0.995780 0.084772
vn -0.707124 -0.000227 0.707090
vn -0.121527 0.985113 0.121590
vn 0.707086 -0.000329 -0.707128
vn -0.121512 -0.985130 0.121467
vn -1.000000 -0.000285 0.000000
vn -0.000018 1.000000 0.000000
vn 1.000000 -0.000285 0.000000
vn -0.000018 -1.000000 0.000000
vn 0.000000 -0.000283 1.000000
vn 0.000000 1.000000 -0.000002
vn -0.000006 -0.000288 -1.000000
vn -0.000006 -1.000000 -0.000003
vn -1.000000 -0.000285 0.000000
vn -0.000018 1.000000 0.000000
vn 1.000000 -0.000285 0.000000
vn -0.000018 -1.000000 0.000000
vn -1.000000 -0.000284 0.000000
vn -0.000018 1.000000 0.000000
vn 1.000000 -0.000285 0.000000
vn -0.000018 -1.000000 0.000000
vn 0.706495 0.707718 0.000000
vn 0.706495 0.707718 0.000000
vn 0.706495 0.707718 0.000000
vn 0.706495 0.707718 0.000000
vn 0.706495 0.707718 0.000000
vn 0.706495 0.707718 0.000000
vn 0.706495 0.707718 0.000000
vn 0.706495 0.707718 0.000000
vn 0.000000 1.000000 0.000000
vn 0.000000 1.000000 0.000000
vn 0.000000 1.000000 0.000000
vn 0.000000 1.000000 0.000000
g fff06058_00111_00260da6_e1
f 100/74/100 105/70/105 97/75/97
f 108/69/108 105/70/105 100/74/100
f 5/9/5 8/12/8 6/10/6
f 8/12/8 5/9/5 7/11/7
f 1/86/1 6/87/6 2/88/2
f 6/87/6 1/86/1 5/89/5
f 2/90/2 8/91/8 4/92/4
f 8/91/8 2/90/2 6/93/6
f 4/5/4 7/8/7 3/6/3
f 7/8/7 4/5/4 8/7/8
f 106/67/106 103/63/103 107/68/107
f 102/62/102 103/63/103 106/67/106
f 9/19/9 12/21/12 10/20/10
f 12/21/12 9/19/9 11/22/11
f 17/28/17 20/29/20 19/30/19
f 20/29/20 17/28/17 18/27/18
f 21/27/21 24/30/24 22/28/22
f 24/30/24 21/27/21 23/29/23
f 17/39/17 22/41/22 18/40/18
f 22/41/22 17/39/17 21/42/21
f 18/27/18 24/30/24 20/28/20
f 24/30/24 18/27/18 22/29/22
f 44/60/44 47/30/47 43/59/43
f 47/30/47 44/60/44 48/29/48
f 19/27/19 21/30/21 17/28/17
f 21/30/21 19/27/19 23/29/23
f 39/48/39 38/46/38 40/47/40
f 35/43/35 29/17/29 30/18/30
f 31/35/31 34/37/34 32/36/32
f 34/37/34 31/35/31 33/38/33
f 29/13/29 32/15/32 30/14/30
f 32/15/32 29/13/29 31/16/31
f 30/94/30 34/95/34 35/96/35
f 34/95/34 30/94/30 32/97/32
f 105/66/105 102/62/102 106/67/106
f 101/61/101 102/62/102 105/66/105
f 36/44/36 29/17/29 35/43/35
f 38/98/38 39/99/39 35/96/35
f 40/47/40 38/46/38 37/45/37
f 35/96/35 34/95/34 38/98/38
f 40/55/40 35/56/35 39/56/39
f 35/56/35 40/55/40 36/55/36
f 97/75/97 112/77/112 100/74/100
f 112/77/112 97/75/97 109/76/109
f 46/27/46 41/57/41 45/28/45
f 41/57/41 46/27/46 42/58/42
f 45/28/45 43/59/43 47/30/47
f 43/59/43 45/28/45 41/57/41
f 48/29/48 42/58/42 46/27/46
f 42/58/42 48/29/48 44/60/44
f 99/73/99 108/69/108 100/74/100
f 107/68/107 108/69/108 99/73/99
f 53/9/53 56/12/56 54/10/54
f 56/12/56 53/9/53 55/11/55
f 49/86/49 54/87/54 50/88/50
f 54/87/54 49/86/49 53/89/53
f 50/1/50 56/4/56 52/2/52
f 56/4/56 50/1/50 54/3/54
f 52/5/52 55/8/55 51/6/51
f 55/8/55 52/5/52 56/7/56
f 97/71/97 98/72/98 110/79/110
f 110/79/110 109/78/109 97/71/97
f 57/19/57 60/21/60 58/20/58
f 60/21/60 57/19/57 59/22/59
f 65/28/65 68/29/68 67/30/67
f 68/29/68 65/28/65 66/27/66
f 69/27/69 72/30/72 70/28/70
f 72/30/72 69/27/69 71/29/71
f 65/39/65 70/41/70 66/40/66
f 70/41/70 65/39/65 69/42/69
f 66/27/66 72/30/72 68/28/68
f 72/30/72 66/27/66 70/29/70
f 92/60/92 95/30/95 91/59/91
f 95/30/95 92/60/92 96/29/96
f 67/27/67 69/30/69 65/28/65
f 69/30/69 67/27/67 71/29/71
f 87/48/87 86/46/86 88/47/88
f 83/43/83 77/17/77 78/18/78
f 79/35/79 82/37/82 80/36/80
f 82/37/82 79/35/79 81/38/81
f 77/13/77 80/15/80 78/14/78
f 80/15/80 77/13/77 79/16/79
f 78/49/78 82/51/82 83/50/83
f 82/51/82 78/49/78 80/52/80
f 98/72/98 99/73/99 111/80/111
f 111/80/111 110/79/110 98/72/98
f 84/44/84 77/17/77 83/43/83
f 86/53/86 87/54/87 83/50/83
f 88/47/88 86/46/86 85/45/85
f 83/50/83 82/51/82 86/53/86
f 88/55/88 83/56/83 87/56/87
f 83/56/83 88/55/88 84/55/84
f 99/73/99 100/74/100 112/77/112
f 112/77/112 111/80/111 99/73/99
f 94/27/94 89/57/89 93/28/93
f 89/57/89 94/27/94 90/58/90
f 93/28/93 91/59/91 95/30/95
f 91/59/91 93/28/93 89/57/89
f 96/29/96 90/58/90 94/27/94
f 90/58/90 96/29/96 92/60/92
f 98/72/98 107/68/107 99/73/99
f 106/67/106 107/68/107 98/72/98
f 97/71/97 106/67/106 98/72/98
f 105/66/105 106/67/106 97/71/97
f 108/69/108 101/65/101 105/70/105
f 104/64/104 101/65/101 108/69/108
f 107/68/107 104/64/104 108/69/108
f 103/63/103 104/64/104 107/68/107
f 184/15/184 181/13/181 183/16/183
f 181/13/181 184/15/184 182/14/182
f 180/79/180 177/71/177 179/78/179
f 177/71/177 180/79/180 178/72/178
f 176/79/176 173/71/173 175/78/175
f 173/71/173 176/79/176 174/72/174
f 172/77/172 171/80/171 167/73/167
f 167/73/167 168/74/168 172/77/172
f 171/80/171 170/79/170 166/72/166
f 166/72/166 167/73/167 171/80/171
f 170/79/170 169/78/169 165/71/165
f 165/71/165 166/72/166 170/79/170
f 172/77/172 165/75/165 169/76/169
f 165/75/165 172/77/172 168/74/168
f 164/82/164 151/63/151 163/85/163
f 151/63/151 164/82/164 152/64/152
f 163/85/163 150/62/150 162/84/162
f 150/62/150 163/85/163 151/63/151
f 162/84/162 149/61/149 161/83/161
f 149/61/149 162/84/162 150/62/150
f 164/82/164 161/81/161 149/65/149
f 149/65/149 152/64/152 164/82/164
f 160/77/160 159/80/159 147/73/147
f 147/73/147 148/74/148 160/77/160
f 159/80/159 158/79/158 146/72/146
f 146/72/146 147/73/147 159/80/159
f 158/79/158 157/78/157 145/71/145
f 145/71/145 146/72/146 158/79/158
f 160/77/160 145/75/145 157/76/157
f 145/75/145 160/77/160 148/74/148
f 149/61/149 150/62/150 153/66/153
f 153/66/153 150/62/150 154/67/154
f 150/62/150 151/63/151 154/67/154
f 154/67/154 151/63/151 155/68/155
f 151/63/151 152/64/152 155/68/155
f 155/68/155 152/64/152 156/69/156
f 152/64/152 149/65/149 156/69/156
f 156/69/156 149/65/149 153/70/153
f 153/66/153 154/67/154 145/71/145
f 145/71/145 154/67/154 146/72/146
f 154/67/154 155/68/155 146/72/146
f 146/72/146 155/68/155 147/73/147
f 155/68/155 156/69/156 147/73/147
f 147/73/147 156/69/156 148/74/148
f 156/69/156 153/70/153 148/74/148
f 148/74/148 153/70/153 145/75/145
f 128/77/128 119/73/119 127/80/127
f 119/73/119 128/77/128 120/74/120
f 127/80/127 118/72/118 126/79/126
f 118/72/118 127/80/127 119/73/119
f 126/79/126 117/71/117 125/78/125
f 117/71/117 126/79/126 118/72/118
f 128/77/128 125/76/125 117/75/117
f 117/75/117 120/74/120 128/77/128
f 113/61/113 121/66/121 114/62/114
f 121/66/121 122/67/122 114/62/114
f 114/62/114 122/67/122 115/63/115
f 122/67/122 123/68/123 115/63/115
f 115/63/115 123/68/123 116/64/116
f 123/68/123 124/69/124 116/64/116
f 116/64/116 124/69/124 113/65/113
f 124/69/124 121/70/121 113/65/113
f 121/66/121 117/71/117 122/67/122
f 117/71/117 118/72/118 122/67/122
f 122/67/122 118/72/118 123/68/123
f 118/72/118 119/73/119 123/68/123
f 123/68/123 119/73/119 124/69/124
f 119/73/119 120/74/120 124/69/124
f 124/69/124 120/74/120 121/70/121
f 120/74/120 117/75/117 121/70/121
f 116/82/116 103/63/103 115/85/115
f 103/63/103 116/82/116 104/64/104
f 115/85/115 102/62/102 114/84/114
f 102/62/102 115/85/115 103/63/103
f 114/84/114 101/61/101 113/83/113
f 101/61/101 114/84/114 102/62/102
f 116/82/116 113/81/113 101/65/101
f 101/65/101 104/64/104 116/82/116
g fff06058_00111_00260da6_e2
f 13/23/13 16/25/16 14/24/14
f 16/25/16 13/23/13 15/26/15
f 25/31/25 28/33/28 26/32/26
f 28/33/28 25/31/25 27/34/27
f 61/23/61 64/25/64 62/24/62
f 64/25/64 61/23/61 63/26/63
f 73/31/73 76/33/76 74/32/74
f 76/33/76 73/31/73 75/34/75
f 144/25/144 141/23/141 143/26/143
f 141/23/141 144/25/144 142/24/142
f 140/25/140 137/23/137 139/26/139
f 137/23/137 140/25/140 138/24/138
f 136/25/136 133/23/133 135/26/135
f 133/23/133 136/25/136 134/24/134
f 132/25/132 129/23/129 131/26/131
f 129/23/129 132/25/132 130/24/130
