# fff0120e_00092_00110268
o fff0120e_00092_00110268
v -0.119864 0.340236 0.737920
v -0.119864 0.340236 1.111310
v -0.119373 0.389314 1.160390
v -0.119373 0.389314 0.688840
v -0.122156 0.110648 1.463304
v -0.122157 0.110648 1.160390
v -0.117826 0.544137 0.531425
v -0.122157 0.110648 0.688840
v -0.122156 0.110648 0.531425
v -0.117826 0.544137 1.463304
v -0.122157 0.110648 1.111310
v -0.122157 0.110648 0.737920
v -0.129198 0.109242 0.348747
v -0.129198 0.109242 2.311608
v -0.110738 1.957269 -0.046479
v -0.110738 1.957269 2.424618
v -0.130448 -0.015906 -0.046479
v -0.130448 -0.015906 2.424618
v -0.032903 1.814242 0.348747
v -0.112157 1.815194 0.348747
v -0.049943 0.108291 0.348747
v -0.112157 1.815193 2.311608
v -0.032903 1.814242 2.311608
v -0.049943 0.108291 2.311608
v -0.046655 1.956628 2.424625
v -0.067276 -0.030503 2.424633
v -0.129198 0.109242 1.617412
v -0.112157 1.815194 1.617412
v -0.112157 1.815194 1.702949
v -0.129198 0.109242 1.702949
v -0.049942 0.108450 1.702948
v -0.032901 1.814402 1.702948
v -0.032903 1.814242 1.306576
v -0.049943 0.108291 1.618637
v -0.032903 1.814242 1.618637
v -0.049943 0.108291 1.306576
v -0.032903 1.814242 0.348747
v -0.049943 0.108291 0.348747
v -0.032903 1.814242 1.883201
v -0.049943 0.108291 2.311607
v -0.032903 1.814242 2.311607
v -0.049943 0.108291 1.883201
v -0.032903 1.814242 1.682646
v -0.049943 0.108291 1.682646
v -0.122231 -0.016001 -0.046479
v -0.237669 1.958537 -0.046479
v -0.257519 -0.028606 -0.046479
v -0.102521 1.957187 -0.046479
v -0.072080 -0.030454 -0.046479
v 0.082529 1.916491 0.001446
v 0.063067 -0.031804 -0.046479
v -0.052231 1.956689 -0.046479
v -0.120482 1.957362 0.085655
v -0.140192 -0.015810 -0.046479
v -0.120482 1.957362 -0.046479
v -0.140192 -0.015810 0.085655
v -0.150583 0.183406 0.770687
v -0.150583 0.183406 1.135512
v -0.151763 0.065241 0.770687
v -0.151763 0.065240 1.135512
v -0.039071 1.822111 0.348740
v -0.039196 1.809599 2.311600
v -0.057531 -0.025924 -0.046486
v -0.037747 1.954611 -0.046486
v -0.056112 0.116159 0.348740
v -0.056112 0.116159 2.311600
v -0.030025 1.834838 1.617405
v -0.047353 0.100079 1.617405
v -0.047353 0.100079 1.702942
v -0.030025 1.834838 1.702942
v -0.047789 -0.026021 0.085648
v -0.028079 1.947159 -0.046486
v -0.047789 -0.026021 -0.046486
v -0.028079 1.947159 0.085648
vt 0.432823 -5.624731
vt 0.432823 -3.757789
vt 22.413504 -127.727020
vt 50.157276 -285.571838
vt -9.406471 32.306042
vt -15.396243 68.596535
vt 45.888714 -263.396088
vt -5.790801 40.126423
vt -5.756457 40.126423
vt 50.157276 -283.704865
vt 1.580823 -3.757789
vt 1.335689 -5.624710
vt 0.000000 0.000000
vt 1.287851 1.727872
vt 1.287851 1.727872
vt 1.287851 1.727872
vt 1.936153 -0.531233
vt 1.913728 -0.419137
vt 1.488842 1.704702
vt 1.287851 1.727872
vt 1.287851 1.727872
vt 1.529794 1.500000
vt 1.956108 -0.630980
vt 1.304852 1.500000
vt 1.304852 1.500000
vt 1.287851 1.727872
vt 1.906278 -0.381898
vt 1.488842 1.704702
vt 1.287851 1.727872
vt 1.488842 1.704702
vt 1.287851 1.727872
vt 1.287851 1.727872
vt 0.000000 0.000000
vt 0.000000 0.000000
vt 1.913728 -0.419137
vt 1.936153 -0.531233
vn -0.999950 0.009989 0.000000
vn -0.999950 0.009989 0.000000
vn -0.999950 0.009992 0.000001
vn -0.999950 0.009991 -0.000003
vn -0.999950 0.009989 0.000003
vn -0.999950 0.009989 0.000003
vn -0.999950 0.009991 -0.000003
vn -0.999950 0.009989 -0.000005
vn -0.999950 0.009989 -0.000005
vn -0.999950 0.009990 0.000002
vn -0.999950 0.009989 0.000000
vn -0.999950 0.009989 0.000000
vn -0.901261 0.310659 0.302027
vn -0.901261 0.310659 -0.302027
vn -0.690652 0.723187 -0.000483
vn -0.571585 0.583095 0.577313
vn -0.756948 -0.653475 0.000000
vn -0.634643 -0.500397 0.588924
vn -0.008488 -0.706601 0.707561
vn -0.907716 -0.292327 0.300992
vn 0.008487 0.707507 0.706655
vn -0.907714 -0.292329 -0.300996
vn -0.008477 -0.706604 -0.707559
vn 0.008488 0.707508 -0.706654
vn 0.569391 0.578688 0.583878
vn 0.493269 -0.653997 0.573563
vn -0.999950 0.009988 0.000000
vn -0.999950 0.009988 0.000000
vn -0.707069 0.007063 0.707109
vn -0.707070 0.007063 0.707108
vn 0.000006 -0.000000 1.000000
vn 0.000006 -0.000000 1.000000
vn -0.999950 0.009988 0.000000
vn -0.999950 0.009988 0.000000
vn -0.999950 0.009988 0.000000
vn -0.999950 0.009988 0.000000
vn -0.999950 0.009988 0.000000
vn -0.999950 0.009988 0.000000
vn -0.999950 0.009988 0.000000
vn -0.999950 0.009988 0.000000
vn -0.999950 0.009988 0.000000
vn -0.999950 0.009988 0.000000
vn -0.999950 0.009988 0.000000
vn -0.999950 0.009988 0.000000
vn 0.000000 0.000000 1.000000
vn 0.000000 0.000000 1.000000
vn 0.000000 0.000000 1.000000
vn 0.000000 0.000000 1.000000
vn -0.015863 -0.023346 0.999602
vn -0.322236 0.002287 0.946657
vn -0.000246 -0.024588 0.999698
vn -0.334184 0.003338 0.942502
vn -0.999950 0.009988 0.000000
vn -0.999950 0.009988 0.000000
vn -0.999950 0.009988 0.000000
vn -0.999950 0.009988 0.000000
vn -0.999950 0.009989 -0.000000
vn -0.999950 0.009989 0.000000
vn -0.999950 0.009989 -0.000000
vn -0.999950 0.009989 -0.000000
vn 0.999950 -0.009988 -0.000000
vn 0.998912 0.016500 0.043624
vn 0.653482 -0.756942 0.000080
vn 0.723487 0.690338 -0.000378
vn 0.999950 -0.009989 -0.000000
vn 0.998139 -0.038997 0.046891
vn 0.999950 -0.009988 0.000000
vn 0.999950 -0.009988 0.000000
vn 0.999950 -0.009988 0.000000
vn 0.999950 -0.009988 0.000000
vn 0.999950 -0.009988 0.000000
vn 0.999950 -0.009988 0.000000
vn 0.999950 -0.009988 0.000000
vn 0.999950 -0.009988 0.000000
g fff0120e_00092_00110268_e6
f 11/11/11 2/2/2 1/1/1
f 12/12/12 11/11/11 1/1/1
g fff0120e_00092_00110268_e7
f 10/10/10 7/7/7 4/4/4
f 4/4/4 3/3/3 10/10/10
f 6/6/6 10/10/10 3/3/3
f 9/9/9 8/8/8 7/7/7
f 8/8/8 4/4/4 7/7/7
f 10/10/10 6/6/6 5/5/5
g fff0120e_00092_00110268_e2
f 15/18/15 22/27/22 16/17/16
f 22/27/22 15/18/15 20/23/20
f 30/16/30 28/15/28 27/20/27
f 28/15/28 30/16/30 29/14/29
f 15/15/15 13/16/13 20/14/20
f 17/20/17 14/26/14 13/16/13
f 14/26/14 17/20/17 18/21/18
f 16/19/16 14/26/14 18/21/18
f 14/26/14 16/19/16 22/27/22
f 13/16/13 15/15/15 17/20/17
f 18/21/18 17/20/17 63/32/63
f 60/27/60 57/18/57 59/23/59
f 57/18/57 60/27/60 58/17/58
f 24/29/24 22/27/22 23/28/23
f 63/32/63 26/31/26 18/21/18
f 22/27/22 24/29/24 14/26/14
f 16/17/16 25/36/25 15/18/15
f 64/35/64 15/18/15 25/36/25
f 63/18/63 66/27/66 26/17/26
f 66/27/66 63/18/63 65/23/65
f 70/16/70 68/15/68 67/20/67
f 68/15/68 70/16/70 69/14/69
f 63/15/63 61/16/61 65/14/65
f 62/26/62 64/20/64 25/21/25
f 26/19/26 62/26/62 25/21/25
f 62/26/62 26/19/26 66/27/66
f 61/16/61 63/15/63 64/20/64
f 64/26/64 62/20/62 61/21/61
g fff0120e_00092_00110268_e1
f 54/15/54 56/14/56 53/16/53
f 53/16/53 55/20/55 54/15/54
f 20/23/20 23/28/23 22/27/22
f 23/28/23 20/23/20 19/22/19
f 21/25/21 14/26/14 24/29/24
f 14/26/14 21/25/21 13/24/13
f 72/15/72 74/14/74 71/16/71
f 71/16/71 73/20/73 72/15/72
g fff0120e_00092_00110268_e4
f 46/15/46 45/16/45 48/14/48
f 45/16/45 46/15/46 47/20/47
f 50/15/50 52/14/52 49/16/49
f 49/16/49 51/20/51 50/15/50
g fff0120e_00092_00110268_e3
f 44/13/44 42/34/42 43/13/43
f 41/13/41 39/33/39 40/13/40
f 42/34/42 39/33/39 43/13/43
f 39/33/39 42/34/42 40/13/40
g fff0120e_00092_00110268_e5
f 35/13/35 33/33/33 34/13/34
f 38/13/38 36/34/36 37/13/37
f 33/33/33 36/34/36 34/13/34
f 36/34/36 33/33/33 37/13/37
g fff0120e_00092_00110268_e0
f 25/30/25 18/21/18 26/31/26
f 18/21/18 25/30/25 16/19/16
f 32/22/32 30/24/30 31/25/31
f 30/24/30 32/22/32 29/23/29
f 19/22/19 13/24/13 21/25/21
f 13/24/13 19/22/19 20/23/20
