# fff0305e_00160_00536177
o fff0305e_00160_00536177
v -33.028839 33.120724 -14.982153
v -32.897644 33.132809 -14.982375
v -20.953672 35.984497 -10.429881
v -51.165649 30.984501 -15.121342
v -32.993271 35.984497 -7.121342
v -33.000454 35.981197 7.160097
v -51.165634 30.984501 7.160097
v -33.791321 31.689091 -16.813210
v -32.158234 33.196835 -14.982727
v -31.981659 33.211971 -15.011852
v -23.023651 35.984497 -7.622543
v -22.996979 35.984497 -15.121342
v -27.631809 35.973999 -15.110234
v -33.131802 35.973999 -15.110234
v -31.947292 30.984501 -15.121342
v -32.724396 35.875984 -15.110234
v -27.538963 35.882004 -15.110234
v -27.538933 35.922226 -15.110234
v -32.724365 35.916206 -15.110234
v -33.131802 35.973755 -14.999646
v -27.631809 35.973755 -14.999646
v -27.631809 35.973755 -15.027495
v -33.131802 35.973755 -15.027495
v -33.001167 35.984497 -15.121342
v -33.523773 32.786800 -15.509057
v -33.791321 31.689091 7.160097
v -34.287659 33.130188 -15.121342
v -32.387650 33.130188 -15.121342
v -34.287659 33.130188 7.160097
v -32.384396 33.115067 7.160097
v -33.048065 32.749752 -15.509057
v -33.048065 32.749752 -3.342302
v -32.637024 32.385921 -15.509057
v -33.556915 31.515072 -15.509057
v -32.629059 31.848446 -15.509057
v -33.094299 31.502987 -15.509057
v -32.637024 32.385921 -3.342302
v -32.629059 31.848446 -3.342300
v -33.556915 31.515072 -3.342300
v -33.094269 31.502926 -10.507391
v -33.556915 31.515072 -10.507391
v -33.094269 31.502926 -3.342302
v -33.843475 32.622982 -3.342300
v -33.048065 32.749752 -10.507391
v -32.637024 32.385921 -10.507391
v -32.629059 31.848446 -10.507391
v -33.523773 32.786800 -10.507391
v -33.523773 32.786800 -11.455819
v -32.637024 32.385921 -11.455819
v -33.556915 31.515072 -11.455819
v -33.094269 31.502926 -11.455819
v -32.629059 31.848446 -11.455819
v -32.494110 32.877926 -14.366127
v -33.374268 31.828548 -14.375132
v -34.032837 31.073421 -14.375132
v -33.381866 32.339474 -14.375132
v -34.097656 33.158016 -15.838944
v -32.288422 33.184994 -15.838944
v -34.066132 31.033199 -15.838944
v -34.066132 31.033199 -14.432981
v -32.256866 31.060055 -15.838944
v -34.097656 33.158016 -14.432981
v -32.288422 33.184994 -14.432981
v -34.063293 33.118710 -14.375132
v -32.256866 31.060055 -14.432981
v -32.291199 31.099422 -14.375132
v -32.321655 33.144588 -14.375132
v -33.048065 32.749752 -11.455819
v -34.041199 31.377377 -14.366127
v -34.063080 32.854549 -14.366127
v -32.472198 31.400631 -14.366127
v -33.843475 32.622982 -15.509088
v -33.843475 32.622982 -11.455819
v -33.882019 31.708858 -15.509088
v -33.843475 32.622982 -10.507391
v -33.843475 32.622982 -3.342331
v -33.882019 31.708858 -10.507391
v -33.882019 31.708858 -3.342331
v -33.882019 31.708858 -11.455819
v -22.097185 36.464664 -11.377637
v -20.716537 36.464664 -11.387713
v -21.341051 36.464661 -12.802313
v -21.386482 36.464664 -11.383016
v -20.689579 36.464661 -12.240957
v -21.375973 36.464664 -11.699131
v -22.070694 36.464661 -12.255408
v -21.370220 36.464664 -11.358116
v -21.359955 36.464664 -11.698906
v -20.895773 36.387833 -11.601480
v -21.346203 36.387833 -12.660601
v -21.380600 36.387840 -11.591868
v -20.875351 36.387833 -12.241589
v -21.372637 36.387833 -11.825253
v -21.336254 36.387833 -12.660343
v -21.894850 36.387833 -11.581849
v -21.874804 36.387833 -12.246453
v -21.368271 36.387833 -11.567050
v -21.360497 36.387833 -11.825109
v -24.621023 35.077240 -15.121342
v -21.327917 36.464661 -12.801975
v -32.796822 35.033813 -15.121342
v -26.758820 34.970699 -14.902711
v -26.721741 35.446407 -14.902711
v -27.660126 34.551693 -14.902711
v -26.885620 35.766109 -2.735954
v -27.993530 35.479610 -2.735954
v -28.005676 35.016964 -14.902711
v -27.993530 35.479610 -14.902711
v -27.993530 35.479610 -9.901045
v -27.122711 34.559689 -9.901045
v -27.122711 34.559689 -2.735955
v -26.758820 34.970699 -2.735955
v -28.005737 35.016903 -2.735955
v -27.660126 34.551693 -9.901045
v -28.005737 35.016903 -9.901045
v -27.660126 34.551693 -2.735954
v -26.721741 35.446407 -9.901045
v -27.122711 34.559689 -14.902711
v -32.820923 30.761654 -14.992573
v -31.799408 30.735165 -15.017551
v -32.688293 30.757381 -14.992867
v -31.962463 30.733761 -14.993714
v -28.475403 35.988766 -15.232598
v -28.448517 34.179501 -15.232598
v -26.350616 36.020321 -15.232598
v -26.323639 34.211056 -15.232598
v -27.993530 35.479610 -10.849473
v -26.350616 36.020321 -13.826635
v -26.389893 35.985958 -13.768785
v -28.005737 35.016903 -10.849473
v -27.660126 34.551693 -10.849473
v -28.475403 35.988766 -13.826635
v -26.323639 34.211056 -13.826635
v -28.448517 34.179501 -13.826635
v -26.721741 35.446407 -10.849473
v -27.122711 34.559689 -10.849473
v -26.758820 34.970699 -9.901045
v -26.758820 34.970699 -10.849473
v -28.131226 35.963863 -13.759781
v -26.654114 35.985775 -13.759781
v -26.630707 34.416805 -13.759781
v -28.107910 34.394833 -13.759781
v -27.799805 35.804684 -2.735984
v -26.885620 35.766109 -2.735984
v -27.799805 35.804684 -14.902741
v -26.885620 35.766109 -14.902741
v -26.885620 35.766109 -9.901045
v -27.169159 35.304562 -13.768785
v -27.799805 35.804684 -9.901045
v -27.799805 35.804684 -10.849473
v -27.679993 35.296932 -13.768785
v -28.435181 35.955502 -13.768785
v -28.409149 34.213863 -13.768785
v -26.363953 34.244320 -13.768785
v -22.346489 36.463264 -13.917762
v -20.353561 36.487770 -10.139651
v -20.353561 36.487770 -13.917762
v -22.346489 36.463264 -10.139651
v -22.386997 36.360008 -13.988750
v -20.393724 36.384514 -10.378716
v -20.393724 36.384514 -13.988750
v -22.386997 36.360008 -10.378716
v -21.812279 36.416557 -10.493878
v -22.233898 36.411362 -10.715026
v -20.547482 36.432114 -10.715026
v -20.969097 36.426910 -10.493878
v -22.233898 36.411362 -13.703362
v -20.547482 36.432114 -13.703362
v -17.944427 30.984501 -15.121342
v -26.416225 30.985722 -15.121342
v -18.145050 35.984497 -15.121342
v -18.145050 35.984497 -7.384078
v -20.545649 35.955246 -13.694890
v -26.885620 35.766109 -10.849473
v -20.540905 35.974823 -13.703361
v -22.227322 35.954079 -10.715026
v -22.227322 35.954079 -13.703361
v -18.033949 35.112232 -15.121342
v -19.041519 35.891872 -15.110234
v -19.041489 35.932095 -15.110234
v -19.131800 35.973755 -14.999646
v -19.131800 35.973999 -15.110234
v -19.131800 35.973755 -15.027495
v -22.218525 35.934662 -10.748454
v -22.432682 35.932037 -10.632613
v -20.545649 35.955246 -10.748454
v -22.432682 35.932037 -13.927678
v -20.321507 35.958000 -10.632613
v -20.963856 35.950111 -10.537023
v -21.382076 35.944954 -10.441161
v -20.803246 35.952087 -10.386334
v -20.321417 35.958000 -13.927678
v -22.218525 35.934662 -13.694890
v -21.967945 35.937744 -10.375365
v -21.377098 35.945023 -10.215127
v -21.800316 35.939819 -10.540896
v -21.390682 36.421738 -10.398877
v -21.384108 35.964455 -10.398877
v -21.805702 35.959274 -10.493878
v -20.962524 35.969627 -10.493878
v -20.540905 35.974823 -10.715026
v -20.544273 36.263809 -13.718637
v -22.156822 36.245071 -13.646016
v -20.583881 36.261597 -13.646016
v -21.444607 36.138893 -10.640920
v -21.441231 35.933327 -10.587716
v -21.125584 35.937691 -10.587716
v -20.994343 35.833595 -10.196208
v -21.128956 36.143257 -10.640920
v -21.569023 35.825645 -10.196208
v -21.572437 36.031204 -10.196208
v -20.997765 36.039139 -10.196208
v -22.156822 36.245071 -10.787515
v -22.223225 36.242966 -10.752192
v -20.583881 36.261597 -10.789630
v -22.223225 36.242966 -13.718637
v -20.544346 36.263809 -10.798281
v -20.922413 36.257477 -10.549317
v -21.379772 36.253334 -10.447963
v -20.915073 36.259064 -10.497390
v -21.850121 36.247551 -10.488582
v -21.375778 36.253387 -10.406028
v -21.837151 36.249214 -10.548833
v -22.268860 35.984497 -13.843131
v -20.367096 35.984497 -13.843131
v -20.367096 35.984497 -10.669468
v -22.268860 35.984497 -10.669468
v -21.624870 35.984497 -10.429881
v -32.993271 35.984497 7.496861
v -23.023651 35.984497 6.995659
v -18.145050 35.984497 7.234125
vt 0.613082 0.386918
vt 211.127167 3.842236
vt 43.682438 1.882546
vt -1.919830 0.280688
vt -4.581134 3.212451
vt 9.154184 19.649897
vt 9.245387 19.687675
vt 9.154184 19.649897
vt 9.144339 19.645817
vt -27.012365 125.492332
vt -26.058102 125.671257
vt 49.041950 31.080021
vt 48.693447 31.107519
vt -28.886833 -22.804438
vt -28.886799 -22.964153
vt -2.998591 11.998421
vt -1.998592 11.998421
vt -1.998664 10.998816
vt -2.998591 10.998422
vt -4.582549 0.280688
vt 9.154184 19.649897
vt 121.367172 2.368941
vt 0.613082 0.386918
vt -2.794240 3.028776
vt -2.789460 0.280688
vt -26.991516 121.618896
vt 47.904663 30.163532
vt -28.886799 -22.962572
vt -26.102530 121.914726
vt 47.546658 30.183371
vt -28.886833 -22.802792
vt 1.586026 3.639174
vt 1.988665 -1.013783
vt 1.607846 3.750169
vt 1.912580 -0.244259
vt 1.591003 3.821549
vt 1.552720 3.564018
vt 1.803692 -0.426633
vt 1.853585 -0.315639
vt 1.772324 -0.509447
vt 1.880304 -1.047630
vt 1.968790 -3.347627
vt 1.970864 -0.475601
vt 2.000000 -0.286791
vt 1.540933 3.819028
vt 2.000000 -0.824973
vt 1.932247 -3.339969
vt 1.960275 -0.246780
vt 1.502666 3.590207
vt 1.927941 -0.782442
vt 1.982980 -3.084959
vt 1.877106 -0.853822
vt 1.931010 -3.153819
vt 1.959646 -3.082451
vt 1.917718 -3.264813
vt 1.838072 -0.964816
vt 1.766409 -0.501789
vt 211.126648 3.842227
vt 1.996870 -3.313798
vt 2.000000 -3.124988
vt 1.502666 3.590190
vt 1.500000 3.779000
vt 1.105996 0.613420
vt 1.907985 0.613420
vt 1.893997 0.613420
vt 1.893997 1.397149
vt 1.092009 1.397149
vt 1.092009 0.613420
vt 1.907985 1.397149
vt 1.105996 1.397149
vt 1.120741 1.429396
vt 1.892753 1.429396
vt 1.968246 -0.784962
vt 1.824052 -1.039972
vt 1.897763 1.397149
vt 1.092018 1.397149
vt 1.882869 1.429396
vt 1.107270 1.429396
vt 1.117142 1.107240
vt 1.879252 1.429396
vt 1.107240 1.429396
vt 1.107270 1.879252
vt 1.882869 1.892753
vt 1.892706 1.120741
vt 1.907994 1.397149
vt 1.907994 0.613420
vt 1.102213 0.613420
vt 1.102213 1.397149
vt 1.117142 1.429396
vt 1.892706 1.429396
vt -3.545115 -3.545087
vt 1.499986 1.500000
vt 1.499986 -3.545087
vt -3.545115 1.500000
vt 0.260788 3.307493
vt 4.385506 -0.664112
vt 0.260787 -0.664113
vt 4.385506 3.307714
vt 0.736576 2.688950
vt 0.719118 2.505170
vt 0.736576 2.688950
vt 44.044121 1.030664
vt 1.308095 1.402924
vt 1.672903 1.406305
vt 2.126975 4.406353
vt 1.250001 2.126975
vt 2.126975 4.406353
vt 1.749999 2.126975
vt 0.719118 2.505170
vt 0.999995 -3.136493
vt 1.999953 5.093723
vt 1.695699 5.332483
vt 1.497607 5.571917
vt 1.771773 5.708861
vt 1.999995 -3.136493
vt 1.101424 -2.555055
vt 1.893792 -2.555055
vt 1.220115 5.736261
vt 1.499974 6.136493
vt 1.299515 5.322808
vt 2.126975 -2.094055
vt 0.873025 4.406353
vt 0.873025 -2.094054
vt 1.000001 0.873025
vt 0.873025 -2.094054
vt 1.500000 0.873025
vt 1.250001 0.873025
vt 1.000001 2.126975
vt 1.749999 0.873025
vt 0.873025 4.406353
vt 2.126975 -2.094055
vt 2.000001 0.873025
vt 2.000001 2.126975
vt 1.101424 4.804379
vt 0.999995 5.093723
vt 1.893792 4.804379
vt 1.500000 2.126975
vt 0.837080 2.461959
vt 2.163149 1.135662
vt 1.712176 2.461959
vt 0.836851 2.461959
vt 1.287824 1.135662
vt 1.287824 1.135662
vt 1.864224 1.135662
vt 1.135904 1.135662
vt 2.163149 2.461959
vt 0.836851 2.461959
vt 1.712176 2.461959
vt 2.163149 1.135662
vt 0.837080 0.836851
vt 0.836851 1.712176
vt 2.162920 1.712176
vt 0.647372 3.699144
vt 0.647372 3.699144
vt 0.647372 3.699144
vt 0.647372 3.699144
vt 0.647372 3.699144
vt 0.647372 3.699144
vt 0.647372 3.699144
vt 0.647372 3.699144
vt 0.647372 3.699144
vt 0.647372 3.699144
vt 0.647372 3.699144
vt 0.999013 2.002328
vt 1.962443 1.805635
vt 1.998777 1.984681
vt 1.000008 1.021586
vt 1.383517 1.021694
vt 1.864096 2.163149
vt 2.163149 0.836851
vt 1.135776 2.163149
vt 1.135904 1.287824
vt 1.864224 1.287824
vt 0.647372 3.699144
vt 0.647372 3.699144
vt 0.647372 3.699144
vt 0.613082 0.386918
vt -2.423230 1.999970
vt -2.658956 0.749114
vt -2.318095 0.749114
vt -2.318095 1.912168
vt -2.658956 1.912168
vt -1.919830 3.116167
vt -2.543531 1.999970
vt 9.172253 19.657381
vt 9.181966 19.661406
vt -9.036179 1.883897
vt 12.036128 1.032029
vt 11.675022 1.882546
vt 43.682167 1.902619
vt 11.674451 1.074887
vt 11.674451 1.475856
vt -9.036179 1.074908
vt -9.036179 1.475867
vt 9.215507 19.675297
vt 9.164436 19.654144
vt 9.154184 19.649897
vt 9.154184 19.649897
vt 9.154184 19.649897
vt 9.181381 19.661163
vt 9.143678 19.645544
vt 100.481010 2.026122
vt -7.490012 0.994811
vt 12.036109 1.008768
vt 44.044102 1.007403
vt -7.489995 1.018079
vt -9.036178 1.494522
vt 11.674451 1.494498
vt 43.682236 1.902611
vt 1.880020 0.613814
vt 1.880020 1.397149
vt 53.082829 1.248142
vt 0.613082 0.386918
vt 211.126663 3.842227
vt 38.811012 1.013888
vt 9.245386 19.687675
vt 9.245374 19.687668
vt 9.245421 19.687693
vt 9.232009 19.682131
vt 9.224263 19.678926
vt -4.581134 3.464337
vt -2.794241 3.280661
vt -1.919830 3.368052
vn 0.002083 -0.004233 0.999989
vn 0.001467 -0.004287 0.999990
vn 0.000000 -1.000000 0.000000
vn 0.040520 -0.999179 -0.000000
vn 0.777068 -0.629417 -0.000059
vn 0.703743 0.151265 0.694165
vn 0.040100 -0.988826 0.143582
vn 0.520978 -0.853570 0.000000
vn 0.082049 0.002097 0.996626
vn 0.161291 0.008472 0.986871
vn 0.000000 -1.000000 0.000000
vn 0.000000 -0.707107 0.707107
vn 0.000000 -0.708149 0.706063
vn 0.000000 -0.996258 0.086427
vn 0.000000 0.000000 1.000000
vn 0.000000 0.000000 1.000000
vn 0.000000 0.000000 1.000000
vn 0.000000 0.000000 1.000000
vn 0.000000 0.000000 1.000000
vn 0.000000 -1.000000 0.000000
vn 0.000000 -1.000000 0.000000
vn 0.000000 -0.999999 -0.001475
vn 0.000000 -0.999999 -0.001475
vn 0.641037 -0.517565 0.566743
vn -0.196619 0.980480 0.000000
vn 0.682119 -0.465949 0.563565
vn 0.945197 -0.326500 0.000000
vn 0.413141 -0.333976 0.847216
vn 0.274520 -0.197357 0.941110
vn 0.638692 -0.520612 0.566600
vn 0.390463 0.920618 0.000000
vn 0.279477 0.960153 0.000000
vn 0.908743 0.417356 0.000000
vn -0.278118 -0.960547 -0.000007
vn 0.896658 -0.442724 0.000000
vn 0.301533 -0.953456 -0.000009
vn 0.908743 0.417356 0.000000
vn 0.896684 -0.442672 0.000000
vn -0.278164 -0.960534 0.000000
vn 0.301522 -0.953459 0.000000
vn -0.278170 -0.960532 0.000000
vn 0.301522 -0.953459 0.000000
vn -0.157449 0.987527 0.001106
vn 0.386639 0.922209 0.006451
vn 0.908743 0.417356 0.000000
vn 0.896683 -0.442672 0.000000
vn -0.192531 0.981266 0.007014
vn -0.196612 0.980481 0.000000
vn 0.908743 0.417356 0.000000
vn -0.278170 -0.960532 0.000000
vn 0.301525 -0.953458 -0.000005
vn 0.896682 -0.442675 -0.000004
vn 0.000000 0.000000 1.000000
vn 0.000000 0.000000 1.000000
vn -0.397136 -0.375179 0.837570
vn 0.000000 0.000000 1.000000
vn -0.717545 0.696512 0.000000
vn 0.696508 0.717549 0.000000
vn -0.696537 -0.717521 0.000000
vn -0.657229 -0.685358 0.313583
vn 0.717526 -0.696532 0.000000
vn -0.677181 0.665672 0.313537
vn 0.656983 0.685449 0.313900
vn -0.408807 0.362664 0.837467
vn 0.677087 -0.665728 0.313621
vn 0.409014 -0.362354 0.837501
vn 0.397604 0.374212 0.837781
vn 0.390463 0.920618 0.000000
vn 0.000000 0.000000 1.000000
vn 0.000000 0.000000 1.000000
vn 0.000000 0.000000 1.000000
vn -0.456027 0.889966 0.000000
vn -0.456027 0.889966 0.000000
vn -0.512015 -0.858976 0.000000
vn -0.456027 0.889966 0.000000
vn 0.000000 0.000000 0.000000
vn -0.512015 -0.858976 0.000000
vn -0.512015 -0.858976 0.000000
vn -0.512015 -0.858976 0.000000
vn -0.000000 -1.000000 0.000004
vn 0.000000 -1.000000 0.000004
vn -0.000003 -1.000000 0.000003
vn -0.000002 -1.000000 0.000002
vn -0.000002 -1.000000 0.000003
vn -0.000005 -1.000000 0.000001
vn 0.000002 -1.000000 0.000003
vn 0.000002 -1.000000 0.000003
vn 0.000004 -1.000000 0.000001
vn -0.000016 -1.000000 -0.000001
vn 0.000000 -1.000000 0.000000
vn 0.000002 -1.000000 0.000014
vn -0.000002 -1.000000 0.000003
vn 0.000021 -1.000000 0.000025
vn 0.000000 -1.000000 0.000000
vn 0.000000 -1.000000 0.000000
vn 0.000000 -1.000000 0.000000
vn 0.000000 -1.000000 0.000000
vn 0.000000 -1.000000 0.000000
vn 0.000000 0.000000 1.000000
vn 0.000003 -1.000000 0.000004
vn 0.691650 0.148667 0.706766
vn 0.920583 -0.390548 0.000000
vn 0.980471 0.196662 0.000000
vn -0.442655 -0.896692 0.000000
vn 0.987521 0.157485 0.001106
vn -0.960529 0.278179 0.000000
vn -0.953461 -0.301517 -0.000009
vn -0.960542 0.278134 -0.000007
vn -0.960527 0.278185 0.000000
vn 0.417328 -0.908756 0.000000
vn 0.417328 -0.908756 0.000000
vn 0.960141 -0.279516 0.000000
vn -0.953459 -0.301521 0.000000
vn -0.442589 -0.896724 0.000000
vn -0.953459 -0.301521 0.000000
vn -0.442589 -0.896725 0.000000
vn 0.981258 0.192572 0.007017
vn 0.417328 -0.908756 0.000000
vn 0.002078 -0.004234 0.999989
vn 0.144577 0.008362 0.989458
vn 0.001495 -0.004308 0.999990
vn 0.077639 0.002375 0.996979
vn -0.999890 -0.014859 0.000000
vn -0.696526 -0.717532 0.000000
vn 0.999889 0.014909 0.000000
vn 0.717550 -0.696508 0.000000
vn -0.960527 0.278185 0.000000
vn 0.858050 0.321785 0.400256
vn 0.362813 0.408795 0.837409
vn -0.953458 -0.301525 -0.000006
vn -0.442592 -0.896723 -0.000005
vn -0.867172 0.296204 0.400345
vn 0.685410 -0.657100 0.313740
vn -0.665684 -0.677097 0.313695
vn 0.980473 0.196655 0.000000
vn 0.417328 -0.908756 0.000000
vn 0.922174 -0.386722 0.006454
vn 0.920583 -0.390548 0.000000
vn 0.000000 0.000000 1.000000
vn 0.000000 0.000000 1.000000
vn 0.000000 0.000000 1.000000
vn 0.000000 0.000000 1.000000
vn -0.859026 0.511932 0.000000
vn 0.000000 0.000000 0.000000
vn -0.859026 0.511932 0.000000
vn 0.889897 0.456161 0.000000
vn 0.889897 0.456161 0.000000
vn 0.000000 0.000000 1.000000
vn -0.859026 0.511932 0.000000
vn -0.859026 0.511932 0.000000
vn 0.000000 0.000000 1.000000
vn -0.375171 0.397300 0.837496
vn -0.362362 -0.408850 0.837577
vn 0.374690 -0.397377 0.837675
vn 0.012295 -0.999924 0.000000
vn 0.012295 -0.999924 0.000000
vn 0.012295 -0.999924 0.000000
vn 0.012295 -0.999924 0.000000
vn 0.012293 -0.999925 0.000000
vn 0.012293 -0.999925 0.000000
vn 0.012293 -0.999925 0.000000
vn 0.012293 -0.999924 0.000000
vn 0.345201 0.004964 -0.938515
vn 0.855801 0.012308 -0.517158
vn -0.855441 -0.012303 -0.517754
vn -0.344902 -0.004958 -0.938626
vn 0.707500 0.010178 0.706640
vn -0.706566 -0.010159 0.707575
vn 0.000000 0.000000 1.000000
vn 0.000000 0.000000 1.000000
vn 0.000000 -0.679187 0.733965
vn 0.000000 -1.000000 0.000000
vn 0.012293 -0.999924 0.000010
vn 0.889897 0.456161 0.000000
vn -0.707503 -0.010172 0.706637
vn 0.855438 0.012303 -0.517759
vn 0.706567 0.010165 0.707574
vn 0.000000 0.000000 1.000000
vn 0.000000 0.000000 1.000000
vn 0.000000 0.000000 1.000000
vn 0.000000 -1.000000 0.000000
vn 0.000000 -0.502515 0.864568
vn 0.000000 -0.999999 -0.001475
vn 0.012270 -0.999925 0.000005
vn 0.012260 -0.999925 0.000011
vn 0.012284 -0.999925 0.000005
vn 0.012276 -0.999925 -0.000020
vn 0.012285 -0.999924 0.000006
vn 0.012310 -0.999924 -0.000009
vn 0.012294 -0.999924 0.000028
vn 0.012297 -0.999924 0.000012
vn 0.012293 -0.999925 0.000006
vn 0.012275 -0.999925 -0.000018
vn 0.012328 -0.999924 -0.000029
vn 0.012304 -0.999924 0.000021
vn 0.012329 -0.999924 -0.000032
vn 0.071619 0.001030 -0.997432
vn 0.219787 0.003160 -0.975543
vn 0.344898 0.004960 -0.938627
vn -0.387892 -0.005575 -0.921688
vn -0.855802 -0.012307 -0.517157
vn 0.024969 -0.999566 -0.015652
vn 0.022220 -0.999719 0.008250
vn 0.035895 -0.999296 -0.010868
vn -0.479891 -0.227200 -0.847399
vn -0.479014 -0.586048 -0.653524
vn 0.481793 -0.576161 -0.660238
vn 0.650252 -0.624052 0.433280
vn 0.479542 -0.201054 -0.854176
vn -0.638315 -0.639755 0.428097
vn -0.859532 -0.032101 0.510073
vn 0.849292 0.014139 0.527735
vn 0.027757 -0.999583 -0.007929
vn 0.027487 -0.999591 -0.007916
vn 0.068706 -0.995873 0.059295
vn 0.021509 -0.999725 0.009321
vn 0.058055 -0.998191 0.015644
vn 0.026371 -0.999274 0.027495
vn 0.010630 -0.999943 0.001157
vn 0.022363 -0.999401 0.026410
vn 0.021536 -0.999514 -0.022553
vn 0.011079 -0.999938 -0.000877
vn 0.023273 -0.999488 -0.021972
vn 0.000000 -1.000000 0.000000
vn 0.000000 -1.000000 0.000000
vn 0.000000 -1.000000 0.000000
vn 0.000000 -1.000000 0.000000
vn 0.000000 -1.000000 0.000000
vn 0.000000 -1.000000 0.000000
vn 0.000000 -1.000000 0.000000
vn 0.000000 -1.000000 0.000000
g fff0305e_00160_00536177_e6
f 223/163/223 222/162/222 221/161/221
f 204/160/204 203/159/203 202/158/202
f 220/157/220 219/156/219 218/155/218
f 220/157/220 218/155/218 217/154/217
f 203/159/203 216/153/216 202/158/202
f 223/163/223 219/156/219 222/162/222
f 217/154/217 215/176/215 202/158/202
f 221/161/221 214/175/214 213/174/213
f 204/160/204 202/158/202 215/176/215
f 216/153/216 213/174/213 214/175/214
f 213/174/213 216/153/216 203/159/203
f 223/163/223 221/161/221 213/174/213
f 218/155/218 215/176/215 217/154/217
f 220/157/220 222/162/222 219/156/219
g fff0305e_00160_00536177_e29
f 12/23/12 99/215/99 171/177/171
f 28/22/28 15/2/15 99/215/99
f 15/2/15 170/58/170 178/202/178
f 170/58/170 169/214/169 178/202/178
f 101/213/101 28/22/28 99/215/99
f 99/215/99 178/212/178 171/177/171
f 24/1/24 99/215/99 12/23/12
f 15/2/15 178/212/178 99/215/99
f 24/1/24 101/213/101 99/215/99
g fff0305e_00160_00536177_e22
f 23/194/23 14/193/14 22/192/22
f 13/191/13 22/192/22 14/193/14
f 22/192/22 13/191/13 183/190/183
f 182/3/182 183/190/183 13/191/13
f 183/190/183 181/209/181 22/192/22
f 21/208/21 22/192/22 181/209/181
f 22/192/22 20/207/20 23/194/23
f 20/207/20 22/192/22 21/208/21
f 13/189/13 19/206/19 18/188/18
f 13/189/13 18/188/18 180/102/180
f 179/205/179 180/102/180 18/188/18
f 18/188/18 17/204/17 179/205/179
f 16/203/16 18/188/18 19/206/19
f 18/188/18 16/203/16 17/204/17
f 14/187/14 19/206/19 13/189/13
f 13/189/13 180/102/180 182/3/182
g fff0305e_00160_00536177_e26
f 10/15/10 9/14/9 122/31/122
f 2/13/2 1/12/1 121/30/121
f 2/11/2 121/29/121 9/10/9
f 10/15/10 122/31/122 120/28/120
f 121/30/121 1/12/1 119/27/119
f 121/29/121 122/26/122 9/10/9
g fff0305e_00160_00536177_e25
f 71/19/71 53/18/53 70/17/70
f 71/19/71 70/17/70 69/16/69
f 142/19/142 141/18/141 140/17/140
f 142/19/142 140/17/140 139/16/139
g fff0305e_00160_00536177_e17
f 88/168/88 87/167/87 86/166/86
f 85/168/85 84/166/84 83/167/83
f 84/166/84 85/168/85 82/165/82
f 84/166/84 81/164/81 83/167/83
f 86/166/86 87/167/87 80/164/80
f 86/166/86 100/165/100 88/168/88
g fff0305e_00160_00536177_e28
f 24/20/24 12/25/12 11/24/11
f 11/24/11 5/5/5 24/20/24
f 11/24/11 228/184/228 172/183/172
f 11/24/11 12/25/12 227/182/227
f 226/181/226 225/180/225 172/183/172
f 227/182/227 12/25/12 224/179/224
f 172/183/172 3/178/3 226/181/226
f 172/183/172 228/184/228 3/178/3
f 224/179/224 12/25/12 225/180/225
f 11/24/11 227/182/227 228/184/228
f 12/25/12 171/4/171 225/180/225
f 172/183/172 225/180/225 171/4/171
f 5/5/5 11/24/11 230/222/230
f 230/222/230 229/221/229 5/5/5
f 172/183/172 231/223/231 11/24/11
f 230/222/230 11/24/11 231/223/231
g fff0305e_00160_00536177_e0
f 196/120/196 195/119/195 194/118/194
f 173/117/173 193/116/193 192/115/192
f 191/114/191 190/113/190 189/112/189
f 191/114/191 189/112/189 188/111/188
f 193/116/193 187/110/187 192/115/192
f 212/152/212 211/151/211 210/150/210
f 209/149/209 212/148/212 208/147/208
f 207/173/207 206/172/206 205/171/205
f 208/146/208 206/145/206 207/144/207
f 208/147/208 207/143/207 209/149/209
f 206/142/206 210/141/210 211/140/211
f 211/140/211 205/139/205 206/142/206
f 196/120/196 190/113/190 195/119/195
f 188/111/188 186/136/186 192/115/192
f 194/118/194 185/135/185 184/134/184
f 173/117/173 192/115/192 186/136/186
f 187/110/187 184/134/184 185/135/185
f 184/134/184 187/110/187 193/116/193
f 196/120/196 194/118/194 184/134/184
f 210/150/210 208/170/208 212/152/212
f 208/146/208 210/138/210 206/145/206
f 189/112/189 186/136/186 188/111/188
f 191/114/191 195/119/195 190/113/190
f 205/171/205 209/169/209 207/173/207
g fff0305e_00160_00536177_e1
f 138/74/138 137/57/137 136/56/136
f 118/55/118 138/74/138 136/56/136
f 36/54/36 35/53/35 52/52/52
f 34/51/34 51/50/51 50/73/50
f 33/55/33 68/74/68 49/56/49
f 48/41/48 47/40/47 68/74/68
f 52/52/52 46/39/46 51/50/51
f 36/54/36 52/52/52 51/50/51
f 49/56/49 45/38/45 52/52/52
f 35/53/35 49/56/49 52/52/52
f 135/41/135 117/40/117 138/74/138
f 32/37/32 45/38/45 44/57/44
f 49/56/49 44/57/44 45/38/45
f 43/49/43 44/57/44 47/40/47
f 68/74/68 47/40/47 44/57/44
f 42/36/42 41/48/41 40/35/40
f 50/73/50 40/35/40 41/48/41
f 33/55/33 31/47/31 68/74/68
f 51/50/51 46/39/46 40/35/40
f 67/90/67 66/89/66 65/88/65
f 64/72/64 67/71/67 63/70/63
f 63/70/63 62/69/62 64/72/64
f 61/68/61 65/67/65 60/66/60
f 60/66/60 59/65/59 61/68/61
f 61/87/61 58/86/58 63/85/63
f 61/87/61 63/85/63 65/88/65
f 57/64/57 62/69/62 63/70/63
f 63/70/63 58/63/58 57/64/57
f 56/104/56 67/84/67 64/83/64
f 64/83/64 55/82/55 56/104/56
f 41/48/41 79/46/79 50/73/50
f 39/45/39 78/62/78 77/44/77
f 77/44/77 41/48/41 39/45/39
f 76/61/76 43/49/43 75/43/75
f 47/40/47 75/43/75 43/49/43
f 74/60/74 34/51/34 79/46/79
f 30/9/30 29/201/29 28/186/28
f 27/200/27 28/186/28 29/201/29
f 29/199/29 26/198/26 8/21/8
f 8/21/8 27/197/27 29/199/29
f 26/198/26 29/196/29 7/8/7
f 38/34/38 40/35/40 46/39/46
f 47/40/47 48/41/48 73/33/73
f 38/34/38 42/36/42 40/35/40
f 32/37/32 37/32/37 45/38/45
f 65/88/65 63/85/63 67/90/67
f 66/81/66 55/80/55 60/66/60
f 66/79/66 67/84/67 54/103/54
f 54/103/54 55/82/55 66/79/66
f 37/32/37 38/34/38 45/38/45
f 60/66/60 65/67/65 66/81/66
f 79/46/79 41/48/41 77/44/77
f 52/52/52 45/38/45 46/39/46
f 54/103/54 67/84/67 56/104/56
f 56/104/56 55/82/55 54/103/54
f 73/33/73 75/43/75 47/40/47
f 34/51/34 36/54/36 51/50/51
f 42/36/42 39/45/39 41/48/41
f 43/49/43 32/37/32 44/57/44
f 55/78/55 64/77/64 60/76/60
f 62/75/62 60/76/60 64/77/64
f 35/53/35 33/55/33 49/56/49
f 45/38/45 38/34/38 46/39/46
f 31/47/31 25/42/25 48/41/48
f 73/33/73 48/41/48 25/42/25
f 25/42/25 72/59/72 73/33/73
f 50/73/50 79/46/79 34/51/34
f 116/34/116 115/35/115 114/39/114
f 117/40/117 135/41/135 174/33/174
f 116/34/116 113/36/113 115/35/115
f 112/37/112 111/32/111 110/38/110
f 134/88/134 133/85/133 154/90/154
f 153/81/153 152/80/152 132/66/132
f 153/79/153 154/84/154 151/103/151
f 151/103/151 152/82/152 153/79/153
f 111/32/111 116/34/116 110/38/110
f 132/66/132 134/67/134 153/81/153
f 150/46/150 109/48/109 149/44/149
f 131/52/131 110/38/110 114/39/114
f 151/103/151 154/84/154 148/104/148
f 148/104/148 152/82/152 151/103/151
f 174/33/174 147/43/147 117/40/117
f 108/51/108 107/54/107 130/50/130
f 113/36/113 106/45/106 109/48/109
f 105/49/105 112/37/112 137/57/137
f 152/78/152 129/77/129 132/76/132
f 128/75/128 132/76/132 129/77/129
f 104/53/104 118/55/118 136/56/136
f 110/38/110 116/34/116 114/39/114
f 102/47/102 103/42/103 135/41/135
f 174/33/174 135/41/135 103/42/103
f 103/42/103 146/59/146 174/33/174
f 127/73/127 150/46/150 108/51/108
f 145/60/145 108/51/108 150/46/150
f 117/40/117 147/43/147 105/49/105
f 144/61/144 105/49/105 147/43/147
f 149/44/149 109/48/109 106/45/106
f 106/45/106 143/62/143 149/44/149
f 109/48/109 150/46/150 127/73/127
f 129/83/129 152/82/152 148/104/148
f 148/104/148 154/84/154 129/83/129
f 133/70/133 126/63/126 125/64/125
f 125/64/125 128/69/128 133/70/133
f 124/87/124 133/85/133 134/88/134
f 124/87/124 126/86/126 133/85/133
f 132/66/132 123/65/123 124/68/124
f 124/68/124 134/67/134 132/66/132
f 133/70/133 128/69/128 129/72/129
f 129/72/129 154/71/154 133/70/133
f 154/90/154 153/89/153 134/88/134
f 130/50/130 114/39/114 115/35/115
f 118/55/118 102/47/102 138/74/138
f 107/54/107 104/53/104 131/52/131
f 127/73/127 115/35/115 109/48/109
f 113/36/113 109/48/109 115/35/115
f 138/74/138 117/40/117 137/57/137
f 105/49/105 137/57/137 117/40/117
f 136/56/136 137/57/137 110/38/110
f 112/37/112 110/38/110 137/57/137
f 104/53/104 136/56/136 131/52/131
f 29/196/29 6/7/6 7/8/7
f 136/56/136 110/38/110 131/52/131
f 107/54/107 131/52/131 130/50/130
f 28/186/28 101/220/101 5/219/5
f 131/52/131 114/39/114 130/50/130
f 108/51/108 130/50/130 127/73/127
f 130/50/130 115/35/115 127/73/127
f 102/47/102 135/41/135 138/74/138
f 4/6/4 8/21/8 26/198/26
f 30/195/30 5/218/5 6/217/6
f 59/65/59 60/66/60 62/211/62
f 31/47/31 48/41/48 68/74/68
f 29/196/29 30/185/30 6/216/6
f 28/186/28 5/219/5 30/9/30
f 62/211/62 57/210/57 59/65/59
f 51/50/51 40/35/40 50/73/50
f 4/6/4 26/198/26 7/8/7
f 68/74/68 44/57/44 49/56/49
f 101/220/101 24/7/24 5/219/5
g fff0305e_00160_00536177_e4
f 158/94/158 157/93/157 156/92/156
f 158/94/158 155/91/155 157/93/157
g fff0305e_00160_00536177_e18
f 98/168/98 97/167/97 96/166/96
f 96/166/96 97/167/97 95/164/95
f 96/166/96 94/165/94 98/168/98
f 93/168/93 92/166/92 91/167/91
f 92/166/92 93/168/93 90/165/90
f 92/166/92 89/164/89 91/167/91
g fff0305e_00160_00536177_e3
f 162/98/162 161/97/161 160/96/160
f 162/98/162 159/95/159 161/97/161
g fff0305e_00160_00536177_e8
f 168/101/168 167/109/167 177/100/177
f 166/108/166 165/133/165 201/132/201
f 167/131/167 164/107/164 176/130/176
f 201/132/201 200/129/200 166/108/166
f 164/128/164 163/106/163 199/127/199
f 198/126/198 199/127/199 163/106/163
f 176/130/176 177/125/177 167/131/167
f 199/127/199 176/124/176 164/128/164
f 175/123/175 201/122/201 165/105/165
f 165/105/165 168/121/168 175/123/175
f 197/137/197 166/108/166 200/129/200
f 163/106/163 197/137/197 198/126/198
f 177/100/177 175/99/175 168/101/168
