# fff06920_00094_001877f1
o fff06920_00094_001877f1
v -1.004853 -0.911947 -4.172689
v -1.004853 -0.911947 -4.833562
v -1.004853 1.348721 -4.833562
v 1.262002 1.348721 -4.833562
v 1.262002 1.348721 -4.172689
v -1.004853 1.348721 -4.172689
v -0.278641 0.013517 -4.199389
v 0.282712 0.574872 -4.199389
v 1.262002 1.348721 -4.172689
v -1.004853 -0.911947 -4.172689
v -1.004853 1.348721 -4.172689
v -0.081377 0.210750 -0.196712
v 0.074090 0.366216 -0.196712
v -0.003651 0.288483 3.344428
v 0.056436 0.348563 -1.849349
v -0.056378 0.235748 -3.723127
v 0.047668 0.339794 -3.723127
v -0.065146 0.226978 -1.849349
v 0.330024 0.622185 -3.718660
v -0.325953 -0.033796 -3.718660
v 0.205934 0.498088 -0.150363
v -0.177866 0.114286 -1.915328
v 0.176104 0.468254 -1.915328
v -0.207697 0.084452 -0.150363
v 1.262002 -0.911947 -4.172689
v 2.293188 2.585762 -4.815348
v 2.854540 3.147116 -4.815348
v 2.901852 3.194430 -4.334619
v 2.245875 2.538448 -4.334619
v 2.479517 2.771818 -4.361043
v 2.634984 2.927284 -4.361043
v 2.557243 2.849550 0.645314
v 1.431442 -8.108476 -3.128291
v -3.642471 -8.108470 -4.893256
v 1.431442 -8.108492 -4.893255
v -3.642471 -8.108459 -3.128291
v 0.275105 -8.434833 -2.205903
v -0.378729 -8.434838 -3.285588
v 0.275105 -8.434843 -3.285588
v -0.431628 -8.434832 -2.205903
v -3.236526 -8.108459 -3.128291
v -2.942846 -8.108473 -4.893256
vt 5.964727 1.654167
vt 1.144624 1.654167
vt 1.144624 1.654167
vt 1.144624 1.654167
vt 1.144624 1.654167
vt 5.964727 1.654167
vt 5.964727 1.654167
vt 1.144624 1.654167
vt 5.964727 1.654167
vt 1.144624 1.654167
vt 5.964727 1.654167
vt 5.579089 1.654167
vt 5.300099 1.654167
vn -1.000000 0.000000 0.000000
vn -1.000000 0.000000 0.000000
vn -0.707107 0.707107 0.000000
vn 0.000000 1.000000 0.000000
vn 0.000000 1.000000 0.000000
vn -0.707107 0.707107 0.000000
vn -0.707109 0.707105 0.000001
vn -0.707109 0.707105 -0.000000
vn 0.000000 0.000000 1.000000
vn 0.000000 0.000000 1.000000
vn 0.000000 0.000000 1.000000
vn -0.707104 0.707110 -0.000001
vn -0.707104 0.707110 -0.000001
vn -0.707104 0.707110 -0.000001
vn -0.707113 0.707101 -0.000000
vn -0.707107 0.707106 0.000000
vn -0.707108 0.707106 0.000000
vn -0.707113 0.707101 -0.000000
vn -0.707109 0.707104 -0.000001
vn -0.707109 0.707105 0.000000
vn -0.707111 0.707102 -0.000002
vn -0.707104 0.707109 0.000001
vn -0.707106 0.707108 0.000001
vn -0.707110 0.707103 -0.000001
vn 0.000000 0.000000 1.000000
vn -0.707108 0.707105 0.000000
vn -0.707109 0.707105 -0.000001
vn -0.707109 0.707104 -0.000001
vn -0.707109 0.707105 -0.000000
vn -0.707104 0.707109 -0.000001
vn -0.707104 0.707110 -0.000001
vn -0.707104 0.707109 -0.000001
vn 0.000003 1.000000 -0.000009
vn 0.000004 1.000000 -0.000006
vn 0.000004 1.000000 -0.000009
vn 0.000003 1.000000 -0.000007
vn 0.000001 1.000000 -0.000010
vn 0.000007 1.000000 -0.000006
vn 0.000005 1.000000 -0.000007
vn 0.000003 1.000000 -0.000008
vn 0.000003 1.000000 -0.000007
vn 0.000004 1.000000 -0.000007
g fff06920_00094_001877f1_e6
f 24/11/24 23/10/23 22/9/22
f 23/10/23 24/11/24 21/8/21
f 20/11/20 8/10/8 7/9/7
f 8/10/8 20/11/20 19/8/19
f 18/11/18 17/10/17 16/9/16
f 17/10/17 18/11/18 15/8/15
f 14/11/14 13/10/13 12/9/12
f 25/7/25 11/4/11 10/6/10
f 11/4/11 25/7/25 9/5/9
f 6/4/6 5/5/5 4/3/4
f 4/3/4 3/2/3 6/4/6
f 3/2/3 2/1/2 1/6/1
f 1/6/1 6/4/6 3/2/3
f 29/11/29 27/10/27 26/9/26
f 27/10/27 29/11/29 28/8/28
f 32/11/32 31/10/31 30/9/30
f 36/11/36 42/13/42 34/9/34
f 35/10/35 41/12/41 33/8/33
f 40/11/40 39/10/39 38/9/38
f 39/10/39 40/11/40 37/8/37
f 35/10/35 42/13/42 41/12/41
f 36/11/36 41/12/41 42/13/42
