# fff0a81b_00692_00f08c96
o fff0a81b_00692_00f08c96
v -0.110455 -0.135187 -0.034545
v 0.088528 0.040150 0.020864
v 0.088528 0.090336 0.020864
v -0.110455 0.015979 -0.034545
v 0.017139 -0.135187 0.056714
v 0.017139 0.015979 0.056714
v 0.090930 0.015979 0.056714
v 0.090930 0.108789 0.056714
v 1.003955 0.108789 0.056714
v 0.090930 -0.228107 0.056714
v 0.090930 -0.135187 0.056714
v 1.003995 -0.228107 0.056714
v 0.088528 -0.154476 0.039567
v 0.088528 -0.204662 0.039567
v 0.088528 -0.204662 0.020864
v 0.088528 -0.154476 0.020864
v 0.088528 0.090336 0.039567
v 0.088528 0.040150 0.039567
v 0.090928 -0.228325 -0.057098
v 0.090929 0.108580 -0.057098
v -0.110458 0.015446 -0.079651
v -0.110458 -0.135708 -0.079651
v 0.017136 0.015446 -0.170910
v 0.017136 -0.135708 -0.170910
v 0.090927 -0.135708 -0.170910
v 0.090927 -0.228543 -0.170910
v 1.003953 -0.228543 -0.170910
v 0.090927 0.108372 -0.170910
v 0.090927 0.015446 -0.170910
v -0.110456 -2.923242 -0.034545
v 0.088527 -2.747905 0.020864
v 0.088527 -2.697719 0.020864
v -0.110456 -2.772076 -0.034545
v 0.017138 -2.923242 0.056714
v 0.017138 -2.772076 0.056714
v 0.090929 -2.772076 0.056714
v 0.090930 -2.679265 0.056714
v 1.003954 -2.679265 0.056714
v 0.090929 -3.016161 0.056714
v 0.090929 -2.923242 0.056714
v 1.003995 -3.016161 0.056714
v 0.088527 -2.942531 0.039567
v 0.088527 -2.992717 0.039567
v 0.088527 -2.992717 0.020864
v 0.088527 -2.942531 0.020864
v 0.088527 -2.697719 0.039567
v 0.088527 -2.747905 0.039567
v 0.090928 -3.016379 -0.057098
v 0.090928 -2.679474 -0.057098
v -0.110459 -2.772609 -0.079651
v -0.110459 -2.923762 -0.079651
v 0.017135 -2.772609 -0.170910
v 0.017135 -2.923762 -0.170910
v 0.090927 -2.923762 -0.170910
v 0.090927 -3.016597 -0.170910
v 1.003952 -3.016597 -0.170910
v 0.090927 -2.679683 -0.170910
v 0.090927 -2.772609 -0.170910
vt 0.659195 2.264221
vt 0.659195 2.264221
vt 0.659195 2.264221
vt 0.659195 2.264221
vt 0.659195 2.264221
vt 0.659195 2.264221
vt 0.659195 2.264221
vt 0.659195 2.264221
vt 0.659195 2.264221
vt 0.659195 2.264221
vt 0.659195 2.264221
vt 0.659195 2.264221
vt 0.659195 2.264221
vt 0.659195 2.264221
vt 0.659195 2.264221
vt 0.659195 2.264221
vt 0.659195 2.264221
vt 0.659195 2.264221
vn -0.699807 -0.615446 0.362625
vn -1.000000 0.000000 0.000000
vn -1.000000 0.000000 0.000000
vn -0.699490 0.619076 0.357014
vn -0.233598 -0.644379 0.728154
vn -0.233415 0.645086 0.727586
vn -0.302112 0.301660 0.904284
vn -0.706689 0.000001 0.707525
vn 0.000000 0.000000 1.000000
vn -0.577447 -0.576747 0.577856
vn -0.301182 -0.301390 0.904684
vn -0.000000 -0.706414 0.707798
vn -1.000000 0.000000 0.000000
vn -1.000000 0.000000 0.000000
vn -1.000000 0.000000 0.000000
vn -1.000000 0.000000 0.000000
vn -1.000000 0.000000 0.000000
vn -1.000000 0.000000 0.000000
vn -0.707107 -0.707105 0.001363
vn -1.000000 0.000000 0.000013
vn -0.701285 0.612977 -0.363948
vn -0.698197 -0.621305 -0.355671
vn -0.307668 0.848702 -0.430169
vn -0.307669 -0.848702 -0.430169
vn -0.707646 -0.706564 0.001894
vn -0.706678 -0.707534 0.001363
vn -0.000000 -0.999998 0.001915
vn -1.000000 0.000000 0.000013
vn -0.706578 0.707633 -0.001793
vn -0.699807 -0.615446 0.362624
vn -1.000000 0.000000 0.000000
vn -1.000000 0.000000 0.000000
vn -0.699490 0.619077 0.357013
vn -0.233598 -0.644379 0.728154
vn -0.233415 0.645086 0.727586
vn -0.302112 0.301660 0.904284
vn -0.706689 0.000001 0.707525
vn 0.000000 0.000000 1.000000
vn -0.577447 -0.576748 0.577855
vn -0.301182 -0.301390 0.904684
vn -0.000000 -0.706414 0.707799
vn -1.000000 0.000000 0.000000
vn -1.000000 0.000000 0.000000
vn -1.000000 0.000000 0.000000
vn -1.000000 0.000000 0.000000
vn -1.000000 0.000000 0.000000
vn -1.000000 0.000000 0.000000
vn -0.707107 -0.707105 0.001362
vn -1.000000 0.000000 0.000013
vn -0.701286 0.612976 -0.363948
vn -0.698197 -0.621305 -0.355671
vn -0.307668 0.848702 -0.430169
vn -0.307668 -0.848702 -0.430169
vn -0.707646 -0.706564 0.001894
vn -0.706678 -0.707534 0.001363
vn -0.000000 -0.999998 0.001916
vn -1.000000 0.000000 0.000013
vn -0.706578 0.707633 -0.001793
g fff0a81b_00692_00f08c96_e20
f 29/6/29 7/10/7 8/11/8
f 8/11/8 20/3/20 29/6/29
f 11/14/11 25/1/25 19/2/19
f 19/2/19 10/13/10 11/14/11
f 5/8/5 6/8/6 4/5/4
f 4/5/4 1/5/1 5/8/5
f 1/5/1 4/5/4 22/17/22
f 21/17/21 22/17/22 4/5/4
f 22/5/22 21/5/21 23/8/23
f 26/11/26 19/3/19 25/6/25
f 23/8/23 24/8/24 22/5/22
f 20/2/20 28/13/28 29/14/29
f 58/6/58 36/10/36 37/11/37
f 37/11/37 49/3/49 58/6/58
f 40/14/40 54/1/54 48/2/48
f 48/2/48 39/13/39 40/14/40
f 34/8/34 35/8/35 33/5/33
f 33/5/33 30/5/30 34/8/34
f 30/5/30 33/5/33 51/17/51
f 50/17/50 51/17/51 33/5/33
f 51/5/51 50/5/50 52/8/52
f 55/11/55 48/3/48 54/6/54
f 52/8/52 53/8/53 51/5/51
f 49/2/49 57/13/57 58/14/58
g fff0a81b_00692_00f08c96_e21
f 29/6/29 4/5/4 6/8/6
f 29/14/29 23/8/23 21/5/21
f 3/5/3 2/5/2 18/8/18
f 18/8/18 17/8/17 3/5/3
f 16/5/16 15/5/15 14/8/14
f 14/8/14 13/8/13 16/5/16
f 7/10/7 29/6/29 6/8/6
f 25/6/25 22/5/22 24/8/24
f 10/13/10 19/2/19 12/12/12
f 25/1/25 11/14/11 1/5/1
f 19/3/19 27/12/27 12/4/12
f 11/14/11 5/8/5 1/5/1
f 29/18/29 21/17/21 4/5/4
f 25/16/25 1/5/1 22/17/22
f 19/3/19 26/11/26 27/12/27
f 58/6/58 33/5/33 35/8/35
f 58/14/58 52/8/52 50/5/50
f 32/5/32 31/5/31 47/8/47
f 47/8/47 46/8/46 32/5/32
f 45/5/45 44/5/44 43/8/43
f 43/8/43 42/8/42 45/5/45
f 36/10/36 58/6/58 35/8/35
f 54/6/54 51/5/51 53/8/53
f 39/13/39 48/2/48 41/12/41
f 54/1/54 40/14/40 30/5/30
f 48/3/48 56/12/56 41/4/41
f 40/14/40 34/8/34 30/5/30
f 58/18/58 50/17/50 33/5/33
f 54/16/54 30/5/30 51/17/51
f 48/3/48 55/11/55 56/12/56
g fff0a81b_00692_00f08c96_e22
f 12/15/12 11/14/11 10/13/10
f 9/12/9 8/11/8 7/10/7
f 7/9/7 12/8/12 9/8/9
f 11/7/11 6/8/6 5/8/5
f 6/8/6 11/7/11 7/9/7
f 12/8/12 7/9/7 11/7/11
f 41/15/41 40/14/40 39/13/39
f 38/12/38 37/11/37 36/10/36
f 36/9/36 41/8/41 38/8/38
f 40/7/40 35/8/35 34/8/34
f 35/8/35 40/7/40 36/9/36
f 41/8/41 36/9/36 40/7/40
