# fff01765_00043_0031d5c2
o fff01765_00043_0031d5c2
v 1.113713 0.000037 0.036350
v 1.028937 0.426236 0.036350
v 0.787515 0.787551 0.036350
v 0.426200 1.028975 0.036350
v -0.000000 1.113750 0.036350
v -0.426201 1.028975 0.036350
v -0.787515 0.787551 0.036350
v -1.028938 0.426236 0.036350
v -1.113715 0.000037 0.036350
v -1.028938 -0.426163 0.036350
v -0.787515 -0.787478 0.036350
v -0.426201 -1.028901 0.036350
v -0.000000 -1.113678 0.036350
v 0.426200 -1.028901 0.036350
v 0.787515 -0.787478 0.036350
v 1.028937 -0.426163 0.036350
v 1.113713 0.000037 0.726751
v 1.028937 0.426236 0.726751
v 0.787515 0.787551 0.726751
v 0.426200 1.028974 0.726751
v -0.000000 1.113750 0.726751
v -0.426201 1.028974 0.726751
v -0.787515 0.787551 0.726751
v -1.028938 0.426236 0.726751
v -1.113715 0.000037 0.726751
v -1.028938 -0.426163 0.726751
v -0.787515 -0.787478 0.726751
v -0.426201 -1.028901 0.726751
v -0.000000 -1.113678 0.726751
v 0.426200 -1.028901 0.726751
v 0.787515 -0.787478 0.726751
v 1.028937 -0.426163 0.726751
v 0.000000 0.000036 0.726750
v 1.050807 0.000036 0.726750
v 0.970819 0.402163 0.726750
v 0.743034 0.743068 0.726750
v 0.402127 0.970855 0.726750
v 0.000000 1.050843 0.726750
v -0.402127 0.970855 0.726750
v -0.743032 0.743068 0.726750
v -0.970819 0.402163 0.726750
v -1.050807 0.000036 0.726750
v -0.970819 -0.402090 0.726750
v -0.743032 -0.742996 0.726750
v -0.402127 -0.970783 0.726750
v 0.000000 -1.050771 0.726750
v 0.402127 -0.970783 0.726750
v 0.743034 -0.742996 0.726750
v 0.970819 -0.402089 0.726750
vt 0.500000 1.000000
vt 0.308658 0.961940
vt 0.146447 0.853553
vt 0.038060 0.691342
vt 0.000000 0.500000
vt 0.038060 0.308658
vt 0.146447 0.146447
vt 0.308658 0.038060
vt 0.500000 0.000000
vt 0.691342 0.038060
vt 0.853553 0.146446
vt 0.961940 0.308658
vt 1.000000 0.500000
vt 0.961940 0.691342
vt 0.853553 0.853554
vt 0.691342 0.961940
vt 0.500000 0.500000
vt 1.499998 1.000000
vt 2.028858 1.000000
vt 2.477203 1.000000
vt 2.046504 1.000000
vt 1.500005 1.000000
vt 0.953507 1.000000
vt 2.477203 1.000000
vt 2.028858 1.000000
vt 1.499999 1.000000
vt 0.971138 1.000000
vt 0.522793 1.000000
vt 0.953507 1.000000
vt 1.500006 1.000000
vt 2.046504 1.000000
vt 0.522793 1.000000
vt 0.971139 1.000000
vt 1.499998 2.000000
vt 2.028858 2.000000
vt 2.477203 2.000000
vt 2.046504 2.000000
vt 1.500005 2.000000
vt 0.953507 2.000000
vt 2.477203 2.000000
vt 2.028858 2.000000
vt 1.499999 2.000000
vt 0.971138 2.000000
vt 0.522793 2.000000
vt 0.953507 2.000000
vt 1.500006 2.000000
vt 2.046504 2.000000
vt 0.522793 2.000000
vt 0.971139 2.000000
vt 2.509802 1.000000
vt 0.490209 1.000000
vt 2.509802 2.000000
vt 0.490209 2.000000
vt 0.490209 1.000000
vt 2.509802 1.000000
vt 0.490209 2.000000
vt 2.509802 2.000000
vt 0.500000 1.000000
vt 0.691342 0.961940
vt 0.308658 0.961940
vt 0.146447 0.853553
vt 0.038060 0.691342
vt 0.000000 0.500000
vt 0.038060 0.308658
vt 0.146447 0.146447
vt 0.308658 0.038060
vt 0.500000 0.000000
vt 0.691342 0.038060
vt 0.853553 0.146446
vt 0.961940 0.308658
vt 1.000000 0.500000
vt 0.961940 0.691342
vt 0.853553 0.853554
vn 1.000000 -0.000000 -0.000000
vn 0.923880 0.382683 0.000000
vn 0.707108 0.707106 0.000000
vn 0.382684 0.923879 0.000000
vn -0.000000 1.000000 -0.000000
vn -0.382684 0.923879 0.000000
vn -0.707107 0.707106 0.000000
vn -0.923879 0.382685 0.000000
vn -1.000000 0.000000 -0.000000
vn -0.923879 -0.382684 -0.000000
vn -0.707107 -0.707107 0.000000
vn -0.382684 -0.923879 0.000000
vn 0.000000 -1.000000 -0.000000
vn 0.382684 -0.923879 0.000000
vn 0.707108 -0.707106 0.000000
vn 0.923880 -0.382683 -0.000000
vn 0.746201 -0.000000 0.665721
vn 0.689399 0.285558 0.665721
vn 0.527644 0.527643 0.665722
vn 0.285559 0.689399 0.665721
vn -0.000000 0.746200 0.665722
vn -0.285559 0.689399 0.665721
vn -0.527643 0.527643 0.665722
vn -0.689399 0.285559 0.665721
vn -0.746200 0.000000 0.665721
vn -0.689399 -0.285559 0.665721
vn -0.527643 -0.527643 0.665722
vn -0.285559 -0.689399 0.665721
vn 0.000000 -0.746200 0.665721
vn 0.285559 -0.689399 0.665721
vn 0.527644 -0.527642 0.665721
vn 0.689399 -0.285558 0.665722
vn 0.000000 0.000000 1.000000
vn -0.000004 0.000000 1.000000
vn -0.000004 -0.000002 1.000000
vn -0.000003 -0.000003 1.000000
vn -0.000002 -0.000004 1.000000
vn -0.000000 -0.000004 1.000000
vn 0.000002 -0.000004 1.000000
vn 0.000003 -0.000003 1.000000
vn 0.000004 -0.000002 1.000000
vn 0.000004 0.000000 1.000000
vn 0.000004 0.000002 1.000000
vn 0.000003 0.000003 1.000000
vn 0.000002 0.000004 1.000000
vn -0.000000 0.000004 1.000000
vn -0.000002 0.000004 1.000000
vn -0.000003 0.000003 1.000000
vn -0.000004 0.000002 1.000000
g fff01765_00043_0031d5c2_e21
f 11/54/11 12/29/12 28/45/28
f 12/29/12 29/46/29 28/45/28
f 12/29/12 13/30/13 29/46/29
f 13/30/13 30/47/30 29/46/29
f 13/30/13 14/31/14 30/47/30
f 11/54/11 28/45/28 27/56/27
f 10/27/10 11/28/11 27/44/27
f 10/27/10 27/44/27 26/43/26
f 9/26/9 10/27/10 26/43/26
f 9/26/9 26/43/26 25/42/25
f 8/25/8 9/26/9 25/42/25
f 8/25/8 25/42/25 24/41/24
f 7/24/7 8/25/8 24/41/24
f 7/24/7 24/41/24 23/40/23
f 6/23/6 7/51/7 23/53/23
f 6/23/6 23/53/23 22/39/22
f 5/22/5 6/23/6 22/39/22
f 5/22/5 22/39/22 21/38/21
f 4/21/4 5/22/5 21/38/21
f 4/21/4 21/38/21 20/37/20
f 3/50/3 4/21/4 20/37/20
f 3/50/3 20/37/20 19/52/19
f 2/19/2 3/20/3 19/36/19
f 2/19/2 19/36/19 18/35/18
f 1/18/1 2/19/2 18/35/18
f 1/18/1 18/35/18 17/34/17
f 16/33/16 1/18/1 17/34/17
f 16/33/16 17/34/17 32/49/32
f 15/32/15 16/33/16 32/49/32
f 15/32/15 32/49/32 31/48/31
f 14/31/14 15/55/15 31/57/31
f 14/31/14 31/57/31 30/47/30
g fff01765_00043_0031d5c2_e37
f 26/10/26 27/11/27 44/69/44
f 44/69/44 43/68/43 26/10/26
f 25/9/25 26/10/26 43/68/43
f 43/68/43 42/67/42 25/9/25
f 24/8/24 25/9/25 42/67/42
f 42/67/42 41/66/41 24/8/24
f 41/66/41 40/65/40 23/7/23
f 23/7/23 24/8/24 41/66/41
f 22/6/22 23/7/23 40/65/40
f 40/65/40 39/64/39 22/6/22
f 21/5/21 22/6/22 39/64/39
f 39/64/39 38/63/38 21/5/21
f 20/4/20 21/5/21 38/63/38
f 38/63/38 37/62/37 20/4/20
f 37/62/37 36/61/36 19/3/19
f 19/3/19 20/4/20 37/62/37
f 18/2/18 19/3/19 36/61/36
f 36/61/36 35/60/35 18/2/18
f 17/1/17 18/2/18 35/60/35
f 35/60/35 34/58/34 17/1/17
f 27/11/27 28/12/28 45/70/45
f 45/70/45 44/69/44 27/11/27
f 32/16/32 17/1/17 34/58/34
f 34/58/34 49/59/49 32/16/32
f 31/15/31 32/16/32 49/59/49
f 49/59/49 48/73/48 31/15/31
f 28/12/28 29/13/29 46/71/46
f 46/71/46 45/70/45 28/12/28
f 48/73/48 47/72/47 30/14/30
f 30/14/30 31/15/31 48/73/48
f 29/13/29 30/14/30 47/72/47
f 47/72/47 46/71/46 29/13/29
g fff01765_00043_0031d5c2_e38
f 33/17/33 35/60/35 36/61/36
f 33/17/33 36/61/36 37/62/37
f 33/17/33 37/62/37 38/63/38
f 33/17/33 38/63/38 39/64/39
f 33/17/33 39/64/39 40/65/40
f 33/17/33 40/65/40 41/66/41
f 33/17/33 41/66/41 42/67/42
f 33/17/33 42/67/42 43/68/43
f 33/17/33 43/68/43 44/69/44
f 33/17/33 44/69/44 45/70/45
f 33/17/33 45/70/45 46/71/46
f 33/17/33 46/71/46 47/72/47
f 33/17/33 47/72/47 48/73/48
f 33/17/33 48/73/48 49/59/49
f 33/17/33 49/59/49 34/58/34
f 33/17/33 34/58/34 35/60/35
