# fff0a81b_00450_009f5d14
o fff0a81b_00450_009f5d14
v -0.352122 -0.816299 0.104685
v -0.306036 -0.862619 -0.193548
v 0.285028 -0.862619 -0.193548
v 0.305541 -0.045346 -0.193548
v -0.306036 -0.045346 -0.193548
v 0.350628 -0.816271 -0.193548
v 0.350628 -0.091699 -0.193548
v 0.350623 -0.091727 0.104685
v -0.352122 -0.091727 0.104685
v 0.350623 -0.816299 0.104685
v 0.305540 -0.045377 0.104685
v -0.306030 -0.045377 0.104685
v -0.306030 -0.862650 0.104685
v 0.305540 -0.862650 0.104685
v 0.350628 0.049543 -0.193548
v 0.350628 0.774115 -0.193548
v -0.352122 0.049514 0.104685
v -0.306030 0.003164 0.104685
v 0.305540 0.003164 0.104685
v -0.352122 0.774087 0.104685
v 0.305540 0.820437 0.104685
v 0.350623 0.049515 0.104685
v 0.350623 0.774087 0.104685
v -0.306030 0.820437 0.104685
v 0.305541 0.003195 -0.193548
v 0.305541 0.820468 -0.193548
v -0.306036 0.820468 -0.193548
v -0.306036 0.003195 -0.193548
v 0.500330 1.610035 0.104685
v -0.436752 1.607548 0.104685
v -0.436752 -0.932924 0.104685
v 0.500330 -0.932924 0.104685
v 0.500330 1.610035 0.070207
v -0.436752 1.607548 0.070207
v -0.436752 -0.932924 0.070207
v 0.500330 -0.932924 0.070207
v 0.484331 1.575645 0.071560
v -0.420756 1.573250 0.071560
v -0.420756 -0.898579 0.071560
v 0.484331 -0.898579 0.071560
v 0.484331 1.575645 0.016201
v -0.420756 1.573250 0.016201
v -0.420756 -0.898579 0.016201
v 0.484331 -0.898579 0.016201
v 0.484331 1.575645 -0.480102
v -0.420756 1.573250 -0.480102
v -0.420756 -0.898579 -0.480102
v 0.484331 -0.898579 -0.480102
v -0.336204 1.548728 -0.459424
v -0.394953 1.548649 -0.459424
v -0.394953 1.489406 -0.459424
v -0.336204 1.489406 -0.459424
v -0.336204 1.548728 -0.673433
v -0.394953 1.548649 -0.673433
v -0.394953 1.489406 -0.673433
v -0.336204 1.489406 -0.673433
v -0.336204 -0.818687 -0.459424
v -0.394953 -0.818767 -0.459424
v -0.394953 -0.878009 -0.459424
v -0.336204 -0.878009 -0.459424
v -0.336204 -0.818687 -0.673433
v -0.394953 -0.818767 -0.673433
v -0.394953 -0.878009 -0.673433
v -0.336204 -0.878009 -0.673433
v 0.143599 -0.421588 -0.188969
v 0.143600 -0.524929 -0.188969
v 0.246941 -0.421588 -0.188969
v 0.246941 -0.524929 -0.188969
v 0.143599 0.461413 -0.188969
v 0.143599 0.358072 -0.188969
v 0.246941 0.461413 -0.188969
v 0.246941 0.358072 -0.188969
v 0.298145 0.898693 0.104685
v -0.311943 0.898693 0.104685
v 0.298145 1.515898 0.104685
v -0.311943 1.515898 0.104685
v -0.420756 1.467346 0.016201
v -0.420756 -0.784350 0.016201
v -0.420756 1.467346 -0.480102
v -0.420756 -0.784350 -0.480102
v -0.385860 -0.784350 0.016201
v -0.385860 1.467346 -0.423621
v -0.385860 1.467346 -0.480102
v -0.385860 -0.784350 -0.480102
v -0.385860 1.057444 -0.423621
v -0.385860 1.057444 0.016201
v -0.002115 1.467345 0.016201
v -0.002115 1.467345 -0.423621
v -0.002115 1.057442 -0.423621
v -0.002115 1.057442 0.016201
v -0.385860 1.057444 -0.067574
v -0.385860 -0.784350 -0.067574
v -0.002115 1.057442 -0.067574
v -0.386959 1.074878 0.010920
v -0.411457 1.074496 0.010920
v -0.411457 0.652048 0.010920
v -0.386959 0.652048 0.010920
v -0.386959 1.074878 -0.459890
v -0.411457 1.074496 -0.459890
v -0.411457 0.652048 -0.459890
v -0.386959 0.652048 -0.459890
v -0.408121 1.065215 -0.001422
v -0.432618 1.050738 -0.019548
v -0.408121 1.036288 -0.001422
v -0.408121 1.065215 -0.447549
v -0.432618 1.050738 -0.447549
v -0.408121 1.036288 -0.447549
v -0.385860 0.617197 -0.480102
v -0.385860 0.617197 -0.067574
v -0.385860 0.666515 -0.480102
v -0.385860 0.666515 0.016201
v 0.348038 0.035898 0.128330
v 0.348038 -0.084871 0.128330
v 0.468807 0.035898 0.128330
v 0.468807 -0.084871 0.128330
v 0.348038 0.035898 0.113386
v 0.348038 -0.084871 0.113386
v 0.468807 0.035898 0.113386
v 0.468807 -0.084871 0.113386
v 0.391299 -0.022896 0.117223
v 0.413760 -0.045344 0.117223
v 0.413760 -0.000444 0.117223
v 0.436202 -0.022892 0.117223
v 0.391299 -0.022896 0.760263
v 0.413760 -0.045344 0.760263
v 0.413760 -0.000444 0.760263
v 0.436202 -0.022892 0.760263
v 0.382079 -0.022898 0.529888
v 0.413784 -0.054583 0.529888
v 0.413784 0.008794 0.529888
v 0.445461 -0.022892 0.529888
v 0.382079 -0.022898 0.564119
v 0.413784 -0.054583 0.564119
v 0.413784 0.008794 0.564119
v 0.445461 -0.022892 0.564119
v 0.379147 -0.022898 0.747222
v 0.413791 -0.057521 0.747222
v 0.413791 0.011732 0.747222
v 0.448405 -0.022892 0.747222
v 0.379147 -0.022898 0.781453
v 0.413791 -0.057521 0.781453
v 0.413791 0.011732 0.781453
v 0.448405 -0.022892 0.781453
v 0.364518 -0.022899 0.123003
v 0.413828 -0.072181 0.123003
v 0.413828 0.026391 0.123003
v 0.463096 -0.022890 0.123003
v 0.372782 -0.022899 0.179446
v 0.413826 -0.063919 0.179446
v 0.413826 0.018129 0.179446
v 0.454835 -0.022891 0.179446
v 0.392302 -0.046681 0.123898
v 0.410278 -0.054691 0.140873
v 0.384298 -0.028715 0.140873
v 0.402255 -0.036738 0.157831
v 0.333889 -0.105100 0.145361
v 0.363370 -0.118254 0.173227
v 0.320738 -0.075618 0.173227
v 0.350219 -0.088772 0.201076
v 0.335933 -0.103065 0.155598
v 0.355101 -0.111610 0.173710
v 0.327380 -0.083893 0.173710
v 0.346529 -0.092452 0.191804
v 0.392643 0.000568 0.123898
v 0.384620 -0.017408 0.140873
v 0.410600 0.008572 0.140873
v 0.402577 -0.009385 0.157831
v 0.334211 0.058981 0.145361
v 0.321060 0.029500 0.173227
v 0.363692 0.072132 0.173227
v 0.350541 0.042651 0.201076
v 0.336254 0.056938 0.155598
v 0.327701 0.037769 0.173710
v 0.355423 0.065490 0.173710
v 0.346870 0.046341 0.191804
vt 1.000000 1.000000
vt 0.632812 1.000000
vt 0.660823 1.000000
vt 0.609597 1.000000
vt 0.630939 1.000000
vt 0.682597 1.000000
vt 0.682597 1.000000
vt 0.659316 1.000000
vt 0.630939 1.000000
vt 0.632812 1.000000
vt 0.681007 1.000000
vt 0.660823 1.000000
vt 0.611039 1.000000
vt 0.609597 1.000000
vt 0.725956 1.000000
vt 0.681007 1.000000
vt 0.659316 1.000000
vt 0.611039 1.000000
vt 0.682597 1.000000
vt 0.660823 1.000000
vt 0.735219 1.000000
vt 0.666740 1.000000
vt 0.730381 1.000000
vt 0.670685 1.000000
vt 0.662827 1.000000
vt 0.692310 1.000000
vt 0.751899 1.000000
vt 0.747622 1.000000
vt 0.669009 1.000000
vt 0.666890 1.000000
vt 0.717595 1.000000
vt 0.769418 1.000000
vt 0.717595 1.000000
vt 0.662827 1.000000
vt 0.769418 1.000000
vt 0.666890 1.000000
vt 0.669009 1.000000
vt 0.725956 1.000000
vt 0.769418 1.000000
vt 0.717595 1.000000
vt 0.662827 1.000000
vt 0.666890 1.000000
vt 0.669009 1.000000
vt 0.725956 1.000000
vt 0.000000 0.000000
vt 1.000000 0.000000
vt 0.000000 1.000000
vt 1.000000 1.000000
vt 0.659316 1.000000
vt 0.611039 1.000000
vt 0.730381 1.000000
vt 0.717595 1.000000
vt 0.609597 1.000000
vt 0.662827 1.000000
vt 3.552994 2.431598
vt -5.047931 2.418867
vt 3.552994 -1.610020
vt -5.047932 -1.610022
vt 0.666974 1.000000
vt 0.667312 1.000000
vt 0.667352 1.000000
vt 0.667004 1.000000
vt 0.666974 1.000000
vt 0.667004 1.000000
vt 0.667312 1.000000
vt 0.667352 1.000000
vt 0.667332 1.000000
vt 0.666988 1.000000
vt 0.667067 1.000000
vt 0.667067 1.000000
vt 0.667031 1.000000
vt 0.666974 1.000000
vt 0.667031 1.000000
vt 0.667004 1.000000
vt 0.667067 1.000000
vt 0.667352 1.000000
vt 0.666984 1.000000
vt 0.667065 1.000000
vt 0.667320 1.000000
vt 0.667070 1.000000
vt 0.667121 1.000000
vt 0.666981 1.000000
vt 0.667343 1.000000
vt 0.667114 1.000000
vt 0.667099 1.000000
vt 0.000000 0.000000
vt 1.000000 0.000000
vt 0.000000 1.000000
vt 1.000000 1.000000
vt 0.000000 0.000000
vt 1.000000 0.000000
vt 0.000000 1.000000
vt 1.000000 1.000000
vt 0.000000 0.000000
vt 1.000000 1.000000
vt 0.000000 1.000000
vt 1.000000 0.000000
vn 0.000000 0.000000 1.000000
vn 0.000000 0.707065 0.707148
vn -0.220253 0.725193 0.652368
vn -0.302431 -0.716091 0.629086
vn 0.000000 -0.707139 0.707074
vn -0.698541 0.350707 0.623735
vn -0.718468 -0.291806 0.631389
vn -0.552990 -0.224566 0.802354
vn 0.000000 0.000000 1.000000
vn -0.552959 0.224577 0.802373
vn -0.230318 -0.545299 0.805980
vn 0.000000 -0.371181 0.928561
vn 0.000000 0.371153 0.928572
vn -0.229947 0.544208 0.806822
vn -0.718455 0.291785 0.631414
vn -0.718468 -0.291808 0.631389
vn 0.000000 0.000000 1.000000
vn -0.000000 0.371153 0.928572
vn -0.230279 0.545240 0.806031
vn 0.000000 0.000000 1.000000
vn -0.230318 -0.545299 0.805979
vn -0.895572 0.363725 0.256233
vn -0.552990 -0.224566 0.802354
vn 0.000000 -0.371180 0.928561
vn -0.302399 0.716036 0.629164
vn -0.302430 -0.716091 0.629087
vn 0.000000 -0.707139 0.707074
vn 0.000000 0.707065 0.707148
vn -0.001878 0.707701 0.706509
vn -0.578045 0.576514 0.577491
vn -0.577351 -0.577350 0.577350
vn 0.000000 -0.707107 0.707107
vn -0.002654 0.999997 0.000000
vn -0.708045 0.706167 0.000000
vn -0.707106 -0.707107 0.000000
vn 0.000000 -1.000000 0.000000
vn -0.002646 0.999997 0.000000
vn -0.708042 0.706170 0.000000
vn -0.707106 -0.707107 -0.000000
vn 0.000000 -1.000000 0.000000
vn -0.002646 0.999997 0.000000
vn -0.708042 0.706171 0.000000
vn -0.707107 -0.707107 0.000000
vn 0.000000 -1.000000 0.000000
vn -0.002646 0.999997 0.000000
vn -0.708042 0.706171 0.000000
vn -0.707107 -0.707107 -0.000000
vn 0.000000 -1.000000 0.000000
vn -0.001357 0.999999 0.000000
vn -0.707586 0.706627 0.000000
vn -0.707107 -0.707107 0.000000
vn 0.000000 -1.000000 0.000000
vn -0.001357 0.999999 0.000000
vn -0.707587 0.706627 0.000000
vn -0.707107 -0.707107 0.000000
vn 0.000000 -1.000000 0.000000
vn -0.001355 0.999999 0.000000
vn -0.707586 0.706628 0.000000
vn -0.707107 -0.707107 0.000000
vn 0.000000 -1.000000 0.000000
vn -0.001355 0.999999 0.000000
vn -0.707586 0.706627 0.000000
vn -0.707107 -0.707107 0.000000
vn 0.000000 -1.000000 0.000000
vn 0.000000 0.000000 1.000000
vn 0.000000 0.000000 1.000000
vn 0.000000 0.000000 1.000000
vn 0.000000 0.000000 1.000000
vn 0.000000 0.000000 1.000000
vn 0.000000 0.000000 1.000000
vn 0.000000 0.000000 1.000000
vn 0.000000 0.000000 1.000000
vn 0.000000 0.000000 1.000000
vn 0.000000 0.000000 1.000000
vn 0.000000 0.000000 1.000000
vn 0.000000 0.000000 1.000000
vn -0.948683 -0.316228 -0.000000
vn -0.948683 0.316228 0.000000
vn -0.707107 -0.707107 0.000000
vn -0.707107 0.707107 -0.000000
vn -0.707107 0.707107 0.000001
vn -0.301512 -0.904534 0.301511
vn -0.707107 -0.707107 0.000000
vn -0.707107 0.707107 -0.000000
vn -0.904534 0.301512 0.301512
vn -0.707105 0.707108 -0.000000
vn -0.707108 -0.707106 0.000000
vn -0.577351 -0.577349 0.577350
vn -0.577349 0.577352 0.577350
vn -0.707105 0.707108 0.000000
vn -0.707105 0.707108 -0.000000
vn -0.707108 0.707106 0.000000
vn -0.707105 0.707108 0.000000
vn -0.011064 0.710534 0.703576
vn -0.581412 0.572429 0.578173
vn -0.577350 -0.577350 0.577351
vn 0.000000 -0.707107 0.707107
vn -0.015570 0.999879 0.000000
vn -0.712591 0.701580 0.000000
vn -0.707107 -0.707107 0.000000
vn 0.000000 -1.000000 0.000000
vn -0.686189 0.501961 0.526479
vn -0.966935 -0.000374 0.255022
vn -0.685910 -0.502045 0.526761
vn -0.508745 0.860918 0.000000
vn -1.000000 -0.000397 0.000000
vn -0.508061 -0.861321 0.000000
vn -1.000000 -0.000000 0.000000
vn -1.000000 0.000000 0.000000
vn -1.000000 -0.000000 0.000000
vn -1.000000 0.000000 0.000000
vn 0.000000 0.000000 1.000000
vn 0.000000 0.000000 1.000000
vn 0.000000 0.000000 1.000000
vn 0.000000 0.000000 1.000000
vn 0.000000 0.000000 1.000000
vn 0.000000 0.000000 1.000000
vn 0.000000 0.000000 1.000000
vn 0.000000 0.000000 1.000000
vn -1.000000 -0.000047 0.000000
vn 0.000257 -1.000000 0.000000
vn 0.000164 1.000000 0.000000
vn 1.000000 0.000046 0.000000
vn -1.000000 -0.000047 0.000000
vn 0.000257 -1.000000 0.000000
vn 0.000164 1.000000 0.000000
vn 1.000000 0.000046 0.000000
vn -1.000000 -0.000046 0.000000
vn 0.000257 -1.000000 0.000000
vn 0.000165 1.000000 0.000000
vn 1.000000 0.000046 0.000000
vn -0.816515 -0.000037 0.577325
vn 0.000210 -0.816494 0.577354
vn 0.000135 0.816494 0.577354
vn 0.816483 0.000038 0.577369
vn -1.000000 -0.000046 0.000000
vn 0.000257 -1.000000 0.000000
vn 0.000164 1.000000 0.000000
vn 1.000000 0.000046 0.000000
vn -0.816515 -0.000038 0.577325
vn 0.000210 -0.816494 0.577354
vn 0.000134 0.816494 0.577354
vn 0.816483 0.000038 0.577369
vn -0.989451 -0.000048 0.144869
vn 0.000253 -0.989456 0.144832
vn 0.000167 0.989456 0.144831
vn 0.989459 0.000048 0.144814
vn -0.775677 -0.000033 0.631130
vn 0.000201 -0.775664 0.631146
vn 0.000124 0.775665 0.631145
vn 0.775657 0.000033 0.631155
vn -0.177902 -0.177756 -0.967860
vn 0.790626 -0.610043 -0.052519
vn -0.610002 0.790666 -0.052393
vn 0.358294 0.358213 0.862153
vn -0.573751 -0.573726 -0.584507
vn 0.257766 -0.944985 0.201395
vn -0.944958 0.257836 0.201433
vn -0.113308 -0.113315 0.987077
vn -0.653227 -0.653326 0.382701
vn -0.652965 -0.653587 0.382701
vn -0.653489 -0.653064 0.382701
vn -0.653227 -0.653325 0.382701
vn -0.177610 0.178139 -0.967844
vn -0.610118 -0.790554 -0.052733
vn 0.790625 0.610056 -0.052388
vn 0.358248 -0.358250 0.862157
vn -0.573763 0.573705 -0.584516
vn -0.944978 -0.257803 0.201383
vn 0.257780 0.944974 0.201431
vn -0.113306 0.113306 0.987078
vn -0.653266 0.653266 0.382736
vn -0.653368 0.653164 0.382736
vn -0.653165 0.653367 0.382736
vn -0.653266 0.653266 0.382736
g fff0a81b_00450_009f5d14_e17
f 153/86/153 155/87/155 159/89/159
f 18/10/18 19/11/19 25/16/25
f 25/16/25 28/2/28 18/10/18
f 5/1/5 4/1/4 11/1/11
f 159/89/159 157/88/157 153/86/153
f 149/93/149 148/92/148 144/90/144
f 10/6/10 8/3/8 7/20/7
f 7/20/7 6/19/6 10/6/10
f 144/90/144 145/91/145 149/93/149
f 11/8/11 12/13/12 5/18/5
f 4/17/4 7/20/7 8/3/8
f 8/3/8 11/8/11 4/17/4
f 14/11/14 10/6/10 6/19/6
f 3/16/3 2/2/2 13/10/13
f 147/90/147 146/91/146 150/93/150
f 150/93/150 151/92/151 147/90/147
f 13/10/13 14/11/14 3/16/3
f 146/86/146 144/87/144 148/89/148
f 148/89/148 150/88/150 146/86/146
f 145/86/145 147/87/147 151/89/151
f 151/89/151 149/88/149 145/86/145
f 15/19/15 25/16/25 19/11/19
f 6/1/6 3/1/3 14/1/14
f 127/89/127 125/88/125 121/86/121
f 121/86/121 123/87/123 127/89/127
f 22/6/22 23/3/23 16/20/16
f 16/20/16 15/19/15 22/6/22
f 27/18/27 26/17/26 21/8/21
f 21/8/21 24/13/24 27/18/27
f 26/17/26 16/20/16 23/3/23
f 23/3/23 21/8/21 26/17/26
f 19/11/19 22/6/22 15/19/15
f 35/37/35 30/30/30 34/36/34
f 30/30/30 35/37/35 31/29/31
f 169/93/169 168/92/168 164/90/164
f 164/90/164 165/91/165 169/93/169
f 77/59/77 38/30/38 42/36/42
f 38/30/38 78/60/78 39/29/39
f 171/92/171 166/91/166 170/93/170
f 166/91/166 171/92/171 167/90/167
f 166/86/166 164/87/164 168/89/168
f 168/89/168 170/88/170 166/86/166
f 42/36/42 79/62/79 77/59/77
f 47/43/47 78/60/78 80/61/80
f 125/93/125 124/92/124 120/90/120
f 120/90/120 121/91/121 125/93/125
f 50/36/50 55/43/55 51/37/51
f 55/43/55 50/36/50 54/42/54
f 165/86/165 167/87/167 171/89/171
f 171/89/171 169/88/169 165/86/165
f 157/93/157 156/92/156 152/90/152
f 152/90/152 153/91/153 157/93/157
f 123/90/123 122/91/122 126/93/126
f 126/93/126 127/92/127 123/90/123
f 58/36/58 63/43/63 59/37/59
f 63/43/63 58/36/58 62/42/62
f 159/92/159 154/91/154 158/93/158
f 154/91/154 159/92/159 155/90/155
f 154/86/154 152/87/152 156/89/156
f 156/89/156 158/88/158 154/86/154
f 43/37/43 39/29/39 78/60/78
f 78/60/78 47/43/47 43/37/43
f 78/60/78 38/30/38 77/59/77
f 87/72/87 89/76/89 93/80/93
f 110/61/110 108/82/108 111/77/111
f 83/68/83 110/84/110 85/70/85
f 79/62/79 42/36/42 46/42/46
f 95/36/95 100/43/100 96/37/96
f 89/75/89 87/72/87 88/74/88
f 83/68/83 85/70/85 82/64/82
f 111/85/111 92/79/92 81/65/81
f 85/69/85 110/61/110 111/77/111
f 111/85/111 91/66/91 85/83/85
f 87/72/87 93/80/93 90/73/90
f 100/43/100 95/36/95 99/42/99
f 108/81/108 84/67/84 109/70/109
f 84/61/84 92/63/92 109/82/109
f 111/85/111 109/83/109 92/79/92
f 111/84/111 108/81/108 109/70/109
f 86/71/86 91/66/91 111/85/111
f 135/89/135 133/88/133 129/86/129
f 129/86/129 131/87/131 135/89/135
f 141/93/141 140/92/140 136/90/136
f 136/90/136 137/91/137 141/93/141
f 139/90/139 138/91/138 142/93/142
f 142/93/142 143/92/143 139/90/139
f 138/86/138 136/87/136 140/89/140
f 140/89/140 142/88/142 138/86/138
f 143/89/143 141/88/141 137/86/137
f 137/86/137 139/87/139 143/89/143
f 132/89/132 134/88/134 130/86/130
f 130/86/130 128/87/128 132/89/132
f 134/93/134 135/92/135 131/90/131
f 131/90/131 130/91/130 134/93/134
f 128/90/128 129/91/129 133/93/133
f 133/93/133 132/92/132 128/90/128
f 124/89/124 126/88/126 122/86/122
f 122/86/122 120/87/120 124/89/124
g fff0a81b_00450_009f5d14_e15
f 29/31/29 34/34/34 30/25/30
f 34/34/34 29/31/29 33/33/33
f 31/15/31 36/35/36 32/32/32
f 36/35/36 31/15/31 35/38/35
f 37/31/37 42/34/42 38/25/38
f 42/34/42 37/31/37 41/33/41
f 39/15/39 44/35/44 40/32/40
f 44/35/44 39/15/39 43/38/43
f 41/33/41 46/41/46 42/34/42
f 46/41/46 41/33/41 45/40/45
f 43/38/43 48/39/48 44/35/44
f 48/39/48 43/38/43 47/44/47
f 49/33/49 54/41/54 50/34/50
f 54/41/54 49/33/49 53/40/53
f 51/38/51 56/39/56 52/35/52
f 56/39/56 51/38/51 55/44/55
f 103/38/103 107/39/107 104/35/104
f 106/41/106 102/33/102 105/40/105
f 102/33/102 106/41/106 103/34/103
f 101/39/101 96/38/96 100/44/100
f 57/33/57 62/41/62 58/34/58
f 62/41/62 57/33/57 61/40/61
f 59/38/59 64/39/64 60/35/60
f 64/39/64 59/38/59 63/44/63
f 96/38/96 101/39/101 97/35/97
f 99/41/99 94/33/94 98/40/98
f 94/33/94 99/41/99 95/34/95
f 93/80/93 91/78/91 86/71/86
f 77/59/77 79/62/79 82/64/82
f 78/60/78 92/79/92 80/61/80
f 83/68/83 82/64/82 79/62/79
f 107/39/107 103/38/103 106/44/106
f 92/79/92 78/60/78 81/65/81
f 77/63/77 82/64/82 88/74/88
f 88/74/88 87/72/87 77/63/77
f 91/78/91 89/76/89 85/66/85
f 89/76/89 91/78/91 93/80/93
f 93/80/93 86/71/86 90/73/90
f 92/79/92 84/66/84 80/61/80
g fff0a81b_00450_009f5d14_e18
f 68/48/68 67/47/67 65/45/65
f 65/45/65 66/46/66 68/48/68
f 72/48/72 71/47/71 69/45/69
f 69/45/69 70/46/70 72/48/72
f 115/48/115 114/47/114 112/45/112
f 112/45/112 113/46/113 115/48/115
f 119/48/119 118/47/118 116/45/116
f 116/45/116 117/46/117 119/48/119
f 160/94/160 163/95/163 162/96/162
f 163/95/163 160/94/160 161/97/161
f 172/94/172 175/95/175 174/96/174
f 175/95/175 172/94/172 173/97/173
g fff0a81b_00450_009f5d14_e20
f 32/32/32 13/26/13 31/15/31
f 9/25/9 17/22/17 30/30/30
f 7/1/7 2/1/2 6/1/6
f 7/1/7 5/1/5 2/1/2
f 76/54/76 75/52/75 29/31/29
f 29/31/29 30/25/30 76/54/76
f 7/1/7 4/1/4 5/1/5
f 19/14/19 11/8/11 8/12/8
f 32/7/32 14/11/14 13/10/13
f 27/1/27 28/1/28 16/1/16
f 13/10/13 1/5/1 31/9/31
f 9/14/9 31/9/31 1/5/1
f 171/1/171 168/1/168 169/1/169
f 10/6/10 32/12/32 8/3/8
f 26/1/26 27/1/27 16/1/16
f 168/1/168 171/1/171 170/1/170
f 156/1/156 159/1/159 158/1/158
f 19/14/19 12/13/12 11/8/11
f 8/7/8 29/12/29 23/3/23
f 23/3/23 22/6/22 8/7/8
f 15/1/15 28/1/28 25/1/25
f 24/13/24 74/50/74 20/4/20
f 12/7/12 18/10/18 9/9/9
f 15/1/15 16/1/16 28/1/28
f 12/7/12 19/11/19 18/10/18
f 19/11/19 8/7/8 22/6/22
f 18/10/18 17/5/17 9/9/9
f 3/1/3 6/1/6 2/1/2
f 17/5/17 20/4/20 30/14/30
f 31/29/31 9/25/9 30/30/30
f 29/31/29 73/51/73 23/28/23
f 8/21/8 32/32/32 29/24/29
f 159/1/159 156/1/156 157/1/157
f 32/32/32 10/27/10 14/26/14
f 24/13/24 21/8/21 73/49/73
f 73/49/73 74/50/74 24/13/24
f 73/51/73 29/31/29 75/52/75
f 23/28/23 73/51/73 21/23/21
f 30/14/30 20/4/20 74/50/74
f 74/50/74 76/53/76 30/14/30
f 82/64/82 85/69/85 89/75/89
f 89/75/89 88/74/88 82/64/82
f 95/1/95 96/1/96 94/1/94
f 97/1/97 94/1/94 96/1/96
f 104/1/104 102/1/102 103/1/103
f 132/1/132 135/1/135 134/1/134
f 135/1/135 132/1/132 133/1/133
f 140/1/140 141/1/141 142/1/142
f 143/1/143 142/1/142 141/1/141
f 148/1/148 151/1/151 150/1/150
f 151/1/151 148/1/148 149/1/149
g fff0a81b_00450_009f5d14_e21
f 75/55/75 76/56/76 73/57/73
f 76/56/76 74/58/74 73/57/73
