# fff00122_00005_00037c1c
o fff00122_00005_00037c1c
v 0.202978 -0.882446 -0.470648
v 0.143058 -0.010923 -0.522336
v 0.000433 -0.000975 -0.000581
v 0.069809 -0.873155 0.016531
v 0.137838 0.009102 0.522576
v 0.210964 -1.386661 0.027623
v 0.546756 -1.386661 0.691519
v 0.419367 0.014656 0.821811
v 0.460763 -0.858565 0.785189
v 0.322592 -1.386661 0.444814
v 0.322895 -1.386661 -0.390672
v 0.054684 0.003004 0.262102
v 0.119508 -0.869511 0.261878
v 0.251961 -1.386661 0.237048
v 0.466622 -1.386661 0.622581
v 0.320288 0.012701 0.736675
v 0.198110 -0.863748 0.505017
v 0.368026 -0.860395 0.706459
v 0.125227 -0.072551 0.473590
v 0.070103 -0.791600 0.061162
v 0.013243 -0.080764 0.047215
v 0.174672 -0.783931 0.459284
v 0.055305 -0.077679 0.263493
v 0.108436 -0.788789 0.263232
vt -0.013083 0.498712
vt 0.991531 0.496950
vt 0.371354 0.877812
vt 0.371354 0.774330
vt 0.371354 0.750635
vt 0.729278 0.834405
vt 0.371354 0.834405
vt 0.729278 0.877812
vt 0.729278 0.774330
vt 0.729278 0.750635
vt 0.729278 0.651387
vt 0.369197 0.651387
vt 0.901261 0.749838
vt 0.369197 0.917616
vt 0.729278 0.919773
vt 0.900549 0.651387
vt 0.903784 0.774330
vt 0.906697 0.917616
vt 0.903784 0.834405
vt 0.903784 0.877812
vt -0.013054 1.000002
vt 0.991560 1.000002
vt 0.991560 0.000002
vt -0.013054 0.000002
vn -0.951456 -0.169596 -0.256844
vn -0.961786 -0.081630 -0.261350
vn -0.996378 -0.079391 -0.030454
vn -0.984933 -0.170258 -0.030337
vn -0.871414 -0.069311 0.485628
vn -0.963595 -0.265549 -0.031118
vn -0.632711 -0.235819 0.737609
vn -0.649733 -0.062573 0.757582
vn -0.638574 -0.148053 0.755184
vn -0.846708 -0.253825 0.467609
vn -0.932345 -0.261529 -0.249670
vn -0.964379 -0.072155 0.254495
vn -0.953469 -0.162872 0.253712
vn -0.934232 -0.253079 0.251319
vn -0.693231 -0.242024 0.678863
vn -0.706326 -0.063399 0.705042
vn -0.862507 -0.159280 0.480325
vn -0.698813 -0.150433 0.699307
vn -0.945834 -0.072107 0.316542
vn -0.979544 -0.074687 0.186859
vn -0.978919 -0.073468 0.190579
vn -0.944747 -0.070956 0.320030
vn -0.964233 -0.072680 0.254898
vn -0.964232 -0.072717 0.254891
g fff00122_00005_00037c1c_e3
f 21/24/21 24/2/24 23/1/23
f 24/2/24 21/24/21 20/23/20
f 23/1/23 22/22/22 19/21/19
f 22/22/22 23/1/23 24/2/24
g fff00122_00005_00037c1c_e0
f 18/8/18 5/7/5 17/6/17
f 18/8/18 16/3/16 5/7/5
f 17/6/17 15/20/15 18/8/18
f 4/10/4 14/17/14 13/9/13
f 13/9/13 3/5/3 4/10/4
f 3/5/3 13/9/13 12/4/12
f 2/12/2 4/10/4 3/5/3
f 4/10/4 2/12/2 1/11/1
f 1/11/1 11/16/11 4/10/4
f 12/4/12 17/6/17 5/7/5
f 17/6/17 12/4/12 13/9/13
f 13/9/13 10/19/10 17/6/17
f 9/15/9 8/14/8 16/3/16
f 9/15/9 16/3/16 18/8/18
f 18/8/18 7/18/7 9/15/9
f 11/16/11 6/13/6 4/10/4
f 4/10/4 6/13/6 14/17/14
f 13/9/13 14/17/14 10/19/10
f 17/6/17 10/19/10 15/20/15
f 18/8/18 15/20/15 7/18/7
