# fff034dd_00004_0006cda6
o fff034dd_00004_0006cda6
v 6.958601 0.726698 -1.120670
v 6.846655 -0.567190 -1.120670
v 10.558748 0.414557 -1.120670
v 10.446805 -0.879392 -1.120670
v 6.958601 0.726698 -0.178616
v 6.846655 -0.567190 -0.178616
v 10.558748 0.414557 -0.178616
v 10.446805 -0.879392 -0.178616
vt -13.930857 -1.711150
vt -5.130965 -1.711150
vt -13.930856 0.539219
vt -5.130965 0.539219
vt -24.959564 7.164534
vt -22.585672 7.164534
vt -24.959583 11.624452
vt -22.585672 11.624452
vn 0.086378 0.996262 0.000000
vn -0.086395 -0.996261 0.000000
vn 0.086378 0.996262 0.000000
vn -0.086395 -0.996261 0.000000
vn 0.061082 0.704505 0.707066
vn -0.061086 -0.704418 0.707151
vn 0.061075 0.704422 0.707149
vn -0.061094 -0.704509 0.707061
g fff034dd_00004_0006cda6_e0
f 3/1/3 1/2/1 5/4/5
f 5/4/5 7/3/7 3/1/3
f 5/5/5 6/6/6 8/8/8
f 8/8/8 7/7/7 5/5/5
f 8/4/8 6/3/6 2/1/2
f 2/1/2 4/2/4 8/4/8
