# fff089d2_00090_0025545e
o fff089d2_00090_0025545e
v -0.284558 0.709224 -0.035563
v 5.299289 -1.202127 -0.040668
v -5.157992 -0.924874 -0.071573
v -3.477968 -3.289331 -0.035563
v 5.148353 0.476686 -0.040668
v -1.944897 -0.493093 -0.035563
v 1.341415 -0.363174 -0.035563
v 0.016333 -1.237942 -0.031540
v -0.060837 2.417665 -0.035563
v -2.232115 1.650570 -0.035564
v 0.906395 2.025808 -0.035563
v -2.004569 5.976034 -0.083746
v -6.121614 3.902477 -0.064659
v -5.180697 1.038260 -0.071575
v 5.487042 1.840939 -0.040668
v 2.980225 -4.467773 0.020487
v 6.038466 -2.991481 -0.001136
v 1.388875 6.094752 -0.035563
v 3.499879 4.727397 -0.035563
v 0.901757 -5.087554 -0.335358
v -5.898001 -1.422956 0.015122
v -1.578888 -4.751483 -0.074822
v -4.092057 -3.737055 -0.010497
v 1.054067 -4.008195 -0.031540
v -4.225718 -0.332206 -0.035563
v -2.308664 -1.966233 -0.035563
v -1.092706 -3.151176 -0.033673
v -2.069305 -4.373914 -0.064684
v -1.539091 -3.177031 -0.034026
v -2.512411 -2.337857 -0.035563
v -4.295297 -0.755154 -0.035563
v -5.084706 -1.508540 -0.035563
v -3.450080 -1.674701 -0.035563
v -3.720242 -1.934931 -0.035563
v 5.022699 -2.134026 -0.010538
v 5.727895 -1.437168 0.016107
v 2.460083 -3.770782 0.017246
v 3.308105 -4.269043 0.020487
v 2.970119 -3.824212 0.018266
v -1.226635 -3.495321 -0.045008
v -1.640919 -3.406895 -0.039914
v -1.930986 -4.061677 -0.056687
v -1.430073 -4.261614 -0.062226
v -1.388405 -4.124463 -0.058699
v -1.674539 -3.482786 -0.041858
v -1.254416 -3.640349 -0.047359
v 0.919856 -3.325241 -0.031540
v 0.945233 -3.532775 -0.031540
v 1.079411 -4.206063 -0.099323
v 2.373657 -2.877363 -0.031540
v 2.443726 -3.043118 -0.031540
v 2.733521 -3.449620 -0.031540
v 4.511587 -1.949111 -0.013697
v -1.071566 -4.620871 -0.078280
v -0.708644 -4.696799 -0.155165
v -0.494616 -4.174871 -0.047862
v -0.751608 -4.194795 -0.052516
v -0.769674 -4.605968 -0.122802
v -0.951684 -4.555185 -0.081080
v 1.482903 1.174529 -0.035563
v -0.929596 1.021001 -0.035563
v 0.168787 0.071722 -0.035563
v 0.072731 1.958690 -0.035563
v 0.657617 1.799060 -0.035563
v 0.967292 1.204677 -0.035563
v 7.725380 -2.985464 -0.373021
v 8.096474 -4.881338 -0.565293
v 6.285683 -5.220119 -0.307694
v -4.976921 -5.082371 -0.401360
v -4.092041 -3.737061 -0.010498
v 5.908457 -1.530539 0.031841
v 7.080326 -1.610369 -0.290604
v -4.023487 -4.302950 -0.132918
v -4.039671 -4.058949 -0.104018
vt 0.529759 -1.026777
vt 0.288512 -1.354933
vt 0.169686 -1.468807
vt 0.097583 -1.540784
vt -0.626161 0.296015
vt 0.176114 -1.624484
vt 0.106027 -1.699643
vt 0.660185 -1.070055
vt -3.036521 0.512739
vt -2.887501 0.117995
vt 0.669393 -1.099069
vt 0.540802 -1.228575
vt 0.564251 -0.995856
vt -2.440213 1.001446
vt -0.782191 0.086374
vt 0.579829 -1.189977
vt 0.108098 -1.518875
vt 0.661694 -0.915499
vt 0.095877 -1.712070
vt 0.137620 -1.485699
vt -0.238293 -1.819292
vt 0.701872 -1.095484
vt 0.686415 -0.893669
vt -1.389489 1.008704
vt -0.206662 -1.793648
vt 0.050723 -1.758948
vt -0.080161 1.007135
vt -0.081623 0.085225
vt 0.712705 -0.872475
vt 0.665109 -1.028566
vt 0.327571 -1.462067
vt -0.911088 -2.381660
vt 0.857397 -0.909731
vt 0.605300 -0.959057
vt 0.245101 -1.556041
vt -1.338182 -0.000474
vt -0.033347 -1.633863
vt -2.177402 0.896499
vt 0.748584 -0.998536
vt 0.061037 -1.747889
vt 0.462254 -1.264655
vt 0.383325 -1.316469
vt 0.560473 -1.164563
vt -1.051755 0.770231
vt 0.808848 -0.958624
vt 0.580856 -1.152306
vt 0.465843 -1.250503
vt 0.475352 -1.259181
vt 0.560951 -1.208283
vt 0.483094 -1.245000
vt 0.487226 -1.249786
vt -3.741777 0.147822
vt 0.464996 -1.235245
vt -2.751185 0.487084
vt -3.269691 0.445476
vt -2.957854 0.470499
vt 0.642264 -1.094367
vt 0.624643 -1.115109
vt 0.749371 -1.009151
vt 0.766505 -0.987739
vt 0.741058 -1.009578
vt 0.715989 -1.037509
vt 0.639099 -1.102829
vt 0.659230 -1.079806
vt -1.899770 0.789027
vt 0.644557 -1.082760
vt 0.664130 -1.066848
vt -1.952266 0.809348
vt -0.508789 0.250581
vt -2.229830 0.916793
vt -2.358673 0.451791
vt -2.450207 0.460022
vt -2.619228 0.475219
vt -3.519757 0.191382
vt -3.207783 0.197777
vt 0.818204 -0.942258
vt -1.521100 0.980005
vt 0.743857 -1.005200
vt 0.742655 -1.007080
vt 0.763994 -0.986241
vt 0.799837 -0.957512
vt 0.127100 -1.497521
vt 0.069040 -1.739306
vt 0.073254 -1.541480
vt -0.357263 0.126307
vt 0.000641 -1.607460
vt 0.088334 -1.719901
vt 0.670216 -0.908311
vt 0.690943 -0.890018
vt 0.108175 -1.511216
vt 0.096818 -1.523253
vt 0.861564 -0.892863
vt -4.861694 0.140360
vt -4.655020 1.012616
vt 3.750028 1.008307
vt 4.196524 0.075484
vt 4.971715 -0.023486
vt 4.816298 1.001502
vt 0.879917 -0.845192
vt -2.424581 0.927488
vt 0.649512 -1.123180
vt -3.036521 0.512739
vt 0.724689 -1.053230
vt 0.684083 -1.097448
vt 0.387443 -1.300879
vt 0.369642 -1.282947
vt -3.281415 0.442094
vt 0.760879 -1.014140
vt 0.745122 -1.031161
vn 0.000040 0.000520 1.000000
vn -0.034176 0.055681 0.997864
vn -0.015659 0.041098 0.999032
vn 0.014887 0.006302 0.999869
vn 0.001376 -0.000157 0.999999
vn -0.000564 0.000279 1.000000
vn 0.001159 0.001162 0.999999
vn -0.000506 0.000862 1.000000
vn -0.002906 0.003338 0.999990
vn -0.003620 0.004815 0.999982
vn 0.000315 -0.000023 1.000000
vn -0.007080 0.008973 0.999935
vn -0.005221 0.003902 0.999979
vn -0.017217 0.002238 0.999849
vn 0.001237 -0.000492 0.999999
vn -0.013866 -0.230092 0.973070
vn 0.110691 -0.046353 0.992773
vn -0.006598 0.002601 0.999975
vn 0.000534 -0.000513 1.000000
vn -0.010107 -0.296351 0.955026
vn 0.067809 0.054401 0.996214
vn 0.000889 -0.359410 0.933179
vn 0.030991 0.020546 0.999308
vn 0.008399 -0.161862 0.986778
vn -0.018527 0.004293 0.999819
vn -0.000632 0.000231 1.000000
vn -0.001012 -0.014839 0.999889
vn 0.015862 -0.006243 0.999855
vn -0.000075 -0.012585 0.999921
vn -0.000525 0.000391 1.000000
vn -0.017976 0.007153 0.999813
vn 0.030439 0.037920 0.998817
vn 0.000000 0.000000 1.000000
vn 0.000000 0.000000 1.000000
vn -0.011977 -0.005588 0.999913
vn -0.058230 0.014818 0.998193
vn -0.045791 0.081096 0.995654
vn 0.035134 -0.054594 0.997890
vn -0.011622 0.045278 0.998907
vn 0.000426 -0.024108 0.999709
vn 0.002699 -0.027528 0.999617
vn 0.000953 -0.025777 0.999667
vn -0.000689 -0.029816 0.999555
vn -0.005648 -0.022914 0.999722
vn 0.002647 -0.026197 0.999653
vn -0.002733 -0.018923 0.999817
vn -0.001958 -0.001046 0.999998
vn -0.003461 -0.000783 0.999994
vn -0.010327 -0.267089 0.963617
vn -0.002004 0.001494 0.999997
vn -0.003171 -0.001722 0.999994
vn -0.020513 0.067786 0.997489
vn -0.028180 0.039239 0.998832
vn 0.071822 -0.226203 0.971429
vn 0.095196 -0.168384 0.981114
vn 0.013910 -0.107978 0.994056
vn -0.010918 -0.046279 0.998869
vn 0.144971 -0.248917 0.957614
vn 0.118838 -0.188645 0.974828
vn 0.000741 0.000213 1.000000
vn -0.000000 0.000000 1.000000
vn 0.001654 0.001635 0.999997
vn 0.000000 -0.000000 1.000000
vn -0.000000 0.000000 1.000000
vn -0.000000 -0.000000 1.000000
vn 0.224127 -0.024277 0.974258
vn 0.183481 -0.092347 0.978676
vn 0.110107 -0.147921 0.982851
vn -0.058891 -0.326264 0.943443
vn -0.093405 -0.291763 0.951919
vn 0.033564 -0.008189 0.999403
vn 0.269013 0.068614 0.960690
vn -0.058531 -0.192118 0.979625
vn -0.075402 -0.226991 0.970973
g fff089d2_00090_0025545e_e33
f 4/28/4 23/27/23 28/44/28
f 49/69/49 56/24/56 55/77/55
f 19/34/19 18/13/18 11/23/11
f 3/12/3 21/16/21 32/49/32
f 17/36/17 71/10/71 36/52/36
f 2/8/2 53/33/53 36/53/36
f 19/30/19 11/20/11 15/32/15
f 3/26/3 25/40/25 14/6/14
f 63/87/63 61/83/61 1/26/1
f 64/89/64 63/88/63 1/29/1
f 50/71/50 2/10/2 8/5/8
f 60/82/60 7/17/7 15/32/15
f 1/37/1 6/4/6 8/3/8
f 61/84/61 6/4/6 1/37/1
f 32/49/32 21/16/21 23/22/23
f 22/33/22 20/39/20 55/76/55
f 62/85/62 1/28/1 8/5/8
f 10/7/10 13/31/13 14/6/14
f 12/35/12 13/31/13 10/7/10
f 25/41/25 3/12/3 31/48/31
f 4/11/4 34/51/34 32/49/32
f 50/71/50 8/5/8 47/65/47
f 8/3/8 6/4/6 47/66/47
f 7/17/7 5/25/5 15/32/15
f 2/10/2 7/15/7 8/5/8
f 11/23/11 18/13/18 9/18/9
f 65/91/65 1/37/1 62/86/62
f 12/35/12 10/7/10 9/19/9
f 18/13/18 12/1/12 9/18/9
f 22/104/22 74/109/74 73/108/73
f 7/17/7 2/8/2 5/25/5
f 16/9/16 49/70/49 20/14/20
f 28/45/28 42/59/42 4/11/4
f 25/40/25 10/7/10 14/6/14
f 10/2/10 25/41/25 6/4/6
f 6/4/6 25/41/25 33/50/33
f 40/57/40 47/66/47 27/43/27
f 29/46/29 30/47/30 4/11/4
f 27/43/27 6/4/6 26/42/26
f 28/44/28 23/27/23 22/24/22
f 22/33/22 43/60/43 42/59/42
f 28/45/28 22/33/22 42/59/42
f 27/43/27 26/42/26 29/46/29
f 26/42/26 34/51/34 30/47/30
f 29/46/29 26/42/26 30/47/30
f 31/48/31 3/12/3 32/49/32
f 25/41/25 31/48/31 33/50/33
f 32/49/32 23/22/23 4/11/4
f 30/47/30 34/51/34 4/11/4
f 6/4/6 33/50/33 26/42/26
f 33/50/33 31/48/31 34/51/34
f 34/51/34 31/48/31 32/49/32
f 26/42/26 33/50/33 34/51/34
f 39/56/39 35/74/35 52/73/52
f 35/74/35 36/10/36 53/75/53
f 36/53/36 35/33/35 17/21/17
f 16/9/16 39/56/39 37/54/37
f 49/70/49 37/54/37 24/38/24
f 17/36/17 35/52/35 38/55/38
f 38/55/38 35/52/35 39/56/39
f 16/9/16 38/55/38 39/56/39
f 40/57/40 46/64/46 48/67/48
f 40/57/40 27/43/27 41/58/41
f 41/58/41 29/46/29 4/11/4
f 41/58/41 27/43/27 29/46/29
f 45/63/45 41/58/41 4/11/4
f 45/63/45 40/57/40 41/58/41
f 46/64/46 24/39/24 48/67/48
f 46/64/46 40/57/40 45/63/45
f 57/79/57 54/76/54 59/81/59
f 43/60/43 44/61/44 42/59/42
f 51/72/51 53/75/53 50/71/50
f 42/59/42 46/64/46 45/63/45
f 42/62/42 45/63/45 4/11/4
f 35/74/35 53/75/53 51/72/51
f 56/78/56 24/39/24 46/64/46
f 44/61/44 46/64/46 42/59/42
f 37/54/37 52/73/52 24/38/24
f 47/66/47 6/4/6 27/43/27
f 40/57/40 48/67/48 47/66/47
f 24/38/24 52/73/52 48/68/48
f 24/28/24 56/24/56 49/69/49
f 16/9/16 37/54/37 49/70/49
f 37/54/37 39/56/39 52/73/52
f 48/68/48 50/71/50 47/65/47
f 51/72/51 50/71/50 48/68/48
f 53/75/53 2/10/2 50/71/50
f 52/73/52 51/72/51 48/68/48
f 52/73/52 35/74/35 51/72/51
f 54/76/54 55/39/55 58/80/58
f 22/33/22 54/76/54 43/60/43
f 55/77/55 54/24/54 22/14/22
f 49/69/49 55/77/55 20/14/20
f 43/60/43 57/79/57 44/61/44
f 44/61/44 57/79/57 46/64/46
f 43/60/43 54/76/54 57/79/57
f 57/79/57 56/78/56 46/64/46
f 58/80/58 55/39/55 56/78/56
f 54/76/54 58/80/58 59/81/59
f 59/81/59 58/80/58 56/78/56
f 57/79/57 59/81/59 56/78/56
f 11/20/11 60/82/60 15/32/15
f 64/90/64 1/37/1 65/91/65
f 9/19/9 10/7/10 61/83/61
f 10/2/10 6/4/6 61/84/61
f 7/15/7 62/85/62 8/5/8
f 60/82/60 62/86/62 7/17/7
f 9/19/9 61/83/61 63/87/63
f 11/23/11 9/18/9 63/88/63
f 11/23/11 63/88/63 64/89/64
f 11/20/11 64/90/64 60/82/60
f 60/82/60 65/91/65 62/86/62
f 64/90/64 65/91/65 60/82/60
f 71/105/71 66/99/66 72/106/72
f 22/104/22 73/108/73 69/92/69
f 17/93/17 38/107/38 68/94/68
f 17/92/17 66/99/66 71/105/71
f 67/95/67 66/96/66 17/97/17
f 67/95/67 17/97/17 68/98/68
f 20/101/20 22/104/22 69/92/69
f 16/102/16 20/100/20 68/94/68
f 38/107/38 16/102/16 68/94/68
f 22/104/22 70/103/70 74/109/74
