# fff0af14_00070_001e580a
o fff0af14_00070_001e580a
v -0.636459 0.027576 -1.020871
v -0.636459 0.027576 0.892266
v -0.106521 0.034123 -0.171934
v -0.106734 0.034123 -0.026691
v -0.104892 -0.037129 -0.162205
v -0.104892 -0.047080 -0.358629
v -0.135755 0.034123 -0.026691
v -0.105105 -0.085719 -0.358629
v -0.134126 -0.066630 -0.036421
v -0.134126 -0.085719 -0.358630
v -0.105105 -0.066630 -0.036420
v -0.084338 0.025989 0.007722
v -0.161949 0.025989 -0.205022
v -0.084338 0.025989 -0.205022
v -0.161949 0.025989 0.007722
v -0.000000 0.084739 1.066909
v -0.967026 0.083758 1.066909
v -0.767658 0.023150 0.694249
v -0.767658 0.023150 0.481506
v -0.225098 0.023150 0.481506
v -0.225098 0.023150 0.694249
v -0.000000 0.028556 -1.066909
v -0.000000 0.028556 1.066909
v -0.967026 0.027576 1.066909
v -0.967026 0.027576 -1.066909
v -0.106702 0.024737 -0.027014
v -0.106702 0.024737 -0.168078
v -0.029091 0.024737 -0.416938
v -0.033066 0.024737 -0.398389
v -0.059353 0.024737 -0.386726
v -0.053350 0.024737 -0.208926
v -0.029091 0.024737 -0.075200
v -0.059353 0.024737 -0.214282
v -0.033805 0.024737 -0.080842
v -0.054825 0.024737 -0.378320
v -0.033604 0.027575 0.893463
v -0.034984 0.027575 -1.021600
v -0.037425 0.027575 -1.066909
v -0.032413 0.027575 1.066909
v -0.967026 0.027576 -0.459919
v -0.636459 0.027576 -0.459919
v -0.034605 0.027575 -0.459919
v -0.000000 0.028556 -0.459919
v -0.052347 0.025989 -0.475237
v -0.094448 0.025989 -0.514069
v -0.052347 0.025989 -0.514069
v -0.094448 0.025989 -0.475237
v -0.880739 0.025989 -0.475237
v -0.922840 0.025989 -0.514069
v -0.880739 0.025989 -0.514069
v -0.922840 0.025989 -0.475237
v -0.052347 0.025989 -0.962966
v -0.094448 0.025989 -1.001798
v -0.052347 0.025989 -1.001798
v -0.094448 0.025989 -0.962966
v -0.880739 0.025989 -0.962966
v -0.922840 0.025989 -1.001798
v -0.880739 0.025989 -1.001798
v -0.922840 0.025989 -0.962966
v -0.968583 0.027545 -0.977965
v -0.932339 0.027288 -0.978495
v -0.968583 0.027545 -0.786897
v -0.932339 0.027288 -0.786897
v -0.949751 0.004347 -0.786897
v -0.949751 0.003833 -0.978221
v -0.968583 0.027545 0.768788
v -0.932339 0.027288 0.768257
v -0.968583 0.027545 0.959856
v -0.932339 0.027288 0.959856
v -0.949751 0.004347 0.959856
v -0.949751 0.003833 0.768532
v -0.968583 0.027545 -0.031147
v -0.932339 0.027288 -0.031678
v -0.968583 0.027545 0.159921
v -0.932339 0.027288 0.159921
v -0.949751 0.004347 0.159921
v -0.949751 0.003833 -0.031403
v -0.898386 0.025226 0.125231
v -0.932300 0.025226 -0.031276
v -0.898386 0.025226 -0.066001
v -0.932300 0.025226 0.159956
v -0.903711 0.025226 0.122272
v -0.905787 0.025226 -0.044318
v -0.898386 0.025226 0.924860
v -0.932300 0.025226 0.768354
v -0.898386 0.025226 0.733628
v -0.932300 0.025226 0.959585
v -0.903711 0.025226 0.921902
v -0.905787 0.025226 0.755312
v -0.898386 0.025226 -0.821558
v -0.932300 0.025226 -0.978065
v -0.898386 0.025226 -1.012790
v -0.932300 0.025226 -0.786833
v -0.903711 0.025226 -0.824517
v -0.905787 0.025226 -0.991107
v -0.000000 0.028556 -1.020165
v -0.000000 0.028556 0.895169
v 0.939682 0.029536 -1.020871
v 0.939682 0.029536 0.892266
v 0.106734 0.036084 -0.026691
v 0.135755 0.036084 -0.171935
v 0.135755 0.036084 -0.026691
v 0.134126 -0.035167 -0.162205
v 0.134126 -0.045119 -0.358630
v 0.105105 -0.083758 -0.358629
v 0.134126 -0.064670 -0.036421
v 0.134126 -0.083758 -0.358630
v 0.105105 -0.064670 -0.036420
v 0.084338 0.027949 0.007722
v 0.161949 0.027949 -0.205022
v 0.084338 0.027949 -0.205022
v 0.161949 0.027949 0.007722
v 0.967026 0.085719 -1.066909
v 0.967026 0.085719 1.066909
v 0.767658 0.025111 0.694249
v 0.767658 0.025111 0.481506
v 0.225098 0.025111 0.481506
v 0.225098 0.025111 0.694249
v 0.967026 0.029536 1.066909
v 0.967026 0.029536 -1.066909
v 0.134689 0.027135 -0.027014
v 0.134689 0.027135 -0.168077
v 0.212303 0.027135 -0.416938
v 0.208328 0.027135 -0.398389
v 0.182037 0.027135 -0.386726
v 0.188042 0.027135 -0.208926
v 0.212303 0.027135 -0.075200
v 0.182037 0.027135 -0.214282
v 0.207588 0.027135 -0.080842
v 0.186569 0.027135 -0.378320
v 0.033604 0.029536 0.893463
v 0.034984 0.029536 -1.021600
v 0.037426 0.029536 -1.066909
v 0.032413 0.029536 1.066909
v 0.967026 0.085719 -0.459919
v 0.967026 0.029536 -0.459919
v 0.939682 0.029536 -0.459919
v 0.034605 0.029536 -0.459919
v 0.052347 0.027949 -0.475237
v 0.094448 0.027949 -0.514069
v 0.052347 0.027949 -0.514069
v 0.094448 0.027949 -0.475237
v 0.880739 0.027949 -0.475237
v 0.922840 0.027949 -0.514069
v 0.880739 0.027949 -0.514069
v 0.922840 0.027949 -0.475237
v 0.052347 0.027949 -0.962966
v 0.094448 0.027949 -1.001798
v 0.052347 0.027949 -1.001798
v 0.094448 0.027949 -0.962966
v 0.880739 0.027949 -0.962966
v 0.922840 0.027949 -1.001798
v 0.880739 0.027949 -1.001798
v 0.922840 0.027949 -0.962966
v 0.968583 0.029506 -0.977965
v 0.932339 0.029249 -0.978495
v 0.968583 0.029506 -0.786897
v 0.932339 0.029249 -0.786897
v 0.949751 0.006308 -0.786897
v 0.949751 0.005794 -0.978221
v 0.968583 0.029506 0.768788
v 0.932339 0.029249 0.768257
v 0.968583 0.029506 0.959856
v 0.932339 0.029249 0.959856
v 0.949751 0.006308 0.959856
v 0.949751 0.005794 0.768532
v 0.968583 0.029506 -0.031147
v 0.932339 0.029249 -0.031678
v 0.968583 0.029506 0.159921
v 0.932339 0.029249 0.159921
v 0.949751 0.006308 0.159921
v 0.949751 0.005794 -0.031403
vt 0.759805 2.383724
vt 0.759805 1.503188
vt 1.222359 1.503188
vt 1.222359 2.383724
vt 0.776740 1.521142
vt 0.767580 2.368923
vt 1.199252 2.369861
vt 1.212019 1.522872
vt -0.076227 1.000010
vt -0.010091 0.998590
vt 0.849117 1.398950
vt 0.893514 1.402302
vt 0.849117 1.000000
vt 0.893135 1.000000
vt 0.894144 0.000000
vt 0.849117 0.000000
vt -0.015242 0.000009
vt -0.076227 0.001426
vt -0.076227 0.931976
vt -0.014122 0.930558
vt 0.759805 1.503188
vt 0.783493 1.503188
vt 0.895564 1.503188
vt 0.940165 1.503188
vt 0.904384 1.553969
vt 0.940165 1.503188
vt 0.787901 2.330240
vt 1.222359 2.383724
vt 0.932482 1.503188
vt 0.913174 1.503188
vt 1.214421 2.383724
vt 1.213415 1.503188
vt 1.214382 2.369761
vt 1.222194 2.369945
vt 1.213604 1.521885
vt 1.222359 1.522388
vt 1.196097 1.503188
vt 1.199422 2.383724
vt 0.759805 1.752195
vt 0.774252 1.751416
vt 1.208514 1.755412
vt 1.215963 1.754719
vt 1.222311 1.768413
vt 1.214926 1.764879
vt 1.015969 1.753640
vt 0.986712 1.521977
vt 1.149726 2.344993
vt 1.121420 1.568137
vt 1.222355 1.541502
vt 1.222034 2.356647
vt 1.096813 2.369638
vt 0.991480 2.383724
vt 0.993477 2.383724
vt 1.220295 2.211875
vt 1.214507 2.230787
vt 1.220790 2.231375
vt 1.201338 2.231466
vt 0.993849 2.369415
vt 0.759805 2.383724
vt 0.759805 1.503188
vt 1.222359 1.503188
vt 1.222359 2.383724
vt 0.776740 1.521142
vt 0.767580 2.368923
vt 1.199252 2.369861
vt 1.212019 1.522872
vt -0.076227 1.000010
vt -0.010091 0.998590
vt 0.849117 1.398950
vt 0.893514 1.402302
vt 0.849117 1.000000
vt 0.893135 1.000000
vt 0.894144 0.000000
vt 0.849117 0.000000
vt -0.015242 0.000009
vt -0.076227 0.001426
vt -0.076227 0.931976
vt -0.014122 0.930558
vt 0.759805 1.503188
vt 0.783493 1.503188
vt 0.895564 1.503188
vt 0.940165 1.503188
vt 0.904384 1.553969
vt 0.940165 1.503188
vt 0.787901 2.330240
vt 0.759805 1.503188
vt 0.759805 2.383724
vt 1.222359 2.383724
vt 0.932482 1.503188
vt 0.913174 1.503188
vt 1.214421 2.383724
vt 1.213415 1.503188
vt 1.214382 2.369761
vt 1.222194 2.369945
vt 1.213604 1.521885
vt 1.222359 1.522388
vt 1.196097 1.503188
vt 1.199422 2.383724
vt 0.759805 1.751763
vt 0.759805 1.752195
vt 0.774252 1.751416
vt 1.208514 1.755412
vt 1.215963 1.754719
vt 1.222311 1.768413
vt 1.214926 1.764879
vt 1.015969 1.753640
vt 0.986712 1.521977
vt 1.222356 1.541166
vt 1.222047 2.357756
vt 1.209629 1.681420
vt 1.004725 1.664605
vt 0.775365 1.648357
vt 0.759816 1.503188
vt 1.200523 2.285562
vt 0.771519 2.004372
vt 0.759805 1.973641
vt 0.759805 1.974134
vt 1.220310 2.213125
vt 1.214521 2.215130
vt 1.220571 2.209744
vt 1.201664 2.209863
vn -0.000000 -1.000000 0.000001
vn -0.000000 -1.000000 -0.000000
vn 0.999733 0.023055 0.001470
vn 0.679783 -0.058042 0.731113
vn 0.999988 0.004654 0.001354
vn 0.999985 -0.005558 0.000326
vn -0.000011 -0.096123 0.995370
vn 0.691477 -0.721134 0.042722
vn -0.000014 -0.717072 0.696999
vn -0.000002 -0.998250 0.059140
vn 0.589454 -0.579415 0.562870
vn -0.000000 -1.000000 0.000000
vn -0.000000 -1.000000 0.000000
vn -0.000000 -1.000000 0.000000
vn -0.000000 -1.000000 0.000000
vn 0.000000 0.000000 1.000000
vn 0.000000 0.000000 1.000000
vn -0.000000 -1.000000 0.000000
vn -0.000000 -1.000000 0.000000
vn -0.000000 -1.000000 0.000000
vn -0.000000 -1.000000 0.000000
vn 0.026953 -0.999637 0.000000
vn 0.021287 -0.706786 0.707107
vn 0.000000 -0.707107 0.707107
vn 0.000000 -1.000000 0.000000
vn -0.000000 -1.000000 0.000000
vn -0.000000 -1.000000 0.000000
vn -0.000000 -1.000000 -0.000000
vn -0.000000 -1.000000 -0.000000
vn -0.000000 -1.000000 0.000000
vn -0.000000 -1.000000 0.000000
vn -0.000000 -1.000000 0.000000
vn -0.000000 -1.000000 0.000000
vn -0.000000 -1.000000 0.000000
vn -0.000000 -1.000000 0.000000
vn 0.014583 -0.999894 -0.000006
vn 0.014042 -0.999901 -0.000160
vn 0.012646 -0.999920 -0.000682
vn 0.010789 -0.710432 0.703683
vn 0.000000 -1.000000 0.000000
vn -0.000000 -1.000000 0.000000
vn 0.014161 -0.999900 -0.000010
vn 0.028321 -0.999599 0.000000
vn -0.000000 -1.000000 0.000000
vn -0.000000 -1.000000 0.000000
vn -0.000000 -1.000000 0.000000
vn -0.000000 -1.000000 0.000000
vn -0.000000 -1.000000 0.000000
vn -0.000000 -1.000000 0.000000
vn -0.000000 -1.000000 0.000000
vn -0.000000 -1.000000 0.000000
vn -0.000000 -1.000000 0.000000
vn -0.000000 -1.000000 0.000000
vn -0.000000 -1.000000 0.000000
vn -0.000000 -1.000000 0.000000
vn -0.000000 -1.000000 0.000000
vn -0.000000 -1.000000 0.000000
vn -0.000000 -1.000000 0.000000
vn -0.000000 -1.000000 0.000000
vn -0.783085 -0.621915 0.000000
vn 0.802335 -0.596872 0.001450
vn -0.677143 -0.548506 0.490530
vn 0.685679 -0.520440 0.508908
vn 0.013897 -0.824042 0.566358
vn 0.024205 -0.999706 0.001460
vn -0.783085 -0.621915 0.000000
vn 0.802335 -0.596872 0.001450
vn -0.677143 -0.548506 0.490530
vn 0.685679 -0.520440 0.508908
vn 0.013897 -0.824042 0.566358
vn 0.024205 -0.999706 0.001460
vn -0.783085 -0.621915 0.000000
vn 0.802335 -0.596872 0.001450
vn -0.677143 -0.548506 0.490530
vn 0.685679 -0.520440 0.508908
vn 0.013897 -0.824042 0.566358
vn 0.024205 -0.999706 0.001460
vn -0.000000 -1.000000 0.000000
vn -0.000000 -1.000000 -0.000000
vn -0.000000 -1.000000 -0.000000
vn -0.000000 -1.000000 0.000000
vn -0.000000 -1.000000 0.000000
vn -0.000000 -1.000000 -0.000000
vn -0.000000 -1.000000 0.000000
vn -0.000000 -1.000000 -0.000000
vn -0.000000 -1.000000 -0.000000
vn -0.000000 -1.000000 0.000000
vn -0.000000 -1.000000 0.000000
vn -0.000000 -1.000000 -0.000000
vn -0.000000 -1.000000 0.000000
vn -0.000000 -1.000000 -0.000000
vn -0.000000 -1.000000 -0.000000
vn -0.000000 -1.000000 0.000000
vn -0.000000 -1.000000 0.000000
vn -0.000000 -1.000000 -0.000000
vn 0.028014 -0.999608 0.000000
vn 0.029164 -0.999575 0.000000
vn -0.000000 -1.000000 0.000000
vn -0.000000 -1.000000 -0.000000
vn 0.000013 -0.096122 0.995369
vn 0.999739 -0.022855 0.000000
vn 0.688295 -0.082243 0.720754
vn 0.999966 -0.008178 -0.000552
vn 1.000000 0.000000 0.000000
vn 0.000002 -0.998250 0.059140
vn 0.581941 -0.587743 0.562052
vn 0.693413 -0.719279 0.042613
vn 0.000015 -0.723144 0.690698
vn -0.000000 -1.000000 0.000000
vn -0.000000 -1.000000 0.000000
vn -0.000000 -1.000000 0.000000
vn -0.000000 -1.000000 0.000000
vn 1.000000 0.000000 0.000000
vn 0.707335 0.000000 0.706879
vn -0.000000 -1.000000 0.000000
vn -0.000000 -1.000000 0.000000
vn -0.000000 -1.000000 0.000000
vn -0.000000 -1.000000 0.000000
vn 0.577351 -0.577350 0.577350
vn 0.707107 -0.707107 0.000000
vn -0.000000 -1.000000 0.000000
vn -0.000000 -1.000000 0.000000
vn -0.000000 -1.000000 -0.000000
vn -0.000000 -1.000000 -0.000000
vn -0.000000 -1.000000 0.000000
vn -0.000000 -1.000000 0.000000
vn -0.000000 -1.000000 0.000000
vn -0.000000 -1.000000 0.000000
vn -0.000000 -1.000000 0.000000
vn -0.000000 -1.000000 0.000000
vn 0.014583 -0.999894 0.000006
vn 0.014042 -0.999901 0.000160
vn 0.012646 -0.999920 0.000682
vn 0.010685 -0.703553 0.710562
vn 1.000000 0.000000 0.000000
vn 0.707107 -0.707107 0.000000
vn -0.000000 -1.000000 -0.000000
vn 0.014161 -0.999900 0.000010
vn -0.000000 -1.000000 0.000000
vn -0.000000 -1.000000 0.000000
vn -0.000000 -1.000000 0.000000
vn -0.000000 -1.000000 0.000000
vn -0.000000 -1.000000 0.000000
vn -0.000000 -1.000000 0.000000
vn -0.000000 -1.000000 0.000000
vn -0.000000 -1.000000 0.000000
vn -0.000000 -1.000000 0.000000
vn -0.000000 -1.000000 0.000000
vn -0.000000 -1.000000 0.000000
vn -0.000000 -1.000000 0.000000
vn -0.000000 -1.000000 0.000000
vn -0.000000 -1.000000 0.000000
vn -0.000000 -1.000000 0.000000
vn -0.000000 -1.000000 0.000000
vn 0.783085 -0.621915 0.000000
vn -0.802335 -0.596872 0.001450
vn 0.677143 -0.548506 0.490530
vn -0.685679 -0.520440 0.508908
vn -0.013897 -0.824042 0.566358
vn -0.024205 -0.999706 0.001460
vn 0.783085 -0.621915 0.000000
vn -0.802335 -0.596872 0.001450
vn 0.677143 -0.548506 0.490530
vn -0.685679 -0.520440 0.508908
vn -0.013897 -0.824042 0.566358
vn -0.024205 -0.999706 0.001460
vn 0.783085 -0.621915 0.000000
vn -0.802335 -0.596872 0.001450
vn 0.677143 -0.548506 0.490530
vn -0.685679 -0.520440 0.508908
vn -0.013897 -0.824042 0.566358
vn -0.024205 -0.999706 0.001460
g fff0af14_00070_001e580a_e7
f 30/24/30 28/21/28 35/30/35
f 30/24/30 35/29/35 31/25/31
f 31/25/31 29/23/29 34/27/34
f 35/30/35 28/21/28 29/22/29
f 29/22/29 28/21/28 32/2/32
f 34/27/34 32/1/32 26/4/26
f 32/1/32 34/27/34 29/23/29
f 35/29/35 29/23/29 31/25/31
f 31/25/31 33/26/33 30/24/30
f 27/3/27 33/26/33 31/25/31
f 31/25/31 34/27/34 26/4/26
f 26/4/26 27/3/27 31/25/31
f 81/1/81 83/48/83 82/47/82
f 80/3/80 82/47/82 83/48/83
f 82/47/82 78/4/78 81/1/81
f 80/3/80 78/4/78 82/47/82
f 83/48/83 79/2/79 80/3/80
f 81/1/81 79/2/79 83/48/83
f 87/1/87 89/48/89 88/47/88
f 86/3/86 88/47/88 89/48/89
f 88/47/88 84/4/84 87/1/87
f 86/3/86 84/4/84 88/47/88
f 89/48/89 85/2/85 86/3/86
f 87/1/87 85/2/85 89/48/89
f 93/1/93 95/48/95 94/47/94
f 92/3/92 94/47/94 95/48/95
f 94/47/94 90/4/90 93/1/93
f 92/3/92 90/4/90 94/47/94
f 95/48/95 91/2/91 92/3/92
f 93/1/93 91/2/91 95/48/95
f 125/82/125 123/79/123 130/90/130
f 125/82/125 130/89/130 126/83/126
f 126/83/126 124/81/124 129/85/129
f 130/90/130 123/79/123 124/80/124
f 124/80/124 123/79/123 127/60/127
f 129/85/129 127/59/127 121/62/121
f 127/59/127 129/85/129 124/81/124
f 130/89/130 124/81/124 126/83/126
f 126/83/126 128/84/128 125/82/125
f 122/61/122 128/84/128 126/83/126
f 126/83/126 129/85/129 121/62/121
f 121/62/121 122/61/122 126/83/126
g fff0af14_00070_001e580a_e0
f 24/52/24 39/38/39 16/28/16
f 39/38/39 23/31/23 16/28/16
f 9/19/9 11/20/11 4/10/4
f 4/10/4 7/9/7 9/19/9
f 17/53/17 24/52/24 16/28/16
f 63/1/63 62/1/62 64/1/64
f 69/1/69 68/1/68 70/1/70
f 75/1/75 74/1/74 76/1/76
f 119/59/119 16/88/16 134/98/134
f 134/98/134 16/88/16 23/91/23
f 106/77/106 100/68/100 108/78/108
f 100/68/100 106/77/106 102/67/102
f 16/88/16 119/59/119 114/87/114
f 158/59/158 159/59/159 157/59/157
f 164/59/164 165/59/165 163/59/163
f 170/59/170 171/59/171 169/59/169
g fff0af14_00070_001e580a_e1
f 41/40/41 42/41/42 2/6/2
f 24/1/24 40/39/40 2/6/2
f 36/7/36 39/38/39 24/52/24
f 40/39/40 41/40/41 2/6/2
f 24/52/24 2/58/2 36/51/36
f 42/41/42 36/57/36 2/58/2
f 137/115/137 131/121/131 138/102/138
f 119/59/119 99/64/99 136/116/136
f 131/65/131 119/59/119 134/98/134
f 136/116/136 99/64/99 137/115/137
f 137/115/137 99/64/99 131/114/131
f 131/65/131 99/64/99 119/59/119
g fff0af14_00070_001e580a_e4
f 42/41/42 41/40/41 37/8/37
f 40/39/40 25/2/25 41/40/41
f 41/40/41 1/5/1 37/8/37
f 1/5/1 25/2/25 37/8/37
f 4/12/4 5/13/5 3/11/3
f 5/13/5 4/12/4 11/14/11
f 11/14/11 6/16/6 5/13/5
f 6/16/6 11/14/11 8/15/8
f 132/66/132 133/97/133 120/60/120
f 137/101/137 98/63/98 120/60/120
f 106/72/106 104/74/104 103/71/103
f 104/74/104 106/72/106 107/73/107
f 41/40/41 25/2/25 1/5/1
f 37/8/37 25/2/25 38/37/38
f 138/102/138 132/66/132 137/101/137
f 136/100/136 137/101/137 120/60/120
f 137/101/137 132/66/132 98/63/98
f 98/63/98 132/66/132 120/60/120
f 103/71/103 102/70/102 106/72/106
f 102/70/102 103/71/103 101/69/101
g fff0af14_00070_001e580a_e2
f 10/18/10 8/17/8 11/20/11
f 11/20/11 9/19/9 10/18/10
f 107/76/107 108/78/108 105/75/105
f 108/78/108 107/76/107 106/77/106
g fff0af14_00070_001e580a_e5
f 15/1/15 13/2/13 14/3/14
f 14/3/14 12/4/12 15/1/15
f 43/43/43 36/56/36 42/42/42
f 43/44/43 97/54/97 36/55/36
f 96/49/96 43/43/43 37/35/37
f 75/41/75 76/45/76 73/8/73
f 97/50/97 23/34/23 36/33/36
f 76/45/76 77/46/77 73/8/73
f 37/8/37 38/37/38 22/32/22
f 36/7/36 23/31/23 39/38/39
f 43/43/43 42/42/42 37/35/37
f 22/36/22 96/49/96 37/35/37
f 47/1/47 45/2/45 46/3/46
f 46/3/46 44/4/44 47/1/47
f 51/1/51 49/2/49 50/3/50
f 50/3/50 48/4/48 51/1/51
f 55/1/55 53/2/53 54/3/54
f 54/3/54 52/4/52 55/1/55
f 59/1/59 57/2/57 58/3/58
f 58/3/58 56/4/56 59/1/59
f 164/102/164 162/66/162 165/106/165
f 165/106/165 162/66/162 166/107/166
f 158/102/158 156/66/156 159/106/159
f 159/106/159 156/66/156 160/107/160
f 64/45/64 65/46/65 61/8/61
f 63/41/63 64/45/64 61/8/61
f 70/45/70 71/46/71 67/8/67
f 69/41/69 70/45/70 67/8/67
f 112/59/112 111/61/111 110/60/110
f 111/61/111 112/59/112 109/62/109
f 135/117/135 114/87/114 136/116/136
f 43/104/43 138/103/138 131/120/131
f 43/105/43 131/119/131 97/118/97
f 96/108/96 132/95/132 43/104/43
f 97/109/97 131/93/131 23/94/23
f 170/110/170 168/66/168 171/111/171
f 132/66/132 22/92/22 133/97/133
f 131/65/131 134/98/134 23/91/23
f 43/104/43 132/95/132 138/103/138
f 22/96/22 132/95/132 96/108/96
f 142/59/142 141/61/141 140/60/140
f 141/61/141 142/59/142 139/62/139
f 146/59/146 145/61/145 144/60/144
f 145/61/145 146/59/146 143/62/143
f 150/59/150 149/61/149 148/60/148
f 149/61/149 150/59/150 147/62/147
f 154/59/154 153/61/153 152/60/152
f 153/61/153 154/59/154 151/62/151
f 135/99/135 120/60/120 113/86/113
f 136/116/136 114/87/114 119/59/119
f 136/100/136 120/60/120 135/99/135
f 171/111/171 168/66/168 172/107/172
f 21/1/21 19/3/19 20/2/20
f 19/3/19 21/1/21 18/4/18
f 118/59/118 117/113/117 116/61/116
f 116/61/116 115/62/115 118/59/118
g fff0af14_00070_001e580a_e3
f 62/40/62 65/46/65 64/45/64
f 62/40/62 60/5/60 65/46/65
f 68/40/68 71/46/71 70/45/70
f 68/40/68 66/5/66 71/46/71
f 74/40/74 77/46/77 76/45/76
f 74/40/74 72/5/72 77/46/77
f 157/101/157 159/106/159 160/107/160
f 157/101/157 160/107/160 155/63/155
f 163/101/163 165/106/165 166/107/166
f 163/101/163 166/107/166 161/63/161
f 171/111/171 172/107/172 169/112/169
f 169/112/169 172/107/172 167/63/167
