# fff08f90_00205_007326c2
o fff08f90_00205_007326c2
v 5.111776 -0.103855 -0.293780
v 5.113281 0.160358 -0.293747
v 5.111777 -0.103701 -1.276686
v 5.113281 0.160358 -1.276728
v 5.115331 0.520058 -0.916594
v 5.114578 0.387952 -0.425140
v 5.115331 0.520058 -0.653892
v 5.109729 -0.463247 -0.916550
v 5.109729 -0.463247 -0.653820
v 5.110481 -0.331295 -0.425110
v 5.110482 -0.331140 -1.145314
v 5.114578 0.387952 -1.145317
v 5.112494 0.022071 -0.797336
v 5.138350 0.039482 -1.117725
v 5.138897 -0.126096 -1.073340
v 5.139297 -0.247308 -0.952150
v 5.139444 -0.291674 -0.786575
v 5.139297 -0.247308 -0.621001
v 5.138897 -0.126096 -0.499811
v 5.138350 0.039482 -0.455426
v 5.137803 0.205060 -0.499811
v 5.137403 0.326272 -0.621001
v 0.304172 0.062895 -1.117725
v 0.304719 -0.102683 -1.073340
v 0.305120 -0.223895 -0.952150
v 0.305266 -0.268261 -0.786575
v 0.305120 -0.223895 -0.621001
v 0.304719 -0.102683 -0.499811
v 0.304172 0.062895 -0.455426
v 0.303625 0.228473 -0.499811
v 0.303224 0.349685 -0.621001
v 0.060359 0.050438 -1.159075
v 0.041943 -0.096676 -1.117257
v -0.008630 -0.204544 -1.002900
v -0.077734 -0.243946 -0.846606
v -0.146907 -0.204489 -0.690267
v -0.197594 -0.096776 -0.575794
v -0.216196 0.050305 -0.533810
v -0.197778 0.197663 -0.575629
v -0.147238 0.305287 -0.689985
v 0.041728 0.197763 -1.117092
v -0.086538 0.051003 -1.302182
v -0.124745 -0.096176 -1.279019
v -0.229250 -0.203872 -1.215752
v -0.372142 -0.243226 -1.129331
v -0.515057 -0.203696 -1.042902
v -0.619726 -0.095872 -0.979644
v -0.658136 0.051355 -0.956473
v -0.619928 0.198533 -0.979644
v -0.515408 0.306229 -1.042902
v -0.124948 0.198229 -1.279019
v -0.092786 0.050942 -1.622115
v -0.132236 -0.096261 -1.622124
v -0.239980 -0.204020 -1.622125
v -0.387187 -0.243462 -1.622124
v -0.534381 -0.204020 -1.622110
v -0.642125 -0.096261 -1.622112
v -0.681589 0.050942 -1.622133
v -0.642125 0.198143 -1.622112
v -0.534381 0.305903 -1.622110
v -0.132236 0.198143 -1.622124
v -0.092787 0.050942 -2.864853
v -0.132237 -0.096261 -2.864853
v -0.239980 -0.204020 -2.864853
v -0.387188 -0.243462 -2.864853
v -0.534382 -0.204020 -2.864853
v -0.642125 -0.096261 -2.864853
v -0.681589 0.050942 -2.864853
v -0.642125 0.198143 -2.864853
v -0.534382 0.305903 -2.864853
v -0.132237 0.198143 -2.864853
v 5.151023 0.059785 -1.205913
v 5.151705 -0.146401 -1.150643
v 5.152204 -0.297341 -0.999731
v 5.152386 -0.352588 -0.793548
v 5.152204 -0.297341 -0.587365
v 5.151705 -0.146401 -0.436453
v 5.151023 0.059785 -0.381183
v 5.150342 0.265972 -0.436453
v 5.149843 0.416912 -0.587365
v 5.150342 0.265972 -1.150643
v 4.971482 0.060161 -1.205913
v 4.972164 -0.146026 -1.150643
v 4.972663 -0.296966 -0.999731
v 4.972845 -0.352212 -0.793548
v 4.972663 -0.296966 -0.587365
v 4.972164 -0.146026 -0.436453
v 4.971482 0.060161 -0.381183
v 4.970801 0.266347 -0.436453
v 4.970303 0.417287 -0.587365
v 4.970801 0.266347 -1.150643
v 5.103197 -1.609906 2.291655
v 5.107261 -0.896539 2.293622
v 5.097723 -2.570828 1.327020
v 5.099766 -2.212191 1.943888
v 5.110130 -0.392886 2.163111
v 5.096935 -2.709253 0.825713
v -0.773408 0.227017 -3.015723
v -0.793173 0.014479 -3.017585
v -0.704159 -0.179634 -3.018928
v -0.529993 -0.302943 -3.019446
v -0.317488 -0.322952 -3.018928
v -0.123465 -0.233724 -3.017585
v -0.000065 -0.059620 -3.015723
v 0.019763 0.153161 -3.013862
v -0.069344 0.347031 -3.012519
v -0.649947 0.401121 -3.013862
v -0.773687 0.226286 -2.836188
v -0.793422 0.013748 -2.838050
v -0.704315 -0.180122 -2.839393
v -0.530242 -0.303674 -2.839881
v -0.317643 -0.323440 -2.839393
v -0.123712 -0.234211 -2.838050
v -0.000313 -0.060351 -2.836188
v 0.019515 0.152430 -2.834327
v -0.069592 0.346300 -2.832953
v -0.650195 0.400390 -2.834327
v -0.074320 0.055633 -2.217579
v -0.116069 -0.100146 -2.217579
v -0.230090 -0.214185 -2.217579
v -0.385876 -0.255925 -2.217579
v -0.541646 -0.214185 -2.217578
v -0.655668 -0.100146 -2.217578
v -0.697431 0.055633 -2.217580
v -0.655668 0.211412 -2.217578
v -0.541646 0.325450 -2.217578
v -0.116069 0.211412 -2.217579
v -0.074321 0.055633 -2.300458
v -0.116069 -0.100146 -2.300458
v -0.230091 -0.214185 -2.300458
v -0.385876 -0.255925 -2.300458
v -0.541646 -0.214185 -2.300458
v -0.655668 -0.100146 -2.300458
v -0.697432 0.055633 -2.300458
v -0.655668 0.211412 -2.300458
v -0.541646 0.325450 -2.300458
v -0.116069 0.211412 -2.300458
v -0.074320 0.055633 -1.589636
v -0.116069 -0.100146 -1.589637
v -0.230090 -0.214185 -1.589637
v -0.385876 -0.255925 -1.589637
v -0.541646 -0.214185 -1.589636
v -0.655668 -0.100146 -1.589636
v -0.697431 0.055633 -1.589637
v -0.655668 0.211412 -1.589636
v -0.541646 0.325450 -1.589636
v -0.116069 0.211412 -1.589637
v -0.074321 0.055633 -1.672515
v -0.116069 -0.100146 -1.672515
v -0.230091 -0.214185 -1.672515
v -0.385876 -0.255925 -1.672515
v -0.541646 -0.214185 -1.672515
v -0.655668 -0.100146 -1.672515
v -0.697432 0.055633 -1.672515
v -0.655668 0.211412 -1.672515
v -0.541646 0.325450 -1.672515
v -0.116069 0.211412 -1.672515
v 1.203002 0.067347 -1.136262
v 1.202040 -0.105933 -1.089810
v 1.201336 -0.232784 -0.962976
v 1.201078 -0.279213 -0.789691
v 1.201336 -0.232784 -0.616405
v 1.202040 -0.105933 -0.489571
v 1.203002 0.067347 -0.443119
v 1.203964 0.240628 -0.489571
v 1.204669 0.367478 -0.616405
v 1.122253 0.063490 -1.136262
v 1.121291 -0.109790 -1.089810
v 1.120587 -0.236641 -0.962976
v 1.120329 -0.283071 -0.789691
v 1.120587 -0.236641 -0.616405
v 1.121291 -0.109790 -0.489571
v 1.122253 0.063490 -0.443119
v 1.123216 0.236770 -0.489571
v 1.123920 0.363621 -0.616405
v 0.359202 0.072154 -1.136262
v 0.358240 -0.101126 -1.089810
v 0.357536 -0.227977 -0.962976
v 0.357278 -0.274407 -0.789691
v 0.357536 -0.227977 -0.616405
v 0.358240 -0.101126 -0.489571
v 0.359202 0.072154 -0.443119
v 0.360164 0.245434 -0.489571
v 0.360869 0.372285 -0.616405
v 0.278453 0.068297 -1.136262
v 0.277491 -0.104983 -1.089810
v 0.276787 -0.231834 -0.962976
v 0.276529 -0.278264 -0.789691
v 0.276787 -0.231834 -0.616405
v 0.277491 -0.104983 -0.489571
v 0.278453 0.068297 -0.443119
v 0.279416 0.241577 -0.489571
v 0.280120 0.368428 -0.616405
v 2.161299 0.061888 -1.136262
v 2.160337 -0.111392 -1.089810
v 2.159633 -0.238243 -0.962976
v 2.159375 -0.284672 -0.789691
v 2.159633 -0.238243 -0.616405
v 2.160337 -0.111392 -0.489571
v 2.161299 0.061888 -0.443119
v 2.162261 0.235169 -0.489571
v 2.162966 0.362019 -0.616405
v 2.080550 0.058031 -1.136262
v 2.079588 -0.115249 -1.089810
v 2.078884 -0.242100 -0.962976
v 2.078626 -0.288530 -0.789691
v 2.078884 -0.242100 -0.616405
v 2.079588 -0.115249 -0.489571
v 2.080550 0.058031 -0.443119
v 2.081513 0.231311 -0.489571
v 2.082217 0.358162 -0.616405
v 3.179440 0.056088 -1.136262
v 3.178478 -0.117192 -1.089810
v 3.177774 -0.244043 -0.962976
v 3.177516 -0.290472 -0.789691
v 3.177774 -0.244043 -0.616405
v 3.178478 -0.117192 -0.489571
v 3.179440 0.056088 -0.443119
v 3.180403 0.229369 -0.489571
v 3.181107 0.356220 -0.616405
v 3.098691 0.052231 -1.136262
v 3.097729 -0.121049 -1.089810
v 3.097025 -0.247900 -0.962976
v 3.096767 -0.294330 -0.789691
v 3.097025 -0.247900 -0.616405
v 3.097729 -0.121049 -0.489571
v 3.098691 0.052231 -0.443119
v 3.099654 0.225511 -0.489571
v 3.100358 0.352362 -0.616405
v 4.153453 0.050540 -1.136262
v 4.152491 -0.122740 -1.089810
v 4.151787 -0.249591 -0.962976
v 4.151529 -0.296021 -0.789691
v 4.151787 -0.249591 -0.616405
v 4.152491 -0.122740 -0.489571
v 4.153453 0.050540 -0.443119
v 4.154416 0.223820 -0.489571
v 4.155120 0.350671 -0.616405
v 4.072705 0.046683 -1.136262
v 4.071743 -0.126598 -1.089810
v 4.071038 -0.253448 -0.962976
v 4.070780 -0.299878 -0.789691
v 4.071038 -0.253448 -0.616405
v 4.071743 -0.126598 -0.489571
v 4.072705 0.046683 -0.443119
v 4.073667 0.219963 -0.489571
v 4.074371 0.346814 -0.616405
v -0.214625 -0.173058 -2.838323
v -0.150260 -0.079615 -2.836709
v -0.137382 0.131927 -2.834882
v -0.183766 0.326839 -2.833478
v 0.062877 0.045687 -1.159075
v 0.044461 -0.101427 -1.117257
v -0.006112 -0.209295 -1.002900
v 0.044246 0.193013 -1.117092
v -0.084020 0.046253 -1.302182
v -0.122227 -0.100927 -1.279019
v -0.226732 -0.208622 -1.215752
v -0.122430 0.193478 -1.279019
v -0.129718 -0.101012 -1.622124
v -0.237461 -0.208771 -1.622125
v -0.129718 -0.101012 -2.864853
v -0.237462 -0.208771 -2.864853
v -0.323988 -0.327652 -3.018928
v -0.120947 -0.238475 -3.017585
v -0.324143 -0.328139 -2.839393
v -0.121193 -0.238962 -2.838050
v -0.324085 -0.318032 -2.839393
v -0.121136 -0.228855 -2.838050
v -0.195423 -0.216208 -2.838192
v -0.117097 -0.106976 -2.217579
v -0.231118 -0.221015 -2.217579
v -0.117097 -0.106976 -2.300458
v -0.231119 -0.221015 -2.300458
v -0.117097 -0.106976 -1.589636
v -0.231118 -0.221015 -1.589637
v -0.117097 -0.106976 -1.672515
v -0.231119 -0.221015 -1.672515
vt 0.500000 1.000000
vt 0.500000 1.000000
vt 0.500000 1.000000
vt 0.500000 1.000000
vt 0.500000 1.000000
vt 0.500000 1.000000
vt 0.500000 1.000000
vt 0.500000 1.000000
vt 0.500000 1.000000
vt 0.500000 1.000000
vt 0.500000 1.000000
vt 0.250000 0.933013
vt 0.066987 0.750000
vt 0.000000 0.500000
vt 0.066987 0.250000
vt 0.250000 0.066987
vt 0.500000 0.000000
vt 0.750000 0.066987
vt 0.933013 0.250000
vt -0.001422 -0.005723
vt 0.084100 -0.005724
vt 0.168144 -0.005724
vt 0.250590 -0.005723
vt 0.332673 -0.005689
vt 0.417417 -0.005725
vt 0.500061 -0.005727
vt 0.583323 -0.005681
vt 0.667610 -0.005681
vt 0.915914 -0.005724
vt 1.000429 -0.005724
vt -0.001596 1.005724
vt 0.084099 1.005723
vt 0.168144 1.005723
vt 0.250590 1.005724
vt 0.332673 1.005758
vt 0.417417 1.005749
vt 0.500061 1.005722
vt 0.583323 1.005723
vt 0.667610 1.005766
vt 0.915913 1.005723
vt 1.000626 1.005723
vt 0.500000 1.000000
vt 0.250000 0.933013
vt 0.066987 0.750000
vt 0.000000 0.500000
vt 0.066987 0.250000
vt 0.250000 0.066987
vt 0.500000 0.000000
vt 0.750000 0.066987
vt 0.933013 0.250000
vt 0.066987 0.750000
vt 0.000000 0.500000
vt 0.066987 0.250000
vt 0.250000 0.066987
vt 0.500000 0.000000
vt 0.750000 0.066987
vt 0.933013 0.250000
vt 0.066987 0.750000
vt 0.000000 0.500000
vt 0.066987 0.250000
vt 0.250000 0.066987
vt 0.500000 0.000000
vt 0.750000 0.066987
vt 0.933013 0.250000
vt 0.066987 0.750000
vt -0.000000 0.499999
vt 0.066988 0.250000
vt 0.250000 0.066987
vt 0.500000 -0.000000
vt 0.750000 0.066987
vt 0.933012 0.250000
vt 0.500000 1.000000
vt 0.500000 1.000000
vt -0.296717 32.222775
vt -0.246476 32.220493
vt 0.500000 1.000000
vt 1.014732 35.929684
vt 1.088996 36.231468
vt 1.070897 36.230244
vt 1.027727 35.928051
vt -0.190243 36.534531
vt -0.096264 36.252701
vt -0.171324 36.536037
vt -0.102765 36.251423
vt -0.829009 35.173225
vt -0.528600 35.186512
vt -0.966309 33.086678
vt -0.781235 33.057571
vt 0.250000 0.066987
vt 0.066988 0.250000
vt 0.066987 0.250000
vt 0.250000 0.066987
vt 0.500000 -0.000000
vt 0.500000 0.000000
vt 0.066987 0.750000
vt 0.066987 0.750000
vt -0.000000 0.499999
vt 0.000000 0.500000
vt 0.933012 0.250000
vt 0.750000 0.066987
vt 0.750000 0.066987
vt 0.933013 0.250000
vt 0.250000 0.066987
vt 0.066988 0.250000
vt 0.066987 0.250000
vt 0.250000 0.066987
vt 0.500000 -0.000000
vt 0.500000 0.000000
vt 0.066987 0.750000
vt 0.066987 0.750000
vt -0.000000 0.499999
vt 0.000000 0.500000
vt 0.933012 0.250000
vt 0.750000 0.066987
vt 0.750000 0.066987
vt 0.933013 0.250000
vt 0.332673 -0.005689
vt 0.417417 1.005749
vt 0.332673 1.005758
vt 0.417417 -0.005725
vt 0.500061 -0.005727
vt 0.500061 1.005722
vt -0.001422 -0.005723
vt 0.084099 1.005723
vt -0.001596 1.005724
vt 0.084100 -0.005724
vt 0.168144 1.005723
vt 0.168144 -0.005724
vt 0.250590 1.005724
vt 0.250590 -0.005723
vt 0.583323 -0.005681
vt 0.667610 -0.005681
vt 0.667610 1.005766
vt 0.583323 1.005723
vt 0.332673 -0.005689
vt 0.417417 1.005749
vt 0.332673 1.005758
vt 0.417417 -0.005725
vt 0.500061 -0.005727
vt 0.500061 1.005722
vt -0.001422 -0.005723
vt 0.084099 1.005723
vt -0.001596 1.005724
vt 0.084100 -0.005724
vt 0.168144 1.005723
vt 0.168144 -0.005724
vt 0.250590 1.005724
vt 0.250590 -0.005723
vt 0.583323 -0.005681
vt 0.667610 -0.005681
vt 0.667610 1.005766
vt 0.583323 1.005723
vt 0.332673 -0.005689
vt 0.417417 1.005749
vt 0.332673 1.005758
vt 0.417417 -0.005725
vt 0.500061 -0.005727
vt 0.500061 1.005722
vt -0.001422 -0.005723
vt 0.084099 1.005723
vt -0.001596 1.005724
vt 0.084100 -0.005724
vt 0.168144 1.005723
vt 0.168144 -0.005724
vt 0.250590 1.005724
vt 0.250590 -0.005723
vt 0.583323 -0.005681
vt 0.667610 -0.005681
vt 0.667610 1.005766
vt 0.583323 1.005723
vt 0.332673 -0.005689
vt 0.417417 1.005749
vt 0.332673 1.005758
vt 0.417417 -0.005725
vt 0.500061 -0.005727
vt 0.500061 1.005722
vt -0.001422 -0.005723
vt 0.084099 1.005723
vt -0.001596 1.005724
vt 0.084100 -0.005724
vt 0.168144 1.005723
vt 0.168144 -0.005724
vt 0.250590 1.005724
vt 0.250590 -0.005723
vt 0.583323 -0.005681
vt 0.667610 -0.005681
vt 0.667610 1.005766
vt 0.583323 1.005723
vt 0.332673 -0.005689
vt 0.417417 1.005749
vt 0.332673 1.005758
vt 0.417417 -0.005725
vt 0.500061 -0.005727
vt 0.500061 1.005722
vt -0.001422 -0.005723
vt 0.084099 1.005723
vt -0.001596 1.005724
vt 0.084100 -0.005724
vt 0.168144 1.005723
vt 0.168144 -0.005724
vt 0.250590 1.005724
vt 0.250590 -0.005723
vt 0.583323 -0.005681
vt 0.667610 -0.005681
vt 0.667610 1.005766
vt 0.583323 1.005723
vt 0.500000 1.000000
vt 0.500000 1.000000
vt 0.500000 1.000000
vt 0.500000 1.000000
vt 1.873609 1.199112
vt 1.872943 1.370156
vt 1.783889 1.369223
vt 1.784555 1.198178
vt 1.399354 1.365893
vt 1.430736 1.572338
vt 1.475991 1.381009
vt 1.427744 1.324285
vt 1.600924 1.572175
vt 1.600925 1.365608
vt 1.687528 1.369024
vt 1.687528 1.575591
vt 1.541793 1.401752
vt 1.542045 1.495875
vt 1.607688 1.380927
vt 1.607896 1.484386
vt 1.784565 1.201326
vt 1.783899 1.372370
vt 1.345071 1.575591
vt 1.345071 1.369024
vt 1.428044 1.429865
vt 1.476215 1.484386
vt 0.500000 1.000000
vt 1.452711 1.031084
vt 1.626798 1.238554
vt 1.537481 1.313501
vt 1.363394 1.106032
vt 1.717538 1.595707
vt 1.717538 1.751956
vt 1.600942 1.751957
vt 1.600942 1.595708
vt 2.422208 2.384081
vt 2.423954 1.887328
vt 2.426322 1.342119
vt 2.657033 0.897884
vt 2.654665 1.343992
vt 2.428689 0.896636
vt 2.658741 0.669254
vt 2.430397 0.668006
vt 0.840883 1.240151
vt 0.840884 0.947950
vt 0.946293 0.947950
vt 0.946293 1.240151
vt 1.639538 1.240151
vt 1.639538 0.947950
vt 1.744948 0.947950
vt 1.744948 1.240151
vt 0.365355 0.974375
vt 0.445822 1.250324
vt 0.240082 1.249043
vt 0.094638 0.972652
vt 0.882203 1.250106
vt 0.882204 0.973994
vt 2.462780 0.973994
vt 2.462780 1.250106
vt 2.652297 1.889201
vt 2.650590 2.385954
vt 2.462780 1.627283
vt 2.462780 2.004458
vt 0.882203 2.004458
vt 0.882192 1.627283
vt 0.293270 1.625993
vt 0.475281 1.627442
vt 0.239872 2.003485
vt 0.445822 2.004678
vt 1.744948 1.639305
vt 1.744948 2.038456
vt 1.639538 2.038456
vt 1.639537 1.639305
vt 0.946293 1.639305
vt 0.946293 2.038456
vt 0.840883 2.038456
vt 0.840883 1.639305
vt 1.619340 1.999814
vt 1.131707 1.966290
vt 1.329810 1.630530
vt 1.999912 1.665850
vt 1.915226 1.299309
vt 1.274811 1.266124
vt 0.999912 1.105158
vt 1.081923 1.030827
vt 1.388198 0.999814
vn -0.999984 0.005696 0.000000
vn -0.999984 0.005698 0.000000
vn -0.999984 0.005696 -0.000000
vn -0.999984 0.005697 0.000000
vn -0.999984 0.005697 -0.000000
vn -0.999984 0.005698 0.000000
vn -0.999984 0.005697 0.000000
vn -0.999984 0.005696 -0.000000
vn -0.999984 0.005696 -0.000000
vn -0.999984 0.005696 -0.000000
vn -0.999984 0.005696 -0.000000
vn -0.999984 0.005698 -0.000000
vn -0.999984 0.005696 -0.000000
vn -0.001254 -0.258925 -0.965897
vn -0.002427 -0.501016 -0.865435
vn -0.004196 -0.866333 -0.499449
vn -0.004843 -0.999988 0.000000
vn -0.004196 -0.866333 0.499449
vn -0.002427 -0.501015 0.865435
vn -0.000007 -0.001343 0.999999
vn 0.002417 0.499003 0.866597
vn 0.003424 0.707043 0.707162
vn 0.080092 -0.263708 -0.961272
vn 0.058153 -0.510462 -0.857932
vn 0.008499 -0.873029 -0.487594
vn -0.030859 -0.999480 0.009335
vn -0.053661 -0.862079 0.503925
vn -0.066515 -0.495617 0.865990
vn -0.075901 0.003511 0.997109
vn -0.082976 0.500268 0.861886
vn -0.087557 0.704181 0.704601
vn 0.542667 -0.105018 -0.833357
vn 0.368629 -0.569329 -0.734832
vn 0.163744 -0.907748 -0.386241
vn -0.051301 -0.998378 0.024690
vn -0.238511 -0.870465 0.430585
vn -0.381955 -0.522273 0.762457
vn -0.440700 -0.001522 0.897653
vn -0.386837 0.519403 0.761957
vn -0.312949 0.751580 0.580681
vn 0.669703 0.281422 -0.687241
vn 0.921368 0.000214 -0.388692
vn 0.756613 -0.569542 -0.321183
vn 0.377665 -0.911045 -0.165427
vn -0.056999 -0.998254 0.015496
vn -0.467248 -0.861846 0.197232
vn -0.784440 -0.511123 0.351295
vn -0.909363 -0.000177 0.416004
vn -0.784464 0.511019 0.351392
vn -0.615812 0.746160 0.253023
vn 0.874699 0.289872 -0.388427
vn 0.999949 -0.000267 -0.010098
vn 0.865701 -0.500481 -0.008990
vn 0.498773 -0.866713 -0.005825
vn -0.002381 -0.999997 0.000500
vn -0.502152 -0.864738 0.008475
vn -0.866685 -0.498630 0.014999
vn -0.999847 0.000006 0.017477
vn -0.866689 0.498625 0.014942
vn -0.707380 0.706732 0.012006
vn 0.965863 0.258850 -0.010272
vn 1.000000 0.000001 -0.000001
vn 0.866032 -0.499988 -0.000000
vn 0.500026 -0.866010 -0.000000
vn -0.000012 -1.000000 0.000000
vn -0.500036 -0.866004 0.000000
vn -0.866010 -0.500027 0.000000
vn -1.000000 0.000001 0.000000
vn -0.866010 0.500027 0.000000
vn -0.707159 0.707055 0.000000
vn 0.965914 0.258864 -0.000000
vn -0.000002 -0.000889 -1.000000
vn -0.001047 -0.500674 -0.865635
vn -0.001811 -0.866224 -0.499652
vn -0.002091 -0.999998 0.000000
vn -0.001811 -0.866224 0.499652
vn -0.001047 -0.500673 0.865636
vn -0.000002 -0.000889 1.000000
vn 0.001044 0.499341 0.866405
vn 0.001479 0.707043 0.707170
vn 0.000541 0.258922 -0.965898
vn -0.653205 -0.001485 -0.757180
vn -0.652996 -0.379799 -0.655247
vn -0.652791 -0.656401 -0.378157
vn -0.652736 -0.757586 -0.000000
vn -0.652790 -0.656401 0.378158
vn -0.652996 -0.379799 0.655248
vn -0.653205 -0.001485 0.757179
vn -0.653489 0.377357 0.656166
vn -0.801261 0.421707 0.424434
vn -0.801180 0.152474 -0.578673
vn -0.999984 0.005697 0.000000
vn -0.999984 0.005697 0.000000
vn -0.999984 0.005696 -0.000000
vn -0.999984 0.005696 -0.000000
vn -0.999984 0.005697 0.000000
vn -0.999984 0.005697 0.000000
vn -0.938005 0.346621 -0.000007
vn -0.985668 -0.168687 -0.001811
vn -0.769654 -0.638455 -0.002724
vn -0.347279 -0.937753 -0.003976
vn 0.167319 -0.985900 -0.002482
vn 0.637796 -0.770204 -0.001391
vn 0.937462 -0.348087 -0.000121
vn 0.985872 0.167490 0.002045
vn 0.908624 0.417604 0.002957
vn -0.815690 0.578489 0.001165
vn -0.711955 0.258061 0.653088
vn -0.747771 -0.132278 0.650647
vn -0.583855 -0.487290 0.649354
vn -0.264098 -0.713616 0.648849
vn 0.125378 -0.749296 0.650258
vn 0.480805 -0.586869 0.651469
vn 0.708181 -0.268388 0.653030
vn 0.745241 0.122430 0.655459
vn 0.542870 0.244081 0.803565
vn -0.491193 0.339826 0.802027
vn 1.000000 0.000001 -0.000009
vn 0.866033 -0.499987 -0.000007
vn 0.500027 -0.866010 -0.000004
vn -0.000011 -1.000000 0.000000
vn -0.500035 -0.866005 0.000004
vn -0.866009 -0.500028 0.000006
vn -1.000000 0.000001 0.000009
vn -0.866009 0.500028 0.000005
vn -0.707158 0.707056 0.000007
vn 0.965914 0.258864 -0.000008
vn 1.000000 0.000001 -0.000009
vn 0.866032 -0.499988 -0.000007
vn 0.500025 -0.866011 -0.000004
vn -0.000013 -1.000000 0.000000
vn -0.500037 -0.866004 0.000005
vn -0.866010 -0.500027 0.000005
vn -1.000000 0.000001 0.000009
vn -0.866010 0.500026 0.000006
vn -0.707158 0.707055 0.000006
vn 0.965914 0.258864 -0.000008
vn 1.000000 0.000001 -0.000009
vn 0.866033 -0.499987 -0.000007
vn 0.500027 -0.866010 -0.000004
vn -0.000011 -1.000000 0.000000
vn -0.500035 -0.866005 0.000004
vn -0.866009 -0.500028 0.000006
vn -1.000000 0.000001 0.000009
vn -0.866009 0.500028 0.000005
vn -0.707158 0.707056 0.000007
vn 0.965914 0.258864 -0.000008
vn 1.000000 0.000001 -0.000009
vn 0.866032 -0.499988 -0.000007
vn 0.500025 -0.866011 -0.000004
vn -0.000013 -1.000000 0.000000
vn -0.500037 -0.866004 0.000005
vn -0.866010 -0.500027 0.000005
vn -1.000000 0.000001 0.000009
vn -0.866010 0.500026 0.000006
vn -0.707158 0.707055 0.000006
vn 0.965914 0.258864 -0.000008
vn 0.012371 -0.258978 -0.965804
vn 0.023567 -0.493346 -0.869514
vn 0.041229 -0.863107 -0.503335
vn 0.047715 -0.998861 0.000000
vn 0.041229 -0.863108 0.503334
vn 0.023567 -0.493346 0.869514
vn -0.000420 0.008785 0.999961
vn -0.024195 0.506499 0.861901
vn -0.033761 0.706750 0.706657
vn 0.012371 -0.258978 -0.965804
vn 0.024195 -0.506499 -0.861901
vn 0.041438 -0.867485 -0.495734
vn 0.047715 -0.998861 0.000000
vn 0.041438 -0.867485 0.495734
vn 0.024195 -0.506499 0.861901
vn 0.000420 -0.008785 0.999961
vn -0.023567 0.493346 0.869514
vn -0.033761 0.706750 0.706657
vn 0.012371 -0.258978 -0.965804
vn 0.023567 -0.493346 -0.869514
vn 0.041229 -0.863107 -0.503335
vn 0.047715 -0.998861 0.000000
vn 0.041229 -0.863108 0.503334
vn 0.023567 -0.493346 0.869514
vn -0.000420 0.008785 0.999961
vn -0.024195 0.506499 0.861901
vn -0.033761 0.706750 0.706657
vn 0.012371 -0.258978 -0.965804
vn 0.024195 -0.506499 -0.861901
vn 0.041438 -0.867485 -0.495734
vn 0.047715 -0.998861 0.000000
vn 0.041438 -0.867485 0.495734
vn 0.024195 -0.506499 0.861901
vn 0.000420 -0.008785 0.999961
vn -0.023567 0.493346 0.869514
vn -0.033761 0.706750 0.706657
vn 0.012371 -0.258978 -0.965804
vn 0.023567 -0.493346 -0.869514
vn 0.041229 -0.863108 -0.503335
vn 0.047715 -0.998861 0.000000
vn 0.041229 -0.863108 0.503334
vn 0.023567 -0.493346 0.869514
vn -0.000420 0.008785 0.999961
vn -0.024195 0.506499 0.861901
vn -0.033761 0.706750 0.706658
vn 0.012371 -0.258978 -0.965804
vn 0.024196 -0.506499 -0.861901
vn 0.041438 -0.867485 -0.495734
vn 0.047715 -0.998861 0.000000
vn 0.041438 -0.867486 0.495734
vn 0.024195 -0.506499 0.861901
vn 0.000420 -0.008785 0.999961
vn -0.023567 0.493346 0.869514
vn -0.033761 0.706750 0.706658
vn 0.012371 -0.258978 -0.965804
vn 0.023567 -0.493346 -0.869514
vn 0.041229 -0.863108 -0.503334
vn 0.047715 -0.998861 0.000000
vn 0.041229 -0.863108 0.503334
vn 0.023567 -0.493346 0.869514
vn -0.000420 0.008785 0.999961
vn -0.024195 0.506499 0.861901
vn -0.033761 0.706750 0.706658
vn 0.012371 -0.258978 -0.965804
vn 0.024196 -0.506499 -0.861901
vn 0.041438 -0.867485 -0.495734
vn 0.047715 -0.998861 0.000000
vn 0.041438 -0.867486 0.495734
vn 0.024195 -0.506499 0.861901
vn 0.000420 -0.008785 0.999961
vn -0.023567 0.493346 0.869514
vn -0.033761 0.706750 0.706658
vn 0.012371 -0.258978 -0.965804
vn 0.023567 -0.493346 -0.869514
vn 0.041229 -0.863107 -0.503335
vn 0.047715 -0.998861 0.000000
vn 0.041229 -0.863108 0.503334
vn 0.023567 -0.493346 0.869514
vn -0.000420 0.008786 0.999961
vn -0.024195 0.506499 0.861901
vn -0.033761 0.706750 0.706658
vn 0.012371 -0.258978 -0.965804
vn 0.024195 -0.506500 -0.861901
vn 0.041438 -0.867485 -0.495734
vn 0.047715 -0.998861 0.000000
vn 0.041438 -0.867485 0.495734
vn 0.024195 -0.506499 0.861901
vn 0.000420 -0.008786 0.999961
vn -0.023567 0.493346 0.869514
vn -0.033761 0.706750 0.706657
vn -0.005068 -0.008141 0.999954
vn -0.002233 -0.012281 0.999922
vn -0.002891 -0.008285 0.999961
vn -0.003194 -0.008215 0.999961
vn 0.697407 -0.000457 -0.716675
vn 0.578082 -0.554562 -0.598567
vn 0.468355 -0.736696 -0.487774
vn 0.669703 0.281422 -0.687241
vn 0.697443 0.000546 -0.716640
vn 0.661813 -0.637068 -0.395155
vn 0.602478 -0.747703 -0.279214
vn 0.668805 0.282665 -0.687605
vn 0.707138 -0.707034 -0.007669
vn 0.707802 -0.706365 -0.008018
vn 0.707159 -0.707055 -0.000000
vn 0.707159 -0.707055 -0.000000
vn 0.402227 -0.915538 -0.002047
vn 0.402139 -0.915576 -0.001930
vn 0.321622 -0.740825 0.589693
vn 0.244148 -0.567618 0.786258
vn -0.006633 0.000038 0.999978
vn -0.006633 0.000038 0.999978
vn -0.006511 -0.004082 0.999970
vn 0.707159 -0.707055 -0.000006
vn 0.707159 -0.707055 -0.000006
vn 0.707159 -0.707055 -0.000006
vn 0.707159 -0.707055 -0.000006
vn 0.707159 -0.707055 -0.000006
vn 0.707159 -0.707055 -0.000006
vn 0.707159 -0.707055 -0.000006
vn 0.707159 -0.707055 -0.000006
g fff08f90_00205_007326c2_e5
f 100/86/100 111/87/111 110/85/110
f 100/86/100 101/88/101 111/87/111
f 99/84/99 110/85/110 109/82/109
f 98/81/98 99/84/99 109/82/109
f 101/88/101 102/74/102 112/75/112
f 101/88/101 112/75/112 111/87/111
f 99/84/99 100/86/100 110/85/110
f 85/1/85 86/1/86 87/1/87
f 251/210/251 108/76/108 250/209/250
f 251/210/251 117/76/117 108/76/108
f 88/1/88 89/1/89 84/1/84
f 87/1/87 84/1/84 85/1/85
f 88/1/88 84/1/84 87/1/87
f 89/1/89 83/1/83 84/1/84
f 82/1/82 83/1/83 89/1/89
f 108/76/108 109/76/109 250/209/250
f 250/209/250 109/76/109 110/76/110
f 107/77/107 98/78/98 108/79/108
f 107/77/107 108/79/108 117/80/117
f 98/81/98 109/82/109 108/83/108
f 90/1/90 91/1/91 82/1/82
f 90/1/90 82/1/82 89/1/89
f 270/233/270 112/76/112 113/76/113
f 116/76/116 117/76/117 251/210/251
f 248/207/248 110/76/110 111/76/111
f 249/208/249 110/76/110 248/207/248
f 112/76/112 248/207/248 111/76/111
f 249/208/249 250/209/250 110/76/110
f 248/207/248 112/76/112 270/233/270
g fff08f90_00205_007326c2_e4
f 18/24/18 28/36/28 27/35/27
f 18/24/18 19/25/19 28/36/28
f 67/68/67 66/67/66 56/60/56
f 56/60/56 57/61/57 67/68/67
f 57/61/57 56/60/56 46/53/46
f 46/53/46 47/54/47 57/61/57
f 36/46/36 37/47/37 47/54/47
f 47/54/47 46/53/46 36/46/36
f 27/15/27 28/16/28 37/47/37
f 37/47/37 36/46/36 27/15/27
f 19/25/19 20/26/20 29/37/29
f 19/25/19 29/37/29 28/36/28
f 74/22/74 75/23/75 85/34/85
f 81/29/81 72/30/72 82/41/82
f 81/29/81 82/41/82 91/40/91
f 76/24/76 77/25/77 87/36/87
f 14/20/14 24/32/24 23/31/23
f 14/20/14 15/21/15 24/32/24
f 68/69/68 67/68/67 57/61/57
f 57/61/57 58/62/58 68/69/68
f 23/11/23 24/12/24 33/43/33
f 33/43/33 32/42/32 23/11/23
f 76/24/76 87/36/87 86/35/86
f 72/20/72 83/32/83 82/31/82
f 72/20/72 73/21/73 83/32/83
f 73/21/73 84/33/84 83/32/83
f 74/22/74 85/34/85 84/33/84
f 78/26/78 79/27/79 89/38/89
f 79/27/79 90/39/90 89/38/89
f 79/27/79 80/28/80 90/39/90
f 73/21/73 74/22/74 84/33/84
f 78/26/78 89/38/89 88/37/88
f 75/23/75 76/24/76 86/35/86
f 75/23/75 86/35/86 85/34/85
f 15/21/15 25/33/25 24/32/24
f 15/21/15 16/22/16 25/33/25
f 24/12/24 25/13/25 34/44/34
f 34/44/34 33/43/33 24/12/24
f 77/25/77 88/37/88 87/36/87
f 77/25/77 78/26/78 88/37/88
f 29/17/29 30/18/30 39/49/39
f 39/49/39 38/48/38 29/17/29
f 65/66/65 64/65/64 54/58/54
f 54/58/54 55/59/55 65/66/65
f 30/18/30 31/19/31 40/50/40
f 40/50/40 39/49/39 30/18/30
f 44/51/44 45/52/45 55/59/55
f 55/59/55 54/58/54 44/51/44
f 38/48/38 39/49/39 49/56/49
f 49/56/49 48/55/48 38/48/38
f 16/22/16 26/34/26 25/33/25
f 16/22/16 17/23/17 26/34/26
f 39/49/39 40/50/40 50/57/50
f 50/57/50 49/56/49 39/49/39
f 25/13/25 26/14/26 35/45/35
f 35/45/35 34/44/34 25/13/25
f 60/64/60 59/63/59 49/56/49
f 49/56/49 50/57/50 60/64/60
f 34/44/34 35/45/35 45/52/45
f 45/52/45 44/51/44 34/44/34
f 21/27/21 22/28/22 31/39/31
f 21/27/21 31/39/31 30/38/30
f 20/26/20 21/27/21 30/38/30
f 20/26/20 30/38/30 29/37/29
f 70/71/70 69/70/69 59/63/59
f 59/63/59 60/64/60 70/71/70
f 69/70/69 68/69/68 58/62/58
f 58/62/58 59/63/59 69/70/69
f 48/55/48 49/56/49 59/63/59
f 59/63/59 58/62/58 48/55/48
f 46/53/46 45/52/45 35/45/35
f 35/45/35 36/46/36 46/53/46
f 66/67/66 65/66/65 55/59/55
f 55/59/55 56/60/56 66/67/66
f 45/52/45 46/53/46 56/60/56
f 56/60/56 55/59/55 45/52/45
f 36/46/36 35/45/35 26/14/26
f 26/14/26 27/15/27 36/46/36
f 17/23/17 18/24/18 27/35/27
f 17/23/17 27/35/27 26/34/26
f 38/48/38 37/47/37 28/16/28
f 28/16/28 29/17/29 38/48/38
f 37/47/37 38/48/38 48/55/48
f 48/55/48 47/54/47 37/47/37
f 47/54/47 48/55/48 58/62/58
f 58/62/58 57/61/57 47/54/47
f 133/89/133 132/90/132 122/91/122
f 122/91/122 123/92/123 133/89/133
f 233/202/233 243/191/243 242/201/242
f 233/202/233 234/189/234 243/191/243
f 236/193/236 246/206/246 245/194/245
f 236/193/236 237/203/237 246/206/246
f 134/93/134 133/89/133 123/92/123
f 123/92/123 124/94/124 134/93/134
f 237/203/237 247/205/247 246/206/246
f 237/203/237 238/204/238 247/205/247
f 131/97/131 130/95/130 120/96/120
f 120/96/120 121/98/121 131/97/131
f 136/99/136 135/100/135 125/101/125
f 125/101/125 126/102/126 136/99/136
f 135/100/135 134/93/134 124/94/124
f 124/94/124 125/101/125 135/100/135
f 132/90/132 131/97/131 121/98/121
f 121/98/121 122/91/122 132/90/132
f 153/103/153 152/104/152 142/105/142
f 142/105/142 143/106/143 153/103/153
f 232/200/232 233/202/233 242/201/242
f 232/200/232 242/201/242 241/199/241
f 231/198/231 232/200/232 241/199/241
f 231/198/231 241/199/241 240/196/240
f 154/107/154 153/103/153 143/106/143
f 143/106/143 144/108/144 154/107/154
f 230/195/230 231/198/231 240/196/240
f 230/195/230 240/196/240 239/197/239
f 151/111/151 150/109/150 140/110/140
f 140/110/140 141/112/141 151/111/151
f 156/113/156 155/114/155 145/115/145
f 145/115/145 146/116/146 156/113/156
f 155/114/155 154/107/154 144/108/144
f 144/108/144 145/115/145 155/114/155
f 152/104/152 151/111/151 141/112/141
f 141/112/141 142/105/142 152/104/152
f 162/117/162 172/118/172 171/119/171
f 162/117/162 163/120/163 172/118/172
f 163/120/163 164/121/164 173/122/173
f 163/120/163 173/122/173 172/118/172
f 158/123/158 168/124/168 167/125/167
f 158/123/158 159/126/159 168/124/168
f 159/126/159 169/127/169 168/124/168
f 159/126/159 160/128/160 169/127/169
f 160/128/160 170/129/170 169/127/169
f 160/128/160 161/130/161 170/129/170
f 165/131/165 166/132/166 175/133/175
f 165/131/165 175/133/175 174/134/174
f 164/121/164 165/131/165 174/134/174
f 164/121/164 174/134/174 173/122/173
f 161/130/161 162/117/162 171/119/171
f 161/130/161 171/119/171 170/129/170
f 180/135/180 190/136/190 189/137/189
f 180/135/180 181/138/181 190/136/190
f 181/138/181 182/139/182 191/140/191
f 181/138/181 191/140/191 190/136/190
f 176/141/176 186/142/186 185/143/185
f 176/141/176 177/144/177 186/142/186
f 177/144/177 187/145/187 186/142/186
f 177/144/177 178/146/178 187/145/187
f 178/146/178 188/147/188 187/145/187
f 178/146/178 179/148/179 188/147/188
f 183/149/183 184/150/184 193/151/193
f 183/149/183 193/151/193 192/152/192
f 182/139/182 183/149/183 192/152/192
f 182/139/182 192/152/192 191/140/191
f 179/148/179 180/135/180 189/137/189
f 179/148/179 189/137/189 188/147/188
f 198/153/198 208/154/208 207/155/207
f 198/153/198 199/156/199 208/154/208
f 199/156/199 200/157/200 209/158/209
f 199/156/199 209/158/209 208/154/208
f 194/159/194 204/160/204 203/161/203
f 194/159/194 195/162/195 204/160/204
f 195/162/195 205/163/205 204/160/204
f 195/162/195 196/164/196 205/163/205
f 196/164/196 206/165/206 205/163/205
f 196/164/196 197/166/197 206/165/206
f 201/167/201 202/168/202 211/169/211
f 201/167/201 211/169/211 210/170/210
f 200/157/200 201/167/201 210/170/210
f 200/157/200 210/170/210 209/158/209
f 197/166/197 198/153/198 207/155/207
f 197/166/197 207/155/207 206/165/206
f 216/171/216 226/172/226 225/173/225
f 216/171/216 217/174/217 226/172/226
f 217/174/217 218/175/218 227/176/227
f 217/174/217 227/176/227 226/172/226
f 212/177/212 222/178/222 221/179/221
f 212/177/212 213/180/213 222/178/222
f 213/180/213 223/181/223 222/178/222
f 213/180/213 214/182/214 223/181/223
f 214/182/214 224/183/224 223/181/223
f 214/182/214 215/184/215 224/183/224
f 219/185/219 220/186/220 229/187/229
f 219/185/219 229/187/229 228/188/228
f 218/175/218 219/185/219 228/188/228
f 218/175/218 228/188/228 227/176/227
f 215/184/215 216/171/216 225/173/225
f 215/184/215 225/173/225 224/183/224
f 234/189/234 244/190/244 243/191/243
f 234/189/234 235/192/235 244/190/244
f 235/192/235 236/193/236 245/194/245
f 235/192/235 245/194/245 244/190/244
g fff08f90_00205_007326c2_e8
f 2/1/2 13/7/13 1/1/1
f 7/1/7 13/4/13 6/1/6
f 8/1/8 9/1/9 13/10/13
f 13/10/13 9/1/9 10/1/10
f 13/5/13 7/1/7 5/1/5
f 4/1/4 13/3/13 12/1/12
f 2/1/2 6/1/6 13/6/13
f 10/1/10 1/1/1 13/9/13
f 12/1/12 13/5/13 5/1/5
f 11/1/11 8/1/8 13/8/13
f 4/1/4 3/1/3 13/2/13
f 11/1/11 13/2/13 3/1/3
f 1/1/1 93/72/93 2/1/2
f 93/72/93 1/1/1 92/72/92
f 1/1/1 10/1/10 95/72/95
f 95/72/95 92/72/92 1/1/1
f 94/72/94 10/1/10 9/1/9
f 10/1/10 94/72/94 95/72/95
f 6/1/6 2/1/2 96/73/96
f 93/73/93 96/73/96 2/1/2
f 9/1/9 8/1/8 94/73/94
f 97/73/97 94/73/94 8/1/8
g fff08f90_00205_007326c2_e2
f 116/284/116 251/285/251 250/286/250
f 116/284/116 250/286/250 115/287/115
f 114/288/114 249/289/249 248/290/248
f 114/288/114 115/287/115 249/289/249
f 103/245/103 104/246/104 114/244/114
f 103/245/103 114/244/114 113/247/113
f 102/248/102 103/245/103 113/247/113
f 102/248/102 113/247/113 112/249/112
f 114/288/114 270/291/270 113/292/113
f 249/289/249 115/287/115 250/286/250
f 139/250/139 140/251/140 150/252/150
f 150/252/150 149/253/149 139/250/139
f 119/254/119 120/255/120 130/256/130
f 130/256/130 129/257/129 119/254/119
f 44/258/44 43/259/43 33/260/33
f 33/260/33 34/261/34 44/258/44
f 53/262/53 54/263/54 64/264/64
f 64/264/64 63/265/63 53/262/53
f 43/259/43 44/258/44 54/263/54
f 54/263/54 53/262/53 43/259/43
f 105/266/105 106/267/106 116/242/116
f 105/266/105 116/242/116 115/243/115
f 104/246/104 105/266/105 115/243/115
f 104/246/104 115/243/115 114/244/114
f 62/268/62 71/269/71 61/270/61
f 61/270/61 52/271/52 62/268/62
f 63/265/63 62/268/62 52/271/52
f 52/271/52 53/262/53 63/265/63
f 32/272/32 33/260/33 43/259/43
f 43/259/43 42/273/42 32/272/32
f 41/274/41 32/272/32 42/273/42
f 42/273/42 51/275/51 41/274/41
f 42/273/42 43/259/43 53/262/53
f 53/262/53 52/271/52 42/273/42
f 51/275/51 42/273/42 52/271/52
f 52/271/52 61/270/61 51/275/51
f 128/276/128 137/277/137 127/278/127
f 127/278/127 118/279/118 128/276/128
f 129/257/129 128/276/128 118/279/118
f 118/279/118 119/254/119 129/257/129
f 148/280/148 157/281/157 147/282/147
f 147/282/147 138/283/138 148/280/148
f 149/253/149 148/280/148 138/283/138
f 138/283/138 139/250/139 149/253/149
f 114/288/114 248/290/248 270/291/270
g fff08f90_00205_007326c2_e6
f 264/211/264 265/212/265 267/213/267
f 264/211/264 267/213/267 266/214/266
f 258/231/258 257/232/257 253/217/253
f 253/217/253 254/218/254 258/231/258
f 260/229/260 261/230/261 263/221/263
f 263/221/263 262/222/262 260/229/260
f 257/216/257 258/215/258 261/220/261
f 261/220/261 260/219/260 257/216/257
f 252/223/252 253/217/253 257/232/257
f 257/232/257 256/224/256 252/223/252
f 255/225/255 252/223/252 256/224/256
f 256/224/256 259/226/259 255/225/255
f 269/228/269 266/214/266 267/213/267
f 266/214/266 269/228/269 268/227/268
f 275/234/275 276/235/276 278/236/278
f 278/236/278 277/237/277 275/234/275
f 271/238/271 272/239/272 274/240/274
f 274/240/274 273/241/273 271/238/271
