# fff0af14_00269_008fe995
o fff0af14_00269_008fe995
v 0.516659 -1.964142 -0.662033
v -1.231194 -1.964141 -0.662033
v 0.516659 1.968699 -0.662033
v -1.231194 1.968699 -0.662033
v 0.551712 -1.964142 -0.655910
v -1.257413 -1.964142 0.018201
v 0.551713 1.968697 -0.655910
v -1.257414 1.968697 0.018200
v 0.480895 -1.787834 -0.676535
v -1.205855 -1.787834 -0.047601
v 0.480895 -0.064690 -0.676535
v -1.205855 -0.064690 -0.047601
v 0.499182 -1.787834 -0.598137
v -1.187568 -1.787834 0.030796
v 0.499182 -0.064690 -0.598137
v -1.187568 -0.064690 0.030796
v 0.480895 -0.015007 -0.676535
v -1.205855 -0.015007 -0.047601
v 0.480895 1.708145 -0.676535
v -1.205855 1.708145 -0.047601
v 0.499182 -0.015007 -0.598137
v -1.187568 -0.015007 0.030796
v 0.499182 1.708145 -0.598137
v -1.187568 1.708145 0.030797
v 0.385813 -1.821106 -0.627713
v 0.191952 -1.821106 -0.555429
v 0.385813 -1.752297 -0.627713
v 0.191952 -1.752296 -0.555429
v 0.404100 -1.821106 -0.549316
v 0.210239 -1.821106 -0.477032
v 0.404100 -1.752297 -0.549316
v 0.210239 -1.752296 -0.477032
v -0.930284 -1.821106 -0.136983
v -1.124145 -1.821106 -0.064699
v -0.930284 -1.752296 -0.136983
v -1.124145 -1.752296 -0.064699
v -0.911998 -1.821106 -0.058586
v -1.105858 -1.821106 0.013698
v -0.911998 -1.752296 -0.058586
v -1.105858 -1.752296 0.013698
v 0.385813 1.673203 -0.627713
v 0.191953 1.673203 -0.555429
v 0.385813 1.742012 -0.627713
v 0.191953 1.742012 -0.555429
v 0.404100 1.673203 -0.549316
v 0.210240 1.673203 -0.477032
v 0.404100 1.742012 -0.549316
v 0.210240 1.742012 -0.477032
v -0.930284 1.673203 -0.136984
v -1.124145 1.673203 -0.064699
v -0.930284 1.742012 -0.136984
v -1.124145 1.742012 -0.064699
v -0.911997 1.673203 -0.058586
v -1.105858 1.673203 0.013698
v -0.911997 1.742012 -0.058586
v -1.105858 1.742012 0.013698
v -0.502853 0.204987 -0.174358
v -0.636335 0.204987 -0.124587
v -0.479092 0.181297 -0.158012
v -0.649279 0.181297 -0.094555
v -0.479092 0.228676 -0.158012
v -0.649279 0.228676 -0.094555
v -0.515876 0.204987 -0.230255
v -0.649357 0.204987 -0.180484
v -0.497524 0.181297 -0.237098
v -0.667711 0.181297 -0.173640
v -0.497524 0.228676 -0.237098
v -0.667711 0.228676 -0.173640
v -0.502853 -0.290169 -0.174358
v -0.636335 -0.290169 -0.124587
v -0.479092 -0.313858 -0.158012
v -0.649279 -0.313858 -0.094555
v -0.479092 -0.266479 -0.158012
v -0.649279 -0.266479 -0.094555
v -0.515876 -0.290169 -0.230255
v -0.649357 -0.290169 -0.180484
v -0.497524 -0.313858 -0.237098
v -0.667711 -0.313858 -0.173640
v -0.497524 -0.266479 -0.237098
v -0.667711 -0.266479 -0.173640
v -0.070804 0.728500 -0.335456
v -0.204285 0.728500 -0.285684
v -0.070803 0.891670 -0.335456
v -0.204285 0.891670 -0.285684
v -0.047042 0.728500 -0.319109
v -0.217229 0.728500 -0.255652
v -0.047042 0.891670 -0.319109
v -0.217229 0.891670 -0.255652
v -0.083826 0.728500 -0.391352
v -0.217307 0.728500 -0.341581
v -0.083826 0.891670 -0.391352
v -0.217307 0.891670 -0.341581
v -0.065474 0.728500 -0.398195
v -0.235661 0.728500 -0.334738
v -0.065474 0.891670 -0.398195
v -0.235661 0.891670 -0.334738
v -0.070804 -0.976860 -0.335456
v -0.204285 -0.976860 -0.285684
v -0.070804 -0.813683 -0.335456
v -0.204285 -0.813683 -0.285684
v -0.047042 -0.976860 -0.319109
v -0.217229 -0.976860 -0.255652
v -0.047042 -0.813683 -0.319109
v -0.217229 -0.813683 -0.255652
v -0.083826 -0.976860 -0.391352
v -0.217307 -0.976860 -0.341581
v -0.083826 -0.813683 -0.391352
v -0.217307 -0.813683 -0.341581
v -0.065474 -0.976860 -0.398195
v -0.235661 -0.976860 -0.334738
v -0.065474 -0.813683 -0.398195
v -0.235661 -0.813683 -0.334738
v -0.083681 -1.401779 -0.376929
v -0.211287 -1.401779 -0.329349
v -0.083681 1.372505 -0.376929
v -0.211286 1.372505 -0.329349
v -0.074326 -1.401779 -0.336825
v -0.201932 -1.401779 -0.289245
v -0.074326 1.372505 -0.336825
v -0.201932 1.372505 -0.289245
v 0.509840 -1.751984 -0.640297
v -1.214615 -1.751976 0.002696
v 0.509841 1.756538 -0.640297
v -1.214614 1.756538 0.002696
v -1.185161 0.009453 0.032884
v -1.088858 0.422905 -0.003025
v 0.492182 0.009453 -0.592543
v 0.174755 0.295425 -0.474185
v -0.159635 -0.057747 -0.349501
v -0.550192 -0.407051 -0.203875
v -1.181107 -1.792541 0.031372
v -1.080642 -0.967056 -0.006088
v -1.036599 -0.325203 -0.022510
v -1.180496 -0.057747 0.031144
v -1.181691 1.413139 0.031590
v -0.403073 0.812492 -0.226167
v -0.917528 0.812492 -0.034343
v -0.403073 1.334918 -0.226167
v -0.917528 1.334918 -0.034343
v 0.711952 -2.136587 -0.662033
v -1.311848 -2.136586 -0.662033
v 0.711952 2.141142 -0.662033
v -1.311848 2.141143 -0.662033
v -1.265445 1.968697 -0.662033
v -1.257413 1.968697 0.018201
v -1.231194 -1.964141 -0.662033
v -1.257413 -1.964142 0.018201
v -1.257413 -0.994633 0.018201
v -1.239885 -0.966183 -0.662033
v -1.311848 -1.046284 -0.662033
v -0.083681 0.711991 -0.376929
v -0.074326 0.725592 -0.336825
v -0.201932 0.540052 -0.289245
v -0.211287 0.526450 -0.329349
v -1.205855 -0.919667 -0.047601
v -1.187568 -0.893078 0.030796
v -0.852946 -0.406532 -0.093973
v -0.617843 -0.064690 -0.181635
v -0.617844 -0.064690 -0.266851
v 0.480895 1.532892 -0.676535
v 0.499182 1.559482 -0.598137
v -0.136822 0.634723 -0.360992
v -0.583674 -0.015007 -0.194376
v -0.583674 -0.015007 -0.279592
v -0.065474 0.738464 -0.398195
v -0.047042 0.765264 -0.319109
v -0.062279 0.743109 -0.313428
v -0.072326 0.728500 -0.309681
v -0.072326 0.728500 -0.334626
v -0.072326 0.728500 -0.334888
v -0.070804 0.730714 -0.335456
v -0.072326 0.728500 -0.341991
v -0.072326 0.728500 -0.395640
v -0.334818 0.346834 -0.284181
v -0.566852 0.009453 -0.197664
v -0.821863 -0.361337 -0.102578
v -0.613069 -0.057747 -0.180431
v -1.180787 -0.883218 0.031253
v -1.063152 -0.712175 -0.012609
v -1.257413 -0.994634 0.018201
v -1.214615 -0.932404 0.002696
v 0.509841 1.574980 -0.640297
v 0.551712 1.635862 -0.655910
v 0.516659 1.584893 -0.662033
v 0.711952 1.868853 -0.662033
v -1.257413 -1.489336 0.018201
v -1.235582 -1.460242 -0.662033
v -1.311848 -1.534544 -0.662033
v -0.083681 0.004416 -0.376929
v -0.074326 0.016322 -0.336825
v -0.201932 -0.146076 -0.289245
v -0.211287 -0.157981 -0.329349
v 0.480895 0.722925 -0.676535
v 0.499182 0.746197 -0.598137
v 0.167391 0.323944 -0.474424
v -0.098943 -0.015007 -0.375116
v -0.098943 -0.015007 -0.460332
v -1.205855 -1.423721 -0.047601
v -1.187568 -1.400448 0.030796
v -0.605343 -0.659478 -0.186296
v -0.137982 -0.064690 -0.360560
v -0.137981 -0.064690 -0.445776
v -0.079723 0.009453 -0.379298
v 0.147170 0.298208 -0.463899
v -1.180966 -1.392045 0.031320
v -1.123457 -1.318857 0.009877
v -1.257413 -1.489336 0.018201
v -1.214615 -1.434868 0.002696
v 0.509841 0.759763 -0.640297
v 0.551712 0.813050 -0.655910
v 0.516659 0.768439 -0.662033
v 0.711952 1.016980 -0.662033
vt 0.000000 0.000000
vt 1.000000 0.000000
vt 0.000000 1.000000
vt 1.000000 1.000000
vt 0.000000 0.000000
vt 1.000000 0.000000
vt 0.000000 0.249162
vt 1.000000 0.249162
vt 0.501775 0.002343
vt 0.501775 0.507003
vt -0.002677 0.002343
vt -0.002677 0.507003
vt 1.000000 0.000000
vt 0.000000 0.000000
vt 1.000000 1.000000
vt 1.000000 0.000000
vt 1.000000 0.000000
vt 0.000000 0.000000
vt 0.000000 0.000000
vt 0.997323 0.015335
vt 0.997323 0.208189
vt 0.192787 0.208189
vt -0.002677 0.015335
vt 0.393442 0.208189
vt 0.575557 0.015335
vt 0.393588 0.020360
vt 0.997323 0.208189
vt 2.000000 1.001513
vt 1.996974 2.000000
vt 1.000000 2.000000
vt 1.000000 1.000000
vt 2.000000 1.195864
vt 1.000000 1.195864
vt 1.000000 1.000000
vt 2.000000 1.001421
vt 2.000000 2.000000
vt 1.000000 2.000000
vt 1.000000 1.792697
vt 2.000000 1.792697
vt 1.050482 1.096834
vt 1.052563 1.610124
vt 1.000000 1.701921
vt 1.000000 1.000000
vt 2.000000 1.000000
vt 2.000000 1.701921
vt 1.949518 1.608573
vt 1.947437 1.089335
vt 2.000000 1.000000
vt 1.000000 1.000000
vt 1.000000 1.709726
vt 2.001013 1.118436
vt 1.000000 1.000000
vt 2.000000 1.000000
vt 0.504452 0.995251
vt 0.504452 1.499911
vt 0.000000 1.499911
vt 0.000000 1.499911
vt 0.000000 0.995251
vt 0.504452 0.995251
vt 1.000000 0.000000
vt 0.000000 0.000000
vt 2.000000 1.000000
vt 1.000000 1.000000
vt 2.000000 1.000000
vt 1.000000 1.000000
vt -0.085799 1.000000
vt -0.085799 1.709739
vt 0.732333 1.709729
vt 0.724479 1.000000
vt 0.000000 0.000000
vt 0.000000 0.000000
vt 0.238085 0.000000
vt 0.233182 1.000000
vt 0.114952 0.002343
vt 0.148689 0.507003
vt 0.000000 0.000000
vt 0.000000 0.000000
vt 0.503827 0.000000
vt 0.519258 1.000000
vt 1.479287 2.000000
vt 1.198383 1.801917
vt 1.000000 1.662235
vt 1.337765 1.195864
vt 1.348606 1.000495
vt 0.101705 0.000000
vt 0.086274 1.000000
vt 1.086274 1.000131
vt 1.622941 1.378001
vt 1.998057 1.642520
vt 0.641978 0.249162
vt 0.631136 0.000000
vt 0.938937 0.000000
vt 0.774691 0.000000
vt 0.388118 0.002343
vt 0.456611 0.047525
vt 0.501775 0.077319
vt 0.148567 0.249162
vt 0.010399 0.002591
vt 0.010399 0.010399
vt 0.011408 0.000000
vt 0.986431 0.000000
vt 1.000000 0.000000
vt 1.000000 0.000000
vt 0.200752 0.507003
vt 0.315822 0.002343
vt 0.660040 0.208189
vt 0.809988 0.015335
vt 0.300415 0.015335
vt 0.272467 0.208189
vt 1.753484 1.701921
vt 1.739994 1.608935
vt 1.096898 1.096446
vt 1.084630 1.000000
vt 0.084630 1.000000
vt 0.097590 0.000000
vt 0.063653 0.000000
vt 0.868913 1.709728
vt 0.860881 1.000000
vt 0.000000 0.000000
vt 0.000000 0.000000
vt 0.493132 0.000000
vt 0.488841 1.000000
vt 0.243920 0.002343
vt 0.273449 0.507003
vt 0.000000 0.000000
vt 0.000000 0.000000
vt 0.571755 0.000000
vt 0.558249 1.000000
vt 1.558249 1.000845
vt 1.803296 1.197920
vt 1.998927 1.355579
vt 0.354602 0.249162
vt 0.343760 0.000000
vt 0.211308 0.000000
vt 0.224813 1.000000
vt 1.772840 2.000000
vt 1.345176 1.655346
vt 1.000000 1.377746
vt 1.622254 1.195864
vt 1.633095 1.000900
vt 0.169321 0.002343
vt 0.008336 0.507003
vt 0.130815 0.015335
vt 0.109485 0.125999
vt 1.879272 1.701921
vt 1.868449 1.608713
vt 1.305308 1.094704
vt 1.293845 1.000000
vt 0.293845 1.000000
vt 0.305189 0.000000
vt 0.262794 0.000000
vn 0.062170 -0.682794 0.727961
vn -0.000000 -0.625334 0.780357
vn 0.085088 -0.000000 0.996373
vn 0.000000 0.000000 1.000000
vn 0.837130 -0.541527 -0.077208
vn 0.278401 -0.600047 0.749958
vn 0.995776 0.000077 -0.091820
vn 0.348178 0.001594 0.937427
vn 0.717164 -0.676530 -0.167284
vn -0.661211 -0.734174 0.154234
vn 0.717164 0.676529 -0.167285
vn -0.661211 0.734174 0.154235
vn 0.715098 -0.584366 0.383602
vn -0.388097 -0.570929 0.723478
vn 0.715098 0.584366 0.383602
vn -0.388097 0.570929 0.723478
vn 0.717163 -0.676530 -0.167285
vn -0.661211 -0.734174 0.154235
vn 0.717165 0.676529 -0.167283
vn -0.661211 0.734174 0.154236
vn 0.715098 -0.584367 0.383602
vn -0.388097 -0.570929 0.723478
vn 0.715098 0.584366 0.383603
vn -0.388096 0.570930 0.723478
vn 0.717161 -0.676531 -0.167288
vn -0.661212 -0.734174 0.154233
vn 0.717162 0.676531 -0.167288
vn -0.661211 0.734175 0.154233
vn 0.715099 -0.584367 0.383601
vn -0.388098 -0.570929 0.723478
vn 0.715099 0.584366 0.383601
vn -0.388098 0.570929 0.723478
vn 0.717164 -0.676529 -0.167283
vn -0.661211 -0.734174 0.154234
vn 0.717165 0.676529 -0.167283
vn -0.661211 0.734174 0.154234
vn 0.715097 -0.584367 0.383604
vn -0.388098 -0.570929 0.723478
vn 0.715097 0.584367 0.383604
vn -0.388098 0.570929 0.723478
vn 0.717162 -0.676531 -0.167287
vn -0.661211 -0.734174 0.154234
vn 0.717162 0.676531 -0.167286
vn -0.661212 0.734174 0.154235
vn 0.715099 -0.584366 0.383601
vn -0.388098 -0.570928 0.723478
vn 0.715097 0.584368 0.383602
vn -0.388097 0.570929 0.723478
vn 0.717164 -0.676529 -0.167283
vn -0.661211 -0.734174 0.154236
vn 0.717164 0.676529 -0.167283
vn -0.661211 0.734174 0.154236
vn 0.715097 -0.584366 0.383604
vn -0.388098 -0.570929 0.723478
vn 0.715097 0.584367 0.383605
vn -0.388098 0.570929 0.723478
vn -0.911802 0.000025 -0.410631
vn 0.541019 0.000030 -0.841010
vn 0.584102 -0.755708 0.296193
vn -0.336172 -0.723485 0.602958
vn 0.584102 0.755713 0.296179
vn -0.336177 0.723490 0.602949
vn -0.973912 0.000021 0.226928
vn 0.973911 0.000017 -0.226930
vn 0.395037 -0.914034 -0.092131
vn -0.262527 -0.962983 0.061185
vn 0.395039 0.914039 -0.092068
vn -0.262490 0.962989 0.061242
vn -0.911801 0.000026 -0.410633
vn 0.541016 0.000031 -0.841013
vn 0.584103 -0.755707 0.296193
vn -0.336172 -0.723485 0.602958
vn 0.584103 0.755713 0.296179
vn -0.336177 0.723490 0.602949
vn -0.973912 0.000021 0.226927
vn 0.973911 0.000017 -0.226930
vn 0.395036 -0.914034 -0.092133
vn -0.262531 -0.962982 0.061186
vn 0.395038 0.914040 -0.092068
vn -0.262494 0.962988 0.061243
vn -0.315689 -0.946008 0.073545
vn 0.300621 -0.951169 -0.070038
vn -0.315687 0.946009 0.073548
vn 0.300621 0.951169 -0.070038
vn 0.715055 -0.584376 0.383667
vn -0.388170 -0.570917 0.723449
vn 0.715055 0.584377 0.383666
vn -0.388170 0.570920 0.723447
vn -0.661199 -0.734225 0.154044
vn 0.717265 -0.676466 -0.167107
vn -0.661198 0.734225 0.154044
vn 0.717265 0.676466 -0.167107
vn 0.717235 -0.676484 -0.167161
vn -0.661204 -0.734209 0.154100
vn 0.717235 0.676485 -0.167160
vn -0.661204 0.734209 0.154100
vn -0.315688 -0.946009 0.073547
vn 0.300621 -0.951169 -0.070037
vn -0.315688 0.946009 0.073547
vn 0.300621 0.951169 -0.070037
vn 0.715055 -0.584377 0.383667
vn -0.388170 -0.570920 0.723446
vn 0.715054 0.584377 0.383667
vn -0.388170 0.570920 0.723446
vn -0.661199 -0.734226 0.154042
vn 0.717266 -0.676465 -0.167105
vn -0.661198 0.734227 0.154041
vn 0.717266 0.676465 -0.167105
vn 0.717236 -0.676484 -0.167158
vn -0.661204 -0.734209 0.154099
vn 0.717236 0.676484 -0.167158
vn -0.661204 0.734209 0.154099
vn 0.717164 -0.676529 -0.167286
vn -0.661210 -0.734176 0.154228
vn 0.717163 0.676530 -0.167286
vn -0.661210 0.734175 0.154232
vn 0.715098 -0.584367 0.383603
vn -0.388101 -0.570929 0.723476
vn 0.715098 0.584366 0.383603
vn -0.388099 0.570929 0.723477
vn 0.349371 -0.000000 0.936985
vn 0.345240 -0.000519 0.938514
vn 0.349317 0.000048 0.937005
vn 0.345288 0.000568 0.938497
vn 0.349371 -0.000000 0.936985
vn 0.349370 -0.000000 0.936985
vn 0.349371 0.000000 0.936984
vn 0.349371 -0.000000 0.936984
vn 0.349371 0.000001 0.936984
vn 0.349371 0.000001 0.936984
vn 0.349368 0.000000 0.936986
vn 0.349371 0.000000 0.936985
vn 0.349370 0.000001 0.936985
vn 0.349370 0.000001 0.936985
vn 0.349369 0.000000 0.936985
vn 0.349371 -0.000000 0.936984
vn 0.349371 0.000000 0.936984
vn 0.349371 -0.000000 0.936984
vn 0.349371 -0.000000 0.936984
vn 0.000000 0.000000 1.000000
vn 0.000000 -0.000000 1.000000
vn 0.000000 0.000000 1.000000
vn 0.000000 0.000000 1.000000
vn -0.475448 -0.004141 0.879734
vn -0.999952 -0.007446 0.006359
vn -0.510910 -0.002724 0.859630
vn -0.999258 0.000000 -0.038516
vn -0.999612 -0.001779 -0.027785
vn -0.715257 -0.003484 0.698853
vn 0.000000 0.000000 1.000000
vn 0.973858 -0.000000 -0.227159
vn 0.881215 -0.000000 0.472715
vn -0.472715 0.000000 0.881215
vn -0.973858 0.000000 0.227159
vn -0.973857 0.000000 0.227163
vn -0.472713 -0.000000 0.881216
vn 0.349371 0.000000 0.936985
vn 0.247042 0.707107 0.662548
vn 0.000000 1.000000 0.000000
vn 0.973858 -0.000000 -0.227158
vn 0.881215 -0.000000 0.472715
vn 0.349371 -0.000000 0.936984
vn 0.247042 -0.707107 0.662548
vn -0.000000 -1.000000 0.000000
vn 0.973899 -0.000000 -0.226980
vn 0.881170 -0.000000 0.472799
vn 0.349368 0.000002 0.936985
vn 0.247043 -0.707106 0.662549
vn 0.000000 -1.000000 0.000000
vn 0.000000 -1.000000 0.000000
vn -0.973920 0.000001 0.226891
vn -0.688664 -0.707108 0.160439
vn 0.000000 -1.000000 0.000000
vn 0.349371 -0.000000 0.936985
vn 0.349371 -0.000000 0.936985
vn 0.349371 0.000001 0.936985
vn 0.349371 0.000002 0.936985
vn 0.349370 -0.000000 0.936985
vn 0.349369 0.000000 0.936985
vn 0.340618 0.000000 0.940202
vn 0.344998 -0.000000 0.938603
vn 0.349372 -0.000000 0.936984
vn 0.995773 -0.000001 -0.091852
vn 0.996264 -0.000000 0.086359
vn 0.000000 -0.000000 1.000000
vn -0.999416 -0.001806 -0.034125
vn -0.717763 -0.004972 0.696270
vn 0.000000 0.000000 1.000000
vn 0.973858 -0.000000 -0.227157
vn 0.881215 -0.000000 0.472716
vn -0.472716 0.000000 0.881215
vn -0.973858 0.000000 0.227159
vn 0.973857 -0.000000 -0.227161
vn 0.881216 -0.000000 0.472714
vn 0.349371 -0.000000 0.936985
vn 0.247042 -0.707107 0.662548
vn -0.000000 -1.000000 0.000000
vn -0.973857 0.000000 0.227161
vn -0.472714 0.000000 0.881216
vn 0.349371 0.000000 0.936985
vn 0.247043 0.707107 0.662548
vn 0.000000 1.000000 -0.000000
vn 0.349371 0.000000 0.936985
vn 0.349372 -0.000000 0.936984
vn 0.349368 0.000000 0.936986
vn 0.349368 0.000000 0.936986
vn 0.340619 0.000000 0.940201
vn 0.344999 -0.000000 0.938603
vn 0.349371 -0.000000 0.936984
vn 0.995773 -0.000000 -0.091852
vn 0.996264 -0.000000 0.086362
vn 0.000000 -0.000000 1.000000
g fff0af14_00269_008fe995_e0
f 120/12/120 152/74/152 119/11/119
f 117/9/117 191/124/191 118/10/118
f 157/81/157 16/30/16 156/80/156
f 16/30/16 157/81/157 158/82/158
f 21/28/21 195/130/195 196/131/196
f 195/130/195 21/28/21 194/129/194
f 29/9/29 32/12/32 30/10/30
f 32/12/32 29/9/29 31/11/31
f 37/9/37 40/12/40 38/10/38
f 40/12/40 37/9/37 39/11/39
f 45/9/45 48/12/48 46/10/46
f 48/12/48 45/9/45 47/11/47
f 53/9/53 56/12/56 54/10/54
f 56/12/56 53/9/53 55/11/55
f 59/9/59 62/12/62 60/10/60
f 62/12/62 59/9/59 61/11/61
f 71/9/71 74/12/74 72/10/72
f 74/12/74 71/9/71 73/11/73
f 85/9/85 167/95/167 168/96/168
f 167/95/167 85/9/85 166/94/166
f 101/9/101 104/12/104 102/10/102
f 104/12/104 101/9/101 103/11/103
f 120/12/120 153/75/153 152/74/152
f 190/123/190 152/74/152 153/75/153
f 157/81/157 156/80/156 199/136/199
f 13/28/13 200/137/200 14/29/14
f 157/81/157 200/137/200 158/82/158
f 201/138/201 13/28/13 15/31/15
f 162/88/162 161/87/161 23/31/23
f 24/30/24 162/88/162 23/31/23
f 162/88/162 24/30/24 163/89/163
f 163/89/163 24/30/24 22/29/22
f 167/95/167 166/94/166 87/11/87
f 88/12/88 167/95/167 87/11/87
f 167/95/167 88/12/88 168/96/168
f 168/96/168 88/12/88 86/10/86
f 191/124/191 190/123/190 153/75/153
f 117/9/117 190/123/190 191/124/191
f 195/130/195 194/129/194 161/87/161
f 162/88/162 195/130/195 161/87/161
f 195/130/195 162/88/162 196/131/196
f 196/131/196 162/88/162 163/89/163
f 157/81/157 199/136/199 200/137/200
f 200/137/200 199/136/199 14/29/14
f 200/137/200 201/138/201 158/82/158
f 200/137/200 13/28/13 201/138/201
g fff0af14_00269_008fe995_e2
f 183/114/183 3/1/3 7/3/7
f 211/150/211 5/4/5 1/2/1
f 189/121/189 117/4/117 113/2/113
f 152/73/152 115/1/115 119/3/119
f 13/4/13 11/1/11 15/3/15
f 11/1/11 13/4/13 9/2/9
f 199/135/199 10/1/10 14/3/14
f 155/78/155 16/4/16 12/2/12
f 161/86/161 19/1/19 23/3/23
f 193/127/193 21/4/21 17/2/17
f 24/4/24 18/1/18 22/3/22
f 18/1/18 24/4/24 20/2/20
f 29/4/29 27/1/27 31/3/31
f 27/1/27 29/4/29 25/2/25
f 32/4/32 26/1/26 30/3/30
f 26/1/26 32/4/32 28/2/28
f 37/4/37 35/1/35 39/3/39
f 35/1/35 37/4/37 33/2/33
f 40/4/40 34/1/34 38/3/38
f 34/1/34 40/4/40 36/2/36
f 45/4/45 43/1/43 47/3/47
f 43/1/43 45/4/45 41/2/41
f 48/4/48 42/1/42 46/3/46
f 42/1/42 48/4/48 44/2/44
f 53/4/53 51/1/51 55/3/55
f 51/1/51 53/4/53 49/2/49
f 56/4/56 50/1/50 54/3/54
f 50/1/50 56/4/56 52/2/52
f 67/19/67 59/13/59 65/17/65
f 59/13/59 67/19/67 61/14/61
f 62/13/62 66/19/66 60/14/60
f 66/19/66 62/13/62 68/17/68
f 164/91/164 22/8/22 18/6/18
f 196/132/196 17/5/17 21/7/21
f 14/8/14 9/5/9 13/7/13
f 9/5/9 14/8/14 10/6/10
f 79/19/79 71/13/71 77/17/77
f 71/13/71 79/19/79 73/14/73
f 74/13/74 78/19/78 72/14/72
f 78/19/78 74/13/74 80/17/80
f 111/19/111 101/13/101 109/17/109
f 101/13/101 111/19/111 103/14/103
f 105/16/105 99/1/99 107/18/107
f 99/1/99 105/16/105 97/2/97
f 165/92/165 85/13/85 93/17/93
f 166/93/166 95/19/95 87/14/87
f 108/16/108 98/1/98 106/18/106
f 98/1/98 108/16/108 100/2/100
f 89/16/89 83/1/83 91/18/91
f 171/101/171 172/102/172 81/2/81
f 82/1/82 92/16/92 84/2/84
f 92/16/92 82/1/82 90/18/90
f 110/1/110 102/1/102 104/1/104
f 104/1/104 112/1/112 110/1/110
f 94/1/94 86/1/86 88/1/88
f 88/1/88 96/1/96 94/1/94
f 114/1/114 118/1/118 192/126/192
f 120/1/120 116/1/116 153/76/153
f 152/73/152 190/122/190 151/72/151
f 151/72/151 115/1/115 152/73/152
f 153/76/153 116/1/116 154/77/154
f 154/77/154 191/125/191 153/76/153
f 156/79/156 16/4/16 155/78/155
f 155/78/155 198/134/198 156/79/156
f 161/86/161 194/128/194 160/85/160
f 160/85/160 19/1/19 161/86/161
f 164/91/164 197/133/197 163/90/163
f 163/90/163 22/8/22 164/91/164
f 166/93/166 85/13/85 165/92/165
f 165/92/165 95/19/95 166/93/166
f 83/1/83 172/102/172 171/101/171
f 83/1/83 89/16/89 172/102/172
f 184/115/184 3/1/3 183/114/183
f 183/114/183 210/149/210 184/115/184
f 190/122/190 117/4/117 189/121/189
f 190/122/190 189/121/189 151/72/151
f 154/77/154 192/126/192 191/125/191
f 192/126/192 118/1/118 191/125/191
f 194/128/194 21/4/21 193/127/193
f 194/128/194 193/127/193 160/85/160
f 197/133/197 17/5/17 196/132/196
f 197/133/197 196/132/196 163/90/163
f 198/134/198 199/135/199 156/79/156
f 198/134/198 10/1/10 199/135/199
f 210/149/210 211/150/211 184/115/184
f 210/149/210 5/4/5 211/150/211
g fff0af14_00269_008fe995_e1
f 106/1/106 98/1/98 102/1/102
f 102/1/102 110/1/110 106/1/106
f 102/8/102 97/5/97 101/7/101
f 97/5/97 102/15/102 98/6/98
f 118/8/118 113/5/113 117/7/117
f 113/5/113 118/8/118 114/6/114
f 173/103/173 172/102/172 89/16/89
f 81/2/81 93/17/93 85/13/85
f 109/17/109 97/2/97 105/16/105
f 97/2/97 109/17/109 101/13/101
f 90/1/90 82/1/82 86/1/86
f 86/1/86 94/1/94 90/1/90
f 25/5/25 30/8/30 26/6/26
f 30/8/30 25/5/25 29/7/29
f 86/8/86 169/98/169 168/97/168
f 81/5/81 169/99/169 170/100/170
f 33/5/33 38/8/38 34/6/34
f 38/8/38 33/5/33 37/7/37
f 77/17/77 69/2/69 75/16/75
f 69/2/69 77/17/77 71/13/71
f 41/5/41 46/8/46 42/6/42
f 46/8/46 41/5/41 45/7/45
f 76/1/76 70/1/70 72/1/72
f 72/1/72 78/1/78 76/1/76
f 49/5/49 54/8/54 50/6/50
f 54/8/54 49/5/49 53/7/53
f 72/8/72 69/5/69 71/7/71
f 69/5/69 72/15/72 70/6/70
f 57/5/57 60/15/60 58/6/58
f 60/8/60 57/5/57 59/7/59
f 65/17/65 57/2/57 63/16/63
f 57/2/57 65/17/65 59/13/59
f 64/1/64 58/1/58 60/1/60
f 60/1/60 66/1/66 64/1/64
f 168/97/168 169/98/169 85/7/85
f 169/98/169 81/5/81 85/7/85
f 169/99/169 86/15/86 170/100/170
f 170/100/170 86/15/86 82/6/82
f 173/103/173 81/2/81 172/102/172
f 93/17/93 81/2/81 173/103/173
g fff0af14_00269_008fe995_e18
f 125/9/125 174/104/174 126/10/126
f 128/12/128 203/141/203 127/11/127
f 129/20/129 176/106/176 130/21/130
f 206/144/206 205/143/205 131/23/131
f 177/107/177 134/25/134 133/24/133
f 179/109/179 133/24/133 134/25/134
f 126/27/126 135/26/135 125/9/125
f 125/9/125 175/105/175 174/104/174
f 204/142/204 174/104/174 175/105/175
f 129/20/129 177/107/177 176/106/176
f 176/106/176 177/107/177 133/24/133
f 132/22/132 179/109/179 178/108/178
f 178/108/178 179/109/179 134/25/134
f 128/12/128 204/142/204 203/141/203
f 203/141/203 204/142/204 175/105/175
f 206/144/206 178/108/178 205/143/205
f 132/22/132 178/108/178 206/144/206
g fff0af14_00269_008fe995_e19
f 136/54/136 139/56/139 137/55/137
f 139/57/139 136/59/136 138/58/138
g fff0af14_00269_008fe995_e3
f 158/83/158 12/34/12 16/33/16
f 202/140/202 15/32/15 11/35/11
f 23/36/23 20/38/20 24/37/24
f 20/38/20 23/36/23 19/39/19
f 159/84/159 12/34/12 158/83/158
f 158/83/158 201/139/201 159/84/159
f 201/139/201 202/140/202 159/84/159
f 201/139/201 15/32/15 202/140/202
g fff0af14_00269_008fe995_e16
f 123/40/123 8/42/8 124/41/124
f 8/42/8 123/40/123 7/43/7
f 5/44/5 122/46/122 6/45/6
f 122/46/122 5/44/5 121/47/121
f 210/148/210 121/47/121 5/44/5
f 182/112/182 7/43/7 123/40/123
f 180/110/180 124/41/124 8/42/8
f 208/146/208 6/45/6 122/46/122
f 124/41/124 182/112/182 123/40/123
f 121/47/121 208/146/208 122/46/122
f 181/111/181 124/41/124 180/110/180
f 180/110/180 207/145/207 181/111/181
f 209/147/209 182/112/182 181/111/181
f 124/41/124 181/111/181 182/112/182
f 183/113/183 7/43/7 182/112/182
f 182/112/182 209/147/209 183/113/183
f 207/145/207 208/146/208 181/111/181
f 207/145/207 6/45/6 208/146/208
f 121/47/121 209/147/209 208/146/208
f 208/146/208 209/147/209 181/111/181
f 209/147/209 210/148/210 183/113/183
f 209/147/209 121/47/121 210/148/210
g fff0af14_00269_008fe995_e17
f 1/48/1 6/50/6 2/49/2
f 6/50/6 1/48/1 5/51/5
f 186/117/186 146/49/146 147/50/147
f 149/69/149 145/67/145 144/66/144
f 149/69/149 187/118/187 148/68/148
f 148/68/148 145/67/145 149/69/149
f 187/118/187 146/49/146 186/117/186
f 187/118/187 186/117/186 148/68/148
g fff0af14_00269_008fe995_e6
f 100/2/100 112/17/112 104/13/104
f 112/17/112 100/2/100 108/16/108
f 107/18/107 103/14/103 111/19/111
f 103/14/103 107/18/107 99/1/99
f 116/5/116 119/8/119 115/6/115
f 119/8/119 116/5/116 120/7/120
f 31/8/31 28/5/28 32/7/32
f 28/5/28 31/8/31 27/6/27
f 39/8/39 36/5/36 40/7/40
f 36/5/36 39/8/39 35/6/35
f 47/8/47 44/5/44 48/7/48
f 44/5/44 47/8/47 43/6/43
f 55/8/55 52/5/52 56/7/56
f 52/5/52 55/8/55 51/6/51
f 61/8/61 58/5/58 62/7/62
f 58/5/58 61/15/61 57/6/57
f 68/17/68 58/2/58 64/16/64
f 58/2/58 68/17/68 62/13/62
f 61/14/61 63/18/63 57/1/57
f 63/18/63 61/14/61 67/19/67
f 73/8/73 70/5/70 74/7/74
f 70/5/70 73/15/73 69/6/69
f 80/17/80 70/2/70 76/16/76
f 70/2/70 80/17/80 74/13/74
f 73/14/73 75/18/75 69/1/69
f 75/18/75 73/14/73 79/19/79
f 87/8/87 84/5/84 88/7/88
f 84/5/84 87/15/87 83/6/83
f 96/17/96 84/2/84 92/16/92
f 84/2/84 96/17/96 88/13/88
f 87/14/87 91/18/91 83/1/83
f 91/18/91 87/14/87 95/19/95
f 103/8/103 100/5/100 104/7/104
f 100/5/100 103/15/103 99/6/99
g fff0af14_00269_008fe995_e14
f 184/115/184 142/61/142 3/1/3
f 212/151/212 1/2/1 140/60/140
f 141/63/141 140/62/140 1/48/1
f 1/48/1 2/49/2 141/63/141
f 3/53/3 143/65/143 4/52/4
f 143/65/143 3/53/3 142/64/142
f 141/1/141 146/1/146 187/119/187
f 144/1/144 143/1/143 150/71/150
f 188/120/188 149/70/149 150/71/150
f 144/1/144 150/71/150 149/70/149
f 185/116/185 142/61/142 184/115/184
f 184/115/184 211/150/211 185/116/185
f 141/1/141 187/119/187 188/120/188
f 187/119/187 149/70/149 188/120/188
f 211/150/211 212/151/212 185/116/185
f 211/150/211 1/2/1 212/151/212
