# fff002fb_00004_000303f7
o fff002fb_00004_000303f7
v -6.661205 -0.529754 -0.171997
v 5.633098 -0.504999 -0.269480
v -6.660851 0.532142 -0.171997
v -6.663106 -0.529754 0.381615
v 5.631197 -0.504999 0.256834
v -6.663249 0.441323 0.280713
v 5.631978 0.634532 0.319250
v -6.697499 -0.584668 -0.201599
v 5.669561 -0.600100 -0.270606
v -6.696794 0.600811 -0.153683
v -6.656667 -0.556200 0.426369
v 5.624731 -0.583387 0.370290
v -6.651192 0.469786 0.443212
v 5.598550 0.651253 0.386218
v 2.731716 0.597216 0.583418
v 2.795846 -0.579742 0.671923
v 2.672945 -0.633533 -0.150707
v -4.384966 0.703959 0.497265
v -4.408352 -0.637508 0.336666
v -5.316976 -0.628369 -0.131568
v 2.724772 0.511855 0.406731
v -4.424695 0.639751 0.320484
v -4.374129 -0.591203 0.347679
v 2.641569 -0.659837 0.476952
v 0.898152 -0.644456 0.315121
v 0.917822 -0.647554 0.467166
v 1.026798 0.656832 0.482909
v 0.867648 -0.662213 -0.105991
v 0.912355 -0.628959 0.454581
v 0.981632 0.217741 0.410434
v 1.028503 0.552492 -0.193671
v -2.149515 -0.624428 -0.142227
v -2.126806 -0.633004 0.222871
v -2.147635 -0.638096 0.509661
v -2.149319 0.709933 0.518028
v -2.153771 -0.523860 -0.213289
v -2.115169 -0.631486 0.409807
v -2.116116 0.307323 0.369653
v -2.115986 0.648334 0.362684
v 0.903751 -0.581708 -0.118873
v 0.914361 -0.609336 0.457753
v 1.025975 0.650322 0.374814
v 0.867457 -0.636622 -0.126924
v 0.875209 -0.645481 0.572280
v 0.969522 0.682912 0.464849
v -6.777042 -0.593247 -0.171886
v -6.775872 0.634542 -0.160850
v -6.732634 -0.562286 0.479366
v -6.750956 0.469534 0.365518
v -4.393310 0.835929 0.477792
v -4.393730 -0.651412 0.440824
v -5.381933 -0.641472 -0.095721
v -2.126800 -0.638431 -0.107314
v -2.102102 -0.647757 0.289760
v -2.093421 -0.653090 0.461562
v -2.095034 0.779782 0.470308
v 0.867648 -0.662213 0.034065
v 5.743041 -0.618232 -0.376800
v 5.696821 -0.601000 0.271296
v 5.669642 0.700350 0.345210
v 2.736177 0.683608 0.478577
v 2.758229 -0.668694 0.589001
v 2.653542 -0.652701 -0.232525
v 0.823737 -0.663962 0.328007
v 0.844017 -0.667157 0.489636
v 0.955833 0.759590 0.410537
v 0.792287 -0.682270 -0.010188
v 0.996821 0.582361 -0.153372
v 39.728447 -0.225494 -0.171997
v 52.022743 -0.200739 -0.269480
v 39.728798 0.836402 -0.171997
v 39.726543 -0.225494 0.381615
v 52.020844 -0.200739 0.256834
v 39.726402 0.745583 0.280713
v 52.021626 0.938792 0.319250
v 39.692150 -0.280408 -0.201599
v 52.059208 -0.295840 -0.270606
v 39.692856 0.905071 -0.153683
v 39.732983 -0.251940 0.426369
v 52.014378 -0.279127 0.370290
v 39.738457 0.774046 0.443212
v 51.988197 0.955513 0.386218
v 49.121365 0.901477 0.583418
v 49.185493 -0.275481 0.671923
v 49.062592 -0.329273 -0.150707
v 42.004684 1.008219 0.497265
v 41.981297 -0.333248 0.336666
v 41.072674 -0.324108 -0.131568
v 49.114422 0.816115 0.406731
v 41.964954 0.944011 0.320484
v 42.015522 -0.286942 0.347679
v 49.031216 -0.355576 0.476952
v 47.287800 -0.340196 0.315121
v 47.307468 -0.343294 0.467166
v 47.416447 0.961092 0.482909
v 47.257298 -0.357953 -0.105991
v 47.302002 -0.324698 0.454581
v 47.371281 0.522002 0.410434
v 47.418152 0.856752 -0.193671
v 44.240135 -0.320168 -0.142227
v 44.262844 -0.328744 0.222871
v 44.242016 -0.333835 0.509661
v 44.240330 1.014193 0.518028
v 44.235878 -0.219600 -0.213289
v 44.274479 -0.327225 0.409807
v 44.273533 0.611583 0.369653
v 44.273663 0.952594 0.362684
v 47.293400 -0.277447 -0.118873
v 47.304008 -0.305076 0.457753
v 47.415623 0.954582 0.374814
v 47.257107 -0.332361 -0.126924
v 47.264858 -0.341221 0.572280
v 47.359169 0.987172 0.464849
v 39.612610 -0.288986 -0.171886
v 39.613777 0.938802 -0.160850
v 39.657017 -0.258025 0.479366
v 39.638695 0.773794 0.365518
v 41.996342 1.140189 0.477792
v 41.995918 -0.347152 0.440824
v 41.007717 -0.337211 -0.095721
v 44.262848 -0.334170 -0.107314
v 44.287548 -0.343497 0.289760
v 44.296227 -0.348829 0.461562
v 44.294617 1.084042 0.470308
v 47.257298 -0.357953 0.034065
v 52.132687 -0.313972 -0.376800
v 52.086468 -0.296740 0.271296
v 52.059288 1.004611 0.345210
v 49.125824 0.987868 0.478577
v 49.147877 -0.364433 0.589001
v 49.043190 -0.348441 -0.232525
v 47.213387 -0.359702 0.328007
v 47.233665 -0.362896 0.489636
v 47.345482 1.063850 0.410537
v 47.181934 -0.378010 -0.010188
v 47.386471 0.886621 -0.153372
v 19.570730 -0.357757 -0.171997
v 31.865030 -0.333002 -0.269480
v 19.571085 0.704139 -0.171997
v 19.568829 -0.357757 0.381615
v 31.863129 -0.333002 0.256834
v 19.568687 0.613320 0.280713
v 31.863911 0.806529 0.319250
v 19.534435 -0.412671 -0.201599
v 31.901493 -0.428103 -0.270606
v 19.535141 0.772808 -0.153683
v 19.575268 -0.384203 0.426369
v 31.856663 -0.411390 0.370290
v 19.580744 0.641783 0.443212
v 31.830482 0.823250 0.386218
v 28.963650 0.769213 0.583418
v 29.027779 -0.407744 0.671923
v 28.904879 -0.461536 -0.150707
v 21.846970 0.875956 0.497265
v 21.823584 -0.465511 0.336666
v 20.914959 -0.456371 -0.131568
v 28.956705 0.683852 0.406731
v 21.807240 0.811748 0.320484
v 21.857807 -0.419206 0.347679
v 28.873503 -0.487839 0.476952
v 27.130085 -0.472459 0.315121
v 27.149755 -0.475557 0.467166
v 27.258732 0.828829 0.482909
v 27.099581 -0.490216 -0.105991
v 27.144289 -0.456962 0.454581
v 27.213566 0.389738 0.410434
v 27.260437 0.724489 -0.193671
v 24.082420 -0.452431 -0.142227
v 24.105129 -0.461007 0.222871
v 24.084299 -0.466099 0.509661
v 24.082615 0.881930 0.518028
v 24.078163 -0.351863 -0.213289
v 24.116766 -0.459488 0.409807
v 24.115818 0.479320 0.369653
v 24.115948 0.820331 0.362684
v 27.135685 -0.409711 -0.118873
v 27.146294 -0.437339 0.457753
v 27.257908 0.822318 0.374814
v 27.099390 -0.464625 -0.126924
v 27.107141 -0.473484 0.572280
v 27.201456 0.854909 0.464849
v 19.454893 -0.421249 -0.171886
v 19.456062 0.806539 -0.160850
v 19.499302 -0.390288 0.479366
v 19.480980 0.641531 0.365518
v 21.838625 1.007926 0.477792
v 21.838205 -0.479415 0.440824
v 20.850002 -0.469474 -0.095721
v 24.105135 -0.466433 -0.107314
v 24.129833 -0.475760 0.289760
v 24.138514 -0.481092 0.461562
v 24.136900 0.951778 0.470308
v 27.099581 -0.490216 0.034065
v 31.974972 -0.446235 -0.376800
v 31.928753 -0.429003 0.271296
v 31.901573 0.872347 0.345210
v 28.968109 0.855604 0.478577
v 28.990162 -0.496697 0.589001
v 28.885475 -0.480704 -0.232525
v 27.055670 -0.491965 0.328007
v 27.075951 -0.495159 0.489636
v 27.187767 0.931586 0.410537
v 27.024221 -0.510273 -0.010188
v 27.228754 0.754358 -0.153372
v 5.910330 -0.447235 -0.171997
v 18.204630 -0.422480 -0.269480
v 5.910685 0.614661 -0.171997
v 5.908429 -0.447235 0.381615
v 18.202728 -0.422480 0.256834
v 5.908286 0.523842 0.280713
v 18.203510 0.717052 0.319250
v 5.874036 -0.502149 -0.201599
v 18.241093 -0.517581 -0.270606
v 5.874742 0.683330 -0.153683
v 5.914868 -0.473681 0.426369
v 18.196262 -0.500867 0.370290
v 5.920343 0.552305 0.443212
v 18.170082 0.733772 0.386218
v 15.303249 0.679736 0.583418
v 15.367379 -0.497222 0.671923
v 15.244478 -0.551013 -0.150707
v 8.186569 0.786478 0.497265
v 8.163183 -0.554989 0.336666
v 7.254559 -0.545849 -0.131568
v 15.296305 0.594375 0.406731
v 8.146839 0.722270 0.320484
v 8.197406 -0.508683 0.347679
v 15.213102 -0.577317 0.476952
v 13.469685 -0.561936 0.315121
v 13.489355 -0.565034 0.467166
v 13.598331 0.739351 0.482909
v 13.439180 -0.579694 -0.105991
v 13.483888 -0.546439 0.454581
v 13.553164 0.300261 0.410434
v 13.600037 0.635011 -0.193671
v 10.422019 -0.541909 -0.142227
v 10.444728 -0.550484 0.222871
v 10.423899 -0.555576 0.509661
v 10.422215 0.792452 0.518028
v 10.417763 -0.441341 -0.213289
v 10.456366 -0.548966 0.409807
v 10.455418 0.389843 0.369653
v 10.455548 0.730853 0.362684
v 13.475284 -0.499188 -0.118873
v 13.485894 -0.526817 0.457753
v 13.597507 0.732841 0.374814
v 13.438990 -0.554102 -0.126924
v 13.446742 -0.562961 0.572280
v 13.541056 0.765431 0.464849
v 5.794493 -0.510727 -0.171886
v 5.795663 0.717061 -0.160850
v 5.838902 -0.479766 0.479366
v 5.820580 0.552053 0.365518
v 8.178225 0.918448 0.477792
v 8.177805 -0.568892 0.440824
v 7.189602 -0.558952 -0.095721
v 10.444735 -0.555911 -0.107314
v 10.469432 -0.565238 0.289760
v 10.478113 -0.570570 0.461562
v 10.476500 0.862301 0.470308
v 13.439180 -0.579694 0.034065
v 18.314571 -0.535712 -0.376800
v 18.268353 -0.518481 0.271296
v 18.241173 0.782870 0.345210
v 15.307709 0.766127 0.478577
v 15.329762 -0.586174 0.589001
v 15.225074 -0.570181 -0.232525
v 13.395269 -0.581443 0.328007
v 13.415549 -0.584637 0.489636
v 13.527367 0.842109 0.410537
v 13.363820 -0.599751 -0.010188
v 13.568355 0.664880 -0.153372
vt 0.892221 1.074267
vt 2.063515 1.074267
vt 0.892224 1.775009
vt 2.063515 1.775014
vt -12.579004 1.054308
vt 2.275139 1.054308
vt -12.581860 1.620894
vt 2.272283 1.620895
vt -10.813668 1.589767
vt 2.265542 1.590180
vt -10.813135 1.952027
vt 2.266074 1.952440
vt 3.889945 5.487882
vt -9.540026 5.365631
vt -9.436057 3.936496
vt 3.922498 3.781281
vt -2.784894 3.908591
vt -2.856009 5.817019
vt -9.164387 3.553851
vt 3.397206 3.231808
vt 0.386434 3.462367
vt -0.070941 3.200675
vt -5.911213 5.555391
vt -6.038408 4.391889
vt -7.169391 3.242031
vt -1.522199 3.916481
vt -1.446940 5.785492
vt -5.880999 4.132151
vt -9.159656 4.184825
vt 3.480078 3.856680
vt 0.305192 3.886839
vt 0.569526 3.886945
vt 3.637308 3.856580
vt -5.916015 3.962283
vt 0.168848 3.899493
vt -6.037171 3.914846
vt -1.168685 1.961981
vt -7.450939 1.952133
vt -8.674908 1.620894
vt -7.373560 1.589875
vt -1.861681 1.683056
vt -1.289901 1.599717
vt -2.367256 3.214054
vt -2.143900 3.675564
vt -2.235570 3.684072
vt -2.217868 3.905398
vt -2.453434 3.683342
vt -4.866719 1.054308
vt -4.370696 1.660164
vt -3.530247 1.596093
vt -3.431096 1.826304
vt -3.384522 1.958508
vt -3.524168 3.220794
vt -3.167267 3.587281
vt -3.240270 3.594057
vt -3.105885 3.907594
vt -2.954814 4.079050
vt -2.880278 5.576114
vt -6.287075 1.054308
vt -5.400486 1.650769
vt -4.449767 1.594605
vt -4.396784 1.856532
vt -4.377052 1.956952
vt -8.213877 3.979883
vt -11.842690 3.790123
vt -11.738721 2.360988
vt -8.341072 2.816381
vt -5.182941 4.000606
vt -5.257478 2.503542
vt -8.183662 2.556643
vt -11.462319 2.609317
vt -11.467051 1.978343
vt -5.826832 1.645286
vt -5.469931 2.011773
vt -9.472055 1.666523
vt -5.542934 2.018549
vt -5.408548 2.332086
vt -8.218679 2.386775
vt -8.339835 2.339338
vt -5.158673 4.241511
vt -5.087558 2.333083
vt -3.824863 2.340973
vt -3.749604 4.209984
vt 0.490069 3.729558
vt 3.601530 3.928898
vt 3.530375 5.413416
vt 0.490069 3.729558
vt 0.283153 5.597744
vt -2.020658 3.984278
vt 0.283153 5.597744
vt 0.490069 3.729558
vt 3.530375 5.413416
vt -2.020658 3.984278
vt 0.283153 5.597744
vt -1.907994 5.582762
vt 0.212324 5.606656
vt -2.273768 5.526401
vt 0.892221 1.074267
vt 2.063515 1.074267
vt 0.892224 1.775009
vt 2.063515 1.775014
vt -12.579004 1.054308
vt 2.275139 1.054308
vt -12.581860 1.620894
vt 2.272283 1.620895
vt -10.813668 1.589767
vt 2.265542 1.590180
vt -10.813135 1.952027
vt 2.266074 1.952440
vt 3.889945 5.487882
vt -9.540026 5.365631
vt -9.436057 3.936496
vt 3.922498 3.781281
vt -2.784894 3.908591
vt -2.856009 5.817019
vt -9.164387 3.553851
vt 3.397206 3.231808
vt 0.386434 3.462367
vt -0.070941 3.200675
vt -5.911213 5.555391
vt -6.038408 4.391889
vt -7.169391 3.242031
vt -1.522199 3.916481
vt -1.446940 5.785492
vt -5.880999 4.132151
vt -9.159656 4.184825
vt 3.480078 3.856680
vt 0.305192 3.886839
vt 0.569526 3.886945
vt 3.637308 3.856580
vt -5.916015 3.962283
vt 0.168848 3.899493
vt -6.037171 3.914846
vt -1.168685 1.961981
vt -7.450939 1.952133
vt -8.674908 1.620894
vt -7.373560 1.589875
vt -1.861681 1.683056
vt -1.289901 1.599717
vt -2.367256 3.214054
vt -2.143900 3.675564
vt -2.235570 3.684072
vt -2.217868 3.905398
vt -2.453434 3.683342
vt -4.866719 1.054308
vt -4.370696 1.660164
vt -3.530247 1.596093
vt -3.431096 1.826304
vt -3.384522 1.958508
vt -3.524168 3.220794
vt -3.167267 3.587281
vt -3.240270 3.594057
vt -3.105885 3.907594
vt -2.954814 4.079050
vt -2.880278 5.576114
vt -6.287075 1.054308
vt -5.400486 1.650769
vt -4.449767 1.594605
vt -4.396784 1.856532
vt -4.377052 1.956952
vt -8.213877 3.979883
vt -11.842690 3.790123
vt -11.738721 2.360988
vt -8.341072 2.816381
vt -5.182941 4.000606
vt -5.257478 2.503542
vt -8.183662 2.556643
vt -11.462319 2.609317
vt -11.467051 1.978343
vt -5.826832 1.645286
vt -5.469931 2.011773
vt -9.472055 1.666523
vt -5.542934 2.018549
vt -5.408548 2.332086
vt -8.218679 2.386775
vt -8.339835 2.339338
vt -5.158673 4.241511
vt -5.087558 2.333083
vt -3.824863 2.340973
vt -3.749604 4.209984
vt 0.490069 3.729558
vt 3.601530 3.928898
vt 3.530375 5.413416
vt 0.490069 3.729558
vt 0.283153 5.597744
vt -2.020658 3.984278
vt 0.283153 5.597744
vt 0.490069 3.729558
vt 3.530375 5.413416
vt -2.020658 3.984278
vt 0.283153 5.597744
vt -1.907994 5.582762
vt 0.212324 5.606656
vt -2.273768 5.526401
vt 0.892221 1.074267
vt 2.063515 1.074267
vt 0.892224 1.775009
vt 2.063515 1.775014
vt -12.579004 1.054308
vt 2.275139 1.054308
vt -12.581860 1.620894
vt 2.272283 1.620895
vt -10.813668 1.589767
vt 2.265542 1.590180
vt -10.813135 1.952027
vt 2.266074 1.952440
vt 3.889945 5.487882
vt -9.540026 5.365631
vt -9.436057 3.936496
vt 3.922498 3.781281
vt -2.784894 3.908591
vt -2.856009 5.817019
vt -9.164387 3.553851
vt 3.397206 3.231808
vt 0.386434 3.462367
vt -0.070941 3.200675
vt -5.911213 5.555391
vt -6.038408 4.391889
vt -7.169391 3.242031
vt -1.522199 3.916481
vt -1.446940 5.785492
vt -5.880999 4.132151
vt -9.159656 4.184825
vt 3.480078 3.856680
vt 0.305192 3.886839
vt 0.569526 3.886945
vt 3.637308 3.856580
vt -5.916015 3.962283
vt 0.168848 3.899493
vt -6.037171 3.914846
vt -1.168685 1.961981
vt -7.450939 1.952133
vt -8.674908 1.620894
vt -7.373560 1.589875
vt -1.861681 1.683056
vt -1.289901 1.599717
vt -2.367256 3.214054
vt -2.143900 3.675564
vt -2.235570 3.684072
vt -2.217868 3.905398
vt -2.453434 3.683342
vt -4.866719 1.054308
vt -4.370696 1.660164
vt -3.530247 1.596093
vt -3.431096 1.826304
vt -3.384522 1.958508
vt -3.524168 3.220794
vt -3.167267 3.587281
vt -3.240270 3.594057
vt -3.105885 3.907594
vt -2.954814 4.079050
vt -2.880278 5.576114
vt -6.287075 1.054308
vt -5.400486 1.650769
vt -4.449767 1.594605
vt -4.396784 1.856532
vt -4.377052 1.956952
vt -8.213877 3.979883
vt -11.842690 3.790123
vt -11.738721 2.360988
vt -8.341072 2.816381
vt -5.182941 4.000606
vt -5.257478 2.503542
vt -8.183662 2.556643
vt -11.462319 2.609317
vt -11.467051 1.978343
vt -5.826832 1.645286
vt -5.469931 2.011773
vt -9.472055 1.666523
vt -5.542934 2.018549
vt -5.408548 2.332086
vt -8.218679 2.386775
vt -8.339835 2.339338
vt -5.158673 4.241511
vt -5.087558 2.333083
vt -3.824863 2.340973
vt -3.749604 4.209984
vt 0.490069 3.729558
vt 3.601530 3.928898
vt 3.530375 5.413416
vt 0.490069 3.729558
vt 0.283153 5.597744
vt -2.020658 3.984278
vt 0.283153 5.597744
vt 0.490069 3.729558
vt 3.530375 5.413416
vt -2.020658 3.984278
vt 0.283153 5.597744
vt -1.907994 5.582762
vt 0.212324 5.606656
vt -2.273768 5.526401
vt 0.892221 1.074267
vt 2.063515 1.074267
vt 0.892224 1.775009
vt 2.063515 1.775014
vt -12.579004 1.054308
vt 2.275139 1.054308
vt -12.581860 1.620894
vt 2.272283 1.620895
vt -10.813668 1.589767
vt 2.265542 1.590180
vt -10.813135 1.952027
vt 2.266074 1.952440
vt 3.889945 5.487882
vt -9.540026 5.365631
vt -9.436057 3.936496
vt 3.922498 3.781281
vt -2.784894 3.908591
vt -2.856009 5.817019
vt -9.164387 3.553851
vt 3.397206 3.231808
vt 0.386434 3.462367
vt -0.070941 3.200675
vt -5.911213 5.555391
vt -6.038408 4.391889
vt -7.169391 3.242031
vt -1.522199 3.916481
vt -1.446940 5.785492
vt -5.880999 4.132151
vt -9.159656 4.184825
vt 3.480078 3.856680
vt 0.305192 3.886839
vt 0.569526 3.886945
vt 3.637308 3.856580
vt -5.916015 3.962283
vt 0.168848 3.899493
vt -6.037171 3.914846
vt -1.168685 1.961981
vt -7.450939 1.952133
vt -8.674908 1.620894
vt -7.373560 1.589875
vt -1.861681 1.683056
vt -1.289901 1.599717
vt -2.367256 3.214054
vt -2.143900 3.675564
vt -2.235570 3.684072
vt -2.217868 3.905398
vt -2.453434 3.683342
vt -4.866719 1.054308
vt -4.370696 1.660164
vt -3.530247 1.596093
vt -3.431096 1.826304
vt -3.384522 1.958508
vt -3.524168 3.220794
vt -3.167267 3.587281
vt -3.240270 3.594057
vt -3.105885 3.907594
vt -2.954814 4.079050
vt -2.880278 5.576114
vt -6.287075 1.054308
vt -5.400486 1.650769
vt -4.449767 1.594605
vt -4.396784 1.856532
vt -4.377052 1.956952
vt -8.213877 3.979883
vt -11.842690 3.790123
vt -11.738721 2.360988
vt -8.341072 2.816381
vt -5.182941 4.000606
vt -5.257478 2.503542
vt -8.183662 2.556643
vt -11.462319 2.609317
vt -11.467051 1.978343
vt -5.826832 1.645286
vt -5.469931 2.011773
vt -9.472055 1.666523
vt -5.542934 2.018549
vt -5.408548 2.332086
vt -8.218679 2.386775
vt -8.339835 2.339338
vt -5.158673 4.241511
vt -5.087558 2.333083
vt -3.824863 2.340973
vt -3.749604 4.209984
vt 0.490069 3.729558
vt 3.601530 3.928898
vt 3.530375 5.413416
vt 0.490069 3.729558
vt 0.283153 5.597744
vt -2.020658 3.984278
vt 0.283153 5.597744
vt 0.490069 3.729558
vt 3.530375 5.413416
vt -2.020658 3.984278
vt 0.283153 5.597744
vt -1.907994 5.582762
vt 0.212324 5.606656
vt -2.273768 5.526401
vn -0.712831 -0.701179 -0.014812
vn 0.048755 -0.998741 -0.011777
vn -0.999989 -0.000346 -0.004738
vn -0.582816 -0.543769 0.603855
vn 0.087725 -0.729534 0.678295
vn -0.758676 0.067220 0.647991
vn 0.064607 -0.027728 0.997525
vn -0.722310 -0.687154 0.078028
vn 0.012229 -0.999563 0.026922
vn -0.997353 0.001848 0.072682
vn -0.567293 -0.562834 0.601162
vn 0.076953 -0.739023 0.669271
vn -0.704394 -0.007893 0.709765
vn 0.096312 0.011715 0.995282
vn -0.015158 0.058531 0.998170
vn -0.001524 -0.634057 0.773285
vn 0.014859 -0.998062 0.060425
vn 0.004549 -0.105463 0.994413
vn -0.001922 -0.761105 0.648626
vn -0.028693 -0.998933 0.036195
vn 0.010028 0.060838 0.998097
vn -0.006907 0.032415 0.999451
vn -0.015078 -0.718957 0.694891
vn 0.030047 -0.712423 0.701107
vn 0.028887 -0.999239 0.026226
vn -0.019828 -0.784555 0.619742
vn -0.059096 -0.007111 0.998227
vn -0.007414 -0.999618 0.026636
vn -0.021738 -0.700775 0.713051
vn -0.011139 0.067202 0.997677
vn -0.995604 0.093320 -0.008011
vn 0.001164 -0.999722 -0.023555
vn 0.000817 -0.999791 -0.020430
vn -0.053903 -0.715023 0.697020
vn -0.053356 -0.044818 0.997569
vn -0.000271 -0.985411 -0.170190
vn -0.022710 -0.728709 0.684447
vn -0.021502 0.029039 0.999347
vn -0.018348 0.020435 0.999623
vn -0.993558 0.110839 0.023593
vn -0.994562 0.103614 0.010532
vn -0.684225 0.120195 0.719298
vn -0.994312 0.105790 0.012364
vn -0.995559 0.093790 -0.008148
vn -0.996295 0.066305 -0.054778
vn -0.731800 -0.676559 0.082075
vn -0.998567 -0.007745 0.052962
vn -0.567699 -0.532325 0.627972
vn -0.761518 0.057708 0.645569
vn -0.001588 -0.007467 0.999971
vn 0.000175 -0.723791 0.690019
vn -0.031415 -0.998742 0.039077
vn 0.000850 -0.999723 -0.023535
vn 0.001345 -0.999614 -0.027742
vn -0.005522 -0.706207 0.707984
vn -0.004770 -0.012938 0.999905
vn 0.022062 -0.997915 0.060655
vn 0.012434 -0.999546 0.027463
vn 0.079725 -0.753083 0.653078
vn 0.091391 -0.017050 0.995669
vn -0.001131 0.076662 0.997057
vn 0.012019 -0.676420 0.736418
vn 0.010832 -0.999854 -0.013193
vn 0.009827 -0.999882 0.011810
vn -0.028601 -0.748486 0.662533
vn -0.035649 0.058105 0.997674
vn 0.022072 -0.998403 0.051995
vn -0.996336 0.078160 -0.034726
vn -0.712829 -0.701182 -0.014816
vn 0.048755 -0.998741 -0.011777
vn -0.999989 -0.000346 -0.004735
vn -0.582817 -0.543769 0.603854
vn 0.087725 -0.729533 0.678296
vn -0.758673 0.067221 0.647994
vn 0.064607 -0.027729 0.997525
vn -0.722310 -0.687154 0.078028
vn 0.012229 -0.999563 0.026922
vn -0.997354 0.001848 0.072680
vn -0.567294 -0.562834 0.601162
vn 0.076953 -0.739023 0.669271
vn -0.704395 -0.007894 0.709764
vn 0.096312 0.011715 0.995282
vn -0.015158 0.058531 0.998170
vn -0.001524 -0.634057 0.773285
vn 0.014859 -0.998062 0.060425
vn 0.004549 -0.105463 0.994413
vn -0.001922 -0.761105 0.648626
vn -0.028693 -0.998933 0.036195
vn 0.010028 0.060838 0.998097
vn -0.006907 0.032415 0.999451
vn -0.015078 -0.718957 0.694891
vn 0.030047 -0.712423 0.701107
vn 0.028887 -0.999239 0.026226
vn -0.019828 -0.784554 0.619744
vn -0.059096 -0.007111 0.998227
vn -0.007414 -0.999618 0.026636
vn -0.021738 -0.700774 0.713052
vn -0.011139 0.067202 0.997677
vn -0.995604 0.093320 -0.008013
vn 0.001164 -0.999722 -0.023555
vn 0.000817 -0.999791 -0.020430
vn -0.053903 -0.715023 0.697020
vn -0.053356 -0.044818 0.997569
vn -0.000271 -0.985411 -0.170190
vn -0.022710 -0.728709 0.684447
vn -0.021502 0.029039 0.999347
vn -0.018348 0.020435 0.999623
vn -0.993558 0.110838 0.023590
vn -0.994562 0.103614 0.010530
vn -0.684226 0.120195 0.719296
vn -0.994312 0.105789 0.012364
vn -0.995559 0.093789 -0.008150
vn -0.996294 0.066303 -0.054782
vn -0.731799 -0.676561 0.082073
vn -0.998567 -0.007746 0.052962
vn -0.567699 -0.532325 0.627971
vn -0.761518 0.057708 0.645570
vn -0.001588 -0.007467 0.999971
vn 0.000175 -0.723791 0.690019
vn -0.031415 -0.998742 0.039077
vn 0.000850 -0.999723 -0.023535
vn 0.001345 -0.999614 -0.027742
vn -0.005522 -0.706210 0.707981
vn -0.004770 -0.012938 0.999905
vn 0.022062 -0.997915 0.060655
vn 0.012434 -0.999545 0.027463
vn 0.079725 -0.753082 0.653078
vn 0.091391 -0.017050 0.995669
vn -0.001131 0.076662 0.997057
vn 0.012019 -0.676420 0.736418
vn 0.010832 -0.999854 -0.013193
vn 0.009827 -0.999882 0.011810
vn -0.028601 -0.748485 0.662534
vn -0.035649 0.058105 0.997674
vn 0.022072 -0.998403 0.051995
vn -0.996336 0.078158 -0.034729
vn -0.712831 -0.701180 -0.014813
vn 0.048755 -0.998741 -0.011777
vn -0.999989 -0.000345 -0.004737
vn -0.582816 -0.543769 0.603855
vn 0.087725 -0.729534 0.678295
vn -0.758675 0.067221 0.647992
vn 0.064607 -0.027729 0.997526
vn -0.722309 -0.687154 0.078028
vn 0.012229 -0.999563 0.026922
vn -0.997353 0.001849 0.072683
vn -0.567294 -0.562834 0.601162
vn 0.076953 -0.739023 0.669271
vn -0.704394 -0.007893 0.709766
vn 0.096312 0.011715 0.995282
vn -0.015158 0.058531 0.998170
vn -0.001524 -0.634057 0.773285
vn 0.014859 -0.998062 0.060425
vn 0.004549 -0.105463 0.994413
vn -0.001923 -0.761105 0.648626
vn -0.028693 -0.998933 0.036195
vn 0.010028 0.060838 0.998097
vn -0.006907 0.032415 0.999451
vn -0.015078 -0.718957 0.694891
vn 0.030047 -0.712423 0.701107
vn 0.028887 -0.999239 0.026226
vn -0.019828 -0.784556 0.619741
vn -0.059096 -0.007111 0.998227
vn -0.007414 -0.999618 0.026636
vn -0.021738 -0.700775 0.713051
vn -0.011139 0.067202 0.997677
vn -0.995604 0.093320 -0.008013
vn 0.001164 -0.999722 -0.023555
vn 0.000817 -0.999791 -0.020430
vn -0.053903 -0.715024 0.697019
vn -0.053356 -0.044818 0.997569
vn -0.000271 -0.985411 -0.170190
vn -0.022710 -0.728709 0.684447
vn -0.021502 0.029039 0.999347
vn -0.018348 0.020435 0.999623
vn -0.993558 0.110838 0.023590
vn -0.994562 0.103614 0.010530
vn -0.684226 0.120195 0.719296
vn -0.994312 0.105789 0.012364
vn -0.995559 0.093790 -0.008148
vn -0.996295 0.066306 -0.054776
vn -0.731800 -0.676559 0.082075
vn -0.998567 -0.007745 0.052963
vn -0.567699 -0.532325 0.627972
vn -0.761518 0.057708 0.645570
vn -0.001588 -0.007467 0.999971
vn 0.000175 -0.723791 0.690019
vn -0.031415 -0.998742 0.039077
vn 0.000850 -0.999723 -0.023535
vn 0.001345 -0.999614 -0.027742
vn -0.005522 -0.706208 0.707983
vn -0.004770 -0.012938 0.999905
vn 0.022062 -0.997915 0.060655
vn 0.012434 -0.999545 0.027463
vn 0.079725 -0.753082 0.653078
vn 0.091391 -0.017050 0.995669
vn -0.001131 0.076662 0.997057
vn 0.012019 -0.676420 0.736418
vn 0.010832 -0.999854 -0.013193
vn 0.009827 -0.999882 0.011810
vn -0.028601 -0.748488 0.662532
vn -0.035649 0.058105 0.997674
vn 0.022072 -0.998403 0.051995
vn -0.996336 0.078160 -0.034725
vn -0.712831 -0.701179 -0.014812
vn 0.048755 -0.998741 -0.011777
vn -0.999989 -0.000346 -0.004738
vn -0.582816 -0.543769 0.603855
vn 0.087725 -0.729534 0.678295
vn -0.758676 0.067220 0.647991
vn 0.064607 -0.027729 0.997526
vn -0.722310 -0.687154 0.078028
vn 0.012229 -0.999563 0.026922
vn -0.997354 0.001848 0.072682
vn -0.567294 -0.562834 0.601162
vn 0.076953 -0.739023 0.669271
vn -0.704394 -0.007893 0.709765
vn 0.096312 0.011715 0.995282
vn -0.015158 0.058531 0.998170
vn -0.001524 -0.634057 0.773285
vn 0.014859 -0.998062 0.060425
vn 0.004549 -0.105463 0.994413
vn -0.001923 -0.761105 0.648626
vn -0.028693 -0.998933 0.036195
vn 0.010028 0.060838 0.998097
vn -0.006907 0.032415 0.999451
vn -0.015078 -0.718957 0.694891
vn 0.030047 -0.712423 0.701107
vn 0.028887 -0.999239 0.026226
vn -0.019828 -0.784556 0.619741
vn -0.059096 -0.007111 0.998227
vn -0.007414 -0.999618 0.026637
vn -0.021738 -0.700775 0.713051
vn -0.011139 0.067202 0.997677
vn -0.995604 0.093320 -0.008012
vn 0.001164 -0.999722 -0.023555
vn 0.000817 -0.999791 -0.020430
vn -0.053903 -0.715023 0.697020
vn -0.053356 -0.044818 0.997569
vn -0.000271 -0.985411 -0.170190
vn -0.022710 -0.728709 0.684447
vn -0.021502 0.029039 0.999347
vn -0.018348 0.020435 0.999623
vn -0.993558 0.110839 0.023593
vn -0.994562 0.103615 0.010532
vn -0.684226 0.120195 0.719297
vn -0.994312 0.105790 0.012365
vn -0.995559 0.093791 -0.008148
vn -0.996295 0.066305 -0.054778
vn -0.731800 -0.676559 0.082075
vn -0.998567 -0.007745 0.052962
vn -0.567699 -0.532325 0.627971
vn -0.761518 0.057708 0.645569
vn -0.001588 -0.007467 0.999971
vn 0.000175 -0.723791 0.690019
vn -0.031415 -0.998742 0.039077
vn 0.000850 -0.999723 -0.023535
vn 0.001345 -0.999614 -0.027742
vn -0.005522 -0.706206 0.707985
vn -0.004770 -0.012938 0.999905
vn 0.022062 -0.997915 0.060655
vn 0.012434 -0.999545 0.027463
vn 0.079725 -0.753082 0.653078
vn 0.091391 -0.017050 0.995669
vn -0.001131 0.076662 0.997056
vn 0.012019 -0.676420 0.736418
vn 0.010832 -0.999854 -0.013193
vn 0.009827 -0.999882 0.011810
vn -0.028601 -0.748487 0.662533
vn -0.035649 0.058105 0.997674
vn 0.022072 -0.998403 0.051995
vn -0.996336 0.078160 -0.034726
g fff002fb_00004_000303f7_e2
f 18/23/18 13/14/13 11/15/11
f 16/84/16 12/85/12 14/86/14
f 16/87/16 15/88/15 26/89/26
f 15/90/15 16/91/16 14/92/14
f 19/24/19 18/23/18 11/15/11
f 19/24/19 35/58/35 18/23/18
f 26/93/26 15/94/15 27/95/27
f 19/24/19 34/57/34 35/58/35
f 50/64/50 49/65/49 48/66/48
f 51/67/51 50/64/50 48/66/48
f 51/67/51 56/68/56 50/64/50
f 51/67/51 55/69/55 56/68/56
f 62/21/62 59/16/59 60/13/60
f 62/21/62 61/96/61 65/47/65
f 61/96/61 62/21/62 60/13/60
f 65/47/65 61/96/61 66/97/66
f 86/120/86 81/111/81 79/112/79
f 84/181/84 80/182/80 82/183/82
f 84/184/84 83/185/83 94/186/94
f 83/187/83 84/188/84 82/189/82
f 87/121/87 86/120/86 79/112/79
f 87/121/87 103/155/103 86/120/86
f 94/190/94 83/191/83 95/192/95
f 87/121/87 102/154/102 103/155/103
f 118/161/118 117/162/117 116/163/116
f 119/164/119 118/161/118 116/163/116
f 119/164/119 124/165/124 118/161/118
f 119/164/119 123/166/123 124/165/124
f 130/118/130 127/113/127 128/110/128
f 130/118/130 129/193/129 133/144/133
f 129/193/129 130/118/130 128/110/128
f 133/144/133 129/193/129 134/194/134
f 154/217/154 149/208/149 147/209/147
f 152/278/152 148/279/148 150/280/150
f 152/281/152 151/282/151 162/283/162
f 151/284/151 152/285/152 150/286/150
f 155/218/155 154/217/154 147/209/147
f 155/218/155 171/252/171 154/217/154
f 162/287/162 151/288/151 163/289/163
f 155/218/155 170/251/170 171/252/171
f 186/258/186 185/259/185 184/260/184
f 187/261/187 186/258/186 184/260/184
f 187/261/187 192/262/192 186/258/186
f 187/261/187 191/263/191 192/262/192
f 198/215/198 195/210/195 196/207/196
f 198/215/198 197/290/197 201/241/201
f 197/290/197 198/215/198 196/207/196
f 201/241/201 197/290/197 202/291/202
f 222/314/222 217/305/217 215/306/215
f 220/375/220 216/376/216 218/377/218
f 220/378/220 219/379/219 230/380/230
f 219/381/219 220/382/220 218/383/218
f 223/315/223 222/314/222 215/306/215
f 223/315/223 239/349/239 222/314/222
f 230/384/230 219/385/219 231/386/231
f 223/315/223 238/348/238 239/349/239
f 254/355/254 253/356/253 252/357/252
f 255/358/255 254/355/254 252/357/252
f 255/358/255 260/359/260 254/355/254
f 255/358/255 259/360/259 260/359/260
f 266/312/266 263/307/263 264/304/264
f 266/312/266 265/387/265 269/338/269
f 265/387/265 266/312/266 264/304/264
f 269/338/269 265/387/265 270/388/270
g fff002fb_00004_000303f7_e3
f 19/28/19 11/29/11 8/19/8
f 17/22/17 9/20/9 12/30/12
f 63/22/63 58/20/58 59/30/59
f 63/22/63 62/31/62 64/44/64
f 63/22/63 64/44/64 67/43/67
f 64/45/64 62/35/62 65/46/65
f 32/53/32 33/54/33 20/25/20
f 16/32/16 17/22/17 12/33/12
f 52/75/52 55/77/55 51/79/51
f 20/25/20 33/55/33 34/56/34
f 20/25/20 19/34/19 8/19/8
f 25/45/25 16/35/16 26/46/26
f 17/22/17 25/44/25 57/43/57
f 17/22/17 16/31/16 25/44/25
f 52/75/52 51/78/51 46/72/46
f 20/25/20 34/56/34 19/36/19
f 62/32/62 63/22/63 59/33/59
f 52/75/52 54/76/54 55/77/55
f 53/73/53 54/74/54 52/75/52
f 51/70/51 48/71/48 46/72/46
f 87/125/87 79/126/79 76/116/76
f 85/119/85 77/117/77 80/127/80
f 131/119/131 126/117/126 127/127/127
f 131/119/131 130/128/130 132/141/132
f 131/119/131 132/141/132 135/140/135
f 132/142/132 130/132/130 133/143/133
f 100/150/100 101/151/101 88/122/88
f 84/129/84 85/119/85 80/130/80
f 120/172/120 123/174/123 119/176/119
f 88/122/88 101/152/101 102/153/102
f 88/122/88 87/131/87 76/116/76
f 93/142/93 84/132/84 94/143/94
f 85/119/85 93/141/93 125/140/125
f 85/119/85 84/128/84 93/141/93
f 120/172/120 119/175/119 114/169/114
f 88/122/88 102/153/102 87/133/87
f 130/129/130 131/119/131 127/130/127
f 120/172/120 122/173/122 123/174/123
f 121/170/121 122/171/122 120/172/120
f 119/167/119 116/168/116 114/169/114
f 155/222/155 147/223/147 144/213/144
f 153/216/153 145/214/145 148/224/148
f 199/216/199 194/214/194 195/224/195
f 199/216/199 198/225/198 200/238/200
f 199/216/199 200/238/200 203/237/203
f 200/239/200 198/229/198 201/240/201
f 168/247/168 169/248/169 156/219/156
f 152/226/152 153/216/153 148/227/148
f 188/269/188 191/271/191 187/273/187
f 156/219/156 169/249/169 170/250/170
f 156/219/156 155/228/155 144/213/144
f 161/239/161 152/229/152 162/240/162
f 153/216/153 161/238/161 193/237/193
f 153/216/153 152/225/152 161/238/161
f 188/269/188 187/272/187 182/266/182
f 156/219/156 170/250/170 155/230/155
f 198/226/198 199/216/199 195/227/195
f 188/269/188 190/270/190 191/271/191
f 189/267/189 190/268/190 188/269/188
f 187/264/187 184/265/184 182/266/182
f 223/319/223 215/320/215 212/310/212
f 221/313/221 213/311/213 216/321/216
f 267/313/267 262/311/262 263/321/263
f 267/313/267 266/322/266 268/335/268
f 267/313/267 268/335/268 271/334/271
f 268/336/268 266/326/266 269/337/269
f 236/344/236 237/345/237 224/316/224
f 220/323/220 221/313/221 216/324/216
f 256/366/256 259/368/259 255/370/255
f 224/316/224 237/346/237 238/347/238
f 224/316/224 223/325/223 212/310/212
f 229/336/229 220/326/220 230/337/230
f 221/313/221 229/335/229 261/334/261
f 221/313/221 220/322/220 229/335/229
f 256/366/256 255/369/255 250/363/250
f 224/316/224 238/347/238 223/327/223
f 266/323/266 267/313/267 263/324/263
f 256/366/256 258/367/258 259/368/259
f 257/364/257 258/365/258 256/366/256
f 255/361/255 252/362/252 250/363/250
g fff002fb_00004_000303f7_e4
f 48/82/48 49/83/49 47/80/47
f 47/80/47 46/81/46 48/82/48
f 10/18/10 8/17/8 11/26/11
f 11/26/11 13/27/13 10/18/10
f 68/18/68 43/17/43 44/26/44
f 44/26/44 45/27/45 68/18/68
f 116/179/116 117/180/117 115/177/115
f 115/177/115 114/178/114 116/179/116
f 78/115/78 76/114/76 79/123/79
f 79/123/79 81/124/81 78/115/78
f 136/115/136 111/114/111 112/123/112
f 112/123/112 113/124/113 136/115/136
f 184/276/184 185/277/185 183/274/183
f 183/274/183 182/275/182 184/276/184
f 146/212/146 144/211/144 147/220/147
f 147/220/147 149/221/149 146/212/146
f 204/212/204 179/211/179 180/220/180
f 180/220/180 181/221/181 204/212/204
f 252/373/252 253/374/253 251/371/251
f 251/371/251 250/372/250 252/373/252
f 214/309/214 212/308/212 215/317/215
f 215/317/215 217/318/217 214/309/214
f 272/309/272 247/308/247 248/317/248
f 248/317/248 249/318/249 272/309/272
g fff002fb_00004_000303f7_e6
f 31/1/31 40/2/40 41/4/41
f 41/4/41 42/3/42 31/1/31
f 3/1/3 1/2/1 4/4/4
f 4/4/4 6/3/6 3/1/3
f 24/41/24 2/6/2 5/8/5
f 23/39/23 4/7/4 1/5/1
f 28/48/28 24/41/24 29/49/29
f 37/60/37 23/39/23 1/5/1
f 36/59/36 37/60/37 1/5/1
f 2/6/2 24/41/24 28/48/28
f 99/98/99 108/99/108 109/101/109
f 109/101/109 110/100/110 99/98/99
f 71/98/71 69/99/69 72/101/72
f 72/101/72 74/100/74 71/98/71
f 92/138/92 70/103/70 73/105/73
f 91/136/91 72/104/72 69/102/69
f 96/145/96 92/138/92 97/146/97
f 105/157/105 91/136/91 69/102/69
f 104/156/104 105/157/105 69/102/69
f 70/103/70 92/138/92 96/145/96
f 167/195/167 176/196/176 177/198/177
f 177/198/177 178/197/178 167/195/167
f 139/195/139 137/196/137 140/198/140
f 140/198/140 142/197/142 139/195/139
f 160/235/160 138/200/138 141/202/141
f 159/233/159 140/201/140 137/199/137
f 164/242/164 160/235/160 165/243/165
f 173/254/173 159/233/159 137/199/137
f 172/253/172 173/254/173 137/199/137
f 138/200/138 160/235/160 164/242/164
f 235/292/235 244/293/244 245/295/245
f 245/295/245 246/294/246 235/292/235
f 207/292/207 205/293/205 208/295/208
f 208/295/208 210/294/210 207/292/207
f 228/332/228 206/297/206 209/299/209
f 227/330/227 208/298/208 205/296/205
f 232/339/232 228/332/228 233/340/233
f 241/351/241 227/330/227 205/296/205
f 240/350/240 241/351/241 205/296/205
f 206/297/206 228/332/228 232/339/232
g fff002fb_00004_000303f7_e5
f 22/38/22 6/11/6 4/9/4
f 23/40/23 37/61/37 38/62/38
f 23/40/23 38/62/38 22/38/22
f 23/40/23 22/38/22 4/9/4
f 24/42/24 5/10/5 7/12/7
f 21/37/21 24/42/24 7/12/7
f 30/51/30 29/50/29 24/42/24
f 21/37/21 30/51/30 24/42/24
f 30/51/30 21/37/21 42/52/42
f 38/62/38 39/63/39 22/38/22
f 90/135/90 74/108/74 72/106/72
f 91/137/91 105/158/105 106/159/106
f 91/137/91 106/159/106 90/135/90
f 91/137/91 90/135/90 72/106/72
f 92/139/92 73/107/73 75/109/75
f 89/134/89 92/139/92 75/109/75
f 98/148/98 97/147/97 92/139/92
f 89/134/89 98/148/98 92/139/92
f 98/148/98 89/134/89 110/149/110
f 106/159/106 107/160/107 90/135/90
f 158/232/158 142/205/142 140/203/140
f 159/234/159 173/255/173 174/256/174
f 159/234/159 174/256/174 158/232/158
f 159/234/159 158/232/158 140/203/140
f 160/236/160 141/204/141 143/206/143
f 157/231/157 160/236/160 143/206/143
f 166/245/166 165/244/165 160/236/160
f 157/231/157 166/245/166 160/236/160
f 166/245/166 157/231/157 178/246/178
f 174/256/174 175/257/175 158/232/158
f 226/329/226 210/302/210 208/300/208
f 227/331/227 241/352/241 242/353/242
f 227/331/227 242/353/242 226/329/226
f 227/331/227 226/329/226 208/300/208
f 228/333/228 209/301/209 211/303/211
f 225/328/225 228/333/228 211/303/211
f 234/342/234 233/341/233 228/333/228
f 225/328/225 234/342/234 228/333/228
f 234/342/234 225/328/225 246/343/246
f 242/353/242 243/354/243 226/329/226
