# fff0a81b_00488_00ad4058
o fff0a81b_00488_00ad4058
v -0.000000 0.886218 2.119639
v -0.000000 0.821062 0.410063
v -0.000000 2.677444 2.071981
v -0.000000 0.284731 0.556050
v 0.005094 -1.616737 -0.329965
v 0.005094 -1.048241 -0.803669
v 0.005094 -0.140205 1.239876
v 0.005094 0.528923 0.621216
v -0.000000 2.654194 1.461925
v -0.000000 2.284287 1.411328
v -0.000000 2.211538 0.373045
v -0.000000 1.360301 0.323848
v -0.000000 1.374707 0.696906
v -0.000000 0.364838 0.948841
v 0.005094 1.833420 -0.608250
v 0.005094 2.561742 -0.477241
v 0.005094 1.954237 1.531919
v 0.005094 2.858252 1.646819
v 0.005093 6.563017 4.199312
v 0.005093 6.565564 3.459321
v 0.005093 8.714675 4.077284
v 0.005093 8.670861 3.167058
vt 1.000000 2.000000
vt 1.000000 1.000000
vt 2.000000 2.000000
vt 2.000000 0.995549
vt 1.000000 2.000000
vt 1.000000 1.505508
vt 2.000000 2.000000
vt 2.000000 1.501058
vt 2.000000 1.641571
vt 1.794774 1.607008
vt 1.776271 0.996545
vn 1.000000 0.000000 0.000000
vn 1.000000 0.000000 0.000000
vn 1.000000 0.000000 0.000000
vn 1.000000 0.000000 0.000000
vn 1.000000 0.000000 0.000000
vn 1.000000 0.000000 0.000000
vn 1.000000 0.000000 0.000000
vn 1.000000 0.000000 0.000000
vn 1.000000 0.000000 0.000000
vn 1.000000 0.000000 0.000000
vn 1.000000 0.000000 0.000000
vn 1.000000 0.000000 0.000000
vn 1.000000 0.000000 0.000000
vn 1.000000 0.000000 0.000000
vn 1.000000 0.000000 0.000000
vn 1.000000 0.000000 0.000000
vn 1.000000 0.000000 0.000000
vn 1.000000 0.000000 -0.000000
vn 1.000000 0.000000 0.000000
vn 1.000000 0.000000 0.000000
vn 1.000000 0.000000 -0.000000
vn 1.000000 0.000000 -0.000000
g fff0a81b_00488_00ad4058_e0
f 10/10/10 3/3/3 2/2/2
f 2/2/2 3/3/3 1/1/1
f 11/11/11 10/10/10 2/2/2
f 9/9/9 3/3/3 10/10/10
f 4/4/4 12/9/12 13/10/13
f 4/4/4 13/10/13 14/11/14
g fff0a81b_00488_00ad4058_e1
f 8/8/8 7/7/7 6/6/6
f 6/6/6 7/7/7 5/5/5
f 18/8/18 17/7/17 16/6/16
f 16/6/16 17/7/17 15/5/15
f 22/8/22 21/7/21 20/6/20
f 20/6/20 21/7/21 19/5/19
