# fff026ad_00111_00447214
o fff026ad_00111_00447214
v -3.655399 0.033363 0.000282
v -3.655399 0.033363 3.796719
v 0.007132 0.033363 0.000282
v 0.007132 0.033363 3.796719
v -3.655399 -0.029951 3.796734
v 0.021097 -0.069962 3.796734
v 0.021097 -0.069962 0.025856
v -3.655399 -0.069961 0.000282
v -3.655399 -0.069961 3.796719
vt 1.287851 1.727872
vt 1.287851 1.727872
vt 1.287851 1.727872
vt 1.500106 1.648400
vt 1.489852 1.699655
vt 1.680885 1.682563
vt 1.287851 1.727872
vt 1.287851 1.727872
vt 1.619319 1.689660
vt 1.096130 1.749974
vt 1.287851 1.727872
vt 1.529794 1.500000
vt 1.490511 1.696360
vn -0.707107 0.707107 0.000000
vn -0.577304 0.577443 0.577304
vn 0.601914 0.798561 0.000000
vn 0.533827 0.610867 0.584697
vn -0.000000 0.000239 1.000000
vn 0.733799 0.099277 0.672074
vn 0.990990 0.133938 0.000000
vn -1.000000 0.000000 0.000000
vn -1.000000 0.000000 0.000000
g fff026ad_00111_00447214_e1
f 7/11/7 4/8/4 6/10/6
f 4/8/4 7/11/7 3/7/3
g fff026ad_00111_00447214_e0
f 4/8/4 2/6/2 5/9/5
f 5/9/5 6/10/6 4/8/4
g fff026ad_00111_00447214_e2
f 8/12/8 9/13/9 1/5/1
f 2/4/2 1/5/1 9/13/9
f 4/3/4 3/7/3 1/2/1
f 1/2/1 2/1/2 4/3/4
