# fff08519_00172_003230be
o fff08519_00172_003230be
v -1.447243 21.211437 -1.383993
v -0.067814 12.695102 -2.025171
v -10.716522 -10.368242 1.443396
v -6.826447 -11.951429 1.432143
v 2.447172 12.071028 0.231158
v 8.331905 -0.760103 0.577984
v 6.261406 -4.758718 0.882785
v -2.820318 -7.137249 -2.025171
v 7.436749 7.054991 0.441126
v 4.191725 13.288424 -0.311219
v 3.886688 13.795510 -2.032502
v 3.167858 -8.678671 1.065497
v -0.236450 -11.104258 1.140822
v -3.315540 -12.269644 1.274448
v -6.899544 -8.675348 -2.025172
v -4.573486 -8.134716 -2.025171
v -0.587357 -5.699358 -2.025171
v 3.591705 0.635731 -2.025172
v 4.518475 3.182587 -2.025172
v 8.977188 3.121729 0.586220
v -11.029339 -7.290041 -2.025171
v -2.820318 -7.137249 -2.025171
v -6.899544 -8.675348 -2.025171
v -4.573486 -8.134716 -2.025171
v -0.587357 -5.699358 -2.025171
v 1.889223 -2.629431 -2.025171
v 3.591705 0.635731 -2.025171
v 4.518475 3.182587 -2.025171
v 1.262453 9.329803 -2.025171
v 2.899059 12.757624 0.039084
v 1.268190 13.479174 -2.028264
v 2.879004 10.683729 0.331636
v 3.209047 7.079629 -2.025171
v 5.095570 9.184689 0.231596
v 0.328793 11.157576 -2.025171
v 2.430239 11.410738 0.285075
v 6.276694 8.272032 0.311594
v 8.435307 5.193038 0.502132
v 8.940346 0.955125 0.538336
v 7.420745 -2.663268 0.716079
v 4.808205 -6.882299 0.973740
v 1.459480 -9.994861 1.103297
v -1.591600 -11.733717 1.199633
v -5.055010 -12.305611 1.352578
v -8.504652 -11.328231 1.436997
v 4.082439 5.357691 -2.025171
v -9.073925 -8.251801 -2.025171
v -9.073925 -8.251801 -2.025171
v -11.029339 -7.290046 -0.445167
v -9.572750 -8.710818 -0.381881
v -14.776768 -6.226353 2.032502
v -12.140474 -6.585118 -0.445168
v -16.117760 -4.061831 -0.445167
v 4.798176 8.852843 -0.267072
v 5.811858 8.091313 -0.162720
v 6.883284 6.774878 -0.084197
v 7.805175 4.869651 0.050654
v 8.163076 3.132836 0.109399
v 8.090000 1.383490 0.045357
v 7.371076 -0.477176 0.050312
v 6.598627 -1.954947 0.127515
v 5.305399 -4.293114 0.246935
v 3.733644 -6.646735 0.376492
v 2.419821 -8.085209 0.449834
v 0.587238 -9.412485 0.465698
v -0.791355 -10.252331 0.460908
v -2.276127 -10.907529 0.459355
v -3.623602 -11.257084 0.466405
v -5.528784 -11.373154 0.484995
v -7.398401 -11.009960 0.552319
v -8.654835 -10.516618 0.523617
v -10.830318 -9.248466 0.756372
v -13.547285 -6.651979 1.129871
v -15.324535 -5.342194 1.020429
v -12.989361 -8.049703 1.773165
v -3.315540 -12.269644 1.274448
v 7.805175 4.869651 0.050654
v 8.163076 3.132836 0.109399
v 8.090000 1.383490 0.045357
v 7.371076 -0.477176 0.050312
v 6.598627 -1.954947 0.127515
v 5.305399 -4.293114 0.246935
v 3.733644 -6.646733 0.376492
v 2.419821 -8.085209 0.449834
v 0.587238 -9.412485 0.465698
v -0.791355 -10.252327 0.460908
v -2.276127 -10.907529 0.459355
v -3.623602 -11.257080 0.466405
v -5.528784 -11.373154 0.484995
v -7.398401 -11.009956 0.552319
v -8.654835 -10.516618 0.523617
v -10.830318 -9.248466 0.756372
v -13.547285 -6.651979 1.129870
v -15.324535 -5.342194 1.020429
v 2.529698 10.391172 -0.562573
v 1.909767 11.348037 -0.656513
v 2.131573 20.428869 -1.362836
v -1.369425 7.098603 -2.025171
v -2.065334 6.019063 -2.025171
v -2.780333 4.878906 -2.025171
v -3.581436 3.531863 -2.025171
v -4.695805 1.834299 -2.025171
v -6.052286 0.178082 -2.025171
v -5.437128 0.929168 -2.025171
v -7.164055 -0.748051 -2.025171
v -8.026611 -1.503463 -2.025171
v -9.148598 -2.356163 -2.025171
v -11.352127 -4.185341 -2.025171
v -10.513981 -3.523905 -2.025171
v -10.198732 -3.240972 -2.025171
v -0.085966 9.116194 -2.025171
v 0.678062 10.473829 -2.025171
v -6.769508 13.589041 -1.256097
v -12.530094 7.144854 -2.025171
v -15.241417 6.863029 -2.025171
v -14.602211 0.714841 -2.025171
v -11.890888 0.996665 -2.025171
vt 0.480740 0.534133
vt 0.574837 0.537190
vt 0.536984 0.534716
vt 0.616219 0.538377
vt 0.453137 0.517851
vt 0.449430 0.536629
vt 0.981362 0.994141
vt 0.993711 0.515694
vt 1.227395 0.994141
vt 2.568006 2.515168
vt 0.599483 0.537897
vt 0.586064 0.537512
vt 0.566147 0.536622
vt 1.269297 2.515122
vt 0.560097 0.536227
vt 0.554252 0.535845
vt 0.548073 0.535441
vt 0.542811 0.535097
vt 0.538723 0.534830
vt 1.163666 0.994141
vt 1.280978 0.514273
vt 0.467532 0.535186
vt 0.540748 0.534962
vt 1.256212 0.516904
vt 0.541771 0.535029
vt 2.350513 2.515140
vt 0.607924 0.538139
vt 2.543807 2.522264
vt 1.343272 0.999295
vt 1.296972 0.999295
vt 1.286776 0.515867
vt -0.328786 1.999233
vt -0.148683 2.511584
vt 0.009101 2.511584
vt -0.665024 1.999233
vt 1.328501 0.516603
vt -0.328786 1.504776
vt 1.098579 2.532407
vt 1.240460 2.532407
vt 1.463806 1.999233
vt 1.254086 1.999233
vt 1.277241 1.504776
vt 0.891347 1.999233
vt 0.935982 1.504776
vt 1.060431 1.999233
vt 0.770835 1.504776
vt 1.660954 1.999233
vt 1.514757 1.504776
vt 1.657439 1.504776
vt 2.092170 1.999233
vt 1.984385 1.999233
vt 1.945025 1.504776
vt 1.050442 1.504776
vt 2.092544 1.504776
vt 0.604177 1.999233
vt 0.604966 1.504776
vt 0.749091 1.999233
vt 1.829784 1.999233
vt 1.835579 1.504776
vt 3.387817 1.504776
vt 3.526456 1.999233
vt 3.301730 1.999233
vt 2.574918 1.999233
vt 2.483541 1.504776
vt 2.677190 1.504776
vt 2.751498 1.999233
vt 2.794968 1.504776
vt 2.988651 1.999233
vt 2.398320 1.999233
vt 2.283384 1.504776
vt 2.237156 1.999233
vt 3.047714 1.504776
vt 3.579879 1.504776
vt 0.124919 1.999233
vt 0.139850 1.504776
vt 0.373919 1.999233
vt -0.125144 1.504776
vt -0.123633 1.999233
vt -0.328786 1.999233
vt -0.328786 1.504776
vt 0.392690 1.504776
vt 0.243856 2.515141
vt 0.529403 2.515141
vt 0.426311 2.532407
vt 0.242342 2.532407
vt 0.582399 2.532407
vt 0.874290 2.515140
vt 0.832919 2.532407
vt 1.098579 2.532407
vt 1.474589 2.532407
vt 1.599651 2.515140
vt 2.142051 2.532407
vt 1.955598 2.532407
vt 2.153163 2.515140
vt 1.643042 2.532407
vt 1.839843 2.515140
vt 1.812874 2.532407
vt -0.637842 2.532407
vt -0.758526 2.532407
vt -0.677896 2.515141
vt -0.190683 2.532407
vt -0.006998 2.515141
vt 0.030585 2.532407
vt 0.241473 2.532407
vt -0.448027 2.532407
vt -0.370752 2.515141
vt 2.659539 2.521825
vt 2.874576 2.532407
vt 2.594155 2.532407
vt 2.396447 2.532407
vt 2.373608 2.524263
vt 3.073800 2.520254
vt 2.290170 2.532407
vt 2.350513 2.515140
vt 2.543807 2.522264
vt 3.045149 2.532407
vt -0.665024 1.504776
vt 1.329279 0.879562
vt -0.047388 2.546211
vt -0.164903 2.546837
vt -0.234345 2.545416
vt -0.276848 2.511584
vt -0.853126 1.999233
vt -0.853126 1.504776
vt 0.434185 0.523416
vt 0.558382 0.532040
vt 0.563825 0.531286
vt 0.570889 0.530935
vt 0.567880 0.530738
vt 0.575215 0.530982
vt 0.578944 0.531061
vt 0.582264 0.531265
vt 0.580758 0.531173
vt 0.586705 0.531699
vt 0.592705 0.532045
vt 0.600235 0.532712
vt 0.613003 0.535463
vt 0.607777 0.534284
vt 0.605790 0.533836
vt 0.544847 0.533860
vt 0.538075 0.534787
vt 0.537655 0.534760
vt -0.228903 2.511584
vt 0.453137 0.517851
vt 0.512018 0.532994
vt 0.529030 0.522535
vt 0.536984 0.534716
vt 0.601367 0.524915
vt 0.607636 0.530598
vt 0.601420 0.524922
vt 0.607690 0.530605
vt 0.567880 0.530738
vt 0.558382 0.532040
vt 0.563825 0.531286
vt 0.592705 0.532045
vt 0.586705 0.531699
vt 0.613003 0.535463
vt 0.578944 0.531061
vt 0.580758 0.531173
vt 0.582264 0.531265
vt 0.570889 0.530935
vt 0.575215 0.530982
vt 0.607777 0.534284
vt 0.600235 0.532712
vt 0.605790 0.533836
vt 0.544847 0.533860
vn 0.036208 -0.080647 0.996085
vn -0.163961 0.033424 0.985900
vn 0.435548 0.544762 0.716611
vn 0.201499 0.728746 0.654468
vn -0.707370 0.242266 0.664030
vn -0.420383 0.212570 0.882095
vn -0.416131 0.300147 0.858339
vn -0.289609 0.475423 0.830722
vn -0.559509 -0.337289 0.757090
vn -0.285468 0.904432 0.317033
vn -0.115041 0.565101 0.816962
vn -0.356409 0.417757 0.835734
vn -0.250939 0.498693 0.829660
vn -0.148590 0.588814 0.794493
vn 0.043970 0.684410 0.727771
vn -0.193773 0.552408 0.810739
vn -0.349750 0.414211 0.840300
vn -0.434177 0.207987 0.876488
vn -0.482556 0.009357 0.875815
vn -0.510624 -0.044567 0.858648
vn 0.261832 0.532346 0.805017
vn 0.000000 0.000000 1.000000
vn 0.000000 0.000000 1.000000
vn 0.000000 0.000000 1.000000
vn 0.000000 0.000000 1.000000
vn -0.236170 0.157156 0.958919
vn 0.000000 0.000000 1.000000
vn 0.000000 0.000000 1.000000
vn -0.258462 -0.189412 0.947270
vn -0.377468 0.770642 0.513448
vn -0.149862 0.343299 0.927193
vn -0.642302 -0.618151 0.453142
vn -0.254848 -0.190025 0.948126
vn -0.483617 -0.592779 0.643993
vn -0.323262 -0.128670 0.937521
vn -0.848111 -0.221417 0.481333
vn -0.524548 -0.488786 0.697093
vn -0.533944 -0.161355 0.829981
vn -0.461972 0.097437 0.881526
vn -0.393836 0.272368 0.877900
vn -0.397795 0.345697 0.849855
vn -0.307820 0.457438 0.834265
vn -0.192666 0.554953 0.809263
vn 0.056765 0.681581 0.729538
vn 0.293433 0.738067 0.607581
vn -0.282062 -0.094275 0.954753
vn 0.467120 0.761923 0.448635
vn 0.000000 0.000000 1.000000
vn 0.453922 0.661466 0.597006
vn 0.596935 0.592712 0.540703
vn 0.565219 0.697038 0.441208
vn 0.518722 0.619434 0.589262
vn 0.504912 0.755232 0.417957
vn -0.455087 -0.505171 0.733279
vn -0.479442 -0.440817 0.758825
vn -0.514413 -0.275769 0.811992
vn -0.484225 -0.122586 0.866313
vn -0.505374 -0.040924 0.861930
vn -0.463807 0.093202 0.881020
vn -0.420626 0.208490 0.882953
vn -0.402044 0.262295 0.877247
vn -0.415993 0.286915 0.862919
vn -0.396791 0.345776 0.850292
vn -0.349558 0.420071 0.837466
vn -0.305971 0.456432 0.835494
vn -0.270698 0.495241 0.825505
vn -0.190260 0.563008 0.804254
vn -0.125228 0.606321 0.785298
vn 0.039537 0.691349 0.721438
vn 0.192990 0.725152 0.660992
vn 0.384138 0.687605 0.616148
vn 0.456687 0.539080 0.707694
vn 0.531509 0.693319 0.486629
vn 0.535671 0.757955 0.372238
vn 0.588768 0.513523 0.624216
vn -0.036452 0.616530 0.786487
vn -0.521380 -0.140528 0.841674
vn -0.505345 -0.044250 0.861782
vn -0.475134 0.069037 0.877201
vn -0.419883 0.217430 0.881148
vn -0.403317 0.268724 0.874713
vn -0.421055 0.301370 0.855505
vn -0.390726 0.362692 0.846042
vn -0.350220 0.421755 0.836342
vn -0.300896 0.462448 0.834028
vn -0.254317 0.502638 0.826243
vn -0.195972 0.559326 0.805450
vn -0.000655 0.646019 0.763321
vn 0.092626 0.705467 0.702664
vn 0.241830 0.736871 0.631300
vn 0.316233 0.702218 0.637876
vn 0.514714 0.492086 0.702083
vn 0.597028 0.578078 0.556222
vn 0.535671 0.757956 0.372236
vn -0.587582 -0.504013 0.633023
vn -0.653434 -0.371453 0.659581
vn -0.029519 -0.108128 0.993699
vn 0.000000 0.000000 1.000000
vn 0.000000 0.000000 1.000000
vn 0.000000 0.000000 1.000000
vn 0.000000 0.000000 1.000000
vn 0.000000 0.000000 1.000000
vn 0.000000 0.000000 1.000000
vn 0.000000 0.000000 1.000000
vn 0.000000 0.000000 1.000000
vn 0.000000 0.000000 1.000000
vn 0.000000 0.000000 1.000000
vn 0.000000 0.000000 1.000000
vn 0.000000 0.000000 1.000000
vn 0.000000 0.000000 1.000000
vn 0.000000 0.000000 1.000000
vn -0.322636 -0.164809 0.932064
vn 0.093235 -0.148084 0.984570
vn 0.009589 -0.021530 0.999722
vn 0.000000 0.000000 1.000000
vn 0.000000 0.000000 1.000000
vn 0.000000 0.000000 1.000000
g fff08519_00172_003230be_e10
f 3/68/3 91/67/91 92/72/92
f 111/140/111 112/141/112 35/142/35
f 111/140/111 29/19/29 112/141/112
f 24/12/24 22/2/22 105/134/105
f 111/140/111 98/126/98 29/19/29
f 11/8/11 31/21/31 30/20/30
f 12/47/12 41/40/41 83/48/83
f 43/50/43 86/52/86 87/54/87
f 111/140/111 35/142/35 2/3/2
f 9/74/9 56/75/56 38/76/38
f 81/53/81 82/42/82 7/41/7
f 42/58/42 84/49/84 85/59/85
f 105/134/105 22/2/22 103/132/103
f 103/132/103 25/13/25 104/133/104
f 78/56/78 79/46/79 39/57/39
f 13/51/13 85/59/85 86/52/86
f 39/57/39 79/46/79 6/43/6
f 96/118/96 5/30/5 35/31/35
f 76/71/76 43/50/43 87/54/87
f 20/55/20 78/56/78 39/57/39
f 93/60/93 51/61/51 75/62/75
f 92/72/92 93/60/93 75/62/75
f 4/63/4 89/64/89 90/65/90
f 109/138/109 48/27/48 110/139/110
f 41/40/41 7/41/7 82/42/82
f 77/81/77 78/56/78 20/55/20
f 48/27/48 107/136/107 110/139/110
f 95/117/95 36/123/36 96/124/96
f 6/43/6 80/44/80 40/45/40
f 34/32/34 32/35/32 95/117/95
f 32/35/32 36/123/36 95/117/95
f 103/132/103 22/2/22 25/13/25
f 56/75/56 77/81/77 38/76/38
f 9/74/9 55/77/55 56/75/56
f 104/133/104 25/13/25 102/131/102
f 11/6/11 97/125/97 1/5/1
f 36/29/36 5/30/5 96/118/96
f 102/131/102 25/13/25 26/15/26
f 45/66/45 90/65/90 91/67/91
f 102/131/102 26/15/26 101/130/101
f 80/44/80 81/53/81 40/45/40
f 31/22/31 11/6/11 1/5/1
f 79/46/79 80/44/80 6/43/6
f 3/68/3 45/66/45 91/67/91
f 44/69/44 88/70/88 89/64/89
f 101/130/101 26/15/26 27/16/27
f 101/130/101 27/16/27 100/128/100
f 12/47/12 83/48/83 84/49/84
f 100/129/100 28/18/28 99/127/99
f 5/9/5 30/20/30 31/21/31
f 43/50/43 13/51/13 86/52/86
f 108/137/108 48/27/48 109/138/109
f 11/8/11 30/20/30 10/7/10
f 100/128/100 27/16/27 28/17/28
f 40/45/40 81/53/81 7/41/7
f 99/127/99 28/18/28 46/25/46
f 38/76/38 77/81/77 20/55/20
f 99/127/99 46/25/46 98/126/98
f 98/126/98 33/23/33 29/19/29
f 45/66/45 4/63/4 90/65/90
f 2/1/2 31/22/31 1/5/1
f 98/126/98 46/25/46 33/23/33
f 44/69/44 76/71/76 88/70/88
f 13/51/13 42/58/42 85/59/85
f 14/71/14 67/54/67 68/70/68
f 37/78/37 54/80/54 55/77/55
f 9/74/9 37/78/37 55/77/55
f 23/11/23 106/135/106 107/136/107
f 48/27/48 23/11/23 107/136/107
f 24/12/24 105/134/105 106/135/106
f 23/11/23 24/12/24 106/135/106
f 37/78/37 34/79/34 54/80/54
f 34/32/34 95/117/95 54/37/54
f 5/9/5 2/36/2 35/24/35
f 5/9/5 31/21/31 2/36/2
f 42/58/42 12/47/12 84/49/84
f 4/63/4 44/69/44 89/64/89
f 21/4/21 48/27/48 108/137/108
f 41/40/41 82/42/82 83/48/83
f 51/61/51 93/60/93 94/73/94
f 92/72/92 75/62/75 3/68/3
f 114/148/114 111/166/111 2/147/2
f 110/165/110 107/164/107 114/148/114
f 109/163/109 110/165/110 114/148/114
f 114/148/114 101/162/101 100/161/100
f 113/146/113 2/145/2 1/144/1
f 114/148/114 103/160/103 104/159/104
f 114/148/114 2/145/2 113/146/113
f 114/148/114 102/158/102 101/162/101
f 108/157/108 109/163/109 117/149/117
f 117/149/117 109/163/109 114/148/114
f 114/148/114 104/159/104 102/158/102
f 114/148/114 105/156/105 103/160/103
f 107/164/107 106/155/106 114/148/114
f 114/148/114 99/154/99 98/153/98
f 106/155/106 105/156/105 114/148/114
f 116/151/116 114/148/114 115/150/115
f 114/148/114 116/151/116 117/149/117
f 114/148/114 100/152/100 99/154/99
f 114/148/114 98/153/98 111/166/111
g fff08519_00172_003230be_e11
f 55/98/55 54/99/54 33/100/33
f 57/101/57 19/102/19 58/103/58
f 58/103/58 19/102/19 59/104/59
f 56/105/56 33/100/33 46/106/46
f 56/105/56 55/98/55 33/100/33
f 56/105/56 46/106/46 19/102/19
f 56/105/56 19/102/19 57/101/57
f 19/82/19 18/83/18 60/84/60
f 59/85/59 19/82/19 60/84/60
f 60/84/60 18/83/18 61/86/61
f 18/83/18 26/87/26 62/88/62
f 61/86/61 18/83/18 62/88/62
f 26/87/26 17/14/17 62/88/62
f 63/89/63 62/88/62 17/14/17
f 64/39/64 63/38/63 17/14/17
f 65/90/65 64/39/64 8/91/8
f 69/92/69 68/93/68 15/94/15
f 66/95/66 65/90/65 8/91/8
f 16/96/16 66/95/66 8/91/8
f 67/97/67 66/95/66 16/96/16
f 68/93/68 67/97/67 16/96/16
f 15/94/15 68/93/68 16/96/16
f 17/14/17 8/91/8 64/39/64
f 52/107/52 73/108/73 72/109/72
f 72/109/72 71/110/71 50/111/50
f 73/108/73 52/107/52 53/112/53
f 70/113/70 69/92/69 15/94/15
f 50/111/50 71/110/71 47/114/47
f 71/110/71 70/113/70 47/114/47
f 72/109/72 49/115/49 52/107/52
f 47/114/47 70/113/70 15/94/15
f 74/116/74 73/108/73 53/112/53
f 49/115/49 72/109/72 50/111/50
f 21/10/21 49/28/49 47/26/47
f 49/115/49 50/111/50 47/114/47
f 54/119/54 29/33/29 33/34/33
f 54/119/54 95/120/95 29/33/29
f 96/121/96 112/143/112 29/33/29
f 95/120/95 96/121/96 29/33/29
f 96/121/96 35/122/35 112/143/112
