# fff0aa7b_00174_0049b8fe
o fff0aa7b_00174_0049b8fe
v -8.639122 6.010227 -0.292875
v -8.639122 7.882114 -0.827238
v -6.028030 7.881382 -0.827055
v -6.047707 5.998936 -0.289518
v 4.407860 -6.744167 -0.171476
v 1.694298 -7.882114 0.809800
v 2.844444 -5.024622 0.453898
v 1.637901 -6.180723 0.827238
v 1.791893 -4.975039 0.779621
v 2.843712 -7.700307 0.454155
v 3.672508 -5.147957 0.214206
v 3.660728 -7.572956 0.217552
v 5.201500 -6.728848 -0.171476
v 5.263023 -7.396572 -0.171476
v 4.290184 -7.106106 -0.171476
v 7.938927 -7.206692 -0.171476
v 8.346825 -6.962551 -0.171476
v 8.639122 -7.269924 -0.171476
v 8.309532 -7.554592 -0.171476
vt 1.213488 0.128649
vt 1.422828 0.073963
vt 1.000008 1.412184
vt 1.994875 1.000008
vt 1.000008 1.014109
vt 2.000006 1.982987
vt 1.995145 0.999973
vt 1.000006 1.011483
vt 1.012394 1.999973
vt 1.755497 -0.010036
vt 1.709901 0.403317
vt 1.991425 0.586150
vt 2.051693 0.027089
vt 1.253935 -0.015826
vt 1.355259 0.206984
vt 1.000008 1.991667
vt 1.994875 1.402565
vt 1.585595 1.991667
vt 1.994875 1.991667
vn -0.000050 0.274502 0.961587
vn -0.000025 0.274533 0.961578
vn 0.000010 0.274577 0.961565
vn -0.000015 0.274546 0.961574
vn 0.000000 0.000000 1.000000
vn 0.295587 0.000007 0.955316
vn 0.287379 0.000003 0.957817
vn 0.295599 0.000000 0.955312
vn 0.295627 -0.000030 0.955303
vn 0.287707 -0.000003 0.957718
vn 0.278071 0.000008 0.960561
vn 0.278168 -0.000026 0.960532
vn 0.000000 0.000000 1.000000
vn 0.000000 0.000000 1.000000
vn 0.000000 0.000000 1.000000
vn 0.000000 0.000000 1.000000
vn 0.000000 0.000000 1.000000
vn 0.000000 0.000000 1.000000
vn 0.000000 0.000000 1.000000
g fff0aa7b_00174_0049b8fe_e1
f 11/4/11 7/17/7 10/3/10
f 7/17/7 8/18/8 10/3/10
f 8/18/8 6/16/6 10/3/10
f 9/19/9 8/18/8 7/17/7
f 12/5/12 11/4/11 10/3/10
f 1/6/1 4/9/4 2/7/2
f 4/9/4 3/8/3 2/7/2
g fff0aa7b_00174_0049b8fe_e2
f 19/2/19 17/1/17 16/14/16
f 19/2/19 18/15/18 17/1/17
f 15/13/15 14/12/14 13/11/13
f 15/13/15 13/11/13 5/10/5
