# fff00789_00198_0036440b
o fff00789_00198_0036440b
v -1.104999 -0.362312 0.024822
v -0.897951 -0.092056 0.024822
v -1.104992 0.792223 0.024822
v 1.104993 -0.362312 0.024822
v 0.894910 -0.092056 0.024822
v 1.104999 0.792223 0.024822
v -0.911015 0.523607 0.024822
v 0.908499 0.523607 0.024822
v 0.843756 0.577223 0.757759
v -0.054689 0.096968 0.757759
v -0.054687 0.577223 0.757759
v 0.314709 0.139128 0.757759
v 0.843754 0.096968 0.757759
v 0.310026 0.465879 0.757759
v 0.697004 0.139128 0.757759
v 0.701875 0.465879 0.757759
vt 0.326023 -0.000875
vt 169389883392.000000 -41196974080.000000
vt -47953055744.000000 20540942336.000000
vt 87366402048.000000 -38025891840.000000
vt -50010460160.000000 21323728896.000000
vt 62662344704.000000 -26091526144.000000
vt 62662344704.000000 -26091526144.000000
vt -111451840512.000000 65874231296.000000
vt -37509849088.000000 16076582912.000000
vn 0.000000 0.000000 1.000000
vn 0.000000 0.000000 1.000000
vn 0.000000 0.000000 1.000000
vn 0.000000 0.000000 1.000000
vn 0.000000 0.000000 1.000000
vn 0.000000 0.000000 1.000000
vn 0.000000 0.000000 1.000000
vn 0.000000 0.000000 1.000000
vn 0.000000 0.000000 1.000000
vn 0.000000 0.000000 1.000000
vn 0.000000 0.000000 1.000000
vn 0.000000 0.000000 1.000000
vn 0.000000 0.000000 1.000000
vn 0.000000 0.000000 1.000000
vn 0.000000 0.000000 1.000000
vn 0.000000 0.000000 1.000000
g fff00789_00198_0036440b_e49
f 11/1/11 16/1/16 9/1/9
f 16/1/16 11/1/11 14/1/14
f 9/3/9 16/9/16 13/5/13
f 13/5/13 15/7/15 12/6/12
f 13/5/13 12/6/12 10/4/10
f 12/6/12 11/2/11 10/4/10
f 14/8/14 11/2/11 12/6/12
f 15/7/15 14/8/14 12/6/12
f 16/9/16 14/8/14 15/7/15
f 16/9/16 15/7/15 13/5/13
f 6/3/6 8/9/8 4/5/4
f 4/5/4 5/7/5 2/6/2
f 4/5/4 2/6/2 1/4/1
f 2/6/2 3/2/3 1/4/1
f 7/8/7 3/2/3 2/6/2
f 5/7/5 7/8/7 2/6/2
f 8/9/8 5/7/5 4/5/4
f 8/9/8 7/8/7 5/7/5
f 7/1/7 6/1/6 3/1/3
f 6/1/6 7/1/7 8/1/8
