# fff0c655_00029_00135ab4
o fff0c655_00029_00135ab4
v 10.939983 -1.484953 3.102547
v 11.998882 -1.955792 -0.593716
v 10.945770 -1.486647 -0.593369
v 11.993063 -1.953981 3.102200
v 12.068529 -1.672497 -0.518318
v 11.060027 -1.202550 2.984554
v 12.063009 -1.670855 2.984230
v 11.065578 -1.204309 -0.517990
v 10.801795 -1.713607 -0.598896
v 10.795473 -1.711808 3.221279
v 11.319688 -1.976409 3.221058
v 11.326278 -1.978261 -0.599113
vt 1.129952 1.749440
vn -0.406857 -0.913492 -0.000218
vn -0.406932 -0.913458 -0.000193
vn -0.406918 -0.913465 -0.000198
vn -0.406872 -0.913485 -0.000214
vn -0.422993 -0.906133 -0.000242
vn -0.423069 -0.906097 -0.000216
vn -0.423054 -0.906104 -0.000221
vn -0.423008 -0.906126 -0.000237
vn -0.450495 -0.892779 -0.000325
vn -0.450597 -0.892728 -0.000343
vn -0.450608 -0.892722 -0.000345
vn -0.450506 -0.892773 -0.000327
g fff0c655_00029_00135ab4_e7
f 12/1/12 11/1/11 10/1/10
f 10/1/10 9/1/9 12/1/12
f 8/1/8 7/1/7 6/1/6
f 7/1/7 8/1/8 5/1/5
f 4/1/4 3/1/3 2/1/2
f 3/1/3 4/1/4 1/1/1
