# fff015c3_00007_00061680
o fff015c3_00007_00061680
v 3.897231 -1.646271 -0.249985
v -3.497231 -1.646271 -0.249985
v -1.646156 1.646271 -0.249985
v 1.868910 1.646271 -0.249985
v 3.492201 -1.646271 0.050003
v -3.080177 -1.646271 0.050003
v -1.447838 1.257202 0.050003
v 1.699141 1.257172 0.050003
v 0.025667 -1.646271 0.050003
v 3.492201 -1.646271 0.800003
v 1.699141 1.257172 0.800003
v 1.868910 1.646271 0.500015
v 3.892210 -1.646271 0.800003
v 2.099135 1.257172 0.800003
v 2.099135 1.257172 -0.800003
v 2.099135 1.257172 -0.249985
vt 0.716942 0.049516
vt 0.987464 0.388739
vt 0.890916 0.811745
vt 0.500000 0.750000
vt 0.608471 0.274758
vt 0.743732 0.444370
vt 0.695458 0.655872
vt 0.500000 0.500000
vt 0.719595 0.550121
vt 0.500000 0.750000
vt 0.695458 0.655872
vt 0.703823 0.687944
vt 0.508365 0.532071
vt 0.496990 0.751449
vt 0.692448 0.657322
vt 0.519729 0.542091
vt 0.727515 0.706787
vt 0.543421 0.560934
vt 0.496990 0.751449
vt 0.692448 0.657322
vn 0.849818 0.527060 0.004063
vn -0.554800 0.311910 0.771303
vn -0.280678 0.492239 0.823966
vn 0.214078 0.871610 0.440983
vn -0.714090 -0.440996 0.543690
vn -0.381879 0.214693 0.898930
vn -0.201308 0.324924 0.924067
vn -0.657438 0.238379 0.714809
vn 0.000000 0.000000 1.000000
vn -0.505905 -0.312428 0.804020
vn -0.738082 0.104341 0.666594
vn -0.058473 0.968506 0.242026
vn 0.712864 0.441597 0.544810
vn 0.515226 0.476140 0.712624
vn 0.850630 0.525765 0.000803
vn 0.860633 0.509225 0.000000
g fff015c3_00007_00061680_e28
f 14/15/14 11/11/11 10/10/10
f 14/16/14 12/12/12 11/13/11
f 10/10/10 13/14/13 14/15/14
g fff015c3_00007_00061680_e7
f 9/8/9 5/4/5 8/7/8
f 9/8/9 8/9/8 7/6/7
f 9/8/9 7/6/7 6/5/6
g fff015c3_00007_00061680_e8
f 2/1/2 6/5/6 7/6/7
f 2/1/2 7/6/7 3/2/3
f 3/2/3 8/7/8 4/3/4
f 3/2/3 7/6/7 8/9/8
g fff015c3_00007_00061680_e15
f 5/4/5 10/10/10 11/11/11
f 11/11/11 8/7/8 5/4/5
f 11/13/11 4/3/4 8/7/8
f 4/3/4 11/13/11 12/12/12
f 13/14/13 1/19/1 15/20/15
f 15/20/15 14/15/14 13/14/13
f 12/12/12 14/16/14 16/18/16
f 16/18/16 4/17/4 12/12/12
