# fff0aa7b_00186_004ae602
o fff0aa7b_00186_004ae602
v -1.040492 -1.486364 3.502258
v 0.062770 -1.700636 3.502258
v 0.994220 -1.072063 3.502258
v 1.208708 0.031328 3.502258
v 0.579919 0.962822 3.502258
v 1.201316 -0.539760 3.502258
v 0.585365 -1.470578 3.502258
v -0.508404 -1.693243 3.502258
v -1.438921 -1.077423 3.502258
v 0.978563 0.553837 3.502258
v -1.040492 -1.486364 -2.936889
v 0.062770 -1.700636 -2.936889
v 0.994220 -1.072063 -2.936889
v 1.208708 0.031328 -2.936889
v 0.579919 0.962822 -2.936889
v 1.201316 -0.539760 -2.936889
v 0.585365 -1.470578 -2.936889
v -0.508404 -1.693243 -2.936889
v -1.438921 -1.077423 -2.936889
v 0.978563 0.553837 -2.936889
v -1.040492 -1.486364 -3.101806
v 0.062770 -1.700636 -3.101806
v 0.994220 -1.072063 -3.101806
v 1.208708 0.031328 -3.101806
v 0.579919 0.962822 -3.101806
v 0.978563 0.553837 -3.101806
v 1.201316 -0.539760 -3.101806
v 0.585365 -1.470578 -3.101806
v -0.508404 -1.693243 -3.101806
v -1.438921 -1.077423 -3.101806
v 2.071650 1.717171 -3.019226
v -2.340376 1.715765 -3.019226
v 2.071266 -2.359412 -3.019226
v -2.340637 -2.359504 -3.019226
v -0.989529 -1.420818 3.604858
v 0.051672 -1.623037 3.604858
v 0.930725 -1.029823 3.604858
v 1.133147 0.011499 3.604858
v 0.539730 0.890594 3.604858
v 1.126171 -0.527464 3.604858
v 0.544870 -1.405920 3.604858
v -0.487372 -1.616060 3.604858
v -1.365544 -1.034882 3.604858
v 0.915949 0.504616 3.604858
vt 3.061933 1.637698
vt 3.061933 1.639039
vt -1.006307 1.639039
vt -1.006307 1.637698
vt -1.006306 1.718358
vt -1.006307 1.665846
vt 3.061933 1.665846
vt 3.061933 1.718358
vt -1.006306 1.858178
vt -1.006307 1.785283
vt 3.061933 1.785283
vt 3.061933 1.858178
vt 3.061933 1.976583
vt 3.061933 2.005561
vt -1.006307 2.005561
vt -1.006307 1.976583
vt 3.061933 2.004200
vt -1.006307 2.004201
vt 3.061933 1.925993
vt -1.006307 1.925993
vt 2.042397 2.146640
vt 1.948906 2.143118
vt 2.042397 2.143118
vt 2.042397 2.296997
vt 1.948906 2.229342
vt 2.042397 2.229342
vt 2.042397 2.512403
vt 1.948906 2.485489
vt 2.042397 2.485489
vt 2.042397 2.508863
vt 1.948906 2.512403
vt 1.948906 2.146640
vt 2.042397 2.175422
vt 1.948906 2.175422
vt 1.948906 2.296997
vt 1.948906 2.369702
vt 2.042397 2.436575
vt 1.948906 2.436575
vt 1.948906 2.508863
vt 2.042397 2.369702
vt 0.999996 1.019083
vt 1.986051 0.999997
vt 1.999996 1.981228
vt 1.013909 1.999997
vt 3.077049 2.005561
vt 3.077049 1.976583
vt 3.077049 2.004200
vt 3.077049 1.925993
vt 3.077049 1.858178
vt 3.077049 1.785283
vt 3.077049 1.718358
vt 3.077049 1.665846
vt 3.077049 1.639039
vt 3.077049 1.637698
vn -0.524813 -0.788886 0.319735
vn 0.188144 -0.932694 0.307709
vn 0.794890 -0.526136 0.302210
vn 0.932223 0.191594 0.307005
vn 0.682430 0.665176 0.303034
vn 0.935428 -0.181069 0.303626
vn 0.532194 -0.790152 0.304021
vn -0.182930 -0.931706 0.313784
vn -0.680016 -0.662536 0.314045
vn 0.786209 0.532910 0.312862
vn -0.551881 -0.833923 0.000000
vn 0.199527 -0.979892 0.000000
vn 0.833922 -0.551883 0.000000
vn 0.979873 0.199624 0.000000
vn 0.716102 0.697996 0.000000
vn 0.981627 -0.190813 0.000000
vn 0.559384 -0.828909 0.000000
vn -0.190705 -0.981647 0.000000
vn -0.716253 -0.697841 0.000000
vn 0.828852 0.559468 0.000000
vn -0.551881 -0.833923 0.000000
vn 0.199527 -0.979892 0.000000
vn 0.833922 -0.551883 0.000000
vn 0.979873 0.199624 0.000000
vn 0.716102 0.697996 0.000000
vn 0.828852 0.559468 0.000000
vn 0.981626 -0.190813 0.000000
vn 0.559384 -0.828909 0.000000
vn -0.190706 -0.981647 0.000000
vn -0.716253 -0.697841 0.000000
vn 0.000000 0.000000 1.000000
vn 0.000000 0.000000 1.000000
vn 0.000000 0.000000 1.000000
vn 0.000000 0.000000 1.000000
vn -0.260172 -0.399529 0.879026
vn 0.100308 -0.479164 0.871975
vn 0.413013 -0.273198 0.868782
vn 0.480929 0.095385 0.871556
vn 0.334652 0.326191 0.884085
vn 0.479387 -0.094298 0.872523
vn 0.274103 -0.403938 0.872755
vn -0.088478 -0.469858 0.878297
vn -0.322803 -0.314505 0.892684
vn 0.398567 0.265791 0.877781
g fff0aa7b_00186_004ae602_e6
f 20/21/20 25/22/25 15/23/15
f 13/24/13 27/25/27 16/26/16
f 11/27/11 29/28/29 18/29/18
f 19/30/19 21/31/21 11/27/11
f 26/32/26 25/22/25 20/21/20
f 14/33/14 24/34/24 26/32/26
f 27/25/27 24/34/24 14/33/14
f 13/24/13 23/35/23 27/25/27
f 28/36/28 23/35/23 13/24/13
f 12/37/12 22/38/22 28/36/28
f 29/28/29 22/38/22 18/29/18
f 11/27/11 21/31/21 29/28/29
f 30/39/30 21/31/21 19/30/19
f 17/40/17 28/36/28 13/24/13
f 12/37/12 28/36/28 17/40/17
f 18/29/18 22/38/22 12/37/12
f 16/26/16 27/25/27 14/33/14
f 14/33/14 26/32/26 20/21/20
f 35/1/35 42/1/42 39/1/39
f 39/1/39 42/1/42 36/1/36
f 41/1/41 39/1/39 36/1/36
f 35/1/35 39/1/39 43/1/43
f 39/1/39 40/1/40 44/1/44
f 39/1/39 37/1/37 40/1/40
f 40/1/40 38/1/38 44/1/44
f 39/1/39 41/1/41 37/1/37
g fff0aa7b_00186_004ae602_e10
f 5/1/5 10/2/10 20/3/20
f 20/3/20 15/4/15 5/1/5
f 16/5/16 14/6/14 4/7/4
f 4/7/4 6/8/6 16/5/16
f 17/9/17 13/10/13 3/11/3
f 3/11/3 7/12/7 17/9/17
f 14/6/14 20/3/20 10/2/10
f 10/2/10 4/7/4 14/6/14
f 8/13/8 1/14/1 11/15/11
f 11/15/11 18/16/18 8/13/8
f 1/14/1 9/17/9 19/18/19
f 19/18/19 11/15/11 1/14/1
f 7/12/7 2/19/2 12/20/12
f 12/20/12 17/9/17 7/12/7
f 2/19/2 8/13/8 18/16/18
f 18/16/18 12/20/12 2/19/2
f 6/8/6 3/11/3 13/10/13
f 13/10/13 16/5/16 6/8/6
f 1/14/1 8/13/8 42/46/42
f 42/46/42 35/45/35 1/14/1
f 9/17/9 1/14/1 43/47/43
f 35/45/35 43/47/43 1/14/1
f 2/19/2 7/12/7 41/49/41
f 41/49/41 36/48/36 2/19/2
f 8/13/8 2/19/2 42/46/42
f 36/48/36 42/46/42 2/19/2
f 7/12/7 3/11/3 41/49/41
f 37/50/37 41/49/41 3/11/3
f 3/11/3 6/8/6 40/51/40
f 40/51/40 37/50/37 3/11/3
f 6/8/6 4/7/4 40/51/40
f 38/52/38 40/51/40 4/7/4
f 4/7/4 10/2/10 44/53/44
f 44/53/44 38/52/38 4/7/4
f 10/2/10 5/1/5 44/53/44
f 39/54/39 44/53/44 5/1/5
g fff0aa7b_00186_004ae602_e1
f 34/41/34 33/42/33 31/43/31
f 32/44/32 34/41/34 31/43/31
