# fff0af14_00264_008eea29
o fff0af14_00264_008eea29
v 0.211128 -0.181772 0.009192
v 0.078991 -0.181102 0.009192
v 0.077831 -2.211072 0.009192
v 0.211224 -2.211072 0.009192
v 0.211174 -0.181772 -0.100971
v 0.211174 -2.211072 -0.100971
v 0.211128 -0.181772 0.009192
v 0.211224 -2.211072 0.009192
v 0.211128 1.612330 0.009192
v 0.078991 1.614156 0.009192
v 0.077831 0.346608 0.009192
v 0.211224 0.346608 0.009192
v 0.211174 1.612330 -0.100971
v 0.211174 0.346608 -0.100971
v 0.211128 1.612330 0.009192
v 0.211224 0.346608 0.009192
v -4.266327 -1.922150 0.009192
v -3.969322 -2.119553 0.009192
v -4.133030 -0.656418 0.009192
v -4.266422 -0.656418 0.009192
v -4.266373 -1.922150 -0.100971
v -4.266373 -0.656418 -0.100971
v -4.266327 -1.922150 0.009192
v -4.266422 -0.656418 0.009192
v -4.266327 -0.527417 0.009192
v -3.896683 -0.172572 0.009192
v -3.895523 1.298012 0.009192
v -4.266422 1.602502 0.009192
v -4.266373 -0.527417 -0.100971
v -4.266373 1.516534 -0.100971
v -4.266327 -0.527417 0.009192
v -4.266422 1.602502 0.009192
v -0.138529 -1.455096 0.009192
v -4.128923 -1.453453 0.009192
vt 2.567048 2.278016
vt 2.567048 2.382666
vt 1.286999 2.391060
vt 1.286999 2.285997
vt 2.567349 2.203296
vt 1.287301 2.211277
vt 1.641034 2.283928
vt 1.934290 2.386364
vt 1.641034 2.388991
vt 1.934001 2.282109
vt 1.641453 2.209069
vt 1.934383 2.207242
vt 2.650340 2.025511
vt 3.415275 2.511723
vt 2.650340 2.511723
vt 3.414520 2.023692
vt 2.651432 2.511723
vt 3.415516 2.511723
vt 1.865834 2.387264
vt 1.825434 2.387340
vn 0.000000 0.000000 1.000000
vn 0.000000 0.000000 1.000000
vn 0.000000 0.000000 1.000000
vn 0.000000 0.000000 1.000000
vn 1.000000 0.000000 0.000416
vn 1.000000 0.000045 -0.000420
vn 1.000000 0.000002 0.000386
vn 1.000000 0.000047 -0.000450
vn 0.000000 0.000000 1.000000
vn 0.000000 0.000000 1.000000
vn 0.000000 0.000000 1.000000
vn 0.000000 0.000000 1.000000
vn 1.000000 0.000000 0.000416
vn 1.000000 0.000071 -0.000402
vn 1.000000 0.000004 0.000368
vn 1.000000 0.000075 -0.000450
vn 0.000000 0.000000 1.000000
vn 0.000000 0.000000 1.000000
vn 0.000000 0.000000 1.000000
vn 0.000000 0.000000 1.000000
vn -1.000000 0.000000 0.000416
vn -1.000000 -0.000071 -0.000402
vn -1.000000 -0.000004 0.000368
vn -1.000000 -0.000075 -0.000450
vn 0.000000 0.000000 1.000000
vn 0.000000 0.000000 1.000000
vn 0.000000 0.000000 1.000000
vn 0.000000 0.000000 1.000000
vn -1.000000 0.000000 0.000416
vn -1.000000 -0.000044 -0.000395
vn -1.000000 -0.000002 0.000387
vn -1.000000 -0.000045 -0.000415
vn 0.000000 0.000000 1.000000
vn 0.000000 0.000000 1.000000
g fff0af14_00264_008eea29_e13
f 4/4/4 2/2/2 33/19/33
f 2/2/2 4/4/4 1/1/1
f 6/6/6 7/1/7 8/4/8
f 7/1/7 6/6/6 5/5/5
f 12/7/12 10/8/10 11/9/11
f 10/8/10 12/7/12 9/10/9
f 14/11/14 15/10/15 16/7/16
f 15/10/15 14/11/14 13/12/13
f 20/7/20 17/10/17 34/20/34
f 18/8/18 34/20/34 17/10/17
f 22/11/22 23/10/23 24/7/24
f 23/10/23 22/11/22 21/12/21
f 28/13/28 26/14/26 27/15/27
f 26/14/26 28/13/28 25/16/25
f 30/17/30 31/16/31 32/13/32
f 31/16/31 30/17/30 29/18/29
f 4/4/4 33/19/33 3/3/3
f 20/7/20 34/20/34 19/9/19
