# fff02c13_00346_009d0e51
o fff02c13_00346_009d0e51
v 0.028885 0.586220 -0.304858
v -0.028885 0.586220 -0.304858
v 0.028885 -0.586220 -0.304858
v -0.028885 -0.586220 -0.304858
v 0.028885 0.586220 0.410723
v -0.028885 0.586220 0.410723
v 0.028885 -0.586220 0.410723
v -0.028885 -0.586220 0.410723
v 0.028885 0.499855 -0.224737
v 0.028885 -0.499855 -0.224737
v 0.028885 0.499855 0.326607
v 0.028885 -0.499855 0.326607
v -0.008408 0.499855 -0.224737
v -0.008408 -0.499855 -0.224737
v -0.008408 0.499855 0.326607
v -0.008408 -0.499855 0.326607
v -0.028885 0.636635 -0.431583
v -0.028885 -0.636635 -0.431583
v -0.028885 0.636635 0.431583
v -0.028885 -0.636635 0.431583
v -0.008408 0.499855 -0.224737
v -0.008408 -0.499855 -0.224737
v -0.008408 0.499855 0.326607
v -0.008408 -0.499855 0.326607
v -0.028885 0.586220 -0.304858
v -0.028885 -0.586220 -0.304858
v -0.028885 0.586220 0.410723
v -0.028885 -0.586220 0.410723
vt 0.000000 0.000000
vt 1.000000 0.000000
vt 0.000000 1.000000
vt 1.000000 1.000000
vt 0.000000 0.000000
vt 1.000000 0.000000
vt 0.000000 1.000000
vt 1.000000 1.000000
vt 0.000000 0.000000
vt 1.000000 0.000000
vt 0.000000 1.000000
vt 1.000000 1.000000
vt 1.000000 0.000000
vt 0.000000 0.000000
vt 1.000000 1.000000
vt 0.000000 1.000000
vt 1.000000 0.000000
vt 1.000000 1.000000
vt 0.000000 0.000000
vt 0.000000 1.000000
vt 0.368904 1.365731
vt 0.368904 3.589881
vt -3.932379 3.589881
vt -3.932379 1.365731
vt 1.000000 0.000000
vt 1.000000 1.000000
vt 0.000000 0.000000
vt 0.000000 1.000000
vt 0.000000 0.000000
vt 0.000000 1.000000
vt 1.000000 0.000000
vt 1.000000 1.000000
vn 0.707107 0.707107 0.000000
vn 0.000000 1.000000 0.000000
vn 0.707107 -0.707107 0.000000
vn 0.000000 -1.000000 0.000000
vn 0.577350 0.577350 0.577350
vn 0.000000 0.707107 0.707107
vn 0.577350 -0.577350 0.577350
vn 0.000000 -0.707107 0.707107
vn 0.904534 -0.301511 0.301511
vn 0.904534 0.301511 0.301511
vn 0.948683 -0.316228 0.000000
vn 0.948683 0.316228 0.000000
vn 0.000000 -0.707107 0.707107
vn 0.000000 0.707107 0.707107
vn 0.000000 -1.000000 0.000000
vn 0.000000 1.000000 0.000000
vn 1.000000 0.000000 0.000000
vn 1.000000 0.000000 0.000000
vn 1.000000 0.000000 0.000000
vn 1.000000 0.000000 0.000000
vn 1.000000 0.000000 0.000000
vn 1.000000 0.000000 0.000000
vn 1.000000 0.000000 0.000000
vn 1.000000 0.000000 0.000000
vn 1.000000 0.000000 0.000000
vn 1.000000 0.000000 0.000000
vn 1.000000 0.000000 0.000000
vn 1.000000 0.000000 0.000000
g fff02c13_00346_009d0e51_e0
f 9/13/9 10/14/10 3/1/3
f 3/1/3 1/2/1 9/13/9
f 10/14/10 12/16/12 7/3/7
f 7/3/7 3/1/3 10/14/10
f 11/15/11 9/13/9 1/2/1
f 1/2/1 5/4/5 11/15/11
f 5/4/5 7/3/7 12/16/12
f 12/16/12 11/15/11 5/4/5
g fff02c13_00346_009d0e51_e3
f 23/21/23 24/22/24 22/23/22
f 22/23/22 21/24/21 23/21/23
g fff02c13_00346_009d0e51_e1
f 1/5/1 2/6/2 6/8/6
f 6/8/6 5/7/5 1/5/1
f 4/5/4 3/6/3 7/8/7
f 7/8/7 8/7/8 4/5/4
f 9/13/9 11/15/11 15/18/15
f 15/18/15 13/17/13 9/13/9
f 12/16/12 10/14/10 14/19/14
f 14/19/14 16/20/16 12/16/12
g fff02c13_00346_009d0e51_e2
f 5/9/5 6/10/6 8/12/8
f 8/12/8 7/11/7 5/9/5
f 13/17/13 14/19/14 10/14/10
f 10/14/10 9/13/9 13/17/13
g fff02c13_00346_009d0e51_e4
f 25/6/25 19/26/19 27/8/27
f 19/26/19 25/6/25 17/25/17
f 26/5/26 28/7/28 20/30/20
f 20/30/20 18/29/18 26/5/26
f 27/10/27 20/32/20 28/12/28
f 20/32/20 27/10/27 19/31/19
f 25/9/25 26/11/26 18/28/18
f 18/28/18 17/27/17 25/9/25
