# fff0af20_00022_000f199c
o fff0af20_00022_000f199c
v 0.100260 0.000000 0.000000
v 0.050130 0.086828 0.000000
v -0.050130 0.086828 0.000000
v -0.100260 -0.000000 0.000000
v -0.050130 -0.086828 0.000000
v 0.050130 -0.086828 0.000000
v 0.100260 0.000000 1.043325
v 0.050130 0.086828 1.043325
v -0.050130 0.086828 1.043325
v -0.100260 -0.000000 1.043325
v -0.050130 -0.086828 1.043325
v 0.050130 -0.086828 1.043325
v 0.230619 0.243280 0.010452
v -0.242307 0.243299 0.010452
v -0.242295 -0.228161 0.010452
v 0.230597 -0.228161 0.010452
v 0.230619 0.243280 0.022444
v -0.242307 0.243299 0.022444
v -0.242295 -0.228161 0.022444
v 0.230597 -0.228161 0.022444
v 0.100260 0.000000 1.043325
v 0.050130 0.086828 1.043325
v -0.050130 0.086828 1.043325
v -0.100260 -0.000000 1.043325
v -0.050130 -0.086828 1.043325
v 0.050130 -0.086828 1.043325
v 0.100260 -1.821411 0.000000
v 0.050130 -1.734583 0.000000
v -0.050130 -1.734583 0.000000
v -0.100260 -1.821411 0.000000
v -0.050130 -1.908239 0.000000
v 0.050130 -1.908239 0.000000
v 0.100260 -1.821411 1.043325
v 0.050130 -1.734583 1.043325
v -0.050130 -1.734583 1.043325
v -0.100260 -1.821411 1.043325
v -0.050130 -1.908239 1.043325
v 0.050130 -1.908239 1.043325
v 0.230619 -1.578131 0.010452
v -0.242307 -1.578112 0.010452
v -0.242295 -2.049572 0.010452
v 0.230597 -2.049572 0.010452
v 0.230619 -1.578131 0.022444
v -0.242307 -1.578112 0.022444
v -0.242295 -2.049572 0.022444
v 0.230597 -2.049572 0.022444
v 0.100260 -1.821411 1.043325
v 0.050130 -1.734583 1.043325
v -0.050130 -1.734583 1.043325
v -0.100260 -1.821411 1.043325
v -0.050130 -1.908239 1.043325
v 0.050130 -1.908239 1.043325
vt -0.003959 1.000042
vt -0.003938 -0.009000
vt 0.540358 -0.037621
vt 1.001878 1.000000
vt -0.003826 1.000034
vt 1.002009 -0.008975
vt 0.000000 0.000000
vt 0.166667 0.000000
vt 0.333333 0.000000
vt 0.500000 0.000000
vt 0.666667 0.000000
vt 0.833333 0.000000
vt 1.000000 0.000000
vt 0.000000 7.798114
vt 0.166667 7.798114
vt 0.333333 7.798114
vt 0.500000 7.798115
vt 0.666667 7.798114
vt 0.833333 7.798114
vt 1.000000 7.798114
vt 0.833333 0.000000
vt 1.000000 0.000000
vt 1.000000 7.798114
vt 0.833333 7.798114
vt 0.666667 0.000000
vt 0.666667 7.798114
vt 0.500000 0.000000
vt 0.500000 7.798115
vt 0.166667 0.000000
vt 0.333333 0.000000
vt 0.333333 7.798114
vt 0.166667 7.798114
vt 0.000000 0.000000
vt 0.000000 7.798114
vt 1.002009 -0.008975
vt -0.003959 1.000042
vt -0.003938 -0.009000
vt 0.540358 -0.037621
vt 1.001878 1.000000
vt -0.003826 1.000034
vn 1.000000 0.000000 0.000000
vn 0.500000 0.866025 0.000000
vn -0.500000 0.866025 0.000000
vn -1.000000 -0.000000 0.000000
vn -0.500000 -0.866026 0.000000
vn 0.500000 -0.866025 0.000000
vn 1.000000 -0.000000 0.000000
vn 0.500000 0.866025 0.000000
vn -0.500000 0.866025 0.000000
vn -1.000000 -0.000000 0.000000
vn -0.500000 -0.866025 0.000000
vn 0.500000 -0.866025 0.000000
vn 0.000000 0.000000 1.000000
vn 0.000000 0.000000 1.000000
vn 0.000000 0.000000 1.000000
vn 0.000000 0.000000 1.000000
vn 0.000000 0.000000 1.000000
vn 0.000000 0.000000 1.000000
vn 0.000000 0.000000 1.000000
vn 0.000000 0.000000 1.000000
vn 0.000000 0.000000 1.000000
vn 0.000000 0.000000 1.000000
vn 0.000000 0.000000 1.000000
vn 0.000000 0.000000 1.000000
vn 0.000000 0.000000 1.000000
vn 0.000000 0.000000 1.000000
vn 1.000000 0.000000 0.000000
vn 0.500000 0.866025 0.000000
vn -0.500000 0.866025 0.000000
vn -1.000000 -0.000000 0.000000
vn -0.500000 -0.866025 0.000000
vn 0.500000 -0.866025 0.000000
vn 1.000000 -0.000000 0.000000
vn 0.500000 0.866025 0.000000
vn -0.500000 0.866025 0.000000
vn -1.000000 0.000000 0.000000
vn -0.500000 -0.866025 0.000000
vn 0.500000 -0.866025 0.000000
vn 0.000000 0.000000 1.000000
vn 0.000000 0.000000 1.000000
vn 0.000000 0.000000 1.000000
vn 0.000000 0.000000 1.000000
vn 0.000000 0.000000 1.000000
vn 0.000000 0.000000 1.000000
vn 0.000000 0.000000 1.000000
vn 0.000000 0.000000 1.000000
vn 0.000000 0.000000 1.000000
vn 0.000000 0.000000 1.000000
vn 0.000000 0.000000 1.000000
vn 0.000000 0.000000 1.000000
vn 0.000000 0.000000 1.000000
vn 0.000000 0.000000 1.000000
g fff0af20_00022_000f199c_e5
f 6/12/6 1/13/1 7/20/7
f 6/12/6 7/20/7 12/19/12
f 5/11/5 6/12/6 12/19/12
f 5/11/5 12/19/12 11/18/11
f 4/10/4 5/11/5 11/18/11
f 4/10/4 11/18/11 10/17/10
f 2/8/2 3/9/3 9/16/9
f 3/9/3 4/10/4 10/17/10
f 3/9/3 10/17/10 9/16/9
f 2/8/2 9/16/9 8/15/8
f 1/7/1 2/8/2 8/15/8
f 1/7/1 8/15/8 7/14/7
f 23/6/23 21/1/21 22/2/22
f 23/6/23 24/3/24 25/4/25
f 23/6/23 25/4/25 26/5/26
f 23/6/23 26/5/26 21/1/21
f 32/21/32 27/22/27 33/23/33
f 32/21/32 33/23/33 38/24/38
f 31/25/31 32/21/32 38/24/38
f 31/25/31 38/24/38 37/26/37
f 30/27/30 31/25/31 37/26/37
f 30/27/30 37/26/37 36/28/36
f 28/29/28 29/30/29 35/31/35
f 29/30/29 30/27/30 36/28/36
f 29/30/29 36/28/36 35/31/35
f 28/29/28 35/31/35 34/32/34
f 27/33/27 28/29/28 34/32/34
f 27/33/27 34/32/34 33/34/33
f 49/35/49 47/36/47 48/37/48
f 49/35/49 50/38/50 51/39/51
f 49/35/49 51/39/51 52/40/52
f 49/35/49 52/40/52 47/36/47
g fff0af20_00022_000f199c_e9
f 15/6/15 13/1/13 14/2/14
f 15/6/15 16/4/16 13/5/13
f 19/6/19 17/1/17 18/2/18
f 19/6/19 20/4/20 17/5/17
f 41/35/41 39/36/39 40/37/40
f 41/35/41 42/39/42 39/40/39
f 45/35/45 43/36/43 44/37/44
f 45/35/45 46/39/46 43/40/43
