# fff0a81b_00770_010804ac
o fff0a81b_00770_010804ac
v -7.682347 -104.557266 192.903809
v -196.978851 -104.833748 192.903809
v -11.853518 -95.593887 200.145905
v -188.634857 -95.868416 200.145905
v -188.634888 -50.953079 200.145905
v -11.853518 -50.678490 188.989960
v -11.853518 -50.678490 200.145905
v -188.574478 -50.953079 188.992767
v -11.853609 -95.593826 200.145905
v -11.853609 -95.593826 188.989960
v -88.440338 -85.037521 210.093536
v -115.853241 -85.041550 210.093536
v -25.067324 -77.017044 208.282440
v -41.234013 -77.019424 208.282440
v -88.440338 -56.130116 198.937592
v -115.843292 -56.134144 198.940430
v -88.440338 -56.130116 210.093536
v -115.853241 -56.134144 210.093536
v -88.440338 -85.037521 210.093536
v -88.440338 -85.037521 198.937592
v -25.067324 -59.968952 197.126495
v -41.228153 -59.971333 197.129303
v -25.067324 -59.968952 208.282440
v -41.234013 -59.971333 208.282440
v -196.978851 -104.833748 192.903809
v -196.913910 -104.833748 -680.968994
v -196.913940 -46.472305 -680.968994
v -196.978882 -46.472305 192.903809
v -188.634857 -95.868416 200.145905
v -188.634857 -95.868416 190.354706
v -188.634888 -50.953079 190.354706
v -188.634888 -50.953079 200.145905
v 122.735176 26.217831 106.977051
v 145.695923 104.680283 106.977051
v 145.695923 104.680283 -543.971558
v 135.847229 94.831619 -543.971558
v 105.129654 64.114029 106.977051
v 94.984329 53.968647 -543.971558
v 105.129654 64.114029 -543.971558
v 94.984329 53.968647 106.977051
v 94.984329 53.968647 106.977051
v 94.984329 53.968647 -543.971558
v 124.293404 24.659634 106.977051
v 124.293404 24.659634 -543.971558
v 173.446732 76.929428 106.977051
v 135.847229 94.831619 106.977051
v -88.440338 -56.130116 198.937592
v -88.440338 -56.130116 210.093536
v -25.067324 -77.017044 208.282440
v -25.067324 -59.968952 197.126495
v -25.067324 -77.017044 197.126495
v -25.067324 -59.968952 208.282440
v -11.853518 -50.678490 188.989960
v -11.853518 -50.678490 200.145905
v 101.787155 51.125938 105.628876
v 168.245468 79.804825 112.875793
v 119.241951 57.734486 110.576660
v 112.713875 51.206444 118.342560
v 112.713875 51.206444 110.576660
v 119.241951 57.734486 118.342560
v 151.443771 89.936356 108.773254
v 136.171875 74.664444 120.145966
v 136.171875 74.664444 108.773254
v 151.443771 89.936356 120.145966
v 149.355789 98.694534 105.628876
v 149.355789 98.694534 112.875793
v -17.750036 -59.265339 207.944550
v -8.237431 -55.332844 207.945251
v -17.457525 -59.971027 199.365112
v -7.948185 -56.031025 199.365112
v -188.490356 -59.535229 207.944550
v -178.977768 -55.602734 207.945251
v -188.197845 -60.240856 199.365112
v -178.688492 -56.300915 199.365112
v 120.676826 32.236198 112.875793
v 120.676826 32.236198 105.628876
v 101.787155 51.125938 112.875793
v -41.234013 -77.019424 208.282440
v -41.234013 -77.019424 198.546906
v -41.234013 -59.971333 198.546906
v -41.234013 -59.971333 208.282440
v -115.853241 -85.041550 210.093536
v -115.853241 -85.041550 200.358002
v -115.853241 -56.134144 200.358002
v -115.853241 -56.134144 210.093536
v 110.617378 50.241386 120.082916
v 101.670029 51.169456 114.912384
v 113.025032 56.042500 120.083313
v 111.048103 50.063133 114.847900
v 113.451027 55.865986 114.847900
v 103.408829 55.359119 114.912689
v 101.981155 51.040703 111.131592
v 103.716568 55.231647 111.131592
v 147.867432 99.382523 111.131592
v 147.559753 99.509995 114.912689
v 145.820892 95.320328 114.912384
v 146.132019 95.191574 111.131592
v -128.315155 -45.747410 166.467163
v -119.715363 -45.524742 166.468536
v -196.978882 -46.472305 192.903809
v -7.682347 -46.195824 -680.968994
v -7.682347 -46.195824 192.903809
v -196.913940 -46.472305 -680.968994
v -128.379196 -45.749069 147.859970
v -119.779030 -45.526390 147.859970
v -111.062065 -45.300686 166.467163
v -102.462273 -45.078018 166.468536
v -111.126106 -45.302345 147.859970
v -102.525940 -45.079666 147.859970
v -95.070877 -44.886635 166.467163
v -86.471085 -44.663967 166.468536
v -95.134918 -44.888294 147.859970
v -86.534752 -44.665615 147.859970
v -161.810944 -45.328663 115.870552
v -153.211151 -45.105995 115.871925
v -161.874985 -45.330322 97.263359
v -153.274811 -45.107643 97.263359
v -143.529205 -46.141338 143.580963
v -134.929413 -45.918671 143.582336
v -143.593231 -46.142998 124.973770
v -134.993073 -45.920319 124.973770
v -127.538010 -45.727287 143.580963
v -118.938217 -45.504620 143.582336
v -127.602051 -45.728947 124.973770
v -119.001884 -45.506268 124.973770
v -70.130638 -43.806030 115.870552
v -61.530838 -43.583363 115.871925
v -70.194679 -43.807690 97.263359
v -61.594498 -43.585011 97.263359
v -85.644653 -44.642567 65.762512
v -77.044861 -44.419899 65.763885
v -85.708694 -44.644226 47.155319
v -77.108536 -44.421547 47.155319
v -68.391571 -44.195843 65.762512
v -59.791775 -43.973175 65.763885
v -68.455612 -44.197502 47.155319
v -59.855442 -43.974823 47.155319
v -52.400379 -43.781792 65.762512
v -43.800587 -43.559124 65.763885
v -52.464420 -43.783451 47.155319
v -43.864254 -43.560772 47.155319
v -146.003098 -44.919357 12.063919
v -137.403305 -44.696690 12.065292
v -146.067139 -44.921017 -6.543274
v -137.466965 -44.698338 -6.543274
v -127.721359 -45.732033 39.774330
v -119.121567 -45.509365 39.775703
v -127.785385 -45.733692 21.167137
v -119.185226 -45.511013 21.167137
v -111.730164 -45.317982 39.774330
v -103.130371 -45.095314 39.775703
v -111.794205 -45.319641 21.167137
v -103.194046 -45.096962 21.167137
v -27.460140 -42.701187 15.165901
v -18.860340 -42.478519 15.167274
v -27.524181 -42.702847 -3.441292
v -18.924000 -42.480167 -3.441292
v -144.858429 -46.175755 -37.071712
v -136.258636 -45.953087 -37.070339
v -144.922485 -46.177414 -55.678905
v -136.322327 -45.954735 -55.678905
v -127.605354 -45.729031 -37.071712
v -119.005554 -45.506363 -37.070339
v -127.669395 -45.730690 -55.678905
v -119.069229 -45.508011 -55.678905
v -111.614166 -45.314980 -37.071712
v -103.014374 -45.092312 -37.070339
v -111.678207 -45.316639 -55.678905
v -103.078033 -45.093960 -55.678905
v -170.943939 -46.851170 -63.059895
v -162.344147 -46.628502 -63.058521
v -171.007996 -46.852829 -81.667084
v -162.407837 -46.630150 -81.667084
v -86.673920 -44.234375 -87.668320
v -78.074127 -44.011707 -87.666946
v -86.737961 -44.236034 -106.275513
v -78.137787 -44.013355 -106.275513
vt 0.108048 0.816704
vt -0.104636 0.824563
vt -0.104636 0.816704
vt 0.108048 0.824563
vt 1.731781 -0.161080
vt 1.731781 -0.180474
vt 1.000000 0.000000
vt -0.348064 1.000000
vt 1.731781 -0.180474
vt 1.731781 -0.161080
vt 0.904387 4.891724
vt 1.731781 4.891724
vt 1.564981 -4.345305
vt 1.172786 -4.345305
vt 1.564981 0.001797
vt 1.172786 0.001797
vt 1.000000 0.555834
vt -0.000000 0.555834
vt -0.000000 0.555834
vt 1.000000 0.555834
vt 1.731781 4.891724
vt 1.731781 4.735695
vt -0.348064 0.000000
vt 1.000000 1.000000
vt -0.399594 0.890181
vt 2.963299 0.890181
vt -0.399594 0.890181
vt 0.108048 0.816704
vt -0.104636 0.824563
vt -0.104636 0.816704
vt 0.108048 0.824563
vt 0.904387 -0.180474
vt 0.904387 -0.161080
vt 1.731781 4.821200
vt 0.904387 4.821200
vt 2.963299 0.890181
vt -0.391490 0.984717
vt -0.293888 0.984717
vt -0.391967 0.984717
vt -0.293888 0.984717
vt -0.391967 0.984717
vt 0.665985 0.865973
vt 0.665985 0.860357
vt 0.608598 0.865301
vt -0.399594 0.890181
vt 2.963299 0.890181
vt 2.963299 0.890181
vt -0.399594 0.890181
vt -0.391490 0.984717
vt -0.391967 0.984717
vt -0.293888 0.984717
vt -0.391490 0.984717
vt 0.665985 0.865973
vt 0.608598 0.859684
vt 0.665985 0.860357
vt 0.608598 0.859684
vt -0.399594 0.890181
vt 2.963299 0.890181
vt 2.963299 0.890181
vt -0.399594 0.890181
vt -0.399594 0.890181
vt 2.963299 0.890181
vt 2.963299 0.890181
vt -0.399594 0.890181
vt 0.549864 1.915853
vt 0.608598 0.865301
vt -0.391967 0.984717
vt -0.293888 0.984717
vt -0.391490 0.984717
vt 0.665985 0.865973
vt 0.608598 0.859684
vt 0.665985 0.860357
vt -0.399594 0.890181
vt -0.399594 0.890181
vt 0.549864 1.915853
vt 0.941261 1.915853
vt 0.941249 1.057999
vt 0.549861 1.057999
vt 0.941249 1.057999
vt 0.941261 1.915853
vt 0.549861 1.057999
vt 0.608598 0.865301
vt -0.399594 0.890181
vt -0.399594 0.890181
vt -0.399594 0.890181
vt -0.399594 0.890181
vt -0.399594 0.890181
vt -0.399594 0.890181
vt 1.812315 1.902421
vt 1.639465 1.902584
vt 1.813308 0.922285
vt 1.640453 0.922285
vn 0.000000 0.000000 1.000000
vn 0.000000 0.000000 1.000000
vn 0.000000 0.000000 1.000000
vn 0.000000 0.000000 1.000000
vn -0.001096 0.705537 0.708673
vn -0.001554 0.999999 0.000000
vn -0.001099 0.707456 0.706757
vn -0.001553 0.999999 -0.000008
vn 1.000000 -0.000002 0.000000
vn 1.000000 -0.000002 0.000000
vn 0.000000 0.000000 1.000000
vn 0.000000 0.000000 1.000000
vn 0.000000 0.000000 1.000000
vn 0.000000 0.000000 1.000000
vn -0.000147 1.000000 0.000000
vn -0.000147 1.000000 -0.000000
vn -0.000104 0.707140 0.707074
vn -0.000104 0.706873 0.707341
vn 1.000000 0.000000 0.000000
vn 1.000000 0.000000 0.000000
vn -0.000147 1.000000 0.000000
vn -0.000147 1.000000 -0.000000
vn -0.000104 0.707140 0.707074
vn -0.000104 0.706955 0.707258
vn -1.000000 -0.000001 -0.000074
vn -1.000000 -0.000001 -0.000074
vn -1.000000 -0.000001 -0.000074
vn -1.000000 -0.000001 -0.000074
vn -1.000000 -0.000001 0.000000
vn -1.000000 -0.000001 0.000000
vn -1.000000 -0.000001 0.000000
vn -1.000000 -0.000001 0.000000
vn 0.000000 0.000000 1.000000
vn -0.500000 0.500001 0.707106
vn -0.707106 0.707108 0.000000
vn -0.707106 0.707107 0.000000
vn -0.500001 0.500000 0.707106
vn -0.707109 0.707105 0.000000
vn -0.707108 0.707106 0.000000
vn -0.500001 0.499998 0.707108
vn -0.707106 -0.707108 0.000000
vn -0.707106 -0.707108 0.000000
vn -0.707106 -0.707108 0.000000
vn -0.707106 -0.707108 0.000000
vn 0.000000 0.000000 1.000000
vn -0.499999 0.500000 0.707107
vn 1.000000 0.000000 0.000000
vn 1.000000 0.000000 0.000000
vn 1.000000 0.000000 0.000000
vn 1.000000 0.000000 0.000000
vn 1.000000 0.000000 0.000000
vn 1.000000 0.000000 0.000000
vn 1.000000 -0.000002 0.000000
vn 1.000000 -0.000002 0.000000
vn -1.000000 0.000001 0.000000
vn 0.000000 0.000000 1.000000
vn -0.707105 0.707109 0.000000
vn -0.707105 0.707109 0.000000
vn -0.707105 0.707109 0.000000
vn -0.707105 0.707109 0.000000
vn -0.707107 0.707106 0.000000
vn -0.707107 0.707106 0.000000
vn -0.707107 0.707106 0.000000
vn -0.707107 0.707106 0.000000
vn -0.707107 0.707107 0.000000
vn -0.500000 0.500000 0.707107
vn -0.380529 0.920506 -0.088689
vn -0.380958 0.920380 -0.088160
vn -0.380871 0.920406 -0.088267
vn -0.381299 0.920279 -0.087739
vn -0.380530 0.920507 -0.088682
vn -0.380955 0.920381 -0.088158
vn -0.380869 0.920407 -0.088264
vn -0.381293 0.920281 -0.087740
vn -0.500001 -0.499999 0.707106
vn -0.707108 -0.707106 0.000000
vn -0.816497 0.000001 0.577350
vn -1.000000 0.000000 0.000000
vn -1.000000 0.000000 0.000000
vn -1.000000 0.000000 0.000000
vn -1.000000 0.000000 0.000000
vn -1.000000 0.000000 0.000000
vn -1.000000 0.000000 0.000000
vn -1.000000 0.000000 0.000000
vn -1.000000 0.000000 0.000000
vn -0.919970 0.381824 -0.088694
vn -0.919972 0.381815 -0.088708
vn -0.920185 0.381429 -0.088162
vn -0.920141 0.381509 -0.088270
vn -0.920356 0.381113 -0.087737
vn -0.920186 0.381421 -0.088178
vn -0.920143 0.381501 -0.088286
vn -0.920357 0.381107 -0.087755
vn -0.920358 0.381107 -0.087740
vn -0.920185 0.381426 -0.088170
vn -0.919967 0.381826 -0.088708
vn -0.920141 0.381507 -0.088279
vn -0.025884 0.999665 -0.000000
vn -0.025884 0.999665 -0.000000
vn -0.001032 0.706761 0.707452
vn -0.001461 0.999999 0.000000
vn -0.001033 0.707435 0.706778
vn -0.001461 0.999999 -0.000000
vn -0.025884 0.999665 0.000000
vn -0.025884 0.999665 0.000000
vn -0.025884 0.999665 -0.000000
vn -0.025884 0.999665 -0.000000
vn -0.025884 0.999665 0.000000
vn -0.025884 0.999665 0.000000
vn -0.025884 0.999665 -0.000000
vn -0.025884 0.999665 -0.000000
vn -0.025884 0.999665 0.000000
vn -0.025884 0.999665 0.000000
vn -0.025884 0.999665 -0.000000
vn -0.025884 0.999665 -0.000000
vn -0.025884 0.999665 -0.000000
vn -0.025884 0.999665 0.000000
vn -0.025884 0.999665 -0.000000
vn -0.025884 0.999665 -0.000000
vn -0.025884 0.999665 -0.000000
vn -0.025884 0.999665 0.000000
vn -0.025884 0.999665 -0.000000
vn -0.025884 0.999665 -0.000000
vn -0.025884 0.999665 0.000000
vn -0.025884 0.999665 0.000000
vn -0.025884 0.999665 -0.000000
vn -0.025884 0.999665 -0.000000
vn -0.025884 0.999665 -0.000000
vn -0.025884 0.999665 0.000000
vn -0.025884 0.999665 -0.000000
vn -0.025884 0.999665 -0.000000
vn -0.025884 0.999665 0.000000
vn -0.025884 0.999665 0.000000
vn -0.025884 0.999665 -0.000000
vn -0.025884 0.999665 -0.000000
vn -0.025884 0.999665 0.000000
vn -0.025884 0.999665 0.000000
vn -0.025884 0.999665 -0.000000
vn -0.025884 0.999665 -0.000000
vn -0.025884 0.999665 0.000000
vn -0.025884 0.999665 0.000000
vn -0.025884 0.999665 -0.000000
vn -0.025884 0.999665 -0.000000
vn -0.025884 0.999665 -0.000000
vn -0.025884 0.999665 0.000000
vn -0.025884 0.999665 -0.000000
vn -0.025884 0.999665 -0.000000
vn -0.025884 0.999665 -0.000000
vn -0.025884 0.999665 0.000000
vn -0.025884 0.999665 -0.000000
vn -0.025884 0.999665 -0.000000
vn -0.025884 0.999665 0.000000
vn -0.025884 0.999665 0.000000
vn -0.025884 0.999665 -0.000000
vn -0.025884 0.999665 -0.000000
vn -0.025884 0.999665 -0.000000
vn -0.025884 0.999665 0.000000
vn -0.025884 0.999665 -0.000000
vn -0.025884 0.999665 -0.000000
vn -0.025884 0.999665 0.000000
vn -0.025884 0.999665 0.000000
vn -0.025884 0.999665 -0.000000
vn -0.025884 0.999665 -0.000000
vn -0.025884 0.999665 0.000000
vn -0.025884 0.999665 0.000000
vn -0.025884 0.999665 -0.000000
vn -0.025884 0.999665 -0.000000
vn -0.025884 0.999665 -0.000000
vn -0.025884 0.999665 0.000000
vn -0.025884 0.999665 -0.000000
vn -0.025884 0.999665 -0.000000
vn -0.025884 0.999665 0.000000
vn -0.025884 0.999665 0.000000
vn -0.025884 0.999665 -0.000000
vn -0.025884 0.999665 -0.000000
vn -0.025884 0.999665 -0.000000
vn -0.025884 0.999665 0.000000
g fff0a81b_00770_010804ac_e2
f 79/83/79 78/64/78 81/61/81
f 81/61/81 80/84/80 79/83/79
f 102/26/102 100/25/100 2/27/2
f 2/27/2 1/36/1 102/26/102
f 7/46/7 5/45/5 4/48/4
f 4/48/4 3/47/3 7/46/7
f 17/58/17 18/57/18 12/60/12
f 12/60/12 11/59/11 17/58/17
f 85/57/85 84/74/84 83/73/83
f 83/73/83 82/60/82 85/57/85
f 56/24/56 77/23/77 75/8/75
f 77/23/77 56/24/56 66/7/66
f 46/10/46 45/6/45 34/9/34
f 37/34/37 45/5/45 46/10/46
f 45/22/45 40/12/40 33/21/33
f 40/12/40 45/22/45 37/34/37
f 32/45/32 31/88/31 30/87/30
f 30/87/30 29/48/29 32/45/32
f 28/25/28 27/86/27 26/85/26
f 26/85/26 25/27/25 28/25/28
f 23/62/23 24/61/24 14/64/14
f 14/64/14 13/63/13 23/62/23
f 16/50/16 17/51/17 15/51/15
f 18/52/18 17/51/17 16/50/16
f 20/55/20 48/66/48 19/53/19
f 48/66/48 20/55/20 47/54/47
f 22/67/22 23/68/23 21/68/21
f 24/69/24 23/68/23 22/67/22
f 51/72/51 52/82/52 49/70/49
f 52/82/52 51/72/51 50/71/50
g fff0a81b_00770_010804ac_e3
f 44/16/44 43/15/43 42/14/42
f 43/15/43 41/13/41 42/14/42
f 40/12/40 39/35/39 38/11/38
f 39/35/39 40/12/40 37/34/37
f 37/34/37 36/33/36 39/35/39
f 36/33/36 37/34/37 46/10/46
f 46/10/46 35/32/35 36/33/36
f 35/32/35 46/10/46 34/9/34
f 66/4/66 55/3/55 77/2/77
f 55/3/55 66/4/66 65/1/65
f 64/31/64 63/30/63 62/29/62
f 63/30/63 64/31/64 61/28/61
f 60/31/60 59/30/59 58/29/58
f 59/30/59 60/31/60 57/28/57
g fff0a81b_00770_010804ac_e6
f 90/65/90 89/81/89 88/80/88
f 89/81/89 86/79/86 88/80/88
f 97/78/97 96/77/96 95/76/95
f 94/75/94 97/78/97 95/76/95
f 93/75/93 92/78/92 91/76/91
f 92/78/92 87/77/87 91/76/91
f 69/78/69 67/77/67 68/76/68
f 70/75/70 69/78/69 68/76/68
f 73/78/73 71/77/71 72/76/72
f 74/75/74 73/78/73 72/76/72
f 105/92/105 104/91/104 99/90/99
f 104/91/104 98/89/98 99/90/99
f 109/92/109 108/91/108 107/90/107
f 108/91/108 106/89/106 107/90/107
f 113/92/113 112/91/112 111/90/111
f 112/91/112 110/89/110 111/90/111
f 117/92/117 116/91/116 115/90/115
f 116/91/116 114/89/114 115/90/115
f 121/92/121 120/91/120 119/90/119
f 120/91/120 118/89/118 119/90/119
f 125/92/125 124/91/124 123/90/123
f 124/91/124 122/89/122 123/90/123
f 129/92/129 128/91/128 127/90/127
f 128/91/128 126/89/126 127/90/127
f 133/92/133 132/91/132 131/90/131
f 132/91/132 130/89/130 131/90/131
f 137/92/137 136/91/136 135/90/135
f 136/91/136 134/89/134 135/90/135
f 141/92/141 140/91/140 139/90/139
f 140/91/140 138/89/138 139/90/139
f 145/92/145 144/91/144 143/90/143
f 144/91/144 142/89/142 143/90/143
f 149/92/149 148/91/148 147/90/147
f 148/91/148 146/89/146 147/90/147
f 153/92/153 152/91/152 151/90/151
f 152/91/152 150/89/150 151/90/151
f 157/92/157 156/91/156 155/90/155
f 156/91/156 154/89/154 155/90/155
f 161/92/161 160/91/160 159/90/159
f 160/91/160 158/89/158 159/90/159
f 165/92/165 164/91/164 163/90/163
f 164/91/164 162/89/162 163/90/163
f 169/92/169 168/91/168 167/90/167
f 168/91/168 166/89/166 167/90/167
f 173/92/173 172/91/172 171/90/171
f 172/91/172 170/89/170 171/90/171
f 177/92/177 176/91/176 175/90/175
f 176/91/176 174/89/174 175/90/175
g fff0a81b_00770_010804ac_e0
f 77/20/77 76/19/76 75/18/75
f 76/19/76 77/20/77 55/17/55
f 54/44/54 10/43/10 53/56/53
f 10/43/10 54/44/54 9/42/9
f 8/39/8 7/38/7 6/38/6
f 5/37/5 7/38/7 8/39/8
f 100/49/100 102/40/102 103/41/103
f 103/41/103 102/40/102 101/40/101
