# fff08519_00205_003cd1ee
o fff08519_00205_003cd1ee
v 1.549271 -6.181683 -1.315580
v 4.293983 -5.702057 -2.453690
v 3.306968 -5.683859 -1.990220
v -5.608945 2.798772 2.724265
v 5.298179 -6.474123 -2.870496
v 1.274476 2.545708 -0.723676
v 5.082271 3.825655 -2.159137
v -3.725114 -6.028215 0.779243
v 2.921216 3.579998 -1.403186
v -1.463652 -6.167887 -0.121807
v 4.334278 4.921430 -1.677022
v 6.315936 6.474123 -2.385571
v -0.996011 2.068018 0.399749
v -1.760515 -5.771786 0.025037
v 5.340830 -3.991523 -2.598979
v 3.258756 -3.891126 -2.123422
v 0.920157 -3.967503 -0.998061
v -1.184096 -4.834292 -0.095967
v -3.608411 -5.025775 0.821210
v 3.262144 1.776439 -1.829522
v 5.123598 2.543502 -2.235841
v 0.958739 1.612762 -0.677571
v -1.538496 0.750754 0.574573
v -4.088573 0.778868 1.976802
v -6.222931 1.634612 2.687271
v -3.638802 2.323327 1.835316
v -0.221912 1.205219 -0.085578
v -0.193130 2.236937 0.002488
vt 1.122635 0.872492
vt 1.052951 0.870143
vt 0.019706 0.840591
vt -0.097384 0.814092
vt -0.126273 0.770100
vt -0.086689 0.793797
vt -0.025622 0.829755
vt 0.810512 0.928693
vt 0.097623 0.814625
vt 0.876010 0.887728
vt 0.939666 0.901031
vt 0.841718 0.892331
vt 1.044545 0.887800
vt -0.057871 0.814412
vt 0.796897 0.826464
vt 0.868930 0.812070
vt 0.950761 0.806264
vt 1.028292 0.833886
vt 1.113672 0.831513
vt -0.059454 0.846264
vt -0.094891 0.836639
vt -0.017585 0.845486
vt 0.031357 0.860772
vt 0.075360 0.852378
vt 0.111612 0.833544
vt 0.063366 0.826041
vt 0.005554 0.852713
vt 0.003677 0.836759
vn 0.375870 -0.035650 0.925987
vn 0.434883 0.085112 0.896456
vn 0.412368 0.051777 0.909545
vn 0.309135 -0.116585 0.943845
vn 0.279391 -0.056632 0.958506
vn 0.452020 -0.113902 0.884706
vn 0.341536 -0.125833 0.931407
vn 0.360544 -0.086542 0.928719
vn 0.382263 -0.147050 0.912278
vn 0.357161 -0.092879 0.929413
vn 0.379185 -0.143365 0.914147
vn 0.413300 -0.115291 0.903267
vn 0.468079 -0.078186 0.880221
vn 0.356689 -0.099413 0.928919
vn 0.216288 -0.109817 0.970134
vn 0.374934 0.028109 0.926625
vn 0.398839 0.000541 0.917021
vn 0.371358 -0.077420 0.925256
vn 0.358261 -0.080648 0.930132
vn 0.376916 -0.121576 0.918234
vn 0.232843 -0.050597 0.971197
vn 0.458894 -0.105619 0.882191
vn 0.475919 -0.079754 0.875866
vn 0.410199 -0.072130 0.909139
vn 0.252056 -0.163247 0.953844
vn 0.441560 -0.046506 0.896026
vn 0.466098 -0.083972 0.880739
vn 0.462196 -0.092951 0.881893
g fff08519_00205_003cd1ee_e0
f 18/18/18 19/19/19 8/1/8
f 23/23/23 13/3/13 24/24/24
f 7/4/7 12/5/12 11/6/11
f 20/20/20 21/21/21 7/4/7
f 18/18/18 8/1/8 14/2/14
f 25/25/25 24/24/24 4/9/4
f 24/24/24 26/26/26 4/9/4
f 17/17/17 18/18/18 1/11/1
f 28/28/28 27/27/27 22/22/22
f 3/10/3 17/17/17 1/11/1
f 22/22/22 20/20/20 6/7/6
f 16/16/16 5/8/5 15/15/15
f 18/18/18 10/13/10 1/11/1
f 16/16/16 3/10/3 2/12/2
f 3/10/3 16/16/16 17/17/17
f 28/28/28 22/22/22 6/7/6
f 5/8/5 16/16/16 2/12/2
f 18/18/18 14/2/14 10/13/10
f 20/20/20 9/14/9 6/7/6
f 9/14/9 20/20/20 7/4/7
f 11/6/11 9/14/9 7/4/7
f 24/24/24 13/3/13 26/26/26
f 13/3/13 23/23/23 27/27/27
f 13/3/13 27/27/27 28/28/28
