# fff08519_00271_0042d734
o fff08519_00271_0042d734
v -3.721304 -30.459789 -1.920107
v -0.322389 -29.951040 -2.779658
v 3.502254 -30.234453 -1.777755
v -3.646265 -29.443951 1.841219
v 0.191006 -29.507313 3.643696
v 3.514787 -30.214396 1.709278
v -0.061951 -30.325037 0.000448
vt 8.544609 1.393038
vt 8.417334 1.393038
vt 11.343403 1.263870
vt 11.425032 1.263870
vt 8.544609 1.506593
vt 8.544609 1.449816
vt 8.417334 1.506593
vt 11.343403 1.336699
vt 11.425032 1.336699
vt 11.343403 1.300284
vn -0.015749 -0.994882 0.099812
vn 0.041266 -0.989710 -0.137008
vn 0.001516 -0.998854 -0.047843
vn -0.111064 -0.963198 0.244774
vn -0.099195 -0.969419 0.224473
vn -0.021127 -0.993864 0.108571
vn -0.037188 -0.996583 0.073754
g fff08519_00271_0042d734_e0
f 7/10/7 6/9/6 5/8/5
f 4/7/4 7/6/7 5/5/5
f 7/10/7 3/4/3 6/9/6
f 2/3/2 3/4/3 7/10/7
f 1/2/1 2/1/2 7/6/7
f 1/2/1 7/6/7 4/7/4
