# fff08f90_00093_003dc5fe
o fff08f90_00093_003dc5fe
v -19.766304 -7.236815 -0.946869
v -11.504384 -13.231747 -0.965258
v -11.504384 -13.231747 -1.039772
v -11.132997 -13.231747 -0.965258
v -20.141081 -7.634432 -0.946869
v -20.141081 -7.634432 -1.218793
v -11.133095 -16.242357 -0.965258
v -11.504385 -16.242357 -1.039772
v -11.504385 -16.242357 -0.965258
v -19.766304 -7.236815 -1.021383
v -17.240269 -7.634431 -1.218793
v -17.240269 -7.634431 -0.946870
v -16.817871 -7.236816 -0.946870
v -17.241001 -13.238675 -1.218793
v -17.241001 -13.238675 -0.946870
v -16.817871 -12.889920 -0.946870
v -16.817467 -7.236815 -1.021383
v -11.447632 -7.359719 -1.012643
v -11.447632 7.465420 -1.012643
v -19.766300 7.357786 -0.946869
v -20.141077 7.755404 -0.946869
v -20.141077 7.755404 -1.218793
v -11.133093 13.281769 -0.965258
v -11.504383 12.818939 -1.039772
v -11.504383 12.818939 -0.965258
v -20.036331 7.459175 -1.012492
v -20.028885 -7.359720 -1.012492
v -19.766300 7.357786 -1.039772
v -17.240265 7.755404 -1.237182
v -17.240265 7.755404 -0.965258
v -16.817463 7.357787 -0.965258
v -17.240997 13.281769 -1.237182
v -17.240982 13.281769 -0.965258
v -16.818195 12.818939 -0.965258
v -16.817463 7.357787 -1.039772
v -16.878149 7.461446 -1.012547
v -16.878149 -7.359720 -1.012537
v -11.447632 12.971362 -1.012643
v -16.878149 12.971362 -1.012547
v -11.447632 -13.223756 -1.012643
v -16.878149 -13.223756 -1.012537
v -16.818115 12.818939 -1.039772
v -16.835257 -7.292782 -1.026522
v -16.834362 -7.453182 -0.967525
v -16.834362 -7.292782 -0.967525
v -11.462312 -7.292782 -0.967531
v -11.462312 -7.453182 -0.967531
v -11.462312 -7.292782 -1.026527
v -16.834362 -7.453182 -1.056509
v -11.462312 -7.453182 -1.056515
v -16.835257 7.542152 -1.026522
v -16.834362 7.381752 -0.967525
v -16.834362 7.542152 -0.967525
v -11.462311 7.542152 -0.967531
v -11.462311 7.381752 -0.967531
v -11.462311 7.542152 -1.026527
v -16.834362 7.381752 -1.056509
v -11.462311 7.381752 -1.056515
v -14.731405 -13.223756 -1.012579
v -11.447632 -16.242096 -1.012643
v -14.731405 -16.242096 -1.012579
v -11.132607 -19.089539 -2.469596
v -11.503897 -19.089539 -2.518164
v -11.503897 -19.089539 -2.469596
v -11.447510 -19.089508 -2.500679
v -14.730957 -19.089508 -2.500647
v -12.551270 -44.241913 -2.500567
v -14.730919 -42.925903 -2.500567
v -11.447632 -16.242096 -1.012643
v -14.731405 -16.242096 -1.012579
v -11.447510 -19.089508 -2.500679
v -14.730957 -19.089508 -2.500647
v -11.132608 -42.631287 -2.469596
v -11.503899 -42.925903 -2.518164
v -11.503899 -42.925903 -2.469596
v -14.730917 -25.122898 -2.500567
v -11.958919 -25.784931 -2.500567
v -11.958919 -30.802961 -2.500567
v -14.730919 -31.307755 -2.500567
v -11.958919 -33.252102 -2.500567
v -14.730919 -32.750717 -2.500567
v -11.958920 -38.742447 -2.500567
v -14.730919 -39.091286 -2.500567
v -11.958919 -31.343313 -2.500567
v -11.958919 -32.718685 -2.500567
v -14.730919 -32.432243 -2.500567
v -14.730919 -31.625357 -2.500567
v -11.958919 -25.186371 -2.500567
v -14.730917 -24.515629 -2.500567
v -11.958920 -39.223557 -2.500567
v -14.730919 -39.489655 -2.500567
v -11.447632 -42.925903 -2.500567
v -11.447632 -32.029053 -2.500567
v -14.719518 -13.238675 -0.946870
v -14.296388 -12.889920 -0.946870
v -16.817871 -12.889920 -1.029427
v -14.296388 -12.889920 -1.029427
v -14.719518 -16.197174 -0.946870
v -14.296388 -16.197174 -0.946870
v -11.447632 -25.432665 -2.500567
v -5.712347 -42.631287 -2.469596
v -5.977314 -42.925903 -2.518164
v -5.977314 -42.925903 -2.469596
v -14.730542 -50.971771 -2.500567
v -5.966482 -42.925903 -2.500567
v -5.966483 -51.072067 -2.500567
v -5.977314 -50.897690 -2.518164
v -5.977314 -50.897690 -2.469596
v -5.712347 -46.969910 -2.469596
v -5.977314 -46.969910 -2.469596
v -5.977314 -46.969910 -2.518164
v -9.212094 -47.108391 -2.500567
v -12.187500 -50.971771 -2.500567
v -7.880581 -69.102409 -2.500728
v 5.274748 -52.293137 -2.500567
v 5.432861 -69.108704 -2.500792
v -10.024362 -50.971771 -2.500768
v -13.289129 -46.867744 -2.500567
v -5.721191 -50.897690 -2.469596
v 5.442627 -58.860352 -2.500791
v -3.850910 -58.508881 -2.500791
v -5.741888 -57.722855 -2.500791
v -7.396857 -56.486938 -2.500567
v -1.790527 -58.860352 -2.500791
v -8.716942 -54.840645 -2.500766
v -9.837890 -53.007984 -2.500767
v -14.730432 -50.971771 -2.500567
v -10.024238 -50.971771 -2.500768
v 5.442627 -58.860352 -2.500791
v -3.850910 -58.508881 -2.500791
v -5.741888 -57.722855 -2.500791
v -7.396857 -56.486938 -2.500567
v -1.790527 -58.860352 -2.500791
v -8.716942 -54.840645 -2.500766
v -9.837890 -53.007984 -2.500767
v -0.595061 -51.072067 -2.500567
v 5.442663 -58.740143 -2.500567
v -1.786059 -58.740143 -2.500567
v -3.840566 -58.379726 -2.500567
v -5.670334 -57.604248 -2.500567
v -7.289798 -56.375584 -2.500567
v -8.577697 -54.717136 -2.500567
v -9.689453 -52.965454 -2.500567
v -9.840088 -50.762707 -2.500567
v -14.730546 -50.762707 -2.500567
v -12.187500 -50.762707 -2.500567
v 5.442871 -47.350792 -2.500567
v -0.590832 -47.350777 -2.500567
v -0.584107 -47.349579 -2.469596
v -0.344605 -47.553925 -2.518164
v -0.344605 -47.553925 -2.469596
v 5.440669 -47.349426 -2.477096
v 5.201167 -47.553925 -2.524919
v 5.201167 -47.553925 -2.477096
v 5.440668 -58.874149 -2.477096
v 5.201166 -58.874149 -2.546879
v 5.201166 -58.874149 -2.477096
v -3.198864 -53.477203 -2.504413
v -3.473484 -53.076283 -2.504413
v -3.563019 -52.598747 -2.504413
v -3.473417 -52.121227 -2.504413
v -2.798220 -53.751606 -2.504413
v -2.320610 -53.841076 -2.504413
v -1.843034 -53.751621 -2.504413
v -1.442133 -53.477184 -2.504413
v -1.167720 -53.076302 -2.504413
v -1.842992 -51.445881 -2.504413
v -2.320448 -51.356449 -2.504413
v -2.798177 -51.445900 -2.504413
v -3.198995 -51.720310 -2.504413
v -1.078405 -52.598740 -2.504413
v -1.167719 -52.121243 -2.504413
v -1.442098 -51.720303 -2.504413
v -20.166222 -3.865389 -1.033406
v -20.166222 3.726444 -1.033966
v -20.166222 0.648685 -0.045650
v -20.166222 2.947619 -0.490926
v -20.166222 -0.136364 -0.039898
v -20.166222 -0.918301 -0.106158
v -20.166222 -2.442492 -0.451451
v -20.166222 -1.689448 -0.243783
v -20.166222 -3.170154 -0.727163
v -17.147705 2.773951 -1.023720
v -17.147705 -3.170135 -1.023720
v -20.166222 2.198146 -0.272256
v -20.166222 1.429362 -0.123351
v -11.132607 -32.029785 -2.469596
v -11.503898 -32.029785 -2.469596
v -11.503898 -32.029785 -2.518164
v -5.966482 -47.148079 -2.500567
v 2.895525 -55.447922 -2.500567
v 5.274588 -55.787937 -2.500567
v 2.579295 -58.740143 -2.500567
v 5.440668 -55.783081 -2.477096
v 5.201166 -55.598694 -2.477096
v 5.201166 -55.598694 -2.546879
v 5.787598 -52.293137 -2.500567
v 5.787598 -55.787937 -2.500567
v 5.440668 -52.290314 -2.477096
v 5.201166 -52.505402 -2.477096
v 5.201166 -52.505402 -2.524919
v 5.703119 -52.290314 -2.477096
v 5.703119 -52.505402 -2.477096
v 5.703125 -52.505402 -2.524919
v 5.712152 -55.783081 -2.477096
v 5.712155 -55.598694 -2.477096
v 5.712158 -55.598694 -2.546879
v -5.946363 -51.427189 -2.518164
v -5.946363 -51.427189 -2.469595
v -5.691236 -51.404881 -2.469595
v -5.851636 -51.974556 -2.518164
v -5.851636 -51.974556 -2.469595
v -5.604322 -51.908272 -2.469595
v -5.682325 -52.477844 -2.518164
v -5.682325 -52.477844 -2.469595
v -5.440870 -52.392365 -2.469595
v -5.431544 -52.991997 -2.518164
v -5.431544 -52.991997 -2.469595
v -5.209864 -52.863976 -2.469595
v -5.132911 -53.433399 -2.518164
v -5.132911 -53.433399 -2.469595
v -4.925880 -53.282917 -2.469595
v -4.781203 -53.841339 -2.518164
v -4.781203 -53.841339 -2.469595
v -4.585402 -53.676819 -2.469595
v -4.381154 -54.215969 -2.518164
v -4.381154 -54.215969 -2.469595
v -4.229298 -54.011135 -2.469595
v -3.893996 -54.532200 -2.518164
v -3.893996 -54.532200 -2.469595
v -3.770192 -54.315807 -2.469595
v -3.438845 -54.757133 -2.518164
v -3.438845 -54.757133 -2.469595
v -3.345729 -54.520187 -2.469595
v -2.852834 -54.930016 -2.518164
v -2.852834 -54.930016 -2.469595
v -2.821584 -54.676109 -2.469595
v -2.216262 -55.000549 -2.518164
v -2.216262 -55.000549 -2.469595
v -2.197805 -54.744720 -2.469595
v -0.344556 -55.075226 -2.518164
v -0.344556 -55.075226 -2.469595
v -0.579471 -54.819397 -2.469595
v 5.439433 -62.231979 -2.500791
v -10.716420 -61.683777 -2.500741
v -8.588546 -58.697731 -2.500743
v -14.731163 -42.925934 -1.605400
v -14.731163 -32.750748 -1.605400
v -14.731163 -39.091316 -1.605400
v -14.731163 -39.489685 -1.605400
v -14.730790 -50.762737 -1.605400
v -14.730919 -26.527575 -2.500567
v -14.731163 -26.527605 -1.605400
v -11.503899 -42.190582 -2.469596
v -11.503899 -42.190582 -2.518164
v -11.503899 -42.767273 -2.469596
v -11.503899 -42.767273 -2.518164
v -11.674553 -42.190582 -2.469596
v -11.674553 -42.190582 -2.518164
v -11.674553 -42.767273 -2.469596
v -11.674553 -42.767273 -2.518164
v -20.032562 -0.176086 -1.012492
v -16.878149 -0.176086 -1.012542
v -11.447632 -0.176087 -1.012643
v -11.504383 -0.176087 -1.039772
v -11.504383 -0.176087 -0.965258
v -11.133043 -0.176087 -0.965258
v -20.141079 -0.176086 -1.218793
v -20.141079 -0.176086 -0.946869
v -19.766302 -0.176086 -0.946869
vt 1.051791 1.014935
vt 1.051576 0.977423
vt 3.192021 0.751377
vt 1.124134 0.977423
vt 1.124418 1.014933
vt 3.192021 0.977423
vt 1.124134 1.054367
vt 1.098473 0.240267
vt 1.142774 1.014943
vt 1.124134 1.054367
vt 3.192021 0.977423
vt 3.192021 0.695591
vt 0.198618 0.977423
vt 1.142774 0.977423
vt 0.198617 1.014943
vt 1.000000 1.000000
vt 1.000000 1.000000
vt 1.000000 1.000000
vt 1.000000 1.000000
vt 1.000000 1.000000
vt 1.000000 1.000000
vt 1.000000 1.000000
vt 1.000000 1.000000
vt 1.000000 1.000000
vt 1.000000 1.000000
vt 1.142774 0.977423
vt 1.142774 1.014943
vt 16.710051 8.933105
vt 23.785702 12.415355
vt 4.519411 2.855648
vt -1.309580 -0.028191
vt 4.242552 2.703292
vt 20.621771 10.830476
vt 4.935659 3.071135
vt 5.303761 3.273703
vt -1.309580 -0.028191
vt 23.785702 12.415355
vt 16.710051 8.933105
vt 20.621771 10.830476
vt 5.303761 3.273703
vt 4.519411 2.855648
vt 4.242552 2.703292
vt 4.935659 3.071135
vt 1.000000 1.000000
vt 1.000000 1.000000
vt 1.000000 1.000000
vt 1.124464 0.982334
vt 1.124649 1.006783
vt 1.000000 1.000000
vt 1.000000 1.000000
vt 1.000000 1.000000
vt 1.000000 1.000000
vt 1.173753 7.181478
vt 1.173938 7.205926
vt 1.000000 1.000000
vt 1.000000 1.000000
vt 1.000000 1.000000
vt 1.000000 1.000000
vt 1.000000 1.000000
vt 1.000000 1.000000
vt 1.000000 1.000000
vt 1.000000 1.000000
vt 1.000000 1.000000
vt 1.000000 1.000000
vt 1.000000 1.000000
vt 1.000000 1.000000
vt 1.000000 1.000000
vt 1.000000 1.000000
vt 1.000000 1.000000
vt 1.000000 1.000000
vt 1.000000 1.000000
vt 1.000000 1.000000
vt 1.000000 1.000000
vt 1.000000 1.000000
vt 1.000000 1.000000
vt 1.000000 1.000000
vt 1.000000 1.000000
vt 1.000000 1.000000
vt 1.455288 0.245897
vt 1.098473 0.240267
vt 1.455288 0.245897
vt 1.000000 1.000000
vt 1.173753 7.181478
vt 1.173938 7.205926
vt 1.000000 1.000000
vt 1.000000 1.000000
vt 1.000000 1.000000
vt 1.000000 1.000000
vt 1.000000 1.000000
vt 1.173753 7.181478
vt 1.173938 7.205926
vt 1.173753 7.181478
vt 1.173938 7.205926
vt 1.000000 1.000000
vt 1.173938 7.205926
vt 1.173753 7.181478
vt 1.000000 1.000000
vt 1.000000 1.000000
vt 1.000000 1.000000
vt 1.000000 1.000000
vt 1.000000 1.000000
vt 1.000000 1.000000
vt 1.000000 1.000000
vt 1.000000 1.000000
vt 1.000000 1.000000
vt 1.000000 1.000000
vt 1.000000 1.000000
vt 1.000000 1.000000
vt 1.000000 1.000000
vt 1.000000 1.000000
vt 1.000000 1.000000
vt 1.000000 1.000000
vt 1.000000 1.000000
vt 1.000000 1.000000
vt 1.000000 1.000000
vt 1.000000 1.000000
vt 1.000000 1.000000
vt 1.000000 1.000000
vt 1.000000 1.000000
vt 1.000000 1.000000
vt 1.000000 1.000000
vt 1.000000 1.000000
vt 1.000000 1.000000
vt 1.000000 1.000000
vt 1.000000 1.000000
vt 1.000000 1.000000
vt 1.000000 1.000000
vt 1.000000 1.000000
vt 1.000000 1.000000
vt 4.636347 -1.749931
vt 9.343963 -1.749931
vt 9.343988 -1.648193
vt 3.295371 -1.452466
vt 4.639254 -1.648193
vt 3.302103 -1.343157
vt 2.064648 -0.787216
vt 2.111217 -0.686834
vt -3.785521 5.103465
vt -2.130408 4.926524
vt -2.130408 5.103465
vt -0.509249 5.103465
vt -3.785519 4.926524
vt -0.604712 4.924477
vt -0.240053 3.265576
vt 0.987529 0.258792
vt -0.353630 3.229581
vt 0.278135 1.760543
vt 1.057208 0.353037
vt 0.187508 1.656012
vt 0.691342 0.961940
vt 0.691342 0.961940
vt 0.691342 0.961940
vt 0.691342 0.961940
vt 1.173753 7.181478
vt 1.173938 7.205926
vt 1.173909 7.202149
vt 1.173909 7.202149
vt 1.173728 7.178076
vt 1.173644 7.167022
vt 1.000000 1.000000
vt 1.000000 1.000000
vt 1.000000 1.000000
vt 1.000000 1.000000
vt 1.000000 1.000000
vt 1.000000 1.000000
vt 1.000000 1.000000
vt 1.000000 1.000000
vt 1.000000 1.000000
vt 1.000000 1.000000
vt 1.000000 1.000000
vt 1.000000 1.000000
vt 1.000000 1.000000
vt 1.000000 1.000000
vt 1.000000 1.000000
vt 1.000000 1.000000
vt 1.173753 7.181477
vt 1.173938 7.205925
vt 0.993661 1.923991
vt 1.237365 1.941881
vt 1.021145 1.941881
vt 1.206389 1.923991
vt 1.627024 1.672153
vt 1.627024 1.536697
vt 1.653221 1.536697
vt 1.653228 1.672153
vt 1.237365 1.687533
vt 1.206335 1.671842
vt 0.993662 2.616423
vt 1.021145 2.598570
vt 1.237395 2.598532
vt 1.206389 2.616423
vt 1.653221 2.865068
vt 1.627024 2.844245
vt 0.993662 2.616423
vt 1.021145 2.598532
vt 1.237341 2.844245
vt 1.206337 2.865068
vt 1.627059 1.408595
vt 1.653256 1.408595
vt 1.627059 0.336131
vt 1.653256 0.349387
vt 1.422275 1.687533
vt 1.391246 1.671842
vt 1.391246 1.538730
vt 1.422275 1.538730
vt 2.032345 0.336131
vt 2.051776 0.349387
vt 2.032345 0.154180
vt 2.051776 0.154180
vt 2.051120 -0.022541
vt 2.032346 -0.022541
vt 2.445414 -0.210498
vt 2.428192 -0.198988
vt 2.445414 0.127904
vt 2.427850 0.137098
vt 2.852107 -0.381424
vt 2.869671 0.137105
vt 2.852107 0.127904
vt 2.869671 -0.381424
vt 1.213177 2.392293
vt 0.992787 2.366712
vt 1.213177 2.351952
vt 0.992945 2.332180
vt 0.992341 2.401043
vt 1.213177 2.226845
vt 0.992425 2.190829
vt 1.213177 2.157592
vt 0.992296 2.157100
vt 1.213177 2.124852
vt 0.992063 2.124420
vt 0.991916 2.093454
vt 1.213177 2.271270
vt 0.993131 2.226506
vt 0.993263 2.296473
vt 1.213177 2.311611
vt 0.993600 2.261255
vt 0.991940 2.435303
vt 1.525704 2.439974
vt 1.449758 0.565156
vt 1.449758 2.439974
vt 1.454894 3.113205
vt 1.530840 3.113205
vt 1.530840 2.439974
vt 1.525704 0.565156
vt 1.449758 -0.117563
vt 1.449758 0.565156
vt 1.525704 -0.117563
vt 1.525704 0.565156
vt 1.454894 2.439974
vt 2.000005 1.576355
vt 1.000006 1.459273
vt 2.000005 1.459273
vt 1.000006 1.576356
vt 2.000006 1.568437
vt 2.000006 1.451355
vt 1.000007 1.459273
vt 1.000007 1.576355
vt 1.653256 0.826378
vt 1.151407 4.372163
vt 1.627059 0.826378
vt 1.151222 4.347715
vt 1.000000 1.000000
vt 1.000000 1.000000
vt 1.000000 1.000000
vt 1.000000 1.000000
vt 7.480396 -1.648193
vt 2.869671 -0.241452
vt 1.173909 7.202149
vt 2.852107 -0.234509
vt 1.173644 7.167022
vt 1.000000 1.000000
vt 1.000000 1.000000
vt 2.852107 -0.234509
vt 2.869671 -0.084674
vt 1.173909 7.202149
vt 2.852107 -0.095161
vt 1.173728 7.178076
vt 2.852107 -0.095161
vt 2.888919 -0.083763
vt 2.888919 -0.093418
vt 1.173909 7.202149
vt 1.173728 7.178076
vt 2.889578 -0.239940
vt 2.889578 -0.231663
vt 1.173909 7.202149
vt 1.173644 7.167022
vt 1.173753 7.181478
vt 1.173938 7.205926
vt 2.034611 -0.046363
vt 2.053316 -0.045360
vt 1.173753 7.181478
vt 1.173938 7.205926
vt 2.041556 -0.070989
vt 2.059688 -0.068007
vt 1.173753 7.181478
vt 1.173938 7.205926
vt 2.053969 -0.093632
vt 2.071671 -0.089786
vt 1.173753 7.181478
vt 1.173938 7.205926
vt 2.072355 -0.116761
vt 2.088608 -0.111002
vt 1.173753 7.181478
vt 1.173938 7.205926
vt 2.094249 -0.136620
vt 2.109429 -0.129849
vt 1.173753 7.181478
vt 1.173938 7.205926
vt 2.120037 -0.154972
vt 2.134392 -0.147571
vt 1.173753 7.181478
vt 1.173938 7.205926
vt 2.149367 -0.171826
vt 2.160501 -0.162611
vt 1.173753 7.181478
vt 1.173938 7.205926
vt 2.185081 -0.186053
vt 2.194158 -0.176318
vt 1.173753 7.181478
vt 1.173938 7.205926
vt 2.218453 -0.196173
vt 2.225280 -0.185513
vt 1.173753 7.181478
vt 1.173938 7.205926
vt 2.261421 -0.203950
vt 2.263712 -0.192527
vt 1.173753 7.181478
vt 1.173938 7.205926
vt 2.308099 -0.207123
vt 2.309452 -0.195614
vt 1.173753 7.181478
vt 1.173938 7.205926
vt 2.445340 -0.210483
vt 2.428115 -0.198974
vt 1.000000 1.000000
vt 1.000000 1.000000
vt 1.000000 1.000000
vt 1.000000 1.000000
vt 1.000000 1.000000
vt 1.000000 1.000000
vt 1.000000 1.000000
vt 1.000000 1.000000
vt 1.000000 1.000000
vt 1.000000 1.000000
vt 1.000000 1.000000
vt 1.624998 1.746940
vt 1.375000 1.746936
vt 1.624998 1.281449
vt 1.375000 1.281445
vt 1.375000 0.219834
vt 1.624998 0.219838
vt 1.624998 2.659829
vt 1.375000 1.800901
vt 1.624998 1.800905
vt 1.375000 2.659824
vt 1.624998 3.502828
vt 1.375000 3.502824
vt 1.172417 7.014690
vt 1.627059 0.369215
vt 1.172233 6.990242
vt 1.173610 7.164670
vt 1.627059 0.343269
vt 1.173425 7.140223
vt 1.172417 7.014690
vt 1.172233 6.990242
vt 1.173610 7.164670
vt 1.173425 7.140223
vt 1.000000 1.000000
vt 1.000000 1.000000
vt 1.000000 1.000000
vt 0.671795 0.977423
vt 0.671795 1.014943
vt 1.627024 2.259563
vt 1.653224 2.259563
vt 1.525704 1.473745
vt 1.449758 1.473745
vt 0.993661 2.259563
vt 1.021145 2.259562
vn 0.000000 0.316228 0.948683
vn -0.707108 0.000000 0.707105
vn -1.000000 0.000000 0.000000
vn 0.000000 0.000000 1.000000
vn -0.577350 -0.577350 0.577350
vn -0.707107 -0.707107 0.000000
vn 0.000000 -0.240662 0.970609
vn -1.000000 -0.000097 0.000000
vn -0.656752 -0.181513 0.731936
vn 0.000000 1.000000 0.000000
vn -0.707153 -0.707061 0.000000
vn -0.301508 -0.301469 0.904549
vn 0.000000 0.708320 0.705891
vn -1.000000 0.000131 0.000000
vn -0.707136 0.000092 0.707077
vn 0.000000 0.316228 0.948683
vn 0.000000 1.000000 0.000013
vn 0.000020 -0.000000 1.000000
vn 0.000018 0.000000 1.000000
vn 0.002925 -0.312618 0.949874
vn -0.576278 0.577622 0.578149
vn -0.705682 0.708529 0.000000
vn 0.000000 0.000000 1.000000
vn -0.707106 -0.707108 0.000000
vn -0.301512 -0.301511 0.904534
vn 0.000017 0.000000 1.000000
vn 0.000015 0.000001 1.000000
vn 0.000000 -1.000000 0.000000
vn -0.708581 0.705629 0.000001
vn -0.298480 0.305648 0.904151
vn 0.002148 -0.707419 0.706791
vn -1.000000 -0.000133 0.000056
vn -0.707117 -0.000094 0.707097
vn 0.000000 -0.316025 0.948751
vn 0.000000 -1.000000 0.000000
vn 0.000017 0.000000 1.000000
vn 0.000018 0.000000 1.000000
vn 0.000018 0.000000 1.000000
vn 0.000018 0.000000 1.000000
vn 0.000019 0.000000 1.000000
vn 0.000020 -0.000000 1.000000
vn 0.000000 -1.000000 0.000000
vn 0.000000 1.000000 0.000000
vn 0.000001 -0.707107 0.707107
vn 0.000001 0.710495 0.703702
vn 0.000001 0.707107 0.707107
vn 0.000001 -0.707107 0.707107
vn 0.000000 1.000000 0.000000
vn -0.000000 -1.000000 0.000000
vn -0.000000 -1.000000 0.000000
vn 0.000000 1.000000 0.000000
vn 0.000001 -0.707107 0.707107
vn 0.000001 0.710496 0.703701
vn 0.000001 0.707105 0.707108
vn 0.000001 -0.707107 0.707107
vn 0.000000 1.000000 0.000000
vn -0.000000 -1.000000 0.000000
vn -0.000000 -1.000000 0.000000
vn 0.000020 -0.000000 1.000000
vn 0.000019 0.000000 1.000000
vn 0.000019 0.000000 1.000000
vn 0.000000 -0.240642 0.970614
vn -1.000000 -0.000070 0.000000
vn -0.765470 -0.154931 0.624541
vn 0.000010 0.000018 1.000000
vn 0.000008 0.000017 1.000000
vn 0.000000 0.000000 1.000000
vn 0.707016 0.000017 0.707198
vn 0.000013 -0.463164 0.886272
vn 0.000017 -0.463168 0.886270
vn 0.000009 -0.463160 0.886274
vn 0.000013 -0.463164 0.886272
vn 0.000000 0.000000 1.000000
vn -0.707107 -0.707107 0.000000
vn -0.577350 -0.577350 0.577350
vn 0.000000 0.000000 1.000000
vn 0.000000 0.000000 1.000000
vn 0.000000 0.000000 1.000000
vn 0.000000 0.000000 1.000000
vn 0.000000 0.000000 1.000000
vn 0.707010 0.000000 0.707203
vn 0.000000 0.000000 1.000000
vn 0.707010 0.000000 0.707203
vn 0.000000 0.000000 1.000000
vn 0.000000 0.000000 1.000000
vn 0.000000 0.000000 1.000000
vn 0.000000 0.000000 1.000000
vn 0.000004 0.000009 1.000000
vn 0.000002 0.000008 1.000000
vn 0.000000 0.000000 1.000000
vn 0.707010 0.000000 0.707203
vn 0.000000 0.000000 1.000000
vn 0.000000 0.000000 1.000000
vn 0.000000 0.000000 1.000000
vn 0.000000 0.707107 0.707107
vn 0.000000 1.000000 0.000000
vn 0.000000 1.000000 0.000000
vn 0.000000 0.000000 1.000000
vn 0.000000 0.000000 1.000000
vn 0.000003 0.000006 1.000000
vn 0.000000 0.000000 1.000000
vn -0.707106 -0.707108 0.000000
vn -0.301511 -0.301511 0.904534
vn 0.000000 0.000000 1.000000
vn 0.000000 0.000000 1.000000
vn 0.000397 -0.000198 1.000000
vn -0.999574 -0.029189 0.000000
vn -0.713255 -0.020828 0.700595
vn 0.000000 0.000000 1.000000
vn -0.707107 0.000000 0.707106
vn -1.000000 0.000000 0.000000
vn 0.000000 0.000000 1.000000
vn 0.000003 -0.000030 1.000000
vn 0.000004 0.000002 1.000000
vn 0.000000 0.000000 1.000000
vn 0.000005 -0.000000 1.000000
vn -0.000469 -0.000554 1.000000
vn 0.000000 0.000000 1.000000
vn 0.000000 0.000000 1.000000
vn 0.000000 -0.001864 0.999998
vn -0.000472 -0.001700 0.999999
vn -0.000762 -0.001434 0.999999
vn -0.000055 0.000001 1.000000
vn -0.000153 -0.001859 0.999998
vn -0.000864 -0.000597 0.999999
vn -0.001224 -0.000408 0.999999
vn 0.000038 0.000005 1.000000
vn 0.000043 0.000004 1.000000
vn 0.000000 -0.000000 1.000000
vn 0.000008 0.000045 1.000000
vn 0.000022 -0.000015 1.000000
vn -0.000064 -0.000045 1.000000
vn 0.000006 0.000015 1.000000
vn -0.000022 0.000005 1.000000
vn 0.000042 0.000011 1.000000
vn -0.001141 -0.001364 0.999998
vn 0.000000 -0.000949 1.000000
vn -0.000063 -0.000774 1.000000
vn -0.000280 -0.000906 1.000000
vn -0.000398 -0.000757 1.000000
vn -0.000030 0.000008 1.000000
vn -0.000460 -0.000315 1.000000
vn -0.000706 -0.000247 1.000000
vn -0.000116 -0.000135 1.000000
vn 0.447169 0.000021 0.894449
vn 0.000000 0.000000 1.000000
vn 0.000000 0.000000 1.000000
vn 0.000000 0.000000 1.000000
vn 0.000560 0.000656 1.000000
vn 0.706836 -0.707377 0.000000
vn 0.302125 -0.300618 0.904627
vn 0.000606 -0.000644 1.000000
vn -0.707379 -0.706834 0.000000
vn -0.300846 -0.302479 0.904433
vn 0.000000 0.000000 1.000000
vn -1.000000 0.000000 0.000000
vn -0.707106 0.000000 0.707107
vn 0.001524 0.001140 0.999998
vn 0.002475 0.001241 0.999996
vn 0.001686 0.000134 0.999999
vn 0.001314 -0.000543 0.999999
vn 0.000459 0.000864 1.000000
vn 0.000012 0.000786 1.000000
vn -0.000382 0.000770 1.000000
vn -0.000590 0.000653 1.000000
vn -0.001730 -0.000414 0.999998
vn -0.001426 -0.005529 0.999984
vn -0.000062 -0.012095 0.999927
vn 0.000803 -0.003480 0.999994
vn 0.001091 -0.001276 0.999999
vn -0.017418 0.002996 0.999844
vn -0.004377 -0.001277 0.999990
vn -0.002530 -0.002627 0.999993
vn 0.089551 -0.401493 0.911474
vn 0.174954 0.563129 0.807636
vn 0.286156 0.034256 0.957570
vn 0.181066 0.422444 0.888119
vn 0.289326 -0.018857 0.957045
vn 0.213914 -0.108818 0.970773
vn 0.107136 -0.300849 0.947635
vn 0.149504 -0.204754 0.967329
vn 0.090574 -0.376719 0.921889
vn 0.259603 0.158298 0.952653
vn 0.211931 -0.158805 0.964296
vn 0.194917 0.224310 0.954826
vn 0.230458 0.128526 0.964557
vn 0.000000 0.000000 1.000000
vn -0.707108 0.000000 0.707105
vn -1.000000 0.000000 0.000000
vn 0.000000 0.000000 1.000000
vn -0.000204 0.000051 1.000000
vn 0.000000 0.000000 1.000000
vn 0.000000 -0.000932 1.000000
vn 0.000000 0.000000 1.000000
vn -0.577350 0.577350 0.577350
vn -0.707107 0.707106 0.000000
vn 0.000000 0.000000 1.000000
vn 0.000000 0.000000 1.000000
vn 0.000000 0.000000 1.000000
vn -0.577351 -0.577350 0.577350
vn -0.707107 -0.707107 0.000000
vn 0.000000 0.000000 1.000000
vn 0.000000 -0.707134 0.707080
vn 0.000000 -1.000000 0.000000
vn 0.000000 0.000000 1.000000
vn 0.000000 0.707120 0.707094
vn 0.000000 1.000000 0.000000
vn -0.993409 -0.114622 0.000000
vn -0.714638 -0.082456 0.694618
vn -0.000000 0.000000 1.000000
vn -0.969420 -0.245407 0.000000
vn -0.701411 -0.177561 0.690286
vn 0.000000 0.000000 1.000000
vn -0.925228 -0.379412 0.000000
vn -0.667163 -0.273587 0.692852
vn 0.000000 0.000000 1.000000
vn -0.865669 -0.500617 0.000000
vn -0.625265 -0.361591 0.691589
vn 0.000000 0.000000 1.000000
vn -0.794166 -0.607701 0.000000
vn -0.571615 -0.437404 0.694214
vn 0.000000 0.000000 1.000000
vn -0.721483 -0.692432 0.000000
vn -0.518544 -0.497664 0.695300
vn 0.000000 0.000000 1.000000
vn -0.616415 -0.787421 0.000000
vn -0.447478 -0.571618 0.687762
vn 0.000000 0.000000 1.000000
vn -0.494605 -0.869118 0.000000
vn -0.356005 -0.625571 0.694206
vn 0.000000 0.000000 1.000000
vn -0.364351 -0.931262 0.000000
vn -0.264322 -0.675594 0.688263
vn 0.000000 0.000000 1.000000
vn -0.197312 -0.980341 0.000000
vn -0.143230 -0.711635 0.687794
vn 0.000000 0.000000 1.000000
vn -0.075044 -0.997180 0.000000
vn -0.053646 -0.712849 0.699262
vn 0.000000 0.000000 1.000000
vn 0.692871 -0.721061 0.000000
vn 0.566737 -0.589796 0.575282
vn 0.000000 0.000000 1.000000
vn 0.000003 0.000001 1.000000
vn 0.000007 -0.000003 1.000000
vn 0.000004 -0.000013 1.000000
vn 1.000000 0.000024 0.000273
vn 1.000000 0.000000 0.000273
vn 1.000000 0.000000 0.000273
vn 1.000000 0.000000 0.000273
vn 1.000000 0.000048 0.000273
vn 1.000000 0.000000 0.000273
vn 1.000000 0.000000 0.000273
vn -0.301511 0.301511 0.904534
vn -0.577350 0.577350 -0.577350
vn -0.301511 -0.301511 0.904534
vn -0.577350 -0.577350 -0.577350
vn -0.577350 0.577350 0.577350
vn -0.577350 0.577350 -0.577350
vn -0.577350 -0.577350 0.577350
vn -0.577350 -0.577350 -0.577350
vn 0.000016 0.000000 1.000000
vn 0.000017 0.000000 1.000000
vn 0.000019 0.000000 1.000000
vn -1.000000 0.000000 0.000000
vn -0.707107 0.000000 0.707106
vn 0.000000 0.000000 1.000000
vn -1.000000 0.000000 0.000000
vn -0.707107 0.000000 0.707107
vn 0.000000 0.000000 1.000000
g fff08f90_00093_003dc5fe_e2
f 238/327/238 241/331/241 242/332/242
f 242/332/242 239/328/239 238/327/238
f 235/323/235 238/327/238 239/328/239
f 239/328/239 236/324/236 235/323/235
f 232/319/232 235/323/235 236/324/236
f 236/324/236 233/320/233 232/319/232
f 13/5/13 17/7/17 10/6/10
f 10/6/10 1/3/1 13/5/13
f 12/250/12 6/251/6 11/252/11
f 5/253/5 6/251/6 12/250/12
f 8/4/8 63/47/63 64/48/64
f 64/48/64 9/5/9 8/4/8
f 3/2/3 8/4/8 9/5/9
f 9/5/9 2/1/2 3/2/3
f 52/42/52 57/43/57 58/40/58
f 58/40/58 55/41/55 52/42/52
f 22/238/22 269/376/269 21/240/21
f 33/241/33 32/242/32 29/243/29
f 229/315/229 232/319/232 233/320/233
f 233/320/233 230/316/230 229/315/229
f 206/285/206 207/286/207 195/268/195
f 196/270/196 156/159/156 157/156/157
f 11/244/11 15/245/15 12/246/12
f 15/245/15 11/244/11 14/247/14
f 226/311/226 229/315/229 230/316/230
f 230/316/230 227/312/227 226/311/226
f 223/307/223 226/311/226 227/312/227
f 227/312/227 224/308/224 223/307/223
f 220/303/220 223/307/223 224/308/224
f 224/308/224 221/304/221 220/303/220
f 31/9/31 28/11/28 35/10/35
f 28/11/28 31/9/31 20/12/20
f 30/254/30 29/255/29 22/256/22
f 21/257/21 30/254/30 22/256/22
f 54/37/54 51/36/51 53/39/53
f 51/36/51 54/37/54 56/38/56
f 265/371/265 25/9/25 24/14/24
f 266/372/266 3/13/3 2/15/2
f 196/270/196 195/268/195 207/286/207
f 74/53/74 256/361/256 257/363/257
f 5/239/5 268/375/268 6/248/6
f 29/243/29 30/249/30 33/241/33
f 217/299/217 220/303/220 221/304/221
f 221/304/221 218/300/218 217/299/217
f 34/27/34 24/14/24 25/9/25
f 24/14/24 34/27/34 42/26/42
f 43/31/43 46/29/46 48/28/48
f 46/29/46 43/31/43 45/33/45
f 50/35/50 47/30/47 44/32/44
f 44/32/44 49/34/49 50/35/50
f 188/259/188 64/48/64 63/47/63
f 256/361/256 74/53/74 75/54/75
f 16/8/16 95/79/95 97/81/97
f 97/81/97 96/80/96 16/8/16
f 103/84/103 75/54/75 74/53/74
f 74/53/74 102/83/102 103/84/103
f 110/95/110 103/84/103 102/83/102
f 110/95/110 107/90/107 108/91/108
f 111/96/111 110/95/110 102/83/102
f 107/90/107 110/95/110 111/96/111
f 204/282/204 203/281/203 200/275/200
f 189/261/189 188/259/188 63/47/63
f 200/275/200 201/277/201 204/282/204
f 201/277/201 200/275/200 153/158/153
f 151/155/151 242/93/242 241/92/241
f 241/92/241 150/154/150 151/155/151
f 200/275/200 154/157/154 153/158/153
f 195/268/195 196/270/196 157/156/157
f 151/177/151 153/158/153 154/157/154
f 153/158/153 151/177/151 150/176/150
f 209/288/209 108/91/108 107/90/107
f 107/90/107 208/287/208 209/288/209
f 212/292/212 209/288/209 208/287/208
f 208/287/208 211/291/211 212/292/212
f 215/296/215 212/292/212 211/291/211
f 211/291/211 214/295/214 215/296/215
f 218/300/218 215/296/215 214/295/214
f 214/295/214 217/299/217 218/300/218
f 188/259/188 189/261/189 254/358/254
f 255/360/255 254/358/254 189/261/189
f 258/364/258 261/367/261 260/366/260
f 261/367/261 258/364/258 259/365/259
f 254/358/254 255/360/255 259/365/259
f 259/365/259 258/364/258 254/358/254
f 260/366/260 261/367/261 257/363/257
f 257/363/257 256/361/256 260/366/260
f 255/360/255 257/363/257 261/367/261
f 261/367/261 259/365/259 255/360/255
f 266/372/266 25/9/25 265/371/265
f 265/371/265 3/13/3 266/372/266
f 5/239/5 269/376/269 268/375/268
f 22/238/22 268/375/268 269/376/269
g fff08f90_00093_003dc5fe_e3
f 5/178/5 13/179/13 1/180/1
f 5/178/5 12/181/12 13/179/13
f 4/185/4 9/183/9 7/184/7
f 9/183/9 4/185/4 2/182/2
f 206/284/206 195/273/195 194/267/194
f 199/274/199 200/278/200 203/280/203
f 16/186/16 13/179/13 12/181/12
f 12/181/12 15/187/15 16/186/16
f 21/188/21 20/189/20 31/190/31
f 21/188/21 31/190/31 30/191/30
f 266/373/266 23/192/23 25/193/25
f 267/374/267 2/182/2 4/185/4
f 21/194/21 270/378/270 20/195/20
f 1/180/1 269/377/269 5/178/5
f 34/196/34 30/191/30 31/190/31
f 30/191/30 34/196/34 33/197/33
f 34/196/34 25/193/25 23/192/23
f 23/192/23 33/197/33 34/196/34
f 215/297/215 218/301/218 219/302/219
f 219/302/219 216/298/216 215/297/215
f 212/293/212 215/297/215 216/298/216
f 216/298/216 213/294/213 212/293/212
f 209/289/209 212/293/212 213/294/213
f 213/294/213 210/290/210 209/289/209
f 108/211/108 209/289/209 210/290/210
f 210/290/210 119/210/119 108/211/108
f 75/200/75 73/201/73 256/362/256
f 187/258/187 254/359/254 73/201/73
f 188/260/188 187/258/187 64/198/64
f 62/199/62 64/198/64 187/258/187
f 95/202/95 16/186/16 15/187/15
f 15/187/15 94/203/94 95/202/95
f 98/204/98 95/202/95 94/203/94
f 95/202/95 98/204/98 99/205/99
f 103/206/103 73/201/73 75/200/75
f 73/201/73 103/206/103 101/207/101
f 110/208/110 109/209/109 103/206/103
f 101/207/101 103/206/103 109/209/109
f 152/217/152 149/215/149 151/214/151
f 199/274/199 154/218/154 200/276/200
f 109/209/109 108/211/108 119/210/119
f 108/211/108 109/209/109 110/208/110
f 203/280/203 202/279/202 199/274/199
f 157/216/157 194/267/194 195/269/195
f 194/267/194 157/216/157 155/219/155
f 151/214/151 149/215/149 242/212/242
f 243/213/243 242/212/242 149/215/149
f 194/267/194 205/283/205 206/284/206
f 152/217/152 154/218/154 199/274/199
f 239/329/239 242/333/242 243/334/243
f 243/334/243 240/330/240 239/329/239
f 236/325/236 239/329/239 240/330/240
f 240/330/240 237/326/237 236/325/236
f 233/321/233 236/325/236 237/326/237
f 237/326/237 234/322/234 233/321/233
f 230/317/230 233/321/233 234/322/234
f 234/322/234 231/318/231 230/317/230
f 227/313/227 230/317/230 231/318/231
f 231/318/231 228/314/228 227/313/227
f 224/309/224 227/313/227 228/314/228
f 228/314/228 225/310/225 224/309/224
f 221/305/221 224/309/224 225/310/225
f 225/310/225 222/306/222 221/305/221
f 218/301/218 221/305/221 222/306/222
f 222/306/222 219/302/219 218/301/218
f 151/214/151 154/218/154 152/217/152
f 254/359/254 187/258/187 188/260/188
f 256/362/256 73/201/73 254/359/254
f 256/361/256 254/358/254 258/364/258
f 258/364/258 260/366/260 256/361/256
f 267/374/267 23/192/23 266/373/266
f 266/373/266 2/182/2 267/374/267
f 1/180/1 270/378/270 269/377/269
f 21/194/21 269/377/269 270/378/270
g fff08f90_00093_003dc5fe_e31
f 19/16/19 36/20/36 263/369/263
f 36/20/36 26/19/26 262/368/262
f 264/370/264 37/21/37 18/17/18
f 37/21/37 263/369/263 27/18/27
f 177/224/177 183/220/183 175/237/175
f 185/221/185 186/223/186 183/222/183
f 177/224/177 185/221/185 183/220/183
f 184/227/184 181/226/181 180/228/180
f 184/229/184 180/228/180 182/230/182
f 184/229/184 182/230/182 174/231/174
f 183/232/183 178/236/178 184/225/184
f 176/234/176 183/235/183 186/223/186
f 183/232/183 176/234/176 178/236/178
f 184/225/184 178/236/178 179/233/179
f 184/225/184 179/233/179 181/226/181
f 36/20/36 262/368/262 263/369/263
f 263/369/263 262/368/262 27/18/27
f 19/16/19 263/369/263 264/370/264
f 263/369/263 37/21/37 264/370/264
g fff08f90_00093_003dc5fe_e1
f 81/352/81 252/356/252 253/357/253
f 253/357/253 248/355/248 81/352/81
f 250/347/250 83/354/83 249/353/249
f 83/354/83 250/347/250 91/346/91
f 249/353/249 81/352/81 248/355/248
f 81/352/81 249/353/249 83/354/83
f 251/350/251 68/348/68 247/349/247
f 68/348/68 251/350/251 145/351/145
f 247/349/247 68/348/68 250/347/250
f 91/346/91 250/347/250 68/348/68
f 7/184/7 64/198/64 62/199/62
f 64/198/64 7/184/7 9/183/9
f 53/39/53 52/42/52 55/41/55
f 55/41/55 54/37/54 53/39/53
f 45/33/45 44/32/44 47/30/47
f 47/30/47 46/29/46 45/33/45
g fff08f90_00093_003dc5fe_e0
f 36/20/36 19/16/19 39/23/39
f 38/22/38 39/23/39 19/16/19
f 41/25/41 18/17/18 37/21/37
f 18/17/18 59/44/59 40/24/40
f 18/17/18 41/25/41 59/44/59
f 61/46/61 40/24/40 59/44/59
f 40/24/40 61/46/61 60/45/60
f 72/50/72 69/45/69 70/46/70
f 69/45/69 72/50/72 71/49/71
f 66/50/66 88/67/88 65/49/65
f 88/67/88 66/50/66 89/68/89
f 68/52/68 90/69/90 91/70/91
f 90/69/90 68/52/68 67/51/67
f 77/56/77 76/55/76 78/57/78
f 79/58/79 78/57/78 76/55/76
f 78/57/78 79/58/79 84/63/84
f 86/65/86 81/60/81 85/64/85
f 80/59/80 83/62/83 82/61/82
f 83/62/83 80/59/80 81/60/81
f 85/64/85 84/63/84 86/65/86
f 84/63/84 79/58/79 87/66/87
f 81/60/81 80/59/80 85/64/85
f 84/63/84 87/66/87 86/65/86
f 88/67/88 76/55/76 77/56/77
f 76/55/76 88/67/88 89/68/89
f 82/61/82 91/70/91 90/69/90
f 91/70/91 82/61/82 83/62/83
f 67/51/67 92/71/92 90/69/90
f 93/76/93 80/59/80 82/61/82
f 78/57/78 93/73/93 77/56/77
f 100/72/100 88/56/88 77/73/77
f 88/56/88 100/82/100 65/67/65
f 84/63/84 85/64/85 93/77/93
f 84/63/84 93/75/93 78/57/78
f 82/61/82 92/78/92 93/76/93
f 93/77/93 85/64/85 80/59/80
f 90/69/90 92/71/92 82/61/82
f 77/56/77 93/74/93 100/82/100
f 68/86/68 118/102/118 67/52/67
f 112/97/112 67/86/67 118/103/118
f 145/126/145 118/51/118 68/87/68
f 112/98/112 92/71/92 67/89/67
f 105/51/105 112/97/112 190/262/190
f 106/85/106 112/97/112 144/125/144
f 105/88/105 92/71/92 112/98/112
f 139/119/139 138/118/138 106/85/106
f 170/172/170 169/171/169 106/85/106
f 127/94/127 246/343/246 135/101/135
f 144/125/144 143/124/143 106/85/106
f 140/120/140 106/85/106 141/122/141
f 106/85/106 140/121/140 139/119/139
f 144/129/144 112/97/112 146/128/146
f 244/335/244 133/112/133 246/345/246
f 166/168/166 191/263/191 136/111/136
f 165/167/165 191/263/191 166/168/166
f 112/97/112 118/103/118 146/128/146
f 244/114/244 114/99/114 116/115/116
f 198/272/198 197/271/197 115/100/115
f 138/118/138 162/164/162 158/160/158
f 128/101/128 127/342/127 135/110/135
f 135/110/135 246/341/246 134/109/134
f 134/109/134 246/340/246 132/107/132
f 145/86/145 146/127/146 118/102/118
f 131/105/131 132/107/132 246/338/246
f 142/123/142 141/122/141 106/85/106
f 131/106/131 246/339/246 130/104/130
f 143/124/143 142/123/142 106/85/106
f 191/263/191 115/100/115 136/111/136
f 115/100/115 192/264/192 198/272/198
f 164/166/164 191/263/191 165/167/165
f 138/118/138 193/265/193 191/263/191
f 169/171/169 168/170/168 106/85/106
f 166/168/166 136/111/136 171/173/171
f 138/118/138 191/263/191 164/166/164
f 167/169/167 136/111/136 168/170/168
f 138/118/138 164/166/164 163/165/163
f 137/117/137 192/264/192 191/263/191
f 192/264/192 115/100/115 191/263/191
f 193/265/193 137/117/137 191/263/191
f 168/170/168 136/111/136 106/85/106
f 138/118/138 163/165/163 162/164/162
f 190/262/190 112/97/112 106/85/106
f 244/335/244 245/336/245 114/113/114
f 147/150/147 136/153/136 115/152/115
f 136/153/136 147/150/147 148/151/148
f 173/175/173 136/111/136 167/169/167
f 138/118/138 158/160/158 159/161/159
f 172/174/172 136/111/136 173/175/173
f 138/118/138 159/161/159 106/85/106
f 171/173/171 136/111/136 172/174/172
f 159/161/159 160/162/160 106/85/106
f 161/163/161 170/172/170 106/85/106
f 160/162/160 161/163/161 106/85/106
f 129/116/129 133/112/133 244/335/244
f 133/108/133 130/104/130 246/344/246
f 244/335/244 246/345/246 245/336/245
f 127/94/127 245/337/245 246/343/246
g fff08f90_00093_003dc5fe_e19
f 193/266/193 120/131/120 137/132/137
f 121/133/121 124/130/124 138/134/138
f 124/130/124 120/131/120 193/266/193
f 121/133/121 138/134/138 139/135/139
f 139/135/139 122/136/122 121/133/121
f 140/137/140 122/136/122 139/135/139
f 145/138/145 113/139/113 146/140/146
f 144/141/144 146/140/146 113/139/113
f 104/142/104 113/139/113 145/138/145
f 117/143/117 143/144/143 144/141/144
f 117/143/117 144/141/144 113/139/113
f 122/136/122 140/137/140 123/145/123
f 126/146/126 142/147/142 143/144/143
f 140/137/140 141/148/141 123/145/123
f 125/149/125 123/145/123 141/148/141
f 125/149/125 141/148/141 142/147/142
f 126/146/126 125/149/125 142/147/142
f 117/143/117 126/146/126 143/144/143
f 124/130/124 193/266/193 138/134/138
