# fff0aa7b_00267_00686c19
o fff0aa7b_00267_00686c19
v -2.407009 4.196448 -3.649573
v -3.277169 4.191542 -3.649573
v -2.844050 3.868431 -3.649573
v -2.407009 4.196448 -2.183576
v -3.277169 4.191542 -2.183576
v -2.844050 3.868431 -2.183576
v -2.404794 4.487784 -2.183576
v -2.404794 4.487784 -3.649573
v -2.574334 3.959534 -2.183576
v -2.574334 3.959534 -3.649573
v -3.112687 3.956500 -2.183576
v -3.112687 3.956500 -3.649573
v -3.275864 4.482891 -2.183576
v -3.275864 4.482891 -3.649573
v -1.357691 4.238638 -6.256630
v -1.975899 4.235153 -6.256630
v -1.668188 4.005598 -6.256630
v -1.357691 4.238638 4.465714
v -1.975899 4.235153 4.465714
v -1.668188 4.005598 4.465714
v -1.356116 4.445621 4.465714
v -1.356116 4.445621 -6.256630
v -1.476567 4.070323 4.465714
v -1.476567 4.070323 -6.256630
v -1.859041 4.068169 4.465714
v -1.859041 4.068169 -6.256630
v -1.974971 4.442143 4.465714
v -1.974971 4.442143 -6.256630
v -3.399110 4.920299 -3.583736
v -2.283324 3.757662 -3.583736
v -2.283324 4.920299 -3.583736
v -3.399110 3.757662 -3.583736
v -2.444323 4.207906 -6.138358
v -3.239711 4.203420 -6.138358
v -2.843809 3.908074 -6.138358
v -2.444323 4.207906 -3.645537
v -3.239711 4.203420 -3.645537
v -2.843809 3.908074 -3.645537
v -2.597270 3.991351 -3.645537
v -2.597270 3.991351 -6.138358
v -3.089364 3.988575 -3.645537
v -3.089364 3.988575 -6.138358
v -3.238518 4.469732 -3.645537
v -3.238518 4.469732 -6.138358
v -2.127618 3.595831 -6.222602
v -2.127618 5.113031 -6.222602
v -3.562165 5.113031 -6.222602
v -3.562165 3.595831 -6.222602
v -1.051421 3.694962 -6.222602
v -1.051421 5.024637 -6.222602
v -2.308661 5.024637 -6.222602
v -2.308661 3.694962 -6.222602
v -2.440077 4.206511 -6.039432
v -3.243970 4.201974 -6.039432
v -2.843835 3.903471 -6.039432
v -2.440077 4.206511 -5.943127
v -3.243970 4.201974 -5.943127
v -2.843835 3.903471 -5.943127
v -2.594659 3.987638 -5.943127
v -2.594659 3.987638 -6.039432
v -3.092014 3.984833 -5.943127
v -3.092014 3.984833 -6.039432
v -3.242764 4.471137 -5.943127
v -3.242764 4.471137 -6.039432
v -2.400500 4.193468 -3.481390
v -3.283699 4.188484 -3.481390
v -2.844090 3.860533 -3.481390
v -2.400500 4.193468 -3.395487
v -3.283699 4.188484 -3.395487
v -2.844090 3.860533 -3.395487
v -2.398252 4.489165 -3.395487
v -2.398252 4.489165 -3.481390
v -2.570332 3.953004 -3.395487
v -2.570332 3.953004 -3.481390
v -3.116753 3.949923 -3.395487
v -3.116753 3.949923 -3.481390
v -3.282374 4.484200 -3.395487
v -3.282374 4.484200 -3.481390
v -1.347976 4.234938 -6.020309
v -1.981912 4.231359 -6.020309
v -1.666374 3.995967 -6.020309
v -1.347976 4.234938 -5.924005
v -1.981912 4.231359 -5.924005
v -1.666374 3.995967 -5.924005
v -1.346363 4.447178 -5.924005
v -1.346363 4.447178 -6.020309
v -1.469876 4.062340 -5.924005
v -1.469876 4.062340 -6.020309
v -1.862083 4.060127 -5.924005
v -1.862083 4.060127 -6.020309
v -1.980962 4.443614 -5.924005
v -1.980962 4.443614 -6.020309
v -3.080504 4.007684 -4.563692
v -2.992068 4.007684 -4.848967
v -2.700298 4.007684 -4.847338
v -2.608408 4.007684 -4.561031
v -2.843393 4.007684 -4.385728
v -3.080504 3.676124 -4.563692
v -2.992068 3.676124 -4.848967
v -2.700298 3.676124 -4.847338
v -2.608408 3.676124 -4.561031
v -2.843393 3.676124 -4.385728
v -2.846479 3.676124 -4.897236
v -2.846479 4.007684 -4.897236
v -3.081707 3.676124 -4.721752
v -3.081707 4.007684 -4.721752
v -2.989725 3.676124 -4.435157
v -2.989725 4.007684 -4.435157
v -2.697647 3.676124 -4.433508
v -2.697647 4.007684 -4.433508
v -2.609118 3.676124 -4.719096
v -2.609118 4.007684 -4.719096
v -2.407009 4.196448 4.470151
v -3.277169 4.191542 4.470151
v -2.844050 3.868431 4.470151
v -2.404794 4.487784 4.470151
v -2.574334 3.959534 4.470151
v -3.112687 3.956500 4.470151
v -3.275864 4.482891 4.470151
v -2.844891 4.354431 -6.222602
v 0.042633 4.495314 -5.125109
v -0.035064 4.495314 3.725744
v -0.086578 4.546827 3.725744
v -0.008880 4.546827 -5.125109
v 0.104861 4.495314 -5.881334
v 0.057753 4.546827 -5.881334
v 0.135616 4.495314 -6.053736
v 0.102350 4.546827 -6.090113
v 0.207785 4.495314 -6.159632
v 0.174519 4.546827 -6.196009
v 0.428375 4.495314 -5.125109
v 0.506073 4.495314 3.725744
v 0.557587 4.546827 3.725744
v 0.479889 4.546827 -5.125109
v 0.366189 4.495314 -5.881334
v 0.413297 4.546827 -5.881334
v 0.335435 4.495314 -6.053736
v 0.368701 4.546827 -6.090113
v 0.263265 4.495314 -6.159632
v 0.296531 4.546827 -6.196009
v 0.240824 4.546827 -6.211573
v 0.052507 4.567945 -5.125536
v -0.021187 4.567945 3.725744
v 0.111535 4.567945 -5.881762
v 0.140705 4.567945 -6.054163
v 0.209155 4.567945 -6.160059
v 0.418373 4.567945 -5.125536
v 0.492068 4.567945 3.725744
v 0.359398 4.567945 -5.881762
v 0.330228 4.567945 -6.054163
v 0.261778 4.567945 -6.160059
v -0.245514 4.495314 -5.125109
v -0.237884 4.495314 3.725744
v -0.289398 4.546827 3.725744
v -0.297027 4.546827 -5.125109
v -0.235640 4.567945 -5.125536
v -0.224007 4.567945 3.725744
v -0.182709 4.495314 -6.215990
v -0.234222 4.546827 -6.215990
v -0.172835 4.567945 -6.216417
v -0.182709 4.495314 -6.411852
v -0.234222 4.546827 -6.411852
v -0.172835 4.567945 -6.412279
v 0.241059 4.495314 3.725744
v 0.189545 4.546827 3.725744
v 0.250932 4.567945 3.725744
v 0.303864 4.495314 -3.489245
v 0.252350 4.546827 -3.489245
v 0.313738 4.567945 -3.489672
v 0.303864 4.495314 -3.685107
v 0.252350 4.546827 -3.685107
v 0.313738 4.567945 -3.685534
v 1.427621 4.364245 -4.379339
v 1.179178 4.364245 6.329322
v 1.106873 4.436551 6.329322
v 1.355315 4.436551 -4.379339
v 1.603501 4.364245 -5.212702
v 1.530938 4.436551 -5.231635
v 1.771782 4.364245 -5.585708
v 1.718797 4.436551 -5.636766
v 1.925533 4.364245 -5.752592
v 1.880728 4.436551 -5.821642
v 2.526677 4.364245 -4.828216
v 2.739738 4.364245 6.329322
v 2.812043 4.436551 6.329322
v 2.598212 4.436551 -4.839010
v 2.447347 4.364245 -5.336923
v 2.515198 4.436551 -5.369049
v 2.278696 4.364245 -5.647989
v 2.331682 4.436551 -5.699049
v 2.097110 4.364245 -5.796627
v 2.161712 4.436551 -5.847686
v 2.042051 4.436551 -5.869531
v 1.441480 4.466192 -4.379939
v 1.198656 4.466192 6.329322
v 1.613952 4.466192 -5.210560
v 1.779888 4.466192 -5.586308
v 1.928189 4.466192 -5.752335
v 2.512713 4.466192 -4.826759
v 2.720080 4.466192 6.329322
v 2.437410 4.466192 -5.332896
v 2.270403 4.466192 -5.648589
v 2.094221 4.466192 -5.797226
v 1.312374 4.466192 -2.860908
v 1.295836 4.364245 -2.855748
v 1.223885 4.436551 -2.874137
v 3.379791 4.277906 -3.137377
v 3.387421 4.277906 5.713476
v 3.335907 4.329420 5.713476
v 3.328278 4.329420 -3.137377
v 3.389665 4.350538 -3.137804
v 3.401298 4.350538 5.713476
v 3.442597 4.277906 -4.228258
v 3.391083 4.329420 -4.228258
v 3.452471 4.350538 -4.228685
v 3.442597 4.277906 -4.424120
v 3.391083 4.329420 -4.424120
v 3.452471 4.350538 -4.424547
v 2.233118 4.111115 -5.269871
v 2.121880 4.111115 7.401675
v 2.048129 4.184866 7.401675
v 2.159367 4.184866 -5.269871
v 2.322209 4.111115 -6.352541
v 2.254765 4.184866 -6.352541
v 2.366239 4.111115 -6.599363
v 2.318613 4.184866 -6.651443
v 2.469562 4.111115 -6.750972
v 2.421936 4.184866 -6.803052
v 2.785376 4.111115 -5.269871
v 2.896614 4.111115 7.401675
v 2.970365 4.184866 7.401675
v 2.859127 4.184866 -5.269871
v 2.696346 4.111115 -6.352541
v 2.763789 4.184866 -6.352541
v 2.652315 4.111115 -6.599363
v 2.699941 4.184866 -6.651443
v 2.548992 4.111115 -6.750972
v 2.596618 4.184866 -6.803052
v 2.516864 4.184866 -6.825335
v 2.247255 4.215101 -5.270483
v 2.141748 4.215101 7.401675
v 2.331764 4.215101 -6.353152
v 2.373525 4.215101 -6.599975
v 2.471524 4.215101 -6.751584
v 2.771056 4.215101 -5.270483
v 2.876562 4.215101 7.401675
v 2.686622 4.215101 -6.353152
v 2.644861 4.215101 -6.599975
v 2.546862 4.215101 -6.751584
v 0.815124 4.264193 -4.673680
v 0.826141 4.264193 8.107241
v 0.751754 4.338580 8.107241
v 0.740736 4.338580 -4.673680
v 0.829382 4.369076 -4.674297
v 0.846180 4.369076 8.107241
v 0.905816 4.264193 -6.248948
v 0.831429 4.338580 -6.248948
v 0.920075 4.369076 -6.249565
v 0.905816 4.264193 -6.531779
v 0.831429 4.338580 -6.531779
v 0.920075 4.369076 -6.532396
v 1.717651 4.210360 -3.470006
v 1.728667 4.210360 9.310915
v 1.654280 4.284747 9.310915
v 1.643263 4.284747 -3.470006
v 1.731909 4.315243 -3.470623
v 1.748707 4.315243 9.310915
v 1.808343 4.210360 -5.045274
v 1.733956 4.284747 -5.045274
v 1.822602 4.315243 -5.045891
v 1.808343 4.210360 -5.328105
v 1.733956 4.284747 -5.328105
v 1.822602 4.315243 -5.328722
v 0.000214 4.820997 -1.350767
v -0.112030 4.893385 -1.400661
v 0.465875 4.821033 -2.402690
v 0.346211 4.893338 -2.426283
v 0.849065 4.821033 -2.867507
v 0.745592 4.893338 -2.931133
v 1.149320 4.821033 -3.075468
v 1.061822 4.893338 -3.161513
v 2.778271 4.820997 -1.812745
v 2.872658 4.893385 -1.872602
v 2.340302 4.820997 -2.580628
v 2.429291 4.893385 -2.662999
v 1.844513 4.820997 -2.999861
v 1.931061 4.893385 -3.094934
v 1.484387 4.821033 -3.130341
v 1.610545 4.893338 -3.215416
v 1.376864 4.893338 -3.242638
v 0.022003 4.922926 -1.341945
v 0.483111 4.922979 -2.400021
v 0.864896 4.922979 -2.868254
v 1.154506 4.922979 -3.075147
v 2.759620 4.922926 -1.801792
v 2.326996 4.922926 -2.569372
v 1.828705 4.922926 -2.995297
v 1.478746 4.922979 -3.131087
v -0.342743 4.922926 0.538062
v -0.370453 4.820997 0.539659
v -0.485382 4.893385 0.496154
v 3.191681 4.820997 -0.533066
v 3.293305 4.893385 -0.592923
v 3.171601 4.922926 -0.522113
v 3.460541 4.820997 1.037080
v 3.562165 4.893385 0.977221
v 3.440460 4.922926 1.048032
v 0.895539 4.425245 -8.707788
v 3.107270 4.425245 8.664587
v 2.983795 4.549757 8.680639
v 0.772125 4.549757 -8.691736
v 0.919037 4.600782 -8.711756
v 3.140473 4.600782 8.660254
v -0.486451 4.425268 -9.310043
v -0.468013 4.425268 8.755482
v -0.592514 4.549770 8.755482
v -0.610954 4.549770 -9.310043
v -0.462587 4.600810 -9.310916
v -0.434473 4.600810 8.755482
v 3.231383 4.425268 -9.310043
v 3.249822 4.425268 8.755482
v 3.125320 4.549770 8.755482
v 3.106880 4.549770 -9.310043
v 3.255247 4.600810 -9.310916
v 3.283362 4.600810 8.755482
v 1.388458 4.655226 -4.065271
v 1.522003 4.530714 -4.004419
v 1.534821 4.706251 -4.111719
v -0.305317 4.951274 -2.183889
v -0.332916 4.775732 -2.102421
v -0.457473 4.900234 -2.156491
v 1.365860 4.665599 -6.092991
v 1.349276 4.490111 -6.023104
v 1.220674 4.614769 -6.047171
v 0.611999 4.264193 -4.673680
v 0.623016 4.264193 8.107241
v 0.548629 4.338580 8.107241
v 0.537611 4.338580 -4.673680
v 0.626257 4.369076 -4.674297
v 0.643055 4.369076 8.107241
v 0.531427 4.264193 -7.192979
v 0.457040 4.338580 -7.192979
v 0.545685 4.369076 -7.193596
v 0.531427 4.264193 -7.475810
v 0.457040 4.338580 -7.475810
v 0.545685 4.369076 -7.476427
v -3.399110 4.920299 -3.728389
v -2.283324 3.757662 -3.728389
v -2.283324 4.920299 -3.728389
v -3.399110 3.757662 -3.728389
v -3.399110 4.920299 -3.657833
v -2.283324 3.757662 -3.657833
v -2.283324 4.920299 -3.657833
v -3.399110 3.757662 -3.657833
v -2.444323 4.207906 -3.980799
v -2.597270 3.991351 -3.980799
v -2.843809 3.908074 -3.980799
v -3.089364 3.988575 -3.980799
v -3.239711 4.203420 -3.980799
v -3.238518 4.469732 -3.980799
v -3.399110 4.920299 -6.077022
v -2.283324 3.757662 -6.077022
v -2.283324 4.920299 -6.077022
v -3.399110 3.757662 -6.077022
v -3.399110 4.920299 -6.221675
v -2.283324 3.757662 -6.221675
v -2.283324 4.920299 -6.221675
v -3.399110 3.757662 -6.221675
v -3.399110 4.920299 -6.151119
v -2.283324 3.757662 -6.151119
v -2.283324 4.920299 -6.151119
v -3.399110 3.757662 -6.151119
v -3.102713 3.676154 -4.377794
v -2.590463 3.676154 -4.911507
v -2.590463 3.676154 -4.377794
v -3.102713 3.676154 -4.911507
v -3.024526 3.664870 -4.459284
v -2.668687 3.664870 -4.830033
v -2.668687 3.664870 -4.459284
v -3.024526 3.664870 -4.830033
v -3.089364 3.988575 -4.733677
v -3.089364 3.988575 -5.192171
v -2.843809 3.908074 -5.307440
v -2.597270 3.991351 -5.172377
v -2.597270 3.991351 -4.724657
v -2.843809 3.908074 -4.679403
v -3.053041 3.976667 -4.762605
v -2.637260 3.977843 -4.752667
v -2.843809 3.908074 -4.709343
v -2.114847 4.802555 -6.077022
v -1.224960 3.875302 -6.077022
v -1.224960 4.802555 -6.077022
v -2.114847 3.875302 -6.077022
v -2.114847 4.802555 -6.221675
v -1.224960 3.875302 -6.221675
v -1.224960 4.802555 -6.221675
v -2.114847 3.875302 -6.221675
v -2.114847 4.802555 -6.151119
v -1.224960 3.875302 -6.151119
v -1.224960 4.802555 -6.151119
v -2.114847 3.875302 -6.151119
v -2.087082 4.773602 -4.293481
v -1.252723 3.904210 -4.293481
v -1.252723 4.773602 -4.293481
v -2.087082 3.904210 -4.293481
v -2.087082 4.773602 -4.412810
v -1.252723 3.904210 -4.412810
v -1.252723 4.773602 -4.412810
v -2.087082 3.904210 -4.412810
v -2.087082 4.773602 -4.354606
v -1.252723 3.904210 -4.354606
v -1.252723 4.773602 -4.354606
v -2.087082 3.904210 -4.354606
v -1.357691 4.238638 -4.437783
v -1.476567 4.070323 -4.436569
v -1.668188 4.005598 -4.436022
v -1.859041 4.068169 -4.436344
v -1.975899 4.235153 -4.437418
v -1.974971 4.442143 -4.438830
v -1.356116 4.445621 -4.439197
v -1.974971 4.442143 -4.796961
v -1.975899 4.235153 -4.796961
v -1.859041 4.068169 -4.796961
v -1.668188 4.005598 -4.796961
v -1.476567 4.070323 -4.796961
v -1.357691 4.238638 -4.796961
v -1.356116 4.445621 -4.796961
v -1.357691 4.238638 -4.437783
v -1.476567 4.070323 -4.436569
v -1.668188 4.005598 -4.436022
v -1.859041 4.068169 -4.436344
v -1.975899 4.235153 -4.437418
v -1.974971 4.442143 -4.438830
v -1.356116 4.445621 -4.439197
v -1.021148 4.739576 -4.696226
v -1.133392 4.811964 -4.746120
v -0.555487 4.739612 -5.748149
v -0.675152 4.811917 -5.771742
v -0.172297 4.739612 -6.212965
v -0.275770 4.811917 -6.276592
v 0.127958 4.739612 -6.420927
v 0.040459 4.811917 -6.506972
v 1.756909 4.739576 -5.158204
v 1.851296 4.811964 -5.218061
v 1.318939 4.739576 -5.926087
v 1.407929 4.811964 -6.008458
v 0.823151 4.739576 -6.345320
v 0.909699 4.811964 -6.440392
v 0.463024 4.739612 -6.475800
v 0.589183 4.811917 -6.560875
v 0.355502 4.811917 -6.588097
v -0.999359 4.841505 -4.687404
v -0.538252 4.841558 -5.745480
v -0.156467 4.841558 -6.213713
v 0.133144 4.841558 -6.420606
v 1.738258 4.841505 -5.147251
v 1.305634 4.841505 -5.914831
v 0.807343 4.841505 -6.340756
v 0.457383 4.841558 -6.476546
v -1.364105 4.841505 -2.807397
v -1.391815 4.739576 -2.805800
v -1.506744 4.811964 -2.849305
v 2.170319 4.739576 -3.878525
v 2.271942 4.811964 -3.938382
v 2.150238 4.841505 -3.867572
v 2.435272 4.739576 -2.318323
v 2.550995 4.811964 -2.341150
v 2.412750 4.841505 -2.314661
v 2.858795 4.739576 4.869726
v 2.974518 4.811964 4.846899
v 2.836273 4.841505 4.873388
v -2.407009 -4.121131 -4.249365
v -3.277169 -4.116224 -4.249365
v -2.844050 -3.793114 -4.249365
v -2.407009 -4.121131 -2.183576
v -3.107800 -4.643945 -2.183576
v -3.277169 -4.116224 -2.183576
v -2.844050 -3.793114 -2.183576
v -2.838361 -4.735921 -2.183576
v -2.574334 -3.884216 -2.183576
v -2.574334 -3.884216 -4.249365
v -3.112687 -3.881183 -2.183576
v -3.112687 -3.881183 -4.249365
v -3.275864 -4.407574 -2.183576
v -3.275864 -4.407574 -4.249365
v -1.357691 -4.163321 -6.256630
v -1.975899 -4.159836 -6.256630
v -1.668188 -3.930281 -6.256630
v -1.357691 -4.163321 4.465714
v -1.975899 -4.159836 4.465714
v -1.668188 -3.930281 4.465714
v -1.476567 -3.995006 4.465714
v -1.476567 -3.995006 -6.256630
v -1.859041 -3.992851 4.465714
v -1.859041 -3.992851 -6.256630
v -1.974971 -4.366826 4.465714
v -1.974971 -4.366826 -6.256630
v -3.399110 -4.844981 -4.183528
v -2.283324 -3.682344 -4.183528
v -2.283324 -4.844981 -4.183528
v -3.399110 -3.682344 -4.183528
v -2.444323 -4.132589 -6.138358
v -3.239711 -4.128102 -6.138358
v -2.843809 -3.832757 -6.138358
v -2.444323 -4.132589 -4.245329
v -3.239711 -4.128102 -4.245329
v -2.843809 -3.832757 -4.245329
v -2.597270 -3.916033 -4.245329
v -2.597270 -3.916033 -6.138358
v -3.089364 -3.913258 -4.245329
v -3.089364 -3.913258 -6.138358
v -3.238518 -4.394415 -4.245329
v -3.238518 -4.394415 -6.138358
v -2.127618 -3.520513 -6.222602
v -2.127618 -5.037714 -6.222602
v -3.562165 -5.037714 -6.222602
v -3.562165 -3.520513 -6.222602
v -1.051421 -3.619644 -6.222602
v -1.051421 -4.949320 -6.222602
v -2.308661 -4.949320 -6.222602
v -2.308661 -3.619644 -6.222602
v -2.440077 -4.131193 -6.039432
v -3.243970 -4.126657 -6.039432
v -2.843835 -3.828153 -6.039432
v -2.440077 -4.131193 -5.943127
v -3.243970 -4.126657 -5.943127
v -2.843835 -3.828153 -5.943127
v -2.594659 -3.912320 -5.943127
v -2.594659 -3.912320 -6.039432
v -3.092014 -3.909516 -5.943127
v -3.092014 -3.909516 -6.039432
v -3.242764 -4.395819 -5.943127
v -3.242764 -4.395819 -6.039432
v -2.400500 -4.118151 -4.081182
v -3.283699 -4.113167 -4.081182
v -2.844090 -3.785216 -4.081182
v -2.400500 -4.118151 -3.995279
v -3.283699 -4.113167 -3.995279
v -2.844090 -3.785216 -3.995279
v -2.570332 -3.877687 -3.995279
v -2.570332 -3.877687 -4.081182
v -3.116753 -3.874605 -3.995279
v -3.116753 -3.874605 -4.081182
v -3.282374 -4.408883 -3.995279
v -3.282374 -4.408883 -4.081182
v -1.347976 -4.159620 -6.020309
v -1.981912 -4.156041 -6.020309
v -1.666374 -3.920650 -6.020309
v -1.347976 -4.159620 -5.924005
v -1.981912 -4.156041 -5.924005
v -1.666374 -3.920650 -5.924005
v -1.346363 -4.371861 -5.924005
v -1.346363 -4.371861 -6.020309
v -1.469876 -3.987022 -5.924005
v -1.469876 -3.987022 -6.020309
v -1.862083 -3.984810 -5.924005
v -1.862083 -3.984810 -6.020309
v -1.980962 -4.368297 -5.924005
v -1.980962 -4.368297 -6.020309
v -2.407009 -4.121131 4.470151
v -3.107800 -4.643945 4.470151
v -3.277169 -4.116224 4.470151
v -2.844050 -3.793114 4.470151
v -2.838361 -4.735921 4.470151
v -2.574334 -3.884216 4.470151
v -3.112687 -3.881183 4.470151
v -3.275864 -4.407574 4.470151
v -2.844891 -4.279114 -6.222602
v 1.474457 -4.419996 -5.125109
v 1.396759 -4.419996 3.725744
v 1.345246 -4.471510 3.725744
v 1.422943 -4.471510 -5.125109
v 1.536685 -4.419996 -5.881334
v 1.489577 -4.471510 -5.881334
v 1.567439 -4.419996 -6.053736
v 1.534174 -4.471510 -6.090113
v 1.639609 -4.419996 -6.159632
v 1.606343 -4.471510 -6.196009
v 1.860199 -4.419996 -5.125109
v 1.937897 -4.419996 3.725744
v 1.989411 -4.471510 3.725744
v 1.911713 -4.471510 -5.125109
v 1.798013 -4.419996 -5.881334
v 1.845121 -4.471510 -5.881334
v 1.767258 -4.419996 -6.053736
v 1.800524 -4.471510 -6.090113
v 1.695089 -4.419996 -6.159632
v 1.728355 -4.471510 -6.196009
v 1.672648 -4.471510 -6.211573
v 1.484331 -4.492628 -5.125536
v 1.410636 -4.492628 3.725744
v 1.543359 -4.492628 -5.881762
v 1.572529 -4.492628 -6.054163
v 1.640979 -4.492628 -6.160059
v 1.850197 -4.492628 -5.125536
v 1.923891 -4.492628 3.725744
v 1.791221 -4.492628 -5.881762
v 1.762052 -4.492628 -6.054163
v 1.693601 -4.492628 -6.160059
v -0.245514 -4.419996 -5.125109
v -0.237884 -4.419996 3.725744
v -0.289398 -4.471510 3.725744
v -0.297027 -4.471510 -5.125109
v -0.235640 -4.492628 -5.125536
v -0.224007 -4.492628 3.725744
v -0.182709 -4.419996 -6.215990
v -0.234222 -4.471510 -6.215990
v -0.172835 -4.492628 -6.216417
v -0.182709 -4.419996 -6.411852
v -0.234222 -4.471510 -6.411852
v -0.172835 -4.492628 -6.412279
v 2.554474 -4.419996 3.725744
v 2.502960 -4.471510 3.725744
v 2.564348 -4.492628 3.725744
v 2.617279 -4.419996 -4.841661
v 2.565766 -4.471510 -4.841661
v 2.627153 -4.492628 -4.842089
v 2.617279 -4.419996 -5.037523
v 2.565766 -4.471510 -5.037523
v 2.627153 -4.492628 -5.037951
v 0.206307 -4.288928 -4.379339
v -0.042135 -4.288928 6.329322
v -0.114440 -4.361234 6.329322
v 0.134002 -4.361234 -4.379339
v 0.382187 -4.288928 -5.212702
v 0.309625 -4.361234 -5.231635
v 0.550469 -4.288928 -5.585708
v 0.497483 -4.361234 -5.636766
v 0.704220 -4.288928 -5.752592
v 0.659415 -4.361234 -5.821642
v 1.305364 -4.288928 -4.828216
v 1.518424 -4.288928 6.329322
v 1.590730 -4.361234 6.329322
v 1.376898 -4.361234 -4.839010
v 1.226033 -4.288928 -5.336923
v 1.293884 -4.361234 -5.369049
v 1.057383 -4.288928 -5.647989
v 1.110369 -4.361234 -5.699049
v 0.875797 -4.288928 -5.796627
v 0.940398 -4.361234 -5.847686
v 0.820738 -4.361234 -5.869531
v 0.220166 -4.390875 -4.379939
v -0.022657 -4.390875 6.329322
v 0.392638 -4.390875 -5.210560
v 0.558575 -4.390875 -5.586308
v 0.706875 -4.390875 -5.752335
v 1.291400 -4.390875 -4.826759
v 1.498766 -4.390875 6.329322
v 1.216096 -4.390875 -5.332896
v 1.049090 -4.390875 -5.648589
v 0.872908 -4.390875 -5.797226
v 0.091061 -4.390875 -2.860908
v 0.074522 -4.288928 -2.855748
v 0.002571 -4.361234 -2.874137
v 3.379791 -4.202589 -3.137377
v 3.387421 -4.202589 5.713476
v 3.335907 -4.254103 5.713476
v 3.328278 -4.254103 -3.137377
v 3.389665 -4.275221 -3.137804
v 3.401298 -4.275221 5.713476
v 3.442597 -4.202589 -4.228258
v 3.391083 -4.254103 -4.228258
v 3.452471 -4.275221 -4.228685
v 3.442597 -4.202589 -4.424120
v 3.391083 -4.254103 -4.424120
v 3.452471 -4.275221 -4.424547
v 2.233118 -4.035798 -5.269871
v 2.121880 -4.035798 7.401675
v 2.048129 -4.109549 7.401675
v 2.159367 -4.109549 -5.269871
v 2.322209 -4.035798 -6.352541
v 2.254765 -4.109549 -6.352541
v 2.366239 -4.035798 -6.599363
v 2.318613 -4.109549 -6.651443
v 2.469562 -4.035798 -6.750972
v 2.421936 -4.109549 -6.803052
v 2.785376 -4.035798 -5.269871
v 2.896614 -4.035798 7.401675
v 2.970365 -4.109549 7.401675
v 2.859127 -4.109549 -5.269871
v 2.696346 -4.035798 -6.352541
v 2.763789 -4.109549 -6.352541
v 2.652315 -4.035798 -6.599363
v 2.699941 -4.109549 -6.651443
v 2.548992 -4.035798 -6.750972
v 2.596618 -4.109549 -6.803052
v 2.516864 -4.109549 -6.825335
v 2.247255 -4.139784 -5.270483
v 2.141748 -4.139784 7.401675
v 2.331764 -4.139784 -6.353152
v 2.373525 -4.139784 -6.599975
v 2.471524 -4.139784 -6.751584
v 2.771056 -4.139784 -5.270483
v 2.876562 -4.139784 7.401675
v 2.686622 -4.139784 -6.353152
v 2.644861 -4.139784 -6.599975
v 2.546862 -4.139784 -6.751584
v 2.038024 -4.188875 -4.673680
v 2.049041 -4.188875 8.107241
v 1.974654 -4.263263 8.107241
v 1.963637 -4.263263 -4.673680
v 2.052283 -4.293758 -4.674297
v 2.069080 -4.293758 8.107241
v 2.128717 -4.188875 -6.248948
v 2.054330 -4.263263 -6.248948
v 2.142975 -4.293758 -6.249565
v 2.128717 -4.188875 -6.531779
v 2.054330 -4.263263 -6.531779
v 2.142975 -4.293758 -6.532396
v 1.717651 -4.135042 -3.470006
v 1.728667 -4.135042 9.310915
v 1.654280 -4.209430 9.310915
v 1.643263 -4.209430 -3.470006
v 1.731909 -4.239925 -3.470623
v 1.748707 -4.239925 9.310915
v 1.808343 -4.135042 -5.045274
v 1.733956 -4.209430 -5.045274
v 1.822602 -4.239925 -5.045891
v 1.808343 -4.135042 -5.328105
v 1.733956 -4.209430 -5.328105
v 1.822602 -4.239925 -5.328722
v 0.000214 -4.745680 -1.350767
v -0.112030 -4.818068 -1.400661
v 0.465875 -4.745715 -2.402690
v 0.346211 -4.818020 -2.426283
v 0.849065 -4.745715 -2.867507
v 0.745592 -4.818020 -2.931133
v 1.149320 -4.745715 -3.075468
v 1.061822 -4.818020 -3.161513
v 2.778271 -4.745680 -1.812745
v 2.872658 -4.818068 -1.872602
v 2.340302 -4.745680 -2.580628
v 2.429291 -4.818068 -2.662999
v 1.844513 -4.745680 -2.999861
v 1.931061 -4.818068 -3.094934
v 1.484387 -4.745715 -3.130341
v 1.610545 -4.818020 -3.215416
v 1.376864 -4.818020 -3.242638
v 0.022003 -4.847609 -1.341945
v 0.483111 -4.847662 -2.400021
v 0.864896 -4.847662 -2.868254
v 1.154506 -4.847662 -3.075147
v 2.759620 -4.847609 -1.801792
v 2.326996 -4.847609 -2.569372
v 1.828705 -4.847609 -2.995297
v 1.478746 -4.847662 -3.131087
v -0.342743 -4.847609 0.538062
v -0.370453 -4.745680 0.539659
v -0.485382 -4.818068 0.496154
v 3.191681 -4.745680 -0.533066
v 3.293305 -4.818068 -0.592923
v 3.171601 -4.847609 -0.522113
v 3.460541 -4.745680 1.037080
v 3.562165 -4.818068 0.977221
v 3.440460 -4.847609 1.048032
v 0.895539 -4.349928 -8.707788
v 3.107270 -4.349928 8.664587
v 2.983795 -4.474440 8.680639
v 0.772125 -4.474440 -8.691736
v 0.919037 -4.525465 -8.711756
v 3.140473 -4.525465 8.660254
v -0.486451 -4.349950 -9.310043
v -0.468013 -4.349950 8.755482
v -0.592514 -4.474452 8.755482
v -0.610954 -4.474452 -9.310043
v -0.462587 -4.525493 -9.310916
v -0.434473 -4.525493 8.755482
v 3.231383 -4.349950 -9.310043
v 3.249822 -4.349950 8.755482
v 3.125320 -4.474452 8.755482
v 3.106880 -4.474452 -9.310043
v 3.255247 -4.525493 -9.310916
v 3.283362 -4.525493 8.755482
v 1.388458 -4.579908 -4.065271
v 1.522003 -4.455397 -4.004419
v 1.534821 -4.630934 -4.111719
v -0.305317 -4.875957 -2.183889
v -0.332916 -4.700414 -2.102421
v -0.457473 -4.824916 -2.156491
v 1.365860 -4.590282 -6.092991
v 1.349276 -4.414794 -6.023104
v 1.220674 -4.539452 -6.047171
v 0.611999 -4.188875 -4.673680
v 0.623016 -4.188875 8.107241
v 0.548629 -4.263263 8.107241
v 0.537611 -4.263263 -4.673680
v 0.626257 -4.293758 -4.674297
v 0.643055 -4.293758 8.107241
v 0.531427 -4.188875 -7.192979
v 0.457040 -4.263263 -7.192979
v 0.545685 -4.293758 -7.193596
v 0.531427 -4.188875 -7.475810
v 0.457040 -4.263263 -7.475810
v 0.545685 -4.293758 -7.476427
v -3.399110 -4.844981 -4.328182
v -2.283324 -3.682344 -4.328182
v -2.283324 -4.844981 -4.328182
v -3.399110 -3.682344 -4.328182
v -3.399110 -4.844981 -4.257625
v -2.283324 -3.682344 -4.257625
v -2.283324 -4.844981 -4.257625
v -3.399110 -3.682344 -4.257625
v -2.444323 -4.132589 -4.580591
v -2.597270 -3.916033 -4.580591
v -2.843809 -3.832757 -4.580591
v -3.089364 -3.913258 -4.580591
v -3.239711 -4.128102 -4.580591
v -3.238518 -4.394415 -4.580591
v -3.399110 -4.844981 -6.077022
v -2.283324 -3.682344 -6.077022
v -2.283324 -4.844981 -6.077022
v -3.399110 -3.682344 -6.077022
v -3.399110 -4.844981 -6.221675
v -2.283324 -3.682344 -6.221675
v -2.283324 -4.844981 -6.221675
v -3.399110 -3.682344 -6.221675
v -3.399110 -4.844981 -6.151119
v -2.283324 -3.682344 -6.151119
v -2.283324 -4.844981 -6.151119
v -3.399110 -3.682344 -6.151119
v -2.114847 -4.727237 -6.077022
v -1.224960 -3.799984 -6.077022
v -1.224960 -4.727237 -6.077022
v -2.114847 -3.799984 -6.077022
v -2.114847 -4.727237 -6.221675
v -1.224960 -3.799984 -6.221675
v -1.224960 -4.727237 -6.221675
v -2.114847 -3.799984 -6.221675
v -2.114847 -4.727237 -6.151119
v -1.224960 -3.799984 -6.151119
v -1.224960 -4.727237 -6.151119
v -2.114847 -3.799984 -6.151119
v -2.087082 -4.698285 -3.743982
v -1.252723 -3.828893 -3.743982
v -1.252723 -4.698285 -3.743982
v -2.087082 -3.828893 -3.743982
v -2.087082 -4.698285 -3.863311
v -1.252723 -3.828893 -3.863311
v -1.252723 -4.698285 -3.863311
v -2.087082 -3.828893 -3.863311
v -2.087082 -4.698285 -3.805106
v -1.252723 -3.828893 -3.805106
v -1.252723 -4.698285 -3.805106
v -2.087082 -3.828893 -3.805106
v -1.357691 -4.163321 -3.888284
v -1.476567 -3.995006 -3.887070
v -1.668188 -3.930281 -3.886522
v -1.859041 -3.992851 -3.886844
v -1.975899 -4.159836 -3.887918
v -1.974971 -4.366826 -3.889331
v -1.855570 -4.534758 -4.247461
v -1.974971 -4.366826 -4.247461
v -1.975899 -4.159836 -4.247461
v -1.859041 -3.992851 -4.247461
v -1.668188 -3.930281 -4.247461
v -1.476567 -3.995006 -4.247461
v -1.357691 -4.163321 -4.247461
v -1.357691 -4.163321 -3.888284
v -1.476567 -3.995006 -3.887070
v -1.668188 -3.930281 -3.886522
v -1.859041 -3.992851 -3.886844
v -1.975899 -4.159836 -3.887918
v -1.974971 -4.366826 -3.889331
v -1.855571 -4.534758 -3.890544
v -1.021148 -4.664259 -4.696226
v -1.133392 -4.736647 -4.746120
v -0.555487 -4.664294 -5.748149
v -0.675152 -4.736599 -5.771742
v -0.172297 -4.664294 -6.212965
v -0.275770 -4.736599 -6.276592
v 0.127958 -4.664294 -6.420927
v 0.040459 -4.736599 -6.506972
v 1.756909 -4.664259 -5.158204
v 1.851296 -4.736647 -5.218061
v 1.318939 -4.664259 -5.926087
v 1.407929 -4.736647 -6.008458
v 0.823151 -4.664259 -6.345320
v 0.909699 -4.736647 -6.440392
v 0.463024 -4.664294 -6.475800
v 0.589183 -4.736599 -6.560875
v 0.355502 -4.736599 -6.588097
v -0.999359 -4.766188 -4.687404
v -0.538252 -4.766241 -5.745480
v -0.156467 -4.766241 -6.213713
v 0.133144 -4.766241 -6.420606
v 1.738258 -4.766188 -5.147251
v 1.305634 -4.766188 -5.914831
v 0.807343 -4.766188 -6.340756
v 0.457383 -4.766241 -6.476546
v -1.364105 -4.766188 -2.807397
v -1.391815 -4.664259 -2.805800
v -1.506744 -4.736647 -2.849305
v 2.170319 -4.664259 -3.878525
v 2.271942 -4.736647 -3.938382
v 2.150238 -4.766188 -3.867572
v 2.435272 -4.664259 -2.318323
v 2.550995 -4.736647 -2.341150
v 2.412750 -4.766188 -2.314661
v 2.858795 -4.664259 4.869726
v 2.974518 -4.736647 4.846899
v 2.836273 -4.766188 4.873388
vt 235.405167 237.306458
vt 0.001362 0.000050
vt 0.999793 0.000050
vt 0.999793 1.000050
vt 0.001362 1.000050
vt 1.387002 2.000000
vt 1.387002 1.000000
vt 1.444898 2.000000
vt 1.444898 1.000000
vt 1.503836 2.000000
vt 1.503836 1.000000
vt 1.519462 2.000000
vt 1.474872 2.000000
vt 1.474872 1.000000
vt 1.519462 1.000000
vt 1.481452 1.000000
vt 1.416280 1.000000
vt 1.416280 2.000000
vt 1.481452 2.000000
vt 1.502294 1.000000
vt 1.426210 2.000000
vt 1.426210 1.000000
vt 1.459854 2.000000
vt 1.502294 2.000000
vt 1.459854 1.000000
vt 1.364824 1.000000
vt 1.535454 1.000000
vt 1.535454 1.034764
vt 1.364824 1.034764
vt 1.740262 1.000000
vt 1.741752 1.034764
vt 1.741752 1.000000
vt 1.531917 1.034764
vt 1.740262 1.034764
vt 1.531917 1.000000
vt 1.362638 1.034764
vt 1.362638 1.000000
vt 1.890201 1.034764
vt 1.890201 1.000000
vt 1.590923 1.034764
vt 1.590923 1.000000
vt 6.425327 1.473541
vt 7.167795 1.473541
vt 7.167795 1.967711
vt 6.425327 1.967711
vt 5.758067 1.473541
vt 3.739213 1.967711
vt 3.739213 1.473541
vt 4.372705 1.967711
vt 5.758067 1.967711
vt 4.372705 1.473541
vt 5.046496 1.967711
vt 5.046496 1.473541
vt 7.864620 1.967711
vt 7.864620 1.473541
vt 7.864620 1.967711
vt 1.092970 1.620186
vt 1.092970 0.917250
vt 1.999601 1.620186
vt 1.999601 0.917250
vt 1.692022 1.620186
vt 1.699912 0.913124
vt 1.795194 1.620186
vt 1.594320 1.620186
vt 1.594320 0.917250
vt 1.803085 0.913124
vt 1.899776 0.917250
vt 1.899776 1.620186
vt 1.498549 1.620186
vt 1.498549 0.917250
vt 0.997134 1.620186
vt 0.997707 0.917250
vt 0.997134 1.620186
vt 1.092970 1.620186
vt 1.999601 1.620186
vt 1.899776 1.620186
vt 1.498549 1.620186
vt 1.594320 1.620186
vt 1.692022 1.620186
vt 1.795194 1.620186
vt -1.133909 -1.000000
vt -1.133908 0.000000
vt -0.831874 -1.000000
vt -0.831874 0.000000
vt -0.934792 -1.000000
vt -0.734416 -1.000000
vt -0.734416 0.000000
vt -0.934792 0.000000
vt -1.039116 0.000000
vt -1.039116 -1.000000
vt -0.638885 -1.000000
vt -0.638885 0.000000
vt 0.409152 1.541280
vt 0.490772 1.885375
vt 0.409152 1.885375
vt 0.326390 1.885375
vt 0.326390 1.541280
vt 0.490772 1.541280
vt 0.558114 1.541280
vt 0.558114 1.885375
vt 0.619358 1.541280
vt 0.619358 1.885375
vt 0.852299 1.541280
vt 0.852299 1.885375
vt 0.770795 1.541280
vt 0.919555 1.541280
vt 0.919555 1.885375
vt 0.770795 1.885375
vt 0.257726 1.885375
vt 0.257726 1.541280
vt 0.688063 1.541280
vt 0.688063 1.885375
vt 0.481482 1.541280
vt 0.481482 1.885375
vt 0.494015 0.472911
vt 1.052651 0.472911
vt 1.052651 0.980801
vt 0.494015 0.980801
vt 0.839531 0.472911
vt 1.275015 0.472911
vt 1.275015 0.980801
vt 0.846752 0.472911
vt 0.839531 0.980801
vt 0.846752 0.980801
vt 0.498480 0.472911
vt 0.498480 0.980801
vt 1.267822 0.980801
vt 1.267822 0.472911
vt 1.481158 0.980801
vt 1.481158 0.472911
vt 0.625864 0.980801
vt 0.625864 0.472911
vt 0.500578 0.500050
vt 0.435286 0.970639
vt 0.462368 0.701843
vt 0.444152 0.960760
vt 0.082949 1.110025
vt 1.021680 0.903817
vt 0.377513 0.924377
vt 235.405167 237.306458
vt 0.770381 0.444216
vt 1.785044 1.620149
vt 0.423557 0.869021
vt 0.714683 0.967302
vt 0.714260 0.967297
vt 235.405167 237.306458
vt 1.795230 0.913963
vt 1.692058 0.913963
vt 1.785043 0.913927
vt 1.794510 0.913926
vt 1.691338 0.913926
vt 1.785057 0.913890
vt 0.705777 0.769078
vt 0.787634 0.766646
vt 0.677517 0.834710
vt 1.855827 0.675366
vt 1.862126 0.680937
vt 2.656604 0.706519
vt 2.426329 0.920550
vt 1.797799 0.909416
vt 2.543928 0.877154
vt 1.692022 1.120373
vt 1.795194 1.123392
vt 1.785044 1.119303
vt 1.785044 1.194515
vt 1.795194 1.197701
vt 1.692022 1.195597
vt 1.785044 1.041410
vt 1.795194 1.044032
vt 1.692022 1.042458
vt 1.981863 1.000000
vt 2.000000 1.978798
vt 1.018137 2.000000
vt 1.000000 1.021201
vt -1.133909 -0.865509
vt -1.039116 -0.865509
vt -0.934792 -0.865509
vt -0.831874 -0.865509
vt -0.734416 -0.865509
vt -0.638885 -0.865509
vt -0.831874 -0.563490
vt -0.831874 -0.379565
vt -0.934792 -0.333324
vt -1.039116 -0.387505
vt -1.039116 -0.567109
vt -0.934792 -0.585262
vt -0.847098 -0.551886
vt -1.022194 -0.555873
vt -0.934792 -0.573252
vt 1.416280 1.169631
vt 1.481452 1.169745
vt 1.502294 1.169796
vt 1.519462 1.169796
vt 1.503836 1.169766
vt 1.474872 1.169666
vt 1.459854 1.169666
vt 1.426210 1.169534
vt 1.394667 1.169421
vt 1.387002 1.169500
vt 1.444898 1.169631
vt 1.394667 1.133432
vt 1.426210 1.135693
vt 1.459854 1.138125
vt 1.474872 1.138125
vt 1.503836 1.139802
vt 1.519462 1.140074
vt 1.502294 1.140074
vt 1.481452 1.138849
vt 1.416280 1.136585
vt 1.444897 1.136585
vt 1.387002 1.134152
vt 8.036994 2.077088
vt 7.408463 2.065954
vt 5.285829 1.901257
vt -1.039116 0.000000
vt -1.133909 -0.865509
vt -1.133908 0.000000
vt -0.934792 0.000000
vt -1.039116 -0.865513
vt -0.638885 -1.000000
vt -0.734416 -1.000000
vt -0.638885 -0.865509
vt -1.039116 -1.000000
vt -0.934792 -0.865509
vt -0.934792 -1.000000
vt -1.133909 -1.000000
vt -1.039116 -0.865509
vt -0.638885 0.000000
vt -0.734416 -0.865509
vt -0.734416 0.000000
vt -0.831874 -1.000000
vt -0.831874 -0.865509
vt -0.831874 0.000000
vt -0.831874 -0.865531
vt -0.934792 -0.865530
vt 1.692022 1.620186
vt 1.795194 1.620186
vt 1.594320 0.917250
vt 1.594320 1.620186
vt 1.699912 0.913124
vt 1.899776 0.917250
vt 1.999601 1.620186
vt 1.999601 0.917250
vt 1.803085 0.913124
vt 1.899776 1.620186
vt 1.498549 1.620186
vt 1.498549 0.917250
vt 1.398756 1.620186
vt 1.294111 1.620186
vn 0.951948 -0.306260 0.000000
vn -0.954429 -0.298439 0.000000
vn 0.004472 -0.999990 0.000000
vn 0.951948 -0.306260 0.000000
vn -0.954429 -0.298439 0.000000
vn 0.004472 -0.999990 0.000000
vn 0.999971 -0.007603 0.000000
vn 0.999971 -0.007603 0.000000
vn 0.597843 -0.801613 0.000000
vn 0.597843 -0.801613 0.000000
vn -0.595991 -0.802991 0.000000
vn -0.595991 -0.802991 0.000000
vn -0.999990 0.004480 0.000000
vn -0.999990 0.004480 0.000000
vn 0.951947 -0.306262 0.000000
vn -0.954428 -0.298440 0.000000
vn 0.004467 -0.999990 -0.000000
vn 0.951947 -0.306262 0.000000
vn -0.954428 -0.298440 0.000000
vn 0.004466 -0.999990 -0.000000
vn 0.999971 -0.007609 0.000000
vn 0.999971 -0.007609 0.000000
vn 0.597844 -0.801613 -0.000000
vn 0.597844 -0.801613 0.000000
vn -0.595993 -0.802990 0.000000
vn -0.595992 -0.802990 -0.000000
vn -0.999990 0.004486 0.000000
vn -0.999990 0.004486 0.000000
vn 0.000000 0.000000 1.000000
vn 0.000000 0.000000 1.000000
vn 0.000000 0.000000 1.000000
vn 0.000000 0.000000 1.000000
vn 0.816818 -0.576896 0.000000
vn -0.954430 -0.298436 0.000000
vn 0.004478 -0.999990 0.000000
vn 0.816818 -0.576896 0.000000
vn -0.954430 -0.298436 0.000000
vn 0.004478 -0.999990 0.000000
vn 0.597847 -0.801611 0.000000
vn 0.597847 -0.801611 0.000000
vn -0.595992 -0.802990 0.000000
vn -0.595992 -0.802990 0.000000
vn -0.999990 0.004482 0.000000
vn -0.999990 0.004482 0.000000
vn 0.000000 0.000000 1.000000
vn 0.000000 0.000000 1.000000
vn 0.000000 0.000000 1.000000
vn 0.000000 0.000000 1.000000
vn 0.000000 0.000000 1.000000
vn 0.000000 0.000000 1.000000
vn 0.000000 0.000000 1.000000
vn 0.000000 0.000000 1.000000
vn 0.816822 -0.576890 0.000000
vn -0.954429 -0.298438 0.000000
vn 0.004476 -0.999990 0.000000
vn 0.816822 -0.576890 0.000000
vn -0.954429 -0.298438 0.000000
vn 0.004476 -0.999990 0.000000
vn 0.597848 -0.801609 0.000000
vn 0.597848 -0.801609 0.000000
vn -0.595992 -0.802990 0.000000
vn -0.595992 -0.802990 0.000000
vn -0.999990 0.004481 0.000000
vn -0.999990 0.004481 0.000000
vn 0.951948 -0.306260 0.000000
vn -0.954429 -0.298439 0.000000
vn 0.004476 -0.999990 0.000000
vn 0.951948 -0.306260 0.000000
vn -0.954429 -0.298439 0.000000
vn 0.004476 -0.999990 0.000000
vn 0.999971 -0.007604 0.000000
vn 0.999971 -0.007604 0.000000
vn 0.597847 -0.801610 0.000000
vn 0.597847 -0.801610 0.000000
vn -0.595991 -0.802991 0.000000
vn -0.595991 -0.802991 0.000000
vn -0.999990 0.004481 0.000000
vn -0.999990 0.004481 0.000000
vn 0.951948 -0.306258 0.000000
vn -0.954428 -0.298442 0.000000
vn 0.004477 -0.999990 0.000000
vn 0.951948 -0.306258 0.000000
vn -0.954428 -0.298442 0.000000
vn 0.004477 -0.999990 0.000000
vn 0.999971 -0.007600 0.000000
vn 0.999971 -0.007600 0.000000
vn 0.597847 -0.801610 0.000000
vn 0.597847 -0.801610 0.000000
vn -0.595990 -0.802992 0.000000
vn -0.595990 -0.802992 0.000000
vn -0.999990 0.004474 0.000000
vn -0.999990 0.004474 0.000000
vn -0.951947 0.000000 0.306261
vn -0.596037 0.000000 -0.802957
vn 0.597864 0.000000 -0.801598
vn 0.954431 0.000000 0.298431
vn -0.004482 0.000000 0.999990
vn -0.951948 0.000000 0.306261
vn -0.596037 0.000000 -0.802957
vn 0.597864 0.000000 -0.801598
vn 0.954431 0.000000 0.298430
vn -0.004482 0.000000 0.999990
vn 0.004400 0.000000 -0.999990
vn 0.004400 0.000000 -0.999990
vn -0.954413 0.000000 -0.298488
vn -0.954413 0.000000 -0.298488
vn -0.597851 0.000000 0.801607
vn -0.597851 0.000000 0.801607
vn 0.595994 0.000000 0.802989
vn 0.595994 0.000000 0.802989
vn 0.951943 0.000000 -0.306277
vn 0.951943 0.000000 -0.306277
vn 0.951948 -0.306260 0.000000
vn -0.954429 -0.298438 0.000000
vn 0.004472 -0.999990 0.000000
vn 0.999971 -0.007603 0.000000
vn 0.597843 -0.801613 0.000000
vn -0.595991 -0.802991 0.000000
vn -0.999990 0.004480 0.000000
vn 0.000000 0.000000 1.000000
vn 0.300252 -0.953826 0.008017
vn 0.289379 -0.957211 0.002540
vn -0.707093 -0.707093 -0.006207
vn -0.706708 -0.706708 -0.033590
vn 0.290009 -0.956891 0.015954
vn -0.732916 -0.672134 -0.105213
vn 0.171247 -0.979455 0.106497
vn -0.678917 -0.666205 -0.308614
vn 0.039132 -0.995222 0.089456
vn -0.421027 -0.688708 -0.590269
vn -0.299450 -0.954079 0.007975
vn -0.288552 -0.957461 0.002533
vn 0.707093 -0.707093 -0.006207
vn 0.706708 -0.706708 -0.033571
vn -0.289236 -0.957126 0.015878
vn 0.732918 -0.672135 -0.105192
vn -0.170646 -0.979604 0.106091
vn 0.678914 -0.666208 -0.308613
vn -0.038470 -0.994812 0.094181
vn 0.430918 -0.689428 -0.582237
vn 0.017673 -0.671479 -0.740813
vn 0.990004 -0.134332 0.042964
vn 0.982249 -0.187382 0.008620
vn 0.988022 -0.091384 0.124348
vn 0.927396 -0.065521 0.368297
vn 0.465695 -0.011516 0.884870
vn -0.989772 -0.136049 0.042921
vn -0.981928 -0.189058 0.008618
vn -0.987878 -0.092977 0.124308
vn -0.927276 -0.067010 0.368332
vn -0.465310 -0.012254 0.885063
vn 0.304170 -0.952585 0.007865
vn 0.294347 -0.955698 -0.000254
vn -0.707107 -0.707107 0.000610
vn -0.706969 -0.706969 -0.019771
vn 0.990519 -0.134490 0.028018
vn 0.982285 -0.187389 -0.000849
vn 0.333875 -0.942563 0.010092
vn -0.706957 -0.706957 -0.020602
vn 0.990511 -0.134487 0.028314
vn 0.322980 -0.946406 0.000000
vn -0.707107 -0.707107 0.000000
vn 0.990886 -0.134705 0.000000
vn 0.314969 -0.949098 0.002741
vn -0.707093 -0.707093 -0.006155
vn 0.990849 -0.134700 0.008625
vn 0.321675 -0.946849 0.001427
vn -0.707103 -0.707103 -0.003084
vn 0.990880 -0.134679 0.004295
vn 0.322980 -0.946406 0.000000
vn -0.707107 -0.707107 0.000000
vn 0.990886 -0.134705 0.000000
vn 0.284319 -0.958009 0.037155
vn 0.287336 -0.957823 0.003640
vn -0.707078 -0.707078 -0.008990
vn -0.703434 -0.703702 -0.099922
vn 0.275353 -0.958158 0.078198
vn -0.660779 -0.718433 -0.217313
vn 0.220568 -0.962622 0.157190
vn -0.588224 -0.709011 -0.388967
vn 0.131817 -0.967021 0.217933
vn -0.354412 -0.747734 -0.561503
vn -0.282807 -0.958912 0.022523
vn -0.283195 -0.959047 0.005370
vn 0.707040 -0.707044 -0.013537
vn 0.704756 -0.706653 -0.062932
vn -0.236669 -0.968216 0.080902
vn 0.655896 -0.718513 -0.231386
vn -0.196298 -0.966067 0.167875
vn 0.543695 -0.713715 -0.441596
vn -0.028910 -0.991232 0.128935
vn 0.326068 -0.715566 -0.617774
vn -0.068034 -0.726774 -0.683499
vn 0.980680 -0.132473 0.143934
vn 0.982195 -0.187449 0.012472
vn 0.946341 -0.104474 0.305818
vn 0.834373 -0.065595 0.547283
vn 0.517053 -0.020380 0.855711
vn -0.987241 -0.136401 0.082153
vn -0.981799 -0.188995 0.018745
vn -0.943989 -0.106566 0.312294
vn -0.770290 -0.062090 0.634664
vn -0.207266 -0.009296 0.978240
vn 0.986331 -0.157004 0.050011
vn 0.290219 -0.956840 0.015162
vn -0.703561 -0.709647 -0.037468
vn 0.304170 -0.952585 0.007865
vn 0.294349 -0.955698 -0.000254
vn -0.707107 -0.707107 0.000610
vn -0.706969 -0.706969 -0.019771
vn 0.990519 -0.134490 0.028018
vn 0.982286 -0.187386 -0.000849
vn 0.333875 -0.942563 0.010092
vn -0.706957 -0.706957 -0.020602
vn 0.990511 -0.134487 0.028314
vn 0.322980 -0.946406 0.000000
vn -0.707107 -0.707107 0.000000
vn 0.990886 -0.134705 0.000000
vn 0.300251 -0.953827 0.008017
vn 0.289379 -0.957211 0.002540
vn -0.707093 -0.707093 -0.006207
vn -0.706708 -0.706708 -0.033590
vn 0.290007 -0.956892 0.015954
vn -0.732918 -0.672132 -0.105214
vn 0.171249 -0.979455 0.106498
vn -0.678917 -0.666205 -0.308614
vn 0.039132 -0.995221 0.089458
vn -0.421027 -0.688708 -0.590269
vn -0.299450 -0.954079 0.007975
vn -0.288552 -0.957461 0.002533
vn 0.707093 -0.707093 -0.006207
vn 0.706708 -0.706708 -0.033571
vn -0.289233 -0.957127 0.015878
vn 0.732920 -0.672133 -0.105193
vn -0.170645 -0.979605 0.106090
vn 0.678915 -0.666207 -0.308614
vn -0.038469 -0.994812 0.094181
vn 0.430918 -0.689427 -0.582237
vn 0.017672 -0.671479 -0.740813
vn 0.990004 -0.134334 0.042964
vn 0.982250 -0.187381 0.008620
vn 0.988021 -0.091385 0.124348
vn 0.927396 -0.065520 0.368298
vn 0.465696 -0.011514 0.884870
vn -0.989772 -0.136050 0.042921
vn -0.981928 -0.189057 0.008618
vn -0.987878 -0.092980 0.124308
vn -0.927276 -0.067012 0.368332
vn -0.465310 -0.012254 0.885063
vn 0.304170 -0.952585 0.007865
vn 0.294339 -0.955701 -0.000254
vn -0.707107 -0.707107 0.000610
vn -0.706966 -0.706971 -0.019771
vn 0.990519 -0.134492 0.028017
vn 0.982285 -0.187389 -0.000849
vn 0.333875 -0.942563 0.010092
vn -0.706957 -0.706957 -0.020602
vn 0.990510 -0.134489 0.028314
vn 0.322977 -0.946407 0.000000
vn -0.707107 -0.707107 0.000000
vn 0.990885 -0.134707 0.000000
vn 0.304170 -0.952585 0.007865
vn 0.294339 -0.955701 -0.000254
vn -0.707107 -0.707107 0.000610
vn -0.706966 -0.706971 -0.019771
vn 0.990519 -0.134492 0.028017
vn 0.982285 -0.187389 -0.000849
vn 0.333875 -0.942563 0.010092
vn -0.706957 -0.706957 -0.020602
vn 0.990510 -0.134489 0.028314
vn 0.322977 -0.946407 0.000000
vn -0.707107 -0.707107 0.000000
vn 0.990885 -0.134707 0.000000
vn 0.327354 -0.939164 0.103974
vn -0.484893 -0.860358 -0.157043
vn 0.305578 -0.936844 0.170134
vn -0.459614 -0.847965 -0.264026
vn 0.272751 -0.924111 0.267629
vn -0.367620 -0.850368 -0.376469
vn 0.151758 -0.928631 0.338547
vn -0.237782 -0.846347 -0.476609
vn -0.304984 -0.942245 0.138416
vn 0.499615 -0.836760 -0.224092
vn -0.257630 -0.941064 0.219146
vn 0.395968 -0.857663 -0.328061
vn -0.208450 -0.928453 0.307447
vn 0.260526 -0.866475 -0.425849
vn -0.034792 -0.933290 0.357435
vn 0.145475 -0.848122 -0.509436
vn -0.047939 -0.849350 -0.525649
vn 0.931078 -0.223965 0.287983
vn 0.838867 -0.157278 0.521120
vn 0.671801 -0.100608 0.733867
vn 0.373774 -0.026496 0.927141
vn -0.897132 -0.206141 0.390716
vn -0.759668 -0.170099 0.627671
vn -0.497402 -0.117287 0.859555
vn -0.084613 -0.007303 0.996387
vn 0.949168 -0.253905 0.186043
vn 0.402946 -0.911832 0.078716
vn -0.503210 -0.858469 -0.099047
vn -0.337972 -0.936728 0.091187
vn 0.522060 -0.842264 -0.134331
vn -0.949711 -0.211584 0.230827
vn -0.538949 -0.837268 0.092286
vn 0.540912 -0.835964 -0.092622
vn -0.964163 -0.207685 0.165096
vn 0.297240 -0.954392 -0.027992
vn 0.287001 -0.956928 -0.043815
vn -0.702355 -0.707081 0.082059
vn -0.694937 -0.706240 0.135231
vn 0.977340 -0.134527 -0.163428
vn 0.974559 -0.187031 -0.123508
vn 0.303345 -0.952079 0.039083
vn 0.282582 -0.958856 -0.027263
vn -0.706758 -0.706756 -0.031446
vn -0.706406 -0.706082 0.049386
vn 0.990760 -0.134766 -0.015236
vn 0.982281 -0.187311 0.006170
vn 0.321746 -0.946825 -0.000923
vn 0.294425 -0.955675 -0.000300
vn -0.707108 -0.707105 0.000722
vn -0.707105 -0.707108 0.000722
vn 0.990883 -0.134714 -0.001542
vn 0.982295 -0.187340 -0.001006
vn -0.698541 -0.711431 0.076855
vn 0.310129 -0.950068 -0.034515
vn 0.986714 -0.130947 -0.096170
vn 0.987456 -0.157784 -0.005960
vn 0.325090 -0.945683 0.000777
vn -0.710479 -0.703523 0.016576
vn 0.980982 -0.144032 -0.130109
vn 0.338171 -0.940940 -0.016475
vn -0.702146 -0.703674 0.108784
vn 0.327182 -0.944944 -0.005675
vn 0.294339 -0.955701 -0.000254
vn -0.707107 -0.707107 0.000610
vn -0.707056 -0.707061 0.011691
vn 0.990737 -0.134784 -0.016525
vn 0.982285 -0.187389 -0.000849
vn 0.311102 -0.950364 -0.004922
vn -0.707062 -0.707062 0.011223
vn 0.990749 -0.134781 -0.015802
vn 0.322977 -0.946407 0.000000
vn -0.707107 -0.707107 0.000000
vn 0.990885 -0.134707 0.000000
vn 0.000000 0.000000 1.000000
vn 0.000000 0.000000 1.000000
vn 0.000000 0.000000 1.000000
vn 0.000000 0.000000 1.000000
vn 0.000000 0.000000 1.000000
vn 0.000000 0.000000 1.000000
vn 0.000000 0.000000 1.000000
vn 0.000000 0.000000 1.000000
vn 0.816818 -0.576896 0.000000
vn 0.597847 -0.801611 0.000000
vn 0.004478 -0.999990 0.000000
vn -0.595992 -0.802990 0.000000
vn -0.954430 -0.298436 0.000000
vn -0.999990 0.004482 0.000000
vn 0.000000 0.000000 1.000000
vn 0.000000 0.000000 1.000000
vn 0.000000 0.000000 1.000000
vn 0.000000 0.000000 1.000000
vn 0.000000 0.000000 1.000000
vn 0.000000 0.000000 1.000000
vn 0.000000 0.000000 1.000000
vn 0.000000 0.000000 1.000000
vn 0.000000 0.000000 1.000000
vn 0.000000 0.000000 1.000000
vn 0.000000 0.000000 1.000000
vn 0.000000 0.000000 1.000000
vn 0.000000 -1.000000 0.000000
vn 0.000000 -1.000000 0.000000
vn 0.000000 -1.000000 0.000000
vn 0.000000 -1.000000 0.000000
vn 0.000000 -1.000000 0.000000
vn 0.000000 -1.000000 0.000000
vn 0.000000 -1.000000 0.000000
vn 0.000000 -1.000000 0.000000
vn -0.595992 -0.802990 -0.000000
vn -0.595992 -0.802990 0.000000
vn 0.004478 -0.999990 0.000000
vn 0.597847 -0.801610 0.000000
vn 0.597846 -0.801611 -0.000000
vn 0.004478 -0.999990 -0.000000
vn -0.311522 -0.950239 -0.000000
vn 0.320020 -0.947411 -0.000000
vn 0.004478 -0.999990 0.000000
vn 0.000000 0.000000 1.000000
vn 0.000000 0.000000 1.000000
vn 0.000000 0.000000 1.000000
vn 0.000000 0.000000 1.000000
vn 0.000000 0.000000 1.000000
vn 0.000000 0.000000 1.000000
vn 0.000000 0.000000 1.000000
vn 0.000000 0.000000 1.000000
vn 0.000000 0.000000 1.000000
vn 0.000000 0.000000 1.000000
vn 0.000000 0.000000 1.000000
vn 0.000000 0.000000 1.000000
vn 0.000000 0.000000 1.000000
vn 0.000000 0.000000 1.000000
vn 0.000000 0.000000 1.000000
vn 0.000000 0.000000 1.000000
vn 0.000000 0.000000 1.000000
vn 0.000000 0.000000 1.000000
vn 0.000000 0.000000 1.000000
vn 0.000000 0.000000 1.000000
vn 0.000000 0.000000 1.000000
vn 0.000000 0.000000 1.000000
vn 0.000000 0.000000 1.000000
vn 0.000000 0.000000 1.000000
vn 0.952335 -0.305055 0.000000
vn 0.598558 -0.801079 0.000000
vn 0.004583 -0.999990 0.000000
vn -0.596577 -0.802556 0.000000
vn -0.954792 -0.297273 0.000000
vn -0.999990 0.004486 0.000000
vn 0.999971 -0.007609 0.000000
vn -0.999990 0.004485 -0.000000
vn -0.954428 -0.298440 -0.000000
vn -0.595993 -0.802990 0.000000
vn 0.004466 -0.999990 0.000000
vn 0.597844 -0.801613 0.000000
vn 0.951947 -0.306262 0.000000
vn 0.999971 -0.007609 0.000000
vn 0.951558 -0.307470 0.000000
vn 0.597128 -0.802146 0.000000
vn 0.004349 -0.999990 0.000000
vn -0.595406 -0.803425 -0.000000
vn -0.954063 -0.299608 -0.000000
vn -0.999990 0.004486 0.000000
vn 0.999971 -0.007609 0.000000
vn 0.327354 -0.939164 0.103974
vn -0.484893 -0.860358 -0.157043
vn 0.305578 -0.936844 0.170134
vn -0.459614 -0.847965 -0.264026
vn 0.272751 -0.924111 0.267629
vn -0.367620 -0.850368 -0.376469
vn 0.151758 -0.928631 0.338547
vn -0.237782 -0.846348 -0.476608
vn -0.304984 -0.942245 0.138416
vn 0.499615 -0.836760 -0.224092
vn -0.257630 -0.941064 0.219146
vn 0.395968 -0.857663 -0.328061
vn -0.208450 -0.928453 0.307447
vn 0.260526 -0.866475 -0.425849
vn -0.034792 -0.933290 0.357435
vn 0.145475 -0.848122 -0.509436
vn -0.047939 -0.849350 -0.525649
vn 0.931078 -0.223965 0.287983
vn 0.838867 -0.157278 0.521120
vn 0.671801 -0.100608 0.733867
vn 0.373774 -0.026496 0.927141
vn -0.897132 -0.206141 0.390716
vn -0.759668 -0.170099 0.627671
vn -0.497402 -0.117287 0.859555
vn -0.084613 -0.007303 0.996387
vn 0.949168 -0.253905 0.186043
vn 0.402946 -0.911832 0.078716
vn -0.503210 -0.858469 -0.099047
vn -0.338483 -0.936709 0.089474
vn 0.521724 -0.842362 -0.135018
vn -0.949980 -0.211523 0.229774
vn -0.361786 -0.931282 0.042715
vn 0.521407 -0.851143 -0.060744
vn -0.969711 -0.217987 0.110195
vn -0.445167 -0.895064 0.026229
vn 0.525668 -0.850126 -0.030973
vn -0.974401 -0.217364 0.057412
vn 0.816819 0.576894 0.000000
vn -0.954429 0.298438 0.000000
vn 0.004473 0.999990 0.000000
vn 0.816819 0.576894 0.000000
vn -0.597866 -0.801596 0.000000
vn -0.954429 0.298438 0.000000
vn 0.004472 0.999990 0.000000
vn -0.323057 -0.946379 0.000000
vn 0.597843 0.801613 0.000000
vn 0.597843 0.801613 0.000000
vn -0.595991 0.802991 0.000000
vn -0.595991 0.802991 0.000000
vn -0.978843 -0.204614 0.000000
vn -0.999990 -0.004480 0.000000
vn 0.816819 0.576894 0.000000
vn -0.954429 0.298440 0.000000
vn 0.004469 0.999990 -0.000000
vn 0.816819 0.576894 0.000000
vn -0.954429 0.298439 0.000000
vn 0.004469 0.999990 -0.000000
vn 0.597844 0.801613 -0.000000
vn 0.597844 0.801612 0.000000
vn -0.595992 0.802991 0.000000
vn -0.595992 0.802990 -0.000000
vn -0.999990 -0.004486 0.000000
vn -0.999990 -0.004486 0.000000
vn 0.000000 0.000000 1.000000
vn 0.000000 0.000000 1.000000
vn 0.000000 0.000000 1.000000
vn 0.000000 0.000000 1.000000
vn 0.816818 0.576895 0.000000
vn -0.954430 0.298436 0.000000
vn 0.004478 0.999990 0.000000
vn 0.816818 0.576895 0.000000
vn -0.954430 0.298436 0.000000
vn 0.004478 0.999990 0.000000
vn 0.597847 0.801611 0.000000
vn 0.597847 0.801610 0.000000
vn -0.595992 0.802990 0.000000
vn -0.595992 0.802990 0.000000
vn -0.999990 -0.004482 0.000000
vn -0.999990 -0.004482 0.000000
vn 0.000000 0.000000 1.000000
vn 0.000000 0.000000 1.000000
vn 0.000000 0.000000 1.000000
vn 0.000000 0.000000 1.000000
vn 0.000000 0.000000 1.000000
vn 0.000000 0.000000 1.000000
vn 0.000000 0.000000 1.000000
vn 0.000000 0.000000 1.000000
vn 0.816822 0.576890 0.000000
vn -0.954429 0.298438 0.000000
vn 0.004475 0.999990 0.000000
vn 0.816822 0.576890 0.000000
vn -0.954429 0.298438 0.000000
vn 0.004475 0.999990 0.000000
vn 0.597849 0.801609 0.000000
vn 0.597849 0.801609 0.000000
vn -0.595993 0.802990 0.000000
vn -0.595993 0.802990 0.000000
vn -0.999990 -0.004481 0.000000
vn -0.999990 -0.004481 0.000000
vn 0.816820 0.576893 0.000000
vn -0.954429 0.298439 0.000000
vn 0.004476 0.999990 0.000000
vn 0.816820 0.576893 0.000000
vn -0.954429 0.298439 0.000000
vn 0.004476 0.999990 0.000000
vn 0.597847 0.801610 0.000000
vn 0.597847 0.801610 0.000000
vn -0.595991 0.802991 0.000000
vn -0.595991 0.802991 0.000000
vn -0.999990 -0.004481 0.000000
vn -0.999990 -0.004481 0.000000
vn 0.951948 0.306258 0.000000
vn -0.954427 0.298443 0.000000
vn 0.004476 0.999990 0.000000
vn 0.951948 0.306258 0.000000
vn -0.954427 0.298443 0.000000
vn 0.004476 0.999990 0.000000
vn 0.999971 0.007600 0.000000
vn 0.999971 0.007600 0.000000
vn 0.597846 0.801611 0.000000
vn 0.597846 0.801611 0.000000
vn -0.595990 0.802992 0.000000
vn -0.595990 0.802992 0.000000
vn -0.999990 -0.004474 0.000000
vn -0.999990 -0.004474 0.000000
vn 0.816819 0.576894 0.000000
vn -0.597866 -0.801596 0.000000
vn -0.954429 0.298438 0.000000
vn 0.004473 0.999990 0.000000
vn -0.323057 -0.946379 0.000000
vn 0.597843 0.801613 0.000000
vn -0.595991 0.802991 0.000000
vn -0.951942 -0.306279 0.000000
vn 0.000000 0.000000 1.000000
vn 0.300257 0.953825 0.008017
vn 0.289366 0.957215 0.002540
vn -0.707093 0.707093 -0.006207
vn -0.706708 0.706708 -0.033590
vn 0.290009 0.956891 0.015954
vn -0.732916 0.672134 -0.105213
vn 0.171247 0.979455 0.106498
vn -0.678917 0.666205 -0.308614
vn 0.039132 0.995222 0.089456
vn -0.421027 0.688708 -0.590269
vn -0.299446 0.954080 0.007975
vn -0.288563 0.957458 0.002533
vn 0.707093 0.707093 -0.006207
vn 0.706708 0.706708 -0.033571
vn -0.289236 0.957126 0.015878
vn 0.732918 0.672135 -0.105192
vn -0.170646 0.979604 0.106091
vn 0.678914 0.666208 -0.308613
vn -0.038470 0.994812 0.094181
vn 0.430918 0.689427 -0.582237
vn 0.017673 0.671479 -0.740813
vn 0.990005 0.134332 0.042964
vn 0.982249 0.187382 0.008620
vn 0.988022 0.091384 0.124348
vn 0.927396 0.065521 0.368297
vn 0.465695 0.011516 0.884870
vn -0.989772 0.136049 0.042921
vn -0.981928 0.189058 0.008618
vn -0.987878 0.092977 0.124308
vn -0.927276 0.067010 0.368332
vn -0.465310 0.012254 0.885063
vn 0.304170 0.952585 0.007865
vn 0.294343 0.955700 -0.000254
vn -0.707107 0.707107 0.000610
vn -0.706969 0.706969 -0.019771
vn 0.990519 0.134490 0.028018
vn 0.982285 0.187389 -0.000849
vn 0.333876 0.942563 0.010092
vn -0.706957 0.706957 -0.020602
vn 0.990511 0.134487 0.028314
vn 0.322980 0.946406 0.000000
vn -0.707107 0.707107 0.000000
vn 0.990886 0.134705 0.000000
vn 0.315671 0.948866 0.002314
vn -0.707097 0.707097 -0.005184
vn 0.990860 0.134701 0.007263
vn 0.321329 0.946967 0.001199
vn -0.707104 0.707104 -0.002596
vn 0.990882 0.134683 0.003617
vn 0.322980 0.946406 0.000000
vn -0.707107 0.707107 0.000000
vn 0.990886 0.134705 0.000000
vn 0.284318 0.958010 0.037155
vn 0.287350 0.957819 0.003640
vn -0.707080 0.707076 -0.008990
vn -0.703437 0.703699 -0.099923
vn 0.275351 0.958158 0.078198
vn -0.660781 0.718431 -0.217314
vn 0.220567 0.962622 0.157189
vn -0.588226 0.709009 -0.388969
vn 0.131816 0.967021 0.217932
vn -0.354413 0.747732 -0.561505
vn -0.282803 0.958914 0.022523
vn -0.283198 0.959046 0.005370
vn 0.707042 0.707042 -0.013537
vn 0.704759 0.706650 -0.062932
vn -0.236667 0.968217 0.080902
vn 0.655898 0.718511 -0.231386
vn -0.196297 0.966067 0.167874
vn 0.543697 0.713712 -0.441598
vn -0.028910 0.991232 0.128933
vn 0.326069 0.715564 -0.617776
vn -0.068034 0.726771 -0.683502
vn 0.980680 0.132473 0.143934
vn 0.982195 0.187449 0.012472
vn 0.946341 0.104474 0.305818
vn 0.834373 0.065595 0.547283
vn 0.517053 0.020380 0.855711
vn -0.987241 0.136401 0.082154
vn -0.981799 0.188995 0.018745
vn -0.943989 0.106566 0.312294
vn -0.770290 0.062090 0.634664
vn -0.207266 0.009296 0.978240
vn 0.986331 0.157004 0.050011
vn 0.290211 0.956843 0.015162
vn -0.703563 0.709645 -0.037468
vn 0.304170 0.952585 0.007865
vn 0.294345 0.955699 -0.000254
vn -0.707107 0.707107 0.000610
vn -0.706969 0.706969 -0.019771
vn 0.990519 0.134490 0.028018
vn 0.982286 0.187386 -0.000849
vn 0.333875 0.942563 0.010092
vn -0.706957 0.706957 -0.020602
vn 0.990511 0.134487 0.028314
vn 0.322980 0.946406 0.000000
vn -0.707107 0.707107 0.000000
vn 0.990886 0.134705 0.000000
vn 0.300258 0.953824 0.008017
vn 0.289369 0.957214 0.002540
vn -0.707091 0.707095 -0.006207
vn -0.706706 0.706710 -0.033590
vn 0.290008 0.956891 0.015954
vn -0.732916 0.672134 -0.105213
vn 0.171250 0.979455 0.106498
vn -0.678915 0.666207 -0.308614
vn 0.039133 0.995221 0.089460
vn -0.421026 0.688711 -0.590267
vn -0.299447 0.954079 0.007975
vn -0.288565 0.957457 0.002533
vn 0.707091 0.707095 -0.006207
vn 0.706706 0.706711 -0.033571
vn -0.289235 0.957126 0.015878
vn 0.732917 0.672136 -0.105192
vn -0.170646 0.979604 0.106091
vn 0.678913 0.666210 -0.308613
vn -0.038470 0.994811 0.094183
vn 0.430917 0.689429 -0.582235
vn 0.017672 0.671482 -0.740810
vn 0.990004 0.134333 0.042964
vn 0.982250 0.187380 0.008620
vn 0.988021 0.091385 0.124348
vn 0.927396 0.065520 0.368298
vn 0.465696 0.011514 0.884870
vn -0.989772 0.136049 0.042921
vn -0.981928 0.189056 0.008618
vn -0.987878 0.092980 0.124308
vn -0.927276 0.067012 0.368332
vn -0.465310 0.012254 0.885063
vn 0.304167 0.952586 0.007865
vn 0.294346 0.955699 -0.000254
vn -0.707109 0.707104 0.000610
vn -0.706969 0.706968 -0.019771
vn 0.990519 0.134492 0.028017
vn 0.982285 0.187389 -0.000849
vn 0.333874 0.942564 0.010092
vn -0.706959 0.706954 -0.020602
vn 0.990511 0.134489 0.028314
vn 0.322976 0.946407 0.000000
vn -0.707109 0.707105 0.000000
vn 0.990885 0.134706 0.000000
vn 0.304167 0.952586 0.007865
vn 0.294346 0.955699 -0.000254
vn -0.707109 0.707104 0.000610
vn -0.706969 0.706968 -0.019771
vn 0.990519 0.134492 0.028017
vn 0.982285 0.187389 -0.000849
vn 0.333874 0.942564 0.010092
vn -0.706959 0.706954 -0.020602
vn 0.990511 0.134489 0.028314
vn 0.322976 0.946407 0.000000
vn -0.707109 0.707105 0.000000
vn 0.990885 0.134706 0.000000
vn 0.327354 0.939164 0.103974
vn -0.484893 0.860358 -0.157043
vn 0.305579 0.936843 0.170135
vn -0.459612 0.847967 -0.264025
vn 0.272752 0.924111 0.267630
vn -0.367619 0.850370 -0.376467
vn 0.151759 0.928631 0.338548
vn -0.237781 0.846349 -0.476606
vn -0.304984 0.942245 0.138416
vn 0.499615 0.836760 -0.224092
vn -0.257630 0.941064 0.219146
vn 0.395968 0.857663 -0.328061
vn -0.208450 0.928453 0.307448
vn 0.260527 0.866475 -0.425848
vn -0.034792 0.933289 0.357436
vn 0.145475 0.848124 -0.509434
vn -0.047939 0.849352 -0.525646
vn 0.931078 0.223965 0.287983
vn 0.838867 0.157278 0.521120
vn 0.671801 0.100608 0.733867
vn 0.373774 0.026496 0.927141
vn -0.897132 0.206141 0.390716
vn -0.759668 0.170099 0.627671
vn -0.497402 0.117287 0.859555
vn -0.084613 0.007303 0.996387
vn 0.949168 0.253905 0.186043
vn 0.402946 0.911832 0.078716
vn -0.503210 0.858469 -0.099047
vn -0.337973 0.936728 0.091187
vn 0.522060 0.842264 -0.134331
vn -0.949711 0.211584 0.230827
vn -0.538949 0.837268 0.092286
vn 0.540912 0.835964 -0.092622
vn -0.964163 0.207685 0.165096
vn 0.297240 0.954392 -0.027992
vn 0.286997 0.956929 -0.043814
vn -0.702355 0.707081 0.082059
vn -0.694937 0.706240 0.135231
vn 0.977340 0.134527 -0.163428
vn 0.974559 0.187030 -0.123508
vn 0.303346 0.952079 0.039082
vn 0.282585 0.958855 -0.027263
vn -0.706758 0.706756 -0.031446
vn -0.706406 0.706082 0.049386
vn 0.990760 0.134765 -0.015236
vn 0.982281 0.187310 0.006170
vn 0.321751 0.946824 -0.000923
vn 0.294420 0.955676 -0.000300
vn -0.707108 0.707105 0.000722
vn -0.707105 0.707108 0.000722
vn 0.990883 0.134714 -0.001542
vn 0.982295 0.187340 -0.001006
vn -0.698541 0.711431 0.076855
vn 0.310128 0.950068 -0.034515
vn 0.986714 0.130947 -0.096170
vn 0.987456 0.157784 -0.005960
vn 0.325088 0.945683 0.000778
vn -0.710479 0.703523 0.016576
vn 0.980982 0.144032 -0.130109
vn 0.338173 0.940940 -0.016475
vn -0.702143 0.703677 0.108784
vn 0.327181 0.944945 -0.005675
vn 0.294346 0.955699 -0.000254
vn -0.707109 0.707104 0.000610
vn -0.707059 0.707059 0.011691
vn 0.990737 0.134783 -0.016525
vn 0.982285 0.187389 -0.000849
vn 0.311100 0.950364 -0.004922
vn -0.707064 0.707060 0.011223
vn 0.990749 0.134781 -0.015802
vn 0.322976 0.946407 0.000000
vn -0.707109 0.707105 0.000000
vn 0.990885 0.134706 0.000000
vn 0.000000 0.000000 1.000000
vn 0.000000 0.000000 1.000000
vn 0.000000 0.000000 1.000000
vn 0.000000 0.000000 1.000000
vn 0.000000 0.000000 1.000000
vn 0.000000 0.000000 1.000000
vn 0.000000 0.000000 1.000000
vn 0.000000 0.000000 1.000000
vn 0.816818 0.576895 0.000000
vn 0.597847 0.801611 0.000000
vn 0.004478 0.999990 0.000000
vn -0.595992 0.802990 0.000000
vn -0.954430 0.298436 0.000000
vn -0.999990 -0.004482 0.000000
vn 0.000000 0.000000 1.000000
vn 0.000000 0.000000 1.000000
vn 0.000000 0.000000 1.000000
vn 0.000000 0.000000 1.000000
vn 0.000000 0.000000 1.000000
vn 0.000000 0.000000 1.000000
vn 0.000000 0.000000 1.000000
vn 0.000000 0.000000 1.000000
vn 0.000000 0.000000 1.000000
vn 0.000000 0.000000 1.000000
vn 0.000000 0.000000 1.000000
vn 0.000000 0.000000 1.000000
vn 0.000000 0.000000 1.000000
vn 0.000000 0.000000 1.000000
vn 0.000000 0.000000 1.000000
vn 0.000000 0.000000 1.000000
vn 0.000000 0.000000 1.000000
vn 0.000000 0.000000 1.000000
vn 0.000000 0.000000 1.000000
vn 0.000000 0.000000 1.000000
vn 0.000000 0.000000 1.000000
vn 0.000000 0.000000 1.000000
vn 0.000000 0.000000 1.000000
vn 0.000000 0.000000 1.000000
vn 0.000000 0.000000 1.000000
vn 0.000000 0.000000 1.000000
vn 0.000000 0.000000 1.000000
vn 0.000000 0.000000 1.000000
vn 0.000000 0.000000 1.000000
vn 0.000000 0.000000 1.000000
vn 0.000000 0.000000 1.000000
vn 0.000000 0.000000 1.000000
vn 0.000000 0.000000 1.000000
vn 0.000000 0.000000 1.000000
vn 0.000000 0.000000 1.000000
vn 0.000000 0.000000 1.000000
vn 0.816819 0.576894 0.000000
vn 0.598558 0.801079 0.000000
vn 0.004585 0.999989 0.000000
vn -0.596577 0.802556 0.000000
vn -0.954792 0.297273 0.000000
vn -0.999990 -0.004486 0.000000
vn -0.814996 -0.579466 -0.000000
vn -0.978842 -0.204615 -0.000000
vn -0.954428 0.298439 -0.000000
vn -0.595992 0.802990 0.000000
vn 0.004469 0.999990 0.000000
vn 0.597844 0.801612 0.000000
vn 0.816819 0.576894 0.000000
vn 0.816819 0.576894 0.000000
vn 0.597128 0.802146 0.000000
vn 0.004351 0.999991 0.000000
vn -0.595406 0.803425 -0.000000
vn -0.954063 0.299607 -0.000000
vn -0.952334 -0.305057 -0.000000
vn -0.814996 -0.579466 -0.000000
vn 0.327354 0.939164 0.103974
vn -0.484893 0.860358 -0.157043
vn 0.305579 0.936843 0.170135
vn -0.459612 0.847967 -0.264025
vn 0.272752 0.924111 0.267630
vn -0.367619 0.850370 -0.376467
vn 0.151759 0.928630 0.338548
vn -0.237781 0.846349 -0.476606
vn -0.304984 0.942245 0.138416
vn 0.499615 0.836760 -0.224092
vn -0.257630 0.941064 0.219146
vn 0.395968 0.857663 -0.328061
vn -0.208450 0.928453 0.307448
vn 0.260527 0.866475 -0.425848
vn -0.034792 0.933289 0.357436
vn 0.145475 0.848124 -0.509434
vn -0.047939 0.849352 -0.525646
vn 0.931078 0.223965 0.287983
vn 0.838867 0.157278 0.521120
vn 0.671801 0.100608 0.733867
vn 0.373774 0.026496 0.927141
vn -0.897132 0.206141 0.390716
vn -0.759668 0.170099 0.627671
vn -0.497402 0.117287 0.859555
vn -0.084613 0.007303 0.996387
vn 0.949168 0.253905 0.186043
vn 0.402946 0.911832 0.078716
vn -0.503210 0.858469 -0.099047
vn -0.338483 0.936709 0.089474
vn 0.521724 0.842362 -0.135018
vn -0.949980 0.211523 0.229774
vn -0.361786 0.931282 0.042715
vn 0.521407 0.851143 -0.060744
vn -0.969711 0.217987 0.110195
vn -0.445167 0.895064 0.026229
vn 0.525668 0.850126 -0.030973
vn -0.974401 0.217364 0.057412
g fff0aa7b_00267_00686c19_e0
f 51/5/51 52/2/52 50/4/50
f 52/2/52 49/3/49 50/4/50
f 47/5/47 120/133/120 46/4/46
f 120/133/120 45/3/45 46/4/46
f 47/5/47 48/2/48 120/133/120
f 48/2/48 45/3/45 120/133/120
f 520/5/520 519/4/519 521/2/521
f 521/2/521 519/4/519 518/3/518
f 516/5/516 515/4/515 568/133/568
f 568/133/568 515/4/515 514/3/514
f 516/5/516 568/133/568 517/2/517
f 517/2/517 568/133/568 514/3/514
g fff0aa7b_00267_00686c19_e3
f 40/89/40 33/82/33 355/175/355
f 40/89/40 384/184/384 35/88/35
f 43/91/43 360/180/360 37/86/37
f 861/194/861 853/204/853 862/195/862
f 39/90/39 38/85/38 357/177/357
f 39/90/39 356/176/356 36/81/36
f 859/191/859 855/207/855 860/192/860
f 44/92/44 34/87/34 359/179/359
f 485/247/485 477/239/477 473/238/473
f 103/93/103 94/94/94 104/95/104
f 108/112/108 107/111/107 97/108/97
f 99/98/99 94/94/94 103/93/103
f 108/112/108 93/102/93 98/101/98
f 105/99/105 106/100/106 99/98/99
f 105/99/105 98/101/98 93/102/93
f 107/111/107 102/105/102 97/108/97
f 511/233/511 805/235/805 504/218/504
f 495/11/495 854/205/854 855/206/855
f 360/180/360 359/179/359 37/86/37
f 44/92/44 359/179/359 360/180/360
f 41/83/41 359/179/359 358/178/358
f 358/178/358 359/179/359 34/87/34
f 358/178/358 357/177/357 38/85/38
f 42/84/42 383/183/383 382/182/382
f 107/111/107 108/112/108 98/101/98
f 106/100/106 105/99/105 93/102/93
f 106/100/106 94/94/94 99/98/99
f 118/79/118 6/63/6 115/80/115
f 6/63/6 118/79/118 11/61/11
f 8/58/8 7/57/7 1/72/1
f 11/61/11 5/64/5 2/65/2
f 11/61/11 12/62/12 6/63/6
f 62/41/62 55/30/55 58/34/58
f 62/37/62 61/36/61 54/35/54
f 855/206/855 854/205/854 860/193/860
f 863/197/863 852/202/852 851/201/851
f 61/36/61 57/33/57 54/35/54
f 61/40/61 62/41/62 58/34/58
f 565/245/565 478/237/478 563/237/563
f 478/237/478 565/245/565 480/245/480
f 24/16/24 15/17/15 426/209/426
f 24/16/24 425/208/425 17/20/17
f 27/21/27 419/197/419 19/23/19
f 494/10/494 491/12/491 848/194/848
f 23/19/23 20/24/20 416/192/416
f 23/19/23 415/191/415 18/18/18
f 483/240/483 478/237/478 474/244/474
f 28/22/28 16/25/16 422/203/422
f 10/67/10 1/60/1 4/59/4
f 10/67/10 9/68/9 3/66/3
f 13/69/13 14/70/14 5/64/5
f 508/223/508 804/227/804 805/224/805
f 9/68/9 6/63/6 3/66/3
f 9/68/9 10/67/10 4/59/4
f 480/245/480 475/242/475 481/241/481
f 14/70/14 2/65/2 5/64/5
f 388/188/388 386/186/386 389/189/389
f 387/187/387 389/189/389 386/186/386
f 384/184/384 388/188/388 383/183/383
f 388/188/388 389/189/389 383/183/383
f 382/182/382 387/187/387 381/181/381
f 480/245/480 474/244/474 478/237/478
f 856/208/856 859/191/859 858/190/858
f 484/246/484 477/239/477 485/247/485
f 481/241/481 474/244/474 480/245/480
f 481/241/481 475/242/475 472/243/472
f 7/57/7 4/71/4 1/72/1
f 567/246/567 562/239/562 477/239/477
f 477/239/477 484/246/484 567/246/567
f 567/246/567 476/248/476 561/248/561
f 476/248/476 567/246/567 484/246/484
f 565/245/565 560/242/560 475/242/475
f 4/59/4 117/76/117 9/68/9
f 117/76/117 4/59/4 113/75/113
f 861/194/861 854/205/854 853/204/853
f 496/21/496 490/23/490 850/197/850
f 5/64/5 119/77/119 13/69/13
f 119/77/119 5/64/5 114/78/114
f 6/63/6 9/68/9 117/76/117
f 117/76/117 115/80/115 6/63/6
f 387/187/387 386/186/386 381/181/381
f 530/40/530 527/34/527 531/41/531
f 530/36/530 523/35/523 526/33/526
f 385/185/385 386/186/386 388/188/388
f 21/6/21 18/8/18 414/200/414
f 387/187/387 383/183/383 389/189/389
f 384/184/384 355/175/355 385/185/385
f 384/184/384 385/185/385 388/188/388
f 111/110/111 112/109/112 101/113/101
f 111/110/111 100/97/100 95/96/95
f 483/240/483 473/238/473 482/236/482
f 494/10/494 849/195/849 490/13/490
f 112/109/112 111/110/111 95/96/95
f 112/109/112 96/114/96 101/113/101
f 475/242/475 480/245/480 565/245/565
f 531/37/531 523/35/523 530/36/530
f 110/104/110 97/108/97 102/105/102
f 529/26/529 525/28/525 522/27/522
f 110/104/110 109/103/109 96/107/96
f 529/39/529 524/30/524 528/38/528
f 109/103/109 101/106/101 96/107/96
f 109/103/109 110/104/110 102/105/102
f 116/74/116 113/73/113 4/71/4
f 497/22/497 853/203/853 487/25/487
f 104/95/104 100/97/100 103/93/103
f 95/96/95 100/97/100 104/95/104
f 566/236/566 477/239/477 562/239/562
f 492/19/492 489/18/489 846/191/846
f 385/185/385 355/175/355 356/176/356
f 385/185/385 356/176/356 386/186/386
f 492/19/492 847/192/847 491/24/491
f 493/16/493 488/20/488 856/208/856
f 356/176/356 357/177/357 386/186/386
f 381/181/381 386/186/386 357/177/357
f 493/16/493 857/209/857 486/17/486
f 5/64/5 11/61/11 118/79/118
f 382/182/382 381/181/381 34/87/34
f 118/79/118 114/78/114 5/64/5
f 382/182/382 383/183/383 387/187/387
f 42/84/42 35/88/35 383/183/383
f 381/181/381 358/178/358 34/87/34
f 381/181/381 357/177/357 358/178/358
f 42/84/42 382/182/382 34/87/34
f 532/31/532 526/33/526 533/32/533
f 12/62/12 3/66/3 6/63/6
f 12/62/12 11/61/11 2/65/2
f 528/38/528 524/30/524 527/34/527
f 41/83/41 37/86/37 359/179/359
f 41/83/41 358/178/358 38/85/38
f 528/29/528 525/28/525 529/26/529
f 60/26/60 53/27/53 56/28/56
f 60/39/60 59/38/59 55/30/55
f 63/31/63 64/32/64 57/33/57
f 511/233/511 503/230/503 806/234/806
f 59/38/59 58/34/58 55/30/55
f 59/29/59 60/26/60 56/28/56
f 533/32/533 526/33/526 523/35/523
f 64/32/64 54/35/54 57/33/57
f 510/231/510 507/225/507 806/232/806
f 509/215/509 804/219/804 803/216/803
f 804/227/804 505/226/505 803/216/803
f 804/219/804 504/218/504 805/235/805
f 4/71/4 7/57/7 116/74/116
f 853/203/853 852/202/852 862/196/862
f 25/10/25 417/194/417 20/12/20
f 25/10/25 19/13/19 418/195/418
f 22/7/22 427/211/427 15/9/15
f 531/41/531 527/34/527 524/30/524
f 26/11/26 423/205/423 16/14/16
f 26/11/26 17/15/17 424/206/424
f 494/10/494 848/194/848 849/195/849
f 492/19/492 846/191/846 847/192/847
f 852/202/852 863/197/863 862/196/862
f 854/205/854 487/14/487 853/204/853
f 40/89/40 355/175/355 384/184/384
f 356/176/356 355/175/355 36/81/36
f 384/184/384 383/183/383 35/88/35
f 39/90/39 357/177/357 356/176/356
f 425/208/425 428/190/428 429/191/429
f 415/191/415 414/190/414 18/18/18
f 429/191/429 430/192/430 424/207/424
f 23/19/23 416/192/416 415/191/415
f 423/205/423 430/193/430 431/194/431
f 417/194/417 416/193/416 20/12/20
f 431/194/431 432/195/432 422/204/422
f 25/10/25 418/195/418 417/194/417
f 421/202/421 432/196/432 433/197/433
f 419/197/419 418/196/418 19/23/19
f 482/236/482 478/237/478 483/240/483
f 482/236/482 473/238/473 477/239/477
f 510/231/510 807/229/807 506/221/506
f 478/237/478 482/236/482 566/236/566
f 566/236/566 563/237/563 478/237/478
f 859/191/859 856/208/856 855/207/855
f 856/208/856 488/20/488 855/207/855
f 857/209/857 856/208/856 858/190/858
f 434/199/434 428/200/428 426/210/426
f 21/6/21 414/200/414 420/199/420
f 511/233/511 806/234/806 805/235/805
f 806/232/806 507/225/507 805/224/805
f 806/232/806 503/230/503 807/229/807
f 510/231/510 806/232/806 807/229/807
f 422/203/422 432/196/432 421/202/421
f 28/22/28 422/203/422 421/202/421
f 431/194/431 422/204/422 423/205/423
f 423/205/423 422/204/422 16/14/16
f 424/206/424 430/193/430 423/205/423
f 26/11/26 424/206/424 423/205/423
f 429/191/429 424/207/424 425/208/425
f 425/208/425 424/207/424 17/20/17
f 426/209/426 428/190/428 425/208/425
f 24/16/24 426/209/426 425/208/425
f 434/199/434 426/210/426 427/211/427
f 427/211/427 426/210/426 15/9/15
f 513/228/513 808/222/808 807/229/807
f 808/222/808 506/221/506 807/229/807
f 850/197/850 490/23/490 849/196/849
f 477/239/477 566/236/566 482/236/482
f 509/215/509 803/216/803 502/217/502
f 509/215/509 504/218/504 804/219/804
f 512/220/512 506/221/506 808/222/808
f 495/11/495 855/206/855 488/15/488
f 508/223/508 805/224/805 507/225/507
f 508/223/508 505/226/505 804/227/804
f 495/11/495 487/14/487 854/205/854
f 513/228/513 807/229/807 503/230/503
f 846/191/846 489/18/489 845/190/845
f 863/197/863 851/201/851 864/198/864
f 497/22/497 852/202/852 853/203/853
f 476/248/476 479/249/479 564/249/564
f 564/249/564 561/248/561 476/248/476
f 854/205/854 861/194/861 860/193/860
f 848/194/848 491/12/491 847/193/847
f 493/16/493 856/208/856 857/209/857
g fff0aa7b_00267_00686c19_e4
f 76/53/76 67/46/67 70/50/70
f 76/53/76 75/52/75 66/51/66
f 559/128/559 550/123/550 547/119/547
f 72/55/72 71/56/71 65/43/65
f 75/52/75 69/49/69 66/51/66
f 75/52/75 76/53/76 70/50/70
f 71/54/71 68/44/68 65/43/65
f 554/126/554 549/124/549 555/125/555
f 541/42/541 537/44/537 534/43/534
f 541/42/541 536/46/536 540/45/540
f 544/47/544 538/49/538 545/48/545
f 554/129/554 548/116/548 551/117/551
f 78/48/78 66/51/66 69/49/69
f 540/45/540 536/46/536 539/50/539
f 73/45/73 74/42/74 68/44/68
f 73/45/73 70/50/70 67/46/67
f 540/45/540 537/44/537 541/42/541
f 77/47/77 78/48/78 69/49/69
f 74/42/74 73/45/73 67/46/67
f 74/42/74 65/43/65 68/44/68
f 552/121/552 546/122/546 549/124/549
f 545/48/545 538/49/538 535/51/535
f 556/131/556 551/117/551 557/132/557
f 556/118/556 547/119/547 550/123/550
f 92/128/92 80/119/80 83/123/83
f 553/120/553 546/122/546 552/121/552
f 87/126/87 88/125/88 82/124/82
f 87/129/87 84/117/84 81/116/81
f 558/127/558 550/123/550 559/128/559
f 91/127/91 92/128/92 83/123/83
f 88/130/88 87/129/87 81/116/81
f 88/125/88 79/122/79 82/124/82
f 557/115/557 547/119/547 556/118/556
f 85/121/85 82/124/82 79/122/79
f 89/131/89 90/132/90 84/117/84
f 89/118/89 83/123/83 80/119/80
f 86/120/86 85/121/85 79/122/79
f 555/130/555 548/116/548 554/129/554
f 90/115/90 89/118/89 80/119/80
f 90/132/90 81/116/81 84/117/84
f 543/53/543 539/50/539 536/46/536
f 543/53/543 535/51/535 542/52/542
f 557/132/557 551/117/551 548/116/548
f 555/125/555 549/124/549 546/122/546
f 542/52/542 535/51/535 538/49/538
f 542/52/542 539/50/539 543/53/543
g fff0aa7b_00267_00686c19_e11
f 32/171/32 30/172/30 31/173/31
f 32/171/32 31/173/31 29/174/29
f 350/171/350 348/172/348 349/173/349
f 350/171/350 349/173/349 347/174/347
f 354/171/354 352/172/352 353/173/353
f 354/171/354 353/173/353 351/174/351
f 364/171/364 362/172/362 363/173/363
f 364/171/364 363/173/363 361/174/361
f 368/171/368 366/172/366 367/173/367
f 368/171/368 367/173/367 365/174/365
f 372/171/372 370/172/370 371/173/371
f 372/171/372 371/173/371 369/174/369
f 376/171/376 374/172/374 375/173/375
f 376/171/376 375/173/375 373/174/373
f 380/171/380 378/172/378 379/173/379
f 380/171/380 379/173/379 377/174/377
f 393/171/393 391/172/391 392/173/392
f 393/171/393 392/173/392 390/174/390
f 397/171/397 395/172/395 396/173/396
f 397/171/397 396/173/396 394/174/394
f 401/171/401 399/172/399 400/173/400
f 401/171/401 400/173/400 398/174/398
f 405/171/405 403/172/403 404/173/404
f 405/171/405 404/173/404 402/174/402
f 409/171/409 407/172/407 408/173/408
f 409/171/409 408/173/408 406/174/406
f 413/171/413 411/172/411 412/173/412
f 413/171/413 412/173/412 410/174/410
f 501/171/501 500/173/500 499/172/499
f 501/171/501 498/174/498 500/173/500
f 798/171/798 797/173/797 796/172/796
f 798/171/798 795/174/795 797/173/797
f 802/171/802 801/173/801 800/172/800
f 802/171/802 799/174/799 801/173/801
f 812/171/812 811/173/811 810/172/810
f 812/171/812 809/174/809 811/173/811
f 816/171/816 815/173/815 814/172/814
f 816/171/816 813/174/813 815/173/815
f 820/171/820 819/173/819 818/172/818
f 820/171/820 817/174/817 819/173/819
f 844/171/844 841/174/841 843/173/843
f 844/171/844 843/173/843 842/172/842
f 840/171/840 837/174/837 839/173/839
f 840/171/840 839/173/839 838/172/838
f 824/171/824 823/173/823 822/172/822
f 824/171/824 821/174/821 823/173/823
f 828/171/828 827/173/827 826/172/826
f 828/171/828 825/174/825 827/173/827
f 832/171/832 831/173/831 830/172/830
f 832/171/832 829/174/829 831/173/831
f 836/171/836 835/173/835 834/172/834
f 836/171/836 833/174/833 835/173/835
g fff0aa7b_00267_00686c19_e10
f 124/62/124 121/66/121 122/63/122
f 123/61/123 124/62/124 122/63/122
f 121/66/121 124/62/124 126/135/126
f 126/135/126 125/134/125 121/66/121
f 125/134/125 126/135/126 128/137/128
f 128/137/128 127/136/127 125/134/125
f 127/136/127 128/137/128 130/139/130
f 130/139/130 129/138/129 127/136/127
f 134/62/134 132/63/132 131/66/131
f 133/61/133 132/63/132 134/62/134
f 131/66/131 136/135/136 134/62/134
f 136/135/136 131/66/131 135/134/135
f 135/134/135 138/137/138 136/135/136
f 138/137/138 135/134/135 137/136/137
f 137/136/137 140/139/140 138/137/138
f 140/139/140 137/136/137 139/138/139
f 130/1/130 141/140/141 129/1/129
f 139/1/139 129/1/129 141/140/141
f 141/140/141 140/1/140 139/1/139
f 143/142/143 122/63/122 121/66/121
f 121/66/121 142/141/142 143/142/143
f 144/143/144 121/66/121 125/134/125
f 121/66/121 144/143/144 142/141/142
f 145/144/145 125/134/125 127/136/127
f 125/134/125 145/144/145 144/143/144
f 146/145/146 127/136/127 129/138/129
f 127/136/127 146/145/146 145/144/145
f 129/1/129 139/1/139 151/146/151
f 151/146/151 146/146/146 129/1/129
f 148/142/148 131/66/131 132/63/132
f 131/66/131 148/142/148 147/141/147
f 149/143/149 135/134/135 131/66/131
f 131/66/131 147/141/147 149/143/149
f 150/144/150 137/136/137 135/134/135
f 135/134/135 149/143/149 150/144/150
f 151/145/151 139/138/139 137/136/137
f 137/136/137 150/144/150 151/145/151
f 155/62/155 152/66/152 153/63/153
f 154/61/154 155/62/155 153/63/153
f 157/142/157 153/63/153 152/66/152
f 152/66/152 156/141/156 157/142/157
f 152/66/152 155/62/155 159/148/159
f 159/148/159 158/147/158 152/66/152
f 156/141/156 152/66/152 160/149/160
f 158/147/158 160/149/160 152/66/152
f 158/147/158 159/148/159 162/151/162
f 162/151/162 161/150/161 158/147/158
f 160/149/160 158/147/158 163/152/163
f 161/150/161 163/152/163 158/147/158
f 164/66/164 165/62/165 168/148/168
f 168/148/168 167/147/167 164/66/164
f 166/141/166 164/66/164 169/149/169
f 167/147/167 169/149/169 164/66/164
f 167/147/167 168/148/168 171/151/171
f 171/151/171 170/150/170 167/147/167
f 169/149/169 167/147/167 172/152/172
f 170/150/170 172/152/172 167/147/167
f 176/62/176 173/66/173 205/154/205
f 175/61/175 206/155/206 174/63/174
f 173/66/173 176/62/176 178/135/178
f 178/135/178 177/134/177 173/66/173
f 177/134/177 178/135/178 180/137/180
f 180/137/180 179/136/179 177/134/177
f 179/136/179 180/137/180 182/139/182
f 182/139/182 181/138/181 179/136/179
f 186/62/186 184/63/184 183/66/183
f 185/61/185 184/63/184 186/62/186
f 183/66/183 188/135/188 186/62/186
f 188/135/188 183/66/183 187/134/187
f 187/134/187 190/137/190 188/135/188
f 190/137/190 187/134/187 189/136/189
f 189/136/189 192/139/192 190/137/190
f 192/139/192 189/136/189 191/138/191
f 182/1/182 193/140/193 181/1/181
f 191/1/191 181/1/181 193/140/193
f 193/140/193 192/1/192 191/1/191
f 195/142/195 174/63/174 205/154/205
f 173/66/173 194/141/194 204/153/204
f 196/143/196 173/66/173 177/134/177
f 173/66/173 196/143/196 194/141/194
f 197/144/197 177/134/177 179/136/179
f 177/134/177 197/144/197 196/143/196
f 198/145/198 179/136/179 181/138/181
f 179/136/179 198/145/198 197/144/197
f 181/1/181 191/1/191 203/146/203
f 203/146/203 198/146/198 181/1/181
f 200/142/200 183/66/183 184/63/184
f 183/66/183 200/142/200 199/141/199
f 201/143/201 187/134/187 183/66/183
f 183/66/183 199/141/199 201/143/201
f 202/144/202 189/136/189 187/134/187
f 187/134/187 201/143/201 202/144/202
f 203/145/203 191/138/191 189/136/189
f 189/136/189 202/144/202 203/145/203
f 173/66/173 204/153/204 205/154/205
f 195/142/195 205/154/205 204/153/204
f 176/62/176 205/154/205 206/155/206
f 206/155/206 205/154/205 174/63/174
f 210/62/210 207/66/207 208/63/208
f 209/61/209 210/62/210 208/63/208
f 212/142/212 208/63/208 207/66/207
f 207/66/207 211/141/211 212/142/212
f 207/66/207 210/62/210 214/148/214
f 214/148/214 213/147/213 207/66/207
f 211/141/211 207/66/207 215/149/215
f 213/147/213 215/149/215 207/66/207
f 213/147/213 214/148/214 217/151/217
f 217/151/217 216/150/216 213/147/213
f 215/149/215 213/147/213 218/152/218
f 216/150/216 218/152/218 213/147/213
f 222/62/222 219/66/219 220/63/220
f 221/61/221 222/62/222 220/63/220
f 219/66/219 222/62/222 224/135/224
f 224/135/224 223/134/223 219/66/219
f 223/134/223 224/135/224 226/137/226
f 226/137/226 225/136/225 223/134/223
f 225/136/225 226/137/226 228/139/228
f 228/139/228 227/138/227 225/136/225
f 232/62/232 230/63/230 229/66/229
f 231/61/231 230/63/230 232/62/232
f 229/66/229 234/135/234 232/62/232
f 234/135/234 229/66/229 233/134/233
f 233/134/233 236/137/236 234/135/234
f 236/137/236 233/134/233 235/136/235
f 235/136/235 238/139/238 236/137/236
f 238/139/238 235/136/235 237/138/237
f 228/1/228 239/140/239 227/1/227
f 237/1/237 227/1/227 239/140/239
f 239/140/239 238/1/238 237/1/237
f 241/142/241 220/63/220 219/66/219
f 219/66/219 240/141/240 241/142/241
f 242/143/242 219/66/219 223/134/223
f 219/66/219 242/143/242 240/141/240
f 243/144/243 223/134/223 225/136/225
f 223/134/223 243/144/243 242/143/242
f 244/145/244 225/136/225 227/138/227
f 225/136/225 244/145/244 243/144/243
f 227/1/227 237/1/237 249/146/249
f 249/146/249 244/146/244 227/1/227
f 246/142/246 229/66/229 230/63/230
f 229/66/229 246/142/246 245/141/245
f 247/143/247 233/134/233 229/66/229
f 229/66/229 245/141/245 247/143/247
f 248/144/248 235/136/235 233/134/233
f 233/134/233 247/143/247 248/144/248
f 249/145/249 237/138/237 235/136/235
f 235/136/235 248/144/248 249/145/249
f 253/62/253 250/66/250 251/63/251
f 252/61/252 253/62/253 251/63/251
f 255/142/255 251/63/251 250/66/250
f 250/66/250 254/141/254 255/142/255
f 250/66/250 253/62/253 257/148/257
f 257/148/257 256/147/256 250/66/250
f 254/141/254 250/66/250 258/149/258
f 256/147/256 258/149/258 250/66/250
f 256/147/256 257/148/257 260/151/260
f 260/151/260 259/150/259 256/147/256
f 258/149/258 256/147/256 261/152/261
f 259/150/259 261/152/261 256/147/256
f 265/62/265 262/66/262 263/63/263
f 264/61/264 265/62/265 263/63/263
f 267/142/267 263/63/263 262/66/262
f 262/66/262 266/141/266 267/142/267
f 262/66/262 265/62/265 269/148/269
f 269/148/269 268/147/268 262/66/262
f 266/141/266 262/66/262 270/149/270
f 268/147/268 270/149/270 262/66/262
f 268/147/268 269/148/269 272/151/272
f 272/151/272 271/150/271 268/147/268
f 270/149/270 268/147/268 273/152/273
f 271/150/271 273/152/273 268/147/268
f 275/62/275 274/66/274 300/154/300
f 275/62/275 300/154/300 301/155/301
f 274/66/274 275/62/275 277/135/277
f 277/135/277 276/134/276 274/66/274
f 276/134/276 277/135/277 279/137/279
f 279/137/279 278/136/278 276/134/276
f 278/136/278 279/137/279 281/139/281
f 281/139/281 280/138/280 278/136/278
f 274/66/274 299/153/299 300/154/300
f 286/136/286 297/144/297 298/145/298
f 282/66/282 285/135/285 283/62/283
f 285/135/285 282/66/282 284/134/284
f 284/134/284 287/137/287 285/135/285
f 287/137/287 284/134/284 286/136/286
f 286/136/286 289/139/289 287/137/287
f 289/139/289 286/136/286 288/138/288
f 281/1/281 290/140/290 280/1/280
f 288/1/288 280/1/280 290/140/290
f 290/140/290 289/1/289 288/1/288
f 298/145/298 288/138/288 286/136/286
f 274/66/274 291/141/291 299/153/299
f 292/143/292 274/66/274 276/134/276
f 274/66/274 292/143/292 291/141/291
f 293/144/293 276/134/276 278/136/278
f 276/134/276 293/144/293 292/143/292
f 294/145/294 278/136/278 280/138/280
f 278/136/278 294/145/294 293/144/293
f 280/1/280 288/1/288 298/146/298
f 298/146/298 294/146/294 280/1/280
f 284/134/284 296/143/296 297/144/297
f 297/144/297 286/136/286 284/134/284
f 296/143/296 284/134/284 282/66/282
f 282/66/282 295/141/295 296/143/296
f 283/62/283 303/157/303 282/66/282
f 302/156/302 282/66/282 303/157/303
f 295/141/295 282/66/282 304/158/304
f 302/156/302 304/158/304 282/66/282
f 303/157/303 306/160/306 302/156/302
f 305/159/305 302/156/302 306/160/306
f 304/158/304 302/156/302 307/161/307
f 305/159/305 307/161/307 302/156/302
f 326/162/326 333/169/333 327/163/327
f 310/61/310 326/162/326 309/63/309
f 328/164/328 327/163/327 333/169/333
f 308/66/308 312/141/312 332/168/332
f 317/62/317 314/66/314 330/166/330
f 316/61/316 331/167/331 315/63/315
f 319/142/319 315/63/315 330/166/330
f 314/66/314 318/141/318 329/165/329
f 323/62/323 320/66/320 321/63/321
f 322/61/322 323/62/323 321/63/321
f 325/142/325 321/63/321 320/66/320
f 320/66/320 324/141/324 325/142/325
f 334/170/334 311/62/311 308/66/308
f 326/162/326 327/163/327 309/63/309
f 313/142/313 309/63/309 327/163/327
f 327/163/327 328/164/328 313/142/313
f 314/66/314 329/165/329 330/166/330
f 319/142/319 330/166/330 329/165/329
f 317/62/317 330/166/330 331/167/331
f 331/167/331 330/166/330 315/63/315
f 308/66/308 332/168/332 333/169/333
f 328/164/328 333/169/333 332/168/332
f 326/162/326 334/170/334 333/169/333
f 333/169/333 334/170/334 308/66/308
f 338/62/338 335/66/335 336/63/336
f 337/61/337 338/62/338 336/63/336
f 340/142/340 336/63/336 335/66/335
f 335/66/335 339/141/339 340/142/340
f 335/66/335 338/62/338 342/148/342
f 342/148/342 341/147/341 335/66/335
f 339/141/339 335/66/335 343/149/343
f 341/147/341 343/149/343 335/66/335
f 341/147/341 342/148/342 345/151/345
f 345/151/345 344/150/344 341/147/341
f 343/149/343 341/147/341 346/152/346
f 344/150/344 346/152/346 341/147/341
f 436/62/436 435/66/435 461/154/461
f 436/62/436 461/154/461 462/155/462
f 435/66/435 436/62/436 438/135/438
f 438/135/438 437/134/437 435/66/435
f 437/134/437 438/135/438 440/137/440
f 440/137/440 439/136/439 437/134/437
f 439/136/439 440/137/440 442/139/442
f 442/139/442 441/138/441 439/136/439
f 435/66/435 460/153/460 461/154/461
f 447/136/447 458/144/458 459/145/459
f 443/66/443 446/135/446 444/62/444
f 446/135/446 443/66/443 445/134/445
f 445/134/445 448/137/448 446/135/446
f 448/137/448 445/134/445 447/136/447
f 447/136/447 450/139/450 448/137/448
f 450/139/450 447/136/447 449/138/449
f 442/1/442 451/140/451 441/1/441
f 449/1/449 441/1/441 451/140/451
f 451/140/451 450/1/450 449/1/449
f 459/145/459 449/138/449 447/136/447
f 435/66/435 452/141/452 460/153/460
f 453/143/453 435/66/435 437/134/437
f 435/66/435 453/143/453 452/141/452
f 454/144/454 437/134/437 439/136/439
f 437/134/437 454/144/454 453/143/453
f 455/145/455 439/136/439 441/138/441
f 439/136/439 455/145/455 454/144/454
f 441/1/441 449/1/449 459/146/459
f 459/146/459 455/146/455 441/1/441
f 445/134/445 457/143/457 458/144/458
f 458/144/458 447/136/447 445/134/445
f 457/143/457 445/134/445 443/66/443
f 443/66/443 456/141/456 457/143/457
f 444/62/444 464/157/464 443/66/443
f 463/156/463 443/66/443 464/157/464
f 456/141/456 443/66/443 465/158/465
f 463/156/463 465/158/465 443/66/443
f 464/157/464 467/160/467 463/156/463
f 466/159/466 463/156/463 467/160/467
f 465/158/465 463/156/463 468/161/468
f 466/159/466 468/161/468 463/156/463
f 467/160/467 470/213/470 466/159/466
f 469/212/469 466/159/466 470/213/470
f 468/161/468 466/159/466 471/214/471
f 469/212/469 471/214/471 466/159/466
f 572/62/572 570/63/570 569/66/569
f 571/61/571 570/63/570 572/62/572
f 569/66/569 574/135/574 572/62/572
f 574/135/574 569/66/569 573/134/573
f 573/134/573 576/137/576 574/135/574
f 576/137/576 573/134/573 575/136/575
f 575/136/575 578/139/578 576/137/576
f 578/139/578 575/136/575 577/138/577
f 582/62/582 579/66/579 580/63/580
f 581/61/581 582/62/582 580/63/580
f 579/66/579 582/62/582 584/135/584
f 584/135/584 583/134/583 579/66/579
f 583/134/583 584/135/584 586/137/586
f 586/137/586 585/136/585 583/134/583
f 585/136/585 586/137/586 588/139/588
f 588/139/588 587/138/587 585/136/585
f 578/1/578 577/1/577 589/140/589
f 587/1/587 589/140/589 577/1/577
f 589/140/589 587/1/587 588/1/588
f 591/142/591 569/66/569 570/63/570
f 569/66/569 591/142/591 590/141/590
f 592/143/592 573/134/573 569/66/569
f 569/66/569 590/141/590 592/143/592
f 593/144/593 575/136/575 573/134/573
f 573/134/573 592/143/592 593/144/593
f 594/145/594 577/138/577 575/136/575
f 575/136/575 593/144/593 594/145/594
f 577/1/577 599/146/599 587/1/587
f 599/146/599 577/1/577 594/146/594
f 596/142/596 580/63/580 579/66/579
f 579/66/579 595/141/595 596/142/596
f 597/143/597 579/66/579 583/134/583
f 579/66/579 597/143/597 595/141/595
f 598/144/598 583/134/583 585/136/585
f 583/134/583 598/144/598 597/143/597
f 599/145/599 585/136/585 587/138/587
f 585/136/585 599/145/599 598/144/598
f 603/62/603 601/63/601 600/66/600
f 602/61/602 601/63/601 603/62/603
f 605/142/605 600/66/600 601/63/601
f 600/66/600 605/142/605 604/141/604
f 600/66/600 607/148/607 603/62/603
f 607/148/607 600/66/600 606/147/606
f 604/141/604 608/149/608 600/66/600
f 606/147/606 600/66/600 608/149/608
f 606/147/606 610/151/610 607/148/607
f 610/151/610 606/147/606 609/150/609
f 608/149/608 611/152/611 606/147/606
f 609/150/609 606/147/606 611/152/611
f 612/66/612 616/148/616 613/62/613
f 616/148/616 612/66/612 615/147/615
f 614/141/614 617/149/617 612/66/612
f 615/147/615 612/66/612 617/149/617
f 615/147/615 619/151/619 616/148/616
f 619/151/619 615/147/615 618/150/618
f 617/149/617 620/152/620 615/147/615
f 618/150/618 615/147/615 620/152/620
f 624/62/624 653/154/653 621/66/621
f 623/61/623 622/63/622 654/155/654
f 621/66/621 626/135/626 624/62/624
f 626/135/626 621/66/621 625/134/625
f 625/134/625 628/137/628 626/135/626
f 628/137/628 625/134/625 627/136/627
f 627/136/627 630/139/630 628/137/628
f 630/139/630 627/136/627 629/138/629
f 634/62/634 631/66/631 632/63/632
f 633/61/633 634/62/634 632/63/632
f 631/66/631 634/62/634 636/135/636
f 636/135/636 635/134/635 631/66/631
f 635/134/635 636/135/636 638/137/638
f 638/137/638 637/136/637 635/134/635
f 637/136/637 638/137/638 640/139/640
f 640/139/640 639/138/639 637/136/637
f 630/1/630 629/1/629 641/140/641
f 639/1/639 641/140/641 629/1/629
f 641/140/641 639/1/639 640/1/640
f 643/142/643 653/154/653 622/63/622
f 621/66/621 652/153/652 642/141/642
f 644/143/644 625/134/625 621/66/621
f 621/66/621 642/141/642 644/143/644
f 645/144/645 627/136/627 625/134/625
f 625/134/625 644/143/644 645/144/645
f 646/145/646 629/138/629 627/136/627
f 627/136/627 645/144/645 646/145/646
f 629/1/629 651/146/651 639/1/639
f 651/146/651 629/1/629 646/146/646
f 648/142/648 632/63/632 631/66/631
f 631/66/631 647/141/647 648/142/648
f 649/143/649 631/66/631 635/134/635
f 631/66/631 649/143/649 647/141/647
f 650/144/650 635/134/635 637/136/637
f 635/134/635 650/144/650 649/143/649
f 651/145/651 637/136/637 639/138/639
f 637/136/637 651/145/651 650/144/650
f 621/66/621 653/154/653 652/153/652
f 643/142/643 652/153/652 653/154/653
f 624/62/624 654/155/654 653/154/653
f 654/155/654 622/63/622 653/154/653
f 658/62/658 656/63/656 655/66/655
f 657/61/657 656/63/656 658/62/658
f 660/142/660 655/66/655 656/63/656
f 655/66/655 660/142/660 659/141/659
f 655/66/655 662/148/662 658/62/658
f 662/148/662 655/66/655 661/147/661
f 659/141/659 663/149/663 655/66/655
f 661/147/661 655/66/655 663/149/663
f 661/147/661 665/151/665 662/148/662
f 665/151/665 661/147/661 664/150/664
f 663/149/663 666/152/666 661/147/661
f 664/150/664 661/147/661 666/152/666
f 670/62/670 668/63/668 667/66/667
f 669/61/669 668/63/668 670/62/670
f 667/66/667 672/135/672 670/62/670
f 672/135/672 667/66/667 671/134/671
f 671/134/671 674/137/674 672/135/672
f 674/137/674 671/134/671 673/136/673
f 673/136/673 676/139/676 674/137/674
f 676/139/676 673/136/673 675/138/675
f 680/62/680 677/66/677 678/63/678
f 679/61/679 680/62/680 678/63/678
f 677/66/677 680/62/680 682/135/682
f 682/135/682 681/134/681 677/66/677
f 681/134/681 682/135/682 684/137/684
f 684/137/684 683/136/683 681/134/681
f 683/136/683 684/137/684 686/139/686
f 686/139/686 685/138/685 683/136/683
f 676/1/676 675/1/675 687/140/687
f 685/1/685 687/140/687 675/1/675
f 687/140/687 685/1/685 686/1/686
f 689/142/689 667/66/667 668/63/668
f 667/66/667 689/142/689 688/141/688
f 690/143/690 671/134/671 667/66/667
f 667/66/667 688/141/688 690/143/690
f 691/144/691 673/136/673 671/134/671
f 671/134/671 690/143/690 691/144/691
f 692/145/692 675/138/675 673/136/673
f 673/136/673 691/144/691 692/145/692
f 675/1/675 697/146/697 685/1/685
f 697/146/697 675/1/675 692/146/692
f 694/142/694 678/63/678 677/66/677
f 677/66/677 693/141/693 694/142/694
f 695/143/695 677/66/677 681/134/681
f 677/66/677 695/143/695 693/141/693
f 696/144/696 681/134/681 683/136/683
f 681/134/681 696/144/696 695/143/695
f 697/145/697 683/136/683 685/138/685
f 683/136/683 697/145/697 696/144/696
f 701/62/701 699/63/699 698/66/698
f 700/61/700 699/63/699 701/62/701
f 703/142/703 698/66/698 699/63/699
f 698/66/698 703/142/703 702/141/702
f 698/66/698 705/148/705 701/62/701
f 705/148/705 698/66/698 704/147/704
f 702/141/702 706/149/706 698/66/698
f 704/147/704 698/66/698 706/149/706
f 704/147/704 708/151/708 705/148/705
f 708/151/708 704/147/704 707/150/707
f 706/149/706 709/152/709 704/147/704
f 707/150/707 704/147/704 709/152/709
f 713/62/713 711/63/711 710/66/710
f 712/61/712 711/63/711 713/62/713
f 715/142/715 710/66/710 711/63/711
f 710/66/710 715/142/715 714/141/714
f 710/66/710 717/148/717 713/62/713
f 717/148/717 710/66/710 716/147/716
f 714/141/714 718/149/718 710/66/710
f 716/147/716 710/66/710 718/149/718
f 716/147/716 720/151/720 717/148/717
f 720/151/720 716/147/716 719/150/719
f 718/149/718 721/152/721 716/147/716
f 719/150/719 716/147/716 721/152/721
f 723/62/723 748/154/748 722/66/722
f 723/62/723 749/155/749 748/154/748
f 722/66/722 725/135/725 723/62/723
f 725/135/725 722/66/722 724/134/724
f 724/134/724 727/137/727 725/135/725
f 727/137/727 724/134/724 726/136/726
f 726/136/726 729/139/729 727/137/727
f 729/139/729 726/136/726 728/138/728
f 722/66/722 748/154/748 747/153/747
f 734/136/734 746/145/746 745/144/745
f 730/66/730 731/62/731 733/135/733
f 733/135/733 732/134/732 730/66/730
f 732/134/732 733/135/733 735/137/735
f 735/137/735 734/136/734 732/134/732
f 734/136/734 735/137/735 737/139/737
f 737/139/737 736/138/736 734/136/734
f 729/1/729 728/1/728 738/140/738
f 736/1/736 738/140/738 728/1/728
f 738/140/738 736/1/736 737/1/737
f 746/145/746 734/136/734 736/138/736
f 722/66/722 747/153/747 739/141/739
f 740/143/740 724/134/724 722/66/722
f 722/66/722 739/141/739 740/143/740
f 741/144/741 726/136/726 724/134/724
f 724/134/724 740/143/740 741/144/741
f 742/145/742 728/138/728 726/136/726
f 726/136/726 741/144/741 742/145/742
f 728/1/728 746/146/746 736/1/736
f 746/146/746 728/1/728 742/146/742
f 732/134/732 745/144/745 744/143/744
f 745/144/745 732/134/732 734/136/734
f 744/143/744 730/66/730 732/134/732
f 730/66/730 744/143/744 743/141/743
f 731/62/731 730/66/730 751/157/751
f 750/156/750 751/157/751 730/66/730
f 743/141/743 752/158/752 730/66/730
f 750/156/750 730/66/730 752/158/752
f 751/157/751 750/156/750 754/160/754
f 753/159/753 754/160/754 750/156/750
f 752/158/752 755/161/755 750/156/750
f 753/159/753 750/156/750 755/161/755
f 774/162/774 775/163/775 781/169/781
f 758/61/758 757/63/757 774/162/774
f 776/164/776 781/169/781 775/163/775
f 756/66/756 780/168/780 760/141/760
f 765/62/765 778/166/778 762/66/762
f 764/61/764 763/63/763 779/167/779
f 767/142/767 778/166/778 763/63/763
f 762/66/762 777/165/777 766/141/766
f 771/62/771 769/63/769 768/66/768
f 770/61/770 769/63/769 771/62/771
f 773/142/773 768/66/768 769/63/769
f 768/66/768 773/142/773 772/141/772
f 782/170/782 756/66/756 759/62/759
f 774/162/774 757/63/757 775/163/775
f 761/142/761 775/163/775 757/63/757
f 775/163/775 761/142/761 776/164/776
f 762/66/762 778/166/778 777/165/777
f 767/142/767 777/165/777 778/166/778
f 765/62/765 779/167/779 778/166/778
f 779/167/779 763/63/763 778/166/778
f 756/66/756 781/169/781 780/168/780
f 776/164/776 780/168/780 781/169/781
f 774/162/774 781/169/781 782/170/782
f 781/169/781 756/66/756 782/170/782
f 786/62/786 784/63/784 783/66/783
f 785/61/785 784/63/784 786/62/786
f 788/142/788 783/66/783 784/63/784
f 783/66/783 788/142/788 787/141/787
f 783/66/783 790/148/790 786/62/786
f 790/148/790 783/66/783 789/147/789
f 787/141/787 791/149/791 783/66/783
f 789/147/789 783/66/783 791/149/791
f 789/147/789 793/151/793 790/148/790
f 793/151/793 789/147/789 792/150/792
f 791/149/791 794/152/794 789/147/789
f 792/150/792 789/147/789 794/152/794
f 866/62/866 891/154/891 865/66/865
f 866/62/866 892/155/892 891/154/891
f 865/66/865 868/135/868 866/62/866
f 868/135/868 865/66/865 867/134/867
f 867/134/867 870/137/870 868/135/868
f 870/137/870 867/134/867 869/136/869
f 869/136/869 872/139/872 870/137/870
f 872/139/872 869/136/869 871/138/871
f 865/66/865 891/154/891 890/153/890
f 877/136/877 889/145/889 888/144/888
f 873/66/873 874/62/874 876/135/876
f 876/135/876 875/134/875 873/66/873
f 875/134/875 876/135/876 878/137/878
f 878/137/878 877/136/877 875/134/875
f 877/136/877 878/137/878 880/139/880
f 880/139/880 879/138/879 877/136/877
f 872/1/872 871/1/871 881/140/881
f 879/1/879 881/140/881 871/1/871
f 881/140/881 879/1/879 880/1/880
f 889/145/889 877/136/877 879/138/879
f 865/66/865 890/153/890 882/141/882
f 883/143/883 867/134/867 865/66/865
f 865/66/865 882/141/882 883/143/883
f 884/144/884 869/136/869 867/134/867
f 867/134/867 883/143/883 884/144/884
f 885/145/885 871/138/871 869/136/869
f 869/136/869 884/144/884 885/145/885
f 871/1/871 889/146/889 879/1/879
f 889/146/889 871/1/871 885/146/885
f 875/134/875 888/144/888 887/143/887
f 888/144/888 875/134/875 877/136/877
f 887/143/887 873/66/873 875/134/875
f 873/66/873 887/143/887 886/141/886
f 874/62/874 873/66/873 894/157/894
f 893/156/893 894/157/894 873/66/873
f 886/141/886 895/158/895 873/66/873
f 893/156/893 873/66/873 895/158/895
f 894/157/894 893/156/893 897/160/897
f 896/159/896 897/160/897 893/156/893
f 895/158/895 898/161/898 893/156/893
f 896/159/896 893/156/893 898/161/898
f 897/160/897 896/159/896 900/213/900
f 899/212/899 900/213/900 896/159/896
f 898/161/898 901/214/901 896/159/896
f 899/212/899 896/159/896 901/214/901
