# fff002fb_00037_000fb50b
o fff002fb_00037_000fb50b
v -3.002863 14.577894 -1.675210
v -7.306165 14.791347 0.115688
v -2.997053 15.077586 1.537778
v -2.993815 15.356086 1.705957
v -7.111170 15.166104 1.562463
v -7.108405 15.403928 1.705957
v -3.087025 14.606043 -1.507989
v -7.357745 14.819117 0.282909
v -3.081904 15.046474 1.584175
v -3.078415 15.346533 1.776651
v -7.163451 15.133640 1.609655
v -7.160423 15.393996 1.776651
v 2.359011 14.678965 -0.061036
v -3.662195 14.748976 -0.061036
v 2.362938 15.015458 1.593836
v 2.365496 15.235430 1.741184
v -3.657886 15.123513 1.619337
v -3.655769 15.305539 1.741114
v -1.145179 14.746881 -1.413360
v -1.141402 15.071715 1.733840
v -5.227192 14.794344 -1.413360
v -5.223415 15.119180 1.733840
v 2.235708 14.707569 0.106185
v -3.737823 14.777026 0.106185
v 2.238926 14.980802 1.639126
v 2.241706 15.219893 1.810518
v -3.734214 15.087034 1.665576
v -3.731861 15.289351 1.810518
v 14.597724 14.579054 -1.675225
v 10.294422 14.792506 0.115672
v 14.603534 15.078746 1.537763
v 14.606772 15.357245 1.705942
v 10.489411 15.167265 1.562448
v 10.492177 15.405087 1.705942
v -1.061017 14.718731 -1.580581
v -1.056219 15.131360 1.696061
v -5.175612 14.766574 -1.580581
v -5.170815 15.179202 1.696061
v 14.513567 14.607203 -1.508004
v 10.242842 14.820276 0.282894
v 14.518688 15.047633 1.584160
v 14.522177 15.347692 1.776636
v 10.437141 15.134800 1.609640
v 10.440168 15.395156 1.776636
v -14.556673 10.557001 -1.681833
v -14.343178 14.860345 0.109065
v -13.778477 10.547969 1.699336
v -13.730625 14.662593 1.699336
v 8.789687 14.719891 -1.580597
v 8.794485 15.132521 1.696046
v 4.675092 14.767733 -1.580597
v 4.679890 15.180363 1.696046
v -14.528476 10.641231 -1.514612
v -14.315466 14.911860 0.276285
v -13.787999 10.632565 1.770029
v -13.740516 14.714596 1.770029
v 8.705521 14.748040 -1.413375
v 8.709297 15.072876 1.733824
v 4.623512 14.795503 -1.413375
v 4.627289 15.120339 1.733824
v -14.455603 5.195188 -0.067659
v -14.385533 11.216304 -0.067659
v -14.119056 5.191159 1.587214
v -13.899082 5.188718 1.734561
v -14.011019 11.212031 1.612715
v -13.829016 11.209957 1.734492
v -14.056923 10.551266 1.531157
v -13.968424 14.665277 1.555842
v -14.426916 5.318478 0.099562
v -14.357455 11.291988 0.099562
v -14.153718 5.315183 1.632502
v -13.914582 5.312497 1.803896
v -14.047523 11.288326 1.658953
v -13.845126 11.286006 1.803896
v -14.088050 10.636105 1.577551
v -14.000894 14.717647 1.603034
v -14.555580 -9.999999 -1.681848
v -14.342079 -5.696659 0.109049
v -13.777379 -10.009032 1.699320
v -13.729527 -5.894413 1.699320
v -14.415807 8.615232 -1.587205
v -14.003209 8.610349 1.689440
v -14.367956 12.729733 -1.587205
v -13.955358 12.724971 1.689440
v -14.527383 -9.915772 -1.514627
v -14.314367 -5.645145 0.276270
v -13.786905 -9.924438 1.770014
v -13.739412 -5.842411 1.770014
v -14.387610 8.699339 -1.419984
v -14.062777 8.695553 1.727217
v -14.340127 12.781368 -1.419984
v -14.015294 12.777583 1.727217
v -14.055824 -10.005737 1.531142
v -13.967320 -5.891727 1.555827
v -13.827918 -9.347046 1.734476
v -14.454505 -15.361817 -0.067674
v -13.897985 -15.368409 1.734545
v -14.117957 -15.365847 1.587199
v -14.384435 -9.340698 -0.067674
v -14.009925 -9.344972 1.612700
v -14.086951 -9.920898 1.577536
v -13.999790 -5.839359 1.603018
v -13.844028 -9.270997 1.803881
v -14.425817 -15.238526 0.099547
v -13.913489 -15.244509 1.803881
v -14.152625 -15.241824 1.632487
v -14.356361 -9.265015 0.099547
v -14.046425 -9.268677 1.658938
v -13.954259 -7.832031 1.689425
v -14.414708 -11.941773 -1.587221
v -14.366858 -7.827271 -1.587221
v -14.002111 -11.946656 1.689425
v -13.827918 1.212520 1.734476
v -14.454500 -4.802251 -0.067674
v -13.897986 -4.808842 1.734545
v -14.384435 1.218868 -0.067674
v -14.014200 -7.779418 1.727202
v -14.386513 -11.857664 -1.420000
v -14.339024 -7.775636 -1.420000
v -14.061684 -11.861451 1.727202
v -13.844028 1.288571 1.803881
v -14.425814 -4.678960 0.099547
v -13.913489 -4.684940 1.803881
v -14.356362 1.294552 0.099547
v -14.117956 -4.806157 1.587199
v -14.009926 1.214596 1.612700
v -13.729404 5.319761 1.699320
v -14.555458 1.214169 -1.681848
v -13.777257 1.205137 1.699320
v -14.055819 1.208431 1.531142
v -14.342073 5.517514 0.109049
v -13.967198 5.322445 1.555827
v -14.152625 -4.682255 1.632487
v -14.046420 1.290891 1.658938
v -13.739411 5.371762 1.770014
v -14.527376 1.298398 -1.514627
v -13.786774 1.289731 1.770014
v -14.086950 1.293271 1.577536
v -14.314241 5.569028 0.276270
v -13.999669 5.374814 1.603018
vt 2.000007 1.868324
vt 1.000007 1.891108
vt 1.001709 1.874074
vt 2.001710 1.892521
vt 2.000007 1.007857
vt 1.000007 1.007857
vt 2.000007 1.842351
vt 2.000007 2.000000
vt 1.000007 1.866646
vt 1.000007 2.000000
vt 1.001709 1.007857
vt 2.001710 1.007857
vt 1.001709 1.854012
vt 1.001709 2.000000
vt 2.001710 1.873344
vt 2.001710 2.000000
vn 0.014929 -0.988015 0.153632
vn -0.005875 -0.976729 0.214399
vn 0.000972 -0.825940 0.563758
vn -0.005986 -0.516858 0.856050
vn -0.013886 -0.808707 0.588048
vn -0.006006 -0.516552 0.856235
vn 0.009732 -0.989963 0.140989
vn -0.008220 -0.980116 0.198255
vn -0.001192 -0.837853 0.545895
vn -0.006275 -0.539862 0.841730
vn -0.014041 -0.823280 0.567462
vn -0.006277 -0.539836 0.841747
vn -0.011393 -0.979878 0.199271
vn -0.015688 -0.976624 0.214384
vn -0.010159 -0.830557 0.556841
vn -0.006468 -0.556456 0.830852
vn -0.012406 -0.824151 0.566234
vn -0.006483 -0.555981 0.831170
vn -0.011565 -0.994648 0.102675
vn -0.011565 -0.994648 0.102676
vn -0.011565 -0.994648 0.102676
vn -0.011565 -0.994648 0.102676
vn -0.011446 -0.984415 0.175487
vn -0.015745 -0.981301 0.191834
vn -0.010291 -0.845805 0.533392
vn -0.006762 -0.582545 0.812770
vn -0.012531 -0.839447 0.543296
vn -0.006771 -0.582318 0.812933
vn 0.014929 -0.988015 0.153632
vn -0.005875 -0.976728 0.214399
vn 0.000972 -0.825940 0.563758
vn -0.005986 -0.516858 0.856050
vn -0.013886 -0.808707 0.588047
vn -0.006006 -0.516553 0.856234
vn -0.011536 -0.992096 0.124952
vn -0.011536 -0.992096 0.124952
vn -0.011536 -0.992096 0.124952
vn -0.011535 -0.992096 0.124952
vn 0.009732 -0.989963 0.140989
vn -0.008220 -0.980116 0.198255
vn -0.001192 -0.837853 0.545895
vn -0.006275 -0.539862 0.841730
vn -0.014041 -0.823280 0.567462
vn -0.006277 -0.539836 0.841747
vn -0.988013 -0.014927 0.153649
vn -0.976728 0.005873 0.214403
vn -0.516928 0.005985 0.856008
vn -0.516591 0.006008 0.856211
vn -0.011535 -0.992096 0.124952
vn -0.011535 -0.992096 0.124952
vn -0.011535 -0.992096 0.124952
vn -0.011535 -0.992096 0.124952
vn -0.989963 -0.009746 0.140987
vn -0.980112 0.008213 0.198275
vn -0.539874 0.006274 0.841723
vn -0.539802 0.006279 0.841768
vn -0.011565 -0.994648 0.102676
vn -0.011565 -0.994648 0.102676
vn -0.011565 -0.994648 0.102676
vn -0.011565 -0.994648 0.102676
vn -0.979872 0.011403 0.199302
vn -0.976625 0.015688 0.214378
vn -0.830576 0.010163 0.556812
vn -0.556452 0.006466 0.830855
vn -0.824157 0.012402 0.566226
vn -0.556031 0.006480 0.831136
vn -0.825946 -0.000972 0.563748
vn -0.808703 0.013884 0.588053
vn -0.984419 0.011447 0.175466
vn -0.981309 0.015740 0.191792
vn -0.845809 0.010289 0.533386
vn -0.582478 0.006757 0.812818
vn -0.839404 0.012527 0.543364
vn -0.582167 0.006769 0.813041
vn -0.837844 0.001185 0.545908
vn -0.823262 0.014041 0.567488
vn -0.988012 -0.014926 0.153651
vn -0.976727 0.005874 0.214406
vn -0.516930 0.005986 0.856007
vn -0.516598 0.006008 0.856207
vn -0.992097 0.011538 0.124943
vn -0.992097 0.011538 0.124943
vn -0.992097 0.011538 0.124943
vn -0.992097 0.011538 0.124943
vn -0.989963 -0.009745 0.140989
vn -0.980111 0.008214 0.198278
vn -0.539879 0.006274 0.841719
vn -0.539803 0.006280 0.841768
vn -0.994648 0.011570 0.102675
vn -0.994648 0.011570 0.102675
vn -0.994648 0.011570 0.102675
vn -0.994648 0.011570 0.102675
vn -0.825946 -0.000971 0.563748
vn -0.808705 0.013885 0.588050
vn -0.556023 0.006480 0.831142
vn -0.979872 0.011403 0.199302
vn -0.556452 0.006466 0.830855
vn -0.830543 0.010162 0.556862
vn -0.976625 0.015687 0.214376
vn -0.824155 0.012402 0.566229
vn -0.837846 0.001186 0.545906
vn -0.823261 0.014042 0.567489
vn -0.582167 0.006770 0.813041
vn -0.984420 0.011446 0.175463
vn -0.582478 0.006757 0.812818
vn -0.845810 0.010289 0.533385
vn -0.981309 0.015741 0.191794
vn -0.839403 0.012528 0.543365
vn -0.992097 0.011538 0.124943
vn -0.992097 0.011538 0.124942
vn -0.992097 0.011538 0.124943
vn -0.992097 0.011538 0.124943
vn -0.556021 0.006480 0.831143
vn -0.979872 0.011402 0.199299
vn -0.556453 0.006466 0.830854
vn -0.976625 0.015687 0.214375
vn -0.994648 0.011570 0.102672
vn -0.994648 0.011571 0.102674
vn -0.994648 0.011571 0.102673
vn -0.994648 0.011571 0.102673
vn -0.582178 0.006770 0.813033
vn -0.984420 0.011445 0.175460
vn -0.582478 0.006758 0.812818
vn -0.981308 0.015742 0.191797
vn -0.830515 0.010161 0.556903
vn -0.824155 0.012402 0.566229
vn -0.516599 0.006008 0.856207
vn -0.988018 -0.014938 0.153616
vn -0.516778 0.005996 0.856098
vn -0.825901 -0.000967 0.563815
vn -0.976720 0.005886 0.214439
vn -0.808675 0.013900 0.588091
vn -0.845811 0.010289 0.533384
vn -0.839405 0.012529 0.543362
vn -0.539980 0.006265 0.841655
vn -0.989964 -0.009717 0.140987
vn -0.539729 0.006285 0.841815
vn -0.837795 0.001208 0.545984
vn -0.980111 0.008242 0.198278
vn -0.823310 0.014050 0.567418
g fff002fb_00037_000fb50b_e29
f 6/16/6 5/4/5 4/14/4
f 3/3/3 2/12/2 1/11/1
f 5/4/5 3/3/3 4/14/4
f 5/4/5 2/12/2 3/3/3
f 18/10/18 17/2/17 16/8/16
f 15/1/15 14/6/14 13/5/13
f 17/2/17 15/1/15 16/8/16
f 17/2/17 14/6/14 15/1/15
f 38/10/38 37/6/37 36/8/36
f 36/8/36 37/6/37 35/5/35
f 132/4/132 131/12/131 130/3/130
f 132/4/132 130/3/130 129/14/129
f 130/3/130 131/12/131 128/11/128
f 127/16/127 132/4/132 129/14/129
f 126/2/126 116/6/116 125/1/125
f 126/2/126 125/1/125 115/8/115
f 125/1/125 116/6/116 114/5/114
f 113/10/113 126/2/126 115/8/115
f 112/8/112 111/6/111 110/5/110
f 109/10/109 111/6/111 112/8/112
f 100/2/100 99/6/99 98/1/98
f 100/2/100 98/1/98 97/8/97
f 98/1/98 99/6/99 96/5/96
f 95/10/95 100/2/100 97/8/97
f 34/16/34 33/4/33 32/14/32
f 31/3/31 30/12/30 29/11/29
f 33/4/33 31/3/31 32/14/32
f 33/4/33 30/12/30 31/3/31
f 52/10/52 51/6/51 50/8/50
f 50/8/50 51/6/51 49/5/49
f 48/16/48 68/4/68 47/14/47
f 67/3/67 46/12/46 45/11/45
f 68/4/68 67/3/67 47/14/47
f 68/4/68 46/12/46 67/3/67
f 66/10/66 65/2/65 64/8/64
f 63/1/63 62/6/62 61/5/61
f 65/2/65 63/1/63 64/8/64
f 65/2/65 62/6/62 63/1/63
f 84/10/84 83/6/83 82/8/82
f 82/8/82 83/6/83 81/5/81
f 80/16/80 94/4/94 79/14/79
f 93/3/93 78/12/78 77/11/77
f 94/4/94 93/3/93 79/14/79
f 94/4/94 78/12/78 93/3/93
g fff002fb_00037_000fb50b_e39
f 12/16/12 11/15/11 10/14/10
f 9/13/9 8/12/8 7/11/7
f 11/15/11 9/13/9 10/14/10
f 11/15/11 8/12/8 9/13/9
f 28/10/28 27/9/27 26/8/26
f 25/7/25 24/6/24 23/5/23
f 27/9/27 25/7/25 26/8/26
f 27/9/27 24/6/24 25/7/25
f 22/10/22 21/6/21 20/8/20
f 20/8/20 21/6/21 19/5/19
f 140/15/140 139/12/139 138/13/138
f 140/15/140 138/13/138 137/14/137
f 138/13/138 139/12/139 136/11/136
f 135/16/135 140/15/140 137/14/137
f 134/9/134 124/6/124 133/7/133
f 134/9/134 133/7/133 123/8/123
f 133/7/133 124/6/124 122/5/122
f 121/10/121 134/9/134 123/8/123
f 120/8/120 119/6/119 118/5/118
f 117/10/117 119/6/119 120/8/120
f 108/9/108 107/6/107 106/7/106
f 108/9/108 106/7/106 105/8/105
f 106/7/106 107/6/107 104/5/104
f 103/10/103 108/9/108 105/8/105
f 44/16/44 43/15/43 42/14/42
f 41/13/41 40/12/40 39/11/39
f 43/15/43 41/13/41 42/14/42
f 43/15/43 40/12/40 41/13/41
f 60/10/60 59/6/59 58/8/58
f 58/8/58 59/6/59 57/5/57
f 56/16/56 76/15/76 55/14/55
f 75/13/75 54/12/54 53/11/53
f 76/15/76 75/13/75 55/14/55
f 76/15/76 54/12/54 75/13/75
f 74/10/74 73/9/73 72/8/72
f 71/7/71 70/6/70 69/5/69
f 73/9/73 71/7/71 72/8/72
f 73/9/73 70/6/70 71/7/71
f 92/10/92 91/6/91 90/8/90
f 90/8/90 91/6/91 89/5/89
f 88/16/88 102/15/102 87/14/87
f 101/13/101 86/12/86 85/11/85
f 102/15/102 101/13/101 87/14/87
f 102/15/102 86/12/86 101/13/101
