# fff0030f_00170_00276a3c
o fff0030f_00170_00276a3c
v 0.044333 1.813787 -1.152290
v -0.040798 -1.824823 -1.152290
v -0.069435 1.812912 -1.152290
v -0.044394 -1.824841 1.152290
v -0.072903 1.835004 1.152290
v 0.072969 -1.823948 -1.152290
v 0.069374 -1.823967 1.152290
v 0.040865 1.835878 1.152290
v -0.221331 1.674839 -1.325699
v -0.192694 -1.962895 -1.325699
v -0.196290 -1.962914 0.978882
v -0.224799 1.696931 0.978882
vt 3.001801 2.082442
vt 2.002747 2.082442
vt 3.001801 1.105824
vt 2.002753 1.105837
vt 3.001828 2.082297
vt 2.002775 2.082297
vt 3.001828 1.105679
vt 2.002775 1.105679
vn 0.999968 0.007819 0.001476
vn 0.999968 0.007872 0.001560
vn 0.999968 0.007819 0.001476
vn 0.999968 0.007842 0.001513
vn 0.999969 0.007789 0.001430
vn 0.999968 0.007872 0.001560
vn 0.999968 0.007842 0.001513
vn 0.999969 0.007789 0.001430
vn 0.999968 0.007819 0.001476
vn 0.999968 0.007872 0.001560
vn 0.999968 0.007842 0.001513
vn 0.999969 0.007789 0.001430
g fff0030f_00170_00276a3c_e0
f 8/1/8 7/2/7 1/3/1
f 6/4/6 1/3/1 7/2/7
f 5/5/5 4/6/4 3/7/3
f 2/8/2 3/7/3 4/6/4
g fff0030f_00170_00276a3c_e1
f 12/1/12 11/2/11 9/3/9
f 10/4/10 9/3/9 11/2/11
