# fff06920_00112_00197acf
o fff06920_00112_00197acf
v -1.375193 -17.838381 11.006096
v -1.374671 -17.615870 1.671588
v -1.291173 17.933889 2.034381
v -1.291694 17.711386 6.243908
v -1.375193 -17.838381 5.881112
v -1.176747 -18.584402 11.601358
v -1.176747 -18.584402 5.570572
v -1.176164 -18.335691 0.865404
v -1.668754 -8.376744 2.073644
v -1.661262 -5.187299 1.771304
v -1.661890 -5.454910 10.981674
v -1.669294 -8.606532 10.601301
v -1.604352 -17.367205 10.455740
v -1.525182 16.341005 10.784565
v -1.603879 -17.165539 3.070877
v -1.525182 16.341005 3.399696
v -1.525182 16.341005 6.378887
v -1.604352 -17.367205 6.050066
v -1.291694 17.711386 11.368895
v -1.090194 18.266666 11.964966
v -1.089868 18.404995 5.935613
v -1.089386 18.611263 1.230005
v -0.407815 -4.360955 -0.329792
v -0.056956 6.014495 -0.372291
v -1.870093 -4.357524 -0.329792
v -1.519236 6.017929 -0.372291
v -2.096960 6.509408 1.293634
v -0.056209 6.334865 1.573176
v -0.412970 -6.542798 1.615673
v -2.452481 -5.841560 1.336134
v -1.670017 -8.914451 6.614597
v -1.662569 -5.743727 6.572155
v -1.669752 -8.801448 9.133221
v -1.662316 -5.636211 9.159343
v -1.661917 -5.466113 2.913144
v -1.669381 -8.643806 2.934067
v -0.650006 -4.508661 -28.066662
v -0.299918 5.522147 -28.066662
v -0.299923 5.522146 1.373363
v -0.650037 -4.508656 1.373363
v -0.548396 -1.984899 -3.743872
v -0.434726 2.818924 -3.743872
v -1.906999 0.711352 0.142935
v -1.905692 1.267296 0.124083
v -2.184237 1.452898 1.052329
v -2.185755 0.807024 1.032445
v -0.290899 15.598436 9.666838
v -0.284223 18.440947 9.814630
v -0.284223 18.440947 7.245397
v -0.290899 15.598436 7.125285
v -1.946668 -0.204059 0.142935
v -1.945362 0.351885 0.124083
v -2.223907 0.537486 1.052329
v -2.225424 -0.108387 1.032445
v -2.076773 -4.258527 0.104409
v -1.947330 -0.485932 0.124083
v -2.225875 -0.300330 1.052329
v -2.390555 -4.804684 1.003689
v -0.290899 15.598436 1.553329
v -0.284223 18.440945 1.406104
v -0.284223 18.440945 3.968487
v -0.290899 15.598436 4.088143
v -0.341824 2.818706 1.373363
v -0.619644 -1.984731 1.373363
v 23.181318 124.556641 -2.169614
v 23.181967 124.414551 -8.130143
v 23.285429 101.714233 -7.898480
v 23.284782 101.856308 -5.210500
v 23.181318 124.556641 -5.442163
v 23.379347 125.032921 -1.789510
v 23.379347 125.032921 -5.640456
v 23.380070 124.874107 -8.644933
v 22.893074 118.515045 -7.873410
v 22.902357 116.478432 -8.066472
v 22.901577 116.649307 -2.185208
v 22.892405 118.661766 -2.428096
v 22.952425 124.255875 -2.521043
v 23.050526 102.731476 -2.311072
v 22.953012 124.127090 -7.236630
v 23.050526 102.731476 -7.026664
v 23.050526 102.731476 -5.124307
v 22.952425 124.255875 -5.334275
v 23.284782 101.856308 -1.937949
v 23.486595 101.501648 -1.557328
v 23.486998 101.413322 -5.407361
v 23.487597 101.281609 -8.412118
v 24.156265 115.950211 -9.408120
v 24.512949 109.324821 -9.435258
v 22.693991 115.948654 -9.408120
v 23.050674 109.323265 -9.435258
v 22.473228 109.009682 -8.371484
v 24.513874 109.120239 -8.192986
v 24.149883 117.343430 -8.165847
v 22.110771 116.896545 -8.344346
v 22.891506 118.858398 -4.973794
v 22.900736 116.833733 -5.000896
v 22.891838 118.786232 -3.365533
v 22.901049 116.765076 -3.348853
v 22.901545 116.656456 -7.337350
v 22.892296 118.685577 -7.323991
v 23.913990 116.044632 -27.119434
v 24.269712 109.639305 -27.119434
v 24.269707 109.639305 -8.320573
v 23.913960 116.044632 -8.320573
v 24.017017 114.433037 -11.588174
v 24.133387 111.365517 -11.588174
v 22.659933 112.711952 -9.106263
v 22.661552 112.356949 -9.118302
v 22.383112 112.238564 -8.525567
v 22.381229 112.650986 -8.538270
v 24.284389 103.205101 -3.024795
v 24.292662 101.390015 -2.930423
v 24.292662 101.390015 -4.571000
v 24.284389 103.205101 -4.647696
v 22.619749 113.296501 -9.106263
v 22.621368 112.941505 -9.118302
v 22.342926 112.823105 -8.525567
v 22.341047 113.235527 -8.538270
v 22.487368 115.885536 -9.130864
v 22.618931 113.476494 -9.118302
v 22.340490 113.358093 -8.525567
v 22.173279 116.234421 -8.556626
v 24.284389 103.205101 -8.205657
v 24.292662 101.390015 -8.299668
v 24.292662 101.390015 -6.663465
v 24.284389 103.205101 -6.587058
v 24.226286 111.365608 -8.320573
v 23.945768 114.432968 -8.320573
v 33.210423 226.492310 -46.669712
v 33.211033 226.367111 -51.921989
v 33.308159 206.364136 -51.717854
v 33.307549 206.489319 -49.349270
v 33.210423 226.492310 -49.553406
v 33.408585 226.912048 -46.334774
v 33.408585 226.912048 -49.728138
v 33.409260 226.772110 -52.375610
v 32.920490 221.168518 -51.695763
v 32.929207 219.373901 -51.865887
v 32.928471 219.524460 -46.683456
v 32.919865 221.297791 -46.897480
v 32.981445 226.227203 -46.979385
v 33.073536 207.260437 -46.794365
v 32.981998 226.113724 -51.134647
v 33.073536 207.260437 -50.949631
v 33.073536 207.260437 -49.273319
v 32.981445 226.227203 -49.458340
v 33.307549 206.489319 -46.465576
v 33.509262 206.176865 -46.130180
v 33.509644 206.099030 -49.522739
v 33.510204 205.982971 -52.170460
v 34.182964 218.908783 -53.048115
v 34.537800 213.070755 -53.072025
v 32.720692 218.906998 -53.048115
v 33.075523 213.068970 -53.072025
v 32.497993 212.792480 -52.134655
v 34.538666 212.890488 -51.977367
v 34.176971 220.136459 -51.953453
v 32.137737 219.742111 -52.110741
v 32.919018 221.471069 -49.140690
v 32.927685 219.686981 -49.164570
v 32.919331 221.407471 -47.723530
v 32.927979 219.626480 -47.708832
v 32.928444 219.530762 -51.223400
v 32.919758 221.318787 -51.211628
v 33.940716 218.991913 -68.654892
v 34.294651 213.347794 -68.654892
v 34.294643 213.347794 -52.089794
v 33.940685 218.991913 -52.089794
v 34.043293 217.571854 -54.969124
v 34.158810 214.868851 -54.969124
v 32.685730 216.054901 -52.782124
v 32.687248 215.742065 -52.792732
v 32.408779 215.637680 -52.270428
v 32.407009 216.001083 -52.281624
v 34.307533 207.678131 -47.423279
v 34.315300 206.078720 -47.340118
v 34.315300 206.078720 -48.785759
v 34.307533 207.678131 -48.853344
v 32.645710 216.569977 -52.782124
v 32.647228 216.257156 -52.792732
v 32.368755 216.152740 -52.270428
v 32.366993 216.516174 -52.281624
v 32.514053 218.851334 -52.803802
v 32.644939 216.728577 -52.792732
v 32.366470 216.624176 -52.270428
v 32.200058 219.158676 -52.297798
v 34.307533 207.678131 -51.988533
v 34.315300 206.078720 -52.071373
v 34.315300 206.078720 -50.629589
v 34.307533 207.678131 -50.562263
v 34.251709 214.868958 -52.089794
v 33.972046 217.571762 -52.089794
vt 9.034739 13.964665
vt 3.350082 13.964666
vt 9.020812 13.964665
vt 3.336159 13.964666
vt 1.996752 1.428119
vt 1.042036 1.428119
vt 1.994842 1.428119
vt 1.042036 1.428119
vt 1.042036 1.976134
vt 1.996752 1.976134
vt 1.042036 1.428119
vt 1.042036 1.428119
vt 1.042036 1.976134
vt 1.996752 1.428119
vt 1.996752 1.976134
vt 1.994842 1.428119
vt 1.328814 1.688704
vt 1.328814 1.688704
vt 1.328814 1.688704
vt 1.328814 1.688704
vt 1.042036 1.428119
vt 1.042036 1.428119
vt 1.042036 1.976134
vt 1.042036 1.428119
vt 1.042036 1.428119
vt 1.042036 1.976134
vt 3.336159 13.964666
vt 3.350082 13.964666
vt 9.034739 13.964665
vt 9.020812 13.964665
vt 1.328814 1.688704
vt 1.328814 1.688704
vt 1.328814 1.688704
vt 1.328814 1.688704
vt 1.328814 1.688704
vt 1.328814 1.688704
vt 1.328814 1.688704
vt 1.328814 1.688704
vt 6.424615 13.964665
vt 6.424615 13.964665
vt 1.996752 1.988981
vt 1.487976 2.003973
vt 1.487484 1.443111
vt 1.995797 1.428119
vt 1.840538 1.125883
vt 0.702153 1.044345
vt 2.072233 1.044293
vt 1.842886 1.280878
vt 0.702153 1.368222
vt 2.085280 1.368170
vt 2.083330 1.280975
vt 2.076574 1.125773
vn -0.999997 0.002349 0.000000
vn -0.999997 0.002349 0.000000
vn -0.999997 0.002349 0.000000
vn -0.999997 0.002349 0.000000
vn -0.999997 0.002349 0.000000
vn -0.999997 0.002349 0.000000
vn -0.999997 0.002349 0.000000
vn -0.999997 0.002349 0.000000
vn -0.999997 0.002349 0.000000
vn -0.999997 0.002349 0.000000
vn -0.999997 0.002349 -0.000000
vn -0.999997 0.002349 -0.000000
vn -0.999997 0.002349 0.000000
vn -0.999997 0.002349 0.000000
vn -0.999997 0.002349 0.000000
vn -0.999997 0.002349 0.000000
vn -0.999997 0.002349 0.000000
vn -0.999997 0.002349 0.000000
vn -0.999997 0.002349 0.000000
vn -0.999997 0.002349 -0.000000
vn -0.999997 0.002349 0.000000
vn -0.999997 0.002349 0.000001
vn -0.001561 -0.665516 -0.746382
vn 0.059851 0.974509 -0.216218
vn -0.698367 -0.361379 -0.617810
vn -0.618243 0.670345 -0.410383
vn -0.651439 0.660246 0.373768
vn -0.033086 0.720615 0.692546
vn -0.294258 -0.875040 0.384341
vn -0.733354 -0.628027 0.260336
vn -0.999997 0.002349 0.000000
vn -0.999997 0.002349 0.000000
vn -0.999997 0.002349 0.000000
vn -0.999997 0.002349 -0.000000
vn -0.999997 0.002349 0.000000
vn -0.999997 0.002349 0.000000
vn -0.999379 0.035233 0.000519
vn -0.999402 0.034585 0.000100
vn -0.999580 0.026124 0.012532
vn -0.999746 0.020272 -0.009859
vn -0.999467 0.032566 -0.002092
vn -0.999317 0.036939 0.000833
vn -0.954452 -0.007872 -0.298261
vn -0.955494 -0.000817 -0.295008
vn -0.957130 0.011159 -0.289444
vn -0.956306 0.004973 -0.292324
vn -0.999997 0.002349 0.000000
vn -0.999997 0.002349 0.000000
vn -0.999997 0.002349 0.000000
vn -0.999997 0.002349 0.000000
vn -0.954452 -0.007872 -0.298261
vn -0.955494 -0.000818 -0.295008
vn -0.957130 0.011158 -0.289444
vn -0.956306 0.004972 -0.292324
vn -0.949902 0.034213 -0.310668
vn -0.954379 0.037615 -0.296219
vn -0.954989 0.038091 -0.294186
vn -0.950997 0.035029 -0.307210
vn -0.999997 0.002349 0.000000
vn -0.999997 0.002349 0.000000
vn -0.999997 0.002349 0.000000
vn -0.999997 0.002349 0.000000
vn -0.999715 0.015495 0.018150
vn -0.999831 0.012040 -0.013921
vn -0.999990 -0.004558 0.000000
vn -0.999990 -0.004558 -0.000000
vn -0.999990 -0.004558 0.000000
vn -0.999990 -0.004558 0.000000
vn -0.999990 -0.004558 -0.000000
vn -0.999990 -0.004558 0.000000
vn -0.999990 -0.004558 0.000000
vn -0.999990 -0.004558 0.000000
vn -0.999990 -0.004558 -0.000002
vn -0.999990 -0.004558 -0.000002
vn -0.999990 -0.004558 0.000001
vn -0.999990 -0.004557 -0.000000
vn -0.999990 -0.004558 0.000000
vn -0.999990 -0.004558 0.000000
vn -0.999990 -0.004558 -0.000000
vn -0.999990 -0.004558 -0.000000
vn -0.999990 -0.004558 0.000000
vn -0.999990 -0.004558 -0.000000
vn -0.999990 -0.004558 0.000000
vn -0.999990 -0.004558 0.000000
vn -0.999990 -0.004558 0.000000
vn -0.999990 -0.004558 0.000000
vn -0.000708 0.665515 -0.746384
vn 0.046604 -0.978576 -0.200540
vn -0.614030 0.363406 -0.700644
vn -0.531787 -0.690921 -0.489725
vn -0.682990 -0.642681 0.347110
vn -0.018088 -0.743254 0.668765
vn -0.180674 0.897104 0.403190
vn -0.725296 0.640907 0.251362
vn -0.999990 -0.004558 0.000001
vn -0.999990 -0.004558 0.000000
vn -0.999990 -0.004558 0.000000
vn -0.999990 -0.004557 0.000000
vn -0.999990 -0.004558 -0.000001
vn -0.999990 -0.004558 -0.000001
vn -0.998430 -0.056002 0.000812
vn -0.998487 -0.054989 0.000156
vn -0.998935 -0.041768 0.019609
vn -0.999349 -0.032615 -0.015433
vn -0.998651 -0.051830 -0.003276
vn -0.998278 -0.058644 0.001303
vn -0.898154 0.010809 -0.439547
vn -0.900192 0.000870 -0.435493
vn -0.903639 -0.017306 -0.427945
vn -0.902032 -0.008599 -0.431583
vn -0.999990 -0.004557 0.000000
vn -0.999990 -0.004557 0.000000
vn -0.999990 -0.004557 0.000000
vn -0.999990 -0.004557 0.000000
vn -0.898156 0.010810 -0.439545
vn -0.900192 0.000873 -0.435492
vn -0.903638 -0.017298 -0.427947
vn -0.902032 -0.008593 -0.431583
vn -0.888900 -0.050919 -0.455262
vn -0.897879 -0.056161 -0.436645
vn -0.899213 -0.056959 -0.433788
vn -0.891201 -0.052242 -0.450591
vn -0.999990 -0.004557 0.000000
vn -0.999990 -0.004557 0.000000
vn -0.999990 -0.004557 0.000000
vn -0.999990 -0.004557 0.000000
vn -0.999280 -0.025134 0.028411
vn -0.999568 -0.019728 -0.021796
vn -0.999988 -0.004856 0.000000
vn -0.999988 -0.004856 -0.000001
vn -0.999988 -0.004856 -0.000001
vn -0.999988 -0.004856 -0.000001
vn -0.999988 -0.004856 -0.000001
vn -0.999988 -0.004855 0.000000
vn -0.999988 -0.004855 0.000001
vn -0.999988 -0.004856 0.000002
vn -0.999988 -0.004856 -0.000005
vn -0.999988 -0.004858 -0.000002
vn -0.999988 -0.004853 -0.000003
vn -0.999988 -0.004855 0.000000
vn -0.999988 -0.004855 0.000000
vn -0.999988 -0.004855 0.000000
vn -0.999988 -0.004855 -0.000001
vn -0.999988 -0.004855 -0.000000
vn -0.999988 -0.004855 0.000000
vn -0.999988 -0.004855 -0.000001
vn -0.999988 -0.004856 0.000000
vn -0.999988 -0.004856 -0.000001
vn -0.999988 -0.004856 0.000000
vn -0.999988 -0.004856 0.000001
vn -0.000813 0.665513 -0.746386
vn 0.043261 -0.979519 -0.196647
vn -0.584191 0.364748 -0.725038
vn -0.501485 -0.697538 -0.511813
vn -0.692548 -0.638620 0.335472
vn -0.015022 -0.748413 0.663063
vn -0.156682 0.899581 0.407683
vn -0.727979 0.639939 0.246019
vn -0.999988 -0.004858 0.000001
vn -0.999988 -0.004857 0.000001
vn -0.999988 -0.004856 0.000002
vn -0.999988 -0.004855 -0.000001
vn -0.999988 -0.004858 -0.000001
vn -0.999988 -0.004857 -0.000002
vn -0.998000 -0.063211 0.000921
vn -0.998072 -0.062063 0.000177
vn -0.998644 -0.047071 0.022246
vn -0.999173 -0.036692 -0.017510
vn -0.998282 -0.058479 -0.003717
vn -0.997806 -0.066195 0.001479
vn -0.874156 0.012221 -0.485491
vn -0.876532 0.001464 -0.481341
vn -0.880691 -0.018872 -0.473316
vn -0.878818 -0.009451 -0.477063
vn -0.999988 -0.004856 0.000000
vn -0.999988 -0.004856 0.000000
vn -0.999988 -0.004856 0.000000
vn -0.999988 -0.004856 0.000000
vn -0.874159 0.012222 -0.485486
vn -0.876533 0.001470 -0.481339
vn -0.880689 -0.018852 -0.473319
vn -0.878818 -0.009438 -0.477064
vn -0.863214 -0.055841 -0.501740
vn -0.873798 -0.061727 -0.482355
vn -0.875431 -0.062655 -0.479264
vn -0.865984 -0.057360 -0.496771
vn -0.999988 -0.004856 0.000000
vn -0.999988 -0.004856 0.000000
vn -0.999988 -0.004856 0.000000
vn -0.999988 -0.004856 0.000000
vn -0.999082 -0.028199 0.032236
vn -0.999450 -0.022070 -0.024731
g fff06920_00112_00197acf_e1
f 52/40/52 51/39/51 54/39/54
f 22/25/22 8/16/8 7/15/7
f 31/31/31 33/33/33 32/32/32
f 6/14/6 20/24/20 7/15/7
f 5/15/5 4/13/4 3/12/3
f 3/11/3 2/16/2 5/15/5
f 4/23/4 5/15/5 19/22/19
f 1/14/1 19/21/19 5/15/5
f 18/10/18 17/9/17 16/8/16
f 16/8/16 15/7/15 18/10/18
f 17/9/17 18/10/18 14/6/14
f 13/5/13 14/6/14 18/10/18
f 61/42/61 60/43/60 62/41/62
f 59/44/59 62/41/62 60/43/60
f 12/20/12 11/19/11 34/34/34
f 10/18/10 9/17/9 36/38/36
f 20/24/20 21/26/21 7/15/7
f 32/32/32 33/33/33 34/34/34
f 12/20/12 34/34/34 33/33/33
f 21/26/21 22/25/22 7/15/7
f 10/18/10 36/38/36 35/35/35
f 36/38/36 31/36/31 35/35/35
f 35/35/35 31/36/31 32/37/32
f 54/39/54 53/40/53 52/40/52
f 49/42/49 50/41/50 48/43/48
f 47/44/47 48/43/48 50/41/50
f 44/40/44 43/39/43 46/39/46
f 46/39/46 45/40/45 44/40/44
f 56/40/56 55/39/55 58/39/58
f 58/39/58 57/40/57 56/40/56
f 116/40/116 118/39/118 115/39/115
f 86/25/86 71/15/71 72/16/72
f 95/31/95 96/32/96 97/33/97
f 70/14/70 71/15/71 84/24/84
f 69/15/69 67/12/67 68/13/68
f 67/11/67 69/15/69 66/16/66
f 68/23/68 83/22/83 69/15/69
f 65/14/65 69/15/69 83/21/83
f 82/10/82 80/8/80 81/9/81
f 80/8/80 82/10/82 79/7/79
f 81/9/81 78/6/78 82/10/82
f 77/5/77 82/10/82 78/6/78
f 125/42/125 126/41/126 124/43/124
f 123/44/123 124/43/124 126/41/126
f 76/20/76 98/34/98 75/19/75
f 74/18/74 100/38/100 73/17/73
f 84/24/84 71/15/71 85/26/85
f 96/32/96 98/34/98 97/33/97
f 76/20/76 97/33/97 98/34/98
f 85/26/85 71/15/71 86/25/86
f 74/18/74 99/35/99 100/38/100
f 100/38/100 99/35/99 95/36/95
f 99/35/99 96/37/96 95/36/95
f 118/39/118 116/40/116 117/40/117
f 113/42/113 112/43/112 114/41/114
f 111/44/111 114/41/114 112/43/112
f 108/40/108 110/39/110 107/39/107
f 110/39/110 108/40/108 109/40/109
f 120/40/120 122/39/122 119/39/119
f 122/39/122 120/40/120 121/40/121
f 180/40/180 182/39/182 179/39/179
f 150/25/150 135/15/135 136/16/136
f 159/31/159 160/32/160 161/33/161
f 134/14/134 135/15/135 148/24/148
f 133/15/133 131/12/131 132/13/132
f 131/11/131 133/15/133 130/16/130
f 132/23/132 147/22/147 133/15/133
f 129/14/129 133/15/133 147/21/147
f 146/10/146 144/8/144 145/9/145
f 144/8/144 146/10/146 143/7/143
f 145/9/145 142/6/142 146/10/146
f 141/5/141 146/10/146 142/6/142
f 189/42/189 190/41/190 188/43/188
f 187/44/187 188/43/188 190/41/190
f 140/20/140 162/34/162 139/19/139
f 138/18/138 164/38/164 137/17/137
f 148/24/148 135/15/135 149/26/149
f 160/32/160 162/34/162 161/33/161
f 140/20/140 161/33/161 162/34/162
f 149/26/149 135/15/135 150/25/150
f 138/18/138 163/35/163 164/38/164
f 164/38/164 163/35/163 159/36/159
f 163/35/163 160/37/160 159/36/159
f 182/39/182 180/40/180 181/40/181
f 177/42/177 176/43/176 178/41/178
f 175/44/175 178/41/178 176/43/176
f 172/40/172 174/39/174 171/39/171
f 174/39/174 172/40/172 173/40/173
f 184/40/184 186/39/186 183/39/183
f 186/39/186 184/40/184 185/40/185
g fff06920_00112_00197acf_e0
f 30/30/30 29/29/29 28/28/28
f 28/28/28 27/27/27 30/30/30
f 30/30/30 27/27/27 26/4/26
f 26/4/26 25/3/25 30/30/30
f 24/2/24 26/4/26 27/27/27
f 27/27/27 28/28/28 24/2/24
f 25/3/25 23/1/23 29/29/29
f 29/29/29 30/30/30 25/3/25
f 94/30/94 92/28/92 93/29/93
f 92/28/92 94/30/94 91/27/91
f 94/30/94 90/4/90 91/27/91
f 90/4/90 94/30/94 89/3/89
f 88/2/88 91/27/91 90/4/90
f 91/27/91 88/2/88 92/28/92
f 89/3/89 93/29/93 87/1/87
f 93/29/93 89/3/89 94/30/94
f 158/30/158 156/28/156 157/29/157
f 156/28/156 158/30/158 155/27/155
f 158/30/158 154/4/154 155/27/155
f 154/4/154 158/30/158 153/3/153
f 152/2/152 155/27/155 154/4/154
f 155/27/155 152/2/152 156/28/156
f 153/3/153 157/29/157 151/1/151
f 157/29/157 153/3/153 158/30/158
g fff06920_00112_00197acf_e2
f 64/52/64 41/45/41 40/47/40
f 41/45/41 42/48/42 38/49/38
f 42/48/42 39/50/39 38/49/38
f 38/49/38 37/46/37 41/45/41
f 42/48/42 63/51/63 39/50/39
f 41/45/41 37/46/37 40/47/40
f 128/52/128 104/47/104 105/45/105
f 105/45/105 102/49/102 106/48/106
f 106/48/106 102/49/102 103/50/103
f 102/49/102 105/45/105 101/46/101
f 106/48/106 103/50/103 127/51/127
f 105/45/105 104/47/104 101/46/101
f 192/52/192 168/47/168 169/45/169
f 169/45/169 166/49/166 170/48/170
f 170/48/170 166/49/166 167/50/167
f 166/49/166 169/45/169 165/46/165
f 170/48/170 167/50/167 191/51/191
f 169/45/169 168/47/168 165/46/165
