# fff034dd_00048_00239cab
o fff034dd_00048_00239cab
v -1.491066 0.031463 0.101753
v -0.069581 0.036316 0.665245
v -0.069581 -0.000000 0.665245
v 0.000008 -0.000000 0.665245
v 0.000008 0.036316 0.665245
v 0.000008 -0.000000 0.039717
v 0.000008 0.036316 0.039717
v -0.069581 -0.000000 0.039717
v -0.069581 0.036316 0.039717
v -1.514854 2.430663 0.125551
v -1.514854 0.031463 0.125551
v -1.467262 0.031463 0.125551
v -1.467262 2.430663 0.125551
v -1.491066 2.430663 0.101753
v -1.491058 2.430663 0.149349
v -1.491058 0.031463 0.149349
v -0.069581 0.036316 0.000000
v -0.069581 -0.000000 0.000000
v -1.543800 -0.002198 0.003407
v -1.543800 0.079919 0.003407
v 0.003612 -0.002197 0.500196
v -0.000000 0.036316 0.000000
v -0.000000 -0.000000 0.000000
v -1.543800 0.079919 0.235561
v -1.543800 -0.002198 0.235561
v 0.003612 0.079919 0.500196
v 0.003612 -0.002197 0.767293
v 0.003612 0.079919 0.767293
v -0.021398 0.047150 0.212493
v -0.021394 2.414397 0.212493
v -1.475285 2.414397 0.175695
v -1.475285 2.414397 0.212493
v -1.475285 0.047149 0.212493
v -1.475285 0.047149 0.175695
v -0.000391 2.414397 0.748554
v -0.000391 0.007660 0.748554
v -0.036125 0.007629 0.202433
v -0.036125 2.414366 0.202433
v -0.036125 2.414366 0.748554
v -0.036125 0.007629 0.748554
v -1.402241 -0.002198 0.003407
v -1.402241 0.079919 0.003407
v -1.543800 -0.002198 0.054479
v -1.543800 0.079919 0.054479
v -1.402241 -0.002198 0.054479
v -1.402241 0.079919 0.054479
v -0.031822 0.056049 0.190456
v -0.031822 0.013991 0.190456
v -0.031822 0.013991 0.520668
v -0.031822 0.056049 0.520668
v -0.985416 0.056049 0.189718
v -0.767622 0.056049 0.403242
v -0.767622 0.004149 0.403242
v -0.985416 0.013991 0.189718
v -0.105747 0.079919 0.767293
v -0.105747 -0.002198 0.767293
v -0.105747 -0.002198 0.500196
v -0.021398 0.057251 0.720588
v -0.021394 2.394698 0.720588
v -1.479343 2.394698 0.194572
v -1.479343 2.394698 0.231370
v -0.943218 0.057251 0.399764
v -0.943218 0.057251 0.362967
v -1.483250 1.263068 0.235562
v -1.483250 1.191795 0.235562
v -0.021396 1.263068 0.745370
v -0.021396 1.191795 0.745370
v -1.483250 1.263068 0.172908
v -1.483250 1.191795 0.172908
v -1.479343 1.243346 0.231370
v -0.943218 1.201873 0.399764
v -0.021396 1.243346 0.720588
v -0.021396 1.201873 0.720588
v -1.479343 1.243346 0.194572
v -0.943218 1.201873 0.362967
v -0.021396 1.263068 0.203496
v -0.021396 1.191795 0.203496
v -1.355972 1.916622 0.275998
v -1.480369 1.955139 0.196684
v -1.480369 1.955139 0.233481
v -1.480369 1.707790 0.233481
v -1.355972 1.746308 0.275998
v -1.480369 1.707790 0.196684
v -1.480369 1.955139 0.233481
v -1.480369 1.707790 0.233481
v -0.819847 0.727597 0.444392
v -0.944243 0.765427 0.365078
v -0.944243 0.766114 0.401875
v -0.944243 0.518765 0.401875
v -0.819847 0.557283 0.444392
v -0.944243 0.518078 0.365078
v -0.944243 0.765427 0.401875
v -0.944243 0.518078 0.401875
v -0.086506 2.323119 0.695464
v -0.086506 1.112983 0.703626
v -0.943218 1.112983 0.399764
v -1.479343 2.323119 0.231370
v -0.086506 0.131797 0.703626
v -0.943218 0.131798 0.399764
v -0.086506 1.330688 0.695464
v -1.479343 1.330688 0.231370
v -0.069596 2.432799 0.665251
v -0.069596 2.396483 0.665251
v -0.000007 2.396483 0.665251
v -0.000007 2.432799 0.665251
v -0.000007 2.396483 0.039722
v -0.000007 2.432799 0.039722
v -0.069596 2.396483 0.039722
v -0.069596 2.432799 0.039722
v -0.069596 2.432799 0.000006
v -0.069596 2.396483 0.000006
v -1.543815 2.363936 0.003413
v -1.543815 2.446052 0.003413
v 0.003597 2.363936 0.500202
v -0.000016 2.432799 0.000006
v -0.000016 2.396483 0.000006
v -1.543815 2.446052 0.235567
v -1.543815 2.363936 0.235567
v 0.003597 2.446052 0.500202
v 0.003597 2.363936 0.767299
v 0.003597 2.446052 0.767299
v -1.402256 2.363936 0.003413
v -1.402256 2.446052 0.003413
v -1.543815 2.363936 0.054484
v -1.543815 2.446052 0.054484
v -1.402256 2.363936 0.054484
v -1.402256 2.446052 0.054484
v -0.031838 2.422182 0.190462
v -0.031838 2.422182 0.520674
v -0.985432 2.422182 0.189724
v -0.767637 2.422182 0.403248
v -0.105763 2.446052 0.767299
v -0.105763 2.363936 0.767299
v -0.105763 2.363936 0.500201
v -0.069596 2.432799 0.665251
v -0.069596 2.432799 0.039722
v -0.069596 2.432799 0.000006
v -1.543815 2.446052 0.003413
v -1.543815 2.446052 0.235567
v 0.003597 2.446052 0.767299
v -1.543815 2.446052 0.054484
v -0.105763 2.446052 0.767299
v -1.543800 0.079919 0.235561
v 0.003612 0.079919 0.767293
v -1.402241 0.079919 0.054479
v -0.105747 0.079919 0.767293
v -1.053883 0.047149 0.212493
v -1.118702 0.047149 0.212493
v -1.053883 2.414397 0.212493
v -1.118702 2.414397 0.212493
vt 72.060570 0.999575
vt 58.413578 1.000000
vt 160.539917 1.000000
vt 167.072037 1.195490
vt 265.757416 12.718367
vt 312.483307 14.690106
vt 102.154198 -0.000000
vt 161.539917 0.000000
vt 18.469013 1.342662
vt 618.994690 26.683649
vt 7.157184 0.400940
vt 7.157184 0.400940
vt -0.241524 1.000001
vt 1.241524 1.000001
vt 1.241524 0.000001
vt -0.241524 0.000001
vt -0.241524 -0.000001
vt -0.241524 0.999999
vt 1.241524 0.999999
vt 1.241524 -0.000001
vt 1.000075 0.000000
vt 0.000077 0.000000
vt 12.852097 0.000000
vt 13.852097 0.000000
vt 7.157184 0.400940
vt 131.123932 -0.000004
vt 161.027740 1.000000
vt 61.783409 0.511750
vt 205.834671 0.556798
vt 161.052094 1.000000
vt 132.570053 0.000000
vt 131.124039 -0.000000
vt 161.027740 1.000000
vt 166.584213 1.195490
vt 138.102173 0.195490
vt 1.000000 1.000000
vt 2.240585 1.000000
vt 2.240585 2.000000
vt 1.000000 2.000000
vt 134.867188 0.000000
vt 127.893860 -0.000004
vt 137.963303 0.189356
vt 74.947372 3.862659
vt 137.018066 0.197100
vt 280.445190 12.582931
vt 139.051437 0.159578
vt 133.682877 0.182945
vt 0.439659 0.493191
vt 61.783409 0.985747
vt 160.553741 1.000000
vt 72.653450 0.985673
vt 161.525818 1.000000
vt 159.987839 0.011014
vt 2.519780 2.088421
vt 2.525760 0.482769
vt 7.157184 0.400940
vt 0.439415 2.079686
vt 1.543818 0.491372
vt 7.157184 0.400940
vt 1.443048 0.488178
vt 7.157184 0.400940
vt 1.566281 2.086972
vt 1.656445 2.087555
vt 7.157184 0.400940
vt 7.157184 0.400940
vt 1.221354 0.489286
vt 1.243818 2.084886
vt 1.269797 0.489044
vt 1.333982 2.085469
vt -1.000000 1.792436
vt -1.000000 0.618850
vt 5.237987 0.618850
vt 8.209014 -1.034808
vt 8.209063 -1.247137
vt -1.038527 -1.247136
vt 5.309035 1.792436
vt -1.038608 -0.925294
vt 7.794874 -0.065439
vt 4.845495 1.640269
vt 8.209040 -1.181470
vt 5.237987 0.618850
vt 7.157184 0.400940
vt -0.999997 1.640269
vt 7.157184 0.400940
vt -1.038563 -0.065439
vt 4.845495 0.535222
vt 7.157184 0.400940
vt -1.000000 0.679727
vt 7.794888 -1.239336
vt 7.157184 0.400940
vt -1.038564 -1.119291
vt 2.523866 0.991377
vt 2.524163 0.911436
vt 0.439595 0.910325
vt 0.439604 0.847840
vn -0.000160 0.000000 -1.000000
vn -0.707107 0.707107 0.000000
vn -0.707107 -0.707107 0.000000
vn 0.000000 -1.000000 0.000000
vn 0.000000 1.000000 0.000000
vn 0.000000 -1.000000 0.000000
vn 0.000000 1.000000 0.000000
vn -0.707107 -0.707107 0.000000
vn -0.707107 0.707107 0.000000
vn -1.000000 0.000000 0.000080
vn -1.000000 0.000000 0.000080
vn 1.000000 0.000000 -0.000080
vn 1.000000 0.000000 -0.000080
vn -0.000160 0.000000 -1.000000
vn -0.000000 0.000000 1.000000
vn 0.000000 0.000000 1.000000
vn -0.707107 0.707107 0.000000
vn -0.707107 -0.707107 0.000000
vn -0.707107 -0.707107 0.000000
vn -0.707107 0.707107 -0.000002
vn 0.000001 -1.000000 0.000000
vn 0.000000 1.000000 0.000000
vn 0.000000 -1.000000 0.000000
vn -0.794714 0.249247 0.553449
vn -0.657536 -0.598296 0.457916
vn -0.000000 1.000000 0.000000
vn 0.000001 -0.707107 0.707107
vn 0.000000 0.000000 1.000000
vn 0.000000 0.000000 1.000000
vn 0.000000 0.000000 1.000000
vn -1.000000 0.000000 0.000000
vn -0.707106 0.000000 0.707107
vn -0.707107 0.000000 0.707106
vn -1.000000 0.000000 0.000000
vn 0.000000 0.000000 1.000000
vn 0.000000 0.000000 1.000000
vn -1.000000 0.000000 0.000000
vn -1.000000 0.000000 0.000000
vn -0.706915 0.000000 0.707299
vn -0.707299 0.000000 0.706915
vn 0.000000 -1.000000 0.000000
vn 0.000001 1.000000 -0.000001
vn -0.707107 -0.707107 0.000000
vn -0.707106 0.707108 -0.000000
vn 0.000000 -1.000000 0.000000
vn 0.000002 1.000000 0.000000
vn 0.000000 1.000000 0.000000
vn 0.000000 -1.000000 0.000000
vn 0.003082 -0.999956 -0.008879
vn 0.000000 1.000000 0.000000
vn 0.000000 1.000000 0.000000
vn 0.000000 1.000000 0.000000
vn 0.024692 -0.997160 -0.071148
vn 0.014095 -0.999076 -0.040613
vn -0.176159 0.000000 0.984362
vn -0.130849 -0.669523 0.731175
vn 0.000000 -1.000000 0.000000
vn -0.295680 -0.037547 0.954549
vn -0.338714 -0.022041 0.940631
vn -1.000000 0.000000 0.000000
vn -0.811226 -0.000829 0.584732
vn -0.815075 0.000000 0.579355
vn -1.000000 0.000000 0.000000
vn -0.653986 0.597078 0.464542
vn -0.653986 -0.597078 0.464543
vn -0.258844 0.618145 0.742224
vn -0.258843 -0.618146 0.742224
vn -0.711831 0.702350 0.000000
vn -0.711832 -0.702350 0.000000
vn -0.811825 0.000000 0.583900
vn -0.816678 0.002300 0.577089
vn -0.335038 0.019919 0.941994
vn -0.297158 0.035588 0.954165
vn -1.000000 0.000000 0.000000
vn -1.000000 0.000000 0.000000
vn 0.000000 1.000000 0.000000
vn 0.000000 -1.000000 0.000000
vn -0.323416 0.000000 0.946257
vn -1.000000 0.000000 0.000000
vn -0.323416 0.000000 0.946257
vn -0.323416 0.000000 0.946257
vn -0.323416 0.000000 0.946257
vn -1.000000 0.000000 0.000000
vn -1.000000 0.000000 0.000000
vn -1.000000 0.000000 0.000000
vn -0.323416 0.000000 0.946257
vn -1.000000 0.000000 0.000000
vn -0.323416 0.000000 0.946257
vn -0.323416 0.000000 0.946257
vn -0.323416 0.000000 0.946257
vn -1.000000 0.000000 0.000000
vn -1.000000 0.000000 0.000000
vn -1.000000 0.000000 0.000000
vn -0.333433 -0.015831 0.942641
vn -0.299932 0.020411 0.953742
vn -0.816786 0.000000 0.576940
vn -0.811207 0.000000 0.584759
vn -0.302887 -0.028368 0.952604
vn -0.815973 -0.001152 0.578088
vn -0.333409 0.013301 0.942688
vn -0.811505 0.000414 0.584345
vn -1.000000 0.000000 0.000000
vn -0.707107 -0.707107 0.000000
vn 0.000000 -1.000000 0.000000
vn 0.000000 1.000000 0.000000
vn 0.000000 -1.000000 0.000000
vn 0.000000 1.000000 0.000000
vn -0.707107 -0.707107 0.000000
vn -1.000000 0.000000 0.000000
vn -1.000000 0.000000 0.000000
vn -0.707107 -0.707107 0.000000
vn -0.707107 -0.707107 0.000000
vn -1.000000 0.000000 0.000000
vn 0.000000 -1.000000 0.000000
vn 0.000000 1.000000 0.000000
vn 0.000000 -1.000000 0.000000
vn -0.820612 0.000000 0.571485
vn -0.657536 -0.598296 0.457917
vn 0.000000 1.000000 -0.000000
vn 0.000000 -0.707107 0.707107
vn 0.000000 0.000000 1.000000
vn 0.000000 -1.000000 0.000000
vn 0.000003 1.000000 0.000000
vn -0.707107 -0.707107 0.000000
vn -1.000000 0.000000 0.000000
vn 0.000000 -1.000000 0.000000
vn 0.000002 1.000000 -0.000001
vn 0.000000 1.000000 0.000000
vn 0.000000 1.000000 0.000000
vn 0.000000 1.000000 0.000000
vn 0.000000 1.000000 0.000000
vn -0.176159 0.000000 0.984362
vn -0.130850 -0.669523 0.731175
vn 0.000000 -1.000000 0.000000
vn 0.000000 1.000000 0.000000
vn 0.000000 1.000000 0.000000
vn 0.000000 1.000000 0.000000
vn 0.000003 1.000000 0.000000
vn 0.000001 1.000000 -0.000001
vn 0.000000 1.000000 0.000000
vn 0.000003 1.000000 0.000000
vn 0.000000 1.000000 0.000000
vn 0.000000 1.000000 -0.000000
vn -0.000001 1.000000 0.000000
vn 0.000000 1.000000 -0.000001
vn -0.000001 1.000000 0.000000
vn 0.000000 0.000000 1.000000
vn 0.000000 0.000000 1.000000
vn 0.000000 0.000000 1.000000
vn 0.000000 0.000000 1.000000
g fff034dd_00048_00239cab_e3
f 79/11/79 85/59/85 84/25/84
f 79/11/79 83/64/83 85/59/85
f 82/73/82 78/74/78 80/75/80
f 81/77/81 82/73/82 80/75/80
f 87/11/87 93/59/93 92/25/92
f 87/11/87 91/64/91 93/59/93
f 90/73/90 86/74/86 88/75/88
f 89/77/89 90/73/90 88/75/88
g fff034dd_00048_00239cab_e0
f 56/51/56 55/49/55 24/28/24
f 27/1/27 55/49/55 56/51/56
f 36/1/36 35/1/35 40/1/40
f 39/1/39 40/1/40 35/1/35
f 67/63/67 64/58/64 65/60/65
f 149/94/149 147/92/147 29/54/29
f 27/1/27 28/2/28 55/49/55
f 64/58/64 67/63/67 66/62/66
f 56/51/56 24/28/24 25/29/25
f 29/54/29 30/57/30 149/94/149
f 133/51/133 132/49/132 117/28/117
f 120/1/120 132/49/132 133/51/133
f 120/1/120 121/2/121 132/49/132
f 133/51/133 117/28/117 118/29/118
f 32/48/32 33/55/33 148/93/148
f 150/95/150 148/93/148 147/92/147
f 148/93/148 150/95/150 32/48/32
f 147/92/147 149/94/149 150/95/150
g fff034dd_00048_00239cab_e2
f 12/16/12 13/15/13 15/14/15
f 56/52/56 45/46/45 57/53/57
f 145/47/145 143/27/143 26/7/26
f 10/17/10 11/20/11 16/19/16
f 51/32/51 52/33/52 47/7/47
f 56/52/56 57/53/57 21/8/21
f 53/34/53 54/35/54 49/4/49
f 65/60/65 77/69/77 67/63/67
f 77/69/77 65/60/65 69/68/69
f 143/27/143 146/50/146 26/7/26
f 25/30/25 45/46/45 56/52/56
f 25/30/25 43/42/43 45/46/45
f 15/14/15 16/13/16 12/16/12
f 16/19/16 15/18/15 10/17/10
f 76/67/76 68/66/68 64/58/64
f 64/58/64 66/62/66 76/67/76
f 7/7/7 9/8/9 2/4/2
f 52/33/52 50/3/50 47/7/47
f 2/4/2 5/3/5 7/7/7
f 54/35/54 48/8/48 49/4/49
f 4/4/4 3/3/3 8/7/8
f 44/44/44 24/27/24 46/47/46
f 8/7/8 6/8/6 4/4/4
f 56/52/56 21/8/21 27/4/27
f 146/50/146 144/3/144 26/7/26
f 133/52/133 126/46/126 134/53/134
f 127/47/127 139/27/139 119/7/119
f 130/32/130 131/33/131 128/7/128
f 133/52/133 134/53/134 114/8/114
f 139/27/139 142/50/142 119/7/119
f 118/30/118 126/46/126 133/52/133
f 118/30/118 124/42/124 126/46/126
f 107/7/107 136/8/136 135/4/135
f 131/33/131 129/3/129 128/7/128
f 135/4/135 105/3/105 107/7/107
f 142/50/142 140/3/140 119/7/119
f 104/4/104 103/3/103 108/7/108
f 141/44/141 139/27/139 127/47/127
f 108/7/108 106/8/106 104/4/104
f 133/52/133 114/8/114 120/4/120
g fff034dd_00048_00239cab_e1
f 14/20/14 13/19/13 12/18/12
f 12/18/12 1/17/1 14/20/14
f 14/16/14 1/15/1 11/14/11
f 37/38/37 39/36/39 38/39/38
f 60/11/60 101/90/101 97/84/97
f 99/87/99 96/82/96 75/65/75
f 25/6/25 24/5/24 44/45/44
f 44/45/44 43/43/43 25/6/25
f 39/36/39 37/38/37 40/37/40
f 11/14/11 10/13/10 14/16/14
f 3/6/3 2/5/2 9/10/9
f 62/56/62 99/87/99 63/12/63
f 63/12/63 99/87/99 75/65/75
f 31/11/31 33/56/33 32/25/32
f 9/10/9 8/9/8 3/6/3
f 33/56/33 31/11/31 34/12/34
f 60/11/60 97/84/97 61/25/61
f 69/65/69 65/61/65 68/64/68
f 64/59/64 68/64/68 65/61/65
f 101/90/101 74/64/74 70/59/70
f 96/82/96 71/61/71 75/65/75
f 60/11/60 74/64/74 101/90/101
f 118/6/118 117/5/117 125/45/125
f 125/45/125 124/43/124 118/6/118
f 103/6/103 102/5/102 109/10/109
f 109/10/109 108/9/108 103/6/103
g fff034dd_00048_00239cab_e8
f 23/21/23 8/7/8 18/22/18
f 8/7/8 23/21/23 6/8/6
f 45/46/45 43/42/43 41/40/41
f 42/41/42 44/44/44 46/47/46
f 9/8/9 7/7/7 22/22/22
f 22/22/22 17/21/17 9/8/9
f 20/26/20 44/44/44 42/41/42
f 43/42/43 19/31/19 41/40/41
f 116/21/116 108/7/108 111/22/111
f 108/7/108 116/21/116 106/8/106
f 126/46/126 124/42/124 122/40/122
f 123/41/123 141/44/141 127/47/127
f 136/8/136 107/7/107 115/22/115
f 115/22/115 137/21/137 136/8/136
f 138/26/138 141/44/141 123/41/123
f 124/42/124 112/31/112 122/40/122
g fff034dd_00048_00239cab_e7
f 18/24/18 9/10/9 17/23/17
f 9/10/9 18/24/18 8/9/8
f 43/43/43 44/45/44 20/10/20
f 20/10/20 19/9/19 43/43/43
f 111/24/111 109/10/109 110/23/110
f 109/10/109 111/24/111 108/9/108
f 124/43/124 125/45/125 113/10/113
f 113/10/113 112/9/112 124/43/124
g fff034dd_00048_00239cab_e29
f 95/79/95 96/83/96 98/86/98
f 72/73/72 59/74/59 94/78/94
f 73/76/73 71/70/71 95/79/95
f 94/78/94 100/89/100 72/73/72
f 94/78/94 59/74/59 61/75/61
f 97/85/97 94/78/94 61/75/61
f 95/79/95 71/70/71 96/83/96
f 73/76/73 95/79/95 58/72/58
f 97/85/97 100/89/100 94/78/94
f 99/88/99 62/71/62 58/81/58
f 58/72/58 95/79/95 98/86/98
f 70/77/70 72/80/72 101/91/101
f 98/86/98 96/83/96 99/88/99
f 97/85/97 101/91/101 100/89/100
f 98/86/98 99/88/99 58/81/58
f 101/91/101 72/80/72 100/89/100
