# fff0ac53_00467_009f64b7
o fff0ac53_00467_009f64b7
v -0.549618 0.512400 -0.929912
v -0.549618 0.512400 -1.027408
v 0.608051 -0.073322 -1.027408
v -0.549618 -0.073322 -1.027408
v -0.549618 -0.073322 -0.929912
v 0.608051 -0.073322 -0.929912
v -0.562405 0.534418 -0.957634
v 0.620853 0.534418 1.283097
v -0.562405 0.534418 1.283097
v 0.620853 -0.095333 1.283097
v 0.620853 -0.095333 -0.957634
v 0.571292 -0.095333 -0.915973
v -0.562405 -0.095325 -0.957634
v -0.562405 -0.095325 1.283097
v -0.512859 -0.095325 -0.915973
v 0.423313 -0.100147 0.434784
v 0.173145 -0.100147 0.434784
v 0.173145 -0.100147 0.556492
v 0.423313 -0.100147 0.556492
v -0.017581 -0.100140 0.008045
v -0.017581 -0.100140 -0.169472
v 0.005467 -0.097393 1.236710
v 0.035717 -0.097393 1.236710
v 0.035717 -0.097393 -0.911247
v 0.005467 -0.097393 -0.911247
v -0.477627 -0.095325 1.200608
v 0.536060 -0.095333 1.200608
v 0.536060 -0.095333 -0.875145
v -0.477627 -0.095325 -0.875145
v 0.571292 -0.095333 1.241436
v -0.512859 -0.095325 1.241436
v -0.052219 -0.100132 -0.169472
v -0.052219 -0.100132 0.008045
vt -4.752611 1.000000
vt -4.752610 1.000000
vt -4.752610 0.000000
vt -4.752611 0.000000
vt 4.262082 -6.298470
vt 4.262082 -5.766249
vt 6.141014 -5.766256
vt 6.141013 -6.298470
vt 6.687940 1.000000
vt 6.733644 1.000000
vt 4.244007 -1.024297
vt 16537.300781 -368957.437500
vt 0.856872 4.896070
vt 6.945216 1.000000
vt -519.765625 11601.044922
vt 0.471897 -106.710777
vt 0.028589 -106.712120
vt 0.028589 -106.712242
vt 0.471653 -106.712242
vt 7.166994 1.000000
vt 7.166986 1.000000
vt 7.166986 -0.000000
vt 7.166994 -0.000000
vt 6.733651 1.000000
vn -1.000000 0.000000 0.000000
vn -1.000000 0.000000 0.000000
vn 0.000000 -1.000000 0.000000
vn -0.707107 -0.707107 0.000000
vn -0.707107 -0.707107 0.000000
vn 0.000000 -1.000000 0.000000
vn -1.000000 0.000000 0.000000
vn 0.000000 0.000000 1.000000
vn -0.707107 0.000000 0.707107
vn -0.000002 -0.707107 0.707106
vn -0.000003 -1.000000 -0.000003
vn -0.000003 -1.000000 -0.000004
vn -0.707108 -0.707106 0.000002
vn -0.577352 -0.577349 0.577350
vn -0.000004 -1.000000 0.000004
vn 0.000000 -1.000000 0.000000
vn 0.000000 -1.000000 0.000000
vn 0.000000 -1.000000 0.000000
vn 0.000000 -1.000000 0.000000
vn -0.000220 -1.000000 0.000000
vn -0.000220 -1.000000 0.000000
vn 0.000000 -1.000000 0.000000
vn 0.000000 -1.000000 0.000000
vn 0.000000 -1.000000 0.000000
vn 0.000000 -1.000000 0.000000
vn -0.000004 -1.000000 -0.000002
vn -0.000005 -1.000000 0.000002
vn -0.000004 -1.000000 -0.000002
vn -0.000005 -1.000000 0.000002
vn -0.000004 -1.000000 0.000004
vn -0.000003 -1.000000 -0.000004
vn -0.000220 -1.000000 0.000000
vn -0.000220 -1.000000 0.000000
g fff0ac53_00467_009f64b7_e12
f 19/19/19 18/18/18 17/17/17
f 17/17/17 16/16/16 19/19/19
g fff0ac53_00467_009f64b7_e9
f 2/4/2 4/3/4 5/2/5
f 5/2/5 1/1/1 2/4/2
g fff0ac53_00467_009f64b7_e10
f 6/9/6 5/14/5 4/13/4
f 4/13/4 3/11/3 6/9/6
f 33/19/33 32/18/32 21/17/21
f 21/17/21 20/16/20 33/19/33
g fff0ac53_00467_009f64b7_e1
f 25/23/25 24/22/24 23/21/23
f 23/21/23 22/20/22 25/23/25
f 26/20/26 27/21/27 30/10/30
f 30/10/30 31/24/31 26/20/26
f 29/23/29 26/20/26 31/24/31
f 31/24/31 15/15/15 29/23/29
f 28/22/28 29/23/29 15/15/15
f 15/15/15 12/12/12 28/22/28
f 27/21/27 28/22/28 12/12/12
f 12/12/12 30/10/30 27/21/27
f 7/4/7 13/3/13 14/2/14
f 14/2/14 9/1/9 7/4/7
g fff0ac53_00467_009f64b7_e2
f 9/8/9 14/7/14 10/6/10
f 10/6/10 8/5/8 9/8/9
g fff0ac53_00467_009f64b7_e0
f 15/15/15 31/24/31 14/14/14
f 14/14/14 13/13/13 15/15/15
f 12/12/12 15/15/15 13/13/13
f 13/13/13 11/11/11 12/12/12
f 30/10/30 12/12/12 11/11/11
f 11/11/11 10/9/10 30/10/30
f 10/9/10 14/14/14 31/24/31
f 31/24/31 30/10/30 10/9/10
f 29/23/29 28/22/28 27/21/27
f 27/21/27 26/20/26 29/23/29
