# fff06058_00012_000cb9ee
o fff06058_00012_000cb9ee
v 3.570345 -5.867998 3.598585
v 3.569366 -6.339403 1.507612
v 3.569366 -6.339403 3.598463
v 3.570345 -5.867998 1.507734
v 3.569366 -6.339417 -2.803177
v 3.570343 -5.868011 -2.803177
v 2.621798 -5.079027 3.598615
v 2.621798 -5.079027 1.324323
v 3.569122 3.953232 3.598707
v 3.569122 3.953232 1.324415
v 3.373323 -5.079027 3.598585
v 3.373323 -5.867998 1.507734
v 3.373323 -5.867998 3.598585
v 3.373323 -5.079027 1.324293
v 3.569122 3.953247 -2.803177
v 3.373322 -5.868011 -2.803177
v 3.373322 -5.079041 -2.803177
v 2.621796 -5.079041 -2.803177
v 3.570101 3.352648 3.598829
v 3.570101 3.352648 1.324537
v 3.373079 3.352648 3.598829
v 3.373079 3.352648 1.324537
v 2.621553 2.939531 3.598860
v 3.373079 2.939531 3.598829
v 3.373079 2.939531 1.324537
v 2.621553 2.939531 1.324568
v 2.621552 2.939545 -2.803177
v 3.373077 2.939545 -2.803177
v 3.373077 3.352661 -2.803177
v 3.570099 3.352661 -2.803177
v 3.231232 -5.208296 3.623134
v 3.231844 3.888777 3.623134
v 3.231844 3.888777 1.230528
v 3.231232 -5.208296 1.230528
v 3.274382 -5.156904 1.279835
v 3.274384 3.022522 -2.803177
v 3.274384 -5.156891 -2.803177
v 3.274382 3.022509 1.279835
v -8.125388 6.668962 2.902281
v -8.125388 -5.350175 2.902281
v -8.125389 6.668945 -2.803177
v 3.274384 -5.868103 -2.803177
v -8.125389 -5.868103 -2.803177
v 3.274384 6.668945 -2.803177
v 2.197365 -6.339403 1.507612
v 2.197365 -6.339403 3.598463
v 2.197365 -6.339417 -2.803177
v -5.529561 -5.868089 3.598570
v -5.530540 -6.339494 1.507597
v -5.530540 -6.339494 3.598448
v -5.529556 -5.868103 1.279831
v -5.530540 -6.339508 -2.803177
v -5.529556 -5.868103 -2.803177
v -10.879539 -6.339493 1.507597
v -10.879539 -6.339493 3.598448
v -10.879539 -6.339508 -2.803177
v 4.102111 -7.258953 7.161730
v 4.102099 4.480080 7.161718
v 4.102102 -7.258961 3.802492
v 4.102099 4.480080 3.802492
v -10.215003 -7.258951 7.161730
v -10.215013 -7.258959 3.802492
v 4.102111 -7.258953 11.087297
v 4.102099 4.480080 11.087286
v -10.215003 -7.258951 11.087297
v -10.215017 -57.450966 7.161669
v -10.215027 -57.450974 3.802431
v -10.215017 -57.450966 11.087236
v -11.949060 -31.479094 3.898134
v -11.949064 -31.479094 1.473833
v -11.949068 -31.479094 -1.065748
v -11.949066 -31.479095 -2.803177
v -11.713900 -31.479094 3.898134
v -11.713900 -31.479094 1.473833
v -11.713905 -31.479095 -2.803177
v -11.713900 -31.149534 3.898134
v -11.713900 -31.149534 1.473833
v -11.713905 -31.149536 -2.803177
v -11.837496 -31.149534 3.898134
v -11.837496 -31.149534 1.473833
v -11.837502 -31.149536 -2.803177
v -11.837496 -29.616789 3.898134
v -11.837496 -29.616789 1.473833
v -11.837502 -29.616791 -2.803177
v -12.716341 -29.616789 3.898134
v -12.716341 -29.616789 1.473833
v -12.716347 -29.616791 -2.803177
v -11.838110 -20.173819 3.898134
v -11.838110 -20.173819 1.473833
v -11.838104 -20.173828 -2.803177
v -12.716953 -20.173819 3.898134
v -12.716953 -20.173819 1.473833
v -12.716949 -20.173828 -2.803177
v -11.912268 -20.184195 -1.983992
v -11.912262 -20.184204 -2.803177
v -11.912268 -29.699087 -1.983992
v -11.912270 -29.699097 -2.803177
v -12.791111 -29.699087 -1.983992
v -11.837496 -18.385496 3.898134
v -11.837496 -18.385496 1.473833
v -11.837494 -18.385498 -2.803177
v -11.987341 -29.646139 3.898104
v -11.987341 -29.646139 1.387896
v -11.986727 -20.162626 3.898104
v -11.986727 -20.162626 1.387896
v -12.090307 -29.646139 1.413404
v -12.090307 -29.646139 0.727575
v -12.089693 -20.162626 1.413404
v -12.089693 -20.162626 0.727575
v -12.133459 -20.110983 0.844988
v -12.133459 -20.110983 -2.006422
v -12.133459 -29.625875 0.844988
v -12.133459 -29.625875 -2.006422
v -11.937180 -42.132458 3.598615
v -11.938158 -43.409588 1.507643
v -11.938158 -43.409588 3.598493
v -11.937180 -42.132458 1.507765
v -11.938158 -43.409588 -2.714495
v -11.937180 -42.132458 -2.714373
v -12.885727 -41.343487 3.598646
v -12.885727 -41.343487 1.324354
v -11.938402 -31.460886 3.598737
v -11.938402 -31.460886 1.324445
v -12.134201 -41.343487 3.598615
v -12.134201 -42.132458 1.507765
v -12.134201 -42.132458 3.598615
v -12.134201 -41.343487 1.324323
v -11.938402 -31.460886 -2.714251
v -12.134201 -42.132458 -2.714373
v -12.134201 -41.343487 -2.714373
v -12.885727 -41.343487 -2.714342
v -12.885727 -41.343487 -2.796526
v -11.937424 -32.599922 3.598860
v -11.937424 -32.599922 1.324568
v -12.134445 -32.599922 3.598860
v -12.134445 -32.599922 1.324568
v -12.885971 -33.013039 3.598890
v -12.134445 -33.013039 3.598860
v -12.134445 -33.013039 1.324568
v -12.885971 -33.013039 1.324598
v -12.885971 -33.013039 -2.714098
v -12.134445 -33.013039 -2.714129
v -12.134445 -32.599922 -2.714129
v -11.937424 -32.599922 -2.714129
v -12.275681 -31.525341 1.238386
v -12.276293 -41.472755 1.238386
v -12.276293 -41.472755 3.623164
v -12.275681 -31.525341 3.623164
v -12.275681 -31.525341 1.351087
v -12.276293 -41.472755 1.351087
v -12.233143 -41.421364 1.279866
v -12.233143 -32.930061 -2.852382
v -12.233143 -41.421364 -2.852382
v -12.233143 -32.930061 1.279866
v -12.791100 -20.184204 -1.983994
v -5.529556 -5.868103 1.279831
v 2.197365 -5.868103 -2.803177
v -5.529556 -5.868103 -2.803177
v 2.197365 -5.868103 1.279831
v 2.168917 -5.868090 3.598570
v 2.168921 -5.868104 1.279831
v -11.837500 -62.929443 3.898134
v -11.837500 -62.929443 2.029467
v -11.837505 -62.929443 -2.803177
v -11.837499 -54.485165 3.898134
v -11.837499 -54.485165 2.029467
v -11.837504 -54.485168 -2.803177
v -12.716344 -54.485165 3.898134
v -12.716344 -54.485165 2.029467
v -12.716350 -54.485168 -2.803177
v -11.838113 -45.042194 3.898134
v -11.838113 -45.042194 2.029467
v -11.838107 -45.042206 -2.803177
v -12.716956 -45.042194 3.898134
v -12.716956 -45.042194 2.029467
v -12.716952 -45.042206 -2.803177
v -11.912271 -45.052570 -1.983992
v -11.912265 -45.052582 -2.803177
v -11.912271 -54.689869 -1.983992
v -11.912272 -54.689880 -2.803177
v -12.791114 -54.689869 -1.983992
v -11.837499 -43.253872 3.898134
v -11.837499 -43.253872 2.029467
v -11.837497 -43.253876 -2.803177
v -11.987344 -54.514515 3.898104
v -11.987344 -54.514515 1.943529
v -11.986730 -45.031002 3.898104
v -11.986730 -45.031002 1.943529
v -12.090310 -54.514515 1.969038
v -12.090310 -54.514515 1.283209
v -12.089696 -45.031002 1.969038
v -12.089696 -45.031002 1.283209
v -12.133462 -44.979359 1.400621
v -12.133462 -44.979359 -2.006422
v -12.133462 -54.616657 1.400621
v -12.133462 -54.616657 -2.006422
v -12.791102 -45.052582 -1.983994
v -11.989455 -11.716947 3.869186
v -11.989516 -11.716916 -1.940308
v -11.989537 -18.414274 -1.940308
v -11.989474 -18.414274 3.869175
v -11.989516 -11.716916 -2.847092
v -11.989537 -18.414274 -2.847092
v -13.276915 -24.963512 -1.515882
v -13.276909 -24.963514 -2.335068
v -13.276915 -25.669300 -1.515882
v -13.276917 -25.669302 -2.335068
v -13.276915 -22.920446 -1.784956
v -13.276909 -22.920450 -2.604141
v -13.276915 -24.582727 -1.784956
v -13.276917 -24.582733 -2.604141
v -13.276915 -21.998135 -1.990828
v -13.276909 -21.998137 -2.810013
v -13.276915 -22.793613 -1.990828
v -13.276917 -22.793615 -2.810013
v -13.276937 -21.032986 -1.990828
v -13.276932 -21.032988 -2.810013
v -13.276937 -21.828465 -1.990828
v -13.276939 -21.828466 -2.810013
v -13.276937 -20.074062 -1.179307
v -13.276932 -20.074064 -2.379542
v -13.276937 -20.869541 -1.179307
v -13.276939 -20.869543 -2.379542
v -13.978758 -20.727663 -1.884630
v -13.978752 -20.727671 -3.084864
v -13.978758 -23.715818 -1.884630
v -13.978760 -23.715826 -3.084864
v -13.978759 -24.028568 -1.884630
v -13.978753 -24.028582 -3.084864
v -13.978759 -29.485847 -1.884630
v -13.978761 -29.485861 -3.084864
v -13.276938 -27.550117 -1.990828
v -13.276933 -27.550121 -2.810013
v -13.276938 -29.004194 -1.990828
v -13.276940 -29.004196 -2.810013
v -13.276765 -52.503094 -0.234205
v -13.276759 -52.503101 -2.026406
v -13.276765 -53.751152 -0.234205
v -13.276767 -53.751160 -2.026406
v -13.276765 -48.614445 -1.785124
v -13.276759 -48.614449 -2.604309
v -13.276765 -50.276726 -1.785124
v -13.276767 -50.276733 -2.604309
v -13.276788 -45.768059 -1.179475
v -13.276782 -45.768063 -2.379710
v -13.276788 -46.563538 -1.179475
v -13.276790 -46.563541 -2.379710
v -13.978608 -48.063324 -1.884798
v -13.978602 -46.421669 -3.085032
v -13.978608 -49.409817 -1.884798
v -13.978610 -49.409824 -3.085032
v -13.978609 -49.722565 -1.884798
v -13.978603 -49.722580 -3.085032
v -13.978609 -55.179848 -1.884798
v -13.978611 -55.179859 -3.085032
v -13.276765 -48.873096 1.269549
v -13.276759 -48.873108 -0.522652
v -13.276765 -50.931244 1.269549
v -13.276767 -50.931255 -0.522652
vt 0.621468 0.716810
vt 0.641151 0.716841
vt 1.121160 1.828061
vt 1.161528 1.828252
vt 1.161528 1.828252
vt 1.121160 1.828061
vt -0.133767 -0.108305
vt -0.133767 -0.108305
vt -0.193818 -0.108528
vt -0.174135 -0.108496
vt -0.193818 -0.108528
vt -0.174135 -0.108496
vt -0.169237 -0.165313
vt -0.149553 -0.165282
vt -0.123806 -0.070334
vt -0.183858 -0.070557
vt -0.164174 -0.070525
vt -0.123806 -0.070334
vt -0.183858 -0.070557
vt -0.164174 -0.070525
vt 0.681519 0.717033
vt 0.636034 0.580916
vt 0.575983 0.580693
vt 0.595666 0.580724
vt 0.641920 0.606573
vt 0.655464 0.639474
vt 0.601552 0.606381
vt -0.133767 -0.108305
vt -0.133767 -0.108305
vt -0.193818 -0.108528
vt -0.193818 -0.108528
vt -0.174135 -0.108496
vt -0.174135 -0.108496
vt -0.386994 -0.411470
vt -0.406677 -0.411502
vt -0.346625 -0.411279
vt 1.161528 1.342206
vt 1.161528 1.405055
vt 1.080337 1.342206
vt 1.080337 1.405055
vt 1.091438 1.162740
vt 1.172629 1.162740
vt 1.384818 0.815444
vt 1.384581 0.878293
vt 1.606269 0.860601
vt 1.091438 1.162740
vt 1.172629 1.162740
vt 1.606269 0.860601
vt 0.088377 0.137010
vt 0.108061 0.137042
vt 0.148429 0.137233
vt 0.323392 0.162212
vt 0.343076 0.162243
vt 0.383444 0.162435
vt 1.079857 1.582125
vt 1.343277 1.582125
vt 1.074715 1.582125
vt 1.376537 1.582125
vt 1.132303 1.582125
vt 1.397692 1.582125
vt 1.079857 1.651973
vt 1.074715 1.651973
vt 1.132303 1.651973
vt 1.343277 1.651973
vt 1.397437 1.651973
vt 1.121160 1.361960
vt 1.101477 1.361929
vt 1.161528 1.362152
vt 1.121160 1.828061
vt 1.161528 1.828252
vt 1.161528 1.828252
vt 1.121160 1.828061
vt 0.369579 -0.189993
vt 0.329211 -0.190185
vt 0.374696 -0.054067
vt 0.355013 -0.054099
vt 0.309528 -0.190216
vt 0.415064 -0.053876
vt -0.150882 0.170645
vt -0.170565 0.170614
vt -0.110513 0.170837
vt -0.136260 0.075889
vt -0.155944 0.075858
vt -0.095892 0.076081
vt -0.160842 0.132674
vt -0.180525 0.132643
vt -0.120474 0.132866
vt 0.335097 -0.164528
vt 0.389009 -0.131435
vt 0.375465 -0.164336
vt 1.121160 1.828061
vt 1.161528 1.828252
vt 1.161528 1.828252
vt 1.121160 1.828061
vt 1.356026 1.343342
vt 1.356026 1.419635
vt 1.082352 1.082354
vt 1.149999 1.082357
vt 1.149999 1.082357
vt 1.082351 1.082357
vt 1.329411 1.394118
vt 1.385294 1.394118
vt 1.329411 1.394118
vt 1.385294 1.394118
vt 1.094737 1.118548
vt 1.094737 1.118548
vt 1.094737 1.172932
vt 1.094737 1.172932
vt 1.121160 1.828061
vt 1.161528 1.828252
vt 1.161528 1.828252
vt 1.121160 1.828061
vt -0.391792 -0.358600
vt -0.372109 -0.358568
vt 0.576690 0.838826
vt 0.644338 0.838828
vt -0.389428 -0.148645
vt -0.409112 -0.148676
vt -0.349060 -0.148453
vt 0.343076 0.162243
vt 0.323392 0.162212
vt 0.877065 0.862504
vt 0.857382 0.862473
vt 0.917433 0.862696
vt 1.121160 1.828061
vt 1.161528 1.828252
vt 1.161528 1.828252
vt 1.121160 1.828061
vt 1.641409 1.666417
vt 1.641408 1.584462
vt 1.581940 1.584462
vt 1.581941 1.666417
vt 1.641367 1.666417
vt 1.581899 1.584462
vt 1.641367 1.584462
vt 1.581899 1.666417
vt 1.343744 1.840852
vt 1.343745 1.933834
vt 1.343744 1.840852
vt 1.343745 1.933834
vt 1.327496 1.558106
vt 1.327496 1.659542
vt 1.327496 1.659542
vt 1.327496 1.558106
vt 0.108061 0.137042
vt 0.148429 0.137233
vt 0.362983 0.591075
vt 0.403351 0.591266
vt 0.108061 0.137042
vt 0.148429 0.137233
vt 0.108061 0.137042
vt 0.148429 0.137233
vt 0.312104 -0.117096
vt 0.352472 -0.116904
vt 0.352472 -0.116904
vt 0.312104 -0.117096
vt 0.352472 -0.116904
vt 0.312104 -0.117096
vt 0.108061 0.137042
vt 0.148429 0.137233
vt 0.352472 -0.116904
vt 0.312104 -0.117096
vt 0.108061 0.137042
vt 0.148429 0.137233
vt 0.362983 0.591075
vt 0.403351 0.591266
vt 0.346795 0.107325
vt 0.306427 0.107134
vt 0.108061 0.137042
vt 0.148429 0.137233
vn 0.707782 0.706431 0.000000
vn 0.706373 -0.707840 0.000001
vn 0.706431 -0.707782 0.000000
vn 0.707840 0.706373 -0.000001
vn 0.706373 -0.707839 0.000002
vn 0.707840 0.706373 -0.000002
vn 0.000000 1.000000 0.000000
vn -0.000000 1.000000 -0.000002
vn 0.999999 0.001629 0.000000
vn 0.999999 0.001629 -0.000000
vn 0.707098 0.707116 0.000000
vn 0.707107 0.707106 -0.000001
vn 0.707107 0.707107 0.000000
vn 0.707106 0.707107 -0.000001
vn 0.999999 0.001626 0.000000
vn 0.707106 0.707107 -0.000003
vn 0.707107 0.707106 -0.000003
vn -0.000000 1.000000 -0.000003
vn 0.707637 -0.706576 0.000000
vn 0.707682 -0.706531 -0.000001
vn 0.707107 -0.707107 0.000000
vn 0.707107 -0.707106 -0.000001
vn 0.000000 -1.000000 0.000000
vn 0.707098 -0.707116 0.000000
vn 0.707107 -0.707107 -0.000001
vn -0.000000 -1.000000 -0.000002
vn -0.000000 -1.000000 -0.000003
vn 0.707107 -0.707106 -0.000003
vn 0.707106 -0.707107 -0.000003
vn 0.707682 -0.706531 -0.000002
vn 1.000000 -0.000067 0.000000
vn 1.000000 -0.000067 0.000000
vn 1.000000 -0.000067 0.000000
vn 1.000000 -0.000067 0.000000
vn 1.000000 0.000000 0.000000
vn 1.000000 0.000000 0.000000
vn 1.000000 0.000000 0.000000
vn 1.000000 0.000000 0.000000
vn 1.000000 0.000000 -0.000000
vn 1.000000 0.000000 -0.000000
vn 0.707107 0.000000 0.707106
vn 0.000000 0.000000 1.000000
vn 0.685824 0.000000 0.727767
vn 0.000000 0.000000 1.000000
vn 0.000000 -1.000000 0.000002
vn 0.000000 -1.000000 0.000000
vn 0.000000 -1.000000 0.000003
vn 0.706313 -0.707900 0.000005
vn 0.706370 -0.707843 0.000002
vn 0.706431 -0.707782 0.000000
vn 0.893680 -0.448705 0.000003
vn 0.706367 -0.707845 0.000002
vn 0.999998 -0.002088 -0.000000
vn -0.000000 -1.000000 0.000002
vn -0.000000 -1.000000 0.000000
vn -0.000000 -1.000000 0.000003
vn 0.707108 -0.707106 -0.000000
vn 1.000000 0.000001 0.000000
vn 0.707106 -0.707108 -0.000000
vn 1.000000 0.000001 -0.000001
vn 0.707106 -0.707107 -0.000000
vn 0.707108 -0.707106 -0.000000
vn 0.707107 -0.707107 0.000000
vn 1.000000 0.000001 0.000000
vn 0.707106 -0.707107 0.000000
vn 1.000000 -0.000000 -0.000001
vn 1.000000 -0.000000 -0.000003
vn 1.000000 -0.000000 0.000000
vn 0.000000 -1.000000 0.000000
vn -0.000000 -1.000000 0.000000
vn -0.000008 -1.000000 0.000000
vn 0.000000 -1.000000 0.000001
vn 0.707107 -0.707107 0.000000
vn 0.707107 -0.707107 -0.000000
vn 0.707106 -0.707107 -0.000000
vn 0.707107 0.707107 0.000000
vn 0.707107 0.707107 -0.000001
vn 0.707107 0.707107 -0.000001
vn 0.707107 0.707107 0.000000
vn 0.707107 0.707107 -0.000001
vn 0.707107 0.707107 -0.000001
vn 0.707107 0.707107 0.000000
vn 0.707107 0.707107 -0.000001
vn 0.707107 0.707107 -0.000001
vn 0.000000 1.000000 0.000000
vn 0.000000 1.000000 -0.000000
vn 0.000000 1.000000 -0.000000
vn 0.706985 -0.707228 0.000000
vn 0.706985 -0.707228 0.000001
vn 0.706986 -0.707228 0.000002
vn 0.000000 -1.000000 0.000000
vn 0.000000 -1.000000 0.000001
vn 0.000000 -1.000000 0.000002
vn 0.707103 -0.000001 0.707110
vn 1.000000 -0.000001 0.000007
vn 0.707110 0.000000 0.707103
vn 1.000000 -0.000000 -0.000002
vn 0.000000 0.000000 1.000000
vn 1.000000 -0.000343 0.000000
vn 1.000000 -0.000343 0.000001
vn 1.000000 -0.000341 0.000000
vn 1.000000 -0.000065 0.000000
vn 1.000000 -0.000065 0.000000
vn 1.000000 -0.000065 0.000000
vn 1.000000 -0.000065 0.000000
vn 1.000000 -0.000065 0.000000
vn 1.000000 -0.000065 0.000000
vn 1.000000 -0.000065 0.000000
vn 1.000000 -0.000065 0.000000
vn 1.000000 0.000000 0.000000
vn 1.000000 0.000000 0.000000
vn 1.000000 0.000000 0.000000
vn 1.000000 0.000000 0.000000
vn 0.707356 0.706857 0.000000
vn 1.000000 -0.000766 0.000000
vn 1.000000 -0.000766 0.000000
vn 0.707378 0.706836 0.000000
vn 1.000000 -0.000766 0.000000
vn 0.707399 0.706814 0.000000
vn 0.000000 1.000000 0.000000
vn 0.000000 1.000000 0.000000
vn 1.000000 0.000859 0.000000
vn 1.000000 0.000859 0.000000
vn 0.707098 0.707116 0.000000
vn 0.707107 0.707107 0.000000
vn 0.707107 0.707107 0.000000
vn 0.707107 0.707107 0.000000
vn 1.000000 0.000859 0.000000
vn 0.707107 0.707107 0.000000
vn 0.683037 0.730384 0.000000
vn 0.000000 1.000000 0.000000
vn 0.000000 1.000000 0.000000
vn 0.707386 -0.706827 0.000000
vn 0.707411 -0.706803 0.000000
vn 0.707107 -0.707107 0.000000
vn 0.707107 -0.707107 0.000000
vn 0.000000 -1.000000 0.000000
vn 0.707098 -0.707116 0.000000
vn 0.707107 -0.707107 0.000000
vn 0.000000 -1.000000 0.000000
vn 0.000000 -1.000000 0.000000
vn 0.707116 -0.707097 0.000000
vn 0.707107 -0.707107 0.000000
vn 0.707434 -0.706779 0.000000
vn 1.000000 -0.000062 0.000000
vn 1.000000 -0.000062 0.000000
vn 1.000000 -0.000062 0.000000
vn 1.000000 -0.000062 0.000000
vn 1.000000 -0.000062 0.000000
vn 1.000000 -0.000062 0.000000
vn 1.000000 0.000000 0.000000
vn 1.000000 0.000000 0.000000
vn 1.000000 0.000000 0.000000
vn 1.000000 0.000000 0.000000
vn -0.000002 0.000000 1.000000
vn 0.000000 -1.000000 0.000000
vn 0.000000 -1.000000 0.000000
vn 0.000000 -1.000000 0.000000
vn 0.000000 -1.000000 0.000000
vn -0.000000 -1.000000 0.000006
vn -0.000000 -1.000000 0.000006
vn 1.000000 -0.000000 0.000000
vn 1.000000 -0.000000 -0.000001
vn 1.000000 -0.000000 -0.000001
vn 0.707107 0.707107 0.000000
vn 0.707107 0.707107 -0.000001
vn 0.707107 0.707107 -0.000001
vn 0.000000 1.000000 0.000000
vn 0.000000 1.000000 -0.000000
vn 0.000000 1.000000 -0.000001
vn 0.706985 -0.707228 0.000000
vn 0.706985 -0.707228 0.000001
vn 0.706986 -0.707228 0.000002
vn 0.000000 -1.000000 0.000000
vn 0.000000 -1.000000 0.000001
vn 0.000000 -1.000000 0.000002
vn 0.707104 -0.000001 0.707110
vn 1.000000 -0.000001 0.000007
vn 0.707110 0.000000 0.707103
vn 1.000000 -0.000000 -0.000002
vn 0.000000 0.000000 1.000000
vn 1.000000 -0.000343 0.000000
vn 1.000000 -0.000343 0.000001
vn 1.000000 -0.000341 0.000000
vn 1.000000 -0.000065 0.000000
vn 1.000000 -0.000065 0.000000
vn 1.000000 -0.000065 0.000000
vn 1.000000 -0.000065 0.000000
vn 1.000000 -0.000065 0.000000
vn 1.000000 -0.000065 0.000000
vn 1.000000 -0.000065 0.000000
vn 1.000000 -0.000065 0.000000
vn 1.000000 0.000000 0.000000
vn 1.000000 0.000000 0.000000
vn 1.000000 0.000000 0.000000
vn 1.000000 0.000000 0.000000
vn -0.000002 0.000000 1.000000
vn 1.000000 -0.000003 -0.000011
vn 1.000000 -0.000003 -0.000005
vn 1.000000 -0.000003 -0.000005
vn 1.000000 -0.000003 -0.000011
vn 1.000000 -0.000003 0.000000
vn 1.000000 -0.000003 0.000000
vn 1.000000 -0.000005 0.000002
vn 1.000000 -0.000011 0.000007
vn 1.000000 0.000000 -0.000002
vn 1.000000 -0.000006 0.000003
vn 1.000000 -0.000003 0.000004
vn 1.000000 -0.000005 0.000007
vn 1.000000 0.000000 -0.000002
vn 1.000000 -0.000001 0.000000
vn 1.000000 -0.000005 0.000002
vn 1.000000 -0.000010 0.000007
vn 1.000000 0.000000 -0.000002
vn 1.000000 -0.000005 0.000002
vn 1.000000 -0.000005 0.000002
vn 1.000000 -0.000010 0.000007
vn 1.000000 0.000000 -0.000002
vn 1.000000 -0.000005 0.000002
vn 1.000000 -0.000004 0.000001
vn 1.000000 -0.000010 0.000005
vn 1.000000 0.000000 -0.000002
vn 1.000000 -0.000006 0.000002
vn 1.000000 -0.000002 0.000003
vn 1.000000 -0.000003 0.000005
vn 1.000000 0.000000 -0.000002
vn 1.000000 -0.000001 -0.000000
vn 1.000000 -0.000001 0.000004
vn 1.000000 -0.000001 0.000005
vn 1.000000 0.000000 -0.000002
vn 1.000000 -0.000000 -0.000001
vn 1.000000 -0.000004 0.000004
vn 1.000000 -0.000005 0.000007
vn 1.000000 0.000000 -0.000002
vn 1.000000 -0.000002 0.000001
vn 1.000000 -0.000002 0.000001
vn 1.000000 -0.000006 0.000003
vn 1.000000 0.000000 -0.000001
vn 1.000000 -0.000004 0.000002
vn 1.000000 -0.000003 0.000004
vn 1.000000 -0.000005 0.000007
vn 1.000000 0.000000 -0.000002
vn 1.000000 -0.000001 0.000000
vn 1.000000 -0.000004 0.000001
vn 1.000000 -0.000010 0.000005
vn 1.000000 0.000000 -0.000002
vn 1.000000 -0.000006 0.000002
vn 1.000000 -0.000002 0.000000
vn 1.000000 -0.000003 0.000001
vn 1.000000 0.000000 -0.000002
vn 1.000000 -0.000001 -0.000000
vn 1.000000 -0.000001 0.000004
vn 1.000000 -0.000001 0.000005
vn 1.000000 0.000000 -0.000002
vn 1.000000 -0.000000 -0.000001
vn 1.000000 -0.000002 0.000001
vn 1.000000 -0.000004 0.000003
vn 1.000000 0.000000 -0.000001
vn 1.000000 -0.000002 0.000001
g fff06058_00012_000cb9ee_e4
f 29/22/29 20/24/20 22/24/22
f 26/2/26 25/2/25 24/1/24
f 24/1/24 23/1/23 26/2/26
f 20/24/20 29/22/29 30/22/30
f 12/24/12 1/23/1 4/24/4
f 27/21/27 25/2/25 26/2/26
f 25/2/25 27/21/27 28/21/28
f 14/20/14 13/19/13 12/20/12
f 13/19/13 14/20/14 11/19/11
f 12/20/12 16/18/16 17/18/17
f 17/18/17 14/20/14 12/20/12
f 25/17/25 22/17/22 21/16/21
f 21/16/21 24/16/24 25/17/25
f 22/17/22 28/15/28 29/15/29
f 28/15/28 22/17/22 25/17/25
f 34/14/34 33/14/33 32/13/32
f 32/13/32 31/13/31 34/14/34
f 98/100/98 96/98/96 155/97/155
f 155/97/155 96/98/96 94/99/94
f 4/12/4 3/11/3 2/10/2
f 3/11/3 4/12/4 1/9/1
f 2/10/2 5/8/5 6/7/6
f 6/7/6 4/12/4 2/10/2
f 20/33/20 10/32/10 9/31/9
f 9/31/9 19/30/19 20/33/20
f 10/32/10 30/29/30 15/28/15
f 30/29/30 10/32/10 20/33/20
f 8/27/8 11/26/11 14/27/14
f 11/26/11 8/27/8 7/26/7
f 14/27/14 17/25/17 18/25/18
f 18/25/18 8/27/8 14/27/14
f 22/24/22 20/24/20 19/23/19
f 19/23/19 21/23/21 22/24/22
f 16/22/16 12/24/12 4/24/4
f 4/24/4 6/22/6 16/22/16
f 1/23/1 12/24/12 13/23/13
f 46/35/46 2/34/2 3/35/3
f 2/34/2 46/35/46 45/34/45
f 5/36/5 2/34/2 47/36/47
f 45/34/45 47/36/47 2/34/2
f 51/12/51 48/9/48 49/10/49
f 50/11/50 49/10/49 48/9/48
f 49/10/49 52/8/52 53/7/53
f 53/7/53 51/12/51 49/10/49
f 55/35/55 49/34/49 50/35/50
f 49/34/49 55/35/55 54/34/54
f 52/36/52 49/34/49 56/36/56
f 54/34/54 56/36/56 49/34/49
f 83/50/83 79/49/79 80/50/80
f 79/49/79 83/50/83 82/49/82
f 80/50/80 81/51/81 84/51/84
f 84/51/84 83/50/83 80/50/80
f 86/53/86 82/52/82 83/53/83
f 82/52/82 86/53/86 85/52/85
f 83/53/83 84/54/84 87/54/87
f 87/54/87 86/53/86 83/53/83
f 89/50/89 100/50/100 99/49/99
f 99/49/99 88/49/88 89/50/89
f 100/50/100 90/51/90 101/51/101
f 90/51/90 100/50/100 89/50/89
f 92/53/92 89/53/89 88/52/88
f 88/52/88 91/52/91 92/53/92
f 89/53/89 93/54/93 90/54/90
f 93/54/93 89/53/89 92/53/92
f 94/50/94 97/51/97 95/51/95
f 97/51/97 94/50/94 96/50/96
f 223/154/223 220/153/220 222/153/222
f 220/153/220 223/154/223 221/154/221
f 74/56/74 69/56/69 70/56/70
f 69/56/69 74/56/74 73/56/73
f 70/56/70 71/58/71 75/60/75
f 75/60/75 74/56/74 70/56/70
f 72/60/72 75/60/75 71/58/71
f 77/61/77 73/57/73 74/55/74
f 73/57/73 77/61/77 76/62/76
f 74/55/74 75/59/75 78/63/78
f 78/63/78 77/61/77 74/55/74
f 80/64/80 76/64/76 77/64/77
f 76/64/76 80/64/80 79/64/79
f 77/64/77 78/65/78 81/65/81
f 81/65/81 80/64/80 77/64/77
f 103/66/103 105/66/105 104/67/104
f 104/67/104 102/67/102 103/66/103
f 187/123/187 185/123/185 186/122/186
f 190/124/190 191/122/191 189/122/189
f 186/122/186 188/122/188 187/123/187
f 191/122/191 190/124/190 192/124/192
f 108/66/108 107/68/107 109/68/109
f 107/68/107 108/66/108 106/66/106
f 143/73/143 134/74/134 136/74/136
f 140/75/140 139/75/139 138/76/138
f 138/76/138 137/76/137 140/75/140
f 134/74/134 143/73/143 144/73/144
f 125/74/125 114/77/114 117/74/117
f 141/78/141 139/75/139 140/75/140
f 139/75/139 141/78/141 142/78/142
f 127/79/127 126/80/126 125/79/125
f 126/80/126 127/79/127 124/80/124
f 125/79/125 129/81/129 130/81/130
f 130/81/130 127/79/127 125/79/125
f 139/79/139 136/79/136 135/80/135
f 135/80/135 138/80/138 139/79/139
f 136/79/136 142/81/142 143/81/143
f 142/81/142 136/79/136 139/79/139
f 150/82/150 149/82/149 148/83/148
f 148/83/148 147/83/147 150/82/150
f 149/82/149 146/84/146 145/84/145
f 146/84/146 149/82/149 150/82/150
f 117/85/117 116/86/116 115/85/115
f 116/86/116 117/85/117 114/86/114
f 115/85/115 118/87/118 119/87/119
f 119/87/119 117/85/117 115/85/115
f 134/85/134 123/85/123 122/86/122
f 122/86/122 133/86/133 134/85/134
f 123/85/123 144/87/144 128/87/128
f 144/87/144 123/85/123 134/85/134
f 121/88/121 124/89/124 127/88/127
f 124/89/124 121/88/121 120/89/120
f 127/88/127 130/90/130 131/90/131
f 131/90/131 121/88/121 127/88/127
f 136/74/136 134/74/134 133/77/133
f 133/77/133 135/77/135 136/74/136
f 129/73/129 125/74/125 117/74/117
f 117/74/117 119/73/119 129/73/129
f 114/77/114 125/74/125 126/77/126
f 48/113/48 51/114/51 161/114/161
f 161/114/161 160/113/160 48/113/48
f 181/115/181 179/116/179 197/115/197
f 197/115/197 179/116/179 177/116/177
f 166/117/166 162/118/162 163/117/163
f 162/118/162 166/117/166 165/118/165
f 163/117/163 164/119/164 167/119/167
f 167/119/167 166/117/166 163/117/163
f 169/120/169 165/121/165 166/120/166
f 165/121/165 169/120/169 168/121/168
f 166/129/166 167/130/167 170/131/170
f 170/131/170 169/132/169 166/129/166
f 172/117/172 183/117/183 182/118/182
f 182/118/182 171/118/171 172/117/172
f 183/117/183 173/119/173 184/119/184
f 173/119/173 183/117/183 172/117/172
f 175/120/175 172/120/172 171/121/171
f 171/121/171 174/121/174 175/120/175
f 172/133/172 176/134/176 173/135/173
f 176/134/176 172/133/172 175/136/175
f 177/117/177 180/119/180 178/119/178
f 180/119/180 177/117/177 179/117/179
f 235/160/235 232/159/232 234/159/234
f 232/159/232 235/160/235 233/160/233
f 204/145/204 207/146/207 205/146/205
f 207/146/207 204/145/204 206/145/206
f 208/147/208 211/148/211 209/148/209
f 211/148/211 208/147/208 210/147/210
f 212/149/212 215/150/215 213/150/213
f 215/150/215 212/149/212 214/149/214
f 216/151/216 219/152/219 217/152/217
f 219/152/219 216/151/216 218/151/218
f 227/155/227 224/156/224 226/156/226
f 224/156/224 227/155/227 225/155/225
f 231/157/231 228/158/228 230/158/230
f 228/158/228 231/157/231 229/157/229
f 247/161/247 244/162/244 246/162/246
f 244/162/244 247/161/247 245/161/245
f 236/163/236 239/164/239 237/164/237
f 239/164/239 236/163/236 238/163/238
f 240/165/240 243/166/243 241/166/241
f 243/166/243 240/165/240 242/165/242
f 251/167/251 248/168/248 250/168/250
f 248/168/248 251/167/251 249/167/249
f 255/167/255 252/168/252 254/168/254
f 252/168/252 255/167/255 253/167/253
f 256/169/256 259/170/259 257/170/257
f 259/170/259 256/169/256 258/169/258
g fff06058_00012_000cb9ee_e1
f 38/6/38 37/5/37 36/4/36
f 37/5/37 38/6/38 35/3/35
f 110/69/110 113/70/113 111/71/111
f 113/70/113 110/69/110 112/72/112
f 154/91/154 153/92/153 152/93/152
f 153/92/153 154/91/154 151/94/151
f 193/125/193 196/126/196 194/127/194
f 196/126/196 193/125/193 195/128/195
g fff06058_00012_000cb9ee_e0
f 132/95/132 131/96/131 130/96/130
f 68/48/68 66/48/66 61/45/61
f 61/45/61 65/45/65 68/48/68
f 67/47/67 61/41/61 66/46/66
f 61/41/61 67/47/67 62/42/62
f 57/45/57 63/45/63 65/45/65
f 65/45/65 61/45/61 57/45/57
f 57/43/57 64/44/64 63/43/63
f 64/44/64 57/43/57 58/44/58
f 62/42/62 57/41/57 61/41/61
f 57/41/57 62/42/62 59/42/59
f 60/38/60 58/40/58 57/39/57
f 59/37/59 60/38/60 57/39/57
f 43/101/43 42/102/42 41/103/41
f 43/105/43 41/106/41 40/107/40
f 39/108/39 40/107/40 41/106/41
f 44/104/44 41/103/41 42/102/42
f 199/137/199 201/140/201 200/139/200
f 201/140/201 199/137/199 198/138/198
f 200/142/200 203/141/203 199/143/199
f 202/144/202 199/143/199 203/141/203
g fff06058_00012_000cb9ee_e8
f 159/109/159 158/110/158 157/111/157
f 158/110/158 159/109/159 156/112/156
