# fff00789_00169_002d44d7
o fff00789_00169_002d44d7
v 2.038911 2.474346 -0.241624
v 1.653555 2.341285 -0.194391
v 1.284801 2.520758 -0.173588
v 1.149128 2.907621 -0.191435
v 1.325476 3.275400 -0.237455
v 1.711026 3.408537 -0.284708
v 2.079594 3.229082 -0.305494
v 1.694951 2.885522 -0.105037
v 1.223086 2.469125 -0.822992
v 1.087320 2.855996 -0.840840
v 1.263761 3.223767 -0.886860
v 1.649218 3.356911 -0.934112
v 2.017786 3.177457 -0.954899
v 2.405365 2.802793 -0.632282
v 2.155759 2.282675 -0.567191
v 1.610657 2.094368 -0.500374
v 1.089349 2.348196 -0.470971
v 0.897230 2.895515 -0.496212
v 1.146819 3.415447 -0.561287
v 1.691930 3.603848 -0.628107
v 2.213230 3.349926 -0.657507
v 2.215446 2.842108 -0.287650
v 2.153637 2.790483 -0.937055
v 2.079849 2.559913 -0.915336
v 1.534755 2.371700 -0.848527
v 1.936269 0.316457 -0.274108
v 1.614748 0.205406 -0.234704
v 1.307190 0.355196 -0.217357
v 1.193893 0.677932 -0.232242
v 1.341072 0.984801 -0.270640
v 1.662686 1.095842 -0.310056
v 1.970159 0.946155 -0.327399
v 1.649392 0.659545 -0.160173
v 1.255648 0.312125 -0.759128
v 1.142351 0.634861 -0.774013
v 1.289529 0.941730 -0.812411
v 1.611144 1.052772 -0.851826
v 1.918617 0.903085 -0.869170
v 2.241987 0.590448 -0.600021
v 2.033754 0.156567 -0.545724
v 1.578924 -0.000504 -0.489980
v 1.144106 0.211183 -0.465443
v 0.983820 0.667832 -0.486506
v 1.192044 1.101620 -0.540795
v 1.646789 1.258793 -0.596542
v 2.081692 1.047004 -0.621076
v 2.083541 0.623317 -0.312512
v 2.031999 0.580246 -0.854282
v 1.970414 0.387925 -0.836173
v 1.515677 0.230846 -0.780429
v 2.041059 6.832662 -0.986796
v 1.895992 6.874196 -0.976112
v 1.822079 7.006246 -0.976998
v 1.862766 7.151420 -0.988948
v 1.994083 7.224885 -1.004963
v 2.139237 7.183343 -1.015647
v 2.213150 7.051292 -1.014760
v 2.022074 7.031606 -0.946204
v 1.800498 6.992556 -1.216850
v 1.841179 7.137731 -1.228794
v 1.972543 7.211191 -1.244808
v 2.117650 7.169653 -1.255498
v 2.191564 7.037602 -1.254606
v 2.225799 6.848387 -1.125601
v 2.040062 6.744605 -1.102967
v 1.834804 6.803333 -1.087851
v 1.730290 6.990054 -1.089105
v 1.787777 7.195515 -1.106007
v 1.973535 7.299201 -1.128646
v 2.178777 7.240614 -1.143768
v 2.283268 7.053850 -1.142504
v 2.172453 6.906073 -1.002806
v 2.150867 6.892383 -1.242658
v 2.079789 6.838542 -1.234526
v 1.874485 6.897229 -1.219406
v 1.453536 -3.025636 0.418297
v 0.984808 -3.260038 0.484379
v 0.484641 -3.092727 0.516898
v 0.246366 -2.621702 0.496755
v 0.409247 -2.122767 0.435786
v 0.878249 -1.888390 0.369685
v 1.378227 -2.055777 0.337198
v 0.947949 -2.558524 0.599970
v 0.404934 -3.168730 -0.318057
v 0.166659 -2.697704 -0.338199
v 0.329634 -2.198778 -0.399169
v 0.798542 -1.964393 -0.465269
v 1.298520 -2.131780 -0.497762
v 1.860558 -2.545169 -0.089030
v 1.630029 -3.250591 -0.002811
v 0.966884 -3.582112 0.090669
v 0.259692 -3.345564 0.136641
v -0.077405 -2.679243 0.108164
v 0.153138 -1.973917 0.021947
v 0.816186 -1.642292 -0.071530
v 1.523467 -1.879037 -0.117491
v 1.616602 -2.526812 0.357329
v 1.536895 -2.602815 -0.477631
v 1.481666 -2.909422 -0.449127
v 0.818529 -3.240850 -0.355655
v -0.393421 0.844595 0.079896
v -1.133192 0.791893 0.149471
v -1.696419 1.279328 0.172320
v -1.752552 2.021125 0.135023
v -1.269312 2.583163 0.059450
v -0.529274 2.635746 -0.010135
v 0.033686 2.148431 -0.032969
v -0.809417 1.727811 0.314251
v -1.802623 1.211866 -1.008597
v -1.858841 1.953765 -1.045898
v -1.375603 2.515709 -1.121463
v -0.635571 2.568293 -1.191053
v -0.072611 2.080977 -1.213887
v 0.418465 1.245516 -0.613209
v -0.265131 0.450824 -0.506332
v -1.311547 0.376405 -0.407920
v -2.107749 1.065528 -0.375620
v -2.187438 2.114973 -0.428367
v -1.503925 2.909389 -0.535226
v -0.457545 2.984002 -0.633636
v 0.338787 2.294677 -0.665938
v 0.089972 1.406431 0.004328
v -0.016317 1.339070 -1.176598
v -0.254385 0.969469 -1.140650
v -1.300807 0.895049 -1.042244
v 0.111361 4.607198 -0.546781
v -0.300660 4.577881 -0.508034
v -0.614381 4.849353 -0.495297
v -0.645714 5.262584 -0.516079
v -0.376483 5.575665 -0.558175
v 0.035726 5.604964 -0.596934
v 0.349253 5.333511 -0.609654
v -0.120285 5.099200 -0.416245
v -0.673638 4.811807 -1.153098
v -0.704883 5.225031 -1.173874
v -0.435746 5.538120 -1.215970
v -0.023537 5.567419 -1.254735
v 0.290084 5.295957 -1.267455
v 0.563656 4.830542 -0.932861
v 0.182848 4.387910 -0.873329
v -0.400064 4.346485 -0.818513
v -0.843537 4.730318 -0.800521
v -0.887915 5.314859 -0.829898
v -0.507159 5.757308 -0.889414
v 0.075605 5.798934 -0.944235
v 0.519234 5.414993 -0.962230
v 0.380578 4.920186 -0.588875
v 0.321403 4.882632 -1.246676
v 0.188791 4.676829 -1.226656
v -0.394042 4.635302 -1.171837
v 2.196932 6.194586 -0.682600
v 1.768980 6.164052 -0.642353
v 1.443133 6.446085 -0.629137
v 1.410635 6.875146 -0.650707
v 1.690231 7.200279 -0.694421
v 2.118315 7.230705 -0.734683
v 2.443943 6.948787 -0.747890
v 1.956262 6.705415 -0.547023
v 1.381692 6.407072 -1.312288
v 1.349199 6.836132 -1.333858
v 1.628749 7.161268 -1.377578
v 2.056834 7.191695 -1.417835
v 2.382465 6.909823 -1.431046
v 2.666587 6.426456 -1.083555
v 2.271142 5.966767 -1.021729
v 1.665726 5.923712 -0.964797
v 1.205178 6.322343 -0.946110
v 1.159069 6.929448 -0.976627
v 1.554520 7.388995 -1.038441
v 2.159827 7.432154 -1.095369
v 2.620478 7.033420 -1.114060
v 2.476552 6.519575 -0.726314
v 2.415070 6.480565 -1.409465
v 2.277347 6.266764 -1.388674
v 1.671977 6.223705 -1.331742
vt -2252230.000000 561022.125000
vt 2845379.250000 4188266.000000
vt 372624.125000 1044849.625000
vt 370596.812500 -115370.796875
vt 372838.093750 -116069.023438
vt 373039.031250 -116131.796875
vt 380099.218750 -118334.078125
vt 383219.281250 -119306.078125
vt 388058.125000 -120814.273438
vt -541541.875000 1780408.625000
vt -433955.593750 1524869.250000
vt -2850444.500000 7150955.500000
vt -533399.625000 1859286.625000
vt -2976384.750000 7473471.000000
vt 7184942.500000 -15749894.000000
vt -191655936.000000 224751584.000000
vt -127600656.000000 149885008.000000
vt -92248288.000000 108501104.000000
vt 53504248.000000 -61853984.000000
vt 39443432.000000 -45399808.000000
vt 24831828.000000 -28293824.000000
vt 42011968.000000 -48369340.000000
vt 22050016.000000 -25008454.000000
vt -234264.500000 1090697.500000
vt -1193680.750000 3318128.000000
vt -85533.296875 -233882.281250
vt -587575.437500 1341177.250000
vt 3505143.250000 -12305996.000000
vt -79834.937500 -323122.531250
vt 607.546875 -536710.125000
vt 2775183.000000 7914812.500000
vt 2221493.000000 -7147096.000000
vt -3165298.250000 11270825.000000
vt 3625233.500000 -5860954.500000
vt 588002.562500 1091899.875000
vt 1502250.125000 3266410.500000
vt 685372.250000 30792.750000
vt 2283237.500000 115622.164062
vt 1968642.500000 98596.726562
vt 3613382.000000 185807.750000
vt -144157.000000 -13259.375000
vt -19493676.000000 -1034593.437500
vt -351456.812500 22843.046875
vt 195018.171875 -12760.558594
vt 305475.437500 -19957.177734
vt -259958.687500 16881.781250
vt -521334.187500 33910.734375
vt -292721.562500 19016.386719
vt 3841750.250000 -4777306.000000
vt -1670851.875000 2077633.000000
vt -1308653.125000 1627237.750000
vt 2438616.000000 -3032504.000000
vt -2268211.000000 2820451.500000
vt -1463473.750000 1819758.000000
vn 0.490535 -0.406901 0.770589
vn 0.040050 -0.562427 0.825877
vn -0.391066 -0.352556 0.850160
vn -0.549667 0.099683 0.829415
vn -0.343466 0.529756 0.775493
vn 0.107132 0.685335 0.720305
vn 0.538096 0.475549 0.695921
vn 0.094345 0.078864 0.992411
vn -0.637298 -0.597236 -0.486991
vn -0.875339 0.006219 -0.483469
vn -0.603239 0.573429 -0.554330
vn -0.008638 0.778800 -0.627213
vn 0.559855 0.502087 -0.659144
vn 0.995613 -0.049296 -0.079528
vn 0.633089 -0.773198 -0.036924
vn -0.035531 -0.998981 0.027838
vn -0.740828 -0.660346 0.122951
vn -0.994088 0.061211 0.089683
vn -0.665093 0.746750 0.003857
vn 0.053494 0.995013 -0.084182
vn 0.740817 0.660351 -0.122996
vn 0.696916 0.023083 0.716781
vn 0.771267 -0.027079 -0.635936
vn 0.559725 -0.553348 -0.616858
vn -0.066261 -0.787461 -0.612793
vn 0.490550 -0.406889 0.770585
vn 0.039952 -0.562508 0.825826
vn -0.390961 -0.352557 0.850208
vn -0.549726 0.099670 0.829378
vn -0.343470 0.529785 0.775472
vn 0.107099 0.685331 0.720313
vn 0.538014 0.475584 0.695960
vn 0.094395 0.078894 0.992404
vn -0.637310 -0.597227 -0.486986
vn -0.875423 0.006157 -0.483319
vn -0.603334 0.573451 -0.554205
vn -0.008621 0.778771 -0.627249
vn 0.559811 0.502072 -0.659193
vn 0.995609 -0.049358 -0.079537
vn 0.633076 -0.773206 -0.036987
vn -0.035625 -0.998979 0.027790
vn -0.740774 -0.660402 0.122974
vn -0.994089 0.061208 0.089666
vn -0.665093 0.746751 0.003912
vn 0.053486 0.995015 -0.084163
vn 0.740796 0.660373 -0.122996
vn 0.696911 0.023154 0.716784
vn 0.771293 -0.027044 -0.635906
vn 0.559699 -0.553308 -0.616918
vn -0.066222 -0.787446 -0.612815
vn 0.144042 -0.577790 0.803374
vn -0.316065 -0.446152 0.837288
vn -0.550373 -0.027232 0.834475
vn -0.421353 0.433098 0.796799
vn -0.004739 0.666275 0.745691
vn 0.455427 0.534568 0.711915
vn 0.689942 0.115582 0.714577
vn 0.089460 0.056771 0.994371
vn -0.847609 -0.149440 -0.509143
vn -0.698037 0.481530 -0.529975
vn -0.148745 0.788706 -0.596505
vn 0.458839 0.614826 -0.641448
vn 0.767969 0.062454 -0.637434
vn 0.790917 -0.611414 -0.024980
vn 0.078657 -0.996834 0.011660
vn -0.600833 -0.798121 0.044751
vn -0.988863 -0.114132 0.095524
vn -0.783182 0.620807 0.034982
vn -0.118960 0.991834 -0.045969
vn 0.615010 0.782157 -0.099963
vn 0.988859 0.114188 -0.095488
vn 0.560863 -0.344998 0.752602
vn 0.638088 -0.491074 -0.593034
vn 0.163478 -0.801238 -0.575580
vn -0.483936 -0.636633 -0.600420
vn 0.547996 -0.339783 0.764361
vn 0.122242 -0.552700 0.824366
vn -0.332080 -0.400651 0.853933
vn -0.548522 0.027164 0.835695
vn -0.400577 0.480472 0.780183
vn 0.025381 0.693315 0.720188
vn 0.479542 0.541285 0.690689
vn 0.094635 0.090235 0.991414
vn -0.559719 -0.674932 -0.480813
vn -0.874206 -0.107504 -0.473506
vn -0.678936 0.490348 -0.546448
vn -0.116899 0.771252 -0.625704
vn 0.482291 0.570699 -0.664603
vn 0.992608 0.080542 -0.090782
vn 0.727778 -0.684312 -0.045344
vn 0.094966 -0.995128 0.026479
vn -0.647185 -0.751140 0.130155
vn -0.992522 -0.068596 0.100965
vn -0.756439 0.653943 0.012640
vn -0.077270 0.993547 -0.083033
vn 0.647237 0.751097 -0.130146
vn 0.696068 0.113330 0.708975
vn 0.760895 0.073698 -0.644676
vn 0.619818 -0.475718 -0.624114
vn 0.029727 -0.789266 -0.613331
vn 0.351810 -0.515738 0.781181
vn -0.124732 -0.549709 0.825992
vn -0.487547 -0.235660 0.840692
vn -0.523701 0.242123 0.816771
vn -0.212371 0.604236 0.767983
vn 0.264244 0.638111 0.723181
vn 0.626907 0.324158 0.708456
vn 0.089443 0.056768 0.994373
vn -0.758787 -0.415171 -0.501873
vn -0.833202 0.229359 -0.503159
vn -0.422526 0.706886 -0.567260
vn 0.206465 0.751603 -0.626471
vn 0.684862 0.337459 -0.645822
vn 0.950739 -0.304725 -0.056901
vn 0.412953 -0.910455 -0.023274
vn -0.292569 -0.955891 0.026015
vn -0.888563 -0.446469 0.105455
vn -0.946433 0.315842 0.067136
vn -0.449937 0.892998 -0.010506
vn 0.310103 0.947162 -0.081975
vn 0.888578 0.446439 -0.105459
vn 0.663161 -0.153853 0.732494
vn 0.752120 -0.228069 -0.618304
vn 0.411703 -0.681900 -0.604577
vn -0.253420 -0.746786 -0.614890
vn 0.351778 -0.515783 0.781166
vn -0.124711 -0.549735 0.825977
vn -0.487490 -0.235724 0.840707
vn -0.523725 0.242133 0.816752
vn -0.212370 0.604288 0.767942
vn 0.264291 0.638145 0.723133
vn 0.626912 0.324138 0.708461
vn 0.089480 0.056763 0.994370
vn -0.758839 -0.415164 -0.501798
vn -0.833208 0.229433 -0.503116
vn -0.422696 0.706949 -0.567055
vn 0.206448 0.751667 -0.626399
vn 0.684843 0.337467 -0.645837
vn 0.950742 -0.304719 -0.056879
vn 0.412938 -0.910461 -0.023308
vn -0.292601 -0.955880 0.026040
vn -0.888562 -0.446461 0.105502
vn -0.946413 0.315911 0.067105
vn -0.449967 0.892984 -0.010461
vn 0.310027 0.947190 -0.081935
vn 0.888561 0.446489 -0.105393
vn 0.663111 -0.153789 0.732552
vn 0.752003 -0.228199 -0.618398
vn 0.411642 -0.681892 -0.604627
vn -0.253375 -0.746836 -0.614847
vn 0.351837 -0.515707 0.781190
vn -0.124714 -0.549718 0.825988
vn -0.487530 -0.235637 0.840708
vn -0.523708 0.242130 0.816764
vn -0.212350 0.604238 0.767987
vn 0.264268 0.638108 0.723174
vn 0.626861 0.324173 0.708489
vn 0.089451 0.056739 0.994374
vn -0.758815 -0.415086 -0.501901
vn -0.833163 0.229350 -0.503228
vn -0.422570 0.706888 -0.567224
vn 0.206449 0.751639 -0.626433
vn 0.684841 0.337499 -0.645823
vn 0.950740 -0.304723 -0.056894
vn 0.412956 -0.910454 -0.023245
vn -0.292624 -0.955873 0.026030
vn -0.888550 -0.446496 0.105451
vn -0.946424 0.315884 0.067076
vn -0.449924 0.893005 -0.010517
vn 0.310113 0.947161 -0.081950
vn 0.888570 0.446461 -0.105431
vn 0.663162 -0.153815 0.732501
vn 0.752124 -0.228053 -0.618305
vn 0.411695 -0.681928 -0.604551
vn -0.253508 -0.746787 -0.614851
g fff00789_00169_002d44d7_e0
f 159/54/159 175/51/175 166/50/166
f 166/50/166 167/53/167 159/54/159
f 175/51/175 174/52/174 165/49/165
f 165/49/165 166/50/166 175/51/175
f 174/48/174 173/46/173 164/43/164
f 164/43/164 165/47/165 174/48/174
f 164/43/164 163/44/163 171/45/171
f 164/43/164 173/46/173 163/44/163
f 168/23/168 159/19/159 167/22/167
f 168/23/168 160/20/160 159/19/159
f 169/24/169 160/20/160 168/23/168
f 169/24/169 161/21/161 160/20/160
f 170/8/170 161/4/161 169/7/169
f 170/8/170 162/5/162 161/4/161
f 171/9/171 162/5/162 170/8/170
f 171/9/171 163/6/163 162/5/162
f 172/30/172 171/29/171 157/26/157
f 172/30/172 164/27/164 171/29/171
f 151/25/151 164/27/164 172/30/172
f 151/25/151 165/28/165 164/27/164
f 152/11/152 165/13/165 151/10/151
f 152/11/152 166/14/166 165/13/165
f 153/12/153 166/14/166 152/11/152
f 153/12/153 167/15/167 166/14/166
f 154/17/154 167/22/167 153/16/153
f 154/17/154 168/23/168 167/22/167
f 155/18/155 168/23/168 154/17/154
f 155/18/155 169/24/169 168/23/168
f 156/37/156 169/38/169 155/39/155
f 156/37/156 170/40/170 169/38/169
f 157/41/157 170/40/170 156/37/156
f 157/41/157 171/42/171 170/40/170
f 158/35/158 172/36/172 157/3/157
f 158/35/158 151/31/151 172/36/172
f 158/35/158 152/32/152 151/31/151
f 158/35/158 153/33/153 152/32/152
f 158/35/158 154/34/154 153/33/153
f 158/35/158 155/1/155 154/34/154
f 158/35/158 156/2/156 155/1/155
f 158/35/158 157/3/157 156/2/156
f 8/35/8 7/3/7 6/2/6
f 8/35/8 6/2/6 5/1/5
f 8/35/8 5/1/5 4/34/4
f 8/35/8 4/34/4 3/33/3
f 8/35/8 3/33/3 2/32/2
f 8/35/8 2/32/2 1/31/1
f 8/35/8 1/31/1 22/36/22
f 8/35/8 22/36/22 7/3/7
f 7/41/7 21/42/21 20/40/20
f 7/41/7 20/40/20 6/37/6
f 6/37/6 20/40/20 19/38/19
f 6/37/6 19/38/19 5/39/5
f 5/18/5 19/24/19 18/23/18
f 5/18/5 18/23/18 4/17/4
f 4/17/4 18/23/18 17/22/17
f 4/17/4 17/22/17 3/16/3
f 3/12/3 17/15/17 16/14/16
f 3/12/3 16/14/16 2/11/2
f 2/11/2 16/14/16 15/13/15
f 2/11/2 15/13/15 1/10/1
f 1/25/1 15/28/15 14/27/14
f 1/25/1 14/27/14 22/30/22
f 22/30/22 14/27/14 21/29/21
f 22/30/22 21/29/21 7/26/7
f 21/9/21 13/6/13 12/5/12
f 21/9/21 12/5/12 20/8/20
f 20/8/20 12/5/12 11/4/11
f 20/8/20 11/4/11 19/7/19
f 19/24/19 11/21/11 10/20/10
f 19/24/19 10/20/10 18/23/18
f 18/23/18 10/20/10 9/19/9
f 18/23/18 9/19/9 17/22/17
f 14/43/14 23/46/23 13/44/13
f 14/43/14 13/44/13 21/45/21
f 14/43/14 15/47/15 24/48/24
f 24/48/24 23/46/23 14/43/14
f 15/49/15 16/50/16 25/51/25
f 25/51/25 24/52/24 15/49/15
f 16/50/16 17/53/17 9/54/9
f 9/54/9 25/51/25 16/50/16
f 34/54/34 50/51/50 41/50/41
f 41/50/41 42/53/42 34/54/34
f 50/51/50 49/52/49 40/49/40
f 40/49/40 41/50/41 50/51/50
f 49/48/49 48/46/48 39/43/39
f 39/43/39 40/47/40 49/48/49
f 39/43/39 38/44/38 46/45/46
f 39/43/39 48/46/48 38/44/38
f 43/23/43 34/19/34 42/22/42
f 43/23/43 35/20/35 34/19/34
f 44/24/44 35/20/35 43/23/43
f 44/24/44 36/21/36 35/20/35
f 45/8/45 36/4/36 44/7/44
f 45/8/45 37/5/37 36/4/36
f 46/9/46 37/5/37 45/8/45
f 46/9/46 38/6/38 37/5/37
f 47/30/47 46/29/46 32/26/32
f 47/30/47 39/27/39 46/29/46
f 26/25/26 39/27/39 47/30/47
f 26/25/26 40/28/40 39/27/39
f 27/11/27 40/13/40 26/10/26
f 27/11/27 41/14/41 40/13/40
f 28/12/28 41/14/41 27/11/27
f 28/12/28 42/15/42 41/14/41
f 29/17/29 42/22/42 28/16/28
f 29/17/29 43/23/43 42/22/42
f 30/18/30 43/23/43 29/17/29
f 30/18/30 44/24/44 43/23/43
f 31/37/31 44/38/44 30/39/30
f 31/37/31 45/40/45 44/38/44
f 32/41/32 45/40/45 31/37/31
f 32/41/32 46/42/46 45/40/45
f 33/35/33 47/36/47 32/3/32
f 33/35/33 26/31/26 47/36/47
f 33/35/33 27/32/27 26/31/26
f 33/35/33 28/33/28 27/32/27
f 33/35/33 29/34/29 28/33/28
f 33/35/33 30/1/30 29/34/29
f 33/35/33 31/2/31 30/1/30
f 33/35/33 32/3/32 31/2/31
f 84/54/84 100/51/100 91/50/91
f 91/50/91 92/53/92 84/54/84
f 100/51/100 99/52/99 90/49/90
f 90/49/90 91/50/91 100/51/100
f 99/48/99 98/46/98 89/43/89
f 89/43/89 90/47/90 99/48/99
f 89/43/89 88/44/88 96/45/96
f 89/43/89 98/46/98 88/44/88
f 93/23/93 84/19/84 92/22/92
f 93/23/93 85/20/85 84/19/84
f 94/24/94 85/20/85 93/23/93
f 94/24/94 86/21/86 85/20/85
f 95/8/95 86/4/86 94/7/94
f 95/8/95 87/5/87 86/4/86
f 96/9/96 87/5/87 95/8/95
f 96/9/96 88/6/88 87/5/87
f 97/30/97 96/29/96 82/26/82
f 97/30/97 89/27/89 96/29/96
f 76/25/76 89/27/89 97/30/97
f 76/25/76 90/28/90 89/27/89
f 77/11/77 90/13/90 76/10/76
f 77/11/77 91/14/91 90/13/90
f 78/12/78 91/14/91 77/11/77
f 78/12/78 92/15/92 91/14/91
f 79/17/79 92/22/92 78/16/78
f 79/17/79 93/23/93 92/22/92
f 80/18/80 93/23/93 79/17/79
f 80/18/80 94/24/94 93/23/93
f 81/37/81 94/38/94 80/39/80
f 81/37/81 95/40/95 94/38/94
f 82/41/82 95/40/95 81/37/81
f 82/41/82 96/42/96 95/40/95
f 83/35/83 97/36/97 82/3/82
f 83/35/83 76/31/76 97/36/97
f 83/35/83 77/32/77 76/31/76
f 83/35/83 78/33/78 77/32/77
f 83/35/83 79/34/79 78/33/78
f 83/35/83 80/1/80 79/34/79
f 83/35/83 81/2/81 80/1/80
f 83/35/83 82/3/82 81/2/81
f 58/35/58 57/3/57 56/2/56
f 58/35/58 56/2/56 55/1/55
f 58/35/58 55/1/55 54/34/54
f 58/35/58 54/34/54 53/33/53
f 58/35/58 53/33/53 52/32/52
f 58/35/58 52/32/52 51/31/51
f 58/35/58 51/31/51 72/36/72
f 58/35/58 72/36/72 57/3/57
f 57/41/57 71/42/71 70/40/70
f 57/41/57 70/40/70 56/37/56
f 56/37/56 70/40/70 69/38/69
f 56/37/56 69/38/69 55/39/55
f 55/18/55 69/24/69 68/23/68
f 55/18/55 68/23/68 54/17/54
f 54/17/54 68/23/68 67/22/67
f 54/17/54 67/22/67 53/16/53
f 53/12/53 67/15/67 66/14/66
f 53/12/53 66/14/66 52/11/52
f 52/11/52 66/14/66 65/13/65
f 52/11/52 65/13/65 51/10/51
f 51/25/51 65/28/65 64/27/64
f 51/25/51 64/27/64 72/30/72
f 72/30/72 64/27/64 71/29/71
f 72/30/72 71/29/71 57/26/57
f 71/9/71 63/6/63 62/5/62
f 71/9/71 62/5/62 70/8/70
f 70/8/70 62/5/62 61/4/61
f 70/8/70 61/4/61 69/7/69
f 69/24/69 61/21/61 60/20/60
f 69/24/69 60/20/60 68/23/68
f 68/23/68 60/20/60 59/19/59
f 68/23/68 59/19/59 67/22/67
f 64/43/64 73/46/73 63/44/63
f 64/43/64 63/44/63 71/45/71
f 64/43/64 65/47/65 74/48/74
f 74/48/74 73/46/73 64/43/64
f 65/49/65 66/50/66 75/51/75
f 75/51/75 74/52/74 65/49/65
f 66/50/66 67/53/67 59/54/59
f 59/54/59 75/51/75 66/50/66
f 134/54/134 150/51/150 141/50/141
f 141/50/141 142/53/142 134/54/134
f 150/51/150 149/52/149 140/49/140
f 140/49/140 141/50/141 150/51/150
f 149/48/149 148/46/148 139/43/139
f 139/43/139 140/47/140 149/48/149
f 139/43/139 138/44/138 146/45/146
f 139/43/139 148/46/148 138/44/138
f 143/23/143 134/19/134 142/22/142
f 143/23/143 135/20/135 134/19/134
f 144/24/144 135/20/135 143/23/143
f 144/24/144 136/21/136 135/20/135
f 145/8/145 136/4/136 144/7/144
f 145/8/145 137/5/137 136/4/136
f 146/9/146 137/5/137 145/8/145
f 146/9/146 138/6/138 137/5/137
f 147/30/147 146/29/146 132/26/132
f 147/30/147 139/27/139 146/29/146
f 126/25/126 139/27/139 147/30/147
f 126/25/126 140/28/140 139/27/139
f 127/11/127 140/13/140 126/10/126
f 127/11/127 141/14/141 140/13/140
f 128/12/128 141/14/141 127/11/127
f 128/12/128 142/15/142 141/14/141
f 129/17/129 142/22/142 128/16/128
f 129/17/129 143/23/143 142/22/142
f 130/18/130 143/23/143 129/17/129
f 130/18/130 144/24/144 143/23/143
f 131/37/131 144/38/144 130/39/130
f 131/37/131 145/40/145 144/38/144
f 132/41/132 145/40/145 131/37/131
f 132/41/132 146/42/146 145/40/145
f 133/35/133 147/36/147 132/3/132
f 133/35/133 126/31/126 147/36/147
f 133/35/133 127/32/127 126/31/126
f 133/35/133 128/33/128 127/32/127
f 133/35/133 129/34/129 128/33/128
f 133/35/133 130/1/130 129/34/129
f 133/35/133 131/2/131 130/1/130
f 133/35/133 132/3/132 131/2/131
f 109/54/109 125/51/125 116/50/116
f 116/50/116 117/53/117 109/54/109
f 125/51/125 124/52/124 115/49/115
f 115/49/115 116/50/116 125/51/125
f 124/48/124 123/46/123 114/43/114
f 114/43/114 115/47/115 124/48/124
f 114/43/114 113/44/113 121/45/121
f 114/43/114 123/46/123 113/44/113
f 118/23/118 109/19/109 117/22/117
f 118/23/118 110/20/110 109/19/109
f 119/24/119 110/20/110 118/23/118
f 119/24/119 111/21/111 110/20/110
f 120/8/120 111/4/111 119/7/119
f 120/8/120 112/5/112 111/4/111
f 121/9/121 112/5/112 120/8/120
f 121/9/121 113/6/113 112/5/112
f 122/30/122 121/29/121 107/26/107
f 122/30/122 114/27/114 121/29/121
f 101/25/101 114/27/114 122/30/122
f 101/25/101 115/28/115 114/27/114
f 102/11/102 115/13/115 101/10/101
f 102/11/102 116/14/116 115/13/115
f 103/12/103 116/14/116 102/11/102
f 103/12/103 117/15/117 116/14/116
f 104/17/104 117/22/117 103/16/103
f 104/17/104 118/23/118 117/22/117
f 105/18/105 118/23/118 104/17/104
f 105/18/105 119/24/119 118/23/118
f 106/37/106 119/38/119 105/39/105
f 106/37/106 120/40/120 119/38/119
f 107/41/107 120/40/120 106/37/106
f 107/41/107 121/42/121 120/40/120
f 108/35/108 122/36/122 107/3/107
f 108/35/108 101/31/101 122/36/122
f 108/35/108 102/32/102 101/31/101
f 108/35/108 103/33/103 102/32/102
f 108/35/108 104/34/104 103/33/103
f 108/35/108 105/1/105 104/34/104
f 108/35/108 106/2/106 105/1/105
f 108/35/108 107/3/107 106/2/106
