# fff044a3_00001_00031f56
o fff044a3_00001_00031f56
v 39.696186 -41.979404 -10.899977
v -32.870579 17.024647 -10.899977
v 39.696186 17.024647 -10.899977
v 38.639709 -42.828800 1.410697
v -31.622166 15.697239 1.410697
v 38.639709 15.697239 1.410697
v 14.736462 17.024647 -10.899977
v 14.729279 17.024647 -4.172542
v -17.379761 17.024647 -10.899977
v -17.267670 17.024647 -4.172542
v -32.870579 -12.186394 -10.899979
v -38.048008 -21.234848 -10.899979
v -36.694096 -22.084244 1.410697
v -31.622166 -13.035789 1.410697
v -36.685413 -16.038378 -10.899979
v -35.359261 -16.887774 1.410697
v -36.346470 -19.321690 1.410697
v -37.693157 -18.472294 -10.899979
v -35.052578 -13.873742 -10.899979
v -33.759705 -14.723138 1.410697
v -17.379761 17.024647 -8.519838
v -32.870579 17.024647 -8.519838
v -32.870579 -12.186394 -8.519838
v -35.052578 -13.873742 -8.519838
v -36.685413 -16.038378 -8.519838
v -37.693157 -18.472294 -8.519838
v -38.048008 -21.234848 -8.519838
v -43.484886 -39.540947 -8.519838
v 14.736462 17.024647 -8.519838
v 39.696186 17.024647 -8.519838
v 39.696186 -41.979404 -8.519838
v 39.696186 10.699890 -10.899977
v 39.696186 10.699890 -8.519838
v 39.696186 10.699890 -7.014041
v 39.696186 -27.423714 -7.014041
v 39.696186 -27.423714 -8.519838
v 39.696186 -27.423714 -10.899977
v 40.586445 10.699890 -10.899977
v 40.619678 10.699890 -8.519838
v 40.619678 10.699890 -7.455264
v -21.936272 -49.292126 -10.899977
v -20.607046 -50.141521 1.410697
v -21.936272 -36.139427 -10.899979
v -20.607046 -35.469643 1.410697
v -21.936272 -36.139423 -8.519838
v -21.936272 -49.292122 -8.519838
v -5.116997 -48.765053 -10.899977
v -5.702211 -49.614449 1.410697
v -5.116997 -36.802750 -10.899979
v -5.702211 -36.132965 1.410697
v -5.116997 -36.802746 -8.519838
v -5.116997 -48.765049 -8.519838
v 39.696186 17.024647 -4.260785
v -32.870579 17.024647 -4.260785
v -32.870579 -12.186394 -4.278865
v -43.484886 -21.234848 -10.899979
v -42.443771 -22.084244 1.410697
v -43.484886 -39.540947 -10.899979
v -42.443771 -40.390343 1.410697
v -43.484886 -21.234848 -8.519838
v -35.052578 -13.873742 -4.278865
v -36.685413 -16.038378 -4.278865
v -37.693157 -18.472294 -4.278865
v -38.048008 -21.234848 -4.278865
v -43.484886 -21.234848 -4.278865
v -43.484886 -39.540947 -4.278865
v -21.936272 -36.139427 -4.278865
v -21.936272 -49.292122 -4.278865
v -5.116997 -36.802750 -4.278865
v -5.116997 -48.765049 -4.278865
v 39.696186 -41.979404 -4.278865
v 38.639709 15.697239 -4.260785
v -31.622166 15.697239 -4.260785
v -31.622166 -13.035789 -4.278865
v -33.759705 -14.723138 -4.278865
v -35.359261 -16.887774 -4.278865
v -36.346470 -19.321690 -4.278865
v -36.694096 -22.084244 -4.278865
v -42.443771 -22.084244 -4.278865
v -42.443771 -40.390343 -4.278865
v -20.607046 -35.469643 -4.278865
v -20.607046 -50.141518 -4.278865
v -5.702211 -36.132965 -4.278865
v -5.702211 -49.614445 -4.278865
v 38.639709 -42.828800 -4.278865
v -4.800749 -42.821869 1.410697
v -4.800749 -36.132965 1.410697
v -5.050392 -36.802746 -8.519838
v -5.050392 -42.821869 -8.519838
v -5.050392 -36.802750 -4.278865
v -5.050392 -42.821869 -4.278865
v -4.800749 -36.132965 -4.278865
v -4.800749 -42.821869 -4.278865
v -31.622166 15.697239 -2.585838
v -31.622166 -13.035789 -2.585838
v -33.759705 -14.723138 -2.585838
v -35.359261 -16.887774 -2.585838
v -36.346470 -19.321690 -2.585838
v -36.694096 -22.084244 -2.585838
v -42.443771 -22.084244 -2.585838
v -42.443771 -40.390343 -2.585838
v 38.639709 15.697239 -2.585838
v 38.639709 -42.828800 -2.585838
v -32.870579 1.874939 -10.899978
v -32.870579 1.874939 -8.519838
v -32.870579 1.874939 -4.269825
v -31.622166 1.874939 -4.269825
v -31.622166 1.874939 -2.585838
v -31.622166 1.874939 1.410697
v -17.267670 15.697239 -4.260785
v -17.267670 15.697239 -2.548491
v -17.211975 15.697239 1.410697
v 14.729279 15.697239 -4.260785
v 14.729279 15.697239 -2.548491
v 14.759430 15.697239 1.410697
v -17.267670 17.013836 -2.172553
v 14.729279 17.039616 -2.172553
v 39.696186 -8.726372 -7.014041
v 39.696186 -8.726372 -4.268663
v 38.639709 -8.726372 -4.268332
v 38.639709 -8.726372 -2.585838
v 38.639709 -8.726372 1.410697
v -43.484886 -39.540947 -6.483739
v -43.484886 -21.234848 -6.483739
v -38.048008 -21.234848 -6.483739
v -37.693157 -18.472294 -6.483739
v -36.685413 -16.038378 -6.483739
v -35.052578 -13.873742 -6.483739
v -32.870579 -12.186394 -6.483739
v -32.870579 1.874939 -6.483739
v -32.870579 17.024647 -6.483739
v -17.312702 17.024647 -6.483739
v 14.733042 17.024647 -5.927704
v 39.696186 17.024647 -5.927704
v 39.696186 -8.726372 -5.927704
v 39.696186 -41.979404 -5.927704
v 39.696186 -27.344635 -5.927704
v 39.696186 -27.344635 -4.274389
v 39.696186 10.776260 -5.927704
v 39.696186 10.776260 -4.262708
v 39.696186 1.528458 -7.014041
v 39.696186 1.528030 -5.927704
v 39.696186 1.528030 -4.265526
v 39.696186 -18.650665 -7.014041
v 39.696186 -18.650665 -5.927704
v 39.696186 -18.650665 -4.271750
v -32.870579 -5.912292 -10.899979
v -32.870579 -5.912292 -8.519838
v -32.870579 -5.912292 -6.483739
v -32.870579 -5.912292 -4.274860
v -32.870579 9.367355 -10.899977
v -32.870579 9.367355 -8.519838
v -32.870579 9.367355 -6.483739
v -32.870579 9.367355 -4.265318
v 38.639709 -27.364799 -4.274095
v 38.639709 -27.364799 -2.585838
v 38.639709 -27.364799 1.410697
v -42.443771 -24.559622 1.410697
v -42.443771 -24.575659 -2.585838
v -42.443771 -24.582451 -4.278865
v -43.484886 -24.426434 -4.278865
v -43.484886 -24.435282 -6.483739
v -43.484886 -24.442022 -8.163120
v -43.484886 -24.443455 -8.519838
v -43.484886 -24.445129 -8.937236
v -43.484886 -24.453005 -10.899979
v 39.696186 -35.416412 -10.899977
v 39.696186 -35.416412 -8.519838
v 39.696186 -35.416412 -6.306802
v 39.696186 -35.416412 -4.277308
v 38.639709 -35.416412 -4.276985
v 38.639709 -35.416412 -2.585838
v 38.639709 -35.416412 1.410697
v 38.639709 -18.650665 -4.271438
v 38.639709 -18.650665 -2.585838
v 38.639709 -18.650665 1.410697
v 38.639709 10.776260 -4.262306
v 38.639709 10.776260 -2.585838
v 38.639709 10.776260 1.410697
v 38.639709 1.528030 -4.265175
v 38.639709 1.528030 -2.585838
v 38.639709 1.528030 1.410697
vt 0.000000 0.000000
vt 1.000000 0.000000
vt 0.000000 1.000000
vt 1.000000 1.000000
vt 0.000000 0.000000
vt 1.000000 0.000000
vt 0.000000 1.000000
vt 1.000000 1.000000
vt 0.360765 0.000000
vt 0.365132 0.365132
vt 0.735520 0.000000
vt 0.500450 0.000000
vt 0.486383 0.486383
vt 0.798465 0.000000
vt 0.649457 0.000000
vt 0.641688 0.282731
vt 0.574953 0.000000
vt 0.571069 0.141365
vt 0.608321 0.141365
vt 0.612205 0.000000
vt 0.537702 0.000000
vt 0.535759 0.070683
vt 0.686709 0.000000
vt 0.854066 0.448223
vt 0.756274 0.078470
vt 0.974805 0.077384
vt 0.000000 0.106210
vt 0.060019 0.060019
vt 0.498958 0.051591
vt 0.504402 0.007911
vt 0.537487 0.007819
vt 0.574480 0.017222
vt 0.541344 0.015431
vt 0.579099 0.017565
vt 0.611730 0.017316
vt 0.644008 0.018727
vt 0.648441 0.036984
vt 0.653641 0.017727
vt 0.686209 0.018193
vt 0.827035 0.141765
vt 1.000000 0.132022
vt 0.361607 0.070386
vt 0.074458 0.074458
vt 0.000000 0.121621
vt 1.000000 0.121621
vt 0.123353 0.123353
vt 0.895231 0.000000
vt 0.896059 0.108979
vt 0.909050 0.121800
vt 0.921975 0.246602
vt 0.332467 0.155625
vt 0.326908 0.122951
vt 0.322513 0.119648
vt 0.896059 0.108979
vt 0.909050 0.121800
vt 0.921975 0.246602
vt 0.905141 0.529319
vt 0.043859 0.454821
vt 1.000000 0.477921
vt 0.985591 0.472365
vt 0.000000 0.488851
vt 0.233592 0.233592
vt 0.198007 0.260979
vt 0.494047 0.221380
vt 0.649457 0.000000
vt 0.653641 0.017727
vt 0.686709 0.000000
vt 0.641688 0.282731
vt 0.682824 0.141365
vt 0.648441 0.036984
vt 0.513533 0.059152
vt 0.536807 0.032539
vt 0.550674 0.060261
vt 0.573129 0.066386
vt 0.587985 0.066763
vt 0.629645 0.068086
vt 0.643081 0.124224
vt 0.645640 0.138918
vt 0.645638 0.139001
vt 0.661672 0.077152
vt 0.848710 0.249312
vt 0.972965 0.245254
vt 1.000000 0.372580
vt 0.845732 0.234534
vt 0.978680 0.221316
vt 1.000000 0.323341
vt 0.948776 0.505386
vt 0.550774 0.431766
vt 0.000000 0.000000
vt 0.989472 0.615469
vt 0.992796 0.736183
vt 0.000000 0.744425
vt 0.243192 0.487617
vt 0.490215 0.353882
vt 0.342195 0.373681
vt 0.514903 0.146031
vt 0.524646 0.064918
vt 0.536283 0.051611
vt 0.553938 0.086952
vt 0.560871 0.100813
vt 0.572099 0.103876
vt 0.590725 0.103876
vt 0.618983 0.104726
vt 0.598153 0.104064
vt 0.635666 0.175408
vt 0.643677 0.210331
vt 0.642384 0.203477
vt 0.643664 0.210824
vt 0.643663 0.210866
vt 0.664231 0.140183
vt 0.914114 0.675267
vt 0.626366 0.626366
vt 0.975982 0.768083
vt 0.682585 0.682585
vt 0.750417 0.684298
vt 0.250225 0.000000
vt 0.280234 0.030009
vt 0.279488 0.055805
vt 0.099003 0.183594
vt 0.099003 0.374915
vt 0.000000 0.000000
vt 0.000000 0.000000
vt 0.099003 0.374915
vt 0.000000 0.000000
vt 0.220599 0.374298
vt 0.292693 0.430649
vt 0.243192 0.615404
vt 0.243192 0.743192
vt 0.000000 0.000000
vt 0.958704 0.467430
vt 0.964321 0.677079
vt 0.976558 0.723611
vt 0.923718 0.923718
vt 0.795518 1.000000
vt 0.000000 0.000000
vt 0.901254 0.546170
vt 0.753447 0.753447
vt 0.935572 0.676041
vt 0.395102 0.967372
vt 0.339593 1.000000
vt 0.000000 0.000000
vt 0.000000 0.000000
vt 0.620586 0.200089
vt 0.590819 0.302242
vt 0.775360 0.473308
vt 0.000000 0.000000
vt 0.000000 0.000000
vt 0.782628 0.474653
vt 0.798191 0.627460
vt 0.881646 0.733042
vt 0.867654 0.867750
vt 0.583834 1.000136
vt 0.675064 0.042801
vt 0.654797 0.056280
vt 0.646893 0.093301
vt 0.646807 0.096447
vt 0.645464 0.085440
vt 0.643557 0.070068
vt 0.636318 0.045152
vt 0.583856 0.043904
vt 0.581256 0.042078
vt 0.546163 0.038588
vt 0.573782 0.042618
vt 0.543610 0.032170
vt 0.537142 0.020355
vt 0.509032 0.033896
vt 0.506257 0.055378
vt 0.496436 0.138781
vt 0.362687 0.145052
vt 0.145104 0.219628
vt 0.258116 0.138592
vt 0.099003 0.305374
vt 0.043031 0.356173
vt 0.981363 0.317538
vt 0.000000 0.338860
vt 0.915448 0.259692
vt 0.212857 0.212857
vt 0.060803 0.244194
vt 0.023096 0.297084
vt 1.000000 0.309249
vt 0.933702 0.359831
vt 0.683433 0.388093
vt 0.572408 0.361791
vt 0.410466 0.254288
vt 0.481958 0.301747
vt 0.608912 0.412626
vt 0.649310 0.449992
vt 0.000000 0.000000
vt 0.989351 0.318606
vt 0.884188 0.476824
vt 0.906697 0.497602
vt 0.000000 0.000000
vt 0.780297 0.224737
vt 0.927522 0.300226
vt 0.938141 0.294535
vt 0.788609 0.434585
vt 0.832568 0.475152
vt 0.844407 0.486080
vt 0.000000 0.000000
vt 0.454038 0.224618
vt 0.445093 0.252397
vt 0.643672 0.401183
vt 0.524148 0.329754
vt 0.686222 0.440668
vt 0.707995 0.460847
vt 0.387743 0.000000
vt 0.401222 0.013522
vt 0.400820 0.053476
vt 0.401154 0.041941
vt 0.325588 0.105256
vt 0.316236 0.142183
vt 0.174440 0.242558
vt 0.154149 0.311451
vt 0.000000 0.000000
vt 0.125902 0.000000
vt 0.156117 0.029695
vt 0.050120 0.145385
vt 0.171501 0.044827
vt 0.021918 0.233531
vt 0.021985 0.347706
vt 0.050280 0.395670
vt 0.049646 0.431716
vt 0.000000 0.000000
vt 0.000000 0.000000
vt 0.655801 0.451154
vt 0.772080 0.658524
vt 0.766549 0.766549
vt 0.264876 1.000000
vt 0.647250 0.263615
vt 0.646462 0.201246
vt 0.647826 0.130560
vt 0.000000 0.000000
vt 0.000000 0.000000
vt 0.648433 0.128218
vt 0.648275 0.086828
vt 0.649554 0.040365
vt 0.657395 0.022120
vt 0.659350 0.017809
vt 0.659440 0.014618
vt 0.659440 0.014618
vt 0.656006 0.000000
vt 0.145417 0.053948
vt 0.215134 0.123172
vt 0.387561 0.215395
vt 0.582967 0.453216
vt 0.594952 0.439929
vt 0.000000 0.000000
vt 0.000000 0.000000
vt 0.601069 0.440999
vt 0.760801 0.671944
vt 0.722832 0.722832
vt 0.126964 1.000000
vt 0.000000 0.000000
vt 0.715097 0.462137
vt 0.000000 0.000000
vt 0.813864 0.813864
vt 0.784288 0.644000
vt 0.414137 1.000000
vt 0.000000 0.000000
vt 0.915300 0.499193
vt 0.956975 0.761023
vt 0.940160 0.739749
vt 0.916208 1.000000
vt 0.000000 0.000000
vt 0.852386 0.487555
vt 0.921254 0.747754
vt 0.872837 0.686501
vt 0.977377 0.874347
vn -1.000000 0.000000 0.000000
vn 0.707107 -0.707107 0.000000
vn -0.707107 -0.707107 0.000000
vn -1.000000 0.000000 0.000000
vn 0.707107 -0.707107 0.000000
vn -0.707107 -0.707107 0.000000
vn 0.000000 -1.000000 0.000000
vn -0.608509 -0.541770 -0.579830
vn 0.000000 -1.000000 0.000000
vn 0.607686 -0.538742 -0.583502
vn 0.897701 -0.440606 0.000000
vn 0.660529 -0.750801 0.000000
vn 0.661494 -0.749950 0.000000
vn 0.899890 -0.436118 0.000000
vn 0.868113 -0.496366 0.000000
vn 0.872324 -0.488928 0.000000
vn 0.967599 -0.252490 0.000000
vn 0.966351 -0.257227 0.000000
vn 0.711332 -0.702856 0.000000
vn 0.718276 -0.695758 0.000000
vn 0.000000 -1.000000 0.000000
vn 0.707107 -0.707107 0.000000
vn 0.897701 -0.440606 0.000000
vn 0.711332 -0.702856 0.000000
vn 0.868113 -0.496366 0.000000
vn 0.966351 -0.257227 0.000000
vn 0.660529 -0.750801 0.000000
vn 1.000000 0.000000 0.000000
vn 0.000000 -1.000000 0.000000
vn -0.707107 -0.707107 0.000000
vn -1.000000 0.000000 0.000000
vn -0.707107 -0.707107 0.000000
vn -0.707107 -0.707107 0.000000
vn -0.972662 -0.232224 0.000000
vn -1.000000 0.000000 0.000000
vn -1.000000 0.000000 0.000000
vn -1.000000 0.000000 0.000000
vn 0.000000 -1.000000 0.000000
vn 0.000000 -1.000000 0.000000
vn 0.000000 -1.000000 0.000000
vn 1.000000 0.000000 0.000000
vn 1.000000 0.000000 0.000000
vn 1.000000 0.000000 0.000000
vn 1.000000 0.000000 0.000000
vn 1.000000 0.000000 0.000000
vn 1.000000 0.000000 0.000000
vn -1.000000 0.000000 0.000000
vn -1.000000 0.000000 0.000000
vn -1.000000 0.000000 0.000000
vn -1.000000 0.000000 0.000000
vn -1.000000 0.000000 0.000000
vn -1.000000 0.000000 0.000000
vn -0.578019 -0.577163 -0.576868
vn 0.578346 -0.577013 -0.576691
vn 0.512909 -0.251307 -0.820834
vn 0.707107 -0.707107 0.000000
vn 0.707107 -0.707107 0.000000
vn 1.000000 0.000000 0.000000
vn 1.000000 0.000000 0.000000
vn 0.707107 -0.707107 0.000000
vn 0.522602 -0.516375 -0.678413
vn 0.636746 -0.364075 -0.679709
vn 0.709823 -0.188944 -0.678565
vn 0.302182 -0.343480 -0.889217
vn 0.577350 -0.577350 -0.577350
vn 0.571558 0.000000 -0.820562
vn 0.610553 0.000000 -0.791975
vn 0.591828 0.000000 -0.806064
vn -0.543902 0.000000 -0.839149
vn -0.526225 0.000000 -0.850345
vn -0.572945 0.000194 -0.819594
vn -0.303266 -0.299505 -0.904614
vn 0.304422 -0.297864 -0.904768
vn 0.705454 -0.341744 -0.620923
vn 0.484513 -0.469324 -0.738229
vn 0.590165 -0.330780 -0.736403
vn 0.653464 -0.170518 -0.737501
vn 0.536866 -0.608656 -0.584220
vn 0.301511 -0.301511 -0.904534
vn 0.870890 0.000000 -0.491478
vn 0.818133 0.000000 -0.575029
vn 0.843033 0.000000 -0.537862
vn -0.909467 0.000000 -0.415776
vn -0.933517 0.000000 -0.358533
vn -0.869179 0.000119 -0.494498
vn 1.000000 0.000000 0.000000
vn 1.000000 0.000000 0.000000
vn 1.000000 0.000000 0.000000
vn 1.000000 0.000000 0.000000
vn 0.491291 0.000000 -0.870996
vn 0.707107 0.000000 -0.707107
vn 0.975163 0.000000 -0.221487
vn 0.707107 0.000000 -0.707107
vn 0.707107 -0.707107 0.000000
vn 0.899890 -0.436117 0.000000
vn 0.718276 -0.695758 0.000000
vn 0.872324 -0.488928 0.000000
vn 0.967599 -0.252490 0.000000
vn 0.661494 -0.749950 0.000000
vn 0.707107 -0.707107 0.000000
vn 1.000000 0.000000 0.000000
vn -0.707107 -0.707107 0.000000
vn -1.000000 0.000000 0.000000
vn 1.000000 0.000000 0.000000
vn 1.000000 0.000000 0.000000
vn 0.707112 0.000445 -0.707101
vn 0.707101 0.000446 -0.707112
vn 1.000000 0.000000 0.000000
vn 1.000000 0.000000 0.000000
vn 0.573940 -0.559514 -0.597944
vn 0.365248 -0.930910 0.000000
vn 0.000000 -1.000000 0.000000
vn -0.573940 -0.559514 -0.597944
vn -0.364378 -0.931251 0.000000
vn 0.000000 -1.000000 0.000000
vn 1.000000 0.000000 0.000000
vn -1.000000 0.000000 0.000000
vn -1.000000 0.000000 0.000000
vn -0.707217 0.000219 -0.706997
vn -0.707218 0.000219 -0.706995
vn -1.000000 0.000000 0.000000
vn -1.000000 0.000000 0.000000
vn 1.000000 0.000000 0.000000
vn 0.707107 -0.707107 0.000000
vn 0.660529 -0.750801 0.000000
vn 0.966351 -0.257227 0.000000
vn 0.868113 -0.496366 0.000000
vn 0.711332 -0.702856 0.000000
vn 0.897701 -0.440606 0.000000
vn 1.000000 0.000000 0.000000
vn 0.707107 -0.707107 0.000000
vn 0.000000 -1.000000 0.000000
vn 0.000000 -1.000000 0.000000
vn -0.707107 -0.707107 0.000000
vn -1.000000 0.000000 0.000000
vn -1.000000 0.000000 0.000000
vn -1.000000 0.000000 0.000000
vn -0.707201 0.000234 -0.707012
vn -1.000000 0.000000 0.000000
vn -0.707242 0.000217 -0.706972
vn -1.000000 0.000000 0.000000
vn -1.000000 0.000000 0.000000
vn -0.707224 0.000218 -0.706989
vn -1.000000 0.000000 0.000000
vn -1.000000 0.000000 0.000000
vn -0.707212 0.000217 -0.707001
vn 1.000000 0.000000 0.000000
vn 1.000000 0.000000 0.000000
vn 1.000000 0.000000 0.000000
vn 0.707277 0.000457 -0.706936
vn 1.000000 0.000000 0.000000
vn 1.000000 0.000000 0.000000
vn 1.000000 0.000000 0.000000
vn 0.707312 0.000425 -0.706901
vn -0.707213 0.000235 -0.707000
vn -1.000000 0.000000 0.000000
vn -1.000000 0.000000 0.000000
vn 1.000000 0.000000 0.000000
vn 1.000000 0.000000 0.000000
vn 0.707107 0.000000 -0.707107
vn 0.707107 0.000000 -0.707107
vn 1.000000 0.000000 0.000000
vn 1.000000 0.000000 0.000000
vn 1.000000 0.000000 0.000000
vn 1.000000 0.000000 0.000000
vn 1.000000 0.000000 0.000000
vn -1.000000 0.000000 0.000000
vn -1.000000 0.000000 0.000000
vn -1.000000 0.000000 0.000000
vn -0.707227 0.000217 -0.706986
vn -0.707203 0.000217 -0.707011
vn -1.000000 0.000000 0.000000
vn -1.000000 0.000000 0.000000
vn -0.707211 0.000217 -0.707003
vn -1.000000 0.000000 0.000000
vn -1.000000 0.000000 0.000000
vn -0.707241 0.000217 -0.706973
vn -1.000000 0.000000 0.000000
vn -1.000000 0.000000 0.000000
vn -0.707224 0.000219 -0.706990
vn -1.000000 0.000000 0.000000
vn -1.000000 0.000000 0.000000
g fff044a3_00001_00031f56_e0
f 34/50/34 33/49/33 39/55/39
f 128/165/128 127/164/127 24/31/24
f 23/29/23 128/166/128 24/30/24
f 10/24/10 131/174/131 132/176/132
f 125/156/125 60/70/60 27/37/27
f 124/155/124 60/70/60 125/156/125
f 21/25/21 132/176/132 22/26/22
f 8/10/8 133/177/133 53/58/53
f 24/31/24 127/162/127 25/33/25
f 39/55/39 40/56/40 34/50/34
f 129/168/129 128/167/128 23/29/23
f 29/43/29 30/44/30 133/178/133
f 65/79/65 124/155/124 64/78/64
f 55/64/55 61/71/61 128/167/128
f 124/155/124 125/156/125 64/78/64
f 132/176/132 131/174/131 22/26/22
f 55/64/55 128/167/128 129/168/129
f 61/72/61 62/73/62 127/164/127
f 10/24/10 54/60/54 131/174/131
f 61/72/61 127/164/127 128/165/128
f 133/178/133 134/179/134 53/58/53
f 133/178/133 30/44/30 134/179/134
g fff044a3_00001_00031f56_e1
f 106/120/106 153/221/153 154/222/154
f 148/208/148 129/169/129 23/29/23
f 141/193/141 142/194/142 34/50/34
f 34/50/34 134/180/134 30/45/30
f 88/40/88 90/84/90 89/41/89
f 168/243/168 35/51/35 36/52/36
f 152/219/152 22/27/22 131/175/131
f 51/40/51 52/41/52 69/84/69
f 31/46/31 136/184/136 169/244/169
f 33/49/33 34/50/34 30/45/30
f 69/85/69 52/41/52 70/86/70
f 67/82/67 68/83/68 46/41/46
f 45/40/45 67/81/67 46/41/46
f 60/38/60 163/237/163 164/238/164
f 26/36/26 125/157/125 27/37/27
f 127/163/127 126/161/126 25/32/25
f 55/63/55 149/212/149 150/213/150
f 126/159/126 125/158/125 26/36/26
f 90/85/90 91/86/91 89/41/89
f 35/51/35 137/185/137 144/201/144
f 25/32/25 126/160/126 26/34/26
f 162/235/162 123/154/123 163/236/163
f 145/204/145 146/205/146 119/145/119
f 137/186/137 138/187/138 145/204/145
f 62/74/62 126/161/126 127/163/127
f 161/234/161 66/80/66 123/154/123
f 105/118/105 130/171/130 148/210/148
f 65/79/65 162/235/162 124/155/124
f 106/120/106 130/172/130 153/221/153
f 63/76/63 64/77/64 125/158/125
f 149/211/149 55/62/55 129/169/129
f 63/76/63 125/158/125 126/159/126
f 154/222/154 153/221/153 54/61/54
f 62/74/62 63/75/63 126/161/126
f 34/50/34 139/189/139 134/180/134
f 139/190/139 140/191/140 53/87/53
f 139/189/139 53/59/53 134/180/134
f 137/186/137 170/246/170 138/187/138
f 35/51/35 169/244/169 137/185/137
f 136/184/136 71/88/71 170/245/170
f 135/182/135 145/202/145 119/145/119
f 34/50/34 142/195/142 139/189/139
f 142/197/142 119/145/119 143/198/143
f 135/182/135 119/145/119 142/196/142
f 118/143/118 135/181/135 141/193/141
f 141/193/141 135/181/135 142/194/142
f 142/197/142 143/198/143 140/191/140
f 139/190/139 142/197/142 140/191/140
f 144/200/144 135/183/135 118/144/118
f 144/201/144 145/203/145 135/183/135
f 144/201/144 137/185/137 145/203/145
f 145/204/145 138/187/138 146/205/146
f 149/212/149 130/170/130 106/120/106
f 148/210/148 149/211/149 129/169/129
f 148/210/148 130/171/130 149/211/149
f 150/213/150 149/212/149 106/120/106
f 105/119/105 152/217/152 130/173/130
f 130/173/130 152/219/152 153/220/153
f 153/220/153 152/219/152 131/175/131
f 153/220/153 131/175/131 54/61/54
f 162/235/162 161/234/161 123/154/123
f 65/79/65 161/234/161 162/235/162
f 124/155/124 162/235/162 163/236/163
f 124/155/124 163/236/163 60/70/60
f 163/237/163 123/153/123 164/238/164
f 164/238/164 123/153/123 28/39/28
f 169/244/169 35/51/35 168/243/168
f 31/46/31 169/244/169 168/243/168
f 169/244/169 170/245/170 137/185/137
f 136/184/136 170/245/170 169/244/169
g fff044a3_00001_00031f56_e9
f 8/1/8 53/1/53 72/1/72
f 54/1/54 10/1/10 73/1/73
f 73/1/73 10/1/10 110/129/110
f 8/1/8 72/1/72 113/135/113
f 69/1/69 84/1/84 83/1/83
f 107/124/107 74/89/74 106/122/106
f 61/1/61 74/1/74 75/1/75
f 74/1/74 61/1/61 55/1/55
f 62/1/62 75/1/75 76/1/76
f 75/1/75 62/1/62 61/1/61
f 63/1/63 76/1/76 77/1/77
f 76/1/76 63/1/63 62/1/62
f 64/1/64 77/1/77 78/1/78
f 77/1/77 64/1/64 63/1/63
f 65/1/65 64/1/64 79/1/79
f 78/1/78 79/1/79 64/1/64
f 66/1/66 160/232/160 80/1/80
f 79/1/79 161/233/161 65/1/65
f 73/1/73 154/223/154 54/1/54
f 84/1/84 69/1/69 70/1/70
f 53/1/53 140/192/140 72/1/72
f 177/259/177 72/1/72 140/192/140
f 68/1/68 67/1/67 82/1/82
f 81/1/81 82/1/82 67/1/67
f 90/1/90 92/1/92 93/1/93
f 93/1/93 91/1/91 90/1/90
f 74/89/74 55/1/55 150/214/150
f 73/1/73 107/124/107 106/122/106
f 85/1/85 170/247/170 71/1/71
f 138/188/138 155/224/155 174/253/174
f 170/247/170 171/248/171 138/188/138
f 120/147/120 143/199/143 119/146/119
f 120/147/120 180/264/180 143/199/143
f 171/248/171 155/224/155 138/188/138
f 74/89/74 150/214/150 106/121/106
f 73/1/73 106/122/106 154/223/154
f 174/253/174 120/147/120 119/146/119
f 66/1/66 161/233/161 160/232/160
f 79/1/79 160/232/160 161/233/161
f 85/1/85 171/248/171 170/247/170
f 146/255/146 174/253/174 119/146/119
f 138/188/138 174/253/174 146/255/146
f 143/199/143 177/259/177 140/192/140
f 180/264/180 177/259/177 143/199/143
g fff044a3_00001_00031f56_e3
f 113/136/113 102/111/102 114/138/114
f 112/134/112 114/139/114 115/140/115
f 114/137/114 102/112/102 6/7/6
f 115/140/115 114/139/114 6/7/6
f 29/43/29 3/5/3 30/44/30
f 3/5/3 29/42/29 7/9/7
f 9/11/9 21/25/21 2/6/2
f 21/25/21 22/26/22 2/6/2
f 11/12/11 24/30/24 19/21/19
f 23/29/23 24/30/24 11/12/11
f 19/21/19 25/32/25 15/17/15
f 24/31/24 25/33/25 19/21/19
f 33/49/33 32/48/32 38/54/38
f 38/54/38 39/55/39 33/49/33
f 12/15/12 27/38/27 60/66/60
f 60/66/60 56/65/56 12/15/12
f 111/132/111 5/8/5 94/91/94
f 5/8/5 111/133/111 112/134/112
f 95/96/95 20/22/20 96/97/96
f 99/106/99 13/16/13 57/68/57
f 57/68/57 100/109/100 99/108/99
f 14/13/14 20/22/20 95/94/95
f 96/99/96 16/18/16 97/100/97
f 20/22/20 16/18/16 96/98/96
f 112/134/112 111/133/111 114/139/114
f 96/99/96 97/100/97 76/73/76
f 74/64/74 95/96/95 75/71/75
f 100/109/100 79/79/79 99/108/99
f 95/96/95 96/97/96 75/71/75
f 99/108/99 79/79/79 78/78/78
f 75/72/75 96/99/96 76/73/76
f 72/24/72 102/111/102 113/136/113
f 110/130/110 94/91/94 73/60/73
f 111/131/111 94/91/94 110/130/110
g fff044a3_00001_00031f56_e4
f 14/13/14 108/127/108 109/128/109
f 108/125/108 74/63/74 107/123/107
f 92/85/92 87/90/87 93/86/93
f 37/53/37 168/243/168 36/52/36
f 2/1/2 22/28/22 151/215/151
f 94/93/94 108/125/108 107/123/107
f 151/216/151 22/28/22 152/218/152
f 14/13/14 95/95/95 108/126/108
f 105/117/105 148/209/148 147/207/147
f 155/225/155 172/250/172 156/226/156
f 87/90/87 86/4/86 93/86/93
f 147/207/147 23/29/23 11/12/11
f 1/1/1 31/46/31 167/242/167
f 177/260/177 102/113/102 72/87/72
f 25/32/25 26/34/26 15/17/15
f 45/40/45 46/41/46 41/2/41
f 15/17/15 26/34/26 18/20/18
f 166/241/166 165/240/165 58/67/58
f 60/38/60 164/238/164 165/239/165
f 26/36/26 27/37/27 12/15/12
f 43/14/43 45/40/45 41/2/41
f 18/20/18 26/35/26 12/15/12
f 51/40/51 47/2/47 52/41/52
f 49/14/49 47/2/47 51/40/51
f 83/85/83 84/86/84 48/4/48
f 81/82/81 42/4/42 82/83/82
f 32/47/32 30/45/30 3/2/3
f 32/48/32 33/49/33 30/45/30
f 122/152/122 121/151/121 175/256/175
f 57/68/57 158/229/158 100/109/100
f 16/18/16 17/19/17 97/101/97
f 17/19/17 13/16/13 98/103/98
f 109/128/109 108/127/108 5/3/5
f 108/127/108 94/92/94 5/3/5
f 178/261/178 6/4/6 102/113/102
f 44/57/44 42/4/42 81/82/81
f 50/57/50 83/85/83 48/4/48
f 97/102/97 17/19/17 98/104/98
f 98/105/98 13/16/13 99/107/99
f 100/109/100 159/230/159 79/79/79
f 77/76/77 98/105/98 78/77/78
f 94/93/94 107/123/107 73/61/73
f 97/102/97 98/104/98 77/75/77
f 95/95/95 74/63/74 108/125/108
f 98/105/98 99/107/99 78/77/78
f 76/74/76 97/102/97 77/75/77
f 159/230/159 59/69/59 101/110/101
f 160/231/160 101/110/101 80/80/80
f 116/141/116 110/1/110 10/1/10
f 111/1/111 110/1/110 116/141/116
f 8/1/8 113/1/113 117/142/117
f 117/142/117 113/1/113 114/1/114
f 85/88/85 103/115/103 171/249/171
f 6/4/6 178/151/178 179/263/179
f 178/262/178 102/113/102 177/260/177
f 172/251/172 103/114/103 4/3/4
f 104/116/104 105/117/105 147/206/147
f 148/209/148 23/29/23 147/207/147
f 151/216/151 152/218/152 105/117/105
f 104/116/104 151/216/151 105/117/105
f 174/254/174 121/149/121 120/148/120
f 174/254/174 175/257/175 121/149/121
f 157/228/157 156/227/156 173/252/173
f 122/152/122 175/256/175 176/258/176
f 158/229/158 159/230/159 100/109/100
f 158/229/158 59/69/59 159/230/159
f 159/230/159 160/231/160 79/79/79
f 159/230/159 101/110/101 160/231/160
f 164/238/164 28/39/28 165/239/165
f 165/239/165 28/39/28 58/23/58
f 166/241/166 60/66/60 165/240/165
f 56/65/56 60/66/60 166/241/166
f 167/242/167 31/46/31 168/243/168
f 37/53/37 167/242/167 168/243/168
f 171/249/171 103/115/103 172/250/172
f 155/225/155 171/249/171 172/250/172
f 173/252/173 172/251/172 4/3/4
f 173/252/173 156/227/156 172/251/172
f 155/225/155 156/226/156 174/254/174
f 157/228/157 175/256/175 156/227/156
f 174/254/174 156/226/156 175/257/175
f 176/258/176 175/256/175 157/228/157
f 120/148/120 121/149/121 180/265/180
f 121/150/121 122/4/122 181/266/181
f 180/265/180 178/262/178 177/260/177
f 179/263/179 178/151/178 181/152/181
f 180/265/180 121/149/121 181/267/181
f 181/266/181 122/4/122 182/268/182
f 180/265/180 181/267/181 178/262/178
f 181/266/181 182/268/182 179/261/179
