# fff0ade4_00139_00223c9b
o fff0ade4_00139_00223c9b
v 7.411701 -3.999002 0.569290
v 7.588135 -3.999002 -0.180710
v 7.588135 -17.911295 -0.180710
v 4.802055 -3.999002 0.569290
v 6.175720 13.573635 0.662216
v -6.389111 9.235622 0.662216
v -4.128735 5.741423 0.662216
v -1.528759 9.235622 0.662216
v -1.528759 5.741423 0.662216
v -4.128735 9.235622 0.662216
v 4.124390 6.682207 0.662216
v -3.716320 2.848557 0.662216
v -6.389111 -1.705997 0.662216
v -3.716320 -1.720036 0.662216
v 6.185474 -17.389482 -0.180710
v 6.185474 -5.479528 -0.180710
v 4.845264 -5.479528 -0.180710
v 2.315845 -17.389482 -0.180710
v 2.315845 -13.481705 -0.180710
v -0.178819 -10.282441 -0.180710
v -2.186795 -11.914350 -0.180710
v -1.229340 -11.874410 -0.180710
v -0.109680 -13.481705 -0.180710
v -1.169128 -13.438601 -0.180710
v -1.169128 -17.200960 -0.180710
v -6.923779 -17.200960 -0.180710
v 4.795460 -3.950599 -0.180710
v -7.584362 10.097878 0.662216
v -3.342724 2.264139 0.662216
v -3.342724 -2.246521 0.662216
v -6.675671 -2.246521 0.662216
v -2.135754 6.418680 0.662216
v -3.703197 6.329878 0.662216
v -3.703197 10.097878 0.662216
v -6.773266 10.097878 0.662216
v 7.429188 -3.871393 0.569290
v 4.794666 -3.861412 0.569290
v 4.794666 6.004992 0.662216
v -2.087536 10.097878 0.662216
v 9.530396 6.004992 0.662216
v -2.220093 -10.833000 -0.180710
v 7.588150 -3.999002 -0.569290
v 7.588142 -17.911295 -0.569290
v -2.971213 -10.264490 -0.180710
v -2.900675 -12.557096 -0.180710
v -1.786801 -12.512343 -0.180710
v -0.109680 -17.260029 -0.180710
v 1.744202 -13.481705 -0.180710
v 1.744202 -17.364235 -0.180710
v -0.500367 -10.769610 -0.180710
v 0.500975 -17.911295 -0.180710
v 6.485720 -17.911295 -0.180710
v -7.588164 -17.911295 -0.180710
v 2.211426 -1.235271 0.662216
v -3.397888 -3.999002 0.569290
v -3.397888 -5.479528 -0.180710
v -3.397888 -3.950599 -0.180710
v -7.612740 -3.999002 0.569290
v -7.619335 -3.950599 -0.180710
v -7.620129 -3.871393 0.569290
v -6.785504 -5.479528 -0.180710
v -3.412116 -3.871393 0.569290
v 2.856938 9.235622 0.662216
v 2.154376 10.311302 0.662216
v 6.171448 15.557606 0.662216
v 4.994019 13.935528 0.662216
v 8.633484 6.711224 0.662216
v 9.530396 13.573635 0.662216
v 8.633484 13.573635 0.662216
v 9.394836 15.556555 0.662216
v 8.629822 15.556555 0.662216
v 6.171448 35.112621 1.397598
v 5.171814 35.114006 1.397598
v 9.650940 35.112961 1.397598
v 8.629822 35.112621 1.397598
v 4.124390 2.912958 0.662216
v 2.252869 0.939505 0.662216
v -3.358408 -2.855530 0.662216
v 4.674488 -2.795738 0.662216
v 8.629822 31.145733 1.182043
v 6.171448 31.405676 1.162600
v 5.257568 30.428177 1.271797
v 8.629822 34.396515 1.380336
v 9.620361 34.396515 1.378944
v 6.171448 34.396515 1.373334
v 5.187134 34.396515 1.370119
v 9.549902 19.946426 0.839275
v 8.629822 19.946426 0.839275
v 6.171448 19.946426 0.839275
v 4.994019 19.946426 0.839275
v 6.171448 33.115845 1.215001
v -7.613293 -2.066631 0.662216
v 0.170580 -0.119713 0.662216
v 6.482288 2.262158 0.662216
v -1.239148 1.005616 0.662216
v -1.113104 -1.005456 0.662216
v 8.314575 35.112621 1.397598
v 7.812140 34.396515 1.379440
v 9.549902 31.170580 1.256864
v 5.237408 31.653439 1.299940
v 5.207491 33.318192 1.341702
v 9.549902 22.334038 0.990999
v 5.257568 22.198925 0.974106
v 9.524406 32.582794 1.320697
v 8.629822 32.802544 1.297729
v 9.549902 26.845423 1.158481
v 8.629822 26.846081 1.101445
v 6.171448 26.843571 1.073040
v 5.257568 26.845423 1.176817
v 6.171448 23.702072 0.978618
v 8.629822 23.759153 0.997549
v 9.549902 28.977316 1.208616
v 5.257568 29.062485 1.228223
v 5.257568 24.498857 1.072363
v 9.549902 24.528908 1.083851
v 7.344707 26.845423 1.086597
v 6.171448 28.208107 1.095881
v 8.629822 28.180328 1.124457
v 8.629822 25.423326 1.052706
v 6.171448 25.516663 1.043694
v 7.436525 28.777878 1.130397
v 7.402602 24.874096 0.990052
v 7.402535 23.403193 0.963057
v 7.493735 30.039581 1.157688
v 6.171448 29.790668 1.128902
v 8.629822 29.658955 1.151411
v 7.410336 31.385870 1.172398
v 7.274124 21.656582 0.918780
v 6.171448 21.937412 0.920398
v 8.629822 21.975702 0.938166
v 6.185474 -13.469498 -0.180710
v 7.588135 -13.468000 -0.180710
v -6.807736 -11.163120 -0.180710
v -7.601632 -11.277431 -0.180710
v 6.171448 17.886375 0.662216
v 4.994019 17.886375 0.662216
v 8.629822 17.886375 0.662216
v 9.537306 17.886375 0.662216
v 4.994019 17.982109 0.670444
v 6.171448 17.986723 0.670841
v 8.629822 17.992929 0.671374
v 9.537940 17.990198 0.671140
v 4.994019 15.570110 0.662216
v -2.848339 7.156730 0.662216
v -2.230419 9.556389 0.662216
v 7.504755 5.296465 0.656201
v 7.490020 6.004992 0.662216
v 7.449271 6.703603 0.662216
v 4.301826 2.262598 0.662216
v -2.116394 7.131554 0.662216
v -2.246475 7.868602 0.662216
v -2.183655 7.043896 0.662216
v -2.059937 6.971424 0.662216
v -2.383268 7.664357 0.662216
v -2.468456 9.525082 0.662216
v -1.528759 7.844909 0.662216
v -2.072831 6.352416 0.662216
v -7.599924 3.554240 0.662216
v -6.389111 3.701141 0.662216
v 4.845640 2.702576 0.662216
vt -0.001354 0.000000
vt 0.750000 0.000000
vt 0.750000 0.000000
vt 0.000000 0.000000
vt 0.000000 0.000000
vt 0.000000 0.000000
vt 0.750000 0.000000
vt 0.750003 0.000000
vt 0.750000 0.000000
vt 0.750000 0.000000
vt 0.750000 0.000000
vt 0.750000 0.000000
vt 1.022957 0.000000
vt 0.750000 0.000000
vt 0.750000 0.000000
vt 0.750000 0.000000
vt 0.750000 0.000000
vt 0.750000 0.000000
vt 0.743445 0.000000
vt 0.750000 0.000000
vt 0.750000 0.000000
vt 0.750000 0.000000
vt 0.750000 0.000000
vt 0.750000 0.000000
vt 0.000000 0.000000
vt 0.000000 0.000000
vt 0.000000 0.000000
vt 0.000000 0.000000
vt 0.000000 0.000000
vt 0.000000 0.000000
vt 0.000000 0.000000
vt 0.000000 0.000000
vt 0.000000 0.000000
vt 0.000000 0.000000
vt 0.000000 0.000000
vt 0.000000 0.000000
vt 0.000000 0.000000
vt 0.000000 0.000000
vt 0.000000 0.000000
vt 0.000000 0.000000
vt 0.000000 0.000000
vt 0.000000 0.000000
vt 0.000000 0.000000
vt 0.750000 0.000000
vt 0.750000 0.000000
vt -0.028399 0.000000
vt 0.749999 0.000000
vt 0.750000 0.000000
vt 0.580229 0.000000
vt 0.750000 0.000000
vt 0.750794 0.000000
vt 0.750000 0.000000
vt 0.750000 0.000000
vt 0.750000 0.000000
vt 0.750000 0.000000
vt 0.750000 0.000000
vt 0.750000 0.000000
vt 0.750000 0.000000
vt 0.750000 0.000000
vt 0.750000 0.000000
vt 0.750000 0.000000
vt 0.750000 0.000000
vt 0.750000 0.000000
vt 0.000000 0.000000
vt 0.000000 0.000000
vt 0.000000 0.000000
vt -0.000000 0.000000
vt 0.000000 0.000000
vt 0.000000 0.000000
vt 0.000000 0.000000
vt 0.000000 0.000000
vt 0.000000 0.000000
vt 0.000000 0.000000
vt 0.000000 0.000000
vt 0.000000 0.000000
vt 0.000000 0.000000
vt 0.000000 0.000000
vt 0.000000 0.000000
vt 0.000000 0.000000
vt 0.000000 0.000000
vt 0.000000 0.000000
vt 0.000000 0.000000
vt 0.000000 0.000000
vt 0.000000 0.000000
vt 0.831014 0.000000
vt 0.750000 0.000000
vt 0.000000 0.000000
vt 0.000000 0.000000
vt 0.750000 0.000000
vt 0.750516 0.000000
vt 0.000000 0.000000
vt 0.000000 0.000000
vt 0.656112 0.000000
vt 0.750000 0.000000
vt 0.750000 0.000000
vt 0.750000 0.000000
vt 0.750000 0.000000
vt 0.750000 0.000000
vt 0.750000 0.000000
vt 0.750575 0.000000
vt 0.750001 0.000000
vt 0.748832 0.000000
vt 0.349081 0.000000
vt -2.665475 0.000000
vt -1.915415 0.000000
vt 0.750000 0.000000
vt 0.750000 0.000000
vt 0.421003 0.000000
vt 0.750000 0.000000
vt 0.750000 0.000000
vt 0.606924 0.000000
vt 0.750001 0.000000
vt -1.223262 0.000000
vt -1.886980 0.000000
vt 0.750000 0.000000
vt 0.750000 0.000000
vt -1.804416 0.000000
vt 0.413984 0.000000
vt -2.554451 0.000000
vt 0.750000 0.000000
vt 0.750000 0.000000
vt 0.396097 0.000000
vt 0.193537 0.000000
vt -0.549558 0.000000
vt 0.750000 0.000000
vt 0.750000 0.000000
vt -1.354530 0.000000
vt -1.996983 0.000000
vt 0.750000 0.000000
vt 0.750418 0.000000
vt 0.660107 0.000000
vt 0.750000 0.000000
vt 0.750000 0.000000
vt 0.761359 0.000000
vt 0.715968 0.000000
vt 0.609037 0.000000
vt -2.011598 0.000000
vt -1.900333 0.000000
vt 0.409474 0.000000
vt 0.750000 0.000000
vt 0.750000 0.000000
vt 0.399651 0.000000
vt -0.186551 0.000000
vt -0.890514 0.000000
vt 0.750000 0.000000
vt 0.750000 0.000000
vt 0.411832 0.000000
vt -1.616997 0.000000
vt 0.405839 0.000000
vt -0.856617 0.000000
vt -1.497947 0.000000
vt 0.750000 0.000000
vt 0.750000 0.000000
vt -0.530049 0.000000
vt -1.593495 0.000000
vt -1.087788 0.000000
vt 0.750000 0.000000
vt -0.383981 0.000000
vt -1.778146 0.000000
vt 0.750000 0.000000
vt -1.142625 0.000000
vt 0.407691 0.000000
vt 0.750000 0.000000
vt 0.750000 0.000000
vt 0.403082 0.000000
vt -1.191872 0.000000
vt -1.597163 0.000000
vt 0.750000 0.000000
vt -0.961299 0.000000
vt -0.634897 0.000000
vt -1.370468 0.000000
vt 0.750000 0.000000
vt -1.358180 0.000000
vt -0.744011 0.000000
vt -0.461410 0.000000
vt -1.461802 0.000000
vt -1.686736 0.000000
vt 0.750000 0.000000
vt -1.046172 0.000000
vt -1.618654 0.000000
vt -0.386735 0.000000
vt -0.730309 0.000000
vt 0.750000 0.000000
vt -0.008760 0.000000
vt 0.000000 0.000000
vt 0.000000 0.000000
vt -0.000568 0.000000
vt 0.000000 0.000000
vt 0.000000 0.000000
vt -0.281715 0.000000
vt 0.750000 0.000000
vt 0.750000 0.000000
vt 0.479797 0.000000
vt 0.371840 0.000000
vt 0.750000 0.000000
vt -0.294762 0.000000
vt 0.750000 0.000000
vt 0.464991 0.000000
vt 0.373063 0.000000
vt 0.750000 0.000000
vt 0.750000 0.000000
vt 0.750000 0.000000
vt 0.750000 0.000000
vt 0.750000 0.000000
vt 0.748278 0.000000
vt 0.750000 0.000000
vt 0.750000 0.000000
vt 0.752521 0.000000
vt 0.750000 0.000000
vt 0.750000 0.000000
vt 0.750000 0.000000
vt 0.819515 0.000000
vt 0.750000 0.000000
vt 0.750000 0.000000
vt 0.914318 0.000000
vt 0.750000 0.000000
vt 0.750224 0.000000
vt 0.750000 0.000000
vt 0.750000 0.000000
vt 0.000000 0.000000
vn 0.000000 0.000000 1.000000
vn 0.703203 -0.000000 0.710989
vn 0.707100 0.000000 0.707114
vn 0.000000 0.000000 1.000000
vn 0.000000 0.000000 1.000000
vn 0.000000 0.000000 1.000000
vn 0.000000 0.000000 1.000000
vn 0.000000 0.000000 1.000000
vn 0.000000 0.000000 1.000000
vn 0.000000 0.000000 1.000000
vn 0.000000 0.000000 1.000000
vn 0.000000 0.000000 1.000000
vn 0.000000 0.000000 1.000000
vn 0.000000 0.000000 1.000000
vn 0.000000 0.000000 1.000000
vn 0.000000 0.000000 1.000000
vn 0.000000 0.000000 1.000000
vn 0.000000 0.000000 1.000000
vn 0.000000 0.000000 1.000000
vn 0.000000 0.000000 1.000000
vn 0.000000 0.000000 1.000000
vn -0.000000 0.000000 1.000000
vn 0.000000 0.000000 1.000000
vn 0.000000 0.000000 1.000000
vn 0.000000 0.000000 1.000000
vn 0.000000 0.000000 1.000000
vn 0.000000 0.000000 1.000000
vn 0.000000 0.000000 1.000000
vn 0.000000 0.000000 1.000000
vn 0.000000 0.000000 1.000000
vn -0.002680 -0.028996 0.999576
vn 0.000000 0.000000 1.000000
vn 0.000000 0.000000 1.000000
vn 0.000000 0.000000 1.000000
vn 0.000000 0.000000 1.000000
vn 0.011354 -0.014519 0.999830
vn 0.000051 -0.043624 0.999048
vn 0.000461 -0.000338 1.000000
vn 0.000000 0.000000 1.000000
vn 0.000121 -0.004288 0.999991
vn 0.000000 -0.000000 1.000000
vn 1.000000 -0.000001 0.000039
vn 1.000000 -0.000000 0.000020
vn 0.000000 -0.000000 1.000000
vn 0.000000 0.000000 1.000000
vn 0.000000 0.000000 1.000000
vn 0.000000 0.000000 1.000000
vn 0.000000 0.000000 1.000000
vn 0.000000 0.000000 1.000000
vn -0.000000 -0.000000 1.000000
vn 0.000000 0.000000 1.000000
vn 0.000000 0.000000 1.000000
vn 0.000000 0.000000 1.000000
vn 0.000000 0.000000 1.000000
vn 0.000000 0.000000 1.000000
vn 0.000000 0.000000 1.000000
vn 0.000000 0.000000 1.000000
vn 0.000000 0.000000 1.000000
vn 0.000000 0.000000 1.000000
vn -0.001672 -0.028092 0.999604
vn 0.000000 0.000000 1.000000
vn -0.003037 -0.042909 0.999074
vn 0.000000 0.000000 1.000000
vn 0.000000 0.000000 1.000000
vn 0.000000 0.000000 1.000000
vn 0.000000 0.000000 1.000000
vn 0.000000 0.000000 1.000000
vn 0.000000 0.000000 1.000000
vn 0.000000 0.000000 1.000000
vn 0.000000 0.000000 1.000000
vn 0.000000 0.000000 1.000000
vn -0.000023 -0.033864 0.999426
vn -0.001973 -0.036544 0.999330
vn 0.000846 -0.025292 0.999680
vn 0.000004 -0.024099 0.999710
vn 0.000000 0.000000 1.000000
vn 0.000000 0.000000 1.000000
vn -0.004444 -0.048006 0.998837
vn 0.007657 -0.040893 0.999134
vn -0.046369 -0.041947 0.998043
vn 0.057901 -0.031464 0.997826
vn 0.148910 -0.028800 0.988431
vn -0.005550 -0.037554 0.999279
vn 0.001405 -0.029038 0.999577
vn -0.002258 -0.078233 0.996933
vn 0.022879 -0.060136 0.997928
vn -0.004423 -0.069127 0.997598
vn -0.000301 -0.066845 0.997763
vn 0.002073 -0.067688 0.997704
vn 0.000000 -0.073196 0.997318
vn 0.022972 -0.051342 0.998417
vn -0.004346 -0.022652 0.999734
vn 0.000000 0.000000 1.000000
vn 0.017238 -0.004501 0.999841
vn 0.000000 0.000000 1.000000
vn 0.000000 0.000000 1.000000
vn -0.001112 -0.024984 0.999687
vn -0.007123 -0.050299 0.998709
vn -0.072681 -0.041821 0.996478
vn 0.136366 -0.024808 0.990348
vn 0.125477 -0.023280 0.991823
vn -0.042433 -0.046376 0.998022
vn 0.043731 -0.040840 0.998208
vn -0.031187 -0.045240 0.998489
vn -0.033725 -0.055997 0.997861
vn -0.064181 -0.026516 0.997586
vn -0.036719 -0.025724 0.998995
vn 0.050729 -0.019404 0.998524
vn 0.108399 -0.024792 0.993798
vn 0.036814 -0.033114 0.998773
vn -0.040430 -0.032126 0.998666
vn -0.075032 -0.020731 0.996966
vn 0.127045 -0.022599 0.991639
vn 0.071696 -0.039612 0.996640
vn -0.063540 -0.035360 0.997353
vn -0.009998 -0.028613 0.999541
vn 0.052471 -0.020804 0.998406
vn -0.038617 -0.020244 0.999049
vn -0.046046 -0.036392 0.998276
vn 0.049172 -0.038031 0.998066
vn -0.010974 -0.020926 0.999721
vn -0.006034 -0.035489 0.999352
vn -0.007674 -0.022077 0.999727
vn -0.009506 -0.018615 0.999782
vn 0.053371 -0.020831 0.998357
vn -0.040070 -0.020389 0.998989
vn -0.011191 -0.046074 0.998875
vn -0.005086 -0.038663 0.999239
vn 0.020095 -0.036873 0.999118
vn -0.018800 -0.044882 0.998815
vn 0.000000 0.000000 1.000000
vn 0.707099 0.000000 0.707114
vn 0.000000 0.000000 1.000000
vn 0.000000 0.000000 1.000000
vn 0.000000 -0.042856 0.999081
vn 0.000000 -0.042856 0.999081
vn 0.000000 -0.042856 0.999081
vn -0.000000 -0.043789 0.999041
vn 0.000000 -0.085633 0.996327
vn 0.000000 -0.085633 0.996327
vn -0.000000 -0.085633 0.996327
vn -0.000000 -0.085633 0.996327
vn 0.000000 0.000000 1.000000
vn 0.000000 0.000000 1.000000
vn 0.000000 0.000000 1.000000
vn 0.002266 -0.006685 0.999975
vn 0.000000 -0.004245 0.999991
vn 0.000000 0.000000 1.000000
vn 0.000000 0.000000 1.000000
vn 0.000000 0.000000 1.000000
vn 0.000000 0.000000 1.000000
vn 0.000000 0.000000 1.000000
vn 0.000000 0.000000 1.000000
vn 0.000000 0.000000 1.000000
vn 0.000000 0.000000 1.000000
vn 0.000000 0.000000 1.000000
vn 0.000000 0.000000 1.000000
vn 0.000000 0.000000 1.000000
vn 0.000000 0.000000 1.000000
vn 0.000369 0.000304 1.000000
g fff0ade4_00139_00223c9b_e1
f 2/4/2 43/66/43 42/65/42
f 43/66/43 2/4/2 132/220/132
f 43/66/43 132/220/132 3/5/3
g fff0ade4_00139_00223c9b_e2
f 127/180/127 80/127/80 105/148/105
f 26/42/26 45/68/45 133/187/133
f 63/94/63 11/19/11 5/8/5
f 6/9/6 159/218/159 12/21/12
f 18/28/18 15/27/15 19/31/19
f 44/33/44 56/1/56 61/1/61
f 137/193/137 65/1/65 71/102/71
f 20/33/20 17/27/17 56/1/56
f 7/12/7 12/21/12 9/14/9
f 19/31/19 17/27/17 20/33/20
f 159/218/159 13/23/13 12/21/12
f 6/11/6 7/15/7 10/16/10
f 5/8/5 71/102/71 65/1/65
f 11/19/11 148/205/148 5/8/5
f 45/68/45 26/41/26 46/69/46
f 24/38/24 46/40/46 25/39/25
f 14/22/14 12/21/12 13/23/13
f 56/1/56 44/64/44 20/34/20
f 131/27/131 19/30/19 15/29/15
f 45/68/45 44/67/44 133/187/133
f 71/102/71 5/8/5 69/101/69
f 9/14/9 12/21/12 76/1/76
f 6/9/6 12/21/12 7/12/7
f 26/41/26 25/38/25 46/69/46
f 17/27/17 19/25/19 131/185/131
f 8/13/8 11/19/11 63/94/63
f 67/98/67 69/101/69 5/8/5
f 11/19/11 9/14/9 76/1/76
f 156/215/156 11/19/11 8/13/8
f 118/169/118 116/166/116 107/150/107
f 91/128/91 98/138/98 85/119/85
f 135/190/135 65/1/65 137/193/137
f 116/166/116 122/174/122 119/170/119
f 83/117/83 98/138/98 81/114/81
f 81/114/81 98/138/98 91/128/91
f 89/124/89 88/123/88 128/181/128
f 122/154/122 110/144/110 123/175/123
f 81/114/81 105/148/105 83/117/83
f 121/173/121 116/166/116 118/169/118
f 121/173/121 124/176/124 117/167/117
f 129/182/129 89/124/89 128/181/128
f 116/166/116 120/171/120 122/174/122
f 127/180/127 124/155/124 80/127/80
f 120/171/120 110/156/110 122/174/122
f 119/170/119 122/174/122 111/158/111
f 116/166/116 119/170/119 107/150/107
f 117/167/117 108/151/108 116/166/116
f 126/179/126 121/173/121 118/169/118
f 124/176/124 125/177/125 117/167/117
f 108/151/108 120/171/120 116/166/116
f 121/173/121 117/167/117 116/166/116
f 80/161/80 124/176/124 126/179/126
f 123/175/123 110/144/110 128/181/128
f 122/154/122 123/175/123 111/143/111
f 124/176/124 121/173/121 126/179/126
f 124/176/124 81/159/81 125/177/125
f 81/114/81 127/180/127 105/148/105
f 81/114/81 124/155/124 127/180/127
f 128/181/128 88/123/88 130/184/130
f 123/175/123 128/181/128 111/143/111
f 110/144/110 129/182/129 128/181/128
f 128/181/128 130/184/130 111/143/111
f 17/27/17 131/185/131 16/26/16
f 133/187/133 44/67/44 61/1/61
f 89/124/89 140/196/140 88/123/88
f 88/123/88 140/196/140 141/198/141
f 140/196/140 135/190/135 141/198/141
f 141/198/141 135/190/135 137/193/137
f 148/205/148 67/98/67 5/8/5
f 9/14/9 11/19/11 156/215/156
g fff0ade4_00139_00223c9b_e4
f 37/61/37 78/111/78 62/93/62
f 146/203/146 94/132/94 36/60/36
f 18/30/18 49/73/49 51/79/51
f 41/76/41 21/35/21 22/36/22
f 36/60/36 40/56/40 146/203/146
f 36/60/36 37/61/37 1/10/1
f 134/189/134 133/188/133 59/91/59
f 15/29/15 18/30/18 52/80/52
f 147/204/147 67/3/67 148/59/148
f 34/54/34 33/53/33 155/214/155
f 28/47/28 158/217/158 35/57/35
f 48/72/48 22/36/22 23/37/23
f 83/117/83 74/108/74 75/105/75
f 38/56/38 148/206/148 11/18/11
f 56/87/56 17/27/17 57/88/57
f 2/4/2 27/43/27 16/26/16
f 2/29/2 131/80/131 132/186/132
f 94/133/94 146/62/146 160/219/160
f 137/193/137 71/102/71 70/103/70
f 27/43/27 57/88/57 17/27/17
f 4/7/4 62/93/62 55/86/55
f 63/94/63 64/95/64 8/13/8
f 10/16/10 7/17/7 33/53/33
f 48/72/48 23/37/23 49/73/49
f 7/17/7 9/14/9 157/216/157
f 38/62/38 11/18/11 76/109/76
f 151/210/151 156/215/156 8/13/8
f 53/81/53 26/42/26 134/189/134
f 51/79/51 49/73/49 47/71/47
f 1/20/1 37/61/37 4/7/4
f 41/84/41 44/67/44 21/35/21
f 46/69/46 21/35/21 45/77/45
f 46/69/46 22/78/22 21/35/21
f 46/69/46 23/70/23 22/78/22
f 45/77/45 21/35/21 44/67/44
f 26/40/26 53/82/53 25/39/25
f 53/82/53 51/79/51 25/39/25
f 17/27/17 16/26/16 27/43/27
f 19/32/19 50/74/50 48/72/48
f 131/185/131 15/25/15 132/4/132
f 12/21/12 29/48/29 76/109/76
f 34/54/34 35/58/35 10/16/10
f 47/71/47 23/70/23 25/39/25
f 62/93/62 4/7/4 37/61/37
f 30/49/30 79/112/79 54/85/54
f 152/211/152 154/213/154 144/201/144
f 7/17/7 32/52/32 33/53/33
f 10/16/10 33/53/33 34/54/34
f 158/217/158 6/9/6 35/57/35
f 20/34/20 50/74/50 19/32/19
f 19/32/19 48/72/48 18/30/18
f 20/34/20 44/64/44 50/74/50
f 150/209/150 153/212/153 156/215/156
f 149/208/149 160/219/160 76/109/76
f 15/25/15 52/5/52 132/4/132
f 48/72/48 49/73/49 18/30/18
f 78/111/78 79/112/79 30/49/30
f 12/21/12 14/22/14 29/48/29
f 50/74/50 22/36/22 48/72/48
f 29/2/29 14/44/14 30/49/30
f 14/23/14 13/24/13 30/49/30
f 78/111/78 31/46/31 62/93/62
f 30/49/30 31/46/31 78/111/78
f 158/217/158 31/50/31 159/218/159
f 24/38/24 23/70/23 46/69/46
f 61/92/61 56/87/56 59/91/59
f 159/218/159 6/9/6 158/217/158
f 66/55/66 63/94/63 5/8/5
f 62/93/62 31/51/31 60/90/60
f 35/58/35 6/11/6 10/16/10
f 29/48/29 95/110/95 149/207/149
f 79/112/79 37/61/37 36/60/36
f 29/2/29 30/49/30 95/135/95
f 37/61/37 79/112/79 78/111/78
f 30/49/30 13/24/13 31/45/31
f 23/37/23 47/71/47 49/73/49
f 50/74/50 41/75/41 22/36/22
f 18/30/18 51/79/51 52/80/52
f 23/70/23 24/38/24 25/39/25
f 51/79/51 47/71/47 25/39/25
f 41/83/41 50/74/50 44/64/44
f 60/90/60 58/89/58 62/93/62
f 55/86/55 62/93/62 58/89/58
f 57/88/57 59/91/59 56/87/56
f 66/55/66 64/95/64 63/94/63
f 64/95/64 39/63/39 8/13/8
f 5/8/5 65/96/65 66/55/66
f 139/195/139 135/191/135 140/197/140
f 68/100/68 70/103/70 71/102/71
f 67/98/67 40/56/40 68/100/68
f 67/98/67 68/100/68 69/101/69
f 71/102/71 69/101/69 68/100/68
f 65/96/65 143/200/143 66/97/66
f 73/107/73 85/120/85 72/106/72
f 79/112/79 94/133/94 54/85/54
f 149/208/149 76/109/76 29/134/29
f 94/133/94 160/219/160 149/208/149
f 30/49/30 54/85/54 96/136/96
f 83/117/83 84/118/84 74/108/74
f 84/118/84 83/113/83 104/147/104
f 81/115/81 100/140/100 82/116/82
f 126/179/126 112/162/112 99/161/99
f 85/119/85 98/138/98 97/137/97
f 98/138/98 83/117/83 97/137/97
f 73/107/73 86/121/86 85/120/85
f 91/129/91 100/140/100 81/115/81
f 85/119/85 97/137/97 72/104/72
f 130/184/130 102/142/102 111/143/111
f 138/194/138 142/199/142 141/198/141
f 103/146/103 89/125/89 129/183/129
f 80/127/80 99/118/99 105/148/105
f 91/129/91 85/120/85 86/121/86
f 60/90/60 31/50/31 92/130/92
f 94/2/94 95/135/95 77/110/77
f 93/131/93 54/85/54 77/110/77
f 94/132/94 79/112/79 36/60/36
f 94/133/94 77/134/77 54/85/54
f 95/135/95 30/49/30 96/136/96
f 77/110/77 95/135/95 93/131/93
f 96/136/96 54/85/54 93/131/93
f 95/135/95 96/136/96 93/131/93
f 97/137/97 83/117/83 75/105/75
f 119/170/119 115/165/115 106/149/106
f 101/141/101 91/129/91 86/121/86
f 100/140/100 91/129/91 101/141/101
f 99/139/99 80/113/80 126/162/126
f 87/122/87 130/184/130 88/123/88
f 120/172/120 114/164/114 110/157/110
f 90/126/90 89/125/89 103/146/103
f 104/147/104 83/113/83 105/139/105
f 105/148/105 99/118/99 104/117/104
f 107/150/107 106/149/106 118/169/118
f 111/158/111 115/165/115 119/170/119
f 113/163/113 109/153/109 117/168/117
f 103/146/103 110/145/110 114/164/114
f 109/153/109 120/172/120 108/152/108
f 102/142/102 115/165/115 111/158/111
f 113/163/113 81/160/81 82/116/82
f 106/149/106 112/162/112 118/169/118
f 113/163/113 125/178/125 81/160/81
f 109/153/109 108/152/108 117/168/117
f 109/153/109 114/164/114 120/172/120
f 119/170/119 106/149/106 107/150/107
f 113/163/113 117/168/117 125/178/125
f 118/169/118 112/162/112 126/179/126
f 103/146/103 129/183/129 110/145/110
f 87/122/87 102/142/102 130/184/130
f 16/26/16 131/185/131 2/4/2
f 132/186/132 52/80/52 3/6/3
f 133/188/133 61/92/61 59/91/59
f 134/189/134 26/42/26 133/188/133
f 140/197/140 89/125/89 90/126/90
f 65/96/65 135/191/135 136/192/136
f 138/194/138 137/193/137 70/103/70
f 87/122/87 88/123/88 142/199/142
f 136/192/136 135/191/135 139/195/139
f 139/195/139 140/197/140 90/126/90
f 138/194/138 141/198/141 137/193/137
f 142/199/142 88/123/88 141/198/141
f 65/96/65 136/192/136 143/200/143
f 144/201/144 33/53/33 32/52/32
f 152/211/152 144/201/144 32/52/32
f 154/213/154 33/53/33 144/201/144
f 34/54/34 145/202/145 39/63/39
f 146/203/146 147/204/147 38/59/38
f 76/132/76 160/203/160 38/59/38
f 40/56/40 67/3/67 147/204/147
f 146/203/146 40/56/40 147/204/147
f 38/56/38 147/99/147 148/206/148
f 149/207/149 95/110/95 94/109/94
f 160/219/160 146/62/146 38/109/38
f 39/63/39 145/202/145 8/13/8
f 156/215/156 151/210/151 150/209/150
f 8/13/8 145/202/145 151/210/151
f 145/202/145 155/214/155 151/210/151
f 150/209/150 152/211/152 153/212/153
f 150/209/150 154/213/154 152/211/152
f 157/216/157 9/14/9 153/212/153
f 152/211/152 32/52/32 153/212/153
f 150/209/150 151/210/151 154/213/154
f 151/210/151 155/214/155 154/213/154
f 155/214/155 33/53/33 154/213/154
f 34/54/34 155/214/155 145/202/145
f 153/212/153 9/14/9 156/215/156
f 7/17/7 157/216/157 32/52/32
f 32/52/32 157/216/157 153/212/153
f 92/130/92 31/50/31 158/217/158
f 13/23/13 159/218/159 31/50/31
