# fff0120b_00016_0005ad6b
o fff0120b_00016_0005ad6b
v 0.490600 -0.016983 -0.628779
v 0.493683 -0.014236 0.581462
v 0.524323 0.152420 -0.713403
v -0.538391 -0.360306 0.750978
v 0.532257 -0.372055 -0.713403
v 0.532257 -0.372330 0.750978
v 0.495667 0.145859 -0.301574
v 0.495667 0.145859 -0.052924
v -0.484955 0.157120 -0.052924
v 0.495697 0.161117 0.679255
v 0.507050 0.145737 0.670528
v 0.538391 0.160629 0.750978
v 0.495697 0.161117 -0.636722
v -0.484955 0.157120 0.670528
v 0.518707 -0.339462 -0.750978
v 0.518707 -0.339462 -0.713403
v -0.484955 0.157120 -0.327615
v 0.495667 0.145859 -0.327615
v -0.480682 -0.003464 -0.620837
v -0.538391 -0.360306 -0.713403
v 0.495270 0.112167 -0.000756
v 0.495270 0.112167 -0.327615
v -0.485382 0.123428 -0.327615
v -0.485382 0.123428 -0.000756
v -0.532288 0.172897 -0.713403
v -0.484802 0.172348 0.679255
v -0.484802 0.172348 -0.636722
v -0.484955 0.157120 0.652541
v 0.495667 0.145859 -0.311483
v -0.484955 0.157120 -0.311483
v -0.484955 0.157120 -0.636722
v 0.495667 0.145859 -0.636722
v 0.495667 0.145859 -0.380611
v -0.484955 0.157120 -0.380611
v -0.480682 -0.003464 0.581462
v -0.484955 0.159561 0.340374
v 0.494598 0.148300 0.340374
v -0.513489 0.164322 -0.713403
v -0.513489 0.164322 -0.750978
v -0.484955 0.157120 -0.301574
v 0.498444 0.141495 0.274557
v -0.473663 0.159409 -0.002264
v 0.494598 0.148300 -0.002264
v 0.494598 0.148300 0.013616
v -0.473663 0.159409 0.013616
v -0.469818 0.152603 0.324126
v -0.532288 0.172897 0.750978
v 0.494598 0.148300 0.606057
v -0.484955 0.159561 0.606057
v 0.498444 0.141495 0.324126
v 0.494232 0.114639 0.651034
v -0.485321 0.125870 0.651034
v 0.498047 0.107803 0.324126
v -0.470215 0.118881 0.324126
v 0.494598 0.148300 0.023160
v -0.473663 0.159409 0.023160
v -0.470367 0.106094 0.340374
v -0.484955 0.159561 0.350159
v -0.469818 0.152603 0.274557
v -0.469818 0.152603 0.023160
v 0.498444 0.141495 0.023160
v -0.469818 0.152603 0.340374
v 0.494598 0.148300 0.350159
v 0.497894 0.095016 0.340374
v 0.498444 0.141495 0.340374
v 0.524323 0.152420 -0.750978
v -0.475311 0.013718 0.023160
v 0.492950 0.002609 0.023160
v -0.519409 -0.351486 -0.713403
v -0.519409 -0.351486 -0.750978
v 0.538391 0.160629 -0.713403
v 0.495667 0.145859 0.652541
vt -6.849874 -5.849874
vt -5.849874 -5.849874
vt -5.849874 -6.849874
vt 18.870920 22.096788
vt 0.325560 -0.165282
vt -0.057463 0.000006
vt 0.000000 1.000000
vt 0.009048 0.964601
vt 0.000000 0.000006
vt 1.020061 1.160734
vt 1.000000 0.999998
vt 1.006540 0.160578
vt 1.000000 1.000000
vt 0.000008 1.000000
vt 1.000000 0.000000
vt 0.000000 0.000001
vt 0.000001 0.028264
vt -0.000000 211.462585
vt 8959.110352 -106.179398
vt 2.285998 -0.000097
vt -0.000010 -0.000010
vt -0.059451 -0.000000
vt 0.334791 -0.000159
vt -1.022548 1.000001
vt 1.000000 0.680768
vt 0.000000 0.706365
vt 4.944346 7.114520
vt -6.071890 -8.127582
vt 0.031190 1.000000
vt 0.976099 1.000000
vt 0.000000 0.805344
vt 0.999999 0.792030
vt 1.000000 0.024972
vt 0.000000 0.000000
vt 1.000000 0.000000
vt 0.000000 0.000000
vt 1.000000 0.033488
vt 3.028236 0.383609
vt -0.395665 -0.088232
vt 0.976099 1.000000
vt 1.000000 1.000000
vt 0.000000 0.084548
vt 0.000000 0.778132
vt 1.000000 0.779043
vt 0.000000 1.000000
vt 0.031190 1.000000
vt -0.257968 0.199970
vt -1.995277 -0.284324
vt 0.334791 -0.000159
vt 0.325560 -0.165282
vt -0.057463 0.000006
vt 1.000000 0.999998
vt 1.006540 0.160578
vt 1.020061 1.160734
vt -1.995277 -0.284324
vt -0.395665 -0.088232
vt 0.976099 1.000000
vn -0.708415 0.051665 0.703902
vn -0.794634 0.303414 -0.525830
vn 0.715151 0.698970 0.000000
vn -0.707109 0.008094 0.707058
vn 0.999934 -0.011515 -0.000002
vn 0.706955 -0.008138 0.707212
vn 0.011483 0.999934 0.000000
vn 0.011014 0.959114 0.282807
vn 0.011014 0.959092 0.282882
vn -0.173978 0.955359 -0.238791
vn 0.011474 0.999934 -0.000475
vn 0.583941 0.570688 0.577346
vn -0.276399 0.914801 0.294522
vn 0.011483 0.999934 -0.000006
vn 0.999935 -0.011415 0.000000
vn 0.999935 -0.011415 0.000000
vn 0.011483 0.999934 0.000000
vn 0.011483 0.999934 0.000000
vn 0.718340 0.075710 0.691560
vn -0.999934 0.011446 0.000000
vn 0.009646 0.839969 0.542549
vn 0.009690 0.843829 0.536525
vn 0.009690 0.843826 0.536529
vn 0.009646 0.839966 0.542553
vn -0.698950 0.715171 0.000030
vn 0.195470 0.952454 -0.233715
vn 0.287425 0.914023 0.286268
vn 0.011483 0.999934 0.000000
vn 0.011483 0.999934 0.000000
vn 0.011483 0.999934 0.000000
vn 0.011483 0.999934 0.000000
vn 0.011483 0.999934 0.000000
vn 0.011026 0.960119 0.279374
vn 0.011025 0.960098 0.279448
vn 0.788944 0.312768 -0.528908
vn 0.011495 0.999934 0.000000
vn 0.011495 0.999934 0.000000
vn -0.698948 0.715173 0.000000
vn -0.698948 0.715173 0.000000
vn 0.011483 0.999934 0.000000
vn 0.010952 0.955718 0.294080
vn 0.011472 0.999934 0.000000
vn 0.011472 0.999934 0.000000
vn 0.011472 0.999934 0.000000
vn 0.011472 0.999934 0.000000
vn 0.011472 0.999934 0.000000
vn -0.570694 0.583941 0.577340
vn 0.010894 0.948763 0.315802
vn 0.010907 0.948721 0.315926
vn 0.011472 0.999934 0.000000
vn 0.009178 0.800542 0.599206
vn 0.009199 0.800291 0.599541
vn 0.009461 0.826971 0.562165
vn 0.009484 0.826743 0.562500
vn 0.008111 0.707024 0.707143
vn 0.008112 0.707097 0.707070
vn 0.000000 0.000000 1.000000
vn 0.011495 0.999934 0.000000
vn 0.010964 0.955649 0.294304
vn 0.011472 0.999934 0.000000
vn 0.011472 0.999934 0.000000
vn 0.008111 0.706985 0.707182
vn 0.011495 0.999934 0.000000
vn 0.000000 0.000000 1.000000
vn 0.008113 0.707138 0.707029
vn 0.715151 0.698970 0.000000
vn 0.000000 0.000000 1.000000
vn 0.000000 0.000000 1.000000
vn -0.999934 0.011477 0.000000
vn -0.999934 0.011477 0.000000
vn 0.715179 0.698941 0.000005
vn 0.011474 0.999934 -0.000471
g fff0120b_00016_0005ad6b_e0
f 34/32/34 33/31/33 32/16/32
f 32/16/32 31/15/31 34/32/34
f 56/48/56 55/39/55 44/36/44
f 44/36/44 45/35/45 56/48/56
f 30/30/30 29/29/29 18/14/18
f 17/13/17 30/30/30 18/14/18
f 49/44/49 48/43/48 63/42/63
f 28/13/28 14/30/14 72/14/72
f 71/12/71 13/11/13 12/10/12
f 27/9/27 47/8/47 26/7/26
f 72/14/72 14/30/14 11/57/11
f 13/6/13 25/5/25 27/9/27
f 25/5/25 13/6/13 71/6/71
f 26/4/26 12/4/12 10/4/10
f 47/4/47 12/4/12 26/4/26
f 47/8/47 27/9/27 25/5/25
f 46/41/46 62/40/62 50/45/50
f 62/40/62 65/46/65 50/45/50
f 45/40/45 44/46/44 43/45/43
f 42/41/42 45/40/45 43/45/43
f 61/39/61 60/48/60 59/47/59
f 59/47/59 41/38/41 61/39/61
f 63/42/63 58/37/58 49/44/49
f 9/32/9 8/31/8 7/16/7
f 7/16/7 40/15/40 9/32/9
f 10/11/10 12/12/12 13/6/13
f 56/48/56 68/56/68 55/39/55
f 68/56/68 56/48/56 67/55/67
f 37/36/37 36/35/36 58/37/58
f 39/28/39 70/27/70 69/4/69
f 69/4/69 38/3/38 39/28/39
f 58/37/58 63/42/63 37/36/37
g fff0120b_00016_0005ad6b_e1
f 8/26/8 9/25/9 24/13/24
f 23/13/23 22/14/22 33/31/33
f 33/31/33 34/32/34 23/13/23
f 24/13/24 21/14/21 8/26/8
f 54/41/54 53/45/53 41/38/41
f 41/38/41 59/47/59 54/41/54
f 52/41/52 51/45/51 48/43/48
f 48/43/48 49/44/49 52/41/52
f 71/12/71 12/10/12 6/54/6
f 6/54/6 5/53/5 71/12/71
f 25/2/25 20/4/20 4/1/4
f 4/4/4 47/2/47 25/3/25
g fff0120b_00016_0005ad6b_e2
f 57/34/57 64/34/64 62/34/62
f 65/34/65 62/34/62 64/34/64
f 47/4/47 4/4/4 6/4/6
f 6/2/6 12/1/12 47/24/47
g fff0120b_00016_0005ad6b_e5
f 66/23/66 3/5/3 16/50/16
f 16/50/16 15/49/15 66/23/66
g fff0120b_00016_0005ad6b_e4
f 66/23/66 39/22/39 38/6/38
f 38/6/38 3/5/3 66/23/66
f 10/4/10 35/21/35 26/4/26
f 35/21/35 10/4/10 2/21/2
f 13/6/13 27/9/27 19/20/19
f 19/20/19 1/19/1 13/6/13
f 27/9/27 26/7/26 35/18/35
f 35/18/35 19/20/19 27/9/27
f 2/52/2 13/6/13 1/51/1
f 13/6/13 2/52/2 10/11/10
f 29/16/29 30/15/30 40/33/40
f 40/33/40 7/17/7 29/16/29
