# fff0af14_00200_006473f2
o fff0af14_00200_006473f2
v 0.157215 1.892542 -2.779686
v 0.157215 1.892542 1.420108
v 0.138782 -4.303568 1.420108
v 0.138782 -4.303568 -2.779686
v -0.076171 1.632394 -2.776634
v -0.076171 1.632394 1.422917
v -0.142127 1.475000 1.051406
v -0.076171 1.475000 -2.776634
v -0.142127 1.475000 -2.776634
v -0.076171 1.475000 1.051406
v 0.152703 1.475000 -2.782738
v 0.152703 1.475000 1.045789
v 0.086751 1.475000 -2.782738
v 0.086751 1.632394 1.417300
v 0.086751 1.475000 1.045789
v 0.086751 1.632394 -2.782738
v 0.071669 -4.111659 -2.776634
v 0.071669 -4.111659 1.422917
v 0.137617 -3.912936 1.051406
v 0.071669 -3.912936 -2.776634
v 0.137617 -3.912936 -2.776634
v 0.071669 -3.912936 1.051406
v -0.157213 -3.912936 -2.782738
v -0.157213 -3.912936 1.045789
v -0.091249 -3.912936 -2.782738
v -0.091249 -4.111659 1.417300
v -0.091249 -3.912936 1.045789
v -0.091249 -4.111659 -2.782738
vt 0.884938 1.139658
vt 0.960953 1.069214
vt 0.885074 1.065689
vt 0.884939 1.139514
vt 0.960940 1.136861
vt 0.960963 1.068742
vt 0.884939 1.139514
vt 0.960953 1.069214
vt 0.885074 1.065689
vt 0.884939 1.139514
vt 0.960940 1.136861
vt 0.960963 1.068742
vt 0.884939 1.139514
vt 0.884939 1.139514
vt 0.885074 1.065689
vt 0.885073 1.065833
vt 0.885074 1.065833
vt 0.884939 1.139514
vt 1.929777 1.582919
vt 1.863480 1.957901
vt 1.929777 1.957756
vt 1.863480 1.582949
vt 1.857671 1.957826
vt 1.923952 1.582912
vt 1.857671 1.582952
vt 1.923952 1.957682
vt 1.863431 1.582949
vt 1.929718 1.957757
vt 1.863431 1.957901
vt 1.929718 1.582919
vt 1.923952 1.957682
vt 1.857663 1.582961
vt 1.923952 1.582921
vt 1.857663 1.957826
vt 1.296073 1.154291
vt 1.285136 1.026926
vt 1.296073 1.027140
vt 1.289461 1.145095
vt 1.186969 1.027094
vt 1.194481 1.144252
vt 1.186969 1.154256
vt 1.194150 1.026980
vt 1.330451 1.654990
vt 1.342183 1.790300
vt 1.330451 1.801282
vt 1.342183 1.654876
vt 1.445167 1.654519
vt 1.461649 1.801027
vt 1.445167 1.789957
vt 1.461650 1.654110
vt 1.787388 1.158909
vt 1.703931 1.070952
vt 1.787316 1.071400
vt 1.704003 1.158447
vt 1.787632 1.071413
vt 1.787705 1.158908
vt 1.704003 1.158447
vt 1.703931 1.070952
vn 0.999942 -0.010805 0.000000
vn 0.999966 -0.007162 -0.004064
vn 0.999995 0.000187 -0.003060
vn 0.999996 0.002981 0.000000
vn 0.698729 -0.715386 0.000000
vn 0.567708 -0.576385 -0.587783
vn 0.000000 -0.706106 -0.708106
vn 0.707106 -0.707108 0.000000
vn 0.000000 -1.000000 0.000000
vn 0.904636 -0.302161 -0.300552
vn 0.701634 -0.712538 0.000000
vn 0.901766 -0.307115 -0.304134
vn 0.000000 -1.000000 0.000000
vn -0.024067 -0.715632 -0.698063
vn 0.000000 -0.706847 -0.707366
vn 0.000000 -1.000000 0.000000
vn 0.000000 1.000000 0.000000
vn 0.023756 0.698944 -0.714782
vn 0.903725 0.300913 -0.304522
vn 0.000000 1.000000 0.000000
vn 0.707802 0.706411 0.000000
vn 0.000000 0.707369 -0.706845
vn 0.000000 1.000000 0.000000
vn 0.000000 0.708107 -0.706105
vn 0.707106 0.707107 0.000000
vn 0.586831 0.578831 -0.566201
vn 0.904404 0.300744 -0.302666
vn 0.715585 0.698526 0.000000
g fff0af14_00200_006473f2_e10
f 28/2/28 26/3/26 18/4/18
f 17/5/17 28/6/28 18/7/18
f 16/8/16 14/9/14 6/10/6
f 5/11/5 16/12/16 6/13/6
f 18/14/18 26/15/26 6/16/6
f 6/17/6 14/1/14 18/18/18
f 25/19/25 24/20/24 27/21/27
f 24/20/24 25/19/25 23/22/23
f 22/23/22 21/24/21 20/25/20
f 21/24/21 22/23/22 19/26/19
f 13/27/13 12/28/12 15/29/15
f 12/28/12 13/27/13 11/30/11
f 10/31/10 9/32/9 8/33/8
f 9/32/9 10/31/10 7/34/7
f 6/35/6 8/36/8 5/37/5
f 8/36/8 6/35/6 10/38/10
f 28/39/28 27/40/27 26/41/26
f 27/40/27 28/39/28 25/42/25
f 26/41/26 27/40/27 10/38/10
f 10/38/10 6/35/6 26/41/26
f 4/43/4 19/44/19 3/45/3
f 19/44/19 4/43/4 21/46/21
f 11/47/11 2/48/2 12/49/12
f 2/48/2 11/47/11 1/50/1
f 3/45/3 19/44/19 12/49/12
f 12/49/12 2/48/2 3/45/3
f 10/51/10 24/52/24 7/53/7
f 24/52/24 10/51/10 27/54/27
f 15/55/15 12/56/12 19/57/19
f 19/57/19 22/58/22 15/55/15
