# fff10b06_00016_00054a2e
o fff10b06_00016_00054a2e
v -0.062019 -0.158387 0.379049
v 0.066659 -0.158387 0.379049
v 0.143227 -0.064030 0.379049
v 0.136762 0.044622 0.379049
v 0.064571 0.123853 0.379049
v -0.040685 0.123853 0.379049
v -0.132653 0.060639 0.379049
v -0.149694 -0.063518 0.379049
v -0.152025 0.395453 0.003293
v 0.170789 0.387122 0.003293
v 0.397286 0.144925 0.003293
v 0.380964 -0.183803 0.003293
v 0.172081 -0.386061 0.003293
v -0.153017 -0.394517 0.003293
v -0.391258 -0.162209 0.003293
v -0.385759 0.176011 0.003293
v -0.062019 -0.161292 0.542002
v 0.066659 -0.155482 0.542002
v 0.143227 -0.064030 0.542002
v 0.136762 0.044622 0.542002
v 0.064571 0.118841 0.542002
v -0.040685 0.128864 0.542002
v -0.132653 0.060639 0.542002
v -0.149694 -0.063518 0.542002
v 0.100453 0.078740 0.543180
v -0.111643 0.078740 0.543180
v 0.100453 -0.130594 0.543180
v -0.111643 -0.130594 0.543180
v 0.072114 0.050769 0.555839
v -0.083304 0.050769 0.555839
v 0.072114 -0.102624 0.555839
v -0.083304 -0.102624 0.555839
v -0.134716 -0.353039 0.194372
v -0.341466 -0.142206 0.194372
v -0.324116 0.150615 0.194372
v -0.116282 0.329465 0.194372
v 0.151016 0.315353 0.194372
v 0.336118 0.118861 0.194372
v 0.332617 -0.153499 0.194372
v 0.153482 -0.342465 0.194372
v -0.093870 -0.268788 0.324098
v 0.116131 -0.262466 0.324098
v 0.239927 -0.127066 0.324098
v 0.248397 0.071921 0.324098
v 0.136075 0.207145 0.324098
v -0.061472 0.236703 0.324098
v -0.216800 0.137267 0.324098
v -0.254458 -0.105280 0.324098
v 0.056256 0.026601 0.295564
v 0.056256 -0.062244 0.295564
v 0.056256 -0.062244 0.540348
v 0.056256 0.026601 0.540348
v -0.037436 0.026601 0.295564
v -0.037436 -0.062244 0.295564
v -0.037436 -0.062244 0.540348
v -0.037436 0.026601 0.540348
v 0.008469 -0.019775 0.360821
v 0.089518 0.061273 0.246201
v -0.072578 0.061272 0.246201
v -0.072578 -0.100825 0.246201
v 0.089518 -0.100824 0.246201
v 0.008469 -0.019775 0.131581
v -0.062019 -0.158387 0.379049
v 0.066659 -0.158387 0.379049
v 0.143227 -0.064030 0.379049
v 0.136762 0.044622 0.379049
v 0.064571 0.123853 0.379049
v -0.040685 0.123853 0.379049
v -0.132653 0.060639 0.379049
v -0.149694 -0.063518 0.379049
vt 0.080532 2.143304
vt 0.885986 2.169496
vt 0.006661 2.165339
vt 0.959857 2.147225
vt 1.839150 2.147225
vt 1.896124 2.169845
vt 2.730779 2.169845
vt 2.673805 2.147225
vt 1.412915 2.169845
vt 0.955516 2.169845
vt 1.417256 2.147225
vt 1.000009 1.000000
vt 2.000009 2.000000
vt 1.000009 2.000000
vt 2.000009 1.000000
vt 0.097625 0.209619
vt 0.979056 0.363607
vt 0.098381 0.035358
vt 0.979056 0.238233
vt 0.084748 0.322200
vt 0.979056 0.982137
vt 0.084748 1.158311
vt 0.979056 0.875229
vt 0.095255 0.950048
vt 0.979056 0.734811
vt 0.096324 0.887870
vt 0.979056 0.647858
vt 0.098227 0.605254
vt 0.979056 0.565034
vt 0.098040 0.416707
vt 0.979056 0.479848
vt 0.979056 0.109087
vt 1.000009 1.000000
vt 2.000009 2.000000
vt 1.000009 2.000000
vt 2.000009 1.000000
vt 0.458297 0.551826
vt 0.478090 0.102446
vt 0.448258 0.274935
vt 0.448257 0.437100
vt 0.448258 0.604457
vt 0.448258 0.770822
vt 0.448257 0.901388
vt 0.444248 1.092655
vt 0.790917 0.938118
vt 0.790917 0.811159
vt 0.790917 0.691008
vt 0.790917 0.586772
vt 0.790917 0.479133
vt 0.790917 0.347244
vt 0.790917 0.194747
vt 0.790917 0.727237
vt 1.466202 0.999999
vt 1.524378 1.999999
vt 1.466202 1.999999
vt 1.524378 0.999999
vt 1.152235 0.999999
vt 1.152235 1.999999
vt 0.792902 0.999999
vt 0.792902 1.999999
vt 0.546449 0.999999
vt 0.546449 1.999999
vt 0.524378 0.999999
vt 0.524378 1.999999
vt 0.785775 0.999999
vt 0.785775 1.999999
vt 1.225066 0.999999
vt 1.225066 1.999999
vt 0.448257 0.901388
vt 0.448258 0.770822
vt 0.790917 0.811159
vt 0.790917 0.691008
vt 0.448258 0.770822
vt 0.790917 0.691008
vt 0.448257 0.901388
vt 0.790917 0.811159
vt 0.448258 0.770822
vt 0.790917 0.691008
vt 0.000000 1.000000
vt 0.250000 1.000000
vt 0.500000 1.000000
vt 0.750000 1.000000
vt 0.000000 0.500000
vt 0.250000 0.500000
vt 0.500000 0.500000
vt 0.750000 0.500000
vt 1.000000 0.500000
vt 0.000000 0.000000
vt 0.250000 0.000000
vt 0.500000 0.000000
vt 0.750000 0.000000
vn -0.396666 -0.917962 -0.001377
vn 0.425367 -0.904935 0.012440
vn 0.951987 -0.306138 0.000000
vn 0.919059 0.394058 0.007042
vn 0.416969 0.908897 0.006620
vn -0.304936 0.952139 -0.021111
vn -0.851212 0.524821 0.000000
vn -0.953906 -0.300107 0.000000
vn -0.333959 0.867057 0.369708
vn 0.371470 0.856238 0.358979
vn 0.885574 0.337971 0.318646
vn 0.877885 -0.394245 0.271825
vn 0.379130 -0.894288 0.237717
vn -0.362206 -0.901390 0.237283
vn -0.891407 -0.354278 0.282633
vn -0.856102 0.388525 0.340791
vn -0.303458 -0.726907 0.616051
vn 0.339421 -0.699316 0.629087
vn 0.735208 -0.240117 0.633888
vn 0.705717 0.311344 0.636418
vn 0.336650 0.686100 0.644928
vn -0.219723 0.744266 0.630706
vn -0.667909 0.401592 0.626596
vn -0.747630 -0.231678 0.622395
vn 0.000000 0.000000 1.000000
vn 0.000000 0.000000 1.000000
vn 0.000000 0.000000 1.000000
vn 0.000000 0.000000 1.000000
vn 0.000000 0.000000 1.000000
vn 0.000000 0.000000 1.000000
vn 0.000000 0.000000 1.000000
vn 0.000000 0.000000 1.000000
vn -0.343232 -0.850259 0.399062
vn -0.849636 -0.323855 0.416217
vn -0.805391 0.386420 0.449472
vn -0.274387 0.836108 0.475010
vn 0.362821 0.795076 0.486020
vn 0.826641 0.322559 0.461108
vn 0.837028 -0.334029 0.433369
vn 0.370919 -0.838378 0.399426
vn -0.243642 -0.633509 0.734374
vn 0.281788 -0.623531 0.729249
vn 0.619378 -0.262737 0.739825
vn 0.638106 0.213565 0.739736
vn 0.350638 0.577920 0.736927
vn -0.116162 0.653379 0.748065
vn -0.543636 0.373004 0.751883
vn -0.636244 -0.218692 0.739843
vn 0.707107 0.707107 0.000000
vn 0.707107 -0.707107 0.000000
vn 0.707107 -0.707107 0.000000
vn 0.707107 0.707107 0.000000
vn -0.707107 0.707107 0.000000
vn -0.707107 -0.707107 0.000000
vn -0.707107 -0.707107 0.000000
vn -0.707107 0.707107 0.000000
vn -0.000005 0.000003 1.000000
vn 0.707106 0.707108 0.000000
vn -0.707108 0.707106 -0.000000
vn -0.707102 -0.707112 0.000000
vn 0.707110 -0.707104 0.000000
vn -0.000005 0.000003 -1.000000
vn -0.184476 -0.390939 0.901740
vn 0.176105 -0.381911 0.907266
vn 0.413906 -0.122581 0.902029
vn 0.394098 0.175920 0.902075
vn 0.174253 0.409395 0.895562
vn -0.132876 0.410119 0.902301
vn -0.389141 0.211578 0.896551
vn -0.423226 -0.119956 0.898048
g fff10b06_00016_00054a2e_e0
f 20/1/20 18/2/18 19/3/19
f 18/2/18 20/1/20 21/4/21
f 17/5/17 22/6/22 23/7/23
f 23/7/23 24/8/24 17/5/17
f 21/4/21 17/9/17 18/10/18
f 17/9/17 21/4/21 22/11/22
f 7/53/7 24/54/24 23/55/23
f 24/54/24 7/53/7 8/56/8
f 6/57/6 23/55/23 22/58/22
f 23/55/23 6/57/6 7/53/7
f 5/59/5 22/58/22 21/60/21
f 22/58/22 5/59/5 6/57/6
f 4/61/4 21/60/21 20/62/20
f 21/60/21 4/61/4 5/59/5
f 3/63/3 20/62/20 19/64/19
f 20/62/20 3/63/3 4/61/4
f 2/65/2 19/64/19 18/66/18
f 19/64/19 2/65/2 3/63/3
f 1/67/1 18/66/18 17/68/17
f 18/66/18 1/67/1 2/65/2
f 1/67/1 17/68/17 24/54/24
f 24/54/24 8/56/8 1/67/1
g fff10b06_00016_00054a2e_e1
f 29/34/29 32/33/32 31/36/31
f 32/33/32 29/34/29 30/35/30
g fff10b06_00016_00054a2e_e2
f 16/16/16 15/18/15 35/39/35
f 46/49/46 47/50/47 68/31/68
f 45/48/45 36/40/36 46/49/46
f 13/22/13 12/24/12 40/44/40
f 47/50/47 48/51/48 69/17/69
f 11/26/11 10/28/10 38/42/38
f 10/28/10 9/30/9 37/41/37
f 9/30/9 16/16/16 36/40/36
f 39/43/39 38/42/38 43/46/43
f 48/51/48 63/32/63 70/19/70
f 42/45/42 41/52/41 40/44/40
f 48/51/48 70/19/70 69/17/69
f 45/48/45 46/49/46 67/29/67
f 47/50/47 69/17/69 68/31/68
f 41/52/41 48/51/48 33/37/33
f 46/49/46 68/31/68 67/29/67
f 41/52/41 64/23/64 63/21/63
f 47/50/47 35/39/35 48/51/48
f 43/46/43 65/25/65 64/23/64
f 12/24/12 11/26/11 39/43/39
f 44/47/44 66/27/66 65/25/65
f 40/44/40 12/24/12 39/43/39
f 45/48/45 67/29/67 66/27/66
f 34/38/34 33/37/33 48/51/48
f 33/37/33 13/22/13 40/44/40
f 14/20/14 13/22/13 33/37/33
f 44/47/44 37/41/37 45/48/45
f 39/43/39 11/26/11 38/42/38
f 34/38/34 14/20/14 33/37/33
f 15/18/15 14/20/14 34/38/34
f 40/44/40 39/43/39 42/45/42
f 41/52/41 63/32/63 48/51/48
f 35/39/35 34/38/34 48/51/48
f 35/39/35 15/18/15 34/38/34
f 44/47/44 45/48/45 66/27/66
f 46/49/46 36/40/36 47/50/47
f 36/40/36 35/39/35 47/50/47
f 36/40/36 16/16/16 35/39/35
f 42/45/42 64/23/64 41/52/41
f 33/37/33 40/44/40 41/52/41
f 37/41/37 36/40/36 45/48/45
f 37/41/37 9/30/9 36/40/36
f 42/45/42 43/46/43 64/23/64
f 42/45/42 39/43/39 43/46/43
f 38/42/38 37/41/37 44/47/44
f 38/42/38 10/28/10 37/41/37
f 43/46/43 44/47/44 65/25/65
f 43/46/43 38/42/38 44/47/44
g fff10b06_00016_00054a2e_e3
f 28/12/28 25/13/25 26/14/26
f 25/13/25 28/12/28 27/15/27
g fff10b06_00016_00054a2e_e4
f 50/69/50 49/70/49 51/71/51
f 51/71/51 49/70/49 52/72/52
f 56/74/56 52/72/52 49/70/49
f 49/70/49 53/73/53 56/74/56
f 51/71/51 55/76/55 50/69/50
f 54/75/54 50/69/50 55/76/55
f 55/78/55 56/74/56 53/73/53
f 53/73/53 54/77/54 55/78/55
g fff10b06_00016_00054a2e_e6
f 57/79/57 58/83/58 59/84/59
f 57/80/57 59/84/59 60/85/60
f 57/81/57 60/85/60 61/86/61
f 57/82/57 61/86/61 58/87/58
f 62/88/62 59/84/59 58/83/58
f 62/89/62 60/85/60 59/84/59
f 62/90/62 61/86/61 60/85/60
f 62/91/62 58/87/58 61/86/61
